# Roblox asset pack: animal_swordfish (creatures), from the Studio model "Swordfish". Exported with Export Selection, split by tools/build_creatures.py: one object per rigid body. Units: studs. +Y up, front faces -Z, pivot (bottom centre) at the origin.
mtllib animal_swordfish.mtl

v -5.29000 1.26000 -0.06000
v -5.29000 1.18000 0.06000
v -5.29000 1.26000 0.06000
v -5.29000 1.18000 -0.06000
v 5.14910 2.88000 0.13000
v 4.95390 2.09000 0.13000
v 5.08130 2.15000 0.00000
v 5.29050 3.00000 0.00000
v 5.14910 2.88000 -0.13000
v 4.95390 2.09000 -0.13000
v 4.58150 1.44000 0.13000
v 4.68250 1.45000 0.00000
v 4.58150 1.44000 -0.13000
v 4.23960 0.84000 0.00000
v 4.58590 0.22000 0.13000
v 4.68720 0.15000 0.00000
v 4.16800 0.87000 0.13000
v 4.58590 0.22000 -0.13000
v 4.16800 0.87000 -0.13000
v -4.27400 1.31000 -0.13000
v -4.27400 1.14000 0.13000
v -4.27400 1.31000 0.13000
v -4.27400 1.14000 -0.13000
v 2.88910 1.03000 0.29000
v 2.88910 1.03000 -0.29000
v 2.88910 1.40000 0.29000
v 2.88910 1.40000 -0.29000
v 2.80850 0.66000 0.28000
v 2.80850 0.66000 -0.28000
v 2.80850 1.03000 0.28000
v 2.80850 1.03000 -0.28000
v -3.39500 1.36000 -0.22000
v -3.39500 1.08000 0.22000
v -3.39500 1.36000 0.22000
v -3.39500 1.08000 -0.22000
v -3.31500 1.21000 -0.18000
v -3.31500 0.98000 0.18000
v -3.31500 1.21000 0.18000
v -3.31500 0.98000 -0.18000
v -3.18600 1.49000 -0.38000
v -3.18600 1.00000 0.38000
v -3.18600 1.49000 0.38000
v -3.18600 1.00000 -0.38000
v -3.14100 1.00000 0.37000
v -3.14100 0.79000 -0.37000
v -3.14100 0.79000 0.37000
v -3.14100 1.00000 -0.37000
v -2.86800 1.39000 0.36000
v -2.89300 1.18000 0.43000
v -2.87500 1.39000 0.43000
v -2.88600 1.18000 0.36000
v -2.86800 1.39000 -0.36000
v -2.89300 1.18000 -0.43000
v -2.88600 1.18000 -0.36000
v -2.87500 1.39000 -0.43000
v -2.78400 1.26000 0.45000
v -2.77300 1.36000 0.41000
v -2.78100 1.26000 0.41000
v -2.77600 1.36000 0.45000
v -2.77300 1.36000 -0.41000
v -2.78400 1.26000 -0.45000
v -2.78100 1.26000 -0.41000
v -2.77600 1.36000 -0.45000
v -2.11500 2.27000 0.11000
v -1.61400 3.05000 0.00000
v -2.11500 2.27000 0.00000
v -1.61400 3.05000 0.11000
v -1.61400 3.05000 -0.11000
v -2.11500 2.27000 -0.11000
v -2.55500 1.31000 0.00000
v -2.55500 1.31000 0.11000
v -2.55500 1.31000 -0.11000
v -1.65500 0.21000 1.13000
v -1.38200 0.16000 1.33000
v -1.63600 0.30000 1.18000
v -1.40100 0.08000 1.29000
v -1.40100 0.08000 -1.29000
v -1.65500 0.21000 -1.13000
v -1.38200 0.16000 -1.33000
v -1.63600 0.30000 -1.18000
v 3.67710 1.08000 0.13000
v 3.71380 1.06000 0.00000
v 3.67710 1.08000 -0.13000
v 3.76750 0.08000 0.13000
v 3.81050 0.00000 0.00000
v 3.76750 0.08000 -0.13000
v -1.94600 0.48000 0.73000
v -1.92700 0.57000 0.77000
v -1.94600 0.48000 -0.73000
v -1.92700 0.57000 -0.77000
v -2.18000 1.00000 0.54000
v -2.18000 1.59000 0.45000
v -2.18000 1.00000 0.45000
v -2.18000 1.70000 0.54000
v -2.18000 1.59000 -0.45000
v -2.18000 1.70000 -0.54000
v -2.18000 1.00000 -0.54000
v -2.18000 1.00000 -0.45000
v -2.13900 1.00000 0.52000
v -2.13900 0.58000 0.44000
v -2.13900 0.44000 0.52000
v -2.13900 1.00000 0.44000
v -2.13900 0.44000 -0.52000
v -2.13900 0.58000 -0.44000
v -2.13900 1.00000 -0.44000
v -2.13900 1.00000 -0.52000
v -2.01800 0.69000 0.35000
v -1.99900 0.78000 0.39000
v -2.01800 0.69000 -0.35000
v -1.99900 0.78000 -0.39000
v 0.58930 1.65000 0.51000
v 0.58930 1.00000 0.64000
v 0.58930 1.00000 0.51000
v 0.58930 1.83000 0.64000
v 0.58930 1.65000 -0.51000
v 0.58930 1.83000 -0.64000
v 0.58930 1.00000 -0.64000
v 0.58930 1.00000 -0.51000
v 0.56410 1.00000 0.62000
v 0.56410 0.19000 0.62000
v 0.56410 0.36000 0.49000
v 0.56410 1.00000 0.49000
v 0.56410 0.36000 -0.49000
v 0.56410 0.19000 -0.62000
v 0.56410 1.00000 -0.62000
v 0.56410 1.00000 -0.49000
v 1.71920 0.51000 0.38000
v 1.71920 0.51000 -0.38000
v -1.41700 0.19000 -0.62000
v -1.41700 0.19000 0.62000
v -1.41500 0.32000 0.52000
v -1.41500 0.32000 -0.52000
v -2.67300 0.69000 0.40000
v -2.67300 0.69000 -0.40000
v 1.24620 1.54000 0.11000
v -0.96100 2.16000 0.00000
v -0.96100 2.16000 0.11000
v 1.24620 1.54000 0.00000
v 1.24620 1.54000 -0.11000
v -0.96100 2.16000 -0.11000
v -1.44100 1.83000 0.64000
v -1.43900 1.70000 -0.54000
v -1.43900 1.70000 0.54000
v -1.44100 1.83000 -0.64000
v -1.44100 1.00000 0.64000
v -1.43900 1.00000 0.54000
v -1.44100 1.00000 -0.64000
v -1.43900 1.00000 -0.54000
v -1.41700 1.00000 0.62000
v -1.41500 1.00000 0.52000
v -1.41700 1.00000 -0.62000
v -1.41500 1.00000 -0.52000
v -3.08600 1.05000 0.28000
v -3.08600 1.40000 0.28000
v -3.08600 1.40000 -0.28000
v -3.08600 1.05000 -0.28000
v -3.05900 1.24000 0.23000
v -3.05900 0.95000 0.23000
v -3.05900 1.24000 -0.23000
v -3.05900 0.95000 -0.23000
v -2.62400 1.31000 0.46000
v -2.60000 1.39000 0.46000
v -2.47200 1.47000 0.39000
v -2.47900 1.47000 0.47000
v -2.47200 1.47000 -0.39000
v -2.47900 1.47000 -0.47000
v -2.62400 1.31000 -0.46000
v -2.60000 1.39000 -0.46000
v 1.76050 1.51000 0.39000
v 1.76050 1.51000 -0.39000
v -2.53300 1.28000 0.46000
v -2.53300 1.28000 -0.46000
v 1.76050 1.00000 0.39000
v 1.76050 1.00000 -0.39000
v 1.71920 1.00000 -0.38000
v 1.71920 1.00000 0.38000
v -1.28800 2.40000 0.11000
v -1.28800 2.40000 0.00000
v -1.28800 2.40000 -0.11000
v -2.59700 1.39000 0.43000
v -2.59700 1.39000 -0.43000
v -2.68300 1.00000 0.41000
v -2.68300 1.54000 0.41000
v -2.68300 1.00000 -0.41000
v -2.68300 1.54000 -0.41000
v -2.67300 1.00000 0.40000
v -2.67300 1.00000 -0.40000
v -1.48300 0.24000 1.00000
v -1.41600 0.48000 0.50000
v -1.14500 0.64000 0.05000
v -1.41600 0.48000 -0.50000
v -1.14500 0.64000 -0.05000
v -1.48300 0.24000 -1.00000
v 4.14820 2.71000 0.00000
v 4.08270 2.62000 0.13000
v 4.08270 2.62000 -0.13000
v -3.37800 1.12000 0.17000
v -3.37800 1.33000 0.17000
v -3.37800 1.12000 -0.17000
v -3.37800 1.33000 -0.17000
v -4.19100 1.16000 0.10000
v -4.19100 1.29000 0.10000
v -4.19100 1.29000 -0.10000
v -4.19100 1.16000 -0.10000
v 3.03250 0.32000 0.13000
v 2.76840 1.38000 0.13000
v 2.51310 0.97000 0.13000
v 3.03250 0.32000 -0.13000
v 2.76840 1.38000 -0.13000
v 2.51310 0.97000 -0.13000
v -1.47700 2.81000 0.11000
v -1.47700 2.81000 -0.11000
v -1.47700 2.81000 0.00000
v 3.02330 0.25000 0.00000
v 2.74040 1.39000 0.00000
v 2.46690 0.95000 0.00000
v -1.12500 0.73000 0.10000
v -1.12500 0.73000 -0.10000
v -1.39700 0.57000 0.54000
v -1.39700 0.57000 -0.54000
v -1.46400 0.33000 1.05000
v -1.46400 0.33000 -1.05000
v -2.52700 1.28000 0.39000
v -2.52700 1.28000 -0.39000
v -2.62100 1.31000 0.43000
v -2.62100 1.31000 -0.43000
vt 0.55876 0.01553
vt 0.55082 0.00297
vt 0.55876 0.00297
vt 0.55082 0.01553
vt 0.02113 0.22456
vt 0.02293 0.30865
vt 0.00488 0.29998
vt 0.00294 0.20991
vt 0.00388 0.16311
vt 0.08182 0.11792
vt 0.02586 0.17102
vt 0.09862 0.12883
vt 0.04571 0.38306
vt 0.02841 0.38181
vt 0.00401 0.30210
vt 0.17403 0.10959
vt 0.16395 0.09546
vt 0.08318 0.11607
vt 0.16085 0.72017
vt 0.14630 0.64691
vt 0.16085 0.63475
vt 0.14630 0.72667
vt 0.18133 0.64690
vt 0.16679 0.72016
vt 0.16678 0.63474
vt 0.18134 0.72665
vt 0.07174 0.03081
vt 0.05413 0.00297
vt 0.07174 0.00297
vt 0.05413 0.03081
vt 0.50985 0.24816
vt 0.50985 0.18801
vt 0.54851 0.24816
vt 0.54851 0.18801
vt 0.14630 0.29734
vt 0.14630 0.23864
vt 0.18403 0.29734
vt 0.18403 0.23864
vt 0.46732 0.05794
vt 0.43817 0.01183
vt 0.46732 0.01183
vt 0.43817 0.05794
vt 0.43144 0.04998
vt 0.40744 0.01203
vt 0.43144 0.01203
vt 0.40744 0.04998
vt 0.45234 0.15531
vt 0.40232 0.07749
vt 0.45234 0.07749
vt 0.40232 0.15531
vt 0.94649 0.35085
vt 0.92461 0.42678
vt 0.92461 0.35085
vt 0.94649 0.42678
vt 0.24359 0.02499
vt 0.25127 0.00297
vt 0.25127 0.02499
vt 0.24359 0.00297
vt 1.24359 0.02499
vt 1.25127 0.00297
vt 1.24359 0.00297
vt 1.25127 0.02499
vt 0.48766 0.00297
vt 0.48425 0.01275
vt 0.48425 0.00297
vt 0.48766 0.01275
vt 1.48425 0.01275
vt 1.48766 0.00297
vt 1.48425 0.00297
vt 1.48766 0.01275
vt 0.88439 0.66302
vt 0.87342 0.75911
vt 0.87340 0.66302
vt 0.88441 0.75911
vt 0.98605 0.82452
vt 0.99706 0.72844
vt 0.99704 0.82452
vt 0.98607 0.72844
vt 0.99705 0.72460
vt 0.98605 0.61494
vt 0.99704 0.61494
vt 0.98606 0.72460
vt 0.54133 0.66586
vt 0.53034 0.77552
vt 0.53034 0.66586
vt 0.54132 0.77552
vt 0.98606 0.27806
vt 0.99632 0.24406
vt 0.99631 0.27806
vt 0.98606 0.24406
vt 1.98606 0.24406
vt 1.98606 0.27806
vt 1.99631 0.24406
vt 1.99631 0.27806
vt 0.37160 0.56648
vt 0.37160 0.46567
vt 0.38566 0.46868
vt 0.38566 0.57666
vt 0.00295 0.48044
vt 0.00293 0.37246
vt 0.01700 0.47026
vt 0.01698 0.36945
vt 0.84623 0.19648
vt 0.83244 0.14528
vt 0.84624 0.14124
vt 0.83244 0.20445
vt 0.95021 0.16613
vt 0.96401 0.11494
vt 0.96400 0.17410
vt 0.95022 0.11089
vt 0.01762 0.50590
vt 0.09716 0.53840
vt 0.08813 0.55270
vt 0.00293 0.51789
vt 0.26694 0.00293
vt 0.34098 0.05759
vt 0.26434 0.02171
vt 0.33346 0.07275
vt 0.98606 0.33654
vt 0.99631 0.33654
vt 1.98605 0.33654
vt 1.99631 0.33654
vt 0.40232 0.06483
vt 0.46259 0.07365
vt 0.40232 0.07365
vt 0.47394 0.06483
vt 0.46259 0.16742
vt 0.47394 0.17624
vt 0.40232 0.17624
vt 0.40232 0.16742
vt 0.95169 0.63705
vt 0.90886 0.64566
vt 0.89389 0.63705
vt 0.95169 0.64566
vt 0.89389 0.74578
vt 0.90886 0.73717
vt 0.95169 0.73717
vt 0.95169 0.74578
vt 0.98605 0.38244
vt 0.99631 0.38244
vt 1.98605 0.38244
vt 1.99631 0.38244
vt 0.30067 0.86314
vt 0.23335 0.87694
vt 0.23335 0.86314
vt 0.31842 0.87694
vt 0.30067 0.75841
vt 0.31842 0.74460
vt 0.23335 0.74460
vt 0.23335 0.75841
vt 0.59287 0.91613
vt 0.50985 0.91613
vt 0.52718 0.90265
vt 0.59287 0.90265
vt 0.52718 0.80045
vt 0.50985 0.78697
vt 0.59287 0.78697
vt 0.59287 0.80045
vt 0.58303 0.66925
vt 0.65176 0.78313
vt 0.59307 0.78313
vt 0.66179 0.66924
vt 0.13208 0.55653
vt 0.00293 0.76163
vt 0.00293 0.55653
vt 0.13208 0.76163
vt 0.50381 0.95442
vt 0.42793 0.84569
vt 0.50380 0.84568
vt 0.42793 0.95442
vt 0.67350 0.54868
vt 0.57130 0.54869
vt 0.86219 0.29057
vt 0.94955 0.34701
vt 0.85804 0.34701
vt 0.94540 0.29056
vt 0.86582 0.24110
vt 0.94176 0.24109
vt 0.95608 0.98688
vt 0.94512 0.74962
vt 0.95611 0.74962
vt 0.94509 0.98687
vt 0.99704 0.00297
vt 0.99707 0.24022
vt 0.98608 0.24022
vt 0.98605 0.00297
vt 0.22625 0.74460
vt 0.21280 0.86648
vt 0.21280 0.75507
vt 0.22625 0.87695
vt 0.14118 0.74459
vt 0.14118 0.75506
vt 0.14118 0.87696
vt 0.14118 0.86649
vt 0.08595 0.76547
vt 0.01606 0.77569
vt 0.00293 0.76548
vt 0.08595 0.77569
vt 0.01606 0.88443
vt 0.00293 0.89464
vt 0.08595 0.89465
vt 0.08595 0.88444
vt 0.46053 0.54613
vt 0.46052 0.57528
vt 0.42793 0.57891
vt 0.42793 0.54249
vt 0.27107 0.24490
vt 0.23847 0.27768
vt 0.23847 0.24126
vt 0.27107 0.27405
vt 0.61349 0.02995
vt 0.58666 0.00297
vt 0.61349 0.00596
vt 0.58666 0.03294
vt 0.18727 0.74076
vt 0.31961 0.53060
vt 0.31961 0.74076
vt 0.18727 0.53060
vt 0.19751 0.11354
vt 0.22434 0.08655
vt 0.22434 0.11055
vt 0.19751 0.08356
vt 0.34685 0.03736
vt 0.32971 0.03627
vt 0.34414 0.02797
vt 0.32552 0.02797
vt 0.72491 0.04491
vt 0.72492 0.00297
vt 0.73260 0.00297
vt 0.73259 0.04492
vt 0.41059 0.63625
vt 0.41059 0.84641
vt 0.32552 0.63625
vt 0.32552 0.84641
vt 1.72491 0.04491
vt 1.73260 0.00297
vt 1.72492 0.00297
vt 1.73259 0.04492
vt 1.34414 0.02797
vt 1.32971 0.03627
vt 1.34685 0.03736
vt 1.32552 0.02797
vt 0.74027 0.00297
vt 0.82534 0.21313
vt 0.74027 0.21313
vt 0.82534 0.00297
vt 0.48657 0.19077
vt 0.47457 0.31301
vt 0.39387 0.31302
vt 0.38184 0.19078
vt 0.34797 0.02413
vt 0.30936 0.02168
vt 0.34186 0.00297
vt 0.29992 0.00298
vt 1.34186 0.00297
vt 1.30936 0.02168
vt 1.34797 0.02413
vt 1.29992 0.00298
vt 0.50070 0.63675
vt 0.50070 0.84184
vt 0.41768 0.63675
vt 0.41768 0.84184
vt 0.83832 0.42595
vt 0.78642 0.54777
vt 0.77100 0.42591
vt 0.83830 0.54780
vt 0.85402 0.21697
vt 0.85402 0.42207
vt 0.77100 0.21697
vt 0.77100 0.42207
vt 0.78636 0.66896
vt 0.83823 0.79079
vt 0.78636 0.79080
vt 0.85368 0.66893
vt 0.85118 0.12332
vt 0.90325 0.00385
vt 0.90180 0.12400
vt 0.83756 0.00297
vt 0.91349 0.42517
vt 0.89988 0.54553
vt 0.84780 0.42605
vt 0.84926 0.54621
vt 0.79685 0.66508
vt 0.83551 0.66510
vt 0.51572 0.13530
vt 0.50474 0.17740
vt 0.50473 0.13530
vt 0.51573 0.17740
vt 0.82779 0.90809
vt 0.78913 0.90810
vt 0.91512 0.60488
vt 0.90414 0.56278
vt 0.91512 0.56278
vt 0.90413 0.60488
vt 0.88555 0.65895
vt 0.84783 0.65946
vt 0.86551 0.23675
vt 0.90324 0.23725
vt 0.08314 0.02159
vt 0.07974 0.00297
vt 0.08315 0.00297
vt 0.07974 0.02159
vt 1.08314 0.02159
vt 1.07974 0.00297
vt 1.07974 0.02159
vt 1.08315 0.00297
vt 0.41770 0.43418
vt 0.46772 0.43418
vt 0.46772 0.48642
vt 0.41257 0.48642
vt 0.46771 0.53866
vt 0.40744 0.53866
vt 0.71351 0.00299
vt 0.66348 0.05521
vt 0.66349 0.00297
vt 0.71862 0.05523
vt 0.66347 0.10745
vt 0.72374 0.10747
vt 0.85065 0.76482
vt 0.92846 0.76482
vt 0.93245 0.81716
vt 0.84666 0.81716
vt 0.93644 0.86949
vt 0.84268 0.86950
vt 0.90925 0.15958
vt 0.93113 0.11099
vt 0.94092 0.15962
vt 0.90925 0.11096
vt 0.90925 0.21504
vt 0.95208 0.21510
vt 0.40052 0.00349
vt 0.47698 0.00770
vt 0.40157 0.00819
vt 0.47804 0.00297
vt 0.95207 0.05158
vt 0.92040 0.05163
vt 0.93018 0.00300
vt 0.95206 0.00297
vt 0.95208 0.10705
vt 0.90925 0.10712
vt 0.38539 0.39389
vt 0.37160 0.39335
vt 0.37342 0.39074
vt 0.38688 0.39124
vt 0.50342 0.39149
vt 0.49140 0.39449
vt 0.48992 0.39182
vt 0.50524 0.39412
vt 0.40416 0.43034
vt 0.46431 0.43033
vt 0.01792 0.03486
vt 0.03322 0.01846
vt 0.07280 0.06151
vt 0.00296 0.00297
vt 0.02190 0.09322
vt 0.08880 0.10453
vt 0.00293 0.14625
vt 0.08998 0.00297
vt 0.16159 0.00297
vt 0.16159 0.07972
vt 0.08998 0.07972
vt 1.08880 0.10453
vt 1.02190 0.09322
vt 1.00293 0.14625
vt 1.07280 0.06151
vt 1.01792 0.03486
vt 1.03322 0.01846
vt 1.00296 0.00297
vt 0.16678 0.00297
vt 0.23840 0.00297
vt 0.23840 0.07972
vt 0.16678 0.07972
vt 0.15290 0.76547
vt 0.09510 0.84038
vt 0.09510 0.76547
vt 0.16499 0.84038
vt 0.60535 0.87919
vt 0.53546 0.87919
vt 0.54754 0.80429
vt 0.60535 0.80429
vt 0.78118 0.83994
vt 0.78118 0.95135
vt 0.70443 0.95135
vt 0.70443 0.83994
vt 0.73161 0.37374
vt 0.69932 0.37949
vt 0.69931 0.32189
vt 0.73160 0.32763
vt 0.91535 0.39352
vt 0.88877 0.35084
vt 0.91534 0.35557
vt 0.88877 0.39826
vt 0.39192 0.10715
vt 0.38464 0.11156
vt 0.38306 0.10726
vt 0.39326 0.11150
vt 0.48624 0.10736
vt 0.49350 0.11187
vt 0.48488 0.11172
vt 0.49511 0.10756
vt 0.37233 0.18378
vt 0.37414 0.18626
vt 0.50516 0.18464
vt 0.50335 0.18708
vt 0.39816 0.51096
vt 0.39704 0.51526
vt 0.47827 0.51074
vt 0.47934 0.51506
vt 0.38279 0.18374
vt 0.38437 0.18624
vt 0.49489 0.18442
vt 0.49329 0.18691
vt 0.39762 0.05627
vt 0.39612 0.05517
vt 0.48232 0.05516
vt 0.48083 0.05626
vt 0.69064 0.38775
vt 0.65835 0.33589
vt 0.69064 0.34164
vt 0.65835 0.39350
vt 0.40770 0.62392
vt 0.40692 0.63230
vt 0.46724 0.63291
vt 0.46662 0.62448
vt 0.72589 0.15398
vt 0.69932 0.15871
vt 0.69931 0.11130
vt 0.72589 0.11603
vt 0.12198 0.25706
vt 0.12288 0.27534
vt 0.01299 0.20267
vt 0.10607 0.24026
vt 0.00293 0.17546
vt 0.12214 0.23152
vt 0.37604 0.00297
vt 0.37823 0.09575
vt 0.35844 0.00297
vt 0.35624 0.09575
vt 0.76008 0.28821
vt 0.74027 0.38099
vt 0.74247 0.28821
vt 0.76226 0.38099
vt 0.68938 0.59151
vt 0.69198 0.70540
vt 0.68144 0.59151
vt 0.67883 0.70540
vt 0.49198 0.46943
vt 0.50252 0.58332
vt 0.48937 0.58332
vt 0.49992 0.46943
vt 0.17761 0.53819
vt 0.18108 0.63093
vt 0.14630 0.63093
vt 0.14977 0.53819
vt 0.27051 0.40378
vt 0.27463 0.51762
vt 0.25383 0.51762
vt 0.25795 0.40378
vt 0.07453 0.45003
vt 0.12886 0.44007
vt 0.17680 0.53108
vt 0.22748 0.43037
vt 0.24406 0.47713
vt 0.26595 0.15096
vt 0.36862 0.14458
vt 0.24621 0.09938
vt 0.30895 0.24024
vt 0.35752 0.23008
vt 0.91783 0.46620
vt 0.94915 0.55894
vt 0.91437 0.55894
vt 0.94568 0.46619
vt 0.28394 0.40522
vt 0.26481 0.28679
vt 0.36156 0.23516
vt 0.36154 0.62942
vt 0.25677 0.37306
vt 0.21322 0.35608
vt 0.18727 0.34352
vt 0.50985 0.31220
vt 0.60660 0.36382
vt 0.58748 0.48225
vt 0.50988 0.70646
vt 0.61465 0.45009
vt 0.65819 0.43311
vt 0.68415 0.42055
vt 0.99249 0.40107
vt 0.97581 0.51492
vt 0.97993 0.40107
vt 0.99662 0.51492
vt 0.55594 0.20169
vt 0.56693 0.23052
vt 0.55594 0.23053
vt 0.56693 0.20169
vt 0.73078 0.15981
vt 0.71979 0.18865
vt 0.71980 0.15981
vt 0.73078 0.18865
vt 0.62814 0.23235
vt 0.68067 0.32920
vt 0.59547 0.33809
vt 0.57007 0.24373
vt 0.50985 0.30432
vt 0.73363 0.22067
vt 0.75200 0.27054
vt 0.61957 0.05600
vt 0.53833 0.17239
vt 0.51296 0.09299
vt 0.50992 0.00294
vt 0.66933 0.43776
vt 0.66128 0.52403
vt 0.61774 0.50705
vt 0.59178 0.49449
vt 0.68845 0.55619
vt 0.76608 0.38614
vt 0.76606 0.78039
vt 0.04902 0.40324
vt 0.06000 0.44998
vt 0.04901 0.44997
vt 0.06001 0.40324
vt 0.27943 0.45534
vt 0.29043 0.50207
vt 0.27944 0.50207
vt 0.29042 0.45533
vt 0.49449 0.09844
vt 0.49450 0.00297
vt 0.50475 0.00297
vt 0.50475 0.09844
vt 1.49450 0.00297
vt 1.49449 0.09844
vt 1.50475 0.00297
vt 1.50475 0.09844
vt 0.19906 0.85447
vt 0.14274 0.85448
vt 0.14274 0.84422
vt 0.19906 0.84421
vt 1.14274 0.84422
vt 1.19906 0.85447
vt 1.19906 0.84421
vt 1.14274 0.85448
vt 0.55082 0.68666
vt 0.55082 0.60668
vt 0.56625 0.60793
vt 0.56625 0.69359
vt 0.03884 0.46917
vt 0.02343 0.39043
vt 0.03886 0.38919
vt 0.02341 0.47610
vt 0.97070 0.00297
vt 0.98168 0.39723
vt 0.97069 0.39723
vt 0.98169 0.00297
vt 0.95533 0.21894
vt 0.96633 0.61320
vt 0.95534 0.61320
vt 0.96632 0.21894
vt 0.73332 0.79915
vt 0.69374 0.84220
vt 0.67845 0.82580
vt 0.66348 0.85768
vt 0.68243 0.76744
vt 0.74933 0.75613
vt 0.66347 0.71440
vt 1.68243 0.76744
vt 1.74933 0.75613
vt 1.66347 0.71440
vt 1.73332 0.79915
vt 1.67845 0.82580
vt 1.69374 0.84220
vt 1.66348 0.85768
vt 0.01061 0.04467
vt 0.00293 0.08336
vt 0.00294 0.04467
vt 0.01061 0.08336
vt 1.00294 0.04467
vt 1.00293 0.08336
vt 1.01061 0.04467
vt 1.01061 0.08336
vt 0.08424 0.85449
vt 0.08424 0.84423
vt 1.08424 0.84423
vt 1.08424 0.85449
vt 0.04730 0.00297
vt 0.04390 0.02015
vt 0.04389 0.00297
vt 0.04730 0.02015
vt 1.04389 0.00297
vt 1.04730 0.02015
vt 1.04730 0.00297
vt 1.04390 0.02015
vt 0.04902 0.85450
vt 0.04901 0.84424
vt 1.04902 0.85450
vt 1.04901 0.84424
vt 0.38185 0.00297
vt 0.38952 0.02392
vt 0.38184 0.02392
vt 0.38952 0.00297
vt 1.38185 0.00297
vt 1.38952 0.02392
vt 1.38952 0.00297
vt 1.38184 0.02392
vt 0.91266 0.01227
vt 0.90925 0.00297
vt 0.91266 0.00297
vt 0.90925 0.01227
vt 1.90925 0.00297
vt 1.91266 0.01227
vt 1.91266 0.00297
vt 1.90925 0.01227
vt 0.97960 0.80561
vt 0.96560 0.61704
vt 0.97963 0.61860
vt 0.96557 0.81736
vt 0.41831 0.89481
vt 0.22974 0.88079
vt 0.41675 0.88078
vt 0.21799 0.89482
vt 0.32552 0.85025
vt 0.41787 0.85026
vt 0.41301 0.86496
vt 0.32680 0.86495
vt 0.99565 0.51875
vt 0.99563 0.61110
vt 0.98094 0.52360
vt 0.98093 0.60982
vt 0.62250 0.05038
vt 0.62250 0.00297
vt 0.65248 0.05038
vt 0.65248 0.00297
vt 0.19239 0.29840
vt 0.19239 0.24079
vt 0.22880 0.29840
vt 0.22880 0.24079
vt 0.23335 0.42572
vt 0.23335 0.37257
vt 0.24744 0.37696
vt 0.24744 0.42658
vt 0.49322 0.37316
vt 0.47914 0.32441
vt 0.49323 0.32002
vt 0.47913 0.37402
vt 0.85804 0.38563
vt 0.85804 0.35085
vt 0.88003 0.38563
vt 0.88003 0.35085
vt 0.56618 0.02377
vt 0.56618 0.00297
vt 0.57933 0.02377
vt 0.57933 0.00297
vn -1.0000 0.0000 0.0000
vn 0.7480 -0.1890 0.6378
vn 0.7480 -0.1890 -0.6378
vn 0.7402 -0.4252 0.5197
vn 0.7402 -0.4252 -0.5197
vn 0.7953 0.5118 0.3150
vn 0.7953 0.5118 -0.3150
vn 1.0000 0.0000 0.0000
vn -0.9921 0.0866 -0.0866
vn -0.9921 0.0866 0.0866
vn -0.8425 0.5433 0.0000
vn -0.9134 0.4173 0.0000
vn -0.6063 -0.2441 0.7559
vn -0.6063 -0.2441 -0.7559
vn 0.3622 -0.9134 0.1968
vn 0.3622 -0.9134 -0.1968
vn 0.3937 0.9213 0.0157
vn 0.3937 0.9213 -0.0157
vn 0.1339 -0.8189 0.5591
vn 0.1339 -0.8189 -0.5591
vn -0.8346 -0.0866 0.5433
vn -0.8346 -0.0866 -0.5433
vn -0.9685 0.0945 0.2362
vn -0.9685 0.0945 -0.2362
vn 0.1417 -0.9921 0.0000
vn 0.0000 -1.0000 0.0000
vn -0.1575 -0.9843 0.0000
vn 0.1260 -0.9921 0.0000
vn -0.1968 -0.9764 0.0000
vn 0.2677 0.9606 0.0000
vn -1.0000 -0.0157 0.0000
vn -1.0000 0.0000 -0.0157
vn -1.0000 0.0000 0.0157
vn -1.0000 0.0157 0.0000
vn -0.1732 0.0000 0.9843
vn -0.1732 0.0000 -0.9843
vn 0.0000 1.0000 0.0000
vn -0.0866 0.0000 0.9921
vn -0.1890 0.9843 -0.0157
vn 0.0000 0.0000 1.0000
vn -0.1890 0.9843 0.0157
vn -0.0866 0.0000 -0.9921
vn 0.0000 0.0000 -1.0000
vn 0.1260 0.9921 0.0000
vn 0.0945 0.0000 0.9921
vn 0.0945 0.0000 -0.9921
vn 0.0866 0.0000 1.0000
vn 0.5984 0.8032 0.0000
vn 0.0866 0.0000 -1.0000
vn -0.0787 0.0000 1.0000
vn -0.0787 0.0000 -1.0000
vn -0.0945 0.9921 0.0000
vn -0.0709 0.0000 1.0000
vn -0.1496 -0.9921 0.0000
vn -0.0709 0.0000 -1.0000
vn 0.3150 -0.9528 0.0000
vn 0.0866 0.9921 0.0000
vn -0.1968 -0.8740 -0.4409
vn -0.1968 -0.8740 0.4409
vn -0.1102 0.9921 0.0000
vn -0.1102 -0.9921 0.0000
vn -0.1968 -0.9843 0.0000
vn 0.0000 -0.8819 0.4724
vn 0.0000 -0.8819 -0.4724
vn 0.0472 -0.8819 0.4646
vn 0.0472 -0.8819 -0.4646
vn 0.0000 -0.8425 0.5354
vn 0.0000 -0.8425 -0.5354
vn -0.0394 -0.8661 0.4961
vn -0.0394 -0.8661 0.5039
vn -0.0394 -0.8740 0.4882
vn -0.0394 -0.8740 -0.4882
vn -0.0394 -0.8661 -0.4961
vn -0.0394 -0.8661 -0.5039
vn -0.3307 -0.9449 -0.0079
vn -0.3307 -0.9449 0.0079
vn 0.0472 -0.9606 0.2677
vn 0.0472 -0.9606 -0.2677
vn 0.0551 -1.0000 0.0000
vn -0.2047 0.8425 0.5039
vn -0.2047 0.8425 -0.5039
vn -0.0394 0.0000 1.0000
vn -0.0394 0.0000 -1.0000
vn -0.0236 1.0000 0.0000
vn -0.0236 -1.0000 0.0000
vn 0.8740 0.4882 0.0000
vn 0.9055 0.4173 0.0000
vn -0.2520 0.4803 -0.8425
vn -0.2520 0.4803 0.8425
vn 0.8425 -0.3780 0.3780
vn 0.8425 -0.3780 -0.3780
vn -0.2756 -0.8504 0.4488
vn -0.2756 -0.8504 -0.4488
vn 0.0630 -1.0000 0.0000
vn 0.1968 0.8740 0.4409
vn 0.1968 0.8740 -0.4409
vn 0.2520 -0.9685 0.0236
vn 0.2520 -0.9685 -0.0236
vn 0.9764 -0.2283 0.0236
vn 0.9764 -0.2283 -0.0236
vn 0.9528 -0.0551 -0.3071
vn 0.9528 -0.0551 0.3071
vn 0.9606 -0.2677 0.0866
vn 0.9606 -0.2677 -0.0866
vn -0.6772 0.7165 0.1811
vn -0.6772 0.7165 -0.1811
vn -0.7323 -0.5827 0.3465
vn -0.7323 -0.5827 -0.3465
vn -0.8268 0.5197 0.2047
vn -0.8268 0.5197 -0.2047

o animal_swordfish
usemtl tex_animal_swordfish_i050p001x
f 1/1/1 2/2/1 3/3/1
f 2/2/1 1/1/1 4/4/1
f 5/5/2 6/6/2 7/7/2
f 7/7/2 8/8/2 5/5/2
f 8/9/3 7/10/3 9/11/3
f 10/12/3 9/11/3 7/10/3
f 6/6/4 11/13/4 12/14/4
f 12/14/4 7/15/4 6/6/4
f 13/16/5 10/12/5 12/17/5
f 7/18/5 12/17/5 10/12/5
f 14/19/6 15/20/6 16/21/6
f 15/20/6 14/19/6 17/22/6
f 18/23/7 14/24/7 16/25/7
f 14/24/7 18/23/7 19/26/7
f 20/27/1 21/28/1 22/29/1
f 21/28/1 20/27/1 23/30/1
f 24/31/8 25/32/8 26/33/8
f 25/32/8 27/34/8 26/33/8
f 28/35/8 29/36/8 30/37/8
f 29/36/8 31/38/8 30/37/8
f 32/39/1 33/40/1 34/41/1
f 33/40/1 32/39/1 35/42/1
f 36/43/1 37/44/1 38/45/1
f 37/44/1 36/43/1 39/46/1
f 40/47/1 41/48/1 42/49/1
f 41/48/1 40/47/1 43/50/1
f 44/51/1 45/52/1 46/53/1
f 45/52/1 44/51/1 47/54/1
f 48/55/9 49/56/9 50/57/9
f 49/56/9 48/55/9 51/58/9
f 52/59/10 53/60/10 54/61/10
f 55/62/10 53/60/10 52/59/10
f 56/63/9 57/64/9 58/65/9
f 57/64/9 56/63/9 59/66/9
f 60/67/10 61/68/10 62/69/10
f 63/70/10 61/68/10 60/67/10
f 64/71/11 65/72/11 66/73/11
f 65/72/11 64/71/11 67/74/11
f 68/75/11 66/76/11 65/77/11
f 66/76/11 68/75/11 69/78/11
f 64/79/12 70/80/12 71/81/12
f 66/82/12 70/80/12 64/79/12
f 70/83/12 69/84/12 72/85/12
f 69/84/12 70/83/12 66/86/12
f 73/87/13 74/88/13 75/89/13
f 74/88/13 73/87/13 76/90/13
f 77/91/14 78/92/14 79/93/14
f 80/94/14 79/93/14 78/92/14
f 11/95/15 81/96/15 82/97/15
f 82/97/15 12/98/15 11/95/15
f 12/99/16 82/100/16 13/101/16
f 83/102/16 13/101/16 82/100/16
f 17/103/17 82/104/17 81/105/17
f 82/104/17 17/103/17 14/106/17
f 19/107/18 82/108/18 14/109/18
f 82/108/18 19/107/18 83/110/18
f 15/111/19 84/112/19 85/113/19
f 85/113/19 16/114/19 15/111/19
f 16/115/20 85/116/20 18/117/20
f 86/118/20 18/117/20 85/116/20
f 87/119/21 73/87/21 75/89/21
f 75/89/21 88/120/21 87/119/21
f 80/94/22 89/121/22 90/122/22
f 78/92/22 89/121/22 80/94/22
f 91/123/1 92/124/1 93/125/1
f 91/123/1 94/126/1 92/124/1
f 94/126/1 95/127/1 92/124/1
f 94/126/1 96/128/1 95/127/1
f 95/127/1 97/129/1 98/130/1
f 97/129/1 95/127/1 96/128/1
f 99/131/1 100/132/1 101/133/1
f 100/132/1 99/131/1 102/134/1
f 103/135/1 101/133/1 100/132/1
f 103/135/1 100/132/1 104/136/1
f 104/136/1 105/137/1 106/138/1
f 106/138/1 103/135/1 104/136/1
f 107/139/23 87/119/23 88/120/23
f 88/120/23 108/140/23 107/139/23
f 89/121/24 109/141/24 90/122/24
f 90/122/24 109/141/24 110/142/24
f 111/143/8 112/144/8 113/145/8
f 112/144/8 111/143/8 114/146/8
f 115/147/8 114/146/8 111/143/8
f 114/146/8 115/147/8 116/148/8
f 117/149/8 116/148/8 115/147/8
f 117/149/8 115/147/8 118/150/8
f 119/151/8 120/152/8 121/153/8
f 121/153/8 122/154/8 119/151/8
f 120/152/8 123/155/8 121/153/8
f 120/152/8 124/156/8 123/155/8
f 125/157/8 123/155/8 124/156/8
f 123/155/8 125/157/8 126/158/8
f 127/159/25 29/160/25 28/161/25
f 128/162/25 29/160/25 127/159/25
f 129/163/26 120/164/26 130/165/26
f 120/164/26 129/163/26 124/166/26
f 103/167/27 131/168/27 101/169/27
f 131/168/27 103/167/27 132/170/27
f 123/171/28 127/159/28 121/172/28
f 127/159/28 123/171/28 128/162/28
f 133/173/29 104/174/29 100/175/29
f 133/173/29 134/176/29 104/174/29
f 46/177/29 134/176/29 133/173/29
f 46/177/29 45/178/29 134/176/29
f 135/179/30 136/180/30 137/181/30
f 136/180/30 135/179/30 138/182/30
f 136/183/30 138/184/30 139/185/30
f 139/185/30 140/186/30 136/183/30
f 141/187/31 142/188/31 143/189/31
f 141/187/31 144/190/31 142/188/31
f 145/191/32 141/187/32 143/189/32
f 145/191/32 143/189/32 146/192/32
f 142/188/33 147/193/33 148/194/33
f 147/193/33 142/188/33 144/190/33
f 149/195/32 131/196/32 130/197/32
f 131/196/32 149/195/32 150/198/32
f 132/199/34 130/197/34 131/196/34
f 130/197/34 132/199/34 129/200/34
f 151/201/33 129/200/33 132/199/33
f 132/199/33 152/202/33 151/201/33
f 34/203/35 33/204/35 153/205/35
f 34/203/35 153/205/35 154/206/35
f 35/207/36 155/208/36 156/209/36
f 32/210/36 155/208/36 35/207/36
f 37/211/35 157/212/35 38/213/35
f 157/212/35 37/211/35 158/214/35
f 116/215/37 141/216/37 114/217/37
f 141/216/37 116/215/37 144/218/37
f 159/219/36 39/220/36 36/221/36
f 39/220/36 159/219/36 160/222/36
f 56/223/38 161/224/38 59/225/38
f 161/224/38 162/226/38 59/225/38
f 163/227/39 48/228/39 50/229/39
f 50/229/39 164/230/39 163/227/39
f 145/231/40 112/232/40 141/233/40
f 141/233/40 112/232/40 114/234/40
f 165/235/41 55/236/41 52/237/41
f 55/236/41 165/235/41 166/238/41
f 63/239/42 167/240/42 61/241/42
f 167/240/42 63/239/42 168/242/42
f 147/243/43 116/244/43 117/245/43
f 144/246/43 116/244/43 147/243/43
f 111/247/44 169/248/44 170/249/44
f 115/250/44 111/247/44 170/249/44
f 49/251/38 171/252/38 50/253/38
f 171/252/38 164/254/38 50/253/38
f 55/255/42 172/256/42 53/257/42
f 172/256/42 55/255/42 166/258/42
f 130/259/40 120/260/40 149/261/40
f 149/261/40 120/260/40 119/262/40
f 113/263/45 169/264/45 111/265/45
f 169/264/45 113/263/45 173/266/45
f 151/267/43 125/268/43 129/269/43
f 129/269/43 125/268/43 124/270/43
f 118/271/46 170/272/46 174/273/46
f 115/274/46 170/272/46 118/271/46
f 128/275/46 126/276/46 175/277/46
f 126/276/46 128/275/46 123/278/46
f 121/279/45 127/280/45 122/281/45
f 122/281/45 127/280/45 176/282/45
f 26/283/47 173/266/47 24/284/47
f 173/266/47 26/283/47 169/264/47
f 136/285/48 177/286/48 137/287/48
f 177/286/48 136/285/48 178/288/48
f 174/273/49 27/289/49 25/290/49
f 170/272/49 27/289/49 174/273/49
f 179/291/48 136/292/48 140/293/48
f 136/292/48 179/291/48 178/294/48
f 127/280/47 28/295/47 176/282/47
f 176/282/47 28/295/47 30/296/47
f 29/297/49 175/277/49 31/298/49
f 175/277/49 29/297/49 128/275/49
f 162/299/39 57/300/39 59/301/39
f 57/300/39 162/299/39 180/302/39
f 168/303/41 60/304/41 181/305/41
f 60/304/41 168/303/41 63/306/41
f 42/307/50 41/308/50 182/309/50
f 42/307/50 182/309/50 183/310/50
f 183/310/50 182/309/50 93/311/50
f 183/310/50 93/311/50 92/312/50
f 40/313/51 184/314/51 43/315/51
f 184/314/51 40/313/51 185/316/51
f 185/316/51 98/317/51 184/314/51
f 98/317/51 185/316/51 95/318/51
f 40/319/52 42/320/52 183/321/52
f 40/319/52 183/321/52 185/322/52
f 185/322/52 183/321/52 92/323/52
f 185/322/52 92/323/52 95/324/52
f 186/325/53 46/326/53 133/327/53
f 46/326/53 186/325/53 44/328/53
f 133/327/53 102/329/53 186/325/53
f 102/329/53 133/327/53 100/330/53
f 41/331/54 47/332/54 44/333/54
f 47/332/54 41/331/54 43/334/54
f 187/335/55 134/336/55 45/337/55
f 47/338/55 187/335/55 45/337/55
f 187/335/55 105/339/55 134/336/55
f 105/339/55 104/340/55 134/336/55
f 113/341/56 112/342/56 119/343/56
f 119/343/56 122/344/56 113/341/56
f 125/345/56 118/346/56 126/347/56
f 118/346/56 125/345/56 117/348/56
f 27/349/57 169/248/57 26/350/57
f 169/248/57 27/349/57 170/249/57
f 188/351/58 73/352/58 87/353/58
f 73/352/58 188/351/58 76/354/58
f 87/353/58 189/355/58 188/351/58
f 107/356/58 189/355/58 87/353/58
f 189/355/58 107/356/58 190/357/58
f 94/358/40 91/359/40 146/360/40
f 94/358/40 146/360/40 143/361/40
f 109/362/59 191/363/59 192/364/59
f 191/363/59 109/362/59 89/365/59
f 89/365/59 193/366/59 191/363/59
f 89/365/59 78/367/59 193/366/59
f 193/366/59 78/367/59 77/368/59
f 97/369/43 96/370/43 142/371/43
f 97/369/43 142/371/43 148/372/43
f 101/373/40 150/374/40 99/375/40
f 150/374/40 101/373/40 131/376/40
f 152/377/43 132/378/43 103/379/43
f 103/379/43 106/380/43 152/377/43
f 96/381/37 94/382/37 143/383/37
f 96/381/37 143/383/37 142/384/37
f 34/385/60 154/386/60 155/387/60
f 32/388/60 34/385/60 155/387/60
f 39/389/61 158/390/61 37/391/61
f 158/390/61 39/389/61 160/392/61
f 93/393/62 99/394/62 91/395/62
f 99/394/62 93/393/62 102/396/62
f 98/397/62 106/398/62 105/399/62
f 98/397/62 97/400/62 106/398/62
f 119/343/63 145/401/63 149/402/63
f 145/401/63 119/343/63 112/342/63
f 147/403/64 125/345/64 151/404/64
f 147/403/64 117/348/64 125/345/64
f 176/405/65 113/341/65 122/344/65
f 173/406/65 113/341/65 176/405/65
f 175/407/66 126/347/66 118/346/66
f 118/346/66 174/408/66 175/407/66
f 146/409/67 91/395/67 99/394/67
f 99/394/67 150/410/67 146/409/67
f 106/398/68 148/411/68 152/412/68
f 97/400/68 148/411/68 106/398/68
f 186/413/69 102/396/70 93/393/70
f 186/413/69 93/393/70 182/414/69
f 44/333/71 186/413/69 182/414/69
f 182/414/69 41/331/71 44/333/71
f 47/332/72 184/415/73 187/416/73
f 43/334/72 184/415/73 47/332/72
f 98/397/74 187/416/73 184/415/73
f 105/399/74 187/416/73 98/397/74
f 146/409/75 149/402/75 145/401/75
f 149/402/75 146/409/75 150/410/75
f 148/411/76 151/404/76 152/412/76
f 148/411/76 147/403/76 151/404/76
f 35/417/61 153/418/61 33/419/61
f 153/418/61 35/417/61 156/420/61
f 176/405/77 30/421/77 173/406/77
f 24/422/77 173/406/77 30/421/77
f 174/408/78 25/423/78 31/424/78
f 31/424/78 175/407/78 174/408/78
f 38/425/60 157/426/60 159/427/60
f 36/428/60 38/425/60 159/427/60
f 30/421/79 25/423/79 24/422/79
f 30/421/79 31/424/79 25/423/79
f 5/5/80 194/429/80 195/430/80
f 194/429/80 5/5/80 8/431/80
f 9/11/81 194/432/81 8/433/81
f 194/432/81 9/11/81 196/434/81
f 21/435/82 197/436/82 22/437/82
f 22/437/82 197/436/82 198/438/82
f 20/439/83 199/440/83 23/441/83
f 199/440/83 20/439/83 200/442/83
f 2/443/82 201/444/82 3/445/82
f 3/445/82 201/444/82 202/446/82
f 4/447/83 203/448/83 204/449/83
f 203/448/83 4/447/83 1/450/83
f 22/451/84 198/452/84 200/453/84
f 200/453/84 20/454/84 22/451/84
f 3/455/84 202/456/84 203/457/84
f 203/457/84 1/458/84 3/455/84
f 17/459/40 84/112/40 15/111/40
f 84/112/40 17/459/40 81/460/40
f 81/460/40 205/461/40 84/112/40
f 206/462/40 205/461/40 81/460/40
f 205/461/40 206/462/40 207/463/40
f 81/460/40 195/430/40 206/462/40
f 11/13/40 195/430/40 81/460/40
f 195/430/40 11/13/40 6/6/40
f 195/430/40 6/6/40 5/5/40
f 83/464/43 86/118/43 208/465/43
f 86/118/43 83/464/43 19/466/43
f 86/118/43 19/466/43 18/117/43
f 208/465/43 209/467/43 83/464/43
f 209/467/43 208/465/43 210/468/43
f 196/434/43 83/464/43 209/467/43
f 83/464/43 196/434/43 13/16/43
f 196/434/43 10/12/43 13/16/43
f 10/12/43 196/434/43 9/11/43
f 21/469/85 199/470/85 197/471/85
f 199/470/85 21/469/85 23/472/85
f 137/473/40 64/474/40 71/475/40
f 71/475/40 135/476/40 137/473/40
f 64/474/40 137/473/40 177/477/40
f 64/474/40 177/477/40 211/478/40
f 64/474/40 211/478/40 67/479/40
f 72/480/43 69/481/43 140/482/43
f 139/483/43 72/480/43 140/482/43
f 140/482/43 69/481/43 179/484/43
f 69/481/43 212/485/43 179/484/43
f 69/481/43 68/486/43 212/485/43
f 4/487/85 201/488/85 2/489/85
f 201/488/85 4/487/85 204/490/85
f 211/491/86 65/492/86 67/493/86
f 213/494/86 65/492/86 211/491/86
f 212/495/86 65/496/86 213/497/86
f 65/496/86 212/495/86 68/498/86
f 82/499/40 214/500/40 85/501/40
f 85/501/40 14/502/40 82/499/40
f 14/502/40 85/501/40 16/503/40
f 215/504/40 214/500/40 82/499/40
f 214/500/40 215/504/40 216/505/40
f 82/499/40 194/506/40 215/504/40
f 12/507/40 194/506/40 82/499/40
f 194/506/40 12/507/40 7/508/40
f 194/506/40 7/508/40 8/509/40
f 66/510/40 178/511/40 213/512/40
f 66/510/40 213/512/40 65/513/40
f 66/510/40 136/514/40 178/511/40
f 136/514/40 66/510/40 70/515/40
f 70/515/40 138/516/40 136/514/40
f 177/517/87 213/518/87 211/519/87
f 178/520/87 213/518/87 177/517/87
f 178/521/87 212/522/87 213/523/87
f 212/522/87 178/521/87 179/524/87
f 190/525/88 107/526/88 108/527/88
f 108/527/88 217/528/88 190/525/88
f 109/529/89 192/530/89 110/531/89
f 110/531/89 192/530/89 218/532/89
f 217/533/90 219/534/90 189/535/90
f 189/535/90 190/536/90 217/533/90
f 191/537/91 218/538/91 192/539/91
f 218/538/91 191/537/91 220/540/91
f 84/541/92 205/542/92 214/543/92
f 214/543/92 85/544/92 84/541/92
f 86/545/93 214/546/93 208/547/93
f 85/548/93 214/546/93 86/545/93
f 71/549/94 138/550/94 135/551/94
f 70/552/94 138/550/94 71/549/94
f 70/553/94 139/554/94 138/555/94
f 139/554/94 70/553/94 72/556/94
f 88/557/95 75/558/95 221/559/95
f 221/559/95 75/558/95 74/560/95
f 88/557/95 221/559/95 219/561/95
f 219/561/95 108/562/95 88/557/95
f 108/562/95 219/561/95 217/563/95
f 220/564/96 110/565/96 218/566/96
f 110/565/96 220/564/96 90/567/96
f 90/567/96 220/564/96 222/568/96
f 222/568/96 80/569/96 90/567/96
f 80/569/96 222/568/96 79/570/96
f 51/571/97 171/572/97 49/573/97
f 171/572/97 51/571/97 223/574/97
f 53/575/98 172/576/98 54/577/98
f 54/577/98 172/576/98 224/578/98
f 219/534/99 221/579/99 188/580/99
f 188/580/99 189/535/99 219/534/99
f 220/540/100 193/581/100 222/582/100
f 193/581/100 220/540/100 191/537/100
f 58/583/97 161/584/97 56/585/97
f 161/584/97 58/583/97 225/586/97
f 61/587/98 226/588/98 62/589/98
f 226/588/98 61/587/98 167/590/98
f 74/591/101 188/580/101 221/579/101
f 188/580/101 74/591/101 76/592/101
f 193/581/102 79/593/102 222/582/102
f 79/593/102 193/581/102 77/594/102
f 171/595/103 163/596/103 164/597/103
f 163/596/103 171/595/103 223/598/103
f 172/599/104 165/600/104 224/601/104
f 165/600/104 172/599/104 166/602/104
f 180/603/103 161/604/103 225/605/103
f 161/604/103 180/603/103 162/606/103
f 167/607/104 181/608/104 226/609/104
f 181/608/104 167/607/104 168/610/104
f 195/611/105 215/612/105 206/613/105
f 215/612/105 195/611/105 194/614/105
f 215/615/106 196/616/106 209/617/106
f 196/616/106 215/615/106 194/618/106
f 216/619/107 214/620/107 205/621/107
f 205/621/107 207/622/107 216/619/107
f 214/623/108 216/624/108 208/625/108
f 210/626/108 208/625/108 216/624/108
f 158/627/8 160/628/8 157/629/8
f 160/628/8 159/630/8 157/629/8
f 153/631/8 156/632/8 154/633/8
f 156/632/8 155/634/8 154/633/8
f 215/635/109 216/636/109 207/637/109
f 207/637/109 206/638/109 215/635/109
f 215/639/110 210/640/110 216/641/110
f 210/640/110 215/639/110 209/642/110
f 197/643/8 199/644/8 198/645/8
f 199/644/8 200/646/8 198/645/8
f 201/647/8 204/648/8 202/649/8
f 204/648/8 203/650/8 202/649/8
