# animal_collie_parts: the pack golden retriever cut into hinged parts and recoloured as a collie by tools/cut_collie.py.
mtllib animal_collie_parts.mtl
v 2.80600 3.67000 0.46000
v 2.27340 4.20000 -0.13000
v 2.27340 4.20000 0.13000
v 2.80600 3.67000 -0.46000
v 2.31860 2.52000 -0.30000
v 2.31860 2.52000 0.30000
v -2.80600 2.82000 0.13000
v -2.80600 2.55000 -0.13000
v -2.80600 2.55000 0.13000
v -2.80600 2.82000 -0.13000
v -2.72100 2.35000 0.04000
v -2.72100 2.30000 0.16000
v -2.72100 2.35000 0.16000
v -2.72100 2.35000 -0.04000
v -2.72100 2.59000 0.04000
v -2.72100 2.59000 -0.04000
v -2.72100 2.30000 -0.16000
v -2.72100 2.35000 -0.16000
v -2.69700 2.73000 0.43000
v -2.68100 2.20000 -0.40000
v -2.68100 2.20000 0.40000
v -2.69700 2.73000 -0.43000
v -2.66800 2.15000 0.33000
v -2.66200 2.10000 -0.32000
v -2.66200 2.10000 0.32000
v -2.66800 2.15000 -0.33000
v 1.18970 0.27000 0.94000
v 1.36720 0.92000 0.69000
v 1.36720 0.92000 0.97000
v 1.18970 0.27000 0.69000
v 1.18970 0.27000 0.45000
v 1.36720 0.92000 0.42000
v 1.18970 0.27000 -0.45000
v 1.36720 0.92000 -0.69000
v 1.36720 0.92000 -0.42000
v 1.18970 0.27000 -0.69000
v 1.18970 0.27000 -0.94000
v 1.36720 0.92000 -0.97000
v -2.65800 2.20000 0.32000
v -2.65100 2.15000 -0.31000
v -2.65100 2.15000 0.31000
v -2.65800 2.20000 -0.32000
v 1.44070 2.00000 0.77000
v 1.44070 2.00000 -0.77000
v 1.36270 2.53000 0.77000
v 1.36270 2.53000 -0.77000
v -2.38200 3.65000 0.82000
v -0.79000 3.65000 0.82000
v -0.79000 3.65000 -0.82000
v -2.38200 3.65000 -0.82000
v -2.46200 3.37000 0.51000
v -2.46200 2.96000 0.19000
v -2.46200 2.96000 0.51000
v -2.46200 3.37000 0.19000
v -2.46200 3.37000 -0.51000
v -2.46200 2.96000 -0.19000
v -2.46200 3.37000 -0.19000
v -2.46200 2.96000 -0.51000
v 1.36270 1.47000 0.77000
v 1.36270 1.47000 -0.77000
v -2.43100 3.51000 0.61000
v -2.43100 2.90000 0.13000
v -2.43100 2.90000 0.61000
v -2.43100 3.51000 0.13000
v -2.43100 3.51000 -0.61000
v -2.43100 2.90000 -0.13000
v -2.43100 3.51000 -0.13000
v -2.43100 2.90000 -0.61000
v 1.25890 2.31000 0.69000
v 1.35700 1.77000 1.04000
v 1.35700 1.77000 0.69000
v 1.25890 2.31000 1.04000
v 1.25890 2.31000 0.35000
v 1.35700 1.77000 0.35000
v 1.35700 1.77000 -0.69000
v 1.25890 2.31000 -0.35000
v 1.35700 1.77000 -0.35000
v 1.25890 2.31000 -0.69000
v 1.35700 1.77000 -1.04000
v 1.25890 2.31000 -1.04000
v -2.28500 3.51000 0.61000
v -2.28500 3.51000 0.13000
v -2.28500 3.51000 -0.13000
v -2.28500 3.51000 -0.61000
v -2.38200 2.06000 0.62000
v -2.38200 2.06000 -0.62000
v -2.38200 2.34000 0.93000
v -2.38200 2.34000 -0.93000
v 1.26500 1.46000 1.04000
v 1.26500 1.46000 0.69000
v 1.26500 1.46000 0.35000
v 1.26500 1.46000 -0.35000
v 1.26500 1.46000 -0.69000
v 1.26500 1.46000 -1.04000
v 1.23870 0.00000 0.96000
v 1.23870 0.27000 0.43000
v 1.23870 0.27000 0.96000
v 1.23870 0.00000 0.43000
v 1.23870 0.00000 -0.96000
v 1.23870 0.27000 -0.43000
v 1.23870 0.00000 -0.43000
v 1.23870 0.27000 -0.96000
v -2.36300 3.37000 0.19000
v -2.36300 3.37000 0.51000
v -2.36300 3.37000 -0.19000
v -2.36300 3.37000 -0.51000
v -1.57000 0.00000 0.99000
v -1.66900 0.00000 0.69000
v -1.30400 0.00000 1.02000
v -1.30400 0.00000 0.37000
v -1.57000 0.00000 0.40000
v -0.80200 0.00000 0.96000
v -0.80200 0.00000 0.43000
v -0.59200 0.00000 0.43000
v -0.59200 0.00000 0.96000
v 0.26100 0.00000 0.99000
v 0.16230 0.00000 0.69000
v 0.52710 0.00000 1.02000
v 0.52710 0.00000 0.37000
v 0.26100 0.00000 0.40000
v 1.02920 0.00000 0.43000
v 1.02920 0.00000 0.96000
v -1.66900 0.00000 -0.69000
v -1.30400 0.00000 -0.37000
v -1.57000 0.00000 -0.40000
v -1.30400 0.00000 -1.02000
v -1.57000 0.00000 -0.99000
v -0.80200 0.00000 -0.96000
v -0.80200 0.00000 -0.43000
v -0.59200 0.00000 -0.43000
v -0.59200 0.00000 -0.96000
v 0.16230 0.00000 -0.69000
v 0.52710 0.00000 -0.37000
v 0.26100 0.00000 -0.40000
v 0.52710 0.00000 -1.02000
v 0.26100 0.00000 -0.99000
v 1.02920 0.00000 -0.43000
v 1.02920 0.00000 -0.96000
v -1.92400 3.63000 0.99000
v -2.11400 2.56000 1.00000
v -2.11400 2.66000 1.31000
v -1.92400 3.53000 0.68000
v -2.11400 2.56000 -1.00000
v -1.92400 3.63000 -0.99000
v -2.11400 2.66000 -1.31000
v -1.92400 3.53000 -0.68000
v -1.22300 3.53000 0.68000
v -1.22300 3.63000 0.99000
v -1.22300 3.53000 -0.68000
v -1.22300 3.63000 -0.99000
v -1.03300 2.66000 1.31000
v -1.57300 2.31000 1.43000
v -1.03300 2.66000 -1.31000
v -1.57300 2.31000 -1.43000
v -1.28100 0.22000 0.51000
v -0.64700 0.22000 0.91000
v -1.28100 0.22000 0.91000
v -0.64700 0.22000 0.51000
v -1.28100 0.22000 -0.51000
v -0.64700 0.22000 -0.91000
v -0.64700 0.22000 -0.51000
v -1.28100 0.22000 -0.91000
v 2.02630 4.11000 -0.13000
v 2.02630 4.11000 0.13000
v -1.57000 0.27000 0.99000
v -1.66900 0.27000 0.69000
v -1.57000 0.27000 -0.99000
v -1.66900 0.27000 -0.69000
v 1.88340 3.62000 0.46000
v 1.88340 3.62000 -0.46000
v 0.80120 2.48000 1.04000
v 0.80120 2.48000 0.69000
v 0.80120 2.48000 0.35000
v 0.80120 2.48000 -0.69000
v 0.80120 2.48000 -0.35000
v 0.80120 2.48000 -1.04000
v 0.98940 1.23000 -1.04000
v 1.11740 0.91000 -0.97000
v 0.98940 1.23000 1.04000
v 1.11740 0.91000 0.97000
v -2.53900 2.82000 0.13000
v -2.53900 2.82000 -0.13000
v 1.02920 0.27000 -0.96000
v 0.52710 0.27000 -1.02000
v 1.02920 0.27000 0.96000
v 0.52710 0.27000 1.02000
v -1.30400 0.27000 1.02000
v -1.45300 2.70000 0.77000
v -1.60200 1.96000 -0.77000
v -1.60200 1.96000 0.77000
v -1.45300 2.70000 -0.77000
v -1.30400 0.27000 -1.02000
v 0.34350 1.23000 1.04000
v 0.59950 0.92000 0.97000
v 0.59950 0.92000 -0.97000
v 0.34350 1.23000 -1.04000
v -1.98200 2.73000 0.43000
v -1.98200 2.73000 -0.43000
v 0.80120 1.86000 1.04000
v 0.34350 1.77000 1.04000
v 0.34350 2.31000 1.04000
v 0.80120 1.86000 -1.04000
v 0.34350 1.77000 -1.04000
v 0.34350 2.31000 -1.04000
v 0.99520 0.27000 0.94000
v 0.99520 0.27000 -0.94000
v 0.52890 0.27000 0.94000
v 0.52890 0.27000 -0.94000
v -0.79000 2.34000 0.93000
v -0.79000 2.34000 -0.93000
v -0.59200 0.27000 -0.96000
v -0.80200 0.27000 -0.96000
v -0.59200 0.27000 0.96000
v -0.80200 0.27000 0.96000
v -1.20600 1.25000 0.93000
v -0.40900 1.25000 0.93000
v -1.20600 1.25000 -0.93000
v -0.40900 1.25000 -0.93000
v -2.64600 2.59000 0.04000
v -2.64600 2.59000 -0.04000
v -0.43000 2.09000 -0.93000
v -1.30200 2.01000 -0.93000
v -1.09300 2.25000 -0.93000
v -0.59100 2.25000 -0.93000
v -0.43000 2.09000 0.93000
v -1.30200 2.01000 0.93000
v -1.09300 2.25000 0.93000
v -0.59100 2.25000 0.93000
v 0.26100 0.27000 0.99000
v 0.26100 0.27000 -0.99000
v -1.57000 0.27000 0.40000
v -1.57000 0.27000 -0.40000
v -1.30200 2.01000 0.49000
v -1.09300 2.25000 0.49000
v -1.09300 2.25000 -0.49000
v -1.30200 2.01000 -0.49000
v -1.16100 1.17000 -0.77000
v -1.16100 1.17000 0.77000
v -1.20600 1.25000 0.49000
v -1.20600 1.25000 -0.49000
v -2.64600 2.35000 0.04000
v -2.64600 2.35000 0.16000
v -2.64600 2.35000 -0.04000
v -2.64600 2.35000 -0.16000
v -2.28500 2.90000 -0.61000
v -2.28500 2.90000 0.61000
v -0.59100 2.25000 0.49000
v -0.59100 2.25000 -0.49000
v -2.02700 2.15000 0.31000
v -2.01000 2.15000 0.33000
v -2.01000 2.15000 -0.33000
v -2.02700 2.15000 -0.31000
v -2.36300 2.96000 -0.51000
v -2.36300 2.96000 0.51000
v -1.57300 2.20000 1.12000
v -1.57300 2.20000 -1.12000
v -0.43000 2.09000 0.49000
v -0.43000 2.09000 -0.49000
v 1.32280 2.08000 0.22000
v 1.32280 2.08000 -0.22000
v -1.93800 2.20000 -0.40000
v -1.93800 2.20000 0.40000
v 0.34350 2.31000 0.69000
v 0.34350 2.31000 0.35000
v 0.34350 2.31000 -0.35000
v 0.34350 2.31000 -0.69000
v -2.01700 2.10000 -0.32000
v -2.01700 2.10000 0.32000
v -2.02100 2.20000 0.32000
v -2.02100 2.20000 -0.32000
v -0.40900 1.25000 0.49000
v -0.40900 1.25000 -0.49000
v -2.64600 2.30000 -0.16000
v -2.64600 2.30000 0.16000
v -2.53900 2.55000 -0.13000
v -2.53900 2.55000 0.13000
v -0.79000 2.06000 -0.62000
v -0.79000 2.06000 0.62000
v 1.85340 2.90000 -0.30000
v 1.12270 2.47000 -0.22000
v 1.85340 2.90000 0.30000
v 1.12270 2.47000 0.22000
v -0.59200 0.27000 0.43000
v -0.59200 0.27000 -0.43000
v -2.28500 2.90000 0.13000
v -2.28500 2.90000 -0.13000
v -2.36300 2.96000 0.19000
v -2.36300 2.96000 -0.19000
v 1.11740 0.91000 0.42000
v 0.98940 1.23000 0.35000
v 0.98940 1.23000 -0.35000
v 1.11740 0.91000 -0.42000
v 0.52710 0.27000 0.37000
v 1.02920 0.27000 0.43000
v 0.52710 0.27000 -0.37000
v 1.02920 0.27000 -0.43000
v 0.59950 0.92000 0.42000
v 0.34350 1.23000 0.35000
v 0.59950 0.92000 -0.42000
v 0.34350 1.23000 -0.35000
v -1.30400 0.27000 0.37000
v -1.30400 0.27000 -0.37000
v 0.80120 1.86000 0.35000
v 0.34350 1.77000 0.35000
v 0.80120 1.86000 -0.35000
v 0.34350 1.77000 -0.35000
v -2.67500 2.20000 0.34000
v -2.67500 2.20000 -0.34000
v 0.99520 0.27000 0.45000
v -1.03300 2.56000 1.00000
v 0.99520 0.27000 -0.45000
v -1.03300 2.56000 -1.00000
v 0.52890 0.27000 0.45000
v 0.52890 0.27000 -0.45000
v 0.34350 1.23000 0.69000
v 0.59950 0.92000 0.69000
v 0.34350 1.23000 -0.69000
v 0.59950 0.92000 -0.69000
v -0.80200 0.27000 0.43000
v -0.80200 0.27000 -0.43000
v 0.16230 0.27000 0.69000
v 0.16230 0.27000 -0.69000
v 0.26100 0.27000 0.40000
v 0.26100 0.27000 -0.40000
v -2.00400 2.20000 0.34000
v -2.00400 2.20000 -0.34000
v 0.34350 1.77000 0.69000
v 0.34350 1.77000 -0.69000
v 0.52890 0.27000 0.69000
v 0.52890 0.27000 -0.69000
vt 0.17838 0.81172
vt 0.24283 0.89360
vt 0.21413 0.89360
vt 0.27857 0.81172
vt 0.26110 0.67640
vt 0.19584 0.67640
vt 0.70357 0.65155
vt 0.67463 0.68048
vt 0.67463 0.65155
vt 0.70357 0.68048
vt 0.15859 0.01658
vt 0.15331 0.00294
vt 0.15859 0.00294
vt 0.15859 0.02464
vt 0.18505 0.01658
vt 0.18505 0.02464
vt 0.15331 0.03828
vt 0.15859 0.03828
vt 0.18616 0.85001
vt 0.12826 0.94028
vt 0.12825 0.85327
vt 0.18617 0.94353
vt 0.99591 0.05140
vt 0.99044 0.12204
vt 0.99044 0.05214
vt 0.99592 0.12277
vt 0.93052 0.37129
vt 0.95722 0.44404
vt 0.92757 0.44404
vt 0.95720 0.37128
vt 0.98389 0.37128
vt 0.98686 0.44403
vt 1.98389 0.37128
vt 1.95722 0.44404
vt 1.98686 0.44403
vt 1.95720 0.37128
vt 1.93051 0.37129
vt 1.92757 0.44404
vt 0.55451 0.82549
vt 0.54932 0.89388
vt 0.54932 0.82619
vt 0.55452 0.89458
vt 0.06106 0.90026
vt 0.06106 0.73371
vt 0.11918 0.90026
vt 0.11919 0.73372
vt 0.68688 0.59101
vt 0.51423 0.59101
vt 0.51423 0.41400
vt 0.68688 0.41400
vt 0.82522 0.60765
vt 0.78993 0.56294
vt 0.82522 0.56294
vt 0.78993 0.60765
vt 1.82522 0.60765
vt 1.78993 0.56294
vt 1.78993 0.60765
vt 1.82522 0.56294
vt 0.00293 0.90026
vt 0.00294 0.73371
vt 0.24063 0.62957
vt 0.18840 0.56341
vt 0.24063 0.56341
vt 0.18840 0.62957
vt 1.24063 0.62957
vt 1.18840 0.56341
vt 1.18840 0.62957
vt 1.24063 0.56341
vt 0.95724 0.59811
vt 0.92026 0.53905
vt 0.95723 0.53905
vt 0.92027 0.59812
vt 0.99421 0.59811
vt 0.99420 0.53904
vt 1.95723 0.53905
vt 1.99421 0.59811
vt 1.99420 0.53904
vt 1.95724 0.59811
vt 1.92026 0.53905
vt 1.92027 0.59812
vt 0.53428 0.82174
vt 0.53428 0.76952
vt 0.55012 0.82174
vt 0.55012 0.76952
vt 1.55012 0.82174
vt 1.55012 0.76952
vt 1.53428 0.76952
vt 1.53428 0.82174
vt 0.51423 0.24254
vt 0.68688 0.22085
vt 0.51423 0.37616
vt 0.54478 0.20846
vt 0.68688 0.39786
vt 0.54478 0.41024
vt 0.92026 0.50351
vt 0.95723 0.50350
vt 0.99419 0.50350
vt 1.99419 0.50350
vt 1.95723 0.50350
vt 1.92026 0.50351
vt 1.89018 0.34529
vt 1.91953 0.28782
vt 1.91953 0.34529
vt 1.89018 0.28782
vt 0.17404 0.11546
vt 0.17404 0.15075
vt 0.16334 0.11546
vt 0.16334 0.15075
vt 1.17404 0.15075
vt 1.17404 0.11546
vt 1.16334 0.11546
vt 1.16334 0.15075
vt 0.92875 0.24841
vt 0.96074 0.23770
vt 0.92527 0.27728
vt 0.99621 0.27728
vt 0.99272 0.24841
vt 0.93200 0.33174
vt 0.98947 0.33174
vt 0.98947 0.35447
vt 0.93200 0.35447
vt 1.92875 0.24841
vt 1.96074 0.23770
vt 1.92527 0.27728
vt 1.99621 0.27728
vt 1.99272 0.24841
vt 1.98947 0.33174
vt 1.93200 0.33174
vt 1.98947 0.35447
vt 1.93200 0.35447
vt 0.20347 0.93300
vt 0.31624 0.89731
vt 0.31627 0.93290
vt 0.20344 0.89740
vt 1.31624 0.89731
vt 1.20347 0.93300
vt 1.31627 0.93290
vt 1.20344 0.89740
vt 0.28364 0.88196
vt 0.28365 0.80590
vt 0.31925 0.80590
vt 0.31924 0.88196
vt 1.28365 0.80590
vt 1.28364 0.88196
vt 1.31925 0.80590
vt 1.31924 0.88196
vt 0.70471 0.95659
vt 0.82197 0.95660
vt 0.76334 0.99707
vt 0.80139 0.84570
vt 0.72532 0.84569
vt 1.70471 0.95659
vt 1.76334 0.99707
vt 1.82197 0.95660
vt 1.80139 0.84570
vt 1.72532 0.84569
vt 0.87778 0.84974
vt 0.83504 0.91855
vt 0.83504 0.84974
vt 0.87778 0.91855
vt 1.87778 0.84974
vt 1.83504 0.91855
vt 1.87778 0.91855
vt 1.83504 0.84974
vt 0.84483 0.33253
vt 0.87354 0.30383
vt 0.87353 0.33253
vt 0.84483 0.30383
vt 0.18266 0.16333
vt 0.15332 0.19706
vt 0.15331 0.16334
vt 0.18266 0.19706
vt 1.18266 0.16333
vt 1.15331 0.16334
vt 1.15332 0.19706
vt 1.18266 0.19706
vt 0.90677 0.38889
vt 0.80998 0.41480
vt 0.90679 0.24749
vt 0.81001 0.22155
vt 0.78868 0.78215
vt 0.78869 0.83514
vt 0.75172 0.83515
vt 0.75172 0.78216
vt 0.71476 0.83516
vt 0.71475 0.78217
vt 1.75171 0.78216
vt 1.71476 0.83516
vt 1.75173 0.83515
vt 1.71475 0.78217
vt 1.78868 0.78215
vt 1.78869 0.83514
vt 1.73536 0.38203
vt 1.69468 0.41756
vt 1.72179 0.41854
vt 1.70512 0.35851
vt 0.69468 0.41756
vt 0.73536 0.38203
vt 0.72179 0.41854
vt 0.70512 0.35851
vt 0.47799 0.59220
vt 0.47799 0.62113
vt 0.44906 0.62113
vt 0.44906 0.59220
vt 1.32302 0.72453
vt 1.29368 0.77941
vt 1.32302 0.77941
vt 1.29367 0.72453
vt 0.29367 0.69545
vt 0.32301 0.69545
vt 0.32302 0.72453
vt 0.29367 0.72453
vt 0.18303 0.56342
vt 0.10154 0.72995
vt 0.10156 0.56341
vt 0.18301 0.72996
vt 1.29367 0.69545
vt 1.32301 0.69545
vt 0.80538 0.38122
vt 0.77798 0.41678
vt 1.77799 0.41678
vt 1.80538 0.38122
vt 0.47146 0.95528
vt 0.39392 0.95528
vt 0.39392 0.86176
vt 0.47146 0.86176
vt 0.75489 0.31446
vt 0.80465 0.32311
vt 0.80391 0.26501
vt 0.69470 0.32452
vt 0.75402 0.24711
vt 0.70461 0.26628
vt 1.75489 0.31446
vt 1.80465 0.32311
vt 1.69470 0.32452
vt 1.80391 0.26501
vt 1.70461 0.26628
vt 1.75402 0.24711
vt 0.71459 0.48760
vt 0.73570 0.48741
vt 1.71459 0.48760
vt 1.73570 0.48741
vt 0.78628 0.48694
vt 1.78628 0.48694
vt 0.32876 0.68536
vt 0.47140 0.68534
vt 0.47142 0.85799
vt 0.32878 0.85801
vt 0.51034 0.00294
vt 0.51035 0.30902
vt 0.34380 0.30903
vt 0.34380 0.00294
vt 0.70702 0.87648
vt 0.56435 0.70386
vt 0.70700 0.70383
vt 0.56438 0.87651
vt 1.29368 0.80214
vt 1.32303 0.80213
vt 0.29368 0.80214
vt 0.32302 0.77941
vt 0.32303 0.80213
vt 0.29368 0.77941
vt 0.89643 0.11154
vt 0.90590 0.22235
vt 0.83709 0.22316
vt 0.80998 0.11256
vt 1.89643 0.11154
vt 1.83709 0.22316
vt 1.90590 0.22235
vt 1.80998 0.11256
vt 0.17640 0.01099
vt 0.16835 0.01099
vt 0.16835 0.00294
vt 0.17640 0.00294
vt 1.81110 0.02086
vt 1.90588 0.02846
vt 1.88282 0.00294
vt 1.82838 0.00358
vt 0.81110 0.02086
vt 0.90588 0.02846
vt 0.88282 0.00294
vt 0.82838 0.00358
vt 0.15332 0.23079
vt 0.18266 0.23079
vt 1.18266 0.23079
vt 1.15332 0.23079
vt 0.52656 0.92345
vt 0.47914 0.88904
vt 0.52656 0.88905
vt 0.47914 0.92344
vt 1.47914 0.92344
vt 1.52656 0.92345
vt 1.47914 0.88904
vt 1.52656 0.88905
vt 0.00293 0.72994
vt 0.00295 0.56340
vt 0.16684 0.05581
vt 0.06054 0.33219
vt 0.08361 0.00293
vt 0.11845 0.32716
vt 0.00293 0.01424
vt 0.00364 0.32033
vt 0.25648 0.00293
vt 0.28030 0.33214
vt 0.17336 0.05601
vt 0.22238 0.32724
vt 0.33718 0.01406
vt 0.33718 0.32015
vt 0.47914 0.80543
vt 0.52657 0.80544
vt 1.47914 0.80543
vt 1.52657 0.80544
vt 0.21650 0.01658
vt 0.20845 0.00294
vt 0.21650 0.00294
vt 0.20845 0.01658
vt 0.12628 0.01658
vt 0.11822 0.01658
vt 0.11822 0.00294
vt 0.12628 0.00294
vt 0.33497 0.33590
vt 0.33497 0.40728
vt 0.33313 0.40544
vt 0.33313 0.33774
vt 0.52423 0.69425
vt 0.48149 0.69424
vt 1.52423 0.69425
vt 1.48149 0.69424
vt 1.82582 0.28454
vt 1.80998 0.35071
vt 1.82582 0.35071
vt 1.80998 0.28454
vt 0.82582 0.28454
vt 0.82582 0.35071
vt 0.80998 0.35071
vt 0.80998 0.28454
vt 0.32104 0.34150
vt 0.32104 0.39595
vt 0.27362 0.39595
vt 0.27362 0.34150
vt 1.27362 0.39595
vt 1.32104 0.34150
vt 1.27362 0.34150
vt 1.32104 0.39595
vt 0.26544 0.40544
vt 0.26359 0.40728
vt 0.26359 0.33590
vt 0.26544 0.33774
vt 1.99613 0.00294
vt 1.98542 0.04765
vt 1.99613 0.04765
vt 1.98542 0.00294
vt 0.99613 0.00294
vt 0.99613 0.04765
vt 0.98542 0.04765
vt 0.98542 0.00294
vt 0.38748 0.89724
vt 0.38751 0.93284
vt 1.38748 0.89724
vt 1.38751 0.93284
vt 0.51034 0.31278
vt 0.34390 0.58848
vt 0.34380 0.31285
vt 0.51044 0.58842
vt 0.99277 0.80743
vt 0.94536 0.83188
vt 0.94535 0.80745
vt 0.99278 0.83187
vt 1.99277 0.80743
vt 1.94535 0.80745
vt 1.99278 0.83187
vt 1.94536 0.83188
vt 0.89371 0.83564
vt 0.95044 0.95388
vt 0.88517 0.95388
vt 0.94191 0.83564
vt 0.62233 0.88026
vt 0.62233 0.95780
vt 0.56435 0.88200
vt 0.56436 0.96253
vt 0.19626 0.24940
vt 0.13827 0.32519
vt 0.13828 0.24765
vt 0.19625 0.32993
vt 0.75170 0.72916
vt 0.78867 0.72916
vt 0.71474 0.72917
vt 1.71474 0.72917
vt 1.75170 0.72916
vt 1.78867 0.72916
vt 0.00293 0.52450
vt 0.00293 0.45461
vt 0.00841 0.45387
vt 0.00841 0.52524
vt 0.28411 0.69618
vt 0.27863 0.76681
vt 0.27863 0.69544
vt 0.28411 0.76607
vt 0.53947 0.82620
vt 0.53428 0.89459
vt 0.53428 0.82550
vt 0.53948 0.89389
vt 0.99044 0.90401
vt 0.99044 0.83632
vt 0.99563 0.83562
vt 0.99563 0.90471
vt 0.94763 0.60188
vt 0.99274 0.71572
vt 0.94532 0.71574
vt 0.99037 0.60187
vt 1.94763 0.60188
vt 1.99274 0.71572
vt 1.99037 0.60187
vt 1.94532 0.71574
vt 0.69495 0.00294
vt 0.69495 0.01099
vt 0.68967 0.01099
vt 0.68967 0.00294
vt 0.51423 0.01099
vt 0.51950 0.00294
vt 0.51950 0.01099
vt 0.51423 0.00294
vt 0.40280 0.60496
vt 0.40280 0.63389
vt 0.37387 0.60496
vt 0.37387 0.63389
vt 0.83504 0.56294
vt 0.86397 0.56294
vt 0.86397 0.59188
vt 0.83504 0.59188
vt 0.25578 0.51388
vt 0.08313 0.55965
vt 0.08313 0.51388
vt 0.25578 0.55965
vt 0.08313 0.33449
vt 0.25578 0.33449
vt 0.25578 0.38026
vt 0.08313 0.38026
vt 0.76463 0.59766
vt 0.76315 0.49097
vt 0.80507 0.51475
vt 0.69970 0.59111
vt 0.57686 0.63516
vt 0.68355 0.63667
vt 0.58340 0.70010
vt 0.65978 0.59474
vt 0.20147 0.00294
vt 0.19341 0.02939
vt 0.19341 0.00294
vt 0.20147 0.02939
vt 0.14633 0.00294
vt 0.14633 0.02939
vt 0.13827 0.02939
vt 0.13827 0.00294
vt 0.44906 0.67622
vt 0.50736 0.59473
vt 0.72356 0.72546
vt 0.80506 0.66717
vt 0.89018 0.34529
vt 0.91952 0.28782
vt 0.91952 0.34529
vt 0.89018 0.28782
vt 0.55012 0.69959
vt 0.55012 0.76576
vt 0.53428 0.76576
vt 0.53428 0.69959
vt 1.55012 0.76576
vt 1.55012 0.69959
vt 1.53428 0.76576
vt 1.53428 0.69959
vt 0.26603 0.55840
vt 0.32278 0.46656
vt 0.33130 0.55841
vt 0.27458 0.46655
vt 0.80063 0.01760
vt 0.80063 0.06231
vt 0.78993 0.06231
vt 0.78993 0.01760
vt 1.80063 0.06231
vt 1.80063 0.01760
vt 1.78993 0.06231
vt 1.78993 0.01760
vt 0.72179 0.07199
vt 0.73542 0.10847
vt 0.69468 0.07302
vt 0.70523 0.13205
vt 1.69468 0.07302
vt 1.73542 0.10847
vt 1.72179 0.07199
vt 1.70523 0.13205
vt 1.12825 0.81768
vt 1.12825 0.76280
vt 1.15760 0.76280
vt 1.15759 0.81768
vt 0.51423 0.17063
vt 0.68688 0.19233
vt 0.54478 0.20471
vt 0.51423 0.03701
vt 0.68688 0.01532
vt 0.54478 0.00293
vt 0.77799 0.07364
vt 0.80545 0.10915
vt 1.77799 0.07364
vt 1.80545 0.10915
vt 0.12826 0.73372
vt 0.15760 0.76280
vt 0.12825 0.76280
vt 0.15760 0.73372
vt 1.12826 0.73372
vt 1.15760 0.73372
vt 0.75507 0.17601
vt 0.80482 0.16727
vt 0.69486 0.16606
vt 0.80418 0.22538
vt 0.70487 0.22428
vt 0.75432 0.24336
vt 1.75507 0.17601
vt 1.80482 0.16727
vt 1.69487 0.16606
vt 1.80418 0.22538
vt 1.70487 0.22428
vt 1.75432 0.24336
vt 0.43877 0.59932
vt 0.43689 0.67029
vt 0.43689 0.60120
vt 0.43877 0.67217
vt 0.73557 0.00309
vt 0.71447 0.00294
vt 0.89519 0.78592
vt 0.89520 0.67312
vt 0.93080 0.67312
vt 0.93079 0.78593
vt 1.73557 0.00309
vt 1.71447 0.00294
vt 1.93080 0.67312
vt 1.89519 0.78592
vt 1.93079 0.78593
vt 1.89520 0.67312
vt 0.78616 0.00347
vt 1.78616 0.00347
vt 0.97684 0.07351
vt 0.94720 0.11776
vt 0.94720 0.07351
vt 0.98417 0.11776
vt 0.91755 0.07352
vt 0.91023 0.11776
vt 1.94720 0.11776
vt 1.94720 0.07351
vt 1.91755 0.07352
vt 1.91023 0.11776
vt 1.97684 0.07351
vt 1.98417 0.11776
vt 0.12825 0.81768
vt 0.15759 0.81768
vt 0.12825 0.84040
vt 0.15759 0.84040
vt 1.12825 0.84040
vt 1.15759 0.84040
vt 0.69941 0.95015
vt 0.62952 0.88026
vt 0.69941 0.88026
vt 0.62952 0.95015
vt 0.88139 0.73736
vt 0.82188 0.62582
vt 0.89069 0.62653
vt 0.79494 0.73646
vt 1.88139 0.73736
vt 1.82188 0.62582
vt 1.79494 0.73646
vt 1.89069 0.62653
vt 0.79620 0.82817
vt 0.89097 0.82042
vt 0.86795 0.84598
vt 0.81351 0.84542
vt 1.79620 0.82817
vt 1.89097 0.82042
vt 1.86795 0.84598
vt 1.81351 0.84542
vt 0.36592 0.59932
vt 0.36780 0.60120
vt 0.36780 0.67029
vt 0.36592 0.67217
vt 0.43938 0.59223
vt 0.35883 0.59223
vt 0.43938 0.67926
vt 0.35883 0.67925
vt 0.81803 0.17782
vt 0.80998 0.21317
vt 0.80998 0.17782
vt 0.81803 0.21317
vt 0.93080 0.60188
vt 0.89521 0.60188
vt 1.93081 0.60188
vt 1.89521 0.60188
vt 0.98417 0.17586
vt 0.94720 0.17586
vt 0.91023 0.17586
vt 0.91023 0.23395
vt 0.94720 0.23395
vt 0.98417 0.23395
vt 1.94720 0.17586
vt 1.91023 0.17586
vt 1.91023 0.23395
vt 1.94720 0.23395
vt 1.98417 0.17586
vt 1.98417 0.23395
vt 0.89906 0.56295
vt 0.87013 0.59188
vt 0.87013 0.56295
vt 0.89906 0.59188
vt 0.97389 0.00294
vt 0.94720 0.00294
vt 0.92051 0.00294
vt 1.92051 0.00294
vt 1.94720 0.00294
vt 1.97389 0.00294
vt 0.91721 0.44829
vt 0.79995 0.44827
vt 0.85859 0.40780
vt 0.82054 0.55918
vt 0.89660 0.55919
vt 1.89660 0.55919
vt 1.79995 0.44827
vt 1.82054 0.55918
vt 1.91721 0.44829
vt 1.85859 0.40780
vt 0.42480 0.65719
vt 0.40896 0.60496
vt 0.42480 0.60496
vt 0.40896 0.65719
vt 1.42480 0.65719
vt 1.42480 0.60496
vt 1.40896 0.60496
vt 1.40896 0.65719
vt 0.91592 0.42969
vt 0.90522 0.39439
vt 0.91592 0.39439
vt 0.90522 0.42969
vt 1.91593 0.42969
vt 1.91593 0.39439
vt 1.90522 0.39439
vt 1.90522 0.42969
vt 0.01797 0.54397
vt 0.01798 0.45696
vt 0.07605 0.54723
vt 0.07606 0.45371
vt 0.07386 0.37292
vt 0.03840 0.33335
vt 0.07038 0.34405
vt 0.00293 0.37292
vt 0.00641 0.34405
vt 0.06713 0.42739
vt 0.00966 0.42739
vt 0.00966 0.45011
vt 0.06713 0.45011
vt 1.07386 0.37292
vt 1.03840 0.33335
vt 1.07038 0.34405
vt 1.00293 0.37292
vt 1.00641 0.34405
vt 1.00966 0.42739
vt 1.06713 0.42739
vt 1.00966 0.45011
vt 1.06713 0.45011
vt 0.99044 0.12726
vt 0.99592 0.19789
vt 0.99044 0.19716
vt 0.99591 0.12652
vt 0.16334 0.73441
vt 0.16854 0.80280
vt 0.16334 0.80210
vt 0.16853 0.73371
vt 0.28429 0.69168
vt 0.34875 0.63690
vt 0.31300 0.69169
vt 0.24855 0.63688
vt 0.27459 0.41836
vt 0.32279 0.41836
vt 0.18840 0.66226
vt 0.18840 0.63333
vt 0.21733 0.66226
vt 0.21733 0.63333
vt 0.69468 0.51306
vt 0.69996 0.49942
vt 0.69996 0.51306
vt 0.69996 0.49136
vt 0.69468 0.47772
vt 0.69996 0.47772
vt 0.72642 0.49136
vt 0.72642 0.49942
vn 0.7087 0.7087 0.0000
vn 0.9213 -0.3937 0.0000
vn -1.0000 0.0000 0.0000
vn -1.0000 -0.0315 0.0000
vn -0.9921 -0.1339 0.0000
vn 0.9606 -0.2677 0.0000
vn 0.9921 0.1417 0.0000
vn 0.0000 1.0000 0.0000
vn 0.9921 -0.1417 0.0000
vn 0.9843 0.1811 0.0000
vn 0.9606 -0.2835 0.0000
vn 1.0000 0.0000 0.0000
vn 0.9843 0.1890 0.0000
vn 0.0000 -1.0000 0.0000
vn -0.9843 0.1732 -0.0551
vn -0.9843 0.1732 0.0551
vn 0.0000 0.9528 -0.3150
vn 0.0000 0.9528 0.3150
vn 0.0000 0.3150 0.9528
vn 0.0000 0.3150 -0.9528
vn -0.3543 0.9370 0.0000
vn -0.9449 0.0000 0.3150
vn -0.9449 0.0000 -0.3150
vn -0.0630 0.5276 0.8504
vn -0.0630 0.5276 -0.8504
vn 0.3465 0.9370 0.0000
vn 0.0630 -0.1339 -0.9921
vn 0.0630 -0.1339 0.9921
vn 0.1260 0.0000 -0.9921
vn 0.1260 0.0000 0.9921
vn -0.1181 0.0000 0.9921
vn -0.9764 0.1968 0.0000
vn -0.1181 0.0000 -0.9921
vn 0.0000 -0.2047 0.9764
vn 0.0000 -0.2047 -0.9764
vn 0.0000 0.0000 1.0000
vn 0.0000 0.0000 -1.0000
vn 0.0000 -0.0394 1.0000
vn 0.0000 -0.0394 -1.0000
vn 0.0000 0.0866 1.0000
vn 0.0630 1.0000 0.0000
vn 0.0000 0.0866 -1.0000
vn 0.0000 -0.0236 1.0000
vn 0.0000 -0.0236 -1.0000
vn -0.7480 0.6614 0.0000
vn -0.8740 -0.4882 0.0000
vn -0.9921 -0.1260 0.0000
vn -0.0787 1.0000 0.0000
vn -1.0000 0.0709 0.0000
vn 0.0000 1.0000 0.0787
vn 0.0000 1.0000 -0.0787
vn -0.5669 -0.7795 0.2598
vn -0.5669 -0.7795 -0.2598
vn 0.1181 -0.9921 0.0000
vn 0.7008 0.7165 0.0000
vn 0.0787 1.0000 0.0000
vn 0.4094 -0.9134 0.0000
vn 0.0000 -0.0551 -1.0000
vn 0.0000 -0.0551 1.0000
vn -0.3465 0.9370 0.0000
vn 0.0000 -0.1339 -0.9921
vn 0.0000 -0.1339 0.9921
vn 0.9764 -0.2283 0.0000
vn 1.0000 0.0236 0.0000
vn 0.0000 -0.7480 -0.6693
vn 0.0000 -0.7480 0.6693
vn -0.0630 -0.0551 -1.0000
vn -0.0630 -0.0551 1.0000
vn -0.0394 -0.1575 0.9843
vn -0.0394 -0.1575 -0.9843
vn -0.5039 0.8661 0.0000
vn -0.0709 -1.0000 0.0000
vn 0.9843 0.1732 -0.0551
vn 0.9843 0.1732 0.0551
vn -0.7795 -0.6299 0.0000
vn 0.0000 -1.0000 0.0709
vn 0.0000 -1.0000 -0.0709
vn 0.0709 -1.0000 0.0000
vn 0.5669 -0.7795 0.2598
vn 0.5669 -0.7795 -0.2598
vn -0.9921 0.1102 0.0000
vn 0.0000 -0.3150 -0.9528
vn 0.0000 -0.3150 0.9528
vn 1.0000 0.0787 0.0000
vn 0.9921 -0.1339 0.0000
vn -0.9606 0.2835 0.0000
vn -0.8898 -0.4488 0.0000
vn -1.0000 0.0394 0.0000
o Body
usemtl fur_black
f 43/43/7 44/44/7 45/45/7
f 46/46/7 45/45/7 44/44/7
f 59/59/9 60/60/9 43/43/9
f 44/44/9 43/43/9 60/60/9
f 188/213/32 189/214/32 190/215/32
f 189/214/32 188/213/32 191/216/32
f 188/249/41 45/250/41 46/251/41
f 46/251/41 191/252/41 188/249/41
f 190/215/46 237/295/46 238/296/46
f 237/295/46 190/215/46 189/214/46
f 238/297/36 43/298/36 190/299/36
f 43/298/36 238/297/36 59/300/36
f 190/299/36 43/298/36 188/301/36
f 188/301/36 43/298/36 45/302/36
f 189/303/37 44/304/37 237/305/37
f 237/305/37 44/304/37 60/306/37
f 191/307/37 44/304/37 189/303/37
f 44/304/37 191/307/37 46/308/37
f 237/361/54 59/362/54 238/363/54
f 59/362/54 237/361/54 60/364/54
o Head
usemtl fur_black
f 47/47/8 48/48/8 49/49/8
f 50/50/8 47/47/8 49/49/8
f 85/89/3 47/90/3 86/91/3
f 47/90/3 85/89/3 87/92/3
f 47/90/3 50/93/3 86/91/3
f 86/91/3 50/93/3 88/94/3
f 139/131/15 140/132/15 141/133/15
f 140/132/15 139/131/15 142/134/15
f 143/135/16 144/136/16 145/137/16
f 144/136/16 143/135/16 146/138/16
f 147/139/17 142/140/17 139/141/17
f 139/141/17 148/142/17 147/139/17
f 146/143/18 149/144/18 144/145/18
f 144/145/18 149/144/18 150/146/18
f 151/147/19 141/148/19 152/149/19
f 139/150/19 141/148/19 151/147/19
f 139/150/19 151/147/19 148/151/19
f 153/152/20 154/153/20 145/154/20
f 144/155/20 153/152/20 145/154/20
f 153/152/20 144/155/20 150/156/20
f 47/245/40 87/246/40 209/247/40
f 47/245/40 209/247/40 48/248/40
f 49/253/42 88/254/42 50/255/42
f 88/254/42 49/253/42 210/256/42
f 141/133/52 255/357/52 152/358/52
f 140/132/52 255/357/52 141/133/52
f 256/359/53 143/135/53 145/137/53
f 145/137/53 154/360/53 256/359/53
f 86/431/65 210/432/65 277/433/65
f 210/432/65 86/431/65 88/434/65
f 209/435/66 87/436/66 85/437/66
f 85/437/66 278/438/66 209/435/66
f 278/495/12 48/496/12 209/497/12
f 277/498/12 48/496/12 278/495/12
f 48/496/12 277/498/12 49/499/12
f 49/499/12 277/498/12 210/500/12
f 148/529/73 151/530/73 310/531/73
f 148/529/73 310/531/73 147/532/73
f 312/535/74 150/536/74 149/537/74
f 150/536/74 312/535/74 153/538/74
f 85/437/14 277/433/14 278/438/14
f 277/433/14 85/437/14 86/431/14
f 255/591/79 151/530/79 152/592/79
f 151/530/79 255/591/79 310/531/79
f 153/538/80 256/593/80 154/594/80
f 256/593/80 153/538/80 312/535/80
f 140/617/82 310/618/82 255/619/82
f 140/617/82 147/620/82 310/618/82
f 147/620/82 140/617/82 142/621/82
f 146/622/83 312/623/83 149/624/83
f 312/623/83 146/622/83 143/625/83
f 143/625/83 256/626/83 312/623/83
o Head
usemtl fur_white
f 19/19/4 20/20/4 21/21/4
f 20/20/4 19/19/4 22/22/4
f 23/23/5 24/24/5 25/25/5
f 24/24/5 23/23/5 26/26/5
f 39/39/5 40/40/5 41/41/5
f 39/39/5 42/42/5 40/40/5
f 19/223/8 197/224/8 198/225/8
f 22/226/8 19/223/8 198/225/8
f 26/321/48 23/322/48 41/323/48
f 26/321/48 41/323/48 40/324/48
f 23/322/50 249/345/50 41/323/50
f 23/322/50 250/346/50 249/345/50
f 251/347/51 26/321/51 40/324/51
f 251/347/51 40/324/51 252/348/51
f 250/346/56 252/348/56 249/345/56
f 250/346/56 251/347/56 252/348/56
f 22/377/58 198/378/58 20/379/58
f 20/379/58 198/378/58 261/380/58
f 21/381/59 197/382/59 19/383/59
f 197/382/59 21/381/59 262/384/59
f 267/391/61 24/392/61 26/393/61
f 26/393/61 251/394/61 267/391/61
f 25/395/62 250/396/62 23/397/62
f 250/396/62 25/395/62 268/398/62
f 41/399/62 269/400/62 39/401/62
f 269/400/62 41/399/62 249/402/62
f 252/403/61 40/404/61 42/405/61
f 42/405/61 270/406/61 252/403/61
f 307/523/72 42/524/72 39/525/72
f 307/523/72 308/526/72 42/524/72
f 24/559/14 268/560/14 25/561/14
f 268/560/14 24/559/14 267/562/14
f 325/579/76 307/523/76 39/525/76
f 325/579/76 39/525/76 269/580/76
f 308/526/77 270/581/77 42/524/77
f 308/526/77 326/582/77 270/581/77
f 325/579/14 21/583/14 307/523/14
f 21/583/14 325/579/14 262/584/14
f 20/585/14 307/523/14 21/583/14
f 325/579/14 261/586/14 262/584/14
f 307/523/14 20/585/14 308/526/14
f 325/579/14 326/582/14 261/586/14
f 20/585/14 261/586/14 326/582/14
f 20/585/14 326/582/14 308/526/14
f 326/582/78 325/579/78 269/580/78
f 326/582/78 269/580/78 270/581/78
f 262/643/84 261/644/84 197/645/84
f 261/644/84 198/646/84 197/645/84
f 267/665/85 250/666/85 268/667/85
f 250/666/85 267/665/85 251/668/85
f 252/669/85 269/670/85 249/671/85
f 269/670/85 252/669/85 270/672/85
o Head
usemtl nose
f 7/7/3 8/8/3 9/9/3
f 8/8/3 7/7/3 10/10/3
f 11/11/3 12/12/3 13/13/3
f 12/12/3 11/11/3 14/14/3
f 15/15/3 14/14/3 11/11/3
f 16/16/3 14/14/3 15/15/3
f 14/14/3 17/17/3 12/12/3
f 17/17/3 14/14/3 18/18/3
f 7/201/8 181/202/8 182/203/8
f 10/204/8 7/201/8 182/203/8
f 15/271/8 219/272/8 220/273/8
f 16/274/8 15/271/8 220/273/8
f 13/313/8 241/314/8 11/315/8
f 241/314/8 13/313/8 242/316/8
f 14/317/8 243/318/8 244/319/8
f 18/320/8 14/317/8 244/319/8
f 18/415/37 244/416/37 273/417/37
f 17/418/37 18/415/37 273/417/37
f 242/419/36 12/420/36 274/421/36
f 12/420/36 242/419/36 13/422/36
f 10/423/37 182/424/37 8/425/37
f 8/425/37 182/424/37 275/426/37
f 7/427/36 9/428/36 276/429/36
f 7/427/36 276/429/36 181/430/36
f 14/447/37 220/448/37 243/449/37
f 220/448/37 14/447/37 16/450/37
f 15/451/36 11/452/36 241/453/36
f 15/451/36 241/453/36 219/454/36
f 12/587/14 273/588/14 274/589/14
f 12/587/14 17/590/14 273/588/14
f 8/607/14 276/608/14 9/609/14
f 276/608/14 8/607/14 275/610/14
f 276/679/12 275/680/12 181/681/12
f 275/680/12 182/682/12 181/681/12
f 274/683/12 241/684/12 242/685/12
f 274/683/12 243/686/12 241/684/12
f 274/683/12 273/687/12 243/686/12
f 243/686/12 273/687/12 244/688/12
f 243/686/12 220/689/12 241/684/12
f 219/690/12 241/684/12 220/689/12
o Head
usemtl eye
f 51/51/3 52/52/3 53/53/3
f 52/52/3 51/51/3 54/54/3
f 55/55/3 56/56/3 57/57/3
f 56/56/3 55/55/3 58/58/3
f 54/105/8 51/106/8 103/107/8
f 104/108/8 103/107/8 51/106/8
f 55/109/8 57/110/8 105/111/8
f 55/109/8 105/111/8 106/112/8
f 55/349/37 253/350/37 58/351/37
f 253/350/37 55/349/37 106/352/37
f 51/353/36 53/354/36 254/355/36
f 51/353/36 254/355/36 104/356/36
f 52/475/37 54/476/37 103/477/37
f 52/475/37 103/477/37 287/478/37
f 57/479/36 56/480/36 105/481/36
f 288/482/36 105/481/36 56/480/36
f 52/635/14 254/636/14 53/637/14
f 254/636/14 52/635/14 287/638/14
f 56/639/14 58/640/14 253/641/14
f 56/639/14 253/641/14 288/642/14
o Head
usemtl eye_white
f 61/61/3 62/62/3 63/63/3
f 62/62/3 61/61/3 64/64/3
f 65/65/3 66/66/3 67/67/3
f 66/66/3 65/65/3 68/68/3
f 81/81/8 82/82/8 61/83/8
f 64/84/8 61/83/8 82/82/8
f 65/85/8 67/86/8 83/87/8
f 65/85/8 83/87/8 84/88/8
f 65/329/37 245/330/37 68/331/37
f 245/330/37 65/329/37 84/332/37
f 61/333/36 63/334/36 246/335/36
f 61/333/36 246/335/36 81/336/36
f 62/463/37 64/464/37 82/465/37
f 62/463/37 82/465/37 285/466/37
f 67/467/36 66/468/36 83/469/36
f 286/470/36 83/469/36 66/468/36
f 62/627/14 246/628/14 63/629/14
f 246/628/14 62/627/14 285/630/14
f 66/631/14 68/632/14 245/633/14
f 66/631/14 245/633/14 286/634/14
o Tail
usemtl fur_black
f 1/1/1 2/2/1 3/3/1
f 1/1/1 4/4/1 2/2/1
f 5/5/2 1/1/2 6/6/2
f 1/1/2 5/5/2 4/4/2
f 3/165/21 163/166/21 164/167/21
f 163/166/21 3/165/21 2/168/21
f 169/177/24 1/178/24 3/165/24
f 169/177/24 3/165/24 164/167/24
f 2/168/25 170/179/25 163/166/25
f 170/179/25 2/168/25 4/180/25
f 259/373/57 5/374/57 6/375/57
f 260/376/57 5/374/57 259/373/57
f 279/439/67 260/440/67 280/441/67
f 260/440/67 279/439/67 5/442/67
f 281/443/68 259/444/68 6/445/68
f 259/444/68 281/443/68 282/446/68
f 1/455/69 281/443/69 6/445/69
f 281/443/69 1/455/69 169/456/69
f 279/439/70 4/457/70 5/442/70
f 4/457/70 279/439/70 170/458/70
f 279/471/71 282/472/71 281/473/71
f 282/472/71 279/471/71 280/474/71
f 163/673/86 169/674/86 164/675/86
f 169/674/86 163/673/86 170/676/86
f 282/472/87 260/677/87 259/678/87
f 282/472/87 280/474/87 260/677/87
f 169/674/88 279/471/88 281/473/88
f 170/676/88 279/471/88 169/674/88
o FrontL
usemtl fur_white
f 107/113/14 108/114/14 109/115/14
f 108/114/14 110/116/14 109/115/14
f 110/116/14 108/114/14 111/117/14
f 109/115/14 110/116/14 112/118/14
f 112/118/14 110/116/14 113/119/14
f 114/120/14 112/118/14 113/119/14
f 112/118/14 114/120/14 115/121/14
f 155/157/14 156/158/14 157/159/14
f 156/158/14 155/157/14 158/160/14
f 165/169/22 108/170/22 107/171/22
f 166/172/22 108/170/22 165/169/22
f 165/209/31 107/210/31 109/211/31
f 165/209/31 109/211/31 187/212/31
f 213/259/36 112/260/36 115/261/36
f 112/260/36 213/259/36 214/262/36
f 215/263/43 157/264/43 156/265/43
f 215/263/43 156/265/43 216/266/43
f 225/279/36 226/280/36 215/263/36
f 215/263/36 216/266/36 225/279/36
f 226/280/36 225/279/36 227/281/36
f 227/281/36 225/279/36 228/282/36
f 109/211/30 214/262/30 187/212/30
f 214/262/30 109/211/30 112/260/30
f 166/172/23 111/283/23 108/170/23
f 111/283/23 166/172/23 231/284/23
f 227/287/45 233/288/45 226/289/45
f 227/287/45 234/290/45 233/288/45
f 226/289/47 239/309/47 215/310/47
f 239/309/47 226/289/47 233/288/47
f 239/309/49 157/325/49 215/310/49
f 157/325/49 239/309/49 155/326/49
f 227/337/8 228/338/8 247/339/8
f 234/340/8 227/337/8 247/339/8
f 257/365/55 228/366/55 225/367/55
f 228/366/55 257/365/55 247/368/55
f 156/407/63 271/408/63 216/409/63
f 271/408/63 156/407/63 158/410/63
f 225/367/64 216/409/64 271/408/64
f 271/408/64 257/365/64 225/367/64
f 115/459/12 283/460/12 213/461/12
f 115/459/12 114/462/12 283/460/12
f 111/505/33 301/506/33 110/507/33
f 111/505/33 231/508/33 301/506/33
f 113/553/37 319/554/37 114/555/37
f 319/554/37 283/556/37 114/555/37
f 301/506/29 319/554/29 113/553/29
f 113/553/29 110/507/29 301/506/29
f 239/563/44 158/564/44 155/565/44
f 158/564/44 239/563/44 271/566/44
f 257/571/37 239/563/37 233/572/37
f 239/563/37 257/571/37 271/566/37
f 234/573/37 257/571/37 233/572/37
f 257/571/37 234/573/37 247/574/37
f 187/647/8 166/648/8 165/649/8
f 166/648/8 187/647/8 301/650/8
f 166/648/8 301/650/8 231/651/8
f 301/650/8 187/647/8 214/652/8
f 301/650/8 214/652/8 319/653/8
f 214/652/8 283/654/8 319/653/8
f 283/654/8 214/652/8 213/655/8
o FrontR
usemtl fur_white
f 123/123/14 124/125/14 125/126/14
f 123/123/14 126/124/14 124/125/14
f 126/124/14 123/123/14 127/122/14
f 128/128/14 124/125/14 126/124/14
f 124/125/14 128/128/14 129/127/14
f 129/127/14 128/128/14 130/129/14
f 130/129/14 128/128/14 131/130/14
f 159/161/14 160/162/14 161/163/14
f 159/161/14 162/164/14 160/162/14
f 167/173/23 127/174/23 123/175/23
f 168/176/23 167/173/23 123/175/23
f 167/217/33 126/205/33 127/218/33
f 126/205/33 167/217/33 192/208/33
f 128/207/37 211/257/37 131/258/37
f 128/207/37 212/206/37 211/257/37
f 217/267/44 160/268/44 162/269/44
f 160/268/44 217/267/44 218/270/44
f 217/267/37 221/275/37 218/270/37
f 217/267/37 222/276/37 221/275/37
f 221/275/37 222/276/37 223/277/37
f 221/275/37 223/277/37 224/278/37
f 192/208/29 212/206/29 126/205/29
f 126/205/29 212/206/29 128/207/29
f 232/285/22 168/176/22 125/286/22
f 168/176/22 123/175/22 125/286/22
f 235/291/45 223/292/45 236/293/45
f 222/294/45 236/293/45 223/292/45
f 222/294/47 240/311/47 236/293/47
f 240/311/47 222/294/47 217/312/47
f 240/311/49 162/327/49 159/328/49
f 217/312/49 162/327/49 240/311/49
f 248/341/8 223/342/8 235/343/8
f 223/342/8 248/341/8 224/344/8
f 258/369/55 221/370/55 248/371/55
f 224/372/55 248/371/55 221/370/55
f 160/411/63 272/412/63 161/413/63
f 272/412/63 160/411/63 218/414/63
f 272/412/64 221/370/64 258/369/64
f 218/414/64 221/370/64 272/412/64
f 131/101/12 284/102/12 130/104/12
f 284/102/12 131/101/12 211/103/12
f 302/493/31 125/509/31 124/492/31
f 125/509/31 302/493/31 232/510/31
f 129/491/36 130/557/36 320/494/36
f 320/494/36 130/557/36 284/558/36
f 124/492/30 129/491/30 302/493/30
f 302/493/30 129/491/30 320/494/30
f 240/567/43 161/568/43 272/569/43
f 161/568/43 240/567/43 159/570/43
f 240/567/36 258/575/36 236/576/36
f 258/575/36 240/567/36 272/569/36
f 258/575/36 235/577/36 236/576/36
f 235/577/36 258/575/36 248/578/36
f 168/657/8 232/660/8 302/659/8
f 192/656/8 168/657/8 302/659/8
f 168/657/8 192/656/8 167/658/8
f 302/659/8 212/662/8 192/656/8
f 212/662/8 302/659/8 320/661/8
f 284/663/8 212/662/8 320/661/8
f 212/662/8 284/663/8 211/664/8
o RearL
usemtl fur_black
f 27/27/6 28/28/6 29/29/6
f 30/30/6 28/28/6 27/27/6
f 31/31/6 28/28/6 30/30/6
f 28/28/6 31/31/6 32/32/6
f 69/69/10 70/70/10 71/71/10
f 70/70/10 69/69/10 72/72/10
f 71/71/10 73/73/10 69/69/10
f 73/73/10 71/71/10 74/74/10
f 89/95/11 90/96/11 70/70/11
f 90/96/11 71/71/11 70/70/11
f 90/96/11 91/97/11 71/71/11
f 91/97/11 74/74/11 71/71/11
f 90/96/13 89/95/13 29/29/13
f 28/28/13 90/96/13 29/29/13
f 32/32/13 90/96/13 28/28/13
f 90/96/13 32/32/13 91/97/13
f 171/181/26 72/182/26 69/183/26
f 172/184/26 171/181/26 69/183/26
f 172/184/26 69/183/26 73/185/26
f 173/186/26 172/184/26 73/185/26
f 29/197/28 179/198/28 180/199/28
f 179/198/28 29/197/28 89/200/28
f 179/198/34 193/219/34 194/220/34
f 194/220/34 180/199/34 179/198/34
f 199/227/36 193/219/36 179/198/36
f 193/219/36 199/227/36 200/228/36
f 199/227/36 179/198/36 89/200/36
f 201/229/36 200/228/36 199/227/36
f 199/227/36 89/200/36 70/230/36
f 199/227/36 171/231/36 201/229/36
f 72/232/36 199/227/36 70/230/36
f 199/227/36 72/232/36 171/231/36
f 27/239/38 180/199/38 205/240/38
f 180/199/38 27/239/38 29/197/38
f 194/220/38 205/240/38 180/199/38
f 205/240/38 194/220/38 207/243/38
f 263/385/60 201/386/60 172/184/60
f 201/386/60 171/181/60 172/184/60
f 263/385/60 172/184/60 173/186/60
f 264/387/60 263/385/60 173/186/60
f 289/483/27 290/484/27 32/485/27
f 290/484/27 91/486/27 32/485/27
f 297/501/35 290/484/35 289/483/35
f 290/484/35 297/501/35 298/502/35
f 298/502/37 303/511/37 290/484/37
f 303/511/37 91/486/37 290/484/37
f 303/511/37 298/502/37 304/512/37
f 91/486/37 303/511/37 74/513/37
f 264/514/37 303/511/37 304/512/37
f 303/511/37 73/515/37 74/513/37
f 303/511/37 264/514/37 173/516/37
f 173/516/37 73/515/37 303/511/37
f 309/527/39 289/483/39 31/528/39
f 32/485/39 31/528/39 289/483/39
f 313/539/39 297/501/39 309/527/39
f 297/501/39 289/483/39 309/527/39
f 194/541/75 315/542/75 316/543/75
f 315/542/75 194/541/75 193/544/75
f 315/542/75 297/545/75 316/543/75
f 298/546/75 297/545/75 315/542/75
f 200/595/3 315/542/3 193/544/3
f 315/542/3 200/595/3 327/596/3
f 327/596/3 298/546/3 315/542/3
f 298/546/3 327/596/3 304/597/3
f 327/596/3 264/598/3 304/597/3
f 264/598/3 327/596/3 263/599/3
f 200/595/3 263/599/3 327/596/3
f 263/599/3 200/595/3 201/600/3
f 207/611/81 316/543/81 329/612/81
f 316/543/81 207/611/81 194/541/81
f 316/543/81 313/613/81 329/612/81
f 313/613/81 316/543/81 297/545/81
o RearL
usemtl fur_white
f 95/101/12 96/102/12 97/103/12
f 95/101/12 98/104/12 96/102/12
f 116/122/14 117/123/14 118/124/14
f 117/123/14 119/125/14 118/124/14
f 119/125/14 117/123/14 120/126/14
f 121/127/14 118/124/14 119/125/14
f 118/124/14 121/127/14 122/128/14
f 98/129/14 122/128/14 121/127/14
f 122/128/14 98/129/14 95/130/14
f 185/206/30 118/205/30 122/207/30
f 118/205/30 185/206/30 186/208/30
f 122/207/36 97/257/36 185/206/36
f 97/257/36 122/207/36 95/258/36
f 229/217/31 116/218/31 118/205/31
f 229/217/31 118/205/31 186/208/31
f 121/491/29 119/492/29 293/493/29
f 293/493/29 294/494/29 121/491/29
f 121/491/37 294/494/37 98/557/37
f 294/494/37 96/558/37 98/557/37
f 229/173/22 117/175/22 116/174/22
f 321/176/22 117/175/22 229/173/22
f 120/509/33 323/510/33 293/493/33
f 120/509/33 293/493/33 119/492/33
f 321/176/23 120/286/23 117/175/23
f 120/286/23 321/176/23 323/285/23
f 186/656/8 321/657/8 229/658/8
f 321/657/8 186/656/8 293/659/8
f 321/657/8 293/659/8 323/660/8
f 186/656/8 294/661/8 293/659/8
f 294/661/8 186/656/8 185/662/8
f 185/662/8 96/663/8 294/661/8
f 96/663/8 185/662/8 97/664/8
o RearR
usemtl fur_black
f 33/33/6 34/34/6 35/35/6
f 34/34/6 33/33/6 36/36/6
f 37/37/6 34/34/6 36/36/6
f 34/34/6 37/37/6 38/38/6
f 75/75/10 76/76/10 77/77/10
f 76/76/10 75/75/10 78/78/10
f 79/79/10 78/78/10 75/75/10
f 78/78/10 79/79/10 80/80/10
f 92/98/11 75/75/11 77/77/11
f 93/99/11 75/75/11 92/98/11
f 93/99/11 79/79/11 75/75/11
f 94/100/11 79/79/11 93/99/11
f 93/99/13 35/35/13 34/34/13
f 35/35/13 93/99/13 92/98/13
f 38/38/13 93/99/13 34/34/13
f 93/99/13 38/38/13 94/100/13
f 174/187/26 76/188/26 78/189/26
f 175/190/26 76/188/26 174/187/26
f 174/187/26 78/189/26 176/191/26
f 176/191/26 78/189/26 80/192/26
f 177/193/27 38/194/27 178/195/27
f 38/194/27 177/193/27 94/196/27
f 195/221/35 177/193/35 178/195/35
f 195/221/35 196/222/35 177/193/35
f 196/222/37 202/233/37 177/193/37
f 177/193/37 202/233/37 94/196/37
f 202/233/37 196/222/37 203/234/37
f 94/196/37 202/233/37 79/235/37
f 204/236/37 202/233/37 203/234/37
f 202/233/37 80/237/37 79/235/37
f 202/233/37 204/236/37 176/238/37
f 80/237/37 202/233/37 176/238/37
f 178/195/39 37/241/39 206/242/39
f 37/241/39 178/195/39 38/194/39
f 195/221/39 206/242/39 208/244/39
f 206/242/39 195/221/39 178/195/39
f 265/388/60 175/190/60 266/389/60
f 266/389/60 175/190/60 174/187/60
f 266/389/60 174/187/60 204/390/60
f 204/390/60 174/187/60 176/191/60
f 35/487/28 291/488/28 292/489/28
f 291/488/28 35/487/28 92/490/28
f 299/503/34 291/488/34 300/504/34
f 291/488/34 299/503/34 292/489/34
f 300/504/36 291/488/36 305/517/36
f 92/490/36 305/517/36 291/488/36
f 300/504/36 305/517/36 306/518/36
f 305/517/36 92/490/36 77/519/36
f 305/517/36 265/520/36 306/518/36
f 305/517/36 77/519/36 76/521/36
f 265/520/36 305/517/36 175/522/36
f 175/522/36 305/517/36 76/521/36
f 292/489/38 311/533/38 33/534/38
f 292/489/38 33/534/38 35/487/38
f 314/540/38 311/533/38 299/503/38
f 299/503/38 311/533/38 292/489/38
f 317/547/75 318/548/75 299/549/75
f 300/550/75 317/547/75 299/549/75
f 317/547/75 195/551/75 318/548/75
f 195/551/75 317/547/75 196/552/75
f 328/601/3 300/550/3 306/602/3
f 265/603/3 328/601/3 306/602/3
f 300/550/3 328/601/3 317/547/3
f 265/603/3 266/604/3 328/601/3
f 203/605/3 317/547/3 328/601/3
f 266/604/3 203/605/3 328/601/3
f 317/547/3 203/605/3 196/552/3
f 266/604/3 204/606/3 203/605/3
f 314/614/81 299/549/81 318/548/81
f 318/548/81 330/615/81 314/614/81
f 318/548/81 208/616/81 330/615/81
f 208/616/81 318/548/81 195/551/81
o RearR
usemtl fur_white
f 99/101/12 100/102/12 101/104/12
f 100/102/12 99/101/12 102/103/12
f 132/123/14 133/125/14 134/126/14
f 132/123/14 135/124/14 133/125/14
f 135/124/14 132/123/14 136/122/14
f 133/125/14 135/124/14 137/127/14
f 138/128/14 137/127/14 135/124/14
f 137/127/14 138/128/14 101/129/14
f 101/129/14 138/128/14 99/130/14
f 135/205/29 183/206/29 138/207/29
f 184/208/29 183/206/29 135/205/29
f 138/207/37 102/257/37 99/258/37
f 138/207/37 183/206/37 102/257/37
f 230/217/33 135/205/33 136/218/33
f 135/205/33 230/217/33 184/208/33
f 133/492/30 137/491/30 295/493/30
f 295/493/30 137/491/30 296/494/30
f 137/491/36 101/557/36 296/494/36
f 296/494/36 101/557/36 100/558/36
f 230/173/23 136/174/23 132/175/23
f 322/176/23 230/173/23 132/175/23
f 134/509/31 295/493/31 324/510/31
f 295/493/31 134/509/31 133/492/31
f 324/285/22 322/176/22 134/286/22
f 322/176/22 132/175/22 134/286/22
f 322/657/8 324/660/8 295/659/8
f 184/656/8 322/657/8 295/659/8
f 322/657/8 184/656/8 230/658/8
f 295/659/8 296/661/8 184/656/8
f 184/656/8 296/661/8 183/662/8
f 296/661/8 102/664/8 183/662/8
f 102/664/8 296/661/8 100/663/8
