# Roblox asset pack: animal_crocodile (creatures), from the Studio model "Crocodile". Exported with Export Selection, split by tools/build_creatures.py: one object per rigid body. Units: studs. +Y up, front faces -Z, pivot (bottom centre) at the origin.
mtllib animal_crocodile.mtl

v 5.60300 1.23000 -0.11000
v 5.60900 1.32000 0.11000
v 5.60300 1.23000 0.11000
v 5.60900 1.32000 -0.11000
v 5.28900 1.40000 0.11000
v 5.25400 1.48000 -0.11000
v 5.25400 1.48000 0.11000
v 5.28900 1.40000 -0.11000
v 4.94800 1.45000 0.11000
v 4.91400 1.54000 -0.11000
v 4.91400 1.54000 0.11000
v 4.94800 1.45000 -0.11000
v 5.54500 1.40000 -0.11000
v 5.54500 1.40000 0.11000
v 3.59000 1.45000 -0.18000
v 3.62100 1.60000 0.18000
v 3.59000 1.45000 0.18000
v 3.62100 1.60000 -0.18000
v 3.12200 1.79000 0.18000
v 3.08300 1.93000 -0.18000
v 3.08300 1.93000 0.18000
v 3.12200 1.79000 -0.18000
v 3.53700 1.74000 -0.18000
v 3.53700 1.74000 0.18000
v 2.58400 1.95000 0.18000
v 2.54900 2.11000 -0.18000
v 2.54900 2.11000 0.18000
v 2.58400 1.95000 -0.18000
v -6.56220 2.28000 0.89000
v -6.56220 1.81000 0.00000
v -6.56220 1.81000 0.89000
v -6.56220 2.28000 0.00000
v -6.56220 2.28000 -0.89000
v -6.56220 1.81000 -0.89000
v -6.48650 1.84000 0.52000
v -6.48650 1.43000 0.60000
v -6.48650 1.43000 0.64000
v -6.48650 1.84000 0.73000
v -6.48650 1.43000 -0.60000
v -6.48650 1.84000 -0.52000
v -6.48650 1.43000 -0.64000
v -6.48650 1.84000 -0.73000
v -6.47770 1.87000 0.24000
v -6.47770 1.55000 0.30000
v -6.47770 1.55000 0.33000
v -6.47770 1.87000 0.40000
v -6.47770 1.55000 -0.30000
v -6.47770 1.87000 -0.24000
v -6.47770 1.55000 -0.33000
v -6.47770 1.87000 -0.40000
v -6.44690 1.35000 0.00000
v -6.44690 1.35000 0.84000
v -6.44690 1.80000 0.00000
v -6.44690 1.80000 0.84000
v -6.44690 1.80000 -0.84000
v -6.44690 1.35000 -0.84000
v -6.25770 2.52000 0.55000
v -6.25770 2.20000 0.59000
v -6.25770 2.55000 0.59000
v -6.25770 2.55000 0.24000
v -6.25770 2.24000 0.55000
v -6.25770 2.52000 0.27000
v -6.25770 2.20000 0.24000
v -6.25770 2.24000 0.27000
v -6.25770 2.24000 -0.55000
v -6.25770 2.20000 -0.24000
v -6.25770 2.24000 -0.27000
v -6.25770 2.20000 -0.59000
v -6.25770 2.55000 -0.24000
v -6.25770 2.52000 -0.55000
v -6.25770 2.52000 -0.27000
v -6.25770 2.55000 -0.59000
v -6.33720 1.84000 0.87000
v -6.25340 1.43000 0.79000
v -6.25340 1.43000 0.87000
v -6.33720 1.84000 0.79000
v -6.33720 1.84000 -0.87000
v -6.25340 1.43000 -0.79000
v -6.33720 1.84000 -0.79000
v -6.25340 1.43000 -0.87000
v -6.21060 2.51000 0.28000
v -6.21060 2.24000 0.55000
v -6.21060 2.51000 0.55000
v -6.21060 2.24000 0.28000
v -6.21060 2.24000 -0.55000
v -6.21060 2.24000 -0.28000
v -6.21060 2.51000 -0.28000
v -6.21060 2.51000 -0.55000
v -5.99440 1.90000 0.86000
v -5.93100 1.59000 0.80000
v -5.93100 1.59000 0.86000
v -5.99440 1.90000 0.80000
v -5.99440 1.90000 -0.86000
v -5.93100 1.59000 -0.86000
v -5.93100 1.59000 -0.80000
v -5.99440 1.90000 -0.80000
v 1.01500 0.86000 -0.86000
v 1.01500 2.26000 0.86000
v 1.01500 0.86000 0.86000
v 1.01500 2.26000 -0.86000
v -5.36200 1.92000 0.87000
v -5.27820 1.52000 0.79000
v -5.27820 1.52000 0.87000
v -5.36200 1.92000 0.79000
v -5.36200 1.92000 -0.87000
v -5.27820 1.52000 -0.87000
v -5.27820 1.52000 -0.79000
v -5.36200 1.92000 -0.79000
v 0.66500 0.00000 0.82000
v 0.50500 0.97000 1.47000
v 0.66500 0.00000 1.54000
v 0.50500 0.97000 0.75000
v 0.63500 1.19000 1.46000
v 0.63500 1.19000 0.74000
v 0.63500 2.15000 1.39000
v 0.63500 2.15000 0.67000
v 0.50500 0.97000 -0.75000
v 0.63500 1.19000 -1.46000
v 0.63500 1.19000 -0.74000
v 0.63500 2.15000 -1.39000
v 0.63500 2.15000 -0.67000
v 0.50500 0.97000 -1.47000
v 0.66500 0.00000 -0.82000
v 0.66500 0.00000 -1.54000
v 0.49500 2.30000 -0.30000
v 0.49500 2.57000 0.30000
v 0.49500 2.30000 0.30000
v 0.49500 2.57000 -0.30000
v 0.31000 2.78000 -0.30000
v 0.31000 2.78000 0.30000
v -4.44360 3.19000 0.65000
v -4.59720 2.57000 0.79000
v -4.59720 2.57000 0.89000
v -4.42150 3.28000 0.72000
v -4.42150 3.23000 0.08000
v -4.44360 3.14000 0.16000
v -4.59720 2.57000 0.00000
v -4.59720 2.57000 0.07000
v -4.44360 3.14000 -0.16000
v -4.59720 2.57000 -0.06000
v -4.42150 3.23000 -0.08000
v -4.44360 3.19000 -0.65000
v -4.42150 3.28000 -0.72000
v -4.59720 2.57000 -0.89000
v -4.59720 2.57000 -0.79000
v -4.50260 2.93000 0.59000
v -4.53540 2.80000 0.49000
v -4.53540 2.80000 0.62000
v -4.46970 3.06000 0.57000
v -4.43680 3.20000 0.45000
v -4.43680 3.20000 0.55000
v -4.53540 2.80000 -0.49000
v -4.50260 2.93000 -0.59000
v -4.53540 2.80000 -0.62000
v -4.46970 3.06000 -0.57000
v -4.43680 3.20000 -0.45000
v -4.43680 3.20000 -0.55000
v -4.48280 2.93000 0.48000
v -4.51570 2.80000 0.37000
v -4.51570 2.80000 0.49000
v -4.51570 2.80000 0.24000
v -4.44990 3.06000 0.47000
v -4.41710 3.20000 0.16000
v -4.41710 3.20000 0.45000
v -4.51570 2.80000 0.12000
v -4.41710 3.20000 -0.16000
v -4.51570 2.80000 -0.24000
v -4.51570 2.80000 -0.12000
v -4.44990 3.06000 -0.47000
v -4.41710 3.20000 -0.45000
v -4.48280 2.93000 -0.48000
v -4.51570 2.80000 -0.37000
v -4.51570 2.80000 -0.49000
v -4.71550 1.91000 0.87000
v -4.63160 1.50000 0.79000
v -4.63160 1.50000 0.87000
v -4.71550 1.91000 0.79000
v -4.71550 1.91000 -0.87000
v -4.63160 1.50000 -0.87000
v -4.63160 1.50000 -0.79000
v -4.71550 1.91000 -0.79000
v -4.30350 3.14000 0.16000
v -4.45710 2.57000 0.07000
v -4.45710 2.57000 0.79000
v -4.30350 3.19000 0.65000
v -4.30350 3.14000 -0.16000
v -4.45710 2.57000 -0.79000
v -4.45710 2.57000 -0.06000
v -4.30350 3.19000 -0.65000
v -0.39360 2.72000 0.30000
v -0.50350 2.94000 -0.30000
v -0.50350 2.94000 0.30000
v -0.39360 2.72000 -0.30000
v -3.13780 0.05000 1.73000
v -3.13780 0.37000 1.73000
v -3.63900 0.00000 1.59000
v -3.13780 0.05000 -1.73000
v -3.63900 0.00000 -1.59000
v -3.13780 0.37000 -1.73000
v -0.62460 0.05000 1.22000
v -0.62460 0.05000 1.50000
v -1.12570 0.00000 1.36000
v -0.62460 0.05000 0.86000
v -0.62460 0.05000 1.14000
v -1.12570 0.00000 1.00000
v -0.62460 0.05000 -0.86000
v -1.12570 0.00000 -1.00000
v -0.62460 0.05000 -1.14000
v -0.62460 0.05000 -1.22000
v -1.12570 0.00000 -1.36000
v -0.62460 0.05000 -1.50000
v -3.13780 0.00000 1.41000
v -2.00810 0.00000 1.77000
v -3.13780 0.00000 1.77000
v -2.00810 0.00000 1.05000
v -3.13780 0.00000 1.05000
v -0.62460 0.00000 1.18000
v -0.62460 0.00000 1.54000
v -0.62460 0.00000 0.82000
v -3.13780 0.00000 -1.41000
v -2.00810 0.00000 -1.05000
v -3.13780 0.00000 -1.05000
v -2.00810 0.00000 -1.77000
v -3.13780 0.00000 -1.77000
v -0.62460 0.00000 -1.18000
v -0.62460 0.00000 -0.82000
v -0.62460 0.00000 -1.54000
v -3.36320 3.10000 0.60000
v -3.70410 2.80000 0.00000
v -3.70410 2.57000 0.89000
v -3.36320 3.10000 0.00000
v -3.36320 3.10000 -0.60000
v -3.70410 2.57000 -0.89000
v 2.34300 2.17000 0.18000
v 2.34300 2.17000 -0.18000
v -2.72570 0.41000 1.77000
v -3.13780 0.41000 1.77000
v -2.00810 2.15000 1.62000
v -2.72570 2.15000 1.62000
v -2.72570 0.41000 -1.77000
v -3.13780 0.41000 -1.77000
v -2.00810 2.15000 -1.62000
v -2.72570 2.15000 -1.62000
v -3.13780 0.05000 1.45000
v -3.13780 0.05000 1.09000
v -3.13780 0.05000 1.37000
v -3.63900 0.00000 1.23000
v 2.87600 1.99000 0.18000
v 2.87600 1.99000 -0.18000
v -3.13780 0.05000 -1.09000
v -3.63900 0.00000 -1.23000
v -3.13780 0.05000 -1.37000
v -3.13780 0.05000 -1.45000
v 3.40400 1.78000 0.18000
v 3.40400 1.78000 -0.18000
v -3.13780 0.37000 1.37000
v -3.13780 0.37000 -1.37000
v 3.32900 1.73000 -0.18000
v 3.32900 1.73000 0.18000
v 2.25200 2.05000 -0.18000
v 2.12000 2.09000 0.18000
v 2.25200 2.05000 0.18000
v 2.12000 2.09000 -0.18000
v 2.79000 1.89000 -0.18000
v 2.79000 1.89000 0.18000
v -0.21240 0.41000 1.54000
v -0.62460 0.41000 1.54000
v -0.21240 2.15000 1.39000
v -0.21240 0.41000 -1.54000
v -0.62460 0.41000 -1.54000
v -0.21240 2.15000 -1.39000
v -3.78380 3.23000 0.08000
v -3.78380 3.28000 0.72000
v -3.78380 3.28000 -0.72000
v -3.78380 3.23000 -0.08000
v -3.62810 2.13000 -1.11000
v -3.62810 1.31000 1.11000
v -3.62810 2.13000 1.11000
v -3.62810 1.31000 -1.11000
v -1.44740 3.06000 -0.30000
v -1.80960 3.10000 0.30000
v -1.44740 3.06000 0.30000
v -1.80960 3.10000 -0.30000
v -2.76390 3.10000 0.00000
v -2.76390 3.10000 0.60000
v -2.76390 3.10000 -0.60000
v -2.96760 0.65000 -1.11000
v -2.96760 0.65000 1.11000
v -0.86560 2.97000 0.30000
v -0.86560 2.97000 -0.30000
v -1.33760 2.81000 0.30000
v -1.33760 2.81000 -0.30000
v 0.07800 2.80000 0.30000
v 0.07800 2.80000 -0.30000
v -2.81100 2.57000 0.89000
v -1.30650 0.65000 1.11000
v -1.30650 0.65000 -1.11000
v -1.91940 2.86000 -0.30000
v -2.15120 2.88000 0.30000
v -1.91940 2.86000 0.30000
v -2.15120 2.88000 -0.30000
v -0.97550 2.78000 -0.30000
v -0.97550 2.78000 0.30000
v -0.03150 2.69000 -0.30000
v -0.03150 2.69000 0.30000
v -2.71440 2.47000 1.11000
v -1.30650 2.47000 1.11000
v -2.71440 2.47000 -1.11000
v -1.30650 2.47000 -1.11000
v -0.62460 0.37000 1.50000
v -0.62460 0.37000 -1.50000
v 4.53700 1.37000 0.41000
v 2.75600 1.68000 -0.52000
v 2.75600 1.68000 0.52000
v 0.76500 2.25000 0.65000
v 0.76500 2.25000 -0.65000
v 4.53700 1.37000 -0.41000
v 6.56200 1.23000 0.00000
v 0.65500 0.96000 0.65000
v 2.66800 0.64000 0.52000
v 4.46800 0.56000 0.41000
v 6.51400 0.67000 0.00000
v 2.66800 0.64000 -0.52000
v 0.65500 0.96000 -0.65000
v 4.46800 0.56000 -0.41000
v -2.81100 1.96000 -0.89000
v -2.81100 2.57000 -0.89000
v -3.13780 0.37000 1.45000
v -3.13780 0.41000 1.41000
v -3.13780 0.41000 1.05000
v -3.13780 0.37000 1.09000
v -3.13780 0.37000 -1.45000
v -3.13780 0.41000 -1.41000
v -3.13780 0.41000 -1.05000
v -3.13780 0.37000 -1.09000
v -2.81100 1.96000 0.89000
v -6.21470 1.43000 0.87000
v -6.13090 1.84000 0.87000
v -4.59300 1.50000 0.87000
v -4.50910 1.91000 0.87000
v -5.15570 1.92000 0.87000
v -5.23960 1.52000 0.87000
v -6.21470 1.43000 -0.87000
v -6.13090 1.84000 -0.87000
v -5.15570 1.92000 -0.87000
v -5.23960 1.52000 -0.87000
v -4.59300 1.50000 -0.87000
v -4.50910 1.91000 -0.87000
v -5.83840 1.90000 0.86000
v -5.90180 1.59000 0.86000
v -5.83840 1.90000 -0.86000
v -5.90180 1.59000 -0.86000
v -4.34770 3.18000 0.45000
v -4.34770 3.18000 0.16000
v -4.34770 3.18000 -0.45000
v -4.34770 3.18000 -0.16000
v -2.89980 1.35000 0.84000
v -2.89980 1.94000 0.84000
v -4.36750 3.18000 0.55000
v -4.36750 3.18000 0.45000
v -2.89980 1.35000 -0.84000
v -2.89980 1.94000 -0.84000
v -4.36750 3.18000 -0.55000
v -4.36750 3.18000 -0.45000
v 4.78300 1.56000 0.11000
v 4.78300 1.56000 -0.11000
v 5.12300 1.50000 0.11000
v 5.12300 1.50000 -0.11000
v 5.46200 1.41000 0.11000
v 5.46200 1.41000 -0.11000
v -2.33640 2.71000 -0.30000
v -2.33640 2.71000 0.30000
v 5.07900 1.43000 -0.11000
v 5.07900 1.43000 0.11000
v 5.42000 1.38000 -0.11000
v 5.42000 1.38000 0.11000
v 4.73800 1.48000 -0.11000
v 4.65500 1.49000 0.11000
v 4.73800 1.48000 0.11000
v 4.65500 1.49000 -0.11000
v -6.40520 1.43000 0.64000
v -6.40520 1.84000 0.73000
v -6.40520 1.84000 -0.73000
v -6.40520 1.43000 -0.64000
v -4.43320 2.91000 0.59000
v -4.46610 2.78000 0.62000
v -4.40030 3.05000 0.57000
v -4.43320 2.91000 -0.59000
v -4.46610 2.78000 -0.62000
v -4.40030 3.05000 -0.57000
v -0.62460 0.37000 1.14000
v -0.62460 0.37000 -1.14000
v -4.41350 2.91000 0.48000
v -4.44630 2.78000 0.49000
v -4.38060 3.05000 0.47000
v -4.38060 3.05000 -0.47000
v -4.41350 2.91000 -0.48000
v -4.44630 2.78000 -0.49000
v -2.72570 0.41000 1.05000
v -2.72570 2.15000 0.90000
v -2.72570 0.41000 -1.05000
v -2.72570 2.15000 -0.90000
v -2.89980 1.35000 0.00000
v -2.00810 2.15000 0.90000
v -0.21240 2.15000 0.67000
v -2.00810 2.15000 -0.90000
v -0.21240 2.15000 -0.67000
v -6.41400 1.87000 0.40000
v -6.41400 1.55000 0.33000
v -6.41400 1.87000 -0.40000
v -6.41400 1.55000 -0.33000
v -6.21470 1.43000 0.79000
v -6.40520 1.43000 0.60000
v -6.40520 1.43000 -0.60000
v -6.21470 1.43000 -0.79000
v -2.33640 2.30000 0.30000
v -2.33640 2.30000 -0.30000
v -4.59300 1.50000 0.79000
v -4.59300 1.50000 -0.79000
v -5.90500 2.51000 0.28000
v -5.90500 2.51000 0.55000
v -5.90500 2.51000 -0.28000
v -5.90500 2.51000 -0.55000
v -5.23960 1.52000 0.79000
v -5.23960 1.52000 -0.79000
v -6.41400 1.55000 0.30000
v -6.41400 1.55000 -0.30000
v -5.90180 1.59000 0.80000
v -5.90180 1.59000 -0.80000
v 1.94600 1.77000 0.18000
v 1.99300 2.01000 0.18000
v 1.94600 1.77000 -0.18000
v 1.99300 2.01000 -0.18000
v 4.58400 1.43000 0.11000
v 4.57600 1.28000 0.11000
v 4.57600 1.28000 -0.11000
v 4.58400 1.43000 -0.11000
v -5.90500 2.25000 0.55000
v -5.90500 2.25000 -0.55000
v -4.44630 2.78000 0.12000
v -4.44630 2.78000 -0.12000
v -2.81100 1.96000 0.00000
v -2.89980 1.94000 0.00000
v -6.41400 1.87000 0.24000
v -6.41400 1.87000 -0.24000
v -4.46610 2.78000 0.49000
v -4.44630 2.78000 0.37000
v -4.44630 2.78000 0.24000
v -4.44630 2.78000 -0.24000
v -4.44630 2.78000 -0.37000
v -4.46610 2.78000 -0.49000
v -6.40520 1.84000 0.52000
v -6.40520 1.84000 -0.52000
v -2.81100 2.57000 0.00000
v -5.90500 2.25000 0.28000
v -5.90500 2.25000 -0.28000
v -0.21240 0.41000 0.82000
v -0.62460 0.41000 0.82000
v -0.21240 0.41000 -0.82000
v -0.62460 0.41000 -0.82000
v -6.13090 1.84000 0.79000
v -4.50910 1.91000 0.79000
v -5.15570 1.92000 0.79000
v -6.13090 1.84000 -0.79000
v -4.50910 1.91000 -0.79000
v -5.15570 1.92000 -0.79000
v -5.83840 1.90000 0.80000
v -5.83840 1.90000 -0.80000
v -0.62460 0.37000 0.86000
v -0.62460 0.37000 -0.86000
v -0.62460 0.41000 1.18000
v -0.62460 0.41000 -1.18000
v -0.62460 0.37000 1.22000
v -0.62460 0.37000 -1.22000
vt 1.85793 0.93134
vt 1.87795 0.97555
vt 1.85793 0.97555
vt 1.87795 0.93134
vt 1.42518 0.98680
vt 1.44307 0.94259
vt 1.44307 0.98680
vt 1.42517 0.94259
vt 1.63679 0.98875
vt 1.65738 0.94454
vt 1.65737 0.98875
vt 1.63679 0.94454
vt 1.89833 0.93133
vt 1.89833 0.97554
vt 0.27319 0.74682
vt 0.23834 0.81312
vt 0.23835 0.74682
vt 0.27318 0.81312
vt 0.27318 0.87941
vt 0.23834 0.87941
vt 0.26122 0.97971
vt 0.26744 0.94940
vt 0.27031 0.94940
vt 0.27653 0.97971
vt 1.26744 0.94940
vt 1.26122 0.97971
vt 1.27031 0.94940
vt 1.27653 0.97971
vt 0.13730 0.83501
vt 0.13730 0.77233
vt 0.17025 0.83501
vt 0.17025 0.77233
vt 0.17025 0.89770
vt 0.13730 0.89770
vt 0.47924 0.99539
vt 0.48186 0.97183
vt 0.48186 0.99801
vt 0.45568 0.99801
vt 0.47924 0.97445
vt 0.45830 0.99539
vt 0.45568 0.97183
vt 0.45830 0.97445
vt 1.47924 0.97445
vt 1.45568 0.97183
vt 1.45830 0.97445
vt 1.48185 0.97183
vt 1.45568 0.99801
vt 1.47924 0.99539
vt 1.45830 0.99539
vt 1.48185 0.99801
vt 1.77246 0.98090
vt 1.76642 0.94996
vt 1.77247 0.94996
vt 1.76642 0.98090
vt 0.39658 0.98924
vt 0.41664 0.96918
vt 0.41664 0.98924
vt 0.39658 0.96918
vt 1.41664 0.96918
vt 1.39658 0.96918
vt 1.39658 0.98924
vt 1.41664 0.98924
vt 0.44233 0.79403
vt 0.54646 0.92188
vt 0.44233 0.92188
vt 0.54646 0.79403
vt 0.06278 0.45767
vt 0.00971 0.52683
vt 0.00964 0.45412
vt 0.06285 0.53038
vt 0.00957 0.54597
vt 0.06271 0.54952
vt 0.00971 0.61771
vt 0.06285 0.62126
vt 1.06285 0.53038
vt 1.00957 0.54597
vt 1.06271 0.54952
vt 1.00971 0.61771
vt 1.06285 0.62126
vt 1.00971 0.52683
vt 1.06278 0.45767
vt 1.00964 0.45412
vt 0.85793 0.93134
vt 0.87795 0.97555
vt 0.85794 0.97555
vt 0.87794 0.93134
vt 0.89833 0.93133
vt 0.89833 0.97554
vt 0.88441 0.87891
vt 0.83696 0.86790
vt 0.83696 0.86049
vt 0.89125 0.87352
vt 0.88752 0.92087
vt 0.88068 0.91474
vt 0.83698 0.92682
vt 0.83697 0.92160
vt 0.75486 0.83721
vt 0.71115 0.82980
vt 0.71116 0.82513
vt 0.76170 0.83109
vt 0.75859 0.87304
vt 0.76543 0.87843
vt 0.71114 0.89146
vt 0.71114 0.88390
vt 0.67202 0.01376
vt 0.66348 0.00442
vt 0.67272 0.00349
vt 0.67131 0.02404
vt 0.66348 0.03503
vt 0.67060 0.03431
vt 1.66348 0.00442
vt 1.67201 0.01376
vt 1.67272 0.00349
vt 1.67131 0.02404
vt 1.66348 0.03503
vt 1.67060 0.03431
vt 0.38339 0.96100
vt 0.37512 0.95085
vt 0.38441 0.95085
vt 0.36583 0.95085
vt 0.38237 0.97116
vt 0.35986 0.98131
vt 0.38135 0.98131
vt 0.35654 0.95085
vt 1.35986 0.98131
vt 1.36583 0.95085
vt 1.35654 0.95085
vt 1.38237 0.97116
vt 1.38135 0.98131
vt 1.38339 0.96100
vt 1.37512 0.95085
vt 1.38441 0.95085
vt 0.64810 0.93620
vt 0.60438 0.94300
vt 0.60438 0.88934
vt 0.65183 0.90038
vt 0.59472 0.89633
vt 0.55100 0.94301
vt 0.55100 0.88895
vt 0.59845 0.93215
vt 0.42518 0.98680
vt 0.44307 0.94259
vt 0.44307 0.98680
vt 0.42517 0.94259
vt 0.07300 0.93189
vt 0.05342 0.94577
vt 0.05342 0.89849
vt 1.07300 0.93189
vt 1.05342 0.89849
vt 1.05342 0.94577
vt 0.12338 0.98532
vt 0.10298 0.98532
vt 0.11318 0.94797
vt 0.62286 0.98534
vt 0.60247 0.98534
vt 0.61266 0.94799
vt 1.62287 0.98534
vt 1.61266 0.94799
vt 1.60247 0.98534
vt 1.12338 0.98532
vt 1.11318 0.94797
vt 1.10298 0.98532
vt 0.57763 0.79831
vt 0.55100 0.88217
vt 0.55100 0.79831
vt 0.60426 0.88217
vt 0.60426 0.79831
vt 0.20206 0.79067
vt 0.17543 0.88641
vt 0.17543 0.79067
vt 0.22869 0.88641
vt 0.22869 0.79067
vt 1.57763 0.79831
vt 1.60426 0.88217
vt 1.60426 0.79831
vt 1.55100 0.88217
vt 1.55100 0.79831
vt 1.20206 0.79067
vt 1.22869 0.88641
vt 1.22869 0.79067
vt 1.17543 0.88641
vt 1.17543 0.79067
vt 0.18750 0.76508
vt 0.22096 0.72060
vt 0.23358 0.78792
vt 0.18750 0.72060
vt 0.18750 0.67612
vt 0.23358 0.65328
vt 1.07057 0.94070
vt 1.09757 0.98491
vt 1.07058 0.98492
vt 1.09756 0.94070
vt 0.88269 0.80280
vt 0.79883 0.80267
vt 0.85214 0.77252
vt 0.88273 0.77257
vt 0.79886 0.64265
vt 0.85212 0.64264
vt 1.88269 0.80280
vt 1.85214 0.77252
vt 1.79883 0.80267
vt 1.88273 0.77257
vt 1.79886 0.64265
vt 1.85212 0.64264
vt 0.17676 0.97195
vt 0.15636 0.97196
vt 0.16656 0.93460
vt 0.14816 0.98187
vt 0.12777 0.98188
vt 0.13796 0.94452
vt 1.56816 0.94510
vt 1.59515 0.98931
vt 1.56816 0.98931
vt 1.59514 0.94510
vt 1.14816 0.98187
vt 1.13796 0.94452
vt 1.12777 0.98188
vt 1.17676 0.97195
vt 1.16656 0.93460
vt 1.15636 0.97196
vt 1.23263 0.94336
vt 1.27684 0.92607
vt 1.27684 0.94335
vt 1.23263 0.92608
vt 0.46763 0.95722
vt 0.44806 0.97109
vt 0.44805 0.92381
vt 1.46763 0.95722
vt 1.44805 0.92381
vt 1.44806 0.97109
vt 1.23263 0.91474
vt 1.27683 0.88774
vt 1.27684 0.91473
vt 1.23262 0.88775
vt 1.54338 0.94384
vt 1.56065 0.98806
vt 1.54337 0.98805
vt 1.56065 0.94384
vt 1.30507 0.94107
vt 1.33206 0.98528
vt 1.30507 0.98528
vt 1.33205 0.94107
vt 0.45609 0.75410
vt 0.36035 0.75412
vt 0.42590 0.72346
vt 0.45649 0.72387
vt 0.37221 0.68238
vt 0.42462 0.59358
vt 0.36243 0.66593
vt 0.36174 0.59419
vt 1.42590 0.72346
vt 1.36035 0.75412
vt 1.45609 0.75410
vt 1.45649 0.72387
vt 1.37221 0.68238
vt 1.42462 0.59358
vt 1.36243 0.66593
vt 1.36174 0.59419
vt 0.90940 0.91351
vt 0.95674 0.96100
vt 0.90941 0.96100
vt 0.95674 0.91351
vt 0.35082 0.89924
vt 0.39815 0.94673
vt 0.35082 0.94673
vt 0.39816 0.89924
vt 0.13154 0.78890
vt 0.07128 0.62376
vt 0.13154 0.62376
vt 0.07128 0.78890
vt 0.07057 0.94070
vt 0.09757 0.98491
vt 0.07058 0.98492
vt 0.09756 0.94070
vt 0.14302 0.72060
vt 0.14302 0.76508
vt 0.14302 0.67612
vt 0.00194 0.78890
vt 0.00194 0.62376
vt 0.56816 0.94510
vt 0.59515 0.98931
vt 0.56816 0.98931
vt 0.59514 0.94510
vt 0.63679 0.98875
vt 0.65738 0.94454
vt 0.65737 0.98875
vt 0.63679 0.94454
vt 0.23263 0.94336
vt 0.27684 0.92607
vt 0.27684 0.94335
vt 0.23263 0.92608
vt 0.32887 0.86775
vt 0.28410 0.82675
vt 0.32887 0.80145
vt 0.28410 0.87123
vt 0.81146 0.35600
vt 0.64633 0.47931
vt 0.64632 0.35601
vt 0.81146 0.47930
vt 0.66498 0.65230
vt 0.79283 0.65229
vt 0.77913 0.80755
vt 0.72024 0.66006
vt 0.78653 0.66006
vt 0.78653 0.80755
vt 0.72547 0.80755
vt 0.77913 0.81795
vt 0.72547 0.81795
vt 0.72024 0.80755
vt 0.71557 0.80755
vt 0.66150 0.80755
vt 0.65394 0.66007
vt 0.65395 0.80755
vt 0.71557 0.81795
vt 0.66150 0.81795
vt 0.54338 0.94384
vt 0.56065 0.98806
vt 0.54337 0.98805
vt 0.56065 0.94384
vt 0.30507 0.94107
vt 0.33206 0.98528
vt 0.30507 0.98528
vt 0.33206 0.94107
vt 0.23263 0.91474
vt 0.27683 0.88774
vt 0.27684 0.91473
vt 0.23262 0.88775
vt 0.66348 0.07107
vt 0.74896 0.00325
vt 0.79798 0.05229
vt 0.68870 0.00325
vt 0.79797 0.17558
vt 0.66348 0.17557
vt 0.78278 0.34891
vt 0.67865 0.34890
vt 0.85167 0.00515
vt 0.93714 0.07297
vt 0.80264 0.05418
vt 0.91193 0.00515
vt 0.80265 0.17747
vt 0.93714 0.17747
vt 0.92196 0.35080
vt 0.81784 0.35080
vt 0.34601 0.93752
vt 0.29173 0.88426
vt 0.34602 0.87123
vt 0.29172 0.93160
vt 0.72881 0.95578
vt 0.70924 0.96966
vt 0.70923 0.92238
vt 1.72881 0.95578
vt 1.70923 0.92238
vt 1.70924 0.96966
vt 0.36826 0.29340
vt 0.29922 0.15919
vt 0.37658 0.15918
vt 0.38596 0.00556
vt 0.28982 0.00556
vt 0.30756 0.29340
vt 0.33792 0.44404
vt 0.20749 0.15793
vt 0.28468 0.01181
vt 0.28466 0.16326
vt 0.18877 0.00517
vt 0.21000 0.29238
vt 0.27056 0.29657
vt 0.23866 0.44838
vt 0.19682 0.44548
vt 0.16495 0.15638
vt 0.16246 0.29084
vt 0.08778 0.16172
vt 0.08773 0.01028
vt 0.18364 0.00361
vt 0.10190 0.29503
vt 0.13382 0.44684
vt 0.17567 0.44393
vt 0.35054 0.97333
vt 0.34701 0.95283
vt 0.35053 0.95239
vt 0.34701 0.97289
vt 1.34701 0.95283
vt 1.35054 0.97333
vt 1.35053 0.95239
vt 1.34701 0.97289
vt 0.42082 0.45476
vt 0.36989 0.30680
vt 0.40470 0.30816
vt 0.36989 0.58545
vt 0.41822 0.52101
vt 0.47456 0.46993
vt 0.47270 0.51722
vt 0.41562 0.58725
vt 0.46197 0.54804
vt 0.46023 0.59249
vt 0.78358 0.00503
vt 0.78670 0.02855
vt 0.78358 0.03166
vt 0.78670 0.00815
vt 0.81720 0.95229
vt 0.81408 0.97580
vt 0.81408 0.94917
vt 0.81720 0.97268
vt 0.67803 0.91464
vt 0.67802 0.92088
vt 0.67491 0.91776
vt 0.70202 0.91465
vt 0.70202 0.92088
vt 0.70514 0.91777
vt 0.70514 0.94440
vt 0.70514 0.89114
vt 0.70202 0.94128
vt 0.67490 0.94439
vt 0.67802 0.94128
vt 0.70202 0.89425
vt 0.67491 0.89113
vt 0.67803 0.89425
vt 1.81408 0.97580
vt 1.81720 0.95229
vt 1.81408 0.94917
vt 1.81720 0.97268
vt 1.67803 0.91464
vt 1.67491 0.91776
vt 1.67802 0.92088
vt 1.70202 0.91465
vt 1.70202 0.92088
vt 1.70514 0.91777
vt 1.70513 0.94440
vt 1.70514 0.89114
vt 1.70202 0.94128
vt 1.67490 0.94439
vt 1.67802 0.94128
vt 1.70202 0.89425
vt 1.67491 0.89113
vt 1.67803 0.89425
vt 1.78670 0.02855
vt 1.78358 0.00503
vt 1.78358 0.03166
vt 1.78670 0.00815
vt 0.00194 0.44834
vt 0.08265 0.21398
vt 0.05709 0.44618
vt 0.00200 0.00696
vt 0.07855 0.10905
vt 0.07444 0.00413
vt 0.03245 0.97462
vt 0.03775 0.95313
vt 0.03775 0.97462
vt 0.03244 0.95313
vt 1.03245 0.97462
vt 1.03775 0.95313
vt 1.03244 0.95313
vt 1.03775 0.97462
vt 0.30641 0.57457
vt 0.27346 0.31128
vt 0.30641 0.31128
vt 0.26312 0.57457
vt 0.76261 0.01225
vt 0.76791 0.00509
vt 0.76791 0.01225
vt 0.76261 0.00509
vt 0.10734 0.34626
vt 0.07439 0.60955
vt 0.07439 0.34626
vt 0.11767 0.60955
vt 1.76791 0.01225
vt 1.76791 0.00509
vt 1.76261 0.01225
vt 1.76261 0.00509
vt 0.77405 0.02364
vt 0.77757 0.00314
vt 0.77758 0.02408
vt 0.77405 0.00358
vt 1.77757 0.00314
vt 1.77405 0.02364
vt 1.77758 0.02408
vt 1.77405 0.00358
vt 0.00195 0.89862
vt 0.04616 0.91725
vt 0.00195 0.91724
vt 0.04616 0.89862
vt 0.33748 0.97275
vt 0.33748 0.94182
vt 0.34352 0.97276
vt 0.34352 0.94182
vt 1.34352 0.97276
vt 1.33748 0.94182
vt 1.33748 0.97275
vt 1.34352 0.94182
vt 0.05914 0.96924
vt 0.06444 0.97954
vt 0.05914 0.97954
vt 0.06444 0.96924
vt 0.05914 0.95894
vt 0.06444 0.95894
vt 0.06444 0.94864
vt 0.05914 0.94864
vt 1.06444 0.97954
vt 1.05914 0.96924
vt 1.05914 0.97954
vt 1.06444 0.96924
vt 1.05914 0.95894
vt 1.06444 0.95894
vt 1.06444 0.94864
vt 1.05914 0.94864
vt 0.30177 0.95535
vt 0.28219 0.96923
vt 0.28219 0.92194
vt 1.30177 0.95535
vt 1.28219 0.92194
vt 1.28219 0.96923
vt 0.48700 0.00495
vt 0.40024 0.15610
vt 0.39086 0.00495
vt 0.47760 0.15611
vt 0.46927 0.28990
vt 0.40856 0.28990
vt 0.43891 0.44203
vt 0.65704 0.07750
vt 0.49190 0.00516
vt 0.65704 0.00515
vt 0.49190 0.07751
vt 0.49191 0.18201
vt 0.65705 0.18200
vt 0.51057 0.35500
vt 0.63842 0.35499
vt 0.80795 0.98095
vt 0.80265 0.97074
vt 0.80795 0.97074
vt 0.80265 0.98095
vt 0.80265 0.96054
vt 0.80795 0.96054
vt 0.80795 0.95033
vt 0.80264 0.95033
vt 1.80265 0.96054
vt 1.80795 0.96054
vt 1.80795 0.95033
vt 1.80264 0.95033
vt 1.80795 0.97074
vt 1.80265 0.97074
vt 1.80795 0.98095
vt 1.80265 0.98095
vt 0.96057 0.77339
vt 0.90752 0.64800
vt 0.96060 0.64351
vt 0.90750 0.77788
vt 1.96057 0.77339
vt 1.90752 0.64800
vt 1.90750 0.77788
vt 1.96060 0.64351
vt 0.54124 0.36149
vt 0.47855 0.62478
vt 0.47855 0.36149
vt 0.54124 0.62478
vt 0.60393 0.36149
vt 0.60393 0.62478
vt 0.17543 0.89294
vt 0.22869 0.94620
vt 0.17543 0.94620
vt 0.22869 0.89294
vt 0.77024 0.94215
vt 0.77024 0.87927
vt 0.82350 0.87927
vt 0.82350 0.94215
vt 1.22869 0.94620
vt 1.22869 0.89294
vt 1.17543 0.89294
vt 1.17543 0.94620
vt 1.82350 0.87927
vt 1.77024 0.87927
vt 1.77024 0.94215
vt 1.82350 0.94215
vt 1.95040 0.00476
vt 1.94753 0.01080
vt 1.94753 0.00475
vt 1.95040 0.01080
vt 0.95040 0.00476
vt 0.94753 0.01080
vt 0.94753 0.00475
vt 0.95040 0.01080
vt 0.13947 0.48145
vt 0.15048 0.45049
vt 0.18088 0.45049
vt 0.13792 0.46424
vt 0.14338 0.52464
vt 0.12448 0.51648
vt 0.12205 0.48960
vt 0.14581 0.55151
vt 0.18088 0.66069
vt 0.13379 0.58655
vt 0.13136 0.55967
vt 0.14971 0.59470
vt 0.15215 0.62158
vt 0.16087 0.66069
vt 0.14582 0.64694
vt 0.14426 0.62973
vt 0.20498 0.66089
vt 0.21370 0.62178
vt 0.22002 0.64714
vt 0.22158 0.62993
vt 0.18496 0.66089
vt 0.21613 0.59490
vt 0.22004 0.55171
vt 0.23206 0.58674
vt 0.23449 0.55987
vt 0.18496 0.45069
vt 0.22247 0.52483
vt 0.22637 0.48165
vt 0.24137 0.51668
vt 0.24380 0.48980
vt 0.21537 0.45069
vt 0.22793 0.46444
vt 0.73733 0.97814
vt 0.76019 0.95174
vt 0.75688 0.97813
vt 0.73401 0.95175
vt 1.76019 0.95174
vt 1.73401 0.95175
vt 1.73733 0.97814
vt 1.75688 0.97813
vt 0.29148 0.58251
vt 0.23834 0.73888
vt 0.23835 0.57886
vt 0.29148 0.74253
vt 1.29148 0.74253
vt 1.29148 0.58251
vt 1.23834 0.73888
vt 1.23835 0.57886
vt 0.61010 0.86636
vt 0.61010 0.79787
vt 0.65449 0.82277
vt 0.64274 0.86862
vt 0.84857 0.93462
vt 0.82934 0.97883
vt 0.82933 0.93462
vt 0.84858 0.97883
vt 0.90804 0.86267
vt 0.86365 0.81907
vt 0.90804 0.79418
vt 0.87540 0.86492
vt 1.14972 0.59470
vt 1.18088 0.66069
vt 1.15215 0.62158
vt 1.16087 0.66069
vt 1.14582 0.64694
vt 1.14427 0.62973
vt 1.14581 0.55151
vt 1.13379 0.58655
vt 1.13136 0.55967
vt 1.18088 0.45049
vt 1.14338 0.52464
vt 1.13947 0.48145
vt 1.12448 0.51648
vt 1.12205 0.48960
vt 1.15048 0.45049
vt 1.13792 0.46424
vt 1.22004 0.55171
vt 1.18496 0.66089
vt 1.18496 0.45069
vt 1.23206 0.58674
vt 1.23449 0.55987
vt 1.21613 0.59490
vt 1.21370 0.62178
vt 1.20498 0.66089
vt 1.22002 0.64714
vt 1.22158 0.62993
vt 1.22247 0.52483
vt 1.22637 0.48165
vt 1.24137 0.51668
vt 1.24380 0.48980
vt 1.21537 0.45069
vt 1.22793 0.46444
vt 1.31079 0.65792
vt 1.31079 0.44772
vt 1.35500 0.65792
vt 1.35500 0.44772
vt 0.00194 0.94765
vt 0.04615 0.94765
vt 0.20733 0.95218
vt 0.20401 0.97856
vt 0.18115 0.95218
vt 0.18446 0.97856
vt 1.18115 0.95218
vt 1.20401 0.97856
vt 1.20733 0.95218
vt 1.18446 0.97856
vt 0.21518 0.95450
vt 0.21165 0.97500
vt 0.21165 0.95494
vt 0.21518 0.97544
vt 1.21165 0.97500
vt 1.21518 0.95450
vt 1.21165 0.95494
vt 1.21518 0.97544
vt 0.52240 0.97017
vt 0.53245 0.92861
vt 0.53245 0.97286
vt 0.52240 0.92593
vt 0.78507 0.98064
vt 0.77977 0.95000
vt 0.78508 0.95000
vt 0.77977 0.98064
vt 1.77977 0.95000
vt 1.78507 0.98064
vt 1.78508 0.95000
vt 1.77977 0.98064
vt 0.97284 0.95344
vt 0.96278 0.91178
vt 0.97284 0.90911
vt 0.96279 0.95612
vt 0.81790 0.36001
vt 0.88441 0.35967
vt 0.82168 0.36853
vt 0.81808 0.63849
vt 0.88441 0.36829
vt 0.82185 0.63184
vt 0.94714 0.36851
vt 0.88450 0.63885
vt 0.95093 0.35996
vt 0.88450 0.63209
vt 0.95092 0.63845
vt 0.94714 0.63180
vt 0.04961 0.97274
vt 0.05313 0.95224
vt 0.05313 0.97318
vt 0.04960 0.95268
vt 1.05313 0.95224
vt 1.04961 0.97274
vt 1.05313 0.97318
vt 1.04960 0.95268
vt 0.82171 0.01828
vt 0.82171 0.00899
vt 0.82701 0.00899
vt 0.82701 0.01828
vt 0.81557 0.00199
vt 0.81558 0.01128
vt 0.81027 0.01128
vt 0.81027 0.00199
vt 0.81027 0.02057
vt 0.81558 0.02057
vt 0.81028 0.02986
vt 0.81558 0.02986
vt 1.81027 0.02057
vt 1.81027 0.02986
vt 1.81558 0.02057
vt 1.81558 0.02986
vt 1.81557 0.01128
vt 1.81027 0.01128
vt 1.81557 0.00199
vt 1.81027 0.00199
vt 1.82701 0.00899
vt 1.82171 0.01828
vt 1.82701 0.01828
vt 1.82171 0.00899
vt 0.77246 0.98090
vt 0.76642 0.94996
vt 0.77247 0.94996
vt 0.76642 0.98090
vt 0.31079 0.65792
vt 0.31079 0.44772
vt 0.35500 0.65792
vt 0.35500 0.44772
vt 0.79651 0.98000
vt 0.79121 0.94939
vt 0.79651 0.94939
vt 0.79121 0.98000
vt 1.79651 0.98000
vt 1.79121 0.94939
vt 1.79121 0.98000
vt 1.79651 0.94939
vt 0.65585 0.90444
vt 0.65585 0.93107
vt 1.65585 0.93107
vt 1.65585 0.90444
vt 0.35273 0.82764
vt 0.39850 0.89394
vt 0.35273 0.89394
vt 0.39850 0.82764
vt 0.43776 0.87213
vt 0.35273 0.76135
vt 0.43776 0.82764
vt 0.39850 0.76135
vt 0.43776 0.78316
vt 0.68007 0.94661
vt 0.66348 0.99082
vt 0.66348 0.94660
vt 0.68007 0.99082
vt 0.91703 0.84307
vt 0.96031 0.90576
vt 0.91703 0.90576
vt 0.96031 0.84307
vt 0.91703 0.78038
vt 0.96031 0.78038
vt 0.90368 0.96662
vt 0.92655 0.99301
vt 0.90700 0.99301
vt 0.92986 0.96662
vt 1.92655 0.99301
vt 1.90368 0.96662
vt 1.90700 0.99301
vt 1.92986 0.96662
vt 0.52694 0.66072
vt 0.55713 0.63008
vt 0.55754 0.66030
vt 0.46140 0.63006
vt 0.47326 0.70180
vt 0.52567 0.79059
vt 0.46348 0.71825
vt 0.46279 0.78999
vt 1.52694 0.66072
vt 1.55713 0.63008
vt 1.46140 0.63006
vt 1.55754 0.66030
vt 1.47326 0.70180
vt 1.52567 0.79059
vt 1.46348 0.71825
vt 1.46279 0.78999
vt 1.01726 0.98076
vt 1.00817 0.95046
vt 1.01103 0.95046
vt 1.00194 0.98076
vt 0.41997 0.96629
vt 0.40039 0.95242
vt 0.41996 0.91901
vt 1.41997 0.96629
vt 1.41996 0.91901
vt 1.40039 0.95242
vt 0.96227 0.96783
vt 0.93941 0.99422
vt 0.93609 0.96783
vt 0.95896 0.99422
vt 1.93941 0.99422
vt 1.95896 0.99422
vt 1.96227 0.96783
vt 1.93609 0.96783
vt 0.64820 0.63118
vt 0.61766 0.66147
vt 0.56434 0.63134
vt 0.64826 0.66141
vt 0.56438 0.79136
vt 0.61764 0.79135
vt 1.61766 0.66147
vt 1.64820 0.63118
vt 1.56434 0.63134
vt 1.64826 0.66141
vt 1.56438 0.79136
vt 1.61764 0.79135
vt 0.90617 0.91777
vt 0.89606 0.87149
vt 0.90618 0.86906
vt 0.89606 0.92021
vt 0.42518 0.93291
vt 0.43529 0.88667
vt 0.43529 0.93535
vt 0.42517 0.88423
vt 0.15688 0.95119
vt 0.13730 0.93731
vt 0.15687 0.90391
vt 1.15688 0.95119
vt 1.15687 0.90391
vt 1.13730 0.93731
vt 0.51719 0.97115
vt 0.49762 0.95728
vt 0.51719 0.92387
vt 1.51719 0.97115
vt 1.51719 0.92387
vt 1.49762 0.95728
vt 0.65871 0.82575
vt 0.70372 0.87161
vt 0.65394 0.89408
vt 0.69142 0.82574
vt 0.79787 0.87343
vt 0.84288 0.82757
vt 0.83058 0.87344
vt 0.79311 0.80511
vt 0.68635 0.98273
vt 0.69676 0.94671
vt 0.69676 0.98273
vt 0.68635 0.94671
vt 0.80352 0.00458
vt 0.79311 0.04060
vt 0.79311 0.00458
vt 0.80352 0.04060
vt 0.94181 0.06818
vt 0.97241 0.04155
vt 0.97241 0.06818
vt 0.94181 0.01491
vt 0.97241 0.01491
vt 0.72829 0.94378
vt 0.75889 0.91715
vt 0.75889 0.94378
vt 0.72829 0.89052
vt 0.75889 0.89052
vt 1.94181 0.01491
vt 1.97241 0.04155
vt 1.97241 0.01491
vt 1.94181 0.06818
vt 1.97241 0.06818
vt 1.72829 0.89052
vt 1.75889 0.91715
vt 1.75889 0.89052
vt 1.72829 0.94378
vt 1.75889 0.94378
vt 0.49241 0.97197
vt 0.47283 0.95810
vt 0.49241 0.92469
vt 1.49241 0.97197
vt 1.49241 0.92469
vt 1.47283 0.95810
vt 0.38895 0.97582
vt 0.39207 0.95231
vt 0.39207 0.97271
vt 0.38895 0.94919
vt 0.10609 0.91949
vt 0.13009 0.91325
vt 0.13009 0.91949
vt 0.10609 0.91325
vt 0.10297 0.91637
vt 0.13320 0.91637
vt 0.13009 0.93988
vt 0.13009 0.89286
vt 0.13320 0.94300
vt 0.10297 0.94300
vt 0.10609 0.93988
vt 0.13320 0.88974
vt 0.10297 0.88974
vt 0.10609 0.89286
vt 0.02291 0.97707
vt 0.02291 0.95044
vt 0.02603 0.97396
vt 0.02603 0.95356
vt 1.02291 0.95044
vt 1.02291 0.97707
vt 1.02603 0.97396
vt 1.02603 0.95356
vt 1.13009 0.91325
vt 1.10609 0.91949
vt 1.13009 0.91949
vt 1.10609 0.91325
vt 1.10297 0.91637
vt 1.13321 0.91637
vt 1.13009 0.93988
vt 1.13009 0.89286
vt 1.13321 0.94300
vt 1.10297 0.94300
vt 1.10609 0.93988
vt 1.13321 0.88974
vt 1.10297 0.88974
vt 1.10609 0.89286
vt 1.38895 0.94919
vt 1.38895 0.97582
vt 1.39207 0.95231
vt 1.39207 0.97271
vt 1.00195 0.89862
vt 1.04616 0.91725
vt 1.00195 0.91724
vt 1.04616 0.89862
vt 0.34861 0.79538
vt 0.29556 0.66999
vt 0.34863 0.66550
vt 0.29553 0.79986
vt 1.34861 0.79538
vt 1.29556 0.66999
vt 1.29553 0.79986
vt 1.34863 0.66550
vt 0.08392 0.90306
vt 0.08392 0.92969
vt 1.08392 0.92969
vt 1.08392 0.90306
vt 0.24191 0.95069
vt 0.23364 0.96084
vt 0.23262 0.95069
vt 0.25120 0.95068
vt 0.23467 0.97099
vt 0.25718 0.98114
vt 0.26049 0.95068
vt 0.23569 0.98115
vt 1.25120 0.95068
vt 1.25718 0.98114
vt 1.26049 0.95068
vt 1.23467 0.97099
vt 1.23569 0.98115
vt 1.23364 0.96084
vt 1.24191 0.95069
vt 1.23262 0.95069
vt 0.92847 0.00435
vt 0.93771 0.00528
vt 0.92917 0.01462
vt 0.92987 0.02490
vt 0.93770 0.03589
vt 0.93058 0.03517
vt 1.93771 0.00528
vt 1.92987 0.02490
vt 1.93770 0.03589
vt 1.93058 0.03517
vt 1.92917 0.01462
vt 1.92847 0.00435
vt 0.09808 0.79608
vt 0.00195 0.89223
vt 0.00194 0.79609
vt 0.09809 0.89222
vt 1.84857 0.93462
vt 1.82934 0.97883
vt 1.82933 0.93462
vt 1.84858 0.97883
vt 0.52289 0.97468
vt 0.50334 0.99423
vt 0.50334 0.97468
vt 0.52289 0.99423
vt 1.50334 0.99423
vt 1.52289 0.97468
vt 1.50334 0.97468
vt 1.52289 0.99423
vt 1.68007 0.94661
vt 1.66348 0.99082
vt 1.66348 0.94660
vt 1.68007 0.99082
vt 1.00194 0.94765
vt 1.04615 0.94765
vt 0.01726 0.98076
vt 0.00817 0.95046
vt 0.01103 0.95046
vt 0.00194 0.98076
vn 1.0000 -0.0551 0.0000
vn 0.9134 0.4016 0.0000
vn 0.9370 0.3465 0.0000
vn 0.7717 0.6299 0.0000
vn 0.9843 -0.1968 0.0000
vn 0.9606 0.2756 0.0000
vn 0.8583 0.5197 0.0000
vn 0.9764 0.2126 0.0000
vn -1.0000 0.0000 0.0000
vn -0.9764 -0.2047 0.0000
vn 1.0000 0.0000 0.0000
vn 0.9843 0.1654 0.0000
vn 1.0000 0.0315 0.0000
vn 1.0000 0.0157 0.0000
vn 0.9921 -0.1181 0.0000
vn 0.9921 -0.1024 0.0000
vn 0.7402 0.6772 0.0000
vn -0.9685 0.2362 -0.0079
vn -0.9685 0.2362 0.0000
vn -0.9685 0.2520 -0.0079
vn -0.9685 0.2598 0.0079
vn -0.9685 0.2520 0.0079
vn -0.9685 0.2598 -0.0079
vn -0.9685 0.2441 0.0079
vn -0.9685 0.2362 0.0079
vn 0.8898 0.4567 0.0000
vn -0.2677 0.0000 0.9606
vn -0.2677 0.0000 -0.9606
vn 0.0866 -0.9921 0.0000
vn 0.0000 -1.0000 0.0000
vn -0.7480 0.6535 0.1024
vn -0.7480 0.6614 0.0000
vn -0.7480 0.6535 -0.1024
vn 0.2835 0.9606 0.0000
vn 0.0157 0.0630 1.0000
vn 0.0157 0.0630 -1.0000
vn 0.0000 1.0000 -0.0787
vn 0.0000 1.0000 0.0787
vn 0.0866 0.9921 0.0000
vn 0.0000 1.0000 0.0000
vn -0.7087 -0.7087 0.0000
vn 0.9213 0.3937 0.0000
vn 0.0000 0.4882 0.8740
vn 0.0472 -1.0000 0.0000
vn 0.0866 -1.0000 0.0000
vn -0.1417 0.9921 0.0000
vn -0.1496 0.9921 0.0000
vn 0.0000 0.0000 1.0000
vn 0.0551 0.0000 1.0000
vn 0.1102 0.0000 0.9921
vn 0.0000 0.0000 -1.0000
vn 0.0551 0.0000 -1.0000
vn 0.1102 0.0000 -0.9921
vn 0.0000 0.2362 0.9685
vn 0.1417 0.9921 0.0000
vn 0.2362 0.9685 0.0000
vn 0.2756 0.9606 0.0000
vn 0.0709 1.0000 0.0000
vn 0.0630 -0.0079 1.0000
vn 0.1260 -0.0079 0.9921
vn 0.1181 -0.0079 0.9921
vn 0.1968 -0.0157 0.9764
vn 0.0630 -0.0079 -1.0000
vn 0.1260 -0.0079 -0.9921
vn 0.1181 -0.0079 -0.9921
vn 0.1968 -0.0157 -0.9764
vn -0.1260 0.9921 0.0000
vn 0.0000 0.0236 -1.0000
vn 0.0000 0.0472 -1.0000
vn 0.0000 0.2362 -0.9685
vn 0.0000 0.0866 -1.0000
vn 0.0000 0.4882 -0.8740
vn 0.1496 0.9921 0.0000
vn -0.1260 0.0000 0.9921
vn -0.1260 0.0000 -0.9921
vn -0.6772 0.7402 0.0000
vn 0.0000 -0.2047 0.9764
vn 0.0000 -0.2047 -0.9764
vn 0.0394 0.1654 0.9843
vn 0.0394 0.1654 -0.9843
vn -0.1496 -0.9921 0.0000
vn -0.1102 -0.9921 0.0000
vn -0.0157 -1.0000 0.0000
vn 0.0551 -1.0000 0.0000
vn -0.3465 0.9370 0.0000
vn 0.0472 1.0000 0.0000
vn 0.0866 1.0000 0.0000
vn 0.0236 0.0945 0.9921
vn 0.0236 0.0945 -0.9921
vn 0.1260 0.9921 0.0000
vn -0.0236 0.1496 -0.9921
vn -0.9055 0.4252 0.0000
vn -0.0236 0.1496 0.9921
vn -0.0551 -1.0000 0.0000
vn 0.1260 0.0000 0.9921
vn 0.1260 0.0000 -0.9921
vn 0.0000 -0.1575 0.9843
vn 0.0236 0.1024 -0.9921
vn 0.0236 0.1024 0.9921
vn 0.0000 -0.1732 -0.9843
vn -0.0472 -0.9921 0.1260
vn -0.0945 -0.9921 0.0000
vn 0.0000 -0.9764 0.2283
vn 0.1181 -0.9764 0.1654
vn 0.0787 -0.9685 0.2362
vn 0.0000 -0.9764 -0.2283
vn 0.2126 -0.9764 0.0000
vn -0.0472 -0.9921 -0.1260
vn 0.1181 -0.9764 -0.1654
vn 0.0787 -0.9685 -0.2362
vn -0.1260 -0.9921 0.0000
vn -0.2362 -0.9685 0.0000
vn -0.0236 -0.0945 -0.9921
vn -0.0236 -0.0945 0.9921
vn -0.5906 0.8032 0.0000
vn 1.0000 -0.0315 0.0000
vn 1.0000 -0.0394 0.0000
vn 0.9921 -0.0866 0.0000
vn -0.8740 0.4882 0.0000
vn -0.0157 -0.0630 -1.0000
vn -0.0157 -0.0630 1.0000
vn -0.1968 -0.9843 0.0000
vn -0.6929 0.7165 0.0000
vn 0.1260 -0.9921 0.0000
vn 0.0000 -0.2362 -0.9764
vn 0.0000 -0.2283 0.9764
vn 0.9921 0.1417 0.0157
vn 0.9921 0.1417 -0.0157
vn 0.0000 -0.9921 0.1102
vn 0.0000 -0.9921 -0.1102
vn -0.5197 0.8583 0.0000
vn 0.9764 -0.2047 0.0000
vn 0.9685 -0.2362 0.0000
vn -1.0000 0.0866 0.0000
vn -0.5433 0.8425 0.0000
vn -0.8032 0.5906 0.0000
vn -0.7559 0.6535 0.0000
vn -0.9843 0.1968 0.0000
vn -0.6299 0.7717 0.0000
vn -0.6535 0.7559 0.0000
vn -0.8819 0.4724 0.0000
vn -0.8425 0.5433 0.0000
vn -1.0000 0.0551 0.0000

o animal_crocodile
usemtl tex_animal_crocodile_i055p001x
f 1/1/1 2/2/1 3/3/1
f 4/4/1 2/2/1 1/1/1
f 5/5/2 6/6/2 7/7/2
f 6/6/2 5/5/2 8/8/2
f 9/9/3 10/10/3 11/11/3
f 10/10/3 9/9/3 12/12/3
f 13/13/4 14/14/4 2/2/4
f 2/2/4 4/4/4 13/13/4
f 15/1/5 16/2/5 17/3/5
f 18/4/5 16/2/5 15/1/5
f 19/5/6 20/6/6 21/7/6
f 20/6/6 19/5/6 22/8/6
f 23/13/7 24/14/7 16/2/7
f 16/2/7 18/4/7 23/13/7
f 25/9/8 26/10/8 27/11/8
f 26/10/8 25/9/8 28/12/8
f 29/15/9 30/16/9 31/17/9
f 30/16/9 29/15/9 32/18/9
f 33/19/9 30/16/9 32/18/9
f 34/20/9 30/16/9 33/19/9
f 35/21/9 36/22/9 37/23/9
f 35/21/9 37/23/9 38/24/9
f 39/25/9 40/26/9 41/27/9
f 42/28/9 41/27/9 40/26/9
f 43/26/9 44/25/9 45/27/9
f 43/26/9 45/27/9 46/28/9
f 47/25/9 48/26/9 49/27/9
f 50/28/9 49/27/9 48/26/9
f 51/29/9 52/30/9 53/31/9
f 53/31/9 52/30/9 54/32/9
f 55/33/9 51/29/9 53/31/9
f 56/34/9 51/29/9 55/33/9
f 57/35/9 58/36/9 59/37/9
f 60/38/9 57/35/9 59/37/9
f 58/36/9 57/35/9 61/39/9
f 57/35/9 60/38/9 62/40/9
f 63/41/9 58/36/9 61/39/9
f 60/38/9 64/42/9 62/40/9
f 63/41/9 61/39/9 64/42/9
f 60/38/9 63/41/9 64/42/9
f 65/43/9 66/44/9 67/45/9
f 68/46/9 66/44/9 65/43/9
f 66/44/9 69/47/9 67/45/9
f 70/48/9 68/46/9 65/43/9
f 67/45/9 69/47/9 71/49/9
f 69/47/9 70/48/9 71/49/9
f 72/50/9 68/46/9 70/48/9
f 70/48/9 69/47/9 72/50/9
f 73/51/10 74/52/10 75/53/10
f 74/52/10 73/51/10 76/54/10
f 77/51/10 78/52/10 79/54/10
f 77/51/10 80/53/10 78/52/10
f 81/55/9 82/56/9 83/57/9
f 81/55/9 84/58/9 82/56/9
f 85/59/9 86/60/9 87/61/9
f 88/62/9 85/59/9 87/61/9
f 89/51/10 90/52/10 91/53/10
f 90/52/10 89/51/10 92/54/10
f 93/51/10 94/53/10 95/52/10
f 93/51/10 95/52/10 96/54/10
f 97/63/11 98/64/11 99/65/11
f 100/66/11 98/64/11 97/63/11
f 101/51/10 102/52/10 103/53/10
f 102/52/10 101/51/10 104/54/10
f 105/51/10 106/53/10 107/52/10
f 105/51/10 107/52/10 108/54/10
f 109/67/12 110/68/13 111/69/12
f 109/67/12 112/70/14 110/68/13
f 112/70/14 113/71/15 110/68/13
f 113/71/15 112/70/14 114/72/16
f 114/72/16 115/73/11 113/71/15
f 114/72/16 116/74/11 115/73/11
f 117/75/14 118/76/15 119/77/16
f 118/76/15 120/78/11 119/77/16
f 120/78/11 121/79/11 119/77/16
f 118/76/15 117/75/14 122/80/13
f 122/80/13 117/75/14 123/81/12
f 124/82/12 122/80/13 123/81/12
f 125/83/11 126/84/11 127/85/11
f 126/84/11 125/83/11 128/86/11
f 129/87/17 130/88/17 126/84/17
f 126/84/17 128/86/17 129/87/17
f 131/89/18 132/90/19 133/91/19
f 133/91/19 134/92/18 131/89/18
f 134/92/18 135/93/20 131/89/18
f 131/89/18 135/93/20 136/94/20
f 137/95/21 136/94/20 135/93/20
f 136/94/20 137/95/21 138/96/21
f 139/97/22 140/98/23 137/99/23
f 137/99/23 141/100/24 139/97/22
f 141/100/24 142/101/25 139/97/22
f 141/100/24 143/102/25 142/101/25
f 144/103/19 142/101/25 143/102/25
f 142/101/25 144/103/19 145/104/19
f 146/105/19 147/106/19 148/107/19
f 149/108/19 147/106/19 146/105/19
f 147/106/19 149/108/19 150/109/19
f 150/109/19 149/108/19 151/110/19
f 152/111/19 153/112/19 154/113/19
f 153/112/19 152/111/19 155/114/19
f 156/115/19 155/114/19 152/111/19
f 155/114/19 156/115/19 157/116/19
f 158/117/19 159/118/19 160/119/19
f 158/117/19 161/120/19 159/118/19
f 162/121/19 161/120/19 158/117/19
f 161/120/19 162/121/19 163/122/19
f 163/122/19 162/121/19 164/123/19
f 161/120/19 163/122/19 165/124/19
f 166/125/19 167/126/19 168/127/19
f 169/128/19 167/126/19 166/125/19
f 169/128/19 166/125/19 170/129/19
f 171/130/19 167/126/19 169/128/19
f 167/126/19 171/130/19 172/131/19
f 171/130/19 173/132/19 172/131/19
f 174/51/10 175/52/10 176/53/10
f 175/52/10 174/51/10 177/54/10
f 178/51/10 179/53/10 180/52/10
f 178/51/10 180/52/10 181/54/10
f 182/133/20 183/134/20 184/135/20
f 182/133/20 184/135/20 185/136/20
f 186/137/22 187/138/22 188/139/22
f 187/138/22 186/137/22 189/140/22
f 190/141/26 191/142/26 192/143/26
f 191/142/26 190/141/26 193/144/26
f 194/145/27 195/146/27 196/147/27
f 197/148/28 198/149/28 199/150/28
f 200/151/29 201/152/29 202/153/29
f 203/154/29 204/155/29 205/156/29
f 206/157/29 207/158/29 208/159/29
f 209/160/29 210/161/29 211/162/29
f 212/163/30 213/164/30 214/165/30
f 212/163/30 215/166/30 213/164/30
f 215/166/30 212/163/30 216/167/30
f 217/168/30 111/169/30 218/170/30
f 217/168/30 109/171/30 111/169/30
f 109/171/30 217/168/30 219/172/30
f 220/173/30 221/174/30 222/175/30
f 221/174/30 220/173/30 223/176/30
f 224/177/30 223/176/30 220/173/30
f 225/178/30 123/179/30 226/180/30
f 123/179/30 225/178/30 124/181/30
f 227/182/30 124/181/30 225/178/30
f 228/183/31 229/184/32 230/185/31
f 229/184/32 228/183/31 231/186/32
f 232/187/33 229/184/32 231/186/32
f 233/188/33 229/184/32 232/187/33
f 26/189/34 234/190/34 27/191/34
f 26/189/34 235/192/34 234/190/34
f 214/193/35 213/194/35 236/195/35
f 214/193/35 236/195/35 237/196/35
f 238/197/35 236/195/35 213/194/35
f 236/195/35 238/197/35 239/198/35
f 224/199/36 240/200/36 223/201/36
f 240/200/36 224/199/36 241/202/36
f 242/203/36 223/201/36 240/200/36
f 242/203/36 240/200/36 243/204/36
f 244/205/29 194/206/29 196/207/29
f 245/208/29 246/209/29 247/210/29
f 20/211/34 248/212/34 21/213/34
f 20/211/34 249/214/34 248/212/34
f 250/215/29 251/216/29 252/217/29
f 253/218/29 198/219/29 197/220/29
f 23/221/34 254/222/34 24/223/34
f 255/224/34 254/222/34 23/221/34
f 246/225/27 256/226/27 247/227/27
f 252/228/28 251/229/28 257/230/28
f 258/231/34 19/232/34 259/233/34
f 258/231/34 22/234/34 19/232/34
f 260/235/34 261/236/34 262/237/34
f 263/238/34 261/236/34 260/235/34
f 264/239/34 25/240/34 265/241/34
f 264/239/34 28/242/34 25/240/34
f 218/243/35 111/244/35 266/245/35
f 218/243/35 266/245/35 267/246/35
f 266/245/35 111/244/35 110/247/35
f 268/248/35 266/245/35 110/247/35
f 113/249/35 268/248/35 110/247/35
f 268/248/35 113/249/35 115/250/35
f 269/251/36 124/252/36 227/253/36
f 270/254/36 269/251/36 227/253/36
f 124/252/36 269/251/36 122/255/36
f 271/256/36 122/255/36 269/251/36
f 122/255/36 271/256/36 118/257/36
f 118/257/36 271/256/36 120/258/36
f 272/259/37 134/260/37 273/261/37
f 135/262/37 134/260/37 272/259/37
f 274/263/38 141/264/38 275/265/38
f 274/263/38 143/266/38 141/264/38
f 276/267/9 277/268/9 278/269/9
f 279/270/9 277/268/9 276/267/9
f 280/271/39 281/272/39 282/273/39
f 280/271/39 283/274/39 281/272/39
f 284/275/40 228/183/40 285/276/40
f 231/186/40 228/183/40 284/275/40
f 286/277/40 231/186/40 284/275/40
f 286/277/40 232/187/40 231/186/40
f 287/278/41 288/279/41 277/268/41
f 277/268/41 279/270/41 287/278/41
f 191/280/39 289/281/39 192/282/39
f 191/280/39 290/283/39 289/281/39
f 291/284/42 280/285/42 282/286/42
f 280/285/42 291/284/42 292/287/42
f 129/288/39 293/289/39 130/290/39
f 294/291/39 293/289/39 129/288/39
f 295/292/43 228/293/43 230/294/43
f 228/293/43 295/292/43 285/295/43
f 287/296/30 296/297/44 288/298/30
f 287/296/30 297/299/44 296/297/44
f 297/299/44 99/300/45 296/297/44
f 297/299/44 97/301/45 99/300/45
f 132/302/46 32/303/47 29/304/47
f 133/305/47 132/302/46 29/304/47
f 32/303/47 132/302/46 138/306/46
f 138/306/46 132/302/46 184/307/40
f 184/307/40 183/308/40 138/306/46
f 32/303/47 138/306/46 137/309/47
f 32/303/47 137/309/47 140/310/46
f 145/311/46 32/303/47 140/310/46
f 145/311/46 33/312/47 32/303/47
f 33/312/47 145/311/46 144/313/47
f 145/311/46 140/310/46 188/314/40
f 188/314/40 187/315/40 145/311/46
f 298/316/39 299/317/39 300/318/39
f 301/319/39 299/317/39 298/316/39
f 302/320/39 291/321/39 303/322/39
f 302/320/39 292/323/39 291/321/39
f 304/324/39 190/325/39 305/326/39
f 304/324/39 193/327/39 190/325/39
f 306/328/48 277/329/48 288/330/48
f 277/329/48 306/328/48 278/331/48
f 296/332/49 306/328/48 288/330/48
f 306/328/48 296/332/49 307/333/49
f 296/332/49 99/334/50 307/333/49
f 99/334/50 98/335/50 307/333/49
f 279/336/51 308/337/51 287/338/51
f 308/337/51 279/336/51 276/339/51
f 287/338/51 308/337/51 297/340/52
f 308/337/51 309/341/52 297/340/52
f 100/342/53 297/340/52 309/341/52
f 297/340/52 100/342/53 97/343/53
f 230/344/54 134/345/54 133/346/54
f 134/345/54 230/344/54 273/347/54
f 201/348/27 310/349/27 202/350/27
f 211/351/28 210/352/28 311/353/28
f 312/354/55 313/355/56 314/356/56
f 313/355/56 315/357/57 314/356/56
f 313/355/56 316/358/57 315/357/57
f 313/355/56 312/354/55 317/359/55
f 312/354/55 318/360/58 317/359/55
f 314/361/59 319/362/59 320/363/59
f 319/362/59 314/361/59 315/364/59
f 320/363/59 312/365/60 314/361/59
f 312/365/60 320/363/59 321/366/61
f 321/366/61 322/367/62 312/365/60
f 318/368/62 312/365/60 322/367/62
f 313/369/63 317/370/64 323/371/63
f 324/372/63 313/369/63 323/371/63
f 313/369/63 324/372/63 316/373/63
f 325/374/65 323/371/63 317/370/64
f 317/370/64 322/375/66 325/374/65
f 322/375/66 317/370/64 318/376/66
f 61/377/67 84/378/67 64/379/67
f 84/378/67 61/377/67 82/380/67
f 86/381/67 65/382/67 67/383/67
f 65/382/67 86/381/67 85/384/67
f 144/385/68 34/386/51 33/387/51
f 34/386/51 144/385/68 326/388/51
f 326/388/51 144/385/68 233/389/69
f 233/389/69 144/385/68 143/390/70
f 143/390/70 274/391/70 233/389/69
f 233/389/69 327/392/71 326/388/51
f 327/392/71 233/389/69 232/393/72
f 232/393/72 286/394/72 327/392/71
f 214/395/9 244/396/9 212/397/9
f 244/396/9 214/395/9 194/398/9
f 246/399/9 216/400/9 212/401/9
f 216/400/9 246/399/9 245/402/9
f 244/403/9 246/404/9 212/405/9
f 328/406/9 246/404/9 244/403/9
f 246/404/9 328/406/9 256/407/9
f 328/406/9 329/408/9 256/407/9
f 330/409/9 256/407/9 329/408/9
f 328/406/9 237/410/9 329/408/9
f 256/407/9 330/409/9 331/411/9
f 330/409/9 216/412/9 331/411/9
f 331/411/9 216/412/9 245/413/9
f 237/410/9 328/406/9 195/414/9
f 214/415/9 237/410/9 195/414/9
f 214/415/9 195/414/9 194/416/9
f 222/417/9 252/418/9 220/419/9
f 252/418/9 222/417/9 250/420/9
f 253/421/9 220/422/9 252/423/9
f 332/424/9 253/421/9 252/423/9
f 332/424/9 252/423/9 257/425/9
f 332/424/9 257/425/9 333/426/9
f 257/425/9 334/427/9 333/426/9
f 241/428/9 332/424/9 333/426/9
f 334/427/9 257/425/9 335/429/9
f 222/430/9 334/427/9 335/429/9
f 222/430/9 335/429/9 250/431/9
f 332/424/9 241/428/9 199/432/9
f 241/428/9 224/433/9 199/432/9
f 199/432/9 224/433/9 197/434/9
f 253/435/9 224/436/9 220/437/9
f 224/436/9 253/435/9 197/438/9
f 31/439/48 133/440/48 29/441/48
f 336/442/48 133/440/48 31/439/48
f 133/440/48 336/442/48 230/443/48
f 230/443/48 336/442/48 295/444/48
f 73/26/48 75/25/48 337/27/48
f 337/27/48 338/28/48 73/26/48
f 174/26/48 176/25/48 339/27/48
f 339/27/48 340/28/48 174/26/48
f 341/28/48 103/25/48 342/27/48
f 103/25/48 341/28/48 101/26/48
f 77/26/51 343/27/51 80/25/51
f 344/28/51 343/27/51 77/26/51
f 106/25/51 345/28/51 346/27/51
f 345/28/51 106/25/51 105/26/51
f 178/26/51 347/27/51 179/25/51
f 348/28/51 347/27/51 178/26/51
f 349/28/48 91/25/48 350/27/48
f 91/25/48 349/28/48 89/26/48
f 94/25/51 351/28/51 352/27/51
f 351/28/51 94/25/51 93/26/51
f 353/445/56 163/446/56 164/447/56
f 163/446/56 353/445/56 354/448/56
f 355/449/56 166/450/56 356/451/56
f 170/452/56 166/450/56 355/449/56
f 357/453/48 54/454/48 52/455/48
f 54/454/48 357/453/48 358/456/48
f 359/457/56 150/458/56 151/459/56
f 150/458/56 359/457/56 360/460/56
f 55/461/51 361/462/51 56/463/51
f 55/461/51 362/464/51 361/462/51
f 157/465/56 156/466/56 363/467/56
f 363/467/56 156/466/56 364/468/56
f 10/189/73 365/190/73 11/191/73
f 10/189/73 366/192/73 365/190/73
f 6/211/73 367/212/73 7/213/73
f 6/211/73 368/214/73 367/212/73
f 84/469/74 62/470/74 64/471/74
f 62/470/74 84/469/74 81/472/74
f 71/473/75 86/474/75 67/475/75
f 86/474/75 71/473/75 87/476/75
f 13/221/73 369/222/73 14/223/73
f 370/224/73 369/222/73 13/221/73
f 299/477/76 371/478/76 372/479/76
f 371/478/76 299/477/76 301/480/76
f 373/239/73 9/240/73 374/241/73
f 373/239/73 12/242/73 9/240/73
f 375/231/73 5/232/73 376/233/73
f 375/231/73 8/234/73 5/232/73
f 377/235/73 378/236/73 379/237/73
f 380/238/73 378/236/73 377/235/73
f 381/481/77 382/482/77 37/483/77
f 37/483/77 382/482/77 38/484/77
f 41/485/78 383/486/78 384/487/78
f 383/486/78 41/485/78 42/488/78
f 385/489/79 148/490/79 386/491/79
f 148/490/79 385/489/79 146/492/79
f 387/493/79 146/492/79 385/489/79
f 146/492/79 387/493/79 149/494/79
f 151/495/79 149/494/79 387/493/79
f 387/493/79 359/496/79 151/495/79
f 154/497/80 388/498/80 389/499/80
f 388/498/80 154/497/80 153/500/80
f 153/500/80 390/501/80 388/498/80
f 390/501/80 153/500/80 155/502/80
f 390/501/80 155/502/80 157/503/80
f 363/504/80 390/501/80 157/503/80
f 204/505/27 391/506/27 205/507/27
f 208/508/28 207/509/28 392/510/28
f 324/511/81 320/512/82 319/513/81
f 324/511/81 323/514/82 320/512/82
f 325/515/83 320/512/82 323/514/82
f 320/512/82 325/515/83 321/516/83
f 322/517/84 321/516/83 325/515/83
f 306/518/46 276/519/85 278/520/85
f 276/519/85 306/518/46 308/521/46
f 309/522/86 308/521/46 306/518/46
f 309/522/86 306/518/46 307/523/86
f 100/524/87 309/522/86 307/523/86
f 100/524/87 307/523/86 98/525/87
f 160/526/88 393/527/88 158/528/88
f 393/527/88 160/526/88 394/529/88
f 395/530/88 158/528/88 393/527/88
f 158/528/88 395/530/88 162/531/88
f 164/532/88 162/531/88 395/530/88
f 395/530/88 353/533/88 164/532/88
f 396/534/89 169/535/89 170/536/89
f 355/537/89 396/534/89 170/536/89
f 396/534/89 171/538/89 169/535/89
f 171/538/89 396/534/89 397/539/89
f 397/539/89 173/540/89 171/538/89
f 173/540/89 397/539/89 398/541/89
f 239/542/9 399/543/9 236/544/9
f 399/543/9 239/542/9 400/545/9
f 243/546/9 401/547/9 402/548/9
f 401/547/9 243/546/9 240/549/9
f 51/550/30 357/551/30 52/552/30
f 51/550/30 403/553/30 357/551/30
f 56/554/30 403/553/30 51/550/30
f 56/554/30 361/555/30 403/553/30
f 404/556/40 239/557/40 238/558/40
f 404/556/40 400/559/40 239/557/40
f 116/560/40 405/561/40 268/562/40
f 116/560/40 268/562/40 115/563/40
f 243/564/40 402/565/40 406/566/40
f 242/567/40 243/564/40 406/566/40
f 271/568/40 407/569/40 121/570/40
f 120/571/40 271/568/40 121/570/40
f 45/485/77 408/486/77 46/488/77
f 408/486/77 45/485/77 409/487/77
f 49/485/78 410/486/78 411/487/78
f 410/486/78 49/485/78 50/488/78
f 75/572/30 412/573/30 337/574/30
f 412/573/30 75/572/30 74/575/30
f 36/576/30 381/577/30 37/578/30
f 36/576/30 413/579/30 381/577/30
f 39/572/30 384/573/30 414/575/30
f 384/573/30 39/572/30 41/574/30
f 80/572/30 415/573/30 78/575/30
f 415/573/30 80/572/30 343/574/30
f 300/580/48 372/581/48 416/582/48
f 372/581/48 300/580/48 299/583/48
f 416/582/48 291/584/48 300/580/48
f 282/585/48 300/580/48 291/584/48
f 300/580/48 282/585/48 281/586/48
f 416/582/48 303/587/48 291/584/48
f 127/588/48 303/587/48 416/582/48
f 303/587/48 192/589/48 289/590/48
f 192/589/48 303/587/48 190/591/48
f 303/587/48 127/588/48 190/591/48
f 190/591/48 127/588/48 305/592/48
f 126/593/48 305/592/48 127/588/48
f 130/594/48 305/592/48 126/593/48
f 305/592/48 130/594/48 293/595/48
f 128/596/51 304/597/51 129/598/51
f 129/598/51 304/597/51 294/599/51
f 304/597/51 128/596/51 125/600/51
f 193/601/51 304/597/51 125/600/51
f 125/600/51 302/602/51 193/601/51
f 302/602/51 191/603/51 193/601/51
f 191/603/51 302/602/51 290/604/51
f 302/602/51 125/600/51 417/605/51
f 302/602/51 417/605/51 292/606/51
f 417/605/51 298/607/51 292/606/51
f 280/608/51 292/606/51 298/607/51
f 298/607/51 283/609/51 280/608/51
f 371/610/51 298/607/51 417/605/51
f 298/607/51 371/610/51 301/611/51
f 176/572/30 418/573/30 339/574/30
f 418/573/30 176/572/30 175/575/30
f 179/572/30 419/573/30 180/575/30
f 347/574/30 419/573/30 179/572/30
f 420/612/90 59/613/90 421/614/90
f 420/612/90 60/615/90 59/613/90
f 72/616/90 69/617/90 422/618/90
f 423/619/90 72/616/90 422/618/90
f 103/572/30 424/573/30 342/574/30
f 424/573/30 103/572/30 102/575/30
f 106/572/30 425/573/30 107/575/30
f 425/573/30 106/572/30 346/574/30
f 44/572/30 409/573/30 45/574/30
f 44/572/30 426/575/30 409/573/30
f 411/573/30 47/572/30 49/574/30
f 47/572/30 411/573/30 427/575/30
f 215/620/11 238/621/11 213/622/11
f 215/620/11 404/623/11 238/621/11
f 406/624/11 221/625/11 242/626/11
f 223/627/11 242/626/11 221/625/11
f 428/573/30 91/572/30 90/575/30
f 91/572/30 428/573/30 350/574/30
f 229/628/91 137/629/91 135/630/91
f 135/630/91 272/631/91 229/628/91
f 281/632/92 298/633/92 300/634/92
f 298/633/92 281/632/92 283/635/92
f 94/572/30 429/573/30 95/575/30
f 352/574/30 429/573/30 94/572/30
f 229/636/93 141/637/93 137/638/93
f 141/637/93 229/636/93 275/639/93
f 19/640/48 17/641/48 259/642/48
f 16/643/48 259/642/48 17/641/48
f 24/644/48 259/642/48 16/643/48
f 259/642/48 24/644/48 254/645/48
f 265/646/48 17/641/48 19/640/48
f 21/647/48 265/646/48 19/640/48
f 265/646/48 21/647/48 248/648/48
f 17/641/48 265/646/48 430/649/48
f 430/649/48 265/646/48 25/650/48
f 430/649/48 25/650/48 262/651/48
f 27/652/48 262/651/48 25/650/48
f 262/651/48 27/652/48 234/653/48
f 262/651/48 431/654/48 430/649/48
f 431/654/48 262/651/48 261/655/48
f 264/656/51 15/657/51 432/658/51
f 20/659/51 264/656/51 249/660/51
f 264/656/51 20/659/51 22/661/51
f 15/657/51 264/656/51 22/661/51
f 22/661/51 258/662/51 15/657/51
f 258/662/51 18/663/51 15/657/51
f 18/663/51 258/662/51 23/664/51
f 23/664/51 258/662/51 255/665/51
f 264/656/51 432/658/51 28/666/51
f 432/658/51 260/667/51 28/666/51
f 26/668/51 28/666/51 260/667/51
f 260/667/51 235/669/51 26/668/51
f 433/670/51 260/667/51 432/658/51
f 260/667/51 433/670/51 263/671/51
f 379/651/48 434/654/48 435/649/48
f 434/654/48 379/651/48 378/655/48
f 435/649/48 9/650/48 379/651/48
f 11/652/48 379/651/48 9/650/48
f 379/651/48 11/652/48 365/653/48
f 435/649/48 374/646/48 9/650/48
f 3/641/48 374/646/48 435/649/48
f 374/646/48 7/647/48 367/648/48
f 7/647/48 374/646/48 5/640/48
f 374/646/48 3/641/48 5/640/48
f 5/640/48 3/641/48 376/642/48
f 2/643/48 376/642/48 3/641/48
f 14/644/48 376/642/48 2/643/48
f 376/642/48 14/644/48 369/645/48
f 3/672/94 435/673/94 1/674/94
f 436/675/94 1/674/94 435/673/94
f 436/658/51 12/666/51 373/656/51
f 6/659/51 373/656/51 368/660/51
f 373/656/51 6/659/51 8/661/51
f 1/657/51 373/656/51 8/661/51
f 373/656/51 1/657/51 436/658/51
f 8/661/51 375/662/51 1/657/51
f 375/662/51 4/663/51 1/657/51
f 4/663/51 375/662/51 13/664/51
f 13/664/51 375/662/51 370/665/51
f 12/666/51 436/658/51 377/667/51
f 437/670/51 377/667/51 436/658/51
f 377/667/51 437/670/51 380/671/51
f 377/667/51 10/668/51 12/666/51
f 377/667/51 366/669/51 10/668/51
f 371/478/9 416/676/9 372/479/9
f 371/478/9 417/677/9 416/676/9
f 58/678/95 438/679/95 59/680/95
f 438/679/95 421/681/95 59/680/95
f 72/682/96 439/683/96 68/684/96
f 72/682/96 423/685/96 439/683/96
f 61/686/75 83/687/75 82/688/75
f 83/687/75 61/686/75 57/689/75
f 88/690/74 65/691/74 85/692/74
f 65/691/74 88/690/74 70/693/74
f 183/694/97 136/695/97 138/696/97
f 136/695/97 183/694/97 182/697/97
f 163/698/98 440/699/98 165/700/98
f 440/699/98 163/698/98 354/701/98
f 441/702/99 166/703/99 168/704/99
f 166/703/99 441/702/99 356/705/99
f 139/706/100 188/707/100 140/708/100
f 188/707/100 139/706/100 186/709/100
f 31/710/101 30/711/102 54/712/103
f 336/713/104 31/710/101 54/712/103
f 53/714/102 54/712/103 30/711/102
f 336/713/104 54/712/103 358/715/105
f 30/711/102 55/716/106 53/714/102
f 358/715/105 442/717/107 336/713/104
f 55/716/106 30/711/102 34/718/108
f 442/717/107 358/715/105 443/719/107
f 34/718/108 326/720/109 55/716/106
f 362/721/110 442/717/107 443/719/107
f 326/720/109 442/717/107 362/721/110
f 55/716/106 326/720/109 362/721/110
f 81/722/111 57/723/111 62/724/111
f 57/723/111 81/722/111 83/725/111
f 70/726/111 87/727/111 71/728/111
f 87/727/111 70/726/111 88/729/111
f 43/51/78 426/52/78 44/53/78
f 426/52/78 43/51/78 444/54/78
f 427/52/77 48/51/77 47/53/77
f 48/51/77 427/52/77 445/54/77
f 446/730/112 386/731/112 148/732/112
f 148/732/112 147/733/112 446/730/112
f 160/734/112 159/735/112 447/736/112
f 447/736/112 394/737/112 160/734/112
f 448/738/112 447/736/112 159/735/112
f 159/735/112 161/739/112 448/738/112
f 440/740/112 448/738/112 161/739/112
f 161/739/112 165/741/112 440/740/112
f 449/742/112 441/743/112 167/744/112
f 167/744/112 441/743/112 168/745/112
f 172/746/112 449/742/112 167/744/112
f 450/747/112 449/742/112 172/746/112
f 173/748/112 450/747/112 172/746/112
f 398/749/112 450/747/112 173/748/112
f 154/750/112 451/751/112 152/752/112
f 389/753/112 451/751/112 154/750/112
f 35/754/78 413/755/78 36/756/78
f 452/757/78 413/755/78 35/754/78
f 127/758/30 416/759/30 125/760/30
f 417/761/30 125/760/30 416/759/30
f 414/52/77 40/51/77 39/53/77
f 40/51/77 414/52/77 453/54/77
f 150/762/113 446/763/113 147/764/113
f 446/763/113 150/762/113 360/765/113
f 156/766/114 451/767/114 364/768/114
f 451/767/114 156/766/114 152/769/114
f 195/414/115 328/406/115 196/770/115
f 256/407/115 331/411/115 247/771/115
f 257/425/115 251/772/115 335/429/115
f 199/432/115 198/773/115 332/424/115
f 442/774/11 295/775/116 336/776/11
f 454/777/117 295/775/116 442/774/11
f 295/775/116 454/777/117 285/778/118
f 326/779/11 454/777/117 442/774/11
f 285/778/118 454/777/117 284/780/118
f 326/779/11 327/781/116 454/777/117
f 454/777/117 286/782/118 284/780/118
f 286/782/118 454/777/117 327/781/116
f 289/783/119 302/784/119 303/785/119
f 302/784/119 289/783/119 290/786/119
f 403/787/11 358/788/11 357/789/11
f 358/788/11 403/787/11 443/790/11
f 361/791/11 443/790/11 403/787/11
f 361/791/11 362/792/11 443/790/11
f 63/793/96 420/794/96 455/795/96
f 420/794/96 63/793/96 60/796/96
f 422/797/95 66/798/95 456/799/95
f 66/798/95 422/797/95 69/800/95
f 457/801/120 219/802/120 458/803/120
f 219/802/120 457/801/120 109/804/120
f 112/805/120 109/804/120 457/801/120
f 457/801/120 405/806/120 112/805/120
f 405/806/120 114/807/120 112/805/120
f 114/807/120 405/806/120 116/808/120
f 459/809/121 226/810/121 123/811/121
f 226/810/121 459/809/121 460/812/121
f 459/809/121 123/811/121 117/813/121
f 117/813/121 407/814/121 459/809/121
f 119/815/121 407/814/121 117/813/121
f 407/814/121 119/815/121 121/816/121
f 76/817/51 412/818/51 74/819/51
f 461/820/51 412/818/51 76/817/51
f 177/817/51 418/818/51 175/819/51
f 462/820/51 418/818/51 177/817/51
f 102/819/51 463/820/51 424/818/51
f 463/820/51 102/819/51 104/817/51
f 79/817/48 78/819/48 415/818/48
f 415/818/48 464/820/48 79/817/48
f 181/817/48 180/819/48 419/818/48
f 419/818/48 465/820/48 181/817/48
f 466/820/48 107/819/48 425/818/48
f 107/819/48 466/820/48 108/817/48
f 90/819/51 467/820/51 428/818/51
f 467/820/51 90/819/51 92/817/51
f 17/672/122 430/673/122 15/674/122
f 432/675/122 15/674/122 430/673/122
f 468/820/48 95/819/48 429/818/48
f 95/819/48 468/820/48 96/817/48
f 331/821/28 245/822/28 247/823/28
f 335/824/27 251/825/27 250/826/27
f 293/289/123 304/324/123 305/326/123
f 304/324/123 293/289/123 294/291/123
f 63/827/124 438/828/124 58/829/124
f 63/827/124 455/830/124 438/828/124
f 439/831/124 456/832/124 66/833/124
f 68/834/124 439/831/124 66/833/124
f 216/835/120 399/836/120 215/837/120
f 399/836/120 216/835/120 330/838/120
f 404/839/120 215/837/120 399/836/120
f 399/836/120 400/840/120 404/839/120
f 401/841/121 222/842/121 221/843/121
f 222/842/121 401/841/121 334/844/121
f 406/845/121 401/841/121 221/843/121
f 401/841/121 406/845/121 402/846/121
f 131/847/125 184/848/125 132/849/125
f 184/848/125 131/847/125 185/850/125
f 187/851/126 142/852/126 145/853/126
f 142/852/126 187/851/126 189/854/126
f 328/855/28 244/856/28 196/857/28
f 332/858/27 198/859/27 253/860/27
f 469/861/28 203/862/28 205/863/28
f 470/864/27 207/865/27 206/866/27
f 229/867/127 273/868/127 230/869/127
f 273/868/127 229/867/127 272/870/127
f 229/871/128 274/872/128 275/873/128
f 274/872/128 229/871/128 233/874/128
f 182/875/129 131/876/129 136/877/129
f 131/876/129 182/875/129 185/878/129
f 139/879/130 189/880/130 186/881/130
f 189/880/130 139/879/130 142/882/130
f 236/883/40 329/884/40 237/885/40
f 399/886/40 329/884/40 236/883/40
f 329/884/40 399/886/40 330/887/40
f 266/888/40 471/889/40 267/890/40
f 457/891/40 471/889/40 266/888/40
f 471/889/40 457/891/40 458/892/40
f 401/893/40 333/894/40 334/895/40
f 333/894/40 401/893/40 240/896/40
f 241/897/40 333/894/40 240/896/40
f 459/898/40 472/899/40 460/900/40
f 472/899/40 459/898/40 269/901/40
f 472/899/40 269/901/40 270/902/40
f 473/903/28 200/904/28 202/905/28
f 474/906/27 210/907/27 209/908/27
f 217/909/9 201/910/9 200/911/9
f 217/909/9 218/912/9 201/910/9
f 204/913/9 473/914/9 391/915/9
f 473/914/9 204/913/9 200/916/9
f 200/916/9 204/913/9 217/917/9
f 473/914/9 471/918/9 391/915/9
f 471/918/9 469/919/9 391/915/9
f 310/920/9 471/918/9 473/914/9
f 471/918/9 458/921/9 469/919/9
f 458/921/9 219/922/9 469/919/9
f 469/919/9 219/922/9 203/923/9
f 471/918/9 310/920/9 267/924/9
f 218/925/9 267/924/9 310/920/9
f 218/925/9 310/920/9 201/926/9
f 219/927/9 217/928/9 203/929/9
f 203/929/9 217/928/9 204/930/9
f 225/931/9 226/932/9 206/933/9
f 225/931/9 206/933/9 208/934/9
f 474/935/9 208/936/9 392/937/9
f 474/935/9 209/938/9 208/936/9
f 209/938/9 225/939/9 208/936/9
f 474/935/9 392/937/9 472/940/9
f 470/941/9 472/940/9 392/937/9
f 472/940/9 311/942/9 474/935/9
f 460/943/9 472/940/9 470/941/9
f 226/944/9 460/943/9 470/941/9
f 226/944/9 470/941/9 206/945/9
f 472/940/9 270/946/9 311/942/9
f 270/946/9 227/947/9 311/942/9
f 311/942/9 227/947/9 211/948/9
f 227/949/9 225/950/9 211/951/9
f 211/951/9 225/950/9 209/952/9
f 261/953/131 433/954/131 431/955/131
f 433/954/131 261/953/131 263/956/131
f 268/957/9 457/958/9 266/959/9
f 457/958/9 268/957/9 405/960/9
f 271/961/9 459/962/9 407/963/9
f 459/962/9 271/961/9 269/964/9
f 310/920/115 473/914/115 202/965/115
f 391/915/115 469/919/115 205/966/115
f 392/937/115 207/967/115 470/941/115
f 311/942/115 210/968/115 474/935/115
f 462/486/132 339/485/132 418/487/132
f 339/485/132 462/486/132 340/488/132
f 347/485/132 465/486/132 419/487/132
f 347/485/132 348/488/132 465/486/132
f 447/969/133 393/970/133 394/971/133
f 448/972/133 393/970/133 447/969/133
f 393/970/133 448/972/133 395/973/133
f 395/973/133 448/972/133 354/974/133
f 440/975/133 354/974/133 448/972/133
f 395/973/133 354/974/133 353/976/133
f 449/977/133 356/978/133 441/979/133
f 449/977/133 396/980/133 356/978/133
f 355/981/133 356/978/133 396/980/133
f 396/980/133 449/977/133 397/982/133
f 397/982/133 449/977/133 450/983/133
f 398/984/133 397/982/133 450/983/133
f 386/985/133 446/986/133 385/987/133
f 446/986/133 387/988/133 385/987/133
f 360/989/133 387/988/133 446/986/133
f 387/988/133 360/989/133 359/990/133
f 451/991/133 390/992/133 364/993/133
f 390/992/133 363/994/133 364/993/133
f 390/992/133 451/991/133 388/995/133
f 388/995/133 451/991/133 389/996/133
f 463/486/132 342/485/132 424/487/132
f 342/485/132 463/486/132 341/488/132
f 346/485/132 466/486/132 425/487/132
f 346/485/132 345/488/132 466/486/132
f 316/997/134 319/998/134 315/999/134
f 316/997/134 324/1000/134 319/998/134
f 254/222/135 258/231/135 259/233/135
f 258/231/135 254/222/135 255/224/135
f 234/1001/136 260/1002/136 262/1003/136
f 260/1002/136 234/1001/136 235/1004/136
f 467/486/132 350/485/132 428/487/132
f 350/485/132 467/486/132 349/488/132
f 352/485/132 468/486/132 429/487/132
f 352/485/132 351/488/132 468/486/132
f 455/1005/11 421/1006/11 438/1007/11
f 421/1006/11 455/1005/11 420/1008/11
f 423/1009/11 456/1010/11 439/1011/11
f 456/1010/11 423/1009/11 422/1012/11
f 248/1013/137 264/1014/137 265/1015/137
f 264/1014/137 248/1013/137 249/1016/137
f 461/486/132 337/485/132 412/487/132
f 337/485/132 461/486/132 338/488/132
f 343/485/132 464/486/132 415/487/132
f 343/485/132 344/488/132 464/486/132
f 433/954/138 430/1017/138 431/955/138
f 433/954/138 432/1018/138 430/1017/138
f 452/1019/11 381/1020/11 413/1021/11
f 381/1020/11 452/1019/11 382/1022/11
f 384/818/11 453/817/11 414/819/11
f 384/818/11 383/820/11 453/817/11
f 444/817/11 409/818/11 426/819/11
f 409/818/11 444/817/11 408/820/11
f 411/818/11 445/817/11 427/819/11
f 411/818/11 410/820/11 445/817/11
f 378/953/139 437/954/139 434/955/139
f 437/954/139 378/953/139 380/956/139
f 369/222/140 375/231/140 376/233/140
f 375/231/140 369/222/140 370/224/140
f 365/1001/141 377/1002/141 379/1003/141
f 377/1002/141 365/1001/141 366/1004/141
f 367/1013/142 373/1014/142 374/1015/142
f 373/1014/142 367/1013/142 368/1016/142
f 437/954/143 435/1017/143 434/955/143
f 437/954/143 436/1018/143 435/1017/143
