# Roblox asset pack: animal_wolf (creatures), from the Studio model "Wolf". Exported with Export Selection, split by tools/build_creatures.py: one object per rigid body. Units: studs. +Y up, front faces -Z, pivot (bottom centre) at the origin.
mtllib animal_wolf.mtl

v 2.89270 2.40000 0.41000
v 2.74730 2.89000 -0.12000
v 2.74730 2.89000 0.12000
v 2.89270 2.40000 -0.41000
v 0.75470 0.23000 0.79000
v 0.90400 0.77000 0.58000
v 0.90400 0.77000 0.81000
v 0.75470 0.23000 0.58000
v 0.75470 0.23000 0.38000
v 0.90400 0.77000 0.35000
v 0.75470 0.23000 -0.38000
v 0.90400 0.77000 -0.58000
v 0.90400 0.77000 -0.35000
v 0.75470 0.23000 -0.58000
v 0.75470 0.23000 -0.79000
v 0.90400 0.77000 -0.81000
v 0.96590 1.68000 -0.65000
v 0.90020 2.13000 0.65000
v 0.96590 1.68000 0.65000
v 0.90020 2.13000 -0.65000
v 0.90020 1.23000 -0.65000
v 0.90020 1.23000 0.65000
v -2.70370 1.81000 0.28000
v -2.69790 1.77000 -0.27000
v -2.69790 1.77000 0.27000
v -2.70370 1.81000 -0.28000
v -2.69430 1.85000 0.27000
v -2.69000 1.81000 -0.26000
v -2.69000 1.81000 0.26000
v -2.69430 1.85000 -0.27000
v -2.71910 1.85000 0.02000
v -2.80590 2.29000 0.02000
v -2.80590 2.29000 -0.02000
v -2.71910 1.85000 -0.02000
v -2.80080 2.30000 0.36000
v -2.71410 1.85000 -0.34000
v -2.71410 1.85000 0.34000
v -2.80080 2.30000 -0.36000
v 0.81800 1.23000 0.87000
v 0.81800 1.23000 0.58000
v 0.89550 1.49000 0.87000
v 0.89550 1.49000 0.58000
v 0.81800 1.23000 0.30000
v 0.89550 1.49000 0.30000
v 0.81800 1.23000 -0.30000
v 0.89550 1.49000 -0.58000
v 0.89550 1.49000 -0.30000
v 0.81800 1.23000 -0.58000
v 0.89550 1.49000 -0.87000
v 0.81800 1.23000 -0.87000
v 0.81280 1.94000 0.87000
v 0.81280 1.94000 0.58000
v 0.81280 1.94000 0.30000
v -2.89270 2.37000 0.11000
v -2.81950 2.15000 -0.11000
v -2.81950 2.15000 0.11000
v -2.89270 2.37000 -0.11000
v 0.81280 1.94000 -0.58000
v 0.81280 1.94000 -0.30000
v 0.81280 1.94000 -0.87000
v 0.82290 0.00000 0.81000
v 0.82290 0.23000 0.36000
v 0.82290 0.23000 0.81000
v 0.82290 0.00000 0.36000
v 0.82290 0.00000 -0.81000
v 0.82290 0.23000 -0.36000
v 0.82290 0.00000 -0.36000
v 0.82290 0.23000 -0.81000
v -2.68320 1.87000 0.30000
v -2.62410 1.67000 0.23000
v -2.62410 1.67000 0.28000
v -2.68320 1.87000 0.21000
v -2.62410 1.67000 -0.23000
v -2.68320 1.87000 -0.30000
v -2.62410 1.67000 -0.28000
v -2.68320 1.87000 -0.21000
v -1.56760 0.00000 0.83000
v -1.65060 0.00000 0.58000
v -1.34360 0.00000 0.86000
v -1.34360 0.00000 0.31000
v -1.56760 0.00000 0.34000
v -0.92120 0.00000 0.36000
v -0.92120 0.00000 0.81000
v -0.74490 0.00000 0.36000
v -0.74490 0.00000 0.81000
v 0.00020 0.00000 0.83000
v -0.08280 0.00000 0.58000
v 0.22420 0.00000 0.86000
v 0.22420 0.00000 0.31000
v 0.00020 0.00000 0.34000
v 0.64670 0.00000 0.36000
v 0.64670 0.00000 0.81000
v -1.65060 0.00000 -0.58000
v -1.34360 0.00000 -0.31000
v -1.56760 0.00000 -0.34000
v -1.34360 0.00000 -0.86000
v -1.56760 0.00000 -0.83000
v -0.92120 0.00000 -0.36000
v -0.92120 0.00000 -0.81000
v -0.74490 0.00000 -0.36000
v -0.74490 0.00000 -0.81000
v -0.08280 0.00000 -0.58000
v 0.22420 0.00000 -0.31000
v 0.00020 0.00000 -0.34000
v 0.22420 0.00000 -0.86000
v 0.00020 0.00000 -0.83000
v 0.64670 0.00000 -0.36000
v 0.64670 0.00000 -0.81000
v -2.50530 1.74000 0.27000
v -2.54010 1.86000 0.23000
v -2.50530 1.74000 0.25000
v -2.54010 1.86000 0.29000
v -2.54010 1.86000 -0.23000
v -2.50530 1.74000 -0.27000
v -2.50530 1.74000 -0.25000
v -2.54010 1.86000 -0.29000
v 1.93570 1.74000 -0.27000
v 1.93570 1.74000 0.27000
v -1.32460 0.19000 0.43000
v -0.79090 0.19000 0.76000
v -1.32460 0.19000 0.76000
v -0.79090 0.19000 0.43000
v -1.32460 0.19000 -0.43000
v -1.32460 0.19000 -0.76000
v -0.79090 0.19000 -0.76000
v -0.79090 0.19000 -0.43000
v -2.31800 2.71000 0.16000
v -2.31800 2.49000 0.43000
v -2.31800 2.78000 0.43000
v -2.31800 2.49000 0.16000
v -2.31800 2.71000 -0.16000
v -2.31800 2.49000 -0.43000
v -2.31800 2.49000 -0.16000
v -2.31800 2.78000 -0.43000
v -2.29240 2.83000 0.11000
v -2.29240 2.44000 0.51000
v -2.29240 2.90000 0.51000
v -2.29240 2.44000 0.11000
v -2.25060 3.07000 0.69000
v -0.91140 3.07000 0.69000
v -0.91140 3.07000 -0.69000
v -2.25060 3.07000 -0.69000
v -2.29240 2.83000 -0.11000
v -2.29240 2.44000 -0.51000
v -2.29240 2.44000 -0.11000
v -2.29240 2.90000 -0.51000
v -2.25060 1.73000 0.52000
v -2.25060 1.97000 0.78000
v -2.25060 1.73000 -0.52000
v -2.25060 1.97000 -0.78000
v -1.56340 3.96000 0.55000
v -1.56340 3.32000 0.80000
v -1.26400 3.32000 0.80000
v -1.26400 3.96000 0.55000
v -1.56340 3.32000 -0.80000
v -1.56340 3.96000 -0.55000
v -1.26400 3.32000 -0.80000
v -1.26400 3.96000 -0.55000
v -1.56340 2.96000 0.25000
v -1.56340 2.89000 0.66000
v -1.47380 2.89000 0.66000
v -1.47380 2.96000 0.25000
v -1.56340 2.89000 -0.66000
v -1.56340 2.96000 -0.25000
v -1.47380 2.89000 -0.66000
v -1.47380 2.96000 -0.25000
v 2.51250 2.88000 0.12000
v 2.16550 2.58000 0.41000
v 2.51250 2.88000 -0.12000
v 2.16550 2.58000 -0.41000
v -2.16950 2.90000 0.51000
v -2.16950 2.83000 0.11000
v -2.16950 2.83000 -0.11000
v -2.16950 2.90000 -0.51000
v -2.16310 1.45000 0.36000
v -1.66240 0.93000 -0.36000
v -1.66240 0.93000 0.36000
v -2.16310 1.45000 -0.36000
v 0.58610 1.04000 -0.87000
v 0.69380 0.76000 -0.81000
v 0.58610 1.04000 0.87000
v 0.69380 0.76000 0.81000
v -2.08590 1.50000 0.44000
v -1.26620 1.35000 0.92000
v -1.74160 1.83000 0.92000
v -1.61050 1.01000 0.44000
v -2.08590 1.50000 -0.44000
v -1.26620 1.35000 -0.92000
v -1.61050 1.01000 -0.44000
v -1.74160 1.83000 -0.92000
v -1.69180 1.90000 -0.99000
v -0.69310 1.89000 -0.99000
v -1.19850 1.39000 -0.99000
v -1.18640 2.39000 -0.99000
v -0.69310 1.89000 0.99000
v -1.69180 1.90000 0.99000
v -1.19850 1.39000 0.99000
v -1.18640 2.39000 0.99000
v 0.64670 0.23000 0.81000
v 0.22420 0.23000 0.86000
v -2.23490 2.78000 0.43000
v -2.23490 2.71000 0.16000
v 0.22420 0.23000 -0.86000
v 0.64670 0.23000 -0.81000
v -2.23490 2.71000 -0.16000
v -2.23490 2.78000 -0.43000
v 0.04260 1.04000 0.87000
v 0.25800 0.77000 0.81000
v 0.25800 0.77000 -0.81000
v 0.04260 1.04000 -0.87000
v -1.56340 3.62000 0.29000
v -1.26400 3.62000 0.29000
v -1.56340 3.62000 -0.29000
v -1.26400 3.62000 -0.29000
v -0.22180 2.34000 0.36000
v -0.72250 2.85000 -0.36000
v -0.72250 2.85000 0.36000
v -0.22180 2.34000 -0.36000
v -1.56760 0.23000 0.83000
v -1.65060 0.23000 0.58000
v -1.65060 0.23000 -0.58000
v -1.56760 0.23000 -0.83000
v -1.34360 0.23000 0.86000
v -0.64330 1.95000 0.92000
v -0.77440 2.78000 0.44000
v -1.11870 2.44000 0.92000
v -0.29900 2.29000 0.44000
v -1.34360 0.23000 -0.86000
v -0.64330 1.95000 -0.92000
v -0.77440 2.78000 -0.44000
v -0.29900 2.29000 -0.44000
v -1.11870 2.44000 -0.92000
v -1.63590 2.37000 0.73000
v -1.77660 1.67000 -0.73000
v -1.77660 1.67000 0.73000
v -1.63590 2.37000 -0.73000
v 0.42770 1.56000 0.87000
v 0.04260 1.49000 0.87000
v 0.04260 1.94000 0.87000
v 0.42770 2.08000 0.87000
v 0.42770 1.56000 -0.87000
v 0.04260 1.49000 -0.87000
v 0.04260 1.94000 -0.87000
v 0.42770 2.08000 -0.87000
v 0.42770 2.08000 0.58000
v 0.42770 2.08000 0.30000
v 0.42770 2.08000 -0.30000
v 0.42770 2.08000 -0.58000
v 0.59100 0.23000 0.79000
v 0.59100 0.23000 -0.79000
v 0.19860 0.23000 -0.79000
v 0.19860 0.23000 0.79000
v -1.56340 2.94000 0.81000
v -1.26400 2.94000 0.81000
v -1.56340 2.94000 -0.81000
v -1.26400 2.94000 -0.81000
v -0.74490 0.23000 0.81000
v -0.92120 0.23000 0.81000
v -0.91140 1.97000 0.78000
v -0.74490 0.23000 -0.81000
v -0.92120 0.23000 -0.81000
v -0.91140 1.97000 -0.78000
v -1.26140 1.05000 0.78000
v -0.59080 1.05000 0.78000
v -1.26140 1.05000 -0.78000
v -0.59080 1.05000 -0.78000
v -1.35820 0.91000 -0.73000
v -1.35820 0.91000 0.73000
v -0.60790 1.76000 0.78000
v -1.34240 1.69000 0.78000
v -1.16580 1.89000 0.78000
v -0.74350 1.89000 0.78000
v -1.34240 1.69000 -0.78000
v -0.60790 1.76000 -0.78000
v -1.16580 1.89000 -0.78000
v -0.74350 1.89000 -0.78000
v -0.54060 1.68000 0.73000
v -0.33300 1.03000 0.73000
v -0.49180 2.30000 0.73000
v -2.59500 2.37000 0.11000
v -2.59500 2.37000 -0.11000
v -0.54060 1.68000 -0.73000
v -0.33300 1.03000 -0.73000
v -0.49180 2.30000 -0.73000
v 0.00020 0.23000 -0.83000
v 0.00020 0.23000 0.83000
v -1.56340 2.80000 0.69000
v -1.56340 2.97000 0.73000
v -1.56340 2.89000 0.16000
v -1.56340 3.30000 0.72000
v -1.56340 3.79000 0.52000
v -1.56340 3.24000 0.19000
v -1.56340 3.22000 0.27000
v -1.56340 3.59000 0.37000
v -1.56340 2.89000 -0.16000
v -1.56340 3.24000 -0.19000
v -1.56340 2.80000 -0.69000
v -1.56340 3.22000 -0.27000
v -1.56340 3.59000 -0.37000
v -1.56340 3.79000 -0.52000
v -1.56340 2.97000 -0.73000
v -1.56340 3.30000 -0.72000
v -2.12610 2.30000 0.36000
v -2.12610 2.30000 -0.36000
v -0.34990 1.09000 0.65000
v -0.53530 1.66000 0.65000
v -0.49840 2.21000 0.65000
v -0.54060 1.68000 0.65000
v -0.34990 1.09000 -0.65000
v -0.53530 1.66000 -0.65000
v -0.49840 2.21000 -0.65000
v -0.54060 1.68000 -0.65000
v -1.47380 2.97000 0.73000
v -1.47380 3.22000 0.27000
v -1.47380 3.30000 0.72000
v -1.47380 3.59000 0.37000
v -1.47380 3.79000 0.52000
v -1.47380 3.22000 -0.27000
v -1.47380 2.97000 -0.73000
v -1.47380 3.30000 -0.72000
v -1.47380 3.59000 -0.37000
v -1.47380 3.79000 -0.52000
v -1.56760 0.23000 0.34000
v -1.56760 0.23000 -0.34000
v -2.16950 2.44000 0.51000
v -2.16950 2.44000 -0.51000
v -1.26140 1.05000 0.41000
v -1.34240 1.69000 0.41000
v -1.26140 1.05000 -0.41000
v -1.34240 1.69000 -0.41000
v -2.23490 2.49000 0.43000
v -2.23490 2.49000 -0.43000
v -0.59080 1.05000 0.41000
v -0.59080 1.05000 -0.41000
v -1.16580 1.89000 0.41000
v -1.16580 1.89000 -0.41000
v -2.08940 1.85000 0.34000
v -2.08940 1.85000 -0.34000
v 1.74930 2.12000 -0.27000
v 0.88080 2.06000 0.20000
v 1.74930 2.12000 0.27000
v 0.88080 2.06000 -0.20000
v -2.59430 1.87000 -0.30000
v -2.57600 1.67000 -0.28000
v -2.59430 1.87000 0.30000
v -2.57600 1.67000 0.28000
v -0.91140 1.73000 0.52000
v -0.91140 1.73000 -0.52000
v -2.48770 1.86000 0.29000
v -2.47690 1.74000 0.27000
v -0.74350 1.89000 0.41000
v -0.60790 1.76000 0.41000
v -2.48770 1.86000 -0.29000
v -2.47690 1.74000 -0.27000
v -0.60790 1.76000 -0.41000
v -0.74350 1.89000 -0.41000
v -2.15000 1.81000 0.28000
v -2.15580 1.77000 0.27000
v -2.15580 1.77000 -0.27000
v -2.15000 1.81000 -0.28000
v -2.16370 1.81000 0.26000
v -2.15940 1.85000 0.27000
v -2.16370 1.81000 -0.26000
v -2.15940 1.85000 -0.27000
v -1.26400 3.24000 0.19000
v -1.26400 3.24000 -0.19000
v -2.59430 1.87000 0.21000
v -2.59430 1.87000 -0.21000
v -2.48770 1.86000 0.23000
v -2.48770 1.86000 -0.23000
v -0.74490 0.23000 0.36000
v -0.74490 0.23000 -0.36000
v -2.59500 2.15000 0.11000
v -2.59500 2.15000 -0.11000
v 0.93300 1.68000 0.20000
v 0.93300 1.68000 -0.20000
v -2.70070 1.87000 0.02000
v -2.68880 1.84000 0.02000
v -2.68750 1.87000 0.02000
v -2.78420 2.30000 0.02000
v -2.70070 1.87000 -0.02000
v -2.68880 1.84000 -0.02000
v -2.68750 1.87000 -0.02000
v -2.78420 2.30000 -0.02000
v -2.57600 1.67000 0.23000
v -2.57600 1.67000 -0.23000
v 0.04260 1.94000 0.58000
v 0.04260 1.94000 0.30000
v 0.04260 1.94000 -0.30000
v 0.04260 1.94000 -0.58000
v -1.26400 2.89000 0.16000
v -1.26400 2.89000 -0.16000
v -2.47690 1.74000 0.25000
v -2.47690 1.74000 -0.25000
v -2.16950 2.44000 0.11000
v -2.16950 2.44000 -0.11000
v 0.69380 0.76000 0.35000
v 0.58610 1.04000 0.30000
v 0.58610 1.04000 -0.30000
v 0.69380 0.76000 -0.35000
v -2.23490 2.49000 0.16000
v -2.23490 2.49000 -0.16000
v 0.25800 0.77000 0.35000
v 0.04260 1.04000 0.30000
v 0.25800 0.77000 -0.35000
v 0.04260 1.04000 -0.30000
v 0.22420 0.23000 0.31000
v 0.64670 0.23000 0.36000
v 0.22420 0.23000 -0.31000
v 0.64670 0.23000 -0.36000
v -1.26400 2.80000 0.69000
v -1.26400 2.80000 -0.69000
v -1.34360 0.23000 0.31000
v -1.34360 0.23000 -0.31000
v 0.42770 1.56000 0.30000
v 0.04260 1.49000 0.30000
v 0.42770 1.56000 -0.30000
v 0.04260 1.49000 -0.30000
v 0.59100 0.23000 0.38000
v 0.59100 0.23000 -0.38000
v 0.19860 0.23000 0.38000
v 0.19860 0.23000 -0.38000
v 0.04260 1.04000 0.58000
v 0.25800 0.77000 0.58000
v 0.04260 1.04000 -0.58000
v 0.25800 0.77000 -0.58000
v -0.92120 0.23000 0.36000
v -0.92120 0.23000 -0.36000
v 0.00020 0.23000 0.34000
v 0.00020 0.23000 -0.34000
v -0.08280 0.23000 0.58000
v -0.08280 0.23000 -0.58000
v 0.04260 1.49000 0.58000
v 0.04260 1.49000 -0.58000
v 0.19860 0.23000 0.58000
v 0.19860 0.23000 -0.58000
vt 0.07236 0.74562
vt 0.02326 0.74032
vt 0.03770 0.71753
vt 0.04718 0.81222
vt 0.93018 0.17902
vt 0.95133 0.23464
vt 0.92783 0.23464
vt 0.95133 0.17902
vt 0.97249 0.17902
vt 0.97483 0.23464
vt 1.97249 0.17902
vt 1.95133 0.23464
vt 1.97483 0.23464
vt 1.95133 0.17902
vt 1.93018 0.17902
vt 1.92783 0.23464
vt 0.76608 0.04841
vt 0.63580 0.09390
vt 0.63579 0.04842
vt 0.76608 0.09388
vt 0.76607 0.00293
vt 0.63579 0.00295
vt 0.06618 0.00665
vt 0.06189 0.06190
vt 0.06190 0.00722
vt 0.06618 0.06248
vt 0.15026 0.85746
vt 0.14193 0.91082
vt 0.14604 0.85936
vt 0.14632 0.91162
vt 0.28930 0.94740
vt 0.46379 0.94642
vt 0.46387 0.95694
vt 0.28947 0.95757
vt 0.92381 0.81265
vt 0.96992 0.74202
vt 0.96994 0.81009
vt 0.92380 0.73948
vt 0.92203 0.28095
vt 0.95133 0.28095
vt 0.92203 0.30799
vt 0.95133 0.30799
vt 0.98064 0.28095
vt 0.98064 0.30799
vt 1.98064 0.28095
vt 1.95133 0.30799
vt 1.98064 0.30799
vt 1.95133 0.28095
vt 1.92203 0.30799
vt 1.92203 0.28095
vt 0.92203 0.35405
vt 0.95133 0.35405
vt 0.98064 0.35405
vt 0.82346 0.50917
vt 0.77917 0.46258
vt 0.82346 0.46258
vt 0.77917 0.50917
vt 1.95133 0.35405
vt 1.98064 0.35405
vt 1.92203 0.35405
vt 1.25683 0.97246
vt 1.30179 0.99542
vt 1.25682 0.99542
vt 1.30179 0.97247
vt 0.08512 0.90982
vt 0.09889 0.97999
vt 0.08361 0.97818
vt 0.11337 0.91317
vt 1.09889 0.97999
vt 1.08512 0.90982
vt 1.08361 0.97818
vt 1.11337 0.91317
vt 0.37027 0.00566
vt 0.37864 0.03068
vt 0.34768 0.00293
vt 0.34768 0.05842
vt 0.37026 0.05570
vt 0.30507 0.05315
vt 0.30507 0.00819
vt 0.28729 0.05315
vt 0.28730 0.00819
vt 1.37027 0.00566
vt 1.37864 0.03068
vt 1.34768 0.00293
vt 1.34768 0.05842
vt 1.37026 0.05570
vt 1.30507 0.05315
vt 1.30507 0.00819
vt 1.28729 0.05315
vt 1.28730 0.00819
vt 0.17999 0.81217
vt 0.17805 0.75500
vt 0.41721 0.00293
vt 0.38377 0.05677
vt 0.38377 0.00293
vt 0.41721 0.05677
vt 1.41721 0.00293
vt 1.38377 0.00293
vt 1.38377 0.05677
vt 1.41721 0.05677
vt 0.60688 0.80495
vt 0.63853 0.84439
vt 0.59638 0.84439
vt 0.63853 0.80495
vt 1.60688 0.80495
vt 1.63853 0.84439
vt 1.63853 0.80495
vt 1.59638 0.84439
vt 0.58299 0.56074
vt 0.63282 0.61300
vt 0.57360 0.61303
vt 0.63280 0.56072
vt 0.66263 0.79200
vt 0.66260 0.65693
vt 0.80108 0.65691
vt 0.80110 0.79197
vt 1.58299 0.56074
vt 1.63282 0.61300
vt 1.63280 0.56072
vt 1.57360 0.61303
vt 0.67962 0.92706
vt 0.65296 0.90316
vt 0.78416 0.92704
vt 0.81081 0.90314
vt 0.99287 0.47552
vt 0.99286 0.54491
vt 0.96267 0.54490
vt 0.96268 0.47551
vt 1.99286 0.54491
vt 1.99287 0.47552
vt 1.96267 0.54490
vt 1.96268 0.47551
vt 0.84416 0.87536
vt 0.89092 0.87050
vt 0.88888 0.87813
vt 0.84931 0.88149
vt 1.89092 0.87050
vt 1.84416 0.87536
vt 1.88888 0.87813
vt 1.84931 0.88149
vt 0.05880 0.68870
vt 0.11346 0.70325
vt 0.05924 0.66174
vt 0.06349 0.58303
vt 0.11348 0.64013
vt 0.03924 0.64600
vt 0.55799 0.61022
vt 0.56738 0.55794
vt 1.56738 0.55794
vt 1.55799 0.61022
vt 0.01682 0.70513
vt 0.00293 0.72586
vt 0.27826 0.14750
vt 0.35054 0.07522
vt 0.35055 0.14750
vt 0.27826 0.07522
vt 1.20737 0.91304
vt 1.17558 0.94041
vt 1.19682 0.94112
vt 1.18372 0.89453
vt 0.17558 0.94041
vt 0.20737 0.91304
vt 0.19682 0.94112
vt 0.18372 0.89453
vt 0.55378 0.15131
vt 0.62242 0.21994
vt 0.55378 0.21994
vt 0.62242 0.15130
vt 0.55378 0.51077
vt 0.62242 0.44214
vt 0.62242 0.51077
vt 0.55378 0.44214
vt 0.27931 0.43834
vt 0.35054 0.36711
vt 0.35054 0.43834
vt 0.27931 0.36711
vt 0.00801 0.36712
vt 0.07924 0.43835
vt 0.00801 0.43835
vt 0.07924 0.36712
vt 1.50370 0.99545
vt 1.46077 0.97249
vt 1.50370 0.97249
vt 1.46077 0.99544
vt 0.58482 0.84132
vt 0.59532 0.80187
vt 1.59532 0.80187
vt 1.58482 0.84132
vt 0.26227 0.91239
vt 0.24083 0.93963
vt 1.24083 0.93963
vt 1.26227 0.91239
vt 0.99288 0.43290
vt 0.96268 0.43289
vt 1.99288 0.43290
vt 1.96268 0.43289
vt 0.00293 0.14751
vt 0.07521 0.07523
vt 0.07522 0.14751
vt 0.00293 0.07523
vt 0.43802 0.99544
vt 0.41163 0.97248
vt 0.43802 0.97248
vt 0.41163 0.99544
vt 1.41163 0.99544
vt 1.43802 0.99544
vt 1.41163 0.97248
vt 1.43802 0.97248
vt 0.46077 0.97249
vt 0.46077 0.99544
vt 0.29237 0.51078
vt 0.36100 0.44215
vt 0.36100 0.51078
vt 0.29237 0.44215
vt 0.29237 0.15131
vt 0.36100 0.21994
vt 0.29237 0.21994
vt 0.36100 0.15131
vt 0.62752 0.35922
vt 0.77443 0.43106
vt 0.62753 0.43107
vt 0.77442 0.35920
vt 0.22274 0.86007
vt 0.26173 0.86687
vt 0.26119 0.82134
vt 0.17558 0.86789
vt 0.22211 0.80729
vt 0.18338 0.82227
vt 1.22274 0.86007
vt 1.26173 0.86687
vt 1.17558 0.86789
vt 1.26119 0.82134
vt 1.18338 0.82227
vt 1.22211 0.80729
vt 0.06269 0.48228
vt 0.06269 0.52241
vt 0.03281 0.52241
vt 0.03281 0.48228
vt 0.00293 0.52241
vt 0.00293 0.48228
vt 1.00293 0.48228
vt 1.00293 0.52241
vt 1.03281 0.48228
vt 1.03281 0.52241
vt 1.06269 0.48228
vt 1.06269 0.52241
vt 0.19132 0.99521
vt 0.20785 0.99501
vt 1.20785 0.99501
vt 1.24749 0.99454
vt 1.19131 0.99521
vt 0.24749 0.99454
vt 0.99285 0.58319
vt 0.96266 0.58319
vt 1.99285 0.58319
vt 1.96266 0.58319
vt 0.52148 0.99545
vt 0.50370 0.97249
vt 0.52148 0.97250
vt 0.50370 0.99545
vt 1.52148 0.99545
vt 1.52148 0.97250
vt 0.91494 0.00294
vt 0.91493 0.11453
vt 0.77987 0.11452
vt 0.77987 0.00293
vt 0.91491 0.40226
vt 0.77985 0.40225
vt 0.91492 0.29067
vt 0.77985 0.29066
vt 0.98966 0.08790
vt 0.99707 0.17457
vt 0.94324 0.17521
vt 0.92203 0.08870
vt 1.98966 0.08790
vt 1.94324 0.17521
vt 1.99707 0.17457
vt 1.92203 0.08870
vt 0.77444 0.51804
vt 0.62754 0.51805
vt 0.92290 0.01696
vt 0.99705 0.02290
vt 0.97901 0.00293
vt 0.93642 0.00344
vt 1.99705 0.02290
vt 1.92290 0.01696
vt 1.97901 0.00293
vt 1.93642 0.00344
vt 0.81031 0.64418
vt 0.89204 0.56566
vt 0.88390 0.69032
vt 0.82710 0.54171
vt 0.95494 0.68016
vt 0.95493 0.56483
vt 0.51251 0.00860
vt 0.51251 0.06396
vt 0.47077 0.06396
vt 0.47077 0.00860
vt 0.65280 0.71804
vt 0.52813 0.72618
vt 0.60666 0.64446
vt 0.50418 0.66124
vt 0.64263 0.78909
vt 0.52730 0.78907
vt 0.90941 0.87838
vt 0.89487 0.86182
vt 0.90127 0.88168
vt 0.90938 0.92138
vt 0.83612 0.86736
vt 0.90108 0.91950
vt 0.87745 0.96970
vt 0.87851 0.98715
vt 0.83062 0.90625
vt 0.83884 0.90629
vt 0.84617 0.94613
vt 0.83821 0.94910
vt 0.86049 0.97003
vt 0.86113 0.98747
vt 1.83612 0.86736
vt 1.83063 0.90625
vt 1.89487 0.86182
vt 1.83884 0.90629
vt 1.84617 0.94613
vt 1.90941 0.87838
vt 1.83821 0.94910
vt 1.86049 0.97003
vt 1.86113 0.98747
vt 1.90127 0.88168
vt 1.90938 0.92138
vt 1.90108 0.91950
vt 1.87745 0.96970
vt 1.87851 0.98715
vt 0.62751 0.24361
vt 0.77441 0.24360
vt 0.50872 0.78464
vt 0.40459 0.93153
vt 0.40462 0.78463
vt 0.50870 0.93154
vt 0.85576 0.81266
vt 0.85575 0.73950
vt 0.90137 0.40606
vt 0.83500 0.53581
vt 0.85609 0.41048
vt 0.89192 0.55692
vt 0.94602 0.41506
vt 0.94671 0.55667
vt 0.89349 0.55752
vt 0.36854 0.73551
vt 0.49828 0.66914
vt 0.51939 0.72606
vt 0.37295 0.69023
vt 0.37753 0.78015
vt 0.51914 0.78085
vt 0.52000 0.72763
vt 0.39903 0.79293
vt 0.27206 0.92320
vt 0.27208 0.79291
vt 0.39901 0.92322
vt 0.89405 0.88539
vt 0.84758 0.90665
vt 0.89219 0.91739
vt 0.85474 0.94330
vt 0.86887 0.96585
vt 1.84758 0.90665
vt 1.89405 0.88539
vt 1.89219 0.91739
vt 1.85474 0.94330
vt 1.86887 0.96585
vt 0.63581 0.23522
vt 0.76610 0.23521
vt 0.38525 0.97248
vt 0.38524 0.99543
vt 1.38525 0.97248
vt 1.38524 0.99543
vt 0.63283 0.62886
vt 0.57360 0.62889
vt 1.63283 0.62886
vt 1.57360 0.62889
vt 0.35060 0.66958
vt 0.31268 0.60325
vt 0.35060 0.60325
vt 0.31268 0.66958
vt 1.31268 0.60325
vt 1.35060 0.66958
vt 1.35060 0.60325
vt 1.31268 0.66958
vt 0.63853 0.85636
vt 0.59638 0.85636
vt 1.63853 0.85636
vt 1.59638 0.85636
vt 0.07924 0.50957
vt 0.27932 0.50957
vt 0.58181 0.31254
vt 0.58368 0.22375
vt 0.61791 0.22375
vt 0.61978 0.31254
vt 1.58368 0.22375
vt 1.58181 0.31254
vt 1.61791 0.22375
vt 1.61978 0.31254
vt 0.35060 0.69020
vt 0.31268 0.69020
vt 1.35060 0.69020
vt 1.31268 0.69020
vt 0.36100 0.57941
vt 0.55379 0.57941
vt 0.36100 0.08268
vt 0.55378 0.08267
vt 0.27826 0.21979
vt 0.07522 0.21980
vt 0.27826 0.00293
vt 0.07521 0.00294
vt 0.31455 0.51459
vt 0.34873 0.51459
vt 1.31455 0.51459
vt 1.34873 0.51459
vt 0.91507 0.85800
vt 0.85207 0.85802
vt 0.91504 0.69413
vt 0.85204 0.69414
vt 0.17925 0.64643
vt 0.27103 0.70319
vt 0.17935 0.70898
vt 0.27274 0.66416
vt 0.14521 0.85965
vt 0.14033 0.91200
vt 0.36100 0.28858
vt 0.55379 0.28857
vt 0.36100 0.37352
vt 0.55378 0.37351
vt 0.27931 0.29588
vt 0.07923 0.29589
vt 1.05762 0.91708
vt 1.06874 0.98211
vt 0.05762 0.91708
vt 0.06874 0.98211
vt 0.91493 0.15034
vt 0.77986 0.15033
vt 0.77986 0.25486
vt 0.91492 0.25487
vt 0.61978 0.39962
vt 0.58181 0.39962
vt 0.58181 0.38596
vt 0.61978 0.38596
vt 1.61978 0.38596
vt 1.58181 0.38596
vt 1.61978 0.39962
vt 1.58181 0.39962
vt 0.00664 0.00293
vt 0.00722 0.00722
vt 0.06248 0.00294
vt 0.00722 0.06190
vt 0.06247 0.06619
vt 0.00664 0.06619
vt 0.46149 0.00293
vt 0.46149 0.04552
vt 0.42439 0.04552
vt 0.42439 0.00293
vt 1.42439 0.00293
vt 1.42439 0.04552
vt 1.46149 0.00293
vt 1.46149 0.04552
vt 0.10526 0.83212
vt 0.10555 0.82753
vt 0.05885 0.90790
vt 0.06289 0.85444
vt 0.06336 0.90737
vt 0.05887 0.85209
vt 0.99288 0.39285
vt 0.96269 0.39284
vt 1.99288 0.39285
vt 1.96269 0.39284
vt 0.08846 0.88158
vt 0.11671 0.88492
vt 1.11671 0.88492
vt 1.08846 0.88158
vt 0.10519 0.83296
vt 0.06372 0.85475
vt 0.06488 0.90868
vt 0.25683 0.97246
vt 0.30179 0.97247
vt 0.30179 0.99542
vt 0.25682 0.99542
vt 0.66596 0.93531
vt 0.62054 0.98815
vt 0.62054 0.93531
vt 0.66596 0.98815
vt 0.99417 0.68827
vt 0.99417 0.73682
vt 0.95244 0.68827
vt 0.95244 0.73682
vt 0.27460 0.74281
vt 0.28269 0.78456
vt 0.27769 0.62666
vt 0.18532 0.60125
vt 0.29499 0.94140
vt 0.28191 0.94610
vt 0.28969 0.93976
vt 0.46372 0.94036
vt 0.29521 0.96351
vt 0.28155 0.95892
vt 0.28986 0.96522
vt 0.46391 0.96300
vt 0.08181 0.99346
vt 0.09708 0.99527
vt 1.08181 0.99346
vt 1.09708 0.99527
vt 0.03281 0.44216
vt 0.06269 0.44216
vt 0.00293 0.44216
vt 1.00293 0.44216
vt 1.03281 0.44216
vt 1.06269 0.44216
vt 0.67956 0.52186
vt 0.65290 0.54577
vt 0.78408 0.52184
vt 0.81075 0.54574
vt 0.27826 0.29208
vt 0.07522 0.29208
vt 0.07924 0.58080
vt 0.27932 0.58080
vt 0.55379 0.35720
vt 0.36101 0.35721
vt 0.36101 0.64804
vt 0.55379 0.64804
vt 0.99289 0.35786
vt 0.96270 0.35786
vt 1.99289 0.35786
vt 1.96270 0.35786
vt 0.58298 0.54488
vt 0.63280 0.54486
vt 1.63280 0.54486
vt 1.58298 0.54488
vt 0.53703 0.84696
vt 0.54760 0.87504
vt 0.51580 0.84768
vt 0.52395 0.89356
vt 1.51580 0.84768
vt 1.54760 0.87504
vt 1.53703 0.84696
vt 1.52395 0.89356
vt 0.60688 0.79298
vt 0.63853 0.79298
vt 1.60688 0.79298
vt 1.63853 0.79298
vt 0.58105 0.84843
vt 0.60250 0.87567
vt 1.58105 0.84843
vt 1.60250 0.87567
vt 1.31957 0.97247
vt 1.36250 0.97248
vt 1.36249 0.99543
vt 1.31956 0.99543
vt 0.15332 0.85088
vt 0.14793 0.91883
vt 0.10635 0.81796
vt 0.05050 0.84700
vt 0.05132 0.90988
vt 0.13842 0.92664
vt 0.11244 0.98728
vt 0.99285 0.60154
vt 0.96266 0.60154
vt 1.11244 0.98728
vt 1.13842 0.92664
vt 1.96266 0.60154
vt 1.99285 0.60154
vt 0.36250 0.99543
vt 0.36250 0.97248
vt 0.56299 0.92800
vt 0.60198 0.92119
vt 0.51582 0.92020
vt 0.60145 0.96671
vt 0.52364 0.96582
vt 0.56238 0.98078
vt 1.56299 0.92800
vt 1.60197 0.92119
vt 1.51582 0.92020
vt 1.60145 0.96671
vt 1.52364 0.96582
vt 1.56238 0.98078
vt 0.54805 0.79307
vt 0.53151 0.79288
vt 1.54805 0.79307
vt 1.53151 0.79288
vt 0.58768 0.79352
vt 1.58768 0.79352
vt 0.03758 0.23500
vt 0.06129 0.20744
vt 0.06715 0.23500
vt 0.03758 0.20744
vt 0.01387 0.20744
vt 0.00801 0.23500
vt 1.00801 0.23500
vt 1.03758 0.23500
vt 1.01387 0.20744
vt 1.03758 0.20744
vt 1.06129 0.20744
vt 1.06715 0.23500
vt 0.31957 0.97247
vt 0.31956 0.99543
vt 0.98458 0.90328
vt 0.93813 0.81599
vt 0.99196 0.81661
vt 0.91695 0.90250
vt 0.56227 0.00293
vt 0.61607 0.04291
vt 0.55134 0.01767
vt 0.61607 0.00792
vt 0.55533 0.05575
vt 0.60849 0.08223
vt 0.58561 0.11819
vt 1.93813 0.81599
vt 1.98458 0.90328
vt 1.99196 0.81661
vt 1.91695 0.90250
vt 1.56227 0.00293
vt 1.61607 0.04291
vt 1.61607 0.00792
vt 1.55134 0.01767
vt 1.55533 0.05575
vt 1.60849 0.08223
vt 1.58561 0.11819
vt 0.91785 0.97425
vt 0.99200 0.96827
vt 0.97397 0.98825
vt 0.93138 0.98776
vt 1.91785 0.97425
vt 1.99200 0.96827
vt 1.97397 0.98825
vt 1.93138 0.98776
vt 0.73426 0.98584
vt 0.68883 0.94041
vt 0.73426 0.94041
vt 0.68883 0.98584
vt 0.64868 0.61300
vt 0.64866 0.56072
vt 1.64868 0.61300
vt 1.64866 0.56072
vt 0.65050 0.84439
vt 0.65050 0.80495
vt 1.65050 0.84439
vt 1.65050 0.80495
vt 0.06715 0.28147
vt 0.03758 0.28147
vt 0.00801 0.28147
vt 0.03758 0.32794
vt 0.06715 0.32794
vt 0.00801 0.32794
vt 1.03758 0.28147
vt 1.00801 0.28147
vt 1.03758 0.32794
vt 1.00801 0.32794
vt 1.06715 0.28147
vt 1.06715 0.32794
vt 0.81031 0.74205
vt 0.81033 0.81012
vt 0.05893 0.15132
vt 0.03758 0.15132
vt 0.01623 0.15132
vt 1.03758 0.15132
vt 1.01623 0.15132
vt 1.05893 0.15132
vt 0.96265 0.65557
vt 0.99284 0.65558
vt 1.99284 0.65558
vt 1.96265 0.65557
vt 0.00293 0.00664
vt 0.00293 0.06248
vt 0.29745 0.28415
vt 0.32520 0.31510
vt 0.30018 0.30673
vt 0.35294 0.28414
vt 0.35022 0.30672
vt 0.34767 0.24153
vt 0.30271 0.24154
vt 0.34766 0.22375
vt 0.30270 0.22376
vt 1.29745 0.28415
vt 1.32520 0.31510
vt 1.30018 0.30673
vt 1.35294 0.28414
vt 1.35022 0.30672
vt 1.34767 0.24153
vt 1.30271 0.24154
vt 1.34766 0.22375
vt 1.30270 0.22376
vt 1.16333 0.94038
vt 1.12591 0.99471
vt 0.16333 0.94038
vt 0.12591 0.99471
vt 0.00809 0.53794
vt 0.04982 0.53794
vt 0.00809 0.57968
vt 0.04982 0.57968
vt 0.31498 0.73569
vt 0.32254 0.77649
vt 0.27316 0.94675
vt 0.27326 0.95820
vn 0.9606 0.2913 0.0000
vn 0.9606 -0.2677 0.0000
vn 0.9921 0.1417 0.0000
vn 0.9921 -0.1417 0.0000
vn -0.9921 -0.1339 0.0000
vn -0.9921 -0.1024 0.0000
vn -0.9843 -0.1890 0.0000
vn 0.9606 -0.2835 0.0000
vn 0.9843 0.1811 0.0000
vn -0.9528 -0.3071 0.0000
vn 1.0000 0.0000 0.0000
vn -0.9606 -0.2756 0.0000
vn 0.0000 -1.0000 0.0000
vn 0.9843 0.1890 0.0000
vn 0.5669 -0.8268 0.0000
vn -1.0000 0.0000 0.0000
vn 0.0000 1.0000 0.0000
vn 0.0000 0.3701 0.9291
vn 0.0000 0.3701 -0.9291
vn 0.0000 0.9843 0.1654
vn 0.0000 0.9843 -0.1654
vn 0.0945 0.5827 0.8110
vn 0.0945 0.5827 -0.8110
vn 0.0000 0.9843 -0.1811
vn 0.0000 0.9843 0.1811
vn -0.0472 1.0000 0.0000
vn -0.7165 -0.7008 0.0000
vn 0.0630 -0.1339 -0.9921
vn 0.0630 -0.1339 0.9921
vn -0.5039 -0.4961 0.7087
vn -0.5039 -0.4961 -0.7087
vn 0.0000 0.0000 -1.0000
vn 0.0000 0.0000 1.0000
vn 0.1260 0.0000 0.9921
vn 0.0000 0.9685 -0.2598
vn 0.1260 0.0000 -0.9921
vn 0.0000 0.9685 0.2598
vn 0.0000 -0.2047 0.9764
vn 0.0000 -0.2047 -0.9764
vn 0.0000 0.5984 -0.8032
vn 0.0000 0.5984 0.8032
vn 0.7165 0.7008 0.0000
vn -0.9449 0.0000 0.3150
vn -0.9449 0.0000 -0.3150
vn -0.1181 0.0000 0.9921
vn 0.5039 0.4961 0.7087
vn -0.1181 0.0000 -0.9921
vn 0.5039 0.4961 -0.7087
vn -0.9764 0.1968 0.0000
vn 0.3465 0.9370 0.0000
vn 0.0000 -0.0394 1.0000
vn 0.0000 -0.0394 -1.0000
vn 0.0000 0.0315 1.0000
vn 0.0000 0.0315 -1.0000
vn 0.0000 0.0866 1.0000
vn 0.0000 0.0866 -1.0000
vn 0.0000 -0.0236 1.0000
vn 0.0000 -0.0236 -1.0000
vn -0.8740 -0.4882 0.0000
vn -0.7008 0.7165 0.0000
vn 0.0630 1.0000 0.0000
vn 0.1181 -0.9921 0.0000
vn -0.9921 -0.1260 0.0000
vn 0.9764 -0.2283 0.0000
vn -0.7480 0.6614 0.0000
vn -1.0000 0.0709 0.0000
vn 0.0000 -0.0551 1.0000
vn 0.0000 -0.0551 -1.0000
vn 0.9528 0.3071 0.0000
vn 0.0000 0.6535 -0.7559
vn 1.0000 -0.0787 0.0000
vn 0.0000 0.6535 0.7559
vn -0.0630 1.0000 0.0000
vn -0.0787 1.0000 0.0000
vn 0.0000 -0.1024 -0.9921
vn 0.0000 -0.1024 0.9921
vn 0.0000 -0.7480 0.6693
vn 0.0000 -0.7480 -0.6693
vn 0.7008 0.7165 0.0000
vn 1.0000 0.0236 0.0000
vn 0.0000 -0.1339 0.9921
vn 0.0000 -0.1339 -0.9921
vn 0.0000 0.2598 -0.9685
vn 0.0000 0.2598 0.9685
vn 0.0000 1.0000 0.0787
vn 0.0000 1.0000 -0.0787
vn 0.0000 -0.0709 1.0000
vn 0.0000 -0.0709 -1.0000
vn 0.0630 -1.0000 0.0000
vn 0.0787 1.0000 0.0000
vn -0.0709 -0.0236 1.0000
vn -0.0709 -0.0236 -1.0000
vn -0.0866 -0.1417 0.9843
vn -0.0866 -0.1417 -0.9843
vn -0.3465 0.9370 0.0000
vn 0.7008 -0.7165 0.0000
vn 0.0000 0.0709 -1.0000
vn 0.0000 0.0709 1.0000
vn -0.0394 -1.0000 0.0000
vn 0.0000 -0.2598 0.9685
vn 0.0000 -0.2598 -0.9685
vn 0.0000 -0.6535 0.7559
vn 0.0000 -0.6535 -0.7559
vn -0.7795 -0.6299 0.0000
vn 0.0000 -0.0315 -1.0000
vn 0.0000 -0.0315 1.0000
vn 0.0000 -0.5984 0.8032
vn 0.0000 -0.5984 -0.8032
vn 1.0000 0.0787 0.0000
vn -0.9921 0.1102 0.0000
vn 0.0000 -0.9843 -0.1654
vn 0.0000 -0.9843 0.1654
vn -0.6535 0.7559 0.0000
vn 0.0000 -0.3701 -0.9291
vn 0.0000 -0.3701 0.9291
vn 0.9921 -0.1339 0.0000
vn 0.9921 -0.1024 0.0000
vn 0.9921 0.0866 0.0000
vn -0.7402 0.6693 0.0000
vn 1.0000 -0.0551 0.0000

o animal_wolf
usemtl tex_animal_wolf_i030p001x
f 1/1/1 2/2/1 3/3/1
f 1/1/1 4/4/1 2/2/1
f 5/5/2 6/6/2 7/7/2
f 8/8/2 6/6/2 5/5/2
f 9/9/2 6/6/2 8/8/2
f 6/6/2 9/9/2 10/10/2
f 11/11/2 12/12/2 13/13/2
f 12/12/2 11/11/2 14/14/2
f 15/15/2 12/12/2 14/14/2
f 12/12/2 15/15/2 16/16/2
f 17/17/3 18/18/3 19/19/3
f 18/18/3 17/17/3 20/20/3
f 21/21/4 19/19/4 22/22/4
f 19/19/4 21/21/4 17/17/4
f 23/23/5 24/24/5 25/25/5
f 23/23/5 26/26/5 24/24/5
f 27/27/6 28/28/6 29/29/6
f 28/28/6 27/27/6 30/30/6
f 31/31/7 32/32/7 33/33/7
f 33/33/7 34/34/7 31/31/7
f 35/35/7 36/36/7 37/37/7
f 35/35/7 38/38/7 36/36/7
f 39/39/8 40/40/8 41/41/8
f 40/40/8 42/42/8 41/41/8
f 40/40/8 43/43/8 42/42/8
f 43/43/8 44/44/8 42/42/8
f 45/45/8 46/46/8 47/47/8
f 48/48/8 46/46/8 45/45/8
f 48/48/8 49/49/8 46/46/8
f 49/49/8 48/48/8 50/50/8
f 41/41/9 42/42/9 51/51/9
f 42/42/9 52/52/9 51/51/9
f 42/42/9 44/44/9 52/52/9
f 44/44/9 53/53/9 52/52/9
f 54/54/10 55/55/10 56/56/10
f 55/55/10 54/54/10 57/57/10
f 47/47/9 58/58/9 59/59/9
f 58/58/9 47/47/9 46/46/9
f 46/46/9 60/60/9 58/58/9
f 60/60/9 46/46/9 49/49/9
f 61/61/11 62/62/11 63/63/11
f 61/61/11 64/64/11 62/62/11
f 65/61/11 66/62/11 67/64/11
f 66/62/11 65/61/11 68/63/11
f 69/65/12 70/66/12 71/67/12
f 70/66/12 69/65/12 72/68/12
f 73/69/12 74/70/12 75/71/12
f 74/70/12 73/69/12 76/72/12
f 77/73/13 78/74/13 79/75/13
f 78/74/13 80/76/13 79/75/13
f 80/76/13 78/74/13 81/77/13
f 82/78/13 79/75/13 80/76/13
f 79/75/13 82/78/13 83/79/13
f 84/80/13 83/79/13 82/78/13
f 83/79/13 84/80/13 85/81/13
f 86/82/13 87/83/13 88/84/13
f 87/83/13 89/85/13 88/84/13
f 89/85/13 87/83/13 90/86/13
f 91/87/13 88/84/13 89/85/13
f 88/84/13 91/87/13 92/88/13
f 64/89/13 92/88/13 91/87/13
f 92/88/13 64/89/13 61/90/13
f 93/83/13 94/85/13 95/86/13
f 93/83/13 96/84/13 94/85/13
f 96/84/13 93/83/13 97/82/13
f 94/85/13 96/84/13 98/87/13
f 99/88/13 98/87/13 96/84/13
f 98/87/13 99/88/13 100/89/13
f 100/89/13 99/88/13 101/90/13
f 102/83/13 103/85/13 104/86/13
f 102/83/13 105/84/13 103/85/13
f 105/84/13 102/83/13 106/82/13
f 103/85/13 105/84/13 107/87/13
f 108/88/13 107/87/13 105/84/13
f 107/87/13 108/88/13 67/89/13
f 67/89/13 108/88/13 65/90/13
f 40/40/14 39/39/14 7/7/14
f 6/6/14 40/40/14 7/7/14
f 10/10/14 40/40/14 6/6/14
f 40/40/14 10/10/14 43/43/14
f 13/13/14 48/48/14 45/45/14
f 48/48/14 13/13/14 12/12/14
f 16/16/14 48/48/14 12/12/14
f 48/48/14 16/16/14 50/50/14
f 109/71/12 110/72/12 111/69/12
f 110/72/12 109/71/12 112/70/12
f 113/72/12 114/71/12 115/69/12
f 116/70/12 114/71/12 113/72/12
f 117/91/15 1/1/15 118/92/15
f 1/1/15 117/91/15 4/4/15
f 119/93/13 120/94/13 121/95/13
f 120/94/13 119/93/13 122/96/13
f 123/97/13 124/98/13 125/99/13
f 123/97/13 125/99/13 126/100/13
f 127/101/16 128/102/16 129/103/16
f 128/102/16 127/101/16 130/104/16
f 131/105/16 132/106/16 133/107/16
f 131/105/16 134/108/16 132/106/16
f 135/109/16 136/110/16 137/111/16
f 136/110/16 135/109/16 138/112/16
f 139/113/17 140/114/17 141/115/17
f 142/116/17 139/113/17 141/115/17
f 143/117/16 144/118/16 145/119/16
f 143/117/16 146/120/16 144/118/16
f 139/113/16 147/121/16 148/122/16
f 142/116/16 147/121/16 139/113/16
f 147/121/16 142/116/16 149/123/16
f 149/123/16 142/116/16 150/124/16
f 151/125/18 152/126/18 153/127/18
f 151/125/18 153/127/18 154/128/18
f 155/129/19 156/130/19 157/131/19
f 158/132/19 157/131/19 156/130/19
f 159/133/20 160/134/20 161/135/20
f 159/133/20 161/135/20 162/136/20
f 163/137/21 164/138/21 165/139/21
f 166/140/21 165/139/21 164/138/21
f 1/1/22 167/141/22 168/142/22
f 167/141/22 1/1/22 3/3/22
f 169/143/23 4/144/23 170/145/23
f 169/143/23 2/146/23 4/144/23
f 171/147/24 172/148/24 137/111/24
f 135/109/24 137/111/24 172/148/24
f 173/149/25 146/120/25 143/117/25
f 146/120/25 173/149/25 174/150/25
f 167/151/26 3/3/26 169/152/26
f 169/152/26 3/3/26 2/2/26
f 175/153/27 176/154/27 177/155/27
f 178/156/27 176/154/27 175/153/27
f 179/157/28 16/158/28 180/159/28
f 16/158/28 179/157/28 50/160/28
f 7/161/29 181/162/29 182/163/29
f 181/162/29 7/161/29 39/164/29
f 183/165/30 184/166/30 185/167/30
f 184/166/30 183/165/30 186/168/30
f 187/169/31 188/170/31 189/171/31
f 188/170/31 187/169/31 190/172/31
f 191/173/32 192/174/32 193/175/32
f 192/174/32 191/173/32 194/176/32
f 195/177/33 196/178/33 197/179/33
f 196/178/33 195/177/33 198/180/33
f 199/181/34 88/182/34 92/183/34
f 88/182/34 199/181/34 200/184/34
f 201/185/35 202/186/35 129/103/35
f 127/101/35 129/103/35 202/186/35
f 203/184/36 204/181/36 105/182/36
f 105/182/36 204/181/36 108/183/36
f 134/108/37 131/105/37 205/187/37
f 134/108/37 205/187/37 206/188/37
f 181/162/38 207/189/38 208/190/38
f 208/190/38 182/163/38 181/162/38
f 209/191/39 210/192/39 179/157/39
f 209/191/39 179/157/39 180/159/39
f 151/125/40 154/128/40 211/193/40
f 211/193/40 154/128/40 212/194/40
f 156/130/41 213/195/41 158/132/41
f 213/195/41 214/196/41 158/132/41
f 215/197/42 216/198/42 217/199/42
f 216/198/42 215/197/42 218/200/42
f 219/201/43 78/202/43 77/203/43
f 220/204/43 78/202/43 219/201/43
f 221/205/44 222/206/44 93/207/44
f 222/206/44 97/208/44 93/207/44
f 219/201/45 77/203/45 79/209/45
f 219/201/45 79/209/45 223/210/45
f 224/211/46 225/212/46 226/213/46
f 225/212/46 224/211/46 227/214/46
f 222/206/47 96/182/47 97/208/47
f 96/182/47 222/206/47 228/184/47
f 229/215/48 230/216/48 231/217/48
f 230/216/48 229/215/48 232/218/48
f 233/219/49 234/220/49 235/221/49
f 233/219/49 236/222/49 234/220/49
f 237/223/33 207/189/33 181/162/33
f 207/189/33 237/223/33 238/224/33
f 237/223/33 181/162/33 39/164/33
f 239/225/33 238/224/33 237/223/33
f 237/223/33 39/164/33 41/226/33
f 237/223/33 240/227/33 239/225/33
f 51/228/33 237/223/33 41/226/33
f 237/223/33 51/228/33 240/227/33
f 210/192/32 241/229/32 179/157/32
f 179/157/32 241/229/32 50/160/32
f 241/229/32 210/192/32 242/230/32
f 50/160/32 241/229/32 49/231/32
f 243/232/32 241/229/32 242/230/32
f 241/229/32 60/233/32 49/231/32
f 241/229/32 243/232/32 244/234/32
f 60/233/32 241/229/32 244/234/32
f 240/235/50 51/236/50 52/237/50
f 245/238/50 240/235/50 52/237/50
f 245/238/50 52/237/50 53/239/50
f 246/240/50 245/238/50 53/239/50
f 247/241/50 59/242/50 248/243/50
f 248/243/50 59/242/50 58/244/50
f 248/243/50 58/244/50 244/245/50
f 244/245/50 58/244/50 60/246/50
f 5/247/51 182/163/51 249/248/51
f 182/163/51 5/247/51 7/161/51
f 209/191/52 250/249/52 251/250/52
f 250/249/52 209/191/52 180/159/52
f 180/159/52 15/251/52 250/249/52
f 15/251/52 180/159/52 16/158/52
f 249/248/51 208/190/51 252/252/51
f 208/190/51 249/248/51 182/163/51
f 253/253/53 254/254/53 152/126/53
f 152/126/53 254/254/53 153/127/53
f 255/255/54 155/129/54 256/256/54
f 155/129/54 157/131/54 256/256/54
f 257/257/33 83/258/33 85/259/33
f 83/258/33 257/257/33 258/260/33
f 92/183/33 63/261/33 199/181/33
f 63/261/33 92/183/33 61/262/33
f 139/263/55 148/264/55 259/265/55
f 139/263/55 259/265/55 140/266/55
f 99/183/32 260/261/32 101/262/32
f 99/183/32 261/181/32 260/261/32
f 108/183/32 204/181/32 68/261/32
f 108/183/32 68/261/32 65/262/32
f 142/267/56 141/268/56 150/269/56
f 150/269/56 141/268/56 262/270/56
f 263/271/57 121/272/57 120/273/57
f 263/271/57 120/273/57 264/274/57
f 228/184/36 261/181/36 96/182/36
f 96/182/36 261/181/36 99/183/36
f 265/275/58 125/276/58 124/277/58
f 125/276/58 265/275/58 266/278/58
f 79/209/34 258/260/34 223/210/34
f 258/260/34 79/209/34 83/258/34
f 235/221/59 267/279/59 268/280/59
f 235/221/59 234/220/59 267/279/59
f 269/281/33 270/282/33 263/271/33
f 263/271/33 264/274/33 269/281/33
f 270/282/33 269/281/33 271/283/33
f 271/283/33 269/281/33 272/284/33
f 265/275/32 273/285/32 274/286/32
f 265/275/32 274/286/32 266/278/32
f 274/286/32 273/285/32 275/287/32
f 274/286/32 275/287/32 276/288/32
f 175/153/60 217/199/60 178/156/60
f 178/156/60 217/199/60 216/198/60
f 198/180/60 194/176/60 196/178/60
f 191/173/60 196/178/60 194/176/60
f 185/167/60 230/216/60 183/165/60
f 232/218/60 183/165/60 230/216/60
f 225/212/60 187/169/60 226/213/60
f 187/169/60 225/212/60 190/172/60
f 268/289/33 277/290/33 235/291/33
f 277/290/33 268/289/33 278/292/33
f 233/293/33 235/291/33 277/290/33
f 233/293/33 277/290/33 279/294/33
f 54/295/17 280/296/17 281/297/17
f 57/298/17 54/295/17 281/297/17
f 234/299/32 282/300/32 267/301/32
f 267/301/32 282/300/32 283/302/32
f 236/303/32 282/300/32 234/299/32
f 282/300/32 236/303/32 284/304/32
f 285/206/47 105/182/47 106/208/47
f 105/182/47 285/206/47 203/184/47
f 286/206/45 86/208/45 88/182/45
f 286/206/45 88/182/45 200/184/45
f 253/305/16 160/134/16 287/306/16
f 160/134/16 253/305/16 288/307/16
f 159/133/16 287/306/16 160/134/16
f 152/308/16 288/307/16 253/305/16
f 287/306/16 159/133/16 289/309/16
f 288/307/16 152/308/16 290/310/16
f 291/311/16 290/310/16 152/308/16
f 152/308/16 151/312/16 291/311/16
f 292/313/16 289/309/16 159/133/16
f 292/313/16 159/133/16 293/314/16
f 294/315/16 292/313/16 293/314/16
f 292/313/16 294/315/16 211/316/16
f 211/316/16 291/317/16 151/318/16
f 291/317/16 211/316/16 294/315/16
f 164/138/16 295/319/16 296/320/16
f 164/138/16 297/321/16 295/319/16
f 298/322/16 164/138/16 296/320/16
f 297/321/16 164/138/16 163/137/16
f 296/320/16 299/323/16 298/322/16
f 163/137/16 255/324/16 297/321/16
f 299/323/16 296/320/16 213/325/16
f 213/325/16 300/326/16 299/323/16
f 300/326/16 213/325/16 156/327/16
f 255/324/16 163/137/16 301/328/16
f 301/328/16 155/329/16 255/324/16
f 155/329/16 301/328/16 302/330/16
f 300/331/16 155/329/16 302/330/16
f 156/332/16 155/329/16 300/331/16
f 233/219/61 279/333/61 284/334/61
f 236/222/61 233/219/61 284/334/61
f 268/335/62 283/336/62 278/337/62
f 267/338/62 283/336/62 268/335/62
f 38/38/17 35/35/17 303/339/17
f 38/38/17 303/339/17 304/340/17
f 19/341/33 305/342/33 22/343/33
f 305/342/33 19/341/33 306/344/33
f 18/345/33 306/344/33 19/341/33
f 307/346/33 306/344/33 18/345/33
f 306/344/33 307/346/33 308/347/33
f 17/348/32 309/349/32 310/350/32
f 309/349/32 17/348/32 21/351/32
f 310/350/32 20/352/32 17/348/32
f 20/352/32 310/350/32 311/353/32
f 311/353/32 310/350/32 312/354/32
f 305/355/62 21/356/62 22/357/62
f 21/356/62 305/355/62 309/358/62
f 313/359/16 314/360/16 161/135/16
f 161/135/16 314/360/16 162/136/16
f 315/361/16 314/360/16 313/359/16
f 315/361/16 316/362/16 314/360/16
f 316/362/16 315/361/16 317/363/16
f 318/364/16 165/139/16 166/140/16
f 318/364/16 319/365/16 165/139/16
f 319/365/16 318/364/16 320/366/16
f 320/366/16 318/364/16 321/367/16
f 320/366/16 321/367/16 322/368/16
f 307/369/61 18/18/61 20/20/61
f 311/370/61 307/369/61 20/20/61
f 220/204/44 81/371/44 78/202/44
f 323/372/44 81/371/44 220/204/44
f 221/205/43 93/207/43 95/373/43
f 324/374/43 221/205/43 95/373/43
f 137/111/33 136/110/33 325/375/33
f 137/111/33 325/375/33 171/376/33
f 146/120/32 326/377/32 144/118/32
f 326/377/32 146/120/32 174/378/32
f 270/379/63 327/380/63 263/381/63
f 327/380/63 270/379/63 328/382/63
f 329/383/63 273/384/63 265/385/63
f 273/384/63 329/383/63 330/386/63
f 129/103/33 128/102/33 331/387/33
f 129/103/33 331/387/33 201/388/33
f 134/108/32 332/389/32 132/106/32
f 332/389/32 134/108/32 206/390/32
f 191/173/27 197/391/27 196/178/27
f 197/391/27 191/173/27 193/392/27
f 264/393/64 120/394/64 122/395/64
f 122/395/64 333/396/64 264/393/64
f 125/397/64 266/398/64 126/399/64
f 126/399/64 266/398/64 334/400/64
f 271/401/65 328/382/65 270/379/65
f 271/401/65 335/402/65 328/382/65
f 273/384/65 330/386/65 275/403/65
f 336/404/65 275/403/65 330/386/65
f 224/405/30 187/169/30 189/406/30
f 226/213/30 187/169/30 224/405/30
f 183/165/31 229/407/31 186/408/31
f 229/407/31 183/165/31 232/218/31
f 177/409/33 217/199/33 175/153/33
f 217/199/33 177/409/33 215/410/33
f 216/198/32 176/411/32 178/156/32
f 176/411/32 216/198/32 218/412/32
f 263/381/66 119/413/66 121/414/66
f 119/413/66 263/381/66 327/380/66
f 123/415/66 265/385/66 124/416/66
f 265/385/66 123/415/66 329/383/66
f 37/417/67 303/339/67 35/35/67
f 303/339/67 37/417/67 337/418/67
f 38/38/68 304/340/68 36/419/68
f 36/419/68 304/340/68 338/420/68
f 305/342/69 277/290/69 278/292/69
f 277/290/69 305/342/69 306/344/69
f 308/347/69 277/290/69 306/344/69
f 278/337/69 283/336/69 305/355/69
f 305/355/69 283/336/69 309/358/69
f 288/307/70 313/359/70 160/134/70
f 160/134/70 313/359/70 161/135/70
f 308/347/71 307/346/71 277/290/71
f 277/290/71 307/346/71 279/294/71
f 311/370/71 279/333/71 307/369/71
f 279/333/71 311/370/71 284/334/71
f 310/350/69 282/300/69 312/354/69
f 282/300/69 310/350/69 309/349/69
f 283/302/69 282/300/69 309/349/69
f 301/328/72 163/137/72 319/365/72
f 163/137/72 165/139/72 319/365/72
f 282/300/71 311/353/71 312/354/71
f 311/353/71 282/300/71 284/304/71
f 339/421/73 340/422/73 341/423/73
f 340/422/73 339/421/73 342/424/73
f 28/28/74 23/425/74 29/29/74
f 26/426/74 23/425/74 28/28/74
f 231/427/46 185/167/46 184/428/46
f 230/216/46 185/167/46 231/427/46
f 227/429/48 190/172/48 225/212/48
f 190/172/48 227/429/48 188/430/48
f 192/431/42 198/180/42 195/432/42
f 198/180/42 192/431/42 194/176/42
f 75/71/75 343/433/75 344/434/75
f 343/433/75 75/71/75 74/70/75
f 345/435/76 71/67/76 346/436/76
f 71/67/76 345/435/76 69/65/76
f 259/265/77 148/264/77 147/437/77
f 147/437/77 347/438/77 259/265/77
f 150/269/78 348/439/78 149/440/78
f 348/439/78 150/269/78 262/270/78
f 349/433/76 109/71/76 350/434/76
f 109/71/76 349/433/76 112/70/76
f 351/441/79 272/442/79 269/443/79
f 351/441/79 269/443/79 352/444/79
f 114/71/75 353/433/75 354/434/75
f 353/433/75 114/71/75 116/70/75
f 355/445/79 274/446/79 356/447/79
f 276/448/79 356/447/79 274/446/79
f 269/443/80 264/393/80 333/396/80
f 333/396/80 352/444/80 269/443/80
f 266/398/80 274/446/80 334/400/80
f 334/400/80 274/446/80 355/445/80
f 357/449/81 25/25/81 358/450/81
f 25/25/81 357/449/81 23/451/81
f 359/452/82 24/24/82 26/453/82
f 26/453/82 360/454/82 359/452/82
f 271/455/17 272/456/17 351/457/17
f 335/458/17 271/455/17 351/457/17
f 336/459/17 356/460/17 275/461/17
f 275/461/17 356/460/17 276/462/17
f 29/29/76 361/463/76 27/27/76
f 27/27/76 361/463/76 362/464/76
f 30/465/75 363/466/75 28/467/75
f 363/466/75 30/465/75 364/468/75
f 292/469/83 212/194/83 365/470/83
f 212/194/83 292/469/83 211/193/83
f 296/471/84 366/472/84 214/196/84
f 213/195/84 296/471/84 214/196/84
f 69/65/17 345/473/17 367/474/17
f 72/68/17 69/65/17 367/474/17
f 76/72/17 368/475/17 74/70/17
f 74/70/17 368/475/17 343/476/17
f 112/70/17 349/476/17 369/475/17
f 110/72/17 112/70/17 369/475/17
f 370/475/17 116/70/17 113/72/17
f 116/70/17 370/475/17 353/476/17
f 23/425/85 361/463/85 29/29/85
f 23/425/85 357/477/85 361/463/85
f 360/478/86 26/479/86 28/467/86
f 360/478/86 28/467/86 363/466/86
f 293/314/87 159/133/87 162/136/87
f 293/314/87 162/136/87 314/360/87
f 164/138/88 298/322/88 166/140/88
f 318/364/88 166/140/88 298/322/88
f 85/480/11 84/481/11 371/482/11
f 85/480/11 371/482/11 257/483/11
f 101/61/11 372/62/11 100/64/11
f 372/62/11 101/61/11 260/63/11
f 56/484/33 280/485/33 54/486/33
f 280/485/33 56/484/33 373/487/33
f 57/488/32 281/489/32 55/490/32
f 55/490/32 281/489/32 374/491/32
f 375/492/89 117/91/89 118/92/89
f 376/493/89 117/91/89 375/492/89
f 357/477/90 363/466/90 361/463/90
f 363/466/90 357/477/90 360/478/90
f 341/423/91 375/492/91 118/92/91
f 375/492/91 341/423/91 340/422/91
f 342/424/92 339/421/92 376/494/92
f 376/494/92 339/421/92 117/495/92
f 377/496/33 31/31/33 378/497/33
f 377/496/33 378/497/33 379/498/33
f 377/496/33 32/32/33 31/31/33
f 32/32/33 377/496/33 380/499/33
f 381/500/32 382/501/32 34/34/32
f 382/501/32 381/500/32 383/502/32
f 34/34/32 33/33/32 381/500/32
f 384/503/32 381/500/32 33/33/32
f 118/92/93 168/142/93 341/423/93
f 168/142/93 118/92/93 1/1/93
f 170/145/94 117/495/94 339/421/94
f 4/144/94 117/495/94 170/145/94
f 70/66/13 346/504/13 71/67/13
f 346/504/13 70/66/13 385/505/13
f 73/69/13 344/506/13 386/507/13
f 73/69/13 75/71/13 344/506/13
f 387/508/95 239/509/95 245/238/95
f 239/509/95 240/235/95 245/238/95
f 387/508/95 245/238/95 246/240/95
f 388/510/95 387/508/95 246/240/95
f 389/511/95 247/241/95 390/512/95
f 390/512/95 247/241/95 248/243/95
f 248/243/95 243/513/95 390/512/95
f 243/513/95 248/243/95 244/245/95
f 347/514/11 140/114/11 259/515/11
f 347/514/11 141/115/11 140/114/11
f 348/516/11 141/115/11 347/514/11
f 141/115/11 348/516/11 262/517/11
f 176/518/96 215/410/96 177/409/96
f 215/410/96 176/518/96 218/519/96
f 197/391/96 193/392/96 195/520/96
f 192/521/96 195/520/96 193/392/96
f 186/522/96 231/427/96 184/428/96
f 231/427/96 186/522/96 229/523/96
f 224/405/96 189/406/96 227/524/96
f 227/524/96 189/406/96 188/525/96
f 292/469/97 365/470/97 289/526/97
f 289/526/97 365/470/97 391/527/97
f 296/471/98 295/528/98 366/472/98
f 295/528/98 392/529/98 366/472/98
f 111/69/13 350/506/13 109/71/13
f 350/506/13 111/69/13 393/507/13
f 149/440/13 347/438/13 147/437/13
f 347/438/13 149/440/13 348/439/13
f 115/69/13 114/71/13 354/506/13
f 115/69/13 354/506/13 394/507/13
f 138/112/32 172/530/32 395/531/32
f 172/530/32 138/112/32 135/109/32
f 396/532/33 173/533/33 145/119/33
f 143/117/33 145/119/33 173/533/33
f 24/24/13 358/450/13 25/25/13
f 358/450/13 24/24/13 359/452/13
f 397/534/28 398/535/28 10/536/28
f 398/535/28 43/537/28 10/536/28
f 13/538/29 399/539/29 400/540/29
f 399/539/29 13/538/29 45/541/29
f 31/31/99 34/34/99 378/497/99
f 34/34/99 382/501/99 378/497/99
f 294/315/100 293/314/100 314/360/100
f 294/315/100 314/360/100 316/362/100
f 298/322/101 299/323/101 318/364/101
f 321/367/101 318/364/101 299/323/101
f 130/104/32 127/101/32 202/542/32
f 130/104/32 202/542/32 401/543/32
f 131/105/33 133/107/33 205/544/33
f 402/545/33 205/544/33 133/107/33
f 403/546/39 398/535/39 397/534/39
f 398/535/39 403/546/39 404/547/39
f 399/539/38 405/548/38 400/540/38
f 405/548/38 399/539/38 406/549/38
f 91/550/36 89/551/36 407/552/36
f 407/552/36 408/553/36 91/550/36
f 107/550/34 409/552/34 103/551/34
f 409/552/34 107/550/34 410/553/34
f 362/464/13 37/554/13 27/27/13
f 36/555/13 27/27/13 37/554/13
f 27/27/13 36/555/13 30/30/13
f 337/556/13 37/554/13 362/464/13
f 364/468/13 337/556/13 362/464/13
f 337/556/13 364/468/13 338/557/13
f 364/468/13 36/558/13 338/557/13
f 36/558/13 364/468/13 30/465/13
f 70/66/75 367/559/75 385/560/75
f 70/66/75 72/68/75 367/559/75
f 287/561/102 411/562/102 253/253/102
f 253/253/102 411/562/102 254/254/102
f 386/563/76 368/564/76 73/69/76
f 76/72/76 73/69/76 368/564/76
f 412/565/103 297/566/103 255/255/103
f 255/255/103 256/256/103 412/565/103
f 81/371/47 323/372/47 413/567/47
f 81/371/47 413/567/47 80/568/47
f 111/69/75 369/564/75 393/563/75
f 111/69/75 110/72/75 369/564/75
f 414/552/45 95/373/45 94/551/45
f 95/373/45 414/552/45 324/374/45
f 394/563/76 370/564/76 115/69/76
f 113/72/76 115/69/76 370/564/76
f 404/547/32 415/569/32 398/535/32
f 415/569/32 43/537/32 398/535/32
f 415/569/32 404/547/32 416/570/32
f 43/537/32 415/569/32 44/571/32
f 388/572/32 415/569/32 416/570/32
f 415/569/32 53/573/32 44/571/32
f 415/569/32 388/572/32 246/574/32
f 246/574/32 53/573/32 415/569/32
f 406/549/33 399/539/33 417/575/33
f 45/541/33 417/575/33 399/539/33
f 406/549/33 417/575/33 418/576/33
f 417/575/33 45/541/33 47/577/33
f 417/575/33 389/578/33 418/576/33
f 417/575/33 47/577/33 59/579/33
f 389/578/33 417/575/33 247/580/33
f 247/580/33 417/575/33 59/579/33
f 419/581/52 397/534/52 9/582/52
f 10/536/52 9/582/52 397/534/52
f 400/540/51 420/583/51 11/584/51
f 400/540/51 11/584/51 13/538/51
f 421/585/52 403/546/52 419/581/52
f 403/546/52 397/534/52 419/581/52
f 422/586/51 420/583/51 405/548/51
f 405/548/51 420/583/51 400/540/51
f 423/587/104 208/588/104 207/589/104
f 208/588/104 423/587/104 424/590/104
f 423/587/104 403/591/104 424/590/104
f 404/592/104 403/591/104 423/587/104
f 406/593/104 425/594/104 405/595/104
f 425/594/104 426/596/104 405/595/104
f 425/594/104 209/597/104 426/596/104
f 209/597/104 425/594/104 210/598/104
f 82/599/32 427/600/32 84/481/32
f 427/600/32 371/482/32 84/481/32
f 91/550/32 408/553/32 64/64/32
f 408/553/32 62/62/32 64/64/32
f 98/550/33 100/64/33 428/553/33
f 428/553/33 100/64/33 372/62/33
f 107/550/33 67/64/33 410/553/33
f 410/553/33 67/64/33 66/62/33
f 82/599/36 80/568/36 413/567/36
f 413/567/36 427/600/36 82/599/36
f 98/550/34 414/552/34 94/551/34
f 414/552/34 98/550/34 428/553/34
f 327/601/58 122/602/58 119/603/58
f 122/602/58 327/601/58 333/604/58
f 411/605/11 365/606/11 254/607/11
f 365/606/11 411/605/11 391/608/11
f 365/606/11 153/609/11 254/607/11
f 153/609/11 365/606/11 212/610/11
f 153/609/11 212/610/11 154/611/11
f 126/612/57 329/613/57 123/614/57
f 329/613/57 126/612/57 334/615/57
f 412/616/11 366/617/11 392/618/11
f 366/617/11 412/616/11 256/619/11
f 366/617/11 256/619/11 157/620/11
f 366/617/11 157/620/11 214/621/11
f 157/620/11 158/622/11 214/621/11
f 352/623/32 327/601/32 328/624/32
f 327/601/32 352/623/32 333/604/32
f 335/625/32 352/623/32 328/624/32
f 352/623/32 335/625/32 351/626/32
f 355/627/33 329/613/33 334/615/33
f 329/613/33 355/627/33 330/628/33
f 355/627/33 336/629/33 330/628/33
f 336/629/33 355/627/33 356/630/33
f 90/373/47 407/552/47 89/551/47
f 90/373/47 429/374/47 407/552/47
f 409/552/45 104/373/45 103/551/45
f 104/373/45 409/552/45 430/374/45
f 55/631/13 373/632/13 56/633/13
f 373/632/13 55/631/13 374/634/13
f 431/205/43 87/207/43 286/206/43
f 286/206/43 87/207/43 86/208/43
f 432/205/44 285/206/44 102/207/44
f 285/206/44 106/208/44 102/207/44
f 315/361/105 288/307/105 290/310/105
f 288/307/105 315/361/105 313/359/105
f 302/330/106 301/328/106 320/366/106
f 319/365/106 320/366/106 301/328/106
f 138/112/13 325/635/13 136/110/13
f 325/635/13 138/112/13 395/636/13
f 145/119/13 326/637/13 396/638/13
f 145/119/13 144/118/13 326/637/13
f 130/104/13 331/639/13 128/102/13
f 331/639/13 130/104/13 401/640/13
f 133/107/13 332/641/13 402/642/13
f 133/107/13 132/106/13 332/641/13
f 316/362/107 291/317/107 294/315/107
f 291/317/107 316/362/107 317/363/107
f 299/323/108 300/326/108 321/367/108
f 322/368/108 321/367/108 300/326/108
f 238/643/16 423/587/16 207/589/16
f 423/587/16 238/643/16 433/644/16
f 433/644/16 404/592/16 423/587/16
f 404/592/16 433/644/16 416/645/16
f 238/643/16 387/646/16 433/644/16
f 387/646/16 416/645/16 433/644/16
f 387/646/16 238/643/16 239/647/16
f 416/645/16 387/646/16 388/648/16
f 434/649/16 406/593/16 418/650/16
f 406/593/16 434/649/16 425/594/16
f 418/650/16 390/651/16 434/649/16
f 390/651/16 418/650/16 389/652/16
f 242/653/16 425/594/16 434/649/16
f 390/651/16 242/653/16 434/649/16
f 425/594/16 242/653/16 210/598/16
f 390/651/16 243/654/16 242/653/16
f 431/205/44 90/373/44 87/207/44
f 429/374/44 90/373/44 431/205/44
f 432/205/43 102/207/43 104/373/43
f 430/374/43 432/205/43 104/373/43
f 338/655/109 303/339/109 337/656/109
f 303/339/109 338/655/109 304/340/109
f 252/657/110 424/590/110 435/658/110
f 424/590/110 252/657/110 208/588/110
f 424/590/110 421/659/110 435/658/110
f 403/591/110 421/659/110 424/590/110
f 426/596/110 436/660/110 422/661/110
f 422/661/110 405/595/110 426/596/110
f 426/596/110 251/662/110 436/660/110
f 251/662/110 426/596/110 209/597/110
f 287/561/111 391/663/111 411/562/111
f 287/561/111 289/664/111 391/663/111
f 295/665/112 297/566/112 392/666/112
f 412/565/112 392/666/112 297/566/112
f 169/143/113 168/142/113 167/141/113
f 168/142/113 169/143/113 170/145/113
f 290/310/114 291/311/114 317/363/114
f 290/310/114 317/363/114 315/361/114
f 300/331/115 302/330/115 322/368/115
f 320/366/115 322/368/115 302/330/115
f 359/452/116 357/667/116 358/450/116
f 357/667/116 359/452/116 360/668/116
f 363/466/117 362/464/117 361/463/117
f 362/464/117 363/466/117 364/468/117
f 223/669/17 220/670/17 219/671/17
f 220/670/17 223/669/17 413/672/17
f 220/670/17 413/672/17 323/673/17
f 223/669/17 427/674/17 413/672/17
f 427/674/17 223/669/17 258/675/17
f 258/675/17 371/676/17 427/674/17
f 371/676/17 258/675/17 257/677/17
f 200/678/17 431/679/17 286/680/17
f 431/679/17 200/678/17 407/681/17
f 431/679/17 407/681/17 429/682/17
f 200/678/17 408/683/17 407/681/17
f 408/683/17 200/678/17 199/684/17
f 199/684/17 62/685/17 408/683/17
f 62/685/17 199/684/17 63/686/17
f 221/679/17 324/682/17 414/681/17
f 228/678/17 221/679/17 414/681/17
f 221/679/17 228/678/17 222/680/17
f 428/683/17 228/678/17 414/681/17
f 228/678/17 428/683/17 261/684/17
f 428/683/17 260/686/17 261/684/17
f 260/686/17 428/683/17 372/685/17
f 432/679/17 430/682/17 409/681/17
f 203/678/17 432/679/17 409/681/17
f 432/679/17 203/678/17 285/680/17
f 410/683/17 203/678/17 409/681/17
f 203/678/17 410/683/17 204/684/17
f 410/683/17 68/686/17 204/684/17
f 68/686/17 410/683/17 66/685/17
f 349/687/118 350/688/118 393/563/118
f 393/563/118 369/564/118 349/687/118
f 354/688/118 353/687/118 394/563/118
f 394/563/118 353/687/118 370/564/118
f 168/142/119 339/421/119 341/423/119
f 339/421/119 168/142/119 170/145/119
f 345/689/118 346/690/118 385/560/118
f 385/560/118 367/559/118 345/689/118
f 344/688/118 343/687/118 386/563/118
f 386/563/118 343/687/118 368/564/118
f 373/691/11 374/692/11 280/693/11
f 374/692/11 281/694/11 280/693/11
f 340/695/5 376/493/5 375/492/5
f 340/695/5 342/696/5 376/493/5
f 378/497/120 382/501/120 379/697/120
f 383/698/120 379/697/120 382/501/120
