# Roblox asset pack: checkpoint (map). Exported from Roblox Studio with Export Selection, then split/renamed/re-centred by tools/process_export.py. Units: studs (1 stud = 1 unit). +Y up. Pivot (bottom_centre) at the origin.
mtllib checkpoint.mtl

v 3.00000 1.00000 -3.00000
v 3.00000 1.00000 3.00000
v 3.00000 0.00000 -3.00000
v 3.00000 0.00000 3.00000
v -3.00000 1.00000 3.00000
v -3.00000 1.00000 -3.00000
v -3.00000 0.00000 3.00000
v -3.00000 0.00000 -3.00000
v 3.00000 1.00500 3.00000
v 3.00000 1.00500 -3.00000
v -3.00000 1.00500 -3.00000
v -3.00000 1.00500 3.00000
v 2.40000 8.00000 2.40000
v 2.31680 8.00000 2.27500
v 2.29390 8.00000 2.29400
v 2.35260 8.00000 2.25800
v 2.40000 8.00000 2.25000
v 2.44740 8.00000 2.25800
v 2.48320 8.00000 2.27500
v 2.50610 8.00000 2.29400
v 2.52480 8.00000 2.31700
v 2.54230 8.00000 2.35300
v 2.55000 8.00000 2.40000
v 2.54230 8.00000 2.44700
v 2.52480 8.00000 2.48300
v 2.50610 8.00000 2.50600
v 2.48320 8.00000 2.52500
v 2.44740 8.00000 2.54200
v 2.40000 8.00000 2.55000
v 2.35260 8.00000 2.54200
v 2.31680 8.00000 2.52500
v 2.29390 8.00000 2.50600
v 2.27520 8.00000 2.48300
v 2.25770 8.00000 2.44700
v 2.25000 8.00000 2.40000
v 2.25770 8.00000 2.35300
v 2.27520 8.00000 2.31700
v 2.29390 1.00000 2.50600
v 2.27520 1.00000 2.48300
v 2.25770 1.00000 2.44700
v 2.25000 1.00000 2.40000
v 2.25770 1.00000 2.35300
v 2.27520 1.00000 2.31700
v 2.29390 1.00000 2.29400
v 2.31680 1.00000 2.52500
v 2.35260 1.00000 2.54200
v 2.40000 1.00000 2.55000
v 2.44740 1.00000 2.54200
v 2.48320 1.00000 2.52500
v 2.50610 1.00000 2.50600
v 2.40000 1.00000 2.40000
v 2.52480 1.00000 2.48300
v 2.54230 1.00000 2.44700
v 2.55000 1.00000 2.40000
v 2.54230 1.00000 2.35300
v 2.52480 1.00000 2.31700
v 2.50610 1.00000 2.29400
v 2.48320 1.00000 2.27500
v 2.44740 1.00000 2.25800
v 2.40000 1.00000 2.25000
v 2.35260 1.00000 2.25800
v 2.31680 1.00000 2.27500
v 2.25000 7.85000 2.35000
v 2.25000 7.85000 2.45000
v 2.25000 6.35000 2.35000
v 2.25000 6.35000 2.45000
v -0.15000 7.85000 2.45000
v -0.15000 7.85000 2.35000
v -0.15000 6.35000 2.45000
v -0.15000 6.35000 2.35000
v 2.54430 8.24434 2.25600
v 2.55990 8.25990 2.29300
v 2.55990 8.20660 2.24000
v 2.58190 8.22127 2.27900
v 2.57210 8.27206 2.34300
v 2.60040 8.23363 2.33300
v 2.57680 8.27678 2.40000
v 2.60800 8.23868 2.40000
v 2.57210 8.27206 2.45700
v 2.60040 8.23363 2.46700
v 2.55990 8.25990 2.50700
v 2.58190 8.22127 2.52100
v 2.54430 8.24434 2.54400
v 2.55990 8.20660 2.56000
v 2.57210 8.15735 2.22800
v 2.60040 8.16682 2.26600
v 2.62610 8.17538 2.32500
v 2.63720 8.17906 2.40000
v 2.62610 8.17538 2.47500
v 2.60040 8.16682 2.53400
v 2.57210 8.15735 2.57200
v 2.57680 8.10000 2.22300
v 2.60800 8.10000 2.26100
v 2.63720 8.10000 2.32100
v 2.65000 8.10000 2.40000
v 2.63720 8.10000 2.47900
v 2.60800 8.10000 2.53900
v 2.57680 8.10000 2.57700
v 2.57210 8.04265 2.22800
v 2.60040 8.03319 2.26600
v 2.62610 8.02462 2.32500
v 2.63720 8.02094 2.40000
v 2.62610 8.02462 2.47500
v 2.60040 8.03319 2.53400
v 2.57210 8.04265 2.57200
v 2.55990 7.99340 2.24000
v 2.58190 7.97873 2.27900
v 2.60040 7.96637 2.33300
v 2.60800 7.96133 2.40000
v 2.60040 7.96637 2.46700
v 2.58190 7.97873 2.52100
v 2.55990 7.99340 2.56000
v 2.54430 7.95566 2.25600
v 2.55990 7.94010 2.29300
v 2.57210 7.92794 2.34300
v 2.57680 7.92322 2.40000
v 2.57210 7.92794 2.45700
v 2.55990 7.94010 2.50700
v 2.54430 7.95566 2.54400
v 2.25570 8.24434 2.54400
v 2.29340 8.25990 2.56000
v 2.24010 8.25990 2.50700
v 2.27870 8.28190 2.52100
v 2.34260 8.27206 2.57200
v 2.33320 8.30045 2.53400
v 2.40000 8.27678 2.57700
v 2.40000 8.30801 2.53900
v 2.45740 8.27206 2.57200
v 2.46680 8.30045 2.53400
v 2.50660 8.25990 2.56000
v 2.52130 8.28190 2.52100
v 2.22790 8.27206 2.45700
v 2.26640 8.30045 2.46700
v 2.32460 8.32613 2.47500
v 2.40000 8.33717 2.47900
v 2.47540 8.32613 2.47500
v 2.53360 8.30045 2.46700
v 2.22320 8.27678 2.40000
v 2.26130 8.30801 2.40000
v 2.32090 8.33717 2.40000
v 2.40000 8.35000 2.40000
v 2.47910 8.33717 2.40000
v 2.53870 8.30801 2.40000
v 2.22790 8.27206 2.34300
v 2.26640 8.30045 2.33300
v 2.32460 8.32613 2.32500
v 2.40000 8.33717 2.32100
v 2.47540 8.32613 2.32500
v 2.53360 8.30045 2.33300
v 2.24010 8.25990 2.29300
v 2.27870 8.28190 2.27900
v 2.33320 8.30045 2.26600
v 2.40000 8.30801 2.26100
v 2.46680 8.30045 2.26600
v 2.52130 8.28190 2.27900
v 2.25570 8.24434 2.25600
v 2.29340 8.25990 2.24000
v 2.34260 8.27206 2.22800
v 2.40000 8.27678 2.22300
v 2.45740 8.27206 2.22800
v 2.50660 8.25990 2.24000
v 2.52130 8.22127 2.58200
v 2.46680 8.23363 2.60000
v 2.40000 8.23868 2.60800
v 2.33320 8.23363 2.60000
v 2.27870 8.22127 2.58200
v 2.24010 8.20660 2.56000
v 2.53360 8.16682 2.60000
v 2.47540 8.17538 2.62600
v 2.40000 8.17906 2.63700
v 2.32460 8.17538 2.62600
v 2.26640 8.16682 2.60000
v 2.22790 8.15735 2.57200
v 2.53870 8.10000 2.60800
v 2.47910 8.10000 2.63700
v 2.40000 8.10000 2.65000
v 2.32090 8.10000 2.63700
v 2.26130 8.10000 2.60800
v 2.22320 8.10000 2.57700
v 2.53360 8.03319 2.60000
v 2.47540 8.02462 2.62600
v 2.40000 8.02094 2.63700
v 2.32460 8.02462 2.62600
v 2.26640 8.03319 2.60000
v 2.22790 8.04265 2.57200
v 2.52130 7.97873 2.58200
v 2.46680 7.96637 2.60000
v 2.40000 7.96133 2.60800
v 2.33320 7.96637 2.60000
v 2.27870 7.97873 2.58200
v 2.24010 7.99340 2.56000
v 2.50660 7.94010 2.56000
v 2.45740 7.92794 2.57200
v 2.40000 7.92322 2.57700
v 2.34260 7.92794 2.57200
v 2.29340 7.94010 2.56000
v 2.25570 7.95566 2.54400
v 2.21810 8.22127 2.52100
v 2.19960 8.23363 2.46700
v 2.19200 8.23868 2.40000
v 2.19960 8.23363 2.33300
v 2.21810 8.22127 2.27900
v 2.24010 8.20660 2.24000
v 2.19960 8.16682 2.53400
v 2.17390 8.17538 2.47500
v 2.16280 8.17906 2.40000
v 2.17390 8.17538 2.32500
v 2.19960 8.16682 2.26600
v 2.22790 8.15735 2.22800
v 2.19200 8.10000 2.53900
v 2.16280 8.10000 2.47900
v 2.15000 8.10000 2.40000
v 2.16280 8.10000 2.32100
v 2.19200 8.10000 2.26100
v 2.22320 8.10000 2.22300
v 2.19960 8.03319 2.53400
v 2.17390 8.02462 2.47500
v 2.16280 8.02094 2.40000
v 2.17390 8.02462 2.32500
v 2.19960 8.03319 2.26600
v 2.22790 8.04265 2.22800
v 2.21810 7.97873 2.52100
v 2.19960 7.96637 2.46700
v 2.19200 7.96133 2.40000
v 2.19960 7.96637 2.33300
v 2.21810 7.97873 2.27900
v 2.24010 7.99340 2.24000
v 2.24010 7.94010 2.50700
v 2.22790 7.92794 2.45700
v 2.22320 7.92322 2.40000
v 2.22790 7.92794 2.34300
v 2.24010 7.94010 2.29300
v 2.25570 7.95566 2.25600
v 2.29340 7.94010 2.24000
v 2.27870 7.91810 2.27900
v 2.34260 7.92794 2.22800
v 2.33320 7.89955 2.26600
v 2.40000 7.92322 2.22300
v 2.40000 7.89199 2.26100
v 2.45740 7.92794 2.22800
v 2.46680 7.89955 2.26600
v 2.50660 7.94010 2.24000
v 2.52130 7.91810 2.27900
v 2.26640 7.89955 2.33300
v 2.32460 7.87387 2.32500
v 2.40000 7.86283 2.32100
v 2.47540 7.87387 2.32500
v 2.53360 7.89955 2.33300
v 2.26130 7.89199 2.40000
v 2.32090 7.86283 2.40000
v 2.40000 7.85000 2.40000
v 2.47910 7.86283 2.40000
v 2.53870 7.89199 2.40000
v 2.26640 7.89955 2.46700
v 2.32460 7.87387 2.47500
v 2.40000 7.86283 2.47900
v 2.47540 7.87387 2.47500
v 2.53360 7.89955 2.46700
v 2.27870 7.91810 2.52100
v 2.33320 7.89955 2.53400
v 2.40000 7.89199 2.53900
v 2.46680 7.89955 2.53400
v 2.52130 7.91810 2.52100
v 2.27870 8.22127 2.21800
v 2.33320 8.23363 2.20000
v 2.40000 8.23868 2.19200
v 2.46680 8.23363 2.20000
v 2.52130 8.22127 2.21800
v 2.26640 8.16682 2.20000
v 2.32460 8.17538 2.17400
v 2.40000 8.17906 2.16300
v 2.47540 8.17538 2.17400
v 2.53360 8.16682 2.20000
v 2.26130 8.10000 2.19200
v 2.32090 8.10000 2.16300
v 2.40000 8.10000 2.15000
v 2.47910 8.10000 2.16300
v 2.53870 8.10000 2.19200
v 2.26640 8.03319 2.20000
v 2.32460 8.02462 2.17400
v 2.40000 8.02094 2.16300
v 2.47540 8.02462 2.17400
v 2.53360 8.03319 2.20000
v 2.27870 7.97873 2.21800
v 2.33320 7.96637 2.20000
v 2.40000 7.96133 2.19200
v 2.46680 7.96637 2.20000
v 2.52130 7.97873 2.21800
vt 1.75000 -2.75000
vt 1.00000 -2.75000
vt 1.75000 -2.87500
vt 1.00000 -2.87500
vt 1.75000 -3.50000
vt 1.00000 -3.50000
vt 0.00000 1.00000
vt 0.00000 0.00000
vt 1.00000 0.00000
vt 1.00000 1.00000
vt 2.26875 0.48125
vt 2.28435 0.49165
vt 2.28201 0.49451
vt 2.28654 0.48718
vt 2.28750 0.48125
vt 2.28654 0.47532
vt 2.28435 0.47085
vt 2.28201 0.46799
vt 2.27915 0.46565
vt 2.27468 0.46346
vt 2.26875 0.46250
vt 2.26282 0.46346
vt 2.25835 0.46565
vt 2.25549 0.46799
vt 2.25315 0.47085
vt 2.25096 0.47532
vt 2.25000 0.48125
vt 2.25096 0.48718
vt 2.25315 0.49165
vt 2.25549 0.49451
vt 2.25835 0.49685
vt 2.26282 0.49904
vt 2.26875 0.50000
vt 2.27468 0.49904
vt 2.27915 0.49685
vt 3.12500 0.50000
vt 2.25000 0.50000
vt 3.12500 0.49375
vt 2.25000 0.49375
vt 3.12500 0.48750
vt 2.25000 0.48750
vt 3.12500 0.48125
vt 3.12500 0.47500
vt 2.25000 0.47500
vt 3.12500 0.46875
vt 2.25000 0.46875
vt 3.12500 0.46250
vt 2.25000 0.46250
vt 5.01250 -0.50000
vt 5.00000 -0.50000
vt 5.01250 -0.68750
vt 5.00000 -0.68750
vt 5.30000 -0.50000
vt 5.30000 -0.51250
vt 5.00000 -0.51250
vt 5.30000 -0.68750
vt 0.06250 -59.00000
vt 0.05208 -59.00000
vt 0.06250 -59.01040
vt 0.05208 -59.01040
vt 0.04167 -59.00000
vt 0.04167 -59.01040
vt 0.03125 -59.00000
vt 0.03125 -59.01040
vt 0.02083 -59.00000
vt 0.02083 -59.01040
vt 0.01042 -59.00000
vt 0.01042 -59.01040
vt -0.00000 -59.00000
vt -0.00000 -59.01040
vt 0.06250 -59.02080
vt 0.05208 -59.02080
vt 0.04167 -59.02080
vt 0.03125 -59.02080
vt 0.02083 -59.02080
vt 0.01042 -59.02080
vt -0.00000 -59.02080
vt 0.06250 -59.03120
vt 0.05208 -59.03120
vt 0.04167 -59.03120
vt 0.03125 -59.03120
vt 0.02083 -59.03120
vt 0.01042 -59.03120
vt -0.00000 -59.03120
vt 0.06250 -59.04170
vt 0.05208 -59.04170
vt 0.04167 -59.04170
vt 0.03125 -59.04170
vt 0.02083 -59.04170
vt 0.01042 -59.04170
vt -0.00000 -59.04170
vt 0.06250 -59.05210
vt 0.05208 -59.05210
vt 0.04167 -59.05210
vt 0.03125 -59.05210
vt 0.02083 -59.05210
vt 0.01042 -59.05210
vt -0.00000 -59.05210
vt 0.06250 -59.06250
vt 0.05208 -59.06250
vt 0.04167 -59.06250
vt 0.03125 -59.06250
vt 0.02083 -59.06250
vt 0.01042 -59.06250
vt -0.00000 -59.06250
vn 1.0000 0.0000 0.0000
vn 0.0000 1.0000 0.0000
vn 0.0000 0.0000 1.0000
vn -1.0000 0.0000 0.0000
vn 0.0000 -1.0000 0.0000
vn 0.0000 0.0000 -1.0000
vn -0.7087 0.0000 0.7087
vn -0.8346 0.0000 0.5512
vn -0.9449 0.0000 0.3150
vn -0.9449 0.0000 -0.3150
vn -0.8346 0.0000 -0.5512
vn -0.7087 0.0000 -0.7087
vn -0.5512 0.0000 0.8346
vn -0.3150 0.0000 0.9449
vn 0.3150 0.0000 0.9449
vn 0.5512 0.0000 0.8346
vn 0.7087 0.0000 0.7087
vn 0.7087 0.0000 -0.7087
vn 0.8346 0.0000 -0.5512
vn 0.9449 0.0000 -0.3150
vn 0.9449 0.0000 0.3150
vn 0.8346 0.0000 0.5512
vn -0.5512 0.0000 -0.8346
vn -0.3150 0.0000 -0.9449
vn 0.3150 0.0000 -0.9449
vn 0.5512 0.0000 -0.8346
vn 0.5748 0.5748 -0.5748
vn 0.6378 0.6378 -0.4252
vn 0.6378 0.4252 -0.6378
vn 0.7244 0.4882 -0.4882
vn 0.6850 0.6850 -0.2283
vn 0.8032 0.5354 -0.2677
vn 0.7087 0.7087 0.0000
vn 0.8346 0.5512 0.0000
vn 0.6850 0.6850 0.2283
vn 0.8032 0.5354 0.2677
vn 0.6378 0.6378 0.4252
vn 0.7244 0.4882 0.4882
vn 0.5748 0.5748 0.5748
vn 0.6378 0.4252 0.6378
vn 0.6850 0.2283 -0.6850
vn 0.8032 0.2677 -0.5354
vn 0.9055 0.2992 -0.2992
vn 0.9449 0.3150 0.0000
vn 0.9055 0.2992 0.2992
vn 0.8032 0.2677 0.5354
vn 0.6850 0.2283 0.6850
vn 0.6850 -0.2283 -0.6850
vn 0.8032 -0.2677 -0.5354
vn 0.9055 -0.2992 -0.2992
vn 0.9449 -0.3150 0.0000
vn 0.9055 -0.2992 0.2992
vn 0.8032 -0.2677 0.5354
vn 0.6850 -0.2283 0.6850
vn 0.6378 -0.4252 -0.6378
vn 0.7244 -0.4882 -0.4882
vn 0.8032 -0.5354 -0.2677
vn 0.8346 -0.5512 0.0000
vn 0.8032 -0.5354 0.2677
vn 0.7244 -0.4882 0.4882
vn 0.6378 -0.4252 0.6378
vn 0.5748 -0.5748 -0.5748
vn 0.6378 -0.6378 -0.4252
vn 0.6850 -0.6850 -0.2283
vn 0.7087 -0.7087 0.0000
vn 0.6850 -0.6850 0.2283
vn 0.6378 -0.6378 0.4252
vn 0.5748 -0.5748 0.5748
vn -0.5748 0.5748 0.5748
vn -0.4252 0.6378 0.6378
vn -0.6378 0.6378 0.4252
vn -0.4882 0.7244 0.4882
vn -0.2283 0.6850 0.6850
vn -0.2677 0.8032 0.5354
vn 0.0000 0.7087 0.7087
vn 0.0000 0.8346 0.5512
vn 0.2283 0.6850 0.6850
vn 0.2677 0.8032 0.5354
vn 0.4252 0.6378 0.6378
vn 0.4882 0.7244 0.4882
vn -0.6850 0.6850 0.2283
vn -0.5354 0.8032 0.2677
vn -0.2992 0.9055 0.2992
vn 0.0000 0.9449 0.3150
vn 0.2992 0.9055 0.2992
vn 0.5354 0.8032 0.2677
vn -0.7087 0.7087 0.0000
vn -0.5512 0.8346 0.0000
vn -0.3150 0.9449 0.0000
vn 0.3150 0.9449 0.0000
vn 0.5512 0.8346 0.0000
vn -0.6850 0.6850 -0.2283
vn -0.5354 0.8032 -0.2677
vn -0.2992 0.9055 -0.2992
vn 0.0000 0.9449 -0.3150
vn 0.2992 0.9055 -0.2992
vn 0.5354 0.8032 -0.2677
vn -0.6378 0.6378 -0.4252
vn -0.4882 0.7244 -0.4882
vn -0.2677 0.8032 -0.5354
vn 0.0000 0.8346 -0.5512
vn 0.2677 0.8032 -0.5354
vn 0.4882 0.7244 -0.4882
vn -0.5748 0.5748 -0.5748
vn -0.4252 0.6378 -0.6378
vn -0.2283 0.6850 -0.6850
vn 0.0000 0.7087 -0.7087
vn 0.2283 0.6850 -0.6850
vn 0.4252 0.6378 -0.6378
vn 0.4882 0.4882 0.7244
vn 0.2677 0.5354 0.8032
vn 0.0000 0.5512 0.8346
vn -0.2677 0.5354 0.8032
vn -0.4882 0.4882 0.7244
vn -0.6378 0.4252 0.6378
vn 0.5354 0.2677 0.8032
vn 0.2992 0.2992 0.9055
vn 0.0000 0.3150 0.9449
vn -0.2992 0.2992 0.9055
vn -0.5354 0.2677 0.8032
vn -0.6850 0.2283 0.6850
vn 0.5354 -0.2677 0.8032
vn 0.2992 -0.2992 0.9055
vn 0.0000 -0.3150 0.9449
vn -0.2992 -0.2992 0.9055
vn -0.5354 -0.2677 0.8032
vn -0.6850 -0.2283 0.6850
vn 0.4882 -0.4882 0.7244
vn 0.2677 -0.5354 0.8032
vn 0.0000 -0.5512 0.8346
vn -0.2677 -0.5354 0.8032
vn -0.4882 -0.4882 0.7244
vn -0.6378 -0.4252 0.6378
vn 0.4252 -0.6378 0.6378
vn 0.2283 -0.6850 0.6850
vn 0.0000 -0.7087 0.7087
vn -0.2283 -0.6850 0.6850
vn -0.4252 -0.6378 0.6378
vn -0.5748 -0.5748 0.5748
vn -0.7244 0.4882 0.4882
vn -0.8032 0.5354 0.2677
vn -0.8346 0.5512 0.0000
vn -0.8032 0.5354 -0.2677
vn -0.7244 0.4882 -0.4882
vn -0.6378 0.4252 -0.6378
vn -0.8032 0.2677 0.5354
vn -0.9055 0.2992 0.2992
vn -0.9449 0.3150 0.0000
vn -0.9055 0.2992 -0.2992
vn -0.8032 0.2677 -0.5354
vn -0.6850 0.2283 -0.6850
vn -0.8032 -0.2677 0.5354
vn -0.9055 -0.2992 0.2992
vn -0.9449 -0.3150 0.0000
vn -0.9055 -0.2992 -0.2992
vn -0.8032 -0.2677 -0.5354
vn -0.6850 -0.2283 -0.6850
vn -0.7244 -0.4882 0.4882
vn -0.8032 -0.5354 0.2677
vn -0.8346 -0.5512 0.0000
vn -0.8032 -0.5354 -0.2677
vn -0.7244 -0.4882 -0.4882
vn -0.6378 -0.4252 -0.6378
vn -0.6378 -0.6378 0.4252
vn -0.6850 -0.6850 0.2283
vn -0.7087 -0.7087 0.0000
vn -0.6850 -0.6850 -0.2283
vn -0.6378 -0.6378 -0.4252
vn -0.5748 -0.5748 -0.5748
vn -0.4252 -0.6378 -0.6378
vn -0.4882 -0.7244 -0.4882
vn -0.2283 -0.6850 -0.6850
vn -0.2677 -0.8032 -0.5354
vn 0.0000 -0.7087 -0.7087
vn 0.0000 -0.8346 -0.5512
vn 0.2283 -0.6850 -0.6850
vn 0.2677 -0.8032 -0.5354
vn 0.4252 -0.6378 -0.6378
vn 0.4882 -0.7244 -0.4882
vn -0.5354 -0.8032 -0.2677
vn -0.2992 -0.9055 -0.2992
vn 0.0000 -0.9449 -0.3150
vn 0.2992 -0.9055 -0.2992
vn 0.5354 -0.8032 -0.2677
vn -0.5512 -0.8346 0.0000
vn -0.3150 -0.9449 0.0000
vn 0.3150 -0.9449 0.0000
vn 0.5512 -0.8346 0.0000
vn -0.5354 -0.8032 0.2677
vn -0.2992 -0.9055 0.2992
vn 0.0000 -0.9449 0.3150
vn 0.2992 -0.9055 0.2992
vn 0.5354 -0.8032 0.2677
vn -0.4882 -0.7244 0.4882
vn -0.2677 -0.8032 0.5354
vn 0.0000 -0.8346 0.5512
vn 0.2677 -0.8032 0.5354
vn 0.4882 -0.7244 0.4882
vn -0.4882 0.4882 -0.7244
vn -0.2677 0.5354 -0.8032
vn 0.0000 0.5512 -0.8346
vn 0.2677 0.5354 -0.8032
vn 0.4882 0.4882 -0.7244
vn -0.5354 0.2677 -0.8032
vn -0.2992 0.2992 -0.9055
vn 0.0000 0.3150 -0.9449
vn 0.2992 0.2992 -0.9055
vn 0.5354 0.2677 -0.8032
vn -0.5354 -0.2677 -0.8032
vn -0.2992 -0.2992 -0.9055
vn 0.0000 -0.3150 -0.9449
vn 0.2992 -0.2992 -0.9055
vn 0.5354 -0.2677 -0.8032
vn -0.4882 -0.4882 -0.7244
vn -0.2677 -0.5354 -0.8032
vn 0.0000 -0.5512 -0.8346
vn 0.2677 -0.5354 -0.8032
vn 0.4882 -0.4882 -0.7244

o Pad
usemtl pad
f 1/1/1 2/2/1 3/3/1
f 3/3/1 2/2/1 4/4/1
f 5/1/2 2/2/2 6/5/2
f 6/5/2 2/2/2 1/6/2
f 2/1/3 5/2/3 4/3/3
f 4/3/3 5/2/3 7/4/3
f 5/1/4 6/2/4 7/3/4
f 7/3/4 6/2/4 8/4/4
f 8/1/5 3/2/5 7/5/5
f 7/5/5 3/2/5 4/6/5
f 6/1/6 1/2/6 8/3/6
f 8/3/6 1/2/6 3/4/6
o Pad_Decal
usemtl pad_decal
f 9/7/2 10/8/2 11/9/2
f 12/10/2 9/7/2 11/9/2
o Pole
usemtl pole
f 13/11/2 14/12/2 15/13/2
f 13/11/2 16/14/2 14/12/2
f 13/11/2 17/15/2 16/14/2
f 13/11/2 18/16/2 17/15/2
f 13/11/2 19/17/2 18/16/2
f 13/11/2 20/18/2 19/17/2
f 13/11/2 21/19/2 20/18/2
f 13/11/2 22/20/2 21/19/2
f 13/11/2 23/21/2 22/20/2
f 13/11/2 24/22/2 23/21/2
f 13/11/2 25/23/2 24/22/2
f 13/11/2 26/24/2 25/23/2
f 13/11/2 27/25/2 26/24/2
f 13/11/2 28/26/2 27/25/2
f 13/11/2 29/27/2 28/26/2
f 13/11/2 30/28/2 29/27/2
f 13/11/2 31/29/2 30/28/2
f 13/11/2 32/30/2 31/29/2
f 13/11/2 33/31/2 32/30/2
f 13/11/2 34/32/2 33/31/2
f 13/11/2 35/33/2 34/32/2
f 13/11/2 36/34/2 35/33/2
f 13/11/2 37/35/2 36/34/2
f 13/11/2 15/13/2 37/35/2
f 38/36/7 32/37/7 39/38/8
f 39/38/8 32/37/7 33/39/8
f 39/38/8 33/39/8 40/40/9
f 40/40/9 33/39/8 34/41/9
f 40/40/9 34/41/9 41/42/4
f 41/42/4 34/41/9 35/27/4
f 41/42/4 35/27/4 42/43/10
f 42/43/10 35/27/4 36/44/10
f 42/43/10 36/44/10 43/45/11
f 43/45/11 36/44/10 37/46/11
f 43/45/11 37/46/11 44/47/12
f 44/47/12 37/46/11 15/48/12
f 32/36/7 38/37/7 31/38/13
f 31/38/13 38/37/7 45/39/13
f 31/38/13 45/39/13 30/40/14
f 30/40/14 45/39/13 46/41/14
f 30/40/14 46/41/14 29/42/3
f 29/42/3 46/41/14 47/27/3
f 29/42/3 47/27/3 28/43/15
f 28/43/15 47/27/3 48/44/15
f 28/43/15 48/44/15 27/45/16
f 27/45/16 48/44/15 49/46/16
f 27/45/16 49/46/16 26/47/17
f 26/47/17 49/46/16 50/48/17
f 51/11/5 45/12/5 38/13/5
f 51/11/5 46/14/5 45/12/5
f 51/11/5 47/15/5 46/14/5
f 51/11/5 48/16/5 47/15/5
f 51/11/5 49/17/5 48/16/5
f 51/11/5 50/18/5 49/17/5
f 51/11/5 52/19/5 50/18/5
f 51/11/5 53/20/5 52/19/5
f 51/11/5 54/21/5 53/20/5
f 51/11/5 55/22/5 54/21/5
f 51/11/5 56/23/5 55/22/5
f 51/11/5 57/24/5 56/23/5
f 51/11/5 58/25/5 57/24/5
f 51/11/5 59/26/5 58/25/5
f 51/11/5 60/27/5 59/26/5
f 51/11/5 61/28/5 60/27/5
f 51/11/5 62/29/5 61/28/5
f 51/11/5 44/30/5 62/29/5
f 51/11/5 43/31/5 44/30/5
f 51/11/5 42/32/5 43/31/5
f 51/11/5 41/33/5 42/32/5
f 51/11/5 40/34/5 41/33/5
f 51/11/5 39/35/5 40/34/5
f 51/11/5 38/13/5 39/35/5
f 57/36/18 20/37/18 56/38/19
f 56/38/19 20/37/18 21/39/19
f 56/38/19 21/39/19 55/40/20
f 55/40/20 21/39/19 22/41/20
f 55/40/20 22/41/20 54/42/1
f 54/42/1 22/41/20 23/27/1
f 54/42/1 23/27/1 53/43/21
f 53/43/21 23/27/1 24/44/21
f 53/43/21 24/44/21 52/45/22
f 52/45/22 24/44/21 25/46/22
f 52/45/22 25/46/22 50/47/17
f 50/47/17 25/46/22 26/48/17
f 44/36/12 15/37/12 62/38/23
f 62/38/23 15/37/12 14/39/23
f 62/38/23 14/39/23 61/40/24
f 61/40/24 14/39/23 16/41/24
f 61/40/24 16/41/24 60/42/6
f 60/42/6 16/41/24 17/27/6
f 60/42/6 17/27/6 59/43/25
f 59/43/25 17/27/6 18/44/25
f 59/43/25 18/44/25 58/45/26
f 58/45/26 18/44/25 19/46/26
f 58/45/26 19/46/26 57/47/18
f 57/47/18 19/46/26 20/48/18
o Flag
usemtl flag
f 63/49/1 64/50/1 65/51/1
f 65/51/1 64/50/1 66/52/1
f 67/53/2 64/50/2 68/54/2
f 68/54/2 64/50/2 63/55/2
f 64/53/3 67/50/3 66/56/3
f 66/56/3 67/50/3 69/52/3
f 67/49/4 68/50/4 69/51/4
f 69/51/4 68/50/4 70/52/4
f 70/53/5 65/50/5 69/54/5
f 69/54/5 65/50/5 66/55/5
f 68/53/6 63/50/6 70/56/6
f 70/56/6 63/50/6 65/52/6
o Ball
usemtl ball
f 71/57/27 72/58/28 73/59/29
f 73/59/29 72/58/28 74/60/30
f 72/58/28 75/61/31 74/60/30
f 74/60/30 75/61/31 76/62/32
f 75/61/31 77/63/33 76/62/32
f 76/62/32 77/63/33 78/64/34
f 77/63/33 79/65/35 78/64/34
f 78/64/34 79/65/35 80/66/36
f 79/65/35 81/67/37 80/66/36
f 80/66/36 81/67/37 82/68/38
f 81/67/37 83/69/39 82/68/38
f 82/68/38 83/69/39 84/70/40
f 73/59/29 74/60/30 85/71/41
f 85/71/41 74/60/30 86/72/42
f 74/60/30 76/62/32 86/72/42
f 86/72/42 76/62/32 87/73/43
f 76/62/32 78/64/34 87/73/43
f 87/73/43 78/64/34 88/74/44
f 78/64/34 80/66/36 88/74/44
f 88/74/44 80/66/36 89/75/45
f 80/66/36 82/68/38 89/75/45
f 89/75/45 82/68/38 90/76/46
f 82/68/38 84/70/40 90/76/46
f 90/76/46 84/70/40 91/77/47
f 85/71/41 86/72/42 92/78/18
f 92/78/18 86/72/42 93/79/19
f 86/72/42 87/73/43 93/79/19
f 93/79/19 87/73/43 94/80/20
f 87/73/43 88/74/44 94/80/20
f 94/80/20 88/74/44 95/81/1
f 88/74/44 89/75/45 95/81/1
f 95/81/1 89/75/45 96/82/21
f 89/75/45 90/76/46 96/82/21
f 96/82/21 90/76/46 97/83/22
f 90/76/46 91/77/47 97/83/22
f 97/83/22 91/77/47 98/84/17
f 92/78/18 93/79/19 99/85/48
f 99/85/48 93/79/19 100/86/49
f 93/79/19 94/80/20 100/86/49
f 100/86/49 94/80/20 101/87/50
f 94/80/20 95/81/1 101/87/50
f 101/87/50 95/81/1 102/88/51
f 95/81/1 96/82/21 102/88/51
f 102/88/51 96/82/21 103/89/52
f 96/82/21 97/83/22 103/89/52
f 103/89/52 97/83/22 104/90/53
f 97/83/22 98/84/17 104/90/53
f 104/90/53 98/84/17 105/91/54
f 99/85/48 100/86/49 106/92/55
f 106/92/55 100/86/49 107/93/56
f 100/86/49 101/87/50 107/93/56
f 107/93/56 101/87/50 108/94/57
f 101/87/50 102/88/51 108/94/57
f 108/94/57 102/88/51 109/95/58
f 102/88/51 103/89/52 109/95/58
f 109/95/58 103/89/52 110/96/59
f 103/89/52 104/90/53 110/96/59
f 110/96/59 104/90/53 111/97/60
f 104/90/53 105/91/54 111/97/60
f 111/97/60 105/91/54 112/98/61
f 106/92/55 107/93/56 113/99/62
f 113/99/62 107/93/56 114/100/63
f 107/93/56 108/94/57 114/100/63
f 114/100/63 108/94/57 115/101/64
f 108/94/57 109/95/58 115/101/64
f 115/101/64 109/95/58 116/102/65
f 109/95/58 110/96/59 116/102/65
f 116/102/65 110/96/59 117/103/66
f 110/96/59 111/97/60 117/103/66
f 117/103/66 111/97/60 118/104/67
f 111/97/60 112/98/61 118/104/67
f 118/104/67 112/98/61 119/105/68
f 120/57/69 121/58/70 122/59/71
f 122/59/71 121/58/70 123/60/72
f 121/58/70 124/61/73 123/60/72
f 123/60/72 124/61/73 125/62/74
f 124/61/73 126/63/75 125/62/74
f 125/62/74 126/63/75 127/64/76
f 126/63/75 128/65/77 127/64/76
f 127/64/76 128/65/77 129/66/78
f 128/65/77 130/67/79 129/66/78
f 129/66/78 130/67/79 131/68/80
f 130/67/79 83/69/39 131/68/80
f 131/68/80 83/69/39 81/70/37
f 122/59/71 123/60/72 132/71/81
f 132/71/81 123/60/72 133/72/82
f 123/60/72 125/62/74 133/72/82
f 133/72/82 125/62/74 134/73/83
f 125/62/74 127/64/76 134/73/83
f 134/73/83 127/64/76 135/74/84
f 127/64/76 129/66/78 135/74/84
f 135/74/84 129/66/78 136/75/85
f 129/66/78 131/68/80 136/75/85
f 136/75/85 131/68/80 137/76/86
f 131/68/80 81/70/37 137/76/86
f 137/76/86 81/70/37 79/77/35
f 132/71/81 133/72/82 138/78/87
f 138/78/87 133/72/82 139/79/88
f 133/72/82 134/73/83 139/79/88
f 139/79/88 134/73/83 140/80/89
f 134/73/83 135/74/84 140/80/89
f 140/80/89 135/74/84 141/81/2
f 135/74/84 136/75/85 141/81/2
f 141/81/2 136/75/85 142/82/90
f 136/75/85 137/76/86 142/82/90
f 142/82/90 137/76/86 143/83/91
f 137/76/86 79/77/35 143/83/91
f 143/83/91 79/77/35 77/84/33
f 138/78/87 139/79/88 144/85/92
f 144/85/92 139/79/88 145/86/93
f 139/79/88 140/80/89 145/86/93
f 145/86/93 140/80/89 146/87/94
f 140/80/89 141/81/2 146/87/94
f 146/87/94 141/81/2 147/88/95
f 141/81/2 142/82/90 147/88/95
f 147/88/95 142/82/90 148/89/96
f 142/82/90 143/83/91 148/89/96
f 148/89/96 143/83/91 149/90/97
f 143/83/91 77/84/33 149/90/97
f 149/90/97 77/84/33 75/91/31
f 144/85/92 145/86/93 150/92/98
f 150/92/98 145/86/93 151/93/99
f 145/86/93 146/87/94 151/93/99
f 151/93/99 146/87/94 152/94/100
f 146/87/94 147/88/95 152/94/100
f 152/94/100 147/88/95 153/95/101
f 147/88/95 148/89/96 153/95/101
f 153/95/101 148/89/96 154/96/102
f 148/89/96 149/90/97 154/96/102
f 154/96/102 149/90/97 155/97/103
f 149/90/97 75/91/31 155/97/103
f 155/97/103 75/91/31 72/98/28
f 150/92/98 151/93/99 156/99/104
f 156/99/104 151/93/99 157/100/105
f 151/93/99 152/94/100 157/100/105
f 157/100/105 152/94/100 158/101/106
f 152/94/100 153/95/101 158/101/106
f 158/101/106 153/95/101 159/102/107
f 153/95/101 154/96/102 159/102/107
f 159/102/107 154/96/102 160/103/108
f 154/96/102 155/97/103 160/103/108
f 160/103/108 155/97/103 161/104/109
f 155/97/103 72/98/28 161/104/109
f 161/104/109 72/98/28 71/105/27
f 83/57/39 130/58/79 84/59/40
f 84/59/40 130/58/79 162/60/110
f 130/58/79 128/61/77 162/60/110
f 162/60/110 128/61/77 163/62/111
f 128/61/77 126/63/75 163/62/111
f 163/62/111 126/63/75 164/64/112
f 126/63/75 124/65/73 164/64/112
f 164/64/112 124/65/73 165/66/113
f 124/65/73 121/67/70 165/66/113
f 165/66/113 121/67/70 166/68/114
f 121/67/70 120/69/69 166/68/114
f 166/68/114 120/69/69 167/70/115
f 84/59/40 162/60/110 91/71/47
f 91/71/47 162/60/110 168/72/116
f 162/60/110 163/62/111 168/72/116
f 168/72/116 163/62/111 169/73/117
f 163/62/111 164/64/112 169/73/117
f 169/73/117 164/64/112 170/74/118
f 164/64/112 165/66/113 170/74/118
f 170/74/118 165/66/113 171/75/119
f 165/66/113 166/68/114 171/75/119
f 171/75/119 166/68/114 172/76/120
f 166/68/114 167/70/115 172/76/120
f 172/76/120 167/70/115 173/77/121
f 91/71/47 168/72/116 98/78/17
f 98/78/17 168/72/116 174/79/16
f 168/72/116 169/73/117 174/79/16
f 174/79/16 169/73/117 175/80/15
f 169/73/117 170/74/118 175/80/15
f 175/80/15 170/74/118 176/81/3
f 170/74/118 171/75/119 176/81/3
f 176/81/3 171/75/119 177/82/14
f 171/75/119 172/76/120 177/82/14
f 177/82/14 172/76/120 178/83/13
f 172/76/120 173/77/121 178/83/13
f 178/83/13 173/77/121 179/84/7
f 98/78/17 174/79/16 105/85/54
f 105/85/54 174/79/16 180/86/122
f 174/79/16 175/80/15 180/86/122
f 180/86/122 175/80/15 181/87/123
f 175/80/15 176/81/3 181/87/123
f 181/87/123 176/81/3 182/88/124
f 176/81/3 177/82/14 182/88/124
f 182/88/124 177/82/14 183/89/125
f 177/82/14 178/83/13 183/89/125
f 183/89/125 178/83/13 184/90/126
f 178/83/13 179/84/7 184/90/126
f 184/90/126 179/84/7 185/91/127
f 105/85/54 180/86/122 112/92/61
f 112/92/61 180/86/122 186/93/128
f 180/86/122 181/87/123 186/93/128
f 186/93/128 181/87/123 187/94/129
f 181/87/123 182/88/124 187/94/129
f 187/94/129 182/88/124 188/95/130
f 182/88/124 183/89/125 188/95/130
f 188/95/130 183/89/125 189/96/131
f 183/89/125 184/90/126 189/96/131
f 189/96/131 184/90/126 190/97/132
f 184/90/126 185/91/127 190/97/132
f 190/97/132 185/91/127 191/98/133
f 112/92/61 186/93/128 119/99/68
f 119/99/68 186/93/128 192/100/134
f 186/93/128 187/94/129 192/100/134
f 192/100/134 187/94/129 193/101/135
f 187/94/129 188/95/130 193/101/135
f 193/101/135 188/95/130 194/102/136
f 188/95/130 189/96/131 194/102/136
f 194/102/136 189/96/131 195/103/137
f 189/96/131 190/97/132 195/103/137
f 195/103/137 190/97/132 196/104/138
f 190/97/132 191/98/133 196/104/138
f 196/104/138 191/98/133 197/105/139
f 120/57/69 122/58/71 167/59/115
f 167/59/115 122/58/71 198/60/140
f 122/58/71 132/61/81 198/60/140
f 198/60/140 132/61/81 199/62/141
f 132/61/81 138/63/87 199/62/141
f 199/62/141 138/63/87 200/64/142
f 138/63/87 144/65/92 200/64/142
f 200/64/142 144/65/92 201/66/143
f 144/65/92 150/67/98 201/66/143
f 201/66/143 150/67/98 202/68/144
f 150/67/98 156/69/104 202/68/144
f 202/68/144 156/69/104 203/70/145
f 167/59/115 198/60/140 173/71/121
f 173/71/121 198/60/140 204/72/146
f 198/60/140 199/62/141 204/72/146
f 204/72/146 199/62/141 205/73/147
f 199/62/141 200/64/142 205/73/147
f 205/73/147 200/64/142 206/74/148
f 200/64/142 201/66/143 206/74/148
f 206/74/148 201/66/143 207/75/149
f 201/66/143 202/68/144 207/75/149
f 207/75/149 202/68/144 208/76/150
f 202/68/144 203/70/145 208/76/150
f 208/76/150 203/70/145 209/77/151
f 173/71/121 204/72/146 179/78/7
f 179/78/7 204/72/146 210/79/8
f 204/72/146 205/73/147 210/79/8
f 210/79/8 205/73/147 211/80/9
f 205/73/147 206/74/148 211/80/9
f 211/80/9 206/74/148 212/81/4
f 206/74/148 207/75/149 212/81/4
f 212/81/4 207/75/149 213/82/10
f 207/75/149 208/76/150 213/82/10
f 213/82/10 208/76/150 214/83/11
f 208/76/150 209/77/151 214/83/11
f 214/83/11 209/77/151 215/84/12
f 179/78/7 210/79/8 185/85/127
f 185/85/127 210/79/8 216/86/152
f 210/79/8 211/80/9 216/86/152
f 216/86/152 211/80/9 217/87/153
f 211/80/9 212/81/4 217/87/153
f 217/87/153 212/81/4 218/88/154
f 212/81/4 213/82/10 218/88/154
f 218/88/154 213/82/10 219/89/155
f 213/82/10 214/83/11 219/89/155
f 219/89/155 214/83/11 220/90/156
f 214/83/11 215/84/12 220/90/156
f 220/90/156 215/84/12 221/91/157
f 185/85/127 216/86/152 191/92/133
f 191/92/133 216/86/152 222/93/158
f 216/86/152 217/87/153 222/93/158
f 222/93/158 217/87/153 223/94/159
f 217/87/153 218/88/154 223/94/159
f 223/94/159 218/88/154 224/95/160
f 218/88/154 219/89/155 224/95/160
f 224/95/160 219/89/155 225/96/161
f 219/89/155 220/90/156 225/96/161
f 225/96/161 220/90/156 226/97/162
f 220/90/156 221/91/157 226/97/162
f 226/97/162 221/91/157 227/98/163
f 191/92/133 222/93/158 197/99/139
f 197/99/139 222/93/158 228/100/164
f 222/93/158 223/94/159 228/100/164
f 228/100/164 223/94/159 229/101/165
f 223/94/159 224/95/160 229/101/165
f 229/101/165 224/95/160 230/102/166
f 224/95/160 225/96/161 230/102/166
f 230/102/166 225/96/161 231/103/167
f 225/96/161 226/97/162 231/103/167
f 231/103/167 226/97/162 232/104/168
f 226/97/162 227/98/163 232/104/168
f 232/104/168 227/98/163 233/105/169
f 233/57/169 234/58/170 232/59/168
f 232/59/168 234/58/170 235/60/171
f 234/58/170 236/61/172 235/60/171
f 235/60/171 236/61/172 237/62/173
f 236/61/172 238/63/174 237/62/173
f 237/62/173 238/63/174 239/64/175
f 238/63/174 240/65/176 239/64/175
f 239/64/175 240/65/176 241/66/177
f 240/65/176 242/67/178 241/66/177
f 241/66/177 242/67/178 243/68/179
f 242/67/178 113/69/62 243/68/179
f 243/68/179 113/69/62 114/70/63
f 232/59/168 235/60/171 231/71/167
f 231/71/167 235/60/171 244/72/180
f 235/60/171 237/62/173 244/72/180
f 244/72/180 237/62/173 245/73/181
f 237/62/173 239/64/175 245/73/181
f 245/73/181 239/64/175 246/74/182
f 239/64/175 241/66/177 246/74/182
f 246/74/182 241/66/177 247/75/183
f 241/66/177 243/68/179 247/75/183
f 247/75/183 243/68/179 248/76/184
f 243/68/179 114/70/63 248/76/184
f 248/76/184 114/70/63 115/77/64
f 231/71/167 244/72/180 230/78/166
f 230/78/166 244/72/180 249/79/185
f 244/72/180 245/73/181 249/79/185
f 249/79/185 245/73/181 250/80/186
f 245/73/181 246/74/182 250/80/186
f 250/80/186 246/74/182 251/81/5
f 246/74/182 247/75/183 251/81/5
f 251/81/5 247/75/183 252/82/187
f 247/75/183 248/76/184 252/82/187
f 252/82/187 248/76/184 253/83/188
f 248/76/184 115/77/64 253/83/188
f 253/83/188 115/77/64 116/84/65
f 230/78/166 249/79/185 229/85/165
f 229/85/165 249/79/185 254/86/189
f 249/79/185 250/80/186 254/86/189
f 254/86/189 250/80/186 255/87/190
f 250/80/186 251/81/5 255/87/190
f 255/87/190 251/81/5 256/88/191
f 251/81/5 252/82/187 256/88/191
f 256/88/191 252/82/187 257/89/192
f 252/82/187 253/83/188 257/89/192
f 257/89/192 253/83/188 258/90/193
f 253/83/188 116/84/65 258/90/193
f 258/90/193 116/84/65 117/91/66
f 229/85/165 254/86/189 228/92/164
f 228/92/164 254/86/189 259/93/194
f 254/86/189 255/87/190 259/93/194
f 259/93/194 255/87/190 260/94/195
f 255/87/190 256/88/191 260/94/195
f 260/94/195 256/88/191 261/95/196
f 256/88/191 257/89/192 261/95/196
f 261/95/196 257/89/192 262/96/197
f 257/89/192 258/90/193 262/96/197
f 262/96/197 258/90/193 263/97/198
f 258/90/193 117/91/66 263/97/198
f 263/97/198 117/91/66 118/98/67
f 228/92/164 259/93/194 197/99/139
f 197/99/139 259/93/194 196/100/138
f 259/93/194 260/94/195 196/100/138
f 196/100/138 260/94/195 195/101/137
f 260/94/195 261/95/196 195/101/137
f 195/101/137 261/95/196 194/102/136
f 261/95/196 262/96/197 194/102/136
f 194/102/136 262/96/197 193/103/135
f 262/96/197 263/97/198 193/103/135
f 193/103/135 263/97/198 192/104/134
f 263/97/198 118/98/67 192/104/134
f 192/104/134 118/98/67 119/105/68
f 156/57/104 157/58/105 203/59/145
f 203/59/145 157/58/105 264/60/199
f 157/58/105 158/61/106 264/60/199
f 264/60/199 158/61/106 265/62/200
f 158/61/106 159/63/107 265/62/200
f 265/62/200 159/63/107 266/64/201
f 159/63/107 160/65/108 266/64/201
f 266/64/201 160/65/108 267/66/202
f 160/65/108 161/67/109 267/66/202
f 267/66/202 161/67/109 268/68/203
f 161/67/109 71/69/27 268/68/203
f 268/68/203 71/69/27 73/70/29
f 203/59/145 264/60/199 209/71/151
f 209/71/151 264/60/199 269/72/204
f 264/60/199 265/62/200 269/72/204
f 269/72/204 265/62/200 270/73/205
f 265/62/200 266/64/201 270/73/205
f 270/73/205 266/64/201 271/74/206
f 266/64/201 267/66/202 271/74/206
f 271/74/206 267/66/202 272/75/207
f 267/66/202 268/68/203 272/75/207
f 272/75/207 268/68/203 273/76/208
f 268/68/203 73/70/29 273/76/208
f 273/76/208 73/70/29 85/77/41
f 209/71/151 269/72/204 215/78/12
f 215/78/12 269/72/204 274/79/23
f 269/72/204 270/73/205 274/79/23
f 274/79/23 270/73/205 275/80/24
f 270/73/205 271/74/206 275/80/24
f 275/80/24 271/74/206 276/81/6
f 271/74/206 272/75/207 276/81/6
f 276/81/6 272/75/207 277/82/25
f 272/75/207 273/76/208 277/82/25
f 277/82/25 273/76/208 278/83/26
f 273/76/208 85/77/41 278/83/26
f 278/83/26 85/77/41 92/84/18
f 215/78/12 274/79/23 221/85/157
f 221/85/157 274/79/23 279/86/209
f 274/79/23 275/80/24 279/86/209
f 279/86/209 275/80/24 280/87/210
f 275/80/24 276/81/6 280/87/210
f 280/87/210 276/81/6 281/88/211
f 276/81/6 277/82/25 281/88/211
f 281/88/211 277/82/25 282/89/212
f 277/82/25 278/83/26 282/89/212
f 282/89/212 278/83/26 283/90/213
f 278/83/26 92/84/18 283/90/213
f 283/90/213 92/84/18 99/91/48
f 221/85/157 279/86/209 227/92/163
f 227/92/163 279/86/209 284/93/214
f 279/86/209 280/87/210 284/93/214
f 284/93/214 280/87/210 285/94/215
f 280/87/210 281/88/211 285/94/215
f 285/94/215 281/88/211 286/95/216
f 281/88/211 282/89/212 286/95/216
f 286/95/216 282/89/212 287/96/217
f 282/89/212 283/90/213 287/96/217
f 287/96/217 283/90/213 288/97/218
f 283/90/213 99/91/48 288/97/218
f 288/97/218 99/91/48 106/98/55
f 227/92/163 284/93/214 233/99/169
f 233/99/169 284/93/214 234/100/170
f 284/93/214 285/94/215 234/100/170
f 234/100/170 285/94/215 236/101/172
f 285/94/215 286/95/216 236/101/172
f 236/101/172 286/95/216 238/102/174
f 286/95/216 287/96/217 238/102/174
f 238/102/174 287/96/217 240/103/176
f 287/96/217 288/97/218 240/103/176
f 240/103/176 288/97/218 242/104/178
f 288/97/218 106/98/55 242/104/178
f 242/104/178 106/98/55 113/105/62
