# Roblox asset pack: carnotaurus (creatures), from the Studio model "Carnotaurus". Exported with Export Selection, split by tools/build_creatures.py: one object per rigid body. Units: studs. +Y up, front faces -Z, pivot (bottom centre) at the origin.
mtllib carnotaurus.mtl

v -1.87500 1.25000 2.19000
v -1.87500 1.25000 4.69000
v -1.87500 0.00000 2.19000
v -1.87500 0.00000 4.69000
v -4.37500 1.25000 4.69000
v -4.37500 1.25000 2.19000
v -4.37500 0.00000 4.69000
v -4.37500 0.00000 2.19000
v -1.87500 1.25000 0.94000
v -1.87500 0.00000 0.94000
v -3.12500 1.25000 2.19000
v -3.12500 1.25000 0.94000
v -3.12500 0.00000 2.19000
v -3.12500 0.00000 0.94000
v -3.75000 1.25000 0.94000
v -3.75000 1.25000 2.19000
v -3.75000 0.00000 0.94000
v -3.75000 0.00000 2.19000
v -5.00000 1.25000 2.19000
v -5.00000 1.25000 0.94000
v -5.00000 0.00000 2.19000
v -5.00000 0.00000 0.94000
v 4.37500 6.88000 0.94000
v 4.37500 6.88000 3.44000
v 4.37500 3.12000 0.94000
v 4.37500 3.12000 3.44000
v 1.87500 6.88000 3.44000
v 1.87500 6.88000 0.94000
v 1.87500 3.12000 3.44000
v 1.87500 3.12000 0.94000
v 2.50000 5.00000 -0.94000
v 2.50000 5.00000 4.69000
v 2.50000 3.75000 -0.94000
v 2.50000 3.75000 4.69000
v -2.50000 5.00000 4.69000
v -2.50000 5.00000 -0.94000
v -2.50000 3.75000 4.69000
v -2.50000 3.75000 -0.94000
v 0.62500 10.00000 -0.94000
v 0.62500 10.00000 0.31000
v 0.62500 8.75000 -0.94000
v 0.62500 8.75000 0.31000
v -0.62500 10.00000 0.31000
v -0.62500 10.00000 -0.94000
v -0.62500 8.75000 0.31000
v -0.62500 8.75000 -0.94000
v 0.62500 10.00000 1.56000
v 0.62500 10.00000 2.81000
v 0.62500 8.75000 1.56000
v 0.62500 8.75000 2.81000
v -0.62500 10.00000 2.81000
v -0.62500 10.00000 1.56000
v -0.62500 8.75000 2.81000
v -0.62500 8.75000 1.56000
v 2.50000 8.75000 -0.94000
v 2.50000 8.75000 4.69000
v -2.50000 8.75000 4.69000
v -2.50000 8.75000 -0.94000
v 3.75000 5.00000 2.19000
v 3.75000 5.00000 4.06000
v 3.75000 1.25000 2.19000
v 3.75000 1.25000 4.06000
v 2.50000 5.00000 4.06000
v 2.50000 5.00000 2.19000
v 2.50000 1.25000 4.06000
v 2.50000 1.25000 2.19000
v -1.87500 6.88000 -2.81000
v -1.87500 6.88000 -1.56000
v -1.87500 5.62000 -2.81000
v -1.87500 5.62000 -1.56000
v -3.12500 6.88000 -1.56000
v -3.12500 6.88000 -2.81000
v -3.12500 5.62000 -1.56000
v -3.12500 5.62000 -2.81000
v -1.87500 5.62000 -4.06000
v -1.87500 4.38000 -4.06000
v -1.87500 4.38000 -1.56000
v -3.12500 5.62000 -4.06000
v -3.12500 4.38000 -1.56000
v -3.12500 4.38000 -4.06000
v -1.87500 4.38000 -2.81000
v -1.87500 3.75000 -4.06000
v -1.87500 3.75000 -2.81000
v -3.12500 4.38000 -2.81000
v -3.12500 3.75000 -2.81000
v -3.12500 3.75000 -4.06000
v 3.12500 5.62000 -4.06000
v 3.12500 5.62000 -1.56000
v 3.12500 4.38000 -4.06000
v 3.12500 4.38000 -1.56000
v 1.87500 5.62000 -1.56000
v 1.87500 5.62000 -4.06000
v 1.87500 4.38000 -1.56000
v 1.87500 4.38000 -4.06000
v 3.12500 6.88000 -2.81000
v 3.12500 6.88000 -1.56000
v 3.12500 5.62000 -2.81000
v 1.87500 6.88000 -1.56000
v 1.87500 6.88000 -2.81000
v 1.87500 5.62000 -2.81000
v 3.12500 4.38000 -2.81000
v 3.12500 3.75000 -4.06000
v 3.12500 3.75000 -2.81000
v 1.87500 4.38000 -2.81000
v 1.87500 3.75000 -2.81000
v 1.87500 3.75000 -4.06000
v -1.87500 6.88000 0.94000
v -1.87500 6.88000 3.44000
v -1.87500 3.12000 0.94000
v -1.87500 3.12000 3.44000
v -4.37500 6.88000 3.44000
v -4.37500 6.88000 0.94000
v -4.37500 3.12000 3.44000
v -4.37500 3.12000 0.94000
v 0.62500 10.14000 -2.60000
v 0.62500 9.81000 -1.39000
v 0.62500 8.93000 -2.92000
v 0.62500 8.61000 -1.71000
v -0.62500 9.81000 -1.39000
v -0.62500 10.14000 -2.60000
v -0.62500 8.61000 -1.71000
v -0.62500 8.93000 -2.92000
v 1.87500 6.51000 -3.57000
v 1.87500 5.71000 -0.55000
v 1.87500 5.31000 -3.89000
v 1.87500 4.50000 -0.87000
v -1.87500 5.71000 -0.55000
v -1.87500 6.51000 -3.57000
v -1.87500 4.50000 -0.87000
v -1.87500 5.31000 -3.89000
v 1.87500 8.93000 -2.92000
v 1.87500 8.12000 0.10000
v -1.87500 8.12000 0.10000
v -1.87500 8.93000 -2.92000
v -2.50000 5.00000 2.19000
v -2.50000 5.00000 4.06000
v -2.50000 1.25000 2.19000
v -2.50000 1.25000 4.06000
v -3.75000 5.00000 4.06000
v -3.75000 5.00000 2.19000
v -3.75000 1.25000 4.06000
v 1.25000 9.75000 -3.58000
v 1.25000 8.81000 -1.96000
v 1.25000 7.58000 -4.83000
v 1.25000 6.65000 -3.21000
v -1.25000 8.81000 -1.96000
v -1.25000 9.75000 -3.58000
v -1.25000 6.65000 -3.21000
v -1.25000 7.58000 -4.83000
v 2.50000 13.12000 -11.56000
v 2.50000 13.12000 -3.44000
v 2.50000 9.38000 -11.56000
v 2.50000 9.38000 -3.44000
v -2.50000 13.12000 -3.44000
v -2.50000 13.12000 -11.56000
v -2.50000 9.38000 -3.44000
v -2.50000 9.38000 -11.56000
v 2.50000 12.50000 -12.19000
v 2.50000 12.50000 -11.56000
v 2.50000 9.38000 -12.19000
v -2.50000 12.50000 -11.56000
v -2.50000 12.50000 -12.19000
v -2.50000 9.38000 -12.19000
v 3.06900 13.01000 -6.91000
v 3.06900 14.45000 -4.86000
v 2.21400 11.09000 -5.56000
v 2.21400 12.52000 -3.51000
v 1.30700 14.97000 -5.23000
v 1.30700 13.54000 -7.28000
v 0.45200 13.05000 -3.88000
v 0.45200 11.61000 -5.93000
v 1.87500 13.12000 -12.19000
v 1.87500 13.12000 -11.56000
v 1.87500 12.50000 -12.19000
v 1.87500 12.50000 -11.56000
v -1.87500 13.12000 -11.56000
v -1.87500 13.12000 -12.19000
v -1.87500 12.50000 -11.56000
v -1.87500 12.50000 -12.19000
v -1.30700 13.67000 -7.31000
v -1.30700 14.92000 -5.15000
v -0.45200 11.64000 -6.14000
v -0.45200 12.89000 -3.98000
v -3.06800 14.37000 -4.83000
v -3.06800 13.12000 -6.99000
v -2.21300 12.33000 -3.65000
v -2.21300 11.08000 -5.82000
v 2.50000 9.38000 -10.62000
v 2.50000 9.38000 -10.00000
v 2.50000 8.75000 -10.62000
v 2.50000 8.75000 -10.00000
v 1.87500 9.38000 -10.00000
v 1.87500 9.38000 -10.62000
v 1.87500 8.75000 -10.00000
v 1.87500 8.75000 -10.62000
v -1.87500 8.75000 -11.56000
v -1.87500 8.75000 -10.94000
v -1.87500 8.12000 -11.56000
v -1.87500 8.12000 -10.94000
v -2.50000 8.75000 -10.94000
v -2.50000 8.75000 -11.56000
v -2.50000 8.12000 -10.94000
v -2.50000 8.12000 -11.56000
v -1.87500 9.38000 -9.06000
v -1.87500 9.38000 -8.44000
v -1.87500 8.75000 -9.06000
v -1.87500 8.75000 -8.44000
v -2.50000 9.38000 -8.44000
v -2.50000 9.38000 -9.06000
v -2.50000 8.75000 -8.44000
v -2.50000 8.75000 -9.06000
v 2.50000 8.75000 -11.56000
v 2.50000 8.75000 -10.94000
v 2.50000 8.12000 -11.56000
v 2.50000 8.12000 -10.94000
v 1.87500 8.75000 -10.94000
v 1.87500 8.75000 -11.56000
v 1.87500 8.12000 -10.94000
v 1.87500 8.12000 -11.56000
v 2.50000 8.75000 -9.38000
v 2.50000 8.12000 -10.00000
v 2.50000 8.12000 -9.38000
v 1.87500 8.75000 -9.38000
v 1.87500 8.12000 -9.38000
v 1.87500 8.12000 -10.00000
v -1.87500 8.75000 -10.00000
v -1.87500 8.75000 -9.38000
v -1.87500 8.12000 -10.00000
v -1.87500 8.12000 -9.38000
v -2.50000 8.75000 -9.38000
v -2.50000 8.75000 -10.00000
v -2.50000 8.12000 -9.38000
v -2.50000 8.12000 -10.00000
v -1.87500 9.38000 -12.19000
v -1.87500 9.38000 -11.56000
v -1.87500 8.75000 -12.19000
v -2.50000 8.75000 -12.19000
v 2.50000 9.38000 -9.06000
v 2.50000 9.38000 -8.44000
v 2.50000 8.75000 -9.06000
v 2.50000 8.75000 -8.44000
v 1.87500 9.38000 -8.44000
v 1.87500 9.38000 -9.06000
v 1.87500 8.75000 -8.44000
v 1.87500 8.75000 -9.06000
v 2.50000 8.75000 -7.81000
v 2.50000 8.12000 -8.44000
v 2.50000 8.12000 -7.81000
v 1.87500 8.75000 -7.81000
v 1.87500 8.12000 -7.81000
v 1.87500 8.12000 -8.44000
v -1.87500 8.75000 -7.81000
v -1.87500 8.12000 -8.44000
v -1.87500 8.12000 -7.81000
v -2.50000 8.75000 -7.81000
v -2.50000 8.12000 -7.81000
v -2.50000 8.12000 -8.44000
v -1.87500 9.38000 -10.62000
v -1.87500 9.38000 -10.00000
v -1.87500 8.75000 -10.62000
v -2.50000 9.38000 -10.00000
v -2.50000 9.38000 -10.62000
v -2.50000 8.75000 -10.62000
v 2.50000 8.75000 -12.19000
v 1.87500 9.38000 -11.56000
v 1.87500 9.38000 -12.19000
v 1.87500 8.75000 -12.19000
v 2.50000 8.12000 -12.19000
v 2.50000 8.12000 -7.19000
v 2.50000 6.88000 -12.19000
v 2.50000 6.88000 -7.19000
v -2.50000 8.12000 -7.19000
v -2.50000 8.12000 -12.19000
v -2.50000 6.88000 -7.19000
v -2.50000 6.88000 -12.19000
v 2.50000 9.38000 -7.19000
v 2.50000 6.88000 -3.44000
v -2.50000 9.38000 -7.19000
v -2.50000 6.88000 -3.44000
v -2.50000 13.12000 -12.19000
v 2.50000 13.12000 -12.19000
v 2.81300 11.88000 -7.19000
v 2.81300 11.88000 -5.62000
v 2.81300 10.31000 -7.19000
v 2.81300 10.31000 -5.62000
v -2.81200 11.88000 -5.62000
v -2.81200 11.88000 -7.19000
v -2.81200 10.31000 -5.62000
v -2.81200 10.31000 -7.19000
v 3.41700 14.90000 -7.47000
v 3.41600 15.62000 -6.44000
v 2.77500 13.46000 -6.46000
v 2.77500 14.17000 -5.43000
v 2.24200 15.97000 -6.69000
v 2.24200 15.25000 -7.71000
v 1.60100 14.52000 -5.68000
v 1.60100 13.81000 -6.70000
v 0.62500 11.88000 -3.44000
v 0.62500 11.88000 -2.19000
v 0.62500 10.62000 -3.44000
v 0.62500 10.62000 -2.19000
v -0.62500 11.88000 -2.19000
v -0.62500 11.88000 -3.44000
v -0.62500 10.62000 -2.19000
v -0.62500 10.62000 -3.44000
v -2.24100 15.42000 -7.60000
v -2.24100 16.04000 -6.52000
v -1.60000 13.89000 -6.72000
v -1.60000 14.52000 -5.64000
v -3.41600 15.67000 -6.30000
v -3.41600 15.05000 -7.39000
v -2.77500 14.15000 -5.42000
v -2.77500 13.52000 -6.51000
v 0.83300 9.38000 -10.94000
v 0.83300 9.38000 -7.19000
v 0.83300 8.12000 -10.94000
v 0.83300 8.12000 -7.19000
v -1.66700 9.38000 -7.19000
v -1.66700 9.38000 -10.94000
v -1.66700 8.12000 -7.19000
v -1.66700 8.12000 -10.94000
v -2.81700 11.88000 -5.62000
v -2.81700 11.88000 -7.19000
v -2.81700 10.31000 -5.62000
v -2.81700 10.31000 -7.19000
v 2.81800 11.88000 -7.19000
v 2.81800 11.88000 -5.62000
v 2.81800 10.31000 -7.19000
v 2.81800 10.31000 -5.62000
v 4.37500 1.25000 2.19000
v 4.37500 1.25000 4.69000
v 4.37500 0.00000 2.19000
v 4.37500 0.00000 4.69000
v 1.87500 1.25000 4.69000
v 1.87500 1.25000 2.19000
v 1.87500 0.00000 4.69000
v 1.87500 0.00000 2.19000
v 3.12500 1.25000 0.94000
v 3.12500 1.25000 2.19000
v 3.12500 0.00000 0.94000
v 3.12500 0.00000 2.19000
v 1.87500 1.25000 0.94000
v 1.87500 0.00000 0.94000
v 5.00000 1.25000 0.94000
v 5.00000 1.25000 2.19000
v 5.00000 0.00000 0.94000
v 5.00000 0.00000 2.19000
v 3.75000 1.25000 0.94000
v 3.75000 0.00000 2.19000
v 3.75000 0.00000 0.94000
v 0.62500 8.75000 8.44000
v 0.62500 8.75000 12.19000
v 0.62500 7.50000 8.44000
v 0.62500 7.50000 12.19000
v -0.62500 8.75000 12.19000
v -0.62500 8.75000 8.44000
v -0.62500 7.50000 12.19000
v -0.62500 7.50000 8.44000
v 1.25000 8.75000 4.69000
v 1.25000 8.75000 8.44000
v 1.25000 6.88000 4.69000
v 1.25000 6.88000 8.44000
v -1.25000 8.75000 8.44000
v -1.25000 8.75000 4.69000
v -1.25000 6.88000 8.44000
v -1.25000 6.88000 4.69000
v 0.62500 10.00000 7.19000
v 0.62500 10.00000 8.44000
v 0.62500 8.75000 7.19000
v -0.62500 10.00000 8.44000
v -0.62500 10.00000 7.19000
v -0.62500 8.75000 7.19000
v 0.62500 10.00000 4.69000
v 0.62500 10.00000 5.94000
v 0.62500 8.75000 4.69000
v 0.62500 8.75000 5.94000
v -0.62500 10.00000 5.94000
v -0.62500 10.00000 4.69000
v -0.62500 8.75000 5.94000
v -0.62500 8.75000 4.69000
v 1.25000 5.62000 4.69000
v 1.25000 5.62000 8.44000
v -1.25000 5.62000 8.44000
v -1.25000 5.62000 4.69000
vt 4.06250 -0.25000
vt 3.75000 -0.25000
vt 4.06250 -0.40625
vt 3.75000 -0.40625
vt 4.06250 -0.56250
vt 3.75000 -0.56250
vt 7.15625 -6.50000
vt 7.00000 -6.50000
vt 7.15625 -6.65625
vt 7.00000 -6.65625
vt 0.90625 -5.25000
vt 0.75000 -5.25000
vt 0.90625 -5.40625
vt 0.75000 -5.40625
vt 7.31250 -4.50000
vt 7.00000 -4.50000
vt 7.31250 -4.96875
vt 7.00000 -4.96875
vt 7.31250 -4.81250
vt 7.00000 -4.81250
vt 0.70312 -0.75000
vt 0.00000 -0.75000
vt 0.70312 -0.90625
vt 0.00000 -0.90625
vt 0.62500 -0.75000
vt 0.62500 -1.45312
vt 0.00000 -1.45312
vt 0.62500 -0.90625
vt 5.90625 -6.00000
vt 5.75000 -6.00000
vt 5.90625 -6.15625
vt 5.75000 -6.15625
vt 2.90625 0.75000
vt 2.75000 0.75000
vt 2.90625 0.59375
vt 2.75000 0.59375
vt 0.70312 -2.25000
vt 0.00000 -2.25000
vt 0.70312 -2.71875
vt 0.00000 -2.71875
vt 0.62500 -2.25000
vt 0.62500 -2.95312
vt 0.00000 -2.95312
vt 0.62500 -2.71875
vt 2.73438 -5.00000
vt 2.50000 -5.00000
vt 2.73438 -5.46875
vt 2.50000 -5.46875
vt 2.65625 -5.00000
vt 2.65625 -5.23438
vt 2.50000 -5.23438
vt 2.65625 -5.46875
vt 7.90625 -1.75000
vt 7.75000 -1.75000
vt 7.90625 -1.90625
vt 7.75000 -1.90625
vt 4.31250 -1.75000
vt 4.00000 -1.75000
vt 4.31250 -1.90625
vt 4.00000 -1.90625
vt 4.15625 -1.75000
vt 4.15625 -2.06250
vt 4.00000 -2.06250
vt 4.15625 -1.90625
vt 6.40625 -0.50000
vt 6.25000 -0.50000
vt 6.40625 -0.57812
vt 6.25000 -0.57812
vt 6.40625 -0.65625
vt 6.25000 -0.65625
vt 5.31250 -0.75000
vt 5.00000 -0.75000
vt 5.31250 -0.90625
vt 5.00000 -0.90625
vt 5.15625 -0.75000
vt 5.15625 -1.06250
vt 5.00000 -1.06250
vt 5.15625 -0.90625
vt 2.15625 -6.50000
vt 2.00000 -6.50000
vt 2.15625 -6.65625
vt 2.00000 -6.65625
vt 3.65625 -3.75000
vt 3.50000 -3.75000
vt 3.65625 -3.82812
vt 3.50000 -3.82812
vt 3.65625 -3.90625
vt 3.50000 -3.90625
vt 0.31250 -1.50000
vt 0.00000 -1.50000
vt 0.31250 -1.96875
vt 0.00000 -1.96875
vt 0.31250 -1.81250
vt 0.00000 -1.81250
vt 3.40625 -1.00000
vt 3.25000 -1.00000
vt 3.40625 -1.15625
vt 3.25000 -1.15625
vt 6.39062 -6.25000
vt 6.00000 -6.25000
vt 6.39062 -6.40625
vt 6.00000 -6.40625
vt 6.46875 -6.25000
vt 6.46875 -6.64062
vt 6.00000 -6.64062
vt 6.46875 -6.40625
vt 5.39062 -3.00000
vt 5.00000 -3.00000
vt 5.39062 -3.31250
vt 5.00000 -3.31250
vt 5.46875 -3.00000
vt 5.46875 -3.39062
vt 5.00000 -3.39062
vt 5.46875 -3.31250
vt 0.48438 0.25000
vt 0.25000 0.25000
vt 0.48438 -0.21875
vt 0.25000 -0.21875
vt 0.40625 0.25000
vt 0.40625 0.01563
vt 0.25000 0.01563
vt 0.40625 -0.21875
vt 1.98437 -2.75000
vt 1.75000 -2.75000
vt 1.98437 -3.06250
vt 1.75000 -3.06250
vt 2.06250 -2.75000
vt 2.06250 -2.98438
vt 1.75000 -2.98438
vt 2.06250 -3.06250
vt 5.26562 -5.00000
vt 4.25000 -5.00000
vt 5.26562 -5.46875
vt 4.25000 -5.46875
vt 4.87500 -5.00000
vt 4.87500 -6.01562
vt 4.25000 -6.01562
vt 4.87500 -5.46875
vt 1.57812 -1.75000
vt 1.50000 -1.75000
vt 1.57812 -2.14062
vt 1.50000 -2.14062
vt 2.12500 -1.75000
vt 2.12500 -1.82812
vt 1.50000 -1.82812
vt 2.12500 -2.14062
vt 3.81250 -4.00000
vt 3.50000 -4.00000
vt 3.81250 -4.31250
vt 3.50000 -4.31250
vt 3.73438 -4.00000
vt 3.73438 -4.31250
vt 6.07812 -6.25000
vt 6.07812 -6.32812
vt 6.00000 -6.32812
vt 6.46875 -6.32812
vt 7.56250 -2.75000
vt 7.25000 -2.75000
vt 7.56250 -3.06250
vt 7.25000 -3.06250
vt 7.48438 -2.75000
vt 7.48438 -3.06250
vt 3.07812 -0.75000
vt 3.00000 -0.75000
vt 3.07812 -0.82812
vt 3.00000 -0.82812
vt 1.32812 -4.00000
vt 1.25000 -4.00000
vt 1.32812 -4.07812
vt 1.25000 -4.07812
vt 2.82812 -6.50000
vt 2.75000 -6.50000
vt 2.82812 -6.57812
vt 2.75000 -6.57812
vt 5.32812 0.75000
vt 5.25000 0.75000
vt 5.32812 0.67188
vt 5.25000 0.67188
vt 3.32812 -3.75000
vt 3.25000 -3.75000
vt 3.32812 -3.82812
vt 3.25000 -3.82812
vt 5.32812 -5.50000
vt 5.25000 -5.50000
vt 5.32812 -5.57812
vt 5.25000 -5.57812
vt 1.32812 -3.00000
vt 1.25000 -3.00000
vt 1.32812 -3.07812
vt 1.25000 -3.07812
vt 7.57812 -3.25000
vt 7.50000 -3.25000
vt 7.57812 -3.32812
vt 7.50000 -3.32812
vt 1.57812 -1.50000
vt 1.50000 -1.50000
vt 1.57812 -1.57812
vt 1.50000 -1.57812
vt 1.32812 -5.50000
vt 1.25000 -5.50000
vt 1.32812 -5.57812
vt 1.25000 -5.57812
vt 3.57812 -2.75000
vt 3.50000 -2.75000
vt 3.57812 -2.82812
vt 3.50000 -2.82812
vt 6.32812 -4.00000
vt 6.25000 -4.00000
vt 6.32812 -4.07812
vt 6.25000 -4.07812
vt 8.37500 -5.50000
vt 7.75000 -5.50000
vt 8.37500 -5.65625
vt 7.75000 -5.65625
vt 8.37500 -6.12500
vt 7.75000 -6.12500
vt 0.46875 -5.25000
vt 0.00000 -5.25000
vt 0.46875 -5.56250
vt 0.00000 -5.56250
vt 0.62500 -5.25000
vt 0.62500 -5.71875
vt 0.00000 -5.71875
vt 0.62500 -5.56250
vt 2.07812 -0.50000
vt 2.00000 -0.50000
vt 2.07812 -0.57812
vt 2.00000 -0.57812
vt 5.32812 -3.75000
vt 5.25000 -3.75000
vt 5.32812 -3.82812
vt 5.25000 -3.82812
vt 1.69531 -0.75000
vt 1.50000 -0.75000
vt 1.69531 -0.94531
vt 1.50000 -0.94531
vt 2.20312 -0.75000
vt 2.20312 -0.94531
vt 1.65625 -2.75000
vt 1.50000 -2.75000
vt 1.65625 -2.98438
vt 1.50000 -2.98438
vt 1.65625 -2.90625
vt 1.50000 -2.90625
vt 3.65625 1.00000
vt 3.50000 1.00000
vt 3.65625 0.84375
vt 3.50000 0.84375
vt 4.65625 -3.50000
vt 4.50000 -3.50000
vt 4.65625 -3.73438
vt 4.50000 -3.73438
vt 4.65625 -3.65625
vt 4.50000 -3.65625
vt 4.96875 -1.00000
vt 4.50000 -1.00000
vt 4.96875 -1.15625
vt 4.50000 -1.15625
vt 4.81250 -1.00000
vt 4.81250 -1.46875
vt 4.50000 -1.46875
vt 4.81250 -1.15625
vt 1.00000 1.00000
vt 0.00000 1.00000
vt 1.00000 0.00000
vt 0.00000 0.00000
vt 7.31250 -4.65625
vt 7.00000 -4.65625
vt 2.40625 -4.00000
vt 2.25000 -4.00000
vt 2.40625 -4.15625
vt 2.25000 -4.15625
vt 1.90625 -4.00000
vt 1.75000 -4.00000
vt 1.90625 -4.15625
vt 1.75000 -4.15625
vt 3.96875 -6.50000
vt 3.50000 -6.50000
vt 3.96875 -6.65625
vt 3.50000 -6.65625
vt 3.65625 -6.50000
vt 3.65625 -6.96875
vt 3.50000 -6.96875
vt 3.65625 -6.65625
vt 5.46875 -4.00000
vt 5.00000 -4.00000
vt 5.46875 -4.23438
vt 5.00000 -4.23438
vt 5.31250 -4.00000
vt 5.31250 -4.46875
vt 5.00000 -4.46875
vt 5.31250 -4.23438
vt 3.40625 -4.25000
vt 3.25000 -4.25000
vt 3.40625 -4.40625
vt 3.25000 -4.40625
vt 0.65625 0.50000
vt 0.50000 0.50000
vt 0.65625 0.34375
vt 0.50000 0.34375
vt 6.46875 -1.50000
vt 6.00000 -1.50000
vt 6.46875 -1.65625
vt 6.00000 -1.65625
vt 6.31250 -1.50000
vt 6.31250 -1.96875
vt 6.00000 -1.96875
vt 6.31250 -1.65625
vn 1.0000 0.0000 0.0000
vn 0.0000 1.0000 0.0000
vn 0.0000 0.0000 1.0000
vn -1.0000 0.0000 0.0000
vn 0.0000 -1.0000 0.0000
vn 0.0000 0.0000 -1.0000
vn 0.0000 0.9685 0.2598
vn 0.0000 -0.2598 0.9685
vn 0.0000 -0.9685 -0.2598
vn 0.0000 0.2598 -0.9685
vn 0.0000 0.8661 0.5039
vn 0.0000 -0.5039 0.8661
vn 0.0000 -0.8661 -0.5039
vn 0.0000 0.5039 -0.8661
vn 0.9370 -0.2835 0.1968
vn 0.3386 0.7717 -0.5354
vn 0.0000 0.5748 0.8189
vn -0.9370 0.2835 -0.1968
vn -0.3386 -0.7717 0.5354
vn 0.0000 -0.5748 -0.8189
vn 0.9370 0.2992 -0.1732
vn -0.3386 0.8110 -0.4724
vn 0.0000 0.4961 0.8661
vn -0.9370 -0.2992 0.1732
vn 0.3386 -0.8110 0.4724
vn 0.0000 -0.4961 -0.8661

o LeftFoot
usemtl c_7c9c6b
f 1/1/1 2/2/1 3/3/1
f 3/3/1 2/2/1 4/4/1
f 5/1/2 2/2/2 6/5/2
f 6/5/2 2/2/2 1/6/2
f 2/1/3 5/2/3 4/3/3
f 4/3/3 5/2/3 7/4/3
f 5/1/4 6/2/4 7/3/4
f 7/3/4 6/2/4 8/4/4
f 8/1/5 3/2/5 7/5/5
f 7/5/5 3/2/5 4/6/5
f 6/1/6 1/2/6 8/3/6
f 8/3/6 1/2/6 3/4/6
usemtl c_1b2a35
f 9/7/1 1/8/1 10/9/1
f 10/9/1 1/8/1 3/10/1
f 11/7/2 1/8/2 12/9/2
f 12/9/2 1/8/2 9/10/2
f 1/7/3 11/8/3 3/9/3
f 3/9/3 11/8/3 13/10/3
f 11/7/4 12/8/4 13/9/4
f 13/9/4 12/8/4 14/10/4
f 14/7/5 10/8/5 13/9/5
f 13/9/5 10/8/5 3/10/5
f 12/7/6 9/8/6 14/9/6
f 14/9/6 9/8/6 10/10/6
f 15/11/1 16/12/1 17/13/1
f 17/13/1 16/12/1 18/14/1
f 19/11/2 16/12/2 20/13/2
f 20/13/2 16/12/2 15/14/2
f 16/11/3 19/12/3 18/13/3
f 18/13/3 19/12/3 21/14/3
f 19/11/4 20/12/4 21/13/4
f 21/13/4 20/12/4 22/14/4
f 22/11/5 17/12/5 21/13/5
f 21/13/5 17/12/5 18/14/5
f 20/11/6 15/12/6 22/13/6
f 22/13/6 15/12/6 17/14/6
o RightUpperLeg
usemtl c_7c9c6b
f 23/15/1 24/16/1 25/17/1
f 25/17/1 24/16/1 26/18/1
f 27/15/2 24/16/2 28/19/2
f 28/19/2 24/16/2 23/20/2
f 24/15/3 27/16/3 26/17/3
f 26/17/3 27/16/3 29/18/3
f 27/15/4 28/16/4 29/17/4
f 29/17/4 28/16/4 30/18/4
f 30/15/5 25/16/5 29/19/5
f 29/19/5 25/16/5 26/20/5
f 28/15/6 23/16/6 30/17/6
f 30/17/6 23/16/6 25/18/6
o LowerTorso
usemtl c_ccffcc
f 31/21/1 32/22/1 33/23/1
f 33/23/1 32/22/1 34/24/1
f 35/25/2 32/22/2 36/26/2
f 36/26/2 32/22/2 31/27/2
f 32/25/3 35/22/3 34/28/3
f 34/28/3 35/22/3 37/24/3
f 35/21/4 36/22/4 37/23/4
f 37/23/4 36/22/4 38/24/4
f 38/25/5 33/22/5 37/26/5
f 37/26/5 33/22/5 34/27/5
f 36/25/6 31/22/6 38/28/6
f 38/28/6 31/22/6 33/24/6
usemtl c_d7c59a
f 39/29/1 40/30/1 41/31/1
f 41/31/1 40/30/1 42/32/1
f 43/29/2 40/30/2 44/31/2
f 44/31/2 40/30/2 39/32/2
f 40/29/3 43/30/3 42/31/3
f 42/31/3 43/30/3 45/32/3
f 43/29/4 44/30/4 45/31/4
f 45/31/4 44/30/4 46/32/4
f 46/29/5 41/30/5 45/31/5
f 45/31/5 41/30/5 42/32/5
f 44/29/6 39/30/6 46/31/6
f 46/31/6 39/30/6 41/32/6
f 47/33/1 48/34/1 49/35/1
f 49/35/1 48/34/1 50/36/1
f 51/33/2 48/34/2 52/35/2
f 52/35/2 48/34/2 47/36/2
f 48/33/3 51/34/3 50/35/3
f 50/35/3 51/34/3 53/36/3
f 51/33/4 52/34/4 53/35/4
f 53/35/4 52/34/4 54/36/4
f 54/33/5 49/34/5 53/35/5
f 53/35/5 49/34/5 50/36/5
f 52/33/6 47/34/6 54/35/6
f 54/35/6 47/34/6 49/36/6
usemtl c_7c9c6b
f 55/37/1 56/38/1 31/39/1
f 31/39/1 56/38/1 32/40/1
f 57/41/2 56/38/2 58/42/2
f 58/42/2 56/38/2 55/43/2
f 56/41/3 57/38/3 32/44/3
f 32/44/3 57/38/3 35/40/3
f 57/37/4 58/38/4 35/39/4
f 35/39/4 58/38/4 36/40/4
f 36/41/5 31/38/5 35/42/5
f 35/42/5 31/38/5 32/43/5
f 58/41/6 55/38/6 36/44/6
f 36/44/6 55/38/6 31/40/6
o RightLowerLeg
usemtl c_7c9c6b
f 59/45/1 60/46/1 61/47/1
f 61/47/1 60/46/1 62/48/1
f 63/49/2 60/46/2 64/50/2
f 64/50/2 60/46/2 59/51/2
f 60/49/3 63/46/3 62/52/3
f 62/52/3 63/46/3 65/48/3
f 63/45/4 64/46/4 65/47/4
f 65/47/4 64/46/4 66/48/4
f 66/49/5 61/46/5 65/50/5
f 65/50/5 61/46/5 62/51/5
f 64/49/6 59/46/6 66/52/6
f 66/52/6 59/46/6 61/48/6
o LeftUpperArm
usemtl c_7c9c6b
f 67/53/1 68/54/1 69/55/1
f 69/55/1 68/54/1 70/56/1
f 71/53/2 68/54/2 72/55/2
f 72/55/2 68/54/2 67/56/2
f 68/53/3 71/54/3 70/55/3
f 70/55/3 71/54/3 73/56/3
f 71/53/4 72/54/4 73/55/4
f 73/55/4 72/54/4 74/56/4
f 74/53/5 69/54/5 73/55/5
f 73/55/5 69/54/5 70/56/5
f 72/53/6 67/54/6 74/55/6
f 74/55/6 67/54/6 69/56/6
f 75/57/1 70/58/1 76/59/1
f 76/59/1 70/58/1 77/60/1
f 73/61/2 70/58/2 78/62/2
f 78/62/2 70/58/2 75/63/2
f 70/61/3 73/58/3 77/64/3
f 77/64/3 73/58/3 79/60/3
f 73/57/4 78/58/4 79/59/4
f 79/59/4 78/58/4 80/60/4
f 80/61/5 76/58/5 79/62/5
f 79/62/5 76/58/5 77/63/5
f 78/61/6 75/58/6 80/64/6
f 80/64/6 75/58/6 76/60/6
usemtl c_1b2a35
f 76/65/1 81/66/1 82/67/1
f 82/67/1 81/66/1 83/68/1
f 84/65/2 81/66/2 80/69/2
f 80/69/2 81/66/2 76/70/2
f 81/65/3 84/66/3 83/67/3
f 83/67/3 84/66/3 85/68/3
f 84/65/4 80/66/4 85/67/4
f 85/67/4 80/66/4 86/68/4
f 86/65/5 82/66/5 85/69/5
f 85/69/5 82/66/5 83/70/5
f 80/65/6 76/66/6 86/67/6
f 86/67/6 76/66/6 82/68/6
o RightUpperArm
usemtl c_7c9c6b
f 87/71/1 88/72/1 89/73/1
f 89/73/1 88/72/1 90/74/1
f 91/75/2 88/72/2 92/76/2
f 92/76/2 88/72/2 87/77/2
f 88/75/3 91/72/3 90/78/3
f 90/78/3 91/72/3 93/74/3
f 91/71/4 92/72/4 93/73/4
f 93/73/4 92/72/4 94/74/4
f 94/75/5 89/72/5 93/76/5
f 93/76/5 89/72/5 90/77/5
f 92/75/6 87/72/6 94/78/6
f 94/78/6 87/72/6 89/74/6
f 95/79/1 96/80/1 97/81/1
f 97/81/1 96/80/1 88/82/1
f 98/79/2 96/80/2 99/81/2
f 99/81/2 96/80/2 95/82/2
f 96/79/3 98/80/3 88/81/3
f 88/81/3 98/80/3 91/82/3
f 98/79/4 99/80/4 91/81/4
f 91/81/4 99/80/4 100/82/4
f 100/79/5 97/80/5 91/81/5
f 91/81/5 97/80/5 88/82/5
f 99/79/6 95/80/6 100/81/6
f 100/81/6 95/80/6 97/82/6
usemtl c_1b2a35
f 89/83/1 101/84/1 102/85/1
f 102/85/1 101/84/1 103/86/1
f 104/83/2 101/84/2 94/87/2
f 94/87/2 101/84/2 89/88/2
f 101/83/3 104/84/3 103/85/3
f 103/85/3 104/84/3 105/86/3
f 104/83/4 94/84/4 105/85/4
f 105/85/4 94/84/4 106/86/4
f 106/83/5 102/84/5 105/87/5
f 105/87/5 102/84/5 103/88/5
f 94/83/6 89/84/6 106/85/6
f 106/85/6 89/84/6 102/86/6
o LeftUpperLeg
usemtl c_7c9c6b
f 107/89/1 108/90/1 109/91/1
f 109/91/1 108/90/1 110/92/1
f 111/89/2 108/90/2 112/93/2
f 112/93/2 108/90/2 107/94/2
f 108/89/3 111/90/3 110/91/3
f 110/91/3 111/90/3 113/92/3
f 111/89/4 112/90/4 113/91/4
f 113/91/4 112/90/4 114/92/4
f 114/89/5 109/90/5 113/93/5
f 113/93/5 109/90/5 110/94/5
f 112/89/6 107/90/6 114/91/6
f 114/91/6 107/90/6 109/92/6
o UpperTorso
usemtl c_d7c59a
f 115/95/1 116/96/1 117/97/1
f 117/97/1 116/96/1 118/98/1
f 119/95/7 116/96/7 120/97/7
f 120/97/7 116/96/7 115/98/7
f 116/95/8 119/96/8 118/97/8
f 118/97/8 119/96/8 121/98/8
f 119/95/4 120/96/4 121/97/4
f 121/97/4 120/96/4 122/98/4
f 122/95/9 117/96/9 121/97/9
f 121/97/9 117/96/9 118/98/9
f 120/95/10 115/96/10 122/97/10
f 122/97/10 115/96/10 117/98/10
usemtl c_ccffcc
f 123/99/1 124/100/1 125/101/1
f 125/101/1 124/100/1 126/102/1
f 127/103/7 124/100/7 128/104/7
f 128/104/7 124/100/7 123/105/7
f 124/103/8 127/100/8 126/106/8
f 126/106/8 127/100/8 129/102/8
f 127/99/4 128/100/4 129/101/4
f 129/101/4 128/100/4 130/102/4
f 130/103/9 125/100/9 129/104/9
f 129/104/9 125/100/9 126/105/9
f 128/103/10 123/100/10 130/106/10
f 130/106/10 123/100/10 125/102/10
usemtl c_7c9c6b
f 131/107/1 132/108/1 123/109/1
f 123/109/1 132/108/1 124/110/1
f 133/111/7 132/108/7 134/112/7
f 134/112/7 132/108/7 131/113/7
f 132/111/8 133/108/8 124/114/8
f 124/114/8 133/108/8 127/110/8
f 133/107/4 134/108/4 127/109/4
f 127/109/4 134/108/4 128/110/4
f 128/111/9 123/108/9 127/112/9
f 127/112/9 123/108/9 124/113/9
f 134/111/10 131/108/10 128/114/10
f 128/114/10 131/108/10 123/110/10
o LeftLowerLeg
usemtl c_7c9c6b
f 135/115/1 136/116/1 137/117/1
f 137/117/1 136/116/1 138/118/1
f 139/119/2 136/116/2 140/120/2
f 140/120/2 136/116/2 135/121/2
f 136/119/3 139/116/3 138/122/3
f 138/122/3 139/116/3 141/118/3
f 139/115/4 140/116/4 141/117/4
f 141/117/4 140/116/4 16/118/4
f 16/119/5 137/116/5 141/120/5
f 141/120/5 137/116/5 138/121/5
f 140/119/6 135/116/6 16/122/6
f 16/122/6 135/116/6 137/118/6
o Head
usemtl c_7c9c6b
f 142/123/1 143/124/1 144/125/1
f 144/125/1 143/124/1 145/126/1
f 146/127/11 143/124/11 147/128/11
f 147/128/11 143/124/11 142/129/11
f 143/127/12 146/124/12 145/130/12
f 145/130/12 146/124/12 148/126/12
f 146/123/4 147/124/4 148/125/4
f 148/125/4 147/124/4 149/126/4
f 149/127/13 144/124/13 148/128/13
f 148/128/13 144/124/13 145/129/13
f 147/127/14 142/124/14 149/130/14
f 149/130/14 142/124/14 144/126/14
f 150/131/1 151/132/1 152/133/1
f 152/133/1 151/132/1 153/134/1
f 154/135/2 151/132/2 155/136/2
f 155/136/2 151/132/2 150/137/2
f 151/135/3 154/132/3 153/138/3
f 153/138/3 154/132/3 156/134/3
f 154/131/4 155/132/4 156/133/4
f 156/133/4 155/132/4 157/134/4
f 157/135/5 152/132/5 156/136/5
f 156/136/5 152/132/5 153/137/5
f 155/135/6 150/132/6 157/138/6
f 157/138/6 150/132/6 152/134/6
f 158/139/1 159/140/1 160/141/1
f 160/141/1 159/140/1 152/142/1
f 161/143/2 159/140/2 162/144/2
f 162/144/2 159/140/2 158/145/2
f 159/143/3 161/140/3 152/146/3
f 152/146/3 161/140/3 157/142/3
f 161/139/4 162/140/4 157/141/4
f 157/141/4 162/140/4 163/142/4
f 163/143/5 160/140/5 157/144/5
f 157/144/5 160/140/5 152/145/5
f 162/143/6 158/140/6 163/146/6
f 163/146/6 158/140/6 160/142/6
f 164/147/15 165/148/15 166/149/15
f 166/149/15 165/148/15 167/150/15
f 168/151/16 165/148/16 169/152/16
f 169/152/16 165/148/16 164/150/16
f 165/151/17 168/148/17 167/152/17
f 167/152/17 168/148/17 170/150/17
f 168/147/18 169/148/18 170/149/18
f 170/149/18 169/148/18 171/150/18
f 171/151/19 166/148/19 170/152/19
f 170/152/19 166/148/19 167/150/19
f 169/151/20 164/148/20 171/152/20
f 171/152/20 164/148/20 166/150/20
f 172/153/1 173/100/1 174/154/1
f 174/154/1 173/100/1 175/155/1
f 176/103/2 173/100/2 177/156/2
f 177/156/2 173/100/2 172/155/2
f 173/103/3 176/100/3 175/156/3
f 175/156/3 176/100/3 178/155/3
f 176/153/4 177/100/4 178/154/4
f 178/154/4 177/100/4 179/155/4
f 179/103/5 174/100/5 178/156/5
f 178/156/5 174/100/5 175/155/5
f 177/103/6 172/100/6 179/156/6
f 179/156/6 172/100/6 174/155/6
f 180/157/21 181/158/21 182/159/21
f 182/159/21 181/158/21 183/160/21
f 184/161/22 181/158/22 185/162/22
f 185/162/22 181/158/22 180/160/22
f 181/161/23 184/158/23 183/162/23
f 183/162/23 184/158/23 186/160/23
f 184/157/24 185/158/24 186/159/24
f 186/159/24 185/158/24 187/160/24
f 187/161/25 182/158/25 186/162/25
f 186/162/25 182/158/25 183/160/25
f 185/161/26 180/158/26 187/162/26
f 187/162/26 180/158/26 182/160/26
usemtl c_fef3bb
f 188/163/1 189/164/1 190/165/1
f 190/165/1 189/164/1 191/166/1
f 192/163/2 189/164/2 193/165/2
f 193/165/2 189/164/2 188/166/2
f 189/163/3 192/164/3 191/165/3
f 191/165/3 192/164/3 194/166/3
f 192/163/4 193/164/4 194/165/4
f 194/165/4 193/164/4 195/166/4
f 195/163/5 190/164/5 194/165/5
f 194/165/5 190/164/5 191/166/5
f 193/163/6 188/164/6 195/165/6
f 195/165/6 188/164/6 190/166/6
f 196/167/1 197/168/1 198/169/1
f 198/169/1 197/168/1 199/170/1
f 200/167/2 197/168/2 201/169/2
f 201/169/2 197/168/2 196/170/2
f 197/167/3 200/168/3 199/169/3
f 199/169/3 200/168/3 202/170/3
f 200/167/4 201/168/4 202/169/4
f 202/169/4 201/168/4 203/170/4
f 203/167/5 198/168/5 202/169/5
f 202/169/5 198/168/5 199/170/5
f 201/167/6 196/168/6 203/169/6
f 203/169/6 196/168/6 198/170/6
f 204/171/1 205/172/1 206/173/1
f 206/173/1 205/172/1 207/174/1
f 208/171/2 205/172/2 209/173/2
f 209/173/2 205/172/2 204/174/2
f 205/171/3 208/172/3 207/173/3
f 207/173/3 208/172/3 210/174/3
f 208/171/4 209/172/4 210/173/4
f 210/173/4 209/172/4 211/174/4
f 211/171/5 206/172/5 210/173/5
f 210/173/5 206/172/5 207/174/5
f 209/171/6 204/172/6 211/173/6
f 211/173/6 204/172/6 206/174/6
f 212/175/1 213/176/1 214/177/1
f 214/177/1 213/176/1 215/178/1
f 216/175/2 213/176/2 217/177/2
f 217/177/2 213/176/2 212/178/2
f 213/175/3 216/176/3 215/177/3
f 215/177/3 216/176/3 218/178/3
f 216/175/4 217/176/4 218/177/4
f 218/177/4 217/176/4 219/178/4
f 219/175/5 214/176/5 218/177/5
f 218/177/5 214/176/5 215/178/5
f 217/175/6 212/176/6 219/177/6
f 219/177/6 212/176/6 214/178/6
f 191/179/1 220/180/1 221/181/1
f 221/181/1 220/180/1 222/182/1
f 223/179/2 220/180/2 194/181/2
f 194/181/2 220/180/2 191/182/2
f 220/179/3 223/180/3 222/181/3
f 222/181/3 223/180/3 224/182/3
f 223/179/4 194/180/4 224/181/4
f 224/181/4 194/180/4 225/182/4
f 225/179/5 221/180/5 224/181/5
f 224/181/5 221/180/5 222/182/5
f 194/179/6 191/180/6 225/181/6
f 225/181/6 191/180/6 221/182/6
f 226/183/1 227/184/1 228/185/1
f 228/185/1 227/184/1 229/186/1
f 230/183/2 227/184/2 231/185/2
f 231/185/2 227/184/2 226/186/2
f 227/183/3 230/184/3 229/185/3
f 229/185/3 230/184/3 232/186/3
f 230/183/4 231/184/4 232/185/4
f 232/185/4 231/184/4 233/186/4
f 233/183/5 228/184/5 232/185/5
f 232/185/5 228/184/5 229/186/5
f 231/183/6 226/184/6 233/185/6
f 233/185/6 226/184/6 228/186/6
f 234/187/1 235/188/1 236/189/1
f 236/189/1 235/188/1 196/190/1
f 157/187/2 235/188/2 163/189/2
f 163/189/2 235/188/2 234/190/2
f 235/187/3 157/188/3 196/189/3
f 196/189/3 157/188/3 201/190/3
f 157/187/4 163/188/4 201/189/4
f 201/189/4 163/188/4 237/190/4
f 237/187/5 236/188/5 201/189/5
f 201/189/5 236/188/5 196/190/5
f 163/187/6 234/188/6 237/189/6
f 237/189/6 234/188/6 236/190/6
f 238/191/1 239/192/1 240/193/1
f 240/193/1 239/192/1 241/194/1
f 242/191/2 239/192/2 243/193/2
f 243/193/2 239/192/2 238/194/2
f 239/191/3 242/192/3 241/193/3
f 241/193/3 242/192/3 244/194/3
f 242/191/4 243/192/4 244/193/4
f 244/193/4 243/192/4 245/194/4
f 245/191/5 240/192/5 244/193/5
f 244/193/5 240/192/5 241/194/5
f 243/191/6 238/192/6 245/193/6
f 245/193/6 238/192/6 240/194/6
f 241/195/1 246/196/1 247/197/1
f 247/197/1 246/196/1 248/198/1
f 249/195/2 246/196/2 244/197/2
f 244/197/2 246/196/2 241/198/2
f 246/195/3 249/196/3 248/197/3
f 248/197/3 249/196/3 250/198/3
f 249/195/4 244/196/4 250/197/4
f 250/197/4 244/196/4 251/198/4
f 251/195/5 247/196/5 250/197/5
f 250/197/5 247/196/5 248/198/5
f 244/195/6 241/196/6 251/197/6
f 251/197/6 241/196/6 247/198/6
f 207/199/1 252/200/1 253/201/1
f 253/201/1 252/200/1 254/202/1
f 255/199/2 252/200/2 210/201/2
f 210/201/2 252/200/2 207/202/2
f 252/199/3 255/200/3 254/201/3
f 254/201/3 255/200/3 256/202/3
f 255/199/4 210/200/4 256/201/4
f 256/201/4 210/200/4 257/202/4
f 257/199/5 253/200/5 256/201/5
f 256/201/5 253/200/5 254/202/5
f 210/199/6 207/200/6 257/201/6
f 257/201/6 207/200/6 253/202/6
f 258/203/1 259/204/1 260/205/1
f 260/205/1 259/204/1 226/206/1
f 261/203/2 259/204/2 262/205/2
f 262/205/2 259/204/2 258/206/2
f 259/203/3 261/204/3 226/205/3
f 226/205/3 261/204/3 231/206/3
f 261/203/4 262/204/4 231/205/4
f 231/205/4 262/204/4 263/206/4
f 263/203/5 260/204/5 231/205/5
f 231/205/5 260/204/5 226/206/5
f 262/203/6 258/204/6 263/205/6
f 263/205/6 258/204/6 260/206/6
f 160/207/1 152/208/1 264/209/1
f 264/209/1 152/208/1 212/210/1
f 265/207/2 152/208/2 266/209/2
f 266/209/2 152/208/2 160/210/2
f 152/207/3 265/208/3 212/209/3
f 212/209/3 265/208/3 217/210/3
f 265/207/4 266/208/4 217/209/4
f 217/209/4 266/208/4 267/210/4
f 267/207/5 264/208/5 217/209/5
f 217/209/5 264/208/5 212/210/5
f 266/207/6 160/208/6 267/209/6
f 267/209/6 160/208/6 264/210/6
usemtl c_ccffcc
f 268/211/1 269/212/1 270/213/1
f 270/213/1 269/212/1 271/214/1
f 272/211/2 269/212/2 273/215/2
f 273/215/2 269/212/2 268/216/2
f 269/211/3 272/212/3 271/213/3
f 271/213/3 272/212/3 274/214/3
f 272/211/4 273/212/4 274/213/4
f 274/213/4 273/212/4 275/214/4
f 275/211/5 270/212/5 274/215/5
f 274/215/5 270/212/5 271/216/5
f 273/211/6 268/212/6 275/213/6
f 275/213/6 268/212/6 270/214/6
f 276/217/1 153/218/1 271/219/1
f 271/219/1 153/218/1 277/220/1
f 156/221/2 153/218/2 278/222/2
f 278/222/2 153/218/2 276/223/2
f 153/221/3 156/218/3 277/224/3
f 277/224/3 156/218/3 279/220/3
f 156/217/4 278/218/4 279/219/4
f 279/219/4 278/218/4 274/220/4
f 274/221/5 271/218/5 279/222/5
f 279/222/5 271/218/5 277/223/5
f 278/221/6 276/218/6 274/224/6
f 274/224/6 276/218/6 271/220/6
usemtl c_1b2a35
f 177/225/1 176/226/1 179/227/1
f 179/227/1 176/226/1 178/228/1
f 155/225/2 176/226/2 280/227/2
f 280/227/2 176/226/2 177/228/2
f 176/225/3 155/226/3 178/227/3
f 178/227/3 155/226/3 161/228/3
f 155/225/4 280/226/4 161/227/4
f 161/227/4 280/226/4 162/228/4
f 162/225/5 179/226/5 161/227/5
f 161/227/5 179/226/5 178/228/5
f 280/225/6 177/226/6 162/227/6
f 162/227/6 177/226/6 179/228/6
f 281/229/1 150/230/1 158/231/1
f 158/231/1 150/230/1 159/232/1
f 173/229/2 150/230/2 172/231/2
f 172/231/2 150/230/2 281/232/2
f 150/229/3 173/230/3 159/231/3
f 159/231/3 173/230/3 175/232/3
f 173/229/4 172/230/4 175/231/4
f 175/231/4 172/230/4 174/232/4
f 174/229/5 158/230/5 175/231/5
f 175/231/5 158/230/5 159/232/5
f 172/229/6 281/230/6 174/231/6
f 174/231/6 281/230/6 158/232/6
usemtl c_f8f8f8
f 282/233/1 283/234/1 284/235/1
f 284/235/1 283/234/1 285/236/1
f 286/237/2 283/234/2 287/238/2
f 287/238/2 283/234/2 282/236/2
f 283/237/3 286/234/3 285/238/3
f 285/238/3 286/234/3 288/236/3
f 286/233/4 287/234/4 288/235/4
f 288/235/4 287/234/4 289/236/4
f 289/237/5 284/234/5 288/238/5
f 288/238/5 284/234/5 285/236/5
f 287/237/6 282/234/6 289/238/6
f 289/238/6 282/234/6 284/236/6
usemtl c_d7c59a
f 290/239/15 291/240/15 292/241/15
f 292/241/15 291/240/15 293/242/15
f 294/239/16 291/240/16 295/243/16
f 295/243/16 291/240/16 290/244/16
f 291/239/17 294/240/17 293/241/17
f 293/241/17 294/240/17 296/242/17
f 294/239/18 295/240/18 296/241/18
f 296/241/18 295/240/18 297/242/18
f 297/239/19 292/240/19 296/243/19
f 296/243/19 292/240/19 293/244/19
f 295/239/20 290/240/20 297/241/20
f 297/241/20 290/240/20 292/242/20
f 298/245/1 299/246/1 300/247/1
f 300/247/1 299/246/1 301/248/1
f 302/245/2 299/246/2 303/247/2
f 303/247/2 299/246/2 298/248/2
f 299/245/3 302/246/3 301/247/3
f 301/247/3 302/246/3 304/248/3
f 302/245/4 303/246/4 304/247/4
f 304/247/4 303/246/4 305/248/4
f 305/245/5 300/246/5 304/247/5
f 304/247/5 300/246/5 301/248/5
f 303/245/6 298/246/6 305/247/6
f 305/247/6 298/246/6 300/248/6
f 306/249/21 307/250/21 308/251/21
f 308/251/21 307/250/21 309/252/21
f 310/249/22 307/250/22 311/253/22
f 311/253/22 307/250/22 306/254/22
f 307/249/23 310/250/23 309/251/23
f 309/251/23 310/250/23 312/252/23
f 310/249/24 311/250/24 312/251/24
f 312/251/24 311/250/24 313/252/24
f 313/249/25 308/250/25 312/253/25
f 312/253/25 308/250/25 309/254/25
f 311/249/26 306/250/26 313/251/26
f 313/251/26 306/250/26 308/252/26
usemtl c_c4281c
f 314/255/1 315/256/1 316/257/1
f 316/257/1 315/256/1 317/258/1
f 318/259/2 315/256/2 319/260/2
f 319/260/2 315/256/2 314/261/2
f 315/259/3 318/256/3 317/262/3
f 317/262/3 318/256/3 320/258/3
f 318/255/4 319/256/4 320/257/4
f 320/257/4 319/256/4 321/258/4
f 321/259/5 316/256/5 320/260/5
f 320/260/5 316/256/5 317/261/5
f 319/259/6 314/256/6 321/262/6
f 321/262/6 314/256/6 316/258/6
o Head_decal1
usemtl head_decal1
f 322/263/4 323/264/4 324/265/4
f 324/265/4 323/264/4 325/266/4
o Head_decal2
usemtl head_decal2
f 326/263/1 327/264/1 328/265/1
f 328/265/1 327/264/1 329/266/1
o RightFoot
usemtl c_7c9c6b
f 330/15/1 331/16/1 332/267/1
f 332/267/1 331/16/1 333/268/1
f 334/15/2 331/16/2 335/19/2
f 335/19/2 331/16/2 330/20/2
f 331/15/3 334/16/3 333/267/3
f 333/267/3 334/16/3 336/268/3
f 334/15/4 335/16/4 336/267/4
f 336/267/4 335/16/4 337/268/4
f 337/15/5 332/16/5 336/19/5
f 336/19/5 332/16/5 333/20/5
f 335/15/6 330/16/6 337/267/6
f 337/267/6 330/16/6 332/268/6
usemtl c_1b2a35
f 338/269/1 339/270/1 340/271/1
f 340/271/1 339/270/1 341/272/1
f 335/269/2 339/270/2 342/271/2
f 342/271/2 339/270/2 338/272/2
f 339/269/3 335/270/3 341/271/3
f 341/271/3 335/270/3 337/272/3
f 335/269/4 342/270/4 337/271/4
f 337/271/4 342/270/4 343/272/4
f 343/269/5 340/270/5 337/271/5
f 337/271/5 340/270/5 341/272/5
f 342/269/6 338/270/6 343/271/6
f 343/271/6 338/270/6 340/272/6
f 344/273/1 345/274/1 346/275/1
f 346/275/1 345/274/1 347/276/1
f 61/273/2 345/274/2 348/275/2
f 348/275/2 345/274/2 344/276/2
f 345/273/3 61/274/3 347/275/3
f 347/275/3 61/274/3 349/276/3
f 61/273/4 348/274/4 349/275/4
f 349/275/4 348/274/4 350/276/4
f 350/273/5 346/274/5 349/275/5
f 349/275/5 346/274/5 347/276/5
f 348/273/6 344/274/6 350/275/6
f 350/275/6 344/274/6 346/276/6
o Tail
usemtl c_7c9c6b
f 351/277/1 352/278/1 353/279/1
f 353/279/1 352/278/1 354/280/1
f 355/281/2 352/278/2 356/282/2
f 356/282/2 352/278/2 351/283/2
f 352/281/3 355/278/3 354/284/3
f 354/284/3 355/278/3 357/280/3
f 355/277/4 356/278/4 357/279/4
f 357/279/4 356/278/4 358/280/4
f 358/281/5 353/278/5 357/282/5
f 357/282/5 353/278/5 354/283/5
f 356/281/6 351/278/6 358/284/6
f 358/284/6 351/278/6 353/280/6
f 359/285/1 360/286/1 361/287/1
f 361/287/1 360/286/1 362/288/1
f 363/289/2 360/286/2 364/290/2
f 364/290/2 360/286/2 359/291/2
f 360/289/3 363/286/3 362/292/3
f 362/292/3 363/286/3 365/288/3
f 363/285/4 364/286/4 365/287/4
f 365/287/4 364/286/4 366/288/4
f 366/289/5 361/286/5 365/290/5
f 365/290/5 361/286/5 362/291/5
f 364/289/6 359/286/6 366/292/6
f 366/292/6 359/286/6 361/288/6
usemtl c_d7c59a
f 367/293/1 368/294/1 369/295/1
f 369/295/1 368/294/1 351/296/1
f 370/293/2 368/294/2 371/295/2
f 371/295/2 368/294/2 367/296/2
f 368/293/3 370/294/3 351/295/3
f 351/295/3 370/294/3 356/296/3
f 370/293/4 371/294/4 356/295/4
f 356/295/4 371/294/4 372/296/4
f 372/293/5 369/294/5 356/295/5
f 356/295/5 369/294/5 351/296/5
f 371/293/6 367/294/6 372/295/6
f 372/295/6 367/294/6 369/296/6
f 373/297/1 374/298/1 375/299/1
f 375/299/1 374/298/1 376/300/1
f 377/297/2 374/298/2 378/299/2
f 378/299/2 374/298/2 373/300/2
f 374/297/3 377/298/3 376/299/3
f 376/299/3 377/298/3 379/300/3
f 377/297/4 378/298/4 379/299/4
f 379/299/4 378/298/4 380/300/4
f 380/297/5 375/298/5 379/299/5
f 379/299/5 375/298/5 376/300/5
f 378/297/6 373/298/6 380/299/6
f 380/299/6 373/298/6 375/300/6
usemtl c_ccffcc
f 361/301/1 362/302/1 381/303/1
f 381/303/1 362/302/1 382/304/1
f 365/305/2 362/302/2 366/306/2
f 366/306/2 362/302/2 361/307/2
f 362/305/3 365/302/3 382/308/3
f 382/308/3 365/302/3 383/304/3
f 365/301/4 366/302/4 383/303/4
f 383/303/4 366/302/4 384/304/4
f 384/305/5 381/302/5 383/306/5
f 383/306/5 381/302/5 382/307/5
f 366/305/6 361/302/6 384/308/6
f 384/308/6 361/302/6 381/304/6
