# Roblox asset pack: prism_blade (props), from the Studio model "PrismBlade". Exported with Export Selection, split by tools/build_creatures.py: one object per rigid body. Units: studs. +Y up, front faces -Z, pivot (bottom centre) at the origin.
mtllib prism_blade.mtl

v 0.00000 1.64990 0.01000
v -0.08320 1.64990 -0.12000
v -0.10610 1.64990 -0.10000
v -0.04740 1.64990 -0.13000
v 0.00000 1.64990 -0.14000
v 0.04740 1.64990 -0.13000
v 0.08320 1.64990 -0.12000
v 0.10610 1.64990 -0.10000
v 0.12480 1.64990 -0.08000
v 0.14230 1.64990 -0.04000
v 0.15000 1.64990 0.01000
v 0.14230 1.64990 0.06000
v 0.12480 1.64990 0.09000
v 0.10610 1.64990 0.11000
v 0.08320 1.64990 0.13000
v 0.04740 1.64990 0.15000
v 0.00000 1.64990 0.16000
v -0.04740 1.64990 0.15000
v -0.08320 1.64990 0.13000
v -0.10610 1.64990 0.11000
v -0.12480 1.64990 0.09000
v -0.14230 1.64990 0.06000
v -0.15000 1.64990 0.01000
v -0.14230 1.64990 -0.04000
v -0.12480 1.64990 -0.08000
v -0.10610 0.44990 0.11000
v -0.12480 0.44990 0.09000
v -0.14230 0.44990 0.06000
v -0.15000 0.44990 0.01000
v -0.14230 0.44990 -0.04000
v -0.12480 0.44990 -0.08000
v -0.10610 0.44990 -0.10000
v -0.08320 0.44990 0.13000
v -0.04740 0.44990 0.15000
v 0.00000 0.44990 0.16000
v 0.04740 0.44990 0.15000
v 0.08320 0.44990 0.13000
v 0.10610 0.44990 0.11000
v 0.00000 0.44990 0.01000
v 0.12480 0.44990 0.09000
v 0.14230 0.44990 0.06000
v 0.15000 0.44990 0.01000
v 0.14230 0.44990 -0.04000
v 0.12480 0.44990 -0.08000
v 0.10610 0.44990 -0.10000
v 0.08320 0.44990 -0.12000
v 0.04740 0.44990 -0.13000
v 0.00000 0.44990 -0.14000
v -0.04740 0.44990 -0.13000
v -0.08320 0.44990 -0.12000
v 0.00000 0.68990 0.01000
v -0.09150 0.68990 -0.13000
v -0.11670 0.68990 -0.11000
v -0.05220 0.68990 -0.15000
v 0.00000 0.68990 -0.16000
v 0.05220 0.68990 -0.15000
v 0.09150 0.68990 -0.13000
v 0.11670 0.68990 -0.11000
v 0.13730 0.68990 -0.08000
v 0.15650 0.68990 -0.04000
v 0.16500 0.68990 0.01000
v 0.15650 0.68990 0.06000
v 0.13730 0.68990 0.10000
v 0.11670 0.68990 0.12000
v 0.09150 0.68990 0.15000
v 0.05220 0.68990 0.16000
v 0.00000 0.68990 0.17000
v -0.05220 0.68990 0.16000
v -0.09150 0.68990 0.15000
v -0.11670 0.68990 0.12000
v -0.13730 0.68990 0.10000
v -0.15650 0.68990 0.06000
v -0.16500 0.68990 0.01000
v -0.15650 0.68990 -0.04000
v -0.13730 0.68990 -0.08000
v -0.11670 0.60990 0.12000
v -0.13730 0.60990 0.10000
v -0.15650 0.60990 0.06000
v -0.16500 0.60990 0.01000
v -0.15650 0.60990 -0.04000
v -0.13730 0.60990 -0.08000
v -0.11670 0.60990 -0.11000
v -0.09150 0.60990 0.15000
v -0.05220 0.60990 0.16000
v 0.00000 0.60990 0.17000
v 0.05220 0.60990 0.16000
v 0.09150 0.60990 0.15000
v 0.11670 0.60990 0.12000
v 0.00000 0.60990 0.01000
v 0.13730 0.60990 0.10000
v 0.15650 0.60990 0.06000
v 0.16500 0.60990 0.01000
v 0.15650 0.60990 -0.04000
v 0.13730 0.60990 -0.08000
v 0.11670 0.60990 -0.11000
v 0.09150 0.60990 -0.13000
v 0.05220 0.60990 -0.15000
v 0.00000 0.60990 -0.16000
v -0.05220 0.60990 -0.15000
v -0.09150 0.60990 -0.13000
v 0.00000 1.08990 0.01000
v -0.09150 1.08990 -0.13000
v -0.11670 1.08990 -0.11000
v -0.05220 1.08990 -0.15000
v 0.00000 1.08990 -0.16000
v 0.05220 1.08990 -0.15000
v 0.09150 1.08990 -0.13000
v 0.11670 1.08990 -0.11000
v 0.13730 1.08990 -0.08000
v 0.15650 1.08990 -0.04000
v 0.16500 1.08990 0.01000
v 0.15650 1.08990 0.06000
v 0.13730 1.08990 0.10000
v 0.11670 1.08990 0.12000
v 0.09150 1.08990 0.15000
v 0.05220 1.08990 0.16000
v 0.00000 1.08990 0.17000
v -0.05220 1.08990 0.16000
v -0.09150 1.08990 0.15000
v -0.11670 1.08990 0.12000
v -0.13730 1.08990 0.10000
v -0.15650 1.08990 0.06000
v -0.16500 1.08990 0.01000
v -0.15650 1.08990 -0.04000
v -0.13730 1.08990 -0.08000
v -0.11670 1.01990 0.12000
v -0.13730 1.01990 0.10000
v -0.15650 1.01990 0.06000
v -0.16500 1.01990 0.01000
v -0.15650 1.01990 -0.04000
v -0.13730 1.01990 -0.08000
v -0.11670 1.01990 -0.11000
v -0.09150 1.01990 0.15000
v -0.05220 1.01990 0.16000
v 0.00000 1.01990 0.17000
v 0.05220 1.01990 0.16000
v 0.09150 1.01990 0.15000
v 0.11670 1.01990 0.12000
v 0.00000 1.01990 0.01000
v 0.13730 1.01990 0.10000
v 0.15650 1.01990 0.06000
v 0.16500 1.01990 0.01000
v 0.15650 1.01990 -0.04000
v 0.13730 1.01990 -0.08000
v 0.11670 1.01990 -0.11000
v 0.09150 1.01990 -0.13000
v 0.05220 1.01990 -0.15000
v 0.00000 1.01990 -0.16000
v -0.05220 1.01990 -0.15000
v -0.09150 1.01990 -0.13000
v 0.00000 1.48990 0.01000
v -0.09150 1.48990 -0.13000
v -0.11670 1.48990 -0.11000
v -0.05220 1.48990 -0.15000
v 0.00000 1.48990 -0.16000
v 0.05220 1.48990 -0.15000
v 0.09150 1.48990 -0.13000
v 0.11670 1.48990 -0.11000
v 0.13730 1.48990 -0.08000
v 0.15650 1.48990 -0.04000
v 0.16500 1.48990 0.01000
v 0.15650 1.48990 0.06000
v 0.13730 1.48990 0.10000
v 0.11670 1.48990 0.12000
v 0.09150 1.48990 0.15000
v 0.05220 1.48990 0.16000
v 0.00000 1.48990 0.17000
v -0.05220 1.48990 0.16000
v -0.09150 1.48990 0.15000
v -0.11670 1.48990 0.12000
v -0.13730 1.48990 0.10000
v -0.15650 1.48990 0.06000
v -0.16500 1.48990 0.01000
v -0.15650 1.48990 -0.04000
v -0.13730 1.48990 -0.08000
v -0.11670 1.41990 0.12000
v -0.13730 1.41990 0.10000
v -0.15650 1.41990 0.06000
v -0.16500 1.41990 0.01000
v -0.15650 1.41990 -0.04000
v -0.13730 1.41990 -0.08000
v -0.11670 1.41990 -0.11000
v -0.09150 1.41990 0.15000
v -0.05220 1.41990 0.16000
v 0.00000 1.41990 0.17000
v 0.05220 1.41990 0.16000
v 0.09150 1.41990 0.15000
v 0.11670 1.41990 0.12000
v 0.00000 1.41990 0.01000
v 0.13730 1.41990 0.10000
v 0.15650 1.41990 0.06000
v 0.16500 1.41990 0.01000
v 0.15650 1.41990 -0.04000
v 0.13730 1.41990 -0.08000
v 0.11670 1.41990 -0.11000
v 0.09150 1.41990 -0.13000
v 0.05220 1.41990 -0.15000
v 0.00000 1.41990 -0.16000
v -0.05220 1.41990 -0.15000
v -0.09150 1.41990 -0.13000
v 0.61050 4.81990 -0.04000
v 0.70950 4.81990 0.06000
v 0.70020 4.53990 -0.13000
v 0.79920 4.53990 -0.03000
v 0.61980 4.75990 0.15000
v 0.52080 4.75990 0.05000
v 0.70950 4.47990 0.06000
v 0.61050 4.47990 -0.04000
v 0.13280 0.35990 -0.12000
v 0.14710 0.37990 -0.09000
v 0.14710 0.32990 -0.14000
v 0.16740 0.33990 -0.10000
v 0.15830 0.38990 -0.04000
v 0.18440 0.34990 -0.05000
v 0.16260 0.38990 0.01000
v 0.19140 0.35990 0.01000
v 0.15830 0.38990 0.06000
v 0.18440 0.34990 0.07000
v 0.14710 0.37990 0.11000
v 0.16740 0.33990 0.12000
v 0.13280 0.35990 0.14000
v 0.14710 0.32990 0.15000
v 0.15830 0.27990 -0.15000
v 0.18440 0.28990 -0.12000
v 0.20800 0.29990 -0.06000
v 0.21820 0.29990 0.01000
v 0.20800 0.29990 0.08000
v 0.18440 0.28990 0.13000
v 0.15830 0.27990 0.17000
v 0.16260 0.22990 -0.15000
v 0.19140 0.22990 -0.12000
v 0.21820 0.22990 -0.06000
v 0.23000 0.22990 0.01000
v 0.21820 0.22990 0.08000
v 0.19140 0.22990 0.14000
v 0.16260 0.22990 0.17000
v 0.15830 0.17990 -0.15000
v 0.18440 0.16990 -0.12000
v 0.20800 0.15990 -0.06000
v 0.21820 0.15990 0.01000
v 0.20800 0.15990 0.08000
v 0.18440 0.16990 0.13000
v 0.15830 0.17990 0.17000
v 0.14710 0.12990 -0.14000
v 0.16740 0.11990 -0.10000
v 0.18440 0.10990 -0.05000
v 0.19140 0.09990 0.01000
v 0.18440 0.10990 0.07000
v 0.16740 0.11990 0.12000
v 0.14710 0.12990 0.15000
v 0.13280 0.09990 -0.12000
v 0.14710 0.07990 -0.09000
v 0.15830 0.06990 -0.04000
v 0.16260 0.06990 0.01000
v 0.15830 0.06990 0.06000
v 0.14710 0.07990 0.11000
v 0.13280 0.09990 0.14000
v -0.13280 0.35990 0.14000
v -0.09810 0.37990 0.15000
v -0.14710 0.37990 0.11000
v -0.11160 0.39990 0.12000
v -0.05280 0.38990 0.17000
v -0.06150 0.40990 0.13000
v 0.00000 0.38990 0.17000
v 0.00000 0.41990 0.14000
v 0.05280 0.38990 0.17000
v 0.06150 0.40990 0.13000
v 0.09810 0.37990 0.15000
v 0.11160 0.39990 0.12000
v -0.15830 0.38990 0.06000
v -0.12290 0.40990 0.07000
v -0.06940 0.43990 0.08000
v 0.00000 0.44990 0.08000
v 0.06940 0.43990 0.08000
v 0.12290 0.40990 0.07000
v -0.16260 0.38990 0.01000
v -0.12760 0.41990 0.01000
v -0.07270 0.44990 0.01000
v 0.00000 0.45990 0.01000
v 0.07270 0.44990 0.01000
v 0.12760 0.41990 0.01000
v -0.15830 0.38990 -0.04000
v -0.12290 0.40990 -0.05000
v -0.06940 0.43990 -0.06000
v 0.00000 0.44990 -0.06000
v 0.06940 0.43990 -0.06000
v 0.12290 0.40990 -0.05000
v -0.14710 0.37990 -0.09000
v -0.11160 0.39990 -0.10000
v -0.06150 0.40990 -0.12000
v 0.00000 0.41990 -0.12000
v 0.06150 0.40990 -0.12000
v 0.11160 0.39990 -0.10000
v -0.13280 0.35990 -0.12000
v -0.09810 0.37990 -0.14000
v -0.05280 0.38990 -0.15000
v 0.00000 0.38990 -0.15000
v 0.05280 0.38990 -0.15000
v 0.09810 0.37990 -0.14000
v 0.11160 0.33990 0.18000
v 0.06150 0.34990 0.19000
v 0.00000 0.35990 0.20000
v -0.06150 0.34990 0.19000
v -0.11160 0.33990 0.18000
v -0.14710 0.32990 0.15000
v 0.12290 0.28990 0.19000
v 0.06940 0.29990 0.22000
v 0.00000 0.29990 0.23000
v -0.06940 0.29990 0.22000
v -0.12290 0.28990 0.19000
v -0.15830 0.27990 0.17000
v 0.12760 0.22990 0.20000
v 0.07270 0.22990 0.23000
v 0.00000 0.22990 0.24000
v -0.07270 0.22990 0.23000
v -0.12760 0.22990 0.20000
v -0.16260 0.22990 0.17000
v 0.12290 0.16990 0.19000
v 0.06940 0.15990 0.22000
v 0.00000 0.15990 0.23000
v -0.06940 0.15990 0.22000
v -0.12290 0.16990 0.19000
v -0.15830 0.17990 0.17000
v 0.11160 0.11990 0.18000
v 0.06150 0.10990 0.19000
v 0.00000 0.09990 0.20000
v -0.06150 0.10990 0.19000
v -0.11160 0.11990 0.18000
v -0.14710 0.12990 0.15000
v 0.09810 0.07990 0.15000
v 0.05280 0.06990 0.17000
v 0.00000 0.06990 0.17000
v -0.05280 0.06990 0.17000
v -0.09810 0.07990 0.15000
v -0.13280 0.09990 0.14000
v -0.16740 0.33990 0.12000
v -0.18440 0.34990 0.07000
v -0.19140 0.35990 0.01000
v -0.18440 0.34990 -0.05000
v -0.16740 0.33990 -0.10000
v -0.14710 0.32990 -0.14000
v -0.18440 0.28990 0.13000
v -0.20800 0.29990 0.08000
v -0.21820 0.29990 0.01000
v -0.20800 0.29990 -0.06000
v -0.18440 0.28990 -0.12000
v -0.15830 0.27990 -0.15000
v -0.19140 0.22990 0.14000
v -0.21820 0.22990 0.08000
v -0.23000 0.22990 0.01000
v -0.21820 0.22990 -0.06000
v -0.19140 0.22990 -0.12000
v -0.16260 0.22990 -0.15000
v -0.18440 0.16990 0.13000
v -0.20800 0.15990 0.08000
v -0.21820 0.15990 0.01000
v -0.20800 0.15990 -0.06000
v -0.18440 0.16990 -0.12000
v -0.15830 0.17990 -0.15000
v -0.16740 0.11990 0.12000
v -0.18440 0.10990 0.07000
v -0.19140 0.09990 0.01000
v -0.18440 0.10990 -0.05000
v -0.16740 0.11990 -0.10000
v -0.14710 0.12990 -0.14000
v -0.14710 0.07990 0.11000
v -0.15830 0.06990 0.06000
v -0.16260 0.06990 0.01000
v -0.15830 0.06990 -0.04000
v -0.14710 0.07990 -0.09000
v -0.13280 0.09990 -0.12000
v -0.09810 0.07990 -0.14000
v -0.11160 0.05990 -0.10000
v -0.05280 0.06990 -0.15000
v -0.06150 0.04990 -0.12000
v 0.00000 0.06990 -0.15000
v 0.00000 0.03990 -0.12000
v 0.05280 0.06990 -0.15000
v 0.06150 0.04990 -0.12000
v 0.09810 0.07990 -0.14000
v 0.11160 0.05990 -0.10000
v -0.12290 0.04990 -0.05000
v -0.06940 0.01990 -0.06000
v 0.00000 0.00990 -0.06000
v 0.06940 0.01990 -0.06000
v 0.12290 0.04990 -0.05000
v -0.12760 0.03990 0.01000
v -0.07270 0.00990 0.01000
v 0.00000 -0.00010 0.01000
v 0.07270 0.00990 0.01000
v 0.12760 0.03990 0.01000
v -0.12290 0.04990 0.07000
v -0.06940 0.01990 0.08000
v 0.00000 0.00990 0.08000
v 0.06940 0.01990 0.08000
v 0.12290 0.04990 0.07000
v -0.11160 0.05990 0.12000
v -0.06150 0.04990 0.13000
v 0.00000 0.03990 0.14000
v 0.06150 0.04990 0.13000
v 0.11160 0.05990 0.12000
v -0.11160 0.33990 -0.16000
v -0.06150 0.34990 -0.18000
v 0.00000 0.35990 -0.18000
v 0.06150 0.34990 -0.18000
v 0.11160 0.33990 -0.16000
v -0.12290 0.28990 -0.18000
v -0.06940 0.29990 -0.20000
v 0.00000 0.29990 -0.21000
v 0.06940 0.29990 -0.20000
v 0.12290 0.28990 -0.18000
v -0.12760 0.22990 -0.18000
v -0.07270 0.22990 -0.21000
v 0.00000 0.22990 -0.22000
v 0.07270 0.22990 -0.21000
v 0.12760 0.22990 -0.18000
v -0.12290 0.16990 -0.18000
v -0.06940 0.15990 -0.20000
v 0.00000 0.15990 -0.21000
v 0.06940 0.15990 -0.20000
v 0.12290 0.16990 -0.18000
v -0.11160 0.11990 -0.16000
v -0.06150 0.10990 -0.18000
v 0.00000 0.09990 -0.18000
v 0.06150 0.10990 -0.18000
v 0.11160 0.11990 -0.16000
v -0.05480 1.79990 -0.10000
v -0.05480 1.79990 0.12000
v -0.10050 1.58990 -0.10000
v -0.10050 1.58990 0.12000
v -0.73950 1.94990 0.12000
v -0.73950 1.94990 -0.10000
v -0.78520 1.73990 0.12000
v -0.78520 1.73990 -0.10000
v 0.73950 1.94990 -0.10000
v 0.73950 1.94990 0.12000
v 0.78520 1.73990 -0.10000
v 0.78520 1.73990 0.12000
v 0.05480 1.79990 0.12000
v 0.05480 1.79990 -0.10000
v 0.10050 1.58990 0.12000
v 0.10050 1.58990 -0.10000
v -0.88120 2.14990 -0.11000
v -0.69730 2.14990 0.07000
v -0.76990 1.71990 -0.23000
v -0.58610 1.71990 -0.04000
v -0.87010 2.05990 0.24000
v -1.05390 2.05990 0.06000
v -0.75880 1.62990 0.13000
v -0.94270 1.62990 -0.05000
v 0.67050 2.91990 -0.04000
v 0.76950 2.91990 0.06000
v 0.76020 2.63990 -0.13000
v 0.85920 2.63990 -0.03000
v 0.67980 2.85990 0.15000
v 0.58080 2.85990 0.05000
v 0.76950 2.57990 0.06000
v 0.67050 2.57990 -0.04000
v 0.87010 2.05990 -0.23000
v 1.05390 2.05990 -0.04000
v 0.75880 1.62990 -0.11000
v 0.94270 1.62990 0.07000
v 0.88120 2.14990 0.13000
v 0.69730 2.14990 -0.05000
v 0.76990 1.71990 0.24000
v 0.58610 1.71990 0.06000
v 0.08660 1.85990 -0.18000
v 0.09590 1.86990 -0.16000
v 0.09590 1.82990 -0.19000
v 0.10910 1.83990 -0.17000
v 0.10320 1.86990 -0.13000
v 0.12030 1.84990 -0.13000
v 0.10610 1.87990 -0.09000
v 0.12480 1.84990 -0.09000
v 0.10320 1.86990 -0.06000
v 0.12030 1.84990 -0.05000
v 0.09590 1.86990 -0.03000
v 0.10910 1.83990 -0.02000
v 0.08660 1.85990 -0.01000
v 0.09590 1.82990 0.00000
v 0.10320 1.79990 -0.20000
v 0.12030 1.80990 -0.17000
v 0.13570 1.81990 -0.14000
v 0.14230 1.81990 -0.09000
v 0.13570 1.81990 -0.05000
v 0.12030 1.80990 -0.01000
v 0.10320 1.79990 0.01000
v 0.10610 1.76990 -0.20000
v 0.12480 1.76990 -0.18000
v 0.14230 1.76990 -0.14000
v 0.15000 1.76990 -0.09000
v 0.14230 1.76990 -0.04000
v 0.12480 1.76990 -0.01000
v 0.10610 1.76990 0.01000
v 0.10320 1.73990 -0.20000
v 0.12030 1.72990 -0.17000
v 0.13570 1.71990 -0.14000
v 0.14230 1.71990 -0.09000
v 0.13570 1.71990 -0.05000
v 0.12030 1.72990 -0.01000
v 0.10320 1.73990 0.01000
v 0.09590 1.70990 -0.19000
v 0.10910 1.69990 -0.17000
v 0.12030 1.68990 -0.13000
v 0.12480 1.68990 -0.09000
v 0.12030 1.68990 -0.05000
v 0.10910 1.69990 -0.02000
v 0.09590 1.70990 0.00000
v 0.08660 1.67990 -0.18000
v 0.09590 1.66990 -0.16000
v 0.10320 1.66990 -0.13000
v 0.10610 1.65990 -0.09000
v 0.10320 1.66990 -0.06000
v 0.09590 1.66990 -0.03000
v 0.08660 1.67990 -0.01000
v -0.08660 1.85990 -0.01000
v -0.06400 1.86990 0.00000
v -0.09590 1.86990 -0.03000
v -0.07280 1.87990 -0.02000
v -0.03440 1.86990 0.01000
v -0.04010 1.88990 -0.01000
v 0.00000 1.87990 0.01000
v 0.00000 1.88990 -0.01000
v 0.03440 1.86990 0.01000
v 0.04010 1.88990 -0.01000
v 0.06400 1.86990 0.00000
v 0.07280 1.87990 -0.02000
v -0.10320 1.86990 -0.06000
v -0.08020 1.88990 -0.05000
v -0.04520 1.90990 -0.05000
v 0.00000 1.90990 -0.04000
v 0.04520 1.90990 -0.05000
v 0.08020 1.88990 -0.05000
v -0.10610 1.87990 -0.09000
v -0.08320 1.88990 -0.09000
v -0.04740 1.90990 -0.09000
v 0.00000 1.91990 -0.09000
v 0.04740 1.90990 -0.09000
v 0.08320 1.88990 -0.09000
v -0.10320 1.86990 -0.13000
v -0.08020 1.88990 -0.13000
v -0.04520 1.90990 -0.14000
v 0.00000 1.90990 -0.14000
v 0.04520 1.90990 -0.14000
v 0.08020 1.88990 -0.13000
v -0.09590 1.86990 -0.16000
v -0.07280 1.87990 -0.17000
v -0.04010 1.88990 -0.17000
v 0.00000 1.88990 -0.18000
v 0.04010 1.88990 -0.17000
v 0.07280 1.87990 -0.17000
v -0.08660 1.85990 -0.18000
v -0.06400 1.86990 -0.19000
v -0.03440 1.86990 -0.20000
v 0.00000 1.87990 -0.20000
v 0.03440 1.86990 -0.20000
v 0.06400 1.86990 -0.19000
v 0.07280 1.83990 0.02000
v 0.04010 1.84990 0.03000
v 0.00000 1.84990 0.03000
v -0.04010 1.84990 0.03000
v -0.07280 1.83990 0.02000
v -0.09590 1.82990 0.00000
v 0.08020 1.80990 0.03000
v 0.04520 1.81990 0.04000
v 0.00000 1.81990 0.05000
v -0.04520 1.81990 0.04000
v -0.08020 1.80990 0.03000
v -0.10320 1.79990 0.01000
v 0.08320 1.76990 0.03000
v 0.04740 1.76990 0.05000
v 0.00000 1.76990 0.06000
v -0.04740 1.76990 0.05000
v -0.08320 1.76990 0.03000
v -0.10610 1.76990 0.01000
v 0.08020 1.72990 0.03000
v 0.04520 1.71990 0.04000
v 0.00000 1.71990 0.05000
v -0.04520 1.71990 0.04000
v -0.08020 1.72990 0.03000
v -0.10320 1.73990 0.01000
v 0.07280 1.69990 0.02000
v 0.04010 1.68990 0.03000
v 0.00000 1.68990 0.03000
v -0.04010 1.68990 0.03000
v -0.07280 1.69990 0.02000
v -0.09590 1.70990 0.00000
v 0.06400 1.66990 0.00000
v 0.03440 1.66990 0.01000
v 0.00000 1.65990 0.01000
v -0.03440 1.66990 0.01000
v -0.06400 1.66990 0.00000
v -0.08660 1.67990 -0.01000
v -0.10910 1.83990 -0.02000
v -0.12030 1.84990 -0.05000
v -0.12480 1.84990 -0.09000
v -0.12030 1.84990 -0.13000
v -0.10910 1.83990 -0.17000
v -0.09590 1.82990 -0.19000
v -0.12030 1.80990 -0.01000
v -0.13570 1.81990 -0.05000
v -0.14230 1.81990 -0.09000
v -0.13570 1.81990 -0.14000
v -0.12030 1.80990 -0.17000
v -0.10320 1.79990 -0.20000
v -0.12480 1.76990 -0.01000
v -0.14230 1.76990 -0.04000
v -0.15000 1.76990 -0.09000
v -0.14230 1.76990 -0.14000
v -0.12480 1.76990 -0.18000
v -0.10610 1.76990 -0.20000
v -0.12030 1.72990 -0.01000
v -0.13570 1.71990 -0.05000
v -0.14230 1.71990 -0.09000
v -0.13570 1.71990 -0.14000
v -0.12030 1.72990 -0.17000
v -0.10320 1.73990 -0.20000
v -0.10910 1.69990 -0.02000
v -0.12030 1.68990 -0.05000
v -0.12480 1.68990 -0.09000
v -0.12030 1.68990 -0.13000
v -0.10910 1.69990 -0.17000
v -0.09590 1.70990 -0.19000
v -0.09590 1.66990 -0.03000
v -0.10320 1.66990 -0.06000
v -0.10610 1.65990 -0.09000
v -0.10320 1.66990 -0.13000
v -0.09590 1.66990 -0.16000
v -0.08660 1.67990 -0.18000
v -0.06400 1.66990 -0.19000
v -0.07280 1.65990 -0.17000
v -0.03440 1.66990 -0.20000
v -0.04010 1.64990 -0.17000
v 0.00000 1.65990 -0.20000
v 0.00000 1.64990 -0.18000
v 0.03440 1.66990 -0.20000
v 0.04010 1.64990 -0.17000
v 0.06400 1.66990 -0.19000
v 0.07280 1.65990 -0.17000
v -0.08020 1.64990 -0.13000
v -0.04520 1.62990 -0.14000
v 0.00000 1.62990 -0.14000
v 0.04520 1.62990 -0.14000
v 0.08020 1.64990 -0.13000
v -0.08320 1.64990 -0.09000
v -0.04740 1.62990 -0.09000
v 0.00000 1.61990 -0.09000
v 0.04740 1.62990 -0.09000
v 0.08320 1.64990 -0.09000
v -0.08020 1.64990 -0.05000
v -0.04520 1.62990 -0.05000
v 0.00000 1.62990 -0.04000
v 0.04520 1.62990 -0.05000
v 0.08020 1.64990 -0.05000
v -0.07280 1.65990 -0.02000
v -0.04010 1.64990 -0.01000
v 0.00000 1.64990 -0.01000
v 0.04010 1.64990 -0.01000
v 0.07280 1.65990 -0.02000
v -0.07280 1.83990 -0.20000
v -0.04010 1.84990 -0.21000
v 0.00000 1.84990 -0.22000
v 0.04010 1.84990 -0.21000
v 0.07280 1.83990 -0.20000
v -0.08020 1.80990 -0.21000
v -0.04520 1.81990 -0.23000
v 0.00000 1.81990 -0.23000
v 0.04520 1.81990 -0.23000
v 0.08020 1.80990 -0.21000
v -0.08320 1.76990 -0.22000
v -0.04740 1.76990 -0.23000
v 0.00000 1.76990 -0.24000
v 0.04740 1.76990 -0.23000
v 0.08320 1.76990 -0.22000
v -0.08020 1.72990 -0.21000
v -0.04520 1.71990 -0.23000
v 0.00000 1.71990 -0.23000
v 0.04520 1.71990 -0.23000
v 0.08020 1.72990 -0.21000
v -0.07280 1.69990 -0.20000
v -0.04010 1.68990 -0.21000
v 0.00000 1.68990 -0.22000
v 0.04010 1.68990 -0.21000
v 0.07280 1.69990 -0.20000
v -0.80950 3.91990 -0.04000
v -0.71050 3.91990 0.06000
v -0.71980 3.63990 -0.13000
v -0.62080 3.63990 -0.03000
v -0.80020 3.85990 0.15000
v -0.89920 3.85990 0.05000
v -0.71050 3.57990 0.06000
v -0.80950 3.57990 -0.04000
v 0.30000 2.32990 -0.06000
v 0.30000 2.32990 0.08000
v 0.30000 1.86990 -0.06000
v 0.30000 1.86990 0.08000
v -0.30000 2.32990 0.08000
v -0.30000 2.32990 -0.06000
v -0.30000 1.86990 0.08000
v -0.30000 1.86990 -0.06000
v 0.33000 2.74990 -0.06000
v 0.33000 2.74990 0.08000
v 0.33000 2.28990 -0.06000
v 0.33000 2.28990 0.08000
v -0.33000 2.74990 0.08000
v -0.33000 2.74990 -0.06000
v -0.33000 2.28990 0.08000
v -0.33000 2.28990 -0.06000
v 0.35000 3.16990 -0.06000
v 0.35000 3.16990 0.08000
v 0.35000 2.70990 -0.06000
v 0.35000 2.70990 0.08000
v -0.35000 3.16990 0.08000
v -0.35000 3.16990 -0.06000
v -0.35000 2.70990 0.08000
v -0.35000 2.70990 -0.06000
v 0.35000 3.58990 -0.06000
v 0.35000 3.58990 0.08000
v 0.35000 3.12990 -0.06000
v 0.35000 3.12990 0.08000
v -0.35000 3.58990 0.08000
v -0.35000 3.58990 -0.06000
v -0.35000 3.12990 0.08000
v -0.35000 3.12990 -0.06000
v 0.34000 4.00990 -0.06000
v 0.34000 4.00990 0.08000
v 0.34000 3.54990 -0.06000
v 0.34000 3.54990 0.08000
v -0.34000 4.00990 0.08000
v -0.34000 4.00990 -0.06000
v -0.34000 3.54990 0.08000
v -0.34000 3.54990 -0.06000
v 0.32000 4.42990 -0.06000
v 0.32000 4.42990 0.08000
v 0.32000 3.96990 -0.06000
v 0.32000 3.96990 0.08000
v -0.32000 4.42990 0.08000
v -0.32000 4.42990 -0.06000
v -0.32000 3.96990 0.08000
v -0.32000 3.96990 -0.06000
v 0.29000 4.84990 -0.06000
v 0.29000 4.84990 0.08000
v 0.29000 4.38990 -0.06000
v 0.29000 4.38990 0.08000
v -0.29000 4.84990 0.08000
v -0.29000 4.84990 -0.06000
v -0.29000 4.38990 0.08000
v -0.29000 4.38990 -0.06000
v 0.26000 5.26990 -0.06000
v 0.26000 5.26990 0.08000
v 0.26000 4.80990 -0.06000
v 0.26000 4.80990 0.08000
v -0.26000 5.26990 0.08000
v -0.26000 5.26990 -0.06000
v -0.26000 4.80990 0.08000
v -0.26000 4.80990 -0.06000
v 0.00000 6.19990 0.08000
v 0.26000 5.24990 0.08000
v 0.00000 5.24990 0.08000
v 0.00000 6.19990 -0.06000
v 0.00000 5.24990 -0.06000
v 0.26000 5.24990 -0.06000
v -0.26000 5.24990 -0.06000
v -0.26000 5.24990 0.08000
v 0.04000 5.14990 -0.08000
v 0.04000 5.14990 0.10000
v 0.04000 1.94990 -0.08000
v 0.04000 1.94990 0.10000
v -0.04000 5.14990 0.10000
v -0.04000 5.14990 -0.08000
v -0.04000 1.94990 0.10000
v -0.04000 1.94990 -0.08000
vt -0.03172 1.04704
vt -0.01612 1.05744
vt -0.01846 1.06030
vt -0.01393 1.05297
vt -0.01297 1.04704
vt -0.01393 1.04111
vt -0.01612 1.03664
vt -0.01846 1.03378
vt -0.02132 1.03144
vt -0.02579 1.02925
vt -0.03172 1.02829
vt -0.03765 1.02925
vt -0.04212 1.03144
vt -0.04498 1.03378
vt -0.04732 1.03664
vt -0.04951 1.04111
vt -0.05047 1.04704
vt -0.04951 1.05297
vt -0.04732 1.05744
vt -0.04498 1.06030
vt -0.04212 1.06264
vt -0.03765 1.06483
vt -0.03172 1.06579
vt -0.02579 1.06483
vt -0.02132 1.06264
vt 0.09953 1.06579
vt -0.05047 1.06579
vt 0.09953 1.05954
vt -0.05047 1.05954
vt 0.09953 1.05329
vt -0.05047 1.05329
vt 0.09953 1.04704
vt 0.09953 1.04079
vt -0.05047 1.04079
vt 0.09953 1.03454
vt -0.05047 1.03454
vt 0.09953 1.02829
vt -0.05047 1.02829
vt 0.04732 0.93730
vt 0.06448 0.94874
vt 0.06190 0.95188
vt 0.06688 0.94382
vt 0.06794 0.93730
vt 0.06688 0.93078
vt 0.06448 0.92586
vt 0.06190 0.92271
vt 0.05876 0.92014
vt 0.05384 0.91773
vt 0.04732 0.91667
vt 0.04079 0.91773
vt 0.03587 0.92014
vt 0.03273 0.92271
vt 0.03015 0.92586
vt 0.02775 0.93078
vt 0.02669 0.93730
vt 0.02775 0.94382
vt 0.03015 0.94874
vt 0.03273 0.95188
vt 0.03587 0.95446
vt 0.04079 0.95686
vt 0.04732 0.95792
vt 0.05384 0.95686
vt 0.05876 0.95446
vt 0.03544 0.95792
vt 0.02669 0.95792
vt 0.03544 0.95105
vt 0.02669 0.95105
vt 0.03544 0.94417
vt 0.02669 0.94417
vt 0.03544 0.93730
vt 0.03544 0.93042
vt 0.02669 0.93042
vt 0.03544 0.92355
vt 0.02669 0.92355
vt 0.03544 0.91667
vt 0.02669 0.91667
vt 0.00321 0.96789
vt 0.02037 0.97933
vt 0.01779 0.98247
vt 0.02278 0.97441
vt 0.02383 0.96789
vt 0.02278 0.96137
vt 0.02037 0.95645
vt 0.01779 0.95330
vt 0.01465 0.95073
vt 0.00973 0.94832
vt 0.00321 0.94726
vt -0.00331 0.94832
vt -0.00823 0.95073
vt -0.01137 0.95330
vt -0.01395 0.95645
vt -0.01636 0.96137
vt -0.01742 0.96789
vt -0.01636 0.97441
vt -0.01395 0.97933
vt -0.01137 0.98247
vt -0.00823 0.98505
vt -0.00331 0.98746
vt 0.00321 0.98851
vt 0.00973 0.98746
vt 0.01465 0.98505
vt -0.00867 0.98851
vt -0.01742 0.98851
vt -0.00867 0.98164
vt -0.01742 0.98164
vt -0.00867 0.97476
vt -0.01742 0.97476
vt -0.00867 0.96789
vt -0.00867 0.96101
vt -0.01742 0.96101
vt -0.00867 0.95414
vt -0.01742 0.95414
vt -0.00867 0.94726
vt -0.01742 0.94726
vt 0.01652 0.99167
vt 0.03368 1.00311
vt 0.03110 1.00626
vt 0.03608 0.99820
vt 0.03714 0.99167
vt 0.03608 0.98515
vt 0.03368 0.98023
vt 0.03110 0.97709
vt 0.02796 0.97451
vt 0.02304 0.97211
vt 0.01652 0.97105
vt 0.00999 0.97211
vt 0.00508 0.97451
vt 0.00193 0.97709
vt -0.00065 0.98023
vt -0.00305 0.98515
vt -0.00411 0.99167
vt -0.00305 0.99820
vt -0.00065 1.00311
vt 0.00193 1.00626
vt 0.00508 1.00883
vt 0.00999 1.01124
vt 0.01652 1.01230
vt 0.02304 1.01124
vt 0.02796 1.00883
vt 0.00464 1.01230
vt -0.00411 1.01230
vt 0.00464 1.00542
vt -0.00411 1.00542
vt 0.00464 0.99855
vt -0.00411 0.99855
vt 0.00464 0.99167
vt 0.00464 0.98480
vt -0.00411 0.98480
vt 0.00464 0.97792
vt -0.00411 0.97792
vt 0.00464 0.97105
vt -0.00411 0.97105
vt 0.00844 1.00552
vt -0.00906 1.00552
vt 0.00844 0.96802
vt -0.00906 0.96802
vt 0.00844 0.98802
vt -0.00906 0.98802
vt 0.69385 1.68740
vt 0.68427 1.68740
vt 0.69385 1.67782
vt 0.68427 1.67782
vt 0.67469 1.68740
vt 0.67469 1.67782
vt 0.66510 1.68740
vt 0.66510 1.67782
vt 0.65552 1.68740
vt 0.65552 1.67782
vt 0.64594 1.68740
vt 0.64594 1.67782
vt 0.63635 1.68740
vt 0.63635 1.67782
vt 0.69385 1.66824
vt 0.68427 1.66824
vt 0.67469 1.66824
vt 0.66510 1.66824
vt 0.65552 1.66824
vt 0.64594 1.66824
vt 0.63635 1.66824
vt 0.69385 1.65865
vt 0.68427 1.65865
vt 0.67469 1.65865
vt 0.66510 1.65865
vt 0.65552 1.65865
vt 0.64594 1.65865
vt 0.63635 1.65865
vt 0.69385 1.64907
vt 0.68427 1.64907
vt 0.67469 1.64907
vt 0.66510 1.64907
vt 0.65552 1.64907
vt 0.64594 1.64907
vt 0.63635 1.64907
vt 0.69385 1.63949
vt 0.68427 1.63949
vt 0.67469 1.63949
vt 0.66510 1.63949
vt 0.65552 1.63949
vt 0.64594 1.63949
vt 0.63635 1.63949
vt 0.69385 1.62990
vt 0.68427 1.62990
vt 0.67469 1.62990
vt 0.66510 1.62990
vt 0.65552 1.62990
vt 0.64594 1.62990
vt 0.63635 1.62990
vt 0.03127 1.03913
vt 0.00377 1.03913
vt 0.03127 1.01163
vt 0.00377 1.01163
vt 0.09127 1.03913
vt 0.09127 1.01163
vt 0.08682 0.95245
vt 0.05932 0.95245
vt 0.08682 0.92495
vt 0.05932 0.92495
vt 0.14682 0.95245
vt 0.14682 0.92495
vt 0.05698 0.95998
vt 0.02448 0.95998
vt 0.05698 0.90248
vt 0.02448 0.90248
vt 0.05698 0.92748
vt 0.02448 0.92748
vt -0.00627 1.02165
vt -0.02377 1.02165
vt -0.00627 0.98415
vt -0.02377 0.98415
vt -0.00627 1.00415
vt -0.02377 1.00415
vt 0.03875 0.98175
vt 0.00625 0.98175
vt 0.03875 0.92425
vt 0.00625 0.92425
vt 0.03875 0.94925
vt 0.00625 0.94925
vt 0.21047 0.93771
vt 0.20422 0.93771
vt 0.21047 0.93146
vt 0.20422 0.93146
vt 0.19797 0.93771
vt 0.19797 0.93146
vt 0.19172 0.93771
vt 0.19172 0.93146
vt 0.18547 0.93771
vt 0.18547 0.93146
vt 0.17922 0.93771
vt 0.17922 0.93146
vt 0.17297 0.93771
vt 0.17297 0.93146
vt 0.21047 0.92521
vt 0.20422 0.92521
vt 0.19797 0.92521
vt 0.19172 0.92521
vt 0.18547 0.92521
vt 0.17922 0.92521
vt 0.17297 0.92521
vt 0.21047 0.91896
vt 0.20422 0.91896
vt 0.19797 0.91896
vt 0.19172 0.91896
vt 0.18547 0.91896
vt 0.17922 0.91896
vt 0.17297 0.91896
vt 0.21047 0.91271
vt 0.20422 0.91271
vt 0.19797 0.91271
vt 0.19172 0.91271
vt 0.18547 0.91271
vt 0.17922 0.91271
vt 0.17297 0.91271
vt 0.21047 0.90646
vt 0.20422 0.90646
vt 0.19797 0.90646
vt 0.19172 0.90646
vt 0.18547 0.90646
vt 0.17922 0.90646
vt 0.17297 0.90646
vt 0.21047 0.90021
vt 0.20422 0.90021
vt 0.19797 0.90021
vt 0.19172 0.90021
vt 0.18547 0.90021
vt 0.17922 0.90021
vt 0.17297 0.90021
vt 0.03871 0.97788
vt 0.02121 0.97788
vt 0.03871 0.94038
vt 0.02121 0.94038
vt 0.03871 0.96038
vt 0.02121 0.96038
vt 0.08004 1.04304
vt 0.06254 1.04304
vt 0.08004 0.98530
vt 0.06254 0.98530
vt 0.13754 1.04304
vt 0.13754 1.02555
vt 0.06254 1.02555
vt 0.13754 0.98530
vt 0.06403 0.97156
vt 0.04653 0.97156
vt 0.06403 0.91381
vt 0.04653 0.91381
vt 0.12903 0.97156
vt 0.12903 0.95406
vt 0.04653 0.95406
vt 0.12903 0.91381
vt 0.06551 0.93462
vt 0.04801 0.93462
vt 0.06551 0.87688
vt 0.04801 0.87688
vt 0.13551 0.93462
vt 0.13551 0.91712
vt 0.04801 0.91712
vt 0.13551 0.87688
vt 0.09039 0.97951
vt 0.07289 0.97951
vt 0.09039 0.92176
vt 0.07289 0.92176
vt 0.16039 0.97951
vt 0.16039 0.96201
vt 0.07289 0.96201
vt 0.16039 0.92176
vt 0.07097 0.92034
vt 0.05347 0.92034
vt 0.07097 0.86259
vt 0.05347 0.86259
vt 0.13847 0.92034
vt 0.13847 0.90284
vt 0.05347 0.90284
vt 0.13847 0.86259
vt 0.08909 0.92430
vt 0.07159 0.92430
vt 0.08909 0.86655
vt 0.07159 0.86655
vt 0.15159 0.92430
vt 0.15159 0.90680
vt 0.07159 0.90680
vt 0.15159 0.86655
vt 0.02141 0.98089
vt 0.00391 0.98089
vt 0.02141 0.92314
vt 0.00391 0.92314
vt 0.07641 0.98089
vt 0.07641 0.96339
vt 0.00391 0.96339
vt 0.07641 0.92314
vt 0.04655 0.95022
vt 0.02905 0.95022
vt 0.04655 0.89247
vt 0.02905 0.89247
vt 0.09405 0.95022
vt 0.09405 0.93272
vt 0.02905 0.93272
vt 0.09405 0.89247
vt -0.03697 1.01827
vt -0.00447 0.89952
vt -0.03697 0.89952
vt -0.01947 1.01827
vt -0.01947 0.89952
vt -0.00447 1.01827
vt -0.01947 0.98577
vt -0.03697 0.98577
vt -0.01947 0.89515
vt -0.03697 0.89515
vt -0.02109 0.98832
vt 0.01141 0.86957
vt -0.02109 0.86957
vt -0.00359 0.98832
vt -0.00359 0.86957
vt 0.01141 0.98832
vt -0.00359 0.95582
vt -0.02109 0.95582
vt -0.00359 0.86520
vt -0.02109 0.86520
vt 0.00302 1.06604
vt -0.01948 1.06604
vt 0.00302 0.66604
vt -0.01948 0.66604
vt -0.00948 1.06604
vt -0.00948 1.04354
vt -0.01948 1.04354
vt -0.00948 0.66604
vn 0.0000 1.0000 0.0000
vn -0.7087 0.0000 0.7087
vn -0.8346 0.0000 0.5512
vn -0.9449 0.0000 0.3150
vn -1.0000 0.0000 0.0000
vn -0.9449 0.0000 -0.3150
vn -0.8346 0.0000 -0.5512
vn -0.7087 0.0000 -0.7087
vn -0.5512 0.0000 0.8346
vn -0.3150 0.0000 0.9449
vn 0.0000 0.0000 1.0000
vn 0.3150 0.0000 0.9449
vn 0.5512 0.0000 0.8346
vn 0.7087 0.0000 0.7087
vn 0.0000 -1.0000 0.0000
vn 0.7087 0.0000 -0.7087
vn 0.8346 0.0000 -0.5512
vn 0.9449 0.0000 -0.3150
vn 1.0000 0.0000 0.0000
vn 0.9449 0.0000 0.3150
vn 0.8346 0.0000 0.5512
vn -0.5512 0.0000 -0.8346
vn -0.3150 0.0000 -0.9449
vn 0.0000 0.0000 -1.0000
vn 0.3150 0.0000 -0.9449
vn 0.5512 0.0000 -0.8346
vn 0.6378 0.4252 -0.6378
vn -0.2992 0.9055 0.2992
vn -0.6378 -0.4252 0.6378
vn 0.2992 -0.9055 -0.2992
vn 0.5748 0.5748 -0.5748
vn 0.6378 0.6378 -0.4252
vn 0.7244 0.4882 -0.4882
vn 0.6850 0.6850 -0.2283
vn 0.8032 0.5354 -0.2677
vn 0.7087 0.7087 0.0000
vn 0.8346 0.5512 0.0000
vn 0.6850 0.6850 0.2283
vn 0.8032 0.5354 0.2677
vn 0.6378 0.6378 0.4252
vn 0.7244 0.4882 0.4882
vn 0.5748 0.5748 0.5748
vn 0.6378 0.4252 0.6378
vn 0.6850 0.2283 -0.6850
vn 0.8032 0.2677 -0.5354
vn 0.9055 0.2992 -0.2992
vn 0.9449 0.3150 0.0000
vn 0.9055 0.2992 0.2992
vn 0.8032 0.2677 0.5354
vn 0.6850 0.2283 0.6850
vn 0.6850 -0.2283 -0.6850
vn 0.8032 -0.2677 -0.5354
vn 0.9055 -0.2992 -0.2992
vn 0.9449 -0.3150 0.0000
vn 0.9055 -0.2992 0.2992
vn 0.8032 -0.2677 0.5354
vn 0.6850 -0.2283 0.6850
vn 0.6378 -0.4252 -0.6378
vn 0.7244 -0.4882 -0.4882
vn 0.8032 -0.5354 -0.2677
vn 0.8346 -0.5512 0.0000
vn 0.8032 -0.5354 0.2677
vn 0.7244 -0.4882 0.4882
vn 0.6378 -0.4252 0.6378
vn 0.5748 -0.5748 -0.5748
vn 0.6378 -0.6378 -0.4252
vn 0.6850 -0.6850 -0.2283
vn 0.7087 -0.7087 0.0000
vn 0.6850 -0.6850 0.2283
vn 0.6378 -0.6378 0.4252
vn 0.5748 -0.5748 0.5748
vn -0.5748 0.5748 0.5748
vn -0.4252 0.6378 0.6378
vn -0.6378 0.6378 0.4252
vn -0.4882 0.7244 0.4882
vn -0.2283 0.6850 0.6850
vn -0.2677 0.8032 0.5354
vn 0.0000 0.7087 0.7087
vn 0.0000 0.8346 0.5512
vn 0.2283 0.6850 0.6850
vn 0.2677 0.8032 0.5354
vn 0.4252 0.6378 0.6378
vn 0.4882 0.7244 0.4882
vn -0.6850 0.6850 0.2283
vn -0.5354 0.8032 0.2677
vn 0.0000 0.9449 0.3150
vn 0.2992 0.9055 0.2992
vn 0.5354 0.8032 0.2677
vn -0.7087 0.7087 0.0000
vn -0.5512 0.8346 0.0000
vn -0.3150 0.9449 0.0000
vn 0.3150 0.9449 0.0000
vn 0.5512 0.8346 0.0000
vn -0.6850 0.6850 -0.2283
vn -0.5354 0.8032 -0.2677
vn -0.2992 0.9055 -0.2992
vn 0.0000 0.9449 -0.3150
vn 0.2992 0.9055 -0.2992
vn 0.5354 0.8032 -0.2677
vn -0.6378 0.6378 -0.4252
vn -0.4882 0.7244 -0.4882
vn -0.2677 0.8032 -0.5354
vn 0.0000 0.8346 -0.5512
vn 0.2677 0.8032 -0.5354
vn 0.4882 0.7244 -0.4882
vn -0.5748 0.5748 -0.5748
vn -0.4252 0.6378 -0.6378
vn -0.2283 0.6850 -0.6850
vn 0.0000 0.7087 -0.7087
vn 0.2283 0.6850 -0.6850
vn 0.4252 0.6378 -0.6378
vn 0.4882 0.4882 0.7244
vn 0.2677 0.5354 0.8032
vn 0.0000 0.5512 0.8346
vn -0.2677 0.5354 0.8032
vn -0.4882 0.4882 0.7244
vn -0.6378 0.4252 0.6378
vn 0.5354 0.2677 0.8032
vn 0.2992 0.2992 0.9055
vn 0.0000 0.3150 0.9449
vn -0.2992 0.2992 0.9055
vn -0.5354 0.2677 0.8032
vn -0.6850 0.2283 0.6850
vn 0.5354 -0.2677 0.8032
vn 0.2992 -0.2992 0.9055
vn 0.0000 -0.3150 0.9449
vn -0.2992 -0.2992 0.9055
vn -0.5354 -0.2677 0.8032
vn -0.6850 -0.2283 0.6850
vn 0.4882 -0.4882 0.7244
vn 0.2677 -0.5354 0.8032
vn 0.0000 -0.5512 0.8346
vn -0.2677 -0.5354 0.8032
vn -0.4882 -0.4882 0.7244
vn 0.4252 -0.6378 0.6378
vn 0.2283 -0.6850 0.6850
vn 0.0000 -0.7087 0.7087
vn -0.2283 -0.6850 0.6850
vn -0.4252 -0.6378 0.6378
vn -0.5748 -0.5748 0.5748
vn -0.7244 0.4882 0.4882
vn -0.8032 0.5354 0.2677
vn -0.8346 0.5512 0.0000
vn -0.8032 0.5354 -0.2677
vn -0.7244 0.4882 -0.4882
vn -0.6378 0.4252 -0.6378
vn -0.8032 0.2677 0.5354
vn -0.9055 0.2992 0.2992
vn -0.9449 0.3150 0.0000
vn -0.9055 0.2992 -0.2992
vn -0.8032 0.2677 -0.5354
vn -0.6850 0.2283 -0.6850
vn -0.8032 -0.2677 0.5354
vn -0.9055 -0.2992 0.2992
vn -0.9449 -0.3150 0.0000
vn -0.9055 -0.2992 -0.2992
vn -0.8032 -0.2677 -0.5354
vn -0.6850 -0.2283 -0.6850
vn -0.7244 -0.4882 0.4882
vn -0.8032 -0.5354 0.2677
vn -0.8346 -0.5512 0.0000
vn -0.8032 -0.5354 -0.2677
vn -0.7244 -0.4882 -0.4882
vn -0.6378 -0.4252 -0.6378
vn -0.6378 -0.6378 0.4252
vn -0.6850 -0.6850 0.2283
vn -0.7087 -0.7087 0.0000
vn -0.6850 -0.6850 -0.2283
vn -0.6378 -0.6378 -0.4252
vn -0.5748 -0.5748 -0.5748
vn -0.4252 -0.6378 -0.6378
vn -0.4882 -0.7244 -0.4882
vn -0.2283 -0.6850 -0.6850
vn -0.2677 -0.8032 -0.5354
vn 0.0000 -0.7087 -0.7087
vn 0.0000 -0.8346 -0.5512
vn 0.2283 -0.6850 -0.6850
vn 0.2677 -0.8032 -0.5354
vn 0.4252 -0.6378 -0.6378
vn 0.4882 -0.7244 -0.4882
vn -0.5354 -0.8032 -0.2677
vn -0.2992 -0.9055 -0.2992
vn 0.0000 -0.9449 -0.3150
vn 0.5354 -0.8032 -0.2677
vn -0.5512 -0.8346 0.0000
vn -0.3150 -0.9449 0.0000
vn 0.3150 -0.9449 0.0000
vn 0.5512 -0.8346 0.0000
vn -0.5354 -0.8032 0.2677
vn -0.2992 -0.9055 0.2992
vn 0.0000 -0.9449 0.3150
vn 0.2992 -0.9055 0.2992
vn 0.5354 -0.8032 0.2677
vn -0.4882 -0.7244 0.4882
vn -0.2677 -0.8032 0.5354
vn 0.0000 -0.8346 0.5512
vn 0.2677 -0.8032 0.5354
vn 0.4882 -0.7244 0.4882
vn -0.4882 0.4882 -0.7244
vn -0.2677 0.5354 -0.8032
vn 0.0000 0.5512 -0.8346
vn 0.2677 0.5354 -0.8032
vn 0.4882 0.4882 -0.7244
vn -0.5354 0.2677 -0.8032
vn -0.2992 0.2992 -0.9055
vn 0.0000 0.3150 -0.9449
vn 0.2992 0.2992 -0.9055
vn 0.5354 0.2677 -0.8032
vn -0.5354 -0.2677 -0.8032
vn -0.2992 -0.2992 -0.9055
vn 0.0000 -0.3150 -0.9449
vn 0.2992 -0.2992 -0.9055
vn 0.5354 -0.2677 -0.8032
vn -0.4882 -0.4882 -0.7244
vn -0.2677 -0.5354 -0.8032
vn 0.0000 -0.5512 -0.8346
vn 0.2677 -0.5354 -0.8032
vn 0.4882 -0.4882 -0.7244
vn 0.9764 -0.2047 0.0000
vn 0.2047 0.9764 0.0000
vn -0.9764 0.2047 0.0000
vn -0.2047 -0.9764 0.0000
vn 0.9764 0.2047 0.0000
vn -0.2047 0.9764 0.0000
vn -0.9764 -0.2047 0.0000
vn 0.2047 -0.9764 0.0000
vn 0.6614 0.3386 -0.6614
vn -0.2441 0.9370 0.2441
vn -0.6614 -0.3386 0.6614
vn 0.2441 -0.9370 -0.2441
vn 0.6614 -0.3386 -0.6614
vn 0.2441 0.9370 -0.2441
vn -0.6614 0.3386 0.6614
vn -0.2441 -0.9370 0.2441
vn 0.9606 0.2677 0.0000
vn -0.9606 0.2677 0.0000

o prism_blade
usemtl c_d2d7eb_shiny
f 1/1/1 2/2/1 3/3/1
f 1/1/1 4/4/1 2/2/1
f 1/1/1 5/5/1 4/4/1
f 1/1/1 6/6/1 5/5/1
f 1/1/1 7/7/1 6/6/1
f 1/1/1 8/8/1 7/7/1
f 1/1/1 9/9/1 8/8/1
f 1/1/1 10/10/1 9/9/1
f 1/1/1 11/11/1 10/10/1
f 1/1/1 12/12/1 11/11/1
f 1/1/1 13/13/1 12/12/1
f 1/1/1 14/14/1 13/13/1
f 1/1/1 15/15/1 14/14/1
f 1/1/1 16/16/1 15/15/1
f 1/1/1 17/17/1 16/16/1
f 1/1/1 18/18/1 17/17/1
f 1/1/1 19/19/1 18/18/1
f 1/1/1 20/20/1 19/19/1
f 1/1/1 21/21/1 20/20/1
f 1/1/1 22/22/1 21/21/1
f 1/1/1 23/23/1 22/22/1
f 1/1/1 24/24/1 23/23/1
f 1/1/1 25/25/1 24/24/1
f 1/1/1 3/3/1 25/25/1
f 26/26/2 20/27/2 27/28/3
f 27/28/3 20/27/2 21/29/3
f 27/28/3 21/29/3 28/30/4
f 28/30/4 21/29/3 22/31/4
f 28/30/4 22/31/4 29/32/5
f 29/32/5 22/31/4 23/17/5
f 29/32/5 23/17/5 30/33/6
f 30/33/6 23/17/5 24/34/6
f 30/33/6 24/34/6 31/35/7
f 31/35/7 24/34/6 25/36/7
f 31/35/7 25/36/7 32/37/8
f 32/37/8 25/36/7 3/38/8
f 20/26/2 26/27/2 19/28/9
f 19/28/9 26/27/2 33/29/9
f 19/28/9 33/29/9 18/30/10
f 18/30/10 33/29/9 34/31/10
f 18/30/10 34/31/10 17/32/11
f 17/32/11 34/31/10 35/17/11
f 17/32/11 35/17/11 16/33/12
f 16/33/12 35/17/11 36/34/12
f 16/33/12 36/34/12 15/35/13
f 15/35/13 36/34/12 37/36/13
f 15/35/13 37/36/13 14/37/14
f 14/37/14 37/36/13 38/38/14
f 39/1/15 33/2/15 26/3/15
f 39/1/15 34/4/15 33/2/15
f 39/1/15 35/5/15 34/4/15
f 39/1/15 36/6/15 35/5/15
f 39/1/15 37/7/15 36/6/15
f 39/1/15 38/8/15 37/7/15
f 39/1/15 40/9/15 38/8/15
f 39/1/15 41/10/15 40/9/15
f 39/1/15 42/11/15 41/10/15
f 39/1/15 43/12/15 42/11/15
f 39/1/15 44/13/15 43/12/15
f 39/1/15 45/14/15 44/13/15
f 39/1/15 46/15/15 45/14/15
f 39/1/15 47/16/15 46/15/15
f 39/1/15 48/17/15 47/16/15
f 39/1/15 49/18/15 48/17/15
f 39/1/15 50/19/15 49/18/15
f 39/1/15 32/20/15 50/19/15
f 39/1/15 31/21/15 32/20/15
f 39/1/15 30/22/15 31/21/15
f 39/1/15 29/23/15 30/22/15
f 39/1/15 28/24/15 29/23/15
f 39/1/15 27/25/15 28/24/15
f 39/1/15 26/3/15 27/25/15
f 45/26/16 8/27/16 44/28/17
f 44/28/17 8/27/16 9/29/17
f 44/28/17 9/29/17 43/30/18
f 43/30/18 9/29/17 10/31/18
f 43/30/18 10/31/18 42/32/19
f 42/32/19 10/31/18 11/17/19
f 42/32/19 11/17/19 41/33/20
f 41/33/20 11/17/19 12/34/20
f 41/33/20 12/34/20 40/35/21
f 40/35/21 12/34/20 13/36/21
f 40/35/21 13/36/21 38/37/14
f 38/37/14 13/36/21 14/38/14
f 32/26/8 3/27/8 50/28/22
f 50/28/22 3/27/8 2/29/22
f 50/28/22 2/29/22 49/30/23
f 49/30/23 2/29/22 4/31/23
f 49/30/23 4/31/23 48/32/24
f 48/32/24 4/31/23 5/17/24
f 48/32/24 5/17/24 47/33/25
f 47/33/25 5/17/24 6/34/25
f 47/33/25 6/34/25 46/35/26
f 46/35/26 6/34/25 7/36/26
f 46/35/26 7/36/26 45/37/16
f 45/37/16 7/36/26 8/38/16
usemtl c_965aff_neon
f 51/39/1 52/40/1 53/41/1
f 51/39/1 54/42/1 52/40/1
f 51/39/1 55/43/1 54/42/1
f 51/39/1 56/44/1 55/43/1
f 51/39/1 57/45/1 56/44/1
f 51/39/1 58/46/1 57/45/1
f 51/39/1 59/47/1 58/46/1
f 51/39/1 60/48/1 59/47/1
f 51/39/1 61/49/1 60/48/1
f 51/39/1 62/50/1 61/49/1
f 51/39/1 63/51/1 62/50/1
f 51/39/1 64/52/1 63/51/1
f 51/39/1 65/53/1 64/52/1
f 51/39/1 66/54/1 65/53/1
f 51/39/1 67/55/1 66/54/1
f 51/39/1 68/56/1 67/55/1
f 51/39/1 69/57/1 68/56/1
f 51/39/1 70/58/1 69/57/1
f 51/39/1 71/59/1 70/58/1
f 51/39/1 72/60/1 71/59/1
f 51/39/1 73/61/1 72/60/1
f 51/39/1 74/62/1 73/61/1
f 51/39/1 75/63/1 74/62/1
f 51/39/1 53/41/1 75/63/1
f 76/64/2 70/65/2 77/66/3
f 77/66/3 70/65/2 71/67/3
f 77/66/3 71/67/3 78/68/4
f 78/68/4 71/67/3 72/69/4
f 78/68/4 72/69/4 79/70/5
f 79/70/5 72/69/4 73/55/5
f 79/70/5 73/55/5 80/71/6
f 80/71/6 73/55/5 74/72/6
f 80/71/6 74/72/6 81/73/7
f 81/73/7 74/72/6 75/74/7
f 81/73/7 75/74/7 82/75/8
f 82/75/8 75/74/7 53/76/8
f 70/64/2 76/65/2 69/66/9
f 69/66/9 76/65/2 83/67/9
f 69/66/9 83/67/9 68/68/10
f 68/68/10 83/67/9 84/69/10
f 68/68/10 84/69/10 67/70/11
f 67/70/11 84/69/10 85/55/11
f 67/70/11 85/55/11 66/71/12
f 66/71/12 85/55/11 86/72/12
f 66/71/12 86/72/12 65/73/13
f 65/73/13 86/72/12 87/74/13
f 65/73/13 87/74/13 64/75/14
f 64/75/14 87/74/13 88/76/14
f 89/39/15 83/40/15 76/41/15
f 89/39/15 84/42/15 83/40/15
f 89/39/15 85/43/15 84/42/15
f 89/39/15 86/44/15 85/43/15
f 89/39/15 87/45/15 86/44/15
f 89/39/15 88/46/15 87/45/15
f 89/39/15 90/47/15 88/46/15
f 89/39/15 91/48/15 90/47/15
f 89/39/15 92/49/15 91/48/15
f 89/39/15 93/50/15 92/49/15
f 89/39/15 94/51/15 93/50/15
f 89/39/15 95/52/15 94/51/15
f 89/39/15 96/53/15 95/52/15
f 89/39/15 97/54/15 96/53/15
f 89/39/15 98/55/15 97/54/15
f 89/39/15 99/56/15 98/55/15
f 89/39/15 100/57/15 99/56/15
f 89/39/15 82/58/15 100/57/15
f 89/39/15 81/59/15 82/58/15
f 89/39/15 80/60/15 81/59/15
f 89/39/15 79/61/15 80/60/15
f 89/39/15 78/62/15 79/61/15
f 89/39/15 77/63/15 78/62/15
f 89/39/15 76/41/15 77/63/15
f 95/64/16 58/65/16 94/66/17
f 94/66/17 58/65/16 59/67/17
f 94/66/17 59/67/17 93/68/18
f 93/68/18 59/67/17 60/69/18
f 93/68/18 60/69/18 92/70/19
f 92/70/19 60/69/18 61/55/19
f 92/70/19 61/55/19 91/71/20
f 91/71/20 61/55/19 62/72/20
f 91/71/20 62/72/20 90/73/21
f 90/73/21 62/72/20 63/74/21
f 90/73/21 63/74/21 88/75/14
f 88/75/14 63/74/21 64/76/14
f 82/64/8 53/65/8 100/66/22
f 100/66/22 53/65/8 52/67/22
f 100/66/22 52/67/22 99/68/23
f 99/68/23 52/67/22 54/69/23
f 99/68/23 54/69/23 98/70/24
f 98/70/24 54/69/23 55/55/24
f 98/70/24 55/55/24 97/71/25
f 97/71/25 55/55/24 56/72/25
f 97/71/25 56/72/25 96/73/26
f 96/73/26 56/72/25 57/74/26
f 96/73/26 57/74/26 95/75/16
f 95/75/16 57/74/26 58/76/16
f 101/77/1 102/78/1 103/79/1
f 101/77/1 104/80/1 102/78/1
f 101/77/1 105/81/1 104/80/1
f 101/77/1 106/82/1 105/81/1
f 101/77/1 107/83/1 106/82/1
f 101/77/1 108/84/1 107/83/1
f 101/77/1 109/85/1 108/84/1
f 101/77/1 110/86/1 109/85/1
f 101/77/1 111/87/1 110/86/1
f 101/77/1 112/88/1 111/87/1
f 101/77/1 113/89/1 112/88/1
f 101/77/1 114/90/1 113/89/1
f 101/77/1 115/91/1 114/90/1
f 101/77/1 116/92/1 115/91/1
f 101/77/1 117/93/1 116/92/1
f 101/77/1 118/94/1 117/93/1
f 101/77/1 119/95/1 118/94/1
f 101/77/1 120/96/1 119/95/1
f 101/77/1 121/97/1 120/96/1
f 101/77/1 122/98/1 121/97/1
f 101/77/1 123/99/1 122/98/1
f 101/77/1 124/100/1 123/99/1
f 101/77/1 125/101/1 124/100/1
f 101/77/1 103/79/1 125/101/1
f 126/102/2 120/103/2 127/104/3
f 127/104/3 120/103/2 121/105/3
f 127/104/3 121/105/3 128/106/4
f 128/106/4 121/105/3 122/107/4
f 128/106/4 122/107/4 129/108/5
f 129/108/5 122/107/4 123/93/5
f 129/108/5 123/93/5 130/109/6
f 130/109/6 123/93/5 124/110/6
f 130/109/6 124/110/6 131/111/7
f 131/111/7 124/110/6 125/112/7
f 131/111/7 125/112/7 132/113/8
f 132/113/8 125/112/7 103/114/8
f 120/102/2 126/103/2 119/104/9
f 119/104/9 126/103/2 133/105/9
f 119/104/9 133/105/9 118/106/10
f 118/106/10 133/105/9 134/107/10
f 118/106/10 134/107/10 117/108/11
f 117/108/11 134/107/10 135/93/11
f 117/108/11 135/93/11 116/109/12
f 116/109/12 135/93/11 136/110/12
f 116/109/12 136/110/12 115/111/13
f 115/111/13 136/110/12 137/112/13
f 115/111/13 137/112/13 114/113/14
f 114/113/14 137/112/13 138/114/14
f 139/77/15 133/78/15 126/79/15
f 139/77/15 134/80/15 133/78/15
f 139/77/15 135/81/15 134/80/15
f 139/77/15 136/82/15 135/81/15
f 139/77/15 137/83/15 136/82/15
f 139/77/15 138/84/15 137/83/15
f 139/77/15 140/85/15 138/84/15
f 139/77/15 141/86/15 140/85/15
f 139/77/15 142/87/15 141/86/15
f 139/77/15 143/88/15 142/87/15
f 139/77/15 144/89/15 143/88/15
f 139/77/15 145/90/15 144/89/15
f 139/77/15 146/91/15 145/90/15
f 139/77/15 147/92/15 146/91/15
f 139/77/15 148/93/15 147/92/15
f 139/77/15 149/94/15 148/93/15
f 139/77/15 150/95/15 149/94/15
f 139/77/15 132/96/15 150/95/15
f 139/77/15 131/97/15 132/96/15
f 139/77/15 130/98/15 131/97/15
f 139/77/15 129/99/15 130/98/15
f 139/77/15 128/100/15 129/99/15
f 139/77/15 127/101/15 128/100/15
f 139/77/15 126/79/15 127/101/15
f 145/102/16 108/103/16 144/104/17
f 144/104/17 108/103/16 109/105/17
f 144/104/17 109/105/17 143/106/18
f 143/106/18 109/105/17 110/107/18
f 143/106/18 110/107/18 142/108/19
f 142/108/19 110/107/18 111/93/19
f 142/108/19 111/93/19 141/109/20
f 141/109/20 111/93/19 112/110/20
f 141/109/20 112/110/20 140/111/21
f 140/111/21 112/110/20 113/112/21
f 140/111/21 113/112/21 138/113/14
f 138/113/14 113/112/21 114/114/14
f 132/102/8 103/103/8 150/104/22
f 150/104/22 103/103/8 102/105/22
f 150/104/22 102/105/22 149/106/23
f 149/106/23 102/105/22 104/107/23
f 149/106/23 104/107/23 148/108/24
f 148/108/24 104/107/23 105/93/24
f 148/108/24 105/93/24 147/109/25
f 147/109/25 105/93/24 106/110/25
f 147/109/25 106/110/25 146/111/26
f 146/111/26 106/110/25 107/112/26
f 146/111/26 107/112/26 145/113/16
f 145/113/16 107/112/26 108/114/16
f 151/115/1 152/116/1 153/117/1
f 151/115/1 154/118/1 152/116/1
f 151/115/1 155/119/1 154/118/1
f 151/115/1 156/120/1 155/119/1
f 151/115/1 157/121/1 156/120/1
f 151/115/1 158/122/1 157/121/1
f 151/115/1 159/123/1 158/122/1
f 151/115/1 160/124/1 159/123/1
f 151/115/1 161/125/1 160/124/1
f 151/115/1 162/126/1 161/125/1
f 151/115/1 163/127/1 162/126/1
f 151/115/1 164/128/1 163/127/1
f 151/115/1 165/129/1 164/128/1
f 151/115/1 166/130/1 165/129/1
f 151/115/1 167/131/1 166/130/1
f 151/115/1 168/132/1 167/131/1
f 151/115/1 169/133/1 168/132/1
f 151/115/1 170/134/1 169/133/1
f 151/115/1 171/135/1 170/134/1
f 151/115/1 172/136/1 171/135/1
f 151/115/1 173/137/1 172/136/1
f 151/115/1 174/138/1 173/137/1
f 151/115/1 175/139/1 174/138/1
f 151/115/1 153/117/1 175/139/1
f 176/140/2 170/141/2 177/142/3
f 177/142/3 170/141/2 171/143/3
f 177/142/3 171/143/3 178/144/4
f 178/144/4 171/143/3 172/145/4
f 178/144/4 172/145/4 179/146/5
f 179/146/5 172/145/4 173/131/5
f 179/146/5 173/131/5 180/147/6
f 180/147/6 173/131/5 174/148/6
f 180/147/6 174/148/6 181/149/7
f 181/149/7 174/148/6 175/150/7
f 181/149/7 175/150/7 182/151/8
f 182/151/8 175/150/7 153/152/8
f 170/140/2 176/141/2 169/142/9
f 169/142/9 176/141/2 183/143/9
f 169/142/9 183/143/9 168/144/10
f 168/144/10 183/143/9 184/145/10
f 168/144/10 184/145/10 167/146/11
f 167/146/11 184/145/10 185/131/11
f 167/146/11 185/131/11 166/147/12
f 166/147/12 185/131/11 186/148/12
f 166/147/12 186/148/12 165/149/13
f 165/149/13 186/148/12 187/150/13
f 165/149/13 187/150/13 164/151/14
f 164/151/14 187/150/13 188/152/14
f 189/115/15 183/116/15 176/117/15
f 189/115/15 184/118/15 183/116/15
f 189/115/15 185/119/15 184/118/15
f 189/115/15 186/120/15 185/119/15
f 189/115/15 187/121/15 186/120/15
f 189/115/15 188/122/15 187/121/15
f 189/115/15 190/123/15 188/122/15
f 189/115/15 191/124/15 190/123/15
f 189/115/15 192/125/15 191/124/15
f 189/115/15 193/126/15 192/125/15
f 189/115/15 194/127/15 193/126/15
f 189/115/15 195/128/15 194/127/15
f 189/115/15 196/129/15 195/128/15
f 189/115/15 197/130/15 196/129/15
f 189/115/15 198/131/15 197/130/15
f 189/115/15 199/132/15 198/131/15
f 189/115/15 200/133/15 199/132/15
f 189/115/15 182/134/15 200/133/15
f 189/115/15 181/135/15 182/134/15
f 189/115/15 180/136/15 181/135/15
f 189/115/15 179/137/15 180/136/15
f 189/115/15 178/138/15 179/137/15
f 189/115/15 177/139/15 178/138/15
f 189/115/15 176/117/15 177/139/15
f 195/140/16 158/141/16 194/142/17
f 194/142/17 158/141/16 159/143/17
f 194/142/17 159/143/17 193/144/18
f 193/144/18 159/143/17 160/145/18
f 193/144/18 160/145/18 192/146/19
f 192/146/19 160/145/18 161/131/19
f 192/146/19 161/131/19 191/147/20
f 191/147/20 161/131/19 162/148/20
f 191/147/20 162/148/20 190/149/21
f 190/149/21 162/148/20 163/150/21
f 190/149/21 163/150/21 188/151/14
f 188/151/14 163/150/21 164/152/14
f 182/140/8 153/141/8 200/142/22
f 200/142/22 153/141/8 152/143/22
f 200/142/22 152/143/22 199/144/23
f 199/144/23 152/143/22 154/145/23
f 199/144/23 154/145/23 198/146/24
f 198/146/24 154/145/23 155/131/24
f 198/146/24 155/131/24 197/147/25
f 197/147/25 155/131/24 156/148/25
f 197/147/25 156/148/25 196/149/26
f 196/149/26 156/148/25 157/150/26
f 196/149/26 157/150/26 195/151/16
f 195/151/16 157/150/26 158/152/16
f 201/153/27 202/154/27 203/155/27
f 203/155/27 202/154/27 204/156/27
f 205/153/28 202/154/28 206/157/28
f 206/157/28 202/154/28 201/158/28
f 202/153/14 205/154/14 204/155/14
f 204/155/14 205/154/14 207/156/14
f 205/153/29 206/154/29 207/155/29
f 207/155/29 206/154/29 208/156/29
f 208/153/30 203/154/30 207/157/30
f 207/157/30 203/154/30 204/158/30
f 206/153/8 201/154/8 208/155/8
f 208/155/8 201/154/8 203/156/8
usemtl c_5ae6ff_shiny
f 209/159/31 210/160/32 211/161/27
f 211/161/27 210/160/32 212/162/33
f 210/160/32 213/163/34 212/162/33
f 212/162/33 213/163/34 214/164/35
f 213/163/34 215/165/36 214/164/35
f 214/164/35 215/165/36 216/166/37
f 215/165/36 217/167/38 216/166/37
f 216/166/37 217/167/38 218/168/39
f 217/167/38 219/169/40 218/168/39
f 218/168/39 219/169/40 220/170/41
f 219/169/40 221/171/42 220/170/41
f 220/170/41 221/171/42 222/172/43
f 211/161/27 212/162/33 223/173/44
f 223/173/44 212/162/33 224/174/45
f 212/162/33 214/164/35 224/174/45
f 224/174/45 214/164/35 225/175/46
f 214/164/35 216/166/37 225/175/46
f 225/175/46 216/166/37 226/176/47
f 216/166/37 218/168/39 226/176/47
f 226/176/47 218/168/39 227/177/48
f 218/168/39 220/170/41 227/177/48
f 227/177/48 220/170/41 228/178/49
f 220/170/41 222/172/43 228/178/49
f 228/178/49 222/172/43 229/179/50
f 223/173/44 224/174/45 230/180/16
f 230/180/16 224/174/45 231/181/17
f 224/174/45 225/175/46 231/181/17
f 231/181/17 225/175/46 232/182/18
f 225/175/46 226/176/47 232/182/18
f 232/182/18 226/176/47 233/183/19
f 226/176/47 227/177/48 233/183/19
f 233/183/19 227/177/48 234/184/20
f 227/177/48 228/178/49 234/184/20
f 234/184/20 228/178/49 235/185/21
f 228/178/49 229/179/50 235/185/21
f 235/185/21 229/179/50 236/186/14
f 230/180/16 231/181/17 237/187/51
f 237/187/51 231/181/17 238/188/52
f 231/181/17 232/182/18 238/188/52
f 238/188/52 232/182/18 239/189/53
f 232/182/18 233/183/19 239/189/53
f 239/189/53 233/183/19 240/190/54
f 233/183/19 234/184/20 240/190/54
f 240/190/54 234/184/20 241/191/55
f 234/184/20 235/185/21 241/191/55
f 241/191/55 235/185/21 242/192/56
f 235/185/21 236/186/14 242/192/56
f 242/192/56 236/186/14 243/193/57
f 237/187/51 238/188/52 244/194/58
f 244/194/58 238/188/52 245/195/59
f 238/188/52 239/189/53 245/195/59
f 245/195/59 239/189/53 246/196/60
f 239/189/53 240/190/54 246/196/60
f 246/196/60 240/190/54 247/197/61
f 240/190/54 241/191/55 247/197/61
f 247/197/61 241/191/55 248/198/62
f 241/191/55 242/192/56 248/198/62
f 248/198/62 242/192/56 249/199/63
f 242/192/56 243/193/57 249/199/63
f 249/199/63 243/193/57 250/200/64
f 244/194/58 245/195/59 251/201/65
f 251/201/65 245/195/59 252/202/66
f 245/195/59 246/196/60 252/202/66
f 252/202/66 246/196/60 253/203/67
f 246/196/60 247/197/61 253/203/67
f 253/203/67 247/197/61 254/204/68
f 247/197/61 248/198/62 254/204/68
f 254/204/68 248/198/62 255/205/69
f 248/198/62 249/199/63 255/205/69
f 255/205/69 249/199/63 256/206/70
f 249/199/63 250/200/64 256/206/70
f 256/206/70 250/200/64 257/207/71
f 258/159/72 259/160/73 260/161/74
f 260/161/74 259/160/73 261/162/75
f 259/160/73 262/163/76 261/162/75
f 261/162/75 262/163/76 263/164/77
f 262/163/76 264/165/78 263/164/77
f 263/164/77 264/165/78 265/166/79
f 264/165/78 266/167/80 265/166/79
f 265/166/79 266/167/80 267/168/81
f 266/167/80 268/169/82 267/168/81
f 267/168/81 268/169/82 269/170/83
f 268/169/82 221/171/42 269/170/83
f 269/170/83 221/171/42 219/172/40
f 260/161/74 261/162/75 270/173/84
f 270/173/84 261/162/75 271/174/85
f 261/162/75 263/164/77 271/174/85
f 271/174/85 263/164/77 272/175/28
f 263/164/77 265/166/79 272/175/28
f 272/175/28 265/166/79 273/176/86
f 265/166/79 267/168/81 273/176/86
f 273/176/86 267/168/81 274/177/87
f 267/168/81 269/170/83 274/177/87
f 274/177/87 269/170/83 275/178/88
f 269/170/83 219/172/40 275/178/88
f 275/178/88 219/172/40 217/179/38
f 270/173/84 271/174/85 276/180/89
f 276/180/89 271/174/85 277/181/90
f 271/174/85 272/175/28 277/181/90
f 277/181/90 272/175/28 278/182/91
f 272/175/28 273/176/86 278/182/91
f 278/182/91 273/176/86 279/183/1
f 273/176/86 274/177/87 279/183/1
f 279/183/1 274/177/87 280/184/92
f 274/177/87 275/178/88 280/184/92
f 280/184/92 275/178/88 281/185/93
f 275/178/88 217/179/38 281/185/93
f 281/185/93 217/179/38 215/186/36
f 276/180/89 277/181/90 282/187/94
f 282/187/94 277/181/90 283/188/95
f 277/181/90 278/182/91 283/188/95
f 283/188/95 278/182/91 284/189/96
f 278/182/91 279/183/1 284/189/96
f 284/189/96 279/183/1 285/190/97
f 279/183/1 280/184/92 285/190/97
f 285/190/97 280/184/92 286/191/98
f 280/184/92 281/185/93 286/191/98
f 286/191/98 281/185/93 287/192/99
f 281/185/93 215/186/36 287/192/99
f 287/192/99 215/186/36 213/193/34
f 282/187/94 283/188/95 288/194/100
f 288/194/100 283/188/95 289/195/101
f 283/188/95 284/189/96 289/195/101
f 289/195/101 284/189/96 290/196/102
f 284/189/96 285/190/97 290/196/102
f 290/196/102 285/190/97 291/197/103
f 285/190/97 286/191/98 291/197/103
f 291/197/103 286/191/98 292/198/104
f 286/191/98 287/192/99 292/198/104
f 292/198/104 287/192/99 293/199/105
f 287/192/99 213/193/34 293/199/105
f 293/199/105 213/193/34 210/200/32
f 288/194/100 289/195/101 294/201/106
f 294/201/106 289/195/101 295/202/107
f 289/195/101 290/196/102 295/202/107
f 295/202/107 290/196/102 296/203/108
f 290/196/102 291/197/103 296/203/108
f 296/203/108 291/197/103 297/204/109
f 291/197/103 292/198/104 297/204/109
f 297/204/109 292/198/104 298/205/110
f 292/198/104 293/199/105 298/205/110
f 298/205/110 293/199/105 299/206/111
f 293/199/105 210/200/32 299/206/111
f 299/206/111 210/200/32 209/207/31
f 221/159/42 268/160/82 222/161/43
f 222/161/43 268/160/82 300/162/112
f 268/160/82 266/163/80 300/162/112
f 300/162/112 266/163/80 301/164/113
f 266/163/80 264/165/78 301/164/113
f 301/164/113 264/165/78 302/166/114
f 264/165/78 262/167/76 302/166/114
f 302/166/114 262/167/76 303/168/115
f 262/167/76 259/169/73 303/168/115
f 303/168/115 259/169/73 304/170/116
f 259/169/73 258/171/72 304/170/116
f 304/170/116 258/171/72 305/172/117
f 222/161/43 300/162/112 229/173/50
f 229/173/50 300/162/112 306/174/118
f 300/162/112 301/164/113 306/174/118
f 306/174/118 301/164/113 307/175/119
f 301/164/113 302/166/114 307/175/119
f 307/175/119 302/166/114 308/176/120
f 302/166/114 303/168/115 308/176/120
f 308/176/120 303/168/115 309/177/121
f 303/168/115 304/170/116 309/177/121
f 309/177/121 304/170/116 310/178/122
f 304/170/116 305/172/117 310/178/122
f 310/178/122 305/172/117 311/179/123
f 229/173/50 306/174/118 236/180/14
f 236/180/14 306/174/118 312/181/13
f 306/174/118 307/175/119 312/181/13
f 312/181/13 307/175/119 313/182/12
f 307/175/119 308/176/120 313/182/12
f 313/182/12 308/176/120 314/183/11
f 308/176/120 309/177/121 314/183/11
f 314/183/11 309/177/121 315/184/10
f 309/177/121 310/178/122 315/184/10
f 315/184/10 310/178/122 316/185/9
f 310/178/122 311/179/123 316/185/9
f 316/185/9 311/179/123 317/186/2
f 236/180/14 312/181/13 243/187/57
f 243/187/57 312/181/13 318/188/124
f 312/181/13 313/182/12 318/188/124
f 318/188/124 313/182/12 319/189/125
f 313/182/12 314/183/11 319/189/125
f 319/189/125 314/183/11 320/190/126
f 314/183/11 315/184/10 320/190/126
f 320/190/126 315/184/10 321/191/127
f 315/184/10 316/185/9 321/191/127
f 321/191/127 316/185/9 322/192/128
f 316/185/9 317/186/2 322/192/128
f 322/192/128 317/186/2 323/193/129
f 243/187/57 318/188/124 250/194/64
f 250/194/64 318/188/124 324/195/130
f 318/188/124 319/189/125 324/195/130
f 324/195/130 319/189/125 325/196/131
f 319/189/125 320/190/126 325/196/131
f 325/196/131 320/190/126 326/197/132
f 320/190/126 321/191/127 326/197/132
f 326/197/132 321/191/127 327/198/133
f 321/191/127 322/192/128 327/198/133
f 327/198/133 322/192/128 328/199/134
f 322/192/128 323/193/129 328/199/134
f 328/199/134 323/193/129 329/200/29
f 250/194/64 324/195/130 257/201/71
f 257/201/71 324/195/130 330/202/135
f 324/195/130 325/196/131 330/202/135
f 330/202/135 325/196/131 331/203/136
f 325/196/131 326/197/132 331/203/136
f 331/203/136 326/197/132 332/204/137
f 326/197/132 327/198/133 332/204/137
f 332/204/137 327/198/133 333/205/138
f 327/198/133 328/199/134 333/205/138
f 333/205/138 328/199/134 334/206/139
f 328/199/134 329/200/29 334/206/139
f 334/206/139 329/200/29 335/207/140
f 258/159/72 260/160/74 305/161/117
f 305/161/117 260/160/74 336/162/141
f 260/160/74 270/163/84 336/162/141
f 336/162/141 270/163/84 337/164/142
f 270/163/84 276/165/89 337/164/142
f 337/164/142 276/165/89 338/166/143
f 276/165/89 282/167/94 338/166/143
f 338/166/143 282/167/94 339/168/144
f 282/167/94 288/169/100 339/168/144
f 339/168/144 288/169/100 340/170/145
f 288/169/100 294/171/106 340/170/145
f 340/170/145 294/171/106 341/172/146
f 305/161/117 336/162/141 311/173/123
f 311/173/123 336/162/141 342/174/147
f 336/162/141 337/164/142 342/174/147
f 342/174/147 337/164/142 343/175/148
f 337/164/142 338/166/143 343/175/148
f 343/175/148 338/166/143 344/176/149
f 338/166/143 339/168/144 344/176/149
f 344/176/149 339/168/144 345/177/150
f 339/168/144 340/170/145 345/177/150
f 345/177/150 340/170/145 346/178/151
f 340/170/145 341/172/146 346/178/151
f 346/178/151 341/172/146 347/179/152
f 311/173/123 342/174/147 317/180/2
f 317/180/2 342/174/147 348/181/3
f 342/174/147 343/175/148 348/181/3
f 348/181/3 343/175/148 349/182/4
f 343/175/148 344/176/149 349/182/4
f 349/182/4 344/176/149 350/183/5
f 344/176/149 345/177/150 350/183/5
f 350/183/5 345/177/150 351/184/6
f 345/177/150 346/178/151 351/184/6
f 351/184/6 346/178/151 352/185/7
f 346/178/151 347/179/152 352/185/7
f 352/185/7 347/179/152 353/186/8
f 317/180/2 348/181/3 323/187/129
f 323/187/129 348/181/3 354/188/153
f 348/181/3 349/182/4 354/188/153
f 354/188/153 349/182/4 355/189/154
f 349/182/4 350/183/5 355/189/154
f 355/189/154 350/183/5 356/190/155
f 350/183/5 351/184/6 356/190/155
f 356/190/155 351/184/6 357/191/156
f 351/184/6 352/185/7 357/191/156
f 357/191/156 352/185/7 358/192/157
f 352/185/7 353/186/8 358/192/157
f 358/192/157 353/186/8 359/193/158
f 323/187/129 354/188/153 329/194/29
f 329/194/29 354/188/153 360/195/159
f 354/188/153 355/189/154 360/195/159
f 360/195/159 355/189/154 361/196/160
f 355/189/154 356/190/155 361/196/160
f 361/196/160 356/190/155 362/197/161
f 356/190/155 357/191/156 362/197/161
f 362/197/161 357/191/156 363/198/162
f 357/191/156 358/192/157 363/198/162
f 363/198/162 358/192/157 364/199/163
f 358/192/157 359/193/158 364/199/163
f 364/199/163 359/193/158 365/200/164
f 329/194/29 360/195/159 335/201/140
f 335/201/140 360/195/159 366/202/165
f 360/195/159 361/196/160 366/202/165
f 366/202/165 361/196/160 367/203/166
f 361/196/160 362/197/161 367/203/166
f 367/203/166 362/197/161 368/204/167
f 362/197/161 363/198/162 368/204/167
f 368/204/167 363/198/162 369/205/168
f 363/198/162 364/199/163 369/205/168
f 369/205/168 364/199/163 370/206/169
f 364/199/163 365/200/164 370/206/169
f 370/206/169 365/200/164 371/207/170
f 371/159/170 372/160/171 370/161/169
f 370/161/169 372/160/171 373/162/172
f 372/160/171 374/163/173 373/162/172
f 373/162/172 374/163/173 375/164/174
f 374/163/173 376/165/175 375/164/174
f 375/164/174 376/165/175 377/166/176
f 376/165/175 378/167/177 377/166/176
f 377/166/176 378/167/177 379/168/178
f 378/167/177 380/169/179 379/168/178
f 379/168/178 380/169/179 381/170/180
f 380/169/179 251/171/65 381/170/180
f 381/170/180 251/171/65 252/172/66
f 370/161/169 373/162/172 369/173/168
f 369/173/168 373/162/172 382/174/181
f 373/162/172 375/164/174 382/174/181
f 382/174/181 375/164/174 383/175/182
f 375/164/174 377/166/176 383/175/182
f 383/175/182 377/166/176 384/176/183
f 377/166/176 379/168/178 384/176/183
f 384/176/183 379/168/178 385/177/30
f 379/168/178 381/170/180 385/177/30
f 385/177/30 381/170/180 386/178/184
f 381/170/180 252/172/66 386/178/184
f 386/178/184 252/172/66 253/179/67
f 369/173/168 382/174/181 368/180/167
f 368/180/167 382/174/181 387/181/185
f 382/174/181 383/175/182 387/181/185
f 387/181/185 383/175/182 388/182/186
f 383/175/182 384/176/183 388/182/186
f 388/182/186 384/176/183 389/183/15
f 384/176/183 385/177/30 389/183/15
f 389/183/15 385/177/30 390/184/187
f 385/177/30 386/178/184 390/184/187
f 390/184/187 386/178/184 391/185/188
f 386/178/184 253/179/67 391/185/188
f 391/185/188 253/179/67 254/186/68
f 368/180/167 387/181/185 367/187/166
f 367/187/166 387/181/185 392/188/189
f 387/181/185 388/182/186 392/188/189
f 392/188/189 388/182/186 393/189/190
f 388/182/186 389/183/15 393/189/190
f 393/189/190 389/183/15 394/190/191
f 389/183/15 390/184/187 394/190/191
f 394/190/191 390/184/187 395/191/192
f 390/184/187 391/185/188 395/191/192
f 395/191/192 391/185/188 396/192/193
f 391/185/188 254/186/68 396/192/193
f 396/192/193 254/186/68 255/193/69
f 367/187/166 392/188/189 366/194/165
f 366/194/165 392/188/189 397/195/194
f 392/188/189 393/189/190 397/195/194
f 397/195/194 393/189/190 398/196/195
f 393/189/190 394/190/191 398/196/195
f 398/196/195 394/190/191 399/197/196
f 394/190/191 395/191/192 399/197/196
f 399/197/196 395/191/192 400/198/197
f 395/191/192 396/192/193 400/198/197
f 400/198/197 396/192/193 401/199/198
f 396/192/193 255/193/69 401/199/198
f 401/199/198 255/193/69 256/200/70
f 366/194/165 397/195/194 335/201/140
f 335/201/140 397/195/194 334/202/139
f 397/195/194 398/196/195 334/202/139
f 334/202/139 398/196/195 333/203/138
f 398/196/195 399/197/196 333/203/138
f 333/203/138 399/197/196 332/204/137
f 399/197/196 400/198/197 332/204/137
f 332/204/137 400/198/197 331/205/136
f 400/198/197 401/199/198 331/205/136
f 331/205/136 401/199/198 330/206/135
f 401/199/198 256/200/70 330/206/135
f 330/206/135 256/200/70 257/207/71
f 294/159/106 295/160/107 341/161/146
f 341/161/146 295/160/107 402/162/199
f 295/160/107 296/163/108 402/162/199
f 402/162/199 296/163/108 403/164/200
f 296/163/108 297/165/109 403/164/200
f 403/164/200 297/165/109 404/166/201
f 297/165/109 298/167/110 404/166/201
f 404/166/201 298/167/110 405/168/202
f 298/167/110 299/169/111 405/168/202
f 405/168/202 299/169/111 406/170/203
f 299/169/111 209/171/31 406/170/203
f 406/170/203 209/171/31 211/172/27
f 341/161/146 402/162/199 347/173/152
f 347/173/152 402/162/199 407/174/204
f 402/162/199 403/164/200 407/174/204
f 407/174/204 403/164/200 408/175/205
f 403/164/200 404/166/201 408/175/205
f 408/175/205 404/166/201 409/176/206
f 404/166/201 405/168/202 409/176/206
f 409/176/206 405/168/202 410/177/207
f 405/168/202 406/170/203 410/177/207
f 410/177/207 406/170/203 411/178/208
f 406/170/203 211/172/27 411/178/208
f 411/178/208 211/172/27 223/179/44
f 347/173/152 407/174/204 353/180/8
f 353/180/8 407/174/204 412/181/22
f 407/174/204 408/175/205 412/181/22
f 412/181/22 408/175/205 413/182/23
f 408/175/205 409/176/206 413/182/23
f 413/182/23 409/176/206 414/183/24
f 409/176/206 410/177/207 414/183/24
f 414/183/24 410/177/207 415/184/25
f 410/177/207 411/178/208 415/184/25
f 415/184/25 411/178/208 416/185/26
f 411/178/208 223/179/44 416/185/26
f 416/185/26 223/179/44 230/186/16
f 353/180/8 412/181/22 359/187/158
f 359/187/158 412/181/22 417/188/209
f 412/181/22 413/182/23 417/188/209
f 417/188/209 413/182/23 418/189/210
f 413/182/23 414/183/24 418/189/210
f 418/189/210 414/183/24 419/190/211
f 414/183/24 415/184/25 419/190/211
f 419/190/211 415/184/25 420/191/212
f 415/184/25 416/185/26 420/191/212
f 420/191/212 416/185/26 421/192/213
f 416/185/26 230/186/16 421/192/213
f 421/192/213 230/186/16 237/193/51
f 359/187/158 417/188/209 365/194/164
f 365/194/164 417/188/209 422/195/214
f 417/188/209 418/189/210 422/195/214
f 422/195/214 418/189/210 423/196/215
f 418/189/210 419/190/211 423/196/215
f 423/196/215 419/190/211 424/197/216
f 419/190/211 420/191/212 424/197/216
f 424/197/216 420/191/212 425/198/217
f 420/191/212 421/192/213 425/198/217
f 425/198/217 421/192/213 426/199/218
f 421/192/213 237/193/51 426/199/218
f 426/199/218 237/193/51 244/200/58
f 365/194/164 422/195/214 371/201/170
f 371/201/170 422/195/214 372/202/171
f 422/195/214 423/196/215 372/202/171
f 372/202/171 423/196/215 374/203/173
f 423/196/215 424/197/216 374/203/173
f 374/203/173 424/197/216 376/204/175
f 424/197/216 425/198/217 376/204/175
f 376/204/175 425/198/217 378/205/177
f 425/198/217 426/199/218 378/205/177
f 378/205/177 426/199/218 380/206/179
f 426/199/218 244/200/58 380/206/179
f 380/206/179 244/200/58 251/207/65
usemtl c_e1e6f5_shiny
f 427/208/219 428/209/219 429/210/219
f 429/210/219 428/209/219 430/211/219
f 431/212/220 428/209/220 432/213/220
f 432/213/220 428/209/220 427/211/220
f 428/212/11 431/209/11 430/213/11
f 430/213/11 431/209/11 433/211/11
f 431/208/221 432/209/221 433/210/221
f 433/210/221 432/209/221 434/211/221
f 434/212/222 429/209/222 433/213/222
f 433/213/222 429/209/222 430/211/222
f 432/212/24 427/209/24 434/213/24
f 434/213/24 427/209/24 429/211/24
f 435/214/223 436/215/223 437/216/223
f 437/216/223 436/215/223 438/217/223
f 439/218/224 436/215/224 440/219/224
f 440/219/224 436/215/224 435/217/224
f 436/218/11 439/215/11 438/219/11
f 438/219/11 439/215/11 441/217/11
f 439/214/225 440/215/225 441/216/225
f 441/216/225 440/215/225 442/217/225
f 442/218/226 437/215/226 441/219/226
f 441/219/226 437/215/226 438/217/226
f 440/218/24 435/215/24 442/219/24
f 442/219/24 435/215/24 437/217/24
usemtl c_5ae6ff_neon
f 443/220/227 444/221/227 445/222/227
f 445/222/227 444/221/227 446/223/227
f 447/220/228 444/221/228 448/224/228
f 448/224/228 444/221/228 443/225/228
f 444/220/14 447/221/14 446/222/14
f 446/222/14 447/221/14 449/223/14
f 447/220/229 448/221/229 449/222/229
f 449/222/229 448/221/229 450/223/229
f 450/220/230 445/221/230 449/224/230
f 449/224/230 445/221/230 446/225/230
f 448/220/8 443/221/8 450/222/8
f 450/222/8 443/221/8 445/223/8
f 451/226/27 452/227/27 453/228/27
f 453/228/27 452/227/27 454/229/27
f 455/226/28 452/227/28 456/230/28
f 456/230/28 452/227/28 451/231/28
f 452/226/14 455/227/14 454/228/14
f 454/228/14 455/227/14 457/229/14
f 455/226/29 456/227/29 457/228/29
f 457/228/29 456/227/29 458/229/29
f 458/226/30 453/227/30 457/230/30
f 457/230/30 453/227/30 454/231/30
f 456/226/8 451/227/8 458/228/8
f 458/228/8 451/227/8 453/229/8
usemtl c_ff78dc_neon
f 459/232/231 460/233/231 461/234/231
f 461/234/231 460/233/231 462/235/231
f 463/232/232 460/233/232 464/236/232
f 464/236/232 460/233/232 459/237/232
f 460/232/14 463/233/14 462/234/14
f 462/234/14 463/233/14 465/235/14
f 463/232/233 464/233/233 465/234/233
f 465/234/233 464/233/233 466/235/233
f 466/232/234 461/233/234 465/236/234
f 465/236/234 461/233/234 462/237/234
f 464/232/8 459/233/8 466/234/8
f 466/234/8 459/233/8 461/235/8
f 467/238/31 468/239/32 469/240/27
f 469/240/27 468/239/32 470/241/33
f 468/239/32 471/242/34 470/241/33
f 470/241/33 471/242/34 472/243/35
f 471/242/34 473/244/36 472/243/35
f 472/243/35 473/244/36 474/245/37
f 473/244/36 475/246/38 474/245/37
f 474/245/37 475/246/38 476/247/39
f 475/246/38 477/248/40 476/247/39
f 476/247/39 477/248/40 478/249/41
f 477/248/40 479/250/42 478/249/41
f 478/249/41 479/250/42 480/251/43
f 469/240/27 470/241/33 481/252/44
f 481/252/44 470/241/33 482/253/45
f 470/241/33 472/243/35 482/253/45
f 482/253/45 472/243/35 483/254/46
f 472/243/35 474/245/37 483/254/46
f 483/254/46 474/245/37 484/255/47
f 474/245/37 476/247/39 484/255/47
f 484/255/47 476/247/39 485/256/48
f 476/247/39 478/249/41 485/256/48
f 485/256/48 478/249/41 486/257/49
f 478/249/41 480/251/43 486/257/49
f 486/257/49 480/251/43 487/258/50
f 481/252/44 482/253/45 488/259/16
f 488/259/16 482/253/45 489/260/17
f 482/253/45 483/254/46 489/260/17
f 489/260/17 483/254/46 490/261/18
f 483/254/46 484/255/47 490/261/18
f 490/261/18 484/255/47 491/262/19
f 484/255/47 485/256/48 491/262/19
f 491/262/19 485/256/48 492/263/20
f 485/256/48 486/257/49 492/263/20
f 492/263/20 486/257/49 493/264/21
f 486/257/49 487/258/50 493/264/21
f 493/264/21 487/258/50 494/265/14
f 488/259/16 489/260/17 495/266/51
f 495/266/51 489/260/17 496/267/52
f 489/260/17 490/261/18 496/267/52
f 496/267/52 490/261/18 497/268/53
f 490/261/18 491/262/19 497/268/53
f 497/268/53 491/262/19 498/269/54
f 491/262/19 492/263/20 498/269/54
f 498/269/54 492/263/20 499/270/55
f 492/263/20 493/264/21 499/270/55
f 499/270/55 493/264/21 500/271/56
f 493/264/21 494/265/14 500/271/56
f 500/271/56 494/265/14 501/272/57
f 495/266/51 496/267/52 502/273/58
f 502/273/58 496/267/52 503/274/59
f 496/267/52 497/268/53 503/274/59
f 503/274/59 497/268/53 504/275/60
f 497/268/53 498/269/54 504/275/60
f 504/275/60 498/269/54 505/276/61
f 498/269/54 499/270/55 505/276/61
f 505/276/61 499/270/55 506/277/62
f 499/270/55 500/271/56 506/277/62
f 506/277/62 500/271/56 507/278/63
f 500/271/56 501/272/57 507/278/63
f 507/278/63 501/272/57 508/279/64
f 502/273/58 503/274/59 509/280/65
f 509/280/65 503/274/59 510/281/66
f 503/274/59 504/275/60 510/281/66
f 510/281/66 504/275/60 511/282/67
f 504/275/60 505/276/61 511/282/67
f 511/282/67 505/276/61 512/283/68
f 505/276/61 506/277/62 512/283/68
f 512/283/68 506/277/62 513/284/69
f 506/277/62 507/278/63 513/284/69
f 513/284/69 507/278/63 514/285/70
f 507/278/63 508/279/64 514/285/70
f 514/285/70 508/279/64 515/286/71
f 516/238/72 517/239/73 518/240/74
f 518/240/74 517/239/73 519/241/75
f 517/239/73 520/242/76 519/241/75
f 519/241/75 520/242/76 521/243/77
f 520/242/76 522/244/78 521/243/77
f 521/243/77 522/244/78 523/245/79
f 522/244/78 524/246/80 523/245/79
f 523/245/79 524/246/80 525/247/81
f 524/246/80 526/248/82 525/247/81
f 525/247/81 526/248/82 527/249/83
f 526/248/82 479/250/42 527/249/83
f 527/249/83 479/250/42 477/251/40
f 518/240/74 519/241/75 528/252/84
f 528/252/84 519/241/75 529/253/85
f 519/241/75 521/243/77 529/253/85
f 529/253/85 521/243/77 530/254/28
f 521/243/77 523/245/79 530/254/28
f 530/254/28 523/245/79 531/255/86
f 523/245/79 525/247/81 531/255/86
f 531/255/86 525/247/81 532/256/87
f 525/247/81 527/249/83 532/256/87
f 532/256/87 527/249/83 533/257/88
f 527/249/83 477/251/40 533/257/88
f 533/257/88 477/251/40 475/258/38
f 528/252/84 529/253/85 534/259/89
f 534/259/89 529/253/85 535/260/90
f 529/253/85 530/254/28 535/260/90
f 535/260/90 530/254/28 536/261/91
f 530/254/28 531/255/86 536/261/91
f 536/261/91 531/255/86 537/262/1
f 531/255/86 532/256/87 537/262/1
f 537/262/1 532/256/87 538/263/92
f 532/256/87 533/257/88 538/263/92
f 538/263/92 533/257/88 539/264/93
f 533/257/88 475/258/38 539/264/93
f 539/264/93 475/258/38 473/265/36
f 534/259/89 535/260/90 540/266/94
f 540/266/94 535/260/90 541/267/95
f 535/260/90 536/261/91 541/267/95
f 541/267/95 536/261/91 542/268/96
f 536/261/91 537/262/1 542/268/96
f 542/268/96 537/262/1 543/269/97
f 537/262/1 538/263/92 543/269/97
f 543/269/97 538/263/92 544/270/98
f 538/263/92 539/264/93 544/270/98
f 544/270/98 539/264/93 545/271/99
f 539/264/93 473/265/36 545/271/99
f 545/271/99 473/265/36 471/272/34
f 540/266/94 541/267/95 546/273/100
f 546/273/100 541/267/95 547/274/101
f 541/267/95 542/268/96 547/274/101
f 547/274/101 542/268/96 548/275/102
f 542/268/96 543/269/97 548/275/102
f 548/275/102 543/269/97 549/276/103
f 543/269/97 544/270/98 549/276/103
f 549/276/103 544/270/98 550/277/104
f 544/270/98 545/271/99 550/277/104
f 550/277/104 545/271/99 551/278/105
f 545/271/99 471/272/34 551/278/105
f 551/278/105 471/272/34 468/279/32
f 546/273/100 547/274/101 552/280/106
f 552/280/106 547/274/101 553/281/107
f 547/274/101 548/275/102 553/281/107
f 553/281/107 548/275/102 554/282/108
f 548/275/102 549/276/103 554/282/108
f 554/282/108 549/276/103 555/283/109
f 549/276/103 550/277/104 555/283/109
f 555/283/109 550/277/104 556/284/110
f 550/277/104 551/278/105 556/284/110
f 556/284/110 551/278/105 557/285/111
f 551/278/105 468/279/32 557/285/111
f 557/285/111 468/279/32 467/286/31
f 479/238/42 526/239/82 480/240/43
f 480/240/43 526/239/82 558/241/112
f 526/239/82 524/242/80 558/241/112
f 558/241/112 524/242/80 559/243/113
f 524/242/80 522/244/78 559/243/113
f 559/243/113 522/244/78 560/245/114
f 522/244/78 520/246/76 560/245/114
f 560/245/114 520/246/76 561/247/115
f 520/246/76 517/248/73 561/247/115
f 561/247/115 517/248/73 562/249/116
f 517/248/73 516/250/72 562/249/116
f 562/249/116 516/250/72 563/251/117
f 480/240/43 558/241/112 487/252/50
f 487/252/50 558/241/112 564/253/118
f 558/241/112 559/243/113 564/253/118
f 564/253/118 559/243/113 565/254/119
f 559/243/113 560/245/114 565/254/119
f 565/254/119 560/245/114 566/255/120
f 560/245/114 561/247/115 566/255/120
f 566/255/120 561/247/115 567/256/121
f 561/247/115 562/249/116 567/256/121
f 567/256/121 562/249/116 568/257/122
f 562/249/116 563/251/117 568/257/122
f 568/257/122 563/251/117 569/258/123
f 487/252/50 564/253/118 494/259/14
f 494/259/14 564/253/118 570/260/13
f 564/253/118 565/254/119 570/260/13
f 570/260/13 565/254/119 571/261/12
f 565/254/119 566/255/120 571/261/12
f 571/261/12 566/255/120 572/262/11
f 566/255/120 567/256/121 572/262/11
f 572/262/11 567/256/121 573/263/10
f 567/256/121 568/257/122 573/263/10
f 573/263/10 568/257/122 574/264/9
f 568/257/122 569/258/123 574/264/9
f 574/264/9 569/258/123 575/265/2
f 494/259/14 570/260/13 501/266/57
f 501/266/57 570/260/13 576/267/124
f 570/260/13 571/261/12 576/267/124
f 576/267/124 571/261/12 577/268/125
f 571/261/12 572/262/11 577/268/125
f 577/268/125 572/262/11 578/269/126
f 572/262/11 573/263/10 578/269/126
f 578/269/126 573/263/10 579/270/127
f 573/263/10 574/264/9 579/270/127
f 579/270/127 574/264/9 580/271/128
f 574/264/9 575/265/2 580/271/128
f 580/271/128 575/265/2 581/272/129
f 501/266/57 576/267/124 508/273/64
f 508/273/64 576/267/124 582/274/130
f 576/267/124 577/268/125 582/274/130
f 582/274/130 577/268/125 583/275/131
f 577/268/125 578/269/126 583/275/131
f 583/275/131 578/269/126 584/276/132
f 578/269/126 579/270/127 584/276/132
f 584/276/132 579/270/127 585/277/133
f 579/270/127 580/271/128 585/277/133
f 585/277/133 580/271/128 586/278/134
f 580/271/128 581/272/129 586/278/134
f 586/278/134 581/272/129 587/279/29
f 508/273/64 582/274/130 515/280/71
f 515/280/71 582/274/130 588/281/135
f 582/274/130 583/275/131 588/281/135
f 588/281/135 583/275/131 589/282/136
f 583/275/131 584/276/132 589/282/136
f 589/282/136 584/276/132 590/283/137
f 584/276/132 585/277/133 590/283/137
f 590/283/137 585/277/133 591/284/138
f 585/277/133 586/278/134 591/284/138
f 591/284/138 586/278/134 592/285/139
f 586/278/134 587/279/29 592/285/139
f 592/285/139 587/279/29 593/286/140
f 516/238/72 518/239/74 563/240/117
f 563/240/117 518/239/74 594/241/141
f 518/239/74 528/242/84 594/241/141
f 594/241/141 528/242/84 595/243/142
f 528/242/84 534/244/89 595/243/142
f 595/243/142 534/244/89 596/245/143
f 534/244/89 540/246/94 596/245/143
f 596/245/143 540/246/94 597/247/144
f 540/246/94 546/248/100 597/247/144
f 597/247/144 546/248/100 598/249/145
f 546/248/100 552/250/106 598/249/145
f 598/249/145 552/250/106 599/251/146
f 563/240/117 594/241/141 569/252/123
f 569/252/123 594/241/141 600/253/147
f 594/241/141 595/243/142 600/253/147
f 600/253/147 595/243/142 601/254/148
f 595/243/142 596/245/143 601/254/148
f 601/254/148 596/245/143 602/255/149
f 596/245/143 597/247/144 602/255/149
f 602/255/149 597/247/144 603/256/150
f 597/247/144 598/249/145 603/256/150
f 603/256/150 598/249/145 604/257/151
f 598/249/145 599/251/146 604/257/151
f 604/257/151 599/251/146 605/258/152
f 569/252/123 600/253/147 575/259/2
f 575/259/2 600/253/147 606/260/3
f 600/253/147 601/254/148 606/260/3
f 606/260/3 601/254/148 607/261/4
f 601/254/148 602/255/149 607/261/4
f 607/261/4 602/255/149 608/262/5
f 602/255/149 603/256/150 608/262/5
f 608/262/5 603/256/150 609/263/6
f 603/256/150 604/257/151 609/263/6
f 609/263/6 604/257/151 610/264/7
f 604/257/151 605/258/152 610/264/7
f 610/264/7 605/258/152 611/265/8
f 575/259/2 606/260/3 581/266/129
f 581/266/129 606/260/3 612/267/153
f 606/260/3 607/261/4 612/267/153
f 612/267/153 607/261/4 613/268/154
f 607/261/4 608/262/5 613/268/154
f 613/268/154 608/262/5 614/269/155
f 608/262/5 609/263/6 614/269/155
f 614/269/155 609/263/6 615/270/156
f 609/263/6 610/264/7 615/270/156
f 615/270/156 610/264/7 616/271/157
f 610/264/7 611/265/8 616/271/157
f 616/271/157 611/265/8 617/272/158
f 581/266/129 612/267/153 587/273/29
f 587/273/29 612/267/153 618/274/159
f 612/267/153 613/268/154 618/274/159
f 618/274/159 613/268/154 619/275/160
f 613/268/154 614/269/155 619/275/160
f 619/275/160 614/269/155 620/276/161
f 614/269/155 615/270/156 620/276/161
f 620/276/161 615/270/156 621/277/162
f 615/270/156 616/271/157 621/277/162
f 621/277/162 616/271/157 622/278/163
f 616/271/157 617/272/158 622/278/163
f 622/278/163 617/272/158 623/279/164
f 587/273/29 618/274/159 593/280/140
f 593/280/140 618/274/159 624/281/165
f 618/274/159 619/275/160 624/281/165
f 624/281/165 619/275/160 625/282/166
f 619/275/160 620/276/161 625/282/166
f 625/282/166 620/276/161 626/283/167
f 620/276/161 621/277/162 626/283/167
f 626/283/167 621/277/162 627/284/168
f 621/277/162 622/278/163 627/284/168
f 627/284/168 622/278/163 628/285/169
f 622/278/163 623/279/164 628/285/169
f 628/285/169 623/279/164 629/286/170
f 629/238/170 630/239/171 628/240/169
f 628/240/169 630/239/171 631/241/172
f 630/239/171 632/242/173 631/241/172
f 631/241/172 632/242/173 633/243/174
f 632/242/173 634/244/175 633/243/174
f 633/243/174 634/244/175 635/245/176
f 634/244/175 636/246/177 635/245/176
f 635/245/176 636/246/177 637/247/178
f 636/246/177 638/248/179 637/247/178
f 637/247/178 638/248/179 639/249/180
f 638/248/179 509/250/65 639/249/180
f 639/249/180 509/250/65 510/251/66
f 628/240/169 631/241/172 627/252/168
f 627/252/168 631/241/172 640/253/181
f 631/241/172 633/243/174 640/253/181
f 640/253/181 633/243/174 641/254/182
f 633/243/174 635/245/176 641/254/182
f 641/254/182 635/245/176 642/255/183
f 635/245/176 637/247/178 642/255/183
f 642/255/183 637/247/178 643/256/30
f 637/247/178 639/249/180 643/256/30
f 643/256/30 639/249/180 644/257/184
f 639/249/180 510/251/66 644/257/184
f 644/257/184 510/251/66 511/258/67
f 627/252/168 640/253/181 626/259/167
f 626/259/167 640/253/181 645/260/185
f 640/253/181 641/254/182 645/260/185
f 645/260/185 641/254/182 646/261/186
f 641/254/182 642/255/183 646/261/186
f 646/261/186 642/255/183 647/262/15
f 642/255/183 643/256/30 647/262/15
f 647/262/15 643/256/30 648/263/187
f 643/256/30 644/257/184 648/263/187
f 648/263/187 644/257/184 649/264/188
f 644/257/184 511/258/67 649/264/188
f 649/264/188 511/258/67 512/265/68
f 626/259/167 645/260/185 625/266/166
f 625/266/166 645/260/185 650/267/189
f 645/260/185 646/261/186 650/267/189
f 650/267/189 646/261/186 651/268/190
f 646/261/186 647/262/15 651/268/190
f 651/268/190 647/262/15 652/269/191
f 647/262/15 648/263/187 652/269/191
f 652/269/191 648/263/187 653/270/192
f 648/263/187 649/264/188 653/270/192
f 653/270/192 649/264/188 654/271/193
f 649/264/188 512/265/68 654/271/193
f 654/271/193 512/265/68 513/272/69
f 625/266/166 650/267/189 624/273/165
f 624/273/165 650/267/189 655/274/194
f 650/267/189 651/268/190 655/274/194
f 655/274/194 651/268/190 656/275/195
f 651/268/190 652/269/191 656/275/195
f 656/275/195 652/269/191 657/276/196
f 652/269/191 653/270/192 657/276/196
f 657/276/196 653/270/192 658/277/197
f 653/270/192 654/271/193 658/277/197
f 658/277/197 654/271/193 659/278/198
f 654/271/193 513/272/69 659/278/198
f 659/278/198 513/272/69 514/279/70
f 624/273/165 655/274/194 593/280/140
f 593/280/140 655/274/194 592/281/139
f 655/274/194 656/275/195 592/281/139
f 592/281/139 656/275/195 591/282/138
f 656/275/195 657/276/196 591/282/138
f 591/282/138 657/276/196 590/283/137
f 657/276/196 658/277/197 590/283/137
f 590/283/137 658/277/197 589/284/136
f 658/277/197 659/278/198 589/284/136
f 589/284/136 659/278/198 588/285/135
f 659/278/198 514/279/70 588/285/135
f 588/285/135 514/279/70 515/286/71
f 552/238/106 553/239/107 599/240/146
f 599/240/146 553/239/107 660/241/199
f 553/239/107 554/242/108 660/241/199
f 660/241/199 554/242/108 661/243/200
f 554/242/108 555/244/109 661/243/200
f 661/243/200 555/244/109 662/245/201
f 555/244/109 556/246/110 662/245/201
f 662/245/201 556/246/110 663/247/202
f 556/246/110 557/248/111 663/247/202
f 663/247/202 557/248/111 664/249/203
f 557/248/111 467/250/31 664/249/203
f 664/249/203 467/250/31 469/251/27
f 599/240/146 660/241/199 605/252/152
f 605/252/152 660/241/199 665/253/204
f 660/241/199 661/243/200 665/253/204
f 665/253/204 661/243/200 666/254/205
f 661/243/200 662/245/201 666/254/205
f 666/254/205 662/245/201 667/255/206
f 662/245/201 663/247/202 667/255/206
f 667/255/206 663/247/202 668/256/207
f 663/247/202 664/249/203 668/256/207
f 668/256/207 664/249/203 669/257/208
f 664/249/203 469/251/27 669/257/208
f 669/257/208 469/251/27 481/258/44
f 605/252/152 665/253/204 611/259/8
f 611/259/8 665/253/204 670/260/22
f 665/253/204 666/254/205 670/260/22
f 670/260/22 666/254/205 671/261/23
f 666/254/205 667/255/206 671/261/23
f 671/261/23 667/255/206 672/262/24
f 667/255/206 668/256/207 672/262/24
f 672/262/24 668/256/207 673/263/25
f 668/256/207 669/257/208 673/263/25
f 673/263/25 669/257/208 674/264/26
f 669/257/208 481/258/44 674/264/26
f 674/264/26 481/258/44 488/265/16
f 611/259/8 670/260/22 617/266/158
f 617/266/158 670/260/22 675/267/209
f 670/260/22 671/261/23 675/267/209
f 675/267/209 671/261/23 676/268/210
f 671/261/23 672/262/24 676/268/210
f 676/268/210 672/262/24 677/269/211
f 672/262/24 673/263/25 677/269/211
f 677/269/211 673/263/25 678/270/212
f 673/263/25 674/264/26 678/270/212
f 678/270/212 674/264/26 679/271/213
f 674/264/26 488/265/16 679/271/213
f 679/271/213 488/265/16 495/272/51
f 617/266/158 675/267/209 623/273/164
f 623/273/164 675/267/209 680/274/214
f 675/267/209 676/268/210 680/274/214
f 680/274/214 676/268/210 681/275/215
f 676/268/210 677/269/211 681/275/215
f 681/275/215 677/269/211 682/276/216
f 677/269/211 678/270/212 682/276/216
f 682/276/216 678/270/212 683/277/217
f 678/270/212 679/271/213 683/277/217
f 683/277/217 679/271/213 684/278/218
f 679/271/213 495/272/51 684/278/218
f 684/278/218 495/272/51 502/279/58
f 623/273/164 680/274/214 629/280/170
f 629/280/170 680/274/214 630/281/171
f 680/274/214 681/275/215 630/281/171
f 630/281/171 681/275/215 632/282/173
f 681/275/215 682/276/216 632/282/173
f 632/282/173 682/276/216 634/283/175
f 682/276/216 683/277/217 634/283/175
f 634/283/175 683/277/217 636/284/177
f 683/277/217 684/278/218 636/284/177
f 636/284/177 684/278/218 638/285/179
f 684/278/218 502/279/58 638/285/179
f 638/285/179 502/279/58 509/286/65
f 685/287/27 686/288/27 687/289/27
f 687/289/27 686/288/27 688/290/27
f 689/287/28 686/288/28 690/291/28
f 690/291/28 686/288/28 685/292/28
f 686/287/14 689/288/14 688/289/14
f 688/289/14 689/288/14 691/290/14
f 689/287/29 690/288/29 691/289/29
f 691/289/29 690/288/29 692/290/29
f 692/287/30 687/288/30 691/291/30
f 691/291/30 687/288/30 688/292/30
f 690/287/8 685/288/8 692/289/8
f 692/289/8 685/288/8 687/290/8
usemtl c_5ae6ff_shiny_a85
f 693/293/19 694/294/19 695/295/19
f 695/295/19 694/294/19 696/296/19
f 697/297/1 694/294/1 698/298/1
f 698/298/1 694/294/1 693/299/1
f 694/297/11 697/294/11 696/300/11
f 696/300/11 697/294/11 699/296/11
f 697/293/5 698/294/5 699/295/5
f 699/295/5 698/294/5 700/296/5
f 700/297/15 695/294/15 699/298/15
f 699/298/15 695/294/15 696/299/15
f 698/297/24 693/294/24 700/300/24
f 700/300/24 693/294/24 695/296/24
usemtl c_78aaff_shiny_a85
f 701/301/19 702/302/19 703/303/19
f 703/303/19 702/302/19 704/304/19
f 705/305/1 702/302/1 706/306/1
f 706/306/1 702/302/1 701/307/1
f 702/305/11 705/302/11 704/308/11
f 704/308/11 705/302/11 707/304/11
f 705/301/5 706/302/5 707/303/5
f 707/303/5 706/302/5 708/304/5
f 708/305/15 703/302/15 707/306/15
f 707/306/15 703/302/15 704/307/15
f 706/305/24 701/302/24 708/308/24
f 708/308/24 701/302/24 703/304/24
usemtl c_965aff_shiny_a85
f 709/309/19 710/310/19 711/311/19
f 711/311/19 710/310/19 712/312/19
f 713/313/1 710/310/1 714/314/1
f 714/314/1 710/310/1 709/315/1
f 710/313/11 713/310/11 712/316/11
f 712/316/11 713/310/11 715/312/11
f 713/309/5 714/310/5 715/311/5
f 715/311/5 714/310/5 716/312/5
f 716/313/15 711/310/15 715/314/15
f 715/314/15 711/310/15 712/315/15
f 714/313/24 709/310/24 716/316/24
f 716/316/24 709/310/24 711/312/24
usemtl c_c86ef5_shiny_a85
f 717/317/19 718/318/19 719/319/19
f 719/319/19 718/318/19 720/320/19
f 721/321/1 718/318/1 722/322/1
f 722/322/1 718/318/1 717/323/1
f 718/321/11 721/318/11 720/324/11
f 720/324/11 721/318/11 723/320/11
f 721/317/5 722/318/5 723/319/5
f 723/319/5 722/318/5 724/320/5
f 724/321/15 719/318/15 723/322/15
f 723/322/15 719/318/15 720/323/15
f 722/321/24 717/318/24 724/324/24
f 724/324/24 717/318/24 719/320/24
usemtl c_ff78dc_shiny_a85
f 725/325/19 726/326/19 727/327/19
f 727/327/19 726/326/19 728/328/19
f 729/329/1 726/326/1 730/330/1
f 730/330/1 726/326/1 725/331/1
f 726/329/11 729/326/11 728/332/11
f 728/332/11 729/326/11 731/328/11
f 729/325/5 730/326/5 731/327/5
f 731/327/5 730/326/5 732/328/5
f 732/329/15 727/326/15 731/330/15
f 731/330/15 727/326/15 728/331/15
f 730/329/24 725/326/24 732/332/24
f 732/332/24 725/326/24 727/328/24
usemtl c_ffaac8_shiny_a85
f 733/333/19 734/334/19 735/335/19
f 735/335/19 734/334/19 736/336/19
f 737/337/1 734/334/1 738/338/1
f 738/338/1 734/334/1 733/339/1
f 734/337/11 737/334/11 736/340/11
f 736/340/11 737/334/11 739/336/11
f 737/333/5 738/334/5 739/335/5
f 739/335/5 738/334/5 740/336/5
f 740/337/15 735/334/15 739/338/15
f 739/338/15 735/334/15 736/339/15
f 738/337/24 733/334/24 740/340/24
f 740/340/24 733/334/24 735/336/24
usemtl c_ffeb96_shiny_a85
f 741/341/19 742/342/19 743/343/19
f 743/343/19 742/342/19 744/344/19
f 745/345/1 742/342/1 746/346/1
f 746/346/1 742/342/1 741/347/1
f 742/345/11 745/342/11 744/348/11
f 744/348/11 745/342/11 747/344/11
f 745/341/5 746/342/5 747/343/5
f 747/343/5 746/342/5 748/344/5
f 748/345/15 743/342/15 747/346/15
f 747/346/15 743/342/15 744/347/15
f 746/345/24 741/342/24 748/348/24
f 748/348/24 741/342/24 743/344/24
usemtl c_a0ffd2_shiny_a85
f 749/349/19 750/350/19 751/351/19
f 751/351/19 750/350/19 752/352/19
f 753/353/1 750/350/1 754/354/1
f 754/354/1 750/350/1 749/355/1
f 750/353/11 753/350/11 752/356/11
f 752/356/11 753/350/11 755/352/11
f 753/349/5 754/350/5 755/351/5
f 755/351/5 754/350/5 756/352/5
f 756/353/15 751/350/15 755/354/15
f 755/354/15 751/350/15 752/355/15
f 754/353/24 749/350/24 756/356/24
f 756/356/24 749/350/24 751/352/24
usemtl c_ebfaff_shiny
f 757/357/11 757/357/11 758/358/11
f 758/358/11 757/357/11 759/359/11
f 757/360/5 760/357/5 759/361/5
f 759/361/5 760/357/5 761/359/5
f 760/362/24 760/362/24 761/358/24
f 761/358/24 760/362/24 762/359/24
f 762/360/15 758/357/15 761/363/15
f 761/363/15 758/357/15 759/364/15
f 760/360/235 757/357/235 762/365/235
f 762/365/235 757/357/235 758/366/235
f 760/367/24 760/367/24 763/368/24
f 763/368/24 760/367/24 761/369/24
f 760/370/19 757/367/19 761/371/19
f 761/371/19 757/367/19 759/369/19
f 757/372/11 757/372/11 759/368/11
f 759/368/11 757/372/11 764/369/11
f 764/370/15 763/367/15 759/373/15
f 759/373/15 763/367/15 761/374/15
f 757/370/236 760/367/236 764/375/236
f 764/375/236 760/367/236 763/376/236
usemtl c_f5faff_neon
f 765/377/19 766/378/19 767/379/19
f 767/379/19 766/378/19 768/380/19
f 769/381/1 766/378/1 770/382/1
f 770/382/1 766/378/1 765/383/1
f 766/381/11 769/378/11 768/384/11
f 768/384/11 769/378/11 771/380/11
f 769/377/5 770/378/5 771/379/5
f 771/379/5 770/378/5 772/380/5
f 772/381/15 767/378/15 771/382/15
f 771/382/15 767/378/15 768/383/15
f 770/381/24 765/378/24 772/384/24
f 772/384/24 765/378/24 767/380/24
