# Roblox asset pack: mussaurus (creatures), from the Studio model "Mussaurus". Exported with Export Selection, split by tools/build_creatures.py: one object per rigid body. Units: studs. +Y up, front faces -Z, pivot (bottom centre) at the origin.
mtllib mussaurus.mtl

v 1.12500 4.88000 -4.88000
v 1.12500 4.88000 -2.62000
v 1.12500 3.00000 -4.88000
v 1.12500 3.00000 -2.62000
v -1.12500 4.88000 -2.62000
v -1.12500 4.88000 -4.88000
v -1.12500 3.00000 -2.62000
v -1.12500 3.00000 -4.88000
v 1.12500 2.25000 -4.88000
v 1.12500 2.25000 -2.62000
v -1.12500 2.25000 -2.62000
v -1.12500 2.25000 -4.88000
v -0.37500 3.00000 -0.75000
v -0.37500 3.00000 0.75000
v -0.37500 0.75000 -0.75000
v -0.37500 0.75000 0.75000
v -1.87500 3.00000 0.75000
v -1.87500 3.00000 -0.75000
v -1.87500 0.75000 0.75000
v -1.87500 0.75000 -0.75000
v -0.37500 0.75000 -0.38000
v -0.37500 0.00000 -0.38000
v -0.37500 0.00000 0.75000
v -1.87500 0.75000 -0.38000
v -1.87500 0.00000 0.75000
v -1.87500 0.00000 -0.38000
v -0.37500 0.75000 -1.12000
v -0.37500 0.00000 -1.12000
v -1.87500 0.75000 -1.12000
v -1.87500 0.00000 -1.12000
v 0.37500 4.50000 4.88000
v 0.37500 4.50000 7.88000
v 0.37500 3.75000 4.88000
v 0.37500 3.75000 7.88000
v -0.37500 4.50000 7.88000
v -0.37500 4.50000 4.88000
v -0.37500 3.75000 7.88000
v -0.37500 3.75000 4.88000
v 1.12500 4.88000 1.12000
v 1.12500 4.88000 2.62000
v 1.12500 2.62000 1.12000
v 1.12500 2.62000 2.62000
v -1.12500 4.88000 2.62000
v -1.12500 4.88000 1.12000
v -1.12500 2.62000 2.62000
v -1.12500 2.62000 1.12000
v 0.75000 4.88000 2.62000
v 0.75000 4.88000 4.88000
v 0.75000 3.38000 2.62000
v 0.75000 3.38000 4.88000
v -0.75000 4.88000 4.88000
v -0.75000 4.88000 2.62000
v -0.75000 3.38000 4.88000
v -0.75000 3.38000 2.62000
v 0.56200 9.75000 -7.50000
v 0.56200 9.75000 -6.38000
v 0.56200 9.38000 -7.50000
v 0.56200 9.38000 -6.38000
v -0.56200 9.75000 -6.38000
v -0.56200 9.75000 -7.50000
v -0.56200 9.38000 -6.38000
v -0.56200 9.38000 -7.50000
v 0.75000 9.00000 -5.25000
v 0.75000 9.00000 -4.12000
v 0.75000 3.00000 -5.25000
v 0.75000 3.00000 -4.12000
v -0.75000 9.00000 -4.12000
v -0.75000 9.00000 -5.25000
v -0.75000 3.00000 -4.12000
v -0.75000 3.00000 -5.25000
v 0.93800 11.25000 -7.88000
v 0.93800 11.25000 -4.12000
v 0.93800 9.75000 -7.88000
v 0.93800 9.75000 -4.12000
v -0.93800 11.25000 -4.12000
v -0.93800 11.25000 -7.88000
v -0.93800 9.75000 -4.12000
v -0.93800 9.75000 -7.88000
v 0.93800 9.75000 -6.38000
v 0.93800 9.75000 -5.25000
v 0.93800 9.38000 -6.38000
v 0.93800 9.38000 -5.25000
v -0.93800 9.75000 -5.25000
v -0.93800 9.75000 -6.38000
v -0.93800 9.38000 -5.25000
v -0.93800 9.38000 -6.38000
v 0.93800 9.00000 -5.25000
v 0.93800 9.00000 -4.12000
v -0.93800 9.00000 -4.12000
v -0.93800 9.00000 -5.25000
v 1.12500 10.88000 -6.00000
v 1.12500 10.88000 -4.88000
v 1.12500 9.75000 -6.00000
v 1.12500 9.75000 -4.88000
v -1.12500 10.88000 -4.88000
v -1.12500 10.88000 -6.00000
v -1.12500 9.75000 -4.88000
v -1.12500 9.75000 -6.00000
v 0.93800 9.38000 -7.88000
v 0.93800 9.00000 -7.88000
v -0.93800 9.38000 -7.88000
v -0.93800 9.00000 -7.88000
v 0.75000 9.00000 -5.62000
v 0.75000 3.00000 -5.62000
v -0.75000 9.00000 -5.62000
v -0.75000 3.00000 -5.62000
v 1.13000 10.88000 -6.00000
v 1.13000 10.88000 -4.88000
v 1.13000 9.75000 -6.00000
v 1.13000 9.75000 -4.88000
v -1.13000 10.88000 -4.88000
v -1.13000 10.88000 -6.00000
v -1.13000 9.75000 -4.88000
v -1.13000 9.75000 -6.00000
v -0.37500 0.75000 -3.75000
v -0.37500 0.75000 -3.00000
v -0.37500 0.00000 -3.75000
v -0.37500 0.00000 -3.00000
v -1.50000 0.75000 -3.00000
v -1.50000 0.75000 -3.75000
v -1.50000 0.00000 -3.00000
v -1.50000 0.00000 -3.75000
v -0.37500 3.00000 -4.50000
v -0.37500 3.00000 -3.00000
v -0.37500 0.75000 -4.50000
v -1.50000 3.00000 -3.00000
v -1.50000 3.00000 -4.50000
v -1.50000 0.75000 -4.50000
v -0.37500 0.00000 -4.50000
v -1.50000 0.00000 -4.50000
v 1.50000 3.00000 -2.62000
v 1.50000 3.00000 1.12000
v 1.50000 1.88000 -2.62000
v 1.50000 1.88000 1.12000
v -1.50000 3.00000 1.12000
v -1.50000 3.00000 -2.62000
v -1.50000 1.88000 1.12000
v -1.50000 1.88000 -2.62000
v 1.50000 5.25000 -2.62000
v 1.50000 5.25000 1.12000
v -1.50000 5.25000 1.12000
v -1.50000 5.25000 -2.62000
v 1.50000 0.75000 -4.50000
v 1.50000 0.75000 -3.75000
v 1.50000 0.00000 -4.50000
v 1.50000 0.00000 -3.75000
v 0.37500 0.75000 -3.75000
v 0.37500 0.75000 -4.50000
v 0.37500 0.00000 -3.75000
v 0.37500 0.00000 -4.50000
v 1.50000 0.75000 -3.00000
v 1.50000 0.00000 -3.00000
v 0.37500 0.75000 -3.00000
v 0.37500 0.00000 -3.00000
v 1.50000 3.00000 -4.50000
v 1.50000 3.00000 -3.00000
v 0.37500 3.00000 -3.00000
v 0.37500 3.00000 -4.50000
v 1.87500 0.75000 -0.38000
v 1.87500 0.75000 0.75000
v 1.87500 0.00000 -0.38000
v 1.87500 0.00000 0.75000
v 0.37500 0.75000 0.75000
v 0.37500 0.75000 -0.38000
v 0.37500 0.00000 0.75000
v 0.37500 0.00000 -0.38000
v 1.87500 3.00000 -0.75000
v 1.87500 3.00000 0.75000
v 1.87500 0.75000 -0.75000
v 0.37500 3.00000 0.75000
v 0.37500 3.00000 -0.75000
v 0.37500 0.75000 -0.75000
v 1.87500 0.75000 -1.12000
v 1.87500 0.00000 -1.12000
v 0.37500 0.75000 -1.12000
v 0.37500 0.00000 -1.12000
vt 5.53125 -5.00000
vt 5.25000 -5.00000
vt 5.53125 -5.23438
vt 5.25000 -5.23438
vt 5.53125 -5.28125
vt 5.25000 -5.28125
vt 7.28125 -5.50000
vt 7.00000 -5.50000
vt 7.28125 -5.59375
vt 7.00000 -5.59375
vt 7.28125 -5.78125
vt 7.00000 -5.78125
vt 7.68750 -5.75000
vt 7.50000 -5.75000
vt 7.68750 -6.03125
vt 7.50000 -6.03125
vt 7.68750 -5.93750
vt 7.50000 -5.93750
vt 1.64062 -1.50000
vt 1.50000 -1.50000
vt 1.64062 -1.59375
vt 1.50000 -1.59375
vt 1.68750 -1.50000
vt 1.68750 -1.64062
vt 1.50000 -1.64062
vt 1.68750 -1.59375
vt 7.34375 -6.00000
vt 7.25000 -6.00000
vt 7.34375 -6.09375
vt 7.25000 -6.09375
vt 7.43750 -6.00000
vt 7.43750 -6.09375
vt 7.87500 0.25000
vt 7.50000 0.25000
vt 7.87500 0.15625
vt 7.50000 0.15625
vt 7.59375 0.25000
vt 7.59375 -0.12500
vt 7.50000 -0.12500
vt 7.59375 0.15625
vt 5.68750 -5.50000
vt 5.50000 -5.50000
vt 5.68750 -5.78125
vt 5.50000 -5.78125
vt 5.78125 -5.50000
vt 5.78125 -5.68750
vt 5.50000 -5.68750
vt 5.78125 -5.78125
vt 4.28125 -0.25000
vt 4.00000 -0.25000
vt 4.28125 -0.43750
vt 4.00000 -0.43750
vt 4.18750 -0.25000
vt 4.18750 -0.53125
vt 4.00000 -0.53125
vt 4.18750 -0.43750
vt 5.39062 -4.00000
vt 5.25000 -4.00000
vt 5.39062 -4.04688
vt 5.25000 -4.04688
vt 5.39062 -4.14062
vt 5.25000 -4.14062
vt 0.39062 -1.50000
vt 0.25000 -1.50000
vt 0.39062 -2.25000
vt 0.25000 -2.25000
vt 0.43750 -1.50000
vt 0.43750 -1.64062
vt 0.25000 -1.64062
vt 0.43750 -2.25000
vt 5.46875 -2.50000
vt 5.00000 -2.50000
vt 5.46875 -2.68750
vt 5.00000 -2.68750
vt 5.23438 -2.50000
vt 5.23438 -2.96875
vt 5.00000 -2.96875
vt 5.23438 -2.68750
vt 3.64062 -2.00000
vt 3.50000 -2.00000
vt 3.64062 -2.04688
vt 3.50000 -2.04688
vt 3.73437 -2.00000
vt 3.73437 -2.14062
vt 3.50000 -2.14062
vt 3.73437 -2.04688
vt 2.39062 -2.75000
vt 2.25000 -2.75000
vt 2.39062 -2.84375
vt 2.25000 -2.84375
vt 2.48437 -2.75000
vt 2.48437 -2.89062
vt 2.25000 -2.89062
vt 2.48437 -2.84375
vt 1.14062 -6.50000
vt 1.00000 -6.50000
vt 1.14062 -6.64062
vt 1.00000 -6.64062
vt 1.28125 -6.50000
vt 1.28125 -6.64062
vt 7.32812 -1.00000
vt 7.00000 -1.00000
vt 7.32812 -1.04688
vt 7.00000 -1.04688
vt 7.23438 -1.00000
vt 7.23438 -1.32812
vt 7.00000 -1.32812
vt 7.23438 -1.04688
vt 1.29688 -4.50000
vt 1.25000 -4.50000
vt 1.29688 -5.25000
vt 1.25000 -5.25000
vt 1.43750 -4.50000
vt 1.43750 -4.54688
vt 1.25000 -4.54688
vt 1.43750 -5.25000
vt 1.00000 1.00000
vt 0.00000 1.00000
vt 1.00000 0.00000
vt 0.00000 0.00000
vt 1.09375 -2.50000
vt 1.00000 -2.50000
vt 1.09375 -2.59375
vt 1.00000 -2.59375
vt 1.14062 -2.50000
vt 1.14062 -2.59375
vt 5.43750 -2.25000
vt 5.25000 -2.25000
vt 5.43750 -2.53125
vt 5.25000 -2.53125
vt 5.39062 -2.25000
vt 5.39062 -2.43750
vt 5.25000 -2.43750
vt 5.39062 -2.53125
vt 1.34375 -1.00000
vt 1.25000 -1.00000
vt 1.34375 -1.09375
vt 1.25000 -1.09375
vt 1.39062 -1.00000
vt 1.39062 -1.09375
vt 7.46875 -6.50000
vt 7.00000 -6.50000
vt 7.46875 -6.64062
vt 7.00000 -6.64062
vt 7.37500 -6.50000
vt 7.37500 -6.96875
vt 7.00000 -6.96875
vt 7.37500 -6.64062
vt 6.21875 -0.50000
vt 5.75000 -0.50000
vt 6.21875 -0.78125
vt 5.75000 -0.78125
vt 6.12500 -0.50000
vt 6.12500 -0.96875
vt 5.75000 -0.96875
vt 6.12500 -0.78125
vt 6.84375 -6.75000
vt 6.75000 -6.75000
vt 6.84375 -6.84375
vt 6.75000 -6.84375
vt 6.89062 -6.75000
vt 6.89062 -6.84375
vt 7.34375 -1.75000
vt 7.25000 -1.75000
vt 7.34375 -1.84375
vt 7.25000 -1.84375
vt 7.39062 -1.75000
vt 7.39062 -1.84375
vt 3.43750 -2.00000
vt 3.25000 -2.00000
vt 3.43750 -2.28125
vt 3.25000 -2.28125
vt 3.39062 -2.00000
vt 3.39062 -2.18750
vt 3.25000 -2.18750
vt 3.39062 -2.28125
vt 3.39062 -1.50000
vt 3.25000 -1.50000
vt 3.39062 -1.59375
vt 3.25000 -1.59375
vt 3.43750 -1.50000
vt 3.43750 -1.64062
vt 3.25000 -1.64062
vt 3.43750 -1.59375
vt 5.93750 -1.25000
vt 5.75000 -1.25000
vt 5.93750 -1.53125
vt 5.75000 -1.53125
vt 5.93750 -1.43750
vt 5.75000 -1.43750
vt 0.09375 -5.25000
vt 0.00000 -5.25000
vt 0.09375 -5.34375
vt 0.00000 -5.34375
vt 0.18750 -5.25000
vt 0.18750 -5.34375
vn 1.0000 0.0000 0.0000
vn 0.0000 1.0000 0.0000
vn 0.0000 0.0000 1.0000
vn -1.0000 0.0000 0.0000
vn 0.0000 -1.0000 0.0000
vn 0.0000 0.0000 -1.0000

o UpperTorso
usemtl c_f5cd30
f 1/1/1 2/2/1 3/3/1
f 3/3/1 2/2/1 4/4/1
f 5/1/2 2/2/2 6/5/2
f 6/5/2 2/2/2 1/6/2
f 2/1/3 5/2/3 4/3/3
f 4/3/3 5/2/3 7/4/3
f 5/1/4 6/2/4 7/3/4
f 7/3/4 6/2/4 8/4/4
f 8/1/5 3/2/5 7/5/5
f 7/5/5 3/2/5 4/6/5
f 6/1/6 1/2/6 8/3/6
f 8/3/6 1/2/6 3/4/6
usemtl c_d7c59a
f 3/7/1 4/8/1 9/9/1
f 9/9/1 4/8/1 10/10/1
f 7/7/2 4/8/2 8/11/2
f 8/11/2 4/8/2 3/12/2
f 4/7/3 7/8/3 10/9/3
f 10/9/3 7/8/3 11/10/3
f 7/7/4 8/8/4 11/9/4
f 11/9/4 8/8/4 12/10/4
f 12/7/5 9/8/5 11/11/5
f 11/11/5 9/8/5 10/12/5
f 8/7/6 3/8/6 12/9/6
f 12/9/6 3/8/6 9/10/6
o LeftUpperLeg
usemtl c_f5cd30
f 13/13/1 14/14/1 15/15/1
f 15/15/1 14/14/1 16/16/1
f 17/13/2 14/14/2 18/17/2
f 18/17/2 14/14/2 13/18/2
f 14/13/3 17/14/3 16/15/3
f 16/15/3 17/14/3 19/16/3
f 17/13/4 18/14/4 19/15/4
f 19/15/4 18/14/4 20/16/4
f 20/13/5 15/14/5 19/17/5
f 19/17/5 15/14/5 16/18/5
f 18/13/6 13/14/6 20/15/6
f 20/15/6 13/14/6 15/16/6
f 21/19/1 16/20/1 22/21/1
f 22/21/1 16/20/1 23/22/1
f 19/23/2 16/20/2 24/24/2
f 24/24/2 16/20/2 21/25/2
f 16/23/3 19/20/3 23/26/3
f 23/26/3 19/20/3 25/22/3
f 19/19/4 24/20/4 25/21/4
f 25/21/4 24/20/4 26/22/4
f 26/23/5 22/20/5 25/24/5
f 25/24/5 22/20/5 23/25/5
f 24/23/6 21/20/6 26/26/6
f 26/26/6 21/20/6 22/22/6
usemtl c_1b2a35
f 27/27/1 21/28/1 28/29/1
f 28/29/1 21/28/1 22/30/1
f 24/31/2 21/28/2 29/32/2
f 29/32/2 21/28/2 27/30/2
f 21/31/3 24/28/3 22/32/3
f 22/32/3 24/28/3 26/30/3
f 24/27/4 29/28/4 26/29/4
f 26/29/4 29/28/4 30/30/4
f 30/31/5 28/28/5 26/32/5
f 26/32/5 28/28/5 22/30/5
f 29/31/6 27/28/6 30/32/6
f 30/32/6 27/28/6 28/30/6
o Tail
usemtl c_f5cd30
f 31/33/1 32/34/1 33/35/1
f 33/35/1 32/34/1 34/36/1
f 35/37/2 32/34/2 36/38/2
f 36/38/2 32/34/2 31/39/2
f 32/37/3 35/34/3 34/40/3
f 34/40/3 35/34/3 37/36/3
f 35/33/4 36/34/4 37/35/4
f 37/35/4 36/34/4 38/36/4
f 38/37/5 33/34/5 37/38/5
f 37/38/5 33/34/5 34/39/5
f 36/37/6 31/34/6 38/40/6
f 38/40/6 31/34/6 33/36/6
f 39/41/1 40/42/1 41/43/1
f 41/43/1 40/42/1 42/44/1
f 43/45/2 40/42/2 44/46/2
f 44/46/2 40/42/2 39/47/2
f 40/45/3 43/42/3 42/48/3
f 42/48/3 43/42/3 45/44/3
f 43/41/4 44/42/4 45/43/4
f 45/43/4 44/42/4 46/44/4
f 46/45/5 41/42/5 45/46/5
f 45/46/5 41/42/5 42/47/5
f 44/45/6 39/42/6 46/48/6
f 46/48/6 39/42/6 41/44/6
f 47/49/1 48/50/1 49/51/1
f 49/51/1 48/50/1 50/52/1
f 51/53/2 48/50/2 52/54/2
f 52/54/2 48/50/2 47/55/2
f 48/53/3 51/50/3 50/56/3
f 50/56/3 51/50/3 53/52/3
f 51/49/4 52/50/4 53/51/4
f 53/51/4 52/50/4 54/52/4
f 54/53/5 49/50/5 53/54/5
f 53/54/5 49/50/5 50/55/5
f 52/53/6 47/50/6 54/56/6
f 54/56/6 47/50/6 49/52/6
o Head
usemtl c_c4281c
f 55/57/1 56/58/1 57/59/1
f 57/59/1 56/58/1 58/60/1
f 59/57/2 56/58/2 60/61/2
f 60/61/2 56/58/2 55/62/2
f 56/57/3 59/58/3 58/59/3
f 58/59/3 59/58/3 61/60/3
f 59/57/4 60/58/4 61/59/4
f 61/59/4 60/58/4 62/60/4
f 62/57/5 57/58/5 61/61/5
f 61/61/5 57/58/5 58/62/5
f 60/57/6 55/58/6 62/59/6
f 62/59/6 55/58/6 57/60/6
usemtl c_f5cd30
f 63/63/1 64/64/1 65/65/1
f 65/65/1 64/64/1 66/66/1
f 67/67/2 64/64/2 68/68/2
f 68/68/2 64/64/2 63/69/2
f 64/67/3 67/64/3 66/70/3
f 66/70/3 67/64/3 69/66/3
f 67/63/4 68/64/4 69/65/4
f 69/65/4 68/64/4 70/66/4
f 70/67/5 65/64/5 69/68/5
f 69/68/5 65/64/5 66/69/5
f 68/67/6 63/64/6 70/70/6
f 70/70/6 63/64/6 65/66/6
f 71/71/1 72/72/1 73/73/1
f 73/73/1 72/72/1 74/74/1
f 75/75/2 72/72/2 76/76/2
f 76/76/2 72/72/2 71/77/2
f 72/75/3 75/72/3 74/78/3
f 74/78/3 75/72/3 77/74/3
f 75/71/4 76/72/4 77/73/4
f 77/73/4 76/72/4 78/74/4
f 78/75/5 73/72/5 77/76/5
f 77/76/5 73/72/5 74/77/5
f 76/75/6 71/72/6 78/78/6
f 78/78/6 71/72/6 73/74/6
f 79/79/1 80/80/1 81/81/1
f 81/81/1 80/80/1 82/82/1
f 83/83/2 80/80/2 84/84/2
f 84/84/2 80/80/2 79/85/2
f 80/83/3 83/80/3 82/86/3
f 82/86/3 83/80/3 85/82/3
f 83/79/4 84/80/4 85/81/4
f 85/81/4 84/80/4 86/82/4
f 86/83/5 81/80/5 85/84/5
f 85/84/5 81/80/5 82/85/5
f 84/83/6 79/80/6 86/86/6
f 86/86/6 79/80/6 81/82/6
f 80/87/1 74/88/1 87/89/1
f 87/89/1 74/88/1 88/90/1
f 77/91/2 74/88/2 83/92/2
f 83/92/2 74/88/2 80/93/2
f 74/91/3 77/88/3 88/94/3
f 88/94/3 77/88/3 89/90/3
f 77/87/4 83/88/4 89/89/4
f 89/89/4 83/88/4 90/90/4
f 90/91/5 87/88/5 89/92/5
f 89/92/5 87/88/5 88/93/5
f 83/91/6 80/88/6 90/94/6
f 90/94/6 80/88/6 87/90/6
usemtl c_f8f8f8
f 91/95/1 92/96/1 93/97/1
f 93/97/1 92/96/1 94/98/1
f 95/99/2 92/96/2 96/100/2
f 96/100/2 92/96/2 91/98/2
f 92/99/3 95/96/3 94/100/3
f 94/100/3 95/96/3 97/98/3
f 95/95/4 96/96/4 97/97/4
f 97/97/4 96/96/4 98/98/4
f 98/99/5 93/96/5 97/100/5
f 97/100/5 93/96/5 94/98/5
f 96/99/6 91/96/6 98/100/6
f 98/100/6 91/96/6 93/98/6
usemtl c_d7c59a
f 99/101/1 82/102/1 100/103/1
f 100/103/1 82/102/1 87/104/1
f 85/105/2 82/102/2 101/106/2
f 101/106/2 82/102/2 99/107/2
f 82/105/3 85/102/3 87/108/3
f 87/108/3 85/102/3 90/104/3
f 85/101/4 101/102/4 90/103/4
f 90/103/4 101/102/4 102/104/4
f 102/105/5 100/102/5 90/106/5
f 90/106/5 100/102/5 87/107/5
f 101/105/6 99/102/6 102/108/6
f 102/108/6 99/102/6 100/104/6
f 103/109/1 63/110/1 104/111/1
f 104/111/1 63/110/1 65/112/1
f 68/113/2 63/110/2 105/114/2
f 105/114/2 63/110/2 103/115/2
f 63/113/3 68/110/3 65/116/3
f 65/116/3 68/110/3 70/112/3
f 68/109/4 105/110/4 70/111/4
f 70/111/4 105/110/4 106/112/4
f 106/113/5 104/110/5 70/114/5
f 70/114/5 104/110/5 65/115/5
f 105/113/6 103/110/6 106/116/6
f 106/116/6 103/110/6 104/112/6
o Head_decal1
usemtl head_decal1
f 107/117/1 108/118/1 109/119/1
f 109/119/1 108/118/1 110/120/1
o Head_decal2
usemtl head_decal2
f 111/117/4 112/118/4 113/119/4
f 113/119/4 112/118/4 114/120/4
o LeftUpperArm
usemtl c_f5cd30
f 115/121/1 116/122/1 117/123/1
f 117/123/1 116/122/1 118/124/1
f 119/125/2 116/122/2 120/126/2
f 120/126/2 116/122/2 115/124/2
f 116/125/3 119/122/3 118/126/3
f 118/126/3 119/122/3 121/124/3
f 119/121/4 120/122/4 121/123/4
f 121/123/4 120/122/4 122/124/4
f 122/125/5 117/122/5 121/126/5
f 121/126/5 117/122/5 118/124/5
f 120/125/6 115/122/6 122/126/6
f 122/126/6 115/122/6 117/124/6
f 123/127/1 124/128/1 125/129/1
f 125/129/1 124/128/1 116/130/1
f 126/131/2 124/128/2 127/132/2
f 127/132/2 124/128/2 123/133/2
f 124/131/3 126/128/3 116/134/3
f 116/134/3 126/128/3 119/130/3
f 126/127/4 127/128/4 119/129/4
f 119/129/4 127/128/4 128/130/4
f 128/131/5 125/128/5 119/132/5
f 119/132/5 125/128/5 116/133/5
f 127/131/6 123/128/6 128/134/6
f 128/134/6 123/128/6 125/130/6
usemtl c_1b2a35
f 125/135/1 115/136/1 129/137/1
f 129/137/1 115/136/1 117/138/1
f 120/139/2 115/136/2 128/140/2
f 128/140/2 115/136/2 125/138/2
f 115/139/3 120/136/3 117/140/3
f 117/140/3 120/136/3 122/138/3
f 120/135/4 128/136/4 122/137/4
f 122/137/4 128/136/4 130/138/4
f 130/139/5 129/136/5 122/140/5
f 122/140/5 129/136/5 117/138/5
f 128/139/6 125/136/6 130/140/6
f 130/140/6 125/136/6 129/138/6
o LowerTorso
usemtl c_d7c59a
f 131/141/1 132/142/1 133/143/1
f 133/143/1 132/142/1 134/144/1
f 135/145/2 132/142/2 136/146/2
f 136/146/2 132/142/2 131/147/2
f 132/145/3 135/142/3 134/148/3
f 134/148/3 135/142/3 137/144/3
f 135/141/4 136/142/4 137/143/4
f 137/143/4 136/142/4 138/144/4
f 138/145/5 133/142/5 137/146/5
f 137/146/5 133/142/5 134/147/5
f 136/145/6 131/142/6 138/148/6
f 138/148/6 131/142/6 133/144/6
usemtl c_f5cd30
f 139/149/1 140/150/1 131/151/1
f 131/151/1 140/150/1 132/152/1
f 141/153/2 140/150/2 142/154/2
f 142/154/2 140/150/2 139/155/2
f 140/153/3 141/150/3 132/156/3
f 132/156/3 141/150/3 135/152/3
f 141/149/4 142/150/4 135/151/4
f 135/151/4 142/150/4 136/152/4
f 136/153/5 131/150/5 135/154/5
f 135/154/5 131/150/5 132/155/5
f 142/153/6 139/150/6 136/156/6
f 136/156/6 139/150/6 131/152/6
o RightUpperArm
usemtl c_1b2a35
f 143/157/1 144/158/1 145/159/1
f 145/159/1 144/158/1 146/160/1
f 147/161/2 144/158/2 148/162/2
f 148/162/2 144/158/2 143/160/2
f 144/161/3 147/158/3 146/162/3
f 146/162/3 147/158/3 149/160/3
f 147/157/4 148/158/4 149/159/4
f 149/159/4 148/158/4 150/160/4
f 150/161/5 145/158/5 149/162/5
f 149/162/5 145/158/5 146/160/5
f 148/161/6 143/158/6 150/162/6
f 150/162/6 143/158/6 145/160/6
usemtl c_f5cd30
f 144/163/1 151/164/1 146/165/1
f 146/165/1 151/164/1 152/166/1
f 153/167/2 151/164/2 147/168/2
f 147/168/2 151/164/2 144/166/2
f 151/167/3 153/164/3 152/168/3
f 152/168/3 153/164/3 154/166/3
f 153/163/4 147/164/4 154/165/4
f 154/165/4 147/164/4 149/166/4
f 149/167/5 146/164/5 154/168/5
f 154/168/5 146/164/5 152/166/5
f 147/167/6 144/164/6 149/168/6
f 149/168/6 144/164/6 146/166/6
f 155/169/1 156/170/1 143/171/1
f 143/171/1 156/170/1 151/172/1
f 157/173/2 156/170/2 158/174/2
f 158/174/2 156/170/2 155/175/2
f 156/173/3 157/170/3 151/176/3
f 151/176/3 157/170/3 153/172/3
f 157/169/4 158/170/4 153/171/4
f 153/171/4 158/170/4 148/172/4
f 148/173/5 143/170/5 153/174/5
f 153/174/5 143/170/5 151/175/5
f 158/173/6 155/170/6 148/176/6
f 148/176/6 155/170/6 143/172/6
o RightUpperLeg
usemtl c_f5cd30
f 159/177/1 160/178/1 161/179/1
f 161/179/1 160/178/1 162/180/1
f 163/181/2 160/178/2 164/182/2
f 164/182/2 160/178/2 159/183/2
f 160/181/3 163/178/3 162/184/3
f 162/184/3 163/178/3 165/180/3
f 163/177/4 164/178/4 165/179/4
f 165/179/4 164/178/4 166/180/4
f 166/181/5 161/178/5 165/182/5
f 165/182/5 161/178/5 162/183/5
f 164/181/6 159/178/6 166/184/6
f 166/184/6 159/178/6 161/180/6
f 167/185/1 168/186/1 169/187/1
f 169/187/1 168/186/1 160/188/1
f 170/185/2 168/186/2 171/189/2
f 171/189/2 168/186/2 167/190/2
f 168/185/3 170/186/3 160/187/3
f 160/187/3 170/186/3 163/188/3
f 170/185/4 171/186/4 163/187/4
f 163/187/4 171/186/4 172/188/4
f 172/185/5 169/186/5 163/189/5
f 163/189/5 169/186/5 160/190/5
f 171/185/6 167/186/6 172/187/6
f 172/187/6 167/186/6 169/188/6
usemtl c_1b2a35
f 173/191/1 159/192/1 174/193/1
f 174/193/1 159/192/1 161/194/1
f 164/195/2 159/192/2 175/196/2
f 175/196/2 159/192/2 173/194/2
f 159/195/3 164/192/3 161/196/3
f 161/196/3 164/192/3 166/194/3
f 164/191/4 175/192/4 166/193/4
f 166/193/4 175/192/4 176/194/4
f 176/195/5 174/192/5 166/196/5
f 166/196/5 174/192/5 161/194/5
f 175/195/6 173/192/6 176/196/6
f 176/196/6 173/192/6 174/194/6
