# Roblox asset pack: lobby_platform (map). Exported from Roblox Studio with Export Selection, then split/renamed/re-centred by tools/process_export.py. Units: studs (1 stud = 1 unit). +Y up. Pivot (bottom_centre) at the origin.
mtllib lobby_platform.mtl

v 20.00000 2.00000 -20.00000
v 20.00000 2.00000 20.00000
v 20.00000 0.00000 -20.00000
v 20.00000 0.00000 20.00000
v -20.00000 2.00000 20.00000
v -20.00000 0.00000 20.00000
v -20.00000 2.00000 -20.00000
v -20.00000 0.00000 -20.00000
v 21.00000 2.20000 20.00000
v 21.00000 2.20000 21.00000
v 21.00000 0.00000 20.00000
v 21.00000 0.00000 21.00000
v -21.00000 2.20000 21.00000
v -21.00000 2.20000 20.00000
v -21.00000 0.00000 21.00000
v -21.00000 0.00000 20.00000
v 21.00000 2.20000 -21.00000
v 21.00000 2.20000 -20.00000
v 21.00000 0.00000 -21.00000
v 21.00000 0.00000 -20.00000
v -21.00000 2.20000 -20.00000
v -21.00000 2.20000 -21.00000
v -21.00000 0.00000 -20.00000
v -21.00000 0.00000 -21.00000
v 20.00000 2.20000 20.00000
v 20.00000 2.20000 -20.00000
v -20.00000 2.20000 -20.00000
v -20.00000 2.20000 20.00000
vt 9.25000 1.00000
vt 4.25000 1.00000
vt 9.25000 0.75000
vt 4.25000 0.75000
vt 0.00000 40.00000
vt 40.00000 40.00000
vt 0.00000 0.00000
vt 40.00000 0.00000
vt 4.87500 -4.25000
vt 4.75000 -4.25000
vt 4.87500 -4.52500
vt 4.75000 -4.52500
vt 10.00000 -4.25000
vt 10.00000 -4.37500
vt 4.75000 -4.37500
vt 10.00000 -4.52500
vt 7.12500 -4.50000
vt 7.00000 -4.50000
vt 7.12500 -4.77500
vt 7.00000 -4.77500
vt 12.25000 -4.50000
vt 12.25000 -4.62500
vt 7.00000 -4.62500
vt 12.25000 -4.77500
vt 10.00000 -0.75000
vt 5.00000 -0.75000
vt 10.00000 -1.02500
vt 5.00000 -1.02500
vt 5.12500 -0.75000
vt 5.12500 -5.75000
vt 5.00000 -5.75000
vt 5.12500 -1.02500
vt 7.75000 -2.25000
vt 2.75000 -2.25000
vt 7.75000 -2.52500
vt 2.75000 -2.52500
vt 2.87500 -2.25000
vt 2.87500 -7.25000
vt 2.75000 -7.25000
vt 2.87500 -2.52500
vn 1.0000 0.0000 0.0000
vn 0.0000 0.0000 1.0000
vn -1.0000 0.0000 0.0000
vn 0.0000 0.0000 -1.0000
vn 0.0000 1.0000 0.0000
vn 0.0000 -1.0000 0.0000

o Floor
usemtl floor
f 1/1/1 2/2/1 3/3/1
f 3/3/1 2/2/1 4/4/1
f 2/1/2 5/2/2 4/3/2
f 4/3/2 5/2/2 6/4/2
f 5/1/3 7/2/3 6/3/3
f 6/3/3 7/2/3 8/4/3
f 7/1/4 1/2/4 8/3/4
f 8/3/4 1/2/4 3/4/4
usemtl floor_studs
f 5/5/5 2/6/5 7/7/5
f 7/7/5 2/6/5 1/8/5
usemtl floor_inlet
f 8/7/6 3/8/6 6/5/6
f 6/5/6 3/8/6 4/6/6
o TrimBack
usemtl trimback
f 9/9/1 10/10/1 11/11/1
f 11/11/1 10/10/1 12/12/1
f 13/13/5 10/10/5 14/14/5
f 14/14/5 10/10/5 9/15/5
f 10/13/2 13/10/2 12/16/2
f 12/16/2 13/10/2 15/12/2
f 13/9/3 14/10/3 15/11/3
f 15/11/3 14/10/3 16/12/3
f 16/13/6 11/10/6 15/14/6
f 15/14/6 11/10/6 12/15/6
f 14/13/4 9/10/4 16/16/4
f 16/16/4 9/10/4 11/12/4
o TrimFront
usemtl trimfront
f 17/17/1 18/18/1 19/19/1
f 19/19/1 18/18/1 20/20/1
f 21/21/5 18/18/5 22/22/5
f 22/22/5 18/18/5 17/23/5
f 18/21/2 21/18/2 20/24/2
f 20/24/2 21/18/2 23/20/2
f 21/17/3 22/18/3 23/19/3
f 23/19/3 22/18/3 24/20/3
f 24/21/6 19/18/6 23/22/6
f 23/22/6 19/18/6 20/23/6
f 22/21/4 17/18/4 24/24/4
f 24/24/4 17/18/4 19/20/4
o TrimRight
usemtl trimright
f 18/25/1 9/26/1 20/27/1
f 20/27/1 9/26/1 11/28/1
f 25/29/5 9/26/5 26/30/5
f 26/30/5 9/26/5 18/31/5
f 9/29/2 25/26/2 11/32/2
f 11/32/2 25/26/2 4/28/2
f 25/25/3 26/26/3 4/27/3
f 4/27/3 26/26/3 3/28/3
f 3/29/6 20/26/6 4/30/6
f 4/30/6 20/26/6 11/31/6
f 26/29/4 18/26/4 3/32/4
f 3/32/4 18/26/4 20/28/4
o TrimLeft
usemtl trimleft
f 27/33/1 28/34/1 8/35/1
f 8/35/1 28/34/1 6/36/1
f 14/37/5 28/34/5 21/38/5
f 21/38/5 28/34/5 27/39/5
f 28/37/2 14/34/2 6/40/2
f 6/40/2 14/34/2 16/36/2
f 14/33/3 21/34/3 16/35/3
f 16/35/3 21/34/3 23/36/3
f 23/37/6 8/34/6 16/38/6
f 16/38/6 8/34/6 6/39/6
f 21/37/4 27/34/4 23/40/4
f 23/40/4 27/34/4 8/36/4
