# Roblox asset pack: animal_pony (creatures), from the Studio model "Pony". Exported with Export Selection, split by tools/build_creatures.py: one object per rigid body. Units: studs. +Y up, front faces -Z, pivot (bottom centre) at the origin.
mtllib animal_pony.mtl

v 3.37110 0.45000 0.18000
v 3.46560 0.80000 -0.18000
v 3.46560 0.80000 0.18000
v 3.37110 0.45000 -0.18000
v 2.90860 1.31000 -0.51000
v 2.80980 1.82000 0.41000
v 2.90860 1.31000 0.51000
v 2.80980 1.82000 -0.41000
v 2.49930 2.62000 0.41000
v 2.49930 2.62000 -0.41000
v -2.92050 5.03000 0.37000
v -2.43690 5.32000 0.37000
v -2.43690 5.32000 0.00000
v -2.92050 5.03000 0.00000
v -2.92050 5.03000 -0.37000
v -2.43690 5.32000 -0.37000
v 1.47430 0.77000 0.42000
v 1.64050 1.10000 1.09000
v 1.47430 0.77000 1.09000
v 1.64050 1.10000 0.42000
v 1.47430 0.77000 -0.42000
v 1.64050 1.10000 -1.09000
v 1.64050 1.10000 -0.42000
v 1.47430 0.77000 -1.09000
v 2.99600 1.15000 -0.46000
v 2.99600 1.15000 0.46000
v 1.83670 0.99000 0.92000
v 1.83670 0.99000 -0.92000
v 1.83670 2.09000 0.92000
v 1.83670 2.09000 -0.92000
v 1.38030 0.18000 0.47000
v 1.38030 0.18000 1.04000
v 1.38030 0.18000 -0.47000
v 1.38030 0.18000 -1.04000
v 1.64050 1.90000 1.09000
v 1.64050 1.90000 0.42000
v 1.64050 1.90000 -1.09000
v 1.64050 1.90000 -0.42000
v -1.40690 0.00000 0.43000
v -0.77610 0.00000 1.08000
v -1.40690 0.00000 1.08000
v -0.77610 0.00000 0.43000
v 0.81630 0.00000 0.43000
v 1.44700 0.00000 1.08000
v 0.81630 0.00000 1.08000
v 1.44700 0.00000 0.43000
v -1.40690 0.00000 -0.43000
v -0.77610 0.00000 -1.08000
v -0.77610 0.00000 -0.43000
v -1.40690 0.00000 -1.08000
v 0.81630 0.00000 -0.43000
v 0.81630 0.00000 -1.08000
v 1.44700 0.00000 -1.08000
v 1.44700 0.00000 -0.43000
v 2.50990 0.38000 0.46000
v 2.50990 0.38000 -0.46000
v -1.52060 5.06000 0.00000
v -1.52060 5.06000 0.37000
v -1.52060 5.06000 -0.37000
v -3.46560 3.34000 0.41000
v -3.46560 3.46000 0.29000
v -3.46560 3.34000 0.26000
v -3.46560 3.38000 0.19000
v -3.46560 3.34000 0.11000
v -3.46560 3.34000 -0.11000
v -3.46560 3.38000 -0.19000
v -3.46560 3.46000 -0.29000
v -3.46560 3.34000 -0.26000
v -3.46560 3.34000 -0.41000
v -1.34450 0.18000 0.47000
v -0.83860 0.18000 1.04000
v -1.34450 0.18000 1.04000
v -0.83860 0.18000 0.47000
v 0.87440 0.18000 0.47000
v 0.87440 0.18000 1.04000
v -1.34450 0.18000 -0.47000
v -1.34450 0.18000 -1.04000
v -0.83860 0.18000 -1.04000
v -0.83860 0.18000 -0.47000
v 0.87440 0.18000 -0.47000
v 0.87440 0.18000 -1.04000
v -1.85230 4.81000 0.83000
v -2.18320 4.89000 0.62000
v -2.20950 4.87000 0.78000
v -1.82610 4.83000 0.67000
v -2.18320 4.89000 -0.62000
v -1.85230 4.81000 -0.83000
v -2.20950 4.87000 -0.78000
v -1.82610 4.83000 -0.67000
v -3.46530 3.34000 0.27000
v -3.43290 2.83000 0.37000
v -3.45070 3.11000 0.26000
v -3.44970 3.09000 0.19000
v -3.45070 3.11000 -0.11000
v -3.45070 3.11000 0.11000
v -3.44970 3.09000 -0.19000
v -3.46530 3.34000 0.10000
v -3.46530 3.34000 -0.10000
v -3.41200 3.34000 0.27000
v -3.40200 3.09000 0.19000
v -3.41200 3.11000 0.26000
v -3.41200 3.34000 0.10000
v -3.41200 3.11000 0.11000
v -3.40200 3.38000 0.19000
v -3.45070 3.11000 -0.26000
v -3.43290 2.83000 -0.36000
v -3.41200 3.34000 -0.10000
v -3.40200 3.09000 -0.19000
v -3.41200 3.11000 -0.11000
v -3.41200 3.34000 -0.27000
v -3.41200 3.11000 -0.26000
v -3.40200 3.38000 -0.19000
v -3.46530 3.34000 -0.27000
v 1.41690 0.26000 1.05000
v 1.41690 0.26000 0.46000
v 1.41690 0.26000 -1.05000
v 1.41690 0.26000 -0.46000
v -3.36580 2.78000 0.31000
v -3.36580 2.78000 -0.30000
v -3.36580 2.69000 0.22000
v -3.36580 2.69000 -0.21000
v -3.01640 4.49000 0.37000
v -3.01640 4.49000 0.00000
v -3.01640 4.49000 -0.37000
v -2.37570 4.57000 0.72000
v -2.33130 4.60000 0.45000
v -2.37570 4.57000 -0.72000
v -2.33130 4.60000 -0.45000
v 0.19220 0.72000 0.92000
v 0.19220 0.72000 -0.92000
v -3.00240 3.87000 0.21000
v -3.00240 3.57000 0.45000
v -3.00240 3.87000 0.45000
v -3.00240 3.57000 0.21000
v -3.00240 3.87000 -0.21000
v -3.00240 3.57000 -0.45000
v -3.00240 3.57000 -0.21000
v -3.00240 3.87000 -0.45000
v -2.97990 3.98000 0.52000
v -2.97990 3.53000 0.16000
v -2.97990 3.53000 0.52000
v -2.97990 3.98000 0.16000
v -2.97990 3.98000 -0.52000
v -2.97990 3.53000 -0.16000
v -2.97990 3.98000 -0.16000
v -2.97990 3.53000 -0.52000
v 1.37450 2.55000 -0.92000
v 1.37450 2.55000 0.92000
v -2.90020 3.92000 0.75000
v -2.90020 2.64000 0.53000
v -2.90020 2.85000 0.75000
v -2.90020 4.14000 0.53000
v -2.90020 4.14000 -0.53000
v -2.90020 2.64000 -0.53000
v -2.90020 2.85000 -0.75000
v -2.90020 3.92000 -0.75000
v -0.94840 0.72000 -0.92000
v -0.94840 0.72000 0.92000
v -1.62790 4.14000 0.53000
v -1.62790 4.14000 -0.53000
v -1.62790 3.92000 -0.75000
v -1.62790 3.92000 0.75000
v 1.80500 2.19000 -0.36000
v 1.80500 2.19000 0.36000
v 1.52680 2.06000 0.27000
v 1.52680 2.06000 -0.27000
v -1.74670 1.13000 0.92000
v -1.74670 1.13000 -0.92000
v -2.87210 3.98000 0.52000
v -2.87210 3.98000 0.16000
v -2.87210 3.98000 -0.16000
v -2.87210 3.98000 -0.52000
v 1.23480 1.93000 0.21000
v 1.23480 1.93000 -0.21000
v 1.76100 2.90000 -0.36000
v 1.76100 2.90000 0.36000
v -2.92950 3.87000 0.21000
v -2.92950 3.87000 0.45000
v -2.92950 3.87000 -0.21000
v -2.92950 3.87000 -0.45000
v -2.30520 3.87000 0.58000
v -2.00400 3.82000 0.67000
v -1.99720 3.82000 0.63000
v -2.31190 3.86000 0.62000
v -2.30520 3.87000 -0.58000
v -2.00400 3.82000 -0.67000
v -2.31190 3.86000 -0.62000
v -1.99720 3.82000 -0.63000
v -1.42160 4.53000 0.37000
v -0.98080 4.12000 0.37000
v -0.98080 4.12000 0.00000
v -1.42160 4.53000 0.00000
v -1.42160 4.53000 -0.37000
v -0.98080 4.12000 -0.37000
v -2.41280 3.78000 0.59000
v -2.37710 3.81000 0.38000
v -1.42810 0.93000 -1.09000
v -0.79360 0.79000 -1.06000
v -1.39440 0.78000 -1.06000
v -0.69830 1.00000 -1.09000
v -1.39440 0.78000 1.06000
v -0.79360 0.79000 1.06000
v -1.42810 0.93000 1.09000
v -0.69830 1.00000 1.09000
v -2.41280 3.78000 -0.59000
v -2.37710 3.81000 -0.38000
v 0.70330 0.77000 1.09000
v 0.70330 0.77000 -1.09000
v -1.44730 1.42000 -1.12000
v -0.74450 1.12000 -1.10000
v -1.43960 1.12000 -1.10000
v -0.73570 1.42000 -1.12000
v -1.43960 1.12000 1.10000
v -0.74450 1.12000 1.10000
v -1.44730 1.42000 1.12000
v -0.73570 1.42000 1.12000
v -1.34760 2.00000 -1.12000
v -0.83540 2.00000 -1.12000
v -1.34760 2.00000 1.12000
v -0.83540 2.00000 1.12000
v -2.87670 3.07000 0.59000
v -1.64790 1.36000 -0.59000
v -1.64790 1.36000 0.59000
v -2.87670 3.07000 -0.59000
v 0.65840 1.10000 -1.09000
v 0.65840 1.54000 -1.09000
v 0.87850 2.04000 -1.09000
v 0.65840 1.10000 1.09000
v 0.65840 1.54000 1.09000
v 0.87850 2.04000 1.09000
v -1.86350 4.48000 0.75000
v -1.87030 4.47000 0.79000
v -1.86350 4.48000 -0.75000
v -1.87030 4.47000 -0.79000
v -0.06550 2.37000 0.00000
v -0.12490 2.93000 0.37000
v -0.06550 2.37000 0.37000
v -0.12490 2.93000 0.00000
v -0.06550 2.37000 -0.37000
v -0.12490 2.93000 -0.37000
v -0.48870 1.59000 0.59000
v -0.48870 1.59000 -0.59000
v -0.79360 0.79000 0.45000
v -0.69830 1.00000 0.42000
v -0.79360 0.79000 -0.45000
v -0.69830 1.00000 -0.42000
v -2.58910 3.46000 0.29000
v -2.58910 3.46000 -0.29000
v -0.51440 1.66000 0.00000
v -0.51440 1.66000 0.37000
v -0.51440 1.66000 -0.37000
v -1.71750 3.31000 0.59000
v -1.71750 3.31000 -0.59000
v -1.74670 2.55000 0.92000
v -1.74670 2.55000 -0.92000
v -2.58910 3.34000 -0.41000
v -2.58910 3.34000 0.41000
v -0.79060 3.29000 0.37000
v -0.79060 3.29000 0.00000
v -0.79060 3.29000 -0.37000
v 1.96970 0.93000 0.51000
v 1.96970 0.93000 -0.51000
v -1.37680 0.26000 -1.05000
v -0.80620 0.26000 -1.05000
v 0.84640 0.26000 -1.05000
v -1.37680 0.26000 1.05000
v -0.80620 0.26000 1.05000
v 0.84640 0.26000 1.05000
v -1.62790 2.85000 -0.75000
v -1.62790 2.85000 0.75000
v -2.15660 4.76000 -0.77000
v -2.28030 4.54000 -0.73000
v -1.77090 4.47000 0.81000
v -1.93080 4.73000 0.81000
v -2.15660 4.76000 0.77000
v -2.28030 4.54000 0.73000
v -1.93080 4.73000 -0.81000
v -1.77090 4.47000 -0.81000
v -1.92400 4.73000 0.77000
v -2.14990 4.77000 0.73000
v -2.27350 4.54000 0.69000
v -1.92400 4.73000 -0.77000
v -2.27350 4.54000 -0.69000
v -2.14990 4.77000 -0.73000
v -1.39440 0.78000 0.45000
v -1.42810 0.93000 0.42000
v -1.39440 0.78000 -0.45000
v -1.42810 0.93000 -0.42000
v -2.78360 4.09000 0.37000
v -2.78360 4.09000 0.00000
v -2.78360 4.09000 -0.37000
v -1.92690 3.71000 0.66000
v -1.92690 3.71000 -0.66000
v -2.87210 3.53000 -0.52000
v -2.87210 3.53000 0.52000
v -2.92950 3.57000 0.45000
v -2.92950 3.57000 -0.45000
v -2.58910 2.76000 -0.41000
v 1.87980 2.07000 -0.41000
v 1.99720 1.66000 -0.41000
v -0.74450 1.12000 0.42000
v -0.73570 1.42000 0.40000
v 1.87980 2.07000 0.41000
v 1.99720 1.66000 0.41000
v -0.74450 1.12000 -0.42000
v -0.73570 1.42000 -0.40000
v -1.43960 1.12000 0.42000
v -1.43960 1.12000 -0.42000
v -1.44730 1.42000 0.40000
v -1.44730 1.42000 -0.40000
v -2.63260 2.83000 0.37000
v -1.62790 2.64000 0.53000
v -1.62790 2.64000 -0.53000
v -2.69800 2.78000 0.31000
v -2.69800 2.69000 0.22000
v -2.63260 2.72000 0.27000
v -1.72640 4.51000 0.55000
v -1.72640 4.51000 -0.55000
v -0.83540 2.00000 0.40000
v -0.83540 2.00000 -0.40000
v -2.66160 2.72000 -0.34000
v -1.34760 2.00000 0.40000
v -1.34760 2.00000 -0.40000
v -0.80620 0.26000 0.46000
v -0.80620 0.26000 -0.46000
v -2.69800 2.69000 -0.21000
v -1.37680 0.26000 0.46000
v -1.37680 0.26000 -0.46000
v 0.87850 2.04000 0.42000
v 0.87850 2.04000 -0.42000
v 1.23370 2.50000 -0.27000
v 1.00460 2.28000 -0.21000
v 1.23370 2.50000 0.27000
v 1.00460 2.28000 0.21000
v -2.87210 3.53000 0.16000
v -2.87210 3.53000 -0.16000
v -2.92950 3.57000 0.21000
v -2.92950 3.57000 -0.21000
v 0.70330 0.77000 0.42000
v 0.70330 0.77000 -0.42000
v 0.65840 1.10000 0.42000
v 0.65840 1.54000 0.42000
v 0.65840 1.10000 -0.42000
v 0.65840 1.54000 -0.42000
v -1.89120 3.73000 0.45000
v -1.89120 3.73000 -0.45000
v -2.63260 2.72000 -0.25000
v 0.84640 0.26000 0.46000
v 0.84640 0.26000 -0.46000
vt 0.62415 0.61571
vt 0.65436 0.64590
vt 0.62416 0.64591
vt 0.65435 0.61570
vt 0.68200 0.71123
vt 0.60430 0.75466
vt 0.59653 0.71125
vt 0.67424 0.75465
vt 0.60431 0.82705
vt 0.67425 0.82704
vt 0.73766 0.90169
vt 0.73765 0.94959
vt 0.70627 0.94958
vt 0.70628 0.90169
vt 0.50974 0.22873
vt 0.46185 0.22873
vt 0.50974 0.19735
vt 0.46185 0.19735
vt 0.99681 0.81593
vt 0.94072 0.84714
vt 0.94073 0.81592
vt 0.99681 0.84714
vt 1.99681 0.81593
vt 1.94072 0.84714
vt 1.99681 0.84714
vt 1.94073 0.81592
vt 0.67768 0.69518
vt 0.60084 0.69520
vt 0.00293 0.74083
vt 0.00295 0.58625
vt 0.09587 0.74084
vt 0.09588 0.58626
vt 0.99288 0.76527
vt 0.94467 0.76527
vt 1.99288 0.76527
vt 1.94467 0.76527
vt 0.94072 0.91460
vt 0.99681 0.91461
vt 1.94072 0.91460
vt 1.99681 0.91461
vt 0.46518 0.90215
vt 0.41197 0.84668
vt 0.46518 0.84668
vt 0.41197 0.90215
vt 0.40533 0.90215
vt 0.35211 0.84668
vt 0.40533 0.84668
vt 0.35211 0.90215
vt 1.46518 0.90215
vt 1.41197 0.84668
vt 1.41197 0.90215
vt 1.46518 0.84668
vt 1.40533 0.90215
vt 1.40533 0.84668
vt 1.35211 0.84668
vt 1.35211 0.90215
vt 0.53480 0.12254
vt 0.46185 0.17607
vt 0.46185 0.14587
vt 0.53481 0.19937
vt 0.54166 0.20680
vt 0.54167 0.12637
vt 0.57305 0.12637
vt 0.57304 0.20680
vt 0.82245 0.21517
vt 0.82246 0.29559
vt 0.79107 0.21517
vt 0.79108 0.29559
vt 0.49508 0.51262
vt 0.50522 0.52255
vt 0.49522 0.52499
vt 0.49794 0.53149
vt 0.49524 0.53799
vt 0.49525 0.55647
vt 0.49794 0.56301
vt 0.50522 0.57190
vt 0.49524 0.56951
vt 0.49513 0.58188
vt 0.20025 0.92832
vt 0.15757 0.88011
vt 0.20025 0.88011
vt 0.15757 0.92832
vt 0.51451 0.93702
vt 0.47182 0.88880
vt 0.51451 0.88880
vt 0.47182 0.93702
vt 1.20025 0.92832
vt 1.20025 0.88011
vt 1.15757 0.88011
vt 1.15757 0.92832
vt 1.51451 0.93702
vt 1.51451 0.88880
vt 1.47182 0.88880
vt 1.47182 0.93702
vt 0.65484 0.11247
vt 0.64142 0.08166
vt 0.65484 0.08166
vt 0.64143 0.11247
vt 1.64143 0.08166
vt 1.65484 0.11247
vt 1.65484 0.08166
vt 1.64143 0.11247
vt 0.49487 0.52420
vt 0.45138 0.51597
vt 0.47523 0.52502
vt 0.47386 0.53153
vt 0.47524 0.55645
vt 0.47524 0.53804
vt 0.47386 0.56296
vt 0.49490 0.53878
vt 0.49490 0.55567
vt 0.55634 0.02360
vt 0.54817 0.00294
vt 0.55478 0.00405
vt 0.54166 0.02419
vt 0.54166 0.00457
vt 0.54912 0.02695
vt 0.47524 0.56947
vt 0.45135 0.57743
vt 0.17724 0.02361
vt 0.16906 0.00294
vt 0.17568 0.00405
vt 0.16255 0.02419
vt 0.16256 0.00457
vt 0.17002 0.02695
vt 0.49489 0.57031
vt 0.44190 0.96136
vt 0.44190 0.90589
vt 0.46370 0.95871
vt 0.46370 0.90853
vt 1.44190 0.90589
vt 1.46370 0.95871
vt 1.46370 0.90853
vt 1.44190 0.96136
vt 0.44436 0.52114
vt 0.44433 0.57243
vt 0.43693 0.52854
vt 0.43691 0.56502
vt 0.14905 0.90284
vt 0.11766 0.94870
vt 0.11767 0.90284
vt 0.14904 0.94870
vt 0.63291 0.95106
vt 0.60152 0.90521
vt 0.63290 0.90521
vt 0.60152 0.95107
vt 0.53188 0.04193
vt 0.50383 0.11347
vt 0.46185 0.04941
vt 0.47997 0.02525
vt 0.55574 0.40428
vt 0.56323 0.33426
vt 0.62728 0.37625
vt 0.53907 0.35238
vt 0.28099 0.09957
vt 0.29501 0.07017
vt 0.29441 0.09957
vt 0.27230 0.07017
vt 1.28099 0.09957
vt 1.29501 0.07017
vt 1.27229 0.07017
vt 1.29441 0.09957
vt 0.00293 0.17482
vt 0.15751 0.31542
vt 0.00293 0.31542
vt 0.15751 0.17482
vt 0.51173 0.02861
vt 0.53200 0.00294
vt 0.53200 0.02861
vt 0.51173 0.00294
vt 1.51173 0.02861
vt 1.53200 0.00294
vt 1.51173 0.00294
vt 1.53200 0.02861
vt 0.97071 0.95634
vt 0.94072 0.91835
vt 0.97071 0.91835
vt 0.94072 0.95634
vt 1.97071 0.95634
vt 1.94072 0.91835
vt 1.94072 0.95634
vt 1.97071 0.91835
vt 0.15104 0.58627
vt 0.15102 0.74084
vt 0.46059 0.71612
vt 0.35211 0.73445
vt 0.37044 0.71612
vt 0.47892 0.73445
vt 0.47892 0.82461
vt 0.35211 0.82461
vt 0.37044 0.84294
vt 0.46059 0.84294
vt 0.15751 0.07859
vt 0.00293 0.07859
vt 0.86351 0.56313
vt 0.75616 0.56313
vt 0.75616 0.47298
vt 0.86351 0.47298
vt 0.75616 0.44705
vt 0.86351 0.44705
vt 0.86351 0.58905
vt 0.75616 0.58905
vt 0.14780 0.89910
vt 0.08773 0.89909
vt 0.09522 0.87310
vt 0.14032 0.87311
vt 0.00293 0.00294
vt 0.15751 0.00294
vt 0.47681 0.12886
vt 0.47681 0.09888
vt 0.48591 0.12886
vt 0.48591 0.09888
vt 1.47681 0.09888
vt 1.48591 0.12886
vt 1.48591 0.09888
vt 1.47681 0.12886
vt 0.10007 0.84637
vt 0.13548 0.84637
vt 0.83592 0.23112
vt 0.89599 0.23112
vt 0.90092 0.29774
vt 0.83098 0.29773
vt 0.49792 0.00294
vt 0.49792 0.02320
vt 0.49178 0.00294
vt 0.49178 0.02320
vt 1.49792 0.02320
vt 1.49792 0.00294
vt 1.49178 0.00294
vt 1.49178 0.02320
vt 0.26232 0.00294
vt 0.26573 0.02950
vt 0.26232 0.02950
vt 0.26573 0.00294
vt 1.26232 0.00294
vt 1.26573 0.02950
vt 1.26573 0.00294
vt 1.26232 0.02950
vt 0.84594 0.13517
vt 0.84595 0.08460
vt 0.87733 0.08460
vt 0.87732 0.13518
vt 0.08773 0.74459
vt 0.11912 0.79516
vt 0.08774 0.79516
vt 0.11911 0.74458
vt 0.29278 0.00294
vt 0.27454 0.00294
vt 1.93260 0.52975
vt 1.87937 0.54244
vt 1.93007 0.54241
vt 1.87088 0.52511
vt 0.93007 0.54241
vt 0.87937 0.54244
vt 0.93260 0.52975
vt 0.87088 0.52511
vt 1.29278 0.00294
vt 1.27454 0.00294
vt 0.85570 0.75038
vt 0.80509 0.70018
vt 0.87015 0.70019
vt 0.81301 0.75037
vt 1.85570 0.75038
vt 1.87015 0.70019
vt 1.80509 0.70018
vt 1.81301 0.75037
vt 1.93314 0.48800
vt 1.87452 0.51494
vt 1.93315 0.51343
vt 1.87313 0.48955
vt 0.93315 0.51343
vt 0.87452 0.51494
vt 0.93314 0.48800
vt 0.87313 0.48955
vt 0.92714 0.59352
vt 0.88447 0.59460
vt 1.88447 0.59460
vt 1.92715 0.59352
vt 1.92348 0.43967
vt 1.88029 0.44078
vt 0.92348 0.43967
vt 0.88029 0.44078
vt 0.16257 0.35555
vt 0.26238 0.53340
vt 0.16256 0.53339
vt 0.26239 0.35556
vt 1.87393 0.67230
vt 1.79107 0.67229
vt 1.87394 0.63547
vt 1.79109 0.60482
vt 1.85538 0.59278
vt 0.87394 0.67230
vt 0.79107 0.67229
vt 0.87394 0.63547
vt 0.79109 0.60482
vt 0.85538 0.59278
vt 0.95656 0.10238
vt 0.95909 0.04467
vt 0.95996 0.10238
vt 0.95568 0.04467
vt 1.95568 0.04467
vt 1.95656 0.10238
vt 1.95909 0.04467
vt 1.95997 0.10238
vt 0.03431 0.90135
vt 0.00294 0.94926
vt 0.00293 0.90135
vt 0.03432 0.94925
vt 0.56162 0.88880
vt 0.59300 0.88881
vt 0.59299 0.93671
vt 0.56161 0.93671
vt 0.16255 0.63322
vt 0.26238 0.63322
vt 0.75055 0.85413
vt 0.80266 0.85413
vt 0.74860 0.87332
vt 0.80462 0.87332
vt 1.80266 0.85413
vt 1.75055 0.85413
vt 1.74860 0.87332
vt 1.80462 0.87332
vt 0.64986 0.11647
vt 0.64986 0.19042
vt 0.60069 0.19042
vt 0.60069 0.11647
vt 0.24382 0.88010
vt 0.21245 0.95078
vt 0.21244 0.88011
vt 0.24383 0.95077
vt 0.63291 0.83080
vt 0.63290 0.90147
vt 0.60153 0.83080
vt 0.60152 0.90146
vt 0.74625 0.33430
vt 0.74625 0.43412
vt 0.64642 0.43412
vt 0.64643 0.33430
vt 0.45680 0.07029
vt 0.30222 0.00294
vt 0.42236 0.00294
vt 0.45680 0.16653
vt 0.30222 0.26629
vt 0.34122 0.30529
vt 0.43416 0.30529
vt 0.43186 0.30903
vt 0.27728 0.37639
vt 0.31172 0.30903
vt 0.27728 0.47262
vt 0.43186 0.57238
vt 0.39286 0.61138
vt 0.29992 0.61138
vt 0.58655 0.19042
vt 0.58655 0.11647
vt 0.66399 0.11647
vt 0.66399 0.19042
vt 0.17898 0.81096
vt 0.17897 0.87491
vt 0.14759 0.87491
vt 0.14760 0.81095
vt 0.55309 0.88880
vt 0.55310 0.95276
vt 0.52171 0.88881
vt 0.52172 0.95277
vt 0.56889 0.12264
vt 0.54834 0.03967
vt 0.63644 0.44131
vt 0.55348 0.42075
vt 1.87588 0.69881
vt 1.89769 0.74949
vt 1.89770 0.69627
vt 1.87587 0.74695
vt 1.93574 0.54317
vt 1.95755 0.59386
vt 1.95756 0.54064
vt 1.93573 0.59131
vt 0.89770 0.69627
vt 0.89769 0.74949
vt 0.87588 0.69881
vt 0.87587 0.74695
vt 0.95756 0.54064
vt 0.95755 0.59386
vt 0.93574 0.54317
vt 0.93573 0.59131
vt 0.34250 0.91831
vt 0.25234 0.81095
vt 0.34250 0.81095
vt 0.25234 0.91831
vt 0.81102 0.75412
vt 0.90118 0.75412
vt 0.90118 0.86148
vt 0.81103 0.86148
vt 1.95804 0.18898
vt 1.94169 0.16987
vt 1.94963 0.19023
vt 1.94735 0.16159
vt 0.90580 0.18897
vt 0.92220 0.16987
vt 0.91421 0.19022
vt 0.91655 0.16158
vt 0.95804 0.18898
vt 0.94169 0.16987
vt 0.94735 0.16159
vt 0.94963 0.19023
vt 1.91421 0.19022
vt 1.92220 0.16987
vt 1.90580 0.18897
vt 1.91655 0.16158
vt 0.85388 0.00294
vt 0.87336 0.00294
vt 0.88131 0.02330
vt 0.84594 0.02331
vt 1.85388 0.00294
vt 1.88131 0.02330
vt 1.87337 0.00294
vt 1.84594 0.02331
vt 0.95925 0.33156
vt 0.90518 0.31881
vt 0.95729 0.31880
vt 0.90323 0.33157
vt 1.90518 0.31881
vt 1.95925 0.33156
vt 1.95729 0.31880
vt 1.90323 0.33157
vt 0.40199 0.94503
vt 0.43338 0.90590
vt 0.43337 0.94503
vt 0.40200 0.90589
vt 0.99704 0.76128
vt 0.96567 0.72214
vt 0.99705 0.72214
vt 0.96566 0.76127
vt 0.84138 0.00294
vt 0.72124 0.15751
vt 0.72124 0.00294
vt 0.84138 0.15751
vt 0.58568 0.00294
vt 0.58559 0.00959
vt 0.58241 0.00294
vt 0.58157 0.00959
vt 0.57243 0.01625
vt 0.57561 0.00959
vt 0.57570 0.01625
vt 0.57159 0.00959
vt 0.94523 0.24777
vt 0.95291 0.25604
vt 1.95291 0.25604
vt 1.94523 0.24777
vt 0.91866 0.24777
vt 0.91099 0.25605
vt 1.91866 0.24777
vt 1.91099 0.25605
vt 0.69131 0.64476
vt 0.78242 0.78181
vt 0.69131 0.82261
vt 0.78242 0.60397
vt 0.31047 0.80721
vt 0.13262 0.80721
vt 0.17342 0.71610
vt 0.35126 0.71610
vt 0.87692 0.08085
vt 0.85036 0.08086
vt 1.87692 0.08085
vt 1.85036 0.08086
vt 0.58568 0.01625
vt 0.58241 0.01625
vt 0.57570 0.00294
vt 0.57243 0.00294
vt 1.47094 0.07604
vt 1.46185 0.11403
vt 1.47094 0.11403
vt 1.46185 0.07604
vt 0.47094 0.07604
vt 0.47094 0.11403
vt 0.46185 0.11403
vt 0.46185 0.07604
vt 0.99704 0.64686
vt 0.96568 0.71840
vt 0.96566 0.64686
vt 0.99706 0.71839
vt 0.96568 0.57158
vt 0.99704 0.64312
vt 0.96566 0.64311
vt 0.99706 0.57158
vt 0.16870 0.10636
vt 0.16870 0.13203
vt 0.16255 0.13203
vt 0.16255 0.10636
vt 1.16870 0.10636
vt 1.16255 0.13203
vt 1.16870 0.13203
vt 1.16255 0.10636
vt 0.75250 0.80176
vt 0.80072 0.80176
vt 1.80071 0.80176
vt 1.75250 0.80176
vt 0.74047 0.82388
vt 0.74047 0.89783
vt 0.69650 0.82663
vt 0.69131 0.89798
vt 0.90713 0.26765
vt 0.95534 0.26765
vt 1.90713 0.26765
vt 1.95534 0.26765
vt 0.58630 0.52379
vt 0.53500 0.46080
vt 0.59866 0.48976
vt 0.51672 0.53084
vt 0.74793 0.88410
vt 0.80528 0.88410
vt 0.74618 0.90947
vt 0.80704 0.90947
vt 0.58840 0.02120
vt 0.65138 0.07251
vt 0.61735 0.08486
vt 0.65844 0.00293
vt 1.80528 0.88410
vt 1.74618 0.90947
vt 1.80704 0.90947
vt 1.74793 0.88410
vt 0.90257 0.34789
vt 0.95992 0.34788
vt 1.90257 0.34789
vt 1.95992 0.34788
vt 0.19278 0.13103
vt 0.18450 0.03206
vt 0.24888 0.00293
vt 0.16258 0.07465
vt 0.29659 0.27942
vt 0.16799 0.19813
vt 0.18031 0.24718
vt 0.21507 0.35042
vt 0.16255 0.28951
vt 0.29446 0.31850
vt 0.26294 0.35182
vt 0.27011 0.64394
vt 0.36905 0.63530
vt 0.25234 0.71234
vt 0.30836 0.61511
vt 0.53292 0.71239
vt 0.43096 0.59947
vt 0.48139 0.60328
vt 0.58904 0.62001
vt 0.52009 0.57860
vt 0.57107 0.70366
vt 0.59854 0.66695
vt 0.96167 0.37324
vt 0.90081 0.37325
vt 1.96167 0.37324
vt 1.90081 0.37325
vt 0.64142 0.83079
vt 0.68530 0.83354
vt 0.68531 0.90106
vt 0.64144 0.90474
vt 0.59415 0.76899
vt 0.48679 0.76899
vt 0.48679 0.74307
vt 0.59415 0.74307
vt 0.59415 0.88506
vt 0.48679 0.85914
vt 0.59415 0.85914
vt 0.48679 0.88506
vt 0.16460 0.69919
vt 0.17497 0.69878
vt 0.17096 0.70475
vt 0.15802 0.70492
vt 0.73121 0.17194
vt 0.75996 0.21343
vt 0.73121 0.20275
vt 0.75996 0.16125
vt 1.73121 0.17194
vt 1.75996 0.21343
vt 1.75996 0.16125
vt 1.73121 0.20275
vt 0.74618 0.95876
vt 0.80704 0.95876
vt 1.74618 0.95876
vt 1.80704 0.95876
vt 0.22887 0.63734
vt 0.22239 0.70249
vt 0.22233 0.64294
vt 0.22887 0.70888
vt 0.96168 0.42253
vt 0.90082 0.42254
vt 1.96168 0.42253
vt 1.90082 0.42254
vt 0.95910 0.12422
vt 0.95569 0.12422
vt 0.56488 0.00294
vt 0.56612 0.02256
vt 0.56161 0.02256
vt 0.56161 0.00294
vt 1.95910 0.12422
vt 1.95569 0.12422
vt 0.45514 0.04455
vt 0.45187 0.02493
vt 0.45638 0.02493
vt 0.45187 0.04455
vt 0.99704 0.28352
vt 0.96569 0.00294
vt 0.99707 0.00294
vt 0.96566 0.28351
vt 0.99707 0.56784
vt 0.96566 0.28726
vt 0.99704 0.28726
vt 0.96569 0.56784
vt 0.10914 0.90284
vt 0.07776 0.94874
vt 0.07775 0.90284
vt 0.10914 0.94874
vt 0.60651 0.48978
vt 0.63789 0.53569
vt 0.60651 0.53569
vt 0.63789 0.48979
vt 0.15751 0.31916
vt 0.15751 0.58251
vt 0.00293 0.58251
vt 0.00293 0.31916
vt 0.37206 0.96136
vt 0.37206 0.90589
vt 0.39387 0.95871
vt 0.39386 0.90853
vt 1.37206 0.90589
vt 1.39387 0.95871
vt 1.39386 0.90853
vt 1.37206 0.96136
vt 0.21118 0.69894
vt 0.21176 0.64275
vt 0.17485 0.64236
vt 0.16425 0.64252
vt 0.66425 0.07181
vt 0.71462 0.03907
vt 0.58560 0.53666
vt 0.55285 0.58702
vt 0.92761 0.76791
vt 0.90581 0.82074
vt 0.90580 0.76526
vt 0.92761 0.81809
vt 0.45468 0.26211
vt 0.55362 0.25346
vt 0.43691 0.33050
vt 0.49293 0.23327
vt 0.71748 0.33056
vt 0.61553 0.21763
vt 0.66596 0.22144
vt 0.77360 0.23817
vt 0.70466 0.19676
vt 0.75563 0.32182
vt 0.78311 0.28511
vt 1.92761 0.76791
vt 1.90581 0.82074
vt 1.92761 0.81809
vt 1.90580 0.76526
vt 0.74624 0.61197
vt 0.64641 0.61196
vt 0.15757 0.63693
vt 0.51619 0.71613
vt 0.48679 0.73014
vt 0.48679 0.71673
vt 0.51619 0.73885
vt 1.51619 0.71613
vt 1.48679 0.71673
vt 1.48679 0.73014
vt 1.51619 0.73885
vt 0.18750 0.81095
vt 0.24358 0.81095
vt 0.18750 0.87636
vt 0.24358 0.87636
vt 1.18750 0.87636
vt 1.24358 0.81095
vt 1.18749 0.81095
vt 1.24359 0.87636
vt 0.60899 0.58704
vt 0.63844 0.54872
vt 0.63600 0.58405
vt 0.61210 0.54204
vt 0.71462 0.09521
vt 0.67630 0.12466
vt 0.66962 0.09832
vt 0.71163 0.12222
vt 0.95979 0.00294
vt 0.95979 0.04093
vt 0.95070 0.04093
vt 0.95070 0.00294
vt 1.95979 0.04093
vt 1.95979 0.00294
vt 1.95070 0.04093
vt 1.95070 0.00294
vt 0.95684 0.12796
vt 0.95684 0.15364
vt 0.95070 0.15364
vt 0.95070 0.12796
vt 1.95684 0.15364
vt 1.95684 0.12796
vt 1.95070 0.15364
vt 1.95070 0.12796
vt 0.94756 0.06776
vt 0.89432 0.05510
vt 0.94503 0.05511
vt 0.88585 0.07242
vt 1.89433 0.05510
vt 1.94756 0.06776
vt 1.94503 0.05511
vt 1.88585 0.07242
vt 0.18578 0.00294
vt 0.18251 0.02256
vt 0.18251 0.00294
vt 0.18701 0.02256
vt 0.16255 0.03069
vt 0.16582 0.05031
vt 0.16255 0.05031
vt 0.16706 0.03069
vt 0.06757 0.74458
vt 0.01695 0.79477
vt 0.02488 0.74458
vt 0.08201 0.79476
vt 1.01695 0.79477
vt 1.06757 0.74458
vt 1.02488 0.74458
vt 1.08201 0.79476
vt 0.94812 0.10951
vt 0.88948 0.08259
vt 0.94812 0.08408
vt 0.88810 0.10798
vt 1.88949 0.08259
vt 1.94812 0.10951
vt 1.94812 0.08408
vt 1.88810 0.10798
vt 0.89941 0.00294
vt 0.94209 0.00400
vt 1.89941 0.00294
vt 1.94209 0.00400
vt 0.89528 0.15675
vt 0.93848 0.15785
vt 1.89528 0.15675
vt 1.93848 0.15785
vt 0.08579 0.82265
vt 0.00293 0.82266
vt 0.08580 0.85949
vt 0.00294 0.89012
vt 0.06723 0.90217
vt 1.08579 0.82265
vt 1.00293 0.82266
vt 1.08580 0.85949
vt 1.00294 0.89012
vt 1.06723 0.90217
vt 0.82703 0.20830
vt 0.82703 0.16638
vt 1.82703 0.20830
vt 1.82703 0.16638
vt 0.71457 0.12840
vt 0.71457 0.18926
vt 0.67136 0.18926
vt 0.67136 0.12840
vt 1.67135 0.18926
vt 1.71457 0.12840
vt 1.67135 0.12840
vt 1.71457 0.18926
vt 0.75616 0.42498
vt 0.86464 0.44331
vt 0.77448 0.44331
vt 0.88297 0.42498
vt 0.75616 0.33483
vt 0.88297 0.33483
vt 0.77448 0.31650
vt 0.86464 0.31650
vt 0.21482 0.70509
vt 0.66325 0.91102
vt 0.64142 0.96170
vt 0.64143 0.90848
vt 0.66324 0.95916
vt 0.69817 0.90851
vt 0.67634 0.95919
vt 0.67635 0.90597
vt 0.69816 0.95665
vt 1.64143 0.96170
vt 1.66325 0.91102
vt 1.64143 0.90848
vt 1.66324 0.95916
vt 1.67634 0.95919
vt 1.69817 0.90851
vt 1.67635 0.90597
vt 1.69816 0.95665
vt 0.63180 0.10292
vt 0.62730 0.10292
vt 0.63183 0.10205
vt 0.62646 0.09501
vt 0.63183 0.09501
vt 0.46721 0.11865
vt 0.46269 0.11777
vt 0.46719 0.11777
vt 0.46185 0.12569
vt 0.46721 0.12569
vt 0.63183 0.08797
vt 0.62730 0.08709
vt 0.63180 0.08709
vt 0.46721 0.13273
vt 0.46269 0.13360
vt 0.46719 0.13360
vt 0.58342 0.71836
vt 0.58342 0.73661
vt 1.58342 0.71836
vt 1.58342 0.73661
vt 0.28638 0.13330
vt 0.27728 0.10331
vt 0.28638 0.10331
vt 0.27728 0.13330
vt 1.28638 0.13330
vt 1.28638 0.10331
vt 1.27728 0.10331
vt 1.27728 0.13330
vt 0.70743 0.02320
vt 0.70128 0.00294
vt 0.70743 0.00294
vt 0.70128 0.02320
vt 1.70743 0.02320
vt 1.70128 0.00294
vt 1.70128 0.02320
vt 1.70743 0.00294
vt 0.52238 0.39983
vt 0.44123 0.33426
vt 0.51807 0.33426
vt 0.43691 0.39982
vt 0.66112 0.19502
vt 0.60341 0.19757
vt 0.60341 0.19416
vt 0.66112 0.19843
vt 1.66112 0.19502
vt 1.60341 0.19757
vt 1.66112 0.19843
vt 1.60341 0.19416
vt 0.44190 0.00294
vt 0.48382 0.02118
vt 0.44190 0.02119
vt 0.48381 0.00294
vt 1.48382 0.02118
vt 1.44190 0.00294
vt 1.44190 0.02119
vt 1.48381 0.00294
vt 0.96189 0.65000
vt 0.90974 0.59792
vt 0.95795 0.59792
vt 0.90580 0.65000
vt 1.90580 0.65000
vt 1.96189 0.65000
vt 1.90974 0.59792
vt 1.95795 0.59792
vt 0.84340 0.17548
vt 0.88851 0.17548
vt 0.96189 0.67814
vt 0.90580 0.67814
vt 1.96189 0.67814
vt 1.90580 0.67814
vt 0.84825 0.14875
vt 0.88367 0.14875
vt 0.10007 0.81095
vt 0.13549 0.81095
vt 0.96189 0.71498
vt 0.90580 0.71498
vt 1.96189 0.71498
vt 1.90580 0.71498
vt 0.58157 0.19844
vt 0.58157 0.19503
vt 1.58157 0.19844
vt 1.58157 0.19503
vt 0.96189 0.76152
vt 0.90580 0.76153
vt 1.90581 0.76153
vt 1.96189 0.76152
vt 0.06464 0.90673
vt 0.04284 0.95956
vt 0.04284 0.90408
vt 0.06464 0.95691
vt 1.04284 0.95956
vt 1.06464 0.90673
vt 1.04284 0.90408
vt 1.06464 0.95691
vt 0.21197 0.00635
vt 0.19248 0.00294
vt 0.21197 0.00294
vt 0.19248 0.00634
vt 1.21197 0.00294
vt 1.19248 0.00294
vt 1.21197 0.00635
vt 1.19248 0.00634
vt 0.93399 0.86522
vt 0.93399 0.91540
vt 0.88585 0.91540
vt 0.88585 0.86522
vt 0.87912 0.86522
vt 0.87912 0.91540
vt 0.83098 0.91540
vt 0.83098 0.86522
vt 1.93399 0.86522
vt 1.88585 0.91540
vt 1.93399 0.91540
vt 1.88585 0.86522
vt 1.87912 0.86522
vt 1.83098 0.91540
vt 1.87912 0.91540
vt 1.83098 0.86522
vt 0.44959 0.50888
vt 0.51460 0.49697
vt 0.50967 0.50889
vt 0.44466 0.49697
vt 0.44467 0.46076
vt 0.51460 0.46077
vn 0.9606 -0.2677 0.0000
vn 0.9843 0.1890 0.0000
vn 0.9291 0.3622 0.0000
vn -0.5197 0.8504 0.0000
vn 0.8898 -0.4488 0.0000
vn 0.8898 0.4567 0.0000
vn 1.0000 0.0000 0.0000
vn 0.9843 -0.1575 0.0000
vn 0.0000 -1.0000 0.0000
vn 0.0866 -0.9921 0.0000
vn 0.2756 0.9606 0.0000
vn -1.0000 0.0000 0.0000
vn 0.1260 0.9843 0.1417
vn 0.1260 0.9843 -0.1417
vn -1.0000 -0.0630 0.0000
vn 0.9921 0.1181 0.0000
vn -0.9843 0.1732 0.0000
vn 0.3465 -0.1811 0.9213
vn 0.3465 -0.1811 -0.9213
vn -0.8661 0.4961 -0.0866
vn -0.8661 0.4961 0.0866
vn 0.1575 -0.9843 0.0000
vn 0.7087 0.7087 0.0000
vn 0.0000 1.0000 0.0000
vn 0.0000 0.7087 -0.7087
vn 0.0000 0.7087 0.7087
vn 0.4331 -0.9055 0.0000
vn -0.4567 -0.8898 0.0000
vn 0.3858 -0.9213 0.0000
vn 0.3543 0.9370 0.0000
vn 0.5984 0.8032 0.0000
vn 0.1260 0.9764 0.1575
vn 0.1260 0.9764 -0.1575
vn 0.6772 0.7323 0.0000
vn -0.9843 0.0709 -0.1575
vn 0.0079 -0.1339 -0.9921
vn 0.0079 -0.1339 0.9921
vn -0.9843 0.0709 0.1575
vn 0.0000 -0.0787 1.0000
vn 0.0000 -0.0787 -1.0000
vn 0.0000 -0.0709 -1.0000
vn 0.0000 -0.0709 1.0000
vn 0.0000 -0.0472 -1.0000
vn 0.0000 -0.0472 1.0000
vn 0.0000 -0.0394 1.0000
vn 0.0000 -0.0394 -1.0000
vn 0.0000 0.0000 -1.0000
vn 0.0000 0.0000 1.0000
vn -0.5906 -0.8032 0.0000
vn -0.8110 -0.5827 0.0000
vn -0.9685 0.2205 -0.1339
vn -0.9685 0.2205 0.1339
vn 0.9921 0.1024 0.0000
vn 0.1968 -0.9764 0.0000
vn 0.9055 -0.4173 0.0000
vn 0.8425 -0.5354 0.0000
vn -0.1968 0.9764 0.0000
vn 0.4803 0.8819 0.0000
vn 0.0709 -0.0787 0.9921
vn 0.0709 -0.0787 -0.9921
vn 0.0000 0.1181 -0.9921
vn 0.0000 0.1181 0.9921
vn -0.1654 -0.0945 -0.9843
vn -0.1654 -0.0945 0.9843
vn -0.9764 -0.2205 0.0000
vn -0.8661 -0.5039 0.0000
vn 0.0000 0.9764 0.2047
vn 0.0000 0.9764 -0.2047
vn -0.1732 -0.1496 0.9764
vn -0.1732 -0.1496 -0.9764
vn -0.1654 -0.1575 -0.9764
vn -0.1654 -0.1575 0.9764
vn -0.1732 -0.1575 0.9764
vn -0.1732 -0.1575 -0.9764
vn 0.9764 0.2205 0.0000
vn 1.0000 -0.0709 0.0000
vn -0.0315 -0.0472 -1.0000
vn -1.0000 -0.0787 0.0000
vn 1.0000 -0.0315 0.0000
vn -1.0000 -0.0236 0.0000
vn 0.0000 -0.7087 0.7087
vn 0.0000 -0.7087 -0.7087
vn -0.1339 -0.7008 0.7008
vn 0.1968 0.4094 -0.8898
vn 0.1968 0.4094 0.8898
vn 0.9843 0.1732 0.0000
vn -0.0945 -0.8189 -0.5669
vn -0.0472 0.1496 -0.9921
vn -0.0472 0.1496 0.9921
vn -0.9528 -0.2205 -0.1968
vn 0.0000 0.0394 -1.0000
vn -0.9528 -0.2205 0.1968
vn 0.0000 0.0394 1.0000
vn -0.7323 -0.6850 0.0000
vn 0.9843 0.1811 0.0000
vn -0.0472 -0.8661 -0.4961
vn -0.1181 0.0551 0.9921
vn -0.1181 0.0551 -0.9921
vn -0.9921 0.1181 0.0000
vn 0.8110 0.5827 0.0000
vn 0.0000 -0.7795 0.6220
vn 0.9606 0.2205 0.1890
vn 0.9606 0.2205 -0.1890
vn 0.1811 0.9843 0.0000
vn -0.1496 -0.1024 -0.9843
vn -0.1496 -0.1024 0.9843
vn -0.1811 -0.0551 0.9843
vn -0.1811 -0.0551 -0.9843
vn 0.1575 0.0866 -0.9843
vn 0.1575 0.0866 0.9843
vn 0.3543 -0.9213 -0.1417
vn 0.0000 -0.9213 0.3858
vn 0.0000 -0.9213 -0.3858
vn 0.4409 -0.8976 0.0000
vn 0.9685 -0.2205 0.1339
vn 0.9685 -0.2205 -0.1339
vn -0.7165 -0.6929 0.0000
vn 0.9843 -0.0709 0.1575
vn 0.9843 -0.0709 -0.1575
vn -0.1260 -0.9843 -0.1417
vn -0.1260 -0.9843 0.1417
vn -0.9606 -0.2756 0.0000
vn -0.5984 0.8032 0.0000
vn -0.9921 -0.1339 0.0000
vn -0.6929 0.7244 0.0000
vn -0.8346 -0.5512 0.0000
vn 0.8661 -0.4961 0.0787
vn 0.8661 -0.4961 -0.0787
vn -0.9134 0.4016 0.0000
vn -0.1260 -0.9764 -0.1575
vn -0.1260 -0.9764 0.1575
vn -0.8504 -0.5276 0.0000
vn -1.0000 0.0394 0.0000

o animal_pony
usemtl tex_animal_pony_i027p001x
f 1/1/1 2/2/1 3/3/1
f 1/1/1 4/4/1 2/2/1
f 5/5/2 6/6/2 7/7/2
f 6/6/2 5/5/2 8/8/2
f 8/8/3 9/9/3 6/6/3
f 9/9/3 8/8/3 10/10/3
f 11/11/4 12/12/4 13/13/4
f 14/14/4 11/11/4 13/13/4
f 14/15/4 13/16/4 15/17/4
f 15/17/4 13/16/4 16/18/4
f 17/19/5 18/20/5 19/21/5
f 18/20/5 17/19/5 20/22/5
f 21/23/5 22/24/5 23/25/5
f 22/24/5 21/23/5 24/26/5
f 25/27/6 7/7/6 26/28/6
f 7/7/6 25/27/6 5/5/6
f 27/29/7 28/30/7 29/31/7
f 28/30/7 30/32/7 29/31/7
f 31/33/8 19/21/8 32/34/8
f 19/21/8 31/33/8 17/19/8
f 33/35/8 24/26/8 21/23/8
f 24/26/8 33/35/8 34/36/8
f 18/20/7 20/22/7 35/37/7
f 20/22/7 36/38/7 35/37/7
f 23/25/7 37/39/7 38/40/7
f 22/24/7 37/39/7 23/25/7
f 39/41/9 40/42/9 41/43/9
f 40/42/9 39/41/9 42/44/9
f 43/45/9 44/46/9 45/47/9
f 44/46/9 43/45/9 46/48/9
f 47/49/9 48/50/9 49/51/9
f 47/49/9 50/52/9 48/50/9
f 51/53/9 52/54/9 53/55/9
f 51/53/9 53/55/9 54/56/9
f 55/57/10 4/58/10 1/59/10
f 55/57/10 56/60/10 4/58/10
f 57/61/11 13/62/11 12/63/11
f 12/63/11 58/64/11 57/61/11
f 13/65/11 57/66/11 16/67/11
f 16/67/11 57/66/11 59/68/11
f 60/69/12 61/70/12 62/71/12
f 61/70/12 63/72/12 62/71/12
f 64/73/12 63/72/12 61/70/12
f 65/74/12 64/73/12 61/70/12
f 66/75/12 65/74/12 61/70/12
f 67/76/12 66/75/12 61/70/12
f 68/77/12 66/75/12 67/76/12
f 69/78/12 68/77/12 67/76/12
f 70/79/9 71/80/9 72/81/9
f 71/80/9 70/79/9 73/82/9
f 74/83/9 32/84/9 75/85/9
f 32/84/9 74/83/9 31/86/9
f 76/87/9 77/88/9 78/89/9
f 76/87/9 78/89/9 79/90/9
f 80/91/9 81/92/9 34/93/9
f 80/91/9 34/93/9 33/94/9
f 82/95/13 83/96/13 84/97/13
f 83/96/13 82/95/13 85/98/13
f 86/99/14 87/100/14 88/101/14
f 87/100/14 86/99/14 89/102/14
f 60/69/15 90/103/15 91/104/15
f 62/71/15 90/103/15 60/69/15
f 90/103/15 92/105/15 91/104/15
f 91/104/15 92/105/15 93/106/15
f 94/107/15 91/104/15 95/108/15
f 95/108/15 91/104/15 93/106/15
f 96/109/15 91/104/15 94/107/15
f 97/110/15 98/111/15 95/108/15
f 98/111/15 94/107/15 95/108/15
f 64/73/15 65/74/15 97/110/15
f 99/112/12 100/113/12 101/114/12
f 99/112/12 102/115/12 100/113/12
f 100/113/12 102/115/12 103/116/12
f 102/115/12 99/112/12 104/117/12
f 105/118/15 91/104/15 96/109/15
f 106/119/15 91/104/15 105/118/15
f 65/74/15 98/111/15 97/110/15
f 107/120/12 108/121/12 109/122/12
f 107/120/12 110/123/12 108/121/12
f 108/121/12 110/123/12 111/124/12
f 110/123/12 107/120/12 112/125/12
f 113/126/15 106/119/15 105/118/15
f 68/77/15 69/78/15 113/126/15
f 69/78/15 106/119/15 113/126/15
f 44/127/16 46/128/16 114/129/16
f 115/130/16 114/129/16 46/128/16
f 54/131/16 116/132/16 117/133/16
f 54/131/16 53/134/16 116/132/16
f 118/135/12 119/136/12 120/137/12
f 120/137/12 119/136/12 121/138/12
f 122/139/17 14/140/17 123/141/17
f 14/140/17 122/139/17 11/142/17
f 14/143/17 124/144/17 123/145/17
f 14/143/17 15/146/17 124/144/17
f 26/147/18 55/148/18 1/149/18
f 26/147/18 1/149/18 3/150/18
f 25/151/19 4/152/19 56/153/19
f 4/152/19 25/151/19 2/154/19
f 83/155/20 125/156/20 84/157/20
f 125/156/20 83/155/20 126/158/20
f 86/159/21 127/160/21 128/161/21
f 127/160/21 86/159/21 88/162/21
f 129/163/22 28/164/22 27/165/22
f 130/166/22 28/164/22 129/163/22
f 131/167/12 132/168/12 133/169/12
f 132/168/12 131/167/12 134/170/12
f 135/171/12 136/172/12 137/173/12
f 135/171/12 138/174/12 136/172/12
f 139/175/12 140/176/12 141/177/12
f 140/176/12 139/175/12 142/178/12
f 143/179/12 144/180/12 145/181/12
f 144/180/12 143/179/12 146/182/12
f 147/183/23 148/184/23 29/31/23
f 147/183/23 29/31/23 30/32/23
f 149/185/12 150/186/12 151/187/12
f 152/188/12 150/186/12 149/185/12
f 153/189/12 150/186/12 152/188/12
f 153/189/12 154/190/12 150/186/12
f 154/190/12 153/189/12 155/191/12
f 155/191/12 153/189/12 156/192/12
f 157/193/9 129/163/9 158/194/9
f 129/163/9 157/193/9 130/166/9
f 152/195/24 159/196/24 160/197/24
f 153/198/24 152/195/24 160/197/24
f 153/198/25 160/197/25 161/199/25
f 161/199/25 156/200/25 153/198/25
f 159/196/26 149/201/26 162/202/26
f 149/201/26 159/196/26 152/195/26
f 163/203/27 164/204/27 165/205/27
f 163/203/27 165/205/27 166/206/27
f 167/207/28 157/193/28 158/194/28
f 167/207/28 168/208/28 157/193/28
f 169/209/24 170/210/24 139/211/24
f 142/212/24 139/211/24 170/210/24
f 171/213/24 143/214/24 145/215/24
f 143/214/24 171/213/24 172/216/24
f 166/206/29 165/205/29 173/217/29
f 166/206/29 173/217/29 174/218/29
f 175/219/30 176/220/30 9/221/30
f 175/219/30 9/221/30 10/222/30
f 131/223/24 133/224/24 177/225/24
f 178/226/24 177/225/24 133/224/24
f 138/227/24 135/228/24 179/229/24
f 138/227/24 179/229/24 180/230/24
f 25/27/31 26/28/31 3/3/31
f 25/27/31 3/3/31 2/2/31
f 181/231/32 182/232/32 183/233/32
f 182/232/32 181/231/32 184/234/32
f 185/235/33 186/236/33 187/237/33
f 186/236/33 185/235/33 188/238/33
f 189/239/34 190/240/34 191/241/34
f 192/242/34 189/239/34 191/241/34
f 191/243/34 193/244/34 192/245/34
f 193/244/34 191/243/34 194/246/34
f 126/158/35 195/247/35 125/156/35
f 195/247/35 126/158/35 196/248/35
f 197/249/36 198/250/36 199/251/36
f 197/249/36 200/252/36 198/250/36
f 201/253/37 202/254/37 203/255/37
f 202/254/37 204/256/37 203/255/37
f 205/257/38 206/258/38 128/161/38
f 127/160/38 205/257/38 128/161/38
f 75/259/39 19/260/39 207/261/39
f 19/260/39 75/259/39 32/262/39
f 81/263/40 208/264/40 24/265/40
f 81/263/40 24/265/40 34/266/40
f 209/267/41 210/268/41 211/269/41
f 210/268/41 209/267/41 212/270/41
f 213/271/42 214/272/42 215/273/42
f 215/273/42 214/272/42 216/274/42
f 211/269/43 210/268/43 197/249/43
f 197/249/43 210/268/43 200/252/43
f 203/255/44 214/272/44 213/271/44
f 203/255/44 204/256/44 214/272/44
f 201/253/45 72/275/45 71/276/45
f 201/253/45 71/276/45 202/254/45
f 199/251/46 78/277/46 77/278/46
f 78/277/46 199/251/46 198/250/46
f 217/279/47 212/270/47 209/267/47
f 212/270/47 217/279/47 218/280/47
f 219/281/48 215/273/48 216/274/48
f 219/281/48 216/274/48 220/282/48
f 106/119/49 118/135/49 91/104/49
f 118/135/49 106/119/49 119/136/49
f 221/283/50 222/284/50 223/285/50
f 222/284/50 221/283/50 224/286/50
f 225/287/47 24/265/47 208/264/47
f 24/265/47 225/287/47 22/288/47
f 226/289/47 22/288/47 225/287/47
f 226/289/47 37/290/47 22/288/47
f 37/290/47 226/289/47 227/291/47
f 19/260/48 228/292/48 207/261/48
f 228/292/48 19/260/48 18/293/48
f 228/292/48 18/293/48 229/294/48
f 35/295/48 229/294/48 18/293/48
f 229/294/48 35/295/48 230/296/48
f 231/297/51 182/298/51 232/299/51
f 182/298/51 231/297/51 183/300/51
f 188/301/52 233/302/52 186/303/52
f 234/304/52 186/303/52 233/302/52
f 235/305/53 236/306/53 237/307/53
f 236/306/53 235/305/53 238/308/53
f 235/309/53 239/310/53 240/311/53
f 235/309/53 240/311/53 238/312/53
f 222/284/54 241/313/54 223/285/54
f 241/313/54 222/284/54 242/314/54
f 202/315/55 243/316/55 204/317/55
f 244/318/55 204/317/55 243/316/55
f 245/319/55 198/320/55 200/321/55
f 245/319/55 200/321/55 246/322/55
f 61/323/24 247/324/24 248/325/24
f 67/326/24 61/323/24 248/325/24
f 249/327/56 237/328/56 250/329/56
f 237/328/56 249/327/56 235/330/56
f 251/331/56 239/332/56 249/333/56
f 249/333/56 239/332/56 235/334/56
f 221/335/57 252/336/57 253/337/57
f 224/338/57 221/335/57 253/337/57
f 158/339/48 254/340/48 167/341/48
f 254/340/48 158/339/48 129/342/48
f 254/340/48 129/342/48 148/343/48
f 148/343/48 129/342/48 29/344/48
f 129/342/48 27/345/48 29/344/48
f 255/346/47 157/347/47 168/348/47
f 255/346/47 130/349/47 157/347/47
f 130/349/47 255/346/47 147/350/47
f 30/351/47 130/349/47 147/350/47
f 130/349/47 30/351/47 28/352/47
f 256/353/25 69/354/25 67/326/25
f 67/326/25 248/325/25 256/353/25
f 60/355/26 247/324/26 61/323/26
f 247/324/26 60/355/26 257/356/26
f 258/357/58 236/358/58 238/359/58
f 238/359/58 259/360/58 258/357/58
f 259/361/58 238/362/58 260/363/58
f 260/363/58 238/362/58 240/364/58
f 26/147/59 261/365/59 55/148/59
f 261/365/59 26/147/59 7/366/59
f 25/151/60 56/153/60 262/367/60
f 25/151/60 262/367/60 5/368/60
f 263/369/61 48/370/61 50/371/61
f 48/370/61 263/369/61 264/372/61
f 265/373/61 53/374/61 52/375/61
f 53/374/61 265/373/61 116/376/61
f 41/377/62 40/378/62 266/379/62
f 266/379/62 40/378/62 267/380/62
f 45/381/62 44/382/62 268/383/62
f 268/383/62 44/382/62 114/384/62
f 161/385/47 155/386/47 156/387/47
f 155/386/47 161/385/47 269/388/47
f 149/389/48 151/390/48 270/391/48
f 149/389/48 270/391/48 162/392/48
f 127/393/63 271/394/63 272/395/63
f 271/394/63 127/393/63 88/396/63
f 273/397/64 274/398/64 232/399/64
f 274/398/64 273/397/64 82/400/64
f 125/401/64 275/402/64 84/403/64
f 275/402/64 125/401/64 276/404/64
f 82/400/64 84/403/64 275/402/64
f 82/400/64 275/402/64 274/398/64
f 234/405/63 277/406/63 278/407/63
f 277/406/63 87/408/63 278/407/63
f 88/396/63 87/408/63 271/394/63
f 271/394/63 87/408/63 277/406/63
f 279/409/64 280/410/64 281/411/64
f 281/411/64 231/412/64 279/409/64
f 282/413/63 283/414/63 284/415/63
f 283/414/63 282/413/63 233/416/63
f 203/417/65 285/418/65 201/419/65
f 285/418/65 203/417/65 286/420/65
f 287/421/65 197/422/65 199/423/65
f 197/422/65 287/421/65 288/424/65
f 123/425/66 289/426/66 122/427/66
f 289/426/66 123/425/66 290/428/66
f 123/429/66 291/430/66 290/431/66
f 123/429/66 124/432/66 291/430/66
f 254/433/12 168/434/12 167/435/12
f 168/434/12 254/433/12 255/436/12
f 95/437/67 93/438/67 103/439/67
f 100/440/67 103/439/67 93/438/67
f 109/441/68 96/442/68 94/443/68
f 96/442/68 109/441/68 108/444/68
f 125/401/69 184/445/69 276/404/69
f 125/401/69 195/446/69 184/445/69
f 205/447/70 127/393/70 187/448/70
f 187/448/70 127/393/70 272/395/70
f 195/446/69 182/449/69 184/445/69
f 195/446/69 292/450/69 182/449/69
f 186/451/70 205/447/70 187/448/70
f 186/451/70 293/452/70 205/447/70
f 252/453/48 223/454/48 241/455/48
f 223/454/48 252/453/48 221/456/48
f 253/457/47 242/458/47 222/459/47
f 222/459/47 224/460/47 253/457/47
f 186/451/71 278/407/71 293/452/71
f 278/407/71 186/451/71 234/405/71
f 273/397/72 182/449/72 292/450/72
f 182/449/72 273/397/72 232/399/72
f 181/461/73 231/412/73 281/411/73
f 231/412/73 181/461/73 183/462/73
f 233/416/74 185/463/74 283/414/74
f 185/463/74 233/416/74 188/464/74
f 93/438/68 92/465/68 101/466/68
f 93/438/68 101/466/68 100/440/68
f 105/467/67 96/442/67 111/468/67
f 108/444/67 111/468/67 96/442/67
f 143/469/47 294/470/47 146/471/47
f 294/470/47 143/469/47 172/472/47
f 139/473/48 141/474/48 295/475/48
f 139/473/48 295/475/48 169/476/48
f 259/477/75 190/478/75 258/479/75
f 190/478/75 259/477/75 191/480/75
f 259/481/75 194/482/75 191/483/75
f 260/484/75 194/482/75 259/481/75
f 133/485/48 132/486/48 296/487/48
f 133/485/48 296/487/48 178/488/48
f 138/489/47 297/490/47 136/491/47
f 297/490/47 138/489/47 180/492/47
f 71/493/76 73/494/76 202/315/76
f 73/494/76 243/316/76 202/315/76
f 79/495/76 198/320/76 245/319/76
f 78/496/76 198/320/76 79/495/76
f 69/497/77 256/498/77 106/499/77
f 106/499/77 256/498/77 298/500/77
f 201/419/78 70/501/78 72/502/78
f 70/501/78 201/419/78 285/418/78
f 76/503/78 199/423/78 77/504/78
f 199/423/78 76/503/78 287/421/78
f 299/505/47 8/506/47 300/507/47
f 8/506/47 299/505/47 10/508/47
f 214/509/79 301/510/79 216/511/79
f 302/512/79 216/511/79 301/510/79
f 6/513/48 303/514/48 304/515/48
f 303/514/48 6/513/48 9/516/48
f 305/517/79 212/518/79 306/519/79
f 305/517/79 210/520/79 212/518/79
f 307/521/15 203/417/15 213/522/15
f 203/417/15 307/521/15 286/420/15
f 308/523/15 197/422/15 288/424/15
f 197/422/15 308/523/15 211/524/15
f 260/525/47 239/526/47 251/527/47
f 239/526/47 260/525/47 240/528/47
f 291/529/47 260/525/47 251/527/47
f 260/525/47 291/529/47 194/530/47
f 194/530/47 291/529/47 193/531/47
f 291/529/47 16/532/47 193/531/47
f 193/531/47 16/532/47 59/533/47
f 124/534/47 16/532/47 291/529/47
f 16/532/47 124/534/47 15/535/47
f 237/536/48 258/537/48 250/538/48
f 258/537/48 237/536/48 236/539/48
f 258/537/48 289/540/48 250/538/48
f 289/540/48 258/537/48 190/541/48
f 189/542/48 289/540/48 190/541/48
f 189/542/48 12/543/48 289/540/48
f 12/543/48 189/542/48 58/544/48
f 289/540/48 12/543/48 122/545/48
f 122/545/48 12/543/48 11/546/48
f 215/547/80 307/521/80 213/522/80
f 307/521/80 215/547/80 309/548/80
f 209/549/80 308/523/80 310/550/80
f 308/523/80 209/549/80 211/524/80
f 60/551/42 91/552/42 311/553/42
f 60/551/42 311/553/42 257/554/42
f 150/555/81 312/556/81 270/557/81
f 270/557/81 151/558/81 150/555/81
f 155/559/82 313/560/82 154/561/82
f 313/560/82 155/559/82 269/562/82
f 314/563/83 315/564/83 316/565/83
f 316/565/83 311/566/83 314/563/83
f 85/567/84 126/568/84 83/569/84
f 126/568/84 85/567/84 317/570/84
f 89/571/85 128/572/85 318/573/85
f 128/572/85 89/571/85 86/574/85
f 216/511/86 302/512/86 220/575/86
f 302/512/86 319/576/86 220/575/86
f 306/519/86 218/577/86 320/578/86
f 212/518/86 218/577/86 306/519/86
f 106/579/87 321/580/87 119/581/87
f 106/579/87 298/582/87 321/580/87
f 219/583/17 309/548/17 215/547/17
f 309/548/17 219/583/17 322/584/17
f 217/585/17 310/550/17 323/586/17
f 310/550/17 217/585/17 209/549/17
f 5/368/88 300/507/88 8/506/88
f 300/507/88 5/368/88 262/367/88
f 7/366/89 304/515/89 261/365/89
f 304/515/89 7/366/89 6/513/89
f 231/297/90 274/587/90 279/588/90
f 274/587/90 231/297/90 232/299/90
f 94/589/91 98/590/91 107/591/91
f 94/589/91 107/591/91 109/592/91
f 277/593/92 233/302/92 282/594/92
f 233/302/92 277/593/92 234/304/92
f 95/595/93 102/596/93 97/597/93
f 102/596/93 95/595/93 103/598/93
f 289/599/94 249/600/94 250/601/94
f 249/600/94 289/599/94 290/602/94
f 290/603/94 251/604/94 249/605/94
f 291/606/94 251/604/94 290/603/94
f 192/607/95 58/608/95 189/609/95
f 58/608/95 192/607/95 57/610/95
f 192/611/95 59/612/95 57/613/95
f 192/611/95 193/614/95 59/612/95
f 254/615/24 148/616/24 147/617/24
f 255/618/24 254/615/24 147/617/24
f 40/619/16 42/620/16 267/621/16
f 324/622/16 267/621/16 42/620/16
f 49/623/16 264/624/16 325/625/16
f 49/623/16 48/626/16 264/624/16
f 119/581/96 326/627/96 121/628/96
f 326/627/96 119/581/96 321/580/96
f 120/629/81 315/564/81 314/563/81
f 314/563/81 118/630/81 120/629/81
f 9/516/97 164/631/97 303/514/97
f 164/631/97 9/516/97 176/632/97
f 163/633/98 175/634/98 10/508/98
f 10/508/98 299/505/98 163/633/98
f 266/635/99 39/636/99 41/637/99
f 39/636/99 266/635/99 327/638/99
f 235/639/48 259/640/48 249/641/48
f 259/640/48 235/639/48 238/642/48
f 259/640/48 290/643/48 249/641/48
f 290/643/48 259/640/48 191/644/48
f 192/645/48 290/643/48 191/644/48
f 192/645/48 13/646/48 290/643/48
f 13/646/48 192/645/48 57/647/48
f 290/643/48 13/646/48 123/648/48
f 123/648/48 13/646/48 14/649/48
f 263/650/99 47/651/99 328/652/99
f 47/651/99 263/650/99 50/653/99
f 241/654/100 253/337/100 252/336/100
f 253/337/100 241/654/100 242/655/100
f 311/566/101 91/656/101 118/630/101
f 311/566/101 118/630/101 314/563/101
f 273/657/102 85/658/102 82/659/102
f 85/658/102 273/657/102 317/660/102
f 278/661/103 87/662/103 89/663/103
f 89/663/103 318/664/103 278/661/103
f 329/665/104 230/666/104 36/667/104
f 230/666/104 35/668/104 36/667/104
f 38/669/104 227/670/104 330/671/104
f 227/670/104 38/669/104 37/672/104
f 331/673/105 174/674/105 332/675/105
f 174/674/105 331/673/105 166/676/105
f 333/677/106 173/678/106 165/679/106
f 173/678/106 333/677/106 334/680/106
f 154/561/9 312/556/9 150/555/9
f 312/556/9 154/561/9 313/560/9
f 204/317/3 301/510/3 214/509/3
f 204/317/3 244/318/3 301/510/3
f 200/321/3 305/517/3 246/322/3
f 305/517/3 200/321/3 210/520/3
f 140/681/47 142/682/47 170/683/47
f 140/681/47 170/683/47 335/684/47
f 145/685/48 144/686/48 171/687/48
f 336/688/48 171/687/48 144/686/48
f 165/679/107 164/631/107 333/677/107
f 164/631/107 176/632/107 333/677/107
f 331/673/108 163/633/108 166/676/108
f 163/633/108 331/673/108 175/634/108
f 121/628/9 315/564/9 120/629/9
f 315/564/9 121/628/9 326/627/9
f 134/689/47 131/690/47 177/691/47
f 134/689/47 177/691/47 337/692/47
f 135/693/48 137/694/48 179/695/48
f 338/696/48 179/695/48 137/694/48
f 286/697/36 243/698/36 285/699/36
f 243/698/36 286/697/36 244/700/36
f 245/701/37 288/702/37 287/703/37
f 288/702/37 245/701/37 246/704/37
f 92/705/91 99/706/91 101/707/91
f 99/706/91 92/705/91 90/708/91
f 110/709/93 105/710/93 111/711/93
f 105/710/93 110/709/93 113/712/93
f 74/713/40 17/714/40 31/715/40
f 17/714/40 74/713/40 339/716/40
f 21/717/39 80/718/39 33/719/39
f 80/718/39 21/717/39 340/720/39
f 309/721/41 301/722/41 307/723/41
f 301/722/41 309/721/41 302/724/41
f 305/725/42 310/726/42 308/727/42
f 310/726/42 305/725/42 306/728/42
f 301/722/43 286/697/43 307/723/43
f 286/697/43 301/722/43 244/700/43
f 288/702/44 305/725/44 308/727/44
f 305/725/44 288/702/44 246/704/44
f 285/699/46 73/729/46 70/730/46
f 73/729/46 285/699/46 243/698/46
f 79/731/45 287/703/45 76/732/45
f 287/703/45 79/731/45 245/701/45
f 319/733/47 309/721/47 322/734/47
f 309/721/47 319/733/47 302/724/47
f 310/726/48 306/728/48 320/735/48
f 323/736/48 310/726/48 320/735/48
f 17/714/47 339/716/47 341/737/47
f 341/737/47 20/738/47 17/714/47
f 342/739/47 20/738/47 341/737/47
f 20/738/47 342/739/47 36/740/47
f 36/740/47 342/739/47 329/741/47
f 21/717/48 343/742/48 340/720/48
f 23/743/48 343/742/48 21/717/48
f 23/743/48 344/744/48 343/742/48
f 38/745/48 344/744/48 23/743/48
f 344/744/48 38/745/48 330/746/48
f 317/570/109 196/747/109 126/568/109
f 196/747/109 317/570/109 345/748/109
f 206/749/110 346/750/110 318/573/110
f 128/572/110 206/749/110 318/573/110
f 322/751/24 219/752/24 220/753/24
f 322/751/24 220/753/24 319/754/24
f 218/755/24 323/756/24 320/757/24
f 323/756/24 218/755/24 217/758/24
f 312/759/7 162/760/7 270/761/7
f 162/760/7 312/759/7 159/762/7
f 159/762/7 312/759/7 313/763/7
f 159/762/7 313/763/7 160/764/7
f 269/765/7 160/764/7 313/763/7
f 160/764/7 269/765/7 161/766/7
f 321/580/111 347/767/111 326/627/111
f 347/767/111 321/580/111 298/582/111
f 327/768/61 42/769/61 39/770/61
f 42/769/61 327/768/61 324/771/61
f 348/772/61 46/773/61 43/774/61
f 46/773/61 348/772/61 115/775/61
f 49/776/62 328/777/62 47/778/62
f 328/777/62 49/776/62 325/779/62
f 54/780/62 349/781/62 51/782/62
f 349/781/62 54/780/62 117/783/62
f 97/784/112 102/785/112 64/786/112
f 104/787/112 64/786/112 102/785/112
f 64/786/112 104/787/112 63/788/112
f 65/789/113 107/790/113 98/791/113
f 65/789/113 112/792/113 107/790/113
f 112/792/113 65/789/113 66/793/113
f 347/767/114 316/565/114 315/564/114
f 347/767/114 315/564/114 326/627/114
f 62/794/113 99/795/113 90/796/113
f 99/795/113 62/794/113 104/787/113
f 62/794/113 63/788/113 104/787/113
f 112/792/112 68/797/112 110/798/112
f 113/799/112 110/798/112 68/797/112
f 68/797/112 112/792/112 66/793/112
f 292/800/115 317/660/115 273/657/115
f 317/660/115 292/800/115 345/801/115
f 293/802/116 318/664/116 346/803/116
f 318/664/116 293/802/116 278/661/116
f 140/804/9 295/805/9 141/806/9
f 295/805/9 140/804/9 335/807/9
f 144/808/9 146/809/9 294/810/9
f 144/808/9 294/810/9 336/811/9
f 134/812/9 296/813/9 132/814/9
f 296/813/9 134/812/9 337/815/9
f 137/816/9 297/817/9 338/818/9
f 137/816/9 136/819/9 297/817/9
f 261/820/117 56/821/117 55/822/117
f 261/820/117 262/823/117 56/821/117
f 184/824/118 281/825/118 276/826/118
f 281/825/118 184/824/118 181/827/118
f 187/828/119 283/829/119 185/830/119
f 283/829/119 187/828/119 272/831/119
f 292/832/120 196/833/120 345/834/120
f 196/833/120 292/832/120 195/835/120
f 206/836/121 293/837/121 346/838/121
f 293/837/121 206/836/121 205/839/121
f 207/840/122 74/841/122 75/842/122
f 339/843/122 74/841/122 207/840/122
f 340/844/122 208/845/122 80/846/122
f 208/845/122 81/847/122 80/846/122
f 331/848/123 333/849/123 176/220/123
f 331/848/123 176/220/123 175/219/123
f 228/850/124 339/843/124 207/840/124
f 228/850/124 341/851/124 339/843/124
f 208/845/124 340/844/124 225/852/124
f 343/853/124 225/852/124 340/844/124
f 333/849/125 332/854/125 334/855/125
f 333/849/125 331/848/125 332/854/125
f 334/856/126 174/218/126 173/217/126
f 334/856/126 332/857/126 174/218/126
f 229/858/12 341/851/12 228/850/12
f 341/851/12 229/858/12 342/859/12
f 343/853/12 226/860/12 225/852/12
f 226/860/12 343/853/12 344/861/12
f 276/826/127 280/862/127 275/863/127
f 280/862/127 276/826/127 281/825/127
f 272/831/128 284/864/128 283/829/128
f 284/864/128 272/831/128 271/865/128
f 230/866/129 342/859/129 229/858/129
f 329/867/129 342/859/129 230/866/129
f 330/868/129 227/869/129 344/861/129
f 227/869/129 226/860/129 344/861/129
f 268/870/99 43/871/99 45/872/99
f 43/871/99 268/870/99 348/873/99
f 51/874/99 265/875/99 52/876/99
f 265/875/99 51/874/99 349/877/99
f 280/878/130 274/879/130 275/880/130
f 274/879/130 280/878/130 279/881/130
f 271/882/131 277/883/131 284/884/131
f 284/884/131 277/883/131 282/885/131
f 327/886/24 266/887/24 267/888/24
f 327/886/24 267/888/24 324/889/24
f 348/890/24 268/891/24 114/892/24
f 348/890/24 114/892/24 115/893/24
f 328/894/24 264/895/24 263/896/24
f 264/895/24 328/894/24 325/897/24
f 349/898/24 116/899/24 265/900/24
f 116/899/24 349/898/24 117/901/24
f 163/902/132 303/903/132 164/904/132
f 303/903/132 163/902/132 299/905/132
f 303/903/122 300/906/122 304/907/122
f 303/903/122 299/905/122 300/906/122
f 304/907/133 262/823/133 261/820/133
f 304/907/133 300/906/133 262/823/133
