# Roblox asset pack: quetzalcoatlus_northropi (creatures), from the Studio model "QuetzalcoatlusNorthropi". Exported with Export Selection, split by tools/build_creatures.py: one object per rigid body. Units: studs. +Y up, front faces -Z, pivot (bottom centre) at the origin.
mtllib quetzalcoatlus_northropi.mtl

v 0.42490 4.25000 8.62000
v 0.42490 4.25000 9.89000
v 0.42490 3.40000 8.62000
v 0.42490 3.40000 9.89000
v -0.42510 4.25000 9.89000
v -0.42510 4.25000 8.62000
v -0.42510 3.40000 9.89000
v -0.42510 3.40000 8.62000
v -6.37510 4.04000 3.52000
v -6.37510 4.04000 6.92000
v -6.37510 3.61000 3.52000
v -6.37510 3.61000 6.92000
v -8.07510 4.04000 6.92000
v -8.07510 4.04000 3.52000
v -8.07510 3.61000 6.92000
v -8.07510 3.61000 3.52000
v -1.27510 4.04000 3.52000
v -1.27510 4.04000 4.37000
v -1.27510 3.61000 3.52000
v -1.27510 3.61000 4.37000
v -4.67510 4.04000 4.37000
v -4.67510 4.04000 3.52000
v -4.67510 3.61000 4.37000
v -4.67510 3.61000 3.52000
v -0.85010 4.04000 4.37000
v -0.85010 4.04000 7.77000
v -0.85010 3.61000 4.37000
v -0.85010 3.61000 7.77000
v -4.67510 4.04000 7.77000
v -4.67510 3.61000 7.77000
v -1.70010 4.04000 7.77000
v -1.70010 4.04000 9.47000
v -1.70010 3.61000 7.77000
v -1.70010 3.61000 9.47000
v -4.67510 4.04000 9.47000
v -4.67510 3.61000 9.47000
v -4.67510 4.04000 8.62000
v -4.67510 3.61000 8.62000
v -6.37510 4.04000 8.62000
v -6.37510 3.61000 8.62000
v -8.07510 4.04000 3.94000
v -8.07510 4.04000 6.07000
v -8.07510 3.61000 3.94000
v -8.07510 3.61000 6.07000
v -12.32510 4.04000 6.07000
v -12.32510 4.04000 3.94000
v -12.32510 3.61000 6.07000
v -12.32510 3.61000 3.94000
v -3.68910 4.25000 4.18000
v -4.04910 4.25000 4.96000
v -3.68910 3.40000 4.18000
v -4.04910 3.40000 4.96000
v -6.36010 4.25000 3.88000
v -6.00010 4.25000 3.11000
v -6.36010 3.40000 3.88000
v -6.00010 3.40000 3.11000
v -1.01310 4.25000 3.63000
v -0.86510 4.25000 4.47000
v -1.01310 3.40000 3.63000
v -0.86510 3.40000 4.47000
v -4.21410 4.25000 5.06000
v -4.36110 4.25000 4.23000
v -4.21410 3.40000 5.06000
v -4.36110 3.40000 4.23000
v -5.98610 4.25000 3.06000
v -5.91210 4.25000 3.90000
v -5.98610 3.40000 3.06000
v -5.91210 3.40000 3.90000
v -12.68610 4.25000 4.50000
v -12.76010 4.25000 3.65000
v -12.68610 3.40000 4.50000
v -12.76010 3.40000 3.65000
v -6.02310 4.25000 2.63000
v -6.02310 3.40000 2.63000
v -6.83310 4.25000 3.13000
v -6.87010 4.25000 2.71000
v -6.83310 3.40000 3.13000
v -6.87010 3.40000 2.71000
v 1.69990 2.55000 8.62000
v 1.69990 0.85000 8.62000
v 1.69990 2.55000 7.77000
v 1.69990 0.85000 7.77000
v 0.84990 0.85000 8.62000
v 0.84990 2.55000 8.62000
v 0.84990 0.85000 7.77000
v 0.84990 2.55000 7.77000
v 1.69990 4.25000 8.62000
v 1.69990 4.25000 6.92000
v 1.69990 2.55000 6.92000
v 0.84990 4.25000 8.62000
v 0.84990 2.55000 6.92000
v 0.84990 4.25000 6.92000
v 1.69990 0.85000 8.19000
v 1.69990 0.00000 8.19000
v 1.69990 0.85000 7.34000
v 1.69990 0.00000 7.34000
v 0.84990 0.00000 8.19000
v 0.84990 0.85000 8.19000
v 0.84990 0.00000 7.34000
v 0.84990 0.85000 7.34000
v 1.06190 5.31000 -6.26000
v 1.06190 5.31000 -5.41000
v 1.06190 4.04000 -6.26000
v 1.06190 4.04000 -5.41000
v -1.06210 5.31000 -5.41000
v -1.06210 5.31000 -6.26000
v -1.06210 4.04000 -5.41000
v -1.06210 4.04000 -6.26000
v 1.27490 3.53000 -6.29000
v 1.27490 3.77000 -3.54000
v 1.27490 2.68000 -6.22000
v 1.27490 2.92000 -3.47000
v -1.27510 3.77000 -3.54000
v -1.27510 3.53000 -6.29000
v -1.27510 2.92000 -3.47000
v -1.27510 2.68000 -6.22000
v 1.06190 4.46000 -5.41000
v 1.06190 4.46000 -2.86000
v 1.06190 4.04000 -2.86000
v -1.06210 4.46000 -2.86000
v -1.06210 4.46000 -5.41000
v -1.06210 4.04000 -2.86000
v 1.06190 5.31000 -6.08000
v 1.06190 5.86000 -2.94000
v 1.06190 4.68000 -5.97000
v 1.06190 5.23000 -2.83000
v -1.06210 5.86000 -2.94000
v -1.06210 5.31000 -6.08000
v -1.06210 5.23000 -2.83000
v -1.06210 4.68000 -5.97000
v 0.42490 4.81000 -9.04000
v 0.42490 6.41000 -3.08000
v 0.42490 3.99000 -8.82000
v 0.42490 5.59000 -2.86000
v -0.42510 6.41000 -3.08000
v -0.42510 4.81000 -9.04000
v -0.42510 5.59000 -2.86000
v -0.42510 3.99000 -8.82000
v 1.06190 5.31000 -3.28000
v 1.06190 5.31000 -2.86000
v 1.06190 4.46000 -3.28000
v -1.06210 5.31000 -2.86000
v -1.06210 5.31000 -3.28000
v -1.06210 4.46000 -3.28000
v 0.63690 4.72000 -9.89000
v 0.63690 5.05000 -6.08000
v 0.63690 3.87000 -9.82000
v 0.63690 4.21000 -6.01000
v -0.63710 5.05000 -6.08000
v -0.63710 4.72000 -9.89000
v -0.63710 4.21000 -6.01000
v -0.63710 3.87000 -9.82000
v 1.27490 3.98000 -3.56000
v 1.27490 4.18000 -1.23000
v 1.27490 3.13000 -1.14000
v -1.27510 4.18000 -1.23000
v -1.27510 3.98000 -3.56000
v -1.27510 3.13000 -1.14000
v 0.83990 3.23000 -9.68000
v 0.83990 3.53000 -6.29000
v 0.83990 2.60000 -9.62000
v 0.83990 2.89000 -6.24000
v -0.86010 3.53000 -6.29000
v -0.86010 3.23000 -9.68000
v -0.86010 2.89000 -6.24000
v -0.86010 2.60000 -9.62000
v 0.84990 5.31000 -5.62000
v 0.84990 5.31000 -3.07000
v 0.84990 4.46000 -5.62000
v 0.84990 4.46000 -3.07000
v -0.85010 5.31000 -3.07000
v -0.85010 5.31000 -5.62000
v -0.85010 4.46000 -3.07000
v -0.85010 4.46000 -5.62000
v 1.16890 5.31000 -2.65000
v 1.16890 5.31000 -1.80000
v 1.16890 4.46000 -2.65000
v 1.16890 4.46000 -1.80000
v -1.16910 5.31000 -1.80000
v -1.16910 5.31000 -2.65000
v -1.16910 4.46000 -1.80000
v -1.16910 4.46000 -2.65000
v 0.63690 4.98000 -1.75000
v 0.63690 4.21000 1.13000
v 0.63690 3.74000 -2.08000
v 0.63690 2.97000 0.80000
v -0.63710 4.21000 1.13000
v -0.63710 4.98000 -1.75000
v -0.63710 2.97000 0.80000
v -0.63710 3.74000 -2.08000
v 0.21290 8.57000 -0.63000
v 0.21290 8.99000 0.11000
v 0.21290 7.28000 0.11000
v 0.21290 7.70000 0.85000
v -0.21210 8.99000 0.11000
v -0.21210 8.57000 -0.63000
v -0.21210 7.70000 0.85000
v -0.21210 7.28000 0.11000
v 0.21290 7.72000 -2.10000
v 0.21290 5.32000 -0.72000
v 0.21290 6.17000 0.75000
v -0.21210 7.72000 -2.10000
v -0.21210 6.17000 0.75000
v -0.21210 5.32000 -0.72000
v 0.84990 4.22000 0.73000
v 0.84990 4.22000 3.70000
v 0.84990 2.95000 0.73000
v 0.84990 2.95000 3.70000
v -0.85010 4.22000 3.70000
v -0.85010 4.22000 0.73000
v -0.85010 2.95000 3.70000
v -0.85010 2.95000 0.73000
v 1.06190 5.74000 -2.86000
v 1.06190 5.74000 -1.16000
v 1.06190 3.61000 -2.86000
v 1.06190 3.61000 -1.16000
v -1.06210 5.74000 -1.16000
v -1.06210 5.74000 -2.86000
v -1.06210 3.61000 -1.16000
v -1.06210 3.61000 -2.86000
v 0.63790 3.45000 -7.56000
v 0.63790 4.15000 -3.58000
v 0.63790 3.04000 -7.48000
v 0.63790 3.74000 -3.51000
v -0.63710 4.15000 -3.58000
v -0.63710 3.45000 -7.56000
v -0.63710 3.74000 -3.51000
v -0.63710 3.04000 -7.48000
v 0.63690 5.53000 -4.99000
v 0.63690 7.62000 -3.53000
v 0.63690 3.46000 -2.03000
v 0.63690 5.55000 -0.57000
v -0.63710 7.62000 -3.53000
v -0.63710 5.53000 -4.99000
v -0.63710 5.55000 -0.57000
v -0.63710 3.46000 -2.03000
v 0.84990 2.52000 0.73000
v 0.84990 2.52000 3.70000
v -0.85010 2.52000 3.70000
v -0.85010 2.52000 0.73000
v 0.63690 3.74000 -2.07000
v 0.63690 3.33000 -2.18000
v 0.63690 2.56000 0.69000
v -0.63710 3.74000 -2.07000
v -0.63710 2.56000 0.69000
v -0.63710 3.33000 -2.18000
v 0.42490 6.20000 -3.89000
v 0.42490 8.00000 -2.09000
v 0.42490 3.94000 -1.64000
v 0.42490 5.75000 0.16000
v -0.42510 8.00000 -2.09000
v -0.42510 6.20000 -3.89000
v -0.42510 5.75000 0.16000
v -0.42510 3.94000 -1.64000
v 1.17390 5.31000 -2.65000
v 1.17390 5.31000 -1.80000
v 1.17390 4.46000 -2.65000
v 1.17390 4.46000 -1.80000
v -1.17410 5.31000 -1.80000
v -1.17410 5.31000 -2.65000
v -1.17410 4.46000 -1.80000
v -1.17410 4.46000 -2.65000
v 1.27490 4.68000 3.52000
v 1.27490 4.68000 6.07000
v 1.27490 2.12000 3.52000
v 1.27490 2.12000 6.07000
v -1.27510 4.68000 6.07000
v -1.27510 4.68000 3.52000
v -1.27510 2.12000 6.07000
v -1.27510 2.12000 3.52000
v 0.84990 2.55000 3.09000
v 0.84990 2.55000 6.49000
v 0.84990 1.70000 3.09000
v 0.84990 1.70000 6.49000
v -0.85010 2.55000 6.49000
v -0.85010 2.55000 3.09000
v -0.85010 1.70000 6.49000
v -0.85010 1.70000 3.09000
v 0.84990 2.55000 6.07000
v 0.84990 2.12000 6.07000
v 0.84990 2.12000 8.62000
v -0.85010 2.55000 8.62000
v -0.85010 2.55000 6.07000
v -0.85010 2.12000 8.62000
v -0.85010 2.12000 6.07000
v 0.84990 4.25000 6.07000
v -0.85010 4.25000 8.62000
v -0.85010 4.25000 6.07000
v -0.85010 4.25000 6.92000
v -0.85010 2.55000 6.92000
v -1.70010 2.55000 8.62000
v -1.70010 4.25000 8.62000
v -1.70010 2.55000 6.92000
v -1.70010 4.25000 6.92000
v -0.85010 0.85000 8.62000
v -0.85010 2.55000 7.77000
v -0.85010 0.85000 7.77000
v -1.70010 0.85000 8.62000
v -1.70010 0.85000 7.77000
v -1.70010 2.55000 7.77000
v -0.85010 0.85000 8.19000
v -0.85010 0.00000 8.19000
v -0.85010 0.85000 7.34000
v -0.85010 0.00000 7.34000
v -1.70010 0.00000 8.19000
v -1.70010 0.85000 8.19000
v -1.70010 0.00000 7.34000
v -1.70010 0.85000 7.34000
v 4.67490 4.04000 7.77000
v 4.67490 4.04000 9.47000
v 4.67490 3.61000 7.77000
v 4.67490 3.61000 9.47000
v 1.69990 4.04000 9.47000
v 1.69990 4.04000 7.77000
v 1.69990 3.61000 9.47000
v 1.69990 3.61000 7.77000
v 6.37490 4.04000 3.52000
v 6.37490 4.04000 8.62000
v 6.37490 3.61000 3.52000
v 6.37490 3.61000 8.62000
v 4.67490 4.04000 8.62000
v 4.67490 4.04000 3.52000
v 4.67490 3.61000 8.62000
v 4.67490 3.61000 3.52000
v 4.67490 4.04000 4.37000
v 4.67490 3.61000 4.37000
v 0.84990 4.04000 7.77000
v 0.84990 4.04000 4.37000
v 0.84990 3.61000 7.77000
v 0.84990 3.61000 4.37000
v 8.07490 4.04000 3.52000
v 8.07490 4.04000 6.92000
v 8.07490 3.61000 3.52000
v 8.07490 3.61000 6.92000
v 6.37490 4.04000 6.92000
v 6.37490 3.61000 6.92000
v 1.27490 4.04000 4.37000
v 1.27490 4.04000 3.52000
v 1.27490 3.61000 4.37000
v 1.27490 3.61000 3.52000
v 12.32490 4.04000 3.94000
v 12.32490 4.04000 6.07000
v 12.32490 3.61000 3.94000
v 12.32490 3.61000 6.07000
v 8.07490 4.04000 6.07000
v 8.07490 4.04000 3.94000
v 8.07490 3.61000 6.07000
v 8.07490 3.61000 3.94000
v 12.75990 4.25000 3.65000
v 12.68590 4.25000 4.50000
v 12.75990 3.40000 3.65000
v 12.68590 3.40000 4.50000
v 5.91190 4.25000 3.90000
v 5.98590 4.25000 3.06000
v 5.91190 3.40000 3.90000
v 5.98590 3.40000 3.06000
v 4.36090 4.25000 4.23000
v 4.21390 4.25000 5.06000
v 4.36090 3.40000 4.23000
v 4.21390 3.40000 5.06000
v 0.86490 4.25000 4.47000
v 1.01290 4.25000 3.63000
v 0.86490 3.40000 4.47000
v 1.01290 3.40000 3.63000
v 5.99990 4.25000 3.11000
v 6.35990 4.25000 3.88000
v 5.99990 3.40000 3.11000
v 6.35990 3.40000 3.88000
v 4.04890 4.25000 4.96000
v 3.68890 4.25000 4.18000
v 4.04890 3.40000 4.96000
v 3.68890 3.40000 4.18000
v 6.86990 4.25000 2.71000
v 6.83290 4.25000 3.13000
v 6.86990 3.40000 2.71000
v 6.83290 3.40000 3.13000
v 6.02290 4.25000 2.63000
v 6.02290 3.40000 2.63000
vt 4.90937 -3.00000
vt 4.75000 -3.00000
vt 4.90937 -3.10625
vt 4.75000 -3.10625
vt 4.85625 -3.00000
vt 4.85625 -3.15937
vt 4.75000 -3.15937
vt 4.85625 -3.10625
vt 7.17500 -3.25000
vt 6.75000 -3.25000
vt 7.17500 -3.30312
vt 6.75000 -3.30312
vt 6.96250 -3.25000
vt 6.96250 -3.67500
vt 6.75000 -3.67500
vt 6.96250 -3.30312
vt 5.35625 0.50000
vt 5.25000 0.50000
vt 5.35625 0.44688
vt 5.25000 0.44688
vt 5.67500 0.50000
vt 5.67500 0.39375
vt 5.25000 0.39375
vt 5.67500 0.44688
vt 0.67500 -0.25000
vt 0.25000 -0.25000
vt 0.67500 -0.30312
vt 0.25000 -0.30312
vt 0.72812 -0.25000
vt 0.72812 -0.67500
vt 0.25000 -0.67500
vt 0.72812 -0.30312
vt 4.21250 -1.75000
vt 4.00000 -1.75000
vt 4.21250 -1.80312
vt 4.00000 -1.80312
vt 4.37187 -1.75000
vt 4.37187 -1.96250
vt 4.00000 -1.96250
vt 4.37187 -1.80312
vt 5.88750 -4.50000
vt 5.25000 -4.50000
vt 5.88750 -4.55312
vt 5.25000 -4.55312
vt 5.46250 -4.50000
vt 5.46250 -5.13750
vt 5.25000 -5.13750
vt 5.46250 -4.55312
vt 1.26562 -5.25000
vt 1.00000 -5.25000
vt 1.26562 -5.30312
vt 1.00000 -5.30312
vt 1.53125 -5.25000
vt 1.53125 -5.51562
vt 1.00000 -5.51562
vt 1.53125 -5.30312
vt 2.10625 -4.50000
vt 2.00000 -4.50000
vt 2.10625 -4.60625
vt 2.00000 -4.60625
vt 2.31875 -4.50000
vt 2.31875 -4.60625
vt 7.35625 -5.75000
vt 7.25000 -5.75000
vt 7.35625 -5.85625
vt 7.25000 -5.85625
vt 7.67500 -5.75000
vt 7.67500 -5.85625
vt 7.10625 -0.50000
vt 7.00000 -0.50000
vt 7.10625 -0.60625
vt 7.00000 -0.60625
vt 7.85000 -0.50000
vt 7.85000 -0.60625
vt 7.05312 1.00000
vt 7.00000 1.00000
vt 7.05312 0.89375
vt 7.00000 0.89375
vt 7.10625 1.00000
vt 7.10625 0.94688
vt 7.00000 0.94688
vt 7.10625 0.89375
vt 2.71250 -4.75000
vt 2.50000 -4.75000
vt 2.71250 -4.85625
vt 2.50000 -4.85625
vt 2.60625 -4.75000
vt 2.60625 -4.96250
vt 2.50000 -4.96250
vt 2.60625 -4.85625
vt 0.71250 -4.50000
vt 0.50000 -4.50000
vt 0.71250 -4.71250
vt 0.50000 -4.71250
vt 0.60625 -4.50000
vt 0.60625 -4.71250
vt 6.35625 -4.25000
vt 6.25000 -4.25000
vt 6.35625 -4.35625
vt 6.25000 -4.35625
vt 0.10625 -5.00000
vt 0.00000 -5.00000
vt 0.10625 -5.15937
vt 0.00000 -5.15937
vt 0.26562 -5.00000
vt 0.26562 -5.10625
vt 0.00000 -5.10625
vt 0.26562 -5.15937
vt 1.34531 0.00000
vt 1.00000 0.00000
vt 1.34531 -0.10625
vt 1.00000 -0.10625
vt 1.31875 0.00000
vt 1.31875 -0.34531
vt 1.00000 -0.34531
vt 1.31875 -0.10625
vt 3.81875 0.50000
vt 3.50000 0.50000
vt 3.81875 0.44688
vt 3.50000 0.44688
vt 3.76562 0.50000
vt 3.76562 0.18125
vt 3.50000 0.18125
vt 3.76562 0.44688
vt 4.89844 -2.50000
vt 4.50000 -2.50000
vt 4.89844 -2.57969
vt 4.50000 -2.57969
vt 4.76562 -2.50000
vt 4.76562 -2.89844
vt 4.50000 -2.89844
vt 4.76562 -2.57969
vt 6.77031 -0.50000
vt 6.00000 -0.50000
vt 6.77031 -0.60625
vt 6.00000 -0.60625
vt 6.10625 -0.50000
vt 6.10625 -1.27031
vt 6.00000 -1.27031
vt 6.10625 -0.60625
vt 5.05312 -6.25000
vt 5.00000 -6.25000
vt 5.05312 -6.35625
vt 5.00000 -6.35625
vt 5.26562 -6.25000
vt 5.26562 -6.30312
vt 5.00000 -6.30312
vt 5.26562 -6.35625
vt 2.47812 0.50000
vt 2.00000 0.50000
vt 2.47812 0.39375
vt 2.00000 0.39375
vt 2.15937 0.50000
vt 2.15937 0.02188
vt 2.00000 0.02188
vt 2.15937 0.39375
vt 5.54219 -0.75000
vt 5.25000 -0.75000
vt 5.54219 -0.88281
vt 5.25000 -0.88281
vt 5.56875 -0.75000
vt 5.56875 -1.04219
vt 5.25000 -1.04219
vt 5.56875 -0.88281
vt 1.67500 -4.25000
vt 1.25000 -4.25000
vt 1.67500 -4.32969
vt 1.25000 -4.32969
vt 1.46250 -4.25000
vt 1.46250 -4.67500
vt 1.25000 -4.67500
vt 1.46250 -4.32969
vt 6.06875 -5.75000
vt 5.75000 -5.75000
vt 6.06875 -5.85625
vt 5.75000 -5.85625
vt 5.96250 -5.75000
vt 5.96250 -6.06875
vt 5.75000 -6.06875
vt 5.96250 -5.85625
vt 0.35625 -5.50000
vt 0.25000 -5.50000
vt 0.35625 -5.60625
vt 0.25000 -5.60625
vt 0.54219 -5.50000
vt 0.54219 -5.60625
vt 2.87187 -6.75000
vt 2.50000 -6.75000
vt 2.87187 -6.90937
vt 2.50000 -6.90937
vt 2.65937 -6.75000
vt 2.65937 -7.12187
vt 2.50000 -7.12187
vt 2.65937 -6.90937
vt 6.10625 -3.50000
vt 6.00000 -3.50000
vt 6.10625 -3.68594
vt 6.00000 -3.68594
vt 6.05312 -3.50000
vt 6.05312 -3.60625
vt 6.00000 -3.60625
vt 6.05312 -3.68594
vt 5.21250 -4.50000
vt 5.00000 -4.50000
vt 5.21250 -4.84531
vt 5.00000 -4.84531
vt 5.05312 -4.50000
vt 5.05312 -4.71250
vt 5.00000 -4.71250
vt 5.05312 -4.84531
vt 0.37188 -3.50000
vt 0.00000 -3.50000
vt 0.37188 -3.65937
vt 0.00000 -3.65937
vt 0.21250 -3.50000
vt 0.21250 -3.87187
vt 0.00000 -3.87187
vt 0.21250 -3.65937
vt 5.46250 -5.50000
vt 5.25000 -5.50000
vt 5.46250 -5.76562
vt 5.25000 -5.76562
vt 5.51562 -5.50000
vt 5.51562 -5.71250
vt 5.25000 -5.71250
vt 5.51562 -5.76562
vt 7.25469 -6.50000
vt 6.75000 -6.50000
vt 7.25469 -6.55312
vt 6.75000 -6.55312
vt 6.90937 -6.50000
vt 6.90937 -7.00469
vt 6.75000 -7.00469
vt 6.90937 -6.55312
vt 4.56875 0.25000
vt 4.25000 0.25000
vt 4.56875 -0.20156
vt 4.25000 -0.20156
vt 4.40937 0.25000
vt 4.40937 -0.06875
vt 4.25000 -0.06875
vt 4.40937 -0.20156
vt 0.37188 -1.50000
vt 0.00000 -1.50000
vt 0.37188 -1.55312
vt 0.00000 -1.55312
vt 0.21250 -1.50000
vt 0.21250 -1.87187
vt 0.00000 -1.87187
vt 0.21250 -1.55312
vt 7.87187 -3.50000
vt 7.50000 -3.50000
vt 7.87187 -3.55312
vt 7.50000 -3.55312
vt 7.65937 -3.50000
vt 7.65937 -3.87187
vt 7.50000 -3.87187
vt 7.65937 -3.55312
vt 4.81875 -2.25000
vt 4.50000 -2.25000
vt 4.81875 -2.64844
vt 4.50000 -2.64844
vt 4.60625 -2.25000
vt 4.60625 -2.56875
vt 4.50000 -2.56875
vt 4.60625 -2.64844
vt 1.00000 1.00000
vt 0.00000 1.00000
vt 0.00000 0.00000
vt 7.06875 0.50000
vt 6.75000 0.50000
vt 7.06875 0.18125
vt 6.75000 0.18125
vt 7.92500 0.50000
vt 7.50000 0.50000
vt 7.92500 0.39375
vt 7.50000 0.39375
vt 7.71250 0.50000
vt 7.71250 0.07500
vt 7.50000 0.07500
vt 7.71250 0.39375
vt 3.31875 0.25000
vt 3.00000 0.25000
vt 3.31875 0.19688
vt 3.00000 0.19688
vt 3.21250 0.25000
vt 3.21250 -0.06875
vt 3.00000 -0.06875
vt 3.21250 0.19688
vt 7.56875 -3.25000
vt 7.25000 -3.25000
vt 7.56875 -3.46250
vt 7.25000 -3.46250
vt 7.46250 -3.25000
vt 7.46250 -3.56875
vt 7.25000 -3.56875
vt 7.46250 -3.46250
vt 4.96250 -4.50000
vt 4.75000 -4.50000
vt 4.96250 -4.71250
vt 4.75000 -4.71250
vt 4.85625 -4.50000
vt 4.85625 -4.71250
vt 4.96250 0.25000
vt 4.75000 0.25000
vt 4.96250 0.14375
vt 4.75000 0.14375
vt 4.85625 0.25000
vt 4.85625 0.03750
vt 4.75000 0.03750
vt 4.85625 0.14375
vt 7.10625 -0.75000
vt 7.00000 -0.75000
vt 7.10625 -0.85625
vt 7.00000 -0.85625
vt 4.71250 -6.75000
vt 4.50000 -6.75000
vt 4.71250 -6.80312
vt 4.50000 -6.80312
vt 4.87187 -6.75000
vt 4.87187 -6.96250
vt 4.50000 -6.96250
vt 4.87187 -6.80312
vt 4.63750 -5.50000
vt 4.00000 -5.50000
vt 4.63750 -5.55312
vt 4.00000 -5.55312
vt 4.21250 -5.50000
vt 4.21250 -6.13750
vt 4.00000 -6.13750
vt 4.21250 -5.55312
vt 4.92500 -0.25000
vt 4.50000 -0.25000
vt 4.92500 -0.30312
vt 4.50000 -0.30312
vt 4.97812 -0.25000
vt 4.97812 -0.67500
vt 4.50000 -0.67500
vt 4.97812 -0.30312
vt 2.92500 -0.50000
vt 2.50000 -0.50000
vt 2.92500 -0.55312
vt 2.50000 -0.55312
vt 2.71250 -0.50000
vt 2.71250 -0.92500
vt 2.50000 -0.92500
vt 2.71250 -0.55312
vt 2.10625 -0.50000
vt 2.00000 -0.50000
vt 2.10625 -0.55312
vt 2.00000 -0.55312
vt 2.42500 -0.50000
vt 2.42500 -0.60625
vt 2.00000 -0.60625
vt 2.42500 -0.55312
vt 5.51562 -3.00000
vt 5.25000 -3.00000
vt 5.51562 -3.05312
vt 5.25000 -3.05312
vt 5.78125 -3.00000
vt 5.78125 -3.26562
vt 5.25000 -3.26562
vt 5.78125 -3.05312
vt 4.10625 -5.50000
vt 4.10625 -5.60625
vt 4.00000 -5.60625
vt 4.85000 -5.50000
vt 4.85000 -5.60625
vt 6.35625 0.75000
vt 6.25000 0.75000
vt 6.35625 0.64375
vt 6.25000 0.64375
vt 6.67500 0.75000
vt 6.67500 0.64375
vt 1.85625 -3.50000
vt 1.75000 -3.50000
vt 1.85625 -3.60625
vt 1.75000 -3.60625
vt 2.06875 -3.50000
vt 2.06875 -3.60625
vt 6.55312 -5.75000
vt 6.50000 -5.75000
vt 6.55312 -5.85625
vt 6.50000 -5.85625
vt 6.60625 -5.75000
vt 6.60625 -5.80312
vt 6.50000 -5.80312
vt 6.60625 -5.85625
vn 1.0000 0.0000 0.0000
vn 0.0000 1.0000 0.0000
vn 0.0000 0.0000 1.0000
vn -1.0000 0.0000 0.0000
vn 0.0000 -1.0000 0.0000
vn 0.0000 0.0000 -1.0000
vn 0.9055 0.0000 0.4252
vn -0.4252 0.0000 0.9055
vn -0.9055 0.0000 -0.4252
vn 0.4252 0.0000 -0.9055
vn 0.9843 0.0000 -0.1732
vn 0.1732 0.0000 0.9843
vn -0.9843 0.0000 0.1732
vn -0.1732 0.0000 -0.9843
vn 1.0000 0.0000 -0.0866
vn 0.0866 0.0000 1.0000
vn -1.0000 0.0000 0.0866
vn -0.0866 0.0000 -1.0000
vn 0.0000 1.0000 -0.0866
vn 0.0000 0.0866 1.0000
vn 0.0000 -1.0000 0.0866
vn 0.0000 -0.0866 -1.0000
vn 0.0000 0.9843 -0.1732
vn 0.0000 0.1732 0.9843
vn 0.0000 -0.9843 0.1732
vn 0.0000 -0.1732 -0.9843
vn 0.0000 0.9685 -0.2598
vn 0.0000 0.2598 0.9685
vn 0.0000 -0.9685 0.2598
vn 0.0000 -0.2598 -0.9685
vn 0.0000 0.9685 0.2598
vn 0.0000 -0.2598 0.9685
vn 0.0000 -0.9685 -0.2598
vn 0.0000 0.2598 -0.9685
vn 0.0000 0.8661 -0.5039
vn 0.0000 0.5039 0.8661
vn 0.0000 -0.8661 0.5039
vn 0.0000 -0.5039 -0.8661
vn 0.0000 0.5748 -0.8189
vn 0.0000 0.8189 0.5748
vn 0.0000 -0.5748 0.8189
vn 0.0000 -0.8189 -0.5748
vn 0.0000 0.7087 -0.7087
vn 0.0000 0.7087 0.7087
vn 0.0000 -0.7087 0.7087
vn 0.0000 -0.7087 -0.7087
vn 1.0000 0.0000 0.0866
vn -0.0866 0.0000 1.0000
vn -1.0000 0.0000 -0.0866
vn 0.0866 0.0000 -1.0000
vn 0.9843 0.0000 0.1732
vn -0.1732 0.0000 0.9843
vn -0.9843 0.0000 -0.1732
vn 0.1732 0.0000 -0.9843
vn 0.9055 0.0000 -0.4252
vn 0.4252 0.0000 0.9055
vn -0.9055 0.0000 0.4252
vn -0.4252 0.0000 -0.9055

o Tail
usemtl c_0989cf
f 1/1/1 2/2/1 3/3/1
f 3/3/1 2/2/1 4/4/1
f 5/5/2 2/2/2 6/6/2
f 6/6/2 2/2/2 1/7/2
f 2/5/3 5/2/3 4/8/3
f 4/8/3 5/2/3 7/4/3
f 5/1/4 6/2/4 7/3/4
f 7/3/4 6/2/4 8/4/4
f 8/5/5 3/2/5 7/6/5
f 7/6/5 3/2/5 4/7/5
f 6/5/6 1/2/6 8/8/6
f 8/8/6 1/2/6 3/4/6
o LeftUpperArm
usemtl c_80bbdb
f 9/9/1 10/10/1 11/11/1
f 11/11/1 10/10/1 12/12/1
f 13/13/2 10/10/2 14/14/2
f 14/14/2 10/10/2 9/15/2
f 10/13/3 13/10/3 12/16/3
f 12/16/3 13/10/3 15/12/3
f 13/9/4 14/10/4 15/11/4
f 15/11/4 14/10/4 16/12/4
f 16/13/5 11/10/5 15/14/5
f 15/14/5 11/10/5 12/15/5
f 14/13/6 9/10/6 16/16/6
f 16/16/6 9/10/6 11/12/6
f 17/17/1 18/18/1 19/19/1
f 19/19/1 18/18/1 20/20/1
f 21/21/2 18/18/2 22/22/2
f 22/22/2 18/18/2 17/23/2
f 18/21/3 21/18/3 20/24/3
f 20/24/3 21/18/3 23/20/3
f 21/17/4 22/18/4 23/19/4
f 23/19/4 22/18/4 24/20/4
f 24/21/5 19/18/5 23/22/5
f 23/22/5 19/18/5 20/23/5
f 22/21/6 17/18/6 24/24/6
f 24/24/6 17/18/6 19/20/6
f 25/25/1 26/26/1 27/27/1
f 27/27/1 26/26/1 28/28/1
f 29/29/2 26/26/2 21/30/2
f 21/30/2 26/26/2 25/31/2
f 26/29/3 29/26/3 28/32/3
f 28/32/3 29/26/3 30/28/3
f 29/25/4 21/26/4 30/27/4
f 30/27/4 21/26/4 23/28/4
f 23/29/5 27/26/5 30/30/5
f 30/30/5 27/26/5 28/31/5
f 21/29/6 25/26/6 23/32/6
f 23/32/6 25/26/6 27/28/6
f 31/33/1 32/34/1 33/35/1
f 33/35/1 32/34/1 34/36/1
f 35/37/2 32/34/2 29/38/2
f 29/38/2 32/34/2 31/39/2
f 32/37/3 35/34/3 34/40/3
f 34/40/3 35/34/3 36/36/3
f 35/33/4 29/34/4 36/35/4
f 36/35/4 29/34/4 30/36/4
f 30/37/5 33/34/5 36/38/5
f 36/38/5 33/34/5 34/39/5
f 29/37/6 31/34/6 30/40/6
f 30/40/6 31/34/6 33/36/6
f 22/41/1 37/42/1 24/43/1
f 24/43/1 37/42/1 38/44/1
f 39/45/2 37/42/2 9/46/2
f 9/46/2 37/42/2 22/47/2
f 37/45/3 39/42/3 38/48/3
f 38/48/3 39/42/3 40/44/3
f 39/41/4 9/42/4 40/43/4
f 40/43/4 9/42/4 11/44/4
f 11/45/5 24/42/5 40/46/5
f 40/46/5 24/42/5 38/47/5
f 9/45/6 22/42/6 11/48/6
f 11/48/6 22/42/6 24/44/6
f 41/49/1 42/50/1 43/51/1
f 43/51/1 42/50/1 44/52/1
f 45/53/2 42/50/2 46/54/2
f 46/54/2 42/50/2 41/55/2
f 42/53/3 45/50/3 44/56/3
f 44/56/3 45/50/3 47/52/3
f 45/49/4 46/50/4 47/51/4
f 47/51/4 46/50/4 48/52/4
f 48/53/5 43/50/5 47/54/5
f 47/54/5 43/50/5 44/55/5
f 46/53/6 41/50/6 48/56/6
f 48/56/6 41/50/6 43/52/6
usemtl c_0989cf
f 49/57/7 50/58/7 51/59/7
f 51/59/7 50/58/7 52/60/7
f 53/61/2 50/58/2 54/62/2
f 54/62/2 50/58/2 49/60/2
f 50/61/8 53/58/8 52/62/8
f 52/62/8 53/58/8 55/60/8
f 53/57/9 54/58/9 55/59/9
f 55/59/9 54/58/9 56/60/9
f 56/61/5 51/58/5 55/62/5
f 55/62/5 51/58/5 52/60/5
f 54/61/10 49/58/10 56/62/10
f 56/62/10 49/58/10 51/60/10
f 57/63/11 58/64/11 59/65/11
f 59/65/11 58/64/11 60/66/11
f 61/67/2 58/64/2 62/68/2
f 62/68/2 58/64/2 57/66/2
f 58/67/12 61/64/12 60/68/12
f 60/68/12 61/64/12 63/66/12
f 61/63/13 62/64/13 63/65/13
f 63/65/13 62/64/13 64/66/13
f 64/67/5 59/64/5 63/68/5
f 63/68/5 59/64/5 60/66/5
f 62/67/14 57/64/14 64/68/14
f 64/68/14 57/64/14 59/66/14
f 65/69/15 66/70/15 67/71/15
f 67/71/15 66/70/15 68/72/15
f 69/73/2 66/70/2 70/74/2
f 70/74/2 66/70/2 65/72/2
f 66/73/16 69/70/16 68/74/16
f 68/74/16 69/70/16 71/72/16
f 69/69/17 70/70/17 71/71/17
f 71/71/17 70/70/17 72/72/17
f 72/73/5 67/70/5 71/74/5
f 71/74/5 67/70/5 68/72/5
f 70/73/18 65/70/18 72/74/18
f 72/74/18 65/70/18 67/72/18
usemtl c_e29b40
f 73/75/15 65/76/15 74/77/15
f 74/77/15 65/76/15 67/78/15
f 75/79/2 65/76/2 76/80/2
f 76/80/2 65/76/2 73/81/2
f 65/79/16 75/76/16 67/82/16
f 67/82/16 75/76/16 77/78/16
f 75/75/17 76/76/17 77/77/17
f 77/77/17 76/76/17 78/78/17
f 78/79/5 74/76/5 77/80/5
f 77/80/5 74/76/5 67/81/5
f 76/79/18 73/76/18 78/82/18
f 78/82/18 73/76/18 74/78/18
o RightUpperLeg
usemtl c_0989cf
f 79/83/1 80/84/1 81/85/1
f 81/85/1 80/84/1 82/86/1
f 83/87/3 80/84/3 84/88/3
f 84/88/3 80/84/3 79/89/3
f 80/87/5 83/84/5 82/90/5
f 82/90/5 83/84/5 85/86/5
f 83/83/4 84/84/4 85/85/4
f 85/85/4 84/84/4 86/86/4
f 86/87/6 81/84/6 85/88/6
f 85/88/6 81/84/6 82/89/6
f 84/87/2 79/84/2 86/90/2
f 86/90/2 79/84/2 81/86/2
f 87/91/1 79/92/1 88/93/1
f 88/93/1 79/92/1 89/94/1
f 84/95/3 79/92/3 90/96/3
f 90/96/3 79/92/3 87/94/3
f 79/95/5 84/92/5 89/96/5
f 89/96/5 84/92/5 91/94/5
f 84/91/4 90/92/4 91/93/4
f 91/93/4 90/92/4 92/94/4
f 92/95/6 88/92/6 91/96/6
f 91/96/6 88/92/6 89/94/6
f 90/95/2 87/92/2 92/96/2
f 92/96/2 87/92/2 88/94/2
usemtl c_e29b40
f 93/97/1 94/98/1 95/99/1
f 95/99/1 94/98/1 96/100/1
f 97/97/3 94/98/3 98/99/3
f 98/99/3 94/98/3 93/100/3
f 94/97/5 97/98/5 96/99/5
f 96/99/5 97/98/5 99/100/5
f 97/97/4 98/98/4 99/99/4
f 99/99/4 98/98/4 100/100/4
f 100/97/6 95/98/6 99/99/6
f 99/99/6 95/98/6 96/100/6
f 98/97/2 93/98/2 100/99/2
f 100/99/2 93/98/2 95/100/2
o Head
usemtl c_e29b40
f 101/101/1 102/102/1 103/103/1
f 103/103/1 102/102/1 104/104/1
f 105/105/2 102/102/2 106/106/2
f 106/106/2 102/102/2 101/107/2
f 102/105/3 105/102/3 104/108/3
f 104/108/3 105/102/3 107/104/3
f 105/101/4 106/102/4 107/103/4
f 107/103/4 106/102/4 108/104/4
f 108/105/5 103/102/5 107/106/5
f 107/106/5 103/102/5 104/107/5
f 106/105/6 101/102/6 108/108/6
f 108/108/6 101/102/6 103/104/6
f 109/109/1 110/110/1 111/111/1
f 111/111/1 110/110/1 112/112/1
f 113/113/19 110/110/19 114/114/19
f 114/114/19 110/110/19 109/115/19
f 110/113/20 113/110/20 112/116/20
f 112/116/20 113/110/20 115/112/20
f 113/109/4 114/110/4 115/111/4
f 115/111/4 114/110/4 116/112/4
f 116/113/21 111/110/21 115/114/21
f 115/114/21 111/110/21 112/115/21
f 114/113/22 109/110/22 116/116/22
f 116/116/22 109/110/22 111/112/22
f 117/117/1 118/118/1 104/119/1
f 104/119/1 118/118/1 119/120/1
f 120/121/2 118/118/2 121/122/2
f 121/122/2 118/118/2 117/123/2
f 118/121/3 120/118/3 119/124/3
f 119/124/3 120/118/3 122/120/3
f 120/117/4 121/118/4 122/119/4
f 122/119/4 121/118/4 107/120/4
f 107/121/5 104/118/5 122/122/5
f 122/122/5 104/118/5 119/123/5
f 121/121/6 117/118/6 107/124/6
f 107/124/6 117/118/6 104/120/6
f 123/125/1 124/126/1 125/127/1
f 125/127/1 124/126/1 126/128/1
f 127/129/23 124/126/23 128/130/23
f 128/130/23 124/126/23 123/131/23
f 124/129/24 127/126/24 126/132/24
f 126/132/24 127/126/24 129/128/24
f 127/125/4 128/126/4 129/127/4
f 129/127/4 128/126/4 130/128/4
f 130/129/25 125/126/25 129/130/25
f 129/130/25 125/126/25 126/131/25
f 128/129/26 123/126/26 130/132/26
f 130/132/26 123/126/26 125/128/26
f 131/133/1 132/134/1 133/135/1
f 133/135/1 132/134/1 134/136/1
f 135/137/27 132/134/27 136/138/27
f 136/138/27 132/134/27 131/139/27
f 132/137/28 135/134/28 134/140/28
f 134/140/28 135/134/28 137/136/28
f 135/133/4 136/134/4 137/135/4
f 137/135/4 136/134/4 138/136/4
f 138/137/29 133/134/29 137/138/29
f 137/138/29 133/134/29 134/139/29
f 136/137/30 131/134/30 138/140/30
f 138/140/30 131/134/30 133/136/30
f 139/141/1 140/142/1 141/143/1
f 141/143/1 140/142/1 118/144/1
f 142/145/2 140/142/2 143/146/2
f 143/146/2 140/142/2 139/147/2
f 140/145/3 142/142/3 118/148/3
f 118/148/3 142/142/3 120/144/3
f 142/141/4 143/142/4 120/143/4
f 120/143/4 143/142/4 144/144/4
f 144/145/5 141/142/5 120/146/5
f 120/146/5 141/142/5 118/147/5
f 143/145/6 139/142/6 144/148/6
f 144/148/6 139/142/6 141/144/6
f 145/149/1 146/150/1 147/151/1
f 147/151/1 146/150/1 148/152/1
f 149/153/19 146/150/19 150/154/19
f 150/154/19 146/150/19 145/155/19
f 146/153/20 149/150/20 148/156/20
f 148/156/20 149/150/20 151/152/20
f 149/149/4 150/150/4 151/151/4
f 151/151/4 150/150/4 152/152/4
f 152/153/21 147/150/21 151/154/21
f 151/154/21 147/150/21 148/155/21
f 150/153/22 145/150/22 152/156/22
f 152/156/22 145/150/22 147/152/22
f 153/157/1 154/158/1 112/159/1
f 112/159/1 154/158/1 155/160/1
f 156/161/19 154/158/19 157/162/19
f 157/162/19 154/158/19 153/163/19
f 154/161/20 156/158/20 155/164/20
f 155/164/20 156/158/20 158/160/20
f 156/157/4 157/158/4 158/159/4
f 158/159/4 157/158/4 115/160/4
f 115/161/21 112/158/21 158/162/21
f 158/162/21 112/158/21 155/163/21
f 157/161/22 153/158/22 115/164/22
f 115/164/22 153/158/22 112/160/22
f 159/165/1 160/166/1 161/167/1
f 161/167/1 160/166/1 162/168/1
f 163/169/19 160/166/19 164/170/19
f 164/170/19 160/166/19 159/171/19
f 160/169/20 163/166/20 162/172/20
f 162/172/20 163/166/20 165/168/20
f 163/165/4 164/166/4 165/167/4
f 165/167/4 164/166/4 166/168/4
f 166/169/21 161/166/21 165/170/21
f 165/170/21 161/166/21 162/171/21
f 164/169/22 159/166/22 166/172/22
f 166/172/22 159/166/22 161/168/22
usemtl c_0d69ac
f 167/173/1 168/174/1 169/175/1
f 169/175/1 168/174/1 170/176/1
f 171/177/2 168/174/2 172/178/2
f 172/178/2 168/174/2 167/179/2
f 168/177/3 171/174/3 170/180/3
f 170/180/3 171/174/3 173/176/3
f 171/173/4 172/174/4 173/175/4
f 173/175/4 172/174/4 174/176/4
f 174/177/5 169/174/5 173/178/5
f 173/178/5 169/174/5 170/179/5
f 172/177/6 167/174/6 174/180/6
f 174/180/6 167/174/6 169/176/6
usemtl c_ccffcc
f 175/181/1 176/182/1 177/183/1
f 177/183/1 176/182/1 178/184/1
f 179/185/2 176/182/2 180/186/2
f 180/186/2 176/182/2 175/184/2
f 176/185/3 179/182/3 178/186/3
f 178/186/3 179/182/3 181/184/3
f 179/181/4 180/182/4 181/183/4
f 181/183/4 180/182/4 182/184/4
f 182/185/5 177/182/5 181/186/5
f 181/186/5 177/182/5 178/184/5
f 180/185/6 175/182/6 182/186/6
f 182/186/6 175/182/6 177/184/6
usemtl c_0989cf
f 183/187/1 184/188/1 185/189/1
f 185/189/1 184/188/1 186/190/1
f 187/191/31 184/188/31 188/192/31
f 188/192/31 184/188/31 183/193/31
f 184/191/32 187/188/32 186/194/32
f 186/194/32 187/188/32 189/190/32
f 187/187/4 188/188/4 189/189/4
f 189/189/4 188/188/4 190/190/4
f 190/191/33 185/188/33 189/192/33
f 189/192/33 185/188/33 186/193/33
f 188/191/34 183/188/34 190/194/34
f 190/194/34 183/188/34 185/190/34
f 191/195/1 192/196/1 193/197/1
f 193/197/1 192/196/1 194/198/1
f 195/199/35 192/196/35 196/200/35
f 196/200/35 192/196/35 191/201/35
f 192/199/36 195/196/36 194/202/36
f 194/202/36 195/196/36 197/198/36
f 195/195/4 196/196/4 197/197/4
f 197/197/4 196/196/4 198/198/4
f 198/199/37 193/196/37 197/200/37
f 197/200/37 193/196/37 194/201/37
f 196/199/38 191/196/38 198/202/38
f 198/202/38 191/196/38 193/198/38
f 199/203/1 191/204/1 200/205/1
f 200/205/1 191/204/1 201/206/1
f 196/207/35 191/204/35 202/208/35
f 202/208/35 191/204/35 199/209/35
f 191/207/36 196/204/36 201/210/36
f 201/210/36 196/204/36 203/206/36
f 196/203/4 202/204/4 203/205/4
f 203/205/4 202/204/4 204/206/4
f 204/207/37 200/204/37 203/208/37
f 203/208/37 200/204/37 201/209/37
f 202/207/38 199/204/38 204/210/38
f 204/210/38 199/204/38 200/206/38
f 205/211/1 206/212/1 207/213/1
f 207/213/1 206/212/1 208/214/1
f 209/215/2 206/212/2 210/216/2
f 210/216/2 206/212/2 205/217/2
f 206/215/3 209/212/3 208/218/3
f 208/218/3 209/212/3 211/214/3
f 209/211/4 210/212/4 211/213/4
f 211/213/4 210/212/4 212/214/4
f 212/215/5 207/212/5 211/216/5
f 211/216/5 207/212/5 208/217/5
f 210/215/6 205/212/6 212/218/6
f 212/218/6 205/212/6 207/214/6
f 213/219/1 214/220/1 215/221/1
f 215/221/1 214/220/1 216/222/1
f 217/223/2 214/220/2 218/224/2
f 218/224/2 214/220/2 213/225/2
f 214/223/3 217/220/3 216/226/3
f 216/226/3 217/220/3 219/222/3
f 217/219/4 218/220/4 219/221/4
f 219/221/4 218/220/4 220/222/4
f 220/223/5 215/220/5 219/224/5
f 219/224/5 215/220/5 216/225/5
f 218/223/6 213/220/6 220/226/6
f 220/226/6 213/220/6 215/222/6
usemtl c_c4281c
f 221/227/1 222/228/1 223/229/1
f 223/229/1 222/228/1 224/230/1
f 225/231/23 222/228/23 226/232/23
f 226/232/23 222/228/23 221/233/23
f 222/231/24 225/228/24 224/234/24
f 224/234/24 225/228/24 227/230/24
f 225/227/4 226/228/4 227/229/4
f 227/229/4 226/228/4 228/230/4
f 228/231/25 223/228/25 227/232/25
f 227/232/25 223/228/25 224/233/25
f 226/231/26 221/228/26 228/234/26
f 228/234/26 221/228/26 223/230/26
usemtl c_ff5959
f 229/235/1 230/236/1 231/237/1
f 231/237/1 230/236/1 232/238/1
f 233/239/39 230/236/39 234/240/39
f 234/240/39 230/236/39 229/241/39
f 230/239/40 233/236/40 232/242/40
f 232/242/40 233/236/40 235/238/40
f 233/235/4 234/236/4 235/237/4
f 235/237/4 234/236/4 236/238/4
f 236/239/41 231/236/41 235/240/41
f 235/240/41 231/236/41 232/241/41
f 234/239/42 229/236/42 236/242/42
f 236/242/42 229/236/42 231/238/42
usemtl c_ffcc99
f 207/243/1 208/244/1 237/245/1
f 237/245/1 208/244/1 238/246/1
f 211/247/2 208/244/2 212/248/2
f 212/248/2 208/244/2 207/249/2
f 208/247/3 211/244/3 238/250/3
f 238/250/3 211/244/3 239/246/3
f 211/243/4 212/244/4 239/245/4
f 239/245/4 212/244/4 240/246/4
f 240/247/5 237/244/5 239/248/5
f 239/248/5 237/244/5 238/249/5
f 212/247/6 207/244/6 240/250/6
f 240/250/6 207/244/6 237/246/6
f 241/251/1 186/252/1 242/253/1
f 242/253/1 186/252/1 243/254/1
f 189/255/31 186/252/31 244/256/31
f 244/256/31 186/252/31 241/257/31
f 186/255/32 189/252/32 243/258/32
f 243/258/32 189/252/32 245/254/32
f 189/251/4 244/252/4 245/253/4
f 245/253/4 244/252/4 246/254/4
f 246/255/33 242/252/33 245/256/33
f 245/256/33 242/252/33 243/257/33
f 244/255/34 241/252/34 246/258/34
f 246/258/34 241/252/34 242/254/34
usemtl c_8c5b9f
f 247/259/1 248/260/1 249/261/1
f 249/261/1 248/260/1 250/262/1
f 251/263/43 248/260/43 252/264/43
f 252/264/43 248/260/43 247/265/43
f 248/263/44 251/260/44 250/266/44
f 250/266/44 251/260/44 253/262/44
f 251/259/4 252/260/4 253/261/4
f 253/261/4 252/260/4 254/262/4
f 254/263/45 249/260/45 253/264/45
f 253/264/45 249/260/45 250/265/45
f 252/263/46 247/260/46 254/266/46
f 254/266/46 247/260/46 249/262/46
o Head_decal1
usemtl head_decal1
f 255/267/1 256/268/1 257/110/1
f 257/110/1 256/268/1 258/269/1
o Head_decal2
usemtl head_decal2
f 259/267/4 260/268/4 261/110/4
f 261/110/4 260/268/4 262/269/4
o UpperTorso
usemtl c_0989cf
f 263/270/1 264/271/1 265/272/1
f 265/272/1 264/271/1 266/273/1
f 267/270/2 264/271/2 268/272/2
f 268/272/2 264/271/2 263/273/2
f 264/270/3 267/271/3 266/272/3
f 266/272/3 267/271/3 269/273/3
f 267/270/4 268/271/4 269/272/4
f 269/272/4 268/271/4 270/273/4
f 270/270/5 265/271/5 269/272/5
f 269/272/5 265/271/5 266/273/5
f 268/270/6 263/271/6 270/272/6
f 270/272/6 263/271/6 265/273/6
usemtl c_ffcc99
f 271/274/1 272/275/1 273/276/1
f 273/276/1 272/275/1 274/277/1
f 275/278/2 272/275/2 276/279/2
f 276/279/2 272/275/2 271/280/2
f 272/278/3 275/275/3 274/281/3
f 274/281/3 275/275/3 277/277/3
f 275/274/4 276/275/4 277/276/4
f 277/276/4 276/275/4 278/277/4
f 278/278/5 273/275/5 277/279/5
f 277/279/5 273/275/5 274/280/5
f 276/278/6 271/275/6 278/281/6
f 278/281/6 271/275/6 273/277/6
o LowerTorso
usemtl c_ffcc99
f 279/282/1 84/283/1 280/284/1
f 280/284/1 84/283/1 281/285/1
f 282/286/2 84/283/2 283/287/2
f 283/287/2 84/283/2 279/288/2
f 84/286/3 282/283/3 281/289/3
f 281/289/3 282/283/3 284/285/3
f 282/282/4 283/283/4 284/284/4
f 284/284/4 283/283/4 285/285/4
f 285/286/5 280/283/5 284/287/5
f 284/287/5 280/283/5 281/288/5
f 283/286/6 279/283/6 285/289/6
f 285/289/6 279/283/6 280/285/6
usemtl c_0989cf
f 286/290/1 90/291/1 279/292/1
f 279/292/1 90/291/1 84/293/1
f 287/294/2 90/291/2 288/295/2
f 288/295/2 90/291/2 286/296/2
f 90/294/3 287/291/3 84/297/3
f 84/297/3 287/291/3 282/293/3
f 287/290/4 288/291/4 282/292/4
f 282/292/4 288/291/4 283/293/4
f 283/294/5 279/291/5 282/295/5
f 282/295/5 279/291/5 84/296/5
f 288/294/6 286/291/6 283/297/6
f 283/297/6 286/291/6 279/293/6
o LeftUpperLeg
usemtl c_0989cf
f 287/298/1 282/299/1 289/300/1
f 289/300/1 282/299/1 290/301/1
f 291/302/3 282/299/3 292/303/3
f 292/303/3 282/299/3 287/301/3
f 282/302/5 291/299/5 290/303/5
f 290/303/5 291/299/5 293/301/5
f 291/298/4 292/299/4 293/300/4
f 293/300/4 292/299/4 294/301/4
f 294/302/6 289/299/6 293/303/6
f 293/303/6 289/299/6 290/301/6
f 292/302/2 287/299/2 294/303/2
f 294/303/2 287/299/2 289/301/2
f 282/304/1 295/305/1 296/306/1
f 296/306/1 295/305/1 297/307/1
f 298/308/3 295/305/3 291/309/3
f 291/309/3 295/305/3 282/310/3
f 295/308/5 298/305/5 297/311/5
f 297/311/5 298/305/5 299/307/5
f 298/304/4 291/305/4 299/306/4
f 299/306/4 291/305/4 300/307/4
f 300/308/6 296/305/6 299/309/6
f 299/309/6 296/305/6 297/310/6
f 291/308/2 282/305/2 300/311/2
f 300/311/2 282/305/2 296/307/2
usemtl c_e29b40
f 301/312/1 302/313/1 303/314/1
f 303/314/1 302/313/1 304/315/1
f 305/312/3 302/313/3 306/314/3
f 306/314/3 302/313/3 301/315/3
f 302/312/5 305/313/5 304/314/5
f 304/314/5 305/313/5 307/315/5
f 305/312/4 306/313/4 307/314/4
f 307/314/4 306/313/4 308/315/4
f 308/312/6 303/313/6 307/314/6
f 307/314/6 303/313/6 304/315/6
f 306/312/2 301/313/2 308/314/2
f 308/314/2 301/313/2 303/315/2
o RightUpperArm
usemtl c_80bbdb
f 309/316/1 310/317/1 311/318/1
f 311/318/1 310/317/1 312/319/1
f 313/320/2 310/317/2 314/321/2
f 314/321/2 310/317/2 309/322/2
f 310/320/3 313/317/3 312/323/3
f 312/323/3 313/317/3 315/319/3
f 313/316/4 314/317/4 315/318/4
f 315/318/4 314/317/4 316/319/4
f 316/320/5 311/317/5 315/321/5
f 315/321/5 311/317/5 312/322/5
f 314/320/6 309/317/6 316/323/6
f 316/323/6 309/317/6 311/319/6
f 317/324/1 318/325/1 319/326/1
f 319/326/1 318/325/1 320/327/1
f 321/328/2 318/325/2 322/329/2
f 322/329/2 318/325/2 317/330/2
f 318/328/3 321/325/3 320/331/3
f 320/331/3 321/325/3 323/327/3
f 321/324/4 322/325/4 323/326/4
f 323/326/4 322/325/4 324/327/4
f 324/328/5 319/325/5 323/329/5
f 323/329/5 319/325/5 320/330/5
f 322/328/6 317/325/6 324/331/6
f 324/331/6 317/325/6 319/327/6
f 325/332/1 309/333/1 326/334/1
f 326/334/1 309/333/1 311/335/1
f 327/336/2 309/333/2 328/337/2
f 328/337/2 309/333/2 325/338/2
f 309/336/3 327/333/3 311/339/3
f 311/339/3 327/333/3 329/335/3
f 327/332/4 328/333/4 329/334/4
f 329/334/4 328/333/4 330/335/4
f 330/336/5 326/333/5 329/337/5
f 329/337/5 326/333/5 311/338/5
f 328/336/6 325/333/6 330/339/6
f 330/339/6 325/333/6 326/335/6
f 331/340/1 332/341/1 333/342/1
f 333/342/1 332/341/1 334/343/1
f 335/344/2 332/341/2 317/345/2
f 317/345/2 332/341/2 331/346/2
f 332/344/3 335/341/3 334/347/3
f 334/347/3 335/341/3 336/343/3
f 335/340/4 317/341/4 336/342/4
f 336/342/4 317/341/4 319/343/4
f 319/344/5 333/341/5 336/345/5
f 336/345/5 333/341/5 334/346/5
f 317/344/6 331/341/6 319/347/6
f 319/347/6 331/341/6 333/343/6
f 322/348/1 325/349/1 324/350/1
f 324/350/1 325/349/1 326/351/1
f 337/352/2 325/349/2 338/353/2
f 338/353/2 325/349/2 322/354/2
f 325/352/3 337/349/3 326/355/3
f 326/355/3 337/349/3 339/351/3
f 337/348/4 338/349/4 339/350/4
f 339/350/4 338/349/4 340/351/4
f 340/352/5 324/349/5 339/353/5
f 339/353/5 324/349/5 326/354/5
f 338/352/6 322/349/6 340/355/6
f 340/355/6 322/349/6 324/351/6
f 341/356/1 342/357/1 343/358/1
f 343/358/1 342/357/1 344/359/1
f 345/360/2 342/357/2 346/361/2
f 346/361/2 342/357/2 341/362/2
f 342/360/3 345/357/3 344/363/3
f 344/363/3 345/357/3 347/359/3
f 345/356/4 346/357/4 347/358/4
f 347/358/4 346/357/4 348/359/4
f 348/360/5 343/357/5 347/361/5
f 347/361/5 343/357/5 344/362/5
f 346/360/6 341/357/6 348/363/6
f 348/363/6 341/357/6 343/359/6
usemtl c_0989cf
f 349/364/47 350/325/47 351/365/47
f 351/365/47 350/325/47 352/366/47
f 353/367/2 350/325/2 354/368/2
f 354/368/2 350/325/2 349/366/2
f 350/367/48 353/325/48 352/368/48
f 352/368/48 353/325/48 355/366/48
f 353/364/49 354/325/49 355/365/49
f 355/365/49 354/325/49 356/366/49
f 356/367/5 351/325/5 355/368/5
f 355/368/5 351/325/5 352/366/5
f 354/367/50 349/325/50 356/368/50
f 356/368/50 349/325/50 351/366/50
f 357/369/51 358/370/51 359/371/51
f 359/371/51 358/370/51 360/372/51
f 361/373/2 358/370/2 362/374/2
f 362/374/2 358/370/2 357/372/2
f 358/373/52 361/370/52 360/374/52
f 360/374/52 361/370/52 363/372/52
f 361/369/53 362/370/53 363/371/53
f 363/371/53 362/370/53 364/372/53
f 364/373/5 359/370/5 363/374/5
f 363/374/5 359/370/5 360/372/5
f 362/373/54 357/370/54 364/374/54
f 364/374/54 357/370/54 359/372/54
f 365/375/55 366/376/55 367/377/55
f 367/377/55 366/376/55 368/378/55
f 369/379/2 366/376/2 370/380/2
f 370/380/2 366/376/2 365/378/2
f 366/379/56 369/376/56 368/380/56
f 368/380/56 369/376/56 371/378/56
f 369/375/57 370/376/57 371/377/57
f 371/377/57 370/376/57 372/378/57
f 372/379/5 367/376/5 371/380/5
f 371/380/5 367/376/5 368/378/5
f 370/379/58 365/376/58 372/380/58
f 372/380/58 365/376/58 367/378/58
usemtl c_e29b40
f 373/381/47 374/382/47 375/383/47
f 375/383/47 374/382/47 376/384/47
f 354/385/2 374/382/2 377/386/2
f 377/386/2 374/382/2 373/387/2
f 374/385/48 354/382/48 376/388/48
f 376/388/48 354/382/48 356/384/48
f 354/381/49 377/382/49 356/383/49
f 356/383/49 377/382/49 378/384/49
f 378/385/5 375/382/5 356/386/5
f 356/386/5 375/382/5 376/387/5
f 377/385/50 373/382/50 378/388/50
f 378/388/50 373/382/50 375/384/50
