# Roblox asset pack: egg_cowboy_cow (props), from the Studio model "Eggs/CowboyCowEgg". Exported with Export Selection, split by tools/build_creatures.py: one object per rigid body. Units: studs. +Y up, front faces -Z, pivot (bottom centre) at the origin.
mtllib egg_cowboy_cow.mtl

v 0.76030 2.89000 -4.23000
v 0.76020 3.23000 -3.88000
v 0.76020 2.89000 -3.88000
v 0.76030 3.23000 -4.23000
v -0.41880 2.89000 -4.23000
v -0.41880 3.23000 -3.88000
v -0.41880 2.89000 -3.88000
v -0.41880 3.23000 -4.23000
v -0.72520 3.23000 -4.23000
v -0.72530 3.23000 -3.88000
v 0.45380 3.23000 -4.23000
v 0.45370 3.23000 -3.88000
v -0.72530 2.89000 -3.88000
v 0.45370 2.89000 -3.88000
v -0.72520 2.89000 -4.23000
v 0.45380 2.89000 -4.23000
v 3.78830 5.11000 -1.06000
v 4.03610 4.58000 -1.06000
v 3.74040 5.22000 -1.15000
v 4.07720 4.49000 -1.15000
v 3.74010 5.22000 -0.31000
v 4.03590 4.58000 -0.41000
v 3.78820 5.11000 -0.41000
v 4.07700 4.49000 -0.31000
v 2.95990 4.85000 -1.15000
v 2.94330 4.95000 -1.25000
v 2.94300 4.95000 -0.21000
v 3.11560 3.97000 -1.25000
v 2.95970 4.85000 -0.31000
v 3.10290 4.04000 -1.15000
v 3.10260 4.04000 -0.31000
v 3.11540 3.97000 -0.21000
v 4.46400 5.79000 -1.06000
v 4.46380 5.79000 -0.41000
v 4.85470 5.40000 -1.06000
v 4.85450 5.40000 -0.41000
v 1.27950 4.65000 -1.25000
v 1.27930 4.65000 -0.22000
v 1.45160 3.68000 -0.21000
v 2.81280 3.90000 -0.31000
v 2.85590 3.92000 -0.31000
v 2.80690 3.92000 -0.31000
v 1.45190 3.68000 -1.25000
v 2.80710 3.91000 -1.15000
v 2.81300 3.90000 -1.15000
v 2.85610 3.92000 -1.15000
v -1.27930 4.65000 -1.25000
v -1.27960 4.65000 -0.22000
v -1.45170 3.68000 -1.25000
v -1.45190 3.68000 -0.22000
v -2.80700 3.91000 -1.16000
v -2.81310 3.90000 -0.31000
v -2.81190 3.90000 -1.16000
v -2.80720 3.91000 -0.31000
v -3.78820 5.11000 -1.06000
v -4.46390 5.79000 -1.06000
v -3.78840 5.11000 -0.41000
v -4.46400 5.79000 -0.41000
v -4.85460 5.40000 -1.06000
v -4.85480 5.40000 -0.41000
v -2.94310 4.95000 -1.25000
v -2.94330 4.95000 -0.22000
v -2.95970 4.85000 -1.16000
v -3.74020 5.21000 -1.16000
v -2.96000 4.85000 -0.31000
v -3.74040 5.22000 -0.31000
v -3.11570 3.97000 -0.22000
v -3.10290 4.04000 -0.31000
v -4.07730 4.49000 -0.31000
v -2.85610 3.92000 -0.31000
v -4.03610 4.58000 -0.41000
v -4.03600 4.58000 -1.06000
v -4.07710 4.49000 -1.16000
v -3.11540 3.97000 -1.25000
v -3.10270 4.04000 -1.16000
v -2.85590 3.92000 -1.16000
v -3.68850 4.11000 -1.73000
v -3.68850 4.11000 -1.99000
v -3.68850 3.54000 -1.73000
v -3.68850 3.54000 -1.99000
v -3.37370 4.23000 -1.68000
v -3.37360 4.23000 -2.04000
v -3.20860 3.29000 -1.68000
v -3.20850 3.29000 -2.04000
v -2.81980 4.41000 -1.64000
v -2.81970 4.41000 -2.08000
v -2.22530 3.38000 -1.64000
v -2.22520 3.38000 -2.08000
v 1.81640 4.98000 -1.64000
v 1.81650 4.98000 -2.08000
v 1.22180 3.95000 -1.63000
v 1.22200 3.95000 -2.08000
v 2.42200 4.39000 -1.68000
v 2.42210 4.39000 -2.04000
v 2.25750 3.46000 -1.68000
v 2.25760 3.46000 -2.04000
v 3.15400 4.11000 -1.73000
v 3.15410 4.11000 -1.99000
v 3.15400 3.54000 -1.73000
v 3.15410 3.54000 -1.99000
v -1.82360 4.98000 -1.64000
v -1.82350 4.98000 -2.08000
v 2.81260 4.41000 -1.63000
v 2.81270 4.41000 -2.08000
v -2.42920 4.39000 -1.68000
v -2.42910 4.39000 -2.04000
v 3.36650 4.23000 -1.68000
v 3.36660 4.23000 -2.04000
v -3.16110 4.11000 -1.73000
v -3.16110 4.11000 -1.99000
v 3.68140 4.11000 -1.73000
v 3.68140 4.11000 -1.99000
v -1.22890 3.95000 -2.08000
v 2.21820 3.38000 -2.08000
v -2.26460 3.46000 -2.04000
v 3.20210 3.29000 -2.04000
v -3.16110 3.54000 -1.99000
v 3.68140 3.54000 -1.99000
v 3.68140 3.54000 -1.73000
v 3.20200 3.29000 -1.68000
v 2.21810 3.38000 -1.63000
v -1.22900 3.95000 -1.64000
v -2.26470 3.46000 -1.68000
v -3.16110 3.54000 -1.73000
v -3.11300 4.13000 -2.02000
v -3.11300 4.13000 -2.09000
v -3.00640 3.52000 -2.02000
v -3.00640 3.52000 -2.08000
v -2.76550 4.22000 -2.02000
v -2.76550 4.22000 -2.13000
v -2.38720 3.56000 -2.02000
v -2.38720 3.56000 -2.13000
v 1.72100 4.82000 -2.02000
v 1.72100 4.82000 -2.13000
v 1.34210 4.16000 -2.02000
v 1.34210 4.16000 -2.13000
v 2.49240 4.24000 -2.02000
v 2.49240 4.24000 -2.08000
v 2.38580 3.63000 -2.02000
v 2.38580 3.63000 -2.08000
v -1.72740 4.82000 -2.02000
v -1.72730 4.82000 -2.13000
v 2.75850 4.22000 -2.02000
v 2.75860 4.22000 -2.13000
v -2.49940 4.24000 -2.02000
v -2.49940 4.24000 -2.08000
v 3.10600 4.13000 -2.02000
v 3.10600 4.13000 -2.08000
v -1.34910 4.16000 -2.13000
v 2.38030 3.56000 -2.13000
v -2.39280 3.63000 -2.08000
v 2.99940 3.52000 -2.08000
v 2.99940 3.52000 -2.02000
v 2.38020 3.56000 -2.02000
v -1.34910 4.16000 -2.02000
v -2.39280 3.63000 -2.02000
v -0.32470 2.02000 3.63000
v -0.32460 1.79000 3.14000
v -0.32480 1.41000 3.91000
v -0.32470 1.19000 3.42000
v -0.28670 1.36000 1.92000
v -0.28630 2.27000 0.62000
v -0.28660 0.78000 1.52000
v -0.28620 1.69000 0.22000
v -0.21230 1.45000 2.63000
v -0.21200 1.35000 1.46000
v -0.21230 0.94000 2.67000
v -0.21200 0.84000 1.50000
v -0.17490 1.74000 3.30000
v -0.17530 1.31000 2.37000
v -0.17560 1.38000 3.47000
v -0.17530 0.94000 2.54000
v 0.32280 2.02000 3.63000
v 0.32290 1.79000 3.14000
v 0.21090 1.45000 2.63000
v 0.21120 1.35000 1.46000
v 0.17320 1.74000 3.30000
v 0.17340 1.31000 2.37000
v 0.28570 1.36000 1.92000
v 0.28600 2.27000 0.62000
v 0.28610 1.69000 0.22000
v 0.21120 0.84000 1.50000
v 0.17340 0.94000 2.54000
v 0.32290 1.19000 3.42000
v 0.32270 1.41000 3.91000
v 0.28580 0.78000 1.52000
v 0.21090 0.94000 2.67000
v 0.17320 1.38000 3.47000
v 1.58750 5.87000 -2.50000
v 1.58690 5.87000 0.09000
v 1.58750 5.03000 -2.50000
v 1.58690 5.03000 0.09000
v -1.54410 5.87000 0.08000
v -1.54340 5.87000 -2.50000
v -1.54410 5.03000 0.08000
v -1.54340 5.03000 -2.50000
v 1.00890 3.57000 -3.93000
v 1.00870 3.57000 -3.30000
v 1.00890 2.37000 -3.93000
v 1.00870 2.37000 -3.30000
v -0.97340 3.57000 -3.30000
v -0.97320 3.57000 -3.93000
v -0.97340 2.37000 -3.30000
v -0.97320 2.37000 -3.93000
v 2.20620 4.51000 -3.43000
v 2.20620 4.51000 0.99000
v 2.20620 1.56000 -3.43000
v 2.20620 1.56000 0.99000
v -2.20590 4.51000 0.99000
v -2.20590 4.51000 -3.43000
v -2.20590 1.56000 0.99000
v -2.20590 1.56000 -3.43000
v 3.17850 6.24000 -2.77000
v 3.17770 6.25000 0.28000
v 3.72270 5.60000 -2.77000
v 3.72190 5.60000 0.28000
v 3.24260 5.09000 -2.31000
v 3.21410 5.17000 -2.77000
v 3.21400 5.17000 -2.31000
v 3.24280 5.09000 -3.00000
v 2.95290 5.89000 -3.00000
v 2.95290 5.89000 -2.77000
v 3.24210 5.09000 -0.17000
v 3.21340 5.17000 -0.17000
v 3.21330 5.17000 0.28000
v 3.24190 5.09000 0.51000
v 2.95210 5.89000 0.28000
v 2.95200 5.89000 0.51000
v 2.45730 4.79000 -2.53000
v 2.45750 4.79000 -3.22000
v 2.45660 4.80000 -3.00000
v 2.45640 4.80000 -2.53000
v 2.38370 5.64000 -3.00000
v 2.38370 5.64000 -3.22000
v 2.45650 4.79000 0.80000
v 2.45660 4.79000 0.11000
v 2.45570 4.80000 0.51000
v 2.45580 4.80000 0.11000
v 2.38270 5.64000 0.80000
v 2.38280 5.64000 0.51000
v 2.33840 4.90000 -2.49000
v 2.33780 4.90000 0.04000
v 2.34210 4.85000 0.11000
v 2.32470 5.04000 0.11000
v 2.32470 5.04000 0.04000
v 2.34270 4.85000 -2.53000
v 2.32540 5.04000 -2.53000
v 2.32540 5.04000 -2.49000
v 1.95320 4.71000 0.54000
v 1.95320 4.75000 0.54000
v 1.95310 4.75000 0.80000
v 1.95300 4.71000 1.23000
v 1.95310 5.56000 0.80000
v 1.95300 5.56000 1.23000
v 1.95410 4.71000 -2.98000
v 1.95430 4.71000 -3.67000
v 1.95410 4.75000 -3.22000
v 1.95410 4.75000 -2.98000
v 1.95430 5.56000 -3.67000
v 1.95410 5.56000 -3.22000
v 1.90190 4.77000 -2.53000
v 1.90190 4.81000 -2.53000
v 1.90120 4.81000 0.11000
v 1.90120 4.77000 0.11000
v 1.53480 5.35000 -2.45000
v 1.53480 6.24000 -2.45000
v 1.53410 6.24000 0.03000
v 1.53410 5.35000 0.03000
v 1.42920 6.24000 -0.07000
v 1.43060 6.24000 -2.34000
v 1.43060 6.77000 -2.34000
v 1.42920 6.77000 -0.07000
v 1.32500 7.24000 -0.18000
v 1.32500 6.77000 -0.18000
v 1.32560 6.77000 -2.24000
v 1.32560 7.24000 -2.24000
v 1.23880 7.20000 -2.24000
v 1.23880 7.23000 -2.25000
v 1.23880 7.23000 -2.24000
v 1.23830 7.24000 -0.22000
v 1.23880 7.24000 -2.23000
v 1.23840 8.01000 -0.58000
v -0.75730 8.01000 -1.85000
v -0.75770 7.24000 -0.20000
v -0.75720 7.24000 -2.21000
v -1.73590 5.35000 0.26000
v -1.73510 5.35000 -2.66000
v -1.72810 5.43000 0.26000
v -1.72820 5.43000 -2.66000
v -1.84620 4.74000 0.54000
v -1.84610 4.74000 0.11000
v -1.84360 4.77000 0.54000
v -1.84350 4.77000 0.11000
v -1.84530 4.74000 -2.98000
v -1.84270 4.77000 -2.98000
v -1.84280 4.77000 -2.53000
v -1.84540 4.74000 -2.53000
v -1.77410 5.56000 0.54000
v -1.77230 5.58000 0.11000
v -1.77250 5.58000 0.80000
v -1.77420 5.56000 0.80000
v -1.78530 5.44000 0.26000
v -1.78530 5.44000 0.11000
v -1.79230 5.35000 0.26000
v -1.79240 5.35000 0.54000
v -1.78460 5.44000 -2.66000
v -1.77320 5.56000 -2.98000
v -1.78460 5.44000 -2.53000
v -1.77160 5.58000 -2.53000
v -1.77140 5.58000 -3.22000
v -1.77320 5.56000 -3.22000
v -1.79140 5.35000 -2.98000
v -1.79150 5.35000 -2.66000
v -2.13070 5.59000 0.11000
v -2.17240 5.47000 0.11000
v -2.13060 5.59000 -0.18000
v -2.17230 5.47000 -0.18000
v -2.17170 5.47000 -2.53000
v -2.13000 5.59000 -2.53000
v -2.17170 5.47000 -2.31000
v -2.13010 5.59000 -2.31000
v -2.41980 4.79000 0.51000
v -2.41960 4.79000 -0.18000
v -2.41970 4.79000 0.11000
v -2.37450 4.92000 -0.18000
v -2.37450 4.92000 0.04000
v -2.32770 5.04000 0.11000
v -2.32770 5.04000 0.04000
v -2.41890 4.79000 -3.00000
v -2.41910 4.79000 -2.31000
v -2.41900 4.79000 -2.53000
v -2.37390 4.92000 -2.50000
v -2.37390 4.92000 -2.31000
v -2.32700 5.04000 -2.50000
v -2.32700 5.04000 -2.53000
v -2.63770 5.77000 -2.31000
v -2.63760 5.77000 -2.78000
v -2.62810 5.78000 -2.78000
v -2.63830 5.77000 -0.18000
v -2.62890 5.78000 0.28000
v -2.63840 5.77000 0.28000
v -2.72600 5.67000 -0.18000
v -2.72540 5.67000 -2.31000
v -3.17290 5.13000 -0.18000
v -3.12550 5.19000 -2.31000
v -3.12600 5.19000 -0.18000
v -3.17230 5.13000 -2.31000
v -1.14260 8.01000 -1.85000
v -1.14300 7.24000 -0.20000
v 0.85350 7.23000 -2.25000
v 0.85350 7.23000 -2.24000
v 0.85350 7.24000 -2.23000
v 0.85310 8.01000 -0.58000
v 0.85300 7.24000 -0.22000
v -1.14250 7.24000 -2.21000
v -1.22930 7.24000 -2.24000
v -1.22980 7.24000 -0.18000
v -1.22980 6.77000 -0.18000
v -1.33430 6.77000 -2.34000
v -1.33490 6.77000 -0.07000
v -1.22930 6.77000 -2.24000
v -1.33490 6.24000 -0.07000
v -1.49200 6.24000 0.03000
v -1.33430 6.24000 -2.34000
v -1.49130 6.24000 -2.45000
v -1.96350 5.56000 1.23000
v -1.96340 5.56000 0.80000
v 1.77090 5.56000 0.80000
v 1.77090 5.56000 0.54000
v 1.77190 5.56000 -3.22000
v -1.96220 5.56000 -3.67000
v -1.96240 5.56000 -3.22000
v 1.77180 5.56000 -2.98000
v 1.77020 5.58000 -3.22000
v 2.23700 5.62000 -3.00000
v 2.23690 5.62000 -2.53000
v 1.77000 5.58000 -2.53000
v 2.23530 5.62000 0.11000
v 1.76930 5.58000 0.11000
v 2.23520 5.63000 0.51000
v 1.76910 5.58000 0.80000
v -2.38600 5.64000 0.51000
v -2.38600 5.64000 0.80000
v -2.23840 5.63000 0.51000
v -2.23830 5.62000 0.11000
v -2.38500 5.64000 -3.22000
v -2.38500 5.64000 -3.00000
v -2.23840 5.62000 -3.00000
v -2.23850 5.62000 -2.53000
v 1.78910 5.35000 0.54000
v 1.73280 5.35000 0.26000
v 1.78920 5.35000 0.26000
v 1.73360 5.35000 -2.66000
v -1.49200 5.35000 0.03000
v -1.49130 5.35000 -2.45000
v 1.79010 5.35000 -2.98000
v 1.79000 5.35000 -2.66000
v 1.78300 5.44000 -2.53000
v 1.72660 5.43000 -2.66000
v 2.19200 5.47000 -0.18000
v 1.78300 5.44000 -2.66000
v 2.17000 5.47000 -2.31000
v 2.17010 5.47000 -2.53000
v 2.19340 5.47000 -2.31000
v 2.16950 5.47000 -0.18000
v 2.16940 5.47000 0.11000
v 1.78230 5.44000 0.11000
v 1.72590 5.43000 0.26000
v 1.78230 5.44000 0.26000
v -2.19490 5.47000 -0.18000
v -2.19510 5.47000 -2.31000
v 2.63610 5.77000 -2.77000
v 2.63600 5.77000 -2.31000
v 2.12840 5.59000 -2.31000
v 2.12840 5.59000 -2.53000
v 2.63550 5.77000 -0.18000
v 2.12780 5.59000 -0.18000
v 2.12770 5.59000 0.11000
v 2.63540 5.77000 0.28000
v -2.95520 5.89000 0.51000
v -2.95520 5.89000 0.28000
v -2.95440 5.89000 -2.78000
v -2.95430 5.89000 -3.00000
v 2.72400 5.67000 -0.18000
v 2.72450 5.67000 -2.31000
v 2.62660 5.78000 -2.77000
v 2.62580 5.78000 0.28000
v -3.18000 6.24000 -2.78000
v -3.18080 6.25000 0.28000
v -1.96350 4.71000 1.23000
v -1.96340 4.75000 0.80000
v -2.45980 4.79000 0.80000
v -3.24510 5.09000 0.51000
v -2.45880 4.80000 0.51000
v -2.42330 4.79000 0.51000
v 2.41660 4.79000 0.51000
v 2.41750 4.79000 0.51000
v 2.42010 4.79000 0.51000
v -3.72490 5.60000 0.28000
v -3.21640 5.17000 0.28000
v -2.33980 4.90000 0.04000
v 2.37160 4.92000 0.04000
v -3.24440 5.09000 -2.31000
v -3.21570 5.17000 -2.31000
v 2.37220 4.92000 -2.31000
v 2.41820 4.79000 -2.31000
v 3.17060 5.13000 -2.31000
v 3.12370 5.19000 -2.31000
v -2.45800 4.80000 -2.53000
v -2.45890 4.79000 -2.53000
v -2.42330 4.79000 -2.53000
v 2.41740 4.79000 -2.53000
v 1.84380 4.74000 -2.53000
v 1.84120 4.77000 -2.53000
v 2.42170 4.79000 -2.53000
v -2.34440 4.85000 -2.53000
v -1.91050 4.77000 -2.53000
v -1.91050 4.81000 -2.53000
v -1.96240 4.75000 -2.98000
v -1.96240 4.71000 -2.98000
v 1.84390 4.74000 -2.98000
v 1.84130 4.77000 -2.98000
v -3.72420 5.60000 -2.78000
v -3.24490 5.09000 -0.18000
v -3.21630 5.17000 -0.18000
v -3.24420 5.09000 -3.00000
v -3.21560 5.17000 -2.78000
v -2.45960 4.79000 0.11000
v -2.45870 4.80000 0.11000
v -2.45790 4.80000 -3.00000
v -2.45870 4.79000 -3.22000
v -2.33920 4.90000 -2.50000
v -2.34510 4.85000 0.11000
v -1.96330 4.71000 0.54000
v -1.96330 4.75000 0.54000
v -1.96220 4.71000 -3.67000
v -1.96240 4.75000 -3.22000
v -1.91120 4.81000 0.11000
v -1.91120 4.77000 0.11000
v 0.85350 7.20000 -2.24000
v 1.84310 4.74000 0.11000
v 1.84300 4.74000 0.54000
v 1.84050 4.77000 0.11000
v 1.84040 4.77000 0.54000
v 2.37230 4.92000 -2.49000
v 2.41840 4.79000 -3.00000
v 2.41750 4.79000 -3.00000
v 2.41670 4.79000 0.11000
v 2.41760 4.79000 -0.18000
v 2.37170 4.92000 -0.18000
v 3.12320 5.19000 -0.17000
v 3.17000 5.13000 -0.17000
v -2.42320 4.79000 0.11000
v -2.42320 4.79000 -3.00000
v 2.42180 4.79000 -3.00000
v 2.42020 4.79000 0.11000
v 1.07060 3.60000 -4.15000
v 1.07050 3.60000 -3.85000
v 1.07060 2.34000 -4.15000
v 1.07050 2.34000 -3.85000
v -1.03490 3.60000 -3.85000
v -1.03480 3.60000 -4.15000
v -1.03490 2.34000 -3.85000
v -1.03480 2.34000 -4.15000
v 0.94730 2.37000 -3.93000
v 0.94710 2.37000 -3.30000
v 0.94730 2.16000 -3.93000
v 0.94710 2.16000 -3.30000
v -0.91190 2.37000 -3.30000
v -0.91170 2.37000 -3.93000
v -0.91190 2.16000 -3.30000
v -0.91170 2.16000 -3.93000
v 0.36000 2.05000 3.61000
v 0.35990 2.19000 3.92000
v 0.35990 1.38000 3.92000
v 0.35980 1.52000 4.23000
v -0.36220 2.19000 3.92000
v -0.36210 2.05000 3.61000
v -0.36230 1.52000 4.23000
v -0.36230 1.38000 3.92000
v 1.91230 5.44000 -3.13000
v 1.91190 0.69000 0.69000
v 1.91230 5.44000 0.69000
v 1.91190 0.69000 -3.13000
v -1.91450 0.69000 -3.13000
v -1.91450 0.69000 0.69000
v -1.91410 5.44000 0.69000
v -1.91410 5.44000 -3.13000
v 1.56630 6.13000 -2.79000
v 1.56580 0.00000 0.35000
v 1.56630 6.13000 0.35000
v 1.56580 0.00000 -2.79000
v -1.56850 0.00000 -2.79000
v -1.56850 0.00000 0.35000
v -1.56800 6.13000 0.35000
v -1.56800 6.13000 -2.79000
v 2.40510 4.67000 -3.56000
v 2.40480 1.46000 1.13000
v 2.40510 4.67000 1.12000
v 2.40480 1.46000 -3.56000
v -2.40730 1.46000 -3.56000
v -2.40730 1.46000 1.13000
v -2.40700 4.67000 1.12000
v -2.40700 4.67000 -3.56000
v 1.47080 5.98000 -2.69000
v 1.47080 5.98000 0.25000
v 1.47080 5.24000 -2.69000
v 1.47080 5.24000 0.25000
v -1.47060 5.98000 0.25000
v -1.47060 5.98000 -2.69000
v -1.47060 5.24000 0.25000
v -1.47060 5.24000 -2.69000
v 1.83850 5.24000 -3.06000
v 1.83850 5.24000 0.62000
v 1.83850 4.51000 -3.06000
v 1.83850 4.51000 0.62000
v -1.83820 5.24000 0.62000
v -1.83820 5.24000 -3.06000
v -1.83820 4.51000 0.62000
v -1.83820 4.51000 -3.06000
v 1.47080 0.83000 -2.69000
v 1.47080 0.83000 0.25000
v 1.47080 0.09000 -2.69000
v 1.47080 0.09000 0.25000
v -1.47060 0.83000 0.25000
v -1.47060 0.83000 -2.69000
v -1.47060 0.09000 0.25000
v -1.47060 0.09000 -2.69000
v 1.75570 1.56000 -3.06000
v 1.75570 1.56000 0.62000
v 1.75570 0.83000 -3.06000
v 1.75570 0.83000 0.62000
v -1.83820 1.56000 0.62000
v -1.83820 1.56000 -3.06000
v -1.83820 0.83000 0.62000
v -1.83820 0.83000 -3.06000
vt 8.02165 -1.02077
vt 7.97835 -0.97923
vt 7.97833 -1.02076
vt 8.02165 -0.97924
vt 8.02167 -0.97924
vt 8.09284 -1.02167
vt 8.05453 -0.97835
vt 8.05453 -1.02167
vt 8.09284 -0.97835
vt 7.94547 -1.02165
vt 7.90715 -0.97835
vt 7.90715 -1.02165
vt 7.94547 -0.97835
vt 7.94547 -1.02076
vt 7.90716 -0.97923
vt 7.90716 -1.02076
vt 7.94547 -0.97923
vt 8.09285 -1.02076
vt 8.05453 -0.97923
vt 8.05453 -1.02076
vt 8.09285 -0.97923
vt 8.02167 -1.02076
vt 7.97833 -0.97924
vt 7.97835 -1.02077
vt 8.02165 -0.97923
vt 7.97835 -0.97924
vt 7.90716 -1.02165
vt 7.90716 -0.97833
vt 7.94547 -0.97833
vt 8.05453 -1.02165
vt 8.09285 -1.02165
vt 8.05453 -0.97833
vt 8.09285 -0.97833
vt 8.09284 -1.02077
vt 8.05453 -0.97924
vt 8.05453 -1.02077
vt 8.09284 -0.97924
vt 7.94547 -1.02077
vt 7.90715 -0.97924
vt 7.90715 -1.02077
vt 7.94547 -0.97924
vt 14.04040 -34.95240
vt 14.04030 -35.01900
vt 14.05260 -34.93970
vt 14.05260 -35.03000
vt 13.94750 -34.93970
vt 13.95970 -35.01900
vt 13.95970 -34.95240
vt 13.94750 -35.03000
vt 14.05260 -34.98520
vt 14.06480 -34.97330
vt 13.93520 -34.97320
vt 14.06480 -35.09550
vt 13.94750 -34.98520
vt 14.05250 -35.08680
vt 13.94740 -35.08680
vt 13.93520 -35.09540
vt 13.82540 -35.04040
vt 13.82540 -34.95980
vt 13.77650 -35.04040
vt 13.77650 -34.95980
vt 14.01550 -34.93520
vt 14.01550 -35.06480
vt 14.22350 -35.06480
vt 14.22350 -34.93520
vt 14.01340 -35.05260
vt 13.91580 -34.94750
vt 13.91580 -35.05260
vt 14.01340 -34.94750
vt 13.77650 -35.00990
vt 14.00610 -35.09540
vt 13.98450 -34.97320
vt 13.79810 -35.13210
vt 13.96820 -35.10370
vt 13.97360 -35.10120
vt 13.96750 -35.10220
vt 14.00450 -35.08680
vt 14.12630 -35.03000
vt 14.08420 -34.93970
vt 13.98660 -34.98520
vt 14.12110 -35.01900
vt 14.22350 -34.91670
vt 14.09020 -34.95240
vt 14.17460 -34.86790
vt 13.93520 -35.00990
vt 13.93520 -35.13210
vt 14.06480 -35.13210
vt 14.06480 -35.00990
vt 13.94750 -35.10230
vt 14.05260 -35.10370
vt 14.05260 -35.10220
vt 13.94750 -35.10370
vt 13.95960 -34.95240
vt 14.04020 -34.86790
vt 13.95960 -34.86790
vt 14.04030 -34.95240
vt 14.12110 -35.04030
vt 14.22350 -35.04040
vt 14.12110 -34.95970
vt 14.22350 -34.95980
vt 13.96750 -35.05250
vt 13.79810 -35.06480
vt 13.97360 -35.05250
vt 14.00610 -35.06480
vt 13.79810 -34.93520
vt 13.97360 -34.94740
vt 13.96750 -34.94740
vt 14.00610 -34.93520
vt 14.12630 -34.94750
vt 14.00450 -35.05250
vt 14.12630 -35.05260
vt 14.00450 -34.94740
vt 13.96820 -34.94740
vt 13.96820 -35.05250
vt 14.01550 -34.97330
vt 14.20190 -35.13210
vt 14.22350 -35.00990
vt 13.99390 -35.09550
vt 14.03250 -35.10230
vt 14.02640 -35.10120
vt 14.03180 -35.10370
vt 13.87370 -35.03000
vt 13.99550 -35.08680
vt 14.01340 -34.98520
vt 13.91580 -34.93970
vt 13.90980 -34.95240
vt 13.82540 -34.86790
vt 13.87890 -35.01900
vt 13.77650 -34.91670
vt 62.06480 -17.00990
vt 61.93520 -17.00990
vt 62.06480 -17.13210
vt 61.93520 -17.13210
vt 62.05250 -17.10230
vt 61.94740 -17.10370
vt 62.05250 -17.10370
vt 61.94740 -17.10220
vt 62.04040 -16.95240
vt 62.04040 -16.86790
vt 61.95980 -16.95240
vt 61.95980 -16.86790
vt 62.17460 -17.04040
vt 62.22350 -17.04040
vt 62.22350 -16.95980
vt 62.17460 -16.95980
vt 61.77650 -17.06480
vt 61.98450 -17.06480
vt 61.77650 -16.93520
vt 61.98450 -16.93520
vt 61.98660 -17.05260
vt 62.08420 -17.05260
vt 61.98660 -16.94750
vt 62.08420 -16.94750
vt 62.20190 -17.13210
vt 62.01550 -16.97320
vt 61.99390 -17.09540
vt 62.22350 -17.00990
vt 62.01340 -16.98520
vt 61.91580 -16.93970
vt 61.99550 -17.08670
vt 61.87370 -17.03000
vt 62.03250 -17.10220
vt 62.02640 -17.10110
vt 62.03180 -17.10370
vt 61.77650 -16.91670
vt 61.87890 -17.01900
vt 61.90980 -16.95240
vt 61.82540 -16.86790
vt 61.95970 -17.01900
vt 61.94740 -17.03000
vt 62.05250 -17.03000
vt 61.95960 -16.95240
vt 62.04030 -17.01900
vt 61.94740 -16.93970
vt 62.05250 -16.93970
vt 62.04020 -16.95240
vt 61.94740 -16.98520
vt 62.05250 -16.98520
vt 61.93520 -16.97320
vt 62.06480 -16.97320
vt 61.93520 -17.09550
vt 62.05260 -17.08670
vt 61.94750 -17.08680
vt 62.06480 -17.09540
vt 61.87890 -16.95970
vt 61.77650 -16.95980
vt 61.87890 -17.04030
vt 61.77650 -17.04040
vt 62.02640 -17.05250
vt 62.20190 -17.06480
vt 62.03250 -17.05250
vt 61.99390 -17.06480
vt 62.20190 -16.93520
vt 62.02640 -16.94750
vt 62.03250 -16.94750
vt 61.99390 -16.93520
vt 61.99550 -17.05250
vt 61.87370 -16.94750
vt 61.87370 -17.05260
vt 61.99550 -16.94750
vt 62.03190 -17.05250
vt 62.03180 -16.94750
vt 61.98450 -16.97320
vt 61.77650 -17.00990
vt 62.00610 -17.09550
vt 61.79810 -17.13210
vt 62.00450 -17.08680
vt 62.12630 -17.03000
vt 61.98660 -16.98520
vt 62.08420 -16.93970
vt 61.96810 -17.10370
vt 61.97360 -17.10120
vt 61.96750 -17.10230
vt 62.12110 -17.01900
vt 62.22350 -16.91670
vt 62.17460 -16.86790
vt 62.09020 -16.95240
vt 60.01610 -23.00400
vt 59.98390 -23.00400
vt 60.01610 -23.07470
vt 59.98390 -23.07470
vt 60.02210 -22.98890
vt 59.97790 -22.98890
vt 60.02210 -23.10570
vt 59.97800 -23.10570
vt 60.02810 -22.96620
vt 59.97190 -22.96620
vt 60.02810 -23.09490
vt 59.97200 -23.09490
vt 60.02800 -22.89430
vt 59.97190 -22.89430
vt 60.02810 -23.02300
vt 59.97190 -23.02300
vt 60.02200 -22.96800
vt 59.97790 -22.96800
vt 60.02210 -23.08490
vt 59.97800 -23.08490
vt 59.64800 -23.02810
vt 59.77250 -23.02800
vt 59.64800 -22.97190
vt 59.77250 -22.97190
vt 60.22750 -23.02800
vt 60.35200 -23.02800
vt 60.22750 -22.97190
vt 60.35200 -22.97190
vt 59.57870 -23.02210
vt 59.69680 -23.02210
vt 59.57870 -22.97790
vt 59.69680 -22.97790
vt 60.30320 -23.02200
vt 60.42130 -23.02210
vt 60.30320 -22.97790
vt 60.42130 -22.97790
vt 59.53940 -23.01610
vt 59.60530 -23.01610
vt 59.53940 -22.98390
vt 59.60530 -22.98390
vt 60.39470 -23.01610
vt 60.46060 -23.01610
vt 60.39470 -22.98390
vt 60.46060 -22.98390
vt 60.35200 -22.96620
vt 60.22750 -22.89430
vt 60.27770 -23.09490
vt 60.15320 -23.02300
vt 59.77250 -22.89430
vt 59.64800 -22.96620
vt 59.84680 -23.02300
vt 59.72230 -23.09490
vt 60.42130 -22.98890
vt 60.30320 -22.96810
vt 60.40060 -23.10570
vt 60.28260 -23.08490
vt 59.69680 -22.96800
vt 59.57870 -22.98890
vt 59.71740 -23.08490
vt 59.59930 -23.10570
vt 60.46060 -23.00400
vt 60.39470 -23.00400
vt 60.46060 -23.07470
vt 60.39470 -23.07470
vt 59.60530 -23.00400
vt 59.53940 -23.00400
vt 59.60530 -23.07470
vt 59.53940 -23.07470
vt 59.97790 -22.98880
vt 60.02200 -23.10570
vt 59.97790 -23.10570
vt 59.97200 -22.96620
vt 60.02800 -23.09490
vt 59.97190 -23.09490
vt 60.02810 -22.89430
vt 59.97200 -22.89430
vt 60.02210 -22.96810
vt 60.02200 -23.08490
vt 59.97790 -23.08490
vt 59.71740 -22.97800
vt 59.59930 -22.97800
vt 59.71740 -23.02210
vt 59.59930 -23.02210
vt 60.40060 -22.97800
vt 60.28260 -22.97800
vt 60.40060 -23.02210
vt 60.28260 -23.02210
vt 60.27770 -22.97200
vt 60.15320 -22.97190
vt 60.27770 -23.02810
vt 60.15320 -23.02810
vt 59.84680 -22.97190
vt 59.72230 -22.97200
vt 59.84680 -23.02810
vt 59.72230 -23.02810
vt 59.59940 -23.10570
vt 60.42130 -22.98880
vt 60.30320 -22.96800
vt 60.40070 -23.10570
vt 14.00710 -33.00540
vt 13.99890 -33.00540
vt 14.00710 -33.08090
vt 13.99890 -33.08090
vt 14.00710 -32.99400
vt 13.99290 -32.99400
vt 14.00710 -33.07600
vt 13.99290 -33.07600
vt 14.00710 -32.91910
vt 13.99290 -32.91910
vt 14.00710 -33.00110
vt 13.99290 -33.00110
vt 14.00710 -32.99180
vt 13.99890 -32.99190
vt 14.00710 -33.06740
vt 13.99890 -33.06740
vt 13.65470 -33.00710
vt 13.78450 -33.00710
vt 13.65470 -32.99290
vt 13.78450 -32.99290
vt 14.21560 -33.00700
vt 14.34530 -33.00710
vt 14.21560 -32.99290
vt 14.34530 -32.99290
vt 13.61130 -33.00710
vt 13.68800 -33.00710
vt 13.61130 -32.99890
vt 13.68800 -32.99890
vt 14.31200 -33.00710
vt 14.38870 -33.00710
vt 14.31200 -32.99890
vt 14.38870 -32.99890
vt 14.34530 -32.99400
vt 14.21550 -32.91910
vt 14.29800 -33.07600
vt 14.16820 -33.00110
vt 13.78440 -32.91910
vt 13.65470 -32.99400
vt 13.83180 -33.00110
vt 13.70200 -33.07600
vt 14.38870 -33.00540
vt 14.31200 -32.99190
vt 14.37540 -33.08090
vt 14.29870 -33.06740
vt 13.68800 -32.99190
vt 13.61130 -33.00540
vt 13.70130 -33.06740
vt 13.62460 -33.08090
vt 14.00110 -33.00540
vt 13.99290 -33.00540
vt 14.00110 -33.08090
vt 13.99290 -33.08090
vt 14.00110 -32.99190
vt 13.99290 -32.99190
vt 14.00110 -33.06740
vt 13.99290 -33.06740
vt 14.37540 -32.99890
vt 14.29870 -32.99890
vt 14.37540 -33.00710
vt 14.29870 -33.00710
vt 13.70130 -32.99890
vt 13.62460 -32.99890
vt 13.70130 -33.00710
vt 13.62460 -33.00710
vt 14.29800 -32.99290
vt 14.16820 -32.99290
vt 14.29800 -33.00710
vt 14.16820 -33.00710
vt 13.83180 -32.99290
vt 13.70200 -32.99290
vt 13.83180 -33.00710
vt 13.70200 -33.00710
vt 13.78450 -32.91910
vt 14.21560 -32.91910
vt 14.31200 -32.99180
vt 52.19540 -24.93890
vt 52.13440 -24.96740
vt 52.23050 -25.01410
vt 52.16950 -25.04260
vt 51.98210 -25.02090
vt 51.81980 -24.90720
vt 51.93180 -25.09270
vt 51.76950 -24.97910
vt 52.07030 -25.00920
vt 51.92410 -25.02190
vt 52.07590 -25.07320
vt 51.92970 -25.08600
vt 52.15480 -24.97330
vt 52.03870 -25.02740
vt 52.17600 -25.01890
vt 52.05990 -25.07300
vt 51.95950 -25.19540
vt 52.04050 -25.19540
vt 51.95950 -25.13440
vt 52.04050 -25.13440
vt 51.97350 -25.07030
vt 52.02650 -25.07030
vt 51.97350 -24.92410
vt 52.02650 -24.92410
vt 51.97820 -25.15480
vt 52.02180 -25.15480
vt 51.97820 -25.03870
vt 52.02180 -25.03870
vt 51.96420 -24.98210
vt 52.03580 -24.98210
vt 51.96420 -24.81980
vt 52.03580 -24.81980
vt 52.03580 -24.90720
vt 51.96420 -24.90730
vt 52.03580 -24.97910
vt 51.96420 -24.97910
vt 52.02650 -25.02190
vt 51.97350 -25.02190
vt 52.02650 -25.08600
vt 51.97350 -25.08600
vt 52.02180 -25.02740
vt 51.97820 -25.02740
vt 52.02180 -25.07300
vt 51.97820 -25.07300
vt 52.04050 -24.96740
vt 51.95950 -24.96740
vt 52.04050 -25.04260
vt 51.95950 -25.04260
vt 51.86560 -24.96740
vt 51.80460 -24.93890
vt 51.83050 -25.04260
vt 51.76950 -25.01410
vt 52.18020 -24.90730
vt 52.01790 -25.02090
vt 52.23050 -24.97910
vt 52.06820 -25.09280
vt 52.07590 -25.02190
vt 51.92970 -25.00920
vt 52.07030 -25.08600
vt 51.92410 -25.07320
vt 51.96130 -25.02740
vt 51.84520 -24.97330
vt 51.94010 -25.07300
vt 51.82400 -25.01890
vt 52.03580 -24.76950
vt 51.96420 -24.76950
vt 52.03580 -24.93180
vt 51.96420 -24.93180
vt 52.04050 -25.16950
vt 51.95950 -25.16950
vt 52.04050 -25.23050
vt 51.95950 -25.23050
vt 52.02650 -24.92970
vt 51.97350 -24.92970
vt 52.02650 -25.07590
vt 51.97350 -25.07590
vt 52.02180 -25.05990
vt 51.97820 -25.05990
vt 52.02180 -25.17600
vt 51.97820 -25.17600
vt 52.04050 -24.93890
vt 51.95950 -24.93890
vt 52.04050 -25.01410
vt 51.95950 -25.01410
vt 52.02180 -24.97330
vt 51.97820 -24.97330
vt 52.02180 -25.01890
vt 51.97820 -25.01890
vt 52.02650 -25.00920
vt 51.97350 -25.00920
vt 52.02650 -25.07320
vt 51.97350 -25.07320
vt 52.03580 -25.02090
vt 51.96420 -25.02090
vt 52.03580 -25.09280
vt 51.96420 -25.09270
vt 7.82302 -0.75000
vt 7.50000 -0.75000
vt 7.82302 -0.85581
vt 7.50000 -0.85581
vt 7.89137 -0.75000
vt 7.89137 -1.07302
vt 7.50000 -1.07302
vt 7.89137 -0.85581
vt 3.57908 -4.50000
vt 3.50000 -4.50000
vt 3.57908 -4.64981
vt 3.50000 -4.64981
vt 3.74777 -4.50000
vt 3.74777 -4.57907
vt 3.50000 -4.57907
vt 3.74777 -4.64981
vt 0.80151 0.50000
vt 0.25000 0.50000
vt 0.80151 0.13233
vt 0.25000 0.13233
vt 0.80151 -0.05151
vt 0.25000 -0.05151
vt 40.19440 -57.01440
vt 39.81300 -57.01430
vt 40.19440 -57.09540
vt 39.81290 -57.09530
vt 40.13630 -57.15870
vt 40.19440 -57.14880
vt 40.13630 -57.14880
vt 40.22230 -57.15870
vt 40.22240 -57.05930
vt 40.19440 -57.05930
vt 39.86960 -57.15860
vt 39.86960 -57.14870
vt 39.81290 -57.14870
vt 39.78360 -57.15860
vt 39.81290 -57.05920
vt 39.78360 -57.05920
vt 40.16420 -57.19570
vt 40.25020 -57.19570
vt 40.22230 -57.19450
vt 40.16420 -57.19450
vt 40.22240 -57.09030
vt 40.25030 -57.09030
vt 39.74790 -57.19560
vt 39.83390 -57.19560
vt 39.78360 -57.19440
vt 39.83390 -57.19440
vt 39.74790 -57.09020
vt 39.78360 -57.09020
vt 40.15940 -57.18210
vt 39.84300 -57.18200
vt 39.83390 -57.18910
vt 39.83390 -57.16450
vt 39.84300 -57.16450
vt 40.16420 -57.18920
vt 40.16430 -57.16450
vt 40.15940 -57.16450
vt 39.77990 -57.20570
vt 39.77990 -57.20110
vt 39.74790 -57.20110
vt 39.69390 -57.20570
vt 39.74790 -57.09990
vt 39.69390 -57.09990
vt 40.22010 -57.20580
vt 40.30610 -57.20580
vt 40.25020 -57.20120
vt 40.22010 -57.20120
vt 40.30610 -57.10000
vt 40.25030 -57.10000
vt 40.16420 -57.19930
vt 40.16420 -57.19400
vt 39.83390 -57.19400
vt 39.83390 -57.19920
vt 40.15340 -57.12620
vt 40.15340 -57.01480
vt 39.84350 -57.01470
vt 39.84350 -57.12620
vt 39.85660 -57.01480
vt 40.14030 -57.01480
vt 40.14030 -56.94930
vt 39.85660 -56.94920
vt 39.86980 -56.89020
vt 39.86970 -56.94920
vt 40.12730 -56.94930
vt 40.12730 -56.89030
vt 40.12730 -56.89470
vt 40.12870 -56.89160
vt 40.12730 -56.89100
vt 39.87510 -56.89020
vt 40.12580 -56.89030
vt 39.91990 -56.79420
vt 40.07860 -56.79420
vt 39.87270 -56.89020
vt 40.12340 -56.89030
vt 39.81510 -57.12620
vt 40.18040 -57.12620
vt 39.81510 -57.11600
vt 40.18040 -57.11610
vt 39.77990 -57.20230
vt 39.83390 -57.20230
vt 39.77990 -57.19920
vt 40.22010 -57.20240
vt 40.22010 -57.19930
vt 40.16420 -57.20240
vt 39.77990 -57.09990
vt 39.83390 -57.09690
vt 39.74790 -57.09690
vt 39.81510 -57.11540
vt 39.83390 -57.11540
vt 39.77990 -57.12620
vt 40.18040 -57.11540
vt 40.22010 -57.10000
vt 40.16420 -57.11540
vt 40.16420 -57.09700
vt 40.25030 -57.09700
vt 40.25020 -57.10000
vt 40.22010 -57.12620
vt 39.83390 -57.09670
vt 39.83390 -57.11110
vt 39.86960 -57.09670
vt 39.86960 -57.11110
vt 40.16420 -57.11120
vt 40.16420 -57.09680
vt 40.13630 -57.11120
vt 40.13630 -57.09680
vt 39.78360 -57.19620
vt 39.86960 -57.19620
vt 39.83390 -57.19610
vt 39.78360 -57.19600
vt 39.86960 -57.18050
vt 39.84300 -57.18050
vt 39.83390 -57.16460
vt 39.84300 -57.16460
vt 40.22230 -57.19620
vt 40.22230 -57.19610
vt 40.13630 -57.19620
vt 40.16420 -57.19610
vt 40.15940 -57.18060
vt 40.13630 -57.18050
vt 40.15940 -57.16460
vt 40.16420 -57.16460
vt 40.13630 -57.07370
vt 40.19440 -57.07370
vt 40.19440 -57.07230
vt 39.86960 -57.07360
vt 39.81290 -57.07220
vt 39.81290 -57.07360
vt 39.86960 -57.08670
vt 40.13630 -57.08680
vt 39.86960 -57.15320
vt 40.13630 -57.14630
vt 39.86960 -57.14630
vt 40.13630 -57.15330
vt 40.09450 -56.87270
vt 40.14270 -57.07860
vt 40.14270 -56.87270
vt 40.09450 -57.07860
vt 39.89320 -57.12870
vt 39.89320 -57.12730
vt 39.84500 -57.12730
vt 39.84500 -57.12870
vt 39.84500 -57.12580
vt 39.89320 -57.12580
vt 39.84500 -56.91990
vt 39.89320 -56.91990
vt 39.83420 -57.12730
vt 40.09450 -57.12340
vt 39.89320 -56.87510
vt 40.14270 -57.12340
vt 39.83420 -56.86980
vt 40.15350 -57.12730
vt 39.84500 -56.87510
vt 40.15350 -56.86980
vt 40.15350 -56.86970
vt 40.16670 -57.14040
vt 40.16670 -56.85660
vt 39.83420 -56.86970
vt 39.82110 -57.14030
vt 39.82120 -56.85660
vt 39.80800 -56.84350
vt 39.80800 -57.15340
vt 40.18630 -56.84350
vt 40.16670 -57.14030
vt 40.18630 -57.15340
vt 40.22160 -56.74790
vt 40.24520 -56.69390
vt 39.75570 -56.69390
vt 40.24520 -56.74790
vt 39.77840 -56.74790
vt 39.75570 -56.74790
vt 39.77840 -56.77990
vt 40.22160 -56.77990
vt 40.22160 -57.25020
vt 39.77840 -57.25030
vt 40.24520 -57.30610
vt 40.24520 -57.25020
vt 40.22160 -57.22010
vt 39.77840 -57.22010
vt 39.75570 -57.30610
vt 39.75570 -57.25030
vt 39.70200 -57.25030
vt 39.77860 -57.25030
vt 39.72030 -57.22240
vt 39.70200 -57.22240
vt 39.72030 -57.16430
vt 39.77860 -57.16430
vt 39.72040 -56.83390
vt 39.77860 -56.83390
vt 39.72040 -56.78360
vt 39.70200 -56.74790
vt 39.77860 -56.74790
vt 39.70200 -56.78360
vt 40.29800 -56.78360
vt 40.29800 -56.74790
vt 40.27960 -56.78360
vt 40.22130 -56.74790
vt 40.22130 -56.83390
vt 40.27960 -56.83390
vt 40.29800 -57.25030
vt 40.29800 -57.22230
vt 40.27970 -57.22230
vt 40.22130 -57.16420
vt 40.22130 -57.25030
vt 40.27970 -57.16420
vt 40.22380 -56.77990
vt 39.77620 -56.77990
vt 39.78320 -56.81510
vt 39.77620 -56.81510
vt 39.78320 -57.18040
vt 40.21680 -56.81510
vt 40.22380 -56.81510
vt 40.21680 -57.18040
vt 39.77620 -57.22010
vt 39.77620 -57.18040
vt 40.22380 -57.22010
vt 40.22380 -57.18040
vt 39.77700 -57.16430
vt 39.78410 -57.18040
vt 39.72580 -56.86960
vt 39.77700 -57.18040
vt 39.72860 -57.13630
vt 39.72860 -57.16430
vt 39.72570 -57.13630
vt 39.72860 -56.86960
vt 39.72860 -56.83390
vt 39.77700 -56.83390
vt 39.78410 -56.81510
vt 39.77700 -56.81510
vt 40.21580 -56.81510
vt 40.27140 -57.13630
vt 40.22300 -56.83390
vt 40.22300 -56.81510
vt 40.27140 -56.86960
vt 40.27140 -56.83390
vt 40.27420 -56.86960
vt 40.27430 -57.13630
vt 40.22300 -57.16420
vt 40.27140 -57.16420
vt 40.21590 -57.18040
vt 40.22300 -57.18040
vt 39.63080 -57.22240
vt 39.67040 -57.19440
vt 39.63080 -57.19440
vt 39.67040 -57.13640
vt 39.73380 -57.13630
vt 39.73380 -57.16430
vt 39.67040 -56.86960
vt 39.73380 -56.86960
vt 39.73380 -56.83390
vt 39.67040 -56.81290
vt 39.63080 -56.78360
vt 39.63080 -56.81290
vt 40.32960 -56.86960
vt 40.26620 -56.86960
vt 40.26620 -56.83390
vt 40.32960 -56.81290
vt 40.36920 -56.78360
vt 40.36920 -56.81290
vt 40.26620 -57.13630
vt 40.26620 -57.16420
vt 40.32960 -57.19440
vt 40.32960 -57.13630
vt 40.36920 -57.19440
vt 40.36920 -57.22230
vt 39.65930 -56.86960
vt 39.65930 -57.13630
vt 40.34060 -57.13630
vt 40.34060 -56.86960
vt 39.60260 -56.81300
vt 39.67160 -57.19440
vt 39.67160 -56.81290
vt 39.60260 -57.19440
vt 40.32840 -56.81290
vt 40.39740 -57.19440
vt 40.39740 -56.81290
vt 40.32840 -57.19440
vt 39.75480 -57.09990
vt 39.75480 -57.20570
vt 40.24430 -57.20570
vt 40.24430 -57.09990
vt 39.70200 -57.09020
vt 39.75480 -57.20100
vt 39.69270 -57.19560
vt 39.77870 -57.09690
vt 39.77840 -57.09990
vt 40.30730 -57.19560
vt 40.29800 -57.09020
vt 40.24430 -57.20110
vt 40.22140 -57.09690
vt 40.22160 -57.09990
vt 39.59460 -57.15860
vt 39.69280 -57.19440
vt 39.63080 -57.05920
vt 39.72040 -57.09180
vt 39.69730 -57.19600
vt 39.69770 -57.19620
vt 39.69770 -57.19600
vt 40.30230 -57.19600
vt 40.30240 -57.19610
vt 40.30270 -57.19600
vt 40.36920 -57.05920
vt 40.27960 -57.09180
vt 40.30720 -57.19440
vt 40.40540 -57.15860
vt 40.15500 -56.79420
vt 40.10680 -56.79420
vt 40.15500 -56.89020
vt 40.10680 -56.89020
vt 39.67160 -57.07220
vt 39.60260 -57.01430
vt 39.67040 -57.07360
vt 39.53460 -57.09530
vt 39.59810 -57.14870
vt 40.32840 -57.07220
vt 40.32960 -57.07360
vt 40.39740 -57.01430
vt 40.46540 -57.09530
vt 40.40190 -57.14870
vt 39.77620 -57.12620
vt 39.78320 -57.12620
vt 39.77700 -57.11540
vt 39.78420 -57.11600
vt 40.21590 -57.11600
vt 40.21680 -57.12620
vt 40.22380 -57.12620
vt 40.22300 -57.11540
vt 39.70340 -57.18050
vt 39.70770 -57.18200
vt 39.70920 -57.16460
vt 40.29240 -57.18200
vt 40.29660 -57.18050
vt 40.29080 -57.16450
vt 39.81370 -57.01480
vt 39.81370 -57.12620
vt 40.19200 -57.12620
vt 40.19200 -57.01470
vt 39.83330 -56.94920
vt 39.83330 -57.01480
vt 40.17880 -56.94920
vt 40.17880 -57.01480
vt 39.84650 -56.89020
vt 39.84650 -56.94920
vt 40.16580 -56.94920
vt 40.16580 -56.89020
vt 39.72570 -57.11090
vt 39.67040 -57.07370
vt 39.65940 -57.08680
vt 39.72860 -57.11120
vt 39.73380 -57.09680
vt 39.59460 -57.15870
vt 39.60360 -57.15330
vt 39.60940 -57.14630
vt 39.59810 -57.14880
vt 40.30240 -57.19620
vt 40.40540 -57.15870
vt 40.39640 -57.15330
vt 40.39060 -57.14630
vt 40.40190 -57.14880
vt 40.27430 -57.11090
vt 40.32960 -57.07370
vt 40.26620 -57.09680
vt 40.34070 -57.08680
vt 40.27140 -57.11120
vt 39.69280 -57.19450
vt 39.69270 -57.19570
vt 39.69720 -57.19610
vt 39.77870 -57.09700
vt 39.72030 -57.09190
vt 40.23780 -57.19400
vt 40.23780 -57.19930
vt 40.29290 -57.18920
vt 40.30230 -57.19610
vt 40.23060 -57.20240
vt 40.23020 -57.19930
vt 40.30720 -57.19450
vt 40.30280 -57.19600
vt 40.30730 -57.19570
vt 40.27970 -57.09190
vt 40.22140 -57.09700
vt 39.69770 -57.19610
vt 39.70710 -57.18920
vt 39.76940 -57.20240
vt 39.76130 -57.19930
vt 39.76130 -57.19400
vt 39.76980 -57.19930
vt 39.75480 -57.20110
vt 39.75480 -57.20580
vt 40.24430 -57.20580
vt 40.24430 -57.20120
vt 39.77840 -57.10000
vt 39.80560 -57.01440
vt 39.80560 -57.09540
vt 40.18710 -57.09530
vt 40.18710 -57.01430
vt 40.18710 -57.14870
vt 40.21640 -57.15860
vt 40.18710 -57.05920
vt 40.21640 -57.05920
vt 40.13040 -57.15860
vt 40.13040 -57.14880
vt 39.77770 -57.15870
vt 39.86370 -57.15870
vt 39.86370 -57.14880
vt 39.80560 -57.14880
vt 39.77770 -57.05930
vt 39.80560 -57.05930
vt 40.21640 -57.09020
vt 40.21640 -57.19440
vt 40.25210 -57.09020
vt 40.25210 -57.19560
vt 40.16610 -57.19560
vt 40.16610 -57.19440
vt 39.77770 -57.19450
vt 39.77770 -57.09030
vt 39.74980 -57.19570
vt 39.74970 -57.09030
vt 39.83580 -57.19570
vt 39.83580 -57.19450
vt 39.83580 -57.16460
vt 39.84060 -57.18210
vt 39.84060 -57.16460
vt 39.83580 -57.18920
vt 40.16610 -57.18910
vt 40.15700 -57.18200
vt 40.16610 -57.16460
vt 40.15700 -57.16460
vt 40.25210 -57.09990
vt 40.25210 -57.20100
vt 40.30610 -57.09990
vt 40.30610 -57.20570
vt 40.22010 -57.20570
vt 40.22010 -57.20100
vt 39.69390 -57.20580
vt 39.77990 -57.20580
vt 39.74980 -57.20110
vt 39.74980 -57.10000
vt 39.69390 -57.10000
vt 39.83580 -57.19400
vt 39.83580 -57.19930
vt 40.16610 -57.19390
vt 40.16610 -57.19920
vt 40.15650 -57.01480
vt 39.84660 -57.01480
vt 40.15650 -57.12620
vt 39.84660 -57.12620
vt 39.85970 -57.01480
vt 40.14340 -56.94920
vt 39.85960 -56.94930
vt 40.14340 -57.01480
vt 39.87270 -56.89030
vt 40.13030 -56.94920
vt 40.13020 -56.89020
vt 39.87270 -56.94930
vt 39.87660 -56.89030
vt 40.12730 -56.89020
vt 39.92140 -56.79420
vt 39.87270 -56.89470
vt 39.87270 -56.89100
vt 39.87130 -56.89160
vt 39.87420 -56.89030
vt 40.12490 -56.89020
vt 40.08010 -56.79420
vt 39.81960 -57.12620
vt 40.18490 -57.11600
vt 39.81960 -57.11600
vt 40.18490 -57.12620
vt 39.77990 -57.19930
vt 39.77990 -57.20240
vt 39.83580 -57.20240
vt 40.16610 -57.20230
vt 40.22010 -57.20230
vt 40.22010 -57.19920
vt 39.81960 -57.11540
vt 39.83570 -57.09700
vt 39.83570 -57.11540
vt 39.74970 -57.09700
vt 39.74970 -57.10000
vt 40.16610 -57.09690
vt 40.18490 -57.11540
vt 40.16610 -57.11540
vt 40.22010 -57.09990
vt 40.25210 -57.09690
vt 39.84060 -57.18050
vt 39.86370 -57.19620
vt 39.86370 -57.18050
vt 39.83580 -57.19610
vt 39.77770 -57.19620
vt 39.77770 -57.19610
vt 39.83570 -57.16450
vt 39.84060 -57.16450
vt 40.16610 -57.19600
vt 40.13040 -57.19620
vt 40.21640 -57.19610
vt 40.15700 -57.18050
vt 40.13040 -57.18050
vt 40.16610 -57.16450
vt 40.15700 -57.16450
vt 39.86370 -57.11120
vt 39.86370 -57.09680
vt 39.83570 -57.09680
vt 39.83570 -57.11120
vt 40.16610 -57.11110
vt 40.13040 -57.09670
vt 40.13040 -57.11110
vt 40.16610 -57.09670
vt 39.80560 -57.07230
vt 39.80560 -57.07370
vt 40.18710 -57.07220
vt 39.86360 -57.07370
vt 40.13040 -57.07360
vt 40.18710 -57.07360
vt 39.86370 -57.08680
vt 40.13040 -57.08670
vt 40.13040 -57.14620
vt 39.86370 -57.14630
vt 39.86370 -57.15330
vt 40.13040 -57.15320
vt 39.53460 -56.81290
vt 39.59810 -57.13630
vt 39.59810 -56.86960
vt 39.59810 -56.81290
vt 39.53460 -57.19440
vt 39.59810 -57.19440
vt 39.60360 -57.13630
vt 39.60360 -56.86960
vt 40.40190 -56.86960
vt 40.40190 -57.13630
vt 40.46540 -57.19440
vt 40.40190 -57.19440
vt 40.39640 -57.13630
vt 40.39640 -56.86960
vt 40.40190 -56.81290
vt 40.46540 -56.81290
vt 39.59460 -56.78360
vt 39.59460 -56.86960
vt 39.69770 -56.86960
vt 39.69280 -56.83390
vt 39.69280 -56.78360
vt 39.69730 -56.83390
vt 39.69770 -56.78360
vt 39.69730 -56.78360
vt 39.59460 -57.13630
vt 39.69280 -57.16420
vt 39.69770 -57.13630
vt 39.69720 -57.16420
vt 39.69280 -57.22230
vt 39.59460 -57.22230
vt 39.69720 -57.22230
vt 39.69770 -57.22230
vt 40.30240 -57.22230
vt 40.30280 -57.22230
vt 40.30280 -57.16420
vt 40.30240 -57.13630
vt 40.30720 -57.16420
vt 40.40540 -57.22230
vt 40.30720 -57.22230
vt 40.40540 -57.13630
vt 40.30240 -56.78360
vt 40.30270 -56.83390
vt 40.30270 -56.78360
vt 40.30240 -56.86960
vt 40.30720 -56.83390
vt 40.40540 -56.86960
vt 40.40540 -56.78360
vt 40.30720 -56.78360
vt 39.70340 -56.84300
vt 39.70340 -56.86960
vt 39.70770 -56.84300
vt 39.70770 -57.15940
vt 39.70340 -57.13630
vt 39.70340 -57.15940
vt 39.60940 -57.13630
vt 39.60940 -56.86960
vt 40.29240 -57.15940
vt 40.29660 -56.86960
vt 40.29660 -56.84300
vt 40.29240 -56.84300
vt 40.29660 -57.15940
vt 40.29660 -57.13630
vt 40.39060 -56.86960
vt 40.39060 -57.13630
vt 39.69270 -56.83390
vt 39.69270 -56.74790
vt 39.76940 -56.83390
vt 39.69770 -56.83390
vt 39.75480 -56.77990
vt 39.75480 -56.74790
vt 39.76940 -56.77990
vt 39.69270 -57.25020
vt 39.69270 -57.16420
vt 39.75480 -57.25020
vt 39.75480 -57.22010
vt 39.76940 -57.16420
vt 39.76940 -57.22010
vt 39.69770 -57.16420
vt 40.30230 -57.16420
vt 40.23060 -57.16420
vt 40.30230 -57.22230
vt 40.30730 -57.25020
vt 40.30730 -57.16420
vt 40.24430 -57.22010
vt 40.24430 -57.25020
vt 40.23060 -57.22010
vt 40.30730 -56.83390
vt 40.30730 -56.74790
vt 40.30230 -56.78360
vt 40.24430 -56.74790
vt 40.30230 -56.83390
vt 40.24430 -56.77990
vt 40.23060 -56.83390
vt 40.23060 -56.77990
vt 39.70710 -57.16420
vt 39.76130 -57.16420
vt 39.76130 -56.83390
vt 39.70710 -56.83390
vt 40.29290 -57.16420
vt 40.29290 -56.83390
vt 40.23780 -56.83390
vt 40.23780 -57.16420
vt 39.75480 -56.69390
vt 40.24430 -56.69390
vt 39.75480 -57.30610
vt 40.24430 -57.30610
vt 39.76980 -56.83390
vt 39.76980 -57.16420
vt 40.23020 -56.77990
vt 39.76980 -56.77990
vt 39.76980 -57.22010
vt 40.23020 -56.83390
vt 40.23020 -57.16420
vt 40.23020 -57.22010
vt 40.24520 -57.10000
vt 39.75570 -57.10000
vt 40.24520 -57.20580
vt 39.75570 -57.20580
vt 40.22160 -57.10000
vt 40.22130 -57.09700
vt 40.29800 -57.09030
vt 40.24520 -57.20110
vt 39.75570 -57.20120
vt 39.70200 -57.09030
vt 39.77860 -57.09700
vt 40.36920 -57.05930
vt 40.30230 -57.19620
vt 40.30280 -57.19610
vt 39.63080 -57.05930
vt 39.69760 -57.19620
vt 40.14270 -56.89030
vt 40.09450 -56.79420
vt 40.09450 -56.89030
vt 40.14270 -56.79420
vt 40.32840 -57.07230
vt 40.39740 -57.01440
vt 40.46540 -57.09540
vt 39.67160 -57.07230
vt 39.60260 -57.01440
vt 39.53460 -57.09540
vt 40.21590 -57.11610
vt 39.78410 -57.11600
vt 40.29660 -57.18060
vt 40.29080 -57.16460
vt 40.29230 -57.18210
vt 39.70920 -57.16450
vt 39.70760 -57.18210
vt 39.80800 -57.12620
vt 40.18630 -57.12620
vt 39.80800 -57.01480
vt 40.18630 -57.01480
vt 39.82110 -57.01480
vt 40.16670 -57.01480
vt 40.16670 -56.94930
vt 39.82110 -56.94930
vt 39.89320 -56.89100
vt 40.15350 -56.89030
vt 39.84500 -56.89100
vt 39.89320 -56.89470
vt 39.83420 -56.89030
vt 40.15350 -56.94930
vt 39.84500 -56.89470
vt 39.83420 -56.94930
vt 39.89320 -56.89160
vt 39.84500 -56.89160
vt 40.27420 -57.11090
vt 40.34060 -57.08670
vt 40.26620 -57.09670
vt 40.27140 -57.11110
vt 40.39640 -57.15320
vt 39.60360 -57.15320
vt 39.60940 -57.14620
vt 39.65930 -57.08670
vt 39.72580 -57.11090
vt 39.72860 -57.11110
vt 39.73380 -57.09670
vt 40.22130 -57.09690
vt 40.29290 -57.18910
vt 40.23060 -57.20230
vt 40.23870 -57.19920
vt 40.23870 -57.19390
vt 40.23020 -57.19920
vt 39.77860 -57.09690
vt 39.70710 -57.18910
vt 39.76220 -57.19920
vt 39.76220 -57.19400
vt 39.76940 -57.20230
vt 39.76980 -57.19920
vt 39.75570 -57.20570
vt 39.75570 -57.20110
vt 40.24520 -57.20570
vt 40.24520 -57.20100
vt 6.53672 -3.75000
vt 6.50000 -3.75000
vt 6.53672 -3.90751
vt 6.50000 -3.90751
vt 6.76317 -3.75000
vt 6.76317 -3.78672
vt 6.50000 -3.78672
vt 6.76317 -3.90751
vt 6.07907 -5.75000
vt 6.00000 -5.75000
vt 6.07907 -5.77659
vt 6.00000 -5.77659
vt 6.23237 -5.75000
vt 6.23237 -5.82907
vt 6.00000 -5.82907
vt 6.23237 -5.77659
vt 7.04244 -0.75000
vt 7.00000 -0.75000
vt 7.04244 -0.84235
vt 7.00000 -0.84235
vt 7.09026 -0.75000
vt 7.09026 -0.79244
vt 7.00000 -0.79244
vt 7.09026 -0.84235
vt -3.64409 4.70170
vt -3.16579 4.10818
vt -3.16579 4.70170
vt -3.64409 4.10818
vt -3.16579 4.64409
vt -3.64409 4.64409
vt -3.64409 4.16579
vt -3.16579 4.16579
vt 1.65121 1.94171
vt 2.04299 1.17518
vt 2.04299 1.94171
vt 1.65121 1.17518
vt 2.04299 1.75434
vt 1.65121 1.75434
vt 1.65121 1.36255
vt 2.04299 1.36255
vt -1.88111 2.88411
vt -1.29499 2.48313
vt -1.29499 2.88411
vt -1.88111 2.48313
vt -1.28729 2.97668
vt -1.88881 2.97668
vt -1.88881 2.39056
vt -1.28729 2.39056
vt -1.88881 2.88411
vt -1.28729 2.48313
vt -1.28729 2.88411
vt -1.88881 2.48313
vt 4.36767 0.00000
vt 4.00000 0.00000
vt 4.36767 -0.09192
vt 4.00000 -0.09192
vt 4.36767 -0.36767
vt 4.00000 -0.36767
vt 2.45959 -2.75000
vt 2.00000 -2.75000
vt 2.45959 -2.84192
vt 2.00000 -2.84192
vt 2.45959 -3.20959
vt 2.00000 -3.20959
vt 5.11767 -5.50000
vt 4.75000 -5.50000
vt 5.11767 -5.59192
vt 4.75000 -5.59192
vt 5.11767 -5.86767
vt 4.75000 -5.86767
vt 0.45959 -2.00000
vt 0.00000 -2.00000
vt 0.45959 -2.09192
vt 0.00000 -2.09192
vt 0.44924 -2.00000
vt 0.44924 -2.45959
vt 0.00000 -2.45959
vt 0.44924 -2.09192
vn 1.0000 0.0000 0.0000
vn 0.0000 1.0000 0.0000
vn 0.0000 0.0000 1.0000
vn -1.0000 0.0000 0.0000
vn 0.0000 -1.0000 0.0000
vn 0.0000 0.0000 -1.0000
vn 0.9055 0.4252 0.0000
vn 0.9843 0.1732 0.0000
vn 0.7087 0.7087 0.0000
vn -0.1732 0.9843 0.0000
vn -0.4252 0.9055 0.0000
vn -0.9843 -0.1732 0.0000
vn -0.9055 -0.4252 0.0000
vn -0.7087 0.7087 0.0000
vn 0.7087 -0.7087 0.0000
vn 0.1732 -0.9843 0.0000
vn 0.4252 -0.9055 0.0000
vn 0.9843 -0.1732 0.0000
vn 0.9055 -0.4252 0.0000
vn 0.1732 0.9843 0.0000
vn 0.4252 0.9055 0.0000
vn -0.9055 0.4252 0.0000
vn -0.9843 0.1732 0.0000
vn -0.7087 -0.7087 0.0000
vn -0.1732 -0.9843 0.0000
vn -0.4252 -0.9055 0.0000
vn -0.8661 -0.5039 0.0000
vn -0.8661 0.5039 0.0000
vn -0.5039 0.8661 0.0000
vn 0.5039 0.8661 0.0000
vn 0.8661 -0.5039 0.0000
vn 0.8661 0.5039 0.0000
vn 0.5039 -0.8661 0.0000
vn -0.5039 -0.8661 0.0000
vn 0.0000 0.9055 -0.4252
vn 0.0000 1.0000 -0.0866
vn 0.0000 0.8189 0.5748
vn 0.0000 0.5748 -0.8189
vn 0.0000 -0.0866 -1.0000
vn 0.0000 -0.4252 -0.9055
vn 0.0000 -0.8189 -0.5748
vn 0.0000 -0.9055 0.4252
vn 0.0000 -1.0000 0.0866
vn 0.0000 0.4252 0.9055
vn 0.0000 0.0866 1.0000
vn 0.0000 -0.5748 0.8189
vn 0.7638 0.6457 0.0000
vn 0.9370 0.3386 0.0000
vn 1.0000 0.0866 0.0000
vn 1.0000 -0.0866 0.0000
vn 0.9370 -0.3386 0.0000
vn 0.7638 -0.6457 0.0000
vn 0.0000 0.9055 0.4252
vn -0.0866 1.0000 0.0000
vn 0.0866 1.0000 0.0000
vn -0.3386 0.9370 0.0000
vn 0.3386 0.9370 0.0000
vn -0.6457 0.7638 0.0000
vn 0.6457 0.7638 0.0000
vn -0.7638 0.6457 0.0000
vn -0.9370 0.3386 0.0000
vn -1.0000 0.0866 0.0000
vn -1.0000 -0.0866 0.0000
vn -0.9370 -0.3386 0.0000
vn -0.7638 -0.6457 0.0000
vn -0.6457 -0.7638 0.0000
vn 0.6457 -0.7638 0.0000
vn -0.3386 -0.9370 0.0000
vn 0.3386 -0.9370 0.0000
vn -0.0866 -1.0000 0.0000
vn 0.0866 -1.0000 0.0000
vn 0.0000 0.4252 -0.9055

o E3
usemtl c_8d4d3a
f 1/1/1 2/2/1 3/3/1
f 4/4/1 2/2/1 1/1/1
f 5/1/1 6/2/1 7/3/1
f 8/5/1 6/2/1 5/1/1
f 9/6/2 6/7/2 8/8/2
f 10/9/2 6/7/2 9/6/2
f 11/10/2 2/11/2 4/12/2
f 12/13/2 2/11/2 11/10/2
f 7/14/3 10/15/3 13/16/3
f 6/17/3 10/15/3 7/14/3
f 3/18/3 12/19/3 14/20/3
f 2/21/3 12/19/3 3/18/3
f 13/22/4 9/23/4 15/24/4
f 10/25/4 9/23/4 13/22/4
f 14/22/4 11/26/4 16/24/4
f 12/25/4 11/26/4 14/22/4
f 15/27/5 5/10/5 13/28/5
f 13/28/5 5/10/5 7/29/5
f 16/30/5 1/31/5 14/32/5
f 14/32/5 1/31/5 3/33/5
f 15/34/6 8/35/6 5/36/6
f 9/37/6 8/35/6 15/34/6
f 16/38/6 4/39/6 1/40/6
f 11/41/6 4/39/6 16/38/6
usemtl c_ffaa00
f 17/42/7 18/43/7 19/44/7
f 18/43/7 20/45/7 19/44/7
f 17/42/7 19/44/7 21/46/7
f 18/43/7 22/47/7 20/45/7
f 23/48/7 17/42/7 21/46/7
f 22/47/7 24/49/7 20/45/7
f 23/48/7 21/46/7 24/49/7
f 22/47/7 23/48/7 24/49/7
f 25/50/8 26/51/8 27/52/8
f 25/50/8 28/53/8 26/51/8
f 29/54/8 25/50/8 27/52/8
f 28/53/8 25/50/8 30/55/8
f 31/56/8 29/54/8 27/52/8
f 30/55/8 31/56/8 28/53/8
f 31/56/8 27/52/8 32/57/8
f 31/56/8 32/57/8 28/53/8
f 33/58/9 34/59/9 35/60/9
f 36/61/9 35/60/9 34/59/9
f 27/62/10 26/63/10 37/64/10
f 27/62/10 37/64/10 38/65/10
f 25/66/11 21/67/11 19/68/11
f 29/69/11 21/67/11 25/66/11
f 38/70/3 32/71/3 27/72/3
f 32/71/3 38/70/3 39/73/3
f 40/74/3 41/75/3 42/76/3
f 31/77/3 24/78/3 21/79/3
f 21/79/3 29/80/3 31/77/3
f 22/81/3 36/82/3 23/83/3
f 23/83/3 36/82/3 34/84/3
f 37/85/12 43/86/12 39/87/12
f 37/85/12 39/87/12 38/88/12
f 44/89/13 40/90/13 42/91/13
f 44/89/13 45/92/13 40/90/13
f 17/93/14 34/94/14 33/95/14
f 34/94/14 17/93/14 23/96/14
f 18/97/15 35/98/15 22/99/15
f 22/99/15 35/98/15 36/100/15
f 44/101/16 43/102/16 46/103/16
f 43/102/16 28/104/16 46/103/16
f 44/101/16 39/105/16 43/102/16
f 28/104/16 41/106/16 46/103/16
f 39/105/16 44/101/16 42/107/16
f 41/106/16 39/105/16 42/107/16
f 41/106/16 28/104/16 32/108/16
f 41/106/16 32/108/16 39/105/16
f 24/109/17 30/110/17 20/111/17
f 24/109/17 31/112/17 30/110/17
f 40/113/17 45/114/17 41/106/17
f 45/114/17 46/103/17 41/106/17
f 26/115/6 43/116/6 37/117/6
f 28/118/6 43/116/6 26/115/6
f 44/119/6 46/120/6 45/121/6
f 20/122/6 30/123/6 25/124/6
f 25/124/6 19/125/6 20/122/6
f 17/126/6 33/127/6 18/128/6
f 18/128/6 33/127/6 35/129/6
f 47/130/18 48/131/18 49/132/18
f 50/133/18 49/132/18 48/131/18
f 51/134/19 52/135/19 53/136/19
f 51/134/19 54/137/19 52/135/19
f 55/138/9 56/139/9 57/140/9
f 57/140/9 56/139/9 58/141/9
f 56/142/14 59/143/14 60/144/14
f 56/142/14 60/144/14 58/145/14
f 47/146/20 61/147/20 48/148/20
f 48/148/20 61/147/20 62/149/20
f 63/150/21 64/151/21 65/152/21
f 65/152/21 64/151/21 66/153/21
f 50/154/3 62/155/3 67/156/3
f 62/155/3 50/154/3 48/157/3
f 65/158/3 66/159/3 68/160/3
f 68/160/3 66/159/3 69/161/3
f 54/162/3 70/163/3 52/164/3
f 60/165/3 71/166/3 57/167/3
f 57/167/3 58/168/3 60/165/3
f 72/169/22 73/170/22 69/171/22
f 72/169/22 55/172/22 73/170/22
f 71/173/22 72/169/22 69/171/22
f 55/172/22 64/174/22 73/170/22
f 71/173/22 69/171/22 66/175/22
f 55/172/22 57/176/22 64/174/22
f 57/176/22 71/173/22 66/175/22
f 57/176/22 66/175/22 64/174/22
f 63/177/23 65/178/23 61/179/23
f 65/178/23 62/180/23 61/179/23
f 63/177/23 61/179/23 74/181/23
f 65/178/23 68/182/23 62/180/23
f 75/183/23 63/177/23 74/181/23
f 68/182/23 67/184/23 62/180/23
f 75/183/23 74/181/23 67/184/23
f 68/182/23 75/183/23 67/184/23
f 71/185/24 60/186/24 72/187/24
f 72/187/24 60/186/24 59/188/24
f 76/189/25 49/190/25 51/191/25
f 76/189/25 74/192/25 49/190/25
f 51/191/25 49/190/25 50/193/25
f 76/189/25 70/194/25 74/192/25
f 54/195/25 51/191/25 50/193/25
f 50/193/25 70/194/25 54/195/25
f 50/193/25 67/196/25 70/194/25
f 70/194/25 67/196/25 74/192/25
f 75/197/26 69/198/26 73/199/26
f 68/200/26 69/198/26 75/197/26
f 76/189/26 53/201/26 70/194/26
f 53/201/26 52/202/26 70/194/26
f 61/203/6 47/204/6 74/205/6
f 49/206/6 74/205/6 47/204/6
f 75/207/6 73/208/6 63/209/6
f 63/209/6 73/208/6 64/210/6
f 53/211/6 76/212/6 51/213/6
f 72/214/6 59/215/6 56/216/6
f 56/216/6 55/217/6 72/214/6
usemtl c_8f4c2a
f 77/218/4 78/219/4 79/220/4
f 79/220/4 78/219/4 80/221/4
f 81/222/12 82/223/12 83/224/12
f 83/224/12 82/223/12 84/225/12
f 85/226/27 86/227/27 87/228/27
f 87/228/27 86/227/27 88/229/27
f 89/230/28 90/231/28 91/232/28
f 91/232/28 90/231/28 92/233/28
f 93/234/23 94/235/23 95/236/23
f 95/236/23 94/235/23 96/237/23
f 97/218/4 98/219/4 99/220/4
f 99/220/4 98/219/4 100/221/4
f 85/238/29 101/239/29 86/240/29
f 86/240/29 101/239/29 102/241/29
f 89/242/30 103/243/30 90/244/30
f 90/244/30 103/243/30 104/245/30
f 81/246/10 105/247/10 82/248/10
f 82/248/10 105/247/10 106/249/10
f 93/250/20 107/251/20 94/252/20
f 94/252/20 107/251/20 108/253/20
f 77/254/2 109/255/2 78/256/2
f 78/256/2 109/255/2 110/257/2
f 97/258/2 111/259/2 98/260/2
f 98/260/2 111/259/2 112/261/2
f 86/262/6 102/263/6 88/264/6
f 88/264/6 102/263/6 113/265/6
f 90/266/6 104/267/6 92/268/6
f 92/268/6 104/267/6 114/269/6
f 82/270/6 106/271/6 84/272/6
f 84/272/6 106/271/6 115/273/6
f 94/274/6 108/275/6 96/276/6
f 96/276/6 108/275/6 116/277/6
f 78/278/6 110/279/6 80/280/6
f 80/280/6 110/279/6 117/281/6
f 98/282/6 112/283/6 100/284/6
f 100/284/6 112/283/6 118/285/6
f 112/218/1 111/219/1 118/220/1
f 118/220/1 111/219/1 119/221/1
f 108/222/18 107/286/18 116/287/18
f 116/287/18 107/286/18 120/288/18
f 104/226/31 103/289/31 114/290/31
f 114/290/31 103/289/31 121/291/31
f 102/292/32 101/293/32 113/232/32
f 113/232/32 101/293/32 122/233/32
f 106/294/8 105/235/8 115/295/8
f 115/295/8 105/235/8 123/296/8
f 110/218/1 109/219/1 117/220/1
f 117/220/1 109/219/1 124/221/1
f 80/261/5 117/260/5 79/259/5
f 79/259/5 117/260/5 124/258/5
f 100/257/5 118/256/5 99/255/5
f 99/255/5 118/256/5 119/254/5
f 96/297/25 116/298/25 95/299/25
f 95/299/25 116/298/25 120/300/25
f 84/301/16 115/302/16 83/303/16
f 83/303/16 115/302/16 123/304/16
f 88/305/33 113/306/33 87/307/33
f 87/307/33 113/306/33 122/308/33
f 92/309/34 114/310/34 91/311/34
f 91/311/34 114/310/34 121/312/34
f 101/266/3 85/267/3 122/268/3
f 122/268/3 85/267/3 87/269/3
f 103/262/3 89/263/3 121/264/3
f 121/264/3 89/263/3 91/265/3
f 105/274/3 81/275/3 123/276/3
f 123/276/3 81/275/3 83/313/3
f 107/314/3 93/315/3 120/316/3
f 120/316/3 93/315/3 95/273/3
f 109/282/3 77/283/3 124/284/3
f 124/284/3 77/283/3 79/285/3
f 111/278/3 97/279/3 119/280/3
f 119/280/3 97/279/3 99/281/3
usemtl c_552b07
f 125/317/12 126/318/12 127/319/12
f 127/319/12 126/318/12 128/320/12
f 129/321/27 130/322/27 131/323/27
f 131/323/27 130/322/27 132/324/27
f 133/325/28 134/326/28 135/327/28
f 135/327/28 134/326/28 136/328/28
f 137/329/23 138/330/23 139/331/23
f 139/331/23 138/330/23 140/332/23
f 129/333/29 141/334/29 130/335/29
f 130/335/29 141/334/29 142/336/29
f 133/337/30 143/338/30 134/339/30
f 134/339/30 143/338/30 144/340/30
f 125/341/10 145/342/10 126/343/10
f 126/343/10 145/342/10 146/344/10
f 137/345/20 147/346/20 138/347/20
f 138/347/20 147/346/20 148/348/20
f 130/349/6 142/350/6 132/351/6
f 132/351/6 142/350/6 149/352/6
f 134/353/6 144/354/6 136/355/6
f 136/355/6 144/354/6 150/356/6
f 126/357/6 146/358/6 128/359/6
f 128/359/6 146/358/6 151/360/6
f 138/361/6 148/362/6 140/363/6
f 140/363/6 148/362/6 152/364/6
f 148/365/18 147/366/18 152/367/18
f 152/367/18 147/366/18 153/368/18
f 144/321/31 143/322/31 150/323/31
f 150/323/31 143/322/31 154/324/31
f 142/325/32 141/326/32 149/327/32
f 149/327/32 141/326/32 155/328/32
f 146/369/8 145/370/8 151/371/8
f 151/371/8 145/370/8 156/372/8
f 128/373/16 151/374/16 127/375/16
f 127/375/16 151/374/16 156/376/16
f 140/377/25 152/378/25 139/379/25
f 139/379/25 152/378/25 153/380/25
f 132/381/33 149/382/33 131/383/33
f 131/383/33 149/382/33 155/384/33
f 136/385/34 150/386/34 135/387/34
f 135/387/34 150/386/34 154/388/34
f 141/389/3 129/354/3 155/355/3
f 155/355/3 129/354/3 131/356/3
f 145/361/3 125/362/3 156/363/3
f 156/363/3 125/362/3 127/364/3
f 143/349/3 133/390/3 154/351/3
f 154/351/3 133/390/3 135/352/3
f 147/357/3 137/391/3 153/359/3
f 153/359/3 137/391/3 139/360/3
f 157/392/4 158/393/4 159/394/4
f 159/394/4 158/393/4 160/395/4
f 161/396/4 162/397/4 163/398/4
f 163/398/4 162/397/4 164/399/4
f 165/400/4 166/401/4 167/402/4
f 167/402/4 166/401/4 168/403/4
f 169/404/4 170/405/4 171/406/4
f 171/406/4 170/405/4 172/407/4
f 157/408/35 173/409/35 158/410/35
f 158/410/35 173/409/35 174/411/35
f 165/412/36 175/413/36 166/414/36
f 166/414/36 175/413/36 176/415/36
f 169/416/35 177/417/35 170/418/35
f 170/418/35 177/417/35 178/419/35
f 161/420/37 179/421/37 162/422/37
f 162/422/37 179/421/37 180/423/37
f 162/424/38 180/425/38 164/426/38
f 164/426/38 180/425/38 181/427/38
f 166/428/39 176/429/39 168/430/39
f 168/430/39 176/429/39 182/431/39
f 170/432/40 178/433/40 172/434/40
f 172/434/40 178/433/40 183/435/40
f 158/436/40 174/437/40 160/438/40
f 160/438/40 174/437/40 184/439/40
f 174/440/1 173/441/1 184/442/1
f 184/442/1 173/441/1 185/443/1
f 180/444/1 179/445/1 181/446/1
f 181/446/1 179/445/1 186/447/1
f 176/448/1 175/449/1 182/450/1
f 182/450/1 175/449/1 187/451/1
f 178/452/1 177/453/1 183/454/1
f 183/454/1 177/453/1 188/455/1
f 164/456/41 181/457/41 163/458/41
f 163/458/41 181/457/41 186/459/41
f 160/460/42 184/461/42 159/462/42
f 159/462/42 184/461/42 185/463/42
f 168/464/43 182/465/43 167/466/43
f 167/466/43 182/465/43 187/467/43
f 172/468/42 183/469/42 171/470/42
f 171/470/42 183/469/42 188/471/42
f 173/472/44 157/473/44 185/474/44
f 185/474/44 157/473/44 159/475/44
f 177/476/44 169/477/44 188/478/44
f 188/478/44 169/477/44 171/479/44
f 175/480/45 165/481/45 187/482/45
f 187/482/45 165/481/45 167/483/45
f 179/484/46 161/485/46 186/486/46
f 186/486/46 161/485/46 163/487/46
f 189/488/1 190/489/1 191/490/1
f 191/490/1 190/489/1 192/491/1
f 193/492/2 190/489/2 194/493/2
f 194/493/2 190/489/2 189/494/2
f 190/492/3 193/489/3 192/495/3
f 192/495/3 193/489/3 195/491/3
f 193/488/4 194/489/4 195/490/4
f 195/490/4 194/489/4 196/491/4
f 196/492/5 191/489/5 195/493/5
f 195/493/5 191/489/5 192/494/5
f 194/492/6 189/489/6 196/495/6
f 196/495/6 189/489/6 191/491/6
usemtl c_ffcc99
f 197/496/1 198/497/1 199/498/1
f 199/498/1 198/497/1 200/499/1
f 201/500/2 198/497/2 202/501/2
f 202/501/2 198/497/2 197/502/2
f 198/500/3 201/497/3 200/503/3
f 200/503/3 201/497/3 203/499/3
f 201/496/4 202/497/4 203/498/4
f 203/498/4 202/497/4 204/499/4
f 204/500/5 199/497/5 203/501/5
f 203/501/5 199/497/5 200/502/5
f 202/500/6 197/497/6 204/503/6
f 204/503/6 197/497/6 199/499/6
f 205/504/1 206/505/1 207/506/1
f 207/506/1 206/505/1 208/507/1
f 209/504/2 206/505/2 210/508/2
f 210/508/2 206/505/2 205/509/2
f 206/504/3 209/505/3 208/506/3
f 208/506/3 209/505/3 211/507/3
f 209/504/4 210/505/4 211/506/4
f 211/506/4 210/505/4 212/507/4
f 212/504/5 207/505/5 211/508/5
f 211/508/5 207/505/5 208/509/5
f 210/504/6 205/505/6 212/506/6
f 212/506/6 205/505/6 207/507/6
usemtl c_14594d
f 213/510/47 214/511/47 215/512/47
f 216/513/47 215/512/47 214/511/47
f 217/514/48 218/515/48 219/516/48
f 217/514/48 220/517/48 218/515/48
f 218/515/48 220/517/48 221/518/48
f 221/518/48 222/519/48 218/515/48
f 223/520/48 224/521/48 225/522/48
f 226/523/48 223/520/48 225/522/48
f 225/522/48 227/524/48 226/523/48
f 228/525/48 226/523/48 227/524/48
f 229/526/49 230/527/49 231/528/49
f 229/526/49 231/528/49 232/529/49
f 230/527/49 233/530/49 231/528/49
f 233/530/49 230/527/49 234/531/49
f 235/532/49 236/533/49 237/534/49
f 238/535/49 237/534/49 236/533/49
f 235/532/49 237/534/49 239/536/49
f 239/536/49 237/534/49 240/537/49
f 241/538/49 242/539/49 243/540/49
f 242/539/49 244/541/49 243/540/49
f 242/539/49 245/542/49 244/541/49
f 243/540/49 246/543/49 241/538/49
f 246/543/49 247/544/49 241/538/49
f 247/544/49 248/545/49 241/538/49
f 249/546/1 250/547/1 251/548/1
f 252/549/1 249/546/1 251/548/1
f 252/549/1 251/548/1 253/550/1
f 254/551/1 252/549/1 253/550/1
f 255/552/1 256/553/1 257/554/1
f 255/552/1 257/554/1 258/555/1
f 257/554/1 256/553/1 259/556/1
f 259/556/1 260/557/1 257/554/1
f 261/558/1 262/559/1 263/560/1
f 263/560/1 264/561/1 261/558/1
f 265/562/1 266/563/1 267/564/1
f 268/565/1 265/562/1 267/564/1
f 269/566/1 270/567/1 271/568/1
f 272/569/1 269/566/1 271/568/1
f 273/570/1 274/571/1 275/572/1
f 275/572/1 276/573/1 273/570/1
f 277/574/1 278/575/1 279/576/1
f 280/577/1 281/578/1 282/579/1
f 283/580/1 284/581/1 285/582/1
f 286/583/50 287/584/50 288/585/50
f 287/584/50 289/586/50 288/585/50
f 290/587/50 291/588/50 292/589/50
f 291/588/50 293/561/50 292/589/50
f 294/590/50 295/591/50 296/558/50
f 297/592/50 294/590/50 296/558/50
f 298/593/50 299/594/50 300/595/50
f 298/593/50 300/595/50 301/550/50
f 302/596/50 299/594/50 298/593/50
f 302/596/50 303/597/50 299/594/50
f 298/593/50 304/583/50 302/596/50
f 305/598/50 304/583/50 298/593/50
f 306/599/50 307/600/50 308/601/50
f 309/602/50 308/601/50 307/600/50
f 309/602/50 307/600/50 310/603/50
f 311/604/50 310/603/50 307/600/50
f 306/599/50 312/605/50 307/600/50
f 313/584/50 312/605/50 306/599/50
f 314/606/51 315/607/51 316/608/51
f 317/609/51 316/608/51 315/607/51
f 318/610/51 319/611/51 320/612/51
f 321/613/51 320/612/51 319/611/51
f 322/614/51 323/615/51 324/616/51
f 322/614/51 324/616/51 322/617/51
f 325/618/51 324/616/51 323/615/51
f 324/616/51 325/618/51 326/619/51
f 327/620/51 324/616/51 326/619/51
f 327/620/51 326/619/51 328/621/51
f 329/622/51 329/623/51 330/624/51
f 330/624/51 329/623/51 331/625/51
f 330/624/51 331/625/51 332/626/51
f 330/624/51 332/626/51 333/627/51
f 334/628/51 331/625/51 335/629/51
f 332/626/51 331/625/51 334/628/51
f 336/630/52 337/631/52 338/632/52
f 336/630/52 338/632/52 339/633/52
f 339/633/52 338/632/52 340/634/52
f 341/635/52 339/633/52 340/634/52
f 342/636/52 336/630/52 339/633/52
f 343/637/52 336/630/52 342/636/52
f 344/638/52 345/639/52 346/640/52
f 345/639/52 344/638/52 347/641/52
f 284/642/53 348/643/53 349/644/53
f 283/645/53 348/643/53 284/642/53
f 350/646/35 351/647/35 279/648/35
f 278/649/35 350/646/35 279/648/35
f 281/650/35 352/651/35 282/652/35
f 282/652/35 352/651/35 353/653/35
f 276/654/2 285/655/2 352/651/2
f 352/651/2 285/655/2 354/656/2
f 276/654/2 352/651/2 281/650/2
f 285/655/2 284/642/2 354/656/2
f 276/654/2 355/657/2 285/655/2
f 273/658/2 276/654/2 281/650/2
f 356/659/2 355/657/2 276/654/2
f 273/658/2 281/650/2 280/660/2
f 356/659/2 349/644/2 355/657/2
f 280/660/2 357/661/2 273/658/2
f 349/644/2 356/659/2 357/661/2
f 354/656/2 357/661/2 280/660/2
f 349/644/2 357/661/2 284/642/2
f 284/642/2 357/661/2 354/656/2
f 358/662/2 359/663/2 360/664/2
f 359/663/2 358/662/2 361/659/2
f 358/662/2 360/664/2 274/665/2
f 359/663/2 361/659/2 271/666/2
f 274/665/2 360/664/2 272/667/2
f 271/666/2 361/659/2 275/654/2
f 272/667/2 275/654/2 274/665/2
f 271/666/2 275/654/2 272/667/2
f 362/664/2 267/668/2 269/667/2
f 267/668/2 266/669/2 269/667/2
f 363/670/2 267/668/2 362/664/2
f 270/666/2 269/667/2 266/669/2
f 364/671/2 363/670/2 362/664/2
f 266/669/2 365/672/2 270/666/2
f 365/672/2 363/670/2 364/671/2
f 364/671/2 270/666/2 365/672/2
f 301/673/2 366/674/2 254/675/2
f 367/676/2 366/674/2 301/673/2
f 368/677/2 301/673/2 254/675/2
f 253/678/2 368/677/2 254/675/2
f 369/679/2 301/673/2 368/677/2
f 369/679/2 298/680/2 301/673/2
f 311/681/2 370/682/2 371/683/2
f 371/683/2 372/684/2 311/681/2
f 370/682/2 311/681/2 307/685/2
f 370/682/2 307/685/2 373/686/2
f 259/687/2 371/683/2 370/682/2
f 259/687/2 370/682/2 260/688/2
f 234/689/54 374/690/54 375/691/54
f 233/692/54 234/689/54 375/691/54
f 375/691/54 374/690/54 376/693/54
f 376/693/54 374/690/54 377/694/54
f 378/695/54 379/696/54 380/697/54
f 380/697/54 379/696/54 239/698/54
f 379/696/54 381/699/54 239/698/54
f 239/698/54 240/700/54 380/697/54
f 382/701/55 383/702/55 384/703/55
f 300/704/55 384/703/55 383/702/55
f 299/705/55 384/703/55 300/704/55
f 299/705/55 385/706/55 384/703/55
f 386/707/55 387/708/55 388/709/55
f 388/709/55 309/710/55 386/707/55
f 310/711/55 386/707/55 309/710/55
f 309/710/55 388/709/55 389/712/55
f 268/668/2 305/713/2 390/714/2
f 391/715/2 268/668/2 390/714/2
f 390/714/2 392/716/2 391/715/2
f 391/715/2 393/717/2 268/668/2
f 305/713/2 268/668/2 394/670/2
f 393/717/2 265/669/2 268/668/2
f 394/670/2 286/718/2 305/713/2
f 286/718/2 304/719/2 305/713/2
f 394/670/2 287/720/2 286/718/2
f 395/672/2 287/720/2 394/670/2
f 396/721/2 265/669/2 393/717/2
f 396/721/2 395/672/2 265/669/2
f 396/721/2 287/720/2 395/672/2
f 393/717/2 397/722/2 396/721/2
f 396/721/2 312/723/2 287/720/2
f 312/723/2 313/724/2 287/720/2
f 398/725/54 399/726/54 400/727/54
f 398/725/54 401/728/54 399/726/54
f 402/729/54 398/725/54 400/727/54
f 402/729/54 403/730/54 398/725/54
f 400/727/54 404/731/54 402/729/54
f 400/727/54 399/726/54 405/732/54
f 399/726/54 406/733/54 405/732/54
f 399/726/54 407/734/54 406/733/54
f 399/726/54 408/735/54 407/734/54
f 408/735/54 409/736/54 407/734/54
f 288/737/55 320/738/55 303/739/55
f 302/740/55 288/737/55 303/739/55
f 320/738/55 317/741/55 303/739/55
f 303/739/55 317/741/55 315/742/55
f 320/738/55 410/743/55 317/741/55
f 411/744/55 410/743/55 320/738/55
f 308/745/55 320/738/55 288/737/55
f 320/738/55 308/745/55 318/746/55
f 288/737/55 289/747/55 308/745/55
f 289/747/55 306/748/55 308/745/55
f 221/749/56 412/750/56 222/751/56
f 221/749/56 376/693/56 412/750/56
f 221/749/56 375/691/56 376/693/56
f 376/693/56 413/752/56 412/750/56
f 413/752/56 376/693/56 414/753/56
f 376/693/56 415/754/56 414/753/56
f 416/755/56 417/756/56 378/695/56
f 378/695/56 417/756/56 418/757/56
f 416/755/56 378/695/56 419/758/56
f 419/758/56 378/695/56 228/759/56
f 378/695/56 380/697/56 228/759/56
f 227/760/56 419/758/56 228/759/56
f 339/761/57 385/706/57 316/762/57
f 314/763/57 316/762/57 385/706/57
f 385/706/57 339/761/57 384/703/57
f 384/703/57 339/761/57 341/764/57
f 341/764/57 420/765/57 384/703/57
f 421/766/57 420/765/57 341/764/57
f 389/712/57 321/767/57 319/768/57
f 389/712/57 337/769/57 321/767/57
f 336/770/57 321/767/57 337/769/57
f 337/769/57 389/712/57 388/709/57
f 388/709/57 422/771/57 337/769/57
f 388/709/57 423/772/57 422/771/57
f 424/773/56 425/774/56 400/727/56
f 425/774/56 404/731/56 400/727/56
f 410/743/57 411/744/57 343/775/57
f 410/743/57 343/775/57 342/776/57
f 214/777/58 426/778/58 427/779/58
f 213/780/58 426/778/58 214/777/58
f 340/781/59 428/782/59 429/783/59
f 338/784/59 428/782/59 340/781/59
f 366/785/3 430/786/3 252/787/3
f 254/788/3 366/785/3 252/787/3
f 383/789/3 431/790/3 367/785/3
f 383/789/3 432/791/3 431/790/3
f 300/792/3 383/789/3 367/785/3
f 300/792/3 367/785/3 301/793/3
f 253/788/3 235/794/3 239/795/3
f 251/796/3 235/794/3 253/788/3
f 239/795/3 381/797/3 253/788/3
f 381/797/3 368/798/3 253/788/3
f 433/799/3 434/800/3 420/801/3
f 420/801/3 434/800/3 382/789/3
f 382/789/3 384/802/3 420/801/3
f 435/803/3 322/804/3 322/805/3
f 436/806/3 437/807/3 438/808/3
f 228/809/3 380/810/3 240/795/3
f 240/795/3 237/811/3 228/809/3
f 228/809/3 237/811/3 226/812/3
f 282/813/44 353/814/44 280/815/44
f 353/814/44 354/816/44 280/815/44
f 340/817/3 429/818/3 421/801/3
f 340/817/3 421/801/3 341/819/3
f 429/818/3 439/820/3 421/801/3
f 439/820/3 440/821/3 421/801/3
f 427/822/3 419/823/3 227/809/3
f 214/824/3 427/822/3 227/809/3
f 227/809/3 216/825/3 214/824/3
f 227/809/3 225/826/3 216/825/3
f 304/827/3 286/828/3 302/829/3
f 302/829/3 286/828/3 288/830/3
f 408/831/3 391/832/3 392/833/3
f 409/834/3 408/831/3 392/833/3
f 326/835/3 441/836/3 328/837/3
f 242/838/3 442/839/3 245/840/3
f 363/841/3 394/842/3 268/843/3
f 267/844/3 363/841/3 268/843/3
f 360/845/3 362/846/3 272/847/3
f 272/847/3 362/846/3 269/848/3
f 357/849/3 358/850/3 274/851/3
f 274/851/3 273/852/3 357/849/3
f 411/853/3 336/854/3 343/855/3
f 336/854/3 411/853/3 320/856/3
f 321/857/3 336/854/3 320/856/3
f 443/858/3 333/835/3 347/859/3
f 347/859/3 333/835/3 345/860/3
f 333/835/3 443/858/3 330/804/3
f 444/861/3 443/858/3 347/859/3
f 445/839/3 446/862/3 217/863/3
f 447/864/3 445/839/3 217/863/3
f 445/839/3 447/864/3 448/865/3
f 447/864/3 217/863/3 219/866/3
f 404/867/3 413/868/3 414/869/3
f 404/867/3 425/870/3 413/868/3
f 414/869/3 402/871/3 404/867/3
f 449/872/3 450/873/3 451/874/3
f 318/856/3 308/829/3 309/875/3
f 319/857/3 318/856/3 309/875/3
f 309/875/3 389/876/3 319/857/3
f 262/877/3 261/878/3 246/879/3
f 261/878/3 452/880/3 246/879/3
f 452/880/3 247/840/3 246/879/3
f 261/878/3 453/881/3 452/880/3
f 454/882/3 453/881/3 261/878/3
f 232/883/3 455/884/3 229/885/3
f 376/886/3 377/887/3 415/869/3
f 415/869/3 377/887/3 398/834/3
f 415/869/3 398/834/3 403/871/3
f 331/888/3 456/889/3 335/837/3
f 456/889/3 331/888/3 297/890/3
f 457/891/3 456/889/3 297/890/3
f 456/889/3 457/891/3 458/892/3
f 297/890/3 296/893/3 457/891/3
f 459/894/3 460/895/3 294/890/3
f 294/890/3 460/895/3 255/896/3
f 461/881/3 294/890/3 255/896/3
f 255/896/3 258/897/3 461/881/3
f 295/893/3 294/890/3 461/881/3
f 461/881/3 462/882/3 295/893/3
f 307/898/3 312/827/3 396/833/3
f 396/833/3 373/798/3 307/898/3
f 428/899/60 463/900/60 439/901/60
f 428/899/60 439/901/60 429/902/60
f 440/903/61 433/904/61 421/905/61
f 421/905/61 433/904/61 420/906/61
f 440/903/61 464/907/61 433/904/61
f 465/908/61 464/907/61 440/903/61
f 466/909/61 443/910/61 444/911/61
f 444/911/61 467/912/61 466/909/61
f 467/912/61 423/913/61 466/909/61
f 423/913/61 467/912/61 422/914/61
f 382/915/62 434/916/62 383/917/62
f 434/916/62 432/918/62 383/917/62
f 434/916/62 468/919/62 432/918/62
f 469/920/62 468/919/62 434/916/62
f 470/921/62 387/922/62 471/923/62
f 471/923/62 387/922/62 386/924/62
f 470/921/62 471/923/62 450/925/62
f 449/926/62 470/921/62 450/925/62
f 335/927/62 472/928/62 334/929/62
f 335/927/62 456/930/62 472/928/62
f 472/928/62 456/930/62 473/931/62
f 441/932/62 472/928/62 473/931/62
f 441/932/62 473/931/62 327/933/62
f 328/934/62 441/932/62 327/933/62
f 367/935/4 431/936/4 366/937/4
f 431/936/4 430/938/4 366/937/4
f 431/936/4 474/939/4 430/938/4
f 475/940/4 474/939/4 431/936/4
f 476/941/4 460/942/4 477/943/4
f 459/547/4 477/943/4 460/942/4
f 477/943/4 372/944/4 476/941/4
f 476/941/4 372/944/4 371/945/4
f 458/946/4 457/947/4 478/948/4
f 478/948/4 457/947/4 479/949/4
f 363/950/4 365/951/4 394/952/4
f 365/951/4 395/953/4 394/952/4
f 364/954/4 360/955/4 359/956/4
f 360/955/4 364/954/4 362/957/4
f 356/958/4 358/959/4 357/960/4
f 361/961/4 358/959/4 356/958/4
f 355/962/4 349/963/4 348/964/4
f 480/965/4 351/966/4 350/967/4
f 352/968/4 354/969/4 353/970/4
f 393/971/63 408/972/63 399/973/63
f 393/971/63 391/974/63 408/972/63
f 462/975/63 461/976/63 453/977/63
f 454/947/63 462/975/63 453/977/63
f 481/978/63 482/979/63 483/949/63
f 484/980/63 483/949/63 482/979/63
f 396/598/63 397/971/63 401/981/63
f 401/981/63 373/593/63 396/598/63
f 401/981/63 377/982/63 373/593/63
f 401/981/63 398/983/63 377/982/63
f 373/593/63 377/982/63 374/984/63
f 374/984/63 370/985/63 373/593/63
f 390/605/63 379/986/63 409/987/63
f 392/974/63 390/605/63 409/987/63
f 379/986/63 407/988/63 409/987/63
f 379/986/63 390/605/63 369/989/63
f 369/989/63 381/990/63 379/986/63
f 381/990/63 369/989/63 368/935/63
f 485/991/64 446/992/64 445/993/64
f 485/991/64 452/994/64 446/992/64
f 452/994/64 486/995/64 446/992/64
f 452/994/64 487/996/64 486/995/64
f 247/997/64 452/994/64 485/991/64
f 485/991/64 248/998/64 247/997/64
f 488/999/64 489/1000/64 437/1001/64
f 488/999/64 442/1002/64 489/1000/64
f 442/1002/64 490/1003/64 489/1000/64
f 488/999/64 244/1004/64 442/1002/64
f 244/1004/64 245/1005/64 442/1002/64
f 402/1006/64 414/1007/64 415/1008/64
f 402/1006/64 415/1008/64 403/1009/64
f 406/1010/64 417/1011/64 405/1012/64
f 417/1011/64 406/1010/64 418/1013/64
f 426/1014/65 412/1015/65 427/1016/65
f 427/1016/65 412/1015/65 413/1017/65
f 427/1016/65 413/1017/65 416/1018/65
f 427/1016/65 416/1018/65 419/1019/65
f 413/1017/65 425/1020/65 416/1018/65
f 416/1018/65 425/1020/65 424/1021/65
f 491/1022/65 448/1023/65 447/1024/65
f 491/1022/65 447/1024/65 492/1025/65
f 439/1026/66 444/1027/66 465/1028/66
f 439/1026/66 465/1028/66 440/1029/66
f 463/1030/66 444/1027/66 439/1026/66
f 467/1031/66 444/1027/66 463/1030/66
f 444/1027/66 347/1032/66 465/1028/66
f 465/1028/66 347/1032/66 344/1033/66
f 224/1034/67 219/1035/67 215/1036/67
f 219/1035/67 218/1037/67 215/1036/67
f 447/1038/67 219/1035/67 224/1034/67
f 447/1038/67 224/1034/67 492/1039/67
f 224/1034/67 215/1036/67 225/1040/67
f 225/1040/67 215/1036/67 216/1041/67
f 433/1042/68 464/1043/68 323/1044/68
f 433/1042/68 323/1044/68 469/1045/68
f 434/1046/68 433/1042/68 469/1045/68
f 469/1045/68 323/1044/68 493/1047/68
f 493/1047/68 323/1044/68 322/1048/68
f 435/1049/68 493/1047/68 322/1048/68
f 443/1050/68 449/1051/68 330/1052/68
f 449/1051/68 451/1053/68 330/1052/68
f 443/1050/68 470/1054/68 449/1051/68
f 470/1054/68 443/1050/68 466/1055/68
f 494/1056/68 329/1057/68 451/1053/68
f 451/1053/68 329/1057/68 330/1052/68
f 486/1058/69 495/1059/69 455/1060/69
f 446/1061/69 486/1058/69 455/1060/69
f 446/1061/69 455/1060/69 232/1062/69
f 446/1061/69 232/1062/69 220/1063/69
f 231/1064/69 220/1063/69 232/1062/69
f 446/1061/69 220/1063/69 217/1065/69
f 437/1066/69 496/1067/69 438/1068/69
f 437/1066/69 489/1069/69 496/1067/69
f 489/1069/69 238/1070/69 496/1067/69
f 489/1069/69 223/1071/69 238/1070/69
f 238/1070/69 223/1071/69 226/1072/69
f 237/1073/69 238/1070/69 226/1072/69
f 326/1074/68 325/1075/68 441/1076/68
f 325/1075/68 472/1077/68 441/1076/68
f 333/1078/68 472/1077/68 325/1075/68
f 333/1078/68 332/1079/68 472/1077/68
f 345/1080/68 333/1078/68 325/1075/68
f 345/1080/68 325/1075/68 346/1081/68
f 241/1082/69 490/1083/69 442/1084/69
f 442/1084/69 242/1085/69 241/1082/69
f 241/1082/69 485/1086/69 445/1087/69
f 241/1082/69 445/1087/69 490/1083/69
f 490/1083/69 445/1087/69 491/1088/69
f 445/1087/69 448/1089/69 491/1088/69
f 468/1090/70 493/1047/70 435/1049/70
f 468/1090/70 435/1049/70 432/1091/70
f 432/1091/70 435/1049/70 322/1048/70
f 432/1091/70 322/1048/70 291/1092/70
f 322/1048/70 324/1093/70 291/1092/70
f 291/1092/70 475/1094/70 432/1091/70
f 432/1091/70 475/1094/70 431/1095/70
f 475/1094/70 291/1092/70 290/1096/70
f 471/1097/70 329/1057/70 494/1056/70
f 471/1097/70 494/1056/70 450/1098/70
f 450/1098/70 494/1056/70 451/1053/70
f 329/1057/70 471/1097/70 477/1099/70
f 329/1057/70 477/1099/70 459/1100/70
f 329/1057/70 459/1100/70 297/1101/70
f 297/1101/70 459/1100/70 294/1102/70
f 331/1103/70 329/1057/70 297/1101/70
f 452/1104/71 453/1105/71 487/1106/71
f 453/1105/71 230/1107/71 487/1106/71
f 230/1107/71 495/1059/71 487/1106/71
f 495/1059/71 230/1107/71 229/1108/71
f 455/1060/71 495/1059/71 229/1108/71
f 258/1109/71 230/1107/71 453/1105/71
f 258/1109/71 257/1110/71 230/1107/71
f 453/1105/71 461/1111/71 258/1109/71
f 438/1068/71 236/1112/71 235/1113/71
f 236/1112/71 438/1068/71 496/1067/71
f 436/1114/71 438/1068/71 235/1113/71
f 251/1115/71 436/1114/71 235/1113/71
f 251/1115/71 488/1116/71 436/1114/71
f 250/1117/71 488/1116/71 251/1115/71
f 481/1118/71 488/1116/71 250/1117/71
f 482/1119/71 481/1118/71 250/1117/71
f 456/1120/70 458/1121/70 478/1122/70
f 473/1123/70 456/1120/70 478/1122/70
f 246/1124/71 243/1125/71 263/1126/71
f 246/1124/71 263/1126/71 262/1127/71
f 430/1128/5 474/1094/5 249/1117/5
f 252/1129/5 430/1128/5 249/1117/5
f 460/1100/5 476/1130/5 256/1131/5
f 255/1109/5 460/1100/5 256/1131/5
f 479/1122/5 457/1121/5 293/1132/5
f 457/1121/5 296/1133/5 293/1132/5
f 293/1132/5 296/1133/5 484/1134/5
f 292/1135/5 293/1132/5 484/1134/5
f 296/1133/5 295/1136/5 484/1134/5
f 484/1134/5 295/1136/5 483/1137/5
f 295/1136/5 454/1138/5 483/1137/5
f 295/1136/5 462/1139/5 454/1138/5
f 483/1137/5 454/1138/5 264/1126/5
f 454/1138/5 261/1127/5 264/1126/5
f 436/1114/64 488/1116/64 437/1066/64
f 371/1140/6 259/1141/6 476/1142/6
f 256/1143/6 476/1142/6 259/1141/6
f 311/1144/6 372/1140/6 310/1145/6
f 372/1140/6 386/1146/6 310/1145/6
f 372/1140/6 471/885/6 386/1146/6
f 477/1147/6 471/885/6 372/1140/6
f 230/873/6 257/1148/6 234/1149/6
f 234/1149/6 257/1148/6 260/1141/6
f 260/1141/6 374/1150/6 234/1149/6
f 370/898/6 374/1150/6 260/1141/6
f 470/883/6 466/863/6 387/1146/6
f 387/1146/6 466/863/6 423/1151/6
f 387/1146/6 423/1151/6 388/886/6
f 329/1152/6 494/1153/6 329/880/6
f 221/1154/6 220/858/6 233/1149/6
f 220/858/6 231/872/6 233/1149/6
f 233/1149/6 375/876/6 221/1154/6
f 486/1155/6 487/888/6 495/874/6
f 355/1156/72 283/1157/72 285/1158/72
f 355/1156/72 348/1159/72 283/1157/72
f 422/1151/6 338/1160/6 337/868/6
f 422/1151/6 428/1161/6 338/1160/6
f 422/1151/6 463/1162/6 428/1161/6
f 467/866/6 463/1162/6 422/1151/6
f 412/854/6 426/1163/6 222/1154/6
f 222/1154/6 426/1163/6 213/1164/6
f 218/861/6 222/1154/6 213/1164/6
f 215/1165/6 218/861/6 213/1164/6
f 289/1166/6 313/833/6 306/834/6
f 287/832/6 313/833/6 289/1166/6
f 401/829/6 397/827/6 393/828/6
f 393/828/6 399/1167/6 401/829/6
f 332/1168/6 334/1169/6 472/1170/6
f 248/1171/6 485/835/6 241/1172/6
f 265/1173/6 395/1174/6 266/1175/6
f 395/1174/6 365/1176/6 266/1175/6
f 270/1177/6 364/1178/6 359/1179/6
f 270/1177/6 359/1179/6 271/1180/6
f 351/1181/6 356/1182/6 279/1183/6
f 480/1184/6 356/1182/6 351/1181/6
f 279/1183/6 356/1182/6 276/1185/6
f 361/1186/6 356/1182/6 480/1184/6
f 276/1185/6 277/1187/6 279/1183/6
f 277/1187/6 361/1186/6 480/1184/6
f 275/1188/6 277/1187/6 276/1185/6
f 275/1188/6 361/1186/6 277/1187/6
f 350/1189/40 278/1190/40 480/1184/40
f 277/1187/40 480/1184/40 278/1190/40
f 410/1191/6 342/1192/6 339/823/6
f 316/1193/6 410/1191/6 339/823/6
f 317/1194/6 410/1191/6 316/1193/6
f 464/812/6 344/1195/6 325/839/6
f 325/839/6 344/1195/6 346/865/6
f 344/1195/6 464/812/6 465/866/6
f 325/839/6 323/1152/6 464/812/6
f 492/1196/6 224/821/6 223/799/6
f 223/799/6 489/1155/6 492/1196/6
f 489/1155/6 490/835/6 492/1196/6
f 492/1196/6 490/835/6 491/1197/6
f 424/1198/6 400/1199/6 416/819/6
f 405/1200/6 416/819/6 400/1199/6
f 416/819/6 405/1200/6 417/1201/6
f 303/834/6 315/1194/6 314/1193/6
f 303/834/6 314/1193/6 299/1202/6
f 299/1202/6 314/1193/6 385/810/6
f 468/794/6 469/811/6 493/808/6
f 324/880/6 327/1169/6 473/1203/6
f 473/1203/6 291/1204/6 324/880/6
f 291/1204/6 473/1203/6 479/1205/6
f 478/1206/6 479/1205/6 473/1203/6
f 291/1204/6 479/1205/6 293/1207/6
f 406/1200/6 407/829/6 418/1201/6
f 418/1201/6 407/829/6 379/1208/6
f 418/1201/6 379/1208/6 378/802/6
f 243/1209/6 244/1171/6 488/805/6
f 243/1209/6 488/805/6 264/1210/6
f 263/1211/6 243/1209/6 264/1210/6
f 481/1212/6 264/1210/6 488/805/6
f 481/1212/6 483/1213/6 264/1210/6
f 496/803/6 238/800/6 236/791/6
f 305/833/6 298/798/6 369/793/6
f 390/827/6 305/833/6 369/793/6
f 249/1214/6 482/1212/6 250/1215/6
f 249/1214/6 474/1216/6 482/1212/6
f 474/1216/6 290/1204/6 482/1212/6
f 474/1216/6 475/1217/6 290/1204/6
f 482/1212/6 290/1204/6 484/1213/6
f 290/1204/6 292/1207/6 484/1213/6
usemtl c_ff8c69
f 497/1218/1 498/1219/1 499/1220/1
f 499/1220/1 498/1219/1 500/1221/1
f 501/1222/2 498/1219/2 502/1223/2
f 502/1223/2 498/1219/2 497/1224/2
f 498/1222/3 501/1219/3 500/1225/3
f 500/1225/3 501/1219/3 503/1221/3
f 501/1218/4 502/1219/4 503/1220/4
f 503/1220/4 502/1219/4 504/1221/4
f 504/1222/5 499/1219/5 503/1223/5
f 503/1223/5 499/1219/5 500/1224/5
f 502/1222/6 497/1219/6 504/1225/6
f 504/1225/6 497/1219/6 499/1221/6
usemtl c_987a5b
f 505/1226/1 506/1227/1 507/1228/1
f 507/1228/1 506/1227/1 508/1229/1
f 509/1230/2 506/1227/2 510/1231/2
f 510/1231/2 506/1227/2 505/1232/2
f 506/1230/3 509/1227/3 508/1233/3
f 508/1233/3 509/1227/3 511/1229/3
f 509/1226/4 510/1227/4 511/1228/4
f 511/1228/4 510/1227/4 512/1229/4
f 512/1230/5 507/1227/5 511/1231/5
f 511/1231/5 507/1227/5 508/1232/5
f 510/1230/6 505/1227/6 512/1233/6
f 512/1233/6 505/1227/6 507/1229/6
usemtl c_111111
f 513/1234/1 514/1235/1 515/1236/1
f 515/1236/1 514/1235/1 516/1237/1
f 517/1238/35 514/1235/35 518/1239/35
f 518/1239/35 514/1235/35 513/1240/35
f 514/1238/44 517/1235/44 516/1241/44
f 516/1241/44 517/1235/44 519/1237/44
f 517/1234/4 518/1235/4 519/1236/4
f 519/1236/4 518/1235/4 520/1237/4
f 520/1238/42 515/1235/42 519/1239/42
f 519/1239/42 515/1235/42 516/1240/42
f 518/1238/40 513/1235/40 520/1241/40
f 520/1241/40 513/1235/40 515/1237/40
usemtl c_aa5500_neon
f 521/1242/4 522/1243/4 523/1244/4
f 522/1243/4 521/1242/4 524/1245/4
f 524/1246/2 525/1247/2 526/1248/2
f 524/1246/2 526/1248/2 522/1249/2
f 523/1242/6 526/1243/6 527/1244/6
f 526/1243/6 523/1242/6 522/1245/6
f 527/1242/1 525/1243/1 528/1244/1
f 525/1243/1 527/1242/1 526/1245/1
f 523/1248/5 527/1249/5 521/1247/5
f 527/1249/5 528/1246/5 521/1247/5
f 528/1242/3 524/1243/3 521/1244/3
f 524/1243/3 528/1242/3 525/1245/3
f 529/1250/4 530/1251/4 531/1252/4
f 530/1251/4 529/1250/4 532/1253/4
f 532/1254/2 533/1255/2 534/1256/2
f 532/1254/2 534/1256/2 530/1257/2
f 531/1250/6 534/1251/6 535/1252/6
f 534/1251/6 531/1250/6 530/1253/6
f 535/1250/1 533/1251/1 536/1252/1
f 533/1251/1 535/1250/1 534/1253/1
f 531/1256/5 535/1257/5 529/1255/5
f 535/1257/5 536/1254/5 529/1255/5
f 536/1250/3 532/1251/3 529/1252/3
f 532/1251/3 536/1250/3 533/1253/3
usemtl c_7d583d_neon
f 537/1258/4 538/1259/4 539/1260/4
f 538/1259/4 537/1258/4 540/1261/4
f 540/1262/2 541/1263/2 542/1264/2
f 540/1262/2 542/1264/2 538/1265/2
f 539/1266/6 542/1267/6 543/1268/6
f 542/1267/6 539/1266/6 538/1269/6
f 543/1258/1 541/1259/1 544/1260/1
f 541/1259/1 543/1258/1 542/1261/1
f 539/1264/5 543/1265/5 537/1263/5
f 543/1265/5 544/1262/5 537/1263/5
f 544/1266/3 540/1267/3 537/1268/3
f 540/1267/3 544/1266/3 541/1269/3
o E1U
usemtl c_552b07
f 545/1270/1 546/1271/1 547/1272/1
f 547/1272/1 546/1271/1 548/1273/1
f 549/1270/2 546/1271/2 550/1274/2
f 550/1274/2 546/1271/2 545/1275/2
f 546/1270/3 549/1271/3 548/1272/3
f 548/1272/3 549/1271/3 551/1273/3
f 549/1270/4 550/1271/4 551/1272/4
f 551/1272/4 550/1271/4 552/1273/4
f 552/1270/5 547/1271/5 551/1274/5
f 551/1274/5 547/1271/5 548/1275/5
f 550/1270/6 545/1271/6 552/1272/6
f 552/1272/6 545/1271/6 547/1273/6
o E2U
usemtl c_ffcc99
f 553/1276/1 554/1277/1 555/1278/1
f 555/1278/1 554/1277/1 556/1279/1
f 557/1276/2 554/1277/2 558/1280/2
f 558/1280/2 554/1277/2 553/1281/2
f 554/1276/3 557/1277/3 556/1278/3
f 556/1278/3 557/1277/3 559/1279/3
f 557/1276/4 558/1277/4 559/1278/4
f 559/1278/4 558/1277/4 560/1279/4
f 560/1276/5 555/1277/5 559/1280/5
f 559/1280/5 555/1277/5 556/1281/5
f 558/1276/6 553/1277/6 560/1278/6
f 560/1278/6 553/1277/6 555/1279/6
o E1D
usemtl c_552b07
f 561/1282/1 562/1283/1 563/1284/1
f 563/1284/1 562/1283/1 564/1285/1
f 565/1282/2 562/1283/2 566/1286/2
f 566/1286/2 562/1283/2 561/1287/2
f 562/1282/3 565/1283/3 564/1284/3
f 564/1284/3 565/1283/3 567/1285/3
f 565/1282/4 566/1283/4 567/1284/4
f 567/1284/4 566/1283/4 568/1285/4
f 568/1282/5 563/1283/5 567/1286/5
f 567/1286/5 563/1283/5 564/1287/5
f 566/1282/6 561/1283/6 568/1284/6
f 568/1284/6 561/1283/6 563/1285/6
o E2D
usemtl c_14594d
f 569/1288/1 570/1289/1 571/1290/1
f 571/1290/1 570/1289/1 572/1291/1
f 573/1292/2 570/1289/2 574/1293/2
f 574/1293/2 570/1289/2 569/1294/2
f 570/1292/3 573/1289/3 572/1295/3
f 572/1295/3 573/1289/3 575/1291/3
f 573/1288/4 574/1289/4 575/1290/4
f 575/1290/4 574/1289/4 576/1291/4
f 576/1292/5 571/1289/5 575/1293/5
f 575/1293/5 571/1289/5 572/1294/5
f 574/1292/6 569/1289/6 576/1295/6
f 576/1295/6 569/1289/6 571/1291/6
