# Roblox asset pack: t_rex (creatures), from the Studio model "T Rex". Exported with Export Selection, split by tools/build_creatures.py: one object per rigid body. Units: studs. +Y up, front faces -Z, pivot (bottom centre) at the origin.
mtllib t_rex.mtl

v -2.01380 10.77000 -12.50050
v -2.14910 10.77000 -12.54050
v -1.97950 9.96000 -12.58050
v -2.00280 9.93000 -12.59050
v 1.96930 9.96000 -12.58050
v 2.13880 10.77000 -12.54050
v 2.00360 10.77000 -12.49050
v 1.99250 9.93000 -12.58050
v -1.86490 10.77000 -12.95050
v -2.00020 10.77000 -12.99050
v -1.82480 10.12000 -13.05050
v -1.84810 10.09000 -13.06050
v 1.81450 10.12000 -13.05050
v 1.98990 10.77000 -12.98050
v 1.85470 10.77000 -12.94050
v 1.83780 10.09000 -13.05050
v 1.67580 10.26000 -13.51050
v 1.84250 10.77000 -13.43050
v 1.70200 10.77000 -13.41050
v 1.69970 10.24000 -13.52050
v -1.71230 10.77000 -13.42050
v -1.85270 10.77000 -13.44050
v -1.68610 10.27000 -13.52050
v -1.71000 10.24000 -13.52050
v 1.56540 10.12000 -14.01050
v 1.73890 10.77000 -13.93050
v 1.60040 10.77000 -13.89050
v 1.58910 10.09000 -14.02050
v -1.61060 10.77000 -13.90050
v -1.74920 10.77000 -13.93050
v -1.57560 10.12000 -14.02050
v -1.59930 10.09000 -14.02050
v 1.46520 10.24000 -14.51050
v 1.59400 10.77000 -14.45050
v 1.48820 10.77000 -14.42050
v 1.48320 10.22000 -14.51050
v -1.49850 10.77000 -14.43050
v -1.60430 10.77000 -14.45050
v -1.47540 10.24000 -14.52050
v -1.49340 10.22000 -14.52050
v 1.36970 10.11000 -14.97050
v 1.47690 10.77000 -14.92050
v 1.38650 10.77000 -14.90050
v 1.38080 10.09000 -14.97050
v -1.39670 10.77000 -14.91050
v -1.48710 10.77000 -14.93050
v -1.37990 10.11000 -14.98050
v -1.39100 10.10000 -14.98050
v 0.72080 10.23000 -15.57050
v 0.72070 10.20000 -15.59050
v 0.83820 10.25000 -15.59050
v 1.23470 10.10000 -15.50050
v 1.15860 10.08000 -15.53050
v 1.17340 10.05000 -15.55050
v 1.21990 10.13000 -15.48050
v -1.22530 10.10000 -15.50050
v -1.16400 10.05000 -15.55050
v -1.14920 10.08000 -15.53050
v -1.21050 10.13000 -15.48050
v 0.60290 10.28000 -15.57050
v 0.71850 10.77000 -15.59050
v 0.56090 10.77000 -15.59050
v 0.60280 10.25000 -15.59050
v 0.83830 10.28000 -15.57050
v 0.87620 10.77000 -15.60050
v -0.79270 10.28000 -15.57050
v -0.72460 10.77000 -15.59050
v -0.88220 10.77000 -15.59050
v -0.72240 10.23000 -15.57050
v -0.65140 10.28000 -15.57050
v -0.56690 10.77000 -15.60050
v 1.24560 10.78000 -15.47050
v 1.16350 10.78000 -15.53050
v 1.09730 10.13000 -15.57050
v 1.08140 10.78000 -15.60050
v -1.15410 10.78000 -15.53050
v -1.23620 10.78000 -15.47050
v -1.08800 10.13000 -15.57050
v -1.07200 10.78000 -15.60050
v -1.81820 10.77000 -13.63050
v -1.69380 10.19000 -13.61050
v -1.67770 10.24000 -13.70050
v -1.78380 10.77000 -13.83050
v -1.70220 10.77000 -14.12050
v -1.57950 10.04000 -14.09050
v -1.45710 10.77000 -15.08050
v -1.37700 10.04000 -15.06050
v -1.35870 10.10000 -15.14050
v -1.42710 10.77000 -15.22050
v -1.57230 10.77000 -14.61050
v -1.47850 10.16000 -14.59050
v -1.46370 10.21000 -14.66050
v -1.54030 10.77000 -14.76050
v -1.65520 10.77000 -14.32050
v -1.55960 10.10000 -14.16050
v -2.08620 10.77000 -12.73050
v -1.96650 9.88000 -12.69050
v -2.02330 10.77000 -12.92050
v -1.93000 9.94000 -12.79050
v -1.93730 10.77000 -13.18050
v -1.81780 10.04000 -13.14050
v -1.87440 10.77000 -13.37050
v -1.78700 10.10000 -13.22050
v -0.88340 10.77000 -15.70050
v -0.79320 10.25000 -15.59050
v -1.32290 10.78000 -15.58050
v 1.16810 10.78000 -15.71050
v 1.11210 10.10000 -15.59050
v 0.55970 10.77000 -15.70050
v 1.54560 10.07000 -14.08050
v 1.52560 10.12000 -14.15050
v 1.54930 10.10000 -14.16050
v 1.56930 10.04000 -14.09050
v 1.45030 10.19000 -14.58050
v 1.46830 10.16000 -14.58050
v 1.45350 10.21000 -14.65050
v 1.43550 10.24000 -14.65050
v 1.35350 10.08000 -15.05050
v 1.33740 10.11000 -15.13050
v 1.34850 10.09000 -15.13050
v 1.36680 10.04000 -15.05050
v 1.91980 9.94000 -12.78050
v 1.95630 9.88000 -12.68050
v 1.93310 9.91000 -12.68050
v 1.89660 9.96000 -12.78050
v 1.65960 10.21000 -13.60050
v 1.64350 10.26000 -13.69050
v 1.66740 10.24000 -13.69050
v 1.68350 10.19000 -13.61050
v 1.79180 10.77000 -13.13050
v 1.78420 10.07000 -13.12050
v 1.75340 10.12000 -13.20050
v 1.72890 10.77000 -13.31050
v 1.94070 10.77000 -12.68050
v 1.87780 10.77000 -12.87050
v 1.77670 10.10000 -13.21050
v 1.80750 10.04000 -13.13050
v 1.55340 10.77000 -14.08050
v 1.50640 10.77000 -14.28050
v 1.45620 10.77000 -14.58050
v 1.42420 10.77000 -14.73050
v 1.35640 10.77000 -15.05050
v 1.32640 10.77000 -15.19050
v 1.66750 10.77000 -13.60050
v 1.63300 10.77000 -13.80050
v -1.24080 10.78000 -15.65050
v -1.15870 10.78000 -15.71050
v -1.10270 10.10000 -15.59050
v 1.25020 10.78000 -15.65050
v 1.33230 10.78000 -15.58050
v -0.72580 10.77000 -15.70050
v -0.56810 10.77000 -15.70050
v -0.65190 10.25000 -15.59050
v -0.72290 10.20000 -15.59050
v 0.71730 10.77000 -15.70050
v 0.87500 10.77000 -15.70050
v -1.34770 10.11000 -15.13050
v -1.33670 10.77000 -15.20050
v 1.41680 10.77000 -15.21050
v -1.44570 10.24000 -14.65050
v -1.43450 10.77000 -14.74050
v 1.53000 10.77000 -14.76050
v -1.53590 10.12000 -14.16050
v -1.51660 10.77000 -14.28050
v 1.64490 10.77000 -14.31050
v -1.65380 10.26000 -13.70050
v -1.64330 10.77000 -13.80050
v 1.77350 10.77000 -13.82050
v 1.86420 10.77000 -13.36050
v -1.76360 10.12000 -13.21050
v -1.73920 10.77000 -13.32050
v 2.01310 10.77000 -12.91050
v -1.90680 9.96000 -12.78050
v -1.88810 10.77000 -12.87050
v -1.94330 9.91000 -12.68050
v -1.79440 10.07000 -13.13050
v -1.55580 10.07000 -14.09050
v -1.66990 10.21000 -13.61050
v 1.80800 10.77000 -13.63050
v 1.69190 10.77000 -14.12050
v 1.44680 10.77000 -15.07050
v 1.56200 10.77000 -14.60050
v 2.07590 10.77000 -12.73050
v 1.92700 10.77000 -13.17050
v -1.36380 10.08000 -15.06050
v -1.46050 10.19000 -14.58050
v -1.80210 10.77000 -13.13050
v -1.95090 10.77000 -12.69050
v -1.56360 10.77000 -14.09050
v -1.36670 10.77000 -15.06050
v -1.46650 10.77000 -14.59050
v -1.67780 10.77000 -13.61050
v 2.18440 10.74000 -8.52050
v -2.18440 10.74000 -8.52050
v -2.18440 9.65000 -9.09050
v 2.18440 9.65000 -9.09050
v 2.18440 13.27000 -8.65050
v -2.18440 11.98000 -8.65050
v 2.18440 11.98000 -8.65050
v -2.18440 13.27000 -8.65050
v 2.06750 13.52000 -10.50050
v 2.26960 13.15000 -10.56050
v 2.27000 13.52000 -10.50050
v 2.06710 13.15000 -10.56050
v -2.06750 13.52000 -10.50050
v -2.27000 13.52000 -10.50050
v -2.26960 13.15000 -10.56050
v -2.06710 13.15000 -10.56050
v -2.02200 10.77000 -12.32050
v 1.96290 9.49000 -12.32050
v 1.96290 10.77000 -12.32050
v -2.02200 9.49000 -12.32050
v -2.18440 13.55000 -11.01050
v 2.18440 13.55000 -11.01050
v 2.18440 13.41000 -11.83050
v -2.18440 13.41000 -11.83050
v 2.26310 13.60000 -11.15050
v 2.06070 13.60000 -11.14050
v 2.25650 13.50000 -11.79050
v 2.05400 13.50000 -11.78050
v -2.26320 13.60000 -11.15050
v -2.06070 13.60000 -11.14050
v -2.25650 13.50000 -11.79050
v -2.05400 13.50000 -11.78050
v 0.00000 12.50000 -12.55050
v 1.29920 12.17000 -15.69050
v -0.02960 12.17000 -15.69050
v 2.18440 12.50000 -12.55050
v -1.29920 12.17000 -15.69050
v 0.02960 12.17000 -15.69050
v -2.18440 12.50000 -12.55050
v 1.29120 11.80000 -15.69050
v 1.36650 11.80000 -15.41050
v 1.37960 11.80000 -15.42050
v -1.36650 11.80000 -15.41050
v -1.29120 11.80000 -15.69050
v -1.37960 11.80000 -15.42050
v -1.29920 11.80000 -15.70050
v 0.98910 11.80000 -15.70050
v 1.29920 11.80000 -15.70050
v 0.98910 11.80000 -15.68050
v -0.98910 11.80000 -15.70050
v -0.98910 11.80000 -15.68050
v 1.62360 10.77000 -13.27050
v -1.68270 10.77000 -13.27050
v 1.21690 10.77000 -15.50050
v -1.27600 10.77000 -15.50050
v -2.26350 13.17000 -11.14050
v -2.25750 13.13000 -11.71050
v -2.18440 11.57000 -11.11050
v -2.18440 9.34000 -10.78050
v -2.18440 11.57000 -11.23050
v -2.18440 11.68000 -12.55050
v -2.18440 9.36000 -12.36050
v -2.18440 9.27000 -12.27050
v -1.29920 11.47000 -15.71050
v -2.18440 10.77000 -12.47050
v -1.29920 10.77000 -15.72050
v -1.37080 12.08000 -15.42050
v -1.29920 12.08000 -15.69050
v -1.35770 12.08000 -15.41050
v -1.29110 12.08000 -15.68050
v -1.27600 9.72000 -15.50050
v -1.68270 9.56000 -13.27050
v -0.98910 12.08000 -15.69050
v -0.98910 12.08000 -15.68050
v 1.37080 12.08000 -15.42050
v 1.29920 12.08000 -15.69050
v 0.98910 12.08000 -15.69050
v 2.05500 13.13000 -11.71050
v 2.06100 13.17000 -11.13050
v -0.02960 11.47000 -15.71050
v 1.29920 11.47000 -15.71050
v -0.02960 10.77000 -15.72050
v 1.29920 10.77000 -15.72050
v 0.02960 11.47000 -15.71050
v 0.02960 10.77000 -15.72050
v 1.29110 12.08000 -15.68050
v 0.98910 12.08000 -15.68050
v 1.21690 9.72000 -15.50050
v 1.35770 12.08000 -15.41050
v 2.18440 11.68000 -12.55050
v 2.18440 9.36000 -12.36050
v -2.05500 13.13000 -11.71050
v 2.25750 13.13000 -11.71050
v 2.18440 9.34000 -10.78050
v 2.18440 9.27000 -12.27050
v 1.62360 9.56000 -13.27050
v 2.18440 10.77000 -12.47050
v 0.00000 10.77000 -12.47050
v 2.26350 13.17000 -11.14050
v -2.06100 13.17000 -11.13050
v 2.18440 11.57000 -11.11050
v 2.18440 11.57000 -11.23050
v -2.19650 12.62000 -11.08050
v -2.19650 13.12000 -11.08050
v -2.19650 12.62000 -11.20050
v -2.19650 13.12000 -11.20050
v -2.18930 12.60000 -11.49050
v -2.18930 13.20000 -11.49050
v -2.18930 12.60000 -11.62050
v -2.18930 13.20000 -11.62050
v -2.18930 12.60000 -10.65050
v -2.18930 13.20000 -10.65050
v -2.18930 12.60000 -10.78050
v -2.18930 13.20000 -10.78050
v 2.19110 12.62000 -11.20050
v 2.19110 13.12000 -11.20050
v 2.19110 13.12000 -11.08050
v 2.19110 12.62000 -11.08050
v 2.18940 12.60000 -11.62050
v 2.18940 13.20000 -11.62050
v 2.18940 13.20000 -11.49050
v 2.18940 12.60000 -11.49050
v 2.18940 12.60000 -10.78050
v 2.18940 13.20000 -10.78050
v 2.18940 13.20000 -10.65050
v 2.18940 12.60000 -10.65050
v -2.19450 12.62000 -11.20050
v -2.19450 13.12000 -11.20050
v -2.19450 13.12000 -11.08050
v -2.19450 12.62000 -11.08050
v 2.99660 0.58000 1.05950
v 2.99660 0.00000 1.05950
v 3.64720 0.58000 1.05950
v 3.64720 0.00000 1.05950
v 4.29790 0.58000 1.05950
v 4.29790 0.00000 1.05950
v 3.77170 0.58000 0.05950
v 4.29790 0.58000 -0.59050
v 3.73480 0.58000 -0.59050
v 4.29790 0.58000 0.05950
v 2.99660 0.58000 -0.59050
v 2.99660 0.58000 0.05950
v 3.52270 0.58000 0.05950
v 3.55960 0.58000 -0.59050
v 3.84120 0.50000 -0.59050
v 4.18090 0.50000 -0.90050
v 3.84120 0.50000 -0.90050
v 4.18090 0.50000 -0.59050
v 3.09950 0.50000 -0.59050
v 3.43930 0.50000 -0.59050
v 3.09950 0.50000 -0.90050
v 3.43930 0.50000 -0.90050
v 2.99660 0.00000 -0.59050
v 2.99660 0.00000 0.05950
v 3.09950 0.00000 -0.59050
v 3.09950 0.00000 -1.15050
v 3.77170 0.00000 0.05950
v 3.73480 0.00000 -0.59050
v 3.84120 0.00000 -0.59050
v 3.84120 0.00000 -1.15050
v 4.18090 0.00000 -1.15050
v 3.43930 0.00000 -1.15050
v 3.55960 0.00000 -0.59050
v 4.29790 0.00000 -0.59050
v 3.52270 0.00000 0.05950
v 4.18090 0.00000 -0.59050
v 3.43930 0.00000 -0.59050
v 4.29790 0.00000 0.05950
v 2.87190 6.88000 -3.57050
v 2.30100 6.88000 -3.57050
v 2.30100 6.05000 -3.87050
v 2.87190 6.05000 -3.87050
v 2.30100 5.46000 -4.23050
v 2.87190 5.46000 -4.23050
v 2.87190 5.46000 -5.59050
v 2.30100 5.46000 -5.59050
v 2.87190 4.95000 -5.81050
v 2.30100 4.95000 -5.81050
v 2.87190 7.20000 -4.06050
v 2.30100 7.20000 -4.06050
v 2.87190 7.07000 -4.70050
v 2.30100 7.07000 -4.70050
v 2.30100 6.24000 -6.12050
v 2.30100 6.24000 -5.48050
v 2.87190 6.24000 -5.48050
v 2.87190 6.25000 -4.88050
v 2.87190 6.24000 -6.12050
v 2.30100 6.25000 -4.88050
v 2.30100 6.34000 -4.38050
v 2.30100 5.46000 -4.71050
v 2.30100 5.46000 -4.89050
v 2.30100 5.47000 -6.32050
v 2.30100 4.97000 -6.12050
v 2.87190 5.47000 -6.32050
v 2.87190 4.97000 -6.12050
v 2.87190 5.46000 -4.89050
v 2.87190 5.46000 -4.71050
v 2.87190 6.34000 -4.38050
v -0.45490 12.10000 15.39950
v -0.45490 11.69000 15.72950
v 0.00000 12.10000 15.39950
v 0.00000 11.69000 15.72950
v 0.45490 11.69000 15.72950
v 0.45490 12.10000 15.39950
v -0.45500 12.10000 15.39950
v 0.00000 12.32000 14.84950
v -0.45500 12.32000 14.84950
v 0.45490 12.32000 14.84950
v -1.45470 10.32000 10.10950
v 0.00000 10.51000 6.11950
v -1.45470 10.51000 6.11950
v 0.00000 10.32000 10.10950
v 1.45470 10.32000 10.10950
v 1.45470 10.51000 6.11950
v -1.43430 9.60000 11.73950
v -1.45470 7.77000 9.41950
v -1.45470 9.40000 11.95950
v -1.45470 7.58000 6.01950
v -1.45470 7.06000 6.04950
v -1.45470 7.28000 9.57950
v -1.45470 8.97000 12.26950
v 0.00000 7.58000 6.01950
v 0.00000 7.06000 6.04950
v 1.45470 7.58000 6.01950
v 1.45470 7.06000 6.04950
v 0.00000 7.28000 9.57950
v 1.45470 7.28000 9.57950
v 0.00000 8.97000 12.26950
v 1.45470 8.97000 12.26950
v 1.45470 7.77000 9.41950
v 1.43430 9.60000 11.73950
v 1.45470 9.40000 11.95950
v -4.23260 9.41000 3.86950
v -4.23260 5.63000 3.19950
v -3.07200 9.41000 3.89950
v -3.07200 5.63000 3.22950
v -4.15490 6.94000 2.64950
v -3.13960 4.75000 2.63950
v -3.13960 6.94000 2.64950
v -4.15490 4.75000 2.63950
v -4.15490 3.41000 1.85950
v -3.13960 3.41000 1.85950
v -4.15490 2.85000 2.28950
v -3.13960 0.00000 2.28950
v -3.13960 2.85000 2.28950
v -4.15490 0.00000 2.28950
v -3.07200 10.06000 0.22950
v -4.23260 10.06000 0.19950
v -4.15490 6.66000 0.10950
v -3.13960 6.66000 0.10950
v -4.23260 6.28000 -0.47050
v -4.15490 3.84000 -0.69050
v -4.15490 2.10000 0.71950
v -4.15490 0.00000 0.71950
v -3.07200 6.28000 -0.44050
v -3.13960 2.10000 0.71950
v -3.13960 3.84000 -0.69050
v -3.13960 0.00000 0.71950
v 3.07200 9.41000 3.89950
v 4.23260 5.63000 3.19950
v 4.23260 9.41000 3.86950
v 3.07210 5.63000 3.22950
v 4.15490 6.94000 2.64950
v 3.13960 4.75000 2.63950
v 4.15490 4.75000 2.63950
v 3.13960 6.94000 2.64950
v 4.15490 3.41000 1.85950
v 3.13960 3.41000 1.85950
v 4.15490 2.85000 2.28950
v 3.13960 0.00000 2.28950
v 4.15490 0.00000 2.28950
v 3.13960 2.85000 2.28950
v 3.07200 10.06000 0.22950
v 4.23260 10.06000 0.19950
v 4.15490 6.66000 0.10950
v 3.13960 6.66000 0.10950
v 3.07200 6.28000 -0.44050
v 3.13960 3.84000 -0.69050
v 3.13960 2.10000 0.71950
v 3.13960 0.00000 0.71950
v 4.23260 6.28000 -0.47050
v 4.15490 3.84000 -0.69050
v 4.15490 2.10000 0.71950
v 4.15490 0.00000 0.71950
v -2.30100 6.23000 -2.52050
v 2.30100 5.41000 -2.84050
v 2.30100 6.23000 -2.52050
v -2.30100 5.41000 -2.84050
v -2.30100 9.92000 -1.14050
v 2.30100 9.92000 -1.14050
v 2.30100 11.84000 -6.34050
v -2.30100 11.84000 -6.34050
v -2.30100 8.16000 -7.72050
v -2.30100 7.33000 -8.04050
v 2.30100 8.16000 -7.72050
v 2.30100 7.33000 -8.04050
v -1.80860 8.74000 -6.46050
v 1.80860 8.18000 -6.77050
v 1.80850 8.74000 -6.46050
v -1.80860 8.18000 -6.77050
v -1.80860 11.08000 -5.21050
v 1.80850 11.08000 -5.21050
v 1.80850 11.47000 -5.92050
v -1.80860 11.47000 -5.92050
v -1.80860 13.26000 -9.29050
v 1.80860 13.26000 -9.29050
v -1.80860 9.13000 -7.18050
v -1.80860 10.92000 -10.54050
v -1.80860 8.57000 -7.49050
v -1.80860 10.36000 -10.85050
v 1.80860 10.92000 -10.54050
v 1.80860 10.36000 -10.85050
v 1.80860 8.57000 -7.49050
v 1.80860 9.13000 -7.18050
v -3.13790 10.51000 4.50950
v 3.13790 6.45000 4.50950
v 3.13790 10.51000 4.50950
v -3.13790 6.45000 4.50950
v 3.13790 5.13000 4.50950
v -3.13790 5.13000 4.50950
v -3.06190 5.13000 4.41950
v 3.06190 4.59000 4.41950
v 3.06190 5.13000 4.41950
v -3.06190 4.59000 4.41950
v -3.13790 10.51000 -3.10050
v 3.13790 10.51000 -3.10050
v -3.06190 5.13000 -3.01050
v 3.06190 5.13000 -3.01050
v -3.13790 6.45000 -3.10050
v -3.13790 5.13000 -3.10050
v -3.06190 4.59000 -3.01050
v 3.13790 6.45000 -3.10050
v 3.13790 5.13000 -3.10050
v 3.06190 4.59000 -3.01050
v -2.99660 0.58000 1.05950
v -3.64720 0.58000 1.05950
v -2.99660 0.00000 1.05950
v -3.64720 0.00000 1.05950
v -4.29790 0.58000 1.05950
v -4.29790 0.00000 1.05950
v -4.29790 0.58000 0.05950
v -3.77170 0.58000 0.05950
v -4.29790 0.58000 -0.59050
v -3.73480 0.58000 -0.59050
v -3.55960 0.58000 -0.59050
v -3.52270 0.58000 0.05950
v -2.99660 0.58000 -0.59050
v -2.99660 0.58000 0.05950
v -4.18090 0.50000 -0.90050
v -3.84120 0.50000 -0.59050
v -3.84120 0.50000 -0.90050
v -4.18090 0.50000 -0.59050
v -3.43930 0.50000 -0.59050
v -3.09950 0.50000 -0.90050
v -3.43930 0.50000 -0.90050
v -3.09950 0.50000 -0.59050
v -4.29790 0.00000 0.05950
v -4.29790 0.00000 -0.59050
v -4.18090 0.00000 -0.59050
v -4.18090 0.00000 -1.15050
v -3.55960 0.00000 -0.59050
v -3.52270 0.00000 0.05950
v -3.43930 0.00000 -0.59050
v -3.43930 0.00000 -1.15050
v -3.84120 0.00000 -1.15050
v -3.09950 0.00000 -1.15050
v -2.99660 0.00000 -0.59050
v -3.73480 0.00000 -0.59050
v -3.77170 0.00000 0.05950
v -2.99660 0.00000 0.05950
v -3.84120 0.00000 -0.59050
v -3.09950 0.00000 -0.59050
v -2.87190 6.88000 -3.57050
v -2.30100 6.05000 -3.87050
v -2.30100 6.88000 -3.57050
v -2.87190 6.05000 -3.87050
v -2.30100 5.46000 -4.23050
v -2.87190 5.46000 -4.23050
v -2.87190 5.46000 -5.59050
v -2.87190 4.95000 -5.81050
v -2.30100 5.46000 -5.59050
v -2.30100 4.95000 -5.81050
v -2.87190 7.20000 -4.06050
v -2.30100 7.20000 -4.06050
v -2.87190 7.07000 -4.70050
v -2.30100 7.07000 -4.70050
v -2.87190 6.24000 -6.12050
v -2.87190 6.24000 -5.48050
v -2.30100 6.24000 -6.12050
v -2.87190 6.25000 -4.88050
v -2.30100 6.24000 -5.48050
v -2.30100 6.25000 -4.88050
v -2.87190 6.34000 -4.38050
v -2.87190 5.46000 -4.71050
v -2.87190 5.46000 -4.89050
v -2.87190 5.47000 -6.32050
v -2.87190 4.97000 -6.12050
v -2.30100 5.47000 -6.32050
v -2.30100 4.97000 -6.12050
v -2.30100 5.46000 -4.71050
v -2.30100 5.46000 -4.89050
v -2.30100 6.34000 -4.38050
v -2.43870 10.51000 6.11950
v 2.43870 6.45000 6.11950
v 2.43870 10.51000 6.11950
v -2.43870 6.45000 6.11950
v 2.43870 6.17000 6.11950
v -2.43870 6.17000 6.11950
v -2.43870 10.51000 4.50950
v 2.43870 10.51000 4.50950
v -2.43870 6.45000 4.50950
v -2.43870 6.17000 4.50950
v 2.43870 6.45000 4.50950
v 2.43870 6.17000 4.50950
vt 49.74890 -30.94510
vt 49.73200 -30.94510
vt 49.75320 -31.04650
vt 49.75030 -31.04980
vt 50.24680 -31.04660
vt 50.26800 -30.94510
vt 50.25110 -30.94510
vt 50.24970 -31.04980
vt 49.76750 -30.94510
vt 49.75060 -30.94510
vt 49.77250 -31.02660
vt 49.76960 -31.02990
vt 50.22750 -31.02660
vt 50.24940 -30.94510
vt 50.23250 -30.94510
vt 50.23040 -31.02990
vt 50.21010 -31.00830
vt 50.23090 -30.94510
vt 50.21340 -30.94510
vt 50.21310 -31.01160
vt 49.78660 -30.94510
vt 49.76910 -30.94510
vt 49.78990 -31.00830
vt 49.78690 -31.01160
vt 50.19630 -31.02640
vt 50.21800 -30.94510
vt 50.20070 -30.94510
vt 50.19930 -31.02970
vt 49.79930 -30.94510
vt 49.78200 -30.94510
vt 49.80370 -31.02640
vt 49.80070 -31.02970
vt 50.18380 -31.01110
vt 50.19990 -30.94510
vt 50.18670 -30.94510
vt 50.18600 -31.01440
vt 49.81330 -30.94510
vt 49.80010 -30.94510
vt 49.81620 -31.01110
vt 49.81400 -31.01440
vt 50.17180 -31.02720
vt 50.18520 -30.94510
vt 50.17400 -30.94510
vt 50.17320 -31.02960
vt 49.82600 -30.94510
vt 49.81480 -30.94510
vt 49.82820 -31.02720
vt 49.82680 -31.02950
vt 50.09070 -31.01300
vt 50.09070 -31.01640
vt 50.10540 -31.00980
vt 50.15500 -31.02830
vt 50.14550 -31.03160
vt 50.14730 -31.03490
vt 50.15310 -31.02500
vt 49.84750 -31.02830
vt 49.85510 -31.03490
vt 49.85700 -31.03160
vt 49.84930 -31.02500
vt 50.07600 -31.00650
vt 50.09050 -30.94480
vt 50.07080 -30.94490
vt 50.07600 -31.00990
vt 50.10540 -31.00640
vt 50.11020 -30.94480
vt 49.90160 -31.00660
vt 49.91010 -30.94480
vt 49.89040 -30.94490
vt 49.91030 -31.01300
vt 49.91920 -31.00630
vt 49.92980 -30.94480
vt 50.15630 -30.94380
vt 50.14610 -30.94380
vt 50.13780 -31.02500
vt 50.13580 -30.94380
vt 49.85640 -30.94380
vt 49.84610 -30.94380
vt 49.86460 -31.02500
vt 49.86660 -30.94380
vt 50.05830 -30.94510
vt 50.06100 -31.01820
vt 50.07200 -31.01160
vt 50.05010 -31.01170
vt 50.08260 -30.94510
vt 50.03390 -30.94510
vt 49.99700 -30.94510
vt 50.00080 -31.03610
vt 50.00960 -31.02970
vt 50.02110 -30.94510
vt 49.87820 -30.94510
vt 49.88030 -31.03610
vt 49.89010 -31.02950
vt 49.87060 -31.02950
vt 49.86010 -30.94510
vt 49.89630 -30.94510
vt 49.93660 -30.94510
vt 49.93900 -31.02100
vt 49.94760 -31.01440
vt 49.95590 -30.94510
vt 49.93050 -31.01450
vt 49.91730 -30.94510
vt 49.97300 -30.94510
vt 49.99200 -31.02940
vt 50.17110 -30.94510
vt 50.17620 -31.05610
vt 50.18860 -31.04980
vt 50.19460 -30.94510
vt 50.14770 -30.94510
vt 50.16370 -31.04940
vt 50.11530 -30.94510
vt 50.12040 -31.03610
vt 50.13010 -31.02990
vt 50.09180 -30.94510
vt 50.11060 -31.02920
vt 50.13880 -30.94510
vt 49.81350 -30.94490
vt 49.80000 -30.94540
vt 49.81640 -31.00660
vt 49.81420 -31.01000
vt 49.82880 -30.94380
vt 49.81460 -30.94380
vt 49.82760 -31.02500
vt 49.82520 -31.02830
vt 49.81300 -30.94380
vt 49.79890 -30.94380
vt 49.81580 -31.02500
vt 49.81340 -31.02830
vt 49.81660 -31.00650
vt 49.81440 -31.00990
vt 50.00240 -31.03280
vt 49.99350 -31.02620
vt 49.99290 -31.02950
vt 50.00170 -31.03610
vt 49.94850 -31.01440
vt 49.94040 -31.01770
vt 49.93990 -31.02100
vt 49.94900 -31.01110
vt 49.82170 -31.03160
vt 49.81930 -31.03490
vt 49.93140 -31.01460
vt 49.93180 -31.01130
vt 49.88150 -31.03190
vt 49.87180 -31.02720
vt 49.87150 -31.02960
vt 49.88120 -31.03610
vt 49.89100 -31.02960
vt 49.89120 -31.02720
vt 50.16450 -31.04940
vt 50.17710 -31.05610
vt 50.17800 -31.05290
vt 50.16540 -31.04610
vt 50.06240 -31.01490
vt 50.05150 -31.00850
vt 50.05090 -31.01180
vt 50.06190 -31.01820
vt 50.14530 -30.94510
vt 50.12180 -30.94510
vt 50.13170 -31.02660
vt 50.12210 -31.03280
vt 50.11230 -31.02600
vt 50.09840 -30.94510
vt 50.20110 -30.94510
vt 50.17770 -30.94510
vt 50.19040 -31.04660
vt 50.15420 -30.94510
vt 50.11150 -31.02930
vt 50.12130 -31.03610
vt 50.02620 -30.94510
vt 50.00210 -30.94510
vt 50.01110 -31.02640
vt 49.97810 -30.94510
vt 49.95950 -30.94510
vt 49.94020 -30.94510
vt 49.92090 -30.94510
vt 49.89950 -30.94510
vt 49.88140 -30.94510
vt 49.86330 -30.94510
vt 50.08660 -30.94510
vt 50.06230 -30.94510
vt 50.07340 -31.00830
vt 50.03790 -30.94510
vt 50.15450 -30.94380
vt 50.14490 -31.03490
vt 50.15250 -31.02830
vt 50.14420 -30.94380
vt 50.13720 -31.02830
vt 49.84500 -31.02830
vt 49.85270 -31.03490
vt 49.84310 -30.94380
vt 49.86030 -31.02830
vt 49.83280 -30.94380
vt 49.85330 -30.94380
vt 50.16470 -30.94380
vt 50.09850 -31.01000
vt 50.10980 -30.94540
vt 50.09010 -30.94530
vt 50.07040 -30.94530
vt 50.08080 -31.00970
vt 50.08970 -31.01640
vt 49.90970 -30.94530
vt 49.90930 -31.01640
vt 49.92400 -31.00990
vt 49.89460 -31.00980
vt 49.92940 -30.94540
vt 49.89000 -30.94530
vt 50.16780 -31.02720
vt 50.16640 -30.94510
vt 50.16920 -31.02950
vt 49.83360 -30.94510
vt 49.82230 -30.94510
vt 49.83220 -31.02720
vt 49.83080 -31.02960
vt 50.18010 -31.01130
vt 50.19190 -30.94510
vt 50.17870 -30.94510
vt 50.18230 -31.01450
vt 49.82130 -30.94510
vt 49.80810 -30.94510
vt 49.81990 -31.01130
vt 49.81770 -31.01460
vt 50.19130 -31.02610
vt 50.20630 -30.94510
vt 50.18890 -30.94510
vt 50.19430 -31.02940
vt 49.81110 -30.94510
vt 49.79370 -30.94510
vt 49.80870 -31.02620
vt 49.80570 -31.02950
vt 50.20610 -31.00840
vt 50.22230 -30.94510
vt 50.20480 -30.94510
vt 50.20910 -31.01170
vt 49.79520 -30.94510
vt 49.77770 -30.94510
vt 49.79390 -31.00850
vt 49.79090 -31.01180
vt 49.78320 -30.94510
vt 49.76630 -30.94510
vt 49.78020 -31.02600
vt 49.77730 -31.02930
vt 50.21980 -31.02590
vt 50.23370 -30.94510
vt 50.21680 -30.94510
vt 50.22270 -31.02920
vt 49.76460 -30.94510
vt 49.74770 -30.94510
vt 49.76230 -31.04610
vt 49.75940 -31.04940
vt 50.23770 -31.04610
vt 50.25230 -30.94510
vt 50.23540 -30.94510
vt 50.24060 -31.04940
vt 50.18950 -31.24970
vt 50.17800 -31.24230
vt 50.17710 -31.24520
vt 50.19040 -31.24680
vt 50.18860 -30.75030
vt 50.17620 -30.75480
vt 50.17710 -30.75770
vt 50.18950 -30.75320
vt 50.13090 -31.23040
vt 50.12210 -31.22370
vt 50.12130 -31.22660
vt 50.13170 -31.22750
vt 50.13010 -30.76960
vt 50.12040 -30.77340
vt 50.12130 -30.77630
vt 50.13090 -30.77250
vt 50.01040 -31.19930
vt 50.00240 -31.19380
vt 50.00170 -31.19680
vt 50.01110 -31.19630
vt 50.00960 -30.80070
vt 50.00080 -30.80320
vt 50.00150 -30.80620
vt 50.01020 -30.80370
vt 50.07290 -31.21310
vt 50.06240 -31.20810
vt 50.06190 -31.21110
vt 50.07340 -31.21010
vt 50.07200 -30.78690
vt 50.06100 -30.78890
vt 50.06150 -30.79190
vt 50.07250 -30.78990
vt 49.94090 -30.94510
vt 49.91650 -30.94510
vt 49.92710 -31.01160
vt 49.93810 -31.01820
vt 49.98960 -31.02970
vt 49.99830 -31.03610
vt 50.10900 -31.02960
vt 50.11880 -31.03610
vt 50.12090 -30.94510
vt 50.10280 -30.94510
vt 50.12850 -31.02960
vt 50.13900 -30.94510
vt 50.05150 -31.01440
vt 50.06010 -31.02100
vt 50.06250 -30.94510
vt 50.06860 -31.01460
vt 50.04320 -30.94510
vt 50.08180 -30.94510
vt 49.94910 -31.01180
vt 49.96520 -30.94510
vt 49.81050 -31.04980
vt 49.82290 -31.05610
vt 49.82800 -30.94510
vt 50.00710 -31.02950
vt 50.02610 -30.94510
vt 49.86910 -31.02990
vt 49.87870 -31.03610
vt 49.88380 -30.94510
vt 49.90730 -30.94510
vt 49.88850 -31.02930
vt 49.80460 -30.94510
vt 49.85150 -30.94510
vt 49.83550 -31.04940
vt 49.86040 -30.94510
vt 50.18380 -31.00640
vt 50.20040 -30.94530
vt 50.18690 -30.94480
vt 50.18600 -31.00980
vt 50.17240 -31.02500
vt 50.18540 -30.94380
vt 50.17120 -30.94380
vt 50.17480 -31.02830
vt 50.18420 -31.02500
vt 50.20110 -30.94380
vt 50.18700 -30.94380
vt 50.18660 -31.02830
vt 50.18360 -31.00630
vt 50.18580 -31.00970
vt 50.12940 -31.02950
vt 50.12910 -31.02720
vt 50.11940 -31.03190
vt 50.17830 -31.03160
vt 50.18070 -31.03490
vt 50.00800 -31.02940
vt 50.00730 -31.02610
vt 49.99850 -31.03280
vt 49.99920 -31.03610
vt 50.05240 -31.01440
vt 50.06100 -31.02100
vt 50.06050 -31.01770
vt 50.05190 -31.01110
vt 50.06950 -31.01450
vt 50.06900 -31.01130
vt 50.11970 -31.03610
vt 49.83630 -31.04940
vt 49.83550 -31.04610
vt 49.82290 -31.05280
vt 49.82380 -31.05610
vt 49.94990 -31.01170
vt 49.94940 -31.00840
vt 49.93850 -31.01490
vt 49.93900 -31.01820
vt 50.10990 -31.02950
vt 50.10960 -31.02720
vt 49.86910 -31.02660
vt 49.87900 -30.94510
vt 49.85560 -30.94510
vt 49.87870 -31.03280
vt 49.88860 -31.02590
vt 49.90250 -30.94510
vt 49.81050 -31.04650
vt 49.82320 -30.94510
vt 49.79980 -30.94510
vt 49.84670 -30.94510
vt 49.88940 -31.02920
vt 49.87960 -31.03610
vt 49.98980 -31.02640
vt 49.99870 -30.94510
vt 49.97470 -30.94510
vt 50.02280 -30.94510
vt 50.11940 -30.94510
vt 50.10130 -30.94510
vt 50.13750 -30.94510
vt 50.06060 -30.94510
vt 50.04130 -30.94510
vt 50.07990 -30.94510
vt 49.92750 -31.00830
vt 49.93860 -30.94510
vt 49.91430 -30.94510
vt 49.96300 -30.94510
vt 6.27305 -25.08690
vt 5.72695 -25.08690
vt 5.72695 -25.22390
vt 6.27305 -25.22390
vt 6.27305 -24.77130
vt 5.72695 -24.93240
vt 6.27305 -24.93240
vt 5.72695 -24.77130
vt 6.25844 -24.74000
vt 6.28370 -24.78640
vt 6.28375 -24.74000
vt 6.25839 -24.78640
vt 5.74156 -24.74000
vt 5.71625 -24.74000
vt 5.71630 -24.78640
vt 5.74161 -24.78640
vt 5.74725 -25.08360
vt 6.24537 -25.24350
vt 6.24537 -25.08360
vt 5.74725 -25.24350
vt 5.86162 -24.72700
vt 5.56625 -25.27300
vt 5.86162 -25.27300
vt 5.56625 -24.72700
vt 5.96345 -25.27300
vt 5.96345 -24.72700
vt 5.79743 -25.25840
vt 5.87820 -25.28290
vt 5.87780 -25.25760
vt 5.79783 -25.28370
vt 5.95809 -25.28210
vt 5.95769 -25.25670
vt 5.87820 -24.71710
vt 5.79743 -24.74160
vt 5.87780 -24.74240
vt 5.79783 -24.71620
vt 5.95809 -24.71790
vt 5.95769 -24.74330
vt 6.05341 -25.00000
vt 6.44629 -25.16240
vt 6.44629 -24.99630
vt 6.05341 -25.27300
vt 6.44629 -24.83760
vt 6.44629 -25.00370
vt 6.05341 -24.72700
vt 6.44556 -25.16140
vt 6.41151 -25.17080
vt 6.41222 -25.17250
vt 6.41151 -24.82920
vt 6.44556 -24.83860
vt 6.41222 -24.82750
vt 6.44733 -24.83760
vt 6.44743 -25.12360
vt 6.44733 -25.16240
vt 6.44526 -25.12360
vt 6.44743 -24.87640
vt 6.44526 -24.87640
vt 6.02530 -24.74720
vt 6.14349 -25.20290
vt 6.14349 -24.78970
vt 6.02530 -25.24540
vt 6.42219 -25.15210
vt 6.42219 -24.84050
vt 6.20217 -24.74000
vt 6.12180 -24.72930
vt 6.12292 -24.78320
vt 6.19457 -24.78640
vt 6.05143 -24.78800
vt 6.04191 -24.74180
vt 6.13838 -24.73580
vt 6.43376 -24.93240
vt 6.43375 -24.77130
vt 6.12573 -24.98300
vt 6.45046 -25.08690
vt 6.37861 -25.22390
vt 6.16761 -25.26250
vt 6.11124 -24.98390
vt 6.03655 -24.75280
vt 5.94659 -24.86750
vt 5.94659 -24.96940
vt 5.96992 -25.25990
vt 5.98195 -25.27070
vt 5.55163 -24.99580
vt 5.58778 -24.95500
vt 5.55267 -24.95500
vt 5.95577 -25.08360
vt 5.54954 -25.08360
vt 5.58778 -24.92000
vt 5.55371 -24.90780
vt 5.55344 -24.92000
vt 5.58849 -24.92010
vt 5.55520 -24.92010
vt 5.58849 -24.95500
vt 5.55444 -24.95510
vt 5.85651 -25.08360
vt 5.57781 -25.21440
vt 5.85651 -25.23420
vt 5.57781 -25.08360
vt 5.97470 -25.08360
vt 5.97470 -25.24350
vt 5.55341 -24.92000
vt 5.55474 -24.95500
vt 5.55558 -24.92010
vt 5.55257 -24.95500
vt 6.12220 -24.72930
vt 6.05183 -24.78800
vt 6.12332 -24.78330
vt 6.04231 -24.74180
vt 6.20257 -24.74000
vt 6.19497 -24.78640
vt 6.00369 -24.90780
vt 5.87636 -24.95500
vt 6.00369 -24.99580
vt 5.87636 -24.92000
vt 5.83760 -24.90780
vt 5.83760 -24.92000
vt 5.83760 -24.99580
vt 5.83760 -24.95500
vt 6.00369 -25.08360
vt 5.83760 -25.08360
vt 6.12364 -24.95500
vt 5.99631 -24.90780
vt 5.99631 -24.99580
vt 6.12364 -24.92000
vt 6.16240 -24.90780
vt 6.16240 -24.92000
vt 6.16240 -24.99580
vt 6.16240 -24.95500
vt 5.99631 -25.08360
vt 6.16240 -25.08360
vt 5.83862 -24.92010
vt 5.87636 -24.92010
vt 5.83860 -24.95510
vt 6.16138 -24.92010
vt 6.16140 -24.95510
vt 6.12364 -24.92010
vt 5.84789 -25.08360
vt 6.15950 -25.21440
vt 6.15950 -25.08360
vt 5.84789 -25.21440
vt 6.17081 -24.95500
vt 6.17135 -24.92000
vt 6.16971 -24.92010
vt 6.17245 -24.95500
vt 5.82919 -24.95500
vt 5.83029 -24.92010
vt 5.82865 -24.92000
vt 5.82755 -24.95500
vt 6.27305 -24.75280
vt 5.72695 -24.75280
vt 5.72695 -24.86750
vt 6.27305 -24.86750
vt 5.72695 -24.96940
vt 6.27305 -25.25990
vt 6.27305 -24.96940
vt 5.72695 -25.25990
vt 6.28206 -24.74180
vt 6.25675 -24.74180
vt 6.25688 -24.78800
vt 6.28219 -24.78800
vt 5.71794 -24.74180
vt 5.74312 -24.78800
vt 5.74325 -24.74180
vt 5.71781 -24.78800
vt 6.37861 -25.27300
vt 6.16761 -24.72700
vt 6.16761 -25.27300
vt 6.37861 -24.72700
vt 5.98195 -24.72700
vt 5.98195 -25.27300
vt 5.57781 -25.15210
vt 5.85651 -25.20290
vt 5.85651 -24.78970
vt 5.57781 -24.84050
vt 5.97470 -24.74720
vt 5.97470 -25.24540
vt 5.96992 -24.72700
vt 5.96992 -25.27300
vt 5.54954 -25.16240
vt 5.95577 -25.27300
vt 5.95577 -25.00000
vt 5.54954 -24.99630
vt 5.95577 -24.72700
vt 5.54954 -24.83760
vt 5.54954 -25.00370
vt 5.55344 -24.83760
vt 5.55341 -24.87640
vt 5.55520 -24.83860
vt 5.58778 -24.82860
vt 5.55520 -25.16140
vt 5.55341 -25.12360
vt 5.55344 -25.16240
vt 5.58778 -25.17140
vt 5.58849 -25.16970
vt 5.55558 -25.12360
vt 5.55558 -24.87640
vt 5.58849 -24.83030
vt 6.05143 -25.28220
vt 6.12292 -25.28290
vt 6.12332 -25.25760
vt 6.05183 -25.25690
vt 6.19497 -25.25840
vt 6.19457 -25.28370
vt 6.12292 -24.71710
vt 6.05143 -24.71780
vt 6.12332 -24.74240
vt 6.05183 -24.74310
vt 6.19497 -24.74160
vt 6.19457 -24.71630
vt 5.79783 -24.74000
vt 5.87708 -24.78320
vt 5.87820 -24.72930
vt 5.80543 -24.78640
vt 5.94857 -24.78800
vt 5.95809 -24.74180
vt 5.86162 -24.73580
vt 5.56624 -24.93240
vt 5.87427 -24.98300
vt 5.56625 -24.77130
vt 5.54954 -25.08690
vt 5.62139 -25.22390
vt 5.83239 -25.26250
vt 5.88876 -24.98390
vt 5.96345 -24.75280
vt 6.05341 -24.86750
vt 6.05341 -24.96940
vt 6.03008 -25.25990
vt 6.01805 -25.27070
vt 6.41222 -24.95500
vt 6.44837 -24.99580
vt 6.44733 -24.95500
vt 6.04423 -25.08360
vt 6.45046 -25.08360
vt 6.41222 -24.92000
vt 6.44629 -24.90780
vt 6.44656 -24.92000
vt 6.41151 -24.92010
vt 6.41151 -24.95500
vt 6.44480 -24.92010
vt 6.44556 -24.95510
vt 6.02530 -25.08360
vt 6.14349 -25.23420
vt 6.14349 -25.08360
vt 6.02530 -25.24350
vt 6.42219 -25.21440
vt 6.42219 -25.08360
vt 6.44526 -24.95500
vt 6.44659 -24.92000
vt 6.44442 -24.92010
vt 6.44743 -24.95500
vt 5.87780 -24.72930
vt 5.94817 -24.78800
vt 5.95769 -24.74180
vt 5.87668 -24.78330
vt 5.79743 -24.74000
vt 5.80503 -24.78640
vt 38.00710 -9.03440
vt 38.00710 -8.97288
vt 37.99210 -9.03440
vt 37.99210 -8.97288
vt 37.95550 -9.03732
vt 37.95550 -8.96267
vt 37.93970 -9.03732
vt 37.93970 -8.96267
vt 38.06030 -9.03732
vt 38.06030 -8.96267
vt 38.04450 -9.03732
vt 38.04450 -8.96267
vt 38.00790 -9.03440
vt 38.00790 -8.97288
vt 37.99290 -8.97288
vt 37.99290 -9.03440
vt 59.91870 -52.96360
vt 59.91870 -53.03640
vt 60.00000 -52.96360
vt 60.00000 -53.03640
vt 60.08130 -52.96360
vt 60.08130 -53.03640
vt 59.98740 -53.01560
vt 60.06900 -53.08130
vt 60.06900 -53.01100
vt 59.98740 -53.08130
vt 60.06900 -52.91870
vt 59.98740 -52.91870
vt 59.98740 -52.98440
vt 60.06900 -52.98900
vt 59.86200 -52.91870
vt 59.86200 -53.08130
vt 60.06900 -53.02420
vt 60.10740 -53.06670
vt 60.10740 -53.02420
vt 60.06900 -53.06670
vt 60.06900 -52.93150
vt 60.06900 -52.97400
vt 60.10740 -52.93150
vt 60.10740 -52.97400
vt 59.93100 -52.96360
vt 59.93100 -53.03640
vt 60.01260 -52.96360
vt 60.01260 -53.03640
vt 60.13800 -52.96360
vt 60.13800 -53.03640
vt 59.89260 -52.97420
vt 59.93100 -52.97420
vt 59.86200 -53.03640
vt 59.97580 -52.97420
vt 59.93330 -53.03640
vt 59.97580 -53.03640
vt 59.93330 -52.97420
vt 60.06850 -52.97420
vt 60.02600 -53.03640
vt 60.06850 -53.03640
vt 60.02600 -52.97420
vt 60.01100 -52.96360
vt 60.01100 -53.03640
vt 59.98900 -52.96360
vt 59.98900 -53.03640
vt 60.01560 -53.03640
vt 60.01560 -52.96360
vt 59.98440 -52.96360
vt 59.98440 -53.03640
vt 59.86200 -53.06670
vt 59.93100 -53.06670
vt 59.93100 -53.02420
vt 59.86200 -53.02420
vt 59.93100 -52.97400
vt 59.86200 -52.93150
vt 59.86200 -52.97400
vt 59.93100 -52.93150
vt 60.01260 -52.98440
vt 59.93100 -52.91870
vt 59.93100 -52.98900
vt 60.01260 -52.91870
vt 60.01260 -53.08130
vt 60.13800 -52.91870
vt 60.13800 -53.08130
vt 59.93100 -53.08130
vt 60.01260 -53.01560
vt 59.93100 -53.01100
vt 59.98740 -52.96360
vt 59.86200 -52.96360
vt 59.98740 -53.03640
vt 60.06900 -52.96360
vt 60.06900 -53.03640
vt 60.10740 -52.97420
vt 60.06900 -52.97420
vt 8.03568 -32.89930
vt 7.96432 -32.89930
vt 7.96432 -33.00370
vt 8.03568 -33.00370
vt 7.96432 -33.07740
vt 8.03568 -33.07740
vt 8.03568 -33.07700
vt 7.96432 -33.07700
vt 8.03568 -33.14100
vt 7.96432 -33.14100
vt 7.82765 -32.96430
vt 7.88932 -33.03570
vt 7.88932 -32.96430
vt 7.82765 -33.03570
vt 7.96923 -33.03570
vt 7.96923 -32.96430
vt 8.14699 -32.96430
vt 8.06700 -32.96430
vt 8.06700 -33.03570
vt 7.99112 -33.03570
vt 8.14699 -33.03570
vt 7.99112 -32.96430
vt 8.17235 -32.89930
vt 8.07126 -32.96730
vt 8.13436 -33.00370
vt 8.09001 -33.07740
vt 8.11068 -32.85900
vt 8.03077 -32.87580
vt 8.02970 -33.07740
vt 8.00888 -32.97880
vt 8.00711 -33.07740
vt 7.85302 -32.97980
vt 7.91975 -33.07700
vt 7.93300 -32.97930
vt 7.82765 -33.07530
vt 7.85260 -33.13800
vt 7.89256 -33.14100
vt 8.03568 -33.07530
vt 7.96432 -33.07530
vt 8.03568 -33.13800
vt 7.96432 -33.13800
vt 8.03568 -32.97980
vt 7.96432 -32.97980
vt 8.03568 -32.87580
vt 7.96432 -32.87580
vt 7.96432 -32.97880
vt 8.03568 -32.97880
vt 7.89256 -33.03570
vt 7.89256 -32.96430
vt 7.85260 -33.03570
vt 7.85260 -32.96430
vt 8.00711 -32.96430
vt 8.00711 -33.03570
vt 8.02970 -33.03570
vt 8.02970 -32.96430
vt 8.09001 -32.96430
vt 8.09001 -33.03570
vt 7.91975 -33.03570
vt 7.91975 -32.96430
vt 7.88932 -32.85900
vt 7.92874 -32.96730
vt 7.96923 -32.87580
vt 7.82765 -32.89930
vt 7.86564 -33.00370
vt 7.90999 -33.07740
vt 7.99112 -32.97880
vt 7.97030 -33.07740
vt 7.99289 -33.07740
vt 8.14699 -32.97980
vt 8.06700 -32.97930
vt 8.08025 -33.07700
vt 8.17235 -33.07530
vt 8.14740 -33.13800
vt 8.10744 -33.14100
vt 17.94310 -46.69840
vt 17.94310 -46.74980
vt 18.00000 -46.69840
vt 18.00000 -46.74980
vt 18.05690 -46.74980
vt 18.05690 -46.69840
vt 17.43380 -46.94310
vt 17.50270 -47.00000
vt 17.50270 -46.94310
vt 17.43380 -47.00000
vt 17.43380 -47.05690
vt 17.50270 -47.05690
vt 18.09560 -46.81820
vt 18.59390 -47.00000
vt 18.59390 -46.81820
vt 18.09560 -47.00000
vt 18.09560 -47.18180
vt 18.59390 -47.18180
vt 18.10850 -47.01110
vt 17.81860 -47.23940
vt 18.13640 -47.03600
vt 18.49730 -46.67130
vt 18.56620 -46.69840
vt 17.90440 -46.92140
vt 17.40610 -46.89710
vt 17.39340 -47.26350
vt 17.39710 -47.32870
vt 17.83870 -47.30160
vt 18.17410 -47.08950
vt 18.60660 -46.74980
vt 18.00000 -46.89710
vt 18.00000 -47.26350
vt 18.18180 -46.89710
vt 18.18180 -47.26350
vt 18.00000 -47.32870
vt 18.18180 -47.32870
vt 17.81820 -46.89710
vt 17.81820 -47.26350
vt 17.81820 -47.32870
vt 17.83870 -46.81820
vt 17.39710 -47.00000
vt 17.83870 -47.00000
vt 17.39710 -46.81820
vt 17.83870 -47.18180
vt 17.39710 -47.18180
vt 18.17410 -47.00000
vt 18.17410 -46.81820
vt 18.17410 -47.18180
vt 18.60660 -46.94310
vt 18.60660 -47.05690
vt 18.60660 -47.00000
vt 18.09560 -46.92140
vt 18.18140 -47.23940
vt 18.59390 -46.89710
vt 18.60660 -47.26350
vt 17.89150 -47.01110
vt 17.86360 -47.03600
vt 17.50270 -46.67130
vt 17.43380 -46.69840
vt 18.16130 -47.30160
vt 18.60290 -47.32870
vt 17.82590 -47.08950
vt 17.39340 -46.74980
vt 31.92750 -6.45220
vt 31.92750 -6.92473
vt 32.07250 -6.45288
vt 32.07250 -6.92541
vt 31.93720 -6.76147
vt 32.06410 -7.03527
vt 32.06410 -6.76147
vt 31.93720 -7.03527
vt 31.93720 -7.20208
vt 32.06410 -7.20208
vt 31.93720 -7.27285
vt 32.06410 -7.62880
vt 32.06410 -7.27285
vt 31.93720 -7.62880
vt 31.71660 -6.92746
vt 32.17210 -7.07254
vt 32.17600 -6.92746
vt 31.71280 -7.07254
vt 31.86910 -7.06409
vt 32.18610 -6.93718
vt 31.86910 -6.93718
vt 32.18610 -7.06409
vt 31.74070 -6.84374
vt 32.28340 -6.45220
vt 31.82400 -6.37120
vt 32.20000 -6.92473
vt 31.81390 -6.79601
vt 32.12950 -7.03527
vt 32.13090 -6.76147
vt 31.71280 -7.14901
vt 32.03200 -7.20208
vt 31.89020 -7.36637
vt 32.08550 -7.27285
vt 32.08550 -7.62880
vt 31.89020 -7.62880
vt 31.92750 -6.37189
vt 32.07250 -6.84374
vt 32.07250 -6.37120
vt 31.92750 -6.84442
vt 31.93590 -7.36637
vt 32.06280 -7.14901
vt 31.93590 -7.14901
vt 32.06280 -7.36637
vt 32.06280 -6.79601
vt 31.93590 -6.79601
vt 31.93590 -7.62880
vt 32.06280 -7.62880
vt 32.08550 -7.06409
vt 31.89020 -6.93718
vt 31.89020 -7.06409
vt 32.08550 -6.93718
vt 32.20000 -6.92746
vt 31.74460 -7.07254
vt 32.20390 -7.07254
vt 31.74070 -6.92746
vt 31.71280 -6.45288
vt 32.25540 -6.84442
vt 32.17210 -6.37189
vt 31.79610 -6.92541
vt 31.91450 -7.27285
vt 31.91450 -7.62880
vt 32.10980 -7.36637
vt 32.10980 -7.62880
vt 31.96800 -7.20208
vt 32.28720 -7.14901
vt 31.87050 -7.03527
vt 32.18610 -6.79601
vt 31.86910 -6.76147
vt -0.07254 -42.45290
vt 0.07254 -42.92470
vt 0.07254 -42.45220
vt -0.07254 -42.92540
vt 0.06282 -42.76150
vt -0.06409 -43.03530
vt 0.06282 -43.03530
vt -0.06409 -42.76150
vt 0.06282 -43.20210
vt -0.06409 -43.20210
vt 0.06282 -43.27290
vt -0.06409 -43.62880
vt 0.06282 -43.62880
vt -0.06409 -43.27290
vt 0.17212 -42.92750
vt -0.28722 -42.92750
vt -0.28335 -43.07250
vt 0.17599 -43.07250
vt -0.13091 -42.93590
vt 0.18614 -43.06280
vt 0.18614 -42.93590
vt -0.13091 -43.06280
vt 0.28722 -42.45290
vt -0.25544 -42.84440
vt 0.20390 -42.92540
vt -0.17212 -42.37190
vt -0.18614 -42.79600
vt 0.12945 -43.03530
vt 0.13091 -42.76150
vt -0.28722 -43.14900
vt 0.03201 -43.20210
vt -0.10979 -43.36640
vt 0.08546 -43.27290
vt 0.08546 -43.62880
vt -0.10979 -43.62880
vt 0.07254 -42.37190
vt -0.07254 -42.84370
vt 0.07254 -42.84440
vt -0.07254 -42.37120
vt 0.06409 -43.14900
vt -0.06282 -43.14900
vt 0.06409 -43.36640
vt -0.06282 -43.36640
vt 0.06409 -42.79600
vt -0.06282 -42.79600
vt 0.06409 -43.62880
vt -0.06282 -43.62880
vt 0.08546 -43.06280
vt 0.08546 -42.93590
vt -0.10979 -43.06280
vt -0.10979 -42.93590
vt 0.20003 -43.07250
vt -0.25544 -42.92750
vt -0.25931 -43.07250
vt 0.20390 -42.92750
vt 0.25931 -42.84370
vt -0.28335 -42.45220
vt -0.20003 -42.92470
vt 0.17599 -42.37120
vt -0.08546 -43.27290
vt -0.08546 -43.62880
vt 0.10979 -43.36640
vt 0.10979 -43.62880
vt -0.03201 -43.20210
vt 0.28722 -43.14900
vt -0.12945 -43.03530
vt 0.18614 -42.79600
vt -0.13091 -42.76150
vt 7.71237 -23.29880
vt 8.28763 -23.40220
vt 8.28763 -23.29880
vt 7.71237 -23.40220
vt 7.71237 -22.83870
vt 8.28763 -22.83870
vt 7.56888 -22.71240
vt 8.21833 -23.28760
vt 8.21833 -22.71240
vt 7.56888 -23.28760
vt 7.78167 -22.59780
vt 8.25855 -23.29880
vt 8.43112 -22.83870
vt 7.60910 -23.05800
vt 8.21833 -23.40220
vt 7.56888 -23.16130
vt 7.71237 -22.59780
vt 8.28763 -23.05800
vt 8.28763 -22.59780
vt 7.71237 -23.05800
vt 8.28763 -23.16130
vt 7.71237 -23.16130
vt 7.74145 -23.29880
vt 8.21833 -22.59780
vt 7.56888 -22.83870
vt 8.39090 -23.05800
vt 7.78167 -23.40220
vt 8.43112 -23.16130
vt 25.77390 -37.24710
vt 26.22610 -37.31730
vt 26.22610 -37.24710
vt 25.77390 -37.31730
vt 25.77390 -36.95480
vt 26.22610 -36.95480
vt 25.64690 -36.77390
vt 25.73640 -37.22610
vt 25.73640 -36.77390
vt 25.64690 -37.22610
vt 26.15710 -36.77390
vt 26.15710 -37.22610
vt 26.35310 -36.95480
vt 26.10670 -37.19810
vt 26.19620 -37.24710
vt 26.26360 -36.90590
vt 25.84290 -36.68270
vt 25.68600 -36.97490
vt 26.06760 -37.26840
vt 25.64690 -37.04520
vt 26.15710 -37.31730
vt 25.77390 -36.68270
vt 26.22610 -36.97490
vt 26.22610 -36.68270
vt 25.77390 -36.97490
vt 26.22610 -37.04520
vt 25.77390 -37.04520
vt 26.06760 -37.22610
vt 26.06760 -36.77390
vt 25.89330 -37.19810
vt 26.15710 -36.68270
vt 25.73640 -36.90590
vt 26.31400 -36.97490
vt 25.93240 -37.26840
vt 26.35310 -37.04520
vt 25.64690 -36.95480
vt 25.80380 -37.24710
vt 25.84290 -37.31730
vt 33.60780 -56.62980
vt 34.39220 -57.13770
vt 34.39220 -56.62980
vt 33.60780 -57.13770
vt 34.39220 -57.30210
vt 33.60780 -57.30210
vt 33.61730 -57.30210
vt 34.38270 -57.37020
vt 34.38270 -57.30210
vt 33.61730 -57.37020
vt 33.52390 -56.60780
vt 33.52390 -57.39220
vt 34.47610 -56.60780
vt 34.47610 -57.39220
vt 33.53580 -56.61730
vt 33.53580 -57.38270
vt 34.46420 -56.61730
vt 34.46420 -57.38270
vt 33.52390 -56.62980
vt 34.47610 -57.13770
vt 34.47610 -56.62980
vt 33.52390 -57.13770
vt 34.47610 -57.30210
vt 33.52390 -57.30210
vt 33.53580 -57.30210
vt 34.46420 -57.37020
vt 34.46420 -57.30210
vt 33.53580 -57.37020
vt 58.08130 -54.96360
vt 58.00000 -54.96360
vt 58.08130 -55.03640
vt 58.00000 -55.03640
vt 57.91870 -54.96360
vt 57.91870 -55.03640
vt 57.98740 -54.91870
vt 57.98740 -54.98440
vt 58.06900 -54.91870
vt 58.06900 -54.98900
vt 58.06900 -55.01100
vt 57.98740 -55.01560
vt 58.06900 -55.08130
vt 57.98740 -55.08130
vt 57.86200 -55.08130
vt 57.86200 -54.91870
vt 58.10740 -54.93330
vt 58.06900 -54.97580
vt 58.10740 -54.97580
vt 58.06900 -54.93330
vt 58.06900 -55.02600
vt 58.10740 -55.06850
vt 58.10740 -55.02600
vt 58.06900 -55.06850
vt 58.13800 -54.96360
vt 58.01260 -54.96360
vt 58.13800 -55.03640
vt 58.01260 -55.03640
vt 57.93100 -54.96360
vt 57.93100 -55.03640
vt 57.89260 -54.97420
vt 57.93100 -54.97420
vt 57.86200 -55.03640
vt 58.02420 -54.97420
vt 58.06670 -55.03640
vt 58.06670 -54.97420
vt 58.02420 -55.03640
vt 57.93150 -54.97420
vt 57.97400 -55.03640
vt 57.97400 -54.97420
vt 57.93150 -55.03640
vt 57.98900 -54.96360
vt 57.98900 -55.03640
vt 58.01100 -54.96360
vt 58.01100 -55.03640
vt 57.98440 -54.96360
vt 57.98440 -55.03640
vt 58.01560 -54.96360
vt 58.01560 -55.03640
vt 58.01260 -55.08130
vt 58.01260 -55.01560
vt 57.93100 -55.08130
vt 57.93100 -55.01100
vt 57.93100 -54.98900
vt 58.01260 -54.98440
vt 57.93100 -54.91870
vt 58.01260 -54.91870
vt 58.13800 -55.08130
vt 58.13800 -54.91870
vt 57.86200 -54.97580
vt 57.93100 -54.97580
vt 57.86200 -54.93330
vt 57.93100 -54.93330
vt 57.86200 -55.06850
vt 57.93100 -55.02600
vt 57.86200 -55.02600
vt 57.93100 -55.06850
vt 58.06900 -54.96360
vt 57.98740 -54.96360
vt 58.06900 -55.03640
vt 57.98740 -55.03640
vt 57.86200 -54.96360
vt 58.06900 -54.97420
vt 58.10740 -54.97420
vt 11.96430 -32.89930
vt 12.03570 -33.00370
vt 12.03570 -32.89930
vt 11.96430 -33.00370
vt 12.03570 -33.07740
vt 11.96430 -33.07740
vt 11.96430 -33.07700
vt 11.96430 -33.14100
vt 12.03570 -33.07700
vt 12.03570 -33.14100
vt 11.82770 -32.96430
vt 11.82770 -33.03570
vt 11.88930 -32.96430
vt 11.88930 -33.03570
vt 11.96920 -32.96430
vt 11.96920 -33.03570
vt 12.14700 -32.96430
vt 12.06700 -32.96430
vt 12.14700 -33.03570
vt 11.99110 -32.96430
vt 12.06700 -33.03570
vt 11.99110 -33.03570
vt 12.03080 -32.87580
vt 12.07130 -32.96730
vt 12.11070 -32.85900
vt 12.17230 -32.89930
vt 12.13440 -33.00370
vt 12.09000 -33.07740
vt 12.00890 -32.97880
vt 12.02970 -33.07740
vt 12.00710 -33.07740
vt 11.93300 -32.97930
vt 11.91970 -33.07700
vt 11.85300 -32.97980
vt 11.82770 -33.07530
vt 11.85260 -33.13800
vt 11.89260 -33.14100
vt 11.96430 -33.07530
vt 11.96430 -33.13800
vt 12.03570 -33.07530
vt 12.03570 -33.13800
vt 11.96430 -32.97980
vt 12.03570 -32.97980
vt 11.96430 -32.87580
vt 12.03570 -32.97880
vt 12.03570 -32.87580
vt 11.96430 -32.97880
vt 11.85260 -32.96430
vt 11.85260 -33.03570
vt 11.89260 -33.03570
vt 11.89260 -32.96430
vt 12.02970 -33.03570
vt 12.02970 -32.96430
vt 12.00710 -33.03570
vt 12.00710 -32.96430
vt 12.09000 -33.03570
vt 12.09000 -32.96430
vt 11.91970 -33.03570
vt 11.91970 -32.96430
vt 11.82770 -32.89930
vt 11.86560 -33.00370
vt 11.92870 -32.96730
vt 11.91000 -33.07740
vt 11.88930 -32.85900
vt 11.96920 -32.87580
vt 11.97030 -33.07740
vt 11.99110 -32.97880
vt 11.99290 -33.07740
vt 12.06700 -32.97930
vt 12.08030 -33.07700
vt 12.14700 -32.97980
vt 12.17230 -33.07530
vt 12.14740 -33.13800
vt 12.10740 -33.14100
vt 53.69520 -22.72870
vt 54.30480 -23.23670
vt 54.30480 -22.72870
vt 53.69520 -23.23670
vt 54.30480 -23.27130
vt 53.69520 -23.27130
vt 53.89950 -23.30480
vt 54.10050 -22.69520
vt 53.89950 -22.69520
vt 54.10050 -23.30480
vt 53.89950 -22.72870
vt 54.10050 -23.23670
vt 54.10050 -22.72870
vt 53.89950 -23.23670
vt 54.10050 -23.27130
vt 53.89950 -23.27130
vn -0.2913 -0.1102 0.9528
vn 0.2913 -0.1102 0.9528
vn -0.2835 -0.1654 0.9449
vn 0.2835 -0.1654 0.9449
vn 0.1417 -0.2047 0.9685
vn -0.1417 -0.2047 0.9685
vn 0.2047 -0.1811 0.9606
vn -0.2047 -0.1811 0.9606
vn 0.1654 -0.1575 0.9764
vn -0.1654 -0.1575 0.9764
vn 0.1811 -0.1024 0.9764
vn -0.1811 -0.1024 0.9764
vn 0.0157 -0.3228 0.9449
vn 0.0079 -0.5433 0.8425
vn 0.2598 -0.5276 0.8110
vn -0.0787 -0.6142 0.7874
vn 0.0787 -0.6142 0.7874
vn -0.0866 -0.1890 0.9764
vn 0.0079 0.0472 1.0000
vn 0.0157 0.0472 1.0000
vn -0.2362 -0.5276 0.8189
vn 0.1102 -0.1890 0.9764
vn 0.0000 0.0551 1.0000
vn -0.6142 0.0079 0.7953
vn -0.6063 0.0079 0.7953
vn 0.6142 0.0079 0.7953
vn 0.6063 0.0079 0.7953
vn -0.9606 -0.2205 -0.1654
vn -0.9606 -0.2205 -0.1732
vn -0.9685 -0.2205 -0.1339
vn -0.9528 -0.2283 -0.2126
vn -0.9528 -0.1811 -0.2441
vn -0.9606 -0.1811 -0.2126
vn -0.9764 -0.1181 -0.1968
vn -0.9685 -0.1181 -0.2047
vn -0.9764 -0.1181 -0.1654
vn -0.9606 -0.1181 -0.2362
vn -0.9685 -0.1654 -0.1968
vn -0.9606 -0.1654 -0.2047
vn -0.9685 -0.1654 -0.1654
vn -0.9606 -0.1654 -0.2362
vn -0.9449 -0.1811 -0.2756
vn -0.9370 -0.1496 -0.3228
vn -0.9449 -0.1417 -0.2992
vn -0.9291 -0.1496 -0.3465
vn -0.9291 -0.1811 -0.3228
vn -0.9291 -0.1811 -0.3307
vn -0.9370 -0.1732 -0.2992
vn -0.9134 -0.1811 -0.3622
vn -0.9843 -0.1654 0.0551
vn -0.7874 -0.0394 0.6142
vn -0.7953 -0.0394 -0.6063
vn -1.0000 -0.0787 0.0315
vn -0.7402 -0.6220 -0.2598
vn -0.6535 -0.5276 0.5433
vn -0.7402 -0.6142 0.2756
vn -0.8189 -0.5276 -0.2205
vn -0.9055 -0.4173 -0.0394
vn -0.8189 -0.4173 0.4016
vn -0.7559 -0.6457 -0.0709
vn -0.7402 -0.6299 -0.2362
vn -0.9449 0.0079 0.3307
vn -0.9449 0.0157 0.3307
vn -0.9449 0.0079 0.3228
vn -0.7559 -0.6378 -0.1496
vn -0.9685 0.0079 0.2441
vn -0.9685 0.0157 0.2441
vn -0.9685 0.0157 0.2520
vn -0.9764 0.0079 0.2047
vn -0.9843 0.0157 0.1732
vn -0.9843 0.0157 0.1811
vn -0.6063 -0.1811 -0.7795
vn -0.5906 -0.1811 -0.7874
vn -0.6378 -0.1811 -0.7480
vn -0.5591 -0.1811 -0.8110
vn 0.6378 -0.1811 -0.7480
vn 0.5984 -0.1811 -0.7874
vn 0.6063 -0.1811 -0.7795
vn 0.5591 -0.1811 -0.8110
vn -0.0472 -0.2126 -0.9764
vn -0.0079 -0.2126 -0.9764
vn 0.0394 -0.2126 -0.9764
vn 0.0236 -0.2126 -0.9764
vn 0.2205 -0.1024 -0.9685
vn -0.2205 -0.1024 -0.9685
vn 0.2362 -0.1575 -0.9606
vn -0.2362 -0.1575 -0.9606
vn 0.2598 -0.1811 -0.9449
vn -0.2598 -0.1811 -0.9449
vn 0.2047 -0.1968 -0.9606
vn -0.2047 -0.1968 -0.9606
vn -0.3307 -0.1654 -0.9291
vn 0.3307 -0.1654 -0.9291
vn -0.3307 -0.1102 -0.9370
vn 0.3307 -0.1102 -0.9370
vn -0.5591 -0.6378 0.5276
vn 0.5591 -0.6378 0.5276
vn -0.5197 -0.6063 0.5984
vn 0.5197 -0.6063 0.5984
vn -0.5354 -0.5984 0.5906
vn 0.5354 -0.5984 0.5906
vn -0.6063 -0.6299 0.4882
vn 0.6063 -0.6299 0.4882
vn 0.9606 -0.2205 -0.1654
vn 0.9685 -0.2205 -0.1339
vn 0.9606 -0.2205 -0.1732
vn 0.9606 -0.1811 -0.2126
vn 0.9528 -0.1811 -0.2520
vn 0.9528 -0.1811 -0.2362
vn 0.9764 -0.1181 -0.1654
vn 0.9685 -0.1181 -0.2047
vn 0.9764 -0.1181 -0.1968
vn 0.9606 -0.1181 -0.2362
vn 0.9685 -0.1654 -0.1654
vn 0.9606 -0.1654 -0.2047
vn 0.9685 -0.1654 -0.1968
vn 0.9606 -0.1654 -0.2362
vn 0.9528 -0.2283 -0.2126
vn 0.9449 -0.1417 -0.2992
vn 0.9370 -0.1496 -0.3228
vn 0.9449 -0.1811 -0.2756
vn 0.9370 -0.1732 -0.2992
vn 0.9291 -0.1811 -0.3307
vn 0.9291 -0.1811 -0.3228
vn 0.9134 -0.1811 -0.3622
vn 0.9291 -0.1496 -0.3465
vn 1.0000 -0.0709 0.0079
vn 0.7874 -0.0394 0.6142
vn 0.7953 -0.0394 -0.6063
vn 0.9843 -0.1575 0.0236
vn 0.9055 -0.4173 -0.0394
vn 0.7402 -0.6142 0.2756
vn 0.7402 -0.6220 -0.2598
vn 0.6535 -0.5276 0.5433
vn 0.8189 -0.5276 -0.2205
vn 0.7559 -0.6457 -0.0709
vn 0.7402 -0.6299 -0.2362
vn 0.8189 -0.4173 0.4016
vn 0.9449 0.0079 0.3307
vn 0.9449 0.0157 0.3307
vn 0.9449 0.0079 0.3228
vn 0.7559 -0.6378 -0.1496
vn 0.9685 0.0079 0.2441
vn 0.9685 0.0157 0.2441
vn 0.9685 0.0157 0.2520
vn 0.9764 0.0079 0.2047
vn 0.9843 0.0157 0.1732
vn 0.9843 0.0157 0.1811
vn 0.0000 -0.4646 0.8819
vn 0.0000 0.0000 1.0000
vn 0.0000 0.1102 0.9921
vn 0.0157 -0.1654 0.9843
vn -0.0157 -0.1654 0.9843
vn 0.0000 1.0000 -0.0236
vn 0.0000 0.9921 0.1181
vn 0.0000 0.9843 -0.1654
vn 0.0000 0.9921 0.1339
vn 0.0000 1.0000 -0.0079
vn 0.0000 0.9843 -0.1575
vn 0.0000 0.9921 -0.1024
vn -0.0157 1.0000 0.0157
vn -0.0315 1.0000 0.0079
vn -0.0079 1.0000 0.0000
vn 0.0315 1.0000 0.0079
vn 0.0157 1.0000 0.0157
vn 0.0079 1.0000 0.0000
vn 0.0079 1.0000 0.0079
vn 0.0000 1.0000 0.0079
vn -0.0079 1.0000 0.0079
vn 0.0000 1.0000 0.0315
vn 0.0000 1.0000 0.0000
vn -1.0000 0.0000 -0.0079
vn -1.0000 0.0000 0.0000
vn -0.9606 0.0000 -0.2677
vn -0.9606 -0.0079 -0.2677
vn -0.9685 0.0157 -0.2520
vn -0.9685 0.0000 -0.2598
vn -0.9843 0.0000 -0.1811
vn -0.9449 0.0000 -0.3386
vn -1.0000 0.0000 0.0079
vn 0.0000 0.0236 -1.0000
vn -0.0079 0.0236 -1.0000
vn 0.0079 0.0236 -1.0000
vn 0.0000 0.0000 -1.0000
vn 0.3937 -0.0157 -0.9213
vn -0.3937 -0.0157 -0.9213
vn 0.0000 0.6142 -0.7874
vn 0.0000 -0.0394 -1.0000
vn 0.0000 -0.0787 -1.0000
vn 0.0157 -0.2047 -0.9764
vn -0.0157 -0.2047 -0.9764
vn 0.0000 -0.9843 0.1811
vn 0.0000 -0.9921 0.1102
vn 0.0000 -1.0000 0.0472
vn 0.0000 -1.0000 -0.0709
vn 0.0000 -1.0000 -0.0787
vn 0.0000 -0.7402 -0.6693
vn 0.0000 -1.0000 0.0000
vn -0.0157 -1.0000 -0.0157
vn 0.0000 -1.0000 -0.0315
vn -0.0315 -1.0000 -0.0079
vn 0.0157 -1.0000 -0.0157
vn 0.0315 -1.0000 -0.0079
vn 0.0000 -1.0000 0.0630
vn 0.0000 -1.0000 0.0079
vn 0.0000 -1.0000 -0.0472
vn 1.0000 0.0000 -0.0079
vn 1.0000 0.0000 0.0000
vn 0.9606 0.0000 -0.2677
vn 0.9606 -0.0079 -0.2677
vn 0.9685 0.0157 -0.2520
vn 0.9449 0.0000 -0.3386
vn 0.9685 0.0000 -0.2598
vn 0.9843 0.0000 -0.1811
vn 1.0000 0.0000 0.0079
vn -1.0000 0.0000 0.0551
vn 0.0000 0.4409 -0.8976
vn 1.0000 0.0000 0.0551
vn 0.0000 -0.3386 0.9370
vn 0.0000 -0.4331 0.9055
vn 0.0000 -0.5118 0.8583
vn 0.0000 -0.3937 0.9213
vn 0.0000 0.8346 0.5433
vn 0.0000 0.9764 -0.2047
vn 0.0000 -0.3701 -0.9291
vn 0.0000 0.2598 -0.9685
vn 0.0000 0.2047 -0.9764
vn 0.0000 -1.0000 -0.0079
vn 0.0000 0.6142 0.7874
vn 0.0000 0.9291 0.3701
vn 0.0000 1.0000 0.0472
vn 0.0000 0.9843 -0.1732
vn 0.0000 0.9213 -0.3858
vn -0.9921 0.1181 0.0551
vn -0.9921 0.1339 0.0630
vn -0.9685 0.2283 0.1024
vn -1.0000 0.0551 0.0236
vn -0.9921 0.0630 0.0866
vn -0.9764 0.1339 0.1811
vn 0.0000 0.0315 -1.0000
vn 0.0000 -0.0079 -1.0000
vn 0.0000 -0.0551 -1.0000
vn 0.0000 -0.9528 0.3071
vn 0.0000 -0.8189 0.5748
vn 0.0000 -0.7874 0.6142
vn 1.0000 0.0551 0.0236
vn 0.9921 0.1181 0.0551
vn 0.9921 0.1339 0.0630
vn 0.9685 0.2283 0.1024
vn 0.9921 0.0630 0.0866
vn 0.9764 0.1339 0.1811
vn -0.0236 -0.1732 0.9843
vn 0.0000 -0.0079 1.0000
vn 0.0000 -0.5039 0.8661
vn 0.0000 0.6063 0.7953
vn 0.0000 0.9843 0.1732
vn 0.0000 0.9921 -0.1102
vn 0.0236 0.1732 -0.9843
vn 0.0000 -0.6299 -0.7717
vn 0.0000 0.2756 -0.9606
vn 0.0000 -0.9843 -0.1732
vn 0.0236 -0.1732 0.9843
vn -0.0236 0.1732 -0.9843
vn 0.0000 -0.3622 0.9291
vn 0.0000 -0.3543 0.9370
vn 0.0000 0.9370 0.3465
vn 0.0000 0.3543 -0.9370
vn 0.0000 0.3622 -0.9291
vn 0.0000 -0.9370 -0.3465
vn 0.0000 -0.4882 0.8740
vn 0.0000 -0.4724 0.8819
vn 0.0000 0.8740 0.4803
vn 0.0000 0.8819 0.4646
vn 0.0000 0.4724 -0.8819
vn 0.0000 0.4882 -0.8740
vn 0.0000 -0.8819 -0.4724
vn 0.0000 -0.8740 -0.4803

o Head
usemtl c_cacbd1
f 1/1/1 2/2/1 3/3/1
f 4/4/1 3/3/1 2/2/1
f 5/5/2 6/6/2 7/7/2
f 6/6/2 5/5/2 8/8/2
f 9/9/3 10/10/3 11/11/3
f 12/12/3 11/11/3 10/10/3
f 13/13/4 14/14/4 15/15/4
f 14/14/4 13/13/4 16/16/4
f 17/17/5 18/18/5 19/19/5
f 18/18/5 17/17/5 20/20/5
f 21/21/6 22/22/6 23/23/6
f 24/24/6 23/23/6 22/22/6
f 25/25/7 26/26/7 27/27/7
f 26/26/7 25/25/7 28/28/7
f 29/29/8 30/30/8 31/31/8
f 32/32/8 31/31/8 30/30/8
f 33/33/9 34/34/9 35/35/9
f 34/34/9 33/33/9 36/36/9
f 37/37/10 38/38/10 39/39/10
f 40/40/10 39/39/10 38/38/10
f 41/41/11 42/42/11 43/43/11
f 42/42/11 41/41/11 44/44/11
f 45/45/12 46/46/12 47/47/12
f 48/48/12 47/47/12 46/46/12
f 49/49/13 50/50/14 51/51/15
f 52/52/16 53/53/16 54/54/16
f 53/53/16 52/52/16 55/55/16
f 56/56/17 57/57/17 58/58/17
f 58/58/17 59/59/17 56/56/17
f 60/60/18 61/61/19 62/62/20
f 61/61/19 60/60/18 49/49/13
f 60/60/18 63/63/21 49/49/13
f 50/50/14 49/49/13 63/63/21
f 61/61/19 49/49/13 64/64/22
f 51/51/15 64/64/22 49/49/13
f 64/64/22 65/65/19 61/61/19
f 66/66/19 67/67/19 68/68/19
f 67/67/19 66/66/19 69/69/19
f 67/67/19 69/69/19 70/70/23
f 70/70/23 71/71/23 67/67/19
f 72/72/24 73/73/25 55/55/24
f 53/53/25 55/55/24 73/73/25
f 74/74/25 53/53/25 73/73/25
f 73/73/25 75/75/25 74/74/25
f 59/59/26 76/76/27 77/77/26
f 76/76/27 59/59/26 58/58/27
f 76/76/27 58/58/27 78/78/27
f 78/78/27 79/79/27 76/76/27
f 80/80/28 81/81/29 24/82/30
f 80/80/28 82/83/31 81/81/29
f 24/82/30 22/84/30 80/80/28
f 80/80/28 83/85/31 82/83/31
f 84/86/32 85/87/32 32/88/33
f 32/88/33 30/89/33 84/86/32
f 86/90/34 87/91/35 48/92/36
f 86/90/34 88/93/37 87/91/35
f 86/90/34 89/94/37 88/93/37
f 48/92/36 46/95/36 86/90/34
f 90/96/38 91/97/39 40/98/40
f 40/98/40 38/99/40 90/96/38
f 90/96/38 92/100/41 91/97/39
f 90/96/38 93/101/41 92/100/41
f 84/86/32 94/102/42 95/103/42
f 84/86/32 95/103/42 85/87/32
f 96/104/43 97/105/43 4/106/44
f 4/106/44 2/107/44 96/104/43
f 96/104/43 98/108/45 99/109/45
f 100/110/46 101/111/47 12/112/48
f 100/110/46 102/113/49 103/114/49
f 12/112/48 10/115/48 100/110/46
f 100/110/46 103/114/49 101/111/47
f 96/104/43 99/109/45 97/105/43
f 68/116/50 104/117/50 66/118/50
f 105/119/50 66/118/50 104/117/50
f 77/120/51 106/121/51 59/122/51
f 56/123/51 59/122/51 106/121/51
f 75/124/52 107/125/52 74/126/52
f 108/127/52 74/126/52 107/125/52
f 62/116/53 109/117/53 60/128/53
f 63/129/53 60/128/53 109/117/53
f 110/130/54 111/131/54 112/132/54
f 112/132/54 113/133/54 110/130/54
f 36/134/55 114/135/55 115/136/55
f 114/135/55 36/134/55 33/137/55
f 53/138/56 74/126/56 108/127/56
f 108/127/56 54/139/56 53/138/56
f 116/140/57 115/136/57 114/135/57
f 114/135/57 117/141/57 116/140/57
f 118/142/58 119/143/58 120/144/58
f 120/144/58 121/145/58 118/142/58
f 118/142/59 44/146/59 41/147/59
f 122/148/60 123/149/60 124/150/60
f 124/150/60 125/151/60 122/148/60
f 126/152/61 127/153/61 128/154/61
f 128/154/61 129/155/61 126/152/61
f 15/156/62 130/157/62 13/158/62
f 131/159/63 13/158/62 130/157/62
f 132/160/63 131/159/63 130/157/62
f 130/157/62 133/161/63 132/160/63
f 7/162/64 134/163/62 5/164/64
f 124/150/62 5/164/64 134/163/62
f 125/151/62 124/150/62 134/163/62
f 134/163/62 135/165/62 125/151/62
f 136/166/65 137/167/65 131/159/65
f 131/159/65 132/160/65 136/166/65
f 44/146/59 118/142/59 121/145/59
f 27/168/66 138/169/66 25/170/66
f 110/130/67 25/170/66 138/169/66
f 111/131/68 110/130/67 138/169/66
f 138/169/66 139/171/68 111/131/68
f 35/172/69 140/173/69 33/137/69
f 114/135/69 33/137/69 140/173/69
f 117/141/69 114/135/69 140/173/69
f 140/173/69 141/174/69 117/141/69
f 43/175/69 142/176/69 41/147/69
f 118/142/69 41/147/69 142/176/69
f 119/143/69 118/142/69 142/176/69
f 142/176/69 143/177/69 119/143/69
f 19/178/70 144/179/70 17/180/70
f 126/152/70 17/180/70 144/179/70
f 127/153/71 126/152/70 144/179/70
f 144/179/70 145/181/71 127/153/71
f 146/182/72 57/183/73 56/184/74
f 146/182/72 147/185/75 148/186/75
f 52/187/76 54/188/77 149/189/78
f 149/189/78 54/188/77 108/190/79
f 149/189/78 150/191/76 52/187/76
f 107/192/79 149/189/78 108/190/79
f 56/184/74 106/193/74 146/182/72
f 146/182/72 148/186/75 57/183/73
f 105/194/80 104/195/80 151/196/81
f 151/196/81 152/197/82 153/198/82
f 151/196/81 154/199/81 105/194/80
f 151/196/81 153/198/82 154/199/81
f 155/200/81 50/201/81 63/202/80
f 155/200/81 51/203/83 50/201/81
f 63/202/80 109/204/80 155/200/81
f 155/200/81 156/205/83 51/203/83
f 157/206/84 89/163/84 158/207/84
f 89/163/84 157/206/84 88/208/84
f 143/209/85 159/210/85 119/211/85
f 120/212/85 119/211/85 159/210/85
f 160/213/86 93/214/86 161/215/86
f 93/214/86 160/213/86 92/216/86
f 141/217/87 162/218/87 117/219/87
f 116/220/87 117/219/87 162/218/87
f 163/221/88 94/222/88 164/223/88
f 94/222/88 163/221/88 95/224/88
f 139/225/89 165/226/89 111/227/89
f 112/228/89 111/227/89 165/226/89
f 166/229/90 83/230/90 167/231/90
f 83/230/90 166/229/90 82/232/90
f 145/233/91 168/234/91 127/235/91
f 128/236/91 127/235/91 168/234/91
f 133/237/92 169/238/92 132/239/92
f 136/240/92 132/239/92 169/238/92
f 170/241/93 102/242/93 171/243/93
f 102/242/93 170/241/93 103/244/93
f 135/245/94 172/246/94 125/247/94
f 122/248/94 125/247/94 172/246/94
f 173/249/95 98/250/95 174/251/95
f 98/250/95 173/249/95 99/252/95
f 8/253/96 124/254/96 123/255/96
f 124/254/96 8/253/96 5/256/96
f 4/257/97 97/258/97 175/259/97
f 175/259/97 3/260/97 4/257/97
f 16/261/98 131/262/98 137/263/98
f 131/262/98 16/261/98 13/264/98
f 12/265/99 101/266/99 176/267/99
f 176/267/99 11/268/99 12/265/99
f 28/269/100 110/270/100 113/271/100
f 110/270/100 28/269/100 25/272/100
f 32/273/101 85/274/101 177/275/101
f 177/275/101 31/276/101 32/273/101
f 20/277/102 126/278/102 129/279/102
f 126/278/102 20/277/102 17/280/102
f 24/281/103 81/282/103 178/283/103
f 178/283/103 23/284/103 24/281/103
f 179/285/104 18/286/105 20/287/105
f 20/287/105 129/288/106 179/285/104
f 28/289/107 113/290/108 180/169/109
f 180/169/109 26/171/107 28/289/107
f 44/291/110 121/292/111 181/293/112
f 181/293/112 42/294/110 44/291/110
f 121/292/111 120/295/113 181/293/112
f 159/296/113 181/293/112 120/295/113
f 36/297/114 115/298/115 182/299/116
f 115/298/115 116/300/117 182/299/116
f 182/299/116 34/301/114 36/297/114
f 162/302/117 182/299/116 116/300/117
f 129/288/106 128/303/118 179/285/104
f 168/304/118 179/285/104 128/303/118
f 8/305/119 123/306/120 183/307/120
f 113/290/108 112/308/121 180/169/109
f 165/309/121 180/169/109 112/308/121
f 16/310/122 137/311/123 184/312/124
f 169/313/125 184/312/124 136/314/125
f 183/307/120 6/315/119 8/305/119
f 172/316/126 183/307/120 122/317/126
f 123/306/120 122/317/126 183/307/120
f 184/312/124 14/318/122 16/310/122
f 137/311/123 136/314/125 184/312/124
f 64/319/127 156/320/127 65/321/127
f 156/320/127 64/319/127 51/322/127
f 55/323/128 150/324/128 72/325/128
f 150/324/128 55/323/128 52/326/128
f 78/327/129 147/328/129 79/329/129
f 147/328/129 78/327/129 148/330/129
f 70/331/130 152/320/130 71/321/130
f 152/320/130 70/331/130 153/332/130
f 88/333/131 157/334/131 185/335/131
f 58/336/132 57/337/132 148/330/132
f 148/330/132 78/327/132 58/336/132
f 95/338/133 163/339/133 177/340/133
f 177/340/133 85/341/133 95/338/133
f 40/342/134 91/343/134 186/344/134
f 186/344/134 39/345/134 40/342/134
f 186/344/135 91/343/135 92/346/135
f 92/346/135 160/347/135 186/344/135
f 185/335/131 87/348/131 88/333/131
f 99/349/136 173/350/136 175/351/136
f 175/351/136 97/352/136 99/349/136
f 82/353/137 166/354/137 178/355/137
f 178/355/137 81/356/137 82/353/137
f 87/348/138 185/335/138 48/357/138
f 47/358/138 48/357/138 185/335/138
f 11/359/139 187/360/139 9/361/139
f 187/360/139 11/359/139 176/362/140
f 187/360/139 176/362/140 170/363/140
f 170/363/140 171/364/140 187/360/139
f 3/365/141 188/366/139 1/367/141
f 188/366/139 3/365/141 175/351/139
f 188/366/139 175/351/139 173/350/139
f 173/350/139 174/368/139 188/366/139
f 103/369/142 170/363/142 176/362/142
f 176/362/142 101/370/142 103/369/142
f 31/371/143 189/372/143 29/373/143
f 189/372/143 31/371/143 177/340/144
f 189/372/143 177/340/144 163/339/145
f 163/339/145 164/374/145 189/372/143
f 47/358/146 190/375/146 45/376/146
f 190/375/146 47/358/146 185/335/146
f 190/375/146 185/335/146 157/334/146
f 157/334/146 158/377/146 190/375/146
f 39/345/146 191/378/146 37/379/146
f 191/378/146 39/345/146 186/344/146
f 191/378/146 186/344/146 160/347/146
f 160/347/146 161/380/146 191/378/146
f 23/381/147 192/382/147 21/383/147
f 192/382/147 23/381/147 178/355/147
f 192/382/147 178/355/147 166/354/148
f 166/354/148 167/384/148 192/382/147
usemtl c_694028
f 193/385/149 194/386/149 195/387/149
f 193/385/149 195/387/149 196/388/149
f 197/389/150 198/390/23 199/391/23
f 198/390/23 197/389/150 200/392/150
f 198/390/23 193/385/151 199/391/23
f 193/385/151 198/390/23 194/386/151
f 201/393/152 202/394/152 203/395/152
f 202/394/152 201/393/152 204/396/152
f 205/397/153 206/398/153 207/399/153
f 205/397/153 207/399/153 208/400/153
f 209/401/150 210/402/150 211/403/150
f 210/402/150 209/401/150 212/404/150
f 213/405/154 197/406/155 214/407/154
f 197/406/155 213/405/154 200/408/155
f 215/409/156 213/405/154 214/407/154
f 213/405/154 215/409/156 216/410/156
f 201/411/157 217/412/158 218/413/158
f 217/412/158 201/411/157 203/414/157
f 219/415/159 218/413/158 217/412/158
f 218/413/158 219/415/159 220/416/159
f 221/417/158 205/418/157 222/419/158
f 205/418/157 221/417/158 206/420/157
f 222/419/158 223/421/159 221/417/158
f 223/421/159 222/419/158 224/422/159
f 225/423/160 226/424/160 227/425/160
f 226/424/160 225/423/160 228/426/160
f 229/427/160 225/423/160 230/428/160
f 225/423/160 229/427/160 231/429/160
f 232/430/161 233/431/162 234/432/163
f 235/433/164 236/434/165 237/435/166
f 238/436/167 237/435/166 236/434/165
f 239/437/168 232/430/161 240/438/169
f 234/432/163 240/438/169 232/430/161
f 232/430/161 239/437/168 241/439/170
f 236/434/165 242/440/168 238/436/167
f 242/440/168 236/434/165 243/441/170
f 209/442/171 244/443/171 245/444/171
f 244/443/171 209/442/171 211/445/171
f 246/446/171 245/444/171 244/443/171
f 245/444/171 246/446/171 247/447/171
f 206/448/172 221/449/172 248/450/172
f 206/448/172 248/450/172 207/451/172
f 221/449/172 249/452/172 248/450/172
f 221/449/172 223/453/172 249/452/172
f 213/454/173 198/455/173 200/456/173
f 198/455/173 213/454/173 250/457/173
f 250/457/173 194/458/173 198/455/173
f 194/458/173 250/457/173 195/459/173
f 195/459/173 250/457/173 251/460/173
f 213/454/173 252/461/173 250/457/173
f 252/461/173 251/460/173 250/457/173
f 216/462/173 252/461/173 213/454/173
f 252/461/173 216/462/173 231/463/173
f 252/461/173 231/463/173 253/464/173
f 254/465/173 251/460/173 252/461/173
f 251/460/173 254/465/173 255/466/173
f 254/465/173 252/461/173 253/464/173
f 256/467/174 253/464/174 237/468/174
f 256/467/174 237/468/174 238/469/174
f 256/467/174 257/470/175 253/464/174
f 257/470/175 256/467/174 258/471/175
f 253/464/174 259/472/174 237/468/174
f 231/463/174 259/472/174 253/464/174
f 231/463/174 229/473/174 259/472/174
f 259/472/174 229/473/174 260/474/174
f 261/475/176 262/476/176 235/477/176
f 262/476/176 236/478/176 235/477/176
f 245/479/177 263/480/178 264/481/177
f 263/480/178 245/479/177 247/482/178
f 264/481/177 209/483/179 245/479/177
f 209/483/179 264/481/177 212/484/179
f 265/485/173 243/486/173 266/487/173
f 243/486/173 265/485/173 242/488/173
f 240/469/169 234/468/163 240/469/171
f 239/488/168 240/469/169 239/488/171
f 234/468/163 267/472/171 234/468/171
f 267/472/171 268/474/171 267/472/171
f 268/474/171 269/485/171 268/474/171
f 269/485/171 239/488/168 269/485/171
f 238/469/171 238/469/167 242/488/168
f 238/469/167 238/469/171 237/468/171
f 242/488/168 242/488/171 238/469/171
f 237/468/171 237/468/166 238/469/167
f 242/488/171 242/488/168 265/485/171
f 237/468/166 237/468/171 259/472/171
f 265/485/171 265/485/171 242/488/171
f 259/472/171 259/472/171 237/468/166
f 265/485/171 265/485/171 260/474/171
f 259/472/171 259/472/171 260/474/171
f 260/474/171 260/474/171 265/485/171
f 260/474/171 260/474/171 259/472/171
f 218/489/180 270/490/180 271/491/180
f 270/490/180 218/489/180 220/492/180
f 271/491/180 201/493/180 218/489/180
f 201/493/180 271/491/180 204/494/180
f 227/495/181 239/496/181 272/497/181
f 239/496/181 227/495/181 269/498/181
f 227/495/181 226/499/181 269/498/181
f 268/500/181 269/498/181 226/499/181
f 272/497/181 239/496/181 273/501/181
f 240/502/181 273/501/181 239/496/181
f 273/501/181 274/503/181 272/497/181
f 274/503/181 273/501/181 275/504/181
f 242/505/181 230/506/181 276/507/181
f 230/506/181 242/505/181 265/508/181
f 229/509/181 230/506/181 265/508/181
f 229/509/181 265/508/181 260/510/181
f 256/511/181 242/505/181 276/507/181
f 242/505/181 256/511/181 238/512/181
f 256/511/181 276/507/181 277/513/181
f 256/511/181 277/513/181 258/514/181
f 278/515/182 241/496/182 279/516/182
f 241/496/182 278/515/182 232/517/182
f 262/518/183 243/505/183 236/519/183
f 243/505/183 262/518/183 266/520/183
f 246/521/184 263/522/184 247/523/184
f 263/522/184 246/521/184 280/524/184
f 235/525/185 259/526/185 261/527/185
f 259/526/185 235/525/185 237/528/185
f 233/529/186 281/530/186 267/531/186
f 267/531/186 234/532/186 233/529/186
f 216/533/187 215/534/187 228/535/187
f 216/533/187 228/535/187 231/536/187
f 282/537/188 254/538/189 253/539/188
f 254/538/189 282/537/188 283/540/189
f 231/536/184 282/537/188 253/539/188
f 231/536/184 228/535/184 282/537/188
f 223/541/190 224/542/190 284/543/190
f 223/541/190 284/543/190 249/544/190
f 219/545/191 270/546/191 220/547/191
f 270/546/191 219/545/191 285/548/191
f 196/549/192 251/550/193 286/551/193
f 251/550/193 196/549/192 195/552/192
f 255/553/194 286/551/193 251/550/193
f 286/551/193 255/553/194 287/554/194
f 280/555/195 288/556/196 264/557/196
f 280/555/195 264/557/196 263/558/195
f 288/556/196 212/559/196 264/557/196
f 210/560/196 212/559/196 288/556/196
f 254/561/197 283/562/197 287/554/197
f 287/554/197 255/553/197 254/561/197
f 275/563/198 289/564/198 290/565/198
f 275/563/198 290/565/198 274/566/198
f 257/567/198 258/568/198 290/565/198
f 277/569/198 290/565/198 258/568/198
f 260/570/199 265/571/200 262/572/199
f 262/572/199 259/573/201 260/570/199
f 278/574/202 269/575/200 268/576/202
f 278/574/202 267/577/203 281/578/203
f 269/575/200 278/574/202 279/579/200
f 267/577/203 278/574/202 268/576/202
f 266/580/200 262/572/199 265/571/200
f 259/573/201 262/572/199 261/581/201
f 285/582/204 291/583/205 271/584/205
f 285/582/204 271/584/205 270/585/204
f 291/583/205 204/586/206 271/584/205
f 291/583/205 202/587/206 204/586/206
f 248/588/205 249/589/204 292/590/205
f 284/591/204 292/590/205 249/589/204
f 292/590/205 208/592/206 248/588/205
f 207/593/206 248/588/205 208/592/206
f 203/594/207 291/595/207 217/596/207
f 291/595/207 203/594/207 202/597/207
f 285/598/207 217/596/207 291/595/207
f 217/596/207 285/598/207 219/599/207
f 214/600/208 199/601/208 293/602/208
f 199/601/208 214/600/208 197/603/208
f 193/604/208 293/602/208 199/601/208
f 196/605/208 293/602/208 193/604/208
f 293/602/208 196/605/208 286/606/208
f 294/607/208 214/600/208 293/602/208
f 293/602/208 286/606/208 294/607/208
f 214/600/208 294/607/208 215/608/208
f 215/608/208 294/607/208 228/609/208
f 228/609/208 294/607/208 282/610/208
f 283/611/208 294/607/208 286/606/208
f 294/607/208 283/611/208 282/610/208
f 283/611/208 286/606/208 287/612/208
f 234/613/209 282/610/209 273/614/209
f 234/613/209 273/614/209 240/615/209
f 289/616/210 273/614/209 282/610/209
f 273/614/209 289/616/210 275/617/210
f 267/618/209 282/610/209 234/613/209
f 282/610/209 267/618/209 228/609/209
f 226/619/209 228/609/209 267/618/209
f 226/619/209 267/618/209 268/620/209
f 281/621/211 233/622/211 278/623/211
f 278/623/211 233/622/211 232/624/211
f 211/625/212 288/626/213 244/627/213
f 288/626/213 211/625/212 210/628/212
f 280/629/214 244/627/213 288/626/213
f 244/627/213 280/629/214 246/630/214
f 241/631/208 269/632/208 279/633/208
f 269/632/208 241/631/208 239/634/208
f 222/635/215 284/636/215 224/637/215
f 284/636/215 222/635/215 292/638/215
f 205/639/215 292/638/215 222/635/215
f 292/638/215 205/639/215 208/640/215
usemtl c_f8f8f8
f 295/641/173 296/642/173 297/643/173
f 297/643/173 296/642/173 298/644/173
f 299/645/173 300/646/173 301/647/173
f 301/647/173 300/646/173 302/648/173
f 303/649/173 304/650/173 305/651/173
f 305/651/173 304/650/173 306/652/173
f 305/651/173 306/652/173 299/645/173
f 299/645/173 306/652/173 300/646/173
f 307/653/208 308/654/208 309/655/208
f 309/655/208 310/656/208 307/653/208
f 311/649/208 312/650/208 313/652/208
f 313/652/208 314/651/208 311/649/208
f 315/645/208 316/646/208 317/648/208
f 317/648/208 318/647/208 315/645/208
f 316/646/208 314/651/208 313/652/208
f 314/651/208 316/646/208 315/645/208
f 319/653/208 320/654/208 321/655/208
f 321/655/208 322/656/208 319/653/208
o RightFoot
usemtl c_694028
f 323/657/150 324/658/150 325/659/150
f 325/659/150 324/658/150 326/660/150
f 325/659/150 326/660/150 327/661/150
f 327/661/150 326/660/150 328/662/150
f 329/663/171 330/664/171 331/665/171
f 330/664/171 329/663/171 332/666/171
f 333/667/171 334/668/171 335/669/171
f 333/667/171 335/669/171 336/670/171
f 323/671/171 332/666/171 334/668/171
f 332/666/171 323/671/171 327/672/171
f 337/673/171 338/674/171 339/675/171
f 338/674/171 337/673/171 340/676/171
f 341/677/171 342/678/171 343/679/171
f 343/679/171 342/678/171 344/680/171
f 333/681/173 345/682/173 334/683/173
f 334/683/173 345/682/173 346/684/173
f 346/684/173 323/685/173 334/683/173
f 323/685/173 346/684/173 324/686/173
f 343/687/173 347/682/173 341/688/173
f 347/682/173 343/687/173 348/689/173
f 329/683/216 331/681/216 349/684/216
f 331/681/216 350/682/216 349/684/216
f 339/687/173 351/682/173 337/688/173
f 351/682/173 339/687/173 352/689/173
f 339/690/217 353/691/217 352/692/217
f 353/691/217 339/690/217 338/693/217
f 343/694/217 354/695/217 348/696/217
f 354/695/217 343/694/217 344/697/217
f 336/698/184 355/699/184 333/661/184
f 333/661/184 355/699/184 345/662/184
f 331/700/184 330/657/184 356/658/184
f 331/700/184 356/658/184 350/701/184
f 357/702/184 335/703/184 329/704/184
f 329/704/184 349/705/184 357/702/184
f 353/706/198 358/707/198 351/708/198
f 353/706/198 351/708/198 352/709/198
f 359/710/198 348/711/198 354/712/198
f 348/711/198 359/710/198 347/713/198
f 357/714/198 345/715/198 355/716/198
f 345/715/198 357/714/198 346/717/198
f 360/718/198 324/719/198 346/717/198
f 324/719/198 360/718/198 328/720/198
f 356/721/198 360/718/198 349/722/198
f 356/721/198 349/722/198 350/723/198
f 328/689/208 332/724/208 327/725/208
f 332/724/208 328/689/208 360/726/208
f 332/724/208 360/726/208 330/727/208
f 330/727/208 360/726/208 356/728/208
f 358/728/208 338/729/208 340/730/208
f 338/729/208 358/728/208 353/686/208
f 336/727/218 335/724/218 355/728/218
f 335/724/218 357/726/218 355/728/218
f 359/728/208 344/729/208 342/730/208
f 344/729/208 359/728/208 354/686/208
o RightArm
usemtl c_694028
f 361/731/219 362/732/219 363/733/220
f 361/731/219 363/733/220 364/734/220
f 364/734/220 363/733/220 365/735/221
f 364/734/220 365/735/221 366/736/221
f 367/737/222 368/738/222 369/739/222
f 368/738/222 370/740/222 369/739/222
f 362/741/223 371/742/223 372/743/223
f 371/742/223 362/741/223 361/744/223
f 372/743/224 373/745/224 374/746/224
f 373/745/224 372/743/224 371/742/224
f 375/747/158 376/748/158 377/749/158
f 376/748/158 378/750/158 377/749/158
f 375/747/158 377/749/158 379/751/158
f 376/748/158 380/752/158 378/750/158
f 362/753/173 381/754/173 363/755/173
f 381/754/173 365/756/173 363/755/173
f 381/754/173 362/753/173 372/757/173
f 374/758/173 381/754/173 372/757/173
f 365/756/173 381/754/173 382/759/173
f 381/754/173 374/758/173 380/760/173
f 380/760/173 382/759/173 381/754/173
f 382/759/173 380/760/173 383/761/173
f 375/762/173 368/763/173 376/764/173
f 368/763/173 375/762/173 384/765/173
f 385/766/173 368/763/173 384/765/173
f 368/763/173 385/766/173 370/767/173
f 383/761/173 376/764/173 368/763/173
f 376/764/173 383/761/173 380/760/173
f 384/768/225 386/769/225 385/770/225
f 386/769/225 387/771/225 385/770/225
f 375/772/226 379/773/226 386/769/226
f 375/772/226 386/769/226 384/768/226
f 374/774/227 373/775/227 378/776/227
f 374/774/227 378/776/227 380/777/227
f 369/778/196 370/779/196 387/780/196
f 387/780/196 370/779/196 385/781/196
f 383/782/198 388/783/198 389/784/198
f 389/784/198 382/785/198 383/782/198
f 389/784/198 365/786/198 382/785/198
f 365/786/198 389/784/198 366/787/198
f 367/788/228 388/783/198 383/782/198
f 367/788/228 383/782/198 368/789/228
f 371/790/208 390/791/208 373/792/208
f 361/793/208 390/791/208 371/790/208
f 390/791/208 361/793/208 364/794/208
f 364/794/208 366/795/208 390/791/208
f 390/791/208 378/796/208 373/792/208
f 366/795/208 389/797/208 390/791/208
f 390/791/208 389/797/208 378/796/208
f 378/796/208 389/797/208 388/798/208
f 379/799/208 377/800/208 367/801/208
f 367/801/208 386/802/208 379/799/208
f 386/802/208 367/801/208 387/803/208
f 367/801/208 369/804/208 387/803/208
f 377/800/208 388/798/208 367/801/208
f 377/800/208 378/796/208 388/798/208
o Tail
usemtl c_694028
f 391/805/229 392/806/229 393/807/229
f 393/807/229 392/806/229 394/808/229
f 393/807/229 394/808/229 395/809/229
f 396/810/229 393/807/229 395/809/229
f 397/811/230 398/812/230 399/813/230
f 397/811/230 398/812/230 399/813/230
f 398/812/230 397/811/230 393/814/230
f 398/812/230 397/811/230 393/814/230
f 396/815/230 398/812/230 393/814/230
f 396/815/230 398/812/230 393/814/230
f 398/812/230 396/815/230 400/816/230
f 398/812/230 396/815/230 400/816/230
f 401/817/159 402/818/231 403/819/231
f 401/817/159 402/818/231 403/819/231
f 402/818/231 401/817/159 404/820/232
f 402/818/231 401/817/159 404/820/232
f 399/813/233 404/820/232 401/817/159
f 399/813/233 404/820/232 401/817/159
f 404/820/232 399/813/233 398/812/233
f 404/820/232 399/813/233 398/812/233
f 402/818/231 405/821/159 406/822/231
f 402/818/231 405/821/159 406/822/231
f 402/818/231 404/820/232 405/821/159
f 402/818/231 404/820/232 405/821/159
f 404/820/232 400/816/233 405/821/159
f 404/820/232 400/816/233 405/821/159
f 400/816/233 404/820/232 398/812/233
f 400/816/233 404/820/232 398/812/233
f 407/823/234 408/824/173 409/825/235
f 407/823/234 408/824/173 409/825/235
f 409/825/235 399/826/236 407/823/234
f 409/825/235 399/826/236 407/823/234
f 399/826/236 409/825/235 397/827/236
f 399/826/236 409/825/235 397/827/236
f 407/823/234 399/826/236 401/828/237
f 407/823/234 399/826/236 401/828/237
f 401/828/237 408/824/173 407/823/234
f 401/828/237 408/824/173 407/823/234
f 403/829/173 408/824/173 401/828/237
f 403/829/173 408/824/173 401/828/237
f 408/824/173 403/829/173 410/830/173
f 408/824/173 403/829/173 410/830/173
f 411/831/173 408/824/173 410/830/173
f 408/824/173 411/831/173 412/832/173
f 413/833/238 408/824/173 412/832/173
f 408/824/173 413/833/238 409/825/238
f 392/834/239 409/825/238 413/833/238
f 409/825/238 392/834/239 391/827/239
f 402/835/240 414/836/241 403/837/240
f 402/835/240 414/836/241 403/837/240
f 403/837/240 414/836/241 410/838/241
f 403/837/240 414/836/241 410/838/241
f 410/838/241 414/836/241 415/839/242
f 410/838/241 414/836/241 415/839/242
f 410/838/241 415/839/242 411/840/242
f 410/838/241 415/839/242 411/840/242
f 406/841/240 414/836/241 402/835/240
f 406/841/240 414/836/241 402/835/240
f 414/836/241 406/841/240 416/842/241
f 414/836/241 406/841/240 416/842/241
f 414/836/241 416/842/241 415/839/242
f 414/836/241 416/842/241 415/839/242
f 417/843/242 415/839/242 416/842/241
f 417/843/242 415/839/242 416/842/241
f 412/844/243 415/845/204 418/846/243
f 415/845/204 412/844/243 411/847/204
f 415/845/204 419/848/243 418/846/243
f 419/848/243 415/845/204 417/849/204
f 418/846/243 420/850/244 412/844/243
f 419/848/243 420/850/244 418/846/243
f 413/851/244 412/844/243 420/850/244
f 419/848/243 421/852/244 420/850/244
f 420/850/244 392/853/245 413/851/244
f 395/854/245 420/850/244 421/852/244
f 392/853/245 420/850/244 394/855/245
f 420/850/244 395/854/245 394/855/245
f 405/856/246 422/857/208 406/858/208
f 405/856/246 422/857/208 406/858/208
f 406/858/208 422/857/208 416/859/208
f 406/858/208 422/857/208 416/859/208
f 423/860/247 422/857/208 405/856/246
f 423/860/247 422/857/208 405/856/246
f 422/857/208 423/860/247 424/861/248
f 422/857/208 423/860/247 424/861/248
f 405/856/246 400/862/249 423/860/247
f 405/856/246 400/862/249 423/860/247
f 400/862/249 424/861/248 423/860/247
f 400/862/249 424/861/248 423/860/247
f 424/861/248 400/862/249 396/863/249
f 424/861/248 400/862/249 396/863/249
f 419/864/208 417/865/208 422/857/208
f 416/859/208 422/857/208 417/865/208
f 422/857/208 421/866/250 419/864/208
f 421/866/250 422/857/208 424/861/250
f 424/861/250 395/867/251 421/866/250
f 395/867/251 424/861/250 396/863/251
o LeftLeg
usemtl c_694028
f 425/868/252 426/869/252 427/870/252
f 427/870/252 426/869/252 428/871/252
f 429/872/253 430/873/253 431/874/253
f 430/873/253 429/872/253 432/875/253
f 430/873/254 432/875/254 433/876/254
f 430/873/254 433/876/254 434/877/254
f 435/878/150 436/879/150 437/880/150
f 436/879/150 435/878/150 438/881/150
f 434/877/255 433/876/255 435/878/255
f 434/877/255 435/878/255 437/880/255
f 425/882/256 439/883/256 440/884/256
f 439/883/256 425/882/256 427/885/256
f 431/886/257 441/887/257 429/888/257
f 441/887/257 431/886/257 442/889/257
f 443/890/173 425/891/173 440/892/173
f 425/891/173 443/890/173 426/893/173
f 441/894/173 432/895/173 429/896/173
f 444/897/173 432/895/173 441/894/173
f 432/895/173 444/897/173 433/898/173
f 433/898/173 444/897/173 445/899/173
f 445/899/173 435/900/173 433/898/173
f 445/899/173 438/901/173 435/900/173
f 438/901/173 445/899/173 446/902/173
f 439/903/258 443/904/258 440/905/258
f 443/904/258 439/903/258 447/906/258
f 448/907/259 444/908/259 449/909/259
f 444/908/259 448/907/259 445/910/259
f 449/909/260 441/911/260 442/912/260
f 441/911/260 449/909/260 444/908/260
f 448/907/184 450/913/184 445/910/184
f 445/910/184 450/913/184 446/914/184
f 436/915/198 446/916/198 450/917/198
f 446/916/198 436/915/198 438/918/198
f 426/919/261 447/920/261 428/921/261
f 447/920/261 426/919/261 443/922/261
f 427/923/208 447/924/208 439/925/208
f 447/924/208 427/923/208 428/926/208
f 437/927/208 436/928/208 448/929/208
f 448/929/208 436/928/208 450/930/208
f 448/929/208 434/931/208 437/927/208
f 449/932/208 434/931/208 448/929/208
f 449/932/208 430/933/208 434/931/208
f 430/933/208 449/932/208 442/934/208
f 430/933/208 442/934/208 431/935/208
o RightLeg
usemtl c_694028
f 451/936/262 452/937/262 453/938/262
f 452/937/262 451/936/262 454/939/262
f 455/940/253 456/941/253 457/942/253
f 456/941/253 455/940/253 458/943/253
f 456/941/254 459/944/254 457/942/254
f 459/944/254 456/941/254 460/945/254
f 461/946/150 462/947/150 463/948/150
f 462/947/150 461/946/150 464/949/150
f 460/945/255 461/946/255 459/944/255
f 461/946/255 460/945/255 464/949/255
f 465/950/256 451/951/256 453/952/256
f 465/950/256 453/952/256 466/953/256
f 458/954/257 467/955/257 468/956/257
f 467/955/257 458/954/257 455/957/257
f 451/958/173 469/959/173 454/960/173
f 469/959/173 451/958/173 465/961/173
f 468/962/173 456/963/173 458/964/173
f 470/965/173 456/963/173 468/962/173
f 456/963/173 470/965/173 460/966/173
f 460/966/173 470/965/173 471/967/173
f 471/967/173 464/968/173 460/966/173
f 471/967/173 462/969/173 464/968/173
f 462/969/173 471/967/173 472/970/173
f 465/971/263 473/972/263 469/973/263
f 473/972/263 465/971/263 466/974/263
f 470/975/259 474/976/259 471/977/259
f 474/976/259 475/978/259 471/977/259
f 470/975/260 468/979/260 467/980/260
f 467/980/260 474/976/260 470/975/260
f 471/977/184 475/978/184 472/981/184
f 475/978/184 476/982/184 472/981/184
f 463/983/198 462/984/198 476/985/198
f 476/985/198 462/984/198 472/986/198
f 452/987/261 469/988/261 473/989/261
f 469/988/261 452/987/261 454/990/261
f 473/991/208 453/992/208 452/993/208
f 453/992/208 473/991/208 466/994/208
f 461/995/208 463/996/208 475/997/208
f 475/997/208 463/996/208 476/998/208
f 475/997/208 459/999/208 461/995/208
f 474/1000/208 459/999/208 475/997/208
f 474/1000/208 457/1001/208 459/999/208
f 457/1001/208 474/1000/208 467/1002/208
f 457/1001/208 467/1002/208 455/1003/208
o Neck
usemtl c_694028
f 477/1004/264 478/1005/264 479/1006/264
f 478/1005/264 477/1004/264 480/1007/264
f 481/1008/265 479/1006/265 482/1009/265
f 479/1006/265 481/1008/265 477/1004/265
f 481/1010/266 483/1011/266 484/1012/266
f 483/1011/266 481/1010/266 482/1013/266
f 484/1014/173 477/1015/173 481/1016/173
f 477/1015/173 484/1014/173 485/1017/173
f 485/1017/173 480/1018/173 477/1015/173
f 480/1018/173 485/1017/173 486/1019/173
f 483/1020/267 485/1021/267 484/1022/267
f 485/1021/267 483/1020/267 487/1023/267
f 487/1023/268 486/1024/268 485/1021/268
f 486/1024/268 487/1023/268 488/1025/268
f 478/1011/269 486/1010/269 488/1013/269
f 486/1010/269 478/1011/269 480/1012/269
f 479/1026/208 483/1027/208 482/1028/208
f 483/1027/208 479/1026/208 487/1029/208
f 478/1030/208 487/1029/208 479/1026/208
f 487/1029/208 478/1030/208 488/1031/208
o Neck2
usemtl c_694028
f 489/1032/270 490/1033/270 491/1034/270
f 490/1033/270 489/1032/270 492/1035/270
f 493/1036/271 491/1034/271 494/1037/271
f 491/1034/271 493/1036/271 489/1032/271
f 493/1038/272 495/1039/272 496/1040/272
f 495/1039/272 493/1038/272 494/1041/272
f 496/1040/273 495/1039/273 497/1042/273
f 497/1042/273 495/1039/273 498/1043/273
f 493/1044/173 499/1045/173 489/1046/173
f 499/1045/173 493/1044/173 496/1047/173
f 497/1048/173 499/1045/173 496/1047/173
f 499/1045/173 497/1048/173 500/1049/173
f 500/1049/173 501/1050/173 499/1045/173
f 501/1050/173 500/1049/173 502/1051/173
f 492/1052/173 489/1046/173 499/1045/173
f 492/1052/173 499/1045/173 501/1050/173
f 498/1053/274 500/1054/274 497/1055/274
f 500/1054/274 498/1053/274 503/1056/274
f 503/1056/275 502/1057/275 500/1054/275
f 502/1057/275 503/1056/275 504/1058/275
f 505/1059/276 502/1038/276 504/1041/276
f 502/1038/276 505/1059/276 501/1060/276
f 490/1043/277 501/1060/277 505/1059/277
f 501/1060/277 490/1043/277 492/1042/277
f 506/1061/208 498/1062/208 495/1063/208
f 498/1062/208 506/1061/208 503/1064/208
f 505/1065/208 503/1064/208 506/1061/208
f 503/1064/208 505/1065/208 504/1066/208
f 494/1067/208 491/1068/208 506/1061/208
f 494/1067/208 506/1061/208 495/1063/208
f 490/1069/208 506/1061/208 491/1068/208
f 506/1061/208 490/1069/208 505/1065/208
o Torso
usemtl c_694028
f 507/1070/150 508/1071/150 509/1072/150
f 508/1071/150 507/1070/150 510/1073/150
f 510/1073/150 511/1074/150 508/1071/150
f 511/1074/150 510/1073/150 512/1075/150
f 513/1076/150 514/1077/150 515/1078/150
f 514/1077/150 513/1076/150 516/1079/150
f 507/1080/171 509/1081/171 517/1082/171
f 517/1082/171 509/1081/171 518/1083/171
f 513/1084/171 515/1085/171 519/1086/171
f 519/1086/171 515/1085/171 520/1087/171
f 517/1088/173 510/1089/173 507/1090/173
f 510/1089/173 517/1088/173 521/1091/173
f 521/1091/173 512/1092/173 510/1089/173
f 512/1092/173 521/1091/173 522/1093/173
f 519/1094/173 516/1095/173 513/1096/173
f 516/1095/173 519/1094/173 523/1097/173
f 518/1070/184 521/1071/184 517/1072/184
f 521/1071/184 518/1070/184 524/1073/184
f 524/1073/184 522/1074/184 521/1071/184
f 522/1074/184 524/1073/184 525/1075/184
f 520/1076/184 523/1077/184 519/1078/184
f 523/1077/184 520/1076/184 526/1079/184
f 526/1085/198 514/1087/198 516/1086/198
f 526/1085/198 516/1086/198 523/1084/198
f 525/1081/198 511/1083/198 512/1082/198
f 525/1081/198 512/1082/198 522/1080/198
f 525/1081/198 511/1083/198 522/1080/198
f 511/1083/198 512/1082/198 522/1080/198
f 509/1088/208 524/1089/208 518/1090/208
f 524/1089/208 509/1088/208 508/1091/208
f 508/1091/208 525/1092/208 524/1089/208
f 525/1092/208 508/1091/208 511/1093/208
f 515/1094/208 526/1095/208 520/1096/208
f 526/1095/208 515/1094/208 514/1097/208
o LeftFoot
usemtl c_694028
f 527/1098/150 528/1099/150 529/1100/150
f 528/1099/150 530/1101/150 529/1100/150
f 528/1099/150 531/1102/150 530/1101/150
f 531/1102/150 532/1103/150 530/1101/150
f 533/1104/171 534/1105/171 535/1106/171
f 535/1106/171 534/1105/171 536/1107/171
f 537/1108/171 538/1109/171 539/1110/171
f 538/1109/171 540/1111/171 539/1110/171
f 533/1104/171 527/1112/171 540/1111/171
f 527/1112/171 533/1104/171 531/1113/171
f 541/1114/171 542/1115/171 543/1116/171
f 542/1115/171 541/1114/171 544/1117/171
f 545/1118/171 546/1119/171 547/1120/171
f 546/1119/171 545/1118/171 548/1121/171
f 531/1122/173 533/1123/173 532/1124/173
f 533/1123/173 549/1125/173 532/1124/173
f 533/1123/173 535/1126/173 549/1125/173
f 535/1126/173 550/1127/173 549/1125/173
f 541/1128/173 551/1127/173 544/1129/173
f 551/1127/173 541/1128/173 552/1130/173
f 537/1126/216 553/1127/216 538/1123/216
f 538/1123/216 553/1127/216 554/1125/216
f 547/1128/173 555/1127/173 545/1129/173
f 555/1127/173 547/1128/173 556/1130/173
f 543/1131/217 552/1132/217 541/1133/217
f 552/1132/217 543/1131/217 557/1134/217
f 546/1135/217 556/1136/217 547/1137/217
f 556/1136/217 546/1135/217 558/1138/217
f 537/1139/184 539/1102/184 553/1140/184
f 539/1102/184 559/1103/184 553/1140/184
f 536/1141/184 550/1100/184 535/1098/184
f 550/1100/184 536/1141/184 560/1142/184
f 538/1143/184 554/1144/184 534/1145/184
f 534/1145/184 554/1144/184 561/1146/184
f 562/1147/198 554/1148/198 559/1149/198
f 559/1149/198 554/1148/198 553/1150/198
f 560/1151/198 561/1152/198 550/1153/198
f 561/1152/198 549/1154/198 550/1153/198
f 529/1155/198 549/1154/198 562/1147/198
f 549/1154/198 529/1155/198 532/1156/198
f 557/1157/198 563/1158/198 552/1159/198
f 563/1158/198 551/1160/198 552/1159/198
f 558/1161/198 555/1162/198 556/1163/198
f 555/1162/198 558/1161/198 564/1164/198
f 539/1165/208 540/1166/208 559/1167/208
f 540/1166/208 562/1168/208 559/1167/208
f 540/1166/208 527/1169/208 562/1168/208
f 527/1169/208 529/1130/208 562/1168/208
f 548/1170/208 564/1167/208 546/1171/208
f 564/1167/208 558/1124/208 546/1171/208
f 534/1166/218 561/1168/218 536/1165/218
f 536/1165/218 561/1168/218 560/1167/218
f 542/1170/208 563/1167/208 543/1171/208
f 563/1167/208 557/1124/208 543/1171/208
o LeftArm
usemtl c_694028
f 565/1172/219 566/1173/220 567/1174/219
f 566/1173/220 565/1172/219 568/1175/220
f 568/1175/220 569/1176/221 566/1173/220
f 569/1176/221 568/1175/220 570/1177/221
f 571/1178/222 572/1179/222 573/1180/222
f 573/1180/222 572/1179/222 574/1181/222
f 565/1182/223 567/1183/223 575/1184/223
f 575/1184/223 567/1183/223 576/1185/223
f 575/1184/224 576/1185/224 577/1186/224
f 577/1186/224 576/1185/224 578/1187/224
f 579/1188/158 580/1189/158 581/1190/158
f 580/1189/158 582/1191/158 583/1192/158
f 582/1191/158 584/1193/158 583/1192/158
f 580/1189/158 583/1192/158 581/1190/158
f 577/1194/173 585/1195/173 575/1196/173
f 585/1195/173 565/1197/173 575/1196/173
f 565/1197/173 585/1195/173 568/1198/173
f 568/1198/173 585/1195/173 570/1199/173
f 585/1195/173 577/1194/173 582/1200/173
f 570/1199/173 585/1195/173 586/1201/173
f 582/1200/173 586/1201/173 585/1195/173
f 586/1201/173 582/1200/173 587/1202/173
f 580/1203/173 587/1202/173 582/1200/173
f 587/1202/173 580/1203/173 571/1204/173
f 579/1205/173 571/1204/173 580/1203/173
f 571/1204/173 579/1205/173 588/1206/173
f 571/1204/173 589/1207/173 572/1208/173
f 588/1206/173 589/1207/173 571/1204/173
f 590/1209/225 591/1210/225 588/1211/225
f 588/1211/225 591/1210/225 589/1212/225
f 581/1213/226 588/1211/226 579/1214/226
f 588/1211/226 581/1213/226 590/1209/226
f 578/1215/227 582/1216/227 577/1217/227
f 582/1216/227 578/1215/227 584/1218/227
f 589/1219/196 591/1220/196 574/1221/196
f 574/1221/196 572/1222/196 589/1219/196
f 592/1223/198 586/1224/198 593/1225/198
f 593/1225/198 586/1224/198 587/1226/198
f 569/1227/198 586/1224/198 592/1223/198
f 586/1224/198 569/1227/198 570/1228/198
f 573/1229/228 593/1225/198 571/1230/228
f 593/1225/198 587/1226/198 571/1230/228
f 567/1231/208 566/1232/208 594/1233/208
f 569/1234/208 594/1233/208 566/1232/208
f 567/1231/208 594/1233/208 576/1235/208
f 594/1233/208 578/1236/208 576/1235/208
f 594/1233/208 569/1234/208 592/1237/208
f 578/1236/208 594/1233/208 584/1238/208
f 592/1237/208 584/1238/208 594/1233/208
f 584/1238/208 592/1237/208 593/1239/208
f 593/1239/208 583/1240/208 584/1238/208
f 583/1240/208 593/1239/208 573/1241/208
f 573/1241/208 581/1242/208 583/1240/208
f 581/1242/208 573/1241/208 590/1243/208
f 573/1241/208 591/1244/208 590/1243/208
f 591/1244/208 573/1241/208 574/1245/208
o BaseTail
usemtl c_694028
f 595/1246/150 596/1247/150 597/1248/150
f 596/1247/150 595/1246/150 598/1249/150
f 598/1249/150 599/1250/150 596/1247/150
f 599/1250/150 598/1249/150 600/1251/150
f 597/1252/171 601/1253/171 595/1254/171
f 601/1253/171 597/1252/171 602/1255/171
f 601/1256/173 598/1257/173 595/1258/173
f 598/1257/173 601/1256/173 603/1259/173
f 603/1259/173 600/1260/173 598/1257/173
f 600/1260/173 603/1259/173 604/1261/173
f 602/1246/184 603/1247/184 601/1248/184
f 603/1247/184 602/1246/184 605/1249/184
f 605/1249/184 604/1250/184 603/1247/184
f 604/1250/184 605/1249/184 606/1251/184
f 599/1255/198 600/1253/198 606/1252/198
f 606/1252/198 600/1253/198 604/1254/198
f 597/1256/208 605/1257/208 602/1258/208
f 605/1257/208 597/1256/208 596/1259/208
f 596/1259/208 606/1260/208 605/1257/208
f 606/1260/208 596/1259/208 599/1261/208
