# Roblox asset pack: long (creatures), from the Studio model "Long". Exported with Export Selection, split by tools/build_creatures.py: one object per rigid body. Units: studs. +Y up, front faces -Z, pivot (bottom centre) at the origin.
mtllib long.mtl

v 3.00000 21.75000 -4.88000
v 3.00000 21.75000 -1.88000
v 3.00000 15.75000 -4.88000
v 3.00000 15.75000 -1.88000
v -3.00000 21.75000 -1.88000
v -3.00000 21.75000 -4.88000
v -3.00000 15.75000 -1.88000
v -3.00000 15.75000 -4.88000
v -3.00000 20.25000 -7.88000
v -3.00000 20.25000 -1.88000
v -3.00000 15.75000 -7.88000
v -4.50000 20.25000 -1.88000
v -4.50000 20.25000 -7.88000
v -4.50000 15.75000 -1.88000
v -4.50000 15.75000 -7.88000
v 4.50000 20.25000 -7.62000
v 4.50000 20.25000 -1.62000
v 4.50000 15.75000 -7.62000
v 4.50000 15.75000 -1.62000
v 3.00000 20.25000 -1.62000
v 3.00000 20.25000 -7.62000
v 3.00000 15.75000 -1.62000
v 3.00000 15.75000 -7.62000
v 1.50000 23.25000 -3.38000
v 1.50000 23.25000 -0.38000
v 1.50000 20.25000 -3.38000
v 1.50000 20.25000 -0.38000
v -1.50000 23.25000 -0.38000
v -1.50000 23.25000 -3.38000
v -1.50000 20.25000 -0.38000
v -1.50000 20.25000 -3.38000
v 3.00000 21.75000 -7.88000
v 3.00000 15.75000 -7.88000
v -3.00000 21.75000 -7.88000
v 8.25000 16.50000 -10.88000
v 8.25000 16.50000 -9.38000
v 8.25000 15.00000 -10.88000
v 8.25000 15.00000 -9.38000
v 6.75000 16.50000 -9.38000
v 6.75000 16.50000 -10.88000
v 6.75000 15.00000 -9.38000
v 6.75000 15.00000 -10.88000
v 5.25000 16.50000 -10.88000
v 5.25000 16.50000 -9.38000
v 5.25000 15.00000 -10.88000
v 5.25000 15.00000 -9.38000
v 3.75000 16.50000 -9.38000
v 3.75000 16.50000 -10.88000
v 3.75000 15.00000 -9.38000
v 3.75000 15.00000 -10.88000
v 7.50000 20.25000 -6.38000
v 7.50000 20.25000 -3.38000
v 7.50000 17.25000 -6.38000
v 7.50000 17.25000 -3.38000
v 4.50000 20.25000 -3.38000
v 4.50000 20.25000 -6.38000
v 4.50000 17.25000 -3.38000
v 4.50000 17.25000 -6.38000
v 6.75000 18.00000 -7.88000
v 6.75000 18.00000 -6.38000
v 6.75000 16.50000 -7.88000
v 6.75000 16.50000 -6.38000
v 5.25000 18.00000 -6.38000
v 5.25000 18.00000 -7.88000
v 5.25000 16.50000 -6.38000
v 5.25000 16.50000 -7.88000
v 7.50000 17.25000 -9.38000
v 7.50000 17.25000 -7.88000
v 7.50000 15.75000 -9.38000
v 7.50000 15.75000 -7.88000
v 4.50000 17.25000 -7.88000
v 4.50000 17.25000 -9.38000
v 4.50000 15.75000 -7.88000
v 4.50000 15.75000 -9.38000
v -6.75000 16.50000 -10.88000
v -6.75000 16.50000 -9.38000
v -6.75000 15.00000 -10.88000
v -6.75000 15.00000 -9.38000
v -8.25000 16.50000 -9.38000
v -8.25000 16.50000 -10.88000
v -8.25000 15.00000 -9.38000
v -8.25000 15.00000 -10.88000
v -3.75000 16.50000 -10.88000
v -3.75000 16.50000 -9.38000
v -3.75000 15.00000 -10.88000
v -3.75000 15.00000 -9.38000
v -5.25000 16.50000 -9.38000
v -5.25000 16.50000 -10.88000
v -5.25000 15.00000 -9.38000
v -5.25000 15.00000 -10.88000
v -5.25000 18.00000 -7.88000
v -5.25000 18.00000 -6.38000
v -5.25000 16.50000 -7.88000
v -5.25000 16.50000 -6.38000
v -6.75000 18.00000 -6.38000
v -6.75000 18.00000 -7.88000
v -6.75000 16.50000 -6.38000
v -6.75000 16.50000 -7.88000
v -4.50000 20.25000 -6.38000
v -4.50000 20.25000 -3.38000
v -4.50000 17.25000 -6.38000
v -4.50000 17.25000 -3.38000
v -7.50000 20.25000 -3.38000
v -7.50000 20.25000 -6.38000
v -7.50000 17.25000 -3.38000
v -7.50000 17.25000 -6.38000
v -4.50000 17.25000 -9.38000
v -4.50000 17.25000 -7.88000
v -4.50000 15.75000 -9.38000
v -7.50000 17.25000 -7.88000
v -7.50000 17.25000 -9.38000
v -7.50000 15.75000 -7.88000
v -7.50000 15.75000 -9.38000
v 3.75000 23.25000 -16.12000
v 3.75000 23.25000 -14.62000
v 3.75000 21.75000 -16.12000
v 3.75000 21.75000 -14.62000
v 2.25000 23.25000 -14.62000
v 2.25000 23.25000 -16.12000
v 2.25000 21.75000 -14.62000
v 2.25000 21.75000 -16.12000
v -2.25000 23.25000 -16.12000
v -2.25000 23.25000 -14.62000
v -2.25000 21.75000 -16.12000
v -2.25000 21.75000 -14.62000
v -3.75000 23.25000 -14.62000
v -3.75000 23.25000 -16.12000
v -3.75000 21.75000 -14.62000
v -3.75000 21.75000 -16.12000
v 3.75000 23.25000 -19.12000
v 3.75000 23.25000 -17.62000
v 3.75000 21.75000 -19.12000
v 3.75000 21.75000 -17.62000
v 2.25000 23.25000 -17.62000
v 2.25000 23.25000 -19.12000
v 2.25000 21.75000 -17.62000
v 2.25000 21.75000 -19.12000
v -2.25000 23.25000 -19.12000
v -2.25000 23.25000 -17.62000
v -2.25000 21.75000 -19.12000
v -2.25000 21.75000 -17.62000
v -3.75000 23.25000 -17.62000
v -3.75000 23.25000 -19.12000
v -3.75000 21.75000 -17.62000
v -3.75000 21.75000 -19.12000
v 4.50000 29.25000 -14.62000
v 4.50000 29.25000 -11.62000
v 4.50000 26.25000 -14.62000
v 4.50000 26.25000 -11.62000
v -4.50000 29.25000 -11.62000
v -4.50000 29.25000 -14.62000
v -4.50000 26.25000 -11.62000
v -4.50000 26.25000 -14.62000
v 3.75000 27.75000 -19.12000
v 3.75000 27.75000 -16.12000
v 3.75000 26.25000 -19.12000
v 3.75000 26.25000 -16.12000
v -3.75000 27.75000 -16.12000
v -3.75000 27.75000 -19.12000
v -3.75000 26.25000 -16.12000
v -3.75000 26.25000 -19.12000
v 2.25000 27.75000 -20.62000
v 2.25000 27.75000 -19.12000
v 2.25000 26.25000 -20.62000
v 2.25000 26.25000 -19.12000
v -2.25000 27.75000 -19.12000
v -2.25000 27.75000 -20.62000
v -2.25000 26.25000 -19.12000
v -2.25000 26.25000 -20.62000
v 3.75000 26.25000 -20.62000
v 3.75000 26.25000 -13.12000
v 3.75000 24.75000 -20.62000
v 3.75000 24.75000 -13.12000
v -3.75000 26.25000 -13.12000
v -3.75000 26.25000 -20.62000
v -3.75000 24.75000 -13.12000
v -3.75000 24.75000 -20.62000
v -2.25000 32.25000 -11.62000
v -2.25000 32.25000 -8.62000
v -2.25000 30.75000 -11.62000
v -2.25000 30.75000 -8.62000
v -5.25000 32.25000 -8.62000
v -5.25000 32.25000 -11.62000
v -5.25000 30.75000 -8.62000
v -5.25000 30.75000 -11.62000
v 5.25000 32.25000 -11.62000
v 5.25000 32.25000 -8.62000
v 5.25000 30.75000 -11.62000
v 5.25000 30.75000 -8.62000
v 2.25000 32.25000 -8.62000
v 2.25000 32.25000 -11.62000
v 2.25000 30.75000 -8.62000
v 2.25000 30.75000 -11.62000
v -3.00000 32.25000 -14.62000
v -3.00000 32.25000 -13.12000
v -3.00000 30.75000 -14.62000
v -3.00000 30.75000 -13.12000
v -4.50000 32.25000 -13.12000
v -4.50000 32.25000 -14.62000
v -4.50000 30.75000 -13.12000
v -4.50000 30.75000 -14.62000
v -3.75000 30.75000 -15.88000
v -3.75000 30.75000 -9.88000
v -3.75000 29.25000 -15.88000
v -3.75000 29.25000 -9.88000
v -5.25000 30.75000 -9.88000
v -5.25000 30.75000 -15.88000
v -5.25000 29.25000 -9.88000
v -5.25000 29.25000 -15.88000
v 4.50000 32.25000 -14.62000
v 4.50000 32.25000 -13.12000
v 4.50000 30.75000 -14.62000
v 4.50000 30.75000 -13.12000
v 3.00000 32.25000 -13.12000
v 3.00000 32.25000 -14.62000
v 3.00000 30.75000 -13.12000
v 3.00000 30.75000 -14.62000
v 5.25000 30.75000 -16.12000
v 5.25000 30.75000 -10.12000
v 5.25000 29.25000 -16.12000
v 5.25000 29.25000 -10.12000
v 3.75000 30.75000 -10.12000
v 3.75000 30.75000 -16.12000
v 3.75000 29.25000 -10.12000
v 3.75000 29.25000 -16.12000
v -3.75000 30.75000 -10.12000
v -3.75000 30.75000 -16.12000
v -3.75000 29.25000 -10.12000
v -3.75000 29.25000 -16.12000
v 3.00000 29.25000 -11.62000
v 3.00000 29.25000 -7.12000
v 3.00000 26.25000 -11.62000
v 3.00000 26.25000 -7.12000
v -3.00000 29.25000 -7.12000
v -3.00000 29.25000 -11.62000
v -3.00000 26.25000 -7.12000
v -3.00000 26.25000 -11.62000
v 3.00000 29.25000 -16.12000
v 3.00000 29.25000 -14.62000
v 3.00000 26.25000 -16.12000
v 3.00000 26.25000 -14.62000
v -3.00000 29.25000 -14.62000
v -3.00000 29.25000 -16.12000
v -3.00000 26.25000 -14.62000
v -3.00000 26.25000 -16.12000
v 4.50000 26.25000 -13.12000
v 4.50000 26.25000 -4.12000
v 4.50000 20.25000 -13.12000
v 4.50000 20.25000 -4.12000
v -4.50000 26.25000 -4.12000
v -4.50000 26.25000 -13.12000
v -4.50000 20.25000 -4.12000
v -4.50000 20.25000 -13.12000
v -3.00000 32.25000 -7.12000
v -3.00000 32.25000 -5.62000
v -3.00000 29.25000 -5.62000
v -6.00000 32.25000 -5.62000
v -6.00000 32.25000 -7.12000
v -6.00000 29.25000 -5.62000
v -6.00000 29.25000 -7.12000
v 1.50000 27.00000 -6.38000
v 1.50000 27.00000 -3.38000
v 1.50000 24.00000 -6.38000
v 1.50000 24.00000 -3.38000
v -1.50000 27.00000 -3.38000
v -1.50000 27.00000 -6.38000
v -1.50000 24.00000 -3.38000
v -1.50000 24.00000 -6.38000
v 0.75000 32.25000 -13.88000
v 0.75000 32.25000 -12.38000
v 0.75000 30.75000 -13.88000
v 0.75000 30.75000 -12.38000
v -0.75000 32.25000 -12.38000
v -0.75000 32.25000 -13.88000
v -0.75000 30.75000 -12.38000
v -0.75000 30.75000 -13.88000
v 3.75000 23.25000 -20.62000
v 3.75000 23.25000 -13.12000
v -3.75000 23.25000 -13.12000
v -3.75000 23.25000 -20.62000
v -3.00000 30.75000 -10.12000
v -3.00000 30.75000 -7.12000
v -3.00000 27.75000 -10.12000
v -3.00000 27.75000 -7.12000
v -6.00000 30.75000 -7.12000
v -6.00000 30.75000 -10.12000
v -6.00000 27.75000 -7.12000
v -6.00000 27.75000 -10.12000
v 5.25000 33.75000 -5.62000
v 5.25000 33.75000 -4.12000
v 5.25000 30.75000 -5.62000
v 5.25000 30.75000 -4.12000
v 3.75000 33.75000 -4.12000
v 3.75000 33.75000 -5.62000
v 3.75000 30.75000 -4.12000
v 3.75000 30.75000 -5.62000
v 6.00000 32.25000 -7.12000
v 6.00000 32.25000 -5.62000
v 6.00000 29.25000 -7.12000
v 6.00000 29.25000 -5.62000
v 3.00000 32.25000 -5.62000
v 3.00000 32.25000 -7.12000
v 3.00000 29.25000 -5.62000
v 6.00000 30.75000 -10.12000
v 6.00000 30.75000 -7.12000
v 6.00000 27.75000 -10.12000
v 6.00000 27.75000 -7.12000
v 3.00000 30.75000 -7.12000
v 3.00000 30.75000 -10.12000
v 3.00000 27.75000 -7.12000
v 3.00000 27.75000 -10.12000
v 1.50000 30.75000 -8.62000
v 1.50000 30.75000 -5.62000
v 1.50000 27.75000 -8.62000
v 1.50000 27.75000 -5.62000
v -1.50000 30.75000 -5.62000
v -1.50000 30.75000 -8.62000
v -1.50000 27.75000 -5.62000
v -1.50000 27.75000 -8.62000
v 0.75000 29.25000 -19.12000
v 0.75000 29.25000 -17.62000
v 0.75000 27.75000 -19.12000
v 0.75000 27.75000 -17.62000
v -0.75000 29.25000 -17.62000
v -0.75000 29.25000 -19.12000
v -0.75000 27.75000 -17.62000
v -0.75000 27.75000 -19.12000
v -3.75000 33.75000 -5.62000
v -3.75000 33.75000 -4.12000
v -3.75000 30.75000 -5.62000
v -3.75000 30.75000 -4.12000
v -5.25000 33.75000 -4.12000
v -5.25000 33.75000 -5.62000
v -5.25000 30.75000 -4.12000
v -5.25000 30.75000 -5.62000
v 3.75000 27.75000 -20.62000
v -3.75000 27.75000 -20.62000
v -4.50500 29.25000 -11.62000
v -4.50500 29.25000 -14.62000
v -4.50500 26.25000 -11.62000
v -4.50500 26.25000 -14.62000
v 4.50500 29.25000 -14.62000
v 4.50500 29.25000 -11.62000
v 4.50500 26.25000 -14.62000
v 4.50500 26.25000 -11.62000
v -7.50000 7.50000 -4.88000
v -7.50000 7.50000 1.12000
v -7.50000 4.50000 -4.88000
v -7.50000 4.50000 1.12000
v -10.50000 7.50000 1.12000
v -10.50000 7.50000 -4.88000
v -10.50000 4.50000 1.12000
v -10.50000 4.50000 -4.88000
v 3.00000 23.25000 -14.62000
v 3.00000 23.25000 -13.12000
v 3.00000 21.75000 -14.62000
v 3.00000 21.75000 -13.12000
v 1.50000 23.25000 -13.12000
v 1.50000 23.25000 -14.62000
v 1.50000 21.75000 -13.12000
v 1.50000 21.75000 -14.62000
v -1.50000 23.25000 -17.62000
v -1.50000 23.25000 -16.12000
v -1.50000 21.75000 -17.62000
v -1.50000 21.75000 -16.12000
v -3.00000 23.25000 -16.12000
v -3.00000 23.25000 -17.62000
v -3.00000 21.75000 -16.12000
v -3.00000 21.75000 -17.62000
v 3.00000 23.25000 -17.62000
v 3.00000 23.25000 -16.12000
v 3.00000 21.75000 -17.62000
v 3.00000 21.75000 -16.12000
v 1.50000 23.25000 -16.12000
v 1.50000 23.25000 -17.62000
v 1.50000 21.75000 -16.12000
v 1.50000 21.75000 -17.62000
v -1.50000 23.25000 -14.62000
v -1.50000 23.25000 -13.12000
v -1.50000 21.75000 -14.62000
v -1.50000 21.75000 -13.12000
v -3.00000 23.25000 -13.12000
v -3.00000 23.25000 -14.62000
v -3.00000 21.75000 -13.12000
v -3.00000 21.75000 -14.62000
v 3.00000 21.75000 -20.62000
v 3.00000 20.25000 -20.62000
v 3.00000 20.25000 -13.12000
v -3.00000 21.75000 -20.62000
v -3.00000 20.25000 -13.12000
v -3.00000 20.25000 -20.62000
v -6.00000 15.00000 -4.88000
v -6.00000 15.00000 2.62000
v -6.00000 7.50000 -4.88000
v -6.00000 7.50000 2.62000
v -12.00000 15.00000 2.62000
v -12.00000 15.00000 -4.88000
v -12.00000 7.50000 2.62000
v -12.00000 7.50000 -4.88000
v -6.75000 10.50000 -7.88000
v -6.75000 10.50000 -4.88000
v -6.75000 6.00000 -7.88000
v -6.75000 6.00000 -4.88000
v -11.25000 10.50000 -4.88000
v -11.25000 10.50000 -7.88000
v -11.25000 6.00000 -4.88000
v -11.25000 6.00000 -7.88000
v -8.25000 11.25000 -10.88000
v -8.25000 11.25000 -9.38000
v -8.25000 8.25000 -10.88000
v -8.25000 8.25000 -9.38000
v -9.75000 11.25000 -9.38000
v -9.75000 11.25000 -10.88000
v -9.75000 8.25000 -9.38000
v -9.75000 8.25000 -10.88000
v -7.50000 9.75000 -9.38000
v -7.50000 9.75000 -7.88000
v -7.50000 6.75000 -9.38000
v -7.50000 6.75000 -7.88000
v -10.50000 9.75000 -7.88000
v -10.50000 9.75000 -9.38000
v -10.50000 6.75000 -7.88000
v -10.50000 6.75000 -9.38000
v 12.75000 1.50000 -6.38000
v 12.75000 1.50000 -4.88000
v 12.75000 0.00000 -6.38000
v 12.75000 0.00000 -4.88000
v 11.25000 1.50000 -4.88000
v 11.25000 1.50000 -6.38000
v 11.25000 0.00000 -4.88000
v 11.25000 0.00000 -6.38000
v 9.75000 1.50000 -6.38000
v 9.75000 1.50000 -4.88000
v 9.75000 0.00000 -6.38000
v 9.75000 0.00000 -4.88000
v 8.25000 1.50000 -4.88000
v 8.25000 1.50000 -6.38000
v 8.25000 0.00000 -4.88000
v 8.25000 0.00000 -6.38000
v 6.75000 1.50000 -6.38000
v 6.75000 1.50000 -4.88000
v 6.75000 0.00000 -6.38000
v 6.75000 0.00000 -4.88000
v 5.25000 1.50000 -4.88000
v 5.25000 1.50000 -6.38000
v 5.25000 0.00000 -4.88000
v 5.25000 0.00000 -6.38000
v 11.25000 3.00000 -1.88000
v 11.25000 3.00000 1.12000
v 11.25000 0.00000 -1.88000
v 11.25000 0.00000 1.12000
v 6.75000 3.00000 1.12000
v 6.75000 3.00000 -1.88000
v 6.75000 0.00000 1.12000
v 6.75000 0.00000 -1.88000
v 13.50000 3.00000 -4.88000
v 13.50000 3.00000 -1.88000
v 13.50000 0.00000 -4.88000
v 13.50000 0.00000 -1.88000
v 4.50000 3.00000 -1.88000
v 4.50000 3.00000 -4.88000
v 4.50000 0.00000 -1.88000
v 4.50000 0.00000 -4.88000
v 12.00000 5.25000 -0.38000
v 12.00000 5.25000 2.62000
v 12.00000 2.25000 -0.38000
v 12.00000 2.25000 2.62000
v 6.00000 5.25000 2.62000
v 6.00000 5.25000 -0.38000
v 6.00000 2.25000 2.62000
v 6.00000 2.25000 -0.38000
v 1.50000 16.50000 6.38000
v 1.50000 16.50000 9.38000
v 1.50000 13.50000 6.38000
v 1.50000 13.50000 9.38000
v -1.50000 16.50000 9.38000
v -1.50000 16.50000 6.38000
v -1.50000 13.50000 9.38000
v -1.50000 13.50000 6.38000
v 0.75000 14.25000 17.62000
v 0.75000 14.25000 20.62000
v 0.75000 11.25000 17.62000
v 0.75000 11.25000 20.62000
v -0.75000 14.25000 20.62000
v -0.75000 14.25000 17.62000
v -0.75000 11.25000 20.62000
v -0.75000 11.25000 17.62000
v 0.75000 9.75000 17.62000
v 0.75000 9.75000 20.62000
v 0.75000 6.75000 17.62000
v 0.75000 6.75000 20.62000
v -0.75000 9.75000 20.62000
v -0.75000 9.75000 17.62000
v -0.75000 6.75000 20.62000
v -0.75000 6.75000 17.62000
v 0.75000 14.25000 12.38000
v 0.75000 14.25000 13.88000
v 0.75000 12.75000 12.38000
v 0.75000 12.75000 13.88000
v -0.75000 14.25000 13.88000
v -0.75000 14.25000 12.38000
v -0.75000 12.75000 13.88000
v -0.75000 12.75000 12.38000
v 3.00000 13.50000 4.88000
v 3.00000 13.50000 10.88000
v 3.00000 7.50000 4.88000
v 3.00000 7.50000 10.88000
v -3.00000 13.50000 10.88000
v -3.00000 13.50000 4.88000
v -3.00000 7.50000 10.88000
v -3.00000 7.50000 4.88000
v 2.25000 12.75000 3.38000
v 2.25000 12.75000 4.88000
v 2.25000 8.25000 3.38000
v 2.25000 8.25000 4.88000
v -2.25000 12.75000 4.88000
v -2.25000 12.75000 3.38000
v -2.25000 8.25000 4.88000
v -2.25000 8.25000 3.38000
v 2.25000 12.75000 10.88000
v 2.25000 12.75000 15.38000
v 2.25000 8.25000 10.88000
v 2.25000 8.25000 15.38000
v -2.25000 12.75000 15.38000
v -2.25000 12.75000 10.88000
v -2.25000 8.25000 15.38000
v -2.25000 8.25000 10.88000
v 1.50000 12.00000 15.38000
v 1.50000 12.00000 18.38000
v 1.50000 9.00000 15.38000
v 1.50000 9.00000 18.38000
v -1.50000 12.00000 18.38000
v -1.50000 12.00000 15.38000
v -1.50000 9.00000 18.38000
v -1.50000 9.00000 15.38000
v -5.25000 1.50000 -6.38000
v -5.25000 1.50000 -4.88000
v -5.25000 0.00000 -6.38000
v -5.25000 0.00000 -4.88000
v -6.75000 1.50000 -4.88000
v -6.75000 1.50000 -6.38000
v -6.75000 0.00000 -4.88000
v -6.75000 0.00000 -6.38000
v -11.25000 1.50000 -6.38000
v -11.25000 1.50000 -4.88000
v -11.25000 0.00000 -6.38000
v -11.25000 0.00000 -4.88000
v -12.75000 1.50000 -4.88000
v -12.75000 1.50000 -6.38000
v -12.75000 0.00000 -4.88000
v -12.75000 0.00000 -6.38000
v -8.25000 1.50000 -6.38000
v -8.25000 1.50000 -4.88000
v -8.25000 0.00000 -6.38000
v -8.25000 0.00000 -4.88000
v -9.75000 1.50000 -4.88000
v -9.75000 1.50000 -6.38000
v -9.75000 0.00000 -4.88000
v -9.75000 0.00000 -6.38000
v -6.00000 5.25000 -0.38000
v -6.00000 5.25000 2.62000
v -6.00000 2.25000 -0.38000
v -6.00000 2.25000 2.62000
v -12.00000 5.25000 2.62000
v -12.00000 5.25000 -0.38000
v -12.00000 2.25000 2.62000
v -12.00000 2.25000 -0.38000
v -4.50000 3.00000 -4.88000
v -4.50000 3.00000 -1.88000
v -4.50000 0.00000 -4.88000
v -4.50000 0.00000 -1.88000
v -13.50000 3.00000 -1.88000
v -13.50000 3.00000 -4.88000
v -13.50000 0.00000 -1.88000
v -13.50000 0.00000 -4.88000
v -6.75000 3.00000 -1.88000
v -6.75000 3.00000 1.12000
v -6.75000 0.00000 -1.88000
v -6.75000 0.00000 1.12000
v -11.25000 3.00000 1.12000
v -11.25000 3.00000 -1.88000
v -11.25000 0.00000 1.12000
v -11.25000 0.00000 -1.88000
v 12.00000 15.00000 -4.88000
v 12.00000 15.00000 2.62000
v 12.00000 7.50000 -4.88000
v 12.00000 7.50000 2.62000
v 6.00000 15.00000 2.62000
v 6.00000 15.00000 -4.88000
v 6.00000 7.50000 2.62000
v 6.00000 7.50000 -4.88000
v 11.25000 10.50000 -7.88000
v 11.25000 10.50000 -4.88000
v 11.25000 6.00000 -7.88000
v 11.25000 6.00000 -4.88000
v 6.75000 10.50000 -4.88000
v 6.75000 10.50000 -7.88000
v 6.75000 6.00000 -4.88000
v 6.75000 6.00000 -7.88000
v 10.50000 9.75000 -9.38000
v 10.50000 9.75000 -7.88000
v 10.50000 6.75000 -9.38000
v 10.50000 6.75000 -7.88000
v 7.50000 9.75000 -7.88000
v 7.50000 9.75000 -9.38000
v 7.50000 6.75000 -7.88000
v 7.50000 6.75000 -9.38000
v 9.75000 11.25000 -10.88000
v 9.75000 11.25000 -9.38000
v 9.75000 8.25000 -10.88000
v 9.75000 8.25000 -9.38000
v 8.25000 11.25000 -9.38000
v 8.25000 11.25000 -10.88000
v 8.25000 8.25000 -9.38000
v 8.25000 8.25000 -10.88000
v 10.50000 7.50000 -4.88000
v 10.50000 7.50000 1.12000
v 10.50000 4.50000 -4.88000
v 10.50000 4.50000 1.12000
v 7.50000 7.50000 1.12000
v 7.50000 7.50000 -4.88000
v 7.50000 4.50000 1.12000
v 7.50000 4.50000 -4.88000
v 3.00000 17.25000 -2.62000
v 3.00000 17.25000 3.38000
v 3.00000 6.75000 -2.62000
v 3.00000 6.75000 3.38000
v -3.00000 17.25000 3.38000
v -3.00000 17.25000 -2.62000
v -3.00000 6.75000 3.38000
v -3.00000 6.75000 -2.62000
v 6.00000 15.75000 -5.62000
v 6.00000 15.75000 3.38000
v 6.00000 6.75000 -5.62000
v 6.00000 6.75000 3.38000
v 3.00000 15.75000 3.38000
v 3.00000 15.75000 -5.62000
v 3.00000 6.75000 -5.62000
v -3.00000 15.75000 -5.62000
v -3.00000 15.75000 3.38000
v -3.00000 6.75000 -5.62000
v -6.00000 15.75000 3.38000
v -6.00000 15.75000 -5.62000
v -6.00000 6.75000 3.38000
v -6.00000 6.75000 -5.62000
v 2.25000 18.75000 0.38000
v 2.25000 18.75000 4.88000
v 2.25000 14.25000 0.38000
v 2.25000 14.25000 4.88000
v -2.25000 18.75000 4.88000
v -2.25000 18.75000 0.38000
v -2.25000 14.25000 4.88000
v -2.25000 14.25000 0.38000
v 3.00000 17.25000 -5.62000
v -3.00000 17.25000 -5.62000
vt 6.87500 -1.25000
vt 6.50000 -1.25000
vt 6.87500 -2.00000
vt 6.50000 -2.00000
vt 7.25000 -1.25000
vt 7.25000 -1.62500
vt 6.50000 -1.62500
vt 7.25000 -2.00000
vt 6.50000 -4.25000
vt 5.75000 -4.25000
vt 6.50000 -4.81250
vt 5.75000 -4.81250
vt 5.93750 -4.25000
vt 5.93750 -5.00000
vt 5.75000 -5.00000
vt 5.93750 -4.81250
vt 5.25000 -1.00000
vt 4.50000 -1.00000
vt 5.25000 -1.56250
vt 4.50000 -1.56250
vt 4.68750 -1.00000
vt 4.68750 -1.75000
vt 4.50000 -1.75000
vt 4.68750 -1.56250
vt 3.12500 -6.00000
vt 2.75000 -6.00000
vt 3.12500 -6.37500
vt 2.75000 -6.37500
vt 3.87500 0.25000
vt 3.50000 0.25000
vt 3.87500 -0.50000
vt 3.50000 -0.50000
vt 4.25000 0.25000
vt 4.25000 -0.12500
vt 3.50000 -0.12500
vt 4.25000 -0.50000
vt 0.93750 -3.00000
vt 0.75000 -3.00000
vt 0.93750 -3.18750
vt 0.75000 -3.18750
vt 7.43750 0.25000
vt 7.25000 0.25000
vt 7.43750 0.06250
vt 7.25000 0.06250
vt 6.62500 -5.75000
vt 6.25000 -5.75000
vt 6.62500 -6.12500
vt 6.25000 -6.12500
vt 0.43750 -3.25000
vt 0.25000 -3.25000
vt 0.43750 -3.43750
vt 0.25000 -3.43750
vt 5.68750 -2.75000
vt 5.50000 -2.75000
vt 5.68750 -2.93750
vt 5.50000 -2.93750
vt 5.87500 -2.75000
vt 5.87500 -2.93750
vt 2.43750 -5.25000
vt 2.25000 -5.25000
vt 2.43750 -5.43750
vt 2.25000 -5.43750
vt 1.18750 -4.75000
vt 1.00000 -4.75000
vt 1.18750 -4.93750
vt 1.00000 -4.93750
vt 6.43750 -2.25000
vt 6.25000 -2.25000
vt 6.43750 -2.43750
vt 6.25000 -2.43750
vt 2.12500 -2.75000
vt 1.75000 -2.75000
vt 2.12500 -3.12500
vt 1.75000 -3.12500
vt 4.43750 -5.75000
vt 4.25000 -5.75000
vt 4.43750 -5.93750
vt 4.25000 -5.93750
vt 4.62500 -5.75000
vt 4.62500 -5.93750
vt 0.68750 -6.50000
vt 0.50000 -6.50000
vt 0.68750 -6.68750
vt 0.50000 -6.68750
vt 1.43750 -6.00000
vt 1.25000 -6.00000
vt 1.43750 -6.18750
vt 1.25000 -6.18750
vt 6.68750 -2.75000
vt 6.50000 -2.75000
vt 6.68750 -2.93750
vt 6.50000 -2.93750
vt 6.68750 -6.75000
vt 6.50000 -6.75000
vt 6.68750 -6.93750
vt 6.50000 -6.93750
vt 4.62500 0.75000
vt 4.25000 0.75000
vt 4.62500 0.37500
vt 4.25000 0.37500
vt 5.37500 0.75000
vt 5.37500 0.37500
vt 5.62500 -5.50000
vt 5.25000 -5.50000
vt 5.62500 -5.68750
vt 5.25000 -5.68750
vt 6.18750 -5.50000
vt 6.18750 -5.87500
vt 5.25000 -5.87500
vt 6.18750 -5.68750
vt 2.18750 -2.50000
vt 2.00000 -2.50000
vt 2.18750 -2.68750
vt 2.00000 -2.68750
vt 2.56250 -2.50000
vt 2.56250 -2.68750
vt 8.43750 -3.00000
vt 7.50000 -3.00000
vt 8.43750 -3.18750
vt 7.50000 -3.18750
vt 8.43750 -3.93750
vt 7.50000 -3.93750
vt 5.87500 -5.25000
vt 5.50000 -5.25000
vt 5.87500 -5.43750
vt 5.50000 -5.43750
vt 5.87500 -5.62500
vt 5.50000 -5.62500
vt 0.87500 -3.50000
vt 0.50000 -3.50000
vt 0.87500 -3.68750
vt 0.50000 -3.68750
vt 0.87500 -3.87500
vt 0.50000 -3.87500
vt 4.43750 0.00000
vt 4.25000 0.00000
vt 4.43750 -0.18750
vt 4.25000 -0.18750
vt 2.00000 -1.50000
vt 1.25000 -1.50000
vt 2.00000 -1.68750
vt 1.25000 -1.68750
vt 1.43750 -1.50000
vt 1.43750 -2.25000
vt 1.25000 -2.25000
vt 1.43750 -1.68750
vt 0.68750 -1.50000
vt 0.50000 -1.50000
vt 0.68750 -1.68750
vt 0.50000 -1.68750
vt 1.25000 -1.75000
vt 0.50000 -1.75000
vt 1.25000 -1.93750
vt 0.50000 -1.93750
vt 0.68750 -1.75000
vt 0.68750 -2.50000
vt 0.50000 -2.50000
vt 0.68750 -1.93750
vt 4.25000 -2.25000
vt 3.50000 -2.25000
vt 4.25000 -2.43750
vt 3.50000 -2.43750
vt 4.43750 -2.25000
vt 4.43750 -3.00000
vt 3.50000 -3.00000
vt 4.43750 -2.43750
vt 1.06250 -1.00000
vt 0.50000 -1.00000
vt 1.06250 -1.37500
vt 0.50000 -1.37500
vt 1.25000 -1.00000
vt 1.25000 -1.56250
vt 0.50000 -1.56250
vt 1.25000 -1.37500
vt 3.68750 -3.25000
vt 3.50000 -3.25000
vt 3.68750 -3.62500
vt 3.50000 -3.62500
vt 4.25000 -3.25000
vt 4.25000 -3.43750
vt 3.50000 -3.43750
vt 4.25000 -3.62500
vt 3.12500 -6.50000
vt 2.00000 -6.50000
vt 3.12500 -7.25000
vt 2.00000 -7.25000
vt 3.12500 -7.62500
vt 2.00000 -7.62500
vt 4.68750 0.75000
vt 4.50000 0.75000
vt 4.68750 0.37500
vt 4.50000 0.37500
vt 4.87500 0.75000
vt 4.87500 0.56250
vt 4.50000 0.56250
vt 4.87500 0.37500
vt 5.12500 -3.75000
vt 4.75000 -3.75000
vt 5.12500 -4.12500
vt 4.75000 -4.12500
vt 3.93750 -6.25000
vt 3.75000 -6.25000
vt 3.93750 -6.43750
vt 3.75000 -6.43750
vt 6.43750 -0.75000
vt 5.50000 -0.75000
vt 6.43750 -0.93750
vt 5.50000 -0.93750
vt 6.43750 -1.68750
vt 5.50000 -1.68750
vt 2.87500 -2.00000
vt 2.50000 -2.00000
vt 2.87500 -2.37500
vt 2.50000 -2.37500
vt 0.68750 0.75000
vt 0.50000 0.75000
vt 0.68750 0.37500
vt 0.50000 0.37500
vt 0.68750 0.56250
vt 0.50000 0.56250
vt 0.68750 -2.00000
vt 0.50000 -2.00000
vt 0.68750 -2.37500
vt 0.50000 -2.37500
vt 0.87500 -2.00000
vt 0.87500 -2.18750
vt 0.50000 -2.18750
vt 0.87500 -2.37500
vt 4.12500 -6.50000
vt 3.75000 -6.50000
vt 4.12500 -6.87500
vt 3.75000 -6.87500
vt 1.12500 -6.50000
vt 0.75000 -6.50000
vt 1.12500 -6.87500
vt 0.75000 -6.87500
vt 1.93750 -2.00000
vt 1.75000 -2.00000
vt 1.93750 -2.18750
vt 1.75000 -2.18750
vt 6.93750 -1.75000
vt 6.75000 -1.75000
vt 6.93750 -2.12500
vt 6.75000 -2.12500
vt 6.93750 -1.93750
vt 6.75000 -1.93750
vt 5.43750 -2.00000
vt 5.25000 -2.00000
vt 5.43750 -2.18750
vt 5.25000 -2.18750
vt 7.93750 -0.25000
vt 7.75000 -0.25000
vt 7.93750 -0.43750
vt 7.75000 -0.43750
vt 1.00000 1.00000
vt 0.00000 1.00000
vt 1.00000 0.00000
vt 0.00000 0.00000
vt 1.50000 -4.75000
vt 0.75000 -4.75000
vt 1.50000 -5.12500
vt 0.75000 -5.12500
vt 1.12500 -4.75000
vt 1.12500 -5.50000
vt 0.75000 -5.50000
vt 1.12500 -5.12500
vt 3.18750 -4.75000
vt 3.00000 -4.75000
vt 3.18750 -4.93750
vt 3.00000 -4.93750
vt 1.93750 -0.25000
vt 1.75000 -0.25000
vt 1.93750 -0.43750
vt 1.75000 -0.43750
vt 7.68750 -2.25000
vt 7.50000 -2.25000
vt 7.68750 -2.43750
vt 7.50000 -2.43750
vt 3.68750 0.00000
vt 3.50000 0.00000
vt 3.68750 -0.18750
vt 3.50000 -0.18750
vt 1.18750 -1.75000
vt 0.25000 -1.75000
vt 1.18750 -1.93750
vt 0.25000 -1.93750
vt 1.00000 -1.75000
vt 1.00000 -2.68750
vt 0.25000 -2.68750
vt 1.00000 -1.93750
vt 5.43750 0.00000
vt 4.50000 0.00000
vt 5.43750 -0.93750
vt 4.50000 -0.93750
vt 5.25000 0.00000
vt 5.25000 -0.93750
vt 2.87500 -2.25000
vt 2.50000 -2.25000
vt 2.87500 -2.81250
vt 2.50000 -2.81250
vt 3.06250 -2.25000
vt 3.06250 -2.62500
vt 2.50000 -2.62500
vt 3.06250 -2.81250
vt 5.43750 -5.50000
vt 5.43750 -5.87500
vt 5.43750 -5.68750
vt 1.93750 -4.25000
vt 1.75000 -4.25000
vt 1.93750 -4.62500
vt 1.75000 -4.62500
vt 2.12500 -4.25000
vt 2.12500 -4.43750
vt 1.75000 -4.43750
vt 2.12500 -4.62500
vt 4.93750 -1.75000
vt 4.75000 -1.75000
vt 4.93750 -1.93750
vt 4.75000 -1.93750
vt 4.68750 -5.50000
vt 4.50000 -5.50000
vt 4.68750 -5.68750
vt 4.50000 -5.68750
vt 7.93750 -2.00000
vt 7.75000 -2.00000
vt 7.93750 -2.18750
vt 7.75000 -2.18750
vt 4.62500 -1.00000
vt 4.25000 -1.00000
vt 4.62500 -1.37500
vt 4.25000 -1.37500
vt 4.81250 -1.00000
vt 4.81250 -1.37500
vt 2.87500 1.00000
vt 2.50000 1.00000
vt 2.87500 0.62500
vt 2.50000 0.62500
vt 3.62500 1.00000
vt 3.62500 0.62500
vt 0.37500 -4.25000
vt 0.00000 -4.25000
vt 0.37500 -4.62500
vt 0.00000 -4.62500
vt 0.75000 -4.25000
vt 0.75000 -4.62500
vt 3.12500 -2.75000
vt 2.75000 -2.75000
vt 3.12500 -3.12500
vt 2.75000 -3.12500
vt 6.87500 -1.50000
vt 6.50000 -1.50000
vt 6.87500 -1.87500
vt 6.50000 -1.87500
vt 6.68750 -1.50000
vt 6.68750 -1.87500
vt 5.87500 1.00000
vt 5.50000 1.00000
vt 5.87500 0.62500
vt 5.50000 0.62500
vt 5.68750 1.00000
vt 5.68750 0.62500
vt 6.43750 -3.00000
vt 6.25000 -3.00000
vt 6.43750 -3.18750
vt 6.25000 -3.18750
vt 6.75000 -6.50000
vt 6.00000 -6.50000
vt 6.75000 -7.25000
vt 6.00000 -7.25000
vt 5.68750 -5.50000
vt 5.50000 -5.50000
vt 5.68750 -6.06250
vt 5.50000 -6.06250
vt 6.06250 -5.50000
vt 6.06250 -5.68750
vt 5.50000 -5.68750
vt 6.06250 -6.06250
vt 7.56250 -4.00000
vt 7.00000 -4.00000
vt 7.56250 -4.56250
vt 7.00000 -4.56250
vt 1.62500 -6.25000
vt 1.25000 -6.25000
vt 1.62500 -6.62500
vt 1.25000 -6.62500
vt 5.68750 -2.50000
vt 5.50000 -2.50000
vt 5.68750 -2.68750
vt 5.50000 -2.68750
vt 0.18750 -5.50000
vt 0.00000 -5.50000
vt 0.18750 -5.68750
vt 0.00000 -5.68750
vt 0.87500 -2.75000
vt 0.50000 -2.75000
vt 0.87500 -3.12500
vt 0.50000 -3.12500
vt 1.25000 -2.75000
vt 1.25000 -3.12500
vt 1.87500 -4.50000
vt 1.50000 -4.50000
vt 1.87500 -4.87500
vt 1.50000 -4.87500
vt 2.62500 -4.50000
vt 2.62500 -4.87500
vt 6.62500 -3.50000
vt 6.25000 -3.50000
vt 6.62500 -3.87500
vt 6.25000 -3.87500
vt 6.81250 -3.50000
vt 6.81250 -3.87500
vt 8.18750 -4.50000
vt 7.25000 -4.50000
vt 8.18750 -5.43750
vt 7.25000 -5.43750
vt 8.00000 -4.50000
vt 8.00000 -5.43750
vt 1.12500 -4.00000
vt 0.75000 -4.00000
vt 1.12500 -4.56250
vt 0.75000 -4.56250
vt 1.31250 -4.00000
vt 1.31250 -4.37500
vt 0.75000 -4.37500
vt 1.31250 -4.56250
vt 6.18750 -5.25000
vt 6.00000 -5.25000
vt 6.18750 -5.62500
vt 6.00000 -5.62500
vt 6.37500 -5.25000
vt 6.37500 -5.43750
vt 6.00000 -5.43750
vt 6.37500 -5.62500
vt 1.18750 -6.50000
vt 1.00000 -6.50000
vt 1.18750 -6.87500
vt 1.00000 -6.87500
vt 1.18750 -6.68750
vt 1.00000 -6.68750
vt 1.25000 -1.87500
vt 0.50000 -1.87500
vt 0.87500 -1.50000
vt 0.87500 -2.25000
vt 0.50000 -2.25000
vt 0.87500 -1.87500
vt 8.25000 0.00000
vt 7.50000 0.00000
vt 8.25000 -1.31250
vt 7.50000 -1.31250
vt 8.25000 -0.75000
vt 7.50000 -0.75000
vt 8.87500 -5.25000
vt 7.75000 -5.25000
vt 8.87500 -6.37500
vt 7.75000 -6.37500
vt 8.12500 -5.25000
vt 8.12500 -6.37500
vt 7.87500 0.25000
vt 6.75000 0.25000
vt 7.87500 -0.87500
vt 6.75000 -0.87500
vt 7.12500 0.25000
vt 7.12500 -0.87500
vt 2.06250 -3.00000
vt 1.50000 -3.00000
vt 2.06250 -3.56250
vt 1.50000 -3.56250
vt 7.50000 0.25000
vt 7.87500 -1.06250
vt 7.50000 -1.06250
vt 8.25000 0.25000
vt 8.25000 -0.12500
vt 7.50000 -0.12500
vt 8.25000 -1.06250
vn 1.0000 0.0000 0.0000
vn 0.0000 1.0000 0.0000
vn 0.0000 0.0000 1.0000
vn -1.0000 0.0000 0.0000
vn 0.0000 -1.0000 0.0000
vn 0.0000 0.0000 -1.0000

o UpperTorso
usemtl c_c4281c
f 1/1/1 2/2/1 3/3/1
f 3/3/1 2/2/1 4/4/1
f 5/5/2 2/2/2 6/6/2
f 6/6/2 2/2/2 1/7/2
f 2/5/3 5/2/3 4/8/3
f 4/8/3 5/2/3 7/4/3
f 5/1/4 6/2/4 7/3/4
f 7/3/4 6/2/4 8/4/4
f 8/5/5 3/2/5 7/6/5
f 7/6/5 3/2/5 4/7/5
f 6/5/6 1/2/6 8/8/6
f 8/8/6 1/2/6 3/4/6
f 9/9/1 10/10/1 11/11/1
f 11/11/1 10/10/1 7/12/1
f 12/13/2 10/10/2 13/14/2
f 13/14/2 10/10/2 9/15/2
f 10/13/3 12/10/3 7/16/3
f 7/16/3 12/10/3 14/12/3
f 12/9/4 13/10/4 14/11/4
f 14/11/4 13/10/4 15/12/4
f 15/13/5 11/10/5 14/14/5
f 14/14/5 11/10/5 7/15/5
f 13/13/6 9/10/6 15/16/6
f 15/16/6 9/10/6 11/12/6
f 16/17/1 17/18/1 18/19/1
f 18/19/1 17/18/1 19/20/1
f 20/21/2 17/18/2 21/22/2
f 21/22/2 17/18/2 16/23/2
f 17/21/3 20/18/3 19/24/3
f 19/24/3 20/18/3 22/20/3
f 20/17/4 21/18/4 22/19/4
f 22/19/4 21/18/4 23/20/4
f 23/21/5 18/18/5 22/22/5
f 22/22/5 18/18/5 19/23/5
f 21/21/6 16/18/6 23/24/6
f 23/24/6 16/18/6 18/20/6
usemtl c_ffb000
f 24/25/1 25/26/1 26/27/1
f 26/27/1 25/26/1 27/28/1
f 28/25/2 25/26/2 29/27/2
f 29/27/2 25/26/2 24/28/2
f 25/25/3 28/26/3 27/27/3
f 27/27/3 28/26/3 30/28/3
f 28/25/4 29/26/4 30/27/4
f 30/27/4 29/26/4 31/28/4
f 31/25/5 26/26/5 30/27/5
f 30/27/5 26/26/5 27/28/5
f 29/25/6 24/26/6 31/27/6
f 31/27/6 24/26/6 26/28/6
f 32/29/1 1/30/1 33/31/1
f 33/31/1 1/30/1 3/32/1
f 6/33/2 1/30/2 34/34/2
f 34/34/2 1/30/2 32/35/2
f 1/33/3 6/30/3 3/36/3
f 3/36/3 6/30/3 8/32/3
f 6/29/4 34/30/4 8/31/4
f 8/31/4 34/30/4 11/32/4
f 11/33/5 33/30/5 8/34/5
f 8/34/5 33/30/5 3/35/5
f 34/33/6 32/30/6 11/36/6
f 11/36/6 32/30/6 33/32/6
o RightUpperArm
usemtl c_f8f8f8
f 35/37/1 36/38/1 37/39/1
f 37/39/1 36/38/1 38/40/1
f 39/37/2 36/38/2 40/39/2
f 40/39/2 36/38/2 35/40/2
f 36/37/3 39/38/3 38/39/3
f 38/39/3 39/38/3 41/40/3
f 39/37/4 40/38/4 41/39/4
f 41/39/4 40/38/4 42/40/4
f 42/37/5 37/38/5 41/39/5
f 41/39/5 37/38/5 38/40/5
f 40/37/6 35/38/6 42/39/6
f 42/39/6 35/38/6 37/40/6
f 43/41/1 44/42/1 45/43/1
f 45/43/1 44/42/1 46/44/1
f 47/41/2 44/42/2 48/43/2
f 48/43/2 44/42/2 43/44/2
f 44/41/3 47/42/3 46/43/3
f 46/43/3 47/42/3 49/44/3
f 47/41/4 48/42/4 49/43/4
f 49/43/4 48/42/4 50/44/4
f 50/41/5 45/42/5 49/43/5
f 49/43/5 45/42/5 46/44/5
f 48/41/6 43/42/6 50/43/6
f 50/43/6 43/42/6 45/44/6
usemtl c_c4281c
f 51/45/1 52/46/1 53/47/1
f 53/47/1 52/46/1 54/48/1
f 55/45/2 52/46/2 56/47/2
f 56/47/2 52/46/2 51/48/2
f 52/45/3 55/46/3 54/47/3
f 54/47/3 55/46/3 57/48/3
f 55/45/4 56/46/4 57/47/4
f 57/47/4 56/46/4 58/48/4
f 58/45/5 53/46/5 57/47/5
f 57/47/5 53/46/5 54/48/5
f 56/45/6 51/46/6 58/47/6
f 58/47/6 51/46/6 53/48/6
f 59/49/1 60/50/1 61/51/1
f 61/51/1 60/50/1 62/52/1
f 63/49/2 60/50/2 64/51/2
f 64/51/2 60/50/2 59/52/2
f 60/49/3 63/50/3 62/51/3
f 62/51/3 63/50/3 65/52/3
f 63/49/4 64/50/4 65/51/4
f 65/51/4 64/50/4 66/52/4
f 66/49/5 61/50/5 65/51/5
f 65/51/5 61/50/5 62/52/5
f 64/49/6 59/50/6 66/51/6
f 66/51/6 59/50/6 61/52/6
f 67/53/1 68/54/1 69/55/1
f 69/55/1 68/54/1 70/56/1
f 71/57/2 68/54/2 72/58/2
f 72/58/2 68/54/2 67/56/2
f 68/57/3 71/54/3 70/58/3
f 70/58/3 71/54/3 73/56/3
f 71/53/4 72/54/4 73/55/4
f 73/55/4 72/54/4 74/56/4
f 74/57/5 69/54/5 73/58/5
f 73/58/5 69/54/5 70/56/5
f 72/57/6 67/54/6 74/58/6
f 74/58/6 67/54/6 69/56/6
o LeftUpperArm
usemtl c_f8f8f8
f 75/59/1 76/60/1 77/61/1
f 77/61/1 76/60/1 78/62/1
f 79/59/2 76/60/2 80/61/2
f 80/61/2 76/60/2 75/62/2
f 76/59/3 79/60/3 78/61/3
f 78/61/3 79/60/3 81/62/3
f 79/59/4 80/60/4 81/61/4
f 81/61/4 80/60/4 82/62/4
f 82/59/5 77/60/5 81/61/5
f 81/61/5 77/60/5 78/62/5
f 80/59/6 75/60/6 82/61/6
f 82/61/6 75/60/6 77/62/6
f 83/63/1 84/64/1 85/65/1
f 85/65/1 84/64/1 86/66/1
f 87/63/2 84/64/2 88/65/2
f 88/65/2 84/64/2 83/66/2
f 84/63/3 87/64/3 86/65/3
f 86/65/3 87/64/3 89/66/3
f 87/63/4 88/64/4 89/65/4
f 89/65/4 88/64/4 90/66/4
f 90/63/5 85/64/5 89/65/5
f 89/65/5 85/64/5 86/66/5
f 88/63/6 83/64/6 90/65/6
f 90/65/6 83/64/6 85/66/6
usemtl c_c4281c
f 91/67/1 92/68/1 93/69/1
f 93/69/1 92/68/1 94/70/1
f 95/67/2 92/68/2 96/69/2
f 96/69/2 92/68/2 91/70/2
f 92/67/3 95/68/3 94/69/3
f 94/69/3 95/68/3 97/70/3
f 95/67/4 96/68/4 97/69/4
f 97/69/4 96/68/4 98/70/4
f 98/67/5 93/68/5 97/69/5
f 97/69/5 93/68/5 94/70/5
f 96/67/6 91/68/6 98/69/6
f 98/69/6 91/68/6 93/70/6
f 99/71/1 100/72/1 101/73/1
f 101/73/1 100/72/1 102/74/1
f 103/71/2 100/72/2 104/73/2
f 104/73/2 100/72/2 99/74/2
f 100/71/3 103/72/3 102/73/3
f 102/73/3 103/72/3 105/74/3
f 103/71/4 104/72/4 105/73/4
f 105/73/4 104/72/4 106/74/4
f 106/71/5 101/72/5 105/73/5
f 105/73/5 101/72/5 102/74/5
f 104/71/6 99/72/6 106/73/6
f 106/73/6 99/72/6 101/74/6
f 107/75/1 108/76/1 109/77/1
f 109/77/1 108/76/1 15/78/1
f 110/79/2 108/76/2 111/80/2
f 111/80/2 108/76/2 107/78/2
f 108/79/3 110/76/3 15/80/3
f 15/80/3 110/76/3 112/78/3
f 110/75/4 111/76/4 112/77/4
f 112/77/4 111/76/4 113/78/4
f 113/79/5 109/76/5 112/80/5
f 112/80/5 109/76/5 15/78/5
f 111/79/6 107/76/6 113/80/6
f 113/80/6 107/76/6 109/78/6
o Head
usemtl c_f8f8f8
f 114/81/1 115/82/1 116/83/1
f 116/83/1 115/82/1 117/84/1
f 118/81/2 115/82/2 119/83/2
f 119/83/2 115/82/2 114/84/2
f 115/81/3 118/82/3 117/83/3
f 117/83/3 118/82/3 120/84/3
f 118/81/4 119/82/4 120/83/4
f 120/83/4 119/82/4 121/84/4
f 121/81/5 116/82/5 120/83/5
f 120/83/5 116/82/5 117/84/5
f 119/81/6 114/82/6 121/83/6
f 121/83/6 114/82/6 116/84/6
f 122/85/1 123/86/1 124/87/1
f 124/87/1 123/86/1 125/88/1
f 126/85/2 123/86/2 127/87/2
f 127/87/2 123/86/2 122/88/2
f 123/85/3 126/86/3 125/87/3
f 125/87/3 126/86/3 128/88/3
f 126/85/4 127/86/4 128/87/4
f 128/87/4 127/86/4 129/88/4
f 129/85/5 124/86/5 128/87/5
f 128/87/5 124/86/5 125/88/5
f 127/85/6 122/86/6 129/87/6
f 129/87/6 122/86/6 124/88/6
f 130/89/1 131/90/1 132/91/1
f 132/91/1 131/90/1 133/92/1
f 134/89/2 131/90/2 135/91/2
f 135/91/2 131/90/2 130/92/2
f 131/89/3 134/90/3 133/91/3
f 133/91/3 134/90/3 136/92/3
f 134/89/4 135/90/4 136/91/4
f 136/91/4 135/90/4 137/92/4
f 137/89/5 132/90/5 136/91/5
f 136/91/5 132/90/5 133/92/5
f 135/89/6 130/90/6 137/91/6
f 137/91/6 130/90/6 132/92/6
f 138/93/1 139/94/1 140/95/1
f 140/95/1 139/94/1 141/96/1
f 142/93/2 139/94/2 143/95/2
f 143/95/2 139/94/2 138/96/2
f 139/93/3 142/94/3 141/95/3
f 141/95/3 142/94/3 144/96/3
f 142/93/4 143/94/4 144/95/4
f 144/95/4 143/94/4 145/96/4
f 145/93/5 140/94/5 144/95/5
f 144/95/5 140/94/5 141/96/5
f 143/93/6 138/94/6 145/95/6
f 145/95/6 138/94/6 140/96/6
f 146/97/1 147/98/1 148/99/1
f 148/99/1 147/98/1 149/100/1
f 150/101/2 147/98/2 151/102/2
f 151/102/2 147/98/2 146/100/2
f 147/101/3 150/98/3 149/102/3
f 149/102/3 150/98/3 152/100/3
f 150/97/4 151/98/4 152/99/4
f 152/99/4 151/98/4 153/100/4
f 153/101/5 148/98/5 152/102/5
f 152/102/5 148/98/5 149/100/5
f 151/101/6 146/98/6 153/102/6
f 153/102/6 146/98/6 148/100/6
usemtl c_c4281c
f 154/103/1 155/104/1 156/105/1
f 156/105/1 155/104/1 157/106/1
f 158/107/2 155/104/2 159/108/2
f 159/108/2 155/104/2 154/109/2
f 155/107/3 158/104/3 157/110/3
f 157/110/3 158/104/3 160/106/3
f 158/103/4 159/104/4 160/105/4
f 160/105/4 159/104/4 161/106/4
f 161/107/5 156/104/5 160/108/5
f 160/108/5 156/104/5 157/109/5
f 159/107/6 154/104/6 161/110/6
f 161/110/6 154/104/6 156/106/6
f 162/111/1 163/112/1 164/113/1
f 164/113/1 163/112/1 165/114/1
f 166/115/2 163/112/2 167/116/2
f 167/116/2 163/112/2 162/114/2
f 163/115/3 166/112/3 165/116/3
f 165/116/3 166/112/3 168/114/3
f 166/111/4 167/112/4 168/113/4
f 168/113/4 167/112/4 169/114/4
f 169/115/5 164/112/5 168/116/5
f 168/116/5 164/112/5 165/114/5
f 167/115/6 162/112/6 169/116/6
f 169/116/6 162/112/6 164/114/6
f 170/117/1 171/118/1 172/119/1
f 172/119/1 171/118/1 173/120/1
f 174/117/2 171/118/2 175/121/2
f 175/121/2 171/118/2 170/122/2
f 171/117/3 174/118/3 173/119/3
f 173/119/3 174/118/3 176/120/3
f 174/117/4 175/118/4 176/119/4
f 176/119/4 175/118/4 177/120/4
f 177/117/5 172/118/5 176/121/5
f 176/121/5 172/118/5 173/122/5
f 175/117/6 170/118/6 177/119/6
f 177/119/6 170/118/6 172/120/6
f 178/123/1 179/124/1 180/125/1
f 180/125/1 179/124/1 181/126/1
f 182/123/2 179/124/2 183/127/2
f 183/127/2 179/124/2 178/128/2
f 179/123/3 182/124/3 181/125/3
f 181/125/3 182/124/3 184/126/3
f 182/123/4 183/124/4 184/125/4
f 184/125/4 183/124/4 185/126/4
f 185/123/5 180/124/5 184/127/5
f 184/127/5 180/124/5 181/128/5
f 183/123/6 178/124/6 185/125/6
f 185/125/6 178/124/6 180/126/6
f 186/129/1 187/130/1 188/131/1
f 188/131/1 187/130/1 189/132/1
f 190/129/2 187/130/2 191/133/2
f 191/133/2 187/130/2 186/134/2
f 187/129/3 190/130/3 189/131/3
f 189/131/3 190/130/3 192/132/3
f 190/129/4 191/130/4 192/131/4
f 192/131/4 191/130/4 193/132/4
f 193/129/5 188/130/5 192/133/5
f 192/133/5 188/130/5 189/134/5
f 191/129/6 186/130/6 193/131/6
f 193/131/6 186/130/6 188/132/6
f 194/135/1 195/136/1 196/137/1
f 196/137/1 195/136/1 197/138/1
f 198/135/2 195/136/2 199/137/2
f 199/137/2 195/136/2 194/138/2
f 195/135/3 198/136/3 197/137/3
f 197/137/3 198/136/3 200/138/3
f 198/135/4 199/136/4 200/137/4
f 200/137/4 199/136/4 201/138/4
f 201/135/5 196/136/5 200/137/5
f 200/137/5 196/136/5 197/138/5
f 199/135/6 194/136/6 201/137/6
f 201/137/6 194/136/6 196/138/6
f 202/139/1 203/140/1 204/141/1
f 204/141/1 203/140/1 205/142/1
f 206/143/2 203/140/2 207/144/2
f 207/144/2 203/140/2 202/145/2
f 203/143/3 206/140/3 205/146/3
f 205/146/3 206/140/3 208/142/3
f 206/139/4 207/140/4 208/141/4
f 208/141/4 207/140/4 209/142/4
f 209/143/5 204/140/5 208/144/5
f 208/144/5 204/140/5 205/145/5
f 207/143/6 202/140/6 209/146/6
f 209/146/6 202/140/6 204/142/6
f 210/147/1 211/148/1 212/149/1
f 212/149/1 211/148/1 213/150/1
f 214/147/2 211/148/2 215/149/2
f 215/149/2 211/148/2 210/150/2
f 211/147/3 214/148/3 213/149/3
f 213/149/3 214/148/3 216/150/3
f 214/147/4 215/148/4 216/149/4
f 216/149/4 215/148/4 217/150/4
f 217/147/5 212/148/5 216/149/5
f 216/149/5 212/148/5 213/150/5
f 215/147/6 210/148/6 217/149/6
f 217/149/6 210/148/6 212/150/6
f 218/151/1 219/152/1 220/153/1
f 220/153/1 219/152/1 221/154/1
f 222/155/2 219/152/2 223/156/2
f 223/156/2 219/152/2 218/157/2
f 219/155/3 222/152/3 221/158/3
f 221/158/3 222/152/3 224/154/3
f 222/151/4 223/152/4 224/153/4
f 224/153/4 223/152/4 225/154/4
f 225/155/5 220/152/5 224/156/5
f 224/156/5 220/152/5 221/157/5
f 223/155/6 218/152/6 225/158/6
f 225/158/6 218/152/6 220/154/6
f 223/159/1 222/160/1 225/161/1
f 225/161/1 222/160/1 224/162/1
f 226/163/2 222/160/2 227/164/2
f 227/164/2 222/160/2 223/165/2
f 222/163/3 226/160/3 224/166/3
f 224/166/3 226/160/3 228/162/3
f 226/159/4 227/160/4 228/161/4
f 228/161/4 227/160/4 229/162/4
f 229/163/5 225/160/5 228/164/5
f 228/164/5 225/160/5 224/165/5
f 227/163/6 223/160/6 229/166/6
f 229/166/6 223/160/6 225/162/6
f 230/167/1 231/168/1 232/169/1
f 232/169/1 231/168/1 233/170/1
f 234/171/2 231/168/2 235/172/2
f 235/172/2 231/168/2 230/173/2
f 231/171/3 234/168/3 233/174/3
f 233/174/3 234/168/3 236/170/3
f 234/167/4 235/168/4 236/169/4
f 236/169/4 235/168/4 237/170/4
f 237/171/5 232/168/5 236/172/5
f 236/172/5 232/168/5 233/173/5
f 235/171/6 230/168/6 237/174/6
f 237/174/6 230/168/6 232/170/6
f 238/175/1 239/176/1 240/177/1
f 240/177/1 239/176/1 241/178/1
f 242/179/2 239/176/2 243/180/2
f 243/180/2 239/176/2 238/181/2
f 239/179/3 242/176/3 241/182/3
f 241/182/3 242/176/3 244/178/3
f 242/175/4 243/176/4 244/177/4
f 244/177/4 243/176/4 245/178/4
f 245/179/5 240/176/5 244/180/5
f 244/180/5 240/176/5 241/181/5
f 243/179/6 238/176/6 245/182/6
f 245/182/6 238/176/6 240/178/6
f 246/183/1 247/184/1 248/185/1
f 248/185/1 247/184/1 249/186/1
f 250/183/2 247/184/2 251/187/2
f 251/187/2 247/184/2 246/188/2
f 247/183/3 250/184/3 249/185/3
f 249/185/3 250/184/3 252/186/3
f 250/183/4 251/184/4 252/185/4
f 252/185/4 251/184/4 253/186/4
f 253/183/5 248/184/5 252/187/5
f 252/187/5 248/184/5 249/188/5
f 251/183/6 246/184/6 253/185/6
f 253/185/6 246/184/6 248/186/6
usemtl c_ffb000
f 254/189/1 255/190/1 234/191/1
f 234/191/1 255/190/1 256/192/1
f 257/193/2 255/190/2 258/194/2
f 258/194/2 255/190/2 254/195/2
f 255/193/3 257/190/3 256/196/3
f 256/196/3 257/190/3 259/192/3
f 257/189/4 258/190/4 259/191/4
f 259/191/4 258/190/4 260/192/4
f 260/193/5 234/190/5 259/194/5
f 259/194/5 234/190/5 256/195/5
f 258/193/6 254/190/6 260/196/6
f 260/196/6 254/190/6 234/192/6
f 261/197/1 262/198/1 263/199/1
f 263/199/1 262/198/1 264/200/1
f 265/197/2 262/198/2 266/199/2
f 266/199/2 262/198/2 261/200/2
f 262/197/3 265/198/3 264/199/3
f 264/199/3 265/198/3 267/200/3
f 265/197/4 266/198/4 267/199/4
f 267/199/4 266/198/4 268/200/4
f 268/197/5 263/198/5 267/199/5
f 267/199/5 263/198/5 264/200/5
f 266/197/6 261/198/6 268/199/6
f 268/199/6 261/198/6 263/200/6
f 269/201/1 270/202/1 271/203/1
f 271/203/1 270/202/1 272/204/1
f 273/201/2 270/202/2 274/203/2
f 274/203/2 270/202/2 269/204/2
f 270/201/3 273/202/3 272/203/3
f 272/203/3 273/202/3 275/204/3
f 273/201/4 274/202/4 275/203/4
f 275/203/4 274/202/4 276/204/4
f 276/201/5 271/202/5 275/203/5
f 275/203/5 271/202/5 272/204/5
f 274/201/6 269/202/6 276/203/6
f 276/203/6 269/202/6 271/204/6
f 172/205/1 173/206/1 277/207/1
f 277/207/1 173/206/1 278/208/1
f 176/205/2 173/206/2 177/209/2
f 177/209/2 173/206/2 172/210/2
f 173/205/3 176/206/3 278/207/3
f 278/207/3 176/206/3 279/208/3
f 176/205/4 177/206/4 279/207/4
f 279/207/4 177/206/4 280/208/4
f 280/205/5 277/206/5 279/209/5
f 279/209/5 277/206/5 278/210/5
f 177/205/6 172/206/6 280/207/6
f 280/207/6 172/206/6 277/208/6
f 281/211/1 282/212/1 283/213/1
f 283/213/1 282/212/1 284/214/1
f 285/211/2 282/212/2 286/213/2
f 286/213/2 282/212/2 281/214/2
f 282/211/3 285/212/3 284/213/3
f 284/213/3 285/212/3 287/214/3
f 285/211/4 286/212/4 287/213/4
f 287/213/4 286/212/4 288/214/4
f 288/211/5 283/212/5 287/213/5
f 287/213/5 283/212/5 284/214/5
f 286/211/6 281/212/6 288/213/6
f 288/213/6 281/212/6 283/214/6
f 289/215/1 290/216/1 291/217/1
f 291/217/1 290/216/1 292/218/1
f 293/215/2 290/216/2 294/219/2
f 294/219/2 290/216/2 289/220/2
f 290/215/3 293/216/3 292/217/3
f 292/217/3 293/216/3 295/218/3
f 293/215/4 294/216/4 295/217/4
f 295/217/4 294/216/4 296/218/4
f 296/215/5 291/216/5 295/219/5
f 295/219/5 291/216/5 292/220/5
f 294/215/6 289/216/6 296/217/6
f 296/217/6 289/216/6 291/218/6
f 297/221/1 298/222/1 299/223/1
f 299/223/1 298/222/1 300/224/1
f 301/225/2 298/222/2 302/226/2
f 302/226/2 298/222/2 297/227/2
f 298/225/3 301/222/3 300/228/3
f 300/228/3 301/222/3 303/224/3
f 301/221/4 302/222/4 303/223/4
f 303/223/4 302/222/4 231/224/4
f 231/225/5 299/222/5 303/226/5
f 303/226/5 299/222/5 300/227/5
f 302/225/6 297/222/6 231/228/6
f 231/228/6 297/222/6 299/224/6
f 304/229/1 305/230/1 306/231/1
f 306/231/1 305/230/1 307/232/1
f 308/229/2 305/230/2 309/231/2
f 309/231/2 305/230/2 304/232/2
f 305/229/3 308/230/3 307/231/3
f 307/231/3 308/230/3 310/232/3
f 308/229/4 309/230/4 310/231/4
f 310/231/4 309/230/4 311/232/4
f 311/229/5 306/230/5 310/231/5
f 310/231/5 306/230/5 307/232/5
f 309/229/6 304/230/6 311/231/6
f 311/231/6 304/230/6 306/232/6
f 312/233/1 313/234/1 314/235/1
f 314/235/1 313/234/1 315/236/1
f 316/233/2 313/234/2 317/235/2
f 317/235/2 313/234/2 312/236/2
f 313/233/3 316/234/3 315/235/3
f 315/235/3 316/234/3 318/236/3
f 316/233/4 317/234/4 318/235/4
f 318/235/4 317/234/4 319/236/4
f 319/233/5 314/234/5 318/235/5
f 318/235/5 314/234/5 315/236/5
f 317/233/6 312/234/6 319/235/6
f 319/235/6 312/234/6 314/236/6
f 320/237/1 321/238/1 322/239/1
f 322/239/1 321/238/1 323/240/1
f 324/237/2 321/238/2 325/239/2
f 325/239/2 321/238/2 320/240/2
f 321/237/3 324/238/3 323/239/3
f 323/239/3 324/238/3 326/240/3
f 324/237/4 325/238/4 326/239/4
f 326/239/4 325/238/4 327/240/4
f 327/237/5 322/238/5 326/239/5
f 326/239/5 322/238/5 323/240/5
f 325/237/6 320/238/6 327/239/6
f 327/239/6 320/238/6 322/240/6
f 328/241/1 329/242/1 330/243/1
f 330/243/1 329/242/1 331/244/1
f 332/241/2 329/242/2 333/245/2
f 333/245/2 329/242/2 328/246/2
f 329/241/3 332/242/3 331/243/3
f 331/243/3 332/242/3 334/244/3
f 332/241/4 333/242/4 334/243/4
f 334/243/4 333/242/4 335/244/4
f 335/241/5 330/242/5 334/245/5
f 334/245/5 330/242/5 331/246/5
f 333/241/6 328/242/6 335/243/6
f 335/243/6 328/242/6 330/244/6
usemtl c_970000
f 336/247/1 154/248/1 170/249/1
f 170/249/1 154/248/1 156/250/1
f 163/247/2 154/248/2 162/249/2
f 162/249/2 154/248/2 336/250/2
f 154/247/3 163/248/3 156/249/3
f 156/249/3 163/248/3 165/250/3
f 163/247/4 162/248/4 165/249/4
f 165/249/4 162/248/4 164/250/4
f 164/247/5 170/248/5 165/249/5
f 165/249/5 170/248/5 156/250/5
f 162/247/6 336/248/6 164/249/6
f 164/249/6 336/248/6 170/250/6
f 167/251/1 166/252/1 169/253/1
f 169/253/1 166/252/1 168/254/1
f 159/251/2 166/252/2 337/253/2
f 337/253/2 166/252/2 167/254/2
f 166/251/3 159/252/3 168/253/3
f 168/253/3 159/252/3 161/254/3
f 159/251/4 337/252/4 161/253/4
f 161/253/4 337/252/4 175/254/4
f 175/251/5 169/252/5 161/253/5
f 161/253/5 169/252/5 168/254/5
f 337/251/6 167/252/6 175/253/6
f 175/253/6 167/252/6 169/254/6
o Head_decal1
usemtl head_decal1
f 338/255/4 339/256/4 340/257/4
f 340/257/4 339/256/4 341/258/4
o Head_decal2
usemtl head_decal2
f 342/255/1 343/256/1 344/257/1
f 344/257/1 343/256/1 345/258/1
o LeftLowerLeg
usemtl c_c4281c
f 346/259/1 347/260/1 348/261/1
f 348/261/1 347/260/1 349/262/1
f 350/263/2 347/260/2 351/264/2
f 351/264/2 347/260/2 346/265/2
f 347/263/3 350/260/3 349/266/3
f 349/266/3 350/260/3 352/262/3
f 350/259/4 351/260/4 352/261/4
f 352/261/4 351/260/4 353/262/4
f 353/263/5 348/260/5 352/264/5
f 352/264/5 348/260/5 349/265/5
f 351/263/6 346/260/6 353/266/6
f 353/266/6 346/260/6 348/262/6
o Mouth
usemtl c_f8f8f8
f 354/267/1 355/268/1 356/269/1
f 356/269/1 355/268/1 357/270/1
f 358/267/2 355/268/2 359/269/2
f 359/269/2 355/268/2 354/270/2
f 355/267/3 358/268/3 357/269/3
f 357/269/3 358/268/3 360/270/3
f 358/267/4 359/268/4 360/269/4
f 360/269/4 359/268/4 361/270/4
f 361/267/5 356/268/5 360/269/5
f 360/269/5 356/268/5 357/270/5
f 359/267/6 354/268/6 361/269/6
f 361/269/6 354/268/6 356/270/6
f 362/271/1 363/272/1 364/273/1
f 364/273/1 363/272/1 365/274/1
f 366/271/2 363/272/2 367/273/2
f 367/273/2 363/272/2 362/274/2
f 363/271/3 366/272/3 365/273/3
f 365/273/3 366/272/3 368/274/3
f 366/271/4 367/272/4 368/273/4
f 368/273/4 367/272/4 369/274/4
f 369/271/5 364/272/5 368/273/5
f 368/273/5 364/272/5 365/274/5
f 367/271/6 362/272/6 369/273/6
f 369/273/6 362/272/6 364/274/6
f 370/275/1 371/276/1 372/277/1
f 372/277/1 371/276/1 373/278/1
f 374/275/2 371/276/2 375/277/2
f 375/277/2 371/276/2 370/278/2
f 371/275/3 374/276/3 373/277/3
f 373/277/3 374/276/3 376/278/3
f 374/275/4 375/276/4 376/277/4
f 376/277/4 375/276/4 377/278/4
f 377/275/5 372/276/5 376/277/5
f 376/277/5 372/276/5 373/278/5
f 375/275/6 370/276/6 377/277/6
f 377/277/6 370/276/6 372/278/6
f 378/279/1 379/280/1 380/281/1
f 380/281/1 379/280/1 381/282/1
f 382/279/2 379/280/2 383/281/2
f 383/281/2 379/280/2 378/282/2
f 379/279/3 382/280/3 381/281/3
f 381/281/3 382/280/3 384/282/3
f 382/279/4 383/280/4 384/281/4
f 384/281/4 383/280/4 385/282/4
f 385/279/5 380/280/5 384/281/5
f 384/281/5 380/280/5 381/282/5
f 383/279/6 378/280/6 385/281/6
f 385/281/6 378/280/6 380/282/6
usemtl c_ffb000
f 386/283/1 357/284/1 387/285/1
f 387/285/1 357/284/1 388/286/1
f 384/287/2 357/284/2 389/288/2
f 389/288/2 357/284/2 386/289/2
f 357/287/3 384/284/3 388/290/3
f 388/290/3 384/284/3 390/286/3
f 384/283/4 389/284/4 390/285/4
f 390/285/4 389/284/4 391/286/4
f 391/287/5 387/284/5 390/288/5
f 390/288/5 387/284/5 388/289/5
f 389/287/6 386/284/6 391/290/6
f 391/290/6 386/284/6 387/286/6
o LeftUpperLeg
usemtl c_c4281c
f 392/291/1 393/292/1 394/293/1
f 394/293/1 393/292/1 395/294/1
f 396/295/2 393/292/2 397/296/2
f 397/296/2 393/292/2 392/294/2
f 393/295/3 396/292/3 395/296/3
f 395/296/3 396/292/3 398/294/3
f 396/291/4 397/292/4 398/293/4
f 398/293/4 397/292/4 399/294/4
f 399/295/5 394/292/5 398/296/5
f 398/296/5 394/292/5 395/294/5
f 397/295/6 392/292/6 399/296/6
f 399/296/6 392/292/6 394/294/6
f 400/297/1 401/298/1 402/299/1
f 402/299/1 401/298/1 403/300/1
f 404/301/2 401/298/2 405/302/2
f 405/302/2 401/298/2 400/303/2
f 401/301/3 404/298/3 403/304/3
f 403/304/3 404/298/3 406/300/3
f 404/297/4 405/298/4 406/299/4
f 406/299/4 405/298/4 407/300/4
f 407/301/5 402/298/5 406/302/5
f 406/302/5 402/298/5 403/303/5
f 405/301/6 400/298/6 407/304/6
f 407/304/6 400/298/6 402/300/6
usemtl c_ffb000
f 408/305/1 409/104/1 410/306/1
f 410/306/1 409/104/1 411/109/1
f 412/305/2 409/104/2 413/307/2
f 413/307/2 409/104/2 408/106/2
f 409/305/3 412/104/3 411/306/3
f 411/306/3 412/104/3 414/109/3
f 412/305/4 413/104/4 414/306/4
f 414/306/4 413/104/4 415/109/4
f 415/305/5 410/104/5 414/307/5
f 414/307/5 410/104/5 411/106/5
f 413/305/6 408/104/6 415/306/6
f 415/306/6 408/104/6 410/109/6
f 416/308/1 417/309/1 418/310/1
f 418/310/1 417/309/1 419/311/1
f 420/312/2 417/309/2 421/313/2
f 421/313/2 417/309/2 416/314/2
f 417/312/3 420/309/3 419/315/3
f 419/315/3 420/309/3 422/311/3
f 420/308/4 421/309/4 422/310/4
f 422/310/4 421/309/4 423/311/4
f 423/312/5 418/309/5 422/313/5
f 422/313/5 418/309/5 419/314/5
f 421/312/6 416/309/6 423/315/6
f 423/315/6 416/309/6 418/311/6
o RightFoot
usemtl c_f8f8f8
f 424/316/1 425/317/1 426/318/1
f 426/318/1 425/317/1 427/319/1
f 428/316/2 425/317/2 429/318/2
f 429/318/2 425/317/2 424/319/2
f 425/316/3 428/317/3 427/318/3
f 427/318/3 428/317/3 430/319/3
f 428/316/4 429/317/4 430/318/4
f 430/318/4 429/317/4 431/319/4
f 431/316/5 426/317/5 430/318/5
f 430/318/5 426/317/5 427/319/5
f 429/316/6 424/317/6 431/318/6
f 431/318/6 424/317/6 426/319/6
f 432/320/1 433/321/1 434/322/1
f 434/322/1 433/321/1 435/323/1
f 436/320/2 433/321/2 437/322/2
f 437/322/2 433/321/2 432/323/2
f 433/320/3 436/321/3 435/322/3
f 435/322/3 436/321/3 438/323/3
f 436/320/4 437/321/4 438/322/4
f 438/322/4 437/321/4 439/323/4
f 439/320/5 434/321/5 438/322/5
f 438/322/5 434/321/5 435/323/5
f 437/320/6 432/321/6 439/322/6
f 439/322/6 432/321/6 434/323/6
f 440/324/1 441/325/1 442/326/1
f 442/326/1 441/325/1 443/327/1
f 444/324/2 441/325/2 445/326/2
f 445/326/2 441/325/2 440/327/2
f 441/324/3 444/325/3 443/326/3
f 443/326/3 444/325/3 446/327/3
f 444/324/4 445/325/4 446/326/4
f 446/326/4 445/325/4 447/327/4
f 447/324/5 442/325/5 446/326/5
f 446/326/5 442/325/5 443/327/5
f 445/324/6 440/325/6 447/326/6
f 447/326/6 440/325/6 442/327/6
usemtl c_c4281c
f 448/328/1 449/329/1 450/330/1
f 450/330/1 449/329/1 451/331/1
f 452/332/2 449/329/2 453/333/2
f 453/333/2 449/329/2 448/331/2
f 449/332/3 452/329/3 451/333/3
f 451/333/3 452/329/3 454/331/3
f 452/328/4 453/329/4 454/330/4
f 454/330/4 453/329/4 455/331/4
f 455/332/5 450/329/5 454/333/5
f 454/333/5 450/329/5 451/331/5
f 453/332/6 448/329/6 455/333/6
f 455/333/6 448/329/6 450/331/6
f 456/334/1 457/335/1 458/336/1
f 458/336/1 457/335/1 459/337/1
f 460/338/2 457/335/2 461/339/2
f 461/339/2 457/335/2 456/337/2
f 457/338/3 460/335/3 459/339/3
f 459/339/3 460/335/3 462/337/3
f 460/334/4 461/335/4 462/336/4
f 462/336/4 461/335/4 463/337/4
f 463/338/5 458/335/5 462/339/5
f 462/339/5 458/335/5 459/337/5
f 461/338/6 456/335/6 463/339/6
f 463/339/6 456/335/6 458/337/6
f 464/340/1 465/341/1 466/342/1
f 466/342/1 465/341/1 467/343/1
f 468/344/2 465/341/2 469/345/2
f 469/345/2 465/341/2 464/343/2
f 465/344/3 468/341/3 467/345/3
f 467/345/3 468/341/3 470/343/3
f 468/340/4 469/341/4 470/342/4
f 470/342/4 469/341/4 471/343/4
f 471/344/5 466/341/5 470/345/5
f 470/345/5 466/341/5 467/343/5
f 469/344/6 464/341/6 471/345/6
f 471/345/6 464/341/6 466/343/6
o Tail
usemtl c_ffb000
f 472/346/1 473/347/1 474/348/1
f 474/348/1 473/347/1 475/349/1
f 476/346/2 473/347/2 477/348/2
f 477/348/2 473/347/2 472/349/2
f 473/346/3 476/347/3 475/348/3
f 475/348/3 476/347/3 478/349/3
f 476/346/4 477/347/4 478/348/4
f 478/348/4 477/347/4 479/349/4
f 479/346/5 474/347/5 478/348/5
f 478/348/5 474/347/5 475/349/5
f 477/346/6 472/347/6 479/348/6
f 479/348/6 472/347/6 474/349/6
f 480/350/1 481/351/1 482/352/1
f 482/352/1 481/351/1 483/353/1
f 484/354/2 481/351/2 485/355/2
f 485/355/2 481/351/2 480/353/2
f 481/354/3 484/351/3 483/355/3
f 483/355/3 484/351/3 486/353/3
f 484/350/4 485/351/4 486/352/4
f 486/352/4 485/351/4 487/353/4
f 487/354/5 482/351/5 486/355/5
f 486/355/5 482/351/5 483/353/5
f 485/354/6 480/351/6 487/355/6
f 487/355/6 480/351/6 482/353/6
f 488/356/1 489/357/1 490/358/1
f 490/358/1 489/357/1 491/359/1
f 492/360/2 489/357/2 493/361/2
f 493/361/2 489/357/2 488/359/2
f 489/360/3 492/357/3 491/361/3
f 491/361/3 492/357/3 494/359/3
f 492/356/4 493/357/4 494/358/4
f 494/358/4 493/357/4 495/359/4
f 495/360/5 490/357/5 494/361/5
f 494/361/5 490/357/5 491/359/5
f 493/360/6 488/357/6 495/361/6
f 495/361/6 488/357/6 490/359/6
f 496/362/1 497/363/1 498/364/1
f 498/364/1 497/363/1 499/365/1
f 500/362/2 497/363/2 501/364/2
f 501/364/2 497/363/2 496/365/2
f 497/362/3 500/363/3 499/364/3
f 499/364/3 500/363/3 502/365/3
f 500/362/4 501/363/4 502/364/4
f 502/364/4 501/363/4 503/365/4
f 503/362/5 498/363/5 502/364/5
f 502/364/5 498/363/5 499/365/5
f 501/362/6 496/363/6 503/364/6
f 503/364/6 496/363/6 498/365/6
usemtl c_c4281c
f 504/366/1 505/367/1 506/368/1
f 506/368/1 505/367/1 507/369/1
f 508/366/2 505/367/2 509/368/2
f 509/368/2 505/367/2 504/369/2
f 505/366/3 508/367/3 507/368/3
f 507/368/3 508/367/3 510/369/3
f 508/366/4 509/367/4 510/368/4
f 510/368/4 509/367/4 511/369/4
f 511/366/5 506/367/5 510/368/5
f 510/368/5 506/367/5 507/369/5
f 509/366/6 504/367/6 511/368/6
f 511/368/6 504/367/6 506/369/6
f 512/370/1 513/371/1 514/372/1
f 514/372/1 513/371/1 515/373/1
f 516/374/2 513/371/2 517/375/2
f 517/375/2 513/371/2 512/376/2
f 513/374/3 516/371/3 515/377/3
f 515/377/3 516/371/3 518/373/3
f 516/370/4 517/371/4 518/372/4
f 518/372/4 517/371/4 519/373/4
f 519/374/5 514/371/5 518/375/5
f 518/375/5 514/371/5 515/376/5
f 517/374/6 512/371/6 519/377/6
f 519/377/6 512/371/6 514/373/6
f 520/378/1 521/379/1 522/380/1
f 522/380/1 521/379/1 523/381/1
f 524/378/2 521/379/2 525/380/2
f 525/380/2 521/379/2 520/381/2
f 521/378/3 524/379/3 523/380/3
f 523/380/3 524/379/3 526/381/3
f 524/378/4 525/379/4 526/380/4
f 526/380/4 525/379/4 527/381/4
f 527/378/5 522/379/5 526/380/5
f 526/380/5 522/379/5 523/381/5
f 525/378/6 520/379/6 527/380/6
f 527/380/6 520/379/6 522/381/6
f 528/382/1 529/383/1 530/384/1
f 530/384/1 529/383/1 531/385/1
f 532/382/2 529/383/2 533/384/2
f 533/384/2 529/383/2 528/385/2
f 529/382/3 532/383/3 531/384/3
f 531/384/3 532/383/3 534/385/3
f 532/382/4 533/383/4 534/384/4
f 534/384/4 533/383/4 535/385/4
f 535/382/5 530/383/5 534/384/5
f 534/384/5 530/383/5 531/385/5
f 533/382/6 528/383/6 535/384/6
f 535/384/6 528/383/6 530/385/6
o LeftFoot
usemtl c_f8f8f8
f 536/386/1 537/387/1 538/388/1
f 538/388/1 537/387/1 539/389/1
f 540/386/2 537/387/2 541/388/2
f 541/388/2 537/387/2 536/389/2
f 537/386/3 540/387/3 539/388/3
f 539/388/3 540/387/3 542/389/3
f 540/386/4 541/387/4 542/388/4
f 542/388/4 541/387/4 543/389/4
f 543/386/5 538/387/5 542/388/5
f 542/388/5 538/387/5 539/389/5
f 541/386/6 536/387/6 543/388/6
f 543/388/6 536/387/6 538/389/6
f 544/390/1 545/391/1 546/392/1
f 546/392/1 545/391/1 547/393/1
f 548/390/2 545/391/2 549/392/2
f 549/392/2 545/391/2 544/393/2
f 545/390/3 548/391/3 547/392/3
f 547/392/3 548/391/3 550/393/3
f 548/390/4 549/391/4 550/392/4
f 550/392/4 549/391/4 551/393/4
f 551/390/5 546/391/5 550/392/5
f 550/392/5 546/391/5 547/393/5
f 549/390/6 544/391/6 551/392/6
f 551/392/6 544/391/6 546/393/6
f 552/386/1 553/387/1 554/388/1
f 554/388/1 553/387/1 555/389/1
f 556/386/2 553/387/2 557/388/2
f 557/388/2 553/387/2 552/389/2
f 553/386/3 556/387/3 555/388/3
f 555/388/3 556/387/3 558/389/3
f 556/386/4 557/387/4 558/388/4
f 558/388/4 557/387/4 559/389/4
f 559/386/5 554/387/5 558/388/5
f 558/388/5 554/387/5 555/389/5
f 557/386/6 552/387/6 559/388/6
f 559/388/6 552/387/6 554/389/6
usemtl c_c4281c
f 560/394/1 561/395/1 562/396/1
f 562/396/1 561/395/1 563/397/1
f 564/398/2 561/395/2 565/399/2
f 565/399/2 561/395/2 560/397/2
f 561/398/3 564/395/3 563/399/3
f 563/399/3 564/395/3 566/397/3
f 564/394/4 565/395/4 566/396/4
f 566/396/4 565/395/4 567/397/4
f 567/398/5 562/395/5 566/399/5
f 566/399/5 562/395/5 563/397/5
f 565/398/6 560/395/6 567/399/6
f 567/399/6 560/395/6 562/397/6
f 568/400/1 569/401/1 570/402/1
f 570/402/1 569/401/1 571/403/1
f 572/404/2 569/401/2 573/405/2
f 573/405/2 569/401/2 568/403/2
f 569/404/3 572/401/3 571/405/3
f 571/405/3 572/401/3 574/403/3
f 572/400/4 573/401/4 574/402/4
f 574/402/4 573/401/4 575/403/4
f 575/404/5 570/401/5 574/405/5
f 574/405/5 570/401/5 571/403/5
f 573/404/6 568/401/6 575/405/6
f 575/405/6 568/401/6 570/403/6
f 576/406/1 577/407/1 578/408/1
f 578/408/1 577/407/1 579/409/1
f 580/410/2 577/407/2 581/411/2
f 581/411/2 577/407/2 576/409/2
f 577/410/3 580/407/3 579/411/3
f 579/411/3 580/407/3 582/409/3
f 580/406/4 581/407/4 582/408/4
f 582/408/4 581/407/4 583/409/4
f 583/410/5 578/407/5 582/411/5
f 582/411/5 578/407/5 579/409/5
f 581/410/6 576/407/6 583/411/6
f 583/411/6 576/407/6 578/409/6
o RightUpperLeg
usemtl c_c4281c
f 584/412/1 585/413/1 586/414/1
f 586/414/1 585/413/1 587/415/1
f 588/416/2 585/413/2 589/417/2
f 589/417/2 585/413/2 584/415/2
f 585/416/3 588/413/3 587/417/3
f 587/417/3 588/413/3 590/415/3
f 588/412/4 589/413/4 590/414/4
f 590/414/4 589/413/4 591/415/4
f 591/416/5 586/413/5 590/417/5
f 590/417/5 586/413/5 587/415/5
f 589/416/6 584/413/6 591/417/6
f 591/417/6 584/413/6 586/415/6
f 592/418/1 593/419/1 594/420/1
f 594/420/1 593/419/1 595/421/1
f 596/422/2 593/419/2 597/423/2
f 597/423/2 593/419/2 592/424/2
f 593/422/3 596/419/3 595/425/3
f 595/425/3 596/419/3 598/421/3
f 596/418/4 597/419/4 598/420/4
f 598/420/4 597/419/4 599/421/4
f 599/422/5 594/419/5 598/423/5
f 598/423/5 594/419/5 595/424/5
f 597/422/6 592/419/6 599/425/6
f 599/425/6 592/419/6 594/421/6
usemtl c_ffb000
f 600/426/1 601/427/1 602/428/1
f 602/428/1 601/427/1 603/429/1
f 604/430/2 601/427/2 605/431/2
f 605/431/2 601/427/2 600/432/2
f 601/430/3 604/427/3 603/433/3
f 603/433/3 604/427/3 606/429/3
f 604/426/4 605/427/4 606/428/4
f 606/428/4 605/427/4 607/429/4
f 607/430/5 602/427/5 606/431/5
f 606/431/5 602/427/5 603/432/5
f 605/430/6 600/427/6 607/433/6
f 607/433/6 600/427/6 602/429/6
f 608/434/1 609/435/1 610/436/1
f 610/436/1 609/435/1 611/437/1
f 612/434/2 609/435/2 613/438/2
f 613/438/2 609/435/2 608/439/2
f 609/434/3 612/435/3 611/436/3
f 611/436/3 612/435/3 614/437/3
f 612/434/4 613/435/4 614/436/4
f 614/436/4 613/435/4 615/437/4
f 615/434/5 610/435/5 614/438/5
f 614/438/5 610/435/5 611/439/5
f 613/434/6 608/435/6 615/436/6
f 615/436/6 608/435/6 610/437/6
o RightLowerLeg
usemtl c_c4281c
f 616/140/1 617/148/1 618/440/1
f 618/440/1 617/148/1 619/441/1
f 620/442/2 617/148/2 621/443/2
f 621/443/2 617/148/2 616/444/2
f 617/442/3 620/148/3 619/445/3
f 619/445/3 620/148/3 622/441/3
f 620/140/4 621/148/4 622/440/4
f 622/440/4 621/148/4 623/441/4
f 623/442/5 618/148/5 622/443/5
f 622/443/5 618/148/5 619/444/5
f 621/442/6 616/148/6 623/445/6
f 623/445/6 616/148/6 618/441/6
o LowerTorso
usemtl c_c4281c
f 624/446/1 625/447/1 626/448/1
f 626/448/1 625/447/1 627/449/1
f 628/446/2 625/447/2 629/450/2
f 629/450/2 625/447/2 624/451/2
f 625/446/3 628/447/3 627/448/3
f 627/448/3 628/447/3 630/449/3
f 628/446/4 629/447/4 630/448/4
f 630/448/4 629/447/4 631/449/4
f 631/446/5 626/447/5 630/450/5
f 630/450/5 626/447/5 627/451/5
f 629/446/6 624/447/6 631/448/6
f 631/448/6 624/447/6 626/449/6
f 632/452/1 633/453/1 634/454/1
f 634/454/1 633/453/1 635/455/1
f 636/456/2 633/453/2 637/457/2
f 637/457/2 633/453/2 632/455/2
f 633/456/3 636/453/3 635/457/3
f 635/457/3 636/453/3 627/455/3
f 636/452/4 637/453/4 627/454/4
f 627/454/4 637/453/4 638/455/4
f 638/456/5 634/453/5 627/457/5
f 627/457/5 634/453/5 635/455/5
f 637/456/6 632/453/6 638/457/6
f 638/457/6 632/453/6 634/455/6
f 639/458/1 640/459/1 641/460/1
f 641/460/1 640/459/1 630/461/1
f 642/462/2 640/459/2 643/463/2
f 643/463/2 640/459/2 639/461/2
f 640/462/3 642/459/3 630/463/3
f 630/463/3 642/459/3 644/461/3
f 642/458/4 643/459/4 644/460/4
f 644/460/4 643/459/4 645/461/4
f 645/462/5 641/459/5 644/463/5
f 644/463/5 641/459/5 630/461/5
f 643/462/6 639/459/6 645/463/6
f 645/463/6 639/459/6 641/461/6
usemtl c_ffb000
f 646/464/1 647/465/1 648/466/1
f 648/466/1 647/465/1 649/467/1
f 650/464/2 647/465/2 651/466/2
f 651/466/2 647/465/2 646/467/2
f 647/464/3 650/465/3 649/466/3
f 649/466/3 650/465/3 652/467/3
f 650/464/4 651/465/4 652/466/4
f 652/466/4 651/465/4 653/467/4
f 653/464/5 648/465/5 652/466/5
f 652/466/5 648/465/5 649/467/5
f 651/464/6 646/465/6 653/466/6
f 653/466/6 646/465/6 648/467/6
f 654/458/1 624/468/1 638/469/1
f 638/469/1 624/468/1 626/470/1
f 629/471/2 624/468/2 655/472/2
f 655/472/2 624/468/2 654/473/2
f 624/471/3 629/468/3 626/474/3
f 626/474/3 629/468/3 631/470/3
f 629/458/4 655/468/4 631/469/4
f 631/469/4 655/468/4 641/470/4
f 641/471/5 638/468/5 631/472/5
f 631/472/5 638/468/5 626/473/5
f 655/471/6 654/468/6 641/474/6
f 641/474/6 654/468/6 638/470/6
