# Roblox asset pack: velociraptor (creatures), from the Studio model "Velociraptor". Exported with Export Selection, split by tools/build_creatures.py: one object per rigid body. Units: studs. +Y up, front faces -Z, pivot (bottom centre) at the origin.
mtllib velociraptor.mtl

v 1.87500 2.25000 -3.00000
v 1.87500 2.25000 -2.25000
v 1.87500 1.50000 -3.00000
v 1.87500 1.50000 -2.25000
v 1.12500 2.25000 -2.25000
v 1.12500 2.25000 -3.00000
v 1.12500 1.50000 -2.25000
v 1.12500 1.50000 -3.00000
v 1.87500 4.50000 -2.25000
v 1.87500 4.50000 -1.50000
v 1.87500 3.00000 -2.25000
v 1.87500 3.00000 -1.50000
v 1.12500 4.50000 -1.50000
v 1.12500 4.50000 -2.25000
v 1.12500 3.00000 -1.50000
v 1.12500 3.00000 -2.25000
v 1.87500 3.00000 -3.75000
v 1.87500 3.00000 -3.00000
v 1.87500 1.50000 -3.75000
v 1.12500 3.00000 -3.00000
v 1.12500 3.00000 -3.75000
v 1.12500 1.50000 -3.75000
v 1.87500 2.25000 -1.50000
v 1.12500 2.25000 -1.50000
v 0.37500 6.00000 -0.75000
v 0.37500 6.00000 0.00000
v 0.37500 5.25000 -0.75000
v 0.37500 5.25000 0.00000
v -0.37500 6.00000 0.00000
v -0.37500 6.00000 -0.75000
v -0.37500 5.25000 0.00000
v -0.37500 5.25000 -0.75000
v 0.37500 6.00000 0.75000
v 0.37500 6.00000 1.50000
v 0.37500 5.25000 0.75000
v 0.37500 5.25000 1.50000
v -0.37500 6.00000 1.50000
v -0.37500 6.00000 0.75000
v -0.37500 5.25000 1.50000
v -0.37500 5.25000 0.75000
v 1.12500 5.25000 0.75000
v 1.12500 5.25000 1.50000
v 1.12500 3.00000 0.75000
v 1.12500 3.00000 1.50000
v -1.12500 5.25000 1.50000
v -1.12500 5.25000 0.75000
v -1.12500 3.00000 1.50000
v -1.12500 3.00000 0.75000
v 1.12500 5.25000 -0.75000
v 1.12500 3.00000 -0.75000
v -1.12500 5.25000 -0.75000
v -1.12500 3.00000 -0.75000
v 1.12500 2.25000 -0.75000
v 1.12500 2.25000 1.50000
v -1.12500 2.25000 1.50000
v -1.12500 2.25000 -0.75000
v -1.12500 4.50000 0.75000
v -1.12500 4.50000 1.50000
v -2.62500 4.50000 1.50000
v -2.62500 4.50000 0.75000
v -2.62500 3.00000 1.50000
v -2.62500 3.00000 0.75000
v -1.12500 4.50000 -0.75000
v -1.12500 4.50000 0.00000
v -1.12500 3.00000 0.00000
v -2.62500 4.50000 0.00000
v -2.62500 4.50000 -0.75000
v -2.62500 3.00000 0.00000
v -2.62500 3.00000 -0.75000
v -2.62500 2.25000 1.50000
v -2.62500 2.25000 -0.75000
v 0.75000 5.25000 3.75000
v 0.75000 5.25000 5.25000
v 0.75000 4.50000 3.75000
v 0.75000 4.50000 5.25000
v -0.75000 5.25000 5.25000
v -0.75000 5.25000 3.75000
v -0.75000 4.50000 5.25000
v -0.75000 4.50000 3.75000
v 1.12500 5.25000 3.00000
v 1.12500 3.75000 1.50000
v 1.12500 3.75000 3.00000
v -1.12500 5.25000 3.00000
v -1.12500 3.75000 3.00000
v -1.12500 3.75000 1.50000
v 0.37500 5.25000 6.00000
v 0.37500 5.25000 7.50000
v 0.37500 4.50000 6.00000
v 0.37500 4.50000 7.50000
v -0.37500 5.25000 7.50000
v -0.37500 5.25000 6.00000
v -0.37500 4.50000 7.50000
v -0.37500 4.50000 6.00000
v 0.75000 4.50000 3.00000
v 0.75000 3.75000 3.00000
v 0.75000 3.75000 5.25000
v -0.75000 4.50000 3.00000
v -0.75000 3.75000 5.25000
v -0.75000 3.75000 3.00000
v 1.12500 3.00000 3.00000
v -1.12500 3.00000 3.00000
v 0.37500 5.25000 5.25000
v 0.37500 4.50000 5.25000
v -0.37500 5.25000 5.25000
v -0.37500 4.50000 5.25000
v 0.75000 5.25000 3.00000
v -0.75000 5.25000 3.00000
v 0.37500 6.00000 4.50000
v 0.37500 6.00000 5.25000
v 0.37500 5.25000 4.50000
v -0.37500 6.00000 5.25000
v -0.37500 6.00000 4.50000
v -0.37500 5.25000 4.50000
v 0.37500 6.00000 2.25000
v 0.37500 5.25000 2.25000
v -0.37500 6.00000 2.25000
v -0.37500 5.25000 2.25000
v 0.37500 6.00000 3.00000
v 0.37500 6.00000 3.75000
v 0.37500 5.25000 3.00000
v 0.37500 5.25000 3.75000
v -0.37500 6.00000 3.75000
v -0.37500 6.00000 3.00000
v -0.37500 5.25000 3.75000
v -0.37500 5.25000 3.00000
v -1.12500 0.75000 0.75000
v -1.12500 0.75000 2.25000
v -1.12500 0.00000 0.75000
v -1.12500 0.00000 2.25000
v -2.62500 0.75000 2.25000
v -2.62500 0.75000 0.75000
v -2.62500 0.00000 2.25000
v -2.62500 0.00000 0.75000
v -1.50000 1.50000 0.00000
v -1.50000 1.50000 0.75000
v -1.50000 0.75000 0.00000
v -1.50000 0.75000 0.75000
v -2.25000 1.50000 0.75000
v -2.25000 1.50000 0.00000
v -2.25000 0.75000 0.75000
v -2.25000 0.75000 0.00000
v -1.12500 0.75000 0.00000
v -1.12500 0.00000 0.00000
v -2.62500 0.75000 0.00000
v -2.62500 0.00000 0.00000
v -1.50000 1.50000 -0.75000
v -1.50000 0.75000 -0.75000
v -2.25000 1.50000 -0.75000
v -2.25000 0.75000 -0.75000
v -1.50000 3.00000 1.50000
v -1.50000 3.00000 2.25000
v -1.50000 0.75000 1.50000
v -1.50000 0.75000 2.25000
v -2.25000 3.00000 2.25000
v -2.25000 3.00000 1.50000
v -2.25000 0.75000 2.25000
v -2.25000 0.75000 1.50000
v -1.12500 4.50000 -2.25000
v -1.12500 4.50000 -1.50000
v -1.12500 3.00000 -2.25000
v -1.12500 3.00000 -1.50000
v -1.87500 4.50000 -1.50000
v -1.87500 4.50000 -2.25000
v -1.87500 3.00000 -1.50000
v -1.87500 3.00000 -2.25000
v -1.12500 3.00000 -3.00000
v -1.12500 2.25000 -3.00000
v -1.12500 2.25000 -1.50000
v -1.87500 3.00000 -3.00000
v -1.87500 2.25000 -1.50000
v -1.87500 2.25000 -3.00000
v -1.12500 3.00000 -3.75000
v -1.12500 1.50000 -3.75000
v -1.12500 1.50000 -3.00000
v -1.87500 3.00000 -3.75000
v -1.87500 1.50000 -3.00000
v -1.87500 1.50000 -3.75000
v -1.12500 2.25000 -2.25000
v -1.12500 1.50000 -2.25000
v -1.87500 2.25000 -2.25000
v -1.87500 1.50000 -2.25000
v 0.37500 6.00000 -1.50000
v 0.37500 5.25000 -1.50000
v -0.37500 6.00000 -1.50000
v -0.37500 5.25000 -1.50000
v 0.75000 3.75000 -3.75000
v 0.75000 3.75000 -2.25000
v 0.75000 3.00000 -3.75000
v 0.75000 3.00000 -2.25000
v -0.75000 3.75000 -2.25000
v -0.75000 3.75000 -3.75000
v -0.75000 3.00000 -2.25000
v -0.75000 3.00000 -3.75000
v 1.12500 5.25000 -1.50000
v -1.12500 5.25000 -1.50000
v 0.75000 5.25000 -3.75000
v 0.75000 5.25000 -2.25000
v -0.75000 5.25000 -2.25000
v -0.75000 5.25000 -3.75000
v 1.12500 5.25000 -2.25000
v -1.12500 5.25000 -2.25000
v 2.25000 1.50000 0.00000
v 2.25000 1.50000 0.75000
v 2.25000 0.75000 0.00000
v 2.25000 0.75000 0.75000
v 1.50000 1.50000 0.75000
v 1.50000 1.50000 0.00000
v 1.50000 0.75000 0.75000
v 1.50000 0.75000 0.00000
v 2.62500 0.75000 0.75000
v 2.62500 0.75000 2.25000
v 2.62500 0.00000 0.75000
v 2.62500 0.00000 2.25000
v 1.12500 0.75000 2.25000
v 1.12500 0.75000 0.75000
v 1.12500 0.00000 2.25000
v 1.12500 0.00000 0.75000
v 2.25000 1.50000 -0.75000
v 2.25000 0.75000 -0.75000
v 1.50000 1.50000 -0.75000
v 1.50000 0.75000 -0.75000
v 2.62500 0.75000 0.00000
v 2.62500 0.00000 0.00000
v 1.12500 0.75000 0.00000
v 1.12500 0.00000 0.00000
v 2.62500 3.00000 -0.75000
v 2.62500 3.00000 1.50000
v 2.62500 2.25000 -0.75000
v 2.62500 2.25000 1.50000
v 2.62500 4.50000 -0.75000
v 2.62500 4.50000 0.00000
v 2.62500 3.00000 0.00000
v 1.12500 4.50000 0.00000
v 1.12500 4.50000 -0.75000
v 1.12500 3.00000 0.00000
v 2.62500 4.50000 0.75000
v 2.62500 4.50000 1.50000
v 2.62500 3.00000 0.75000
v 1.12500 4.50000 1.50000
v 1.12500 4.50000 0.75000
v 0.37500 9.00000 -3.75000
v 0.37500 9.00000 -2.25000
v 0.37500 8.25000 -3.75000
v 0.37500 8.25000 -2.25000
v -0.37500 9.00000 -2.25000
v -0.37500 9.00000 -3.75000
v -0.37500 8.25000 -2.25000
v -0.37500 8.25000 -3.75000
v 0.37500 9.00000 -5.25000
v 0.37500 9.00000 -4.50000
v 0.37500 8.25000 -5.25000
v 0.37500 8.25000 -4.50000
v -0.37500 9.00000 -4.50000
v -0.37500 9.00000 -5.25000
v -0.37500 8.25000 -4.50000
v -0.37500 8.25000 -5.25000
v 0.37500 7.50000 -2.25000
v 0.37500 7.50000 -1.50000
v 0.37500 6.00000 -2.25000
v -0.37500 7.50000 -1.50000
v -0.37500 7.50000 -2.25000
v -0.37500 6.00000 -2.25000
v 1.50000 6.00000 -7.50000
v 1.50000 6.00000 -4.50000
v 1.50000 5.25000 -7.50000
v 1.50000 5.25000 -4.50000
v -1.50000 6.00000 -4.50000
v -1.50000 6.00000 -7.50000
v -1.50000 5.25000 -4.50000
v -1.50000 5.25000 -7.50000
v 1.50000 6.75000 -4.50000
v 1.50000 6.75000 -2.25000
v 1.50000 5.25000 -2.25000
v -1.50000 6.75000 -2.25000
v -1.50000 6.75000 -4.50000
v -1.50000 5.25000 -2.25000
v 1.50000 7.50000 -6.75000
v 1.50000 7.50000 -5.25000
v 1.50000 6.75000 -6.75000
v 1.50000 6.75000 -5.25000
v -1.50000 7.50000 -5.25000
v -1.50000 7.50000 -6.75000
v -1.50000 6.75000 -5.25000
v -1.50000 6.75000 -6.75000
v 1.50000 8.25000 -3.00000
v 1.50000 8.25000 -2.25000
v 1.50000 7.50000 -3.00000
v 1.50000 7.50000 -2.25000
v -1.50000 8.25000 -2.25000
v -1.50000 8.25000 -3.00000
v -1.50000 7.50000 -2.25000
v -1.50000 7.50000 -3.00000
v 1.50000 8.25000 -7.50000
v 1.50000 8.25000 -6.75000
v 1.50000 6.75000 -7.50000
v -1.50000 8.25000 -6.75000
v -1.50000 8.25000 -7.50000
v -1.50000 6.75000 -7.50000
v 1.50000 7.50000 -3.75000
v 1.50000 6.75000 -3.75000
v -1.50000 7.50000 -3.75000
v -1.50000 6.75000 -3.75000
v 1.50000 8.25000 -6.00000
v 1.50000 8.25000 -5.25000
v 1.50000 7.50000 -6.00000
v -1.50000 8.25000 -5.25000
v -1.50000 8.25000 -6.00000
v -1.50000 7.50000 -6.00000
v 1.50000 8.25000 -4.50000
v 1.50000 8.25000 -3.75000
v 1.50000 7.50000 -4.50000
v -1.50000 8.25000 -3.75000
v -1.50000 8.25000 -4.50000
v -1.50000 7.50000 -4.50000
v 0.75000 6.75000 -6.75000
v 0.75000 6.75000 -4.50000
v 0.75000 6.00000 -6.75000
v 0.75000 6.00000 -4.50000
v -0.75000 6.75000 -4.50000
v -0.75000 6.75000 -6.75000
v -0.75000 6.00000 -4.50000
v -0.75000 6.00000 -6.75000
v -1.50500 7.50000 -3.75000
v -1.50500 7.50000 -4.50000
v -1.50500 6.75000 -3.75000
v -1.50500 6.75000 -4.50000
v 1.50500 7.50000 -4.50000
v 1.50500 7.50000 -3.75000
v 1.50500 6.75000 -4.50000
v 1.50500 6.75000 -3.75000
v 2.25000 3.00000 1.50000
v 2.25000 3.00000 2.25000
v 2.25000 0.75000 1.50000
v 2.25000 0.75000 2.25000
v 1.50000 3.00000 2.25000
v 1.50000 3.00000 1.50000
v 1.50000 0.75000 2.25000
v 1.50000 0.75000 1.50000
vt 3.84375 -3.50000
vt 3.75000 -3.50000
vt 3.84375 -3.59375
vt 3.75000 -3.59375
vt 5.59375 0.00000
vt 5.50000 0.00000
vt 5.59375 -0.18750
vt 5.50000 -0.18750
vt 5.59375 -0.09375
vt 5.50000 -0.09375
vt 6.59375 -6.25000
vt 6.50000 -6.25000
vt 6.59375 -6.43750
vt 6.50000 -6.43750
vt 6.59375 -6.34375
vt 6.50000 -6.34375
vt 1.43750 -3.75000
vt 1.25000 -3.75000
vt 1.43750 -3.84375
vt 1.25000 -3.84375
vt 1.34375 -3.75000
vt 1.34375 -3.93750
vt 1.25000 -3.93750
vt 1.34375 -3.84375
vt 1.59375 0.50000
vt 1.50000 0.50000
vt 1.59375 0.40625
vt 1.50000 0.40625
vt 3.59375 -6.50000
vt 3.50000 -6.50000
vt 3.59375 -6.59375
vt 3.50000 -6.59375
vt 4.59375 -3.00000
vt 4.50000 -3.00000
vt 4.59375 -3.28125
vt 4.50000 -3.28125
vt 4.78125 -3.00000
vt 4.78125 -3.09375
vt 4.50000 -3.09375
vt 4.78125 -3.28125
vt 4.68750 -0.50000
vt 4.50000 -0.50000
vt 4.68750 -0.78125
vt 4.50000 -0.78125
vt 4.78125 -0.50000
vt 4.78125 -0.68750
vt 4.50000 -0.68750
vt 4.78125 -0.78125
vt 1.28125 -4.75000
vt 1.00000 -4.75000
vt 1.28125 -4.84375
vt 1.00000 -4.84375
vt 1.28125 -5.03125
vt 1.00000 -5.03125
vt 7.34375 -4.25000
vt 7.25000 -4.25000
vt 7.34375 -4.43750
vt 7.25000 -4.43750
vt 7.43750 -4.25000
vt 7.43750 -4.34375
vt 7.25000 -4.34375
vt 7.43750 -4.43750
vt 2.34375 -2.25000
vt 2.25000 -2.25000
vt 2.34375 -2.43750
vt 2.25000 -2.43750
vt 2.43750 -2.25000
vt 2.43750 -2.34375
vt 2.25000 -2.34375
vt 2.43750 -2.43750
vt 5.53125 -2.75000
vt 5.25000 -2.75000
vt 5.53125 -2.84375
vt 5.25000 -2.84375
vt 5.43750 -2.75000
vt 5.43750 -3.03125
vt 5.25000 -3.03125
vt 5.43750 -2.84375
vt 1.59375 -0.75000
vt 1.50000 -0.75000
vt 1.59375 -0.93750
vt 1.50000 -0.93750
vt 1.68750 -0.75000
vt 1.68750 -0.84375
vt 1.50000 -0.84375
vt 1.68750 -0.93750
vt 0.18750 -6.00000
vt 0.00000 -6.00000
vt 0.18750 -6.09375
vt 0.00000 -6.09375
vt 0.18750 -6.18750
vt 0.00000 -6.18750
vt 3.68750 -3.25000
vt 3.50000 -3.25000
vt 3.68750 -3.43750
vt 3.50000 -3.43750
vt 3.78125 -3.25000
vt 3.78125 -3.43750
vt 7.68750 -0.75000
vt 7.50000 -0.75000
vt 7.68750 -0.84375
vt 7.50000 -0.84375
vt 7.59375 -0.75000
vt 7.59375 -0.93750
vt 7.50000 -0.93750
vt 7.59375 -0.84375
vt 2.28125 -1.50000
vt 2.00000 -1.50000
vt 2.28125 -1.59375
vt 2.00000 -1.59375
vt 2.18750 -1.50000
vt 2.18750 -1.78125
vt 2.00000 -1.78125
vt 2.18750 -1.59375
vt 5.93750 0.25000
vt 5.75000 0.25000
vt 5.93750 0.15625
vt 5.75000 0.15625
vt 6.03125 0.25000
vt 6.03125 0.06250
vt 5.75000 0.06250
vt 6.03125 0.15625
vt 6.59375 -2.00000
vt 6.50000 -2.00000
vt 6.59375 -2.09375
vt 6.50000 -2.09375
vt 4.59375 -4.00000
vt 4.50000 -4.00000
vt 4.59375 -4.09375
vt 4.50000 -4.09375
vt 4.68750 -4.00000
vt 4.68750 -4.09375
vt 2.59375 0.25000
vt 2.50000 0.25000
vt 2.59375 0.15625
vt 2.50000 0.15625
vt 4.59375 -6.75000
vt 4.50000 -6.75000
vt 4.59375 -6.84375
vt 4.50000 -6.84375
vt 6.34375 -1.75000
vt 6.25000 -1.75000
vt 6.34375 -1.84375
vt 6.25000 -1.84375
vt 1.68750 -1.00000
vt 1.50000 -1.00000
vt 1.68750 -1.09375
vt 1.50000 -1.09375
vt 1.68750 -1.18750
vt 1.50000 -1.18750
vt 4.34375 -5.50000
vt 4.25000 -5.50000
vt 4.34375 -5.59375
vt 4.25000 -5.59375
vt 0.09375 -3.75000
vt 0.00000 -3.75000
vt 0.09375 -3.84375
vt 0.00000 -3.84375
vt 0.18750 -3.75000
vt 0.18750 -3.84375
vt 2.34375 -6.50000
vt 2.25000 -6.50000
vt 2.34375 -6.59375
vt 2.25000 -6.59375
vt 0.34375 -0.75000
vt 0.25000 -0.75000
vt 0.34375 -1.03125
vt 0.25000 -1.03125
vt 0.34375 -0.84375
vt 0.25000 -0.84375
vt 3.09375 -6.75000
vt 3.00000 -6.75000
vt 3.09375 -6.93750
vt 3.00000 -6.93750
vt 3.09375 -6.84375
vt 3.00000 -6.84375
vt 3.68750 -3.00000
vt 3.50000 -3.00000
vt 3.68750 -3.09375
vt 3.50000 -3.09375
vt 3.59375 -3.00000
vt 3.59375 -3.18750
vt 3.50000 -3.18750
vt 3.59375 -3.09375
vt 2.09375 -3.50000
vt 2.00000 -3.50000
vt 2.09375 -3.68750
vt 2.00000 -3.68750
vt 2.09375 -3.59375
vt 2.00000 -3.59375
vt 2.59375 -5.25000
vt 2.50000 -5.25000
vt 2.59375 -5.34375
vt 2.50000 -5.34375
vt 5.34375 -4.25000
vt 5.25000 -4.25000
vt 5.34375 -4.34375
vt 5.25000 -4.34375
vt 6.68750 -4.75000
vt 6.50000 -4.75000
vt 6.68750 -4.84375
vt 6.50000 -4.84375
vt 6.68750 -4.93750
vt 6.50000 -4.93750
vt 5.68750 -2.25000
vt 5.50000 -2.25000
vt 5.68750 -2.34375
vt 5.50000 -2.34375
vt 5.78125 -2.25000
vt 5.78125 -2.43750
vt 5.50000 -2.43750
vt 5.78125 -2.34375
vt 3.59375 -1.00000
vt 3.50000 -1.00000
vt 3.59375 -1.28125
vt 3.50000 -1.28125
vt 3.78125 -1.00000
vt 3.78125 -1.09375
vt 3.50000 -1.09375
vt 3.78125 -1.28125
vt 6.18750 -6.25000
vt 6.00000 -6.25000
vt 6.18750 -6.43750
vt 6.00000 -6.43750
vt 0.09375 -2.50000
vt 0.00000 -2.50000
vt 0.09375 -2.78125
vt 0.00000 -2.78125
vt 0.28125 -2.50000
vt 0.28125 -2.59375
vt 0.00000 -2.59375
vt 0.28125 -2.78125
vt 5.34375 -6.25000
vt 5.25000 -6.25000
vt 5.34375 -6.34375
vt 5.25000 -6.34375
vt 5.93750 -4.00000
vt 5.75000 -4.00000
vt 5.93750 -4.09375
vt 5.75000 -4.09375
vt 5.93750 -4.18750
vt 5.75000 -4.18750
vt 1.59375 0.25000
vt 1.50000 0.25000
vt 1.59375 0.15625
vt 1.50000 0.15625
vt 5.34375 -1.50000
vt 5.25000 -1.50000
vt 5.34375 -1.59375
vt 5.25000 -1.59375
vt 5.43750 -1.50000
vt 5.43750 -1.59375
vt 0.53125 -5.75000
vt 0.25000 -5.75000
vt 0.53125 -5.84375
vt 0.25000 -5.84375
vt 0.43750 -5.75000
vt 0.43750 -6.03125
vt 0.25000 -6.03125
vt 0.43750 -5.84375
vt 2.59375 -1.75000
vt 2.50000 -1.75000
vt 2.59375 -1.93750
vt 2.50000 -1.93750
vt 2.68750 -1.75000
vt 2.68750 -1.84375
vt 2.50000 -1.84375
vt 2.68750 -1.93750
vt 0.34375 -1.25000
vt 0.25000 -1.25000
vt 0.34375 -1.43750
vt 0.25000 -1.43750
vt 0.43750 -1.25000
vt 0.43750 -1.34375
vt 0.25000 -1.34375
vt 0.43750 -1.43750
vt 5.34375 -2.75000
vt 5.34375 -2.93750
vt 5.25000 -2.93750
vt 5.43750 -2.93750
vt 3.68750 -3.50000
vt 3.50000 -3.50000
vt 3.68750 -3.59375
vt 3.50000 -3.59375
vt 3.59375 -3.50000
vt 3.59375 -3.68750
vt 3.50000 -3.68750
vt 3.59375 -3.59375
vt 6.59375 0.00000
vt 6.50000 0.00000
vt 6.59375 -0.09375
vt 6.50000 -0.09375
vt 4.12500 1.00000
vt 3.75000 1.00000
vt 4.12500 0.90625
vt 3.75000 0.90625
vt 4.12500 0.62500
vt 3.75000 0.62500
vt 6.53125 -2.50000
vt 6.25000 -2.50000
vt 6.53125 -2.68750
vt 6.25000 -2.68750
vt 6.62500 -2.50000
vt 6.62500 -2.78125
vt 6.25000 -2.78125
vt 6.62500 -2.68750
vt 4.68750 -3.75000
vt 4.50000 -3.75000
vt 4.68750 -3.84375
vt 4.50000 -3.84375
vt 4.87500 -3.75000
vt 4.87500 -3.93750
vt 4.50000 -3.93750
vt 4.87500 -3.84375
vt 3.34375 -6.25000
vt 3.25000 -6.25000
vt 3.34375 -6.34375
vt 3.25000 -6.34375
vt 3.62500 -6.25000
vt 3.62500 -6.34375
vt 6.34375 -0.50000
vt 6.25000 -0.50000
vt 6.34375 -0.68750
vt 6.25000 -0.68750
vt 6.62500 -0.50000
vt 6.62500 -0.59375
vt 6.25000 -0.59375
vt 6.62500 -0.68750
vt 2.43750 -5.75000
vt 2.25000 -5.75000
vt 2.43750 -5.84375
vt 2.25000 -5.84375
vt 2.62500 -5.75000
vt 2.62500 -5.93750
vt 2.25000 -5.93750
vt 2.62500 -5.84375
vt 2.34375 0.25000
vt 2.25000 0.25000
vt 2.34375 0.15625
vt 2.25000 0.15625
vt 2.62500 0.25000
vt 2.62500 0.15625
vt 4.84375 -0.25000
vt 4.75000 -0.25000
vt 4.84375 -0.34375
vt 4.75000 -0.34375
vt 5.12500 -0.25000
vt 5.12500 -0.34375
vt 7.78125 0.50000
vt 7.50000 0.50000
vt 7.78125 0.40625
vt 7.50000 0.40625
vt 7.68750 0.50000
vt 7.68750 0.21875
vt 7.50000 0.21875
vt 7.68750 0.40625
vt 0.84375 -3.25000
vt 0.75000 -3.25000
vt 0.84375 -3.34375
vt 0.75000 -3.34375
vt 1.12500 -3.25000
vt 1.12500 -3.34375
vt 4.59375 -3.25000
vt 4.50000 -3.25000
vt 4.59375 -3.34375
vt 4.50000 -3.34375
vt 4.87500 -3.25000
vt 4.87500 -3.34375
vt 1.34375 -5.50000
vt 1.25000 -5.50000
vt 1.34375 -5.59375
vt 1.25000 -5.59375
vt 1.62500 -5.50000
vt 1.62500 -5.59375
vt 6.59375 -2.75000
vt 6.50000 -2.75000
vt 6.59375 -2.93750
vt 6.50000 -2.93750
vt 6.87500 -2.75000
vt 6.87500 -2.84375
vt 6.50000 -2.84375
vt 6.87500 -2.93750
vt 1.00000 1.00000
vt 0.00000 1.00000
vt 1.00000 0.00000
vt 0.00000 0.00000
vt 4.09375 -3.50000
vt 4.00000 -3.50000
vt 4.09375 -3.78125
vt 4.00000 -3.78125
vt 4.09375 -3.59375
vt 4.00000 -3.59375
vn 1.0000 0.0000 0.0000
vn 0.0000 1.0000 0.0000
vn 0.0000 0.0000 1.0000
vn -1.0000 0.0000 0.0000
vn 0.0000 -1.0000 0.0000
vn 0.0000 0.0000 -1.0000

o RightUpperArm
usemtl c_fef3bb
f 1/1/1 2/2/1 3/3/1
f 3/3/1 2/2/1 4/4/1
f 5/1/2 2/2/2 6/3/2
f 6/3/2 2/2/2 1/4/2
f 2/1/3 5/2/3 4/3/3
f 4/3/3 5/2/3 7/4/3
f 5/1/4 6/2/4 7/3/4
f 7/3/4 6/2/4 8/4/4
f 8/1/5 3/2/5 7/3/5
f 7/3/5 3/2/5 4/4/5
f 6/1/6 1/2/6 8/3/6
f 8/3/6 1/2/6 3/4/6
usemtl c_527cae
f 9/5/1 10/6/1 11/7/1
f 11/7/1 10/6/1 12/8/1
f 13/5/2 10/6/2 14/9/2
f 14/9/2 10/6/2 9/10/2
f 10/5/3 13/6/3 12/7/3
f 12/7/3 13/6/3 15/8/3
f 13/5/4 14/6/4 15/7/4
f 15/7/4 14/6/4 16/8/4
f 16/5/5 11/6/5 15/9/5
f 15/9/5 11/6/5 12/10/5
f 14/5/6 9/6/6 16/7/6
f 16/7/6 9/6/6 11/8/6
f 17/11/1 18/12/1 19/13/1
f 19/13/1 18/12/1 3/14/1
f 20/11/2 18/12/2 21/15/2
f 21/15/2 18/12/2 17/16/2
f 18/11/3 20/12/3 3/13/3
f 3/13/3 20/12/3 8/14/3
f 20/11/4 21/12/4 8/13/4
f 8/13/4 21/12/4 22/14/4
f 22/11/5 19/12/5 8/15/5
f 8/15/5 19/12/5 3/16/5
f 21/11/6 17/12/6 22/13/6
f 22/13/6 17/12/6 19/14/6
f 18/17/1 12/18/1 1/19/1
f 1/19/1 12/18/1 23/20/1
f 15/21/2 12/18/2 20/22/2
f 20/22/2 12/18/2 18/23/2
f 12/21/3 15/18/3 23/24/3
f 23/24/3 15/18/3 24/20/3
f 15/17/4 20/18/4 24/19/4
f 24/19/4 20/18/4 6/20/4
f 6/21/5 1/18/5 24/22/5
f 24/22/5 1/18/5 23/23/5
f 20/21/6 18/18/6 6/24/6
f 6/24/6 18/18/6 1/20/6
o LowerTorso
usemtl c_002060
f 25/25/1 26/26/1 27/27/1
f 27/27/1 26/26/1 28/28/1
f 29/25/2 26/26/2 30/27/2
f 30/27/2 26/26/2 25/28/2
f 26/25/3 29/26/3 28/27/3
f 28/27/3 29/26/3 31/28/3
f 29/25/4 30/26/4 31/27/4
f 31/27/4 30/26/4 32/28/4
f 32/25/5 27/26/5 31/27/5
f 31/27/5 27/26/5 28/28/5
f 30/25/6 25/26/6 32/27/6
f 32/27/6 25/26/6 27/28/6
f 33/29/1 34/30/1 35/31/1
f 35/31/1 34/30/1 36/32/1
f 37/29/2 34/30/2 38/31/2
f 38/31/2 34/30/2 33/32/2
f 34/29/3 37/30/3 36/31/3
f 36/31/3 37/30/3 39/32/3
f 37/29/4 38/30/4 39/31/4
f 39/31/4 38/30/4 40/32/4
f 40/29/5 35/30/5 39/31/5
f 39/31/5 35/30/5 36/32/5
f 38/29/6 33/30/6 40/31/6
f 40/31/6 33/30/6 35/32/6
usemtl c_335882
f 41/33/1 42/34/1 43/35/1
f 43/35/1 42/34/1 44/36/1
f 45/37/2 42/34/2 46/38/2
f 46/38/2 42/34/2 41/39/2
f 42/37/3 45/34/3 44/40/3
f 44/40/3 45/34/3 47/36/3
f 45/33/4 46/34/4 47/35/4
f 47/35/4 46/34/4 48/36/4
f 48/37/5 43/34/5 47/38/5
f 47/38/5 43/34/5 44/39/5
f 46/37/6 41/34/6 48/40/6
f 48/40/6 41/34/6 43/36/6
usemtl c_527cae
f 49/41/1 41/42/1 50/43/1
f 50/43/1 41/42/1 43/44/1
f 46/45/2 41/42/2 51/46/2
f 51/46/2 41/42/2 49/47/2
f 41/45/3 46/42/3 43/48/3
f 43/48/3 46/42/3 48/44/3
f 46/41/4 51/42/4 48/43/4
f 48/43/4 51/42/4 52/44/4
f 52/45/5 50/42/5 48/46/5
f 48/46/5 50/42/5 43/47/5
f 51/45/6 49/42/6 52/48/6
f 52/48/6 49/42/6 50/44/6
usemtl c_6e99ca
f 50/49/1 44/50/1 53/51/1
f 53/51/1 44/50/1 54/52/1
f 47/49/2 44/50/2 52/53/2
f 52/53/2 44/50/2 50/54/2
f 44/49/3 47/50/3 54/51/3
f 54/51/3 47/50/3 55/52/3
f 47/49/4 52/50/4 55/51/4
f 55/51/4 52/50/4 56/52/4
f 56/49/5 53/50/5 55/53/5
f 55/53/5 53/50/5 54/54/5
f 52/49/6 50/50/6 56/51/6
f 56/51/6 50/50/6 53/52/6
o LeftUpperLeg
usemtl c_527cae
f 57/55/1 58/56/1 48/57/1
f 48/57/1 58/56/1 47/58/1
f 59/59/2 58/56/2 60/60/2
f 60/60/2 58/56/2 57/61/2
f 58/59/3 59/56/3 47/62/3
f 47/62/3 59/56/3 61/58/3
f 59/55/4 60/56/4 61/57/4
f 61/57/4 60/56/4 62/58/4
f 62/59/5 48/56/5 61/60/5
f 61/60/5 48/56/5 47/61/5
f 60/59/6 57/56/6 62/62/6
f 62/62/6 57/56/6 48/58/6
f 63/63/1 64/64/1 52/65/1
f 52/65/1 64/64/1 65/66/1
f 66/67/2 64/64/2 67/68/2
f 67/68/2 64/64/2 63/69/2
f 64/67/3 66/64/3 65/70/3
f 65/70/3 66/64/3 68/66/3
f 66/63/4 67/64/4 68/65/4
f 68/65/4 67/64/4 69/66/4
f 69/67/5 52/64/5 68/68/5
f 68/68/5 52/64/5 65/69/5
f 67/67/6 63/64/6 69/70/6
f 69/70/6 63/64/6 52/66/6
f 52/71/1 47/72/1 56/73/1
f 56/73/1 47/72/1 55/74/1
f 61/75/2 47/72/2 69/76/2
f 69/76/2 47/72/2 52/77/2
f 47/75/3 61/72/3 55/78/3
f 55/78/3 61/72/3 70/74/3
f 61/71/4 69/72/4 70/73/4
f 70/73/4 69/72/4 71/74/4
f 71/75/5 56/72/5 70/76/5
f 70/76/5 56/72/5 55/77/5
f 69/75/6 52/72/6 71/78/6
f 71/78/6 52/72/6 56/74/6
usemtl c_335882
f 64/79/1 57/80/1 65/81/1
f 65/81/1 57/80/1 48/82/1
f 60/83/2 57/80/2 66/84/2
f 66/84/2 57/80/2 64/85/2
f 57/83/3 60/80/3 48/86/3
f 48/86/3 60/80/3 62/82/3
f 60/79/4 66/80/4 62/81/4
f 62/81/4 66/80/4 68/82/4
f 68/83/5 65/80/5 62/84/5
f 62/84/5 65/80/5 48/85/5
f 66/83/6 64/80/6 68/86/6
f 68/86/6 64/80/6 65/82/6
o Tail
usemtl c_527cae
f 72/87/1 73/88/1 74/89/1
f 74/89/1 73/88/1 75/90/1
f 76/87/2 73/88/2 77/91/2
f 77/91/2 73/88/2 72/92/2
f 73/87/3 76/88/3 75/89/3
f 75/89/3 76/88/3 78/90/3
f 76/87/4 77/88/4 78/89/4
f 78/89/4 77/88/4 79/90/4
f 79/87/5 74/88/5 78/91/5
f 78/91/5 74/88/5 75/92/5
f 77/87/6 72/88/6 79/89/6
f 79/89/6 72/88/6 74/90/6
f 42/93/1 80/94/1 81/95/1
f 81/95/1 80/94/1 82/96/1
f 83/97/2 80/94/2 45/98/2
f 45/98/2 80/94/2 42/96/2
f 80/97/3 83/94/3 82/98/3
f 82/98/3 83/94/3 84/96/3
f 83/93/4 45/94/4 84/95/4
f 84/95/4 45/94/4 85/96/4
f 85/97/5 81/94/5 84/98/5
f 84/98/5 81/94/5 82/96/5
f 45/97/6 42/94/6 85/98/6
f 85/98/6 42/94/6 81/96/6
f 86/99/1 87/100/1 88/101/1
f 88/101/1 87/100/1 89/102/1
f 90/103/2 87/100/2 91/104/2
f 91/104/2 87/100/2 86/105/2
f 87/103/3 90/100/3 89/106/3
f 89/106/3 90/100/3 92/102/3
f 90/99/4 91/100/4 92/101/4
f 92/101/4 91/100/4 93/102/4
f 93/103/5 88/100/5 92/104/5
f 92/104/5 88/100/5 89/105/5
f 91/103/6 86/100/6 93/106/6
f 93/106/6 86/100/6 88/102/6
usemtl c_6e99ca
f 94/107/1 75/108/1 95/109/1
f 95/109/1 75/108/1 96/110/1
f 78/111/2 75/108/2 97/112/2
f 97/112/2 75/108/2 94/113/2
f 75/111/3 78/108/3 96/114/3
f 96/114/3 78/108/3 98/110/3
f 78/107/4 97/108/4 98/109/4
f 98/109/4 97/108/4 99/110/4
f 99/111/5 95/108/5 98/112/5
f 98/112/5 95/108/5 96/113/5
f 97/111/6 94/108/6 99/114/6
f 99/114/6 94/108/6 95/110/6
f 81/115/1 82/116/1 44/117/1
f 44/117/1 82/116/1 100/118/1
f 84/119/2 82/116/2 85/120/2
f 85/120/2 82/116/2 81/121/2
f 82/119/3 84/116/3 100/122/3
f 100/122/3 84/116/3 101/118/3
f 84/115/4 85/116/4 101/117/4
f 101/117/4 85/116/4 47/118/4
f 47/119/5 44/116/5 101/120/5
f 101/120/5 44/116/5 100/121/5
f 85/119/6 81/116/6 47/122/6
f 47/122/6 81/116/6 44/118/6
usemtl c_335882
f 102/123/1 86/124/1 103/125/1
f 103/125/1 86/124/1 88/126/1
f 91/123/2 86/124/2 104/125/2
f 104/125/2 86/124/2 102/126/2
f 86/123/3 91/124/3 88/125/3
f 88/125/3 91/124/3 93/126/3
f 91/123/4 104/124/4 93/125/4
f 93/125/4 104/124/4 105/126/4
f 105/123/5 103/124/5 93/125/5
f 93/125/5 103/124/5 88/126/5
f 104/123/6 102/124/6 105/125/6
f 105/125/6 102/124/6 103/126/6
f 106/127/1 72/128/1 94/129/1
f 94/129/1 72/128/1 74/130/1
f 77/131/2 72/128/2 107/132/2
f 107/132/2 72/128/2 106/130/2
f 72/131/3 77/128/3 74/132/3
f 74/132/3 77/128/3 79/130/3
f 77/127/4 107/128/4 79/129/4
f 79/129/4 107/128/4 97/130/4
f 97/131/5 94/128/5 79/132/5
f 79/132/5 94/128/5 74/130/5
f 107/131/6 106/128/6 97/132/6
f 97/132/6 106/128/6 94/130/6
usemtl c_002060
f 108/133/1 109/134/1 110/135/1
f 110/135/1 109/134/1 102/136/1
f 111/133/2 109/134/2 112/135/2
f 112/135/2 109/134/2 108/136/2
f 109/133/3 111/134/3 102/135/3
f 102/135/3 111/134/3 104/136/3
f 111/133/4 112/134/4 104/135/4
f 104/135/4 112/134/4 113/136/4
f 113/133/5 110/134/5 104/135/5
f 104/135/5 110/134/5 102/136/5
f 112/133/6 108/134/6 113/135/6
f 113/135/6 108/134/6 110/136/6
f 34/137/1 114/138/1 36/139/1
f 36/139/1 114/138/1 115/140/1
f 116/137/2 114/138/2 37/139/2
f 37/139/2 114/138/2 34/140/2
f 114/137/3 116/138/3 115/139/3
f 115/139/3 116/138/3 117/140/3
f 116/137/4 37/138/4 117/139/4
f 117/139/4 37/138/4 39/140/4
f 39/137/5 36/138/5 117/139/5
f 117/139/5 36/138/5 115/140/5
f 37/137/6 34/138/6 39/139/6
f 39/139/6 34/138/6 36/140/6
f 118/141/1 119/142/1 120/143/1
f 120/143/1 119/142/1 121/144/1
f 122/141/2 119/142/2 123/143/2
f 123/143/2 119/142/2 118/144/2
f 119/141/3 122/142/3 121/143/3
f 121/143/3 122/142/3 124/144/3
f 122/141/4 123/142/4 124/143/4
f 124/143/4 123/142/4 125/144/4
f 125/141/5 120/142/5 124/143/5
f 124/143/5 120/142/5 121/144/5
f 123/141/6 118/142/6 125/143/6
f 125/143/6 118/142/6 120/144/6
o LeftFoot
usemtl c_527cae
f 126/145/1 127/146/1 128/147/1
f 128/147/1 127/146/1 129/148/1
f 130/145/2 127/146/2 131/149/2
f 131/149/2 127/146/2 126/150/2
f 127/145/3 130/146/3 129/147/3
f 129/147/3 130/146/3 132/148/3
f 130/145/4 131/146/4 132/147/4
f 132/147/4 131/146/4 133/148/4
f 133/145/5 128/146/5 132/149/5
f 132/149/5 128/146/5 129/150/5
f 131/145/6 126/146/6 133/147/6
f 133/147/6 126/146/6 128/148/6
f 134/151/1 135/152/1 136/153/1
f 136/153/1 135/152/1 137/154/1
f 138/151/2 135/152/2 139/153/2
f 139/153/2 135/152/2 134/154/2
f 135/151/3 138/152/3 137/153/3
f 137/153/3 138/152/3 140/154/3
f 138/151/4 139/152/4 140/153/4
f 140/153/4 139/152/4 141/154/4
f 141/151/5 136/152/5 140/153/5
f 140/153/5 136/152/5 137/154/5
f 139/151/6 134/152/6 141/153/6
f 141/153/6 134/152/6 136/154/6
usemtl c_fef3bb
f 142/155/1 126/156/1 143/157/1
f 143/157/1 126/156/1 128/158/1
f 131/159/2 126/156/2 144/160/2
f 144/160/2 126/156/2 142/158/2
f 126/159/3 131/156/3 128/160/3
f 128/160/3 131/156/3 133/158/3
f 131/155/4 144/156/4 133/157/4
f 133/157/4 144/156/4 145/158/4
f 145/159/5 143/156/5 133/160/5
f 133/160/5 143/156/5 128/158/5
f 144/159/6 142/156/6 145/160/6
f 145/160/6 142/156/6 143/158/6
f 146/161/1 134/162/1 147/163/1
f 147/163/1 134/162/1 136/164/1
f 139/161/2 134/162/2 148/163/2
f 148/163/2 134/162/2 146/164/2
f 134/161/3 139/162/3 136/163/3
f 136/163/3 139/162/3 141/164/3
f 139/161/4 148/162/4 141/163/4
f 141/163/4 148/162/4 149/164/4
f 149/161/5 147/162/5 141/163/5
f 141/163/5 147/162/5 136/164/5
f 148/161/6 146/162/6 149/163/6
f 149/163/6 146/162/6 147/164/6
o LeftLowerLeg
usemtl c_527cae
f 150/165/1 151/166/1 152/167/1
f 152/167/1 151/166/1 153/168/1
f 154/165/2 151/166/2 155/169/2
f 155/169/2 151/166/2 150/170/2
f 151/165/3 154/166/3 153/167/3
f 153/167/3 154/166/3 156/168/3
f 154/165/4 155/166/4 156/167/4
f 156/167/4 155/166/4 157/168/4
f 157/165/5 152/166/5 156/169/5
f 156/169/5 152/166/5 153/170/5
f 155/165/6 150/166/6 157/167/6
f 157/167/6 150/166/6 152/168/6
o LeftUpperArm
usemtl c_527cae
f 158/171/1 159/172/1 160/173/1
f 160/173/1 159/172/1 161/174/1
f 162/171/2 159/172/2 163/175/2
f 163/175/2 159/172/2 158/176/2
f 159/171/3 162/172/3 161/173/3
f 161/173/3 162/172/3 164/174/3
f 162/171/4 163/172/4 164/173/4
f 164/173/4 163/172/4 165/174/4
f 165/171/5 160/172/5 164/175/5
f 164/175/5 160/172/5 161/176/5
f 163/171/6 158/172/6 165/173/6
f 165/173/6 158/172/6 160/174/6
f 166/177/1 161/178/1 167/179/1
f 167/179/1 161/178/1 168/180/1
f 164/181/2 161/178/2 169/182/2
f 169/182/2 161/178/2 166/183/2
f 161/181/3 164/178/3 168/184/3
f 168/184/3 164/178/3 170/180/3
f 164/177/4 169/178/4 170/179/4
f 170/179/4 169/178/4 171/180/4
f 171/181/5 167/178/5 170/182/5
f 170/182/5 167/178/5 168/183/5
f 169/181/6 166/178/6 171/184/6
f 171/184/6 166/178/6 167/180/6
f 172/185/1 166/186/1 173/187/1
f 173/187/1 166/186/1 174/188/1
f 169/185/2 166/186/2 175/189/2
f 175/189/2 166/186/2 172/190/2
f 166/185/3 169/186/3 174/187/3
f 174/187/3 169/186/3 176/188/3
f 169/185/4 175/186/4 176/187/4
f 176/187/4 175/186/4 177/188/4
f 177/185/5 173/186/5 176/189/5
f 176/189/5 173/186/5 174/190/5
f 175/185/6 172/186/6 177/187/6
f 177/187/6 172/186/6 173/188/6
usemtl c_fef3bb
f 167/191/1 178/192/1 174/193/1
f 174/193/1 178/192/1 179/194/1
f 180/191/2 178/192/2 171/193/2
f 171/193/2 178/192/2 167/194/2
f 178/191/3 180/192/3 179/193/3
f 179/193/3 180/192/3 181/194/3
f 180/191/4 171/192/4 181/193/4
f 181/193/4 171/192/4 176/194/4
f 176/191/5 174/192/5 181/193/5
f 181/193/5 174/192/5 179/194/5
f 171/191/6 167/192/6 176/193/6
f 176/193/6 167/192/6 174/194/6
o UpperTorso
usemtl c_002060
f 182/195/1 25/196/1 183/197/1
f 183/197/1 25/196/1 27/198/1
f 30/195/2 25/196/2 184/197/2
f 184/197/2 25/196/2 182/198/2
f 25/195/3 30/196/3 27/197/3
f 27/197/3 30/196/3 32/198/3
f 30/195/4 184/196/4 32/197/4
f 32/197/4 184/196/4 185/198/4
f 185/195/5 183/196/5 32/197/5
f 32/197/5 183/196/5 27/198/5
f 184/195/6 182/196/6 185/197/6
f 185/197/6 182/196/6 183/198/6
usemtl c_6e99ca
f 186/199/1 187/200/1 188/201/1
f 188/201/1 187/200/1 189/202/1
f 190/199/2 187/200/2 191/203/2
f 191/203/2 187/200/2 186/204/2
f 187/199/3 190/200/3 189/201/3
f 189/201/3 190/200/3 192/202/3
f 190/199/4 191/200/4 192/201/4
f 192/201/4 191/200/4 193/202/4
f 193/199/5 188/200/5 192/203/5
f 192/203/5 188/200/5 189/204/5
f 191/199/6 186/200/6 193/201/6
f 193/201/6 186/200/6 188/202/6
f 16/205/1 50/206/1 5/207/1
f 5/207/1 50/206/1 53/208/1
f 52/209/2 50/206/2 160/210/2
f 160/210/2 50/206/2 16/211/2
f 50/209/3 52/206/3 53/212/3
f 53/212/3 52/206/3 56/208/3
f 52/205/4 160/206/4 56/207/4
f 56/207/4 160/206/4 178/208/4
f 178/209/5 5/206/5 56/210/5
f 56/210/5 5/206/5 53/211/5
f 160/209/6 16/206/6 178/212/6
f 178/212/6 16/206/6 5/208/6
usemtl c_335882
f 194/213/1 49/214/1 15/215/1
f 15/215/1 49/214/1 50/216/1
f 51/217/2 49/214/2 195/218/2
f 195/218/2 49/214/2 194/219/2
f 49/217/3 51/214/3 50/220/3
f 50/220/3 51/214/3 52/216/3
f 51/213/4 195/214/4 52/215/4
f 52/215/4 195/214/4 161/216/4
f 161/217/5 15/214/5 52/218/5
f 52/218/5 15/214/5 50/219/5
f 195/217/6 194/214/6 161/220/6
f 161/220/6 194/214/6 15/216/6
usemtl c_527cae
f 196/221/1 197/222/1 186/223/1
f 186/223/1 197/222/1 187/224/1
f 198/221/2 197/222/2 199/223/2
f 199/223/2 197/222/2 196/224/2
f 197/221/3 198/222/3 187/223/3
f 187/223/3 198/222/3 190/224/3
f 198/221/4 199/222/4 190/223/4
f 190/223/4 199/222/4 191/224/4
f 191/221/5 186/222/5 190/223/5
f 190/223/5 186/222/5 187/224/5
f 199/221/6 196/222/6 191/223/6
f 191/223/6 196/222/6 186/224/6
f 200/225/1 194/226/1 16/227/1
f 16/227/1 194/226/1 15/228/1
f 195/229/2 194/226/2 201/230/2
f 201/230/2 194/226/2 200/231/2
f 194/229/3 195/226/3 15/232/3
f 15/232/3 195/226/3 161/228/3
f 195/225/4 201/226/4 161/227/4
f 161/227/4 201/226/4 160/228/4
f 160/229/5 16/226/5 161/230/5
f 161/230/5 16/226/5 15/231/5
f 201/229/6 200/226/6 160/232/6
f 160/232/6 200/226/6 16/228/6
o RightFoot
usemtl c_527cae
f 202/233/1 203/234/1 204/235/1
f 204/235/1 203/234/1 205/236/1
f 206/233/2 203/234/2 207/235/2
f 207/235/2 203/234/2 202/236/2
f 203/233/3 206/234/3 205/235/3
f 205/235/3 206/234/3 208/236/3
f 206/233/4 207/234/4 208/235/4
f 208/235/4 207/234/4 209/236/4
f 209/233/5 204/234/5 208/235/5
f 208/235/5 204/234/5 205/236/5
f 207/233/6 202/234/6 209/235/6
f 209/235/6 202/234/6 204/236/6
f 210/237/1 211/238/1 212/239/1
f 212/239/1 211/238/1 213/240/1
f 214/237/2 211/238/2 215/241/2
f 215/241/2 211/238/2 210/242/2
f 211/237/3 214/238/3 213/239/3
f 213/239/3 214/238/3 216/240/3
f 214/237/4 215/238/4 216/239/4
f 216/239/4 215/238/4 217/240/4
f 217/237/5 212/238/5 216/241/5
f 216/241/5 212/238/5 213/242/5
f 215/237/6 210/238/6 217/239/6
f 217/239/6 210/238/6 212/240/6
usemtl c_fef3bb
f 218/243/1 202/244/1 219/245/1
f 219/245/1 202/244/1 204/246/1
f 207/243/2 202/244/2 220/245/2
f 220/245/2 202/244/2 218/246/2
f 202/243/3 207/244/3 204/245/3
f 204/245/3 207/244/3 209/246/3
f 207/243/4 220/244/4 209/245/4
f 209/245/4 220/244/4 221/246/4
f 221/243/5 219/244/5 209/245/5
f 209/245/5 219/244/5 204/246/5
f 220/243/6 218/244/6 221/245/6
f 221/245/6 218/244/6 219/246/6
f 222/247/1 210/248/1 223/249/1
f 223/249/1 210/248/1 212/250/1
f 215/251/2 210/248/2 224/252/2
f 224/252/2 210/248/2 222/250/2
f 210/251/3 215/248/3 212/252/3
f 212/252/3 215/248/3 217/250/3
f 215/247/4 224/248/4 217/249/4
f 217/249/4 224/248/4 225/250/4
f 225/251/5 223/248/5 217/252/5
f 217/252/5 223/248/5 212/250/5
f 224/251/6 222/248/6 225/252/6
f 225/252/6 222/248/6 223/250/6
o RightUpperLeg
usemtl c_527cae
f 226/253/1 227/254/1 228/255/1
f 228/255/1 227/254/1 229/256/1
f 44/257/2 227/254/2 50/258/2
f 50/258/2 227/254/2 226/259/2
f 227/257/3 44/254/3 229/260/3
f 229/260/3 44/254/3 54/256/3
f 44/253/4 50/254/4 54/255/4
f 54/255/4 50/254/4 53/256/4
f 53/257/5 228/254/5 54/258/5
f 54/258/5 228/254/5 229/259/5
f 50/257/6 226/254/6 53/260/6
f 53/260/6 226/254/6 228/256/6
f 230/261/1 231/262/1 226/263/1
f 226/263/1 231/262/1 232/264/1
f 233/265/2 231/262/2 234/266/2
f 234/266/2 231/262/2 230/267/2
f 231/265/3 233/262/3 232/268/3
f 232/268/3 233/262/3 235/264/3
f 233/261/4 234/262/4 235/263/4
f 235/263/4 234/262/4 50/264/4
f 50/265/5 226/262/5 235/266/5
f 235/266/5 226/262/5 232/267/5
f 234/265/6 230/262/6 50/268/6
f 50/268/6 230/262/6 226/264/6
f 236/269/1 237/270/1 238/271/1
f 238/271/1 237/270/1 227/272/1
f 239/273/2 237/270/2 240/274/2
f 240/274/2 237/270/2 236/275/2
f 237/273/3 239/270/3 227/276/3
f 227/276/3 239/270/3 44/272/3
f 239/269/4 240/270/4 44/271/4
f 44/271/4 240/270/4 43/272/4
f 43/273/5 238/270/5 44/274/5
f 44/274/5 238/270/5 227/275/5
f 240/273/6 236/270/6 43/276/6
f 43/276/6 236/270/6 238/272/6
usemtl c_335882
f 231/277/1 236/72/1 232/278/1
f 232/278/1 236/72/1 238/279/1
f 240/75/2 236/72/2 233/78/2
f 233/78/2 236/72/2 231/74/2
f 236/75/3 240/72/3 238/280/3
f 238/280/3 240/72/3 43/279/3
f 240/277/4 233/72/4 43/278/4
f 43/278/4 233/72/4 235/279/4
f 235/75/5 232/72/5 43/78/5
f 43/78/5 232/72/5 238/74/5
f 233/75/6 231/72/6 235/280/6
f 235/280/6 231/72/6 232/279/6
o Head
usemtl c_002060
f 241/281/1 242/282/1 243/283/1
f 243/283/1 242/282/1 244/284/1
f 245/285/2 242/282/2 246/286/2
f 246/286/2 242/282/2 241/287/2
f 242/285/3 245/282/3 244/288/3
f 244/288/3 245/282/3 247/284/3
f 245/281/4 246/282/4 247/283/4
f 247/283/4 246/282/4 248/284/4
f 248/285/5 243/282/5 247/286/5
f 247/286/5 243/282/5 244/287/5
f 246/285/6 241/282/6 248/288/6
f 248/288/6 241/282/6 243/284/6
f 249/289/1 250/290/1 251/291/1
f 251/291/1 250/290/1 252/292/1
f 253/289/2 250/290/2 254/291/2
f 254/291/2 250/290/2 249/292/2
f 250/289/3 253/290/3 252/291/3
f 252/291/3 253/290/3 255/292/3
f 253/289/4 254/290/4 255/291/4
f 255/291/4 254/290/4 256/292/4
f 256/289/5 251/290/5 255/291/5
f 255/291/5 251/290/5 252/292/5
f 254/289/6 249/290/6 256/291/6
f 256/291/6 249/290/6 251/292/6
f 257/103/1 258/100/1 259/104/1
f 259/104/1 258/100/1 182/105/1
f 260/103/2 258/100/2 261/106/2
f 261/106/2 258/100/2 257/102/2
f 258/103/3 260/100/3 182/104/3
f 182/104/3 260/100/3 184/105/3
f 260/103/4 261/100/4 184/104/4
f 184/104/4 261/100/4 262/105/4
f 262/103/5 259/100/5 184/106/5
f 184/106/5 259/100/5 182/102/5
f 261/103/6 257/100/6 262/104/6
f 262/104/6 257/100/6 259/105/6
usemtl c_6e99ca
f 263/293/1 264/294/1 265/295/1
f 265/295/1 264/294/1 266/296/1
f 267/293/2 264/294/2 268/297/2
f 268/297/2 264/294/2 263/298/2
f 264/293/3 267/294/3 266/295/3
f 266/295/3 267/294/3 269/296/3
f 267/293/4 268/294/4 269/295/4
f 269/295/4 268/294/4 270/296/4
f 270/293/5 265/294/5 269/297/5
f 269/297/5 265/294/5 266/298/5
f 268/293/6 263/294/6 270/295/6
f 270/295/6 263/294/6 265/296/6
f 271/299/1 272/300/1 266/301/1
f 266/301/1 272/300/1 273/302/1
f 274/303/2 272/300/2 275/304/2
f 275/304/2 272/300/2 271/305/2
f 272/303/3 274/300/3 273/306/3
f 273/306/3 274/300/3 276/302/3
f 274/299/4 275/300/4 276/301/4
f 276/301/4 275/300/4 269/302/4
f 269/303/5 266/300/5 276/304/5
f 276/304/5 266/300/5 273/305/5
f 275/303/6 271/300/6 269/306/6
f 269/306/6 271/300/6 266/302/6
usemtl c_527cae
f 277/307/1 278/308/1 279/309/1
f 279/309/1 278/308/1 280/310/1
f 281/311/2 278/308/2 282/312/2
f 282/312/2 278/308/2 277/313/2
f 278/311/3 281/308/3 280/314/3
f 280/314/3 281/308/3 283/310/3
f 281/307/4 282/308/4 283/309/4
f 283/309/4 282/308/4 284/310/4
f 284/311/5 279/308/5 283/312/5
f 283/312/5 279/308/5 280/313/5
f 282/311/6 277/308/6 284/314/6
f 284/314/6 277/308/6 279/310/6
f 285/315/1 286/316/1 287/317/1
f 287/317/1 286/316/1 288/318/1
f 289/319/2 286/316/2 290/320/2
f 290/320/2 286/316/2 285/318/2
f 286/319/3 289/316/3 288/320/3
f 288/320/3 289/316/3 291/318/3
f 289/315/4 290/316/4 291/317/4
f 291/317/4 290/316/4 292/318/4
f 292/319/5 287/316/5 291/320/5
f 291/320/5 287/316/5 288/318/5
f 290/319/6 285/316/6 292/320/6
f 292/320/6 285/316/6 287/318/6
f 293/321/1 294/322/1 295/323/1
f 295/323/1 294/322/1 279/324/1
f 296/325/2 294/322/2 297/326/2
f 297/326/2 294/322/2 293/327/2
f 294/325/3 296/322/3 279/328/3
f 279/328/3 296/322/3 284/324/3
f 296/321/4 297/322/4 284/323/4
f 284/323/4 297/322/4 298/324/4
f 298/325/5 295/322/5 284/326/5
f 284/326/5 295/322/5 279/327/5
f 297/325/6 293/322/6 298/328/6
f 298/328/6 293/322/6 295/324/6
f 299/329/1 288/330/1 300/331/1
f 300/331/1 288/330/1 272/332/1
f 291/333/2 288/330/2 301/334/2
f 301/334/2 288/330/2 299/335/2
f 288/333/3 291/330/3 272/336/3
f 272/336/3 291/330/3 274/332/3
f 291/329/4 301/330/4 274/331/4
f 274/331/4 301/330/4 302/332/4
f 302/333/5 300/330/5 274/334/5
f 274/334/5 300/330/5 272/335/5
f 301/333/6 299/330/6 302/336/6
f 302/336/6 299/330/6 300/332/6
f 303/337/1 304/338/1 305/339/1
f 305/339/1 304/338/1 278/340/1
f 306/341/2 304/338/2 307/342/2
f 307/342/2 304/338/2 303/340/2
f 304/341/3 306/338/3 278/342/3
f 278/342/3 306/338/3 281/340/3
f 306/337/4 307/338/4 281/339/4
f 281/339/4 307/338/4 308/340/4
f 308/341/5 305/338/5 281/342/5
f 281/342/5 305/338/5 278/340/5
f 307/341/6 303/338/6 308/342/6
f 308/342/6 303/338/6 305/340/6
f 309/343/1 310/344/1 311/345/1
f 311/345/1 310/344/1 299/346/1
f 312/347/2 310/344/2 313/348/2
f 313/348/2 310/344/2 309/346/2
f 310/347/3 312/344/3 299/348/3
f 299/348/3 312/344/3 301/346/3
f 312/343/4 313/344/4 301/345/4
f 301/345/4 313/344/4 314/346/4
f 314/347/5 311/344/5 301/348/5
f 301/348/5 311/344/5 299/346/5
f 313/347/6 309/344/6 314/348/6
f 314/348/6 309/344/6 311/346/6
usemtl c_c4281c
f 315/349/1 316/350/1 317/351/1
f 317/351/1 316/350/1 318/352/1
f 319/353/2 316/350/2 320/354/2
f 320/354/2 316/350/2 315/355/2
f 316/353/3 319/350/3 318/356/3
f 318/356/3 319/350/3 321/352/3
f 319/349/4 320/350/4 321/351/4
f 321/351/4 320/350/4 322/352/4
f 322/353/5 317/350/5 321/354/5
f 321/354/5 317/350/5 318/355/5
f 320/353/6 315/350/6 322/356/6
f 322/356/6 315/350/6 317/352/6
usemtl c_f8f8f8
f 311/357/1 299/358/1 271/359/1
f 271/359/1 299/358/1 300/360/1
f 301/361/2 299/358/2 314/362/2
f 314/362/2 299/358/2 311/360/2
f 299/361/3 301/358/3 300/362/3
f 300/362/3 301/358/3 302/360/3
f 301/357/4 314/358/4 302/359/4
f 302/359/4 314/358/4 275/360/4
f 275/361/5 271/358/5 302/362/5
f 302/362/5 271/358/5 300/360/5
f 314/361/6 311/358/6 275/362/6
f 275/362/6 311/358/6 271/360/6
usemtl c_335882
f 294/363/1 303/364/1 277/365/1
f 277/365/1 303/364/1 305/366/1
f 307/367/2 303/364/2 296/368/2
f 296/368/2 303/364/2 294/366/2
f 303/367/3 307/364/3 305/368/3
f 305/368/3 307/364/3 308/366/3
f 307/363/4 296/364/4 308/365/4
f 308/365/4 296/364/4 282/366/4
f 282/367/5 277/364/5 308/368/5
f 308/368/5 277/364/5 305/366/5
f 296/367/6 294/364/6 282/368/6
f 282/368/6 294/364/6 277/366/6
f 310/369/1 285/370/1 299/371/1
f 299/371/1 285/370/1 287/372/1
f 290/373/2 285/370/2 312/374/2
f 312/374/2 285/370/2 310/372/2
f 285/373/3 290/370/3 287/374/3
f 287/374/3 290/370/3 292/372/3
f 290/369/4 312/370/4 292/371/4
f 292/371/4 312/370/4 301/372/4
f 301/373/5 299/370/5 292/374/5
f 292/374/5 299/370/5 287/372/5
f 312/373/6 310/370/6 301/374/6
f 301/374/6 310/370/6 299/372/6
f 304/375/1 309/376/1 280/377/1
f 280/377/1 309/376/1 271/378/1
f 313/379/2 309/376/2 306/380/2
f 306/380/2 309/376/2 304/381/2
f 309/379/3 313/376/3 271/382/3
f 271/382/3 313/376/3 275/378/3
f 313/375/4 306/376/4 275/377/4
f 275/377/4 306/376/4 283/378/4
f 283/379/5 280/376/5 275/380/5
f 275/380/5 280/376/5 271/381/5
f 306/379/6 304/376/6 283/382/6
f 283/382/6 304/376/6 280/378/6
o Head_decal1
usemtl head_decal1
f 323/383/4 324/384/4 325/385/4
f 325/385/4 324/384/4 326/386/4
o Head_decal2
usemtl head_decal2
f 327/383/1 328/384/1 329/385/1
f 329/385/1 328/384/1 330/386/1
o RightLowerLeg
usemtl c_527cae
f 331/387/1 332/388/1 333/389/1
f 333/389/1 332/388/1 334/390/1
f 335/387/2 332/388/2 336/391/2
f 336/391/2 332/388/2 331/392/2
f 332/387/3 335/388/3 334/389/3
f 334/389/3 335/388/3 337/390/3
f 335/387/4 336/388/4 337/389/4
f 337/389/4 336/388/4 338/390/4
f 338/387/5 333/388/5 337/391/5
f 337/391/5 333/388/5 334/392/5
f 336/387/6 331/388/6 338/389/6
f 338/389/6 331/388/6 333/390/6
