# Roblox asset pack: egg_stegosaurus (props), from the Studio model "Stegosaurus". Exported with Export Selection, split by tools/build_creatures.py: one object per rigid body. Units: studs. +Y up, front faces -Z, pivot (bottom centre) at the origin.
mtllib egg_stegosaurus.mtl

v -2.32510 6.39000 -2.33000
v 2.32510 6.39000 -2.33000
v -2.32510 0.58000 -2.33000
v 2.32510 0.58000 -2.33000
v 2.32510 6.39000 2.33000
v -2.32510 6.39000 2.33000
v 2.32510 0.58000 2.33000
v -2.32510 0.58000 2.33000
v -2.61580 6.10000 -2.62000
v -0.29070 6.10000 -2.62000
v -2.61580 3.78000 -2.62000
v -0.29070 3.78000 -2.62000
v -0.29070 6.10000 -0.29000
v -2.61580 6.10000 -0.29000
v -0.29070 3.78000 -0.29000
v -2.61580 3.78000 -0.29000
v -2.61580 3.20000 0.29000
v -0.29070 3.20000 0.29000
v -2.61580 0.87000 0.29000
v -0.29070 0.87000 0.29000
v -0.29070 3.20000 2.62000
v -2.61580 3.20000 2.62000
v -0.29070 0.87000 2.62000
v -2.61580 0.87000 2.62000
v 0.29070 4.36000 -2.62000
v 2.61580 4.36000 -2.62000
v 0.29070 2.03000 -2.62000
v 2.61580 2.03000 -2.62000
v 2.61580 4.36000 -0.29000
v 0.29070 4.36000 -0.29000
v 2.61580 2.03000 -0.29000
v 0.29070 2.03000 -0.29000
v -2.03450 7.27000 -2.03000
v 2.03450 7.27000 -2.03000
v -2.03450 0.00000 -2.03000
v 2.03450 0.00000 -2.03000
v 2.03450 7.27000 2.03000
v -2.03450 7.27000 2.03000
v 2.03450 0.00000 2.03000
v -2.03450 0.00000 2.03000
vt 0.58128 -1.00000
vt 0.00000 -1.00000
vt 0.58128 -1.72660
vt 0.00000 -1.72660
vt 0.58128 -1.58128
vt 0.00000 -1.58128
vt 5.04064 -4.75000
vt 4.75000 -4.75000
vt 5.04064 -5.04064
vt 4.75000 -5.04064
vt 4.04064 -1.50000
vt 3.75000 -1.50000
vt 4.04064 -1.79064
vt 3.75000 -1.79064
vt 6.04064 -1.50000
vt 5.75000 -1.50000
vt 6.04064 -1.79064
vt 5.75000 -1.79064
vt 4.50862 -0.75000
vt 4.00000 -0.75000
vt 4.50862 -1.65825
vt 4.00000 -1.65825
vt 4.50862 -1.25862
vt 4.00000 -1.25862
vn 0.0000 0.0000 -1.0000
vn 0.0000 1.0000 0.0000
vn 1.0000 0.0000 0.0000
vn 0.0000 0.0000 1.0000
vn 0.0000 -1.0000 0.0000
vn -1.0000 0.0000 0.0000

o egg_stegosaurus
usemtl c_f8d96d
f 1/1/1 2/2/1 3/3/1
f 3/3/1 2/2/1 4/4/1
f 5/1/2 2/2/2 6/5/2
f 6/5/2 2/2/2 1/6/2
f 2/1/3 5/2/3 4/3/3
f 4/3/3 5/2/3 7/4/3
f 5/1/4 6/2/4 7/3/4
f 7/3/4 6/2/4 8/4/4
f 8/1/5 3/2/5 7/5/5
f 7/5/5 3/2/5 4/6/5
f 6/1/6 1/2/6 8/3/6
f 8/3/6 1/2/6 3/4/6
usemtl c_5b9a4c
f 9/7/1 10/8/1 11/9/1
f 11/9/1 10/8/1 12/10/1
f 13/7/2 10/8/2 14/9/2
f 14/9/2 10/8/2 9/10/2
f 10/7/3 13/8/3 12/9/3
f 12/9/3 13/8/3 15/10/3
f 13/7/4 14/8/4 15/9/4
f 15/9/4 14/8/4 16/10/4
f 16/7/5 11/8/5 15/9/5
f 15/9/5 11/8/5 12/10/5
f 14/7/6 9/8/6 16/9/6
f 16/9/6 9/8/6 11/10/6
f 17/11/1 18/12/1 19/13/1
f 19/13/1 18/12/1 20/14/1
f 21/11/2 18/12/2 22/13/2
f 22/13/2 18/12/2 17/14/2
f 18/11/3 21/12/3 20/13/3
f 20/13/3 21/12/3 23/14/3
f 21/11/4 22/12/4 23/13/4
f 23/13/4 22/12/4 24/14/4
f 24/11/5 19/12/5 23/13/5
f 23/13/5 19/12/5 20/14/5
f 22/11/6 17/12/6 24/13/6
f 24/13/6 17/12/6 19/14/6
usemtl c_4b974b
f 25/15/1 26/16/1 27/17/1
f 27/17/1 26/16/1 28/18/1
f 29/15/2 26/16/2 30/17/2
f 30/17/2 26/16/2 25/18/2
f 26/15/3 29/16/3 28/17/3
f 28/17/3 29/16/3 31/18/3
f 29/15/4 30/16/4 31/17/4
f 31/17/4 30/16/4 32/18/4
f 32/15/5 27/16/5 31/17/5
f 31/17/5 27/16/5 28/18/5
f 30/15/6 25/16/6 32/17/6
f 32/17/6 25/16/6 27/18/6
usemtl c_fdea8d
f 33/19/1 34/20/1 35/21/1
f 35/21/1 34/20/1 36/22/1
f 37/19/2 34/20/2 38/23/2
f 38/23/2 34/20/2 33/24/2
f 34/19/3 37/20/3 36/21/3
f 36/21/3 37/20/3 39/22/3
f 37/19/4 38/20/4 39/21/4
f 39/21/4 38/20/4 40/22/4
f 40/19/5 35/20/5 39/23/5
f 39/23/5 35/20/5 36/24/5
f 38/19/6 33/20/6 40/21/6
f 40/21/6 33/20/6 35/22/6
