# Roblox asset pack: animal_cow (creatures), from the Studio model "Cow". Exported with Export Selection, split by tools/build_creatures.py: one object per rigid body. Units: studs. +Y up, front faces -Z, pivot (bottom centre) at the origin.
mtllib animal_cow.mtl

v 3.25900 1.26000 0.02000
v 3.41800 1.54000 -0.23000
v 3.41800 1.54000 0.23000
v 3.25900 1.26000 -0.02000
v 3.26200 1.76000 0.11000
v 3.26200 1.76000 -0.11000
v 3.21900 2.32000 -0.15000
v 3.21900 2.32000 0.15000
v 3.17500 2.87000 -0.19000
v 3.17500 2.87000 0.19000
v 3.08500 3.36000 0.20000
v 3.08500 3.36000 -0.20000
v -3.41800 3.85000 0.14000
v -3.41800 3.50000 0.35000
v -3.41800 3.85000 0.35000
v -3.41800 3.50000 0.14000
v -3.41800 3.85000 -0.14000
v -3.41800 3.50000 -0.35000
v -3.41800 3.50000 -0.14000
v -3.41800 3.85000 -0.35000
v -3.35600 3.97000 0.62000
v -3.35600 3.32000 -0.62000
v -3.35600 3.32000 0.62000
v -3.35600 3.97000 -0.62000
v 2.43500 1.64000 1.26000
v 2.43500 3.08000 -1.26000
v 2.43500 3.08000 1.26000
v 2.43500 1.64000 -1.26000
v 2.31800 1.41000 1.35000
v 2.26700 2.27000 0.73000
v 2.26700 2.27000 1.35000
v 2.31800 1.41000 0.73000
v -2.11200 5.09000 -0.49000
v -1.89500 5.00000 -0.69000
v -2.17700 5.00000 -0.69000
v -1.96000 5.09000 -0.49000
v -1.99600 5.09000 -0.42000
v -2.07500 5.09000 -0.42000
v -1.89500 5.00000 0.69000
v -2.11200 5.09000 0.49000
v -2.17700 5.00000 0.69000
v -1.96000 5.09000 0.49000
v -1.99600 5.09000 0.42000
v -2.07500 5.09000 0.42000
v -2.99100 4.12000 0.46000
v -2.99100 4.49000 0.17000
v -2.99100 4.12000 0.17000
v -2.99100 4.49000 0.46000
v -2.99100 4.49000 -0.17000
v -2.99100 4.12000 -0.46000
v -2.99100 4.12000 -0.17000
v -2.99100 4.49000 -0.46000
v -2.96400 4.62000 0.11000
v -2.96400 4.08000 0.54000
v -2.96400 4.62000 0.54000
v -2.96400 4.08000 0.11000
v -2.96400 4.62000 -0.11000
v -2.96400 4.08000 -0.54000
v -2.96400 4.08000 -0.11000
v -2.96400 4.62000 -0.54000
v 2.11000 0.00000 1.38000
v 2.11000 0.26000 1.07000
v 2.11000 0.26000 1.38000
v 2.11000 0.00000 1.07000
v 2.11000 0.00000 1.02000
v 2.11000 0.26000 1.02000
v 2.11000 0.26000 0.71000
v 2.11000 0.00000 0.71000
v 2.11000 0.00000 -1.02000
v 2.11000 0.26000 -0.71000
v 2.11000 0.00000 -0.71000
v 2.11000 0.26000 -1.02000
v 2.11000 0.26000 -1.07000
v 2.11000 0.00000 -1.07000
v 2.11000 0.00000 -1.38000
v 2.11000 0.26000 -1.38000
v -2.05400 5.18000 0.37000
v -2.01700 5.17000 0.33000
v -2.05400 5.17000 0.33000
v -2.01700 5.18000 0.37000
v -2.91000 4.79000 -0.84000
v -2.91000 3.11000 0.84000
v -2.91000 4.79000 0.84000
v -2.91000 3.11000 -0.84000
v -2.05400 5.18000 -0.37000
v -2.05400 5.17000 -0.33000
v -2.01700 5.17000 -0.33000
v -2.01700 5.18000 -0.37000
v 2.06200 0.26000 1.35000
v 2.05400 1.26000 0.73000
v 2.05400 1.26000 1.35000
v 2.06200 0.26000 0.73000
v -1.46900 0.00000 1.07000
v -1.33800 0.00000 1.38000
v -1.46900 0.00000 1.38000
v -1.33800 0.00000 1.07000
v -0.67000 0.00000 1.38000
v -0.67000 0.00000 1.07000
v -1.33800 0.00000 1.02000
v -0.67000 0.00000 1.02000
v -1.33800 0.00000 0.71000
v -0.67000 0.00000 0.71000
v -1.46900 0.00000 1.02000
v -1.46900 0.00000 0.71000
v 1.31200 0.00000 1.38000
v 1.31200 0.00000 1.07000
v 1.44300 0.00000 1.07000
v 1.44300 0.00000 1.38000
v 1.44300 0.00000 1.02000
v 1.44300 0.00000 0.71000
v 1.31200 0.00000 1.02000
v 1.31200 0.00000 0.71000
v -1.46900 0.00000 -1.02000
v -1.33800 0.00000 -0.71000
v -1.46900 0.00000 -0.71000
v -1.33800 0.00000 -1.02000
v -0.67000 0.00000 -1.02000
v -0.67000 0.00000 -0.71000
v -0.67000 0.00000 -1.07000
v -1.33800 0.00000 -1.07000
v -0.67000 0.00000 -1.38000
v -1.33800 0.00000 -1.38000
v -1.46900 0.00000 -1.38000
v -1.46900 0.00000 -1.07000
v 1.31200 0.00000 -1.38000
v 1.44300 0.00000 -1.07000
v 1.31200 0.00000 -1.07000
v 1.44300 0.00000 -1.38000
v 1.44300 0.00000 -1.02000
v 1.44300 0.00000 -0.71000
v 1.31200 0.00000 -1.02000
v 1.31200 0.00000 -0.71000
v 2.13100 3.34000 1.26000
v 2.11200 3.36000 1.08000
v 1.75800 3.66000 1.26000
v 1.75800 3.66000 0.83000
v 2.11600 3.35000 -1.26000
v 1.95700 3.49000 -0.88000
v 1.75800 3.66000 -0.67000
v 1.75800 3.66000 -1.26000
v -1.55900 4.79000 0.84000
v -1.55900 4.79000 -0.84000
v -2.83500 4.62000 0.11000
v -2.83500 4.62000 0.54000
v -2.83500 4.62000 -0.11000
v -2.83500 4.62000 -0.54000
v -2.04900 4.37000 -0.84000
v -2.04900 4.34000 -1.02000
v -2.10800 4.37000 -0.84000
v -2.10800 4.34000 -1.02000
v -2.10800 4.46000 -0.76000
v -2.04900 4.46000 -0.76000
v -2.17700 4.92000 0.42000
v -2.19800 4.63000 0.57000
v -2.19800 4.77000 0.28000
v -2.11200 4.96000 0.41000
v -2.07500 5.04000 0.35000
v -2.17700 4.92000 -0.42000
v -2.19800 4.63000 -0.57000
v -2.19800 4.77000 -0.28000
v -2.11200 4.96000 -0.41000
v -2.07500 5.04000 -0.35000
v -2.10800 4.37000 0.84000
v -2.10800 4.34000 1.02000
v -2.04900 4.34000 1.02000
v -2.04900 4.37000 0.84000
v -2.10800 4.46000 0.76000
v -2.04900 4.46000 0.76000
v -2.10800 4.61000 1.08000
v -2.10800 4.51000 1.45000
v -1.91300 4.61000 1.08000
v -1.91300 4.51000 1.45000
v -2.10800 4.50000 0.64000
v -1.91300 4.50000 0.64000
v -2.10800 4.61000 -1.08000
v -2.10800 4.50000 -0.64000
v -1.91300 4.50000 -0.64000
v -1.91300 4.61000 -1.08000
v -2.10800 4.51000 -1.45000
v -1.91300 4.51000 -1.45000
v -1.39800 4.33000 0.69000
v -2.45800 3.46000 -0.69000
v -2.45800 3.46000 0.69000
v -1.39800 4.33000 -0.69000
v -2.90400 4.49000 0.17000
v -2.90400 4.49000 0.46000
v -2.90400 4.49000 -0.17000
v -2.90400 4.49000 -0.46000
v 3.21400 1.26000 0.02000
v 3.21400 1.26000 -0.02000
v 2.77300 3.52000 -0.23000
v 2.77300 3.52000 0.23000
v 2.43000 3.66000 -0.25000
v 2.43000 3.66000 0.25000
v 1.92900 3.50000 0.27000
v -2.10800 4.31000 0.81000
v -2.10800 4.27000 1.03000
v -2.10800 4.49000 1.29000
v -2.10800 4.54000 1.08000
v -2.10800 4.27000 -1.03000
v -2.10800 4.31000 -0.81000
v -2.10800 4.49000 -1.29000
v -2.10800 4.54000 -1.08000
v -2.04900 4.54000 1.08000
v -2.04900 4.49000 1.29000
v -2.04900 4.54000 -1.08000
v -2.04900 4.49000 -1.29000
v -2.84100 3.97000 0.62000
v -2.84100 3.97000 -0.62000
v 1.79900 2.62000 1.35000
v 1.79900 2.62000 0.73000
v -1.87400 4.77000 0.28000
v -1.89500 4.92000 0.42000
v -3.26000 3.22000 -0.62000
v -3.26000 3.22000 0.62000
v -1.46900 0.26000 -1.38000
v -1.33800 0.26000 -1.38000
v -0.67000 0.26000 -1.38000
v 1.31200 0.26000 -1.38000
v 1.44300 0.26000 -1.38000
v -1.31900 1.26000 -1.35000
v -0.69900 0.26000 -1.35000
v -1.31900 0.26000 -1.35000
v -0.69900 1.26000 -1.35000
v -1.31900 1.41000 -1.35000
v -0.56000 1.41000 -1.35000
v -0.61100 2.27000 -1.35000
v -1.31900 2.27000 -1.35000
v -3.32700 3.85000 0.35000
v -3.32700 3.85000 0.14000
v -3.32700 3.85000 -0.14000
v -3.32700 3.85000 -0.35000
v -1.87400 4.77000 -0.28000
v -1.89500 4.92000 -0.42000
v -1.67100 1.95000 -1.26000
v -0.35400 3.37000 -1.26000
v -0.83300 1.31000 -1.26000
v 0.10600 1.40000 -1.26000
v -0.38300 3.66000 -1.26000
v -1.67100 3.66000 -1.26000
v 0.84600 2.33000 -1.26000
v 1.12800 3.22000 -1.26000
v 1.21600 3.66000 -1.26000
v 2.12000 3.18000 -1.26000
v 1.52900 2.93000 -1.26000
v -1.46900 0.26000 1.38000
v -1.33800 0.26000 1.38000
v -0.67000 0.26000 1.38000
v 1.31200 0.26000 1.38000
v 1.44300 0.26000 1.38000
v -1.31900 1.26000 1.35000
v -1.31900 0.26000 1.35000
v -0.69900 0.26000 1.35000
v -0.69900 1.26000 1.35000
v -1.31900 1.41000 1.35000
v -0.56000 1.41000 1.35000
v -0.61100 2.27000 1.35000
v -1.31900 2.27000 1.35000
v 1.33200 1.26000 1.35000
v 1.69300 1.26000 1.35000
v 1.23500 1.41000 1.35000
v 1.44100 0.26000 1.35000
v 1.75200 0.26000 1.35000
v 1.82500 1.41000 1.35000
v 1.33200 2.27000 1.35000
v -1.67100 1.95000 1.26000
v -1.67100 3.66000 1.26000
v 0.70700 3.66000 1.26000
v 0.78000 3.66000 0.67000
v 1.60500 3.66000 0.65000
v 0.30100 3.66000 -0.05000
v -0.89800 3.66000 1.26000
v 0.95900 3.66000 -0.75000
v 2.97300 1.47000 -0.23000
v -0.45900 2.13000 1.26000
v -1.10100 2.66000 1.26000
v -0.83300 1.31000 1.26000
v -1.16000 3.25000 1.26000
v -0.67000 3.42000 1.26000
v -0.58500 2.77000 1.26000
v -0.21200 2.28000 1.26000
v 0.89800 3.00000 1.26000
v 1.93600 2.80000 1.26000
v 2.97300 1.47000 0.23000
v -1.46900 0.26000 -1.02000
v -1.33800 0.26000 -1.02000
v 1.31200 0.26000 -1.02000
v 1.44300 0.26000 -1.02000
v -1.46900 0.26000 1.07000
v -1.46900 0.26000 1.02000
v -1.46900 0.26000 0.71000
v -1.46900 0.26000 -0.71000
v -1.46900 0.26000 -1.07000
v -1.33800 0.26000 1.02000
v 1.31200 0.26000 1.02000
v 1.44300 0.26000 1.02000
v -1.21900 1.95000 0.69000
v -1.21900 1.95000 -0.69000
v -1.33800 0.26000 1.07000
v -1.33800 0.26000 -1.07000
v -1.22800 4.46000 -0.84000
v -1.22800 3.11000 -0.84000
v -1.31900 1.26000 0.73000
v -1.31900 0.26000 0.73000
v -1.31900 1.41000 0.73000
v -1.31900 2.27000 0.73000
v -1.31900 1.26000 -0.73000
v -1.31900 0.26000 -0.73000
v -1.31900 1.41000 -0.73000
v -1.31900 2.27000 -0.73000
v -1.22800 4.46000 0.84000
v -1.22800 3.11000 0.84000
v -0.15900 2.83000 -0.69000
v -2.84100 3.22000 -0.62000
v 2.12200 3.00000 0.27000
v 2.43400 3.15000 -0.25000
v 2.43400 3.15000 0.25000
v 2.12200 3.00000 -0.27000
v -0.69900 1.26000 0.73000
v -0.56000 1.41000 0.73000
v -0.15900 2.83000 0.69000
v -0.69900 1.26000 -0.73000
v -0.56000 1.41000 -0.73000
v -2.83500 4.08000 -0.54000
v -2.84100 3.22000 0.62000
v -2.90400 4.12000 -0.46000
v -2.83500 4.08000 0.54000
v -3.32700 3.50000 -0.35000
v -2.90400 4.12000 0.46000
v 3.04800 1.73000 -0.11000
v 2.93800 2.27000 -0.15000
v 2.82800 2.81000 -0.19000
v 2.77000 3.09000 -0.20000
v 2.61900 3.10000 -0.23000
v -3.32700 3.50000 0.35000
v 2.82800 2.81000 0.19000
v 2.93800 2.27000 0.15000
v 2.77000 3.09000 0.20000
v 3.04800 1.73000 0.11000
v 2.61900 3.10000 0.23000
v -2.83500 4.08000 0.11000
v -3.32700 3.50000 0.14000
v -2.90400 4.12000 0.17000
v -1.87400 4.63000 -0.57000
v -2.83500 4.08000 -0.11000
v -0.61100 2.27000 0.73000
v -0.61100 2.27000 -0.73000
v -3.32700 3.50000 -0.14000
v -1.87400 4.63000 0.57000
v -2.90400 4.12000 -0.17000
v -0.67000 0.26000 1.07000
v -0.67000 0.26000 1.02000
v -0.67000 0.26000 0.71000
v -0.67000 0.26000 -0.71000
v -0.67000 0.26000 -1.02000
v -0.67000 0.26000 -1.07000
v -0.69900 0.26000 0.73000
v -0.69900 0.26000 -0.73000
v -1.33800 0.26000 0.71000
v 1.31200 0.26000 0.71000
v 1.44300 0.26000 0.71000
v 1.23500 1.41000 0.73000
v 1.69300 1.26000 0.73000
v 1.33200 1.26000 0.73000
v 1.44100 0.26000 0.73000
v 1.75200 0.26000 0.73000
v 1.82500 1.41000 0.73000
v 1.33200 2.27000 0.73000
v -1.33800 0.26000 -0.71000
v 1.44300 0.26000 -0.71000
v 1.31200 0.26000 -0.71000
v 1.31200 0.26000 1.07000
v 1.44300 0.26000 1.07000
v -1.91300 4.27000 -1.03000
v -1.96000 4.96000 0.41000
v -1.99600 5.04000 0.35000
v -1.99600 5.04000 -0.35000
v -1.96000 4.96000 -0.41000
v -1.91300 4.27000 1.03000
v 1.44300 0.26000 -1.07000
v 1.31200 0.26000 -1.07000
v -1.91300 4.31000 0.81000
v -1.91300 4.31000 -0.81000
v 1.92900 3.50000 -0.27000
v 2.26700 2.27000 -1.35000
v 1.79900 2.62000 -0.73000
v 2.26700 2.27000 -0.73000
v 1.79900 2.62000 -1.35000
v 1.33200 2.27000 -0.73000
v 1.33200 2.27000 -1.35000
v 2.31800 1.41000 -1.35000
v 2.31800 1.41000 -0.73000
v 1.23500 1.41000 -0.73000
v 1.33200 1.26000 -1.35000
v 1.33200 1.26000 -0.73000
v 1.44100 0.26000 -1.35000
v 1.44100 0.26000 -0.73000
v 1.23500 1.41000 -1.35000
v 2.05400 1.26000 -0.73000
v 2.05400 1.26000 -1.35000
v 1.69300 1.26000 -1.35000
v 1.75200 0.26000 -1.35000
v 2.06200 0.26000 -1.35000
v 1.82500 1.41000 -1.35000
v 2.06200 0.26000 -0.73000
v 1.69300 1.26000 -0.73000
v 1.75200 0.26000 -0.73000
v 1.82500 1.41000 -0.73000
vt 0.97515 0.35950
vt 0.99707 0.38769
vt 0.95726 0.38769
vt 0.97918 0.35950
vt 0.96761 0.41170
vt 0.98672 0.41170
vt 0.99013 0.46053
vt 0.96420 0.46053
vt 0.99354 0.50936
vt 0.96080 0.50936
vt 0.95911 0.55324
vt 0.99524 0.55324
vt 0.97756 0.28727
vt 0.99672 0.25679
vt 0.99672 0.28727
vt 0.97756 0.25679
vt 1.97757 0.28727
vt 1.99671 0.25679
vt 1.97757 0.25679
vt 1.99671 0.28727
vt 0.98102 0.00293
vt 0.92357 0.11271
vt 0.92355 0.00294
vt 0.98104 0.11270
vt 0.00293 0.81764
vt 0.12995 0.59514
vt 0.12993 0.81766
vt 0.00295 0.59512
vt 0.41918 0.60261
vt 0.47394 0.67822
vt 0.41919 0.67823
vt 0.47393 0.60260
vt 1.39998 0.00866
vt 1.42010 0.02778
vt 1.42010 0.00293
vt 1.39998 0.02205
vt 1.39380 0.01885
vt 1.39380 0.01186
vt 0.42010 0.02778
vt 0.39998 0.00866
vt 0.42010 0.00293
vt 0.39998 0.02205
vt 0.39380 0.01885
vt 0.39380 0.01186
vt 0.22125 0.33207
vt 0.19583 0.36428
vt 0.19583 0.33207
vt 0.22125 0.36428
vt 1.19583 0.36428
vt 1.22125 0.33207
vt 1.19583 0.33207
vt 1.22125 0.36428
vt 0.30243 0.92011
vt 0.34005 0.87244
vt 0.34005 0.92011
vt 0.30243 0.87244
vt 1.30243 0.92011
vt 1.34005 0.87244
vt 1.30243 0.87244
vt 1.34005 0.92011
vt 0.05369 0.88032
vt 0.07685 0.85316
vt 0.07685 0.88032
vt 0.05369 0.85316
vt 0.05369 0.84862
vt 0.07685 0.84862
vt 0.07685 0.82146
vt 0.05369 0.82146
vt 1.05369 0.84862
vt 1.07685 0.82146
vt 1.05369 0.82146
vt 1.07685 0.84862
vt 1.07685 0.85316
vt 1.05369 0.85316
vt 1.05369 0.88032
vt 1.07685 0.88032
vt 0.38182 0.00293
vt 0.37857 0.00618
vt 0.37857 0.00293
vt 0.38182 0.00618
vt 0.63746 0.72149
vt 0.78585 0.57310
vt 0.78585 0.72149
vt 0.63746 0.57310
vt 1.38182 0.00293
vt 1.37857 0.00293
vt 1.37857 0.00618
vt 1.38182 0.00618
vt 0.17552 0.86415
vt 0.23027 0.95273
vt 0.17552 0.95273
vt 0.23027 0.86415
vt 0.37527 0.87238
vt 0.34811 0.88392
vt 0.34811 0.87238
vt 0.37527 0.88392
vt 0.34811 0.94278
vt 0.37527 0.94278
vt 0.37982 0.88392
vt 0.37982 0.94278
vt 0.40698 0.88392
vt 0.40698 0.94278
vt 0.37982 0.87238
vt 0.40698 0.87238
vt 0.66792 0.87750
vt 0.69508 0.87750
vt 0.69508 0.88903
vt 0.66792 0.88903
vt 0.66792 0.94790
vt 0.69508 0.94790
vt 0.69962 0.88903
vt 0.69962 0.94790
vt 0.72678 0.88903
vt 0.72678 0.94790
vt 0.69962 0.87750
vt 0.72678 0.87750
vt 1.37982 0.87238
vt 1.40698 0.88392
vt 1.40698 0.87238
vt 1.37982 0.88392
vt 1.37982 0.94278
vt 1.40698 0.94278
vt 1.37527 0.94278
vt 1.37527 0.88392
vt 1.34811 0.94278
vt 1.34811 0.88392
vt 1.34811 0.87238
vt 1.37527 0.87238
vt 1.66792 0.87750
vt 1.69508 0.88903
vt 1.69508 0.87750
vt 1.66792 0.88903
vt 1.66792 0.94790
vt 1.69508 0.94790
vt 1.69962 0.88903
vt 1.69962 0.94790
vt 1.72678 0.88903
vt 1.72678 0.94790
vt 1.69962 0.87750
vt 1.72678 0.87750
vt 0.16542 0.81766
vt 0.16760 0.80169
vt 0.20892 0.81766
vt 0.20893 0.77988
vt 0.16710 0.59514
vt 0.18567 0.62849
vt 0.20894 0.64704
vt 0.20895 0.59515
vt 0.66023 0.90319
vt 0.54101 0.90319
vt 0.54101 0.75480
vt 0.66023 0.75480
vt 0.93826 0.11652
vt 0.93826 0.17127
vt 0.91158 0.11652
vt 0.91157 0.17126
vt 0.79608 0.32054
vt 0.79608 0.35816
vt 0.78467 0.32054
vt 0.78467 0.35816
vt 1.79608 0.35816
vt 1.79608 0.32054
vt 1.78467 0.32054
vt 1.78467 0.35816
vt 1.98773 0.01421
vt 1.98772 0.03005
vt 1.99291 0.01421
vt 1.99291 0.03005
vt 1.99291 0.00293
vt 1.98773 0.00293
vt 0.37911 0.56285
vt 0.39954 0.54202
vt 0.39954 0.57700
vt 0.37130 0.54628
vt 0.37881 0.57984
vt 0.37396 0.56735
vt 0.37192 0.57882
vt 0.36740 0.57349
vt 0.36334 0.58426
vt 0.36618 0.58583
vt 1.37911 0.56285
vt 1.39954 0.54202
vt 1.37130 0.54628
vt 1.39954 0.57700
vt 1.37881 0.57984
vt 1.37396 0.56735
vt 1.37192 0.57882
vt 1.36740 0.57349
vt 1.36334 0.58426
vt 1.36618 0.58583
vt 0.99291 0.01421
vt 0.99291 0.03005
vt 0.98772 0.03005
vt 0.98772 0.01421
vt 0.99291 0.00293
vt 0.98773 0.00293
vt 0.80191 0.28330
vt 0.80190 0.31673
vt 0.78467 0.28330
vt 0.78467 0.31673
vt 0.80191 0.24276
vt 0.78468 0.24276
vt 1.80191 0.28330
vt 1.80191 0.24276
vt 1.78468 0.24276
vt 1.78467 0.28330
vt 1.80190 0.31673
vt 1.78467 0.31673
vt 0.65777 0.29590
vt 0.77894 0.41709
vt 0.65776 0.41708
vt 0.77895 0.29591
vt 0.39136 0.39576
vt 0.39136 0.42119
vt 0.38365 0.39576
vt 0.38365 0.42119
vt 1.39136 0.42119
vt 1.39136 0.39576
vt 1.38365 0.39576
vt 1.38365 0.42119
vt 0.80659 0.20674
vt 0.80659 0.21076
vt 0.80257 0.21076
vt 0.80257 0.20674
vt 0.90535 0.43857
vt 0.94532 0.43857
vt 0.94339 0.46970
vt 0.90727 0.46969
vt 0.90316 0.40608
vt 0.94752 0.40609
vt 0.94926 0.35996
vt 0.28605 0.55029
vt 0.26766 0.55253
vt 0.28561 0.54439
vt 0.27162 0.55683
vt 0.31210 0.55773
vt 0.26616 0.56669
vt 0.32656 0.55609
vt 0.25674 0.57224
vt 0.29729 0.57223
vt 0.29586 0.56668
vt 1.28561 0.54439
vt 1.26766 0.55253
vt 1.28605 0.55029
vt 1.27162 0.55683
vt 1.31210 0.55773
vt 1.26616 0.56669
vt 1.32656 0.55609
vt 1.25674 0.57224
vt 1.29728 0.57223
vt 1.29586 0.56668
vt 1.03851 0.00293
vt 1.03339 0.01179
vt 1.04038 0.01179
vt 1.03526 0.00293
vt 0.33720 0.58241
vt 0.31297 0.57255
vt 0.32739 0.56601
vt 0.30750 0.58241
vt 0.35344 0.57345
vt 1.31297 0.57255
vt 1.33720 0.58241
vt 1.32739 0.56601
vt 1.35344 0.57345
vt 1.30750 0.58241
vt 0.03339 0.01179
vt 0.03851 0.00293
vt 0.04038 0.01179
vt 0.03526 0.00293
vt 0.00293 0.93122
vt 0.00293 0.82145
vt 0.04837 0.93122
vt 0.04837 0.82145
vt 0.41920 0.73012
vt 0.47395 0.73012
vt 0.78467 0.36384
vt 0.81323 0.36384
vt 0.81138 0.38207
vt 0.78652 0.38207
vt 0.91159 0.11271
vt 0.91157 0.00294
vt 1.59685 0.90700
vt 1.62000 0.91854
vt 1.62000 0.90700
vt 1.59685 0.91854
vt 1.59685 0.97740
vt 1.62000 0.97740
vt 1.23644 0.91071
vt 1.25959 0.92225
vt 1.25959 0.91071
vt 1.23644 0.92225
vt 1.23644 0.98111
vt 1.25959 0.98111
vt 1.97350 0.26711
vt 1.91876 0.35569
vt 1.97350 0.35569
vt 1.91876 0.26711
vt 1.97350 0.25402
vt 1.90650 0.25402
vt 1.91101 0.17853
vt 1.97350 0.17853
vt 0.00293 0.05305
vt 0.00293 0.03390
vt 0.01097 0.05305
vt 0.01097 0.03390
vt 1.01097 0.05305
vt 1.01097 0.03390
vt 1.00293 0.03390
vt 1.00293 0.05305
vt 1.81323 0.36384
vt 1.78467 0.36384
vt 1.81138 0.38207
vt 1.78652 0.38207
vt 0.05990 0.00293
vt 0.18494 0.11909
vt 0.00293 0.07676
vt 0.01128 0.15963
vt 0.21070 0.11646
vt 0.21070 0.00293
vt 0.09271 0.22486
vt 0.03197 0.36499
vt 0.17156 0.24973
vt 0.21070 0.25752
vt 0.15896 0.36499
vt 0.21070 0.30529
vt 0.16820 0.33724
vt 0.18330 0.33692
vt 0.14553 0.28514
vt 0.59685 0.90700
vt 0.62000 0.90700
vt 0.62000 0.91854
vt 0.59685 0.91854
vt 0.59685 0.97740
vt 0.62000 0.97740
vt 0.23644 0.91071
vt 0.25959 0.91071
vt 0.25959 0.92225
vt 0.23644 0.92225
vt 0.23644 0.98111
vt 0.25959 0.98111
vt 0.97350 0.26711
vt 0.97350 0.35569
vt 0.91876 0.35569
vt 0.91876 0.26711
vt 0.97350 0.25402
vt 0.90650 0.25402
vt 0.91101 0.17853
vt 0.97350 0.17853
vt 0.89191 0.51113
vt 0.86007 0.51113
vt 0.90046 0.49804
vt 0.88225 0.59971
vt 0.85488 0.59971
vt 0.82822 0.51113
vt 0.82751 0.59971
vt 0.84844 0.49804
vt 0.89191 0.42256
vt 0.80497 0.49804
vt 0.85070 0.39102
vt 0.80948 0.42256
vt 0.09621 0.36881
vt 0.24701 0.36883
vt 0.09619 0.59133
vt 0.24698 0.59134
vt 0.65185 0.21263
vt 0.65185 0.30529
vt 0.59992 0.21908
vt 0.61407 0.30529
vt 0.59757 0.29185
vt 0.53591 0.17678
vt 0.48122 0.30529
vt 0.65185 0.07110
vt 0.65185 0.00293
vt 0.42933 0.00293
vt 0.42933 0.11646
vt 0.42933 0.25752
vt 0.42933 0.30529
vt 0.47407 0.23484
vt 0.82448 0.23896
vt 0.78467 0.23895
vt 0.35122 0.10977
vt 0.30458 0.05316
vt 0.36693 0.00293
vt 0.42390 0.07676
vt 0.25298 0.04798
vt 0.21613 0.00293
vt 0.21613 0.07110
vt 0.23796 0.09120
vt 0.21613 0.21263
vt 0.29468 0.09868
vt 0.33864 0.13155
vt 0.39486 0.36499
vt 0.27504 0.22945
vt 0.21613 0.30529
vt 0.24462 0.33817
vt 0.29245 0.32096
vt 0.26787 0.36499
vt 0.00296 0.36880
vt 0.00293 0.59131
vt 0.98772 0.05714
vt 0.99290 0.05714
vt 0.40904 0.59880
vt 0.40903 0.30911
vt 0.63156 0.59879
vt 0.63155 0.39239
vt 0.63154 0.30910
vt 0.82449 0.17854
vt 0.78468 0.17854
vt 1.42056 0.27819
vt 1.40903 0.30135
vt 1.42056 0.30135
vt 1.40903 0.27819
vt 1.01954 0.33398
vt 1.00801 0.35713
vt 1.01954 0.35713
vt 1.00801 0.33398
vt 1.98772 0.05714
vt 1.99290 0.05714
vt 0.41188 0.71618
vt 0.38872 0.74334
vt 0.38872 0.71618
vt 0.41188 0.74334
vt 0.81798 0.67711
vt 0.79482 0.70427
vt 0.79482 0.67711
vt 0.81798 0.70427
vt 1.81798 0.70427
vt 1.81798 0.67711
vt 1.79482 0.70427
vt 1.79482 0.67711
vt 1.41188 0.74334
vt 1.41188 0.71618
vt 1.38872 0.74334
vt 1.38872 0.71618
vt 0.42056 0.27819
vt 0.42056 0.30135
vt 0.40903 0.30135
vt 0.40903 0.27819
vt 0.01954 0.33398
vt 0.01954 0.35713
vt 0.00801 0.35713
vt 0.00801 0.33398
vt 0.25674 0.54059
vt 0.37794 0.36882
vt 0.37792 0.54061
vt 0.25676 0.36880
vt 0.90089 0.17853
vt 0.90089 0.20169
vt 0.89634 0.20169
vt 0.89634 0.17853
vt 1.89635 0.20169
vt 1.90089 0.17853
vt 1.89635 0.17853
vt 1.90089 0.20169
vt 0.69709 0.87369
vt 0.81631 0.72530
vt 0.81631 0.87369
vt 0.66792 0.84452
vt 0.66792 0.72530
vt 0.82020 0.90504
vt 0.87495 0.81646
vt 0.87495 0.90504
vt 0.82020 0.81646
vt 0.82020 0.91813
vt 0.87495 0.91813
vt 0.82020 0.99362
vt 0.87495 0.99362
vt 1.82020 0.90504
vt 1.87495 0.81646
vt 1.82020 0.81646
vt 1.87495 0.90504
vt 1.82020 0.91813
vt 1.87495 0.91813
vt 1.82020 0.99362
vt 1.87495 0.99362
vt 0.75669 0.42090
vt 0.79794 0.56929
vt 0.75668 0.56929
vt 0.79795 0.42090
vt 0.62849 0.75099
vt 0.50927 0.60260
vt 0.62849 0.60260
vt 0.48010 0.63177
vt 0.48010 0.75099
vt 0.90585 0.17472
vt 0.78467 0.00294
vt 0.90585 0.00293
vt 0.78468 0.17473
vt 0.05369 0.95387
vt 0.09914 0.89640
vt 0.09914 0.95387
vt 0.05369 0.88793
vt 0.09067 0.88793
vt 0.54101 0.90701
vt 0.58711 0.93778
vt 0.54276 0.93778
vt 0.58885 0.90700
vt 0.48010 0.84338
vt 0.53484 0.84338
vt 0.48010 0.86131
vt 0.53484 0.86131
vt 0.30243 0.74746
vt 0.47440 0.86838
vt 0.30261 0.86864
vt 0.47422 0.74720
vt 1.53484 0.84338
vt 1.48010 0.86131
vt 1.53484 0.86131
vt 1.48010 0.84338
vt 1.01434 0.28251
vt 1.00293 0.33017
vt 1.01434 0.33017
vt 1.00293 0.28251
vt 0.17020 0.92965
vt 0.12476 0.87219
vt 0.17020 0.87219
vt 0.12476 0.93812
vt 0.16173 0.93812
vt 1.42182 0.22780
vt 1.41410 0.26002
vt 1.42182 0.26002
vt 1.41410 0.22780
vt 0.01434 0.28251
vt 0.01434 0.33017
vt 0.00293 0.33017
vt 0.00293 0.28251
vt 0.65778 0.12411
vt 0.77896 0.12412
vt 1.64550 0.37750
vt 1.63746 0.40797
vt 1.64550 0.40797
vt 1.63746 0.37750
vt 0.42182 0.22780
vt 0.42182 0.26002
vt 0.41410 0.26002
vt 0.41410 0.22780
vt 0.87356 0.63296
vt 0.86593 0.68113
vt 0.85485 0.62907
vt 0.88839 0.61118
vt 0.84932 0.60351
vt 0.84135 0.67612
vt 0.85830 0.72929
vt 0.82786 0.72317
vt 0.85430 0.75449
vt 0.82020 0.76641
vt 0.84085 0.78978
vt 0.86682 0.75940
vt 0.88043 0.76997
vt 0.86504 0.81157
vt 0.64550 0.37750
vt 0.64550 0.40797
vt 0.63746 0.40797
vt 0.63746 0.37750
vt 0.15676 0.83714
vt 0.20992 0.85410
vt 0.16176 0.86172
vt 0.20381 0.82366
vt 0.10971 0.85063
vt 0.23512 0.85011
vt 0.11360 0.86935
vt 0.09182 0.88417
vt 0.08415 0.84510
vt 0.24705 0.81601
vt 0.27042 0.83666
vt 0.24003 0.86262
vt 0.25060 0.87624
vt 0.29220 0.86085
vt 0.29531 0.90691
vt 0.24747 0.90690
vt 0.97756 0.33874
vt 0.98898 0.29107
vt 0.98898 0.33874
vt 0.97756 0.29107
vt 0.89423 0.37161
vt 0.88619 0.40209
vt 0.88619 0.37161
vt 0.89423 0.40209
vt 0.01064 0.23212
vt 0.00293 0.26433
vt 0.00293 0.23212
vt 0.01064 0.26433
vt 1.02964 0.93503
vt 1.00293 0.96996
vt 1.03149 0.96996
vt 1.00478 0.93503
vt 0.65779 0.00293
vt 0.77897 0.00294
vt 1.97757 0.29107
vt 1.97757 0.33874
vt 1.98898 0.29107
vt 1.98898 0.33874
vt 0.27088 0.74735
vt 0.27088 0.80985
vt 0.21613 0.80985
vt 0.21613 0.74735
vt 1.21613 0.74735
vt 1.21613 0.80985
vt 1.27088 0.74735
vt 1.27088 0.80985
vt 0.53484 0.93694
vt 0.48010 0.93693
vt 1.53484 0.93694
vt 1.48009 0.93693
vt 1.88619 0.37161
vt 1.88619 0.40209
vt 1.89423 0.37161
vt 1.89423 0.40209
vt 0.03149 0.96996
vt 0.00478 0.93503
vt 0.02964 0.93503
vt 0.00293 0.96996
vt 1.00293 0.23212
vt 1.00293 0.26433
vt 1.01064 0.23212
vt 1.01064 0.26433
vt 0.29735 0.98278
vt 0.32051 0.95562
vt 0.32051 0.98278
vt 0.29735 0.95562
vt 0.29735 0.95108
vt 0.32051 0.95108
vt 0.32051 0.92391
vt 0.29735 0.92391
vt 1.29735 0.95108
vt 1.32051 0.92391
vt 1.29735 0.92391
vt 1.32051 0.95108
vt 1.32051 0.95562
vt 1.29735 0.95562
vt 1.29735 0.98278
vt 1.32051 0.98278
vt 0.48010 0.75480
vt 0.53484 0.75480
vt 1.48010 0.75480
vt 1.53485 0.75480
vt 0.62731 0.90700
vt 0.65046 0.91854
vt 0.62731 0.91854
vt 0.65046 0.90700
vt 0.62731 0.97740
vt 0.65046 0.97740
vt 0.26689 0.91072
vt 0.29005 0.91072
vt 0.29005 0.92225
vt 0.26689 0.92225
vt 0.26689 0.98112
vt 0.29005 0.98112
vt 0.36452 0.74354
vt 0.21613 0.59515
vt 0.36452 0.59515
vt 0.21613 0.74354
vt 0.97350 0.84543
vt 0.91876 0.84543
vt 0.97350 0.75685
vt 0.91876 0.75685
vt 0.97350 0.85852
vt 0.90650 0.85852
vt 0.91101 0.93400
vt 0.97350 0.93400
vt 0.90554 0.28020
vt 0.86514 0.26711
vt 0.89698 0.26711
vt 0.88733 0.17854
vt 0.85996 0.17854
vt 0.83330 0.26711
vt 0.83258 0.17854
vt 0.85352 0.28020
vt 0.89698 0.35569
vt 0.81005 0.28020
vt 0.85577 0.38722
vt 0.81456 0.35569
vt 0.41047 0.71237
vt 0.37349 0.60260
vt 0.41047 0.60260
vt 0.37349 0.71237
vt 1.65046 0.91854
vt 1.62731 0.90700
vt 1.62731 0.91854
vt 1.65046 0.90700
vt 1.62731 0.97740
vt 1.65046 0.97740
vt 1.29005 0.92225
vt 1.26689 0.91072
vt 1.26689 0.92225
vt 1.29005 0.91072
vt 1.26689 0.98112
vt 1.29005 0.98112
vt 1.97350 0.84543
vt 1.97350 0.75685
vt 1.91876 0.84543
vt 1.91876 0.75685
vt 1.97350 0.85852
vt 1.90650 0.85852
vt 1.91101 0.93400
vt 1.97350 0.93400
vt 0.63746 0.56928
vt 0.63747 0.42088
vt 0.64899 0.35053
vt 0.63746 0.37369
vt 0.63746 0.35053
vt 0.64899 0.37369
vt 0.39518 0.36880
vt 0.39518 0.39196
vt 0.38365 0.39196
vt 0.38365 0.36880
vt 1.99480 0.21074
vt 1.99480 0.16816
vt 1.97757 0.16816
vt 1.97757 0.21074
vt 0.42214 0.05074
vt 0.41410 0.03159
vt 0.42214 0.03159
vt 0.41410 0.05074
vt 1.42214 0.05074
vt 1.41410 0.03159
vt 1.41410 0.05074
vt 1.42214 0.03159
vt 0.91248 0.49424
vt 0.92947 0.49394
vt 0.92497 0.49909
vt 0.91531 0.47351
vt 0.95029 0.47350
vt 0.94604 0.50175
vt 0.91350 0.50113
vt 0.91883 0.50565
vt 0.90807 0.50971
vt 0.90650 0.50687
vt 1.90807 0.50971
vt 1.91883 0.50565
vt 1.91350 0.50113
vt 1.90650 0.50687
vt 1.92497 0.49909
vt 1.91248 0.49424
vt 1.92947 0.49394
vt 1.91531 0.47351
vt 1.95029 0.47350
vt 1.94604 0.50175
vt 0.99480 0.16816
vt 0.99480 0.21074
vt 0.97757 0.16816
vt 0.97757 0.21074
vt 1.63746 0.37369
vt 1.64899 0.35053
vt 1.63746 0.35053
vt 1.64899 0.37369
vt 1.39518 0.36880
vt 1.38365 0.39196
vt 1.39518 0.39196
vt 1.38365 0.36880
vt 0.54495 0.95487
vt 0.58492 0.95487
vt 0.54687 0.96818
vt 0.58300 0.96817
vt 0.89635 0.70115
vt 0.95110 0.70115
vt 0.89635 0.75304
vt 0.95110 0.75304
vt 0.80564 0.38580
vt 0.79225 0.38580
vt 0.79545 0.39419
vt 0.80244 0.39419
vt 0.80057 0.40554
vt 0.79732 0.40554
vt 1.80057 0.40554
vt 1.80244 0.39419
vt 1.79545 0.39419
vt 1.79732 0.40554
vt 1.80564 0.38580
vt 1.79225 0.38580
vt 0.95726 0.58524
vt 0.97918 0.55704
vt 0.99707 0.58524
vt 0.97516 0.55704
vt 0.79482 0.63237
vt 0.82266 0.64404
vt 0.80652 0.67331
vt 0.80296 0.61441
vt 0.82266 0.60349
vt 1.82266 0.64404
vt 1.80296 0.61441
vt 1.79482 0.63237
vt 1.82266 0.60349
vt 1.80652 0.67331
vt 0.64887 0.34672
vt 0.63746 0.30910
vt 0.64887 0.30910
vt 0.63746 0.34672
vt 1.64887 0.34672
vt 1.63746 0.30910
vt 1.63746 0.34672
vt 1.64887 0.30910
vt 0.39136 0.45042
vt 0.38365 0.42500
vt 0.39136 0.42500
vt 0.38365 0.45042
vt 1.39136 0.45042
vt 1.38365 0.42500
vt 1.38365 0.45042
vt 1.39136 0.42500
vt 0.89635 0.62518
vt 0.95110 0.60954
vt 0.95110 0.62518
vt 0.89635 0.60954
vt 0.95109 0.52044
vt 0.89634 0.52044
vt 0.02609 0.00293
vt 0.00293 0.03009
vt 0.00293 0.00293
vt 0.02609 0.03009
vt 0.88904 0.71699
vt 0.86589 0.74415
vt 0.86589 0.71699
vt 0.88904 0.74415
vt 1.88904 0.74415
vt 1.88904 0.71699
vt 1.86589 0.74415
vt 1.86589 0.71699
vt 1.02609 0.03009
vt 1.02609 0.00293
vt 1.00293 0.03009
vt 1.00293 0.00293
vt 0.41918 0.20058
vt 0.41918 0.17742
vt 0.42372 0.17742
vt 0.42372 0.20058
vt 1.41918 0.20058
vt 1.42372 0.17742
vt 1.41918 0.17742
vt 1.42372 0.20058
vt 1.99291 0.10919
vt 1.99290 0.07949
vt 1.98772 0.10919
vt 1.98772 0.07949
vt 1.99290 0.06094
vt 1.98772 0.06094
vt 0.99290 0.06094
vt 0.98772 0.07949
vt 0.98772 0.06094
vt 0.99290 0.07949
vt 0.98772 0.10919
vt 0.99291 0.10919
vt 0.99480 0.23046
vt 0.97757 0.23046
vt 0.99480 0.25298
vt 0.97756 0.25298
vt 1.97757 0.23046
vt 1.99480 0.25298
vt 1.99480 0.23046
vt 1.97757 0.25298
vt 0.44581 0.87228
vt 0.47297 0.87228
vt 0.47297 0.88382
vt 0.44581 0.88382
vt 0.47297 0.94268
vt 0.44581 0.94268
vt 0.44126 0.94268
vt 0.44126 0.88382
vt 0.41410 0.88382
vt 0.41410 0.94268
vt 0.41410 0.87228
vt 0.44126 0.87228
vt 0.73391 0.87750
vt 0.76107 0.87750
vt 0.76107 0.88903
vt 0.73391 0.88903
vt 0.76107 0.94790
vt 0.73391 0.94790
vt 0.76561 0.88903
vt 0.76561 0.94790
vt 0.79277 0.94790
vt 0.79277 0.88903
vt 0.76561 0.87750
vt 0.79277 0.87750
vt 1.44126 0.88382
vt 1.41410 0.87228
vt 1.41410 0.88382
vt 1.44126 0.87228
vt 1.44126 0.94268
vt 1.41410 0.94268
vt 1.44581 0.88382
vt 1.44581 0.94268
vt 1.47297 0.94268
vt 1.47297 0.88382
vt 1.44581 0.87228
vt 1.47297 0.87228
vt 1.76107 0.88903
vt 1.73391 0.87750
vt 1.73391 0.88903
vt 1.76107 0.87750
vt 1.76107 0.94790
vt 1.73391 0.94790
vt 1.76561 0.88903
vt 1.76561 0.94790
vt 1.79277 0.94790
vt 1.79277 0.88903
vt 1.76561 0.87750
vt 1.79277 0.87750
vt 0.99495 0.11651
vt 0.94711 0.16436
vt 0.94711 0.11651
vt 0.96423 0.65811
vt 0.98672 0.60947
vt 0.99009 0.65812
vt 0.99345 0.70676
vt 0.96760 0.60947
vt 0.96085 0.70676
vt 0.95909 0.73221
vt 0.99522 0.73221
vt 0.90142 0.35996
vt 1.41919 0.67823
vt 1.47395 0.73012
vt 1.47394 0.67822
vt 1.41920 0.73012
vt 1.89635 0.70115
vt 1.89635 0.75304
vt 1.95110 0.70115
vt 1.95110 0.75304
vt 1.41918 0.60261
vt 1.47393 0.60260
vt 1.89635 0.62518
vt 1.95110 0.60954
vt 1.89635 0.60954
vt 1.95109 0.52044
vt 1.89635 0.52044
vt 1.95110 0.62518
vt 1.93826 0.17127
vt 1.91158 0.11652
vt 1.91157 0.17126
vt 1.93826 0.11652
vt 1.90046 0.49804
vt 1.86007 0.51113
vt 1.89191 0.51113
vt 1.88225 0.59971
vt 1.85488 0.59971
vt 1.82822 0.51113
vt 1.82751 0.59971
vt 1.84844 0.49804
vt 1.89191 0.42256
vt 1.80497 0.49804
vt 1.85070 0.39102
vt 1.80948 0.42256
vt 1.17552 0.86415
vt 1.23027 0.95273
vt 1.23027 0.86415
vt 1.17552 0.95273
vt 1.89698 0.26711
vt 1.88733 0.17854
vt 1.86514 0.26711
vt 1.85996 0.17854
vt 1.90554 0.28020
vt 1.83330 0.26711
vt 1.83258 0.17854
vt 1.85352 0.28020
vt 1.89698 0.35569
vt 1.81005 0.28020
vt 1.85577 0.38722
vt 1.81456 0.35569
vt 0.91110 0.81469
vt 0.91110 0.76684
vt 0.99495 0.16436
vn 0.8661 -0.4961 0.0000
vn 0.8189 0.5748 0.0000
vn 0.9528 0.3071 0.0000
vn 1.0000 0.0787 0.0000
vn 0.9921 0.1339 0.0000
vn 0.9843 0.1811 0.0000
vn -1.0000 0.0000 0.0000
vn 1.0000 0.0000 0.0000
vn 1.0000 0.0630 0.0000
vn 0.0000 0.9291 -0.3701
vn 0.0000 0.9134 -0.4094
vn 0.0000 1.0000 0.0551
vn 0.0000 0.9134 0.4094
vn 0.0000 0.9291 0.3701
vn 0.0000 1.0000 -0.0551
vn 0.0000 0.9606 -0.2913
vn 0.0000 0.9606 0.2913
vn 1.0000 0.0079 0.0000
vn 0.0000 -1.0000 0.0000
vn 0.6535 0.7559 0.0000
vn 0.0000 1.0000 0.0000
vn 0.4882 -0.8740 0.0000
vn 0.0000 0.9055 -0.4252
vn 0.0000 0.9843 -0.1732
vn 0.0000 0.6850 -0.7323
vn -0.9921 0.1417 -0.0394
vn -1.0000 0.0709 0.0079
vn -0.9843 0.1496 -0.0472
vn -0.8740 0.4016 -0.2756
vn -0.8740 0.4016 -0.2677
vn -0.9291 0.2441 -0.2677
vn -0.9291 0.2441 -0.2756
vn -0.9843 0.1654 -0.1024
vn -0.9921 0.1417 0.0394
vn -1.0000 0.0709 -0.0079
vn -0.9843 0.1496 0.0472
vn -0.8740 0.4016 0.2756
vn -0.8740 0.4016 0.2677
vn -0.9291 0.2441 0.2677
vn -0.9291 0.2441 0.2756
vn -0.9843 0.1654 0.1024
vn 0.0000 0.9055 0.4252
vn 0.0000 0.9843 0.1732
vn 0.0000 0.6850 0.7323
vn 0.0000 1.0000 -0.0236
vn 0.0000 0.9685 0.2520
vn 0.0000 0.9685 -0.2441
vn 0.0000 1.0000 0.0236
vn 0.0000 0.9685 0.2441
vn 0.0000 0.9685 -0.2520
vn -0.6378 0.7717 0.0000
vn 0.1654 -0.9843 0.0000
vn 0.4094 0.9134 0.0000
vn 0.4646 0.8819 0.0000
vn -0.0472 1.0000 0.0000
vn -0.2913 0.9606 0.0000
vn 0.0000 0.4646 -0.8898
vn 0.0000 0.4646 0.8898
vn 0.6063 0.7953 0.0000
vn 0.0000 0.7008 -0.7165
vn -0.7087 -0.7087 0.0000
vn 0.0000 0.0000 -1.0000
vn 0.0000 0.7008 0.7165
vn 0.0000 0.0000 1.0000
vn 0.1024 -0.6299 -0.7717
vn -0.6142 -0.7953 0.0000
vn 0.0000 0.8661 -0.5039
vn 0.1024 -0.9921 0.0000
vn 0.1024 -0.6299 0.7717
vn 0.0000 0.8661 0.5039
vn -0.7717 -0.6378 0.0000
vn 0.7087 0.7087 0.0000
vn 0.4488 -0.8976 0.0000
vn 0.7323 -0.6850 0.0000
vn 0.7717 0.6378 0.0000
vn -0.0236 0.1575 -0.9843
vn 0.0079 -0.0709 -1.0000
vn -0.0709 0.4252 -0.9055
vn 0.0157 -0.0630 -1.0000
vn 0.0472 -0.0472 -1.0000
vn 0.0866 -0.0315 -1.0000
vn 0.0630 0.0000 -1.0000
vn 0.0079 -0.0709 1.0000
vn 0.0157 -0.0630 1.0000
vn -0.0236 0.1575 0.9843
vn 0.0472 -0.0472 1.0000
vn -0.0709 0.4252 0.9055
vn 0.0866 -0.0315 1.0000
vn 0.0630 0.0000 1.0000
vn 0.0472 0.0079 1.0000
vn 0.0000 -0.3228 -0.9449
vn 0.6378 -0.7717 0.0000
vn 0.0000 -0.3228 0.9449
vn 0.0000 -0.8661 -0.5039
vn 0.8740 0.4016 -0.2756
vn 0.9921 0.1417 -0.0394
vn 0.8740 0.4016 -0.2677
vn 0.9843 0.1496 -0.0472
vn 1.0000 0.0709 0.0079
vn 0.9291 0.2441 -0.2677
vn 0.9291 0.2441 -0.2756
vn 0.9843 0.1654 -0.1024
vn 0.9843 0.1654 0.1024
vn 0.9291 0.2441 0.2756
vn 0.9291 0.2441 0.2677
vn 0.8740 0.4016 0.2677
vn 0.8740 0.4016 0.2756
vn 0.9921 0.1417 0.0394
vn 0.9843 0.1496 0.0472
vn 1.0000 0.0709 -0.0079
vn 0.0000 -0.8661 0.5039
vn -0.2913 -0.9528 0.0000
vn -0.1890 -0.9843 0.0000
vn -0.0079 -1.0000 0.0000
vn -0.6063 0.7953 0.0000
vn 0.0000 -0.3543 -0.9370
vn 0.0000 -0.4331 -0.8976
vn 0.0000 -0.4488 -0.8976
vn 0.0000 -0.1496 -0.9921
vn 0.0000 -0.1496 0.9921
vn 0.0000 -0.4488 0.8976
vn 0.0000 -0.4331 0.8976
vn 0.0000 -0.3543 0.9370
vn -0.6614 -0.7559 0.0000
vn -0.9843 -0.1732 0.0000
vn -0.9921 0.1102 0.0000
vn -0.9921 -0.1102 0.0000
vn 0.0000 -0.9685 -0.2441
vn 0.0000 -1.0000 -0.0551
vn 0.0000 -0.9685 0.2520
vn 0.0000 -0.9685 -0.2520
vn 0.0000 -1.0000 0.0551
vn 0.0000 -0.9685 0.2441
vn 0.0000 -0.9843 -0.1732
vn 0.0000 -0.8661 -0.4961
vn 0.0000 -0.6850 -0.7323
vn 0.0000 -0.8661 0.4961
vn 0.0000 -0.6850 0.7323
vn 0.0000 -0.9843 0.1732
vn -0.9370 -0.3543 0.0000
vn -0.9764 -0.1968 0.0000
vn -1.0000 0.0079 0.0000
vn -0.9606 0.2756 0.0000
vn 0.0472 0.0079 -1.0000

o animal_cow
usemtl tex_animal_cow_i017p001x
f 1/1/1 2/2/1 3/3/1
f 4/4/1 2/2/1 1/1/1
f 2/2/2 5/5/3 3/3/2
f 5/5/3 2/2/2 6/6/3
f 6/6/3 7/7/4 5/5/3
f 5/5/3 7/7/4 8/8/4
f 7/7/4 9/9/5 8/8/4
f 8/8/4 9/9/5 10/10/5
f 9/9/5 11/11/6 10/10/5
f 11/11/6 9/9/5 12/12/6
f 13/13/7 14/14/7 15/15/7
f 14/14/7 13/13/7 16/16/7
f 17/17/7 18/18/7 19/19/7
f 17/17/7 20/20/7 18/18/7
f 21/21/7 22/22/7 23/23/7
f 22/22/7 21/21/7 24/24/7
f 25/25/8 26/26/8 27/27/8
f 28/28/8 26/26/8 25/25/8
f 29/29/9 30/30/9 31/31/9
f 30/30/9 29/29/9 32/32/9
f 33/33/10 34/34/11 35/35/11
f 34/34/11 33/33/10 36/36/10
f 33/33/10 37/37/12 36/36/10
f 33/33/10 38/38/12 37/37/12
f 39/39/13 40/40/14 41/41/13
f 40/40/14 39/39/13 42/42/14
f 40/40/14 42/42/14 43/43/15
f 40/40/14 43/43/15 44/44/15
f 45/45/7 46/46/7 47/47/7
f 46/46/7 45/45/7 48/48/7
f 49/49/7 50/50/7 51/51/7
f 49/49/7 52/52/7 50/50/7
f 53/53/7 54/54/7 55/55/7
f 54/54/7 53/53/7 56/56/7
f 57/57/7 58/58/7 59/59/7
f 57/57/7 60/60/7 58/58/7
f 61/61/8 62/62/8 63/63/8
f 61/61/8 64/64/8 62/62/8
f 65/65/8 62/62/8 64/64/8
f 62/62/8 65/65/8 66/66/8
f 65/65/8 67/67/8 66/66/8
f 65/65/8 68/68/8 67/67/8
f 69/69/8 70/70/8 71/71/8
f 70/70/8 69/69/8 72/72/8
f 69/69/8 73/73/8 72/72/8
f 74/74/8 73/73/8 69/69/8
f 75/75/8 73/73/8 74/74/8
f 73/73/8 75/75/8 76/76/8
f 77/77/16 78/78/16 79/79/16
f 78/78/16 77/77/16 80/80/16
f 81/81/7 82/82/7 83/83/7
f 82/82/7 81/81/7 84/84/7
f 85/85/17 86/86/17 87/87/17
f 85/85/17 87/87/17 88/88/17
f 89/89/18 90/90/18 91/91/18
f 90/90/18 89/89/18 92/92/18
f 93/93/19 94/94/19 95/95/19
f 94/94/19 93/93/19 96/96/19
f 96/96/19 97/97/19 94/94/19
f 97/97/19 96/96/19 98/98/19
f 98/98/19 96/96/19 99/99/19
f 99/99/19 100/100/19 98/98/19
f 101/101/19 100/100/19 99/99/19
f 100/100/19 101/101/19 102/102/19
f 103/103/19 101/101/19 99/99/19
f 103/103/19 104/104/19 101/101/19
f 105/105/19 106/106/19 107/107/19
f 105/105/19 107/107/19 108/108/19
f 107/107/19 61/109/19 108/108/19
f 61/109/19 107/107/19 64/110/19
f 64/110/19 107/107/19 109/111/19
f 109/111/19 65/112/19 64/110/19
f 110/113/19 65/112/19 109/111/19
f 65/112/19 110/113/19 68/114/19
f 111/115/19 110/113/19 109/111/19
f 111/115/19 112/116/19 110/113/19
f 113/117/19 114/118/19 115/119/19
f 114/118/19 113/117/19 116/120/19
f 116/120/19 117/121/19 114/118/19
f 114/118/19 117/121/19 118/122/19
f 116/120/19 119/123/19 117/121/19
f 119/123/19 116/120/19 120/124/19
f 120/124/19 121/125/19 119/123/19
f 122/126/19 121/125/19 120/124/19
f 120/124/19 123/127/19 122/126/19
f 123/127/19 120/124/19 124/128/19
f 125/129/19 126/130/19 127/131/19
f 126/130/19 125/129/19 128/132/19
f 128/132/19 75/133/19 126/130/19
f 126/130/19 75/133/19 74/134/19
f 126/130/19 74/134/19 129/135/19
f 129/135/19 74/134/19 69/136/19
f 129/135/19 69/136/19 130/137/19
f 130/137/19 69/136/19 71/138/19
f 130/137/19 131/139/19 129/135/19
f 131/139/19 130/137/19 132/140/19
f 133/141/20 134/142/20 135/143/20
f 133/141/20 26/26/20 134/142/20
f 27/27/20 26/26/20 133/141/20
f 135/143/20 134/142/20 136/144/20
f 134/142/20 26/26/20 136/144/20
f 26/26/20 137/145/20 136/144/20
f 137/145/20 138/146/20 136/144/20
f 138/146/20 139/147/20 136/144/20
f 140/148/20 138/146/20 137/145/20
f 139/147/20 138/146/20 140/148/20
f 83/149/21 141/150/21 142/151/21
f 81/152/21 83/149/21 142/151/21
f 91/153/22 90/154/22 29/155/22
f 32/156/22 29/155/22 90/154/22
f 53/157/21 55/158/21 143/159/21
f 144/160/21 143/159/21 55/158/21
f 60/161/21 57/162/21 145/163/21
f 60/161/21 145/163/21 146/164/21
f 147/165/23 148/166/24 149/167/23
f 150/168/24 149/167/23 148/166/24
f 149/167/23 151/169/25 147/165/23
f 151/169/25 152/170/25 147/165/23
f 153/171/26 154/172/27 41/173/28
f 154/172/27 153/171/26 155/174/27
f 153/171/26 41/173/28 40/175/29
f 153/171/26 40/175/29 156/176/30
f 156/176/30 40/175/29 44/177/31
f 156/176/30 44/177/31 157/178/32
f 44/177/31 79/179/33 157/178/32
f 79/179/33 44/177/31 77/180/33
f 158/181/34 159/182/35 160/183/35
f 159/182/35 158/181/34 35/184/36
f 33/185/37 35/184/36 158/181/34
f 33/185/37 158/181/34 161/186/38
f 33/185/37 161/186/38 38/187/39
f 38/187/39 161/186/38 162/188/40
f 86/189/41 38/187/39 162/188/40
f 38/187/39 86/189/41 85/190/41
f 163/191/42 164/192/43 165/193/43
f 163/191/42 165/193/43 166/194/42
f 163/191/42 166/194/42 167/195/44
f 167/195/44 166/194/42 168/196/44
f 169/197/45 170/198/46 171/199/45
f 172/200/46 171/199/45 170/198/46
f 171/199/45 173/201/47 169/197/45
f 173/201/47 171/199/45 174/202/47
f 175/203/48 176/204/49 177/205/49
f 175/203/48 177/205/49 178/206/48
f 178/206/48 179/207/50 175/203/48
f 179/207/50 178/206/48 180/208/50
f 181/209/51 182/210/51 183/211/51
f 182/210/51 181/209/51 184/212/51
f 46/213/21 48/214/21 185/215/21
f 186/216/21 185/215/21 48/214/21
f 52/217/21 49/218/21 187/219/21
f 52/217/21 187/219/21 188/220/21
f 189/221/52 190/222/52 4/223/52
f 189/221/52 4/223/52 1/224/52
f 191/225/53 192/226/53 11/227/54
f 191/225/53 11/227/54 12/228/54
f 193/229/55 192/226/53 191/225/53
f 193/229/55 194/230/55 192/226/53
f 193/229/55 195/231/56 194/230/55
f 164/232/7 196/233/7 197/234/7
f 164/232/7 163/235/7 196/233/7
f 197/234/7 198/236/7 164/232/7
f 167/237/7 196/233/7 163/235/7
f 197/234/7 170/238/7 198/236/7
f 196/233/7 167/237/7 173/239/7
f 170/238/7 169/240/7 198/236/7
f 169/240/7 173/239/7 167/237/7
f 198/236/7 169/240/7 199/241/7
f 169/240/7 167/237/7 199/241/7
f 200/242/7 201/243/7 150/244/7
f 150/244/7 201/243/7 149/245/7
f 150/244/7 202/246/7 200/242/7
f 201/243/7 151/247/7 149/245/7
f 179/248/7 200/242/7 202/246/7
f 151/247/7 201/243/7 176/249/7
f 202/246/7 175/250/7 179/248/7
f 176/249/7 175/250/7 151/247/7
f 175/250/7 202/246/7 203/251/7
f 151/247/7 175/250/7 203/251/7
f 85/252/57 37/253/57 38/254/57
f 37/253/57 85/252/57 88/255/57
f 204/256/7 166/257/7 165/258/7
f 166/257/7 204/256/7 168/259/7
f 204/256/7 165/258/7 205/260/7
f 147/261/7 206/262/7 148/263/7
f 148/263/7 206/262/7 207/264/7
f 206/262/7 147/261/7 152/265/7
f 43/266/58 77/267/58 44/268/58
f 77/267/58 43/266/58 80/269/58
f 208/270/21 209/271/21 21/272/21
f 24/273/21 21/272/21 209/271/21
f 210/274/59 31/31/59 30/30/59
f 211/275/59 210/274/59 30/30/59
f 212/276/60 155/277/60 153/278/60
f 153/278/60 213/279/60 212/276/60
f 23/23/61 214/280/61 215/281/61
f 23/23/61 22/22/61 214/280/61
f 216/282/62 122/283/62 123/284/62
f 122/283/62 216/282/62 217/285/62
f 217/285/62 218/286/62 122/283/62
f 122/283/62 218/286/62 121/287/62
f 219/288/62 128/289/62 125/290/62
f 128/289/62 219/288/62 220/291/62
f 220/291/62 76/292/62 128/289/62
f 128/289/62 76/292/62 75/293/62
f 221/294/62 222/295/62 223/296/62
f 222/295/62 221/294/62 224/297/62
f 225/298/62 224/297/62 221/294/62
f 225/298/62 226/299/62 224/297/62
f 225/298/62 227/300/62 226/299/62
f 227/300/62 225/298/62 228/301/62
f 229/302/21 230/303/21 15/304/21
f 13/305/21 15/304/21 230/303/21
f 20/306/21 17/307/21 231/308/21
f 20/306/21 231/308/21 232/309/21
f 160/310/63 233/311/63 158/312/63
f 158/312/63 233/311/63 234/313/63
f 235/314/62 236/315/62 237/316/62
f 237/316/62 236/315/62 238/317/62
f 239/318/62 236/315/62 235/314/62
f 240/319/62 239/318/62 235/314/62
f 236/315/62 241/320/62 238/317/62
f 238/317/62 241/320/62 28/321/62
f 239/318/62 242/322/62 236/315/62
f 241/320/62 236/315/62 242/322/62
f 243/323/62 242/322/62 239/318/62
f 28/321/62 241/320/62 26/324/62
f 243/323/62 140/325/62 242/322/62
f 26/324/62 241/320/62 244/326/62
f 137/327/62 26/324/62 244/326/62
f 245/328/62 241/320/62 242/322/62
f 242/322/62 140/325/62 245/328/62
f 244/326/62 241/320/62 245/328/62
f 137/327/62 245/328/62 140/325/62
f 244/326/62 245/328/62 137/327/62
f 246/329/64 95/330/64 94/331/64
f 246/329/64 94/331/64 247/332/64
f 94/331/64 248/333/64 247/332/64
f 248/333/64 94/331/64 97/334/64
f 249/335/64 105/336/64 108/337/64
f 249/335/64 108/337/64 250/338/64
f 108/337/64 63/339/64 250/338/64
f 63/339/64 108/337/64 61/340/64
f 251/341/64 252/342/64 253/343/64
f 251/341/64 253/343/64 254/344/64
f 251/341/64 254/344/64 255/345/64
f 255/345/64 254/344/64 256/346/64
f 257/347/64 255/345/64 256/346/64
f 255/345/64 257/347/64 258/348/64
f 259/349/64 260/350/64 261/351/64
f 262/352/64 260/350/64 259/349/64
f 260/350/64 262/352/64 263/353/64
f 263/353/64 91/354/64 260/350/64
f 91/354/64 263/353/64 89/355/64
f 261/351/64 260/350/64 264/356/64
f 264/356/64 260/350/64 91/354/64
f 265/357/64 261/351/64 264/356/64
f 29/358/64 264/356/64 91/354/64
f 264/356/64 210/359/64 265/357/64
f 31/360/64 264/356/64 29/358/64
f 264/356/64 31/360/64 210/359/64
f 266/361/7 267/362/7 235/363/7
f 235/363/7 267/362/7 240/364/7
f 268/365/21 135/366/21 269/367/21
f 135/366/21 136/368/21 269/367/21
f 136/368/21 270/369/21 269/367/21
f 268/365/21 269/367/21 271/370/21
f 271/370/21 269/367/21 270/369/21
f 136/368/21 139/371/21 270/369/21
f 139/371/21 271/370/21 270/369/21
f 272/372/21 268/365/21 271/370/21
f 267/373/21 272/372/21 240/374/21
f 272/372/21 271/370/21 240/374/21
f 271/370/21 239/375/21 240/374/21
f 239/375/21 271/370/21 243/376/21
f 243/376/21 139/371/21 140/377/21
f 139/371/21 273/378/21 271/370/21
f 271/370/21 273/378/21 243/376/21
f 273/378/21 139/371/21 243/376/21
f 274/379/65 4/223/65 190/222/65
f 274/379/65 2/380/65 4/223/65
f 275/381/64 276/382/64 266/383/64
f 277/384/64 275/381/64 266/383/64
f 278/385/64 266/383/64 276/382/64
f 267/386/64 266/383/64 278/385/64
f 267/386/64 278/385/64 272/387/64
f 278/385/64 279/388/64 272/387/64
f 272/387/64 279/388/64 268/389/64
f 278/385/64 276/382/64 280/390/64
f 279/388/64 278/385/64 280/390/64
f 276/382/64 275/381/64 280/390/64
f 279/388/64 280/390/64 268/389/64
f 281/391/64 275/381/64 277/384/64
f 281/391/64 280/390/64 275/381/64
f 25/392/64 281/391/64 277/384/64
f 268/389/64 280/390/64 282/393/64
f 282/393/64 280/390/64 281/391/64
f 268/389/64 282/393/64 135/394/64
f 282/393/64 133/395/64 135/394/64
f 283/396/64 282/393/64 281/391/64
f 283/396/64 133/395/64 282/393/64
f 25/392/64 283/396/64 281/391/64
f 133/395/64 283/396/64 27/397/64
f 27/397/64 283/396/64 25/392/64
f 235/363/66 277/398/66 266/361/66
f 237/399/66 277/398/66 235/363/66
f 164/192/67 205/400/67 165/193/67
f 205/400/67 164/192/67 198/401/67
f 25/402/68 277/403/68 28/404/68
f 28/404/68 277/403/68 238/405/68
f 277/403/68 237/406/68 238/405/68
f 1/224/69 284/407/69 189/221/69
f 284/407/69 1/224/69 3/408/69
f 285/409/62 116/410/62 113/411/62
f 116/410/62 285/409/62 286/412/62
f 287/413/62 129/414/62 131/415/62
f 129/414/62 287/413/62 288/416/62
f 148/166/70 207/417/70 150/168/70
f 202/418/70 150/168/70 207/417/70
f 246/419/7 93/420/7 95/421/7
f 289/422/7 93/420/7 246/419/7
f 290/423/7 104/424/7 103/425/7
f 291/426/7 104/424/7 290/423/7
f 292/427/7 285/428/7 115/429/7
f 285/428/7 113/430/7 115/429/7
f 293/431/7 216/432/7 124/433/7
f 216/432/7 123/434/7 124/433/7
f 290/435/64 103/436/64 99/437/64
f 290/435/64 99/437/64 294/438/64
f 295/439/64 111/440/64 109/441/64
f 295/439/64 109/441/64 296/442/64
f 182/443/71 297/444/71 183/445/71
f 297/444/71 182/443/71 298/446/71
f 96/447/7 299/448/7 294/449/7
f 294/449/7 99/450/7 96/447/7
f 286/451/7 120/452/7 116/453/7
f 300/454/7 120/452/7 286/451/7
f 142/455/62 84/456/62 81/457/62
f 301/458/62 84/456/62 142/455/62
f 84/456/62 301/458/62 302/459/62
f 303/460/7 252/461/7 251/462/7
f 252/461/7 303/460/7 304/463/7
f 251/462/7 305/464/7 303/460/7
f 305/464/7 251/462/7 255/465/7
f 255/465/7 306/466/7 305/464/7
f 306/466/7 255/465/7 258/467/7
f 307/468/7 223/469/7 308/470/7
f 307/468/7 221/471/7 223/469/7
f 309/472/7 221/471/7 307/468/7
f 309/472/7 225/473/7 221/471/7
f 310/474/7 225/473/7 309/472/7
f 310/474/7 228/475/7 225/473/7
f 301/476/72 141/477/72 311/478/72
f 141/477/72 301/476/72 142/479/72
f 82/480/64 141/481/64 83/482/64
f 141/481/64 82/480/64 311/483/64
f 311/483/64 82/480/64 312/484/64
f 182/485/62 313/486/62 298/487/62
f 313/486/62 182/485/62 184/488/62
f 209/489/62 22/490/62 24/491/62
f 314/492/62 22/490/62 209/489/62
f 22/490/62 314/492/62 214/493/62
f 315/494/73 316/495/73 317/496/73
f 315/494/73 318/497/73 316/495/73
f 254/498/74 319/499/74 256/500/74
f 320/501/74 256/500/74 319/499/74
f 321/502/64 183/503/64 297/504/64
f 321/502/64 181/505/64 183/503/64
f 322/506/74 226/507/74 323/508/74
f 322/506/74 224/509/74 226/507/74
f 60/510/62 324/511/62 58/512/62
f 324/511/62 60/510/62 146/513/62
f 23/514/64 208/515/64 21/516/64
f 208/515/64 23/514/64 325/517/64
f 325/517/64 23/514/64 215/518/64
f 52/519/62 326/520/62 50/521/62
f 326/520/62 52/519/62 188/522/62
f 55/523/64 54/524/64 327/525/64
f 55/523/64 327/525/64 144/526/64
f 321/527/75 313/528/75 181/209/75
f 313/528/75 184/212/75 181/209/75
f 20/529/62 328/530/62 18/531/62
f 328/530/62 20/529/62 232/532/62
f 48/533/64 45/534/64 329/535/64
f 48/533/64 329/535/64 186/536/64
f 330/537/76 331/538/77 6/539/76
f 6/539/76 274/540/78 330/537/76
f 274/540/78 6/539/76 2/541/78
f 331/538/77 7/542/77 6/539/76
f 331/538/77 332/543/79 7/542/77
f 332/543/79 9/544/79 7/542/77
f 9/544/79 332/543/79 333/545/80
f 333/545/80 12/546/80 9/544/79
f 12/546/80 333/545/80 191/547/81
f 191/547/81 333/545/80 334/548/81
f 191/547/81 334/548/81 316/549/82
f 316/549/82 193/550/82 191/547/81
f 15/551/64 14/552/64 335/553/64
f 15/551/64 335/553/64 229/554/64
f 8/555/83 336/556/84 337/557/83
f 336/556/84 8/555/83 10/558/84
f 337/557/83 5/559/85 8/555/83
f 10/558/84 338/560/86 336/556/84
f 5/559/85 337/557/83 339/561/85
f 284/562/87 5/559/85 339/561/85
f 284/562/87 3/563/87 5/559/85
f 338/560/86 10/558/84 11/564/86
f 192/565/88 338/560/86 11/564/86
f 338/560/86 192/565/88 340/566/88
f 192/565/88 317/567/89 340/566/88
f 317/567/89 192/565/88 194/568/89
f 317/567/89 194/568/89 195/569/90
f 195/569/90 315/570/90 317/567/89
f 143/571/62 56/572/62 53/573/62
f 56/572/62 143/571/62 341/574/62
f 16/575/62 230/576/62 342/577/62
f 16/575/62 13/578/62 230/576/62
f 47/579/62 185/580/62 343/581/62
f 47/579/62 46/582/62 185/580/62
f 35/583/91 344/584/91 159/585/91
f 344/584/91 35/583/91 34/586/91
f 297/587/92 313/528/92 321/527/92
f 313/528/92 297/587/92 298/588/92
f 345/589/64 145/590/64 59/591/64
f 57/592/64 59/591/64 145/590/64
f 258/593/21 257/594/21 346/595/21
f 306/596/21 258/593/21 346/595/21
f 310/597/21 347/598/21 228/599/21
f 228/599/21 347/598/21 227/600/21
f 256/500/9 346/601/9 257/602/9
f 346/601/9 256/500/9 320/501/9
f 226/507/9 347/603/9 323/508/9
f 347/603/9 226/507/9 227/604/9
f 348/605/64 231/606/64 19/607/64
f 17/608/64 19/607/64 231/606/64
f 154/609/93 39/610/93 41/611/93
f 39/610/93 154/609/93 349/612/93
f 350/613/64 187/614/64 51/615/64
f 49/616/64 51/615/64 187/614/64
f 97/617/8 351/618/8 248/619/8
f 97/617/8 98/620/8 351/618/8
f 100/621/8 351/618/8 98/620/8
f 351/618/8 100/621/8 352/622/8
f 100/621/8 353/623/8 352/622/8
f 100/621/8 102/624/8 353/623/8
f 117/625/8 354/626/8 118/627/8
f 354/626/8 117/625/8 355/628/8
f 117/625/8 356/629/8 355/628/8
f 119/630/8 356/629/8 117/625/8
f 121/631/8 356/629/8 119/630/8
f 356/629/8 121/631/8 218/632/8
f 253/633/8 319/499/8 254/498/8
f 319/499/8 253/633/8 357/634/8
f 222/635/8 322/506/8 358/636/8
f 322/506/8 222/635/8 224/509/8
f 104/637/62 359/638/62 101/639/62
f 104/637/62 291/640/62 359/638/62
f 102/641/62 101/639/62 359/638/62
f 359/638/62 353/642/62 102/641/62
f 112/643/62 360/644/62 361/645/62
f 112/643/62 361/645/62 110/646/62
f 68/647/62 110/646/62 361/645/62
f 361/645/62 67/648/62 68/647/62
f 84/649/19 312/650/19 82/651/19
f 312/650/19 84/649/19 302/652/19
f 303/653/62 319/654/62 304/655/62
f 304/655/62 319/654/62 357/656/62
f 305/657/62 319/654/62 303/653/62
f 319/654/62 305/657/62 320/658/62
f 305/657/62 346/659/62 320/658/62
f 306/660/62 346/659/62 305/657/62
f 362/661/62 363/662/62 364/663/62
f 365/664/62 364/663/62 363/662/62
f 365/664/62 363/662/62 366/665/62
f 366/665/62 363/662/62 90/666/62
f 366/665/62 90/666/62 92/667/62
f 363/662/62 362/661/62 367/668/62
f 367/668/62 90/666/62 363/662/62
f 368/669/62 367/668/62 362/661/62
f 90/666/62 367/668/62 32/670/62
f 367/668/62 368/669/62 211/671/62
f 367/668/62 30/672/62 32/670/62
f 367/668/62 211/671/62 30/672/62
f 214/673/19 325/674/19 215/675/19
f 325/674/19 214/673/19 314/676/19
f 369/677/64 115/678/64 114/679/64
f 115/678/64 369/677/64 292/680/64
f 114/679/64 118/681/64 369/677/64
f 369/677/64 118/681/64 354/682/64
f 370/683/64 132/684/64 130/685/64
f 132/684/64 370/683/64 371/686/64
f 130/685/64 71/687/64 370/683/64
f 370/683/64 71/687/64 70/688/64
f 307/689/64 308/690/64 322/691/64
f 308/690/64 358/692/64 322/691/64
f 322/691/64 309/693/64 307/689/64
f 309/693/64 322/691/64 323/694/64
f 309/693/64 323/694/64 347/695/64
f 310/696/64 309/693/64 347/695/64
f 312/697/8 301/476/8 311/478/8
f 301/476/8 312/697/8 302/698/8
f 93/699/62 299/700/62 96/701/62
f 93/699/62 289/702/62 299/700/62
f 106/703/62 372/704/62 373/705/62
f 106/703/62 373/705/62 107/706/62
f 200/707/94 179/708/94 180/709/94
f 200/707/94 180/709/94 374/710/94
f 16/711/19 335/712/19 14/713/19
f 335/712/19 16/711/19 342/714/19
f 19/715/19 328/716/19 348/717/19
f 19/715/19 18/718/19 328/716/19
f 42/719/95 213/720/96 375/721/97
f 213/720/96 42/719/95 39/722/98
f 213/720/96 39/722/98 349/723/99
f 212/724/99 213/720/96 349/723/99
f 375/721/97 43/725/100 42/719/95
f 43/725/100 375/721/97 376/726/101
f 78/727/102 43/725/100 376/726/101
f 43/725/100 78/727/102 80/728/102
f 87/729/103 377/730/104 37/731/105
f 87/729/103 37/731/105 88/732/103
f 378/733/106 37/731/105 377/730/104
f 37/731/105 378/733/106 36/734/107
f 234/735/108 36/734/107 378/733/106
f 36/734/107 234/735/108 34/736/109
f 234/735/108 344/737/110 34/736/109
f 233/738/110 344/737/110 234/735/108
f 170/739/111 197/740/111 172/741/111
f 379/742/111 172/741/111 197/740/111
f 300/743/64 124/744/64 120/745/64
f 124/744/64 300/743/64 293/746/64
f 127/747/64 380/748/64 381/749/64
f 380/748/64 127/747/64 126/750/64
f 316/495/112 340/751/113 317/496/112
f 340/751/113 316/495/112 334/752/113
f 334/752/113 338/753/114 340/751/113
f 338/753/114 334/752/113 333/754/114
f 368/755/115 265/756/115 211/757/115
f 265/756/115 210/758/115 211/757/115
f 213/279/116 153/278/116 156/759/117
f 213/279/116 156/759/117 375/760/117
f 156/759/117 376/761/118 375/760/117
f 376/761/118 156/759/117 157/762/118
f 157/762/118 79/763/119 376/761/118
f 78/764/119 376/761/118 79/763/119
f 86/765/120 162/766/121 377/767/121
f 86/765/120 377/767/121 87/768/120
f 161/769/122 377/767/121 162/766/121
f 377/767/121 161/769/122 378/770/122
f 161/769/122 234/313/123 378/770/122
f 158/312/123 234/313/123 161/769/122
f 274/771/124 189/772/124 284/773/124
f 189/772/124 274/771/124 190/774/124
f 379/775/8 171/776/8 172/777/8
f 382/778/8 171/776/8 379/775/8
f 171/776/8 382/778/8 174/779/8
f 178/780/8 383/781/8 374/782/8
f 383/781/8 178/780/8 177/783/8
f 178/780/8 374/782/8 180/784/8
f 56/785/19 327/786/19 54/787/19
f 327/786/19 56/785/19 341/788/19
f 59/789/19 324/790/19 345/791/19
f 59/789/19 58/792/19 324/790/19
f 47/793/19 329/794/19 45/795/19
f 329/794/19 47/793/19 343/796/19
f 51/797/19 326/798/19 350/799/19
f 51/797/19 50/800/19 326/798/19
f 362/801/7 259/802/125 261/803/7
f 261/803/7 368/755/126 362/801/7
f 368/755/126 261/803/7 265/756/126
f 259/802/125 362/801/7 364/804/125
f 364/804/125 262/805/127 259/802/125
f 262/805/127 364/804/125 365/806/127
f 249/807/7 106/808/7 105/809/7
f 372/810/7 106/808/7 249/807/7
f 295/811/7 112/812/7 111/813/7
f 360/814/7 112/812/7 295/811/7
f 371/815/7 287/816/7 132/817/7
f 287/816/7 131/818/7 132/817/7
f 381/819/7 219/820/7 127/821/7
f 219/820/7 125/822/7 127/821/7
f 296/823/7 109/824/7 107/825/7
f 107/825/7 373/826/7 296/823/7
f 288/827/7 126/828/7 129/829/7
f 380/830/7 126/828/7 288/827/7
f 151/831/128 203/832/129 152/833/128
f 206/834/129 152/833/128 203/832/129
f 203/832/129 202/835/130 206/834/129
f 207/836/130 206/834/129 202/835/130
f 198/837/131 204/838/132 205/839/131
f 198/837/131 199/840/132 204/838/132
f 199/840/132 168/841/133 204/838/132
f 199/840/132 167/842/133 168/841/133
f 197/740/134 196/843/135 379/742/134
f 196/843/135 382/844/135 379/742/134
f 196/843/135 173/845/136 382/844/135
f 173/845/136 174/846/136 382/844/135
f 383/847/137 176/848/138 201/849/137
f 176/848/138 383/847/137 177/850/138
f 201/849/137 374/710/139 383/847/137
f 200/707/139 374/710/139 201/849/137
f 289/851/21 246/852/21 247/853/21
f 289/851/21 247/853/21 299/854/21
f 247/853/21 248/855/21 299/854/21
f 299/854/21 248/855/21 351/856/21
f 352/857/21 299/854/21 351/856/21
f 299/854/21 352/857/21 294/858/21
f 294/858/21 352/857/21 359/859/21
f 359/859/21 352/857/21 353/860/21
f 291/861/21 294/858/21 359/859/21
f 291/861/21 290/862/21 294/858/21
f 360/863/21 295/864/21 296/865/21
f 360/863/21 296/865/21 361/866/21
f 296/865/21 66/867/21 361/866/21
f 361/866/21 66/867/21 67/868/21
f 373/869/21 66/867/21 296/865/21
f 66/867/21 373/869/21 62/870/21
f 373/869/21 63/871/21 62/870/21
f 250/872/21 63/871/21 373/869/21
f 372/873/21 250/872/21 373/869/21
f 372/873/21 249/874/21 250/872/21
f 286/875/21 292/876/21 369/877/21
f 292/876/21 286/875/21 285/878/21
f 369/877/21 355/879/21 286/875/21
f 355/879/21 369/877/21 354/880/21
f 286/875/21 355/879/21 300/881/21
f 300/881/21 355/879/21 356/882/21
f 218/883/21 300/881/21 356/882/21
f 300/881/21 218/883/21 217/884/21
f 217/884/21 293/885/21 300/881/21
f 293/885/21 217/884/21 216/886/21
f 288/887/21 371/888/21 370/889/21
f 371/888/21 288/887/21 287/890/21
f 370/889/21 72/891/21 288/887/21
f 72/891/21 370/889/21 70/892/21
f 288/887/21 72/891/21 380/893/21
f 380/893/21 72/891/21 73/894/21
f 76/895/21 380/893/21 73/894/21
f 380/893/21 76/895/21 220/896/21
f 220/896/21 381/897/21 380/893/21
f 381/897/21 220/896/21 219/898/21
f 195/899/140 318/900/140 315/901/140
f 331/902/141 339/903/142 337/904/141
f 336/905/141 331/902/141 337/904/141
f 339/903/142 331/902/141 330/906/142
f 274/771/143 339/903/142 330/906/142
f 274/771/143 284/773/143 339/903/142
f 336/905/141 332/907/141 331/902/141
f 336/905/141 333/908/141 332/907/141
f 333/908/141 336/905/141 338/909/141
f 195/231/56 193/229/55 384/910/56
f 385/911/59 386/912/59 387/913/59
f 386/912/59 385/911/59 388/914/59
f 389/915/115 386/916/115 390/917/115
f 390/917/115 386/916/115 388/918/115
f 391/919/9 387/913/9 392/920/9
f 387/913/9 391/919/9 385/911/9
f 393/921/7 394/922/125 395/923/125
f 395/923/125 394/922/125 396/924/127
f 395/923/125 396/924/127 397/925/127
f 393/921/7 398/926/7 394/922/125
f 389/915/126 398/926/7 393/921/7
f 389/915/126 390/917/126 398/926/7
f 399/927/22 391/928/22 392/929/22
f 399/927/22 400/930/22 391/928/22
f 398/931/62 401/932/62 394/933/62
f 401/932/62 396/934/62 394/933/62
f 396/934/62 401/932/62 402/935/62
f 400/936/62 402/935/62 401/932/62
f 402/935/62 400/936/62 403/937/62
f 398/931/62 404/938/62 401/932/62
f 400/936/62 401/932/62 404/938/62
f 390/939/62 404/938/62 398/931/62
f 404/938/62 391/940/62 400/936/62
f 404/938/62 390/939/62 388/941/62
f 404/938/62 385/942/62 391/940/62
f 385/942/62 404/938/62 388/941/62
f 403/943/18 399/944/18 405/945/18
f 399/944/18 403/943/18 400/946/18
f 395/947/64 397/948/64 406/949/64
f 407/950/64 406/949/64 397/948/64
f 406/949/64 393/951/64 395/947/64
f 406/949/64 407/950/64 399/952/64
f 405/953/64 399/952/64 407/950/64
f 393/951/64 406/949/64 408/954/64
f 399/952/64 408/954/64 406/949/64
f 408/954/64 389/955/64 393/951/64
f 408/954/64 399/952/64 392/956/64
f 389/955/64 408/954/64 386/957/64
f 392/956/64 387/958/64 408/954/64
f 386/957/64 408/954/64 387/958/64
f 384/959/144 316/549/82 318/960/144
f 316/549/82 384/959/144 193/550/82
f 195/899/140 384/961/140 318/900/140
