# Roblox asset pack: wedge (map). Exported from Roblox Studio with Export Selection, then split/renamed/re-centred by tools/process_export.py. Units: studs (1 stud = 1 unit). +Y up. Pivot (bottom_centre) at the origin.
mtllib wedge.mtl

v 2.00000 2.00000 2.00000
v 2.00000 0.00000 -2.00000
v 2.00000 0.00000 2.00000
v -2.00000 2.00000 2.00000
v -2.00000 0.00000 2.00000
v -2.00000 0.00000 -2.00000
vt 2.25000 -4.00000
vt 2.75000 -4.25000
vt 2.25000 -4.25000
vt 2.75000 -4.00000
vt 2.75000 -4.50000
vt 2.25000 -4.50000
vt 2.75000 -4.55902
vt 2.25000 -4.55902
vn 1.0000 0.0000 0.0000
vn 0.0000 0.0000 1.0000
vn -1.0000 0.0000 0.0000
vn 0.0000 -1.0000 0.0000
vn 0.0000 0.8976 -0.4488

o Wedge
usemtl wedge
f 1/1/1 1/1/1 2/2/1
f 2/2/1 1/1/1 3/3/1
f 1/4/2 4/1/2 3/2/2
f 3/2/2 4/1/2 5/3/2
f 4/4/3 4/4/3 5/2/3
f 5/2/3 4/4/3 6/3/3
f 6/4/4 2/1/4 5/5/4
f 5/5/4 2/1/4 3/6/4
f 4/4/5 1/1/5 6/7/5
f 6/7/5 1/1/5 2/8/5
