# Roblox asset pack: egg_apatosaurus (props), from the Studio model "Apatosaurus". Exported with Export Selection, split by tools/build_creatures.py: one object per rigid body. Units: studs. +Y up, front faces -Z, pivot (bottom centre) at the origin.
mtllib egg_apatosaurus.mtl

v -2.36820 2.58000 -1.72000
v 2.36820 2.58000 -1.72000
v -2.36820 0.86000 -1.72000
v 2.36820 0.86000 -1.72000
v 2.36820 2.58000 0.00000
v -2.36820 2.58000 0.00000
v 2.36820 0.86000 0.00000
v -2.36820 0.86000 0.00000
v -1.72230 4.31000 -2.37000
v 0.00000 4.31000 -2.37000
v -1.72230 2.58000 -2.37000
v 0.00000 2.58000 -2.37000
v 0.00000 4.31000 2.37000
v -1.72230 4.31000 2.37000
v 0.00000 2.58000 2.37000
v -1.72230 2.58000 2.37000
v -2.36820 4.31000 -1.72000
v 2.36820 4.31000 -1.72000
v 2.36820 4.31000 0.00000
v -2.36820 4.31000 0.00000
v 1.72230 4.31000 -2.37000
v 1.72230 2.58000 -2.37000
v 1.72230 4.31000 2.37000
v 1.72230 2.58000 2.37000
v -1.72230 0.86000 -2.37000
v 0.00000 0.86000 -2.37000
v 0.00000 0.86000 2.37000
v -1.72230 0.86000 2.37000
v 2.36820 2.58000 1.72000
v -2.36820 2.58000 1.72000
v 2.36820 0.86000 1.72000
v -2.36820 0.86000 1.72000
v -1.72230 6.03000 -1.72000
v 1.72230 6.03000 -1.72000
v -1.72230 0.00000 -1.72000
v 1.72230 0.00000 -1.72000
v 1.72230 6.03000 1.72000
v -1.72230 6.03000 1.72000
v 1.72230 0.00000 1.72000
v -1.72230 0.00000 1.72000
v 1.72230 0.86000 -2.37000
v 1.72230 0.86000 2.37000
v 2.36820 4.31000 1.72000
v -2.36820 4.31000 1.72000
v -1.29170 7.75000 -1.29000
v 1.29170 7.75000 -1.29000
v -1.29170 6.03000 -1.29000
v 1.29170 6.03000 -1.29000
v 1.29170 7.75000 1.29000
v -1.29170 7.75000 1.29000
v 1.29170 6.03000 1.29000
v -1.29170 6.03000 1.29000
vt 5.59205 -4.75000
vt 5.00000 -4.75000
vt 5.59205 -4.96529
vt 5.00000 -4.96529
vt 5.21529 -4.75000
vt 5.21529 -5.34205
vt 5.00000 -5.34205
vt 5.21529 -4.96529
vt 6.21529 -0.25000
vt 6.00000 -0.25000
vt 6.21529 -0.46529
vt 6.00000 -0.46529
vt 6.59205 -0.25000
vt 6.59205 -0.46529
vt 1.59205 -1.00000
vt 1.00000 -1.00000
vt 1.59205 -1.21529
vt 1.00000 -1.21529
vt 1.21529 -1.00000
vt 1.21529 -1.59205
vt 1.00000 -1.59205
vt 1.21529 -1.21529
vt 7.21529 -4.75000
vt 7.00000 -4.75000
vt 7.21529 -4.96529
vt 7.00000 -4.96529
vt 7.59205 -4.75000
vt 7.59205 -4.96529
vt 4.96529 -5.75000
vt 4.75000 -5.75000
vt 4.96529 -5.96529
vt 4.75000 -5.96529
vt 5.34205 -5.75000
vt 5.34205 -5.96529
vt 5.09205 -1.75000
vt 4.50000 -1.75000
vt 5.09205 -1.96529
vt 4.50000 -1.96529
vt 4.71529 -1.75000
vt 4.71529 -2.34205
vt 4.50000 -2.34205
vt 4.71529 -1.96529
vt 5.68058 -4.00000
vt 5.25000 -4.00000
vt 5.68058 -4.75351
vt 5.25000 -4.75351
vt 5.68058 -4.43058
vt 5.25000 -4.43058
vt 7.46529 -5.00000
vt 7.25000 -5.00000
vt 7.46529 -5.21529
vt 7.25000 -5.21529
vt 7.84205 -5.00000
vt 7.84205 -5.21529
vt 4.34205 -2.50000
vt 3.75000 -2.50000
vt 4.34205 -2.71529
vt 3.75000 -2.71529
vt 3.96529 -2.50000
vt 3.96529 -3.09205
vt 3.75000 -3.09205
vt 3.96529 -2.71529
vt 8.07294 1.00000
vt 7.75000 1.00000
vt 8.07294 0.78471
vt 7.75000 0.78471
vt 8.07294 0.67706
vt 7.75000 0.67706
vn 0.0000 0.0000 -1.0000
vn 0.0000 1.0000 0.0000
vn 1.0000 0.0000 0.0000
vn 0.0000 0.0000 1.0000
vn 0.0000 -1.0000 0.0000
vn -1.0000 0.0000 0.0000

o egg_apatosaurus
usemtl c_6b327c
f 1/1/1 2/2/1 3/3/1
f 3/3/1 2/2/1 4/4/1
f 5/5/2 2/2/2 6/6/2
f 6/6/2 2/2/2 1/7/2
f 2/5/3 5/2/3 4/8/3
f 4/8/3 5/2/3 7/4/3
f 5/1/4 6/2/4 7/3/4
f 7/3/4 6/2/4 8/4/4
f 8/5/5 3/2/5 7/6/5
f 7/6/5 3/2/5 4/7/5
f 6/5/6 1/2/6 8/8/6
f 8/8/6 1/2/6 3/4/6
f 9/9/1 10/10/1 11/11/1
f 11/11/1 10/10/1 12/12/1
f 13/13/2 10/10/2 14/14/2
f 14/14/2 10/10/2 9/12/2
f 10/13/3 13/10/3 12/14/3
f 12/14/3 13/10/3 15/12/3
f 13/9/4 14/10/4 15/11/4
f 15/11/4 14/10/4 16/12/4
f 16/13/5 11/10/5 15/14/5
f 15/14/5 11/10/5 12/12/5
f 14/13/6 9/10/6 16/14/6
f 16/14/6 9/10/6 11/12/6
usemtl c_b071a6
f 17/15/1 18/16/1 1/17/1
f 1/17/1 18/16/1 2/18/1
f 19/19/2 18/16/2 20/20/2
f 20/20/2 18/16/2 17/21/2
f 18/19/3 19/16/3 2/22/3
f 2/22/3 19/16/3 5/18/3
f 19/15/4 20/16/4 5/17/4
f 5/17/4 20/16/4 6/18/4
f 6/19/5 1/16/5 5/20/5
f 5/20/5 1/16/5 2/21/5
f 20/19/6 17/16/6 6/22/6
f 6/22/6 17/16/6 1/18/6
f 10/23/1 21/24/1 12/25/1
f 12/25/1 21/24/1 22/26/1
f 23/27/2 21/24/2 13/28/2
f 13/28/2 21/24/2 10/26/2
f 21/27/3 23/24/3 22/28/3
f 22/28/3 23/24/3 24/26/3
f 23/23/4 13/24/4 24/25/4
f 24/25/4 13/24/4 15/26/4
f 15/27/5 12/24/5 24/28/5
f 24/28/5 12/24/5 22/26/5
f 13/27/6 10/24/6 15/28/6
f 15/28/6 10/24/6 12/26/6
f 11/29/1 12/30/1 25/31/1
f 25/31/1 12/30/1 26/32/1
f 15/33/2 12/30/2 16/34/2
f 16/34/2 12/30/2 11/32/2
f 12/33/3 15/30/3 26/34/3
f 26/34/3 15/30/3 27/32/3
f 15/29/4 16/30/4 27/31/4
f 27/31/4 16/30/4 28/32/4
f 28/33/5 25/30/5 27/34/5
f 27/34/5 25/30/5 26/32/5
f 16/33/6 11/30/6 28/34/6
f 28/34/6 11/30/6 25/32/6
f 6/35/1 5/36/1 8/37/1
f 8/37/1 5/36/1 7/38/1
f 29/39/2 5/36/2 30/40/2
f 30/40/2 5/36/2 6/41/2
f 5/39/3 29/36/3 7/42/3
f 7/42/3 29/36/3 31/38/3
f 29/35/4 30/36/4 31/37/4
f 31/37/4 30/36/4 32/38/4
f 32/39/5 8/36/5 31/40/5
f 31/40/5 8/36/5 7/41/5
f 30/39/6 6/36/6 32/42/6
f 32/42/6 6/36/6 8/38/6
usemtl c_ff98dc
f 33/43/1 34/44/1 35/45/1
f 35/45/1 34/44/1 36/46/1
f 37/43/2 34/44/2 38/47/2
f 38/47/2 34/44/2 33/48/2
f 34/43/3 37/44/3 36/45/3
f 36/45/3 37/44/3 39/46/3
f 37/43/4 38/44/4 39/45/4
f 39/45/4 38/44/4 40/46/4
f 40/43/5 35/44/5 39/47/5
f 39/47/5 35/44/5 36/48/5
f 38/43/6 33/44/6 40/45/6
f 40/45/6 33/44/6 35/46/6
usemtl c_1b2a35
f 12/49/1 22/50/1 26/51/1
f 26/51/1 22/50/1 41/52/1
f 24/53/2 22/50/2 15/54/2
f 15/54/2 22/50/2 12/52/2
f 22/53/3 24/50/3 41/54/3
f 41/54/3 24/50/3 42/52/3
f 24/49/4 15/50/4 42/51/4
f 42/51/4 15/50/4 27/52/4
f 27/53/5 26/50/5 42/54/5
f 42/54/5 26/50/5 41/52/5
f 15/53/6 12/50/6 27/54/6
f 27/54/6 12/50/6 26/52/6
f 20/55/1 19/56/1 6/57/1
f 6/57/1 19/56/1 5/58/1
f 43/59/2 19/56/2 44/60/2
f 44/60/2 19/56/2 20/61/2
f 19/59/3 43/56/3 5/62/3
f 5/62/3 43/56/3 29/58/3
f 43/55/4 44/56/4 29/57/4
f 29/57/4 44/56/4 30/58/4
f 30/59/5 6/56/5 29/60/5
f 29/60/5 6/56/5 5/61/5
f 44/59/6 20/56/6 30/62/6
f 30/62/6 20/56/6 6/58/6
usemtl c_ffc9c9
f 45/63/1 46/64/1 47/65/1
f 47/65/1 46/64/1 48/66/1
f 49/63/2 46/64/2 50/67/2
f 50/67/2 46/64/2 45/68/2
f 46/63/3 49/64/3 48/65/3
f 48/65/3 49/64/3 51/66/3
f 49/63/4 50/64/4 51/65/4
f 51/65/4 50/64/4 52/66/4
f 52/63/5 47/64/5 51/67/5
f 51/67/5 47/64/5 48/68/5
f 50/63/6 45/64/6 52/65/6
f 52/65/6 45/64/6 47/66/6
