# Roblox asset pack: sword (props). Exported from Roblox Studio with Export Selection, then split/renamed/re-centred by tools/process_export.py. Units: studs (1 stud = 1 unit). +Y up. Pivot (grip) at the origin.
mtllib sword.mtl

v 0.00000 0.37500 0.00000
v -0.05547 0.37500 -0.08320
v -0.07071 0.37500 -0.07070
v -0.03162 0.37500 -0.09490
v 0.00000 0.37500 -0.10000
v 0.03162 0.37500 -0.09490
v 0.05547 0.37500 -0.08320
v 0.07071 0.37500 -0.07070
v 0.08321 0.37500 -0.05550
v 0.09487 0.37500 -0.03160
v 0.10000 0.37500 0.00000
v 0.09487 0.37500 0.03160
v 0.08321 0.37500 0.05550
v 0.07071 0.37500 0.07070
v 0.05547 0.37500 0.08320
v 0.03162 0.37500 0.09490
v 0.00000 0.37500 0.10000
v -0.03162 0.37500 0.09490
v -0.05547 0.37500 0.08320
v -0.07071 0.37500 0.07070
v -0.08321 0.37500 0.05550
v -0.09487 0.37500 0.03160
v -0.10000 0.37500 0.00000
v -0.09487 0.37500 -0.03160
v -0.08321 0.37500 -0.05550
v -0.07071 -0.37500 0.07070
v -0.08321 -0.37500 0.05550
v -0.09487 -0.37500 0.03160
v -0.10000 -0.37500 0.00000
v -0.09487 -0.37500 -0.03160
v -0.08321 -0.37500 -0.05550
v -0.07071 -0.37500 -0.07070
v -0.05547 -0.37500 0.08320
v -0.03162 -0.37500 0.09490
v 0.00000 -0.37500 0.10000
v 0.03162 -0.37500 0.09490
v 0.05547 -0.37500 0.08320
v 0.07071 -0.37500 0.07070
v 0.00000 -0.37500 0.00000
v 0.08321 -0.37500 0.05550
v 0.09487 -0.37500 0.03160
v 0.10000 -0.37500 0.00000
v 0.09487 -0.37500 -0.03160
v 0.08321 -0.37500 -0.05550
v 0.07071 -0.37500 -0.07070
v 0.05547 -0.37500 -0.08320
v 0.03162 -0.37500 -0.09490
v 0.00000 -0.37500 -0.10000
v -0.03162 -0.37500 -0.09490
v -0.05547 -0.37500 -0.08320
v 0.08660 -0.36340 -0.08660
v 0.09594 -0.35406 -0.06400
v 0.09594 -0.38604 -0.09590
v 0.10914 -0.37724 -0.07280
v 0.10324 -0.34676 -0.03440
v 0.12027 -0.36982 -0.04010
v 0.10607 -0.34393 0.00000
v 0.12481 -0.36680 0.00000
v 0.10324 -0.34676 0.03440
v 0.12027 -0.36982 0.04010
v 0.09594 -0.35406 0.06400
v 0.10914 -0.37724 0.07280
v 0.08660 -0.36340 0.08660
v 0.09594 -0.38604 0.09590
v 0.10324 -0.41559 -0.10320
v 0.12027 -0.40991 -0.08020
v 0.13568 -0.40477 -0.04520
v 0.14230 -0.40257 0.00000
v 0.13568 -0.40477 0.04520
v 0.12027 -0.40991 0.08020
v 0.10324 -0.41559 0.10320
v 0.10607 -0.45000 -0.10610
v 0.12481 -0.45000 -0.08320
v 0.14230 -0.45000 -0.04740
v 0.15000 -0.45000 0.00000
v 0.14230 -0.45000 0.04740
v 0.12481 -0.45000 0.08320
v 0.10607 -0.45000 0.10610
v 0.10324 -0.48441 -0.10320
v 0.12027 -0.49009 -0.08020
v 0.13568 -0.49523 -0.04520
v 0.14230 -0.49743 0.00000
v 0.13568 -0.49523 0.04520
v 0.12027 -0.49009 0.08020
v 0.10324 -0.48441 0.10320
v 0.09594 -0.51396 -0.09590
v 0.10914 -0.52276 -0.07280
v 0.12027 -0.53018 -0.04010
v 0.12481 -0.53321 0.00000
v 0.12027 -0.53018 0.04010
v 0.10914 -0.52276 0.07280
v 0.09594 -0.51396 0.09590
v 0.08660 -0.53660 -0.08660
v 0.09594 -0.54594 -0.06400
v 0.10324 -0.55324 -0.03440
v 0.10607 -0.55607 0.00000
v 0.10324 -0.55324 0.03440
v 0.09594 -0.54594 0.06400
v 0.08660 -0.53660 0.08660
v -0.08660 -0.36340 0.08660
v -0.06396 -0.35406 0.09590
v -0.09594 -0.35406 0.06400
v -0.07276 -0.34086 0.07280
v -0.03441 -0.34676 0.10320
v -0.04009 -0.32973 0.08020
v 0.00000 -0.34393 0.10610
v 0.00000 -0.32519 0.08320
v 0.03441 -0.34676 0.10320
v 0.04009 -0.32973 0.08020
v 0.06396 -0.35406 0.09590
v 0.07276 -0.34086 0.07280
v -0.10324 -0.34676 0.03440
v -0.08018 -0.32973 0.04010
v -0.04523 -0.31432 0.04520
v 0.00000 -0.30770 0.04740
v 0.04523 -0.31432 0.04520
v 0.08018 -0.32973 0.04010
v -0.10607 -0.34393 0.00000
v -0.08321 -0.32519 0.00000
v -0.04743 -0.30770 0.00000
v 0.00000 -0.30000 0.00000
v 0.04743 -0.30770 0.00000
v 0.08321 -0.32519 0.00000
v -0.10324 -0.34676 -0.03440
v -0.08018 -0.32973 -0.04010
v -0.04523 -0.31432 -0.04520
v 0.00000 -0.30770 -0.04740
v 0.04523 -0.31432 -0.04520
v 0.08018 -0.32973 -0.04010
v -0.09594 -0.35406 -0.06400
v -0.07276 -0.34086 -0.07280
v -0.04009 -0.32973 -0.08020
v 0.00000 -0.32519 -0.08320
v 0.04009 -0.32973 -0.08020
v 0.07276 -0.34086 -0.07280
v -0.08660 -0.36340 -0.08660
v -0.06396 -0.35406 -0.09590
v -0.03441 -0.34676 -0.10320
v 0.00000 -0.34393 -0.10610
v 0.03441 -0.34676 -0.10320
v 0.06396 -0.35406 -0.09590
v 0.07276 -0.37724 0.10910
v 0.04009 -0.36982 0.12030
v 0.00000 -0.36680 0.12480
v -0.04009 -0.36982 0.12030
v -0.07276 -0.37724 0.10910
v -0.09594 -0.38604 0.09590
v 0.08018 -0.40991 0.12030
v 0.04523 -0.40477 0.13570
v 0.00000 -0.40257 0.14230
v -0.04523 -0.40477 0.13570
v -0.08018 -0.40991 0.12030
v -0.10324 -0.41559 0.10320
v 0.08321 -0.45000 0.12480
v 0.04743 -0.45000 0.14230
v 0.00000 -0.45000 0.15000
v -0.04743 -0.45000 0.14230
v -0.08321 -0.45000 0.12480
v -0.10607 -0.45000 0.10610
v 0.08018 -0.49009 0.12030
v 0.04523 -0.49523 0.13570
v 0.00000 -0.49743 0.14230
v -0.04523 -0.49523 0.13570
v -0.08018 -0.49009 0.12030
v -0.10324 -0.48441 0.10320
v 0.07276 -0.52276 0.10910
v 0.04009 -0.53018 0.12030
v 0.00000 -0.53321 0.12480
v -0.04009 -0.53018 0.12030
v -0.07276 -0.52276 0.10910
v -0.09594 -0.51396 0.09590
v 0.06396 -0.54594 0.09590
v 0.03441 -0.55324 0.10320
v 0.00000 -0.55607 0.10610
v -0.03441 -0.55324 0.10320
v -0.06396 -0.54594 0.09590
v -0.08660 -0.53660 0.08660
v -0.10914 -0.37724 0.07280
v -0.12027 -0.36982 0.04010
v -0.12481 -0.36680 0.00000
v -0.12027 -0.36982 -0.04010
v -0.10914 -0.37724 -0.07280
v -0.09594 -0.38604 -0.09590
v -0.12027 -0.40991 0.08020
v -0.13568 -0.40477 0.04520
v -0.14230 -0.40257 0.00000
v -0.13568 -0.40477 -0.04520
v -0.12027 -0.40991 -0.08020
v -0.10324 -0.41559 -0.10320
v -0.12481 -0.45000 0.08320
v -0.14230 -0.45000 0.04740
v -0.15000 -0.45000 0.00000
v -0.14230 -0.45000 -0.04740
v -0.12481 -0.45000 -0.08320
v -0.10607 -0.45000 -0.10610
v -0.12027 -0.49009 0.08020
v -0.13568 -0.49523 0.04520
v -0.14230 -0.49743 0.00000
v -0.13568 -0.49523 -0.04520
v -0.12027 -0.49009 -0.08020
v -0.10324 -0.48441 -0.10320
v -0.10914 -0.52276 0.07280
v -0.12027 -0.53018 0.04010
v -0.12481 -0.53321 0.00000
v -0.12027 -0.53018 -0.04010
v -0.10914 -0.52276 -0.07280
v -0.09594 -0.51396 -0.09590
v -0.09594 -0.54594 0.06400
v -0.10324 -0.55324 0.03440
v -0.10607 -0.55607 0.00000
v -0.10324 -0.55324 -0.03440
v -0.09594 -0.54594 -0.06400
v -0.08660 -0.53660 -0.08660
v -0.06396 -0.54594 -0.09590
v -0.07276 -0.55914 -0.07280
v -0.03441 -0.55324 -0.10320
v -0.04009 -0.57027 -0.08020
v 0.00000 -0.55607 -0.10610
v 0.00000 -0.57481 -0.08320
v 0.03441 -0.55324 -0.10320
v 0.04009 -0.57027 -0.08020
v 0.06396 -0.54594 -0.09590
v 0.07276 -0.55914 -0.07280
v -0.08018 -0.57027 -0.04010
v -0.04523 -0.58568 -0.04520
v 0.00000 -0.59230 -0.04740
v 0.04523 -0.58568 -0.04520
v 0.08018 -0.57027 -0.04010
v -0.08321 -0.57481 0.00000
v -0.04743 -0.59230 0.00000
v 0.00000 -0.60000 0.00000
v 0.04743 -0.59230 0.00000
v 0.08321 -0.57481 0.00000
v -0.08018 -0.57027 0.04010
v -0.04523 -0.58568 0.04520
v 0.00000 -0.59230 0.04740
v 0.04523 -0.58568 0.04520
v 0.08018 -0.57027 0.04010
v -0.07276 -0.55914 0.07280
v -0.04009 -0.57027 0.08020
v 0.00000 -0.57481 0.08320
v 0.04009 -0.57027 0.08020
v 0.07276 -0.55914 0.07280
v -0.07276 -0.37724 -0.10910
v -0.04009 -0.36982 -0.12030
v 0.00000 -0.36680 -0.12480
v 0.04009 -0.36982 -0.12030
v 0.07276 -0.37724 -0.10910
v -0.08018 -0.40991 -0.12030
v -0.04523 -0.40477 -0.13570
v 0.00000 -0.40257 -0.14230
v 0.04523 -0.40477 -0.13570
v 0.08018 -0.40991 -0.12030
v -0.08321 -0.45000 -0.12480
v -0.04743 -0.45000 -0.14230
v 0.00000 -0.45000 -0.15000
v 0.04743 -0.45000 -0.14230
v 0.08321 -0.45000 -0.12480
v -0.08018 -0.49009 -0.12030
v -0.04523 -0.49523 -0.13570
v 0.00000 -0.49743 -0.14230
v 0.04523 -0.49523 -0.13570
v 0.08018 -0.49009 -0.12030
v -0.07276 -0.52276 -0.10910
v -0.04009 -0.53018 -0.12030
v 0.00000 -0.53321 -0.12480
v 0.04009 -0.53018 -0.12030
v 0.07276 -0.52276 -0.10910
v 0.55000 0.53000 -0.14000
v 0.55000 0.53000 0.14000
v 0.55000 0.37000 -0.14000
v 0.55000 0.37000 0.14000
v -0.55000 0.53000 0.14000
v -0.55000 0.53000 -0.14000
v -0.55000 0.37000 0.14000
v -0.55000 0.37000 -0.14000
v 0.17000 3.23000 -0.05000
v 0.17000 3.23000 0.05000
v 0.17000 0.53000 -0.05000
v 0.17000 0.53000 0.05000
v -0.17000 3.23000 0.05000
v -0.17000 3.23000 -0.05000
v -0.17000 0.53000 0.05000
v -0.17000 0.53000 -0.05000
v 0.00000 3.65000 0.05000
v 0.00000 3.23000 0.05000
v 0.00000 3.65000 -0.05000
v 0.00000 3.23000 -0.05000
v 0.04000 2.90000 -0.06000
v 0.04000 2.90000 0.06000
v 0.04000 0.70000 -0.06000
v 0.04000 0.70000 0.06000
v -0.04000 2.90000 0.06000
v -0.04000 2.90000 -0.06000
v -0.04000 0.70000 0.06000
v -0.04000 0.70000 -0.06000
vt 4.26250 -4.26250
vt 4.27290 -4.25557
vt 4.27134 -4.25366
vt 4.27436 -4.25855
vt 4.27500 -4.26250
vt 4.27436 -4.26645
vt 4.27290 -4.26943
vt 4.27134 -4.27134
vt 4.26943 -4.27290
vt 4.26645 -4.27436
vt 4.26250 -4.27500
vt 4.25855 -4.27436
vt 4.25557 -4.27290
vt 4.25366 -4.27134
vt 4.25210 -4.26943
vt 4.25064 -4.26645
vt 4.25000 -4.26250
vt 4.25064 -4.25855
vt 4.25210 -4.25557
vt 4.25366 -4.25366
vt 4.25557 -4.25210
vt 4.25855 -4.25064
vt 4.26250 -4.25000
vt 4.26645 -4.25064
vt 4.26943 -4.25210
vt 4.34375 -4.25000
vt 4.25000 -4.25000
vt 4.34375 -4.25417
vt 4.25000 -4.25417
vt 4.34375 -4.25833
vt 4.25000 -4.25833
vt 4.34375 -4.26250
vt 4.34375 -4.26667
vt 4.25000 -4.26667
vt 4.34375 -4.27083
vt 4.25000 -4.27083
vt 4.34375 -4.27500
vt 4.25000 -4.27500
vt 56.03750 -29.00000
vt 56.03120 -29.00000
vt 56.03750 -29.00630
vt 56.03120 -29.00630
vt 56.02500 -29.00000
vt 56.02500 -29.00630
vt 56.01870 -29.00000
vt 56.01870 -29.00630
vt 56.01250 -29.00000
vt 56.01250 -29.00630
vt 56.00620 -29.00000
vt 56.00620 -29.00630
vt 56.00000 -29.00000
vt 56.00000 -29.00630
vt 56.03750 -29.01250
vt 56.03120 -29.01250
vt 56.02500 -29.01250
vt 56.01870 -29.01250
vt 56.01250 -29.01250
vt 56.00620 -29.01250
vt 56.00000 -29.01250
vt 56.03750 -29.01870
vt 56.03120 -29.01870
vt 56.02500 -29.01870
vt 56.01870 -29.01870
vt 56.01250 -29.01870
vt 56.00620 -29.01870
vt 56.00000 -29.01870
vt 56.03750 -29.02500
vt 56.03120 -29.02500
vt 56.02500 -29.02500
vt 56.01870 -29.02500
vt 56.01250 -29.02500
vt 56.00620 -29.02500
vt 56.00000 -29.02500
vt 56.03750 -29.03120
vt 56.03120 -29.03120
vt 56.02500 -29.03120
vt 56.01870 -29.03120
vt 56.01250 -29.03120
vt 56.00620 -29.03120
vt 56.00000 -29.03120
vt 56.03750 -29.03750
vt 56.03120 -29.03750
vt 56.02500 -29.03750
vt 56.01870 -29.03750
vt 56.01250 -29.03750
vt 56.00620 -29.03750
vt 56.00000 -29.03750
vt 7.53500 -6.50000
vt 7.50000 -6.50000
vt 7.53500 -6.52000
vt 7.50000 -6.52000
vt 7.63750 -6.50000
vt 7.63750 -6.53500
vt 7.50000 -6.53500
vt 7.63750 -6.52000
vt -0.06241 1.10777
vt -0.07491 1.10777
vt -0.06241 0.77027
vt -0.07491 0.77027
vt -0.03241 1.10777
vt -0.03241 1.09527
vt -0.07491 1.09527
vt -0.03241 0.77027
vt -0.02522 1.01935
vt -0.00397 0.96685
vt -0.02522 0.96685
vt -0.01272 1.01935
vt -0.01272 0.96685
vt -0.00397 1.01935
vt -0.01272 0.99810
vt -0.02522 0.99810
vt -0.01272 0.96271
vt -0.02522 0.96271
vt -0.02576 1.01078
vt -0.00451 0.95828
vt -0.02576 0.95828
vt -0.01326 1.01078
vt -0.01326 0.95828
vt -0.00451 1.01078
vt -0.01326 0.98953
vt -0.02576 0.98953
vt -0.01326 0.95414
vt -0.02576 0.95414
vt 0.05276 0.87522
vt 0.03776 0.87522
vt 0.05276 0.60022
vt 0.03776 0.60022
vt 0.04776 0.87522
vt 0.04776 0.86022
vt 0.03776 0.86022
vt 0.04776 0.60022
vn 0.0000 1.0000 0.0000
vn -0.7087 0.0000 0.7087
vn -0.8346 0.0000 0.5512
vn -0.9449 0.0000 0.3150
vn -1.0000 0.0000 0.0000
vn -0.9449 0.0000 -0.3150
vn -0.8346 0.0000 -0.5512
vn -0.7087 0.0000 -0.7087
vn -0.5512 0.0000 0.8346
vn -0.3150 0.0000 0.9449
vn 0.0000 0.0000 1.0000
vn 0.3150 0.0000 0.9449
vn 0.5512 0.0000 0.8346
vn 0.7087 0.0000 0.7087
vn 0.0000 -1.0000 0.0000
vn 0.7087 0.0000 -0.7087
vn 0.8346 0.0000 -0.5512
vn 0.9449 0.0000 -0.3150
vn 1.0000 0.0000 0.0000
vn 0.9449 0.0000 0.3150
vn 0.8346 0.0000 0.5512
vn -0.5512 0.0000 -0.8346
vn -0.3150 0.0000 -0.9449
vn 0.0000 0.0000 -1.0000
vn 0.3150 0.0000 -0.9449
vn 0.5512 0.0000 -0.8346
vn 0.5748 0.5748 -0.5748
vn 0.6378 0.6378 -0.4252
vn 0.6378 0.4252 -0.6378
vn 0.7244 0.4882 -0.4882
vn 0.6850 0.6850 -0.2283
vn 0.8032 0.5354 -0.2677
vn 0.7087 0.7087 0.0000
vn 0.8346 0.5512 0.0000
vn 0.6850 0.6850 0.2283
vn 0.8032 0.5354 0.2677
vn 0.6378 0.6378 0.4252
vn 0.7244 0.4882 0.4882
vn 0.5748 0.5748 0.5748
vn 0.6378 0.4252 0.6378
vn 0.6850 0.2283 -0.6850
vn 0.8032 0.2677 -0.5354
vn 0.9055 0.2992 -0.2992
vn 0.9449 0.3150 0.0000
vn 0.9055 0.2992 0.2992
vn 0.8032 0.2677 0.5354
vn 0.6850 0.2283 0.6850
vn 0.6850 -0.2283 -0.6850
vn 0.8032 -0.2677 -0.5354
vn 0.9055 -0.2992 -0.2992
vn 0.9449 -0.3150 0.0000
vn 0.9055 -0.2992 0.2992
vn 0.8032 -0.2677 0.5354
vn 0.6850 -0.2283 0.6850
vn 0.6378 -0.4252 -0.6378
vn 0.7244 -0.4882 -0.4882
vn 0.8032 -0.5354 -0.2677
vn 0.8346 -0.5512 0.0000
vn 0.8032 -0.5354 0.2677
vn 0.7244 -0.4882 0.4882
vn 0.6378 -0.4252 0.6378
vn 0.5748 -0.5748 -0.5748
vn 0.6378 -0.6378 -0.4252
vn 0.6850 -0.6850 -0.2283
vn 0.7087 -0.7087 0.0000
vn 0.6850 -0.6850 0.2283
vn 0.6378 -0.6378 0.4252
vn 0.5748 -0.5748 0.5748
vn -0.5748 0.5748 0.5748
vn -0.4252 0.6378 0.6378
vn -0.6378 0.6378 0.4252
vn -0.4882 0.7244 0.4882
vn -0.2283 0.6850 0.6850
vn -0.2677 0.8032 0.5354
vn 0.0000 0.7087 0.7087
vn 0.0000 0.8346 0.5512
vn 0.2283 0.6850 0.6850
vn 0.2677 0.8032 0.5354
vn 0.4252 0.6378 0.6378
vn 0.4882 0.7244 0.4882
vn -0.6850 0.6850 0.2283
vn -0.5354 0.8032 0.2677
vn -0.2992 0.9055 0.2992
vn 0.0000 0.9449 0.3150
vn 0.2992 0.9055 0.2992
vn 0.5354 0.8032 0.2677
vn -0.7087 0.7087 0.0000
vn -0.5512 0.8346 0.0000
vn -0.3150 0.9449 0.0000
vn 0.3150 0.9449 0.0000
vn 0.5512 0.8346 0.0000
vn -0.6850 0.6850 -0.2283
vn -0.5354 0.8032 -0.2677
vn -0.2992 0.9055 -0.2992
vn 0.0000 0.9449 -0.3150
vn 0.2992 0.9055 -0.2992
vn 0.5354 0.8032 -0.2677
vn -0.6378 0.6378 -0.4252
vn -0.4882 0.7244 -0.4882
vn -0.2677 0.8032 -0.5354
vn 0.0000 0.8346 -0.5512
vn 0.2677 0.8032 -0.5354
vn 0.4882 0.7244 -0.4882
vn -0.5748 0.5748 -0.5748
vn -0.4252 0.6378 -0.6378
vn -0.2283 0.6850 -0.6850
vn 0.0000 0.7087 -0.7087
vn 0.2283 0.6850 -0.6850
vn 0.4252 0.6378 -0.6378
vn 0.4882 0.4882 0.7244
vn 0.2677 0.5354 0.8032
vn 0.0000 0.5512 0.8346
vn -0.2677 0.5354 0.8032
vn -0.4882 0.4882 0.7244
vn -0.6378 0.4252 0.6378
vn 0.5354 0.2677 0.8032
vn 0.2992 0.2992 0.9055
vn 0.0000 0.3150 0.9449
vn -0.2992 0.2992 0.9055
vn -0.5354 0.2677 0.8032
vn -0.6850 0.2283 0.6850
vn 0.5354 -0.2677 0.8032
vn 0.2992 -0.2992 0.9055
vn 0.0000 -0.3150 0.9449
vn -0.2992 -0.2992 0.9055
vn -0.5354 -0.2677 0.8032
vn -0.6850 -0.2283 0.6850
vn 0.4882 -0.4882 0.7244
vn 0.2677 -0.5354 0.8032
vn 0.0000 -0.5512 0.8346
vn -0.2677 -0.5354 0.8032
vn -0.4882 -0.4882 0.7244
vn -0.6378 -0.4252 0.6378
vn 0.4252 -0.6378 0.6378
vn 0.2283 -0.6850 0.6850
vn 0.0000 -0.7087 0.7087
vn -0.2283 -0.6850 0.6850
vn -0.4252 -0.6378 0.6378
vn -0.5748 -0.5748 0.5748
vn -0.7244 0.4882 0.4882
vn -0.8032 0.5354 0.2677
vn -0.8346 0.5512 0.0000
vn -0.8032 0.5354 -0.2677
vn -0.7244 0.4882 -0.4882
vn -0.6378 0.4252 -0.6378
vn -0.8032 0.2677 0.5354
vn -0.9055 0.2992 0.2992
vn -0.9449 0.3150 0.0000
vn -0.9055 0.2992 -0.2992
vn -0.8032 0.2677 -0.5354
vn -0.6850 0.2283 -0.6850
vn -0.8032 -0.2677 0.5354
vn -0.9055 -0.2992 0.2992
vn -0.9449 -0.3150 0.0000
vn -0.9055 -0.2992 -0.2992
vn -0.8032 -0.2677 -0.5354
vn -0.6850 -0.2283 -0.6850
vn -0.7244 -0.4882 0.4882
vn -0.8032 -0.5354 0.2677
vn -0.8346 -0.5512 0.0000
vn -0.8032 -0.5354 -0.2677
vn -0.7244 -0.4882 -0.4882
vn -0.6378 -0.4252 -0.6378
vn -0.6378 -0.6378 0.4252
vn -0.6850 -0.6850 0.2283
vn -0.7087 -0.7087 0.0000
vn -0.6850 -0.6850 -0.2283
vn -0.6378 -0.6378 -0.4252
vn -0.5748 -0.5748 -0.5748
vn -0.4252 -0.6378 -0.6378
vn -0.4882 -0.7244 -0.4882
vn -0.2283 -0.6850 -0.6850
vn -0.2677 -0.8032 -0.5354
vn 0.0000 -0.7087 -0.7087
vn 0.0000 -0.8346 -0.5512
vn 0.2283 -0.6850 -0.6850
vn 0.2677 -0.8032 -0.5354
vn 0.4252 -0.6378 -0.6378
vn 0.4882 -0.7244 -0.4882
vn -0.5354 -0.8032 -0.2677
vn -0.2992 -0.9055 -0.2992
vn 0.0000 -0.9449 -0.3150
vn 0.2992 -0.9055 -0.2992
vn 0.5354 -0.8032 -0.2677
vn -0.5512 -0.8346 0.0000
vn -0.3150 -0.9449 0.0000
vn 0.3150 -0.9449 0.0000
vn 0.5512 -0.8346 0.0000
vn -0.5354 -0.8032 0.2677
vn -0.2992 -0.9055 0.2992
vn 0.0000 -0.9449 0.3150
vn 0.2992 -0.9055 0.2992
vn 0.5354 -0.8032 0.2677
vn -0.4882 -0.7244 0.4882
vn -0.2677 -0.8032 0.5354
vn 0.0000 -0.8346 0.5512
vn 0.2677 -0.8032 0.5354
vn 0.4882 -0.7244 0.4882
vn -0.4882 0.4882 -0.7244
vn -0.2677 0.5354 -0.8032
vn 0.0000 0.5512 -0.8346
vn 0.2677 0.5354 -0.8032
vn 0.4882 0.4882 -0.7244
vn -0.5354 0.2677 -0.8032
vn -0.2992 0.2992 -0.9055
vn 0.0000 0.3150 -0.9449
vn 0.2992 0.2992 -0.9055
vn 0.5354 0.2677 -0.8032
vn -0.5354 -0.2677 -0.8032
vn -0.2992 -0.2992 -0.9055
vn 0.0000 -0.3150 -0.9449
vn 0.2992 -0.2992 -0.9055
vn 0.5354 -0.2677 -0.8032
vn -0.4882 -0.4882 -0.7244
vn -0.2677 -0.5354 -0.8032
vn 0.0000 -0.5512 -0.8346
vn 0.2677 -0.5354 -0.8032
vn 0.4882 -0.4882 -0.7244
vn 0.9291 0.3780 0.0000
vn -0.9291 0.3780 0.0000

o Grip
usemtl grip
f 1/1/1 2/2/1 3/3/1
f 1/1/1 4/4/1 2/2/1
f 1/1/1 5/5/1 4/4/1
f 1/1/1 6/6/1 5/5/1
f 1/1/1 7/7/1 6/6/1
f 1/1/1 8/8/1 7/7/1
f 1/1/1 9/9/1 8/8/1
f 1/1/1 10/10/1 9/9/1
f 1/1/1 11/11/1 10/10/1
f 1/1/1 12/12/1 11/11/1
f 1/1/1 13/13/1 12/12/1
f 1/1/1 14/14/1 13/13/1
f 1/1/1 15/15/1 14/14/1
f 1/1/1 16/16/1 15/15/1
f 1/1/1 17/17/1 16/16/1
f 1/1/1 18/18/1 17/17/1
f 1/1/1 19/19/1 18/18/1
f 1/1/1 20/20/1 19/19/1
f 1/1/1 21/21/1 20/20/1
f 1/1/1 22/22/1 21/21/1
f 1/1/1 23/23/1 22/22/1
f 1/1/1 24/24/1 23/23/1
f 1/1/1 25/25/1 24/24/1
f 1/1/1 3/3/1 25/25/1
f 26/26/2 20/27/2 27/28/3
f 27/28/3 20/27/2 21/29/3
f 27/28/3 21/29/3 28/30/4
f 28/30/4 21/29/3 22/31/4
f 28/30/4 22/31/4 29/32/5
f 29/32/5 22/31/4 23/17/5
f 29/32/5 23/17/5 30/33/6
f 30/33/6 23/17/5 24/34/6
f 30/33/6 24/34/6 31/35/7
f 31/35/7 24/34/6 25/36/7
f 31/35/7 25/36/7 32/37/8
f 32/37/8 25/36/7 3/38/8
f 20/26/2 26/27/2 19/28/9
f 19/28/9 26/27/2 33/29/9
f 19/28/9 33/29/9 18/30/10
f 18/30/10 33/29/9 34/31/10
f 18/30/10 34/31/10 17/32/11
f 17/32/11 34/31/10 35/17/11
f 17/32/11 35/17/11 16/33/12
f 16/33/12 35/17/11 36/34/12
f 16/33/12 36/34/12 15/35/13
f 15/35/13 36/34/12 37/36/13
f 15/35/13 37/36/13 14/37/14
f 14/37/14 37/36/13 38/38/14
f 39/1/15 33/2/15 26/3/15
f 39/1/15 34/4/15 33/2/15
f 39/1/15 35/5/15 34/4/15
f 39/1/15 36/6/15 35/5/15
f 39/1/15 37/7/15 36/6/15
f 39/1/15 38/8/15 37/7/15
f 39/1/15 40/9/15 38/8/15
f 39/1/15 41/10/15 40/9/15
f 39/1/15 42/11/15 41/10/15
f 39/1/15 43/12/15 42/11/15
f 39/1/15 44/13/15 43/12/15
f 39/1/15 45/14/15 44/13/15
f 39/1/15 46/15/15 45/14/15
f 39/1/15 47/16/15 46/15/15
f 39/1/15 48/17/15 47/16/15
f 39/1/15 49/18/15 48/17/15
f 39/1/15 50/19/15 49/18/15
f 39/1/15 32/20/15 50/19/15
f 39/1/15 31/21/15 32/20/15
f 39/1/15 30/22/15 31/21/15
f 39/1/15 29/23/15 30/22/15
f 39/1/15 28/24/15 29/23/15
f 39/1/15 27/25/15 28/24/15
f 39/1/15 26/3/15 27/25/15
f 45/26/16 8/27/16 44/28/17
f 44/28/17 8/27/16 9/29/17
f 44/28/17 9/29/17 43/30/18
f 43/30/18 9/29/17 10/31/18
f 43/30/18 10/31/18 42/32/19
f 42/32/19 10/31/18 11/17/19
f 42/32/19 11/17/19 41/33/20
f 41/33/20 11/17/19 12/34/20
f 41/33/20 12/34/20 40/35/21
f 40/35/21 12/34/20 13/36/21
f 40/35/21 13/36/21 38/37/14
f 38/37/14 13/36/21 14/38/14
f 32/26/8 3/27/8 50/28/22
f 50/28/22 3/27/8 2/29/22
f 50/28/22 2/29/22 49/30/23
f 49/30/23 2/29/22 4/31/23
f 49/30/23 4/31/23 48/32/24
f 48/32/24 4/31/23 5/17/24
f 48/32/24 5/17/24 47/33/25
f 47/33/25 5/17/24 6/34/25
f 47/33/25 6/34/25 46/35/26
f 46/35/26 6/34/25 7/36/26
f 46/35/26 7/36/26 45/37/16
f 45/37/16 7/36/26 8/38/16
o Pommel
usemtl pommel
f 51/39/27 52/40/28 53/41/29
f 53/41/29 52/40/28 54/42/30
f 52/40/28 55/43/31 54/42/30
f 54/42/30 55/43/31 56/44/32
f 55/43/31 57/45/33 56/44/32
f 56/44/32 57/45/33 58/46/34
f 57/45/33 59/47/35 58/46/34
f 58/46/34 59/47/35 60/48/36
f 59/47/35 61/49/37 60/48/36
f 60/48/36 61/49/37 62/50/38
f 61/49/37 63/51/39 62/50/38
f 62/50/38 63/51/39 64/52/40
f 53/41/29 54/42/30 65/53/41
f 65/53/41 54/42/30 66/54/42
f 54/42/30 56/44/32 66/54/42
f 66/54/42 56/44/32 67/55/43
f 56/44/32 58/46/34 67/55/43
f 67/55/43 58/46/34 68/56/44
f 58/46/34 60/48/36 68/56/44
f 68/56/44 60/48/36 69/57/45
f 60/48/36 62/50/38 69/57/45
f 69/57/45 62/50/38 70/58/46
f 62/50/38 64/52/40 70/58/46
f 70/58/46 64/52/40 71/59/47
f 65/53/41 66/54/42 72/60/16
f 72/60/16 66/54/42 73/61/17
f 66/54/42 67/55/43 73/61/17
f 73/61/17 67/55/43 74/62/18
f 67/55/43 68/56/44 74/62/18
f 74/62/18 68/56/44 75/63/19
f 68/56/44 69/57/45 75/63/19
f 75/63/19 69/57/45 76/64/20
f 69/57/45 70/58/46 76/64/20
f 76/64/20 70/58/46 77/65/21
f 70/58/46 71/59/47 77/65/21
f 77/65/21 71/59/47 78/66/14
f 72/60/16 73/61/17 79/67/48
f 79/67/48 73/61/17 80/68/49
f 73/61/17 74/62/18 80/68/49
f 80/68/49 74/62/18 81/69/50
f 74/62/18 75/63/19 81/69/50
f 81/69/50 75/63/19 82/70/51
f 75/63/19 76/64/20 82/70/51
f 82/70/51 76/64/20 83/71/52
f 76/64/20 77/65/21 83/71/52
f 83/71/52 77/65/21 84/72/53
f 77/65/21 78/66/14 84/72/53
f 84/72/53 78/66/14 85/73/54
f 79/67/48 80/68/49 86/74/55
f 86/74/55 80/68/49 87/75/56
f 80/68/49 81/69/50 87/75/56
f 87/75/56 81/69/50 88/76/57
f 81/69/50 82/70/51 88/76/57
f 88/76/57 82/70/51 89/77/58
f 82/70/51 83/71/52 89/77/58
f 89/77/58 83/71/52 90/78/59
f 83/71/52 84/72/53 90/78/59
f 90/78/59 84/72/53 91/79/60
f 84/72/53 85/73/54 91/79/60
f 91/79/60 85/73/54 92/80/61
f 86/74/55 87/75/56 93/81/62
f 93/81/62 87/75/56 94/82/63
f 87/75/56 88/76/57 94/82/63
f 94/82/63 88/76/57 95/83/64
f 88/76/57 89/77/58 95/83/64
f 95/83/64 89/77/58 96/84/65
f 89/77/58 90/78/59 96/84/65
f 96/84/65 90/78/59 97/85/66
f 90/78/59 91/79/60 97/85/66
f 97/85/66 91/79/60 98/86/67
f 91/79/60 92/80/61 98/86/67
f 98/86/67 92/80/61 99/87/68
f 100/39/69 101/40/70 102/41/71
f 102/41/71 101/40/70 103/42/72
f 101/40/70 104/43/73 103/42/72
f 103/42/72 104/43/73 105/44/74
f 104/43/73 106/45/75 105/44/74
f 105/44/74 106/45/75 107/46/76
f 106/45/75 108/47/77 107/46/76
f 107/46/76 108/47/77 109/48/78
f 108/47/77 110/49/79 109/48/78
f 109/48/78 110/49/79 111/50/80
f 110/49/79 63/51/39 111/50/80
f 111/50/80 63/51/39 61/52/37
f 102/41/71 103/42/72 112/53/81
f 112/53/81 103/42/72 113/54/82
f 103/42/72 105/44/74 113/54/82
f 113/54/82 105/44/74 114/55/83
f 105/44/74 107/46/76 114/55/83
f 114/55/83 107/46/76 115/56/84
f 107/46/76 109/48/78 115/56/84
f 115/56/84 109/48/78 116/57/85
f 109/48/78 111/50/80 116/57/85
f 116/57/85 111/50/80 117/58/86
f 111/50/80 61/52/37 117/58/86
f 117/58/86 61/52/37 59/59/35
f 112/53/81 113/54/82 118/60/87
f 118/60/87 113/54/82 119/61/88
f 113/54/82 114/55/83 119/61/88
f 119/61/88 114/55/83 120/62/89
f 114/55/83 115/56/84 120/62/89
f 120/62/89 115/56/84 121/63/1
f 115/56/84 116/57/85 121/63/1
f 121/63/1 116/57/85 122/64/90
f 116/57/85 117/58/86 122/64/90
f 122/64/90 117/58/86 123/65/91
f 117/58/86 59/59/35 123/65/91
f 123/65/91 59/59/35 57/66/33
f 118/60/87 119/61/88 124/67/92
f 124/67/92 119/61/88 125/68/93
f 119/61/88 120/62/89 125/68/93
f 125/68/93 120/62/89 126/69/94
f 120/62/89 121/63/1 126/69/94
f 126/69/94 121/63/1 127/70/95
f 121/63/1 122/64/90 127/70/95
f 127/70/95 122/64/90 128/71/96
f 122/64/90 123/65/91 128/71/96
f 128/71/96 123/65/91 129/72/97
f 123/65/91 57/66/33 129/72/97
f 129/72/97 57/66/33 55/73/31
f 124/67/92 125/68/93 130/74/98
f 130/74/98 125/68/93 131/75/99
f 125/68/93 126/69/94 131/75/99
f 131/75/99 126/69/94 132/76/100
f 126/69/94 127/70/95 132/76/100
f 132/76/100 127/70/95 133/77/101
f 127/70/95 128/71/96 133/77/101
f 133/77/101 128/71/96 134/78/102
f 128/71/96 129/72/97 134/78/102
f 134/78/102 129/72/97 135/79/103
f 129/72/97 55/73/31 135/79/103
f 135/79/103 55/73/31 52/80/28
f 130/74/98 131/75/99 136/81/104
f 136/81/104 131/75/99 137/82/105
f 131/75/99 132/76/100 137/82/105
f 137/82/105 132/76/100 138/83/106
f 132/76/100 133/77/101 138/83/106
f 138/83/106 133/77/101 139/84/107
f 133/77/101 134/78/102 139/84/107
f 139/84/107 134/78/102 140/85/108
f 134/78/102 135/79/103 140/85/108
f 140/85/108 135/79/103 141/86/109
f 135/79/103 52/80/28 141/86/109
f 141/86/109 52/80/28 51/87/27
f 63/39/39 110/40/79 64/41/40
f 64/41/40 110/40/79 142/42/110
f 110/40/79 108/43/77 142/42/110
f 142/42/110 108/43/77 143/44/111
f 108/43/77 106/45/75 143/44/111
f 143/44/111 106/45/75 144/46/112
f 106/45/75 104/47/73 144/46/112
f 144/46/112 104/47/73 145/48/113
f 104/47/73 101/49/70 145/48/113
f 145/48/113 101/49/70 146/50/114
f 101/49/70 100/51/69 146/50/114
f 146/50/114 100/51/69 147/52/115
f 64/41/40 142/42/110 71/53/47
f 71/53/47 142/42/110 148/54/116
f 142/42/110 143/44/111 148/54/116
f 148/54/116 143/44/111 149/55/117
f 143/44/111 144/46/112 149/55/117
f 149/55/117 144/46/112 150/56/118
f 144/46/112 145/48/113 150/56/118
f 150/56/118 145/48/113 151/57/119
f 145/48/113 146/50/114 151/57/119
f 151/57/119 146/50/114 152/58/120
f 146/50/114 147/52/115 152/58/120
f 152/58/120 147/52/115 153/59/121
f 71/53/47 148/54/116 78/60/14
f 78/60/14 148/54/116 154/61/13
f 148/54/116 149/55/117 154/61/13
f 154/61/13 149/55/117 155/62/12
f 149/55/117 150/56/118 155/62/12
f 155/62/12 150/56/118 156/63/11
f 150/56/118 151/57/119 156/63/11
f 156/63/11 151/57/119 157/64/10
f 151/57/119 152/58/120 157/64/10
f 157/64/10 152/58/120 158/65/9
f 152/58/120 153/59/121 158/65/9
f 158/65/9 153/59/121 159/66/2
f 78/60/14 154/61/13 85/67/54
f 85/67/54 154/61/13 160/68/122
f 154/61/13 155/62/12 160/68/122
f 160/68/122 155/62/12 161/69/123
f 155/62/12 156/63/11 161/69/123
f 161/69/123 156/63/11 162/70/124
f 156/63/11 157/64/10 162/70/124
f 162/70/124 157/64/10 163/71/125
f 157/64/10 158/65/9 163/71/125
f 163/71/125 158/65/9 164/72/126
f 158/65/9 159/66/2 164/72/126
f 164/72/126 159/66/2 165/73/127
f 85/67/54 160/68/122 92/74/61
f 92/74/61 160/68/122 166/75/128
f 160/68/122 161/69/123 166/75/128
f 166/75/128 161/69/123 167/76/129
f 161/69/123 162/70/124 167/76/129
f 167/76/129 162/70/124 168/77/130
f 162/70/124 163/71/125 168/77/130
f 168/77/130 163/71/125 169/78/131
f 163/71/125 164/72/126 169/78/131
f 169/78/131 164/72/126 170/79/132
f 164/72/126 165/73/127 170/79/132
f 170/79/132 165/73/127 171/80/133
f 92/74/61 166/75/128 99/81/68
f 99/81/68 166/75/128 172/82/134
f 166/75/128 167/76/129 172/82/134
f 172/82/134 167/76/129 173/83/135
f 167/76/129 168/77/130 173/83/135
f 173/83/135 168/77/130 174/84/136
f 168/77/130 169/78/131 174/84/136
f 174/84/136 169/78/131 175/85/137
f 169/78/131 170/79/132 175/85/137
f 175/85/137 170/79/132 176/86/138
f 170/79/132 171/80/133 176/86/138
f 176/86/138 171/80/133 177/87/139
f 100/39/69 102/40/71 147/41/115
f 147/41/115 102/40/71 178/42/140
f 102/40/71 112/43/81 178/42/140
f 178/42/140 112/43/81 179/44/141
f 112/43/81 118/45/87 179/44/141
f 179/44/141 118/45/87 180/46/142
f 118/45/87 124/47/92 180/46/142
f 180/46/142 124/47/92 181/48/143
f 124/47/92 130/49/98 181/48/143
f 181/48/143 130/49/98 182/50/144
f 130/49/98 136/51/104 182/50/144
f 182/50/144 136/51/104 183/52/145
f 147/41/115 178/42/140 153/53/121
f 153/53/121 178/42/140 184/54/146
f 178/42/140 179/44/141 184/54/146
f 184/54/146 179/44/141 185/55/147
f 179/44/141 180/46/142 185/55/147
f 185/55/147 180/46/142 186/56/148
f 180/46/142 181/48/143 186/56/148
f 186/56/148 181/48/143 187/57/149
f 181/48/143 182/50/144 187/57/149
f 187/57/149 182/50/144 188/58/150
f 182/50/144 183/52/145 188/58/150
f 188/58/150 183/52/145 189/59/151
f 153/53/121 184/54/146 159/60/2
f 159/60/2 184/54/146 190/61/3
f 184/54/146 185/55/147 190/61/3
f 190/61/3 185/55/147 191/62/4
f 185/55/147 186/56/148 191/62/4
f 191/62/4 186/56/148 192/63/5
f 186/56/148 187/57/149 192/63/5
f 192/63/5 187/57/149 193/64/6
f 187/57/149 188/58/150 193/64/6
f 193/64/6 188/58/150 194/65/7
f 188/58/150 189/59/151 194/65/7
f 194/65/7 189/59/151 195/66/8
f 159/60/2 190/61/3 165/67/127
f 165/67/127 190/61/3 196/68/152
f 190/61/3 191/62/4 196/68/152
f 196/68/152 191/62/4 197/69/153
f 191/62/4 192/63/5 197/69/153
f 197/69/153 192/63/5 198/70/154
f 192/63/5 193/64/6 198/70/154
f 198/70/154 193/64/6 199/71/155
f 193/64/6 194/65/7 199/71/155
f 199/71/155 194/65/7 200/72/156
f 194/65/7 195/66/8 200/72/156
f 200/72/156 195/66/8 201/73/157
f 165/67/127 196/68/152 171/74/133
f 171/74/133 196/68/152 202/75/158
f 196/68/152 197/69/153 202/75/158
f 202/75/158 197/69/153 203/76/159
f 197/69/153 198/70/154 203/76/159
f 203/76/159 198/70/154 204/77/160
f 198/70/154 199/71/155 204/77/160
f 204/77/160 199/71/155 205/78/161
f 199/71/155 200/72/156 205/78/161
f 205/78/161 200/72/156 206/79/162
f 200/72/156 201/73/157 206/79/162
f 206/79/162 201/73/157 207/80/163
f 171/74/133 202/75/158 177/81/139
f 177/81/139 202/75/158 208/82/164
f 202/75/158 203/76/159 208/82/164
f 208/82/164 203/76/159 209/83/165
f 203/76/159 204/77/160 209/83/165
f 209/83/165 204/77/160 210/84/166
f 204/77/160 205/78/161 210/84/166
f 210/84/166 205/78/161 211/85/167
f 205/78/161 206/79/162 211/85/167
f 211/85/167 206/79/162 212/86/168
f 206/79/162 207/80/163 212/86/168
f 212/86/168 207/80/163 213/87/169
f 213/39/169 214/40/170 212/41/168
f 212/41/168 214/40/170 215/42/171
f 214/40/170 216/43/172 215/42/171
f 215/42/171 216/43/172 217/44/173
f 216/43/172 218/45/174 217/44/173
f 217/44/173 218/45/174 219/46/175
f 218/45/174 220/47/176 219/46/175
f 219/46/175 220/47/176 221/48/177
f 220/47/176 222/49/178 221/48/177
f 221/48/177 222/49/178 223/50/179
f 222/49/178 93/51/62 223/50/179
f 223/50/179 93/51/62 94/52/63
f 212/41/168 215/42/171 211/53/167
f 211/53/167 215/42/171 224/54/180
f 215/42/171 217/44/173 224/54/180
f 224/54/180 217/44/173 225/55/181
f 217/44/173 219/46/175 225/55/181
f 225/55/181 219/46/175 226/56/182
f 219/46/175 221/48/177 226/56/182
f 226/56/182 221/48/177 227/57/183
f 221/48/177 223/50/179 227/57/183
f 227/57/183 223/50/179 228/58/184
f 223/50/179 94/52/63 228/58/184
f 228/58/184 94/52/63 95/59/64
f 211/53/167 224/54/180 210/60/166
f 210/60/166 224/54/180 229/61/185
f 224/54/180 225/55/181 229/61/185
f 229/61/185 225/55/181 230/62/186
f 225/55/181 226/56/182 230/62/186
f 230/62/186 226/56/182 231/63/15
f 226/56/182 227/57/183 231/63/15
f 231/63/15 227/57/183 232/64/187
f 227/57/183 228/58/184 232/64/187
f 232/64/187 228/58/184 233/65/188
f 228/58/184 95/59/64 233/65/188
f 233/65/188 95/59/64 96/66/65
f 210/60/166 229/61/185 209/67/165
f 209/67/165 229/61/185 234/68/189
f 229/61/185 230/62/186 234/68/189
f 234/68/189 230/62/186 235/69/190
f 230/62/186 231/63/15 235/69/190
f 235/69/190 231/63/15 236/70/191
f 231/63/15 232/64/187 236/70/191
f 236/70/191 232/64/187 237/71/192
f 232/64/187 233/65/188 237/71/192
f 237/71/192 233/65/188 238/72/193
f 233/65/188 96/66/65 238/72/193
f 238/72/193 96/66/65 97/73/66
f 209/67/165 234/68/189 208/74/164
f 208/74/164 234/68/189 239/75/194
f 234/68/189 235/69/190 239/75/194
f 239/75/194 235/69/190 240/76/195
f 235/69/190 236/70/191 240/76/195
f 240/76/195 236/70/191 241/77/196
f 236/70/191 237/71/192 241/77/196
f 241/77/196 237/71/192 242/78/197
f 237/71/192 238/72/193 242/78/197
f 242/78/197 238/72/193 243/79/198
f 238/72/193 97/73/66 243/79/198
f 243/79/198 97/73/66 98/80/67
f 208/74/164 239/75/194 177/81/139
f 177/81/139 239/75/194 176/82/138
f 239/75/194 240/76/195 176/82/138
f 176/82/138 240/76/195 175/83/137
f 240/76/195 241/77/196 175/83/137
f 175/83/137 241/77/196 174/84/136
f 241/77/196 242/78/197 174/84/136
f 174/84/136 242/78/197 173/85/135
f 242/78/197 243/79/198 173/85/135
f 173/85/135 243/79/198 172/86/134
f 243/79/198 98/80/67 172/86/134
f 172/86/134 98/80/67 99/87/68
f 136/39/104 137/40/105 183/41/145
f 183/41/145 137/40/105 244/42/199
f 137/40/105 138/43/106 244/42/199
f 244/42/199 138/43/106 245/44/200
f 138/43/106 139/45/107 245/44/200
f 245/44/200 139/45/107 246/46/201
f 139/45/107 140/47/108 246/46/201
f 246/46/201 140/47/108 247/48/202
f 140/47/108 141/49/109 247/48/202
f 247/48/202 141/49/109 248/50/203
f 141/49/109 51/51/27 248/50/203
f 248/50/203 51/51/27 53/52/29
f 183/41/145 244/42/199 189/53/151
f 189/53/151 244/42/199 249/54/204
f 244/42/199 245/44/200 249/54/204
f 249/54/204 245/44/200 250/55/205
f 245/44/200 246/46/201 250/55/205
f 250/55/205 246/46/201 251/56/206
f 246/46/201 247/48/202 251/56/206
f 251/56/206 247/48/202 252/57/207
f 247/48/202 248/50/203 252/57/207
f 252/57/207 248/50/203 253/58/208
f 248/50/203 53/52/29 253/58/208
f 253/58/208 53/52/29 65/59/41
f 189/53/151 249/54/204 195/60/8
f 195/60/8 249/54/204 254/61/22
f 249/54/204 250/55/205 254/61/22
f 254/61/22 250/55/205 255/62/23
f 250/55/205 251/56/206 255/62/23
f 255/62/23 251/56/206 256/63/24
f 251/56/206 252/57/207 256/63/24
f 256/63/24 252/57/207 257/64/25
f 252/57/207 253/58/208 257/64/25
f 257/64/25 253/58/208 258/65/26
f 253/58/208 65/59/41 258/65/26
f 258/65/26 65/59/41 72/66/16
f 195/60/8 254/61/22 201/67/157
f 201/67/157 254/61/22 259/68/209
f 254/61/22 255/62/23 259/68/209
f 259/68/209 255/62/23 260/69/210
f 255/62/23 256/63/24 260/69/210
f 260/69/210 256/63/24 261/70/211
f 256/63/24 257/64/25 261/70/211
f 261/70/211 257/64/25 262/71/212
f 257/64/25 258/65/26 262/71/212
f 262/71/212 258/65/26 263/72/213
f 258/65/26 72/66/16 263/72/213
f 263/72/213 72/66/16 79/73/48
f 201/67/157 259/68/209 207/74/163
f 207/74/163 259/68/209 264/75/214
f 259/68/209 260/69/210 264/75/214
f 264/75/214 260/69/210 265/76/215
f 260/69/210 261/70/211 265/76/215
f 265/76/215 261/70/211 266/77/216
f 261/70/211 262/71/212 266/77/216
f 266/77/216 262/71/212 267/78/217
f 262/71/212 263/72/213 267/78/217
f 267/78/217 263/72/213 268/79/218
f 263/72/213 79/73/48 268/79/218
f 268/79/218 79/73/48 86/80/55
f 207/74/163 264/75/214 213/81/169
f 213/81/169 264/75/214 214/82/170
f 264/75/214 265/76/215 214/82/170
f 214/82/170 265/76/215 216/83/172
f 265/76/215 266/77/216 216/83/172
f 216/83/172 266/77/216 218/84/174
f 266/77/216 267/78/217 218/84/174
f 218/84/174 267/78/217 220/85/176
f 267/78/217 268/79/218 220/85/176
f 220/85/176 268/79/218 222/86/178
f 268/79/218 86/80/55 222/86/178
f 222/86/178 86/80/55 93/87/62
o Guard
usemtl guard
f 269/88/19 270/89/19 271/90/19
f 271/90/19 270/89/19 272/91/19
f 273/92/1 270/89/1 274/93/1
f 274/93/1 270/89/1 269/94/1
f 270/92/11 273/89/11 272/95/11
f 272/95/11 273/89/11 275/91/11
f 273/88/5 274/89/5 275/90/5
f 275/90/5 274/89/5 276/91/5
f 276/92/15 271/89/15 275/93/15
f 275/93/15 271/89/15 272/94/15
f 274/92/24 269/89/24 276/95/24
f 276/95/24 269/89/24 271/91/24
o Blade
usemtl blade
f 277/96/19 278/97/19 279/98/19
f 279/98/19 278/97/19 280/99/19
f 281/100/1 278/97/1 282/101/1
f 282/101/1 278/97/1 277/102/1
f 278/100/11 281/97/11 280/103/11
f 280/103/11 281/97/11 283/99/11
f 281/96/5 282/97/5 283/98/5
f 283/98/5 282/97/5 284/99/5
f 284/100/15 279/97/15 283/101/15
f 283/101/15 279/97/15 280/102/15
f 282/100/24 277/97/24 284/103/24
f 284/103/24 277/97/24 279/99/24
o TipR
usemtl tipr
f 285/104/11 285/104/11 278/105/11
f 278/105/11 285/104/11 286/106/11
f 285/107/5 287/104/5 286/108/5
f 286/108/5 287/104/5 288/106/5
f 287/109/24 287/109/24 288/105/24
f 288/105/24 287/109/24 277/106/24
f 277/107/15 278/104/15 288/110/15
f 288/110/15 278/104/15 286/111/15
f 287/107/219 285/104/219 277/112/219
f 277/112/219 285/104/219 278/113/219
o TipL
usemtl tipl
f 287/114/24 287/114/24 282/115/24
f 282/115/24 287/114/24 288/116/24
f 287/117/19 285/114/19 288/118/19
f 288/118/19 285/114/19 286/116/19
f 285/119/11 285/119/11 286/115/11
f 286/115/11 285/119/11 281/116/11
f 281/117/15 282/114/15 286/120/15
f 286/120/15 282/114/15 288/121/15
f 285/117/220 287/114/220 281/122/220
f 281/122/220 287/114/220 282/123/220
o Fuller
usemtl fuller
f 289/124/19 290/125/19 291/126/19
f 291/126/19 290/125/19 292/127/19
f 293/128/1 290/125/1 294/129/1
f 294/129/1 290/125/1 289/130/1
f 290/128/11 293/125/11 292/131/11
f 292/131/11 293/125/11 295/127/11
f 293/124/5 294/125/5 295/126/5
f 295/126/5 294/125/5 296/127/5
f 296/128/15 291/125/15 295/129/15
f 295/129/15 291/125/15 292/130/15
f 294/128/24 289/125/24 296/131/24
f 296/131/24 289/125/24 291/127/24
