# Roblox asset pack: shonisaurus (creatures), from the Studio model "Shonisaurus". Exported with Export Selection, split by tools/build_creatures.py: one object per rigid body. Units: studs. +Y up, front faces -Z, pivot (bottom centre) at the origin.
mtllib shonisaurus.mtl

v 2.00000 12.80990 -16.03000
v 2.00000 12.80990 -13.03000
v 2.00000 11.30990 -16.03000
v 2.00000 11.30990 -13.03000
v -2.00000 12.80990 -13.03000
v -2.00000 12.80990 -16.03000
v -2.00000 11.30990 -13.03000
v -2.00000 11.30990 -16.03000
v 1.00000 12.30990 -22.03000
v 1.00000 12.30990 -16.03000
v 1.00000 11.30990 -22.03000
v 1.00000 11.30990 -16.03000
v -1.00000 12.30990 -16.03000
v -1.00000 12.30990 -22.03000
v -1.00000 11.30990 -16.03000
v -1.00000 11.30990 -22.03000
v 3.00000 13.80990 -9.53000
v 3.00000 13.80990 -6.53000
v 3.00000 7.30990 -9.53000
v 3.00000 7.30990 -6.53000
v -3.00000 13.80990 -6.53000
v -3.00000 13.80990 -9.53000
v -3.00000 7.30990 -6.53000
v -3.00000 7.30990 -9.53000
v 2.00000 13.30990 -13.03000
v 2.00000 13.30990 -9.53000
v 2.00000 11.30990 -9.53000
v -2.00000 13.30990 -9.53000
v -2.00000 13.30990 -13.03000
v -2.00000 11.30990 -9.53000
v 2.50000 10.90990 -12.98000
v 2.50000 11.21990 -9.50000
v 2.50000 9.41990 -12.85000
v 2.50000 9.71990 -9.37000
v -2.50000 11.21990 -9.50000
v -2.50000 10.90990 -12.98000
v -2.50000 9.71990 -9.37000
v -2.50000 9.41990 -12.85000
v 1.50000 10.64990 -15.97000
v 1.50000 10.90990 -12.98000
v 1.50000 9.40990 -15.86000
v 1.50000 9.66990 -12.87000
v -1.50000 10.90990 -12.98000
v -1.50000 10.64990 -15.97000
v -1.50000 9.66990 -12.87000
v -1.50000 9.40990 -15.86000
v 1.00000 10.16990 -21.45000
v 1.00000 10.64990 -15.97000
v 1.00000 9.17990 -21.36000
v 1.00000 9.65990 -15.88000
v -1.00000 10.64990 -15.97000
v -1.00000 10.16990 -21.45000
v -1.00000 9.65990 -15.88000
v -1.00000 9.17990 -21.36000
v 1.75000 10.30990 -10.78000
v 1.75000 10.30990 -9.28000
v 1.75000 7.80990 -10.78000
v 1.75000 7.80990 -9.28000
v -1.75000 10.30990 -9.28000
v -1.75000 10.30990 -10.78000
v -1.75000 7.80990 -9.28000
v -1.75000 7.80990 -10.78000
v 1.75000 7.80990 -10.03000
v 1.75000 7.80990 -7.03000
v 1.75000 5.30990 -10.03000
v 1.75000 5.30990 -7.03000
v -1.75000 7.80990 -7.03000
v -1.75000 7.80990 -10.03000
v -1.75000 5.30990 -7.03000
v -1.75000 5.30990 -10.03000
v 1.00000 8.67990 -11.59000
v 1.00000 8.50990 -9.60000
v 1.00000 6.68990 -11.77000
v 1.00000 6.51990 -9.78000
v -1.00000 8.50990 -9.60000
v -1.00000 8.67990 -11.59000
v -1.00000 6.51990 -9.78000
v -1.00000 6.68990 -11.77000
v 0.50000 10.69990 -14.23000
v 0.50000 8.11990 -10.55000
v 0.50000 9.25990 -15.24000
v 0.50000 6.67990 -11.55000
v -0.50000 8.11990 -10.55000
v -0.50000 10.69990 -14.23000
v -0.50000 6.67990 -11.55000
v -0.50000 9.25990 -15.24000
v 1.50000 10.42990 -12.74000
v 1.50000 10.16990 -9.75000
v 1.50000 8.67990 -12.90000
v 1.50000 8.41990 -9.91000
v -1.50000 10.16990 -9.75000
v -1.50000 10.42990 -12.74000
v -1.50000 8.41990 -9.91000
v -1.50000 8.67990 -12.90000
v 1.25000 10.87990 -15.96000
v 1.25000 11.65990 -9.76000
v 1.25000 10.37990 -15.90000
v 1.25000 11.16990 -9.70000
v -1.25000 11.65990 -9.76000
v -1.25000 10.87990 -15.96000
v -1.25000 11.16990 -9.70000
v -1.25000 10.37990 -15.90000
v 1.50000 15.30990 -10.03000
v 1.50000 15.30990 -7.03000
v 1.50000 13.30990 -10.03000
v 1.50000 13.30990 -7.03000
v -1.50000 15.30990 -7.03000
v -1.50000 15.30990 -10.03000
v -1.50000 13.30990 -7.03000
v -1.50000 13.30990 -10.03000
v 1.00000 12.97990 -14.98000
v 1.00000 14.85990 -9.81000
v 1.00000 11.56990 -14.47000
v 1.00000 13.44990 -9.30000
v -1.00000 14.85990 -9.81000
v -1.00000 12.97990 -14.98000
v -1.00000 13.44990 -9.30000
v -1.00000 11.56990 -14.47000
v 2.25000 13.05990 -12.03000
v 2.25000 13.05990 -10.53000
v 2.25000 11.55990 -12.03000
v 2.25000 11.55990 -10.53000
v -2.25000 13.05990 -10.53000
v -2.25000 13.05990 -12.03000
v -2.25000 11.55990 -10.53000
v -2.25000 11.55990 -12.03000
v 2.25500 13.05990 -12.03000
v 2.25500 13.05990 -10.53000
v 2.25500 11.55990 -12.03000
v 2.25500 11.55990 -10.53000
v -2.25500 13.05990 -10.53000
v -2.25500 13.05990 -12.03000
v -2.25500 11.55990 -10.53000
v -2.25500 11.55990 -12.03000
v -1.82700 8.64990 5.20000
v -1.80800 9.32990 7.87000
v -1.59200 8.56990 5.22000
v -1.57300 9.24990 7.89000
v -2.32600 7.96990 8.22000
v -2.34500 7.28990 5.55000
v -2.09100 7.88990 8.24000
v -2.11000 7.19990 5.57000
v -2.53400 7.31990 5.70000
v -2.35800 8.01990 7.02000
v -2.30700 7.21990 5.73000
v -2.13200 7.91990 7.04000
v -3.79100 5.28990 8.66000
v -3.96700 4.58990 7.35000
v -3.56500 5.17990 8.69000
v -3.74100 4.47990 7.37000
v -2.48200 10.42990 4.75000
v -2.46500 11.04990 7.17000
v -1.07400 9.92990 4.87000
v -1.05700 10.54990 7.29000
v -2.89600 9.91990 7.46000
v -2.91400 9.29990 5.04000
v -1.48900 9.41990 7.58000
v -1.50600 8.78990 5.16000
v -2.59400 9.37990 4.76000
v -2.57200 10.18990 7.91000
v -1.65600 9.03990 4.84000
v -1.63300 9.84990 7.99000
v -3.26300 8.36990 8.38000
v -3.28500 7.55990 5.23000
v -2.32400 8.02990 8.46000
v -2.34700 7.22990 5.31000
v -4.74800 4.69990 7.39000
v -4.63100 5.16990 8.27000
v -4.06900 4.38990 7.47000
v -3.95200 4.85990 8.34000
v -5.45000 3.59990 9.21000
v -5.56700 3.13990 8.33000
v -4.77100 3.28990 9.28000
v -4.88800 2.82990 8.41000
v -3.00800 8.44990 7.16000
v -2.89100 8.90990 8.04000
v -2.55500 8.23990 7.21000
v -2.43800 8.70990 8.09000
v -3.91400 6.95990 9.21000
v -4.03100 6.48990 8.34000
v -3.46200 6.74990 9.26000
v -3.57900 6.28990 8.39000
v -3.13900 7.70990 5.29000
v -2.90500 8.63990 7.04000
v -2.46000 7.39990 5.37000
v -2.22700 8.32990 7.12000
v -4.54300 5.51990 8.93000
v -4.77700 4.57990 7.17000
v -3.86400 5.20990 9.00000
v -4.09800 4.26990 7.25000
v 0.50000 10.70990 14.70000
v 0.50000 12.70990 18.17000
v 0.50000 9.83990 15.20000
v 0.50000 11.83990 18.67000
v -0.50000 12.70990 18.17000
v -0.50000 10.70990 14.70000
v -0.50000 11.83990 18.67000
v -0.50000 9.83990 15.20000
v 1.50000 11.80990 8.97000
v 1.50000 11.80990 11.97000
v 1.50000 9.80990 8.97000
v 1.50000 9.80990 11.97000
v -1.50000 11.80990 11.97000
v -1.50000 11.80990 8.97000
v -1.50000 9.80990 11.97000
v -1.50000 9.80990 8.97000
v 1.00000 12.30990 11.97000
v 1.00000 12.30990 15.97000
v 1.00000 11.30990 11.97000
v 1.00000 11.30990 15.97000
v -1.00000 12.30990 15.97000
v -1.00000 12.30990 11.97000
v -1.00000 11.30990 15.97000
v -1.00000 11.30990 11.97000
v 0.50000 9.46990 16.57000
v 0.50000 11.21990 19.60000
v 0.50000 8.60990 17.07000
v 0.50000 10.35990 20.10000
v -0.50000 11.21990 19.60000
v -0.50000 9.46990 16.57000
v -0.50000 10.35990 20.10000
v -0.50000 8.60990 17.07000
v 0.50000 8.73990 19.30000
v 0.50000 9.73990 21.03000
v 0.50000 7.87990 19.80000
v 0.50000 8.87990 21.53000
v -0.50000 9.73990 21.03000
v -0.50000 8.73990 19.30000
v -0.50000 8.87990 21.53000
v -0.50000 7.87990 19.80000
v 0.50000 8.96990 15.70000
v 0.50000 10.96990 19.17000
v -0.50000 10.96990 19.17000
v -0.50000 8.96990 15.70000
v 0.50000 14.16990 12.70000
v 0.50000 16.16990 16.17000
v -0.50000 16.16990 16.17000
v -0.50000 14.16990 12.70000
v 2.00000 13.80990 8.97000
v 2.00000 13.80990 10.97000
v 2.00000 11.30990 8.97000
v 2.00000 11.30990 10.97000
v -2.00000 13.80990 10.97000
v -2.00000 13.80990 8.97000
v -2.00000 11.30990 10.97000
v -2.00000 11.30990 8.97000
v 1.50000 14.80990 8.97000
v 1.50000 14.80990 11.97000
v -1.50000 14.80990 11.97000
v -1.50000 14.80990 8.97000
v 0.50000 16.66990 17.03000
v 0.50000 17.16990 17.90000
v 0.50000 14.93990 18.03000
v 0.50000 15.43990 18.90000
v -0.50000 17.16990 17.90000
v -0.50000 16.66990 17.03000
v -0.50000 15.43990 18.90000
v -0.50000 14.93990 18.03000
v 1.00000 14.30990 11.97000
v 1.00000 14.30990 15.97000
v -1.00000 14.30990 15.97000
v -1.00000 14.30990 11.97000
v 0.50000 13.56990 17.67000
v 0.50000 14.06990 18.53000
v -0.50000 14.06990 18.53000
v -0.50000 13.56990 17.67000
v 0.50000 7.73990 17.57000
v 0.50000 9.48990 20.60000
v -0.50000 9.48990 20.60000
v -0.50000 7.73990 17.57000
v 0.50000 7.00990 20.30000
v 0.50000 8.00990 22.03000
v -0.50000 8.00990 22.03000
v -0.50000 7.00990 20.30000
v 6.40350 1.79990 -5.14000
v 6.15830 2.14990 -3.96000
v 6.19870 1.65990 -5.14000
v 5.95350 2.00990 -3.96000
v 4.27200 4.84990 -5.16000
v 4.51700 4.49990 -6.34000
v 4.06700 4.69990 -5.16000
v 4.31200 4.34990 -6.34000
v 4.37400 4.40990 -6.48000
v 4.26100 4.56990 -4.24000
v 4.15700 4.27990 -6.48000
v 4.04500 4.43990 -4.24000
v 2.76800 7.15990 -4.50000
v 2.88000 6.98990 -6.74000
v 2.55100 7.02990 -4.50000
v 2.66400 6.86990 -6.74000
v 8.27970 0.42990 -4.60000
v 8.08350 0.70990 -3.67000
v 7.66530 -0.00010 -4.60000
v 7.46910 0.27990 -3.67000
v 7.00560 2.24990 -4.35000
v 7.20180 1.96990 -5.29000
v 6.39120 1.81990 -4.35000
v 6.58740 1.53990 -5.29000
v 4.22400 7.16990 -6.94000
v 4.08600 7.36990 -4.20000
v 2.92500 6.41990 -6.95000
v 2.78800 6.61990 -4.21000
v 3.34000 8.65990 -4.33000
v 3.47700 8.45990 -7.07000
v 2.04100 7.90990 -4.34000
v 2.17800 7.70990 -7.08000
v 5.26440 4.86990 -6.97000
v 5.10190 5.09990 -3.73000
v 4.39900 4.36990 -6.98000
v 4.23600 4.59990 -3.74000
v 3.60900 7.68990 -3.99000
v 3.77100 7.45990 -7.23000
v 2.74300 7.18990 -4.00000
v 2.90500 6.95990 -7.24000
v 7.25070 1.89990 -5.52000
v 6.85840 2.45990 -3.64000
v 6.63630 1.46990 -5.52000
v 6.24400 2.02990 -3.64000
v 4.70300 5.53990 -5.01000
v 5.09490 4.97990 -6.89000
v 4.08800 5.10990 -5.01000
v 4.48100 4.54990 -6.89000
v 6.18460 3.41990 -4.07000
v 5.98840 3.69990 -3.13000
v 5.77500 3.13990 -4.07000
v 5.57880 3.41990 -3.13000
v 4.64100 5.62990 -3.99000
v 4.83700 5.34990 -4.93000
v 4.23100 5.33990 -3.99000
v 4.42800 5.05990 -4.93000
v 5.56660 3.13990 8.33000
v 5.44970 3.59990 9.21000
v 4.88800 2.82990 8.41000
v 4.77100 3.28990 9.28000
v 4.63100 5.16990 8.27000
v 4.74800 4.69990 7.39000
v 3.95200 4.85990 8.34000
v 4.06900 4.38990 7.47000
v 4.03100 6.48990 8.34000
v 3.91400 6.95990 9.21000
v 3.57900 6.28990 8.39000
v 3.46200 6.74990 9.26000
v 2.89100 8.90990 8.04000
v 3.00800 8.44990 7.16000
v 2.43800 8.70990 8.09000
v 2.55500 8.23990 7.21000
v 4.77700 4.57990 7.17000
v 4.54300 5.51990 8.93000
v 4.09800 4.26990 7.25000
v 3.86500 5.20990 9.00000
v 2.90500 8.63990 7.04000
v 3.13900 7.70990 5.29000
v 2.22700 8.32990 7.12000
v 2.46000 7.39990 5.37000
v 2.91400 9.29990 5.04000
v 2.89600 9.91990 7.46000
v 1.50600 8.78990 5.16000
v 1.48900 9.41990 7.58000
v 2.46500 11.04990 7.17000
v 2.48200 10.42990 4.75000
v 1.05700 10.54990 7.29000
v 1.07400 9.92990 4.87000
v 3.28500 7.55990 5.23000
v 3.26300 8.36990 8.38000
v 2.34700 7.22990 5.31000
v 2.32400 8.02990 8.46000
v 2.57200 10.18990 7.91000
v 2.59400 9.37990 4.76000
v 1.63300 9.84990 7.99000
v 1.65600 9.03990 4.84000
v 3.96700 4.58990 7.35000
v 3.79100 5.28990 8.66000
v 3.74100 4.47990 7.37000
v 3.56500 5.17990 8.69000
v 2.35800 8.01990 7.02000
v 2.53400 7.31990 5.70000
v 2.13200 7.91990 7.04000
v 2.30700 7.21990 5.73000
v 2.34500 7.28990 5.55000
v 2.32600 7.96990 8.22000
v 2.11000 7.19990 5.57000
v 2.09100 7.88990 8.24000
v 1.63500 9.78990 7.75000
v 1.65400 9.10990 5.08000
v 1.40100 9.69990 7.77000
v 1.42000 9.01990 5.10000
v 3.00000 11.30990 0.47000
v 3.00000 11.30990 4.47000
v 3.00000 7.80990 0.47000
v 3.00000 7.80990 4.47000
v -3.00000 11.30990 4.47000
v -3.00000 11.30990 0.47000
v -3.00000 7.80990 4.47000
v -3.00000 7.80990 0.47000
v 3.00000 15.30990 0.47000
v 3.00000 15.30990 2.22000
v 3.00000 11.30990 2.22000
v -3.00000 15.30990 2.22000
v -3.00000 15.30990 0.47000
v -3.00000 11.30990 2.22000
v 3.50000 14.05990 0.97000
v 3.50000 14.05990 1.97000
v 3.50000 12.05990 0.97000
v 3.50000 12.05990 1.97000
v -3.50000 14.05990 1.97000
v -3.50000 14.05990 0.97000
v -3.50000 12.05990 1.97000
v -3.50000 12.05990 0.97000
v 2.50000 14.30990 4.47000
v 2.50000 14.30990 5.72000
v 2.50000 12.80990 4.47000
v 2.50000 12.80990 5.72000
v -2.50000 14.30990 5.72000
v -2.50000 14.30990 4.47000
v -2.50000 12.80990 5.72000
v -2.50000 12.80990 4.47000
v 3.50000 12.05990 3.47000
v 3.50000 9.55990 0.97000
v 3.50000 9.55990 3.47000
v -3.50000 12.05990 3.47000
v -3.50000 9.55990 3.47000
v -3.50000 9.55990 0.97000
v 3.00000 15.30990 2.97000
v 3.00000 15.30990 4.47000
v 3.00000 11.30990 2.97000
v -3.00000 15.30990 4.47000
v -3.00000 15.30990 2.97000
v -3.00000 11.30990 2.97000
v 3.50000 14.05990 2.72000
v 3.50000 14.05990 3.47000
v 3.50000 12.05990 2.72000
v -3.50000 14.05990 3.47000
v -3.50000 14.05990 2.72000
v -3.50000 12.05990 2.72000
v 2.50000 14.30990 6.72000
v 2.50000 14.30990 7.97000
v 2.50000 12.80990 6.72000
v 2.50000 12.80990 7.97000
v -2.50000 14.30990 7.97000
v -2.50000 14.30990 6.72000
v -2.50000 12.80990 7.97000
v -2.50000 12.80990 6.72000
v 2.50000 10.30990 4.47000
v 2.50000 10.30990 7.97000
v -2.50000 10.30990 7.97000
v -2.50000 10.30990 4.47000
v 2.00000 14.80990 6.97000
v 2.00000 14.80990 8.97000
v 2.00000 11.30990 6.97000
v -2.00000 14.80990 8.97000
v -2.00000 14.80990 6.97000
v -2.00000 11.30990 6.97000
v 2.00000 14.80990 4.47000
v 2.00000 14.80990 5.97000
v 2.00000 11.30990 4.47000
v 2.00000 11.30990 5.97000
v -2.00000 14.80990 5.97000
v -2.00000 14.80990 4.47000
v -2.00000 11.30990 5.97000
v -2.00000 11.30990 4.47000
v 0.50000 15.83990 1.35000
v 0.50000 17.74990 5.42000
v 0.50000 12.66990 2.82000
v 0.50000 14.56990 6.90000
v -0.50000 17.74990 5.42000
v -0.50000 15.83990 1.35000
v -0.50000 14.56990 6.90000
v -0.50000 12.66990 2.82000
v 1.50000 16.20990 1.32000
v 1.50000 15.54990 8.79000
v 1.50000 14.21990 1.14000
v 1.50000 13.55990 8.61000
v -1.50000 15.54990 8.79000
v -1.50000 16.20990 1.32000
v -1.50000 13.55990 8.61000
v -1.50000 14.21990 1.14000
v 2.00000 9.30990 4.47000
v 2.00000 9.30990 8.97000
v -2.00000 9.30990 8.97000
v -2.00000 9.30990 4.47000
v 1.50000 7.05990 0.07000
v 1.50000 11.93990 7.04000
v 1.50000 4.59990 1.79000
v 1.50000 9.47990 8.76000
v -1.50000 11.93990 7.04000
v -1.50000 7.05990 0.07000
v -1.50000 9.47990 8.76000
v -1.50000 4.59990 1.79000
v -3.47700 8.45990 -7.07000
v -3.34000 8.65990 -4.33000
v -2.17800 7.70990 -7.08000
v -2.04100 7.90990 -4.34000
v -4.08600 7.36990 -4.20000
v -4.22400 7.16990 -6.94000
v -2.78800 6.61990 -4.21000
v -2.92500 6.41990 -6.95000
v -7.20200 1.96990 -5.29000
v -7.00600 2.24990 -4.35000
v -6.58700 1.53990 -5.29000
v -6.39100 1.81990 -4.35000
v -8.08400 0.70990 -3.67000
v -8.28000 0.42990 -4.60000
v -7.46900 0.27990 -3.67000
v -7.66500 -0.00010 -4.60000
v -4.83700 5.34990 -4.93000
v -4.64100 5.62990 -3.99000
v -4.42800 5.05990 -4.93000
v -4.23200 5.33990 -3.99000
v -5.98900 3.69990 -3.13000
v -6.18500 3.41990 -4.07000
v -5.57900 3.41990 -3.13000
v -5.77500 3.13990 -4.07000
v -3.77100 7.45990 -7.23000
v -3.60900 7.68990 -3.99000
v -2.90500 6.95990 -7.24000
v -2.74300 7.18990 -4.00000
v -5.10200 5.09990 -3.73000
v -5.26400 4.86990 -6.97000
v -4.23600 4.59990 -3.74000
v -4.39900 4.36990 -6.98000
v -5.09500 4.97990 -6.89000
v -4.70300 5.53990 -5.01000
v -4.48100 4.54990 -6.89000
v -4.08800 5.10990 -5.01000
v -6.85800 2.45990 -3.64000
v -7.25100 1.89990 -5.52000
v -6.24400 2.02990 -3.64000
v -6.63600 1.46990 -5.52000
v -4.51700 4.49990 -6.34000
v -4.27200 4.84990 -5.16000
v -4.31200 4.34990 -6.34000
v -4.06700 4.69990 -5.16000
v -6.15800 2.14990 -3.96000
v -6.40400 1.79990 -5.14000
v -5.95400 2.00990 -3.96000
v -6.19900 1.65990 -5.14000
v -2.88000 6.98990 -6.74000
v -2.76800 7.14990 -4.50000
v -2.66400 6.86990 -6.74000
v -2.55100 7.02990 -4.50000
v -4.26100 4.56990 -4.24000
v -4.37400 4.40990 -6.48000
v -4.04500 4.43990 -4.24000
v -4.15700 4.27990 -6.48000
v 4.00000 11.30990 -7.03000
v 4.00000 11.30990 0.97000
v 4.00000 8.30990 -7.03000
v 4.00000 8.30990 0.97000
v -4.00000 11.30990 0.97000
v -4.00000 11.30990 -7.03000
v -4.00000 8.30990 0.97000
v -4.00000 8.30990 -7.03000
v 4.00000 14.30990 -4.03000
v 4.00000 14.30990 -2.03000
v 4.00000 11.30990 -4.03000
v 4.00000 11.30990 -2.03000
v -4.00000 14.30990 -2.03000
v -4.00000 14.30990 -4.03000
v -4.00000 11.30990 -2.03000
v -4.00000 11.30990 -4.03000
v 4.00000 14.30990 -1.03000
v 4.00000 14.30990 0.97000
v 4.00000 11.30990 -1.03000
v -4.00000 14.30990 0.97000
v -4.00000 14.30990 -1.03000
v -4.00000 11.30990 -1.03000
v 3.00000 15.30990 -0.78000
v 3.00000 14.30990 -0.78000
v 3.00000 14.30990 0.47000
v -3.00000 15.30990 -0.78000
v -3.00000 14.30990 0.47000
v -3.00000 14.30990 -0.78000
v 4.00000 14.30990 -7.03000
v 4.00000 14.30990 -5.03000
v 4.00000 11.30990 -5.03000
v -4.00000 14.30990 -5.03000
v -4.00000 14.30990 -7.03000
v -4.00000 11.30990 -5.03000
v 3.00000 15.30990 -3.78000
v 3.00000 15.30990 -1.78000
v 3.00000 14.30990 -3.78000
v 3.00000 14.30990 -1.78000
v -3.00000 15.30990 -1.78000
v -3.00000 15.30990 -3.78000
v -3.00000 14.30990 -1.78000
v -3.00000 14.30990 -3.78000
v 3.00000 15.30990 -6.53000
v 3.00000 15.30990 -4.78000
v 3.00000 14.30990 -6.53000
v 3.00000 14.30990 -4.78000
v -3.00000 15.30990 -4.78000
v -3.00000 15.30990 -6.53000
v -3.00000 14.30990 -4.78000
v -3.00000 14.30990 -6.53000
v 3.00000 6.80990 -6.53000
v 3.00000 6.80990 0.47000
v -3.00000 6.80990 0.47000
v -3.00000 6.80990 -6.53000
v 1.75000 16.05990 -7.03000
v 1.75000 16.05990 1.47000
v 1.75000 7.80990 1.47000
v -1.75000 16.05990 1.47000
v -1.75000 16.05990 -7.03000
v -1.75000 7.80990 1.47000
v 2.00000 7.80990 -7.03000
v 2.00000 7.80990 1.47000
v 2.00000 4.30990 -7.03000
v 2.00000 4.30990 1.47000
v -2.00000 7.80990 1.47000
v -2.00000 7.80990 -7.03000
v -2.00000 4.30990 1.47000
v -2.00000 4.30990 -7.03000
v 2.50000 6.80990 -6.03000
v 2.50000 6.80990 -0.03000
v 2.50000 5.30990 -6.03000
v 2.50000 5.30990 -0.03000
v -2.50000 6.80990 -0.03000
v -2.50000 6.80990 -6.03000
v -2.50000 5.30990 -0.03000
v -2.50000 5.30990 -6.03000
vt 6.62500 -4.50000
vt 6.25000 -4.50000
vt 6.62500 -4.68750
vt 6.25000 -4.68750
vt 6.75000 -4.50000
vt 6.75000 -4.87500
vt 6.25000 -4.87500
vt 6.75000 -4.68750
vt 5.00000 -6.00000
vt 4.25000 -6.00000
vt 5.00000 -6.12500
vt 4.25000 -6.12500
vt 4.50000 -6.00000
vt 4.50000 -6.75000
vt 4.25000 -6.75000
vt 4.50000 -6.12500
vt 1.12500 -0.75000
vt 0.75000 -0.75000
vt 1.12500 -1.56250
vt 0.75000 -1.56250
vt 1.50000 -0.75000
vt 1.50000 -1.12500
vt 0.75000 -1.12500
vt 1.50000 -1.56250
vt 5.43750 -4.25000
vt 5.00000 -4.25000
vt 5.43750 -4.50000
vt 5.00000 -4.50000
vt 5.50000 -4.25000
vt 5.50000 -4.68750
vt 5.00000 -4.68750
vt 5.50000 -4.50000
vt 3.93750 -3.75000
vt 3.50000 -3.75000
vt 3.93750 -3.93750
vt 3.50000 -3.93750
vt 4.12500 -3.75000
vt 4.12500 -4.18750
vt 3.50000 -4.18750
vt 4.12500 -3.93750
vt 8.12500 -1.00000
vt 7.75000 -1.00000
vt 8.12500 -1.15625
vt 7.75000 -1.15625
vt 8.12500 -1.37500
vt 7.75000 -1.37500
vt 1.18750 -3.00000
vt 0.50000 -3.00000
vt 1.18750 -3.12500
vt 0.50000 -3.12500
vt 0.75000 -3.00000
vt 0.75000 -3.68750
vt 0.50000 -3.68750
vt 0.75000 -3.12500
vt 5.93750 0.75000
vt 5.75000 0.75000
vt 5.93750 0.43750
vt 5.75000 0.43750
vt 6.18750 0.75000
vt 6.18750 0.56250
vt 5.75000 0.56250
vt 6.18750 0.43750
vt 3.12500 -3.50000
vt 2.75000 -3.50000
vt 3.12500 -3.81250
vt 2.75000 -3.81250
vt 3.18750 -3.50000
vt 3.18750 -3.87500
vt 2.75000 -3.87500
vt 3.18750 -3.81250
vt 1.25000 -0.75000
vt 1.00000 -0.75000
vt 1.25000 -1.00000
vt 1.00000 -1.00000
vt 0.56250 -5.25000
vt 0.00000 -5.25000
vt 0.56250 -5.46875
vt 0.00000 -5.46875
vt 0.12500 -5.25000
vt 0.12500 -5.81250
vt 0.00000 -5.81250
vt 0.12500 -5.46875
vt 3.37500 -4.75000
vt 3.00000 -4.75000
vt 3.37500 -4.96875
vt 3.00000 -4.96875
vt 3.37500 -5.12500
vt 3.00000 -5.12500
vt 7.28125 -4.50000
vt 6.50000 -4.50000
vt 7.28125 -4.56250
vt 6.50000 -4.56250
vt 6.81250 -4.50000
vt 6.81250 -5.28125
vt 6.50000 -5.28125
vt 6.81250 -4.56250
vt 3.37500 -3.25000
vt 3.00000 -3.25000
vt 3.37500 -3.50000
vt 3.00000 -3.50000
vt 3.37500 -3.62500
vt 3.00000 -3.62500
vt 1.93750 -5.00000
vt 1.25000 -5.00000
vt 1.93750 -5.18750
vt 1.25000 -5.18750
vt 1.50000 -5.00000
vt 1.50000 -5.68750
vt 1.25000 -5.68750
vt 1.50000 -5.18750
vt 7.93750 0.75000
vt 7.75000 0.75000
vt 7.93750 0.56250
vt 7.75000 0.56250
vt 8.31250 0.75000
vt 8.31250 0.56250
vt 1.00000 1.00000
vt 0.00000 1.00000
vt 1.00000 0.00000
vt 0.00000 0.00000
vt 7.34375 0.75000
vt 7.00000 0.75000
vt 7.34375 0.71875
vt 7.00000 0.71875
vt 7.18750 0.75000
vt 7.18750 0.40625
vt 7.00000 0.40625
vt 7.18750 0.71875
vt 3.43750 -3.00000
vt 3.25000 -3.00000
vt 3.43750 -3.03125
vt 3.25000 -3.03125
vt 3.68750 -3.00000
vt 3.68750 -3.18750
vt 3.25000 -3.18750
vt 3.68750 -3.03125
vt 4.81250 -5.00000
vt 4.50000 -5.00000
vt 4.81250 -5.18750
vt 4.50000 -5.18750
vt 4.65625 -5.00000
vt 4.65625 -5.31250
vt 4.50000 -5.31250
vt 4.65625 -5.18750
vt 4.65625 0.00000
vt 4.25000 0.00000
vt 4.65625 -0.12500
vt 4.25000 -0.12500
vt 4.50000 0.00000
vt 4.50000 -0.40625
vt 4.25000 -0.40625
vt 4.50000 -0.12500
vt 6.37500 -2.75000
vt 6.25000 -2.75000
vt 6.37500 -2.84375
vt 6.25000 -2.84375
vt 6.50000 -2.75000
vt 6.50000 -2.87500
vt 6.25000 -2.87500
vt 6.50000 -2.84375
vt 1.37500 -4.00000
vt 1.25000 -4.00000
vt 1.37500 -4.06250
vt 1.25000 -4.06250
vt 1.56250 -4.00000
vt 1.56250 -4.12500
vt 1.25000 -4.12500
vt 1.56250 -4.06250
vt 6.50000 -3.50000
vt 6.25000 -3.50000
vt 6.50000 -3.59375
vt 6.25000 -3.59375
vt 6.75000 -3.50000
vt 6.75000 -3.75000
vt 6.25000 -3.75000
vt 6.75000 -3.59375
vt 3.00000 -2.00000
vt 2.50000 -2.00000
vt 3.00000 -2.12500
vt 2.50000 -2.12500
vt 2.62500 -2.00000
vt 2.62500 -2.50000
vt 2.50000 -2.50000
vt 2.62500 -2.12500
vt 2.12500 -6.75000
vt 1.75000 -6.75000
vt 2.12500 -7.00000
vt 1.75000 -7.00000
vt 2.12500 -7.12500
vt 1.75000 -7.12500
vt 0.50000 -5.50000
vt 0.00000 -5.50000
vt 0.50000 -5.62500
vt 0.00000 -5.62500
vt 0.25000 -5.50000
vt 0.25000 -6.00000
vt 0.00000 -6.00000
vt 0.25000 -5.62500
vt 2.43750 -5.00000
vt 2.00000 -5.00000
vt 2.43750 -5.12500
vt 2.00000 -5.12500
vt 2.12500 -5.00000
vt 2.12500 -5.43750
vt 2.00000 -5.43750
vt 2.12500 -5.12500
vt 0.75000 -5.00000
vt 0.50000 -5.00000
vt 0.75000 -5.12500
vt 0.50000 -5.12500
vt 0.62500 -5.00000
vt 0.62500 -5.25000
vt 0.50000 -5.25000
vt 0.62500 -5.12500
vt 7.00000 -2.75000
vt 7.00000 -2.87500
vt 6.62500 -2.75000
vt 6.62500 -3.25000
vt 6.50000 -3.25000
vt 6.62500 -2.87500
vt 7.00000 -6.25000
vt 6.50000 -6.25000
vt 7.00000 -6.75000
vt 6.50000 -6.75000
vt 6.62500 -6.25000
vt 6.62500 -6.75000
vt 0.75000 -1.25000
vt 0.50000 -1.25000
vt 0.50000 -1.56250
vt 1.00000 -1.25000
vt 1.00000 -1.50000
vt 0.50000 -1.50000
vt 1.00000 -1.56250
vt 7.12500 -4.25000
vt 6.75000 -4.25000
vt 7.12500 -4.62500
vt 6.75000 -4.62500
vt 0.12500 -2.00000
vt 0.00000 -2.00000
vt 0.12500 -2.25000
vt 0.00000 -2.25000
vt 0.12500 -2.12500
vt 0.00000 -2.12500
vt 2.50000 -0.50000
vt 2.00000 -0.50000
vt 2.50000 -0.75000
vt 2.00000 -0.75000
vt 2.25000 -0.50000
vt 2.25000 -1.00000
vt 2.00000 -1.00000
vt 2.25000 -0.75000
vt 7.62500 -3.25000
vt 7.50000 -3.25000
vt 7.62500 -3.62500
vt 7.50000 -3.62500
vt 7.62500 -3.37500
vt 7.50000 -3.37500
vt 1.43750 0.25000
vt 1.00000 0.25000
vt 1.43750 0.12500
vt 1.00000 0.12500
vt 1.12500 0.25000
vt 1.12500 -0.18750
vt 1.00000 -0.18750
vt 1.12500 0.12500
vt 4.75000 -1.00000
vt 4.50000 -1.00000
vt 4.75000 -1.12500
vt 4.50000 -1.12500
vt 4.62500 -1.00000
vt 4.62500 -1.25000
vt 4.50000 -1.25000
vt 4.62500 -1.12500
vt 2.40625 -6.75000
vt 2.25000 -6.75000
vt 2.40625 -6.78125
vt 2.25000 -6.78125
vt 2.68750 -6.75000
vt 2.68750 -6.90625
vt 2.25000 -6.90625
vt 2.68750 -6.78125
vt 4.03125 -0.50000
vt 3.75000 -0.50000
vt 4.03125 -0.53125
vt 3.75000 -0.53125
vt 4.12500 -0.50000
vt 4.12500 -0.78125
vt 3.75000 -0.78125
vt 4.12500 -0.53125
vt 2.62500 0.50000
vt 2.50000 0.50000
vt 2.62500 0.40625
vt 2.50000 0.40625
vt 2.75000 0.50000
vt 2.75000 0.37500
vt 2.50000 0.37500
vt 2.75000 0.40625
vt 1.34375 -0.25000
vt 1.00000 -0.25000
vt 1.34375 -0.43750
vt 1.00000 -0.43750
vt 1.18750 -0.25000
vt 1.18750 -0.59375
vt 1.00000 -0.59375
vt 1.18750 -0.43750
vt 7.65625 0.25000
vt 7.25000 0.25000
vt 7.65625 0.12500
vt 7.25000 0.12500
vt 7.62500 0.25000
vt 7.62500 -0.15625
vt 7.25000 -0.15625
vt 7.62500 0.12500
vt 1.25000 -3.25000
vt 1.00000 -3.25000
vt 1.25000 -3.34375
vt 1.00000 -3.34375
vt 1.50000 -3.25000
vt 1.50000 -3.50000
vt 1.00000 -3.50000
vt 1.50000 -3.34375
vt 6.12500 -4.50000
vt 6.00000 -4.50000
vt 6.12500 -4.56250
vt 6.00000 -4.56250
vt 6.31250 -4.50000
vt 6.31250 -4.62500
vt 6.00000 -4.62500
vt 6.31250 -4.56250
vt 3.12500 -4.25000
vt 3.00000 -4.25000
vt 3.12500 -4.34375
vt 3.00000 -4.34375
vt 3.25000 -4.25000
vt 3.25000 -4.37500
vt 3.00000 -4.37500
vt 3.25000 -4.34375
vt 2.62500 -6.75000
vt 2.50000 -6.75000
vt 2.62500 -6.81250
vt 2.50000 -6.81250
vt 2.81250 -6.75000
vt 2.81250 -6.87500
vt 2.50000 -6.87500
vt 2.81250 -6.81250
vt 4.75000 -0.75000
vt 4.50000 -0.75000
vt 4.75000 -0.84375
vt 4.50000 -0.84375
vt 5.00000 -0.75000
vt 5.00000 -1.00000
vt 5.00000 -0.84375
vt 6.31250 -4.00000
vt 6.00000 -4.00000
vt 6.31250 -4.18750
vt 6.00000 -4.18750
vt 6.15625 -4.00000
vt 6.15625 -4.31250
vt 6.00000 -4.31250
vt 6.15625 -4.18750
vt 5.90625 -5.50000
vt 5.50000 -5.50000
vt 5.90625 -5.62500
vt 5.50000 -5.62500
vt 5.75000 -5.50000
vt 5.75000 -5.90625
vt 5.50000 -5.90625
vt 5.75000 -5.62500
vt 6.18750 -6.25000
vt 6.00000 -6.25000
vt 6.18750 -6.28125
vt 6.00000 -6.28125
vt 6.43750 -6.25000
vt 6.43750 -6.43750
vt 6.00000 -6.43750
vt 6.43750 -6.28125
vt 0.84375 0.25000
vt 0.50000 0.25000
vt 0.84375 0.21875
vt 0.50000 0.21875
vt 0.75000 0.25000
vt 0.75000 -0.09375
vt 0.50000 -0.09375
vt 0.75000 0.21875
vt 3.00000 -2.25000
vt 2.50000 -2.25000
vt 3.00000 -2.68750
vt 2.50000 -2.68750
vt 3.25000 -2.25000
vt 3.25000 -2.75000
vt 2.50000 -2.75000
vt 3.25000 -2.68750
vt 0.46875 -0.50000
vt 0.25000 -0.50000
vt 0.46875 -1.00000
vt 0.25000 -1.00000
vt 1.00000 -0.50000
vt 1.00000 -0.71875
vt 0.25000 -0.71875
vt 6.62500 0.75000
vt 6.50000 0.75000
vt 6.62500 0.50000
vt 6.50000 0.50000
vt 7.37500 0.75000
vt 7.37500 0.62500
vt 6.50000 0.62500
vt 7.37500 0.50000
vt 5.65625 -1.25000
vt 5.50000 -1.25000
vt 5.65625 -1.43750
vt 5.50000 -1.43750
vt 6.12500 -1.25000
vt 6.12500 -1.40625
vt 5.50000 -1.40625
vt 6.12500 -1.43750
vt 3.31250 -6.50000
vt 3.00000 -6.50000
vt 3.31250 -6.81250
vt 3.00000 -6.81250
vt 3.87500 -6.50000
vt 3.87500 -6.81250
vt 5.68750 -4.50000
vt 5.68750 -5.00000
vt 5.50000 -5.00000
vt 6.25000 -5.00000
vt 4.34375 -5.00000
vt 4.25000 -5.00000
vt 4.34375 -5.25000
vt 4.25000 -5.25000
vt 5.12500 -5.00000
vt 5.12500 -5.09375
vt 4.25000 -5.09375
vt 5.12500 -5.25000
vt 0.15625 -0.50000
vt 0.00000 -0.50000
vt 0.15625 -0.68750
vt 0.00000 -0.68750
vt 0.62500 -0.50000
vt 0.62500 -0.65625
vt 0.00000 -0.65625
vt 0.62500 -0.68750
vt 2.43750 0.75000
vt 2.00000 0.75000
vt 2.43750 0.43750
vt 2.00000 0.43750
vt 2.62500 0.75000
vt 2.62500 0.31250
vt 2.00000 0.31250
vt 2.62500 0.43750
vt 0.75000 -3.43750
vt 0.50000 -3.43750
vt 1.00000 -3.00000
vt 0.50000 -3.25000
vt 1.00000 -3.43750
vt 1.43750 -3.50000
vt 1.25000 -3.50000
vt 1.43750 -3.93750
vt 1.25000 -3.93750
vt 1.75000 -3.50000
vt 1.75000 -3.68750
vt 1.25000 -3.68750
vt 1.75000 -3.93750
vt 3.09375 -3.25000
vt 3.09375 -3.50000
vt 3.87500 -3.25000
vt 3.87500 -3.34375
vt 3.00000 -3.34375
vt 3.87500 -3.50000
vt 2.59375 -3.25000
vt 2.50000 -3.25000
vt 2.59375 -3.75000
vt 2.50000 -3.75000
vt 3.25000 -3.25000
vt 3.25000 -3.34375
vt 2.50000 -3.34375
vt 3.25000 -3.75000
vt 3.31250 -0.50000
vt 2.75000 -0.50000
vt 3.31250 -0.93750
vt 2.75000 -0.93750
vt 2.87500 -0.50000
vt 2.87500 -1.06250
vt 2.75000 -1.06250
vt 2.87500 -0.93750
vt 6.12500 -4.75000
vt 6.00000 -4.75000
vt 6.12500 -4.93750
vt 6.00000 -4.93750
vt 6.62500 -4.75000
vt 6.62500 -4.87500
vt 6.00000 -4.87500
vt 6.62500 -4.93750
vt 5.43750 -4.00000
vt 4.50000 -4.00000
vt 4.50000 -4.25000
vt 4.87500 -4.00000
vt 4.87500 -4.93750
vt 4.50000 -4.93750
vt 4.87500 -4.25000
vt 3.12500 -3.25000
vt 3.12500 -3.68750
vt 3.00000 -3.68750
vt 3.50000 -3.25000
vt 3.50000 -3.37500
vt 3.00000 -3.37500
vt 3.50000 -3.68750
vt 5.06250 0.00000
vt 5.06250 -0.25000
vt 4.50000 -0.25000
vt 5.00000 0.00000
vt 5.00000 -0.56250
vt 4.50000 -0.56250
vt 5.00000 -0.25000
vt 2.56250 -6.50000
vt 1.50000 -6.50000
vt 2.56250 -6.87500
vt 1.50000 -6.87500
vt 1.87500 -6.50000
vt 1.87500 -7.56250
vt 1.50000 -7.56250
vt 1.87500 -6.87500
vt 6.84375 -5.25000
vt 6.50000 -5.25000
vt 6.84375 -5.43750
vt 6.50000 -5.43750
vt 6.68750 -5.25000
vt 6.68750 -5.59375
vt 6.50000 -5.59375
vt 6.68750 -5.43750
vt 7.62500 -3.34375
vt 7.50000 -3.34375
vt 7.75000 -3.25000
vt 7.75000 -3.37500
vt 7.75000 -3.34375
vt 6.62500 -2.81250
vt 6.50000 -2.81250
vt 6.81250 -2.75000
vt 6.81250 -2.87500
vt 6.81250 -2.81250
vt 7.90625 -3.25000
vt 7.90625 -3.37500
vt 7.87500 -3.25000
vt 7.87500 -3.65625
vt 7.50000 -3.65625
vt 7.87500 -3.37500
vt 4.75000 1.00000
vt 4.50000 1.00000
vt 4.75000 0.90625
vt 4.50000 0.90625
vt 5.00000 1.00000
vt 5.00000 0.75000
vt 4.50000 0.75000
vt 5.00000 0.90625
vt 1.15625 -4.50000
vt 1.00000 -4.50000
vt 1.15625 -4.53125
vt 1.00000 -4.53125
vt 1.43750 -4.50000
vt 1.43750 -4.65625
vt 1.00000 -4.65625
vt 1.43750 -4.53125
vt 6.53125 -1.75000
vt 6.25000 -1.75000
vt 6.53125 -1.78125
vt 6.25000 -1.78125
vt 6.62500 -1.75000
vt 6.62500 -2.03125
vt 6.25000 -2.03125
vt 6.62500 -1.78125
vt 2.50000 -5.25000
vt 1.50000 -5.25000
vt 2.50000 -5.62500
vt 1.50000 -5.62500
vt 2.50000 -6.25000
vt 1.50000 -6.25000
vt 2.75000 -4.00000
vt 2.50000 -4.00000
vt 2.75000 -4.37500
vt 2.50000 -4.37500
vt 3.50000 -4.00000
vt 3.50000 -4.25000
vt 2.50000 -4.25000
vt 3.50000 -4.37500
vt 2.25000 -2.00000
vt 2.50000 -2.37500
vt 2.25000 -2.37500
vt 3.25000 -2.00000
vt 2.25000 -2.25000
vt 3.25000 -2.37500
vt 0.40625 -1.00000
vt 0.40625 -1.12500
vt 0.25000 -1.12500
vt 1.00000 -1.15625
vt 0.25000 -1.15625
vt 1.00000 -1.12500
vt 5.00000 -1.50000
vt 4.75000 -1.50000
vt 5.00000 -1.87500
vt 4.75000 -1.87500
vt 5.75000 -1.50000
vt 5.75000 -1.75000
vt 4.75000 -1.75000
vt 5.75000 -1.87500
vt 5.75000 -4.75000
vt 5.75000 -4.87500
vt 6.50000 -4.75000
vt 6.50000 -5.00000
vt 5.75000 -5.00000
vt 6.50000 -4.87500
vt 1.21875 -3.50000
vt 1.21875 -3.62500
vt 1.00000 -3.62500
vt 1.75000 -3.71875
vt 1.00000 -3.71875
vt 1.75000 -3.62500
vt 7.62500 -5.50000
vt 6.75000 -5.50000
vt 7.62500 -6.43750
vt 6.75000 -6.43750
vt 7.50000 -5.50000
vt 7.50000 -6.37500
vt 6.75000 -6.37500
vt 7.50000 -6.43750
vt 5.06250 -3.25000
vt 4.00000 -3.25000
vt 5.06250 -4.28125
vt 4.00000 -4.28125
vt 4.43750 -3.25000
vt 4.43750 -4.31250
vt 4.00000 -4.31250
vt 4.43750 -4.28125
vt 0.37500 -6.00000
vt 0.37500 -6.12500
vt 0.25000 -6.12500
vt 1.00000 -6.00000
vt 1.00000 -6.12500
vt 2.62500 -0.75000
vt 2.62500 -0.87500
vt 2.50000 -0.87500
vt 3.25000 -0.75000
vt 3.25000 -0.87500
vt 5.62500 -2.50000
vt 5.50000 -2.50000
vt 5.62500 -2.87500
vt 5.50000 -2.87500
vt 6.50000 -2.50000
vt 6.50000 -2.62500
vt 5.50000 -2.62500
vt 0.12500 -2.75000
vt 0.00000 -2.75000
vt 0.12500 -3.12500
vt 0.00000 -3.12500
vt 1.00000 -2.75000
vt 1.00000 -2.87500
vt 0.00000 -2.87500
vt 1.00000 -3.12500
vt 7.31250 -3.75000
vt 7.31250 -4.18750
vt 6.25000 -4.18750
vt 6.75000 -4.81250
vt 6.25000 -4.81250
vt 6.75000 -4.18750
vt 6.75000 -6.25000
vt 6.62500 -7.00000
vt 6.00000 -7.00000
vt 6.62500 -6.43750
vn 1.0000 0.0000 0.0000
vn 0.0000 1.0000 0.0000
vn 0.0000 0.0000 1.0000
vn -1.0000 0.0000 0.0000
vn 0.0000 -1.0000 0.0000
vn 0.0000 0.0000 -1.0000
vn 0.0000 1.0000 -0.0866
vn 0.0000 0.0866 1.0000
vn 0.0000 -1.0000 0.0866
vn 0.0000 -0.0866 -1.0000
vn 0.0000 1.0000 0.0866
vn 0.0000 -0.0866 1.0000
vn 0.0000 -1.0000 -0.0866
vn 0.0000 0.0866 -1.0000
vn 0.0000 0.8189 0.5748
vn 0.0000 -0.5748 0.8189
vn 0.0000 -0.8189 -0.5748
vn 0.0000 0.5748 -0.8189
vn 0.0000 0.9921 -0.1260
vn 0.0000 0.1260 0.9921
vn 0.0000 -0.9921 0.1260
vn 0.0000 -0.1260 -0.9921
vn 0.0000 0.9370 -0.3386
vn 0.0000 0.3386 0.9370
vn 0.0000 -0.9370 0.3386
vn 0.0000 -0.3386 -0.9370
vn 0.3465 0.9055 -0.2362
vn -0.9370 0.3386 -0.0787
vn 0.0079 0.2520 0.9685
vn -0.3465 -0.9055 0.2362
vn 0.9370 -0.3386 0.0787
vn -0.0079 -0.2520 -0.9685
vn 0.4094 0.7795 -0.4724
vn -0.9055 0.4173 -0.1024
vn 0.1181 0.4646 0.8740
vn -0.4094 -0.7795 0.4724
vn 0.9055 -0.4173 0.1024
vn -0.1181 -0.4646 -0.8740
vn 0.0000 0.8661 -0.5039
vn 0.0000 0.5039 0.8661
vn 0.0000 -0.8661 0.5039
vn 0.0000 -0.5039 -0.8661
vn 0.5354 -0.7717 0.3386
vn 0.8189 0.5748 0.0000
vn -0.1968 0.2835 0.9370
vn -0.5354 0.7717 -0.3386
vn -0.8189 -0.5748 0.0000
vn 0.1968 -0.2835 -0.9370
vn 0.4961 -0.8661 0.0866
vn 0.8661 0.5039 0.0079
vn -0.0472 0.0709 1.0000
vn -0.4961 0.8661 -0.0866
vn -0.8661 -0.5039 -0.0079
vn 0.0472 -0.0709 -1.0000
vn 0.4094 -0.7795 0.4724
vn 0.9055 0.4173 -0.1024
vn -0.1181 0.4646 0.8740
vn -0.4094 0.7795 -0.4724
vn -0.9055 -0.4173 0.1024
vn 0.1181 -0.4646 -0.8740
vn 0.3465 -0.9055 0.2362
vn 0.9370 0.3386 -0.0787
vn -0.0079 0.2520 0.9685
vn -0.3465 0.9055 -0.2362
vn -0.9370 -0.3386 0.0787
vn 0.0079 -0.2520 -0.9685
vn 0.0000 0.9055 -0.4252
vn 0.0000 0.4252 0.9055
vn 0.0000 -0.9055 0.4252
vn 0.0000 -0.4252 -0.9055
vn 0.0000 0.8189 -0.5748
vn 0.0000 0.5748 0.8189
vn 0.0000 -0.8189 0.5748
vn 0.0000 -0.5748 -0.8189
vn 0.4961 0.8661 -0.0866
vn -0.8661 0.5039 0.0079
vn 0.0472 0.0709 1.0000
vn -0.4961 -0.8661 0.0866
vn 0.8661 -0.5039 -0.0079
vn -0.0472 -0.0709 -1.0000
vn 0.5354 0.7717 -0.3386
vn -0.8189 0.5748 0.0000
vn 0.1968 0.2835 0.9370
vn -0.5354 -0.7717 0.3386
vn 0.8189 -0.5748 0.0000
vn -0.1968 -0.2835 -0.9370

o Head
usemtl c_8c5b9f
f 1/1/1 2/2/1 3/3/1
f 3/3/1 2/2/1 4/4/1
f 5/5/2 2/2/2 6/6/2
f 6/6/2 2/2/2 1/7/2
f 2/5/3 5/2/3 4/8/3
f 4/8/3 5/2/3 7/4/3
f 5/1/4 6/2/4 7/3/4
f 7/3/4 6/2/4 8/4/4
f 8/5/5 3/2/5 7/6/5
f 7/6/5 3/2/5 4/7/5
f 6/5/6 1/2/6 8/8/6
f 8/8/6 1/2/6 3/4/6
f 9/9/1 10/10/1 11/11/1
f 11/11/1 10/10/1 12/12/1
f 13/13/2 10/10/2 14/14/2
f 14/14/2 10/10/2 9/15/2
f 10/13/3 13/10/3 12/16/3
f 12/16/3 13/10/3 15/12/3
f 13/9/4 14/10/4 15/11/4
f 15/11/4 14/10/4 16/12/4
f 16/13/5 11/10/5 15/14/5
f 15/14/5 11/10/5 12/15/5
f 14/13/6 9/10/6 16/16/6
f 16/16/6 9/10/6 11/12/6
f 17/17/1 18/18/1 19/19/1
f 19/19/1 18/18/1 20/20/1
f 21/21/2 18/18/2 22/22/2
f 22/22/2 18/18/2 17/23/2
f 18/21/3 21/18/3 20/24/3
f 20/24/3 21/18/3 23/20/3
f 21/17/4 22/18/4 23/19/4
f 23/19/4 22/18/4 24/20/4
f 24/21/5 19/18/5 23/22/5
f 23/22/5 19/18/5 20/23/5
f 22/21/6 17/18/6 24/24/6
f 24/24/6 17/18/6 19/20/6
f 25/25/1 26/26/1 4/27/1
f 4/27/1 26/26/1 27/28/1
f 28/29/2 26/26/2 29/30/2
f 29/30/2 26/26/2 25/31/2
f 26/29/3 28/26/3 27/32/3
f 27/32/3 28/26/3 30/28/3
f 28/25/4 29/26/4 30/27/4
f 30/27/4 29/26/4 7/28/4
f 7/29/5 4/26/5 30/30/5
f 30/30/5 4/26/5 27/31/5
f 29/29/6 25/26/6 7/32/6
f 7/32/6 25/26/6 4/28/6
f 31/33/1 32/34/1 33/35/1
f 33/35/1 32/34/1 34/36/1
f 35/37/7 32/34/7 36/38/7
f 36/38/7 32/34/7 31/39/7
f 32/37/8 35/34/8 34/40/8
f 34/40/8 35/34/8 37/36/8
f 35/33/4 36/34/4 37/35/4
f 37/35/4 36/34/4 38/36/4
f 38/37/9 33/34/9 37/38/9
f 37/38/9 33/34/9 34/39/9
f 36/37/10 31/34/10 38/40/10
f 38/40/10 31/34/10 33/36/10
f 39/41/1 40/42/1 41/43/1
f 41/43/1 40/42/1 42/44/1
f 43/41/7 40/42/7 44/45/7
f 44/45/7 40/42/7 39/46/7
f 40/41/8 43/42/8 42/43/8
f 42/43/8 43/42/8 45/44/8
f 43/41/4 44/42/4 45/43/4
f 45/43/4 44/42/4 46/44/4
f 46/41/9 41/42/9 45/45/9
f 45/45/9 41/42/9 42/46/9
f 44/41/10 39/42/10 46/43/10
f 46/43/10 39/42/10 41/44/10
f 47/47/1 48/48/1 49/49/1
f 49/49/1 48/48/1 50/50/1
f 51/51/7 48/48/7 52/52/7
f 52/52/7 48/48/7 47/53/7
f 48/51/8 51/48/8 50/54/8
f 50/54/8 51/48/8 53/50/8
f 51/47/4 52/48/4 53/49/4
f 53/49/4 52/48/4 54/50/4
f 54/51/9 49/48/9 53/52/9
f 53/52/9 49/48/9 50/53/9
f 52/51/10 47/48/10 54/54/10
f 54/54/10 47/48/10 49/50/10
f 55/55/1 56/56/1 57/57/1
f 57/57/1 56/56/1 58/58/1
f 59/59/2 56/56/2 60/60/2
f 60/60/2 56/56/2 55/61/2
f 56/59/3 59/56/3 58/62/3
f 58/62/3 59/56/3 61/58/3
f 59/55/4 60/56/4 61/57/4
f 61/57/4 60/56/4 62/58/4
f 62/59/5 57/56/5 61/60/5
f 61/60/5 57/56/5 58/61/5
f 60/59/6 55/56/6 62/62/6
f 62/62/6 55/56/6 57/58/6
usemtl c_80bbdb
f 63/63/1 64/64/1 65/65/1
f 65/65/1 64/64/1 66/66/1
f 67/67/2 64/64/2 68/68/2
f 68/68/2 64/64/2 63/69/2
f 64/67/3 67/64/3 66/70/3
f 66/70/3 67/64/3 69/66/3
f 67/63/4 68/64/4 69/65/4
f 69/65/4 68/64/4 70/66/4
f 70/67/5 65/64/5 69/68/5
f 69/68/5 65/64/5 66/69/5
f 68/67/6 63/64/6 70/70/6
f 70/70/6 63/64/6 65/66/6
f 71/71/1 72/72/1 73/73/1
f 73/73/1 72/72/1 74/74/1
f 75/71/11 72/72/11 76/73/11
f 76/73/11 72/72/11 71/74/11
f 72/71/12 75/72/12 74/73/12
f 74/73/12 75/72/12 77/74/12
f 75/71/4 76/72/4 77/73/4
f 77/73/4 76/72/4 78/74/4
f 78/71/13 73/72/13 77/73/13
f 77/73/13 73/72/13 74/74/13
f 76/71/14 71/72/14 78/73/14
f 78/73/14 71/72/14 73/74/14
f 79/75/1 80/76/1 81/77/1
f 81/77/1 80/76/1 82/78/1
f 83/79/15 80/76/15 84/80/15
f 84/80/15 80/76/15 79/81/15
f 80/79/16 83/76/16 82/82/16
f 82/82/16 83/76/16 85/78/16
f 83/75/4 84/76/4 85/77/4
f 85/77/4 84/76/4 86/78/4
f 86/79/17 81/76/17 85/80/17
f 85/80/17 81/76/17 82/81/17
f 84/79/18 79/76/18 86/82/18
f 86/82/18 79/76/18 81/78/18
f 87/83/1 88/84/1 89/85/1
f 89/85/1 88/84/1 90/86/1
f 91/83/11 88/84/11 92/87/11
f 92/87/11 88/84/11 87/88/11
f 88/83/12 91/84/12 90/85/12
f 90/85/12 91/84/12 93/86/12
f 91/83/4 92/84/4 93/85/4
f 93/85/4 92/84/4 94/86/4
f 94/83/13 89/84/13 93/87/13
f 93/87/13 89/84/13 90/88/13
f 92/83/14 87/84/14 94/85/14
f 94/85/14 87/84/14 89/86/14
usemtl c_a34b4b
f 95/89/1 96/90/1 97/91/1
f 97/91/1 96/90/1 98/92/1
f 99/93/19 96/90/19 100/94/19
f 100/94/19 96/90/19 95/95/19
f 96/93/20 99/90/20 98/96/20
f 98/96/20 99/90/20 101/92/20
f 99/89/4 100/90/4 101/91/4
f 101/91/4 100/90/4 102/92/4
f 102/93/21 97/90/21 101/94/21
f 101/94/21 97/90/21 98/95/21
f 100/93/22 95/90/22 102/96/22
f 102/96/22 95/90/22 97/92/22
usemtl c_6225d1
f 103/97/1 104/98/1 105/99/1
f 105/99/1 104/98/1 106/100/1
f 107/97/2 104/98/2 108/101/2
f 108/101/2 104/98/2 103/102/2
f 104/97/3 107/98/3 106/99/3
f 106/99/3 107/98/3 109/100/3
f 107/97/4 108/98/4 109/99/4
f 109/99/4 108/98/4 110/100/4
f 110/97/5 105/98/5 109/101/5
f 109/101/5 105/98/5 106/102/5
f 108/97/6 103/98/6 110/99/6
f 110/99/6 103/98/6 105/100/6
f 111/103/1 112/104/1 113/105/1
f 113/105/1 112/104/1 114/106/1
f 115/107/23 112/104/23 116/108/23
f 116/108/23 112/104/23 111/109/23
f 112/107/24 115/104/24 114/110/24
f 114/110/24 115/104/24 117/106/24
f 115/103/4 116/104/4 117/105/4
f 117/105/4 116/104/4 118/106/4
f 118/107/25 113/104/25 117/108/25
f 117/108/25 113/104/25 114/109/25
f 116/107/26 111/104/26 118/110/26
f 118/110/26 111/104/26 113/106/26
usemtl c_a2ff94
f 119/111/1 120/112/1 121/113/1
f 121/113/1 120/112/1 122/114/1
f 123/115/2 120/112/2 124/116/2
f 124/116/2 120/112/2 119/114/2
f 120/115/3 123/112/3 122/116/3
f 122/116/3 123/112/3 125/114/3
f 123/111/4 124/112/4 125/113/4
f 125/113/4 124/112/4 126/114/4
f 126/115/5 121/112/5 125/116/5
f 125/116/5 121/112/5 122/114/5
f 124/115/6 119/112/6 126/116/6
f 126/116/6 119/112/6 121/114/6
o Head_decal1
usemtl head_decal1
f 127/117/1 128/118/1 129/119/1
f 129/119/1 128/118/1 130/120/1
o Head_decal2
usemtl head_decal2
f 131/117/4 132/118/4 133/119/4
f 133/119/4 132/118/4 134/120/4
o LeftUpperLeg
usemtl c_80bbdb
f 135/121/27 136/122/27 137/123/27
f 137/123/27 136/122/27 138/124/27
f 139/125/28 136/122/28 140/126/28
f 140/126/28 136/122/28 135/127/28
f 136/125/29 139/122/29 138/128/29
f 138/128/29 139/122/29 141/124/29
f 139/121/30 140/122/30 141/123/30
f 141/123/30 140/122/30 142/124/30
f 142/125/31 137/122/31 141/126/31
f 141/126/31 137/122/31 138/127/31
f 140/125/32 135/122/32 142/128/32
f 142/128/32 135/122/32 137/124/32
f 143/129/33 144/130/33 145/131/33
f 145/131/33 144/130/33 146/132/33
f 147/133/34 144/130/34 148/134/34
f 148/134/34 144/130/34 143/135/34
f 144/133/35 147/130/35 146/136/35
f 146/136/35 147/130/35 149/132/35
f 147/129/36 148/130/36 149/131/36
f 149/131/36 148/130/36 150/132/36
f 150/133/37 145/130/37 149/134/37
f 149/134/37 145/130/37 146/135/37
f 148/133/38 143/130/38 150/136/38
f 150/136/38 143/130/38 145/132/38
usemtl c_8c5b9f
f 151/137/27 152/138/27 153/139/27
f 153/139/27 152/138/27 154/140/27
f 155/141/28 152/138/28 156/142/28
f 156/142/28 152/138/28 151/143/28
f 152/141/29 155/138/29 154/144/29
f 154/144/29 155/138/29 157/140/29
f 155/137/30 156/138/30 157/139/30
f 157/139/30 156/138/30 158/140/30
f 158/141/31 153/138/31 157/142/31
f 157/142/31 153/138/31 154/143/31
f 156/141/32 151/138/32 158/144/32
f 158/144/32 151/138/32 153/140/32
f 159/145/27 160/146/27 161/147/27
f 161/147/27 160/146/27 162/148/27
f 163/149/28 160/146/28 164/150/28
f 164/150/28 160/146/28 159/151/28
f 160/149/29 163/146/29 162/152/29
f 162/152/29 163/146/29 165/148/29
f 163/145/30 164/146/30 165/147/30
f 165/147/30 164/146/30 166/148/30
f 166/149/31 161/146/31 165/150/31
f 165/150/31 161/146/31 162/151/31
f 164/149/32 159/146/32 166/152/32
f 166/152/32 159/146/32 161/148/32
f 167/153/33 168/154/33 169/155/33
f 169/155/33 168/154/33 170/156/33
f 171/157/34 168/154/34 172/158/34
f 172/158/34 168/154/34 167/159/34
f 168/157/35 171/154/35 170/160/35
f 170/160/35 171/154/35 173/156/35
f 171/153/36 172/154/36 173/155/36
f 173/155/36 172/154/36 174/156/36
f 174/157/37 169/154/37 173/158/37
f 173/158/37 169/154/37 170/159/37
f 172/157/38 167/154/38 174/160/38
f 174/160/38 167/154/38 169/156/38
f 175/161/33 176/162/33 177/163/33
f 177/163/33 176/162/33 178/164/33
f 179/165/34 176/162/34 180/166/34
f 180/166/34 176/162/34 175/167/34
f 176/165/35 179/162/35 178/168/35
f 178/168/35 179/162/35 181/164/35
f 179/161/36 180/162/36 181/163/36
f 181/163/36 180/162/36 182/164/36
f 182/165/37 177/162/37 181/166/37
f 181/166/37 177/162/37 178/167/37
f 180/165/38 175/162/38 182/168/38
f 182/168/38 175/162/38 177/164/38
f 183/169/33 184/170/33 185/171/33
f 185/171/33 184/170/33 186/172/33
f 187/173/34 184/170/34 188/174/34
f 188/174/34 184/170/34 183/175/34
f 184/173/35 187/170/35 186/176/35
f 186/176/35 187/170/35 189/172/35
f 187/169/36 188/170/36 189/171/36
f 189/171/36 188/170/36 190/172/36
f 190/173/37 185/170/37 189/174/37
f 189/174/37 185/170/37 186/175/37
f 188/173/38 183/170/38 190/176/38
f 190/176/38 183/170/38 185/172/38
o Tail
usemtl c_80bbdb
f 191/177/1 192/178/1 193/179/1
f 193/179/1 192/178/1 194/180/1
f 195/181/39 192/178/39 196/182/39
f 196/182/39 192/178/39 191/183/39
f 192/181/40 195/178/40 194/184/40
f 194/184/40 195/178/40 197/180/40
f 195/177/4 196/178/4 197/179/4
f 197/179/4 196/178/4 198/180/4
f 198/181/41 193/178/41 197/182/41
f 197/182/41 193/178/41 194/183/41
f 196/181/42 191/178/42 198/184/42
f 198/184/42 191/178/42 193/180/42
f 199/185/1 200/186/1 201/187/1
f 201/187/1 200/186/1 202/188/1
f 203/185/2 200/186/2 204/189/2
f 204/189/2 200/186/2 199/190/2
f 200/185/3 203/186/3 202/187/3
f 202/187/3 203/186/3 205/188/3
f 203/185/4 204/186/4 205/187/4
f 205/187/4 204/186/4 206/188/4
f 206/185/5 201/186/5 205/189/5
f 205/189/5 201/186/5 202/190/5
f 204/185/6 199/186/6 206/187/6
f 206/187/6 199/186/6 201/188/6
f 207/191/1 208/192/1 209/193/1
f 209/193/1 208/192/1 210/194/1
f 211/195/2 208/192/2 212/196/2
f 212/196/2 208/192/2 207/197/2
f 208/195/3 211/192/3 210/198/3
f 210/198/3 211/192/3 213/194/3
f 211/191/4 212/192/4 213/193/4
f 213/193/4 212/192/4 214/194/4
f 214/195/5 209/192/5 213/196/5
f 213/196/5 209/192/5 210/197/5
f 212/195/6 207/192/6 214/198/6
f 214/198/6 207/192/6 209/194/6
f 215/199/1 216/200/1 217/201/1
f 217/201/1 216/200/1 218/202/1
f 219/203/39 216/200/39 220/204/39
f 220/204/39 216/200/39 215/205/39
f 216/203/40 219/200/40 218/206/40
f 218/206/40 219/200/40 221/202/40
f 219/199/4 220/200/4 221/201/4
f 221/201/4 220/200/4 222/202/4
f 222/203/41 217/200/41 221/204/41
f 221/204/41 217/200/41 218/205/41
f 220/203/42 215/200/42 222/206/42
f 222/206/42 215/200/42 217/202/42
f 223/207/1 224/208/1 225/209/1
f 225/209/1 224/208/1 226/210/1
f 227/211/39 224/208/39 228/212/39
f 228/212/39 224/208/39 223/213/39
f 224/211/40 227/208/40 226/214/40
f 226/214/40 227/208/40 229/210/40
f 227/207/4 228/208/4 229/209/4
f 229/209/4 228/208/4 230/210/4
f 230/211/41 225/208/41 229/212/41
f 229/212/41 225/208/41 226/213/41
f 228/211/42 223/208/42 230/214/42
f 230/214/42 223/208/42 225/210/42
usemtl c_8c5b9f
f 193/215/1 194/157/1 231/216/1
f 231/216/1 194/157/1 232/158/1
f 197/217/39 194/157/39 198/218/39
f 198/218/39 194/157/39 193/219/39
f 194/217/40 197/157/40 232/220/40
f 232/220/40 197/157/40 233/158/40
f 197/215/4 198/157/4 233/216/4
f 233/216/4 198/157/4 234/158/4
f 234/217/41 231/157/41 233/218/41
f 233/218/41 231/157/41 232/219/41
f 198/217/42 193/157/42 234/220/42
f 234/220/42 193/157/42 231/158/42
f 235/221/1 236/222/1 191/223/1
f 191/223/1 236/222/1 192/224/1
f 237/225/39 236/222/39 238/226/39
f 238/226/39 236/222/39 235/224/39
f 236/225/40 237/222/40 192/226/40
f 192/226/40 237/222/40 195/224/40
f 237/221/4 238/222/4 195/223/4
f 195/223/4 238/222/4 196/224/4
f 196/225/41 191/222/41 195/226/41
f 195/226/41 191/222/41 192/224/41
f 238/225/42 235/222/42 196/226/42
f 196/226/42 235/222/42 191/224/42
f 239/227/1 240/228/1 241/20/1
f 241/20/1 240/228/1 242/229/1
f 243/230/2 240/228/2 244/231/2
f 244/231/2 240/228/2 239/232/2
f 240/230/3 243/228/3 242/233/3
f 242/233/3 243/228/3 245/229/3
f 243/227/4 244/228/4 245/20/4
f 245/20/4 244/228/4 246/229/4
f 246/230/5 241/228/5 245/231/5
f 245/231/5 241/228/5 242/232/5
f 244/230/6 239/228/6 246/233/6
f 246/233/6 239/228/6 241/229/6
f 247/234/1 248/235/1 199/236/1
f 199/236/1 248/235/1 200/237/1
f 249/234/2 248/235/2 250/236/2
f 250/236/2 248/235/2 247/237/2
f 248/234/3 249/235/3 200/236/3
f 200/236/3 249/235/3 203/237/3
f 249/234/4 250/235/4 203/236/4
f 203/236/4 250/235/4 204/237/4
f 204/234/5 199/235/5 203/236/5
f 203/236/5 199/235/5 200/237/5
f 250/234/6 247/235/6 204/236/6
f 204/236/6 247/235/6 199/237/6
f 251/238/1 252/239/1 253/240/1
f 253/240/1 252/239/1 254/241/1
f 255/238/39 252/239/39 256/242/39
f 256/242/39 252/239/39 251/243/39
f 252/238/40 255/239/40 254/240/40
f 254/240/40 255/239/40 257/241/40
f 255/238/4 256/239/4 257/240/4
f 257/240/4 256/239/4 258/241/4
f 258/238/41 253/239/41 257/242/41
f 257/242/41 253/239/41 254/243/41
f 256/238/42 251/239/42 258/240/42
f 258/240/42 251/239/42 253/241/42
f 259/244/1 260/245/1 207/246/1
f 207/246/1 260/245/1 208/247/1
f 261/248/2 260/245/2 262/249/2
f 262/249/2 260/245/2 259/250/2
f 260/248/3 261/245/3 208/251/3
f 208/251/3 261/245/3 211/247/3
f 261/244/4 262/245/4 211/246/4
f 211/246/4 262/245/4 212/247/4
f 212/248/5 207/245/5 211/249/5
f 211/249/5 207/245/5 208/250/5
f 262/248/6 259/245/6 212/251/6
f 212/251/6 259/245/6 207/247/6
f 236/252/1 251/253/1 263/254/1
f 263/254/1 251/253/1 264/255/1
f 256/252/39 251/253/39 237/256/39
f 237/256/39 251/253/39 236/257/39
f 251/252/40 256/253/40 264/254/40
f 264/254/40 256/253/40 265/255/40
f 256/252/4 237/253/4 265/254/4
f 265/254/4 237/253/4 266/255/4
f 266/252/41 263/253/41 265/256/41
f 265/256/41 263/253/41 264/257/41
f 237/252/42 236/253/42 266/254/42
f 266/254/42 236/253/42 263/255/42
f 217/258/1 218/259/1 267/260/1
f 267/260/1 218/259/1 268/261/1
f 221/262/39 218/259/39 222/263/39
f 222/263/39 218/259/39 217/264/39
f 218/262/40 221/259/40 268/265/40
f 268/265/40 221/259/40 269/261/40
f 221/258/4 222/259/4 269/260/4
f 269/260/4 222/259/4 270/261/4
f 270/262/41 267/259/41 269/263/41
f 269/263/41 267/259/41 268/264/41
f 222/262/42 217/259/42 270/265/42
f 270/265/42 217/259/42 267/261/42
f 225/266/1 226/267/1 271/268/1
f 271/268/1 226/267/1 272/269/1
f 229/270/39 226/267/39 230/271/39
f 230/271/39 226/267/39 225/272/39
f 226/270/40 229/267/40 272/273/40
f 272/273/40 229/267/40 273/269/40
f 229/266/4 230/267/4 273/268/4
f 273/268/4 230/267/4 274/269/4
f 274/270/41 271/267/41 273/271/41
f 273/271/41 271/267/41 272/272/41
f 230/270/42 225/267/42 274/273/42
f 274/273/42 225/267/42 271/269/42
o RightUpperArm
usemtl c_80bbdb
f 275/274/43 276/275/43 277/276/43
f 277/276/43 276/275/43 278/277/43
f 279/278/44 276/275/44 280/279/44
f 280/279/44 276/275/44 275/280/44
f 276/278/45 279/275/45 278/281/45
f 278/281/45 279/275/45 281/277/45
f 279/274/46 280/275/46 281/276/46
f 281/276/46 280/275/46 282/277/46
f 282/278/47 277/275/47 281/279/47
f 281/279/47 277/275/47 278/280/47
f 280/278/48 275/275/48 282/281/48
f 282/281/48 275/275/48 277/277/48
f 283/282/49 284/283/49 285/284/49
f 285/284/49 284/283/49 286/285/49
f 287/286/50 284/283/50 288/287/50
f 288/287/50 284/283/50 283/288/50
f 284/286/51 287/283/51 286/289/51
f 286/289/51 287/283/51 289/285/51
f 287/282/52 288/283/52 289/284/52
f 289/284/52 288/283/52 290/285/52
f 290/286/53 285/283/53 289/287/53
f 289/287/53 285/283/53 286/288/53
f 288/286/54 283/283/54 290/289/54
f 290/289/54 283/283/54 285/285/54
usemtl c_8c5b9f
f 291/290/43 292/291/43 293/292/43
f 293/292/43 292/291/43 294/293/43
f 295/294/44 292/291/44 296/295/44
f 296/295/44 292/291/44 291/296/44
f 292/294/45 295/291/45 294/297/45
f 294/297/45 295/291/45 297/293/45
f 295/290/46 296/291/46 297/292/46
f 297/292/46 296/291/46 298/293/46
f 298/294/47 293/291/47 297/295/47
f 297/295/47 293/291/47 294/296/47
f 296/294/48 291/291/48 298/297/48
f 298/297/48 291/291/48 293/293/48
f 299/298/49 300/299/49 301/300/49
f 301/300/49 300/299/49 302/301/49
f 303/302/50 300/299/50 304/303/50
f 304/303/50 300/299/50 299/304/50
f 300/302/51 303/299/51 302/305/51
f 302/305/51 303/299/51 305/301/51
f 303/298/52 304/299/52 305/300/52
f 305/300/52 304/299/52 306/301/52
f 306/302/53 301/299/53 305/303/53
f 305/303/53 301/299/53 302/304/53
f 304/302/54 299/299/54 306/305/54
f 306/305/54 299/299/54 301/301/54
f 307/306/49 308/307/49 309/308/49
f 309/308/49 308/307/49 310/309/49
f 311/310/50 308/307/50 312/311/50
f 312/311/50 308/307/50 307/312/50
f 308/310/51 311/307/51 310/313/51
f 310/313/51 311/307/51 313/309/51
f 311/306/52 312/307/52 313/308/52
f 313/308/52 312/307/52 314/309/52
f 314/310/53 309/307/53 313/311/53
f 313/311/53 309/307/53 310/312/53
f 312/310/54 307/307/54 314/313/54
f 314/313/54 307/307/54 309/309/54
f 315/314/43 316/315/43 317/316/43
f 317/316/43 316/315/43 318/317/43
f 319/318/44 316/315/44 320/319/44
f 320/319/44 316/315/44 315/320/44
f 316/318/45 319/315/45 318/321/45
f 318/321/45 319/315/45 321/317/45
f 319/314/46 320/315/46 321/316/46
f 321/316/46 320/315/46 322/317/46
f 322/318/47 317/315/47 321/319/47
f 321/319/47 317/315/47 318/320/47
f 320/318/48 315/315/48 322/321/48
f 322/321/48 315/315/48 317/317/48
f 323/322/43 324/323/43 325/324/43
f 325/324/43 324/323/43 326/325/43
f 327/326/44 324/323/44 328/327/44
f 328/327/44 324/323/44 323/328/44
f 324/326/45 327/323/45 326/329/45
f 326/329/45 327/323/45 329/325/45
f 327/322/46 328/323/46 329/324/46
f 329/324/46 328/323/46 330/325/46
f 330/326/47 325/323/47 329/327/47
f 329/327/47 325/323/47 326/328/47
f 328/326/48 323/323/48 330/329/48
f 330/329/48 323/323/48 325/325/48
o RightUpperLeg
usemtl c_8c5b9f
f 331/330/55 332/331/55 333/332/55
f 333/332/55 332/331/55 334/333/55
f 335/334/56 332/331/56 336/335/56
f 336/335/56 332/331/56 331/336/56
f 332/334/57 335/331/57 334/337/57
f 334/337/57 335/331/57 337/333/57
f 335/330/58 336/331/58 337/332/58
f 337/332/58 336/331/58 338/333/58
f 338/334/59 333/331/59 337/335/59
f 337/335/59 333/331/59 334/336/59
f 336/334/60 331/331/60 338/337/60
f 338/337/60 331/331/60 333/333/60
f 339/338/55 340/339/55 341/340/55
f 341/340/55 340/339/55 342/341/55
f 343/342/56 340/339/56 344/343/56
f 344/343/56 340/339/56 339/344/56
f 340/342/57 343/339/57 342/345/57
f 342/345/57 343/339/57 345/341/57
f 343/338/58 344/339/58 345/340/58
f 345/340/58 344/339/58 346/341/58
f 346/342/59 341/339/59 345/343/59
f 345/343/59 341/339/59 342/344/59
f 344/342/60 339/339/60 346/345/60
f 346/345/60 339/339/60 341/341/60
f 347/346/55 348/347/55 349/348/55
f 349/348/55 348/347/55 350/349/55
f 351/350/56 348/347/56 352/351/56
f 352/351/56 348/347/56 347/267/56
f 348/350/57 351/347/57 350/352/57
f 350/352/57 351/347/57 353/349/57
f 351/346/58 352/347/58 353/348/58
f 353/348/58 352/347/58 354/349/58
f 354/350/59 349/347/59 353/351/59
f 353/351/59 349/347/59 350/267/59
f 352/350/60 347/347/60 354/352/60
f 354/352/60 347/347/60 349/349/60
f 355/353/61 356/354/61 357/355/61
f 357/355/61 356/354/61 358/356/61
f 359/357/62 356/354/62 360/358/62
f 360/358/62 356/354/62 355/359/62
f 356/357/63 359/354/63 358/360/63
f 358/360/63 359/354/63 361/356/63
f 359/353/64 360/354/64 361/355/64
f 361/355/64 360/354/64 362/356/64
f 362/357/65 357/354/65 361/358/65
f 361/358/65 357/354/65 358/359/65
f 360/357/66 355/354/66 362/360/66
f 362/360/66 355/354/66 357/356/66
f 363/361/61 364/362/61 365/363/61
f 365/363/61 364/362/61 366/364/61
f 367/365/62 364/362/62 368/366/62
f 368/366/62 364/362/62 363/367/62
f 364/365/63 367/362/63 366/368/63
f 366/368/63 367/362/63 369/364/63
f 367/361/64 368/362/64 369/363/64
f 369/363/64 368/362/64 370/364/64
f 370/365/65 365/362/65 369/366/65
f 369/366/65 365/362/65 366/367/65
f 368/365/66 363/362/66 370/368/66
f 370/368/66 363/362/66 365/364/66
usemtl c_80bbdb
f 371/369/55 372/370/55 373/371/55
f 373/371/55 372/370/55 374/372/55
f 375/373/56 372/370/56 376/374/56
f 376/374/56 372/370/56 371/375/56
f 372/373/57 375/370/57 374/376/57
f 374/376/57 375/370/57 377/372/57
f 375/369/58 376/370/58 377/371/58
f 377/371/58 376/370/58 378/372/58
f 378/373/59 373/370/59 377/374/59
f 377/374/59 373/370/59 374/375/59
f 376/373/60 371/370/60 378/376/60
f 378/376/60 371/370/60 373/372/60
f 379/377/61 380/378/61 381/379/61
f 381/379/61 380/378/61 382/380/61
f 383/381/62 380/378/62 384/382/62
f 384/382/62 380/378/62 379/383/62
f 380/381/63 383/378/63 382/384/63
f 382/384/63 383/378/63 385/380/63
f 383/377/64 384/378/64 385/379/64
f 385/379/64 384/378/64 386/380/64
f 386/381/65 381/378/65 385/382/65
f 385/382/65 381/378/65 382/383/65
f 384/381/66 379/378/66 386/384/66
f 386/384/66 379/378/66 381/380/66
o LowerTorso
usemtl c_8c5b9f
f 387/385/1 388/386/1 389/387/1
f 389/387/1 388/386/1 390/388/1
f 391/389/2 388/386/2 392/390/2
f 392/390/2 388/386/2 387/391/2
f 388/389/3 391/386/3 390/392/3
f 390/392/3 391/386/3 393/388/3
f 391/385/4 392/386/4 393/387/4
f 393/387/4 392/386/4 394/388/4
f 394/389/5 389/386/5 393/390/5
f 393/390/5 389/386/5 390/391/5
f 392/389/6 387/386/6 394/392/6
f 394/392/6 387/386/6 389/388/6
f 395/393/1 396/394/1 387/395/1
f 387/395/1 396/394/1 397/396/1
f 398/397/2 396/394/2 399/398/2
f 399/398/2 396/394/2 395/399/2
f 396/397/3 398/394/3 397/74/3
f 397/74/3 398/394/3 400/396/3
f 398/393/4 399/394/4 400/395/4
f 400/395/4 399/394/4 392/396/4
f 392/397/5 387/394/5 400/398/5
f 400/398/5 387/394/5 397/399/5
f 399/397/6 395/394/6 392/74/6
f 392/74/6 395/394/6 387/396/6
f 401/400/1 402/401/1 403/402/1
f 403/402/1 402/401/1 404/403/1
f 405/404/2 402/401/2 406/405/2
f 406/405/2 402/401/2 401/406/2
f 402/404/3 405/401/3 404/407/3
f 404/407/3 405/401/3 407/403/3
f 405/400/4 406/401/4 407/402/4
f 407/402/4 406/401/4 408/403/4
f 408/404/5 403/401/5 407/405/5
f 407/405/5 403/401/5 404/406/5
f 406/404/6 401/401/6 408/407/6
f 408/407/6 401/401/6 403/403/6
f 409/408/1 410/409/1 411/410/1
f 411/410/1 410/409/1 412/411/1
f 413/412/2 410/409/2 414/413/2
f 414/413/2 410/409/2 409/414/2
f 410/412/3 413/409/3 412/415/3
f 412/415/3 413/409/3 415/411/3
f 413/408/4 414/409/4 415/410/4
f 415/410/4 414/409/4 416/411/4
f 416/412/5 411/409/5 415/413/5
f 415/413/5 411/409/5 412/414/5
f 414/412/6 409/409/6 416/415/6
f 416/415/6 409/409/6 411/411/6
f 403/416/1 417/417/1 418/418/1
f 418/418/1 417/417/1 419/419/1
f 420/420/2 417/417/2 408/421/2
f 408/421/2 417/417/2 403/419/2
f 417/420/3 420/417/3 419/421/3
f 419/421/3 420/417/3 421/419/3
f 420/416/4 408/417/4 421/418/4
f 421/418/4 408/417/4 422/419/4
f 422/420/5 418/417/5 421/421/5
f 421/421/5 418/417/5 419/419/5
f 408/420/6 403/417/6 422/421/6
f 422/421/6 403/417/6 418/419/6
f 423/422/1 424/32/1 425/423/1
f 425/423/1 424/32/1 388/424/1
f 426/2/2 424/32/2 427/4/2
f 427/4/2 424/32/2 423/30/2
f 424/2/3 426/32/3 388/425/3
f 388/425/3 426/32/3 391/424/3
f 426/422/4 427/32/4 391/423/4
f 391/423/4 427/32/4 428/424/4
f 428/2/5 425/32/5 391/4/5
f 391/4/5 425/32/5 388/30/5
f 427/2/6 423/32/6 428/425/6
f 428/425/6 423/32/6 425/424/6
f 429/426/1 430/427/1 431/428/1
f 431/428/1 430/427/1 417/429/1
f 432/430/2 430/427/2 433/431/2
f 433/431/2 430/427/2 429/432/2
f 430/430/3 432/427/3 417/433/3
f 417/433/3 432/427/3 420/429/3
f 432/426/4 433/427/4 420/428/4
f 420/428/4 433/427/4 434/429/4
f 434/430/5 431/427/5 420/431/5
f 420/431/5 431/427/5 417/432/5
f 433/430/6 429/427/6 434/433/6
f 434/433/6 429/427/6 431/429/6
f 435/434/1 436/435/1 437/436/1
f 437/436/1 436/435/1 438/437/1
f 439/438/2 436/435/2 440/439/2
f 440/439/2 436/435/2 435/440/2
f 436/438/3 439/435/3 438/441/3
f 438/441/3 439/435/3 441/437/3
f 439/434/4 440/435/4 441/436/4
f 441/436/4 440/435/4 442/437/4
f 442/438/5 437/435/5 441/439/5
f 441/439/5 437/435/5 438/440/5
f 440/438/6 435/435/6 442/441/6
f 442/441/6 435/435/6 437/437/6
f 411/442/1 438/443/1 443/444/1
f 443/444/1 438/443/1 444/445/1
f 441/446/2 438/443/2 416/447/2
f 416/447/2 438/443/2 411/448/2
f 438/446/3 441/443/3 444/449/3
f 444/449/3 441/443/3 445/445/3
f 441/442/4 416/443/4 445/444/4
f 445/444/4 416/443/4 446/445/4
f 446/446/5 443/443/5 445/447/5
f 445/447/5 443/443/5 444/448/5
f 416/446/6 411/443/6 446/449/6
f 446/449/6 411/443/6 443/445/6
f 447/51/1 448/48/1 449/450/1
f 449/450/1 448/48/1 241/451/1
f 450/452/2 448/48/2 451/315/2
f 451/315/2 448/48/2 447/453/2
f 448/452/3 450/48/3 241/454/3
f 241/454/3 450/48/3 246/451/3
f 450/51/4 451/48/4 246/450/4
f 246/450/4 451/48/4 452/451/4
f 452/452/5 449/48/5 246/315/5
f 246/315/5 449/48/5 241/453/5
f 451/452/6 447/48/6 452/454/6
f 452/454/6 447/48/6 449/451/6
f 453/455/1 454/456/1 455/457/1
f 455/457/1 454/456/1 456/458/1
f 457/459/2 454/456/2 458/460/2
f 458/460/2 454/456/2 453/461/2
f 454/459/3 457/456/3 456/462/3
f 456/462/3 457/456/3 459/458/3
f 457/455/4 458/456/4 459/457/4
f 459/457/4 458/456/4 460/458/4
f 460/459/5 455/456/5 459/460/5
f 459/460/5 455/456/5 456/461/5
f 458/459/6 453/456/6 460/462/6
f 460/462/6 453/456/6 455/458/6
usemtl c_6225d1
f 402/463/1 429/98/1 404/464/1
f 404/464/1 429/98/1 431/100/1
f 433/465/2 429/98/2 405/466/2
f 405/466/2 429/98/2 402/467/2
f 429/465/3 433/98/3 431/468/3
f 431/468/3 433/98/3 434/100/3
f 433/463/4 405/98/4 434/464/4
f 434/464/4 405/98/4 407/100/4
f 407/465/5 404/98/5 434/466/5
f 434/466/5 404/98/5 431/467/5
f 405/465/6 402/98/6 407/468/6
f 407/468/6 402/98/6 404/100/6
f 396/469/1 423/470/1 397/471/1
f 397/471/1 423/470/1 425/472/1
f 427/473/2 423/470/2 398/474/2
f 398/474/2 423/470/2 396/475/2
f 423/473/3 427/470/3 425/476/3
f 425/476/3 427/470/3 428/472/3
f 427/469/4 398/470/4 428/471/4
f 428/471/4 398/470/4 400/472/4
f 400/473/5 397/470/5 428/474/5
f 428/474/5 397/470/5 425/475/5
f 398/473/6 396/470/6 400/476/6
f 400/476/6 396/470/6 397/472/6
f 461/477/1 462/478/1 463/479/1
f 463/479/1 462/478/1 464/480/1
f 465/481/67 462/478/67 466/482/67
f 466/482/67 462/478/67 461/483/67
f 462/481/68 465/478/68 464/484/68
f 464/484/68 465/478/68 467/480/68
f 465/477/4 466/478/4 467/479/4
f 467/479/4 466/478/4 468/480/4
f 468/481/69 463/478/69 467/482/69
f 467/482/69 463/478/69 464/483/69
f 466/481/70 461/478/70 468/484/70
f 468/484/70 461/478/70 463/480/70
f 410/485/1 435/486/1 412/487/1
f 412/487/1 435/486/1 437/488/1
f 440/489/2 435/486/2 413/490/2
f 413/490/2 435/486/2 410/491/2
f 435/489/3 440/486/3 437/492/3
f 437/492/3 440/486/3 442/488/3
f 440/485/4 413/486/4 442/487/4
f 442/487/4 413/486/4 415/488/4
f 415/489/5 412/486/5 442/490/5
f 442/490/5 412/486/5 437/491/5
f 413/489/6 410/486/6 415/492/6
f 415/492/6 410/486/6 412/488/6
f 469/493/1 470/494/1 471/25/1
f 471/25/1 470/494/1 472/495/1
f 473/496/11 470/494/11 474/497/11
f 474/497/11 470/494/11 469/498/11
f 470/496/12 473/494/12 472/499/12
f 472/499/12 473/494/12 475/495/12
f 473/493/4 474/494/4 475/25/4
f 475/25/4 474/494/4 476/495/4
f 476/496/13 471/494/13 475/497/13
f 475/497/13 471/494/13 472/498/13
f 474/496/14 469/494/14 476/499/14
f 476/499/14 469/494/14 471/495/14
f 454/500/1 447/98/1 456/501/1
f 456/501/1 447/98/1 449/502/1
f 451/503/2 447/98/2 457/504/2
f 457/504/2 447/98/2 454/505/2
f 447/503/3 451/98/3 449/506/3
f 449/506/3 451/98/3 452/502/3
f 451/500/4 457/98/4 452/501/4
f 452/501/4 457/98/4 459/502/4
f 459/503/5 456/98/5 452/504/5
f 452/504/5 456/98/5 449/505/5
f 457/503/6 454/98/6 459/506/6
f 459/506/6 454/98/6 456/502/6
usemtl c_80bbdb
f 455/507/1 241/149/1 477/508/1
f 477/508/1 241/149/1 478/509/1
f 246/510/2 241/149/2 460/511/2
f 460/511/2 241/149/2 455/512/2
f 241/510/3 246/149/3 478/513/3
f 478/513/3 246/149/3 479/509/3
f 246/507/4 460/149/4 479/508/4
f 479/508/4 460/149/4 480/509/4
f 480/510/5 477/149/5 479/511/5
f 479/511/5 477/149/5 478/512/5
f 460/510/6 455/149/6 480/513/6
f 480/513/6 455/149/6 477/509/6
f 481/514/1 482/515/1 483/516/1
f 483/516/1 482/515/1 484/517/1
f 485/518/71 482/515/71 486/519/71
f 486/519/71 482/515/71 481/520/71
f 482/518/72 485/515/72 484/521/72
f 484/521/72 485/515/72 487/517/72
f 485/514/4 486/515/4 487/516/4
f 487/516/4 486/515/4 488/517/4
f 488/518/73 483/515/73 487/519/73
f 487/519/73 483/515/73 484/520/73
f 486/518/74 481/515/74 488/521/74
f 488/521/74 481/515/74 483/517/74
o LeftUpperArm
usemtl c_8c5b9f
f 489/522/75 490/523/75 491/524/75
f 491/524/75 490/523/75 492/525/75
f 493/526/76 490/523/76 494/527/76
f 494/527/76 490/523/76 489/528/76
f 490/526/77 493/523/77 492/529/77
f 492/529/77 493/523/77 495/525/77
f 493/522/78 494/523/78 495/524/78
f 495/524/78 494/523/78 496/525/78
f 496/526/79 491/523/79 495/527/79
f 495/527/79 491/523/79 492/528/79
f 494/526/80 489/523/80 496/529/80
f 496/529/80 489/523/80 491/525/80
f 497/252/81 498/253/81 499/530/81
f 499/530/81 498/253/81 500/531/81
f 501/532/82 498/253/82 502/533/82
f 502/533/82 498/253/82 497/257/82
f 498/532/83 501/253/83 500/534/83
f 500/534/83 501/253/83 503/531/83
f 501/252/84 502/253/84 503/530/84
f 503/530/84 502/253/84 504/531/84
f 504/532/85 499/253/85 503/533/85
f 503/533/85 499/253/85 500/257/85
f 502/532/86 497/253/86 504/534/86
f 504/534/86 497/253/86 499/531/86
f 505/217/81 506/157/81 507/535/81
f 507/535/81 506/157/81 508/536/81
f 509/537/82 506/157/82 510/538/82
f 510/538/82 506/157/82 505/158/82
f 506/537/83 509/157/83 508/539/83
f 508/539/83 509/157/83 511/536/83
f 509/217/84 510/157/84 511/535/84
f 511/535/84 510/157/84 512/536/84
f 512/537/85 507/157/85 511/538/85
f 511/538/85 507/157/85 508/158/85
f 510/537/86 505/157/86 512/539/86
f 512/539/86 505/157/86 507/536/86
f 513/540/75 514/253/75 515/541/75
f 515/541/75 514/253/75 516/257/75
f 517/542/76 514/253/76 518/543/76
f 518/543/76 514/253/76 513/544/76
f 514/542/77 517/253/77 516/545/77
f 516/545/77 517/253/77 519/257/77
f 517/540/78 518/253/78 519/541/78
f 519/541/78 518/253/78 520/257/78
f 520/542/79 515/253/79 519/543/79
f 519/543/79 515/253/79 516/544/79
f 518/542/80 513/253/80 520/545/80
f 520/545/80 513/253/80 515/257/80
f 521/546/81 522/547/81 523/548/81
f 523/548/81 522/547/81 524/549/81
f 525/550/82 522/547/82 526/551/82
f 526/551/82 522/547/82 521/552/82
f 522/550/83 525/547/83 524/553/83
f 524/553/83 525/547/83 527/549/83
f 525/546/84 526/547/84 527/548/84
f 527/548/84 526/547/84 528/549/84
f 528/550/85 523/547/85 527/551/85
f 527/551/85 523/547/85 524/552/85
f 526/550/86 521/547/86 528/553/86
f 528/553/86 521/547/86 523/549/86
usemtl c_80bbdb
f 529/554/81 530/555/81 531/556/81
f 531/556/81 530/555/81 532/557/81
f 533/558/82 530/555/82 534/559/82
f 534/559/82 530/555/82 529/560/82
f 530/558/83 533/555/83 532/561/83
f 532/561/83 533/555/83 535/557/83
f 533/554/84 534/555/84 535/556/84
f 535/556/84 534/555/84 536/557/84
f 536/558/85 531/555/85 535/559/85
f 535/559/85 531/555/85 532/560/85
f 534/558/86 529/555/86 536/561/86
f 536/561/86 529/555/86 531/557/86
f 537/562/75 538/563/75 539/564/75
f 539/564/75 538/563/75 540/565/75
f 541/566/76 538/563/76 542/567/76
f 542/567/76 538/563/76 537/568/76
f 538/566/77 541/563/77 540/569/77
f 540/569/77 541/563/77 543/565/77
f 541/562/78 542/563/78 543/564/78
f 543/564/78 542/563/78 544/565/78
f 544/566/79 539/563/79 543/567/79
f 543/567/79 539/563/79 540/568/79
f 542/566/80 537/563/80 544/569/80
f 544/569/80 537/563/80 539/565/80
o UpperTorso
usemtl c_8c5b9f
f 545/570/1 546/571/1 547/572/1
f 547/572/1 546/571/1 548/573/1
f 549/570/2 546/571/2 550/574/2
f 550/574/2 546/571/2 545/575/2
f 546/570/3 549/571/3 548/572/3
f 548/572/3 549/571/3 551/573/3
f 549/570/4 550/571/4 551/572/4
f 551/572/4 550/571/4 552/573/4
f 552/570/5 547/571/5 551/574/5
f 551/574/5 547/571/5 548/575/5
f 550/570/6 545/571/6 552/572/6
f 552/572/6 545/571/6 547/573/6
f 553/576/1 554/577/1 555/578/1
f 555/578/1 554/577/1 556/579/1
f 557/580/2 554/577/2 558/581/2
f 558/581/2 554/577/2 553/582/2
f 554/580/3 557/577/3 556/583/3
f 556/583/3 557/577/3 559/579/3
f 557/576/4 558/577/4 559/578/4
f 559/578/4 558/577/4 560/579/4
f 560/580/5 555/577/5 559/581/5
f 559/581/5 555/577/5 556/582/5
f 558/580/6 553/577/6 560/583/6
f 560/583/6 553/577/6 555/579/6
f 561/178/1 562/584/1 563/585/1
f 563/585/1 562/584/1 546/586/1
f 564/587/2 562/584/2 565/389/2
f 565/389/2 562/584/2 561/588/2
f 562/587/3 564/584/3 546/589/3
f 546/589/3 564/584/3 549/586/3
f 564/178/4 565/584/4 549/585/4
f 549/585/4 565/584/4 566/586/4
f 566/587/5 563/584/5 549/389/5
f 549/389/5 563/584/5 546/588/5
f 565/587/6 561/584/6 566/589/6
f 566/589/6 561/584/6 563/586/6
f 567/590/1 395/396/1 568/591/1
f 568/591/1 395/396/1 569/592/1
f 399/74/2 395/396/2 570/593/2
f 570/593/2 395/396/2 567/594/2
f 395/74/3 399/396/3 569/595/3
f 569/595/3 399/396/3 571/592/3
f 399/590/4 570/396/4 571/591/4
f 571/591/4 570/396/4 572/592/4
f 572/74/5 568/396/5 571/593/5
f 571/593/5 568/396/5 569/594/5
f 570/74/6 567/396/6 572/595/6
f 572/595/6 567/396/6 568/592/6
f 573/596/1 574/597/1 545/598/1
f 545/598/1 574/597/1 575/599/1
f 576/600/2 574/597/2 577/601/2
f 577/601/2 574/597/2 573/602/2
f 574/600/3 576/597/3 575/603/3
f 575/603/3 576/597/3 578/599/3
f 576/596/4 577/597/4 578/598/4
f 578/598/4 577/597/4 550/599/4
f 550/600/5 545/597/5 578/601/5
f 578/601/5 545/597/5 575/602/5
f 577/600/6 573/597/6 550/603/6
f 550/603/6 573/597/6 545/599/6
f 579/486/1 580/604/1 581/491/1
f 581/491/1 580/604/1 582/605/1
f 583/606/2 580/604/2 584/607/2
f 584/607/2 580/604/2 579/608/2
f 580/606/3 583/604/3 582/609/3
f 582/609/3 583/604/3 585/605/3
f 583/486/4 584/604/4 585/491/4
f 585/491/4 584/604/4 586/605/4
f 586/606/5 581/604/5 585/607/5
f 585/607/5 581/604/5 582/608/5
f 584/606/6 579/604/6 586/609/6
f 586/609/6 579/604/6 581/605/6
f 587/610/1 588/320/1 589/611/1
f 589/611/1 588/320/1 590/612/1
f 591/459/2 588/320/2 592/613/2
f 592/613/2 588/320/2 587/614/2
f 588/459/3 591/320/3 590/615/3
f 590/615/3 591/320/3 593/612/3
f 591/610/4 592/320/4 593/611/4
f 593/611/4 592/320/4 594/612/4
f 594/459/5 589/320/5 593/613/5
f 593/613/5 589/320/5 590/614/5
f 592/459/6 587/320/6 594/615/6
f 594/615/6 587/320/6 589/612/6
f 589/616/1 569/617/1 595/618/1
f 595/618/1 569/617/1 596/619/1
f 571/620/2 569/617/2 594/621/2
f 594/621/2 569/617/2 589/622/2
f 569/620/3 571/617/3 596/623/3
f 596/623/3 571/617/3 597/619/3
f 571/616/4 594/617/4 597/618/4
f 597/618/4 594/617/4 598/619/4
f 598/620/5 595/617/5 597/621/5
f 597/621/5 595/617/5 596/622/5
f 594/620/6 589/617/6 598/623/6
f 598/623/6 589/617/6 595/619/6
usemtl c_6225d1
f 599/624/1 600/625/1 64/626/1
f 64/626/1 600/625/1 601/627/1
f 602/628/2 600/625/2 603/629/2
f 603/629/2 600/625/2 599/630/2
f 600/628/3 602/625/3 601/631/3
f 601/631/3 602/625/3 604/627/3
f 602/624/4 603/625/4 604/626/4
f 604/626/4 603/625/4 67/627/4
f 67/628/5 64/625/5 604/629/5
f 604/629/5 64/625/5 601/630/5
f 603/628/6 599/625/6 67/631/6
f 67/631/6 599/625/6 64/627/6
f 580/632/1 567/196/1 582/633/1
f 582/633/1 567/196/1 568/634/1
f 570/635/2 567/196/2 583/636/2
f 583/636/2 567/196/2 580/634/2
f 567/635/3 570/196/3 568/636/3
f 568/636/3 570/196/3 572/634/3
f 570/632/4 583/196/4 572/633/4
f 572/633/4 583/196/4 585/634/4
f 585/635/5 582/196/5 572/636/5
f 572/636/5 582/196/5 568/634/5
f 583/635/6 580/196/6 585/636/6
f 585/636/6 580/196/6 582/634/6
f 588/637/1 579/246/1 590/638/1
f 590/638/1 579/246/1 581/639/1
f 584/640/2 579/246/2 591/641/2
f 591/641/2 579/246/2 588/639/2
f 579/640/3 584/246/3 581/641/3
f 581/641/3 584/246/3 586/639/3
f 584/637/4 591/246/4 586/638/4
f 586/638/4 591/246/4 593/639/4
f 593/640/5 590/246/5 586/641/5
f 586/641/5 590/246/5 581/639/5
f 591/640/6 588/246/6 593/641/6
f 593/641/6 588/246/6 590/639/6
f 574/642/1 553/643/1 575/644/1
f 575/644/1 553/643/1 555/645/1
f 558/646/2 553/643/2 576/647/2
f 576/647/2 553/643/2 574/648/2
f 553/646/3 558/643/3 555/158/3
f 555/158/3 558/643/3 560/645/3
f 558/642/4 576/643/4 560/644/4
f 560/644/4 576/643/4 578/645/4
f 578/646/5 575/643/5 560/647/5
f 560/647/5 575/643/5 555/648/5
f 576/646/6 574/643/6 578/158/6
f 578/158/6 574/643/6 575/645/6
f 554/649/1 561/650/1 556/651/1
f 556/651/1 561/650/1 563/652/1
f 565/653/2 561/650/2 557/654/2
f 557/654/2 561/650/2 554/655/2
f 561/653/3 565/650/3 563/656/3
f 563/656/3 565/650/3 566/652/3
f 565/649/4 557/650/4 566/651/4
f 566/651/4 557/650/4 559/652/4
f 559/653/5 556/650/5 566/654/5
f 566/654/5 556/650/5 563/655/5
f 557/653/6 554/650/6 559/656/6
f 559/656/6 554/650/6 556/652/6
usemtl c_80bbdb
f 605/657/1 606/175/1 607/658/1
f 607/658/1 606/175/1 608/659/1
f 609/174/2 606/175/2 610/660/2
f 610/660/2 606/175/2 605/661/2
f 606/174/3 609/175/3 608/662/3
f 608/662/3 609/175/3 611/659/3
f 609/657/4 610/175/4 611/658/4
f 611/658/4 610/175/4 612/659/4
f 612/174/5 607/175/5 611/660/5
f 611/660/5 607/175/5 608/661/5
f 610/174/6 605/175/6 612/662/6
f 612/662/6 605/175/6 607/659/6
f 613/663/1 614/370/1 615/619/1
f 615/619/1 614/370/1 616/375/1
f 617/225/2 614/370/2 618/664/2
f 618/664/2 614/370/2 613/665/2
f 614/225/3 617/370/3 616/666/3
f 616/666/3 617/370/3 619/375/3
f 617/663/4 618/370/4 619/619/4
f 619/619/4 618/370/4 620/375/4
f 620/225/5 615/370/5 619/664/5
f 619/664/5 615/370/5 616/665/5
f 618/225/6 613/370/6 620/666/6
f 620/666/6 613/370/6 615/375/6
