# Roblox asset pack: tycoon_conveyor (map). Exported from Roblox Studio with Export Selection, then split/renamed/re-centred by tools/process_export.py. Units: studs (1 stud = 1 unit). +Y up. Pivot (bottom_centre) at the origin.
mtllib tycoon_conveyor.mtl

v 1.50000 1.00000 -8.00000
v 1.50000 1.00000 8.00000
v 1.50000 0.40000 -8.00000
v 1.50000 0.40000 8.00000
v -1.50000 1.00000 8.00000
v -1.50000 1.00000 -8.00000
v -1.50000 0.40000 8.00000
v -1.50000 0.40000 -8.00000
v 1.50000 1.00500 8.00000
v 1.50000 1.00500 -8.00000
v -1.50000 1.00500 -8.00000
v -1.50000 1.00500 8.00000
v -1.50000 1.30000 -8.00000
v -1.50000 1.30000 8.00000
v -1.80000 1.30000 8.00000
v -1.80000 1.30000 -8.00000
v -1.80000 0.40000 8.00000
v -1.80000 0.40000 -8.00000
v -1.00000 0.40000 -6.20000
v -1.00000 0.40000 -5.80000
v -1.00000 0.00000 -6.20000
v -1.00000 0.00000 -5.80000
v -1.40000 0.40000 -5.80000
v -1.40000 0.40000 -6.20000
v -1.40000 0.00000 -5.80000
v -1.40000 0.00000 -6.20000
v -1.00000 0.40000 -0.20000
v -1.00000 0.40000 0.20000
v -1.00000 0.00000 -0.20000
v -1.00000 0.00000 0.20000
v -1.40000 0.40000 0.20000
v -1.40000 0.40000 -0.20000
v -1.40000 0.00000 0.20000
v -1.40000 0.00000 -0.20000
v -1.00000 0.40000 5.80000
v -1.00000 0.40000 6.20000
v -1.00000 0.00000 5.80000
v -1.00000 0.00000 6.20000
v -1.40000 0.40000 6.20000
v -1.40000 0.40000 5.80000
v -1.40000 0.00000 6.20000
v -1.40000 0.00000 5.80000
v 1.80000 1.30000 -8.00000
v 1.80000 1.30000 8.00000
v 1.80000 0.40000 -8.00000
v 1.80000 0.40000 8.00000
v 1.50000 1.30000 8.00000
v 1.50000 1.30000 -8.00000
v 1.40000 0.40000 -6.20000
v 1.40000 0.40000 -5.80000
v 1.40000 0.00000 -6.20000
v 1.40000 0.00000 -5.80000
v 1.00000 0.40000 -5.80000
v 1.00000 0.40000 -6.20000
v 1.00000 0.00000 -5.80000
v 1.00000 0.00000 -6.20000
v 1.40000 0.40000 -0.20000
v 1.40000 0.40000 0.20000
v 1.40000 0.00000 -0.20000
v 1.40000 0.00000 0.20000
v 1.00000 0.40000 0.20000
v 1.00000 0.40000 -0.20000
v 1.00000 0.00000 0.20000
v 1.00000 0.00000 -0.20000
v 1.40000 0.40000 5.80000
v 1.40000 0.40000 6.20000
v 1.40000 0.00000 5.80000
v 1.40000 0.00000 6.20000
v 1.00000 0.40000 6.20000
v 1.00000 0.40000 5.80000
v 1.00000 0.00000 6.20000
v 1.00000 0.00000 5.80000
vt 4.00000 -4.25000
vt 2.00000 -4.25000
vt 4.00000 -4.32500
vt 2.00000 -4.32500
vt 2.37500 -4.25000
vt 2.37500 -6.25000
vt 2.00000 -6.25000
vt 2.37500 -4.32500
vt 0.00000 5.33333
vt 0.00000 0.00000
vt 1.00000 0.00000
vt 1.00000 5.33333
vt 5.00000 -6.75000
vt 3.00000 -6.75000
vt 5.00000 -6.86250
vt 3.00000 -6.86250
vt 3.03750 -6.75000
vt 3.03750 -8.75000
vt 3.00000 -8.75000
vt 3.03750 -6.86250
vt 0.09576 1.03286
vt 0.04576 1.03286
vt 0.09576 0.98286
vt 0.04576 0.98286
vt 0.04324 0.99603
vt -0.00675 0.99603
vt 0.04324 0.94603
vt -0.00675 0.94603
vt 0.09910 0.95536
vt 0.04910 0.95536
vt 0.09910 0.90536
vt 0.04910 0.90536
vt 7.00000 -5.75000
vt 5.00000 -5.75000
vt 7.00000 -5.86250
vt 5.00000 -5.86250
vt 5.03750 -5.75000
vt 5.03750 -7.75000
vt 5.00000 -7.75000
vt 5.03750 -5.86250
vt 0.09387 1.06702
vt 0.04387 1.06702
vt 0.09387 1.01702
vt 0.04387 1.01702
vt 0.10324 1.06772
vt 0.05324 1.06772
vt 0.10324 1.01772
vt 0.05324 1.01772
vt 0.00520 0.96893
vt -0.04480 0.96893
vt 0.00520 0.91893
vt -0.04480 0.91893
vn 1.0000 0.0000 0.0000
vn 0.0000 1.0000 0.0000
vn 0.0000 0.0000 1.0000
vn -1.0000 0.0000 0.0000
vn 0.0000 -1.0000 0.0000
vn 0.0000 0.0000 -1.0000

o Belt
usemtl belt
f 1/1/1 2/2/1 3/3/1
f 3/3/1 2/2/1 4/4/1
f 5/5/2 2/2/2 6/6/2
f 6/6/2 2/2/2 1/7/2
f 2/5/3 5/2/3 4/8/3
f 4/8/3 5/2/3 7/4/3
f 5/1/4 6/2/4 7/3/4
f 7/3/4 6/2/4 8/4/4
f 8/5/5 3/2/5 7/6/5
f 7/6/5 3/2/5 4/7/5
f 6/5/6 1/2/6 8/8/6
f 8/8/6 1/2/6 3/4/6
o Belt_Arrows
usemtl belt_arrows
f 9/9/2 10/10/2 11/11/2
f 12/12/2 9/9/2 11/11/2
o RailL
usemtl raill
f 13/13/1 14/14/1 8/15/1
f 8/15/1 14/14/1 7/16/1
f 15/17/2 14/14/2 16/18/2
f 16/18/2 14/14/2 13/19/2
f 14/17/3 15/14/3 7/20/3
f 7/20/3 15/14/3 17/16/3
f 15/13/4 16/14/4 17/15/4
f 17/15/4 16/14/4 18/16/4
f 18/17/5 8/14/5 17/18/5
f 17/18/5 8/14/5 7/19/5
f 16/17/6 13/14/6 18/20/6
f 18/20/6 13/14/6 8/16/6
o LegFrontL
usemtl legfrontl
f 19/21/1 20/22/1 21/23/1
f 21/23/1 20/22/1 22/24/1
f 23/21/2 20/22/2 24/23/2
f 24/23/2 20/22/2 19/24/2
f 20/21/3 23/22/3 22/23/3
f 22/23/3 23/22/3 25/24/3
f 23/21/4 24/22/4 25/23/4
f 25/23/4 24/22/4 26/24/4
f 26/21/5 21/22/5 25/23/5
f 25/23/5 21/22/5 22/24/5
f 24/21/6 19/22/6 26/23/6
f 26/23/6 19/22/6 21/24/6
o LegMidL
usemtl legmidl
f 27/25/1 28/26/1 29/27/1
f 29/27/1 28/26/1 30/28/1
f 31/25/2 28/26/2 32/27/2
f 32/27/2 28/26/2 27/28/2
f 28/25/3 31/26/3 30/27/3
f 30/27/3 31/26/3 33/28/3
f 31/25/4 32/26/4 33/27/4
f 33/27/4 32/26/4 34/28/4
f 34/25/5 29/26/5 33/27/5
f 33/27/5 29/26/5 30/28/5
f 32/25/6 27/26/6 34/27/6
f 34/27/6 27/26/6 29/28/6
o LegBackL
usemtl legbackl
f 35/29/1 36/30/1 37/31/1
f 37/31/1 36/30/1 38/32/1
f 39/29/2 36/30/2 40/31/2
f 40/31/2 36/30/2 35/32/2
f 36/29/3 39/30/3 38/31/3
f 38/31/3 39/30/3 41/32/3
f 39/29/4 40/30/4 41/31/4
f 41/31/4 40/30/4 42/32/4
f 42/29/5 37/30/5 41/31/5
f 41/31/5 37/30/5 38/32/5
f 40/29/6 35/30/6 42/31/6
f 42/31/6 35/30/6 37/32/6
o RailR
usemtl railr
f 43/33/1 44/34/1 45/35/1
f 45/35/1 44/34/1 46/36/1
f 47/37/2 44/34/2 48/38/2
f 48/38/2 44/34/2 43/39/2
f 44/37/3 47/34/3 46/40/3
f 46/40/3 47/34/3 4/36/3
f 47/33/4 48/34/4 4/35/4
f 4/35/4 48/34/4 3/36/4
f 3/37/5 45/34/5 4/38/5
f 4/38/5 45/34/5 46/39/5
f 48/37/6 43/34/6 3/40/6
f 3/40/6 43/34/6 45/36/6
o LegFrontR
usemtl legfrontr
f 49/41/1 50/42/1 51/43/1
f 51/43/1 50/42/1 52/44/1
f 53/41/2 50/42/2 54/43/2
f 54/43/2 50/42/2 49/44/2
f 50/41/3 53/42/3 52/43/3
f 52/43/3 53/42/3 55/44/3
f 53/41/4 54/42/4 55/43/4
f 55/43/4 54/42/4 56/44/4
f 56/41/5 51/42/5 55/43/5
f 55/43/5 51/42/5 52/44/5
f 54/41/6 49/42/6 56/43/6
f 56/43/6 49/42/6 51/44/6
o LegMidR
usemtl legmidr
f 57/45/1 58/46/1 59/47/1
f 59/47/1 58/46/1 60/48/1
f 61/45/2 58/46/2 62/47/2
f 62/47/2 58/46/2 57/48/2
f 58/45/3 61/46/3 60/47/3
f 60/47/3 61/46/3 63/48/3
f 61/45/4 62/46/4 63/47/4
f 63/47/4 62/46/4 64/48/4
f 64/45/5 59/46/5 63/47/5
f 63/47/5 59/46/5 60/48/5
f 62/45/6 57/46/6 64/47/6
f 64/47/6 57/46/6 59/48/6
o LegBackR
usemtl legbackr
f 65/49/1 66/50/1 67/51/1
f 67/51/1 66/50/1 68/52/1
f 69/49/2 66/50/2 70/51/2
f 70/51/2 66/50/2 65/52/2
f 66/49/3 69/50/3 68/51/3
f 68/51/3 69/50/3 71/52/3
f 69/49/4 70/50/4 71/51/4
f 71/51/4 70/50/4 72/52/4
f 72/49/5 67/50/5 71/51/5
f 71/51/5 67/50/5 68/52/5
f 70/49/6 65/50/6 72/51/6
f 72/51/6 65/50/6 67/52/6
