# Roblox asset pack: animal_mamoth (creatures), from the Studio model "Mamoth". Exported with Export Selection, split by tools/build_creatures.py: one object per rigid body. Units: studs. +Y up, front faces -Z, pivot (bottom centre) at the origin.
mtllib animal_mamoth.mtl

v 5.22210 2.49000 0.18000
v 5.42410 2.96000 -0.37000
v 5.42410 2.96000 0.37000
v 5.22210 2.49000 -0.18000
v 5.11540 2.26000 0.08000
v 5.11540 2.26000 -0.08000
v 5.11170 3.13000 0.09000
v 5.02190 3.30000 -0.10000
v 5.02190 3.30000 0.10000
v 5.11170 3.13000 -0.09000
v 4.93530 3.45000 -0.10000
v 4.93530 3.45000 0.10000
v 4.82410 3.65000 -0.11000
v 4.82410 3.65000 0.11000
v 4.21400 3.30000 1.93000
v 4.21400 3.30000 -1.93000
v 3.92510 5.49000 1.77000
v 3.92510 5.49000 -1.77000
v 4.05250 2.28000 1.61000
v 4.05250 2.28000 -1.61000
v 4.05250 4.39000 1.61000
v 4.05250 4.39000 -1.61000
v -5.26940 1.68000 1.96000
v -5.42410 2.85000 1.81000
v -5.37400 1.68000 1.67000
v -5.39840 2.85000 1.88000
v -5.42410 2.85000 -1.81000
v -5.26940 1.68000 -1.96000
v -5.37400 1.68000 -1.67000
v -5.39840 2.85000 -1.88000
v -3.87570 6.73000 1.28000
v -4.32980 6.53000 -1.81000
v -4.32980 6.53000 1.81000
v -3.87570 6.73000 -1.28000
v 3.76640 2.67000 2.13000
v 3.74150 4.22000 0.75000
v 3.74150 4.22000 2.21000
v 3.76640 2.67000 0.82000
v 3.76640 2.67000 -2.13000
v 3.74150 4.22000 -0.75000
v 3.76640 2.67000 -0.82000
v 3.74150 4.22000 -2.21000
v 3.60890 2.73000 1.94000
v 3.60970 3.30000 -1.94000
v 3.60970 3.30000 1.94000
v 3.60890 2.73000 -1.94000
v -3.69880 7.29000 1.07000
v -1.85520 7.29000 1.07000
v -1.85520 7.29000 -1.07000
v -3.69880 7.29000 -1.07000
v 3.06070 5.25000 1.61000
v 3.06070 5.25000 -1.61000
v 3.39590 0.53000 2.05000
v 3.39590 0.53000 0.91000
v 3.47240 2.35000 2.13000
v 3.47240 2.35000 0.82000
v 3.39590 0.53000 -0.91000
v 3.47240 2.35000 -2.13000
v 3.47240 2.35000 -0.82000
v 3.39590 0.53000 -2.05000
v 3.44770 0.05000 2.09000
v 3.44770 0.05000 1.52000
v 3.44770 0.53000 1.52000
v 3.44770 0.53000 2.09000
v 3.44770 0.05000 1.43000
v 3.44770 0.53000 1.43000
v 3.44770 0.05000 0.86000
v 3.44770 0.53000 0.86000
v 3.44770 0.53000 -1.43000
v 3.44770 0.05000 -0.86000
v 3.44770 0.05000 -1.43000
v 3.44770 0.53000 -0.86000
v 3.44770 0.53000 -1.52000
v 3.44770 0.05000 -1.52000
v 3.44770 0.05000 -2.09000
v 3.44770 0.53000 -2.09000
v 4.62150 3.81000 -0.13000
v 4.62150 3.81000 0.13000
v 4.41810 3.97000 -0.15000
v 4.41810 3.97000 0.15000
v -3.98250 5.74000 0.77000
v -4.64280 4.70000 -0.77000
v -4.64280 4.70000 0.77000
v -3.98250 5.74000 -0.77000
v -1.22420 6.53000 1.81000
v -1.67820 6.73000 1.28000
v -1.22420 6.53000 -1.81000
v -1.67820 6.73000 -1.28000
v -5.00800 3.20000 0.48000
v -5.07730 2.63000 -0.45000
v -5.07730 2.63000 0.45000
v -5.00800 3.20000 -0.48000
v -4.91390 3.81000 0.52000
v -4.91390 3.81000 -0.52000
v -4.84540 1.79000 0.40000
v -4.65790 1.17000 -0.36000
v -4.65790 1.17000 0.36000
v -4.84540 1.79000 -0.40000
v 4.06770 4.21000 -0.17000
v 4.06770 4.21000 0.17000
v -4.70540 0.53000 0.47000
v -4.65300 0.00000 -0.47000
v -4.65300 0.00000 0.47000
v -4.70540 0.53000 -0.47000
v -4.48610 4.60000 -0.58000
v -4.48610 4.60000 0.58000
v -4.58550 0.54000 0.35000
v -4.58550 0.54000 -0.35000
v -2.44530 4.59000 3.56000
v -2.91090 6.03000 3.15000
v -3.07040 4.66000 3.56000
v -2.28580 5.96000 3.15000
v -3.07040 4.66000 -3.56000
v -2.28580 5.96000 -3.15000
v -2.44530 4.59000 -3.56000
v -2.91090 6.03000 -3.15000
v -4.03860 6.35000 1.47000
v -1.51540 6.35000 1.47000
v -1.51540 6.35000 -1.47000
v -4.03860 6.35000 -1.47000
v -4.66180 1.19000 1.34000
v -4.51260 1.19000 1.76000
v -4.66180 1.19000 -1.34000
v -4.51260 1.19000 -1.76000
v -4.58080 4.03000 0.83000
v -4.03130 3.13000 1.91000
v -4.12350 4.03000 2.10000
v -4.38490 3.13000 0.92000
v -4.58080 4.03000 -0.83000
v -4.03130 3.13000 -1.91000
v -4.38490 3.13000 -0.92000
v -4.12350 4.03000 -2.10000
v 2.44210 2.42000 -1.97000
v 2.44830 3.27000 1.97000
v 2.44210 2.42000 1.97000
v 2.44830 3.27000 -1.97000
v -2.89220 6.19000 2.00000
v -2.26710 6.12000 2.00000
v -2.89220 6.19000 -2.00000
v -2.26710 6.12000 -2.00000
v -3.90840 2.23000 1.65000
v -4.18230 3.47000 1.02000
v -4.12380 2.23000 1.05000
v -3.93580 3.47000 1.70000
v -4.18230 3.47000 -1.02000
v -3.90840 2.23000 -1.65000
v -4.12380 2.23000 -1.05000
v -3.93580 3.47000 -1.70000
v -3.99730 0.41000 0.22000
v -3.96330 0.07000 -0.22000
v -3.96330 0.07000 0.22000
v -3.99730 0.41000 -0.22000
v -4.21930 5.12000 1.31000
v -4.21930 5.63000 0.90000
v -4.21930 5.12000 0.90000
v -4.21930 5.63000 1.31000
v -4.21930 5.63000 -0.90000
v -4.21930 5.12000 -1.31000
v -4.21930 5.12000 -0.90000
v -4.21930 5.63000 -1.31000
v -4.04240 1.90000 1.67000
v -4.28090 1.66000 1.15000
v -4.09310 1.66000 1.67000
v -4.24340 1.90000 1.11000
v -4.04240 1.90000 -1.67000
v -4.28090 1.66000 -1.15000
v -4.24340 1.90000 -1.11000
v -4.09310 1.66000 -1.67000
v -4.18160 5.80000 0.83000
v -4.18160 5.05000 1.42000
v -4.18160 5.80000 1.42000
v -4.18160 5.05000 0.83000
v -4.18160 5.80000 -0.83000
v -4.18160 5.05000 -1.42000
v -4.18160 5.05000 -0.83000
v -4.18160 5.80000 -1.42000
v -4.03860 3.50000 -1.87000
v -4.03860 3.50000 1.87000
v 1.34390 4.89000 1.61000
v 1.17690 5.01000 -1.79000
v 1.17690 5.01000 1.79000
v 1.34390 4.89000 -1.61000
v -4.00110 5.80000 1.42000
v -4.00110 5.80000 0.83000
v -4.00110 5.80000 -0.83000
v -4.00110 5.80000 -1.42000
v 1.52680 1.85000 1.79000
v 1.65850 2.04000 1.61000
v 1.65850 2.04000 -1.61000
v 1.52680 1.85000 -1.79000
v 1.86140 2.66000 -2.00000
v 1.86500 3.26000 2.01000
v 1.86140 2.66000 2.00000
v 1.86500 3.26000 -2.01000
v 1.24890 5.56000 1.89000
v 1.24890 5.56000 -1.89000
v 0.67000 5.58000 1.92000
v 0.67000 5.58000 -1.92000
v 1.80470 5.54000 1.85000
v 1.80470 5.54000 -1.85000
v -1.84970 5.64000 2.02000
v -1.84970 5.64000 -2.02000
v -2.49370 5.65000 2.03000
v -2.49370 5.65000 -2.03000
v 0.06660 5.60000 1.95000
v 0.06660 5.60000 -1.95000
v 2.34160 5.52000 1.82000
v 2.34160 5.52000 -1.82000
v -4.09730 5.63000 0.90000
v -4.09730 5.63000 1.31000
v -0.55890 5.62000 1.98000
v -0.55890 5.62000 -1.98000
v -1.20070 5.63000 2.01000
v -1.20070 5.63000 -2.01000
v -4.09730 5.63000 -0.90000
v -4.09730 5.63000 -1.31000
v -2.26840 0.05000 2.29000
v -2.26840 0.05000 1.72000
v -2.02800 0.05000 1.72000
v -2.02800 0.05000 2.29000
v -0.80140 0.05000 2.29000
v -0.80140 0.05000 1.72000
v -2.02800 0.05000 1.63000
v -0.80140 0.05000 1.63000
v -0.80140 0.05000 1.06000
v -2.02800 0.05000 1.06000
v -2.26840 0.05000 1.63000
v -2.26840 0.05000 1.06000
v 1.98080 0.05000 1.52000
v 2.22110 0.05000 2.09000
v 1.98080 0.05000 2.09000
v 2.22110 0.05000 1.52000
v 2.22110 0.05000 1.43000
v 2.22110 0.05000 0.86000
v 1.98080 0.05000 0.86000
v 1.98080 0.05000 1.43000
v 2.86720 5.50000 1.80000
v 2.86720 5.50000 -1.80000
v -2.26840 0.05000 -1.63000
v -2.02800 0.05000 -1.06000
v -2.26840 0.05000 -1.06000
v -2.02800 0.05000 -1.63000
v -0.80140 0.05000 -1.06000
v -0.80140 0.05000 -1.63000
v -2.02800 0.05000 -1.72000
v -0.80140 0.05000 -1.72000
v -2.02800 0.05000 -2.29000
v -0.80140 0.05000 -2.29000
v -2.26840 0.05000 -2.29000
v -2.26840 0.05000 -1.72000
v 2.22110 0.05000 -1.43000
v 1.98080 0.05000 -0.86000
v 1.98080 0.05000 -1.43000
v 2.22110 0.05000 -0.86000
v 2.22110 0.05000 -1.52000
v 2.22110 0.05000 -2.09000
v 1.98080 0.05000 -2.09000
v 1.98080 0.05000 -1.52000
v 3.39110 5.49000 1.78000
v 3.39110 5.49000 -1.78000
v 2.07100 4.64000 0.75000
v 2.07100 4.64000 2.21000
v 2.07100 4.64000 -0.75000
v 2.07100 4.64000 -2.21000
v -3.71230 0.09000 0.47000
v -4.40210 0.02000 0.22000
v -4.40210 0.02000 -0.22000
v -3.71230 0.09000 -0.47000
v -2.49960 5.42000 1.79000
v -2.49960 5.42000 -1.79000
v -0.77680 2.35000 2.33000
v -1.99400 0.53000 2.24000
v -0.85330 0.53000 2.24000
v -2.08980 2.35000 2.33000
v -0.77680 2.35000 -2.33000
v -1.99400 0.53000 -2.24000
v -2.08980 2.35000 -2.33000
v -0.85330 0.53000 -2.24000
v -2.17810 3.88000 2.41000
v -2.08980 2.67000 2.33000
v -0.48280 2.67000 2.33000
v -0.50770 4.22000 2.41000
v -2.17810 3.88000 -2.41000
v -0.48280 2.67000 -2.33000
v -2.08980 2.67000 -2.33000
v -0.50770 4.22000 -2.41000
v -3.08360 4.55000 1.44000
v -3.17060 3.81000 2.97000
v -3.13660 4.10000 2.87000
v -3.10440 4.37000 1.18000
v -3.06560 4.71000 3.29000
v -2.93680 5.81000 2.95000
v -2.92210 5.94000 2.05000
v -2.95880 5.62000 1.47000
v -2.94140 5.77000 1.23000
v -2.94140 5.77000 -1.23000
v -3.08360 4.55000 -1.44000
v -3.10440 4.37000 -1.18000
v -2.95880 5.62000 -1.47000
v -2.92210 5.94000 -2.05000
v -2.93680 5.81000 -2.95000
v -3.06560 4.71000 -3.29000
v -3.17060 3.81000 -2.97000
v -3.13660 4.10000 -2.87000
v -2.26840 0.53000 2.29000
v -2.02800 0.53000 2.29000
v -0.80140 0.53000 2.29000
v -2.26840 0.53000 -2.29000
v -2.02800 0.53000 -2.29000
v -0.80140 0.53000 -2.29000
v -2.82850 3.14000 2.22000
v -2.12130 3.14000 2.21000
v -2.12130 3.14000 -2.21000
v -2.82850 3.14000 -2.22000
v 0.63660 3.21000 2.09000
v 1.26370 3.23000 2.05000
v 1.26370 3.23000 -2.05000
v 0.63660 3.21000 -2.09000
v -2.82130 2.60000 2.22000
v -2.11610 2.60000 2.21000
v -1.40760 3.15000 2.19000
v -0.01960 3.19000 2.13000
v -2.82130 2.60000 -2.22000
v -2.11610 2.60000 -2.21000
v -1.40760 3.15000 -2.19000
v -0.01960 3.19000 -2.13000
v -0.70320 3.17000 2.16000
v -0.70320 3.17000 -2.16000
v 1.26030 2.62000 2.04000
v -0.02020 2.66000 -2.12000
v 0.63480 2.69000 -2.08000
v 1.26030 2.62000 -2.04000
v -1.40460 2.62000 2.19000
v 0.63480 2.69000 2.08000
v -0.02020 2.66000 2.12000
v -1.40460 2.62000 -2.19000
v -0.70310 2.93000 2.16000
v -1.40700 2.91000 2.19000
v -0.70310 2.93000 -2.16000
v -1.40700 2.91000 -2.19000
v 1.85810 2.39000 2.00000
v 3.02500 3.29000 1.95000
v 1.85810 2.39000 -2.00000
v 3.02500 3.29000 -1.95000
v 2.25510 0.53000 2.05000
v 1.90940 2.35000 2.13000
v 2.25510 0.53000 -2.05000
v 1.90940 2.35000 -2.13000
v 1.90940 2.67000 2.13000
v 1.90940 2.67000 -2.13000
v -4.43610 0.37000 0.22000
v -4.43610 0.37000 -0.22000
v 1.98080 0.53000 2.09000
v 2.22110 0.53000 2.09000
v 1.98080 0.53000 -2.09000
v 2.22110 0.53000 -2.09000
v -4.13670 5.93000 -1.61000
v -4.13670 5.93000 1.61000
v -2.54550 3.73000 2.97000
v -2.54550 3.73000 -2.97000
v 3.02280 2.72000 1.95000
v 3.02280 2.72000 -1.95000
v -2.78850 4.67000 3.29000
v -2.80650 4.52000 1.44000
v -2.85950 4.06000 2.87000
v -2.64490 5.91000 2.05000
v -2.68170 5.59000 1.47000
v -2.65970 5.78000 2.95000
v -2.78850 4.67000 -3.29000
v -2.80650 4.52000 -1.44000
v -2.64490 5.91000 -2.05000
v -2.68170 5.59000 -1.47000
v -2.85950 4.06000 -2.87000
v -2.65970 5.78000 -2.95000
v -1.51540 3.50000 1.87000
v -1.51540 3.50000 -1.87000
v -4.21300 1.17000 1.68000
v -4.38010 1.17000 1.22000
v -4.21300 1.17000 -1.68000
v -4.38010 1.17000 -1.22000
v -1.13560 1.58000 1.79000
v -2.49960 2.63000 1.79000
v -1.13560 1.58000 -1.79000
v -2.49960 2.63000 -1.79000
v -2.31630 5.70000 1.23000
v -2.31630 5.70000 -1.23000
v -2.26840 0.53000 1.63000
v -2.02800 0.53000 1.63000
v -2.26840 0.53000 -1.63000
v -2.02800 0.53000 -1.63000
v 1.98080 0.53000 1.43000
v 2.22110 0.53000 1.43000
v 1.98080 0.53000 -1.43000
v 2.22110 0.53000 -1.43000
v -4.00110 5.05000 -1.42000
v -4.00110 5.05000 1.42000
v -3.98650 1.20000 1.04000
v -3.79870 1.20000 1.56000
v -3.98650 1.20000 -1.04000
v -3.79870 1.20000 -1.56000
v -2.26840 0.53000 1.72000
v -2.26840 0.53000 1.06000
v -2.26840 0.53000 -1.06000
v -2.26840 0.53000 -1.72000
v -4.09730 5.12000 1.31000
v -4.09730 5.12000 -1.31000
v -2.17810 3.88000 0.94000
v -0.50770 4.22000 0.94000
v -2.17810 3.88000 -0.94000
v -0.50770 4.22000 -0.94000
v -2.85220 4.03000 1.65000
v -3.30940 4.03000 0.37000
v -2.85220 4.03000 -1.65000
v -3.30940 4.03000 -0.37000
v -1.99400 0.53000 1.10000
v -2.08980 2.35000 1.02000
v -1.99400 0.53000 -1.10000
v -2.08980 2.35000 -1.02000
v -2.08980 2.67000 1.02000
v -2.08980 2.67000 -1.02000
v -2.02800 0.53000 1.72000
v -2.02800 0.53000 -1.72000
v -2.69060 4.92000 0.77000
v -2.69060 4.92000 -0.77000
v -5.35380 2.87000 1.79000
v -5.32810 2.87000 1.86000
v -5.35380 2.87000 -1.79000
v -5.32810 2.87000 -1.86000
v -4.42360 1.62000 1.73000
v -4.87520 1.82000 1.84000
v -5.03330 1.87000 1.88000
v -4.23950 1.66000 1.69000
v -4.23950 1.66000 -1.69000
v -4.42360 1.62000 -1.73000
v -4.87520 1.82000 -1.84000
v -5.03330 1.87000 -1.88000
v -3.35090 3.88000 0.77000
v -3.35090 3.88000 -0.77000
v -3.04800 3.13000 1.55000
v -3.04800 3.13000 -1.55000
v -3.32350 2.10000 1.44000
v -3.25070 3.47000 1.46000
v -3.32350 2.10000 -1.44000
v -3.25070 3.47000 -1.46000
v -3.94100 3.41000 0.52000
v -3.50750 3.98000 0.58000
v -3.94100 3.41000 -0.52000
v -3.50750 3.98000 -0.58000
v -4.05890 3.00000 0.48000
v -4.05890 3.00000 -0.48000
v 4.03500 3.86000 0.17000
v 4.25410 3.72000 0.15000
v -1.41730 5.93000 -1.61000
v 4.25410 3.72000 -0.15000
v 4.03500 3.86000 -0.17000
v -1.41730 5.93000 1.61000
v -4.18070 2.64000 -0.45000
v -4.18070 2.64000 0.45000
v -3.76470 0.62000 0.47000
v -0.48280 2.67000 1.02000
v -3.76470 0.62000 -0.47000
v -0.48280 2.67000 -1.02000
v -0.77680 2.35000 1.02000
v -0.77680 2.35000 -1.02000
v 4.48020 3.60000 0.13000
v 4.48020 3.60000 -0.13000
v -4.06040 1.98000 0.40000
v -4.06040 1.98000 -0.40000
v -3.94050 1.29000 0.36000
v 4.66640 3.50000 0.11000
v -3.94050 1.29000 -0.36000
v 4.66640 3.50000 -0.11000
v 4.69450 2.90000 0.37000
v 4.86500 2.50000 0.18000
v 4.69450 2.90000 -0.37000
v 4.86500 2.50000 -0.18000
v -3.88450 0.61000 0.35000
v -3.88450 0.61000 -0.35000
v 4.95510 2.27000 0.08000
v 4.95510 2.27000 -0.08000
v -4.99280 1.82000 1.51000
v -5.13800 1.87000 1.59000
v -4.57280 1.62000 1.31000
v -4.40660 1.66000 1.22000
v -4.57280 1.62000 -1.31000
v -4.99280 1.82000 -1.51000
v -5.13800 1.87000 -1.59000
v -4.40660 1.66000 -1.22000
v -3.40170 3.13000 0.57000
v -3.40170 3.13000 -0.57000
v -0.85330 0.53000 1.10000
v -0.85330 0.53000 -1.10000
v 4.75900 3.35000 0.10000
v 4.75900 3.35000 -0.10000
v 4.85490 3.20000 0.10000
v 4.85490 3.20000 -0.10000
v 4.94030 3.07000 -0.09000
v 4.94030 3.07000 0.09000
v -0.80140 0.53000 1.72000
v -0.80140 0.53000 1.63000
v -0.80140 0.53000 1.06000
v -0.80140 0.53000 -1.63000
v -0.80140 0.53000 -1.06000
v -0.80140 0.53000 -1.72000
v -3.53900 2.10000 0.84000
v -3.49710 3.47000 0.77000
v -3.53900 2.10000 -0.84000
v -3.49710 3.47000 -0.77000
v 2.25510 0.53000 0.91000
v 1.90940 2.35000 0.82000
v 2.25510 0.53000 -0.91000
v 1.90940 2.35000 -0.82000
v 1.90940 2.67000 0.82000
v 1.90940 2.67000 -0.82000
v -4.00110 5.05000 0.83000
v -4.00110 5.05000 -0.83000
v 1.98080 0.53000 0.86000
v 2.22110 0.53000 0.86000
v 2.22110 0.53000 -0.86000
v 1.98080 0.53000 -0.86000
v -4.09730 5.12000 0.90000
v -4.09730 5.12000 -0.90000
v -2.02800 0.53000 1.06000
v -2.02800 0.53000 -1.06000
v -2.47930 4.30000 1.18000
v -2.47930 4.30000 -1.18000
v 1.98080 0.53000 1.52000
v 2.22110 0.53000 1.52000
v 2.22110 0.53000 -1.52000
v 1.98080 0.53000 -1.52000
vt 0.67321 0.96578
vt 0.69416 0.94358
vt 0.69415 0.97342
vt 0.67321 0.95121
vt 0.66302 0.96176
vt 0.66302 0.95522
vt 0.87485 0.48167
vt 0.88255 0.48930
vt 0.87463 0.48930
vt 0.88233 0.48167
vt 0.88277 0.49660
vt 0.87441 0.49660
vt 0.88302 0.50573
vt 0.87416 0.50573
vt 0.46946 0.80559
vt 0.46947 0.64788
vt 0.55946 0.79877
vt 0.55947 0.65471
vt 0.00293 0.69043
vt 0.00293 0.55929
vt 0.08894 0.69043
vt 0.08894 0.55929
vt 0.98104 0.40038
vt 0.97319 0.44817
vt 0.96844 0.40038
vt 0.97628 0.44817
vt 1.97319 0.44817
vt 1.98105 0.40038
vt 1.96844 0.40038
vt 1.97628 0.44817
vt 0.44019 0.67121
vt 0.46007 0.54365
vt 0.46008 0.69375
vt 0.44026 0.56630
vt 0.85962 0.83192
vt 0.91624 0.89521
vt 0.85658 0.89523
vt 0.91316 0.83191
vt 1.85962 0.83192
vt 1.91624 0.89521
vt 1.91316 0.83191
vt 1.85658 0.89523
vt 0.44960 0.97665
vt 0.47254 0.81882
vt 0.47254 0.97666
vt 0.44960 0.81883
vt 0.07810 0.52648
vt 0.00293 0.52648
vt 0.00293 0.43890
vt 0.07810 0.43890
vt 0.14244 0.69043
vt 0.14244 0.55929
vt 0.86311 0.73991
vt 0.90962 0.73989
vt 0.85962 0.81439
vt 0.91315 0.81437
vt 1.90962 0.73989
vt 1.85962 0.81439
vt 1.91315 0.81437
vt 1.86311 0.73991
vt 0.21634 0.98762
vt 0.21634 0.96455
vt 0.23601 0.96455
vt 0.23601 0.98762
vt 0.21634 0.96069
vt 0.23601 0.96069
vt 0.21634 0.93762
vt 0.23601 0.93762
vt 1.23601 0.96069
vt 1.21634 0.93762
vt 1.21634 0.96069
vt 1.23601 0.93762
vt 1.23601 0.96455
vt 1.21634 0.96455
vt 1.21634 0.98762
vt 1.23601 0.98762
vt 0.88378 0.51628
vt 0.87340 0.51628
vt 0.88461 0.52684
vt 0.87257 0.52684
vt 0.79986 0.37596
vt 0.73746 0.32574
vt 0.79986 0.32574
vt 0.73746 0.37596
vt 0.33050 0.69376
vt 0.35031 0.67111
vt 0.33049 0.54366
vt 0.35038 0.56620
vt 0.78842 0.25635
vt 0.75038 0.23316
vt 0.78694 0.23316
vt 0.74890 0.25635
vt 0.79006 0.28149
vt 0.74726 0.28149
vt 0.78510 0.19765
vt 0.75384 0.17104
vt 0.78348 0.17104
vt 0.75223 0.19765
vt 0.88572 0.54419
vt 0.87147 0.54419
vt 0.30759 0.94394
vt 0.28583 0.98248
vt 0.28582 0.94394
vt 0.30759 0.98247
vt 0.74503 0.31818
vt 0.79230 0.31818
vt 0.78150 0.95966
vt 0.75732 0.86367
vt 0.78150 0.87208
vt 0.75732 0.96806
vt 0.78302 0.14536
vt 0.75430 0.14536
vt 0.31561 0.26552
vt 0.34126 0.20689
vt 0.34127 0.26552
vt 0.31560 0.20690
vt 1.34127 0.26552
vt 1.31560 0.20690
vt 1.31561 0.26552
vt 1.34126 0.20689
vt 0.10580 0.81402
vt 0.00293 0.81402
vt 0.00293 0.69415
vt 0.10580 0.69415
vt 0.96576 0.36260
vt 0.98374 0.36261
vt 1.96576 0.36260
vt 1.98373 0.36261
vt 0.91356 0.95401
vt 0.87643 0.90516
vt 0.91357 0.89893
vt 0.87643 0.94777
vt 1.91356 0.95401
vt 1.87643 0.90516
vt 1.87643 0.94777
vt 1.91357 0.89893
vt 0.91613 0.58439
vt 0.95085 0.74523
vt 0.91613 0.74509
vt 0.95085 0.58425
vt 0.95584 0.96896
vt 0.98150 0.92187
vt 0.98150 0.96896
vt 0.95584 0.92187
vt 1.98150 0.92187
vt 1.95584 0.96896
vt 1.98150 0.96896
vt 1.95584 0.92187
vt 0.03074 0.90848
vt 0.00293 0.95903
vt 0.00479 0.90848
vt 0.03262 0.95902
vt 1.00293 0.95903
vt 1.03074 0.90848
vt 1.00479 0.90848
vt 1.03262 0.95902
vt 0.87072 0.16199
vt 0.85658 0.17997
vt 0.85658 0.16199
vt 0.87072 0.17997
vt 0.18311 0.24856
vt 0.16671 0.26933
vt 0.16671 0.24856
vt 0.18311 0.26933
vt 1.16671 0.26933
vt 1.18311 0.24856
vt 1.16671 0.24856
vt 1.18311 0.26933
vt 0.02987 0.89401
vt 0.00645 0.88386
vt 0.02907 0.88386
vt 0.00566 0.89401
vt 1.02987 0.89401
vt 1.00645 0.88386
vt 1.00566 0.89401
vt 1.02907 0.88386
vt 0.63820 0.27833
vt 0.66246 0.24760
vt 0.66246 0.27833
vt 0.63820 0.24760
vt 1.63820 0.27833
vt 1.66246 0.24760
vt 1.63820 0.24760
vt 1.66246 0.27833
vt 0.08730 0.44938
vt 0.10182 0.43072
vt 0.10182 0.43821
vt 0.08730 0.41954
vt 0.30800 0.56739
vt 0.19153 0.70367
vt 0.19153 0.55098
vt 0.30800 0.68726
vt 0.55336 0.46841
vt 0.41486 0.45988
vt 0.56071 0.45989
vt 0.42222 0.46840
vt 0.92110 0.23078
vt 0.92846 0.20652
vt 0.92846 0.23078
vt 0.92110 0.20652
vt 1.92846 0.23078
vt 1.92846 0.20652
vt 1.92110 0.20652
vt 1.92110 0.23078
vt 0.19199 0.15294
vt 0.32110 0.16806
vt 0.31276 0.17677
vt 0.19666 0.16317
vt 0.47570 0.18467
vt 0.35480 0.20783
vt 0.34650 0.19907
vt 0.47097 0.19488
vt 0.50916 0.80670
vt 0.53362 0.97029
vt 0.50916 0.97020
vt 0.53362 0.80660
vt 0.16248 0.15558
vt 0.00863 0.15558
vt 0.16387 0.13196
vt 0.00724 0.13196
vt 0.16112 0.17826
vt 0.00999 0.17826
vt 0.16795 0.02920
vt 0.00316 0.02920
vt 0.16818 0.00294
vt 0.00293 0.00294
vt 0.16519 0.10734
vt 0.00592 0.10735
vt 0.15986 0.20016
vt 0.01125 0.20016
vt 0.31561 0.00294
vt 0.31561 0.01933
vt 0.31064 0.00294
vt 0.31064 0.01933
vt 0.16637 0.08183
vt 0.00474 0.08184
vt 0.16732 0.05566
vt 0.00379 0.05566
vt 1.31064 0.00294
vt 1.31561 0.01933
vt 1.31561 0.00294
vt 1.31064 0.01933
vt 0.66302 0.88005
vt 0.68609 0.88005
vt 0.68609 0.88985
vt 0.66302 0.88985
vt 0.66302 0.93986
vt 0.68609 0.93986
vt 0.68995 0.88985
vt 0.68995 0.93986
vt 0.71303 0.93986
vt 0.71303 0.88985
vt 0.68995 0.88005
vt 0.71303 0.88005
vt 0.82010 0.87058
vt 0.79702 0.88038
vt 0.79702 0.87058
vt 0.82010 0.88038
vt 0.82010 0.93039
vt 0.79702 0.93039
vt 0.82395 0.93039
vt 0.82395 0.88038
vt 0.84703 0.93039
vt 0.84703 0.88038
vt 0.84703 0.87058
vt 0.82395 0.87058
vt 0.15880 0.22160
vt 0.01231 0.22160
vt 1.68995 0.88005
vt 1.71303 0.88985
vt 1.71303 0.88005
vt 1.68995 0.88985
vt 1.71303 0.93986
vt 1.68995 0.93986
vt 1.68609 0.88985
vt 1.68609 0.93986
vt 1.66302 0.88985
vt 1.66302 0.93986
vt 1.66302 0.88005
vt 1.68609 0.88005
vt 1.82395 0.88038
vt 1.84703 0.87058
vt 1.82395 0.87058
vt 1.84703 0.88038
vt 1.82395 0.93039
vt 1.84703 0.93039
vt 1.82009 0.93039
vt 1.82009 0.88038
vt 1.79702 0.93039
vt 1.79702 0.88038
vt 1.79702 0.87058
vt 1.82009 0.87058
vt 0.15801 0.24296
vt 0.01310 0.24297
vt 0.15759 0.26474
vt 0.01353 0.26474
vt 0.49428 0.17112
vt 0.63277 0.18068
vt 0.50163 0.18069
vt 0.64012 0.17112
vt 0.35035 0.96952
vt 0.35034 0.89436
vt 0.37491 0.88714
vt 0.37492 0.97673
vt 0.06225 0.96623
vt 0.03767 0.88385
vt 0.06224 0.89106
vt 0.03768 0.97345
vt 0.72257 0.37968
vt 0.78224 0.37968
vt 0.72257 0.44993
vt 0.78224 0.44993
vt 1.72257 0.37968
vt 1.72257 0.44993
vt 1.78224 0.37968
vt 1.78224 0.44993
vt 0.84169 0.20473
vt 0.88023 0.20474
vt 0.86995 0.21502
vt 0.86995 0.23299
vt 0.85197 0.21501
vt 0.88023 0.24328
vt 0.84169 0.24327
vt 0.85197 0.23299
vt 0.56072 0.30911
vt 0.41488 0.30910
vt 0.12439 0.77011
vt 0.17529 0.84375
vt 0.12878 0.84455
vt 0.17792 0.76920
vt 1.12439 0.77011
vt 1.17529 0.84375
vt 1.17792 0.76920
vt 1.12878 0.84455
vt 0.18045 0.70681
vt 0.17770 0.75640
vt 0.11219 0.75752
vt 0.11212 0.69414
vt 1.18045 0.70681
vt 1.11219 0.75752
vt 1.17770 0.75640
vt 1.11212 0.69414
vt 0.82739 0.20261
vt 0.89361 0.18100
vt 0.88784 0.19227
vt 0.81814 0.19391
vt 0.91236 0.21926
vt 0.90114 0.21940
vt 0.88144 0.26243
vt 0.88795 0.27256
vt 0.84086 0.27257
vt 0.84422 0.26243
vt 0.82262 0.24632
vt 0.81191 0.25098
vt 1.81191 0.25098
vt 1.82739 0.20261
vt 1.81814 0.19391
vt 1.82262 0.24632
vt 1.84086 0.27257
vt 1.84423 0.26243
vt 1.88144 0.26243
vt 1.88795 0.27256
vt 1.91236 0.21926
vt 1.90114 0.21940
vt 1.89361 0.18100
vt 1.88784 0.19227
vt 0.32057 0.88715
vt 0.34024 0.88715
vt 0.34024 0.89695
vt 0.32057 0.89695
vt 0.32057 0.94696
vt 0.34024 0.94696
vt 1.32057 0.88715
vt 1.34024 0.89695
vt 1.34024 0.88715
vt 1.32057 0.89695
vt 1.32057 0.94696
vt 1.34024 0.94696
vt 0.22627 0.29001
vt 0.32883 0.27545
vt 0.32890 0.30428
vt 0.22663 0.31627
vt 0.21996 0.27941
vt 0.11789 0.29728
vt 0.11694 0.26846
vt 0.22052 0.30566
vt 0.22977 0.41907
vt 0.32663 0.41686
vt 0.32580 0.44249
vt 0.23074 0.44271
vt 0.23168 0.46541
vt 0.32502 0.46706
vt 0.22100 0.40851
vt 0.12586 0.43529
vt 0.12413 0.40971
vt 0.22087 0.43217
vt 0.22072 0.45488
vt 0.12750 0.45982
vt 0.35086 0.27557
vt 0.35085 0.30433
vt 0.32864 0.33339
vt 0.22721 0.34274
vt 0.22882 0.39444
vt 0.32743 0.39006
vt 0.09494 0.26935
vt 0.09595 0.29808
vt 0.11918 0.32636
vt 0.22088 0.33213
vt 0.22108 0.38386
vt 0.12238 0.38295
vt 0.32812 0.36214
vt 0.22796 0.36892
vt 0.23256 0.48733
vt 0.32437 0.49088
vt 0.22105 0.35832
vt 0.12070 0.35508
vt 0.22061 0.47682
vt 0.12899 0.48360
vt 0.34948 0.46681
vt 0.35070 0.44225
vt 0.10092 0.38359
vt 0.10306 0.41029
vt 0.93078 0.24601
vt 0.93077 0.27091
vt 0.90623 0.24747
vt 0.90621 0.27192
vt 0.35041 0.33336
vt 0.34770 0.41670
vt 0.34890 0.38994
vt 0.31560 0.95068
vt 0.33756 0.95082
vt 0.31579 0.97971
vt 0.33756 0.97993
vt 0.64302 0.03167
vt 0.63324 0.00315
vt 0.64316 0.00294
vt 0.63324 0.03190
vt 0.11092 0.35537
vt 0.10926 0.32668
vt 0.33546 0.37183
vt 0.35927 0.33804
vt 0.35930 0.37328
vt 0.33546 0.33711
vt 0.23334 0.50878
vt 0.32394 0.51442
vt 0.09226 0.46062
vt 0.09428 0.48441
vt 0.22060 0.49829
vt 0.13025 0.50711
vt 0.01880 0.35692
vt 0.06225 0.43518
vt 0.01589 0.43142
vt 0.08232 0.36207
vt 1.01881 0.35692
vt 1.06225 0.43518
vt 1.08232 0.36207
vt 1.01589 0.43142
vt 0.08335 0.34931
vt 0.00789 0.34319
vt 1.08335 0.34931
vt 1.00789 0.34319
vt 1.01402 0.28011
vt 1.08330 0.26845
vt 0.01402 0.28011
vt 0.08330 0.26845
vt 0.92915 0.18482
vt 0.91117 0.20279
vt 0.91117 0.18482
vt 0.92915 0.20280
vt 0.23396 0.53015
vt 0.32380 0.53826
vt 0.22073 0.51967
vt 0.13123 0.53094
vt 0.96576 0.45189
vt 0.98544 0.45189
vt 0.98544 0.46169
vt 0.96576 0.46169
vt 0.96576 0.51170
vt 0.98544 0.51170
vt 1.96576 0.45189
vt 1.98544 0.46169
vt 1.98544 0.45189
vt 1.96576 0.46169
vt 1.96576 0.51170
vt 1.98544 0.51170
vt 0.89696 0.58419
vt 0.87147 0.72351
vt 0.87147 0.59240
vt 0.89695 0.73172
vt 0.28584 0.86365
vt 0.31150 0.82104
vt 0.31150 0.86365
vt 0.28584 0.82104
vt 1.31150 0.82104
vt 1.28584 0.86365
vt 1.31149 0.86365
vt 1.28584 0.82104
vt 0.34673 0.53807
vt 0.34701 0.51416
vt 0.10718 0.50767
vt 0.10830 0.53155
vt 0.43383 0.59714
vt 0.36008 0.58035
vt 0.42053 0.57000
vt 0.37692 0.64016
vt 0.35531 0.62405
vt 0.41413 0.64016
vt 1.43383 0.59714
vt 1.36008 0.58035
vt 1.37691 0.64016
vt 1.35531 0.62405
vt 1.42053 0.57000
vt 1.41413 0.64016
vt 0.23438 0.55193
vt 0.32397 0.56290
vt 0.22107 0.54144
vt 0.13192 0.55557
vt 0.46314 0.69748
vt 0.46316 0.81510
vt 0.36029 0.81511
vt 0.36027 0.69749
vt 0.35396 0.69968
vt 0.25110 0.81732
vt 0.25108 0.69970
vt 0.35397 0.81730
vt 0.68908 0.47795
vt 0.58578 0.65109
vt 0.58579 0.47005
vt 0.68907 0.64320
vt 0.56376 0.65090
vt 0.56377 0.47023
vt 0.40042 0.94914
vt 0.38137 0.96175
vt 0.38245 0.94914
vt 0.40150 0.96176
vt 1.40042 0.94914
vt 1.38137 0.96175
vt 1.40150 0.96176
vt 1.38245 0.94914
vt 0.77222 0.06427
vt 0.78358 0.00294
vt 0.78360 0.06427
vt 0.77220 0.00294
vt 1.78358 0.00294
vt 1.77222 0.06427
vt 1.78360 0.06427
vt 1.77220 0.00294
vt 0.33276 0.05958
vt 0.29022 0.00369
vt 0.17664 0.00294
vt 0.33546 0.09053
vt 0.37831 0.03488
vt 0.49189 0.03476
vt 0.98150 0.88575
vt 0.95584 0.88576
vt 1.98150 0.88575
vt 1.95584 0.88576
vt 0.49415 0.00294
vt 0.49415 0.02261
vt 0.48435 0.02261
vt 0.48435 0.00294
vt 1.49415 0.00294
vt 1.48435 0.02261
vt 1.49415 0.02261
vt 1.48435 0.00294
vt 0.21627 0.27374
vt 0.30228 0.27431
vt 0.18150 0.23307
vt 0.45074 0.30533
vt 0.36473 0.30542
vt 0.48574 0.26486
vt 0.95584 0.71199
vt 0.97691 0.88203
vt 0.95584 0.88193
vt 0.97691 0.71188
vt 0.71457 0.46633
vt 0.56872 0.35275
vt 0.71457 0.35275
vt 0.56872 0.46633
vt 0.55335 0.53993
vt 0.42221 0.53992
vt 0.64800 0.18375
vt 0.64800 0.20342
vt 0.63820 0.20342
vt 0.63820 0.18375
vt 1.64800 0.18375
vt 1.63820 0.20342
vt 1.64800 0.20342
vt 1.63820 0.18375
vt 1.17903 0.10403
vt 1.17167 0.13476
vt 1.17903 0.13476
vt 1.17167 0.10403
vt 0.17903 0.10403
vt 0.17903 0.13476
vt 0.17167 0.13476
vt 0.17167 0.10403
vt 0.98562 0.16585
vt 0.99699 0.12188
vt 0.99699 0.16585
vt 0.98562 0.12188
vt 1.99699 0.12188
vt 1.98562 0.16585
vt 1.99699 0.16585
vt 1.98562 0.12188
vt 0.40274 0.97931
vt 0.38012 0.97931
vt 1.40274 0.97931
vt 1.38012 0.97931
vt 0.87129 0.27629
vt 0.85161 0.29937
vt 0.85161 0.27629
vt 0.87129 0.29937
vt 0.04742 0.53021
vt 0.02774 0.55328
vt 0.02774 0.53021
vt 0.04742 0.55328
vt 1.04742 0.55328
vt 1.04742 0.53021
vt 1.02775 0.55328
vt 1.02775 0.53021
vt 1.87129 0.27629
vt 1.85161 0.27629
vt 1.85161 0.29937
vt 1.87129 0.29937
vt 0.17665 0.07510
vt 0.17167 0.09587
vt 0.17167 0.07510
vt 0.17665 0.09587
vt 1.17665 0.07510
vt 1.17167 0.09587
vt 1.17665 0.09587
vt 1.17167 0.07510
vt 0.78213 0.79736
vt 0.84179 0.79736
vt 0.78213 0.86686
vt 0.84179 0.86686
vt 1.78213 0.79736
vt 1.84179 0.86686
vt 1.84179 0.79736
vt 1.78213 0.86686
vt 0.64012 0.06202
vt 0.49427 0.06203
vt 0.56872 0.00295
vt 0.62382 0.05802
vt 0.56873 0.05804
vt 0.62380 0.00294
vt 1.56872 0.00295
vt 1.62382 0.05802
vt 1.62380 0.00294
vt 1.56873 0.05804
vt 0.92806 0.35080
vt 0.87802 0.27629
vt 0.92454 0.27628
vt 0.87452 0.35080
vt 1.87802 0.27629
vt 1.92805 0.35080
vt 1.92454 0.27628
vt 1.87452 0.35080
vt 0.93113 0.41318
vt 0.87452 0.36361
vt 0.92806 0.36360
vt 0.87147 0.41318
vt 1.87147 0.41318
vt 1.92806 0.36360
vt 1.87452 0.36361
vt 1.93113 0.41318
vt 0.71457 0.28251
vt 0.56872 0.28250
vt 0.63820 0.22682
vt 0.63820 0.20714
vt 0.64206 0.20714
vt 0.64206 0.22682
vt 1.63820 0.22682
vt 1.64206 0.20714
vt 1.63820 0.20714
vt 1.64206 0.22682
vt 0.50163 0.27878
vt 0.63278 0.27878
vt 0.06533 0.88014
vt 0.00293 0.88014
vt 0.00294 0.81774
vt 0.06534 0.81775
vt 0.30071 0.00603
vt 0.30380 0.00294
vt 0.30380 0.00603
vt 0.30071 0.00294
vt 1.30380 0.00294
vt 1.30071 0.00603
vt 1.30380 0.00603
vt 1.30071 0.00294
vt 0.51785 0.61966
vt 0.52145 0.63727
vt 0.50881 0.63779
vt 0.53693 0.61164
vt 0.55368 0.61738
vt 0.54357 0.60984
vt 0.51021 0.61772
vt 0.50418 0.61767
vt 0.49127 0.63625
vt 1.50881 0.63779
vt 1.50418 0.61767
vt 1.49127 0.63625
vt 1.51021 0.61772
vt 1.51785 0.61966
vt 1.52145 0.63727
vt 1.53693 0.61164
vt 1.55368 0.61738
vt 1.54357 0.60984
vt 0.37079 0.88342
vt 0.32057 0.82103
vt 0.37078 0.82102
vt 0.32058 0.88343
vt 0.56163 0.00294
vt 0.49924 0.05316
vt 0.49924 0.00295
vt 0.56164 0.05315
vt 0.24116 0.92147
vt 0.27830 0.92772
vt 0.27829 0.97032
vt 0.24116 0.97656
vt 1.24116 0.92147
vt 1.27829 0.97032
vt 1.27830 0.92772
vt 1.24116 0.97656
vt 0.47155 0.59964
vt 0.50234 0.60766
vt 0.49693 0.59422
vt 0.46946 0.54365
vt 0.49914 0.54368
vt 1.47155 0.59964
vt 1.50234 0.60766
vt 1.49693 0.59422
vt 1.46946 0.54365
vt 1.49914 0.54368
vt 0.50323 0.80791
vt 0.47940 0.96991
vt 0.47938 0.80921
vt 0.50324 0.97120
vt 0.82264 0.67459
vt 0.84886 0.62822
vt 0.86352 0.66192
vt 0.80695 0.65008
vt 0.22907 0.87038
vt 0.20156 0.82477
vt 0.24279 0.83629
vt 0.18656 0.84971
vt 0.55852 0.56960
vt 0.55548 0.56902
vt 0.86526 0.68706
vt 0.82602 0.69181
vt 1.55852 0.56960
vt 1.55548 0.56902
vt 0.24382 0.81111
vt 0.20447 0.80746
vt 0.72074 0.27029
vt 0.71182 0.25671
vt 0.72908 0.25873
vt 0.71023 0.26865
vt 0.40572 0.81882
vt 0.40571 0.94543
vt 0.38013 0.82669
vt 0.38012 0.93756
vt 0.87255 0.46071
vt 0.88448 0.45913
vt 0.88612 0.46963
vt 0.87457 0.47797
vt 0.44046 0.82669
vt 0.41486 0.94543
vt 0.41487 0.81882
vt 0.44045 0.93756
vt 0.20779 0.79240
vt 0.24406 0.78788
vt 0.82976 0.70678
vt 0.86615 0.71028
vt 0.47852 0.02470
vt 0.43968 0.00348
vt 0.47821 0.00294
vt 0.43999 0.02524
vt 0.85962 0.09497
vt 0.91316 0.09495
vt 0.85658 0.15827
vt 0.91624 0.15825
vt 0.56872 0.93818
vt 0.59291 0.84220
vt 0.59290 0.92978
vt 0.56872 0.83379
vt 0.44159 0.98768
vt 0.41983 0.94914
vt 0.44159 0.94914
vt 0.41983 0.98768
vt 1.91316 0.09495
vt 1.85658 0.15827
vt 1.91624 0.15825
vt 1.85962 0.09497
vt 0.85962 0.07743
vt 0.91315 0.07742
vt 1.91315 0.07742
vt 1.85962 0.07743
vt 0.69987 0.26643
vt 0.70124 0.25615
vt 0.88227 0.44877
vt 0.87199 0.45013
vt 0.97568 0.18008
vt 0.96576 0.35885
vt 0.96576 0.18011
vt 0.97568 0.35888
vt 0.85387 0.74364
vt 0.82260 0.73353
vt 0.23086 0.75487
vt 0.19988 0.76585
vt 0.84412 0.76846
vt 0.81537 0.76121
vt 0.69148 0.26445
vt 0.69067 0.25562
vt 0.22042 0.73033
vt 0.19188 0.73839
vt 0.88029 0.44037
vt 0.87147 0.43956
vt 0.82700 0.28903
vt 0.80695 0.26894
vt 0.82545 0.27454
vt 0.80695 0.29878
vt 0.79986 0.26334
vt 0.79230 0.27091
vt 0.74503 0.27091
vt 0.73746 0.26334
vt 0.41309 0.51982
vt 0.40553 0.46498
vt 0.41309 0.47255
vt 0.40552 0.52738
vt 0.10217 0.52572
vt 0.08212 0.54581
vt 0.08367 0.53132
vt 0.10217 0.55556
vt 0.81081 0.78846
vt 0.83906 0.79364
vt 0.18656 0.71127
vt 0.21465 0.70530
vt 0.32711 0.00294
vt 0.32057 0.00948
vt 0.32057 0.00294
vt 0.32711 0.00948
vt 0.56349 0.96977
vt 0.53894 0.80474
vt 0.56348 0.80320
vt 0.53895 0.96824
vt 0.77212 0.80268
vt 0.75537 0.80841
vt 0.73992 0.78276
vt 0.76201 0.81021
vt 0.73630 0.80036
vt 0.72727 0.78222
vt 0.72865 0.80230
vt 0.72263 0.80234
vt 0.70974 0.78375
vt 1.73630 0.80036
vt 1.73992 0.78276
vt 1.72727 0.78222
vt 1.75537 0.80841
vt 1.77212 0.80268
vt 1.76201 0.81021
vt 1.72865 0.80230
vt 1.72263 0.80234
vt 1.70974 0.78375
vt 0.98065 0.18009
vt 0.99044 0.35645
vt 0.98065 0.35642
vt 0.99044 0.18006
vt 0.86890 0.93205
vt 0.86889 0.98714
vt 0.83177 0.93829
vt 0.83176 0.98089
vt 1.86890 0.93205
vt 1.83177 0.93829
vt 1.86889 0.98714
vt 1.83176 0.98089
vt 0.84983 0.00294
vt 0.82107 0.18332
vt 0.82107 0.00322
vt 0.84982 0.18360
vt 0.94783 0.74895
vt 0.92111 0.92051
vt 0.92110 0.75057
vt 0.94784 0.92212
vt 0.83670 0.28396
vt 0.83601 0.27745
vt 0.07241 0.54073
vt 0.07311 0.53423
vt 0.79206 0.00402
vt 0.79206 0.18252
vt 0.86311 0.00295
vt 0.90962 0.00294
vt 1.86311 0.00295
vt 1.90962 0.00294
vt 0.68203 0.25858
vt 0.68461 0.26653
vt 0.88237 0.43351
vt 0.87442 0.43092
vt 0.62736 0.81283
vt 0.60346 0.97118
vt 0.60346 0.81336
vt 0.62736 0.97171
vt 0.67516 0.26105
vt 0.67760 0.26857
vt 0.88442 0.42650
vt 0.87689 0.42405
vt 0.88613 0.42035
vt 0.87951 0.41687
vt 0.67146 0.27029
vt 0.66798 0.26366
vt 0.66302 0.87050
vt 0.66302 0.84742
vt 0.68269 0.84742
vt 0.68269 0.87050
vt 0.66302 0.84356
vt 0.68269 0.84356
vt 0.66302 0.82049
vt 0.68269 0.82049
vt 1.68269 0.84356
vt 1.66302 0.82049
vt 1.66302 0.84356
vt 1.68269 0.82049
vt 1.68269 0.84742
vt 1.66302 0.84742
vt 1.66302 0.87050
vt 1.68269 0.87050
vt 0.68998 0.82034
vt 0.72077 0.81235
vt 0.71535 0.82579
vt 0.68783 0.87633
vt 0.71752 0.87632
vt 1.72077 0.81235
vt 1.68998 0.82034
vt 1.71535 0.82579
vt 1.68783 0.87633
vt 1.71752 0.87632
vt 0.77692 0.85046
vt 0.77388 0.85104
vt 1.77692 0.85046
vt 1.77388 0.85104
vt 0.94981 0.18168
vt 0.92110 0.00414
vt 0.94981 0.00294
vt 0.92110 0.18047
vt 0.91539 0.17996
vt 0.90124 0.16198
vt 0.91539 0.16198
vt 0.90125 0.17996
vt 0.35343 0.03507
vt 0.35363 0.04921
vt 0.33546 0.03533
vt 0.33565 0.04947
vt 0.40376 0.02322
vt 0.39594 0.00418
vt 0.40376 0.00525
vt 0.39595 0.02430
vt 1.39595 0.00418
vt 1.40376 0.02322
vt 1.40376 0.00525
vt 1.39595 0.02430
vt 0.20931 0.93762
vt 0.16672 0.98022
vt 0.16671 0.93762
vt 0.20932 0.98022
vt 1.20931 0.93762
vt 1.16672 0.98022
vt 1.20932 0.98022
vt 1.16671 0.93762
vt 0.96158 0.35517
vt 0.93598 0.18669
vt 0.96157 0.18502
vt 0.93599 0.35351
vt 0.59660 0.65465
vt 0.56872 0.82955
vt 0.56872 0.65613
vt 0.59661 0.83103
vt 0.11579 0.97857
vt 0.09226 0.81860
vt 0.11578 0.81758
vt 0.09227 0.97755
vt 0.10894 0.44050
vt 0.11660 0.45504
vt 0.11660 0.41389
vt 0.10894 0.42843
vt 0.95584 0.70800
vt 0.97761 0.52936
vt 0.97761 0.70816
vt 0.95584 0.52951
vt 0.75218 0.97051
vt 0.72754 0.81273
vt 0.75218 0.81267
vt 0.72754 0.97045
vt 0.64813 0.15563
vt 0.64813 0.00293
vt 0.76460 0.13921
vt 0.76460 0.01935
vt 0.80063 0.62275
vt 0.69776 0.47005
vt 0.80063 0.47005
vt 0.69776 0.62275
vt 0.65779 0.65004
vt 0.61437 0.72832
vt 0.61143 0.65382
vt 0.67788 0.72315
vt 1.65779 0.65004
vt 1.61143 0.65382
vt 1.61437 0.72832
vt 1.67788 0.72315
vt 0.67892 0.73591
vt 0.60346 0.74206
vt 1.67892 0.73591
vt 1.60346 0.74206
vt 0.48435 0.21208
vt 0.49171 0.18135
vt 0.49171 0.21208
vt 0.48435 0.18135
vt 1.49171 0.21208
vt 1.49171 0.18135
vt 1.48435 0.21208
vt 1.48435 0.18135
vt 0.60961 0.80513
vt 0.67890 0.81677
vt 1.60961 0.80513
vt 1.67890 0.81677
vt 0.06745 0.88387
vt 0.08712 0.88387
vt 0.08712 0.89367
vt 0.06745 0.89367
vt 0.06745 0.94368
vt 0.08712 0.94368
vt 1.06745 0.88387
vt 1.08712 0.89367
vt 1.08712 0.88387
vt 1.06745 0.89367
vt 1.06745 0.94368
vt 1.08712 0.94368
vt 0.33546 0.14340
vt 0.33049 0.16417
vt 0.33049 0.14340
vt 0.33546 0.16417
vt 1.33049 0.14340
vt 1.33049 0.16417
vt 1.33547 0.14340
vt 1.33547 0.16417
vt 0.97730 0.00294
vt 0.95584 0.17623
vt 0.95584 0.00306
vt 0.97730 0.17636
vt 0.86014 0.30366
vt 0.80927 0.37732
vt 0.81363 0.30288
vt 0.86279 0.37822
vt 1.86013 0.30366
vt 1.81363 0.30288
vt 1.80927 0.37732
vt 1.86279 0.37822
vt 0.86535 0.44061
vt 0.79707 0.38992
vt 0.86258 0.39101
vt 0.79702 0.45329
vt 1.79707 0.38992
vt 1.86535 0.44061
vt 1.86258 0.39101
vt 1.79702 0.45329
vt 0.78709 0.93411
vt 0.80677 0.94391
vt 0.78709 0.94391
vt 0.80677 0.93411
vt 0.78709 0.99392
vt 0.80677 0.99392
vt 1.80677 0.94391
vt 1.78709 0.93411
vt 1.78709 0.94391
vt 1.80677 0.93411
vt 1.78709 0.99392
vt 1.80677 0.99392
vt 0.94676 0.92585
vt 0.94676 0.98326
vt 0.92110 0.92584
vt 0.92110 0.98326
vt 1.94676 0.98326
vt 1.94676 0.92585
vt 1.92110 0.92584
vt 1.92110 0.98326
vt 0.39005 0.02555
vt 0.39005 0.00293
vt 1.39005 0.00293
vt 1.39005 0.02555
vt 0.15679 0.56099
vt 0.18226 0.70031
vt 0.15678 0.69210
vt 0.18228 0.55278
vt 0.98570 0.06712
vt 0.99704 0.04015
vt 0.99707 0.06711
vt 0.98566 0.04017
vt 1.99704 0.04015
vt 1.98570 0.06712
vt 1.99707 0.06711
vt 1.98566 0.04017
vt 0.17651 0.18598
vt 0.17651 0.20565
vt 0.16671 0.20565
vt 0.16671 0.18598
vt 1.17651 0.18598
vt 1.16671 0.20565
vt 1.17651 0.20565
vt 1.16671 0.18598
vt 0.31148 0.94021
vt 0.28582 0.94021
vt 1.31148 0.94021
vt 1.28582 0.94021
vt 0.73175 0.24657
vt 0.70640 0.15235
vt 0.74466 0.17111
vt 0.65309 0.22385
vt 0.67468 0.25280
vt 0.65310 0.17676
vt 1.70640 0.15235
vt 1.65309 0.22385
vt 1.73175 0.24657
vt 1.67468 0.25280
vt 1.65310 0.17676
vt 1.74466 0.17111
vt 0.64304 0.03563
vt 0.64304 0.05530
vt 0.63324 0.05530
vt 0.63324 0.03563
vt 1.64304 0.03563
vt 1.63324 0.05530
vt 1.64304 0.05530
vt 1.63324 0.03563
vt 0.77223 0.09449
vt 0.78360 0.09449
vt 1.77223 0.09449
vt 1.78360 0.09449
vt 0.54274 0.58219
vt 0.50911 0.57728
vt 0.53783 0.57728
vt 0.50420 0.58220
vt 0.54274 0.54366
vt 0.53783 0.54856
vt 0.50911 0.54857
vt 0.50420 0.54366
vt 0.27724 0.82104
vt 0.25295 0.86259
vt 0.25461 0.82104
vt 0.27890 0.86259
vt 1.25295 0.86259
vt 1.27724 0.82104
vt 1.25461 0.82104
vt 1.27890 0.86259
vt 0.42437 0.00715
vt 0.43121 0.02054
vt 0.42437 0.02132
vt 0.43121 0.00793
vt 1.42437 0.00715
vt 1.43121 0.02054
vt 1.43121 0.00793
vt 1.42437 0.02132
vt 0.79942 0.21091
vt 0.79206 0.18665
vt 0.79942 0.18665
vt 0.79206 0.21091
vt 1.79942 0.21091
vt 1.79206 0.18665
vt 1.79206 0.21091
vt 1.79942 0.18665
vt 0.96089 0.35889
vt 0.93598 0.52560
vt 0.93598 0.35902
vt 0.96089 0.52572
vt 0.74740 0.16315
vt 0.74243 0.14676
vt 0.74740 0.14676
vt 0.74243 0.16315
vt 1.74740 0.16315
vt 1.74740 0.14676
vt 1.74243 0.14676
vt 1.74243 0.16315
vt 0.14898 0.84827
vt 0.17205 0.84827
vt 0.17205 0.85807
vt 0.14898 0.85807
vt 0.17205 0.90808
vt 0.14898 0.90808
vt 0.14512 0.90808
vt 0.14512 0.85807
vt 0.12204 0.90808
vt 0.12204 0.85807
vt 0.14512 0.84827
vt 0.12204 0.84827
vt 0.20853 0.87408
vt 0.23161 0.87408
vt 0.23161 0.88388
vt 0.20853 0.88388
vt 0.20853 0.93389
vt 0.23161 0.93389
vt 0.20468 0.93389
vt 0.20468 0.88388
vt 0.18160 0.93389
vt 0.18160 0.88388
vt 0.18160 0.87408
vt 0.20468 0.87408
vt 1.12204 0.85807
vt 1.14512 0.84827
vt 1.12204 0.84827
vt 1.14512 0.85807
vt 1.12204 0.90808
vt 1.14512 0.90808
vt 1.14898 0.85807
vt 1.14898 0.90808
vt 1.17205 0.85807
vt 1.17205 0.90808
vt 1.14898 0.84827
vt 1.17205 0.84827
vt 1.20468 0.88388
vt 1.18160 0.87408
vt 1.18160 0.88388
vt 1.20468 0.87408
vt 1.20468 0.93389
vt 1.18160 0.93389
vt 1.20853 0.88388
vt 1.20853 0.93389
vt 1.23161 0.93389
vt 1.23161 0.88388
vt 1.20853 0.87408
vt 1.23161 0.87408
vt 0.12204 0.96063
vt 0.12205 0.91803
vt 0.15918 0.96688
vt 0.15918 0.91179
vt 1.12205 0.91803
vt 1.15917 0.96688
vt 1.15918 0.91179
vt 1.12204 0.96063
vt 0.35531 0.52738
vt 0.35531 0.46498
vt 0.25108 0.91859
vt 0.28077 0.91859
vt 1.25108 0.91859
vt 1.28077 0.91859
vt 0.36250 0.42579
vt 0.40754 0.45481
vt 0.36027 0.45481
vt 0.40531 0.42580
vt 0.86356 0.53091
vt 0.81355 0.45516
vt 0.86006 0.45517
vt 0.81003 0.53090
vt 1.86356 0.53091
vt 1.81355 0.45516
vt 1.81003 0.53090
vt 1.86006 0.45517
vt 0.92656 0.41690
vt 0.89132 0.58039
vt 0.89132 0.41710
vt 0.92656 0.58059
vt 0.86356 0.54371
vt 0.81003 0.54370
vt 1.86356 0.54371
vt 1.81003 0.54370
vt 0.80695 0.62450
vt 0.86661 0.62451
vt 1.80695 0.62450
vt 1.86661 0.62451
vt 0.35016 0.47078
vt 0.33049 0.49385
vt 0.33049 0.47078
vt 0.35016 0.49385
vt 0.02260 0.53021
vt 0.00293 0.55328
vt 0.00293 0.53021
vt 0.02260 0.55328
vt 1.02260 0.53021
vt 1.00293 0.53021
vt 1.00293 0.55328
vt 1.02260 0.55328
vt 1.35016 0.47078
vt 1.33049 0.47078
vt 1.33049 0.49385
vt 1.35016 0.49385
vt 0.40219 0.39297
vt 0.36415 0.40832
vt 0.36563 0.39297
vt 0.40367 0.40832
vt 0.56872 0.98043
vt 0.59049 0.94190
vt 0.59048 0.98043
vt 0.56872 0.94189
vt 0.34291 0.02437
vt 0.34871 0.00293
vt 0.35778 0.03136
vt 0.34063 0.01724
vt 0.79870 0.77850
vt 0.68783 0.64739
vt 0.79870 0.64739
vt 0.68783 0.77850
vt 0.36955 0.30914
vt 0.39873 0.33677
vt 0.36909 0.33677
vt 0.39827 0.30915
vt 0.99699 0.00294
vt 0.98562 0.00295
vt 1.99699 0.00294
vt 1.98562 0.00295
vt 0.48435 0.17360
vt 0.48435 0.15393
vt 0.48821 0.15393
vt 0.48821 0.17360
vt 1.48435 0.17360
vt 1.48821 0.15393
vt 1.48435 0.15393
vt 1.48821 0.17360
vt 0.40034 0.36533
vt 0.36747 0.36533
vt 0.17362 0.17366
vt 0.18323 0.18226
vt 0.17437 0.18226
vt 0.18398 0.17366
vt 0.17278 0.16310
vt 0.18482 0.16310
vt 0.17167 0.15252
vt 0.18592 0.15252
vt 0.99699 0.07084
vt 0.99699 0.11816
vt 0.98562 0.07084
vt 0.98562 0.11816
vt 1.99699 0.11816
vt 1.99699 0.07084
vt 1.98562 0.07084
vt 1.98562 0.11816
vt 0.32057 0.19546
vt 0.33471 0.17748
vt 0.33471 0.19546
vt 0.32057 0.17748
vt 0.65632 0.81783
vt 0.63324 0.97675
vt 0.63324 0.81787
vt 0.65632 0.97679
vt 0.78481 0.09821
vt 0.78005 0.14046
vt 0.77220 0.09821
vt 0.77696 0.14046
vt 1.78005 0.14046
vt 1.78481 0.09821
vt 1.77220 0.09821
vt 1.77696 0.14046
vt 0.33689 0.02651
vt 0.33449 0.01897
vt 0.33001 0.02894
vt 0.32747 0.02098
vt 0.32326 0.03136
vt 0.32057 0.02292
vt 0.36795 0.00481
vt 0.37238 0.01869
vt 0.37888 0.00554
vt 0.38087 0.01177
vn 0.9213 -0.3937 0.0000
vn 0.9055 -0.4252 0.0000
vn 0.8740 0.4803 0.0000
vn 0.8661 0.4961 0.0000
vn 0.9921 0.1339 0.0000
vn 1.0000 0.0000 0.0000
vn -0.9370 -0.0787 0.3386
vn -0.9370 -0.0787 -0.3386
vn -0.4094 0.9134 0.0000
vn 1.0000 0.0157 0.0000
vn 0.0000 1.0000 0.0000
vn 0.6535 0.7559 0.0000
vn 1.0000 -0.0394 0.0000
vn 0.6220 0.7795 0.0000
vn 0.6220 0.7874 0.0000
vn -0.8425 0.5354 0.0000
vn 0.0000 0.9370 0.3543
vn 0.0000 0.9370 -0.3543
vn -0.9921 0.1181 0.0000
vn -0.9921 0.1496 0.0000
vn -0.9606 -0.2913 0.0000
vn -0.9606 -0.2677 0.0000
vn 0.5669 0.8268 0.0000
vn -0.9921 -0.0945 0.0000
vn -0.8819 0.4724 0.0000
vn -0.9528 0.2992 0.0000
vn -0.9921 -0.1181 0.0000
vn 0.0315 0.2835 0.9606
vn 0.0315 0.2835 -0.9606
vn 0.7323 -0.6850 0.0000
vn -0.5039 -0.8425 0.1811
vn -0.5039 -0.8425 -0.1811
vn -0.9291 -0.1654 0.3307
vn -0.9291 -0.1654 -0.3307
vn 1.0000 -0.0079 0.0000
vn 0.1181 0.9843 0.1417
vn 0.1181 0.9843 -0.1417
vn -0.9370 -0.0394 0.3386
vn -0.9370 -0.0394 -0.3386
vn 0.4094 0.9134 0.0000
vn -1.0000 0.0000 0.0000
vn -0.9213 0.1890 0.3307
vn -0.9213 0.1890 -0.3307
vn 0.4803 0.8740 0.0000
vn 0.5984 0.8032 0.0000
vn 0.7559 0.0866 0.6457
vn 0.7559 0.0866 -0.6457
vn -0.8740 0.3780 0.3150
vn -0.8740 0.3780 -0.3150
vn 0.0394 1.0000 0.0000
vn 0.0079 1.0000 0.0000
vn 0.0315 1.0000 0.0000
vn 0.0157 1.0000 0.0000
vn 0.0236 1.0000 0.0000
vn 0.0000 -1.0000 0.0000
vn 0.8268 -0.5591 0.0000
vn 0.0000 0.3386 0.9370
vn 0.0000 0.3386 -0.9370
vn 0.2441 0.9685 0.0000
vn 0.0945 -0.9921 0.0000
vn 0.1102 0.9921 0.0000
vn 0.0000 -0.0472 1.0000
vn 0.0000 -0.0472 -1.0000
vn 0.0079 -0.0551 1.0000
vn 0.0079 -0.0551 -1.0000
vn 0.0000 0.0000 1.0000
vn 0.0000 0.0000 -1.0000
vn 0.0079 0.0787 1.0000
vn 0.0079 0.0787 -1.0000
vn 0.0630 0.0709 0.9921
vn 0.0630 0.0709 -0.9921
vn 0.0079 -0.0079 1.0000
vn 0.0236 0.0709 1.0000
vn 0.0551 0.0709 0.9921
vn 0.0079 -0.0079 -1.0000
vn 0.0236 0.0709 -1.0000
vn 0.0551 0.0709 -0.9921
vn 0.0394 0.0709 1.0000
vn 0.0472 0.0709 1.0000
vn 0.0472 0.0709 -1.0000
vn 0.0394 0.0709 -1.0000
vn 0.0630 -0.0079 1.0000
vn 0.0630 -0.0079 -1.0000
vn 0.0315 -0.0079 1.0000
vn 0.0315 -0.0079 -1.0000
vn 0.0394 0.0000 1.0000
vn 0.0394 0.0000 -1.0000
vn 0.0551 -0.0079 1.0000
vn 0.0551 -0.0079 -1.0000
vn -0.0079 -0.0394 -1.0000
vn -0.0079 -0.0394 1.0000
vn 0.0315 0.0709 1.0000
vn 0.0315 0.0709 -1.0000
vn -0.9528 -0.3071 0.0000
vn -0.0630 -0.5591 0.8268
vn -0.0630 -0.5591 -0.8268
vn 0.0236 0.0000 1.0000
vn 0.0236 0.0000 -1.0000
vn 0.0000 0.1417 0.9921
vn 0.0000 0.1417 -0.9921
vn -0.9921 0.1339 0.0000
vn -1.0000 -0.0157 0.0000
vn -0.0551 -1.0000 0.0157
vn -0.0551 -1.0000 -0.0157
vn 0.1102 0.9449 0.3071
vn 0.1102 0.9449 -0.3071
vn 0.1024 0.8740 -0.4803
vn 0.1024 0.8740 0.4803
vn -0.2047 0.9764 0.0000
vn 0.0000 -0.0315 1.0000
vn 0.0000 -0.0315 -1.0000
vn 0.0709 -1.0000 -0.0236
vn 0.0709 -1.0000 0.0236
vn -0.1968 0.9764 0.0000
vn 0.1024 -0.9921 0.0000
vn -1.0000 -0.0551 0.0000
vn -1.0000 -0.0709 0.0000
vn -0.6142 -0.7953 0.0000
vn 0.5354 0.8425 0.0000
vn -0.1575 0.9843 0.0551
vn -0.1575 0.9843 -0.0551
vn 0.2520 0.0157 0.9685
vn 0.2520 0.0157 -0.9685
vn 0.3307 -0.1654 0.9291
vn 0.3307 -0.1654 -0.9291
vn 0.3307 -0.0394 0.9449
vn 0.3307 -0.0394 -0.9449
vn 0.0551 -1.0000 0.0000
vn -0.0315 -0.0630 1.0000
vn -0.0315 -0.0630 -1.0000
vn 0.2835 0.0945 0.9528
vn -0.0236 -0.0709 1.0000
vn 0.2835 0.0945 -0.9528
vn -0.0236 -0.0709 -1.0000
vn 0.0787 -0.0236 1.0000
vn 0.0000 -0.3228 -0.9449
vn 0.0787 -0.0236 -1.0000
vn 0.0000 -0.3228 0.9449
vn -0.0079 -0.0787 -1.0000
vn -0.0079 -0.0787 1.0000
vn 0.9528 0.2992 0.0000
vn 0.0630 -0.0472 1.0000
vn 0.0630 -0.0472 -1.0000
vn 0.0157 -0.3937 0.9213
vn -0.5354 -0.8425 0.0000
vn 0.0157 -0.3937 -0.9213
vn 0.0000 -0.0157 1.0000
vn 0.0000 -0.0157 -1.0000
vn -0.0394 -1.0000 0.0000
vn -0.4173 0.0079 -0.9055
vn -0.4173 0.0079 0.9055
vn -0.3307 -0.1654 -0.9291
vn -0.3307 -0.1654 0.9291
vn 0.0079 -1.0000 0.0000
vn 0.0472 -1.0000 0.0000
vn -0.0157 -0.3937 0.9213
vn -0.0157 -0.3937 -0.9213
vn 0.0236 -1.0000 0.0000
vn 0.0157 -0.0236 1.0000
vn 0.0157 -0.0236 -1.0000
vn 0.0157 -1.0000 0.0000
vn 0.0157 -0.0315 -1.0000
vn 0.0157 -0.0315 1.0000
vn -0.3465 -0.0394 -0.9370
vn -0.3465 -0.0394 0.9370
vn -0.3937 0.0945 -0.9134
vn -0.3937 0.0945 0.9134
vn 0.0315 -1.0000 0.0000
vn -0.2205 0.9685 0.0787
vn -0.2205 0.9685 -0.0787
vn 0.0394 -1.0000 0.0000
vn -0.1181 0.8425 0.5276
vn -0.1181 0.8425 -0.5276
vn 1.0000 0.0079 0.0000
vn 0.0000 0.0315 -1.0000
vn 0.0000 0.0315 1.0000
vn 0.9528 -0.3071 0.0000
vn -0.1024 -0.8740 0.4803
vn -0.1024 -0.8740 -0.4803
vn -0.1102 -0.9449 -0.3071
vn -0.1102 -0.9449 0.3071
vn 0.9921 -0.1181 0.0000
vn 0.0630 0.5591 -0.8268
vn 0.0630 0.5591 0.8268
vn -0.0945 0.9921 0.0000
vn 0.8268 -0.4803 -0.2992
vn 0.8268 -0.4803 0.2992
vn 0.2598 0.9606 -0.0945
vn 0.2598 0.9606 0.0945
vn -1.0000 0.0079 0.0000
vn 0.9291 -0.1654 -0.3307
vn 0.9291 -0.1654 0.3307
vn 0.8425 -0.5354 0.0000
vn 0.3780 0.9134 -0.1339
vn 0.3780 0.9134 0.1339
vn 0.9370 -0.0472 -0.3386
vn 0.9370 -0.0472 0.3386
vn 0.7953 -0.6063 0.0000
vn -0.9843 -0.1890 0.0000
vn -1.0000 0.0787 0.0000
vn 0.9449 -0.3228 0.0000
vn 0.9921 0.0945 0.0000
vn 0.9606 -0.2756 0.0000
vn -0.5512 0.8346 0.0000
vn 1.0000 0.0787 0.0000
vn -0.1181 -0.9843 -0.1417
vn -0.1181 -0.9843 0.1417
vn 0.9843 0.1811 0.0000
vn 0.9843 0.1732 0.0000
vn -0.4724 -0.8819 0.0000
vn -0.4882 -0.8740 0.0000
vn -0.0315 -0.2835 -0.9606
vn -0.0315 -0.2835 0.9606
vn 0.9055 0.2598 -0.3307
vn 0.9055 0.2598 0.3307
vn -0.8346 -0.5433 0.0000
vn -0.8425 -0.5354 0.0000
vn -0.8504 -0.5276 0.0000
vn -0.9213 -0.3937 0.0000
vn -0.9291 -0.3622 0.0000

o animal_mamoth
usemtl tex_animal_mamoth_i014p001x
f 1/1/1 2/2/1 3/3/1
f 4/4/1 2/2/1 1/1/1
f 5/5/2 4/4/2 1/1/2
f 6/6/2 4/4/2 5/5/2
f 7/7/3 8/8/3 9/9/3
f 10/10/3 8/8/3 7/7/3
f 9/9/3 11/11/3 12/12/3
f 8/8/3 11/11/3 9/9/3
f 12/12/4 13/13/4 14/14/4
f 11/11/4 13/13/4 12/12/4
f 15/15/5 16/16/5 17/17/5
f 16/16/5 18/18/5 17/17/5
f 19/19/6 20/20/6 21/21/6
f 20/20/6 22/22/6 21/21/6
f 23/23/7 24/24/7 25/25/7
f 24/24/7 23/23/7 26/26/7
f 27/27/8 28/28/8 29/29/8
f 28/28/8 27/27/8 30/30/8
f 31/31/9 32/32/9 33/33/9
f 32/32/9 31/31/9 34/34/9
f 35/35/10 36/36/10 37/37/10
f 36/36/10 35/35/10 38/38/10
f 39/39/10 40/40/10 41/41/10
f 40/40/10 39/39/10 42/42/10
f 43/43/6 44/44/6 45/45/6
f 43/43/6 46/46/6 44/44/6
f 47/47/11 48/48/11 49/49/11
f 50/50/11 47/47/11 49/49/11
f 22/22/12 51/51/12 21/21/12
f 51/51/12 22/22/12 52/52/12
f 53/53/13 54/54/13 55/55/13
f 54/54/13 56/56/13 55/55/13
f 57/57/13 58/58/13 59/59/13
f 60/60/13 58/58/13 57/57/13
f 61/61/6 62/62/6 63/63/6
f 61/61/6 63/63/6 64/64/6
f 65/65/6 63/63/6 62/62/6
f 63/63/6 65/65/6 66/66/6
f 67/67/6 66/66/6 65/65/6
f 66/66/6 67/67/6 68/68/6
f 69/69/6 70/70/6 71/71/6
f 70/70/6 69/69/6 72/72/6
f 71/71/6 73/73/6 69/69/6
f 74/74/6 73/73/6 71/71/6
f 75/75/6 73/73/6 74/74/6
f 73/73/6 75/75/6 76/76/6
f 77/77/14 78/78/14 14/14/14
f 77/77/14 14/14/14 13/13/14
f 79/79/15 80/80/15 78/78/15
f 79/79/15 78/78/15 77/77/15
f 81/81/16 82/82/16 83/83/16
f 81/81/16 84/84/16 82/82/16
f 85/85/17 31/31/17 33/33/17
f 31/31/17 85/85/17 86/86/17
f 87/87/18 32/32/18 34/34/18
f 87/87/18 34/34/18 88/88/18
f 89/89/19 90/90/19 91/91/19
f 89/89/19 92/92/19 90/90/19
f 93/93/20 92/92/20 89/89/20
f 93/93/20 94/94/20 92/92/20
f 95/95/21 96/96/21 97/97/21
f 95/95/21 98/98/21 96/96/21
f 91/91/22 98/98/22 95/95/22
f 91/91/22 90/90/22 98/98/22
f 99/99/23 100/100/23 80/80/23
f 99/99/23 80/80/23 79/79/23
f 101/101/24 102/102/24 103/103/24
f 101/101/24 104/104/24 102/102/24
f 105/105/25 93/93/25 106/106/25
f 93/93/25 105/105/25 94/94/25
f 50/107/26 31/108/26 47/109/26
f 31/108/26 50/107/26 34/110/26
f 96/96/27 107/111/27 97/97/27
f 107/111/27 96/96/27 108/112/27
f 109/113/28 110/114/28 111/115/28
f 110/114/28 109/113/28 112/116/28
f 113/117/29 114/118/29 115/119/29
f 114/118/29 113/117/29 116/120/29
f 55/55/30 56/56/30 35/35/30
f 38/38/30 35/35/30 56/56/30
f 59/59/30 39/39/30 41/41/30
f 59/59/30 58/58/30 39/39/30
f 117/121/11 118/122/11 119/123/11
f 120/124/11 117/121/11 119/123/11
f 23/23/31 121/125/31 122/126/31
f 25/25/31 121/125/31 23/23/31
f 28/28/32 123/127/32 29/29/32
f 28/28/32 124/128/32 123/127/32
f 125/129/33 126/130/33 127/131/33
f 126/130/33 125/129/33 128/132/33
f 129/133/34 130/134/34 131/135/34
f 129/133/34 132/136/34 130/134/34
f 133/137/35 134/138/35 135/139/35
f 134/138/35 133/137/35 136/140/35
f 112/141/36 137/142/36 110/143/36
f 137/142/36 112/141/36 138/144/36
f 139/145/37 114/146/37 116/147/37
f 114/146/37 139/145/37 140/148/37
f 141/149/38 142/150/38 143/151/38
f 142/150/38 141/149/38 144/152/38
f 145/153/39 146/154/39 147/155/39
f 146/154/39 145/153/39 148/156/39
f 85/85/40 88/88/40 86/86/40
f 85/85/40 87/87/40 88/88/40
f 149/157/24 150/158/24 151/159/24
f 149/157/24 152/160/24 150/158/24
f 153/161/41 154/162/41 155/163/41
f 154/162/41 153/161/41 156/164/41
f 157/165/41 158/166/41 159/167/41
f 157/165/41 160/168/41 158/166/41
f 161/169/42 162/170/42 163/171/42
f 161/169/42 164/172/42 162/170/42
f 165/173/43 166/174/43 167/175/43
f 166/174/43 165/173/43 168/176/43
f 169/177/41 170/178/41 171/179/41
f 170/178/41 169/177/41 172/180/41
f 173/181/41 174/182/41 175/183/41
f 173/181/41 176/184/41 174/182/41
f 3/185/44 10/186/44 7/187/44
f 3/185/44 2/188/44 10/186/44
f 117/189/41 177/190/41 178/191/41
f 177/190/41 117/189/41 120/192/41
f 179/193/45 180/194/45 181/195/45
f 180/194/45 179/193/45 182/196/45
f 183/197/11 169/198/11 171/199/11
f 169/198/11 183/197/11 184/200/11
f 176/201/11 173/202/11 185/203/11
f 176/201/11 185/203/11 186/204/11
f 181/205/46 187/206/46 188/207/46
f 181/205/46 188/207/46 179/208/46
f 180/209/47 189/210/47 190/211/47
f 189/210/47 180/209/47 182/212/47
f 141/149/48 164/172/48 161/169/48
f 141/149/48 143/151/48 164/172/48
f 146/154/49 167/175/49 147/155/49
f 167/175/49 146/154/49 165/173/49
f 191/213/35 192/214/35 193/215/35
f 192/214/35 191/213/35 194/216/35
f 195/217/50 196/218/50 197/219/50
f 198/220/50 197/219/50 196/218/50
f 199/221/50 196/218/50 195/217/50
f 196/218/50 199/221/50 200/222/50
f 201/223/51 202/224/51 203/225/51
f 204/226/51 203/225/51 202/224/51
f 197/219/52 198/220/52 205/227/52
f 206/228/52 205/227/52 198/220/52
f 207/229/50 208/230/50 199/221/50
f 200/222/50 199/221/50 208/230/50
f 154/231/11 156/232/11 209/233/11
f 210/234/11 209/233/11 156/232/11
f 205/227/52 206/228/52 211/235/52
f 212/236/52 211/235/52 206/228/52
f 213/237/53 202/224/53 201/223/53
f 202/224/53 213/237/53 214/238/53
f 211/235/54 212/236/54 213/237/54
f 214/238/54 213/237/54 212/236/54
f 215/239/11 160/240/11 157/241/11
f 160/240/11 215/239/11 216/242/11
f 217/243/55 218/244/55 219/245/55
f 217/243/55 219/245/55 220/246/55
f 219/245/55 221/247/55 220/246/55
f 221/247/55 219/245/55 222/248/55
f 222/248/55 219/245/55 223/249/55
f 223/249/55 224/250/55 222/248/55
f 223/249/55 225/251/55 224/250/55
f 225/251/55 223/249/55 226/252/55
f 227/253/55 226/252/55 223/249/55
f 227/253/55 228/254/55 226/252/55
f 229/255/55 230/256/55 231/257/55
f 230/256/55 229/255/55 232/258/55
f 62/259/55 230/256/55 232/258/55
f 230/256/55 62/259/55 61/260/55
f 232/258/55 65/261/55 62/259/55
f 65/261/55 232/258/55 233/262/55
f 233/262/55 67/263/55 65/261/55
f 67/263/55 233/262/55 234/264/55
f 233/262/55 235/265/55 234/264/55
f 235/265/55 233/262/55 236/266/55
f 237/267/52 238/268/52 207/229/52
f 208/230/52 207/229/52 238/268/52
f 239/269/55 240/270/55 241/271/55
f 240/270/55 239/269/55 242/272/55
f 242/272/55 243/273/55 240/270/55
f 243/273/55 242/272/55 244/274/55
f 245/275/55 244/274/55 242/272/55
f 244/274/55 245/275/55 246/276/55
f 247/277/55 246/276/55 245/275/55
f 246/276/55 247/277/55 248/278/55
f 245/275/55 249/279/55 247/277/55
f 249/279/55 245/275/55 250/280/55
f 251/281/55 252/282/55 253/283/55
f 252/282/55 251/281/55 254/284/55
f 251/281/55 71/285/55 254/284/55
f 254/284/55 71/285/55 70/286/55
f 251/281/55 74/287/55 71/285/55
f 255/288/55 74/287/55 251/281/55
f 255/288/55 75/289/55 74/287/55
f 256/290/55 75/289/55 255/288/55
f 255/288/55 257/291/55 256/290/55
f 257/291/55 255/288/55 258/292/55
f 259/293/54 260/294/54 237/267/54
f 238/268/54 237/267/54 260/294/54
f 17/295/53 260/294/53 259/293/53
f 260/294/53 17/295/53 18/296/53
f 187/297/56 189/298/56 188/299/56
f 189/298/56 187/297/56 190/300/56
f 48/301/57 47/302/57 31/303/57
f 31/303/57 86/304/57 48/301/57
f 49/305/58 34/306/58 50/307/58
f 34/306/58 49/305/58 88/308/58
f 261/309/59 262/310/59 36/311/59
f 262/310/59 37/312/59 36/311/59
f 263/313/59 40/314/59 264/315/59
f 264/315/59 40/314/59 42/316/59
f 265/317/60 103/318/60 266/319/60
f 103/318/60 267/320/60 266/319/60
f 265/317/60 266/319/60 151/321/60
f 103/318/60 102/322/60 267/320/60
f 151/321/60 268/323/60 265/317/60
f 102/322/60 150/324/60 267/320/60
f 151/321/60 150/324/60 268/323/60
f 102/322/60 268/323/60 150/324/60
f 269/325/61 181/195/61 180/194/61
f 270/326/61 269/325/61 180/194/61
f 271/327/62 272/328/62 273/329/62
f 272/328/62 271/327/62 274/330/62
f 275/331/63 276/332/63 277/333/63
f 276/332/63 275/331/63 278/334/63
f 279/335/64 280/336/64 281/337/64
f 281/337/64 282/338/64 279/335/64
f 283/339/65 284/340/65 285/341/65
f 284/340/65 283/339/65 286/342/65
f 274/330/66 271/327/66 280/336/66
f 280/336/66 271/327/66 281/337/66
f 285/341/67 275/331/67 277/333/67
f 285/341/67 284/340/67 275/331/67
f 287/343/19 288/344/19 289/345/19
f 290/346/19 288/344/19 287/343/19
f 288/344/19 111/347/19 289/345/19
f 289/345/19 111/347/19 291/348/19
f 111/347/19 292/349/19 291/348/19
f 292/349/19 111/347/19 110/350/19
f 110/350/19 137/351/19 292/349/19
f 292/349/19 137/351/19 293/352/19
f 137/351/19 294/353/19 293/352/19
f 294/353/19 137/351/19 295/354/19
f 295/354/19 287/343/19 294/353/19
f 287/343/19 295/354/19 290/346/19
f 296/355/19 297/356/19 298/357/19
f 297/356/19 296/355/19 299/358/19
f 139/359/19 299/358/19 296/355/19
f 299/358/19 139/359/19 300/360/19
f 139/359/19 301/361/19 300/360/19
f 139/359/19 116/362/19 301/361/19
f 113/363/19 301/361/19 116/362/19
f 301/361/19 113/363/19 302/364/19
f 303/365/19 298/357/19 297/356/19
f 303/365/19 297/356/19 304/366/19
f 113/363/19 303/365/19 304/366/19
f 113/363/19 304/366/19 302/364/19
f 305/367/66 217/368/66 220/369/66
f 305/367/66 220/369/66 306/370/66
f 220/369/66 307/371/66 306/370/66
f 307/371/66 220/369/66 221/372/66
f 308/373/67 247/374/67 249/375/67
f 247/374/67 308/373/67 309/376/67
f 309/376/67 310/377/67 247/374/67
f 247/374/67 310/377/67 248/378/67
f 203/379/68 311/380/68 312/381/68
f 203/379/68 312/381/68 201/382/68
f 204/383/69 313/384/69 314/385/69
f 313/384/69 204/383/69 202/386/69
f 197/387/70 315/388/70 316/389/70
f 197/387/70 316/389/70 195/390/70
f 316/389/70 199/391/70 195/390/70
f 199/391/70 316/389/70 192/392/70
f 198/393/71 317/394/71 318/395/71
f 317/394/71 198/393/71 196/396/71
f 317/394/71 196/396/71 200/397/71
f 317/394/71 200/397/71 194/398/71
f 312/381/72 319/399/72 320/400/72
f 319/399/72 312/381/72 311/380/72
f 201/382/73 312/381/73 321/401/73
f 201/382/73 321/401/73 213/402/73
f 205/403/74 322/404/74 315/388/74
f 205/403/74 315/388/74 197/387/74
f 323/405/75 313/384/75 324/406/75
f 313/384/75 323/405/75 314/385/75
f 202/386/76 325/407/76 313/384/76
f 325/407/76 202/386/76 214/408/76
f 318/395/77 206/409/77 198/393/77
f 206/409/77 318/395/77 326/410/77
f 213/402/78 321/401/78 327/411/78
f 213/402/78 327/411/78 211/412/78
f 211/412/79 327/411/79 322/404/79
f 211/412/79 322/404/79 205/403/79
f 207/413/74 192/392/74 134/414/74
f 192/392/74 207/413/74 199/391/74
f 326/410/80 212/415/80 206/409/80
f 212/415/80 326/410/80 328/416/80
f 214/408/81 328/416/81 325/407/81
f 328/416/81 214/408/81 212/415/81
f 194/398/77 208/417/77 136/418/77
f 194/398/77 200/397/77 208/417/77
f 193/419/82 316/389/82 329/420/82
f 316/389/82 193/419/82 192/392/82
f 330/421/83 326/410/83 331/422/83
f 326/410/83 318/395/83 331/422/83
f 332/423/83 317/424/83 191/425/83
f 317/424/83 194/426/83 191/425/83
f 333/427/84 312/381/84 320/400/84
f 312/381/84 333/427/84 321/401/84
f 334/428/82 322/404/82 335/429/82
f 322/404/82 334/428/82 315/388/82
f 324/430/85 313/431/85 336/432/85
f 313/431/85 325/433/85 336/432/85
f 337/434/86 321/435/86 338/436/86
f 321/435/86 337/434/86 327/437/86
f 339/438/87 340/439/87 325/407/87
f 325/407/87 328/416/87 339/438/87
f 135/440/88 192/441/88 341/442/88
f 192/441/88 135/440/88 134/443/88
f 237/444/79 134/414/79 342/445/79
f 134/414/79 237/444/79 207/413/79
f 343/446/89 194/398/89 133/447/89
f 194/398/89 136/418/89 133/447/89
f 136/418/80 208/417/80 238/448/80
f 136/418/80 238/448/80 344/449/80
f 55/450/62 345/451/62 53/452/62
f 345/451/62 55/450/62 346/453/62
f 58/454/63 347/455/63 348/456/63
f 347/455/63 58/454/63 60/457/63
f 346/453/66 55/450/66 349/458/66
f 349/458/66 55/450/66 35/459/66
f 350/460/67 58/454/67 348/456/67
f 350/460/67 39/461/67 58/454/67
f 42/462/90 350/460/90 264/463/90
f 350/460/90 42/462/90 39/461/90
f 349/458/91 37/464/91 262/465/91
f 37/464/91 349/458/91 35/459/91
f 351/466/60 152/467/60 149/468/60
f 352/469/60 152/467/60 351/466/60
f 259/470/92 342/445/92 45/471/92
f 342/445/92 259/470/92 237/444/92
f 344/449/93 238/448/93 260/472/93
f 344/449/93 260/472/93 44/473/93
f 353/474/66 231/475/66 230/476/66
f 353/474/66 230/476/66 354/477/66
f 230/476/66 64/478/66 354/477/66
f 64/478/66 230/476/66 61/479/66
f 355/480/67 256/481/67 257/482/67
f 256/481/67 355/480/67 356/483/67
f 356/483/67 76/484/67 256/481/67
f 256/481/67 76/484/67 75/485/67
f 33/486/94 357/487/94 358/488/94
f 357/487/94 33/486/94 32/489/94
f 359/490/95 111/491/95 288/492/95
f 111/491/95 359/490/95 109/493/95
f 113/494/96 360/495/96 303/496/96
f 360/495/96 113/494/96 115/497/96
f 43/498/97 342/445/97 361/499/97
f 342/445/97 43/498/97 45/471/97
f 362/500/98 344/449/98 46/501/98
f 344/449/98 44/473/98 46/501/98
f 363/502/19 364/503/19 365/504/19
f 363/502/19 366/505/19 364/503/19
f 364/503/19 366/505/19 367/506/19
f 366/505/19 363/502/19 368/507/19
f 369/508/19 370/509/19 371/510/19
f 371/510/19 370/509/19 372/511/19
f 370/509/19 369/508/19 373/512/19
f 369/508/19 371/510/19 374/513/19
f 17/514/68 45/471/68 15/515/68
f 45/471/68 17/514/68 259/470/68
f 44/473/69 260/472/69 18/516/69
f 44/473/69 18/516/69 16/517/69
f 117/518/99 178/519/99 375/520/99
f 117/518/99 375/520/99 118/521/99
f 177/522/100 119/523/100 376/524/100
f 120/525/100 119/523/100 177/522/100
f 203/526/101 314/527/101 311/528/101
f 314/527/101 203/526/101 204/529/101
f 311/528/102 323/530/102 319/531/102
f 311/528/102 314/527/102 323/530/102
f 121/532/103 377/533/103 122/534/103
f 377/533/103 121/532/103 378/535/103
f 123/536/104 379/537/104 380/538/104
f 379/537/104 123/536/104 124/539/104
f 365/540/105 287/541/105 289/542/105
f 287/541/105 365/540/105 364/543/105
f 297/544/106 373/545/106 304/546/106
f 373/545/106 297/544/106 370/547/106
f 181/205/66 381/548/66 187/206/66
f 381/548/66 181/205/66 382/549/66
f 382/549/66 181/205/66 269/550/66
f 383/551/67 180/209/67 190/211/67
f 384/552/67 180/209/67 383/551/67
f 180/209/67 384/552/67 270/553/67
f 295/554/107 137/142/107 385/555/107
f 137/142/107 138/144/107 385/555/107
f 296/556/108 386/557/108 139/145/108
f 139/145/108 386/557/108 140/148/108
f 387/558/66 227/559/66 223/560/66
f 387/558/66 223/560/66 388/561/66
f 389/562/67 242/563/67 239/564/67
f 242/563/67 389/562/67 390/565/67
f 21/566/66 188/207/66 19/567/66
f 188/207/66 21/566/66 179/208/66
f 179/208/66 21/566/66 51/568/66
f 189/210/67 22/569/67 20/570/67
f 182/212/67 22/569/67 189/210/67
f 22/569/67 182/212/67 52/571/67
f 331/572/6 315/573/6 334/574/6
f 315/573/6 331/572/6 318/575/6
f 269/576/41 384/577/41 382/578/41
f 384/577/41 269/576/41 270/579/41
f 51/580/109 182/196/109 179/193/109
f 182/196/109 51/580/109 52/581/109
f 391/582/66 236/583/66 233/584/66
f 391/582/66 233/584/66 392/585/66
f 393/586/67 251/587/67 253/588/67
f 251/587/67 393/586/67 394/589/67
f 176/590/67 395/591/67 174/592/67
f 395/591/67 176/590/67 186/593/67
f 171/594/66 170/595/66 396/596/66
f 171/594/66 396/596/66 183/597/66
f 364/598/110 294/599/110 287/600/110
f 294/599/110 364/598/110 367/601/110
f 299/602/111 370/603/111 297/604/111
f 370/603/111 299/602/111 372/605/111
f 377/533/112 397/606/112 398/607/112
f 377/533/112 378/535/112 397/606/112
f 379/537/113 399/608/113 380/538/113
f 400/609/113 399/608/113 379/537/113
f 305/610/41 218/611/41 217/612/41
f 401/613/41 218/611/41 305/610/41
f 387/614/41 228/615/41 227/616/41
f 402/617/41 228/615/41 387/614/41
f 403/618/41 389/619/41 241/620/41
f 389/619/41 239/621/41 241/620/41
f 308/622/41 249/623/41 250/624/41
f 404/625/41 308/622/41 250/624/41
f 156/626/66 405/627/66 210/628/66
f 156/626/66 153/629/66 405/627/66
f 160/630/67 406/631/67 158/632/67
f 406/631/67 160/630/67 216/633/67
f 407/634/114 279/635/114 408/636/114
f 279/635/114 282/637/114 408/636/114
f 409/638/114 286/639/114 283/640/114
f 286/639/114 409/638/114 410/641/114
f 383/642/115 187/297/115 381/643/115
f 187/297/115 383/642/115 190/300/115
f 411/644/11 125/645/11 127/646/11
f 125/645/11 411/644/11 412/647/11
f 413/648/11 129/649/11 414/650/11
f 129/649/11 413/648/11 132/651/11
f 274/652/116 415/653/116 272/654/116
f 415/653/116 274/652/116 416/655/116
f 417/656/116 277/657/116 276/658/116
f 277/657/116 417/656/116 418/659/116
f 279/660/117 419/661/117 280/662/117
f 419/661/117 279/660/117 407/663/117
f 409/664/117 285/665/117 420/666/117
f 409/664/117 283/667/117 285/665/117
f 280/662/41 416/655/41 274/652/41
f 416/655/41 280/662/41 419/661/41
f 285/665/41 418/659/41 420/666/41
f 418/659/41 285/665/41 277/657/41
f 384/577/118 381/668/118 382/578/118
f 381/668/118 384/577/118 383/669/118
f 388/670/41 223/671/41 219/672/41
f 219/672/41 421/673/41 388/670/41
f 390/674/41 245/675/41 242/676/41
f 422/677/41 245/675/41 390/674/41
f 189/298/115 19/678/115 188/299/115
f 19/678/115 189/298/115 20/679/115
f 84/680/119 81/681/119 423/682/119
f 84/680/119 423/682/119 424/683/119
f 26/684/120 425/685/120 24/686/120
f 425/685/120 26/684/120 426/687/120
f 427/688/121 30/689/121 27/690/121
f 30/689/121 427/688/121 428/691/121
f 429/692/122 122/693/122 377/694/122
f 430/695/122 122/693/122 429/692/122
f 430/695/122 23/696/122 122/693/122
f 23/696/122 430/695/122 431/697/122
f 377/694/122 432/698/122 429/692/122
f 432/698/122 377/694/122 163/699/122
f 163/699/122 377/694/122 398/700/122
f 379/701/123 168/702/123 400/703/123
f 379/701/123 433/704/123 168/702/123
f 379/701/123 434/705/123 433/704/123
f 434/705/123 379/701/123 124/706/123
f 124/706/123 435/707/123 434/705/123
f 28/708/123 435/707/123 124/706/123
f 435/707/123 28/708/123 436/709/123
f 437/710/66 81/711/66 83/712/66
f 81/711/66 437/710/66 423/713/66
f 82/714/67 424/715/67 438/716/67
f 424/715/67 82/714/67 84/717/67
f 127/718/124 126/719/124 439/720/124
f 127/718/124 439/720/124 411/721/124
f 132/722/125 440/723/125 130/724/125
f 440/723/125 132/722/125 413/725/125
f 441/726/126 161/727/126 163/699/126
f 441/726/126 163/699/126 398/700/126
f 161/727/126 441/726/126 141/728/126
f 441/726/126 442/729/126 141/728/126
f 144/730/126 141/728/126 442/729/126
f 443/731/127 400/703/127 168/702/127
f 443/731/127 168/702/127 165/732/127
f 146/733/127 443/731/127 165/732/127
f 146/733/127 444/734/127 443/731/127
f 444/734/127 146/733/127 148/735/127
f 341/736/128 133/737/128 135/738/128
f 133/737/128 341/736/128 343/739/128
f 445/740/129 106/741/129 93/742/129
f 106/741/129 445/740/129 446/743/129
f 105/744/130 447/745/130 94/746/130
f 105/744/130 448/747/130 447/745/130
f 431/697/131 26/748/131 23/696/131
f 26/748/131 431/697/131 426/749/131
f 445/740/132 93/742/132 89/750/132
f 89/750/132 449/751/132 445/740/132
f 30/752/133 436/709/133 28/708/133
f 436/709/133 30/752/133 428/753/133
f 92/754/134 447/745/134 450/755/134
f 447/745/134 92/754/134 94/746/134
f 451/756/135 80/757/135 100/758/135
f 80/757/135 451/756/135 452/759/135
f 32/760/136 87/761/136 357/762/136
f 357/762/136 87/761/136 453/763/136
f 79/764/137 454/765/137 455/766/137
f 99/767/137 79/764/137 455/766/137
f 358/768/138 85/769/138 33/770/138
f 85/769/138 358/768/138 456/771/138
f 92/754/139 457/772/139 90/773/139
f 92/754/139 450/755/139 457/772/139
f 458/774/140 89/750/140 91/775/140
f 89/750/140 458/774/140 449/751/140
f 103/776/66 459/777/66 101/778/66
f 459/777/66 103/776/66 265/779/66
f 281/780/10 460/781/10 282/782/10
f 460/781/10 408/783/10 282/782/10
f 86/784/141 49/785/141 48/786/141
f 49/785/141 86/784/141 88/787/141
f 461/788/67 102/789/67 104/790/67
f 102/789/67 461/788/67 268/791/67
f 462/792/10 286/793/10 410/794/10
f 284/795/10 286/793/10 462/792/10
f 271/796/30 463/797/30 281/780/30
f 460/781/30 281/780/30 463/797/30
f 464/798/30 284/795/30 462/792/30
f 464/798/30 275/799/30 284/795/30
f 465/800/142 80/757/142 452/759/142
f 80/757/142 465/800/142 78/801/142
f 79/764/143 466/802/143 454/765/143
f 466/802/143 79/764/143 77/803/143
f 321/804/41 340/805/41 338/806/41
f 321/804/41 325/807/41 340/805/41
f 91/775/64 95/808/64 458/774/64
f 95/808/64 467/809/64 458/774/64
f 98/810/65 457/772/65 468/811/65
f 457/772/65 98/810/65 90/773/65
f 97/812/64 467/809/64 95/808/64
f 97/812/64 469/813/64 467/809/64
f 470/814/142 78/801/142 465/800/142
f 78/801/142 470/814/142 14/815/142
f 468/811/65 96/816/65 98/810/65
f 96/816/65 468/811/65 471/817/65
f 77/803/143 472/818/143 466/802/143
f 472/818/143 77/803/143 13/819/143
f 1/820/144 473/821/144 474/822/144
f 473/821/144 1/820/144 3/823/144
f 437/824/145 83/83/145 106/106/145
f 437/824/145 106/106/145 446/825/145
f 83/83/145 105/105/145 106/106/145
f 83/83/145 82/82/145 105/105/145
f 82/82/145 448/826/145 105/105/145
f 82/82/145 438/827/145 448/826/145
f 448/828/145 437/829/145 446/830/145
f 437/829/145 448/828/145 438/831/145
f 475/832/146 4/833/146 476/834/146
f 475/832/146 2/835/146 4/833/146
f 97/812/147 477/836/147 469/813/147
f 477/836/147 97/812/147 107/837/147
f 96/816/148 478/838/148 108/839/148
f 478/838/148 96/816/148 471/817/148
f 479/840/149 6/841/149 5/842/149
f 480/843/149 6/841/149 479/840/149
f 332/844/128 193/845/128 329/846/128
f 193/845/128 332/844/128 191/847/128
f 25/848/150 481/849/150 121/850/150
f 481/849/150 25/848/150 482/851/150
f 121/850/150 481/849/150 483/852/150
f 483/852/150 378/853/150 121/850/150
f 378/853/150 483/852/150 484/854/150
f 378/853/150 484/854/150 162/855/150
f 378/853/150 162/855/150 397/856/150
f 485/857/151 123/858/151 380/859/151
f 486/860/151 123/858/151 485/857/151
f 123/858/151 486/860/151 29/861/151
f 29/861/151 486/860/151 487/862/151
f 380/859/151 488/863/151 485/857/151
f 488/863/151 380/859/151 166/864/151
f 166/864/151 380/859/151 399/865/151
f 339/866/6 327/867/6 337/868/6
f 327/867/6 339/866/6 328/869/6
f 125/870/152 412/871/152 128/872/152
f 128/872/152 412/871/152 489/873/152
f 129/874/153 131/875/153 414/876/153
f 131/875/153 490/877/153 414/876/153
f 319/878/154 324/879/154 320/880/154
f 324/879/154 319/878/154 323/881/154
f 335/882/155 331/883/155 334/884/155
f 331/883/155 335/882/155 330/885/155
f 474/822/156 5/886/156 1/820/156
f 5/886/156 474/822/156 479/887/156
f 476/834/157 6/888/157 480/889/157
f 476/834/157 4/833/157 6/888/157
f 324/879/158 333/890/158 320/880/158
f 333/890/158 324/879/158 336/891/158
f 273/892/13 491/893/13 271/796/13
f 491/893/13 463/797/13 271/796/13
f 278/894/13 464/798/13 492/895/13
f 464/798/13 278/894/13 275/799/13
f 12/896/159 470/814/159 493/897/159
f 470/814/159 12/896/159 14/815/159
f 494/898/160 472/818/160 11/899/160
f 11/899/160 472/818/160 13/819/160
f 361/900/161 46/901/161 43/902/161
f 46/901/161 361/900/161 362/903/161
f 9/904/159 493/897/159 495/905/159
f 493/897/159 9/904/159 12/896/159
f 496/906/160 494/898/160 8/907/160
f 8/907/160 494/898/160 11/899/160
f 497/908/162 8/907/162 10/909/162
f 8/907/162 497/908/162 496/906/162
f 498/910/163 9/904/163 495/905/163
f 7/911/163 9/904/163 498/910/163
f 221/912/6 222/913/6 499/914/6
f 221/912/6 499/914/6 307/915/6
f 224/916/6 499/914/6 222/913/6
f 499/914/6 224/916/6 500/917/6
f 225/918/6 500/917/6 224/916/6
f 500/917/6 225/918/6 501/919/6
f 502/920/6 243/921/6 244/922/6
f 243/921/6 502/920/6 503/923/6
f 244/922/6 504/924/6 502/920/6
f 246/925/6 504/924/6 244/922/6
f 248/926/6 504/924/6 246/925/6
f 504/924/6 248/926/6 310/927/6
f 162/855/164 505/928/164 397/856/164
f 505/928/164 162/855/164 164/929/164
f 505/928/164 164/929/164 143/930/164
f 505/928/164 143/930/164 506/931/164
f 143/930/164 142/932/164 506/931/164
f 167/933/165 507/934/165 147/935/165
f 166/864/165 507/934/165 167/933/165
f 507/934/165 166/864/165 399/865/165
f 508/936/165 147/935/165 507/934/165
f 147/935/165 508/936/165 145/937/165
f 25/848/166 24/938/166 482/851/166
f 482/851/166 24/938/166 425/939/166
f 27/940/167 29/861/167 487/862/167
f 27/940/167 487/862/167 427/941/167
f 340/942/168 337/943/168 338/944/168
f 337/943/168 340/942/168 339/945/168
f 149/946/67 266/947/67 351/948/67
f 266/947/67 149/946/67 151/949/67
f 352/950/66 267/951/66 152/952/66
f 267/951/66 150/953/66 152/952/66
f 429/954/169 484/955/169 483/956/169
f 484/955/169 429/954/169 432/957/169
f 488/958/170 434/959/170 485/960/170
f 434/959/170 488/958/170 433/961/170
f 126/962/55 489/963/55 439/964/55
f 489/963/55 126/962/55 128/965/55
f 130/966/55 490/967/55 131/968/55
f 490/967/55 130/966/55 440/969/55
f 318/970/171 316/971/171 315/972/171
f 316/971/171 318/970/171 317/973/171
f 327/974/168 326/975/168 322/976/168
f 326/975/168 327/974/168 328/977/168
f 136/978/158 342/979/158 134/980/158
f 342/979/158 136/978/158 344/981/158
f 498/982/172 473/983/172 7/187/172
f 473/983/172 3/185/172 7/187/172
f 10/186/173 475/984/173 497/985/173
f 475/984/173 10/186/173 2/188/173
f 333/986/174 325/987/174 321/988/174
f 333/986/174 336/989/174 325/987/174
f 44/990/55 15/991/55 45/992/55
f 15/991/55 44/990/55 16/993/55
f 375/994/6 376/995/6 118/996/6
f 376/995/6 119/997/6 118/996/6
f 177/998/55 375/999/55 178/1000/55
f 375/999/55 177/998/55 376/1001/55
f 509/1002/63 56/1003/63 54/1004/63
f 510/1005/63 56/1003/63 509/1002/63
f 511/1006/62 57/1007/62 59/1008/62
f 512/1009/62 511/1006/62 59/1008/62
f 513/1010/67 56/1003/67 510/1005/67
f 56/1003/67 513/1010/67 38/1011/67
f 59/1008/66 514/1012/66 512/1009/66
f 514/1012/66 59/1008/66 41/1013/66
f 184/1014/67 172/1015/67 169/1016/67
f 172/1015/67 184/1014/67 515/1017/67
f 173/1018/66 175/1019/66 185/1020/66
f 516/1021/66 185/1020/66 175/1019/66
f 513/1010/90 36/1022/90 38/1011/90
f 36/1022/90 513/1010/90 261/1023/90
f 514/1012/91 41/1013/91 40/1024/91
f 263/1025/91 514/1012/91 40/1024/91
f 235/1026/67 517/1027/67 518/1028/67
f 235/1026/67 518/1028/67 234/1029/67
f 67/1030/67 234/1029/67 518/1028/67
f 518/1028/67 68/1031/67 67/1030/67
f 252/1032/66 519/1033/66 520/1034/66
f 519/1033/66 252/1032/66 254/1035/66
f 254/1035/66 70/1036/66 519/1033/66
f 519/1033/66 70/1036/66 72/1037/66
f 155/1038/67 209/1039/67 521/1040/67
f 209/1039/67 155/1038/67 154/1041/67
f 522/1042/66 215/1043/66 159/1044/66
f 157/1045/66 159/1044/66 215/1043/66
f 322/1046/41 330/1047/41 335/1048/41
f 322/1046/41 326/1049/41 330/1047/41
f 415/1050/63 463/1051/63 491/1052/63
f 416/1053/63 463/1051/63 415/1050/63
f 417/1054/62 492/1055/62 464/1056/62
f 418/1057/62 417/1054/62 464/1056/62
f 407/1058/65 460/1059/65 419/1060/65
f 460/1059/65 407/1058/65 408/1061/65
f 462/1062/64 409/1063/64 420/1064/64
f 409/1063/64 462/1062/64 410/1065/64
f 419/1060/67 463/1051/67 416/1053/67
f 463/1051/67 419/1060/67 460/1059/67
f 464/1056/66 420/1064/66 418/1057/66
f 420/1064/66 464/1056/66 462/1062/66
f 228/1066/67 523/1067/67 226/1068/67
f 228/1066/67 402/1069/67 523/1067/67
f 225/1070/67 226/1068/67 523/1067/67
f 523/1067/67 501/1071/67 225/1070/67
f 524/1072/66 241/1073/66 240/1074/66
f 241/1073/66 524/1072/66 403/1075/66
f 240/1074/66 243/1076/66 524/1072/66
f 524/1072/66 243/1076/66 503/1077/66
f 290/1078/175 295/1079/175 525/1080/175
f 385/1081/175 525/1080/175 295/1079/175
f 296/1082/176 298/1083/176 526/1084/176
f 296/1082/176 526/1084/176 386/1085/176
f 163/1086/51 484/955/51 432/957/51
f 484/955/51 163/1086/51 162/1087/51
f 488/958/51 166/1088/51 168/1089/51
f 433/961/51 488/958/51 168/1089/51
f 453/1090/177 85/1091/177 456/1092/177
f 87/1093/177 85/1091/177 453/1090/177
f 367/1094/178 293/1095/178 294/1096/178
f 293/1095/178 367/1094/178 366/1097/178
f 300/1098/179 372/1099/179 299/1100/179
f 372/1099/179 300/1098/179 371/1101/179
f 229/1102/67 527/1103/67 528/1104/67
f 229/1102/67 528/1104/67 232/1105/67
f 258/1106/66 529/1107/66 530/1108/66
f 529/1107/66 258/1106/66 255/1109/66
f 288/492/180 290/1110/180 359/490/180
f 525/1111/180 359/490/180 290/1110/180
f 298/1112/181 360/495/181 526/1113/181
f 298/1112/181 303/496/181 360/495/181
f 525/1114/182 109/1115/182 359/1116/182
f 109/1115/182 525/1114/182 138/1117/182
f 138/1117/182 525/1114/182 385/1118/182
f 109/1115/182 138/1117/182 112/1119/182
f 115/1120/182 140/1121/182 526/1122/182
f 526/1122/182 140/1121/182 386/1123/182
f 140/1121/182 115/1120/182 114/1124/182
f 115/1120/182 526/1122/182 360/1125/182
f 218/1126/67 401/1127/67 421/1128/67
f 218/1126/67 421/1128/67 219/1129/67
f 250/1130/66 422/1131/66 404/1132/66
f 422/1131/66 250/1130/66 245/1133/66
f 289/542/183 363/1134/183 365/540/183
f 363/1134/183 289/542/183 291/1135/183
f 304/546/184 369/1136/184 302/1137/184
f 369/1136/184 304/546/184 373/545/184
f 101/1138/185 477/1139/185 107/1140/185
f 101/1138/185 459/1141/185 477/1139/185
f 104/1142/185 101/1138/185 107/1140/185
f 104/1142/185 107/1140/185 108/1143/185
f 459/1141/185 478/1144/185 477/1139/185
f 478/1144/185 459/1141/185 461/1145/185
f 461/1145/185 104/1142/185 108/1143/185
f 461/1145/185 108/1143/185 478/1144/185
f 397/1146/186 441/1147/186 398/1148/186
f 441/1147/186 397/1146/186 505/1149/186
f 443/1150/187 399/1151/187 400/1152/187
f 399/1151/187 443/1150/187 507/1153/187
f 481/1154/188 431/1155/188 430/1156/188
f 431/1155/188 481/1154/188 482/1157/188
f 486/1158/189 436/1159/189 487/1160/189
f 436/1159/189 486/1158/189 435/1161/189
f 172/1162/55 396/1163/55 170/1164/55
f 396/1163/55 172/1162/55 515/1165/55
f 175/1166/55 395/1167/55 516/1168/55
f 175/1166/55 174/1169/55 395/1167/55
f 316/1170/190 332/1171/190 329/1172/190
f 316/1170/190 317/1173/190 332/1171/190
f 155/1174/55 405/1175/55 153/1176/55
f 405/1175/55 155/1174/55 521/1177/55
f 159/1178/55 158/1179/55 406/1180/55
f 159/1178/55 406/1180/55 522/1181/55
f 401/1182/11 305/1183/11 306/1184/11
f 401/1182/11 306/1184/11 421/1185/11
f 306/1184/11 307/1186/11 421/1185/11
f 421/1185/11 307/1186/11 499/1187/11
f 500/1188/11 421/1185/11 499/1187/11
f 421/1185/11 500/1188/11 388/1189/11
f 501/1190/11 388/1189/11 500/1188/11
f 388/1189/11 501/1190/11 523/1191/11
f 523/1191/11 387/1192/11 388/1189/11
f 387/1192/11 523/1191/11 402/1193/11
f 527/1194/11 353/1195/11 354/1196/11
f 527/1194/11 354/1196/11 528/1197/11
f 354/1196/11 63/1198/11 528/1197/11
f 63/1198/11 354/1196/11 64/1199/11
f 66/1200/11 528/1197/11 63/1198/11
f 528/1197/11 66/1200/11 392/1201/11
f 68/1202/11 392/1201/11 66/1200/11
f 392/1201/11 68/1202/11 518/1203/11
f 517/1204/11 392/1201/11 518/1203/11
f 517/1204/11 391/1205/11 392/1201/11
f 524/1206/11 389/1207/11 403/1208/11
f 389/1207/11 524/1206/11 390/1209/11
f 503/1210/11 390/1209/11 524/1206/11
f 390/1209/11 503/1210/11 502/1211/11
f 390/1209/11 502/1211/11 422/1212/11
f 422/1212/11 502/1211/11 504/1213/11
f 504/1213/11 309/1214/11 422/1212/11
f 309/1214/11 504/1213/11 310/1215/11
f 309/1214/11 404/1216/11 422/1212/11
f 404/1216/11 309/1214/11 308/1217/11
f 394/1218/11 520/1219/11 519/1220/11
f 520/1219/11 394/1218/11 393/1221/11
f 519/1220/11 69/1222/11 394/1218/11
f 69/1222/11 519/1220/11 72/1223/11
f 394/1218/11 69/1222/11 529/1224/11
f 529/1224/11 69/1222/11 73/1225/11
f 76/1226/11 529/1224/11 73/1225/11
f 529/1224/11 76/1226/11 356/1227/11
f 356/1227/11 530/1228/11 529/1224/11
f 530/1228/11 356/1227/11 355/1229/11
f 439/1230/191 489/1231/191 411/1232/191
f 489/1231/191 412/1233/191 411/1232/191
f 490/1234/192 413/1235/192 414/1236/192
f 440/1237/192 413/1235/192 490/1234/192
f 437/829/193 424/1238/193 423/1239/193
f 438/831/193 424/1238/193 437/829/193
f 430/1156/194 483/956/194 481/1154/194
f 483/956/194 430/1156/194 429/954/194
f 485/960/195 435/1161/195 486/1158/195
f 435/1161/195 485/960/195 434/959/195
f 505/1149/196 442/1240/196 441/1147/196
f 442/1240/196 505/1149/196 506/1241/196
f 444/1242/197 507/1153/197 443/1150/197
f 507/1153/197 444/1242/197 508/1243/197
f 445/1244/198 448/1245/198 446/1246/198
f 445/1244/198 447/1247/198 448/1245/198
f 346/1248/199 509/1249/199 345/1250/199
f 509/1249/199 346/1248/199 510/1251/199
f 348/1252/199 511/1253/199 512/1254/199
f 511/1253/199 348/1252/199 347/1255/199
f 192/1256/190 343/1257/190 341/1258/190
f 192/1256/190 194/1259/190 343/1257/190
f 349/1260/41 510/1251/41 346/1248/41
f 510/1251/41 349/1260/41 513/1261/41
f 350/1262/41 512/1254/41 514/1263/41
f 512/1254/41 350/1262/41 348/1252/41
f 349/1260/200 261/1264/200 513/1261/200
f 261/1264/200 349/1260/200 262/1265/200
f 263/1266/200 350/1262/200 514/1263/200
f 263/1266/200 264/1267/200 350/1262/200
f 353/1268/41 229/1269/41 231/1270/41
f 527/1271/41 229/1269/41 353/1268/41
f 391/1272/41 235/1273/41 236/1274/41
f 517/1275/41 235/1273/41 391/1272/41
f 393/1276/41 253/1277/41 252/1278/41
f 520/1279/41 393/1276/41 252/1278/41
f 355/1280/41 257/1281/41 258/1282/41
f 530/1283/41 355/1280/41 258/1282/41
f 457/1284/201 449/1285/201 458/1286/201
f 449/1285/201 457/1284/201 450/1287/201
f 265/1288/202 461/1289/202 459/1290/202
f 265/1288/202 268/1291/202 461/1289/202
f 450/1287/203 445/1244/203 449/1285/203
f 445/1244/203 450/1287/203 447/1247/203
f 498/1292/204 475/1293/204 473/1294/204
f 475/1293/204 498/1292/204 497/1295/204
f 357/1296/55 456/1297/55 358/1298/55
f 456/1297/55 357/1296/55 453/1299/55
f 477/1300/205 471/1301/205 469/1302/205
f 478/1303/205 471/1301/205 477/1300/205
f 292/1304/206 293/1095/206 368/1305/206
f 366/1097/206 368/1305/206 293/1095/206
f 300/1098/207 301/1306/207 374/1307/207
f 300/1098/207 374/1307/207 371/1101/207
f 392/1308/41 233/1309/41 232/1310/41
f 232/1310/41 528/1311/41 392/1308/41
f 394/1312/41 255/1313/41 251/1314/41
f 529/1315/41 255/1313/41 394/1312/41
f 468/1316/208 458/1286/208 467/1317/208
f 458/1286/208 468/1316/208 457/1284/208
f 471/1301/209 467/1317/209 469/1302/209
f 467/1317/209 471/1301/209 468/1316/209
f 465/1318/210 472/1319/210 470/1320/210
f 465/1318/210 466/1321/210 472/1319/210
f 452/1322/211 466/1321/211 465/1318/211
f 452/1322/211 454/1323/211 466/1321/211
f 451/1324/145 454/1323/145 452/1322/145
f 451/1324/145 455/1325/145 454/1323/145
f 291/1326/212 292/1327/212 363/1328/212
f 368/1329/212 363/1328/212 292/1327/212
f 301/1330/213 302/1331/213 369/1332/213
f 301/1330/213 369/1332/213 374/1333/213
f 266/1334/202 352/1335/202 351/1336/202
f 267/1337/202 352/1335/202 266/1334/202
f 342/1338/41 362/1339/41 361/1340/41
f 342/1338/41 344/1341/41 362/1339/41
f 482/1342/214 425/1343/214 431/1344/214
f 431/1344/214 425/1343/214 426/1345/214
f 427/1346/215 487/1347/215 436/1348/215
f 436/1348/215 428/1349/215 427/1346/215
f 495/1350/216 497/1295/216 498/1292/216
f 495/1350/216 496/1351/216 497/1295/216
f 493/1352/217 496/1351/217 495/1350/217
f 493/1352/217 494/1353/217 496/1351/217
f 470/1354/218 494/1353/218 493/1352/218
f 470/1354/218 472/1355/218 494/1353/218
f 473/1294/219 476/1356/219 474/1357/219
f 473/1294/219 475/1293/219 476/1356/219
f 474/1357/220 480/1358/220 479/1359/220
f 474/1357/220 476/1356/220 480/1358/220
