# Roblox asset pack: giganotosaurus (creatures), from the Studio model "Giganotosaurus". Exported with Export Selection, split by tools/build_creatures.py: one object per rigid body. Units: studs. +Y up, front faces -Z, pivot (bottom centre) at the origin.
mtllib giganotosaurus.mtl

v 3.12500 10.04000 -2.01000
v 3.12500 9.78000 -1.04000
v 3.12500 9.07000 -2.27000
v 3.12500 8.82000 -1.30000
v -3.12500 9.78000 -1.04000
v -3.12500 10.04000 -2.01000
v -3.12500 8.82000 -1.30000
v -3.12500 9.07000 -2.27000
v 3.12500 12.75000 -4.39000
v 3.12500 12.49000 -3.42000
v 3.12500 11.78000 -4.65000
v 3.12500 11.52000 -3.68000
v -3.12500 12.49000 -3.42000
v -3.12500 12.75000 -4.39000
v -3.12500 11.52000 -3.68000
v -3.12500 11.78000 -4.65000
v 3.12500 12.23000 -2.46000
v 3.12500 11.71000 -0.52000
v 3.12500 10.30000 -2.97000
v -3.12500 11.71000 -0.52000
v -3.12500 12.23000 -2.46000
v -3.12500 10.30000 -2.97000
v 3.12500 14.81000 -4.35000
v 3.12500 13.64000 -0.01000
v 3.12500 12.88000 -4.87000
v -3.12500 13.64000 -0.01000
v -3.12500 14.81000 -4.35000
v -3.12500 12.88000 -4.87000
v 3.00000 12.88000 -4.87000
v 3.00000 11.71000 -0.52000
v 3.00000 8.53000 -6.04000
v 3.00000 7.37000 -1.69000
v -3.00000 11.71000 -0.52000
v -3.00000 12.88000 -4.87000
v -3.00000 7.37000 -1.69000
v -3.00000 8.53000 -6.04000
v 2.00000 8.53000 -6.04000
v 2.00000 7.37000 -1.69000
v 2.00000 7.57000 -6.29000
v 2.00000 6.40000 -1.95000
v -2.00000 7.37000 -1.69000
v -2.00000 8.53000 -6.04000
v -2.00000 6.40000 -1.95000
v -2.00000 7.57000 -6.29000
v -5.25000 1.50000 1.24000
v -5.25000 1.50000 3.24000
v -5.25000 0.00000 1.24000
v -5.25000 0.00000 3.24000
v -6.75000 1.50000 3.24000
v -6.75000 1.50000 1.24000
v -6.75000 0.00000 3.24000
v -6.75000 0.00000 1.24000
v -3.25000 1.50000 1.74000
v -3.25000 1.50000 3.24000
v -3.25000 0.00000 1.74000
v -3.25000 0.00000 3.24000
v -4.75000 1.50000 3.24000
v -4.75000 1.50000 1.74000
v -4.75000 0.00000 3.24000
v -4.75000 0.00000 1.74000
v -7.25000 1.50000 1.74000
v -7.25000 1.50000 3.24000
v -7.25000 0.00000 1.74000
v -7.25000 0.00000 3.24000
v -8.75000 1.50000 3.24000
v -8.75000 1.50000 1.74000
v -8.75000 0.00000 3.24000
v -8.75000 0.00000 1.74000
v -3.25000 1.50000 7.24000
v -3.25000 0.00000 7.24000
v -8.75000 1.50000 7.24000
v -8.75000 0.00000 7.24000
v -4.50000 5.73000 5.11000
v -4.50000 5.21000 8.06000
v -4.50000 1.30000 4.33000
v -4.50000 0.78000 7.28000
v -7.50000 5.21000 8.06000
v -7.50000 5.73000 5.11000
v -7.50000 0.78000 7.28000
v -7.50000 1.30000 4.33000
v -3.87500 9.51000 4.09000
v -3.87500 9.25000 5.56000
v -3.87500 6.19000 3.50000
v -3.87500 5.93000 4.98000
v -8.12500 9.25000 5.56000
v -8.12500 9.51000 4.09000
v -8.12500 5.93000 4.98000
v -8.12500 6.19000 3.50000
v -3.87500 9.95000 1.63000
v -3.87500 9.69000 3.10000
v -3.87500 8.10000 1.30000
v -3.87500 7.84000 2.78000
v -8.12500 9.69000 3.10000
v -8.12500 9.95000 1.63000
v -8.12500 7.84000 2.78000
v -8.12500 8.10000 1.30000
v -3.87500 11.47000 1.64000
v -3.87500 10.43000 7.55000
v -3.87500 9.99000 1.38000
v -3.87500 8.95000 7.29000
v -8.12500 10.43000 7.55000
v -8.12500 11.47000 1.64000
v -8.12500 8.95000 7.29000
v -8.12500 9.99000 1.38000
v -4.00000 9.99000 1.38000
v -4.00000 8.95000 7.29000
v -4.00000 5.07000 0.51000
v -4.00000 4.02000 6.42000
v -8.00000 8.95000 7.29000
v -8.00000 9.99000 1.38000
v -8.00000 4.02000 6.42000
v -8.00000 5.07000 0.51000
v 8.75000 1.50000 1.74000
v 8.75000 1.50000 3.24000
v 8.75000 0.00000 1.74000
v 8.75000 0.00000 3.24000
v 7.25000 1.50000 3.24000
v 7.25000 1.50000 1.74000
v 7.25000 0.00000 3.24000
v 7.25000 0.00000 1.74000
v 4.75000 1.50000 1.74000
v 4.75000 1.50000 3.24000
v 4.75000 0.00000 1.74000
v 4.75000 0.00000 3.24000
v 3.25000 1.50000 3.24000
v 3.25000 1.50000 1.74000
v 3.25000 0.00000 3.24000
v 3.25000 0.00000 1.74000
v 6.75000 1.50000 1.24000
v 6.75000 1.50000 3.24000
v 6.75000 0.00000 1.24000
v 6.75000 0.00000 3.24000
v 5.25000 1.50000 3.24000
v 5.25000 1.50000 1.24000
v 5.25000 0.00000 3.24000
v 5.25000 0.00000 1.24000
v 8.75000 1.50000 7.24000
v 8.75000 0.00000 7.24000
v 3.25000 1.50000 7.24000
v 3.25000 0.00000 7.24000
v -2.00000 6.25000 -7.01000
v -2.00000 6.25000 -6.01000
v -2.00000 4.25000 -7.01000
v -2.00000 4.25000 -6.01000
v -3.00000 6.25000 -6.01000
v -3.00000 6.25000 -7.01000
v -3.00000 4.25000 -6.01000
v -3.00000 4.25000 -7.01000
v -3.50000 6.25000 -7.01000
v -3.50000 6.25000 -6.01000
v -3.50000 4.25000 -7.01000
v -3.50000 4.25000 -6.01000
v -4.50000 6.25000 -6.01000
v -4.50000 6.25000 -7.01000
v -4.50000 4.25000 -6.01000
v -4.50000 4.25000 -7.01000
v -2.50000 9.25000 -4.51000
v -2.50000 9.25000 -3.01000
v -2.50000 5.25000 -4.51000
v -2.50000 5.25000 -3.01000
v -4.00000 9.25000 -3.01000
v -4.00000 9.25000 -4.51000
v -4.00000 5.25000 -3.01000
v -4.00000 5.25000 -4.51000
v -2.50000 6.25000 -6.01000
v -2.50000 6.25000 -4.51000
v -2.50000 5.25000 -6.01000
v -4.00000 6.25000 -4.51000
v -4.00000 6.25000 -6.01000
v -4.00000 5.25000 -6.01000
v 4.00000 6.25000 -6.01000
v 4.00000 6.25000 -4.51000
v 4.00000 5.25000 -6.01000
v 4.00000 5.25000 -4.51000
v 2.50000 6.25000 -4.51000
v 2.50000 6.25000 -6.01000
v 2.50000 5.25000 -4.51000
v 2.50000 5.25000 -6.01000
v 4.00000 9.25000 -4.51000
v 4.00000 9.25000 -3.01000
v 4.00000 5.25000 -3.01000
v 2.50000 9.25000 -3.01000
v 2.50000 9.25000 -4.51000
v 2.50000 5.25000 -3.01000
v 3.00000 6.25000 -7.01000
v 3.00000 6.25000 -6.01000
v 3.00000 4.25000 -7.01000
v 3.00000 4.25000 -6.01000
v 2.00000 6.25000 -6.01000
v 2.00000 6.25000 -7.01000
v 2.00000 4.25000 -6.01000
v 2.00000 4.25000 -7.01000
v 4.50000 6.25000 -7.01000
v 4.50000 6.25000 -6.01000
v 4.50000 4.25000 -7.01000
v 4.50000 4.25000 -6.01000
v 3.50000 6.25000 -6.01000
v 3.50000 6.25000 -7.01000
v 3.50000 4.25000 -6.01000
v 3.50000 4.25000 -7.01000
v 8.12500 11.47000 1.64000
v 8.12500 10.43000 7.55000
v 8.12500 9.99000 1.38000
v 8.12500 8.95000 7.29000
v 3.87500 10.43000 7.55000
v 3.87500 11.47000 1.64000
v 3.87500 8.95000 7.29000
v 3.87500 9.99000 1.38000
v 8.12500 9.51000 4.09000
v 8.12500 9.25000 5.56000
v 8.12500 6.19000 3.50000
v 8.12500 5.93000 4.98000
v 3.87500 9.25000 5.56000
v 3.87500 9.51000 4.09000
v 3.87500 5.93000 4.98000
v 3.87500 6.19000 3.50000
v 8.12500 9.95000 1.63000
v 8.12500 9.69000 3.10000
v 8.12500 8.10000 1.30000
v 8.12500 7.84000 2.78000
v 3.87500 9.69000 3.10000
v 3.87500 9.95000 1.63000
v 3.87500 7.84000 2.78000
v 3.87500 8.10000 1.30000
v 8.00000 9.99000 1.38000
v 8.00000 8.95000 7.29000
v 8.00000 5.07000 0.51000
v 8.00000 4.02000 6.42000
v 4.00000 8.95000 7.29000
v 4.00000 9.99000 1.38000
v 4.00000 4.02000 6.42000
v 4.00000 5.07000 0.51000
v 1.00000 13.59000 -3.33000
v 1.00000 16.59000 1.87000
v 1.00000 12.73000 -2.83000
v 1.00000 15.73000 2.37000
v -1.00000 16.59000 1.87000
v -1.00000 13.59000 -3.33000
v -1.00000 15.73000 2.37000
v -1.00000 12.73000 -2.83000
v 1.00000 16.73000 4.10000
v 1.00000 7.96000 -0.08000
v 1.00000 11.96000 6.85000
v -1.00000 16.73000 4.10000
v -1.00000 11.96000 6.85000
v -1.00000 7.96000 -0.08000
v 4.62500 11.10000 -0.17000
v 4.62500 10.71000 1.28000
v 4.62500 9.17000 -0.69000
v 4.62500 8.78000 0.76000
v -4.62500 10.71000 1.28000
v -4.62500 11.10000 -0.17000
v -4.62500 8.78000 0.76000
v -4.62500 9.17000 -0.69000
v 1.00000 12.46000 7.72000
v 1.00000 12.96000 8.58000
v 1.00000 9.86000 9.22000
v 1.00000 10.36000 10.08000
v -1.00000 12.96000 8.58000
v -1.00000 12.46000 7.72000
v -1.00000 10.36000 10.08000
v -1.00000 9.86000 9.22000
v 1.00000 14.46000 -3.83000
v 1.00000 16.21000 -0.79000
v 1.00000 15.34000 -0.29000
v -1.00000 16.21000 -0.79000
v -1.00000 14.46000 -3.83000
v -1.00000 15.34000 -0.29000
v 1.00000 14.56000 5.35000
v 1.00000 15.06000 6.22000
v 1.00000 9.37000 8.35000
v 1.00000 9.87000 9.22000
v -1.00000 15.06000 6.22000
v -1.00000 14.56000 5.35000
v -1.00000 9.87000 9.22000
v -1.00000 9.37000 8.35000
v 3.62500 10.25000 6.85000
v 3.62500 9.74000 8.78000
v 3.62500 8.32000 6.33000
v 3.62500 7.81000 8.26000
v -3.62500 9.74000 8.78000
v -3.62500 10.25000 6.85000
v -3.62500 7.81000 8.26000
v -3.62500 8.32000 6.33000
v 3.62500 11.70000 7.24000
v 3.62500 10.93000 10.14000
v 3.62500 9.48000 9.75000
v -3.62500 10.93000 10.14000
v -3.62500 11.70000 7.24000
v -3.62500 9.48000 9.75000
v 4.62500 14.61000 0.25000
v 4.62500 12.67000 7.50000
v 4.62500 11.23000 -0.65000
v 4.62500 9.29000 6.59000
v -4.62500 12.67000 7.50000
v -4.62500 14.61000 0.25000
v -4.62500 9.29000 6.59000
v -4.62500 11.23000 -0.65000
v 4.50000 11.23000 -0.65000
v 4.50000 9.29000 6.59000
v 4.50000 6.40000 -1.95000
v 4.50000 4.46000 5.30000
v -4.50000 9.29000 6.59000
v -4.50000 11.23000 -0.65000
v -4.50000 4.46000 5.30000
v -4.50000 6.40000 -1.95000
v 3.50000 10.25000 6.85000
v 3.50000 9.48000 9.75000
v 3.50000 5.43000 5.56000
v 3.50000 4.65000 8.45000
v -3.50000 9.48000 9.75000
v -3.50000 10.25000 6.85000
v -3.50000 4.65000 8.45000
v -3.50000 5.43000 5.56000
v 3.50000 6.40000 -1.95000
v 3.50000 4.46000 5.30000
v 3.50000 5.43000 -2.21000
v 3.50000 3.49000 5.04000
v -3.50000 4.46000 5.30000
v -3.50000 6.40000 -1.95000
v -3.50000 3.49000 5.04000
v -3.50000 5.43000 -2.21000
v 2.50000 5.43000 5.56000
v 2.50000 4.65000 8.45000
v 2.50000 4.46000 5.30000
v 2.50000 3.68000 8.19000
v -2.50000 4.65000 8.45000
v -2.50000 5.43000 5.56000
v -2.50000 3.68000 8.19000
v -2.50000 4.46000 5.30000
v 7.50000 5.73000 5.11000
v 7.50000 5.21000 8.06000
v 7.50000 1.30000 4.33000
v 7.50000 0.78000 7.28000
v 4.50000 5.21000 8.06000
v 4.50000 5.73000 5.11000
v 4.50000 0.78000 7.28000
v 4.50000 1.30000 4.33000
v 4.12500 11.93000 -13.16000
v 4.12500 11.93000 -11.66000
v 4.12500 11.43000 -13.16000
v 4.12500 11.43000 -11.66000
v -4.12500 11.93000 -11.66000
v -4.12500 11.93000 -13.16000
v -4.12500 11.43000 -11.66000
v -4.12500 11.43000 -13.16000
v 4.12500 13.93000 -18.66000
v 4.12500 13.93000 -17.66000
v 4.12500 12.93000 -18.66000
v 4.12500 12.93000 -17.66000
v -4.12500 13.93000 -17.66000
v -4.12500 13.93000 -18.66000
v -4.12500 12.93000 -17.66000
v -4.12500 12.93000 -18.66000
v 4.12500 13.93000 -15.16000
v 4.12500 13.93000 -11.16000
v 4.12500 11.93000 -15.16000
v 4.12500 11.93000 -11.16000
v -4.12500 13.93000 -11.16000
v -4.12500 13.93000 -15.16000
v -4.12500 11.93000 -11.16000
v -4.12500 11.93000 -15.16000
v 1.00000 15.21000 -6.39000
v 1.00000 15.55000 -5.45000
v 1.00000 12.86000 -5.54000
v 1.00000 13.20000 -4.60000
v -1.00000 15.55000 -5.45000
v -1.00000 15.21000 -6.39000
v -1.00000 13.20000 -4.60000
v -1.00000 12.86000 -5.54000
v 2.50000 15.43000 -21.16000
v 2.50000 15.43000 -19.66000
v 2.50000 13.93000 -21.16000
v 2.50000 13.93000 -19.66000
v -2.50000 15.43000 -19.66000
v -2.50000 15.43000 -21.16000
v -2.50000 13.93000 -19.66000
v -2.50000 13.93000 -21.16000
v 2.62500 11.23000 -7.13000
v 2.62500 11.06000 -6.14000
v 2.62500 10.25000 -7.30000
v 2.62500 10.08000 -6.32000
v -2.62500 11.06000 -6.14000
v -2.62500 11.23000 -7.13000
v -2.62500 10.08000 -6.32000
v -2.62500 10.25000 -7.30000
v 4.12500 15.43000 -19.66000
v 4.12500 15.43000 -8.66000
v 4.12500 13.93000 -19.66000
v 4.12500 13.93000 -8.66000
v -4.12500 15.43000 -8.66000
v -4.12500 15.43000 -19.66000
v -4.12500 13.93000 -8.66000
v -4.12500 13.93000 -19.66000
v 2.62500 15.20000 -9.48000
v 2.62500 14.25000 -4.06000
v 2.62500 13.23000 -9.82000
v 2.62500 12.28000 -4.41000
v -2.62500 14.25000 -4.06000
v -2.62500 15.20000 -9.48000
v -2.62500 12.28000 -4.41000
v -2.62500 13.23000 -9.82000
v 1.00000 15.33000 -19.21000
v 1.00000 17.22000 -14.04000
v 1.00000 14.39000 -18.86000
v 1.00000 16.28000 -13.70000
v -1.00000 17.22000 -14.04000
v -1.00000 15.33000 -19.21000
v -1.00000 16.28000 -13.70000
v -1.00000 14.39000 -18.86000
v 1.00000 15.08000 -16.98000
v 1.00000 17.47000 -10.41000
v 1.00000 11.79000 -15.79000
v 1.00000 14.18000 -9.21000
v -1.00000 17.47000 -10.41000
v -1.00000 15.08000 -16.98000
v -1.00000 14.18000 -9.21000
v -1.00000 11.79000 -15.79000
v 4.12500 13.93000 -16.66000
v 4.12500 13.93000 -15.66000
v 4.12500 12.43000 -16.66000
v 4.12500 12.43000 -15.66000
v -4.12500 13.93000 -15.66000
v -4.12500 13.93000 -16.66000
v -4.12500 12.43000 -15.66000
v -4.12500 12.43000 -16.66000
v 2.62500 12.80000 -7.36000
v 2.62500 12.54000 -5.88000
v 2.62500 11.32000 -7.62000
v -2.62500 12.54000 -5.88000
v -2.62500 12.80000 -7.36000
v -2.62500 11.32000 -7.62000
v 1.00000 15.81000 -7.67000
v 1.00000 16.15000 -6.73000
v 1.00000 13.93000 -6.99000
v 1.00000 14.27000 -6.05000
v -1.00000 16.15000 -6.73000
v -1.00000 15.81000 -7.67000
v -1.00000 14.27000 -6.05000
v -1.00000 13.93000 -6.99000
v 1.00000 16.53000 -10.06000
v 1.00000 17.22000 -8.19000
v 1.00000 12.77000 -8.70000
v 1.00000 13.46000 -6.82000
v -1.00000 17.22000 -8.19000
v -1.00000 16.53000 -10.06000
v -1.00000 13.46000 -6.82000
v -1.00000 12.77000 -8.70000
v -3.00000 10.93000 -16.66000
v -3.00000 10.93000 -15.66000
v -3.00000 9.93000 -16.66000
v -3.00000 9.93000 -15.66000
v -4.00000 10.93000 -15.66000
v -4.00000 10.93000 -16.66000
v -4.00000 9.93000 -15.66000
v -4.00000 9.93000 -16.66000
v 4.00000 10.93000 -19.16000
v 4.00000 10.93000 -18.16000
v 4.00000 9.93000 -19.16000
v 4.00000 9.93000 -18.16000
v 3.00000 10.93000 -18.16000
v 3.00000 10.93000 -19.16000
v 3.00000 9.93000 -18.16000
v 3.00000 9.93000 -19.16000
v -3.00000 9.10000 -20.18000
v -3.00000 9.27000 -19.19000
v -3.00000 8.11000 -20.01000
v -3.00000 8.28000 -19.02000
v -4.00000 9.27000 -19.19000
v -4.00000 9.10000 -20.18000
v -4.00000 8.28000 -19.02000
v -4.00000 8.11000 -20.01000
v 4.00000 10.93000 -16.66000
v 4.00000 10.93000 -15.66000
v 4.00000 9.93000 -16.66000
v 4.00000 9.93000 -15.66000
v 3.00000 10.93000 -15.66000
v 3.00000 10.93000 -16.66000
v 3.00000 9.93000 -15.66000
v 3.00000 9.93000 -16.66000
v 4.00000 9.44000 -18.21000
v 4.00000 9.62000 -17.23000
v 4.00000 8.46000 -18.04000
v 4.00000 8.63000 -17.05000
v 3.00000 9.62000 -17.23000
v 3.00000 9.44000 -18.21000
v 3.00000 8.63000 -17.05000
v 3.00000 8.46000 -18.04000
v -3.00000 9.88000 -15.75000
v -3.00000 10.05000 -14.76000
v -3.00000 8.89000 -15.57000
v -3.00000 9.07000 -14.59000
v -4.00000 10.05000 -14.76000
v -4.00000 9.88000 -15.75000
v -4.00000 9.07000 -14.59000
v -4.00000 8.89000 -15.57000
v 4.00000 10.93000 -14.66000
v 4.00000 10.93000 -13.66000
v 4.00000 9.93000 -14.66000
v 4.00000 9.93000 -13.66000
v 3.00000 10.93000 -13.66000
v 3.00000 10.93000 -14.66000
v 3.00000 9.93000 -13.66000
v 3.00000 9.93000 -14.66000
v -3.00000 10.93000 -19.16000
v -3.00000 10.93000 -18.16000
v -3.00000 9.93000 -19.16000
v -3.00000 9.93000 -18.16000
v -4.00000 10.93000 -18.16000
v -4.00000 10.93000 -19.16000
v -4.00000 9.93000 -18.16000
v -4.00000 9.93000 -19.16000
v 4.00000 9.88000 -15.75000
v 4.00000 10.05000 -14.76000
v 4.00000 8.89000 -15.57000
v 4.00000 9.07000 -14.59000
v 3.00000 10.05000 -14.76000
v 3.00000 9.88000 -15.75000
v 3.00000 9.07000 -14.59000
v 3.00000 8.89000 -15.57000
v 4.00000 10.93000 -21.16000
v 4.00000 10.93000 -20.16000
v 4.00000 9.93000 -21.16000
v 4.00000 9.93000 -20.16000
v 3.00000 10.93000 -20.16000
v 3.00000 10.93000 -21.16000
v 3.00000 9.93000 -20.16000
v 3.00000 9.93000 -21.16000
v -3.00000 10.93000 -21.16000
v -3.00000 10.93000 -20.16000
v -3.00000 9.93000 -21.16000
v -3.00000 9.93000 -20.16000
v -4.00000 10.93000 -20.16000
v -4.00000 10.93000 -21.16000
v -4.00000 9.93000 -20.16000
v -4.00000 9.93000 -21.16000
v -3.00000 9.44000 -18.21000
v -3.00000 9.62000 -17.23000
v -3.00000 8.46000 -18.04000
v -3.00000 8.63000 -17.05000
v -4.00000 9.62000 -17.23000
v -4.00000 9.44000 -18.21000
v -4.00000 8.63000 -17.05000
v -4.00000 8.46000 -18.04000
v -3.00000 10.93000 -14.66000
v -3.00000 10.93000 -13.66000
v -3.00000 9.93000 -14.66000
v -3.00000 9.93000 -13.66000
v -4.00000 10.93000 -13.66000
v -4.00000 10.93000 -14.66000
v -4.00000 9.93000 -13.66000
v -4.00000 9.93000 -14.66000
v 4.00000 9.10000 -20.18000
v 4.00000 9.27000 -19.19000
v 4.00000 8.11000 -20.01000
v 4.00000 8.28000 -19.02000
v 3.00000 9.27000 -19.19000
v 3.00000 9.10000 -20.18000
v 3.00000 8.28000 -19.02000
v 3.00000 8.11000 -20.01000
v 4.00000 7.94000 -20.99000
v 4.00000 10.11000 -8.68000
v 4.00000 5.97000 -20.64000
v 4.00000 8.14000 -8.33000
v -4.00000 10.11000 -8.68000
v -4.00000 7.94000 -20.99000
v -4.00000 8.14000 -8.33000
v -4.00000 5.97000 -20.64000
v 2.50000 10.28000 -10.34000
v 2.50000 9.32000 -4.93000
v 2.50000 9.29000 -10.52000
v 2.50000 8.34000 -5.10000
v -2.50000 9.32000 -4.93000
v -2.50000 10.28000 -10.34000
v -2.50000 8.34000 -5.10000
v -2.50000 9.29000 -10.52000
v 3.50000 11.85000 -12.06000
v 3.50000 10.82000 -9.24000
v 3.50000 9.03000 -13.09000
v 3.50000 8.01000 -10.27000
v 3.00000 10.82000 -9.24000
v 3.00000 11.85000 -12.06000
v 3.00000 8.01000 -10.27000
v 3.00000 9.03000 -13.09000
v -3.00000 11.85000 -12.06000
v -3.00000 10.82000 -9.24000
v -3.00000 9.03000 -13.09000
v -3.00000 8.01000 -10.27000
v -3.50000 10.82000 -9.24000
v -3.50000 11.85000 -12.06000
v -3.50000 8.01000 -10.27000
v -3.50000 9.03000 -13.09000
v -1.72100 15.48000 -19.59000
v -2.28800 16.61000 -13.21000
v -1.72100 14.01000 -19.33000
v -2.28800 15.13000 -12.95000
v -4.77900 16.57000 -13.43000
v -4.21200 15.45000 -19.81000
v -4.77900 15.09000 -13.17000
v -4.21200 13.97000 -19.55000
v 4.00000 13.93000 -21.16000
v 4.00000 13.93000 -8.66000
v 4.00000 10.93000 -8.66000
v -4.00000 13.93000 -8.66000
v -4.00000 13.93000 -21.16000
v -4.00000 10.93000 -8.66000
v 4.50000 12.43000 -11.16000
v 4.50000 12.43000 -8.16000
v 4.50000 9.43000 -11.16000
v 4.50000 9.43000 -8.16000
v -4.50000 12.43000 -8.16000
v -4.50000 12.43000 -11.16000
v -4.50000 9.43000 -8.16000
v -4.50000 9.43000 -11.16000
v 4.32100 15.73000 -15.29000
v 4.67000 16.43000 -11.37000
v 4.32100 14.26000 -15.03000
v 4.67000 14.95000 -11.11000
v 2.17900 16.46000 -11.15000
v 1.83000 15.77000 -15.08000
v 2.17900 14.99000 -10.89000
v 1.83000 14.29000 -14.82000
v 4.21200 15.45000 -19.81000
v 4.77900 16.57000 -13.43000
v 4.21200 13.97000 -19.55000
v 4.77900 15.09000 -13.17000
v 2.28800 16.61000 -13.21000
v 1.72100 15.48000 -19.59000
v 2.28800 15.13000 -12.95000
v 1.72100 14.01000 -19.33000
v 2.50000 13.23000 -9.82000
v 2.50000 12.28000 -4.41000
v -2.50000 12.28000 -4.41000
v -2.50000 13.23000 -9.82000
v -1.83000 15.77000 -15.08000
v -2.17900 16.46000 -11.15000
v -1.83000 14.29000 -14.82000
v -2.17900 14.99000 -10.89000
v -4.67000 16.43000 -11.37000
v -4.32100 15.73000 -15.29000
v -4.67000 14.95000 -11.11000
v -4.32100 14.26000 -15.03000
v 4.00000 15.43000 -21.16000
v 4.00000 15.43000 -19.66000
v 4.00000 13.93000 -19.66000
v -4.00000 15.43000 -19.66000
v -4.00000 15.43000 -21.16000
v -4.00000 13.93000 -19.66000
v 4.50000 14.43000 -13.16000
v 4.50000 14.43000 -11.66000
v 4.50000 12.93000 -13.16000
v 4.50000 12.93000 -11.66000
v -4.50000 14.43000 -11.66000
v -4.50000 14.43000 -13.16000
v -4.50000 12.93000 -11.66000
v -4.50000 12.93000 -13.16000
v 2.50000 8.37000 -19.04000
v 2.50000 10.57000 -10.83000
v 2.50000 7.40000 -18.78000
v 2.50000 9.60000 -10.57000
v -2.50000 10.57000 -10.83000
v -2.50000 8.37000 -19.04000
v -2.50000 9.60000 -10.57000
v -2.50000 7.40000 -18.78000
v 4.50500 14.43000 -13.16000
v 4.50500 14.43000 -11.66000
v 4.50500 12.93000 -13.16000
v 4.50500 12.93000 -11.66000
v -4.50500 14.43000 -11.66000
v -4.50500 14.43000 -13.16000
v -4.50500 12.93000 -11.66000
v -4.50500 12.93000 -13.16000
v 1.50000 5.74000 8.22000
v 1.50000 5.74000 13.22000
v 1.50000 4.74000 8.22000
v 1.50000 4.74000 13.22000
v -1.50000 5.74000 13.22000
v -1.50000 5.74000 8.22000
v -1.50000 4.74000 13.22000
v -1.50000 4.74000 8.22000
v 2.50000 8.63000 8.87000
v 2.50000 7.76000 13.79000
v 2.50000 5.67000 8.35000
v 2.50000 4.80000 13.27000
v -2.50000 7.76000 13.79000
v -2.50000 8.63000 8.87000
v -2.50000 4.80000 13.27000
v -2.50000 5.67000 8.35000
v 0.75000 7.21000 17.66000
v 0.75000 7.21000 21.16000
v 0.75000 5.71000 17.66000
v 0.75000 5.71000 21.16000
v -0.75000 7.21000 21.16000
v -0.75000 7.21000 17.66000
v -0.75000 5.71000 21.16000
v -0.75000 5.71000 17.66000
v 1.25000 7.25000 13.19000
v 1.25000 6.86000 17.67000
v 1.25000 5.26000 13.01000
v 1.25000 4.87000 17.50000
v -1.25000 6.86000 17.67000
v -1.25000 7.25000 13.19000
v -1.25000 4.87000 17.50000
v -1.25000 5.26000 13.01000
v 0.75000 7.71000 17.66000
v 0.75000 7.71000 21.16000
v -0.75000 7.71000 21.16000
v -0.75000 7.71000 17.66000
v 1.37500 8.75000 13.32000
v 1.37500 8.36000 17.80000
v 1.37500 7.25000 13.19000
v 1.37500 6.86000 17.67000
v -1.37500 8.36000 17.80000
v -1.37500 8.75000 13.32000
v -1.37500 6.86000 17.67000
v -1.37500 7.25000 13.19000
v 2.62500 10.10000 9.13000
v 2.62500 9.23000 14.05000
v 2.62500 8.63000 8.87000
v 2.62500 7.76000 13.79000
v -2.62500 9.23000 14.05000
v -2.62500 10.10000 9.13000
v -2.62500 7.76000 13.79000
v -2.62500 8.63000 8.87000
v 2.62500 8.36000 10.34000
v 2.62500 8.19000 11.33000
v 2.62500 6.40000 10.00000
v 2.62500 6.22000 10.98000
v -2.62500 8.19000 11.33000
v -2.62500 8.36000 10.34000
v -2.62500 6.22000 10.98000
v -2.62500 6.40000 10.00000
v 2.62500 8.10000 11.82000
v 2.62500 7.93000 12.81000
v 2.62500 7.12000 11.65000
v 2.62500 6.95000 12.63000
v -2.62500 7.93000 12.81000
v -2.62500 8.10000 11.82000
v -2.62500 6.95000 12.63000
v -2.62500 7.12000 11.65000
v 1.37500 7.17000 14.19000
v 1.37500 7.04000 15.68000
v 1.37500 6.17000 14.10000
v 1.37500 6.04000 15.59000
v -1.37500 7.04000 15.68000
v -1.37500 7.17000 14.19000
v -1.37500 6.04000 15.59000
v -1.37500 6.17000 14.10000
vt 7.87500 -0.50000
vt 7.75000 -0.50000
vt 7.87500 -0.62500
vt 7.75000 -0.62500
vt 8.53125 -0.50000
vt 8.53125 -0.62500
vt 3.62500 1.00000
vt 3.50000 1.00000
vt 3.62500 0.87500
vt 3.50000 0.87500
vt 4.28125 1.00000
vt 4.28125 0.87500
vt 1.50000 -0.75000
vt 1.25000 -0.75000
vt 1.50000 -1.00000
vt 1.25000 -1.00000
vt 2.03125 -0.75000
vt 2.03125 -1.00000
vt 2.06250 -2.50000
vt 1.50000 -2.50000
vt 2.06250 -2.75000
vt 1.50000 -2.75000
vt 2.28125 -2.50000
vt 2.28125 -3.06250
vt 1.50000 -3.06250
vt 2.28125 -2.75000
vt 6.81250 -1.00000
vt 6.25000 -1.00000
vt 6.81250 -1.56250
vt 6.25000 -1.56250
vt 7.00000 -1.00000
vt 7.00000 -1.56250
vt 7.56250 -1.00000
vt 7.56250 -1.12500
vt 7.00000 -1.12500
vt 7.50000 -1.00000
vt 7.50000 -1.56250
vt 7.50000 -1.12500
vt 3.75000 -5.00000
vt 3.50000 -5.00000
vt 3.75000 -5.18750
vt 3.50000 -5.18750
vt 3.68750 -5.00000
vt 3.68750 -5.25000
vt 3.50000 -5.25000
vt 3.68750 -5.18750
vt 7.43750 -6.50000
vt 7.25000 -6.50000
vt 7.43750 -6.68750
vt 7.25000 -6.68750
vt 0.93750 -4.75000
vt 0.75000 -4.75000
vt 0.93750 -4.93750
vt 0.75000 -4.93750
vt 8.00000 -4.75000
vt 7.50000 -4.75000
vt 8.00000 -4.93750
vt 7.50000 -4.93750
vt 8.18750 -4.75000
vt 8.18750 -5.25000
vt 7.50000 -5.25000
vt 8.18750 -4.93750
vt 2.12500 -3.50000
vt 1.75000 -3.50000
vt 2.12500 -4.06250
vt 1.75000 -4.06250
vt 2.12500 -3.87500
vt 1.75000 -3.87500
vt 2.18750 -5.00000
vt 2.00000 -5.00000
vt 2.18750 -5.42188
vt 2.00000 -5.42188
vt 2.53125 -5.00000
vt 2.53125 -5.18750
vt 2.00000 -5.18750
vt 2.53125 -5.42188
vt 1.68750 -2.00000
vt 1.50000 -2.00000
vt 1.68750 -2.23438
vt 1.50000 -2.23438
vt 2.03125 -2.00000
vt 2.03125 -2.18750
vt 1.50000 -2.18750
vt 2.03125 -2.23438
vt 5.50000 -2.25000
vt 4.75000 -2.25000
vt 5.50000 -2.43750
vt 4.75000 -2.43750
vt 5.28125 -2.25000
vt 5.28125 -3.00000
vt 4.75000 -3.00000
vt 5.28125 -2.43750
vt 4.50000 -6.50000
vt 3.75000 -6.50000
vt 4.50000 -7.12500
vt 3.75000 -7.12500
vt 4.25000 -6.50000
vt 4.25000 -7.25000
vt 3.75000 -7.25000
vt 4.25000 -7.12500
vt 3.43750 -5.25000
vt 3.25000 -5.25000
vt 3.43750 -5.43750
vt 3.25000 -5.43750
vt 5.68750 -3.25000
vt 5.50000 -3.25000
vt 5.68750 -3.43750
vt 5.50000 -3.43750
vt 5.75000 -6.00000
vt 5.50000 -6.00000
vt 5.75000 -6.18750
vt 5.50000 -6.18750
vt 5.68750 -6.00000
vt 5.68750 -6.25000
vt 5.50000 -6.25000
vt 5.68750 -6.18750
vt 7.00000 -2.75000
vt 6.50000 -2.75000
vt 7.00000 -2.93750
vt 6.50000 -2.93750
vt 7.18750 -2.75000
vt 7.18750 -3.25000
vt 6.50000 -3.25000
vt 7.18750 -2.93750
vt 0.12500 0.00000
vt 0.00000 0.00000
vt 0.12500 -0.25000
vt 0.00000 -0.25000
vt 0.12500 -0.12500
vt 0.00000 -0.12500
vt 7.37500 0.25000
vt 7.25000 0.25000
vt 7.37500 0.00000
vt 7.25000 0.00000
vt 7.37500 0.12500
vt 7.25000 0.12500
vt 5.68750 -1.25000
vt 5.50000 -1.25000
vt 5.68750 -1.75000
vt 5.50000 -1.75000
vt 5.68750 -1.43750
vt 5.50000 -1.43750
vt 6.93750 -6.25000
vt 6.75000 -6.25000
vt 6.93750 -6.37500
vt 6.75000 -6.37500
vt 6.93750 -6.43750
vt 6.75000 -6.43750
vt 4.18750 0.00000
vt 4.00000 0.00000
vt 4.18750 -0.12500
vt 4.00000 -0.12500
vt 4.18750 -0.18750
vt 4.00000 -0.18750
vt 5.18750 -1.75000
vt 5.00000 -1.75000
vt 5.18750 -2.25000
vt 5.00000 -2.25000
vt 5.18750 -1.93750
vt 5.00000 -1.93750
vt 3.37500 -4.50000
vt 3.25000 -4.50000
vt 3.37500 -4.75000
vt 3.25000 -4.75000
vt 3.37500 -4.62500
vt 3.25000 -4.62500
vt 1.37500 -5.50000
vt 1.25000 -5.50000
vt 1.37500 -5.75000
vt 1.25000 -5.75000
vt 1.37500 -5.62500
vt 1.25000 -5.62500
vt 6.25000 -5.25000
vt 5.50000 -5.25000
vt 6.25000 -5.43750
vt 5.50000 -5.43750
vt 6.03125 -5.25000
vt 6.03125 -6.00000
vt 6.03125 -5.43750
vt 0.18750 -2.50000
vt 0.00000 -2.50000
vt 0.18750 -2.92187
vt 0.00000 -2.92187
vt 0.53125 -2.50000
vt 0.53125 -2.68750
vt 0.00000 -2.68750
vt 0.53125 -2.92187
vt 7.43750 -2.25000
vt 7.25000 -2.25000
vt 7.43750 -2.48438
vt 7.25000 -2.48438
vt 7.78125 -2.25000
vt 7.78125 -2.43750
vt 7.25000 -2.43750
vt 7.78125 -2.48438
vt 1.25000 0.00000
vt 0.50000 0.00000
vt 1.25000 -0.62500
vt 0.50000 -0.62500
vt 1.00000 0.00000
vt 1.00000 -0.75000
vt 0.50000 -0.75000
vt 1.00000 -0.62500
vt 5.50000 -0.50000
vt 4.75000 -0.50000
vt 5.50000 -0.62500
vt 4.75000 -0.62500
vt 5.00000 -0.50000
vt 5.00000 -1.25000
vt 4.75000 -1.25000
vt 5.00000 -0.62500
vt 6.50000 -5.75000
vt 5.50000 -5.75000
vt 6.50000 -6.43750
vt 5.50000 -6.43750
vt 5.75000 -5.75000
vt 5.75000 -6.75000
vt 5.50000 -6.75000
vt 5.75000 -6.43750
vt 6.93750 1.00000
vt 6.75000 1.00000
vt 6.93750 0.75000
vt 6.75000 0.75000
vt 7.90625 1.00000
vt 7.90625 0.81250
vt 6.75000 0.81250
vt 7.90625 0.75000
vt 7.87500 -0.87500
vt 7.75000 -0.87500
vt 8.00000 -0.50000
vt 8.00000 -0.62500
vt 8.00000 -0.87500
vt 4.43750 -1.75000
vt 4.00000 -1.75000
vt 4.43750 -1.87500
vt 4.00000 -1.87500
vt 4.25000 -1.75000
vt 4.25000 -2.18750
vt 4.00000 -2.18750
vt 4.25000 -1.87500
vt 2.12500 -4.00000
vt 2.00000 -4.00000
vt 2.12500 -4.75000
vt 2.00000 -4.75000
vt 2.25000 -4.00000
vt 2.25000 -4.12500
vt 2.00000 -4.12500
vt 2.25000 -4.75000
vt 3.75000 -1.00000
vt 3.50000 -1.00000
vt 3.75000 -1.25000
vt 3.50000 -1.25000
vt 4.40625 -1.00000
vt 4.40625 -1.25000
vt 6.37500 -4.50000
vt 6.00000 -4.50000
vt 6.37500 -4.68750
vt 6.00000 -4.68750
vt 6.90625 -4.50000
vt 6.90625 -4.87500
vt 6.00000 -4.87500
vt 6.90625 -4.68750
vt 1.93750 0.00000
vt 1.93750 -0.43750
vt 1.00000 -0.43750
vt 2.15625 0.00000
vt 2.15625 -0.93750
vt 1.00000 -0.93750
vt 2.15625 -0.43750
vt 2.93750 -1.25000
vt 2.00000 -1.25000
vt 2.93750 -1.87500
vt 2.00000 -1.87500
vt 3.12500 -1.25000
vt 3.12500 -2.18750
vt 2.00000 -2.18750
vt 3.12500 -1.87500
vt 3.62500 -4.00000
vt 3.25000 -4.00000
vt 3.62500 -4.62500
vt 4.12500 -4.00000
vt 4.12500 -4.37500
vt 3.25000 -4.37500
vt 4.12500 -4.62500
vt 7.68750 -4.00000
vt 6.75000 -4.00000
vt 7.68750 -4.12500
vt 6.75000 -4.12500
vt 7.62500 -4.00000
vt 7.62500 -4.93750
vt 6.75000 -4.93750
vt 7.62500 -4.12500
vt 7.62500 -6.25000
vt 7.25000 -6.25000
vt 7.62500 -6.37500
vt 7.25000 -6.37500
vt 7.87500 -6.25000
vt 7.87500 -6.62500
vt 7.25000 -6.62500
vt 7.87500 -6.37500
vt 0.37500 -1.75000
vt 0.00000 -1.75000
vt 0.37500 -2.31250
vt 0.00000 -2.31250
vt 0.37500 -2.12500
vt 0.00000 -2.12500
vt 4.68750 0.75000
vt 4.50000 0.75000
vt 4.68750 0.68750
vt 4.50000 0.68750
vt 5.53125 0.75000
vt 5.53125 0.56250
vt 4.50000 0.56250
vt 5.53125 0.68750
vt 5.37500 -1.50000
vt 5.25000 -1.50000
vt 5.37500 -1.62500
vt 5.25000 -1.62500
vt 6.28125 -1.50000
vt 6.28125 -1.62500
vt 8.25000 1.00000
vt 7.75000 1.00000
vt 8.25000 0.75000
vt 7.75000 0.75000
vt 8.78125 1.00000
vt 8.78125 0.50000
vt 7.75000 0.50000
vt 8.78125 0.75000
vt 3.62500 -5.75000
vt 3.50000 -5.75000
vt 3.62500 -6.06250
vt 3.50000 -6.06250
vt 3.75000 -5.75000
vt 3.75000 -5.87500
vt 3.50000 -5.87500
vt 3.75000 -6.06250
vt 5.68750 -5.25000
vt 5.68750 -5.43750
vt 6.12500 -5.25000
vt 6.12500 -5.43750
vt 3.12500 -1.50000
vt 3.00000 -1.50000
vt 3.12500 -1.62500
vt 3.00000 -1.62500
vt 3.65625 -1.50000
vt 3.65625 -1.62500
vt 4.37500 -3.50000
vt 3.00000 -3.50000
vt 4.37500 -3.68750
vt 3.00000 -3.68750
vt 4.03125 -3.50000
vt 4.03125 -4.87500
vt 3.00000 -4.87500
vt 4.03125 -3.68750
vt 6.93750 -5.00000
vt 6.25000 -5.00000
vt 6.93750 -5.25000
vt 6.90625 -5.00000
vt 6.90625 -5.68750
vt 6.25000 -5.68750
vt 6.90625 -5.25000
vt 7.43750 -5.75000
vt 6.75000 -5.75000
vt 7.43750 -5.87500
vt 6.75000 -5.87500
vt 7.00000 -5.75000
vt 7.00000 -6.43750
vt 7.00000 -5.87500
vt 1.62500 0.00000
vt 0.75000 0.00000
vt 1.62500 -0.43750
vt 0.75000 -0.43750
vt 1.00000 -0.87500
vt 0.75000 -0.87500
vt 5.37500 -3.25000
vt 5.25000 -3.25000
vt 5.37500 -3.43750
vt 5.25000 -3.43750
vt 6.28125 -3.25000
vt 6.28125 -3.37500
vt 5.25000 -3.37500
vt 6.28125 -3.43750
vt 1.43750 -6.75000
vt 1.25000 -6.75000
vt 1.43750 -6.93750
vt 1.25000 -6.93750
vt 1.90625 -6.75000
vt 1.90625 -6.93750
vt 0.62500 -3.50000
vt 0.50000 -3.50000
vt 0.62500 -3.75000
vt 0.50000 -3.75000
vt 0.75000 -3.50000
vt 0.75000 -3.62500
vt 0.50000 -3.62500
vt 0.75000 -3.75000
vt 4.50000 -6.75000
vt 4.25000 -6.75000
vt 4.50000 -7.25000
vt 4.50000 -7.00000
vt 4.25000 -7.00000
vt 3.62500 -6.75000
vt 3.50000 -6.75000
vt 3.62500 -6.87500
vt 3.50000 -6.87500
vt 6.62500 -5.00000
vt 6.50000 -5.00000
vt 6.62500 -5.12500
vt 6.50000 -5.12500
vt 0.12500 -0.50000
vt 0.00000 -0.50000
vt 0.12500 -0.62500
vt 0.00000 -0.62500
vt 4.62500 -4.00000
vt 4.50000 -4.00000
vt 4.62500 -4.12500
vt 4.50000 -4.12500
vt 1.37500 -4.25000
vt 1.25000 -4.25000
vt 1.37500 -4.37500
vt 1.25000 -4.37500
vt 1.37500 -4.50000
vt 1.25000 -4.50000
vt 1.37500 -4.62500
vt 1.25000 -4.62500
vt 2.12500 -6.25000
vt 2.00000 -6.25000
vt 2.12500 -6.37500
vt 2.00000 -6.37500
vt 0.62500 -1.00000
vt 0.50000 -1.00000
vt 0.62500 -1.12500
vt 0.50000 -1.12500
vt 2.87500 0.00000
vt 2.75000 0.00000
vt 2.87500 -0.12500
vt 2.75000 -0.12500
vt 6.00000 -5.25000
vt 6.12500 -5.37500
vt 6.00000 -5.37500
vt 2.62500 -1.25000
vt 2.50000 -1.25000
vt 2.62500 -1.37500
vt 2.50000 -1.37500
vt 0.37500 -5.00000
vt 0.25000 -5.00000
vt 0.37500 -5.12500
vt 0.25000 -5.12500
vt 4.62500 -5.00000
vt 4.50000 -5.00000
vt 4.62500 -5.12500
vt 4.50000 -5.12500
vt 6.31250 1.00000
vt 4.75000 1.00000
vt 6.31250 0.75000
vt 4.75000 0.75000
vt 5.75000 1.00000
vt 5.75000 -0.56250
vt 4.75000 -0.56250
vt 5.75000 0.75000
vt 7.18750 -4.75000
vt 6.50000 -4.75000
vt 7.18750 -4.87500
vt 6.50000 -4.87500
vt 7.12500 -4.75000
vt 7.12500 -5.43750
vt 6.50000 -5.43750
vt 7.12500 -4.87500
vt 1.62500 0.50000
vt 1.25000 0.50000
vt 1.62500 0.12500
vt 1.25000 0.12500
vt 1.31250 0.50000
vt 1.31250 0.12500
vt 3.12500 -2.25000
vt 2.75000 -2.25000
vt 3.12500 -2.62500
vt 2.75000 -2.62500
vt 2.81250 -2.25000
vt 2.81250 -2.62500
vt 2.81250 -3.75000
vt 2.00000 -3.75000
vt 2.81250 -3.93750
vt 2.00000 -3.93750
vt 2.31250 -3.75000
vt 2.31250 -4.56250
vt 2.00000 -4.56250
vt 2.31250 -3.93750
vt 8.81250 -1.75000
vt 7.25000 -1.75000
vt 8.81250 -2.12500
vt 7.25000 -2.12500
vt 8.25000 -1.75000
vt 8.25000 -3.31250
vt 7.25000 -3.31250
vt 8.25000 -2.12500
vt 4.62500 -4.75000
vt 4.25000 -4.75000
vt 4.25000 -5.12500
vt 5.37500 -4.75000
vt 5.37500 -5.12500
vt 3.00000 -2.75000
vt 2.50000 -2.75000
vt 3.00000 -2.93750
vt 2.50000 -2.93750
vt 2.81250 -2.75000
vt 2.81250 -3.25000
vt 2.50000 -3.25000
vt 2.81250 -2.93750
vt 4.06250 -1.00000
vt 3.25000 -1.00000
vt 4.06250 -1.18750
vt 3.25000 -1.18750
vt 3.56250 -1.00000
vt 3.56250 -1.81250
vt 3.25000 -1.81250
vt 3.56250 -1.18750
vt 6.68750 -1.75000
vt 6.00000 -1.75000
vt 6.68750 -2.12500
vt 6.00000 -2.12500
vt 6.62500 -1.75000
vt 6.62500 -2.43750
vt 6.00000 -2.43750
vt 6.62500 -2.12500
vt 2.50000 -1.50000
vt 2.00000 -1.50000
vt 2.50000 -1.68750
vt 2.00000 -1.68750
vt 2.31250 -1.50000
vt 2.31250 -2.00000
vt 2.00000 -2.00000
vt 2.31250 -1.68750
vt 5.43750 -3.25000
vt 5.43750 -3.43750
vt 7.18750 -5.50000
vt 7.00000 -5.50000
vt 7.18750 -5.68750
vt 7.00000 -5.68750
vt 5.18750 -4.00000
vt 5.00000 -4.00000
vt 5.18750 -4.18750
vt 5.00000 -4.18750
vt 6.12500 -4.00000
vt 6.12500 -4.18750
vt 4.56250 0.50000
vt 3.50000 0.50000
vt 4.56250 0.37500
vt 3.50000 0.37500
vt 4.12500 0.50000
vt 4.12500 -0.56250
vt 3.50000 -0.56250
vt 4.12500 0.37500
vt 1.00000 1.00000
vt 0.00000 1.00000
vt 3.62500 -5.25000
vt 3.00000 -5.25000
vt 3.62500 -5.37500
vt 3.00000 -5.37500
vt 3.37500 -5.25000
vt 3.37500 -5.87500
vt 3.00000 -5.87500
vt 3.37500 -5.37500
vt 1.12500 -6.00000
vt 0.50000 -6.00000
vt 1.12500 -6.37500
vt 0.50000 -6.37500
vt 1.12500 -6.62500
vt 0.50000 -6.62500
vt 4.93750 -5.75000
vt 4.50000 -5.75000
vt 4.93750 -5.93750
vt 4.50000 -5.93750
vt 4.68750 -5.75000
vt 4.68750 -6.18750
vt 4.50000 -6.18750
vt 4.68750 -5.93750
vt 5.31250 -4.75000
vt 4.75000 -4.75000
vt 5.31250 -5.00000
vt 4.75000 -5.00000
vt 5.06250 -4.75000
vt 5.06250 -5.31250
vt 4.75000 -5.31250
vt 5.06250 -5.00000
vt 3.18750 -5.25000
vt 2.75000 -5.25000
vt 3.18750 -5.31250
vt 2.75000 -5.31250
vt 2.93750 -5.25000
vt 2.93750 -5.68750
vt 2.75000 -5.68750
vt 2.93750 -5.31250
vt 3.31250 -4.00000
vt 2.75000 -4.00000
vt 3.31250 -4.18750
vt 2.75000 -4.18750
vt 3.09375 -4.00000
vt 3.09375 -4.56250
vt 2.75000 -4.56250
vt 3.09375 -4.18750
vt 7.37500 1.00000
vt 7.37500 0.81250
vt 7.40625 1.00000
vt 7.40625 0.37500
vt 6.75000 0.37500
vt 7.40625 0.81250
vt 0.12500 0.75000
vt 0.00000 0.75000
vt 0.12500 0.50000
vt 0.00000 0.50000
vt 0.65625 0.75000
vt 0.65625 0.62500
vt 0.00000 0.62500
vt 0.65625 0.50000
vt 1.87500 -6.75000
vt 1.75000 -6.75000
vt 1.87500 -6.87500
vt 1.75000 -6.87500
vt 2.40625 -6.75000
vt 2.40625 -6.87500
vt 4.93750 -0.75000
vt 4.75000 -0.75000
vt 4.93750 -0.87500
vt 4.75000 -0.87500
vt 5.09375 -0.75000
vt 5.09375 -0.93750
vt 4.75000 -0.93750
vt 5.09375 -0.87500
vn 1.0000 0.0000 0.0000
vn 0.0000 0.9685 0.2598
vn 0.0000 -0.2598 0.9685
vn -1.0000 0.0000 0.0000
vn 0.0000 -0.9685 -0.2598
vn 0.0000 0.2598 -0.9685
vn 0.0000 1.0000 0.0000
vn 0.0000 0.0000 1.0000
vn 0.0000 -1.0000 0.0000
vn 0.0000 0.0000 -1.0000
vn 0.0000 0.9843 0.1732
vn 0.0000 -0.1732 0.9843
vn 0.0000 -0.9843 -0.1732
vn 0.0000 0.1732 -0.9843
vn 0.0000 0.8661 -0.5039
vn 0.0000 0.5039 0.8661
vn 0.0000 -0.8661 0.5039
vn 0.0000 -0.5039 -0.8661
vn 0.0000 0.9370 -0.3386
vn 0.0000 0.3386 0.9370
vn 0.0000 -0.9370 0.3386
vn 0.0000 -0.3386 -0.9370
vn 0.0000 0.9843 -0.1732
vn 0.0000 0.1732 0.9843
vn 0.0000 -0.9843 0.1732
vn 0.0000 -0.1732 -0.9843
vn 0.0000 0.9370 0.3386
vn 0.0000 -0.3386 0.9370
vn 0.0000 -0.9370 -0.3386
vn 0.0000 0.3386 -0.9370
vn 1.0000 0.0157 0.0866
vn -0.0866 0.1732 0.9843
vn -1.0000 -0.0157 -0.0866
vn 0.0866 -0.1732 -0.9843
vn 1.0000 -0.0157 -0.0866
vn 0.0866 0.1732 0.9843
vn -1.0000 0.0157 0.0866
vn -0.0866 -0.1732 -0.9843
vn 0.0000 0.9685 -0.2598
vn 0.0000 0.2598 0.9685
vn 0.0000 -0.9685 0.2598
vn 0.0000 -0.2598 -0.9685
vn 0.0000 1.0000 0.0866
vn 0.0000 -0.0866 1.0000
vn 0.0000 -1.0000 -0.0866
vn 0.0000 0.0866 -1.0000

o UpperTorso
usemtl c_002060
f 1/1/1 2/2/1 3/3/1
f 3/3/1 2/2/1 4/4/1
f 5/5/2 2/2/2 6/6/2
f 6/6/2 2/2/2 1/4/2
f 2/5/3 5/2/3 4/6/3
f 4/6/3 5/2/3 7/4/3
f 5/1/4 6/2/4 7/3/4
f 7/3/4 6/2/4 8/4/4
f 8/5/5 3/2/5 7/6/5
f 7/6/5 3/2/5 4/4/5
f 6/5/6 1/2/6 8/6/6
f 8/6/6 1/2/6 3/4/6
f 9/7/1 10/8/1 11/9/1
f 11/9/1 10/8/1 12/10/1
f 13/11/2 10/8/2 14/12/2
f 14/12/2 10/8/2 9/10/2
f 10/11/3 13/8/3 12/12/3
f 12/12/3 13/8/3 15/10/3
f 13/7/4 14/8/4 15/9/4
f 15/9/4 14/8/4 16/10/4
f 16/11/5 11/8/5 15/12/5
f 15/12/5 11/8/5 12/10/5
f 14/11/6 9/8/6 16/12/6
f 16/12/6 9/8/6 11/10/6
f 17/13/1 18/14/1 19/15/1
f 19/15/1 18/14/1 2/16/1
f 20/17/2 18/14/2 21/18/2
f 21/18/2 18/14/2 17/16/2
f 18/17/3 20/14/3 2/18/3
f 2/18/3 20/14/3 5/16/3
f 20/13/4 21/14/4 5/15/4
f 5/15/4 21/14/4 22/16/4
f 22/17/5 19/14/5 5/18/5
f 5/18/5 19/14/5 2/16/5
f 21/17/6 17/14/6 22/18/6
f 22/18/6 17/14/6 19/16/6
f 23/19/1 24/20/1 25/21/1
f 25/21/1 24/20/1 18/22/1
f 26/23/2 24/20/2 27/24/2
f 27/24/2 24/20/2 23/25/2
f 24/23/3 26/20/3 18/26/3
f 18/26/3 26/20/3 20/22/3
f 26/19/4 27/20/4 20/21/4
f 20/21/4 27/20/4 28/22/4
f 28/23/5 25/20/5 20/24/5
f 20/24/5 25/20/5 18/25/5
f 27/23/6 23/20/6 28/26/6
f 28/26/6 23/20/6 25/22/6
usemtl c_465670
f 29/27/1 30/28/1 31/29/1
f 31/29/1 30/28/1 32/30/1
f 33/31/2 30/28/2 34/32/2
f 34/32/2 30/28/2 29/30/2
f 30/31/3 33/28/3 32/32/3
f 32/32/3 33/28/3 35/30/3
f 33/27/4 34/28/4 35/29/4
f 35/29/4 34/28/4 36/30/4
f 36/31/5 31/28/5 35/32/5
f 35/32/5 31/28/5 32/30/5
f 34/31/6 29/28/6 36/32/6
f 36/32/6 29/28/6 31/30/6
usemtl c_74869d
f 37/33/1 38/31/1 39/34/1
f 39/34/1 38/31/1 40/35/1
f 41/36/2 38/31/2 42/37/2
f 42/37/2 38/31/2 37/32/2
f 38/36/3 41/31/3 40/38/3
f 40/38/3 41/31/3 43/35/3
f 41/33/4 42/31/4 43/34/4
f 43/34/4 42/31/4 44/35/4
f 44/36/5 39/31/5 43/37/5
f 43/37/5 39/31/5 40/32/5
f 42/36/6 37/31/6 44/38/6
f 44/38/6 37/31/6 39/35/6
o LeftFoot
usemtl c_1b2a35
f 45/39/1 46/40/1 47/41/1
f 47/41/1 46/40/1 48/42/1
f 49/43/7 46/40/7 50/44/7
f 50/44/7 46/40/7 45/45/7
f 46/43/8 49/40/8 48/46/8
f 48/46/8 49/40/8 51/42/8
f 49/39/4 50/40/4 51/41/4
f 51/41/4 50/40/4 52/42/4
f 52/43/9 47/40/9 51/44/9
f 51/44/9 47/40/9 48/45/9
f 50/43/10 45/40/10 52/46/10
f 52/46/10 45/40/10 47/42/10
f 53/47/1 54/48/1 55/49/1
f 55/49/1 54/48/1 56/50/1
f 57/47/7 54/48/7 58/49/7
f 58/49/7 54/48/7 53/50/7
f 54/47/8 57/48/8 56/49/8
f 56/49/8 57/48/8 59/50/8
f 57/47/4 58/48/4 59/49/4
f 59/49/4 58/48/4 60/50/4
f 60/47/9 55/48/9 59/49/9
f 59/49/9 55/48/9 56/50/9
f 58/47/10 53/48/10 60/49/10
f 60/49/10 53/48/10 55/50/10
f 61/51/1 62/52/1 63/53/1
f 63/53/1 62/52/1 64/54/1
f 65/51/7 62/52/7 66/53/7
f 66/53/7 62/52/7 61/54/7
f 62/51/8 65/52/8 64/53/8
f 64/53/8 65/52/8 67/54/8
f 65/51/4 66/52/4 67/53/4
f 67/53/4 66/52/4 68/54/4
f 68/51/9 63/52/9 67/53/9
f 67/53/9 63/52/9 64/54/9
f 66/51/10 61/52/10 68/53/10
f 68/53/10 61/52/10 63/54/10
usemtl c_465670
f 54/55/1 69/56/1 56/57/1
f 56/57/1 69/56/1 70/58/1
f 71/59/7 69/56/7 65/60/7
f 65/60/7 69/56/7 54/61/7
f 69/59/8 71/56/8 70/62/8
f 70/62/8 71/56/8 72/58/8
f 71/55/4 65/56/4 72/57/4
f 72/57/4 65/56/4 67/58/4
f 67/59/9 56/56/9 72/60/9
f 72/60/9 56/56/9 70/61/9
f 65/59/10 54/56/10 67/62/10
f 67/62/10 54/56/10 56/58/10
o LeftLowerLeg
usemtl c_465670
f 73/63/1 74/64/1 75/65/1
f 75/65/1 74/64/1 76/66/1
f 77/63/11 74/64/11 78/67/11
f 78/67/11 74/64/11 73/68/11
f 74/63/12 77/64/12 76/65/12
f 76/65/12 77/64/12 79/66/12
f 77/63/4 78/64/4 79/65/4
f 79/65/4 78/64/4 80/66/4
f 80/63/13 75/64/13 79/67/13
f 79/67/13 75/64/13 76/68/13
f 78/63/14 73/64/14 80/65/14
f 80/65/14 73/64/14 75/66/14
o LeftUpperLeg
usemtl c_002060
f 81/69/1 82/70/1 83/71/1
f 83/71/1 82/70/1 84/72/1
f 85/73/11 82/70/11 86/74/11
f 86/74/11 82/70/11 81/75/11
f 82/73/12 85/70/12 84/76/12
f 84/76/12 85/70/12 87/72/12
f 85/69/4 86/70/4 87/71/4
f 87/71/4 86/70/4 88/72/4
f 88/73/13 83/70/13 87/74/13
f 87/74/13 83/70/13 84/75/13
f 86/73/14 81/70/14 88/76/14
f 88/76/14 81/70/14 83/72/14
f 89/77/1 90/78/1 91/79/1
f 91/79/1 90/78/1 92/80/1
f 93/81/11 90/78/11 94/82/11
f 94/82/11 90/78/11 89/83/11
f 90/81/12 93/78/12 92/84/12
f 92/84/12 93/78/12 95/80/12
f 93/77/4 94/78/4 95/79/4
f 95/79/4 94/78/4 96/80/4
f 96/81/13 91/78/13 95/82/13
f 95/82/13 91/78/13 92/83/13
f 94/81/14 89/78/14 96/84/14
f 96/84/14 89/78/14 91/80/14
f 97/85/1 98/86/1 99/87/1
f 99/87/1 98/86/1 100/88/1
f 101/89/11 98/86/11 102/90/11
f 102/90/11 98/86/11 97/91/11
f 98/89/12 101/86/12 100/92/12
f 100/92/12 101/86/12 103/88/12
f 101/85/4 102/86/4 103/87/4
f 103/87/4 102/86/4 104/88/4
f 104/89/13 99/86/13 103/90/13
f 103/90/13 99/86/13 100/91/13
f 102/89/14 97/86/14 104/92/14
f 104/92/14 97/86/14 99/88/14
usemtl c_465670
f 105/93/1 106/94/1 107/95/1
f 107/95/1 106/94/1 108/96/1
f 109/97/11 106/94/11 110/98/11
f 110/98/11 106/94/11 105/99/11
f 106/97/12 109/94/12 108/100/12
f 108/100/12 109/94/12 111/96/12
f 109/93/4 110/94/4 111/95/4
f 111/95/4 110/94/4 112/96/4
f 112/97/13 107/94/13 111/98/13
f 111/98/13 107/94/13 108/99/13
f 110/97/14 105/94/14 112/100/14
f 112/100/14 105/94/14 107/96/14
o RightFoot
usemtl c_1b2a35
f 113/101/1 114/102/1 115/103/1
f 115/103/1 114/102/1 116/104/1
f 117/101/7 114/102/7 118/103/7
f 118/103/7 114/102/7 113/104/7
f 114/101/8 117/102/8 116/103/8
f 116/103/8 117/102/8 119/104/8
f 117/101/4 118/102/4 119/103/4
f 119/103/4 118/102/4 120/104/4
f 120/101/9 115/102/9 119/103/9
f 119/103/9 115/102/9 116/104/9
f 118/101/10 113/102/10 120/103/10
f 120/103/10 113/102/10 115/104/10
f 121/105/1 122/106/1 123/107/1
f 123/107/1 122/106/1 124/108/1
f 125/105/7 122/106/7 126/107/7
f 126/107/7 122/106/7 121/108/7
f 122/105/8 125/106/8 124/107/8
f 124/107/8 125/106/8 127/108/8
f 125/105/4 126/106/4 127/107/4
f 127/107/4 126/106/4 128/108/4
f 128/105/9 123/106/9 127/107/9
f 127/107/9 123/106/9 124/108/9
f 126/105/10 121/106/10 128/107/10
f 128/107/10 121/106/10 123/108/10
f 129/109/1 130/110/1 131/111/1
f 131/111/1 130/110/1 132/112/1
f 133/113/7 130/110/7 134/114/7
f 134/114/7 130/110/7 129/115/7
f 130/113/8 133/110/8 132/116/8
f 132/116/8 133/110/8 135/112/8
f 133/109/4 134/110/4 135/111/4
f 135/111/4 134/110/4 136/112/4
f 136/113/9 131/110/9 135/114/9
f 135/114/9 131/110/9 132/115/9
f 134/113/10 129/110/10 136/116/10
f 136/116/10 129/110/10 131/112/10
usemtl c_465670
f 114/117/1 137/118/1 116/119/1
f 116/119/1 137/118/1 138/120/1
f 139/121/7 137/118/7 125/122/7
f 125/122/7 137/118/7 114/123/7
f 137/121/8 139/118/8 138/124/8
f 138/124/8 139/118/8 140/120/8
f 139/117/4 125/118/4 140/119/4
f 140/119/4 125/118/4 127/120/4
f 127/121/9 116/118/9 140/122/9
f 140/122/9 116/118/9 138/123/9
f 125/121/10 114/118/10 127/124/10
f 127/124/10 114/118/10 116/120/10
o LeftUpperArm
usemtl c_1b2a35
f 141/125/1 142/126/1 143/127/1
f 143/127/1 142/126/1 144/128/1
f 145/125/7 142/126/7 146/129/7
f 146/129/7 142/126/7 141/130/7
f 142/125/8 145/126/8 144/127/8
f 144/127/8 145/126/8 147/128/8
f 145/125/4 146/126/4 147/127/4
f 147/127/4 146/126/4 148/128/4
f 148/125/9 143/126/9 147/129/9
f 147/129/9 143/126/9 144/130/9
f 146/125/10 141/126/10 148/127/10
f 148/127/10 141/126/10 143/128/10
f 149/131/1 150/132/1 151/133/1
f 151/133/1 150/132/1 152/134/1
f 153/131/7 150/132/7 154/135/7
f 154/135/7 150/132/7 149/136/7
f 150/131/8 153/132/8 152/133/8
f 152/133/8 153/132/8 155/134/8
f 153/131/4 154/132/4 155/133/4
f 155/133/4 154/132/4 156/134/4
f 156/131/9 151/132/9 155/135/9
f 155/135/9 151/132/9 152/136/9
f 154/131/10 149/132/10 156/133/10
f 156/133/10 149/132/10 151/134/10
usemtl c_465670
f 157/137/1 158/138/1 159/139/1
f 159/139/1 158/138/1 160/140/1
f 161/137/7 158/138/7 162/141/7
f 162/141/7 158/138/7 157/142/7
f 158/137/8 161/138/8 160/139/8
f 160/139/8 161/138/8 163/140/8
f 161/137/4 162/138/4 163/139/4
f 163/139/4 162/138/4 164/140/4
f 164/137/9 159/138/9 163/141/9
f 163/141/9 159/138/9 160/142/9
f 162/137/10 157/138/10 164/139/10
f 164/139/10 157/138/10 159/140/10
f 165/143/1 166/144/1 167/145/1
f 167/145/1 166/144/1 159/146/1
f 168/143/7 166/144/7 169/147/7
f 169/147/7 166/144/7 165/148/7
f 166/143/8 168/144/8 159/145/8
f 159/145/8 168/144/8 164/146/8
f 168/143/4 169/144/4 164/145/4
f 164/145/4 169/144/4 170/146/4
f 170/143/9 167/144/9 164/147/9
f 164/147/9 167/144/9 159/148/9
f 169/143/10 165/144/10 170/145/10
f 170/145/10 165/144/10 167/146/10
o RightUpperArm
usemtl c_465670
f 171/149/1 172/150/1 173/151/1
f 173/151/1 172/150/1 174/152/1
f 175/149/7 172/150/7 176/153/7
f 176/153/7 172/150/7 171/154/7
f 172/149/8 175/150/8 174/151/8
f 174/151/8 175/150/8 177/152/8
f 175/149/4 176/150/4 177/151/4
f 177/151/4 176/150/4 178/152/4
f 178/149/9 173/150/9 177/153/9
f 177/153/9 173/150/9 174/154/9
f 176/149/10 171/150/10 178/151/10
f 178/151/10 171/150/10 173/152/10
f 179/155/1 180/156/1 174/157/1
f 174/157/1 180/156/1 181/158/1
f 182/155/7 180/156/7 183/159/7
f 183/159/7 180/156/7 179/160/7
f 180/155/8 182/156/8 181/157/8
f 181/157/8 182/156/8 184/158/8
f 182/155/4 183/156/4 184/157/4
f 184/157/4 183/156/4 177/158/4
f 177/155/9 174/156/9 184/159/9
f 184/159/9 174/156/9 181/160/9
f 183/155/10 179/156/10 177/157/10
f 177/157/10 179/156/10 174/158/10
usemtl c_1b2a35
f 185/161/1 186/162/1 187/163/1
f 187/163/1 186/162/1 188/164/1
f 189/161/7 186/162/7 190/165/7
f 190/165/7 186/162/7 185/166/7
f 186/161/8 189/162/8 188/163/8
f 188/163/8 189/162/8 191/164/8
f 189/161/4 190/162/4 191/163/4
f 191/163/4 190/162/4 192/164/4
f 192/161/9 187/162/9 191/165/9
f 191/165/9 187/162/9 188/166/9
f 190/161/10 185/162/10 192/163/10
f 192/163/10 185/162/10 187/164/10
f 193/167/1 194/168/1 195/169/1
f 195/169/1 194/168/1 196/170/1
f 197/167/7 194/168/7 198/171/7
f 198/171/7 194/168/7 193/172/7
f 194/167/8 197/168/8 196/169/8
f 196/169/8 197/168/8 199/170/8
f 197/167/4 198/168/4 199/169/4
f 199/169/4 198/168/4 200/170/4
f 200/167/9 195/168/9 199/171/9
f 199/171/9 195/168/9 196/172/9
f 198/167/10 193/168/10 200/169/10
f 200/169/10 193/168/10 195/170/10
o RightUpperLeg
usemtl c_002060
f 201/173/1 202/174/1 203/175/1
f 203/175/1 202/174/1 204/176/1
f 205/177/11 202/174/11 206/178/11
f 206/178/11 202/174/11 201/110/11
f 202/177/12 205/174/12 204/179/12
f 204/179/12 205/174/12 207/176/12
f 205/173/4 206/174/4 207/175/4
f 207/175/4 206/174/4 208/176/4
f 208/177/13 203/174/13 207/178/13
f 207/178/13 203/174/13 204/110/13
f 206/177/14 201/174/14 208/179/14
f 208/179/14 201/174/14 203/176/14
f 209/180/1 210/181/1 211/182/1
f 211/182/1 210/181/1 212/183/1
f 213/184/11 210/181/11 214/185/11
f 214/185/11 210/181/11 209/186/11
f 210/184/12 213/181/12 212/187/12
f 212/187/12 213/181/12 215/183/12
f 213/180/4 214/181/4 215/182/4
f 215/182/4 214/181/4 216/183/4
f 216/184/13 211/181/13 215/185/13
f 215/185/13 211/181/13 212/186/13
f 214/184/14 209/181/14 216/187/14
f 216/187/14 209/181/14 211/183/14
f 217/188/1 218/189/1 219/190/1
f 219/190/1 218/189/1 220/191/1
f 221/192/11 218/189/11 222/193/11
f 222/193/11 218/189/11 217/194/11
f 218/192/12 221/189/12 220/195/12
f 220/195/12 221/189/12 223/191/12
f 221/188/4 222/189/4 223/190/4
f 223/190/4 222/189/4 224/191/4
f 224/192/13 219/189/13 223/193/13
f 223/193/13 219/189/13 220/194/13
f 222/192/14 217/189/14 224/195/14
f 224/195/14 217/189/14 219/191/14
usemtl c_465670
f 225/196/1 226/197/1 227/198/1
f 227/198/1 226/197/1 228/199/1
f 229/200/11 226/197/11 230/201/11
f 230/201/11 226/197/11 225/202/11
f 226/200/12 229/197/12 228/203/12
f 228/203/12 229/197/12 231/199/12
f 229/196/4 230/197/4 231/198/4
f 231/198/4 230/197/4 232/199/4
f 232/200/13 227/197/13 231/201/13
f 231/201/13 227/197/13 228/202/13
f 230/200/14 225/197/14 232/203/14
f 232/203/14 225/197/14 227/199/14
o LowerTorso
usemtl c_002060
f 233/204/1 234/205/1 235/206/1
f 235/206/1 234/205/1 236/207/1
f 237/208/15 234/205/15 238/209/15
f 238/209/15 234/205/15 233/210/15
f 234/208/16 237/205/16 236/211/16
f 236/211/16 237/205/16 239/207/16
f 237/204/4 238/205/4 239/206/4
f 239/206/4 238/205/4 240/207/4
f 240/208/17 235/205/17 239/209/17
f 239/209/17 235/205/17 236/210/17
f 238/208/18 233/205/18 240/211/18
f 240/211/18 233/205/18 235/207/18
f 235/212/1 241/213/1 242/214/1
f 242/214/1 241/213/1 243/215/1
f 244/216/15 241/213/15 240/217/15
f 240/217/15 241/213/15 235/218/15
f 241/216/16 244/213/16 243/219/16
f 243/219/16 244/213/16 245/215/16
f 244/212/4 240/213/4 245/214/4
f 245/214/4 240/213/4 246/215/4
f 246/216/17 242/213/17 245/217/17
f 245/217/17 242/213/17 243/218/17
f 240/216/18 235/213/18 246/219/18
f 246/219/18 235/213/18 242/215/18
f 247/220/1 248/221/1 249/222/1
f 249/222/1 248/221/1 250/223/1
f 251/224/2 248/221/2 252/225/2
f 252/225/2 248/221/2 247/226/2
f 248/224/3 251/221/3 250/227/3
f 250/227/3 251/221/3 253/223/3
f 251/220/4 252/221/4 253/222/4
f 253/222/4 252/221/4 254/223/4
f 254/224/5 249/221/5 253/225/5
f 253/225/5 249/221/5 250/226/5
f 252/224/6 247/221/6 254/227/6
f 254/227/6 247/221/6 249/223/6
f 255/1/1 256/2/1 257/228/1
f 257/228/1 256/2/1 258/229/1
f 259/230/15 256/2/15 260/231/15
f 260/231/15 256/2/15 255/4/15
f 256/230/16 259/2/16 258/232/16
f 258/232/16 259/2/16 261/229/16
f 259/1/4 260/2/4 261/228/4
f 261/228/4 260/2/4 262/229/4
f 262/230/17 257/2/17 261/231/17
f 261/231/17 257/2/17 258/4/17
f 260/230/18 255/2/18 262/232/18
f 262/232/18 255/2/18 257/229/18
f 263/233/1 264/234/1 233/235/1
f 233/235/1 264/234/1 265/236/1
f 266/237/15 264/234/15 267/238/15
f 267/238/15 264/234/15 263/239/15
f 264/237/16 266/234/16 265/240/16
f 265/240/16 266/234/16 268/236/16
f 266/233/4 267/234/4 268/235/4
f 268/235/4 267/234/4 238/236/4
f 238/237/17 233/234/17 268/238/17
f 268/238/17 233/234/17 265/239/17
f 267/237/18 263/234/18 238/240/18
f 238/240/18 263/234/18 233/236/18
f 269/241/1 270/242/1 271/243/1
f 271/243/1 270/242/1 272/244/1
f 273/245/15 270/242/15 274/246/15
f 274/246/15 270/242/15 269/247/15
f 270/245/16 273/242/16 272/248/16
f 272/248/16 273/242/16 275/244/16
f 273/241/4 274/242/4 275/243/4
f 275/243/4 274/242/4 276/244/4
f 276/245/17 271/242/17 275/246/17
f 275/246/17 271/242/17 272/247/17
f 274/245/18 269/242/18 276/248/18
f 276/248/18 269/242/18 271/244/18
f 277/249/1 278/250/1 279/251/1
f 279/251/1 278/250/1 280/252/1
f 281/253/2 278/250/2 282/254/2
f 282/254/2 278/250/2 277/252/2
f 278/253/3 281/250/3 280/254/3
f 280/254/3 281/250/3 283/252/3
f 281/249/4 282/250/4 283/251/4
f 283/251/4 282/250/4 284/252/4
f 284/253/5 279/250/5 283/254/5
f 283/254/5 279/250/5 280/252/5
f 282/253/6 277/250/6 284/254/6
f 284/254/6 277/250/6 279/252/6
f 285/255/1 286/256/1 277/257/1
f 277/257/1 286/256/1 287/258/1
f 288/259/2 286/256/2 289/260/2
f 289/260/2 286/256/2 285/261/2
f 286/259/3 288/256/3 287/262/3
f 287/262/3 288/256/3 290/258/3
f 288/255/4 289/256/4 290/257/4
f 290/257/4 289/256/4 282/258/4
f 282/259/5 277/256/5 290/260/5
f 290/260/5 277/256/5 287/261/5
f 289/259/6 285/256/6 282/262/6
f 282/262/6 285/256/6 277/258/6
f 291/263/1 292/200/1 293/264/1
f 293/264/1 292/200/1 294/265/1
f 295/266/2 292/200/2 296/267/2
f 296/267/2 292/200/2 291/268/2
f 292/266/3 295/200/3 294/269/3
f 294/269/3 295/200/3 297/265/3
f 295/263/4 296/200/4 297/264/4
f 297/264/4 296/200/4 298/265/4
f 298/266/5 293/200/5 297/267/5
f 297/267/5 293/200/5 294/268/5
f 296/266/6 291/200/6 298/269/6
f 298/269/6 291/200/6 293/265/6
usemtl c_465670
f 299/270/1 300/271/1 301/272/1
f 301/272/1 300/271/1 302/273/1
f 303/274/2 300/271/2 304/275/2
f 304/275/2 300/271/2 299/276/2
f 300/274/3 303/271/3 302/277/3
f 302/277/3 303/271/3 305/273/3
f 303/270/4 304/271/4 305/272/4
f 305/272/4 304/271/4 306/273/4
f 306/274/5 301/271/5 305/275/5
f 305/275/5 301/271/5 302/276/5
f 304/274/6 299/271/6 306/277/6
f 306/277/6 299/271/6 301/273/6
f 307/278/1 308/279/1 309/280/1
f 309/280/1 308/279/1 310/166/1
f 311/281/2 308/279/2 312/282/2
f 312/282/2 308/279/2 307/283/2
f 308/281/3 311/279/3 310/284/3
f 310/284/3 311/279/3 313/166/3
f 311/278/4 312/279/4 313/280/4
f 313/280/4 312/279/4 314/166/4
f 314/281/5 309/279/5 313/282/5
f 313/282/5 309/279/5 310/283/5
f 312/281/6 307/279/6 314/284/6
f 314/284/6 307/279/6 309/166/6
usemtl c_74869d
f 315/285/1 316/286/1 317/287/1
f 317/287/1 316/286/1 318/288/1
f 319/289/2 316/286/2 320/290/2
f 320/290/2 316/286/2 315/291/2
f 316/289/3 319/286/3 318/292/3
f 318/292/3 319/286/3 321/288/3
f 319/285/4 320/286/4 321/287/4
f 321/287/4 320/286/4 322/288/4
f 322/289/5 317/286/5 321/290/5
f 321/290/5 317/286/5 318/291/5
f 320/289/6 315/286/6 322/292/6
f 322/292/6 315/286/6 317/288/6
f 323/293/1 324/294/1 325/295/1
f 325/295/1 324/294/1 326/296/1
f 327/297/2 324/294/2 328/298/2
f 328/298/2 324/294/2 323/299/2
f 324/297/3 327/294/3 326/300/3
f 326/300/3 327/294/3 329/296/3
f 327/293/4 328/294/4 329/295/4
f 329/295/4 328/294/4 330/296/4
f 330/297/5 325/294/5 329/298/5
f 329/298/5 325/294/5 326/299/5
f 328/297/6 323/294/6 330/300/6
f 330/300/6 323/294/6 325/296/6
o RightLowerLeg
usemtl c_465670
f 331/301/1 332/302/1 333/303/1
f 333/303/1 332/302/1 334/304/1
f 335/301/11 332/302/11 336/305/11
f 336/305/11 332/302/11 331/306/11
f 332/301/12 335/302/12 334/303/12
f 334/303/12 335/302/12 337/304/12
f 335/301/4 336/302/4 337/303/4
f 337/303/4 336/302/4 338/304/4
f 338/301/13 333/302/13 337/305/13
f 337/305/13 333/302/13 334/306/13
f 336/301/14 331/302/14 338/303/14
f 338/303/14 331/302/14 333/304/14
o Head
usemtl c_002060
f 339/307/1 340/308/1 341/309/1
f 341/309/1 340/308/1 342/310/1
f 343/311/7 340/308/7 344/312/7
f 344/312/7 340/308/7 339/313/7
f 340/311/8 343/308/8 342/314/8
f 342/314/8 343/308/8 345/310/8
f 343/307/4 344/308/4 345/309/4
f 345/309/4 344/308/4 346/310/4
f 346/311/9 341/308/9 345/312/9
f 345/312/9 341/308/9 342/313/9
f 344/311/10 339/308/10 346/314/10
f 346/314/10 339/308/10 341/310/10
f 347/315/1 348/316/1 349/317/1
f 349/317/1 348/316/1 350/318/1
f 351/319/7 348/316/7 352/320/7
f 352/320/7 348/316/7 347/318/7
f 348/319/8 351/316/8 350/320/8
f 350/320/8 351/316/8 353/318/8
f 351/315/4 352/316/4 353/317/4
f 353/317/4 352/316/4 354/318/4
f 354/319/9 349/316/9 353/320/9
f 353/320/9 349/316/9 350/318/9
f 352/319/10 347/316/10 354/320/10
f 354/320/10 347/316/10 349/318/10
f 355/321/1 356/322/1 357/323/1
f 357/323/1 356/322/1 358/324/1
f 359/325/7 356/322/7 360/326/7
f 360/326/7 356/322/7 355/327/7
f 356/325/8 359/322/8 358/328/8
f 358/328/8 359/322/8 361/324/8
f 359/321/4 360/322/4 361/323/4
f 361/323/4 360/322/4 362/324/4
f 362/325/9 357/322/9 361/326/9
f 361/326/9 357/322/9 358/327/9
f 360/325/10 355/322/10 362/328/10
f 362/328/10 355/322/10 357/324/10
f 363/329/1 364/330/1 365/331/1
f 365/331/1 364/330/1 366/332/1
f 367/333/19 364/330/19 368/334/19
f 368/334/19 364/330/19 363/335/19
f 364/333/20 367/330/20 366/336/20
f 366/336/20 367/330/20 369/332/20
f 367/329/4 368/330/4 369/331/4
f 369/331/4 368/330/4 370/332/4
f 370/333/21 365/330/21 369/334/21
f 369/334/21 365/330/21 366/335/21
f 368/333/22 363/330/22 370/336/22
f 370/336/22 363/330/22 365/332/22
f 371/337/1 372/174/1 373/338/1
f 373/338/1 372/174/1 374/176/1
f 375/339/7 372/174/7 376/340/7
f 376/340/7 372/174/7 371/176/7
f 372/339/8 375/174/8 374/340/8
f 374/340/8 375/174/8 377/176/8
f 375/337/4 376/174/4 377/338/4
f 377/338/4 376/174/4 378/176/4
f 378/339/9 373/174/9 377/340/9
f 377/340/9 373/174/9 374/176/9
f 376/339/10 371/174/10 378/340/10
f 378/340/10 371/174/10 373/176/10
f 379/341/1 380/342/1 381/343/1
f 381/343/1 380/342/1 382/344/1
f 383/345/11 380/342/11 384/346/11
f 384/346/11 380/342/11 379/344/11
f 380/345/12 383/342/12 382/346/12
f 382/346/12 383/342/12 385/344/12
f 383/341/4 384/342/4 385/343/4
f 385/343/4 384/342/4 386/344/4
f 386/345/13 381/342/13 385/346/13
f 385/346/13 381/342/13 382/344/13
f 384/345/14 379/342/14 386/346/14
f 386/346/14 379/342/14 381/344/14
f 387/347/1 388/348/1 389/349/1
f 389/349/1 388/348/1 390/350/1
f 391/351/7 388/348/7 392/352/7
f 392/352/7 388/348/7 387/353/7
f 388/351/8 391/348/8 390/354/8
f 390/354/8 391/348/8 393/350/8
f 391/347/4 392/348/4 393/349/4
f 393/349/4 392/348/4 394/350/4
f 394/351/9 389/348/9 393/352/9
f 393/352/9 389/348/9 390/353/9
f 392/351/10 387/348/10 394/354/10
f 394/354/10 387/348/10 389/350/10
f 395/355/1 396/356/1 397/357/1
f 397/357/1 396/356/1 398/173/1
f 399/358/11 396/356/11 400/359/11
f 400/359/11 396/356/11 395/360/11
f 396/358/12 399/356/12 398/361/12
f 398/361/12 399/356/12 401/173/12
f 399/355/4 400/356/4 401/357/4
f 401/357/4 400/356/4 402/173/4
f 402/358/13 397/356/13 401/359/13
f 401/359/13 397/356/13 398/360/13
f 400/358/14 395/356/14 402/361/14
f 402/361/14 395/356/14 397/173/14
f 403/362/1 404/363/1 405/364/1
f 405/364/1 404/363/1 406/365/1
f 407/366/19 404/363/19 408/367/19
f 408/367/19 404/363/19 403/148/19
f 404/366/20 407/363/20 406/368/20
f 406/368/20 407/363/20 409/365/20
f 407/362/4 408/363/4 409/364/4
f 409/364/4 408/363/4 410/365/4
f 410/366/21 405/363/21 409/367/21
f 409/367/21 405/363/21 406/148/21
f 408/366/22 403/363/22 410/368/22
f 410/368/22 403/363/22 405/365/22
f 411/369/1 412/370/1 413/371/1
f 413/371/1 412/370/1 414/372/1
f 415/200/19 412/370/19 416/373/19
f 416/373/19 412/370/19 411/374/19
f 412/200/20 415/370/20 414/265/20
f 414/265/20 415/370/20 417/372/20
f 415/369/4 416/370/4 417/371/4
f 417/371/4 416/370/4 418/372/4
f 418/200/21 413/370/21 417/373/21
f 417/373/21 413/370/21 414/374/21
f 416/200/22 411/370/22 418/265/22
f 418/265/22 411/370/22 413/372/22
f 419/375/1 420/376/1 421/377/1
f 421/377/1 420/376/1 422/378/1
f 423/379/7 420/376/7 424/380/7
f 424/380/7 420/376/7 419/381/7
f 420/379/8 423/376/8 422/382/8
f 422/382/8 423/376/8 425/378/8
f 423/375/4 424/376/4 425/377/4
f 425/377/4 424/376/4 426/378/4
f 426/379/9 421/376/9 425/380/9
f 425/380/9 421/376/9 422/381/9
f 424/379/10 419/376/10 426/382/10
f 426/382/10 419/376/10 421/378/10
f 427/383/1 428/384/1 429/385/1
f 429/385/1 428/384/1 380/386/1
f 430/387/11 428/384/11 431/388/11
f 431/388/11 428/384/11 427/386/11
f 428/387/12 430/384/12 380/388/12
f 380/388/12 430/384/12 383/386/12
f 430/383/4 431/384/4 383/385/4
f 383/385/4 431/384/4 432/386/4
f 432/387/13 429/384/13 383/388/13
f 383/388/13 429/384/13 380/386/13
f 431/387/14 427/384/14 432/388/14
f 432/388/14 427/384/14 429/386/14
f 433/389/1 434/390/1 435/391/1
f 435/391/1 434/390/1 436/392/1
f 437/393/19 434/390/19 438/394/19
f 438/394/19 434/390/19 433/395/19
f 434/393/20 437/390/20 436/396/20
f 436/396/20 437/390/20 439/392/20
f 437/389/4 438/390/4 439/391/4
f 439/391/4 438/390/4 440/392/4
f 440/393/21 435/390/21 439/394/21
f 439/394/21 435/390/21 436/395/21
f 438/393/22 433/390/22 440/396/22
f 440/396/22 433/390/22 435/392/22
f 441/397/1 442/398/1 443/399/1
f 443/399/1 442/398/1 444/98/1
f 445/397/19 442/398/19 446/400/19
f 446/400/19 442/398/19 441/401/19
f 442/397/20 445/398/20 444/399/20
f 444/399/20 445/398/20 447/98/20
f 445/397/4 446/398/4 447/399/4
f 447/399/4 446/398/4 448/98/4
f 448/397/21 443/398/21 447/400/21
f 447/400/21 443/398/21 444/401/21
f 446/397/22 441/398/22 448/399/22
f 448/399/22 441/398/22 443/98/22
usemtl c_ffcc99
f 449/402/1 450/403/1 451/404/1
f 451/404/1 450/403/1 452/405/1
f 453/402/7 450/403/7 454/404/7
f 454/404/7 450/403/7 449/405/7
f 450/402/8 453/403/8 452/404/8
f 452/404/8 453/403/8 455/405/8
f 453/402/4 454/403/4 455/404/4
f 455/404/4 454/403/4 456/405/4
f 456/402/9 451/403/9 455/404/9
f 455/404/9 451/403/9 452/405/9
f 454/402/10 449/403/10 456/404/10
f 456/404/10 449/403/10 451/405/10
f 457/406/1 458/407/1 459/408/1
f 459/408/1 458/407/1 460/409/1
f 461/406/7 458/407/7 462/408/7
f 462/408/7 458/407/7 457/409/7
f 458/406/8 461/407/8 460/408/8
f 460/408/8 461/407/8 463/409/8
f 461/406/4 462/407/4 463/408/4
f 463/408/4 462/407/4 464/409/4
f 464/406/9 459/407/9 463/408/9
f 463/408/9 459/407/9 460/409/9
f 462/406/10 457/407/10 464/408/10
f 464/408/10 457/407/10 459/409/10
f 465/410/1 466/411/1 467/412/1
f 467/412/1 466/411/1 468/413/1
f 469/410/23 466/411/23 470/412/23
f 470/412/23 466/411/23 465/413/23
f 466/410/24 469/411/24 468/412/24
f 468/412/24 469/411/24 471/413/24
f 469/410/4 470/411/4 471/412/4
f 471/412/4 470/411/4 472/413/4
f 472/410/25 467/411/25 471/412/25
f 471/412/25 467/411/25 468/413/25
f 470/410/26 465/411/26 472/412/26
f 472/412/26 465/411/26 467/413/26
f 473/414/1 474/415/1 475/416/1
f 475/416/1 474/415/1 476/417/1
f 477/414/7 474/415/7 478/416/7
f 478/416/7 474/415/7 473/417/7
f 474/414/8 477/415/8 476/416/8
f 476/416/8 477/415/8 479/417/8
f 477/414/4 478/415/4 479/416/4
f 479/416/4 478/415/4 480/417/4
f 480/414/9 475/415/9 479/416/9
f 479/416/9 475/415/9 476/417/9
f 478/414/10 473/415/10 480/416/10
f 480/416/10 473/415/10 475/417/10
f 481/418/1 482/419/1 483/420/1
f 483/420/1 482/419/1 484/421/1
f 485/418/23 482/419/23 486/420/23
f 486/420/23 482/419/23 481/421/23
f 482/418/24 485/419/24 484/420/24
f 484/420/24 485/419/24 487/421/24
f 485/418/4 486/419/4 487/420/4
f 487/420/4 486/419/4 488/421/4
f 488/418/25 483/419/25 487/420/25
f 487/420/25 483/419/25 484/421/25
f 486/418/26 481/419/26 488/420/26
f 488/420/26 481/419/26 483/421/26
f 489/422/1 490/423/1 491/424/1
f 491/424/1 490/423/1 492/425/1
f 493/422/23 490/423/23 494/424/23
f 494/424/23 490/423/23 489/425/23
f 490/422/24 493/423/24 492/424/24
f 492/424/24 493/423/24 495/425/24
f 493/422/4 494/423/4 495/424/4
f 495/424/4 494/423/4 496/425/4
f 496/422/25 491/423/25 495/424/25
f 495/424/25 491/423/25 492/425/25
f 494/422/26 489/423/26 496/424/26
f 496/424/26 489/423/26 491/425/26
f 497/426/1 498/427/1 499/428/1
f 499/428/1 498/427/1 500/429/1
f 501/426/7 498/427/7 502/428/7
f 502/428/7 498/427/7 497/429/7
f 498/426/8 501/427/8 500/428/8
f 500/428/8 501/427/8 503/429/8
f 501/426/4 502/427/4 503/428/4
f 503/428/4 502/427/4 504/429/4
f 504/426/9 499/427/9 503/428/9
f 503/428/9 499/427/9 500/429/9
f 502/426/10 497/427/10 504/428/10
f 504/428/10 497/427/10 499/429/10
f 505/430/1 506/431/1 507/432/1
f 507/432/1 506/431/1 508/433/1
f 509/430/7 506/431/7 510/432/7
f 510/432/7 506/431/7 505/433/7
f 506/430/8 509/431/8 508/432/8
f 508/432/8 509/431/8 511/433/8
f 509/430/4 510/431/4 511/432/4
f 511/432/4 510/431/4 512/433/4
f 512/430/9 507/431/9 511/432/9
f 511/432/9 507/431/9 508/433/9
f 510/430/10 505/431/10 512/432/10
f 512/432/10 505/431/10 507/433/10
f 513/434/1 514/435/1 515/436/1
f 515/436/1 514/435/1 516/437/1
f 517/434/23 514/435/23 518/436/23
f 518/436/23 514/435/23 513/437/23
f 514/434/24 517/435/24 516/436/24
f 516/436/24 517/435/24 519/437/24
f 517/434/4 518/435/4 519/436/4
f 519/436/4 518/435/4 520/437/4
f 520/434/25 515/435/25 519/436/25
f 519/436/25 515/435/25 516/437/25
f 518/434/26 513/435/26 520/436/26
f 520/436/26 513/435/26 515/437/26
f 521/161/1 522/162/1 523/165/1
f 523/165/1 522/162/1 524/166/1
f 525/161/7 522/162/7 526/165/7
f 526/165/7 522/162/7 521/166/7
f 522/161/8 525/162/8 524/165/8
f 524/165/8 525/162/8 527/166/8
f 525/161/4 526/162/4 527/165/4
f 527/165/4 526/162/4 528/166/4
f 528/161/9 523/162/9 527/165/9
f 527/165/9 523/162/9 524/166/9
f 526/161/10 521/162/10 528/165/10
f 528/165/10 521/162/10 523/166/10
f 529/339/1 530/438/1 531/439/1
f 531/439/1 530/438/1 532/440/1
f 533/339/7 530/438/7 534/439/7
f 534/439/7 530/438/7 529/440/7
f 530/339/8 533/438/8 532/439/8
f 532/439/8 533/438/8 535/440/8
f 533/339/4 534/438/4 535/439/4
f 535/439/4 534/438/4 536/440/4
f 536/339/9 531/438/9 535/439/9
f 535/439/9 531/438/9 532/440/9
f 534/339/10 529/438/10 536/439/10
f 536/439/10 529/438/10 531/440/10
f 537/441/1 538/442/1 539/443/1
f 539/443/1 538/442/1 540/444/1
f 541/441/23 538/442/23 542/443/23
f 542/443/23 538/442/23 537/444/23
f 538/441/24 541/442/24 540/443/24
f 540/443/24 541/442/24 543/444/24
f 541/441/4 542/442/4 543/443/4
f 543/443/4 542/442/4 544/444/4
f 544/441/25 539/442/25 543/443/25
f 543/443/25 539/442/25 540/444/25
f 542/441/26 537/442/26 544/443/26
f 544/443/26 537/442/26 539/444/26
f 545/445/1 546/446/1 547/447/1
f 547/447/1 546/446/1 548/448/1
f 549/445/7 546/446/7 550/447/7
f 550/447/7 546/446/7 545/448/7
f 546/445/8 549/446/8 548/447/8
f 548/447/8 549/446/8 551/448/8
f 549/445/4 550/446/4 551/447/4
f 551/447/4 550/446/4 552/448/4
f 552/445/9 547/446/9 551/447/9
f 551/447/9 547/446/9 548/448/9
f 550/445/10 545/446/10 552/447/10
f 552/447/10 545/446/10 547/448/10
f 553/449/1 554/450/1 555/451/1
f 555/451/1 554/450/1 556/452/1
f 557/449/23 554/450/23 558/451/23
f 558/451/23 554/450/23 553/452/23
f 554/449/24 557/450/24 556/451/24
f 556/451/24 557/450/24 559/452/24
f 557/449/4 558/450/4 559/451/4
f 559/451/4 558/450/4 560/452/4
f 560/449/25 555/450/25 559/451/25
f 559/451/25 555/450/25 556/452/25
f 558/449/26 553/450/26 560/451/26
f 560/451/26 553/450/26 555/452/26
usemtl c_74869d
f 561/453/1 562/454/1 563/455/1
f 563/455/1 562/454/1 564/456/1
f 565/457/23 562/454/23 566/458/23
f 566/458/23 562/454/23 561/459/23
f 562/457/24 565/454/24 564/460/24
f 564/460/24 565/454/24 567/456/24
f 565/453/4 566/454/4 567/455/4
f 567/455/4 566/454/4 568/456/4
f 568/457/25 563/454/25 567/458/25
f 567/458/25 563/454/25 564/459/25
f 566/457/26 561/454/26 568/460/26
f 568/460/26 561/454/26 563/456/26
f 569/461/1 570/462/1 571/463/1
f 571/463/1 570/462/1 572/464/1
f 573/465/11 570/462/11 574/466/11
f 574/466/11 570/462/11 569/467/11
f 570/465/12 573/462/12 572/468/12
f 572/468/12 573/462/12 575/464/12
f 573/461/4 574/462/4 575/463/4
f 575/463/4 574/462/4 576/464/4
f 576/465/13 571/462/13 575/466/13
f 575/466/13 571/462/13 572/467/13
f 574/465/14 569/462/14 576/468/14
f 576/468/14 569/462/14 571/464/14
usemtl c_ff9494
f 577/469/1 578/470/1 579/471/1
f 579/471/1 578/470/1 580/472/1
f 581/473/27 578/470/27 582/474/27
f 582/474/27 578/470/27 577/472/27
f 578/473/28 581/470/28 580/474/28
f 580/474/28 581/470/28 583/472/28
f 581/469/4 582/470/4 583/471/4
f 583/471/4 582/470/4 584/472/4
f 584/473/29 579/470/29 583/474/29
f 583/474/29 579/470/29 580/472/29
f 582/473/30 577/470/30 584/474/30
f 584/474/30 577/470/30 579/472/30
f 585/475/1 586/476/1 587/477/1
f 587/477/1 586/476/1 588/478/1
f 589/479/27 586/476/27 590/480/27
f 590/480/27 586/476/27 585/478/27
f 586/479/28 589/476/28 588/480/28
f 588/480/28 589/476/28 591/478/28
f 589/475/4 590/476/4 591/477/4
f 591/477/4 590/476/4 592/478/4
f 592/479/29 587/476/29 591/480/29
f 591/480/29 587/476/29 588/478/29
f 590/479/30 585/476/30 592/480/30
f 592/480/30 585/476/30 587/478/30
usemtl c_465670
f 593/481/31 594/482/31 595/483/31
f 595/483/31 594/482/31 596/484/31
f 597/485/23 594/482/23 598/486/23
f 598/486/23 594/482/23 593/487/23
f 594/485/32 597/482/32 596/488/32
f 596/488/32 597/482/32 599/484/32
f 597/481/33 598/482/33 599/483/33
f 599/483/33 598/482/33 600/484/33
f 600/485/25 595/482/25 599/486/25
f 599/486/25 595/482/25 596/487/25
f 598/485/34 593/482/34 600/488/34
f 600/488/34 593/482/34 595/484/34
f 601/489/1 602/490/1 521/491/1
f 521/491/1 602/490/1 603/492/1
f 604/493/7 602/490/7 605/494/7
f 605/494/7 602/490/7 601/495/7
f 602/493/8 604/490/8 603/496/8
f 603/496/8 604/490/8 606/492/8
f 604/489/4 605/490/4 606/491/4
f 606/491/4 605/490/4 534/492/4
f 534/493/9 521/490/9 606/494/9
f 606/494/9 521/490/9 603/495/9
f 605/493/10 601/490/10 534/496/10
f 534/496/10 601/490/10 521/492/10
f 607/497/1 608/498/1 609/451/1
f 609/451/1 608/498/1 610/499/1
f 611/500/7 608/498/7 612/501/7
f 612/501/7 608/498/7 607/499/7
f 608/500/8 611/498/8 610/501/8
f 610/501/8 611/498/8 613/499/8
f 611/497/4 612/498/4 613/451/4
f 613/451/4 612/498/4 614/499/4
f 614/500/9 609/498/9 613/501/9
f 613/501/9 609/498/9 610/499/9
f 612/500/10 607/498/10 614/501/10
f 614/501/10 607/498/10 609/499/10
f 615/502/35 616/503/35 617/504/35
f 617/504/35 616/503/35 618/505/35
f 619/506/23 616/503/23 620/507/23
f 620/507/23 616/503/23 615/508/23
f 616/506/36 619/503/36 618/509/36
f 618/509/36 619/503/36 621/505/36
f 619/502/37 620/503/37 621/504/37
f 621/504/37 620/503/37 622/505/37
f 622/506/25 617/503/25 621/507/25
f 621/507/25 617/503/25 618/508/25
f 620/506/38 615/503/38 622/509/38
f 622/509/38 615/503/38 617/505/38
f 623/510/35 624/511/35 625/512/35
f 625/512/35 624/511/35 626/513/35
f 627/514/23 624/511/23 628/515/23
f 628/515/23 624/511/23 623/516/23
f 624/514/36 627/511/36 626/517/36
f 626/517/36 627/511/36 629/513/36
f 627/510/37 628/511/37 629/512/37
f 629/512/37 628/511/37 630/513/37
f 630/514/25 625/511/25 629/515/25
f 629/515/25 625/511/25 626/516/25
f 628/514/38 623/511/38 630/517/38
f 630/517/38 623/511/38 625/513/38
f 631/518/1 632/519/1 569/520/1
f 569/520/1 632/519/1 570/521/1
f 633/522/11 632/519/11 634/523/11
f 634/523/11 632/519/11 631/524/11
f 632/522/12 633/519/12 570/525/12
f 570/525/12 633/519/12 573/521/12
f 633/518/4 634/519/4 573/520/4
f 573/520/4 634/519/4 574/521/4
f 574/522/13 569/519/13 573/523/13
f 573/523/13 569/519/13 570/524/13
f 634/522/14 631/519/14 574/525/14
f 574/525/14 631/519/14 569/521/14
f 635/526/31 636/527/31 637/528/31
f 637/528/31 636/527/31 638/529/31
f 639/530/23 636/527/23 640/531/23
f 640/531/23 636/527/23 635/532/23
f 636/530/32 639/527/32 638/533/32
f 638/533/32 639/527/32 641/529/32
f 639/526/33 640/527/33 641/528/33
f 641/528/33 640/527/33 642/529/33
f 642/530/25 637/527/25 641/531/25
f 641/531/25 637/527/25 638/532/25
f 640/530/34 635/527/34 642/533/34
f 642/533/34 635/527/34 637/529/34
usemtl c_1b2a35
f 643/534/1 644/376/1 601/535/1
f 601/535/1 644/376/1 645/378/1
f 372/534/7 644/376/7 371/535/7
f 371/535/7 644/376/7 643/378/7
f 644/534/8 372/376/8 645/535/8
f 645/535/8 372/376/8 374/378/8
f 372/534/4 371/376/4 374/535/4
f 374/535/4 371/376/4 373/378/4
f 373/534/9 601/376/9 374/535/9
f 374/535/9 601/376/9 645/378/9
f 371/534/10 643/376/10 373/535/10
f 373/535/10 643/376/10 601/378/10
f 376/536/1 375/537/1 378/538/1
f 378/538/1 375/537/1 377/539/1
f 646/536/7 375/537/7 647/538/7
f 647/538/7 375/537/7 376/539/7
f 375/536/8 646/537/8 377/538/8
f 377/538/8 646/537/8 648/539/8
f 646/536/4 647/537/4 648/538/4
f 648/538/4 647/537/4 605/539/4
f 605/536/9 378/537/9 648/538/9
f 648/538/9 378/537/9 377/539/9
f 647/536/10 376/537/10 605/538/10
f 605/538/10 376/537/10 378/539/10
usemtl c_f8f8f8
f 649/540/1 650/541/1 651/542/1
f 651/542/1 650/541/1 652/543/1
f 653/544/7 650/541/7 654/545/7
f 654/545/7 650/541/7 649/543/7
f 650/544/8 653/541/8 652/545/8
f 652/545/8 653/541/8 655/543/8
f 653/540/4 654/541/4 655/542/4
f 655/542/4 654/541/4 656/543/4
f 656/544/9 651/541/9 655/545/9
f 655/545/9 651/541/9 652/543/9
f 654/544/10 649/541/10 656/545/10
f 656/545/10 649/541/10 651/543/10
usemtl c_c4281c
f 657/546/1 658/547/1 659/548/1
f 659/548/1 658/547/1 660/549/1
f 661/550/39 658/547/39 662/551/39
f 662/551/39 658/547/39 657/552/39
f 658/550/40 661/547/40 660/553/40
f 660/553/40 661/547/40 663/549/40
f 661/546/4 662/547/4 663/548/4
f 663/548/4 662/547/4 664/549/4
f 664/550/41 659/547/41 663/551/41
f 663/551/41 659/547/41 660/552/41
f 662/550/42 657/547/42 664/553/42
f 664/553/42 657/547/42 659/549/42
o Head_decal1
usemtl head_decal1
f 665/554/1 666/555/1 667/200/1
f 667/200/1 666/555/1 668/126/1
o Head_decal2
usemtl head_decal2
f 669/554/4 670/555/4 671/200/4
f 671/200/4 670/555/4 672/126/4
o Tail
usemtl c_74869d
f 673/556/1 674/557/1 675/558/1
f 675/558/1 674/557/1 676/559/1
f 677/560/7 674/557/7 678/561/7
f 678/561/7 674/557/7 673/562/7
f 674/560/8 677/557/8 676/563/8
f 676/563/8 677/557/8 679/559/8
f 677/556/4 678/557/4 679/558/4
f 679/558/4 678/557/4 680/559/4
f 680/560/9 675/557/9 679/561/9
f 679/561/9 675/557/9 676/562/9
f 678/560/10 673/557/10 680/563/10
f 680/563/10 673/557/10 675/559/10
usemtl c_465670
f 681/564/1 682/565/1 683/566/1
f 683/566/1 682/565/1 684/567/1
f 685/564/11 682/565/11 686/568/11
f 686/568/11 682/565/11 681/569/11
f 682/564/12 685/565/12 684/566/12
f 684/566/12 685/565/12 687/567/12
f 685/564/4 686/565/4 687/566/4
f 687/566/4 686/565/4 688/567/4
f 688/564/13 683/565/13 687/568/13
f 687/568/13 683/565/13 684/569/13
f 686/564/14 681/565/14 688/566/14
f 688/566/14 681/565/14 683/567/14
f 689/570/1 690/571/1 691/572/1
f 691/572/1 690/571/1 692/573/1
f 693/574/7 690/571/7 694/575/7
f 694/575/7 690/571/7 689/576/7
f 690/574/8 693/571/8 692/577/8
f 692/577/8 693/571/8 695/573/8
f 693/570/4 694/571/4 695/572/4
f 695/572/4 694/571/4 696/573/4
f 696/574/9 691/571/9 695/575/9
f 695/575/9 691/571/9 692/576/9
f 694/574/10 689/571/10 696/577/10
f 696/577/10 689/571/10 691/573/10
f 697/578/1 698/579/1 699/580/1
f 699/580/1 698/579/1 700/581/1
f 701/582/43 698/579/43 702/583/43
f 702/583/43 698/579/43 697/584/43
f 698/582/44 701/579/44 700/585/44
f 700/585/44 701/579/44 703/581/44
f 701/578/4 702/579/4 703/580/4
f 703/580/4 702/579/4 704/581/4
f 704/582/45 699/579/45 703/583/45
f 703/583/45 699/579/45 700/584/45
f 702/582/46 697/579/46 704/585/46
f 704/585/46 697/579/46 699/581/46
usemtl c_002060
f 705/586/1 706/587/1 689/588/1
f 689/588/1 706/587/1 690/589/1
f 707/590/7 706/587/7 708/591/7
f 708/591/7 706/587/7 705/592/7
f 706/590/8 707/587/8 690/593/8
f 690/593/8 707/587/8 693/589/8
f 707/586/4 708/587/4 693/588/4
f 693/588/4 708/587/4 694/589/4
f 694/590/9 689/587/9 693/591/9
f 693/591/9 689/587/9 690/592/9
f 708/590/10 705/587/10 694/593/10
f 694/593/10 705/587/10 689/589/10
f 709/594/1 710/595/1 711/596/1
f 711/596/1 710/595/1 712/597/1
f 713/598/43 710/595/43 714/599/43
f 714/599/43 710/595/43 709/600/43
f 710/598/44 713/595/44 712/601/44
f 712/601/44 713/595/44 715/597/44
f 713/594/4 714/595/4 715/596/4
f 715/596/4 714/595/4 716/597/4
f 716/598/45 711/595/45 715/599/45
f 715/599/45 711/595/45 712/600/45
f 714/598/46 709/595/46 716/601/46
f 716/601/46 709/595/46 711/597/46
f 717/602/1 718/221/1 719/603/1
f 719/603/1 718/221/1 720/226/1
f 721/604/11 718/221/11 722/605/11
f 722/605/11 718/221/11 717/606/11
f 718/604/12 721/221/12 720/607/12
f 720/607/12 721/221/12 723/226/12
f 721/602/4 722/221/4 723/603/4
f 723/603/4 722/221/4 724/226/4
f 724/604/13 719/221/13 723/605/13
f 723/605/13 719/221/13 720/606/13
f 722/604/14 717/221/14 724/607/14
f 724/607/14 717/221/14 719/226/14
f 725/608/1 726/609/1 727/610/1
f 727/610/1 726/609/1 728/611/1
f 729/612/11 726/609/11 730/613/11
f 730/613/11 726/609/11 725/614/11
f 726/612/12 729/609/12 728/615/12
f 728/615/12 729/609/12 731/611/12
f 729/608/4 730/609/4 731/610/4
f 731/610/4 730/609/4 732/611/4
f 732/612/13 727/609/13 731/613/13
f 731/613/13 727/609/13 728/614/13
f 730/612/14 725/609/14 732/615/14
f 732/615/14 725/609/14 727/611/14
f 733/616/1 734/617/1 735/618/1
f 735/618/1 734/617/1 736/619/1
f 737/620/11 734/617/11 738/621/11
f 738/621/11 734/617/11 733/619/11
f 734/620/12 737/617/12 736/621/12
f 736/621/12 737/617/12 739/619/12
f 737/616/4 738/617/4 739/618/4
f 739/618/4 738/617/4 740/619/4
f 740/620/13 735/617/13 739/621/13
f 739/621/13 735/617/13 736/619/13
f 738/620/14 733/617/14 740/621/14
f 740/621/14 733/617/14 735/619/14
f 741/622/1 742/623/1 743/624/1
f 743/624/1 742/623/1 744/625/1
f 745/626/43 742/623/43 746/627/43
f 746/627/43 742/623/43 741/628/43
f 742/626/44 745/623/44 744/629/44
f 744/629/44 745/623/44 747/625/44
f 745/622/4 746/623/4 747/624/4
f 747/624/4 746/623/4 748/625/4
f 748/626/45 743/623/45 747/627/45
f 747/627/45 743/623/45 744/628/45
f 746/626/46 741/623/46 748/629/46
f 748/629/46 741/623/46 743/625/46
