# Roblox asset pack: trophy (props). Exported from Roblox Studio with Export Selection, then split/renamed/re-centred by tools/process_export.py. Units: studs (1 stud = 1 unit). +Y up. Pivot (grip) at the origin.
mtllib trophy.mtl

v 0.55000 -0.39500 -0.55000
v 0.55000 -0.39500 0.55000
v 0.55000 -0.84500 -0.55000
v 0.55000 -0.84500 0.55000
v -0.55000 -0.39500 0.55000
v -0.55000 -0.39500 -0.55000
v -0.55000 -0.84500 0.55000
v -0.55000 -0.84500 -0.55000
v 0.40000 -0.26000 -0.40000
v 0.40000 -0.26000 0.40000
v 0.40000 -0.40000 -0.40000
v 0.40000 -0.40000 0.40000
v -0.40000 -0.26000 0.40000
v -0.40000 -0.26000 -0.40000
v -0.40000 -0.40000 0.40000
v -0.40000 -0.40000 -0.40000
v 0.00000 0.30000 0.00000
v -0.06660 0.30000 -0.09980
v -0.08490 0.30000 -0.08490
v -0.03790 0.30000 -0.11380
v 0.00000 0.30000 -0.12000
v 0.03790 0.30000 -0.11380
v 0.06660 0.30000 -0.09980
v 0.08490 0.30000 -0.08490
v 0.09980 0.30000 -0.06660
v 0.11380 0.30000 -0.03790
v 0.12000 0.30000 0.00000
v 0.11380 0.30000 0.03790
v 0.09980 0.30000 0.06660
v 0.08490 0.30000 0.08490
v 0.06660 0.30000 0.09980
v 0.03790 0.30000 0.11380
v 0.00000 0.30000 0.12000
v -0.03790 0.30000 0.11380
v -0.06660 0.30000 0.09980
v -0.08490 0.30000 0.08490
v -0.09980 0.30000 0.06660
v -0.11380 0.30000 0.03790
v -0.12000 0.30000 0.00000
v -0.11380 0.30000 -0.03790
v -0.09980 0.30000 -0.06660
v -0.08490 -0.30000 0.08490
v -0.09980 -0.30000 0.06660
v -0.11380 -0.30000 0.03790
v -0.12000 -0.30000 0.00000
v -0.11380 -0.30000 -0.03790
v -0.09980 -0.30000 -0.06660
v -0.08490 -0.30000 -0.08490
v -0.06660 -0.30000 0.09980
v -0.03790 -0.30000 0.11380
v 0.00000 -0.30000 0.12000
v 0.03790 -0.30000 0.11380
v 0.06660 -0.30000 0.09980
v 0.08490 -0.30000 0.08490
v 0.00000 -0.30000 0.00000
v 0.09980 -0.30000 0.06660
v 0.11380 -0.30000 0.03790
v 0.12000 -0.30000 0.00000
v 0.11380 -0.30000 -0.03790
v 0.09980 -0.30000 -0.06660
v 0.08490 -0.30000 -0.08490
v 0.06660 -0.30000 -0.09980
v 0.03790 -0.30000 -0.11380
v 0.00000 -0.30000 -0.12000
v -0.03790 -0.30000 -0.11380
v -0.06660 -0.30000 -0.09980
v 0.00000 0.17000 0.00000
v -0.11090 0.17000 -0.16640
v -0.14140 0.17000 -0.14140
v -0.06320 0.17000 -0.18970
v 0.00000 0.17000 -0.20000
v 0.06320 0.17000 -0.18970
v 0.11090 0.17000 -0.16640
v 0.14140 0.17000 -0.14140
v 0.16640 0.17000 -0.11090
v 0.18970 0.17000 -0.06320
v 0.20000 0.17000 0.00000
v 0.18970 0.17000 0.06320
v 0.16640 0.17000 0.11090
v 0.14140 0.17000 0.14140
v 0.11090 0.17000 0.16640
v 0.06320 0.17000 0.18970
v 0.00000 0.17000 0.20000
v -0.06320 0.17000 0.18970
v -0.11090 0.17000 0.16640
v -0.14140 0.17000 0.14140
v -0.16640 0.17000 0.11090
v -0.18970 0.17000 0.06320
v -0.20000 0.17000 0.00000
v -0.18970 0.17000 -0.06320
v -0.16640 0.17000 -0.11090
v -0.14140 0.03000 0.14140
v -0.16640 0.03000 0.11090
v -0.18970 0.03000 0.06320
v -0.20000 0.03000 0.00000
v -0.18970 0.03000 -0.06320
v -0.16640 0.03000 -0.11090
v -0.14140 0.03000 -0.14140
v -0.11090 0.03000 0.16640
v -0.06320 0.03000 0.18970
v 0.00000 0.03000 0.20000
v 0.06320 0.03000 0.18970
v 0.11090 0.03000 0.16640
v 0.14140 0.03000 0.14140
v 0.00000 0.03000 0.00000
v 0.16640 0.03000 0.11090
v 0.18970 0.03000 0.06320
v 0.20000 0.03000 0.00000
v 0.18970 0.03000 -0.06320
v 0.16640 0.03000 -0.11090
v 0.14140 0.03000 -0.14140
v 0.11090 0.03000 -0.16640
v 0.06320 0.03000 -0.18970
v 0.00000 0.03000 -0.20000
v -0.06320 0.03000 -0.18970
v -0.11090 0.03000 -0.16640
v 0.00000 1.14500 0.52500
v -0.16600 1.14500 0.49810
v 0.00000 0.29500 0.52500
v -0.16600 0.29500 0.49810
v -0.29120 1.14500 0.43680
v -0.29120 0.29500 0.43680
v -0.37120 1.14500 0.37120
v -0.37120 0.29500 0.37120
v -0.43680 1.14500 0.29120
v -0.43680 0.29500 0.29120
v -0.49810 1.14500 0.16600
v -0.49810 0.29500 0.16600
v -0.52500 1.14500 0.00000
v -0.52500 0.29500 0.00000
v -0.49810 1.14500 -0.16600
v -0.49810 0.29500 -0.16600
v -0.43680 1.14500 -0.29120
v -0.43680 0.29500 -0.29120
v -0.37120 1.14500 -0.37120
v -0.37120 0.29500 -0.37120
v -0.29120 0.29500 -0.43680
v -0.29120 1.14500 -0.43680
v -0.16600 0.29500 -0.49810
v -0.16600 1.14500 -0.49810
v 0.00000 0.29500 -0.52500
v 0.00000 1.14500 -0.52500
v 0.16600 0.29500 -0.49810
v 0.16600 1.14500 -0.49810
v 0.29120 0.29500 -0.43680
v 0.29120 1.14500 -0.43680
v 0.37120 0.29500 -0.37120
v 0.37120 1.14500 -0.37120
v 0.43680 1.14500 -0.29120
v 0.43680 0.29500 -0.29120
v 0.49810 1.14500 -0.16600
v 0.49810 0.29500 -0.16600
v 0.52500 1.14500 0.00000
v 0.52500 0.29500 0.00000
v 0.49810 1.14500 0.16600
v 0.49810 0.29500 0.16600
v 0.43680 1.14500 0.29120
v 0.43680 0.29500 0.29120
v 0.37120 1.14500 0.37120
v 0.37120 0.29500 0.37120
v 0.29120 1.14500 0.43680
v 0.29120 0.29500 0.43680
v 0.16600 1.14500 0.49810
v 0.16600 0.29500 0.49810
v 0.42690 1.14500 0.14230
v 0.37440 1.14500 0.24960
v 0.31820 1.14500 0.31820
v 0.24960 1.14500 0.37440
v 0.14230 1.14500 0.42690
v 0.00000 1.14500 0.45000
v -0.14230 1.14500 -0.42690
v 0.00000 1.14500 -0.45000
v -0.24960 1.14500 -0.37440
v -0.31820 1.14500 -0.31820
v -0.37440 1.14500 -0.24960
v -0.42690 1.14500 -0.14230
v -0.45000 1.14500 0.00000
v -0.14230 1.14500 0.42690
v -0.24960 1.14500 0.37440
v -0.37440 1.14500 0.24960
v -0.42690 1.14500 0.14230
v -0.31820 1.14500 0.31820
v 0.37440 1.14500 -0.24960
v 0.31820 1.14500 -0.31820
v 0.24960 1.14500 -0.37440
v 0.42690 1.14500 -0.14230
v 0.45000 1.14500 0.00000
v 0.14230 1.14500 -0.42690
v 0.00000 0.39500 0.45000
v 0.37440 0.39500 -0.24960
v 0.31820 0.39500 -0.31820
v 0.24960 0.39500 -0.37440
v 0.14230 0.39500 -0.42690
v 0.00000 0.39500 -0.45000
v 0.42690 0.39500 -0.14230
v 0.45000 0.39500 0.00000
v 0.42690 0.39500 0.14230
v 0.37440 0.39500 0.24960
v 0.31820 0.39500 0.31820
v 0.24960 0.39500 0.37440
v 0.14230 0.39500 0.42690
v -0.14230 0.39500 -0.42690
v -0.24960 0.39500 -0.37440
v -0.31820 0.39500 -0.31820
v -0.37440 0.39500 -0.24960
v -0.42690 0.39500 -0.14230
v -0.45000 0.39500 0.00000
v -0.24960 0.39500 0.37440
v -0.14230 0.39500 0.42690
v -0.31820 0.39500 0.31820
v -0.37440 0.39500 0.24960
v -0.42690 0.39500 0.14230
v 0.28870 0.62867 -0.28870
v 0.31980 0.65980 -0.21320
v 0.31980 0.55320 -0.31980
v 0.36380 0.58254 -0.24250
v 0.34410 0.68412 -0.11470
v 0.40090 0.60726 -0.13360
v 0.35360 0.69355 0.00000
v 0.41600 0.61735 0.00000
v 0.34410 0.68412 0.11470
v 0.40090 0.60726 0.13360
v 0.31980 0.65980 0.21320
v 0.36380 0.58254 0.24250
v 0.28870 0.62867 0.28870
v 0.31980 0.55320 0.31980
v 0.34410 0.45471 -0.34410
v 0.40090 0.47363 -0.26730
v 0.45230 0.49076 -0.15080
v 0.47430 0.49811 0.00000
v 0.45230 0.49076 0.15080
v 0.40090 0.47363 0.26730
v 0.34410 0.45471 0.34410
v 0.35360 0.34000 -0.35360
v 0.41600 0.34000 -0.27740
v 0.47430 0.34000 -0.15810
v 0.50000 0.34000 0.00000
v 0.47430 0.34000 0.15810
v 0.41600 0.34000 0.27740
v 0.35360 0.34000 0.35360
v 0.34410 0.22529 -0.34410
v 0.40090 0.20637 -0.26730
v 0.45230 0.18924 -0.15080
v 0.47430 0.18189 0.00000
v 0.45230 0.18924 0.15080
v 0.40090 0.20637 0.26730
v 0.34410 0.22529 0.34410
v 0.31980 0.12680 -0.31980
v 0.36380 0.09746 -0.24250
v 0.40090 0.07274 -0.13360
v 0.41600 0.06265 0.00000
v 0.40090 0.07274 0.13360
v 0.36380 0.09746 0.24250
v 0.31980 0.12680 0.31980
v 0.28870 0.05132 -0.28870
v 0.31980 0.02020 -0.21320
v 0.34410 -0.00412 -0.11470
v 0.35360 -0.01355 0.00000
v 0.34410 -0.00412 0.11470
v 0.31980 0.02020 0.21320
v 0.28870 0.05132 0.28870
v -0.28870 0.62867 0.28870
v -0.21320 0.65980 0.31980
v -0.31980 0.65980 0.21320
v -0.24250 0.70380 0.24250
v -0.11470 0.68412 0.34410
v -0.13360 0.74089 0.26730
v 0.00000 0.69355 0.35360
v 0.00000 0.75603 0.27740
v 0.11470 0.68412 0.34410
v 0.13360 0.74089 0.26730
v 0.21320 0.65980 0.31980
v 0.24250 0.70380 0.24250
v -0.34410 0.68412 0.11470
v -0.26730 0.74089 0.13360
v -0.15080 0.79227 0.15080
v 0.00000 0.81434 0.15810
v 0.15080 0.79227 0.15080
v 0.26730 0.74089 0.13360
v -0.35360 0.69355 0.00000
v -0.27740 0.75603 0.00000
v -0.15810 0.81434 0.00000
v 0.00000 0.84000 0.00000
v 0.15810 0.81434 0.00000
v 0.27740 0.75603 0.00000
v -0.34410 0.68412 -0.11470
v -0.26730 0.74089 -0.13360
v -0.15080 0.79227 -0.15080
v 0.00000 0.81434 -0.15810
v 0.15080 0.79227 -0.15080
v 0.26730 0.74089 -0.13360
v -0.31980 0.65980 -0.21320
v -0.24250 0.70380 -0.24250
v -0.13360 0.74089 -0.26730
v 0.00000 0.75603 -0.27740
v 0.13360 0.74089 -0.26730
v 0.24250 0.70380 -0.24250
v -0.28870 0.62867 -0.28870
v -0.21320 0.65980 -0.31980
v -0.11470 0.68412 -0.34410
v 0.00000 0.69355 -0.35360
v 0.11470 0.68412 -0.34410
v 0.21320 0.65980 -0.31980
v 0.24250 0.58254 0.36380
v 0.13360 0.60726 0.40090
v 0.00000 0.61735 0.41600
v -0.13360 0.60726 0.40090
v -0.24250 0.58254 0.36380
v -0.31980 0.55320 0.31980
v 0.26730 0.47363 0.40090
v 0.15080 0.49076 0.45230
v 0.00000 0.49811 0.47430
v -0.15080 0.49076 0.45230
v -0.26730 0.47363 0.40090
v -0.34410 0.45471 0.34410
v 0.27740 0.34000 0.41600
v 0.15810 0.34000 0.47430
v 0.00000 0.34000 0.50000
v -0.15810 0.34000 0.47430
v -0.27740 0.34000 0.41600
v -0.35360 0.34000 0.35360
v 0.26730 0.20637 0.40090
v 0.15080 0.18924 0.45230
v 0.00000 0.18189 0.47430
v -0.15080 0.18924 0.45230
v -0.26730 0.20637 0.40090
v -0.34410 0.22529 0.34410
v 0.24250 0.09746 0.36380
v 0.13360 0.07274 0.40090
v 0.00000 0.06265 0.41600
v -0.13360 0.07274 0.40090
v -0.24250 0.09746 0.36380
v -0.31980 0.12680 0.31980
v 0.21320 0.02020 0.31980
v 0.11470 -0.00412 0.34410
v 0.00000 -0.01355 0.35360
v -0.11470 -0.00412 0.34410
v -0.21320 0.02020 0.31980
v -0.28870 0.05132 0.28870
v -0.36380 0.58254 0.24250
v -0.40090 0.60726 0.13360
v -0.41600 0.61735 0.00000
v -0.40090 0.60726 -0.13360
v -0.36380 0.58254 -0.24250
v -0.31980 0.55320 -0.31980
v -0.40090 0.47363 0.26730
v -0.45230 0.49076 0.15080
v -0.47430 0.49811 0.00000
v -0.45230 0.49076 -0.15080
v -0.40090 0.47363 -0.26730
v -0.34410 0.45471 -0.34410
v -0.41600 0.34000 0.27740
v -0.47430 0.34000 0.15810
v -0.50000 0.34000 0.00000
v -0.47430 0.34000 -0.15810
v -0.41600 0.34000 -0.27740
v -0.35360 0.34000 -0.35360
v -0.40090 0.20637 0.26730
v -0.45230 0.18924 0.15080
v -0.47430 0.18189 0.00000
v -0.45230 0.18924 -0.15080
v -0.40090 0.20637 -0.26730
v -0.34410 0.22529 -0.34410
v -0.36380 0.09746 0.24250
v -0.40090 0.07274 0.13360
v -0.41600 0.06265 0.00000
v -0.40090 0.07274 -0.13360
v -0.36380 0.09746 -0.24250
v -0.31980 0.12680 -0.31980
v -0.31980 0.02020 0.21320
v -0.34410 -0.00412 0.11470
v -0.35360 -0.01355 0.00000
v -0.34410 -0.00412 -0.11470
v -0.31980 0.02020 -0.21320
v -0.28870 0.05132 -0.28870
v -0.21320 0.02020 -0.31980
v -0.24250 -0.02380 -0.24250
v -0.11470 -0.00412 -0.34410
v -0.13360 -0.06089 -0.26730
v 0.00000 -0.01355 -0.35360
v 0.00000 -0.07603 -0.27740
v 0.11470 -0.00412 -0.34410
v 0.13360 -0.06089 -0.26730
v 0.21320 0.02020 -0.31980
v 0.24250 -0.02380 -0.24250
v -0.26730 -0.06089 -0.13360
v -0.15080 -0.11227 -0.15080
v 0.00000 -0.13434 -0.15810
v 0.15080 -0.11227 -0.15080
v 0.26730 -0.06089 -0.13360
v -0.27740 -0.07603 0.00000
v -0.15810 -0.13434 0.00000
v 0.00000 -0.16000 0.00000
v 0.15810 -0.13434 0.00000
v 0.27740 -0.07603 0.00000
v -0.26730 -0.06089 0.13360
v -0.15080 -0.11227 0.15080
v 0.00000 -0.13434 0.15810
v 0.15080 -0.11227 0.15080
v 0.26730 -0.06089 0.13360
v -0.24250 -0.02380 0.24250
v -0.13360 -0.06089 0.26730
v 0.00000 -0.07603 0.27740
v 0.13360 -0.06089 0.26730
v 0.24250 -0.02380 0.24250
v -0.24250 0.58254 -0.36380
v -0.13360 0.60726 -0.40090
v 0.00000 0.61735 -0.41600
v 0.13360 0.60726 -0.40090
v 0.24250 0.58254 -0.36380
v -0.26730 0.47363 -0.40090
v -0.15080 0.49076 -0.45230
v 0.00000 0.49811 -0.47430
v 0.15080 0.49076 -0.45230
v 0.26730 0.47363 -0.40090
v -0.27740 0.34000 -0.41600
v -0.15810 0.34000 -0.47430
v 0.00000 0.34000 -0.50000
v 0.15810 0.34000 -0.47430
v 0.27740 0.34000 -0.41600
v -0.26730 0.20637 -0.40090
v -0.15080 0.18924 -0.45230
v 0.00000 0.18189 -0.47430
v 0.15080 0.18924 -0.45230
v 0.26730 0.20637 -0.40090
v -0.24250 0.09746 -0.36380
v -0.13360 0.07274 -0.40090
v 0.00000 0.06265 -0.41600
v 0.13360 0.07274 -0.40090
v 0.24250 0.09746 -0.36380
v -0.34000 0.78000 -0.04500
v -0.35330 0.86222 -0.04500
v -0.34000 0.78000 0.04500
v -0.35330 0.86222 0.04500
v -0.38370 0.92422 -0.04500
v -0.38370 0.92422 0.04500
v -0.41620 0.96385 -0.04500
v -0.41620 0.96385 0.04500
v -0.45580 0.99633 -0.04500
v -0.45580 0.99633 0.04500
v -0.51780 1.02666 -0.04500
v -0.51780 1.02666 0.04500
v -0.60000 1.04000 -0.04500
v -0.60000 1.04000 0.04500
v -0.68220 1.02666 -0.04500
v -0.68220 1.02666 0.04500
v -0.74420 0.99633 -0.04500
v -0.74420 0.99633 0.04500
v -0.78380 0.96385 -0.04500
v -0.78380 0.96385 0.04500
v -0.81630 0.92422 0.04500
v -0.81630 0.92422 -0.04500
v -0.84670 0.86222 0.04500
v -0.84670 0.86222 -0.04500
v -0.86000 0.78000 0.04500
v -0.86000 0.78000 -0.04500
v -0.84670 0.69778 0.04500
v -0.84670 0.69778 -0.04500
v -0.81630 0.63578 0.04500
v -0.81630 0.63578 -0.04500
v -0.78380 0.59615 0.04500
v -0.78380 0.59615 -0.04500
v -0.74420 0.56367 -0.04500
v -0.74420 0.56367 0.04500
v -0.68220 0.53334 -0.04500
v -0.68220 0.53334 0.04500
v -0.60000 0.52000 -0.04500
v -0.60000 0.52000 0.04500
v -0.51780 0.53334 -0.04500
v -0.51780 0.53334 0.04500
v -0.45580 0.56367 -0.04500
v -0.45580 0.56367 0.04500
v -0.41620 0.59615 -0.04500
v -0.41620 0.59615 0.04500
v -0.38370 0.63578 -0.04500
v -0.38370 0.63578 0.04500
v -0.35330 0.69778 -0.04500
v -0.35330 0.69778 0.04500
v -0.68880 0.64687 0.04500
v -0.73310 0.69125 0.04500
v -0.65060 0.62821 0.04500
v -0.60000 0.62000 0.04500
v -0.71310 0.66686 0.04500
v -0.75180 0.72940 0.04500
v -0.76000 0.78000 0.04500
v -0.71310 0.89314 -0.04500
v -0.68880 0.91313 -0.04500
v -0.65060 0.93179 -0.04500
v -0.60000 0.94000 -0.04500
v -0.54940 0.62821 0.04500
v -0.51120 0.64687 0.04500
v -0.48690 0.66686 0.04500
v -0.46690 0.69125 0.04500
v -0.44820 0.72940 0.04500
v -0.44000 0.78000 0.04500
v -0.75180 0.83060 0.04500
v -0.73310 0.86875 0.04500
v -0.71310 0.89314 0.04500
v -0.68880 0.91313 0.04500
v -0.65060 0.93179 0.04500
v -0.60000 0.94000 0.04500
v -0.54940 0.93179 0.04500
v -0.51120 0.91313 -0.04500
v -0.54940 0.93179 -0.04500
v -0.44000 0.78000 -0.04500
v -0.44820 0.83060 -0.04500
v -0.46690 0.86875 -0.04500
v -0.48690 0.89314 -0.04500
v -0.44820 0.83060 0.04500
v -0.46690 0.86875 0.04500
v -0.51120 0.91313 0.04500
v -0.48690 0.89314 0.04500
v -0.73310 0.69125 -0.04500
v -0.71310 0.66686 -0.04500
v -0.68880 0.64687 -0.04500
v -0.60000 0.62000 -0.04500
v -0.65060 0.62821 -0.04500
v -0.75180 0.72940 -0.04500
v -0.76000 0.78000 -0.04500
v -0.54940 0.62821 -0.04500
v -0.51120 0.64687 -0.04500
v -0.48690 0.66686 -0.04500
v -0.46690 0.69125 -0.04500
v -0.44820 0.72940 -0.04500
v -0.75180 0.83060 -0.04500
v -0.73310 0.86875 -0.04500
v 0.86000 0.78000 -0.04500
v 0.84670 0.86222 -0.04500
v 0.86000 0.78000 0.04500
v 0.84670 0.86222 0.04500
v 0.81630 0.92422 -0.04500
v 0.81630 0.92422 0.04500
v 0.78380 0.96385 -0.04500
v 0.78380 0.96385 0.04500
v 0.74420 0.99633 -0.04500
v 0.74420 0.99633 0.04500
v 0.68220 1.02666 -0.04500
v 0.68220 1.02666 0.04500
v 0.60000 1.04000 -0.04500
v 0.60000 1.04000 0.04500
v 0.51780 1.02666 -0.04500
v 0.51780 1.02666 0.04500
v 0.45580 0.99633 -0.04500
v 0.45580 0.99633 0.04500
v 0.41620 0.96385 -0.04500
v 0.41620 0.96385 0.04500
v 0.38370 0.92422 0.04500
v 0.38370 0.92422 -0.04500
v 0.35330 0.86222 0.04500
v 0.35330 0.86222 -0.04500
v 0.34000 0.78000 0.04500
v 0.34000 0.78000 -0.04500
v 0.35330 0.69778 0.04500
v 0.35330 0.69778 -0.04500
v 0.38370 0.63578 0.04500
v 0.38370 0.63578 -0.04500
v 0.41620 0.59615 0.04500
v 0.41620 0.59615 -0.04500
v 0.45580 0.56367 -0.04500
v 0.45580 0.56367 0.04500
v 0.51780 0.53334 -0.04500
v 0.51780 0.53334 0.04500
v 0.60000 0.52000 -0.04500
v 0.60000 0.52000 0.04500
v 0.68220 0.53334 -0.04500
v 0.68220 0.53334 0.04500
v 0.74420 0.56367 -0.04500
v 0.74420 0.56367 0.04500
v 0.78380 0.59615 -0.04500
v 0.78380 0.59615 0.04500
v 0.81630 0.63578 -0.04500
v 0.81630 0.63578 0.04500
v 0.84670 0.69778 -0.04500
v 0.84670 0.69778 0.04500
v 0.51120 0.64687 0.04500
v 0.46690 0.69125 0.04500
v 0.54940 0.62821 0.04500
v 0.60000 0.62000 0.04500
v 0.48690 0.66686 0.04500
v 0.44820 0.72940 0.04500
v 0.44000 0.78000 0.04500
v 0.48690 0.89314 -0.04500
v 0.51120 0.91313 -0.04500
v 0.54940 0.93179 -0.04500
v 0.60000 0.94000 -0.04500
v 0.65060 0.62821 0.04500
v 0.68880 0.64687 0.04500
v 0.71310 0.66686 0.04500
v 0.73310 0.69125 0.04500
v 0.75180 0.72940 0.04500
v 0.76000 0.78000 0.04500
v 0.44820 0.83060 0.04500
v 0.46690 0.86875 0.04500
v 0.48690 0.89314 0.04500
v 0.51120 0.91313 0.04500
v 0.54940 0.93179 0.04500
v 0.60000 0.94000 0.04500
v 0.65060 0.93179 0.04500
v 0.68880 0.91313 -0.04500
v 0.65060 0.93179 -0.04500
v 0.76000 0.78000 -0.04500
v 0.75180 0.83060 -0.04500
v 0.73310 0.86875 -0.04500
v 0.71310 0.89314 -0.04500
v 0.75180 0.83060 0.04500
v 0.73310 0.86875 0.04500
v 0.68880 0.91313 0.04500
v 0.71310 0.89314 0.04500
v 0.46690 0.69125 -0.04500
v 0.48690 0.66686 -0.04500
v 0.51120 0.64687 -0.04500
v 0.60000 0.62000 -0.04500
v 0.54940 0.62821 -0.04500
v 0.44820 0.72940 -0.04500
v 0.44000 0.78000 -0.04500
v 0.65060 0.62821 -0.04500
v 0.68880 0.64687 -0.04500
v 0.71310 0.66686 -0.04500
v 0.73310 0.69125 -0.04500
v 0.75180 0.72940 -0.04500
v 0.44820 0.83060 -0.04500
v 0.46690 0.86875 -0.04500
vt 2.38750 -0.25000
vt 2.25000 -0.25000
vt 2.38750 -0.30625
vt 2.25000 -0.30625
vt 2.38750 -0.38750
vt 2.25000 -0.38750
vt 5.85000 -6.50000
vt 5.75000 -6.50000
vt 5.85000 -6.51750
vt 5.75000 -6.51750
vt 5.85000 -6.60000
vt 5.75000 -6.60000
vt 2.76500 -4.76500
vt 2.77748 -4.75668
vt 2.77561 -4.75439
vt 2.77923 -4.76026
vt 2.78000 -4.76500
vt 2.77923 -4.76974
vt 2.77748 -4.77332
vt 2.77561 -4.77561
vt 2.77332 -4.77748
vt 2.76974 -4.77923
vt 2.76500 -4.78000
vt 2.76026 -4.77923
vt 2.75668 -4.77748
vt 2.75439 -4.77561
vt 2.75252 -4.77332
vt 2.75077 -4.76974
vt 2.75000 -4.76500
vt 2.75077 -4.76026
vt 2.75252 -4.75668
vt 2.75439 -4.75439
vt 2.75668 -4.75252
vt 2.76026 -4.75077
vt 2.76500 -4.75000
vt 2.76974 -4.75077
vt 2.77332 -4.75252
vt 2.82500 -4.75000
vt 2.75000 -4.75000
vt 2.82500 -4.75500
vt 2.75000 -4.75500
vt 2.82500 -4.76000
vt 2.75000 -4.76000
vt 2.82500 -4.76500
vt 2.82500 -4.77000
vt 2.75000 -4.77000
vt 2.82500 -4.77500
vt 2.75000 -4.77500
vt 2.82500 -4.78000
vt 2.75000 -4.78000
vt 4.52500 -2.52500
vt 4.54580 -2.51113
vt 4.54268 -2.50732
vt 4.54872 -2.51709
vt 4.55000 -2.52500
vt 4.54872 -2.53291
vt 4.54580 -2.53887
vt 4.54268 -2.54268
vt 4.53887 -2.54580
vt 4.53291 -2.54872
vt 4.52500 -2.55000
vt 4.51709 -2.54872
vt 4.51113 -2.54580
vt 4.50732 -2.54268
vt 4.50420 -2.53887
vt 4.50128 -2.53291
vt 4.50000 -2.52500
vt 4.50128 -2.51709
vt 4.50420 -2.51113
vt 4.50732 -2.50732
vt 4.51113 -2.50420
vt 4.51709 -2.50128
vt 4.52500 -2.50000
vt 4.53291 -2.50128
vt 4.53887 -2.50420
vt 4.51750 -2.50000
vt 4.50000 -2.50000
vt 4.51750 -2.50833
vt 4.50000 -2.50833
vt 4.51750 -2.51667
vt 4.50000 -2.51667
vt 4.51750 -2.52500
vt 4.51750 -2.53333
vt 4.50000 -2.53333
vt 4.51750 -2.54167
vt 4.50000 -2.54167
vt 4.51750 -2.55000
vt 4.50000 -2.55000
vt 10.05310 -1.00000
vt 10.05310 -0.97925
vt 9.94687 -1.00000
vt 9.94687 -0.97925
vt 10.05310 -0.96360
vt 9.94687 -0.96360
vt 10.05310 -0.95360
vt 9.94687 -0.95360
vt 9.94687 -1.02075
vt 10.05310 -1.02075
vt 9.94687 -1.03640
vt 10.05310 -1.03640
vt 9.94687 -1.04640
vt 10.05310 -1.04640
vt 10.06230 -0.97925
vt 10.05460 -0.96360
vt 10.06560 -1.00000
vt 10.04640 -0.95360
vt 10.03640 -0.94540
vt 10.02080 -0.93774
vt 10.00000 -0.93438
vt 9.97925 -0.93774
vt 9.96360 -0.94540
vt 9.95360 -0.95360
vt 9.94540 -0.96360
vt 9.93774 -0.97925
vt 9.93437 -1.00000
vt 9.93774 -1.02075
vt 9.94540 -1.03640
vt 9.95360 -1.04640
vt 9.96360 -1.05460
vt 9.97925 -1.06226
vt 10.00000 -1.06562
vt 10.02080 -1.06226
vt 10.03640 -1.05460
vt 10.04640 -1.04640
vt 10.05460 -1.03640
vt 10.06230 -1.02075
vt 9.98221 -1.05336
vt 9.96880 -1.04680
vt 9.96023 -1.03977
vt 9.95320 -1.03120
vt 9.94664 -1.01779
vt 9.94375 -1.00000
vt 10.05340 -0.98221
vt 10.05620 -1.00000
vt 10.04680 -0.96880
vt 10.03980 -0.96022
vt 10.03120 -0.95320
vt 10.01780 -0.94664
vt 10.00000 -0.94375
vt 9.94664 -0.98221
vt 9.95320 -0.96880
vt 9.96880 -0.95320
vt 9.98221 -0.94664
vt 9.96023 -0.96022
vt 10.03120 -1.04680
vt 10.03980 -1.03977
vt 10.04680 -1.03120
vt 10.01780 -1.05336
vt 10.00000 -1.05625
vt 10.05340 -1.01779
vt 9.94687 -1.03120
vt 10.04060 -1.03977
vt 10.04060 -1.03120
vt 10.05310 -1.03977
vt 9.95938 -1.03120
vt 9.95938 -1.03977
vt 9.94687 -1.01779
vt 10.04060 -1.01779
vt 10.04060 -1.00000
vt 10.05310 -1.03120
vt 9.95938 -1.01779
vt 10.05310 -1.01779
vt 9.95938 -1.00000
vt 9.94687 -0.98221
vt 10.04060 -0.98221
vt 9.94687 -0.96880
vt 10.04060 -0.96880
vt 9.94687 -0.96022
vt 10.04060 -0.96022
vt 9.95938 -0.98221
vt 10.05310 -0.98221
vt 9.95938 -0.96880
vt 10.05310 -0.96880
vt 9.95938 -0.96022
vt 9.94687 -1.03977
vt 10.05310 -0.96022
vt 10.12500 -17.00000
vt 10.10420 -17.00000
vt 10.12500 -17.02080
vt 10.10420 -17.02080
vt 10.08330 -17.00000
vt 10.08330 -17.02080
vt 10.06250 -17.00000
vt 10.06250 -17.02080
vt 10.04170 -17.00000
vt 10.04170 -17.02080
vt 10.02080 -17.00000
vt 10.02080 -17.02080
vt 10.00000 -17.00000
vt 10.00000 -17.02080
vt 10.12500 -17.04170
vt 10.10420 -17.04170
vt 10.08330 -17.04170
vt 10.06250 -17.04170
vt 10.04170 -17.04170
vt 10.02080 -17.04170
vt 10.00000 -17.04170
vt 10.12500 -17.06250
vt 10.10420 -17.06250
vt 10.08330 -17.06250
vt 10.06250 -17.06250
vt 10.04170 -17.06250
vt 10.02080 -17.06250
vt 10.00000 -17.06250
vt 10.12500 -17.08330
vt 10.10420 -17.08330
vt 10.08330 -17.08330
vt 10.06250 -17.08330
vt 10.04170 -17.08330
vt 10.02080 -17.08330
vt 10.00000 -17.08330
vt 10.12500 -17.10420
vt 10.10420 -17.10420
vt 10.08330 -17.10420
vt 10.06250 -17.10420
vt 10.04170 -17.10420
vt 10.02080 -17.10420
vt 10.00000 -17.10420
vt 10.12500 -17.12500
vt 10.10420 -17.12500
vt 10.08330 -17.12500
vt 10.06250 -17.12500
vt 10.04170 -17.12500
vt 10.02080 -17.12500
vt 10.00000 -17.12500
vt 50.00560 -61.00000
vt 50.00560 -60.98970
vt 49.99440 -61.00000
vt 49.99440 -60.98970
vt 50.00560 -60.98200
vt 49.99440 -60.98200
vt 50.00560 -60.97700
vt 49.99440 -60.97700
vt 49.99440 -61.01030
vt 50.00560 -61.01030
vt 49.99440 -61.01800
vt 50.00560 -61.01800
vt 49.99440 -61.02300
vt 50.00560 -61.02300
vt 50.03080 -60.98970
vt 50.02700 -60.98200
vt 50.03250 -61.00000
vt 50.02300 -60.97700
vt 50.01800 -60.97300
vt 50.01030 -60.96920
vt 50.00000 -60.96750
vt 50.00000 -61.03250
vt 50.01030 -61.03080
vt 50.01800 -61.02700
vt 50.02300 -61.02300
vt 50.02700 -61.01800
vt 50.03080 -61.01030
vt 49.98970 -60.96920
vt 49.98200 -60.97300
vt 49.97700 -60.97700
vt 49.97300 -60.98200
vt 49.98890 -61.01660
vt 49.97700 -61.02300
vt 49.98200 -61.02700
vt 49.98340 -61.01110
vt 49.97300 -61.01800
vt 49.99370 -61.01900
vt 49.98970 -61.03080
vt 50.00000 -61.02000
vt 49.98590 -61.01410
vt 49.98100 -61.00630
vt 49.96920 -61.01030
vt 49.96750 -61.00000
vt 49.98000 -61.00000
vt 50.01410 -60.98590
vt 50.01110 -60.98340
vt 50.00630 -60.98100
vt 50.00000 -60.98000
vt 50.00630 -61.01900
vt 50.01110 -61.01660
vt 50.01410 -61.01410
vt 50.01660 -61.01110
vt 50.01900 -61.00630
vt 50.02000 -61.00000
vt 49.96920 -60.98970
vt 49.98100 -60.99370
vt 49.98340 -60.98890
vt 49.98590 -60.98590
vt 49.98890 -60.98340
vt 49.99370 -60.98100
vt 50.01900 -60.99370
vt 50.01660 -60.98890
vt 49.99440 -61.00630
vt 50.00560 -61.01110
vt 50.00560 -61.00630
vt 49.99440 -61.01110
vt 49.99440 -61.01410
vt 50.00560 -61.01410
vt 50.00560 -60.99370
vt 49.99440 -60.99370
vt 50.00560 -60.98890
vt 49.99440 -60.98890
vt 49.99440 -60.98590
vt 50.00560 -60.98590
vt 42.00560 -35.00000
vt 42.00560 -34.98970
vt 41.99440 -35.00000
vt 41.99440 -34.98970
vt 42.00560 -34.98200
vt 41.99440 -34.98200
vt 42.00560 -34.97700
vt 41.99440 -34.97700
vt 41.99440 -35.01030
vt 42.00560 -35.01030
vt 41.99440 -35.01800
vt 42.00560 -35.01800
vt 41.99440 -35.02300
vt 42.00560 -35.02300
vt 42.03080 -34.98970
vt 42.02700 -34.98200
vt 42.03250 -35.00000
vt 42.02300 -34.97700
vt 42.01800 -34.97300
vt 42.01030 -34.96920
vt 42.00000 -34.96750
vt 42.00000 -35.03250
vt 42.01030 -35.03080
vt 42.01800 -35.02700
vt 42.02300 -35.02300
vt 42.02700 -35.01800
vt 42.03080 -35.01030
vt 41.98970 -34.96920
vt 41.98200 -34.97300
vt 41.97700 -34.97700
vt 41.97300 -34.98200
vt 41.98890 -35.01660
vt 41.97700 -35.02300
vt 41.98200 -35.02700
vt 41.98340 -35.01110
vt 41.97300 -35.01800
vt 41.99370 -35.01900
vt 41.98970 -35.03080
vt 42.00000 -35.02000
vt 41.98590 -35.01410
vt 41.98100 -35.00630
vt 41.96920 -35.01030
vt 41.96750 -35.00000
vt 41.98000 -35.00000
vt 42.01410 -34.98590
vt 42.01110 -34.98340
vt 42.00630 -34.98100
vt 42.00000 -34.98000
vt 42.00630 -35.01900
vt 42.01110 -35.01660
vt 42.01410 -35.01410
vt 42.01660 -35.01110
vt 42.01900 -35.00630
vt 42.02000 -35.00000
vt 41.96920 -34.98970
vt 41.98100 -34.99370
vt 41.98340 -34.98890
vt 41.98590 -34.98590
vt 41.98890 -34.98340
vt 41.99370 -34.98100
vt 42.01900 -34.99370
vt 42.01660 -34.98890
vt 41.99440 -35.00630
vt 42.00560 -35.01110
vt 42.00560 -35.00630
vt 41.99440 -35.01110
vt 41.99440 -35.01410
vt 42.00560 -35.01410
vt 42.00560 -34.99370
vt 41.99440 -34.99370
vt 42.00560 -34.98890
vt 41.99440 -34.98890
vt 41.99440 -34.98590
vt 42.00560 -34.98590
vn 1.0000 0.0000 0.0000
vn 0.0000 1.0000 0.0000
vn 0.0000 0.0000 1.0000
vn -1.0000 0.0000 0.0000
vn 0.0000 -1.0000 0.0000
vn 0.0000 0.0000 -1.0000
vn -0.7087 0.0000 0.7087
vn -0.8346 0.0000 0.5512
vn -0.9449 0.0000 0.3150
vn -0.9449 0.0000 -0.3150
vn -0.8346 0.0000 -0.5512
vn -0.7087 0.0000 -0.7087
vn -0.5512 0.0000 0.8346
vn -0.3150 0.0000 0.9449
vn 0.3150 0.0000 0.9449
vn 0.5512 0.0000 0.8346
vn 0.7087 0.0000 0.7087
vn 0.7087 0.0000 -0.7087
vn 0.8346 0.0000 -0.5512
vn 0.9449 0.0000 -0.3150
vn 0.9449 0.0000 0.3150
vn 0.8346 0.0000 0.5512
vn -0.5512 0.0000 -0.8346
vn -0.3150 0.0000 -0.9449
vn 0.3150 0.0000 -0.9449
vn 0.5512 0.0000 -0.8346
vn 0.5748 0.5748 -0.5748
vn 0.6378 0.6378 -0.4252
vn 0.6378 0.4252 -0.6378
vn 0.7244 0.4882 -0.4882
vn 0.6850 0.6850 -0.2283
vn 0.8032 0.5354 -0.2677
vn 0.7087 0.7087 0.0000
vn 0.8346 0.5512 0.0000
vn 0.6850 0.6850 0.2283
vn 0.8032 0.5354 0.2677
vn 0.6378 0.6378 0.4252
vn 0.7244 0.4882 0.4882
vn 0.5748 0.5748 0.5748
vn 0.6378 0.4252 0.6378
vn 0.6850 0.2283 -0.6850
vn 0.8032 0.2677 -0.5354
vn 0.9055 0.2992 -0.2992
vn 0.9449 0.3150 0.0000
vn 0.9055 0.2992 0.2992
vn 0.8032 0.2677 0.5354
vn 0.6850 0.2283 0.6850
vn 0.6850 -0.2283 -0.6850
vn 0.8032 -0.2677 -0.5354
vn 0.9055 -0.2992 -0.2992
vn 0.9449 -0.3150 0.0000
vn 0.9055 -0.2992 0.2992
vn 0.8032 -0.2677 0.5354
vn 0.6850 -0.2283 0.6850
vn 0.6378 -0.4252 -0.6378
vn 0.7244 -0.4882 -0.4882
vn 0.8032 -0.5354 -0.2677
vn 0.8346 -0.5512 0.0000
vn 0.8032 -0.5354 0.2677
vn 0.7244 -0.4882 0.4882
vn 0.6378 -0.4252 0.6378
vn 0.5748 -0.5748 -0.5748
vn 0.6378 -0.6378 -0.4252
vn 0.6850 -0.6850 -0.2283
vn 0.7087 -0.7087 0.0000
vn 0.6850 -0.6850 0.2283
vn 0.6378 -0.6378 0.4252
vn 0.5748 -0.5748 0.5748
vn -0.5748 0.5748 0.5748
vn -0.4252 0.6378 0.6378
vn -0.6378 0.6378 0.4252
vn -0.4882 0.7244 0.4882
vn -0.2283 0.6850 0.6850
vn -0.2677 0.8032 0.5354
vn 0.0000 0.7087 0.7087
vn 0.0000 0.8346 0.5512
vn 0.2283 0.6850 0.6850
vn 0.2677 0.8032 0.5354
vn 0.4252 0.6378 0.6378
vn 0.4882 0.7244 0.4882
vn -0.6850 0.6850 0.2283
vn -0.5354 0.8032 0.2677
vn -0.2992 0.9055 0.2992
vn 0.0000 0.9449 0.3150
vn 0.2992 0.9055 0.2992
vn 0.5354 0.8032 0.2677
vn -0.7087 0.7087 0.0000
vn -0.5512 0.8346 0.0000
vn -0.3150 0.9449 0.0000
vn 0.3150 0.9449 0.0000
vn 0.5512 0.8346 0.0000
vn -0.6850 0.6850 -0.2283
vn -0.5354 0.8032 -0.2677
vn -0.2992 0.9055 -0.2992
vn 0.0000 0.9449 -0.3150
vn 0.2992 0.9055 -0.2992
vn 0.5354 0.8032 -0.2677
vn -0.6378 0.6378 -0.4252
vn -0.4882 0.7244 -0.4882
vn -0.2677 0.8032 -0.5354
vn 0.0000 0.8346 -0.5512
vn 0.2677 0.8032 -0.5354
vn 0.4882 0.7244 -0.4882
vn -0.5748 0.5748 -0.5748
vn -0.4252 0.6378 -0.6378
vn -0.2283 0.6850 -0.6850
vn 0.0000 0.7087 -0.7087
vn 0.2283 0.6850 -0.6850
vn 0.4252 0.6378 -0.6378
vn 0.4882 0.4882 0.7244
vn 0.2677 0.5354 0.8032
vn 0.0000 0.5512 0.8346
vn -0.2677 0.5354 0.8032
vn -0.4882 0.4882 0.7244
vn -0.6378 0.4252 0.6378
vn 0.5354 0.2677 0.8032
vn 0.2992 0.2992 0.9055
vn 0.0000 0.3150 0.9449
vn -0.2992 0.2992 0.9055
vn -0.5354 0.2677 0.8032
vn -0.6850 0.2283 0.6850
vn 0.5354 -0.2677 0.8032
vn 0.2992 -0.2992 0.9055
vn 0.0000 -0.3150 0.9449
vn -0.2992 -0.2992 0.9055
vn -0.5354 -0.2677 0.8032
vn -0.6850 -0.2283 0.6850
vn 0.4882 -0.4882 0.7244
vn 0.2677 -0.5354 0.8032
vn 0.0000 -0.5512 0.8346
vn -0.2677 -0.5354 0.8032
vn -0.4882 -0.4882 0.7244
vn -0.6378 -0.4252 0.6378
vn 0.4252 -0.6378 0.6378
vn 0.2283 -0.6850 0.6850
vn 0.0000 -0.7087 0.7087
vn -0.2283 -0.6850 0.6850
vn -0.4252 -0.6378 0.6378
vn -0.5748 -0.5748 0.5748
vn -0.7244 0.4882 0.4882
vn -0.8032 0.5354 0.2677
vn -0.8346 0.5512 0.0000
vn -0.8032 0.5354 -0.2677
vn -0.7244 0.4882 -0.4882
vn -0.6378 0.4252 -0.6378
vn -0.8032 0.2677 0.5354
vn -0.9055 0.2992 0.2992
vn -0.9449 0.3150 0.0000
vn -0.9055 0.2992 -0.2992
vn -0.8032 0.2677 -0.5354
vn -0.6850 0.2283 -0.6850
vn -0.8032 -0.2677 0.5354
vn -0.9055 -0.2992 0.2992
vn -0.9449 -0.3150 0.0000
vn -0.9055 -0.2992 -0.2992
vn -0.8032 -0.2677 -0.5354
vn -0.6850 -0.2283 -0.6850
vn -0.7244 -0.4882 0.4882
vn -0.8032 -0.5354 0.2677
vn -0.8346 -0.5512 0.0000
vn -0.8032 -0.5354 -0.2677
vn -0.7244 -0.4882 -0.4882
vn -0.6378 -0.4252 -0.6378
vn -0.6378 -0.6378 0.4252
vn -0.6850 -0.6850 0.2283
vn -0.7087 -0.7087 0.0000
vn -0.6850 -0.6850 -0.2283
vn -0.6378 -0.6378 -0.4252
vn -0.5748 -0.5748 -0.5748
vn -0.4252 -0.6378 -0.6378
vn -0.4882 -0.7244 -0.4882
vn -0.2283 -0.6850 -0.6850
vn -0.2677 -0.8032 -0.5354
vn 0.0000 -0.7087 -0.7087
vn 0.0000 -0.8346 -0.5512
vn 0.2283 -0.6850 -0.6850
vn 0.2677 -0.8032 -0.5354
vn 0.4252 -0.6378 -0.6378
vn 0.4882 -0.7244 -0.4882
vn -0.5354 -0.8032 -0.2677
vn -0.2992 -0.9055 -0.2992
vn 0.0000 -0.9449 -0.3150
vn 0.2992 -0.9055 -0.2992
vn 0.5354 -0.8032 -0.2677
vn -0.5512 -0.8346 0.0000
vn -0.3150 -0.9449 0.0000
vn 0.3150 -0.9449 0.0000
vn 0.5512 -0.8346 0.0000
vn -0.5354 -0.8032 0.2677
vn -0.2992 -0.9055 0.2992
vn 0.0000 -0.9449 0.3150
vn 0.2992 -0.9055 0.2992
vn 0.5354 -0.8032 0.2677
vn -0.4882 -0.7244 0.4882
vn -0.2677 -0.8032 0.5354
vn 0.0000 -0.8346 0.5512
vn 0.2677 -0.8032 0.5354
vn 0.4882 -0.7244 0.4882
vn -0.4882 0.4882 -0.7244
vn -0.2677 0.5354 -0.8032
vn 0.0000 0.5512 -0.8346
vn 0.2677 0.5354 -0.8032
vn 0.4882 0.4882 -0.7244
vn -0.5354 0.2677 -0.8032
vn -0.2992 0.2992 -0.9055
vn 0.0000 0.3150 -0.9449
vn 0.2992 0.2992 -0.9055
vn 0.5354 0.2677 -0.8032
vn -0.5354 -0.2677 -0.8032
vn -0.2992 -0.2992 -0.9055
vn 0.0000 -0.3150 -0.9449
vn 0.2992 -0.2992 -0.9055
vn 0.5354 -0.2677 -0.8032
vn -0.4882 -0.4882 -0.7244
vn -0.2677 -0.5354 -0.8032
vn 0.0000 -0.5512 -0.8346
vn 0.2677 -0.5354 -0.8032
vn 0.4882 -0.4882 -0.7244

o Base
usemtl base
f 1/1/1 2/2/1 3/3/1
f 3/3/1 2/2/1 4/4/1
f 5/1/2 2/2/2 6/5/2
f 6/5/2 2/2/2 1/6/2
f 2/1/3 5/2/3 4/3/3
f 4/3/3 5/2/3 7/4/3
f 5/1/4 6/2/4 7/3/4
f 7/3/4 6/2/4 8/4/4
f 8/1/5 3/2/5 7/5/5
f 7/5/5 3/2/5 4/6/5
f 6/1/6 1/2/6 8/3/6
f 8/3/6 1/2/6 3/4/6
o Plinth
usemtl plinth
f 9/7/1 10/8/1 11/9/1
f 11/9/1 10/8/1 12/10/1
f 13/7/2 10/8/2 14/11/2
f 14/11/2 10/8/2 9/12/2
f 10/7/3 13/8/3 12/9/3
f 12/9/3 13/8/3 15/10/3
f 13/7/4 14/8/4 15/9/4
f 15/9/4 14/8/4 16/10/4
f 16/7/5 11/8/5 15/11/5
f 15/11/5 11/8/5 12/12/5
f 14/7/6 9/8/6 16/9/6
f 16/9/6 9/8/6 11/10/6
o Stem
usemtl stem
f 17/13/2 18/14/2 19/15/2
f 17/13/2 20/16/2 18/14/2
f 17/13/2 21/17/2 20/16/2
f 17/13/2 22/18/2 21/17/2
f 17/13/2 23/19/2 22/18/2
f 17/13/2 24/20/2 23/19/2
f 17/13/2 25/21/2 24/20/2
f 17/13/2 26/22/2 25/21/2
f 17/13/2 27/23/2 26/22/2
f 17/13/2 28/24/2 27/23/2
f 17/13/2 29/25/2 28/24/2
f 17/13/2 30/26/2 29/25/2
f 17/13/2 31/27/2 30/26/2
f 17/13/2 32/28/2 31/27/2
f 17/13/2 33/29/2 32/28/2
f 17/13/2 34/30/2 33/29/2
f 17/13/2 35/31/2 34/30/2
f 17/13/2 36/32/2 35/31/2
f 17/13/2 37/33/2 36/32/2
f 17/13/2 38/34/2 37/33/2
f 17/13/2 39/35/2 38/34/2
f 17/13/2 40/36/2 39/35/2
f 17/13/2 41/37/2 40/36/2
f 17/13/2 19/15/2 41/37/2
f 42/38/7 36/39/7 43/40/8
f 43/40/8 36/39/7 37/41/8
f 43/40/8 37/41/8 44/42/9
f 44/42/9 37/41/8 38/43/9
f 44/42/9 38/43/9 45/44/4
f 45/44/4 38/43/9 39/29/4
f 45/44/4 39/29/4 46/45/10
f 46/45/10 39/29/4 40/46/10
f 46/45/10 40/46/10 47/47/11
f 47/47/11 40/46/10 41/48/11
f 47/47/11 41/48/11 48/49/12
f 48/49/12 41/48/11 19/50/12
f 36/38/7 42/39/7 35/40/13
f 35/40/13 42/39/7 49/41/13
f 35/40/13 49/41/13 34/42/14
f 34/42/14 49/41/13 50/43/14
f 34/42/14 50/43/14 33/44/3
f 33/44/3 50/43/14 51/29/3
f 33/44/3 51/29/3 32/45/15
f 32/45/15 51/29/3 52/46/15
f 32/45/15 52/46/15 31/47/16
f 31/47/16 52/46/15 53/48/16
f 31/47/16 53/48/16 30/49/17
f 30/49/17 53/48/16 54/50/17
f 55/13/5 49/14/5 42/15/5
f 55/13/5 50/16/5 49/14/5
f 55/13/5 51/17/5 50/16/5
f 55/13/5 52/18/5 51/17/5
f 55/13/5 53/19/5 52/18/5
f 55/13/5 54/20/5 53/19/5
f 55/13/5 56/21/5 54/20/5
f 55/13/5 57/22/5 56/21/5
f 55/13/5 58/23/5 57/22/5
f 55/13/5 59/24/5 58/23/5
f 55/13/5 60/25/5 59/24/5
f 55/13/5 61/26/5 60/25/5
f 55/13/5 62/27/5 61/26/5
f 55/13/5 63/28/5 62/27/5
f 55/13/5 64/29/5 63/28/5
f 55/13/5 65/30/5 64/29/5
f 55/13/5 66/31/5 65/30/5
f 55/13/5 48/32/5 66/31/5
f 55/13/5 47/33/5 48/32/5
f 55/13/5 46/34/5 47/33/5
f 55/13/5 45/35/5 46/34/5
f 55/13/5 44/36/5 45/35/5
f 55/13/5 43/37/5 44/36/5
f 55/13/5 42/15/5 43/37/5
f 61/38/18 24/39/18 60/40/19
f 60/40/19 24/39/18 25/41/19
f 60/40/19 25/41/19 59/42/20
f 59/42/20 25/41/19 26/43/20
f 59/42/20 26/43/20 58/44/1
f 58/44/1 26/43/20 27/29/1
f 58/44/1 27/29/1 57/45/21
f 57/45/21 27/29/1 28/46/21
f 57/45/21 28/46/21 56/47/22
f 56/47/22 28/46/21 29/48/22
f 56/47/22 29/48/22 54/49/17
f 54/49/17 29/48/22 30/50/17
f 48/38/12 19/39/12 66/40/23
f 66/40/23 19/39/12 18/41/23
f 66/40/23 18/41/23 65/42/24
f 65/42/24 18/41/23 20/43/24
f 65/42/24 20/43/24 64/44/6
f 64/44/6 20/43/24 21/29/6
f 64/44/6 21/29/6 63/45/25
f 63/45/25 21/29/6 22/46/25
f 63/45/25 22/46/25 62/47/26
f 62/47/26 22/46/25 23/48/26
f 62/47/26 23/48/26 61/49/18
f 61/49/18 23/48/26 24/50/18
o Knot
usemtl knot
f 67/51/2 68/52/2 69/53/2
f 67/51/2 70/54/2 68/52/2
f 67/51/2 71/55/2 70/54/2
f 67/51/2 72/56/2 71/55/2
f 67/51/2 73/57/2 72/56/2
f 67/51/2 74/58/2 73/57/2
f 67/51/2 75/59/2 74/58/2
f 67/51/2 76/60/2 75/59/2
f 67/51/2 77/61/2 76/60/2
f 67/51/2 78/62/2 77/61/2
f 67/51/2 79/63/2 78/62/2
f 67/51/2 80/64/2 79/63/2
f 67/51/2 81/65/2 80/64/2
f 67/51/2 82/66/2 81/65/2
f 67/51/2 83/67/2 82/66/2
f 67/51/2 84/68/2 83/67/2
f 67/51/2 85/69/2 84/68/2
f 67/51/2 86/70/2 85/69/2
f 67/51/2 87/71/2 86/70/2
f 67/51/2 88/72/2 87/71/2
f 67/51/2 89/73/2 88/72/2
f 67/51/2 90/74/2 89/73/2
f 67/51/2 91/75/2 90/74/2
f 67/51/2 69/53/2 91/75/2
f 92/76/7 86/77/7 93/78/8
f 93/78/8 86/77/7 87/79/8
f 93/78/8 87/79/8 94/80/9
f 94/80/9 87/79/8 88/81/9
f 94/80/9 88/81/9 95/82/4
f 95/82/4 88/81/9 89/67/4
f 95/82/4 89/67/4 96/83/10
f 96/83/10 89/67/4 90/84/10
f 96/83/10 90/84/10 97/85/11
f 97/85/11 90/84/10 91/86/11
f 97/85/11 91/86/11 98/87/12
f 98/87/12 91/86/11 69/88/12
f 86/76/7 92/77/7 85/78/13
f 85/78/13 92/77/7 99/79/13
f 85/78/13 99/79/13 84/80/14
f 84/80/14 99/79/13 100/81/14
f 84/80/14 100/81/14 83/82/3
f 83/82/3 100/81/14 101/67/3
f 83/82/3 101/67/3 82/83/15
f 82/83/15 101/67/3 102/84/15
f 82/83/15 102/84/15 81/85/16
f 81/85/16 102/84/15 103/86/16
f 81/85/16 103/86/16 80/87/17
f 80/87/17 103/86/16 104/88/17
f 105/51/5 99/52/5 92/53/5
f 105/51/5 100/54/5 99/52/5
f 105/51/5 101/55/5 100/54/5
f 105/51/5 102/56/5 101/55/5
f 105/51/5 103/57/5 102/56/5
f 105/51/5 104/58/5 103/57/5
f 105/51/5 106/59/5 104/58/5
f 105/51/5 107/60/5 106/59/5
f 105/51/5 108/61/5 107/60/5
f 105/51/5 109/62/5 108/61/5
f 105/51/5 110/63/5 109/62/5
f 105/51/5 111/64/5 110/63/5
f 105/51/5 112/65/5 111/64/5
f 105/51/5 113/66/5 112/65/5
f 105/51/5 114/67/5 113/66/5
f 105/51/5 115/68/5 114/67/5
f 105/51/5 116/69/5 115/68/5
f 105/51/5 98/70/5 116/69/5
f 105/51/5 97/71/5 98/70/5
f 105/51/5 96/72/5 97/71/5
f 105/51/5 95/73/5 96/72/5
f 105/51/5 94/74/5 95/73/5
f 105/51/5 93/75/5 94/74/5
f 105/51/5 92/53/5 93/75/5
f 111/76/18 74/77/18 110/78/19
f 110/78/19 74/77/18 75/79/19
f 110/78/19 75/79/19 109/80/20
f 109/80/20 75/79/19 76/81/20
f 109/80/20 76/81/20 108/82/1
f 108/82/1 76/81/20 77/67/1
f 108/82/1 77/67/1 107/83/21
f 107/83/21 77/67/1 78/84/21
f 107/83/21 78/84/21 106/85/22
f 106/85/22 78/84/21 79/86/22
f 106/85/22 79/86/22 104/87/17
f 104/87/17 79/86/22 80/88/17
f 98/76/12 69/77/12 116/78/23
f 116/78/23 69/77/12 68/79/23
f 116/78/23 68/79/23 115/80/24
f 115/80/24 68/79/23 70/81/24
f 115/80/24 70/81/24 114/82/6
f 114/82/6 70/81/24 71/67/6
f 114/82/6 71/67/6 113/83/25
f 113/83/25 71/67/6 72/84/25
f 113/83/25 72/84/25 112/85/26
f 112/85/26 72/84/25 73/86/26
f 112/85/26 73/86/26 111/87/18
f 111/87/18 73/86/26 74/88/18
o Cup
usemtl cup
f 117/89/3 118/90/14 119/91/3
f 118/90/14 120/92/14 119/91/3
f 118/90/14 121/93/13 120/92/14
f 121/93/13 122/94/13 120/92/14
f 121/93/13 123/95/7 122/94/13
f 123/95/7 124/96/7 122/94/13
f 123/96/7 125/94/8 124/95/7
f 125/94/8 126/93/8 124/95/7
f 125/94/8 127/92/9 126/93/8
f 127/92/9 128/90/9 126/93/8
f 127/92/9 129/91/4 128/90/9
f 129/91/4 130/89/4 128/90/9
f 129/91/4 131/97/10 130/89/4
f 131/97/10 132/98/10 130/89/4
f 131/97/10 133/99/11 132/98/10
f 133/99/11 134/100/11 132/98/10
f 133/99/11 135/101/12 134/100/11
f 135/101/12 136/102/12 134/100/11
f 137/93/23 136/95/12 138/94/23
f 136/95/12 135/96/12 138/94/23
f 139/90/24 137/93/23 140/92/24
f 137/93/23 138/94/23 140/92/24
f 141/89/6 139/90/24 142/91/6
f 139/90/24 140/92/24 142/91/6
f 143/98/25 141/89/6 144/97/25
f 141/89/6 142/91/6 144/97/25
f 145/100/26 143/98/25 146/99/26
f 143/98/25 144/97/25 146/99/26
f 147/102/18 145/100/26 148/101/18
f 145/100/26 146/99/26 148/101/18
f 148/102/18 149/100/19 147/101/18
f 149/100/19 150/99/19 147/101/18
f 149/100/19 151/98/20 150/99/19
f 151/98/20 152/97/20 150/99/19
f 151/98/20 153/89/1 152/97/20
f 153/89/1 154/91/1 152/97/20
f 153/89/1 155/90/21 154/91/1
f 155/90/21 156/92/21 154/91/1
f 155/90/21 157/93/22 156/92/21
f 157/93/22 158/94/22 156/92/21
f 157/93/22 159/95/17 158/94/22
f 159/95/17 160/96/17 158/94/22
f 159/102/17 161/100/16 160/101/17
f 161/100/16 162/99/16 160/101/17
f 161/100/16 163/98/15 162/99/16
f 163/98/15 164/97/15 162/99/16
f 163/98/15 117/89/3 164/97/15
f 117/89/3 119/91/3 164/97/15
f 120/103/5 122/104/5 119/105/5
f 122/104/5 124/106/5 119/105/5
f 124/106/5 126/107/5 119/105/5
f 126/107/5 128/108/5 119/105/5
f 128/108/5 130/109/5 119/105/5
f 130/109/5 132/110/5 119/105/5
f 132/110/5 134/111/5 119/105/5
f 134/111/5 136/112/5 119/105/5
f 136/112/5 137/113/5 119/105/5
f 137/113/5 139/114/5 119/105/5
f 139/114/5 141/115/5 119/105/5
f 141/115/5 143/116/5 119/105/5
f 143/116/5 145/117/5 119/105/5
f 145/117/5 147/118/5 119/105/5
f 147/118/5 150/119/5 119/105/5
f 150/119/5 152/120/5 119/105/5
f 152/120/5 154/121/5 119/105/5
f 154/121/5 156/122/5 119/105/5
f 156/122/5 158/123/5 119/105/5
f 158/123/5 160/124/5 119/105/5
f 160/124/5 162/125/5 119/105/5
f 162/125/5 164/126/5 119/105/5
f 131/108/2 129/109/2 133/107/2
f 129/109/2 127/110/2 133/107/2
f 142/105/2 140/103/2 133/107/2
f 140/103/2 138/104/2 133/107/2
f 138/104/2 135/106/2 133/107/2
f 155/120/2 153/121/2 165/127/2
f 155/120/2 165/127/2 166/128/2
f 157/119/2 155/120/2 166/128/2
f 157/119/2 166/128/2 167/129/2
f 159/118/2 157/119/2 167/129/2
f 167/129/2 168/130/2 159/118/2
f 161/117/2 159/118/2 168/130/2
f 168/130/2 169/131/2 161/117/2
f 169/131/2 163/116/2 161/117/2
f 169/131/2 170/132/2 163/116/2
f 170/132/2 117/115/2 163/116/2
f 171/133/2 172/134/2 142/105/2
f 142/105/2 173/135/2 171/133/2
f 142/105/2 133/107/2 173/135/2
f 174/136/2 173/135/2 133/107/2
f 174/136/2 133/107/2 175/137/2
f 175/137/2 133/107/2 176/138/2
f 176/138/2 133/107/2 177/139/2
f 133/107/2 127/110/2 177/139/2
f 170/132/2 178/140/2 117/115/2
f 178/140/2 118/114/2 117/115/2
f 178/140/2 179/141/2 118/114/2
f 179/141/2 121/113/2 118/114/2
f 180/142/2 181/143/2 123/112/2
f 181/143/2 177/139/2 125/111/2
f 127/110/2 125/111/2 177/139/2
f 179/141/2 182/144/2 121/113/2
f 123/112/2 121/113/2 182/144/2
f 123/112/2 182/144/2 180/142/2
f 125/111/2 123/112/2 181/143/2
f 149/123/2 148/124/2 183/145/2
f 148/124/2 184/146/2 183/145/2
f 146/125/2 184/146/2 148/124/2
f 146/125/2 185/147/2 184/146/2
f 151/122/2 149/123/2 186/148/2
f 149/123/2 183/145/2 186/148/2
f 153/121/2 151/122/2 187/149/2
f 151/122/2 186/148/2 187/149/2
f 146/125/2 144/126/2 185/147/2
f 144/126/2 188/150/2 185/147/2
f 188/150/2 144/126/2 142/105/2
f 172/134/2 188/150/2 142/105/2
f 153/121/2 187/149/2 165/127/2
f 189/132/2 190/145/2 191/146/2
f 192/147/2 189/132/2 191/146/2
f 189/132/2 193/150/2 194/134/2
f 189/132/2 192/147/2 193/150/2
f 183/151/8 191/152/7 190/153/8
f 184/154/7 192/155/13 191/156/7
f 186/157/9 190/153/8 195/158/9
f 187/91/4 195/158/9 196/159/4
f 185/160/13 193/161/14 192/155/13
f 188/162/14 194/163/3 193/161/14
f 190/145/2 189/132/2 195/148/2
f 196/149/2 189/132/2 197/127/2
f 197/127/2 189/132/2 198/128/2
f 198/128/2 189/132/2 199/129/2
f 199/129/2 189/132/2 200/130/2
f 200/130/2 189/132/2 201/131/2
f 165/164/10 196/159/4 197/165/10
f 166/166/11 197/165/10 198/167/11
f 167/168/12 198/167/11 199/169/12
f 168/151/23 199/152/12 200/153/23
f 169/157/24 200/153/23 201/158/24
f 170/91/6 201/158/24 189/159/6
f 196/149/2 195/148/2 189/132/2
f 189/132/2 194/134/2 202/133/2
f 189/132/2 202/133/2 203/135/2
f 189/132/2 203/135/2 204/136/2
f 189/132/2 204/136/2 205/137/2
f 172/89/3 202/170/15 194/163/3
f 171/171/15 203/172/16 202/170/15
f 173/173/16 204/174/17 203/172/16
f 174/154/17 205/155/22 204/156/17
f 175/160/22 206/161/21 205/155/22
f 176/162/21 207/163/1 206/161/21
f 208/141/2 209/140/2 189/132/2
f 208/141/2 189/132/2 210/144/2
f 189/132/2 211/142/2 210/144/2
f 205/137/2 206/138/2 189/132/2
f 206/138/2 207/139/2 189/132/2
f 189/132/2 207/139/2 212/143/2
f 189/132/2 212/143/2 211/142/2
f 178/164/25 189/159/6 209/165/25
f 179/166/26 209/165/25 208/167/26
f 177/89/1 212/170/20 207/163/1
f 181/171/20 211/172/19 212/170/20
f 182/168/18 208/167/26 210/169/18
f 180/173/19 210/174/18 211/172/19
f 191/152/7 183/151/8 184/175/7
f 199/152/12 168/151/23 167/175/12
f 189/159/6 178/164/25 170/91/6
f 175/160/22 176/162/21 206/161/21
f 209/165/25 179/166/26 178/164/25
f 211/172/19 181/171/20 180/173/19
f 200/153/23 169/157/24 168/151/23
f 212/170/20 177/89/1 181/171/20
f 207/163/1 176/162/21 177/89/1
f 192/155/13 184/154/7 185/160/13
f 208/167/26 182/168/18 179/166/26
f 210/174/18 180/173/19 182/176/18
f 193/161/14 185/160/13 188/162/14
f 201/158/24 170/91/6 169/157/24
f 196/159/4 165/164/10 187/91/4
f 195/158/9 187/91/4 186/157/9
f 197/165/10 166/166/11 165/164/10
f 194/163/3 188/162/14 172/89/3
f 203/172/16 171/171/15 173/173/16
f 190/153/8 186/157/9 183/151/8
f 204/174/17 173/173/16 174/176/17
f 174/154/17 175/160/22 205/155/22
f 198/167/11 167/168/12 166/166/11
f 202/170/15 172/89/3 171/171/15
o CupBottom
usemtl cupbottom
f 213/177/27 214/178/28 215/179/29
f 215/179/29 214/178/28 216/180/30
f 214/178/28 217/181/31 216/180/30
f 216/180/30 217/181/31 218/182/32
f 217/181/31 219/183/33 218/182/32
f 218/182/32 219/183/33 220/184/34
f 219/183/33 221/185/35 220/184/34
f 220/184/34 221/185/35 222/186/36
f 221/185/35 223/187/37 222/186/36
f 222/186/36 223/187/37 224/188/38
f 223/187/37 225/189/39 224/188/38
f 224/188/38 225/189/39 226/190/40
f 215/179/29 216/180/30 227/191/41
f 227/191/41 216/180/30 228/192/42
f 216/180/30 218/182/32 228/192/42
f 228/192/42 218/182/32 229/193/43
f 218/182/32 220/184/34 229/193/43
f 229/193/43 220/184/34 230/194/44
f 220/184/34 222/186/36 230/194/44
f 230/194/44 222/186/36 231/195/45
f 222/186/36 224/188/38 231/195/45
f 231/195/45 224/188/38 232/196/46
f 224/188/38 226/190/40 232/196/46
f 232/196/46 226/190/40 233/197/47
f 227/191/41 228/192/42 234/198/18
f 234/198/18 228/192/42 235/199/19
f 228/192/42 229/193/43 235/199/19
f 235/199/19 229/193/43 236/200/20
f 229/193/43 230/194/44 236/200/20
f 236/200/20 230/194/44 237/201/1
f 230/194/44 231/195/45 237/201/1
f 237/201/1 231/195/45 238/202/21
f 231/195/45 232/196/46 238/202/21
f 238/202/21 232/196/46 239/203/22
f 232/196/46 233/197/47 239/203/22
f 239/203/22 233/197/47 240/204/17
f 234/198/18 235/199/19 241/205/48
f 241/205/48 235/199/19 242/206/49
f 235/199/19 236/200/20 242/206/49
f 242/206/49 236/200/20 243/207/50
f 236/200/20 237/201/1 243/207/50
f 243/207/50 237/201/1 244/208/51
f 237/201/1 238/202/21 244/208/51
f 244/208/51 238/202/21 245/209/52
f 238/202/21 239/203/22 245/209/52
f 245/209/52 239/203/22 246/210/53
f 239/203/22 240/204/17 246/210/53
f 246/210/53 240/204/17 247/211/54
f 241/205/48 242/206/49 248/212/55
f 248/212/55 242/206/49 249/213/56
f 242/206/49 243/207/50 249/213/56
f 249/213/56 243/207/50 250/214/57
f 243/207/50 244/208/51 250/214/57
f 250/214/57 244/208/51 251/215/58
f 244/208/51 245/209/52 251/215/58
f 251/215/58 245/209/52 252/216/59
f 245/209/52 246/210/53 252/216/59
f 252/216/59 246/210/53 253/217/60
f 246/210/53 247/211/54 253/217/60
f 253/217/60 247/211/54 254/218/61
f 248/212/55 249/213/56 255/219/62
f 255/219/62 249/213/56 256/220/63
f 249/213/56 250/214/57 256/220/63
f 256/220/63 250/214/57 257/221/64
f 250/214/57 251/215/58 257/221/64
f 257/221/64 251/215/58 258/222/65
f 251/215/58 252/216/59 258/222/65
f 258/222/65 252/216/59 259/223/66
f 252/216/59 253/217/60 259/223/66
f 259/223/66 253/217/60 260/224/67
f 253/217/60 254/218/61 260/224/67
f 260/224/67 254/218/61 261/225/68
f 262/177/69 263/178/70 264/179/71
f 264/179/71 263/178/70 265/180/72
f 263/178/70 266/181/73 265/180/72
f 265/180/72 266/181/73 267/182/74
f 266/181/73 268/183/75 267/182/74
f 267/182/74 268/183/75 269/184/76
f 268/183/75 270/185/77 269/184/76
f 269/184/76 270/185/77 271/186/78
f 270/185/77 272/187/79 271/186/78
f 271/186/78 272/187/79 273/188/80
f 272/187/79 225/189/39 273/188/80
f 273/188/80 225/189/39 223/190/37
f 264/179/71 265/180/72 274/191/81
f 274/191/81 265/180/72 275/192/82
f 265/180/72 267/182/74 275/192/82
f 275/192/82 267/182/74 276/193/83
f 267/182/74 269/184/76 276/193/83
f 276/193/83 269/184/76 277/194/84
f 269/184/76 271/186/78 277/194/84
f 277/194/84 271/186/78 278/195/85
f 271/186/78 273/188/80 278/195/85
f 278/195/85 273/188/80 279/196/86
f 273/188/80 223/190/37 279/196/86
f 279/196/86 223/190/37 221/197/35
f 274/191/81 275/192/82 280/198/87
f 280/198/87 275/192/82 281/199/88
f 275/192/82 276/193/83 281/199/88
f 281/199/88 276/193/83 282/200/89
f 276/193/83 277/194/84 282/200/89
f 282/200/89 277/194/84 283/201/2
f 277/194/84 278/195/85 283/201/2
f 283/201/2 278/195/85 284/202/90
f 278/195/85 279/196/86 284/202/90
f 284/202/90 279/196/86 285/203/91
f 279/196/86 221/197/35 285/203/91
f 285/203/91 221/197/35 219/204/33
f 280/198/87 281/199/88 286/205/92
f 286/205/92 281/199/88 287/206/93
f 281/199/88 282/200/89 287/206/93
f 287/206/93 282/200/89 288/207/94
f 282/200/89 283/201/2 288/207/94
f 288/207/94 283/201/2 289/208/95
f 283/201/2 284/202/90 289/208/95
f 289/208/95 284/202/90 290/209/96
f 284/202/90 285/203/91 290/209/96
f 290/209/96 285/203/91 291/210/97
f 285/203/91 219/204/33 291/210/97
f 291/210/97 219/204/33 217/211/31
f 286/205/92 287/206/93 292/212/98
f 292/212/98 287/206/93 293/213/99
f 287/206/93 288/207/94 293/213/99
f 293/213/99 288/207/94 294/214/100
f 288/207/94 289/208/95 294/214/100
f 294/214/100 289/208/95 295/215/101
f 289/208/95 290/209/96 295/215/101
f 295/215/101 290/209/96 296/216/102
f 290/209/96 291/210/97 296/216/102
f 296/216/102 291/210/97 297/217/103
f 291/210/97 217/211/31 297/217/103
f 297/217/103 217/211/31 214/218/28
f 292/212/98 293/213/99 298/219/104
f 298/219/104 293/213/99 299/220/105
f 293/213/99 294/214/100 299/220/105
f 299/220/105 294/214/100 300/221/106
f 294/214/100 295/215/101 300/221/106
f 300/221/106 295/215/101 301/222/107
f 295/215/101 296/216/102 301/222/107
f 301/222/107 296/216/102 302/223/108
f 296/216/102 297/217/103 302/223/108
f 302/223/108 297/217/103 303/224/109
f 297/217/103 214/218/28 303/224/109
f 303/224/109 214/218/28 213/225/27
f 225/177/39 272/178/79 226/179/40
f 226/179/40 272/178/79 304/180/110
f 272/178/79 270/181/77 304/180/110
f 304/180/110 270/181/77 305/182/111
f 270/181/77 268/183/75 305/182/111
f 305/182/111 268/183/75 306/184/112
f 268/183/75 266/185/73 306/184/112
f 306/184/112 266/185/73 307/186/113
f 266/185/73 263/187/70 307/186/113
f 307/186/113 263/187/70 308/188/114
f 263/187/70 262/189/69 308/188/114
f 308/188/114 262/189/69 309/190/115
f 226/179/40 304/180/110 233/191/47
f 233/191/47 304/180/110 310/192/116
f 304/180/110 305/182/111 310/192/116
f 310/192/116 305/182/111 311/193/117
f 305/182/111 306/184/112 311/193/117
f 311/193/117 306/184/112 312/194/118
f 306/184/112 307/186/113 312/194/118
f 312/194/118 307/186/113 313/195/119
f 307/186/113 308/188/114 313/195/119
f 313/195/119 308/188/114 314/196/120
f 308/188/114 309/190/115 314/196/120
f 314/196/120 309/190/115 315/197/121
f 233/191/47 310/192/116 240/198/17
f 240/198/17 310/192/116 316/199/16
f 310/192/116 311/193/117 316/199/16
f 316/199/16 311/193/117 317/200/15
f 311/193/117 312/194/118 317/200/15
f 317/200/15 312/194/118 318/201/3
f 312/194/118 313/195/119 318/201/3
f 318/201/3 313/195/119 319/202/14
f 313/195/119 314/196/120 319/202/14
f 319/202/14 314/196/120 320/203/13
f 314/196/120 315/197/121 320/203/13
f 320/203/13 315/197/121 321/204/7
f 240/198/17 316/199/16 247/205/54
f 247/205/54 316/199/16 322/206/122
f 316/199/16 317/200/15 322/206/122
f 322/206/122 317/200/15 323/207/123
f 317/200/15 318/201/3 323/207/123
f 323/207/123 318/201/3 324/208/124
f 318/201/3 319/202/14 324/208/124
f 324/208/124 319/202/14 325/209/125
f 319/202/14 320/203/13 325/209/125
f 325/209/125 320/203/13 326/210/126
f 320/203/13 321/204/7 326/210/126
f 326/210/126 321/204/7 327/211/127
f 247/205/54 322/206/122 254/212/61
f 254/212/61 322/206/122 328/213/128
f 322/206/122 323/207/123 328/213/128
f 328/213/128 323/207/123 329/214/129
f 323/207/123 324/208/124 329/214/129
f 329/214/129 324/208/124 330/215/130
f 324/208/124 325/209/125 330/215/130
f 330/215/130 325/209/125 331/216/131
f 325/209/125 326/210/126 331/216/131
f 331/216/131 326/210/126 332/217/132
f 326/210/126 327/211/127 332/217/132
f 332/217/132 327/211/127 333/218/133
f 254/212/61 328/213/128 261/219/68
f 261/219/68 328/213/128 334/220/134
f 328/213/128 329/214/129 334/220/134
f 334/220/134 329/214/129 335/221/135
f 329/214/129 330/215/130 335/221/135
f 335/221/135 330/215/130 336/222/136
f 330/215/130 331/216/131 336/222/136
f 336/222/136 331/216/131 337/223/137
f 331/216/131 332/217/132 337/223/137
f 337/223/137 332/217/132 338/224/138
f 332/217/132 333/218/133 338/224/138
f 338/224/138 333/218/133 339/225/139
f 262/177/69 264/178/71 309/179/115
f 309/179/115 264/178/71 340/180/140
f 264/178/71 274/181/81 340/180/140
f 340/180/140 274/181/81 341/182/141
f 274/181/81 280/183/87 341/182/141
f 341/182/141 280/183/87 342/184/142
f 280/183/87 286/185/92 342/184/142
f 342/184/142 286/185/92 343/186/143
f 286/185/92 292/187/98 343/186/143
f 343/186/143 292/187/98 344/188/144
f 292/187/98 298/189/104 344/188/144
f 344/188/144 298/189/104 345/190/145
f 309/179/115 340/180/140 315/191/121
f 315/191/121 340/180/140 346/192/146
f 340/180/140 341/182/141 346/192/146
f 346/192/146 341/182/141 347/193/147
f 341/182/141 342/184/142 347/193/147
f 347/193/147 342/184/142 348/194/148
f 342/184/142 343/186/143 348/194/148
f 348/194/148 343/186/143 349/195/149
f 343/186/143 344/188/144 349/195/149
f 349/195/149 344/188/144 350/196/150
f 344/188/144 345/190/145 350/196/150
f 350/196/150 345/190/145 351/197/151
f 315/191/121 346/192/146 321/198/7
f 321/198/7 346/192/146 352/199/8
f 346/192/146 347/193/147 352/199/8
f 352/199/8 347/193/147 353/200/9
f 347/193/147 348/194/148 353/200/9
f 353/200/9 348/194/148 354/201/4
f 348/194/148 349/195/149 354/201/4
f 354/201/4 349/195/149 355/202/10
f 349/195/149 350/196/150 355/202/10
f 355/202/10 350/196/150 356/203/11
f 350/196/150 351/197/151 356/203/11
f 356/203/11 351/197/151 357/204/12
f 321/198/7 352/199/8 327/205/127
f 327/205/127 352/199/8 358/206/152
f 352/199/8 353/200/9 358/206/152
f 358/206/152 353/200/9 359/207/153
f 353/200/9 354/201/4 359/207/153
f 359/207/153 354/201/4 360/208/154
f 354/201/4 355/202/10 360/208/154
f 360/208/154 355/202/10 361/209/155
f 355/202/10 356/203/11 361/209/155
f 361/209/155 356/203/11 362/210/156
f 356/203/11 357/204/12 362/210/156
f 362/210/156 357/204/12 363/211/157
f 327/205/127 358/206/152 333/212/133
f 333/212/133 358/206/152 364/213/158
f 358/206/152 359/207/153 364/213/158
f 364/213/158 359/207/153 365/214/159
f 359/207/153 360/208/154 365/214/159
f 365/214/159 360/208/154 366/215/160
f 360/208/154 361/209/155 366/215/160
f 366/215/160 361/209/155 367/216/161
f 361/209/155 362/210/156 367/216/161
f 367/216/161 362/210/156 368/217/162
f 362/210/156 363/211/157 368/217/162
f 368/217/162 363/211/157 369/218/163
f 333/212/133 364/213/158 339/219/139
f 339/219/139 364/213/158 370/220/164
f 364/213/158 365/214/159 370/220/164
f 370/220/164 365/214/159 371/221/165
f 365/214/159 366/215/160 371/221/165
f 371/221/165 366/215/160 372/222/166
f 366/215/160 367/216/161 372/222/166
f 372/222/166 367/216/161 373/223/167
f 367/216/161 368/217/162 373/223/167
f 373/223/167 368/217/162 374/224/168
f 368/217/162 369/218/163 374/224/168
f 374/224/168 369/218/163 375/225/169
f 375/177/169 376/178/170 374/179/168
f 374/179/168 376/178/170 377/180/171
f 376/178/170 378/181/172 377/180/171
f 377/180/171 378/181/172 379/182/173
f 378/181/172 380/183/174 379/182/173
f 379/182/173 380/183/174 381/184/175
f 380/183/174 382/185/176 381/184/175
f 381/184/175 382/185/176 383/186/177
f 382/185/176 384/187/178 383/186/177
f 383/186/177 384/187/178 385/188/179
f 384/187/178 255/189/62 385/188/179
f 385/188/179 255/189/62 256/190/63
f 374/179/168 377/180/171 373/191/167
f 373/191/167 377/180/171 386/192/180
f 377/180/171 379/182/173 386/192/180
f 386/192/180 379/182/173 387/193/181
f 379/182/173 381/184/175 387/193/181
f 387/193/181 381/184/175 388/194/182
f 381/184/175 383/186/177 388/194/182
f 388/194/182 383/186/177 389/195/183
f 383/186/177 385/188/179 389/195/183
f 389/195/183 385/188/179 390/196/184
f 385/188/179 256/190/63 390/196/184
f 390/196/184 256/190/63 257/197/64
f 373/191/167 386/192/180 372/198/166
f 372/198/166 386/192/180 391/199/185
f 386/192/180 387/193/181 391/199/185
f 391/199/185 387/193/181 392/200/186
f 387/193/181 388/194/182 392/200/186
f 392/200/186 388/194/182 393/201/5
f 388/194/182 389/195/183 393/201/5
f 393/201/5 389/195/183 394/202/187
f 389/195/183 390/196/184 394/202/187
f 394/202/187 390/196/184 395/203/188
f 390/196/184 257/197/64 395/203/188
f 395/203/188 257/197/64 258/204/65
f 372/198/166 391/199/185 371/205/165
f 371/205/165 391/199/185 396/206/189
f 391/199/185 392/200/186 396/206/189
f 396/206/189 392/200/186 397/207/190
f 392/200/186 393/201/5 397/207/190
f 397/207/190 393/201/5 398/208/191
f 393/201/5 394/202/187 398/208/191
f 398/208/191 394/202/187 399/209/192
f 394/202/187 395/203/188 399/209/192
f 399/209/192 395/203/188 400/210/193
f 395/203/188 258/204/65 400/210/193
f 400/210/193 258/204/65 259/211/66
f 371/205/165 396/206/189 370/212/164
f 370/212/164 396/206/189 401/213/194
f 396/206/189 397/207/190 401/213/194
f 401/213/194 397/207/190 402/214/195
f 397/207/190 398/208/191 402/214/195
f 402/214/195 398/208/191 403/215/196
f 398/208/191 399/209/192 403/215/196
f 403/215/196 399/209/192 404/216/197
f 399/209/192 400/210/193 404/216/197
f 404/216/197 400/210/193 405/217/198
f 400/210/193 259/211/66 405/217/198
f 405/217/198 259/211/66 260/218/67
f 370/212/164 401/213/194 339/219/139
f 339/219/139 401/213/194 338/220/138
f 401/213/194 402/214/195 338/220/138
f 338/220/138 402/214/195 337/221/137
f 402/214/195 403/215/196 337/221/137
f 337/221/137 403/215/196 336/222/136
f 403/215/196 404/216/197 336/222/136
f 336/222/136 404/216/197 335/223/135
f 404/216/197 405/217/198 335/223/135
f 335/223/135 405/217/198 334/224/134
f 405/217/198 260/218/67 334/224/134
f 334/224/134 260/218/67 261/225/68
f 298/177/104 299/178/105 345/179/145
f 345/179/145 299/178/105 406/180/199
f 299/178/105 300/181/106 406/180/199
f 406/180/199 300/181/106 407/182/200
f 300/181/106 301/183/107 407/182/200
f 407/182/200 301/183/107 408/184/201
f 301/183/107 302/185/108 408/184/201
f 408/184/201 302/185/108 409/186/202
f 302/185/108 303/187/109 409/186/202
f 409/186/202 303/187/109 410/188/203
f 303/187/109 213/189/27 410/188/203
f 410/188/203 213/189/27 215/190/29
f 345/179/145 406/180/199 351/191/151
f 351/191/151 406/180/199 411/192/204
f 406/180/199 407/182/200 411/192/204
f 411/192/204 407/182/200 412/193/205
f 407/182/200 408/184/201 412/193/205
f 412/193/205 408/184/201 413/194/206
f 408/184/201 409/186/202 413/194/206
f 413/194/206 409/186/202 414/195/207
f 409/186/202 410/188/203 414/195/207
f 414/195/207 410/188/203 415/196/208
f 410/188/203 215/190/29 415/196/208
f 415/196/208 215/190/29 227/197/41
f 351/191/151 411/192/204 357/198/12
f 357/198/12 411/192/204 416/199/23
f 411/192/204 412/193/205 416/199/23
f 416/199/23 412/193/205 417/200/24
f 412/193/205 413/194/206 417/200/24
f 417/200/24 413/194/206 418/201/6
f 413/194/206 414/195/207 418/201/6
f 418/201/6 414/195/207 419/202/25
f 414/195/207 415/196/208 419/202/25
f 419/202/25 415/196/208 420/203/26
f 415/196/208 227/197/41 420/203/26
f 420/203/26 227/197/41 234/204/18
f 357/198/12 416/199/23 363/205/157
f 363/205/157 416/199/23 421/206/209
f 416/199/23 417/200/24 421/206/209
f 421/206/209 417/200/24 422/207/210
f 417/200/24 418/201/6 422/207/210
f 422/207/210 418/201/6 423/208/211
f 418/201/6 419/202/25 423/208/211
f 423/208/211 419/202/25 424/209/212
f 419/202/25 420/203/26 424/209/212
f 424/209/212 420/203/26 425/210/213
f 420/203/26 234/204/18 425/210/213
f 425/210/213 234/204/18 241/211/48
f 363/205/157 421/206/209 369/212/163
f 369/212/163 421/206/209 426/213/214
f 421/206/209 422/207/210 426/213/214
f 426/213/214 422/207/210 427/214/215
f 422/207/210 423/208/211 427/214/215
f 427/214/215 423/208/211 428/215/216
f 423/208/211 424/209/212 428/215/216
f 428/215/216 424/209/212 429/216/217
f 424/209/212 425/210/213 429/216/217
f 429/216/217 425/210/213 430/217/218
f 425/210/213 241/211/48 430/217/218
f 430/217/218 241/211/48 248/218/55
f 369/212/163 426/213/214 375/219/169
f 375/219/169 426/213/214 376/220/170
f 426/213/214 427/214/215 376/220/170
f 376/220/170 427/214/215 378/221/172
f 427/214/215 428/215/216 378/221/172
f 378/221/172 428/215/216 380/222/174
f 428/215/216 429/216/217 380/222/174
f 380/222/174 429/216/217 382/223/176
f 429/216/217 430/217/218 382/223/176
f 382/223/176 430/217/218 384/224/178
f 430/217/218 248/218/55 384/224/178
f 384/224/178 248/218/55 255/225/62
o HandleL
usemtl handlel
f 431/226/1 432/227/44 433/228/1
f 432/227/44 434/229/44 433/228/1
f 432/227/44 435/230/34 434/229/44
f 435/230/34 436/231/34 434/229/44
f 435/230/34 437/232/33 436/231/34
f 437/232/33 438/233/33 436/231/34
f 437/233/33 439/231/91 438/232/33
f 439/231/91 440/230/91 438/232/33
f 439/231/91 441/229/90 440/230/91
f 441/229/90 442/227/90 440/230/91
f 441/229/90 443/228/2 442/227/90
f 443/228/2 444/226/2 442/227/90
f 443/228/2 445/234/89 444/226/2
f 445/234/89 446/235/89 444/226/2
f 445/234/89 447/236/88 446/235/89
f 447/236/88 448/237/88 446/235/89
f 447/236/88 449/238/87 448/237/88
f 449/238/87 450/239/87 448/237/88
f 451/230/142 450/232/87 452/231/142
f 450/232/87 449/233/87 452/231/142
f 453/227/148 451/230/142 454/229/148
f 451/230/142 452/231/142 454/229/148
f 455/226/4 453/227/148 456/228/4
f 453/227/148 454/229/148 456/228/4
f 457/235/154 455/226/4 458/234/154
f 455/226/4 456/228/4 458/234/154
f 459/237/160 457/235/154 460/236/160
f 457/235/154 458/234/154 460/236/160
f 461/239/166 459/237/160 462/238/166
f 459/237/160 460/236/160 462/238/166
f 462/239/166 463/237/185 461/238/166
f 463/237/185 464/236/185 461/238/166
f 463/237/185 465/235/186 464/236/185
f 465/235/186 466/234/186 464/236/185
f 465/235/186 467/226/5 466/234/186
f 467/226/5 468/228/5 466/234/186
f 467/226/5 469/227/187 468/228/5
f 469/227/187 470/229/187 468/228/5
f 469/227/187 471/230/188 470/229/187
f 471/230/188 472/231/188 470/229/187
f 471/230/188 473/232/65 472/231/188
f 473/232/65 474/233/65 472/231/188
f 473/239/65 475/237/58 474/238/65
f 475/237/58 476/236/58 474/238/65
f 475/237/58 477/235/51 476/236/58
f 477/235/51 478/234/51 476/236/58
f 477/235/51 431/226/1 478/234/51
f 431/226/1 433/228/1 478/234/51
f 434/240/3 436/241/3 433/242/3
f 436/241/3 438/243/3 433/242/3
f 438/243/3 440/244/3 433/242/3
f 440/244/3 442/245/3 433/242/3
f 442/245/3 444/246/3 433/242/3
f 468/247/3 470/248/3 433/242/3
f 470/248/3 472/249/3 433/242/3
f 472/249/3 474/250/3 433/242/3
f 474/250/3 476/251/3 433/242/3
f 476/251/3 478/252/3 433/242/3
f 445/245/6 443/246/6 447/244/6
f 443/246/6 441/253/6 447/244/6
f 441/253/6 439/254/6 447/244/6
f 439/254/6 437/255/6 447/244/6
f 437/255/6 435/256/6 447/244/6
f 462/250/6 460/251/6 447/244/6
f 460/251/6 458/252/6 447/244/6
f 458/252/6 456/242/6 447/244/6
f 456/242/6 454/240/6 447/244/6
f 454/240/6 452/241/6 447/244/6
f 452/241/6 449/243/6 447/244/6
f 479/257/3 461/258/3 464/259/3
f 480/260/3 459/261/3 461/258/3
f 481/262/3 464/259/3 466/263/3
f 482/264/3 466/263/3 468/247/3
f 481/262/3 479/257/3 464/259/3
f 483/265/3 461/258/3 479/257/3
f 482/264/3 481/262/3 466/263/3
f 484/266/3 457/267/3 459/261/3
f 483/265/3 480/260/3 461/258/3
f 484/266/3 459/261/3 480/260/3
f 455/268/3 457/267/3 485/269/3
f 457/267/3 484/266/3 485/269/3
f 486/270/6 447/244/6 487/271/6
f 487/271/6 447/244/6 488/272/6
f 488/272/6 447/244/6 489/273/6
f 490/274/3 482/264/3 468/247/3
f 491/275/3 490/274/3 468/247/3
f 491/275/3 468/247/3 433/242/3
f 492/276/3 491/275/3 433/242/3
f 493/277/3 492/276/3 433/242/3
f 494/278/3 493/277/3 433/242/3
f 494/278/3 433/242/3 495/279/3
f 453/280/3 455/268/3 496/281/3
f 455/268/3 485/269/3 496/281/3
f 451/256/3 453/280/3 497/282/3
f 496/281/3 497/282/3 453/280/3
f 497/282/3 498/283/3 451/256/3
f 450/255/3 451/256/3 498/283/3
f 450/255/3 498/283/3 499/284/3
f 499/284/3 500/285/3 450/255/3
f 448/254/3 450/255/3 500/285/3
f 500/285/3 501/273/3 448/254/3
f 502/272/3 446/253/3 501/273/3
f 446/253/3 448/254/3 501/273/3
f 444/246/3 446/253/3 502/272/3
f 503/284/6 504/285/6 432/280/6
f 431/268/6 505/269/6 506/281/6
f 506/281/6 507/282/6 431/268/6
f 432/280/6 431/268/6 507/282/6
f 432/280/6 507/282/6 508/283/6
f 503/284/6 432/280/6 508/283/6
f 495/279/3 433/242/3 509/286/3
f 433/242/3 510/287/3 509/286/3
f 433/242/3 511/271/3 512/270/3
f 433/242/3 512/270/3 510/287/3
f 444/246/3 502/272/3 511/271/3
f 433/242/3 444/246/3 511/271/3
f 435/256/6 432/280/6 504/285/6
f 489/273/6 447/244/6 435/256/6
f 504/285/6 489/273/6 435/256/6
f 513/277/6 463/249/6 462/250/6
f 514/276/6 463/249/6 513/277/6
f 515/275/6 465/248/6 463/249/6
f 516/264/6 467/247/6 465/248/6
f 515/275/6 517/274/6 465/248/6
f 514/276/6 515/275/6 463/249/6
f 517/274/6 516/264/6 465/248/6
f 518/278/6 513/277/6 462/250/6
f 519/279/6 518/278/6 462/250/6
f 469/263/6 467/247/6 520/262/6
f 471/259/6 469/263/6 521/257/6
f 467/247/6 516/264/6 520/262/6
f 469/263/6 520/262/6 521/257/6
f 522/265/6 471/259/6 521/257/6
f 522/265/6 473/258/6 471/259/6
f 475/261/6 473/258/6 523/260/6
f 522/265/6 523/260/6 473/258/6
f 523/260/6 524/266/6 475/261/6
f 477/267/6 475/261/6 524/266/6
f 477/267/6 524/266/6 505/269/6
f 431/268/6 477/267/6 505/269/6
f 519/279/6 462/250/6 447/244/6
f 519/279/6 447/244/6 525/286/6
f 526/287/6 525/286/6 447/244/6
f 486/270/6 526/287/6 447/244/6
f 517/288/90 479/289/91 481/290/90
f 482/226/2 516/228/2 481/290/90
f 480/291/34 513/289/34 484/288/44
f 518/290/44 485/228/1 484/288/44
f 480/291/34 483/292/33 514/293/33
f 515/291/91 483/293/33 479/289/91
f 482/226/2 490/294/89 520/295/89
f 491/296/88 521/297/88 490/294/89
f 522/298/87 491/296/88 492/299/87
f 492/293/87 493/289/142 523/291/142
f 493/289/142 494/290/148 524/288/148
f 495/226/4 505/228/4 494/290/148
f 519/226/1 496/295/51 485/228/1
f 496/295/51 525/294/51 497/297/58
f 526/296/58 498/298/65 497/297/58
f 486/293/65 499/291/188 498/292/65
f 487/289/188 500/288/187 499/291/188
f 500/288/187 488/290/187 501/228/5
f 503/296/185 512/298/166 511/297/185
f 508/298/166 510/296/160 512/299/166
f 495/226/4 509/294/154 506/295/154
f 507/297/160 509/294/154 510/296/160
f 489/226/5 502/295/186 501/228/5
f 504/294/186 511/297/185 502/295/186
f 510/296/160 508/298/166 507/297/160
f 512/298/166 503/296/185 508/299/166
f 506/295/154 505/228/4 495/226/4
f 507/297/160 506/295/154 509/294/154
f 490/294/89 521/297/88 520/295/89
f 487/289/188 488/290/187 500/288/187
f 504/294/186 502/295/186 489/226/5
f 503/296/185 511/297/185 504/294/186
f 489/226/5 501/228/5 488/290/187
f 517/288/90 481/290/90 516/228/2
f 518/290/44 484/288/44 513/289/34
f 491/296/88 522/298/87 521/297/88
f 523/291/142 522/292/87 492/293/87
f 523/291/142 493/289/142 524/288/148
f 519/226/1 485/228/1 518/290/44
f 494/290/148 505/228/4 524/288/148
f 514/292/33 483/293/33 515/291/91
f 480/291/34 514/293/33 513/289/34
f 496/295/51 519/226/1 525/294/51
f 517/288/90 515/291/91 479/289/91
f 526/296/58 497/297/58 525/294/51
f 498/298/65 526/296/58 486/299/65
f 487/289/188 499/291/188 486/293/65
f 482/226/2 520/295/89 516/228/2
o HandleR
usemtl handler
f 527/300/1 528/301/44 529/302/1
f 528/301/44 530/303/44 529/302/1
f 528/301/44 531/304/34 530/303/44
f 531/304/34 532/305/34 530/303/44
f 531/304/34 533/306/33 532/305/34
f 533/306/33 534/307/33 532/305/34
f 533/307/33 535/305/91 534/306/33
f 535/305/91 536/304/91 534/306/33
f 535/305/91 537/303/90 536/304/91
f 537/303/90 538/301/90 536/304/91
f 537/303/90 539/302/2 538/301/90
f 539/302/2 540/300/2 538/301/90
f 539/302/2 541/308/89 540/300/2
f 541/308/89 542/309/89 540/300/2
f 541/308/89 543/310/88 542/309/89
f 543/310/88 544/311/88 542/309/89
f 543/310/88 545/312/87 544/311/88
f 545/312/87 546/313/87 544/311/88
f 547/304/142 546/306/87 548/305/142
f 546/306/87 545/307/87 548/305/142
f 549/301/148 547/304/142 550/303/148
f 547/304/142 548/305/142 550/303/148
f 551/300/4 549/301/148 552/302/4
f 549/301/148 550/303/148 552/302/4
f 553/309/154 551/300/4 554/308/154
f 551/300/4 552/302/4 554/308/154
f 555/311/160 553/309/154 556/310/160
f 553/309/154 554/308/154 556/310/160
f 557/313/166 555/311/160 558/312/166
f 555/311/160 556/310/160 558/312/166
f 558/313/166 559/311/185 557/312/166
f 559/311/185 560/310/185 557/312/166
f 559/311/185 561/309/186 560/310/185
f 561/309/186 562/308/186 560/310/185
f 561/309/186 563/300/5 562/308/186
f 563/300/5 564/302/5 562/308/186
f 563/300/5 565/301/187 564/302/5
f 565/301/187 566/303/187 564/302/5
f 565/301/187 567/304/188 566/303/187
f 567/304/188 568/305/188 566/303/187
f 567/304/188 569/306/65 568/305/188
f 569/306/65 570/307/65 568/305/188
f 569/313/65 571/311/58 570/312/65
f 571/311/58 572/310/58 570/312/65
f 571/311/58 573/309/51 572/310/58
f 573/309/51 574/308/51 572/310/58
f 573/309/51 527/300/1 574/308/51
f 527/300/1 529/302/1 574/308/51
f 530/314/3 532/315/3 529/316/3
f 532/315/3 534/317/3 529/316/3
f 534/317/3 536/318/3 529/316/3
f 536/318/3 538/319/3 529/316/3
f 538/319/3 540/320/3 529/316/3
f 564/321/3 566/322/3 529/316/3
f 566/322/3 568/323/3 529/316/3
f 568/323/3 570/324/3 529/316/3
f 570/324/3 572/325/3 529/316/3
f 572/325/3 574/326/3 529/316/3
f 541/319/6 539/320/6 543/318/6
f 539/320/6 537/327/6 543/318/6
f 537/327/6 535/328/6 543/318/6
f 535/328/6 533/329/6 543/318/6
f 533/329/6 531/330/6 543/318/6
f 558/324/6 556/325/6 543/318/6
f 556/325/6 554/326/6 543/318/6
f 554/326/6 552/316/6 543/318/6
f 552/316/6 550/314/6 543/318/6
f 550/314/6 548/315/6 543/318/6
f 548/315/6 545/317/6 543/318/6
f 575/331/3 557/332/3 560/333/3
f 576/334/3 555/335/3 557/332/3
f 577/336/3 560/333/3 562/337/3
f 578/338/3 562/337/3 564/321/3
f 577/336/3 575/331/3 560/333/3
f 579/339/3 557/332/3 575/331/3
f 578/338/3 577/336/3 562/337/3
f 580/340/3 553/341/3 555/335/3
f 579/339/3 576/334/3 557/332/3
f 580/340/3 555/335/3 576/334/3
f 551/342/3 553/341/3 581/343/3
f 553/341/3 580/340/3 581/343/3
f 582/344/6 543/318/6 583/345/6
f 583/345/6 543/318/6 584/346/6
f 584/346/6 543/318/6 585/347/6
f 586/348/3 578/338/3 564/321/3
f 587/349/3 586/348/3 564/321/3
f 587/349/3 564/321/3 529/316/3
f 588/350/3 587/349/3 529/316/3
f 589/351/3 588/350/3 529/316/3
f 590/352/3 589/351/3 529/316/3
f 590/352/3 529/316/3 591/353/3
f 549/354/3 551/342/3 592/355/3
f 551/342/3 581/343/3 592/355/3
f 547/330/3 549/354/3 593/356/3
f 592/355/3 593/356/3 549/354/3
f 593/356/3 594/357/3 547/330/3
f 546/329/3 547/330/3 594/357/3
f 546/329/3 594/357/3 595/358/3
f 595/358/3 596/359/3 546/329/3
f 544/328/3 546/329/3 596/359/3
f 596/359/3 597/347/3 544/328/3
f 598/346/3 542/327/3 597/347/3
f 542/327/3 544/328/3 597/347/3
f 540/320/3 542/327/3 598/346/3
f 599/358/6 600/359/6 528/354/6
f 527/342/6 601/343/6 602/355/6
f 602/355/6 603/356/6 527/342/6
f 528/354/6 527/342/6 603/356/6
f 528/354/6 603/356/6 604/357/6
f 599/358/6 528/354/6 604/357/6
f 591/353/3 529/316/3 605/360/3
f 529/316/3 606/361/3 605/360/3
f 529/316/3 607/345/3 608/344/3
f 529/316/3 608/344/3 606/361/3
f 540/320/3 598/346/3 607/345/3
f 529/316/3 540/320/3 607/345/3
f 531/330/6 528/354/6 600/359/6
f 585/347/6 543/318/6 531/330/6
f 600/359/6 585/347/6 531/330/6
f 609/351/6 559/323/6 558/324/6
f 610/350/6 559/323/6 609/351/6
f 611/349/6 561/322/6 559/323/6
f 612/338/6 563/321/6 561/322/6
f 611/349/6 613/348/6 561/322/6
f 610/350/6 611/349/6 559/323/6
f 613/348/6 612/338/6 561/322/6
f 614/352/6 609/351/6 558/324/6
f 615/353/6 614/352/6 558/324/6
f 565/337/6 563/321/6 616/336/6
f 567/333/6 565/337/6 617/331/6
f 563/321/6 612/338/6 616/336/6
f 565/337/6 616/336/6 617/331/6
f 618/339/6 567/333/6 617/331/6
f 618/339/6 569/332/6 567/333/6
f 571/335/6 569/332/6 619/334/6
f 618/339/6 619/334/6 569/332/6
f 619/334/6 620/340/6 571/335/6
f 573/341/6 571/335/6 620/340/6
f 573/341/6 620/340/6 601/343/6
f 527/342/6 573/341/6 601/343/6
f 615/353/6 558/324/6 543/318/6
f 615/353/6 543/318/6 621/360/6
f 622/361/6 621/360/6 543/318/6
f 582/344/6 622/361/6 543/318/6
f 613/362/90 575/363/91 577/364/90
f 578/300/2 612/302/2 577/364/90
f 576/365/34 609/363/34 580/362/44
f 614/364/44 581/302/1 580/362/44
f 576/365/34 579/366/33 610/367/33
f 611/365/91 579/367/33 575/363/91
f 578/300/2 586/368/89 616/369/89
f 587/370/88 617/371/88 586/368/89
f 618/372/87 587/370/88 588/373/87
f 588/367/87 589/363/142 619/365/142
f 589/363/142 590/364/148 620/362/148
f 591/300/4 601/302/4 590/364/148
f 615/300/1 592/369/51 581/302/1
f 592/369/51 621/368/51 593/371/58
f 622/370/58 594/372/65 593/371/58
f 582/367/65 595/365/188 594/366/65
f 583/363/188 596/362/187 595/365/188
f 596/362/187 584/364/187 597/302/5
f 599/370/185 608/372/166 607/371/185
f 604/372/166 606/370/160 608/373/166
f 591/300/4 605/368/154 602/369/154
f 603/371/160 605/368/154 606/370/160
f 585/300/5 598/369/186 597/302/5
f 600/368/186 607/371/185 598/369/186
f 606/370/160 604/372/166 603/371/160
f 608/372/166 599/370/185 604/373/166
f 602/369/154 601/302/4 591/300/4
f 603/371/160 602/369/154 605/368/154
f 586/368/89 617/371/88 616/369/89
f 583/363/188 584/364/187 596/362/187
f 600/368/186 598/369/186 585/300/5
f 599/370/185 607/371/185 600/368/186
f 585/300/5 597/302/5 584/364/187
f 613/362/90 577/364/90 612/302/2
f 614/364/44 580/362/44 609/363/34
f 587/370/88 618/372/87 617/371/88
f 619/365/142 618/366/87 588/367/87
f 619/365/142 589/363/142 620/362/148
f 615/300/1 581/302/1 614/364/44
f 590/364/148 601/302/4 620/362/148
f 610/366/33 579/367/33 611/365/91
f 576/365/34 610/367/33 609/363/34
f 592/369/51 615/300/1 621/368/51
f 613/362/90 611/365/91 575/363/91
f 622/370/58 593/371/58 621/368/51
f 594/372/65 622/370/58 582/373/65
f 583/363/188 595/365/188 582/367/65
f 578/300/2 616/369/89 612/302/2
