# Roblox asset pack: animal_polar_bear (creatures), from the Studio model "Polar Bear". Exported with Export Selection, split by tools/build_creatures.py: one object per rigid body. Units: studs. +Y up, front faces -Z, pivot (bottom centre) at the origin.
mtllib animal_polar_bear.mtl

v 4.61500 2.44000 0.70000
v 4.61500 2.44000 -0.70000
v 4.29200 3.81000 0.70000
v 4.29200 3.81000 -0.70000
v -2.25700 6.97000 2.29000
v -2.25700 7.24000 0.64000
v -2.89800 6.97000 2.29000
v -2.89800 7.24000 0.64000
v -2.89800 6.97000 -2.29000
v -2.89800 7.24000 -0.64000
v -2.25700 7.24000 -0.64000
v -2.25700 6.97000 -2.29000
v 3.48300 1.74000 1.72000
v 3.48300 1.74000 -1.72000
v 3.48300 4.05000 1.72000
v 3.48300 4.05000 -1.72000
v 3.44500 2.27000 2.67000
v 3.33500 3.65000 1.33000
v 3.33500 3.65000 2.67000
v 3.44500 2.27000 1.33000
v 3.44500 2.27000 -1.33000
v 3.33500 3.65000 -2.67000
v 3.33500 3.65000 -1.33000
v 3.44500 2.27000 -2.67000
v 2.85300 4.75000 1.78000
v 2.85300 4.75000 -1.78000
v -1.15200 6.57000 1.42000
v -3.67800 6.57000 -1.42000
v -3.67800 6.57000 1.42000
v -1.15200 6.57000 -1.42000
v -4.40300 4.26000 0.19000
v -4.40300 4.27000 0.54000
v -4.40300 4.35000 0.55000
v -4.40300 4.18000 0.18000
v -4.40300 4.27000 0.00000
v -4.40300 4.35000 0.07000
v -4.40300 4.18000 -0.18000
v -4.40300 4.26000 -0.19000
v -4.40300 4.35000 -0.07000
v -4.40300 4.27000 -0.54000
v -4.40300 4.35000 -0.55000
v 2.99800 0.00000 2.71000
v 2.99800 0.42000 2.05000
v 2.99800 0.42000 2.71000
v 2.99800 0.00000 2.05000
v 2.99800 0.42000 1.94000
v 2.99800 0.00000 1.94000
v 2.99800 0.00000 1.28000
v 2.99800 0.42000 1.28000
v 2.99800 0.00000 -1.28000
v 2.99800 0.42000 -1.94000
v 2.99800 0.42000 -1.28000
v 2.99800 0.00000 -1.94000
v 2.99800 0.00000 -2.05000
v 2.99800 0.42000 -2.05000
v 2.99800 0.00000 -2.71000
v 2.99800 0.42000 -2.71000
v 2.89600 0.42000 2.67000
v 2.89600 0.42000 1.33000
v 2.87800 2.03000 2.67000
v 2.87800 2.03000 1.33000
v 2.89600 0.42000 -1.33000
v 2.87800 2.03000 -2.67000
v 2.87800 2.03000 -1.33000
v 2.89600 0.42000 -2.67000
v -3.55000 6.28000 0.91000
v -3.55000 6.18000 0.19000
v -3.76800 6.28000 0.91000
v -3.76800 6.18000 0.19000
v -3.76800 6.28000 -0.91000
v -3.76800 6.18000 -0.19000
v -3.55000 6.18000 -0.19000
v -3.55000 6.28000 -0.91000
v -4.51200 5.12000 0.00000
v -4.51200 5.20000 0.07000
v -4.51200 5.20000 -0.07000
v -4.61500 5.38000 -0.41000
v -4.53400 4.89000 0.41000
v -4.61500 5.38000 0.41000
v -4.53400 4.89000 -0.41000
v -4.43000 5.19000 1.05000
v -4.26800 3.93000 -1.05000
v -4.26800 3.93000 1.05000
v -4.43000 5.19000 -1.05000
v -3.81400 5.97000 0.28000
v -3.81400 6.07000 0.77000
v -3.66600 5.97000 0.28000
v -3.66600 6.07000 0.77000
v -3.81400 6.07000 -0.77000
v -3.81400 5.97000 -0.28000
v -3.66600 5.97000 -0.28000
v -3.66600 6.07000 -0.77000
v -2.89800 5.77000 0.61000
v -2.89800 5.56000 1.84000
v -2.76000 5.56000 1.84000
v -2.76000 5.77000 0.61000
v -2.89800 5.56000 -1.84000
v -2.89800 5.77000 -0.61000
v -2.76000 5.56000 -1.84000
v -2.76000 5.77000 -0.61000
v -3.81400 5.45000 0.77000
v -3.81400 5.45000 0.28000
v -3.81400 5.45000 -0.77000
v -3.81400 5.45000 -0.28000
v -3.76800 5.37000 0.91000
v -3.76800 5.37000 0.19000
v -3.76800 5.37000 -0.91000
v -3.76800 5.37000 -0.19000
v -3.67800 3.73000 -1.51000
v -3.67800 3.73000 1.51000
v 2.33100 4.23000 2.67000
v 2.33100 4.23000 1.33000
v 2.33100 4.23000 -1.33000
v 2.33100 4.23000 -2.67000
v -4.17900 5.38000 0.41000
v -4.17900 5.38000 -0.41000
v 1.28400 0.42000 2.71000
v 1.28400 0.00000 2.71000
v 1.56500 0.00000 2.71000
v 1.56500 0.42000 2.71000
v 1.28400 0.42000 -2.71000
v 1.56500 0.00000 -2.71000
v 1.28400 0.00000 -2.71000
v 1.56500 0.42000 -2.71000
v 1.56500 0.00000 2.05000
v 1.28400 0.00000 2.05000
v 1.56500 0.00000 1.94000
v 1.56500 0.00000 1.28000
v 1.28400 0.00000 1.94000
v 1.28400 0.00000 1.28000
v 2.10300 2.03000 2.67000
v 1.56200 0.42000 2.67000
v 2.22900 0.42000 2.67000
v 1.32700 2.03000 2.67000
v 1.11900 2.27000 2.67000
v 2.38600 2.27000 2.67000
v 1.32700 3.65000 2.67000
v 1.28400 0.00000 -1.94000
v 1.56500 0.00000 -1.28000
v 1.28400 0.00000 -1.28000
v 1.56500 0.00000 -1.94000
v 1.56500 0.00000 -2.05000
v 1.28400 0.00000 -2.05000
v 1.56200 0.42000 -2.67000
v 2.10300 2.03000 -2.67000
v 2.22900 0.42000 -2.67000
v 1.32700 2.03000 -2.67000
v 1.11900 2.27000 -2.67000
v 2.38600 2.27000 -2.67000
v 1.32700 3.65000 -2.67000
v -2.01800 0.02000 2.64000
v -1.74800 0.02000 2.00000
v -1.74800 0.02000 2.64000
v -2.01800 0.02000 2.00000
v -0.36600 0.02000 2.64000
v -0.36600 0.02000 2.00000
v -1.74800 0.02000 1.90000
v -0.36600 0.02000 1.90000
v -0.36600 0.02000 1.26000
v -1.74800 0.02000 1.26000
v -2.01800 0.02000 1.90000
v -2.01800 0.02000 1.26000
v -2.01800 0.02000 -1.26000
v -1.74800 0.02000 -1.90000
v -1.74800 0.02000 -1.26000
v -2.01800 0.02000 -1.90000
v -0.36600 0.02000 -1.26000
v -0.36600 0.02000 -1.90000
v -0.36600 0.02000 -2.00000
v -1.74800 0.02000 -2.00000
v -0.36600 0.02000 -2.64000
v -1.74800 0.02000 -2.64000
v -2.01800 0.02000 -2.64000
v -2.01800 0.02000 -2.00000
v -2.01800 0.40000 2.64000
v -1.74800 0.40000 2.64000
v -0.36600 0.40000 2.64000
v -2.01800 0.40000 -2.64000
v -1.74800 0.40000 -2.64000
v -0.36600 0.40000 -2.64000
v -1.70900 1.83000 2.59000
v -1.70900 0.39000 2.59000
v -0.42500 0.39000 2.59000
v -0.42500 1.83000 2.59000
v -1.70900 2.05000 2.59000
v -0.13700 2.05000 2.59000
v -0.24300 3.28000 2.59000
v -1.70900 3.28000 2.59000
v -1.70900 1.83000 -2.59000
v -0.42500 0.39000 -2.59000
v -1.70900 0.39000 -2.59000
v -0.42500 1.83000 -2.59000
v -1.70900 2.05000 -2.59000
v -0.13700 2.05000 -2.59000
v -0.24300 3.28000 -2.59000
v -1.70900 3.28000 -2.59000
v -3.56000 5.19000 1.05000
v -3.56000 5.19000 -1.05000
v 0.67400 4.96000 2.00000
v 0.67400 4.96000 -2.00000
v -2.89800 5.59000 0.37000
v -2.89800 5.32000 2.01000
v -2.89800 6.79000 2.04000
v -2.89800 6.99000 0.82000
v -2.89800 5.32000 -2.01000
v -2.89800 5.59000 -0.37000
v -2.89800 6.79000 -2.04000
v -2.89800 6.99000 -0.82000
v -2.13500 4.68000 1.72000
v -2.13500 4.68000 -1.72000
v 0.67400 0.96000 2.00000
v 0.67400 0.96000 -2.00000
v -2.76000 6.79000 2.04000
v -2.76000 6.99000 0.82000
v -2.76000 6.79000 -2.04000
v -2.76000 6.99000 -0.82000
v 1.28400 0.42000 1.94000
v 1.56500 0.42000 1.94000
v 1.28400 0.42000 -1.94000
v 1.56500 0.42000 -1.94000
v -2.01800 0.40000 1.90000
v -1.74800 0.40000 1.90000
v -2.01800 0.40000 -1.90000
v -1.74800 0.40000 -1.90000
v -1.22900 1.15000 1.81000
v -2.13500 2.15000 1.72000
v -2.13500 2.15000 -1.72000
v -1.22900 1.15000 -1.81000
v -4.33800 5.13000 0.00000
v -4.33800 5.21000 0.06000
v -4.33800 5.21000 -0.06000
v -4.22900 4.35000 0.54000
v -4.22900 4.26000 0.18000
v -4.22900 4.35000 -0.54000
v -4.22900 4.26000 -0.18000
v -2.25700 5.32000 2.01000
v -0.83700 3.73000 1.51000
v -0.83700 3.73000 -1.51000
v -2.25700 5.32000 -2.01000
v 3.24900 2.12000 0.70000
v 3.24900 2.12000 -0.70000
v -4.22900 4.36000 0.06000
v -4.22900 4.36000 -0.06000
v -2.01800 0.40000 2.00000
v -2.01800 0.40000 1.26000
v -2.01800 0.40000 -1.26000
v -2.01800 0.40000 -2.00000
v -3.56000 3.93000 1.05000
v -3.56000 3.93000 -1.05000
v -1.74800 0.40000 2.00000
v -1.74800 0.40000 -2.00000
v -1.70900 0.39000 1.31000
v -1.70900 1.83000 1.31000
v -1.70900 2.05000 1.31000
v -1.70900 3.28000 1.31000
v -1.70900 0.39000 -1.31000
v -1.70900 1.83000 -1.31000
v -1.70900 2.05000 -1.31000
v -1.70900 3.28000 -1.31000
v -3.55000 5.37000 0.91000
v -3.55000 5.37000 -0.91000
v -0.13700 2.05000 1.31000
v -0.42500 1.83000 1.31000
v -0.42500 1.83000 -1.31000
v -0.13700 2.05000 -1.31000
v -3.66600 5.45000 0.77000
v -3.66600 5.45000 -0.77000
v 2.92600 3.48000 0.70000
v 2.92600 3.48000 -0.70000
v -0.24300 3.28000 1.31000
v -0.24300 3.28000 -1.31000
v -4.17900 4.89000 0.41000
v -4.17900 4.89000 -0.41000
v -0.36600 0.40000 2.00000
v -0.36600 0.40000 1.90000
v -0.36600 0.40000 1.26000
v -0.36600 0.40000 -1.26000
v -0.36600 0.40000 -1.90000
v -0.36600 0.40000 -2.00000
v -4.22900 4.27000 0.54000
v -4.22900 4.27000 -0.54000
v -0.42500 0.39000 1.31000
v -0.42500 0.39000 -1.31000
v -2.25700 5.59000 0.37000
v -2.25700 5.59000 -0.37000
v 1.32700 3.65000 1.33000
v 1.32700 3.65000 -1.33000
v -3.55000 5.37000 0.19000
v -3.55000 5.37000 -0.19000
v -3.66600 5.45000 0.28000
v -3.66600 5.45000 -0.28000
v 1.11900 2.27000 1.33000
v 1.32700 2.03000 1.33000
v 1.32700 2.03000 -1.33000
v 1.11900 2.27000 -1.33000
v -1.74800 0.40000 1.26000
v -1.74800 0.40000 -1.26000
v 1.56500 0.42000 1.28000
v 1.28400 0.42000 1.28000
v 1.56500 0.42000 -1.28000
v 1.28400 0.42000 -1.28000
v 2.10300 2.03000 1.33000
v 1.56200 0.42000 1.33000
v 2.22900 0.42000 1.33000
v 2.38600 2.27000 1.33000
v 1.56200 0.42000 -1.33000
v 2.10300 2.03000 -1.33000
v 2.22900 0.42000 -1.33000
v 2.38600 2.27000 -1.33000
v -4.22900 4.18000 -0.17000
v -4.22900 4.28000 0.00000
v -4.22900 4.18000 0.17000
v 1.28400 0.42000 2.05000
v 1.28400 0.42000 -2.05000
v 1.56500 0.42000 2.05000
v 1.56500 0.42000 -2.05000
vt 0.08921 0.97968
vt 0.08922 0.89884
vt 0.17006 0.97969
vt 0.17007 0.89884
vt 0.95712 0.55970
vt 0.95712 0.46349
vt 0.99404 0.55970
vt 0.99404 0.46349
vt 1.99404 0.55970
vt 1.99404 0.46349
vt 1.95712 0.46349
vt 1.95712 0.55970
vt 0.50540 0.81189
vt 0.50542 0.61372
vt 0.63830 0.81190
vt 0.63832 0.61373
vt 0.24655 0.90514
vt 0.32335 0.98475
vt 0.24656 0.98475
vt 0.32334 0.90513
vt 1.32334 0.90513
vt 1.24656 0.98475
vt 1.32335 0.98475
vt 1.24655 0.90514
vt 0.69234 0.81554
vt 0.69235 0.61010
vt 0.35314 0.78794
vt 0.49861 0.62434
vt 0.49861 0.78794
vt 0.35314 0.62434
vt 0.27153 0.82343
vt 0.27181 0.80285
vt 0.27648 0.80258
vt 0.26686 0.82370
vt 0.27233 0.83418
vt 0.27696 0.82993
vt 0.26686 0.84465
vt 0.27153 0.84492
vt 0.27696 0.83843
vt 0.27181 0.86550
vt 0.27648 0.86577
vt 0.17550 0.98770
vt 0.19984 0.94960
vt 0.19984 0.98770
vt 0.17550 0.94960
vt 0.19984 0.94323
vt 0.17550 0.94323
vt 0.17550 0.90514
vt 0.19984 0.90514
vt 1.17550 0.90514
vt 1.19984 0.94323
vt 1.19984 0.90514
vt 1.17550 0.94323
vt 1.17550 0.94960
vt 1.19984 0.94960
vt 1.17550 0.98770
vt 1.19984 0.98770
vt 0.86576 0.86074
vt 0.94255 0.86074
vt 0.86576 0.95388
vt 0.94256 0.95388
vt 1.94255 0.86074
vt 1.86576 0.95388
vt 1.94256 0.95388
vt 1.86576 0.86074
vt 0.40389 0.61258
vt 0.40390 0.57072
vt 0.41648 0.61258
vt 0.41648 0.57072
vt 1.41648 0.61258
vt 1.41648 0.57072
vt 1.40390 0.57072
vt 1.40389 0.61258
vt 0.32172 0.83418
vt 0.32636 0.82993
vt 0.32636 0.83843
vt 0.64087 0.27376
vt 0.61199 0.22631
vt 0.64087 0.22632
vt 0.61199 0.27375
vt 0.77158 0.75631
vt 0.69827 0.87732
vt 0.69828 0.75630
vt 0.77156 0.87733
vt 0.64587 0.57322
vt 0.64587 0.60181
vt 0.63737 0.57322
vt 0.63737 0.60181
vt 1.64587 0.60181
vt 1.64587 0.57322
vt 1.63737 0.57322
vt 1.63737 0.60181
vt 0.95496 0.76354
vt 0.95496 0.83508
vt 0.94697 0.83508
vt 0.94697 0.76354
vt 1.95496 0.83508
vt 1.95496 0.76354
vt 1.94697 0.83508
vt 1.94697 0.76354
vt 0.77948 0.19294
vt 0.80751 0.16304
vt 0.80751 0.19855
vt 0.77948 0.16304
vt 1.77948 0.19294
vt 1.80751 0.16304
vt 1.77948 0.16304
vt 1.80751 0.19855
vt 0.92247 0.08759
vt 0.88099 0.13453
vt 0.88099 0.08759
vt 0.92247 0.14014
vt 1.88099 0.13453
vt 1.92247 0.08759
vt 1.88099 0.08759
vt 1.92247 0.14014
vt 0.81619 0.41783
vt 0.65259 0.58685
vt 0.65259 0.41241
vt 0.81619 0.58143
vt 0.94258 0.22011
vt 0.94260 0.28675
vt 0.86580 0.28678
vt 0.86578 0.22014
vt 1.86578 0.22014
vt 1.86581 0.28678
vt 1.94257 0.22011
vt 1.94260 0.28675
vt 0.01308 0.86357
vt 0.01308 0.81613
vt 0.03822 0.86357
vt 0.03822 0.81613
vt 0.00293 0.27933
vt 0.02728 0.27933
vt 0.02728 0.29551
vt 0.00293 0.29551
vt 0.00293 0.37808
vt 0.02728 0.37808
vt 1.00293 0.27933
vt 1.02728 0.29551
vt 1.02728 0.27933
vt 1.00293 0.29551
vt 1.00293 0.37808
vt 1.02728 0.37808
vt 0.33284 0.80258
vt 0.37094 0.81876
vt 0.33284 0.81876
vt 0.37094 0.80258
vt 0.33284 0.90133
vt 0.37094 0.90133
vt 0.37731 0.90133
vt 0.37730 0.81876
vt 0.41540 0.90133
vt 0.41540 0.81876
vt 0.37730 0.80258
vt 0.41540 0.80258
vt 0.75525 0.31716
vt 0.78637 0.41029
vt 0.74797 0.41029
vt 0.79991 0.31716
vt 0.81191 0.30340
vt 0.71058 0.31716
vt 0.70958 0.41029
vt 0.73894 0.30340
vt 0.79991 0.22403
vt 0.67797 0.30340
vt 0.74210 0.19088
vt 0.68430 0.22403
vt 1.37731 0.80258
vt 1.41540 0.81876
vt 1.41540 0.80258
vt 1.37731 0.81876
vt 1.37731 0.90133
vt 1.41540 0.90133
vt 1.37094 0.90133
vt 1.37094 0.81876
vt 1.33284 0.90133
vt 1.33284 0.81876
vt 1.33284 0.80258
vt 1.37094 0.80258
vt 1.78637 0.41029
vt 1.75525 0.31716
vt 1.74797 0.41029
vt 1.79991 0.31716
vt 1.81191 0.30340
vt 1.71058 0.31716
vt 1.70958 0.41029
vt 1.73894 0.30340
vt 1.79991 0.22403
vt 1.67797 0.30340
vt 1.74210 0.19088
vt 1.68430 0.22403
vt 0.59169 0.81838
vt 0.62839 0.83397
vt 0.59169 0.83397
vt 0.62839 0.81838
vt 0.59169 0.91351
vt 0.62839 0.91351
vt 0.63453 0.83397
vt 0.63453 0.91351
vt 0.67123 0.91351
vt 0.67123 0.83397
vt 0.63453 0.81838
vt 0.67123 0.81838
vt 1.67123 0.81838
vt 1.63453 0.83397
vt 1.67123 0.83397
vt 1.63453 0.81838
vt 1.67123 0.91351
vt 1.63453 0.91351
vt 1.62839 0.91351
vt 1.62839 0.83397
vt 1.59169 0.91351
vt 1.59169 0.83397
vt 1.59169 0.81838
vt 1.62839 0.81838
vt 0.94697 0.86248
vt 0.96872 0.86248
vt 0.96872 0.87806
vt 0.94697 0.87806
vt 0.94697 0.95761
vt 0.96872 0.95761
vt 1.94697 0.86248
vt 1.96872 0.87806
vt 1.96872 0.86248
vt 1.94697 0.87806
vt 1.94697 0.95761
vt 1.96872 0.95761
vt 0.89540 0.39845
vt 0.89540 0.48166
vt 0.82142 0.48166
vt 0.82142 0.39845
vt 0.89540 0.38615
vt 0.80486 0.38615
vt 0.81095 0.31525
vt 0.89540 0.31525
vt 1.89540 0.39845
vt 1.82142 0.48166
vt 1.89540 0.48166
vt 1.82142 0.39845
vt 1.89540 0.38615
vt 1.80486 0.38615
vt 1.81095 0.31525
vt 1.89540 0.31525
vt 0.94697 0.20861
vt 0.94697 0.08760
vt 0.99707 0.20861
vt 0.99707 0.08760
vt 0.40610 0.49442
vt 0.39350 0.62054
vt 0.18806 0.62050
vt 0.17550 0.49438
vt 0.56632 0.30639
vt 0.56631 0.21017
vt 0.57865 0.22251
vt 0.66252 0.21016
vt 0.57865 0.29405
vt 0.65019 0.22250
vt 0.65019 0.29404
vt 0.66253 0.30638
vt 1.56631 0.21017
vt 1.56632 0.30639
vt 1.57865 0.22251
vt 1.66252 0.21016
vt 1.57865 0.29405
vt 1.65019 0.22250
vt 1.65019 0.29404
vt 1.66253 0.30638
vt 0.38991 0.33186
vt 0.19174 0.33183
vt 0.25406 0.29160
vt 0.47209 0.16549
vt 0.29413 0.32804
vt 0.42702 0.32804
vt 0.24148 0.16548
vt 0.00293 0.16548
vt 0.18087 0.32805
vt 0.04797 0.32804
vt 0.22094 0.29162
vt 0.23354 0.16550
vt 0.40438 0.97667
vt 0.33284 0.90514
vt 0.40438 0.90514
vt 0.33284 0.97668
vt 1.40438 0.97667
vt 1.33284 0.90514
vt 1.33284 0.97668
vt 1.40438 0.90514
vt 0.64465 0.44203
vt 0.43025 0.60990
vt 0.41404 0.44200
vt 0.62841 0.60993
vt 0.16523 0.33186
vt 0.16521 0.40865
vt 0.12983 0.33185
vt 0.12982 0.40864
vt 1.16521 0.40865
vt 1.12983 0.33185
vt 1.12982 0.40864
vt 1.16523 0.33186
vt 0.05971 0.86735
vt 0.05971 0.89169
vt 0.04353 0.89169
vt 0.04353 0.86735
vt 1.05971 0.86735
vt 1.04353 0.89169
vt 1.05971 0.89169
vt 1.04353 0.86735
vt 0.45501 0.30530
vt 0.45501 0.32705
vt 0.43942 0.32705
vt 0.43942 0.30530
vt 1.45501 0.30530
vt 1.43942 0.32705
vt 1.45501 0.32705
vt 1.43942 0.30530
vt 0.46110 0.05534
vt 0.40347 0.00294
vt 0.25770 0.00293
vt 0.07157 0.00293
vt 0.01393 0.05533
vt 0.21733 0.00294
vt 0.03967 0.01293
vt 0.03967 0.00293
vt 0.04596 0.00313
vt 0.04565 0.01313
vt 0.03338 0.00313
vt 0.03369 0.01313
vt 0.00295 0.25406
vt 0.01310 0.23306
vt 0.01295 0.25449
vt 0.00310 0.23263
vt 0.45974 0.28990
vt 0.44958 0.26890
vt 0.45958 0.26847
vt 0.44974 0.29033
vt 0.63367 0.33188
vt 0.42505 0.33185
vt 0.85700 0.48546
vt 0.85700 0.58167
vt 0.82008 0.58167
vt 0.82008 0.48546
vt 0.86187 0.75248
vt 0.71638 0.58881
vt 0.86185 0.58879
vt 0.69827 0.75250
vt 0.87213 0.00295
vt 0.87211 0.14843
vt 0.70844 0.00293
vt 0.70842 0.16653
vt 1.85700 0.48546
vt 1.82008 0.58167
vt 1.85700 0.58167
vt 1.82008 0.48546
vt 0.70354 0.00820
vt 0.55774 0.20634
vt 0.55778 0.00817
vt 0.70351 0.20636
vt 0.96185 0.00294
vt 0.88099 0.08378
vt 0.88100 0.00293
vt 0.96184 0.08379
vt 0.48003 0.21156
vt 0.48006 0.00293
vt 0.01293 0.22459
vt 0.00293 0.22416
vt 0.45957 0.29837
vt 0.44957 0.29880
vt 0.22770 0.90514
vt 0.20595 0.94184
vt 0.20595 0.90514
vt 0.22770 0.94184
vt 0.52716 0.91464
vt 0.50540 0.95134
vt 0.50540 0.91464
vt 0.52716 0.95134
vt 1.52716 0.95134
vt 1.52715 0.91464
vt 1.50540 0.95134
vt 1.50540 0.91464
vt 1.22770 0.90514
vt 1.20595 0.90514
vt 1.20595 0.94184
vt 1.22770 0.94184
vt 0.68828 0.39062
vt 0.64752 0.31793
vt 0.69762 0.31793
vt 0.64752 0.39062
vt 0.98773 0.21242
vt 0.94697 0.28511
vt 0.94697 0.21242
vt 0.99707 0.28511
vt 0.67396 0.21017
vt 0.67396 0.23192
vt 0.66782 0.23192
vt 0.66782 0.21017
vt 1.66782 0.23192
vt 1.67396 0.21017
vt 1.66782 0.21017
vt 1.67396 0.23192
vt 0.85853 0.83950
vt 0.78456 0.75629
vt 0.85853 0.75629
vt 0.78456 0.83950
vt 0.85853 0.85180
vt 0.78456 0.85180
vt 0.85853 0.92270
vt 0.78456 0.92270
vt 1.85853 0.83950
vt 1.78456 0.75629
vt 1.78456 0.83950
vt 1.85853 0.75629
vt 1.85853 0.85180
vt 1.78456 0.85180
vt 1.85853 0.92270
vt 1.78456 0.92270
vt 0.60427 0.22632
vt 0.60427 0.27886
vt 0.59169 0.27886
vt 0.59169 0.22632
vt 1.60427 0.22632
vt 1.59169 0.27886
vt 1.60427 0.27886
vt 1.59169 0.22632
vt 0.86578 0.76514
vt 0.93976 0.78576
vt 0.86578 0.78577
vt 0.93975 0.76513
vt 1.93975 0.76513
vt 1.86578 0.78577
vt 1.93976 0.78576
vt 1.86578 0.76514
vt 0.41240 0.33185
vt 0.41240 0.36736
vt 0.40389 0.36736
vt 0.40389 0.33185
vt 1.41240 0.33185
vt 1.40389 0.36736
vt 1.41240 0.36736
vt 1.40389 0.33185
vt 0.98214 0.37142
vt 0.90129 0.37142
vt 0.90130 0.29057
vt 0.98214 0.29058
vt 0.08384 0.81226
vt 0.00293 0.73148
vt 0.08378 0.73141
vt 0.00300 0.81232
vt 0.97527 0.45968
vt 0.90129 0.37523
vt 0.97527 0.37523
vt 0.90129 0.45968
vt 1.90129 0.37523
vt 1.90129 0.45968
vt 1.97527 0.37523
vt 1.97527 0.45968
vt 0.86579 0.85694
vt 0.93977 0.85692
vt 1.86579 0.85694
vt 1.93977 0.85692
vt 0.02339 0.03143
vt 0.00293 0.00293
vt 0.02807 0.00293
vt 0.00293 0.03143
vt 0.46964 0.03143
vt 0.44450 0.03143
vt 0.46495 0.00293
vt 0.44450 0.00293
vt 0.96727 0.04577
vt 0.98902 0.08248
vt 0.96727 0.08248
vt 0.98902 0.04577
vt 0.96727 0.03963
vt 0.98902 0.03963
vt 0.98902 0.00293
vt 0.96727 0.00293
vt 1.96727 0.03963
vt 1.98902 0.00293
vt 1.96727 0.00293
vt 1.98902 0.03963
vt 1.98902 0.04577
vt 1.96727 0.04577
vt 1.98902 0.08248
vt 1.96727 0.08248
vt 0.43902 0.01294
vt 0.43435 0.00312
vt 0.43902 0.00293
vt 0.43435 0.01313
vt 0.42887 0.00312
vt 0.42420 0.01294
vt 0.42420 0.00293
vt 0.42888 0.01313
vt 0.86576 0.68193
vt 0.93974 0.68192
vt 1.93974 0.68192
vt 1.86576 0.68193
vt 0.99404 0.66352
vt 0.99404 0.75974
vt 0.95712 0.75974
vt 0.95712 0.66352
vt 1.99404 0.75974
vt 1.99404 0.66352
vt 1.95712 0.75974
vt 1.95712 0.66352
vt 0.99556 0.36426
vt 0.99556 0.43580
vt 0.98758 0.43580
vt 0.98758 0.36426
vt 1.99556 0.43580
vt 1.99556 0.36426
vt 1.98757 0.43580
vt 1.98758 0.36426
vt 0.00295 0.72766
vt 0.00293 0.55322
vt 0.16754 0.72223
vt 0.16753 0.55863
vt 0.75882 0.96198
vt 0.67797 0.96197
vt 0.67798 0.88112
vt 0.75883 0.88113
vt 0.72365 0.16921
vt 0.77305 0.16922
vt 0.72450 0.17918
vt 0.77390 0.17919
vt 0.94172 0.08844
vt 0.93175 0.13699
vt 0.93174 0.08759
vt 0.94172 0.13784
vt 0.94255 0.15347
vt 0.86576 0.15350
vt 1.86576 0.15350
vt 1.94255 0.15347
vt 0.24391 0.27144
vt 0.23133 0.31839
vt 0.23133 0.27144
vt 0.24391 0.31839
vt 1.23133 0.27144
vt 1.23133 0.31839
vt 1.24391 0.27144
vt 1.24391 0.31839
vt 0.17892 0.33185
vt 0.17892 0.36176
vt 0.17042 0.36176
vt 0.17042 0.33185
vt 1.17892 0.36176
vt 1.17892 0.33185
vt 1.17042 0.36176
vt 1.17042 0.33185
vt 0.33909 0.62434
vt 0.17550 0.79878
vt 0.17550 0.62434
vt 0.33909 0.79878
vt 0.86585 0.59786
vt 0.94263 0.57954
vt 0.94264 0.59780
vt 0.86584 0.57960
vt 1.94264 0.59780
vt 1.86584 0.57960
vt 1.86585 0.59786
vt 1.94263 0.57954
vt 0.97235 0.76354
vt 0.99410 0.77913
vt 0.97235 0.77913
vt 0.99410 0.76354
vt 0.97235 0.85867
vt 0.99410 0.85867
vt 1.99410 0.77913
vt 1.97235 0.76354
vt 1.97235 0.77913
vt 1.99410 0.76354
vt 1.97235 0.85867
vt 1.99410 0.85867
vt 0.85577 0.28012
vt 0.81501 0.15911
vt 0.85577 0.15911
vt 0.81501 0.28012
vt 0.14504 0.41245
vt 0.16939 0.42863
vt 0.14504 0.42863
vt 0.16939 0.41245
vt 0.14504 0.51120
vt 0.16939 0.51120
vt 1.16939 0.42863
vt 1.14504 0.41245
vt 1.14504 0.42863
vt 1.16939 0.41245
vt 1.14504 0.51120
vt 1.16939 0.51120
vt 0.16960 0.81182
vt 0.09563 0.81182
vt 0.16960 0.72862
vt 0.09563 0.72862
vt 0.16960 0.82412
vt 0.07906 0.82412
vt 0.08516 0.89503
vt 0.16960 0.89503
vt 1.16960 0.81182
vt 1.16960 0.72862
vt 1.09563 0.81182
vt 1.09563 0.72862
vt 1.16960 0.82412
vt 1.07906 0.82412
vt 1.08516 0.89503
vt 1.16960 0.89503
vt 0.13687 0.43874
vt 0.08021 0.42498
vt 0.12487 0.42498
vt 0.11133 0.33185
vt 0.07293 0.33185
vt 0.03554 0.42498
vt 0.03454 0.33185
vt 0.06390 0.43874
vt 0.12487 0.51811
vt 0.00293 0.43874
vt 0.06706 0.55126
vt 0.00926 0.51811
vt 0.98758 0.36046
vt 0.99556 0.28892
vt 0.99556 0.36046
vt 0.98758 0.28892
vt 1.12487 0.42498
vt 1.11133 0.33185
vt 1.08021 0.42498
vt 1.07293 0.33185
vt 1.13687 0.43874
vt 1.03554 0.42498
vt 1.03454 0.33185
vt 1.06390 0.43874
vt 1.12487 0.51811
vt 1.00293 0.43874
vt 1.06706 0.55126
vt 1.00926 0.51811
vt 1.99556 0.36046
vt 1.99556 0.28892
vt 1.98757 0.36046
vt 1.98758 0.28892
vt 0.24156 0.04799
vt 0.23155 0.04757
vt 0.24132 0.03617
vt 0.23133 0.03617
vt 0.24156 0.02436
vt 0.23155 0.02478
vt 0.46481 0.21536
vt 0.56101 0.31158
vt 0.46480 0.31157
vt 0.56102 0.21537
vt 1.46481 0.21536
vt 1.56101 0.31158
vt 1.56102 0.21537
vt 1.46480 0.31157
vt 0.24142 0.00293
vt 0.23142 0.00335
vt 0.24142 0.06942
vt 0.23142 0.06900
vt 0.94270 0.67806
vt 0.86591 0.67812
vt 1.86591 0.67812
vt 1.94271 0.67806
vt 0.86576 0.48549
vt 0.94255 0.48543
vt 1.86576 0.48549
vt 1.94255 0.48543
vt 0.00293 0.38188
vt 0.02728 0.41998
vt 0.00293 0.41998
vt 0.02728 0.38188
vt 0.15924 0.55310
vt 0.13489 0.55310
vt 0.15924 0.51501
vt 0.13489 0.51501
vt 1.00293 0.38188
vt 1.02728 0.41998
vt 1.02728 0.38188
vt 1.00293 0.41998
vt 1.15924 0.55310
vt 1.15924 0.51501
vt 1.13489 0.55310
vt 1.13489 0.51501
vt 0.29767 0.80258
vt 0.28208 0.82433
vt 0.28208 0.80258
vt 0.29767 0.82433
vt 1.28208 0.82433
vt 1.29767 0.80258
vt 1.28208 0.80258
vt 1.29767 0.82433
vt 0.83626 0.28393
vt 0.82008 0.30827
vt 0.82008 0.28393
vt 0.83626 0.30827
vt 1.82008 0.30827
vt 1.83626 0.28393
vt 1.82008 0.28393
vt 1.83626 0.30827
vt 0.30254 0.88967
vt 0.28208 0.84223
vt 0.30254 0.84223
vt 0.28208 0.88967
vt 0.21997 0.80258
vt 0.25806 0.80258
vt 0.25806 0.81876
vt 0.21997 0.81876
vt 0.25806 0.90133
vt 0.21997 0.90133
vt 0.21360 0.90133
vt 0.21360 0.81876
vt 0.17550 0.90133
vt 0.17550 0.81876
vt 0.17550 0.80258
vt 0.21360 0.80258
vt 1.17550 0.80258
vt 1.21360 0.81876
vt 1.21360 0.80258
vt 1.17550 0.81876
vt 1.21359 0.90133
vt 1.17550 0.90133
vt 1.21997 0.81876
vt 1.21997 0.90133
vt 1.25806 0.90133
vt 1.25806 0.81876
vt 1.21997 0.80258
vt 1.25806 0.80258
vt 0.71479 0.17033
vt 0.71479 0.19468
vt 0.70842 0.19468
vt 0.70842 0.17033
vt 1.70842 0.19468
vt 1.71479 0.17033
vt 1.70842 0.17033
vt 1.71479 0.19468
vt 0.54824 0.81570
vt 0.58495 0.81570
vt 0.58495 0.83129
vt 0.54824 0.83129
vt 0.58495 0.91083
vt 0.54824 0.91083
vt 0.54211 0.91083
vt 0.54211 0.83129
vt 0.50540 0.91083
vt 0.50540 0.83129
vt 0.50540 0.81570
vt 0.54211 0.81570
vt 1.54211 0.83129
vt 1.50540 0.81570
vt 1.50540 0.83129
vt 1.54211 0.81570
vt 1.50540 0.91083
vt 1.54211 0.91083
vt 1.54824 0.83129
vt 1.54824 0.91083
vt 1.58495 0.83129
vt 1.54824 0.81570
vt 1.58495 0.81570
vt 1.58495 0.91083
vt 0.69055 0.86082
vt 0.67797 0.81934
vt 0.69055 0.81934
vt 0.67797 0.86082
vt 1.69055 0.86082
vt 1.67797 0.81934
vt 1.67797 0.86082
vt 1.69055 0.81934
vt 0.32104 0.87027
vt 0.31254 0.84223
vt 0.32104 0.84223
vt 0.31254 0.87027
vt 1.32104 0.87027
vt 1.32104 0.84223
vt 1.31253 0.84223
vt 1.31253 0.87027
vt 0.42420 0.91276
vt 0.42420 0.79175
vt 0.49689 0.91276
vt 0.49689 0.79175
vt 0.98389 0.65972
vt 0.94697 0.56350
vt 0.98389 0.56350
vt 0.94697 0.65972
vt 1.98389 0.65972
vt 1.98389 0.56350
vt 1.94697 0.56350
vt 1.94697 0.65972
vt 0.04353 0.86354
vt 0.04353 0.81610
vt 0.07203 0.86354
vt 0.07203 0.81610
vt 0.08378 0.97968
vt 0.00294 0.89883
vt 0.08379 0.89884
vt 0.00293 0.97968
vt 0.98541 0.86248
vt 0.98541 0.93402
vt 0.97742 0.93402
vt 0.97742 0.86248
vt 1.98541 0.93402
vt 1.98541 0.86248
vt 1.97742 0.93402
vt 1.97742 0.86248
vn 0.9764 0.2283 0.0000
vn 0.0000 0.9843 0.1654
vn 0.0000 0.9843 -0.1654
vn 1.0000 0.0000 0.0000
vn 1.0000 0.0787 0.0000
vn 0.7402 0.6693 0.0000
vn 0.0000 1.0000 0.0000
vn -1.0000 0.0000 0.0000
vn 1.0000 0.0079 0.0000
vn 0.0000 0.9921 -0.1339
vn 0.0000 0.9921 0.1339
vn -0.9843 -0.1260 0.1417
vn -0.9843 -0.1260 -0.1417
vn -0.9843 -0.1654 0.0000
vn -0.9921 -0.1260 0.0000
vn 0.0000 0.9843 -0.1968
vn 0.0000 0.9843 0.1968
vn 0.4961 0.8661 0.0000
vn 0.0000 0.0000 1.0000
vn 0.0000 0.0000 -1.0000
vn 0.0000 -1.0000 0.0000
vn 0.1024 0.9921 0.0000
vn -0.1024 0.9921 0.0000
vn 0.1024 0.0000 0.9921
vn 0.1024 0.0000 -0.9921
vn 0.2677 -0.9606 0.0000
vn 0.3858 -0.9213 0.0000
vn -0.1024 0.0000 0.9921
vn -0.1024 0.0000 -0.9921
vn -0.0472 0.6457 -0.7638
vn -0.0472 0.6457 0.7638
vn -0.0551 0.9685 -0.2362
vn -0.0551 0.9685 0.2362
vn -0.1024 -0.9921 0.0000
vn 0.0000 -0.1654 0.9843
vn 0.0000 0.0315 1.0000
vn 0.0000 0.0315 -1.0000
vn 0.0000 -0.1654 -0.9843
vn 0.2283 -0.9764 0.0000
vn -0.7402 -0.6693 0.0000
vn 0.0000 0.7717 0.6378
vn 0.0000 0.7717 -0.6378
vn 0.5984 -0.8032 0.0000
vn 1.0000 0.0866 0.0000
vn 0.0472 -0.0472 1.0000
vn 0.0472 -0.0472 -1.0000
vn 0.0000 0.1654 -0.9843
vn 0.0000 0.1654 0.9843
vn 0.9921 0.1102 0.0000
vn -0.2283 0.9764 0.0000
vn 0.0472 0.0079 1.0000
vn 0.0472 0.0079 -1.0000
vn -0.4961 0.8661 0.0000
vn -0.7559 -0.6535 0.0000
vn 0.0236 -0.8819 0.4646
vn 0.0236 -0.8819 -0.4646
vn 0.0551 -0.9685 0.2362
vn 0.0551 -0.9685 -0.2362
vn -0.9921 0.1496 0.0000
vn -0.9921 -0.1417 0.0000
vn 0.0000 -0.9843 -0.1654
vn 0.0000 -0.9843 0.1654
vn -0.9764 -0.2283 0.0000

o animal_polar_bear
usemtl tex_animal_polar_bear_i024p001x
f 1/1/1 2/2/1 3/3/1
f 2/2/1 4/4/1 3/3/1
f 5/5/2 6/6/2 7/7/2
f 8/8/2 7/7/2 6/6/2
f 9/9/3 10/10/3 11/11/3
f 9/9/3 11/11/3 12/12/3
f 13/13/4 14/14/4 15/15/4
f 14/14/4 16/16/4 15/15/4
f 17/17/5 18/18/5 19/19/5
f 18/18/5 17/17/5 20/20/5
f 21/21/5 22/22/5 23/23/5
f 24/24/5 22/22/5 21/21/5
f 16/16/6 25/25/6 15/15/6
f 25/25/6 16/16/6 26/26/6
f 27/27/7 28/28/7 29/29/7
f 28/28/7 27/27/7 30/30/7
f 31/31/8 32/32/8 33/33/8
f 32/32/8 31/31/8 34/34/8
f 31/31/8 35/35/8 34/34/8
f 35/35/8 31/31/8 36/36/8
f 37/37/8 35/35/8 38/38/8
f 35/35/8 39/39/8 38/38/8
f 38/38/8 40/40/8 37/37/8
f 40/40/8 38/38/8 41/41/8
f 42/42/4 43/43/4 44/44/4
f 42/42/4 45/45/4 43/43/4
f 45/45/4 46/46/4 43/43/4
f 46/46/4 45/45/4 47/47/4
f 48/48/4 46/46/4 47/47/4
f 46/46/4 48/48/4 49/49/4
f 50/50/4 51/51/4 52/52/4
f 51/51/4 50/50/4 53/53/4
f 54/54/4 51/51/4 53/53/4
f 51/51/4 54/54/4 55/55/4
f 56/56/4 55/55/4 54/54/4
f 55/55/4 56/56/4 57/57/4
f 58/58/9 59/59/9 60/60/9
f 59/59/9 61/61/9 60/60/9
f 62/62/9 63/63/9 64/64/9
f 65/65/9 63/63/9 62/62/9
f 66/66/10 67/67/10 68/68/10
f 69/69/10 68/68/10 67/67/10
f 70/70/11 71/71/11 72/72/11
f 70/70/11 72/72/11 73/73/11
f 74/74/12 35/35/12 36/36/12
f 36/36/12 75/75/12 74/74/12
f 35/35/13 74/74/13 39/39/13
f 76/76/13 39/39/13 74/74/13
f 77/77/14 78/78/14 79/79/14
f 78/78/14 77/77/14 80/80/14
f 81/81/15 82/82/15 83/83/15
f 82/82/15 81/81/15 84/84/15
f 85/85/16 86/86/16 87/87/16
f 88/88/16 87/87/16 86/86/16
f 89/89/17 90/90/17 91/91/17
f 89/89/17 91/91/17 92/92/17
f 93/93/2 94/94/2 95/95/2
f 93/93/2 95/95/2 96/96/2
f 97/97/3 98/98/3 99/99/3
f 100/100/3 99/99/3 98/98/3
f 85/101/8 101/102/8 86/103/8
f 101/102/8 85/101/8 102/104/8
f 90/105/8 103/106/8 104/107/8
f 90/105/8 89/108/8 103/106/8
f 105/109/8 69/110/8 106/111/8
f 69/110/8 105/109/8 68/112/8
f 71/113/8 107/114/8 108/115/8
f 71/113/8 70/116/8 107/114/8
f 29/117/8 109/118/8 110/119/8
f 109/118/8 29/117/8 28/120/8
f 111/121/18 19/122/18 18/123/18
f 112/124/18 111/121/18 18/123/18
f 113/125/18 23/126/18 114/127/18
f 114/127/18 23/126/18 22/128/18
f 115/129/7 116/130/7 79/131/7
f 77/132/7 79/131/7 116/130/7
f 117/133/19 118/134/19 119/135/19
f 117/133/19 119/135/19 120/136/19
f 119/135/19 44/137/19 120/136/19
f 44/137/19 119/135/19 42/138/19
f 121/139/20 122/140/20 123/141/20
f 122/140/20 121/139/20 124/142/20
f 124/142/20 57/143/20 122/140/20
f 122/140/20 57/143/20 56/144/20
f 118/145/21 125/146/21 119/147/21
f 118/145/21 126/148/21 125/146/21
f 125/146/21 42/149/21 119/147/21
f 42/149/21 125/146/21 45/150/21
f 125/146/21 47/151/21 45/150/21
f 47/151/21 125/146/21 127/152/21
f 127/152/21 48/153/21 47/151/21
f 48/153/21 127/152/21 128/154/21
f 129/155/21 128/154/21 127/152/21
f 129/155/21 130/156/21 128/154/21
f 131/157/19 132/158/19 133/159/19
f 132/158/19 131/157/19 134/160/19
f 131/157/19 135/161/19 134/160/19
f 133/159/19 60/162/19 131/157/19
f 60/162/19 133/159/19 58/163/19
f 136/164/19 135/161/19 131/157/19
f 131/157/19 60/162/19 136/164/19
f 137/165/19 135/161/19 136/164/19
f 17/166/19 136/164/19 60/162/19
f 136/164/19 111/167/19 137/165/19
f 19/168/19 136/164/19 17/166/19
f 136/164/19 19/168/19 111/167/19
f 138/169/21 139/170/21 140/171/21
f 139/170/21 138/169/21 141/172/21
f 141/172/21 53/173/21 139/170/21
f 139/170/21 53/173/21 50/174/21
f 141/172/21 54/175/21 53/173/21
f 54/175/21 141/172/21 142/176/21
f 142/176/21 56/177/21 54/175/21
f 122/178/21 56/177/21 142/176/21
f 142/176/21 123/179/21 122/178/21
f 123/179/21 142/176/21 143/180/21
f 144/181/20 145/182/20 146/183/20
f 145/182/20 144/181/20 147/184/20
f 148/185/20 145/182/20 147/184/20
f 63/186/20 146/183/20 145/182/20
f 146/183/20 63/186/20 65/187/20
f 148/185/20 149/188/20 145/182/20
f 63/186/20 145/182/20 149/188/20
f 150/189/20 149/188/20 148/185/20
f 149/188/20 24/190/20 63/186/20
f 149/188/20 150/189/20 114/191/20
f 149/188/20 22/192/20 24/190/20
f 22/192/20 149/188/20 114/191/20
f 151/193/21 152/194/21 153/195/21
f 151/193/21 154/196/21 152/194/21
f 152/194/21 155/197/21 153/195/21
f 155/197/21 152/194/21 156/198/21
f 156/198/21 152/194/21 157/199/21
f 157/199/21 158/200/21 156/198/21
f 157/199/21 159/201/21 158/200/21
f 159/201/21 157/199/21 160/202/21
f 161/203/21 160/202/21 157/199/21
f 161/203/21 162/204/21 160/202/21
f 163/205/21 164/206/21 165/207/21
f 164/206/21 163/205/21 166/208/21
f 164/206/21 167/209/21 165/207/21
f 167/209/21 164/206/21 168/210/21
f 164/206/21 169/211/21 168/210/21
f 169/211/21 164/206/21 170/212/21
f 170/212/21 171/213/21 169/211/21
f 172/214/21 171/213/21 170/212/21
f 170/212/21 173/215/21 172/214/21
f 173/215/21 170/212/21 174/216/21
f 175/217/19 151/218/19 153/219/19
f 175/217/19 153/219/19 176/220/19
f 153/219/19 177/221/19 176/220/19
f 177/221/19 153/219/19 155/222/19
f 178/223/20 172/224/20 173/225/20
f 172/224/20 178/223/20 179/226/20
f 179/226/20 180/227/20 172/224/20
f 172/224/20 180/227/20 171/228/20
f 181/229/19 182/230/19 183/231/19
f 181/229/19 183/231/19 184/232/19
f 181/229/19 184/232/19 185/233/19
f 186/234/19 185/233/19 184/232/19
f 187/235/19 185/233/19 186/234/19
f 185/233/19 187/235/19 188/236/19
f 189/237/20 190/238/20 191/239/20
f 190/238/20 189/237/20 192/240/20
f 193/241/20 192/240/20 189/237/20
f 193/241/20 194/242/20 192/240/20
f 193/241/20 195/243/20 194/242/20
f 195/243/20 193/241/20 196/244/20
f 197/245/7 198/246/7 81/247/7
f 84/248/7 81/247/7 198/246/7
f 199/249/22 25/250/22 26/251/22
f 200/252/22 199/249/22 26/251/22
f 201/253/8 202/254/8 94/255/8
f 7/256/8 94/255/8 202/254/8
f 201/253/8 94/255/8 93/257/8
f 94/255/8 7/256/8 203/258/8
f 204/259/8 201/253/8 93/257/8
f 8/260/8 203/258/8 7/256/8
f 201/253/8 204/259/8 8/260/8
f 203/258/8 8/260/8 204/259/8
f 205/261/8 206/262/8 97/263/8
f 97/263/8 9/264/8 205/261/8
f 97/263/8 206/262/8 98/265/8
f 9/264/8 97/263/8 207/266/8
f 206/262/8 208/267/8 98/265/8
f 207/266/8 10/268/8 9/264/8
f 208/267/8 206/262/8 10/268/8
f 10/268/8 207/266/8 208/267/8
f 209/269/23 199/249/23 200/252/23
f 210/270/23 209/269/23 200/252/23
f 25/271/24 211/272/24 15/273/24
f 15/273/24 211/272/24 13/274/24
f 211/272/24 25/271/24 199/275/24
f 212/276/25 16/277/25 14/278/25
f 16/277/25 212/276/25 26/279/25
f 212/276/25 200/280/25 26/279/25
f 213/281/8 96/282/8 95/283/8
f 214/284/8 96/282/8 213/281/8
f 215/285/8 100/286/8 216/287/8
f 215/285/8 99/288/8 100/286/8
f 212/289/26 13/290/26 211/291/26
f 13/290/26 212/289/26 14/292/26
f 60/293/27 61/294/27 17/295/27
f 20/296/27 17/295/27 61/294/27
f 64/297/27 24/298/27 21/299/27
f 64/297/27 63/300/27 24/298/27
f 217/301/19 129/302/19 127/303/19
f 217/301/19 127/303/19 218/304/19
f 219/305/20 141/306/20 138/307/20
f 141/306/20 219/305/20 220/308/20
f 221/309/19 161/310/19 157/311/19
f 221/309/19 157/311/19 222/312/19
f 223/313/20 164/314/20 166/315/20
f 164/314/20 223/313/20 224/316/20
f 199/275/28 225/317/28 211/272/28
f 225/317/28 199/275/28 226/318/28
f 226/318/28 199/275/28 209/319/28
f 227/320/29 200/280/29 228/321/29
f 228/321/29 200/280/29 212/276/29
f 200/280/29 227/320/29 210/322/29
f 229/323/30 74/324/30 75/325/30
f 75/325/30 230/326/30 229/323/30
f 74/324/31 229/323/31 76/327/31
f 76/327/31 229/323/31 231/328/31
f 232/329/32 31/330/32 33/331/32
f 31/330/32 232/329/32 233/332/32
f 38/333/33 234/334/33 41/335/33
f 234/334/33 38/333/33 235/336/33
f 228/337/34 211/291/34 225/338/34
f 211/291/34 228/337/34 212/289/34
f 7/339/35 202/340/35 236/341/35
f 7/339/35 236/341/35 5/342/35
f 110/343/36 27/344/36 29/345/36
f 27/344/36 110/343/36 237/346/36
f 28/347/37 30/348/37 109/349/37
f 109/349/37 30/348/37 238/350/37
f 9/351/38 239/352/38 205/353/38
f 239/352/38 9/351/38 12/354/38
f 209/355/8 227/356/8 226/357/8
f 227/356/8 209/355/8 210/358/8
f 240/359/39 2/360/39 1/361/39
f 2/360/39 240/359/39 241/362/39
f 226/357/40 228/363/40 225/364/40
f 226/357/40 227/356/40 228/363/40
f 233/332/41 36/365/41 31/330/41
f 36/365/41 233/332/41 242/366/41
f 39/367/42 235/336/42 38/333/42
f 235/336/42 39/367/42 243/368/42
f 175/369/8 154/370/8 151/371/8
f 244/372/8 154/370/8 175/369/8
f 221/373/8 162/374/8 161/375/8
f 245/376/8 162/374/8 221/373/8
f 246/377/8 223/378/8 163/379/8
f 223/378/8 166/380/8 163/379/8
f 178/381/8 173/382/8 174/383/8
f 247/384/8 178/381/8 174/383/8
f 83/385/19 197/386/19 81/387/19
f 197/386/19 83/385/19 248/388/19
f 82/389/20 198/390/20 249/391/20
f 84/392/20 198/390/20 82/389/20
f 152/393/8 250/394/8 222/395/8
f 222/395/8 157/396/8 152/393/8
f 224/397/8 170/398/8 164/399/8
f 251/400/8 170/398/8 224/397/8
f 181/401/8 252/402/8 182/403/8
f 252/402/8 181/401/8 253/404/8
f 185/405/8 253/404/8 181/401/8
f 253/404/8 185/405/8 254/406/8
f 188/407/8 254/406/8 185/405/8
f 254/406/8 188/407/8 255/408/8
f 189/409/8 256/410/8 257/411/8
f 256/410/8 189/409/8 191/412/8
f 257/411/8 193/413/8 189/409/8
f 193/413/8 257/411/8 258/414/8
f 258/414/8 196/415/8 193/413/8
f 196/415/8 258/414/8 259/416/8
f 68/417/19 105/418/19 260/419/19
f 68/417/19 260/419/19 66/420/19
f 70/421/20 261/422/20 107/423/20
f 261/422/20 70/421/20 73/424/20
f 184/425/43 262/426/43 186/427/43
f 262/426/43 184/425/43 263/428/43
f 264/429/43 194/430/43 265/431/43
f 264/429/43 192/432/43 194/430/43
f 86/433/19 101/434/19 266/435/19
f 86/433/19 266/435/19 88/436/19
f 89/437/20 267/438/20 103/439/20
f 267/438/20 89/437/20 92/440/20
f 268/441/19 240/442/19 1/443/19
f 1/443/19 3/444/19 268/441/19
f 269/445/20 2/446/20 241/447/20
f 2/446/20 269/445/20 4/448/20
f 187/449/7 255/450/7 188/451/7
f 255/450/7 187/449/7 270/452/7
f 259/453/7 271/454/7 196/455/7
f 196/455/7 271/454/7 195/456/7
f 186/427/44 262/426/44 187/457/44
f 262/426/44 270/458/44 187/457/44
f 265/431/44 195/459/44 271/460/44
f 194/430/44 195/459/44 265/431/44
f 78/461/19 115/462/19 79/463/19
f 115/462/19 78/461/19 272/464/19
f 77/465/20 116/466/20 80/467/20
f 80/467/20 116/466/20 273/468/20
f 156/469/4 177/470/4 155/471/4
f 177/470/4 156/469/4 274/472/4
f 158/473/4 274/472/4 156/469/4
f 274/472/4 158/473/4 275/474/4
f 158/473/4 276/475/4 275/474/4
f 158/473/4 159/476/4 276/475/4
f 168/477/4 277/478/4 167/479/4
f 277/478/4 168/477/4 278/480/4
f 168/477/4 279/481/4 278/480/4
f 169/482/4 279/481/4 168/477/4
f 169/482/4 180/483/4 279/481/4
f 180/483/4 169/482/4 171/484/4
f 280/485/45 33/486/45 32/487/45
f 33/486/45 280/485/45 232/488/45
f 41/489/46 281/490/46 40/491/46
f 281/490/46 41/489/46 234/492/46
f 183/493/4 282/494/4 184/425/4
f 282/494/4 263/428/4 184/425/4
f 283/495/4 192/432/4 264/429/4
f 192/432/4 283/495/4 190/496/4
f 201/497/47 8/498/47 6/499/47
f 201/497/47 6/499/47 284/500/47
f 10/501/48 206/502/48 11/503/48
f 285/504/48 11/503/48 206/502/48
f 204/505/35 93/506/35 96/507/35
f 204/505/35 96/507/35 214/508/35
f 98/509/38 208/510/38 100/511/38
f 216/512/38 100/511/38 208/510/38
f 237/513/49 238/514/49 27/515/49
f 238/514/49 30/516/49 27/515/49
f 268/517/50 3/518/50 4/519/50
f 269/520/50 268/517/50 4/519/50
f 242/521/51 230/522/51 36/523/51
f 75/524/51 36/523/51 230/522/51
f 39/525/52 231/526/52 243/527/52
f 39/525/52 76/528/52 231/526/52
f 137/529/53 111/121/53 112/124/53
f 286/530/53 137/529/53 112/124/53
f 114/127/53 287/531/53 113/125/53
f 287/531/53 114/127/53 150/532/53
f 106/533/20 67/534/20 288/535/20
f 106/533/20 69/536/20 67/534/20
f 289/537/19 72/538/19 108/539/19
f 71/540/19 108/539/19 72/538/19
f 102/541/20 85/542/20 87/543/20
f 102/541/20 87/543/20 290/544/20
f 90/545/19 104/546/19 91/547/19
f 291/548/19 91/547/19 104/546/19
f 110/549/21 238/550/21 237/551/21
f 238/550/21 110/549/21 109/552/21
f 292/553/54 134/554/54 135/555/54
f 134/554/54 292/553/54 293/556/54
f 148/557/54 294/558/54 295/559/54
f 294/558/54 148/557/54 147/560/54
f 162/561/20 296/562/20 160/563/20
f 162/561/20 245/564/20 296/562/20
f 159/565/20 160/563/20 296/562/20
f 296/562/20 276/566/20 159/565/20
f 297/567/19 163/568/19 165/569/19
f 163/568/19 297/567/19 246/570/19
f 165/569/19 167/571/19 297/567/19
f 297/567/19 167/571/19 277/572/19
f 82/573/21 248/574/21 83/575/21
f 248/574/21 82/573/21 249/576/21
f 130/577/20 298/578/20 128/579/20
f 130/577/20 299/580/20 298/578/20
f 48/581/20 128/579/20 298/578/20
f 298/578/20 49/582/20 48/581/20
f 300/583/19 140/584/19 139/585/19
f 140/584/19 300/583/19 301/586/19
f 139/585/19 50/587/19 300/583/19
f 300/583/19 50/587/19 52/588/19
f 253/589/20 263/590/20 252/591/20
f 252/591/20 263/590/20 282/592/20
f 254/593/20 263/590/20 253/589/20
f 263/590/20 254/593/20 262/594/20
f 254/593/20 270/595/20 262/594/20
f 255/596/20 270/595/20 254/593/20
f 257/597/19 256/598/19 264/599/19
f 256/598/19 283/600/19 264/599/19
f 264/599/19 258/601/19 257/597/19
f 258/601/19 264/599/19 265/602/19
f 258/601/19 265/602/19 271/603/19
f 259/604/19 258/601/19 271/603/19
f 292/605/20 302/606/20 293/607/20
f 303/608/20 293/607/20 302/606/20
f 303/608/20 302/606/20 304/609/20
f 304/609/20 302/606/20 61/610/20
f 304/609/20 61/610/20 59/611/20
f 302/606/20 292/605/20 305/612/20
f 305/612/20 61/610/20 302/606/20
f 286/613/20 305/612/20 292/605/20
f 61/610/20 305/612/20 20/614/20
f 305/612/20 286/613/20 112/615/20
f 305/612/20 18/616/20 20/614/20
f 112/615/20 18/616/20 305/612/20
f 213/617/47 94/618/47 203/619/47
f 94/618/47 213/617/47 95/620/47
f 294/621/19 306/622/19 307/623/19
f 308/624/19 307/623/19 306/622/19
f 307/623/19 295/625/19 294/621/19
f 307/623/19 308/624/19 64/626/19
f 62/627/19 64/626/19 308/624/19
f 295/625/19 307/623/19 309/628/19
f 64/626/19 309/628/19 307/623/19
f 309/628/19 287/629/19 295/625/19
f 309/628/19 64/626/19 21/630/19
f 287/629/19 309/628/19 113/631/19
f 309/628/19 21/630/19 23/632/19
f 113/631/19 309/628/19 23/632/19
f 207/633/48 97/634/48 215/635/48
f 99/636/48 215/635/48 97/634/48
f 37/637/55 310/638/55 35/639/55
f 35/639/55 310/638/55 311/640/55
f 34/641/56 35/639/56 312/642/56
f 35/639/56 311/640/56 312/642/56
f 236/643/4 6/644/4 5/645/4
f 6/644/4 236/643/4 284/646/4
f 239/647/4 11/648/4 285/649/4
f 11/648/4 239/647/4 12/650/4
f 32/651/57 34/641/57 280/652/57
f 312/642/57 280/652/57 34/641/57
f 37/637/58 40/653/58 281/654/58
f 37/637/58 281/654/58 310/638/58
f 137/655/59 292/553/59 135/555/59
f 292/553/59 137/655/59 286/656/59
f 287/657/59 148/557/59 295/559/59
f 287/657/59 150/658/59 148/557/59
f 134/554/60 303/659/60 132/660/60
f 303/659/60 134/554/60 293/556/60
f 147/560/60 306/661/60 294/558/60
f 306/661/60 147/560/60 144/662/60
f 118/663/8 313/664/8 126/665/8
f 313/664/8 118/663/8 117/666/8
f 299/667/8 130/668/8 217/669/8
f 217/669/8 130/668/8 129/670/8
f 123/671/8 314/672/8 121/673/8
f 314/672/8 123/671/8 143/674/8
f 301/675/8 219/676/8 140/677/8
f 219/676/8 138/678/8 140/677/8
f 154/679/20 250/680/20 152/681/20
f 154/679/20 244/682/20 250/680/20
f 251/683/19 174/684/19 170/685/19
f 174/684/19 251/683/19 247/686/19
f 126/687/20 315/688/20 125/689/20
f 126/687/20 313/690/20 315/688/20
f 316/691/19 143/692/19 142/693/19
f 143/692/19 316/691/19 314/694/19
f 80/695/21 272/696/21 78/697/21
f 272/696/21 80/695/21 273/698/21
f 313/699/7 117/700/7 120/701/7
f 313/699/7 120/701/7 315/702/7
f 120/701/7 44/703/7 315/702/7
f 315/702/7 44/703/7 43/704/7
f 46/705/7 315/702/7 43/704/7
f 315/702/7 46/705/7 218/706/7
f 49/707/7 218/706/7 46/705/7
f 218/706/7 49/707/7 298/708/7
f 299/709/7 218/706/7 298/708/7
f 299/709/7 217/710/7 218/706/7
f 301/711/7 220/712/7 219/713/7
f 220/712/7 301/711/7 300/714/7
f 300/714/7 51/715/7 220/712/7
f 51/715/7 300/714/7 52/716/7
f 220/712/7 51/715/7 316/717/7
f 316/717/7 51/715/7 55/718/7
f 57/719/7 316/717/7 55/718/7
f 316/717/7 57/719/7 124/720/7
f 124/720/7 314/721/7 316/717/7
f 314/721/7 124/720/7 121/722/7
f 125/723/8 315/724/8 218/725/8
f 218/725/8 127/726/8 125/723/8
f 220/727/8 142/728/8 141/729/8
f 316/730/8 142/728/8 220/727/8
f 244/731/7 175/732/7 176/733/7
f 244/731/7 176/733/7 250/734/7
f 176/733/7 177/735/7 250/734/7
f 250/734/7 177/735/7 274/736/7
f 275/737/7 250/734/7 274/736/7
f 250/734/7 275/737/7 222/738/7
f 276/739/7 222/738/7 275/737/7
f 222/738/7 276/739/7 296/740/7
f 245/741/7 222/738/7 296/740/7
f 245/741/7 221/742/7 222/738/7
f 224/743/7 246/744/7 297/745/7
f 246/744/7 224/743/7 223/746/7
f 277/747/7 224/743/7 297/745/7
f 224/743/7 277/747/7 278/748/7
f 224/743/7 278/748/7 251/749/7
f 251/749/7 278/748/7 279/750/7
f 179/751/7 247/752/7 251/749/7
f 247/752/7 179/751/7 178/753/7
f 251/749/7 180/754/7 179/751/7
f 180/754/7 251/749/7 279/750/7
f 106/755/21 260/756/21 105/757/21
f 260/756/21 106/755/21 288/758/21
f 108/759/21 261/760/21 289/761/21
f 108/759/21 107/762/21 261/760/21
f 102/763/21 266/764/21 101/765/21
f 266/764/21 102/763/21 290/766/21
f 104/767/21 103/768/21 267/769/21
f 104/767/21 267/769/21 291/770/21
f 248/771/4 249/772/4 197/773/4
f 249/772/4 198/774/4 197/773/4
f 201/775/61 236/776/61 202/777/61
f 236/776/61 201/775/61 284/778/61
f 206/779/62 205/780/62 239/781/62
f 206/779/62 239/781/62 285/782/62
f 272/783/4 273/784/4 115/785/4
f 273/784/4 116/786/4 115/785/4
f 269/787/63 240/788/63 268/789/63
f 240/788/63 269/787/63 241/790/63
f 203/791/61 204/792/61 214/793/61
f 203/791/61 214/793/61 213/794/61
f 208/795/62 207/796/62 216/797/62
f 215/798/62 216/797/62 207/796/62
