# animal_lion_parts: the pack lion (creatures/animal_lion) cut into hinged parts by tools/cut_lion.py. Model space as the source.
mtllib animal_lion_parts.mtl
v 5.89700 1.72000 0.02000
v 5.90500 1.76000 -0.02000
v 5.90500 1.76000 0.02000
v 5.89700 1.72000 -0.02000
v 4.16900 2.69000 0.17000
v 3.80800 3.78000 -0.21000
v 3.80800 3.78000 0.21000
v 4.16900 2.69000 -0.17000
v -5.64900 4.64000 0.85000
v -5.64900 3.63000 0.26000
v -5.64900 3.63000 0.85000
v -5.64900 3.85000 0.04000
v -5.64900 4.64000 0.04000
v -5.64900 4.64000 -0.04000
v -5.64900 3.85000 -0.04000
v -5.64900 4.64000 -0.85000
v -5.64900 3.63000 -0.26000
v -5.64900 3.63000 -0.85000
v -5.53000 4.44000 0.77000
v -5.53000 3.53000 0.23000
v -5.53000 3.53000 0.77000
v -5.53000 3.77000 0.00000
v -5.53000 4.44000 0.00000
v -5.53000 4.44000 -0.77000
v -5.53000 3.53000 -0.23000
v -5.53000 3.53000 -0.77000
v 2.28300 0.46000 1.19000
v 2.58700 1.57000 1.19000
v 2.28300 0.46000 1.61000
v 2.58700 1.57000 1.66000
v 2.28300 0.46000 0.77000
v 2.58700 1.57000 0.72000
v 2.28300 0.46000 -0.77000
v 2.58700 1.57000 -1.19000
v 2.58700 1.57000 -0.72000
v 2.28300 0.46000 -1.19000
v 2.28300 0.46000 -1.61000
v 2.58700 1.57000 -1.66000
v -5.90500 4.82000 -0.23000
v -5.75600 4.37000 0.23000
v -5.90500 4.82000 0.23000
v -5.75600 4.37000 -0.23000
v 2.51600 2.25000 1.31000
v 2.65600 3.20000 -1.31000
v 2.65600 3.20000 1.31000
v 2.51600 2.25000 -1.31000
v 2.51600 4.16000 1.31000
v 2.51600 4.16000 -1.31000
v -4.04800 6.79000 1.71000
v -3.56800 6.79000 1.71000
v -4.04800 6.84000 1.41000
v -3.56800 6.84000 1.41000
v -4.04800 6.84000 -1.41000
v -3.56800 6.84000 -1.41000
v -3.56800 6.79000 -1.71000
v -4.04800 6.79000 -1.71000
v 2.41200 2.49000 1.77000
v 2.56900 3.03000 1.19000
v 2.56900 3.03000 1.77000
v 2.41200 2.49000 1.19000
v 2.41200 2.49000 0.61000
v 2.56900 3.03000 0.61000
v 2.41200 2.49000 -0.61000
v 2.56900 3.03000 -1.19000
v 2.56900 3.03000 -0.61000
v 2.41200 2.49000 -1.19000
v 2.41200 2.49000 -1.77000
v 2.56900 3.03000 -1.77000
v 2.40100 3.95000 1.77000
v 2.40100 3.95000 1.19000
v 2.40100 3.95000 0.61000
v 2.40100 3.95000 -1.19000
v 2.40100 3.95000 -0.61000
v 2.40100 3.95000 -1.77000
v 2.40900 0.00000 0.74000
v 2.40900 0.46000 1.64000
v 2.40900 0.00000 1.64000
v 2.40900 0.46000 0.74000
v 2.40900 0.00000 -0.74000
v 2.40900 0.46000 -1.64000
v 2.40900 0.46000 -0.74000
v 2.40900 0.00000 -1.64000
v -4.73600 5.06000 1.00000
v -4.73600 5.51000 0.44000
v -4.73600 5.06000 0.44000
v -4.73600 5.65000 1.00000
v -4.73600 5.51000 -0.44000
v -4.73600 5.06000 -1.00000
v -4.73600 5.06000 -0.44000
v -4.73600 5.65000 -1.00000
v 5.42600 1.57000 0.25000
v 5.42600 1.57000 -0.25000
v -4.68400 5.75000 0.34000
v -4.68400 4.96000 1.16000
v -4.68400 5.90000 1.16000
v -4.68400 4.96000 0.34000
v -4.68400 5.75000 -0.34000
v -4.68400 4.96000 -1.16000
v -4.68400 4.96000 -0.34000
v -4.68400 5.90000 -1.16000
v -4.59900 6.25000 1.40000
v -4.59900 3.53000 1.05000
v -4.59900 4.01000 1.59000
v -4.59900 3.53000 -1.05000
v -4.59900 6.25000 -1.40000
v -4.59900 4.01000 -1.59000
v 5.54900 2.05000 0.25000
v 5.54900 2.05000 -0.25000
v 4.59700 2.28000 -0.14000
v 4.59700 2.28000 0.14000
v -1.09100 6.50000 0.85000
v -2.49900 7.19000 0.00000
v -2.57400 6.94000 0.85000
v -1.01600 6.75000 0.00000
v -2.57400 6.94000 -0.85000
v -1.09100 6.50000 -0.85000
v -2.89500 0.00000 1.69000
v -3.06400 0.00000 1.19000
v -2.43900 0.00000 1.75000
v -2.43900 0.00000 0.63000
v -2.89500 0.00000 0.68000
v -1.58000 0.00000 0.74000
v -1.58000 0.00000 1.64000
v -1.22100 0.00000 0.74000
v -1.22100 0.00000 1.64000
v 0.73600 0.00000 1.69000
v 0.56700 0.00000 1.19000
v 1.19100 0.00000 1.75000
v 1.19100 0.00000 0.63000
v 0.73600 0.00000 0.68000
v 2.05100 0.00000 0.74000
v 2.05100 0.00000 1.64000
v -3.06400 0.00000 -1.19000
v -2.43900 0.00000 -0.63000
v -2.89500 0.00000 -0.68000
v -2.43900 0.00000 -1.75000
v -2.89500 0.00000 -1.69000
v -1.58000 0.00000 -0.74000
v -1.58000 0.00000 -1.64000
v -1.22100 0.00000 -0.74000
v -1.22100 0.00000 -1.64000
v 0.56700 0.00000 -1.19000
v 1.19100 0.00000 -0.63000
v 0.73600 0.00000 -0.68000
v 1.19100 0.00000 -1.75000
v 0.73600 0.00000 -1.69000
v 2.05100 0.00000 -0.74000
v 2.05100 0.00000 -1.64000
v -4.04800 6.09000 2.07000
v -3.56800 6.09000 2.07000
v -4.04800 6.09000 -2.07000
v -3.56800 6.09000 -2.07000
v -1.32200 5.85000 1.95000
v -2.62000 6.65000 1.20000
v -2.73300 6.28000 1.95000
v -1.21000 6.23000 1.20000
v -2.73300 6.28000 -1.95000
v -2.62000 6.65000 -1.20000
v -1.32200 5.85000 -1.95000
v -1.21000 6.23000 -1.20000
v -1.87400 6.25000 1.40000
v -1.87400 6.25000 -1.40000
v -4.04800 6.12000 0.99000
v -4.04800 5.84000 1.44000
v -3.91300 5.84000 1.44000
v -3.91300 6.12000 0.99000
v -4.04800 5.84000 -1.44000
v -4.04800 6.12000 -0.99000
v -3.91300 5.84000 -1.44000
v -3.91300 6.12000 -0.99000
v 3.08800 4.20000 -0.25000
v 3.08800 4.20000 0.25000
v -3.32600 4.42000 2.90000
v -1.60000 4.79000 2.63000
v -3.08300 5.23000 2.63000
v -1.84300 3.98000 2.90000
v -1.60000 4.79000 -2.63000
v -3.32600 4.42000 -2.90000
v -3.08300 5.23000 -2.63000
v -1.84300 3.98000 -2.90000
v -4.04800 5.91000 1.79000
v -4.04800 5.68000 1.42000
v -4.04800 5.78000 1.89000
v -4.04800 6.10000 1.90000
v -4.04800 6.08000 0.76000
v -4.04800 6.66000 1.61000
v -4.04800 6.68000 1.46000
v -4.04800 5.68000 -1.42000
v -4.04800 6.08000 -0.76000
v -4.04800 6.68000 -1.46000
v -4.04800 5.91000 -1.79000
v -4.04800 5.78000 -1.89000
v -4.04800 6.66000 -1.61000
v -4.04800 6.10000 -1.90000
v -1.53700 5.14000 -2.34000
v -2.94800 5.56000 -2.34000
v -2.94800 5.56000 2.34000
v -1.53700 5.14000 2.34000
v -2.40100 0.38000 0.88000
v -1.31500 0.38000 1.55000
v -2.40100 0.38000 1.55000
v -1.31500 0.38000 0.88000
v -2.40100 0.38000 -0.88000
v -2.40100 0.38000 -1.55000
v -1.31500 0.38000 -1.55000
v -1.31500 0.38000 -0.88000
v -3.91300 6.10000 1.90000
v -3.91300 5.91000 1.79000
v -3.91300 6.66000 1.61000
v -3.91300 6.68000 1.46000
v -3.91300 6.10000 -1.90000
v -3.91300 5.91000 -1.79000
v -3.91300 6.66000 -1.61000
v -3.91300 6.68000 -1.46000
v -0.27500 5.73000 0.70000
v -1.43100 6.30000 0.00000
v -1.49200 6.09000 0.70000
v -0.21400 5.94000 0.00000
v -0.27500 5.73000 -0.70000
v -1.49200 6.09000 -0.70000
v -2.08700 3.16000 2.63000
v -3.56900 3.60000 2.63000
v -2.08700 3.16000 -2.63000
v -3.56900 3.60000 -2.63000
v -0.46500 5.20000 1.60000
v -1.53100 5.86000 0.98000
v -1.62300 5.55000 1.60000
v -0.37200 5.51000 0.98000
v -1.53100 5.86000 -0.98000
v -0.37200 5.51000 -0.98000
v -0.46500 5.20000 -1.60000
v -1.62300 5.55000 -1.60000
v -2.11000 4.02000 -2.38000
v -0.69300 4.33000 -2.16000
v -0.89300 3.66000 -2.38000
v -1.91000 4.69000 -2.16000
v -4.43400 5.90000 1.16000
v -4.43400 5.75000 0.34000
v -0.69300 4.33000 2.16000
v -2.11000 4.02000 2.38000
v -0.89300 3.66000 2.38000
v -1.91000 4.69000 2.16000
v -4.43400 5.75000 -0.34000
v -4.43400 5.90000 -1.16000
v -4.07800 1.90000 0.85000
v -4.15300 1.64000 0.00000
v -4.07800 1.90000 -0.85000
v -2.43600 2.12000 1.95000
v -3.63300 3.26000 2.34000
v -3.84700 2.54000 1.95000
v -2.22200 2.84000 2.34000
v -3.63300 3.26000 -2.34000
v -2.43600 2.12000 -1.95000
v -3.84700 2.54000 -1.95000
v -2.22200 2.84000 -2.34000
v -0.64100 4.61000 -1.92000
v -1.79900 4.96000 -1.92000
v -0.64100 4.61000 1.92000
v -1.79900 4.96000 1.92000
v -3.96000 2.16000 1.20000
v -3.96000 2.16000 -1.20000
v -2.67100 1.20000 0.00000
v -2.59600 1.45000 0.85000
v -2.59600 1.45000 -0.85000
v -2.89500 0.46000 1.69000
v -3.06400 0.46000 1.19000
v -2.54900 1.74000 1.20000
v -2.89500 0.46000 -1.69000
v -3.06400 0.46000 -1.19000
v -2.54900 1.74000 -1.20000
v -2.30900 3.35000 2.16000
v -1.09200 2.99000 2.16000
v -2.30900 3.35000 -2.16000
v -1.09200 2.99000 -2.16000
v -4.43000 4.84000 1.03000
v -4.43000 4.84000 0.07000
v -4.43000 4.84000 -0.02000
v -4.43000 4.84000 -0.98000
v 1.94000 2.11000 -1.77000
v 2.15900 1.55000 -1.66000
v 1.94000 2.11000 1.77000
v 2.15900 1.55000 1.66000
v -4.56700 5.51000 0.44000
v -4.56700 5.65000 1.00000
v -4.56700 5.51000 -0.44000
v -4.56700 5.65000 -1.00000
v 2.05100 0.46000 -1.64000
v 1.19100 0.46000 -1.75000
v 2.05100 0.46000 1.64000
v 1.19100 0.46000 1.75000
v -2.90000 4.67000 1.47000
v -3.20000 3.18000 -1.47000
v -3.20000 3.18000 1.47000
v -2.90000 4.67000 -1.47000
v 1.27300 1.57000 -1.66000
v 0.83400 2.11000 -1.77000
v 0.83400 2.11000 1.77000
v 1.27300 1.57000 1.66000
v -1.37900 2.13000 1.60000
v -2.36200 3.07000 1.92000
v -2.53800 2.48000 1.60000
v -1.20300 2.72000 1.92000
v -2.36200 3.07000 -1.92000
v -1.37900 2.13000 -1.60000
v -2.53800 2.48000 -1.60000
v -1.20300 2.72000 -1.92000
v 1.61800 4.24000 1.77000
v 1.61800 4.24000 1.19000
v 1.61800 4.24000 0.61000
v 1.61800 4.24000 -0.61000
v 1.61800 4.24000 -1.19000
v 1.61800 4.24000 -1.77000
v -4.43700 4.62000 0.02000
v -4.43700 4.62000 0.92000
v -4.43700 4.62000 -0.88000
v -2.43900 0.46000 1.75000
v -2.43900 0.46000 -1.75000
v -1.57200 1.38000 0.00000
v -2.72700 1.95000 0.70000
v -2.78900 1.74000 0.00000
v -1.51000 1.59000 0.70000
v -2.30700 1.57000 1.47000
v -2.30700 1.57000 -1.47000
v -2.72700 1.95000 -0.70000
v -1.51000 1.59000 -0.70000
v 1.61800 3.18000 1.77000
v 0.83400 3.03000 1.77000
v 0.83400 3.95000 1.77000
v 1.61800 3.18000 -1.77000
v 0.83400 3.03000 -1.77000
v 0.83400 3.95000 -1.77000
v -1.47200 1.82000 0.98000
v -2.63000 2.17000 0.98000
v -1.47200 1.82000 -0.98000
v -2.63000 2.17000 -0.98000
v 1.95000 0.46000 1.61000
v 1.95000 0.46000 -1.61000
v 1.15200 0.46000 1.61000
v 1.15200 0.46000 -1.61000
v -1.87400 4.01000 1.59000
v -1.87400 4.01000 -1.59000
v -1.22100 0.46000 1.64000
v -1.58000 0.46000 1.64000
v -1.22100 0.46000 -1.64000
v -1.58000 0.46000 -1.64000
v -2.27200 2.13000 1.59000
v -0.90800 2.13000 1.59000
v -2.27200 2.13000 -1.59000
v -0.90800 2.13000 -1.59000
v -0.94300 3.58000 1.59000
v -2.43700 3.44000 1.59000
v -2.07800 3.85000 1.59000
v -1.21900 3.85000 1.59000
v -2.54500 4.47000 1.31000
v -2.81100 3.15000 -1.31000
v -2.81100 3.15000 1.31000
v -2.54500 4.47000 -1.31000
v -2.43700 3.44000 -1.59000
v -0.94300 3.58000 -1.59000
v -2.07800 3.85000 -1.59000
v -1.21900 3.85000 -1.59000
v -5.29900 4.82000 0.23000
v -5.29900 4.82000 -0.23000
v -0.11800 1.82000 1.47000
v -0.11800 1.82000 -1.47000
v -2.01900 1.72000 1.31000
v -2.01900 1.72000 -1.31000
v -4.43000 3.65000 1.03000
v -0.56100 3.21000 -1.47000
v -0.45700 4.52000 -1.47000
v -0.56100 3.21000 1.47000
v -0.45700 4.52000 1.47000
v 0.73600 0.46000 -1.69000
v 0.73600 0.46000 1.69000
v -2.89500 0.46000 0.68000
v -2.89500 0.46000 -0.68000
v -4.43700 3.55000 0.92000
v -4.43000 3.65000 -0.98000
v 5.32200 1.98000 0.11000
v 5.32200 1.98000 -0.11000
v -3.56800 6.08000 0.76000
v -3.56800 6.08000 -0.76000
v -2.43700 3.44000 0.84000
v -2.27200 2.13000 0.84000
v -2.43700 3.44000 -0.84000
v -2.27200 2.13000 -0.84000
v -4.43700 3.55000 -0.88000
v -4.43400 4.96000 1.16000
v -4.43400 4.96000 -1.16000
v -2.07800 3.85000 0.84000
v -2.07800 3.85000 -0.84000
v -4.56700 5.06000 1.00000
v -4.56700 5.06000 -1.00000
v 2.48300 3.51000 0.28000
v 3.03200 3.69000 -0.25000
v 3.03200 3.69000 0.25000
v 2.48300 3.51000 -0.28000
v -1.21900 3.85000 0.84000
v -1.21900 3.85000 -0.84000
v -0.90800 2.13000 0.84000
v -0.90800 2.13000 -0.84000
v -1.87400 3.53000 1.05000
v -1.87400 3.53000 -1.05000
v -0.94300 3.58000 0.84000
v -0.94300 3.58000 -0.84000
v 5.24900 1.78000 0.11000
v 4.45800 2.04000 0.14000
v 3.88300 2.49000 0.17000
v 3.48600 3.50000 0.21000
v 3.26300 3.58000 0.23000
v 2.34100 4.04000 0.28000
v 5.24900 1.78000 -0.11000
v 4.45800 2.04000 -0.14000
v 3.88300 2.49000 -0.17000
v 3.48600 3.50000 -0.21000
v 3.26300 3.58000 -0.23000
v 2.34100 4.04000 -0.28000
v -3.56800 5.78000 1.89000
v -3.56800 5.78000 -1.89000
v -5.29900 4.37000 0.23000
v -5.29900 4.37000 -0.23000
v 0.83400 3.95000 1.19000
v 0.83400 3.95000 0.61000
v 0.83400 3.95000 -0.61000
v 0.83400 3.95000 -1.19000
v -1.22100 0.46000 0.74000
v -1.22100 0.46000 -0.74000
v 2.15900 1.55000 0.72000
v 1.94000 2.11000 0.61000
v 1.94000 2.11000 -0.61000
v 2.15900 1.55000 -0.72000
v 1.19100 0.46000 0.63000
v 2.05100 0.46000 0.74000
v -4.43400 4.96000 0.34000
v 1.19100 0.46000 -0.63000
v 2.05100 0.46000 -0.74000
v -4.43400 4.96000 -0.34000
v 1.27300 1.57000 0.72000
v 0.83400 2.11000 0.61000
v -4.43700 3.55000 0.30000
v -4.43700 3.55000 -0.25000
v 1.27300 1.57000 -0.72000
v 0.83400 2.11000 -0.61000
v -4.56700 5.06000 0.44000
v -4.56700 5.06000 -0.44000
v -2.43900 0.46000 0.63000
v -4.43000 3.65000 0.33000
v -4.43000 3.65000 -0.28000
v -2.43900 0.46000 -0.63000
v -4.43700 3.83000 0.02000
v -4.43000 3.91000 -0.02000
v 1.61800 3.18000 0.61000
v 0.83400 3.03000 0.61000
v 1.61800 3.18000 -0.61000
v 0.83400 3.03000 -0.61000
v 1.95000 0.46000 0.77000
v 1.95000 0.46000 -0.77000
v 1.15200 0.46000 0.77000
v 1.15200 0.46000 -0.77000
v -4.43000 3.91000 0.07000
v -1.58000 0.46000 0.74000
v -1.58000 0.46000 -0.74000
v 0.83400 2.11000 1.19000
v 1.27300 1.57000 1.19000
v 0.83400 2.11000 -1.19000
v 1.27300 1.57000 -1.19000
v 0.73600 0.46000 0.68000
v 0.73600 0.46000 -0.68000
v 0.56700 0.46000 1.19000
v 0.56700 0.46000 -1.19000
v 0.83400 3.03000 1.19000
v 0.83400 3.03000 -1.19000
v -3.56800 5.68000 1.42000
v -3.56800 5.68000 -1.42000
v 1.15200 0.46000 1.19000
v 1.15200 0.46000 -1.19000
vt 0.08609 0.01351
vt 0.08788 0.01171
vt 0.08789 0.01351
vt 0.08609 0.01171
vt 0.55391 0.02623
vt 0.56918 0.07154
vt 0.55233 0.07154
vt 0.56760 0.02623
vt 0.99172 0.57822
vt 0.95192 0.60154
vt 0.95192 0.57822
vt 0.96046 0.61009
vt 0.99172 0.61007
vt 0.99172 0.61356
vt 0.96046 0.61354
vt 0.99172 0.64540
vt 0.95192 0.62209
vt 0.95192 0.64540
vt 0.98762 0.64907
vt 0.95192 0.66999
vt 0.95192 0.64907
vt 0.96113 0.67920
vt 0.98762 0.67920
vt 0.98762 0.70934
vt 0.95192 0.68842
vt 0.95192 0.70934
vt 0.02587 0.81876
vt 0.02588 0.86394
vt 0.00930 0.81877
vt 0.00747 0.86394
vt 0.04244 0.81876
vt 0.04428 0.86393
vt 1.04244 0.81876
vt 1.02588 0.86394
vt 1.04428 0.86393
vt 1.02587 0.81876
vt 1.00930 0.81877
vt 1.00747 0.86394
vt 0.48231 0.45219
vt 0.50028 0.43329
vt 0.50028 0.45219
vt 0.48231 0.43329
vt 0.78560 0.96109
vt 0.82349 0.85821
vt 0.82348 0.96109
vt 0.78560 0.85821
vt 0.86137 0.96109
vt 0.86137 0.85821
vt 0.99527 0.05401
vt 0.97638 0.05401
vt 0.99527 0.04188
vt 0.97638 0.04188
vt 1.99527 0.04188
vt 1.97638 0.04188
vt 1.97638 0.05401
vt 1.99527 0.05401
vt 0.00293 0.90086
vt 0.02589 0.92293
vt 0.00293 0.92293
vt 0.02588 0.90086
vt 0.04884 0.90085
vt 0.04884 0.92292
vt 1.04884 0.90085
vt 1.02589 0.92293
vt 1.04884 0.92292
vt 1.02588 0.90086
vt 1.00293 0.90086
vt 1.00293 0.92293
vt 0.00294 0.95961
vt 0.02589 0.95960
vt 0.04885 0.95960
vt 1.02589 0.95960
vt 1.04885 0.95960
vt 1.00294 0.95961
vt 1.97637 0.10323
vt 1.99459 0.13892
vt 1.97637 0.13892
vt 1.99459 0.10323
vt 0.27432 0.38947
vt 0.25240 0.40705
vt 0.25240 0.38947
vt 0.27432 0.41289
vt 1.25241 0.40705
vt 1.27432 0.38947
vt 1.25241 0.38947
vt 1.27432 0.41289
vt 0.10076 0.12272
vt 0.10240 0.14475
vt 0.10077 0.14402
vt 0.11837 0.13067
vt 0.28665 0.89015
vt 0.31908 0.85925
vt 0.31908 0.89599
vt 0.28665 0.85925
vt 1.28665 0.89015
vt 1.31908 0.85925
vt 1.28665 0.85925
vt 1.31908 0.89599
vt 0.65310 0.51079
vt 0.54591 0.52426
vt 0.56487 0.50310
vt 0.54591 0.60722
vt 0.65311 0.62069
vt 0.56487 0.62838
vt 0.22795 0.39672
vt 0.24590 0.40384
vt 0.22956 0.41750
vt 0.22795 0.41671
vt 0.63398 0.49875
vt 0.65095 0.48665
vt 0.63562 0.49949
vt 0.63396 0.47746
vt 0.56613 0.00295
vt 0.55538 0.00295
vt 0.10586 0.00295
vt 0.10586 0.02227
vt 0.71712 0.92830
vt 0.77799 0.89325
vt 0.77799 0.92830
vt 0.71712 0.89326
vt 0.77798 0.85821
vt 0.71712 0.85822
vt 0.67036 0.90902
vt 0.69022 0.90237
vt 0.66820 0.92694
vt 0.71224 0.92694
vt 0.71008 0.90902
vt 0.70806 0.96076
vt 0.67238 0.96076
vt 0.70806 0.97487
vt 0.67238 0.97487
vt 1.67036 0.90902
vt 1.69022 0.90237
vt 1.66820 0.92694
vt 1.71224 0.92694
vt 1.71008 0.90902
vt 1.70806 0.96076
vt 1.67238 0.96076
vt 1.70806 0.97487
vt 1.67238 0.97487
vt 0.99527 0.34218
vt 0.97638 0.34218
vt 0.99526 0.31130
vt 0.97637 0.31130
vt 1.99527 0.34218
vt 1.99526 0.31130
vt 1.97638 0.34218
vt 1.97637 0.31130
vt 0.59487 0.46767
vt 0.65279 0.43430
vt 0.65280 0.46766
vt 0.59486 0.43432
vt 0.71634 0.00295
vt 0.71635 0.03630
vt 0.65842 0.00295
vt 0.65842 0.03631
vt 0.31558 0.74471
vt 0.20838 0.74471
vt 0.20838 0.63480
vt 0.31558 0.63480
vt 0.64907 0.00295
vt 0.64908 0.02410
vt 0.64374 0.02410
vt 0.64374 0.00295
vt 1.64908 0.02410
vt 1.64908 0.00295
vt 1.64374 0.02410
vt 1.64374 0.00295
vt 0.57071 0.10426
vt 0.55080 0.10426
vt 0.19588 0.93117
vt 0.13500 0.89613
vt 0.19587 0.89613
vt 0.13501 0.93118
vt 0.35024 0.46625
vt 0.38584 0.52680
vt 0.35080 0.52712
vt 0.38528 0.46593
vt 0.75165 0.93807
vt 0.73542 0.94398
vt 0.74993 0.93197
vt 0.74090 0.94697
vt 0.76022 0.93930
vt 0.73835 0.96796
vt 0.76420 0.93402
vt 0.73179 0.97399
vt 0.77684 0.96219
vt 0.77070 0.97265
vt 0.77033 0.96184
vt 0.76731 0.96697
vt 1.73835 0.96796
vt 1.73542 0.94398
vt 1.73179 0.97399
vt 1.77069 0.97265
vt 1.74090 0.94697
vt 1.76731 0.96697
vt 1.75165 0.93807
vt 1.77684 0.96219
vt 1.74993 0.93197
vt 1.77033 0.96184
vt 1.76022 0.93930
vt 1.76420 0.93402
vt 0.07065 0.81172
vt 0.01271 0.77837
vt 0.07064 0.77836
vt 0.01272 0.81173
vt 0.09098 0.74514
vt 0.09099 0.68721
vt 0.12434 0.68721
vt 0.12433 0.74514
vt 0.50396 0.94047
vt 0.47742 0.98319
vt 0.47742 0.94047
vt 0.50396 0.98319
vt 1.50396 0.94047
vt 1.47742 0.94047
vt 1.47742 0.98319
vt 1.50396 0.98319
vt 0.94443 0.35474
vt 0.92511 0.36240
vt 0.93586 0.35350
vt 0.95454 0.37727
vt 0.95152 0.38240
vt 0.92256 0.38340
vt 1.92511 0.36240
vt 1.94443 0.35474
vt 1.93586 0.35350
vt 1.95454 0.37727
vt 1.95152 0.38240
vt 1.92257 0.38340
vt 0.07631 0.83590
vt 0.12628 0.80713
vt 0.12628 0.83590
vt 0.07631 0.80713
vt 0.07630 0.77836
vt 0.12628 0.77836
vt 0.13501 0.96622
vt 0.19588 0.96622
vt 0.42032 0.46561
vt 0.42088 0.52647
vt 0.84434 0.73922
vt 0.89189 0.71183
vt 0.89190 0.73921
vt 0.84433 0.71184
vt 0.91632 0.22326
vt 0.86876 0.22326
vt 0.86876 0.19588
vt 0.91632 0.19587
vt 0.47730 0.74683
vt 0.44807 0.69713
vt 0.47684 0.69686
vt 0.44853 0.74710
vt 0.98616 0.25242
vt 0.98616 0.21947
vt 0.99600 0.25242
vt 0.99599 0.21947
vt 0.38448 0.92983
vt 0.43445 0.95860
vt 0.38448 0.95860
vt 0.43445 0.92983
vt 1.99600 0.25242
vt 1.99599 0.21947
vt 1.98616 0.21947
vt 1.98616 0.25242
vt 0.40256 0.24485
vt 0.36904 0.46237
vt 0.36908 0.23449
vt 0.40252 0.45202
vt 0.33556 0.45200
vt 0.33560 0.24484
vt 0.44243 0.00295
vt 0.40894 0.22047
vt 0.40895 0.01330
vt 0.44242 0.23083
vt 0.47591 0.01331
vt 0.47590 0.22047
vt 0.12922 0.20762
vt 0.09588 0.14968
vt 0.12923 0.14969
vt 0.09587 0.20761
vt 0.49133 0.61401
vt 0.43340 0.58067
vt 0.49133 0.58066
vt 0.43340 0.61402
vt 0.22170 0.33974
vt 0.17414 0.31237
vt 0.22170 0.31236
vt 0.17414 0.33975
vt 0.32381 0.98489
vt 0.29644 0.93733
vt 0.32382 0.93733
vt 0.29643 0.98488
vt 0.57539 0.42446
vt 0.54356 0.21744
vt 0.57542 0.22730
vt 0.54353 0.43432
vt 0.51169 0.22729
vt 0.51166 0.42446
vt 0.01279 0.50013
vt 0.20995 0.50013
vt 0.21981 0.53199
vt 0.00293 0.53200
vt 0.20995 0.56386
vt 0.01279 0.56386
vt 0.50405 0.86670
vt 0.44318 0.90176
vt 0.44318 0.86671
vt 0.50405 0.90175
vt 0.50406 0.93679
vt 0.44319 0.93680
vt 0.64908 0.03806
vt 0.64374 0.03806
vt 1.64908 0.03806
vt 1.64374 0.03806
vt 0.99459 0.05768
vt 0.97638 0.07862
vt 0.97637 0.05768
vt 0.99460 0.07862
vt 0.58015 0.03632
vt 0.63808 0.00295
vt 0.63808 0.03631
vt 0.58015 0.00296
vt 1.99459 0.05768
vt 1.97637 0.05768
vt 1.97638 0.07862
vt 1.99460 0.07862
vt 0.71634 0.46766
vt 0.65842 0.43431
vt 0.71635 0.43431
vt 0.65842 0.46766
vt 0.43445 0.98737
vt 0.38448 0.98738
vt 0.50607 0.74657
vt 0.50561 0.69660
vt 0.77550 0.66393
vt 0.72690 0.67082
vt 0.72690 0.63303
vt 0.77550 0.63208
vt 0.72690 0.62954
vt 0.77550 0.62859
vt 0.77550 0.59675
vt 0.72690 0.59176
vt 1.62986 0.78033
vt 1.60461 0.80239
vt 1.62144 0.80300
vt 1.61109 0.76573
vt 0.60461 0.80239
vt 0.62986 0.78033
vt 0.62144 0.80300
vt 0.61109 0.76573
vt 0.65039 0.11607
vt 0.65039 0.13875
vt 0.64374 0.11608
vt 0.64375 0.13875
vt 1.64374 0.11608
vt 1.65039 0.13875
vt 1.65039 0.11607
vt 1.64375 0.13875
vt 1.56902 0.12599
vt 1.55081 0.16006
vt 1.56902 0.16006
vt 1.55080 0.12599
vt 0.16784 0.35300
vt 0.05185 0.29313
vt 0.16784 0.29313
vt 0.05185 0.35300
vt 1.65633 0.80191
vt 1.67334 0.77983
vt 0.67334 0.77983
vt 0.65633 0.80191
vt 0.28957 0.98488
vt 0.26220 0.93732
vt 0.28958 0.93733
vt 0.26219 0.98488
vt 0.32932 0.41684
vt 0.28175 0.38946
vt 0.32931 0.38946
vt 0.28176 0.41685
vt 0.61139 0.93610
vt 0.61139 0.96900
vt 0.58844 0.96900
vt 0.58843 0.93610
vt 0.56549 0.96901
vt 0.56548 0.93611
vt 1.56548 0.93611
vt 1.56549 0.96901
vt 1.58843 0.93610
vt 1.58844 0.96900
vt 1.61139 0.93610
vt 1.61139 0.96900
vt 0.66289 0.93779
vt 0.66289 0.96792
vt 0.61928 0.93865
vt 0.61929 0.97411
vt 0.66288 0.90766
vt 0.61928 0.90319
vt 0.55080 0.10793
vt 0.56902 0.10793
vt 0.56902 0.12599
vt 0.55080 0.12599
vt 1.55080 0.10793
vt 1.56902 0.10793
vt 0.20349 0.94457
vt 0.25346 0.91579
vt 0.25346 0.94456
vt 0.20349 0.91580
vt 0.16784 0.22066
vt 0.05185 0.22066
vt 0.25347 0.97333
vt 0.20350 0.97334
vt 0.64198 0.73838
vt 0.67288 0.74375
vt 0.67242 0.70767
vt 0.60462 0.74462
vt 0.64145 0.69656
vt 0.61077 0.70846
vt 1.64199 0.73838
vt 1.67288 0.74375
vt 1.60462 0.74462
vt 1.67243 0.70767
vt 1.61077 0.70846
vt 1.64145 0.69656
vt 0.85898 0.03034
vt 0.90653 0.00295
vt 0.90654 0.03033
vt 0.85897 0.00296
vt 0.86876 0.90475
vt 0.91632 0.93214
vt 0.86876 0.93213
vt 0.91632 0.90475
vt 0.61696 0.84588
vt 0.63007 0.84576
vt 1.61696 0.84588
vt 1.63007 0.84576
vt 0.66148 0.84547
vt 1.66148 0.84547
vt 0.23284 0.74839
vt 0.32140 0.74838
vt 0.32142 0.85558
vt 0.23286 0.85559
vt 0.50240 0.75583
vt 0.50241 0.86303
vt 0.41383 0.75585
vt 0.41385 0.86305
vt 0.55081 0.17417
vt 0.56902 0.16006
vt 0.56903 0.17417
vt 0.55080 0.16006
vt 1.55081 0.17417
vt 1.56903 0.17417
vt 0.97624 0.21073
vt 0.98212 0.27953
vt 0.93940 0.28004
vt 0.92256 0.21137
vt 1.97624 0.21073
vt 1.93940 0.28004
vt 1.98212 0.27953
vt 1.92257 0.21137
vt 0.92326 0.15443
vt 0.98211 0.15915
vt 0.96779 0.14330
vt 0.93399 0.14370
vt 0.43355 0.75218
vt 0.33067 0.69908
vt 0.43355 0.69908
vt 0.33067 0.75218
vt 1.98211 0.15915
vt 1.92326 0.15443
vt 1.96779 0.14330
vt 1.93399 0.14370
vt 0.39755 0.53057
vt 0.39755 0.55439
vt 0.37959 0.55439
vt 0.37959 0.53057
vt 0.59841 0.81258
vt 0.51166 0.69660
vt 0.59840 0.69659
vt 0.51168 0.81259
vt 0.43355 0.63480
vt 0.33067 0.63480
vt 0.33780 0.93133
vt 0.37759 0.93068
vt 0.37751 0.97914
vt 0.33067 0.97990
vt 0.34435 0.48754
vt 0.24077 0.47992
vt 0.31463 0.42145
vt 0.22795 0.42431
vt 0.32765 0.54503
vt 0.23236 0.53104
vt 0.51524 0.57708
vt 0.43977 0.52070
vt 0.54310 0.51018
vt 0.42851 0.57664
vt 0.52479 0.45318
vt 0.42992 0.46983
vt 0.99460 0.09956
vt 0.97638 0.09956
vt 1.97638 0.09956
vt 1.99460 0.09956
vt 0.33083 0.20612
vt 0.22801 0.38581
vt 0.22795 0.20616
vt 0.33089 0.38578
vt 0.50338 0.58104
vt 0.53908 0.58046
vt 0.53901 0.62393
vt 0.49699 0.62461
vt 0.08337 0.56753
vt 0.08339 0.77469
vt 0.02252 0.77470
vt 0.02250 0.56753
vt 0.77920 0.79855
vt 0.68288 0.79856
vt 0.68287 0.68256
vt 0.77919 0.68255
vt 0.58571 0.44331
vt 0.54621 0.49107
vt 0.54591 0.44285
vt 0.59305 0.49161
vt 0.10977 0.03742
vt 0.04048 0.21756
vt 0.05551 0.00295
vt 0.07822 0.21428
vt 0.00293 0.01032
vt 0.00339 0.20982
vt 0.73275 0.21379
vt 0.73156 0.24465
vt 0.72201 0.21379
vt 0.72321 0.24465
vt 0.16961 0.00294
vt 0.18514 0.21752
vt 0.11544 0.03754
vt 0.14739 0.21433
vt 0.22221 0.01020
vt 0.22221 0.20970
vt 0.99526 0.00295
vt 0.97637 0.00296
vt 1.99526 0.00295
vt 1.97637 0.00296
vt 0.95192 0.55320
vt 0.98136 0.50128
vt 0.98136 0.55320
vt 0.95192 0.50128
vt 1.98136 0.55320
vt 1.98136 0.50128
vt 1.95192 0.55320
vt 1.95192 0.50128
vt 0.90446 0.93622
vt 0.86903 0.97906
vt 0.86876 0.93580
vt 0.91105 0.97955
vt 0.65842 0.23347
vt 0.71636 0.23347
vt 0.65275 0.23714
vt 0.59482 0.23715
vt 0.94808 0.38879
vt 0.94809 0.55886
vt 0.89812 0.55887
vt 0.89811 0.38879
vt 0.99599 0.14259
vt 0.99599 0.17932
vt 0.98616 0.17932
vt 0.98616 0.14259
vt 1.99599 0.14259
vt 1.98616 0.17932
vt 1.99599 0.17932
vt 1.98616 0.14259
vt 0.33083 0.00295
vt 0.33083 0.20246
vt 0.22795 0.20246
vt 0.22795 0.00295
vt 0.79657 0.22228
vt 0.76906 0.40086
vt 0.76909 0.21378
vt 0.79654 0.39236
vt 0.74157 0.39235
vt 0.74160 0.22228
vt 0.81799 0.00295
vt 0.79049 0.18152
vt 0.79050 0.01145
vt 0.81797 0.19003
vt 0.84547 0.01145
vt 0.84546 0.18153
vt 0.83621 0.36912
vt 0.81008 0.19916
vt 0.83624 0.19107
vt 0.81006 0.36103
vt 0.86237 0.36104
vt 0.86240 0.19917
vt 0.69097 0.80222
vt 0.85283 0.80222
vt 0.86092 0.82838
vt 0.68287 0.82838
vt 0.85283 0.85454
vt 0.69097 0.85454
vt 0.95192 0.57455
vt 0.98136 0.57456
vt 1.98136 0.57456
vt 1.95192 0.57455
vt 0.97992 0.43225
vt 0.95338 0.43224
vt 1.97991 0.43225
vt 1.95338 0.43224
vt 0.86877 0.38512
vt 0.91632 0.38512
vt 0.84430 0.54998
vt 0.89186 0.54997
vt 0.65039 0.08899
vt 0.65039 0.11240
vt 0.64374 0.11240
vt 0.64374 0.08899
vt 1.65039 0.08899
vt 1.64374 0.11240
vt 1.65039 0.11240
vt 1.64374 0.08899
vt 0.41383 0.86672
vt 0.43472 0.88956
vt 0.41481 0.88956
vt 0.43571 0.86672
vt 0.66036 0.67906
vt 0.71928 0.47133
vt 0.72123 0.67849
vt 0.65842 0.47190
vt 0.44319 0.69294
vt 0.65034 0.63203
vt 0.65036 0.69290
vt 0.44318 0.63207
vt 0.68175 0.89951
vt 0.51166 0.84957
vt 0.68174 0.84954
vt 0.51167 0.89954
vt 0.35513 0.75631
vt 0.40670 0.92591
vt 0.35673 0.92638
vt 0.40510 0.75584
vt 0.07640 0.96327
vt 0.07640 0.99707
vt 0.04695 0.99707
vt 0.04695 0.96327
vt 0.14804 0.56754
vt 0.19988 0.68352
vt 0.14806 0.68353
vt 0.19986 0.56752
vt 1.07640 0.96327
vt 1.04695 0.99707
vt 1.07640 0.99707
vt 1.04695 0.96327
vt 0.09100 0.68354
vt 0.09098 0.56755
vt 0.85897 0.45949
vt 0.86040 0.38880
vt 0.88694 0.38879
vt 0.88842 0.45948
vt 1.86040 0.38880
vt 1.85897 0.45949
vt 1.88694 0.38879
vt 1.88842 0.45948
vt 0.11544 0.35666
vt 0.22264 0.35666
vt 0.22264 0.38508
vt 0.11544 0.38508
vt 0.22264 0.49646
vt 0.11544 0.46804
vt 0.22264 0.46804
vt 0.11544 0.49646
vt 0.58019 0.23348
vt 0.63813 0.23347
vt 0.65842 0.23714
vt 0.71636 0.23714
vt 0.88844 0.53160
vt 0.85899 0.51643
vt 0.88843 0.51643
vt 0.85900 0.53161
vt 1.88843 0.51643
vt 1.85899 0.51643
vt 1.88844 0.53160
vt 1.85899 0.53161
vt 0.96366 0.42620
vt 0.97117 0.39625
vt 0.97166 0.42860
vt 0.98186 0.39739
vt 0.96824 0.37311
vt 0.98120 0.36870
vt 0.95859 0.33246
vt 0.94213 0.33605
vt 0.96132 0.32351
vt 0.94582 0.30350
vt 0.96304 0.31348
vt 0.96816 0.28344
vt 0.98186 0.30050
vt 0.20349 0.90413
vt 0.23584 0.90462
vt 0.20588 0.91213
vt 0.23470 0.89394
vt 0.25898 0.90755
vt 0.26338 0.89459
vt 0.29962 0.91720
vt 0.29603 0.93366
vt 0.30857 0.91448
vt 0.32859 0.92998
vt 0.31860 0.91276
vt 0.34864 0.90764
vt 0.33158 0.89394
vt 0.48721 0.38056
vt 0.50610 0.36614
vt 0.50610 0.38055
vt 0.48721 0.36614
vt 1.50610 0.38055
vt 1.50610 0.36614
vt 1.48721 0.38056
vt 1.48721 0.36614
vt 0.78288 0.00295
vt 0.72203 0.21012
vt 0.72201 0.00296
vt 0.78290 0.21012
vt 0.90657 0.19220
vt 0.85901 0.19221
vt 0.91632 0.74289
vt 0.86876 0.74289
vt 0.34046 0.55300
vt 0.35842 0.53504
vt 0.35842 0.55300
vt 0.34046 0.52918
vt 0.40405 0.53606
vt 0.42201 0.55402
vt 0.40405 0.55402
vt 0.42201 0.53019
vt 0.94808 0.56253
vt 0.89812 0.73261
vt 0.89811 0.56254
vt 0.94809 0.73260
vt 0.78561 0.58714
vt 0.81308 0.76572
vt 0.78560 0.75722
vt 0.81310 0.57864
vt 0.84057 0.75722
vt 0.84058 0.58715
vt 0.75438 0.59010
vt 0.72693 0.41152
vt 0.75442 0.40302
vt 0.72690 0.58160
vt 0.78190 0.41153
vt 0.78187 0.58161
vt 0.05185 0.86630
vt 0.22180 0.89246
vt 0.05994 0.89246
vt 0.22990 0.86630
vt 0.05994 0.84014
vt 0.22180 0.84014
vt 0.80030 0.38037
vt 0.82643 0.55033
vt 0.80027 0.54223
vt 0.82646 0.37228
vt 0.85259 0.54224
vt 0.85261 0.38038
vt 0.55178 0.20785
vt 0.57268 0.17784
vt 0.57170 0.20785
vt 0.55080 0.17784
vt 0.58843 0.90320
vt 0.61138 0.90319
vt 0.56547 0.90320
vt 1.56547 0.90320
vt 1.58843 0.90320
vt 1.61138 0.90319
vt 0.97637 0.10323
vt 0.99459 0.13892
vt 0.97637 0.13892
vt 0.99459 0.10323
vt 0.64374 0.04672
vt 0.64908 0.04672
vt 1.64374 0.04672
vt 1.64908 0.04672
vt 0.15184 0.73007
vt 0.16030 0.75272
vt 0.13500 0.73071
vt 0.14155 0.76736
vt 1.13500 0.73071
vt 1.16030 0.75272
vt 1.15184 0.73007
vt 1.14155 0.76736
vt 1.50054 0.23927
vt 1.50053 0.27335
vt 1.48232 0.27335
vt 1.48232 0.23927
vt 0.99599 0.25609
vt 0.99599 0.28699
vt 0.98616 0.28699
vt 0.98616 0.25609
vt 1.98616 0.25609
vt 1.98616 0.28699
vt 1.99599 0.25609
vt 1.99599 0.28699
vt 0.18673 0.73110
vt 0.20378 0.75315
vt 0.04687 0.22360
vt 0.00359 0.24146
vt 0.00392 0.21684
vt 0.04658 0.24452
vt 0.04686 0.29148
vt 0.00348 0.27211
vt 0.04649 0.27057
vt 0.00392 0.29672
vt 1.18673 0.73110
vt 1.20378 0.75315
vt 0.11230 0.09135
vt 0.11230 0.10893
vt 0.10566 0.10893
vt 0.10566 0.09135
vt 1.11230 0.10893
vt 1.11230 0.09135
vt 1.10565 0.10893
vt 1.10565 0.09135
vt 0.48232 0.22122
vt 0.50054 0.22122
vt 0.50054 0.23927
vt 0.48232 0.23927
vt 0.17477 0.24852
vt 0.22301 0.22863
vt 0.22269 0.25194
vt 0.17515 0.22108
vt 0.22302 0.30286
vt 0.17467 0.28126
vt 0.22261 0.27955
vt 0.17516 0.30870
vt 1.48232 0.22122
vt 1.50054 0.22122
vt 0.04602 0.25754
vt 0.00293 0.25678
vt 0.22218 0.26747
vt 0.17414 0.26662
vt 0.20299 0.82531
vt 0.17250 0.79466
vt 0.20339 0.78923
vt 0.17203 0.83648
vt 0.14133 0.82463
vt 0.13512 0.78848
vt 1.17250 0.79466
vt 1.20339 0.78923
vt 1.13512 0.78848
vt 1.20299 0.82531
vt 1.14133 0.82463
vt 1.17203 0.83648
vt 0.99690 0.18299
vt 0.98736 0.21580
vt 0.98616 0.18299
vt 0.99571 0.21580
vt 0.16039 0.68730
vt 0.14729 0.68720
vt 1.16039 0.68730
vt 1.14729 0.68720
vt 0.19180 0.68753
vt 1.19180 0.68753
vt 0.22217 0.26402
vt 0.17414 0.26316
vt 0.00293 0.45860
vt 0.11013 0.47207
vt 0.02190 0.47976
vt 0.00293 0.37564
vt 0.11013 0.36217
vt 0.02190 0.35448
vt 0.48232 0.27335
vt 0.50053 0.27335
vt 0.48231 0.28746
vt 0.50053 0.28746
vt 1.48231 0.28746
vt 1.50053 0.28746
vt 0.96646 0.07220
vt 0.92951 0.00295
vt 0.97223 0.00339
vt 0.91278 0.07165
vt 1.92951 0.00295
vt 1.96646 0.07220
vt 1.97223 0.00339
vt 1.91278 0.07165
vt 0.91357 0.12859
vt 0.97241 0.12378
vt 0.95811 0.13965
vt 0.92431 0.13930
vt 1.91357 0.12859
vt 1.97241 0.12378
vt 1.95811 0.13965
vt 1.92431 0.13930
vt 0.97371 0.78010
vt 0.95530 0.80757
vt 0.95530 0.78010
vt 0.97826 0.80757
vt 0.93690 0.78010
vt 0.93235 0.80757
vt 1.93235 0.80757
vt 1.95530 0.80757
vt 1.93690 0.78010
vt 1.95530 0.78010
vt 1.97371 0.78010
vt 1.97826 0.80757
vt 0.36904 0.23083
vt 0.33560 0.01330
vt 0.36908 0.00295
vt 0.33556 0.22047
vt 0.40256 0.01332
vt 0.40252 0.22048
vt 0.40894 0.45200
vt 0.44243 0.23448
vt 0.44242 0.46236
vt 0.40895 0.24483
vt 0.47590 0.45200
vt 0.47591 0.24484
vt 0.42526 0.59927
vt 0.20838 0.59927
vt 0.21824 0.56741
vt 0.41540 0.56740
vt 0.41540 0.63113
vt 0.21824 0.63113
vt 0.48234 0.01280
vt 0.51418 0.21983
vt 0.48231 0.20996
vt 0.51421 0.00295
vt 0.54604 0.20998
vt 0.54607 0.01281
vt 0.64908 0.05634
vt 0.64907 0.08532
vt 0.64374 0.08532
vt 0.64374 0.05634
vt 1.64908 0.08532
vt 1.64908 0.05634
vt 1.64374 0.08532
vt 1.64374 0.05634
vt 0.10894 0.49580
vt 0.09098 0.47783
vt 0.10894 0.47783
vt 0.09098 0.49580
vt 0.73184 0.28075
vt 0.72201 0.24832
vt 0.73184 0.24832
vt 0.72201 0.28075
vt 1.73184 0.28075
vt 1.73184 0.24832
vt 1.72201 0.24832
vt 1.72201 0.28075
vt 0.41562 0.89970
vt 0.43319 0.90903
vt 0.41634 0.90903
vt 0.43392 0.89970
vt 0.65039 0.16434
vt 0.64374 0.14242
vt 0.65039 0.14242
vt 0.64374 0.16434
vt 1.65039 0.16434
vt 1.65039 0.14242
vt 1.64374 0.14242
vt 1.64374 0.16434
vt 0.95530 0.84364
vt 0.97826 0.84364
vt 0.93235 0.84364
vt 0.93235 0.87971
vt 0.95530 0.87971
vt 0.97826 0.87971
vt 1.93235 0.84364
vt 1.95530 0.84364
vt 1.93235 0.87971
vt 1.97826 0.84364
vt 1.95530 0.87971
vt 1.97826 0.87971
vt 0.48721 0.39939
vt 0.50610 0.39939
vt 1.50610 0.39939
vt 1.48721 0.39939
vt 0.04417 0.33550
vt 0.01453 0.30105
vt 0.04442 0.29658
vt 0.03389 0.34194
vt 0.00538 0.33009
vt 0.00293 0.31589
vt 1.04442 0.29658
vt 1.01453 0.30105
vt 1.04417 0.33550
vt 1.03389 0.34194
vt 1.00538 0.33009
vt 1.00293 0.31589
vt 0.49758 0.31978
vt 0.48535 0.29113
vt 0.49610 0.29113
vt 0.48388 0.31979
vt 0.97187 0.73628
vt 0.95530 0.73628
vt 0.93873 0.73628
vt 1.93873 0.73628
vt 1.95530 0.73628
vt 1.97187 0.73628
vt 0.13013 0.92069
vt 0.10811 0.89612
vt 0.12797 0.90277
vt 0.08609 0.92069
vt 0.08825 0.90277
vt 0.09027 0.95451
vt 0.12595 0.95451
vt 0.09027 0.96862
vt 0.12595 0.96862
vt 1.13013 0.92069
vt 1.10811 0.89612
vt 1.12797 0.90277
vt 1.08609 0.92069
vt 1.08825 0.90277
vt 1.09027 0.95451
vt 1.12595 0.95451
vt 1.09027 0.96862
vt 1.12595 0.96862
vt 0.48722 0.42962
vt 0.50611 0.42962
vt 1.48722 0.42962
vt 1.50611 0.42962
vt 0.64907 0.16800
vt 0.64908 0.19270
vt 0.64374 0.19270
vt 0.64374 0.16801
vt 1.64374 0.16801
vt 1.64374 0.19270
vt 1.64908 0.16800
vt 1.64908 0.19270
vt 0.11544 0.02225
vt 0.12476 0.00841
vt 0.12476 0.01676
vt 0.11544 0.00293
vt 0.96941 0.96244
vt 0.92256 0.96244
vt 0.92256 0.93500
vt 0.93293 0.92464
vt 0.96941 0.92465
vt 0.96941 0.92117
vt 0.93293 0.92118
vt 0.96941 0.88338
vt 0.92256 0.91082
vt 0.92256 0.88338
vt 0.55369 0.97414
vt 0.51166 0.97414
vt 0.51166 0.94952
vt 0.52251 0.93867
vt 0.55369 0.93867
vt 0.55369 0.90321
vt 0.51166 0.92782
vt 0.51166 0.90321
vt 0.23597 0.38947
vt 0.24395 0.39194
vt 0.65135 0.47584
vt 0.64434 0.47132
vt 0.62648 0.47134
vt 0.60461 0.49322
vt 0.60461 0.47134
vt 0.62648 0.49322
vt 0.64908 0.05039
vt 0.64374 0.05039
vt 1.64908 0.05039
vt 1.64375 0.05039
vt 0.11018 0.11519
vt 0.11779 0.11862
vt 0.22795 0.53766
vt 0.24591 0.53766
vt 0.22795 0.55562
vt 0.24591 0.55562
vt 0.48231 0.36247
vt 0.49916 0.36247
vn 0.9843 -0.1654 0.0000
vn 0.9528 0.3150 0.0000
vn -1.0000 0.0000 0.0000
vn 0.9606 -0.2677 0.0000
vn -0.9528 -0.3071 0.0000
vn 0.9921 -0.1417 0.0000
vn 0.9921 0.1417 0.0000
vn 0.0000 0.9921 0.1417
vn 0.0000 0.9921 -0.1417
vn 0.9606 -0.2835 0.0000
vn 0.9843 0.1811 0.0000
vn 1.0000 0.0000 0.0000
vn 0.2913 -0.9528 0.0000
vn 0.4567 -0.1181 0.8819
vn 0.4567 -0.1181 -0.8819
vn 0.9843 0.1890 0.0000
vn 0.6929 0.7244 0.0000
vn 0.6220 0.7795 0.0000
vn 0.2756 0.9134 0.2992
vn 0.2756 0.9134 -0.2992
vn 0.0000 -1.0000 0.0000
vn 0.0000 0.4567 0.8898
vn 0.0000 0.4567 -0.8898
vn 0.2520 0.8504 0.4646
vn 0.2520 0.8504 -0.4646
vn 0.0000 1.0000 0.0000
vn 0.0000 0.8504 0.5276
vn 0.0000 0.8504 -0.5276
vn 0.5039 0.8661 0.0000
vn 0.0866 0.2835 0.9528
vn 0.0866 0.2835 -0.9528
vn 0.1339 0.4488 -0.8819
vn 0.1339 0.4488 0.8819
vn -0.0866 -0.2835 0.9528
vn -0.0866 -0.2835 -0.9528
vn 0.0000 0.9843 -0.1811
vn 0.0000 0.9843 0.1811
vn -0.9606 0.2835 0.0000
vn -0.1339 -0.4488 0.8819
vn -0.1339 -0.4488 -0.8819
vn -0.2756 -0.9134 0.2992
vn -0.2756 -0.9134 -0.2992
vn 0.0000 0.9764 -0.2047
vn 0.0000 0.9764 0.2047
vn -0.9449 0.0000 0.3150
vn -0.2520 -0.8504 0.4646
vn -0.9449 0.0000 -0.3150
vn -0.2520 -0.8504 -0.4646
vn -0.1654 0.9843 0.0000
vn 0.0630 -0.1339 -0.9921
vn 0.0630 -0.1339 0.9921
vn 0.0000 0.9685 -0.2598
vn 0.0000 0.9685 0.2598
vn 0.1260 0.0000 -0.9921
vn 0.1260 0.0000 0.9921
vn -0.9764 0.1968 0.0000
vn 0.0000 -0.2047 -0.9764
vn 0.0000 -0.2047 0.9764
vn 0.3465 0.9370 0.0000
vn -0.1181 0.0000 0.9921
vn -0.1181 0.0000 -0.9921
vn -0.8740 -0.4882 0.0000
vn 0.0000 0.0000 1.0000
vn 0.0000 0.0000 -1.0000
vn 0.0000 -0.0394 1.0000
vn 0.0000 -0.0394 -1.0000
vn 0.0000 0.0866 1.0000
vn 0.0000 0.0866 -1.0000
vn 0.0000 -0.0236 1.0000
vn 0.0000 -0.0236 -1.0000
vn 0.1181 -0.9921 0.0000
vn -0.1417 0.0000 0.9921
vn 0.2835 0.9606 0.0000
vn 0.0630 1.0000 0.0000
vn -0.1024 0.0000 -0.9921
vn 0.3780 0.9213 0.0000
vn 0.0000 0.6535 -0.7559
vn 0.0000 0.6535 0.7559
vn -0.9921 -0.1260 0.0000
vn 0.2047 0.6772 0.7087
vn 0.2047 0.6772 -0.7087
vn -0.7480 0.6614 0.0000
vn -1.0000 0.0709 0.0000
vn 0.3228 -0.9449 0.0000
vn 1.0000 -0.0787 0.0000
vn 0.9528 0.3071 0.0000
vn 0.9764 -0.2283 0.0000
vn 0.0000 -0.7480 0.6693
vn 0.0000 -0.7480 -0.6693
vn -0.2047 -0.6772 -0.7087
vn -0.2047 -0.6772 0.7087
vn 0.7008 0.7165 0.0000
vn 0.0394 -0.0236 1.0000
vn 0.0394 -0.0236 -1.0000
vn 0.0000 -0.5039 0.8661
vn 0.0000 -0.5039 -0.8661
vn -0.2835 -0.9606 0.0000
vn 1.0000 0.0236 0.0000
vn -0.2047 0.9764 0.0000
vn -0.3465 0.9370 0.0000
vn 0.0000 0.5039 -0.8661
vn 0.0000 0.5039 0.8661
vn 0.0157 -1.0000 0.0000
vn 0.0236 -0.7087 0.7087
vn 0.0551 -0.7087 -0.7087
vn -0.3150 -0.9449 0.0000
vn -0.7795 -0.6299 0.0000
vn 0.0551 -1.0000 0.0000
vn 0.0000 -0.6535 0.7559
vn 0.0000 -0.6535 -0.7559
vn -0.3307 -0.9449 0.0000
vn 0.0000 -0.9764 0.2047
vn 0.0000 -0.9764 -0.2047
vn -0.4488 -0.8898 0.0000
vn -0.6142 -0.7874 0.0000
vn -0.9921 0.1102 0.0000
vn 0.0000 -0.8504 -0.5276
vn 0.0000 -0.8504 0.5276
vn 0.0000 -0.4567 -0.8898
vn 0.0000 -0.4567 0.8898
vn -0.2835 0.9606 0.0000
vn -0.5276 0.1496 0.8346
vn -0.5276 0.1496 -0.8346
vn -0.9685 -0.2520 0.0000
vn 0.0000 -0.9921 -0.1417
vn 0.0000 -0.9921 0.1417
vn -0.7638 -0.6457 0.0000
vn -0.9291 -0.3622 0.0000
o Body
usemtl tex_animal_lion_i033p001x
f 43/43/6 44/44/6 45/45/6
f 44/44/6 43/43/6 46/46/6
f 45/45/7 44/44/7 47/47/7
f 48/48/7 47/47/7 44/44/7
f 354/463/56 355/464/56 356/465/56
f 355/464/56 354/463/56 357/466/56
f 355/464/62 366/479/62 356/465/62
f 366/479/62 355/464/62 367/480/62
f 367/501/71 43/502/71 366/503/71
f 43/502/71 367/501/71 46/504/71
f 366/521/63 45/522/63 356/523/63
f 45/522/63 366/521/63 43/524/63
f 356/523/63 45/522/63 354/525/63
f 354/525/63 45/522/63 47/526/63
f 355/531/64 44/532/64 367/533/64
f 367/533/64 44/532/64 46/534/64
f 357/535/64 44/532/64 355/531/64
f 44/532/64 357/535/64 48/536/64
f 354/569/74 47/570/74 48/571/74
f 48/571/74 357/572/74 354/569/74
o Mane
usemtl tex_animal_lion_i033p001x
f 49/49/8 50/50/8 51/51/8
f 51/51/8 50/50/8 52/52/8
f 53/53/9 54/54/9 55/55/9
f 56/56/9 53/53/9 55/55/9
f 111/117/19 112/118/19 113/119/19
f 112/118/19 111/117/19 114/120/19
f 115/121/20 112/118/20 116/122/20
f 112/118/20 114/120/20 116/122/20
f 149/141/22 150/142/22 49/143/22
f 49/143/22 150/142/22 50/144/22
f 151/145/23 56/146/23 152/147/23
f 56/146/23 55/148/23 152/147/23
f 153/149/24 154/150/24 155/151/24
f 154/150/24 153/149/24 156/152/24
f 157/153/25 158/154/25 159/155/25
f 158/154/25 160/156/25 159/155/25
f 163/161/27 164/162/27 165/163/27
f 163/161/27 165/163/27 166/164/27
f 167/165/28 168/166/28 169/167/28
f 170/168/28 169/167/28 168/166/28
f 173/171/30 174/172/30 175/173/30
f 174/172/30 173/171/30 176/174/30
f 177/175/31 178/176/31 179/177/31
f 178/176/31 177/175/31 180/178/31
f 181/179/3 182/180/3 183/181/3
f 182/180/3 181/179/3 164/182/3
f 183/181/3 184/183/3 181/179/3
f 163/184/3 182/180/3 164/182/3
f 183/181/3 149/185/3 184/183/3
f 182/180/3 163/184/3 185/186/3
f 49/187/3 184/183/3 149/185/3
f 51/188/3 185/186/3 163/184/3
f 184/183/3 49/187/3 186/189/3
f 163/184/3 187/190/3 51/188/3
f 49/187/3 51/188/3 187/190/3
f 49/187/3 187/190/3 186/189/3
f 168/191/3 188/192/3 189/193/3
f 189/193/3 53/194/3 168/191/3
f 188/192/3 168/191/3 167/195/3
f 168/191/3 53/194/3 190/196/3
f 167/195/3 191/197/3 188/192/3
f 56/198/3 190/196/3 53/194/3
f 191/197/3 192/199/3 188/192/3
f 190/196/3 56/198/3 193/200/3
f 194/201/3 192/199/3 191/197/3
f 56/198/3 194/201/3 193/200/3
f 151/202/3 192/199/3 194/201/3
f 194/201/3 56/198/3 151/202/3
f 157/203/32 195/204/32 196/205/32
f 157/203/32 159/206/32 195/204/32
f 153/207/33 155/208/33 197/209/33
f 197/209/33 198/210/33 153/207/33
f 207/219/3 165/220/3 208/221/3
f 209/222/3 165/220/3 207/219/3
f 165/220/3 209/222/3 210/223/3
f 165/220/3 210/223/3 166/224/3
f 169/225/3 211/226/3 212/227/3
f 169/225/3 213/228/3 211/226/3
f 213/228/3 169/225/3 214/229/3
f 170/230/3 214/229/3 169/225/3
f 215/231/19 216/232/19 217/233/19
f 216/232/19 215/231/19 218/234/19
f 216/232/20 218/234/20 219/235/20
f 220/236/20 216/232/20 219/235/20
f 221/237/34 173/171/34 222/238/34
f 173/171/34 221/237/34 176/174/34
f 178/176/35 223/239/35 224/240/35
f 178/176/35 180/178/35 223/239/35
f 225/241/24 226/242/24 227/243/24
f 226/242/24 225/241/24 228/244/24
f 229/245/25 230/246/25 231/247/25
f 232/248/25 229/245/25 231/247/25
f 233/249/31 234/250/31 235/251/31
f 234/250/31 233/249/31 236/252/31
f 239/257/30 240/258/30 241/259/30
f 240/258/30 239/257/30 242/260/30
f 245/265/38 112/266/38 246/267/38
f 112/266/38 245/265/38 113/268/38
f 115/269/38 246/267/38 112/266/38
f 246/267/38 115/269/38 247/270/38
f 173/271/38 224/272/38 222/273/38
f 173/271/38 178/274/38 224/272/38
f 175/275/38 178/274/38 173/271/38
f 175/275/38 179/276/38 178/274/38
f 248/277/39 249/278/39 250/279/39
f 249/278/39 248/277/39 251/280/39
f 252/281/40 253/282/40 254/283/40
f 253/282/40 252/281/40 255/284/40
f 232/285/32 256/286/32 257/287/32
f 232/285/32 231/288/32 256/286/32
f 258/289/33 227/290/33 259/291/33
f 227/290/33 258/289/33 225/292/33
f 158/293/38 250/294/38 249/295/38
f 250/294/38 158/293/38 157/296/38
f 157/296/38 260/297/38 250/294/38
f 260/297/38 157/296/38 196/298/38
f 261/299/38 197/300/38 155/301/38
f 155/301/38 254/302/38 261/299/38
f 254/302/38 155/301/38 154/303/38
f 154/303/38 252/304/38 254/302/38
f 245/305/41 262/306/41 263/307/41
f 262/306/41 245/305/41 246/308/41
f 262/306/42 247/309/42 264/310/42
f 247/309/42 262/306/42 246/308/42
f 164/162/43 181/311/43 208/312/43
f 164/162/43 208/312/43 165/163/43
f 191/313/44 167/165/44 212/314/44
f 169/167/44 212/314/44 167/165/44
f 267/319/46 250/320/46 260/321/46
f 250/320/46 267/319/46 248/322/46
f 254/327/48 270/328/48 261/329/48
f 270/328/48 254/327/48 253/330/48
f 241/259/34 271/331/34 272/332/34
f 271/331/34 241/259/34 240/258/34
f 273/333/35 235/251/35 274/334/35
f 235/251/35 273/333/35 233/249/35
f 291/363/56 292/364/56 293/365/56
f 292/364/56 291/363/56 294/366/56
f 299/371/39 300/372/39 301/373/39
f 300/372/39 299/371/39 302/374/39
f 303/375/40 304/376/40 305/377/40
f 304/376/40 303/375/40 306/378/40
f 318/403/41 319/404/41 320/405/41
f 319/404/41 318/403/41 321/406/41
f 292/364/62 322/407/62 293/365/62
f 322/407/62 292/364/62 323/408/62
f 324/409/42 318/403/42 320/405/42
f 318/403/42 324/409/42 325/410/42
f 332/423/46 301/424/46 333/425/46
f 301/424/46 332/423/46 299/426/46
f 334/427/48 305/428/48 304/429/48
f 305/428/48 334/427/48 335/430/48
f 323/475/71 364/476/71 322/477/71
f 364/476/71 323/475/71 365/478/71
f 292/485/64 369/486/64 323/487/64
f 323/487/64 369/486/64 365/488/64
f 294/489/64 369/486/64 292/485/64
f 369/486/64 294/489/64 370/490/64
f 322/491/63 371/492/63 293/493/63
f 371/492/63 322/491/63 364/494/63
f 291/495/63 293/493/63 371/492/63
f 291/495/63 371/492/63 372/496/63
f 179/509/73 175/510/73 174/511/73
f 179/509/73 174/511/73 177/512/73
f 291/513/74 372/514/74 370/515/74
f 294/516/74 291/513/74 370/515/74
f 185/537/77 52/52/77 381/538/77
f 51/51/77 52/52/77 185/537/77
f 189/539/78 382/540/78 54/54/78
f 53/53/78 189/539/78 54/54/78
f 251/553/80 158/154/80 249/554/80
f 158/154/80 251/553/80 160/156/80
f 156/152/81 252/555/81 154/150/81
f 252/555/81 156/152/81 255/556/81
f 236/557/73 242/558/73 239/559/73
f 236/557/73 239/559/73 234/560/73
f 319/573/38 216/574/38 320/575/38
f 216/574/38 319/573/38 217/576/38
f 220/577/38 320/575/38 216/574/38
f 320/575/38 220/577/38 324/578/38
f 240/579/38 273/580/38 271/581/38
f 273/580/38 240/579/38 233/582/38
f 242/583/38 233/582/38 240/579/38
f 242/583/38 236/584/38 233/582/38
f 232/585/38 333/586/38 301/587/38
f 333/586/38 232/585/38 257/588/38
f 301/587/38 229/589/38 232/585/38
f 229/589/38 301/587/38 300/590/38
f 335/591/38 259/592/38 227/593/38
f 227/593/38 305/594/38 335/591/38
f 305/594/38 227/593/38 226/595/38
f 226/595/38 303/596/38 305/594/38
f 302/605/80 229/245/80 300/606/80
f 229/245/80 302/605/80 230/246/80
f 306/607/81 226/242/81 228/244/81
f 226/242/81 306/607/81 303/608/81
f 263/621/63 113/622/63 245/623/63
f 113/622/63 263/621/63 111/624/63
f 115/625/64 264/626/64 247/627/64
f 264/626/64 115/625/64 116/628/64
f 324/629/64 219/630/64 325/631/64
f 219/630/64 324/629/64 220/632/64
f 215/633/63 319/634/63 321/635/63
f 319/634/63 215/633/63 217/636/63
f 369/641/85 372/642/85 371/643/85
f 372/642/85 369/641/85 370/644/85
f 364/649/86 369/641/86 371/643/86
f 369/641/86 364/649/86 365/650/86
f 260/321/90 195/667/90 267/319/90
f 195/667/90 260/321/90 196/668/90
f 261/329/91 198/669/91 197/670/91
f 198/669/91 261/329/91 270/328/91
f 418/705/95 149/706/95 183/707/95
f 149/706/95 418/705/95 150/708/95
f 192/709/96 151/710/96 419/711/96
f 151/710/96 152/712/96 419/711/96
f 222/713/97 223/714/97 221/715/97
f 222/713/97 224/716/97 223/714/97
f 257/717/90 332/423/90 333/425/90
f 332/423/90 257/717/90 256/718/90
f 259/719/91 334/427/91 258/720/91
f 334/427/91 259/719/91 335/430/91
f 271/729/97 274/730/97 272/731/97
f 271/729/97 273/732/97 274/730/97
f 274/733/10 241/734/10 272/735/10
f 241/734/10 274/733/10 235/736/10
f 235/736/10 239/737/10 241/734/10
f 239/737/10 235/736/10 234/738/10
f 218/739/10 321/740/10 318/741/10
f 321/740/10 218/739/10 215/742/10
f 218/739/10 318/741/10 325/743/10
f 325/743/10 219/744/10 218/739/10
f 299/745/10 230/746/10 302/747/10
f 230/746/10 299/745/10 231/748/10
f 231/748/10 299/745/10 332/749/10
f 231/748/10 332/749/10 256/750/10
f 334/751/10 225/752/10 258/753/10
f 225/752/10 334/751/10 304/754/10
f 304/754/10 228/755/10 225/752/10
f 228/755/10 304/754/10 306/756/10
f 181/311/101 207/771/101 208/312/101
f 184/772/101 207/771/101 181/311/101
f 191/313/102 212/314/102 211/773/102
f 194/774/102 191/313/102 211/773/102
f 114/897/10 263/898/10 262/899/10
f 263/898/10 114/897/10 111/900/10
f 114/897/10 262/899/10 264/901/10
f 264/901/10 116/902/10 114/897/10
f 221/903/10 180/904/10 176/905/10
f 221/903/10 223/906/10 180/904/10
f 180/904/10 174/907/10 176/905/10
f 174/907/10 180/904/10 177/908/10
f 159/909/10 248/910/10 267/911/10
f 159/909/10 267/911/10 195/912/10
f 160/913/10 248/910/10 159/909/10
f 248/910/10 160/913/10 251/914/10
f 270/915/10 153/916/10 198/917/10
f 153/916/10 270/915/10 253/918/10
f 253/918/10 156/919/10 153/916/10
f 156/919/10 253/918/10 255/920/10
f 187/921/109 163/922/109 166/923/109
f 187/921/109 166/923/109 210/924/109
f 168/925/110 190/926/110 170/927/110
f 214/928/110 170/927/110 190/926/110
f 473/965/112 183/707/112 182/966/112
f 183/707/112 473/965/112 418/705/112
f 188/967/113 192/709/113 474/968/113
f 192/709/113 419/711/113 474/968/113
f 52/969/12 473/970/12 381/971/12
f 473/970/12 52/969/12 50/972/12
f 50/972/12 150/973/12 473/970/12
f 473/970/12 150/973/12 418/974/12
f 382/975/12 474/976/12 54/977/12
f 474/976/12 55/978/12 54/977/12
f 55/978/12 474/976/12 152/979/12
f 152/979/12 474/976/12 419/980/12
f 182/966/117 381/1009/117 473/965/117
f 185/1010/117 381/1009/117 182/966/117
f 188/967/118 474/968/118 382/1011/118
f 189/1012/118 188/967/118 382/1011/118
f 184/1013/119 186/1014/119 209/1015/119
f 184/1013/119 209/1015/119 207/1016/119
f 211/1017/120 213/1018/120 194/1019/120
f 193/1020/120 194/1019/120 213/1018/120
f 186/1051/125 210/924/125 209/1052/125
f 187/921/125 210/924/125 186/1051/125
f 190/926/126 193/1053/126 214/928/126
f 193/1053/126 213/1054/126 214/928/126
o Head
usemtl tex_animal_lion_i033p001x
f 39/39/5 40/40/5 41/41/5
f 40/40/5 39/39/5 42/42/5
f 83/79/3 84/80/3 85/81/3
f 84/80/3 83/79/3 86/82/3
f 87/83/3 88/84/3 89/85/3
f 87/83/3 90/86/3 88/84/3
f 93/91/3 94/92/3 95/93/3
f 94/92/3 93/91/3 96/94/3
f 97/95/3 98/96/3 99/97/3
f 97/95/3 100/98/3 98/96/3
f 101/99/3 102/100/3 103/101/3
f 102/100/3 101/99/3 104/102/3
f 101/99/3 105/103/3 104/102/3
f 104/102/3 105/103/3 106/104/3
f 101/157/26 161/158/26 162/159/26
f 105/160/26 101/157/26 162/159/26
f 237/253/36 238/254/36 95/255/36
f 93/256/36 95/255/36 238/254/36
f 100/261/37 97/262/37 243/263/37
f 100/261/37 243/263/37 244/264/37
f 84/351/52 86/352/52 283/353/52
f 284/354/52 283/353/52 86/352/52
f 285/355/53 90/356/53 87/357/53
f 90/356/53 285/355/53 286/358/53
f 101/437/67 103/438/67 340/439/67
f 101/437/67 340/439/67 161/440/67
f 105/441/68 162/442/68 106/443/68
f 106/443/68 162/442/68 341/444/68
f 41/471/26 362/472/26 363/473/26
f 39/474/26 41/471/26 363/473/26
f 95/561/63 94/562/63 388/563/63
f 95/561/63 388/563/63 237/564/63
f 100/565/64 389/566/64 98/567/64
f 389/566/64 100/565/64 244/568/64
f 86/609/63 83/610/63 392/611/63
f 86/609/63 392/611/63 284/612/63
f 90/613/64 393/614/64 88/615/64
f 393/614/64 90/613/64 286/616/64
f 340/659/88 103/660/88 102/661/88
f 102/661/88 402/662/88 340/659/88
f 106/663/89 403/664/89 104/665/89
f 403/664/89 106/663/89 341/666/89
f 362/721/63 40/722/63 420/723/63
f 40/722/63 362/721/63 41/724/63
f 42/725/64 363/726/64 421/727/64
f 39/728/64 363/726/64 42/725/64
f 104/665/21 402/662/21 102/661/21
f 402/662/21 104/665/21 403/664/21
f 96/787/64 93/788/64 238/789/64
f 96/787/64 238/789/64 434/790/64
f 437/791/63 243/792/63 99/793/63
f 97/794/63 99/793/63 243/792/63
f 85/807/64 84/808/64 283/809/64
f 85/807/64 283/809/64 444/810/64
f 87/811/63 89/812/63 285/813/63
f 445/814/63 285/813/63 89/812/63
f 402/857/12 161/858/12 340/859/12
f 403/860/12 161/858/12 402/857/12
f 161/858/12 403/860/12 162/861/12
f 162/861/12 403/860/12 341/862/12
f 42/929/21 420/930/21 40/931/21
f 420/930/21 42/929/21 421/932/21
f 96/933/21 388/934/21 94/935/21
f 388/934/21 96/933/21 434/936/21
f 99/937/21 98/938/21 389/939/21
f 99/937/21 389/939/21 437/940/21
f 85/945/21 392/946/21 83/947/21
f 392/946/21 85/945/21 444/948/21
f 89/949/21 88/950/21 393/951/21
f 89/949/21 393/951/21 445/952/21
f 420/1057/12 421/1058/12 362/1059/12
f 421/1058/12 363/1060/12 362/1059/12
o Jaw
usemtl tex_animal_lion_i033p001x
f 9/9/3 10/10/3 11/11/3
f 10/10/3 9/9/3 12/12/3
f 12/12/3 9/9/3 13/13/3
f 12/12/3 13/13/3 14/14/3
f 14/14/3 15/15/3 12/12/3
f 16/16/3 15/15/3 14/14/3
f 15/15/3 16/16/3 17/17/3
f 17/17/3 16/16/3 18/18/3
f 19/19/3 20/20/3 21/21/3
f 20/20/3 19/19/3 22/22/3
f 22/22/3 19/19/3 23/23/3
f 24/24/3 22/22/3 23/23/3
f 22/22/3 24/24/3 25/25/3
f 25/25/3 24/24/3 26/26/3
f 9/335/49 275/336/49 276/337/49
f 13/338/49 9/335/49 276/337/49
f 277/339/49 13/338/49 276/337/49
f 13/338/49 277/339/49 14/340/49
f 277/339/49 16/341/49 14/340/49
f 16/341/49 277/339/49 278/342/49
f 23/391/49 19/392/49 313/393/49
f 19/392/49 314/394/49 313/393/49
f 313/393/49 24/395/49 23/391/49
f 24/395/49 313/393/49 315/396/49
f 9/481/72 11/482/72 368/483/72
f 368/483/72 275/484/72 9/481/72
f 19/505/72 21/506/72 377/507/72
f 377/507/72 314/508/72 19/505/72
f 16/517/75 378/518/75 18/519/75
f 378/518/75 16/517/75 278/520/75
f 24/549/75 387/550/75 26/551/75
f 387/550/75 24/549/75 315/552/75
f 21/797/103 440/798/103 377/799/103
f 440/798/103 21/797/103 20/800/103
f 26/801/103 441/802/103 25/803/103
f 441/802/103 26/801/103 387/804/103
f 447/819/103 11/820/103 10/821/103
f 11/820/103 447/819/103 368/822/103
f 18/823/103 448/824/103 17/825/103
f 448/824/103 18/823/103 378/826/103
f 25/803/104 441/802/104 22/829/104
f 441/802/104 450/830/104 22/829/104
f 17/825/104 448/824/104 15/831/104
f 448/824/104 451/832/104 15/831/104
f 22/829/105 450/830/105 20/800/105
f 450/830/105 440/798/105 20/800/105
f 12/855/105 447/819/105 10/821/105
f 447/819/105 12/855/105 460/856/105
f 12/855/108 451/832/108 460/856/108
f 451/832/108 12/855/108 15/831/108
f 275/1025/12 368/1026/12 447/1027/12
f 460/1028/12 275/1025/12 447/1027/12
f 275/1025/12 460/1028/12 276/1029/12
f 460/1028/12 277/1030/12 276/1029/12
f 277/1030/12 460/1028/12 451/1031/12
f 451/1031/12 278/1032/12 277/1030/12
f 448/1033/12 278/1032/12 451/1031/12
f 278/1032/12 448/1033/12 378/1034/12
f 314/1035/12 377/1036/12 440/1037/12
f 450/1038/12 314/1035/12 440/1037/12
f 314/1035/12 450/1038/12 313/1039/12
f 450/1038/12 315/1040/12 313/1039/12
f 441/1041/12 315/1040/12 450/1038/12
f 315/1040/12 441/1041/12 387/1042/12
o Tail
usemtl tex_animal_lion_i033p001x
f 1/1/1 2/2/1 3/3/1
f 1/1/1 4/4/1 2/2/1
f 5/5/2 6/6/2 7/7/2
f 8/8/2 6/6/2 5/5/2
f 91/87/13 4/88/13 1/89/13
f 91/87/13 92/90/13 4/88/13
f 107/105/14 91/106/14 1/107/14
f 107/105/14 1/107/14 3/108/14
f 4/109/15 108/110/15 2/111/15
f 108/110/15 4/109/15 92/112/15
f 109/113/17 5/5/17 110/114/17
f 5/5/17 109/113/17 8/8/17
f 108/115/18 107/116/18 3/3/18
f 108/115/18 3/3/18 2/2/18
f 171/169/29 172/170/29 7/7/29
f 171/169/29 7/7/29 6/6/29
f 110/527/76 379/528/76 109/529/76
f 109/529/76 379/528/76 380/530/76
f 394/617/84 395/618/84 396/619/84
f 394/617/84 397/620/84 395/618/84
f 379/679/93 110/680/93 406/681/93
f 407/682/93 406/681/93 110/680/93
f 5/683/93 407/682/93 110/680/93
f 407/682/93 5/683/93 408/684/93
f 409/685/93 408/684/93 5/683/93
f 5/683/93 7/686/93 409/685/93
f 7/686/93 410/687/93 409/685/93
f 172/688/93 410/687/93 7/686/93
f 410/687/93 172/688/93 396/689/93
f 411/690/93 396/689/93 172/688/93
f 396/689/93 411/690/93 394/691/93
f 412/692/94 109/693/94 380/694/94
f 109/693/94 412/692/94 413/695/94
f 413/695/94 8/696/94 109/693/94
f 8/696/94 413/695/94 414/697/94
f 415/698/94 8/696/94 414/697/94
f 8/696/94 415/698/94 6/699/94
f 416/700/94 6/699/94 415/698/94
f 6/699/94 416/700/94 171/701/94
f 171/701/94 416/700/94 395/702/94
f 395/702/94 417/703/94 171/701/94
f 417/703/94 395/702/94 397/704/94
f 171/757/99 411/758/99 172/759/99
f 411/758/99 171/757/99 417/760/99
f 413/845/106 406/846/106 407/847/106
f 406/846/106 413/845/106 412/848/106
f 410/941/111 415/942/111 409/943/111
f 410/941/111 416/944/111 415/942/111
f 395/618/114 410/941/114 396/619/114
f 410/941/114 395/618/114 416/944/114
f 408/981/115 413/982/115 407/983/115
f 414/984/115 413/982/115 408/981/115
f 107/1021/121 380/1022/121 379/1023/121
f 107/1021/121 108/1024/121 380/1022/121
f 91/106/122 379/1043/122 406/1044/122
f 91/106/122 107/105/122 379/1043/122
f 380/1045/123 92/112/123 412/1046/123
f 92/112/123 380/1045/123 108/110/123
f 411/1047/124 397/1048/124 394/1049/124
f 411/1047/124 417/1050/124 397/1048/124
f 92/90/127 91/87/127 406/1055/127
f 92/90/127 406/1055/127 412/1056/127
f 415/1061/128 408/981/128 409/1062/128
f 408/981/128 415/1061/128 414/984/128
o FrontL
usemtl tex_animal_lion_i033p001x
f 117/123/21 118/124/21 119/125/21
f 118/124/21 120/126/21 119/125/21
f 120/126/21 118/124/21 121/127/21
f 122/128/21 119/125/21 120/126/21
f 119/125/21 122/128/21 123/129/21
f 124/130/21 123/129/21 122/128/21
f 123/129/21 124/130/21 125/131/21
f 199/211/21 200/212/21 201/213/21
f 200/212/21 199/211/21 202/214/21
f 265/315/45 118/316/45 117/317/45
f 266/318/45 118/316/45 265/315/45
f 265/397/60 117/398/60 119/399/60
f 265/397/60 119/399/60 316/400/60
f 342/445/63 123/446/63 125/447/63
f 123/446/63 342/445/63 343/448/63
f 346/451/69 201/452/69 200/453/69
f 346/451/69 200/453/69 347/454/69
f 346/451/63 347/454/63 350/459/63
f 350/459/63 351/460/63 346/451/63
f 351/460/63 350/459/63 352/461/63
f 352/461/63 350/459/63 353/462/63
f 343/448/55 119/399/55 123/446/55
f 119/399/55 343/448/55 316/400/55
f 118/316/47 375/497/47 121/498/47
f 375/497/47 118/316/47 266/318/47
f 383/541/79 346/542/79 351/543/79
f 346/542/79 383/541/79 384/544/79
f 351/543/82 390/597/82 383/541/82
f 390/597/82 351/543/82 352/598/82
f 201/601/83 384/544/83 199/602/83
f 384/544/83 201/601/83 346/542/83
f 352/637/26 353/638/26 398/639/26
f 390/640/26 352/637/26 398/639/26
f 347/651/87 200/652/87 202/653/87
f 202/653/87 400/654/87 347/651/87
f 398/671/92 350/672/92 404/673/92
f 350/672/92 398/671/92 353/674/92
f 404/673/98 347/651/98 400/654/98
f 347/651/98 404/673/98 350/672/98
f 124/767/12 342/768/12 125/769/12
f 342/768/12 124/767/12 426/770/12
f 121/815/61 375/816/61 446/817/61
f 121/815/61 446/817/61 120/818/61
f 122/863/64 461/864/64 124/865/64
f 461/864/64 426/866/64 124/865/64
f 122/863/54 120/818/54 446/817/54
f 446/817/54 461/864/54 122/863/54
f 384/869/70 202/870/70 199/871/70
f 202/870/70 384/869/70 400/872/70
f 384/869/64 404/877/64 400/872/64
f 404/877/64 384/869/64 383/878/64
f 390/879/64 404/877/64 383/878/64
f 404/877/64 390/879/64 398/880/64
f 316/991/26 266/992/26 265/993/26
f 266/992/26 316/991/26 446/994/26
f 266/992/26 446/994/26 375/995/26
f 316/991/26 461/996/26 446/994/26
f 461/996/26 316/991/26 343/997/26
f 343/997/26 426/998/26 461/996/26
f 426/998/26 343/997/26 342/999/26
o FrontR
usemtl tex_animal_lion_i033p001x
f 133/133/21 134/135/21 135/136/21
f 133/133/21 136/134/21 134/135/21
f 136/134/21 133/133/21 137/132/21
f 134/135/21 136/134/21 138/137/21
f 139/138/21 138/137/21 136/134/21
f 138/137/21 139/138/21 140/139/21
f 140/139/21 139/138/21 141/140/21
f 203/215/21 204/216/21 205/217/21
f 203/215/21 205/217/21 206/218/21
f 268/323/47 137/324/47 133/325/47
f 269/326/47 268/323/47 133/325/47
f 268/401/61 136/359/61 137/402/61
f 136/359/61 268/401/61 317/362/61
f 139/361/64 344/449/64 141/450/64
f 139/361/64 345/360/64 344/449/64
f 348/455/70 205/456/70 204/457/70
f 205/456/70 348/455/70 349/458/70
f 348/455/64 358/467/64 359/468/64
f 348/455/64 359/468/64 349/458/64
f 359/468/64 358/467/64 360/469/64
f 359/468/64 360/469/64 361/470/64
f 136/359/54 345/360/54 139/361/54
f 317/362/54 345/360/54 136/359/54
f 269/326/45 133/325/45 135/499/45
f 376/500/45 269/326/45 135/499/45
f 358/545/79 348/546/79 385/547/79
f 385/547/79 348/546/79 386/548/79
f 358/545/82 385/547/82 360/599/82
f 391/600/82 360/599/82 385/547/82
f 386/548/83 204/603/83 203/604/83
f 348/546/83 204/603/83 386/548/83
f 360/645/26 399/646/26 361/647/26
f 391/648/26 399/646/26 360/645/26
f 205/655/87 349/656/87 206/657/87
f 206/657/87 349/656/87 401/658/87
f 405/675/92 359/676/92 399/677/92
f 361/678/92 399/677/92 359/676/92
f 349/656/98 405/675/98 401/658/98
f 405/675/98 349/656/98 359/676/98
f 140/75/12 344/76/12 427/78/12
f 344/76/12 140/75/12 141/77/12
f 449/783/60 135/827/60 134/786/60
f 135/827/60 449/783/60 376/828/60
f 138/785/63 140/867/63 462/784/63
f 462/784/63 140/867/63 427/868/63
f 138/785/55 449/783/55 134/786/55
f 449/783/55 138/785/55 462/784/55
f 206/873/69 386/874/69 203/875/69
f 386/874/69 206/873/69 401/876/69
f 405/881/63 386/874/63 401/876/63
f 386/874/63 405/881/63 385/882/63
f 405/881/63 391/883/63 385/882/63
f 391/883/63 405/881/63 399/884/63
f 269/1001/26 376/1004/26 449/1003/26
f 317/1000/26 269/1001/26 449/1003/26
f 269/1001/26 317/1000/26 268/1002/26
f 449/1003/26 462/1005/26 317/1000/26
f 317/1000/26 462/1005/26 345/1006/26
f 462/1005/26 344/1008/26 345/1006/26
f 344/1008/26 462/1005/26 427/1007/26
o RearL
usemtl tex_animal_lion_i033p001x
f 27/27/4 28/28/4 29/29/4
f 29/29/4 28/28/4 30/30/4
f 31/31/4 28/28/4 27/27/4
f 28/28/4 31/31/4 32/32/4
f 57/57/10 58/58/10 59/59/10
f 58/58/10 57/57/10 60/60/10
f 60/60/10 61/61/10 58/58/10
f 61/61/10 62/62/10 58/58/10
f 59/59/11 58/58/11 69/69/11
f 58/58/11 70/70/11 69/69/11
f 58/58/11 62/62/11 70/70/11
f 62/62/11 71/71/11 70/70/11
f 75/75/12 76/76/12 77/77/12
f 76/76/12 75/75/12 78/78/12
f 60/60/16 57/57/16 30/30/16
f 28/28/16 60/60/16 30/30/16
f 32/32/16 60/60/16 28/28/16
f 60/60/16 32/32/16 61/61/16
f 126/132/21 127/133/21 128/134/21
f 127/133/21 129/135/21 128/134/21
f 129/135/21 127/133/21 130/136/21
f 131/137/21 128/134/21 129/135/21
f 128/134/21 131/137/21 132/138/21
f 75/139/21 132/138/21 131/137/21
f 132/138/21 75/139/21 77/140/21
f 30/347/51 281/348/51 282/349/51
f 281/348/51 30/347/51 57/350/51
f 128/359/55 289/360/55 290/362/55
f 289/360/55 128/359/55 132/361/55
f 281/348/58 297/369/58 298/370/58
f 298/370/58 282/349/58 281/348/58
f 307/379/59 69/380/59 70/381/59
f 308/382/59 307/379/59 70/381/59
f 308/382/59 70/381/59 71/383/59
f 309/384/59 308/382/59 71/383/59
f 326/411/63 297/369/63 281/348/63
f 297/369/63 326/411/63 327/412/63
f 326/411/63 281/348/63 57/350/63
f 328/413/63 327/412/63 326/411/63
f 326/411/63 57/350/63 59/414/63
f 326/411/63 307/415/63 328/413/63
f 69/416/63 326/411/63 59/414/63
f 326/411/63 69/416/63 307/415/63
f 29/431/65 282/349/65 336/432/65
f 282/349/65 29/431/65 30/347/65
f 336/432/65 298/370/65 338/435/65
f 298/370/65 336/432/65 282/349/65
f 132/361/63 76/449/63 289/360/63
f 76/449/63 132/361/63 77/450/63
f 374/401/60 126/402/60 128/359/60
f 374/401/60 128/359/60 290/362/60
f 422/761/100 328/762/100 308/382/100
f 328/762/100 307/379/100 308/382/100
f 422/761/100 308/382/100 309/384/100
f 423/763/100 422/761/100 309/384/100
f 428/775/50 429/776/50 32/777/50
f 429/776/50 61/778/50 32/777/50
f 432/783/54 433/784/54 131/785/54
f 131/785/54 129/786/54 432/783/54
f 429/776/57 438/795/57 439/796/57
f 438/795/57 429/776/57 428/775/57
f 423/833/64 452/834/64 453/835/64
f 452/834/64 439/796/64 453/835/64
f 452/834/64 423/833/64 309/836/64
f 439/796/64 452/834/64 429/776/64
f 309/836/64 71/837/64 452/834/64
f 452/834/64 61/778/64 429/776/64
f 452/834/64 71/837/64 62/838/64
f 61/778/64 452/834/64 62/838/64
f 456/849/66 428/775/66 31/850/66
f 32/777/66 31/850/66 428/775/66
f 458/853/66 438/795/66 456/849/66
f 438/795/66 428/775/66 456/849/66
f 131/785/64 433/784/64 75/867/64
f 433/784/64 78/868/64 75/867/64
f 298/885/107 463/886/107 464/887/107
f 463/886/107 298/885/107 297/888/107
f 463/886/107 438/889/107 464/887/107
f 439/890/107 438/889/107 463/886/107
f 130/827/61 432/783/61 129/786/61
f 130/827/61 467/828/61 432/783/61
f 374/323/45 127/325/45 126/324/45
f 469/326/45 127/325/45 374/323/45
f 297/888/3 471/953/3 463/886/3
f 471/953/3 297/888/3 327/954/3
f 453/955/3 463/886/3 471/953/3
f 463/886/3 453/955/3 439/890/3
f 471/953/3 423/956/3 453/955/3
f 423/956/3 471/953/3 422/957/3
f 327/954/3 422/957/3 471/953/3
f 422/957/3 327/954/3 328/958/3
f 467/500/47 127/325/47 469/326/47
f 127/325/47 467/500/47 130/499/47
f 338/985/116 464/887/116 475/986/116
f 464/887/116 338/985/116 298/885/116
f 464/887/116 458/987/116 475/986/116
f 458/987/116 464/887/116 438/889/116
f 290/1000/26 469/1001/26 374/1002/26
f 469/1001/26 290/1000/26 432/1003/26
f 469/1001/26 432/1003/26 467/1004/26
f 290/1000/26 433/1005/26 432/1003/26
f 433/1005/26 290/1000/26 289/1006/26
f 289/1006/26 78/1007/26 433/1005/26
f 78/1007/26 289/1006/26 76/1008/26
o RearR
usemtl tex_animal_lion_i033p001x
f 33/33/4 34/34/4 35/35/4
f 34/34/4 33/33/4 36/36/4
f 37/37/4 34/34/4 36/36/4
f 34/34/4 37/37/4 38/38/4
f 63/63/10 64/64/10 65/65/10
f 64/64/10 63/63/10 66/66/10
f 67/67/10 64/64/10 66/66/10
f 64/64/10 67/67/10 68/68/10
f 64/64/11 72/72/11 65/65/11
f 65/65/11 72/72/11 73/73/11
f 64/64/11 74/74/11 72/72/11
f 68/68/11 74/74/11 64/64/11
f 79/75/12 80/76/12 81/78/12
f 80/76/12 79/75/12 82/77/12
f 35/35/16 66/66/16 63/63/16
f 66/66/16 35/35/16 34/34/16
f 38/38/16 66/66/16 34/34/16
f 66/66/16 38/38/16 67/67/16
f 142/133/21 143/135/21 144/136/21
f 142/133/21 145/134/21 143/135/21
f 145/134/21 142/133/21 146/132/21
f 143/135/21 145/134/21 147/137/21
f 148/138/21 147/137/21 145/134/21
f 147/137/21 148/138/21 79/139/21
f 79/139/21 148/138/21 82/140/21
f 279/343/50 38/344/50 280/345/50
f 38/344/50 279/343/50 67/346/50
f 145/359/54 287/360/54 148/361/54
f 288/362/54 287/360/54 145/359/54
f 295/367/57 279/343/57 280/345/57
f 295/367/57 296/368/57 279/343/57
f 310/385/59 73/386/59 311/387/59
f 311/387/59 73/386/59 72/388/59
f 311/387/59 72/388/59 312/389/59
f 312/389/59 72/388/59 74/390/59
f 296/368/64 329/417/64 279/343/64
f 279/343/64 329/417/64 67/346/64
f 329/417/64 296/368/64 330/418/64
f 67/346/64 329/417/64 68/419/64
f 331/420/64 329/417/64 330/418/64
f 329/417/64 74/421/64 68/419/64
f 329/417/64 331/420/64 312/422/64
f 74/421/64 329/417/64 312/422/64
f 280/345/66 37/433/66 337/434/66
f 37/433/66 280/345/66 38/344/66
f 295/367/66 337/434/66 339/436/66
f 337/434/66 295/367/66 280/345/66
f 148/361/64 80/449/64 82/450/64
f 148/361/64 287/360/64 80/449/64
f 373/401/61 145/359/61 146/402/61
f 145/359/61 373/401/61 288/362/61
f 424/764/100 310/385/100 425/765/100
f 425/765/100 310/385/100 311/387/100
f 425/765/100 311/387/100 331/766/100
f 331/766/100 311/387/100 312/389/100
f 35/779/51 430/780/51 431/781/51
f 430/780/51 35/779/51 63/782/51
f 147/785/55 435/783/55 143/786/55
f 435/783/55 147/785/55 436/784/55
f 442/805/58 430/780/58 443/806/58
f 430/780/58 442/805/58 431/781/58
f 443/806/63 430/780/63 454/839/63
f 63/782/63 454/839/63 430/780/63
f 443/806/63 454/839/63 455/840/63
f 454/839/63 63/782/63 65/841/63
f 454/839/63 424/842/63 455/840/63
f 454/839/63 65/841/63 73/843/63
f 424/842/63 454/839/63 310/844/63
f 310/844/63 454/839/63 73/843/63
f 431/781/65 457/851/65 33/852/65
f 431/781/65 33/852/65 35/779/65
f 459/854/65 457/851/65 442/805/65
f 442/805/65 457/851/65 431/781/65
f 147/785/63 79/867/63 436/784/63
f 436/784/63 79/867/63 81/868/63
f 443/891/107 465/892/107 442/893/107
f 465/892/107 466/894/107 442/893/107
f 465/892/107 295/895/107 466/894/107
f 295/895/107 465/892/107 296/896/107
f 144/827/60 435/783/60 468/828/60
f 435/783/60 144/827/60 143/786/60
f 470/326/47 373/323/47 142/325/47
f 373/323/47 146/324/47 142/325/47
f 455/959/3 465/892/3 443/891/3
f 455/959/3 472/960/3 465/892/3
f 472/960/3 296/896/3 465/892/3
f 424/961/3 472/960/3 455/959/3
f 472/960/3 330/962/3 296/896/3
f 424/961/3 425/963/3 472/960/3
f 425/963/3 330/962/3 472/960/3
f 425/963/3 331/964/3 330/962/3
f 470/326/45 142/325/45 144/499/45
f 468/500/45 470/326/45 144/499/45
f 459/988/116 442/893/116 466/894/116
f 466/894/116 476/989/116 459/988/116
f 466/894/116 339/990/116 476/989/116
f 339/990/116 466/894/116 295/895/116
f 470/1001/26 468/1004/26 435/1003/26
f 288/1000/26 470/1001/26 435/1003/26
f 470/1001/26 288/1000/26 373/1002/26
f 436/1005/26 288/1000/26 435/1003/26
f 288/1000/26 436/1005/26 287/1006/26
f 436/1005/26 80/1008/26 287/1006/26
f 80/1008/26 436/1005/26 81/1007/26
