# Roblox asset pack: egg_forest_giganoto_saurus (props), from the Studio model "ForestGiganotoSaurus". Exported with Export Selection, split by tools/build_creatures.py: one object per rigid body. Units: studs. +Y up, front faces -Z, pivot (bottom centre) at the origin.
mtllib egg_forest_giganoto_saurus.mtl

v -2.65750 5.16990 -2.58000
v 2.50950 5.16990 -2.58000
v -2.65750 1.71990 -2.58000
v 2.50950 1.71990 -2.58000
v 2.50950 5.16990 2.58000
v -2.65750 5.16990 2.58000
v 2.50950 1.71990 2.58000
v -2.65750 1.71990 2.58000
v -1.79630 6.88990 -1.72000
v 1.64830 6.88990 -1.72000
v -1.79630 -0.00010 -1.72000
v 1.64830 -0.00010 -1.72000
v 1.64830 6.88990 1.72000
v -1.79630 6.88990 1.72000
v 1.64830 -0.00010 1.72000
v -1.79630 -0.00010 1.72000
v 5.44980 5.87990 0.86000
v 4.23190 7.09990 0.86000
v 1.79630 2.22990 0.86000
v 0.57840 3.43990 0.86000
v 4.23190 7.09990 -0.86000
v 5.44980 5.87990 -0.86000
v 0.57840 3.43990 -0.86000
v 1.79630 2.22990 -0.86000
v -0.86110 5.87990 5.45000
v -0.86120 7.09990 4.23000
v -0.86120 2.22990 1.80000
v -0.86120 3.43990 0.58000
v 0.86120 7.09990 4.23000
v 0.86120 5.87990 5.45000
v 0.86110 3.43990 0.58000
v 0.86120 2.22990 1.80000
v -5.44980 5.87990 -0.86000
v -4.23190 7.09990 -0.86000
v -1.79630 2.22990 -0.86000
v -0.57840 3.43990 -0.86000
v -4.23190 7.09990 0.86000
v -5.44980 5.87990 0.86000
v -0.57840 3.43990 0.86000
v -1.79630 2.22990 0.86000
v 0.86120 5.87990 -5.45000
v 0.86120 7.09990 -4.23000
v 0.86120 2.22990 -1.80000
v 0.86110 3.43990 -0.58000
v -0.86120 7.09990 -4.23000
v -0.86110 5.87990 -5.45000
v -0.86120 3.43990 -0.58000
v -0.86120 2.22990 -1.80000
vt 8.14587 0.75000
vt 7.50000 0.75000
vt 8.14587 0.31942
vt 7.50000 0.31942
vt 8.14587 0.10413
vt 7.50000 0.10413
vt 3.18058 -2.25000
vt 2.75000 -2.25000
vt 3.18058 -3.11116
vt 2.75000 -3.11116
vt 3.18058 -2.68058
vt 2.75000 -2.68058
vt 7.46529 -0.50000
vt 7.25000 -0.50000
vt 7.46529 -1.14587
vt 7.25000 -1.14587
vt 7.46529 -0.71529
vt 7.25000 -0.71529
vt 4.21529 0.50000
vt 4.00000 0.50000
vt 4.21529 -0.14587
vt 4.00000 -0.14587
vt 4.21529 0.28471
vt 4.00000 0.28471
vt 1.71529 -3.50000
vt 1.50000 -3.50000
vt 1.71529 -4.14587
vt 1.50000 -4.14587
vt 1.71529 -3.71529
vt 1.50000 -3.71529
vt 2.96529 -0.75000
vt 2.75000 -0.75000
vt 2.96529 -1.39587
vt 2.75000 -1.39587
vt 2.96529 -0.96529
vt 2.75000 -0.96529
vn 0.0000 0.0000 -1.0000
vn 0.0000 1.0000 0.0000
vn 1.0000 0.0000 0.0000
vn 0.0000 0.0000 1.0000
vn 0.0000 -1.0000 0.0000
vn -1.0000 0.0000 0.0000
vn 0.7087 0.7087 0.0000
vn -0.7087 0.7087 0.0000
vn -0.7087 -0.7087 0.0000
vn 0.7087 -0.7087 0.0000
vn 0.0000 0.7087 0.7087
vn 0.0000 0.7087 -0.7087
vn 0.0000 -0.7087 -0.7087
vn 0.0000 -0.7087 0.7087

o egg_forest_giganoto_saurus
usemtl c_a4bd47
f 1/1/1 2/2/1 3/3/1
f 3/3/1 2/2/1 4/4/1
f 5/1/2 2/2/2 6/5/2
f 6/5/2 2/2/2 1/6/2
f 2/1/3 5/2/3 4/3/3
f 4/3/3 5/2/3 7/4/3
f 5/1/4 6/2/4 7/3/4
f 7/3/4 6/2/4 8/4/4
f 8/1/5 3/2/5 7/5/5
f 7/5/5 3/2/5 4/6/5
f 6/1/6 1/2/6 8/3/6
f 8/3/6 1/2/6 3/4/6
f 9/7/1 10/8/1 11/9/1
f 11/9/1 10/8/1 12/10/1
f 13/7/2 10/8/2 14/11/2
f 14/11/2 10/8/2 9/12/2
f 10/7/3 13/8/3 12/9/3
f 12/9/3 13/8/3 15/10/3
f 13/7/4 14/8/4 15/9/4
f 15/9/4 14/8/4 16/10/4
f 16/7/5 11/8/5 15/11/5
f 15/11/5 11/8/5 12/12/5
f 14/7/6 9/8/6 16/9/6
f 16/9/6 9/8/6 11/10/6
usemtl c_aa5500
f 17/13/4 18/14/4 19/15/4
f 19/15/4 18/14/4 20/16/4
f 21/13/7 18/14/7 22/17/7
f 22/17/7 18/14/7 17/18/7
f 18/13/8 21/14/8 20/15/8
f 20/15/8 21/14/8 23/16/8
f 21/13/1 22/14/1 23/15/1
f 23/15/1 22/14/1 24/16/1
f 24/13/9 19/14/9 23/17/9
f 23/17/9 19/14/9 20/18/9
f 22/13/10 17/14/10 24/15/10
f 24/15/10 17/14/10 19/16/10
f 25/19/6 26/20/6 27/21/6
f 27/21/6 26/20/6 28/22/6
f 29/19/11 26/20/11 30/23/11
f 30/23/11 26/20/11 25/24/11
f 26/19/12 29/20/12 28/21/12
f 28/21/12 29/20/12 31/22/12
f 29/19/3 30/20/3 31/21/3
f 31/21/3 30/20/3 32/22/3
f 32/19/13 27/20/13 31/23/13
f 31/23/13 27/20/13 28/24/13
f 30/19/14 25/20/14 32/21/14
f 32/21/14 25/20/14 27/22/14
f 33/25/1 34/26/1 35/27/1
f 35/27/1 34/26/1 36/28/1
f 37/25/8 34/26/8 38/29/8
f 38/29/8 34/26/8 33/30/8
f 34/25/7 37/26/7 36/27/7
f 36/27/7 37/26/7 39/28/7
f 37/25/4 38/26/4 39/27/4
f 39/27/4 38/26/4 40/28/4
f 40/25/10 35/26/10 39/29/10
f 39/29/10 35/26/10 36/30/10
f 38/25/9 33/26/9 40/27/9
f 40/27/9 33/26/9 35/28/9
f 41/31/3 42/32/3 43/33/3
f 43/33/3 42/32/3 44/34/3
f 45/31/12 42/32/12 46/35/12
f 46/35/12 42/32/12 41/36/12
f 42/31/11 45/32/11 44/33/11
f 44/33/11 45/32/11 47/34/11
f 45/31/6 46/32/6 47/33/6
f 47/33/6 46/32/6 48/34/6
f 48/31/14 43/32/14 47/35/14
f 47/35/14 43/32/14 44/36/14
f 46/31/13 41/32/13 48/33/13
f 48/33/13 41/32/13 43/34/13
