# Roblox asset pack: animal_turtle (creatures), from the Studio model "Turtle". Exported with Export Selection, split by tools/build_creatures.py: one object per rigid body. Units: studs. +Y up, front faces -Z, pivot (bottom centre) at the origin.
mtllib animal_turtle.mtl

v 1.67600 0.79000 1.05000
v 1.49500 1.32000 -0.91000
v 1.49500 1.32000 0.91000
v 1.67600 0.79000 -1.05000
v 1.16200 1.68000 0.66000
v 1.16200 1.68000 -0.66000
v -1.62900 2.20000 0.56000
v -0.50500 2.31000 0.67000
v -1.62900 2.20000 -0.56000
v -0.50500 2.31000 -0.67000
v -0.55100 2.26000 0.67000
v -1.58300 2.16000 0.64000
v -0.55100 2.26000 0.76000
v -1.58300 2.16000 0.57000
v -1.58300 2.16000 -0.57000
v -0.55100 2.26000 -0.67000
v -1.58300 2.16000 -0.64000
v -0.55100 2.26000 -0.76000
v 1.26600 0.51000 1.07000
v 1.26600 0.51000 0.52000
v 1.22100 0.83000 1.07000
v 1.22100 0.83000 0.52000
v 1.26600 0.51000 -0.52000
v 1.22100 0.83000 -1.07000
v 1.22100 0.83000 -0.52000
v 1.26600 0.51000 -1.07000
v 1.16800 0.00000 1.09000
v 1.16800 0.10000 0.82000
v 1.16800 0.10000 1.09000
v 1.16800 0.00000 0.82000
v 1.16800 0.00000 0.77000
v 1.16800 0.10000 0.77000
v 1.16800 0.10000 0.50000
v 1.16800 0.00000 0.50000
v 1.16800 0.00000 -0.77000
v 1.16800 0.10000 -0.50000
v 1.16800 0.00000 -0.50000
v 1.16800 0.10000 -0.77000
v 1.16800 0.10000 -0.82000
v 1.16800 0.00000 -0.82000
v 1.16800 0.00000 -1.09000
v 1.16800 0.10000 -1.09000
v 1.14300 0.09000 1.07000
v 1.14300 0.09000 0.52000
v 1.14300 0.46000 1.07000
v 1.14300 0.46000 0.52000
v 1.14300 0.09000 -0.52000
v 1.14300 0.46000 -1.07000
v 1.14300 0.46000 -0.52000
v 1.14300 0.09000 -1.07000
v 1.35800 0.59000 -0.81000
v 1.50500 0.79000 0.92000
v 1.35800 0.59000 0.81000
v 1.50500 0.79000 -0.92000
v -1.67600 1.99000 0.15000
v -1.67600 1.78000 0.31000
v -1.67600 1.99000 0.31000
v -1.67600 1.78000 0.15000
v -1.67600 1.99000 -0.15000
v -1.67600 1.78000 -0.31000
v -1.67600 1.78000 -0.15000
v -1.67600 1.99000 -0.31000
v -1.58500 2.07000 0.36000
v -1.58500 2.07000 0.11000
v -1.66000 2.07000 0.36000
v -1.66000 2.07000 0.11000
v -1.66000 2.07000 -0.36000
v -1.66000 2.07000 -0.11000
v -1.58500 2.07000 -0.11000
v -1.58500 2.07000 -0.36000
v -1.66600 1.37000 0.25000
v -1.66600 1.33000 0.12000
v -1.66600 1.34000 0.25000
v -1.66600 1.35000 0.10000
v -1.66600 1.28000 0.08000
v -1.66600 1.26000 0.09000
v -1.66600 1.25000 0.00000
v -1.66600 1.23000 0.00000
v -1.66600 1.26000 -0.09000
v -1.66600 1.28000 -0.08000
v -1.66600 1.33000 -0.12000
v -1.66600 1.35000 -0.10000
v -1.66600 1.37000 -0.25000
v -1.66600 1.34000 -0.25000
v -1.66000 1.75000 0.36000
v -1.66000 1.75000 0.11000
v -1.66000 1.75000 -0.36000
v -1.66000 1.75000 -0.11000
v -1.65100 1.65000 0.11000
v -1.64200 1.47000 0.20000
v -1.64200 1.65000 0.20000
v -1.65100 1.47000 0.11000
v -1.65100 1.65000 -0.11000
v -1.64200 1.47000 -0.20000
v -1.65100 1.47000 -0.11000
v -1.64200 1.65000 -0.20000
v -1.62900 1.08000 0.56000
v -1.62900 1.08000 -0.56000
v -1.62500 1.99000 0.15000
v -1.62500 1.99000 0.31000
v -1.62500 1.99000 -0.15000
v -1.62500 1.99000 -0.31000
v -1.58300 1.12000 0.64000
v -1.58300 1.12000 0.57000
v -1.58300 1.12000 -0.64000
v -1.58300 1.12000 -0.57000
v -0.91300 1.32000 0.91000
v -0.58000 1.68000 0.66000
v -0.91300 1.32000 -0.91000
v -0.58000 1.68000 -0.66000
v -0.76900 0.10000 1.09000
v -0.76900 0.00000 1.09000
v -0.65300 0.00000 1.09000
v -0.65300 0.10000 1.09000
v -0.06200 0.10000 1.09000
v -0.06200 0.00000 1.09000
v 0.46100 0.10000 1.09000
v 0.46100 0.00000 1.09000
v 0.57700 0.00000 1.09000
v 0.57700 0.10000 1.09000
v -0.76900 0.10000 -1.09000
v -0.65300 0.00000 -1.09000
v -0.76900 0.00000 -1.09000
v -0.65300 0.10000 -1.09000
v -0.06200 0.10000 -1.09000
v -0.06200 0.00000 -1.09000
v 0.46100 0.10000 -1.09000
v 0.57700 0.00000 -1.09000
v 0.46100 0.00000 -1.09000
v 0.57700 0.10000 -1.09000
v -0.63700 0.46000 1.07000
v -0.63700 0.09000 1.07000
v -0.08700 0.09000 1.07000
v -0.08700 0.46000 1.07000
v -0.63700 0.51000 1.07000
v 0.03700 0.51000 1.07000
v -0.00900 0.83000 1.07000
v -0.63700 0.83000 1.07000
v 0.59300 0.46000 1.07000
v 0.59300 0.09000 1.07000
v 0.59300 0.51000 1.07000
v 0.59300 0.83000 1.07000
v -0.63700 0.46000 -1.07000
v -0.08700 0.09000 -1.07000
v -0.63700 0.09000 -1.07000
v -0.08700 0.46000 -1.07000
v -0.63700 0.51000 -1.07000
v 0.03700 0.51000 -1.07000
v -0.00900 0.83000 -1.07000
v -0.63700 0.83000 -1.07000
v 0.59300 0.46000 -1.07000
v 0.59300 0.09000 -1.07000
v 0.59300 0.51000 -1.07000
v 0.59300 0.83000 -1.07000
v -1.09400 0.79000 1.05000
v -1.09400 0.79000 -1.05000
v -1.61500 1.65000 0.20000
v -1.62400 1.65000 0.11000
v -1.61500 1.65000 -0.20000
v -1.62400 1.65000 -0.11000
v 1.06300 0.44000 -0.58000
v 1.06300 0.44000 0.58000
v -0.55100 1.02000 0.76000
v -0.55100 1.02000 -0.76000
v -0.76900 0.10000 -0.77000
v -0.65300 0.00000 -0.77000
v -0.76900 0.00000 -0.77000
v -0.65300 0.10000 -0.77000
v 0.46100 0.10000 -0.77000
v 0.57700 0.00000 -0.77000
v 0.46100 0.00000 -0.77000
v 0.57700 0.10000 -0.77000
v -0.76900 0.10000 0.77000
v -0.76900 0.00000 0.77000
v -0.65300 0.00000 0.77000
v -0.65300 0.10000 0.77000
v 0.46100 0.10000 0.77000
v 0.46100 0.00000 0.77000
v 0.57700 0.00000 0.77000
v 0.57700 0.10000 0.77000
v -0.77600 0.59000 0.81000
v -0.92400 0.79000 0.92000
v -0.92400 0.79000 -0.92000
v -0.77600 0.59000 -0.81000
v -0.76900 0.00000 0.82000
v -0.65300 0.00000 0.82000
v -0.06200 0.00000 0.82000
v -0.06200 0.00000 0.77000
v -0.65300 0.00000 0.50000
v -0.06200 0.00000 0.50000
v -0.76900 0.00000 0.50000
v 0.46100 0.00000 0.82000
v 0.57700 0.00000 0.82000
v 0.57700 0.00000 0.50000
v 0.46100 0.00000 0.50000
v -0.65300 0.00000 -0.50000
v -0.76900 0.00000 -0.50000
v -0.06200 0.00000 -0.50000
v -0.06200 0.00000 -0.77000
v -0.65300 0.00000 -0.82000
v -0.06200 0.00000 -0.82000
v -0.76900 0.00000 -0.82000
v 0.57700 0.00000 -0.50000
v 0.46100 0.00000 -0.50000
v 0.57700 0.00000 -0.82000
v 0.46100 0.00000 -0.82000
v -0.55100 1.02000 -0.67000
v -0.50500 0.97000 -0.67000
v -0.55100 1.02000 0.67000
v -0.50500 0.97000 0.67000
v -1.61400 1.37000 0.25000
v -1.61400 1.35000 0.10000
v -1.61400 1.35000 -0.10000
v -1.61400 1.37000 -0.25000
v -0.48100 0.44000 0.58000
v -0.48100 0.44000 -0.58000
v -1.61400 1.25000 0.00000
v -1.61400 1.28000 0.08000
v -1.61400 1.28000 -0.08000
v -0.76900 0.10000 0.82000
v -0.76900 0.10000 0.50000
v -0.76900 0.10000 -0.50000
v -0.76900 0.10000 -0.82000
v -1.58500 1.75000 0.36000
v -1.58500 1.75000 -0.36000
v -0.65300 0.10000 0.82000
v -0.65300 0.10000 -0.82000
v -0.08700 0.46000 0.52000
v 0.03700 0.51000 0.52000
v 0.03700 0.51000 -0.52000
v -0.08700 0.46000 -0.52000
v -0.00900 0.83000 0.52000
v -0.00900 0.83000 -0.52000
v -0.63700 0.09000 0.52000
v -0.63700 0.46000 0.52000
v -0.63700 0.51000 0.52000
v -0.63700 0.83000 0.52000
v -0.63700 0.09000 -0.52000
v -0.63700 0.46000 -0.52000
v -0.63700 0.51000 -0.52000
v -0.63700 0.83000 -0.52000
v -1.62500 1.78000 -0.31000
v -1.62500 1.78000 0.31000
v -0.06200 0.10000 0.82000
v -0.06200 0.10000 0.77000
v -0.06200 0.10000 0.50000
v -0.06200 0.10000 -0.50000
v -0.06200 0.10000 -0.77000
v -0.06200 0.10000 -0.82000
v -1.61400 1.34000 0.25000
v -1.61400 1.34000 -0.25000
v -0.08700 0.09000 0.52000
v -0.08700 0.09000 -0.52000
v 0.59300 0.83000 0.52000
v 0.59300 0.83000 -0.52000
v -1.61500 1.47000 -0.20000
v -1.61500 1.47000 0.20000
v -1.62400 1.47000 0.11000
v -1.62400 1.47000 -0.11000
v -1.61400 1.33000 -0.12000
v -1.61400 1.26000 -0.09000
v -1.61400 1.33000 0.12000
v -1.61400 1.26000 0.09000
v -1.58500 1.75000 0.11000
v -1.58500 1.75000 -0.11000
v -1.62500 1.78000 0.15000
v -1.62500 1.78000 -0.15000
v -1.61400 1.23000 0.00000
v -0.65300 0.10000 0.50000
v 0.57700 0.10000 0.50000
v 0.46100 0.10000 0.50000
v -0.65300 0.10000 -0.50000
v 0.57700 0.10000 -0.50000
v 0.46100 0.10000 -0.50000
v 0.59300 0.46000 0.52000
v 0.59300 0.09000 0.52000
v 0.59300 0.51000 0.52000
v 0.59300 0.46000 -0.52000
v 0.59300 0.09000 -0.52000
v 0.59300 0.51000 -0.52000
v 0.46100 0.10000 0.82000
v 0.57700 0.10000 0.82000
v 0.57700 0.10000 -0.82000
v 0.46100 0.10000 -0.82000
vt 0.61233 0.09782
vt 0.52356 0.40880
vt 0.52359 0.11954
vt 0.61230 0.43054
vt 0.44573 0.15953
vt 0.44571 0.36880
vt 0.18198 0.71739
vt 0.00293 0.73493
vt 0.18199 0.53920
vt 0.00294 0.52165
vt 0.62731 0.86174
vt 0.64172 0.69780
vt 0.64194 0.86348
vt 0.63080 0.69650
vt 0.88643 0.90119
vt 0.72120 0.90488
vt 0.88511 0.89027
vt 0.71943 0.89026
vt 1.47398 0.75376
vt 1.38677 0.75376
vt 1.47397 0.70379
vt 1.38677 0.70379
vt 1.11507 0.97073
vt 1.15833 0.98590
vt 1.11507 0.98590
vt 1.15833 0.97073
vt 1.16556 0.97073
vt 1.16556 0.98590
vt 1.20883 0.98590
vt 1.20883 0.97073
vt 1.47398 0.83311
vt 1.38678 0.83311
vt 1.47398 0.77508
vt 1.38677 0.77509
vt 0.93602 0.41380
vt 0.63828 0.44729
vt 0.67043 0.41432
vt 0.96762 0.44770
vt 0.46666 0.93259
vt 0.52449 0.97824
vt 0.46666 0.97824
vt 0.52449 0.93259
vt 1.46666 0.93259
vt 1.52449 0.97824
vt 1.52449 0.93259
vt 1.46666 0.97824
vt 0.64194 0.97646
vt 0.64195 0.92663
vt 0.65706 0.97646
vt 0.65707 0.92663
vt 1.65706 0.97646
vt 1.65707 0.92663
vt 1.64195 0.92663
vt 1.64194 0.97646
vt 0.02539 0.00293
vt 0.01891 0.02416
vt 0.02153 0.00293
vt 0.02277 0.02682
vt 0.01137 0.03049
vt 0.00751 0.02783
vt 0.00679 0.04245
vt 0.00293 0.04245
vt 0.00751 0.05707
vt 0.01137 0.05441
vt 0.01891 0.06074
vt 0.02277 0.05808
vt 0.02539 0.08197
vt 0.02152 0.08197
vt 0.72018 0.97647
vt 0.72019 0.92664
vt 1.72019 0.97647
vt 1.72019 0.92664
vt 0.03364 0.03202
vt 0.04791 0.00293
vt 0.04791 0.03202
vt 0.03364 0.00293
vt 1.03364 0.03202
vt 1.04791 0.00293
vt 1.03364 0.00293
vt 1.04791 0.03202
vt 0.18112 0.91695
vt 0.00293 0.73876
vt 0.18112 0.73876
vt 0.00293 0.91695
vt 0.45281 0.93259
vt 0.45281 0.97824
vt 1.45281 0.93259
vt 1.45281 0.97824
vt 0.59736 0.69650
vt 0.58637 0.86020
vt 0.58637 0.69650
vt 0.59736 0.86020
vt 0.61784 0.86020
vt 0.60684 0.69650
vt 0.61784 0.69650
vt 0.60684 0.86020
vt 0.11677 0.08967
vt 0.16955 0.15951
vt 0.49851 0.08971
vt 0.49848 0.43863
vt 0.11674 0.43860
vt 0.16953 0.36878
vt 0.00293 0.98589
vt 0.00293 0.97072
vt 0.02130 0.97072
vt 0.02130 0.98589
vt 0.11507 0.98590
vt 0.11507 0.97073
vt 1.00293 0.98589
vt 1.00293 0.97072
vt 1.02130 0.97072
vt 1.02130 0.98589
vt 0.47814 0.58724
vt 0.47814 0.64527
vt 0.39094 0.64527
vt 0.39094 0.58724
vt 0.47814 0.57866
vt 0.37142 0.57866
vt 0.37860 0.52921
vt 0.47814 0.52921
vt 1.47814 0.58724
vt 1.47814 0.64527
vt 1.39094 0.64527
vt 1.39094 0.58724
vt 1.47814 0.57866
vt 1.37142 0.57866
vt 1.37860 0.52921
vt 1.47814 0.52921
vt 0.08810 0.00293
vt 0.52720 0.00297
vt 0.08806 0.52534
vt 0.52715 0.52538
vt 0.55054 0.04507
vt 0.55487 0.03080
vt 0.55487 0.04507
vt 0.55054 0.03080
vt 1.55487 0.03080
vt 1.55054 0.04507
vt 1.55487 0.04507
vt 1.55054 0.03080
vt 0.89534 0.36299
vt 0.71100 0.36380
vt 0.09169 0.11950
vt 0.09167 0.40876
vt 0.98668 0.70659
vt 0.82181 0.88643
vt 0.82179 0.69049
vt 0.98670 0.87029
vt 0.81269 0.87630
vt 0.64778 0.69650
vt 0.81268 0.71261
vt 0.64780 0.89244
vt 1.49918 0.61646
vt 1.48401 0.59808
vt 1.48401 0.61646
vt 1.49918 0.59808
vt 0.49918 0.61646
vt 0.48401 0.61646
vt 0.48401 0.59808
vt 0.49918 0.59808
vt 0.66985 0.06506
vt 0.63822 0.03118
vt 0.96782 0.03099
vt 0.93568 0.06397
vt 0.00296 0.09776
vt 0.00293 0.43049
vt 0.23044 0.85476
vt 0.18717 0.87313
vt 0.18717 0.85476
vt 0.23044 0.87313
vt 0.18717 0.96689
vt 0.23044 0.96689
vt 0.23767 0.87313
vt 0.23767 0.96689
vt 0.28094 0.87313
vt 0.28094 0.96689
vt 0.23767 0.85476
vt 0.28094 0.85476
vt 1.23044 0.85476
vt 1.18717 0.87313
vt 1.18717 0.85476
vt 1.23044 0.87313
vt 1.23044 0.96689
vt 1.18717 0.96689
vt 1.23767 0.96689
vt 1.23767 0.87313
vt 1.28094 0.96689
vt 1.28094 0.87313
vt 1.23767 0.85476
vt 1.28094 0.85476
vt 0.36622 0.72493
vt 0.35895 0.55398
vt 0.36623 0.54674
vt 0.35894 0.71768
vt 0.19446 0.53786
vt 0.19445 0.73380
vt 0.18718 0.52918
vt 0.18717 0.74247
vt 0.55046 0.87669
vt 0.37870 0.88556
vt 0.54318 0.86944
vt 0.37142 0.89423
vt 0.54319 0.70575
vt 0.55047 0.69850
vt 0.37870 0.68962
vt 0.37142 0.68095
vt 0.53519 0.02696
vt 0.53519 0.00293
vt 0.54340 0.02696
vt 0.54340 0.00293
vt 0.55875 0.00293
vt 0.55876 0.02696
vt 0.55054 0.02696
vt 0.55054 0.00293
vt 0.71079 0.11532
vt 0.89484 0.11504
vt 0.07768 0.01574
vt 0.07768 0.02855
vt 0.06946 0.01574
vt 0.06947 0.02855
vt 0.07767 0.00293
vt 0.06946 0.00293
vt 0.49919 0.52921
vt 0.48402 0.57248
vt 0.48402 0.52921
vt 0.49918 0.57248
vt 0.48401 0.65972
vt 0.49918 0.65972
vt 1.49918 0.65972
vt 1.48401 0.65972
vt 1.49919 0.57248
vt 1.49919 0.52921
vt 1.48402 0.57248
vt 1.48402 0.52921
vt 0.72018 0.99159
vt 0.65706 0.99158
vt 1.72018 0.99159
vt 1.65706 0.99158
vt 0.48401 0.59085
vt 0.49918 0.59085
vt 1.48401 0.59085
vt 1.49918 0.59085
vt 0.47398 0.77508
vt 0.38677 0.77509
vt 0.47398 0.75376
vt 0.38677 0.75376
vt 0.38677 0.70379
vt 0.47397 0.70379
vt 0.63774 0.93904
vt 0.55054 0.88102
vt 0.63774 0.88102
vt 0.55054 0.93904
vt 0.63774 0.94762
vt 0.55054 0.94762
vt 0.63774 0.99707
vt 0.55054 0.99707
vt 1.63775 0.93904
vt 1.55054 0.88102
vt 1.55054 0.93904
vt 1.63775 0.88102
vt 1.63775 0.94762
vt 1.55054 0.94762
vt 1.63775 0.99707
vt 1.55054 0.99707
vt 1.52449 0.99209
vt 1.46666 0.99209
vt 0.52449 0.99209
vt 0.46666 0.99209
vt 0.15833 0.98590
vt 0.15833 0.97073
vt 0.16556 0.97073
vt 0.16556 0.98590
vt 0.20883 0.98590
vt 0.20883 0.97073
vt 0.54030 0.03901
vt 0.54030 0.03080
vt 0.54417 0.03080
vt 0.54417 0.03901
vt 0.02340 0.03209
vt 0.02726 0.04030
vt 0.02340 0.04030
vt 0.02726 0.03209
vt 0.47398 0.83311
vt 0.38678 0.83311
vt 0.99600 0.98180
vt 0.90879 0.88225
vt 0.99600 0.88225
vt 0.90879 0.98180
vt 1.99600 0.88225
vt 1.99600 0.98180
vt 1.90879 0.98180
vt 1.90879 0.88225
vt 0.53316 0.04278
vt 0.52495 0.04278
vt 0.52495 0.03080
vt 0.53316 0.03080
vt 0.57411 0.04014
vt 0.56590 0.04014
vt 0.57411 0.02816
vt 0.56590 0.02816
vt 1.60093 0.00293
vt 1.59660 0.03202
vt 1.60093 0.03202
vt 1.59660 0.00293
vt 0.60093 0.00293
vt 0.60093 0.03202
vt 0.59660 0.03202
vt 0.59660 0.00293
vt 0.60684 0.03202
vt 0.61117 0.00293
vt 0.61117 0.03202
vt 0.60684 0.00293
vt 1.61117 0.03202
vt 1.61117 0.00293
vt 1.60684 0.03202
vt 1.60684 0.00293
vt 0.58946 0.04014
vt 0.58125 0.04014
vt 0.58946 0.02816
vt 0.58125 0.02816
vt 0.01114 0.00293
vt 0.01114 0.01491
vt 0.00293 0.00293
vt 0.00293 0.01491
vt 0.61707 0.00307
vt 0.98892 0.00293
vt 0.61718 0.47540
vt 0.98875 0.47578
vt 0.65707 0.91151
vt 0.72020 0.91152
vt 1.72019 0.91152
vt 1.65707 0.91151
vt 0.46666 0.91874
vt 0.52449 0.91874
vt 1.46666 0.91874
vt 1.52449 0.91874
vt 0.53519 0.47938
vt 0.74847 0.69267
vt 0.53519 0.69267
vt 0.74847 0.47938
vt 0.95997 0.47961
vt 0.97470 0.67555
vt 0.95997 0.67555
vt 0.97470 0.47961
vt 0.93950 0.67553
vt 0.93950 0.47959
vt 0.95423 0.47959
vt 0.95423 0.67553
vt 0.93431 0.49695
vt 0.75526 0.69267
vt 0.75527 0.47939
vt 0.93430 0.67513
vt 0.45587 0.92032
vt 0.29041 0.92032
vt 0.45587 0.90755
vt 0.29041 0.90755
vt 0.99485 0.48091
vt 0.98044 0.64485
vt 0.98393 0.47961
vt 0.99507 0.64660
vt 0.06232 0.01825
vt 0.06232 0.03357
vt 0.05411 0.03357
vt 0.05411 0.01825
vt 0.06232 0.00293
vt 0.05411 0.00293
vt 0.32096 0.97073
vt 0.30259 0.98590
vt 0.30259 0.97073
vt 0.32096 0.98590
vt 1.32097 0.97073
vt 1.30259 0.98590
vt 1.30259 0.97073
vt 1.32096 0.98590
vt 0.22205 0.61156
vt 0.30926 0.55353
vt 0.30926 0.61156
vt 0.22205 0.55353
vt 0.30926 0.62013
vt 0.20253 0.62013
vt 0.20971 0.66958
vt 0.30926 0.66958
vt 1.30926 0.61156
vt 1.22205 0.61156
vt 1.30926 0.55353
vt 1.22205 0.55353
vt 1.30926 0.62013
vt 1.20253 0.62013
vt 1.20971 0.66958
vt 1.30926 0.66958
vt 0.58946 0.00293
vt 0.58946 0.02432
vt 0.58125 0.00293
vt 0.58125 0.02432
vt 0.57411 0.00293
vt 0.56590 0.02432
vt 0.56590 0.00293
vt 0.57411 0.02432
vt 0.31956 0.73878
vt 0.36282 0.73878
vt 0.36282 0.75715
vt 0.31956 0.75715
vt 0.36282 0.85092
vt 0.31956 0.85092
vt 0.31232 0.75715
vt 0.31232 0.85092
vt 0.26906 0.75715
vt 0.26906 0.85092
vt 0.26906 0.73878
vt 0.31232 0.73878
vt 1.31956 0.73878
vt 1.36282 0.73878
vt 1.36282 0.75715
vt 1.31956 0.75715
vt 1.31956 0.85092
vt 1.36282 0.85092
vt 1.31232 0.85092
vt 1.31232 0.75715
vt 1.26906 0.85092
vt 1.26906 0.75715
vt 1.26906 0.73878
vt 1.31232 0.73878
vt 0.08914 0.04218
vt 0.08482 0.02791
vt 0.08915 0.02791
vt 0.08482 0.04218
vt 1.08914 0.04218
vt 1.08915 0.02791
vt 1.08482 0.02791
vt 1.08482 0.04218
vt 0.73531 0.92664
vt 0.73530 0.97647
vt 1.73530 0.97647
vt 1.73531 0.92664
vt 0.53834 0.97824
vt 0.53834 0.93259
vt 1.53834 0.97824
vt 1.53834 0.93259
vn 0.9449 0.3228 0.0000
vn 0.7323 0.6772 0.0000
vn -0.0945 0.9921 0.0000
vn 0.9921 0.1417 0.0000
vn 1.0000 0.0000 0.0000
vn 0.8110 -0.5906 0.0000
vn -1.0000 0.0000 0.0000
vn 0.0000 1.0000 0.0000
vn -0.9921 0.0000 0.0945
vn -0.9921 0.0000 -0.0945
vn 0.0000 0.5748 0.8189
vn 0.0000 0.5748 -0.8189
vn 0.0000 0.0000 1.0000
vn 0.0000 0.0000 -1.0000
vn 0.0000 0.2520 0.9685
vn 0.0000 0.2520 -0.9685
vn 0.4567 -0.8898 0.0000
vn -0.7323 0.6772 0.0000
vn 0.4016 -0.9134 0.0000
vn -0.1181 0.0000 0.9921
vn -0.1181 0.0000 -0.9921
vn 0.0000 -0.4803 0.8740
vn 0.0000 -0.4803 -0.8740
vn -0.9449 0.3228 0.0000
vn 0.0000 -1.0000 0.0000
vn -0.0945 0.0000 -0.9921
vn -0.0945 0.0000 0.9921
vn 0.0000 0.9921 -0.1102
vn 0.0000 0.9921 0.1102
vn 0.0000 -0.8268 0.5591
vn 0.0000 -0.8268 -0.5591
vn 0.0000 0.9370 -0.3543
vn 0.0000 0.9370 0.3543
vn -0.8110 -0.5906 0.0000
vn -0.4567 -0.8898 0.0000
vn 0.0000 0.3071 -0.9528
vn 0.0000 0.3071 0.9528
vn 0.0945 0.0000 -0.9921
vn 0.0945 0.0000 0.9921
vn 0.0000 -0.3071 -0.9528
vn 0.0000 -0.3071 0.9528
vn -0.0945 -0.9921 0.0000
vn 0.0000 -0.9528 -0.2992
vn 0.0000 -0.9528 0.2992
vn 0.0000 -0.9921 0.1260
vn 0.0000 -0.9921 -0.1260

o animal_turtle
usemtl tex_animal_turtle_i008p001x
f 1/1/1 2/2/1 3/3/1
f 2/2/1 1/1/1 4/4/1
f 3/3/2 2/2/2 5/5/2
f 5/5/2 2/2/2 6/6/2
f 7/7/3 8/8/3 9/9/3
f 9/9/3 8/8/3 10/10/3
f 11/11/3 12/12/3 13/13/3
f 12/12/3 11/11/3 14/14/3
f 15/15/3 16/16/3 17/17/3
f 17/17/3 16/16/3 18/18/3
f 19/19/4 20/20/4 21/21/4
f 22/22/4 21/21/4 20/20/4
f 23/20/4 24/21/4 25/22/4
f 23/20/4 26/19/4 24/21/4
f 27/23/5 28/24/5 29/25/5
f 27/23/5 30/26/5 28/24/5
f 31/27/5 28/24/5 30/26/5
f 28/24/5 31/27/5 32/28/5
f 31/27/5 33/29/5 32/28/5
f 31/27/5 34/30/5 33/29/5
f 35/27/5 36/29/5 37/30/5
f 36/29/5 35/27/5 38/28/5
f 35/27/5 39/24/5 38/28/5
f 40/26/5 39/24/5 35/27/5
f 41/23/5 39/24/5 40/26/5
f 39/24/5 41/23/5 42/25/5
f 43/31/5 44/32/5 45/33/5
f 44/32/5 46/34/5 45/33/5
f 47/32/5 48/33/5 49/34/5
f 50/31/5 48/33/5 47/32/5
f 51/35/6 52/36/6 53/37/6
f 52/36/6 51/35/6 54/38/6
f 55/39/7 56/40/7 57/41/7
f 56/40/7 55/39/7 58/42/7
f 59/43/7 60/44/7 61/45/7
f 59/43/7 62/46/7 60/44/7
f 63/47/8 64/48/8 65/49/8
f 66/50/8 65/49/8 64/48/8
f 67/51/8 68/52/8 69/53/8
f 67/51/8 69/53/8 70/54/8
f 71/55/7 72/56/7 73/57/7
f 72/56/7 71/55/7 74/58/7
f 72/56/7 75/59/7 76/60/7
f 75/59/7 72/56/7 74/58/7
f 77/61/7 76/60/7 75/59/7
f 76/60/7 77/61/7 78/62/7
f 77/61/7 79/63/7 78/62/7
f 79/63/7 77/61/7 80/64/7
f 80/64/7 81/65/7 79/63/7
f 81/65/7 80/64/7 82/66/7
f 82/66/7 83/67/7 81/65/7
f 84/68/7 81/65/7 83/67/7
f 66/50/7 85/69/7 65/49/7
f 85/69/7 66/50/7 86/70/7
f 68/52/7 87/71/7 88/72/7
f 68/52/7 67/51/7 87/71/7
f 89/73/9 90/74/9 91/75/9
f 90/74/9 89/73/9 92/76/9
f 93/77/10 94/78/10 95/79/10
f 96/80/10 94/78/10 93/77/10
f 9/81/7 97/82/7 7/83/7
f 97/82/7 9/81/7 98/84/7
f 55/39/8 57/41/8 99/85/8
f 100/86/8 99/85/8 57/41/8
f 62/46/8 59/43/8 101/87/8
f 62/46/8 101/87/8 102/88/8
f 103/89/7 14/90/7 104/91/7
f 14/90/7 103/89/7 12/92/7
f 15/93/7 105/94/7 106/95/7
f 17/96/7 105/94/7 15/93/7
f 107/97/11 5/5/11 108/98/11
f 107/97/11 3/99/11 5/5/11
f 2/100/12 109/101/12 110/102/12
f 2/100/12 110/102/12 6/6/12
f 111/103/13 112/104/13 113/105/13
f 111/103/13 113/105/13 114/106/13
f 113/105/13 115/107/13 114/106/13
f 115/107/13 113/105/13 116/108/13
f 117/109/13 118/110/13 119/111/13
f 117/109/13 119/111/13 120/112/13
f 119/111/13 29/25/13 120/112/13
f 29/25/13 119/111/13 27/23/13
f 121/109/14 122/111/14 123/110/14
f 122/111/14 121/109/14 124/112/14
f 124/112/14 125/25/14 122/111/14
f 122/111/14 125/25/14 126/23/14
f 127/109/14 128/111/14 129/110/14
f 128/111/14 127/109/14 130/112/14
f 130/112/14 42/25/14 128/111/14
f 128/111/14 42/25/14 41/23/14
f 131/113/13 132/114/13 133/115/13
f 131/113/13 133/115/13 134/116/13
f 131/113/13 134/116/13 135/117/13
f 136/118/13 135/117/13 134/116/13
f 137/119/13 135/117/13 136/118/13
f 135/117/13 137/119/13 138/120/13
f 139/121/13 140/122/13 43/123/13
f 139/121/13 43/123/13 45/124/13
f 139/121/13 45/124/13 141/125/13
f 19/126/13 141/125/13 45/124/13
f 21/127/13 141/125/13 19/126/13
f 141/125/13 21/127/13 142/128/13
f 143/121/14 144/123/14 145/122/14
f 144/123/14 143/121/14 146/124/14
f 147/125/14 146/124/14 143/121/14
f 147/125/14 148/126/14 146/124/14
f 147/125/14 149/127/14 148/126/14
f 149/127/14 147/125/14 150/128/14
f 151/121/14 50/123/14 152/122/14
f 50/123/14 151/121/14 48/124/14
f 153/125/14 48/124/14 151/121/14
f 153/125/14 26/126/14 48/124/14
f 153/125/14 24/127/14 26/126/14
f 24/127/14 153/125/14 154/128/14
f 155/129/15 3/99/15 107/97/15
f 3/99/15 155/129/15 1/130/15
f 2/100/16 156/131/16 109/101/16
f 4/132/16 156/131/16 2/100/16
f 108/98/8 5/5/8 6/6/8
f 110/102/8 108/98/8 6/6/8
f 157/133/8 89/134/8 91/135/8
f 89/134/8 157/133/8 158/136/8
f 93/137/8 159/138/8 96/139/8
f 159/138/8 93/137/8 160/140/8
f 161/141/17 53/37/17 162/142/17
f 51/35/17 53/37/17 161/141/17
f 110/102/18 107/143/18 108/98/18
f 107/143/18 110/102/18 109/144/18
f 45/33/19 46/34/19 19/19/19
f 20/20/19 19/19/19 46/34/19
f 49/34/19 48/33/19 26/19/19
f 49/34/19 26/19/19 23/20/19
f 12/145/20 163/146/20 13/147/20
f 12/145/20 103/148/20 163/146/20
f 17/149/21 164/150/21 105/151/21
f 164/150/21 17/149/21 18/152/21
f 165/153/14 166/154/14 167/155/14
f 166/154/14 165/153/14 168/156/14
f 169/153/14 170/154/14 171/155/14
f 170/154/14 169/153/14 172/156/14
f 173/157/13 174/158/13 175/159/13
f 173/157/13 175/159/13 176/160/13
f 177/153/13 178/155/13 179/154/13
f 177/153/13 179/154/13 180/156/13
f 52/36/22 181/161/22 53/37/22
f 181/161/22 52/36/22 182/162/22
f 183/163/23 51/35/23 184/164/23
f 51/35/23 183/163/23 54/38/23
f 109/144/24 155/165/24 107/143/24
f 155/165/24 109/144/24 156/166/24
f 185/167/25 113/168/25 112/169/25
f 113/168/25 185/167/25 186/170/25
f 186/170/25 116/171/25 113/168/25
f 116/171/25 186/170/25 187/172/25
f 187/172/25 186/170/25 175/173/25
f 175/173/25 188/174/25 187/172/25
f 189/175/25 188/174/25 175/173/25
f 188/174/25 189/175/25 190/176/25
f 174/177/25 189/175/25 175/173/25
f 174/177/25 191/178/25 189/175/25
f 192/179/25 119/180/25 118/181/25
f 119/180/25 192/179/25 193/182/25
f 30/183/25 119/180/25 193/182/25
f 119/180/25 30/183/25 27/184/25
f 193/182/25 31/185/25 30/183/25
f 31/185/25 193/182/25 179/186/25
f 179/186/25 34/187/25 31/185/25
f 34/187/25 179/186/25 194/188/25
f 178/189/25 194/188/25 179/186/25
f 178/189/25 195/190/25 194/188/25
f 167/189/25 196/188/25 197/190/25
f 196/188/25 167/189/25 166/186/25
f 166/186/25 198/187/25 196/188/25
f 198/187/25 166/186/25 199/185/25
f 200/182/25 199/185/25 166/186/25
f 199/185/25 200/182/25 201/183/25
f 122/180/25 201/183/25 200/182/25
f 201/183/25 122/180/25 126/184/25
f 200/182/25 123/181/25 122/180/25
f 123/181/25 200/182/25 202/179/25
f 171/189/25 203/188/25 204/190/25
f 203/188/25 171/189/25 170/186/25
f 170/186/25 35/185/25 203/188/25
f 203/188/25 35/185/25 37/187/25
f 205/182/25 35/185/25 170/186/25
f 35/185/25 205/182/25 40/183/25
f 205/182/25 41/184/25 40/183/25
f 128/180/25 41/184/25 205/182/25
f 206/179/25 128/180/25 205/182/25
f 128/180/25 206/179/25 129/181/25
f 9/191/26 106/192/26 98/193/26
f 106/192/26 9/191/26 15/194/26
f 207/195/26 98/193/26 106/192/26
f 9/191/26 16/196/26 15/194/26
f 208/197/26 98/193/26 207/195/26
f 9/191/26 10/198/26 16/196/26
f 207/195/26 10/198/26 208/197/26
f 10/198/26 207/195/26 16/196/26
f 97/199/27 209/200/27 104/201/27
f 209/200/27 97/199/27 210/202/27
f 14/203/27 97/199/27 104/201/27
f 7/204/27 97/199/27 14/203/27
f 11/205/27 7/204/27 14/203/27
f 7/204/27 11/205/27 8/206/27
f 210/202/27 11/205/27 209/200/27
f 11/205/27 210/202/27 8/206/27
f 211/207/28 212/208/28 71/209/28
f 74/210/28 71/209/28 212/208/28
f 83/211/29 82/212/29 213/213/29
f 83/211/29 213/213/29 214/214/29
f 162/142/30 181/161/30 215/215/30
f 181/161/30 162/142/30 53/37/30
f 216/216/31 51/35/31 161/141/31
f 184/164/31 51/35/31 216/216/31
f 77/217/32 75/218/32 217/219/32
f 75/218/32 218/220/32 217/219/32
f 77/217/33 217/219/33 80/221/33
f 80/221/33 217/219/33 219/222/33
f 111/223/7 185/224/7 112/225/7
f 111/223/7 220/226/7 185/224/7
f 173/157/7 191/227/7 174/158/7
f 173/157/7 221/228/7 191/227/7
f 222/229/7 165/153/7 197/230/7
f 167/155/7 197/230/7 165/153/7
f 223/231/7 121/232/7 202/233/7
f 123/234/7 202/233/7 121/232/7
f 182/162/34 183/163/34 181/161/34
f 181/161/34 183/163/34 184/164/34
f 65/49/13 85/69/13 224/235/13
f 65/49/13 224/235/13 63/236/13
f 67/51/14 225/237/14 87/71/14
f 225/237/14 67/51/14 70/238/14
f 186/239/7 226/240/7 176/160/7
f 176/160/7 175/159/7 186/239/7
f 168/156/7 200/241/7 166/154/7
f 227/242/7 200/241/7 168/156/7
f 134/243/19 228/244/19 136/245/19
f 229/246/19 136/245/19 228/244/19
f 146/33/19 230/20/19 231/34/19
f 230/20/19 146/33/19 148/19/19
f 232/247/4 137/248/4 229/246/4
f 136/245/4 229/246/4 137/248/4
f 230/20/4 149/21/4 233/22/4
f 230/20/4 148/19/4 149/21/4
f 131/249/7 234/250/7 132/251/7
f 234/250/7 131/249/7 235/252/7
f 135/253/7 235/252/7 131/249/7
f 235/252/7 135/253/7 236/254/7
f 138/255/7 236/254/7 135/253/7
f 236/254/7 138/255/7 237/256/7
f 181/161/35 216/216/35 215/215/35
f 181/161/35 184/164/35 216/216/35
f 143/257/7 238/258/7 239/259/7
f 238/258/7 143/257/7 145/260/7
f 239/259/7 147/261/7 143/257/7
f 147/261/7 239/259/7 240/262/7
f 240/262/7 150/263/7 147/261/7
f 150/263/7 240/262/7 241/264/7
f 62/46/14 242/265/14 60/44/14
f 242/265/14 62/46/14 102/266/14
f 57/41/13 56/40/13 243/267/13
f 57/41/13 243/267/13 100/268/13
f 215/215/25 161/141/25 162/142/25
f 161/141/25 215/215/25 216/216/25
f 116/108/5 244/269/5 115/107/5
f 116/108/5 187/270/5 244/269/5
f 188/271/5 244/269/5 187/270/5
f 244/269/5 188/271/5 245/272/5
f 188/271/5 246/273/5 245/272/5
f 188/271/5 190/274/5 246/273/5
f 199/27/5 247/29/5 198/30/5
f 247/29/5 199/27/5 248/28/5
f 199/27/5 249/24/5 248/28/5
f 201/26/5 249/24/5 199/27/5
f 126/23/5 249/24/5 201/26/5
f 249/24/5 126/23/5 125/25/5
f 211/275/13 71/276/13 73/277/13
f 73/277/13 250/278/13 211/275/13
f 84/279/14 214/280/14 251/281/14
f 83/282/14 214/280/14 84/279/14
f 133/283/5 252/284/5 134/243/5
f 252/284/5 228/244/5 134/243/5
f 253/32/5 146/33/5 231/34/5
f 144/31/5 146/33/5 253/32/5
f 137/285/8 237/286/8 138/287/8
f 237/286/8 137/285/8 232/288/8
f 142/289/8 21/290/8 22/291/8
f 254/292/8 142/289/8 22/291/8
f 149/290/8 241/292/8 233/291/8
f 241/292/8 149/290/8 150/289/8
f 24/290/8 255/292/8 25/291/8
f 255/292/8 24/290/8 154/289/8
f 74/293/36 212/294/36 218/295/36
f 75/296/36 74/293/36 218/295/36
f 80/297/37 219/298/37 82/299/37
f 82/299/37 219/298/37 213/300/37
f 96/301/38 256/302/38 94/303/38
f 256/302/38 96/301/38 159/304/38
f 91/305/39 90/306/39 257/307/39
f 91/305/39 257/307/39 157/308/39
f 158/309/26 92/310/26 89/311/26
f 92/310/26 158/309/26 258/312/26
f 93/313/27 95/314/27 160/315/27
f 259/316/27 160/315/27 95/314/27
f 81/317/40 260/318/40 79/319/40
f 79/319/40 260/318/40 261/320/40
f 72/321/41 76/322/41 262/323/41
f 76/322/41 263/324/41 262/323/41
f 52/36/25 155/325/25 182/162/25
f 156/326/25 182/162/25 155/325/25
f 1/327/25 155/325/25 52/36/25
f 182/162/25 156/326/25 183/163/25
f 52/36/25 4/328/25 1/327/25
f 156/326/25 4/328/25 183/163/25
f 4/328/25 52/36/25 54/38/25
f 183/163/25 4/328/25 54/38/25
f 64/329/14 86/70/14 66/50/14
f 86/70/14 64/329/14 264/330/14
f 265/331/13 69/332/13 88/72/13
f 68/52/13 88/72/13 69/332/13
f 58/42/14 55/39/14 99/333/14
f 58/42/14 99/333/14 266/334/14
f 59/43/13 61/45/13 101/335/13
f 267/336/13 101/335/13 61/45/13
f 210/337/5 10/338/5 8/339/5
f 10/338/5 210/337/5 208/340/5
f 163/341/5 11/342/5 13/343/5
f 209/344/5 11/342/5 163/341/5
f 16/345/5 207/346/5 164/347/5
f 164/347/5 18/348/5 16/345/5
f 97/349/42 208/350/42 210/351/42
f 97/349/42 98/352/42 208/350/42
f 104/353/42 209/354/42 103/355/42
f 163/356/42 103/355/42 209/354/42
f 105/357/42 207/358/42 106/359/42
f 207/358/42 105/357/42 164/360/42
f 78/361/43 79/362/43 261/363/43
f 78/361/43 261/363/43 268/364/43
f 268/364/44 76/365/44 78/361/44
f 76/365/44 268/364/44 263/366/44
f 191/367/14 269/368/14 189/369/14
f 191/367/14 221/370/14 269/368/14
f 190/274/14 189/369/14 269/368/14
f 269/368/14 246/273/14 190/274/14
f 195/371/14 270/372/14 194/373/14
f 195/371/14 271/374/14 270/372/14
f 34/30/14 194/373/14 270/372/14
f 270/372/14 33/29/14 34/30/14
f 272/372/13 197/371/13 196/373/13
f 197/371/13 272/372/13 222/374/13
f 196/373/13 198/30/13 272/372/13
f 272/372/13 198/30/13 247/29/13
f 273/372/13 204/371/13 203/373/13
f 204/371/13 273/372/13 274/374/13
f 37/30/13 273/372/13 203/373/13
f 273/372/13 37/30/13 36/29/13
f 228/375/14 234/376/14 235/377/14
f 234/376/14 228/375/14 252/378/14
f 236/379/14 228/375/14 235/377/14
f 228/375/14 236/379/14 229/380/14
f 236/379/14 232/381/14 229/380/14
f 237/382/14 232/381/14 236/379/14
f 275/383/14 46/384/14 276/385/14
f 276/385/14 46/384/14 44/386/14
f 277/387/14 46/384/14 275/383/14
f 46/384/14 277/387/14 20/388/14
f 277/387/14 22/389/14 20/388/14
f 254/390/14 22/389/14 277/387/14
f 239/383/13 238/385/13 231/384/13
f 238/385/13 253/386/13 231/384/13
f 231/384/13 240/387/13 239/383/13
f 240/387/13 231/384/13 230/388/13
f 240/387/13 230/388/13 233/389/13
f 233/389/13 241/390/13 240/387/13
f 278/383/13 279/385/13 49/384/13
f 279/385/13 47/386/13 49/384/13
f 49/384/13 280/387/13 278/383/13
f 280/387/13 49/384/13 23/388/13
f 280/387/13 23/388/13 25/389/13
f 25/389/13 255/390/13 280/387/13
f 73/391/45 72/392/45 250/393/45
f 262/394/45 250/393/45 72/392/45
f 81/395/46 251/396/46 260/397/46
f 251/396/46 81/395/46 84/398/46
f 220/399/8 111/400/8 114/401/8
f 220/399/8 114/401/8 226/402/8
f 114/401/8 115/403/8 226/402/8
f 226/402/8 115/403/8 244/404/8
f 244/404/8 176/405/8 226/402/8
f 176/405/8 244/404/8 245/406/8
f 176/405/8 245/406/8 269/407/8
f 269/407/8 245/406/8 246/408/8
f 221/409/8 176/405/8 269/407/8
f 221/409/8 173/410/8 176/405/8
f 281/411/8 117/412/8 120/413/8
f 281/411/8 120/413/8 282/414/8
f 120/413/8 28/415/8 282/414/8
f 28/415/8 120/413/8 29/416/8
f 32/417/8 282/414/8 28/415/8
f 282/414/8 32/417/8 180/418/8
f 33/419/8 180/418/8 32/417/8
f 180/418/8 33/419/8 270/420/8
f 271/421/8 180/418/8 270/420/8
f 271/421/8 177/422/8 180/418/8
f 168/418/8 222/421/8 272/420/8
f 222/421/8 168/418/8 165/422/8
f 247/419/8 168/418/8 272/420/8
f 168/418/8 247/419/8 248/417/8
f 168/418/8 248/417/8 227/414/8
f 227/414/8 248/417/8 249/415/8
f 249/415/8 124/413/8 227/414/8
f 124/413/8 249/415/8 125/416/8
f 124/413/8 223/411/8 227/414/8
f 223/411/8 124/413/8 121/412/8
f 273/420/8 169/422/8 274/421/8
f 169/422/8 273/420/8 172/418/8
f 273/420/8 38/417/8 172/418/8
f 38/417/8 273/420/8 36/419/8
f 172/418/8 38/417/8 283/414/8
f 283/414/8 38/417/8 39/415/8
f 42/416/8 283/414/8 39/415/8
f 283/414/8 42/416/8 130/413/8
f 130/413/8 284/411/8 283/414/8
f 284/411/8 130/413/8 127/412/8
f 92/423/25 257/424/25 90/425/25
f 257/424/25 92/423/25 258/426/25
f 95/427/25 94/428/25 256/429/25
f 95/427/25 256/429/25 259/430/25
f 117/232/7 192/233/7 118/234/7
f 117/232/7 281/231/7 192/233/7
f 177/153/7 195/230/7 178/155/7
f 177/153/7 271/229/7 195/230/7
f 171/155/7 204/230/7 169/153/7
f 274/229/7 169/153/7 204/230/7
f 284/231/7 127/232/7 206/233/7
f 129/234/7 206/233/7 127/232/7
f 185/224/14 226/240/14 186/239/14
f 185/224/14 220/226/14 226/240/14
f 192/233/14 282/242/14 193/241/14
f 192/233/14 281/231/14 282/242/14
f 227/242/13 202/233/13 200/241/13
f 202/233/13 227/242/13 223/231/13
f 283/242/13 206/233/13 205/241/13
f 206/233/13 283/242/13 284/231/13
f 193/241/7 282/242/7 180/156/7
f 180/156/7 179/154/7 193/241/7
f 172/156/7 205/241/7 170/154/7
f 283/242/7 205/241/7 172/156/7
f 139/257/7 276/258/7 140/260/7
f 276/258/7 139/257/7 275/259/7
f 141/261/7 275/259/7 139/257/7
f 275/259/7 141/261/7 277/262/7
f 142/263/7 277/262/7 141/261/7
f 277/262/7 142/263/7 254/264/7
f 151/257/7 279/258/7 278/259/7
f 279/258/7 151/257/7 152/260/7
f 278/259/7 153/261/7 151/257/7
f 153/261/7 278/259/7 280/262/7
f 280/262/7 154/263/7 153/261/7
f 154/263/7 280/262/7 255/264/7
f 264/431/25 85/69/25 86/70/25
f 85/69/25 264/431/25 224/432/25
f 88/72/25 225/433/25 265/434/25
f 88/72/25 87/71/25 225/433/25
f 58/42/25 243/435/25 56/40/25
f 243/435/25 58/42/25 266/436/25
f 61/45/25 242/437/25 267/438/25
f 61/45/25 60/44/25 242/437/25
