# Roblox asset pack: maiasaura (creatures), from the Studio model "Maiasaura". Exported with Export Selection, split by tools/build_creatures.py: one object per rigid body. Units: studs. +Y up, front faces -Z, pivot (bottom centre) at the origin.
mtllib maiasaura.mtl

v 3.00000 6.59990 -4.34000
v 3.00000 6.59990 -1.94000
v 3.00000 1.19990 -4.34000
v 3.00000 1.19990 -1.94000
v 1.20000 6.59990 -1.94000
v 1.20000 6.59990 -4.34000
v 1.20000 1.19990 -1.94000
v 1.20000 1.19990 -4.34000
v 3.00000 1.19990 -3.14000
v 3.00000 -0.00010 -3.14000
v 3.00000 -0.00010 -1.94000
v 1.20000 1.19990 -3.14000
v 1.20000 -0.00010 -1.94000
v 1.20000 -0.00010 -3.14000
v 3.00000 -0.00010 -4.34000
v 1.20000 -0.00010 -4.34000
v 0.90000 11.99990 -0.44000
v 0.90000 11.99990 6.16000
v 0.90000 9.59990 -0.44000
v 0.90000 9.59990 6.16000
v -0.90000 11.99990 6.16000
v -0.90000 11.99990 -0.44000
v -0.90000 9.59990 6.16000
v -0.90000 9.59990 -0.44000
v 2.40000 10.79990 3.46000
v 2.40000 10.79990 4.66000
v 2.40000 9.59990 3.46000
v 2.40000 9.59990 4.66000
v -2.40000 10.79990 4.66000
v -2.40000 10.79990 3.46000
v -2.40000 9.59990 4.66000
v -2.40000 9.59990 3.46000
v 3.60000 9.59990 1.06000
v 3.60000 9.59990 2.26000
v 3.60000 7.19990 1.06000
v 3.60000 7.19990 2.26000
v -3.60000 9.59990 2.26000
v -3.60000 9.59990 1.06000
v -3.60000 7.19990 2.26000
v -3.60000 7.19990 1.06000
v 2.40000 10.79990 1.06000
v 2.40000 10.79990 2.26000
v 2.40000 9.59990 1.06000
v 2.40000 9.59990 2.26000
v -2.40000 10.79990 2.26000
v -2.40000 10.79990 1.06000
v -2.40000 9.59990 2.26000
v -2.40000 9.59990 1.06000
v 3.60000 9.59990 3.46000
v 3.60000 9.59990 4.66000
v 3.60000 7.19990 3.46000
v 3.60000 7.19990 4.66000
v -3.60000 9.59990 4.66000
v -3.60000 9.59990 3.46000
v -3.60000 7.19990 4.66000
v -3.60000 7.19990 3.46000
v 3.00000 5.39990 -0.14000
v 3.00000 5.39990 6.46000
v 3.00000 3.59990 -0.14000
v 3.00000 3.59990 6.46000
v -3.00000 5.39990 6.46000
v -3.00000 5.39990 -0.14000
v -3.00000 3.59990 6.46000
v -3.00000 3.59990 -0.14000
v 3.60000 7.19990 -0.14000
v 3.60000 7.19990 5.86000
v 3.60000 5.39990 -0.14000
v 3.60000 5.39990 5.86000
v -3.60000 7.19990 5.86000
v -3.60000 7.19990 -0.14000
v -3.60000 5.39990 5.86000
v -3.60000 5.39990 -0.14000
v 2.40000 10.79990 -0.14000
v 2.40000 9.59990 -0.14000
v -2.40000 10.79990 -0.14000
v -2.40000 9.59990 -0.14000
v 2.40000 10.79990 5.86000
v 2.40000 9.59990 5.86000
v -2.40000 10.79990 5.86000
v -2.40000 9.59990 5.86000
v 3.60000 9.59990 -0.14000
v -3.60000 9.59990 -0.14000
v 3.60000 9.59990 5.86000
v -3.60000 9.59990 5.86000
v -1.20000 1.19990 -4.34000
v -1.20000 1.19990 -3.14000
v -1.20000 -0.00010 -4.34000
v -1.20000 -0.00010 -3.14000
v -3.00000 1.19990 -3.14000
v -3.00000 1.19990 -4.34000
v -3.00000 -0.00010 -3.14000
v -3.00000 -0.00010 -4.34000
v -1.20000 1.19990 -1.94000
v -1.20000 -0.00010 -1.94000
v -3.00000 1.19990 -1.94000
v -3.00000 -0.00010 -1.94000
v -1.20000 6.59990 -4.34000
v -1.20000 6.59990 -1.94000
v -3.00000 6.59990 -1.94000
v -3.00000 6.59990 -4.34000
v 1.80000 9.00990 -15.74000
v 1.80000 10.25990 -8.65000
v 1.80000 7.82990 -15.54000
v 1.80000 9.07990 -8.44000
v -1.80000 10.25990 -8.65000
v -1.80000 9.00990 -15.74000
v -1.80000 9.07990 -8.44000
v -1.80000 7.82990 -15.54000
v 1.80000 10.78990 -16.06000
v 1.80000 11.51990 -11.92000
v 1.80000 9.60990 -15.85000
v 1.80000 10.32990 -11.71000
v -1.80000 11.51990 -11.92000
v -1.80000 10.78990 -16.06000
v -1.80000 10.32990 -11.71000
v -1.80000 9.60990 -15.85000
v 2.10000 12.90990 -10.95000
v 2.10000 13.16990 -9.47000
v 2.10000 11.42990 -10.69000
v 2.10000 11.68990 -9.21000
v -2.10000 13.16990 -9.47000
v -2.10000 12.90990 -10.95000
v -2.10000 11.68990 -9.21000
v -2.10000 11.42990 -10.69000
v 1.20000 10.98990 -9.80000
v 1.20000 11.36990 -8.98000
v 1.20000 6.90990 -7.90000
v 1.20000 7.28990 -7.08000
v -1.20000 11.36990 -8.98000
v -1.20000 10.98990 -9.80000
v -1.20000 7.28990 -7.08000
v -1.20000 6.90990 -7.90000
v 1.50000 6.84990 -8.01000
v 1.50000 7.82990 -7.32000
v 1.50000 4.60990 -4.81000
v 1.50000 5.59990 -4.12000
v -1.50000 7.82990 -7.32000
v -1.50000 6.84990 -8.01000
v -1.50000 5.59990 -4.12000
v -1.50000 4.60990 -4.81000
v 1.20000 11.47990 -15.57000
v 1.20000 11.58990 -14.98000
v 1.20000 10.88990 -15.46000
v 1.20000 10.99990 -14.87000
v 0.60000 11.58990 -14.98000
v 0.60000 11.47990 -15.57000
v 0.60000 10.99990 -14.87000
v 0.60000 10.88990 -15.46000
v -0.60000 11.47990 -15.57000
v -0.60000 11.58990 -14.98000
v -0.60000 10.88990 -15.46000
v -0.60000 10.99990 -14.87000
v -1.20000 11.58990 -14.98000
v -1.20000 11.47990 -15.57000
v -1.20000 10.99990 -14.87000
v -1.20000 10.88990 -15.46000
v 1.50000 9.30990 -6.29000
v 1.50000 7.06990 -3.09000
v -1.50000 9.30990 -6.29000
v -1.50000 7.06990 -3.09000
v 1.80000 13.28990 -12.23000
v 1.80000 14.01990 -8.10000
v 1.80000 9.73990 -11.61000
v 1.80000 10.46990 -7.47000
v -1.80000 14.01990 -8.10000
v -1.80000 13.28990 -12.23000
v -1.80000 10.46990 -7.47000
v -1.80000 9.73990 -11.61000
v 1.20000 11.63990 -9.11000
v 1.20000 12.26990 -7.75000
v 1.20000 7.91990 -5.72000
v -1.20000 12.26990 -7.75000
v -1.20000 11.63990 -9.11000
v -1.20000 7.91990 -5.72000
v 1.80000 10.26990 -8.65000
v 1.80000 9.28990 -7.26000
v -1.80000 10.26990 -8.65000
v -1.80000 9.28990 -7.26000
v 1.20000 12.17990 -15.08000
v 1.20000 12.79990 -11.54000
v 1.20000 11.61990 -11.33000
v -1.20000 12.79990 -11.54000
v -1.20000 12.17990 -15.08000
v -1.20000 11.61990 -11.33000
v 0.60000 12.06990 -15.67000
v 0.60000 12.17990 -15.08000
v -0.60000 12.17990 -15.08000
v -0.60000 12.06990 -15.67000
v 0.90000 9.40990 -6.95000
v 0.90000 10.13990 -6.43000
v 0.90000 7.50990 -4.25000
v 0.90000 8.24990 -3.73000
v -0.90000 10.13990 -6.43000
v -0.90000 9.40990 -6.95000
v -0.90000 8.24990 -3.73000
v -0.90000 7.50990 -4.25000
v 0.90000 12.26990 -7.75000
v 0.90000 12.39990 -7.48000
v 0.90000 7.91990 -5.72000
v 0.90000 8.04990 -5.45000
v -0.90000 12.39990 -7.48000
v -0.90000 12.26990 -7.75000
v -0.90000 8.04990 -5.45000
v -0.90000 7.91990 -5.72000
v 0.90000 13.52990 -12.58000
v 0.90000 14.36990 -7.85000
v 0.90000 9.68990 -11.90000
v 0.90000 10.52990 -7.18000
v -0.90000 14.36990 -7.85000
v -0.90000 13.52990 -12.58000
v -0.90000 10.52990 -7.18000
v -0.90000 9.68990 -11.90000
v 1.20000 9.91990 -14.07000
v 1.20000 10.32990 -11.71000
v 1.20000 9.32990 -13.97000
v 1.20000 9.73990 -11.61000
v -1.20000 10.32990 -11.71000
v -1.20000 9.91990 -14.07000
v -1.20000 9.73990 -11.61000
v -1.20000 9.32990 -13.97000
v -2.10500 13.16990 -9.47000
v -2.10500 12.90990 -10.95000
v -2.10500 11.68990 -9.21000
v -2.10500 11.42990 -10.69000
v 2.10500 12.90990 -10.95000
v 2.10500 13.16990 -9.47000
v 2.10500 11.42990 -10.69000
v 2.10500 11.68990 -9.21000
v 5.40000 8.39990 2.26000
v 5.40000 8.39990 3.46000
v 5.40000 5.99990 2.26000
v 5.40000 5.99990 3.46000
v 3.00000 8.39990 3.46000
v 3.00000 8.39990 2.26000
v 3.00000 5.99990 3.46000
v 3.00000 5.99990 2.26000
v 5.40000 1.19990 2.86000
v 5.40000 1.19990 5.26000
v 5.40000 -0.00010 2.86000
v 5.40000 -0.00010 5.26000
v 3.00000 1.19990 5.26000
v 3.00000 1.19990 2.86000
v 3.00000 -0.00010 5.26000
v 3.00000 -0.00010 2.86000
v 5.40000 5.99990 5.26000
v 5.40000 1.19990 2.26000
v 3.00000 5.99990 5.26000
v 3.00000 1.19990 2.26000
v 5.40000 8.39990 4.66000
v 5.40000 8.39990 5.26000
v 5.40000 5.99990 4.66000
v 3.00000 8.39990 5.26000
v 3.00000 8.39990 4.66000
v 3.00000 5.99990 4.66000
v 5.40000 1.19990 1.66000
v 5.40000 -0.00010 1.66000
v 3.00000 1.19990 1.66000
v 3.00000 -0.00010 1.66000
v 1.80000 10.19990 7.06000
v 1.80000 10.19990 8.26000
v 1.80000 7.19990 7.06000
v 1.80000 7.19990 8.26000
v -1.80000 10.19990 8.26000
v -1.80000 10.19990 7.06000
v -1.80000 7.19990 8.26000
v -1.80000 7.19990 7.06000
v 1.20000 8.99990 11.56000
v 1.20000 8.99990 12.16000
v 1.20000 7.79990 11.56000
v 1.20000 7.79990 12.16000
v -1.20000 8.99990 12.16000
v -1.20000 8.99990 11.56000
v -1.20000 7.79990 12.16000
v -1.20000 7.79990 11.56000
v 0.60000 11.88990 6.18000
v 0.60000 9.32990 13.23000
v 0.60000 9.91990 5.46000
v 0.60000 7.34990 12.51000
v -0.60000 9.32990 13.23000
v -0.60000 11.88990 6.18000
v -0.60000 7.34990 12.51000
v -0.60000 9.91990 5.46000
v 1.20000 8.99990 9.46000
v 1.20000 8.99990 10.36000
v 1.20000 7.79990 9.46000
v 1.20000 7.79990 10.36000
v -1.20000 8.99990 10.36000
v -1.20000 8.99990 9.46000
v -1.20000 7.79990 10.36000
v -1.20000 7.79990 9.46000
v 0.90000 8.39990 13.66000
v 0.90000 8.39990 16.06000
v 0.90000 7.49990 13.66000
v 0.90000 7.49990 16.06000
v -0.90000 8.39990 16.06000
v -0.90000 8.39990 13.66000
v -0.90000 7.49990 16.06000
v -0.90000 7.49990 13.66000
v 1.80000 9.59990 8.26000
v 1.80000 9.59990 9.46000
v 1.80000 6.59990 8.26000
v 1.80000 6.59990 9.46000
v -1.80000 9.59990 9.46000
v -1.80000 9.59990 8.26000
v -1.80000 6.59990 9.46000
v -1.80000 6.59990 8.26000
v 1.80000 6.59990 7.06000
v -1.80000 6.59990 7.06000
v 1.20000 7.79990 13.66000
v 1.20000 7.19990 9.46000
v 1.20000 7.19990 13.66000
v -1.20000 7.79990 13.66000
v -1.20000 7.19990 13.66000
v -1.20000 7.19990 9.46000
v 1.80000 10.19990 5.86000
v 1.80000 6.59990 5.86000
v -1.80000 10.19990 5.86000
v -1.80000 6.59990 5.86000
v 1.20000 8.99990 13.66000
v -1.20000 8.99990 13.66000
v 1.80000 5.39990 5.86000
v 1.80000 5.39990 9.46000
v -1.80000 5.39990 9.46000
v -1.80000 5.39990 5.86000
v 0.90000 7.49990 15.16000
v 0.90000 6.89990 13.66000
v 0.90000 6.89990 15.16000
v -0.90000 7.49990 15.16000
v -0.90000 6.89990 15.16000
v -0.90000 6.89990 13.66000
v 1.20000 6.59990 9.46000
v 1.20000 6.59990 13.66000
v -1.20000 6.59990 13.66000
v -1.20000 6.59990 9.46000
v -3.00000 8.39990 4.66000
v -3.00000 8.39990 5.26000
v -3.00000 5.99990 4.66000
v -3.00000 5.99990 5.26000
v -5.40000 8.39990 5.26000
v -5.40000 8.39990 4.66000
v -5.40000 5.99990 5.26000
v -5.40000 5.99990 4.66000
v -3.00000 8.39990 2.26000
v -3.00000 8.39990 3.46000
v -3.00000 5.99990 2.26000
v -3.00000 5.99990 3.46000
v -5.40000 8.39990 3.46000
v -5.40000 8.39990 2.26000
v -5.40000 5.99990 3.46000
v -5.40000 5.99990 2.26000
v -3.00000 1.19990 2.86000
v -3.00000 1.19990 5.26000
v -3.00000 -0.00010 2.86000
v -3.00000 -0.00010 5.26000
v -5.40000 1.19990 5.26000
v -5.40000 1.19990 2.86000
v -5.40000 -0.00010 5.26000
v -5.40000 -0.00010 2.86000
v -3.00000 1.19990 2.26000
v -5.40000 1.19990 2.26000
v -3.00000 1.19990 1.66000
v -3.00000 -0.00010 1.66000
v -5.40000 1.19990 1.66000
v -5.40000 -0.00010 1.66000
v 2.40000 9.59990 -3.14000
v 2.40000 9.59990 -1.94000
v 2.40000 7.79990 -3.14000
v 2.40000 7.79990 -1.94000
v -2.40000 9.59990 -1.94000
v -2.40000 9.59990 -3.14000
v -2.40000 7.79990 -1.94000
v -2.40000 7.79990 -3.14000
v 2.40000 10.19990 -1.04000
v 2.40000 10.19990 -0.14000
v 2.40000 7.79990 -1.04000
v 2.40000 7.79990 -0.14000
v -2.40000 10.19990 -0.14000
v -2.40000 10.19990 -1.04000
v -2.40000 7.79990 -0.14000
v -2.40000 7.79990 -1.04000
v 2.40000 8.99990 -4.94000
v 2.40000 8.99990 -3.74000
v 2.40000 7.79990 -4.94000
v 2.40000 7.79990 -3.74000
v -2.40000 8.99990 -3.74000
v -2.40000 8.99990 -4.94000
v -2.40000 7.79990 -3.74000
v -2.40000 7.79990 -4.94000
v 2.40000 5.99990 -4.94000
v 2.40000 5.99990 -0.14000
v -2.40000 5.99990 -0.14000
v -2.40000 5.99990 -4.94000
v 0.90000 9.14990 -5.07000
v 0.90000 11.69990 -0.66000
v 0.90000 7.32990 -4.02000
v 0.90000 9.87990 0.39000
v -0.90000 11.69990 -0.66000
v -0.90000 9.14990 -5.07000
v -0.90000 9.87990 0.39000
v -0.90000 7.32990 -4.02000
v 2.40000 9.89990 -1.94000
v 2.40000 9.89990 -1.04000
v -2.40000 9.89990 -1.04000
v -2.40000 9.89990 -1.94000
v 2.40000 8.99990 -3.14000
v -2.40000 8.99990 -3.14000
v 2.40000 4.19990 -4.94000
v 2.40000 4.19990 -0.14000
v -2.40000 4.19990 -0.14000
v -2.40000 4.19990 -4.94000
vt 1.55000 -3.25000
vt 1.25000 -3.25000
vt 1.55000 -3.92500
vt 1.25000 -3.92500
vt 1.47500 -3.25000
vt 1.47500 -3.55000
vt 1.25000 -3.55000
vt 1.47500 -3.92500
vt 7.90000 -6.00000
vt 7.75000 -6.00000
vt 7.90000 -6.15000
vt 7.75000 -6.15000
vt 7.97500 -6.00000
vt 7.97500 -6.15000
vt 3.90000 -5.25000
vt 3.75000 -5.25000
vt 3.90000 -5.40000
vt 3.75000 -5.40000
vt 3.97500 -5.25000
vt 3.97500 -5.40000
vt 3.32500 -4.50000
vt 2.50000 -4.50000
vt 3.32500 -4.80000
vt 2.50000 -4.80000
vt 2.72500 -4.50000
vt 2.72500 -5.32500
vt 2.50000 -5.32500
vt 2.72500 -4.80000
vt 1.65000 -4.75000
vt 1.50000 -4.75000
vt 1.65000 -4.90000
vt 1.50000 -4.90000
vt 2.10000 -4.75000
vt 2.10000 -4.90000
vt 3.65000 -2.00000
vt 3.50000 -2.00000
vt 3.65000 -2.30000
vt 3.50000 -2.30000
vt 4.40000 -2.00000
vt 4.40000 -2.15000
vt 3.50000 -2.15000
vt 4.40000 -2.30000
vt 2.90000 -4.75000
vt 2.75000 -4.75000
vt 2.90000 -4.90000
vt 2.75000 -4.90000
vt 3.35000 -4.75000
vt 3.35000 -4.90000
vt 1.90000 -2.50000
vt 1.75000 -2.50000
vt 1.90000 -2.80000
vt 1.75000 -2.80000
vt 2.65000 -2.50000
vt 2.65000 -2.65000
vt 1.75000 -2.65000
vt 2.65000 -2.80000
vt 2.32500 -1.25000
vt 1.50000 -1.25000
vt 2.32500 -1.47500
vt 1.50000 -1.47500
vt 2.25000 -1.25000
vt 2.25000 -2.07500
vt 1.50000 -2.07500
vt 2.25000 -1.47500
vt 3.15000 -6.25000
vt 3.00000 -6.25000
vt 3.15000 -6.55000
vt 3.00000 -6.55000
vt 3.90000 -6.25000
vt 3.90000 -6.40000
vt 3.00000 -6.40000
vt 3.90000 -6.55000
vt 4.25000 -5.50000
vt 3.50000 -5.50000
vt 4.25000 -5.72500
vt 3.50000 -5.72500
vt 4.40000 -5.50000
vt 4.40000 -6.25000
vt 3.50000 -6.25000
vt 4.40000 -5.72500
vt 0.90000 -4.25000
vt 0.75000 -4.25000
vt 0.90000 -4.40000
vt 0.75000 -4.40000
vt 1.35000 -4.25000
vt 1.35000 -4.40000
vt 5.15000 0.50000
vt 5.00000 0.50000
vt 5.15000 0.35000
vt 5.00000 0.35000
vt 5.60000 0.50000
vt 5.60000 0.35000
vt 0.90000 -4.00000
vt 0.75000 -4.00000
vt 0.90000 -4.30000
vt 0.75000 -4.30000
vt 1.65000 -4.00000
vt 1.65000 -4.15000
vt 0.75000 -4.15000
vt 1.65000 -4.30000
vt 4.40000 -5.65000
vt 4.25000 -5.65000
vt 4.85000 -5.50000
vt 4.85000 -5.65000
vt 6.65000 -5.25000
vt 6.50000 -5.25000
vt 6.65000 -5.55000
vt 6.50000 -5.55000
vt 7.40000 -5.25000
vt 7.40000 -5.40000
vt 6.50000 -5.40000
vt 7.40000 -5.55000
vt 7.65000 -6.00000
vt 7.50000 -6.00000
vt 7.65000 -6.15000
vt 7.50000 -6.15000
vt 7.72500 -6.00000
vt 7.72500 -6.15000
vt 0.65000 -5.00000
vt 0.50000 -5.00000
vt 0.65000 -5.15000
vt 0.50000 -5.15000
vt 0.72500 -5.00000
vt 0.72500 -5.15000
vt 4.80000 -0.50000
vt 4.50000 -0.50000
vt 4.80000 -1.17500
vt 4.50000 -1.17500
vt 4.72500 -0.50000
vt 4.72500 -0.80000
vt 4.50000 -0.80000
vt 4.72500 -1.17500
vt 1.65000 0.25000
vt 0.75000 0.25000
vt 1.65000 0.10000
vt 0.75000 0.10000
vt 1.20000 0.25000
vt 1.20000 -0.65000
vt 0.75000 -0.65000
vt 1.20000 0.10000
vt 6.02500 -5.00000
vt 5.50000 -5.00000
vt 6.02500 -5.15000
vt 5.50000 -5.15000
vt 5.95000 -5.00000
vt 5.95000 -5.52500
vt 5.50000 -5.52500
vt 5.95000 -5.15000
vt 4.68750 -6.75000
vt 4.50000 -6.75000
vt 4.68750 -6.93750
vt 4.50000 -6.93750
vt 5.02500 -6.75000
vt 5.02500 -6.93750
vt 4.11250 -6.25000
vt 4.00000 -6.25000
vt 4.11250 -6.81250
vt 4.00000 -6.81250
vt 4.30000 -6.25000
vt 4.30000 -6.36250
vt 4.00000 -6.36250
vt 4.30000 -6.81250
vt 2.65000 -3.25000
vt 2.50000 -3.25000
vt 2.65000 -3.73750
vt 2.50000 -3.73750
vt 2.87500 -3.25000
vt 2.87500 -3.40000
vt 2.50000 -3.40000
vt 2.87500 -3.73750
vt 0.07500 -2.50000
vt 0.00000 -2.50000
vt 0.07500 -2.57500
vt 0.00000 -2.57500
vt 5.57500 -5.25000
vt 5.50000 -5.25000
vt 5.57500 -5.32500
vt 5.50000 -5.32500
vt 2.97500 -4.75000
vt 2.97500 -5.23750
vt 2.75000 -5.23750
vt 3.12500 -4.75000
vt 3.12500 -4.97500
vt 2.75000 -4.97500
vt 3.12500 -5.23750
vt 5.52500 -1.25000
vt 5.00000 -1.25000
vt 5.52500 -1.70000
vt 5.00000 -1.70000
vt 5.45000 -1.25000
vt 5.45000 -1.77500
vt 5.00000 -1.77500
vt 5.45000 -1.70000
vt 4.93750 -5.75000
vt 4.75000 -5.75000
vt 4.93750 -6.35000
vt 4.75000 -6.35000
vt 5.05000 -5.75000
vt 5.05000 -5.93750
vt 4.75000 -5.93750
vt 5.05000 -6.35000
vt 0.15000 -2.50000
vt 0.15000 -2.65000
vt 0.00000 -2.65000
vt 0.45000 -2.50000
vt 0.45000 -2.65000
vt 7.95000 -2.50000
vt 7.50000 -2.50000
vt 7.95000 -2.65000
vt 7.50000 -2.65000
vt 7.80000 -2.50000
vt 7.80000 -2.95000
vt 7.50000 -2.95000
vt 7.80000 -2.65000
vt 0.57500 -1.50000
vt 0.50000 -1.50000
vt 0.57500 -1.65000
vt 0.50000 -1.65000
vt 0.65000 -1.50000
vt 0.65000 -1.57500
vt 0.50000 -1.57500
vt 0.65000 -1.65000
vt 2.61250 -1.50000
vt 2.50000 -1.50000
vt 2.61250 -1.91250
vt 2.50000 -1.91250
vt 2.72500 -1.50000
vt 2.72500 -1.61250
vt 2.50000 -1.61250
vt 2.72500 -1.91250
vt 6.03750 -2.25000
vt 6.00000 -2.25000
vt 6.03750 -2.85000
vt 6.00000 -2.85000
vt 6.22500 -2.25000
vt 6.22500 -2.28750
vt 6.00000 -2.28750
vt 6.22500 -2.85000
vt 3.35000 -6.50000
vt 2.75000 -6.50000
vt 3.35000 -6.98750
vt 2.75000 -6.98750
vt 2.97500 -6.50000
vt 2.97500 -7.10000
vt 2.75000 -7.10000
vt 2.97500 -6.98750
vt 2.80000 -0.50000
vt 2.50000 -0.50000
vt 2.80000 -0.57500
vt 2.50000 -0.57500
vt 2.80000 -0.80000
vt 2.50000 -0.80000
vt 1.00000 1.00000
vt 0.00000 1.00000
vt 1.00000 0.00000
vt 0.00000 0.00000
vt 5.15000 -0.25000
vt 5.00000 -0.25000
vt 5.15000 -0.55000
vt 5.00000 -0.55000
vt 5.30000 -0.25000
vt 5.30000 -0.40000
vt 5.00000 -0.40000
vt 5.30000 -0.55000
vt 5.05000 -0.25000
vt 4.75000 -0.25000
vt 5.05000 -0.40000
vt 4.75000 -0.40000
vt 5.05000 -0.55000
vt 4.75000 -0.55000
vt 7.87500 0.25000
vt 7.50000 0.25000
vt 7.87500 -0.35000
vt 7.50000 -0.35000
vt 7.80000 0.25000
vt 7.80000 -0.12500
vt 7.50000 -0.12500
vt 7.80000 -0.35000
vt 7.32500 -1.50000
vt 7.25000 -1.50000
vt 7.32500 -1.80000
vt 7.25000 -1.80000
vt 7.55000 -1.50000
vt 7.55000 -1.57500
vt 7.25000 -1.57500
vt 7.55000 -1.80000
vt 0.90000 -4.50000
vt 0.75000 -4.50000
vt 0.90000 -4.80000
vt 0.75000 -4.80000
vt 1.05000 -4.50000
vt 1.05000 -4.65000
vt 0.75000 -4.65000
vt 1.05000 -4.80000
vt 2.15000 -3.00000
vt 2.00000 -3.00000
vt 2.15000 -3.15000
vt 2.00000 -3.15000
vt 2.30000 -3.00000
vt 2.30000 -3.15000
vt 6.15000 -3.75000
vt 6.00000 -3.75000
vt 6.15000 -4.12500
vt 6.00000 -4.12500
vt 6.45000 -3.75000
vt 6.45000 -3.90000
vt 6.00000 -3.90000
vt 6.45000 -4.12500
vt 1.07500 -5.25000
vt 1.00000 -5.25000
vt 1.07500 -5.40000
vt 1.00000 -5.40000
vt 1.30000 -5.25000
vt 1.30000 -5.32500
vt 1.00000 -5.32500
vt 1.30000 -5.40000
vt 3.43750 -0.50000
vt 3.43750 -0.76250
vt 2.50000 -0.76250
vt 2.65000 -0.50000
vt 2.65000 -1.43750
vt 2.50000 -1.43750
vt 2.65000 -0.76250
vt 2.86250 -5.75000
vt 2.75000 -5.75000
vt 2.86250 -5.90000
vt 2.75000 -5.90000
vt 3.05000 -5.75000
vt 3.05000 -5.86250
vt 2.75000 -5.86250
vt 3.05000 -5.90000
vt 6.40000 -1.25000
vt 6.25000 -1.25000
vt 6.40000 -1.40000
vt 6.25000 -1.40000
vt 6.55000 -1.25000
vt 6.55000 -1.40000
vt 1.30000 -0.25000
vt 1.00000 -0.25000
vt 1.30000 -0.36250
vt 1.00000 -0.36250
vt 1.22500 -0.25000
vt 1.22500 -0.55000
vt 1.00000 -0.55000
vt 1.22500 -0.36250
vt 0.90000 0.25000
vt 0.90000 -0.12500
vt 0.75000 -0.12500
vt 1.20000 -0.12500
vt 7.40000 0.25000
vt 7.25000 0.25000
vt 7.40000 0.17500
vt 7.25000 0.17500
vt 7.70000 0.25000
vt 7.70000 0.10000
vt 7.25000 0.10000
vt 7.70000 0.17500
vt 6.52500 -1.75000
vt 6.00000 -1.75000
vt 6.52500 -1.82500
vt 6.00000 -1.82500
vt 6.30000 -1.75000
vt 6.30000 -2.27500
vt 6.00000 -2.27500
vt 6.30000 -1.82500
vt 6.90000 -0.75000
vt 6.75000 -0.75000
vt 6.90000 -1.20000
vt 6.75000 -1.20000
vt 7.20000 -0.75000
vt 7.20000 -0.90000
vt 6.75000 -0.90000
vt 7.20000 -1.20000
vt 6.68750 -1.50000
vt 6.50000 -1.50000
vt 6.68750 -1.65000
vt 6.50000 -1.65000
vt 6.80000 -1.50000
vt 6.80000 -1.68750
vt 6.50000 -1.68750
vt 6.80000 -1.65000
vt 3.95000 -2.75000
vt 3.50000 -2.75000
vt 3.95000 -2.90000
vt 3.50000 -2.90000
vt 3.95000 -3.20000
vt 3.50000 -3.20000
vt 0.93750 -6.75000
vt 0.75000 -6.75000
vt 0.93750 -6.82500
vt 0.75000 -6.82500
vt 0.97500 -6.75000
vt 0.97500 -6.93750
vt 0.75000 -6.93750
vt 0.97500 -6.82500
vt 3.02500 -4.75000
vt 2.50000 -4.75000
vt 3.02500 -4.82500
vt 2.50000 -4.82500
vt 2.80000 -4.75000
vt 2.80000 -5.27500
vt 2.50000 -5.27500
vt 2.80000 -4.82500
vt 0.57500 -0.50000
vt 0.50000 -0.50000
vt 0.57500 -0.80000
vt 0.50000 -0.80000
vt 0.80000 -0.50000
vt 0.80000 -0.57500
vt 0.50000 -0.57500
vt 0.80000 -0.80000
vt 3.15000 -2.75000
vt 3.00000 -2.75000
vt 3.15000 -3.05000
vt 3.00000 -3.05000
vt 3.30000 -2.75000
vt 3.30000 -2.90000
vt 3.00000 -2.90000
vt 3.30000 -3.05000
vt 3.80000 -6.00000
vt 3.50000 -6.00000
vt 3.80000 -6.15000
vt 3.50000 -6.15000
vt 3.80000 -6.30000
vt 3.50000 -6.30000
vt 5.87500 -0.50000
vt 5.50000 -0.50000
vt 5.87500 -1.10000
vt 5.50000 -1.10000
vt 5.80000 -0.50000
vt 5.80000 -0.87500
vt 5.50000 -0.87500
vt 5.80000 -1.10000
vt 1.40000 -3.50000
vt 1.25000 -3.50000
vt 1.40000 -3.65000
vt 1.25000 -3.65000
vt 1.55000 -3.50000
vt 1.55000 -3.65000
vt 2.90000 -2.25000
vt 2.75000 -2.25000
vt 2.90000 -2.55000
vt 2.75000 -2.55000
vt 3.05000 -2.25000
vt 3.05000 -2.40000
vt 2.75000 -2.40000
vt 3.05000 -2.55000
vt 7.65000 -2.00000
vt 7.50000 -2.00000
vt 7.65000 -2.22500
vt 7.50000 -2.22500
vt 8.10000 -2.00000
vt 8.10000 -2.15000
vt 7.50000 -2.15000
vt 8.10000 -2.22500
vt 5.86250 -5.50000
vt 5.75000 -5.50000
vt 5.86250 -5.80000
vt 5.75000 -5.80000
vt 6.35000 -5.50000
vt 6.35000 -5.61250
vt 5.75000 -5.61250
vt 6.35000 -5.80000
vt 7.90000 -0.75000
vt 7.75000 -0.75000
vt 7.90000 -0.90000
vt 7.75000 -0.90000
vt 8.35000 -0.75000
vt 8.35000 -0.90000
vt 3.35000 -0.50000
vt 2.75000 -0.50000
vt 3.35000 -0.72500
vt 2.75000 -0.72500
vt 3.35000 -1.10000
vt 2.75000 -1.10000
vt 3.63750 0.00000
vt 3.00000 0.00000
vt 3.63750 -0.26250
vt 3.00000 -0.26250
vt 3.22500 0.00000
vt 3.22500 -0.63750
vt 3.00000 -0.63750
vt 3.22500 -0.26250
vt 2.86250 -1.25000
vt 2.75000 -1.25000
vt 2.86250 -1.51250
vt 2.75000 -1.51250
vt 3.35000 -1.25000
vt 3.35000 -1.36250
vt 2.75000 -1.36250
vt 3.35000 -1.51250
vt 5.07500 -5.25000
vt 5.00000 -5.25000
vt 5.07500 -5.40000
vt 5.00000 -5.40000
vt 5.60000 -5.25000
vt 5.60000 -5.32500
vt 5.00000 -5.32500
vt 5.60000 -5.40000
vt 0.60000 0.50000
vt 0.00000 0.50000
vt 0.60000 0.27500
vt 0.00000 0.27500
vt 0.60000 -0.10000
vt 0.00000 -0.10000
vn 1.0000 0.0000 0.0000
vn 0.0000 1.0000 0.0000
vn 0.0000 0.0000 1.0000
vn -1.0000 0.0000 0.0000
vn 0.0000 -1.0000 0.0000
vn 0.0000 0.0000 -1.0000
vn 0.0000 0.9843 -0.1732
vn 0.0000 0.1732 0.9843
vn 0.0000 -0.9843 0.1732
vn 0.0000 -0.1732 -0.9843
vn 0.0000 0.9055 -0.4252
vn 0.0000 0.4252 0.9055
vn 0.0000 -0.9055 0.4252
vn 0.0000 -0.4252 -0.9055
vn 0.0000 0.5748 -0.8189
vn 0.0000 0.8189 0.5748
vn 0.0000 -0.5748 0.8189
vn 0.0000 -0.8189 -0.5748
vn 0.0000 0.9370 0.3386
vn 0.0000 -0.3386 0.9370
vn 0.0000 -0.9370 -0.3386
vn 0.0000 0.3386 -0.9370
vn 0.0000 0.8661 -0.5039
vn 0.0000 0.5039 0.8661
vn 0.0000 -0.8661 0.5039
vn 0.0000 -0.5039 -0.8661

o RightUpperArm
usemtl c_1f801d
f 1/1/1 2/2/1 3/3/1
f 3/3/1 2/2/1 4/4/1
f 5/5/2 2/2/2 6/6/2
f 6/6/2 2/2/2 1/7/2
f 2/5/3 5/2/3 4/8/3
f 4/8/3 5/2/3 7/4/3
f 5/1/4 6/2/4 7/3/4
f 7/3/4 6/2/4 8/4/4
f 8/5/5 3/2/5 7/6/5
f 7/6/5 3/2/5 4/7/5
f 6/5/6 1/2/6 8/8/6
f 8/8/6 1/2/6 3/4/6
f 9/9/1 4/10/1 10/11/1
f 10/11/1 4/10/1 11/12/1
f 7/13/2 4/10/2 12/14/2
f 12/14/2 4/10/2 9/12/2
f 4/13/3 7/10/3 11/14/3
f 11/14/3 7/10/3 13/12/3
f 7/9/4 12/10/4 13/11/4
f 13/11/4 12/10/4 14/12/4
f 14/13/5 10/10/5 13/14/5
f 13/14/5 10/10/5 11/12/5
f 12/13/6 9/10/6 14/14/6
f 14/14/6 9/10/6 10/12/6
usemtl c_1b2a35
f 3/15/1 9/16/1 15/17/1
f 15/17/1 9/16/1 10/18/1
f 12/19/2 9/16/2 8/20/2
f 8/20/2 9/16/2 3/18/2
f 9/19/3 12/16/3 10/20/3
f 10/20/3 12/16/3 14/18/3
f 12/15/4 8/16/4 14/17/4
f 14/17/4 8/16/4 16/18/4
f 16/19/5 15/16/5 14/20/5
f 14/20/5 15/16/5 10/18/5
f 8/19/6 3/16/6 16/20/6
f 16/20/6 3/16/6 15/18/6
o LowerTorso
usemtl c_27462d
f 17/21/1 18/22/1 19/23/1
f 19/23/1 18/22/1 20/24/1
f 21/25/2 18/22/2 22/26/2
f 22/26/2 18/22/2 17/27/2
f 18/25/3 21/22/3 20/28/3
f 20/28/3 21/22/3 23/24/3
f 21/21/4 22/22/4 23/23/4
f 23/23/4 22/22/4 24/24/4
f 24/25/5 19/22/5 23/26/5
f 23/26/5 19/22/5 20/27/5
f 22/25/6 17/22/6 24/28/6
f 24/28/6 17/22/6 19/24/6
f 25/29/1 26/30/1 27/31/1
f 27/31/1 26/30/1 28/32/1
f 29/33/2 26/30/2 30/34/2
f 30/34/2 26/30/2 25/32/2
f 26/33/3 29/30/3 28/34/3
f 28/34/3 29/30/3 31/32/3
f 29/29/4 30/30/4 31/31/4
f 31/31/4 30/30/4 32/32/4
f 32/33/5 27/30/5 31/34/5
f 31/34/5 27/30/5 28/32/5
f 30/33/6 25/30/6 32/34/6
f 32/34/6 25/30/6 27/32/6
f 33/35/1 34/36/1 35/37/1
f 35/37/1 34/36/1 36/38/1
f 37/39/2 34/36/2 38/40/2
f 38/40/2 34/36/2 33/41/2
f 34/39/3 37/36/3 36/42/3
f 36/42/3 37/36/3 39/38/3
f 37/35/4 38/36/4 39/37/4
f 39/37/4 38/36/4 40/38/4
f 40/39/5 35/36/5 39/40/5
f 39/40/5 35/36/5 36/41/5
f 38/39/6 33/36/6 40/42/6
f 40/42/6 33/36/6 35/38/6
f 41/43/1 42/44/1 43/45/1
f 43/45/1 42/44/1 44/46/1
f 45/47/2 42/44/2 46/48/2
f 46/48/2 42/44/2 41/46/2
f 42/47/3 45/44/3 44/48/3
f 44/48/3 45/44/3 47/46/3
f 45/43/4 46/44/4 47/45/4
f 47/45/4 46/44/4 48/46/4
f 48/47/5 43/44/5 47/48/5
f 47/48/5 43/44/5 44/46/5
f 46/47/6 41/44/6 48/48/6
f 48/48/6 41/44/6 43/46/6
f 49/49/1 50/50/1 51/51/1
f 51/51/1 50/50/1 52/52/1
f 53/53/2 50/50/2 54/54/2
f 54/54/2 50/50/2 49/55/2
f 50/53/3 53/50/3 52/56/3
f 52/56/3 53/50/3 55/52/3
f 53/49/4 54/50/4 55/51/4
f 55/51/4 54/50/4 56/52/4
f 56/53/5 51/50/5 55/54/5
f 55/54/5 51/50/5 52/55/5
f 54/53/6 49/50/6 56/56/6
f 56/56/6 49/50/6 51/52/6
usemtl c_b1e5a6
f 57/57/1 58/58/1 59/59/1
f 59/59/1 58/58/1 60/60/1
f 61/61/2 58/58/2 62/62/2
f 62/62/2 58/58/2 57/63/2
f 58/61/3 61/58/3 60/64/3
f 60/64/3 61/58/3 63/60/3
f 61/57/4 62/58/4 63/59/4
f 63/59/4 62/58/4 64/60/4
f 64/61/5 59/58/5 63/62/5
f 63/62/5 59/58/5 60/63/5
f 62/61/6 57/58/6 64/64/6
f 64/64/6 57/58/6 59/60/6
usemtl c_1f801d
f 34/65/1 49/66/1 36/67/1
f 36/67/1 49/66/1 51/68/1
f 54/69/2 49/66/2 37/70/2
f 37/70/2 49/66/2 34/71/2
f 49/69/3 54/66/3 51/72/3
f 51/72/3 54/66/3 56/68/3
f 54/65/4 37/66/4 56/67/4
f 56/67/4 37/66/4 39/68/4
f 39/69/5 36/66/5 56/70/5
f 56/70/5 36/66/5 51/71/5
f 37/69/6 34/66/6 39/72/6
f 39/72/6 34/66/6 36/68/6
f 65/73/1 66/74/1 67/75/1
f 67/75/1 66/74/1 68/76/1
f 69/77/2 66/74/2 70/78/2
f 70/78/2 66/74/2 65/79/2
f 66/77/3 69/74/3 68/80/3
f 68/80/3 69/74/3 71/76/3
f 69/73/4 70/74/4 71/75/4
f 71/75/4 70/74/4 72/76/4
f 72/77/5 67/74/5 71/78/5
f 71/78/5 67/74/5 68/79/5
f 70/77/6 65/74/6 72/80/6
f 72/80/6 65/74/6 67/76/6
f 73/81/1 41/82/1 74/83/1
f 74/83/1 41/82/1 43/84/1
f 46/85/2 41/82/2 75/86/2
f 75/86/2 41/82/2 73/84/2
f 41/85/3 46/82/3 43/86/3
f 43/86/3 46/82/3 48/84/3
f 46/81/4 75/82/4 48/83/4
f 48/83/4 75/82/4 76/84/4
f 76/85/5 74/82/5 48/86/5
f 48/86/5 74/82/5 43/84/5
f 75/85/6 73/82/6 76/86/6
f 76/86/6 73/82/6 74/84/6
f 26/87/1 77/88/1 28/89/1
f 28/89/1 77/88/1 78/90/1
f 79/91/2 77/88/2 29/92/2
f 29/92/2 77/88/2 26/90/2
f 77/91/3 79/88/3 78/92/3
f 78/92/3 79/88/3 80/90/3
f 79/87/4 29/88/4 80/89/4
f 80/89/4 29/88/4 31/90/4
f 31/91/5 28/88/5 80/92/5
f 80/92/5 28/88/5 78/90/5
f 29/91/6 26/88/6 31/92/6
f 31/92/6 26/88/6 28/90/6
f 81/93/1 33/94/1 65/95/1
f 65/95/1 33/94/1 35/96/1
f 38/97/2 33/94/2 82/98/2
f 82/98/2 33/94/2 81/99/2
f 33/97/3 38/94/3 35/100/3
f 35/100/3 38/94/3 40/96/3
f 38/93/4 82/94/4 40/95/4
f 40/95/4 82/94/4 70/96/4
f 70/97/5 65/94/5 40/98/5
f 40/98/5 65/94/5 35/99/5
f 82/97/6 81/94/6 70/100/6
f 70/100/6 81/94/6 65/96/6
f 42/77/1 25/73/1 44/101/1
f 44/101/1 25/73/1 27/102/1
f 30/103/2 25/73/2 45/104/2
f 45/104/2 25/73/2 42/102/2
f 25/103/3 30/73/3 27/104/3
f 27/104/3 30/73/3 32/102/3
f 30/77/4 45/73/4 32/101/4
f 32/101/4 45/73/4 47/102/4
f 47/103/5 44/73/5 32/104/5
f 32/104/5 44/73/5 27/102/5
f 45/103/6 42/73/6 47/104/6
f 47/104/6 42/73/6 44/102/6
f 50/105/1 83/106/1 52/107/1
f 52/107/1 83/106/1 66/108/1
f 84/109/2 83/106/2 53/110/2
f 53/110/2 83/106/2 50/111/2
f 83/109/3 84/106/3 66/112/3
f 66/112/3 84/106/3 69/108/3
f 84/105/4 53/106/4 69/107/4
f 69/107/4 53/106/4 55/108/4
f 55/109/5 52/106/5 69/110/5
f 69/110/5 52/106/5 66/111/5
f 53/109/6 50/106/6 55/112/6
f 55/112/6 50/106/6 52/108/6
o LeftUpperArm
usemtl c_1b2a35
f 85/113/1 86/114/1 87/115/1
f 87/115/1 86/114/1 88/116/1
f 89/117/2 86/114/2 90/118/2
f 90/118/2 86/114/2 85/116/2
f 86/117/3 89/114/3 88/118/3
f 88/118/3 89/114/3 91/116/3
f 89/113/4 90/114/4 91/115/4
f 91/115/4 90/114/4 92/116/4
f 92/117/5 87/114/5 91/118/5
f 91/118/5 87/114/5 88/116/5
f 90/117/6 85/114/6 92/118/6
f 92/118/6 85/114/6 87/116/6
usemtl c_1f801d
f 86/119/1 93/120/1 88/121/1
f 88/121/1 93/120/1 94/122/1
f 95/123/2 93/120/2 89/124/2
f 89/124/2 93/120/2 86/122/2
f 93/123/3 95/120/3 94/124/3
f 94/124/3 95/120/3 96/122/3
f 95/119/4 89/120/4 96/121/4
f 96/121/4 89/120/4 91/122/4
f 91/123/5 88/120/5 96/124/5
f 96/124/5 88/120/5 94/122/5
f 89/123/6 86/120/6 91/124/6
f 91/124/6 86/120/6 88/122/6
f 97/125/1 98/126/1 85/127/1
f 85/127/1 98/126/1 93/128/1
f 99/129/2 98/126/2 100/130/2
f 100/130/2 98/126/2 97/131/2
f 98/129/3 99/126/3 93/132/3
f 93/132/3 99/126/3 95/128/3
f 99/125/4 100/126/4 95/127/4
f 95/127/4 100/126/4 90/128/4
f 90/129/5 85/126/5 95/130/5
f 95/130/5 85/126/5 93/131/5
f 100/129/6 97/126/6 90/132/6
f 90/132/6 97/126/6 85/128/6
o Head
usemtl c_a4bd47
f 101/133/1 102/134/1 103/135/1
f 103/135/1 102/134/1 104/136/1
f 105/137/7 102/134/7 106/138/7
f 106/138/7 102/134/7 101/139/7
f 102/137/8 105/134/8 104/140/8
f 104/140/8 105/134/8 107/136/8
f 105/133/4 106/134/4 107/135/4
f 107/135/4 106/134/4 108/136/4
f 108/137/9 103/134/9 107/138/9
f 107/138/9 103/134/9 104/139/9
f 106/137/10 101/134/10 108/140/10
f 108/140/10 101/134/10 103/136/10
f 109/141/1 110/142/1 111/143/1
f 111/143/1 110/142/1 112/144/1
f 113/145/7 110/142/7 114/146/7
f 114/146/7 110/142/7 109/147/7
f 110/145/8 113/142/8 112/148/8
f 112/148/8 113/142/8 115/144/8
f 113/141/4 114/142/4 115/143/4
f 115/143/4 114/142/4 116/144/4
f 116/145/9 111/142/9 115/146/9
f 115/146/9 111/142/9 112/147/9
f 114/145/10 109/142/10 116/148/10
f 116/148/10 109/142/10 111/144/10
usemtl c_f8f8f8
f 117/149/1 118/150/1 119/151/1
f 119/151/1 118/150/1 120/152/1
f 121/153/7 118/150/7 122/154/7
f 122/154/7 118/150/7 117/152/7
f 118/153/8 121/150/8 120/154/8
f 120/154/8 121/150/8 123/152/8
f 121/149/4 122/150/4 123/151/4
f 123/151/4 122/150/4 124/152/4
f 124/153/9 119/150/9 123/154/9
f 123/154/9 119/150/9 120/152/9
f 122/153/10 117/150/10 124/154/10
f 124/154/10 117/150/10 119/152/10
usemtl c_b1e5a6
f 125/155/1 126/156/1 127/157/1
f 127/157/1 126/156/1 128/158/1
f 129/159/11 126/156/11 130/160/11
f 130/160/11 126/156/11 125/161/11
f 126/159/12 129/156/12 128/162/12
f 128/162/12 129/156/12 131/158/12
f 129/155/4 130/156/4 131/157/4
f 131/157/4 130/156/4 132/158/4
f 132/159/13 127/156/13 131/160/13
f 131/160/13 127/156/13 128/161/13
f 130/159/14 125/156/14 132/162/14
f 132/162/14 125/156/14 127/158/14
f 133/163/1 134/164/1 135/165/1
f 135/165/1 134/164/1 136/166/1
f 137/167/15 134/164/15 138/168/15
f 138/168/15 134/164/15 133/169/15
f 134/167/16 137/164/16 136/170/16
f 136/170/16 137/164/16 139/166/16
f 137/163/4 138/164/4 139/165/4
f 139/165/4 138/164/4 140/166/4
f 140/167/17 135/164/17 139/168/17
f 139/168/17 135/164/17 136/169/17
f 138/167/18 133/164/18 140/170/18
f 140/170/18 133/164/18 135/166/18
usemtl c_1b2a35
f 141/171/1 142/172/1 143/173/1
f 143/173/1 142/172/1 144/174/1
f 145/171/7 142/172/7 146/173/7
f 146/173/7 142/172/7 141/174/7
f 142/171/8 145/172/8 144/173/8
f 144/173/8 145/172/8 147/174/8
f 145/171/4 146/172/4 147/173/4
f 147/173/4 146/172/4 148/174/4
f 148/171/9 143/172/9 147/173/9
f 147/173/9 143/172/9 144/174/9
f 146/171/10 141/172/10 148/173/10
f 148/173/10 141/172/10 143/174/10
f 149/175/1 150/176/1 151/177/1
f 151/177/1 150/176/1 152/178/1
f 153/175/7 150/176/7 154/177/7
f 154/177/7 150/176/7 149/178/7
f 150/175/8 153/176/8 152/177/8
f 152/177/8 153/176/8 155/178/8
f 153/175/4 154/176/4 155/177/4
f 155/177/4 154/176/4 156/178/4
f 156/175/9 151/176/9 155/177/9
f 155/177/9 151/176/9 152/178/9
f 154/175/10 149/176/10 156/177/10
f 156/177/10 149/176/10 151/178/10
usemtl c_1f801d
f 134/179/1 157/44/1 136/180/1
f 136/180/1 157/44/1 158/181/1
f 159/182/15 157/44/15 137/183/15
f 137/183/15 157/44/15 134/184/15
f 157/182/16 159/44/16 158/185/16
f 158/185/16 159/44/16 160/181/16
f 159/179/4 137/44/4 160/180/4
f 160/180/4 137/44/4 139/181/4
f 139/182/17 136/44/17 160/183/17
f 160/183/17 136/44/17 158/184/17
f 137/182/18 134/44/18 139/185/18
f 139/185/18 134/44/18 136/181/18
f 161/186/1 162/187/1 163/188/1
f 163/188/1 162/187/1 164/189/1
f 165/190/7 162/187/7 166/191/7
f 166/191/7 162/187/7 161/192/7
f 162/190/8 165/187/8 164/193/8
f 164/193/8 165/187/8 167/189/8
f 165/186/4 166/187/4 167/188/4
f 167/188/4 166/187/4 168/189/4
f 168/190/9 163/187/9 167/191/9
f 167/191/9 163/187/9 164/192/9
f 166/190/10 161/187/10 168/193/10
f 168/193/10 161/187/10 163/189/10
f 169/194/1 170/195/1 128/196/1
f 128/196/1 170/195/1 171/197/1
f 172/198/11 170/195/11 173/199/11
f 173/199/11 170/195/11 169/200/11
f 170/198/12 172/195/12 171/201/12
f 171/201/12 172/195/12 174/197/12
f 172/194/4 173/195/4 174/196/4
f 174/196/4 173/195/4 131/197/4
f 131/198/13 128/195/13 174/199/13
f 174/199/13 128/195/13 171/200/13
f 173/198/14 169/195/14 131/201/14
f 131/201/14 169/195/14 128/197/14
f 175/202/1 164/172/1 104/203/1
f 104/203/1 164/172/1 176/204/1
f 167/205/7 164/172/7 177/206/7
f 177/206/7 164/172/7 175/204/7
f 164/205/8 167/172/8 176/206/8
f 176/206/8 167/172/8 178/204/8
f 167/202/4 177/172/4 178/203/4
f 178/203/4 177/172/4 107/204/4
f 107/205/9 104/172/9 178/206/9
f 178/206/9 104/172/9 176/204/9
f 177/205/10 175/172/10 107/206/10
f 107/206/10 175/172/10 104/204/10
f 179/207/1 180/208/1 144/209/1
f 144/209/1 180/208/1 181/210/1
f 182/211/7 180/208/7 183/212/7
f 183/212/7 180/208/7 179/213/7
f 180/211/8 182/208/8 181/214/8
f 181/214/8 182/208/8 184/210/8
f 182/207/4 183/208/4 184/209/4
f 184/209/4 183/208/4 155/210/4
f 155/211/9 144/208/9 184/212/9
f 184/212/9 144/208/9 181/213/9
f 183/211/10 179/208/10 155/214/10
f 155/214/10 179/208/10 144/210/10
f 185/215/1 186/216/1 148/217/1
f 148/217/1 186/216/1 147/218/1
f 187/219/7 186/216/7 188/220/7
f 188/220/7 186/216/7 185/221/7
f 186/219/8 187/216/8 147/222/8
f 147/222/8 187/216/8 152/218/8
f 187/215/4 188/216/4 152/217/4
f 152/217/4 188/216/4 151/218/4
f 151/219/9 148/216/9 152/220/9
f 152/220/9 148/216/9 147/221/9
f 188/219/10 185/216/10 151/222/10
f 151/222/10 185/216/10 148/218/10
usemtl c_27462d
f 189/223/1 190/224/1 191/225/1
f 191/225/1 190/224/1 192/226/1
f 193/227/15 190/224/15 194/228/15
f 194/228/15 190/224/15 189/229/15
f 190/227/16 193/224/16 192/230/16
f 192/230/16 193/224/16 195/226/16
f 193/223/4 194/224/4 195/225/4
f 195/225/4 194/224/4 196/226/4
f 196/227/17 191/224/17 195/228/17
f 195/228/17 191/224/17 192/229/17
f 194/227/18 189/224/18 196/230/18
f 196/230/18 189/224/18 191/226/18
f 197/231/1 198/232/1 199/233/1
f 199/233/1 198/232/1 200/234/1
f 201/235/11 198/232/11 202/236/11
f 202/236/11 198/232/11 197/237/11
f 198/235/12 201/232/12 200/238/12
f 200/238/12 201/232/12 203/234/12
f 201/231/4 202/232/4 203/233/4
f 203/233/4 202/232/4 204/234/4
f 204/235/13 199/232/13 203/236/13
f 203/236/13 199/232/13 200/237/13
f 202/235/14 197/232/14 204/238/14
f 204/238/14 197/232/14 199/234/14
f 205/239/1 206/240/1 207/241/1
f 207/241/1 206/240/1 208/242/1
f 209/243/7 206/240/7 210/244/7
f 210/244/7 206/240/7 205/245/7
f 206/243/8 209/240/8 208/246/8
f 208/246/8 209/240/8 211/242/8
f 209/239/4 210/240/4 211/241/4
f 211/241/4 210/240/4 212/242/4
f 212/243/9 207/240/9 211/244/9
f 211/244/9 207/240/9 208/245/9
f 210/243/10 205/240/10 212/246/10
f 212/246/10 205/240/10 207/242/10
usemtl c_c4281c
f 213/247/1 214/248/1 215/249/1
f 215/249/1 214/248/1 216/250/1
f 217/247/7 214/248/7 218/251/7
f 218/251/7 214/248/7 213/252/7
f 214/247/8 217/248/8 216/249/8
f 216/249/8 217/248/8 219/250/8
f 217/247/4 218/248/4 219/249/4
f 219/249/4 218/248/4 220/250/4
f 220/247/9 215/248/9 219/251/9
f 219/251/9 215/248/9 216/252/9
f 218/247/10 213/248/10 220/249/10
f 220/249/10 213/248/10 215/250/10
o Head_decal1
usemtl head_decal1
f 221/253/4 222/254/4 223/255/4
f 223/255/4 222/254/4 224/256/4
o Head_decal2
usemtl head_decal2
f 225/253/1 226/254/1 227/255/1
f 227/255/1 226/254/1 228/256/1
o RightUpperLeg
usemtl c_1f801d
f 229/257/1 230/258/1 231/259/1
f 231/259/1 230/258/1 232/260/1
f 233/261/2 230/258/2 234/262/2
f 234/262/2 230/258/2 229/263/2
f 230/261/3 233/258/3 232/264/3
f 232/264/3 233/258/3 235/260/3
f 233/257/4 234/258/4 235/259/4
f 235/259/4 234/258/4 236/260/4
f 236/261/5 231/258/5 235/262/5
f 235/262/5 231/258/5 232/263/5
f 234/261/6 229/258/6 236/264/6
f 236/264/6 229/258/6 231/260/6
f 237/265/1 238/266/1 239/267/1
f 239/267/1 238/266/1 240/268/1
f 241/265/2 238/266/2 242/269/2
f 242/269/2 238/266/2 237/270/2
f 238/265/3 241/266/3 240/267/3
f 240/267/3 241/266/3 243/268/3
f 241/265/4 242/266/4 243/267/4
f 243/267/4 242/266/4 244/268/4
f 244/265/5 239/266/5 243/269/5
f 243/269/5 239/266/5 240/270/5
f 242/265/6 237/266/6 244/267/6
f 244/267/6 237/266/6 239/268/6
f 231/271/1 245/272/1 246/273/1
f 246/273/1 245/272/1 238/274/1
f 247/275/2 245/272/2 236/276/2
f 236/276/2 245/272/2 231/277/2
f 245/275/3 247/272/3 238/278/3
f 238/278/3 247/272/3 241/274/3
f 247/271/4 236/272/4 241/273/4
f 241/273/4 236/272/4 248/274/4
f 248/275/5 246/272/5 241/276/5
f 241/276/5 246/272/5 238/277/5
f 236/275/6 231/272/6 248/278/6
f 248/278/6 231/272/6 246/274/6
f 249/279/1 250/280/1 251/281/1
f 251/281/1 250/280/1 245/282/1
f 252/283/2 250/280/2 253/284/2
f 253/284/2 250/280/2 249/285/2
f 250/283/3 252/280/3 245/286/3
f 245/286/3 252/280/3 247/282/3
f 252/279/4 253/280/4 247/281/4
f 247/281/4 253/280/4 254/282/4
f 254/283/5 251/280/5 247/284/5
f 247/284/5 251/280/5 245/285/5
f 253/283/6 249/280/6 254/286/6
f 254/286/6 249/280/6 251/282/6
usemtl c_27462d
f 230/287/1 249/288/1 232/289/1
f 232/289/1 249/288/1 251/290/1
f 253/291/2 249/288/2 233/292/2
f 233/292/2 249/288/2 230/293/2
f 249/291/3 253/288/3 251/294/3
f 251/294/3 253/288/3 254/290/3
f 253/287/4 233/288/4 254/289/4
f 254/289/4 233/288/4 235/290/4
f 235/291/5 232/288/5 254/292/5
f 254/292/5 232/288/5 251/293/5
f 233/291/6 230/288/6 235/294/6
f 235/294/6 230/288/6 232/290/6
usemtl c_1b2a35
f 255/295/1 237/296/1 256/297/1
f 256/297/1 237/296/1 239/298/1
f 242/299/2 237/296/2 257/300/2
f 257/300/2 237/296/2 255/298/2
f 237/299/3 242/296/3 239/300/3
f 239/300/3 242/296/3 244/298/3
f 242/295/4 257/296/4 244/297/4
f 244/297/4 257/296/4 258/298/4
f 258/299/5 256/296/5 244/300/5
f 244/300/5 256/296/5 239/298/5
f 257/299/6 255/296/6 258/300/6
f 258/300/6 255/296/6 256/298/6
o Tail
usemtl c_27462d
f 259/301/1 260/302/1 261/303/1
f 261/303/1 260/302/1 262/304/1
f 263/305/2 260/302/2 264/306/2
f 264/306/2 260/302/2 259/307/2
f 260/305/3 263/302/3 262/308/3
f 262/308/3 263/302/3 265/304/3
f 263/301/4 264/302/4 265/303/4
f 265/303/4 264/302/4 266/304/4
f 266/305/5 261/302/5 265/306/5
f 265/306/5 261/302/5 262/307/5
f 264/305/6 259/302/6 266/308/6
f 266/308/6 259/302/6 261/304/6
f 267/309/1 268/310/1 269/311/1
f 269/311/1 268/310/1 270/312/1
f 271/313/2 268/310/2 272/314/2
f 272/314/2 268/310/2 267/315/2
f 268/313/3 271/310/3 270/316/3
f 270/316/3 271/310/3 273/312/3
f 271/309/4 272/310/4 273/311/4
f 273/311/4 272/310/4 274/312/4
f 274/313/5 269/310/5 273/314/5
f 273/314/5 269/310/5 270/315/5
f 272/313/6 267/310/6 274/316/6
f 274/316/6 267/310/6 269/312/6
f 275/317/1 276/248/1 277/318/1
f 277/318/1 276/248/1 278/319/1
f 279/320/19 276/248/19 280/321/19
f 280/321/19 276/248/19 275/322/19
f 276/320/20 279/248/20 278/323/20
f 278/323/20 279/248/20 281/319/20
f 279/317/4 280/248/4 281/318/4
f 281/318/4 280/248/4 282/319/4
f 282/320/21 277/248/21 281/321/21
f 281/321/21 277/248/21 278/322/21
f 280/320/22 275/248/22 282/323/22
f 282/323/22 275/248/22 277/319/22
f 283/324/1 284/325/1 285/326/1
f 285/326/1 284/325/1 286/327/1
f 287/328/2 284/325/2 288/329/2
f 288/329/2 284/325/2 283/330/2
f 284/328/3 287/325/3 286/331/3
f 286/331/3 287/325/3 289/327/3
f 287/324/4 288/325/4 289/326/4
f 289/326/4 288/325/4 290/327/4
f 290/328/5 285/325/5 289/329/5
f 289/329/5 285/325/5 286/330/5
f 288/328/6 283/325/6 290/331/6
f 290/331/6 283/325/6 285/327/6
usemtl c_1f801d
f 284/332/1 267/333/1 286/334/1
f 286/334/1 267/333/1 269/335/1
f 272/336/2 267/333/2 287/337/2
f 287/337/2 267/333/2 284/335/2
f 267/336/3 272/333/3 269/337/3
f 269/337/3 272/333/3 274/335/3
f 272/332/4 287/333/4 274/334/4
f 274/334/4 287/333/4 289/335/4
f 289/336/5 286/333/5 274/337/5
f 274/337/5 286/333/5 269/335/5
f 287/336/6 284/333/6 289/337/6
f 289/337/6 284/333/6 286/335/6
f 291/338/1 292/339/1 293/340/1
f 293/340/1 292/339/1 294/341/1
f 295/342/2 292/339/2 296/343/2
f 296/343/2 292/339/2 291/344/2
f 292/342/3 295/339/3 294/345/3
f 294/345/3 295/339/3 297/341/3
f 295/338/4 296/339/4 297/340/4
f 297/340/4 296/339/4 298/341/4
f 298/342/5 293/339/5 297/343/5
f 297/343/5 293/339/5 294/344/5
f 296/342/6 291/339/6 298/345/6
f 298/345/6 291/339/6 293/341/6
f 299/346/1 300/134/1 301/347/1
f 301/347/1 300/134/1 302/348/1
f 303/137/2 300/134/2 304/140/2
f 304/140/2 300/134/2 299/136/2
f 300/137/3 303/134/3 302/349/3
f 302/349/3 303/134/3 305/348/3
f 303/346/4 304/134/4 305/347/4
f 305/347/4 304/134/4 306/348/4
f 306/137/5 301/134/5 305/140/5
f 305/140/5 301/134/5 302/136/5
f 304/137/6 299/134/6 306/349/6
f 306/349/6 299/134/6 301/348/6
f 261/350/1 262/351/1 307/352/1
f 307/352/1 262/351/1 301/353/1
f 265/354/2 262/351/2 266/355/2
f 266/355/2 262/351/2 261/356/2
f 262/354/3 265/351/3 301/357/3
f 301/357/3 265/351/3 306/353/3
f 265/350/4 266/351/4 306/352/4
f 306/352/4 266/351/4 308/353/4
f 308/354/5 307/351/5 306/355/5
f 306/355/5 307/351/5 301/356/5
f 266/354/6 261/351/6 308/357/6
f 308/357/6 261/351/6 307/353/6
f 285/358/1 309/359/1 310/360/1
f 310/360/1 309/359/1 311/361/1
f 312/362/2 309/359/2 290/363/2
f 290/363/2 309/359/2 285/364/2
f 309/362/3 312/359/3 311/365/3
f 311/365/3 312/359/3 313/361/3
f 312/358/4 290/359/4 313/360/4
f 313/360/4 290/359/4 314/361/4
f 314/362/5 310/359/5 313/363/5
f 313/363/5 310/359/5 311/364/5
f 290/362/6 285/359/6 314/365/6
f 314/365/6 285/359/6 310/361/6
f 315/366/1 259/367/1 316/368/1
f 316/368/1 259/367/1 307/369/1
f 264/370/2 259/367/2 317/371/2
f 317/371/2 259/367/2 315/372/2
f 259/370/3 264/367/3 307/373/3
f 307/373/3 264/367/3 308/369/3
f 264/366/4 317/367/4 308/368/4
f 308/368/4 317/367/4 318/369/4
f 318/370/5 316/367/5 308/371/5
f 308/371/5 316/367/5 307/372/5
f 317/370/6 315/367/6 318/373/6
f 318/373/6 315/367/6 316/369/6
f 268/374/1 319/375/1 270/376/1
f 270/376/1 319/375/1 309/377/1
f 320/378/2 319/375/2 271/379/2
f 271/379/2 319/375/2 268/380/2
f 319/378/3 320/375/3 309/381/3
f 309/381/3 320/375/3 312/377/3
f 320/374/4 271/375/4 312/376/4
f 312/376/4 271/375/4 273/377/4
f 273/378/5 270/375/5 312/379/5
f 312/379/5 270/375/5 309/380/5
f 271/378/6 268/375/6 273/381/6
f 273/381/6 268/375/6 270/377/6
usemtl c_b1e5a6
f 316/382/1 302/383/1 321/384/1
f 321/384/1 302/383/1 322/385/1
f 305/382/2 302/383/2 318/386/2
f 318/386/2 302/383/2 316/387/2
f 302/382/3 305/383/3 322/384/3
f 322/384/3 305/383/3 323/385/3
f 305/382/4 318/383/4 323/384/4
f 323/384/4 318/383/4 324/385/4
f 324/382/5 321/383/5 323/386/5
f 323/386/5 321/383/5 322/387/5
f 318/382/6 316/383/6 324/384/6
f 324/384/6 316/383/6 321/385/6
f 293/388/1 325/389/1 326/390/1
f 326/390/1 325/389/1 327/391/1
f 328/392/2 325/389/2 298/393/2
f 298/393/2 325/389/2 293/394/2
f 325/392/3 328/389/3 327/395/3
f 327/395/3 328/389/3 329/391/3
f 328/388/4 298/389/4 329/390/4
f 329/390/4 298/389/4 330/391/4
f 330/392/5 326/389/5 329/393/5
f 329/393/5 326/389/5 327/394/5
f 298/392/6 293/389/6 330/395/6
f 330/395/6 293/389/6 326/391/6
f 310/396/1 311/397/1 331/398/1
f 331/398/1 311/397/1 332/399/1
f 313/400/2 311/397/2 314/401/2
f 314/401/2 311/397/2 310/402/2
f 311/400/3 313/397/3 332/403/3
f 332/403/3 313/397/3 333/399/3
f 313/396/4 314/397/4 333/398/4
f 333/398/4 314/397/4 334/399/4
f 334/400/5 331/397/5 333/401/5
f 333/401/5 331/397/5 332/402/5
f 314/400/6 310/397/6 334/403/6
f 334/403/6 310/397/6 331/399/6
o LeftUpperLeg
usemtl c_1f801d
f 335/404/1 336/405/1 337/406/1
f 337/406/1 336/405/1 338/407/1
f 339/408/2 336/405/2 340/409/2
f 340/409/2 336/405/2 335/410/2
f 336/408/3 339/405/3 338/411/3
f 338/411/3 339/405/3 341/407/3
f 339/404/4 340/405/4 341/406/4
f 341/406/4 340/405/4 342/407/4
f 342/408/5 337/405/5 341/409/5
f 341/409/5 337/405/5 338/410/5
f 340/408/6 335/405/6 342/411/6
f 342/411/6 335/405/6 337/407/6
f 343/412/1 344/413/1 345/414/1
f 345/414/1 344/413/1 346/415/1
f 347/416/2 344/413/2 348/417/2
f 348/417/2 344/413/2 343/418/2
f 344/416/3 347/413/3 346/419/3
f 346/419/3 347/413/3 349/415/3
f 347/412/4 348/413/4 349/414/4
f 349/414/4 348/413/4 350/415/4
f 350/416/5 345/413/5 349/417/5
f 349/417/5 345/413/5 346/418/5
f 348/416/6 343/413/6 350/419/6
f 350/419/6 343/413/6 345/415/6
f 351/420/1 352/421/1 353/422/1
f 353/422/1 352/421/1 354/423/1
f 355/420/2 352/421/2 356/424/2
f 356/424/2 352/421/2 351/425/2
f 352/420/3 355/421/3 354/422/3
f 354/422/3 355/421/3 357/423/3
f 355/420/4 356/421/4 357/422/4
f 357/422/4 356/421/4 358/423/4
f 358/420/5 353/421/5 357/424/5
f 357/424/5 353/421/5 354/425/5
f 356/420/6 351/421/6 358/422/6
f 358/422/6 351/421/6 353/423/6
f 345/426/1 338/427/1 359/428/1
f 359/428/1 338/427/1 352/429/1
f 341/430/2 338/427/2 350/431/2
f 350/431/2 338/427/2 345/432/2
f 338/430/3 341/427/3 352/433/3
f 352/433/3 341/427/3 355/429/3
f 341/426/4 350/427/4 355/428/4
f 355/428/4 350/427/4 360/429/4
f 360/430/5 359/427/5 355/431/5
f 355/431/5 359/427/5 352/432/5
f 350/430/6 345/427/6 360/433/6
f 360/433/6 345/427/6 359/429/6
usemtl c_1b2a35
f 361/434/1 351/435/1 362/436/1
f 362/436/1 351/435/1 353/437/1
f 356/438/2 351/435/2 363/439/2
f 363/439/2 351/435/2 361/437/2
f 351/438/3 356/435/3 353/439/3
f 353/439/3 356/435/3 358/437/3
f 356/434/4 363/435/4 358/436/4
f 358/436/4 363/435/4 364/437/4
f 364/438/5 362/435/5 358/439/5
f 358/439/5 362/435/5 353/437/5
f 363/438/6 361/435/6 364/439/6
f 364/439/6 361/435/6 362/437/6
usemtl c_27462d
f 344/440/1 335/441/1 346/442/1
f 346/442/1 335/441/1 337/443/1
f 340/444/2 335/441/2 347/445/2
f 347/445/2 335/441/2 344/446/2
f 335/444/3 340/441/3 337/447/3
f 337/447/3 340/441/3 342/443/3
f 340/440/4 347/441/4 342/442/4
f 342/442/4 347/441/4 349/443/4
f 349/444/5 346/441/5 342/445/5
f 342/445/5 346/441/5 337/446/5
f 347/444/6 344/441/6 349/447/6
f 349/447/6 344/441/6 346/443/6
o UpperTorso
usemtl c_1f801d
f 365/448/1 366/449/1 367/450/1
f 367/450/1 366/449/1 368/451/1
f 369/452/2 366/449/2 370/453/2
f 370/453/2 366/449/2 365/454/2
f 366/452/3 369/449/3 368/455/3
f 368/455/3 369/449/3 371/451/3
f 369/448/4 370/449/4 371/450/4
f 371/450/4 370/449/4 372/451/4
f 372/452/5 367/449/5 371/453/5
f 371/453/5 367/449/5 368/454/5
f 370/452/6 365/449/6 372/455/6
f 372/455/6 365/449/6 367/451/6
f 373/456/1 374/457/1 375/458/1
f 375/458/1 374/457/1 376/459/1
f 377/460/2 374/457/2 378/461/2
f 378/461/2 374/457/2 373/462/2
f 374/460/3 377/457/3 376/463/3
f 376/463/3 377/457/3 379/459/3
f 377/456/4 378/457/4 379/458/4
f 379/458/4 378/457/4 380/459/4
f 380/460/5 375/457/5 379/461/5
f 379/461/5 375/457/5 376/462/5
f 378/460/6 373/457/6 380/463/6
f 380/463/6 373/457/6 375/459/6
f 381/464/1 382/465/1 383/466/1
f 383/466/1 382/465/1 384/467/1
f 385/468/2 382/465/2 386/469/2
f 386/469/2 382/465/2 381/467/2
f 382/468/3 385/465/3 384/469/3
f 384/469/3 385/465/3 387/467/3
f 385/464/4 386/465/4 387/466/4
f 387/466/4 386/465/4 388/467/4
f 388/468/5 383/465/5 387/469/5
f 387/469/5 383/465/5 384/467/5
f 386/468/6 381/465/6 388/469/6
f 388/469/6 381/465/6 383/467/6
f 383/470/1 376/471/1 389/472/1
f 389/472/1 376/471/1 390/473/1
f 379/470/2 376/471/2 388/474/2
f 388/474/2 376/471/2 383/475/2
f 376/470/3 379/471/3 390/472/3
f 390/472/3 379/471/3 391/473/3
f 379/470/4 388/471/4 391/472/4
f 391/472/4 388/471/4 392/473/4
f 392/470/5 389/471/5 391/474/5
f 391/474/5 389/471/5 390/475/5
f 388/470/6 383/471/6 392/472/6
f 392/472/6 383/471/6 389/473/6
usemtl c_27462d
f 393/476/1 394/477/1 395/478/1
f 395/478/1 394/477/1 396/479/1
f 397/480/23 394/477/23 398/481/23
f 398/481/23 394/477/23 393/482/23
f 394/480/24 397/477/24 396/483/24
f 396/483/24 397/477/24 399/479/24
f 397/476/4 398/477/4 399/478/4
f 399/478/4 398/477/4 400/479/4
f 400/480/25 395/477/25 399/481/25
f 399/481/25 395/477/25 396/482/25
f 398/480/26 393/477/26 400/483/26
f 400/483/26 393/477/26 395/479/26
f 401/484/1 402/485/1 368/486/1
f 368/486/1 402/485/1 375/487/1
f 403/488/2 402/485/2 404/489/2
f 404/489/2 402/485/2 401/490/2
f 402/488/3 403/485/3 375/491/3
f 375/491/3 403/485/3 380/487/3
f 403/484/4 404/485/4 380/486/4
f 380/486/4 404/485/4 371/487/4
f 371/488/5 368/485/5 380/489/5
f 380/489/5 368/485/5 375/490/5
f 404/488/6 401/485/6 371/491/6
f 371/491/6 401/485/6 368/487/6
f 382/492/1 405/493/1 384/494/1
f 384/494/1 405/493/1 367/495/1
f 406/496/2 405/493/2 385/497/2
f 385/497/2 405/493/2 382/498/2
f 405/496/3 406/493/3 367/499/3
f 367/499/3 406/493/3 372/495/3
f 406/492/4 385/493/4 372/494/4
f 372/494/4 385/493/4 387/495/4
f 387/496/5 384/493/5 372/497/5
f 372/497/5 384/493/5 367/498/5
f 385/496/6 382/493/6 387/499/6
f 387/499/6 382/493/6 384/495/6
usemtl c_b1e5a6
f 389/500/1 390/501/1 407/502/1
f 407/502/1 390/501/1 408/503/1
f 391/500/2 390/501/2 392/504/2
f 392/504/2 390/501/2 389/505/2
f 390/500/3 391/501/3 408/502/3
f 408/502/3 391/501/3 409/503/3
f 391/500/4 392/501/4 409/502/4
f 409/502/4 392/501/4 410/503/4
f 410/500/5 407/501/5 409/504/5
f 409/504/5 407/501/5 408/505/5
f 392/500/6 389/501/6 410/502/6
f 410/502/6 389/501/6 407/503/6
