# Roblox asset pack: rex (creatures), from the Studio model "Rex". Exported with Export Selection, split by tools/build_creatures.py: one object per rigid body. Units: studs. +Y up, front faces -Z, pivot (bottom centre) at the origin.
mtllib rex.mtl

v -1.45800 3.61000 -2.16000
v -1.45800 3.89000 -2.09000
v -1.45800 3.39000 -1.33000
v -1.45800 3.67000 -1.26000
v -1.91600 3.89000 -2.09000
v -1.91600 3.61000 -2.16000
v -1.91600 3.67000 -1.26000
v -1.91600 3.39000 -1.33000
v -1.26200 3.15000 -2.71000
v -1.26200 3.91000 -2.51000
v -1.26200 3.04000 -2.32000
v -1.26200 3.80000 -2.11000
v -2.11200 3.91000 -2.51000
v -2.11200 3.15000 -2.71000
v -2.11200 3.80000 -2.11000
v -2.11200 3.04000 -2.32000
v -1.28800 4.67000 -1.83000
v -1.28800 4.93000 -1.12000
v -1.28800 3.42000 -1.37000
v -1.28800 3.68000 -0.66000
v -2.21000 4.93000 -1.12000
v -2.21000 4.67000 -1.83000
v -2.21000 3.68000 -0.66000
v -2.21000 3.42000 -1.37000
v -1.45000 2.70000 -2.45000
v -1.31400 3.09000 -2.49000
v -1.45000 3.06000 -2.36000
v -1.92400 2.70000 -2.45000
v -1.78800 3.09000 -2.49000
v -1.92400 3.06000 -2.36000
v -1.92400 3.13000 -2.62000
v -2.06000 3.09000 -2.49000
v -1.45000 3.13000 -2.62000
v -1.58600 3.09000 -2.49000
v 1.97300 3.61000 -2.16000
v 1.97300 3.89000 -2.09000
v 1.97300 3.39000 -1.33000
v 1.97300 3.67000 -1.26000
v 1.51500 3.89000 -2.09000
v 1.51500 3.61000 -2.16000
v 1.51500 3.67000 -1.26000
v 1.51500 3.39000 -1.33000
v 2.16900 3.15000 -2.71000
v 2.16900 3.91000 -2.51000
v 2.16900 3.04000 -2.32000
v 2.16900 3.80000 -2.11000
v 1.31900 3.91000 -2.51000
v 1.31900 3.15000 -2.71000
v 1.31900 3.80000 -2.11000
v 1.31900 3.04000 -2.32000
v 2.14300 4.67000 -1.83000
v 2.14300 4.93000 -1.12000
v 2.14300 3.42000 -1.37000
v 2.14300 3.68000 -0.66000
v 1.22100 4.93000 -1.12000
v 1.22100 4.67000 -1.83000
v 1.22100 3.68000 -0.66000
v 1.22100 3.42000 -1.37000
v 1.98100 2.70000 -2.45000
v 2.11700 3.09000 -2.49000
v 1.98100 3.06000 -2.36000
v 1.50700 2.70000 -2.45000
v 1.64300 3.09000 -2.49000
v 1.50700 3.06000 -2.36000
v 1.50700 3.13000 -2.62000
v 1.37100 3.09000 -2.49000
v 1.98100 3.13000 -2.62000
v 1.84600 3.09000 -2.49000
v -1.55900 0.00000 -1.68000
v -1.26400 0.30000 -0.88000
v -1.55900 0.00000 -0.88000
v -1.55900 0.59000 -0.88000
v -2.20000 0.04000 -2.11000
v -2.20000 0.95000 -0.88000
v -1.74700 0.49000 -0.88000
v -2.20000 0.04000 -0.88000
v -2.84100 0.00000 -1.68000
v -2.84100 0.59000 -0.88000
v -2.54500 0.30000 -0.88000
v -1.85500 0.30000 -0.88000
v -3.13600 0.30000 -0.88000
v -2.84100 0.00000 -0.88000
v -2.65300 0.49000 -0.88000
v -1.24800 0.68000 -0.90000
v -1.24800 0.68000 0.96000
v -1.24800 0.11000 -0.90000
v -1.24800 0.11000 0.96000
v -3.25000 0.68000 0.96000
v -3.25000 0.68000 -0.90000
v -3.25000 0.11000 0.96000
v -3.25000 0.11000 -0.90000
v -1.73800 1.54000 -0.59000
v -1.73800 2.15000 0.29000
v -1.73800 0.00000 0.49000
v -1.73800 0.61000 1.36000
v -2.76000 2.15000 0.29000
v -2.76000 1.54000 -0.59000
v -2.76000 0.61000 1.36000
v -2.76000 0.00000 0.49000
v -1.93400 0.51000 0.96000
v -1.93400 0.51000 1.83000
v -1.93400 0.11000 0.96000
v -1.93400 0.11000 1.83000
v -2.56400 0.51000 1.83000
v -2.56400 0.51000 0.96000
v -2.56400 0.11000 1.83000
v -2.56400 0.11000 0.96000
v -1.54200 3.34000 -0.61000
v -1.54200 2.85000 2.18000
v -1.54200 1.68000 -0.90000
v -1.54200 1.19000 1.89000
v -2.95600 2.85000 2.18000
v -2.95600 3.34000 -0.61000
v -2.95600 1.19000 1.89000
v -2.95600 1.68000 -0.90000
v -2.95600 2.68000 -0.53000
v -2.95600 2.90000 0.05000
v -2.95600 2.29000 -0.39000
v -2.95600 2.50000 0.19000
v -2.95600 1.66000 0.40000
v -2.95600 2.15000 0.51000
v -2.95600 1.76000 0.66000
v -2.95600 2.06000 0.25000
v -3.02800 2.90000 0.05000
v -3.02800 2.68000 -0.53000
v -3.02800 2.15000 0.51000
v -3.02800 2.06000 0.25000
v -3.02800 1.76000 0.66000
v -3.02800 2.50000 0.19000
v -3.02800 2.29000 -0.39000
v -3.02800 1.66000 0.40000
v 2.29800 0.04000 -2.11000
v 2.29800 0.95000 -0.88000
v 2.75100 0.49000 -0.88000
v 2.29800 0.04000 -0.88000
v 1.65800 0.00000 -1.68000
v 1.95300 0.30000 -0.88000
v 1.65800 0.00000 -0.88000
v 1.65800 0.59000 -0.88000
v 2.93900 0.00000 -1.68000
v 2.93900 0.59000 -0.88000
v 3.23500 0.30000 -0.88000
v 1.36200 0.30000 -0.88000
v 2.64300 0.30000 -0.88000
v 1.84500 0.49000 -0.88000
v 2.93900 0.00000 -0.88000
v 3.25000 0.68000 -0.90000
v 3.25000 0.68000 0.96000
v 3.25000 0.11000 -0.90000
v 3.25000 0.11000 0.96000
v 1.24800 0.68000 0.96000
v 1.24800 0.68000 -0.90000
v 1.24800 0.11000 0.96000
v 1.24800 0.11000 -0.90000
v 2.56400 0.51000 0.96000
v 2.56400 0.51000 1.83000
v 2.56400 0.11000 0.96000
v 2.56400 0.11000 1.83000
v 1.93400 0.51000 1.83000
v 1.93400 0.51000 0.96000
v 1.93400 0.11000 1.83000
v 1.93400 0.11000 0.96000
v 2.76000 1.54000 -0.59000
v 2.76000 2.15000 0.29000
v 2.76000 0.00000 0.49000
v 2.76000 0.61000 1.36000
v 1.73800 2.15000 0.29000
v 1.73800 1.54000 -0.59000
v 1.73800 0.61000 1.36000
v 1.73800 0.00000 0.49000
v 2.95600 3.34000 -0.61000
v 2.95600 2.85000 2.18000
v 2.95600 1.68000 -0.90000
v 2.95600 1.19000 1.89000
v 1.54200 2.85000 2.18000
v 1.54200 3.34000 -0.61000
v 1.54200 1.19000 1.89000
v 1.54200 1.68000 -0.90000
v 3.00700 1.66000 0.40000
v 3.00700 2.15000 0.51000
v 3.00700 1.76000 0.66000
v 3.00700 2.06000 0.25000
v 3.00700 2.68000 -0.53000
v 3.00700 2.90000 0.05000
v 3.00700 2.29000 -0.39000
v 3.00700 2.50000 0.19000
v 2.93500 2.90000 0.05000
v 2.93500 2.68000 -0.53000
v 2.93500 2.15000 0.51000
v 2.93500 2.06000 0.25000
v 2.93500 1.76000 0.66000
v 2.93500 2.50000 0.19000
v 2.93500 1.66000 0.40000
v 2.93500 2.29000 -0.39000
v 1.15600 4.06000 -1.70000
v 1.15600 3.45000 1.73000
v 1.15600 1.69000 -2.11000
v 1.15600 1.09000 1.31000
v -1.14100 3.45000 1.73000
v -1.14100 4.06000 -1.70000
v -1.14100 1.09000 1.31000
v -1.14100 1.69000 -2.11000
v 1.74400 4.78000 0.96000
v 1.74400 4.66000 1.62000
v 1.74400 3.77000 0.78000
v 1.74400 3.65000 1.45000
v 1.58200 3.75000 0.24000
v 1.58200 4.15000 0.44000
v 1.58200 3.86000 0.55000
v 1.58200 4.04000 0.13000
v 1.58200 3.46000 1.50000
v 1.58200 3.34000 1.68000
v 1.58200 3.30000 1.39000
v 1.58200 3.18000 1.57000
v -1.72900 4.66000 1.62000
v -1.72900 4.78000 0.96000
v -1.56700 4.04000 0.13000
v -1.56700 4.15000 0.44000
v -1.56700 3.34000 1.68000
v -1.56700 3.46000 1.50000
v -1.56700 3.18000 1.57000
v -1.72900 3.65000 1.45000
v -1.56700 3.86000 0.55000
v -1.72900 3.77000 0.78000
v -1.56700 3.75000 0.24000
v -1.56700 3.30000 1.39000
v 0.96000 5.47000 -2.12000
v 0.96000 5.95000 -0.34000
v 0.96000 4.23000 -1.79000
v 0.96000 4.71000 0.00000
v -0.94500 5.95000 -0.34000
v -0.94500 5.47000 -2.12000
v -0.94500 4.71000 0.00000
v -0.94500 4.23000 -1.79000
v 1.54800 5.07000 -1.30000
v 1.54800 4.45000 2.26000
v 1.54800 1.78000 -1.88000
v 1.54800 1.16000 1.68000
v -1.53300 4.45000 2.26000
v -1.53300 5.07000 -1.30000
v -1.53300 1.16000 1.68000
v -1.53300 1.78000 -1.88000
v 1.25400 3.81000 2.55000
v 1.25400 3.68000 3.02000
v 1.25400 2.47000 2.20000
v 1.25400 2.35000 2.66000
v -1.23900 3.68000 3.02000
v -1.23900 3.81000 2.55000
v -1.23900 2.35000 2.66000
v -1.23900 2.47000 2.20000
v 1.15600 3.96000 1.49000
v 1.15600 3.46000 3.36000
v 1.15600 1.46000 0.82000
v 1.15600 0.96000 2.69000
v -1.14100 3.46000 3.36000
v -1.14100 3.96000 1.49000
v -1.14100 0.96000 2.69000
v -1.14100 1.46000 0.82000
v 0.86200 3.01000 3.55000
v 0.86200 2.92000 4.02000
v 0.86200 2.03000 3.38000
v 0.86200 1.95000 3.85000
v -0.84700 2.92000 4.02000
v -0.84700 3.01000 3.55000
v -0.84700 1.95000 3.85000
v -0.84700 2.03000 3.38000
v 0.79700 3.03000 2.50000
v 0.79700 2.70000 4.40000
v 0.79700 1.21000 2.18000
v 0.79700 0.87000 4.08000
v -0.78200 2.70000 4.40000
v -0.78200 3.03000 2.50000
v -0.78200 0.87000 4.08000
v -0.78200 1.21000 2.18000
v -1.35800 4.44000 -4.28000
v -1.35800 6.50000 -3.12000
v -1.35800 5.45000 -2.52000
v -1.08700 4.44000 -4.28000
v -1.08700 5.45000 -2.52000
v -1.08700 6.50000 -3.12000
v 1.03600 4.44000 -4.28000
v 1.03600 6.50000 -3.12000
v 1.03600 5.45000 -2.52000
v 1.30600 4.44000 -4.28000
v 1.30600 5.45000 -2.52000
v 1.30600 6.50000 -3.12000
v 0.66400 4.96000 -5.00000
v 0.66400 4.86000 -4.43000
v 0.66400 4.62000 -5.06000
v 0.66400 4.52000 -4.49000
v -0.69500 4.86000 -4.43000
v -0.69500 4.96000 -5.00000
v -0.69500 4.52000 -4.49000
v -0.69500 4.62000 -5.06000
v 0.66400 4.82000 -4.67000
v 0.66400 5.73000 -3.08000
v 0.66400 5.43000 -2.91000
v -0.69500 5.73000 -3.08000
v -0.69500 4.82000 -4.67000
v -0.69500 5.43000 -2.91000
v 0.92000 4.98000 -3.21000
v 1.23000 4.81000 -3.46000
v 0.92000 5.70000 -3.71000
v 0.95400 4.42000 -4.02000
v 1.32700 4.20000 -4.33000
v 0.95400 5.28000 -4.63000
v -0.94100 4.98000 -3.21000
v -0.63100 4.81000 -3.46000
v -0.94100 5.70000 -3.71000
v -0.97600 4.42000 -4.02000
v -0.60400 4.20000 -4.33000
v -0.97600 5.28000 -4.63000
v -1.25100 4.81000 -3.46000
v -1.34800 4.20000 -4.33000
v 0.61000 4.81000 -3.46000
v 0.58200 4.20000 -4.33000
v -0.94100 4.63000 -3.72000
v -0.97600 3.99000 -4.63000
v 0.95400 3.99000 -4.63000
v 0.92000 4.63000 -3.72000
v 1.37700 4.04000 -5.05000
v 1.37700 5.69000 -2.19000
v 1.37700 3.39000 -4.67000
v 1.37700 5.04000 -1.82000
v -1.40800 5.69000 -2.19000
v -1.40800 4.04000 -5.05000
v -1.40800 5.04000 -1.82000
v -1.40800 3.39000 -4.67000
v 0.93000 7.14000 -5.95000
v 0.93000 7.14000 -5.81000
v 0.70900 6.66000 -5.95000
v 0.70900 6.66000 -5.81000
v -0.75500 7.26000 -5.95000
v -0.75500 7.26000 -5.81000
v -0.53400 6.79000 -5.95000
v -0.53400 6.79000 -5.81000
v 0.67000 7.26000 -5.95000
v 0.67000 7.26000 -5.81000
v -1.01500 7.14000 -5.95000
v -1.01500 7.14000 -5.81000
v 0.44900 6.78000 -5.81000
v -0.79400 6.66000 -5.81000
v -0.79400 6.66000 -5.95000
v 0.44900 6.78000 -5.95000
v 0.68300 5.64000 -3.63000
v 0.85600 6.13000 -3.80000
v 0.68300 6.13000 -3.63000
v 0.89200 5.45000 -4.31000
v 1.13400 6.13000 -4.55000
v 0.89200 6.13000 -4.31000
v 0.89200 6.13000 -4.79000
v -0.70600 5.64000 -3.63000
v -0.53300 6.13000 -3.80000
v -0.70600 6.13000 -3.63000
v 0.68300 6.13000 -3.97000
v -0.91500 5.45000 -4.31000
v -0.67300 6.13000 -4.55000
v -0.91500 6.13000 -4.31000
v -0.91500 6.13000 -4.79000
v -0.70600 6.13000 -3.97000
v -1.15800 6.13000 -4.55000
v 0.64900 6.13000 -4.55000
v -0.88000 6.13000 -3.80000
v 0.50900 6.13000 -3.80000
v -1.05300 6.06000 -5.72000
v -1.34700 6.06000 -5.43000
v -1.05300 6.06000 -5.14000
v -0.75800 6.06000 -5.43000
v 1.32400 6.06000 -5.43000
v 1.02900 6.06000 -5.72000
v 1.02900 6.06000 -5.14000
v 0.73500 6.06000 -5.43000
v 1.02900 5.23000 -5.14000
v -1.05300 5.23000 -5.14000
v 1.47400 7.47000 -5.88000
v 1.47400 7.47000 -3.17000
v 1.47400 6.08000 -5.88000
v 1.47400 6.08000 -3.17000
v 1.01300 7.78000 -3.17000
v 1.01300 7.47000 -5.24000
v 1.01300 7.78000 -5.24000
v 1.01300 7.47000 -3.17000
v 0.73500 8.35000 -3.17000
v 0.73500 7.78000 -3.17000
v 0.73500 7.78000 -4.95000
v -0.76600 8.35000 -3.17000
v -0.76600 7.78000 -4.95000
v -1.04400 7.78000 -5.24000
v -1.04400 7.78000 -3.17000
v -0.76600 7.78000 -3.17000
v -1.04400 7.47000 -5.24000
v -1.50500 7.47000 -5.88000
v -1.50500 7.47000 -3.17000
v -1.04400 7.47000 -3.17000
v -1.50500 6.08000 -3.17000
v -1.50500 6.08000 -5.88000
v 1.52000 6.16000 -2.91000
v 1.52000 6.16000 0.01000
v 1.52000 5.20000 -2.91000
v 1.52000 5.20000 0.01000
v -1.57200 6.16000 0.01000
v -1.57200 6.16000 -2.91000
v -1.57200 5.20000 0.01000
v -1.57200 5.20000 -2.91000
v 1.70500 9.12000 -1.55000
v 1.70500 8.37000 -1.55000
v 1.70500 8.37000 -2.79000
v -0.74600 9.12000 -1.55000
v -0.74600 8.37000 -1.55000
v -0.74600 8.37000 -2.79000
v -1.75700 9.12000 -1.55000
v -1.75700 8.37000 -2.79000
v 0.69400 9.12000 -1.55000
v 0.69400 8.37000 -2.79000
v -1.75700 8.37000 -1.55000
v 0.69400 8.37000 -1.55000
v 1.81400 8.42000 -3.18000
v 1.81400 8.42000 0.60000
v 1.81400 6.13000 -3.18000
v 1.81400 6.13000 0.60000
v -1.86600 8.42000 0.60000
v -1.86600 8.42000 -3.18000
v -1.86600 6.13000 0.60000
v -1.86600 6.13000 -3.18000
v 1.00000 6.19000 -3.28000
v 1.00000 6.19000 -3.17000
v 1.00000 5.19000 -3.28000
v 1.00000 5.19000 -3.17000
v -1.03100 6.19000 -3.17000
v -1.03100 6.19000 -3.28000
v -1.03100 5.19000 -3.17000
v -1.03100 5.19000 -3.28000
v 1.87400 7.04000 -3.24000
v 1.87400 8.08000 -2.40000
v 1.87400 7.04000 -2.40000
v 1.87400 8.08000 -3.24000
v -1.04400 7.04000 -3.24000
v -1.04400 8.08000 -2.40000
v -1.04400 7.04000 -2.40000
v -1.04400 8.08000 -3.24000
v -1.93900 8.08000 -3.24000
v -1.93900 8.08000 -2.40000
v 1.01400 8.08000 -3.24000
v 1.01400 8.08000 -2.40000
v -1.93900 7.04000 -2.40000
v 1.01400 7.04000 -2.40000
v -1.93900 7.04000 -3.24000
v 1.01400 7.04000 -3.24000
v 2.03800 8.56000 -1.19000
v 2.03800 8.56000 -0.52000
v 2.03800 7.74000 -1.19000
v 2.03800 7.74000 -0.52000
v 2.03800 7.48000 -0.21000
v 2.03800 8.56000 0.27000
v 2.03800 7.48000 0.27000
v 2.03800 8.56000 -0.21000
v 1.92400 7.14000 -1.13000
v 1.92400 7.51000 -1.03000
v 1.92400 7.22000 -0.93000
v 1.92400 7.43000 -1.24000
v 1.92400 7.60000 -1.90000
v 1.92400 7.85000 -1.52000
v 1.92400 7.54000 -1.57000
v 1.92400 7.91000 -1.85000
v -2.02300 8.56000 -0.52000
v -2.02300 8.56000 -1.19000
v -2.02300 8.56000 0.27000
v -2.02300 8.56000 -0.21000
v -1.90900 7.91000 -1.85000
v -1.90900 7.85000 -1.52000
v -1.90900 7.43000 -1.24000
v -1.90900 7.51000 -1.03000
v -2.02300 7.48000 0.27000
v -2.02300 7.74000 -0.52000
v -1.90900 7.22000 -0.93000
v -1.90900 7.54000 -1.57000
v -2.02300 7.74000 -1.19000
v -2.02300 7.48000 -0.21000
v -1.90900 7.14000 -1.13000
v -1.90900 7.60000 -1.90000
v 1.91800 7.34000 -3.28000
v 1.91800 8.06000 -3.01000
v 1.91800 7.34000 -3.01000
v 1.91800 8.06000 -3.28000
v -1.75800 7.34000 -3.28000
v -1.75800 8.06000 -3.01000
v -1.75800 7.34000 -3.01000
v -1.75800 8.06000 -3.28000
v -1.97400 8.06000 -3.28000
v -1.97400 8.06000 -3.01000
v 1.70100 8.06000 -3.28000
v 1.70100 8.06000 -3.01000
v -1.97400 7.34000 -3.01000
v 1.70100 7.34000 -3.01000
v -1.97400 7.34000 -3.28000
v 1.70100 7.34000 -3.28000
v 0.49000 2.29000 4.01000
v 0.49000 2.29000 5.12000
v 0.49000 1.14000 4.01000
v 0.49000 1.14000 5.12000
v -0.47500 2.29000 5.12000
v -0.47500 2.29000 4.01000
v -0.47500 1.14000 5.12000
v -0.47500 1.14000 4.01000
v 0.28500 2.00000 5.04000
v 0.28500 2.00000 5.95000
v 0.28500 1.27000 5.04000
v 0.28500 1.27000 5.95000
v -0.27000 2.00000 5.95000
v -0.27000 2.00000 5.04000
v -0.27000 1.27000 5.95000
v -0.27000 1.27000 5.04000
vt 3.28634 -5.00000
vt 3.25000 -5.00000
vt 3.28634 -5.10754
vt 3.25000 -5.10754
vt 3.30725 -5.00000
vt 3.30725 -5.03634
vt 3.25000 -5.03634
vt 3.30725 -5.10754
vt 0.84761 -5.50000
vt 0.75000 -5.50000
vt 0.84761 -5.55130
vt 0.75000 -5.55130
vt 0.85626 -5.50000
vt 0.85626 -5.59761
vt 0.75000 -5.59761
vt 0.85626 -5.55130
vt 3.59471 -4.25000
vt 3.50000 -4.25000
vt 3.59471 -4.41666
vt 3.50000 -4.41666
vt 3.61529 -4.25000
vt 3.61529 -4.34471
vt 3.50000 -4.34471
vt 3.61529 -4.41666
vt 11.99550 -49.02660
vt 12.00000 -48.97780
vt 11.98360 -48.98220
vt 12.02960 -49.01640
vt 12.04660 -49.00000
vt 12.02960 -48.98360
vt 12.01260 -49.00000
vt 11.97040 -49.01640
vt 11.98740 -49.00000
vt 11.97040 -48.98360
vt 11.95340 -49.00000
vt 12.01640 -48.98220
vt 12.00450 -49.02660
vt 12.02960 -49.02660
vt 12.04660 -48.97780
vt 12.02960 -48.97340
vt 11.97040 -49.02660
vt 11.97040 -48.97340
vt 11.95340 -48.97780
vt 12.01260 -48.97780
vt 11.98740 -48.97780
vt 6.53634 -4.00000
vt 6.50000 -4.00000
vt 6.53634 -4.10754
vt 6.50000 -4.10754
vt 6.55725 -4.00000
vt 6.55725 -4.03634
vt 6.50000 -4.03634
vt 6.55725 -4.10754
vt 6.84761 -2.50000
vt 6.75000 -2.50000
vt 6.84761 -2.55130
vt 6.75000 -2.55130
vt 6.85626 -2.50000
vt 6.85626 -2.59761
vt 6.75000 -2.59761
vt 6.85626 -2.55130
vt 5.59471 0.75000
vt 5.50000 0.75000
vt 5.59471 0.58334
vt 5.50000 0.58334
vt 5.61529 0.75000
vt 5.61529 0.65529
vt 5.50000 0.65529
vt 5.61529 0.58334
vt 43.99550 -35.02660
vt 44.00000 -34.97780
vt 43.98360 -34.98220
vt 44.02960 -35.01640
vt 44.04660 -35.00000
vt 44.02960 -34.98360
vt 44.01260 -35.00000
vt 43.97040 -35.01640
vt 43.98730 -35.00000
vt 43.97040 -34.98360
vt 43.95340 -35.00000
vt 44.01640 -34.98220
vt 44.00450 -35.02660
vt 44.02960 -35.02660
vt 44.04660 -34.97780
vt 44.02960 -34.97340
vt 43.97040 -35.02660
vt 43.97040 -34.97340
vt 43.95340 -34.97780
vt 44.01260 -34.97780
vt 43.98730 -34.97780
vt 38.02350 -31.05900
vt 37.92320 -31.02210
vt 37.92320 -31.05900
vt 37.92320 -30.98510
vt 38.07680 -31.05420
vt 37.92320 -30.94100
vt 37.92320 -30.99760
vt 37.92320 -31.05420
vt 38.08010 -31.02350
vt 38.08010 -30.92320
vt 38.04310 -30.92320
vt 37.91990 -31.02350
vt 37.95690 -30.92320
vt 37.91990 -30.92320
vt 37.91990 -30.98510
vt 37.88300 -31.02210
vt 37.91990 -31.05900
vt 37.95690 -31.02210
vt 38.00000 -30.94100
vt 37.94340 -30.99760
vt 38.00000 -31.05420
vt 38.05660 -30.99760
vt 38.08010 -30.98510
vt 38.04310 -31.02210
vt 38.08010 -31.05900
vt 38.11700 -31.02210
vt 38.07680 -31.05900
vt 38.07680 -31.02210
vt 37.97650 -31.05900
vt 38.07680 -30.98510
vt 38.07680 -30.99760
vt 38.07680 -30.94100
vt 6.48134 -3.50000
vt 6.25000 -3.50000
vt 6.48134 -3.57213
vt 6.25000 -3.57213
vt 6.50032 -3.50000
vt 6.50032 -3.73134
vt 6.25000 -3.73134
vt 6.50032 -3.57213
vt 5.88330 0.50000
vt 5.75000 0.50000
vt 5.88330 0.26543
vt 5.75000 0.26543
vt 5.87778 0.50000
vt 5.87778 0.36670
vt 5.75000 0.36670
vt 5.87778 0.26543
vt 7.35879 -4.25000
vt 7.25000 -4.25000
vt 7.35879 -4.30076
vt 7.25000 -4.30076
vt 7.32876 -4.25000
vt 7.32876 -4.35879
vt 7.25000 -4.35879
vt 7.32876 -4.30076
vt 6.10388 -2.25000
vt 5.75000 -2.25000
vt 6.10388 -2.46006
vt 5.75000 -2.46006
vt 5.92679 -2.25000
vt 5.92679 -2.60388
vt 5.75000 -2.60388
vt 5.92679 -2.46006
vt 4.07442 -26.94930
vt 4.00192 -26.92290
vt 4.05636 -26.99890
vt 3.98385 -26.97250
vt 3.95792 -27.07710
vt 3.94364 -27.01570
vt 3.92558 -27.06530
vt 3.97598 -27.02750
vt 4.00450 -27.00190
vt 3.99550 -27.00190
vt 4.00450 -27.07440
vt 3.99550 -27.07440
vt 4.00450 -26.94360
vt 3.99550 -26.94360
vt 4.00450 -26.97600
vt 3.99550 -26.97600
vt 4.00450 -27.06530
vt 3.99550 -27.01570
vt 3.99550 -27.06530
vt 4.00450 -27.01570
vt 4.00450 -26.97250
vt 3.99550 -26.92290
vt 3.99550 -26.97250
vt 4.00450 -26.92290
vt 4.01615 -26.97250
vt 3.92558 -26.94930
vt 3.94364 -26.99890
vt 3.99808 -26.92290
vt 4.07442 -27.06530
vt 4.02402 -27.02750
vt 4.04208 -27.07710
vt 4.05636 -27.01570
vt 3.99550 -26.95790
vt 4.00450 -26.95790
vt 3.99550 -26.92560
vt 4.00450 -26.92560
vt 3.99550 -27.05640
vt 4.00450 -27.05640
vt 3.99550 -26.98390
vt 4.00450 -26.98390
vt 4.00450 -26.94930
vt 3.99550 -26.94930
vt 4.00450 -26.99890
vt 3.99550 -26.99890
vt 4.00450 -27.02750
vt 3.99550 -27.02750
vt 4.00450 -27.07710
vt 3.99550 -27.07710
vt 38.07680 -9.05421
vt 37.92320 -8.94095
vt 37.92320 -8.99758
vt 37.92320 -9.05421
vt 38.02350 -9.05905
vt 37.92320 -9.02209
vt 37.92320 -9.05905
vt 37.92320 -8.98513
vt 37.91990 -9.02346
vt 37.91990 -8.92315
vt 37.88290 -8.92315
vt 38.08010 -9.02346
vt 38.11710 -8.92315
vt 38.08010 -8.92315
vt 37.95690 -8.92315
vt 37.99990 -8.94095
vt 37.94330 -8.99758
vt 37.99990 -9.05421
vt 38.05660 -8.99758
vt 37.91990 -8.98513
vt 37.88290 -9.02209
vt 37.91990 -9.05905
vt 37.95680 -9.02209
vt 38.08010 -8.98513
vt 38.04310 -9.02209
vt 38.08010 -9.05905
vt 38.11710 -9.02209
vt 38.07680 -8.99758
vt 38.07680 -8.94095
vt 38.04310 -8.92315
vt 5.98134 -0.75000
vt 5.75000 -0.75000
vt 5.98134 -0.82213
vt 5.75000 -0.82213
vt 6.00032 -0.75000
vt 6.00032 -0.98134
vt 5.75000 -0.98134
vt 6.00032 -0.82213
vt 3.60879 -6.75000
vt 3.50000 -6.75000
vt 3.60879 -6.80076
vt 3.50000 -6.80076
vt 3.57876 -6.75000
vt 3.57876 -6.85879
vt 3.50000 -6.85879
vt 3.57876 -6.80076
vt 6.63330 -3.00000
vt 6.50000 -3.00000
vt 6.63330 -3.23457
vt 6.50000 -3.23457
vt 6.62778 -3.00000
vt 6.62778 -3.13330
vt 6.50000 -3.13330
vt 6.62778 -3.23457
vt 4.60388 -1.75000
vt 4.25000 -1.75000
vt 4.60388 -1.96006
vt 4.25000 -1.96006
vt 4.42679 -1.75000
vt 4.42679 -2.10388
vt 4.25000 -2.10388
vt 4.42679 -1.96006
vt 17.95790 -9.07710
vt 17.94360 -9.01570
vt 17.92560 -9.06533
vt 17.97600 -9.02747
vt 18.07440 -8.94929
vt 18.00190 -8.92290
vt 18.05640 -8.99892
vt 17.98390 -8.97253
vt 18.00450 -9.00192
vt 17.99550 -9.00192
vt 18.00450 -9.07442
vt 17.99550 -9.07442
vt 18.00450 -8.94364
vt 17.99550 -8.94364
vt 18.00450 -8.97598
vt 17.99550 -8.97598
vt 18.00450 -9.06533
vt 17.99550 -9.01570
vt 17.99550 -9.06533
vt 18.00450 -9.01570
vt 18.00450 -8.97253
vt 17.99550 -8.92290
vt 17.99550 -8.97253
vt 18.00450 -8.92290
vt 18.07440 -9.06533
vt 18.02400 -9.02747
vt 18.04210 -9.07710
vt 18.05640 -9.01570
vt 18.01610 -8.97253
vt 17.92560 -8.94929
vt 17.94360 -8.99892
vt 17.99810 -8.92290
vt 17.99550 -8.95792
vt 18.00450 -8.95792
vt 17.99550 -8.92558
vt 18.00450 -8.92558
vt 17.99550 -9.05636
vt 18.00450 -9.05636
vt 17.99550 -8.98386
vt 18.00450 -8.98386
vt 18.00450 -8.94929
vt 17.99550 -8.94929
vt 18.00450 -8.99892
vt 17.99550 -8.99892
vt 18.00450 -9.02747
vt 17.99550 -9.02747
vt 18.00450 -9.07710
vt 17.99550 -9.07710
vt 3.48068 1.00000
vt 0.00000 1.00000
vt 3.48068 -1.40097
vt 0.00000 -1.40097
vt 2.29665 1.00000
vt 2.29665 -2.48068
vt 0.00000 -2.48068
vt 2.29665 -1.40097
vt 17.99340 -54.90020
vt 17.91040 -54.91480
vt 18.01560 -55.02620
vt 17.93260 -55.04090
vt 18.08370 -55.02890
vt 18.05790 -54.97850
vt 18.04470 -55.01470
vt 18.09690 -54.99270
vt 17.92540 -55.06430
vt 17.90310 -55.07990
vt 17.93940 -55.08420
vt 17.91700 -55.09980
vt 18.21710 -54.91040
vt 17.78290 -54.91040
vt 18.21710 -54.99340
vt 17.78290 -54.99340
vt 18.19680 -55.09690
vt 17.80320 -55.05790
vt 17.80320 -55.09690
vt 18.19680 -55.05790
vt 18.19680 -54.90310
vt 17.80320 -54.90310
vt 18.19680 -54.92540
vt 17.80320 -54.92540
vt 18.19680 -55.09980
vt 17.80320 -55.07990
vt 17.80320 -55.09980
vt 18.19680 -55.07990
vt 18.21710 -55.04090
vt 17.78290 -54.91480
vt 17.78290 -55.04090
vt 18.21710 -54.91480
vt 18.19680 -55.01470
vt 17.80320 -54.97850
vt 17.80320 -55.01470
vt 18.19680 -54.97850
vt 18.06740 -55.04090
vt 18.00660 -54.90020
vt 17.98440 -55.02620
vt 18.08960 -54.91480
vt 17.95530 -55.01470
vt 17.90310 -54.99270
vt 17.91630 -55.02890
vt 17.94210 -54.97850
vt 18.09690 -55.07990
vt 18.07460 -55.06430
vt 18.08300 -55.09980
vt 18.06060 -55.08420
vt 17.80320 -54.93940
vt 18.19680 -54.93940
vt 17.80320 -54.91700
vt 18.19680 -54.91700
vt 17.78290 -55.01560
vt 18.21710 -55.01560
vt 17.78290 -54.93260
vt 18.21710 -54.93260
vt 17.80320 -55.04470
vt 18.19680 -55.08370
vt 18.19680 -55.04470
vt 17.80320 -55.08370
vt 18.19680 -55.02890
vt 17.80320 -54.99270
vt 17.80320 -55.02890
vt 18.19680 -54.99270
vt 18.21710 -54.90020
vt 17.78290 -54.90020
vt 18.21710 -55.02620
vt 17.78290 -55.02620
vt 18.19680 -55.06430
vt 17.80320 -55.06430
vt 18.19680 -55.08420
vt 17.80320 -55.08420
vt 5.73134 1.00000
vt 5.50000 1.00000
vt 5.73134 0.83896
vt 5.50000 0.83896
vt 5.73806 1.00000
vt 5.73806 0.76866
vt 5.50000 0.76866
vt 5.73806 0.83896
vt 4.20191 -2.00000
vt 3.75000 -2.00000
vt 4.20191 -2.41786
vt 3.75000 -2.41786
vt 4.13512 -2.00000
vt 4.13512 -2.45191
vt 3.75000 -2.45191
vt 4.13512 -2.41786
vt 0.47821 1.00000
vt 0.47821 -0.38219
vt 0.00000 -0.38219
vt 2.49272 1.00000
vt 2.49272 0.52179
vt 0.00000 0.52179
vt 2.49272 -0.38219
vt 4.74158 -5.75000
vt 4.50000 -5.75000
vt 4.74158 -6.07362
vt 4.50000 -6.07362
vt 4.78708 -5.75000
vt 4.78708 -5.99158
vt 4.50000 -5.99158
vt 4.78708 -6.07362
vt 0.47821 0.00995
vt 0.00000 0.00995
vt 1.70844 1.00000
vt 1.70844 0.52179
vt 1.70844 0.00995
vt 3.99158 -5.75000
vt 3.75000 -5.75000
vt 3.99158 -5.98216
vt 3.75000 -5.98216
vt 3.94742 -5.75000
vt 3.94742 -5.99158
vt 3.75000 -5.99158
vt 3.94742 -5.98216
vt 0.75000 -4.75000
vt 0.90055 -5.00457
vt 0.75000 -5.00457
vt 0.78382 -4.75000
vt 0.78382 -5.00457
vt 0.90055 -4.75000
vt 0.78382 -4.90055
vt 0.75000 -4.90055
vt 0.78382 -5.04575
vt 0.75000 -5.04575
vt 7.50000 -2.50000
vt 7.65055 -2.75457
vt 7.50000 -2.75457
vt 7.53382 -2.50000
vt 7.53382 -2.75457
vt 7.65055 -2.50000
vt 7.53382 -2.65055
vt 7.50000 -2.65055
vt 7.53382 -2.79575
vt 7.50000 -2.79575
vt 4.82182 0.00000
vt 4.75000 0.00000
vt 4.82182 -0.04335
vt 4.75000 -0.04335
vt 4.91996 0.00000
vt 4.91996 -0.07182
vt 4.75000 -0.07182
vt 4.91996 -0.04335
vt 4.47855 -0.25000
vt 4.25000 -0.25000
vt 4.47855 -0.29335
vt 4.25000 -0.29335
vt 4.41996 -0.25000
vt 4.41996 -0.47855
vt 4.25000 -0.47855
vt 4.41996 -0.29335
vt 3.91114 -18.98270
vt 3.94291 -19.00500
vt 3.97406 -18.89290
vt 4.01262 -19.05380
vt 4.05074 -19.08050
vt 4.08811 -18.94590
vt 3.91115 -18.98270
vt 3.94292 -19.00500
vt 4.01261 -19.05380
vt 4.02594 -18.89290
vt 4.05708 -19.00500
vt 4.08885 -18.98270
vt 3.91189 -18.94590
vt 3.94926 -19.08050
vt 3.98739 -19.05380
vt 4.05709 -19.00500
vt 4.08886 -18.98270
vt 3.98738 -19.05380
vt 3.88369 -18.97470
vt 3.92244 -18.94290
vt 3.88369 -18.91110
vt 3.84494 -18.94290
vt 3.87931 -19.08890
vt 3.92581 -19.05070
vt 3.87931 -19.01260
vt 3.83281 -19.05070
vt 4.12056 -19.08890
vt 4.16719 -19.05070
vt 4.12056 -19.01260
vt 4.07406 -19.05070
vt 4.11631 -18.97470
vt 4.15506 -18.94290
vt 4.11631 -18.91110
vt 4.07756 -18.94290
vt 4.12069 -18.94590
vt 4.12069 -19.10710
vt 4.16719 -19.08050
vt 3.87944 -18.94590
vt 3.83281 -19.08050
vt 3.87944 -19.10710
vt 4.11631 -18.89290
vt 4.11631 -19.02720
vt 4.15506 -19.00500
vt 3.88369 -18.89290
vt 3.84494 -19.00500
vt 3.88369 -19.02720
vt 4.07419 -19.08050
vt 3.92594 -19.08050
vt 4.07756 -19.00500
vt 3.92244 -19.00500
vt 3.91199 -1.00000
vt 3.50000 -1.00000
vt 3.91199 -1.09379
vt 3.50000 -1.09379
vt 3.84809 -1.00000
vt 3.84809 -1.41199
vt 3.50000 -1.41199
vt 3.84809 -1.09379
vt 6.00897 -22.97790
vt 5.99103 -22.97790
vt 6.00897 -23.03720
vt 5.99103 -23.03720
vt 6.00897 -22.96280
vt 5.99103 -22.96280
vt 6.00897 -23.02200
vt 5.99103 -23.02200
vt 5.91094 -23.00900
vt 5.87844 -22.99100
vt 5.87844 -23.00900
vt 5.91094 -22.99100
vt 6.12156 -23.00900
vt 6.08906 -22.99100
vt 6.08906 -23.00900
vt 6.12156 -22.99100
vt 6.09394 -23.03720
vt 6.08906 -22.96280
vt 6.06144 -23.02210
vt 6.12156 -22.97790
vt 5.93856 -23.02200
vt 5.87844 -22.97800
vt 5.90606 -23.03720
vt 5.91094 -22.96280
vt 5.99103 -22.97800
vt 6.00897 -22.97800
vt 6.00897 -23.02210
vt 5.99103 -23.02210
vt 6.06144 -23.00900
vt 6.09394 -23.00900
vt 6.06144 -22.99100
vt 6.09394 -22.99100
vt 5.90606 -23.00900
vt 5.93856 -23.00900
vt 5.90606 -22.99100
vt 5.93856 -22.99100
vt 5.93856 -23.02210
vt 5.87844 -22.97790
vt 6.06144 -23.02200
vt 6.12156 -22.97800
vt 45.86900 -39.00460
vt 45.89060 -38.94330
vt 45.86900 -38.94330
vt 45.95360 -39.02910
vt 45.98390 -38.94330
vt 45.95360 -38.94330
vt 46.01430 -38.94330
vt 45.91230 -38.94330
vt 46.11290 -39.01430
vt 46.14330 -38.98390
vt 46.11290 -38.95360
vt 46.08270 -38.98390
vt 45.88710 -39.01430
vt 45.91740 -38.98390
vt 45.88710 -38.95360
vt 45.85680 -38.98390
vt 46.06520 -38.89060
vt 46.08680 -38.91230
vt 46.08680 -38.86900
vt 46.10860 -38.89060
vt 45.89160 -38.89060
vt 45.91320 -38.91230
vt 45.91320 -38.86900
vt 45.93490 -38.89060
vt 46.13020 -39.13100
vt 46.16690 -39.09420
vt 46.13020 -39.05740
vt 46.09330 -39.09420
vt 45.83310 -39.09420
vt 45.86990 -39.13100
vt 45.86990 -39.05740
vt 45.90670 -39.09420
vt 45.91320 -38.94330
vt 45.89140 -38.94330
vt 45.91320 -39.00460
vt 45.88710 -38.94330
vt 45.85670 -38.94330
vt 45.88710 -39.02910
vt 46.13010 -39.05670
vt 46.16690 -38.95260
vt 46.13010 -38.95260
vt 46.08680 -38.94330
vt 46.06510 -38.94330
vt 46.08680 -39.00460
vt 46.11290 -38.94330
vt 46.08260 -38.94330
vt 46.11290 -39.02910
vt 45.86980 -39.05670
vt 45.90670 -38.95260
vt 45.86980 -38.95260
vt 45.94260 -39.05670
vt 45.90580 -38.95260
vt 45.86900 -38.95260
vt 45.94260 -38.95260
vt 45.86990 -39.05670
vt 45.86990 -38.95260
vt 45.83310 -38.95260
vt 46.14330 -38.94330
vt 46.13020 -39.05670
vt 46.13020 -38.95260
vt 46.09330 -38.95260
vt 46.10860 -38.94330
vt 45.91740 -38.94330
vt 45.93490 -38.94330
vt 28.16960 -56.96800
vt 27.83040 -56.96800
vt 28.16960 -57.14210
vt 27.83040 -57.14210
vt 27.83040 -56.92940
vt 28.08940 -56.96800
vt 28.08940 -56.92940
vt 27.83100 -56.85790
vt 27.83100 -56.92940
vt 28.05340 -56.92940
vt 28.09380 -56.83100
vt 27.90620 -56.83100
vt 28.09380 -57.05340
vt 27.90620 -57.05340
vt 27.87140 -57.08940
vt 28.12860 -57.08940
vt 28.12860 -56.83040
vt 27.87140 -56.83040
vt 28.18620 -57.16960
vt 28.18620 -56.83040
vt 27.81380 -57.16960
vt 27.81380 -56.83040
vt 27.81380 -56.96800
vt 27.81380 -57.14210
vt 28.18620 -57.14210
vt 27.87140 -56.96800
vt 28.12860 -56.96800
vt 28.18620 -56.96800
vt 27.87140 -56.92940
vt 28.12860 -56.92940
vt 27.90620 -56.85790
vt 27.90620 -56.92940
vt 28.09380 -56.92940
vt 28.09380 -56.85790
vt 27.91060 -56.92940
vt 27.91060 -56.96800
vt 28.16960 -56.92940
vt 28.16900 -56.92940
vt 28.16900 -56.85790
vt 27.94660 -56.92940
vt 1.86514 0.00000
vt 1.50000 0.00000
vt 1.86514 -0.12000
vt 1.50000 -0.12000
vt 1.88650 0.00000
vt 1.88650 -0.36514
vt 1.50000 -0.36514
vt 1.88650 -0.12000
vt 61.92260 -34.95320
vt 61.92260 -35.04680
vt 62.07740 -35.04680
vt 62.21640 -34.92260
vt 62.09000 -34.92260
vt 62.21640 -35.07740
vt 62.09000 -35.07740
vt 61.91000 -34.92260
vt 61.78360 -34.92260
vt 61.91000 -35.07740
vt 61.78360 -35.07740
vt 61.91000 -35.04680
vt 61.91000 -34.95320
vt 61.78360 -34.95320
vt 61.78360 -35.04680
vt 62.21640 -35.04680
vt 62.21640 -34.95320
vt 62.09000 -34.95320
vt 62.09000 -35.04680
vt 62.07740 -34.95320
vt 6.97229 -5.00000
vt 6.50000 -5.00000
vt 6.97229 -5.28599
vt 6.50000 -5.28599
vt 6.96003 -5.00000
vt 6.96003 -5.47229
vt 6.50000 -5.47229
vt 6.96003 -5.28599
vt 6.76378 -1.75000
vt 6.75000 -1.75000
vt 6.76378 -1.87504
vt 6.75000 -1.87504
vt 7.00390 -1.75000
vt 7.00390 -1.76378
vt 6.75000 -1.76378
vt 7.00390 -1.87504
vt 62.05260 -41.06450
vt 61.94740 -40.93550
vt 61.94740 -41.06450
vt 62.05260 -40.93550
vt 62.23830 -41.05260
vt 62.12640 -40.94740
vt 62.12640 -41.05260
vt 62.23830 -40.94740
vt 61.86920 -41.05260
vt 61.76170 -40.94740
vt 61.76170 -41.05260
vt 61.86920 -40.94740
vt 61.87360 -41.06450
vt 61.76170 -40.93550
vt 61.76170 -41.06450
vt 61.87360 -40.93550
vt 62.23830 -41.06450
vt 62.13080 -40.93550
vt 62.13080 -41.06450
vt 62.23830 -40.93550
vt 61.87360 -41.05260
vt 61.87360 -40.94740
vt 62.13080 -41.05260
vt 62.13080 -40.94740
vt 62.12640 -40.93550
vt 62.12640 -41.06450
vt 61.86920 -41.06450
vt 61.86920 -40.93550
vt 62.04690 -30.91130
vt 61.96260 -30.91130
vt 62.04690 -31.01400
vt 61.96260 -31.01400
vt 61.92440 -31.04730
vt 61.86460 -30.91130
vt 61.86460 -31.04730
vt 61.92440 -30.91130
vt 62.03950 -31.08870
vt 62.02700 -31.04310
vt 62.01380 -31.07940
vt 62.05270 -31.05250
vt 62.13540 -31.03140
vt 62.08780 -31.00070
vt 62.09450 -31.03870
vt 62.12870 -30.99350
vt 62.25380 -30.96260
vt 61.74620 -30.96260
vt 62.25380 -31.04690
vt 61.74620 -31.04690
vt 62.25380 -30.86460
vt 61.74620 -30.86460
vt 62.25380 -30.92440
vt 61.74620 -30.92440
vt 62.23960 -31.12870
vt 61.76040 -31.08780
vt 61.76040 -31.12870
vt 62.23960 -31.08780
vt 62.23960 -31.05270
vt 61.76040 -31.02700
vt 61.76040 -31.05270
vt 62.23960 -31.02700
vt 62.25380 -31.04730
vt 61.74620 -30.91130
vt 61.74620 -31.04730
vt 62.25380 -30.91130
vt 62.25380 -31.01400
vt 61.74620 -31.01400
vt 62.23960 -31.04310
vt 61.76040 -31.04310
vt 62.23960 -31.07940
vt 61.76040 -31.07940
vt 62.23960 -31.03870
vt 61.76040 -31.00070
vt 61.76040 -31.03870
vt 62.23960 -31.00070
vt 62.03740 -30.91130
vt 61.95310 -30.91130
vt 62.03740 -31.01400
vt 61.95310 -31.01400
vt 62.13540 -31.04730
vt 62.07560 -30.91130
vt 62.07560 -31.04730
vt 62.13540 -30.91130
vt 61.98620 -31.07940
vt 61.94730 -31.05250
vt 61.96050 -31.08870
vt 61.97300 -31.04310
vt 61.91220 -31.00070
vt 61.87130 -30.99350
vt 61.90550 -31.03870
vt 61.86460 -31.03140
vt 61.76040 -31.01380
vt 62.23960 -31.03950
vt 62.23960 -31.01380
vt 61.76040 -31.03950
vt 61.76040 -31.13540
vt 62.23960 -31.13540
vt 61.76040 -31.09450
vt 62.23960 -31.09450
vt 62.23960 -30.99350
vt 61.76040 -30.99350
vt 62.23960 -31.03140
vt 61.76040 -31.03140
vt 62.23960 -31.08870
vt 61.76040 -31.05250
vt 61.76040 -31.08870
vt 62.23960 -31.05250
vt 40.01690 -3.04486
vt 39.98310 -2.95514
vt 39.98310 -3.04486
vt 40.01690 -2.95514
vt 40.24320 -3.01687
vt 40.21620 -2.98313
vt 40.21620 -3.01687
vt 40.24320 -2.98313
vt 39.78390 -3.01687
vt 39.75670 -2.98313
vt 39.75670 -3.01687
vt 39.78390 -2.98313
vt 39.78380 -3.04486
vt 39.75680 -2.95514
vt 39.75680 -3.04486
vt 39.78380 -2.95514
vt 40.24330 -3.04486
vt 40.21610 -2.95514
vt 40.21610 -3.04486
vt 40.24330 -2.95514
vt 39.75680 -3.01687
vt 39.78380 -3.01687
vt 39.75680 -2.98313
vt 39.78380 -2.98313
vt 40.21610 -3.01687
vt 40.24330 -3.01687
vt 40.21610 -2.98313
vt 40.24330 -2.98313
vt 40.24320 -3.04486
vt 40.21620 -2.95514
vt 40.21620 -3.04486
vt 40.24320 -2.95514
vt 39.78390 -3.04486
vt 39.75670 -2.95514
vt 39.75670 -3.04486
vt 39.78390 -2.95514
vt 4.38920 1.00000
vt 4.25000 1.00000
vt 4.38920 0.85742
vt 4.25000 0.85742
vt 4.37064 1.00000
vt 4.37064 0.86080
vt 4.25000 0.86080
vt 4.37064 0.85742
vt 3.36361 -1.25000
vt 3.25000 -1.25000
vt 3.36361 -1.34139
vt 3.25000 -1.34139
vt 3.31945 -1.25000
vt 3.31945 -1.36361
vt 3.25000 -1.36361
vt 3.31945 -1.34139
vn 1.0000 0.0000 0.0000
vn 0.0000 0.2598 -0.9685
vn 0.0000 0.9685 0.2598
vn -1.0000 0.0000 0.0000
vn 0.0000 -0.2598 0.9685
vn 0.0000 -0.9685 -0.2598
vn 0.0000 0.9370 -0.3386
vn 0.0000 0.3386 0.9370
vn 0.0000 -0.9370 0.3386
vn 0.0000 -0.3386 -0.9370
vn 0.7087 -0.1811 0.6850
vn -0.7087 -0.1811 0.6850
vn -0.6299 -0.2835 -0.7244
vn 0.6299 -0.2835 -0.7244
vn 0.7087 -0.7087 0.0000
vn 0.6299 0.6299 -0.4646
vn -0.6299 0.6299 -0.4646
vn 0.0000 0.0000 1.0000
vn -0.7087 -0.7087 0.0000
vn 0.0000 1.0000 0.0000
vn 0.0000 -1.0000 0.0000
vn 0.0000 0.0000 -1.0000
vn 0.0000 0.8189 -0.5748
vn 0.0000 0.5748 0.8189
vn 0.0000 -0.8189 0.5748
vn 0.0000 -0.5748 -0.8189
vn 0.0000 0.9843 0.1732
vn 0.0000 -0.1732 0.9843
vn 0.0000 -0.9843 -0.1732
vn 0.0000 0.1732 -0.9843
vn 0.0000 0.8189 0.5748
vn 0.0000 -0.5748 0.8189
vn 0.0000 -0.8189 -0.5748
vn 0.0000 0.5748 -0.8189
vn 0.0000 0.9685 -0.2598
vn 0.0000 0.2598 0.9685
vn 0.0000 -0.9685 0.2598
vn 0.0000 -0.2598 -0.9685
vn 0.0000 -0.8661 0.5039
vn 0.0000 0.5039 0.8661
vn 0.0000 0.4882 -0.8740
vn 0.0000 0.8661 -0.5039
vn 0.0000 -0.5039 -0.8661
vn 0.7087 0.4094 0.5827
vn -0.7087 0.4094 0.5827
vn -0.6299 0.0000 -0.7717
vn 0.6299 0.0000 -0.7717
vn 0.9055 -0.4252 0.0000
vn 0.9055 0.4252 0.0000
vn 0.4252 0.9055 0.0000
vn -0.4252 0.9055 0.0000
vn -0.9055 -0.4252 0.0000
vn -0.9055 0.4252 0.0000
vn -0.4252 -0.9055 0.0000
vn 0.4252 -0.9055 0.0000
vn 0.7087 0.0000 0.7087
vn 0.6299 -0.4488 -0.6299
vn -0.7087 0.0000 0.7087
vn -0.6299 -0.4488 -0.6299
vn 0.0000 0.9528 -0.3071
vn 0.0000 0.8583 -0.5197

o arm_L
usemtl c_667132
f 1/1/1 2/2/1 3/3/1
f 3/3/1 2/2/1 4/4/1
f 5/5/2 2/2/2 6/6/2
f 6/6/2 2/2/2 1/7/2
f 2/5/3 5/2/3 4/8/3
f 4/8/3 5/2/3 7/4/3
f 5/1/4 6/2/4 7/3/4
f 7/3/4 6/2/4 8/4/4
f 8/5/5 3/2/5 7/6/5
f 7/6/5 3/2/5 4/7/5
f 6/5/6 1/2/6 8/8/6
f 8/8/6 1/2/6 3/4/6
f 9/9/1 10/10/1 11/11/1
f 11/11/1 10/10/1 12/12/1
f 13/13/2 10/10/2 14/14/2
f 14/14/2 10/10/2 9/15/2
f 10/13/3 13/10/3 12/16/3
f 12/16/3 13/10/3 15/12/3
f 13/9/4 14/10/4 15/11/4
f 15/11/4 14/10/4 16/12/4
f 16/13/5 11/10/5 15/14/5
f 15/14/5 11/10/5 12/15/5
f 14/13/6 9/10/6 16/16/6
f 16/16/6 9/10/6 11/12/6
f 17/17/1 18/18/1 19/19/1
f 19/19/1 18/18/1 20/20/1
f 21/21/7 18/18/7 22/22/7
f 22/22/7 18/18/7 17/23/7
f 18/21/8 21/18/8 20/24/8
f 20/24/8 21/18/8 23/20/8
f 21/17/4 22/18/4 23/19/4
f 23/19/4 22/18/4 24/20/4
f 24/21/9 19/18/9 23/22/9
f 23/22/9 19/18/9 20/23/9
f 22/21/10 17/18/10 24/24/10
f 24/24/10 17/18/10 19/20/10
usemtl c_1b2a35
f 25/25/11 26/26/11 27/27/11
f 28/25/11 29/26/11 30/27/11
f 31/28/3 32/29/3 30/30/3
f 29/31/3 31/28/3 30/30/3
f 33/32/3 34/33/3 27/34/3
f 26/35/3 33/32/3 27/34/3
f 30/36/12 32/26/12 28/37/12
f 27/36/12 34/26/12 25/37/12
f 28/38/13 32/39/13 31/40/13
f 25/41/14 33/42/14 26/43/14
f 28/38/14 31/40/14 29/44/14
f 25/41/13 34/45/13 33/42/13
o arm_R
usemtl c_667132
f 35/46/1 36/47/1 37/48/1
f 37/48/1 36/47/1 38/49/1
f 39/50/2 36/47/2 40/51/2
f 40/51/2 36/47/2 35/52/2
f 36/50/3 39/47/3 38/53/3
f 38/53/3 39/47/3 41/49/3
f 39/46/4 40/47/4 41/48/4
f 41/48/4 40/47/4 42/49/4
f 42/50/5 37/47/5 41/51/5
f 41/51/5 37/47/5 38/52/5
f 40/50/6 35/47/6 42/53/6
f 42/53/6 35/47/6 37/49/6
f 43/54/1 44/55/1 45/56/1
f 45/56/1 44/55/1 46/57/1
f 47/58/2 44/55/2 48/59/2
f 48/59/2 44/55/2 43/60/2
f 44/58/3 47/55/3 46/61/3
f 46/61/3 47/55/3 49/57/3
f 47/54/4 48/55/4 49/56/4
f 49/56/4 48/55/4 50/57/4
f 50/58/5 45/55/5 49/59/5
f 49/59/5 45/55/5 46/60/5
f 48/58/6 43/55/6 50/61/6
f 50/61/6 43/55/6 45/57/6
f 51/62/1 52/63/1 53/64/1
f 53/64/1 52/63/1 54/65/1
f 55/66/7 52/63/7 56/67/7
f 56/67/7 52/63/7 51/68/7
f 52/66/8 55/63/8 54/69/8
f 54/69/8 55/63/8 57/65/8
f 55/62/4 56/63/4 57/64/4
f 57/64/4 56/63/4 58/65/4
f 58/66/9 53/63/9 57/67/9
f 57/67/9 53/63/9 54/68/9
f 56/66/10 51/63/10 58/69/10
f 58/69/10 51/63/10 53/65/10
usemtl c_1b2a35
f 59/70/11 60/71/11 61/72/11
f 62/70/11 63/71/11 64/72/11
f 65/73/3 66/74/3 64/75/3
f 63/76/3 65/73/3 64/75/3
f 67/77/3 68/78/3 61/79/3
f 60/80/3 67/77/3 61/79/3
f 64/81/12 66/71/12 62/82/12
f 61/81/12 68/71/12 59/82/12
f 62/83/13 66/84/13 65/85/13
f 59/86/14 67/87/14 60/88/14
f 62/83/14 65/85/14 63/89/14
f 59/86/13 68/90/13 67/87/13
o leg_L
usemtl c_1b2a35
f 69/91/15 70/92/15 71/93/15
f 69/91/16 72/94/16 70/92/16
f 73/95/16 74/96/16 75/97/16
f 73/95/15 75/97/15 76/98/15
f 77/99/16 78/100/16 79/101/16
f 69/102/17 80/103/17 72/104/17
f 78/105/18 81/106/18 82/107/18
f 79/108/18 78/105/18 82/107/18
f 74/109/18 83/110/18 76/111/18
f 75/112/18 74/109/18 76/111/18
f 72/113/18 80/114/18 71/115/18
f 70/116/18 72/113/18 71/115/18
f 82/117/19 81/118/19 77/119/19
f 77/119/17 81/118/17 78/120/17
f 73/98/17 83/121/17 74/122/17
f 76/95/19 83/121/19 73/98/19
f 77/102/15 79/103/15 82/104/15
f 71/100/19 80/101/19 69/99/19
usemtl c_667132
f 84/123/1 85/124/1 86/125/1
f 86/125/1 85/124/1 87/126/1
f 88/127/20 85/124/20 89/128/20
f 89/128/20 85/124/20 84/129/20
f 85/127/18 88/124/18 87/130/18
f 87/130/18 88/124/18 90/126/18
f 88/123/4 89/124/4 90/125/4
f 90/125/4 89/124/4 91/126/4
f 91/127/21 86/124/21 90/128/21
f 90/128/21 86/124/21 87/129/21
f 89/127/22 84/124/22 91/130/22
f 91/130/22 84/124/22 86/126/22
f 92/131/1 93/132/1 94/133/1
f 94/133/1 93/132/1 95/134/1
f 96/135/23 93/132/23 97/136/23
f 97/136/23 93/132/23 92/137/23
f 93/135/24 96/132/24 95/138/24
f 95/138/24 96/132/24 98/134/24
f 96/131/4 97/132/4 98/133/4
f 98/133/4 97/132/4 99/134/4
f 99/135/25 94/132/25 98/136/25
f 98/136/25 94/132/25 95/137/25
f 97/135/26 92/132/26 99/138/26
f 99/138/26 92/132/26 94/134/26
f 100/139/1 101/140/1 102/141/1
f 102/141/1 101/140/1 103/142/1
f 104/143/20 101/140/20 105/144/20
f 105/144/20 101/140/20 100/145/20
f 101/143/18 104/140/18 103/146/18
f 103/146/18 104/140/18 106/142/18
f 104/139/4 105/140/4 106/141/4
f 106/141/4 105/140/4 107/142/4
f 107/143/21 102/140/21 106/144/21
f 106/144/21 102/140/21 103/145/21
f 105/143/22 100/140/22 107/146/22
f 107/146/22 100/140/22 102/142/22
f 108/147/1 109/148/1 110/149/1
f 110/149/1 109/148/1 111/150/1
f 112/151/27 109/148/27 113/152/27
f 113/152/27 109/148/27 108/153/27
f 109/151/28 112/148/28 111/154/28
f 111/154/28 112/148/28 114/150/28
f 112/147/4 113/148/4 114/149/4
f 114/149/4 113/148/4 115/150/4
f 115/151/29 110/148/29 114/152/29
f 114/152/29 110/148/29 111/153/29
f 113/151/30 108/148/30 115/154/30
f 115/154/30 108/148/30 110/150/30
usemtl c_3a4834
f 116/155/1 117/156/1 118/157/1
f 118/157/1 117/156/1 119/158/1
f 120/159/1 121/160/1 122/161/1
f 123/162/1 121/160/1 120/159/1
f 124/163/7 117/164/7 125/165/7
f 125/165/7 117/164/7 116/166/7
f 126/167/7 121/168/7 127/169/7
f 127/169/7 121/168/7 123/170/7
f 122/171/8 126/172/8 128/173/8
f 121/174/8 126/172/8 122/171/8
f 119/175/8 124/176/8 129/177/8
f 117/178/8 124/176/8 119/175/8
f 129/179/4 125/180/4 130/181/4
f 124/182/4 125/180/4 129/179/4
f 128/183/4 127/184/4 131/185/4
f 126/186/4 127/184/4 128/183/4
f 131/187/9 120/188/9 128/189/9
f 128/189/9 120/188/9 122/190/9
f 130/191/9 118/192/9 129/193/9
f 129/193/9 118/192/9 119/194/9
f 125/195/10 116/196/10 130/197/10
f 130/197/10 116/196/10 118/198/10
f 127/199/10 123/200/10 131/201/10
f 131/201/10 123/200/10 120/202/10
o leg_R
usemtl c_1b2a35
f 132/203/16 133/204/16 134/205/16
f 132/203/15 134/205/15 135/206/15
f 136/207/15 137/208/15 138/209/15
f 136/207/16 139/210/16 137/208/16
f 140/211/16 141/212/16 142/213/16
f 136/214/17 143/215/17 139/216/17
f 140/211/17 144/217/17 141/212/17
f 133/218/18 145/219/18 135/220/18
f 134/221/18 133/218/18 135/220/18
f 139/222/18 143/223/18 138/224/18
f 137/225/18 139/222/18 138/224/18
f 141/226/18 144/227/18 146/228/18
f 142/229/18 141/226/18 146/228/18
f 132/206/17 145/230/17 133/231/17
f 135/203/19 145/230/19 132/206/19
f 138/212/19 143/213/19 136/211/19
f 140/214/15 142/215/15 146/216/15
f 146/216/19 144/232/19 140/214/19
usemtl c_667132
f 147/233/1 148/234/1 149/235/1
f 149/235/1 148/234/1 150/236/1
f 151/237/20 148/234/20 152/238/20
f 152/238/20 148/234/20 147/239/20
f 148/237/18 151/234/18 150/240/18
f 150/240/18 151/234/18 153/236/18
f 151/233/4 152/234/4 153/235/4
f 153/235/4 152/234/4 154/236/4
f 154/237/21 149/234/21 153/238/21
f 153/238/21 149/234/21 150/239/21
f 152/237/22 147/234/22 154/240/22
f 154/240/22 147/234/22 149/236/22
f 155/241/1 156/242/1 157/243/1
f 157/243/1 156/242/1 158/244/1
f 159/245/20 156/242/20 160/246/20
f 160/246/20 156/242/20 155/247/20
f 156/245/18 159/242/18 158/248/18
f 158/248/18 159/242/18 161/244/18
f 159/241/4 160/242/4 161/243/4
f 161/243/4 160/242/4 162/244/4
f 162/245/21 157/242/21 161/246/21
f 161/246/21 157/242/21 158/247/21
f 160/245/22 155/242/22 162/248/22
f 162/248/22 155/242/22 157/244/22
f 163/249/1 164/250/1 165/251/1
f 165/251/1 164/250/1 166/252/1
f 167/253/23 164/250/23 168/254/23
f 168/254/23 164/250/23 163/255/23
f 164/253/24 167/250/24 166/256/24
f 166/256/24 167/250/24 169/252/24
f 167/249/4 168/250/4 169/251/4
f 169/251/4 168/250/4 170/252/4
f 170/253/25 165/250/25 169/254/25
f 169/254/25 165/250/25 166/255/25
f 168/253/26 163/250/26 170/256/26
f 170/256/26 163/250/26 165/252/26
f 171/257/1 172/258/1 173/259/1
f 173/259/1 172/258/1 174/260/1
f 175/261/27 172/258/27 176/262/27
f 176/262/27 172/258/27 171/263/27
f 172/261/28 175/258/28 174/264/28
f 174/264/28 175/258/28 177/260/28
f 175/257/4 176/258/4 177/259/4
f 177/259/4 176/258/4 178/260/4
f 178/261/29 173/258/29 177/262/29
f 177/262/29 173/258/29 174/263/29
f 176/261/30 171/258/30 178/264/30
f 178/264/30 171/258/30 173/260/30
usemtl c_3a4834
f 179/265/1 180/266/1 181/267/1
f 182/268/1 180/266/1 179/265/1
f 183/269/1 184/270/1 185/271/1
f 185/271/1 184/270/1 186/272/1
f 187/273/7 184/274/7 188/275/7
f 188/275/7 184/274/7 183/276/7
f 189/277/7 180/278/7 190/279/7
f 190/279/7 180/278/7 182/280/7
f 181/281/8 189/282/8 191/283/8
f 180/284/8 189/282/8 181/281/8
f 186/285/8 187/286/8 192/287/8
f 184/288/8 187/286/8 186/285/8
f 191/289/4 190/290/4 193/291/4
f 189/292/4 190/290/4 191/289/4
f 192/293/4 188/294/4 194/295/4
f 187/296/4 188/294/4 192/293/4
f 193/297/9 179/298/9 191/299/9
f 191/299/9 179/298/9 181/300/9
f 194/301/9 185/302/9 192/303/9
f 192/303/9 185/302/9 186/304/9
f 188/305/10 183/306/10 194/307/10
f 194/307/10 183/306/10 185/308/10
f 190/309/10 182/310/10 193/311/10
f 193/311/10 182/310/10 179/312/10
o torso
usemtl c_938767
f 195/313/1 196/314/1 197/315/1
f 197/315/1 196/314/1 198/316/1
f 199/317/27 196/314/27 200/318/27
f 200/318/27 196/314/27 195/319/27
f 196/317/28 199/314/28 198/320/28
f 198/320/28 199/314/28 201/316/28
f 199/313/4 200/314/4 201/315/4
f 201/315/4 200/314/4 202/316/4
f 202/317/29 197/314/29 201/318/29
f 201/318/29 197/314/29 198/319/29
f 200/317/30 195/314/30 202/320/30
f 202/320/30 195/314/30 197/316/30
usemtl c_3a4834
f 203/321/1 204/322/1 205/323/1
f 205/323/1 204/322/1 206/324/1
f 207/325/1 208/326/1 209/327/1
f 210/328/1 208/326/1 207/325/1
f 211/329/1 212/330/1 213/331/1
f 213/331/1 212/330/1 214/332/1
f 215/333/27 204/334/27 216/335/27
f 216/335/27 204/334/27 203/336/27
f 217/337/7 208/338/7 210/339/7
f 218/340/7 208/338/7 217/337/7
f 219/341/31 212/342/31 220/343/31
f 220/343/31 212/342/31 211/344/31
f 214/345/32 219/346/32 221/347/32
f 212/348/32 219/346/32 214/345/32
f 206/349/28 215/350/28 222/351/28
f 204/352/28 215/350/28 206/349/28
f 209/353/8 218/354/8 223/355/8
f 208/356/8 218/354/8 209/353/8
f 222/357/4 216/358/4 224/359/4
f 215/360/4 216/358/4 222/357/4
f 223/361/4 217/362/4 225/363/4
f 218/364/4 217/362/4 223/361/4
f 219/365/4 220/366/4 221/367/4
f 221/367/4 220/366/4 226/368/4
f 226/369/33 213/370/33 221/371/33
f 221/371/33 213/370/33 214/372/33
f 224/373/29 205/374/29 222/375/29
f 222/375/29 205/374/29 206/376/29
f 223/377/9 207/378/9 209/379/9
f 225/380/9 207/378/9 223/377/9
f 225/381/10 210/382/10 207/383/10
f 217/384/10 210/382/10 225/381/10
f 216/385/30 203/386/30 224/387/30
f 224/387/30 203/386/30 205/388/30
f 220/389/34 211/390/34 226/391/34
f 226/391/34 211/390/34 213/392/34
usemtl c_667132
f 227/393/1 228/394/1 229/395/1
f 229/395/1 228/394/1 230/396/1
f 231/397/35 228/394/35 232/398/35
f 232/398/35 228/394/35 227/399/35
f 228/397/36 231/394/36 230/400/36
f 230/400/36 231/394/36 233/396/36
f 231/393/4 232/394/4 233/395/4
f 233/395/4 232/394/4 234/396/4
f 234/397/37 229/394/37 233/398/37
f 233/398/37 229/394/37 230/399/37
f 232/397/38 227/394/38 234/400/38
f 234/400/38 227/394/38 229/396/38
f 235/401/1 236/402/1 237/403/1
f 237/403/1 236/402/1 238/404/1
f 239/405/27 236/402/27 240/406/27
f 240/406/27 236/402/27 235/407/27
f 236/405/28 239/402/28 238/408/28
f 238/408/28 239/402/28 241/404/28
f 239/401/4 240/402/4 241/403/4
f 241/403/4 240/402/4 242/404/4
f 242/405/29 237/402/29 241/406/29
f 241/406/29 237/402/29 238/407/29
f 240/405/30 235/402/30 242/408/30
f 242/408/30 235/402/30 237/404/30
o tail01
usemtl c_3a4834
f 243/409/1 244/314/1 245/410/1
f 245/410/1 244/314/1 246/411/1
f 247/412/3 244/314/3 248/413/3
f 248/413/3 244/314/3 243/414/3
f 244/412/5 247/314/5 246/415/5
f 246/415/5 247/314/5 249/411/5
f 247/409/4 248/314/4 249/410/4
f 249/410/4 248/314/4 250/411/4
f 250/412/6 245/314/6 249/413/6
f 249/413/6 245/314/6 246/414/6
f 248/412/2 243/314/2 250/415/2
f 250/415/2 243/314/2 245/411/2
usemtl c_667132
f 251/416/1 252/417/1 253/418/1
f 253/418/1 252/417/1 254/419/1
f 255/420/3 252/417/3 256/421/3
f 256/421/3 252/417/3 251/422/3
f 252/420/5 255/417/5 254/423/5
f 254/423/5 255/417/5 257/419/5
f 255/416/4 256/417/4 257/418/4
f 257/418/4 256/417/4 258/419/4
f 258/420/6 253/417/6 257/421/6
f 257/421/6 253/417/6 254/422/6
f 256/420/2 251/417/2 258/423/2
f 258/423/2 251/417/2 253/419/2
o tail02
usemtl c_3a4834
f 259/409/1 260/314/1 261/424/1
f 261/424/1 260/314/1 262/425/1
f 263/426/27 260/314/27 264/427/27
f 264/427/27 260/314/27 259/414/27
f 260/426/28 263/314/28 262/428/28
f 262/428/28 263/314/28 265/425/28
f 263/409/4 264/314/4 265/424/4
f 265/424/4 264/314/4 266/425/4
f 266/426/29 261/314/29 265/427/29
f 265/427/29 261/314/29 262/414/29
f 264/426/30 259/314/30 266/428/30
f 266/428/30 259/314/30 261/425/30
usemtl c_667132
f 267/429/1 268/430/1 269/431/1
f 269/431/1 268/430/1 270/432/1
f 271/433/27 268/430/27 272/434/27
f 272/434/27 268/430/27 267/435/27
f 268/433/28 271/430/28 270/436/28
f 270/436/28 271/430/28 273/432/28
f 271/429/4 272/430/4 273/431/4
f 273/431/4 272/430/4 274/432/4
f 274/433/29 269/430/29 273/434/29
f 273/434/29 269/430/29 270/435/29
f 272/433/30 267/430/30 274/436/30
f 274/436/30 267/430/30 269/432/30
o mouth
usemtl c_966766
f 275/437/4 275/437/4 276/438/4
f 276/438/4 275/437/4 277/439/4
f 275/440/39 278/437/39 277/441/39
f 277/441/39 278/437/39 279/439/39
f 278/442/1 278/442/1 279/438/1
f 279/438/1 278/442/1 280/439/1
f 280/440/40 276/437/40 279/443/40
f 279/443/40 276/437/40 277/444/40
f 278/440/41 275/437/41 280/445/41
f 280/445/41 275/437/41 276/446/41
f 281/447/4 281/447/4 282/448/4
f 282/448/4 281/447/4 283/449/4
f 281/450/39 284/447/39 283/451/39
f 283/451/39 284/447/39 285/449/39
f 284/452/1 284/452/1 285/448/1
f 285/448/1 284/452/1 286/449/1
f 286/450/40 282/447/40 285/453/40
f 285/453/40 282/447/40 283/454/40
f 284/450/41 281/447/41 286/455/41
f 286/455/41 281/447/41 282/456/41
usemtl c_a34b4b
f 287/457/1 288/458/1 289/459/1
f 289/459/1 288/458/1 290/460/1
f 291/461/27 288/458/27 292/462/27
f 292/462/27 288/458/27 287/463/27
f 288/461/28 291/458/28 290/464/28
f 290/464/28 291/458/28 293/460/28
f 291/457/4 292/458/4 293/459/4
f 293/459/4 292/458/4 294/460/4
f 294/461/29 289/458/29 293/462/29
f 293/462/29 289/458/29 290/463/29
f 292/461/30 287/458/30 294/464/30
f 294/464/30 287/458/30 289/460/30
f 295/465/1 296/466/1 290/467/1
f 290/467/1 296/466/1 297/468/1
f 298/469/42 296/466/42 299/470/42
f 299/470/42 296/466/42 295/471/42
f 296/469/40 298/466/40 297/472/40
f 297/472/40 298/466/40 300/468/40
f 298/465/4 299/466/4 300/467/4
f 300/467/4 299/466/4 293/468/4
f 293/469/39 290/466/39 300/470/39
f 300/470/39 290/466/39 297/471/39
f 299/469/43 295/466/43 293/472/43
f 293/472/43 295/466/43 290/468/43
usemtl c_d7c59a
f 301/473/44 302/474/44 303/475/44
f 304/476/44 305/477/44 306/478/44
f 307/479/44 308/480/44 309/475/44
f 310/481/44 311/477/44 312/478/44
f 309/482/45 313/483/45 307/484/45
f 312/485/45 314/486/45 310/487/45
f 303/482/45 315/488/45 301/489/45
f 306/485/45 316/486/45 304/490/45
f 317/491/25 308/492/25 307/493/25
f 313/494/25 317/491/25 307/493/25
f 318/495/25 311/496/25 310/497/25
f 314/498/25 318/495/25 310/497/25
f 319/499/25 305/500/25 304/501/25
f 316/502/25 319/499/25 304/501/25
f 320/503/25 302/504/25 301/505/25
f 315/506/25 320/503/25 301/505/25
f 312/507/46 318/508/46 314/509/46
f 306/510/47 305/511/47 319/512/47
f 309/513/46 317/514/46 313/515/46
f 303/516/47 302/517/47 320/518/47
f 312/507/47 311/519/47 318/508/47
f 306/510/46 319/512/46 316/520/46
f 309/513/47 308/521/47 317/514/47
f 303/516/46 320/518/46 315/522/46
usemtl c_938767
f 321/523/1 322/524/1 323/525/1
f 323/525/1 322/524/1 324/526/1
f 325/527/42 322/524/42 326/528/42
f 326/528/42 322/524/42 321/529/42
f 322/527/40 325/524/40 324/530/40
f 324/530/40 325/524/40 327/526/40
f 325/523/4 326/524/4 327/525/4
f 327/525/4 326/524/4 328/526/4
f 328/527/39 323/524/39 327/528/39
f 327/528/39 323/524/39 324/529/39
f 326/527/43 321/524/43 328/530/43
f 328/530/43 321/524/43 323/526/43
o head
usemtl c_1b2a35
f 329/531/48 330/532/48 331/533/48
f 331/533/48 330/532/48 332/534/48
f 333/535/49 334/536/49 335/537/49
f 335/537/49 334/536/49 336/538/49
f 337/539/50 330/540/50 329/541/50
f 338/542/50 330/540/50 337/539/50
f 339/543/51 334/544/51 333/545/51
f 340/546/51 334/544/51 339/543/51
f 332/547/18 338/548/18 341/549/18
f 330/550/18 338/548/18 332/547/18
f 336/551/18 340/552/18 342/553/18
f 334/554/18 340/552/18 336/551/18
f 342/533/52 339/555/52 343/534/52
f 340/556/52 339/555/52 342/533/52
f 341/557/53 337/536/53 344/558/53
f 338/535/53 337/536/53 341/557/53
f 344/559/54 331/560/54 341/561/54
f 341/561/54 331/560/54 332/562/54
f 343/563/55 335/564/55 342/565/55
f 342/565/55 335/564/55 336/566/55
f 344/567/22 329/568/22 331/553/22
f 337/554/22 329/568/22 344/567/22
f 343/547/22 333/548/22 335/569/22
f 339/570/22 333/548/22 343/547/22
usemtl c_d7c59a
f 345/571/56 346/572/56 347/573/56
f 348/574/56 349/575/56 350/576/56
f 348/574/57 351/577/57 349/575/57
f 352/571/56 353/572/56 354/573/56
f 345/571/57 355/578/57 346/572/57
f 356/574/56 357/575/56 358/576/56
f 356/574/57 359/577/57 357/575/57
f 352/571/57 360/578/57 353/572/57
f 359/579/20 361/580/20 358/581/20
f 357/582/20 359/579/20 358/581/20
f 351/583/20 362/584/20 350/585/20
f 349/586/20 351/583/20 350/585/20
f 353/587/20 360/588/20 354/589/20
f 360/588/20 363/590/20 354/589/20
f 346/591/20 355/592/20 347/593/20
f 355/592/20 364/594/20 347/593/20
f 365/595/20 366/596/20 367/597/20
f 368/598/20 365/595/20 367/597/20
f 369/599/20 370/600/20 371/601/20
f 370/600/20 372/602/20 371/601/20
f 354/603/58 363/604/58 352/605/58
f 358/606/58 361/607/58 356/608/58
f 373/609/56 369/610/56 371/611/56
f 347/612/58 364/613/58 345/614/58
f 350/615/58 362/616/58 348/617/58
f 374/618/56 368/619/56 367/620/56
f 374/621/59 366/622/59 365/623/59
f 367/624/58 366/622/58 374/621/58
f 373/621/59 372/622/59 370/623/59
f 371/624/58 372/622/58 373/621/58
f 373/625/57 370/626/57 369/627/57
f 356/617/59 361/628/59 359/615/59
f 374/629/57 365/630/57 368/631/57
f 352/614/59 363/632/59 360/612/59
f 348/608/59 362/633/59 351/606/59
f 345/605/59 364/634/59 355/603/59
usemtl c_667132
f 375/635/1 376/636/1 377/637/1
f 378/638/1 377/637/1 376/636/1
f 379/639/1 380/640/1 381/641/1
f 380/640/1 379/639/1 382/636/1
f 383/642/1 384/643/1 385/644/1
f 386/645/60 383/646/60 387/647/60
f 387/647/60 383/646/60 385/648/60
f 381/649/20 388/650/20 387/647/20
f 387/647/20 388/650/20 389/651/20
f 381/649/20 387/647/20 385/648/20
f 390/645/20 387/647/20 389/651/20
f 385/648/20 379/652/20 381/649/20
f 389/651/20 384/646/20 390/645/20
f 379/652/20 385/648/20 384/646/20
f 389/651/20 379/652/20 384/646/20
f 391/650/20 392/653/20 393/654/20
f 394/651/20 391/650/20 393/654/20
f 391/650/20 380/649/20 392/653/20
f 375/655/20 392/653/20 380/649/20
f 376/656/20 375/655/20 380/649/20
f 376/656/20 380/649/20 382/652/20
f 393/657/18 395/658/18 378/659/18
f 394/660/18 393/657/18 378/659/18
f 378/659/18 382/661/18 394/660/18
f 378/659/18 376/662/18 382/661/18
f 389/663/18 394/660/18 382/661/18
f 389/663/18 382/661/18 379/664/18
f 386/665/18 390/666/18 384/667/18
f 386/665/18 384/667/18 383/668/18
f 395/637/4 392/636/4 396/638/4
f 392/636/4 395/637/4 393/635/4
f 394/635/4 388/669/4 391/670/4
f 388/669/4 394/635/4 389/671/4
f 390/672/4 386/673/4 387/674/4
f 395/656/21 396/655/21 377/653/21
f 378/654/21 395/656/21 377/653/21
f 392/662/22 375/657/22 396/659/22
f 377/658/22 396/659/22 375/657/22
f 381/663/22 391/661/22 388/664/22
f 391/661/22 381/663/22 380/660/22
f 397/675/1 398/676/1 399/677/1
f 399/677/1 398/676/1 400/678/1
f 401/679/20 398/676/20 402/680/20
f 402/680/20 398/676/20 397/681/20
f 398/679/18 401/676/18 400/682/18
f 400/682/18 401/676/18 403/678/18
f 401/675/4 402/676/4 403/677/4
f 403/677/4 402/676/4 404/678/4
f 404/679/21 399/676/21 403/680/21
f 403/680/21 399/676/21 400/681/21
f 402/679/22 397/676/22 404/682/22
f 404/682/22 397/676/22 399/678/22
f 405/683/1 406/684/1 407/685/1
f 408/683/1 409/684/1 410/685/1
f 411/686/61 408/687/61 412/688/61
f 408/687/61 410/689/61 412/688/61
f 413/690/61 405/691/61 414/692/61
f 405/691/61 407/693/61 414/692/61
f 409/694/18 408/695/18 411/696/18
f 415/697/18 409/694/18 411/696/18
f 406/698/18 405/699/18 413/700/18
f 416/701/18 406/698/18 413/700/18
f 411/702/4 412/684/4 415/685/4
f 413/702/4 414/684/4 416/685/4
f 410/692/21 409/690/21 415/691/21
f 412/693/21 410/692/21 415/691/21
f 407/688/21 406/686/21 416/687/21
f 414/689/21 407/688/21 416/687/21
f 417/703/1 418/704/1 419/705/1
f 419/705/1 418/704/1 420/706/1
f 421/707/20 418/704/20 422/708/20
f 422/708/20 418/704/20 417/709/20
f 418/707/18 421/704/18 420/710/18
f 420/710/18 421/704/18 423/706/18
f 421/703/4 422/704/4 423/705/4
f 423/705/4 422/704/4 424/706/4
f 424/707/21 419/704/21 423/708/21
f 423/708/21 419/704/21 420/709/21
f 422/707/22 417/704/22 424/710/22
f 424/710/22 417/704/22 419/706/22
usemtl c_111111
f 425/711/1 426/712/1 427/713/1
f 427/713/1 426/712/1 428/714/1
f 429/715/20 426/712/20 430/716/20
f 430/716/20 426/712/20 425/717/20
f 426/715/18 429/712/18 428/718/18
f 428/718/18 429/712/18 431/714/18
f 429/711/4 430/712/4 431/713/4
f 431/713/4 430/712/4 432/714/4
f 432/715/21 427/712/21 431/716/21
f 431/716/21 427/712/21 428/717/21
f 430/715/22 425/712/22 432/718/22
f 432/718/22 425/712/22 427/714/22
f 433/719/1 434/720/1 435/721/1
f 436/722/1 434/720/1 433/719/1
f 437/719/1 438/720/1 439/721/1
f 440/722/1 438/720/1 437/719/1
f 441/723/20 438/724/20 440/725/20
f 442/726/20 438/724/20 441/723/20
f 443/727/20 434/728/20 436/729/20
f 444/730/20 434/728/20 443/727/20
f 439/731/18 442/732/18 445/733/18
f 438/734/18 442/732/18 439/731/18
f 435/735/18 444/736/18 446/737/18
f 434/738/18 444/736/18 435/735/18
f 445/719/4 441/720/4 447/721/4
f 442/722/4 441/720/4 445/719/4
f 446/719/4 443/720/4 448/721/4
f 444/722/4 443/720/4 446/719/4
f 447/729/21 437/739/21 445/728/21
f 445/728/21 437/739/21 439/740/21
f 448/741/21 433/723/21 446/742/21
f 446/742/21 433/723/21 435/726/21
f 447/735/22 440/743/22 437/744/22
f 441/738/22 440/743/22 447/735/22
f 448/745/22 436/732/22 433/733/22
f 443/746/22 436/732/22 448/745/22
usemtl c_3a4834
f 449/747/1 450/748/1 451/749/1
f 451/749/1 450/748/1 452/750/1
f 453/751/1 454/752/1 455/753/1
f 456/754/1 454/752/1 453/751/1
f 457/755/1 458/756/1 459/757/1
f 460/758/1 458/756/1 457/755/1
f 461/759/1 462/760/1 463/761/1
f 464/762/1 462/760/1 461/759/1
f 465/763/20 450/764/20 466/765/20
f 466/765/20 450/764/20 449/766/20
f 467/767/20 454/768/20 468/769/20
f 468/769/20 454/768/20 456/770/20
f 469/771/27 462/772/27 464/773/27
f 470/774/27 462/772/27 469/771/27
f 471/775/7 458/776/7 460/777/7
f 472/778/7 458/776/7 471/775/7
f 455/779/18 467/780/18 473/781/18
f 454/782/18 467/780/18 455/779/18
f 452/783/18 465/780/18 474/784/18
f 450/782/18 465/780/18 452/783/18
f 458/785/8 472/786/8 459/787/8
f 459/787/8 472/786/8 475/788/8
f 463/789/28 470/790/28 476/791/28
f 462/792/28 470/790/28 463/789/28
f 465/793/4 466/794/4 474/795/4
f 474/795/4 466/794/4 477/796/4
f 473/797/4 468/798/4 478/799/4
f 467/800/4 468/798/4 473/797/4
f 475/801/4 471/802/4 479/803/4
f 472/804/4 471/802/4 475/801/4
f 470/805/4 469/806/4 476/807/4
f 476/807/4 469/806/4 480/808/4
f 475/809/9 457/810/9 459/811/9
f 479/812/9 457/810/9 475/809/9
f 480/813/29 461/814/29 476/815/29
f 476/815/29 461/814/29 463/816/29
f 473/768/21 453/769/21 455/767/21
f 478/770/21 453/769/21 473/768/21
f 474/764/21 451/765/21 452/763/21
f 477/766/21 451/765/21 474/764/21
f 469/817/30 464/818/30 480/819/30
f 480/819/30 464/818/30 461/820/30
f 479/821/10 460/822/10 457/823/10
f 471/824/10 460/822/10 479/821/10
f 477/783/22 449/780/22 451/784/22
f 466/782/22 449/780/22 477/783/22
f 468/782/22 456/780/22 478/779/22
f 478/779/22 456/780/22 453/781/22
usemtl c_f8f8f8
f 481/825/1 482/826/1 483/827/1
f 484/828/1 482/826/1 481/825/1
f 485/825/1 486/826/1 487/827/1
f 488/828/1 486/826/1 485/825/1
f 489/829/20 486/830/20 488/831/20
f 490/832/20 486/830/20 489/829/20
f 491/833/20 482/834/20 484/835/20
f 492/836/20 482/834/20 491/833/20
f 487/837/18 490/838/18 493/839/18
f 486/840/18 490/838/18 487/837/18
f 483/841/18 492/842/18 494/843/18
f 482/844/18 492/842/18 483/841/18
f 493/825/4 489/826/4 495/827/4
f 490/828/4 489/826/4 493/825/4
f 494/825/4 491/826/4 496/827/4
f 492/828/4 491/826/4 494/825/4
f 495/845/21 485/846/21 493/847/21
f 493/847/21 485/846/21 487/848/21
f 496/849/21 481/850/21 494/851/21
f 494/851/21 481/850/21 483/852/21
f 495/853/22 488/854/22 485/855/22
f 489/856/22 488/854/22 495/853/22
f 496/857/22 484/858/22 481/859/22
f 491/860/22 484/858/22 496/857/22
o tail03
usemtl c_667132
f 497/861/1 498/862/1 499/863/1
f 499/863/1 498/862/1 500/864/1
f 501/865/20 498/862/20 502/866/20
f 502/866/20 498/862/20 497/867/20
f 498/865/18 501/862/18 500/868/18
f 500/868/18 501/862/18 503/864/18
f 501/861/4 502/862/4 503/863/4
f 503/863/4 502/862/4 504/864/4
f 504/865/21 499/862/21 503/866/21
f 503/866/21 499/862/21 500/867/21
f 502/865/22 497/862/22 504/868/22
f 504/868/22 497/862/22 499/864/22
o tail04
usemtl c_667132
f 505/869/1 506/870/1 507/871/1
f 507/871/1 506/870/1 508/872/1
f 509/873/20 506/870/20 510/874/20
f 510/874/20 506/870/20 505/875/20
f 506/873/18 509/870/18 508/876/18
f 508/876/18 509/870/18 511/872/18
f 509/869/4 510/870/4 511/871/4
f 511/871/4 510/870/4 512/872/4
f 512/873/21 507/870/21 511/874/21
f 511/874/21 507/870/21 508/875/21
f 510/873/22 505/870/22 512/876/22
f 512/876/22 505/870/22 507/872/22
