# Roblox asset pack: apatosaurus (creatures), from the Studio model "Apatosaurus". Exported with Export Selection, split by tools/build_creatures.py: one object per rigid body. Units: studs. +Y up, front faces -Z, pivot (bottom centre) at the origin.
mtllib apatosaurus.mtl

v 5.00000 1.00000 -6.38000
v 5.00000 1.00000 -3.38000
v 5.00000 0.00000 -6.38000
v 5.00000 0.00000 -3.38000
v 2.00000 1.00000 -3.38000
v 2.00000 1.00000 -6.38000
v 2.00000 0.00000 -3.38000
v 2.00000 0.00000 -6.38000
v 5.00000 8.00000 -6.13000
v 5.00000 8.00000 -3.13000
v 5.00000 1.00000 -6.13000
v 5.00000 1.00000 -3.13000
v 2.00000 8.00000 -3.13000
v 2.00000 8.00000 -6.13000
v 2.00000 1.00000 -3.13000
v 2.00000 1.00000 -6.13000
v 3.00000 1.00000 -3.38000
v 3.00000 1.00000 -2.38000
v 3.00000 0.00000 -3.38000
v 3.00000 0.00000 -2.38000
v 2.00000 1.00000 -2.38000
v 2.00000 0.00000 -2.38000
v 6.25000 11.00000 3.12000
v 6.25000 11.00000 4.62000
v 6.25000 5.00000 3.12000
v 6.25000 5.00000 4.62000
v 1.75000 11.00000 4.62000
v 1.75000 11.00000 3.12000
v 1.75000 5.00000 4.62000
v 1.75000 5.00000 3.12000
v 6.00000 5.00000 3.87000
v 6.00000 5.00000 7.87000
v 6.00000 0.00000 3.87000
v 6.00000 0.00000 7.87000
v 2.00000 5.00000 7.87000
v 2.00000 5.00000 3.87000
v 2.00000 0.00000 7.87000
v 2.00000 0.00000 3.87000
v 6.25000 11.00000 6.12000
v 6.25000 11.00000 8.12000
v 6.25000 5.00000 6.12000
v 6.25000 5.00000 8.12000
v 1.75000 11.00000 8.12000
v 1.75000 11.00000 6.12000
v 1.75000 5.00000 8.12000
v 1.75000 5.00000 6.12000
v 6.25000 7.00000 4.62000
v 6.25000 7.00000 6.12000
v 1.75000 7.00000 6.12000
v 1.75000 7.00000 4.62000
v 3.00000 1.00000 2.87000
v 3.00000 1.00000 3.87000
v 3.00000 0.00000 2.87000
v 3.00000 0.00000 3.87000
v 2.00000 1.00000 3.87000
v 2.00000 1.00000 2.87000
v 2.00000 0.00000 2.87000
v 6.00000 1.00000 2.87000
v 6.00000 1.00000 3.87000
v 6.00000 0.00000 2.87000
v 5.00000 1.00000 3.87000
v 5.00000 1.00000 2.87000
v 5.00000 0.00000 3.87000
v 5.00000 0.00000 2.87000
v 4.50000 1.00000 2.87000
v 4.50000 1.00000 3.87000
v 4.50000 0.00000 2.87000
v 4.50000 0.00000 3.87000
v 3.50000 1.00000 3.87000
v 3.50000 1.00000 2.87000
v 3.50000 0.00000 3.87000
v 3.50000 0.00000 2.87000
v -2.00000 5.00000 3.87000
v -2.00000 5.00000 7.87000
v -2.00000 0.00000 3.87000
v -2.00000 0.00000 7.87000
v -6.00000 5.00000 7.87000
v -6.00000 5.00000 3.87000
v -6.00000 0.00000 7.87000
v -6.00000 0.00000 3.87000
v -1.75000 7.00000 4.62000
v -1.75000 7.00000 6.12000
v -1.75000 5.00000 4.62000
v -1.75000 5.00000 6.12000
v -6.25000 7.00000 6.12000
v -6.25000 7.00000 4.62000
v -6.25000 5.00000 6.12000
v -6.25000 5.00000 4.62000
v -1.75000 11.00000 6.12000
v -1.75000 11.00000 8.12000
v -1.75000 5.00000 8.12000
v -6.25000 11.00000 8.12000
v -6.25000 11.00000 6.12000
v -6.25000 5.00000 8.12000
v -1.75000 11.00000 3.12000
v -1.75000 11.00000 4.62000
v -1.75000 5.00000 3.12000
v -6.25000 11.00000 4.62000
v -6.25000 11.00000 3.12000
v -6.25000 5.00000 3.12000
v -2.00000 1.00000 2.87000
v -2.00000 1.00000 3.87000
v -2.00000 0.00000 2.87000
v -3.00000 1.00000 3.87000
v -3.00000 1.00000 2.87000
v -3.00000 0.00000 3.87000
v -3.00000 0.00000 2.87000
v -5.00000 1.00000 2.87000
v -5.00000 1.00000 3.87000
v -5.00000 0.00000 2.87000
v -5.00000 0.00000 3.87000
v -6.00000 1.00000 3.87000
v -6.00000 1.00000 2.87000
v -6.00000 0.00000 2.87000
v -3.50000 1.00000 2.87000
v -3.50000 1.00000 3.87000
v -3.50000 0.00000 2.87000
v -3.50000 0.00000 3.87000
v -4.50000 1.00000 3.87000
v -4.50000 1.00000 2.87000
v -4.50000 0.00000 3.87000
v -4.50000 0.00000 2.87000
v 4.00000 11.73000 -3.30000
v 4.00000 11.86000 -1.80000
v 4.00000 8.74000 -3.03000
v 4.00000 8.87000 -1.54000
v -4.00000 11.86000 -1.80000
v -4.00000 11.73000 -3.30000
v -4.00000 8.87000 -1.54000
v -4.00000 8.74000 -3.03000
v 3.00000 13.72000 -3.47000
v 3.00000 13.85000 -1.98000
v 3.00000 11.73000 -3.30000
v 3.00000 11.86000 -1.80000
v -3.00000 13.85000 -1.98000
v -3.00000 13.72000 -3.47000
v -3.00000 11.86000 -1.80000
v -3.00000 11.73000 -3.30000
v 3.00000 13.46000 -6.46000
v 3.00000 11.47000 -6.29000
v -3.00000 13.46000 -6.46000
v -3.00000 11.47000 -6.29000
v 4.00000 8.74000 -3.04000
v 4.00000 6.75000 -2.86000
v 4.00000 6.88000 -1.37000
v -4.00000 8.74000 -3.04000
v -4.00000 6.88000 -1.37000
v -4.00000 6.75000 -2.86000
v 3.00000 13.90000 -1.48000
v 3.00000 11.91000 -1.30000
v -3.00000 13.90000 -1.48000
v -3.00000 11.91000 -1.30000
v 4.00000 11.38000 -7.28000
v 4.00000 6.40000 -6.85000
v -4.00000 11.38000 -7.28000
v -4.00000 6.40000 -6.85000
v 4.00000 11.99000 -0.31000
v 4.00000 7.01000 0.13000
v -4.00000 11.99000 -0.31000
v -4.00000 7.01000 0.13000
v 3.00000 6.49000 -5.85000
v 3.00000 7.01000 0.13000
v 3.00000 4.50000 -5.67000
v 3.00000 5.02000 0.30000
v -3.00000 7.01000 0.13000
v -3.00000 6.49000 -5.85000
v -3.00000 5.02000 0.30000
v -3.00000 4.50000 -5.67000
v 1.50000 24.42000 -27.07000
v 1.50000 24.59000 -25.07000
v 1.50000 23.42000 -26.98000
v 1.50000 23.59000 -24.99000
v -1.50000 24.59000 -25.07000
v -1.50000 24.42000 -27.07000
v -1.50000 23.59000 -24.99000
v -1.50000 23.42000 -26.98000
v -1.00000 21.93000 -20.91000
v -1.00000 22.80000 -20.41000
v -1.00000 21.43000 -20.05000
v -1.00000 22.30000 -19.55000
v -2.00000 22.80000 -20.41000
v -2.00000 21.93000 -20.91000
v -2.00000 22.30000 -19.55000
v -2.00000 21.43000 -20.05000
v -1.50000 17.20000 -16.71000
v -1.50000 17.84000 -15.95000
v -1.50000 16.44000 -16.07000
v -1.50000 17.08000 -15.31000
v -2.50000 17.84000 -15.95000
v -2.50000 17.20000 -16.71000
v -2.50000 17.08000 -15.31000
v -2.50000 16.44000 -16.07000
v 2.50000 19.50000 -18.64000
v 2.50000 20.14000 -17.88000
v 2.50000 18.73000 -18.00000
v 2.50000 19.38000 -17.23000
v 1.50000 20.14000 -17.88000
v 1.50000 19.50000 -18.64000
v 1.50000 19.38000 -17.23000
v 1.50000 18.73000 -18.00000
v 2.50000 17.20000 -16.71000
v 2.50000 17.84000 -15.95000
v 2.50000 16.44000 -16.07000
v 2.50000 17.08000 -15.31000
v 1.50000 17.84000 -15.95000
v 1.50000 17.20000 -16.71000
v 1.50000 17.08000 -15.31000
v 1.50000 16.44000 -16.07000
v 2.00000 12.54000 -14.36000
v 2.00000 14.08000 -13.07000
v 2.00000 5.47000 -5.93000
v 2.00000 7.01000 -4.64000
v -2.00000 14.08000 -13.07000
v -2.00000 12.54000 -14.36000
v -2.00000 7.01000 -4.64000
v -2.00000 5.47000 -5.93000
v 1.50000 23.46000 -26.48000
v 1.50000 23.90000 -21.50000
v 1.50000 22.47000 -26.39000
v 1.50000 22.90000 -21.41000
v -1.50000 23.90000 -21.50000
v -1.50000 23.46000 -26.48000
v -1.50000 22.90000 -21.41000
v -1.50000 22.47000 -26.39000
v 2.50000 14.90000 -14.79000
v 2.50000 15.55000 -14.02000
v 2.50000 14.14000 -14.14000
v 2.50000 14.78000 -13.38000
v 1.50000 15.55000 -14.02000
v 1.50000 14.90000 -14.79000
v 1.50000 14.78000 -13.38000
v 1.50000 14.14000 -14.14000
v -1.50000 14.90000 -14.79000
v -1.50000 15.55000 -14.02000
v -1.50000 14.14000 -14.14000
v -1.50000 14.78000 -13.38000
v -2.50000 15.55000 -14.02000
v -2.50000 14.90000 -14.79000
v -2.50000 14.78000 -13.38000
v -2.50000 14.14000 -14.14000
v 1.00000 22.93000 -22.65000
v 1.00000 23.80000 -22.15000
v 1.00000 19.93000 -17.45000
v 1.00000 20.80000 -16.95000
v -1.00000 23.80000 -22.15000
v -1.00000 22.93000 -22.65000
v -1.00000 20.80000 -16.95000
v -1.00000 19.93000 -17.45000
v 3.00000 9.07000 -9.44000
v 3.00000 10.22000 -8.47000
v 3.00000 8.11000 -8.29000
v 3.00000 9.26000 -7.33000
v -3.00000 10.22000 -8.47000
v -3.00000 9.07000 -9.44000
v -3.00000 9.26000 -7.33000
v -3.00000 8.11000 -8.29000
v -1.50000 19.50000 -18.64000
v -1.50000 20.14000 -17.88000
v -1.50000 18.73000 -18.00000
v -1.50000 19.38000 -17.23000
v -2.50000 20.14000 -17.88000
v -2.50000 19.50000 -18.64000
v -2.50000 19.38000 -17.23000
v -2.50000 18.73000 -18.00000
v 1.50000 20.27000 -19.29000
v 1.50000 20.91000 -18.52000
v 1.50000 13.37000 -13.50000
v 1.50000 14.01000 -12.74000
v -1.50000 20.91000 -18.52000
v -1.50000 20.27000 -19.29000
v -1.50000 14.01000 -12.74000
v -1.50000 13.37000 -13.50000
v 2.00000 21.93000 -20.91000
v 2.00000 22.80000 -20.41000
v 2.00000 21.43000 -20.05000
v 2.00000 22.30000 -19.55000
v 1.00000 22.80000 -20.41000
v 1.00000 21.93000 -20.91000
v 1.00000 22.30000 -19.55000
v 1.00000 21.43000 -20.05000
v 3.00000 11.96000 -12.89000
v 3.00000 13.11000 -11.92000
v 3.00000 11.00000 -11.74000
v 3.00000 12.15000 -10.77000
v -3.00000 13.11000 -11.92000
v -3.00000 11.96000 -12.89000
v -3.00000 12.15000 -10.77000
v -3.00000 11.00000 -11.74000
v 2.50000 15.29000 -11.40000
v 2.50000 18.35000 -8.83000
v 2.50000 14.64000 -10.64000
v 2.50000 17.71000 -8.06000
v -2.50000 18.35000 -8.83000
v -2.50000 15.29000 -11.40000
v -2.50000 17.71000 -8.06000
v -2.50000 14.64000 -10.64000
v 1.50000 24.03000 -18.55000
v 1.50000 25.76000 -17.55000
v 1.50000 23.53000 -17.68000
v 1.50000 25.26000 -16.68000
v -1.50000 25.76000 -17.55000
v -1.50000 24.03000 -18.55000
v -1.50000 25.26000 -16.68000
v -1.50000 23.53000 -17.68000
v 2.50000 13.04000 -8.72000
v 2.50000 16.10000 -6.15000
v 2.50000 12.07000 -7.57000
v 2.50000 15.14000 -5.00000
v -2.50000 16.10000 -6.15000
v -2.50000 13.04000 -8.72000
v -2.50000 15.14000 -5.00000
v -2.50000 12.07000 -7.57000
v 2.00000 20.28000 -15.38000
v 2.00000 22.21000 -13.08000
v 2.00000 19.51000 -14.74000
v 2.00000 21.44000 -12.44000
v -2.00000 22.21000 -13.08000
v -2.00000 20.28000 -15.38000
v -2.00000 21.44000 -12.44000
v -2.00000 19.51000 -14.74000
v 2.00000 17.98000 -13.45000
v 2.00000 19.91000 -11.16000
v 2.00000 17.22000 -12.81000
v 2.00000 19.14000 -10.51000
v -2.00000 19.91000 -11.16000
v -2.00000 17.98000 -13.45000
v -2.00000 19.14000 -10.51000
v -2.00000 17.22000 -12.81000
v 2.50000 9.50000 -4.51000
v 2.50000 12.57000 -1.94000
v -2.50000 12.57000 -1.94000
v -2.50000 9.50000 -4.51000
v 1.50000 23.80000 -22.15000
v 1.50000 25.53000 -21.15000
v 1.50000 20.80000 -16.95000
v 1.50000 22.53000 -15.95000
v -1.50000 25.53000 -21.15000
v -1.50000 23.80000 -22.15000
v -1.50000 22.53000 -15.95000
v -1.50000 20.80000 -16.95000
v 1.50000 27.26000 -20.15000
v -1.50000 27.26000 -20.15000
v 2.00000 22.19000 -16.99000
v 2.00000 24.12000 -14.69000
v -2.00000 24.12000 -14.69000
v -2.00000 22.19000 -16.99000
v 2.50000 15.93000 -12.17000
v 2.50000 18.99000 -9.60000
v -2.50000 18.99000 -9.60000
v -2.50000 15.93000 -12.17000
v 2.50000 14.40000 -13.45000
v 2.50000 7.97000 -5.79000
v -2.50000 14.40000 -13.45000
v -2.50000 7.97000 -5.79000
v 2.00000 25.74000 -29.19000
v 2.00000 26.08000 -25.20000
v 2.00000 24.24000 -29.06000
v 2.00000 24.59000 -25.07000
v -2.00000 26.08000 -25.20000
v -2.00000 25.74000 -29.19000
v -2.00000 24.59000 -25.07000
v -2.00000 24.24000 -29.06000
v 2.00000 27.08000 -25.29000
v 2.00000 27.52000 -20.31000
v 2.00000 23.10000 -24.94000
v 2.00000 23.53000 -19.96000
v -2.00000 27.52000 -20.31000
v -2.00000 27.08000 -25.29000
v -2.00000 23.53000 -19.96000
v -2.00000 23.10000 -24.94000
v 1.50000 24.26000 -14.95000
v -1.50000 24.26000 -14.95000
v 2.00000 20.91000 -18.52000
v 2.00000 14.01000 -12.74000
v 2.00000 15.30000 -11.20000
v -2.00000 20.91000 -18.52000
v -2.00000 15.30000 -11.20000
v -2.00000 14.01000 -12.74000
v 2.00000 23.83000 -28.02000
v 2.00000 24.09000 -25.03000
v 2.00000 22.83000 -27.93000
v -2.00000 24.09000 -25.03000
v -2.00000 23.83000 -28.02000
v -2.00000 22.83000 -27.93000
v 2.00000 17.23000 -8.91000
v -2.00000 17.23000 -8.91000
v 1.50000 26.28000 -28.74000
v 1.50000 26.36000 -27.74000
v 1.50000 25.28000 -28.65000
v 1.50000 25.37000 -27.65000
v 0.50000 26.36000 -27.74000
v 0.50000 26.28000 -28.74000
v 0.50000 25.37000 -27.65000
v 0.50000 25.28000 -28.65000
v -0.50000 26.28000 -28.74000
v -0.50000 26.36000 -27.74000
v -0.50000 25.28000 -28.65000
v -0.50000 25.37000 -27.65000
v -1.50000 26.36000 -27.74000
v -1.50000 26.28000 -28.74000
v -1.50000 25.37000 -27.65000
v -1.50000 25.28000 -28.65000
v 2.25000 26.67000 -24.25000
v 2.25000 26.80000 -22.76000
v 2.25000 25.17000 -24.12000
v 2.25000 25.31000 -22.63000
v -2.25000 26.80000 -22.76000
v -2.25000 26.67000 -24.25000
v -2.25000 25.31000 -22.63000
v -2.25000 25.17000 -24.12000
v 1.50000 26.58000 -25.25000
v 1.50000 25.87000 -27.70000
v 1.50000 26.08000 -25.21000
v -1.50000 26.58000 -25.25000
v -1.50000 26.08000 -25.21000
v -1.50000 25.87000 -27.70000
v 1.00000 27.32000 -28.32000
v 1.00000 27.84000 -22.35000
v 1.00000 25.82000 -28.19000
v 1.00000 26.35000 -22.22000
v -1.00000 27.84000 -22.35000
v -1.00000 27.32000 -28.32000
v -1.00000 26.35000 -22.22000
v -1.00000 25.82000 -28.19000
v 2.25500 26.67000 -24.25000
v 2.25500 26.80000 -22.76000
v 2.25500 25.17000 -24.12000
v 2.25500 25.31000 -22.63000
v -2.25500 26.80000 -22.76000
v -2.25500 26.67000 -24.25000
v -2.25500 25.31000 -22.63000
v -2.25500 25.17000 -24.12000
v -2.00000 1.00000 -6.38000
v -2.00000 1.00000 -3.38000
v -2.00000 0.00000 -6.38000
v -2.00000 0.00000 -3.38000
v -5.00000 1.00000 -3.38000
v -5.00000 1.00000 -6.38000
v -5.00000 0.00000 -3.38000
v -5.00000 0.00000 -6.38000
v -2.00000 8.00000 -6.13000
v -2.00000 8.00000 -3.13000
v -2.00000 1.00000 -6.13000
v -2.00000 1.00000 -3.13000
v -5.00000 8.00000 -3.13000
v -5.00000 8.00000 -6.13000
v -5.00000 1.00000 -3.13000
v -5.00000 1.00000 -6.13000
v -2.00000 1.00000 -2.38000
v -2.00000 0.00000 -2.38000
v -3.00000 1.00000 -2.38000
v -3.00000 1.00000 -3.38000
v -3.00000 0.00000 -2.38000
v -3.00000 0.00000 -3.38000
v 2.00000 12.21000 13.72000
v 2.00000 11.87000 14.66000
v 2.00000 8.92000 12.52000
v 2.00000 8.58000 13.46000
v -2.00000 11.87000 14.66000
v -2.00000 12.21000 13.72000
v -2.00000 8.58000 13.46000
v -2.00000 8.92000 12.52000
v 2.00000 13.06000 11.37000
v 2.00000 12.72000 12.31000
v 2.00000 9.77000 10.17000
v 2.00000 9.43000 11.11000
v -2.00000 12.72000 12.31000
v -2.00000 13.06000 11.37000
v -2.00000 9.43000 11.11000
v -2.00000 9.77000 10.17000
v 1.00000 7.58000 19.25000
v 1.00000 7.32000 20.21000
v 1.00000 5.41000 18.67000
v 1.00000 5.15000 19.63000
v -1.00000 7.32000 20.21000
v -1.00000 7.58000 19.25000
v -1.00000 5.15000 19.63000
v -1.00000 5.41000 18.67000
v 1.50000 9.95000 15.84000
v 1.50000 9.45000 16.71000
v 1.50000 8.22000 14.84000
v 1.50000 7.72000 15.71000
v -1.50000 9.45000 16.71000
v -1.50000 9.95000 15.84000
v -1.50000 7.72000 15.71000
v -1.50000 8.22000 14.84000
v 1.00000 6.80000 22.15000
v 1.00000 6.54000 23.11000
v 1.00000 4.63000 21.56000
v 1.00000 4.37000 22.53000
v -1.00000 6.54000 23.11000
v -1.00000 6.80000 22.15000
v -1.00000 4.37000 22.53000
v -1.00000 4.63000 21.56000
v 2.00000 13.58000 9.96000
v 2.00000 10.29000 8.76000
v -2.00000 13.58000 9.96000
v -2.00000 10.29000 8.76000
v 1.50000 8.33000 18.66000
v 1.50000 6.60000 17.66000
v -1.50000 8.33000 18.66000
v -1.50000 6.60000 17.66000
v 2.00000 8.41000 13.93000
v 2.00000 8.64000 8.16000
v 2.00000 6.76000 13.33000
v -2.00000 8.41000 13.93000
v -2.00000 6.76000 13.33000
v -2.00000 8.64000 8.16000
v 1.50000 9.22000 13.11000
v 1.50000 7.92000 12.36000
v 1.50000 5.30000 16.91000
v -1.50000 9.22000 13.11000
v -1.50000 5.30000 16.91000
v -1.50000 7.92000 12.36000
v 2.00000 11.70000 15.12000
v -2.00000 11.70000 15.12000
v 0.25000 10.39000 28.27000
v 0.25000 11.07000 26.39000
v 0.25000 10.86000 28.44000
v 0.25000 11.54000 26.56000
v -0.25000 11.07000 26.39000
v -0.25000 10.39000 28.27000
v -0.25000 11.54000 26.56000
v -0.25000 10.86000 28.44000
v 1.50000 10.95000 14.11000
v -1.50000 10.95000 14.11000
v 0.50000 6.83000 27.00000
v 0.50000 9.09000 28.06000
v 0.50000 6.30000 28.13000
v 0.50000 8.56000 29.19000
v -0.50000 9.09000 28.06000
v -0.50000 6.83000 27.00000
v -0.50000 8.56000 29.19000
v -0.50000 6.30000 28.13000
v 0.50000 5.74000 23.74000
v 0.50000 7.64000 27.82000
v 0.50000 4.15000 24.48000
v 0.50000 6.06000 28.56000
v -0.50000 7.64000 27.82000
v -0.50000 5.74000 23.74000
v -0.50000 6.06000 28.56000
v -0.50000 4.15000 24.48000
v 1.00000 8.10000 17.32000
v 1.00000 5.92000 16.73000
v 1.00000 5.41000 18.66000
v -1.00000 8.10000 17.32000
v -1.00000 5.41000 18.66000
v -1.00000 5.92000 16.73000
v 0.25000 8.17000 27.94000
v 0.25000 10.63000 27.50000
v 0.25000 8.35000 28.92000
v 0.25000 10.81000 28.49000
v -0.25000 10.63000 27.50000
v -0.25000 8.17000 27.94000
v -0.25000 10.81000 28.49000
v -0.25000 8.35000 28.92000
v 1.00000 6.03000 25.04000
v 1.00000 3.85000 24.46000
v -1.00000 6.03000 25.04000
v -1.00000 3.85000 24.46000
v 1.25000 8.06000 9.25000
v 1.25000 6.71000 16.88000
v 1.25000 6.82000 9.03000
v 1.25000 5.48000 16.66000
v -1.25000 6.71000 16.88000
v -1.25000 8.06000 9.25000
v -1.25000 5.48000 16.66000
v -1.25000 6.82000 9.03000
v 5.00000 13.47000 5.08000
v 5.00000 13.60000 6.58000
v 5.00000 8.99000 5.48000
v 5.00000 9.12000 6.97000
v -5.00000 13.60000 6.58000
v -5.00000 13.47000 5.08000
v -5.00000 9.12000 6.97000
v -5.00000 8.99000 5.48000
v 3.00000 15.42000 4.41000
v 3.00000 15.55000 5.91000
v 3.00000 12.43000 4.67000
v 3.00000 12.56000 6.17000
v -3.00000 15.55000 5.91000
v -3.00000 15.42000 4.41000
v -3.00000 12.56000 6.17000
v -3.00000 12.43000 4.67000
v 3.00000 15.02000 -0.07000
v 3.00000 15.16000 1.42000
v 3.00000 12.04000 0.19000
v 3.00000 12.17000 1.68000
v -3.00000 15.16000 1.42000
v -3.00000 15.02000 -0.07000
v -3.00000 12.17000 1.68000
v -3.00000 12.04000 0.19000
v 5.00000 13.08000 0.60000
v 5.00000 13.21000 2.09000
v 5.00000 8.59000 0.99000
v 5.00000 8.72000 2.49000
v -5.00000 13.21000 2.09000
v -5.00000 13.08000 0.60000
v -5.00000 8.72000 2.49000
v -5.00000 8.59000 0.99000
v 5.00000 8.51000 0.00000
v 5.00000 9.29000 8.96000
v 5.00000 6.02000 0.21000
v 5.00000 6.80000 9.18000
v -5.00000 9.29000 8.96000
v -5.00000 8.51000 0.00000
v -5.00000 6.80000 9.18000
v -5.00000 6.02000 0.21000
v 5.00000 13.77000 8.57000
v -5.00000 13.77000 8.57000
v 5.00000 12.99000 -0.40000
v -5.00000 12.99000 -0.40000
v 3.00000 15.72000 7.90000
v 3.00000 12.73000 8.16000
v -3.00000 15.72000 7.90000
v -3.00000 12.73000 8.16000
v 3.00000 14.50000 7.87000
v 3.00000 14.50000 10.37000
v 3.00000 7.00000 7.87000
v 3.00000 7.00000 10.37000
v -3.00000 14.50000 10.37000
v -3.00000 14.50000 7.87000
v -3.00000 7.00000 10.37000
v -3.00000 7.00000 7.87000
v 3.00000 14.89000 -1.57000
v -3.00000 14.89000 -1.57000
v 3.00000 7.00000 7.37000
v 3.00000 5.50000 7.37000
v 3.00000 5.50000 10.37000
v -3.00000 7.00000 7.37000
v -3.00000 5.50000 10.37000
v -3.00000 5.50000 7.37000
v 4.00000 6.02000 0.22000
v 4.00000 6.71000 8.19000
v 4.00000 4.02000 0.39000
v 4.00000 4.72000 8.36000
v -4.00000 6.71000 8.19000
v -4.00000 6.02000 0.22000
v -4.00000 4.72000 8.36000
v -4.00000 4.02000 0.39000
vt 2.87500 -3.75000
vt 2.50000 -3.75000
vt 2.87500 -3.87500
vt 2.50000 -3.87500
vt 2.87500 -4.12500
vt 2.50000 -4.12500
vt 6.12500 -6.00000
vt 5.75000 -6.00000
vt 6.12500 -6.87500
vt 5.75000 -6.87500
vt 6.12500 -6.37500
vt 5.75000 -6.37500
vt 6.12500 -0.75000
vt 6.00000 -0.75000
vt 6.12500 -0.87500
vt 6.00000 -0.87500
vt 5.43750 0.50000
vt 5.25000 0.50000
vt 5.43750 -0.25000
vt 5.25000 -0.25000
vt 5.81250 0.50000
vt 5.81250 0.31250
vt 5.25000 0.31250
vt 5.81250 -0.25000
vt 3.50000 -4.75000
vt 3.00000 -4.75000
vt 3.50000 -5.37500
vt 3.00000 -5.37500
vt 3.50000 -5.25000
vt 3.00000 -5.25000
vt 4.50000 0.75000
vt 4.25000 0.75000
vt 4.50000 0.00000
vt 4.25000 0.00000
vt 4.81250 0.75000
vt 4.81250 0.50000
vt 4.25000 0.50000
vt 4.81250 0.00000
vt 7.93750 1.00000
vt 7.75000 1.00000
vt 7.93750 0.75000
vt 7.75000 0.75000
vt 8.31250 1.00000
vt 8.31250 0.81250
vt 7.75000 0.81250
vt 8.31250 0.75000
vt 2.87500 -1.00000
vt 2.75000 -1.00000
vt 2.87500 -1.12500
vt 2.75000 -1.12500
vt 0.12500 -0.75000
vt 0.00000 -0.75000
vt 0.12500 -0.87500
vt 0.00000 -0.87500
vt 7.62500 -0.75000
vt 7.50000 -0.75000
vt 7.62500 -0.87500
vt 7.50000 -0.87500
vt 5.93750 -3.50000
vt 5.75000 -3.50000
vt 5.93750 -4.00000
vt 5.75000 -4.00000
vt 6.31250 -3.50000
vt 6.31250 -3.68750
vt 5.75000 -3.68750
vt 6.31250 -4.00000
vt 7.50000 -0.25000
vt 7.00000 -0.25000
vt 7.00000 -0.87500
vt 7.00000 -0.75000
vt 7.43750 -4.25000
vt 7.25000 -4.25000
vt 7.43750 -4.50000
vt 7.25000 -4.50000
vt 7.81250 -4.25000
vt 7.81250 -4.43750
vt 7.25000 -4.43750
vt 7.81250 -4.50000
vt 3.50000 -0.25000
vt 3.25000 -0.25000
vt 3.50000 -1.00000
vt 3.25000 -1.00000
vt 3.81250 -0.25000
vt 3.81250 -0.50000
vt 3.25000 -0.50000
vt 3.81250 -1.00000
vt 3.68750 -3.75000
vt 3.50000 -3.75000
vt 3.68750 -4.50000
vt 3.50000 -4.50000
vt 4.06250 -3.75000
vt 4.06250 -3.93750
vt 3.50000 -3.93750
vt 4.06250 -4.50000
vt 7.37500 -3.00000
vt 7.25000 -3.00000
vt 7.37500 -3.12500
vt 7.25000 -3.12500
vt 5.37500 -3.25000
vt 5.25000 -3.25000
vt 5.37500 -3.37500
vt 5.25000 -3.37500
vt 5.37500 -6.50000
vt 5.25000 -6.50000
vt 5.37500 -6.62500
vt 5.25000 -6.62500
vt 7.68750 0.25000
vt 7.50000 0.25000
vt 7.68750 -0.25000
vt 8.06250 0.25000
vt 8.06250 0.06250
vt 7.50000 0.06250
vt 8.06250 -0.25000
vt 2.18750 -2.50000
vt 2.00000 -2.50000
vt 2.18750 -2.87500
vt 2.00000 -2.87500
vt 3.00000 -2.50000
vt 3.00000 -2.68750
vt 2.00000 -2.68750
vt 3.00000 -2.87500
vt 5.18750 0.00000
vt 5.00000 0.00000
vt 5.18750 -0.25000
vt 5.00000 -0.25000
vt 5.75000 0.00000
vt 5.75000 -0.18750
vt 5.00000 -0.18750
vt 5.75000 -0.25000
vt 0.87500 -4.50000
vt 0.50000 -4.50000
vt 0.87500 -4.75000
vt 0.50000 -4.75000
vt 1.25000 -4.50000
vt 1.25000 -4.87500
vt 0.50000 -4.87500
vt 1.25000 -4.75000
vt 1.18750 -4.25000
vt 1.00000 -4.25000
vt 1.18750 -4.50000
vt 1.00000 -4.50000
vt 2.00000 -4.25000
vt 2.00000 -4.43750
vt 1.00000 -4.43750
vt 2.00000 -4.50000
vt 3.81250 -0.75000
vt 3.75000 -0.75000
vt 3.75000 -1.00000
vt 4.50000 -0.75000
vt 4.50000 -0.81250
vt 3.75000 -0.81250
vt 4.50000 -1.00000
vt 7.50000 -3.50000
vt 7.00000 -3.50000
vt 7.50000 -4.12500
vt 7.00000 -4.12500
vt 8.00000 -3.50000
vt 8.00000 -4.00000
vt 7.00000 -4.00000
vt 8.00000 -4.12500
vt 7.93750 -5.50000
vt 7.75000 -5.50000
vt 7.93750 -6.12500
vt 7.75000 -6.12500
vt 8.75000 -5.50000
vt 8.75000 -5.68750
vt 7.75000 -5.68750
vt 8.75000 -6.12500
vt 4.25000 -3.75000
vt 4.25000 -4.00000
vt 3.50000 -4.00000
vt 4.25000 -4.50000
vt 6.25000 -1.75000
vt 6.00000 -1.75000
vt 6.25000 -1.87500
vt 6.00000 -1.87500
vt 6.37500 -1.75000
vt 6.37500 -2.00000
vt 6.00000 -2.00000
vt 6.37500 -1.87500
vt 7.62500 -2.75000
vt 7.50000 -2.75000
vt 7.62500 -2.87500
vt 7.50000 -2.87500
vt 6.62500 -4.75000
vt 6.50000 -4.75000
vt 6.62500 -4.87500
vt 6.50000 -4.87500
vt 0.87500 -6.50000
vt 0.75000 -6.50000
vt 0.87500 -6.62500
vt 0.75000 -6.62500
vt 2.62500 1.00000
vt 2.50000 1.00000
vt 2.62500 0.87500
vt 2.50000 0.87500
vt 3.00000 0.75000
vt 2.75000 0.75000
vt 3.00000 -0.62500
vt 2.75000 -0.62500
vt 3.25000 0.75000
vt 3.25000 0.50000
vt 2.75000 0.50000
vt 3.25000 -0.62500
vt 4.37500 1.00000
vt 3.75000 1.00000
vt 4.37500 0.87500
vt 3.75000 0.87500
vt 4.12500 1.00000
vt 4.12500 0.37500
vt 3.75000 0.37500
vt 4.12500 0.87500
vt 0.87500 -5.25000
vt 0.75000 -5.25000
vt 0.87500 -5.37500
vt 0.75000 -5.37500
vt 3.37500 -6.00000
vt 3.25000 -6.00000
vt 3.37500 -6.12500
vt 3.25000 -6.12500
vt 4.62500 0.25000
vt 4.50000 0.25000
vt 4.62500 -0.50000
vt 4.50000 -0.50000
vt 4.75000 0.25000
vt 4.75000 0.12500
vt 4.50000 0.12500
vt 4.75000 -0.50000
vt 4.93750 0.50000
vt 4.75000 0.50000
vt 4.93750 0.31250
vt 4.75000 0.31250
vt 5.50000 0.50000
vt 5.50000 0.31250
vt 0.37500 0.50000
vt 0.25000 0.50000
vt 0.37500 0.37500
vt 0.25000 0.37500
vt 3.62500 -4.50000
vt 3.62500 -5.62500
vt 3.50000 -5.62500
vt 3.87500 -4.50000
vt 3.87500 -4.62500
vt 3.50000 -4.62500
vt 3.87500 -5.62500
vt 2.87500 -0.75000
vt 2.75000 -0.75000
vt 2.87500 -0.87500
vt 2.75000 -0.87500
vt 7.43750 -5.50000
vt 7.25000 -5.50000
vt 7.43750 -5.68750
vt 7.25000 -5.68750
vt 8.00000 -5.50000
vt 8.00000 -5.68750
vt 5.50000 -5.25000
vt 5.00000 -5.25000
vt 5.50000 -5.37500
vt 5.00000 -5.37500
vt 5.62500 -5.25000
vt 5.62500 -5.75000
vt 5.00000 -5.75000
vt 5.62500 -5.37500
vt 7.00000 -4.75000
vt 6.75000 -4.75000
vt 7.00000 -4.87500
vt 6.75000 -4.87500
vt 7.12500 -4.75000
vt 7.12500 -5.00000
vt 6.75000 -5.00000
vt 7.12500 -4.87500
vt 2.75000 -6.25000
vt 2.25000 -6.25000
vt 2.75000 -6.43750
vt 2.25000 -6.43750
vt 2.87500 -6.25000
vt 2.87500 -6.75000
vt 2.25000 -6.75000
vt 2.87500 -6.43750
vt 8.12500 0.75000
vt 8.12500 0.62500
vt 7.75000 0.62500
vt 8.25000 0.75000
vt 8.25000 0.37500
vt 7.75000 0.37500
vt 8.25000 0.62500
vt 7.12500 1.00000
vt 6.75000 1.00000
vt 7.12500 0.87500
vt 6.75000 0.87500
vt 7.25000 1.00000
vt 7.25000 0.62500
vt 6.75000 0.62500
vt 7.25000 0.87500
vt 0.75000 -3.25000
vt 0.25000 -3.25000
vt 0.75000 -3.75000
vt 0.25000 -3.75000
vt 0.87500 -3.25000
vt 0.87500 -3.75000
vt 2.50000 -3.25000
vt 2.25000 -3.25000
vt 2.50000 -4.00000
vt 2.25000 -4.00000
vt 2.62500 -3.25000
vt 2.62500 -3.50000
vt 2.25000 -3.50000
vt 2.62500 -4.00000
vt 1.00000 -1.25000
vt 0.75000 -1.25000
vt 1.00000 -1.62500
vt 0.75000 -1.62500
vt 1.12500 -1.25000
vt 1.12500 -1.50000
vt 0.75000 -1.50000
vt 1.12500 -1.62500
vt 2.00000 -6.00000
vt 1.50000 -6.00000
vt 2.00000 -6.31250
vt 1.50000 -6.31250
vt 2.12500 -6.00000
vt 2.12500 -6.50000
vt 1.50000 -6.50000
vt 2.12500 -6.31250
vt 7.62500 -2.50000
vt 7.25000 -2.50000
vt 7.25000 -2.75000
vt 7.75000 -2.50000
vt 7.75000 -2.87500
vt 7.25000 -2.87500
vt 7.75000 -2.75000
vt 3.37500 -2.75000
vt 3.00000 -2.75000
vt 3.37500 -3.06250
vt 3.00000 -3.06250
vt 3.50000 -2.75000
vt 3.50000 -3.12500
vt 3.00000 -3.12500
vt 3.50000 -3.06250
vt 4.25000 1.00000
vt 4.25000 0.87500
vt 4.37500 0.50000
vt 3.75000 0.50000
vt 6.50000 -1.00000
vt 6.25000 -1.00000
vt 6.50000 -2.25000
vt 6.25000 -2.25000
vt 6.87500 -1.00000
vt 6.87500 -1.25000
vt 6.25000 -1.25000
vt 6.87500 -2.25000
vt 2.25000 -2.50000
vt 1.75000 -2.50000
vt 2.25000 -2.68750
vt 1.75000 -2.68750
vt 2.25000 -3.00000
vt 1.75000 -3.00000
vt 5.62500 -5.50000
vt 5.00000 -5.50000
vt 5.62500 -6.00000
vt 5.00000 -6.00000
vt 5.50000 -5.50000
vt 5.50000 -6.12500
vt 5.00000 -6.12500
vt 5.50000 -6.00000
vt 5.50000 -4.75000
vt 5.25000 -4.75000
vt 5.50000 -5.00000
vt 5.25000 -5.00000
vt 5.62500 -4.75000
vt 5.62500 -5.00000
vt 4.00000 -1.00000
vt 4.00000 -2.12500
vt 3.75000 -2.12500
vt 4.25000 -1.00000
vt 4.25000 -1.25000
vt 3.75000 -1.25000
vt 4.25000 -2.12500
vt 5.12500 -4.50000
vt 4.75000 -4.50000
vt 5.12500 -4.62500
vt 4.75000 -4.62500
vt 5.25000 -4.50000
vt 5.25000 -4.87500
vt 4.75000 -4.87500
vt 5.25000 -4.62500
vt 5.37500 -5.00000
vt 5.00000 -5.00000
vt 5.37500 -5.31250
vt 5.00000 -5.31250
vt 5.50000 -5.31250
vt 4.12500 -2.75000
vt 4.00000 -2.75000
vt 4.12500 -2.87500
vt 4.00000 -2.87500
vt 3.37500 -4.75000
vt 3.25000 -4.75000
vt 3.37500 -4.87500
vt 3.25000 -4.87500
vt 0.93750 -4.50000
vt 0.75000 -4.50000
vt 0.93750 -4.68750
vt 0.75000 -4.68750
vt 1.31250 -4.50000
vt 1.31250 -4.68750
vt 6.31250 -5.75000
vt 6.00000 -5.75000
vt 6.31250 -5.81250
vt 6.00000 -5.81250
vt 6.37500 -5.75000
vt 6.37500 -6.06250
vt 6.00000 -6.06250
vt 6.37500 -5.81250
vt 6.50000 -6.50000
vt 5.75000 -6.50000
vt 6.50000 -6.68750
vt 5.75000 -6.68750
vt 6.00000 -6.50000
vt 6.00000 -7.25000
vt 5.75000 -7.25000
vt 6.00000 -6.68750
vt 1.00000 1.00000
vt 0.00000 1.00000
vt 1.00000 0.00000
vt 0.00000 0.00000
vt 4.62500 -6.50000
vt 4.25000 -6.50000
vt 4.62500 -6.62500
vt 4.25000 -6.62500
vt 4.62500 -6.87500
vt 4.25000 -6.87500
vt 7.12500 -4.25000
vt 6.75000 -4.25000
vt 7.12500 -5.12500
vt 6.75000 -5.12500
vt 7.12500 -4.62500
vt 6.75000 -4.62500
vt 5.87500 -0.50000
vt 5.75000 -0.50000
vt 5.87500 -0.62500
vt 5.75000 -0.62500
vt 1.62500 0.25000
vt 1.50000 0.25000
vt 1.62500 -0.18750
vt 1.50000 -0.18750
vt 2.00000 0.25000
vt 2.00000 0.12500
vt 1.50000 0.12500
vt 2.00000 -0.18750
vt 2.37500 -5.00000
vt 2.25000 -5.00000
vt 2.37500 -5.43750
vt 2.25000 -5.43750
vt 2.75000 -5.00000
vt 2.75000 -5.12500
vt 2.25000 -5.12500
vt 2.75000 -5.43750
vt 3.12500 -3.50000
vt 3.00000 -3.50000
vt 3.12500 -3.78125
vt 3.00000 -3.78125
vt 3.25000 -3.50000
vt 3.25000 -3.62500
vt 3.00000 -3.62500
vt 3.25000 -3.78125
vt 5.12500 -5.50000
vt 5.12500 -5.75000
vt 5.37500 -5.50000
vt 5.37500 -5.62500
vt 5.00000 -5.62500
vt 5.37500 -5.75000
vt 5.62500 0.00000
vt 5.50000 0.00000
vt 5.62500 -0.28125
vt 5.50000 -0.28125
vt 5.75000 -0.12500
vt 5.50000 -0.12500
vt 5.75000 -0.28125
vt 3.43750 -1.75000
vt 3.25000 -1.75000
vt 3.43750 -2.18750
vt 3.25000 -2.18750
vt 3.75000 -1.75000
vt 3.75000 -1.93750
vt 3.25000 -1.93750
vt 3.75000 -2.18750
vt 6.43750 -0.75000
vt 6.25000 -0.75000
vt 6.43750 -1.18750
vt 6.25000 -1.18750
vt 6.75000 -0.75000
vt 6.75000 -0.93750
vt 6.25000 -0.93750
vt 6.75000 -1.18750
vt 7.78125 0.50000
vt 7.50000 0.50000
vt 7.78125 0.25000
vt 7.87500 0.50000
vt 7.87500 0.21875
vt 7.50000 0.21875
vt 7.87500 0.25000
vt 8.43750 -5.00000
vt 7.75000 -5.00000
vt 8.43750 -5.21875
vt 7.75000 -5.21875
vt 8.25000 -5.00000
vt 8.25000 -5.68750
vt 8.25000 -5.21875
vt 7.40625 -6.00000
vt 6.75000 -6.00000
vt 7.40625 -6.18750
vt 6.75000 -6.18750
vt 7.12500 -6.00000
vt 7.12500 -6.65625
vt 6.75000 -6.65625
vt 7.12500 -6.18750
vt 3.06250 -4.25000
vt 3.00000 -4.25000
vt 3.06250 -4.68750
vt 3.00000 -4.68750
vt 3.50000 -4.25000
vt 3.50000 -4.31250
vt 3.00000 -4.31250
vt 3.50000 -4.68750
vt 5.00000 -1.25000
vt 4.75000 -1.25000
vt 5.00000 -1.31250
vt 4.75000 -1.31250
vt 4.81250 -1.25000
vt 4.81250 -1.50000
vt 4.75000 -1.50000
vt 4.81250 -1.31250
vt 2.00000 -3.50000
vt 2.25000 -3.75000
vt 2.00000 -3.75000
vt 2.37500 -3.50000
vt 2.37500 -3.75000
vt 0.25000 -5.75000
vt 0.00000 -5.75000
vt 0.25000 -6.03125
vt 0.00000 -6.03125
vt 0.25000 -6.00000
vt 0.00000 -6.00000
vt 3.06250 -2.75000
vt 2.75000 -2.75000
vt 3.06250 -2.90625
vt 2.75000 -2.90625
vt 2.87500 -2.75000
vt 2.87500 -3.06250
vt 2.75000 -3.06250
vt 2.87500 -2.90625
vt 6.31250 -4.75000
vt 5.75000 -4.75000
vt 6.31250 -4.96875
vt 5.75000 -4.96875
vt 5.87500 -4.75000
vt 5.87500 -5.31250
vt 5.75000 -5.31250
vt 5.87500 -4.96875
vt 3.00000 0.50000
vt 3.25000 0.21875
vt 3.00000 0.21875
vt 3.25000 0.25000
vt 3.00000 0.25000
vt 7.06250 -3.25000
vt 6.75000 -3.25000
vt 7.06250 -3.37500
vt 6.75000 -3.37500
vt 6.81250 -3.25000
vt 6.81250 -3.56250
vt 6.75000 -3.56250
vt 6.81250 -3.37500
vt 6.25000 -3.50000
vt 6.00000 -3.50000
vt 6.25000 -3.78125
vt 6.00000 -3.78125
vt 6.25000 -3.75000
vt 6.00000 -3.75000
vt 4.71875 -3.25000
vt 3.75000 -3.25000
vt 4.71875 -3.40625
vt 3.75000 -3.40625
vt 4.06250 -3.25000
vt 4.06250 -4.21875
vt 3.75000 -4.21875
vt 4.06250 -3.40625
vt 1.43750 -0.75000
vt 1.25000 -0.75000
vt 1.43750 -1.31250
vt 1.25000 -1.31250
vt 2.50000 -0.75000
vt 2.50000 -0.93750
vt 1.25000 -0.93750
vt 2.50000 -1.31250
vt 0.68750 1.00000
vt 0.50000 1.00000
vt 0.68750 0.62500
vt 0.50000 0.62500
vt 1.25000 1.00000
vt 1.25000 0.81250
vt 0.50000 0.81250
vt 1.25000 0.62500
vt 1.18750 -5.00000
vt 1.00000 -5.00000
vt 1.18750 -5.37500
vt 1.00000 -5.37500
vt 1.75000 -5.00000
vt 1.75000 -5.18750
vt 1.00000 -5.18750
vt 1.75000 -5.37500
vt 4.68750 -6.00000
vt 4.50000 -6.00000
vt 4.68750 -6.56250
vt 4.50000 -6.56250
vt 5.75000 -6.18750
vt 4.50000 -6.18750
vt 5.75000 -6.56250
vt 1.62500 -3.75000
vt 0.50000 -3.75000
vt 1.62500 -4.06250
vt 0.50000 -4.06250
vt 1.75000 -3.75000
vt 1.75000 -4.87500
vt 1.75000 -4.06250
vt 7.00000 -1.75000
vt 6.75000 -1.75000
vt 7.00000 -2.31250
vt 6.75000 -2.31250
vt 8.00000 -1.75000
vt 8.00000 -2.00000
vt 6.75000 -2.00000
vt 8.00000 -2.31250
vt 7.62500 -0.50000
vt 7.50000 -0.50000
vt 7.62500 -1.06250
vt 7.50000 -1.06250
vt 8.75000 -0.50000
vt 8.75000 -0.62500
vt 7.50000 -0.62500
vt 8.75000 -1.06250
vt 6.75000 0.50000
vt 6.50000 0.50000
vt 6.75000 0.12500
vt 6.50000 0.12500
vt 7.25000 0.50000
vt 7.25000 0.25000
vt 6.50000 0.25000
vt 7.25000 0.12500
vt 6.06250 -2.25000
vt 5.75000 -2.25000
vt 6.06250 -3.18750
vt 5.75000 -3.18750
vt 6.50000 -2.56250
vt 5.75000 -2.56250
vt 6.50000 -3.18750
vt 7.62500 -5.50000
vt 7.62500 -6.06250
vt 7.25000 -6.06250
vt 8.50000 -5.50000
vt 8.50000 -5.87500
vt 7.25000 -5.87500
vt 8.50000 -6.06250
vt 3.68750 -2.00000
vt 3.50000 -2.00000
vt 3.68750 -2.37500
vt 3.50000 -2.37500
vt 4.25000 -2.00000
vt 4.25000 -2.18750
vt 3.50000 -2.18750
vt 4.25000 -2.37500
vt 6.12500 -3.75000
vt 5.75000 -3.75000
vt 6.12500 -4.12500
vt 5.75000 -4.12500
vt 6.50000 -3.75000
vt 6.50000 -4.12500
vt 4.87500 -1.75000
vt 4.50000 -1.75000
vt 4.87500 -1.93750
vt 4.50000 -1.93750
vt 5.25000 -1.75000
vt 5.25000 -2.12500
vt 4.50000 -2.12500
vt 5.25000 -1.93750
vt 2.25000 -1.75000
vt 3.25000 -2.00000
vt 2.25000 -2.00000
vt 3.25000 -2.75000
vt 2.25000 -2.75000
vn 1.0000 0.0000 0.0000
vn 0.0000 1.0000 0.0000
vn 0.0000 0.0000 1.0000
vn -1.0000 0.0000 0.0000
vn 0.0000 -1.0000 0.0000
vn 0.0000 0.0000 -1.0000
vn 0.0000 1.0000 -0.0866
vn 0.0000 0.0866 1.0000
vn 0.0000 -1.0000 0.0866
vn 0.0000 -0.0866 -1.0000
vn 0.0000 0.4961 -0.8661
vn 0.0000 0.8661 0.4961
vn 0.0000 -0.4961 0.8661
vn 0.0000 -0.8661 -0.4961
vn 0.0000 0.7638 -0.6457
vn 0.0000 0.6457 0.7638
vn 0.0000 -0.7638 0.6457
vn 0.0000 -0.6457 -0.7638
vn 0.0000 0.6457 -0.7638
vn 0.0000 0.7638 0.6457
vn 0.0000 -0.6457 0.7638
vn 0.0000 -0.7638 -0.6457
vn 0.0000 0.9370 0.3386
vn 0.0000 -0.3386 0.9370
vn 0.0000 -0.9370 -0.3386
vn 0.0000 0.3386 -0.9370
vn 0.0000 0.9685 0.2598
vn 0.0000 -0.2598 0.9685
vn 0.0000 -0.9685 -0.2598
vn 0.0000 0.2598 -0.9685
vn 0.0000 0.8661 0.5039
vn 0.0000 -0.5039 0.8661
vn 0.0000 -0.8661 -0.5039
vn 0.0000 0.5039 -0.8661
vn 0.0000 0.4252 -0.9055
vn 0.0000 0.9055 0.4252
vn 0.0000 -0.4252 0.9055
vn 0.0000 -0.9055 -0.4252
vn 0.0000 0.9055 -0.4252
vn 0.0000 0.4252 0.9055
vn 0.0000 -0.9055 0.4252
vn 0.0000 -0.4252 -0.9055
vn 0.0000 -0.1732 -0.9843
vn 0.0000 0.9843 -0.1732
vn 0.0000 0.1732 0.9843
vn 0.0000 -0.9843 0.1732
vn 0.0000 0.9843 0.1732
vn 0.0000 -0.1732 0.9843
vn 0.0000 -0.9843 -0.1732
vn 0.0000 0.1732 -0.9843

o RightUpperArm
usemtl c_b071a6
f 1/1/1 2/2/1 3/3/1
f 3/3/1 2/2/1 4/4/1
f 5/1/2 2/2/2 6/5/2
f 6/5/2 2/2/2 1/6/2
f 2/1/3 5/2/3 4/3/3
f 4/3/3 5/2/3 7/4/3
f 5/1/4 6/2/4 7/3/4
f 7/3/4 6/2/4 8/4/4
f 8/1/5 3/2/5 7/5/5
f 7/5/5 3/2/5 4/6/5
f 6/1/6 1/2/6 8/3/6
f 8/3/6 1/2/6 3/4/6
f 9/7/1 10/8/1 11/9/1
f 11/9/1 10/8/1 12/10/1
f 13/7/2 10/8/2 14/11/2
f 14/11/2 10/8/2 9/12/2
f 10/7/3 13/8/3 12/9/3
f 12/9/3 13/8/3 15/10/3
f 13/7/4 14/8/4 15/9/4
f 15/9/4 14/8/4 16/10/4
f 16/7/5 11/8/5 15/11/5
f 15/11/5 11/8/5 12/12/5
f 14/7/6 9/8/6 16/9/6
f 16/9/6 9/8/6 11/10/6
usemtl c_1b2a35
f 17/13/1 18/14/1 19/15/1
f 19/15/1 18/14/1 20/16/1
f 21/13/2 18/14/2 5/15/2
f 5/15/2 18/14/2 17/16/2
f 18/13/3 21/14/3 20/15/3
f 20/15/3 21/14/3 22/16/3
f 21/13/4 5/14/4 22/15/4
f 22/15/4 5/14/4 7/16/4
f 7/13/5 19/14/5 22/15/5
f 22/15/5 19/14/5 20/16/5
f 5/13/6 17/14/6 7/15/6
f 7/15/6 17/14/6 19/16/6
o RightUpperLeg
usemtl c_b071a6
f 23/17/1 24/18/1 25/19/1
f 25/19/1 24/18/1 26/20/1
f 27/21/2 24/18/2 28/22/2
f 28/22/2 24/18/2 23/23/2
f 24/21/3 27/18/3 26/24/3
f 26/24/3 27/18/3 29/20/3
f 27/17/4 28/18/4 29/19/4
f 29/19/4 28/18/4 30/20/4
f 30/21/5 25/18/5 29/22/5
f 29/22/5 25/18/5 26/23/5
f 28/21/6 23/18/6 30/24/6
f 30/24/6 23/18/6 25/20/6
f 31/25/1 32/26/1 33/27/1
f 33/27/1 32/26/1 34/28/1
f 35/25/2 32/26/2 36/29/2
f 36/29/2 32/26/2 31/30/2
f 32/25/3 35/26/3 34/27/3
f 34/27/3 35/26/3 37/28/3
f 35/25/4 36/26/4 37/27/4
f 37/27/4 36/26/4 38/28/4
f 38/25/5 33/26/5 37/29/5
f 37/29/5 33/26/5 34/30/5
f 36/25/6 31/26/6 38/27/6
f 38/27/6 31/26/6 33/28/6
f 39/31/1 40/32/1 41/33/1
f 41/33/1 40/32/1 42/34/1
f 43/35/2 40/32/2 44/36/2
f 44/36/2 40/32/2 39/37/2
f 40/35/3 43/32/3 42/38/3
f 42/38/3 43/32/3 45/34/3
f 43/31/4 44/32/4 45/33/4
f 45/33/4 44/32/4 46/34/4
f 46/35/5 41/32/5 45/36/5
f 45/36/5 41/32/5 42/37/5
f 44/35/6 39/32/6 46/38/6
f 46/38/6 39/32/6 41/34/6
f 47/39/1 48/40/1 26/41/1
f 26/41/1 48/40/1 41/42/1
f 49/43/2 48/40/2 50/44/2
f 50/44/2 48/40/2 47/45/2
f 48/43/3 49/40/3 41/46/3
f 41/46/3 49/40/3 46/42/3
f 49/39/4 50/40/4 46/41/4
f 46/41/4 50/40/4 29/42/4
f 29/43/5 26/40/5 46/44/5
f 46/44/5 26/40/5 41/45/5
f 50/43/6 47/40/6 29/46/6
f 29/46/6 47/40/6 26/42/6
usemtl c_1b2a35
f 51/47/1 52/48/1 53/49/1
f 53/49/1 52/48/1 54/50/1
f 55/47/2 52/48/2 56/49/2
f 56/49/2 52/48/2 51/50/2
f 52/47/3 55/48/3 54/49/3
f 54/49/3 55/48/3 38/50/3
f 55/47/4 56/48/4 38/49/4
f 38/49/4 56/48/4 57/50/4
f 57/47/5 53/48/5 38/49/5
f 38/49/5 53/48/5 54/50/5
f 56/47/6 51/48/6 57/49/6
f 57/49/6 51/48/6 53/50/6
f 58/51/1 59/52/1 60/53/1
f 60/53/1 59/52/1 33/54/1
f 61/51/2 59/52/2 62/53/2
f 62/53/2 59/52/2 58/54/2
f 59/51/3 61/52/3 33/53/3
f 33/53/3 61/52/3 63/54/3
f 61/51/4 62/52/4 63/53/4
f 63/53/4 62/52/4 64/54/4
f 64/51/5 60/52/5 63/53/5
f 63/53/5 60/52/5 33/54/5
f 62/51/6 58/52/6 64/53/6
f 64/53/6 58/52/6 60/54/6
f 65/55/1 66/56/1 67/57/1
f 67/57/1 66/56/1 68/58/1
f 69/55/2 66/56/2 70/57/2
f 70/57/2 66/56/2 65/58/2
f 66/55/3 69/56/3 68/57/3
f 68/57/3 69/56/3 71/58/3
f 69/55/4 70/56/4 71/57/4
f 71/57/4 70/56/4 72/58/4
f 72/55/5 67/56/5 71/57/5
f 71/57/5 67/56/5 68/58/5
f 70/55/6 65/56/6 72/57/6
f 72/57/6 65/56/6 67/58/6
usemtl c_592259
f 24/59/1 39/60/1 47/61/1
f 47/61/1 39/60/1 48/62/1
f 44/63/2 39/60/2 27/64/2
f 27/64/2 39/60/2 24/65/2
f 39/63/3 44/60/3 48/66/3
f 48/66/3 44/60/3 49/62/3
f 44/59/4 27/60/4 49/61/4
f 49/61/4 27/60/4 50/62/4
f 50/63/5 47/60/5 49/64/5
f 49/64/5 47/60/5 48/65/5
f 27/63/6 24/60/6 50/66/6
f 50/66/6 24/60/6 47/62/6
o LeftUpperLeg
usemtl c_b071a6
f 73/67/1 74/68/1 75/58/1
f 75/58/1 74/68/1 76/69/1
f 77/67/2 74/68/2 78/56/2
f 78/56/2 74/68/2 73/70/2
f 74/67/3 77/68/3 76/58/3
f 76/58/3 77/68/3 79/69/3
f 77/67/4 78/68/4 79/58/4
f 79/58/4 78/68/4 80/69/4
f 80/67/5 75/68/5 79/56/5
f 79/56/5 75/68/5 76/70/5
f 78/67/6 73/68/6 80/58/6
f 80/58/6 73/68/6 75/69/6
f 81/71/1 82/72/1 83/73/1
f 83/73/1 82/72/1 84/74/1
f 85/75/2 82/72/2 86/76/2
f 86/76/2 82/72/2 81/77/2
f 82/75/3 85/72/3 84/78/3
f 84/78/3 85/72/3 87/74/3
f 85/71/4 86/72/4 87/73/4
f 87/73/4 86/72/4 88/74/4
f 88/75/5 83/72/5 87/76/5
f 87/76/5 83/72/5 84/77/5
f 86/75/6 81/72/6 88/78/6
f 88/78/6 81/72/6 83/74/6
f 89/79/1 90/80/1 84/81/1
f 84/81/1 90/80/1 91/82/1
f 92/83/2 90/80/2 93/84/2
f 93/84/2 90/80/2 89/85/2
f 90/83/3 92/80/3 91/86/3
f 91/86/3 92/80/3 94/82/3
f 92/79/4 93/80/4 94/81/4
f 94/81/4 93/80/4 87/82/4
f 87/83/5 84/80/5 94/84/5
f 94/84/5 84/80/5 91/85/5
f 93/83/6 89/80/6 87/86/6
f 87/86/6 89/80/6 84/82/6
f 95/87/1 96/88/1 97/89/1
f 97/89/1 96/88/1 83/90/1
f 98/91/2 96/88/2 99/92/2
f 99/92/2 96/88/2 95/93/2
f 96/91/3 98/88/3 83/94/3
f 83/94/3 98/88/3 88/90/3
f 98/87/4 99/88/4 88/89/4
f 88/89/4 99/88/4 100/90/4
f 100/91/5 97/88/5 88/92/5
f 88/92/5 97/88/5 83/93/5
f 99/91/6 95/88/6 100/94/6
f 100/94/6 95/88/6 97/90/6
usemtl c_1b2a35
f 101/95/1 102/96/1 103/97/1
f 103/97/1 102/96/1 75/98/1
f 104/95/2 102/96/2 105/97/2
f 105/97/2 102/96/2 101/98/2
f 102/95/3 104/96/3 75/97/3
f 75/97/3 104/96/3 106/98/3
f 104/95/4 105/96/4 106/97/4
f 106/97/4 105/96/4 107/98/4
f 107/95/5 103/96/5 106/97/5
f 106/97/5 103/96/5 75/98/5
f 105/95/6 101/96/6 107/97/6
f 107/97/6 101/96/6 103/98/6
f 108/99/1 109/100/1 110/101/1
f 110/101/1 109/100/1 111/102/1
f 112/99/2 109/100/2 113/101/2
f 113/101/2 109/100/2 108/102/2
f 109/99/3 112/100/3 111/101/3
f 111/101/3 112/100/3 80/102/3
f 112/99/4 113/100/4 80/101/4
f 80/101/4 113/100/4 114/102/4
f 114/99/5 110/100/5 80/101/5
f 80/101/5 110/100/5 111/102/5
f 113/99/6 108/100/6 114/101/6
f 114/101/6 108/100/6 110/102/6
f 115/103/1 116/104/1 117/105/1
f 117/105/1 116/104/1 118/106/1
f 119/103/2 116/104/2 120/105/2
f 120/105/2 116/104/2 115/106/2
f 116/103/3 119/104/3 118/105/3
f 118/105/3 119/104/3 121/106/3
f 119/103/4 120/104/4 121/105/4
f 121/105/4 120/104/4 122/106/4
f 122/103/5 117/104/5 121/105/5
f 121/105/5 117/104/5 118/106/5
f 120/103/6 115/104/6 122/105/6
f 122/105/6 115/104/6 117/106/6
usemtl c_592259
f 96/107/1 89/108/1 81/109/1
f 81/109/1 89/108/1 82/67/1
f 93/110/2 89/108/2 98/111/2
f 98/111/2 89/108/2 96/112/2
f 89/110/3 93/108/3 82/113/3
f 82/113/3 93/108/3 85/67/3
f 93/107/4 98/108/4 85/109/4
f 85/109/4 98/108/4 86/67/4
f 86/110/5 81/108/5 85/111/5
f 85/111/5 81/108/5 82/112/5
f 98/110/6 96/108/6 86/113/6
f 86/113/6 96/108/6 81/67/6
o UpperTorso
usemtl c_592259
f 123/114/1 124/115/1 125/116/1
f 125/116/1 124/115/1 126/117/1
f 127/118/7 124/115/7 128/119/7
f 128/119/7 124/115/7 123/120/7
f 124/118/8 127/115/8 126/121/8
f 126/121/8 127/115/8 129/117/8
f 127/114/4 128/115/4 129/116/4
f 129/116/4 128/115/4 130/117/4
f 130/118/9 125/115/9 129/119/9
f 129/119/9 125/115/9 126/120/9
f 128/118/10 123/115/10 130/121/10
f 130/121/10 123/115/10 125/117/10
f 131/122/1 132/123/1 133/124/1
f 133/124/1 132/123/1 134/125/1
f 135/126/7 132/123/7 136/127/7
f 136/127/7 132/123/7 131/128/7
f 132/126/8 135/123/8 134/129/8
f 134/129/8 135/123/8 137/125/8
f 135/122/4 136/123/4 137/124/4
f 137/124/4 136/123/4 138/125/4
f 138/126/9 133/123/9 137/127/9
f 137/127/9 133/123/9 134/128/9
f 136/126/10 131/123/10 138/129/10
f 138/129/10 131/123/10 133/125/10
usemtl c_b071a6
f 139/130/1 131/131/1 140/132/1
f 140/132/1 131/131/1 133/133/1
f 136/134/7 131/131/7 141/135/7
f 141/135/7 131/131/7 139/136/7
f 131/134/8 136/131/8 133/137/8
f 133/137/8 136/131/8 138/133/8
f 136/130/4 141/131/4 138/132/4
f 138/132/4 141/131/4 142/133/4
f 142/134/9 140/131/9 138/135/9
f 138/135/9 140/131/9 133/136/9
f 141/134/10 139/131/10 142/137/10
f 142/137/10 139/131/10 140/133/10
f 143/138/1 126/139/1 144/140/1
f 144/140/1 126/139/1 145/141/1
f 129/142/7 126/139/7 146/143/7
f 146/143/7 126/139/7 143/144/7
f 126/142/8 129/139/8 145/145/8
f 145/145/8 129/139/8 147/141/8
f 129/138/4 146/139/4 147/140/4
f 147/140/4 146/139/4 148/141/4
f 148/142/9 144/139/9 147/143/9
f 147/143/9 144/139/9 145/144/9
f 146/142/10 143/139/10 148/145/10
f 148/145/10 143/139/10 144/141/10
f 132/146/1 149/147/1 134/86/1
f 134/86/1 149/147/1 150/148/1
f 151/149/7 149/147/7 135/150/7
f 135/150/7 149/147/7 132/151/7
f 149/149/8 151/147/8 150/152/8
f 150/152/8 151/147/8 152/148/8
f 151/146/4 135/147/4 152/86/4
f 152/86/4 135/147/4 137/148/4
f 137/149/9 134/147/9 152/150/9
f 152/150/9 134/147/9 150/151/9
f 135/149/10 132/147/10 137/152/10
f 137/152/10 132/147/10 134/148/10
f 153/153/1 123/154/1 154/155/1
f 154/155/1 123/154/1 144/156/1
f 128/157/7 123/154/7 155/158/7
f 155/158/7 123/154/7 153/159/7
f 123/157/8 128/154/8 144/160/8
f 144/160/8 128/154/8 148/156/8
f 128/153/4 155/154/4 148/155/4
f 148/155/4 155/154/4 156/156/4
f 156/157/9 154/154/9 148/158/9
f 148/158/9 154/154/9 144/159/9
f 155/157/10 153/154/10 156/160/10
f 156/160/10 153/154/10 154/156/10
f 124/161/1 157/162/1 145/163/1
f 145/163/1 157/162/1 158/164/1
f 159/165/7 157/162/7 127/166/7
f 127/166/7 157/162/7 124/167/7
f 157/165/8 159/162/8 158/168/8
f 158/168/8 159/162/8 160/164/8
f 159/161/4 127/162/4 160/163/4
f 160/163/4 127/162/4 147/164/4
f 147/165/9 145/162/9 160/166/9
f 160/166/9 145/162/9 158/167/9
f 127/165/10 124/162/10 147/168/10
f 147/168/10 124/162/10 145/164/10
usemtl c_ff9494
f 161/169/1 162/88/1 163/170/1
f 163/170/1 162/88/1 164/171/1
f 165/169/7 162/88/7 166/172/7
f 166/172/7 162/88/7 161/90/7
f 162/169/8 165/88/8 164/170/8
f 164/170/8 165/88/8 167/171/8
f 165/169/4 166/88/4 167/170/4
f 167/170/4 166/88/4 168/171/4
f 168/169/9 163/88/9 167/172/9
f 167/172/9 163/88/9 164/90/9
f 166/169/10 161/88/10 168/170/10
f 168/170/10 161/88/10 163/171/10
o Head
usemtl c_a34b4b
f 169/173/1 170/174/1 171/175/1
f 171/175/1 170/174/1 172/176/1
f 173/177/7 170/174/7 174/178/7
f 174/178/7 170/174/7 169/179/7
f 170/177/8 173/174/8 172/180/8
f 172/180/8 173/174/8 175/176/8
f 173/173/4 174/174/4 175/175/4
f 175/175/4 174/174/4 176/176/4
f 176/177/9 171/174/9 175/178/9
f 175/178/9 171/174/9 172/179/9
f 174/177/10 169/174/10 176/180/10
f 176/180/10 169/174/10 171/176/10
usemtl c_ff9494
f 177/181/1 178/182/1 179/183/1
f 179/183/1 178/182/1 180/184/1
f 181/181/11 178/182/11 182/183/11
f 182/183/11 178/182/11 177/184/11
f 178/181/12 181/182/12 180/183/12
f 180/183/12 181/182/12 183/184/12
f 181/181/4 182/182/4 183/183/4
f 183/183/4 182/182/4 184/184/4
f 184/181/13 179/182/13 183/183/13
f 183/183/13 179/182/13 180/184/13
f 182/181/14 177/182/14 184/183/14
f 184/183/14 177/182/14 179/184/14
f 185/185/1 186/186/1 187/187/1
f 187/187/1 186/186/1 188/188/1
f 189/185/15 186/186/15 190/187/15
f 190/187/15 186/186/15 185/188/15
f 186/185/16 189/186/16 188/187/16
f 188/187/16 189/186/16 191/188/16
f 189/185/4 190/186/4 191/187/4
f 191/187/4 190/186/4 192/188/4
f 192/185/17 187/186/17 191/187/17
f 191/187/17 187/186/17 188/188/17
f 190/185/18 185/186/18 192/187/18
f 192/187/18 185/186/18 187/188/18
f 193/189/1 194/190/1 195/191/1
f 195/191/1 194/190/1 196/192/1
f 197/189/15 194/190/15 198/191/15
f 198/191/15 194/190/15 193/192/15
f 194/189/16 197/190/16 196/191/16
f 196/191/16 197/190/16 199/192/16
f 197/189/4 198/190/4 199/191/4
f 199/191/4 198/190/4 200/192/4
f 200/189/17 195/190/17 199/191/17
f 199/191/17 195/190/17 196/192/17
f 198/189/18 193/190/18 200/191/18
f 200/191/18 193/190/18 195/192/18
f 201/193/1 202/194/1 203/195/1
f 203/195/1 202/194/1 204/196/1
f 205/193/15 202/194/15 206/195/15
f 206/195/15 202/194/15 201/196/15
f 202/193/16 205/194/16 204/195/16
f 204/195/16 205/194/16 207/196/16
f 205/193/4 206/194/4 207/195/4
f 207/195/4 206/194/4 208/196/4
f 208/193/17 203/194/17 207/195/17
f 207/195/17 203/194/17 204/196/17
f 206/193/18 201/194/18 208/195/18
f 208/195/18 201/194/18 203/196/18
f 209/197/1 210/198/1 211/199/1
f 211/199/1 210/198/1 212/200/1
f 213/201/19 210/198/19 214/202/19
f 214/202/19 210/198/19 209/203/19
f 210/201/20 213/198/20 212/204/20
f 212/204/20 213/198/20 215/200/20
f 213/197/4 214/198/4 215/199/4
f 215/199/4 214/198/4 216/200/4
f 216/201/21 211/198/21 215/202/21
f 215/202/21 211/198/21 212/203/21
f 214/201/22 209/198/22 216/204/22
f 216/204/22 209/198/22 211/200/22
f 217/205/1 218/206/1 219/207/1
f 219/207/1 218/206/1 220/208/1
f 221/209/7 218/206/7 222/210/7
f 222/210/7 218/206/7 217/211/7
f 218/209/8 221/206/8 220/212/8
f 220/212/8 221/206/8 223/208/8
f 221/205/4 222/206/4 223/207/4
f 223/207/4 222/206/4 224/208/4
f 224/209/9 219/206/9 223/210/9
f 223/210/9 219/206/9 220/211/9
f 222/209/10 217/206/10 224/212/10
f 224/212/10 217/206/10 219/208/10
f 225/213/1 226/214/1 227/215/1
f 227/215/1 226/214/1 228/216/1
f 229/213/15 226/214/15 230/215/15
f 230/215/15 226/214/15 225/216/15
f 226/213/16 229/214/16 228/215/16
f 228/215/16 229/214/16 231/216/16
f 229/213/4 230/214/4 231/215/4
f 231/215/4 230/214/4 232/216/4
f 232/213/17 227/214/17 231/215/17
f 231/215/17 227/214/17 228/216/17
f 230/213/18 225/214/18 232/215/18
f 232/215/18 225/214/18 227/216/18
f 233/217/1 234/218/1 235/219/1
f 235/219/1 234/218/1 236/220/1
f 237/217/15 234/218/15 238/219/15
f 238/219/15 234/218/15 233/220/15
f 234/217/16 237/218/16 236/219/16
f 236/219/16 237/218/16 239/220/16
f 237/217/4 238/218/4 239/219/4
f 239/219/4 238/218/4 240/220/4
f 240/217/17 235/218/17 239/219/17
f 239/219/17 235/218/17 236/220/17
f 238/217/18 233/218/18 240/219/18
f 240/219/18 233/218/18 235/220/18
f 241/221/1 242/222/1 243/223/1
f 243/223/1 242/222/1 244/224/1
f 245/225/11 242/222/11 246/226/11
f 246/226/11 242/222/11 241/227/11
f 242/225/12 245/222/12 244/228/12
f 244/228/12 245/222/12 247/224/12
f 245/221/4 246/222/4 247/223/4
f 247/223/4 246/222/4 248/224/4
f 248/225/13 243/222/13 247/226/13
f 247/226/13 243/222/13 244/227/13
f 246/225/14 241/222/14 248/228/14
f 248/228/14 241/222/14 243/224/14
f 249/229/1 250/230/1 251/231/1
f 251/231/1 250/230/1 252/232/1
f 253/233/19 250/230/19 254/234/19
f 254/234/19 250/230/19 249/232/19
f 250/233/20 253/230/20 252/234/20
f 252/234/20 253/230/20 255/232/20
f 253/229/4 254/230/4 255/231/4
f 255/231/4 254/230/4 256/232/4
f 256/233/21 251/230/21 255/234/21
f 255/234/21 251/230/21 252/232/21
f 254/233/22 249/230/22 256/234/22
f 256/234/22 249/230/22 251/232/22
f 257/235/1 258/236/1 259/237/1
f 259/237/1 258/236/1 260/238/1
f 261/235/15 258/236/15 262/237/15
f 262/237/15 258/236/15 257/238/15
f 258/235/16 261/236/16 260/237/16
f 260/237/16 261/236/16 263/238/16
f 261/235/4 262/236/4 263/237/4
f 263/237/4 262/236/4 264/238/4
f 264/235/17 259/236/17 263/237/17
f 263/237/17 259/236/17 260/238/17
f 262/235/18 257/236/18 264/237/18
f 264/237/18 257/236/18 259/238/18
f 265/239/1 266/90/1 267/240/1
f 267/240/1 266/90/1 268/241/1
f 269/242/15 266/90/15 270/243/15
f 270/243/15 266/90/15 265/244/15
f 266/242/16 269/90/16 268/245/16
f 268/245/16 269/90/16 271/241/16
f 269/239/4 270/90/4 271/240/4
f 271/240/4 270/90/4 272/241/4
f 272/242/17 267/90/17 271/243/17
f 271/243/17 267/90/17 268/244/17
f 270/242/18 265/90/18 272/245/18
f 272/245/18 265/90/18 267/241/18
f 273/246/1 274/247/1 275/248/1
f 275/248/1 274/247/1 276/249/1
f 277/246/11 274/247/11 278/248/11
f 278/248/11 274/247/11 273/249/11
f 274/246/12 277/247/12 276/248/12
f 276/248/12 277/247/12 279/249/12
f 277/246/4 278/247/4 279/248/4
f 279/248/4 278/247/4 280/249/4
f 280/246/13 275/247/13 279/248/13
f 279/248/13 275/247/13 276/249/13
f 278/246/14 273/247/14 280/248/14
f 280/248/14 273/247/14 275/249/14
f 281/250/1 282/251/1 283/252/1
f 283/252/1 282/251/1 284/253/1
f 285/254/19 282/251/19 286/255/19
f 286/255/19 282/251/19 281/253/19
f 282/254/20 285/251/20 284/255/20
f 284/255/20 285/251/20 287/253/20
f 285/250/4 286/251/4 287/252/4
f 287/252/4 286/251/4 288/253/4
f 288/254/21 283/251/21 287/255/21
f 287/255/21 283/251/21 284/253/21
f 286/254/22 281/251/22 288/255/22
f 288/255/22 281/251/22 283/253/22
usemtl c_592259
f 289/256/1 290/257/1 291/258/1
f 291/258/1 290/257/1 292/259/1
f 293/260/19 290/257/19 294/261/19
f 294/261/19 290/257/19 289/262/19
f 290/260/20 293/257/20 292/263/20
f 292/263/20 293/257/20 295/259/20
f 293/256/4 294/257/4 295/258/4
f 295/258/4 294/257/4 296/259/4
f 296/260/21 291/257/21 295/261/21
f 295/261/21 291/257/21 292/262/21
f 294/260/22 289/257/22 296/263/22
f 296/263/22 289/257/22 291/259/22
f 297/264/1 298/265/1 299/266/1
f 299/266/1 298/265/1 300/267/1
f 301/268/11 298/265/11 302/269/11
f 302/269/11 298/265/11 297/270/11
f 298/268/12 301/265/12 300/271/12
f 300/271/12 301/265/12 303/267/12
f 301/264/4 302/265/4 303/266/4
f 303/266/4 302/265/4 304/267/4
f 304/268/13 299/265/13 303/269/13
f 303/269/13 299/265/13 300/270/13
f 302/268/14 297/265/14 304/271/14
f 304/271/14 297/265/14 299/267/14
f 305/272/1 306/273/1 307/274/1
f 307/274/1 306/273/1 308/275/1
f 309/276/19 306/273/19 310/277/19
f 310/277/19 306/273/19 305/278/19
f 306/276/20 309/273/20 308/279/20
f 308/279/20 309/273/20 311/275/20
f 309/272/4 310/273/4 311/274/4
f 311/274/4 310/273/4 312/275/4
f 312/276/21 307/273/21 311/277/21
f 311/277/21 307/273/21 308/278/21
f 310/276/22 305/273/22 312/279/22
f 312/279/22 305/273/22 307/275/22
f 313/280/1 314/42/1 315/281/1
f 315/281/1 314/42/1 316/282/1
f 317/283/15 314/42/15 318/284/15
f 318/284/15 314/42/15 313/285/15
f 314/283/16 317/42/16 316/286/16
f 316/286/16 317/42/16 319/282/16
f 317/280/4 318/42/4 319/281/4
f 319/281/4 318/42/4 320/282/4
f 320/283/17 315/42/17 319/284/17
f 319/284/17 315/42/17 316/285/17
f 318/283/18 313/42/18 320/286/18
f 320/286/18 313/42/18 315/282/18
f 321/287/1 322/288/1 323/289/1
f 323/289/1 322/288/1 324/290/1
f 325/291/15 322/288/15 326/292/15
f 326/292/15 322/288/15 321/293/15
f 322/291/16 325/288/16 324/294/16
f 324/294/16 325/288/16 327/290/16
f 325/287/4 326/288/4 327/289/4
f 327/289/4 326/288/4 328/290/4
f 328/291/17 323/288/17 327/292/17
f 327/292/17 323/288/17 324/293/17
f 326/291/18 321/288/18 328/294/18
f 328/294/18 321/288/18 323/290/18
usemtl c_b071a6
f 307/295/1 308/296/1 329/297/1
f 329/297/1 308/296/1 330/298/1
f 311/299/19 308/296/19 312/300/19
f 312/300/19 308/296/19 307/298/19
f 308/299/20 311/296/20 330/300/20
f 330/300/20 311/296/20 331/298/20
f 311/295/4 312/296/4 331/297/4
f 331/297/4 312/296/4 332/298/4
f 332/299/21 329/296/21 331/300/21
f 331/300/21 329/296/21 330/298/21
f 312/299/22 307/296/22 332/300/22
f 332/300/22 307/296/22 329/298/22
f 333/301/1 334/302/1 335/303/1
f 335/303/1 334/302/1 336/304/1
f 337/305/11 334/302/11 338/306/11
f 338/306/11 334/302/11 333/307/11
f 334/305/12 337/302/12 336/308/12
f 336/308/12 337/302/12 339/304/12
f 337/301/4 338/302/4 339/303/4
f 339/303/4 338/302/4 340/304/4
f 340/305/13 335/302/13 339/306/13
f 339/306/13 335/302/13 336/307/13
f 338/305/14 333/302/14 340/308/14
f 340/308/14 333/302/14 335/304/14
f 334/309/1 341/310/1 297/311/1
f 297/311/1 341/310/1 298/312/1
f 342/313/11 341/310/11 337/314/11
f 337/314/11 341/310/11 334/315/11
f 341/313/12 342/310/12 298/316/12
f 298/316/12 342/310/12 301/312/12
f 342/309/4 337/310/4 301/311/4
f 301/311/4 337/310/4 302/312/4
f 302/313/13 297/310/13 301/314/13
f 301/314/13 297/310/13 298/315/13
f 337/313/14 334/310/14 302/316/14
f 302/316/14 334/310/14 297/312/14
f 291/317/1 292/318/1 305/319/1
f 305/319/1 292/318/1 306/320/1
f 295/321/19 292/318/19 296/322/19
f 296/322/19 292/318/19 291/323/19
f 292/321/20 295/318/20 306/324/20
f 306/324/20 295/318/20 309/320/20
f 295/317/4 296/318/4 309/319/4
f 309/319/4 296/318/4 310/320/4
f 310/321/21 305/318/21 309/322/21
f 309/322/21 305/318/21 306/323/21
f 296/321/22 291/318/22 310/324/22
f 310/324/22 291/318/22 305/320/22
f 315/325/1 316/326/1 321/181/1
f 321/181/1 316/326/1 322/327/1
f 319/328/15 316/326/15 320/329/15
f 320/329/15 316/326/15 315/330/15
f 316/328/16 319/326/16 322/331/16
f 322/331/16 319/326/16 325/327/16
f 319/325/4 320/326/4 325/181/4
f 325/181/4 320/326/4 326/327/4
f 326/328/17 321/326/17 325/329/17
f 325/329/17 321/326/17 322/330/17
f 320/328/18 315/326/18 326/331/18
f 326/331/18 315/326/18 321/327/18
f 343/332/1 344/333/1 313/334/1
f 313/334/1 344/333/1 314/335/1
f 345/336/15 344/333/15 346/337/15
f 346/337/15 344/333/15 343/338/15
f 344/336/16 345/333/16 314/339/16
f 314/339/16 345/333/16 317/335/16
f 345/332/4 346/333/4 317/334/4
f 317/334/4 346/333/4 318/335/4
f 318/336/17 313/333/17 317/337/17
f 317/337/17 313/333/17 314/338/17
f 346/336/18 343/333/18 318/339/18
f 318/339/18 343/333/18 313/335/18
f 347/340/1 348/206/1 289/341/1
f 289/341/1 348/206/1 290/208/1
f 349/205/19 348/206/19 350/342/19
f 350/342/19 348/206/19 347/343/19
f 348/205/20 349/206/20 290/207/20
f 290/207/20 349/206/20 293/208/20
f 349/340/4 350/206/4 293/341/4
f 293/341/4 350/206/4 294/208/4
f 294/205/21 289/206/21 293/342/21
f 293/342/21 289/206/21 290/343/21
f 350/205/22 347/206/22 294/207/22
f 294/207/22 347/206/22 289/208/22
f 351/344/1 347/345/1 352/346/1
f 352/346/1 347/345/1 329/347/1
f 350/348/19 347/345/19 353/349/19
f 353/349/19 347/345/19 351/350/19
f 347/348/20 350/345/20 329/351/20
f 329/351/20 350/345/20 332/347/20
f 350/344/4 353/345/4 332/346/4
f 332/346/4 353/345/4 354/347/4
f 354/348/21 352/345/21 332/349/21
f 332/349/21 352/345/21 329/350/21
f 353/348/22 351/345/22 354/351/22
f 354/351/22 351/345/22 352/347/22
f 355/352/1 356/353/1 357/354/1
f 357/354/1 356/353/1 358/355/1
f 359/352/7 356/353/7 360/356/7
f 360/356/7 356/353/7 355/357/7
f 356/352/8 359/353/8 358/354/8
f 358/354/8 359/353/8 361/355/8
f 359/352/4 360/353/4 361/354/4
f 361/354/4 360/353/4 362/355/4
f 362/352/9 357/353/9 361/356/9
f 361/356/9 357/353/9 358/357/9
f 360/352/10 355/353/10 362/354/10
f 362/354/10 355/353/10 357/355/10
f 363/358/1 364/359/1 365/360/1
f 365/360/1 364/359/1 366/361/1
f 367/362/7 364/359/7 368/363/7
f 368/363/7 364/359/7 363/364/7
f 364/362/8 367/359/8 366/365/8
f 366/365/8 367/359/8 369/361/8
f 367/358/4 368/359/4 369/360/4
f 369/360/4 368/359/4 370/361/4
f 370/362/9 365/359/9 369/363/9
f 369/363/9 365/359/9 366/364/9
f 368/362/10 363/359/10 370/365/10
f 370/365/10 363/359/10 365/361/10
f 299/366/1 300/367/1 336/368/1
f 336/368/1 300/367/1 371/369/1
f 303/370/11 300/367/11 304/371/11
f 304/371/11 300/367/11 299/369/11
f 300/370/12 303/367/12 371/371/12
f 371/371/12 303/367/12 372/369/12
f 303/366/4 304/367/4 372/368/4
f 372/368/4 304/367/4 339/369/4
f 339/370/13 336/367/13 372/371/13
f 372/371/13 336/367/13 371/369/13
f 304/370/14 299/367/14 339/371/14
f 339/371/14 299/367/14 336/369/14
f 373/372/1 343/148/1 374/373/1
f 374/373/1 343/148/1 375/374/1
f 346/375/15 343/148/15 376/376/15
f 376/376/15 343/148/15 373/377/15
f 343/375/16 346/148/16 375/378/16
f 375/378/16 346/148/16 377/374/16
f 346/372/4 376/148/4 377/373/4
f 377/373/4 376/148/4 378/374/4
f 378/375/17 374/148/17 377/376/17
f 377/376/17 374/148/17 375/377/17
f 376/375/18 373/148/18 378/378/18
f 378/378/18 373/148/18 374/374/18
f 379/379/1 380/380/1 381/381/1
f 381/381/1 380/380/1 365/382/1
f 382/383/7 380/380/7 383/384/7
f 383/384/7 380/380/7 379/385/7
f 380/383/8 382/380/8 365/386/8
f 365/386/8 382/380/8 370/382/8
f 382/379/4 383/380/4 370/381/4
f 370/381/4 383/380/4 384/382/4
f 384/383/9 381/380/9 370/384/9
f 370/384/9 381/380/9 365/385/9
f 383/383/10 379/380/10 384/386/10
f 384/386/10 379/380/10 381/382/10
f 323/387/1 324/388/1 375/389/1
f 375/389/1 324/388/1 385/390/1
f 327/368/15 324/388/15 328/258/15
f 328/258/15 324/388/15 323/259/15
f 324/368/16 327/388/16 385/391/16
f 385/391/16 327/388/16 386/390/16
f 327/387/4 328/388/4 386/389/4
f 386/389/4 328/388/4 377/390/4
f 377/368/17 375/388/17 386/258/17
f 386/258/17 375/388/17 385/259/17
f 328/368/18 323/388/18 377/391/18
f 377/391/18 323/388/18 375/390/18
usemtl c_1b2a35
f 387/392/1 388/393/1 389/394/1
f 389/394/1 388/393/1 390/395/1
f 391/392/7 388/393/7 392/394/7
f 392/394/7 388/393/7 387/395/7
f 388/392/8 391/393/8 390/394/8
f 390/394/8 391/393/8 393/395/8
f 391/392/4 392/393/4 393/394/4
f 393/394/4 392/393/4 394/395/4
f 394/392/9 389/393/9 393/394/9
f 393/394/9 389/393/9 390/395/9
f 392/392/10 387/393/10 394/394/10
f 394/394/10 387/393/10 389/395/10
f 395/396/1 396/397/1 397/398/1
f 397/398/1 396/397/1 398/399/1
f 399/396/7 396/397/7 400/398/7
f 400/398/7 396/397/7 395/399/7
f 396/396/8 399/397/8 398/398/8
f 398/398/8 399/397/8 401/399/8
f 399/396/4 400/397/4 401/398/4
f 401/398/4 400/397/4 402/399/4
f 402/396/9 397/397/9 401/398/9
f 401/398/9 397/397/9 398/399/9
f 400/396/10 395/397/10 402/398/10
f 402/398/10 395/397/10 397/399/10
usemtl c_ffffcc
f 403/400/1 404/401/1 405/402/1
f 405/402/1 404/401/1 406/403/1
f 407/404/7 404/401/7 408/405/7
f 408/405/7 404/401/7 403/403/7
f 404/404/8 407/401/8 406/405/8
f 406/405/8 407/401/8 409/403/8
f 407/400/4 408/401/4 409/402/4
f 409/402/4 408/401/4 410/403/4
f 410/404/9 405/401/9 409/405/9
f 409/405/9 405/401/9 406/403/9
f 408/404/10 403/401/10 410/405/10
f 410/405/10 403/401/10 405/403/10
usemtl c_ff5959
f 388/406/1 411/407/1 412/408/1
f 412/408/1 411/407/1 413/409/1
f 414/410/7 411/407/7 399/411/7
f 399/411/7 411/407/7 388/412/7
f 411/410/8 414/407/8 413/413/8
f 413/413/8 414/407/8 415/409/8
f 414/406/4 399/407/4 415/408/4
f 415/408/4 399/407/4 416/409/4
f 416/410/9 412/407/9 415/411/9
f 415/411/9 412/407/9 413/412/9
f 399/410/10 388/407/10 416/413/10
f 416/413/10 388/407/10 412/409/10
f 417/414/1 418/415/1 419/416/1
f 419/416/1 418/415/1 420/417/1
f 421/418/7 418/415/7 422/419/7
f 422/419/7 418/415/7 417/420/7
f 418/418/8 421/415/8 420/421/8
f 420/421/8 421/415/8 423/417/8
f 421/414/4 422/415/4 423/416/4
f 423/416/4 422/415/4 424/417/4
f 424/418/9 419/415/9 423/419/9
f 423/419/9 419/415/9 420/420/9
f 422/418/10 417/415/10 424/421/10
f 424/421/10 417/415/10 419/417/10
o Head_decal1
usemtl head_decal1
f 425/422/1 426/423/1 427/424/1
f 427/424/1 426/423/1 428/425/1
o Head_decal2
usemtl head_decal2
f 429/422/4 430/423/4 431/424/4
f 431/424/4 430/423/4 432/425/4
o LeftUpperArm
usemtl c_b071a6
f 433/426/1 434/427/1 435/428/1
f 435/428/1 434/427/1 436/429/1
f 437/426/2 434/427/2 438/430/2
f 438/430/2 434/427/2 433/431/2
f 434/426/3 437/427/3 436/428/3
f 436/428/3 437/427/3 439/429/3
f 437/426/4 438/427/4 439/428/4
f 439/428/4 438/427/4 440/429/4
f 440/426/5 435/427/5 439/430/5
f 439/430/5 435/427/5 436/431/5
f 438/426/6 433/427/6 440/428/6
f 440/428/6 433/427/6 435/429/6
f 441/432/1 442/433/1 443/434/1
f 443/434/1 442/433/1 444/435/1
f 445/432/2 442/433/2 446/436/2
f 446/436/2 442/433/2 441/437/2
f 442/432/3 445/433/3 444/434/3
f 444/434/3 445/433/3 447/435/3
f 445/432/4 446/433/4 447/434/4
f 447/434/4 446/433/4 448/435/4
f 448/432/5 443/433/5 447/436/5
f 447/436/5 443/433/5 444/437/5
f 446/432/6 441/433/6 448/434/6
f 448/434/6 441/433/6 443/435/6
usemtl c_1b2a35
f 434/438/1 449/439/1 436/440/1
f 436/440/1 449/439/1 450/441/1
f 451/438/2 449/439/2 452/440/2
f 452/440/2 449/439/2 434/441/2
f 449/438/3 451/439/3 450/440/3
f 450/440/3 451/439/3 453/441/3
f 451/438/4 452/439/4 453/440/4
f 453/440/4 452/439/4 454/441/4
f 454/438/5 436/439/5 453/440/5
f 453/440/5 436/439/5 450/441/5
f 452/438/6 434/439/6 454/440/6
f 454/440/6 434/439/6 436/441/6
o Tail
usemtl c_592259
f 455/442/1 456/443/1 457/444/1
f 457/444/1 456/443/1 458/445/1
f 459/446/23 456/443/23 460/447/23
f 460/447/23 456/443/23 455/448/23
f 456/446/24 459/443/24 458/449/24
f 458/449/24 459/443/24 461/445/24
f 459/442/4 460/443/4 461/444/4
f 461/444/4 460/443/4 462/445/4
f 462/446/25 457/443/25 461/447/25
f 461/447/25 457/443/25 458/448/25
f 460/446/26 455/443/26 462/449/26
f 462/449/26 455/443/26 457/445/26
f 463/450/1 464/451/1 465/452/1
f 465/452/1 464/451/1 466/453/1
f 467/454/23 464/451/23 468/455/23
f 468/455/23 464/451/23 463/456/23
f 464/454/24 467/451/24 466/457/24
f 466/457/24 467/451/24 469/453/24
f 467/450/4 468/451/4 469/452/4
f 469/452/4 468/451/4 470/453/4
f 470/454/25 465/451/25 469/455/25
f 469/455/25 465/451/25 466/456/25
f 468/454/26 463/451/26 470/457/26
f 470/457/26 463/451/26 465/453/26
f 471/458/1 472/459/1 473/460/1
f 473/460/1 472/459/1 474/461/1
f 475/462/27 472/459/27 476/463/27
f 476/463/27 472/459/27 471/464/27
f 472/462/28 475/459/28 474/465/28
f 474/465/28 475/459/28 477/461/28
f 475/458/4 476/459/4 477/460/4
f 477/460/4 476/459/4 478/461/4
f 478/462/29 473/459/29 477/463/29
f 477/463/29 473/459/29 474/464/29
f 476/462/30 471/459/30 478/465/30
f 478/465/30 471/459/30 473/461/30
f 479/466/1 480/359/1 481/467/1
f 481/467/1 480/359/1 482/262/1
f 483/468/31 480/359/31 484/469/31
f 484/469/31 480/359/31 479/470/31
f 480/468/32 483/359/32 482/471/32
f 482/471/32 483/359/32 485/262/32
f 483/466/4 484/359/4 485/467/4
f 485/467/4 484/359/4 486/262/4
f 486/468/33 481/359/33 485/469/33
f 485/469/33 481/359/33 482/470/33
f 484/468/34 479/359/34 486/471/34
f 486/471/34 479/359/34 481/262/34
f 487/472/1 488/473/1 489/474/1
f 489/474/1 488/473/1 490/475/1
f 491/126/27 488/473/27 492/476/27
f 492/476/27 488/473/27 487/477/27
f 488/126/28 491/473/28 490/478/28
f 490/478/28 491/473/28 493/475/28
f 491/472/4 492/473/4 493/474/4
f 493/474/4 492/473/4 494/475/4
f 494/126/29 489/473/29 493/476/29
f 493/476/29 489/473/29 490/477/29
f 492/126/30 487/473/30 494/478/30
f 494/478/30 487/473/30 489/475/30
usemtl c_b071a6
f 464/479/1 455/480/1 466/481/1
f 466/481/1 455/480/1 457/482/1
f 460/483/23 455/480/23 467/484/23
f 467/484/23 455/480/23 464/485/23
f 455/483/24 460/480/24 457/486/24
f 457/486/24 460/480/24 462/482/24
f 460/479/4 467/480/4 462/481/4
f 462/481/4 467/480/4 469/482/4
f 469/483/25 466/480/25 462/484/25
f 462/484/25 466/480/25 457/485/25
f 467/483/26 464/480/26 469/486/26
f 469/486/26 464/480/26 466/482/26
f 495/487/1 463/488/1 496/489/1
f 496/489/1 463/488/1 465/490/1
f 468/491/23 463/488/23 497/492/23
f 497/492/23 463/488/23 495/493/23
f 463/491/24 468/488/24 465/494/24
f 465/494/24 468/488/24 470/490/24
f 468/487/4 497/488/4 470/489/4
f 470/489/4 497/488/4 498/490/4
f 498/491/25 496/488/25 470/492/25
f 470/492/25 496/488/25 465/493/25
f 497/491/26 495/488/26 498/494/26
f 498/494/26 495/488/26 496/490/26
f 480/495/1 499/496/1 482/497/1
f 482/497/1 499/496/1 500/108/1
f 501/498/31 499/496/31 483/499/31
f 483/499/31 499/496/31 480/500/31
f 499/498/32 501/496/32 500/501/32
f 500/501/32 501/496/32 502/108/32
f 501/495/4 483/496/4 502/497/4
f 502/497/4 483/496/4 485/108/4
f 485/498/33 482/496/33 502/499/33
f 502/499/33 482/496/33 500/500/33
f 483/498/34 480/496/34 485/501/34
f 485/501/34 480/496/34 482/108/34
f 496/502/1 503/503/1 504/504/1
f 504/504/1 503/503/1 505/505/1
f 506/506/23 503/503/23 498/507/23
f 498/507/23 503/503/23 496/167/23
f 503/506/24 506/503/24 505/508/24
f 505/508/24 506/503/24 507/505/24
f 506/502/4 498/503/4 507/504/4
f 507/504/4 498/503/4 508/505/4
f 508/506/25 504/503/25 507/507/25
f 507/507/25 504/503/25 505/167/25
f 498/506/26 496/503/26 508/508/26
f 508/508/26 496/503/26 504/505/26
f 509/509/1 500/510/1 510/511/1
f 510/511/1 500/510/1 511/512/1
f 502/513/31 500/510/31 512/514/31
f 512/514/31 500/510/31 509/515/31
f 500/513/32 502/510/32 511/516/32
f 511/516/32 502/510/32 513/512/32
f 502/509/4 512/510/4 513/511/4
f 513/511/4 512/510/4 514/512/4
f 514/513/33 510/510/33 513/514/33
f 513/514/33 510/510/33 511/515/33
f 512/513/34 509/510/34 514/516/34
f 514/516/34 509/510/34 510/512/34
f 456/517/1 515/518/1 458/519/1
f 458/519/1 515/518/1 503/520/1
f 516/521/23 515/518/23 459/522/23
f 459/522/23 515/518/23 456/523/23
f 515/521/24 516/518/24 503/524/24
f 503/524/24 516/518/24 506/520/24
f 516/517/4 459/518/4 506/519/4
f 506/519/4 459/518/4 461/520/4
f 461/521/25 458/518/25 506/522/25
f 506/522/25 458/518/25 503/523/25
f 459/521/26 456/518/26 461/524/26
f 461/524/26 456/518/26 458/520/26
f 517/525/1 518/526/1 519/527/1
f 519/527/1 518/526/1 520/528/1
f 521/529/25 518/526/25 522/530/25
f 522/530/25 518/526/25 517/531/25
f 518/529/26 521/526/26 520/532/26
f 520/532/26 521/526/26 523/528/26
f 521/525/4 522/526/4 523/527/4
f 523/527/4 522/526/4 524/528/4
f 524/529/23 519/526/23 523/530/23
f 523/530/23 519/526/23 520/531/23
f 522/529/24 517/526/24 524/532/24
f 524/532/24 517/526/24 519/528/24
f 525/307/1 479/533/1 509/534/1
f 509/534/1 479/533/1 481/535/1
f 484/536/31 479/533/31 526/537/31
f 526/537/31 479/533/31 525/535/31
f 479/536/32 484/533/32 481/537/32
f 481/537/32 484/533/32 486/535/32
f 484/307/4 526/533/4 486/534/4
f 486/534/4 526/533/4 512/535/4
f 512/536/33 509/533/33 486/537/33
f 486/537/33 509/533/33 481/535/33
f 526/536/34 525/533/34 512/537/34
f 512/537/34 525/533/34 509/535/34
f 472/538/1 487/539/1 474/540/1
f 474/540/1 487/539/1 489/541/1
f 492/538/27 487/539/27 475/542/27
f 475/542/27 487/539/27 472/543/27
f 487/538/28 492/539/28 489/540/28
f 489/540/28 492/539/28 494/541/28
f 492/538/4 475/539/4 494/540/4
f 494/540/4 475/539/4 477/541/4
f 477/538/29 474/539/29 494/542/29
f 494/542/29 474/539/29 489/543/29
f 475/538/30 472/539/30 477/540/30
f 477/540/30 472/539/30 474/541/30
f 527/544/1 528/545/1 529/546/1
f 529/546/1 528/545/1 530/547/1
f 531/548/35 528/545/35 532/549/35
f 532/549/35 528/545/35 527/550/35
f 528/548/36 531/545/36 530/551/36
f 530/551/36 531/545/36 533/547/36
f 531/544/4 532/545/4 533/546/4
f 533/546/4 532/545/4 534/547/4
f 534/548/37 529/545/37 533/549/37
f 533/549/37 529/545/37 530/550/37
f 532/548/38 527/545/38 534/551/38
f 534/551/38 527/545/38 529/547/38
f 535/552/1 536/553/1 537/554/1
f 537/554/1 536/553/1 538/555/1
f 539/556/39 536/553/39 540/557/39
f 540/557/39 536/553/39 535/558/39
f 536/556/40 539/553/40 538/559/40
f 538/559/40 539/553/40 541/555/40
f 539/552/4 540/553/4 541/554/4
f 541/554/4 540/553/4 542/555/4
f 542/556/41 537/553/41 541/557/41
f 541/557/41 537/553/41 538/558/41
f 540/556/42 535/553/42 542/559/42
f 542/559/42 535/553/42 537/555/42
f 543/202/1 471/560/1 544/561/1
f 544/561/1 471/560/1 545/562/1
f 476/202/27 471/560/27 546/563/27
f 546/563/27 471/560/27 543/564/27
f 471/202/28 476/560/28 545/561/28
f 545/561/28 476/560/28 547/562/28
f 476/202/4 546/560/4 547/561/4
f 547/561/4 546/560/4 548/562/4
f 548/202/29 544/560/29 547/563/29
f 547/563/29 544/560/29 545/564/29
f 546/202/30 543/560/30 548/561/30
f 548/561/30 543/560/30 544/562/30
f 549/565/1 550/566/1 551/567/1
f 551/567/1 550/566/1 552/568/1
f 553/569/43 550/566/43 554/570/43
f 554/570/43 550/566/43 549/571/43
f 550/569/44 553/566/44 552/572/44
f 552/572/44 553/566/44 555/568/44
f 553/565/4 554/566/4 555/567/4
f 555/567/4 554/566/4 556/568/4
f 556/569/45 551/566/45 555/570/45
f 555/570/45 551/566/45 552/571/45
f 554/569/46 549/566/46 556/572/46
f 556/572/46 549/566/46 551/568/46
f 488/573/1 557/574/1 490/575/1
f 490/575/1 557/574/1 558/576/1
f 559/573/27 557/574/27 491/577/27
f 491/577/27 557/574/27 488/578/27
f 557/573/28 559/574/28 558/575/28
f 558/575/28 559/574/28 560/576/28
f 559/573/4 491/574/4 560/575/4
f 560/575/4 491/574/4 493/576/4
f 493/573/29 490/574/29 560/577/29
f 560/577/29 490/574/29 558/578/29
f 491/573/30 488/574/30 493/575/30
f 493/575/30 488/574/30 490/576/30
usemtl c_ff9494
f 561/579/1 562/580/1 563/581/1
f 563/581/1 562/580/1 564/582/1
f 565/583/47 562/580/47 566/584/47
f 566/584/47 562/580/47 561/585/47
f 562/583/48 565/580/48 564/586/48
f 564/586/48 565/580/48 567/582/48
f 565/579/4 566/580/4 567/581/4
f 567/581/4 566/580/4 568/582/4
f 568/583/49 563/580/49 567/584/49
f 567/584/49 563/580/49 564/585/49
f 566/583/50 561/580/50 568/586/50
f 568/586/50 561/580/50 563/582/50
o LowerTorso
usemtl c_592259
f 569/587/1 570/588/1 571/589/1
f 571/589/1 570/588/1 572/590/1
f 573/591/7 570/588/7 574/592/7
f 574/592/7 570/588/7 569/593/7
f 570/591/8 573/588/8 572/594/8
f 572/594/8 573/588/8 575/590/8
f 573/587/4 574/588/4 575/589/4
f 575/589/4 574/588/4 576/590/4
f 576/591/9 571/588/9 575/592/9
f 575/592/9 571/588/9 572/593/9
f 574/591/10 569/588/10 576/594/10
f 576/594/10 569/588/10 571/590/10
f 577/595/1 578/596/1 579/597/1
f 579/597/1 578/596/1 580/598/1
f 581/599/7 578/596/7 582/600/7
f 582/600/7 578/596/7 577/601/7
f 578/599/8 581/596/8 580/602/8
f 580/602/8 581/596/8 583/598/8
f 581/595/4 582/596/4 583/597/4
f 583/597/4 582/596/4 584/598/4
f 584/599/9 579/596/9 583/600/9
f 583/600/9 579/596/9 580/601/9
f 582/599/10 577/596/10 584/602/10
f 584/602/10 577/596/10 579/598/10
f 585/603/1 586/604/1 587/605/1
f 587/605/1 586/604/1 588/606/1
f 589/607/7 586/604/7 590/608/7
f 590/608/7 586/604/7 585/609/7
f 586/607/8 589/604/8 588/610/8
f 588/610/8 589/604/8 591/606/8
f 589/603/4 590/604/4 591/605/4
f 591/605/4 590/604/4 592/606/4
f 592/607/9 587/604/9 591/608/9
f 591/608/9 587/604/9 588/609/9
f 590/607/10 585/604/10 592/610/10
f 592/610/10 585/604/10 587/606/10
f 593/611/1 594/612/1 595/613/1
f 595/613/1 594/612/1 596/614/1
f 597/8/7 594/612/7 598/615/7
f 598/615/7 594/612/7 593/616/7
f 594/8/8 597/612/8 596/617/8
f 596/617/8 597/612/8 599/614/8
f 597/611/4 598/612/4 599/613/4
f 599/613/4 598/612/4 600/614/4
f 600/8/9 595/612/9 599/615/9
f 599/615/9 595/612/9 596/616/9
f 598/8/10 593/612/10 600/617/10
f 600/617/10 593/612/10 595/614/10
usemtl c_b071a6
f 601/618/1 602/619/1 603/620/1
f 603/620/1 602/619/1 604/621/1
f 605/622/7 602/619/7 606/623/7
f 606/623/7 602/619/7 601/136/7
f 602/622/8 605/619/8 604/624/8
f 604/624/8 605/619/8 607/621/8
f 605/618/4 606/619/4 607/620/4
f 607/620/4 606/619/4 608/621/4
f 608/622/9 603/619/9 607/623/9
f 607/623/9 603/619/9 604/136/9
f 606/622/10 601/619/10 608/624/10
f 608/624/10 601/619/10 603/621/10
f 570/625/1 609/626/1 572/627/1
f 572/627/1 609/626/1 602/628/1
f 610/629/7 609/626/7 573/630/7
f 573/630/7 609/626/7 570/631/7
f 609/629/8 610/626/8 602/632/8
f 602/632/8 610/626/8 605/628/8
f 610/625/4 573/626/4 605/627/4
f 605/627/4 573/626/4 575/628/4
f 575/629/9 572/626/9 605/630/9
f 605/630/9 572/626/9 602/631/9
f 573/629/10 570/626/10 575/632/10
f 575/632/10 570/626/10 572/628/10
f 611/633/1 593/634/1 601/635/1
f 601/635/1 593/634/1 595/636/1
f 598/637/7 593/634/7 612/638/7
f 612/638/7 593/634/7 611/639/7
f 593/637/8 598/634/8 595/640/8
f 595/640/8 598/634/8 600/636/8
f 598/633/4 612/634/4 600/635/4
f 600/635/4 612/634/4 606/636/4
f 606/637/9 601/634/9 600/638/9
f 600/638/9 601/634/9 595/639/9
f 612/637/10 611/634/10 606/640/10
f 606/640/10 611/634/10 601/636/10
f 578/641/1 613/642/1 580/643/1
f 580/643/1 613/642/1 614/644/1
f 615/645/7 613/642/7 581/646/7
f 581/646/7 613/642/7 578/647/7
f 613/645/8 615/642/8 614/648/8
f 614/648/8 615/642/8 616/644/8
f 615/641/4 581/642/4 616/643/4
f 616/643/4 581/642/4 583/644/4
f 583/645/9 580/642/9 616/646/9
f 616/646/9 580/642/9 614/647/9
f 581/645/10 578/642/10 583/648/10
f 583/648/10 578/642/10 580/644/10
f 617/649/1 618/650/1 619/651/1
f 619/651/1 618/650/1 620/652/1
f 621/346/2 618/650/2 622/653/2
f 622/653/2 618/650/2 617/654/2
f 618/346/3 621/650/3 620/655/3
f 620/655/3 621/650/3 623/652/3
f 621/649/4 622/650/4 623/651/4
f 623/651/4 622/650/4 624/652/4
f 624/346/5 619/650/5 623/653/5
f 623/653/5 619/650/5 620/654/5
f 622/346/6 617/650/6 624/655/6
f 624/655/6 617/650/6 619/652/6
f 594/656/1 569/251/1 596/657/1
f 596/657/1 569/251/1 571/658/1
f 574/659/7 569/251/7 597/660/7
f 597/660/7 569/251/7 594/661/7
f 569/659/8 574/251/8 571/662/8
f 571/662/8 574/251/8 576/658/8
f 574/656/4 597/251/4 576/657/4
f 576/657/4 597/251/4 599/658/4
f 599/659/9 596/251/9 576/660/9
f 576/660/9 596/251/9 571/661/9
f 597/659/10 594/251/10 599/662/10
f 599/662/10 594/251/10 596/658/10
f 625/663/1 585/664/1 150/665/1
f 150/665/1 585/664/1 587/666/1
f 590/667/7 585/664/7 626/668/7
f 626/668/7 585/664/7 625/669/7
f 585/667/8 590/664/8 587/670/8
f 587/670/8 590/664/8 592/666/8
f 590/663/4 626/664/4 592/665/4
f 592/665/4 626/664/4 152/666/4
f 152/667/9 150/664/9 592/668/9
f 592/668/9 150/664/9 587/669/9
f 626/667/10 625/664/10 152/670/10
f 152/670/10 625/664/10 150/666/10
f 586/671/1 577/672/1 588/673/1
f 588/673/1 577/672/1 579/674/1
f 582/675/7 577/672/7 589/676/7
f 589/676/7 577/672/7 586/674/7
f 577/675/8 582/672/8 579/676/8
f 579/676/8 582/672/8 584/674/8
f 582/671/4 589/672/4 584/673/4
f 584/673/4 589/672/4 591/674/4
f 591/675/9 588/672/9 584/676/9
f 584/676/9 588/672/9 579/674/9
f 589/675/10 586/672/10 591/676/10
f 591/676/10 586/672/10 588/674/10
usemtl c_ff9494
f 627/677/1 620/678/1 628/679/1
f 628/679/1 620/678/1 629/680/1
f 623/681/2 620/678/2 630/682/2
f 630/682/2 620/678/2 627/683/2
f 620/681/3 623/678/3 629/684/3
f 629/684/3 623/678/3 631/680/3
f 623/677/4 630/678/4 631/679/4
f 631/679/4 630/678/4 632/680/4
f 632/681/5 628/678/5 631/682/5
f 631/682/5 628/678/5 629/683/5
f 630/681/6 627/678/6 632/684/6
f 632/684/6 627/678/6 628/680/6
f 633/480/1 634/685/1 635/686/1
f 635/686/1 634/685/1 636/687/1
f 637/480/7 634/685/7 638/688/7
f 638/688/7 634/685/7 633/689/7
f 634/480/8 637/685/8 636/686/8
f 636/686/8 637/685/8 639/687/8
f 637/480/4 638/685/4 639/686/4
f 639/686/4 638/685/4 640/687/4
f 640/480/9 635/685/9 639/688/9
f 639/688/9 635/685/9 636/689/9
f 638/480/10 633/685/10 640/686/10
f 640/686/10 633/685/10 635/687/10
