# Roblox asset pack: island_large (map). Exported from Roblox Studio with Export Selection, then split/renamed/re-centred by tools/process_export.py. Units: studs (1 stud = 1 unit). +Y up. Pivot (top_centre) at the origin.
mtllib island_large.mtl

v 10.00000 0.00000 -10.00000
v 10.00000 0.00000 10.00000
v 10.00000 -1.00000 -10.00000
v 10.00000 -1.00000 10.00000
v -10.00000 0.00000 10.00000
v -10.00000 0.00000 -10.00000
v -10.00000 -1.00000 10.00000
v -10.00000 -1.00000 -10.00000
v 10.00000 -2.50000 -10.00000
v 10.00000 -2.50000 10.00000
v -10.00000 -2.50000 10.00000
v -10.00000 -2.50000 -10.00000
v 7.50000 -2.50000 -7.50000
v 7.50000 -2.50000 7.50000
v 7.50000 -4.00000 -7.50000
v 7.50000 -4.00000 7.50000
v -7.50000 -2.50000 7.50000
v -7.50000 -2.50000 -7.50000
v -7.50000 -4.00000 7.50000
v -7.50000 -4.00000 -7.50000
v 5.00000 -4.00000 -5.00000
v 5.00000 -4.00000 5.00000
v 5.00000 -5.50000 -5.00000
v 5.00000 -5.50000 5.00000
v -5.00000 -4.00000 5.00000
v -5.00000 -4.00000 -5.00000
v -5.00000 -5.50000 5.00000
v -5.00000 -5.50000 -5.00000
v 2.50000 -5.50000 -2.50000
v 2.50000 -5.50000 2.50000
v 2.50000 -7.00000 -2.50000
v 2.50000 -7.00000 2.50000
v -2.50000 -5.50000 2.50000
v -2.50000 -5.50000 -2.50000
v -2.50000 -7.00000 2.50000
v -2.50000 -7.00000 -2.50000
v 1.00000 -7.00000 -1.00000
v 1.00000 -7.00000 1.00000
v 1.00000 -8.50000 -1.00000
v 1.00000 -8.50000 1.00000
v -1.00000 -7.00000 1.00000
v -1.00000 -7.00000 -1.00000
v -1.00000 -8.50000 1.00000
v -1.00000 -8.50000 -1.00000
vt 1.71741 -0.06143
vt -0.78259 -0.06143
vt 1.71741 -0.18643
vt -0.78259 -0.18643
vt 1.71741 -2.56143
vt -0.78259 -2.56143
vt 4.19457 -0.80548
vt 1.69457 -0.80548
vt 4.19457 -0.99298
vt 1.69457 -0.99298
vt 4.19457 -3.30548
vt 1.69457 -3.30548
vt 2.79863 0.89572
vt 0.92363 0.89572
vt 2.79863 0.70822
vt 0.92363 0.70822
vt 2.79863 -0.97928
vt 0.92363 -0.97928
vt 1.58830 0.59970
vt 0.33830 0.59970
vt 1.58830 0.41220
vt 0.33830 0.41220
vt 1.58830 -0.65030
vt 0.33830 -0.65030
vt 1.26878 0.65404
vt 0.64378 0.65404
vt 1.26878 0.46654
vt 0.64378 0.46654
vt 1.26878 0.02904
vt 0.64378 0.02904
vt 0.45280 1.09108
vt 0.20280 1.09108
vt 0.45280 0.90358
vt 0.20280 0.90358
vt 0.45280 0.84108
vt 0.20280 0.84108
vn 1.0000 0.0000 0.0000
vn 0.0000 1.0000 0.0000
vn 0.0000 0.0000 1.0000
vn -1.0000 0.0000 0.0000
vn 0.0000 -1.0000 0.0000
vn 0.0000 0.0000 -1.0000

o Grass
usemtl grass
f 1/1/1 2/2/1 3/3/1
f 3/3/1 2/2/1 4/4/1
f 5/1/2 2/2/2 6/5/2
f 6/5/2 2/2/2 1/6/2
f 2/1/3 5/2/3 4/3/3
f 4/3/3 5/2/3 7/4/3
f 5/1/4 6/2/4 7/3/4
f 7/3/4 6/2/4 8/4/4
f 8/1/5 3/2/5 7/5/5
f 7/5/5 3/2/5 4/6/5
f 6/1/6 1/2/6 8/3/6
f 8/3/6 1/2/6 3/4/6
o Dirt
usemtl dirt
f 3/7/1 4/8/1 9/9/1
f 9/9/1 4/8/1 10/10/1
f 7/7/2 4/8/2 8/11/2
f 8/11/2 4/8/2 3/12/2
f 4/7/3 7/8/3 10/9/3
f 10/9/3 7/8/3 11/10/3
f 7/7/4 8/8/4 11/9/4
f 11/9/4 8/8/4 12/10/4
f 12/7/5 9/8/5 11/11/5
f 11/11/5 9/8/5 10/12/5
f 8/7/6 3/8/6 12/9/6
f 12/9/6 3/8/6 9/10/6
o Rock1
usemtl rock1
f 13/13/1 14/14/1 15/15/1
f 15/15/1 14/14/1 16/16/1
f 17/13/2 14/14/2 18/17/2
f 18/17/2 14/14/2 13/18/2
f 14/13/3 17/14/3 16/15/3
f 16/15/3 17/14/3 19/16/3
f 17/13/4 18/14/4 19/15/4
f 19/15/4 18/14/4 20/16/4
f 20/13/5 15/14/5 19/17/5
f 19/17/5 15/14/5 16/18/5
f 18/13/6 13/14/6 20/15/6
f 20/15/6 13/14/6 15/16/6
o Rock2
usemtl rock2
f 21/19/1 22/20/1 23/21/1
f 23/21/1 22/20/1 24/22/1
f 25/19/2 22/20/2 26/23/2
f 26/23/2 22/20/2 21/24/2
f 22/19/3 25/20/3 24/21/3
f 24/21/3 25/20/3 27/22/3
f 25/19/4 26/20/4 27/21/4
f 27/21/4 26/20/4 28/22/4
f 28/19/5 23/20/5 27/23/5
f 27/23/5 23/20/5 24/24/5
f 26/19/6 21/20/6 28/21/6
f 28/21/6 21/20/6 23/22/6
o Rock3
usemtl rock3
f 29/25/1 30/26/1 31/27/1
f 31/27/1 30/26/1 32/28/1
f 33/25/2 30/26/2 34/29/2
f 34/29/2 30/26/2 29/30/2
f 30/25/3 33/26/3 32/27/3
f 32/27/3 33/26/3 35/28/3
f 33/25/4 34/26/4 35/27/4
f 35/27/4 34/26/4 36/28/4
f 36/25/5 31/26/5 35/29/5
f 35/29/5 31/26/5 32/30/5
f 34/25/6 29/26/6 36/27/6
f 36/27/6 29/26/6 31/28/6
o Rock4
usemtl rock4
f 37/31/1 38/32/1 39/33/1
f 39/33/1 38/32/1 40/34/1
f 41/31/2 38/32/2 42/35/2
f 42/35/2 38/32/2 37/36/2
f 38/31/3 41/32/3 40/33/3
f 40/33/3 41/32/3 43/34/3
f 41/31/4 42/32/4 43/33/4
f 43/33/4 42/32/4 44/34/4
f 44/31/5 39/32/5 43/35/5
f 43/35/5 39/32/5 40/36/5
f 42/31/6 37/32/6 44/33/6
f 44/33/6 37/32/6 39/34/6
