# Roblox asset pack: animal_jellyfish (creatures), from the Studio model "Jellyfish". Exported with Export Selection, split by tools/build_creatures.py: one object per rigid body. Units: studs. +Y up, front faces -Z, pivot (bottom centre) at the origin.
mtllib animal_jellyfish.mtl

v 1.55900 7.74990 0.00000
v -1.40100 8.06990 0.00000
v -1.40100 7.82990 1.49000
v 1.55900 7.50990 1.49000
v -1.40100 7.82990 -1.49000
v 1.55900 7.50990 -1.49000
v -0.93400 0.06990 1.20000
v -1.23800 0.06990 0.90000
v -0.93400 0.06990 0.59000
v -0.63100 0.06990 0.90000
v -1.52100 0.06990 0.21000
v -1.09200 0.06990 -0.21000
v -1.09200 0.06990 0.21000
v -1.52100 0.06990 -0.21000
v 0.74800 0.06990 0.74000
v 0.64500 0.06990 1.34000
v 0.39800 0.06990 0.99000
v 0.99600 0.06990 1.09000
v -0.93400 0.06990 -1.20000
v -0.93400 0.06990 -0.59000
v -1.23800 0.06990 -0.90000
v -0.63100 0.06990 -0.90000
v 0.64500 0.06990 -1.34000
v 0.99600 0.06990 -1.09000
v 0.39800 0.06990 -0.99000
v 0.74800 0.06990 -0.74000
v -0.38000 0.05990 0.97000
v 0.04900 0.03990 1.40000
v -0.38000 0.04990 1.40000
v 0.04900 0.04990 0.97000
v 0.80800 0.02990 0.26000
v 1.23700 -0.00010 -0.17000
v 1.23700 0.00990 0.26000
v 0.80800 0.01990 -0.17000
v -0.33300 0.04990 -0.93000
v -0.33300 0.02990 -1.36000
v 0.09600 0.02990 -1.36000
v 0.09600 0.03990 -0.93000
v -1.20800 6.38990 0.66000
v -1.36700 6.38990 0.14000
v -1.36700 6.38990 0.66000
v -1.20800 6.38990 0.14000
v -1.20800 6.38990 -0.66000
v -1.36700 6.38990 -0.14000
v -1.20800 6.38990 -0.14000
v -1.36700 6.38990 -0.66000
v -1.29200 6.23990 0.56000
v -1.40000 6.23990 0.21000
v -1.40000 6.23990 0.56000
v -1.29200 6.23990 0.21000
v -1.40000 6.23990 -0.21000
v -1.29200 6.23990 -0.56000
v -1.40000 6.23990 -0.56000
v -1.29200 6.23990 -0.21000
v 1.29900 5.80990 1.37000
v -1.22600 5.61990 1.19000
v -1.44100 5.59990 1.37000
v 1.17500 5.79990 1.21000
v -1.44100 5.59990 -1.37000
v -1.22600 5.61990 -1.19000
v 1.29900 5.80990 -1.37000
v 1.17500 5.79990 -1.21000
v -0.16000 5.24990 0.81000
v -0.16000 5.23990 1.13000
v 0.16100 5.22990 1.13000
v 0.16100 5.23990 0.81000
v 1.13400 5.19990 -0.17000
v 0.81400 5.21990 0.15000
v 1.13400 5.19990 0.15000
v 0.81300 5.21990 -0.17000
v -0.17300 5.23990 -0.83000
v 0.14800 5.21990 -1.15000
v -0.17300 5.22990 -1.15000
v 0.14800 5.22990 -0.83000
v -0.48100 5.25990 0.67000
v -0.93500 5.25990 0.67000
v -0.70800 5.25990 0.90000
v -0.70800 5.25990 0.44000
v -1.14600 5.25990 0.16000
v -0.82500 5.25990 0.16000
v -0.82500 5.25990 -0.16000
v -1.14600 5.25990 -0.16000
v 0.47300 5.25990 1.00000
v 0.55100 5.25990 0.55000
v 0.28800 5.25990 0.74000
v 0.73600 5.25990 0.81000
v -0.48100 5.25990 -0.67000
v -0.93500 5.25990 -0.67000
v -0.70800 5.25990 -0.44000
v -0.70800 5.25990 -0.90000
v 0.47300 5.25990 -1.00000
v 0.28800 5.25990 -0.74000
v 0.55100 5.25990 -0.55000
v 0.73600 5.25990 -0.81000
v -1.48000 7.35990 0.00000
v -1.48000 7.11990 1.49000
v -1.48000 7.11990 -1.49000
v -1.55900 6.48990 0.00000
v -1.55900 6.39990 1.49000
v -1.55900 6.39990 -1.49000
v 1.33400 5.33990 1.37000
v 1.33400 5.33990 -1.37000
v 1.36900 4.87990 1.37000
v 1.36900 4.87990 -1.37000
v 1.40100 6.06990 -1.49000
v 1.48000 6.78990 -1.49000
v 1.40100 6.06990 1.49000
v 1.48000 6.78990 1.49000
v -1.40600 5.13990 -1.37000
v -1.37100 4.66990 -1.37000
v -1.40600 5.13990 1.37000
v -1.37100 4.66990 1.37000
v 1.22500 0.57990 -0.17000
v 1.22500 0.57990 0.25000
v 1.21400 1.15990 -0.17000
v 1.21400 1.15990 0.24000
v 1.20300 1.73990 0.22000
v 1.20200 1.72990 -0.17000
v 1.19100 2.30990 -0.17000
v 1.19100 2.30990 0.21000
v 1.18000 2.88990 -0.17000
v 1.18000 2.88990 0.20000
v 1.16800 3.46990 -0.17000
v 1.16800 3.46990 0.19000
v 1.15700 4.03990 -0.17000
v 1.15700 4.04990 0.17000
v 1.14500 4.61990 -0.17000
v 1.14600 4.61990 0.16000
v 0.62600 0.64990 -1.30000
v 0.93800 1.22990 -1.03000
v 0.96700 0.64990 -1.06000
v 0.60700 1.22990 -1.26000
v 0.56900 2.37990 -1.19000
v 0.85100 2.95990 -0.94000
v 0.88000 2.37990 -0.97000
v 0.55000 2.95990 -1.15000
v 0.58800 1.79990 -1.22000
v 0.90900 1.79990 -1.00000
v 0.82200 3.52990 -0.91000
v 0.53100 3.52990 -1.11000
v 0.79300 4.10990 -0.88000
v 0.51200 4.10990 -1.07000
v 0.76500 4.67990 -0.85000
v 0.49200 4.67990 -1.04000
v 0.96700 0.64990 1.06000
v 0.62600 0.64990 1.30000
v 0.93800 1.22990 1.03000
v 0.60700 1.22990 1.26000
v 0.90900 1.79990 1.00000
v 0.58800 1.79990 1.22000
v 0.56900 2.37990 1.19000
v 0.85100 2.95990 0.94000
v 0.55000 2.95990 1.15000
v 0.88000 2.37990 0.97000
v 0.82200 3.52990 0.91000
v 0.53100 3.52990 1.11000
v 0.79300 4.10990 0.88000
v 0.51200 4.10990 1.07000
v 0.76500 4.67990 0.85000
v 0.49200 4.67990 1.04000
v 1.40100 6.16990 0.00000
v 1.48000 7.02990 0.00000
v -1.40000 5.78990 0.56000
v -1.40000 5.78990 0.21000
v -1.40000 5.78990 -0.56000
v -1.40000 5.78990 -0.21000
v -0.35600 0.62990 1.37000
v 0.06100 0.61990 1.37000
v -0.33100 1.20990 1.34000
v 0.07400 1.18990 1.34000
v -0.30700 1.77990 1.31000
v 0.08600 1.76990 1.31000
v -0.28200 2.35990 1.28000
v 0.09900 2.34990 1.28000
v -0.25800 2.93990 1.25000
v 0.11100 2.91990 1.25000
v -0.23300 3.50990 1.22000
v 0.12400 3.49990 1.22000
v -0.20900 4.08990 1.19000
v 0.13600 4.07990 1.19000
v -0.18400 4.66990 1.16000
v 0.14900 4.64990 1.16000
v -0.31500 0.60990 -1.33000
v 0.10200 0.59990 -1.33000
v -0.29800 1.18990 -1.31000
v 0.10700 1.17990 -1.31000
v 0.11300 1.75990 -1.29000
v -0.28000 1.76990 -1.29000
v -0.26200 2.33990 -1.26000
v 0.11900 2.32990 -1.26000
v -0.24400 2.91990 -1.24000
v 0.12500 2.90990 -1.24000
v -0.22700 3.49990 -1.22000
v 0.13000 3.48990 -1.22000
v 0.13600 4.06990 -1.19000
v -0.20900 4.06990 -1.19000
v -0.19100 4.64990 -1.17000
v 0.14200 4.63990 -1.17000
v -1.36700 5.72990 0.66000
v -1.36700 5.72990 0.14000
v -1.36700 5.72990 -0.66000
v -1.36700 5.72990 -0.14000
v -0.80800 2.95990 -1.03000
v -1.10300 2.37990 -0.80000
v -1.06900 2.95990 -0.77000
v -0.83400 2.37990 -1.07000
v -0.90900 0.64990 -1.17000
v -1.20400 0.64990 -0.87000
v -0.88400 1.22990 -1.13000
v -1.17000 1.22990 -0.85000
v -0.85900 1.79990 -1.10000
v -1.13700 1.79990 -0.82000
v -0.78300 3.52990 -1.00000
v -1.03600 3.52990 -0.75000
v -0.75800 4.10990 -0.97000
v -1.00200 4.10990 -0.72000
v -0.73300 4.67990 -0.93000
v -0.96800 4.67990 -0.70000
v -0.90900 0.64990 1.17000
v -1.20400 0.64990 0.87000
v -0.88400 1.22990 1.13000
v -1.17000 1.22990 0.85000
v -0.85900 1.79990 1.10000
v -1.13700 1.79990 0.82000
v -0.83400 2.37990 1.07000
v -1.10300 2.37990 0.80000
v -0.80800 2.95990 1.03000
v -1.06900 2.95990 0.77000
v -0.78300 3.52990 1.00000
v -1.03600 3.52990 0.75000
v -0.75800 4.10990 0.97000
v -1.00200 4.10990 0.72000
v -0.73300 4.67990 0.93000
v -0.96800 4.67990 0.70000
v -1.47900 0.64990 0.21000
v -1.47900 0.64990 -0.21000
v -1.43800 1.22990 0.20000
v -1.43800 1.22990 -0.20000
v -1.39600 1.79990 -0.20000
v -1.39600 1.79990 0.20000
v -1.35500 2.37990 0.19000
v -1.35500 2.37990 -0.19000
v -1.31300 2.95990 0.18000
v -1.31300 2.95990 -0.18000
v -1.27100 3.52990 0.18000
v -1.27100 3.52990 -0.18000
v -1.23000 4.10990 -0.17000
v -1.23000 4.10990 0.17000
v -1.18800 4.67990 0.17000
v -1.18800 4.67990 -0.17000
v 1.19200 5.93990 1.23000
v 1.22100 6.18990 0.00000
v 1.21200 6.10990 1.25000
v 1.19200 5.93990 -1.23000
v 1.21200 6.10990 -1.25000
v -1.26300 5.93990 -1.23000
v -1.31600 6.38990 -1.28000
v -1.26300 5.93990 1.23000
v -1.31600 6.38990 1.28000
v -1.32600 6.46990 0.00000
v -1.20800 5.72990 -0.66000
v -1.20800 5.72990 0.66000
v -1.29200 5.78990 -0.56000
v -1.29200 5.78990 0.56000
v 0.10200 0.61990 -0.92000
v 0.10800 1.18990 -0.90000
v 0.11300 1.76990 -0.89000
v 0.11900 2.34990 -0.88000
v 0.12500 2.91990 -0.87000
v 0.13100 3.49990 -0.86000
v 0.13600 4.07990 -0.85000
v 0.14200 4.64990 -0.84000
v 0.72600 0.64990 0.72000
v 0.70400 1.22990 0.70000
v 0.68200 1.79990 0.68000
v 0.66000 2.37990 0.66000
v 0.63800 2.95990 0.64000
v 0.61700 3.52990 0.61000
v 0.59500 4.10990 0.59000
v 0.57300 4.67990 0.57000
v 0.70400 1.22990 -0.70000
v 0.68200 1.79990 -0.68000
v 0.72600 0.64990 -0.72000
v 0.66000 2.37990 -0.66000
v 0.63800 2.95990 -0.64000
v 0.61700 3.52990 -0.61000
v 0.59500 4.10990 -0.59000
v 0.57300 4.67990 -0.57000
v 0.06200 0.62990 0.96000
v 0.07400 1.19990 0.94000
v 0.08600 1.77990 0.92000
v 0.09900 2.35990 0.90000
v 0.11100 2.92990 0.88000
v 0.12400 3.50990 0.87000
v 0.13600 4.08990 0.85000
v 0.14900 4.65990 0.83000
v -0.56400 2.37990 -0.80000
v -0.54700 2.95990 -0.77000
v -0.61400 0.64990 -0.87000
v -0.59700 1.22990 -0.85000
v -0.58100 1.79990 -0.82000
v -0.53100 3.52990 -0.75000
v -0.51400 4.10990 -0.72000
v -0.49700 4.67990 -0.70000
v -0.61400 0.64990 0.87000
v -0.59700 1.22990 0.85000
v -0.58100 1.79990 0.82000
v -0.56400 2.37990 0.80000
v -0.54700 2.95990 0.77000
v -0.53100 3.52990 0.75000
v -0.51400 4.10990 0.72000
v -0.49700 4.67990 0.70000
v 0.80900 0.59990 0.25000
v 0.80900 1.17990 0.24000
v 0.81000 1.75990 0.22000
v 0.81000 2.32990 0.21000
v 0.81100 2.90990 0.20000
v 0.81200 3.48990 0.19000
v 0.81200 4.06990 0.17000
v 0.81300 4.63990 0.16000
v -1.03300 1.22990 -0.20000
v -1.00300 1.79990 -0.20000
v -1.06200 0.64990 -0.21000
v -0.97300 2.37990 -0.19000
v -0.94400 2.95990 -0.18000
v -0.91400 3.52990 -0.18000
v -0.85500 4.67990 -0.17000
v -0.88500 4.10990 -0.17000
v -1.06200 0.64990 0.21000
v -1.03300 1.22990 0.20000
v -1.00300 1.79990 0.20000
v -0.97300 2.37990 0.19000
v -0.94400 2.95990 0.18000
v -0.91400 3.52990 0.18000
v -0.88500 4.10990 0.17000
v -0.85500 4.67990 0.17000
v 0.80800 0.59990 -0.17000
v 0.80900 1.17990 -0.17000
v 0.81000 1.74990 -0.17000
v 0.81000 2.32990 -0.17000
v 0.81100 2.90990 -0.17000
v 0.81200 3.47990 -0.17000
v 0.81200 4.05990 -0.17000
v 0.81300 4.63990 -0.17000
v -0.90900 0.64990 0.58000
v -0.88400 1.22990 0.56000
v -0.85900 1.79990 0.54000
v -0.83400 2.37990 0.53000
v -0.80800 2.95990 0.51000
v -0.78300 3.52990 0.49000
v -0.75800 4.10990 0.48000
v -0.73300 4.67990 0.46000
v -0.90900 0.64990 -0.58000
v -0.88400 1.22990 -0.56000
v -0.85900 1.79990 -0.54000
v -0.83400 2.37990 -0.53000
v -0.80800 2.95990 -0.51000
v -0.78300 3.52990 -0.49000
v -0.75800 4.10990 -0.48000
v -0.73300 4.67990 -0.46000
v -0.35600 0.63990 0.96000
v -0.33100 1.21990 0.94000
v -0.30700 1.78990 0.92000
v -0.28200 2.36990 0.90000
v -0.25800 2.93990 0.88000
v -0.23300 3.51990 0.87000
v -0.20900 4.09990 0.85000
v -0.18400 4.66990 0.83000
v 0.38500 0.64990 0.96000
v 0.37300 1.22990 0.93000
v 0.36100 1.79990 0.90000
v 0.34900 2.37990 0.88000
v 0.32500 3.52990 0.82000
v 0.31300 4.10990 0.79000
v 0.38500 0.64990 -0.96000
v 0.37300 1.22990 -0.93000
v 0.36100 1.79990 -0.90000
v 0.34900 2.37990 -0.88000
v 0.33700 2.95990 -0.85000
v 0.32500 3.52990 -0.82000
v 0.30000 4.67990 -0.77000
v 0.31300 4.10990 -0.79000
v 0.33700 2.95990 0.85000
v 0.30000 4.67990 0.77000
v -0.31500 0.61990 -0.92000
v -0.29700 1.19990 -0.90000
v -0.28000 1.77990 -0.89000
v -0.26200 2.34990 -0.88000
v -0.24400 2.92990 -0.87000
v -0.22600 3.50990 -0.86000
v -0.20900 4.07990 -0.85000
v -0.19100 4.65990 -0.84000
v -1.20800 5.72990 0.14000
v -1.20800 5.72990 -0.14000
v -1.29200 5.78990 0.21000
v -1.29200 5.78990 -0.21000
vt 0.00571 0.83856
vt 0.31877 0.83850
vt 0.31605 0.99701
vt 0.00299 0.99707
vt 0.31599 0.67998
vt 0.00293 0.68004
vt 1.87688 0.08487
vt 1.93617 0.08487
vt 1.93617 0.00974
vt 1.87688 0.00974
vt 0.93617 0.08487
vt 0.87688 0.00974
vt 0.93617 0.00974
vt 0.87688 0.08487
vt 0.72309 0.95396
vt 0.74478 0.88243
vt 0.74478 0.95396
vt 0.72309 0.88243
vt 1.72309 0.95396
vt 1.74478 0.88243
vt 1.72309 0.88243
vt 1.74478 0.95396
vt 0.66620 0.86946
vt 0.68086 0.82112
vt 0.68086 0.86946
vt 0.66620 0.82112
vt 1.68086 0.82112
vt 1.66620 0.86946
vt 1.68086 0.86946
vt 1.66620 0.82112
vt 0.10238 0.55338
vt 0.36905 0.56355
vt 0.38946 0.58530
vt 0.11726 0.53782
vt 0.28437 0.28516
vt 0.30700 0.01583
vt 0.30706 0.30451
vt 0.28432 0.03519
vt 0.50829 0.68138
vt 0.50825 0.39298
vt 0.52135 0.66427
vt 0.52132 0.41009
vt 0.42384 0.14086
vt 0.70980 0.10019
vt 0.69007 0.12255
vt 0.43918 0.15596
vt 1.87688 0.99026
vt 1.87688 0.94062
vt 1.93617 0.94062
vt 1.93617 0.99026
vt 0.93617 0.94062
vt 0.93617 0.99026
vt 0.87688 0.99026
vt 0.87688 0.94062
vt 0.02741 0.31666
vt 0.07881 0.16022
vt 0.10317 0.31690
vt 0.00293 0.16024
vt 0.02734 0.00382
vt 0.10310 0.00354
vt 0.17024 0.16020
vt 0.17881 0.31746
vt 0.17873 0.00294
vt 0.45917 0.68144
vt 0.45912 0.39293
vt 0.41004 0.68147
vt 0.41000 0.39292
vt 0.72582 0.30164
vt 0.41601 0.21350
vt 0.72882 0.22587
vt 0.41301 0.28927
vt 0.72283 0.37742
vt 0.41001 0.36504
vt 0.40463 0.45909
vt 0.09234 0.48102
vt 0.39932 0.38345
vt 0.08703 0.40537
vt 0.39401 0.30780
vt 0.08172 0.32973
vt 0.70289 0.05156
vt 0.41692 0.09223
vt 0.69597 0.00293
vt 0.41000 0.04359
vt 0.38403 0.63412
vt 0.09696 0.60220
vt 0.37861 0.68294
vt 0.09153 0.65102
vt 1.93617 0.17996
vt 1.87688 0.17996
vt 1.93617 0.27504
vt 1.87688 0.27504
vt 1.87688 0.37012
vt 1.93617 0.37012
vt 1.93617 0.46521
vt 1.87688 0.46521
vt 1.93617 0.56029
vt 1.87688 0.56029
vt 1.93617 0.65537
vt 1.87688 0.65537
vt 1.93617 0.75046
vt 1.87688 0.75046
vt 1.93617 0.84554
vt 1.87688 0.84554
vt 0.57276 0.69450
vt 0.58124 0.53717
vt 0.64840 0.69387
vt 0.67268 0.53716
vt 0.64836 0.38046
vt 0.57272 0.37984
vt 0.64041 0.76412
vt 0.68875 0.70289
vt 0.68875 0.76412
vt 0.64041 0.70289
vt 1.64041 0.76412
vt 1.68875 0.70289
vt 1.64041 0.70289
vt 1.68875 0.76412
vt 0.64087 0.98854
vt 0.71240 0.89794
vt 0.71240 0.98854
vt 0.64087 0.89794
vt 1.64087 0.98854
vt 1.71240 0.89794
vt 1.64087 0.89794
vt 1.71240 0.98854
vt 0.72416 0.69358
vt 0.74856 0.53715
vt 0.72412 0.38072
vt 0.93617 0.17996
vt 0.87688 0.17996
vt 0.93617 0.27504
vt 0.87688 0.27504
vt 0.87688 0.37012
vt 0.93617 0.37012
vt 0.93617 0.46521
vt 0.87688 0.46521
vt 0.93617 0.56029
vt 0.87688 0.56029
vt 0.93617 0.65537
vt 0.87688 0.65537
vt 0.87688 0.75046
vt 0.93617 0.75046
vt 0.93617 0.84554
vt 0.87688 0.84554
vt 0.35618 0.30453
vt 0.40524 0.01578
vt 0.40531 0.30452
vt 0.35612 0.01580
vt 0.53588 0.66593
vt 0.56212 0.53717
vt 0.55418 0.66794
vt 0.53585 0.40842
vt 0.55415 0.40641
vt 0.43720 0.18891
vt 0.69592 0.15587
vt 0.70420 0.20291
vt 0.43830 0.17056
vt 0.37389 0.53007
vt 0.11594 0.52325
vt 0.11427 0.50495
vt 0.38072 0.48279
vt 0.19496 0.16020
vt 0.25077 0.28907
vt 0.20319 0.29438
vt 0.25071 0.03130
vt 0.20313 0.02601
vt 1.05735 0.51929
vt 1.03566 0.60989
vt 1.05735 0.60989
vt 1.03566 0.51929
vt 0.05735 0.51929
vt 0.05735 0.60989
vt 0.03566 0.60989
vt 0.03566 0.51929
vt 1.74425 0.78249
vt 1.72958 0.84372
vt 1.74425 0.84372
vt 1.72958 0.78249
vt 0.74424 0.78249
vt 0.74424 0.84372
vt 0.72958 0.84372
vt 0.72958 0.78249
vt 1.81780 0.08487
vt 1.81780 0.17996
vt 1.81780 0.27504
vt 1.81780 0.37012
vt 1.81780 0.46521
vt 1.81780 0.56029
vt 1.81780 0.65537
vt 1.81780 0.75046
vt 1.81780 0.84554
vt 1.81780 0.94062
vt 1.99525 0.08487
vt 1.99525 0.17996
vt 1.99525 0.27504
vt 1.99525 0.37012
vt 1.99525 0.46521
vt 1.99525 0.56029
vt 1.99525 0.65537
vt 1.99525 0.75046
vt 1.99525 0.84554
vt 1.99525 0.94062
vt 0.81780 0.27504
vt 0.81780 0.37012
vt 0.81780 0.17996
vt 0.81780 0.08487
vt 0.81780 0.46521
vt 0.81780 0.56029
vt 0.81780 0.65537
vt 0.81780 0.84554
vt 0.81780 0.94062
vt 0.81780 0.75046
vt 0.99525 0.08487
vt 0.99525 0.17996
vt 0.99525 0.27504
vt 0.99525 0.37012
vt 0.99525 0.46521
vt 0.99525 0.56029
vt 0.99525 0.65537
vt 0.99525 0.75046
vt 0.99525 0.84554
vt 0.99525 0.94062
vt 0.71812 0.70289
vt 0.69643 0.79349
vt 0.69643 0.70289
vt 0.71812 0.79349
vt 1.69643 0.70289
vt 1.69643 0.79349
vt 1.71812 0.70289
vt 1.71812 0.79349
vt 0.74424 0.70289
vt 0.74424 0.76412
vt 0.72958 0.76412
vt 0.72958 0.70289
vt 1.74425 0.76412
vt 1.74425 0.70289
vt 1.72958 0.76412
vt 1.72958 0.70289
vt 0.75857 0.08487
vt 0.75857 0.17996
vt 0.75857 0.27504
vt 0.75857 0.37012
vt 0.75857 0.46521
vt 0.75857 0.56029
vt 0.75857 0.65537
vt 0.75857 0.75046
vt 0.75857 0.84554
vt 0.75857 0.94062
vt 1.75857 0.17996
vt 1.75857 0.08487
vt 1.75857 0.27504
vt 1.75857 0.37012
vt 1.75857 0.46521
vt 1.75857 0.56029
vt 1.75857 0.65537
vt 1.75857 0.75046
vt 1.75857 0.84554
vt 1.75857 0.94062
vt 0.36942 0.71553
vt 0.63049 0.97671
vt 0.36937 0.97666
vt 0.63054 0.71558
vt 0.65901 0.89265
vt 0.63732 0.82112
vt 0.65901 0.82112
vt 0.63732 0.89265
vt 1.65901 0.89265
vt 1.63731 0.82112
vt 1.63731 0.89265
vt 1.65901 0.82112
vt 0.69975 0.86946
vt 0.68509 0.82112
vt 0.69975 0.82112
vt 0.68509 0.86946
vt 1.69975 0.86946
vt 1.69975 0.82112
vt 1.68509 0.82112
vt 1.68509 0.86946
vn 0.1102 0.9843 0.1575
vn 0.1102 0.9843 -0.1575
vn 0.0000 -1.0000 0.0000
vn -0.0315 -1.0000 -0.0236
vn -0.0551 -1.0000 0.0079
vn -0.0236 -1.0000 0.0315
vn 0.0000 1.0000 0.0000
vn -0.0709 1.0000 0.0000
vn 0.0315 1.0000 0.0236
vn 0.0551 1.0000 -0.0079
vn 0.0236 1.0000 -0.0315
vn -0.9921 0.1102 0.0157
vn -0.9921 0.1102 -0.0157
vn -0.9921 0.1024 0.0079
vn -0.9921 0.1024 -0.0079
vn 1.0000 0.0709 0.0000
vn 0.0000 0.0000 -1.0000
vn 0.0000 0.0000 1.0000
vn 1.0000 0.0236 0.0000
vn 0.5748 0.0709 -0.8189
vn 0.5748 0.0709 0.8189
vn 0.9921 -0.1024 -0.0079
vn 0.9921 -0.1024 0.0079
vn -1.0000 0.0000 0.0000
vn 0.0000 0.0551 1.0000
vn 0.0000 0.0394 -1.0000
vn 0.9921 -0.1102 -0.0157
vn 0.9921 -0.1102 0.0157
vn -0.7087 0.0709 -0.7087
vn -0.7087 0.0709 0.7087
vn -1.0000 0.0709 0.0000
vn -1.0000 -0.0709 0.0000
vn 0.9921 -0.1181 0.0000
vn 0.0000 -0.1181 -0.9921
vn 0.0000 -0.1181 0.9921
vn -0.9921 -0.1181 0.0000
vn 1.0000 -0.0079 0.0000
vn 0.8189 0.0079 -0.5748
vn 0.8189 0.0079 0.5748
vn 1.0000 -0.0236 0.0000
vn 0.7087 0.0079 -0.7087
vn 0.7087 0.0079 0.7087
vn 0.0000 0.0236 1.0000
vn 0.0000 0.0079 -1.0000
vn 0.0000 0.0079 1.0000
vn -0.7087 0.0079 -0.7087
vn -0.7087 0.0079 0.7087
vn -1.0000 0.0394 0.0000
vn -0.8189 0.0079 0.5748
vn -0.8189 0.0079 -0.5748
vn -1.0000 0.0315 0.0000
vn 1.0000 -0.0551 0.0000
vn 0.7087 -0.0551 -0.7087
vn 0.7087 -0.0551 0.7087
vn 0.0000 -0.0315 -1.0000
vn 0.0000 -0.0157 1.0000
vn -0.5748 -0.0551 -0.8189
vn -0.5748 -0.0551 0.8189
vn 0.0709 -1.0000 0.0000
vn -0.1102 -0.9921 -0.0630
vn -0.1102 -0.9921 0.0630

o animal_jellyfish
usemtl tex_animal_jellyfish_i041p001x
f 1/1/1 2/2/1 3/3/1
f 3/3/1 4/4/1 1/1/1
f 2/2/2 1/1/2 5/5/2
f 5/5/2 1/1/2 6/6/2
f 7/7/3 8/8/3 9/9/3
f 10/10/3 7/7/3 9/9/3
f 11/11/3 12/12/3 13/13/3
f 12/12/3 11/11/3 14/14/3
f 15/10/3 16/8/3 17/9/3
f 16/8/3 15/10/3 18/7/3
f 19/7/3 20/9/3 21/8/3
f 20/9/3 19/7/3 22/10/3
f 23/8/3 24/7/3 25/9/3
f 24/7/3 26/10/3 25/9/3
f 27/10/4 28/8/4 29/7/4
f 28/8/4 27/10/4 30/9/4
f 31/10/5 32/8/5 33/7/5
f 32/8/5 31/10/5 34/9/5
f 35/9/6 36/8/6 37/7/6
f 35/9/6 37/7/6 38/10/6
f 39/15/7 40/16/7 41/17/7
f 40/16/7 39/15/7 42/18/7
f 43/19/7 44/20/7 45/21/7
f 44/20/7 43/19/7 46/22/7
f 47/23/7 48/24/7 49/25/7
f 48/24/7 47/23/7 50/26/7
f 51/27/7 52/28/7 53/29/7
f 52/28/7 51/27/7 54/30/7
f 55/31/8 56/32/8 57/33/8
f 56/32/8 55/31/8 58/34/8
f 56/35/8 59/36/8 57/37/8
f 59/36/8 56/35/8 60/38/8
f 55/39/8 61/40/8 58/41/8
f 58/41/8 61/40/8 62/42/8
f 61/43/8 59/44/8 60/45/8
f 61/43/8 60/45/8 62/46/8
f 63/47/9 64/48/9 65/49/9
f 63/47/9 65/49/9 66/50/9
f 67/49/10 68/47/10 69/48/10
f 68/47/10 67/49/10 70/50/10
f 71/50/11 72/48/11 73/49/11
f 72/48/11 71/50/11 74/47/11
f 75/47/7 76/49/7 77/48/7
f 76/49/7 75/47/7 78/50/7
f 79/51/7 80/52/7 81/53/7
f 82/54/7 79/51/7 81/53/7
f 83/49/7 84/47/7 85/50/7
f 84/47/7 83/49/7 86/48/7
f 87/47/7 88/49/7 89/50/7
f 88/49/7 87/47/7 90/48/7
f 91/49/7 92/50/7 93/47/7
f 94/48/7 91/49/7 93/47/7
f 3/55/12 95/56/12 96/57/12
f 3/55/12 2/58/12 95/56/12
f 5/59/13 95/56/13 2/58/13
f 95/56/13 5/59/13 97/60/13
f 96/57/14 98/61/14 99/62/14
f 96/57/14 95/56/14 98/61/14
f 97/60/15 98/61/15 95/56/15
f 98/61/15 97/60/15 100/63/15
f 101/64/16 61/40/16 55/39/16
f 101/64/16 102/65/16 61/40/16
f 103/66/16 104/67/16 101/64/16
f 102/65/16 101/64/16 104/67/16
f 97/68/17 105/69/17 100/70/17
f 105/69/17 97/68/17 106/71/17
f 5/72/17 106/71/17 97/68/17
f 106/71/17 5/72/17 6/73/17
f 99/74/18 107/75/18 96/76/18
f 96/76/18 107/75/18 108/77/18
f 108/77/18 3/78/18 96/76/18
f 3/78/18 108/77/18 4/79/18
f 61/43/17 109/80/17 59/44/17
f 109/80/17 61/43/17 102/81/17
f 109/80/17 102/81/17 110/82/17
f 110/82/17 102/81/17 104/83/17
f 55/31/18 57/33/18 111/84/18
f 111/84/18 101/85/18 55/31/18
f 112/86/18 101/85/18 111/84/18
f 101/85/18 112/86/18 103/87/18
f 33/7/19 113/88/19 114/89/19
f 32/8/19 113/88/19 33/7/19
f 114/89/19 115/90/19 116/91/19
f 113/88/19 115/90/19 114/89/19
f 115/90/19 117/92/19 116/91/19
f 117/92/19 115/90/19 118/93/19
f 117/92/19 119/94/19 120/95/19
f 118/93/19 119/94/19 117/92/19
f 120/95/19 121/96/19 122/97/19
f 119/94/19 121/96/19 120/95/19
f 122/97/19 123/98/19 124/99/19
f 121/96/19 123/98/19 122/97/19
f 124/99/19 125/100/19 126/101/19
f 123/98/19 125/100/19 124/99/19
f 126/101/19 127/102/19 128/103/19
f 125/100/19 127/102/19 126/101/19
f 127/102/19 69/48/19 128/103/19
f 69/48/19 127/102/19 67/49/19
f 129/88/20 130/91/20 131/89/20
f 130/91/20 129/88/20 132/90/20
f 23/8/20 131/89/20 24/7/20
f 131/89/20 23/8/20 129/88/20
f 133/94/20 134/97/20 135/95/20
f 134/97/20 133/94/20 136/96/20
f 137/93/20 135/95/20 138/92/20
f 135/95/20 137/93/20 133/94/20
f 136/96/20 139/99/20 134/97/20
f 139/99/20 136/96/20 140/98/20
f 138/92/20 132/90/20 137/93/20
f 132/90/20 138/92/20 130/91/20
f 140/98/20 141/101/20 139/99/20
f 141/101/20 140/98/20 142/100/20
f 142/100/20 143/103/20 141/101/20
f 143/103/20 142/100/20 144/102/20
f 94/48/20 144/102/20 91/49/20
f 144/102/20 94/48/20 143/103/20
f 145/89/21 16/8/21 18/7/21
f 16/8/21 145/89/21 146/88/21
f 146/88/21 147/91/21 148/90/21
f 147/91/21 146/88/21 145/89/21
f 148/90/21 149/92/21 150/93/21
f 149/92/21 148/90/21 147/91/21
f 151/94/21 152/97/21 153/96/21
f 152/97/21 151/94/21 154/95/21
f 150/93/21 154/95/21 151/94/21
f 154/95/21 150/93/21 149/92/21
f 155/99/21 153/96/21 152/97/21
f 153/96/21 155/99/21 156/98/21
f 156/98/21 157/101/21 158/100/21
f 157/101/21 156/98/21 155/99/21
f 158/100/21 159/103/21 160/102/21
f 159/103/21 158/100/21 157/101/21
f 160/102/21 86/48/21 83/49/21
f 86/48/21 160/102/21 159/103/21
f 107/104/22 161/105/22 108/106/22
f 162/107/22 108/106/22 161/105/22
f 161/105/23 106/108/23 162/107/23
f 161/105/23 105/109/23 106/108/23
f 48/110/24 163/111/24 49/112/24
f 163/111/24 48/110/24 164/113/24
f 51/114/24 165/115/24 166/116/24
f 51/114/24 53/117/24 165/115/24
f 28/8/25 167/89/25 29/7/25
f 167/89/25 28/8/25 168/88/25
f 168/88/25 169/91/25 167/89/25
f 169/91/25 168/88/25 170/90/25
f 170/90/25 171/92/25 169/91/25
f 171/92/25 170/90/25 172/93/25
f 172/93/25 173/95/25 171/92/25
f 173/95/25 172/93/25 174/94/25
f 175/97/25 173/95/25 176/96/25
f 173/95/25 174/94/25 176/96/25
f 176/96/25 177/99/25 175/97/25
f 177/99/25 176/96/25 178/98/25
f 178/98/25 179/101/25 177/99/25
f 179/101/25 178/98/25 180/100/25
f 181/103/25 179/101/25 182/102/25
f 179/101/25 180/100/25 182/102/25
f 182/102/25 64/48/25 181/103/25
f 64/48/25 182/102/25 65/49/25
f 183/88/26 37/7/26 36/8/26
f 37/7/26 183/88/26 184/89/26
f 185/90/26 184/89/26 183/88/26
f 184/89/26 185/90/26 186/91/26
f 187/92/26 185/90/26 188/93/26
f 185/90/26 187/92/26 186/91/26
f 189/94/26 187/92/26 188/93/26
f 187/92/26 189/94/26 190/95/26
f 191/96/26 190/95/26 189/94/26
f 190/95/26 191/96/26 192/97/26
f 193/98/26 192/97/26 191/96/26
f 192/97/26 193/98/26 194/99/26
f 193/98/26 195/101/26 194/99/26
f 195/101/26 193/98/26 196/100/26
f 197/102/26 195/101/26 196/100/26
f 195/101/26 197/102/26 198/103/26
f 197/102/26 72/48/26 198/103/26
f 72/48/26 197/102/26 73/49/26
f 40/118/24 199/119/24 41/120/24
f 199/119/24 40/118/24 200/121/24
f 44/122/24 201/123/24 202/124/24
f 44/122/24 46/125/24 201/123/24
f 162/107/27 4/126/27 108/106/27
f 4/126/27 162/107/27 1/127/27
f 162/107/28 6/128/28 1/127/28
f 162/107/28 106/108/28 6/128/28
f 203/97/29 204/94/29 205/96/29
f 204/94/29 203/97/29 206/95/29
f 207/89/29 21/8/29 208/88/29
f 21/8/29 207/89/29 19/7/29
f 209/91/29 208/88/29 210/90/29
f 208/88/29 209/91/29 207/89/29
f 210/90/29 211/92/29 209/91/29
f 211/92/29 210/90/29 212/93/29
f 206/95/29 212/93/29 204/94/29
f 212/93/29 206/95/29 211/92/29
f 205/96/29 213/99/29 203/97/29
f 213/99/29 205/96/29 214/98/29
f 214/98/29 215/101/29 213/99/29
f 215/101/29 214/98/29 216/100/29
f 216/100/29 217/103/29 215/101/29
f 217/103/29 216/100/29 218/102/29
f 90/48/29 218/102/29 88/49/29
f 218/102/29 90/48/29 217/103/29
f 219/89/30 8/8/30 7/7/30
f 8/8/30 219/89/30 220/88/30
f 221/91/30 220/88/30 219/89/30
f 220/88/30 221/91/30 222/90/30
f 223/92/30 222/90/30 221/91/30
f 222/90/30 223/92/30 224/93/30
f 225/95/30 224/93/30 223/92/30
f 224/93/30 225/95/30 226/94/30
f 227/97/30 226/94/30 225/95/30
f 226/94/30 227/97/30 228/96/30
f 228/96/30 229/99/30 230/98/30
f 229/99/30 228/96/30 227/97/30
f 231/101/30 230/98/30 229/99/30
f 230/98/30 231/101/30 232/100/30
f 233/103/30 232/100/30 231/101/30
f 232/100/30 233/103/30 234/102/30
f 77/48/30 234/102/30 233/103/30
f 234/102/30 77/48/30 76/49/30
f 235/129/31 14/14/31 11/11/31
f 235/129/31 236/130/31 14/14/31
f 237/131/31 236/130/31 235/129/31
f 237/131/31 238/132/31 236/130/31
f 239/133/31 237/131/31 240/134/31
f 237/131/31 239/133/31 238/132/31
f 241/135/31 239/133/31 240/134/31
f 241/135/31 242/136/31 239/133/31
f 243/137/31 242/136/31 241/135/31
f 243/137/31 244/138/31 242/136/31
f 245/139/31 244/138/31 243/137/31
f 245/139/31 246/140/31 244/138/31
f 247/141/31 245/139/31 248/142/31
f 245/139/31 247/141/31 246/140/31
f 249/143/31 247/141/31 248/142/31
f 249/143/31 250/144/31 247/141/31
f 79/51/31 250/144/31 249/143/31
f 82/54/31 250/144/31 79/51/31
f 111/145/32 110/146/32 112/147/32
f 110/146/32 111/145/32 109/148/32
f 57/37/32 109/148/32 111/145/32
f 57/37/32 59/36/32 109/148/32
f 251/149/33 252/150/33 253/151/33
f 58/41/33 62/42/33 251/149/33
f 254/152/33 251/149/33 62/42/33
f 251/149/33 254/152/33 252/150/33
f 252/150/33 254/152/33 255/153/33
f 255/154/34 256/155/34 257/156/34
f 256/155/34 255/154/34 254/157/34
f 256/155/34 62/46/34 60/45/34
f 62/46/34 256/155/34 254/157/34
f 56/32/35 58/34/35 258/158/35
f 258/158/35 58/34/35 251/159/35
f 253/160/35 259/161/35 258/158/35
f 258/158/35 251/159/35 253/160/35
f 260/162/36 258/163/36 259/164/36
f 258/163/36 60/38/36 56/35/36
f 60/38/36 258/163/36 256/165/36
f 256/165/36 258/163/36 260/162/36
f 256/165/36 260/162/36 257/166/36
f 46/167/17 261/168/17 201/169/17
f 261/168/17 46/167/17 43/170/17
f 41/171/18 199/172/18 262/173/18
f 41/171/18 262/173/18 39/174/18
f 53/175/17 263/176/17 165/177/17
f 263/176/17 53/175/17 52/178/17
f 49/179/18 163/180/18 264/181/18
f 49/179/18 264/181/18 47/182/18
f 38/183/37 184/89/37 265/184/37
f 37/7/37 184/89/37 38/183/37
f 265/184/37 186/91/37 266/185/37
f 184/89/37 186/91/37 265/184/37
f 186/91/37 187/92/37 266/185/37
f 266/185/37 187/92/37 267/186/37
f 267/186/37 190/95/37 268/187/37
f 187/92/37 190/95/37 267/186/37
f 268/187/37 192/97/37 269/188/37
f 190/95/37 192/97/37 268/187/37
f 192/97/37 194/99/37 269/188/37
f 269/188/37 194/99/37 270/189/37
f 270/189/37 195/101/37 271/190/37
f 194/99/37 195/101/37 270/189/37
f 195/101/37 198/103/37 271/190/37
f 271/190/37 198/103/37 272/191/37
f 198/103/37 72/48/37 272/191/37
f 272/191/37 72/48/37 74/192/37
f 145/89/38 18/7/38 15/183/38
f 15/183/38 273/184/38 145/89/38
f 147/91/38 145/89/38 273/184/38
f 273/184/38 274/185/38 147/91/38
f 274/185/38 275/186/38 149/92/38
f 149/92/38 147/91/38 274/185/38
f 152/97/38 154/95/38 276/187/38
f 276/187/38 277/188/38 152/97/38
f 155/99/38 152/97/38 277/188/38
f 277/188/38 278/189/38 155/99/38
f 275/186/38 276/187/38 154/95/38
f 154/95/38 149/92/38 275/186/38
f 159/103/38 157/101/38 279/190/38
f 279/190/38 280/191/38 159/103/38
f 278/189/38 279/190/38 157/101/38
f 157/101/38 155/99/38 278/189/38
f 86/48/38 159/103/38 280/191/38
f 280/191/38 84/192/38 86/48/38
f 281/185/39 138/92/39 282/186/39
f 130/91/39 138/92/39 281/185/39
f 283/184/39 130/91/39 281/185/39
f 131/89/39 130/91/39 283/184/39
f 26/183/39 131/89/39 283/184/39
f 24/7/39 131/89/39 26/183/39
f 282/186/39 135/95/39 284/187/39
f 138/92/39 135/95/39 282/186/39
f 284/187/39 134/97/39 285/188/39
f 135/95/39 134/97/39 284/187/39
f 134/97/39 139/99/39 285/188/39
f 285/188/39 139/99/39 286/189/39
f 286/189/39 141/101/39 287/190/39
f 139/99/39 141/101/39 286/189/39
f 287/190/39 143/103/39 288/191/39
f 141/101/39 143/103/39 287/190/39
f 288/191/39 94/48/39 93/192/39
f 143/103/39 94/48/39 288/191/39
f 30/193/40 168/88/40 28/8/40
f 168/88/40 30/193/40 289/194/40
f 289/194/40 170/90/40 168/88/40
f 170/90/40 289/194/40 290/195/40
f 290/195/40 172/93/40 170/90/40
f 172/93/40 290/195/40 291/196/40
f 291/196/40 174/94/40 172/93/40
f 174/94/40 291/196/40 292/197/40
f 292/197/40 176/96/40 174/94/40
f 176/96/40 292/197/40 293/198/40
f 293/198/40 178/98/40 176/96/40
f 178/98/40 293/198/40 294/199/40
f 294/199/40 180/100/40 178/98/40
f 180/100/40 294/199/40 295/200/40
f 295/200/40 182/102/40 180/100/40
f 182/102/40 295/200/40 296/201/40
f 296/201/40 65/49/40 182/102/40
f 65/49/40 296/201/40 66/202/40
f 297/187/41 203/97/41 298/188/41
f 206/95/41 203/97/41 297/187/41
f 22/183/41 207/89/41 299/184/41
f 19/7/41 207/89/41 22/183/41
f 209/91/41 211/92/41 300/185/41
f 300/185/41 211/92/41 301/186/41
f 207/89/41 209/91/41 299/184/41
f 299/184/41 209/91/41 300/185/41
f 301/186/41 206/95/41 297/187/41
f 211/92/41 206/95/41 301/186/41
f 203/97/41 213/99/41 298/188/41
f 298/188/41 213/99/41 302/189/41
f 213/99/41 215/101/41 302/189/41
f 302/189/41 215/101/41 303/190/41
f 215/101/41 217/103/41 303/190/41
f 303/190/41 217/103/41 304/191/41
f 217/103/41 90/48/41 304/191/41
f 304/191/41 90/48/41 87/192/41
f 219/89/42 7/7/42 10/183/42
f 219/89/42 10/183/42 305/184/42
f 221/91/42 219/89/42 305/184/42
f 221/91/42 305/184/42 306/185/42
f 223/92/42 221/91/42 306/185/42
f 223/92/42 306/185/42 307/186/42
f 225/95/42 223/92/42 307/186/42
f 307/186/42 308/187/42 225/95/42
f 227/97/42 225/95/42 308/187/42
f 308/187/42 309/188/42 227/97/42
f 229/99/42 227/97/42 309/188/42
f 309/188/42 310/189/42 229/99/42
f 231/101/42 229/99/42 310/189/42
f 310/189/42 311/190/42 231/101/42
f 233/103/42 231/101/42 311/190/42
f 311/190/42 312/191/42 233/103/42
f 77/48/42 233/103/42 312/191/42
f 312/191/42 75/192/42 77/48/42
f 313/184/43 31/183/43 114/89/43
f 31/183/43 33/7/43 114/89/43
f 313/184/43 114/89/43 116/91/43
f 314/185/43 313/184/43 116/91/43
f 314/185/43 116/91/43 117/92/43
f 315/186/43 314/185/43 117/92/43
f 315/186/43 117/92/43 120/95/43
f 316/187/43 315/186/43 120/95/43
f 317/188/43 316/187/43 122/97/43
f 316/187/43 120/95/43 122/97/43
f 317/188/43 122/97/43 124/99/43
f 318/189/43 317/188/43 124/99/43
f 318/189/43 124/99/43 126/101/43
f 319/190/43 318/189/43 126/101/43
f 320/191/43 319/190/43 128/103/43
f 319/190/43 126/101/43 128/103/43
f 68/192/43 320/191/43 69/48/43
f 128/103/43 69/48/43 320/191/43
f 239/133/44 321/203/44 238/132/44
f 321/203/44 239/133/44 322/204/44
f 323/205/44 238/132/44 321/203/44
f 238/132/44 323/205/44 236/130/44
f 236/130/44 12/206/44 14/14/44
f 12/206/44 236/130/44 323/205/44
f 244/138/44 324/207/44 242/136/44
f 324/207/44 244/138/44 325/208/44
f 322/204/44 242/136/44 324/207/44
f 242/136/44 322/204/44 239/133/44
f 246/140/44 325/208/44 244/138/44
f 325/208/44 246/140/44 326/209/44
f 82/54/44 327/210/44 250/144/44
f 327/210/44 82/54/44 81/211/44
f 247/141/44 326/209/44 246/140/44
f 326/209/44 247/141/44 328/212/44
f 250/144/44 328/212/44 247/141/44
f 328/212/44 250/144/44 327/210/44
f 13/213/45 235/129/45 11/11/45
f 235/129/45 13/213/45 329/214/45
f 329/214/45 237/131/45 235/129/45
f 237/131/45 329/214/45 330/215/45
f 330/215/45 240/134/45 237/131/45
f 240/134/45 330/215/45 331/216/45
f 331/216/45 241/135/45 240/134/45
f 241/135/45 331/216/45 332/217/45
f 332/217/45 243/137/45 241/135/45
f 243/137/45 332/217/45 333/218/45
f 333/218/45 245/139/45 243/137/45
f 245/139/45 333/218/45 334/219/45
f 334/219/45 248/142/45 245/139/45
f 248/142/45 334/219/45 335/220/45
f 335/220/45 249/143/45 248/142/45
f 249/143/45 335/220/45 336/221/45
f 336/221/45 79/51/45 249/143/45
f 79/51/45 336/221/45 80/222/45
f 34/193/17 113/88/17 32/8/17
f 113/88/17 34/193/17 337/194/17
f 115/90/17 337/194/17 338/195/17
f 337/194/17 115/90/17 113/88/17
f 338/195/17 118/93/17 115/90/17
f 118/93/17 338/195/17 339/196/17
f 339/196/17 119/94/17 118/93/17
f 119/94/17 339/196/17 340/197/17
f 340/197/17 121/96/17 119/94/17
f 121/96/17 340/197/17 341/198/17
f 341/198/17 123/98/17 121/96/17
f 123/98/17 341/198/17 342/199/17
f 125/100/17 342/199/17 343/200/17
f 342/199/17 125/100/17 123/98/17
f 343/200/17 127/102/17 125/100/17
f 127/102/17 343/200/17 344/201/17
f 67/49/17 344/201/17 70/202/17
f 344/201/17 67/49/17 127/102/17
f 220/88/46 9/193/46 8/8/46
f 9/193/46 220/88/46 345/194/46
f 222/90/46 345/194/46 220/88/46
f 345/194/46 222/90/46 346/195/46
f 224/93/46 346/195/46 222/90/46
f 346/195/46 224/93/46 347/196/46
f 226/94/46 347/196/46 224/93/46
f 347/196/46 226/94/46 348/197/46
f 228/96/46 348/197/46 226/94/46
f 348/197/46 228/96/46 349/198/46
f 230/98/46 349/198/46 228/96/46
f 349/198/46 230/98/46 350/199/46
f 232/100/46 350/199/46 230/98/46
f 350/199/46 232/100/46 351/200/46
f 234/102/46 351/200/46 232/100/46
f 351/200/46 234/102/46 352/201/46
f 76/49/46 352/201/46 234/102/46
f 352/201/46 76/49/46 78/202/46
f 20/193/47 208/88/47 21/8/47
f 208/88/47 20/193/47 353/194/47
f 353/194/47 210/90/47 208/88/47
f 210/90/47 353/194/47 354/195/47
f 354/195/47 212/93/47 210/90/47
f 212/93/47 354/195/47 355/196/47
f 355/196/47 204/94/47 212/93/47
f 204/94/47 355/196/47 356/197/47
f 356/197/47 205/96/47 204/94/47
f 205/96/47 356/197/47 357/198/47
f 357/198/47 214/98/47 205/96/47
f 214/98/47 357/198/47 358/199/47
f 218/102/47 359/200/47 360/201/47
f 359/200/47 218/102/47 216/100/47
f 88/49/47 360/201/47 89/202/47
f 360/201/47 88/49/47 218/102/47
f 216/100/47 358/199/47 359/200/47
f 358/199/47 216/100/47 214/98/47
f 167/89/48 27/183/48 29/7/48
f 167/89/48 361/184/48 27/183/48
f 169/91/48 361/184/48 167/89/48
f 169/91/48 362/185/48 361/184/48
f 171/92/48 362/185/48 169/91/48
f 171/92/48 363/186/48 362/185/48
f 173/95/48 363/186/48 171/92/48
f 173/95/48 364/187/48 363/186/48
f 175/97/48 364/187/48 173/95/48
f 175/97/48 365/188/48 364/187/48
f 177/99/48 365/188/48 175/97/48
f 177/99/48 366/189/48 365/188/48
f 179/101/48 366/189/48 177/99/48
f 367/190/48 366/189/48 179/101/48
f 181/103/48 367/190/48 179/101/48
f 368/191/48 367/190/48 181/103/48
f 64/48/48 368/191/48 181/103/48
f 63/192/48 368/191/48 64/48/48
f 369/194/49 148/90/49 370/195/49
f 148/90/49 369/194/49 146/88/49
f 150/93/49 370/195/49 148/90/49
f 370/195/49 150/93/49 371/196/49
f 371/196/49 151/94/49 372/197/49
f 151/94/49 371/196/49 150/93/49
f 158/100/49 373/199/49 156/98/49
f 373/199/49 158/100/49 374/200/49
f 129/88/50 25/193/50 375/194/50
f 25/193/50 129/88/50 23/8/50
f 132/90/50 375/194/50 376/195/50
f 375/194/50 132/90/50 129/88/50
f 376/195/50 137/93/50 132/90/50
f 137/93/50 376/195/50 377/196/50
f 133/94/50 377/196/50 378/197/50
f 377/196/50 133/94/50 137/93/50
f 136/96/50 378/197/50 379/198/50
f 378/197/50 136/96/50 133/94/50
f 379/198/50 140/98/50 136/96/50
f 140/98/50 379/198/50 380/199/50
f 91/49/50 381/201/50 92/202/50
f 381/201/50 91/49/50 144/102/50
f 142/100/50 380/199/50 382/200/50
f 380/199/50 142/100/50 140/98/50
f 144/102/50 382/200/50 381/201/50
f 382/200/50 144/102/50 142/100/50
f 17/193/49 146/88/49 369/194/49
f 146/88/49 17/193/49 16/8/49
f 372/197/49 153/96/49 383/198/49
f 153/96/49 372/197/49 151/94/49
f 156/98/49 383/198/49 153/96/49
f 383/198/49 156/98/49 373/199/49
f 160/102/49 374/200/49 158/100/49
f 374/200/49 160/102/49 384/201/49
f 83/49/49 384/201/49 160/102/49
f 384/201/49 83/49/49 85/202/49
f 183/88/51 35/193/51 385/194/51
f 35/193/51 183/88/51 36/8/51
f 185/90/51 385/194/51 386/195/51
f 385/194/51 185/90/51 183/88/51
f 386/195/51 188/93/51 185/90/51
f 188/93/51 386/195/51 387/196/51
f 387/196/51 189/94/51 188/93/51
f 189/94/51 387/196/51 388/197/51
f 191/96/51 388/197/51 389/198/51
f 388/197/51 191/96/51 189/94/51
f 389/198/51 193/98/51 191/96/51
f 193/98/51 389/198/51 390/199/51
f 197/102/51 391/200/51 392/201/51
f 391/200/51 197/102/51 196/100/51
f 390/199/51 196/100/51 193/98/51
f 196/100/51 390/199/51 391/200/51
f 392/201/51 73/49/51 197/102/51
f 73/49/51 392/201/51 71/202/51
f 200/223/17 42/224/17 393/225/17
f 200/223/17 40/226/17 42/224/17
f 394/227/18 45/228/18 202/229/18
f 44/230/18 202/229/18 45/228/18
f 164/231/17 48/232/17 50/233/17
f 164/231/17 50/233/17 395/234/17
f 51/235/18 166/236/18 54/237/18
f 396/238/18 54/237/18 166/236/18
f 13/239/52 323/205/52 329/240/52
f 12/206/52 323/205/52 13/239/52
f 329/240/52 321/203/52 330/241/52
f 321/203/52 329/240/52 323/205/52
f 330/241/52 322/204/52 331/242/52
f 321/203/52 322/204/52 330/241/52
f 331/242/52 324/207/52 332/243/52
f 324/207/52 331/242/52 322/204/52
f 332/243/52 325/208/52 333/244/52
f 324/207/52 325/208/52 332/243/52
f 325/208/52 334/245/52 333/244/52
f 334/245/52 325/208/52 326/209/52
f 334/245/52 328/212/52 335/246/52
f 326/209/52 328/212/52 334/245/52
f 328/212/52 336/247/52 335/246/52
f 336/247/52 328/212/52 327/210/52
f 336/247/52 81/211/52 80/248/52
f 81/211/52 336/247/52 327/210/52
f 345/249/53 10/183/53 9/250/53
f 10/183/53 345/249/53 305/184/53
f 306/185/53 305/184/53 345/249/53
f 345/249/53 346/251/53 306/185/53
f 307/186/53 306/185/53 346/251/53
f 346/251/53 347/252/53 307/186/53
f 308/187/53 307/186/53 347/252/53
f 347/252/53 348/253/53 308/187/53
f 309/188/53 308/187/53 348/253/53
f 348/253/53 349/254/53 309/188/53
f 310/189/53 309/188/53 349/254/53
f 349/254/53 350/255/53 310/189/53
f 350/255/53 351/256/53 311/190/53
f 311/190/53 310/189/53 350/255/53
f 312/191/53 311/190/53 351/256/53
f 351/256/53 352/257/53 312/191/53
f 75/192/53 312/191/53 352/257/53
f 352/257/53 78/258/53 75/192/53
f 353/249/54 300/185/54 354/251/54
f 299/184/54 300/185/54 353/249/54
f 22/183/54 353/249/54 20/250/54
f 353/249/54 22/183/54 299/184/54
f 300/185/54 301/186/54 354/251/54
f 354/251/54 301/186/54 355/252/54
f 355/252/54 297/187/54 356/253/54
f 301/186/54 297/187/54 355/252/54
f 356/253/54 298/188/54 357/254/54
f 297/187/54 298/188/54 356/253/54
f 298/188/54 302/189/54 357/254/54
f 357/254/54 302/189/54 358/255/54
f 359/256/54 304/191/54 360/257/54
f 303/190/54 304/191/54 359/256/54
f 360/257/54 87/192/54 89/258/54
f 304/191/54 87/192/54 360/257/54
f 358/255/54 303/190/54 359/256/54
f 302/189/54 303/190/54 358/255/54
f 361/184/55 30/250/55 27/183/55
f 30/250/55 361/184/55 289/249/55
f 362/185/55 289/249/55 361/184/55
f 289/249/55 362/185/55 290/251/55
f 363/186/55 290/251/55 362/185/55
f 290/251/55 363/186/55 291/252/55
f 364/187/55 291/252/55 363/186/55
f 291/252/55 364/187/55 292/253/55
f 365/188/55 292/253/55 364/187/55
f 292/253/55 365/188/55 293/254/55
f 366/189/55 293/254/55 365/188/55
f 293/254/55 366/189/55 294/255/55
f 366/189/55 295/256/55 294/255/55
f 295/256/55 366/189/55 367/190/55
f 367/190/55 296/257/55 295/256/55
f 296/257/55 367/190/55 368/191/55
f 63/192/55 296/257/55 368/191/55
f 296/257/55 63/192/55 66/258/55
f 269/188/56 390/255/56 389/254/56
f 390/255/56 269/188/56 270/189/56
f 38/183/56 385/249/56 35/250/56
f 385/249/56 38/183/56 265/184/56
f 265/184/56 386/251/56 385/249/56
f 386/251/56 265/184/56 266/185/56
f 387/252/56 386/251/56 267/186/56
f 386/251/56 266/185/56 267/186/56
f 267/186/56 388/253/56 387/252/56
f 388/253/56 267/186/56 268/187/56
f 268/187/56 389/254/56 388/253/56
f 389/254/56 268/187/56 269/188/56
f 271/190/56 392/257/56 391/256/56
f 392/257/56 271/190/56 272/191/56
f 71/258/56 392/257/56 74/192/56
f 392/257/56 272/191/56 74/192/56
f 391/256/56 270/189/56 271/190/56
f 270/189/56 391/256/56 390/255/56
f 17/250/57 369/249/57 273/184/57
f 17/250/57 273/184/57 15/183/57
f 369/249/57 370/251/57 274/185/57
f 369/249/57 274/185/57 273/184/57
f 370/251/57 275/186/57 274/185/57
f 370/251/57 371/252/57 275/186/57
f 371/252/57 372/253/57 276/187/57
f 371/252/57 276/187/57 275/186/57
f 372/253/57 383/254/57 277/188/57
f 372/253/57 277/188/57 276/187/57
f 383/254/57 278/189/57 277/188/57
f 383/254/57 373/255/57 278/189/57
f 373/255/57 374/256/57 279/190/57
f 373/255/57 279/190/57 278/189/57
f 374/256/57 280/191/57 279/190/57
f 374/256/57 384/257/57 280/191/57
f 384/257/57 84/192/57 280/191/57
f 384/257/57 85/258/57 84/192/57
f 313/184/24 34/250/24 31/183/24
f 313/184/24 337/249/24 34/250/24
f 314/185/24 337/249/24 313/184/24
f 314/185/24 338/251/24 337/249/24
f 339/252/24 314/185/24 315/186/24
f 314/185/24 339/252/24 338/251/24
f 316/187/24 339/252/24 315/186/24
f 316/187/24 340/253/24 339/252/24
f 317/188/24 340/253/24 316/187/24
f 317/188/24 341/254/24 340/253/24
f 318/189/24 341/254/24 317/188/24
f 318/189/24 342/255/24 341/254/24
f 343/256/24 318/189/24 319/190/24
f 318/189/24 343/256/24 342/255/24
f 344/257/24 319/190/24 320/191/24
f 319/190/24 344/257/24 343/256/24
f 68/192/24 344/257/24 320/191/24
f 70/258/24 344/257/24 68/192/24
f 281/185/58 282/186/58 376/251/58
f 377/252/58 376/251/58 282/186/58
f 283/184/58 281/185/58 375/249/58
f 376/251/58 375/249/58 281/185/58
f 375/249/58 25/250/58 283/184/58
f 26/183/58 283/184/58 25/250/58
f 282/186/58 284/187/58 377/252/58
f 378/253/58 377/252/58 284/187/58
f 284/187/58 285/188/58 378/253/58
f 379/254/58 378/253/58 285/188/58
f 285/188/58 286/189/58 379/254/58
f 380/255/58 379/254/58 286/189/58
f 286/189/58 287/190/58 380/255/58
f 382/256/58 380/255/58 287/190/58
f 287/190/58 288/191/58 382/256/58
f 381/257/58 382/256/58 288/191/58
f 288/191/58 93/192/58 381/257/58
f 92/258/58 381/257/58 93/192/58
f 110/259/59 103/260/59 112/261/59
f 103/260/59 110/259/59 104/262/59
f 200/263/3 262/264/3 199/265/3
f 262/264/3 200/263/3 393/266/3
f 202/267/3 261/268/3 394/269/3
f 202/267/3 201/270/3 261/268/3
f 164/271/3 264/272/3 163/273/3
f 264/272/3 164/271/3 395/274/3
f 166/275/3 165/276/3 263/277/3
f 166/275/3 263/277/3 396/278/3
f 99/62/60 98/61/60 259/164/60
f 259/164/60 98/61/60 260/162/60
f 107/75/60 99/74/60 259/161/60
f 107/75/60 259/161/60 253/160/60
f 253/151/60 161/105/60 107/104/60
f 161/105/60 253/151/60 252/150/60
f 98/61/61 257/166/61 260/162/61
f 257/166/61 98/61/61 100/63/61
f 105/69/61 257/156/61 100/70/61
f 257/156/61 105/69/61 255/154/61
f 252/150/61 255/153/61 161/105/61
f 105/109/61 161/105/61 255/153/61
