# Roblox asset pack: egg_oviraptor (props), from the Studio model "Oviraptor". Exported with Export Selection, split by tools/build_creatures.py: one object per rigid body. Units: studs. +Y up, front faces -Z, pivot (bottom centre) at the origin.
mtllib egg_oviraptor.mtl

v -1.47070 4.40990 -1.47000
v 1.47070 4.40990 -1.47000
v -1.47070 2.20990 -1.47000
v 1.47070 2.20990 -1.47000
v 1.47070 4.40990 1.47000
v -1.47070 4.40990 1.47000
v 1.47070 2.20990 1.47000
v -1.47070 2.20990 1.47000
v -1.47070 -0.00010 -1.47000
v 1.47070 -0.00010 -1.47000
v 1.47070 -0.00010 1.47000
v -1.47070 -0.00010 1.47000
vt 3.36768 -5.00000
vt 3.00000 -5.00000
vt 3.36768 -5.27576
vt 3.00000 -5.27576
vt 3.36768 -5.36768
vt 3.00000 -5.36768
vt 0.86768 -5.75000
vt 0.50000 -5.75000
vt 0.86768 -6.02576
vt 0.50000 -6.02576
vt 0.86768 -6.11768
vt 0.50000 -6.11768
vn 0.0000 0.0000 -1.0000
vn 0.0000 1.0000 0.0000
vn 1.0000 0.0000 0.0000
vn 0.0000 0.0000 1.0000
vn 0.0000 -1.0000 0.0000
vn -1.0000 0.0000 0.0000

o egg_oviraptor
usemtl c_d490bd
f 1/1/1 2/2/1 3/3/1
f 3/3/1 2/2/1 4/4/1
f 5/1/2 2/2/2 6/5/2
f 6/5/2 2/2/2 1/6/2
f 2/1/3 5/2/3 4/3/3
f 4/3/3 5/2/3 7/4/3
f 5/1/4 6/2/4 7/3/4
f 7/3/4 6/2/4 8/4/4
f 8/1/5 3/2/5 7/5/5
f 7/5/5 3/2/5 4/6/5
f 6/1/6 1/2/6 8/3/6
f 8/3/6 1/2/6 3/4/6
usemtl c_b480ff
f 3/7/1 4/8/1 9/9/1
f 9/9/1 4/8/1 10/10/1
f 7/7/2 4/8/2 8/11/2
f 8/11/2 4/8/2 3/12/2
f 4/7/3 7/8/3 10/9/3
f 10/9/3 7/8/3 11/10/3
f 7/7/4 8/8/4 11/9/4
f 11/9/4 8/8/4 12/10/4
f 12/7/5 9/8/5 11/11/5
f 11/11/5 9/8/5 10/12/5
f 8/7/6 3/8/6 12/9/6
f 12/9/6 3/8/6 9/10/6
