# Roblox asset pack: animal_bat (creatures), from the Studio model "Bat". Exported with Export Selection, split by tools/build_creatures.py: one object per rigid body. Units: studs. +Y up, front faces -Z, pivot (bottom centre) at the origin.
mtllib animal_bat.mtl

v -0.12960 3.23000 0.28000
v -0.12960 3.23000 0.44000
v 0.02790 3.23000 0.28000
v 0.02790 3.23000 0.44000
v -0.12960 3.23000 -0.28000
v 0.02790 3.23000 -0.28000
v -0.12960 3.23000 -0.44000
v 0.02790 3.23000 -0.44000
v -0.09940 3.14000 0.44000
v 0.00470 3.14000 0.44000
v 0.00470 3.17000 0.38000
v -0.09940 3.17000 0.38000
v -0.09940 3.14000 -0.44000
v 0.00470 3.17000 -0.38000
v 0.00470 3.14000 -0.44000
v -0.09940 3.17000 -0.38000
v -0.01070 0.86000 2.37000
v -0.14110 1.57000 1.96000
v -0.09100 0.86000 2.37000
v 0.03940 1.57000 1.96000
v -0.14110 1.57000 -1.96000
v -0.01070 0.86000 -2.37000
v -0.09100 0.86000 -2.37000
v 0.03940 1.57000 -1.96000
v -0.09190 2.85000 0.63000
v -0.09190 2.78000 0.83000
v -0.00270 2.85000 0.63000
v -0.00270 2.78000 0.83000
v -0.09190 2.78000 -0.83000
v -0.09190 2.85000 -0.63000
v -0.00270 2.85000 -0.63000
v -0.00270 2.78000 -0.83000
v -0.06480 1.51000 1.89000
v -0.06480 0.88000 2.34000
v -0.04020 1.51000 1.89000
v -0.04020 0.88000 2.34000
v -0.06480 0.88000 -2.34000
v -0.06480 1.51000 -1.89000
v -0.04020 1.51000 -1.89000
v -0.04020 0.88000 -2.34000
v -0.09100 0.82000 2.31000
v -0.01070 0.82000 2.31000
v -0.09100 0.82000 -2.31000
v -0.01070 0.82000 -2.31000
v -0.06480 0.73000 1.81000
v -0.06480 0.48000 1.52000
v -0.04020 0.73000 1.81000
v -0.04020 0.48000 1.52000
v -0.06480 0.48000 -1.52000
v -0.06480 0.73000 -1.81000
v -0.04020 0.73000 -1.81000
v -0.04020 0.48000 -1.52000
v 0.02690 1.17000 1.53000
v -0.16140 1.64000 1.52000
v -0.12860 1.17000 1.53000
v 0.05970 1.64000 1.52000
v -0.16140 1.64000 -1.52000
v 0.02690 1.17000 -1.53000
v -0.12860 1.17000 -1.53000
v 0.05970 1.64000 -1.52000
v -0.08190 0.41000 1.34000
v -0.01980 0.41000 1.34000
v -0.08190 0.41000 -1.34000
v -0.01980 0.41000 -1.34000
v 0.07250 2.01000 1.40000
v -0.17420 2.01000 1.40000
v 0.07250 2.01000 -1.40000
v -0.17420 2.01000 -1.40000
v -0.04020 0.68000 1.96000
v -0.06480 0.68000 1.96000
v -0.06480 0.68000 -1.96000
v -0.04020 0.68000 -1.96000
v -0.00270 3.08000 0.48000
v -0.09190 3.08000 0.48000
v -0.00270 3.08000 -0.48000
v -0.09190 3.08000 -0.48000
v 0.00470 2.33000 0.95000
v -0.09190 2.38000 0.91000
v -0.09940 2.33000 0.95000
v -0.00270 2.38000 0.91000
v -0.09190 2.38000 -0.91000
v 0.00470 2.33000 -0.95000
v -0.09940 2.33000 -0.95000
v -0.00270 2.38000 -0.91000
v -0.17880 0.01000 0.09000
v 0.07710 0.01000 0.35000
v -0.17880 0.01000 0.35000
v 0.07710 0.01000 0.09000
v -0.17880 0.01000 -0.09000
v -0.17880 0.01000 -0.35000
v 0.07710 0.01000 -0.35000
v 0.07710 0.01000 -0.09000
v -0.29300 0.02000 0.29000
v -0.00430 0.03000 0.36000
v -0.29300 0.02000 0.39000
v -0.00430 0.02000 0.29000
v -0.29300 0.02000 -0.29000
v -0.00430 0.03000 -0.36000
v -0.00430 0.02000 -0.29000
v -0.29300 0.02000 -0.39000
v -0.29300 0.02000 0.17000
v -0.00430 0.02000 0.27000
v -0.29300 0.02000 0.27000
v -0.00430 0.02000 0.17000
v -0.29300 0.02000 -0.17000
v -0.00430 0.02000 -0.27000
v -0.00430 0.02000 -0.17000
v -0.29300 0.02000 -0.27000
v -0.00430 0.03000 0.08000
v -0.29300 0.02000 0.15000
v -0.29300 0.02000 0.05000
v -0.00430 0.02000 0.15000
v -0.29300 0.02000 -0.15000
v -0.00430 0.03000 -0.08000
v -0.29300 0.02000 -0.05000
v -0.00430 0.02000 -0.15000
v -0.11710 0.05000 0.15000
v 0.01540 0.05000 0.29000
v -0.11710 0.05000 0.29000
v 0.01540 0.05000 0.15000
v -0.52150 2.46000 0.63000
v 0.41980 2.46000 0.63000
v 0.41980 2.46000 -0.63000
v -0.52150 2.46000 -0.63000
v -0.11710 0.05000 -0.15000
v 0.01540 0.05000 -0.29000
v 0.01540 0.05000 -0.15000
v -0.11710 0.05000 -0.29000
v -0.09940 2.27000 0.96000
v 0.00470 2.27000 0.96000
v -0.09940 2.27000 -0.96000
v 0.00470 2.27000 -0.96000
v -0.40630 0.00000 0.30000
v -0.21580 0.05000 0.37000
v -0.40630 0.00000 0.37000
v -0.21580 0.05000 0.30000
v -0.40630 0.00000 0.18000
v -0.21580 0.05000 0.25000
v -0.40630 0.00000 0.25000
v -0.21580 0.05000 0.18000
v -0.40630 0.00000 0.07000
v -0.21580 0.05000 0.14000
v -0.40630 0.00000 0.14000
v -0.21580 0.05000 0.07000
v -0.40630 0.00000 -0.14000
v -0.21580 0.05000 -0.14000
v -0.40630 0.00000 -0.07000
v -0.21580 0.05000 -0.07000
v -0.40630 0.00000 -0.25000
v -0.21580 0.05000 -0.25000
v -0.40630 0.00000 -0.18000
v -0.21580 0.05000 -0.18000
v -0.40630 0.00000 -0.37000
v -0.21580 0.05000 -0.37000
v -0.40630 0.00000 -0.30000
v -0.21580 0.05000 -0.30000
v -0.45580 2.41000 0.51000
v -0.45580 2.41000 0.09000
v -0.58260 2.41000 0.51000
v -0.58260 2.41000 0.09000
v -0.58260 2.41000 -0.51000
v -0.58260 2.41000 -0.09000
v -0.45580 2.41000 -0.09000
v -0.45580 2.41000 -0.51000
v -0.04020 1.80000 1.32000
v -0.06480 1.80000 1.32000
v -0.04020 1.80000 -1.32000
v -0.06480 1.80000 -1.32000
v -0.52340 2.32000 0.43000
v -0.52340 2.32000 0.15000
v -0.60910 2.32000 0.43000
v -0.60910 2.32000 0.15000
v -0.60910 2.32000 -0.43000
v -0.60910 2.32000 -0.15000
v -0.52340 2.32000 -0.15000
v -0.52340 2.32000 -0.43000
v -0.06480 0.83000 0.91000
v -0.06480 0.65000 0.77000
v -0.04020 0.83000 0.91000
v -0.04020 0.65000 0.77000
v -0.06480 0.65000 -0.77000
v -0.04020 0.83000 -0.91000
v -0.04020 0.65000 -0.77000
v -0.06480 0.83000 -0.91000
v -0.17880 0.28000 0.09000
v 0.07710 0.28000 0.35000
v -0.17880 0.28000 0.35000
v 0.07710 0.28000 0.09000
v -0.17880 0.28000 -0.09000
v -0.17880 0.28000 -0.35000
v 0.07710 0.28000 -0.35000
v 0.07710 0.28000 -0.09000
v -0.27060 0.42000 0.43000
v 0.54260 0.42000 -0.43000
v 0.54260 0.42000 0.43000
v -0.27060 0.42000 -0.43000
v 0.60910 1.58000 -0.50000
v 0.60910 1.58000 0.50000
v -0.58410 1.97000 0.21000
v -0.27480 1.97000 0.21000
v -0.27480 1.97000 -0.21000
v -0.58410 1.97000 -0.21000
v -0.59260 1.90000 0.05000
v -0.59260 1.90000 0.13000
v -0.53230 1.90000 0.05000
v -0.53230 1.90000 0.13000
v -0.59260 1.90000 -0.05000
v -0.53230 1.90000 -0.05000
v -0.59260 1.90000 -0.13000
v -0.53230 1.90000 -0.13000
v 0.07120 2.80000 0.48000
v -0.17290 2.80000 0.48000
v 0.07120 2.80000 -0.48000
v -0.17290 2.80000 -0.48000
v -0.52150 1.52000 0.63000
v 0.41980 1.52000 0.63000
v -0.52150 1.52000 -0.63000
v 0.41980 1.52000 -0.63000
v 0.44600 0.80000 0.38000
v 0.44600 1.56000 0.00000
v 0.44600 1.56000 0.38000
v 0.44600 0.64000 0.00000
v 0.44600 0.80000 -0.38000
v 0.44600 1.56000 -0.38000
v -0.08190 0.42000 1.28000
v -0.01980 0.42000 1.28000
v -0.08190 0.42000 -1.28000
v -0.01980 0.42000 -1.28000
v -0.40820 0.80000 0.38000
v -0.40820 0.64000 0.00000
v -0.40820 0.80000 -0.38000
v -0.42350 0.06000 0.30000
v -0.42350 0.06000 0.37000
v -0.42350 0.06000 0.18000
v -0.42350 0.06000 0.25000
v -0.42350 0.06000 0.07000
v -0.42350 0.06000 0.14000
v -0.42350 0.06000 -0.07000
v -0.42350 0.06000 -0.14000
v -0.42350 0.06000 -0.18000
v -0.42350 0.06000 -0.25000
v -0.42350 0.06000 -0.30000
v -0.42350 0.06000 -0.37000
v -0.06480 0.56000 0.97000
v -0.04020 0.56000 0.97000
v -0.06480 0.56000 -0.97000
v -0.04020 0.56000 -0.97000
v -0.53530 1.79000 0.46000
v -0.47140 1.79000 0.35000
v -0.53530 1.79000 0.35000
v -0.47140 1.79000 0.46000
v -0.53530 1.79000 -0.46000
v -0.53530 1.79000 -0.35000
v -0.47140 1.79000 -0.35000
v -0.47140 1.79000 -0.46000
v -0.58260 2.02000 0.51000
v -0.45580 2.02000 0.51000
v -0.45580 2.02000 -0.51000
v -0.58260 2.02000 -0.51000
v -0.17960 2.46000 0.49000
v 0.07790 2.46000 0.49000
v 0.07790 2.46000 -0.49000
v -0.17960 2.46000 -0.49000
v -0.33710 1.58000 0.50000
v -0.33710 1.58000 -0.50000
v -0.53530 1.73000 0.46000
v -0.47140 1.73000 0.46000
v -0.47140 1.73000 -0.46000
v -0.53530 1.73000 -0.46000
v -0.57770 1.72000 0.00000
v -0.57770 1.72000 0.22000
v -0.51370 1.72000 0.00000
v -0.51370 1.72000 0.22000
v -0.57770 1.72000 -0.22000
v -0.51370 1.72000 -0.22000
v -0.53850 1.71000 0.32000
v -0.48910 1.71000 0.32000
v -0.48910 1.71000 0.26000
v -0.53850 1.71000 0.26000
v -0.48910 1.71000 -0.26000
v -0.53850 1.71000 -0.32000
v -0.53850 1.71000 -0.26000
v -0.48910 1.71000 -0.32000
v -0.53530 1.73000 0.35000
v -0.57770 1.65000 0.22000
v -0.53530 1.73000 -0.35000
v -0.57770 1.65000 -0.22000
v -0.60910 2.06000 0.15000
v -0.60910 2.06000 0.43000
v -0.60910 2.06000 -0.15000
v -0.60910 2.06000 -0.43000
v -0.52340 2.06000 0.43000
v -0.52340 2.06000 -0.43000
v -0.59260 1.81000 0.13000
v -0.59260 1.81000 0.05000
v -0.59260 1.81000 -0.13000
v -0.59260 1.81000 -0.05000
v -0.58410 1.74000 0.21000
v -0.58410 1.74000 -0.21000
v -0.58260 2.02000 0.09000
v -0.58260 2.02000 -0.09000
v -0.57770 1.65000 0.00000
v 0.07120 2.80000 0.24000
v 0.07120 2.80000 -0.24000
v -0.40820 1.56000 0.38000
v 0.00470 2.24000 0.59000
v -0.00270 2.30000 0.60000
v -0.40820 1.56000 -0.38000
v 0.00470 2.24000 -0.59000
v -0.00270 2.30000 -0.60000
v -0.29300 0.12000 0.39000
v -0.00430 0.11000 0.36000
v -0.29300 0.12000 -0.39000
v -0.00430 0.11000 -0.36000
v -0.23300 0.11000 0.37000
v 0.10760 1.39000 0.91000
v -0.17330 1.64000 1.30000
v -0.20930 1.39000 0.91000
v 0.07160 1.64000 1.30000
v -0.23300 0.11000 -0.37000
v -0.17330 1.64000 -1.30000
v 0.10760 1.39000 -0.91000
v -0.20930 1.39000 -0.91000
v 0.07160 1.64000 -1.30000
v -0.53850 1.63000 0.32000
v -0.53850 1.55000 0.26000
v -0.53850 1.63000 -0.32000
v -0.53850 1.55000 -0.26000
v -0.17880 0.14000 0.35000
v 0.07710 0.14000 0.35000
v -0.17880 0.54000 0.35000
v 0.07710 0.54000 0.35000
v -0.17880 0.14000 -0.35000
v 0.07710 0.14000 -0.35000
v -0.17880 0.54000 -0.35000
v 0.07710 0.54000 -0.35000
v -0.48910 1.63000 0.32000
v -0.48910 1.63000 -0.32000
v -0.40820 1.56000 0.00000
v 0.02690 1.18000 1.37000
v 0.10760 1.68000 0.78000
v 0.03940 1.45000 1.83000
v 0.12380 1.26000 0.48000
v 0.12380 1.60000 0.40000
v 0.02690 1.18000 -1.37000
v 0.10760 1.68000 -0.78000
v 0.03940 1.45000 -1.83000
v 0.12380 1.26000 -0.48000
v 0.12380 1.60000 -0.40000
v -0.11710 0.34000 0.29000
v 0.01540 0.34000 0.29000
v -0.11710 0.34000 -0.29000
v 0.01540 0.34000 -0.29000
v 0.07790 2.46000 0.23000
v 0.07790 2.46000 -0.23000
v -0.29300 0.12000 0.27000
v -0.00430 0.12000 0.27000
v -0.29300 0.12000 -0.27000
v -0.00430 0.12000 -0.27000
v -0.23300 0.11000 0.25000
v -0.23300 0.11000 -0.25000
v 0.07710 0.14000 0.09000
v 0.07710 0.54000 0.09000
v -0.22550 1.60000 0.40000
v -0.20930 1.68000 0.78000
v 0.07710 0.14000 -0.09000
v 0.07710 0.54000 -0.09000
v -0.22550 1.60000 -0.40000
v -0.20930 1.68000 -0.78000
v -0.27480 1.74000 0.21000
v -0.27480 1.74000 -0.21000
v 0.01540 0.34000 0.15000
v 0.01540 0.34000 -0.15000
v 0.00470 2.17000 0.54000
v 0.00470 2.17000 -0.54000
v -0.00430 0.12000 0.29000
v -0.00430 0.12000 0.17000
v -0.00430 0.11000 0.08000
v -0.00430 0.12000 0.15000
v -0.00430 0.11000 -0.08000
v -0.00430 0.12000 -0.15000
v -0.00430 0.12000 -0.17000
v -0.00430 0.12000 -0.29000
v -0.29300 0.12000 0.15000
v -0.29300 0.12000 -0.15000
v -0.17290 2.80000 0.24000
v -0.17290 2.80000 -0.24000
v -0.09940 2.24000 0.59000
v -0.09190 2.30000 0.60000
v -0.09940 2.24000 -0.59000
v -0.09190 2.30000 -0.60000
v -0.22550 1.26000 0.48000
v -0.22550 1.26000 -0.48000
v -0.23300 0.11000 0.14000
v -0.23300 0.11000 -0.14000
v -0.04020 1.57000 1.02000
v -0.04020 1.34000 0.36000
v -0.04020 1.18000 0.29000
v -0.04020 1.18000 -0.29000
v -0.04020 1.34000 -0.36000
v -0.04020 1.57000 -1.02000
v -0.53230 1.81000 0.13000
v -0.53230 1.81000 -0.13000
v -0.29300 0.12000 0.29000
v -0.29300 0.12000 0.17000
v -0.29300 0.12000 0.05000
v -0.29300 0.12000 -0.05000
v -0.29300 0.12000 -0.17000
v -0.29300 0.12000 -0.29000
v -0.12860 1.18000 1.37000
v -0.14110 1.45000 1.83000
v -0.14110 1.45000 -1.83000
v -0.12860 1.18000 -1.37000
v -0.17960 2.46000 0.23000
v -0.17960 2.46000 -0.23000
v -0.48910 1.55000 0.26000
v -0.48910 1.55000 -0.26000
v -0.17880 0.14000 0.09000
v -0.17880 0.54000 0.09000
v -0.17880 0.14000 -0.09000
v -0.17880 0.54000 -0.09000
v -0.51370 1.65000 0.00000
v -0.06480 1.57000 1.02000
v -0.06480 1.34000 0.36000
v -0.06480 1.57000 -1.02000
v -0.06480 1.34000 -0.36000
v -0.53230 1.81000 0.05000
v -0.53230 1.81000 -0.05000
v -0.11710 0.34000 0.15000
v -0.11710 0.34000 -0.15000
v -0.23300 0.11000 0.07000
v -0.23300 0.11000 -0.07000
v -0.09940 2.17000 0.54000
v -0.09940 2.17000 -0.54000
v -0.45580 2.02000 0.09000
v -0.45580 2.02000 -0.09000
v -0.06480 1.18000 0.29000
v -0.06480 1.18000 -0.29000
v -0.52340 2.06000 0.15000
v -0.52340 2.06000 -0.15000
v -0.23300 0.11000 0.18000
v -0.23300 0.11000 -0.18000
v -0.51370 1.65000 0.22000
v -0.47140 1.73000 0.35000
v -0.51370 1.65000 -0.22000
v -0.47140 1.73000 -0.35000
v -0.23300 0.11000 0.30000
v -0.23300 0.11000 -0.30000
vt 0.49289 0.16420
vt 0.51908 0.16420
vt 0.49289 0.19040
vt 0.51908 0.19040
vt 1.49289 0.16420
vt 1.49289 0.19040
vt 1.51908 0.16420
vt 1.51908 0.19040
vt 0.32735 0.27769
vt 0.32735 0.29500
vt 0.31610 0.29500
vt 0.31610 0.27769
vt 1.32735 0.27769
vt 1.31610 0.29500
vt 1.32735 0.29500
vt 1.31610 0.27769
vt 0.02528 0.88140
vt 0.04698 0.74398
vt 0.03863 0.88140
vt 0.01695 0.74397
vt 1.04698 0.74398
vt 1.02528 0.88140
vt 1.03863 0.88140
vt 1.01695 0.74397
vt 0.07333 0.73582
vt 0.07333 0.77184
vt 0.05850 0.73582
vt 0.05849 0.77183
vt 1.07333 0.77184
vt 1.07333 0.73582
vt 1.05850 0.73582
vt 1.05849 0.77183
vt 0.98696 0.28950
vt 0.98694 0.41844
vt 0.98286 0.28950
vt 0.98285 0.41844
vt 1.98694 0.41844
vt 1.98695 0.28950
vt 1.98286 0.28950
vt 1.98285 0.41844
vt 0.93715 0.67638
vt 0.92380 0.66304
vt 0.93714 0.66303
vt 0.92380 0.67638
vt 1.93715 0.67638
vt 1.93714 0.66303
vt 1.92380 0.66304
vt 1.92380 0.67638
vt 0.99706 0.10114
vt 0.99706 0.16456
vt 0.99297 0.10114
vt 0.99296 0.16456
vt 1.99705 0.16456
vt 1.99706 0.10114
vt 1.99297 0.10114
vt 1.99296 0.16456
vt 0.93781 0.53358
vt 0.96913 0.45504
vt 0.96368 0.53358
vt 0.93234 0.45505
vt 1.96913 0.45504
vt 1.93781 0.53358
vt 1.96369 0.53358
vt 1.93234 0.45505
vt 0.95594 0.66341
vt 0.94560 0.66341
vt 1.95594 0.66341
vt 1.94560 0.66341
vt 0.01145 0.62638
vt 0.05249 0.62638
vt 1.01145 0.62638
vt 1.05249 0.62638
vt 0.99297 0.07376
vt 0.99298 0.00294
vt 0.99706 0.07376
vt 0.99707 0.00294
vt 1.99706 0.07376
vt 1.99298 0.00294
vt 1.99297 0.07376
vt 1.99707 0.00294
vt 0.05850 0.69086
vt 0.07334 0.69086
vt 1.05850 0.69086
vt 1.07334 0.69086
vt 0.10395 0.25390
vt 0.12002 0.24355
vt 0.12126 0.25390
vt 0.10519 0.24356
vt 1.12002 0.24355
vt 1.10395 0.25390
vt 1.12126 0.25390
vt 1.10519 0.24356
vt 0.15689 0.05902
vt 0.14436 0.07509
vt 0.14436 0.05778
vt 0.15689 0.07385
vt 1.15689 0.05902
vt 1.14436 0.05778
vt 1.14436 0.07509
vt 1.15689 0.07385
vt 0.04550 0.42707
vt 0.00293 0.38451
vt 0.04550 0.38451
vt 0.00293 0.42707
vt 1.04550 0.42707
vt 1.04550 0.38451
vt 1.00293 0.38451
vt 1.00293 0.42707
vt 0.39370 0.83732
vt 0.38133 0.88533
vt 0.37671 0.83728
vt 0.39366 0.88534
vt 1.39370 0.83732
vt 1.38133 0.88533
vt 1.39366 0.88534
vt 1.37671 0.83728
vt 0.78264 0.89161
vt 0.76565 0.93964
vt 0.76565 0.89161
vt 0.78264 0.93964
vt 1.78264 0.89161
vt 1.76565 0.93964
vt 1.78264 0.93964
vt 1.76565 0.89161
vt 1.58101 0.89607
vt 1.56866 0.84805
vt 1.58564 0.84802
vt 1.56868 0.89608
vt 0.19669 0.11033
vt 0.17467 0.13235
vt 0.17467 0.11033
vt 0.19669 0.13235
vt 0.72524 0.21100
vt 0.56866 0.21100
vt 0.56866 0.00294
vt 0.72524 0.00294
vt 1.19669 0.11033
vt 1.17467 0.13235
vt 1.19669 0.13235
vt 1.17467 0.11033
vt 0.12127 0.26368
vt 0.10396 0.26369
vt 1.12127 0.26368
vt 1.10396 0.26369
vt 0.35297 0.59383
vt 0.34136 0.62668
vt 0.34136 0.59383
vt 0.35297 0.62668
vt 0.36308 0.19992
vt 0.35146 0.23276
vt 0.35146 0.19992
vt 0.36308 0.23276
vt 1.16103 0.24705
vt 1.14941 0.27990
vt 1.14941 0.24705
vt 1.16103 0.27990
vt 1.35146 0.19992
vt 1.35146 0.23276
vt 1.36307 0.19992
vt 1.36307 0.23276
vt 1.34136 0.59383
vt 1.34136 0.62668
vt 1.35297 0.59383
vt 1.35297 0.62668
vt 0.95254 0.14581
vt 0.95254 0.07627
vt 0.97364 0.14581
vt 0.97364 0.07627
vt 1.97364 0.14581
vt 1.97364 0.07627
vt 1.95254 0.07627
vt 1.95254 0.14581
vt 0.99264 0.45504
vt 0.99264 0.52367
vt 0.97780 0.45504
vt 0.97780 0.52367
vt 1.97780 0.45504
vt 1.99264 0.52367
vt 1.99264 0.45504
vt 1.97780 0.52367
vt 0.98287 0.18260
vt 0.98696 0.18260
vt 1.98287 0.18260
vt 1.98696 0.18260
vt 0.11406 0.17186
vt 0.11406 0.12487
vt 0.12831 0.17186
vt 0.12831 0.12487
vt 1.12831 0.17186
vt 1.12831 0.12487
vt 1.11405 0.12487
vt 1.11405 0.17186
vt 0.21917 0.05969
vt 0.21917 0.09610
vt 0.21508 0.05969
vt 0.21508 0.09610
vt 1.21917 0.09610
vt 1.21508 0.05969
vt 1.21508 0.09610
vt 1.21917 0.05969
vt 0.82337 0.20588
vt 0.78081 0.16332
vt 0.82337 0.16331
vt 0.78081 0.20588
vt 1.82337 0.20588
vt 1.82337 0.16331
vt 1.78081 0.16332
vt 1.78081 0.20588
vt 0.86557 0.74368
vt 0.73030 0.88783
vt 0.73030 0.74368
vt 0.86557 0.88783
vt 0.25212 0.64030
vt 0.40804 0.83349
vt 0.24033 0.83349
vt 0.39626 0.64030
vt 0.33725 0.57680
vt 0.28579 0.57680
vt 0.28579 0.50844
vt 0.33725 0.50844
vt 0.56353 0.06927
vt 0.56353 0.08260
vt 0.55350 0.06927
vt 0.55350 0.08260
vt 1.56353 0.06927
vt 1.55350 0.06927
vt 1.56353 0.08260
vt 1.55350 0.08260
vt 0.63543 0.28730
vt 0.66881 0.21479
vt 0.67603 0.28730
vt 0.64262 0.21479
vt 1.66881 0.21479
vt 1.63543 0.28730
vt 1.67603 0.28730
vt 1.64262 0.21479
vt 0.88688 0.58331
vt 0.88688 0.73989
vt 0.73030 0.73989
vt 0.73030 0.58331
vt 0.73030 0.15953
vt 0.88688 0.00294
vt 0.88688 0.15953
vt 0.73030 0.00294
vt 0.59391 0.82905
vt 0.65757 0.95408
vt 0.59391 0.95408
vt 0.65757 0.80166
vt 0.72123 0.82905
vt 0.72123 0.95408
vt 0.56866 0.79788
vt 0.56866 0.58982
vt 0.72524 0.79788
vt 0.72524 0.58982
vt 0.33149 0.25516
vt 0.32115 0.26550
vt 0.32115 0.25516
vt 0.33149 0.26550
vt 1.33149 0.25516
vt 1.32115 0.25516
vt 1.32115 0.26550
vt 1.33149 0.26550
vt 0.49147 0.78239
vt 0.42220 0.64030
vt 0.49149 0.64031
vt 0.42218 0.78238
vt 0.56077 0.78240
vt 0.56079 0.64032
vt 0.55426 0.36664
vt 0.54340 0.35502
vt 0.55425 0.35502
vt 0.54340 0.36664
vt 0.38252 0.22618
vt 0.37166 0.21456
vt 0.38251 0.21456
vt 0.37166 0.22618
vt 1.19057 0.14776
vt 1.17972 0.13614
vt 1.19057 0.13614
vt 1.17972 0.14776
vt 1.38252 0.22618
vt 1.37166 0.21456
vt 1.37167 0.22618
vt 1.38251 0.21456
vt 1.55425 0.36664
vt 1.54340 0.35502
vt 1.54340 0.36664
vt 1.55425 0.35502
vt 0.99705 0.25811
vt 0.99295 0.25811
vt 1.99705 0.25811
vt 1.99295 0.25811
vt 0.96028 0.74781
vt 0.94749 0.72976
vt 0.95806 0.72855
vt 0.94972 0.74902
vt 0.98000 0.62797
vt 0.97830 0.64728
vt 0.96770 0.64635
vt 0.96941 0.62703
vt 0.91302 0.09460
vt 0.91302 0.15830
vt 0.89193 0.15830
vt 0.89193 0.09460
vt 1.91303 0.09460
vt 1.89193 0.15830
vt 1.91303 0.15830
vt 1.89193 0.09460
vt 0.67715 0.34405
vt 0.63432 0.34406
vt 1.63432 0.34406
vt 1.67715 0.34405
vt 0.83115 0.40803
vt 0.68483 0.21479
vt 0.84222 0.21480
vt 0.69588 0.40802
vt 0.22504 0.68873
vt 0.23608 0.88196
vt 0.08976 0.68872
vt 0.07870 0.88195
vt 0.07365 0.38304
vt 0.08428 0.38304
vt 0.08428 0.39367
vt 0.07365 0.39367
vt 0.09439 0.24136
vt 0.08375 0.25200
vt 0.08375 0.24136
vt 0.09439 0.25200
vt 0.95808 0.66719
vt 0.96233 0.70408
vt 0.94751 0.66841
vt 0.95176 0.70530
vt 0.98321 0.67162
vt 0.97994 0.70862
vt 0.96934 0.70768
vt 0.97262 0.67068
vt 0.56171 0.09704
vt 0.55350 0.09704
vt 0.55350 0.08639
vt 0.56171 0.08639
vt 1.55350 0.08639
vt 1.56171 0.09704
vt 1.56171 0.08639
vt 1.55350 0.09704
vt 0.07522 0.17463
vt 0.05155 0.16712
vt 0.07307 0.16421
vt 0.04940 0.15670
vt 0.97521 0.60242
vt 0.96770 0.57875
vt 0.97812 0.58090
vt 0.98562 0.60457
vt 0.20761 0.05954
vt 0.16457 0.10654
vt 0.16457 0.05954
vt 0.20761 0.10654
vt 1.20761 0.05954
vt 1.16457 0.10654
vt 1.20761 0.10654
vt 1.16457 0.05954
vt 0.07780 0.03476
vt 0.07780 0.07780
vt 0.06354 0.07780
vt 0.06354 0.03476
vt 1.07780 0.03476
vt 1.06354 0.07780
vt 1.07780 0.07780
vt 1.06354 0.03476
vt 0.21003 0.24033
vt 0.22335 0.22551
vt 0.22335 0.24033
vt 0.21003 0.22551
vt 1.21003 0.24033
vt 1.22335 0.22551
vt 1.21003 0.22551
vt 1.22335 0.24033
vt 0.10650 0.15634
vt 0.06859 0.08797
vt 0.10650 0.08797
vt 0.06859 0.15634
vt 0.11714 0.37925
vt 0.05344 0.30971
vt 0.11714 0.30971
vt 0.05344 0.37925
vt 1.11714 0.37925
vt 1.05344 0.30971
vt 1.05344 0.37925
vt 1.11714 0.30971
vt 0.01518 0.17462
vt 0.01303 0.16420
vt 0.98563 0.54454
vt 0.97521 0.54238
vt 0.51946 0.08790
vt 0.48608 0.16042
vt 0.47886 0.08791
vt 0.51227 0.16041
vt 1.48608 0.16042
vt 1.51946 0.08790
vt 1.47886 0.08791
vt 1.51227 0.16041
vt 0.37042 0.83728
vt 0.24538 0.97935
vt 0.24538 0.83728
vt 0.37042 0.97935
vt 0.53501 0.01351
vt 0.53060 0.15409
vt 0.53074 0.02346
vt 0.53486 0.16593
vt 0.85152 0.30918
vt 0.97656 0.30918
vt 0.85152 0.45126
vt 0.97656 0.45126
vt 1.53060 0.15409
vt 1.53501 0.01351
vt 1.53074 0.02346
vt 1.53486 0.16593
vt 0.58452 0.89986
vt 0.58319 0.94812
vt 0.56866 0.89987
vt 0.57000 0.94812
vt 1.56866 0.89987
vt 1.58319 0.94812
vt 1.58452 0.89986
vt 1.57000 0.94812
vt 0.56109 0.18611
vt 0.52825 0.17526
vt 0.56109 0.17526
vt 0.52825 0.18611
vt 0.00561 0.07953
vt 0.05234 0.00294
vt 0.05834 0.07953
vt 0.01161 0.00294
vt 1.52825 0.17526
vt 1.56109 0.18611
vt 1.56109 0.17526
vt 1.52825 0.18611
vt 1.05234 0.00294
vt 1.00561 0.07953
vt 1.05834 0.07953
vt 1.01161 0.00294
vt 0.62422 0.36885
vt 0.63487 0.35499
vt 0.63487 0.36885
vt 0.62422 0.34130
vt 1.62422 0.36885
vt 1.63487 0.35499
vt 1.62422 0.34130
vt 1.63487 0.36885
vt 0.09206 0.16030
vt 0.09421 0.17072
vt 0.97128 0.62141
vt 0.98170 0.62356
vt 0.57514 0.80167
vt 0.57514 0.84423
vt 0.55350 0.80167
vt 0.55350 0.84423
vt 0.85873 0.89161
vt 0.85873 0.93418
vt 0.81616 0.93418
vt 0.81616 0.89161
vt 0.52320 0.42846
vt 0.36661 0.63651
vt 0.36661 0.42846
vt 0.52320 0.63651
vt 1.55350 0.80167
vt 1.57514 0.84423
vt 1.57514 0.80167
vt 1.55350 0.84423
vt 1.85873 0.89161
vt 1.81616 0.93418
vt 1.85873 0.93418
vt 1.81616 0.89161
vt 0.84727 0.41182
vt 0.84727 0.57952
vt 0.68988 0.57952
vt 0.68989 0.41182
vt 0.56171 0.00294
vt 0.56171 0.01680
vt 0.55350 0.01680
vt 0.55350 0.00294
vt 1.56171 0.00294
vt 1.55351 0.01680
vt 1.56171 0.01680
vt 1.55350 0.00294
vt 0.97379 0.16331
vt 0.97379 0.30539
vt 0.91013 0.16331
vt 0.91013 0.30539
vt 0.84647 0.16331
vt 0.84647 0.30539
vt 0.16913 0.30757
vt 0.05347 0.25361
vt 0.05912 0.24495
vt 0.15804 0.33095
vt 0.23121 0.35997
vt 0.24522 0.32562
vt 0.29571 0.36597
vt 0.19246 0.42254
vt 0.28564 0.25006
vt 0.18149 0.39458
vt 0.05595 0.44039
vt 0.05344 0.42728
vt 0.23292 0.24980
vt 0.24065 0.17676
vt 0.29813 0.18519
vt 1.05347 0.25361
vt 1.16913 0.30757
vt 1.05912 0.24495
vt 1.15804 0.33095
vt 1.23121 0.35997
vt 1.24522 0.32562
vt 1.29571 0.36597
vt 1.19246 0.42254
vt 1.28564 0.25006
vt 1.18149 0.39458
vt 1.05595 0.44039
vt 1.05344 0.42728
vt 1.23292 0.24980
vt 1.24065 0.17676
vt 1.29813 0.18519
vt 0.09062 0.44318
vt 0.09062 0.49094
vt 0.06859 0.49094
vt 0.06859 0.44318
vt 1.09062 0.44318
vt 1.06859 0.49094
vt 1.09062 0.49094
vt 1.06859 0.44318
vt 0.47781 0.02737
vt 0.47317 0.01805
vt 1.47317 0.01805
vt 1.47781 0.02737
vt 0.47774 0.03116
vt 0.52057 0.03115
vt 1.52057 0.03115
vt 1.47774 0.03116
vt 0.05921 0.90369
vt 0.05921 0.95172
vt 0.04334 0.90369
vt 0.04334 0.95172
vt 1.04334 0.90369
vt 1.05921 0.95172
vt 1.05921 0.90369
vt 1.04334 0.95172
vt 0.40451 0.21077
vt 0.37166 0.19992
vt 0.40451 0.19992
vt 0.37166 0.21077
vt 1.37166 0.19992
vt 1.40451 0.21077
vt 1.40451 0.19992
vt 1.37166 0.21077
vt 0.53835 0.63239
vt 0.53835 0.58982
vt 0.55999 0.63239
vt 0.55999 0.58982
vt 0.86668 0.93418
vt 0.86668 0.89161
vt 0.90924 0.93418
vt 0.90924 0.89161
vt 0.06102 0.44417
vt 0.05834 0.51018
vt 0.00293 0.44417
vt 0.00561 0.51018
vt 1.53835 0.58982
vt 1.55999 0.63239
vt 1.55999 0.58982
vt 1.53835 0.63239
vt 1.86668 0.89161
vt 1.90924 0.93418
vt 1.90924 0.89161
vt 1.86668 0.93418
vt 1.06102 0.44417
vt 1.00293 0.44417
vt 1.05834 0.51018
vt 1.00561 0.51018
vt 0.48078 0.93859
vt 0.54444 0.81356
vt 0.54444 0.93859
vt 0.48078 0.78617
vt 0.41712 0.81356
vt 0.41712 0.93859
vt 0.30600 0.19992
vt 0.34390 0.19992
vt 0.34390 0.25137
vt 0.30600 0.25137
vt 0.16962 0.24900
vt 0.20752 0.30045
vt 0.16962 0.30045
vt 0.20752 0.24900
vt 0.87173 0.84299
vt 0.87173 0.79523
vt 0.89375 0.79523
vt 0.89375 0.84299
vt 1.89375 0.79523
vt 1.87173 0.84299
vt 1.89375 0.84299
vt 1.87173 0.79523
vt 0.47269 0.00829
vt 0.54482 0.00294
vt 0.54463 0.17148
vt 1.54463 0.17148
vt 1.54482 0.00294
vt 1.47269 0.00829
vt 0.07365 0.28862
vt 0.08590 0.28729
vt 0.07365 0.30182
vt 0.08590 0.30315
vt 0.66463 0.36482
vt 0.66463 0.34784
vt 0.68050 0.36482
vt 0.68050 0.34784
vt 0.65668 0.36237
vt 0.64442 0.34784
vt 0.65668 0.34918
vt 0.64442 0.36370
vt 0.94488 0.00294
vt 0.89416 0.07593
vt 0.89193 0.00734
vt 0.92599 0.09277
vt 0.94487 0.13357
vt 1.64443 0.34784
vt 1.65668 0.36237
vt 1.65668 0.34918
vt 1.64443 0.36370
vt 1.66463 0.34784
vt 1.68050 0.36482
vt 1.68050 0.34784
vt 1.66463 0.36482
vt 1.07365 0.30182
vt 1.08590 0.28729
vt 1.07365 0.28862
vt 1.08590 0.30315
vt 1.94488 0.00294
vt 1.89416 0.07593
vt 1.92599 0.09277
vt 1.89193 0.00734
vt 1.94487 0.13357
vt 0.08446 0.90367
vt 0.08446 0.95170
vt 0.06859 0.90367
vt 0.06859 0.95170
vt 1.06859 0.90367
vt 1.08446 0.95170
vt 1.08446 0.90367
vt 1.06859 0.95170
vt 0.03744 0.38072
vt 0.00404 0.30821
vt 0.04464 0.30821
vt 0.01124 0.38072
vt 1.00404 0.30821
vt 1.03744 0.38072
vt 1.04464 0.30821
vt 1.01125 0.38072
vt 0.47370 0.19613
vt 0.31778 0.00294
vt 0.46193 0.00295
vt 0.30600 0.19613
vt 0.02032 0.89992
vt 0.16089 0.89555
vt 0.15094 0.89982
vt 0.00847 0.89566
vt 1.16089 0.89555
vt 1.02032 0.89992
vt 1.15094 0.89982
vt 1.00847 0.89566
vt 0.06102 0.15292
vt 0.00293 0.15292
vt 1.06102 0.15292
vt 1.00293 0.15292
vt 0.56109 0.20075
vt 0.52825 0.18990
vt 0.56109 0.18990
vt 0.52825 0.20075
vt 1.52825 0.18990
vt 1.56109 0.20075
vt 1.56109 0.18990
vt 1.52825 0.20075
vt 0.17081 0.47169
vt 0.08837 0.59734
vt 0.07265 0.53590
vt 0.12761 0.46019
vt 0.06864 0.68709
vt 0.06859 0.61626
vt 0.19629 0.66894
vt 0.27274 0.54521
vt 0.28382 0.60757
vt 0.28819 0.42992
vt 0.26962 0.40783
vt 0.15537 0.43872
vt 1.17081 0.47169
vt 1.26962 0.40783
vt 1.15537 0.43872
vt 1.28819 0.42992
vt 1.27274 0.54521
vt 1.07265 0.53590
vt 1.12761 0.46019
vt 1.08837 0.59734
vt 1.19629 0.66894
vt 1.28382 0.60757
vt 1.06864 0.68709
vt 1.06859 0.61626
vt 0.12408 0.02342
vt 0.12408 0.03825
vt 0.11406 0.03825
vt 0.11406 0.02342
vt 1.12408 0.02342
vt 1.11405 0.03825
vt 1.12408 0.03825
vt 1.11405 0.02342
vt 0.46835 0.19992
vt 0.45248 0.21691
vt 0.45248 0.19992
vt 0.46835 0.21691
vt 0.19054 0.36835
vt 0.17467 0.35137
vt 0.19054 0.35137
vt 0.17467 0.36835
vt 1.59896 0.34784
vt 1.61483 0.36483
vt 1.59896 0.36483
vt 1.61483 0.34784
vt 1.19053 0.36835
vt 1.17467 0.35137
vt 1.17467 0.36835
vt 1.19053 0.35137
vt 1.45248 0.21691
vt 1.46835 0.19992
vt 1.45248 0.19992
vt 1.46835 0.21691
vt 0.15709 0.10755
vt 0.18614 0.18072
vt 0.13372 0.11865
vt 0.07973 0.00300
vt 0.07107 0.00865
vt 0.15179 0.19474
vt 0.19215 0.24521
vt 0.24869 0.14195
vt 0.07624 0.23517
vt 0.22073 0.13099
vt 0.26651 0.00543
vt 0.25340 0.00293
vt 0.07596 0.18245
vt 0.00293 0.19020
vt 0.01137 0.24768
vt 1.26651 0.00543
vt 1.22073 0.13099
vt 1.24869 0.14195
vt 1.25340 0.00293
vt 1.18614 0.18072
vt 1.19215 0.24521
vt 1.15179 0.19474
vt 1.07624 0.23517
vt 1.13372 0.11865
vt 1.07596 0.18245
vt 1.00293 0.19020
vt 1.01137 0.24768
vt 1.15709 0.10755
vt 1.07973 0.00300
vt 1.07107 0.00865
vt 0.15634 0.95740
vt 0.14702 0.95274
vt 1.15633 0.95740
vt 1.14702 0.95274
vt 0.00293 0.25146
vt 0.04576 0.25146
vt 1.00293 0.25146
vt 1.04576 0.25146
vt 0.56171 0.03415
vt 0.55351 0.03415
vt 1.56171 0.03415
vt 1.55351 0.03415
vt 0.07003 0.84954
vt 0.04839 0.80698
vt 0.07003 0.80698
vt 0.04839 0.84954
vt 0.22229 0.92831
vt 0.17972 0.88575
vt 0.22229 0.88575
vt 0.17972 0.92831
vt 1.07003 0.84954
vt 1.04839 0.80698
vt 1.04839 0.84954
vt 1.07003 0.80698
vt 1.22229 0.92831
vt 1.17972 0.88575
vt 1.17972 0.92831
vt 1.22229 0.88575
vt 0.09385 0.38304
vt 0.10449 0.39367
vt 0.09385 0.39367
vt 0.10449 0.38304
vt 0.98288 0.11926
vt 0.98289 0.00294
vt 0.98697 0.11926
vt 0.98698 0.00294
vt 1.98289 0.00294
vt 1.98697 0.11926
vt 1.98698 0.00294
vt 1.98288 0.11926
vt 0.12921 0.05891
vt 0.13924 0.04408
vt 0.13924 0.05891
vt 0.12921 0.04408
vt 1.13924 0.04408
vt 1.12921 0.04408
vt 1.12921 0.05891
vt 1.13924 0.05891
vt 0.96265 0.79966
vt 0.98467 0.75190
vt 0.98467 0.79966
vt 0.96265 0.75190
vt 1.96265 0.79966
vt 1.98467 0.75190
vt 1.96265 0.75190
vt 1.98467 0.79966
vt 1.74040 0.89162
vt 1.75493 0.93987
vt 1.74174 0.93987
vt 1.75626 0.89161
vt 1.88258 0.84678
vt 1.88258 0.87962
vt 1.87173 0.84678
vt 1.87173 0.87962
vt 0.00293 0.88588
vt 0.17147 0.88574
vt 0.16610 0.95788
vt 1.00293 0.88588
vt 1.17147 0.88574
vt 1.16610 0.95788
vt 0.61834 0.34405
vt 0.58494 0.27154
vt 0.62553 0.27154
vt 0.59215 0.34406
vt 1.61834 0.34405
vt 1.62553 0.27154
vt 1.58494 0.27154
vt 1.59215 0.34406
vt 0.15167 0.05391
vt 0.22448 0.00294
vt 0.22027 0.05590
vt 0.13471 0.02214
vt 0.09385 0.00340
vt 1.15167 0.05391
vt 1.22448 0.00294
vt 1.13471 0.02214
vt 1.09385 0.00340
vt 1.22027 0.05590
vt 0.97923 0.80345
vt 0.97923 0.84602
vt 0.95760 0.80345
vt 0.95760 0.84602
vt 0.33341 0.62316
vt 0.29085 0.62316
vt 0.33341 0.58059
vt 0.29085 0.58059
vt 0.88777 0.50140
vt 0.86668 0.56510
vt 0.86668 0.50140
vt 0.88777 0.56510
vt 1.97923 0.84602
vt 1.97923 0.80345
vt 1.95760 0.80345
vt 1.95760 0.84602
vt 1.33341 0.62316
vt 1.33341 0.58059
vt 1.29084 0.62316
vt 1.29084 0.58059
vt 1.88777 0.56510
vt 1.88777 0.50140
vt 1.86668 0.56510
vt 1.86668 0.50140
vt 0.35192 0.31399
vt 0.41336 0.21408
vt 0.47521 0.22807
vt 0.33922 0.27113
vt 0.56437 0.20583
vt 0.49357 0.20777
vt 0.54981 0.33394
vt 0.42826 0.41383
vt 0.49091 0.42316
vt 0.31345 0.43250
vt 0.29085 0.41456
vt 0.31853 0.29948
vt 1.31345 0.43250
vt 1.35192 0.31399
vt 1.29084 0.41456
vt 1.31853 0.29948
vt 1.42826 0.41383
vt 1.41336 0.21408
vt 1.33922 0.27113
vt 1.47521 0.22807
vt 1.54981 0.33394
vt 1.49091 0.42316
vt 1.56437 0.20583
vt 1.49357 0.20777
vt 0.22933 0.26839
vt 0.22933 0.31143
vt 0.21508 0.31143
vt 0.21508 0.26839
vt 1.22933 0.31143
vt 1.22933 0.26839
vt 1.21508 0.31143
vt 1.21508 0.26839
vt 0.89375 0.74368
vt 0.89375 0.79144
vt 0.87173 0.79144
vt 0.87173 0.74368
vt 1.87173 0.74368
vt 1.87173 0.79144
vt 1.89375 0.74368
vt 1.89375 0.79144
vt 0.29999 0.00294
vt 0.30001 0.12130
vt 0.29590 0.00294
vt 0.29592 0.12130
vt 1.30001 0.12130
vt 1.29590 0.00294
vt 1.29592 0.12130
vt 1.29999 0.00294
vt 0.09385 0.90365
vt 0.10972 0.95168
vt 0.09385 0.95168
vt 0.10972 0.90365
vt 1.09385 0.90365
vt 1.09385 0.95168
vt 1.10972 0.95168
vt 1.10972 0.90365
vt 0.89193 0.84678
vt 0.90278 0.87962
vt 0.89193 0.87962
vt 0.90278 0.84678
vt 1.89193 0.84678
vt 1.90278 0.87962
vt 1.90278 0.84678
vt 1.89193 0.87962
vt 0.62664 0.21479
vt 0.58381 0.21480
vt 1.62664 0.21479
vt 1.58381 0.21480
vt 0.57422 0.29429
vt 0.56892 0.31778
vt 0.56361 0.29353
vt 0.57954 0.31855
vt 0.35699 0.56967
vt 0.35096 0.54635
vt 0.36154 0.54526
vt 0.34641 0.57076
vt 0.56171 0.03794
vt 0.55350 0.06549
vt 0.55350 0.03794
vt 0.56171 0.06549
vt 1.56171 0.06549
vt 1.56171 0.03794
vt 1.55350 0.06549
vt 1.55350 0.03794
vt 0.68483 0.58603
vt 0.52825 0.37798
vt 0.68483 0.37798
vt 0.52825 0.58603
vt 0.11911 0.90363
vt 0.13497 0.95166
vt 0.11911 0.95166
vt 0.13497 0.90363
vt 1.11911 0.90363
vt 1.11911 0.95166
vt 1.13497 0.95166
vt 1.13497 0.90363
vt 0.98285 0.71240
vt 0.99370 0.74524
vt 0.98285 0.74524
vt 0.99370 0.71240
vt 0.30001 0.15016
vt 0.29592 0.15016
vt 1.98285 0.71240
vt 1.99370 0.74524
vt 1.99370 0.71240
vt 1.98285 0.74524
vt 1.30001 0.15016
vt 1.29592 0.15016
vt 0.25044 0.15825
vt 0.26109 0.17210
vt 0.25044 0.17210
vt 0.26109 0.14456
vt 1.25044 0.15825
vt 1.26109 0.17210
vt 1.26109 0.14456
vt 1.25044 0.17210
vt 0.57876 0.37099
vt 0.57876 0.35937
vt 0.58961 0.37099
vt 0.58961 0.35937
vt 0.12416 0.33627
vt 0.12416 0.32465
vt 0.13501 0.33626
vt 0.13501 0.32465
vt 0.42723 0.21154
vt 0.42723 0.19992
vt 0.43808 0.21154
vt 0.43808 0.19992
vt 1.42723 0.21154
vt 1.43808 0.21154
vt 1.42723 0.19992
vt 1.43808 0.19992
vt 1.12416 0.33627
vt 1.13501 0.33626
vt 1.12416 0.32465
vt 1.13501 0.32465
vt 1.58961 0.37099
vt 1.57876 0.35937
vt 1.57876 0.37099
vt 1.58961 0.35937
vt 0.57687 0.35559
vt 0.56626 0.35482
vt 0.35772 0.50832
vt 0.34714 0.50941
vt 0.57561 0.27495
vt 0.56500 0.27419
vt 0.97528 0.87256
vt 0.91719 0.93065
vt 0.91719 0.87256
vt 0.97528 0.93065
vt 0.35899 0.58895
vt 0.34840 0.59005
vt 1.97528 0.87256
vt 1.91719 0.87256
vt 1.91719 0.93065
vt 1.97528 0.93065
vt 0.34735 0.50465
vt 0.29590 0.43628
vt 0.34735 0.43628
vt 0.29590 0.50465
vt 0.09378 0.07469
vt 0.08375 0.06137
vt 0.09378 0.06137
vt 0.08375 0.07469
vt 1.09378 0.07469
vt 1.08375 0.06137
vt 1.08375 0.07469
vt 1.09378 0.06137
vt 0.28795 0.00294
vt 0.28797 0.17152
vt 0.27064 0.00295
vt 0.27066 0.17153
vt 1.28797 0.17152
vt 1.28795 0.00294
vt 1.27064 0.00295
vt 1.27066 0.17153
vt 0.89409 0.45504
vt 0.89409 0.49761
vt 0.85152 0.45504
vt 0.85152 0.49761
vt 1.85152 0.45504
vt 1.89409 0.49761
vt 1.89409 0.45504
vt 1.85152 0.49761
vt 0.90924 0.66304
vt 0.90925 0.73542
vt 0.89193 0.66304
vt 0.89194 0.73542
vt 1.90925 0.73542
vt 1.89193 0.66304
vt 1.89194 0.73542
vt 1.90924 0.66304
vt 0.97364 0.07248
vt 0.95254 0.00294
vt 0.97364 0.00294
vt 0.95254 0.07248
vt 1.97364 0.07248
vt 1.95255 0.00294
vt 1.95254 0.07248
vt 1.97364 0.00294
vt 0.23432 0.00294
vt 0.23433 0.04765
vt 0.23023 0.00294
vt 0.23023 0.04765
vt 1.23433 0.04765
vt 1.23432 0.00294
vt 1.23023 0.00294
vt 1.23023 0.04765
vt 0.01718 0.95070
vt 0.00293 0.90370
vt 0.01718 0.90370
vt 0.00293 0.95070
vt 1.01718 0.95070
vt 1.00293 0.90370
vt 1.00293 0.95070
vt 1.01718 0.90370
vt 0.92224 0.13732
vt 0.94426 0.13732
vt 0.92224 0.15934
vt 0.94426 0.15934
vt 1.92224 0.13732
vt 1.92224 0.15934
vt 1.94426 0.13732
vt 1.94426 0.15934
vt 0.05344 0.41588
vt 0.05344 0.38304
vt 0.06506 0.38304
vt 0.06506 0.41588
vt 0.12921 0.27815
vt 0.12921 0.24530
vt 0.14082 0.24530
vt 0.14082 0.27815
vt 1.05344 0.30520
vt 1.05344 0.27235
vt 1.06506 0.27235
vt 1.06506 0.30519
vt 1.12921 0.27815
vt 1.14082 0.24530
vt 1.12921 0.24530
vt 1.14082 0.27815
vt 1.05344 0.38304
vt 1.05344 0.41588
vt 1.06506 0.38304
vt 1.06506 0.41588
vt 0.16672 0.34135
vt 0.16672 0.38391
vt 0.12416 0.34135
vt 0.12416 0.38391
vt 1.12416 0.34135
vt 1.16672 0.38391
vt 1.16672 0.34135
vt 1.12416 0.38391
vt 0.30828 0.30322
vt 0.29590 0.25521
vt 0.31288 0.25516
vt 0.29595 0.30323
vt 1.29590 0.25521
vt 1.30828 0.30322
vt 1.31288 0.25516
vt 1.29595 0.30323
vt 0.94893 0.86876
vt 0.91550 0.80828
vt 0.94553 0.80828
vt 0.91214 0.86877
vt 1.94893 0.86876
vt 1.94553 0.80828
vt 1.91550 0.80828
vt 1.91214 0.86877
vt 0.80789 0.89161
vt 0.80789 0.93964
vt 0.79091 0.93964
vt 0.79091 0.89161
vt 1.79091 0.89161
vt 1.79091 0.93964
vt 1.80789 0.89161
vt 1.80789 0.93964
vt 1.39370 0.88915
vt 1.39370 0.93718
vt 1.38137 0.93718
vt 1.37671 0.88912
vt 0.77312 0.20614
vt 0.73030 0.16332
vt 0.77312 0.16331
vt 0.73030 0.20615
vt 1.77312 0.20614
vt 1.77312 0.16331
vt 1.73029 0.16332
vt 1.73029 0.20615
vt 0.92523 0.58140
vt 0.93266 0.65925
vt 0.89936 0.58140
vt 0.89193 0.65925
vt 1.89936 0.58140
vt 1.93266 0.65925
vt 1.92523 0.58140
vt 1.89193 0.65925
vt 0.91746 0.45504
vt 0.90712 0.45504
vt 1.91746 0.45504
vt 1.90712 0.45504
vn 0.0000 1.0000 0.0000
vn 0.0000 0.9370 0.3465
vn 0.0000 0.9370 -0.3465
vn 0.0000 0.5039 0.8583
vn 0.0000 0.5039 -0.8583
vn 0.0000 0.9449 0.3228
vn 0.0000 0.9449 -0.3228
vn 0.0000 0.5827 0.8110
vn 0.0000 0.5827 -0.8110
vn 0.0000 -0.8346 0.5591
vn 0.0000 -0.8346 -0.5591
vn 0.0000 -0.7480 0.6614
vn 0.0000 -0.7480 -0.6614
vn 0.0000 0.0236 1.0000
vn 0.0000 0.0236 -1.0000
vn 0.0000 -0.2362 0.9685
vn 0.0000 -0.2362 -0.9685
vn 0.0000 0.7874 0.6220
vn 0.0000 0.7874 -0.6220
vn 0.0000 -0.8898 0.4567
vn 0.0000 -0.8898 -0.4567
vn 0.0000 0.5591 0.8268
vn 0.0000 0.5591 -0.8268
vn 0.0000 0.5906 0.8032
vn 0.0000 0.5906 -0.8032
vn 0.0000 0.4724 0.8819
vn 0.0000 0.4724 -0.8819
vn 0.0000 -1.0000 0.0000
vn 0.0157 -1.0000 0.0472
vn 0.0157 -1.0000 -0.0472
vn 0.0000 0.2126 0.9764
vn 0.0000 0.2126 -0.9764
vn 0.2677 -0.9606 0.0000
vn 0.0000 0.1890 0.9843
vn 0.0000 0.1890 -0.9843
vn 0.0000 0.8898 0.4646
vn 0.0000 0.8898 -0.4646
vn 0.0000 -0.6063 0.7953
vn 0.0000 -0.6063 -0.7953
vn 1.0000 -0.0551 0.0000
vn 0.0000 0.1024 0.9921
vn 0.0000 0.1024 -0.9921
vn 0.0000 0.0000 1.0000
vn 0.0000 0.0000 -1.0000
vn 1.0000 0.0000 0.0000
vn 0.0000 -0.9843 -0.1811
vn 0.0000 -0.9843 0.1811
vn 0.0000 -0.9213 0.3937
vn 0.0000 -0.9213 -0.3937
vn -0.9606 -0.2677 0.0000
vn 0.0000 -0.9921 -0.1496
vn 0.0000 -0.9921 0.1496
vn 0.0000 -0.0630 1.0000
vn 0.0000 -0.0630 -1.0000
vn -0.9449 0.0000 0.3228
vn -0.9449 0.0000 -0.3228
vn -1.0000 0.0000 0.0000
vn 0.9921 0.1024 0.0000
vn 0.9606 0.0472 0.2835
vn 0.9606 0.0472 -0.2835
vn 0.0945 0.0000 0.9921
vn 0.0945 0.0000 -0.9921
vn 0.0000 -0.8425 0.5354
vn 0.0000 -0.8425 -0.5354
vn 1.0000 -0.0236 0.0394
vn 1.0000 -0.0236 -0.0394
vn 0.0000 0.8583 -0.5118
vn 0.9921 0.1260 -0.0315
vn 0.0000 0.8583 0.5118
vn 0.9921 0.1260 0.0315
vn 1.0000 0.0236 0.0000
vn 0.0000 0.9764 -0.2126
vn 0.0000 0.9764 0.2126
vn -0.9921 0.1024 0.0000
vn -1.0000 -0.0551 0.0000
vn -0.9606 0.0472 0.2835
vn -0.9606 0.0472 -0.2835
vn 0.0000 -0.9528 0.2913
vn 0.0000 -0.9528 -0.2913
vn -1.0000 -0.0236 0.0394
vn -1.0000 -0.0236 -0.0394
vn -0.9921 0.1260 -0.0315
vn -0.9921 0.1260 0.0315
vn -1.0000 0.0236 0.0000
vn 0.0000 -0.6142 0.7874
vn 0.0000 -0.6142 -0.7874
vn 0.0000 0.8819 -0.4724
vn 0.0000 0.8819 0.4724
vn 0.0000 0.9449 -0.3386
vn 0.0000 0.9449 0.3386
vn 0.0000 -0.9449 -0.3228
vn 0.0000 -0.9449 0.3228
vn 0.0000 -0.6772 -0.7402
vn 0.0000 -0.6772 0.7402
vn 0.0000 -0.8583 0.5118
vn 0.0000 -0.8583 -0.5118
vn 0.0000 0.3858 -0.9213
vn 0.0000 0.3858 0.9213
vn 0.9606 0.2677 0.0000
vn 0.0000 0.7953 -0.6063
vn 0.0000 0.7953 0.6063
vn 0.0000 -0.2520 -0.9685
vn 0.0000 -0.2520 0.9685
vn 0.0000 -0.1575 -0.9843
vn 0.0000 -0.1575 0.9843
vn 0.0000 -0.9685 0.2362
vn 0.0000 -0.9685 -0.2362
vn 0.0000 -0.2126 -0.9764
vn 0.0000 -0.2126 0.9764
vn -0.2677 0.9606 0.0000
vn 0.0157 1.0000 0.0472
vn 0.0157 1.0000 -0.0472
vn 0.0000 -0.8504 -0.5354
vn 0.0000 -0.8504 0.5354
vn 0.0000 -0.1654 -0.9843
vn 0.0000 -0.1654 0.9843
vn 0.0000 0.1181 -0.9921
vn 0.0000 0.1181 0.9921

o animal_bat
usemtl tex_animal_bat_i019p001x
f 1/1/1 2/2/1 3/3/1
f 2/2/1 4/4/1 3/3/1
f 5/5/1 6/6/1 7/7/1
f 7/7/1 6/6/1 8/8/1
f 9/9/2 10/10/2 11/11/2
f 12/12/2 9/9/2 11/11/2
f 13/13/3 14/14/3 15/15/3
f 16/16/3 14/14/3 13/13/3
f 17/17/4 18/18/4 19/19/4
f 18/18/4 17/17/4 20/20/4
f 21/21/5 22/22/5 23/23/5
f 22/22/5 21/21/5 24/24/5
f 25/25/6 26/26/6 27/27/6
f 28/28/6 27/27/6 26/26/6
f 29/29/7 30/30/7 31/31/7
f 29/29/7 31/31/7 32/32/7
f 33/33/8 34/34/8 35/35/8
f 36/36/8 35/35/8 34/34/8
f 37/37/9 38/38/9 39/39/9
f 37/37/9 39/39/9 40/40/9
f 41/41/10 17/42/10 19/43/10
f 17/42/10 41/41/10 42/44/10
f 43/45/11 23/46/11 22/47/11
f 43/45/11 22/47/11 44/48/11
f 45/49/12 46/50/12 47/51/12
f 48/52/12 47/51/12 46/50/12
f 49/53/13 50/54/13 51/55/13
f 49/53/13 51/55/13 52/56/13
f 53/57/14 54/58/14 55/59/14
f 54/58/14 53/57/14 56/60/14
f 57/61/15 58/62/15 59/63/15
f 58/62/15 57/61/15 60/64/15
f 53/57/16 61/65/16 62/66/16
f 61/65/16 53/57/16 55/59/16
f 63/67/17 58/62/17 64/68/17
f 63/67/17 59/63/17 58/62/17
f 65/69/18 18/18/18 20/20/18
f 18/18/18 65/69/18 66/70/18
f 21/21/19 67/71/19 24/24/19
f 21/21/19 68/72/19 67/71/19
f 69/73/20 36/74/20 70/75/20
f 34/76/20 70/75/20 36/74/20
f 71/77/21 40/78/21 72/79/21
f 71/77/21 37/80/21 40/78/21
f 27/27/22 73/81/22 25/25/22
f 74/82/22 25/25/22 73/81/22
f 30/30/23 75/83/23 31/31/23
f 30/30/23 76/84/23 75/83/23
f 77/85/24 78/86/24 79/87/24
f 78/86/24 77/85/24 80/88/24
f 81/89/25 82/90/25 83/91/25
f 82/90/25 81/89/25 84/92/25
f 74/93/26 10/94/26 9/95/26
f 10/94/26 74/93/26 73/96/26
f 76/97/27 13/98/27 15/99/27
f 76/97/27 15/99/27 75/100/27
f 85/101/28 86/102/28 87/103/28
f 86/102/28 85/101/28 88/104/28
f 89/105/28 90/106/28 91/107/28
f 89/105/28 91/107/28 92/108/28
f 93/109/29 94/110/29 95/111/29
f 94/110/29 93/109/29 96/112/29
f 97/113/30 98/114/30 99/115/30
f 100/116/30 98/114/30 97/113/30
f 101/117/28 102/118/28 103/119/28
f 102/118/28 101/117/28 104/120/28
f 105/121/28 106/122/28 107/123/28
f 108/124/28 106/122/28 105/121/28
f 109/125/30 110/126/30 111/127/30
f 110/126/30 109/125/30 112/128/30
f 113/126/29 114/125/29 115/127/29
f 114/125/29 113/126/29 116/128/29
f 117/129/28 118/130/28 119/131/28
f 118/130/28 117/129/28 120/132/28
f 121/133/1 122/134/1 123/135/1
f 124/136/1 121/133/1 123/135/1
f 125/137/28 126/138/28 127/139/28
f 125/137/28 128/140/28 126/138/28
f 129/141/31 77/85/31 79/87/31
f 77/85/31 129/141/31 130/142/31
f 83/91/32 82/90/32 131/143/32
f 131/143/32 82/90/32 132/144/32
f 133/145/33 134/146/33 135/147/33
f 134/146/33 133/145/33 136/148/33
f 137/149/33 138/150/33 139/151/33
f 138/150/33 137/149/33 140/152/33
f 141/153/33 142/154/33 143/155/33
f 142/154/33 141/153/33 144/156/33
f 145/155/33 146/154/33 147/153/33
f 147/153/33 146/154/33 148/156/33
f 149/157/33 150/158/33 151/159/33
f 151/159/33 150/158/33 152/160/33
f 153/161/33 154/162/33 155/163/33
f 155/163/33 154/162/33 156/164/33
f 157/165/1 158/166/1 159/167/1
f 160/168/1 159/167/1 158/166/1
f 161/169/1 162/170/1 163/171/1
f 161/169/1 163/171/1 164/172/1
f 26/173/34 78/174/34 28/175/34
f 80/176/34 28/175/34 78/174/34
f 32/177/35 81/178/35 29/179/35
f 81/178/35 32/177/35 84/180/35
f 35/35/36 165/181/36 33/33/36
f 166/182/36 33/33/36 165/181/36
f 38/38/37 167/183/37 39/39/37
f 38/38/37 168/184/37 167/183/37
f 169/185/1 170/186/1 171/187/1
f 172/188/1 171/187/1 170/186/1
f 173/189/1 174/190/1 175/191/1
f 173/189/1 175/191/1 176/192/1
f 177/193/38 178/194/38 179/195/38
f 180/196/38 179/195/38 178/194/38
f 181/197/39 182/198/39 183/199/39
f 181/197/39 184/200/39 182/198/39
f 185/201/28 186/202/28 187/203/28
f 186/202/28 185/201/28 188/204/28
f 189/205/28 190/206/28 191/207/28
f 189/205/28 191/207/28 192/208/28
f 193/209/28 194/210/28 195/211/28
f 196/212/28 194/210/28 193/209/28
f 195/213/40 197/214/40 198/215/40
f 197/214/40 195/213/40 194/216/40
f 199/217/1 200/218/1 201/219/1
f 202/220/1 199/217/1 201/219/1
f 203/221/1 204/222/1 205/223/1
f 204/222/1 206/224/1 205/223/1
f 207/225/1 208/226/1 209/227/1
f 209/227/1 208/226/1 210/228/1
f 211/229/41 2/230/41 212/231/41
f 2/230/41 211/229/41 4/232/41
f 7/233/42 213/234/42 214/235/42
f 213/234/42 7/233/42 8/236/42
f 121/237/43 215/238/43 216/239/43
f 121/237/43 216/239/43 122/240/43
f 123/241/44 217/242/44 124/243/44
f 217/242/44 123/241/44 218/244/44
f 219/245/45 220/246/45 221/247/45
f 222/248/45 220/246/45 219/245/45
f 223/249/45 220/246/45 222/248/45
f 220/246/45 223/249/45 224/250/45
f 216/251/45 218/252/45 122/253/45
f 218/252/45 123/254/45 122/253/45
f 225/255/46 62/256/46 61/257/46
f 62/256/46 225/255/46 226/258/46
f 227/259/47 63/260/47 64/261/47
f 227/259/47 64/261/47 228/262/47
f 222/263/48 229/264/48 230/265/48
f 229/264/48 222/263/48 219/266/48
f 223/267/49 230/265/49 231/268/49
f 230/265/49 223/267/49 222/263/49
f 232/269/50 135/270/50 233/271/50
f 135/270/50 232/269/50 133/272/50
f 234/273/50 139/274/50 235/275/50
f 139/274/50 234/273/50 137/276/50
f 236/277/50 143/278/50 237/279/50
f 143/278/50 236/277/50 141/280/50
f 238/277/50 145/278/50 147/280/50
f 238/277/50 239/279/50 145/278/50
f 240/281/50 149/282/50 151/283/50
f 240/281/50 241/284/50 149/282/50
f 242/285/50 153/286/50 155/287/50
f 242/285/50 243/288/50 153/286/50
f 46/50/51 244/289/51 48/52/51
f 245/290/51 48/52/51 244/289/51
f 52/56/52 246/291/52 49/53/52
f 246/291/52 52/56/52 247/292/52
f 248/293/1 249/294/1 250/295/1
f 249/294/1 248/293/1 251/296/1
f 252/297/1 253/298/1 254/299/1
f 252/297/1 254/299/1 255/300/1
f 159/301/43 256/302/43 257/303/43
f 159/301/43 257/303/43 157/304/43
f 161/305/44 258/306/44 259/307/44
f 258/306/44 161/305/44 164/308/44
f 212/231/14 260/309/14 261/310/14
f 212/231/14 261/310/14 211/229/14
f 214/235/15 262/311/15 263/312/15
f 262/311/15 214/235/15 213/234/15
f 193/313/53 198/314/53 264/315/53
f 198/314/53 193/313/53 195/316/53
f 196/317/54 265/318/54 194/319/54
f 265/318/54 197/320/54 194/319/54
f 248/321/43 266/322/43 267/323/43
f 248/321/43 267/323/43 251/324/43
f 252/325/44 268/326/44 269/327/44
f 268/326/44 252/325/44 255/328/44
f 270/329/1 271/330/1 272/331/1
f 273/332/1 272/331/1 271/330/1
f 274/333/1 270/334/1 272/335/1
f 274/333/1 272/335/1 275/336/1
f 276/337/1 277/338/1 278/339/1
f 279/340/1 276/337/1 278/339/1
f 280/341/1 281/342/1 282/343/1
f 281/342/1 280/341/1 283/344/1
f 250/345/55 271/346/55 284/347/55
f 285/348/55 284/347/55 271/346/55
f 286/349/56 287/350/56 274/351/56
f 274/351/56 253/352/56 286/349/56
f 171/353/57 288/354/57 289/355/57
f 288/354/57 171/353/57 172/356/57
f 173/357/57 290/358/57 174/359/57
f 290/358/57 173/357/57 291/360/57
f 171/361/43 289/362/43 292/363/43
f 171/361/43 292/363/43 169/364/43
f 173/365/44 293/366/44 291/367/44
f 293/366/44 173/365/44 176/368/44
f 203/369/57 294/370/57 204/371/57
f 294/370/57 203/369/57 295/372/57
f 207/373/57 296/374/57 297/375/57
f 207/373/57 209/376/57 296/374/57
f 202/377/57 298/378/57 199/379/57
f 298/378/57 202/377/57 299/380/57
f 160/381/57 256/382/57 159/383/57
f 256/382/57 160/381/57 300/384/57
f 162/385/57 259/386/57 301/387/57
f 162/385/57 161/388/57 259/386/57
f 270/389/57 285/348/57 271/346/57
f 285/348/57 270/389/57 302/390/57
f 270/391/57 287/350/57 302/392/57
f 270/391/57 274/351/57 287/350/57
f 303/393/58 4/394/58 211/395/58
f 4/394/58 303/393/58 3/396/58
f 8/397/58 304/398/58 213/399/58
f 304/398/58 8/397/58 6/400/58
f 229/401/43 221/402/43 305/403/43
f 221/402/43 229/401/43 219/404/43
f 306/405/59 73/406/59 307/407/59
f 306/405/59 10/408/59 73/406/59
f 231/409/44 308/410/44 223/411/44
f 308/410/44 224/412/44 223/411/44
f 75/413/60 309/414/60 310/415/60
f 15/416/60 309/414/60 75/413/60
f 95/417/61 94/418/61 311/419/61
f 311/419/61 94/418/61 312/420/61
f 313/421/62 98/422/62 100/423/62
f 98/422/62 313/421/62 314/424/62
f 135/425/43 315/426/43 233/427/43
f 315/426/43 135/425/43 134/428/43
f 316/429/63 317/430/63 318/431/63
f 317/430/63 316/429/63 319/432/63
f 320/433/44 153/434/44 243/435/44
f 153/434/44 320/433/44 154/436/44
f 321/437/64 322/438/64 323/439/64
f 322/438/64 321/437/64 324/440/64
f 279/441/57 325/442/57 276/443/57
f 279/441/57 326/444/57 325/442/57
f 282/445/57 327/446/57 328/447/57
f 282/445/57 281/448/57 327/446/57
f 284/347/57 266/449/57 250/345/57
f 248/450/57 250/345/57 266/449/57
f 253/352/57 269/451/57 286/349/57
f 253/352/57 252/452/57 269/451/57
f 87/453/43 86/454/43 329/455/43
f 329/455/43 86/454/43 330/456/43
f 331/457/43 187/458/43 186/459/43
f 331/457/43 186/459/43 332/460/43
f 121/461/57 217/462/57 215/463/57
f 217/462/57 121/461/57 124/464/57
f 333/465/44 91/466/44 90/467/44
f 91/466/44 333/465/44 334/468/44
f 335/469/44 191/470/44 190/471/44
f 191/470/44 335/469/44 336/472/44
f 265/473/1 264/474/1 198/475/1
f 265/473/1 198/475/1 197/476/1
f 276/477/43 325/478/43 337/479/43
f 276/477/43 337/479/43 277/480/43
f 281/481/44 338/482/44 327/483/44
f 338/482/44 281/481/44 283/484/44
f 305/485/1 221/486/1 339/487/1
f 339/487/1 221/486/1 220/488/1
f 339/487/1 220/488/1 308/489/1
f 308/489/1 220/488/1 224/490/1
f 340/491/65 62/492/65 226/493/65
f 62/492/65 340/491/65 53/494/65
f 340/491/65 56/495/65 53/494/65
f 56/495/65 340/491/65 319/496/65
f 65/497/65 56/495/65 319/496/65
f 65/497/65 20/498/65 56/495/65
f 65/497/65 319/496/65 341/499/65
f 56/495/65 20/498/65 342/500/65
f 17/501/65 342/500/65 20/498/65
f 342/500/65 17/501/65 42/502/65
f 316/503/65 341/499/65 319/496/65
f 343/504/65 341/499/65 316/503/65
f 341/499/65 343/504/65 344/505/65
f 64/506/66 345/507/66 228/508/66
f 58/509/66 345/507/66 64/506/66
f 345/507/66 58/509/66 60/510/66
f 60/510/66 324/511/66 345/507/66
f 67/512/66 324/511/66 60/510/66
f 60/510/66 24/513/66 67/512/66
f 67/512/66 346/514/66 324/511/66
f 24/513/66 60/510/66 347/515/66
f 22/516/66 24/513/66 347/515/66
f 22/516/66 347/515/66 44/517/66
f 322/518/66 324/511/66 346/514/66
f 346/514/66 348/519/66 322/518/66
f 348/519/66 346/514/66 349/520/66
f 350/521/43 119/522/43 118/523/43
f 350/521/43 118/523/43 351/524/43
f 352/525/44 126/526/44 128/527/44
f 126/526/44 352/525/44 353/528/44
f 273/332/67 250/295/67 249/294/67
f 250/295/67 273/332/67 271/330/67
f 307/407/68 80/529/68 77/530/68
f 77/530/68 306/405/68 307/407/68
f 253/298/69 274/333/69 275/336/69
f 253/298/69 275/336/69 254/299/69
f 309/414/70 82/531/70 310/415/70
f 310/415/70 82/531/70 84/532/70
f 261/533/71 354/534/71 211/395/71
f 354/534/71 303/393/71 211/395/71
f 355/535/71 213/399/71 304/398/71
f 262/536/71 213/399/71 355/535/71
f 103/537/43 102/538/43 356/539/43
f 356/539/43 102/538/43 357/540/43
f 358/541/44 106/542/44 108/543/44
f 106/542/44 358/541/44 359/544/44
f 139/545/43 360/546/43 235/547/43
f 360/546/43 139/545/43 138/548/43
f 361/549/44 149/550/44 241/551/44
f 149/550/44 361/549/44 150/552/44
f 86/553/45 88/554/45 330/555/45
f 362/556/45 330/555/45 88/554/45
f 186/557/45 188/558/45 332/559/45
f 188/558/45 363/560/45 332/559/45
f 364/561/72 365/562/72 344/563/72
f 365/562/72 341/564/72 344/563/72
f 92/565/45 334/566/45 366/567/45
f 92/565/45 91/568/45 334/566/45
f 192/569/45 336/570/45 367/571/45
f 336/570/45 192/569/45 191/572/45
f 368/573/73 349/574/73 369/575/73
f 369/575/73 349/574/73 346/576/73
f 339/577/57 229/578/57 305/579/57
f 229/578/57 339/577/57 230/580/57
f 230/580/57 339/577/57 231/581/57
f 308/582/57 231/581/57 339/577/57
f 199/583/43 298/584/43 370/585/43
f 199/583/43 370/585/43 200/586/43
f 299/587/44 201/588/44 371/589/44
f 201/588/44 299/587/44 202/590/44
f 351/591/45 118/592/45 120/593/45
f 120/593/45 372/594/45 351/591/45
f 127/595/45 353/596/45 373/597/45
f 126/598/45 353/596/45 127/595/45
f 130/599/45 306/405/45 77/530/45
f 130/599/45 374/600/45 306/405/45
f 11/601/45 306/405/45 374/600/45
f 306/405/45 11/601/45 10/408/45
f 309/414/45 14/602/45 375/603/45
f 14/602/45 309/414/45 15/416/45
f 375/603/45 132/604/45 309/414/45
f 82/531/45 309/414/45 132/604/45
f 94/605/45 96/606/45 312/607/45
f 96/606/45 376/608/45 312/607/45
f 102/609/45 104/610/45 357/611/45
f 104/610/45 377/612/45 357/611/45
f 378/613/45 112/614/45 109/615/45
f 112/614/45 378/613/45 379/616/45
f 307/617/45 28/618/45 80/619/45
f 28/618/45 307/617/45 27/620/45
f 307/617/45 73/621/45 27/620/45
f 116/622/45 380/623/45 114/624/45
f 380/623/45 116/622/45 381/625/45
f 107/626/45 359/627/45 382/628/45
f 359/627/45 107/626/45 106/629/45
f 314/630/45 99/631/45 98/632/45
f 99/631/45 314/630/45 383/633/45
f 310/634/45 32/635/45 31/636/45
f 32/635/45 310/634/45 84/637/45
f 75/638/45 310/634/45 31/636/45
f 110/639/43 112/640/43 384/641/43
f 384/641/43 112/640/43 379/642/43
f 385/643/44 116/644/44 113/645/44
f 116/644/44 385/643/44 381/646/44
f 2/647/74 386/648/74 212/649/74
f 1/650/74 386/648/74 2/647/74
f 387/651/74 7/652/74 214/653/74
f 7/652/74 387/651/74 5/654/74
f 264/655/75 196/656/75 193/657/75
f 265/658/75 196/656/75 264/655/75
f 74/659/76 388/660/76 389/661/76
f 388/660/76 74/659/76 9/662/76
f 390/663/77 76/664/77 391/665/77
f 76/664/77 390/663/77 13/666/77
f 316/429/78 392/667/78 343/668/78
f 392/667/78 316/429/78 318/431/78
f 393/669/79 322/438/79 348/670/79
f 393/669/79 323/439/79 322/438/79
f 143/671/43 394/672/43 237/673/43
f 394/672/43 143/671/43 142/674/43
f 395/675/44 145/676/44 239/677/44
f 145/676/44 395/675/44 146/678/44
f 179/679/45 47/680/45 48/681/45
f 179/679/45 48/681/45 245/682/45
f 47/680/45 36/683/45 69/684/45
f 36/683/45 47/680/45 35/685/45
f 47/680/45 396/686/45 35/685/45
f 396/686/45 47/680/45 179/679/45
f 35/685/45 396/686/45 165/687/45
f 396/686/45 179/679/45 397/688/45
f 397/688/45 179/679/45 398/689/45
f 179/679/45 180/690/45 398/689/45
f 182/691/45 399/692/45 183/693/45
f 182/691/45 400/694/45 399/692/45
f 400/694/45 182/691/45 401/695/45
f 52/696/45 182/691/45 247/697/45
f 182/691/45 52/696/45 51/698/45
f 51/698/45 401/695/45 182/691/45
f 51/698/45 39/699/45 401/695/45
f 39/699/45 167/700/45 401/695/45
f 39/699/45 51/698/45 40/701/45
f 40/701/45 51/698/45 72/702/45
f 204/703/43 294/704/43 402/705/43
f 204/703/43 402/705/43 206/706/43
f 209/707/44 403/708/44 296/709/44
f 403/708/44 209/707/44 210/710/44
f 311/711/57 93/712/57 95/713/57
f 93/712/57 311/711/57 404/714/57
f 405/715/57 103/716/57 356/717/57
f 103/716/57 405/715/57 101/718/57
f 110/719/57 406/720/57 111/721/57
f 406/720/57 110/719/57 384/722/57
f 407/720/57 113/719/57 115/721/57
f 407/720/57 385/722/57 113/719/57
f 408/723/57 108/724/57 105/725/57
f 408/723/57 358/726/57 108/724/57
f 97/727/57 313/728/57 100/729/57
f 313/728/57 97/727/57 409/730/57
f 55/731/80 54/732/80 410/733/80
f 61/734/80 55/731/80 410/733/80
f 61/734/80 410/733/80 225/735/80
f 410/733/80 54/732/80 317/736/80
f 54/732/80 66/737/80 317/736/80
f 54/732/80 18/738/80 66/737/80
f 365/739/80 317/736/80 66/737/80
f 18/738/80 54/732/80 411/740/80
f 411/740/80 19/741/80 18/738/80
f 19/741/80 411/740/80 41/742/80
f 365/739/80 318/743/80 317/736/80
f 318/743/80 365/739/80 392/744/80
f 392/744/80 365/739/80 364/745/80
f 23/746/81 412/747/81 21/748/81
f 412/747/81 23/746/81 43/749/81
f 412/747/81 57/750/81 21/748/81
f 57/750/81 68/751/81 21/748/81
f 57/750/81 321/752/81 68/751/81
f 68/751/81 321/752/81 369/753/81
f 57/750/81 413/754/81 321/752/81
f 323/755/81 369/753/81 321/752/81
f 393/756/81 369/753/81 323/755/81
f 369/753/81 393/756/81 368/757/81
f 413/754/81 57/750/81 59/758/81
f 63/759/81 413/754/81 59/758/81
f 413/754/81 63/759/81 227/760/81
f 79/761/82 389/661/82 388/660/82
f 389/661/82 79/761/82 78/762/82
f 391/665/83 83/763/83 390/663/83
f 83/763/83 391/665/83 81/764/83
f 212/649/84 414/765/84 260/766/84
f 414/765/84 212/649/84 386/648/84
f 415/767/84 214/653/84 263/768/84
f 214/653/84 415/767/84 387/651/84
f 326/769/85 337/479/85 325/478/85
f 337/479/85 326/769/85 416/770/85
f 328/771/86 327/483/86 338/482/86
f 328/771/86 338/482/86 417/772/86
f 66/70/87 341/564/87 365/562/87
f 341/564/87 66/70/87 65/69/87
f 346/576/88 68/72/88 369/575/88
f 68/72/88 346/576/88 67/71/88
f 418/773/57 87/774/57 329/775/57
f 87/774/57 418/773/57 85/776/57
f 419/777/57 187/778/57 331/779/57
f 187/778/57 419/777/57 185/780/57
f 420/781/57 90/782/57 89/783/57
f 420/781/57 333/784/57 90/782/57
f 421/785/57 190/786/57 189/787/57
f 421/785/57 335/788/57 190/786/57
f 302/789/44 272/790/44 422/791/44
f 270/792/44 272/790/44 302/789/44
f 396/793/89 397/794/89 423/795/89
f 424/796/89 423/795/89 397/794/89
f 400/797/90 425/798/90 426/799/90
f 425/798/90 400/797/90 401/800/90
f 205/801/44 295/802/44 203/803/44
f 295/802/44 205/801/44 427/804/44
f 297/805/43 428/806/43 208/807/43
f 207/808/43 297/805/43 208/807/43
f 429/809/57 119/810/57 350/811/57
f 119/810/57 429/809/57 117/812/57
f 430/813/57 128/814/57 125/815/57
f 352/816/57 128/814/57 430/813/57
f 111/817/62 378/818/62 109/819/62
f 406/820/62 378/818/62 111/817/62
f 115/817/61 114/819/61 380/818/61
f 380/818/61 407/820/61 115/817/61
f 236/821/44 431/822/44 141/823/44
f 141/823/44 431/822/44 144/824/44
f 147/823/43 432/822/43 238/821/43
f 147/823/43 148/824/43 432/822/43
f 12/825/57 433/826/57 388/660/57
f 12/825/57 388/660/57 9/662/57
f 129/827/57 388/660/57 433/826/57
f 388/660/57 129/827/57 79/761/57
f 13/666/57 390/663/57 16/828/57
f 434/829/57 16/828/57 390/663/57
f 390/663/57 131/830/57 434/829/57
f 131/830/57 390/663/57 83/763/57
f 1/831/42 303/832/42 386/833/42
f 303/832/42 1/831/42 3/834/42
f 5/835/41 387/836/41 304/837/41
f 5/835/41 304/837/41 6/838/41
f 26/839/57 389/840/57 78/841/57
f 389/840/57 26/839/57 25/842/57
f 74/843/57 389/840/57 25/842/57
f 29/844/57 391/845/57 30/846/57
f 391/845/57 76/847/57 30/846/57
f 391/845/57 29/844/57 81/848/57
f 70/75/91 45/49/91 69/73/91
f 47/51/91 69/73/91 45/49/91
f 50/54/92 71/77/92 72/79/92
f 50/54/92 72/79/92 51/55/92
f 418/849/44 362/850/44 85/851/44
f 85/851/44 362/850/44 88/852/44
f 419/853/44 363/854/44 185/855/44
f 185/855/44 363/854/44 188/856/44
f 300/857/44 158/858/44 435/859/44
f 300/857/44 160/860/44 158/858/44
f 366/861/43 420/862/43 89/863/43
f 89/863/43 92/864/43 366/861/43
f 421/865/43 189/866/43 367/867/43
f 189/866/43 192/868/43 367/867/43
f 162/869/43 301/870/43 163/871/43
f 436/872/43 163/871/43 301/870/43
f 177/873/57 46/874/57 45/875/57
f 46/874/57 177/873/57 244/876/57
f 34/877/57 45/875/57 70/878/57
f 33/879/57 45/875/57 34/877/57
f 45/875/57 33/879/57 423/880/57
f 45/875/57 423/880/57 177/873/57
f 423/880/57 33/879/57 166/881/57
f 424/882/57 177/873/57 423/880/57
f 177/873/57 424/882/57 437/883/57
f 177/873/57 437/883/57 178/884/57
f 426/885/57 184/886/57 438/887/57
f 184/886/57 181/888/57 438/887/57
f 425/889/57 184/886/57 426/885/57
f 184/886/57 49/890/57 246/891/57
f 50/892/57 49/890/57 184/886/57
f 425/889/57 50/892/57 184/886/57
f 50/892/57 425/889/57 38/893/57
f 38/893/57 425/889/57 168/894/57
f 37/895/57 50/892/57 38/893/57
f 50/892/57 37/895/57 71/896/57
f 288/897/44 172/898/44 170/899/44
f 288/897/44 170/899/44 439/900/44
f 174/901/43 290/902/43 175/903/43
f 440/904/43 175/903/43 290/902/43
f 117/905/44 429/906/44 372/907/44
f 117/905/44 372/907/44 120/908/44
f 127/909/43 373/910/43 125/911/43
f 430/912/43 125/911/43 373/910/43
f 178/913/93 437/914/93 180/915/93
f 398/916/93 180/915/93 437/914/93
f 438/917/94 183/918/94 399/919/94
f 438/917/94 181/920/94 183/918/94
f 101/921/44 377/922/44 104/923/44
f 405/924/44 377/922/44 101/921/44
f 105/925/43 107/926/43 382/927/43
f 382/927/43 408/928/43 105/925/43
f 137/929/44 441/930/44 140/931/44
f 234/932/44 441/930/44 137/929/44
f 151/933/43 442/934/43 240/935/43
f 151/933/43 152/936/43 442/934/43
f 414/937/15 303/832/15 354/938/15
f 303/832/15 414/937/15 386/833/15
f 415/939/14 355/940/14 304/837/14
f 387/836/14 415/939/14 304/837/14
f 284/941/95 443/942/95 444/943/95
f 443/942/95 284/941/95 285/944/95
f 286/945/96 445/946/96 287/947/96
f 445/946/96 286/945/96 446/948/96
f 326/949/44 278/950/44 416/951/44
f 326/949/44 279/952/44 278/950/44
f 282/953/43 328/954/43 280/955/43
f 417/956/43 280/955/43 328/954/43
f 217/957/28 216/958/28 215/959/28
f 216/958/28 217/957/28 218/960/28
f 93/961/44 376/962/44 96/963/44
f 404/964/44 376/962/44 93/961/44
f 97/965/43 99/966/43 383/967/43
f 383/967/43 409/968/43 97/965/43
f 133/969/44 447/970/44 136/971/44
f 232/972/44 447/970/44 133/969/44
f 437/914/97 424/973/97 398/916/97
f 397/974/97 398/916/97 424/973/97
f 155/975/43 448/976/43 242/977/43
f 155/975/43 156/978/43 448/976/43
f 399/919/98 426/979/98 438/917/98
f 426/979/98 399/919/98 400/980/98
f 337/981/45 278/982/45 277/983/45
f 278/982/45 337/981/45 416/984/45
f 338/985/45 280/986/45 417/987/45
f 280/986/45 338/985/45 283/988/45
f 134/989/99 136/990/99 315/991/99
f 136/990/99 447/992/99 315/991/99
f 138/993/99 140/994/99 360/995/99
f 140/994/99 441/996/99 360/995/99
f 142/997/99 144/998/99 394/999/99
f 144/998/99 431/1000/99 394/999/99
f 146/1001/99 395/1002/99 148/1003/99
f 148/1003/99 395/1002/99 432/1004/99
f 150/1005/99 361/1006/99 152/1007/99
f 152/1007/99 361/1006/99 442/1008/99
f 320/1009/99 156/1010/99 154/1011/99
f 156/1010/99 320/1009/99 448/1012/99
f 423/795/100 166/182/100 396/793/100
f 165/181/100 396/793/100 166/182/100
f 401/800/101 168/184/101 425/798/101
f 168/184/101 401/800/101 167/183/101
f 302/1013/28 443/942/28 285/944/28
f 443/942/28 302/1013/28 422/1014/28
f 302/1015/28 287/947/28 445/946/28
f 302/1015/28 445/946/28 422/1016/28
f 266/1017/28 284/941/28 267/1018/28
f 444/943/28 267/1018/28 284/941/28
f 364/1019/102 343/1020/102 392/1021/102
f 343/1020/102 364/1019/102 344/1022/102
f 286/945/28 269/1023/28 268/1024/28
f 286/945/28 268/1024/28 446/948/28
f 368/1025/103 393/1026/103 348/1027/103
f 368/1025/103 348/1027/103 349/1028/103
f 299/1029/28 370/1030/28 298/1031/28
f 370/1030/28 299/1029/28 371/1032/28
f 295/1033/28 402/1034/28 294/1035/28
f 402/1034/28 295/1033/28 427/1036/28
f 297/1037/28 403/1038/28 428/1039/28
f 297/1037/28 296/1040/28 403/1038/28
f 433/1041/104 12/1042/104 374/1043/104
f 11/1044/104 374/1043/104 12/1042/104
f 16/1045/105 434/1046/105 375/1047/105
f 16/1045/105 375/1047/105 14/1048/105
f 419/1049/1 331/1050/1 363/1051/1
f 331/1050/1 332/1052/1 363/1051/1
f 367/1053/1 335/1054/1 421/1055/1
f 335/1054/1 367/1053/1 336/1056/1
f 129/1057/106 433/1058/106 130/1059/106
f 374/1060/106 130/1059/106 433/1058/106
f 434/1061/107 132/1062/107 375/1063/107
f 434/1061/107 131/1064/107 132/1062/107
f 300/1065/28 257/1066/28 256/1067/28
f 257/1066/28 300/1065/28 435/1068/28
f 301/1069/28 258/1070/28 436/1071/28
f 301/1069/28 259/1072/28 258/1070/28
f 244/1073/108 177/1074/108 245/1075/108
f 179/1076/108 245/1075/108 177/1074/108
f 184/1077/109 246/1078/109 247/1079/109
f 184/1077/109 247/1079/109 182/1080/109
f 288/1081/28 292/1082/28 289/1083/28
f 292/1082/28 288/1081/28 439/1084/28
f 290/1085/28 293/1086/28 440/1087/28
f 290/1085/28 291/1088/28 293/1086/28
f 429/1089/1 350/1090/1 372/1091/1
f 350/1090/1 351/1092/1 372/1091/1
f 430/1093/1 373/1094/1 352/1095/1
f 352/1095/1 373/1094/1 353/1096/1
f 447/1097/110 232/1098/110 233/1099/110
f 233/1099/110 315/1100/110 447/1097/110
f 441/1101/110 234/1102/110 235/1103/110
f 235/1103/110 360/1104/110 441/1101/110
f 431/1105/110 236/1106/110 237/1107/110
f 237/1107/110 394/1108/110 431/1105/110
f 238/1106/110 432/1105/110 239/1107/110
f 239/1107/110 432/1105/110 395/1108/110
f 442/1109/110 241/1110/110 240/1111/110
f 241/1110/110 442/1109/110 361/1112/110
f 242/1113/110 448/1114/110 243/1115/110
f 243/1115/110 448/1114/110 320/1116/110
f 418/1117/1 329/1118/1 362/1119/1
f 329/1118/1 330/1120/1 362/1119/1
f 366/1121/1 333/1122/1 420/1123/1
f 333/1122/1 366/1121/1 334/1124/1
f 312/1125/111 404/1126/111 311/1127/111
f 404/1126/111 312/1125/111 376/1128/111
f 409/1129/112 314/1130/112 313/1131/112
f 314/1130/112 409/1129/112 383/1132/112
f 54/1133/113 342/1134/113 411/1135/113
f 342/1134/113 54/1133/113 56/1136/113
f 57/1137/114 412/1138/114 347/1139/114
f 57/1137/114 347/1139/114 60/1140/114
f 356/1141/1 357/1142/1 377/1143/1
f 377/1143/1 405/1144/1 356/1141/1
f 408/1145/1 382/1146/1 358/1147/1
f 358/1147/1 382/1146/1 359/1148/1
f 384/1149/112 379/1150/112 378/1151/112
f 378/1151/112 406/1152/112 384/1149/112
f 380/1151/111 385/1149/111 407/1152/111
f 385/1149/111 380/1151/111 381/1150/111
f 414/1153/28 261/1154/28 260/1155/28
f 261/1154/28 414/1153/28 354/1156/28
f 415/1157/28 263/1158/28 262/1159/28
f 415/1157/28 262/1159/28 355/1160/28
f 410/1161/115 317/1162/115 340/1163/115
f 319/1164/115 340/1163/115 317/1162/115
f 345/1165/116 321/1166/116 413/1167/116
f 321/1166/116 345/1165/116 324/1168/116
f 225/1169/117 340/1163/117 226/1170/117
f 340/1163/117 225/1169/117 410/1161/117
f 345/1165/118 227/1171/118 228/1172/118
f 227/1171/118 345/1165/118 413/1167/118
f 41/41/39 411/1135/39 42/44/39
f 342/1134/39 42/44/39 411/1135/39
f 44/48/38 412/1138/38 43/45/38
f 412/1138/38 44/48/38 347/1139/38
