# Roblox asset pack: animal_seal (creatures), from the Studio model "Seal". Exported with Export Selection, split by tools/build_creatures.py: one object per rigid body. Units: studs. +Y up, front faces -Z, pivot (bottom centre) at the origin.
mtllib animal_seal.mtl

v 3.26890 0.68990 0.38000
v 3.26890 1.44990 0.38000
v 3.26890 0.68990 0.60000
v 3.26890 1.44990 0.60000
v 3.26890 0.68990 -0.60000
v 3.26890 1.44990 -0.60000
v 3.26890 0.68990 -0.38000
v 3.26890 1.44990 -0.38000
v 2.10970 1.05990 0.32000
v 2.10970 1.05990 -0.32000
v 2.10970 1.46990 0.32000
v 2.10970 1.46990 -0.32000
v 2.03730 0.64990 0.31000
v 2.03730 0.64990 -0.31000
v 2.03730 1.04990 0.31000
v 2.03730 1.04990 -0.31000
v 2.76920 0.68990 0.00000
v 2.76920 1.44990 0.00000
v -3.26890 1.28990 -0.10000
v -3.26890 1.07990 0.10000
v -3.26890 1.28990 0.10000
v -3.26890 1.07990 -0.10000
v -3.20180 1.22990 0.32000
v -3.20180 0.84990 0.11000
v -3.22460 0.84990 0.36000
v -3.20180 0.93990 0.02000
v -3.20180 1.22990 0.02000
v -3.19490 0.94990 0.02000
v -3.19490 1.22990 0.02000
v -3.19490 1.22990 -0.02000
v -3.19490 0.94990 -0.02000
v -3.20180 0.93990 -0.02000
v -3.20180 1.22990 -0.32000
v -3.20180 0.84990 -0.11000
v -3.22460 0.84990 -0.36000
v -3.20180 1.22990 -0.02000
v -3.18530 1.16990 0.30000
v -3.18530 0.81990 0.10000
v -3.20620 0.81990 0.33000
v -3.18530 0.91990 0.00000
v -3.18530 1.16990 0.00000
v -3.18530 1.16990 -0.30000
v -3.18530 0.81990 -0.10000
v -3.20620 0.81990 -0.33000
v 1.10340 1.95990 0.56000
v 1.10340 1.95990 -0.56000
v -3.14950 1.18990 -0.25000
v -3.14950 0.67990 0.25000
v -3.14950 1.18990 0.25000
v -3.14950 0.67990 -0.25000
v -2.98900 1.26990 0.35000
v -2.98900 1.45990 0.15000
v -2.98900 1.26990 0.15000
v -2.98900 1.45990 0.35000
v -2.98900 1.45990 -0.15000
v -2.98900 1.26990 -0.35000
v -2.98900 1.26990 -0.15000
v -2.98900 1.45990 -0.35000
v -2.97090 1.24990 0.40000
v -2.97090 1.52990 0.12000
v -2.97090 1.24990 0.12000
v -2.97090 1.52990 0.40000
v -2.97090 1.52990 -0.12000
v -2.97090 1.24990 -0.40000
v -2.97090 1.24990 -0.12000
v -2.97090 1.52990 -0.40000
v -2.92240 1.87990 -0.50000
v -2.92240 1.23990 0.50000
v -2.92240 1.87990 0.50000
v -2.92240 1.23990 -0.50000
v -2.87350 1.22990 -0.49000
v -2.87350 0.60990 0.49000
v -2.87350 1.22990 0.49000
v -2.87350 0.60990 -0.49000
v -0.46860 0.53990 1.19000
v -0.95780 0.16990 1.46000
v -0.95780 -0.00010 1.23000
v -0.46860 0.37990 0.96000
v -0.46860 0.37990 -0.96000
v -0.95780 -0.00010 -1.23000
v -0.46860 0.53990 -1.19000
v -0.95780 0.16990 -1.46000
v 0.04570 1.95990 0.56000
v 0.04570 1.23990 0.70000
v 0.04570 1.23990 0.56000
v 0.04570 2.14990 0.70000
v 0.04570 2.14990 -0.70000
v 0.04570 1.95990 -0.56000
v 0.04570 1.23990 -0.70000
v 0.04570 1.23990 -0.56000
v 0.02310 1.22990 0.69000
v 0.02310 0.34990 0.69000
v 0.02310 0.52990 0.54000
v 0.02310 1.22990 0.54000
v 0.02310 0.34990 -0.69000
v 0.02310 0.52990 -0.54000
v 0.02310 1.22990 -0.69000
v 0.02310 1.22990 -0.54000
v -1.35180 0.34990 1.33000
v -1.35180 0.17990 1.10000
v -1.35180 0.34990 -1.33000
v -1.35180 0.17990 -1.10000
v -2.43970 1.23990 0.59000
v -2.43970 1.87990 0.50000
v -2.43970 1.23990 0.50000
v -2.43970 1.99990 0.59000
v -2.43970 1.99990 -0.59000
v -2.43970 1.87990 -0.50000
v -2.43970 1.23990 -0.59000
v -2.43970 1.23990 -0.50000
v 1.10340 1.23990 -0.56000
v 1.10340 1.23990 0.56000
v 1.05530 0.52990 0.54000
v 1.05530 1.22990 0.54000
v 1.05530 0.52990 -0.54000
v 1.05530 1.22990 -0.54000
v -2.40250 1.22990 0.58000
v -2.40250 0.60990 0.49000
v -2.40250 0.48990 0.58000
v -2.40250 1.22990 0.49000
v -2.40250 0.60990 -0.49000
v -2.40250 0.48990 -0.58000
v -2.40250 1.22990 -0.58000
v -2.40250 1.22990 -0.49000
v -1.77600 2.14990 -0.70000
v -1.77600 2.14990 0.70000
v -1.77440 1.99990 0.59000
v -1.77440 1.99990 -0.59000
v -1.75480 0.34990 -0.69000
v -1.75480 0.34990 0.69000
v -0.49240 0.54990 0.84000
v -0.49240 0.71990 1.07000
v -0.49240 0.54990 -0.84000
v -0.49240 0.71990 -1.07000
v -1.77600 1.23990 0.70000
v -1.77600 1.23990 -0.70000
v -1.75480 1.22990 -0.69000
v -1.75480 1.22990 0.69000
v -0.95780 1.25990 -0.68000
v -1.35180 1.25990 -0.68000
v -0.95780 1.25990 0.68000
v -1.35180 1.25990 0.68000
v -1.75320 0.48990 -0.58000
v -1.75320 0.48990 0.58000
v 2.76910 1.44990 0.60000
v 2.76910 0.68990 0.60000
v 2.76910 0.68990 -0.60000
v 2.76910 1.44990 -0.60000
v -1.77440 1.23990 -0.59000
v -1.77440 1.23990 0.59000
v -1.75320 1.22990 0.58000
v -1.75320 1.22990 -0.58000
v -2.88420 1.52990 0.12000
v -2.88420 1.52990 0.40000
v -2.88420 1.52990 -0.12000
v -2.88420 1.52990 -0.40000
v -2.64000 0.67990 0.25000
v -2.64000 0.67990 -0.25000
v 2.76910 0.68990 0.00000
v -2.88420 1.24990 -0.40000
v -2.88420 1.24990 0.40000
v -0.95780 1.08990 0.45000
v -2.93040 1.45990 0.35000
v -2.93040 1.45990 0.15000
v -2.93040 1.45990 -0.15000
v -2.93040 1.45990 -0.35000
v -2.93040 1.26990 -0.35000
v -2.93040 1.26990 0.35000
v 2.76910 1.44990 0.00000
v -2.81730 1.22990 -0.32000
v -2.79450 0.84990 -0.36000
v -2.79450 0.84990 0.36000
v -2.81730 1.22990 0.32000
v -2.83380 1.16990 -0.30000
v -2.81290 0.81990 -0.33000
v -2.81290 0.81990 0.33000
v -2.83380 1.16990 0.30000
v -2.83380 0.81990 0.10000
v -2.83380 0.81990 -0.10000
v -2.81730 0.84990 0.11000
v -2.64000 1.18990 0.25000
v -2.81730 0.84990 -0.11000
v -2.64000 1.18990 -0.25000
v -3.06490 1.28990 0.10000
v -3.06490 1.28990 -0.10000
v -2.82420 0.94990 0.02000
v -2.82420 0.94990 -0.02000
v -0.95780 1.08990 -0.45000
v -2.83380 0.91990 0.00000
v -2.81730 1.22990 0.02000
v -2.81730 1.22990 -0.02000
v -2.82420 1.22990 -0.02000
v -2.82420 1.22990 0.02000
v -2.81730 0.93990 0.02000
v -3.06490 1.07990 0.10000
v -2.81730 0.93990 -0.02000
v -3.06490 1.07990 -0.10000
v -2.83380 1.16990 0.00000
v -1.35180 1.08990 0.45000
v -1.35180 1.08990 -0.45000
v -2.88420 1.24990 0.12000
v -2.88420 1.24990 -0.12000
v -2.93040 1.26990 0.15000
v -2.93040 1.26990 -0.15000
v 1.99150 0.84990 0.34000
v 1.99150 0.84990 0.00000
v 1.99150 0.84990 -0.34000
v 1.99150 1.28990 0.34000
v 1.99150 1.28990 0.00000
v 1.99150 1.28990 -0.34000
vt 0.49940 0.83602
vt 0.59492 0.83601
vt 0.49940 0.86351
vt 0.59492 0.86350
vt 0.49939 0.65142
vt 0.59490 0.65142
vt 0.49939 0.67891
vt 0.59491 0.67891
vt 0.70923 0.31415
vt 0.70923 0.23382
vt 0.76087 0.31415
vt 0.76087 0.23382
vt 0.43797 0.44128
vt 0.43797 0.36288
vt 0.48836 0.44128
vt 0.48836 0.36288
vt 0.49940 0.75747
vt 0.59491 0.75746
vt 0.28954 0.32278
vt 0.31516 0.29716
vt 0.31516 0.32278
vt 0.28954 0.29716
vt 0.42527 0.92923
vt 0.39834 0.88096
vt 0.43024 0.88088
vt 0.38679 0.89250
vt 0.38681 0.92923
vt 0.15581 0.07641
vt 0.15584 0.11181
vt 0.15136 0.11181
vt 0.15138 0.07641
vt 0.21527 0.47218
vt 0.17680 0.50891
vt 0.20373 0.46063
vt 0.17183 0.46056
vt 0.21525 0.50890
vt 0.04714 0.83136
vt 0.00300 0.85599
vt 0.00293 0.82682
vt 0.01566 0.86865
vt 0.04714 0.86865
vt 0.04714 0.90594
vt 0.00300 0.88131
vt 0.00293 0.91048
vt 0.05317 0.43179
vt 0.16328 0.29123
vt 0.13350 0.43179
vt 0.02340 0.29122
vt 0.78856 0.81044
vt 0.72459 0.74646
vt 0.78856 0.74646
vt 0.72459 0.81044
vt 0.97026 0.37016
vt 0.99446 0.39441
vt 0.97026 0.39441
vt 0.99446 0.37016
vt 1.99446 0.39441
vt 1.97026 0.37016
vt 1.97026 0.39441
vt 1.99446 0.37016
vt 0.96002 0.22405
vt 0.99583 0.25994
vt 0.96002 0.25994
vt 0.99583 0.22405
vt 1.99583 0.25994
vt 1.96002 0.22405
vt 1.96002 0.25994
vt 1.99583 0.22405
vt 0.14484 0.14350
vt 0.06435 0.01827
vt 0.14484 0.01827
vt 0.06435 0.14350
vt 0.89527 0.40657
vt 0.81671 0.28435
vt 0.89527 0.28435
vt 0.81671 0.40657
vt 0.94980 0.09131
vt 0.94978 0.00677
vt 0.98550 0.00677
vt 0.98551 0.09130
vt 1.98551 0.09130
vt 1.98549 0.00677
vt 1.94980 0.09131
vt 1.94978 0.00677
vt 0.69166 0.88227
vt 0.60175 0.90071
vt 0.60175 0.88227
vt 0.71537 0.90071
vt 0.71537 0.72396
vt 0.69166 0.74240
vt 0.60175 0.72395
vt 0.60175 0.74240
vt 0.91224 0.88734
vt 0.80136 0.88734
vt 0.82450 0.86935
vt 0.91224 0.86935
vt 0.80136 0.71484
vt 0.82450 0.73284
vt 0.91224 0.71484
vt 0.91224 0.73284
vt 0.41378 0.41231
vt 0.37846 0.46945
vt 0.36270 0.43741
vt 0.42953 0.44436
vt 1.37846 0.46945
vt 1.41378 0.41231
vt 1.36271 0.43741
vt 1.42953 0.44436
vt 0.01828 0.81225
vt 0.09878 0.82404
vt 0.01828 0.82404
vt 0.11394 0.81225
vt 0.11394 0.96106
vt 0.09878 0.94927
vt 0.01828 0.96106
vt 0.01828 0.94927
vt 0.42928 0.58933
vt 0.46893 0.71611
vt 0.41750 0.72068
vt 0.51883 0.58137
vt 0.23832 0.50597
vt 0.27681 0.37883
vt 0.28979 0.51007
vt 0.18718 0.37170
vt 0.74225 0.74262
vt 0.80721 0.61595
vt 0.79264 0.74262
vt 0.71947 0.61595
vt 0.76041 0.13636
vt 0.82536 0.26303
vt 0.77497 0.26303
vt 0.84816 0.13637
vt 0.99707 0.26511
vt 0.91851 0.27662
vt 0.90372 0.26511
vt 0.99707 0.27662
vt 0.91851 0.39883
vt 0.90372 0.41033
vt 0.99707 0.41033
vt 0.99707 0.39883
vt 0.18718 0.00677
vt 0.36394 0.00677
vt 0.36394 0.23549
vt 0.18718 0.23549
vt 0.63410 0.00677
vt 0.63410 0.15558
vt 0.55057 0.15558
vt 0.55057 0.00677
vt 0.02341 0.15842
vt 0.16329 0.15843
vt 0.49939 0.36341
vt 0.60684 0.48756
vt 0.52845 0.48756
vt 0.63590 0.36341
vt 0.49346 0.23382
vt 0.49346 0.35905
vt 0.43285 0.35905
vt 0.43285 0.23382
vt 0.54394 0.00677
vt 0.37144 0.22998
vt 0.37144 0.00677
vt 0.54394 0.22998
vt 0.98551 0.11897
vt 0.94980 0.11898
vt 1.98551 0.11897
vt 1.94980 0.11898
vt 0.71537 0.49140
vt 0.71537 0.72012
vt 0.60175 0.49140
vt 0.60175 0.72012
vt 0.28545 0.51391
vt 0.28545 0.74262
vt 0.17183 0.51391
vt 0.17183 0.74262
vt 0.75358 0.00677
vt 0.75358 0.22998
vt 0.64270 0.00677
vt 0.64270 0.22998
vt 0.41066 0.47326
vt 0.41066 0.69647
vt 0.29978 0.47326
vt 0.29978 0.69647
vt 1.37283 0.26946
vt 1.42221 0.27242
vt 1.30953 0.34845
vt 1.30490 0.37573
vt 0.37283 0.26946
vt 0.42221 0.27242
vt 0.30953 0.34845
vt 0.30490 0.37573
vt 0.37283 0.26944
vt 0.99548 0.41417
vt 0.91396 0.55940
vt 0.91396 0.41417
vt 0.99548 0.55940
vt 0.90712 0.60865
vt 0.81160 0.54592
vt 0.90711 0.54591
vt 0.81160 0.60867
vt 0.84743 0.19852
vt 0.94294 0.19853
vt 0.84742 0.26126
vt 0.94294 0.26127
vt 0.99237 0.61249
vt 0.90884 0.70814
vt 0.90884 0.61249
vt 0.99237 0.70814
vt 0.11717 0.43563
vt 0.11717 0.53128
vt 0.03364 0.53128
vt 0.03364 0.43563
vt 0.90335 0.61251
vt 0.90335 0.70585
vt 0.82183 0.70585
vt 0.82183 0.61251
vt 0.99548 0.73668
vt 0.91396 0.83003
vt 0.91396 0.73668
vt 0.99548 0.83003
vt 0.63590 0.23382
vt 0.49939 0.23382
vt 0.41752 0.45706
vt 0.50708 0.44910
vt 0.19772 0.23932
vt 0.28735 0.24646
vt 0.76042 0.00677
vt 0.84816 0.00677
vt 0.71948 0.48635
vt 0.80722 0.48636
vt 0.91314 0.00677
vt 0.85254 0.08727
vt 0.85254 0.00677
vt 0.91314 0.08727
vt 0.59436 0.61361
vt 0.53522 0.49140
vt 0.59436 0.49140
vt 0.53522 0.61361
vt 0.70330 0.23382
vt 0.70330 0.31431
vt 0.64270 0.31431
vt 0.64270 0.23382
vt 0.11325 0.53512
vt 0.05411 0.61368
vt 0.05411 0.53512
vt 0.11325 0.61368
vt 0.49200 0.72361
vt 0.49200 0.80217
vt 0.43285 0.80217
vt 0.43285 0.72361
vt 0.17248 0.00677
vt 0.17248 0.04266
vt 0.16159 0.00677
vt 0.16159 0.04266
vt 0.29466 0.70031
vt 0.40828 0.70032
vt 0.39032 0.71429
vt 0.29466 0.71428
vt 0.40828 0.87707
vt 0.39032 0.86310
vt 1.17248 0.04266
vt 1.17248 0.00677
vt 1.16159 0.00677
vt 1.16159 0.04266
vt 0.29466 0.87708
vt 0.29466 0.86311
vt 0.66573 0.81021
vt 0.60175 0.74623
vt 0.66573 0.74623
vt 0.60175 0.81021
vt 0.63247 0.41975
vt 0.65995 0.48250
vt 0.63246 0.48250
vt 0.70723 0.41977
vt 0.70723 0.41976
vt 0.78199 0.41977
vt 0.75449 0.48251
vt 0.78198 0.48252
vt 0.89689 0.26687
vt 0.80354 0.28052
vt 0.78600 0.26688
vt 0.89689 0.28051
vt 0.78600 0.43938
vt 0.80354 0.42574
vt 0.89689 0.43939
vt 0.89689 0.42575
vt 1.63311 0.15942
vt 1.62222 0.19522
vt 1.63311 0.19522
vt 1.62222 0.15942
vt 0.63311 0.15942
vt 0.63311 0.19522
vt 0.62222 0.19522
vt 0.62222 0.15942
vt 0.02116 0.38038
vt 0.00293 0.37949
vt 0.00535 0.37666
vt 0.02330 0.37751
vt 0.00293 0.00293
vt 0.17807 0.37742
vt 0.16206 0.38096
vt 0.16003 0.37804
vt 0.18049 0.38029
vt 0.17183 0.09884
vt 0.17183 0.07458
vt 0.17918 0.09884
vt 0.17918 0.07458
vt 1.17918 0.09884
vt 1.17918 0.07458
vt 1.17183 0.07458
vt 1.17183 0.09884
vt 1.17918 0.10268
vt 1.17183 0.12687
vt 1.17918 0.12687
vt 1.17183 0.10268
vt 0.17918 0.10268
vt 0.17918 0.12687
vt 0.17183 0.12687
vt 0.17183 0.10268
vt 0.07769 0.74567
vt 0.15245 0.74567
vt 0.12496 0.80842
vt 0.15245 0.80842
vt 0.00293 0.74566
vt 0.03042 0.80841
vt 0.00293 0.80841
vt 0.34319 0.29045
vt 0.29466 0.23932
vt 0.34318 0.24218
vt 0.29468 0.29332
vt 0.33049 0.80653
vt 0.37901 0.80365
vt 0.37902 0.85765
vt 0.33050 0.85480
vt 0.31345 0.92646
vt 0.26907 0.87972
vt 0.31344 0.88232
vt 0.26909 0.92909
vt 0.43797 0.87645
vt 0.48233 0.87382
vt 0.48234 0.92320
vt 0.43798 0.92059
vt 0.90442 0.76573
vt 0.85766 0.73668
vt 0.90704 0.73668
vt 0.86028 0.76574
vt 0.90705 0.83059
vt 0.86029 0.80154
vt 0.90443 0.80154
vt 0.85767 0.83060
vt 0.04989 0.63106
vt 0.12900 0.64219
vt 0.04846 0.64010
vt 0.12764 0.63306
vt 0.48915 0.86688
vt 0.52093 0.91802
vt 0.48916 0.92088
vt 0.52092 0.86974
vt 0.68108 0.81405
vt 0.68108 0.87803
vt 0.61711 0.87803
vt 0.61711 0.81405
vt 0.56178 0.87020
vt 0.59355 0.92133
vt 0.56178 0.91847
vt 0.59355 0.86733
vt 0.78856 0.81428
vt 0.72459 0.87826
vt 0.72459 0.81428
vt 0.78856 0.87826
vt 0.18048 0.15194
vt 0.17806 0.15463
vt 0.00306 0.15209
vt 0.00547 0.15479
vt 0.16424 0.07260
vt 0.16658 0.15154
vt 0.16447 0.15429
vt 0.16635 0.06789
vt 0.01918 0.07352
vt 0.01913 0.15457
vt 0.01702 0.15184
vt 0.01706 0.06886
vt 0.15982 0.50813
vt 0.16192 0.51418
vt 0.01581 0.51333
vt 0.01809 0.50735
vt 0.03092 0.01487
vt 0.03071 0.07330
vt 0.02883 0.06860
vt 0.02913 0.00873
vt 0.15272 0.07247
vt 0.15147 0.01302
vt 0.15452 0.06766
vt 0.15314 0.00677
vt 0.94469 0.06568
vt 0.94469 0.09130
vt 0.91908 0.09130
vt 0.91908 0.06568
vt 0.86278 0.89118
vt 0.89885 0.89206
vt 0.86344 0.89206
vt 0.89952 0.89118
vt 0.81739 0.89206
vt 0.85346 0.89119
vt 0.85279 0.89206
vt 0.81672 0.89118
vt 0.00736 0.04649
vt 0.00293 0.09303
vt 0.00293 0.04649
vt 0.00736 0.09303
vt 0.98553 0.22021
vt 0.94982 0.22021
vt 1.94982 0.22021
vt 1.98553 0.22021
vt 0.90442 0.78363
vt 0.86028 0.78364
vt 0.80911 0.89118
vt 0.80911 0.93946
vt 0.77065 0.93946
vt 0.77065 0.89118
vt 0.76304 0.88209
vt 0.76304 0.93037
vt 0.72459 0.93037
vt 0.72459 0.88209
vt 0.99073 0.05330
vt 0.99521 0.00677
vt 0.99521 0.05330
vt 0.99073 0.00677
vt 0.53725 0.86974
vt 0.53726 0.91802
vt 0.94469 0.00677
vt 0.94469 0.03239
vt 0.91908 0.03239
vt 0.91908 0.00677
vt 0.54545 0.91847
vt 0.54546 0.87019
vt 0.94469 0.06184
vt 0.91908 0.06184
vt 0.94469 0.03622
vt 0.91908 0.03622
vt 0.41750 0.86998
vt 0.48148 0.80600
vt 0.48148 0.86998
vt 0.41750 0.80600
vt 0.96322 0.87115
vt 0.96322 0.90844
vt 0.91908 0.87115
vt 0.91908 0.90844
vt 0.91908 0.83386
vt 0.96322 0.83386
vt 0.05926 0.07718
vt 0.03364 0.10280
vt 0.03364 0.07718
vt 0.05926 0.10280
vt 0.12065 0.86119
vt 0.26078 0.86119
vt 0.26078 0.89690
vt 0.12065 0.89690
vt 1.12065 0.86119
vt 1.26078 0.89690
vt 1.26079 0.86119
vt 1.12065 0.89690
vt 0.86278 0.93947
vt 0.86345 0.93859
vt 0.85345 0.93947
vt 0.85279 0.93860
vt 0.89952 0.93946
vt 0.89885 0.93859
vt 0.81671 0.93946
vt 0.81738 0.93859
vt 1.00293 0.00293
vt 0.04387 0.05440
vt 0.05476 0.01859
vt 0.05476 0.05440
vt 0.04387 0.01859
vt 1.05476 0.05440
vt 1.05476 0.01859
vt 1.04387 0.05440
vt 1.04387 0.01859
vt 0.01382 0.04266
vt 0.00293 0.00677
vt 0.01382 0.00677
vt 0.00293 0.04266
vt 1.01382 0.04266
vt 1.00293 0.00677
vt 1.00293 0.04266
vt 1.01382 0.00677
vt 0.94179 0.09514
vt 0.93443 0.11934
vt 0.93443 0.09514
vt 0.94179 0.11934
vt 1.93443 0.09514
vt 1.93443 0.11934
vt 1.94179 0.09514
vt 1.94179 0.11934
vt 0.17918 0.04649
vt 0.17183 0.07075
vt 0.17183 0.04649
vt 0.17918 0.07075
vt 1.17918 0.04649
vt 1.17183 0.07075
vt 1.17918 0.07075
vt 1.17183 0.04649
vt 0.42435 0.23678
vt 0.37497 0.23381
vt 1.42435 0.23678
vt 1.37497 0.23381
vt 0.18972 0.74646
vt 0.32985 0.79594
vt 0.16159 0.79593
vt 0.32986 0.74647
vt 0.24718 0.85437
vt 0.21968 0.85735
vt 1.16159 0.79593
vt 1.32985 0.79594
vt 1.18972 0.74646
vt 1.32986 0.74647
vt 1.32986 0.79594
vt 1.24718 0.85437
vt 1.21968 0.85735
vt 0.66431 0.32003
vt 0.70724 0.32004
vt 0.75018 0.32004
vt 0.12063 0.64595
vt 0.07770 0.64594
vt 0.03477 0.64594
vt 0.86777 0.09583
vt 0.92262 0.09584
vt 0.88676 0.44322
vt 0.83191 0.44323
vt 0.55057 0.22340
vt 0.55057 0.15942
vt 0.61455 0.22339
vt 0.61455 0.15942
vt 0.29963 0.46249
vt 0.29466 0.41415
vt 0.32656 0.41422
vt 0.33811 0.42576
vt 0.33809 0.46249
vt 0.34715 0.88099
vt 0.37409 0.92926
vt 0.33561 0.89253
vt 0.33563 0.92926
vt 0.37905 0.88092
vt 0.99519 0.05714
vt 0.99073 0.09254
vt 0.99075 0.05714
vt 0.99521 0.09254
vt 0.37982 0.79724
vt 0.33561 0.80178
vt 0.33568 0.77261
vt 0.34834 0.75995
vt 0.37982 0.75996
vt 0.33568 0.74729
vt 0.37983 0.72267
vt 0.33562 0.71812
vt 0.03364 0.10664
vt 0.05926 0.10664
vt 0.03364 0.13226
vt 0.05926 0.13226
vt 0.97905 0.28045
vt 0.92419 0.32339
vt 0.92419 0.28045
vt 0.97905 0.32339
vt 0.92419 0.36632
vt 0.97905 0.36632
vn 1.0000 0.0000 0.0000
vn 0.5984 0.0000 -0.7953
vn 0.5984 0.0000 0.7953
vn -1.0000 0.0000 0.0000
vn -1.0000 0.0236 -0.0394
vn -1.0000 0.0236 0.0394
vn -1.0000 0.0157 -0.0315
vn -1.0000 0.0157 0.0315
vn 0.4409 0.8976 0.0000
vn 0.6850 -0.5906 0.4252
vn 0.6850 -0.5906 -0.4252
vn -0.4961 -0.7087 0.5039
vn -0.4961 -0.7087 -0.5039
vn 0.2283 0.0000 -0.9764
vn 0.2283 0.0000 0.9764
vn 0.0000 1.0000 0.0000
vn 0.1181 -0.9921 0.0000
vn 0.0000 -1.0000 0.0000
vn 0.9921 0.0866 -0.0630
vn 0.9921 0.0866 0.0630
vn 0.0000 0.0000 1.0000
vn 0.0000 0.0000 -1.0000
vn 0.0000 0.5827 -0.8110
vn 0.0000 0.5827 0.8110
vn -1.0000 0.0000 -0.0157
vn -1.0000 -0.0079 0.0000
vn -1.0000 0.0000 0.0157
vn -1.0000 0.0079 0.0000
vn 0.3780 -0.9291 0.0000
vn 0.0000 0.1024 -0.9921
vn 0.0000 0.1024 0.9921
vn 0.0630 -1.0000 0.0000
vn 0.0000 -0.8819 -0.4724
vn 0.0000 -0.8819 0.4724
vn 0.0000 -0.8425 -0.5354
vn 0.0000 -0.8425 0.5354
vn 0.0000 -0.8268 -0.5669
vn 0.0000 -0.8268 0.5669
vn 0.0000 -0.7953 0.6063
vn -0.0079 -0.8110 -0.5906
vn 0.0000 -0.7953 -0.6063
vn -0.0079 -0.8110 0.5906
vn -0.0945 0.0000 -0.9921
vn -0.0945 0.0000 0.9921
vn -0.1811 -0.9843 0.0000
vn 0.8189 0.4724 -0.3386
vn 0.8189 0.4724 0.3386
vn 0.0000 -0.7087 -0.7087
vn 0.0000 -0.7087 0.7087
vn -0.2362 -0.9685 0.0000
vn -0.4016 -0.9134 -0.0079
vn -0.4016 -0.9134 0.0079
vn 0.0000 -0.1260 -0.9921
vn 0.0000 -0.1260 0.9921
vn 0.0000 0.1260 -0.9921
vn 0.0000 0.1260 0.9921
vn 0.0945 0.0000 -0.9921
vn 0.0945 0.0000 0.9921
vn 0.0000 0.8110 -0.5827
vn 0.0000 0.8110 0.5827
vn 0.0000 -0.5827 -0.8110
vn 0.0000 -0.5827 0.8110
vn -0.2047 -0.9764 0.0000
vn -0.2047 0.9764 0.0000
vn -0.3071 0.0000 -0.9528
vn -0.3071 0.0000 0.9528
vn 1.0000 0.0236 -0.0394
vn 1.0000 0.0236 0.0394
vn 1.0000 0.0157 -0.0315
vn 1.0000 0.0157 0.0315

o animal_seal
usemtl tex_animal_seal_i044p001x
f 1/1/1 2/2/1 3/3/1
f 3/3/1 2/2/1 4/4/1
f 5/5/1 6/6/1 7/7/1
f 7/7/1 6/6/1 8/8/1
f 9/9/1 10/10/1 11/11/1
f 10/10/1 12/12/1 11/11/1
f 13/13/1 14/14/1 15/15/1
f 14/14/1 16/16/1 15/15/1
f 17/17/2 18/18/2 1/1/2
f 18/18/2 2/2/2 1/1/2
f 7/7/3 18/18/3 17/17/3
f 18/18/3 7/7/3 8/8/3
f 19/19/4 20/20/4 21/21/4
f 20/20/4 19/19/4 22/22/4
f 23/23/5 24/24/5 25/25/5
f 24/24/5 23/23/5 26/26/5
f 26/26/5 23/23/5 27/27/5
f 28/28/4 29/29/4 30/30/4
f 30/30/4 31/31/4 28/28/4
f 32/32/6 33/33/6 34/34/6
f 34/34/6 33/33/6 35/35/6
f 33/33/6 32/32/6 36/36/6
f 37/37/7 38/38/7 39/39/7
f 38/38/7 37/37/7 40/40/7
f 40/40/7 37/37/7 41/41/7
f 40/40/8 42/42/8 43/43/8
f 43/43/8 42/42/8 44/44/8
f 42/42/8 40/40/8 41/41/8
f 12/45/9 45/46/9 11/47/9
f 45/46/9 12/45/9 46/48/9
f 47/49/4 48/50/4 49/51/4
f 48/50/4 47/49/4 50/52/4
f 51/53/4 52/54/4 53/55/4
f 52/54/4 51/53/4 54/56/4
f 55/57/4 56/58/4 57/59/4
f 55/57/4 58/60/4 56/58/4
f 59/61/4 60/62/4 61/63/4
f 60/62/4 59/61/4 62/64/4
f 63/65/4 64/66/4 65/67/4
f 63/65/4 66/68/4 64/66/4
f 67/69/4 68/70/4 69/71/4
f 68/70/4 67/69/4 70/72/4
f 71/73/4 72/74/4 73/75/4
f 72/74/4 71/73/4 74/76/4
f 75/77/10 76/78/10 77/79/10
f 75/77/10 77/79/10 78/80/10
f 79/81/11 80/82/11 81/83/11
f 82/84/11 81/83/11 80/82/11
f 83/85/1 84/86/1 85/87/1
f 84/86/1 83/85/1 86/88/1
f 83/85/1 87/89/1 86/88/1
f 83/85/1 88/90/1 87/89/1
f 89/91/1 87/89/1 88/90/1
f 89/91/1 88/90/1 90/92/1
f 91/93/1 92/94/1 93/95/1
f 93/95/1 94/96/1 91/93/1
f 95/97/1 93/95/1 92/94/1
f 93/95/1 95/97/1 96/98/1
f 96/98/1 97/99/1 98/100/1
f 97/99/1 96/98/1 95/97/1
f 99/101/12 77/102/12 76/103/12
f 77/102/12 99/101/12 100/104/12
f 80/105/13 101/106/13 82/107/13
f 101/106/13 80/105/13 102/108/13
f 103/109/4 104/110/4 105/111/4
f 103/109/4 106/112/4 104/110/4
f 107/113/4 104/110/4 106/112/4
f 104/110/4 107/113/4 108/114/4
f 109/115/4 108/114/4 107/113/4
f 108/114/4 109/115/4 110/116/4
f 111/117/14 12/118/14 10/119/14
f 46/120/14 12/118/14 111/117/14
f 11/121/15 112/122/15 9/123/15
f 112/122/15 11/121/15 45/124/15
f 15/125/15 113/126/15 13/127/15
f 113/126/15 15/125/15 114/128/15
f 115/129/14 16/130/14 14/131/14
f 116/132/14 16/130/14 115/129/14
f 117/133/4 118/134/4 119/135/4
f 118/134/4 117/133/4 120/136/4
f 121/137/4 119/135/4 118/134/4
f 119/135/4 121/137/4 122/138/4
f 123/139/4 122/138/4 121/137/4
f 121/137/4 124/140/4 123/139/4
f 125/141/16 126/142/16 86/143/16
f 125/141/16 86/143/16 87/144/16
f 107/145/16 106/146/16 127/147/16
f 107/145/16 127/147/16 128/148/16
f 45/46/16 88/149/16 83/150/16
f 88/149/16 45/46/16 46/48/16
f 113/151/17 14/152/17 13/153/17
f 115/154/17 14/152/17 113/151/17
f 67/155/16 69/156/16 104/157/16
f 67/155/16 104/157/16 108/158/16
f 129/159/18 92/160/18 130/161/18
f 92/160/18 129/159/18 95/162/18
f 131/163/19 75/77/19 78/80/19
f 75/77/19 131/163/19 132/164/19
f 81/83/20 133/165/20 79/81/20
f 133/165/20 81/83/20 134/166/20
f 135/167/21 84/168/21 126/169/21
f 126/169/21 84/168/21 86/170/21
f 125/171/22 87/172/22 136/173/22
f 136/173/22 87/172/22 89/174/22
f 137/175/22 97/176/22 129/177/22
f 129/177/22 97/176/22 95/178/22
f 130/179/21 92/180/21 138/181/21
f 138/181/21 92/180/21 91/182/21
f 101/106/23 139/183/23 82/107/23
f 139/183/23 101/106/23 140/184/23
f 82/107/23 134/185/23 81/186/23
f 134/185/23 82/107/23 139/183/23
f 141/187/24 99/101/24 76/103/24
f 99/101/24 141/187/24 142/188/24
f 132/189/24 76/103/24 75/190/24
f 76/103/24 132/189/24 141/191/24
f 119/192/18 143/193/18 144/194/18
f 119/192/18 122/195/18 143/193/18
f 3/196/21 145/197/21 146/198/21
f 145/197/21 3/196/21 4/199/21
f 147/200/22 148/201/22 5/202/22
f 148/201/22 6/203/22 5/202/22
f 109/204/22 128/205/22 149/206/22
f 109/204/22 107/207/22 128/205/22
f 106/208/21 103/209/21 150/210/21
f 106/208/21 150/210/21 127/211/21
f 117/212/21 119/213/21 144/214/21
f 117/212/21 144/214/21 151/215/21
f 122/216/22 152/217/22 143/218/22
f 122/216/22 123/219/22 152/217/22
f 96/220/18 113/151/18 93/221/18
f 113/151/18 96/220/18 115/154/18
f 90/222/22 46/120/22 111/117/22
f 88/223/22 46/120/22 90/222/22
f 83/224/21 85/225/21 112/122/21
f 83/224/21 112/122/21 45/124/21
f 96/226/22 116/132/22 115/129/22
f 98/227/22 116/132/22 96/226/22
f 94/228/21 93/229/21 113/126/21
f 94/228/21 113/126/21 114/128/21
f 70/230/22 108/231/22 110/232/22
f 70/230/22 67/233/22 108/231/22
f 74/234/18 118/235/18 72/236/18
f 118/235/18 74/234/18 121/237/18
f 69/238/21 68/239/21 105/240/21
f 69/238/21 105/240/21 104/241/21
f 74/242/22 124/243/22 121/244/22
f 74/242/22 71/245/22 124/243/22
f 73/246/21 72/247/21 118/248/21
f 73/246/21 118/248/21 120/249/21
f 60/250/16 62/251/16 153/252/16
f 154/253/16 153/252/16 62/251/16
f 135/254/25 126/255/25 127/256/25
f 135/254/25 127/256/25 150/257/25
f 125/258/26 127/256/26 126/255/26
f 127/256/26 125/258/26 128/259/26
f 66/260/16 63/261/16 155/262/16
f 66/260/16 155/262/16 156/263/16
f 128/259/27 136/264/27 149/265/27
f 136/264/27 128/259/27 125/258/27
f 50/266/18 157/267/18 48/268/18
f 157/267/18 50/266/18 158/269/18
f 146/270/18 1/271/18 3/272/18
f 1/271/18 146/270/18 17/273/18
f 146/270/18 159/274/18 17/273/18
f 147/275/18 17/273/18 159/274/18
f 147/275/18 7/276/18 17/273/18
f 7/276/18 147/275/18 5/277/18
f 138/278/25 144/279/25 130/280/25
f 144/279/25 138/278/25 151/281/25
f 129/282/28 130/280/28 144/279/28
f 129/282/28 144/279/28 143/283/28
f 137/284/27 129/282/27 143/283/27
f 143/283/27 152/285/27 137/284/27
f 66/286/22 160/287/22 64/288/22
f 160/287/22 66/286/22 156/289/22
f 62/290/21 59/291/21 161/292/21
f 62/290/21 161/292/21 154/293/21
f 85/294/29 84/295/29 91/296/29
f 91/296/29 94/297/29 85/294/29
f 141/298/16 141/298/16 162/298/16
f 162/298/16 162/298/16 141/298/16
f 97/299/29 90/300/29 98/301/29
f 90/300/29 97/299/29 89/302/29
f 163/303/16 164/304/16 54/305/16
f 52/306/16 54/305/16 164/304/16
f 58/307/16 55/308/16 165/309/16
f 58/307/16 165/309/16 166/310/16
f 58/311/22 167/312/22 56/313/22
f 167/312/22 58/311/22 166/314/22
f 54/315/21 51/316/21 168/317/21
f 54/315/21 168/317/21 163/318/21
f 18/319/16 145/320/16 2/321/16
f 2/321/16 145/320/16 4/322/16
f 145/320/16 18/319/16 169/319/16
f 148/323/16 169/319/16 18/319/16
f 8/324/16 148/323/16 18/319/16
f 148/323/16 8/324/16 6/325/16
f 170/326/30 35/327/30 33/328/30
f 35/327/30 170/326/30 171/329/30
f 23/330/31 25/331/31 172/332/31
f 23/330/31 172/332/31 173/333/31
f 174/334/30 44/335/30 42/336/30
f 44/335/30 174/334/30 175/337/30
f 37/338/31 39/339/31 176/340/31
f 37/338/31 176/340/31 177/341/31
f 38/342/18 176/343/18 39/344/18
f 176/343/18 38/342/18 178/345/18
f 44/346/18 179/347/18 43/348/18
f 179/347/18 44/346/18 175/349/18
f 15/350/32 10/351/32 9/352/32
f 15/350/32 16/353/32 10/351/32
f 25/354/18 180/355/18 172/356/18
f 180/355/18 25/354/18 24/357/18
f 49/358/21 48/359/21 157/360/21
f 49/358/21 157/360/21 181/361/21
f 34/362/18 171/363/18 182/364/18
f 171/363/18 34/362/18 35/365/18
f 50/366/22 183/367/22 158/368/22
f 47/369/22 183/367/22 50/366/22
f 136/370/33 97/299/33 137/371/33
f 136/370/33 89/302/33 97/299/33
f 91/296/34 135/372/34 138/373/34
f 135/372/34 91/296/34 84/295/34
f 123/374/35 149/375/35 152/376/35
f 109/377/35 149/375/35 123/374/35
f 117/378/36 151/379/36 150/380/36
f 150/380/36 103/381/36 117/378/36
f 116/382/37 98/301/37 90/300/37
f 90/300/37 111/383/37 116/382/37
f 112/384/38 85/294/38 114/385/38
f 114/385/38 85/294/38 94/297/38
f 73/386/39 120/387/39 105/388/39
f 105/388/39 68/389/39 73/386/39
f 111/383/40 10/351/40 16/353/40
f 16/353/40 116/382/40 111/383/40
f 124/390/41 71/391/41 110/392/41
f 70/393/41 110/392/41 71/391/41
f 9/352/42 112/384/42 15/350/42
f 15/350/42 112/384/42 114/385/42
f 21/394/16 184/395/16 185/396/16
f 19/397/16 21/394/16 185/396/16
f 26/398/43 29/399/43 28/400/43
f 26/398/43 27/401/43 29/399/43
f 30/402/44 32/403/44 31/404/44
f 32/403/44 30/402/44 36/405/44
f 31/406/18 186/407/18 28/408/18
f 186/407/18 31/406/18 187/409/18
f 70/393/45 73/386/45 68/389/45
f 73/386/45 70/393/45 71/391/45
f 162/410/46 132/164/46 131/163/46
f 132/164/46 162/410/46 141/411/46
f 134/166/47 139/412/47 188/413/47
f 134/166/47 188/413/47 133/165/47
f 40/414/48 189/415/48 38/342/48
f 38/342/48 189/415/48 178/345/48
f 23/416/16 173/417/16 190/418/16
f 27/419/16 23/416/16 190/418/16
f 40/414/49 179/347/49 189/415/49
f 43/348/49 179/347/49 40/414/49
f 36/420/16 191/421/16 170/422/16
f 33/423/16 36/420/16 170/422/16
f 105/388/50 117/378/50 103/381/50
f 117/378/50 105/388/50 120/387/50
f 110/392/50 123/374/50 124/390/50
f 110/392/50 109/377/50 123/374/50
f 192/424/16 29/425/16 193/426/16
f 29/425/16 192/424/16 30/427/16
f 26/428/48 194/429/48 24/357/48
f 24/357/48 194/429/48 180/355/48
f 21/430/21 20/431/21 195/432/21
f 21/430/21 195/432/21 184/433/21
f 34/362/49 196/434/49 32/435/49
f 196/434/49 34/362/49 182/364/49
f 19/436/22 185/437/22 22/438/22
f 22/438/22 185/437/22 197/439/22
f 181/440/16 47/441/16 49/442/16
f 47/441/16 181/440/16 183/443/16
f 41/444/16 37/445/16 198/446/16
f 37/445/16 177/447/16 198/446/16
f 41/444/16 198/446/16 174/448/16
f 42/449/16 41/444/16 174/448/16
f 138/373/51 150/380/51 151/379/51
f 150/380/51 138/373/51 135/372/51
f 149/375/52 137/371/52 152/376/52
f 149/375/52 136/370/52 137/371/52
f 22/450/18 195/451/18 20/452/18
f 195/451/18 22/450/18 197/453/18
f 199/454/4 100/455/4 99/456/4
f 199/454/4 99/456/4 142/457/4
f 200/458/4 101/459/4 102/460/4
f 101/459/4 200/458/4 140/461/4
f 194/462/53 26/398/53 28/400/53
f 194/462/53 28/400/53 186/463/53
f 196/464/54 31/404/54 32/403/54
f 31/404/54 196/464/54 187/465/54
f 29/399/55 190/466/55 193/467/55
f 190/466/55 29/399/55 27/401/55
f 191/468/56 30/402/56 192/469/56
f 191/468/56 36/405/56 30/402/56
f 139/470/16 188/470/16 139/470/16
f 153/471/22 61/472/22 60/473/22
f 61/472/22 153/471/22 201/474/22
f 63/475/21 65/476/21 155/477/21
f 202/478/21 155/477/21 65/476/21
f 61/479/18 161/480/18 59/481/18
f 161/480/18 61/479/18 201/482/18
f 65/483/18 160/484/18 202/485/18
f 65/483/18 64/486/18 160/484/18
f 53/487/22 164/488/22 203/489/22
f 164/488/22 53/487/22 52/490/22
f 204/491/21 165/492/21 57/493/21
f 55/494/21 57/493/21 165/492/21
f 194/462/57 193/467/57 190/466/57
f 193/467/57 194/462/57 186/463/57
f 196/464/58 192/469/58 187/465/58
f 196/464/58 191/468/58 192/469/58
f 51/495/18 203/496/18 168/497/18
f 203/496/18 51/495/18 53/498/18
f 56/499/18 204/500/18 57/501/18
f 204/500/18 56/499/18 167/502/18
f 141/187/59 199/503/59 142/188/59
f 199/503/59 141/187/59 162/504/59
f 200/505/60 188/506/60 140/184/60
f 140/184/60 188/506/60 139/183/60
f 100/507/61 162/508/61 77/509/61
f 100/507/61 199/510/61 162/508/61
f 131/511/61 77/509/61 162/508/61
f 77/509/61 131/511/61 78/512/61
f 80/513/62 188/514/62 102/515/62
f 200/516/62 102/515/62 188/514/62
f 188/517/62 80/513/62 133/518/62
f 133/518/62 80/513/62 79/519/62
f 159/274/63 146/270/63 205/520/63
f 206/521/63 159/274/63 205/520/63
f 207/522/63 159/274/63 206/521/63
f 159/274/63 207/522/63 147/275/63
f 208/523/64 169/319/64 209/524/64
f 169/319/64 208/523/64 145/320/64
f 209/524/64 169/319/64 210/525/64
f 169/319/64 148/323/64 210/525/64
f 148/201/65 147/200/65 207/526/65
f 148/201/65 207/526/65 210/527/65
f 145/197/66 205/528/66 146/198/66
f 205/528/66 145/197/66 208/529/66
f 157/530/1 158/531/1 181/532/1
f 158/531/1 183/533/1 181/532/1
f 173/534/67 172/535/67 180/536/67
f 194/537/67 173/534/67 180/536/67
f 173/534/67 194/537/67 190/538/67
f 182/539/68 170/540/68 196/541/68
f 196/541/68 170/540/68 191/542/68
f 170/540/68 182/539/68 171/543/68
f 187/544/1 193/545/1 186/546/1
f 193/545/1 187/544/1 192/547/1
f 177/548/69 176/549/69 178/550/69
f 189/551/69 177/548/69 178/550/69
f 177/548/69 189/551/69 198/552/69
f 179/553/70 174/554/70 189/551/70
f 189/551/70 174/554/70 198/552/70
f 174/554/70 179/553/70 175/555/70
f 195/556/1 197/557/1 184/558/1
f 197/557/1 185/559/1 184/558/1
f 208/560/4 206/561/4 205/562/4
f 208/560/4 209/563/4 206/561/4
f 209/563/4 207/564/4 206/561/4
f 209/563/4 210/565/4 207/564/4
