# Roblox asset pack: animal_chicken (creatures), from the Studio model "Chicken". Exported with Export Selection, split by tools/build_creatures.py: one object per rigid body. Units: studs. +Y up, front faces -Z, pivot (bottom centre) at the origin.
mtllib animal_chicken.mtl

v -0.99470 2.66000 0.55000
v 0.09670 2.66000 0.55000
v 0.09670 2.66000 -0.55000
v -0.99470 2.66000 -0.55000
v -0.92590 2.51000 0.37000
v -0.92590 2.51000 0.08000
v -1.01390 2.51000 0.37000
v -1.01390 2.51000 0.08000
v -1.01390 2.51000 -0.37000
v -1.01390 2.51000 -0.08000
v -0.92590 2.51000 -0.08000
v -0.92590 2.51000 -0.37000
v 1.36840 0.80000 0.39000
v 1.36840 0.80000 -0.39000
v 1.36840 1.26000 0.39000
v 1.36840 1.26000 -0.39000
v -0.97280 2.42000 0.32000
v -0.97280 2.42000 0.12000
v -1.03230 2.42000 0.32000
v -1.03230 2.42000 0.12000
v -0.97280 2.42000 -0.12000
v -1.03230 2.42000 -0.32000
v -1.03230 2.42000 -0.12000
v -0.97280 2.42000 -0.32000
v -1.36840 2.06000 -0.21000
v -1.36840 1.84000 0.21000
v -1.36840 2.06000 0.21000
v -1.36840 1.84000 -0.21000
v 0.98870 1.56000 -0.59000
v 0.76040 1.79000 0.59000
v 0.98870 1.56000 0.59000
v 0.76040 1.79000 -0.59000
v 0.98870 0.53000 0.59000
v 0.98870 0.53000 -0.59000
v 0.91210 1.52000 0.69000
v 0.70660 1.73000 -0.69000
v 0.70660 1.73000 0.69000
v 0.91210 1.52000 -0.69000
v -0.76070 2.06000 0.30000
v -0.76070 2.06000 -0.30000
v 0.91210 0.59000 0.69000
v 0.91210 0.59000 -0.69000
v 0.10080 0.00000 0.19000
v 0.34380 0.00000 0.43000
v 0.10080 0.00000 0.43000
v 0.34380 0.00000 0.19000
v 0.10080 0.00000 -0.19000
v 0.10080 0.00000 -0.43000
v 0.34380 0.00000 -0.43000
v 0.34380 0.00000 -0.19000
v -0.19760 0.00000 0.24000
v 0.44040 0.00000 0.38000
v -0.19760 0.00000 0.38000
v 0.44040 0.00000 0.24000
v -0.19760 0.00000 -0.38000
v 0.44040 0.00000 -0.38000
v -0.19760 0.00000 -0.24000
v 0.44040 0.00000 -0.24000
v 0.19950 0.02000 0.25000
v -0.12040 0.02000 0.53000
v -0.18940 0.02000 0.41000
v 0.26840 0.02000 0.37000
v -0.12040 0.02000 0.09000
v 0.19950 0.02000 0.36000
v -0.18940 0.02000 0.21000
v 0.26840 0.02000 0.24000
v 0.19950 0.02000 -0.36000
v -0.12040 0.02000 -0.09000
v -0.18940 0.02000 -0.21000
v 0.26840 0.02000 -0.24000
v -0.12040 0.02000 -0.53000
v 0.19950 0.02000 -0.25000
v -0.18940 0.02000 -0.41000
v 0.26840 0.02000 -0.37000
v -1.07600 1.89000 0.18000
v -1.07600 1.54000 -0.23000
v -1.07600 1.54000 0.23000
v -1.07600 1.89000 -0.18000
v -1.07600 1.41000 0.10000
v -1.07600 1.41000 -0.10000
v 0.11730 0.05000 0.20000
v 0.32730 0.05000 0.41000
v 0.11730 0.05000 0.41000
v 0.32730 0.05000 0.20000
v 0.11730 0.05000 -0.20000
v 0.32730 0.05000 -0.41000
v 0.32730 0.05000 -0.20000
v 0.11730 0.05000 -0.41000
v -1.03230 2.18000 0.32000
v -1.03230 2.18000 0.12000
v -1.03230 2.18000 -0.32000
v -1.03230 2.18000 -0.12000
v -1.01390 2.14000 0.37000
v -1.01390 2.14000 0.08000
v -1.01390 2.14000 -0.37000
v -1.01390 2.14000 -0.08000
v -0.99470 1.56000 -0.55000
v -0.99470 1.56000 0.55000
v -0.72300 1.89000 0.18000
v -0.72300 1.89000 -0.18000
v 0.53580 1.54000 0.74000
v -0.22420 0.95000 0.90000
v -0.09120 0.83000 0.93000
v -0.22420 1.54000 0.74000
v 0.66890 1.41000 0.77000
v 0.66890 0.83000 0.93000
v -0.09120 0.83000 -0.93000
v 0.66890 1.41000 -0.77000
v 0.66890 0.83000 -0.93000
v 0.53580 1.54000 -0.74000
v -0.22420 0.95000 -0.90000
v -0.22420 1.54000 -0.74000
v -0.54410 1.79000 0.59000
v -0.54410 1.79000 -0.59000
v 0.66890 0.78000 0.77000
v 0.66890 1.37000 0.61000
v 0.66890 0.78000 -0.77000
v 0.66890 1.37000 -0.61000
v -0.46750 1.73000 0.69000
v -0.46750 1.73000 -0.69000
v -0.26200 0.59000 0.69000
v -0.46750 0.80000 0.69000
v -0.26200 0.59000 -0.69000
v -0.46750 0.80000 -0.69000
v 0.53580 1.49000 0.58000
v 0.53580 1.49000 -0.58000
v -0.31580 0.53000 0.59000
v -0.54410 0.76000 0.59000
v -0.31580 0.53000 -0.59000
v -0.54410 0.76000 -0.59000
v 0.09670 1.56000 0.55000
v 0.09670 1.56000 -0.55000
v 0.44040 0.14000 0.38000
v 0.44040 0.14000 0.24000
v 0.44040 0.14000 -0.38000
v 0.44040 0.14000 -0.24000
v -0.12040 0.12000 0.53000
v 0.26840 0.12000 0.37000
v -0.12040 0.12000 -0.53000
v 0.26840 0.12000 -0.37000
v 0.34380 0.13000 0.43000
v 0.34380 0.13000 0.19000
v 0.34380 0.13000 -0.43000
v 0.34380 0.13000 -0.19000
v 0.19950 0.12000 0.36000
v 0.26840 0.12000 0.24000
v 0.19950 0.12000 -0.36000
v 0.26840 0.12000 -0.24000
v 0.10080 0.13000 0.43000
v 0.10080 0.13000 -0.43000
v 0.32730 1.02000 0.41000
v 0.32730 1.02000 0.20000
v 0.32730 1.02000 -0.41000
v 0.32730 1.02000 -0.20000
v -0.09120 0.78000 0.77000
v -0.09120 0.78000 -0.77000
v 0.11730 1.02000 0.41000
v 0.11730 1.02000 -0.41000
v -0.76070 1.84000 0.30000
v -0.76070 1.84000 -0.30000
v -0.19760 0.14000 0.38000
v -0.19760 0.14000 -0.38000
v -0.92590 2.14000 0.37000
v -0.92590 2.14000 -0.37000
v -0.22420 1.49000 0.58000
v -0.22420 1.49000 -0.58000
v -0.97280 2.18000 0.32000
v -0.97280 2.18000 -0.32000
v -0.72300 1.54000 0.23000
v -0.72300 1.54000 -0.23000
v -0.22420 0.91000 0.73000
v -0.22420 0.91000 -0.73000
v -0.18940 0.12000 0.41000
v -0.18940 0.12000 -0.41000
v -0.18940 0.12000 0.21000
v -0.18940 0.12000 -0.21000
v 0.19950 0.12000 -0.25000
v 0.19950 0.12000 0.25000
v -0.19760 0.14000 0.24000
v -0.19760 0.14000 -0.24000
v 0.11730 1.02000 0.20000
v 0.11730 1.02000 -0.20000
v 0.87760 1.18000 0.25000
v 0.87760 1.18000 -0.25000
v -0.12040 0.12000 0.09000
v -0.12040 0.12000 -0.09000
v 0.87760 0.89000 0.25000
v 0.87760 0.89000 -0.25000
v -0.92590 2.14000 0.08000
v -0.92590 2.14000 -0.08000
v -0.97280 2.18000 -0.12000
v -0.97280 2.18000 0.12000
v 0.10080 0.13000 0.19000
v 0.10080 0.13000 -0.19000
v -0.72300 1.41000 0.10000
v -0.72300 1.41000 -0.10000
vt 0.64068 0.65079
vt 0.64068 0.81942
vt 0.47205 0.81942
vt 0.47205 0.65079
vt 0.98152 0.48686
vt 0.98152 0.44203
vt 0.99512 0.48686
vt 0.99512 0.44203
vt 1.99512 0.48686
vt 1.99512 0.44203
vt 1.98152 0.44203
vt 1.98152 0.48686
vt 0.02311 0.88135
vt 0.02311 0.75985
vt 0.09438 0.88135
vt 0.09438 0.75985
vt 0.26523 0.53294
vt 0.26523 0.50265
vt 0.27442 0.53294
vt 0.27442 0.50265
vt 1.26523 0.50265
vt 1.27442 0.53294
vt 1.27442 0.50265
vt 1.26523 0.53294
vt 0.03693 0.95049
vt 0.00293 0.88514
vt 0.03693 0.88514
vt 0.00293 0.95049
vt 0.25564 0.62075
vt 0.07358 0.67066
vt 0.07358 0.62078
vt 0.25564 0.67063
vt 0.07355 0.46050
vt 0.25561 0.46048
vt 0.40950 0.45670
vt 0.45439 0.24354
vt 0.45440 0.45670
vt 0.40949 0.24354
vt 0.09684 0.74410
vt 0.00293 0.75838
vt 0.00293 0.66447
vt 0.09684 0.67875
vt 0.26524 0.45670
vt 0.26523 0.24354
vt 0.81224 0.17534
vt 0.77470 0.21288
vt 0.77470 0.17534
vt 0.81224 0.21288
vt 1.81224 0.17534
vt 1.77470 0.17534
vt 1.77470 0.21288
vt 1.81224 0.21288
vt 0.02423 0.47213
vt 0.00293 0.57071
vt 0.00293 0.47213
vt 0.02423 0.57071
vt 1.00293 0.47213
vt 1.00293 0.57071
vt 1.02423 0.47213
vt 1.02423 0.57071
vt 0.95215 0.74188
vt 0.93108 0.68024
vt 0.95216 0.67720
vt 0.93107 0.74493
vt 0.88983 0.79953
vt 0.82819 0.77845
vt 0.89288 0.77845
vt 0.82514 0.79953
vt 1.82819 0.77845
vt 1.88983 0.79953
vt 1.89288 0.77845
vt 1.82514 0.79953
vt 1.93108 0.68024
vt 1.95215 0.74188
vt 1.95216 0.67720
vt 1.93107 0.74493
vt 0.53532 0.89692
vt 0.47205 0.84238
vt 0.54406 0.84238
vt 0.48078 0.89692
vt 0.52368 0.82320
vt 0.49242 0.82320
vt 0.85760 0.91967
vt 0.82514 0.88721
vt 0.85760 0.88721
vt 0.82514 0.91967
vt 1.85760 0.91967
vt 1.82514 0.88721
vt 1.82514 0.91967
vt 1.85760 0.88721
vt 0.06349 0.61448
vt 0.03320 0.65286
vt 0.03320 0.61448
vt 0.06349 0.65286
vt 1.03320 0.65286
vt 1.06349 0.61448
vt 1.03320 0.61448
vt 1.06349 0.65286
vt 0.29550 0.93638
vt 0.34033 0.87958
vt 0.34033 0.93638
vt 0.29550 0.87958
vt 1.29550 0.93638
vt 1.34033 0.87958
vt 1.29550 0.87958
vt 1.34033 0.93638
vt 0.94333 0.17156
vt 0.77470 0.00293
vt 0.94333 0.00293
vt 0.77470 0.17156
vt 0.41056 0.87958
vt 0.41056 0.93412
vt 0.35603 0.93412
vt 0.35603 0.87958
vt 0.83524 0.29278
vt 0.92862 0.17534
vt 0.94917 0.19589
vt 0.83523 0.17535
vt 0.85579 0.31334
vt 0.94918 0.31333
vt 1.94917 0.19589
vt 1.85579 0.31334
vt 1.94918 0.31333
vt 1.83524 0.29278
vt 1.92862 0.17534
vt 1.83523 0.17535
vt 0.83066 0.21987
vt 0.83066 0.42142
vt 0.64860 0.42142
vt 0.64860 0.21987
vt 0.00293 0.33692
vt 0.00293 0.24354
vt 0.02887 0.24354
vt 0.02887 0.33692
vt 1.00293 0.33692
vt 1.02887 0.24354
vt 1.00293 0.24354
vt 1.02887 0.33692
vt 0.64337 0.43304
vt 0.46196 0.43304
vt 0.46196 0.21987
vt 0.64337 0.21987
vt 0.76912 0.03468
vt 0.76912 0.21609
vt 0.62486 0.21609
vt 0.59311 0.18434
vt 0.73737 0.00293
vt 0.59311 0.00293
vt 0.28036 0.49223
vt 0.42462 0.67364
vt 0.28036 0.67364
vt 0.45637 0.64190
vt 0.31211 0.46048
vt 0.45637 0.46048
vt 0.00294 0.36599
vt 0.02887 0.36599
vt 1.00294 0.36599
vt 1.02887 0.36599
vt 0.40025 0.03820
vt 0.40025 0.23975
vt 0.23997 0.23975
vt 0.20470 0.20448
vt 0.36497 0.00293
vt 0.20470 0.00293
vt 0.00293 0.03820
vt 0.16320 0.23975
vt 0.00293 0.23975
vt 0.19848 0.20448
vt 0.03820 0.00293
vt 0.19848 0.00293
vt 0.29550 0.67743
vt 0.46413 0.67743
vt 0.46413 0.84606
vt 0.29550 0.84606
vt 0.81722 0.80295
vt 0.81722 0.97158
vt 0.64860 0.80295
vt 0.64860 0.97158
vt 0.95237 0.54992
vt 0.93107 0.57122
vt 0.93107 0.54992
vt 0.95237 0.57122
vt 1.95237 0.54992
vt 1.93107 0.57122
vt 1.95237 0.57122
vt 1.93107 0.54992
vt 0.64403 0.48670
vt 0.46196 0.43685
vt 0.64402 0.43682
vt 0.46196 0.48673
vt 0.99238 0.63591
vt 0.97648 0.57122
vt 0.99239 0.57122
vt 0.97647 0.63591
vt 1.97648 0.57122
vt 1.99238 0.63591
vt 1.99239 0.57122
vt 1.97647 0.63591
vt 0.83066 0.42521
vt 0.64860 0.62676
vt 0.64860 0.42521
vt 0.83066 0.62676
vt 0.64405 0.64698
vt 0.46199 0.64701
vt 0.55780 0.93825
vt 0.55780 0.90070
vt 0.57737 0.93825
vt 0.57736 0.90070
vt 1.55780 0.90070
vt 1.57737 0.93825
vt 1.57737 0.90070
vt 1.55780 0.93825
vt 0.31568 0.84984
vt 0.33158 0.87114
vt 0.31567 0.87114
vt 0.33159 0.84984
vt 1.31568 0.84984
vt 1.31567 0.87114
vt 1.33159 0.87114
vt 1.33159 0.84984
vt 0.99604 0.40070
vt 0.99604 0.43825
vt 0.97647 0.40071
vt 0.97647 0.43825
vt 1.97647 0.40071
vt 1.99604 0.43825
vt 1.99604 0.40070
vt 1.97647 0.43825
vt 0.95125 0.15315
vt 0.95125 0.00293
vt 0.98371 0.00293
vt 0.98371 0.15315
vt 1.98371 0.00293
vt 1.95125 0.15315
vt 1.98371 0.15315
vt 1.95125 0.00293
vt 0.24579 0.84686
vt 0.21983 0.96429
vt 0.21985 0.84685
vt 0.24577 0.96429
vt 0.58788 0.21609
vt 0.40647 0.00293
vt 0.58788 0.00293
vt 0.40647 0.21609
vt 1.21985 0.84685
vt 1.21983 0.96429
vt 1.24579 0.84686
vt 1.24577 0.96429
vt 0.13627 0.84685
vt 0.13627 0.99707
vt 0.10382 0.99707
vt 0.10382 0.84685
vt 1.13627 0.84685
vt 1.10381 0.99707
vt 1.13627 0.99707
vt 1.10381 0.84685
vt 0.08314 0.24354
vt 0.03824 0.45670
vt 0.03824 0.24354
vt 0.08314 0.45670
vt 0.99534 0.67053
vt 0.96135 0.76552
vt 0.96134 0.67054
vt 0.99534 0.76552
vt 0.28914 0.84685
vt 0.25515 0.94184
vt 0.25514 0.84686
vt 0.28915 0.94184
vt 0.25627 0.44447
vt 0.23497 0.34590
vt 0.25627 0.34590
vt 0.23497 0.44447
vt 1.23497 0.34590
vt 1.25627 0.44447
vt 1.25627 0.34590
vt 1.23497 0.44447
vt 0.84883 0.37735
vt 0.84883 0.43415
vt 0.83523 0.43415
vt 0.83523 0.37735
vt 1.84883 0.37735
vt 1.83523 0.43415
vt 1.84883 0.43415
vt 1.83523 0.37735
vt 0.22740 0.24353
vt 0.22740 0.45670
vt 0.18452 0.96429
vt 0.18454 0.84685
vt 0.21048 0.84686
vt 0.21046 0.96429
vt 1.18454 0.84685
vt 1.18452 0.96429
vt 1.21048 0.84686
vt 1.21046 0.96429
vt 0.27442 0.46048
vt 0.27442 0.49886
vt 0.26523 0.49886
vt 0.26523 0.46048
vt 1.27442 0.46048
vt 1.26523 0.49886
vt 1.27442 0.49886
vt 1.26523 0.46048
vt 0.99570 0.84994
vt 0.99570 0.90517
vt 0.94117 0.90518
vt 0.94116 0.84994
vt 0.47110 0.93480
vt 0.41656 0.93480
vt 0.47110 0.87956
vt 0.41656 0.87957
vt 0.46335 0.87578
vt 0.43428 0.84984
vt 0.46335 0.84984
vt 0.43429 0.87578
vt 1.43428 0.84984
vt 1.46335 0.87578
vt 1.46335 0.84984
vt 1.43429 0.87578
vt 0.97648 0.54992
vt 0.99239 0.54992
vt 1.97648 0.54992
vt 1.99239 0.54992
vt 0.62338 0.95080
vt 0.63928 0.88610
vt 0.63929 0.95079
vt 0.62337 0.88610
vt 1.63929 0.88610
vt 1.62338 0.95080
vt 1.63929 0.95079
vt 1.62337 0.88610
vt 0.10382 0.67444
vt 0.27244 0.67444
vt 0.10382 0.84307
vt 0.27244 0.84307
vt 1.97648 0.63969
vt 1.99238 0.66099
vt 1.99239 0.63970
vt 1.97647 0.66099
vt 0.97648 0.63969
vt 0.99238 0.66099
vt 0.97647 0.66099
vt 0.99239 0.63970
vt 0.34090 0.84986
vt 0.34090 0.87580
vt 1.34090 0.84986
vt 1.34090 0.87580
vt 0.85541 0.68060
vt 0.87671 0.65930
vt 0.87671 0.68060
vt 0.85541 0.65930
vt 1.85541 0.68060
vt 1.87671 0.65930
vt 1.85541 0.65930
vt 1.87671 0.68060
vt 0.50955 0.90070
vt 0.50955 0.93316
vt 0.47709 0.90070
vt 0.47709 0.93316
vt 1.50955 0.90070
vt 1.47709 0.90070
vt 1.50955 0.93316
vt 1.47709 0.93316
vt 0.91226 0.55306
vt 0.83524 0.57590
vt 0.83523 0.45440
vt 0.91225 0.47722
vt 0.97649 0.31093
vt 0.99239 0.33223
vt 0.97648 0.33223
vt 0.99240 0.31093
vt 1.99239 0.33223
vt 1.97649 0.31093
vt 1.97648 0.33223
vt 1.99240 0.31093
vt 0.82514 0.88343
vt 0.88303 0.80422
vt 0.89642 0.88343
vt 0.83854 0.80422
vt 0.90916 0.76695
vt 0.96704 0.84616
vt 0.89576 0.84615
vt 0.95365 0.76695
vt 0.96774 0.66337
vt 0.89072 0.56470
vt 0.96774 0.58753
vt 0.89073 0.68620
vt 0.84883 0.31677
vt 0.84883 0.37357
vt 0.83523 0.37357
vt 0.83523 0.31677
vt 1.84883 0.37357
vt 1.84883 0.31677
vt 1.83523 0.37357
vt 1.83523 0.31677
vt 1.97647 0.39692
vt 1.99238 0.39692
vt 0.97647 0.39692
vt 0.99238 0.39692
vt 1.82010 0.17534
vt 1.82010 0.21372
vt 1.82929 0.17534
vt 1.82929 0.21372
vt 0.82929 0.17534
vt 0.82929 0.21372
vt 0.82010 0.21372
vt 0.82010 0.17534
vt 0.55214 0.90070
vt 0.55214 0.93825
vt 0.53258 0.90070
vt 0.53258 0.93825
vt 1.55214 0.93825
vt 1.55214 0.90070
vt 1.53258 0.90070
vt 1.53258 0.93825
vt 0.60259 0.90070
vt 0.58302 0.93825
vt 0.58302 0.90070
vt 0.60259 0.93825
vt 1.60259 0.90070
vt 1.58302 0.93825
vt 1.60259 0.93825
vt 1.58302 0.90070
vt 0.98875 0.15693
vt 0.98875 0.30715
vt 0.95630 0.30715
vt 0.95630 0.15693
vt 1.95629 0.15693
vt 1.95630 0.30715
vt 1.98875 0.15693
vt 1.98875 0.30715
vt 0.06565 0.61070
vt 0.03320 0.46048
vt 0.06565 0.46048
vt 0.03320 0.61070
vt 1.06565 0.61070
vt 1.03320 0.46048
vt 1.03320 0.61070
vt 1.06565 0.46048
vt 0.97553 0.48689
vt 0.92100 0.45889
vt 0.97553 0.45890
vt 0.92099 0.48688
vt 0.92099 0.51814
vt 0.97552 0.51815
vt 0.97552 0.54614
vt 0.92098 0.54613
vt 1.23497 0.24354
vt 1.23497 0.34211
vt 1.25627 0.24354
vt 1.25627 0.34211
vt 0.25627 0.24354
vt 0.23497 0.34211
vt 0.23497 0.24354
vt 0.25627 0.34211
vt 1.99238 0.76930
vt 1.97648 0.83399
vt 1.99239 0.83399
vt 1.97647 0.76930
vt 0.99238 0.76930
vt 0.97648 0.83399
vt 0.97647 0.76930
vt 0.99239 0.83399
vt 0.81722 0.63054
vt 0.64860 0.79917
vt 0.64860 0.63054
vt 0.81722 0.79917
vt 0.55275 0.84238
vt 0.62477 0.84238
vt 0.56149 0.89692
vt 0.61603 0.89692
vt 0.57313 0.82320
vt 0.60439 0.82320
vt 0.14417 0.94076
vt 0.14417 0.84685
vt 0.17817 0.94076
vt 0.17816 0.84685
vt 1.94880 0.45511
vt 1.85541 0.33767
vt 1.85541 0.45511
vt 1.96935 0.43456
vt 1.87597 0.31712
vt 1.96935 0.31712
vt 0.85542 0.33767
vt 0.94880 0.45511
vt 0.85541 0.45511
vt 0.96935 0.43456
vt 0.87597 0.31712
vt 0.96935 0.31712
vt 0.91905 0.76040
vt 0.82514 0.68077
vt 0.91905 0.69504
vt 0.82514 0.77468
vt 0.02423 0.36977
vt 0.00293 0.46835
vt 0.00293 0.36977
vt 0.02423 0.46835
vt 1.00293 0.36977
vt 1.00293 0.46835
vt 1.02423 0.36977
vt 1.02423 0.46835
vt 0.08082 0.88514
vt 0.08082 0.92268
vt 0.04328 0.92268
vt 0.04328 0.88514
vt 1.04328 0.92268
vt 1.08082 0.88514
vt 1.04328 0.88514
vt 1.08082 0.92268
vt 0.93019 0.90829
vt 0.86854 0.88722
vt 0.93324 0.88721
vt 0.86550 0.90830
vt 0.02401 0.63918
vt 0.00293 0.57754
vt 0.02401 0.57449
vt 0.00293 0.64223
vt 1.00293 0.57754
vt 1.02401 0.63918
vt 1.02401 0.57449
vt 1.00293 0.64223
vt 1.86855 0.88722
vt 1.93019 0.90829
vt 1.93324 0.88721
vt 1.86550 0.90830
vt 0.87972 0.57967
vt 0.83523 0.65551
vt 0.83523 0.57967
vt 0.87972 0.65551
vt 0.99512 0.53548
vt 0.98152 0.49065
vt 0.99512 0.49065
vt 0.98152 0.53548
vt 1.99512 0.53548
vt 1.98152 0.49065
vt 1.98152 0.53548
vt 1.99512 0.49065
vt 0.27442 0.56702
vt 0.26523 0.53673
vt 0.27442 0.53673
vt 0.26523 0.56702
vt 1.27442 0.56702
vt 1.26523 0.53673
vt 1.26523 0.56702
vt 1.27442 0.53673
vn 0.0000 1.0000 0.0000
vn 1.0000 0.0000 0.0000
vn -1.0000 0.0000 0.0000
vn 0.7087 0.7087 0.0000
vn 0.0000 -1.0000 0.0000
vn 0.0000 0.2598 0.9685
vn 0.0000 0.2598 -0.9685
vn 0.0000 0.0000 1.0000
vn 0.0000 0.0000 -1.0000
vn 0.7087 0.6850 -0.1811
vn 0.7087 0.6850 0.1811
vn -0.7087 -0.7087 0.0000
vn 0.3701 0.0000 0.9291
vn 0.3701 0.0000 -0.9291
vn 0.8661 0.0000 0.4961
vn 0.8661 0.0000 -0.4961
vn 0.0000 -0.9685 0.2598
vn 0.0000 -0.9685 -0.2598
vn -0.1496 0.0000 0.9921
vn -0.1496 0.0000 -0.9921
vn 0.0000 0.9685 -0.2598
vn 0.0000 0.9685 0.2598
vn 0.0000 0.1575 0.9843
vn 0.0000 0.1575 -0.9843
vn -0.7087 -0.6850 0.1811
vn -0.7087 -0.6850 -0.1811
vn -0.8661 0.0000 0.4961
vn -0.8661 0.0000 -0.4961
vn -0.3701 0.0000 0.9291
vn -0.3701 0.0000 -0.9291
vn -0.1732 0.9843 0.0000
vn -0.2913 0.0000 0.9606
vn -0.2913 0.0000 -0.9606
vn -0.1732 -0.9843 0.0000
vn 0.0000 -0.7244 0.6850
vn 0.0000 -0.7244 -0.6850
vn 0.0000 -0.2598 0.9685
vn 0.0000 -0.2598 -0.9685

o animal_chicken
usemtl tex_animal_chicken_i003p001x
f 1/1/1 2/2/1 3/3/1
f 4/4/1 1/1/1 3/3/1
f 5/5/1 6/6/1 7/7/1
f 8/8/1 7/7/1 6/6/1
f 9/9/1 10/10/1 11/11/1
f 9/9/1 11/11/1 12/12/1
f 13/13/2 14/14/2 15/15/2
f 14/14/2 16/16/2 15/15/2
f 17/17/1 18/18/1 19/19/1
f 20/20/1 19/19/1 18/18/1
f 21/21/1 22/22/1 23/23/1
f 22/22/1 21/21/1 24/24/1
f 25/25/3 26/26/3 27/27/3
f 26/26/3 25/25/3 28/28/3
f 29/29/4 30/30/4 31/31/4
f 30/30/4 29/29/4 32/32/4
f 33/33/2 34/34/2 31/31/2
f 34/34/2 29/29/2 31/31/2
f 35/35/4 36/36/4 37/37/4
f 36/36/4 35/35/4 38/38/4
f 27/39/1 39/40/1 40/41/1
f 27/39/1 40/41/1 25/42/1
f 41/43/2 42/44/2 35/35/2
f 42/44/2 38/38/2 35/35/2
f 43/45/5 44/46/5 45/47/5
f 44/46/5 43/45/5 46/48/5
f 47/49/5 48/50/5 49/51/5
f 47/49/5 49/51/5 50/52/5
f 51/53/5 52/54/5 53/55/5
f 52/54/5 51/53/5 54/56/5
f 55/57/5 56/58/5 57/59/5
f 57/59/5 56/58/5 58/60/5
f 59/61/5 60/62/5 61/63/5
f 60/62/5 59/61/5 62/64/5
f 63/65/5 64/66/5 65/67/5
f 63/65/5 66/68/5 64/66/5
f 67/69/5 68/70/5 69/71/5
f 68/70/5 67/69/5 70/72/5
f 71/73/5 72/74/5 73/75/5
f 72/74/5 71/73/5 74/76/5
f 75/77/3 76/78/3 77/79/3
f 76/78/3 75/77/3 78/80/3
f 76/78/3 79/81/3 77/79/3
f 79/81/3 76/78/3 80/82/3
f 81/83/5 82/84/5 83/85/5
f 82/84/5 81/83/5 84/86/5
f 85/87/5 86/88/5 87/89/5
f 85/87/5 88/90/5 86/88/5
f 89/91/3 20/92/3 90/93/3
f 20/92/3 89/91/3 19/94/3
f 23/95/3 91/96/3 92/97/3
f 23/95/3 22/98/3 91/96/3
f 8/99/3 93/100/3 7/101/3
f 93/100/3 8/99/3 94/102/3
f 10/103/3 95/104/3 96/105/3
f 10/103/3 9/106/3 95/104/3
f 1/107/3 97/108/3 98/109/3
f 97/108/3 1/107/3 4/110/3
f 75/111/1 99/112/1 100/113/1
f 78/114/1 75/111/1 100/113/1
f 101/115/6 102/116/6 103/117/6
f 102/116/6 101/115/6 104/118/6
f 101/115/6 103/117/6 105/119/6
f 103/117/6 106/120/6 105/119/6
f 107/121/7 108/122/7 109/123/7
f 107/121/7 110/124/7 108/122/7
f 111/125/7 110/124/7 107/121/7
f 110/124/7 111/125/7 112/126/7
f 113/127/1 30/128/1 32/129/1
f 114/130/1 113/127/1 32/129/1
f 105/131/2 106/132/2 115/133/2
f 115/133/2 116/134/2 105/131/2
f 108/135/2 117/136/2 109/137/2
f 117/136/2 108/135/2 118/138/2
f 119/139/1 37/140/1 36/141/1
f 120/142/1 119/139/1 36/141/1
f 121/143/8 41/144/8 35/145/8
f 37/146/8 121/143/8 35/145/8
f 37/146/8 122/147/8 121/143/8
f 122/147/8 37/146/8 119/148/8
f 123/149/9 38/150/9 42/151/9
f 38/150/9 123/149/9 36/152/9
f 124/153/9 36/152/9 123/149/9
f 36/152/9 124/153/9 120/154/9
f 116/134/10 101/155/10 105/131/10
f 101/155/10 116/134/10 125/156/10
f 118/138/11 110/157/11 126/158/11
f 110/157/11 118/138/11 108/135/11
f 127/159/8 33/160/8 31/161/8
f 30/162/8 127/159/8 31/161/8
f 30/162/8 128/163/8 127/159/8
f 128/163/8 30/162/8 113/164/8
f 129/165/9 29/166/9 34/167/9
f 29/166/9 129/165/9 32/168/9
f 130/169/9 32/168/9 129/165/9
f 32/168/9 130/169/9 114/170/9
f 1/171/8 98/172/8 131/173/8
f 1/171/8 131/173/8 2/174/8
f 4/175/9 3/176/9 97/177/9
f 97/177/9 3/176/9 132/178/9
f 54/179/2 133/180/2 52/181/2
f 133/180/2 54/179/2 134/182/2
f 58/183/2 135/184/2 136/185/2
f 58/183/2 56/186/2 135/184/2
f 128/187/12 129/188/12 127/189/12
f 128/187/12 130/190/12 129/188/12
f 62/191/13 137/192/13 60/193/13
f 137/192/13 62/191/13 138/194/13
f 139/195/14 74/196/14 71/197/14
f 74/196/14 139/195/14 140/198/14
f 129/199/5 33/200/5 127/201/5
f 33/200/5 129/199/5 34/202/5
f 113/203/3 130/190/3 128/187/3
f 130/190/3 113/203/3 114/204/3
f 44/205/2 46/206/2 141/207/2
f 142/208/2 141/207/2 46/206/2
f 50/209/2 143/210/2 144/211/2
f 50/209/2 49/212/2 143/210/2
f 66/213/15 145/214/15 64/215/15
f 145/214/15 66/213/15 146/216/15
f 70/217/16 67/218/16 147/219/16
f 70/217/16 147/219/16 148/220/16
f 45/221/8 44/222/8 149/223/8
f 149/223/8 44/222/8 141/224/8
f 150/225/9 49/226/9 48/227/9
f 49/226/9 150/225/9 143/228/9
f 151/229/2 82/230/2 84/231/2
f 84/231/2 152/232/2 151/229/2
f 87/233/2 153/234/2 154/235/2
f 86/236/2 153/234/2 87/233/2
f 155/237/17 106/238/17 103/239/17
f 106/238/17 155/237/17 115/240/17
f 123/241/5 41/242/5 121/243/5
f 41/242/5 123/241/5 42/244/5
f 107/245/18 109/246/18 156/247/18
f 156/247/18 109/246/18 117/248/18
f 157/249/8 83/250/8 82/251/8
f 157/249/8 82/251/8 151/252/8
f 158/253/9 86/254/9 88/255/9
f 86/254/9 158/253/9 153/256/9
f 122/257/12 123/258/12 121/259/12
f 122/257/12 124/260/12 123/258/12
f 26/261/19 39/262/19 27/263/19
f 39/262/19 26/261/19 159/264/19
f 25/265/20 160/266/20 28/267/20
f 160/266/20 25/265/20 40/268/20
f 52/269/8 161/270/8 53/271/8
f 161/270/8 52/269/8 133/272/8
f 162/273/9 56/274/9 55/275/9
f 56/274/9 162/273/9 135/276/9
f 7/277/8 93/278/8 163/279/8
f 7/277/8 163/279/8 5/280/8
f 9/281/9 164/282/9 95/283/9
f 164/282/9 9/281/9 12/284/9
f 119/285/3 124/260/3 122/257/3
f 124/260/3 119/285/3 120/286/3
f 125/287/21 165/288/21 104/289/21
f 104/289/21 101/290/21 125/287/21
f 166/291/22 126/292/22 112/293/22
f 112/293/22 126/292/22 110/294/22
f 19/295/8 89/296/8 167/297/8
f 19/295/8 167/297/8 17/298/8
f 22/299/9 168/300/9 91/301/9
f 168/300/9 22/299/9 24/302/9
f 75/303/23 77/304/23 169/305/23
f 75/303/23 169/305/23 99/306/23
f 78/307/24 100/308/24 76/309/24
f 76/309/24 100/308/24 170/310/24
f 103/311/25 171/312/25 155/313/25
f 171/312/25 103/311/25 102/314/25
f 172/315/26 107/316/26 156/317/26
f 107/316/26 172/315/26 111/318/26
f 60/193/27 173/319/27 61/320/27
f 173/319/27 60/193/27 137/192/27
f 174/321/28 71/197/28 73/322/28
f 174/321/28 139/195/28 71/197/28
f 145/323/29 65/324/29 64/325/29
f 65/324/29 145/323/29 175/326/29
f 69/327/30 147/328/30 67/329/30
f 176/330/30 147/328/30 69/327/30
f 131/331/2 132/332/2 2/333/2
f 132/332/2 3/334/2 2/333/2
f 72/335/15 140/336/15 177/337/15
f 72/335/15 74/338/15 140/336/15
f 59/339/16 138/340/16 62/341/16
f 138/340/16 59/339/16 178/342/16
f 102/314/3 165/343/3 171/312/3
f 165/343/3 102/314/3 104/344/3
f 166/345/3 111/318/3 172/315/3
f 111/318/3 166/345/3 112/346/3
f 179/347/3 53/348/3 161/349/3
f 53/348/3 179/347/3 51/350/3
f 180/351/3 55/352/3 57/353/3
f 180/351/3 162/354/3 55/352/3
f 181/355/1 157/356/1 152/357/1
f 157/356/1 151/358/1 152/357/1
f 182/359/1 154/360/1 158/361/1
f 158/361/1 154/360/1 153/362/1
f 183/363/31 15/364/31 16/365/31
f 183/363/31 16/365/31 184/366/31
f 65/367/28 185/368/28 63/369/28
f 185/368/28 65/367/28 175/370/28
f 186/371/27 69/372/27 68/373/27
f 186/371/27 176/374/27 69/372/27
f 15/375/32 187/376/32 13/377/32
f 187/376/32 15/375/32 183/378/32
f 188/379/33 16/380/33 14/381/33
f 184/382/33 16/380/33 188/379/33
f 188/383/34 13/384/34 187/385/34
f 13/384/34 188/383/34 14/386/34
f 94/387/9 8/388/9 6/389/9
f 94/387/9 6/389/9 189/390/9
f 10/391/8 96/392/8 11/393/8
f 190/394/8 11/393/8 96/392/8
f 68/373/13 70/395/13 186/371/13
f 186/371/13 70/395/13 148/396/13
f 185/368/14 66/397/14 63/369/14
f 66/397/14 185/368/14 146/398/14
f 191/399/8 21/400/8 92/401/8
f 23/402/8 92/401/8 21/400/8
f 90/403/9 20/404/9 18/405/9
f 90/403/9 18/405/9 192/406/9
f 193/407/9 142/408/9 43/409/9
f 43/409/9 142/408/9 46/410/9
f 144/411/8 194/412/8 47/413/8
f 47/413/8 50/414/8 144/411/8
f 149/415/3 43/416/3 45/417/3
f 43/416/3 149/415/3 193/418/3
f 150/419/3 47/420/3 194/421/3
f 47/420/3 150/419/3 48/422/3
f 81/423/9 181/424/9 152/425/9
f 81/423/9 152/425/9 84/426/9
f 87/427/8 154/428/8 85/429/8
f 182/430/8 85/429/8 154/428/8
f 157/431/3 81/432/3 83/433/3
f 81/432/3 157/431/3 181/434/3
f 158/435/3 85/436/3 182/437/3
f 85/436/3 158/435/3 88/438/3
f 79/439/35 169/440/35 77/441/35
f 169/440/35 79/439/35 195/442/35
f 196/443/36 80/444/36 76/445/36
f 76/445/36 170/446/36 196/443/36
f 57/447/8 58/448/8 180/449/8
f 180/449/8 58/448/8 136/450/8
f 179/451/9 54/452/9 51/453/9
f 54/452/9 179/451/9 134/454/9
f 174/455/29 72/456/29 177/457/29
f 73/458/29 72/456/29 174/455/29
f 173/459/30 59/460/30 61/461/30
f 59/460/30 173/459/30 178/462/30
f 80/444/5 195/442/5 79/439/5
f 195/442/5 80/444/5 196/443/5
f 97/463/5 131/464/5 98/465/5
f 131/464/5 97/463/5 132/466/5
f 169/467/2 170/468/2 99/469/2
f 170/468/2 100/470/2 99/469/2
f 170/468/2 169/467/2 195/471/2
f 170/468/2 195/471/2 196/472/2
f 159/473/2 160/474/2 39/475/2
f 40/476/2 39/475/2 160/474/2
f 118/477/37 156/478/37 117/479/37
f 126/480/37 156/478/37 118/477/37
f 156/478/37 126/480/37 172/481/37
f 166/482/37 172/481/37 126/480/37
f 155/483/38 116/484/38 115/485/38
f 116/484/38 155/483/38 125/486/38
f 171/487/38 125/486/38 155/483/38
f 125/486/38 171/487/38 165/488/38
f 28/489/5 159/490/5 26/491/5
f 159/490/5 28/489/5 160/492/5
f 161/493/1 134/494/1 179/495/1
f 134/494/1 161/493/1 133/496/1
f 180/497/1 136/498/1 162/499/1
f 162/499/1 136/498/1 135/500/1
f 149/501/1 141/502/1 142/503/1
f 193/504/1 149/501/1 142/503/1
f 144/505/1 150/506/1 194/507/1
f 150/506/1 144/505/1 143/508/1
f 137/509/1 178/510/1 173/511/1
f 137/509/1 138/512/1 178/510/1
f 145/513/1 185/514/1 175/515/1
f 185/514/1 145/513/1 146/516/1
f 186/517/1 147/518/1 176/519/1
f 147/518/1 186/517/1 148/520/1
f 177/521/1 139/522/1 174/523/1
f 139/522/1 177/521/1 140/524/1
f 183/525/3 188/526/3 187/527/3
f 188/526/3 183/525/3 184/528/3
f 94/529/5 163/530/5 93/531/5
f 163/530/5 94/529/5 189/532/5
f 96/533/5 164/534/5 190/535/5
f 96/533/5 95/536/5 164/534/5
f 90/537/5 167/538/5 89/539/5
f 167/538/5 90/537/5 192/540/5
f 92/541/5 168/542/5 191/543/5
f 92/541/5 91/544/5 168/542/5
