# Roblox asset pack: nothosaurus (creatures), from the Studio model "Nothosaurus". Exported with Export Selection, split by tools/build_creatures.py: one object per rigid body. Units: studs. +Y up, front faces -Z, pivot (bottom centre) at the origin.
mtllib nothosaurus.mtl

v 1.00000 4.35990 -1.32000
v 1.00000 4.35990 3.43000
v 1.00000 3.60990 -1.32000
v 1.00000 3.60990 3.43000
v -1.00000 4.35990 3.43000
v -1.00000 4.35990 -1.32000
v -1.00000 3.60990 3.43000
v -1.00000 3.60990 -1.32000
v 0.50000 3.85990 -3.57000
v 0.50000 3.85990 -1.32000
v 0.50000 3.35990 -3.57000
v 0.50000 3.35990 -1.32000
v -0.50000 3.85990 -1.32000
v -0.50000 3.85990 -3.57000
v -0.50000 3.35990 -1.32000
v -0.50000 3.35990 -3.57000
v 2.25000 3.85990 -1.07000
v 2.25000 3.85990 2.93000
v 2.25000 2.10990 -1.07000
v 2.25000 2.10990 2.93000
v -2.25000 3.85990 2.93000
v -2.25000 3.85990 -1.07000
v -2.25000 2.10990 2.93000
v -2.25000 2.10990 -1.07000
v 1.50000 3.60990 -3.07000
v 1.50000 3.60990 -1.07000
v 1.50000 2.10990 -3.07000
v 1.50000 2.10990 -1.07000
v -1.50000 3.60990 -1.07000
v -1.50000 3.60990 -3.07000
v -1.50000 2.10990 -1.07000
v -1.50000 2.10990 -3.07000
v 1.75000 2.10990 -1.07000
v 1.75000 2.10990 2.93000
v 1.75000 1.35990 -1.07000
v 1.75000 1.35990 2.93000
v -1.75000 2.10990 2.93000
v -1.75000 2.10990 -1.07000
v -1.75000 1.35990 2.93000
v -1.75000 1.35990 -1.07000
v 1.50000 1.60990 -3.07000
v 1.50000 1.60990 -1.07000
v -1.50000 1.60990 -1.07000
v -1.50000 1.60990 -3.07000
v -0.87490 1.66990 3.92000
v -0.57160 2.42990 4.86000
v -1.99680 0.82990 4.96000
v -1.69350 1.58990 5.91000
v -1.66380 3.37990 4.45000
v -1.96710 2.60990 3.51000
v -2.78570 2.52990 5.50000
v -3.08900 1.76990 4.55000
v -2.18190 0.94990 4.84000
v -1.73470 1.68990 5.34000
v -3.09100 0.52990 6.27000
v -2.64370 1.25990 6.77000
v -2.46270 2.31990 5.07000
v -2.91000 1.57990 4.56000
v -3.37180 1.88990 6.50000
v -3.81910 1.14990 6.00000
v -3.09090 0.52990 6.27000
v -2.97910 0.70990 6.40000
v -3.35070 0.39990 6.68000
v -3.23880 0.58990 6.80000
v -3.70720 1.33990 6.12000
v -3.81900 1.14990 6.00000
v -3.96690 1.21990 6.53000
v -4.07880 1.02990 6.40000
v -2.89080 0.24990 6.01000
v -2.66720 0.60990 6.26000
v -3.41030 -0.00010 6.83000
v -3.18670 0.36990 7.08000
v -2.84920 0.76990 6.19000
v -3.07290 0.39990 5.94000
v -3.36870 0.52990 7.01000
v -3.59230 0.15990 6.76000
v -3.80100 1.02990 5.67000
v -3.57740 1.39990 5.92000
v -4.32040 0.78990 6.48000
v -4.09680 1.14990 6.74000
v -3.75940 1.55990 5.85000
v -3.98300 1.18990 5.60000
v -4.27880 1.30990 6.67000
v -4.50250 0.93990 6.42000
v -3.34590 0.63990 5.84000
v -3.23410 0.81990 5.96000
v -3.86540 0.38990 6.65000
v -3.75360 0.57990 6.78000
v -3.41610 0.97990 5.89000
v -3.52790 0.79990 5.77000
v -3.93560 0.72990 6.71000
v -4.04740 0.54990 6.59000
v -3.20930 0.15990 -0.86000
v -3.12760 0.30990 -0.67000
v -3.38000 0.05990 -0.70000
v -3.29830 0.20990 -0.52000
v -3.29090 0.47990 -0.74000
v -3.37260 0.33990 -0.93000
v -3.46160 0.38990 -0.59000
v -3.54330 0.23990 -0.77000
v -3.69910 0.68990 -1.06000
v -3.61740 0.83990 -0.88000
v -3.86990 0.58990 -0.91000
v -3.78820 0.73990 -0.72000
v -3.78080 1.01990 -0.94000
v -3.86240 0.86990 -1.13000
v -3.95150 0.91990 -0.79000
v -4.03320 0.76990 -0.98000
v -3.45410 0.42990 -0.96000
v -3.37240 0.56990 -0.77000
v -3.62490 0.32990 -0.81000
v -3.54320 0.46990 -0.62000
v -3.53580 0.74990 -0.84000
v -3.61740 0.59990 -1.03000
v -3.70650 0.64990 -0.69000
v -3.78820 0.49990 -0.87000
v -0.55080 1.97990 -2.51000
v -0.47740 2.39990 -1.60000
v -1.86960 0.97990 -1.94000
v -1.79620 1.39990 -1.04000
v -1.13060 3.10990 -1.87000
v -1.20400 2.68990 -2.78000
v -2.44940 2.10990 -1.31000
v -2.52280 1.68990 -2.21000
v -2.01390 0.84990 -1.93000
v -1.68710 1.43990 -1.19000
v -3.20920 0.15990 -0.86000
v -2.88250 0.74990 -0.12000
v -2.34040 2.14990 -1.46000
v -2.66710 1.55990 -2.20000
v -3.53570 1.45990 -0.39000
v 1.00000 3.60990 8.43000
v 1.00000 3.60990 8.93000
v 1.00000 2.35990 8.43000
v 1.00000 2.35990 8.93000
v -1.00000 3.60990 8.93000
v -1.00000 3.60990 8.43000
v -1.00000 2.35990 8.93000
v -1.00000 2.35990 8.43000
v 1.00000 3.60990 6.93000
v 1.00000 3.60990 7.43000
v 1.00000 2.35990 6.93000
v 1.00000 2.35990 7.43000
v -1.00000 3.60990 7.43000
v -1.00000 3.60990 6.93000
v -1.00000 2.35990 7.43000
v -1.00000 2.35990 6.93000
v 0.25000 3.84990 12.68000
v 0.25000 3.97990 13.16000
v 0.25000 3.11990 12.88000
v 0.25000 3.24990 13.36000
v -0.25000 3.97990 13.16000
v -0.25000 3.84990 12.68000
v -0.25000 3.24990 13.36000
v -0.25000 3.11990 12.88000
v 0.50000 3.53990 9.98000
v 0.50000 3.62990 10.47000
v 0.50000 2.55990 10.15000
v 0.50000 2.63990 10.65000
v -0.50000 3.62990 10.47000
v -0.50000 3.53990 9.98000
v -0.50000 2.63990 10.65000
v -0.50000 2.55990 10.15000
v 0.50000 3.75990 11.21000
v 0.50000 3.83990 11.70000
v 0.50000 2.76990 11.39000
v 0.50000 2.85990 11.88000
v -0.50000 3.83990 11.70000
v -0.50000 3.75990 11.21000
v -0.50000 2.85990 11.88000
v -0.50000 2.76990 11.39000
v 0.25000 3.58990 11.72000
v 0.25000 2.86990 11.91000
v -0.25000 3.58990 11.72000
v -0.25000 2.86990 11.91000
v 0.50000 3.92990 12.20000
v 0.50000 2.94990 12.37000
v -0.50000 3.92990 12.20000
v -0.50000 2.94990 12.37000
v 1.00000 3.60990 6.43000
v 1.00000 2.35990 6.43000
v -1.00000 3.60990 6.43000
v -1.00000 2.35990 6.43000
v 1.00000 3.60990 9.43000
v 1.00000 2.35990 9.43000
v -1.00000 3.60990 9.43000
v -1.00000 2.35990 9.43000
v 0.25000 4.23990 14.13000
v 0.25000 3.50990 14.32000
v -0.25000 4.23990 14.13000
v -0.25000 3.50990 14.32000
v 0.50000 3.40990 9.24000
v 0.50000 2.41990 9.42000
v 0.50000 2.54990 10.15000
v -0.50000 3.40990 9.24000
v -0.50000 2.54990 10.15000
v -0.50000 2.41990 9.42000
v 0.50000 2.17990 9.46000
v 0.50000 2.69990 12.41000
v -0.50000 2.69990 12.41000
v -0.50000 2.17990 9.46000
v 0.75000 2.35990 6.43000
v 0.75000 2.35990 9.43000
v 0.75000 1.85990 6.43000
v 0.75000 1.85990 9.43000
v -0.75000 2.35990 9.43000
v -0.75000 2.35990 6.43000
v -0.75000 1.85990 9.43000
v -0.75000 1.85990 6.43000
v 0.75000 3.85990 3.43000
v 0.75000 3.85990 6.68000
v 0.75000 3.60990 3.43000
v 0.75000 3.60990 6.68000
v -0.75000 3.85990 6.68000
v -0.75000 3.85990 3.43000
v -0.75000 3.60990 6.68000
v -0.75000 3.60990 3.43000
v 1.50000 3.60990 2.93000
v 1.50000 3.60990 6.43000
v 1.50000 2.10990 2.93000
v 1.50000 2.10990 6.43000
v -1.50000 3.60990 6.43000
v -1.50000 3.60990 2.93000
v -1.50000 2.10990 6.43000
v -1.50000 2.10990 2.93000
v 1.25000 2.10990 2.93000
v 1.25000 2.10990 6.43000
v 1.25000 1.60990 2.93000
v 1.25000 1.60990 6.43000
v -1.25000 2.10990 6.43000
v -1.25000 2.10990 2.93000
v -1.25000 1.60990 6.43000
v -1.25000 1.60990 2.93000
v 1.20400 2.68990 -2.78000
v 1.13060 3.10990 -1.87000
v 2.52280 1.68990 -2.21000
v 2.44940 2.10990 -1.31000
v 0.47740 2.39990 -1.60000
v 0.55080 1.97990 -2.51000
v 1.79620 1.39990 -1.04000
v 1.86960 0.97990 -1.94000
v 2.66720 1.55990 -2.20000
v 2.34050 2.14990 -1.46000
v 3.86250 0.86990 -1.13000
v 3.53580 1.45990 -0.39000
v 1.68730 1.43990 -1.19000
v 2.01400 0.84990 -1.93000
v 2.88260 0.74990 -0.12000
v 3.20930 0.15990 -0.86000
v 3.61740 0.59990 -1.03000
v 3.53580 0.74990 -0.84000
v 3.78820 0.49990 -0.87000
v 3.70650 0.64990 -0.69000
v 3.37240 0.56990 -0.77000
v 3.45410 0.42990 -0.96000
v 3.54320 0.46990 -0.62000
v 3.62490 0.32990 -0.81000
v 3.37260 0.33990 -0.93000
v 3.29090 0.47990 -0.74000
v 3.54330 0.23990 -0.77000
v 3.46160 0.38990 -0.59000
v 3.12760 0.30990 -0.67000
v 3.29830 0.20990 -0.52000
v 3.38000 0.05990 -0.70000
v 3.86240 0.86990 -1.13000
v 3.78070 1.01990 -0.94000
v 4.03320 0.76990 -0.98000
v 3.95150 0.91990 -0.79000
v 3.61740 0.83990 -0.88000
v 3.69910 0.68990 -1.06000
v 3.78820 0.73990 -0.72000
v 3.86990 0.58990 -0.91000
v 0.50000 4.85990 -14.32000
v 0.50000 4.85990 -13.82000
v 0.50000 4.60990 -14.32000
v 0.50000 4.60990 -13.82000
v -0.50000 4.85990 -13.82000
v -0.50000 4.85990 -14.32000
v -0.50000 4.60990 -13.82000
v -0.50000 4.60990 -14.32000
v 1.00000 4.60990 -14.32000
v 1.00000 4.60990 -13.82000
v 1.00000 3.85990 -14.32000
v 1.00000 3.85990 -13.82000
v -1.00000 4.60990 -13.82000
v -1.00000 4.60990 -14.32000
v -1.00000 3.85990 -13.82000
v -1.00000 3.85990 -14.32000
v 0.50000 4.07990 -8.60000
v 0.50000 3.37990 -4.66000
v 0.50000 3.33990 -8.73000
v 0.50000 2.64990 -4.79000
v -0.50000 3.37990 -4.66000
v -0.50000 4.07990 -8.60000
v -0.50000 2.64990 -4.79000
v -0.50000 3.33990 -8.73000
v 1.00000 4.85990 -13.82000
v 1.00000 4.85990 -11.32000
v 1.00000 3.85990 -11.32000
v -1.00000 4.85990 -11.32000
v -1.00000 4.85990 -13.82000
v -1.00000 3.85990 -11.32000
v 0.75000 3.51990 -5.21000
v 0.75000 3.29990 -2.72000
v 0.75000 2.51990 -5.30000
v 0.75000 2.29990 -2.81000
v -0.75000 3.29990 -2.72000
v -0.75000 3.51990 -5.21000
v -0.75000 2.29990 -2.81000
v -0.75000 2.51990 -5.30000
v 1.25000 4.85990 -11.32000
v 1.25000 4.85990 -8.57000
v 1.25000 3.85990 -11.32000
v 1.25000 3.85990 -8.57000
v -1.25000 4.85990 -8.57000
v -1.25000 4.85990 -11.32000
v -1.25000 3.85990 -8.57000
v -1.25000 3.85990 -11.32000
v 0.75000 4.88990 -13.85000
v 0.75000 5.32990 -11.39000
v 0.75000 4.14990 -13.72000
v 0.75000 4.58990 -11.26000
v -0.75000 5.32990 -11.39000
v -0.75000 4.88990 -13.85000
v -0.75000 4.58990 -11.26000
v -0.75000 4.14990 -13.72000
v 1.00000 5.29990 -9.23000
v 1.00000 4.90990 -7.79000
v 1.00000 4.32990 -9.49000
v 1.00000 3.93990 -8.04000
v -1.00000 4.90990 -7.79000
v -1.00000 5.29990 -9.23000
v -1.00000 3.93990 -8.04000
v -1.00000 4.32990 -9.49000
v 0.25000 4.02990 -8.18000
v 0.25000 3.60990 -3.45000
v 0.25000 3.77990 -8.20000
v 0.25000 3.36990 -3.47000
v -0.25000 3.60990 -3.45000
v -0.25000 4.02990 -8.18000
v -0.25000 3.36990 -3.47000
v -0.25000 3.77990 -8.20000
v 1.00000 5.60990 -11.32000
v 1.00000 5.60990 -9.32000
v 1.00000 4.85990 -9.32000
v -1.00000 5.60990 -9.32000
v -1.00000 5.60990 -11.32000
v -1.00000 4.85990 -9.32000
v -0.75000 3.85990 -14.07000
v -0.75000 3.85990 -13.82000
v -0.75000 3.60990 -14.07000
v -0.75000 3.60990 -13.82000
v -1.00000 3.85990 -14.07000
v -1.00000 3.60990 -13.82000
v -1.00000 3.60990 -14.07000
v 1.00000 3.35990 -13.07000
v 1.00000 3.35990 -12.82000
v 1.00000 3.10990 -13.07000
v 1.00000 3.10990 -12.82000
v 0.75000 3.35990 -12.82000
v 0.75000 3.35990 -13.07000
v 0.75000 3.10990 -12.82000
v 0.75000 3.10990 -13.07000
v 1.00000 3.35990 -13.82000
v 1.00000 3.35990 -13.57000
v 1.00000 3.10990 -13.82000
v 1.00000 3.10990 -13.57000
v 0.75000 3.35990 -13.57000
v 0.75000 3.35990 -13.82000
v 0.75000 3.10990 -13.57000
v 0.75000 3.10990 -13.82000
v 1.00000 3.35990 -12.32000
v 1.00000 3.35990 -12.07000
v 1.00000 3.10990 -12.32000
v 1.00000 3.10990 -12.07000
v 0.75000 3.35990 -12.07000
v 0.75000 3.35990 -12.32000
v 0.75000 3.10990 -12.07000
v 0.75000 3.10990 -12.32000
v -0.75000 3.35990 -13.07000
v -0.75000 3.35990 -12.82000
v -0.75000 3.10990 -13.07000
v -0.75000 3.10990 -12.82000
v -1.00000 3.35990 -12.82000
v -1.00000 3.35990 -13.07000
v -1.00000 3.10990 -12.82000
v -1.00000 3.10990 -13.07000
v -0.75000 3.35990 -13.82000
v -0.75000 3.35990 -13.57000
v -0.75000 3.10990 -13.82000
v -0.75000 3.10990 -13.57000
v -1.00000 3.35990 -13.57000
v -1.00000 3.35990 -13.82000
v -1.00000 3.10990 -13.57000
v -1.00000 3.10990 -13.82000
v -0.75000 3.35990 -12.32000
v -0.75000 3.35990 -12.07000
v -0.75000 3.10990 -12.32000
v -0.75000 3.10990 -12.07000
v -1.00000 3.35990 -12.07000
v -1.00000 3.35990 -12.32000
v -1.00000 3.10990 -12.07000
v -1.00000 3.10990 -12.32000
v 1.00000 3.85990 -14.07000
v 1.00000 3.60990 -14.07000
v 1.00000 3.60990 -13.82000
v 0.75000 3.85990 -13.82000
v 0.75000 3.85990 -14.07000
v 0.75000 3.60990 -13.82000
v 0.75000 3.60990 -14.07000
v -0.75000 3.85990 -12.57000
v -0.75000 3.85990 -12.32000
v -0.75000 3.60990 -12.57000
v -0.75000 3.60990 -12.32000
v -1.00000 3.85990 -12.32000
v -1.00000 3.85990 -12.57000
v -1.00000 3.60990 -12.32000
v -1.00000 3.60990 -12.57000
v 1.00000 3.85990 -12.57000
v 1.00000 3.85990 -12.32000
v 1.00000 3.60990 -12.57000
v 1.00000 3.60990 -12.32000
v 0.75000 3.85990 -12.32000
v 0.75000 3.85990 -12.57000
v 0.75000 3.60990 -12.32000
v 0.75000 3.60990 -12.57000
v -0.75000 3.85990 -13.32000
v -0.75000 3.85990 -13.07000
v -0.75000 3.60990 -13.32000
v -0.75000 3.60990 -13.07000
v -1.00000 3.85990 -13.07000
v -1.00000 3.85990 -13.32000
v -1.00000 3.60990 -13.07000
v -1.00000 3.60990 -13.32000
v 1.00000 3.85990 -13.32000
v 1.00000 3.85990 -13.07000
v 1.00000 3.60990 -13.32000
v 1.00000 3.60990 -13.07000
v 0.75000 3.85990 -13.07000
v 0.75000 3.85990 -13.32000
v 0.75000 3.60990 -13.07000
v 0.75000 3.60990 -13.32000
v -1.00000 4.85990 -14.32000
v 1.00000 4.85990 -14.32000
v 1.25000 5.35990 -10.57000
v 1.25000 5.35990 -10.07000
v 1.25000 4.85990 -10.57000
v 1.25000 4.85990 -10.07000
v -1.25000 5.35990 -10.07000
v -1.25000 5.35990 -10.57000
v -1.25000 4.85990 -10.07000
v -1.25000 4.85990 -10.57000
v 0.75000 2.01990 -5.34000
v 0.75000 1.80990 -2.85000
v -0.75000 1.80990 -2.85000
v -0.75000 2.01990 -5.34000
v 1.00000 3.10990 -14.07000
v 1.00000 3.10990 -10.57000
v 1.00000 2.60990 -14.07000
v 1.00000 2.60990 -10.57000
v -1.00000 3.10990 -10.57000
v -1.00000 3.10990 -14.07000
v -1.00000 2.60990 -10.57000
v -1.00000 2.60990 -14.07000
v 1.50000 3.85990 -10.57000
v 1.50000 3.85990 -8.57000
v 1.50000 2.60990 -10.57000
v 1.50000 2.60990 -8.57000
v -1.50000 3.85990 -8.57000
v -1.50000 3.85990 -10.57000
v -1.50000 2.60990 -8.57000
v -1.50000 2.60990 -10.57000
v 0.50000 2.68990 -5.04000
v 0.50000 2.84990 -8.82000
v 0.50000 2.19990 -5.13000
v -0.50000 2.68990 -5.04000
v -0.50000 2.19990 -5.13000
v -0.50000 2.84990 -8.82000
v 0.50000 3.35990 -13.07000
v 0.50000 3.35990 -10.57000
v 0.50000 3.10990 -13.07000
v 0.50000 3.10990 -10.57000
v -0.50000 3.35990 -10.57000
v -0.50000 3.35990 -13.07000
v -0.50000 3.10990 -10.57000
v -0.50000 3.10990 -13.07000
v 1.25500 5.35990 -10.57000
v 1.25500 5.35990 -10.07000
v 1.25500 4.85990 -10.57000
v 1.25500 4.85990 -10.07000
v -1.25500 5.35990 -10.07000
v -1.25500 5.35990 -10.57000
v -1.25500 4.85990 -10.07000
v -1.25500 4.85990 -10.57000
v 1.96710 2.60990 3.51000
v 1.66380 3.37990 4.45000
v 3.08900 1.76990 4.55000
v 2.78570 2.52990 5.50000
v 0.57160 2.42990 4.86000
v 0.87490 1.66990 3.92000
v 1.69350 1.58990 5.91000
v 1.99680 0.82990 4.96000
v 2.91000 1.57990 4.56000
v 2.46270 2.31990 5.07000
v 3.81910 1.14990 6.00000
v 3.37180 1.88990 6.50000
v 1.73470 1.68990 5.34000
v 2.18190 0.94990 4.84000
v 2.64370 1.25990 6.77000
v 3.09100 0.52990 6.27000
v 3.81900 1.14990 6.00000
v 3.70720 1.33990 6.12000
v 4.07870 1.02990 6.40000
v 3.96690 1.21990 6.53000
v 2.97910 0.70990 6.40000
v 3.09090 0.52990 6.27000
v 3.23880 0.58990 6.80000
v 3.35070 0.39990 6.68000
v 3.98300 1.18990 5.60000
v 3.75940 1.55990 5.85000
v 4.50250 0.93990 6.42000
v 4.27880 1.30990 6.67000
v 3.57740 1.39990 5.92000
v 3.80100 1.02990 5.67000
v 4.09680 1.14990 6.74000
v 4.32040 0.78990 6.48000
v 3.52790 0.79990 5.77000
v 3.41610 0.97990 5.89000
v 4.04740 0.54990 6.59000
v 3.93560 0.72990 6.71000
v 3.23410 0.81990 5.96000
v 3.34590 0.63990 5.84000
v 3.75360 0.57990 6.78000
v 3.86540 0.38990 6.65000
v 3.07290 0.39990 5.94000
v 2.84920 0.76990 6.19000
v 3.59230 0.15990 6.76000
v 3.36870 0.52990 7.01000
v 2.66720 0.60990 6.26000
v 2.89080 0.24990 6.01000
v 3.18670 0.36990 7.08000
v 3.41030 -0.00010 6.83000
vt 6.34375 -3.00000
vt 5.75000 -3.00000
vt 6.34375 -3.09375
vt 5.75000 -3.09375
vt 6.00000 -3.00000
vt 6.00000 -3.59375
vt 5.75000 -3.59375
vt 6.00000 -3.09375
vt 7.53125 -2.25000
vt 7.25000 -2.25000
vt 7.53125 -2.31250
vt 7.25000 -2.31250
vt 7.37500 -2.25000
vt 7.37500 -2.53125
vt 7.25000 -2.53125
vt 7.37500 -2.31250
vt 0.75000 0.75000
vt 0.25000 0.75000
vt 0.75000 0.53125
vt 0.25000 0.53125
vt 0.81250 0.75000
vt 0.81250 0.25000
vt 0.25000 0.25000
vt 0.81250 0.53125
vt 6.50000 -3.00000
vt 6.25000 -3.00000
vt 6.50000 -3.18750
vt 6.25000 -3.18750
vt 6.62500 -3.00000
vt 6.62500 -3.25000
vt 6.25000 -3.25000
vt 6.62500 -3.18750
vt 2.50000 -3.50000
vt 2.00000 -3.50000
vt 2.50000 -3.59375
vt 2.00000 -3.59375
vt 2.43750 -3.50000
vt 2.43750 -4.00000
vt 2.00000 -4.00000
vt 2.43750 -3.59375
vt 6.50000 -0.25000
vt 6.25000 -0.25000
vt 6.50000 -0.31250
vt 6.25000 -0.31250
vt 6.62500 -0.25000
vt 6.62500 -0.50000
vt 6.25000 -0.50000
vt 6.62500 -0.31250
vt 3.65625 0.00000
vt 3.50000 0.00000
vt 3.65625 -0.21875
vt 3.50000 -0.21875
vt 3.68750 0.00000
vt 3.68750 -0.15625
vt 3.50000 -0.15625
vt 3.68750 -0.21875
vt 2.37500 -0.75000
vt 2.25000 -0.75000
vt 2.37500 -0.96875
vt 2.25000 -0.96875
vt 2.37500 -0.87500
vt 2.25000 -0.87500
vt 6.28125 -0.25000
vt 6.28125 -0.31250
vt 6.37500 -0.25000
vt 6.37500 -0.28125
vt 6.25000 -0.28125
vt 6.37500 -0.31250
vt 7.56250 -1.00000
vt 7.50000 -1.00000
vt 7.56250 -1.12500
vt 7.50000 -1.12500
vt 7.53125 -1.00000
vt 7.53125 -1.06250
vt 7.50000 -1.06250
vt 7.53125 -1.12500
vt 6.56250 -0.50000
vt 6.50000 -0.50000
vt 6.56250 -0.62500
vt 6.50000 -0.62500
vt 6.53125 -0.50000
vt 6.53125 -0.56250
vt 6.50000 -0.56250
vt 6.53125 -0.62500
vt 2.03125 -5.50000
vt 2.00000 -5.50000
vt 2.03125 -5.62500
vt 2.00000 -5.62500
vt 2.03125 -5.53125
vt 2.00000 -5.53125
vt 5.53125 -5.00000
vt 5.50000 -5.00000
vt 5.53125 -5.03125
vt 5.50000 -5.03125
vt 5.28125 -4.75000
vt 5.25000 -4.75000
vt 5.28125 -4.78125
vt 5.25000 -4.78125
vt 1.03125 0.75000
vt 1.00000 0.75000
vt 1.03125 0.71875
vt 1.00000 0.71875
vt 5.87500 0.50000
vt 5.75000 0.50000
vt 5.87500 0.28125
vt 5.75000 0.28125
vt 5.87500 0.37500
vt 5.75000 0.37500
vt 1.37500 -6.50000
vt 1.25000 -6.50000
vt 1.37500 -6.71875
vt 1.25000 -6.71875
vt 1.37500 -6.62500
vt 1.25000 -6.62500
vt 2.56250 -6.75000
vt 2.50000 -6.75000
vt 2.56250 -6.90625
vt 2.50000 -6.90625
vt 2.75000 -6.75000
vt 2.75000 -6.81250
vt 2.50000 -6.81250
vt 2.75000 -6.90625
vt 4.31250 -1.25000
vt 4.25000 -1.25000
vt 4.31250 -1.40625
vt 4.25000 -1.40625
vt 4.50000 -1.25000
vt 4.50000 -1.31250
vt 4.25000 -1.31250
vt 4.50000 -1.40625
vt 6.06250 -2.25000
vt 6.00000 -2.25000
vt 6.06250 -2.34375
vt 6.00000 -2.34375
vt 6.06250 -2.31250
vt 6.00000 -2.31250
vt 7.31250 -5.50000
vt 7.25000 -5.50000
vt 7.31250 -5.62500
vt 7.25000 -5.62500
vt 7.37500 -5.50000
vt 7.37500 -5.56250
vt 7.25000 -5.56250
vt 7.37500 -5.62500
vt 4.56250 -4.00000
vt 4.50000 -4.00000
vt 4.56250 -4.12500
vt 4.50000 -4.12500
vt 4.62500 -4.00000
vt 4.62500 -4.06250
vt 4.50000 -4.06250
vt 4.62500 -4.12500
vt 7.09375 -3.50000
vt 7.00000 -3.50000
vt 7.09375 -3.62500
vt 7.00000 -3.62500
vt 7.12500 -3.50000
vt 7.12500 -3.59375
vt 7.00000 -3.59375
vt 7.12500 -3.62500
vt 7.62500 -3.75000
vt 7.50000 -3.75000
vt 7.62500 -3.84375
vt 7.50000 -3.84375
vt 7.56250 -3.75000
vt 7.56250 -3.87500
vt 7.50000 -3.87500
vt 7.56250 -3.84375
vt 4.31250 -6.50000
vt 4.25000 -6.50000
vt 4.31250 -6.62500
vt 4.25000 -6.62500
vt 4.37500 -6.50000
vt 4.37500 -6.56250
vt 4.25000 -6.56250
vt 4.37500 -6.62500
vt 1.06250 -6.00000
vt 1.00000 -6.00000
vt 1.06250 -6.15625
vt 1.00000 -6.15625
vt 1.25000 -6.00000
vt 1.25000 -6.06250
vt 1.00000 -6.06250
vt 1.25000 -6.15625
vt 4.81250 -3.50000
vt 4.75000 -3.50000
vt 4.81250 -3.65625
vt 4.75000 -3.65625
vt 5.00000 -3.50000
vt 5.00000 -3.56250
vt 4.75000 -3.56250
vt 5.00000 -3.65625
vt 7.37500 0.75000
vt 7.25000 0.75000
vt 7.37500 0.65625
vt 7.25000 0.65625
vt 7.31250 0.75000
vt 7.31250 0.62500
vt 7.25000 0.62500
vt 7.31250 0.65625
vt 0.34375 -3.75000
vt 0.25000 -3.75000
vt 0.34375 -3.87500
vt 0.25000 -3.87500
vt 0.37500 -3.75000
vt 0.37500 -3.84375
vt 0.25000 -3.84375
vt 0.37500 -3.87500
vt 3.12500 -6.00000
vt 3.00000 -6.00000
vt 3.12500 -6.15625
vt 3.00000 -6.15625
vt 3.25000 -6.00000
vt 3.25000 -6.12500
vt 3.00000 -6.12500
vt 3.25000 -6.15625
vt 6.12500 1.00000
vt 5.75000 1.00000
vt 6.12500 0.96875
vt 5.75000 0.96875
vt 5.87500 1.00000
vt 5.87500 0.62500
vt 5.75000 0.62500
vt 5.87500 0.96875
vt 0.62500 -3.25000
vt 0.25000 -3.25000
vt 0.62500 -3.31250
vt 0.25000 -3.31250
vt 0.43750 -3.25000
vt 0.43750 -3.62500
vt 0.25000 -3.62500
vt 0.43750 -3.31250
vt 6.65625 -4.25000
vt 6.25000 -4.25000
vt 6.65625 -4.28125
vt 6.25000 -4.28125
vt 6.43750 -4.25000
vt 6.43750 -4.65625
vt 6.25000 -4.65625
vt 6.43750 -4.28125
vt 3.43750 0.25000
vt 3.00000 0.25000
vt 3.43750 0.06250
vt 3.00000 0.06250
vt 3.37500 0.25000
vt 3.37500 -0.18750
vt 3.00000 -0.18750
vt 3.37500 0.06250
vt 3.93750 0.25000
vt 3.50000 0.25000
vt 3.93750 0.18750
vt 3.50000 0.18750
vt 3.81250 0.25000
vt 3.81250 -0.18750
vt 3.50000 -0.18750
vt 3.81250 0.18750
vt 0.37500 -2.50000
vt 0.25000 -2.50000
vt 0.37500 -2.71875
vt 0.25000 -2.71875
vt 0.37500 -2.62500
vt 0.25000 -2.62500
vt 3.37500 -1.75000
vt 3.25000 -1.75000
vt 3.37500 -1.96875
vt 3.25000 -1.96875
vt 3.37500 -1.87500
vt 3.25000 -1.87500
vt 4.03125 -3.50000
vt 4.00000 -3.50000
vt 4.03125 -3.53125
vt 4.00000 -3.53125
vt 4.28125 0.00000
vt 4.25000 0.00000
vt 4.28125 -0.03125
vt 4.25000 -0.03125
vt 0.03125 -4.50000
vt 0.00000 -4.50000
vt 0.03125 -4.53125
vt 0.00000 -4.53125
vt 2.56250 -4.50000
vt 2.50000 -4.50000
vt 2.56250 -4.53125
vt 2.50000 -4.53125
vt 2.62500 -4.50000
vt 2.62500 -4.56250
vt 2.50000 -4.56250
vt 2.62500 -4.53125
vt 2.31250 -6.75000
vt 2.25000 -6.75000
vt 2.31250 -6.84375
vt 2.25000 -6.84375
vt 2.25000 -6.81250
vt 2.50000 -6.84375
vt 4.50000 -2.25000
vt 4.00000 -2.25000
vt 4.50000 -2.34375
vt 4.00000 -2.34375
vt 4.12500 -2.25000
vt 4.12500 -2.75000
vt 4.00000 -2.75000
vt 4.12500 -2.34375
vt 4.31250 -0.25000
vt 4.00000 -0.25000
vt 4.31250 -0.37500
vt 4.00000 -0.37500
vt 4.25000 -0.25000
vt 4.25000 -0.56250
vt 4.00000 -0.56250
vt 4.25000 -0.37500
vt 8.06250 -1.00000
vt 7.75000 -1.00000
vt 8.06250 -1.12500
vt 7.75000 -1.12500
vt 7.93750 -1.00000
vt 7.93750 -1.31250
vt 7.75000 -1.31250
vt 7.93750 -1.12500
vt 7.09375 -2.00000
vt 6.75000 -2.00000
vt 7.09375 -2.12500
vt 6.75000 -2.12500
vt 7.06250 -2.00000
vt 7.06250 -2.34375
vt 6.75000 -2.34375
vt 7.06250 -2.12500
vt 0.31250 -6.50000
vt 0.00000 -6.50000
vt 0.31250 -6.59375
vt 0.00000 -6.59375
vt 0.18750 -6.50000
vt 0.18750 -6.81250
vt 0.00000 -6.81250
vt 0.18750 -6.59375
vt 2.43750 -1.25000
vt 2.25000 -1.25000
vt 2.43750 -1.37500
vt 2.25000 -1.37500
vt 2.50000 -1.25000
vt 2.50000 -1.43750
vt 2.25000 -1.43750
vt 2.50000 -1.37500
vt 7.84375 -0.25000
vt 7.25000 -0.25000
vt 7.84375 -0.28125
vt 7.25000 -0.28125
vt 7.31250 -0.25000
vt 7.31250 -0.84375
vt 7.25000 -0.84375
vt 7.31250 -0.28125
vt 0.25000 -4.75000
vt 0.00000 -4.75000
vt 0.25000 -4.84375
vt 0.00000 -4.84375
vt 0.25000 -5.00000
vt 0.00000 -5.00000
vt 4.53125 -1.75000
vt 4.50000 -1.75000
vt 4.53125 -1.78125
vt 4.50000 -1.78125
vt 1.03125 -6.75000
vt 1.00000 -6.75000
vt 1.03125 -6.78125
vt 1.00000 -6.78125
vt 2.28125 -4.50000
vt 2.25000 -4.50000
vt 2.28125 -4.53125
vt 2.25000 -4.53125
vt 1.78125 -3.50000
vt 1.75000 -3.50000
vt 1.78125 -3.53125
vt 1.75000 -3.53125
vt 7.03125 -6.00000
vt 7.00000 -6.00000
vt 7.03125 -6.03125
vt 7.00000 -6.03125
vt 2.78125 -5.75000
vt 2.75000 -5.75000
vt 2.78125 -5.78125
vt 2.75000 -5.78125
vt 0.53125 -2.25000
vt 0.50000 -2.25000
vt 0.53125 -2.28125
vt 0.50000 -2.28125
vt 3.78125 -2.25000
vt 3.75000 -2.25000
vt 3.78125 -2.28125
vt 3.75000 -2.28125
vt 2.03125 -6.25000
vt 2.00000 -6.25000
vt 2.03125 -6.28125
vt 2.00000 -6.28125
vt 4.03125 -1.75000
vt 4.00000 -1.75000
vt 4.03125 -1.78125
vt 4.00000 -1.78125
vt 0.78125 -6.00000
vt 0.75000 -6.00000
vt 0.78125 -6.03125
vt 0.75000 -6.03125
vt 3.78125 -6.50000
vt 3.75000 -6.50000
vt 3.78125 -6.53125
vt 3.75000 -6.53125
vt 3.81250 -1.75000
vt 3.75000 -1.75000
vt 3.81250 -1.78125
vt 3.75000 -1.78125
vt 3.81250 -1.81250
vt 3.75000 -1.81250
vt 5.31250 -2.50000
vt 5.25000 -2.50000
vt 5.31250 -2.53125
vt 5.25000 -2.53125
vt 5.31250 -2.56250
vt 5.25000 -2.56250
vt 1.31250 -6.50000
vt 1.31250 -6.56250
vt 1.25000 -6.56250
vt 1.56250 -6.50000
vt 1.56250 -6.56250
vt 7.56250 -6.75000
vt 7.25000 -6.75000
vt 7.56250 -6.81250
vt 7.25000 -6.81250
vt 7.43750 -6.75000
vt 7.43750 -7.06250
vt 7.25000 -7.06250
vt 7.43750 -6.81250
vt 6.43750 -1.25000
vt 6.00000 -1.25000
vt 6.43750 -1.31250
vt 6.00000 -1.31250
vt 6.25000 -1.25000
vt 6.25000 -1.68750
vt 6.00000 -1.68750
vt 6.25000 -1.31250
vt 5.00000 0.75000
vt 4.75000 0.75000
vt 5.00000 0.59375
vt 4.75000 0.59375
vt 5.12500 0.75000
vt 5.12500 0.50000
vt 4.75000 0.50000
vt 5.12500 0.59375
vt 1.46875 -6.50000
vt 1.00000 -6.50000
vt 1.46875 -6.56250
vt 1.00000 -6.56250
vt 1.12500 -6.50000
vt 1.12500 -6.96875
vt 1.00000 -6.96875
vt 1.12500 -6.56250
vt 6.31250 -2.50000
vt 6.00000 -2.50000
vt 6.31250 -2.53125
vt 6.00000 -2.53125
vt 6.12500 -2.50000
vt 6.12500 -2.81250
vt 6.00000 -2.81250
vt 6.12500 -2.53125
vt 1.00000 1.00000
vt 0.00000 1.00000
vt 1.00000 0.00000
vt 0.00000 0.00000
vt 1.40625 -4.25000
vt 1.25000 -4.25000
vt 1.40625 -4.46875
vt 1.25000 -4.46875
vt 1.43750 -4.25000
vt 1.43750 -4.40625
vt 1.25000 -4.40625
vt 1.43750 -4.46875
vt 0.12500 -4.00000
vt 0.00000 -4.00000
vt 0.12500 -4.21875
vt 0.00000 -4.21875
vt 0.12500 -4.12500
vt 0.00000 -4.12500
vt 6.78125 0.75000
vt 6.75000 0.75000
vt 6.78125 0.68750
vt 6.75000 0.68750
vt 6.87500 0.75000
vt 6.87500 0.71875
vt 6.75000 0.71875
vt 6.87500 0.68750
vt 3.81250 1.00000
vt 3.75000 1.00000
vt 3.81250 0.87500
vt 3.75000 0.87500
vt 3.78125 1.00000
vt 3.78125 0.93750
vt 3.75000 0.93750
vt 3.78125 0.87500
vt 7.78125 -1.50000
vt 7.75000 -1.50000
vt 7.78125 -1.62500
vt 7.75000 -1.62500
vt 7.78125 -1.53125
vt 7.75000 -1.53125
vt 1.31250 -0.75000
vt 1.25000 -0.75000
vt 1.31250 -0.87500
vt 1.25000 -0.87500
vt 1.28125 -0.75000
vt 1.28125 -0.81250
vt 1.25000 -0.81250
vt 1.28125 -0.87500
vn 1.0000 0.0000 0.0000
vn 0.0000 1.0000 0.0000
vn 0.0000 0.0000 1.0000
vn -1.0000 0.0000 0.0000
vn 0.0000 -1.0000 0.0000
vn 0.0000 0.0000 -1.0000
vn 0.7244 -0.6299 0.2756
vn 0.6378 0.4803 -0.5984
vn 0.2441 0.6063 0.7559
vn -0.7244 0.6299 -0.2756
vn -0.6378 -0.4803 0.5984
vn -0.2441 -0.6063 -0.7559
vn 0.5197 0.2441 -0.8189
vn 0.4488 0.7402 0.5039
vn -0.5197 -0.2441 0.8189
vn -0.4488 -0.7402 -0.5039
vn 0.6535 -0.7087 0.2677
vn 0.6850 0.3937 -0.6142
vn 0.3228 0.5906 0.7402
vn -0.6535 0.7087 -0.2677
vn -0.6850 -0.3937 0.6142
vn -0.3228 -0.5906 -0.7402
vn 0.6535 -0.7087 0.2756
vn 0.7559 0.5748 -0.3228
vn 0.0709 0.4173 0.9055
vn -0.6535 0.7087 -0.2756
vn -0.7559 -0.5748 0.3228
vn -0.0709 -0.4173 -0.9055
vn 0.0000 0.9685 -0.2598
vn 0.0000 0.2598 0.9685
vn 0.0000 -0.9685 0.2598
vn 0.0000 -0.2598 -0.9685
vn 0.0000 0.9843 -0.1732
vn 0.0000 0.1732 0.9843
vn 0.0000 -0.9843 0.1732
vn 0.0000 -0.1732 -0.9843
vn 0.6535 0.7087 -0.2756
vn -0.7559 0.5748 -0.3228
vn -0.0709 0.4173 0.9055
vn -0.6535 -0.7087 0.2756
vn 0.7559 -0.5748 0.3228
vn 0.0709 -0.4173 -0.9055
vn 0.6535 0.7087 -0.2677
vn -0.6850 0.3937 -0.6142
vn -0.3228 0.5906 0.7402
vn -0.6535 -0.7087 0.2677
vn 0.6850 -0.3937 0.6142
vn 0.3228 -0.5906 -0.7402
vn 0.0000 0.9843 0.1732
vn 0.0000 -0.1732 0.9843
vn 0.0000 -0.9843 -0.1732
vn 0.0000 0.1732 -0.9843
vn 0.0000 1.0000 0.0866
vn 0.0000 -0.0866 1.0000
vn 0.0000 -1.0000 -0.0866
vn 0.0000 0.0866 -1.0000
vn 0.0000 0.9685 0.2598
vn 0.0000 -0.2598 0.9685
vn 0.0000 -0.9685 -0.2598
vn 0.0000 0.2598 -0.9685
vn 0.7244 0.6299 -0.2756
vn -0.6378 0.4803 -0.5984
vn -0.2441 0.6063 0.7559
vn -0.7244 -0.6299 0.2756
vn 0.6378 -0.4803 0.5984
vn 0.2441 -0.6063 -0.7559
vn -0.5197 0.2441 -0.8189
vn -0.4488 0.7402 0.5039
vn 0.5197 -0.2441 0.8189
vn 0.4488 -0.7402 -0.5039

o UpperTorso
usemtl c_506d54
f 1/1/1 2/2/1 3/3/1
f 3/3/1 2/2/1 4/4/1
f 5/5/2 2/2/2 6/6/2
f 6/6/2 2/2/2 1/7/2
f 2/5/3 5/2/3 4/8/3
f 4/8/3 5/2/3 7/4/3
f 5/1/4 6/2/4 7/3/4
f 7/3/4 6/2/4 8/4/4
f 8/5/5 3/2/5 7/6/5
f 7/6/5 3/2/5 4/7/5
f 6/5/6 1/2/6 8/8/6
f 8/8/6 1/2/6 3/4/6
f 9/9/1 10/10/1 11/11/1
f 11/11/1 10/10/1 12/12/1
f 13/13/2 10/10/2 14/14/2
f 14/14/2 10/10/2 9/15/2
f 10/13/3 13/10/3 12/16/3
f 12/16/3 13/10/3 15/12/3
f 13/9/4 14/10/4 15/11/4
f 15/11/4 14/10/4 16/12/4
f 16/13/5 11/10/5 15/14/5
f 15/14/5 11/10/5 12/15/5
f 14/13/6 9/10/6 16/16/6
f 16/16/6 9/10/6 11/12/6
usemtl c_7f8e64
f 17/17/1 18/18/1 19/19/1
f 19/19/1 18/18/1 20/20/1
f 21/21/2 18/18/2 22/22/2
f 22/22/2 18/18/2 17/23/2
f 18/21/3 21/18/3 20/24/3
f 20/24/3 21/18/3 23/20/3
f 21/17/4 22/18/4 23/19/4
f 23/19/4 22/18/4 24/20/4
f 24/21/5 19/18/5 23/22/5
f 23/22/5 19/18/5 20/23/5
f 22/21/6 17/18/6 24/24/6
f 24/24/6 17/18/6 19/20/6
f 25/25/1 26/26/1 27/27/1
f 27/27/1 26/26/1 28/28/1
f 29/29/2 26/26/2 30/30/2
f 30/30/2 26/26/2 25/31/2
f 26/29/3 29/26/3 28/32/3
f 28/32/3 29/26/3 31/28/3
f 29/25/4 30/26/4 31/27/4
f 31/27/4 30/26/4 32/28/4
f 32/29/5 27/26/5 31/30/5
f 31/30/5 27/26/5 28/31/5
f 30/29/6 25/26/6 32/32/6
f 32/32/6 25/26/6 27/28/6
usemtl c_a8bd99
f 33/33/1 34/34/1 35/35/1
f 35/35/1 34/34/1 36/36/1
f 37/37/2 34/34/2 38/38/2
f 38/38/2 34/34/2 33/39/2
f 34/37/3 37/34/3 36/40/3
f 36/40/3 37/34/3 39/36/3
f 37/33/4 38/34/4 39/35/4
f 39/35/4 38/34/4 40/36/4
f 40/37/5 35/34/5 39/38/5
f 39/38/5 35/34/5 36/39/5
f 38/37/6 33/34/6 40/40/6
f 40/40/6 33/34/6 35/36/6
f 27/41/1 28/42/1 41/43/1
f 41/43/1 28/42/1 42/44/1
f 31/45/2 28/42/2 32/46/2
f 32/46/2 28/42/2 27/47/2
f 28/45/3 31/42/3 42/48/3
f 42/48/3 31/42/3 43/44/3
f 31/41/4 32/42/4 43/43/4
f 43/43/4 32/42/4 44/44/4
f 44/45/5 41/42/5 43/46/5
f 43/46/5 41/42/5 42/47/5
f 32/45/6 27/42/6 44/48/6
f 44/48/6 27/42/6 41/44/6
o LeftUpperLeg
usemtl c_7f8e64
f 45/49/7 46/50/7 47/51/7
f 47/51/7 46/50/7 48/52/7
f 49/53/8 46/50/8 50/54/8
f 50/54/8 46/50/8 45/55/8
f 46/53/9 49/50/9 48/56/9
f 48/56/9 49/50/9 51/52/9
f 49/49/10 50/50/10 51/51/10
f 51/51/10 50/50/10 52/52/10
f 52/53/11 47/50/11 51/54/11
f 51/54/11 47/50/11 48/55/11
f 50/53/12 45/50/12 52/56/12
f 52/56/12 45/50/12 47/52/12
f 53/57/7 54/58/7 55/59/7
f 55/59/7 54/58/7 56/60/7
f 57/57/13 54/58/13 58/61/13
f 58/61/13 54/58/13 53/62/13
f 54/57/14 57/58/14 56/59/14
f 56/59/14 57/58/14 59/60/14
f 57/57/10 58/58/10 59/59/10
f 59/59/10 58/58/10 60/60/10
f 60/57/15 55/58/15 59/61/15
f 59/61/15 55/58/15 56/62/15
f 58/57/16 53/58/16 60/59/16
f 60/59/16 53/58/16 55/60/16
f 61/63/7 62/42/7 63/64/7
f 63/64/7 62/42/7 64/44/7
f 65/65/13 62/42/13 66/66/13
f 66/66/13 62/42/13 61/67/13
f 62/65/14 65/42/14 64/68/14
f 64/68/14 65/42/14 67/44/14
f 65/63/10 66/42/10 67/64/10
f 67/64/10 66/42/10 68/44/10
f 68/65/15 63/42/15 67/66/15
f 67/66/15 63/42/15 64/67/15
f 66/65/16 61/42/16 68/68/16
f 68/68/16 61/42/16 63/44/16
usemtl c_1b2a35
f 69/69/7 70/70/7 71/71/7
f 71/71/7 70/70/7 72/72/7
f 73/73/13 70/70/13 74/74/13
f 74/74/13 70/70/13 69/75/13
f 70/73/14 73/70/14 72/76/14
f 72/76/14 73/70/14 75/72/14
f 73/69/10 74/70/10 75/71/10
f 75/71/10 74/70/10 76/72/10
f 76/73/15 71/70/15 75/74/15
f 75/74/15 71/70/15 72/75/15
f 74/73/16 69/70/16 76/76/16
f 76/76/16 69/70/16 71/72/16
f 77/77/7 78/78/7 79/79/7
f 79/79/7 78/78/7 80/80/7
f 81/81/13 78/78/13 82/82/13
f 82/82/13 78/78/13 77/83/13
f 78/81/14 81/78/14 80/84/14
f 80/84/14 81/78/14 83/80/14
f 81/77/10 82/78/10 83/79/10
f 83/79/10 82/78/10 84/80/10
f 84/81/15 79/78/15 83/82/15
f 83/82/15 79/78/15 80/83/15
f 82/81/16 77/78/16 84/84/16
f 84/84/16 77/78/16 79/80/16
f 85/85/7 86/86/7 87/87/7
f 87/87/7 86/86/7 88/88/7
f 89/85/13 86/86/13 90/89/13
f 90/89/13 86/86/13 85/90/13
f 86/85/14 89/86/14 88/87/14
f 88/87/14 89/86/14 91/88/14
f 89/85/10 90/86/10 91/87/10
f 91/87/10 90/86/10 92/88/10
f 92/85/15 87/86/15 91/89/15
f 91/89/15 87/86/15 88/90/15
f 90/85/16 85/86/16 92/87/16
f 92/87/16 85/86/16 87/88/16
o LeftUpperArm
usemtl c_1b2a35
f 93/91/17 94/92/17 95/93/17
f 95/93/17 94/92/17 96/94/17
f 97/91/18 94/92/18 98/93/18
f 98/93/18 94/92/18 93/94/18
f 94/91/19 97/92/19 96/93/19
f 96/93/19 97/92/19 99/94/19
f 97/91/20 98/92/20 99/93/20
f 99/93/20 98/92/20 100/94/20
f 100/91/21 95/92/21 99/93/21
f 99/93/21 95/92/21 96/94/21
f 98/91/22 93/92/22 100/93/22
f 100/93/22 93/92/22 95/94/22
f 101/95/17 102/96/17 103/97/17
f 103/97/17 102/96/17 104/98/17
f 105/95/18 102/96/18 106/97/18
f 106/97/18 102/96/18 101/98/18
f 102/95/19 105/96/19 104/97/19
f 104/97/19 105/96/19 107/98/19
f 105/95/20 106/96/20 107/97/20
f 107/97/20 106/96/20 108/98/20
f 108/95/21 103/96/21 107/97/21
f 107/97/21 103/96/21 104/98/21
f 106/95/22 101/96/22 108/97/22
f 108/97/22 101/96/22 103/98/22
f 109/99/17 110/100/17 111/101/17
f 111/101/17 110/100/17 112/102/17
f 113/99/18 110/100/18 114/101/18
f 114/101/18 110/100/18 109/102/18
f 110/99/19 113/100/19 112/101/19
f 112/101/19 113/100/19 115/102/19
f 113/99/20 114/100/20 115/101/20
f 115/101/20 114/100/20 116/102/20
f 116/99/21 111/100/21 115/101/21
f 115/101/21 111/100/21 112/102/21
f 114/99/22 109/100/22 116/101/22
f 116/101/22 109/100/22 111/102/22
usemtl c_7f8e64
f 117/103/23 118/104/23 119/105/23
f 119/105/23 118/104/23 120/106/23
f 121/103/24 118/104/24 122/107/24
f 122/107/24 118/104/24 117/108/24
f 118/103/25 121/104/25 120/105/25
f 120/105/25 121/104/25 123/106/25
f 121/103/26 122/104/26 123/105/26
f 123/105/26 122/104/26 124/106/26
f 124/103/27 119/104/27 123/107/27
f 123/107/27 119/104/27 120/108/27
f 122/103/28 117/104/28 124/105/28
f 124/105/28 117/104/28 119/106/28
f 125/109/17 126/110/17 127/111/17
f 127/111/17 126/110/17 128/112/17
f 129/109/18 126/110/18 130/113/18
f 130/113/18 126/110/18 125/114/18
f 126/109/19 129/110/19 128/111/19
f 128/111/19 129/110/19 131/112/19
f 129/109/20 130/110/20 131/111/20
f 131/111/20 130/110/20 106/112/20
f 106/109/21 127/110/21 131/113/21
f 131/113/21 127/110/21 128/114/21
f 130/109/22 125/110/22 106/111/22
f 106/111/22 125/110/22 127/112/22
o Tail
usemtl c_506d54
f 132/115/1 133/116/1 134/117/1
f 134/117/1 133/116/1 135/118/1
f 136/119/2 133/116/2 137/120/2
f 137/120/2 133/116/2 132/121/2
f 133/119/3 136/116/3 135/122/3
f 135/122/3 136/116/3 138/118/3
f 136/115/4 137/116/4 138/117/4
f 138/117/4 137/116/4 139/118/4
f 139/119/5 134/116/5 138/120/5
f 138/120/5 134/116/5 135/121/5
f 137/119/6 132/116/6 139/122/6
f 139/122/6 132/116/6 134/118/6
f 140/123/1 141/124/1 142/125/1
f 142/125/1 141/124/1 143/126/1
f 144/127/2 141/124/2 145/128/2
f 145/128/2 141/124/2 140/129/2
f 141/127/3 144/124/3 143/130/3
f 143/130/3 144/124/3 146/126/3
f 144/123/4 145/124/4 146/125/4
f 146/125/4 145/124/4 147/126/4
f 147/127/5 142/124/5 146/128/5
f 146/128/5 142/124/5 143/129/5
f 145/127/6 140/124/6 147/130/6
f 147/130/6 140/124/6 142/126/6
f 148/131/1 149/132/1 150/133/1
f 150/133/1 149/132/1 151/134/1
f 152/131/29 149/132/29 153/135/29
f 153/135/29 149/132/29 148/136/29
f 149/131/30 152/132/30 151/133/30
f 151/133/30 152/132/30 154/134/30
f 152/131/4 153/132/4 154/133/4
f 154/133/4 153/132/4 155/134/4
f 155/131/31 150/132/31 154/135/31
f 154/135/31 150/132/31 151/136/31
f 153/131/32 148/132/32 155/133/32
f 155/133/32 148/132/32 150/134/32
f 156/137/1 157/138/1 158/139/1
f 158/139/1 157/138/1 159/140/1
f 160/141/33 157/138/33 161/142/33
f 161/142/33 157/138/33 156/143/33
f 157/141/34 160/138/34 159/144/34
f 159/144/34 160/138/34 162/140/34
f 160/137/4 161/138/4 162/139/4
f 162/139/4 161/138/4 163/140/4
f 163/141/35 158/138/35 162/142/35
f 162/142/35 158/138/35 159/143/35
f 161/141/36 156/138/36 163/144/36
f 163/144/36 156/138/36 158/140/36
f 164/145/1 165/146/1 166/147/1
f 166/147/1 165/146/1 167/148/1
f 168/149/33 165/146/33 169/150/33
f 169/150/33 165/146/33 164/151/33
f 165/149/34 168/146/34 167/152/34
f 167/152/34 168/146/34 170/148/34
f 168/145/4 169/146/4 170/147/4
f 170/147/4 169/146/4 171/148/4
f 171/149/35 166/146/35 170/150/35
f 170/150/35 166/146/35 167/151/35
f 169/149/36 164/146/36 171/152/36
f 171/152/36 164/146/36 166/148/36
usemtl c_7f8e64
f 157/153/1 164/154/1 159/155/1
f 159/155/1 164/154/1 166/156/1
f 169/157/33 164/154/33 160/158/33
f 160/158/33 164/154/33 157/159/33
f 164/157/34 169/154/34 166/160/34
f 166/160/34 169/154/34 171/156/34
f 169/153/4 160/154/4 171/155/4
f 171/155/4 160/154/4 162/156/4
f 162/157/35 159/154/35 171/158/35
f 171/158/35 159/154/35 166/159/35
f 160/157/36 157/154/36 162/160/36
f 162/160/36 157/154/36 159/156/36
f 172/161/1 148/162/1 173/163/1
f 173/163/1 148/162/1 150/164/1
f 153/165/29 148/162/29 174/166/29
f 174/166/29 148/162/29 172/167/29
f 148/165/30 153/162/30 150/168/30
f 150/168/30 153/162/30 155/164/30
f 153/161/4 174/162/4 155/163/4
f 155/163/4 174/162/4 175/164/4
f 175/165/31 173/162/31 155/166/31
f 155/166/31 173/162/31 150/167/31
f 174/165/32 172/162/32 175/168/32
f 175/168/32 172/162/32 173/164/32
f 165/169/1 176/170/1 167/171/1
f 167/171/1 176/170/1 177/172/1
f 178/173/33 176/170/33 168/174/33
f 168/174/33 176/170/33 165/175/33
f 176/173/34 178/170/34 177/176/34
f 177/176/34 178/170/34 179/172/34
f 178/169/4 168/170/4 179/171/4
f 179/171/4 168/170/4 170/172/4
f 170/173/35 167/170/35 179/174/35
f 179/174/35 167/170/35 177/175/35
f 168/173/36 165/170/36 170/176/36
f 170/176/36 165/170/36 167/172/36
f 180/177/1 140/178/1 181/179/1
f 181/179/1 140/178/1 142/180/1
f 145/181/2 140/178/2 182/182/2
f 182/182/2 140/178/2 180/183/2
f 140/181/3 145/178/3 142/184/3
f 142/184/3 145/178/3 147/180/3
f 145/177/4 182/178/4 147/179/4
f 147/179/4 182/178/4 183/180/4
f 183/181/5 181/178/5 147/182/5
f 147/182/5 181/178/5 142/183/5
f 182/181/6 180/178/6 183/184/6
f 183/184/6 180/178/6 181/180/6
f 133/185/1 184/186/1 135/187/1
f 135/187/1 184/186/1 185/188/1
f 186/189/2 184/186/2 136/190/2
f 136/190/2 184/186/2 133/191/2
f 184/189/3 186/186/3 185/192/3
f 185/192/3 186/186/3 187/188/3
f 186/185/4 136/186/4 187/187/4
f 187/187/4 136/186/4 138/188/4
f 138/189/5 135/186/5 187/190/5
f 187/190/5 135/186/5 185/191/5
f 136/189/6 133/186/6 138/192/6
f 138/192/6 133/186/6 135/188/6
f 149/193/1 188/194/1 151/195/1
f 151/195/1 188/194/1 189/196/1
f 190/197/29 188/194/29 152/198/29
f 152/198/29 188/194/29 149/199/29
f 188/197/30 190/194/30 189/200/30
f 189/200/30 190/194/30 191/196/30
f 190/193/4 152/194/4 191/195/4
f 191/195/4 152/194/4 154/196/4
f 154/197/31 151/194/31 191/198/31
f 191/198/31 151/194/31 189/199/31
f 152/197/32 149/194/32 154/200/32
f 154/200/32 149/194/32 151/196/32
f 192/201/1 156/202/1 193/203/1
f 193/203/1 156/202/1 194/204/1
f 161/205/33 156/202/33 195/206/33
f 195/206/33 156/202/33 192/207/33
f 156/205/34 161/202/34 194/208/34
f 194/208/34 161/202/34 196/204/34
f 161/201/4 195/202/4 196/203/4
f 196/203/4 195/202/4 197/204/4
f 197/205/35 193/202/35 196/206/35
f 196/206/35 193/202/35 194/207/35
f 195/205/36 192/202/36 197/208/36
f 197/208/36 192/202/36 193/204/36
f 141/209/1 132/210/1 143/211/1
f 143/211/1 132/210/1 134/212/1
f 137/213/2 132/210/2 144/214/2
f 144/214/2 132/210/2 141/215/2
f 132/213/3 137/210/3 134/216/3
f 134/216/3 137/210/3 139/212/3
f 137/209/4 144/210/4 139/211/4
f 139/211/4 144/210/4 146/212/4
f 146/213/5 143/210/5 139/214/5
f 139/214/5 143/210/5 134/215/5
f 144/213/6 141/210/6 146/216/6
f 146/216/6 141/210/6 143/212/6
usemtl c_a8bd99
f 193/217/1 177/218/1 198/219/1
f 198/219/1 177/218/1 199/220/1
f 179/221/33 177/218/33 197/222/33
f 197/222/33 177/218/33 193/223/33
f 177/221/34 179/218/34 199/224/34
f 199/224/34 179/218/34 200/220/34
f 179/217/4 197/218/4 200/219/4
f 200/219/4 197/218/4 201/220/4
f 201/221/35 198/218/35 200/222/35
f 200/222/35 198/218/35 199/223/35
f 197/221/36 193/218/36 201/224/36
f 201/224/36 193/218/36 198/220/36
f 202/225/1 203/226/1 204/227/1
f 204/227/1 203/226/1 205/228/1
f 206/229/2 203/226/2 207/230/2
f 207/230/2 203/226/2 202/231/2
f 203/229/3 206/226/3 205/232/3
f 205/232/3 206/226/3 208/228/3
f 206/225/4 207/226/4 208/227/4
f 208/227/4 207/226/4 209/228/4
f 209/229/5 204/226/5 208/230/5
f 208/230/5 204/226/5 205/231/5
f 207/229/6 202/226/6 209/232/6
f 209/232/6 202/226/6 204/228/6
o LowerTorso
usemtl c_506d54
f 210/233/1 211/234/1 212/235/1
f 212/235/1 211/234/1 213/236/1
f 214/237/2 211/234/2 215/238/2
f 215/238/2 211/234/2 210/239/2
f 211/237/3 214/234/3 213/240/3
f 213/240/3 214/234/3 216/236/3
f 214/233/4 215/234/4 216/235/4
f 216/235/4 215/234/4 217/236/4
f 217/237/5 212/234/5 216/238/5
f 216/238/5 212/234/5 213/239/5
f 215/237/6 210/234/6 217/240/6
f 217/240/6 210/234/6 212/236/6
usemtl c_7f8e64
f 218/241/1 219/242/1 220/243/1
f 220/243/1 219/242/1 221/244/1
f 222/245/2 219/242/2 223/246/2
f 223/246/2 219/242/2 218/247/2
f 219/245/3 222/242/3 221/248/3
f 221/248/3 222/242/3 224/244/3
f 222/241/4 223/242/4 224/243/4
f 224/243/4 223/242/4 225/244/4
f 225/245/5 220/242/5 224/246/5
f 224/246/5 220/242/5 221/247/5
f 223/245/6 218/242/6 225/248/6
f 225/248/6 218/242/6 220/244/6
usemtl c_a8bd99
f 226/249/1 227/250/1 228/251/1
f 228/251/1 227/250/1 229/252/1
f 230/253/2 227/250/2 231/254/2
f 231/254/2 227/250/2 226/255/2
f 227/253/3 230/250/3 229/256/3
f 229/256/3 230/250/3 232/252/3
f 230/249/4 231/250/4 232/251/4
f 232/251/4 231/250/4 233/252/4
f 233/253/5 228/250/5 232/254/5
f 232/254/5 228/250/5 229/255/5
f 231/253/6 226/250/6 233/256/6
f 233/256/6 226/250/6 228/252/6
o RightUpperArm
usemtl c_7f8e64
f 234/257/37 235/258/37 236/259/37
f 236/259/37 235/258/37 237/260/37
f 238/257/38 235/258/38 239/261/38
f 239/261/38 235/258/38 234/262/38
f 235/257/39 238/258/39 237/259/39
f 237/259/39 238/258/39 240/260/39
f 238/257/40 239/258/40 240/259/40
f 240/259/40 239/258/40 241/260/40
f 241/257/41 236/258/41 240/261/41
f 240/261/41 236/258/41 237/262/41
f 239/257/42 234/258/42 241/259/42
f 241/259/42 234/258/42 236/260/42
f 242/263/43 243/264/43 244/265/43
f 244/265/43 243/264/43 245/266/43
f 246/263/44 243/264/44 247/267/44
f 247/267/44 243/264/44 242/268/44
f 243/263/45 246/264/45 245/265/45
f 245/265/45 246/264/45 248/266/45
f 246/263/46 247/264/46 248/265/46
f 248/265/46 247/264/46 249/266/46
f 249/263/47 244/264/47 248/267/47
f 248/267/47 244/264/47 245/268/47
f 247/263/48 242/264/48 249/265/48
f 249/265/48 242/264/48 244/266/48
usemtl c_1b2a35
f 250/269/43 251/270/43 252/271/43
f 252/271/43 251/270/43 253/272/43
f 254/269/44 251/270/44 255/271/44
f 255/271/44 251/270/44 250/272/44
f 251/269/45 254/270/45 253/271/45
f 253/271/45 254/270/45 256/272/45
f 254/269/46 255/270/46 256/271/46
f 256/271/46 255/270/46 257/272/46
f 257/269/47 252/270/47 256/271/47
f 256/271/47 252/270/47 253/272/47
f 255/269/48 250/270/48 257/271/48
f 257/271/48 250/270/48 252/272/48
f 258/273/43 259/274/43 260/275/43
f 260/275/43 259/274/43 261/276/43
f 262/273/44 259/274/44 249/275/44
f 249/275/44 259/274/44 258/276/44
f 259/273/45 262/274/45 261/275/45
f 261/275/45 262/274/45 263/276/45
f 262/273/46 249/274/46 263/275/46
f 263/275/46 249/274/46 264/276/46
f 264/273/47 260/274/47 263/275/47
f 263/275/47 260/274/47 261/276/47
f 249/273/48 258/274/48 264/275/48
f 264/275/48 258/274/48 260/276/48
f 265/277/43 266/278/43 267/279/43
f 267/279/43 266/278/43 268/280/43
f 269/277/44 266/278/44 270/279/44
f 270/279/44 266/278/44 265/280/44
f 266/277/45 269/278/45 268/279/45
f 268/279/45 269/278/45 271/280/45
f 269/277/46 270/278/46 271/279/46
f 271/279/46 270/278/46 272/280/46
f 272/277/47 267/278/47 271/279/47
f 271/279/47 267/278/47 268/280/47
f 270/277/48 265/278/48 272/279/48
f 272/279/48 265/278/48 267/280/48
o Head
usemtl c_7f8e64
f 273/281/1 274/282/1 275/283/1
f 275/283/1 274/282/1 276/284/1
f 277/285/2 274/282/2 278/286/2
f 278/286/2 274/282/2 273/287/2
f 274/285/3 277/282/3 276/288/3
f 276/288/3 277/282/3 279/284/3
f 277/281/4 278/282/4 279/283/4
f 279/283/4 278/282/4 280/284/4
f 280/285/5 275/282/5 279/286/5
f 279/286/5 275/282/5 276/287/5
f 278/285/6 273/282/6 280/288/6
f 280/288/6 273/282/6 275/284/6
f 281/289/1 282/290/1 283/291/1
f 283/291/1 282/290/1 284/292/1
f 285/116/2 282/290/2 286/121/2
f 286/121/2 282/290/2 281/293/2
f 282/116/3 285/290/3 284/294/3
f 284/294/3 285/290/3 287/292/3
f 285/289/4 286/290/4 287/291/4
f 287/291/4 286/290/4 288/292/4
f 288/116/5 283/290/5 287/121/5
f 287/121/5 283/290/5 284/293/5
f 286/116/6 281/290/6 288/294/6
f 288/294/6 281/290/6 283/292/6
f 289/295/1 290/296/1 291/297/1
f 291/297/1 290/296/1 292/298/1
f 293/299/49 290/296/49 294/300/49
f 294/300/49 290/296/49 289/301/49
f 290/299/50 293/296/50 292/302/50
f 292/302/50 293/296/50 295/298/50
f 293/295/4 294/296/4 295/297/4
f 295/297/4 294/296/4 296/298/4
f 296/299/51 291/296/51 295/300/51
f 295/300/51 291/296/51 292/301/51
f 294/299/52 289/296/52 296/302/52
f 296/302/52 289/296/52 291/298/52
f 297/303/1 298/304/1 284/305/1
f 284/305/1 298/304/1 299/306/1
f 300/307/2 298/304/2 301/308/2
f 301/308/2 298/304/2 297/309/2
f 298/307/3 300/304/3 299/310/3
f 299/310/3 300/304/3 302/306/3
f 300/303/4 301/304/4 302/305/4
f 302/305/4 301/304/4 287/306/4
f 287/307/5 284/304/5 302/308/5
f 302/308/5 284/304/5 299/309/5
f 301/307/6 297/304/6 287/310/6
f 287/310/6 297/304/6 284/306/6
f 303/311/1 304/312/1 305/313/1
f 305/313/1 304/312/1 306/314/1
f 307/315/53 304/312/53 308/316/53
f 308/316/53 304/312/53 303/317/53
f 304/315/54 307/312/54 306/318/54
f 306/318/54 307/312/54 309/314/54
f 307/311/4 308/312/4 309/313/4
f 309/313/4 308/312/4 310/314/4
f 310/315/55 305/312/55 309/316/55
f 309/316/55 305/312/55 306/317/55
f 308/315/56 303/312/56 310/318/56
f 310/318/56 303/312/56 305/314/56
f 311/319/1 312/320/1 313/321/1
f 313/321/1 312/320/1 314/322/1
f 315/323/2 312/320/2 316/324/2
f 316/324/2 312/320/2 311/325/2
f 312/323/3 315/320/3 314/326/3
f 314/326/3 315/320/3 317/322/3
f 315/319/4 316/320/4 317/321/4
f 317/321/4 316/320/4 318/322/4
f 318/323/5 313/320/5 317/324/5
f 317/324/5 313/320/5 314/325/5
f 316/323/6 311/320/6 318/326/6
f 318/326/6 311/320/6 313/322/6
usemtl c_506d54
f 319/327/1 320/328/1 321/329/1
f 321/329/1 320/328/1 322/330/1
f 323/331/33 320/328/33 324/332/33
f 324/332/33 320/328/33 319/333/33
f 320/331/34 323/328/34 322/334/34
f 322/334/34 323/328/34 325/330/34
f 323/327/4 324/328/4 325/329/4
f 325/329/4 324/328/4 326/330/4
f 326/331/35 321/328/35 325/332/35
f 325/332/35 321/328/35 322/333/35
f 324/331/36 319/328/36 326/334/36
f 326/334/36 319/328/36 321/330/36
f 327/335/1 328/336/1 329/337/1
f 329/337/1 328/336/1 330/338/1
f 331/339/57 328/336/57 332/340/57
f 332/340/57 328/336/57 327/341/57
f 328/339/58 331/336/58 330/342/58
f 330/342/58 331/336/58 333/338/58
f 331/335/4 332/336/4 333/337/4
f 333/337/4 332/336/4 334/338/4
f 334/339/59 329/336/59 333/340/59
f 333/340/59 329/336/59 330/341/59
f 332/339/60 327/336/60 334/342/60
f 334/342/60 327/336/60 329/338/60
f 335/343/1 336/344/1 337/345/1
f 337/345/1 336/344/1 338/346/1
f 339/347/53 336/344/53 340/348/53
f 340/348/53 336/344/53 335/349/53
f 336/347/54 339/344/54 338/350/54
f 338/350/54 339/344/54 341/346/54
f 339/343/4 340/344/4 341/345/4
f 341/345/4 340/344/4 342/346/4
f 342/347/55 337/344/55 341/348/55
f 341/348/55 337/344/55 338/349/55
f 340/347/56 335/344/56 342/350/56
f 342/350/56 335/344/56 337/346/56
f 343/351/1 344/352/1 298/353/1
f 298/353/1 344/352/1 345/354/1
f 346/351/2 344/352/2 347/355/2
f 347/355/2 344/352/2 343/356/2
f 344/351/3 346/352/3 345/353/3
f 345/353/3 346/352/3 348/354/3
f 346/351/4 347/352/4 348/353/4
f 348/353/4 347/352/4 300/354/4
f 300/351/5 298/352/5 348/355/5
f 348/355/5 298/352/5 345/356/5
f 347/351/6 343/352/6 300/353/6
f 300/353/6 343/352/6 298/354/6
usemtl c_ffffcc
f 349/357/1 350/358/1 351/359/1
f 351/359/1 350/358/1 352/360/1
f 287/357/2 350/358/2 353/359/2
f 353/359/2 350/358/2 349/360/2
f 350/357/3 287/358/3 352/359/3
f 352/359/3 287/358/3 354/360/3
f 287/357/4 353/358/4 354/359/4
f 354/359/4 353/358/4 355/360/4
f 355/357/5 351/358/5 354/359/5
f 354/359/5 351/358/5 352/360/5
f 353/357/6 349/358/6 355/359/6
f 355/359/6 349/358/6 351/360/6
f 356/361/1 357/362/1 358/363/1
f 358/363/1 357/362/1 359/364/1
f 360/361/2 357/362/2 361/363/2
f 361/363/2 357/362/2 356/364/2
f 357/361/3 360/362/3 359/363/3
f 359/363/3 360/362/3 362/364/3
f 360/361/4 361/362/4 362/363/4
f 362/363/4 361/362/4 363/364/4
f 363/361/5 358/362/5 362/363/5
f 362/363/5 358/362/5 359/364/5
f 361/361/6 356/362/6 363/363/6
f 363/363/6 356/362/6 358/364/6
f 364/365/1 365/366/1 366/367/1
f 366/367/1 365/366/1 367/368/1
f 368/365/2 365/366/2 369/367/2
f 369/367/2 365/366/2 364/368/2
f 365/365/3 368/366/3 367/367/3
f 367/367/3 368/366/3 370/368/3
f 368/365/4 369/366/4 370/367/4
f 370/367/4 369/366/4 371/368/4
f 371/365/5 366/366/5 370/367/5
f 370/367/5 366/366/5 367/368/5
f 369/365/6 364/366/6 371/367/6
f 371/367/6 364/366/6 366/368/6
f 372/369/1 373/370/1 374/371/1
f 374/371/1 373/370/1 375/372/1
f 376/369/2 373/370/2 377/371/2
f 377/371/2 373/370/2 372/372/2
f 373/369/3 376/370/3 375/371/3
f 375/371/3 376/370/3 378/372/3
f 376/369/4 377/370/4 378/371/4
f 378/371/4 377/370/4 379/372/4
f 379/369/5 374/370/5 378/371/5
f 378/371/5 374/370/5 375/372/5
f 377/369/6 372/370/6 379/371/6
f 379/371/6 372/370/6 374/372/6
f 380/373/1 381/374/1 382/375/1
f 382/375/1 381/374/1 383/376/1
f 384/373/2 381/374/2 385/375/2
f 385/375/2 381/374/2 380/376/2
f 381/373/3 384/374/3 383/375/3
f 383/375/3 384/374/3 386/376/3
f 384/373/4 385/374/4 386/375/4
f 386/375/4 385/374/4 387/376/4
f 387/373/5 382/374/5 386/375/5
f 386/375/5 382/374/5 383/376/5
f 385/373/6 380/374/6 387/375/6
f 387/375/6 380/374/6 382/376/6
f 388/377/1 389/378/1 390/379/1
f 390/379/1 389/378/1 391/380/1
f 392/377/2 389/378/2 393/379/2
f 393/379/2 389/378/2 388/380/2
f 389/377/3 392/378/3 391/379/3
f 391/379/3 392/378/3 394/380/3
f 392/377/4 393/378/4 394/379/4
f 394/379/4 393/378/4 395/380/4
f 395/377/5 390/378/5 394/379/5
f 394/379/5 390/378/5 391/380/5
f 393/377/6 388/378/6 395/379/6
f 395/379/6 388/378/6 390/380/6
f 396/381/1 397/382/1 398/383/1
f 398/383/1 397/382/1 399/384/1
f 400/381/2 397/382/2 401/383/2
f 401/383/2 397/382/2 396/384/2
f 397/381/3 400/382/3 399/383/3
f 399/383/3 400/382/3 402/384/3
f 400/381/4 401/382/4 402/383/4
f 402/383/4 401/382/4 403/384/4
f 403/381/5 398/382/5 402/383/5
f 402/383/5 398/382/5 399/384/5
f 401/381/6 396/382/6 403/383/6
f 403/383/6 396/382/6 398/384/6
f 404/385/1 284/386/1 405/387/1
f 405/387/1 284/386/1 406/388/1
f 407/385/2 284/386/2 408/387/2
f 408/387/2 284/386/2 404/388/2
f 284/385/3 407/386/3 406/387/3
f 406/387/3 407/386/3 409/388/3
f 407/385/4 408/386/4 409/387/4
f 409/387/4 408/386/4 410/388/4
f 410/385/5 405/386/5 409/387/5
f 409/387/5 405/386/5 406/388/5
f 408/385/6 404/386/6 410/387/6
f 410/387/6 404/386/6 405/388/6
f 411/389/1 412/390/1 413/391/1
f 413/391/1 412/390/1 414/392/1
f 415/389/2 412/390/2 416/391/2
f 416/391/2 412/390/2 411/392/2
f 412/389/3 415/390/3 414/391/3
f 414/391/3 415/390/3 417/392/3
f 415/389/4 416/390/4 417/391/4
f 417/391/4 416/390/4 418/392/4
f 418/389/5 413/390/5 417/391/5
f 417/391/5 413/390/5 414/392/5
f 416/389/6 411/390/6 418/391/6
f 418/391/6 411/390/6 413/392/6
f 419/393/1 420/394/1 421/395/1
f 421/395/1 420/394/1 422/396/1
f 423/393/2 420/394/2 424/395/2
f 424/395/2 420/394/2 419/396/2
f 420/393/3 423/394/3 422/395/3
f 422/395/3 423/394/3 425/396/3
f 423/393/4 424/394/4 425/395/4
f 425/395/4 424/394/4 426/396/4
f 426/393/5 421/394/5 425/395/5
f 425/395/5 421/394/5 422/396/5
f 424/393/6 419/394/6 426/395/6
f 426/395/6 419/394/6 421/396/6
f 427/397/1 428/398/1 429/399/1
f 429/399/1 428/398/1 430/400/1
f 431/397/2 428/398/2 432/399/2
f 432/399/2 428/398/2 427/400/2
f 428/397/3 431/398/3 430/399/3
f 430/399/3 431/398/3 433/400/3
f 431/397/4 432/398/4 433/399/4
f 433/399/4 432/398/4 434/400/4
f 434/397/5 429/398/5 433/399/5
f 433/399/5 429/398/5 430/400/5
f 432/397/6 427/398/6 434/399/6
f 434/399/6 427/398/6 429/400/6
f 435/401/1 436/402/1 437/403/1
f 437/403/1 436/402/1 438/404/1
f 439/401/2 436/402/2 440/403/2
f 440/403/2 436/402/2 435/404/2
f 436/401/3 439/402/3 438/403/3
f 438/403/3 439/402/3 441/404/3
f 439/401/4 440/402/4 441/403/4
f 441/403/4 440/402/4 442/404/4
f 442/401/5 437/402/5 441/403/5
f 441/403/5 437/402/5 438/404/5
f 440/401/6 435/402/6 442/403/6
f 442/403/6 435/402/6 437/404/6
usemtl c_1b2a35
f 278/405/1 277/406/1 280/407/1
f 280/407/1 277/406/1 279/408/1
f 301/405/2 277/406/2 443/409/2
f 443/409/2 277/406/2 278/410/2
f 277/405/3 301/406/3 279/407/3
f 279/407/3 301/406/3 285/408/3
f 301/405/4 443/406/4 285/407/4
f 285/407/4 443/406/4 286/408/4
f 286/405/5 280/406/5 285/409/5
f 285/409/5 280/406/5 279/410/5
f 443/405/6 278/406/6 286/407/6
f 286/407/6 278/406/6 280/408/6
f 444/411/1 297/412/1 281/413/1
f 281/413/1 297/412/1 282/414/1
f 274/411/2 297/412/2 273/415/2
f 273/415/2 297/412/2 444/416/2
f 297/411/3 274/412/3 282/413/3
f 282/413/3 274/412/3 276/414/3
f 274/411/4 273/412/4 276/413/4
f 276/413/4 273/412/4 275/414/4
f 275/411/5 281/412/5 276/415/5
f 276/415/5 281/412/5 282/416/5
f 273/411/6 444/412/6 275/413/6
f 275/413/6 444/412/6 281/414/6
usemtl c_f8d96d
f 445/417/1 446/110/1 447/418/1
f 447/418/1 446/110/1 448/419/1
f 449/420/2 446/110/2 450/421/2
f 450/421/2 446/110/2 445/419/2
f 446/420/3 449/110/3 448/421/3
f 448/421/3 449/110/3 451/419/3
f 449/417/4 450/110/4 451/418/4
f 451/418/4 450/110/4 452/419/4
f 452/420/5 447/110/5 451/421/5
f 451/421/5 447/110/5 448/419/5
f 450/420/6 445/110/6 452/421/6
f 452/421/6 445/110/6 447/419/6
usemtl c_a8bd99
f 305/422/1 306/423/1 453/424/1
f 453/424/1 306/423/1 454/425/1
f 309/426/53 306/423/53 310/427/53
f 310/427/53 306/423/53 305/428/53
f 306/426/54 309/423/54 454/429/54
f 454/429/54 309/423/54 455/425/54
f 309/422/4 310/423/4 455/424/4
f 455/424/4 310/423/4 456/425/4
f 456/426/55 453/423/55 455/427/55
f 455/427/55 453/423/55 454/428/55
f 310/426/56 305/423/56 456/429/56
f 456/429/56 305/423/56 453/425/56
f 457/430/1 458/431/1 459/432/1
f 459/432/1 458/431/1 460/433/1
f 461/434/2 458/431/2 462/435/2
f 462/435/2 458/431/2 457/436/2
f 458/434/3 461/431/3 460/437/3
f 460/437/3 461/431/3 463/433/3
f 461/430/4 462/431/4 463/432/4
f 463/432/4 462/431/4 464/433/4
f 464/434/5 459/431/5 463/435/5
f 463/435/5 459/431/5 460/436/5
f 462/434/6 457/431/6 464/437/6
f 464/437/6 457/431/6 459/433/6
f 465/438/1 466/439/1 467/440/1
f 467/440/1 466/439/1 468/441/1
f 469/442/2 466/439/2 470/443/2
f 470/443/2 466/439/2 465/444/2
f 466/442/3 469/439/3 468/445/3
f 468/445/3 469/439/3 471/441/3
f 469/438/4 470/439/4 471/440/4
f 471/440/4 470/439/4 472/441/4
f 472/442/5 467/439/5 471/443/5
f 471/443/5 467/439/5 468/444/5
f 470/442/6 465/439/6 472/445/6
f 472/445/6 465/439/6 467/441/6
f 291/446/1 473/447/1 474/448/1
f 474/448/1 473/447/1 475/449/1
f 476/450/49 473/447/49 296/451/49
f 296/451/49 473/447/49 291/452/49
f 473/450/50 476/447/50 475/453/50
f 475/453/50 476/447/50 477/449/50
f 476/446/4 296/447/4 477/448/4
f 477/448/4 296/447/4 478/449/4
f 478/450/51 474/447/51 477/451/51
f 477/451/51 474/447/51 475/452/51
f 296/450/52 291/447/52 478/453/52
f 478/453/52 291/447/52 474/449/52
usemtl c_970000
f 479/454/1 480/455/1 481/456/1
f 481/456/1 480/455/1 482/457/1
f 483/458/2 480/455/2 484/459/2
f 484/459/2 480/455/2 479/460/2
f 480/458/3 483/455/3 482/461/3
f 482/461/3 483/455/3 485/457/3
f 483/454/4 484/455/4 485/456/4
f 485/456/4 484/455/4 486/457/4
f 486/458/5 481/455/5 485/459/5
f 485/459/5 481/455/5 482/460/5
f 484/458/6 479/455/6 486/461/6
f 486/461/6 479/455/6 481/457/6
o Head_decal1
usemtl head_decal1
f 487/462/1 488/463/1 489/464/1
f 489/464/1 488/463/1 490/465/1
o Head_decal2
usemtl head_decal2
f 491/462/4 492/463/4 493/464/4
f 493/464/4 492/463/4 494/465/4
o RightUpperLeg
usemtl c_7f8e64
f 495/466/61 496/467/61 497/468/61
f 497/468/61 496/467/61 498/469/61
f 499/470/62 496/467/62 500/471/62
f 500/471/62 496/467/62 495/472/62
f 496/470/63 499/467/63 498/473/63
f 498/473/63 499/467/63 501/469/63
f 499/466/64 500/467/64 501/468/64
f 501/468/64 500/467/64 502/469/64
f 502/470/65 497/467/65 501/471/65
f 501/471/65 497/467/65 498/472/65
f 500/470/66 495/467/66 502/473/66
f 502/473/66 495/467/66 497/469/66
f 503/474/61 504/475/61 505/476/61
f 505/476/61 504/475/61 506/477/61
f 507/474/67 504/475/67 508/478/67
f 508/478/67 504/475/67 503/479/67
f 504/474/68 507/475/68 506/476/68
f 506/476/68 507/475/68 509/477/68
f 507/474/64 508/475/64 509/476/64
f 509/476/64 508/475/64 510/477/64
f 510/474/69 505/475/69 509/478/69
f 509/478/69 505/475/69 506/479/69
f 508/474/70 503/475/70 510/476/70
f 510/476/70 503/475/70 505/477/70
f 511/480/61 512/481/61 513/482/61
f 513/482/61 512/481/61 514/483/61
f 515/484/67 512/481/67 516/485/67
f 516/485/67 512/481/67 511/486/67
f 512/484/68 515/481/68 514/487/68
f 514/487/68 515/481/68 517/483/68
f 515/480/64 516/481/64 517/482/64
f 517/482/64 516/481/64 518/483/64
f 518/484/69 513/481/69 517/485/69
f 517/485/69 513/481/69 514/486/69
f 516/484/70 511/481/70 518/487/70
f 518/487/70 511/481/70 513/483/70
usemtl c_1b2a35
f 519/488/61 520/489/61 521/490/61
f 521/490/61 520/489/61 522/491/61
f 523/492/67 520/489/67 524/493/67
f 524/493/67 520/489/67 519/494/67
f 520/492/68 523/489/68 522/495/68
f 522/495/68 523/489/68 525/491/68
f 523/488/64 524/489/64 525/490/64
f 525/490/64 524/489/64 526/491/64
f 526/492/69 521/489/69 525/493/69
f 525/493/69 521/489/69 522/494/69
f 524/492/70 519/489/70 526/495/70
f 526/495/70 519/489/70 521/491/70
f 527/496/61 528/497/61 529/498/61
f 529/498/61 528/497/61 530/499/61
f 531/496/67 528/497/67 532/500/67
f 532/500/67 528/497/67 527/501/67
f 528/496/68 531/497/68 530/498/68
f 530/498/68 531/497/68 533/499/68
f 531/496/64 532/497/64 533/498/64
f 533/498/64 532/497/64 534/499/64
f 534/496/69 529/497/69 533/500/69
f 533/500/69 529/497/69 530/501/69
f 532/496/70 527/497/70 534/498/70
f 534/498/70 527/497/70 529/499/70
f 535/502/61 536/503/61 537/504/61
f 537/504/61 536/503/61 538/505/61
f 539/506/67 536/503/67 540/507/67
f 540/507/67 536/503/67 535/508/67
f 536/506/68 539/503/68 538/509/68
f 538/509/68 539/503/68 541/505/68
f 539/502/64 540/503/64 541/504/64
f 541/504/64 540/503/64 542/505/64
f 542/506/69 537/503/69 541/507/69
f 541/507/69 537/503/69 538/508/69
f 540/506/70 535/503/70 542/509/70
f 542/509/70 535/503/70 537/505/70
