# Roblox asset pack: egg_prismatic (props), from the Studio model "Eggs/PrismaticEgg". Exported with Export Selection, split by tools/build_creatures.py: one object per rigid body. Units: studs. +Y up, front faces -Z, pivot (bottom centre) at the origin.
mtllib egg_prismatic.mtl

v -1.32730 5.24000 -0.66000
v -0.37540 5.24000 -0.66000
v -1.32730 4.79000 -0.66000
v -0.37540 4.79000 -0.66000
v -0.37540 5.24000 0.45000
v -1.32730 5.24000 0.45000
v -0.37540 4.79000 0.45000
v -1.32730 4.79000 0.45000
v -0.56130 6.57000 -0.48000
v -0.67680 6.37000 -0.48000
v -0.09720 6.30000 0.05000
v -0.21280 6.10000 0.05000
v -0.50000 6.26000 -0.69000
v -0.38450 6.46000 -0.69000
v -0.03590 6.00000 -0.15000
v 0.07960 6.20000 -0.15000
v -0.38450 6.46000 0.48000
v -0.50000 6.26000 0.48000
v 0.07960 6.20000 -0.06000
v -0.03590 6.00000 -0.06000
v -0.67690 6.37000 0.28000
v -0.56130 6.57000 0.28000
v -0.21280 6.10000 -0.26000
v -0.09730 6.30000 -0.26000
v 0.04530 6.30000 0.08000
v -0.25480 6.12000 0.08000
v 0.56870 5.39000 0.08000
v 0.26860 5.22000 0.08000
v -0.25480 6.12000 -0.29000
v 0.04530 6.30000 -0.29000
v 0.26860 5.22000 -0.29000
v 0.56870 5.39000 -0.29000
v 0.66220 5.52000 0.20000
v 0.09340 5.42000 0.20000
v 0.79020 4.80000 0.20000
v 0.22130 4.70000 0.20000
v 0.09340 5.42000 -0.40000
v 0.66220 5.52000 -0.40000
v 0.22130 4.70000 -0.40000
v 0.79020 4.80000 -0.40000
v -1.79590 5.40000 -0.49000
v -1.31500 5.80000 -0.49000
v -1.32250 4.83000 -0.49000
v -0.84150 5.24000 -0.49000
v -1.31500 5.80000 0.28000
v -1.79590 5.40000 0.28000
v -0.84150 5.24000 0.28000
v -1.32250 4.83000 0.28000
v -2.33190 7.57000 -1.13000
v -2.04450 7.68000 -1.13000
v -2.33190 7.57000 0.98000
v -2.04450 7.68000 0.98000
v -2.18150 8.05000 -1.13000
v -2.46890 7.95000 -1.13000
v -2.18150 8.05000 0.98000
v -2.46890 7.95000 0.98000
v -2.37230 8.50000 0.47000
v -2.14550 8.52000 0.47000
v -2.30680 7.78000 0.27000
v -2.08000 7.80000 0.28000
v -2.14550 8.45000 0.74000
v -2.37230 8.43000 0.74000
v -2.08000 7.73000 0.55000
v -2.30680 7.71000 0.55000
v -2.37230 8.43000 -0.95000
v -2.14550 8.45000 -0.95000
v -2.30680 7.71000 -0.75000
v -2.08000 7.73000 -0.76000
v -2.14550 8.52000 -0.68000
v -2.37230 8.50000 -0.68000
v -2.08000 7.80000 -0.49000
v -2.30680 7.78000 -0.48000
v -2.54680 7.71000 -0.35000
v -2.16650 7.85000 -0.35000
v -1.69520 5.37000 -0.35000
v -1.31490 5.51000 -0.35000
v -2.16650 7.85000 0.15000
v -2.54680 7.71000 0.15000
v -1.31490 5.51000 0.15000
v -1.69520 5.37000 0.15000
v -0.56910 4.99000 -1.25000
v 1.92360 4.99000 -1.25000
v -0.56910 4.36000 -1.25000
v 1.92360 4.36000 -1.25000
v 1.92360 4.99000 1.25000
v -0.56910 4.99000 1.25000
v 1.92360 4.36000 1.25000
v -0.56910 4.36000 1.25000
v -0.88070 4.36000 -1.56000
v 2.23520 4.36000 -1.56000
v -0.88070 3.74000 -1.56000
v 2.23520 3.74000 -1.56000
v 2.23520 4.36000 1.56000
v -0.88070 4.36000 1.56000
v 2.23520 3.74000 1.56000
v -0.88070 3.74000 1.56000
v -0.88070 1.25000 -1.56000
v 2.23520 1.25000 -1.56000
v -0.88070 0.62000 -1.56000
v 2.23520 0.62000 -1.56000
v 2.23520 1.25000 1.56000
v -0.88070 1.25000 1.56000
v 2.23520 0.62000 1.56000
v -0.88070 0.62000 1.56000
v -1.19230 3.74000 -1.87000
v 2.54680 3.74000 -1.87000
v -1.19230 1.25000 -1.87000
v 2.54680 1.25000 -1.87000
v 2.54680 3.74000 1.87000
v -1.19230 3.74000 1.87000
v 2.54680 1.25000 1.87000
v -1.19230 1.25000 1.87000
v -0.56910 0.62000 -1.25000
v 1.92360 0.62000 -1.25000
v -0.56910 0.00000 -1.25000
v 1.92360 0.00000 -1.25000
v 1.92360 0.62000 1.25000
v -0.56910 0.62000 1.25000
v 1.92360 0.00000 1.25000
v -0.56910 0.00000 1.25000
vt 0.86898 0.75000
vt 0.75000 0.75000
vt 0.86898 0.69431
vt 0.75000 0.69431
vt 0.88930 0.75000
vt 0.88930 0.63102
vt 0.75000 0.63102
vt 0.88930 0.69431
vt 5.27888 -3.25000
vt 5.25000 -3.25000
vt 5.27888 -3.34473
vt 5.25000 -3.34473
vt 5.28610 -3.25000
vt 5.28610 -3.27888
vt 5.25000 -3.27888
vt 5.28610 -3.34473
vt 3.77888 -4.75000
vt 3.75000 -4.75000
vt 3.77888 -4.84473
vt 3.75000 -4.84473
vt 3.78610 -4.75000
vt 3.78610 -4.77888
vt 3.75000 -4.77888
vt 3.78610 -4.84473
vt 7.54332 -2.50000
vt 7.50000 -2.50000
vt 7.54332 -2.63083
vt 7.50000 -2.63083
vt 7.54563 -2.50000
vt 7.54563 -2.54332
vt 7.50000 -2.54332
vt 7.54563 -2.63083
vt 3.57220 -5.50000
vt 3.50000 -5.50000
vt 3.57220 -5.59213
vt 3.50000 -5.59213
vt 3.57494 -5.50000
vt 3.57494 -5.57220
vt 3.50000 -5.57220
vt 3.57494 -5.59213
vt 3.82847 -1.75000
vt 3.75000 -1.75000
vt 3.82847 -1.84208
vt 3.75000 -1.84208
vt 3.84598 -1.75000
vt 3.84598 -1.82847
vt 3.75000 -1.82847
vt 3.84598 -1.84208
vt 7.78824 -1.50000
vt 7.75000 -1.50000
vt 7.78824 -1.76409
vt 7.75000 -1.76409
vt 7.80006 -1.50000
vt 7.80006 -1.53824
vt 7.75000 -1.53824
vt 7.80006 -1.76409
vt 4.77846 -2.75000
vt 4.75000 -2.75000
vt 4.77846 -2.84390
vt 4.75000 -2.84390
vt 4.78510 -2.75000
vt 4.78510 -2.77846
vt 4.75000 -2.77846
vt 4.78510 -2.84390
vt 6.77846 -3.25000
vt 6.75000 -3.25000
vt 6.77846 -3.34390
vt 6.75000 -3.34390
vt 6.78510 -3.25000
vt 6.78510 -3.27846
vt 6.75000 -3.27846
vt 6.78510 -3.34390
vt 6.55058 -6.25000
vt 6.50000 -6.25000
vt 6.55058 -6.56128
vt 6.50000 -6.56128
vt 6.56239 -6.25000
vt 6.56239 -6.30058
vt 6.50000 -6.30058
vt 6.56239 -6.56128
vt 5.56160 -6.50000
vt 5.25000 -6.50000
vt 5.56160 -6.57790
vt 5.25000 -6.57790
vt 5.56160 -6.81160
vt 5.25000 -6.81160
vt 4.13949 -6.75000
vt 3.75000 -6.75000
vt 4.13949 -6.82790
vt 3.75000 -6.82790
vt 4.13949 -7.13949
vt 3.75000 -7.13949
vt 3.13949 -3.25000
vt 2.75000 -3.25000
vt 3.13949 -3.32790
vt 2.75000 -3.32790
vt 3.13949 -3.63949
vt 2.75000 -3.63949
vt 5.46739 -6.50000
vt 5.00000 -6.50000
vt 5.46739 -6.81160
vt 5.00000 -6.81160
vt 5.46739 -6.96739
vt 5.00000 -6.96739
vt 0.81160 -1.00000
vt 0.50000 -1.00000
vt 0.81160 -1.07790
vt 0.50000 -1.07790
vt 0.81160 -1.31160
vt 0.50000 -1.31160
vn 0.0000 0.0000 -1.0000
vn 0.0000 1.0000 0.0000
vn 1.0000 0.0000 0.0000
vn 0.0000 0.0000 1.0000
vn 0.0000 -1.0000 0.0000
vn -1.0000 0.0000 0.0000
vn -0.6142 0.3543 0.7087
vn -0.6142 0.3543 -0.7087
vn -0.4961 -0.8661 0.0000
vn 0.6142 -0.3543 -0.7087
vn 0.6142 -0.3543 0.7087
vn 0.4961 0.8661 0.0000
vn -0.5039 0.8661 0.0000
vn -0.8661 -0.5039 0.0000
vn 0.5039 -0.8661 0.0000
vn 0.8661 0.5039 0.0000
vn -0.1732 0.9843 0.0000
vn -0.9843 -0.1732 0.0000
vn 0.1732 -0.9843 0.0000
vn 0.9843 0.1732 0.0000
vn -0.6457 0.7638 0.0000
vn 0.7638 0.6457 0.0000
vn 0.6457 -0.7638 0.0000
vn -0.7638 -0.6457 0.0000
vn 0.3386 -0.9370 0.0000
vn 0.9370 0.3386 0.0000
vn -0.3386 0.9370 0.0000
vn -0.9370 -0.3386 0.0000
vn 0.0000 0.2598 -0.9685
vn -0.0866 0.9606 0.2598
vn 1.0000 0.0866 0.0236
vn 0.0000 -0.2598 0.9685
vn 0.0866 -0.9606 -0.2598
vn -1.0000 -0.0866 -0.0236
vn 0.0000 -0.2598 -0.9685
vn -0.0866 0.9606 -0.2598
vn 1.0000 0.0866 -0.0236
vn 0.0000 0.2598 0.9685
vn 0.0866 -0.9606 0.2598
vn -1.0000 -0.0866 0.0236

o E1U
usemtl c_ff3800
f 1/1/1 2/2/1 3/3/1
f 3/3/1 2/2/1 4/4/1
f 5/5/2 2/2/2 6/6/2
f 6/6/2 2/2/2 1/7/2
f 2/5/3 5/2/3 4/8/3
f 4/8/3 5/2/3 7/4/3
f 5/1/4 6/2/4 7/3/4
f 7/3/4 6/2/4 8/4/4
f 8/5/5 3/2/5 7/6/5
f 7/6/5 3/2/5 4/7/5
f 6/5/6 1/2/6 8/8/6
f 8/8/6 1/2/6 3/4/6
f 9/9/7 10/10/7 11/11/7
f 11/11/7 10/10/7 12/12/7
f 13/13/8 10/10/8 14/14/8
f 14/14/8 10/10/8 9/15/8
f 10/13/9 13/10/9 12/16/9
f 12/16/9 13/10/9 15/12/9
f 13/9/10 14/10/10 15/11/10
f 15/11/10 14/10/10 16/12/10
f 16/13/11 11/10/11 15/14/11
f 15/14/11 11/10/11 12/15/11
f 14/13/12 9/10/12 16/16/12
f 16/16/12 9/10/12 11/12/12
f 17/17/11 18/18/11 19/19/11
f 19/19/11 18/18/11 20/20/11
f 21/21/7 18/18/7 22/22/7
f 22/22/7 18/18/7 17/23/7
f 18/21/9 21/18/9 20/24/9
f 20/24/9 21/18/9 23/20/9
f 21/17/8 22/18/8 23/19/8
f 23/19/8 22/18/8 24/20/8
f 24/21/10 19/18/10 23/22/10
f 23/22/10 19/18/10 20/23/10
f 22/21/12 17/18/12 24/24/12
f 24/24/12 17/18/12 19/20/12
f 25/25/4 26/26/4 27/27/4
f 27/27/4 26/26/4 28/28/4
f 29/29/13 26/26/13 30/30/13
f 30/30/13 26/26/13 25/31/13
f 26/29/14 29/26/14 28/32/14
f 28/32/14 29/26/14 31/28/14
f 29/25/1 30/26/1 31/27/1
f 31/27/1 30/26/1 32/28/1
f 32/29/15 27/26/15 31/30/15
f 31/30/15 27/26/15 28/31/15
f 30/29/16 25/26/16 32/32/16
f 32/32/16 25/26/16 27/28/16
f 33/33/4 34/34/4 35/35/4
f 35/35/4 34/34/4 36/36/4
f 37/37/17 34/34/17 38/38/17
f 38/38/17 34/34/17 33/39/17
f 34/37/18 37/34/18 36/40/18
f 36/40/18 37/34/18 39/36/18
f 37/33/1 38/34/1 39/35/1
f 39/35/1 38/34/1 40/36/1
f 40/37/19 35/34/19 39/38/19
f 39/38/19 35/34/19 36/39/19
f 38/37/20 33/34/20 40/40/20
f 40/40/20 33/34/20 35/36/20
f 41/41/1 42/42/1 43/43/1
f 43/43/1 42/42/1 44/44/1
f 45/45/21 42/42/21 46/46/21
f 46/46/21 42/42/21 41/47/21
f 42/45/22 45/42/22 44/48/22
f 44/48/22 45/42/22 47/44/22
f 45/41/4 46/42/4 47/43/4
f 47/43/4 46/42/4 48/44/4
f 48/45/23 43/42/23 47/46/23
f 47/46/23 43/42/23 44/47/23
f 46/45/24 41/42/24 48/48/24
f 48/48/24 41/42/24 43/44/24
usemtl c_ff5d27
f 49/49/25 50/50/25 51/51/25
f 51/51/25 50/50/25 52/52/25
f 53/53/1 50/50/1 54/54/1
f 54/54/1 50/50/1 49/55/1
f 50/53/26 53/50/26 52/56/26
f 52/56/26 53/50/26 55/52/26
f 53/49/27 54/50/27 55/51/27
f 55/51/27 54/50/27 56/52/27
f 56/53/4 51/50/4 55/54/4
f 55/54/4 51/50/4 52/55/4
f 54/53/28 49/50/28 56/56/28
f 56/56/28 49/50/28 51/52/28
f 57/57/29 58/58/29 59/59/29
f 59/59/29 58/58/29 60/60/29
f 61/61/30 58/58/30 62/62/30
f 62/62/30 58/58/30 57/63/30
f 58/61/31 61/58/31 60/64/31
f 60/64/31 61/58/31 63/60/31
f 61/57/32 62/58/32 63/59/32
f 63/59/32 62/58/32 64/60/32
f 64/61/33 59/58/33 63/62/33
f 63/62/33 59/58/33 60/63/33
f 62/61/34 57/58/34 64/64/34
f 64/64/34 57/58/34 59/60/34
f 65/65/35 66/66/35 67/67/35
f 67/67/35 66/66/35 68/68/35
f 69/69/36 66/66/36 70/70/36
f 70/70/36 66/66/36 65/71/36
f 66/69/37 69/66/37 68/72/37
f 68/72/37 69/66/37 71/68/37
f 69/65/38 70/66/38 71/67/38
f 71/67/38 70/66/38 72/68/38
f 72/69/39 67/66/39 71/70/39
f 71/70/39 67/66/39 68/71/39
f 70/69/40 65/66/40 72/72/40
f 72/72/40 65/66/40 67/68/40
usemtl c_d42e00
f 73/73/1 74/74/1 75/75/1
f 75/75/1 74/74/1 76/76/1
f 77/77/27 74/74/27 78/78/27
f 78/78/27 74/74/27 73/79/27
f 74/77/26 77/74/26 76/80/26
f 76/80/26 77/74/26 79/76/26
f 77/73/4 78/74/4 79/75/4
f 79/75/4 78/74/4 80/76/4
f 80/77/25 75/74/25 79/78/25
f 79/78/25 75/74/25 76/79/25
f 78/77/28 73/74/28 80/80/28
f 80/80/28 73/74/28 75/76/28
usemtl c_ff6854
f 81/81/1 82/82/1 83/83/1
f 83/83/1 82/82/1 84/84/1
f 85/81/2 82/82/2 86/85/2
f 86/85/2 82/82/2 81/86/2
f 82/81/3 85/82/3 84/83/3
f 84/83/3 85/82/3 87/84/3
f 85/81/4 86/82/4 87/83/4
f 87/83/4 86/82/4 88/84/4
f 88/81/5 83/82/5 87/85/5
f 87/85/5 83/82/5 84/86/5
f 86/81/6 81/82/6 88/83/6
f 88/83/6 81/82/6 83/84/6
o E2U
usemtl c_d84936
f 89/87/1 90/88/1 91/89/1
f 91/89/1 90/88/1 92/90/1
f 93/87/2 90/88/2 94/91/2
f 94/91/2 90/88/2 89/92/2
f 90/87/3 93/88/3 92/89/3
f 92/89/3 93/88/3 95/90/3
f 93/87/4 94/88/4 95/89/4
f 95/89/4 94/88/4 96/90/4
f 96/87/5 91/88/5 95/91/5
f 95/91/5 91/88/5 92/92/5
f 94/87/6 89/88/6 96/89/6
f 96/89/6 89/88/6 91/90/6
o E2D
usemtl c_eb2b00
f 97/93/1 98/94/1 99/95/1
f 99/95/1 98/94/1 100/96/1
f 101/93/2 98/94/2 102/97/2
f 102/97/2 98/94/2 97/98/2
f 98/93/3 101/94/3 100/95/3
f 100/95/3 101/94/3 103/96/3
f 101/93/4 102/94/4 103/95/4
f 103/95/4 102/94/4 104/96/4
f 104/93/5 99/94/5 103/97/5
f 103/97/5 99/94/5 100/98/5
f 102/93/6 97/94/6 104/95/6
f 104/95/6 97/94/6 99/96/6
o E3
usemtl c_ff3907
f 105/99/1 106/100/1 107/101/1
f 107/101/1 106/100/1 108/102/1
f 109/99/2 106/100/2 110/103/2
f 110/103/2 106/100/2 105/104/2
f 106/99/3 109/100/3 108/101/3
f 108/101/3 109/100/3 111/102/3
f 109/99/4 110/100/4 111/101/4
f 111/101/4 110/100/4 112/102/4
f 112/99/5 107/100/5 111/103/5
f 111/103/5 107/100/5 108/104/5
f 110/99/6 105/100/6 112/101/6
f 112/101/6 105/100/6 107/102/6
o E1D
usemtl c_9f1d00
f 113/105/1 114/106/1 115/107/1
f 115/107/1 114/106/1 116/108/1
f 117/105/2 114/106/2 118/109/2
f 118/109/2 114/106/2 113/110/2
f 114/105/3 117/106/3 116/107/3
f 116/107/3 117/106/3 119/108/3
f 117/105/4 118/106/4 119/107/4
f 119/107/4 118/106/4 120/108/4
f 120/105/5 115/106/5 119/109/5
f 119/109/5 115/106/5 116/110/5
f 118/105/6 113/106/6 120/107/6
f 120/107/6 113/106/6 115/108/6
