# Roblox asset pack: animal_lizard (creatures), from the Studio model "Lizard". Exported with Export Selection, split by tools/build_creatures.py: one object per rigid body. Units: studs. +Y up, front faces -Z, pivot (bottom centre) at the origin.
mtllib animal_lizard.mtl

v 1.75780 0.81000 -0.20000
v 1.90980 0.99000 0.16000
v 1.75780 0.81000 0.20000
v 1.90980 0.99000 -0.16000
v 2.02900 1.14000 0.13000
v 2.02900 1.14000 -0.13000
v 2.08090 1.43000 -0.10000
v 2.08090 1.43000 0.10000
v 2.10430 1.59000 0.08000
v 2.10430 1.59000 -0.08000
v 2.12450 1.74000 -0.06000
v 2.12450 1.74000 0.06000
v 1.71490 1.08000 0.11000
v 1.71490 1.08000 -0.11000
v 1.61190 1.30000 0.06000
v 1.61190 1.30000 -0.06000
v -2.10540 1.68000 0.25000
v -2.10540 1.84000 0.25000
v -2.10540 1.84000 0.21000
v -2.10540 1.84000 0.11000
v -2.10540 1.84000 -0.11000
v -2.10540 1.68000 -0.25000
v -2.10540 1.84000 -0.21000
v -2.10540 1.84000 -0.25000
v -1.99150 1.93000 0.15000
v -1.99150 1.93000 -0.15000
v 1.21780 0.99000 0.15000
v 1.21780 0.99000 -0.15000
v 1.14300 1.28000 0.08000
v 1.14300 1.28000 -0.08000
v 1.87970 1.28000 -0.09000
v 2.00890 1.41000 0.09000
v 1.87970 1.28000 0.09000
v 2.00890 1.41000 -0.09000
v 1.84390 1.51000 0.05000
v 1.84390 1.51000 -0.05000
v -2.12450 1.57000 0.25000
v -2.10540 1.51000 -0.25000
v -2.10540 1.51000 0.25000
v -2.12450 1.57000 -0.25000
v -1.61380 1.93000 0.38000
v -1.47490 2.15000 0.21000
v -1.61380 1.93000 0.21000
v -1.47490 2.15000 0.38000
v -1.46640 2.11000 0.11000
v -1.59490 1.90000 0.11000
v -1.46640 2.11000 -0.11000
v -1.59490 1.90000 -0.11000
v -1.61380 1.93000 -0.21000
v -1.47490 2.15000 -0.21000
v -1.47490 2.15000 -0.38000
v -1.61380 1.93000 -0.38000
v 2.00920 1.77000 0.06000
v 2.00920 1.77000 -0.06000
v -1.53780 1.99000 -0.37000
v -1.37290 2.07000 -0.37000
v -1.47650 1.99000 -0.44000
v -1.34940 2.04000 -0.44000
v -1.47650 1.99000 0.44000
v -1.34940 2.04000 0.44000
v -1.37290 2.07000 0.37000
v -1.53780 1.99000 0.37000
v 0.77740 0.46000 0.33000
v 0.77740 1.11000 -0.33000
v 0.77740 1.11000 0.33000
v 0.77740 0.46000 -0.33000
v 0.20810 0.00000 0.52000
v 0.04010 0.00000 0.64000
v 0.04010 0.00000 0.52000
v 0.63980 0.02000 0.60000
v 0.20810 0.00000 0.49000
v 0.63980 0.02000 0.26000
v 0.04010 0.00000 0.49000
v 0.04010 0.00000 0.37000
v 0.20810 0.00000 0.37000
v 0.20810 0.00000 0.34000
v 0.04010 0.00000 0.21000
v 0.04010 0.00000 0.34000
v 0.04010 0.00000 -0.34000
v 0.20810 0.00000 -0.34000
v 0.04010 0.00000 -0.21000
v 0.63980 0.02000 -0.26000
v 0.20810 0.00000 -0.37000
v 0.20810 0.00000 -0.49000
v 0.63980 0.02000 -0.60000
v 0.04010 0.00000 -0.49000
v 0.04010 0.00000 -0.37000
v 0.20810 0.00000 -0.52000
v 0.04010 0.00000 -0.64000
v 0.04010 0.00000 -0.52000
v 0.63980 0.17000 0.60000
v 0.63980 0.17000 0.26000
v 0.63980 0.17000 -0.60000
v 0.63980 0.17000 -0.26000
v -0.84750 0.00000 0.60000
v -1.01550 0.00000 0.73000
v -1.01550 0.00000 0.60000
v -0.41580 0.02000 0.69000
v -0.84750 0.00000 0.58000
v -0.84750 0.00000 0.46000
v -0.41580 0.02000 0.35000
v -1.01550 0.00000 0.46000
v -1.01550 0.00000 0.58000
v -0.84750 0.00000 0.43000
v -1.01550 0.00000 0.30000
v -1.01550 0.00000 0.43000
v -1.01550 0.00000 -0.43000
v -0.84750 0.00000 -0.43000
v -1.01550 0.00000 -0.30000
v -0.41580 0.02000 -0.35000
v -0.84750 0.00000 -0.46000
v -0.41580 0.02000 -0.69000
v -1.01550 0.00000 -0.46000
v -1.01550 0.00000 -0.58000
v -0.84750 0.00000 -0.58000
v -0.84750 0.00000 -0.60000
v -1.01550 0.00000 -0.73000
v -1.01550 0.00000 -0.60000
v -1.17740 2.04000 -0.44000
v -1.14240 2.07000 -0.37000
v -1.21080 1.87000 -0.41000
v -1.18400 1.92000 -0.44000
v -1.20360 1.87000 -0.44000
v -1.19250 1.92000 -0.41000
v -1.17740 2.04000 0.44000
v -1.14240 2.07000 0.37000
v -1.18400 1.92000 0.44000
v -1.21080 1.87000 0.41000
v -1.20360 1.87000 0.44000
v -1.19250 1.92000 0.41000
v -1.35990 1.34000 -0.39000
v -1.20310 1.72000 -0.38000
v -1.17500 1.47000 -0.68000
v -1.20310 1.72000 0.38000
v -1.35990 1.34000 0.39000
v -1.17500 1.47000 0.68000
v 0.61360 0.11000 0.30000
v 0.58120 0.56000 0.63000
v 0.61360 0.11000 0.56000
v 0.58120 0.56000 0.23000
v 0.61360 0.11000 -0.30000
v 0.58120 0.56000 -0.63000
v 0.58120 0.56000 -0.23000
v 0.61360 0.11000 -0.56000
v -1.04630 2.11000 -0.38000
v -1.04010 1.74000 -0.59000
v -1.85960 1.88000 0.21000
v -1.85960 1.88000 0.32000
v -1.85010 1.87000 0.11000
v -1.85010 1.87000 -0.11000
v -1.85960 1.88000 -0.21000
v -1.85960 1.88000 -0.32000
v 0.56470 0.97000 0.19000
v 0.56470 0.97000 -0.19000
v 0.49790 1.35000 0.10000
v 0.49790 1.35000 -0.10000
v -1.04630 2.11000 0.38000
v -1.04010 1.74000 0.59000
v -0.70810 0.11000 0.39000
v -0.44200 0.11000 0.66000
v -0.70810 0.11000 0.66000
v -0.44200 0.11000 0.39000
v 0.34750 0.11000 0.30000
v 0.34750 0.11000 0.56000
v -0.70810 0.11000 -0.39000
v -0.70810 0.11000 -0.66000
v -0.44200 0.11000 -0.66000
v -0.44200 0.11000 -0.39000
v 0.34750 0.11000 -0.30000
v 0.34750 0.11000 -0.56000
v -1.45370 1.85000 -0.44000
v -1.51510 1.85000 -0.37000
v -1.51510 1.85000 0.37000
v -1.45370 1.85000 0.44000
v -1.04630 2.11000 0.21000
v -1.07370 2.06000 0.11000
v -1.07370 2.06000 -0.11000
v -1.04630 2.11000 -0.21000
v 0.48560 1.07000 0.51000
v 0.48560 1.07000 0.19000
v 0.48560 1.07000 -0.51000
v 0.48560 1.07000 -0.19000
v -1.39520 1.84000 -0.44000
v -1.38980 1.85000 -0.41000
v -1.38980 1.85000 0.41000
v -1.39520 1.84000 0.44000
v -1.34280 2.00000 0.41000
v -1.42450 1.96000 0.39000
v -1.43670 1.97000 0.41000
v -1.33980 1.99000 0.39000
v -1.34020 1.98000 0.37000
v -1.34020 1.98000 0.43000
v -1.27990 1.98000 0.37000
v -1.27990 1.98000 0.43000
v -1.27990 1.98000 -0.37000
v -1.34020 1.98000 -0.43000
v -1.34020 1.98000 -0.37000
v -1.27990 1.98000 -0.43000
v -1.34020 1.88000 0.43000
v -1.34020 1.88000 0.37000
v -1.34020 1.88000 -0.43000
v -1.34020 1.88000 -0.37000
v -1.39720 1.38000 0.30000
v -0.95570 1.78000 0.30000
v -0.95570 1.78000 -0.30000
v -1.39720 1.38000 -0.30000
v 0.71470 0.56000 0.27000
v 1.24010 0.57000 -0.26000
v 1.24010 0.57000 0.26000
v 0.71470 0.56000 -0.27000
v 1.51940 0.69000 0.23000
v 1.51940 0.69000 -0.23000
v -0.84750 0.19000 -0.73000
v -0.98420 0.15000 -0.73000
v -0.41580 0.17000 -0.69000
v 0.20810 0.19000 -0.64000
v 0.07140 0.15000 -0.64000
v 0.07500 0.56000 -0.63000
v -0.84750 0.19000 0.73000
v -0.41580 0.17000 0.69000
v -0.98420 0.15000 0.73000
v 0.20810 0.19000 0.64000
v 0.07140 0.15000 0.64000
v -1.71340 1.58000 0.39000
v -1.59490 1.62000 0.39000
v -1.64510 1.62000 0.32000
v -1.74250 1.59000 0.32000
v -2.08070 1.58000 0.21000
v -2.08070 1.58000 -0.21000
v -1.74250 1.59000 -0.32000
v -1.71340 1.58000 -0.39000
v -1.64510 1.62000 -0.32000
v -1.59490 1.62000 -0.39000
v 0.07500 0.56000 0.63000
v -1.21560 1.99000 0.39000
v -1.20490 2.00000 0.41000
v -1.02560 1.49000 0.24000
v -0.60650 1.75000 0.13000
v -0.60650 1.75000 -0.13000
v -1.02560 1.49000 -0.24000
v -0.73900 0.56000 -0.63000
v -0.38150 0.56000 -0.63000
v -1.21170 2.00000 -0.41000
v -1.20460 2.00000 -0.44000
v -0.73900 0.56000 0.63000
v -0.38150 0.56000 0.63000
v -1.21170 2.00000 0.41000
v -1.20460 2.00000 0.44000
v -0.98420 0.15000 -0.58000
v -0.84750 0.19000 -0.58000
v -0.98420 0.15000 0.58000
v -0.84750 0.19000 0.58000
v 0.17050 1.07000 -0.51000
v -0.57000 1.07000 -0.51000
v -0.88510 1.07000 -0.51000
v 0.07140 0.15000 -0.49000
v 0.20810 0.19000 -0.49000
v 0.03280 0.96000 0.24000
v 0.03280 0.96000 -0.24000
v 0.04550 1.45000 0.13000
v 0.04550 1.45000 -0.13000
v 1.49110 1.03000 -0.11000
v 1.49110 1.03000 0.11000
v -1.41000 1.88000 0.39000
v -1.42060 1.87000 0.41000
v -0.20370 1.52000 0.13000
v -0.20370 1.52000 -0.13000
v -0.57000 1.07000 0.51000
v -0.88510 1.07000 0.51000
v 0.17050 1.07000 0.51000
v -1.59490 1.34000 -0.39000
v -1.85010 1.65000 -0.32000
v 0.07140 0.15000 0.49000
v 0.20810 0.19000 0.49000
v -1.42100 1.87000 -0.44000
v -1.40780 1.81000 -0.44000
v -1.43710 1.97000 -0.44000
v -1.34290 2.00000 -0.44000
v -1.14740 1.92000 -0.44000
v -1.17740 1.83000 -0.44000
v -1.59490 1.34000 0.39000
v -1.85010 1.65000 0.32000
v -0.98420 0.15000 -0.43000
v -0.84750 0.19000 -0.43000
v -1.27990 1.88000 -0.43000
v -1.42100 1.87000 0.44000
v -1.40780 1.81000 0.44000
v -1.43710 1.97000 0.44000
v -1.34290 2.00000 0.44000
v -1.14740 1.92000 0.44000
v -1.17740 1.83000 0.44000
v -1.41380 1.87000 -0.41000
v -1.34090 2.00000 -0.41000
v -1.42890 1.96000 -0.41000
v -0.73900 0.56000 0.35000
v -0.88510 1.07000 0.19000
v -0.73900 0.56000 -0.35000
v -0.88510 1.07000 -0.19000
v -0.98420 0.15000 0.43000
v -0.84750 0.19000 0.43000
v -1.27990 1.88000 0.43000
v -0.79380 1.92000 0.22000
v -0.79380 1.92000 -0.22000
v -0.40340 1.36000 -0.45000
v -0.40340 0.46000 -0.45000
v -0.83140 0.66000 -0.44000
v -0.82040 1.64000 -0.40000
v -1.41380 1.87000 0.41000
v -1.34090 2.00000 0.41000
v -1.42890 1.96000 0.41000
v -0.84750 0.19000 0.60000
v -0.84750 0.19000 0.46000
v -1.39490 1.84000 0.41000
v -1.20400 1.87000 0.41000
v -1.18440 1.92000 0.41000
v -0.84750 0.19000 -0.46000
v -0.84750 0.19000 -0.60000
v -0.83140 0.66000 0.44000
v -0.40340 0.46000 0.45000
v -0.82040 1.64000 0.40000
v -0.40340 1.36000 0.45000
v -1.01210 1.49000 -0.39000
v -1.43650 1.78000 -0.37000
v -1.01210 1.49000 0.39000
v 0.71470 1.10000 -0.27000
v 1.15410 1.08000 -0.26000
v 1.36940 1.13000 -0.23000
v 1.55450 1.16000 -0.20000
v 1.69470 1.24000 -0.16000
v 1.80260 1.28000 -0.13000
v 1.88720 1.48000 -0.10000
v 1.95260 1.64000 -0.08000
v -1.43650 1.78000 0.37000
v 0.07140 0.15000 -0.34000
v 0.20810 0.19000 -0.34000
v -0.42620 1.57000 -0.13000
v -0.42620 1.57000 0.13000
v 1.15410 1.08000 0.26000
v 0.71470 1.10000 0.27000
v 1.36940 1.13000 0.23000
v 1.55450 1.16000 0.20000
v 1.69470 1.24000 0.16000
v 1.80260 1.28000 0.13000
v 1.88720 1.48000 0.10000
v 1.95260 1.64000 0.08000
v -0.98420 0.15000 0.60000
v -0.98420 0.15000 0.46000
v -0.98420 0.15000 0.30000
v -0.98420 0.15000 -0.30000
v -0.98420 0.15000 -0.46000
v -0.98420 0.15000 -0.60000
v 0.07140 0.15000 0.34000
v 0.20810 0.19000 0.34000
v 0.29490 1.36000 0.10000
v 0.29490 1.36000 -0.10000
v -0.43060 1.08000 -0.24000
v -0.43060 1.08000 0.24000
v -0.69030 1.15000 -0.24000
v -0.69030 1.15000 0.24000
v 0.18720 0.99000 -0.19000
v 0.18720 0.99000 0.19000
v 0.98680 1.28000 -0.08000
v 0.98680 1.28000 0.08000
v -0.38150 0.56000 0.35000
v 0.92720 0.99000 -0.15000
v 0.92720 0.99000 0.15000
v -0.38150 0.56000 -0.35000
v -0.89920 1.63000 -0.39000
v -0.41580 0.17000 0.35000
v -0.41580 0.17000 -0.35000
v -0.89920 1.63000 0.39000
v 1.49160 1.27000 -0.06000
v 1.49160 1.27000 0.06000
v -0.57000 1.07000 0.19000
v 0.17050 1.07000 0.19000
v -0.57000 1.07000 -0.19000
v 0.17050 1.07000 -0.19000
v 0.20810 0.19000 0.21000
v 0.07140 0.15000 0.21000
v -1.38680 1.85000 0.39000
v -1.12500 1.34000 -0.39000
v -1.12500 1.34000 0.39000
v 0.07500 0.56000 0.23000
v 0.20810 0.19000 -0.21000
v 0.07140 0.15000 -0.21000
v -1.10400 1.92000 -0.37000
v 0.07500 0.56000 -0.23000
v -1.10400 1.92000 0.37000
v -0.89920 1.63000 0.11000
v -0.89920 1.63000 -0.11000
v 1.77440 1.44000 -0.05000
v 1.77440 1.44000 0.05000
v -0.84750 0.19000 0.30000
v -0.84750 0.19000 -0.30000
v -2.06490 1.67000 0.21000
v -1.85500 1.64000 0.26000
v -2.06490 1.67000 -0.21000
v -1.85500 1.64000 -0.26000
v 0.07140 0.15000 0.37000
v 0.20810 0.19000 0.37000
v -1.21470 1.87000 0.39000
v -1.19710 1.92000 0.39000
v 0.07140 0.15000 -0.37000
v 0.20810 0.19000 -0.37000
v 0.07140 0.15000 0.52000
v 0.20810 0.19000 0.52000
v 0.07140 0.15000 -0.52000
v 0.20810 0.19000 -0.52000
v -1.14240 1.80000 -0.37000
v -1.14240 1.80000 0.37000
v -0.89920 1.63000 0.21000
v -0.89920 1.63000 -0.21000
v -1.27990 1.88000 0.37000
v -1.27990 1.88000 -0.37000
vt 0.42676 0.19606
vt 0.35929 0.23906
vt 0.35212 0.19606
vt 0.41960 0.23906
vt 0.36485 0.27433
vt 0.41403 0.27433
vt 0.40788 0.32836
vt 0.37100 0.32836
vt 0.37500 0.35901
vt 0.40388 0.35901
vt 0.40042 0.38551
vt 0.37846 0.38551
vt 1.29140 0.91671
vt 1.33304 0.91671
vt 1.30103 0.95945
vt 1.32342 0.95944
vt 0.93578 0.62161
vt 0.96567 0.62161
vt 0.96567 0.62841
vt 0.96567 0.64769
vt 0.96567 0.68704
vt 0.93577 0.71312
vt 0.96567 0.70632
vt 0.96567 0.71312
vt 0.99291 0.63900
vt 0.99290 0.69573
vt 1.24293 0.95020
vt 1.28457 0.90857
vt 1.28457 0.95020
vt 1.24293 0.90857
vt 0.99252 0.00299
vt 0.98067 0.09449
vt 0.98069 0.00298
vt 0.99250 0.09449
vt 0.84451 0.76291
vt 0.81476 0.81028
vt 0.81240 0.76208
vt 0.84617 0.81014
vt 0.79420 0.80918
vt 0.79287 0.76230
vt 0.75345 0.80860
vt 0.75500 0.76270
vt 0.73543 0.76203
vt 0.73291 0.80980
vt 0.70132 0.81002
vt 0.70338 0.76229
vt 0.11967 0.02495
vt 0.09771 0.02495
vt 0.11968 0.00299
vt 0.09771 0.00298
vt 1.33157 0.17655
vt 1.32718 0.20994
vt 1.34373 0.18834
vt 1.34141 0.21321
vt 0.34373 0.18834
vt 0.34141 0.21321
vt 0.32718 0.20994
vt 0.33157 0.17655
vt 0.77116 0.64210
vt 0.89044 0.52281
vt 0.89044 0.64210
vt 0.77116 0.52281
vt 0.03177 0.87612
vt 0.00792 0.84534
vt 0.03160 0.84530
vt 0.01665 0.95541
vt 0.03721 0.87612
vt 0.07873 0.95541
vt 0.03721 0.84530
vt 0.05817 0.84530
vt 0.05817 0.87612
vt 0.06362 0.87612
vt 0.08747 0.84534
vt 0.06379 0.84530
vt 1.06379 0.84530
vt 1.06362 0.87612
vt 1.08747 0.84534
vt 1.07873 0.95541
vt 1.05817 0.87612
vt 1.03721 0.87612
vt 1.01665 0.95541
vt 1.03721 0.84530
vt 1.05817 0.84530
vt 1.03177 0.87612
vt 1.00792 0.84534
vt 1.03160 0.84530
vt 0.20247 0.79984
vt 0.22922 0.86193
vt 0.20247 0.86193
vt 0.22922 0.79984
vt 1.20247 0.79984
vt 1.22923 0.86193
vt 1.22923 0.79984
vt 1.20247 0.86193
vt 0.91972 0.03380
vt 0.89587 0.00302
vt 0.91955 0.00298
vt 0.90460 0.11309
vt 0.92516 0.03380
vt 0.94612 0.03380
vt 0.96668 0.11310
vt 0.94612 0.00298
vt 0.92516 0.00298
vt 0.95156 0.03380
vt 0.97542 0.00302
vt 0.95174 0.00298
vt 1.95174 0.00298
vt 1.95156 0.03380
vt 1.97542 0.00302
vt 1.96668 0.11310
vt 1.94612 0.03380
vt 1.90460 0.11309
vt 1.94612 0.00298
vt 1.92516 0.00298
vt 1.92516 0.03380
vt 1.91972 0.03380
vt 1.89587 0.00302
vt 1.91955 0.00298
vt 1.34374 0.24467
vt 1.33030 0.25211
vt 1.44192 0.00374
vt 1.44861 0.01428
vt 1.44762 0.00298
vt 1.44284 0.01430
vt 0.34374 0.24467
vt 0.33030 0.25211
vt 0.44861 0.01428
vt 0.44192 0.00374
vt 0.44762 0.00298
vt 0.44284 0.01430
vt 0.99420 0.71686
vt 0.95516 0.78186
vt 0.92580 0.71686
vt 0.36709 0.04202
vt 0.43208 0.00297
vt 0.43209 0.07138
vt 0.94297 0.13410
vt 0.87591 0.21250
vt 0.89428 0.13072
vt 0.94988 0.21763
vt 1.94297 0.13410
vt 1.87591 0.21250
vt 1.94988 0.21763
vt 1.89428 0.13072
vt 0.77216 0.26449
vt 0.84445 0.28738
vt 0.77121 0.31258
vt 0.83937 0.67454
vt 0.81589 0.71553
vt 0.83322 0.67228
vt 0.83476 0.71935
vt 0.79500 0.71514
vt 0.75335 0.71443
vt 0.79275 0.66682
vt 0.75569 0.66765
vt 0.73242 0.71500
vt 0.71354 0.71868
vt 0.70926 0.67395
vt 0.71543 0.67175
vt 0.10497 0.78193
vt 0.17725 0.75904
vt 0.17821 0.80713
vt 0.99456 0.78557
vt 0.94575 0.83438
vt 0.94575 0.78557
vt 0.99456 0.83438
vt 0.49072 0.78372
vt 0.44192 0.83253
vt 0.44192 0.78373
vt 0.49072 0.83253
vt 1.99456 0.78557
vt 1.94575 0.78557
vt 1.94575 0.83438
vt 1.99456 0.83438
vt 1.49072 0.78372
vt 1.44192 0.83253
vt 1.49072 0.83253
vt 1.44192 0.78373
vt 1.07506 0.00859
vt 1.07450 0.03412
vt 1.09139 0.03264
vt 1.09195 0.00713
vt 0.07506 0.00859
vt 0.09139 0.03264
vt 0.07450 0.03412
vt 0.09195 0.00713
vt 0.81356 0.88784
vt 0.84538 0.88881
vt 0.79280 0.88265
vt 0.75477 0.88306
vt 0.73401 0.88806
vt 0.70236 0.88879
vt 0.89221 0.30837
vt 0.94988 0.31236
vt 1.89221 0.30837
vt 1.94988 0.31236
vt 1.58658 0.10293
vt 1.59221 0.06880
vt 1.58658 0.06990
vt 1.59220 0.10416
vt 0.58658 0.10293
vt 0.58658 0.06990
vt 0.59221 0.06880
vt 0.59220 0.10416
vt 0.00000 0.00000
vt 0.37706 0.00298
vt 0.38812 0.00298
vt 0.37706 0.01404
vt 0.38812 0.01404
vt 1.37707 0.01404
vt 1.38812 0.00298
vt 1.37707 0.00298
vt 1.38812 0.01404
vt 0.61651 0.02155
vt 0.62757 0.00298
vt 0.62757 0.02155
vt 0.61651 0.00298
vt 1.61651 0.02155
vt 1.62757 0.00298
vt 1.61651 0.00298
vt 1.62757 0.02155
vt 0.13902 0.19602
vt 0.13900 0.30441
vt 0.03061 0.30440
vt 0.03063 0.19601
vt 0.59656 0.69288
vt 0.69354 0.78929
vt 0.59845 0.78930
vt 0.69541 0.69287
vt 0.60396 0.84540
vt 0.68803 0.84540
vt 0.68332 0.89386
vt 0.60868 0.89387
vt 0.73883 0.68783
vt 0.80964 0.68806
vt 1.99395 0.22283
vt 1.99399 0.11241
vt 1.96072 0.14429
vt 1.96659 0.11905
vt 1.96721 0.22378
vt 1.96072 0.25874
vt 1.99399 0.22686
vt 1.96659 0.23349
vt 1.99395 0.33728
vt 1.96721 0.33822
vt 1.05161 0.83813
vt 1.09557 0.75119
vt 1.00294 0.75777
vt 1.00293 0.84159
vt 0.99399 0.11241
vt 0.99395 0.22283
vt 0.96072 0.14429
vt 0.96721 0.22378
vt 0.96659 0.11905
vt 0.99399 0.22686
vt 0.96072 0.25874
vt 0.96659 0.23349
vt 0.99395 0.33728
vt 0.96721 0.33822
vt 0.51463 0.91465
vt 0.49180 0.91438
vt 0.50081 0.90171
vt 0.51971 0.90195
vt 0.58998 0.88926
vt 0.58181 0.88114
vt 0.58166 0.80610
vt 0.58981 0.79798
vt 0.51976 0.78534
vt 0.51468 0.77265
vt 0.50081 0.78559
vt 0.49181 0.77292
vt 0.05161 0.83813
vt 0.00294 0.75777
vt 0.09557 0.75119
vt 0.00293 0.84159
vt 0.28457 0.95020
vt 0.27494 0.99294
vt 0.25255 0.99294
vt 0.24293 0.95020
vt 1.68273 0.41387
vt 1.59157 0.37510
vt 1.60031 0.42312
vt 1.67099 0.34937
vt 1.44192 0.02823
vt 1.44762 0.02919
vt 0.59157 0.37510
vt 0.68273 0.41387
vt 0.60031 0.42312
vt 0.67099 0.34937
vt 0.44192 0.02823
vt 0.44762 0.02919
vt 1.33231 0.63457
vt 1.30723 0.66217
vt 1.33805 0.66217
vt 1.30723 0.62804
vt 0.33231 0.63457
vt 0.33805 0.66217
vt 0.30723 0.66217
vt 0.30723 0.62804
vt 1.07131 0.65703
vt 1.01365 0.66112
vt 1.77133 0.36624
vt 1.78168 0.42312
vt 1.98081 0.46178
vt 1.95573 0.48938
vt 1.98655 0.48938
vt 1.95573 0.45525
vt 1.30103 0.98184
vt 1.32342 0.98184
vt 0.77133 0.36624
vt 0.78168 0.42312
vt 0.07131 0.65703
vt 0.01365 0.66112
vt 0.72874 0.09450
vt 0.73824 0.17337
vt 0.71781 0.09903
vt 0.69633 0.19864
vt 0.74748 0.19441
vt 0.69988 0.24160
vt 0.80298 0.18634
vt 0.84672 0.20828
vt 0.74845 0.14570
vt 0.79109 0.14041
vt 0.77920 0.09449
vt 0.74941 0.09700
vt 0.98081 0.46178
vt 0.98655 0.48938
vt 0.95573 0.48938
vt 0.95573 0.45525
vt 1.06408 0.03710
vt 1.06810 0.03186
vt 1.06731 0.04348
vt 1.06849 0.01371
vt 1.05061 0.00298
vt 1.05036 0.00956
vt 1.02524 0.01313
vt 1.01909 0.00754
vt 1.01763 0.02905
vt 1.02390 0.02799
vt 1.02862 0.03818
vt 1.02441 0.04476
vt 0.25310 0.69320
vt 0.20194 0.68896
vt 0.21119 0.66792
vt 0.23162 0.59358
vt 0.22069 0.58905
vt 0.24954 0.73616
vt 0.14645 0.68088
vt 0.10270 0.70283
vt 0.20098 0.64026
vt 0.15834 0.63496
vt 0.17023 0.58904
vt 0.20002 0.59155
vt 1.42210 0.64606
vt 1.39702 0.67366
vt 1.42784 0.67366
vt 1.39702 0.63952
vt 1.13870 0.00298
vt 1.12764 0.02155
vt 1.13870 0.02155
vt 1.12764 0.00298
vt 0.06408 0.03710
vt 0.06810 0.03186
vt 0.06731 0.04348
vt 0.06849 0.01371
vt 0.05061 0.00298
vt 0.05036 0.00956
vt 0.02524 0.01313
vt 0.01909 0.00754
vt 0.01763 0.02905
vt 0.02390 0.02799
vt 0.02862 0.03818
vt 0.02441 0.04476
vt 1.75268 0.02425
vt 1.73688 0.00298
vt 1.74876 0.02900
vt 1.75361 0.00737
vt 1.71573 0.02900
vt 1.71129 0.01938
vt 1.71332 0.00556
vt 0.24881 0.90030
vt 0.33778 0.85251
vt 0.34812 0.90383
vt 0.23739 0.84363
vt 1.24881 0.90030
vt 1.33778 0.85251
vt 1.23739 0.84363
vt 1.34812 0.90383
vt 0.42210 0.64606
vt 0.42784 0.67366
vt 0.39702 0.67366
vt 0.39702 0.63952
vt 0.13870 0.00298
vt 0.13870 0.02155
vt 0.12764 0.02155
vt 0.12764 0.00298
vt 0.75190 0.63834
vt 0.73211 0.66327
vt 0.70666 0.60245
vt 0.76490 0.62142
vt 0.75205 0.48142
vt 0.76492 0.49844
vt 0.70654 0.51693
vt 0.73245 0.45634
vt 0.26506 0.15578
vt 0.20624 0.00298
vt 0.29212 0.00746
vt 0.04577 0.19228
vt 0.00293 0.08095
vt 0.35541 0.17645
vt 0.43940 0.09473
vt 0.39226 0.19234
vt 0.75268 0.02425
vt 0.73688 0.00298
vt 0.75361 0.00737
vt 0.74876 0.02900
vt 0.71573 0.02900
vt 0.71129 0.01938
vt 0.71332 0.00556
vt 0.85097 0.22264
vt 0.85097 0.18851
vt 0.85641 0.18851
vt 0.85641 0.22264
vt 0.15258 0.21320
vt 0.15258 0.17907
vt 0.15803 0.17907
vt 0.15803 0.21320
vt 1.15258 0.21320
vt 1.15803 0.17907
vt 1.15258 0.17907
vt 1.15803 0.21320
vt 1.85097 0.22264
vt 1.85641 0.18851
vt 1.85097 0.18851
vt 1.85641 0.22264
vt 0.56804 0.02245
vt 0.43314 0.19155
vt 0.45966 0.02243
vt 0.59450 0.19158
vt 0.59566 0.27757
vt 0.43194 0.27754
vt 0.45412 0.49416
vt 0.57340 0.49418
vt 0.18344 0.24516
vt 0.26518 0.16119
vt 0.35242 0.30849
vt 0.16757 0.20830
vt 0.20409 0.33552
vt 0.35688 0.39437
vt 0.16755 0.55480
vt 0.27886 0.59766
vt 0.71951 0.28303
vt 1.00293 0.15183
vt 1.02096 0.15834
vt 1.01436 0.13933
vt 1.00678 0.16293
vt 0.22991 0.77759
vt 0.64856 0.00297
vt 0.73636 0.04837
vt 0.69707 0.11883
vt 0.60653 0.08977
vt 0.60323 0.14605
vt 0.68642 0.15820
vt 0.67611 0.19145
vt 0.60155 0.19471
vt 0.61774 0.23518
vt 0.67646 0.22145
vt 0.67484 0.24359
vt 0.63209 0.26788
vt 0.67473 0.30162
vt 0.70024 0.27499
vt 0.71961 0.29908
vt 0.69963 0.31994
vt 0.73635 0.31991
vt 0.72116 0.33577
vt 0.00293 0.15183
vt 0.02096 0.15834
vt 0.00678 0.16293
vt 0.01436 0.13933
vt 1.87605 0.28100
vt 1.85097 0.30860
vt 1.88179 0.30860
vt 1.85097 0.27446
vt 0.14441 0.65330
vt 0.00293 0.43209
vt 0.16666 0.43211
vt 0.02513 0.65328
vt 0.15784 0.33985
vt 0.01177 0.33983
vt 0.32342 0.95944
vt 0.30103 0.98184
vt 0.30103 0.95945
vt 0.32342 0.98184
vt 0.46929 0.67790
vt 0.58515 0.72642
vt 0.49835 0.76844
vt 0.53975 0.63861
vt 0.44207 0.77174
vt 0.42992 0.68855
vt 0.39667 0.69886
vt 0.39340 0.77342
vt 0.35293 0.75723
vt 0.36667 0.69851
vt 0.34453 0.70012
vt 0.32024 0.74288
vt 0.28650 0.70023
vt 0.31313 0.67472
vt 0.28904 0.65535
vt 0.26818 0.67533
vt 0.26821 0.63861
vt 0.25235 0.65380
vt 0.32093 0.17375
vt 0.29725 0.20193
vt 0.29725 0.17374
vt 0.32093 0.20194
vt 0.18851 0.33404
vt 0.16755 0.36223
vt 0.16755 0.33404
vt 0.18851 0.36223
vt 0.18624 0.33029
vt 0.16256 0.30210
vt 0.18624 0.30210
vt 0.16256 0.33029
vt 1.16256 0.30210
vt 1.18624 0.33029
vt 1.18624 0.30210
vt 1.16256 0.33029
vt 1.16755 0.36223
vt 1.18851 0.33404
vt 1.16755 0.33404
vt 1.18851 0.36223
vt 1.29725 0.20193
vt 1.32093 0.17375
vt 1.29725 0.17374
vt 1.32093 0.20194
vt 0.87605 0.28100
vt 0.88179 0.30860
vt 0.85097 0.30860
vt 0.85097 0.27446
vt 0.42050 0.84365
vt 0.43014 0.89149
vt 1.42050 0.84365
vt 1.43014 0.89149
vt 1.37669 0.97335
vt 1.34467 0.93062
vt 1.38631 0.93062
vt 1.35430 0.97335
vt 1.22372 0.97232
vt 1.18098 0.94031
vt 1.22371 0.93068
vt 1.18098 0.96270
vt 0.37669 0.97335
vt 0.34467 0.93062
vt 0.38631 0.93062
vt 0.35430 0.97335
vt 0.22372 0.97232
vt 0.18098 0.94031
vt 0.22371 0.93068
vt 0.18098 0.96270
vt 0.95094 0.32290
vt 0.89088 0.39599
vt 0.90307 0.31340
vt 0.94223 0.40618
vt 1.95094 0.32290
vt 1.89088 0.39599
vt 1.94223 0.40618
vt 1.90307 0.31340
vt 0.28457 0.90857
vt 0.24293 0.90857
vt 0.64900 0.48985
vt 0.65498 0.44148
vt 0.58159 0.00298
vt 0.60835 0.06507
vt 0.58159 0.06507
vt 0.60835 0.00298
vt 1.58159 0.00298
vt 1.60835 0.06507
vt 1.60835 0.00298
vt 1.58159 0.06507
vt 0.64896 0.62918
vt 0.65450 0.67758
vt 1.74697 0.06525
vt 1.74199 0.05849
vt 1.74122 0.06504
vt 1.74769 0.05913
vt 0.61665 0.95136
vt 0.60155 0.89761
vt 0.66353 0.89761
vt 0.74199 0.05849
vt 0.74697 0.06525
vt 0.74122 0.06504
vt 0.74769 0.05913
vt 0.30806 0.57759
vt 0.33864 0.62430
vt 0.26732 0.62431
vt 0.48476 0.95426
vt 0.42695 0.95426
vt 0.42695 0.89646
vt 0.48476 0.89646
vt 0.72919 0.89760
vt 0.72919 0.95541
vt 0.67138 0.95541
vt 0.67138 0.89760
vt 1.48476 0.89646
vt 1.42695 0.89646
vt 1.48476 0.95426
vt 1.42695 0.95426
vt 1.67139 0.89760
vt 1.67139 0.95541
vt 1.72919 0.89760
vt 1.72919 0.95541
vt 1.27494 0.99294
vt 1.25255 0.99294
vt 0.95574 0.45116
vt 0.98899 0.37263
vt 0.98248 0.45211
vt 0.95573 0.34074
vt 0.98313 0.34738
vt 0.89423 0.49769
vt 0.95093 0.50893
vt 1.89423 0.49769
vt 1.95093 0.50893
vt 0.53216 0.61089
vt 0.43335 0.49447
vt 0.53216 0.51938
vt 0.43334 0.63579
vt 0.39024 0.63579
vt 0.39024 0.49447
vt 0.34713 0.63579
vt 0.35632 0.69519
vt 0.34714 0.49447
vt 0.35632 0.43507
vt 0.80108 0.08680
vt 0.84979 0.00646
vt 0.89372 0.09341
vt 0.80111 0.00298
vt 1.95573 0.34074
vt 1.98899 0.37263
vt 1.98313 0.34738
vt 1.95574 0.45116
vt 1.98248 0.45211
vt 1.00438 0.00298
vt 1.00293 0.03126
vt 1.84979 0.00646
vt 1.80109 0.08680
vt 1.89372 0.09341
vt 1.80111 0.00298
vt 0.91550 0.73718
vt 0.92465 0.83754
vt 0.86776 0.82729
vt 0.85097 0.72554
vt 0.00293 0.03126
vt 0.00438 0.00298
vt 0.86961 0.18503
vt 0.81195 0.18091
vt 0.33725 0.84776
vt 0.42936 0.77975
vt 0.43274 0.82844
vt 0.33212 0.77379
vt 1.33725 0.84776
vt 1.43274 0.82844
vt 1.42936 0.77975
vt 1.33212 0.77379
vt 0.78910 0.00293
vt 0.78911 0.08831
vt 0.74621 0.04515
vt 1.92465 0.83754
vt 1.91550 0.73718
vt 1.86776 0.82729
vt 1.85097 0.72554
vt 0.78801 0.39354
vt 0.88497 0.31289
vt 0.88310 0.39354
vt 0.78612 0.31289
vt 0.79352 0.43396
vt 0.87759 0.43395
vt 0.87287 0.46844
vt 0.79824 0.46845
vt 0.86571 0.49758
vt 0.80540 0.49758
vt 0.86015 0.51907
vt 0.81097 0.51907
vt 1.86961 0.18503
vt 1.81195 0.18091
vt 0.66240 0.30275
vt 0.60183 0.36292
vt 0.60155 0.30274
vt 0.64933 0.53983
vt 0.73490 0.57877
vt 0.64943 0.57917
vt 0.73472 0.53940
vt 0.29140 0.91671
vt 0.33304 0.91671
vt 0.61540 0.48827
vt 0.61544 0.63052
vt 0.92465 0.65449
vt 0.87662 0.64583
vt 0.57495 0.52979
vt 0.54168 0.49791
vt 0.56908 0.50455
vt 0.54170 0.60833
vt 0.56844 0.60928
vt 1.87662 0.64583
vt 1.92465 0.65449
vt 1.54168 0.49791
vt 1.57495 0.52979
vt 1.56908 0.50455
vt 1.54170 0.60833
vt 1.56844 0.60928
vt 0.13484 0.80195
vt 0.18197 0.81448
vt 0.17434 0.82261
vt 0.13560 0.81233
vt 0.09687 0.80207
vt 0.08773 0.78947
vt 0.17432 0.89783
vt 0.18194 0.90597
vt 0.13483 0.91849
vt 0.13560 0.90811
vt 0.09687 0.91836
vt 0.08773 0.93096
vt 0.17267 0.29443
vt 0.14760 0.26683
vt 0.17842 0.26683
vt 0.14760 0.30097
vt 1.14760 0.26683
vt 1.17267 0.29443
vt 1.17842 0.26683
vt 1.14760 0.30097
vt 0.77129 0.45445
vt 0.74621 0.42685
vt 0.77703 0.42685
vt 0.74621 0.46099
vt 1.74621 0.42685
vt 1.77129 0.45445
vt 1.77703 0.42685
vt 1.74621 0.46099
vt 0.77129 0.34392
vt 0.74621 0.31632
vt 0.77703 0.31632
vt 0.74621 0.35045
vt 1.74621 0.31632
vt 1.77129 0.34392
vt 1.77703 0.31632
vt 1.74621 0.35045
vt 1.00293 0.20528
vt 1.01659 0.21232
vt 1.01165 0.05341
vt 0.00293 0.20528
vt 0.01659 0.21232
vt 0.01165 0.05341
vt 0.47697 0.66371
vt 0.45189 0.63610
vt 0.48271 0.63610
vt 0.45189 0.67024
vt 0.24139 0.83147
vt 0.23739 0.77381
vt 1.24139 0.83147
vt 1.23739 0.77381
vt 1.45189 0.63610
vt 1.47697 0.66371
vt 1.48271 0.63610
vt 1.45189 0.67024
vt 0.41697 0.18929
vt 0.41697 0.15516
vt 0.42242 0.15516
vt 0.42242 0.18929
vt 0.00837 0.25016
vt 0.00293 0.21603
vt 0.00837 0.21603
vt 0.00293 0.25016
vt 1.00293 0.21603
vt 1.00837 0.25016
vt 1.00837 0.21603
vt 1.00293 0.25016
vt 1.41697 0.18929
vt 1.42242 0.15516
vt 1.41697 0.15516
vt 1.42242 0.18929
vt 1.74199 0.08312
vt 1.74769 0.08213
vt 0.58161 0.63062
vt 0.59541 0.68918
vt 0.64929 0.59842
vt 0.58159 0.48835
vt 0.64919 0.52060
vt 0.59502 0.42971
vt 0.74200 0.08312
vt 0.74769 0.08213
vt 0.60155 0.29851
vt 0.62523 0.27033
vt 0.62523 0.29852
vt 0.60155 0.27032
vt 0.67738 0.31735
vt 0.65642 0.34554
vt 0.65642 0.31735
vt 0.67738 0.34554
vt 0.37082 0.00299
vt 0.34713 0.03118
vt 0.34714 0.00298
vt 0.37081 0.03118
vt 1.34713 0.03118
vt 1.37082 0.00299
vt 1.34714 0.00298
vt 1.37081 0.03118
vt 1.65642 0.34554
vt 1.67738 0.31735
vt 1.65642 0.31735
vt 1.67738 0.34554
vt 1.60155 0.29851
vt 1.62523 0.27033
vt 1.60155 0.27032
vt 1.62523 0.29852
vt 0.95139 0.51266
vt 0.97507 0.51266
vt 0.97507 0.53858
vt 0.95139 0.53858
vt 0.92499 0.51266
vt 0.94595 0.51266
vt 0.94595 0.53858
vt 0.92499 0.53858
vt 0.89587 0.51266
vt 0.91955 0.51266
vt 0.91955 0.53858
vt 0.89587 0.53858
vt 1.91955 0.53858
vt 1.89587 0.51266
vt 1.89587 0.53858
vt 1.91955 0.51266
vt 1.92499 0.51266
vt 1.94595 0.53858
vt 1.94595 0.51266
vt 1.92499 0.53858
vt 1.95139 0.51266
vt 1.97507 0.53858
vt 1.97507 0.51266
vt 1.95139 0.53858
vt 0.15865 0.00298
vt 0.14760 0.01404
vt 0.14760 0.00298
vt 0.15865 0.01404
vt 1.15866 0.00298
vt 1.14760 0.01404
vt 1.15866 0.01404
vt 1.14760 0.00298
vt 1.88090 0.02147
vt 1.88718 0.04538
vt 1.88654 0.02169
vt 1.88158 0.04683
vt 0.32718 0.00298
vt 0.33824 0.00298
vt 0.32718 0.02155
vt 0.33824 0.02155
vt 0.88718 0.04538
vt 0.88090 0.02147
vt 0.88654 0.02169
vt 0.88158 0.04683
vt 1.32718 0.00298
vt 1.32718 0.02155
vt 1.33824 0.00298
vt 1.33824 0.02155
vt 0.80689 0.99707
vt 0.79176 0.91778
vt 0.81544 0.91778
vt 0.78632 0.91778
vt 0.74480 0.99707
vt 0.76536 0.91778
vt 0.75992 0.91778
vt 0.73624 0.91778
vt 1.73624 0.91778
vt 1.74480 0.99707
vt 1.75992 0.91778
vt 1.76536 0.91778
vt 1.78632 0.91778
vt 1.80689 0.99707
vt 1.79176 0.91778
vt 1.81544 0.91778
vt 0.96652 0.61787
vt 0.90443 0.61787
vt 1.90443 0.61787
vt 1.96652 0.61787
vt 0.79176 0.89186
vt 0.81544 0.89186
vt 0.76536 0.89186
vt 0.78632 0.89186
vt 0.73624 0.89186
vt 0.75992 0.89186
vt 1.76536 0.89186
vt 1.78632 0.89186
vt 1.73624 0.89186
vt 1.75991 0.89186
vt 1.79176 0.89186
vt 1.81544 0.89186
vt 1.88159 0.00297
vt 1.88718 0.00440
vt 0.88718 0.00440
vt 0.88158 0.00297
vt 0.94982 0.94013
vt 0.85097 0.84128
vt 0.94982 0.84128
vt 0.85097 0.94013
vt 0.39320 0.42916
vt 0.43622 0.38924
vt 0.43008 0.42916
vt 0.38704 0.38925
vt 0.42608 0.45981
vt 0.39720 0.45981
vt 0.40067 0.48631
vt 0.42263 0.48630
vn 0.5748 -0.8189 0.0000
vn 0.7717 -0.6378 0.0000
vn 0.9134 -0.4094 0.0000
vn 0.9843 -0.1654 0.0000
vn 0.9921 -0.1417 0.0000
vn 0.8976 0.4409 0.0000
vn -1.0000 0.0000 0.0000
vn -0.6457 0.7638 0.0000
vn 0.9685 0.2520 0.0000
vn 0.7244 -0.6929 0.0000
vn 0.5118 0.8583 0.0000
vn -0.9528 -0.2992 0.0000
vn -0.8504 0.5197 0.0000
vn -0.8504 0.5197 -0.0866
vn -0.8504 0.5197 -0.1102
vn -0.8504 0.5197 -0.1024
vn -0.8504 0.5197 0.1024
vn -0.8504 0.5197 0.0866
vn -0.8504 0.5197 0.1102
vn 0.2677 0.9606 0.0000
vn -0.3701 0.8346 -0.4173
vn -0.3701 0.8346 0.4173
vn 1.0000 0.0000 0.0000
vn 0.0315 -1.0000 0.0000
vn 0.0000 0.9055 -0.4173
vn -0.9134 0.3071 -0.2598
vn 0.0000 0.9055 0.4173
vn -0.9134 0.3071 0.2598
vn -0.8583 0.3543 -0.3780
vn -0.8583 0.3543 0.3780
vn 1.0000 0.0709 0.0000
vn -0.7559 0.3071 -0.5827
vn -0.1732 0.9843 0.0000
vn -0.1654 0.9843 -0.0630
vn -0.1654 0.9843 -0.0866
vn -0.1260 0.9921 -0.0394
vn -0.1260 0.9921 -0.0630
vn -0.1260 0.9921 0.0630
vn -0.1260 0.9921 0.0394
vn -0.1181 0.9921 0.0000
vn -0.1654 0.9843 0.0866
vn -0.1654 0.9843 0.0630
vn 0.9843 0.1732 0.0000
vn -0.7559 0.3071 0.5827
vn 0.0000 -1.0000 0.0000
vn -0.7402 -0.1260 -0.6614
vn -0.7402 -0.1260 0.6614
vn 0.2441 0.9606 -0.1496
vn 0.1102 0.9843 -0.1417
vn 0.1102 0.9921 0.0000
vn 0.2126 0.9764 0.0000
vn 0.1575 0.9685 -0.1811
vn 0.1181 0.9843 -0.1417
vn 0.1575 0.9685 0.1811
vn 0.1181 0.9843 0.1417
vn 0.1102 0.9843 0.1417
vn 0.2441 0.9606 0.1496
vn 0.9843 0.1890 0.0000
vn -0.1102 0.9843 -0.1496
vn -0.1102 0.9843 0.1496
vn -0.3228 0.8504 -0.4173
vn 0.0000 1.0000 0.0000
vn -0.6614 0.7480 0.0000
vn 0.0236 -1.0000 0.0000
vn 0.1575 -0.9843 0.0000
vn 0.4173 -0.9055 0.0000
vn -0.1102 0.6063 -0.7874
vn -0.1102 0.6063 0.7874
vn 0.0787 -0.0394 -0.9921
vn 0.0000 -0.1496 -0.9921
vn 0.0787 -0.0394 0.9921
vn -0.1732 0.9685 0.1732
vn -0.3150 0.9213 0.2283
vn -0.0945 0.9843 0.1417
vn -0.1024 0.9921 0.0787
vn -0.1181 0.9921 0.0630
vn -0.1181 0.9921 -0.0630
vn -0.1024 0.9921 -0.0787
vn -0.0945 0.9843 -0.1417
vn -0.1732 0.9685 -0.1732
vn -0.3150 0.9213 -0.2283
vn 0.0000 -0.1496 0.9921
vn 0.0000 0.9213 -0.3858
vn -0.5197 0.8504 0.0000
vn -0.1102 0.9921 0.0000
vn -0.0157 1.0000 0.0000
vn -0.3228 0.9449 0.0000
vn 0.0000 0.0472 -1.0000
vn -0.9370 -0.2441 -0.2598
vn 0.0000 0.0472 1.0000
vn -0.9370 -0.2441 0.2598
vn 0.0000 0.0000 -1.0000
vn 0.0000 0.0000 1.0000
vn 0.0000 0.2362 -0.9685
vn 0.0000 0.2441 -0.9685
vn 1.0000 -0.0236 0.0000
vn 0.2205 -0.9764 0.0000
vn -0.8346 -0.1417 -0.5354
vn 0.2520 0.9685 0.0000
vn 0.0000 0.2441 0.9685
vn 0.0000 0.2362 0.9685
vn -0.2992 -0.1417 -0.9449
vn -0.0709 -0.0315 -1.0000
vn -0.0236 -0.0079 -1.0000
vn -0.0394 0.0000 -1.0000
vn -0.0315 0.0000 -1.0000
vn -0.2598 -0.0079 -0.9685
vn -0.0236 -0.0079 1.0000
vn -0.0394 0.0000 1.0000
vn -0.0709 -0.0315 1.0000
vn -0.2992 -0.1417 0.9449
vn -0.0315 0.0000 1.0000
vn -0.2598 -0.0079 0.9685
vn -0.9606 -0.2756 0.0000
vn 0.5827 0.8032 -0.1417
vn 0.5827 0.8032 0.1417
vn 0.0394 0.0079 -1.0000
vn 0.0630 0.0079 -1.0000
vn -0.0866 0.0394 -0.9921
vn 0.1024 0.0000 -0.9921
vn -0.1654 0.0709 -0.9843
vn -0.2205 0.1024 -0.9685
vn -0.0630 0.5039 -0.8661
vn -0.7874 -0.6142 0.0000
vn -0.6535 -0.7559 0.0000
vn -0.1339 -0.9921 0.0000
vn -0.1654 0.0709 0.9843
vn -0.2205 0.1024 0.9685
vn -0.0866 0.0394 0.9921
vn 0.0394 0.0079 1.0000
vn 0.0630 0.0079 1.0000
vn 0.1024 0.0000 0.9921
vn -0.6535 -0.5197 -0.5512
vn -0.0630 0.5039 0.8661
vn -0.5906 -0.6063 -0.5276
vn -0.6535 -0.5197 0.5512
vn 0.0236 0.0000 -1.0000
vn 0.0472 0.0079 -1.0000
vn 0.1102 0.0394 -0.9921
vn 0.1260 0.0709 -0.9921
vn 0.1496 0.1260 -0.9764
vn 0.1575 0.1260 -0.9764
vn 0.0945 0.1339 -0.9843
vn 0.0472 0.1181 -0.9921
vn 0.0315 0.1260 -0.9921
vn -0.5906 -0.6063 0.5276
vn 0.2047 0.9764 0.0000
vn 0.3228 0.9449 0.0000
vn 0.5906 0.8110 0.0000
vn 0.7165 0.7008 0.0000
vn 0.0472 0.0079 1.0000
vn 0.0236 0.0000 1.0000
vn 0.1102 0.0394 0.9921
vn 0.1260 0.0709 0.9921
vn 0.1496 0.1260 0.9764
vn 0.1575 0.1260 0.9764
vn 0.0945 0.1339 0.9843
vn 0.0472 0.1181 0.9921
vn 0.0315 0.1260 0.9921
vn -0.9764 0.2047 0.0000
vn -1.0000 -0.0709 0.0000
vn 0.0551 1.0000 0.0000
vn 0.0551 0.2205 -0.9764
vn 0.0551 0.2205 0.9764
vn 0.1575 0.1575 -0.9764
vn 0.1575 0.1575 0.9764
vn 0.0157 0.2283 -0.9764
vn 0.3937 0.9134 -0.0709
vn 0.0157 0.2283 0.9764
vn 0.3937 0.9134 0.0709
vn -0.0236 1.0000 0.0000
vn 0.9921 -0.1339 0.0000
vn -0.7165 -0.7008 0.0000
vn -0.0079 0.2283 -0.9764
vn -0.0079 0.2283 0.9764
vn -0.0551 -1.0000 0.0000
vn 0.7402 0.2283 -0.6378
vn 0.7638 0.2362 -0.5984
vn 0.8504 0.2677 -0.4488
vn 0.6378 0.1968 -0.7402
vn 0.7638 0.2362 0.5984
vn 0.7402 0.2283 0.6378
vn 0.8504 0.2677 0.4488
vn 0.6378 0.1968 0.7402
vn -0.0472 0.2205 -0.9764
vn -0.2520 -0.9685 0.0000
vn 0.6772 0.6929 -0.2441
vn 0.7087 0.5748 -0.4173
vn 0.6772 0.6929 0.2441
vn -0.0472 0.2205 0.9764
vn 0.7087 0.5748 0.4173
vn -0.8898 0.4646 0.0000
vn -0.5906 -0.6063 -0.5354
vn 0.9370 0.3465 0.0000
vn -0.3228 -0.9449 0.0000
vn -0.1968 -0.9764 0.0000
vn 0.0000 -1.0000 -0.0236
vn 0.0000 -1.0000 0.0236
vn 0.0000 -1.0000 -0.0630
vn 0.0000 -0.9134 -0.4094
vn 0.0000 -1.0000 0.0630
vn 0.0000 -0.9134 0.4094
vn 0.8268 0.2126 -0.5197
vn 0.0000 -0.2913 -0.9528
vn 0.8268 0.2126 0.5197
vn 0.0000 -0.0709 -1.0000
vn -0.8583 -0.5197 0.0000
vn 0.4331 0.1732 -0.8819
vn 0.0000 -0.2913 0.9528
vn -0.0394 1.0000 0.0000
vn 0.0315 1.0000 0.0000
vn -0.1968 0.9764 0.0000
vn -0.2835 0.9606 0.0000
vn -0.4488 0.8976 0.0000
vn -0.3937 0.9213 0.0000
vn 0.0000 -0.0709 1.0000
vn 0.4331 0.1732 0.8819
vn 0.9291 0.3780 0.0000
vn 0.8425 -0.5354 0.0000
vn -0.1654 0.1575 -0.9764
vn -0.2205 0.9764 0.0000
vn 0.5984 -0.4646 -0.6535
vn -0.1654 0.1575 0.9764
vn 0.5984 -0.4646 0.6535
vn 0.0000 -0.0945 -0.9921
vn 0.0000 -0.0945 0.9921
vn -0.1339 -0.9843 0.1024
vn -0.1890 -0.9843 0.0472
vn -0.1968 -0.9764 0.0394
vn -0.1968 -0.9764 -0.0394
vn -0.1890 -0.9843 -0.0472
vn -0.1339 -0.9843 -0.1024
vn -0.1102 -0.9921 0.0000
vn 0.0866 -0.9055 -0.4173
vn 0.8110 -0.2598 -0.5197
vn 0.0866 -0.9055 0.4173
vn 0.8110 -0.2598 0.5197
vn -0.9843 0.1890 0.0000
vn 0.8032 0.2126 -0.5591
vn -0.9606 0.2756 0.0000
vn 0.9528 0.1575 -0.2441
vn 0.7874 -0.6142 0.0315
vn 0.7874 -0.6142 0.0157
vn 0.7323 -0.5669 0.3780
vn 0.8032 -0.5984 0.0000
vn 0.9370 -0.3386 0.0000
vn 0.7953 -0.6063 0.0000
vn 0.7874 -0.6142 -0.0315
vn 0.7874 -0.6142 -0.0157
vn 0.7323 -0.5669 -0.3780
vn 0.9528 0.1575 0.2441
vn -0.2520 0.9685 0.0000
vn 0.0000 -0.9843 -0.1654
vn 0.0000 -0.9843 0.1654
vn 0.0472 1.0000 0.0000
vn 0.1024 -0.9291 -0.3622
vn 0.7874 -0.2677 -0.5512
vn 0.3543 -0.9213 -0.1811
vn 0.3543 -0.9213 0.1811
vn -0.7244 0.6929 0.0000
vn -0.9764 0.1968 0.0000
vn -0.9213 0.3937 0.0000
vn -0.9213 0.3858 0.0000
vn -0.8346 -0.5512 0.0000

o animal_lizard
usemtl tex_animal_lizard_i028p001x
f 1/1/1 2/2/2 3/3/1
f 2/2/2 1/1/1 4/4/2
f 4/4/2 5/5/3 2/2/2
f 5/5/3 4/4/2 6/6/3
f 5/5/3 6/6/3 7/7/4
f 5/5/3 7/7/4 8/8/4
f 7/7/4 9/9/5 8/8/4
f 9/9/5 7/7/4 10/10/5
f 9/9/5 10/10/5 11/11/5
f 9/9/5 11/11/5 12/12/5
f 13/13/6 14/14/6 15/15/6
f 14/14/6 16/16/6 15/15/6
f 17/17/7 18/18/7 19/19/7
f 17/17/7 19/19/7 20/20/7
f 17/17/7 20/20/7 21/21/7
f 21/21/7 22/22/7 17/17/7
f 22/22/7 21/21/7 23/23/7
f 24/24/7 22/22/7 23/23/7
f 20/20/8 19/19/8 25/25/8
f 23/23/8 21/21/8 26/26/8
f 27/13/9 28/14/9 29/15/9
f 28/14/9 30/16/9 29/15/9
f 31/27/10 32/28/10 33/29/10
f 32/28/10 31/27/10 34/30/10
f 34/14/11 35/15/11 32/13/11
f 35/15/11 34/14/11 36/16/11
f 37/31/12 38/32/12 39/33/12
f 37/31/12 40/34/12 38/32/12
f 41/35/13 42/36/14 43/37/15
f 42/36/14 41/35/13 44/38/13
f 45/39/16 43/37/15 42/36/14
f 43/37/15 45/39/16 46/40/14
f 45/39/16 47/41/17 46/40/14
f 47/41/17 48/42/18 46/40/14
f 47/41/17 49/43/19 48/42/18
f 49/43/19 47/41/17 50/44/18
f 51/45/13 49/43/19 50/44/18
f 49/43/19 51/45/13 52/46/13
f 53/47/20 12/48/20 54/49/20
f 54/49/20 12/48/20 11/50/20
f 55/51/21 56/52/21 57/53/21
f 58/54/21 57/53/21 56/52/21
f 59/55/22 60/56/22 61/57/22
f 62/58/22 59/55/22 61/57/22
f 63/59/23 64/60/23 65/61/23
f 64/60/23 63/59/23 66/62/23
f 67/63/24 68/64/24 69/65/24
f 68/64/24 67/63/24 70/66/24
f 70/66/24 67/63/24 71/67/24
f 71/67/24 72/68/24 70/66/24
f 71/67/24 73/69/24 74/70/24
f 74/70/24 75/71/24 71/67/24
f 72/68/24 71/67/24 75/71/24
f 72/68/24 75/71/24 76/72/24
f 77/73/24 72/68/24 76/72/24
f 77/73/24 76/72/24 78/74/24
f 79/75/24 80/76/24 81/77/24
f 82/78/24 81/77/24 80/76/24
f 83/79/24 82/78/24 80/76/24
f 84/80/24 82/78/24 83/79/24
f 82/78/24 84/80/24 85/81/24
f 86/82/24 84/80/24 83/79/24
f 83/79/24 87/83/24 86/82/24
f 85/81/24 84/80/24 88/84/24
f 89/85/24 85/81/24 88/84/24
f 89/85/24 88/84/24 90/86/24
f 72/87/23 91/88/23 70/89/23
f 91/88/23 72/87/23 92/90/23
f 82/91/23 93/92/23 94/93/23
f 82/91/23 85/94/23 93/92/23
f 95/95/24 96/96/24 97/97/24
f 96/96/24 95/95/24 98/98/24
f 98/98/24 95/95/24 99/99/24
f 98/98/24 99/99/24 100/100/24
f 100/100/24 101/101/24 98/98/24
f 102/102/24 100/100/24 99/99/24
f 99/99/24 103/103/24 102/102/24
f 101/101/24 100/100/24 104/104/24
f 105/105/24 101/101/24 104/104/24
f 105/105/24 104/104/24 106/106/24
f 107/107/24 108/108/24 109/109/24
f 110/110/24 109/109/24 108/108/24
f 111/111/24 110/110/24 108/108/24
f 111/111/24 112/112/24 110/110/24
f 111/111/24 113/113/24 114/114/24
f 114/114/24 115/115/24 111/111/24
f 112/112/24 111/111/24 115/115/24
f 112/112/24 115/115/24 116/116/24
f 117/117/24 112/112/24 116/116/24
f 117/117/24 116/116/24 118/118/24
f 56/52/25 119/119/25 58/54/25
f 119/119/25 56/52/25 120/120/25
f 121/121/26 122/122/26 123/123/26
f 122/122/26 121/121/26 124/124/26
f 125/125/27 61/57/27 60/56/27
f 61/57/27 125/125/27 126/126/27
f 127/127/28 128/128/28 129/129/28
f 128/128/28 127/127/28 130/130/28
f 131/131/29 132/132/29 133/133/29
f 134/134/30 135/135/30 136/136/30
f 137/137/31 138/138/31 139/139/31
f 138/138/31 137/137/31 140/140/31
f 141/141/31 142/142/31 143/143/31
f 142/142/31 141/141/31 144/144/31
f 132/145/32 145/146/32 146/147/32
f 18/148/33 147/149/34 19/150/33
f 147/149/34 18/148/33 148/151/33
f 148/151/33 43/37/35 147/149/34
f 43/37/35 148/151/33 41/35/33
f 43/37/35 149/152/36 147/149/34
f 149/152/36 43/37/35 46/40/37
f 48/42/38 149/152/36 46/40/37
f 149/152/36 48/42/38 150/153/39
f 150/153/39 20/154/40 149/152/36
f 20/154/40 150/153/39 21/155/40
f 49/43/41 150/153/39 48/42/38
f 150/153/39 49/43/41 151/156/42
f 151/156/42 49/43/41 152/157/33
f 49/43/41 52/46/33 152/157/33
f 151/156/42 152/157/33 24/158/33
f 23/159/33 151/156/42 24/158/33
f 153/13/43 154/14/43 155/15/43
f 154/14/43 156/16/43 155/15/43
f 157/160/44 134/161/44 158/162/44
f 159/163/45 160/164/45 161/165/45
f 160/164/45 159/163/45 162/166/45
f 163/167/45 139/168/45 164/169/45
f 139/168/45 163/167/45 137/170/45
f 165/171/45 166/172/45 167/173/45
f 165/171/45 167/173/45 168/174/45
f 169/175/45 144/176/45 141/177/45
f 169/175/45 170/178/45 144/176/45
f 57/179/46 171/180/46 172/181/46
f 172/181/46 55/182/46 57/179/46
f 59/183/47 173/184/47 174/185/47
f 62/186/47 173/184/47 59/183/47
f 175/187/48 42/36/49 44/38/50
f 44/38/50 157/188/51 175/187/48
f 42/36/49 175/187/48 176/189/52
f 176/189/52 45/39/53 42/36/49
f 177/190/54 45/39/53 176/189/52
f 45/39/53 177/190/54 47/41/55
f 177/190/54 50/44/56 47/41/55
f 50/44/56 177/190/54 178/191/57
f 50/44/56 178/191/57 145/192/51
f 145/192/51 51/45/50 50/44/56
f 179/193/58 138/138/58 140/140/58
f 140/140/58 180/194/58 179/193/58
f 143/143/58 181/195/58 182/196/58
f 142/142/58 181/195/58 143/143/58
f 121/197/59 183/198/59 184/199/59
f 183/198/59 121/197/59 123/200/59
f 128/201/60 185/202/60 186/203/60
f 186/203/60 129/204/60 128/201/60
f 187/205/61 188/205/61 189/205/61
f 188/205/61 187/205/61 190/205/61
f 191/206/62 192/207/62 193/208/62
f 192/207/62 194/209/62 193/208/62
f 195/210/62 196/211/62 197/212/62
f 196/211/62 195/210/62 198/213/62
f 191/214/7 199/215/7 192/216/7
f 199/215/7 191/214/7 200/217/7
f 197/218/7 201/219/7 202/220/7
f 197/218/7 196/221/7 201/219/7
f 203/222/63 204/223/63 205/224/63
f 206/225/63 203/222/63 205/224/63
f 207/226/64 208/227/65 209/228/65
f 207/226/64 210/229/64 208/227/65
f 208/227/65 211/230/66 209/228/65
f 211/230/66 208/227/65 212/231/66
f 211/230/66 212/231/66 1/232/1
f 211/230/66 1/232/1 3/233/1
f 151/156/67 23/159/67 26/234/67
f 19/150/68 147/149/68 25/235/68
f 112/236/69 117/237/69 213/238/69
f 213/238/69 117/237/69 214/239/69
f 213/238/69 215/240/69 112/236/69
f 216/241/69 89/242/69 217/243/69
f 85/244/69 89/242/69 216/241/69
f 216/241/69 93/245/69 85/244/69
f 170/246/70 218/247/70 142/248/70
f 170/246/70 142/248/70 144/249/70
f 96/250/71 98/251/71 219/252/71
f 219/252/71 98/251/71 220/253/71
f 96/250/71 219/252/71 221/254/71
f 68/255/71 222/256/71 223/257/71
f 68/255/71 70/258/71 222/256/71
f 222/256/71 70/258/71 91/259/71
f 224/260/72 225/261/73 226/262/73
f 227/263/74 224/260/72 226/262/73
f 37/264/75 224/260/72 227/263/74
f 37/264/75 227/263/74 228/265/76
f 229/266/77 37/264/75 228/265/76
f 37/264/75 229/266/77 40/267/78
f 230/268/79 40/267/78 229/266/77
f 40/267/78 230/268/79 231/269/80
f 232/270/81 231/269/80 230/268/79
f 231/269/80 232/270/81 233/271/81
f 164/272/82 138/273/82 234/274/82
f 138/273/82 164/272/82 139/275/82
f 187/205/83 235/205/83 190/205/83
f 187/205/83 236/205/83 235/205/83
f 237/276/84 238/277/84 239/278/84
f 240/279/84 237/276/84 239/278/84
f 227/263/85 229/266/86 228/265/86
f 229/266/86 227/263/85 230/268/85
f 227/263/85 232/270/87 230/268/85
f 232/270/87 227/263/85 226/262/87
f 241/280/88 167/281/88 166/282/88
f 167/281/88 241/280/88 242/283/88
f 243/284/89 122/122/89 124/124/89
f 244/285/89 122/122/89 243/284/89
f 160/286/90 245/287/90 161/288/90
f 245/287/90 160/286/90 246/289/90
f 127/127/91 247/290/91 130/130/91
f 247/290/91 127/127/91 248/291/91
f 249/292/92 115/293/92 114/294/92
f 115/293/92 249/292/92 250/295/92
f 251/296/93 103/297/93 99/298/93
f 99/298/93 252/299/93 251/296/93
f 253/300/94 142/248/94 218/247/94
f 142/248/94 253/300/94 181/301/94
f 254/302/95 241/280/95 255/303/95
f 241/280/95 254/302/95 242/283/95
f 256/304/92 84/305/92 86/306/92
f 84/305/92 256/304/92 257/307/92
f 258/13/96 259/14/96 260/15/96
f 259/14/96 261/16/96 260/15/96
f 262/27/97 13/28/97 263/29/97
f 13/28/97 262/27/97 14/30/97
f 189/205/98 264/205/98 265/205/98
f 264/205/98 189/205/98 188/205/98
f 266/308/99 260/15/99 261/16/99
f 267/309/99 266/308/99 261/16/99
f 245/287/100 268/310/100 269/311/100
f 268/310/100 245/287/100 246/289/100
f 270/312/101 234/274/101 138/273/101
f 270/312/101 138/273/101 179/313/101
f 40/314/102 231/315/103 38/316/102
f 231/315/103 271/317/104 38/316/102
f 271/317/104 231/315/103 233/318/105
f 233/318/105 131/319/92 271/317/104
f 131/319/92 233/318/105 132/145/92
f 52/320/106 132/145/92 233/318/105
f 51/321/92 132/145/92 52/320/106
f 132/145/92 51/321/92 145/146/92
f 272/322/107 52/320/106 233/318/105
f 52/320/106 272/322/107 152/323/107
f 272/322/107 24/324/107 152/323/107
f 24/324/107 272/322/107 22/325/107
f 273/326/93 73/327/93 71/328/93
f 71/328/93 274/329/93 273/326/93
f 183/330/92 171/180/92 275/331/92
f 171/180/92 183/330/92 276/332/92
f 171/180/92 277/333/92 275/331/92
f 277/333/92 171/180/92 57/179/92
f 58/334/92 277/333/92 57/179/92
f 277/333/92 58/334/92 278/335/92
f 58/334/92 244/336/92 278/335/92
f 244/336/92 58/334/92 119/337/92
f 119/337/92 279/338/92 244/336/92
f 244/336/92 279/338/92 122/339/92
f 279/338/92 123/340/92 122/339/92
f 123/340/92 279/338/92 280/341/92
f 280/341/92 276/332/92 123/340/92
f 123/340/92 276/332/92 183/330/92
f 281/342/108 225/343/109 224/344/110
f 224/344/110 39/345/111 281/342/108
f 39/345/111 224/344/110 37/346/111
f 135/347/93 225/343/109 281/342/108
f 225/343/109 135/347/93 134/161/93
f 134/161/93 41/348/112 225/343/109
f 41/348/112 134/161/93 44/349/93
f 44/349/93 134/161/93 157/160/93
f 41/348/112 282/350/113 225/343/109
f 282/350/113 41/348/112 148/351/113
f 282/350/113 148/351/113 18/352/113
f 18/352/113 17/353/113 282/350/113
f 283/354/92 108/355/92 107/356/92
f 108/355/92 283/354/92 284/357/92
f 196/358/92 285/359/92 201/360/92
f 285/359/92 196/358/92 198/361/92
f 174/185/93 186/362/93 286/363/93
f 174/185/93 287/364/93 186/362/93
f 288/365/93 174/185/93 286/363/93
f 174/185/93 288/365/93 59/183/93
f 60/366/93 59/183/93 288/365/93
f 60/366/93 288/365/93 289/367/93
f 248/368/93 60/366/93 289/367/93
f 60/366/93 248/368/93 125/369/93
f 290/370/93 125/369/93 248/368/93
f 248/368/93 127/371/93 290/370/93
f 129/372/93 290/370/93 127/371/93
f 290/370/93 129/372/93 291/373/93
f 287/364/93 291/373/93 129/372/93
f 129/372/93 186/362/93 287/364/93
f 292/374/92 293/375/92 184/376/92
f 293/375/92 292/374/92 294/377/92
f 293/375/92 121/378/92 184/376/92
f 121/378/92 293/375/92 124/379/92
f 124/379/92 293/375/92 243/380/92
f 269/381/114 295/382/114 245/383/114
f 295/382/114 269/381/114 296/384/114
f 255/385/114 297/386/114 298/387/114
f 297/386/114 255/385/114 241/388/114
f 299/389/93 106/390/93 104/391/93
f 104/391/93 300/392/93 299/389/93
f 192/393/93 199/394/93 301/395/93
f 192/393/93 301/395/93 194/396/93
f 175/397/48 157/398/51 302/399/115
f 176/400/52 175/397/48 302/399/115
f 178/401/57 177/402/54 303/403/116
f 145/404/51 178/401/57 303/403/116
f 304/405/117 305/406/118 306/407/119
f 304/405/117 64/408/120 305/406/118
f 305/406/118 64/408/120 66/409/120
f 306/407/119 307/410/121 304/405/117
f 307/410/121 306/407/119 206/411/122
f 307/410/121 206/411/122 205/412/122
f 308/413/93 309/414/93 310/415/93
f 309/414/93 308/413/93 185/416/93
f 128/417/93 309/414/93 185/416/93
f 309/414/93 128/417/93 130/418/93
f 309/414/93 130/418/93 247/419/93
f 252/420/7 99/421/7 95/422/7
f 95/422/7 311/423/7 252/420/7
f 300/424/7 104/425/7 100/426/7
f 100/426/7 312/427/7 300/424/7
f 187/205/93 313/205/93 314/205/93
f 313/205/93 187/205/93 265/205/93
f 265/205/93 187/205/93 189/205/93
f 315/205/93 187/205/93 314/205/93
f 187/205/93 315/205/93 236/205/93
f 149/152/123 20/154/123 25/235/123
f 284/428/7 111/429/7 108/430/7
f 316/431/7 111/429/7 284/428/7
f 250/432/7 116/433/7 115/434/7
f 317/435/7 116/433/7 250/432/7
f 206/436/124 318/437/125 203/438/124
f 318/437/125 206/436/124 306/439/125
f 318/437/125 306/439/125 305/440/126
f 318/437/125 305/440/126 319/441/126
f 305/440/126 63/442/45 319/441/126
f 63/442/45 305/440/126 66/443/45
f 320/444/127 203/445/128 318/446/129
f 203/445/128 320/444/127 204/447/128
f 318/446/129 321/448/130 320/444/127
f 321/448/130 318/446/129 319/449/131
f 319/449/131 65/450/132 321/448/130
f 65/450/132 319/449/131 63/451/132
f 322/452/133 132/145/133 146/147/133
f 21/155/134 150/153/134 26/234/134
f 171/453/135 323/454/135 172/455/135
f 323/454/135 171/453/135 276/456/135
f 134/161/136 324/457/136 158/162/136
f 210/458/137 325/459/137 326/460/138
f 210/458/137 326/460/138 208/461/138
f 326/460/138 212/462/139 208/461/138
f 212/462/139 326/460/138 327/463/139
f 212/462/139 327/463/139 328/464/140
f 212/462/139 328/464/140 1/465/140
f 328/464/140 4/466/141 1/465/140
f 4/466/141 328/464/140 329/467/142
f 330/468/143 4/466/141 329/467/142
f 4/466/141 330/468/143 6/469/143
f 330/468/143 7/470/144 6/469/143
f 7/470/144 330/468/143 331/471/144
f 332/472/145 7/470/144 331/471/144
f 332/472/145 10/473/145 7/470/144
f 54/474/145 10/473/145 332/472/145
f 54/474/145 11/475/145 10/473/145
f 174/476/146 333/477/146 287/478/146
f 333/477/146 174/476/146 173/479/146
f 334/480/92 80/481/92 79/482/92
f 80/481/92 334/480/92 335/483/92
f 65/484/147 304/485/148 321/486/148
f 304/485/148 65/484/147 64/487/147
f 304/485/148 320/488/149 321/486/148
f 320/488/149 304/485/148 307/489/149
f 205/224/150 320/488/149 307/489/149
f 320/488/149 205/224/150 204/223/150
f 336/490/150 238/491/150 337/492/150
f 238/491/150 336/490/150 239/493/150
f 338/494/151 207/495/152 209/496/151
f 207/495/152 338/494/151 339/497/152
f 338/494/151 209/496/151 211/498/153
f 211/498/153 340/499/153 338/494/151
f 211/498/153 341/500/154 340/499/153
f 341/500/154 211/498/153 3/501/154
f 3/501/154 2/502/155 341/500/154
f 2/502/155 342/503/156 341/500/154
f 2/502/155 343/504/157 342/503/156
f 343/504/157 2/502/155 5/505/157
f 8/506/158 343/504/157 5/505/157
f 343/504/157 8/506/158 344/507/158
f 8/506/158 345/508/159 344/507/158
f 345/508/159 8/506/158 9/509/159
f 9/509/159 53/510/159 345/508/159
f 53/510/159 9/509/159 12/511/159
f 96/512/160 346/513/160 97/514/160
f 346/513/160 96/512/160 221/515/160
f 103/516/160 347/517/160 102/518/160
f 347/517/160 103/516/160 251/519/160
f 299/520/160 105/521/160 106/522/160
f 105/521/160 299/520/160 348/523/160
f 109/524/160 283/525/160 107/526/160
f 283/525/160 109/524/160 349/527/160
f 350/528/160 114/529/160 113/530/160
f 350/528/160 249/531/160 114/529/160
f 351/532/160 117/533/160 118/534/160
f 351/532/160 214/535/160 117/533/160
f 352/536/93 78/537/93 76/538/93
f 76/538/93 353/539/93 352/536/93
f 245/383/161 159/540/161 161/541/161
f 295/382/161 159/540/161 245/383/161
f 165/542/161 297/386/161 241/388/161
f 241/388/161 166/543/161 165/542/161
f 354/308/162 155/15/162 156/16/162
f 355/309/162 354/308/162 156/16/162
f 267/544/163 259/545/163 356/546/163
f 259/545/163 267/544/163 261/547/163
f 258/548/164 266/549/164 357/550/164
f 266/549/164 258/548/164 260/551/164
f 239/552/165 358/553/165 240/554/165
f 358/553/165 239/552/165 336/555/165
f 359/556/166 238/557/166 237/558/166
f 238/557/166 359/556/166 337/559/166
f 355/544/167 154/545/167 360/546/167
f 154/545/167 355/544/167 156/547/167
f 147/149/168 149/152/168 25/235/168
f 354/549/169 361/550/169 153/548/169
f 354/549/169 153/548/169 155/551/169
f 150/153/170 151/156/170 26/234/170
f 362/309/171 363/308/171 30/16/171
f 363/308/171 29/15/171 30/16/171
f 162/560/172 246/561/172 160/562/172
f 246/561/172 162/560/172 364/563/172
f 365/27/64 27/28/64 366/29/64
f 27/28/64 365/27/64 28/30/64
f 168/564/172 242/565/172 367/566/172
f 242/565/172 168/564/172 167/567/172
f 240/279/173 359/568/173 237/276/173
f 359/568/173 240/279/173 358/569/173
f 365/546/174 30/547/174 28/545/174
f 30/547/174 365/546/174 362/544/174
f 29/551/175 366/550/175 27/548/175
f 366/550/175 29/551/175 363/549/175
f 360/27/176 153/28/176 361/29/176
f 153/28/176 360/27/176 154/30/176
f 145/404/177 368/570/178 146/571/179
f 368/570/178 145/404/177 303/403/180
f 101/572/23 220/573/23 98/574/23
f 220/573/23 101/572/23 369/575/23
f 110/576/23 215/577/23 370/578/23
f 110/576/23 112/579/23 215/577/23
f 371/580/181 157/398/182 158/581/183
f 157/398/182 371/580/181 302/399/184
f 16/547/185 262/546/185 372/544/185
f 14/545/185 262/546/185 16/547/185
f 356/27/186 258/28/186 357/29/186
f 258/28/186 356/27/186 259/30/186
f 292/582/187 183/583/187 275/584/187
f 183/583/187 292/582/187 184/585/187
f 132/586/188 322/587/188 133/588/188
f 186/589/189 308/590/189 286/591/189
f 308/590/189 186/589/189 185/592/189
f 15/551/190 263/550/190 13/548/190
f 263/550/190 15/551/190 373/549/190
f 324/593/191 134/594/191 136/595/191
f 269/596/62 268/597/62 374/598/62
f 296/599/62 269/596/62 374/598/62
f 270/600/62 179/601/62 180/602/62
f 375/603/62 270/600/62 180/602/62
f 298/604/62 376/605/62 255/606/62
f 255/606/62 376/605/62 254/607/62
f 377/608/62 182/609/62 253/610/62
f 253/610/62 182/609/62 181/611/62
f 266/612/192 356/27/192 357/29/192
f 356/27/192 266/612/192 267/613/192
f 72/614/69 378/615/69 92/616/69
f 77/617/69 378/615/69 72/614/69
f 378/615/69 77/617/69 379/618/69
f 264/205/193 380/205/193 313/205/193
f 265/205/193 264/205/193 313/205/193
f 268/619/194 246/561/194 364/563/194
f 364/563/194 374/620/194 268/619/194
f 367/566/194 254/621/194 376/622/194
f 242/565/194 254/621/194 367/566/194
f 38/623/195 281/624/196 39/625/195
f 38/623/195 271/626/196 281/624/196
f 281/624/196 271/626/196 131/627/197
f 281/624/196 131/627/197 135/628/198
f 135/628/198 131/627/197 381/629/199
f 381/629/199 131/627/197 133/630/200
f 135/628/198 381/629/199 382/631/201
f 135/628/198 382/631/201 136/632/202
f 140/633/70 163/634/70 383/635/70
f 163/634/70 140/633/70 137/636/70
f 81/637/71 384/638/71 385/639/71
f 384/638/71 81/637/71 82/640/71
f 384/638/71 82/640/71 94/641/71
f 120/642/203 386/643/203 119/337/203
f 279/338/203 119/337/203 386/643/203
f 169/644/82 143/645/82 387/646/82
f 143/645/82 169/644/82 141/647/82
f 295/648/204 296/649/204 374/650/204
f 295/648/204 374/650/204 364/651/204
f 290/370/205 388/652/205 125/369/205
f 388/652/205 126/653/205 125/369/205
f 375/654/206 140/633/206 383/635/206
f 140/633/206 375/654/206 180/655/206
f 234/656/207 163/657/207 164/658/207
f 383/659/207 163/657/207 234/656/207
f 218/660/207 170/661/207 169/662/207
f 387/663/207 218/660/207 169/662/207
f 389/664/208 176/665/208 302/666/208
f 298/667/209 297/668/209 376/669/209
f 367/670/209 376/669/209 297/668/209
f 326/671/210 339/672/211 338/673/210
f 339/672/211 326/671/210 325/674/211
f 338/673/210 327/675/212 326/671/210
f 327/675/212 338/673/210 340/676/212
f 327/675/212 340/676/212 341/677/213
f 327/675/212 341/677/213 328/678/213
f 328/678/213 341/677/213 342/679/214
f 328/678/213 342/679/214 329/680/214
f 329/680/214 342/679/214 343/681/215
f 329/680/214 343/681/215 330/682/215
f 377/683/216 143/645/216 182/684/216
f 143/645/216 377/683/216 387/646/216
f 177/685/217 390/686/217 303/687/217
f 390/688/218 176/689/218 389/690/218
f 176/689/218 390/688/218 177/691/218
f 359/692/219 358/693/219 337/492/219
f 358/693/219 336/490/219 337/492/219
f 391/544/220 34/545/220 31/546/220
f 34/545/220 391/544/220 36/547/220
f 372/309/221 373/308/221 16/16/221
f 373/308/221 15/15/221 16/16/221
f 368/570/222 322/694/222 146/571/222
f 33/550/223 32/548/223 392/549/223
f 32/548/223 35/551/223 392/549/223
f 324/695/224 371/580/224 158/581/224
f 159/696/225 295/648/225 162/697/225
f 295/648/225 364/651/225 162/697/225
f 393/698/69 105/699/69 348/700/69
f 105/699/69 393/698/69 101/701/69
f 101/701/69 393/698/69 369/702/69
f 297/668/226 168/703/226 367/670/226
f 168/703/226 297/668/226 165/704/226
f 109/705/71 394/706/71 349/707/71
f 394/706/71 109/705/71 110/708/71
f 394/706/71 110/708/71 370/709/71
f 282/710/227 17/711/228 395/712/229
f 282/710/227 395/712/229 396/713/227
f 226/714/227 282/710/227 396/713/227
f 282/710/227 226/714/227 225/715/227
f 17/711/228 397/716/230 395/712/229
f 17/711/228 22/717/231 397/716/230
f 272/718/232 397/716/230 22/717/231
f 397/716/230 272/718/232 398/719/232
f 232/720/232 398/719/232 272/718/232
f 272/718/232 233/721/232 232/720/232
f 399/722/92 75/723/92 74/724/92
f 75/723/92 399/722/92 400/725/92
f 264/205/92 190/205/92 380/205/92
f 190/205/92 264/205/92 188/205/92
f 190/205/92 401/205/92 380/205/92
f 190/205/92 402/205/92 401/205/92
f 402/205/92 190/205/92 235/205/92
f 83/726/93 403/727/93 87/728/93
f 403/727/93 83/726/93 404/729/93
f 397/716/233 396/713/233 395/712/233
f 396/713/233 397/716/233 398/719/233
f 398/719/233 226/714/233 396/713/233
f 226/714/233 398/719/233 232/720/233
f 347/730/92 100/731/92 102/732/92
f 100/731/92 347/730/92 312/733/92
f 111/734/93 350/735/93 113/736/93
f 350/735/93 111/734/93 316/737/93
f 405/738/92 67/739/92 69/740/92
f 67/739/92 405/738/92 406/741/92
f 88/742/93 407/743/93 90/744/93
f 407/743/93 88/742/93 408/745/93
f 276/456/234 280/746/234 323/454/234
f 323/454/234 280/746/234 409/747/234
f 280/341/235 386/643/235 409/748/235
f 386/643/235 280/341/235 279/338/235
f 333/477/236 291/749/236 287/478/236
f 333/477/236 410/750/236 291/749/236
f 388/652/237 291/373/237 410/751/237
f 291/373/237 388/652/237 290/370/237
f 346/752/92 95/753/92 97/754/92
f 95/753/92 346/752/92 311/755/92
f 270/756/238 383/659/238 234/656/238
f 383/659/238 270/756/238 375/757/238
f 387/663/238 253/758/238 218/660/238
f 253/758/238 387/663/238 377/759/238
f 116/760/93 351/761/93 118/762/93
f 351/761/93 116/760/93 317/763/93
f 315/205/239 235/205/239 236/205/239
f 235/205/239 315/205/239 402/205/239
f 355/613/240 361/29/240 354/612/240
f 361/29/240 355/613/240 360/27/240
f 274/764/7 71/765/7 67/766/7
f 67/766/7 406/767/7 274/764/7
f 400/768/7 76/769/7 75/770/7
f 76/769/7 400/768/7 353/771/7
f 80/772/7 404/773/7 83/774/7
f 404/773/7 80/772/7 335/775/7
f 257/776/7 88/777/7 84/778/7
f 408/779/7 88/777/7 257/776/7
f 275/584/241 277/780/241 292/582/241
f 292/582/241 277/780/241 294/781/241
f 382/782/242 324/695/243 136/783/244
f 382/782/242 411/784/245 324/695/243
f 324/695/243 411/784/245 371/580/245
f 371/580/245 411/784/245 302/399/246
f 411/784/245 389/690/247 302/399/246
f 411/784/245 382/782/242 389/690/247
f 382/782/242 390/688/247 389/690/247
f 390/688/247 382/782/242 381/785/248
f 390/688/247 381/785/248 412/786/245
f 390/688/247 412/786/245 303/403/246
f 412/786/245 368/570/245 303/403/246
f 412/786/245 322/694/249 368/570/245
f 412/786/245 381/785/248 322/694/249
f 322/694/249 381/785/248 133/787/250
f 308/590/251 288/788/251 286/591/251
f 288/788/251 308/590/251 310/789/251
f 405/790/160 68/791/160 223/792/160
f 68/791/160 405/790/160 69/793/160
f 73/794/160 399/795/160 74/796/160
f 399/795/160 73/794/160 273/797/160
f 78/798/160 379/799/160 77/800/160
f 379/799/160 78/798/160 352/801/160
f 385/802/160 79/803/160 81/804/160
f 385/802/160 334/805/160 79/803/160
f 403/806/160 86/807/160 87/808/160
f 403/806/160 256/809/160 86/807/160
f 407/810/160 89/811/160 90/812/160
f 407/810/160 217/813/160 89/811/160
f 346/814/252 221/815/252 219/816/252
f 346/814/252 219/816/252 311/817/252
f 347/818/252 251/819/252 252/820/252
f 347/818/252 252/820/252 312/821/252
f 348/822/252 299/823/252 300/824/252
f 348/822/252 300/824/252 393/825/252
f 284/826/252 349/827/252 394/828/252
f 349/827/252 284/826/252 283/829/252
f 350/830/252 250/831/252 249/832/252
f 250/831/252 350/830/252 316/833/252
f 351/834/252 213/835/252 214/836/252
f 213/835/252 351/834/252 317/837/252
f 200/838/45 301/839/45 199/840/45
f 301/839/45 200/838/45 413/841/45
f 202/842/45 285/843/45 414/844/45
f 202/842/45 201/845/45 285/843/45
f 278/846/253 243/847/253 293/848/253
f 243/847/253 278/846/253 244/849/253
f 301/850/23 413/851/23 194/852/23
f 413/851/23 193/853/23 194/852/23
f 247/854/254 289/855/254 309/856/254
f 289/855/254 247/854/254 248/857/254
f 285/858/23 198/859/23 414/860/23
f 414/860/23 198/859/23 195/861/23
f 91/862/255 406/863/255 222/864/255
f 406/863/255 91/862/255 274/865/255
f 92/866/255 274/865/255 91/862/255
f 274/865/255 92/866/255 400/867/255
f 92/866/255 353/868/255 400/867/255
f 353/868/255 92/866/255 378/869/255
f 384/870/255 94/871/255 335/872/255
f 335/872/255 94/871/255 404/873/255
f 404/873/255 94/871/255 257/874/255
f 93/875/255 257/874/255 94/871/255
f 257/874/255 93/875/255 408/876/255
f 408/876/255 93/875/255 216/877/255
f 220/878/255 311/817/255 219/816/255
f 311/817/255 220/878/255 252/820/255
f 252/820/255 220/878/255 312/821/255
f 312/821/255 220/878/255 369/879/255
f 369/879/255 300/824/255 312/821/255
f 300/824/255 369/879/255 393/825/255
f 284/826/255 370/880/255 316/833/255
f 394/828/255 370/880/255 284/826/255
f 316/833/255 370/880/255 250/831/255
f 215/881/255 250/831/255 370/880/255
f 250/831/255 215/881/255 317/837/255
f 317/837/255 215/881/255 213/835/255
f 401/205/256 313/205/256 380/205/256
f 313/205/256 401/205/256 314/205/256
f 315/205/257 314/205/257 401/205/257
f 401/205/257 402/205/257 315/205/257
f 405/882/252 223/883/252 222/864/252
f 405/882/252 222/864/252 406/863/252
f 399/884/252 273/885/252 274/865/252
f 399/884/252 274/865/252 400/867/252
f 379/886/252 352/887/252 353/868/252
f 379/886/252 353/868/252 378/869/252
f 403/888/252 257/874/252 256/889/252
f 257/874/252 403/888/252 404/873/252
f 335/872/252 385/890/252 384/870/252
f 385/890/252 335/872/252 334/891/252
f 407/892/252 216/877/252 217/893/252
f 216/877/252 407/892/252 408/876/252
f 277/894/258 278/846/258 294/895/258
f 294/895/258 278/846/258 293/848/258
f 310/896/259 289/855/259 288/897/259
f 289/855/259 310/896/259 309/856/259
f 339/898/7 210/899/7 207/900/7
f 339/898/7 325/901/7 210/899/7
f 392/308/260 36/16/260 391/309/260
f 36/16/260 392/308/260 35/15/260
f 363/612/261 365/27/261 366/29/261
f 365/27/261 363/612/261 362/613/261
f 373/612/7 262/27/7 263/29/7
f 262/27/7 373/612/7 372/613/7
f 331/902/262 343/903/263 344/904/262
f 343/903/263 331/902/262 330/905/263
f 345/906/262 331/902/262 344/904/262
f 332/907/262 331/902/262 345/906/262
f 345/906/262 54/908/262 332/907/262
f 54/908/262 345/906/262 53/909/262
f 391/613/264 33/29/264 392/612/264
f 33/29/264 391/613/264 31/27/264
