# Roblox asset pack: egg_komodo_dragon (props), from the Studio model "KomodoDragon". Exported with Export Selection, split by tools/build_creatures.py: one object per rigid body. Units: studs. +Y up, front faces -Z, pivot (bottom centre) at the origin.
mtllib egg_komodo_dragon.mtl

v -2.96020 3.23000 0.00000
v 2.96020 3.23000 0.00000
v -2.96020 1.08000 0.00000
v 2.96020 1.08000 0.00000
v 2.96020 3.23000 2.15000
v -2.96020 3.23000 2.15000
v 2.96020 1.08000 2.15000
v -2.96020 1.08000 2.15000
v 0.00000 5.38000 -2.96000
v 2.15290 5.38000 -2.96000
v 0.00000 3.23000 -2.96000
v 2.15290 3.23000 -2.96000
v 2.15290 5.38000 2.96000
v 0.00000 5.38000 2.96000
v 2.15290 3.23000 2.96000
v 0.00000 3.23000 2.96000
v -2.96020 5.38000 -2.15000
v 2.96020 5.38000 -2.15000
v -2.96020 3.23000 -2.15000
v 2.96020 3.23000 -2.15000
v 2.96020 5.38000 0.00000
v -2.96020 5.38000 0.00000
v -2.15290 3.23000 -2.96000
v -2.15290 1.08000 -2.96000
v 2.15290 1.08000 -2.96000
v -2.15290 3.23000 2.96000
v 2.15290 1.08000 2.96000
v -2.15290 1.08000 2.96000
v 2.96020 5.38000 2.15000
v -2.96020 5.38000 2.15000
v -1.61470 9.15000 -1.61000
v 1.61470 9.15000 -1.61000
v -1.61470 7.54000 -1.61000
v 1.61470 7.54000 -1.61000
v 1.61470 9.15000 1.61000
v -1.61470 9.15000 1.61000
v 1.61470 7.54000 1.61000
v -1.61470 7.54000 1.61000
v -2.15290 7.54000 -2.15000
v 2.15290 7.54000 -2.15000
v -2.15290 0.00000 -2.15000
v 2.15290 0.00000 -2.15000
v 2.15290 7.54000 2.15000
v -2.15290 7.54000 2.15000
v 2.15290 0.00000 2.15000
v -2.15290 0.00000 2.15000
v -2.15290 5.38000 -2.96000
v -2.15290 5.38000 2.96000
v -2.96020 1.08000 -2.15000
v 2.96020 1.08000 -2.15000
vt 5.49006 0.00000
vt 4.75000 0.00000
vt 5.49006 -0.26911
vt 4.75000 -0.26911
vt 5.01911 0.00000
vt 5.01911 -0.74006
vt 4.75000 -0.74006
vt 5.01911 -0.26911
vt 2.51911 -3.50000
vt 2.25000 -3.50000
vt 2.51911 -3.76911
vt 2.25000 -3.76911
vt 2.99006 -3.50000
vt 2.99006 -3.76911
vt 1.49006 -4.75000
vt 0.75000 -4.75000
vt 1.49006 -5.01911
vt 0.75000 -5.01911
vt 1.01911 -4.75000
vt 1.01911 -5.49006
vt 0.75000 -5.49006
vt 1.01911 -5.01911
vt 6.78822 -6.75000
vt 6.25000 -6.75000
vt 6.78822 -7.01911
vt 6.25000 -7.01911
vt 6.99006 -6.75000
vt 6.99006 -7.28823
vt 6.25000 -7.28823
vt 6.99006 -7.01911
vt 6.49006 0.25000
vt 5.75000 0.25000
vt 6.49006 -0.01911
vt 5.75000 -0.01911
vt 6.01911 0.25000
vt 6.01911 -0.49006
vt 5.75000 -0.49006
vt 6.01911 -0.01911
vt 7.15367 -3.50000
vt 6.75000 -3.50000
vt 7.15367 -3.70183
vt 6.75000 -3.70183
vt 7.15367 -3.90367
vt 6.75000 -3.90367
vt 4.53822 -0.75000
vt 4.00000 -0.75000
vt 4.53822 -1.69189
vt 4.00000 -1.69189
vt 4.53822 -1.28822
vt 4.00000 -1.28822
vt 1.01911 -2.75000
vt 0.75000 -2.75000
vt 1.01911 -3.01911
vt 0.75000 -3.01911
vt 1.49006 -2.75000
vt 1.49006 -3.01911
vt 1.24006 -1.25000
vt 0.50000 -1.25000
vt 1.24006 -1.51911
vt 0.50000 -1.51911
vt 0.76911 -1.25000
vt 0.76911 -1.99006
vt 0.50000 -1.99006
vt 0.76911 -1.51911
vn 0.0000 0.0000 -1.0000
vn 0.0000 1.0000 0.0000
vn 1.0000 0.0000 0.0000
vn 0.0000 0.0000 1.0000
vn 0.0000 -1.0000 0.0000
vn -1.0000 0.0000 0.0000

o egg_komodo_dragon
usemtl c_562424
f 1/1/1 2/2/1 3/3/1
f 3/3/1 2/2/1 4/4/1
f 5/5/2 2/2/2 6/6/2
f 6/6/2 2/2/2 1/7/2
f 2/5/3 5/2/3 4/8/3
f 4/8/3 5/2/3 7/4/3
f 5/1/4 6/2/4 7/3/4
f 7/3/4 6/2/4 8/4/4
f 8/5/5 3/2/5 7/6/5
f 7/6/5 3/2/5 4/7/5
f 6/5/6 1/2/6 8/8/6
f 8/8/6 1/2/6 3/4/6
f 9/9/1 10/10/1 11/11/1
f 11/11/1 10/10/1 12/12/1
f 13/13/2 10/10/2 14/14/2
f 14/14/2 10/10/2 9/12/2
f 10/13/3 13/10/3 12/14/3
f 12/14/3 13/10/3 15/12/3
f 13/9/4 14/10/4 15/11/4
f 15/11/4 14/10/4 16/12/4
f 16/13/5 11/10/5 15/14/5
f 15/14/5 11/10/5 12/12/5
f 14/13/6 9/10/6 16/14/6
f 16/14/6 9/10/6 11/12/6
f 17/15/1 18/16/1 19/17/1
f 19/17/1 18/16/1 20/18/1
f 21/19/2 18/16/2 22/20/2
f 22/20/2 18/16/2 17/21/2
f 18/19/3 21/16/3 20/22/3
f 20/22/3 21/16/3 2/18/3
f 21/15/4 22/16/4 2/17/4
f 2/17/4 22/16/4 1/18/4
f 1/19/5 19/16/5 2/20/5
f 2/20/5 19/16/5 20/21/5
f 22/19/6 17/16/6 1/22/6
f 1/22/6 17/16/6 19/18/6
f 23/23/1 12/24/1 24/25/1
f 24/25/1 12/24/1 25/26/1
f 15/27/2 12/24/2 26/28/2
f 26/28/2 12/24/2 23/29/2
f 12/27/3 15/24/3 25/30/3
f 25/30/3 15/24/3 27/26/3
f 15/23/4 26/24/4 27/25/4
f 27/25/4 26/24/4 28/26/4
f 28/27/5 24/24/5 27/28/5
f 27/28/5 24/24/5 25/29/5
f 26/27/6 23/24/6 28/30/6
f 28/30/6 23/24/6 24/26/6
f 22/31/1 21/32/1 1/33/1
f 1/33/1 21/32/1 2/34/1
f 29/35/2 21/32/2 30/36/2
f 30/36/2 21/32/2 22/37/2
f 21/35/3 29/32/3 2/38/3
f 2/38/3 29/32/3 5/34/3
f 29/31/4 30/32/4 5/33/4
f 5/33/4 30/32/4 6/34/4
f 6/35/5 1/32/5 5/36/5
f 5/36/5 1/32/5 2/37/5
f 30/35/6 22/32/6 6/38/6
f 6/38/6 22/32/6 1/34/6
f 31/39/1 32/40/1 33/41/1
f 33/41/1 32/40/1 34/42/1
f 35/39/2 32/40/2 36/43/2
f 36/43/2 32/40/2 31/44/2
f 32/39/3 35/40/3 34/41/3
f 34/41/3 35/40/3 37/42/3
f 35/39/4 36/40/4 37/41/4
f 37/41/4 36/40/4 38/42/4
f 38/39/5 33/40/5 37/43/5
f 37/43/5 33/40/5 34/44/5
f 36/39/6 31/40/6 38/41/6
f 38/41/6 31/40/6 33/42/6
f 39/45/1 40/46/1 41/47/1
f 41/47/1 40/46/1 42/48/1
f 43/45/2 40/46/2 44/49/2
f 44/49/2 40/46/2 39/50/2
f 40/45/3 43/46/3 42/47/3
f 42/47/3 43/46/3 45/48/3
f 43/45/4 44/46/4 45/47/4
f 45/47/4 44/46/4 46/48/4
f 46/45/5 41/46/5 45/49/5
f 45/49/5 41/46/5 42/50/5
f 44/45/6 39/46/6 46/47/6
f 46/47/6 39/46/6 41/48/6
usemtl c_ff00bf
f 47/51/1 9/52/1 23/53/1
f 23/53/1 9/52/1 11/54/1
f 14/55/2 9/52/2 48/56/2
f 48/56/2 9/52/2 47/54/2
f 9/55/3 14/52/3 11/56/3
f 11/56/3 14/52/3 16/54/3
f 14/51/4 48/52/4 16/53/4
f 16/53/4 48/52/4 26/54/4
f 26/55/5 23/52/5 16/56/5
f 16/56/5 23/52/5 11/54/5
f 48/55/6 47/52/6 26/56/6
f 26/56/6 47/52/6 23/54/6
f 19/57/1 20/58/1 49/59/1
f 49/59/1 20/58/1 50/60/1
f 2/61/2 20/58/2 1/62/2
f 1/62/2 20/58/2 19/63/2
f 20/61/3 2/58/3 50/64/3
f 50/64/3 2/58/3 4/60/3
f 2/57/4 1/58/4 4/59/4
f 4/59/4 1/58/4 3/60/4
f 3/61/5 49/58/5 4/62/5
f 4/62/5 49/58/5 50/63/5
f 1/61/6 19/58/6 3/64/6
f 3/64/6 19/58/6 49/60/6
