# Roblox asset pack: egg_dimetrodon (props), from the Studio model "Dimetrodon". Exported with Export Selection, split by tools/build_creatures.py: one object per rigid body. Units: studs. +Y up, front faces -Z, pivot (bottom centre) at the origin.
mtllib egg_dimetrodon.mtl

v -1.16260 3.49000 -1.16000
v 1.16260 3.49000 -1.16000
v -1.16260 0.00000 -1.16000
v 1.16260 0.00000 -1.16000
v 1.16260 3.49000 1.16000
v -1.16260 3.49000 1.16000
v 1.16260 0.00000 1.16000
v -1.16260 0.00000 1.16000
vt 1.54064 -0.25000
vt 1.25000 -0.25000
vt 1.54064 -0.68596
vt 1.25000 -0.68596
vt 1.54064 -0.54064
vt 1.25000 -0.54064
vn 0.0000 0.0000 -1.0000
vn 0.0000 1.0000 0.0000
vn 1.0000 0.0000 0.0000
vn 0.0000 0.0000 1.0000
vn 0.0000 -1.0000 0.0000
vn -1.0000 0.0000 0.0000

o egg_dimetrodon
usemtl c_aba89e
f 1/1/1 2/2/1 3/3/1
f 3/3/1 2/2/1 4/4/1
f 5/1/2 2/2/2 6/5/2
f 6/5/2 2/2/2 1/6/2
f 2/1/3 5/2/3 4/3/3
f 4/3/3 5/2/3 7/4/3
f 5/1/4 6/2/4 7/3/4
f 7/3/4 6/2/4 8/4/4
f 8/1/5 3/2/5 7/5/5
f 7/5/5 3/2/5 4/6/5
f 6/1/6 1/2/6 8/3/6
f 8/3/6 1/2/6 3/4/6
