# Roblox asset pack: pterodactyl (creatures), from the Studio model "Pterodactyl". Exported with Export Selection, split by tools/build_creatures.py: one object per rigid body. Units: studs. +Y up, front faces -Z, pivot (bottom centre) at the origin.
mtllib pterodactyl.mtl

v 0.02800 1.44000 0.30000
v 0.45400 1.73000 1.91000
v 0.11700 0.91000 0.60000
v 0.37000 2.25000 1.73000
v -2.20600 1.34000 5.22000
v -1.42800 1.65000 3.51000
v -1.54200 1.96000 3.49000
v -2.13400 1.18000 5.21000
v -2.15300 1.12000 5.69000
v -2.06900 0.83000 5.68000
v -2.41600 0.77000 5.33000
v -0.16200 2.12000 1.60000
v -0.55800 1.44000 0.47000
v -2.66800 1.12000 5.34000
v -2.35200 1.28000 5.15000
v -1.79300 1.86000 3.31000
v -1.67900 1.55000 3.32000
v -2.28000 1.12000 5.14000
v -0.46900 0.91000 0.77000
v -0.07800 1.60000 1.78000
v -2.30300 0.41000 5.77000
v -2.24600 0.75000 5.71000
v -2.24600 0.78000 5.84000
v -2.30300 0.41000 5.74000
v -2.20000 1.11000 5.70000
v -2.20000 0.99000 5.50000
v -2.40800 0.99000 5.32000
v -2.34900 0.99000 5.54000
v -2.59700 0.75000 5.41000
v -2.56100 0.75000 5.55000
v -2.61400 0.41000 5.48000
v -2.60700 0.41000 5.50000
v -2.54300 1.11000 5.59000
v -2.60100 1.11000 5.37000
v -2.43500 1.11000 5.70000
v -2.43500 0.99000 5.50000
v -2.38900 0.78000 5.84000
v -2.33200 0.41000 5.77000
v -2.63400 0.41000 5.51000
v -2.69600 0.78000 5.59000
v -2.73200 0.78000 5.45000
v -2.64100 0.41000 5.48000
v -2.38900 0.75000 5.71000
v -2.33200 0.41000 5.74000
v 0.02800 1.14000 0.30000
v 2.29200 1.96000 1.83000
v 3.18500 1.14000 1.04000
v 0.37000 1.96000 1.73000
v -1.54200 1.67000 3.49000
v 1.34700 1.67000 3.49000
v 0.68400 1.17000 5.22000
v -2.20600 1.17000 5.22000
v -0.21200 1.04000 8.67000
v -1.46300 1.04000 8.67000
v -0.42400 1.04000 11.60000
v 4.85200 0.63000 -0.51000
v 4.85200 0.69000 -1.05000
v 4.85200 0.89000 -0.92000
v 4.85200 0.42000 -0.65000
v 4.47500 1.13000 -0.76000
v 4.42000 0.87000 -0.35000
v 4.36700 0.42000 -0.59000
v 4.36700 0.69000 -1.05000
v 5.46300 0.55000 -0.31000
v 5.47500 0.57000 -0.33000
v 5.44600 0.57000 -0.30000
v 5.45700 0.59000 -0.33000
v 5.54500 0.81000 -0.70000
v 5.52600 0.81000 -0.66000
v 5.54500 0.79000 -0.68000
v 5.52600 0.83000 -0.69000
v 5.46200 1.05000 -1.06000
v 5.18600 0.59000 -1.09000
v 5.09800 0.69000 -1.25000
v 5.45000 1.06000 -1.08000
v 5.19900 0.41000 -0.82000
v 5.19900 0.53000 -0.99000
v 4.81700 0.94000 -0.92000
v 4.85200 1.27000 -0.64000
v 4.83500 1.25000 -0.63000
v 4.91500 1.00000 -1.10000
v 4.67400 0.64000 -1.12000
v 4.62900 0.67000 -0.92000
v 4.82900 1.29000 -0.65000
v 4.74900 1.11000 -1.15000
v 4.65100 1.05000 -0.97000
v 5.43300 1.07000 -1.06000
v 5.44500 1.06000 -1.04000
v 5.07400 0.43000 -0.47000
v 4.87700 0.70000 -0.67000
v 4.79500 0.59000 -0.50000
v 5.15500 0.53000 -0.63000
v 5.15000 0.75000 -0.96000
v 4.78800 0.88000 -0.95000
v 4.87500 0.78000 -0.79000
v 5.06200 0.86000 -1.12000
v 5.15900 0.58000 -0.71000
v 4.85700 0.80000 -0.82000
v 4.85700 0.68000 -0.64000
v 5.15900 0.70000 -0.88000
v 5.11000 0.25000 -0.57000
v 4.73300 0.44000 -0.64000
v 4.81200 1.27000 -0.64000
v 4.78900 0.52000 -0.75000
v 4.46300 0.79000 -0.97000
v 4.81400 0.60000 -0.88000
v 4.50800 0.76000 -1.17000
v 4.78900 0.63000 -0.92000
v 4.72600 0.70000 -1.03000
v 4.81400 0.55000 -0.80000
v 5.19100 0.35000 -0.73000
v 4.85200 0.63000 0.51000
v 4.85200 0.69000 1.05000
v 4.85200 0.42000 0.65000
v 4.85200 0.89000 0.92000
v 4.47500 1.13000 0.76000
v 4.42000 0.87000 0.35000
v 4.36700 0.69000 1.05000
v 4.36700 0.42000 0.59000
v 5.46300 0.55000 0.31000
v 5.44600 0.57000 0.30000
v 5.47500 0.57000 0.33000
v 5.45700 0.59000 0.33000
v 5.54500 0.79000 0.68000
v 5.52600 0.81000 0.66000
v 5.54500 0.81000 0.70000
v 5.52600 0.83000 0.69000
v 5.46200 1.05000 1.06000
v 5.09800 0.69000 1.25000
v 5.18600 0.59000 1.09000
v 5.45000 1.06000 1.08000
v 5.19900 0.53000 0.99000
v 5.19900 0.41000 0.82000
v 4.85200 1.27000 0.64000
v 4.81700 0.94000 0.92000
v 4.83500 1.25000 0.63000
v 4.91500 1.00000 1.10000
v 4.67400 0.64000 1.12000
v 4.62900 0.67000 0.92000
v 4.74900 1.11000 1.15000
v 4.82900 1.29000 0.65000
v 4.65100 1.05000 0.97000
v 5.43300 1.07000 1.06000
v 5.44500 1.06000 1.04000
v 5.07400 0.43000 0.47000
v 4.87700 0.70000 0.67000
v 5.15500 0.53000 0.63000
v 4.79500 0.59000 0.50000
v 4.78800 0.88000 0.95000
v 5.15000 0.75000 0.96000
v 4.87500 0.78000 0.79000
v 5.06200 0.86000 1.12000
v 4.85700 0.80000 0.82000
v 5.15900 0.58000 0.71000
v 4.85700 0.68000 0.64000
v 5.15900 0.70000 0.88000
v 4.72600 0.70000 1.03000
v 4.50800 0.76000 1.17000
v 4.78900 0.63000 0.92000
v 5.19100 0.35000 0.73000
v 4.81400 0.55000 0.80000
v 4.46300 0.79000 0.97000
v 4.81200 1.27000 0.64000
v 4.78900 0.52000 0.75000
v 4.81400 0.60000 0.88000
v 4.73300 0.44000 0.64000
v 5.11000 0.25000 0.57000
v 3.16900 1.18000 0.37000
v 3.16900 0.81000 -0.37000
v 3.16900 1.18000 -0.37000
v 3.16900 0.81000 0.37000
v 3.16900 0.44000 -0.37000
v 3.16900 0.44000 0.37000
v -0.85900 1.50000 0.35000
v 0.13800 1.78000 0.81000
v -0.85900 1.50000 -0.35000
v 0.13800 1.78000 -0.81000
v 1.84100 1.62000 -0.81000
v 1.84100 1.62000 0.81000
v 0.13800 0.97000 0.81000
v -0.85900 1.15000 0.35000
v -0.85900 0.79000 0.35000
v 0.13800 0.16000 0.81000
v 1.84100 0.81000 0.81000
v 1.84100 0.00000 0.81000
v -0.85900 0.79000 -0.35000
v 0.13800 0.16000 -0.81000
v 1.84100 0.00000 -0.81000
v 0.13800 0.97000 -0.81000
v -0.85900 1.15000 -0.35000
v 1.84100 0.81000 -0.81000
v -2.22900 2.85000 -0.56000
v -1.48800 2.04000 0.35000
v -1.48800 2.04000 -0.35000
v -2.22900 2.85000 0.56000
v -3.92500 1.99000 0.39000
v -3.92500 1.99000 -0.39000
v -5.54100 1.52000 0.12000
v -5.54100 1.52000 -0.12000
v -2.31900 2.04000 0.56000
v -3.11600 1.83000 0.47000
v -5.54300 1.36000 0.12000
v -1.69600 1.75000 0.35000
v -5.54300 1.36000 -0.12000
v -5.54300 1.33000 -0.18000
v -5.54500 1.24000 0.18000
v -5.54300 1.33000 0.18000
v -5.54500 1.24000 -0.18000
v -2.31900 2.04000 -0.56000
v -1.69600 1.75000 -0.35000
v -3.11600 1.83000 -0.47000
v -4.86800 1.56000 0.23000
v -4.79600 1.39000 0.26000
v -4.86800 1.56000 0.22000
v -4.79600 1.39000 0.19000
v -4.86800 1.56000 -0.22000
v -4.79600 1.39000 -0.19000
v -4.86800 1.56000 -0.23000
v -4.79600 1.39000 -0.26000
v -5.03600 1.60000 0.21000
v -4.96300 1.39000 0.24000
v -5.03600 1.60000 0.20000
v -4.96300 1.39000 0.17000
v -5.03600 1.60000 -0.20000
v -4.96300 1.39000 -0.24000
v -5.03600 1.60000 -0.21000
v -4.96300 1.39000 -0.17000
v -5.17200 1.51000 -0.18000
v -5.10000 1.39000 -0.22000
v -5.17200 1.51000 -0.19000
v -5.10000 1.39000 -0.15000
v -5.17200 1.51000 0.19000
v -5.10000 1.39000 0.22000
v -5.17200 1.51000 0.18000
v -5.10000 1.39000 0.15000
v -5.29700 1.54000 0.17000
v -5.22400 1.33000 0.20000
v -5.29700 1.54000 0.16000
v -5.22400 1.33000 0.13000
v -5.29700 1.54000 -0.16000
v -5.22400 1.33000 -0.13000
v -5.29700 1.54000 -0.17000
v -5.22400 1.33000 -0.20000
v -5.46400 1.54000 -0.14000
v -5.39100 1.33000 -0.11000
v -5.46400 1.54000 -0.15000
v -5.39100 1.33000 -0.18000
v -5.46400 1.54000 0.15000
v -5.39100 1.33000 0.18000
v -5.46400 1.54000 0.14000
v -5.39100 1.33000 0.11000
v -5.47300 1.53000 0.15000
v -5.47300 1.53000 0.14000
v -5.47300 1.53000 -0.14000
v -5.47300 1.53000 -0.15000
v -5.04500 1.59000 0.21000
v -5.04500 1.59000 0.20000
v -5.04500 1.59000 -0.20000
v -5.04500 1.59000 -0.21000
v -5.30600 1.53000 0.17000
v -5.30600 1.53000 0.16000
v -5.30600 1.53000 -0.16000
v -5.30600 1.53000 -0.17000
v -5.18100 1.51000 0.19000
v -5.18100 1.51000 0.18000
v -5.18100 1.51000 -0.18000
v -5.18100 1.51000 -0.19000
v -4.87800 1.56000 0.23000
v -4.87800 1.56000 0.22000
v -4.87800 1.56000 -0.22000
v -4.87800 1.56000 -0.23000
v -4.86800 1.37000 0.26000
v -5.03500 1.37000 0.24000
v -5.17100 1.37000 0.22000
v -5.29600 1.32000 0.20000
v -5.46400 1.32000 0.18000
v -5.46400 1.32000 -0.11000
v -5.29600 1.32000 -0.13000
v -5.17100 1.37000 -0.15000
v -5.03500 1.37000 -0.17000
v -4.86800 1.37000 -0.19000
v -5.46400 1.32000 0.11000
v -5.46400 1.32000 -0.18000
v -5.29600 1.32000 0.13000
v -5.29600 1.32000 -0.20000
v -5.17100 1.37000 -0.22000
v -5.17100 1.37000 0.15000
v -5.03500 1.37000 -0.24000
v -5.03500 1.37000 0.17000
v -4.86800 1.37000 0.19000
v -4.86800 1.37000 -0.26000
v -1.45200 3.31000 0.24000
v -1.33700 2.81000 0.24000
v -1.45200 3.31000 0.00000
v -1.33700 2.81000 0.00000
v -1.33700 2.81000 -0.24000
v -1.45200 3.31000 -0.24000
v -1.69900 2.51000 0.24000
v -1.20400 1.58000 0.24000
v -1.69900 2.51000 0.00000
v -1.20400 1.58000 0.00000
v -1.20400 1.58000 -0.24000
v -1.69900 2.51000 -0.24000
v -3.73200 2.02000 0.24000
v -2.44200 3.14000 0.00000
v -3.73200 2.02000 0.00000
v -2.44200 3.14000 0.24000
v -3.73200 2.02000 -0.24000
v -2.44200 3.14000 -0.24000
v -2.72500 2.55000 0.62000
v -2.68200 2.33000 0.40000
v -2.70700 2.55000 0.40000
v -2.70000 2.33000 0.62000
v -2.72500 2.55000 -0.62000
v -2.70700 2.55000 -0.40000
v -2.68200 2.33000 -0.40000
v -2.70000 2.33000 -0.62000
v -3.05700 2.40000 0.59000
v -3.36900 2.36000 0.35000
v -3.38700 2.36000 0.57000
v -3.03900 2.40000 0.37000
v -3.36900 2.36000 -0.35000
v -3.05700 2.40000 -0.59000
v -3.38700 2.36000 -0.57000
v -3.03900 2.40000 -0.37000
v -3.03100 2.18000 0.60000
v -3.36100 2.14000 0.57000
v -3.01300 2.18000 -0.38000
v -3.34300 2.14000 -0.35000
v -3.34300 2.14000 0.35000
v -3.36100 2.14000 -0.57000
v -3.01300 2.18000 0.38000
v -3.03100 2.18000 -0.60000
v -1.90400 1.47000 0.35000
v -2.41000 1.23000 0.56000
v -3.84200 1.47000 0.39000
v -2.41000 1.23000 -0.56000
v -1.90400 1.47000 -0.35000
v -3.84200 1.47000 -0.39000
v -3.23200 1.92000 0.46000
v -2.84100 1.93000 0.52000
v -2.90900 1.97000 0.51000
v -2.90900 2.27000 0.51000
v -3.24400 1.97000 0.46000
v -3.29600 2.19000 0.46000
v -2.84200 2.28000 0.52000
v -2.70900 2.31000 0.53000
v -2.71000 1.87000 0.53000
v -3.22000 1.87000 0.46000
v -3.23200 1.92000 -0.46000
v -2.90900 1.97000 -0.51000
v -2.84100 1.93000 -0.52000
v -2.90900 2.27000 -0.51000
v -3.24400 1.97000 -0.46000
v -3.29600 2.19000 -0.46000
v -2.84200 2.28000 -0.52000
v -2.70900 2.31000 -0.53000
v -2.71000 1.87000 -0.53000
v -3.22000 1.87000 -0.46000
v 0.02800 1.44000 -0.30000
v 0.45400 1.73000 -1.91000
v 0.37000 2.25000 -1.73000
v 0.11700 0.91000 -0.60000
v -2.20600 1.34000 -5.22000
v -1.54200 1.96000 -3.49000
v -1.42800 1.65000 -3.51000
v -2.13400 1.18000 -5.21000
v -2.15300 1.12000 -5.69000
v -2.06900 0.83000 -5.68000
v -2.41600 0.77000 -5.33000
v -0.16200 2.12000 -1.60000
v -0.55800 1.44000 -0.47000
v -2.66800 1.12000 -5.34000
v -2.35200 1.28000 -5.15000
v -1.79300 1.86000 -3.31000
v -0.46900 0.91000 -0.77000
v -1.67900 1.55000 -3.32000
v -0.07800 1.60000 -1.78000
v -2.28000 1.12000 -5.14000
v 2.29200 1.96000 -1.83000
v 0.02800 1.14000 -0.30000
v 3.18500 1.14000 -1.04000
v 0.37000 1.96000 -1.73000
v 1.34700 1.67000 -3.49000
v -1.54200 1.67000 -3.49000
v 0.68400 1.17000 -5.22000
v -2.20600 1.17000 -5.22000
v -0.21200 1.04000 -8.67000
v -1.46300 1.04000 -8.67000
v -0.42400 1.04000 -11.60000
v -2.24600 0.75000 -5.71000
v -2.20000 1.11000 -5.70000
v -2.20000 0.99000 -5.50000
v -2.24600 0.78000 -5.84000
v -2.30300 0.41000 -5.77000
v -2.30300 0.41000 -5.74000
v -2.40800 0.99000 -5.32000
v -2.59700 0.75000 -5.41000
v -2.34900 0.99000 -5.54000
v -2.56100 0.75000 -5.55000
v -2.61400 0.41000 -5.48000
v -2.60700 0.41000 -5.50000
v -2.54300 1.11000 -5.59000
v -2.60100 1.11000 -5.37000
v -2.43500 0.99000 -5.50000
v -2.43500 1.11000 -5.70000
v -2.64100 0.41000 -5.48000
v -2.73200 0.78000 -5.45000
v -2.38900 0.75000 -5.71000
v -2.33200 0.41000 -5.74000
v -2.69600 0.78000 -5.59000
v -2.63400 0.41000 -5.51000
v -2.33200 0.41000 -5.77000
v -2.38900 0.78000 -5.84000
v 4.53300 1.06000 0.77000
v 4.47000 0.47000 0.59000
v 4.47000 0.85000 0.39000
v 4.53300 0.68000 0.97000
v 2.45100 1.45000 1.09000
v 2.32300 1.03000 0.32000
v 2.00200 1.00000 0.64000
v 2.06600 1.21000 1.03000
v 3.39800 0.90000 0.62000
v 3.46100 1.10000 1.00000
v 2.45100 0.67000 1.52000
v 2.06600 0.82000 1.24000
v 3.46100 0.72000 1.21000
v 2.00200 0.61000 0.85000
v 2.32300 0.25000 0.74000
v 3.39800 0.52000 0.83000
v 4.47000 0.85000 -0.39000
v 4.47000 0.47000 -0.59000
v 4.53300 1.06000 -0.77000
v 4.53300 0.68000 -0.97000
v 2.45100 1.45000 -1.09000
v 2.00200 1.00000 -0.64000
v 2.32300 1.03000 -0.32000
v 2.06600 1.21000 -1.03000
v 3.39800 0.90000 -0.62000
v 3.46100 1.10000 -1.00000
v 2.00200 0.61000 -0.85000
v 2.32300 0.25000 -0.74000
v 3.39800 0.52000 -0.83000
v 2.06600 0.82000 -1.24000
v 2.45100 0.67000 -1.52000
v 3.46100 0.72000 -1.21000
vt 52.33730 -49.00900
vt 52.13560 -48.97300
vt 52.30010 -49.07500
vt 52.15800 -48.90710
vt 51.72190 -49.02170
vt 51.93620 -48.98200
vt 51.93820 -48.94350
vt 51.72390 -49.04120
vt 51.66270 -49.04930
vt 51.66420 -49.08530
vt 51.70840 -49.09290
vt 51.81540 -49.15800
vt 51.85810 -49.33730
vt 51.88190 -49.17440
vt 51.93140 -49.31530
vt 52.19510 -48.70680
vt 52.13730 -48.72190
vt 52.15560 -48.73040
vt 52.13080 -48.66270
vt 52.05440 -48.93820
vt 52.08580 -48.96130
vt 51.80490 -49.04870
vt 51.83640 -49.09290
vt 51.86920 -49.04930
vt 51.87970 -49.08530
vt 52.18460 -48.90710
vt 51.95990 -48.98200
vt 52.19510 -48.97300
vt 51.94560 -48.94350
vt 52.04060 -48.99480
vt 52.26960 -49.02930
vt 52.03870 -48.95640
vt 52.26760 -49.04880
vt 51.72190 -49.07500
vt 51.84800 -48.98920
vt 51.68470 -49.00900
vt 51.82560 -48.92340
vt 51.95990 -48.93620
vt 52.12870 -49.15200
vt 52.19510 -49.13560
vt 51.92850 -48.95940
vt 51.85330 -48.73240
vt 51.87160 -48.72390
vt 52.15310 -49.30010
vt 52.07970 -49.27810
vt 51.85810 -49.00900
vt 51.92030 -49.07500
vt 51.93140 -49.00900
vt 51.84690 -49.07500
vt 51.87130 -48.98920
vt 52.07150 -48.99480
vt 51.88190 -48.92340
vt 52.08580 -48.95640
vt 52.19510 -49.04870
vt 52.14670 -49.04880
vt 52.16360 -49.09290
vt 52.15560 -49.02930
vt 52.12840 -49.04120
vt 31.97690 -61.04410
vt 31.98450 -61.00160
vt 31.96710 -60.99730
vt 31.98040 -61.04390
vt 31.98540 -60.95590
vt 32.01030 -60.97130
vt 32.03290 -60.97130
vt 32.00450 -60.97130
vt 32.02100 -61.00160
vt 32.00360 -61.00160
vt 32.01300 -61.04390
vt 32.00960 -61.04390
vt 31.99270 -61.03290
vt 32.00960 -60.99830
vt 31.98540 -61.00450
vt 32.01690 -61.02670
vt 31.99610 -60.98540
vt 31.96680 -60.98540
vt 31.96680 -61.01030
vt 31.99610 -61.01030
vt 32.03320 -60.95590
vt 32.00390 -60.95590
vt 32.02750 -60.99730
vt 32.00960 -60.99730
vt 32.02030 -61.04410
vt 32.01680 -61.04410
vt 31.97900 -61.04410
vt 31.98810 -61.00160
vt 31.97120 -60.99730
vt 31.98240 -61.04390
vt 31.99040 -60.95590
vt 32.01460 -60.97130
vt 32.00170 -60.95590
vt 31.98340 -60.99730
vt 32.00080 -60.99730
vt 31.97330 -60.95590
vt 31.99130 -61.04410
vt 31.98790 -61.04410
vt 32.01460 -60.95590
vt 32.01550 -61.00160
vt 32.03290 -60.99730
vt 31.98970 -60.97130
vt 32.02310 -61.04410
vt 32.01960 -61.04390
vt 31.98150 -61.01300
vt 31.97900 -61.00870
vt 31.97810 -61.01210
vt 31.98240 -61.00960
vt 32.01680 -60.98040
vt 32.02030 -60.98040
vt 32.02030 -60.97690
vt 32.01680 -60.97690
vt 32.01690 -60.95590
vt 32.01640 -61.00160
vt 32.03320 -60.99730
vt 31.99270 -60.97130
vt 32.02190 -61.04410
vt 32.01850 -61.04390
vt 31.99610 -60.97130
vt 31.96680 -60.97130
vt 31.99040 -61.00160
vt 31.97250 -61.00160
vt 31.98320 -61.04390
vt 31.97970 -61.04390
vt 2.05767 -51.70620
vt 1.77473 -51.51410
vt 1.66308 -51.61390
vt 2.01498 -51.52690
vt 2.25395 -51.30700
vt 1.89278 -51.30700
vt 1.97575 -51.09080
vt 2.33692 -51.09080
vt 2.08774 -50.65960
vt 2.24402 -50.65960
vt 2.11425 -50.29380
vt -0.02392 -53.01870
vt 0.04366 -53.01140
vt 0.02672 -52.98550
vt -0.00698 -53.04460
vt -0.03028 -52.97610
vt 0.01688 -53.00700
vt 0.02376 -52.95630
vt -0.03028 -53.02670
vt 0.03028 -53.01870
vt -0.02376 -52.98860
vt -0.03028 -53.04460
vt 0.03028 -53.04460
vt 0.04366 -52.98860
vt -0.04366 -53.01140
vt 0.01372 -53.04460
vt -0.00698 -52.95540
vt -0.03028 -53.04370
vt 0.03028 -52.99300
vt -0.03028 -52.98630
vt 0.03028 -53.04370
vt -0.03028 -52.98550
vt 0.03028 -53.01140
vt 0.01688 -52.95540
vt -0.03028 -53.01140
vt 37.94180 -41.02700
vt 37.94460 -41.02520
vt 37.94100 -41.02420
vt 37.94380 -41.02240
vt 37.99060 -40.99500
vt 37.98610 -40.99470
vt 37.98760 -40.99700
vt 37.98910 -40.99270
vt 38.03570 -40.96550
vt 38.03920 -41.02250
vt 38.05900 -41.00950
vt 38.03840 -40.96370
vt 38.00540 -41.04460
vt 38.02720 -41.03030
vt 38.01850 -40.97920
vt 37.98350 -40.93710
vt 37.98180 -40.93940
vt 38.04020 -40.97150
vt 38.04280 -41.01560
vt 38.01760 -41.01230
vt 38.02180 -40.98440
vt 38.03180 -41.04670
vt 38.04410 -41.02500
vt 37.94640 -41.03610
vt 37.94280 -41.03570
vt 37.94430 -41.03840
vt 37.94490 -41.03330
vt 38.01110 -41.04020
vt 38.01900 -40.98350
vt 37.99130 -40.96200
vt 38.01590 -40.98630
vt 38.02610 -40.96620
vt 37.98110 -40.98210
vt 37.98170 -41.02340
vt 38.02700 -41.02180
vt 38.01610 -41.00200
vt 37.99270 -41.04320
vt 37.98050 -40.99130
vt 38.01840 -41.00510
vt 38.01840 -40.98320
vt 37.98050 -41.01320
vt 37.93480 -40.98610
vt 37.93480 -40.98910
vt 37.94330 -40.94380
vt 37.94470 -40.94100
vt 38.00870 -41.04240
vt 38.05740 -41.02700
vt 38.05530 -41.02420
vt 38.01320 -41.06490
vt 37.96610 -41.04080
vt 37.97390 -41.02190
vt 37.98100 -40.93710
vt 37.97820 -40.93510
vt 37.97890 -40.93940
vt 37.97600 -40.93740
vt 38.01950 -41.02320
vt 38.06760 -40.99700
vt 38.06520 -40.99470
vt 38.02440 -41.04460
vt 37.98160 -41.01080
vt 37.97320 -41.03150
vt 37.95310 -41.01230
vt 37.97660 -40.97920
vt 37.95590 -40.96470
vt 37.93240 -40.99780
vt 38.05720 -40.96550
vt 38.01830 -41.00220
vt 38.02270 -41.02250
vt 38.05510 -40.96370
vt 37.98390 -40.99850
vt 37.97620 -41.02110
vt 38.05360 -40.96190
vt 38.00730 -40.98920
vt 37.97500 -40.96470
vt 37.95070 -41.00110
vt 37.97590 -40.99780
vt 37.95330 -40.95690
vt 38.01560 -40.93510
vt 38.01730 -40.93740
vt 38.01680 -41.01080
vt 37.99490 -40.99650
vt 38.00320 -41.03150
vt 37.98140 -41.01720
vt 37.99800 -40.99850
vt 37.96760 -41.00810
vt 37.98740 -41.02110
vt 37.97820 -40.98550
vt 38.03380 -41.02190
vt 38.01370 -41.00880
vt 38.01750 -41.04080
vt 37.99740 -41.02760
vt 38.01320 -40.97440
vt 38.05880 -40.94460
vt 38.05740 -40.94180
vt 38.02340 -40.99450
vt 37.95870 -41.04280
vt 37.95310 -41.01760
vt 37.93240 -41.02410
vt 37.93800 -41.04930
vt 37.97320 -41.01860
vt 38.02440 -41.02720
vt 38.02440 -41.00540
vt 37.97320 -40.99680
vt 37.96530 -41.03240
vt 38.02270 -41.03920
vt 37.97620 -41.01260
vt 38.01180 -41.05900
vt 37.97630 -41.00260
vt 37.96610 -40.98250
vt 37.99270 -40.98920
vt 37.94430 -40.96370
vt 37.98820 -41.00950
vt 37.94640 -40.96190
vt 38.03470 -41.00810
vt 38.02700 -40.98550
vt 38.06200 -41.00110
vt 38.01110 -40.97150
vt 38.04130 -41.01560
vt 38.03180 -40.95690
vt 37.98050 -41.00890
vt 37.93240 -40.99500
vt 37.97560 -41.03030
vt 37.93480 -40.99270
vt 38.02680 -41.01720
vt 38.01840 -40.99650
vt 37.97660 -41.05170
vt 37.94330 -41.02240
vt 37.94120 -41.02520
vt 37.98110 -41.02920
vt 38.02370 -41.02760
vt 38.01590 -41.00880
vt 40.02390 -31.01870
vt 39.95630 -31.01140
vt 40.00700 -31.04460
vt 39.97330 -30.98550
vt 39.96970 -30.97330
vt 39.96970 -31.02390
vt 40.01690 -30.99300
vt 40.02380 -31.04370
vt 40.03030 -30.98550
vt 39.96970 -31.01140
vt 40.03030 -31.01140
vt 39.98310 -30.95540
vt 39.95630 -30.98860
vt 39.98630 -31.04460
vt 40.04370 -31.01140
vt 40.00700 -30.95540
vt 40.03030 -31.00700
vt 39.96970 -30.95630
vt 39.96970 -31.01370
vt 40.03030 -30.95630
vt 39.96970 -31.01870
vt 40.03030 -31.04460
vt 40.02380 -30.98860
vt 39.96970 -31.04460
vt 54.05820 -47.02700
vt 54.05900 -47.02420
vt 54.05540 -47.02520
vt 54.05620 -47.02240
vt 54.01240 -46.99700
vt 54.01390 -46.99470
vt 54.00940 -46.99500
vt 54.01090 -46.99270
vt 53.96430 -46.96550
vt 53.94100 -47.00950
vt 53.96080 -47.02250
vt 53.96160 -46.96370
vt 53.97280 -47.03030
vt 53.99460 -47.04460
vt 54.01650 -46.93710
vt 53.98150 -46.97920
vt 54.01820 -46.93940
vt 53.95980 -46.97150
vt 53.95720 -47.01560
vt 53.98240 -47.01230
vt 54.03180 -46.95330
vt 54.02180 -47.01560
vt 54.04410 -46.97500
vt 53.94640 -46.96390
vt 53.94280 -46.96430
vt 53.94490 -46.96670
vt 53.94430 -46.96160
vt 54.01110 -46.95980
vt 54.01900 -47.01650
vt 53.99130 -47.03800
vt 54.01590 -47.01370
vt 53.98110 -47.01790
vt 54.02610 -47.03380
vt 54.02700 -46.97820
vt 53.98170 -46.97660
vt 54.01610 -46.99800
vt 53.99270 -46.95680
vt 54.01840 -46.99490
vt 53.98050 -47.00870
vt 54.01840 -47.01680
vt 53.98050 -46.98680
vt 53.93480 -47.01390
vt 53.93480 -47.01090
vt 53.94470 -47.05900
vt 53.94330 -47.05620
vt 54.01180 -47.00950
vt 54.05570 -46.96370
vt 54.00730 -46.98920
vt 54.05360 -46.96190
vt 53.96530 -47.00810
vt 53.97300 -46.98550
vt 53.96820 -46.95690
vt 53.93800 -47.00110
vt 53.98890 -46.97150
vt 53.95870 -47.01560
vt 54.02440 -47.03030
vt 54.06760 -46.99500
vt 54.01950 -47.00890
vt 54.06520 -46.99270
vt 53.97320 -47.01720
vt 53.98160 -46.99650
vt 54.02340 -47.05170
vt 54.05670 -47.02240
vt 54.01890 -47.02920
vt 54.05880 -47.02520
vt 53.97630 -47.02760
vt 53.98410 -47.00880
vt 54.02500 -46.96470
vt 54.04930 -47.00110
vt 54.04670 -46.95690
vt 54.02410 -46.99780
vt 53.98440 -46.93510
vt 53.98270 -46.93740
vt 53.98320 -47.01080
vt 53.99680 -47.03150
vt 54.00510 -46.99650
vt 54.01860 -47.01720
vt 54.00200 -46.99850
vt 54.03240 -47.00810
vt 54.02180 -46.98550
vt 54.01260 -47.02110
vt 53.96620 -47.02200
vt 53.98250 -47.04080
vt 53.98630 -47.00880
vt 54.00260 -47.02760
vt 54.01320 -47.02560
vt 54.05880 -47.05540
vt 54.02340 -47.00550
vt 54.05740 -47.05820
vt 53.95870 -46.95720
vt 53.93240 -46.97590
vt 53.95310 -46.98240
vt 53.93800 -46.95070
vt 54.02440 -46.97280
vt 53.97320 -46.98140
vt 54.02440 -46.99460
vt 53.97320 -47.00320
vt 54.01180 -46.94100
vt 53.96530 -46.96760
vt 54.02270 -46.96080
vt 53.97620 -46.98740
vt 53.96610 -47.01750
vt 53.97630 -46.99740
vt 53.99130 -47.04240
vt 53.94260 -47.02700
vt 53.98680 -47.06490
vt 53.94470 -47.02420
vt 54.03390 -47.04080
vt 54.02610 -47.02200
vt 54.01900 -46.93710
vt 54.02110 -46.93940
vt 54.02180 -46.93510
vt 54.02400 -46.93740
vt 53.98050 -47.02320
vt 53.93240 -46.99700
vt 53.97560 -47.04460
vt 53.93480 -46.99470
vt 54.02680 -47.03150
vt 54.01840 -47.01080
vt 54.04690 -47.01230
vt 54.04410 -46.96470
vt 54.02340 -46.97920
vt 54.06760 -46.99780
vt 53.94280 -46.96550
vt 53.98170 -47.00220
vt 53.94490 -46.96370
vt 53.97730 -47.02250
vt 54.02380 -47.02110
vt 54.01610 -46.99850
vt 53.99270 -46.98920
vt 53.94640 -46.96190
vt 29.95370 -10.96370
vt 30.04630 -11.00990
vt 30.04630 -10.96370
vt 29.95370 -11.00990
vt 30.04630 -11.05620
vt 29.95370 -11.05620
vt 30.25170 -10.95580
vt 30.12710 -10.89890
vt 30.25170 -11.04420
vt 30.12710 -11.10110
vt 29.74830 -10.95370
vt 29.91420 -11.10110
vt 29.91420 -10.89890
vt 29.74830 -11.04630
vt 29.74830 -10.92330
vt 29.87290 -10.99010
vt 29.87290 -10.88890
vt 29.74830 -10.96750
vt 29.74830 -11.01180
vt 29.87290 -11.09120
vt 30.08580 -10.90880
vt 30.08580 -11.00990
vt 30.25170 -10.96370
vt 30.25170 -11.00990
vt 30.08580 -11.11110
vt 30.25170 -11.05620
vt 29.74830 -11.04420
vt 29.87290 -10.89890
vt 29.74830 -10.95580
vt 29.87290 -11.10110
vt 30.25170 -11.04630
vt 30.08580 -10.89890
vt 30.08580 -11.10110
vt 30.25170 -10.95370
vt 30.12710 -11.09120
vt 30.25170 -11.01180
vt 30.12710 -10.99010
vt 30.25170 -10.96750
vt 30.25170 -10.92330
vt 30.12710 -10.88890
vt 29.91420 -10.90880
vt 29.91420 -11.00990
vt 29.74830 -10.96370
vt 29.74830 -11.00990
vt 29.91420 -11.11110
vt 29.74830 -11.05620
vt 60.07040 -12.87180
vt 59.95570 -12.97260
vt 60.04420 -12.97260
vt 59.92960 -12.87180
vt 59.78570 -12.95570
vt 59.70720 -12.95580
vt 59.78570 -13.04420
vt 59.70720 -13.04420
vt 59.87840 -13.07040
vt 60.09040 -12.95180
vt 59.87840 -12.92960
vt 60.09040 -13.04820
vt 60.29240 -12.98510
vt 60.29240 -13.01490
vt 60.11030 -12.97270
vt 60.21430 -12.97260
vt 60.12160 -12.87180
vt 60.01070 -12.99870
vt 59.90960 -12.97860
vt 59.70740 -13.05740
vt 59.70760 -13.03790
vt 60.29280 -13.03970
vt 60.18820 -13.00840
vt 60.29280 -13.08390
vt 60.29280 -13.12820
vt 59.98510 -13.03790
vt 60.01490 -13.05740
vt 60.01490 -13.03790
vt 59.98510 -13.05740
vt 59.97690 -13.06150
vt 60.02310 -13.07190
vt 60.02310 -13.06150
vt 59.97690 -13.07190
vt 59.88970 -12.97270
vt 59.78570 -12.97260
vt 59.81180 -13.00840
vt 59.70720 -13.03970
vt 59.87840 -12.87180
vt 60.09040 -12.97860
vt 59.98930 -12.99870
vt 60.29260 -13.05740
vt 60.29240 -13.03790
vt 59.70720 -13.08390
vt 59.70720 -13.12820
vt 51.97160 -10.98700
vt 51.96760 -11.00820
vt 51.97280 -10.98700
vt 51.97680 -11.00820
vt 52.02720 -10.98700
vt 52.02320 -11.00820
vt 52.02840 -10.98700
vt 52.03240 -11.00820
vt 51.97390 -10.98240
vt 51.96990 -11.00830
vt 51.97510 -10.98240
vt 51.97910 -11.00830
vt 52.02490 -10.98240
vt 52.03010 -11.00830
vt 52.02610 -10.98240
vt 52.02090 -11.00830
vt 52.02250 -10.99300
vt 52.02770 -11.00780
vt 52.02370 -10.99300
vt 52.01850 -11.00780
vt 51.97630 -10.99300
vt 51.97230 -11.00780
vt 51.97750 -10.99300
vt 51.98150 -11.00780
vt 51.97880 -10.98990
vt 51.97480 -11.01580
vt 51.98000 -10.98990
vt 51.98400 -11.01580
vt 52.02000 -10.98990
vt 52.01600 -11.01580
vt 52.02120 -10.98990
vt 52.02520 -11.01580
vt 52.01770 -10.98990
vt 52.01370 -11.01580
vt 52.01890 -10.98990
vt 52.02290 -11.01580
vt 51.98110 -10.98990
vt 51.97710 -11.01580
vt 51.98230 -10.98990
vt 51.98630 -11.01580
vt 52.04230 -10.98110
vt 52.04120 -10.98110
vt 52.04230 -10.98230
vt 52.04120 -10.98230
vt 52.04230 -11.01770
vt 52.04120 -11.01770
vt 52.04230 -11.01890
vt 52.04120 -11.01890
vt 51.98880 -10.97390
vt 51.98760 -10.97390
vt 51.98880 -10.97510
vt 51.98760 -10.97510
vt 51.98880 -11.02490
vt 51.98760 -11.02490
vt 51.98880 -11.02610
vt 51.98760 -11.02610
vt 52.02140 -10.97880
vt 52.02030 -10.97880
vt 52.02140 -10.98000
vt 52.02030 -10.98000
vt 52.02140 -11.02000
vt 52.02030 -11.02000
vt 52.02140 -11.02120
vt 52.02030 -11.02120
vt 52.00590 -10.97630
vt 52.00470 -10.97630
vt 52.00590 -10.97750
vt 52.00470 -10.97750
vt 52.00590 -11.02250
vt 52.00470 -11.02250
vt 52.00590 -11.02370
vt 52.00470 -11.02370
vt 51.96790 -10.97160
vt 51.96670 -10.97160
vt 51.96790 -10.97280
vt 51.96670 -10.97280
vt 51.96790 -11.02720
vt 51.96670 -11.02720
vt 51.96790 -11.02840
vt 51.96670 -11.02840
vt 52.04230 -11.00820
vt 52.03330 -10.98700
vt 52.03330 -11.01030
vt 52.03210 -10.98730
vt 52.01120 -10.98270
vt 52.02150 -11.00830
vt 52.01240 -10.98240
vt 52.01240 -11.01010
vt 51.99410 -10.99330
vt 52.00430 -11.00780
vt 51.99530 -10.99300
vt 51.99550 -11.01060
vt 51.98890 -11.01580
vt 51.97860 -10.99010
vt 51.97980 -11.01760
vt 51.97970 -10.98990
vt 51.95770 -10.99010
vt 51.96790 -11.01580
vt 51.95880 -10.98990
vt 51.95890 -11.01760
vt 52.01770 -10.99010
vt 52.01370 -11.01760
vt 52.01890 -10.99010
vt 52.02290 -11.01760
vt 51.98110 -10.99010
vt 51.97710 -11.01760
vt 51.98230 -10.99010
vt 51.98630 -11.01760
vt 52.02000 -10.99010
vt 52.01600 -11.01760
vt 52.02120 -10.99010
vt 52.02520 -11.01760
vt 51.97880 -10.99010
vt 51.97480 -11.01760
vt 51.98000 -10.99010
vt 51.98400 -11.01760
vt 51.97630 -10.99330
vt 51.97230 -11.01060
vt 51.97750 -10.99330
vt 51.98150 -11.01060
vt 52.02250 -10.99330
vt 52.02770 -11.01060
vt 52.02370 -10.99330
vt 52.01850 -11.01060
vt 51.97390 -10.98270
vt 51.96990 -11.01010
vt 51.97510 -10.98270
vt 51.97910 -11.01010
vt 52.02490 -10.98270
vt 52.03010 -11.01010
vt 52.02610 -10.98270
vt 52.02090 -11.01010
vt 52.02720 -10.98730
vt 52.02320 -11.01030
vt 52.02840 -10.98730
vt 52.03240 -11.01030
vt 51.97160 -10.98730
vt 51.96760 -11.01030
vt 51.97280 -10.98730
vt 51.97680 -11.01030
vt 52.04230 -10.97680
vt 52.03330 -10.96760
vt 52.03330 -10.97680
vt 52.04230 -10.96760
vt 52.04230 -11.03240
vt 52.03330 -11.02320
vt 52.03330 -11.03240
vt 52.04230 -11.02320
vt 51.98890 -10.98400
vt 51.97980 -10.97480
vt 51.97980 -10.98400
vt 51.98890 -10.97480
vt 51.98890 -11.02520
vt 51.97980 -11.01600
vt 51.97980 -11.02520
vt 51.98890 -11.01600
vt 52.02150 -10.97910
vt 52.01240 -10.96990
vt 52.01240 -10.97910
vt 52.02150 -10.96990
vt 52.02150 -11.03010
vt 52.01240 -11.02090
vt 52.01240 -11.03010
vt 52.02150 -11.02090
vt 51.96790 -10.98630
vt 51.95890 -10.97710
vt 51.95890 -10.98630
vt 51.96790 -10.97710
vt 51.96790 -11.02290
vt 51.95890 -11.01370
vt 51.95890 -11.02290
vt 51.96790 -11.01370
vt 52.00430 -10.98150
vt 51.99550 -10.97230
vt 51.99550 -10.98150
vt 52.00430 -10.97230
vt 52.00430 -11.02770
vt 51.99550 -11.01850
vt 51.99550 -11.02770
vt 52.00430 -11.01850
vt 51.96670 -10.98700
vt 51.96670 -11.01030
vt 51.96790 -10.98730
vt 51.95770 -11.00820
vt 51.98760 -10.98240
vt 51.97850 -11.00830
vt 51.98880 -10.98270
vt 51.98760 -11.01010
vt 51.99570 -11.00780
vt 52.00590 -10.99330
vt 52.00470 -10.99300
vt 52.00450 -11.01060
vt 52.02030 -10.98990
vt 52.01110 -11.01580
vt 52.02140 -10.99010
vt 52.02020 -11.01760
vt 52.04120 -10.98990
vt 52.03210 -11.01580
vt 52.04230 -10.99010
vt 52.04110 -11.01760
vt 57.97010 -26.89170
vt 57.97010 -26.95360
vt 58.00000 -26.89170
vt 58.00000 -26.95360
vt 58.02990 -26.95360
vt 58.02990 -26.89170
vt 57.97010 -26.99120
vt 57.97010 -27.10830
vt 58.00000 -26.99120
vt 58.00000 -27.10830
vt 58.02990 -27.10830
vt 58.02990 -26.99120
vt 58.15800 -26.97010
vt 57.99670 -27.00000
vt 58.15800 -27.00000
vt 57.99670 -26.97010
vt 58.15800 -27.02990
vt 57.99670 -27.02990
vt 57.87290 -27.00000
vt 57.87290 -26.97010
vt 57.87290 -27.02990
vt 58.12710 -26.89170
vt 58.09610 -26.99120
vt 58.14140 -26.95360
vt 58.00330 -26.91270
vt 57.84200 -27.05300
vt 58.15800 -27.10830
vt 57.84200 -27.00000
vt 57.84200 -26.97010
vt 57.84200 -27.02990
vt 58.09610 -27.00000
vt 58.14140 -27.00000
vt 58.09610 -26.97010
vt 58.14140 -26.97010
vt 58.09610 -27.02990
vt 58.14140 -27.02990
vt 57.85860 -26.95360
vt 57.90390 -26.99120
vt 57.87290 -26.89170
vt 57.99670 -26.91270
vt 58.15800 -27.05300
vt 57.84200 -27.10830
vt 17.92240 -26.97430
vt 17.94970 -27.00190
vt 17.95000 -26.97430
vt 17.92210 -27.00190
vt 18.07760 -26.97430
vt 18.05000 -26.97430
vt 18.05030 -27.00190
vt 18.07790 -27.00190
vt 18.00280 -26.92570
vt 18.04180 -26.95670
vt 18.04400 -26.92910
vt 18.00050 -26.95340
vt 18.04180 -27.04330
vt 18.00280 -27.07430
vt 18.04400 -27.07090
vt 18.00050 -27.04660
vt 17.96140 -26.92240
vt 17.95910 -26.95000
vt 17.96140 -27.07760
vt 17.95910 -27.05000
vt 17.95600 -26.99810
vt 18.00040 -27.02040
vt 17.99720 -26.99290
vt 17.95910 -27.02570
vt 18.04180 -27.00190
vt 18.03860 -26.97430
vt 17.99950 -26.99290
vt 18.04400 -27.00190
vt 18.04090 -26.97430
vt 18.00260 -27.02040
vt 17.95820 -26.99810
vt 17.96140 -27.02570
vt 18.07090 -26.99810
vt 18.04350 -27.02570
vt 18.07120 -27.02570
vt 18.04330 -26.99810
vt 17.92910 -26.99810
vt 17.95650 -27.02570
vt 17.95670 -26.99810
vt 17.92880 -27.02570
vt 18.00260 -26.95310
vt 18.04400 -26.94970
vt 18.04180 -26.92210
vt 18.00040 -26.92550
vt 18.00040 -27.07450
vt 18.04180 -27.07790
vt 18.00260 -27.04690
vt 18.04400 -27.05030
vt 17.96140 -26.95650
vt 17.95910 -26.92880
vt 17.95910 -27.07120
vt 17.96140 -27.04350
vt 18.04400 -26.99810
vt 18.00280 -26.99290
vt 17.99960 -27.02040
vt 18.04090 -27.02570
vt 17.95820 -27.00190
vt 17.96140 -26.97430
vt 18.00050 -26.99290
vt 17.95600 -27.00190
vt 17.99740 -27.02040
vt 17.95910 -26.97430
vt 18.04180 -26.99810
vt 18.03860 -27.02570
vt 44.18820 -42.95790
vt 44.11030 -42.92230
vt 44.16220 -42.99370
vt 44.09900 -43.02320
vt 43.70720 -43.02150
vt 43.92000 -42.99330
vt 43.70740 -43.01100
vt 44.01070 -42.94820
vt 44.29280 -43.07770
vt 44.09900 -42.92960
vt 44.09900 -43.07040
vt 44.16220 -43.04420
vt 44.16220 -42.95580
vt 43.92000 -42.95180
vt 43.92000 -43.04820
vt 43.70720 -42.97690
vt 43.70720 -43.02310
vt 44.29280 -42.95580
vt 44.29280 -43.04420
vt 43.88970 -42.92230
vt 43.83780 -42.99370
vt 43.90100 -43.02320
vt 43.81180 -42.95790
vt 43.98930 -42.94820
vt 44.08000 -42.99330
vt 44.29260 -43.01100
vt 44.29280 -43.02150
vt 43.70720 -43.07770
vt 25.97130 -3.02112
vt 26.02020 -3.02047
vt 26.01170 -3.01452
vt 26.01170 -2.97750
vt 25.96980 -3.01519
vt 25.96330 -2.98713
vt 26.02000 -2.97571
vt 26.03670 -2.97213
vt 26.03650 -3.02787
vt 25.97280 -3.02755
vt 26.02870 -3.02112
vt 25.98830 -3.01452
vt 25.97980 -3.02047
vt 25.98830 -2.97750
vt 26.03020 -3.01519
vt 26.03670 -2.98713
vt 25.98000 -2.97571
vt 25.96330 -2.97213
vt 25.96350 -3.02787
vt 26.02720 -3.02754
vt 46.15170 -58.97690
vt 45.84830 -59.05860
vt 46.15170 -59.02310
vt 45.84830 -58.94140
vt 46.15170 -59.05860
vt 45.84830 -58.98510
vt 45.84830 -59.01490
vt 46.15170 -58.94140
vt 23.66270 -43.00900
vt 23.86440 -42.97300
vt 23.84200 -42.90710
vt 23.69990 -43.07500
vt 24.27810 -43.02170
vt 24.06180 -42.94350
vt 24.06370 -42.98200
vt 24.27610 -43.04120
vt 24.33730 -43.04930
vt 24.33580 -43.08530
vt 24.29160 -43.09290
vt 23.88190 -42.82560
vt 23.93140 -42.68470
vt 23.85810 -42.66270
vt 23.81540 -42.84200
vt 24.13080 -43.33730
vt 24.19510 -43.29320
vt 24.13730 -43.27810
vt 24.15560 -43.26960
vt 24.08580 -43.03870
vt 24.05440 -43.06180
vt 24.14190 -43.00900
vt 24.07970 -43.07500
vt 24.15310 -43.07500
vt 24.06860 -43.00900
vt 23.92850 -42.99480
vt 24.11810 -42.92340
vt 23.91420 -42.95640
vt 24.12870 -42.98920
vt 23.80490 -43.04870
vt 23.85330 -43.04880
vt 23.84440 -43.02930
vt 23.83640 -43.09290
vt 23.87160 -43.04120
vt 23.73040 -43.02930
vt 23.95940 -42.99480
vt 23.96130 -42.95640
vt 23.73240 -43.04880
vt 24.15200 -42.98920
vt 24.27810 -43.07500
vt 24.31530 -43.00900
vt 24.17440 -42.92340
vt 23.95990 -43.06380
vt 24.19510 -42.86440
vt 24.12870 -42.84800
vt 23.92850 -43.04060
vt 23.85330 -43.26760
vt 23.87160 -43.27610
vt 24.15310 -42.69990
vt 24.07970 -42.72190
vt 24.19510 -43.04870
vt 24.13080 -43.04930
vt 24.16360 -43.09290
vt 24.12030 -43.08530
vt 23.81540 -42.90710
vt 24.04010 -42.98200
vt 24.05440 -42.94350
vt 23.80490 -42.97300
vt 57.77470 -12.48590
vt 58.05770 -12.29380
vt 57.66310 -12.38610
vt 58.01500 -12.47310
vt 57.89280 -12.69300
vt 58.25400 -12.69300
vt 57.97570 -12.90920
vt 58.33690 -12.90920
vt 58.08770 -13.34040
vt 58.24400 -13.34040
vt 58.11430 -13.70620
vt 12.01550 -27.00160
vt 12.01460 -26.95590
vt 11.98970 -26.97130
vt 12.03290 -26.99730
vt 12.02310 -27.04410
vt 12.01960 -27.04390
vt 11.96710 -26.97130
vt 11.97900 -27.00160
vt 11.99550 -26.97130
vt 11.99640 -27.00160
vt 11.98700 -27.04390
vt 11.99040 -27.04390
vt 11.99270 -26.96710
vt 12.00960 -27.00170
vt 12.01690 -26.97330
vt 11.98540 -26.99550
vt 11.99610 -26.98970
vt 11.96680 -26.98970
vt 11.99610 -27.01460
vt 11.96680 -27.01460
vt 11.97810 -27.04410
vt 11.98360 -27.00160
vt 11.96680 -26.99730
vt 11.98150 -27.04390
vt 11.98310 -26.95590
vt 12.00730 -26.97130
vt 12.00390 -26.97130
vt 12.00960 -27.00160
vt 12.03320 -26.97130
vt 12.02750 -27.00160
vt 12.01680 -27.04390
vt 12.02030 -27.04390
vt 11.99830 -26.95590
vt 12.01660 -26.99730
vt 12.02670 -26.95590
vt 11.99920 -26.99730
vt 12.00870 -27.04410
vt 12.01210 -27.04410
vt 11.97690 -27.04410
vt 11.98450 -27.00160
vt 11.96710 -26.99730
vt 11.98040 -27.04390
vt 11.98540 -26.95590
vt 12.01030 -26.97130
vt 11.98150 -26.98700
vt 11.97900 -26.99130
vt 11.98240 -26.99040
vt 11.97810 -26.98790
vt 12.01680 -27.02310
vt 12.02030 -27.02310
vt 12.01680 -27.01960
vt 12.02030 -27.01960
vt 11.96680 -26.95590
vt 11.97250 -26.99730
vt 11.99610 -26.95590
vt 11.99040 -26.99730
vt 11.97970 -27.04410
vt 11.98320 -27.04410
vt 12.01190 -27.00160
vt 12.00960 -26.95590
vt 11.98540 -26.97130
vt 12.02880 -26.99730
vt 12.02100 -27.04410
vt 12.01760 -27.04390
vt 56.01910 -22.97410
vt 56.04050 -23.04780
vt 56.06650 -22.99990
vt 55.99310 -23.02200
vt 56.10210 -22.97810
vt 56.11810 -23.07510
vt 56.15820 -23.03440
vt 56.15020 -22.98610
vt 55.98370 -23.03670
vt 55.97580 -22.98930
vt 55.84180 -23.01910
vt 55.84970 -23.06650
vt 55.84980 -22.95560
vt 55.89790 -23.02270
vt 55.89790 -22.92470
vt 55.84980 -23.00440
vt 56.02420 -22.96840
vt 56.02420 -23.01630
vt 56.15820 -22.97410
vt 56.15820 -23.02200
vt 55.96560 -22.98190
vt 55.99210 -23.03070
vt 56.04040 -23.00440
vt 56.01390 -22.95560
vt 55.84180 -23.00790
vt 55.88190 -23.02190
vt 55.84980 -22.95960
vt 55.89790 -22.92490
vt 56.01630 -23.01070
vt 56.02420 -22.96330
vt 56.15820 -22.99310
vt 56.15030 -23.04050
vt 56.15820 -22.98190
vt 56.11810 -22.97730
vt 56.15820 -23.03070
vt 56.11810 -23.07530
vt 55.98370 -23.04200
vt 55.98370 -22.99410
vt 55.84970 -22.99990
vt 55.84970 -23.04780
vt 31.93350 -2.99989
vt 31.95950 -3.04779
vt 31.98090 -2.97414
vt 32.00690 -3.02205
vt 32.10210 -3.02188
vt 32.15820 -2.96559
vt 32.11810 -2.92491
vt 32.15020 -3.01390
vt 31.98370 -2.96332
vt 31.97580 -3.01073
vt 31.84970 -2.93347
vt 31.84180 -2.98087
vt 31.84180 -3.03067
vt 31.88190 -2.97734
vt 31.84180 -2.98185
vt 31.88190 -3.07532
vt 32.01630 -3.04204
vt 32.01630 -2.99413
vt 32.15030 -2.99989
vt 32.15030 -3.04779
vt 32.03440 -2.98185
vt 31.95960 -3.00443
vt 32.00790 -3.03067
vt 31.98610 -2.95561
vt 31.89790 -3.07509
vt 31.88190 -2.97812
vt 31.84980 -3.04042
vt 31.84180 -2.99210
vt 32.01630 -2.98933
vt 32.02420 -3.03674
vt 32.15820 -3.00689
vt 32.15030 -2.95948
vt 32.15020 -2.95561
vt 32.10210 -2.92468
vt 32.10210 -3.02266
vt 32.15020 -3.00443
vt 31.97580 -2.96839
vt 31.97580 -3.01629
vt 31.84180 -2.97414
vt 31.84180 -3.02205
vn 0.9606 0.0394 -0.2598
vn 0.8346 0.3386 0.4409
vn 0.9449 0.3228 0.0787
vn 0.6063 -0.5748 -0.5433
vn -0.1181 0.8740 -0.4724
vn -0.3071 0.8740 0.3701
vn -0.4488 0.8819 0.1417
vn -0.2441 0.9606 -0.0945
vn -0.5827 -0.3386 0.7402
vn 0.6142 0.3150 0.7244
vn -0.8661 -0.3465 -0.3701
vn -0.9370 0.0000 0.3465
vn 0.2047 -0.9606 0.1968
vn 0.4173 -0.9055 -0.0787
vn 0.1181 -0.8504 0.5118
vn -0.2441 -0.5039 -0.8268
vn -0.6535 -0.3150 -0.6850
vn -0.4488 -0.2441 -0.8583
vn 0.9921 -0.1339 0.0472
vn 0.7402 -0.6457 -0.1890
vn 0.9606 -0.0945 -0.2441
vn 0.5118 0.8504 -0.1339
vn 0.0000 0.8504 -0.5276
vn 0.0000 0.4016 0.9134
vn 0.0000 -0.2047 0.9764
vn 0.1968 -0.1339 0.9685
vn -0.8898 0.4016 0.2283
vn -0.9449 -0.2047 0.2441
vn -0.9921 -0.1339 0.0472
vn 0.0630 -1.0000 -0.0157
vn 0.0000 -1.0000 -0.0630
vn -0.2913 -0.1339 -0.9449
vn 0.0000 -0.6457 -0.7638
vn 0.0000 -0.0945 -0.9921
vn 0.0945 0.8189 -0.5748
vn 0.0000 0.9843 0.1654
vn 0.0000 0.9606 0.2756
vn 0.0000 1.0000 0.0394
vn 0.0000 1.0000 0.0000
vn 1.0000 0.0000 0.0000
vn 0.5827 0.6614 0.4724
vn 0.0709 -0.4961 0.8661
vn -0.9843 0.1575 0.0315
vn -0.0315 -0.8504 -0.5276
vn 0.0000 0.5512 -0.8346
vn 0.7008 0.3780 0.6063
vn 0.7559 0.5433 0.3543
vn 0.6850 -0.3780 -0.6220
vn 0.7559 -0.5512 -0.3622
vn 0.8504 -0.3858 0.3543
vn 0.7953 -0.5591 0.2520
vn -0.7008 0.7008 -0.1260
vn 0.6929 0.7165 0.0945
vn 0.6063 0.7087 -0.3465
vn 0.3386 0.7008 0.6299
vn 0.3307 0.8661 0.3858
vn 0.3622 0.7795 0.5118
vn -0.5039 0.7244 0.4724
vn -0.4646 0.8268 0.3071
vn -0.1968 -0.4961 0.8504
vn -0.3937 -0.5039 0.7717
vn 0.1024 0.5276 0.8425
vn 0.2047 -0.4961 0.8425
vn 0.0000 -0.5512 0.8346
vn -0.1890 0.1654 0.9685
vn -0.5748 -0.5354 0.6220
vn 0.5906 -0.3937 0.7008
vn 0.4173 -0.4961 0.7559
vn -0.4567 0.6063 0.6535
vn -0.7953 0.5591 -0.2520
vn -0.9449 0.2677 0.1811
vn -0.8583 0.0551 0.5118
vn -0.8740 0.4724 -0.1339
vn 0.6929 -0.7087 -0.1102
vn -0.5669 -0.8189 -0.0157
vn -0.2913 -0.8032 -0.5276
vn -0.2677 -0.8661 -0.4173
vn -0.2677 -0.7402 -0.6220
vn -0.2283 0.5748 -0.7874
vn -0.4173 0.4961 -0.7559
vn 0.2362 -0.1024 -0.9685
vn 0.2047 0.5827 -0.7874
vn 0.5669 0.4961 -0.6614
vn 0.3937 0.5039 -0.7717
vn 0.5827 0.6614 -0.4724
vn 0.0000 0.5512 0.8346
vn -0.9843 0.1575 -0.0315
vn -0.0315 -0.8504 0.5197
vn 0.0709 -0.5039 -0.8661
vn 0.7008 0.3780 -0.6063
vn 0.7559 0.5433 -0.3543
vn 0.6850 -0.3780 0.6220
vn 0.7559 -0.5512 0.3622
vn 0.8504 -0.3858 -0.3543
vn 0.7953 -0.5591 -0.2520
vn -0.7008 0.7008 0.1260
vn 0.6929 0.7165 -0.0945
vn 0.6063 0.7087 0.3465
vn 0.3386 0.7008 -0.6299
vn 0.3307 0.8661 -0.3858
vn 0.3622 0.7795 -0.5118
vn -0.5039 0.7244 -0.4724
vn -0.4646 0.8268 -0.3071
vn -0.2283 0.5748 0.7874
vn -0.4173 0.4961 0.7559
vn 0.2362 -0.1024 0.9685
vn 0.2047 0.5827 0.7874
vn 0.5669 0.4961 0.6614
vn 0.3937 0.5039 0.7717
vn -0.7953 0.5591 0.2520
vn -0.9449 0.2677 -0.1811
vn -0.8583 0.0551 -0.5118
vn -0.8740 0.4724 0.1339
vn 0.6929 -0.7087 0.1102
vn -0.5669 -0.8189 0.0157
vn -0.2913 -0.8032 0.5276
vn -0.2677 -0.8661 0.4173
vn -0.2677 -0.7402 0.6220
vn -0.1968 -0.4961 -0.8504
vn -0.3937 -0.5039 -0.7717
vn 0.1024 0.5276 -0.8425
vn 0.2047 -0.4961 -0.8425
vn 0.0000 -0.5512 -0.8346
vn -0.1890 0.1654 -0.9685
vn -0.5748 -0.5354 -0.6220
vn 0.5906 -0.3937 -0.7008
vn 0.4173 -0.4961 -0.7559
vn -0.4567 0.6063 -0.6535
vn -0.2677 0.9606 0.0000
vn 0.3150 0.9528 0.0000
vn 0.1890 0.9843 0.0000
vn 0.0945 0.9921 0.0000
vn -0.4173 0.0000 0.9134
vn 0.1339 0.0000 0.9921
vn 0.0000 0.0000 1.0000
vn 0.1575 0.0000 0.9843
vn 0.3150 0.0000 0.9528
vn 0.1496 0.0000 0.9921
vn -0.5354 -0.8425 0.0000
vn 0.3150 -0.9528 0.0000
vn -0.0945 -0.9921 0.0000
vn -0.4173 0.0000 -0.9134
vn 0.1339 0.0000 -0.9921
vn 0.0000 0.0000 -1.0000
vn 0.1575 0.0000 -0.9843
vn 0.3150 0.0000 -0.9528
vn 0.1496 0.0000 -0.9921
vn 0.7402 0.6772 0.0000
vn 0.6929 0.7165 0.0000
vn 0.6457 0.7638 0.0000
vn -0.4488 0.8898 0.0000
vn -0.3701 0.9291 0.0000
vn -0.2835 0.9606 0.0000
vn 0.2441 -0.0630 0.9685
vn 0.1339 -0.0394 0.9921
vn -0.1102 0.0000 0.9921
vn -0.1102 -0.0079 0.9921
vn -0.1260 -0.0630 0.9921
vn -0.1339 -0.0787 0.9843
vn 0.1181 -0.0315 0.9921
vn -1.0000 0.0079 0.0000
vn -1.0000 0.0236 0.0000
vn 0.2441 -0.0630 -0.9685
vn 0.1339 -0.0394 -0.9921
vn 0.1181 -0.0315 -0.9921
vn -0.1260 -0.0630 -0.9921
vn -0.1102 0.0000 -0.9921
vn -0.1102 -0.0079 -0.9921
vn -0.1339 -0.0787 -0.9843
vn 0.9213 0.3937 0.0000
vn 0.9449 0.3307 0.0000
vn 0.8583 0.5197 0.0000
vn -0.1890 0.9843 0.0000
vn -0.3071 0.9528 0.0000
vn -0.2283 0.9764 0.0000
vn -0.0394 0.1732 0.9843
vn -0.0315 0.1417 0.9921
vn -0.0709 0.2205 0.9764
vn -1.0000 -0.0472 0.0000
vn -1.0000 -0.0787 0.0000
vn -1.0000 -0.0551 0.0000
vn 0.2283 -0.9764 0.0000
vn 0.1890 -0.9843 0.0000
vn 0.3071 -0.9528 0.0000
vn -0.0394 0.1732 -0.9843
vn -0.0315 0.1417 -0.9921
vn -0.0709 0.2205 -0.9764
vn 0.9764 0.2283 0.0000
vn 0.8819 0.4646 0.0000
vn -0.6535 0.7559 0.0000
vn -0.1654 0.9843 0.0000
vn -0.1732 -0.9843 0.0000
vn 0.6378 -0.7717 0.0000
vn 0.9921 0.1181 0.0787
vn 0.9921 0.1181 -0.0787
vn -0.1260 0.9921 -0.0079
vn -0.1260 0.9921 0.0079
vn -0.4094 0.9134 -0.0315
vn -0.4094 0.9134 0.0315
vn -0.0787 0.0000 1.0000
vn 0.0787 0.0000 1.0000
vn -0.9921 -0.1181 -0.0787
vn -0.9921 -0.1181 0.0787
vn 0.4094 -0.9134 0.0315
vn 0.4094 -0.9134 -0.0315
vn 0.1260 -0.9921 0.0079
vn 0.1260 -0.9921 -0.0079
vn -0.0787 0.0000 -1.0000
vn 0.0787 0.0000 -1.0000
vn 0.3386 -0.0945 0.9370
vn -0.1181 0.0079 0.9921
vn -0.1181 0.0157 0.9921
vn 0.4252 -0.9055 0.0000
vn -0.1654 -0.9843 0.0000
vn -0.0315 -1.0000 0.0000
vn 0.1339 -0.9921 0.0000
vn -0.5433 -0.8425 0.0000
vn 0.3386 -0.0945 -0.9370
vn -0.1181 0.0157 -0.9921
vn -0.1181 0.0079 -0.9921
vn -0.1339 -0.0079 0.9921
vn -0.1181 -0.0079 0.9921
vn -0.1339 -0.0079 -0.9921
vn -0.1181 -0.0079 -0.9921
vn -0.2047 0.9764 0.0000
vn 0.9606 0.0394 0.2598
vn 0.8346 0.3307 -0.4409
vn 0.9449 0.3228 -0.0787
vn 0.6063 -0.5748 0.5433
vn -0.1181 0.8740 0.4724
vn -0.3071 0.8740 -0.3701
vn -0.4488 0.8819 -0.1417
vn -0.2441 0.9606 0.0945
vn -0.2441 -0.5039 0.8268
vn -0.6535 -0.3150 0.6850
vn -0.4567 -0.2441 0.8583
vn -0.8661 -0.3465 0.3701
vn -0.9370 0.0000 -0.3465
vn 0.2047 -0.9606 -0.1968
vn 0.4173 -0.9055 0.0787
vn 0.1181 -0.8504 -0.5118
vn -0.5827 -0.3386 -0.7402
vn 0.6142 0.3150 -0.7244
vn 0.0945 0.8189 0.5748
vn 0.0000 0.9843 -0.1654
vn 0.0000 0.9606 -0.2756
vn 0.0000 1.0000 -0.0394
vn 0.9921 -0.1339 -0.0472
vn 0.7402 -0.6457 0.1890
vn 0.9606 -0.0945 0.2520
vn 0.5118 0.8504 0.1339
vn 0.0000 0.8504 0.5276
vn -0.2913 -0.1339 0.9449
vn 0.0000 -0.6457 0.7638
vn 0.0000 -0.0945 0.9921
vn -0.8898 0.4016 -0.2283
vn -0.9449 -0.2047 -0.2441
vn -0.9921 -0.1339 -0.0472
vn 0.0630 -1.0000 0.0157
vn 0.0000 -1.0000 0.0630
vn 0.0000 0.4016 -0.9134
vn 0.0000 -0.2047 -0.9764
vn 0.1968 -0.1339 -0.9685
vn 0.9921 -0.0709 -0.1260
vn -0.4646 0.8110 -0.3622
vn 0.2441 0.8346 -0.4961
vn -0.0630 0.8819 -0.4646
vn -0.4094 0.4331 0.8032
vn 0.2362 0.4646 0.8504
vn 0.2126 0.4646 0.8583
vn -0.9921 0.0709 0.1260
vn -0.5827 -0.6693 0.4567
vn 0.1811 -0.8740 0.4488
vn 0.0630 -0.8819 0.4646
vn -0.6457 -0.3622 -0.6772
vn 0.1890 -0.4724 -0.8661
vn -0.2126 -0.4646 -0.8583
vn 0.9921 -0.0709 0.1260
vn -0.4646 0.8110 0.3622
vn 0.2441 0.8346 0.4961
vn -0.0630 0.8819 0.4646
vn -0.6457 -0.3622 0.6693
vn 0.1890 -0.4724 0.8661
vn -0.2126 -0.4646 0.8583
vn -0.9921 0.0709 -0.1260
vn -0.5827 -0.6693 -0.4567
vn 0.1811 -0.8740 -0.4488
vn 0.0630 -0.8819 -0.4646
vn -0.4094 0.4331 -0.8032
vn 0.2362 0.4646 -0.8504
vn 0.2126 0.4646 -0.8583

o LeftWing
usemtl c_2f5331
f 1/1/1 2/2/1 3/3/1
f 2/2/1 1/1/1 4/4/1
f 5/5/2 6/6/2 7/7/2
f 8/8/2 6/6/2 5/5/2
f 9/9/3 8/8/3 5/5/3
f 10/10/3 8/8/3 9/9/3
f 11/11/4 8/8/4 10/10/4
f 4/12/5 1/13/5 12/14/5
f 1/13/5 13/15/5 12/14/5
f 14/16/6 5/17/6 15/18/6
f 14/16/6 9/19/6 5/17/6
f 5/17/7 7/20/7 15/18/7
f 15/18/7 7/20/7 16/21/7
f 7/20/8 12/14/8 16/21/8
f 12/14/8 7/20/8 4/12/8
f 14/22/9 11/23/9 9/24/9
f 9/24/9 11/23/9 10/25/9
f 4/26/10 6/27/10 2/28/10
f 6/27/10 4/26/10 7/29/10
f 17/30/11 15/31/11 16/32/11
f 15/31/11 17/30/11 18/33/11
f 19/34/12 20/35/12 13/36/12
f 13/36/12 20/35/12 12/37/12
f 6/38/13 20/39/13 2/40/13
f 17/41/13 20/39/13 6/38/13
f 18/42/14 6/38/14 8/43/14
f 6/38/14 18/42/14 17/41/14
f 3/44/15 20/39/15 19/45/15
f 20/39/15 3/44/15 2/40/15
f 1/46/16 19/47/16 13/48/16
f 19/47/16 1/46/16 3/49/16
f 20/50/17 17/51/17 12/52/17
f 16/53/17 12/52/17 17/51/17
f 14/54/18 18/55/18 11/56/18
f 18/55/18 14/54/18 15/57/18
f 8/58/4 11/56/4 18/55/4
usemtl c_3e3e3e
f 21/59/19 22/60/19 23/61/19
f 22/60/19 21/59/19 24/62/19
f 23/61/19 22/60/19 25/63/19
f 22/60/19 26/64/19 25/63/19
f 27/65/20 28/66/20 29/67/20
f 28/66/20 30/68/20 29/67/20
f 31/69/21 29/67/21 30/68/21
f 30/68/21 32/70/21 31/69/21
f 27/71/22 33/72/22 28/73/22
f 33/72/22 27/71/22 34/74/22
f 35/75/23 25/76/23 26/77/23
f 35/75/23 26/77/23 36/78/23
f 25/79/24 35/80/24 23/81/24
f 35/80/24 37/82/24 23/81/24
f 21/83/25 23/81/25 37/82/25
f 37/82/25 38/84/25 21/83/25
f 39/85/26 30/86/26 40/87/26
f 30/86/26 39/85/26 32/88/26
f 40/87/26 30/86/26 33/89/26
f 30/86/26 28/90/26 33/89/26
f 33/91/27 41/92/27 40/93/27
f 41/92/27 33/91/27 34/94/27
f 39/95/28 40/93/28 41/92/28
f 41/92/28 42/96/28 39/95/28
f 35/97/29 43/98/29 37/99/29
f 43/98/29 35/97/29 36/100/29
f 38/101/29 37/99/29 43/98/29
f 43/98/29 44/102/29 38/101/29
f 31/103/30 39/104/30 42/105/30
f 39/104/30 31/103/30 32/106/30
f 44/107/31 24/108/31 21/109/31
f 44/107/31 21/109/31 38/110/31
f 34/111/32 29/112/32 41/113/32
f 29/112/32 34/111/32 27/114/32
f 42/115/32 41/113/32 29/112/32
f 29/112/32 31/116/32 42/115/32
f 36/117/33 26/118/33 43/119/33
f 26/118/33 22/120/33 43/119/33
f 44/121/34 43/119/34 22/120/34
f 22/120/34 24/122/34 44/121/34
usemtl c_286f32
f 45/123/35 46/124/35 47/125/35
f 46/124/35 45/123/35 48/126/35
f 49/127/36 50/128/36 48/126/36
f 48/126/36 50/128/36 46/124/36
f 51/129/37 49/127/37 52/130/37
f 49/127/37 51/129/37 50/128/37
f 52/130/38 53/131/38 51/129/38
f 53/131/38 52/130/38 54/132/38
f 53/131/39 54/132/39 55/133/39
o RightFoot
usemtl c_264428
f 56/134/40 57/135/40 58/136/40
f 57/135/40 56/134/40 59/137/40
f 56/138/41 60/139/41 61/140/41
f 60/139/41 56/138/41 58/141/41
f 56/142/42 61/143/42 62/144/42
f 56/142/42 62/144/42 59/145/42
f 61/146/43 63/147/43 62/148/43
f 63/147/43 61/146/43 60/149/43
f 63/150/44 59/151/44 62/152/44
f 59/151/44 63/150/44 57/153/44
f 58/154/45 63/155/45 60/156/45
f 63/155/45 58/154/45 57/157/45
usemtl c_3e3e3e
f 64/158/46 65/159/46 66/160/46
f 66/160/46 65/159/46 67/161/46
f 68/162/47 69/163/47 70/164/47
f 69/163/47 68/162/47 71/165/47
f 72/166/48 73/167/48 74/168/48
f 72/166/48 74/168/48 75/169/48
f 70/164/49 76/170/49 77/171/49
f 70/164/49 77/171/49 68/162/49
f 78/172/50 79/173/50 80/174/50
f 79/173/50 78/172/50 81/175/50
f 81/175/51 78/172/51 82/176/51
f 78/172/51 83/177/51 82/176/51
f 84/178/52 85/179/52 86/180/52
f 87/181/53 72/182/53 75/183/53
f 72/182/53 87/181/53 88/184/53
f 81/185/54 84/178/54 79/186/54
f 84/178/54 81/185/54 85/179/54
f 89/187/55 90/188/55 91/189/55
f 90/188/55 89/187/55 92/190/55
f 93/191/56 94/192/56 95/193/56
f 94/192/56 93/191/56 96/194/56
f 97/195/57 98/196/57 99/197/57
f 98/196/57 97/195/57 100/198/57
f 97/195/58 69/199/58 71/200/58
f 97/195/58 71/200/58 100/198/58
f 89/187/59 67/201/59 92/190/59
f 67/201/59 89/187/59 66/202/59
f 89/203/60 64/204/60 66/205/60
f 64/204/60 89/203/60 101/206/60
f 102/207/61 101/206/61 89/203/61
f 89/203/61 91/208/61 102/207/61
f 79/209/62 84/210/62 80/211/62
f 80/211/62 84/210/62 103/212/62
f 97/213/63 70/214/63 69/215/63
f 70/214/63 97/213/63 76/216/63
f 97/213/64 99/217/64 104/218/64
f 97/213/64 104/218/64 76/216/64
f 83/219/65 78/220/65 86/221/65
f 83/219/65 86/221/65 105/222/65
f 80/211/66 86/221/66 78/220/66
f 86/221/66 80/211/66 103/212/66
f 72/223/67 93/224/67 73/225/67
f 93/224/67 72/223/67 88/226/67
f 93/224/68 95/227/68 106/228/68
f 93/224/68 106/228/68 73/225/68
f 93/224/69 87/229/69 96/230/69
f 87/229/69 93/224/69 88/226/69
f 86/231/70 107/232/70 105/233/70
f 107/232/70 86/231/70 85/234/70
f 84/235/52 86/231/52 103/236/52
f 99/237/71 98/238/71 104/239/71
f 104/239/71 98/238/71 108/240/71
f 95/241/72 109/242/72 106/243/72
f 109/242/72 95/241/72 94/244/72
f 91/245/73 90/246/73 102/247/73
f 102/247/73 90/246/73 110/248/73
f 101/249/74 65/250/74 64/251/74
f 65/250/74 101/249/74 111/252/74
f 82/253/75 83/254/75 105/255/75
f 82/253/75 105/255/75 107/256/75
f 108/257/76 77/258/76 76/259/76
f 108/257/76 76/259/76 104/260/76
f 109/261/77 73/262/77 106/263/77
f 73/262/77 109/261/77 74/264/77
f 110/265/78 111/252/78 101/249/78
f 101/249/78 102/266/78 110/265/78
f 96/267/79 75/268/79 74/269/79
f 75/268/79 96/267/79 87/270/79
f 109/271/80 96/267/80 74/269/80
f 96/267/80 109/271/80 94/272/80
f 107/273/81 81/274/81 82/275/81
f 81/274/81 107/273/81 85/276/81
f 100/277/82 68/278/82 77/279/82
f 68/278/82 100/277/82 71/280/82
f 108/281/45 100/277/45 77/279/45
f 100/277/45 108/281/45 98/282/45
f 111/283/83 67/284/83 65/285/83
f 67/284/83 111/283/83 92/286/83
f 110/287/84 92/286/84 111/283/84
f 92/286/84 110/287/84 90/288/84
o LeftFoot
usemtl c_264428
f 112/289/40 113/290/40 114/291/40
f 113/290/40 112/289/40 115/292/40
f 115/293/85 112/294/85 116/295/85
f 116/295/85 112/294/85 117/296/85
f 115/297/86 118/298/86 113/299/86
f 118/298/86 115/297/86 116/300/86
f 117/301/87 119/302/87 118/303/87
f 117/301/87 118/303/87 116/304/87
f 114/305/88 118/306/88 119/307/88
f 118/306/88 114/305/88 113/308/88
f 112/309/89 119/310/89 117/311/89
f 119/310/89 112/309/89 114/312/89
usemtl c_3e3e3e
f 120/313/90 121/314/90 122/315/90
f 121/314/90 123/316/90 122/315/90
f 124/317/91 125/318/91 126/319/91
f 125/318/91 127/320/91 126/319/91
f 128/321/92 129/322/92 130/323/92
f 129/322/92 128/321/92 131/324/92
f 124/317/93 132/325/93 133/326/93
f 132/325/93 124/317/93 126/319/93
f 134/327/94 135/328/94 136/329/94
f 135/328/94 134/327/94 137/330/94
f 137/330/95 138/331/95 135/328/95
f 135/328/95 138/331/95 139/332/95
f 140/333/96 141/334/96 142/335/96
f 143/336/97 128/337/97 144/338/97
f 128/337/97 143/336/97 131/339/97
f 137/340/98 141/334/98 140/333/98
f 141/334/98 137/340/98 134/341/98
f 145/342/99 146/343/99 147/344/99
f 146/343/99 145/342/99 148/345/99
f 149/346/100 150/347/100 151/348/100
f 150/347/100 149/346/100 152/349/100
f 153/350/101 154/351/101 155/352/101
f 154/351/101 153/350/101 156/353/101
f 125/354/102 154/351/102 127/355/102
f 156/353/102 127/355/102 154/351/102
f 121/356/103 145/342/103 123/357/103
f 123/357/103 145/342/103 147/344/103
f 129/358/104 131/359/104 152/360/104
f 152/360/104 131/359/104 143/361/104
f 157/362/105 152/360/105 149/363/105
f 152/360/105 157/362/105 129/358/105
f 140/364/106 158/365/106 137/366/106
f 138/367/106 137/366/106 158/365/106
f 132/368/107 126/369/107 156/370/107
f 156/370/107 126/369/107 127/371/107
f 159/372/86 156/370/86 153/373/86
f 156/370/86 159/372/86 132/368/86
f 160/374/108 123/375/108 147/376/108
f 123/375/108 160/374/108 122/377/108
f 161/378/109 147/376/109 146/379/109
f 147/376/109 161/378/109 160/374/109
f 142/380/110 158/381/110 140/382/110
f 158/381/110 142/380/110 162/383/110
f 142/380/96 141/384/96 163/385/96
f 155/386/111 164/387/111 153/388/111
f 164/387/111 159/389/111 153/388/111
f 151/390/112 157/391/112 149/392/112
f 157/391/112 151/390/112 165/393/112
f 148/394/113 166/395/113 146/396/113
f 166/395/113 161/397/113 146/396/113
f 167/398/114 122/399/114 160/400/114
f 122/399/114 167/398/114 120/401/114
f 138/402/115 162/403/115 139/404/115
f 162/403/115 138/402/115 158/405/115
f 132/406/116 159/407/116 133/408/116
f 164/409/116 133/408/116 159/407/116
f 129/410/117 157/411/117 130/412/117
f 130/412/117 157/411/117 165/413/117
f 166/414/118 167/398/118 161/415/118
f 167/398/118 160/400/118 161/415/118
f 145/416/119 120/417/119 167/418/119
f 120/417/119 145/416/119 121/419/119
f 167/418/120 166/420/120 145/416/120
f 145/416/120 166/420/120 148/421/120
f 134/422/121 136/423/121 141/424/121
f 136/423/121 163/425/121 141/424/121
f 154/426/122 124/427/122 133/428/122
f 124/427/122 154/426/122 125/429/122
f 133/428/123 164/430/123 154/426/123
f 154/426/123 164/430/123 155/431/123
f 139/432/124 142/433/124 135/434/124
f 142/433/124 139/432/124 162/435/124
f 136/423/125 142/433/125 163/425/125
f 142/433/125 136/423/125 135/434/125
f 128/436/126 150/437/126 144/438/126
f 150/437/126 128/436/126 130/439/126
f 130/439/127 165/440/127 150/437/127
f 150/437/127 165/440/127 151/441/127
f 152/442/128 143/443/128 150/437/128
f 150/437/128 143/443/128 144/438/128
o Torso
usemtl c_2f5331
f 168/444/40 169/445/40 170/446/40
f 169/445/40 168/444/40 171/447/40
f 171/447/40 172/448/40 169/445/40
f 172/448/40 171/447/40 173/449/40
f 174/450/129 175/451/129 176/452/129
f 175/451/129 177/453/129 176/452/129
f 168/454/130 178/455/131 179/456/131
f 178/455/131 168/454/130 170/457/130
f 179/456/131 178/455/131 175/451/132
f 175/451/132 178/455/131 177/453/132
f 174/458/133 180/459/133 175/460/133
f 180/459/133 174/458/133 181/461/133
f 182/462/133 180/459/133 181/461/133
f 180/459/133 182/462/133 183/463/133
f 179/464/134 180/459/135 184/465/136
f 180/459/135 179/464/134 175/460/135
f 184/465/136 168/466/137 179/464/134
f 183/463/135 184/465/136 180/459/135
f 168/466/137 184/465/136 171/467/137
f 184/465/136 183/463/135 185/468/138
f 171/467/137 184/465/136 173/469/137
f 185/468/138 173/469/137 184/465/136
f 186/470/139 183/471/139 182/472/139
f 183/471/139 186/470/139 187/473/139
f 172/474/140 185/475/140 188/476/140
f 185/475/140 172/474/140 173/477/140
f 187/473/141 188/476/141 185/475/141
f 187/473/141 185/475/141 183/471/141
f 187/478/142 186/479/142 189/480/142
f 190/481/142 189/480/142 186/479/142
f 176/482/142 189/480/142 190/481/142
f 189/480/142 176/482/142 177/483/142
f 178/484/143 189/480/144 177/483/144
f 189/480/144 178/484/143 191/485/145
f 170/486/146 191/485/145 178/484/143
f 191/485/145 187/478/144 189/480/144
f 191/485/145 170/486/146 169/487/146
f 187/478/144 191/485/145 188/488/147
f 172/489/146 191/485/145 169/487/146
f 191/485/145 172/489/146 188/488/147
o Head
usemtl c_2f5331
f 192/490/148 193/491/149 194/492/149
f 192/490/148 195/493/148 193/491/149
f 193/494/149 174/495/150 194/496/149
f 174/495/150 176/497/150 194/496/149
f 192/498/151 196/499/152 195/500/151
f 196/499/152 192/498/151 197/501/152
f 197/501/152 198/502/153 196/499/152
f 198/502/153 197/501/152 199/503/153
f 200/504/154 193/505/155 195/506/154
f 195/506/156 201/507/157 200/504/156
f 201/507/157 195/506/156 196/508/158
f 196/508/158 202/509/159 201/507/157
f 202/509/159 196/508/158 198/510/159
f 174/511/135 203/512/160 181/513/135
f 203/512/160 182/514/135 181/513/135
f 203/512/160 174/511/135 193/505/155
f 193/505/155 200/504/154 203/512/160
f 199/515/161 202/516/161 198/517/161
f 202/516/161 199/515/161 204/518/161
f 205/519/162 206/520/162 207/521/162
f 206/520/162 205/519/162 208/522/162
f 209/523/163 194/524/164 210/525/165
f 176/526/144 210/525/165 194/524/164
f 192/527/163 194/524/164 209/523/163
f 197/528/166 192/527/167 211/529/168
f 211/529/168 204/530/169 197/528/166
f 199/531/169 197/528/166 204/530/169
f 192/527/167 209/523/167 211/529/168
f 190/532/144 186/533/144 210/525/165
f 190/532/144 210/525/165 176/526/144
usemtl c_d7c59a
f 212/534/170 213/535/170 214/536/170
f 213/535/170 215/537/170 214/536/170
f 216/538/170 217/539/170 218/540/170
f 217/539/170 219/541/170 218/540/170
f 220/542/171 221/543/171 222/544/171
f 221/543/171 223/545/171 222/544/171
f 224/546/171 225/547/171 226/548/171
f 225/547/171 224/546/171 227/549/171
f 228/550/172 229/551/172 230/552/172
f 229/551/172 228/550/172 231/553/172
f 232/554/172 233/555/172 234/556/172
f 234/556/172 233/555/172 235/557/172
f 236/558/171 237/559/171 238/560/171
f 237/559/171 239/561/171 238/560/171
f 240/562/171 241/563/171 242/564/171
f 241/563/171 243/565/171 242/564/171
f 244/566/171 245/567/171 246/568/171
f 245/567/171 247/569/171 246/568/171
f 248/570/171 249/571/171 250/572/171
f 249/571/171 251/573/171 250/572/171
f 252/574/173 248/575/173 253/576/173
f 248/575/173 250/577/173 253/576/173
f 254/578/173 244/579/173 255/580/173
f 244/579/173 246/581/173 255/580/173
f 256/582/173 220/583/173 257/584/173
f 220/583/173 222/585/173 257/584/173
f 258/586/173 224/587/173 259/588/173
f 224/587/173 226/589/173 259/588/173
f 260/590/173 236/591/173 261/592/173
f 236/591/173 238/593/173 261/592/173
f 262/594/173 240/595/173 263/596/173
f 240/595/173 242/597/173 263/596/173
f 264/598/174 232/599/174 265/600/174
f 232/599/174 234/601/174 265/600/174
f 266/602/174 228/603/174 267/604/174
f 228/603/174 230/605/174 267/604/174
f 268/606/175 212/607/175 269/608/175
f 212/607/175 214/609/175 269/608/175
f 270/610/175 216/611/175 271/612/175
f 216/611/175 218/613/175 271/612/175
f 213/614/176 212/615/176 272/616/176
f 268/617/176 272/616/176 212/615/176
f 256/618/177 221/619/177 220/620/177
f 221/619/177 256/618/177 273/621/177
f 264/622/178 233/623/178 232/624/178
f 233/623/178 264/622/178 274/625/178
f 237/626/177 260/627/177 275/628/177
f 260/627/177 237/626/177 236/629/177
f 252/630/177 249/631/177 248/632/177
f 249/631/177 252/630/177 276/633/177
f 245/631/177 254/630/177 277/633/177
f 254/630/177 245/631/177 244/632/177
f 241/626/177 262/627/177 278/628/177
f 262/627/177 241/626/177 240/629/177
f 231/623/178 266/622/178 279/625/178
f 266/622/178 231/623/178 228/624/178
f 258/618/177 227/619/177 224/620/177
f 227/619/177 258/618/177 280/621/177
f 217/614/176 216/615/176 281/616/176
f 270/617/176 281/616/176 216/615/176
f 253/634/179 282/635/179 252/636/179
f 282/635/179 276/637/179 252/636/179
f 255/638/179 283/639/179 254/640/179
f 283/639/179 277/641/179 254/640/179
f 261/642/179 284/643/179 260/644/179
f 260/644/179 284/643/179 275/645/179
f 263/646/179 285/647/179 262/648/179
f 262/648/179 285/647/179 278/649/179
f 267/650/180 286/651/180 266/652/180
f 286/651/180 279/653/180 266/652/180
f 265/654/180 274/655/180 264/656/180
f 274/655/180 265/654/180 287/657/180
f 259/658/179 288/659/179 258/660/179
f 288/659/179 280/661/179 258/660/179
f 257/662/179 273/663/179 256/664/179
f 273/663/179 257/662/179 289/665/179
f 269/666/181 290/667/181 268/668/181
f 268/668/181 290/667/181 272/669/181
f 271/670/181 291/671/181 270/672/181
f 291/671/181 281/673/181 270/672/181
f 215/674/182 272/675/182 290/676/182
f 272/675/182 215/674/182 213/677/182
f 219/678/182 281/679/182 291/680/182
f 281/679/182 219/678/182 217/681/182
f 239/682/183 275/683/183 284/684/183
f 275/683/183 239/682/183 237/685/183
f 243/686/183 278/687/183 285/688/183
f 278/687/183 243/686/183 241/689/183
f 223/690/183 273/691/183 289/692/183
f 273/691/183 223/690/183 221/693/183
f 225/694/183 280/695/183 288/696/183
f 280/695/183 225/694/183 227/697/183
f 251/698/183 276/699/183 282/700/183
f 276/699/183 251/698/183 249/701/183
f 247/702/183 277/703/183 283/704/183
f 277/703/183 247/702/183 245/705/183
f 235/706/184 274/707/184 287/708/184
f 274/707/184 235/706/184 233/709/184
f 229/710/184 279/711/184 286/712/184
f 279/711/184 229/710/184 231/713/184
f 218/714/185 291/715/185 271/716/185
f 291/715/185 218/714/185 219/717/185
f 226/718/186 225/719/186 259/720/186
f 259/720/186 225/719/186 288/721/186
f 229/722/187 267/723/187 230/724/187
f 267/723/187 229/722/187 286/725/187
f 242/726/186 243/727/186 263/728/186
f 263/728/186 243/727/186 285/729/186
f 246/730/186 247/731/186 255/732/186
f 255/732/186 247/731/186 283/733/186
f 250/730/186 251/731/186 253/732/186
f 253/732/186 251/731/186 282/733/186
f 238/726/186 239/727/186 261/728/186
f 261/728/186 239/727/186 284/729/186
f 235/722/187 265/723/187 234/724/187
f 265/723/187 235/722/187 287/725/187
f 222/718/186 223/719/186 257/720/186
f 257/720/186 223/719/186 289/721/186
f 214/714/185 290/715/185 269/716/185
f 290/715/185 214/714/185 215/717/185
usemtl c_286f32
f 292/734/188 293/735/188 294/736/188
f 294/736/188 293/735/188 295/737/188
f 294/736/188 295/737/188 296/738/188
f 296/738/188 297/739/188 294/736/188
f 298/740/189 299/741/189 300/742/189
f 300/742/189 299/741/189 301/743/189
f 300/742/189 301/743/189 302/744/189
f 302/744/189 303/745/189 300/742/189
f 304/746/190 305/747/190 306/748/190
f 305/747/190 304/746/190 307/749/190
f 305/747/190 308/750/190 306/748/190
f 308/750/190 305/747/190 309/751/190
f 307/749/191 294/752/191 305/747/191
f 294/752/191 307/749/191 292/753/191
f 294/752/191 309/751/191 305/747/191
f 309/751/191 294/752/191 297/754/191
f 292/755/135 298/756/135 293/757/135
f 307/758/135 298/756/135 292/755/135
f 298/756/135 307/758/135 304/759/135
f 304/759/135 299/760/135 298/756/135
f 299/746/192 306/761/192 301/748/192
f 306/761/192 299/746/192 304/762/192
f 302/750/192 306/761/192 308/763/192
f 306/761/192 302/750/192 301/748/192
f 300/764/193 295/765/193 298/766/193
f 295/765/193 293/767/193 298/766/193
f 303/768/193 296/769/193 295/765/193
f 303/768/193 295/765/193 300/764/193
f 296/770/144 303/771/144 297/772/144
f 309/773/144 297/772/144 303/771/144
f 303/771/144 308/774/144 309/773/144
f 302/775/144 308/774/144 303/771/144
f 295/770/144 300/771/144 294/772/144
f 305/773/144 294/772/144 300/771/144
f 300/771/144 306/774/144 305/773/144
f 301/775/144 306/774/144 300/771/144
f 310/776/194 311/777/194 312/778/194
f 311/777/194 310/776/194 313/779/194
f 314/780/195 315/781/195 316/782/195
f 314/780/195 316/782/195 317/783/195
f 318/784/196 319/785/196 320/786/196
f 319/785/196 318/784/196 321/787/196
f 322/788/197 323/789/197 324/790/197
f 323/789/197 322/788/197 325/791/197
f 310/792/198 321/787/198 318/784/198
f 321/787/198 310/792/198 312/793/198
f 325/791/199 314/794/199 323/789/199
f 314/794/199 325/791/199 315/795/199
f 320/796/200 326/797/200 318/798/200
f 326/797/200 320/796/200 327/799/200
f 318/798/200 313/800/200 310/801/200
f 318/798/200 326/797/200 313/800/200
f 325/802/201 316/803/201 315/804/201
f 316/803/201 325/802/201 328/805/201
f 322/806/201 328/805/201 325/802/201
f 328/805/201 322/806/201 329/807/201
f 320/808/202 330/809/202 327/810/202
f 330/809/202 320/808/202 319/811/202
f 324/812/203 329/813/203 322/814/203
f 329/813/203 324/812/203 331/815/203
f 332/816/204 311/817/204 313/818/204
f 332/816/204 313/818/204 326/819/204
f 333/820/205 317/821/205 328/822/205
f 317/821/205 316/823/205 328/822/205
f 330/824/206 332/816/206 326/819/206
f 330/824/206 326/819/206 327/825/206
f 331/826/207 333/820/207 329/827/207
f 333/820/207 328/822/207 329/827/207
f 324/828/208 323/829/208 333/830/208
f 324/828/208 333/830/208 331/831/208
f 323/829/208 317/832/208 333/830/208
f 323/829/208 314/833/208 317/832/208
f 321/834/209 311/835/209 332/836/209
f 311/835/209 321/834/209 312/837/209
f 319/838/209 332/836/209 330/839/209
f 332/836/209 319/838/209 321/834/209
usemtl c_750000
f 203/840/210 200/841/210 334/842/210
f 200/841/210 335/843/210 334/842/210
f 206/844/211 336/845/211 207/846/211
f 201/847/212 207/846/211 336/845/211
f 201/847/212 335/843/212 200/841/212
f 336/845/211 335/843/212 201/847/212
f 182/848/135 203/840/135 334/842/135
f 335/849/213 337/850/213 338/851/213
f 335/849/213 338/851/213 334/852/213
f 337/850/214 335/849/214 336/853/215
f 339/854/215 337/850/214 336/853/215
f 336/853/215 206/855/216 339/854/215
f 208/856/216 339/854/215 206/855/216
f 338/851/217 182/857/217 334/852/217
f 182/857/217 338/851/217 186/858/217
f 209/859/218 338/860/218 337/861/218
f 338/860/218 209/859/218 210/862/218
f 211/863/219 337/861/219 339/864/220
f 337/861/219 211/863/219 209/859/219
f 205/865/220 211/863/219 339/864/220
f 205/865/220 339/864/220 208/866/220
f 210/862/144 186/867/144 338/860/144
usemtl c_f8f8f8
f 340/868/221 341/869/221 342/870/221
f 343/871/222 344/872/222 342/870/222
f 344/872/222 343/871/222 345/873/222
f 346/874/221 342/870/221 341/869/221
f 342/870/221 346/874/221 343/871/221
f 342/870/221 344/872/221 340/868/221
f 341/869/221 347/875/221 346/874/221
f 347/875/221 341/869/221 348/876/221
f 341/869/221 349/877/221 348/876/221
f 349/877/221 341/869/221 340/868/221
f 350/878/223 351/879/223 352/880/223
f 353/881/224 354/882/224 355/883/224
f 354/882/224 353/881/224 351/879/224
f 351/879/223 350/878/223 354/882/223
f 356/884/223 352/880/223 351/879/223
f 351/879/223 353/881/223 356/884/223
f 357/885/223 352/880/223 356/884/223
f 352/880/223 357/885/223 358/886/223
f 359/887/223 352/880/223 358/886/223
f 352/880/223 359/887/223 350/878/223
usemtl c_ff5959
f 207/888/225 211/889/225 205/890/225
f 211/889/225 207/888/225 201/891/225
f 211/892/183 202/893/183 204/894/183
f 202/893/183 211/892/183 201/895/183
o RightWing
usemtl c_2f5331
f 360/896/226 361/897/226 362/898/226
f 361/897/226 360/896/226 363/899/226
f 364/900/227 365/901/227 366/902/227
f 364/900/227 366/902/227 367/903/227
f 368/904/228 367/903/228 369/905/228
f 368/904/228 364/900/228 367/903/228
f 367/903/229 370/906/229 369/905/229
f 371/907/230 372/908/230 360/909/230
f 360/909/230 362/910/230 371/907/230
f 368/911/231 373/912/231 364/913/231
f 364/913/231 373/912/231 374/914/231
f 374/914/232 375/915/232 365/916/232
f 365/916/232 364/913/232 374/914/232
f 365/916/233 371/907/233 362/910/233
f 371/907/233 365/916/233 375/915/233
f 360/917/234 376/918/234 363/919/234
f 376/918/234 360/917/234 372/920/234
f 377/921/235 371/922/235 375/923/235
f 371/922/235 377/921/235 378/924/235
f 373/925/236 379/926/236 374/927/236
f 379/926/236 373/925/236 370/928/236
f 370/928/229 367/929/229 379/926/229
f 374/930/237 377/931/237 375/932/237
f 377/931/237 374/930/237 379/933/237
f 378/934/238 376/935/238 372/936/238
f 372/936/238 371/937/238 378/934/238
f 366/938/239 361/939/239 378/940/239
f 378/940/239 377/941/239 366/938/239
f 379/942/240 366/938/240 377/941/240
f 366/938/240 379/942/240 367/943/240
f 363/944/241 378/940/241 361/939/241
f 378/940/241 363/944/241 376/945/241
f 373/946/242 368/947/242 370/948/242
f 368/947/242 369/949/242 370/948/242
f 362/950/243 366/951/243 365/952/243
f 366/951/243 362/950/243 361/953/243
usemtl c_286f32
f 380/954/244 381/955/244 382/956/244
f 381/955/244 380/954/244 383/957/244
f 380/954/245 384/958/245 383/957/245
f 383/957/245 384/958/245 385/959/245
f 384/958/246 386/960/246 385/959/246
f 385/959/246 386/960/246 387/961/246
f 387/961/247 388/962/247 389/963/247
f 388/962/247 387/961/247 386/960/247
f 388/962/39 390/964/39 389/963/39
usemtl c_3e3e3e
f 391/965/248 392/966/248 393/967/248
f 392/966/248 391/965/248 394/968/248
f 395/969/248 394/968/248 391/965/248
f 391/965/248 396/970/248 395/969/248
f 397/971/249 398/972/249 399/973/249
f 399/973/249 398/972/249 400/974/249
f 401/975/250 400/974/250 398/972/250
f 400/974/250 401/975/250 402/976/250
f 397/977/251 403/978/251 404/979/251
f 403/978/251 397/977/251 399/980/251
f 405/981/252 393/982/252 406/983/252
f 393/982/252 392/984/252 406/983/252
f 407/985/253 398/986/253 408/987/253
f 398/986/253 407/985/253 401/988/253
f 398/986/253 404/989/253 408/987/253
f 397/990/253 404/989/253 398/986/253
f 405/991/254 409/992/254 393/993/254
f 393/993/254 409/992/254 391/994/254
f 410/995/255 391/994/255 409/992/255
f 391/994/255 410/995/255 396/996/255
f 403/997/256 408/998/256 404/999/256
f 408/998/256 403/997/256 411/1000/256
f 411/1000/257 412/1001/257 408/998/257
f 408/998/257 412/1001/257 407/1002/257
f 413/1003/258 409/1004/258 414/1005/258
f 409/1004/258 413/1003/258 410/1006/258
f 409/1004/258 406/1007/258 414/1005/258
f 405/1008/258 406/1007/258 409/1004/258
f 401/1009/259 412/1010/259 402/1011/259
f 412/1010/259 401/1009/259 407/1012/259
f 413/1013/260 395/1014/260 410/1015/260
f 395/1014/260 396/1016/260 410/1015/260
f 392/1017/261 394/1018/261 406/1019/261
f 406/1019/261 394/1018/261 414/1020/261
f 394/1018/262 395/1021/262 414/1020/262
f 414/1020/262 395/1021/262 413/1022/262
f 400/1023/263 403/1024/263 399/1025/263
f 403/1024/263 400/1023/263 411/1026/263
f 412/1027/263 411/1026/263 400/1023/263
f 400/1023/263 402/1028/263 412/1027/263
o LeftLeg
usemtl c_2f5331
f 415/1029/264 416/1030/264 417/1031/264
f 416/1030/264 415/1029/264 418/1032/264
f 419/1033/265 420/1034/265 421/1035/265
f 419/1033/265 421/1035/265 422/1036/265
f 419/1033/266 423/1037/266 420/1034/266
f 423/1037/266 419/1033/266 424/1038/266
f 415/1039/267 423/1037/267 424/1038/267
f 423/1037/267 415/1039/267 417/1040/267
f 422/1041/268 425/1042/268 419/1043/268
f 425/1042/268 422/1041/268 426/1044/268
f 424/1045/269 425/1042/269 427/1046/269
f 425/1042/269 424/1045/269 419/1043/269
f 427/1046/270 415/1047/270 424/1045/270
f 415/1047/270 427/1046/270 418/1048/270
f 421/1049/271 428/1050/271 426/1051/271
f 421/1049/271 426/1051/271 422/1052/271
f 428/1053/272 429/1054/272 426/1055/272
f 429/1054/272 425/1056/272 426/1055/272
f 430/1057/273 425/1056/273 429/1054/273
f 425/1056/273 430/1057/273 427/1058/273
f 430/1057/274 418/1059/274 427/1058/274
f 418/1059/274 430/1057/274 416/1060/274
f 421/1061/275 420/1062/275 428/1063/275
f 420/1062/275 429/1064/275 428/1063/275
f 420/1062/276 430/1065/276 429/1064/276
f 430/1065/276 420/1062/276 423/1066/276
f 417/1067/277 430/1065/277 423/1066/277
f 430/1065/277 417/1067/277 416/1068/277
o RightLeg
usemtl c_2f5331
f 431/1069/278 432/1070/278 433/1071/278
f 432/1070/278 434/1072/278 433/1071/278
f 435/1073/279 436/1074/279 437/1075/279
f 436/1074/279 435/1073/279 438/1076/279
f 439/1077/280 435/1073/280 437/1075/280
f 435/1073/280 439/1077/280 440/1078/280
f 439/1077/281 431/1079/281 433/1080/281
f 439/1077/281 433/1080/281 440/1078/281
f 441/1081/282 437/1082/282 436/1083/282
f 442/1084/282 437/1082/282 441/1081/282
f 437/1082/283 443/1085/283 439/1086/283
f 443/1085/283 437/1082/283 442/1084/283
f 431/1087/284 439/1086/284 443/1085/284
f 431/1087/284 443/1085/284 432/1088/284
f 436/1089/285 444/1090/285 441/1091/285
f 444/1090/285 436/1089/285 438/1092/285
f 445/1093/286 442/1094/286 444/1095/286
f 442/1094/286 441/1096/286 444/1095/286
f 443/1097/287 445/1093/287 446/1098/287
f 445/1093/287 443/1097/287 442/1094/287
f 434/1099/288 443/1097/288 446/1098/288
f 443/1097/288 434/1099/288 432/1100/288
f 438/1101/289 435/1102/289 445/1103/289
f 438/1101/289 445/1103/289 444/1104/289
f 440/1105/290 445/1103/290 435/1102/290
f 445/1103/290 440/1105/290 446/1106/290
f 433/1107/291 446/1106/291 440/1105/291
f 446/1106/291 433/1107/291 434/1108/291
