# Roblox asset pack: animal_crab (creatures), from the Studio model "Crab". Exported with Export Selection, split by tools/build_creatures.py: one object per rigid body. Units: studs. +Y up, front faces -Z, pivot (bottom centre) at the origin.
mtllib animal_crab.mtl

v -1.18600 0.67000 0.66000
v -1.26700 0.58000 0.53000
v -1.18600 0.53000 0.66000
v -1.26700 0.62000 0.53000
v -1.18600 0.67000 -0.66000
v -1.26700 0.58000 -0.53000
v -1.26700 0.62000 -0.53000
v -1.18600 0.53000 -0.66000
v -0.95800 0.75000 0.98000
v -0.95800 0.45000 0.98000
v -0.95800 0.75000 -0.98000
v -0.95800 0.45000 -0.98000
v 1.23600 0.00000 1.35000
v 1.23290 0.28000 1.34000
v 1.12120 0.00000 1.38000
v 1.11810 0.28000 1.37000
v 1.12120 0.00000 -1.38000
v 1.23290 0.28000 -1.34000
v 1.23600 0.00000 -1.35000
v 1.11810 0.28000 -1.37000
v 0.66420 0.00000 1.44000
v 0.66420 0.28000 1.43000
v 0.54370 0.00000 1.44000
v 0.54370 0.28000 1.43000
v 0.66420 0.28000 -1.43000
v 0.54370 0.00000 -1.44000
v 0.54370 0.28000 -1.43000
v 0.66420 0.00000 -1.44000
v 1.21370 0.72000 1.19000
v 1.10220 0.25000 1.41000
v 1.26660 0.25000 1.36000
v 1.04940 0.72000 1.24000
v 1.10220 0.25000 -1.41000
v 1.21370 0.72000 -1.19000
v 1.26660 0.25000 -1.36000
v 1.04940 0.72000 -1.24000
v -0.27400 0.83000 1.24000
v -0.27400 0.37000 1.24000
v -0.27400 0.83000 -1.24000
v -0.27400 0.37000 -1.24000
v -0.02200 0.31000 -1.35000
v 0.08600 0.03000 -1.41000
v -0.02700 0.03000 -1.37000
v 0.09120 0.31000 -1.40000
v 0.08600 0.03000 1.41000
v -0.02200 0.31000 1.35000
v -0.02700 0.03000 1.37000
v 0.09120 0.31000 1.40000
v 1.20920 0.74000 1.12000
v 1.02150 0.65000 1.21000
v 1.21660 0.65000 1.15000
v 1.01400 0.74000 1.18000
v 1.02150 0.65000 -1.21000
v 1.20920 0.74000 -1.12000
v 1.21660 0.65000 -1.15000
v 1.01400 0.74000 -1.18000
v 1.20860 0.63000 1.14000
v 1.03110 0.54000 1.22000
v 1.21560 0.54000 1.16000
v 1.02410 0.63000 1.20000
v 1.03110 0.54000 -1.22000
v 1.20860 0.63000 -1.14000
v 1.21560 0.54000 -1.16000
v 1.02410 0.63000 -1.20000
v 0.51770 0.72000 1.29000
v 0.51770 0.25000 1.46000
v 0.69020 0.25000 1.46000
v 0.69020 0.72000 1.29000
v 0.51770 0.72000 -1.29000
v 0.69020 0.25000 -1.46000
v 0.51770 0.25000 -1.46000
v 0.69020 0.72000 -1.29000
v 0.50150 0.65000 1.25000
v 0.70630 0.65000 1.25000
v 0.50150 0.74000 1.22000
v 0.70630 0.74000 1.22000
v 0.50150 0.74000 -1.22000
v 0.70630 0.65000 -1.25000
v 0.50150 0.65000 -1.25000
v 0.70630 0.74000 -1.22000
v 0.50710 0.54000 1.26000
v 0.70070 0.54000 1.26000
v 0.50710 0.63000 1.24000
v 0.70070 0.63000 1.24000
v 0.50710 0.63000 -1.24000
v 0.70070 0.54000 -1.26000
v 0.50710 0.54000 -1.26000
v 0.70070 0.63000 -1.24000
v 0.00760 0.74000 1.20000
v -0.05600 0.27000 1.37000
v 0.10510 0.28000 1.43000
v 0.16910 0.74000 1.26000
v 0.10510 0.28000 -1.43000
v -0.05600 0.27000 -1.37000
v 0.00760 0.74000 -1.20000
v 0.16910 0.74000 -1.26000
v 0.00650 0.66000 1.16000
v 0.19820 0.66000 1.23000
v 0.01580 0.76000 1.13000
v 0.20740 0.76000 1.20000
v 0.01580 0.76000 -1.13000
v 0.19820 0.66000 -1.23000
v 0.00650 0.66000 -1.16000
v 0.20740 0.76000 -1.20000
v 0.00610 0.56000 1.17000
v 0.18740 0.56000 1.24000
v 0.01480 0.65000 1.15000
v 0.19610 0.65000 1.22000
v 0.01480 0.65000 -1.15000
v 0.18740 0.56000 -1.24000
v 0.00610 0.56000 -1.17000
v 0.19610 0.65000 -1.22000
v 0.92660 0.44000 1.03000
v 1.18070 0.58000 0.91000
v 0.91650 0.58000 1.00000
v 1.19080 0.44000 0.94000
v 0.92660 0.44000 -1.03000
v 1.18070 0.58000 -0.91000
v 1.19080 0.44000 -0.94000
v 0.91650 0.58000 -1.00000
v 1.17640 0.73000 0.87000
v 0.90770 0.59000 1.00000
v 1.18710 0.59000 0.91000
v 0.89700 0.73000 0.96000
v 0.90770 0.59000 -1.00000
v 1.17640 0.73000 -0.87000
v 1.18710 0.59000 -0.91000
v 0.89700 0.73000 -0.96000
v -0.65000 0.54000 0.37000
v -0.70400 0.64000 0.29000
v -0.70400 0.56000 0.29000
v -0.65000 0.66000 0.37000
v -0.78400 0.59000 0.18000
v -0.74700 0.58000 0.23000
v -0.78400 0.61000 0.18000
v -0.74700 0.62000 0.23000
v -0.78400 0.61000 -0.18000
v -0.74700 0.58000 -0.23000
v -0.78400 0.59000 -0.18000
v -0.74700 0.62000 -0.23000
v -0.70400 0.64000 -0.29000
v -0.70400 0.56000 -0.29000
v -0.65000 0.54000 -0.37000
v -0.65000 0.66000 -0.37000
v 0.46530 0.44000 1.05000
v 0.74260 0.44000 1.05000
v 0.46530 0.58000 1.02000
v 0.74260 0.58000 1.02000
v 0.46530 0.58000 -1.02000
v 0.74260 0.44000 -1.05000
v 0.46530 0.44000 -1.05000
v 0.74260 0.58000 -1.02000
v 0.45730 0.59000 1.01000
v 0.75050 0.59000 1.01000
v 0.45730 0.73000 0.98000
v 0.75050 0.73000 0.98000
v 0.45730 0.73000 -0.98000
v 0.75050 0.59000 -1.01000
v 0.45730 0.59000 -1.01000
v 0.75050 0.73000 -0.98000
v -0.56600 0.71000 0.48000
v -0.56600 0.49000 0.48000
v -0.56600 0.71000 -0.48000
v -0.56600 0.49000 -0.48000
v 0.04140 0.46000 0.96000
v 0.30100 0.46000 1.06000
v 0.05390 0.59000 0.93000
v 0.31350 0.59000 1.03000
v 0.05390 0.59000 -0.93000
v 0.30100 0.46000 -1.06000
v 0.04140 0.46000 -0.96000
v 0.31350 0.59000 -1.03000
v 0.33550 0.74000 0.99000
v 0.06110 0.74000 0.89000
v 0.32230 0.60000 1.02000
v 0.04790 0.60000 0.92000
v 0.06110 0.74000 -0.89000
v 0.32230 0.60000 -1.02000
v 0.04790 0.60000 -0.92000
v 0.33550 0.74000 -0.99000
v -1.24600 0.58000 0.50000
v -1.24600 0.62000 0.50000
v -1.24600 0.58000 -0.50000
v -1.24600 0.62000 -0.50000
v 1.07770 0.22000 1.33000
v 1.24200 0.22000 1.28000
v 1.07770 0.22000 -1.33000
v 1.24200 0.22000 -1.28000
v 1.14340 0.51000 0.00000
v 1.14340 0.92000 0.60000
v 1.14340 0.51000 0.60000
v 1.14340 0.92000 0.00000
v 1.14340 0.51000 -0.60000
v 1.14340 0.92000 -0.60000
v 1.05400 0.20000 1.24000
v 1.23260 0.23000 1.26000
v 1.07720 0.23000 1.31000
v 1.20940 0.20000 1.19000
v 1.05400 0.20000 -1.24000
v 1.23260 0.23000 -1.26000
v 1.20940 0.20000 -1.19000
v 1.07720 0.23000 -1.31000
v 0.51770 0.22000 1.38000
v 0.69020 0.22000 1.38000
v 0.69020 0.22000 -1.38000
v 0.51770 0.22000 -1.38000
v 0.08530 1.36000 0.10000
v -0.19500 1.36000 0.10000
v -0.19500 1.36000 0.38000
v 0.08530 1.36000 0.38000
v -0.19500 1.36000 -0.38000
v -0.19500 1.36000 -0.10000
v 0.08530 1.36000 -0.10000
v 0.08530 1.36000 -0.38000
v 0.07700 1.35000 0.11000
v -0.18700 1.35000 0.11000
v -0.18700 1.35000 0.37000
v 0.07700 1.35000 0.37000
v -0.18700 1.35000 -0.37000
v -0.18700 1.35000 -0.11000
v 0.07700 1.35000 -0.11000
v 0.07700 1.35000 -0.37000
v -0.02800 0.24000 1.30000
v 0.13340 0.24000 1.36000
v -0.02800 0.24000 -1.30000
v 0.13340 0.24000 -1.36000
v 0.52240 0.20000 1.29000
v 0.68550 0.20000 1.29000
v 0.52240 0.23000 1.37000
v 0.68550 0.23000 1.37000
v 0.52240 0.23000 -1.37000
v 0.68550 0.20000 -1.29000
v 0.52240 0.20000 -1.29000
v 0.68550 0.23000 -1.37000
v 0.00380 1.34000 0.18000
v -0.11400 1.34000 0.30000
v 0.00380 1.34000 0.30000
v -0.11400 1.34000 0.18000
v -0.11400 1.34000 -0.30000
v -0.11400 1.34000 -0.18000
v 0.00380 1.34000 -0.18000
v 0.00380 1.34000 -0.30000
v 0.00880 0.22000 1.21000
v 0.13480 0.25000 1.34000
v -0.01800 0.25000 1.28000
v 0.16150 0.22000 1.27000
v 0.13480 0.25000 -1.34000
v 0.00880 0.22000 -1.21000
v -0.01800 0.25000 -1.28000
v 0.16150 0.22000 -1.27000
v 1.07630 0.50000 0.00000
v 1.07630 0.29000 0.54000
v 1.07630 0.23000 0.00000
v 1.07630 0.50000 0.54000
v 1.07630 0.29000 -0.54000
v 1.07630 0.50000 -0.54000
v -0.13900 1.28000 0.19000
v -0.19200 1.28000 0.29000
v -0.13900 1.28000 0.29000
v -0.19200 1.28000 0.19000
v -0.19200 1.28000 -0.29000
v -0.19200 1.28000 -0.19000
v -0.13900 1.28000 -0.19000
v -0.13900 1.28000 -0.29000
v -0.77100 0.59000 0.17000
v -0.77100 0.61000 0.17000
v -0.77100 0.59000 -0.17000
v -0.77100 0.61000 -0.17000
v -0.06500 0.51000 0.74000
v -0.06500 0.92000 0.74000
v -0.06500 0.51000 -0.74000
v -0.06500 0.92000 -0.74000
v 1.05650 0.92000 0.00000
v 1.06740 1.00000 0.49000
v 1.05650 0.92000 0.49000
v 1.06740 1.00000 -0.49000
v 1.05650 0.92000 -0.49000
v -0.00300 0.29000 0.66000
v -0.00300 0.50000 0.66000
v -0.00300 0.29000 -0.66000
v -0.00300 0.50000 -0.66000
v -0.00600 0.02000 1.31000
v 0.10720 0.02000 1.36000
v -0.00600 0.02000 -1.31000
v 0.10720 0.02000 -1.36000
v 1.10300 0.00000 1.32000
v 1.21780 0.00000 1.29000
v 1.10300 0.00000 -1.32000
v 1.21780 0.00000 -1.29000
v 0.54370 0.00000 1.38000
v 0.66420 0.00000 1.38000
v 0.66420 0.00000 -1.38000
v 0.54370 0.00000 -1.38000
v 0.02340 0.04000 1.25000
v 0.11000 0.04000 1.34000
v 0.00340 0.04000 1.30000
v 0.13000 0.04000 1.29000
v 0.98660 0.42000 0.28000
v 0.99110 0.42000 0.32000
v 0.11000 0.04000 -1.34000
v 0.02340 0.04000 -1.25000
v 0.00340 0.04000 -1.30000
v 0.13000 0.04000 -1.29000
v 0.98660 0.42000 -0.28000
v 0.99110 0.42000 -0.32000
v 1.08380 0.02000 1.25000
v 1.19240 0.02000 1.22000
v 1.10110 0.02000 1.31000
v 1.20970 0.02000 1.27000
v 1.19240 0.02000 -1.22000
v 1.08380 0.02000 -1.25000
v 1.10110 0.02000 -1.31000
v 1.20970 0.02000 -1.27000
v 0.54700 0.02000 1.31000
v 0.66090 0.02000 1.31000
v 0.54700 0.02000 1.37000
v 0.66090 0.02000 1.37000
v 0.54700 0.02000 -1.37000
v 0.66090 0.02000 -1.31000
v 0.54700 0.02000 -1.31000
v 0.66090 0.02000 -1.37000
v 0.08530 1.14000 0.10000
v -0.19500 1.14000 0.10000
v -0.19500 1.14000 0.38000
v 0.08530 1.14000 0.38000
v -0.19500 1.14000 -0.38000
v -0.19500 1.14000 -0.10000
v 0.08530 1.14000 -0.10000
v 0.08530 1.14000 -0.38000
v -0.94900 0.75000 0.60000
v -1.10100 0.67000 0.56000
v -0.94900 0.75000 -0.60000
v -1.10100 0.67000 -0.56000
v 1.07620 0.52000 0.72000
v 1.07660 0.53000 0.71000
v 1.07620 0.52000 -0.72000
v 1.07660 0.53000 -0.71000
v 0.05640 0.92000 0.61000
v 0.08940 1.14000 0.61000
v 0.08940 1.14000 -0.61000
v 0.05640 0.92000 -0.61000
v 0.97590 0.57000 0.24000
v 0.97590 0.57000 -0.24000
v 1.00120 0.29000 0.35000
v 1.00120 0.29000 -0.35000
v 1.06910 0.63000 0.68000
v 1.06910 0.63000 -0.68000
v -0.20600 0.51000 0.00000
v -0.20600 0.92000 0.00000
v 1.08320 0.43000 0.75000
v -0.19500 1.30000 0.10000
v -0.19500 1.30000 0.38000
v -0.19500 1.09000 0.10000
v -0.19500 1.09000 0.38000
v 1.08320 0.43000 -0.75000
v -0.19500 1.09000 -0.10000
v -0.19500 1.09000 -0.38000
v -0.19500 1.30000 -0.10000
v -0.19500 1.30000 -0.38000
v -0.19200 1.19000 0.19000
v -0.19200 1.19000 0.29000
v -0.19200 1.19000 -0.29000
v -0.19200 1.19000 -0.19000
v -0.94900 0.45000 0.60000
v -1.10100 0.53000 0.56000
v -0.94900 0.45000 -0.60000
v -1.10100 0.53000 -0.56000
v -0.18700 1.11000 0.11000
v -0.18700 1.11000 0.37000
v -0.18700 1.11000 -0.11000
v -0.18700 1.11000 -0.37000
v 1.18920 0.69000 1.11000
v 1.18920 0.69000 -1.11000
v 1.15940 0.65000 1.03000
v 1.18260 0.68000 1.11000
v 1.15940 0.65000 -1.03000
v 1.18260 0.68000 -1.11000
v 0.75050 0.42000 0.35000
v 0.74260 0.42000 0.39000
v 0.75050 0.42000 -0.35000
v 0.74260 0.42000 -0.39000
v 1.21460 0.28000 1.28000
v 1.21460 0.28000 -1.28000
v 1.20670 0.29000 1.26000
v 1.18940 0.28000 1.21000
v 1.18940 0.28000 -1.21000
v 1.20670 0.29000 -1.26000
v 0.70070 0.52000 0.80000
v 0.70630 0.53000 0.79000
v 0.70070 0.52000 -0.80000
v 0.70630 0.53000 -0.79000
v -0.70500 0.80000 0.57000
v -0.70500 0.80000 -0.57000
v 0.16900 0.47000 0.74000
v -0.03000 0.76000 0.93000
v -0.03000 0.44000 0.93000
v 0.16900 0.73000 0.74000
v 0.29160 0.49000 0.62000
v 0.29160 0.71000 0.62000
v 0.75050 0.57000 0.32000
v -0.03000 0.76000 -0.93000
v 0.16900 0.47000 -0.74000
v -0.03000 0.44000 -0.93000
v 0.16900 0.73000 -0.74000
v 0.29160 0.49000 -0.62000
v 0.29160 0.71000 -0.62000
v 0.75050 0.57000 -0.32000
v -0.12900 0.23000 0.00000
v -0.12900 0.50000 0.00000
v 0.74260 0.29000 0.42000
v 0.74260 0.29000 -0.42000
v -0.11400 0.87000 0.18000
v -0.11400 0.87000 0.30000
v -0.11400 0.87000 -0.18000
v -0.11400 0.87000 -0.30000
v 0.53240 0.42000 0.44000
v 0.55390 0.42000 0.41000
v 0.55390 0.42000 -0.41000
v 0.53240 0.42000 -0.44000
v 0.73690 0.29000 0.43000
v 0.73690 0.29000 -0.43000
v 0.70630 0.63000 0.76000
v 0.70630 0.63000 -0.76000
v 0.70070 0.43000 0.83000
v 0.70070 0.43000 -0.83000
v 0.35990 0.54000 0.80000
v 0.34900 0.53000 0.81000
v 0.35990 0.54000 -0.80000
v 0.34900 0.53000 -0.81000
v 0.08530 1.30000 0.38000
v 0.08530 1.09000 0.38000
v 0.08530 1.09000 -0.38000
v 0.08530 1.30000 -0.38000
v 0.69020 0.69000 1.21000
v 0.69020 0.69000 -1.21000
v 0.07700 1.11000 0.37000
v 0.07700 1.11000 -0.37000
v 0.68550 0.65000 1.12000
v 0.68550 0.68000 1.20000
v 0.68550 0.65000 -1.12000
v 0.68550 0.68000 -1.20000
v 0.56710 0.56000 0.37000
v 0.56710 0.56000 -0.37000
v 0.46530 0.29000 0.42000
v 0.46530 0.29000 -0.42000
v -0.70500 0.40000 0.57000
v -0.70500 0.40000 -0.57000
v 0.26040 0.29000 0.38000
v 0.51990 0.29000 0.48000
v 0.26040 0.29000 -0.38000
v 0.51990 0.29000 -0.48000
v 0.05640 0.92000 0.00000
v 0.89870 0.43000 0.80000
v 0.89870 0.43000 -0.80000
v 0.66420 0.28000 1.37000
v 0.66420 0.28000 -1.37000
v 0.66090 0.28000 1.30000
v 0.66090 0.29000 1.36000
v 0.66090 0.28000 -1.30000
v 0.66090 0.29000 -1.36000
v -0.37500 0.82000 0.76000
v -0.37500 0.82000 -0.76000
v 0.50710 0.43000 0.83000
v 0.50710 0.43000 -0.83000
v 0.36910 0.64000 0.77000
v 0.36910 0.64000 -0.77000
v 0.15900 0.44000 0.77000
v 0.34030 0.44000 0.84000
v 0.15900 0.44000 -0.77000
v 0.34030 0.44000 -0.84000
v 0.19740 0.71000 1.18000
v 0.19740 0.71000 -1.18000
v 0.22200 0.66000 -1.11000
v 0.19530 0.69000 -1.18000
v 0.22200 0.66000 1.11000
v 0.19530 0.69000 1.18000
v 0.00380 0.87000 0.30000
v 0.00380 0.87000 -0.30000
v -0.13900 1.19000 0.29000
v -0.13900 1.19000 -0.29000
v 0.11240 0.30000 1.34000
v 0.11240 0.30000 -1.34000
v 0.13500 0.30000 1.27000
v 0.11490 0.31000 1.32000
v 0.13500 0.30000 -1.27000
v 0.11490 0.31000 -1.32000
v -0.37500 0.38000 0.76000
v -0.37500 0.38000 -0.76000
v 1.09820 0.29000 1.30000
v 1.09980 0.28000 1.31000
v 1.09980 0.28000 -1.31000
v 1.09820 0.29000 -1.30000
v 0.54700 0.29000 1.36000
v 0.54370 0.28000 1.37000
v 0.54700 0.29000 -1.36000
v 0.54370 0.28000 -1.37000
v -0.56600 0.66000 0.27000
v -0.65000 0.64000 0.23000
v -0.71500 0.62000 0.20000
v -0.71500 0.62000 -0.20000
v -0.65000 0.64000 -0.23000
v -0.56600 0.66000 -0.27000
v 0.00000 0.30000 1.30000
v 0.00830 0.31000 1.28000
v 0.00000 0.30000 -1.30000
v 0.00830 0.31000 -1.28000
v -0.56600 0.54000 0.27000
v -0.65000 0.56000 0.23000
v -0.71500 0.58000 0.20000
v -0.56600 0.54000 -0.27000
v -0.65000 0.56000 -0.23000
v -0.71500 0.58000 -0.20000
v 0.27290 0.42000 0.35000
v 0.27940 0.42000 0.31000
v -0.34900 0.71000 0.42000
v 0.27290 0.42000 -0.35000
v 0.27940 0.42000 -0.31000
v -0.34900 0.71000 -0.42000
v 0.45730 0.42000 0.35000
v 0.46530 0.42000 0.39000
v 0.45730 0.42000 -0.35000
v 0.46530 0.42000 -0.39000
v 0.72680 0.42000 0.40000
v 0.70720 0.42000 0.37000
v 0.70720 0.42000 -0.37000
v 0.72680 0.42000 -0.40000
v -0.22400 0.76000 0.67000
v 0.01200 0.73000 0.53000
v 0.15740 0.71000 0.44000
v -0.22400 0.76000 -0.67000
v 0.01200 0.73000 -0.53000
v 0.15740 0.71000 -0.44000
v -0.34900 0.49000 0.42000
v -0.34900 0.49000 -0.42000
v -0.22400 0.44000 0.67000
v 0.01200 0.47000 0.53000
v 0.15740 0.49000 0.44000
v -0.22400 0.44000 -0.67000
v 0.01200 0.47000 -0.53000
v 0.15740 0.49000 -0.44000
v 0.16770 0.53000 0.74000
v 0.16820 0.54000 0.73000
v 0.16770 0.53000 -0.74000
v 0.16820 0.54000 -0.73000
v 0.29260 0.56000 0.27000
v 0.29260 0.56000 -0.27000
v 0.45730 0.57000 0.32000
v 0.45730 0.57000 -0.32000
v 0.50710 0.52000 0.80000
v 0.50150 0.53000 0.79000
v 0.50150 0.53000 -0.79000
v 0.50710 0.52000 -0.80000
v 0.08530 1.09000 0.10000
v 0.08530 1.30000 0.10000
v 0.69650 0.57000 0.33000
v 0.08530 1.09000 -0.10000
v 0.08530 1.30000 -0.10000
v 0.69650 0.57000 -0.33000
v 0.07700 1.11000 0.11000
v 0.07700 1.11000 -0.11000
v 0.17750 0.64000 0.70000
v 0.17750 0.64000 -0.70000
v 0.50150 0.63000 0.76000
v 0.50150 0.63000 -0.76000
v 0.03590 0.71000 1.12000
v 0.03590 0.71000 -1.12000
v 0.06940 0.66000 1.05000
v 0.04260 0.69000 1.12000
v 0.06940 0.66000 -1.05000
v 0.04260 0.69000 -1.12000
v 0.87400 0.63000 0.74000
v 0.87400 0.63000 -0.74000
v 0.02830 0.30000 1.23000
v 0.02830 0.30000 -1.23000
v 0.88140 0.53000 0.77000
v 0.89160 0.52000 0.78000
v 0.88140 0.53000 -0.77000
v 0.89160 0.52000 -0.78000
v 0.00380 0.87000 0.18000
v 0.00380 0.87000 -0.18000
v -0.13900 1.19000 0.19000
v -0.13900 1.19000 -0.19000
v 0.51770 0.69000 1.21000
v 0.51770 0.69000 -1.21000
v 0.52240 0.65000 1.12000
v 0.52240 0.68000 1.20000
v 0.52240 0.68000 -1.20000
v 0.52240 0.65000 -1.12000
v 0.54700 0.28000 1.30000
v 0.54700 0.28000 -1.30000
v 1.02480 0.69000 1.16000
v 1.02480 0.69000 -1.16000
v 1.00400 0.65000 1.08000
v 1.02720 0.68000 1.16000
v 1.00400 0.65000 -1.08000
v 1.02720 0.68000 -1.16000
v 1.08090 0.28000 1.24000
v 1.08090 0.28000 -1.24000
vt 0.75608 0.03724
vt 0.77864 0.00371
vt 0.78643 0.04047
vt 0.77142 0.00294
vt 1.75608 0.03724
vt 1.77864 0.00371
vt 1.77142 0.00294
vt 1.78643 0.04047
vt 0.72709 0.12482
vt 0.79637 0.13218
vt 1.72709 0.12482
vt 1.79637 0.13218
vt 1.49699 0.76629
vt 1.49700 0.70210
vt 1.52465 0.76629
vt 1.52466 0.70210
vt 0.49700 0.76629
vt 0.49700 0.70210
vt 0.52465 0.76629
vt 0.52466 0.70210
vt 1.92273 0.48787
vt 1.96234 0.60338
vt 1.92274 0.60338
vt 1.96233 0.48787
vt 0.69147 0.29038
vt 0.79640 0.30153
vt 1.69147 0.29038
vt 1.79640 0.30153
vt 1.52328 0.34554
vt 1.57029 0.36905
vt 1.52327 0.36904
vt 1.57029 0.34554
vt 1.52455 0.37285
vt 1.56901 0.39508
vt 1.52455 0.39508
vt 1.56901 0.37286
vt 0.96233 0.48787
vt 0.96234 0.60338
vt 0.92274 0.60338
vt 0.92273 0.48787
vt 0.57029 0.36905
vt 0.52328 0.36904
vt 0.57029 0.34554
vt 0.52328 0.34554
vt 0.56901 0.39508
vt 0.52455 0.39508
vt 0.56901 0.37286
vt 0.52455 0.37285
vt 1.29180 0.82662
vt 1.25998 0.89028
vt 1.25997 0.82663
vt 1.29181 0.89028
vt 1.22369 0.89212
vt 1.25734 0.82480
vt 1.25735 0.89211
vt 1.22368 0.82480
vt 0.70242 0.03438
vt 0.72674 0.05589
vt 0.70745 0.05589
vt 0.73177 0.03437
vt 0.71479 0.08729
vt 0.71140 0.07281
vt 0.71941 0.08729
vt 0.72279 0.07281
vt 1.71941 0.08729
vt 1.71140 0.07281
vt 1.71479 0.08729
vt 1.72279 0.07281
vt 1.72674 0.05589
vt 1.70745 0.05589
vt 1.70242 0.03438
vt 1.73177 0.03437
vt 0.29180 0.82662
vt 0.29181 0.89028
vt 0.25997 0.82663
vt 0.25998 0.89028
vt 0.25734 0.82480
vt 0.25735 0.89211
vt 0.22368 0.82480
vt 0.22369 0.89212
vt 0.74271 0.00294
vt 0.69147 0.00295
vt 1.74271 0.00294
vt 1.69147 0.00295
vt 0.61057 0.59870
vt 0.60199 0.60433
vt 0.60346 0.59722
vt 0.60909 0.60581
vt 1.60346 0.59722
vt 1.60199 0.60433
vt 1.61057 0.59870
vt 1.60909 0.60581
vt 1.04253 0.85193
vt 1.00293 0.85194
vt 1.04253 0.83213
vt 1.00293 0.83214
vt 0.80184 0.14168
vt 0.89640 0.28041
vt 0.80184 0.28041
vt 0.89640 0.14168
vt 0.80184 0.00294
vt 0.89640 0.00294
vt 1.04146 0.87493
vt 1.00401 0.85622
vt 1.04146 0.85621
vt 1.00401 0.87494
vt 0.04253 0.85193
vt 0.00293 0.85194
vt 0.04253 0.83213
vt 0.00293 0.83214
vt 0.65993 0.87035
vt 0.72436 0.87035
vt 0.72436 0.93478
vt 0.65993 0.93478
vt 1.72436 0.93478
vt 1.72436 0.87035
vt 1.65993 0.87035
vt 1.65993 0.93478
vt 0.91222 0.72050
vt 0.97285 0.72050
vt 0.97285 0.78113
vt 0.91222 0.78113
vt 1.97285 0.78113
vt 1.97285 0.72050
vt 1.91222 0.72050
vt 1.91222 0.78113
vt 0.04146 0.87493
vt 0.00401 0.87494
vt 0.04146 0.85621
vt 0.00401 0.85622
vt 0.41290 0.28887
vt 0.43993 0.26183
vt 0.43993 0.28887
vt 0.41290 0.26183
vt 1.43993 0.26183
vt 1.41290 0.26183
vt 1.41290 0.28887
vt 1.43993 0.28887
vt 0.16506 0.45946
vt 0.11662 0.58338
vt 0.10279 0.45946
vt 0.16506 0.58338
vt 0.11662 0.33555
vt 0.16506 0.33555
vt 0.31829 0.00294
vt 0.33054 0.02642
vt 0.31829 0.02642
vt 0.33054 0.00294
vt 1.33054 0.02642
vt 1.33054 0.00294
vt 1.31829 0.00294
vt 1.31829 0.02642
vt 0.51924 0.63992
vt 0.51461 0.64454
vt 0.51461 0.63992
vt 0.51924 0.64454
vt 1.51461 0.63992
vt 1.51461 0.64454
vt 1.51924 0.63992
vt 1.51924 0.64454
vt 0.72820 0.58712
vt 0.72825 0.86640
vt 0.63365 0.58714
vt 0.63370 0.86641
vt 0.09753 0.60672
vt 0.00293 0.32746
vt 0.09748 0.32745
vt 0.00297 0.60674
vt 0.95952 0.26815
vt 0.97638 0.38167
vt 0.95952 0.38167
vt 0.97638 0.15464
vt 0.95952 0.15464
vt 0.40878 0.63833
vt 0.40881 0.88777
vt 0.36034 0.63834
vt 0.36038 0.88778
vt 0.89237 0.84766
vt 0.84389 0.59823
vt 0.89233 0.59822
vt 0.84393 0.84767
vt 1.68233 0.29967
vt 1.65468 0.28585
vt 1.68233 0.28585
vt 1.65468 0.29968
vt 0.68233 0.29967
vt 0.65468 0.29968
vt 0.68233 0.28585
vt 0.65468 0.28585
vt 1.68158 0.31888
vt 1.65543 0.30580
vt 1.68158 0.30580
vt 1.65543 0.31888
vt 1.48471 0.13368
vt 1.48472 0.28991
vt 1.48152 0.14244
vt 1.48152 0.29018
vt 0.68158 0.31888
vt 0.65543 0.31888
vt 0.68158 0.30580
vt 0.65543 0.30580
vt 0.00293 0.95393
vt 0.00293 0.88950
vt 0.06735 0.88950
vt 0.06735 0.95393
vt 1.06735 0.88950
vt 1.00293 0.88950
vt 1.00293 0.95393
vt 1.06735 0.95393
vt 0.60863 0.36588
vt 0.64208 0.31680
vt 0.69029 0.39544
vt 0.61262 0.32477
vt 1.60863 0.36588
vt 1.64208 0.31680
vt 1.61262 0.32477
vt 1.69029 0.39544
vt 1.92394 0.15780
vt 1.92685 0.26375
vt 1.92394 0.26098
vt 1.92685 0.15464
vt 0.50063 0.63833
vt 0.46681 0.86688
vt 0.44969 0.63839
vt 0.44995 0.86690
vt 0.33659 0.93093
vt 0.35347 0.70242
vt 0.35345 0.93094
vt 0.30252 0.70242
vt 1.51837 0.13368
vt 1.51837 0.28991
vt 1.44970 0.29018
vt 1.44969 0.14244
vt 0.02922 0.05365
vt 0.25624 0.30666
vt 0.02921 0.28068
vt 0.25625 0.02770
vt 1.95035 0.15463
vt 1.95036 0.26375
vt 0.82807 0.49536
vt 0.73352 0.66886
vt 0.73352 0.49536
vt 0.82807 0.66886
vt 0.73353 0.84236
vt 0.82808 0.84236
vt 1.90171 0.26098
vt 1.90171 0.15780
vt 0.35683 0.06371
vt 0.34457 0.12813
vt 0.34457 0.06371
vt 0.35683 0.12813
vt 0.48233 0.39401
vt 0.47072 0.45844
vt 0.47072 0.39401
vt 0.48233 0.45844
vt 1.47071 0.45844
vt 1.48233 0.39401
vt 1.47071 0.39401
vt 1.48233 0.45844
vt 1.35683 0.06371
vt 1.34457 0.12813
vt 1.35683 0.12813
vt 1.34457 0.06371
vt 0.02444 0.02642
vt 0.00293 0.02642
vt 0.00293 0.00294
vt 0.02444 0.00294
vt 1.00293 0.00294
vt 1.00293 0.02642
vt 1.02444 0.02642
vt 1.02444 0.00294
vt 0.27306 0.70083
vt 0.24350 0.61916
vt 0.32214 0.66738
vt 0.31417 0.69684
vt 1.32214 0.66738
vt 1.24350 0.61916
vt 1.27306 0.70083
vt 1.31417 0.69684
vt 0.97302 0.78507
vt 0.91748 0.84570
vt 0.91748 0.78507
vt 0.97302 0.84570
vt 1.97302 0.78507
vt 1.91748 0.84570
vt 1.97302 0.84570
vt 1.91748 0.78507
vt 1.80587 0.47614
vt 1.78608 0.36063
vt 1.80587 0.36063
vt 1.78608 0.47614
vt 1.82758 0.47312
vt 1.80885 0.36389
vt 1.82758 0.36389
vt 1.80885 0.47312
vt 0.48471 0.13368
vt 0.48472 0.28991
vt 0.48152 0.14244
vt 0.48152 0.29018
vt 1.69672 0.55624
vt 1.69673 0.49206
vt 1.71055 0.55624
vt 1.71055 0.49206
vt 1.71420 0.55773
vt 1.71420 0.49703
vt 1.72728 0.55773
vt 1.72728 0.49703
vt 0.92394 0.15780
vt 0.92686 0.26375
vt 0.92394 0.26098
vt 0.92685 0.15464
vt 0.58094 0.41638
vt 1.58094 0.41638
vt 0.75737 0.45335
vt 0.69734 0.38368
vt 0.77105 0.39152
vt 0.69772 0.44702
vt 0.74894 0.49142
vt 0.69796 0.48601
vt 0.51837 0.28991
vt 0.51837 0.13368
vt 1.69734 0.38368
vt 1.75737 0.45335
vt 1.77105 0.39152
vt 1.69773 0.44702
vt 1.74894 0.49142
vt 1.69796 0.48601
vt 0.83338 0.43932
vt 0.84721 0.28435
vt 0.89565 0.43932
vt 0.89564 0.28435
vt 0.84721 0.59428
vt 0.89565 0.59428
vt 0.44970 0.29018
vt 0.44969 0.14244
vt 0.97004 0.49352
vt 0.97004 0.38561
vt 0.99707 0.38561
vt 0.99707 0.49352
vt 1.97004 0.38561
vt 1.97004 0.49352
vt 1.99707 0.38561
vt 1.99707 0.49352
vt 1.90172 0.00294
vt 1.96536 0.15069
vt 1.90171 0.15069
vt 1.96538 0.00295
vt 0.95036 0.26375
vt 0.95035 0.15463
vt 0.90171 0.15780
vt 0.90171 0.26098
vt 0.44092 0.12285
vt 0.44092 0.18727
vt 0.42867 0.12285
vt 0.42867 0.18727
vt 0.99216 0.18317
vt 0.99216 0.24759
vt 0.98055 0.18317
vt 0.98055 0.24759
vt 1.98055 0.18317
vt 1.99216 0.24759
vt 1.99216 0.18317
vt 1.98055 0.24759
vt 1.42867 0.12285
vt 1.44092 0.18727
vt 1.44092 0.12285
vt 1.42867 0.18727
vt 0.78608 0.47614
vt 0.78608 0.36063
vt 0.80588 0.36063
vt 0.80587 0.47614
vt 0.32128 0.89422
vt 0.32128 0.95485
vt 0.26573 0.89422
vt 0.26573 0.95485
vt 1.26573 0.89422
vt 1.32128 0.95485
vt 1.32128 0.89422
vt 1.26573 0.95485
vt 0.82758 0.47312
vt 0.80886 0.36389
vt 0.82758 0.36389
vt 0.80885 0.47312
vt 0.96536 0.15069
vt 0.90172 0.00294
vt 0.96538 0.00295
vt 0.90171 0.15069
vt 0.22256 0.72851
vt 1.22255 0.72851
vt 0.56781 0.31289
vt 0.62807 0.17341
vt 0.59576 0.34387
vt 0.31829 0.31214
vt 0.56781 0.17341
vt 0.33823 0.28692
vt 0.56781 0.03393
vt 0.31829 0.17341
vt 0.59576 0.00294
vt 0.33823 0.17341
vt 0.31829 0.03468
vt 0.33823 0.05989
vt 1.90171 0.48392
vt 1.94617 0.38074
vt 1.94616 0.48393
vt 1.90172 0.38074
vt 0.71055 0.49206
vt 0.71055 0.55624
vt 0.69673 0.49206
vt 0.69672 0.55624
vt 0.72728 0.49703
vt 0.72728 0.55773
vt 0.71420 0.49703
vt 0.71420 0.55773
vt 0.59533 0.50313
vt 0.69029 0.56479
vt 1.59533 0.50313
vt 1.69029 0.56479
vt 0.62152 0.28535
vt 0.61452 0.28724
vt 1.62152 0.28535
vt 1.61452 0.28724
vt 0.19218 0.48395
vt 0.44004 0.33111
vt 0.46887 0.48400
vt 0.19219 0.35926
vt 0.43998 0.63687
vt 0.19215 0.60863
vt 0.94616 0.48393
vt 0.90172 0.38074
vt 0.94617 0.38074
vt 0.90171 0.48392
vt 0.63365 0.00294
vt 0.68459 0.00294
vt 0.63365 0.14242
vt 0.68459 0.28190
vt 0.63365 0.28190
vt 0.55557 0.14317
vt 0.55557 0.25108
vt 0.52853 0.25108
vt 0.52853 0.14317
vt 1.55557 0.14317
vt 1.52853 0.25108
vt 1.55557 0.25108
vt 1.52853 0.14317
vt 0.35157 0.00294
vt 0.35157 0.02445
vt 0.33931 0.02445
vt 0.33931 0.00294
vt 1.35157 0.00294
vt 1.33931 0.02445
vt 1.35157 0.02445
vt 1.33931 0.00294
vt 0.13580 0.71412
vt 0.07415 0.61916
vt 1.13580 0.71412
vt 1.07415 0.61916
vt 0.35359 0.68794
vt 0.35169 0.69495
vt 1.35359 0.68794
vt 1.35169 0.69495
vt 1.51877 0.50954
vt 1.54492 0.50955
vt 1.54568 0.51342
vt 1.51802 0.51341
vt 0.51877 0.50954
vt 0.54492 0.50955
vt 0.54568 0.51342
vt 0.51802 0.51341
vt 0.01946 0.04894
vt 0.01867 0.17279
vt 0.00293 0.17273
vt 0.00395 0.03381
vt 0.01856 0.29664
vt 0.00293 0.31166
vt 0.49808 0.42362
vt 0.51166 0.39412
vt 0.52494 0.41178
vt 0.49400 0.40190
vt 0.49080 0.38483
vt 0.50122 0.38024
vt 0.48805 0.37022
vt 0.49228 0.36835
vt 1.48805 0.37022
vt 1.50122 0.38024
vt 1.49228 0.36835
vt 1.49080 0.38483
vt 1.51166 0.39412
vt 1.49400 0.40190
vt 1.49808 0.42362
vt 1.52494 0.41178
vt 0.28162 0.00293
vt 0.26719 0.02137
vt 0.28037 0.34456
vt 0.26607 0.32602
vt 0.31377 0.17387
vt 0.29576 0.17380
vt 0.21531 0.81137
vt 0.22715 0.78452
vt 0.24481 0.79780
vt 0.23703 0.81545
vt 0.25410 0.81866
vt 0.25869 0.80824
vt 0.26871 0.82141
vt 0.27058 0.81718
vt 1.24481 0.79780
vt 1.22715 0.78452
vt 1.21531 0.81137
vt 1.23703 0.81545
vt 1.25869 0.80824
vt 1.26871 0.82141
vt 1.27058 0.81718
vt 1.25410 0.81866
vt 1.30253 0.00476
vt 1.31166 0.07024
vt 1.30252 0.06841
vt 1.31167 0.00293
vt 0.54385 0.43916
vt 0.51645 0.48247
vt 1.54385 0.43916
vt 1.51645 0.48247
vt 0.31167 0.00293
vt 0.30252 0.06841
vt 0.30253 0.00476
vt 0.31166 0.07024
vt 0.56116 0.52875
vt 0.54366 0.61903
vt 0.51169 0.56829
vt 0.60068 0.59145
vt 0.48123 0.59263
vt 0.50856 0.63600
vt 1.54366 0.61903
vt 1.56116 0.52875
vt 1.51169 0.56829
vt 1.60068 0.59145
vt 1.48123 0.59263
vt 1.50856 0.63600
vt 0.62498 0.74034
vt 0.54653 0.76300
vt 0.53379 0.72138
vt 0.59670 0.77344
vt 1.54653 0.76300
vt 1.62498 0.74034
vt 1.53379 0.72138
vt 1.59670 0.77344
vt 1.21698 0.85192
vt 1.06075 0.85190
vt 1.06951 0.84871
vt 1.21725 0.84872
vt 0.19977 0.76560
vt 0.15647 0.79301
vt 1.19977 0.76560
vt 1.15647 0.79301
vt 0.11019 0.74829
vt 0.01991 0.76578
vt 0.04748 0.70877
vt 0.07065 0.79776
vt 0.04630 0.82822
vt 0.00293 0.80088
vt 1.11019 0.74829
vt 1.01991 0.76578
vt 1.07065 0.79776
vt 1.04748 0.70877
vt 1.04630 0.82822
vt 1.00293 0.80088
vt 0.21698 0.85192
vt 0.06075 0.85190
vt 0.06951 0.84871
vt 0.21725 0.84872
vt 1.84263 0.87676
vt 1.73668 0.87384
vt 1.83986 0.87384
vt 1.73352 0.87675
vt 1.55906 0.77086
vt 1.49174 0.92709
vt 1.49175 0.77086
vt 1.55905 0.92710
vt 0.55906 0.77086
vt 0.55905 0.92710
vt 0.49175 0.77086
vt 0.49174 0.92709
vt 0.84263 0.87676
vt 0.73668 0.87384
vt 0.83986 0.87384
vt 0.73352 0.87675
vt 1.06075 0.88556
vt 1.21698 0.88558
vt 1.06951 0.81688
vt 1.21725 0.81690
vt 0.17112 0.33804
vt 0.18273 0.40247
vt 0.17112 0.40247
vt 0.18273 0.33804
vt 0.27799 0.19434
vt 0.26573 0.12991
vt 0.27799 0.12991
vt 0.26573 0.19434
vt 1.17112 0.33804
vt 1.17112 0.40247
vt 1.18273 0.40247
vt 1.18273 0.33804
vt 1.26573 0.12991
vt 1.27799 0.19434
vt 1.27799 0.12991
vt 1.26573 0.19434
vt 0.07651 0.88951
vt 0.13206 0.95014
vt 0.07651 0.95014
vt 0.13206 0.88951
vt 1.07651 0.95014
vt 1.13206 0.95014
vt 1.07651 0.88951
vt 1.13206 0.88951
vt 1.90171 0.37680
vt 1.94873 0.26769
vt 1.94872 0.37680
vt 1.90172 0.26769
vt 0.90172 0.26769
vt 0.94872 0.37680
vt 0.90171 0.37680
vt 0.94873 0.26769
vt 1.84263 0.90026
vt 1.73352 0.90026
vt 1.73668 0.85161
vt 1.83986 0.85162
vt 1.84915 0.87332
vt 1.96466 0.87334
vt 1.96466 0.89314
vt 1.84915 0.89312
vt 1.85218 0.85162
vt 1.96141 0.85164
vt 1.96141 0.87036
vt 1.85217 0.87034
vt 0.21698 0.88558
vt 0.06075 0.88556
vt 0.06951 0.81688
vt 0.21725 0.81690
vt 1.83240 0.28435
vt 1.81858 0.34854
vt 1.81857 0.28435
vt 1.83240 0.34854
vt 1.81492 0.28933
vt 1.80185 0.35003
vt 1.80184 0.28933
vt 1.81493 0.35003
vt 0.02996 0.61068
vt 0.00293 0.71859
vt 0.00293 0.61068
vt 0.02996 0.71859
vt 1.00293 0.61068
vt 1.00293 0.71859
vt 1.02996 0.61068
vt 1.02996 0.71859
vt 0.84263 0.90026
vt 0.73352 0.90026
vt 0.62488 0.03036
vt 0.61263 0.05187
vt 0.61263 0.03036
vt 0.62488 0.05187
vt 1.61263 0.05187
vt 1.62488 0.03036
vt 1.61263 0.03036
vt 1.62488 0.05187
vt 0.73668 0.85161
vt 0.83986 0.85162
vt 0.84915 0.89312
vt 0.96466 0.87334
vt 0.96466 0.89314
vt 0.84915 0.87332
vt 0.85218 0.85162
vt 0.96141 0.85164
vt 0.96141 0.87036
vt 0.85217 0.87034
vt 0.98055 0.25153
vt 0.99216 0.31596
vt 0.98055 0.31596
vt 0.99216 0.25153
vt 0.98055 0.11480
vt 0.99280 0.17922
vt 0.98055 0.17922
vt 0.99280 0.11480
vt 1.99216 0.31596
vt 1.98055 0.25153
vt 1.98055 0.31596
vt 1.99216 0.25153
vt 1.99280 0.17922
vt 1.98055 0.11480
vt 1.98055 0.17922
vt 1.99280 0.11480
vt 0.83240 0.28435
vt 0.81858 0.34854
vt 0.81857 0.28435
vt 0.83240 0.34854
vt 0.81492 0.28933
vt 0.80185 0.35003
vt 0.80184 0.28933
vt 0.81493 0.35003
vt 0.13959 0.88952
vt 0.19514 0.95014
vt 0.13959 0.95014
vt 0.19514 0.88952
vt 1.19513 0.95014
vt 1.13959 0.88952
vt 1.13959 0.95014
vt 1.19513 0.88952
vt 1.50963 0.48683
vt 1.47598 0.55415
vt 1.47597 0.48684
vt 1.50964 0.55414
vt 0.55935 0.13924
vt 0.51855 0.05252
vt 0.55935 0.03991
vt 0.51855 0.12664
vt 1.51855 0.05252
vt 1.55935 0.13924
vt 1.55935 0.03991
vt 1.51855 0.12664
vt 1.69558 0.08417
vt 1.69147 0.03844
vt 1.69557 0.03716
vt 1.69148 0.08289
vt 1.45495 0.33472
vt 1.47475 0.33472
vt 1.47475 0.37432
vt 1.45495 0.37432
vt 1.26048 0.77819
vt 1.29230 0.71453
vt 1.29231 0.77818
vt 1.26047 0.71453
vt 0.47475 0.33472
vt 0.47475 0.37432
vt 0.45495 0.33472
vt 0.45495 0.37432
vt 1.45495 0.58921
vt 1.47367 0.58921
vt 1.47367 0.62666
vt 1.45495 0.62666
vt 0.45561 0.05959
vt 0.45561 0.11957
vt 0.41686 0.06395
vt 0.41686 0.11522
vt 1.41686 0.06395
vt 1.45561 0.11957
vt 1.45561 0.05959
vt 1.41686 0.11522
vt 0.50964 0.55414
vt 0.47597 0.48684
vt 0.50963 0.48683
vt 0.47598 0.55415
vt 0.99707 0.56211
vt 0.97004 0.58914
vt 0.97004 0.56211
vt 0.99707 0.58914
vt 0.99707 0.00294
vt 0.97004 0.11086
vt 0.97004 0.00294
vt 0.99707 0.11086
vt 0.47368 0.58921
vt 0.47367 0.62666
vt 0.45495 0.58921
vt 0.45495 0.62666
vt 1.97004 0.58914
vt 1.99707 0.58914
vt 1.99707 0.56211
vt 1.97004 0.56211
vt 1.97004 0.11086
vt 1.99707 0.00294
vt 1.97004 0.00294
vt 1.99707 0.11086
vt 0.69557 0.03716
vt 0.69148 0.08289
vt 0.69147 0.03844
vt 0.69558 0.08417
vt 0.54493 0.49647
vt 0.51878 0.49647
vt 1.54493 0.49647
vt 1.51877 0.49647
vt 0.51802 0.52724
vt 0.54567 0.52724
vt 1.51802 0.52724
vt 1.54567 0.52724
vt 0.29231 0.77818
vt 0.26047 0.71453
vt 0.29230 0.71453
vt 0.26048 0.77819
vt 0.36560 0.11522
vt 0.36559 0.06395
vt 1.36560 0.11522
vt 1.36559 0.06395
vt 0.55675 0.66857
vt 0.62497 0.68275
vt 1.55675 0.66857
vt 1.62497 0.68275
vt 0.48258 0.87084
vt 0.41816 0.93527
vt 0.41816 0.87084
vt 0.48258 0.93527
vt 1.41815 0.93527
vt 1.48258 0.93527
vt 1.48258 0.87084
vt 1.41815 0.87084
vt 0.62595 0.83799
vt 0.56532 0.77737
vt 0.62595 0.77737
vt 0.56532 0.83800
vt 1.56532 0.77737
vt 1.56532 0.83800
vt 1.62595 0.83799
vt 1.62595 0.77737
vt 0.61962 0.02642
vt 0.60737 0.00294
vt 0.61962 0.00294
vt 0.60737 0.02642
vt 1.61962 0.02642
vt 1.61962 0.00294
vt 1.60737 0.00294
vt 1.60737 0.02642
vt 0.36860 0.17998
vt 0.44390 0.25788
vt 0.34457 0.25790
vt 0.41984 0.17997
vt 1.44390 0.25788
vt 1.36860 0.17998
vt 1.34457 0.25790
vt 1.41985 0.17997
vt 0.52657 0.67594
vt 0.51123 0.65902
vt 0.52262 0.65902
vt 0.50728 0.67594
vt 0.53160 0.69746
vt 0.50225 0.69746
vt 1.51123 0.65902
vt 1.52262 0.65902
vt 1.52657 0.67594
vt 1.50728 0.67594
vt 1.53160 0.69746
vt 1.50225 0.69746
vt 1.69147 0.13824
vt 1.71497 0.09123
vt 1.71498 0.13824
vt 1.69147 0.09123
vt 1.55076 0.25502
vt 1.52854 0.29948
vt 1.52853 0.25502
vt 1.55076 0.29948
vt 0.37954 0.11931
vt 0.40888 0.11931
vt 1.37954 0.11931
vt 1.40888 0.11931
vt 0.65077 0.93478
vt 0.58635 0.87036
vt 0.65077 0.87036
vt 0.58635 0.93478
vt 1.58635 0.87036
vt 1.58635 0.93478
vt 1.65077 0.93478
vt 1.65077 0.87036
vt 0.71498 0.13824
vt 0.69147 0.09123
vt 0.71497 0.09123
vt 0.69147 0.13824
vt 0.55076 0.29948
vt 0.52853 0.25502
vt 0.55076 0.25502
vt 0.52854 0.29948
vt 0.58332 0.63694
vt 0.61321 0.64316
vt 1.58332 0.63694
vt 1.61321 0.64316
vt 1.62314 0.05687
vt 1.62724 0.09540
vt 1.62314 0.09432
vt 1.62725 0.05580
vt 1.96019 0.71656
vt 1.92273 0.60733
vt 1.96018 0.60732
vt 1.92274 0.71656
vt 0.62725 0.05580
vt 0.62314 0.09432
vt 0.62314 0.05687
vt 0.62724 0.09540
vt 0.96018 0.60732
vt 0.92274 0.71656
vt 0.92273 0.60733
vt 0.96018 0.71656
vt 1.99619 0.55816
vt 1.97004 0.49746
vt 1.99619 0.49747
vt 1.97004 0.55816
vt 0.99619 0.55816
vt 0.97004 0.49746
vt 0.99620 0.49747
vt 0.97004 0.55816
vn -0.8583 0.0000 0.5197
vn -0.8583 0.0000 -0.5197
vn -0.8110 0.0000 0.5827
vn -0.8110 0.0000 -0.5827
vn 0.3071 0.0394 0.9528
vn -0.3071 0.0394 -0.9528
vn 0.0000 0.0394 1.0000
vn 0.0000 0.0394 -1.0000
vn 0.2835 0.3465 0.8976
vn -0.2835 0.3465 -0.8976
vn -0.3622 0.0000 0.9291
vn -0.3622 0.0000 -0.9291
vn 0.3543 0.0157 -0.9370
vn -0.3543 0.0630 0.9370
vn 0.2913 0.2362 0.9213
vn -0.2913 0.2362 -0.9213
vn 0.0000 0.3465 0.9370
vn 0.0000 0.3465 -0.9370
vn 0.0000 0.2362 0.9685
vn 0.0000 0.2362 -0.9685
vn -0.3307 0.3701 0.8661
vn 0.3307 0.3228 -0.8898
vn -0.3386 0.2598 0.9055
vn 0.3465 0.2126 -0.9134
vn 0.2520 -0.5433 0.8032
vn -0.2520 -0.5433 -0.8032
vn 0.2835 0.3386 0.8976
vn -0.2835 0.3386 -0.8976
vn 0.0000 -0.5433 0.8425
vn 0.0000 -0.5433 -0.8425
vn -0.7874 0.0000 0.6142
vn -0.7874 0.0000 -0.6142
vn -0.2992 -0.5197 0.8032
vn 0.2913 -0.5591 -0.7717
vn 0.0000 0.3386 0.9449
vn 0.0000 0.3386 -0.9449
vn -0.3307 0.3622 0.8740
vn 0.3307 0.3150 -0.8898
vn -0.7717 0.0000 -0.6378
vn -0.7717 0.0000 0.6378
vn 0.1024 -0.9370 0.3307
vn -0.1024 -0.9370 -0.3307
vn 1.0000 0.0000 0.0000
vn 0.0000 -0.9370 0.3465
vn 0.0000 -0.9370 -0.3465
vn 0.0000 1.0000 0.0000
vn -0.1260 -0.9291 0.3465
vn 0.1181 -0.9449 -0.2992
vn -0.7559 0.0000 -0.6535
vn -0.7559 0.0000 0.6535
vn 0.1102 0.0000 0.9921
vn 0.1102 0.0000 -0.9921
vn 0.9921 -0.1496 0.0000
vn -0.0157 -1.0000 0.0551
vn 0.0079 -1.0000 -0.0079
vn 0.0079 -1.0000 0.0394
vn -0.0079 -1.0000 -0.0394
vn 0.0000 -1.0000 0.0394
vn 0.0000 -1.0000 -0.0394
vn 0.8268 -0.5591 -0.1181
vn 0.7402 -0.5591 -0.3780
vn -0.3543 0.9370 -0.0709
vn -0.3543 0.9370 0.0709
vn 0.8898 -0.4252 -0.1732
vn 0.8268 -0.4252 -0.3701
vn 0.1102 -0.0157 0.9921
vn 0.1102 -0.0157 -0.9921
vn 0.9528 0.0000 -0.3071
vn 0.1496 0.9921 0.0000
vn -0.9843 0.0000 0.1890
vn -0.9843 0.0000 -0.1890
vn -1.0000 0.0000 0.0000
vn -0.3543 -0.9370 -0.0709
vn -0.3543 -0.9370 0.0709
vn 0.8189 -0.5591 0.1339
vn 0.8189 -0.5591 -0.1339
vn 0.8976 -0.4252 0.1024
vn 0.8976 -0.4252 -0.1024
vn -0.2047 0.9764 -0.0079
vn -0.2047 0.9764 0.0079
vn 0.6850 0.0000 0.7244
vn 0.6850 0.0000 -0.7244
vn 0.7165 -0.5512 0.4331
vn 0.8110 -0.5591 0.1732
vn 0.0709 -0.9685 0.2283
vn -0.0709 -0.9685 -0.2283
vn 0.8032 -0.4173 0.4252
vn 0.8740 -0.4252 0.2283
vn 0.0000 0.0000 1.0000
vn 0.0000 0.0000 -1.0000
vn 0.9370 0.0000 0.3543
vn 0.0000 -0.9685 0.2362
vn 0.0000 -0.9685 -0.2362
vn -0.2047 -0.9764 -0.0079
vn -0.2047 -0.9764 0.0079
vn -0.0866 -0.9685 0.2441
vn 0.0787 -0.9764 -0.2047
vn -0.1024 0.9921 0.0236
vn -0.1024 0.9921 -0.0236
vn -0.2520 0.9449 -0.2047
vn -0.2520 0.9449 0.2047
vn 0.0079 -0.9921 0.1024
vn 0.0079 -0.9921 -0.1024
vn -0.9921 0.1496 0.0000
vn 0.7953 0.0000 0.6063
vn 0.7953 0.0000 -0.6063
vn -0.1024 -0.9921 0.0236
vn -0.1024 -0.9921 -0.0236
vn -0.2520 -0.9449 -0.2047
vn -0.2520 -0.9449 0.2047
vn 0.1024 0.9370 0.3307
vn -0.1024 0.9370 -0.3307
vn 0.0000 0.9370 0.3465
vn 0.2047 -0.9764 0.0000
vn 0.0000 0.9370 -0.3465
vn -0.1811 0.9685 -0.1496
vn -0.1811 0.9685 0.1496
vn -0.1181 0.9449 0.3071
vn 0.1260 0.9291 -0.3465
vn 0.0236 -0.9843 0.1890
vn 0.0236 -0.9843 -0.1890
vn 0.8661 -0.0079 -0.4961
vn 0.9921 -0.0079 -0.1024
vn -0.1732 -0.9843 0.0315
vn -0.1732 -0.9843 -0.0315
vn -0.1811 -0.9685 -0.1496
vn -0.1811 -0.9685 0.1496
vn 0.0079 -1.0000 -0.0236
vn -0.1102 0.9685 -0.2205
vn -0.0236 -1.0000 0.0709
vn -0.1102 0.9685 0.2205
vn 0.0000 -1.0000 -0.0472
vn 0.0000 -1.0000 0.0472
vn -0.0157 -1.0000 -0.0472
vn 0.0157 -1.0000 0.0472
vn 0.0866 0.9921 -0.0709
vn 0.0866 0.9921 0.0709
vn -0.5433 0.0000 -0.8425
vn -0.5433 0.0000 0.8425
vn 0.9764 -0.0079 -0.2047
vn 0.9764 -0.0079 0.2047
vn -0.8189 -0.5512 -0.1496
vn -0.7244 -0.5591 -0.4016
vn -0.1102 -0.9685 -0.2205
vn -0.1102 -0.9685 0.2205
vn 0.2047 0.9764 -0.0945
vn 0.2047 0.9764 0.0945
vn 0.0866 -0.9921 -0.0709
vn 0.0866 -0.9921 0.0709
vn 0.9921 -0.0079 0.1496
vn 0.8425 0.0000 0.5354
vn -0.8189 -0.5591 0.1339
vn -0.8189 -0.5591 -0.1339
vn 0.7874 -0.1260 -0.6063
vn 0.9921 -0.1260 0.0394
vn -0.8819 -0.4252 -0.2047
vn -0.8032 -0.4331 -0.4016
vn 0.2047 -0.9764 -0.0945
vn 0.2047 -0.9764 0.0945
vn 0.0866 0.9685 -0.2441
vn -0.0787 0.9764 0.2047
vn 0.0000 0.9685 -0.2362
vn 0.0000 0.9685 0.2362
vn 0.9291 -0.1260 -0.3386
vn -0.8976 -0.4252 0.1024
vn 0.9291 -0.1260 0.3386
vn -0.8976 -0.4252 -0.1024
vn -0.7402 -0.5591 0.3780
vn -0.8268 -0.5591 0.1181
vn -0.9370 0.0000 -0.3543
vn -0.0709 0.9685 -0.2283
vn 0.0709 0.9685 0.2283
vn 0.0787 0.9213 -0.3937
vn 0.0787 0.9213 0.3937
vn 0.9921 -0.1339 0.0157
vn 0.7559 -0.1102 0.6457
vn -0.8268 -0.4252 0.3701
vn -0.8898 -0.4252 0.1732
vn 0.0787 -0.9213 -0.3937
vn 0.0787 -0.9213 0.3937
vn 0.3386 -0.2598 -0.9055
vn -0.3465 -0.2126 0.9134
vn -0.9528 0.0000 0.3071
vn -0.5276 0.0000 -0.8504
vn -0.5276 0.0000 0.8504
vn 0.1496 -0.9134 -0.3858
vn -0.1575 -0.8898 0.4252
vn -0.1181 0.9449 0.2992
vn -0.5039 0.0000 -0.8583
vn -0.5039 0.0000 0.8583
vn 0.0000 -0.2362 -0.9685
vn 0.0000 -1.0000 0.0000
vn 0.0000 -0.2362 0.9685
vn 0.0000 -0.8976 -0.4331
vn 0.0000 -0.8976 0.4331
vn 0.0000 1.0000 -0.0394
vn 0.0000 1.0000 0.0394
vn -0.0079 1.0000 -0.0394
vn 0.0079 1.0000 0.0394
vn 0.0157 1.0000 -0.0551
vn -0.0079 1.0000 0.0079
vn 0.1654 -0.8819 -0.4409
vn -0.1811 -0.8583 0.4803
vn -0.1339 -0.8976 -0.4173
vn 0.1339 -0.8976 0.4173
vn 0.0000 -0.8740 -0.4882
vn 0.0000 -0.8740 0.4882
vn 0.8032 0.0000 -0.5984
vn 0.8032 0.0000 0.5984
vn -0.2913 -0.2362 -0.9213
vn 0.2913 -0.2362 0.9213
vn -0.8425 -0.0157 -0.5354
vn -0.1339 0.0000 -0.9921
vn -0.1339 0.0000 0.9921
vn -0.9921 -0.0079 -0.1496
vn -0.1496 -0.8740 -0.4646
vn 0.1496 -0.8740 0.4646
vn -0.9764 -0.0079 -0.2047
vn -0.9764 -0.0079 0.2047
vn -0.7559 -0.1339 -0.6457
vn -0.9921 -0.1181 -0.0079
vn -0.9291 -0.1260 -0.3386
vn -0.9291 -0.1260 0.3386
vn 1.0000 0.0000 0.0787
vn 1.0000 0.0000 -0.0787
vn 0.4567 0.0000 -0.8898
vn 0.4567 0.0000 0.8898
vn -0.9921 -0.0079 0.1024
vn -0.8661 -0.0079 0.4961
vn 0.2756 -0.6299 -0.7244
vn -0.2835 -0.5906 0.7559
vn 0.5669 0.0000 -0.8189
vn 0.5669 0.0000 0.8189
vn 0.0000 -0.6142 -0.7874
vn 0.0000 -0.6142 0.7874
vn -0.9921 -0.1260 -0.0394
vn -0.7874 -0.1260 0.6063
vn -0.2362 -0.6142 -0.7559
vn 0.2362 -0.6142 0.7559
vn 0.2756 0.0000 -0.9606
vn 0.2756 0.0000 0.9606
vn 0.3543 0.0000 -0.9370
vn 0.3307 0.3543 -0.8740
vn 0.3543 0.0000 0.9370
vn -0.3228 0.4016 0.8583
vn 0.3307 -0.3701 -0.8661
vn -0.3307 -0.3228 0.8898
vn 0.0000 0.3780 -0.9213
vn 0.0000 0.3780 0.9213
vn 0.0000 -0.3465 -0.9370
vn 0.0000 -0.3465 0.9370
vn -0.2835 0.3780 -0.8819
vn 0.2835 0.3780 0.8819
vn -0.2835 -0.3465 -0.8976
vn 0.2835 -0.3465 0.8976
vn 0.3543 -0.0630 -0.9370
vn -0.3543 -0.0157 0.9370
vn 0.0000 -0.0394 -1.0000
vn 0.0000 -0.0394 1.0000
vn -0.3071 -0.0394 -0.9528
vn 0.3071 -0.0394 0.9528

o animal_crab
usemtl tex_animal_crab_i042p001x
f 1/1/1 2/2/1 3/3/1
f 2/2/1 1/1/1 4/4/1
f 5/5/2 6/6/2 7/7/2
f 6/6/2 5/5/2 8/8/2
f 9/9/3 3/3/3 10/10/3
f 3/3/3 9/9/3 1/1/3
f 8/8/4 11/11/4 12/12/4
f 11/11/4 8/8/4 5/5/4
f 13/13/5 14/14/5 15/15/5
f 15/15/5 14/14/5 16/16/5
f 17/15/6 18/14/6 19/13/6
f 18/14/6 17/15/6 20/16/6
f 21/17/7 22/18/7 23/19/7
f 23/19/7 22/18/7 24/20/7
f 25/14/8 26/15/8 27/16/8
f 26/15/8 25/14/8 28/13/8
f 29/21/9 30/22/9 31/23/9
f 30/22/9 29/21/9 32/24/9
f 33/22/10 34/21/10 35/23/10
f 34/21/10 33/22/10 36/24/10
f 37/25/11 10/10/11 38/26/11
f 10/10/11 37/25/11 9/9/11
f 12/12/12 39/27/12 40/28/12
f 39/27/12 12/12/12 11/11/12
f 41/16/13 42/13/13 43/15/13
f 42/13/13 41/16/13 44/14/13
f 45/13/14 46/16/14 47/15/14
f 46/16/14 45/13/14 48/14/14
f 49/29/15 50/30/15 51/31/15
f 50/30/15 49/29/15 52/32/15
f 53/30/16 54/29/16 55/31/16
f 54/29/16 53/30/16 56/32/16
f 57/33/15 58/34/15 59/35/15
f 58/34/15 57/33/15 60/36/15
f 61/34/16 62/33/16 63/35/16
f 62/33/16 61/34/16 64/36/16
f 65/37/17 66/38/17 67/39/17
f 67/39/17 68/40/17 65/37/17
f 69/24/18 70/23/18 71/22/18
f 72/21/18 70/23/18 69/24/18
f 73/41/19 74/42/19 75/43/19
f 76/44/19 75/43/19 74/42/19
f 77/32/20 78/31/20 79/30/20
f 77/32/20 80/29/20 78/31/20
f 81/45/19 82/46/19 83/47/19
f 84/48/19 83/47/19 82/46/19
f 85/36/20 86/35/20 87/34/20
f 85/36/20 88/33/20 86/35/20
f 89/24/21 90/22/21 91/23/21
f 91/23/21 92/21/21 89/24/21
f 93/23/22 94/22/22 95/24/22
f 96/21/22 93/23/22 95/24/22
f 97/30/23 98/31/23 99/32/23
f 100/29/23 99/32/23 98/31/23
f 101/32/24 102/31/24 103/30/24
f 101/32/24 104/29/24 102/31/24
f 105/34/23 106/35/23 107/36/23
f 108/33/23 107/36/23 106/35/23
f 109/36/24 110/35/24 111/34/24
f 109/36/24 112/33/24 110/35/24
f 113/49/15 114/50/15 115/51/15
f 114/50/15 113/49/15 116/52/15
f 57/33/25 50/30/25 60/36/25
f 50/30/25 57/33/25 51/31/25
f 117/49/16 118/50/16 119/52/16
f 118/50/16 117/49/16 120/51/16
f 53/30/26 62/33/26 64/36/26
f 62/33/26 53/30/26 55/31/26
f 121/53/15 122/54/15 123/55/15
f 122/54/15 121/53/15 124/56/15
f 125/54/16 126/53/16 127/55/16
f 126/53/16 125/54/16 128/56/16
f 123/55/27 122/54/27 115/51/27
f 123/55/27 115/51/27 114/50/27
f 120/51/28 127/55/28 118/50/28
f 125/54/28 127/55/28 120/51/28
f 74/42/29 83/47/29 84/48/29
f 74/42/29 73/41/29 83/47/29
f 79/30/30 78/31/30 85/36/30
f 88/33/30 85/36/30 78/31/30
f 129/57/3 130/58/3 131/59/3
f 130/58/3 129/57/3 132/60/3
f 133/61/3 134/62/3 135/63/3
f 135/63/3 134/62/3 136/64/3
f 130/58/3 134/62/3 131/59/3
f 134/62/3 130/58/3 136/64/3
f 137/65/4 138/66/4 139/67/4
f 138/66/4 137/65/4 140/68/4
f 138/66/4 141/69/4 142/70/4
f 141/69/4 138/66/4 140/68/4
f 141/69/4 143/71/4 142/70/4
f 143/71/4 141/69/4 144/72/4
f 145/73/19 146/74/19 147/75/19
f 148/76/19 147/75/19 146/74/19
f 149/51/20 150/52/20 151/49/20
f 149/51/20 152/50/20 150/52/20
f 153/77/19 154/78/19 155/79/19
f 156/80/19 155/79/19 154/78/19
f 157/56/20 158/55/20 159/54/20
f 157/56/20 160/53/20 158/55/20
f 161/81/31 129/57/31 162/82/31
f 129/57/31 161/81/31 132/60/31
f 143/71/32 163/83/32 164/84/32
f 163/83/32 143/71/32 144/72/32
f 98/31/33 97/30/33 107/36/33
f 107/36/33 108/33/33 98/31/33
f 103/30/34 102/31/34 109/36/34
f 112/33/34 109/36/34 102/31/34
f 154/78/35 153/77/35 147/75/35
f 154/78/35 147/75/35 148/76/35
f 159/54/36 158/55/36 149/51/36
f 149/51/36 158/55/36 152/50/36
f 165/49/23 166/52/23 167/51/23
f 168/50/23 167/51/23 166/52/23
f 169/51/24 170/52/24 171/49/24
f 169/51/24 172/50/24 170/52/24
f 173/53/23 174/56/23 175/55/23
f 176/54/23 175/55/23 174/56/23
f 177/56/24 178/55/24 179/54/24
f 177/56/24 180/53/24 178/55/24
f 168/50/37 176/54/37 167/51/37
f 176/54/37 168/50/37 175/55/37
f 179/54/38 172/50/38 169/51/38
f 172/50/38 179/54/38 178/55/38
f 4/85/39 181/86/39 2/87/39
f 181/86/39 4/85/39 182/88/39
f 6/89/40 183/90/40 7/91/40
f 7/91/40 183/90/40 184/92/40
f 185/93/41 186/94/41 30/95/41
f 186/94/41 31/96/41 30/95/41
f 35/96/42 187/93/42 33/95/42
f 187/93/42 35/96/42 188/94/42
f 189/97/43 190/98/43 191/99/43
f 192/100/43 190/98/43 189/97/43
f 193/101/43 192/100/43 189/97/43
f 194/102/43 192/100/43 193/101/43
f 195/103/41 196/104/41 197/105/41
f 196/104/41 195/103/41 198/106/41
f 199/103/42 200/104/42 201/106/42
f 200/104/42 199/103/42 202/105/42
f 203/107/44 204/108/44 66/109/44
f 67/110/44 66/109/44 204/108/44
f 71/95/45 205/94/45 206/93/45
f 71/95/45 70/96/45 205/94/45
f 207/111/46 208/112/46 209/113/46
f 207/111/46 209/113/46 210/114/46
f 211/115/46 212/116/46 213/117/46
f 214/118/46 211/115/46 213/117/46
f 215/119/46 216/120/46 217/121/46
f 215/119/46 217/121/46 218/122/46
f 219/123/46 220/124/46 221/125/46
f 222/126/46 219/123/46 221/125/46
f 223/93/47 91/96/47 90/95/47
f 91/96/47 223/93/47 224/94/47
f 93/96/48 225/93/48 94/95/48
f 225/93/48 93/96/48 226/94/48
f 227/127/44 228/128/44 229/129/44
f 230/130/44 229/129/44 228/128/44
f 231/105/45 232/106/45 233/103/45
f 231/105/45 234/104/45 232/106/45
f 235/131/46 236/132/46 237/133/46
f 235/131/46 238/134/46 236/132/46
f 239/135/46 240/136/46 241/137/46
f 242/138/46 239/135/46 241/137/46
f 243/103/47 244/104/47 245/105/47
f 244/104/47 243/103/47 246/106/47
f 247/104/48 248/103/48 249/105/48
f 248/103/48 247/104/48 250/106/48
f 251/139/43 252/140/43 253/141/43
f 252/140/43 251/139/43 254/142/43
f 255/143/43 251/139/43 253/141/43
f 256/144/43 251/139/43 255/143/43
f 257/145/46 258/146/46 259/147/46
f 260/148/46 258/146/46 257/145/46
f 261/149/46 262/150/46 263/151/46
f 263/151/46 264/152/46 261/149/46
f 135/153/49 265/154/49 133/155/49
f 265/154/49 135/153/49 266/156/49
f 139/157/50 267/158/50 137/159/50
f 137/159/50 267/158/50 268/160/50
f 269/161/51 191/162/51 270/163/51
f 190/164/51 270/163/51 191/162/51
f 194/165/52 271/166/52 272/167/52
f 271/166/52 194/165/52 193/168/52
f 273/169/53 274/170/53 275/171/53
f 273/169/53 276/172/53 274/170/53
f 277/173/53 276/172/53 273/169/53
f 278/174/51 252/175/51 279/176/51
f 254/177/51 279/176/51 252/175/51
f 256/178/52 280/179/52 281/180/52
f 280/179/52 256/178/52 255/181/52
f 282/182/54 45/183/54 47/184/54
f 45/183/54 282/182/54 283/185/54
f 42/183/55 284/182/55 43/184/55
f 284/182/55 42/183/55 285/185/55
f 286/182/56 287/185/56 15/184/56
f 287/185/56 13/183/56 15/184/56
f 19/183/57 288/182/57 17/184/57
f 288/182/57 19/183/57 289/185/57
f 290/186/58 291/187/58 23/188/58
f 21/189/58 23/188/58 291/187/58
f 26/184/59 292/185/59 293/182/59
f 26/184/59 28/183/59 292/185/59
f 294/190/54 295/191/54 296/192/54
f 295/191/54 294/190/54 297/193/54
f 298/194/60 123/195/60 299/196/60
f 299/196/60 123/195/60 114/197/60
f 300/191/55 301/190/55 302/192/55
f 301/190/55 300/191/55 303/193/55
f 127/195/61 304/194/61 305/196/61
f 127/195/61 305/196/61 118/197/61
f 306/190/56 307/193/56 308/192/56
f 307/193/56 309/191/56 308/192/56
f 310/193/57 311/190/57 312/192/57
f 312/192/57 313/191/57 310/193/57
f 314/198/58 315/199/58 316/200/58
f 317/201/58 316/200/58 315/199/58
f 318/192/59 319/193/59 320/190/59
f 318/192/59 321/191/59 319/193/59
f 322/202/46 323/203/46 324/204/46
f 322/202/46 324/204/46 325/205/46
f 326/206/46 327/207/46 328/208/46
f 329/209/46 326/206/46 328/208/46
f 330/210/62 1/211/62 9/212/62
f 1/211/62 330/210/62 331/213/62
f 332/214/63 5/215/63 333/216/63
f 5/215/63 332/214/63 11/217/63
f 334/218/64 51/219/64 57/220/64
f 51/219/64 334/218/64 335/221/64
f 336/218/65 55/219/65 337/221/65
f 55/219/65 336/218/65 62/220/65
f 338/222/66 275/223/66 339/224/66
f 274/225/66 339/224/66 275/223/66
f 277/226/67 340/227/67 276/228/67
f 340/227/67 277/226/67 341/229/67
f 342/230/68 123/195/68 298/194/68
f 123/195/68 342/230/68 121/231/68
f 127/195/68 343/230/68 304/194/68
f 343/230/68 127/195/68 126/231/68
f 299/196/68 116/232/68 344/233/68
f 116/232/68 299/196/68 114/197/68
f 119/232/68 305/196/68 345/233/68
f 305/196/68 119/232/68 118/197/68
f 276/234/69 339/235/69 274/236/69
f 276/234/69 340/237/69 339/235/69
f 51/219/68 346/238/68 49/239/68
f 346/238/68 51/219/68 335/221/68
f 55/219/68 347/238/68 337/221/68
f 347/238/68 55/219/68 54/239/68
f 270/240/70 348/241/70 269/242/70
f 348/241/70 270/240/70 349/243/70
f 349/243/71 271/244/71 348/241/71
f 271/244/71 349/243/71 272/245/71
f 334/218/68 59/246/68 350/247/68
f 59/246/68 334/218/68 57/220/68
f 209/248/72 351/249/72 352/250/72
f 351/249/72 209/248/72 208/251/72
f 324/252/72 353/253/72 354/254/72
f 353/253/72 324/252/72 323/255/72
f 63/246/68 336/218/68 355/247/68
f 336/218/68 63/246/68 62/220/68
f 356/256/72 326/257/72 357/258/72
f 326/257/72 356/256/72 327/259/72
f 211/260/72 358/261/72 212/262/72
f 358/261/72 211/260/72 359/263/72
f 260/264/72 360/265/72 361/266/72
f 260/264/72 361/266/72 258/267/72
f 362/268/72 363/269/72 262/270/72
f 261/271/72 362/268/72 262/270/72
f 364/272/73 10/273/73 3/274/73
f 364/272/73 3/274/73 365/275/73
f 8/276/74 12/277/74 366/278/74
f 8/276/74 366/278/74 367/279/74
f 217/280/72 368/281/72 369/282/72
f 368/281/72 217/280/72 216/283/72
f 219/284/72 370/285/72 220/286/72
f 370/285/72 219/284/72 371/287/72
f 372/288/68 31/289/68 186/290/68
f 31/289/68 372/288/68 29/291/68
f 35/289/68 373/288/68 188/290/68
f 373/288/68 35/289/68 34/291/68
f 374/292/68 196/293/68 198/294/68
f 196/293/68 374/292/68 375/295/68
f 200/293/68 376/292/68 201/294/68
f 376/292/68 200/293/68 377/295/68
f 378/296/75 154/297/75 379/298/75
f 379/298/75 154/297/75 148/299/75
f 158/195/76 380/194/76 381/196/76
f 158/195/76 381/196/76 152/197/76
f 14/300/68 13/301/68 382/302/68
f 287/303/68 382/302/68 13/301/68
f 19/301/68 383/302/68 289/303/68
f 19/301/68 18/300/68 383/302/68
f 384/304/68 309/305/68 385/306/68
f 307/307/68 385/306/68 309/305/68
f 313/305/68 386/306/68 310/307/68
f 313/305/68 387/304/68 386/306/68
f 388/308/77 74/309/77 84/310/77
f 74/309/77 388/308/77 389/311/77
f 390/218/78 78/219/78 391/221/78
f 78/219/78 390/218/78 88/220/78
f 330/210/79 9/212/79 392/312/79
f 332/214/80 393/313/80 11/217/80
f 394/314/81 395/315/81 396/316/81
f 395/315/81 394/314/81 397/317/81
f 398/318/81 397/317/81 394/314/81
f 397/317/81 398/318/81 399/319/81
f 378/296/43 156/320/43 154/297/43
f 400/321/43 156/320/43 378/296/43
f 401/322/82 402/323/82 403/324/82
f 402/323/82 401/322/82 404/325/82
f 404/325/82 405/326/82 402/323/82
f 405/326/82 404/325/82 406/327/82
f 380/194/43 160/231/43 407/230/43
f 160/231/43 380/194/43 158/195/43
f 408/328/70 278/329/70 409/330/70
f 409/330/70 278/329/70 279/331/70
f 409/330/71 280/332/71 408/328/71
f 280/332/71 409/330/71 281/333/71
f 379/298/43 146/334/43 410/335/43
f 146/334/43 379/298/43 148/299/43
f 150/232/43 381/196/43 411/233/43
f 381/196/43 150/232/43 152/197/43
f 238/336/72 412/337/72 413/338/72
f 238/336/72 413/338/72 236/339/72
f 414/340/72 240/341/72 415/342/72
f 239/343/72 415/342/72 240/341/72
f 416/196/83 175/195/83 168/197/83
f 417/194/83 175/195/83 416/196/83
f 178/195/84 418/194/84 419/196/84
f 178/195/84 419/196/84 172/197/84
f 116/344/85 420/345/85 344/346/85
f 420/345/85 116/344/85 113/347/85
f 117/347/86 345/346/86 421/345/86
f 345/346/86 117/347/86 119/344/86
f 389/311/43 76/348/43 74/309/43
f 422/349/43 76/348/43 389/311/43
f 391/221/43 80/239/43 423/238/43
f 80/239/43 391/221/43 78/219/43
f 388/308/43 84/310/43 424/350/43
f 424/350/43 84/310/43 82/351/43
f 425/247/43 88/220/43 390/218/43
f 88/220/43 425/247/43 86/246/43
f 426/221/87 98/219/87 108/220/87
f 426/221/87 108/220/87 427/218/87
f 112/220/88 428/221/88 429/218/88
f 102/219/88 428/221/88 112/220/88
f 352/352/89 430/353/89 209/354/89
f 210/355/89 209/354/89 430/353/89
f 354/356/89 431/357/89 324/358/89
f 325/359/89 324/358/89 431/357/89
f 326/360/90 432/361/90 357/362/90
f 326/360/90 329/363/90 432/361/90
f 211/364/90 433/365/90 359/366/90
f 211/364/90 214/367/90 433/365/90
f 68/368/43 67/369/43 204/370/43
f 204/370/43 434/371/43 68/368/43
f 435/288/43 205/290/43 72/291/43
f 72/291/43 205/290/43 70/289/43
f 369/372/89 436/373/89 217/374/89
f 436/373/89 218/375/89 217/374/89
f 219/376/90 437/377/90 371/378/90
f 219/376/90 222/379/90 437/377/90
f 438/380/43 230/381/43 228/382/43
f 230/381/43 438/380/43 439/383/43
f 440/292/43 234/293/43 441/295/43
f 234/293/43 440/292/43 232/294/43
f 442/230/91 175/195/91 417/194/91
f 175/195/91 442/230/91 173/231/91
f 178/195/91 443/230/91 418/194/91
f 443/230/91 178/195/91 180/231/91
f 444/384/92 146/385/92 145/386/92
f 410/387/92 146/385/92 444/384/92
f 445/345/93 151/347/93 150/344/93
f 150/344/93 411/346/93 445/345/93
f 364/272/94 446/388/94 10/273/94
f 366/278/95 12/277/95 447/389/95
f 166/344/96 165/347/96 448/345/96
f 449/346/96 166/344/96 448/345/96
f 450/345/97 171/347/97 170/344/97
f 450/345/97 170/344/97 451/346/97
f 338/390/46 349/391/46 270/392/46
f 190/393/46 338/390/46 270/392/46
f 349/391/46 338/390/46 452/394/46
f 338/390/46 190/393/46 275/395/46
f 341/396/46 349/391/46 452/394/46
f 190/393/46 192/397/46 275/395/46
f 272/398/46 349/391/46 341/396/46
f 273/399/46 275/395/46 192/397/46
f 341/396/46 194/400/46 272/398/46
f 192/397/46 277/401/46 273/399/46
f 194/400/46 341/396/46 277/401/46
f 277/401/46 192/397/46 194/400/46
f 170/232/91 419/196/91 451/233/91
f 419/196/91 170/232/91 172/197/91
f 416/196/91 166/232/91 449/233/91
f 166/232/91 416/196/91 168/197/91
f 350/402/85 58/403/85 453/404/85
f 58/403/85 350/402/85 59/405/85
f 61/403/86 355/402/86 454/404/86
f 355/402/86 61/403/86 63/405/86
f 291/406/43 455/407/43 21/408/43
f 22/409/43 21/408/43 455/407/43
f 28/301/43 456/302/43 292/303/43
f 28/301/43 25/300/43 456/302/43
f 315/410/43 457/411/43 317/412/43
f 458/413/43 317/412/43 457/411/43
f 321/305/43 459/306/43 319/307/43
f 321/305/43 460/304/43 459/306/43
f 9/212/98 461/414/98 392/312/98
f 461/414/98 9/212/98 37/415/98
f 462/416/99 11/217/99 393/313/99
f 11/217/99 462/416/99 39/417/99
f 331/213/100 4/418/100 1/211/100
f 4/418/100 331/213/100 182/419/100
f 333/216/101 7/420/101 184/421/101
f 7/420/101 333/216/101 5/215/101
f 253/422/102 278/423/102 408/424/102
f 278/423/102 253/422/102 252/425/102
f 280/426/103 253/422/103 408/424/103
f 280/426/103 255/427/103 253/422/103
f 463/428/92 82/429/92 81/430/92
f 424/431/92 82/429/92 463/428/92
f 464/404/93 87/403/93 86/405/93
f 86/405/93 425/402/93 464/404/93
f 98/219/91 465/238/91 100/239/91
f 465/238/91 98/219/91 426/221/91
f 102/219/91 466/238/91 428/221/91
f 466/238/91 102/219/91 104/239/91
f 106/405/96 105/403/96 467/404/96
f 468/402/96 106/405/96 467/404/96
f 469/404/97 110/405/97 470/402/97
f 469/404/97 111/403/97 110/405/97
f 427/218/91 106/246/91 468/247/91
f 106/246/91 427/218/91 108/220/91
f 110/246/91 429/218/91 470/247/91
f 429/218/91 110/246/91 112/220/91
f 471/288/91 91/289/91 224/290/91
f 91/289/91 471/288/91 92/291/91
f 93/289/91 472/288/91 226/290/91
f 472/288/91 93/289/91 96/291/91
f 338/432/104 339/433/104 452/434/104
f 452/434/104 339/433/104 340/435/104
f 452/434/104 340/435/104 341/436/104
f 247/293/91 473/292/91 250/294/91
f 473/292/91 247/293/91 474/295/91
f 475/292/91 244/293/91 246/294/91
f 244/293/91 475/292/91 476/295/91
f 236/437/89 413/438/89 477/439/89
f 477/439/89 237/440/89 236/437/89
f 239/441/90 478/442/90 415/443/90
f 242/444/90 478/442/90 239/441/90
f 258/445/89 361/446/89 479/447/89
f 479/447/89 259/448/89 258/445/89
f 261/449/90 480/450/90 362/451/90
f 264/452/90 480/450/90 261/449/90
f 37/25/105 38/26/105 396/316/105
f 37/25/105 396/316/105 395/315/105
f 40/28/106 39/27/106 403/324/106
f 39/27/106 401/322/106 403/324/106
f 283/303/91 481/302/91 45/301/91
f 48/300/91 45/301/91 481/302/91
f 42/301/91 44/300/91 482/302/91
f 42/301/91 482/302/91 285/303/91
f 297/307/91 483/306/91 295/305/91
f 484/304/91 295/305/91 483/306/91
f 300/305/91 485/306/91 303/307/91
f 300/305/91 486/304/91 485/306/91
f 10/273/107 487/453/107 38/454/107
f 487/453/107 10/273/107 446/388/107
f 488/455/108 12/277/108 40/456/108
f 12/277/108 488/455/108 447/389/108
f 3/274/109 2/457/109 365/275/109
f 365/275/109 2/457/109 181/458/109
f 6/459/110 8/276/110 367/279/110
f 367/279/110 183/460/110 6/459/110
f 384/461/111 489/462/111 490/463/111
f 490/463/111 382/464/111 384/461/111
f 383/464/112 491/463/112 387/461/112
f 492/462/112 387/461/112 491/463/112
f 458/465/113 493/466/113 494/467/113
f 458/465/113 494/467/113 455/468/113
f 254/469/114 251/470/114 189/471/114
f 189/471/114 191/472/114 254/469/114
f 256/473/114 189/471/114 251/470/114
f 189/471/114 256/473/114 193/474/114
f 495/462/115 460/461/115 496/463/115
f 456/464/115 496/463/115 460/461/115
f 497/475/116 130/476/116 132/477/116
f 130/476/116 497/475/116 498/478/116
f 130/476/116 499/479/116 136/480/116
f 130/476/116 498/478/116 499/479/116
f 136/480/116 266/481/116 135/482/116
f 136/480/116 499/479/116 266/481/116
f 268/483/117 140/484/117 137/485/117
f 268/483/117 500/486/117 140/484/117
f 500/486/117 141/487/117 140/484/117
f 500/486/117 501/488/117 141/487/117
f 502/489/117 141/487/117 501/488/117
f 141/487/117 502/489/117 144/490/117
f 484/461/118 503/463/118 481/464/118
f 503/463/118 484/461/118 504/462/118
f 486/461/119 505/463/119 506/462/119
f 482/464/119 505/463/119 486/461/119
f 191/472/120 269/491/120 279/492/120
f 191/472/120 279/492/120 254/469/120
f 271/493/121 193/474/121 281/494/121
f 256/473/121 281/494/121 193/474/121
f 309/305/122 384/304/122 382/302/122
f 382/302/122 287/303/122 309/305/122
f 387/304/123 313/305/123 383/302/123
f 289/303/123 383/302/123 313/305/123
f 279/492/124 348/495/124 409/496/124
f 269/491/124 348/495/124 279/492/124
f 281/494/125 409/496/125 348/495/125
f 348/495/125 271/493/125 281/494/125
f 507/497/126 129/498/126 131/499/126
f 507/497/126 131/499/126 508/500/126
f 509/501/126 131/499/126 134/502/126
f 131/499/126 509/501/126 508/500/126
f 134/502/126 265/503/126 509/501/126
f 265/503/126 134/502/126 133/504/126
f 142/505/127 143/506/127 510/507/127
f 511/508/127 142/505/127 510/507/127
f 138/509/127 267/510/127 139/511/127
f 267/510/127 138/509/127 512/512/127
f 142/505/127 512/512/127 138/509/127
f 512/512/127 142/505/127 511/508/127
f 513/513/128 417/514/128 416/515/128
f 417/514/128 513/513/128 514/516/128
f 161/517/129 497/475/129 132/477/129
f 497/475/129 161/517/129 515/518/129
f 418/514/130 516/513/130 419/515/130
f 516/513/130 418/514/130 517/516/130
f 502/489/131 163/519/131 144/490/131
f 518/520/131 163/519/131 502/489/131
f 519/521/132 379/522/132 520/523/132
f 379/522/132 519/521/132 378/524/132
f 381/515/133 521/516/133 522/513/133
f 521/516/133 381/515/133 380/514/133
f 299/515/134 523/513/134 524/516/134
f 524/516/134 298/514/134 299/515/134
f 305/515/135 525/516/135 526/513/135
f 304/514/135 525/516/135 305/515/135
f 527/525/136 397/526/136 528/527/136
f 397/526/136 527/525/136 395/528/136
f 397/526/136 529/529/136 528/527/136
f 529/529/136 397/526/136 399/530/136
f 404/531/137 530/532/137 531/533/137
f 530/532/137 404/531/137 401/534/137
f 532/535/137 404/531/137 531/533/137
f 404/531/137 532/535/137 406/536/137
f 392/537/138 162/538/138 446/539/138
f 162/538/138 392/537/138 161/540/138
f 164/541/139 393/542/139 447/543/139
f 393/542/139 164/541/139 163/544/139
f 455/407/140 291/406/140 317/412/140
f 317/412/140 458/413/140 455/407/140
f 460/304/141 321/305/141 456/302/141
f 292/303/141 456/302/141 321/305/141
f 176/545/142 514/546/142 513/547/142
f 513/547/142 167/548/142 176/545/142
f 517/546/143 179/545/143 516/547/143
f 169/548/143 516/547/143 179/545/143
f 162/549/144 507/497/144 533/550/144
f 507/497/144 162/549/144 129/498/144
f 510/507/145 164/551/145 534/552/145
f 164/551/145 510/507/145 143/506/145
f 461/414/146 395/528/146 527/525/146
f 37/415/146 395/528/146 461/414/146
f 401/534/147 462/416/147 530/532/147
f 462/416/147 401/534/147 39/417/147
f 535/553/148 394/554/148 396/555/148
f 394/554/148 535/553/148 536/556/148
f 394/554/148 536/556/148 537/557/148
f 394/554/148 537/557/148 398/558/148
f 538/559/149 402/560/149 539/561/149
f 402/560/149 538/559/149 403/562/149
f 402/560/149 540/563/149 539/561/149
f 540/563/149 402/560/149 405/564/149
f 481/302/150 283/303/150 295/305/150
f 295/305/150 484/304/150 481/302/150
f 486/304/151 300/305/151 482/302/151
f 285/303/151 482/302/151 300/305/151
f 153/565/152 519/566/152 520/567/152
f 520/567/152 147/568/152 153/565/152
f 521/546/153 159/545/153 522/547/153
f 149/548/153 522/547/153 159/545/153
f 375/295/154 186/290/154 196/293/154
f 186/290/154 375/295/154 372/288/154
f 188/290/155 377/295/155 200/293/155
f 377/295/155 188/290/155 373/288/155
f 97/569/156 541/570/156 107/571/156
f 97/569/156 542/572/156 541/570/156
f 543/570/157 103/569/157 109/571/157
f 544/572/157 103/569/157 543/570/157
f 487/453/158 396/555/158 38/454/158
f 396/555/158 487/453/158 535/553/158
f 403/562/159 488/455/159 40/456/159
f 488/455/159 403/562/159 538/559/159
f 545/573/160 173/574/160 442/575/160
f 173/574/160 545/573/160 174/576/160
f 180/574/161 546/573/161 443/575/161
f 546/573/161 180/574/161 177/576/161
f 547/577/162 155/578/162 400/579/162
f 400/579/162 155/578/162 156/580/162
f 157/576/163 548/573/163 407/575/163
f 407/575/163 160/574/163 157/576/163
f 434/371/164 230/381/164 439/383/164
f 434/371/164 204/370/164 230/381/164
f 73/581/165 549/582/165 83/583/165
f 73/581/165 550/584/165 549/582/165
f 234/293/166 435/288/166 441/295/166
f 205/290/166 435/288/166 234/293/166
f 551/572/167 79/569/167 552/570/167
f 552/570/167 79/569/167 85/571/167
f 122/545/168 524/546/168 523/547/168
f 122/545/168 523/547/168 115/548/168
f 525/546/169 125/545/169 526/547/169
f 120/548/169 526/547/169 125/545/169
f 514/546/170 176/545/170 545/585/170
f 174/586/170 545/585/170 176/545/170
f 179/545/170 517/546/170 546/585/170
f 546/585/170 177/586/170 179/545/170
f 448/587/170 165/588/170 513/547/170
f 167/548/170 513/547/170 165/588/170
f 171/588/170 450/587/170 516/547/170
f 516/547/170 169/548/170 171/588/170
f 353/589/90 322/590/90 553/591/90
f 322/590/90 353/589/90 323/592/90
f 207/593/90 351/594/90 208/595/90
f 351/594/90 207/593/90 554/596/90
f 555/573/171 124/576/171 342/575/171
f 124/576/171 121/574/171 342/575/171
f 356/597/89 556/598/89 328/599/89
f 356/597/89 328/599/89 327/600/89
f 358/601/89 213/602/89 212/603/89
f 358/601/89 557/604/89 213/602/89
f 128/576/172 558/573/172 343/575/172
f 343/575/172 126/574/172 128/576/172
f 461/414/173 161/517/173 392/312/173
f 161/517/173 461/414/173 515/518/173
f 462/416/174 163/519/174 518/520/174
f 163/519/174 462/416/174 393/313/174
f 368/605/90 215/606/90 559/607/90
f 215/606/90 368/605/90 216/608/90
f 560/609/89 221/610/89 370/611/89
f 370/611/89 221/610/89 220/612/89
f 100/613/160 561/614/160 99/615/160
f 561/614/160 100/613/160 465/616/160
f 104/613/161 562/614/161 466/616/161
f 562/614/161 104/613/161 101/615/161
f 422/617/162 75/618/162 76/619/162
f 563/620/162 75/618/162 422/617/162
f 77/615/163 564/614/163 423/616/163
f 423/616/163 80/613/163 77/615/163
f 471/288/175 224/290/175 244/293/175
f 471/288/175 244/293/175 476/295/175
f 226/290/176 472/288/176 247/293/176
f 247/293/176 472/288/176 474/295/176
f 99/621/170 561/622/170 97/569/170
f 542/572/170 97/569/170 561/622/170
f 562/622/170 101/621/170 103/569/170
f 103/569/170 544/572/170 562/622/170
f 467/623/170 105/624/170 541/570/170
f 107/571/170 541/570/170 105/624/170
f 111/624/170 469/623/170 543/570/170
f 543/570/170 109/571/170 111/624/170
f 565/625/170 223/626/170 90/627/170
f 90/627/170 89/628/170 565/625/170
f 225/626/170 566/625/170 94/627/170
f 95/628/170 94/627/170 566/625/170
f 567/629/170 243/630/170 245/631/170
f 245/631/170 568/632/170 567/629/170
f 248/630/170 569/629/170 249/631/170
f 570/632/170 249/631/170 569/629/170
f 49/613/171 571/614/171 52/615/171
f 571/614/171 49/613/171 346/616/171
f 54/613/172 572/614/172 347/616/172
f 572/614/172 54/613/172 56/615/172
f 155/633/72 519/566/72 153/565/72
f 519/566/72 155/633/72 547/634/72
f 157/586/72 521/546/72 548/585/72
f 521/546/72 157/586/72 159/545/72
f 444/635/72 145/636/72 520/567/72
f 147/568/72 520/567/72 145/636/72
f 151/588/72 445/587/72 522/547/72
f 522/547/72 149/548/72 151/588/72
f 47/637/170 503/638/170 282/639/170
f 503/638/170 47/637/170 46/640/170
f 505/638/170 43/637/170 284/639/170
f 43/637/170 505/638/170 41/640/170
f 296/641/170 573/642/170 294/643/170
f 573/642/170 296/641/170 504/644/170
f 574/642/170 302/641/170 301/643/170
f 302/641/170 574/642/170 506/644/170
f 575/572/177 60/571/177 50/569/177
f 60/571/177 575/572/177 576/570/177
f 577/572/178 64/571/178 578/570/178
f 64/571/178 577/572/178 53/569/178
f 487/453/179 446/388/179 162/549/179
f 533/550/179 487/453/179 162/549/179
f 447/389/180 488/455/180 164/551/180
f 164/551/180 488/455/180 534/552/180
f 412/645/90 235/646/90 579/647/90
f 235/646/90 412/645/90 238/648/90
f 580/649/89 241/650/89 414/651/89
f 414/651/89 241/650/89 240/652/89
f 75/653/72 550/584/72 73/581/72
f 550/584/72 75/653/72 563/654/72
f 77/621/72 551/572/72 564/622/72
f 551/572/72 77/621/72 79/569/72
f 360/655/90 257/656/90 581/657/90
f 257/656/90 360/655/90 260/658/90
f 263/659/89 363/660/89 582/661/89
f 363/660/89 263/659/89 262/662/89
f 83/583/72 463/663/72 81/664/72
f 463/663/72 83/583/72 549/582/72
f 85/571/72 464/623/72 552/570/72
f 464/623/72 85/571/72 87/624/72
f 65/665/72 203/666/72 66/667/72
f 203/666/72 65/665/72 583/668/72
f 206/626/72 69/628/72 71/627/72
f 69/628/72 206/626/72 584/625/72
f 585/669/72 227/670/72 229/671/72
f 229/671/72 586/672/72 585/669/72
f 587/632/72 231/631/72 588/629/72
f 233/630/72 588/629/72 231/631/72
f 553/673/43 325/674/43 431/675/43
f 322/676/43 325/674/43 553/673/43
f 554/677/43 210/678/43 430/679/43
f 207/680/43 210/678/43 554/677/43
f 329/681/43 556/682/43 432/683/43
f 556/682/43 329/681/43 328/684/43
f 214/685/43 557/686/43 433/687/43
f 557/686/43 214/685/43 213/688/43
f 23/689/72 494/690/72 290/691/72
f 494/690/72 23/689/72 24/692/72
f 496/638/72 26/637/72 293/639/72
f 26/637/72 496/638/72 27/640/72
f 316/693/72 589/694/72 314/695/72
f 589/694/72 316/693/72 493/696/72
f 590/642/72 318/641/72 320/643/72
f 318/641/72 590/642/72 495/644/72
f 559/697/43 218/698/43 436/699/43
f 215/700/43 218/698/43 559/697/43
f 222/701/43 560/702/43 437/703/43
f 560/702/43 222/701/43 221/704/43
f 545/705/181 417/706/181 514/707/181
f 417/706/181 545/705/181 442/708/181
f 418/706/182 546/705/182 517/707/182
f 546/705/182 418/706/182 443/708/182
f 524/546/183 122/545/183 555/585/183
f 124/586/183 555/585/183 122/545/183
f 125/545/183 525/546/183 558/585/183
f 558/585/183 128/586/183 125/545/183
f 420/587/183 113/588/183 523/547/183
f 115/548/183 523/547/183 113/588/183
f 117/588/183 421/587/183 526/547/183
f 526/547/183 120/548/183 117/588/183
f 461/709/184 535/710/184 487/711/184
f 535/710/184 461/709/184 527/712/184
f 538/713/185 462/714/185 488/715/185
f 462/714/185 538/713/185 530/716/185
f 426/717/186 541/718/186 542/719/186
f 541/718/186 426/717/186 427/720/186
f 543/718/187 428/717/187 544/719/187
f 428/717/187 543/718/187 429/720/187
f 565/721/119 89/722/119 92/723/119
f 471/724/119 565/721/119 92/723/119
f 96/723/188 95/722/188 566/721/188
f 566/721/188 472/724/188 96/723/188
f 449/725/181 513/726/181 416/727/181
f 513/726/181 449/725/181 448/728/181
f 451/725/182 516/726/182 450/728/182
f 516/726/182 451/725/182 419/727/182
f 65/729/115 68/730/115 583/731/115
f 434/732/115 583/731/115 68/730/115
f 72/723/113 69/722/113 584/721/113
f 72/723/113 584/721/113 435/724/113
f 567/733/119 568/734/119 476/735/119
f 475/736/119 567/733/119 476/735/119
f 474/735/188 570/734/188 569/733/188
f 569/733/188 473/736/188 474/735/188
f 527/712/189 536/737/189 535/710/189
f 536/737/189 527/712/189 528/738/189
f 528/738/189 537/739/189 536/737/189
f 537/739/189 528/738/189 529/740/189
f 540/741/190 531/742/190 539/743/190
f 531/742/190 540/741/190 532/744/190
f 530/716/190 539/743/190 531/742/190
f 539/743/190 530/716/190 538/713/190
f 400/745/191 519/746/191 547/747/191
f 519/746/191 400/745/191 378/748/191
f 412/749/192 477/750/192 413/751/192
f 412/749/192 579/752/192 477/750/192
f 579/753/43 237/754/43 477/755/43
f 237/754/43 579/753/43 235/756/43
f 586/757/115 439/758/115 585/759/115
f 438/760/115 585/759/115 439/758/115
f 52/621/183 571/622/183 50/569/183
f 575/572/183 50/569/183 571/622/183
f 521/707/193 407/708/193 548/705/193
f 521/707/193 380/706/193 407/708/193
f 478/761/192 580/762/192 414/763/192
f 415/764/192 478/761/192 414/763/192
f 242/765/43 580/766/43 478/767/43
f 580/766/43 242/765/43 241/768/43
f 53/569/183 577/572/183 572/622/183
f 572/622/183 56/621/183 53/569/183
f 441/735/113 588/733/113 440/736/113
f 441/735/113 587/734/113 588/733/113
f 550/769/194 388/770/194 549/771/194
f 550/769/194 389/772/194 388/770/194
f 453/623/183 58/624/183 576/570/183
f 60/571/183 576/570/183 58/624/183
f 390/720/195 551/719/195 552/718/195
f 551/719/195 390/720/195 391/717/195
f 61/624/183 454/623/183 578/570/183
f 578/570/183 64/571/183 61/624/183
f 591/625/183 185/626/183 30/627/183
f 30/627/183 32/628/183 591/625/183
f 187/626/183 592/625/183 33/627/183
f 36/628/183 33/627/183 592/625/183
f 493/466/196 458/465/196 589/773/196
f 457/774/196 589/773/196 458/465/196
f 460/461/197 495/462/197 590/775/197
f 460/461/197 590/775/197 459/776/197
f 593/629/183 195/630/183 197/631/183
f 197/631/183 594/632/183 593/629/183
f 199/630/183 595/629/183 202/631/183
f 596/632/183 202/631/183 595/629/183
f 489/462/198 384/461/198 597/775/198
f 597/775/198 384/461/198 385/776/198
f 598/775/199 387/461/199 492/462/199
f 387/461/199 598/775/199 386/776/199
f 455/468/196 494/467/196 22/777/196
f 24/778/196 22/777/196 494/467/196
f 25/779/197 496/463/197 456/464/197
f 25/779/197 27/780/197 496/463/197
f 573/775/200 504/462/200 484/461/200
f 483/776/200 573/775/200 484/461/200
f 486/461/201 506/462/201 574/775/201
f 574/775/201 485/776/201 486/461/201
f 591/721/112 29/723/112 372/724/112
f 32/722/112 29/723/112 591/721/112
f 34/723/111 592/721/111 373/724/111
f 592/721/111 34/723/111 36/722/111
f 16/780/198 382/464/198 490/463/198
f 382/464/198 16/780/198 14/779/198
f 383/464/199 20/780/199 491/463/199
f 20/780/199 383/464/199 18/779/199
f 481/464/200 503/463/200 48/779/200
f 503/463/200 46/780/200 48/779/200
f 505/463/201 482/464/201 44/779/201
f 44/779/201 41/780/201 505/463/201
f 223/93/202 244/104/202 224/94/202
f 244/104/202 223/93/202 245/105/202
f 247/104/203 225/93/203 226/94/203
f 225/93/203 247/104/203 249/105/203
f 379/781/191 444/782/191 520/783/191
f 444/782/191 379/781/191 410/784/191
f 445/728/193 381/727/193 522/726/193
f 381/727/193 445/728/193 411/725/193
f 594/734/112 374/736/112 593/733/112
f 374/736/112 594/734/112 375/735/112
f 376/736/111 596/734/111 595/733/111
f 596/734/111 376/736/111 377/735/111
f 15/637/183 490/638/183 286/639/183
f 490/638/183 15/637/183 16/640/183
f 491/638/183 17/637/183 288/639/183
f 17/637/183 491/638/183 20/640/183
f 308/641/183 597/642/183 306/643/183
f 597/642/183 308/641/183 489/644/183
f 598/642/183 312/641/183 311/643/183
f 312/641/183 598/642/183 492/644/183
f 335/717/204 576/718/204 575/719/204
f 576/718/204 335/717/204 334/720/204
f 336/720/205 577/719/205 578/718/205
f 337/717/205 577/719/205 336/720/205
f 204/108/206 203/107/206 229/129/206
f 204/108/206 229/129/206 230/130/206
f 206/93/207 205/94/207 231/105/207
f 234/104/207 231/105/207 205/94/207
f 537/739/208 399/785/208 398/786/208
f 399/785/208 537/739/208 529/740/208
f 406/787/209 540/741/209 405/788/209
f 540/741/209 406/787/209 532/744/209
f 524/707/210 342/708/210 298/706/210
f 342/708/210 524/707/210 555/705/210
f 525/707/211 304/706/211 343/708/211
f 525/707/211 343/708/211 558/705/211
f 503/638/212 296/641/212 282/639/212
f 296/641/212 503/638/212 504/644/212
f 364/789/213 392/537/213 446/539/213
f 392/537/213 364/789/213 330/790/213
f 393/542/214 366/791/214 447/543/214
f 366/791/214 393/542/214 332/792/214
f 302/641/215 505/638/215 284/639/215
f 505/638/215 302/641/215 506/644/215
f 196/104/216 185/93/216 197/105/216
f 185/93/216 196/104/216 186/94/216
f 200/104/217 187/93/217 188/94/217
f 187/93/217 200/104/217 202/105/217
f 299/727/210 420/728/210 523/726/210
f 420/728/210 299/727/210 344/725/210
f 421/728/211 305/727/211 526/726/211
f 421/728/211 345/725/211 305/727/211
f 494/690/218 316/693/218 290/691/218
f 316/693/218 494/690/218 493/696/218
f 318/641/219 496/638/219 293/639/219
f 496/638/219 318/641/219 495/644/219
f 353/793/192 431/794/192 354/795/192
f 353/793/192 553/796/192 431/794/192
f 432/797/192 556/798/192 356/799/192
f 357/800/192 432/797/192 356/799/192
f 223/626/220 568/632/220 245/631/220
f 223/626/220 565/625/220 568/632/220
f 570/632/221 225/626/221 249/631/221
f 566/625/221 225/626/221 570/632/221
f 368/801/192 436/802/192 369/803/192
f 368/801/192 559/804/192 436/802/192
f 437/805/192 560/806/192 370/807/192
f 371/808/192 437/805/192 370/807/192
f 583/668/222 229/671/222 203/666/222
f 229/671/222 583/668/222 586/672/222
f 584/625/223 231/631/223 587/632/223
f 231/631/223 584/625/223 206/626/223
f 360/809/192 479/810/192 361/811/192
f 581/812/192 479/810/192 360/809/192
f 363/813/192 362/814/192 480/815/192
f 480/815/192 582/816/192 363/813/192
f 533/817/224 461/818/224 487/819/224
f 515/820/224 461/818/224 533/817/224
f 462/821/225 534/822/225 488/823/225
f 534/822/225 462/821/225 518/824/225
f 498/825/226 509/826/226 499/827/226
f 509/826/226 498/825/226 508/828/226
f 265/154/226 499/827/226 509/826/226
f 499/827/226 265/154/226 266/156/226
f 508/828/226 497/829/226 507/830/226
f 497/829/226 508/828/226 498/825/226
f 512/831/227 500/832/227 267/158/227
f 267/158/227 500/832/227 268/160/227
f 512/831/227 501/833/227 500/832/227
f 511/834/227 501/833/227 512/831/227
f 511/834/227 502/835/227 501/833/227
f 510/836/227 502/835/227 511/834/227
f 308/641/228 490/638/228 489/644/228
f 490/638/228 308/641/228 286/639/228
f 491/638/229 312/641/229 492/644/229
f 312/641/229 491/638/229 288/639/229
f 296/192/230 295/191/230 283/185/230
f 283/185/230 282/182/230 296/192/230
f 426/837/181 561/838/181 465/839/181
f 561/838/181 426/837/181 542/840/181
f 284/182/231 285/185/231 302/192/231
f 300/191/231 302/192/231 285/185/231
f 428/837/182 562/838/182 544/840/182
f 562/838/182 428/837/182 466/839/182
f 541/841/181 468/842/181 467/843/181
f 468/842/181 541/841/181 427/844/181
f 470/842/182 543/841/182 469/843/182
f 543/841/182 470/842/182 429/844/182
f 507/845/232 515/820/232 533/817/232
f 515/820/232 507/845/232 497/846/232
f 534/822/233 518/824/233 510/847/233
f 510/847/233 518/824/233 502/848/233
f 351/849/192 430/850/192 352/851/192
f 351/849/192 554/852/192 430/850/192
f 433/853/192 557/854/192 358/855/192
f 359/856/192 433/853/192 358/855/192
f 316/200/234 291/187/234 290/186/234
f 316/200/234 317/201/234 291/187/234
f 321/191/235 318/192/235 292/185/235
f 293/182/235 292/185/235 318/192/235
f 422/857/191 550/858/191 563/859/191
f 550/858/191 422/857/191 389/860/191
f 551/840/193 423/839/193 564/838/193
f 551/840/193 391/837/193 423/839/193
f 591/625/236 197/631/236 185/626/236
f 197/631/236 591/625/236 594/632/236
f 592/625/237 202/631/237 596/632/237
f 202/631/237 592/625/237 187/626/237
f 388/861/191 463/862/191 549/863/191
f 463/862/191 388/861/191 424/864/191
f 464/843/193 390/844/193 552/841/193
f 464/843/193 425/842/193 390/844/193
f 309/191/238 286/182/238 308/192/238
f 286/182/238 309/191/238 287/185/238
f 288/182/239 313/191/239 312/192/239
f 313/191/239 288/182/239 289/185/239
f 575/840/210 346/839/210 335/837/210
f 346/839/210 575/840/210 571/838/210
f 577/840/211 337/837/211 347/839/211
f 577/840/211 347/839/211 572/838/211
f 453/843/210 334/844/210 350/842/210
f 334/844/210 453/843/210 576/841/210
f 454/843/211 355/842/211 336/844/211
f 454/843/211 336/844/211 578/841/211
f 330/790/240 364/789/240 365/865/240
f 330/790/240 365/865/240 331/866/240
f 366/791/241 332/792/241 367/867/241
f 367/867/241 332/792/241 333/868/241
f 181/86/242 331/866/242 365/865/242
f 331/866/242 181/86/242 182/88/242
f 568/869/243 471/870/243 476/871/243
f 471/870/243 568/869/243 565/872/243
f 367/867/244 333/868/244 183/90/244
f 183/90/244 333/868/244 184/92/244
f 570/869/245 472/870/245 566/872/245
f 472/870/245 570/869/245 474/871/245
f 567/873/246 246/874/246 243/875/246
f 246/874/246 567/873/246 475/876/246
f 250/874/247 569/873/247 248/875/247
f 569/873/247 250/874/247 473/876/247
f 583/877/248 439/878/248 586/879/248
f 583/877/248 434/880/248 439/878/248
f 441/871/249 584/872/249 587/869/249
f 584/872/249 441/871/249 435/870/249
f 227/881/250 438/882/250 228/883/250
f 438/882/250 227/881/250 585/884/250
f 232/874/251 440/876/251 233/875/251
f 233/875/251 440/876/251 588/873/251
f 591/872/252 375/871/252 594/869/252
f 375/871/252 591/872/252 372/870/252
f 592/872/253 377/871/253 373/870/253
f 377/871/253 592/872/253 596/869/253
f 195/875/254 374/876/254 198/874/254
f 374/876/254 195/875/254 593/873/254
f 201/874/255 376/876/255 199/875/255
f 199/875/255 376/876/255 595/873/255
f 573/885/256 297/886/256 294/887/256
f 483/888/256 297/886/256 573/885/256
f 574/885/257 301/887/257 303/886/257
f 303/886/257 485/888/257 574/885/257
f 589/889/258 315/890/258 314/891/258
f 457/892/258 315/890/258 589/889/258
f 590/885/259 320/887/259 319/886/259
f 319/886/259 459/888/259 590/885/259
f 385/888/260 306/887/260 597/885/260
f 306/887/260 385/888/260 307/886/260
f 386/888/261 311/887/261 310/886/261
f 311/887/261 386/888/261 598/885/261
