# Roblox asset pack: winners_podium (map). Exported from Roblox Studio with Export Selection, then split/renamed/re-centred by tools/process_export.py. Units: studs (1 stud = 1 unit). +Y up. Pivot (bottom_centre) at the origin.
mtllib winners_podium.mtl

v 2.00000 3.00000 -2.00000
v 2.00000 3.00000 2.00000
v 2.00000 0.00000 -2.00000
v 2.00000 0.00000 2.00000
v -2.00000 3.00000 2.00000
v -2.00000 3.00000 -2.00000
v -2.00000 0.00000 2.00000
v -2.00000 0.00000 -2.00000
v 2.00000 3.00000 -2.00500
v 2.00000 0.00000 -2.00500
v -2.00000 0.00000 -2.00500
v -2.00000 3.00000 -2.00500
v 6.00000 2.00000 -2.00000
v 6.00000 2.00000 2.00000
v 6.00000 0.00000 -2.00000
v 6.00000 0.00000 2.00000
v 2.00000 2.00000 2.00000
v 2.00000 2.00000 -2.00000
v 6.00000 2.00000 -2.00500
v 6.00000 0.00000 -2.00500
v 2.00000 2.00000 -2.00500
v -2.00000 1.40000 -2.00000
v -2.00000 1.40000 2.00000
v -6.00000 1.40000 2.00000
v -6.00000 1.40000 -2.00000
v -6.00000 0.00000 2.00000
v -6.00000 0.00000 -2.00000
v -2.00000 1.40000 -2.00500
v -6.00000 0.00000 -2.00500
v -6.00000 1.40000 -2.00500
vt 3.75000 -6.75000
vt 3.25000 -6.75000
vt 3.75000 -7.12500
vt 3.25000 -7.12500
vt 3.75000 -7.25000
vt 3.25000 -7.25000
vt 0.00000 1.00000
vt 0.00000 0.00000
vt 1.00000 0.00000
vt 1.00000 1.00000
vt 0.50000 -3.25000
vt 0.00000 -3.25000
vt 0.50000 -3.50000
vt 0.00000 -3.50000
vt 0.50000 -3.75000
vt 0.00000 -3.75000
vt 3.25000 0.25000
vt 2.75000 0.25000
vt 3.25000 0.07500
vt 2.75000 0.07500
vt 3.25000 -0.25000
vt 2.75000 -0.25000
vn 1.0000 0.0000 0.0000
vn 0.0000 1.0000 0.0000
vn 0.0000 0.0000 1.0000
vn -1.0000 0.0000 0.0000
vn 0.0000 -1.0000 0.0000
vn 0.0000 0.0000 -1.0000

o First
usemtl first
f 1/1/1 2/2/1 3/3/1
f 3/3/1 2/2/1 4/4/1
f 5/1/2 2/2/2 6/5/2
f 6/5/2 2/2/2 1/6/2
f 2/1/3 5/2/3 4/3/3
f 4/3/3 5/2/3 7/4/3
f 5/1/4 6/2/4 7/3/4
f 7/3/4 6/2/4 8/4/4
f 8/1/5 3/2/5 7/5/5
f 7/5/5 3/2/5 4/6/5
f 6/1/6 1/2/6 8/3/6
f 8/3/6 1/2/6 3/4/6
o First_Number
usemtl first_number
f 9/7/6 10/8/6 11/9/6
f 12/10/6 9/7/6 11/9/6
o Second
usemtl second
f 13/11/1 14/12/1 15/13/1
f 15/13/1 14/12/1 16/14/1
f 17/11/2 14/12/2 18/15/2
f 18/15/2 14/12/2 13/16/2
f 14/11/3 17/12/3 16/13/3
f 16/13/3 17/12/3 4/14/3
f 17/11/4 18/12/4 4/13/4
f 4/13/4 18/12/4 3/14/4
f 3/11/5 15/12/5 4/15/5
f 4/15/5 15/12/5 16/16/5
f 18/11/6 13/12/6 3/13/6
f 3/13/6 13/12/6 15/14/6
o Second_Number
usemtl second_number
f 19/7/6 20/8/6 10/9/6
f 21/10/6 19/7/6 10/9/6
o Third
usemtl third
f 22/17/1 23/18/1 8/19/1
f 8/19/1 23/18/1 7/20/1
f 24/17/2 23/18/2 25/21/2
f 25/21/2 23/18/2 22/22/2
f 23/17/3 24/18/3 7/19/3
f 7/19/3 24/18/3 26/20/3
f 24/17/4 25/18/4 26/19/4
f 26/19/4 25/18/4 27/20/4
f 27/17/5 8/18/5 26/21/5
f 26/21/5 8/18/5 7/22/5
f 25/17/6 22/18/6 27/19/6
f 27/19/6 22/18/6 8/20/6
o Third_Number
usemtl third_number
f 28/7/6 11/8/6 29/9/6
f 30/10/6 28/7/6 29/9/6
