# Roblox asset pack: animal_shark (creatures), from the Studio model "Shark". Exported with Export Selection, split by tools/build_creatures.py: one object per rigid body. Units: studs. +Y up, front faces -Z, pivot (bottom centre) at the origin.
mtllib animal_shark.mtl

v 3.55070 1.34000 -0.19000
v 3.39710 2.03000 0.19000
v 3.55070 1.34000 0.19000
v 3.39710 2.03000 -0.19000
v 2.60830 2.05000 0.00000
v 2.59320 2.42000 0.31000
v 2.60830 2.02000 0.31000
v 2.59320 2.49000 0.00000
v 2.59320 2.42000 -0.31000
v 2.60830 2.02000 -0.31000
v 2.51580 1.77000 0.00000
v 2.50700 2.01000 0.31000
v 2.51580 1.78000 0.31000
v 2.50700 2.03000 0.00000
v 2.50700 2.01000 -0.31000
v 2.51580 1.78000 -0.31000
v 3.84660 2.74000 0.19000
v 3.84660 2.74000 -0.19000
v 4.16530 2.75000 -0.19000
v 4.49540 3.15000 0.19000
v 4.16530 2.75000 0.19000
v 4.49540 3.15000 -0.19000
v 3.93200 0.92000 -0.19000
v 3.93200 0.92000 0.19000
v 1.14600 2.82000 0.00000
v 1.11880 3.00000 0.35000
v 1.14570 2.75000 0.38000
v 1.11910 3.06000 0.00000
v 1.11880 3.00000 -0.35000
v 1.14570 2.75000 -0.38000
v 0.02750 3.78000 0.13000
v -0.20530 4.02000 -0.13000
v -0.20530 4.02000 0.13000
v 0.02750 3.78000 -0.13000
v 0.13750 3.09000 -0.13000
v 0.13750 3.09000 0.13000
v -0.14060 4.76000 0.13000
v 0.57090 4.84000 0.13000
v 0.57090 4.84000 -0.13000
v -0.14060 4.76000 -0.13000
v -1.24340 0.01000 1.71000
v 0.25770 0.11000 1.99000
v -1.26020 0.12000 1.84000
v 0.27450 0.00000 1.86000
v -1.26020 0.12000 -1.84000
v 0.25770 0.11000 -1.99000
v -1.24340 0.01000 -1.71000
v 0.27450 0.00000 -1.86000
v -4.49540 2.34000 0.63000
v -4.32410 2.69000 0.00000
v -4.49540 2.40000 0.00000
v -4.32410 2.60000 0.72000
v -4.49540 2.34000 -0.63000
v -4.32410 2.60000 -0.72000
v -4.17860 0.90000 0.00000
v -4.06930 0.77000 0.61000
v -4.17860 1.00000 0.61000
v -4.06930 0.63000 0.00000
v -4.06930 0.77000 -0.61000
v -4.17860 1.00000 -0.61000
v -1.49940 3.63000 0.98000
v -0.02420 3.24000 0.63000
v -1.49900 3.78000 0.00000
v 0.02510 3.31000 0.00000
v -0.02420 3.24000 -0.63000
v -1.49940 3.63000 -0.98000
v -4.14920 1.81000 0.42000
v -4.17670 2.03000 0.35000
v -4.16700 1.81000 0.35000
v -4.15260 2.02000 0.44000
v -4.17670 2.03000 -0.35000
v -4.14920 1.81000 -0.42000
v -4.16700 1.81000 -0.35000
v -4.15260 2.02000 -0.44000
v -1.01390 4.41000 -0.13000
v -1.01390 4.41000 0.13000
v -4.14920 1.81000 0.17000
v -4.17670 2.03000 0.11000
v -4.16700 1.81000 0.11000
v -4.15260 2.02000 0.19000
v -4.17670 2.03000 -0.11000
v -4.14920 1.81000 -0.17000
v -4.16700 1.81000 -0.11000
v -4.15260 2.02000 -0.19000
v -4.14640 1.10000 0.10000
v -4.15390 0.89000 0.08000
v -4.15240 0.88000 0.17000
v -4.14530 1.10000 0.16000
v -4.14640 1.10000 -0.10000
v -4.15240 0.88000 -0.17000
v -4.15390 0.89000 -0.08000
v -4.14530 1.10000 -0.16000
v -4.25380 1.84000 0.00000
v -4.25380 1.84000 0.63000
v -4.25380 1.84000 -0.63000
v -4.14130 1.15000 0.33000
v -4.14650 0.94000 0.31000
v -4.15370 0.94000 0.40000
v -4.14650 1.15000 0.40000
v -4.14130 1.15000 -0.33000
v -4.15370 0.94000 -0.40000
v -4.14650 0.94000 -0.31000
v -4.14650 1.15000 -0.40000
v -1.92760 3.67000 0.00000
v -1.92760 3.46000 1.40000
v -1.65550 3.43000 1.05000
v -1.65500 3.59000 0.00000
v -1.65550 3.43000 -1.05000
v -1.92760 3.46000 -1.40000
v -0.02440 2.95000 0.95000
v -0.07720 3.01000 0.68000
v 1.42280 2.75000 0.00000
v 1.42280 2.65000 -0.59000
v -0.02440 2.95000 -0.95000
v -0.07720 3.01000 -0.68000
v -4.07120 1.64000 0.35000
v -4.07120 1.64000 -0.35000
v 1.42280 2.65000 0.59000
v -2.28030 3.71000 0.00000
v -2.76950 3.40000 0.89000
v -2.27960 3.56000 1.01000
v -2.79600 3.51000 0.00000
v 2.30410 2.48000 -0.38000
v 2.30410 2.55000 0.00000
v -2.76950 3.40000 -0.89000
v -2.27960 3.56000 -1.01000
v -4.07120 1.64000 0.11000
v 2.30410 2.48000 0.38000
v -4.07120 1.64000 -0.11000
v -3.08950 0.46000 0.00000
v -3.08950 0.61000 1.00000
v -3.33520 3.04000 0.76000
v -3.33310 3.12000 0.00000
v -3.33520 3.04000 -0.76000
v -3.08950 0.61000 -1.00000
v -4.08450 1.27000 0.54000
v -4.08900 0.98000 0.51000
v -4.12150 0.98000 0.62000
v -4.10840 1.27000 0.62000
v -4.08450 1.27000 -0.54000
v -4.12150 0.98000 -0.62000
v -4.08900 0.98000 -0.51000
v -4.10840 1.27000 -0.62000
v -0.86360 1.92000 1.22000
v -1.10500 2.56000 1.22000
v -1.15140 1.92000 1.29000
v -1.10500 1.28000 -1.22000
v -1.15140 1.92000 -1.29000
v -0.86360 1.92000 -1.22000
v -1.10500 2.56000 -1.22000
v -1.10500 1.28000 1.22000
v -4.11030 1.74000 -0.54000
v -4.15900 2.03000 -0.63000
v -4.14020 1.74000 -0.62000
v -4.11840 2.03000 -0.53000
v -4.15900 2.03000 0.67000
v -4.11030 1.74000 0.58000
v -4.14020 1.74000 0.66000
v -4.11840 2.03000 0.56000
v -2.71020 3.19000 1.21000
v -2.13300 3.42000 1.13000
v -2.68060 3.24000 1.00000
v -2.13380 3.59000 0.00000
v -2.13300 3.42000 -1.13000
v -2.71020 3.19000 -1.21000
v -2.68060 3.24000 -1.00000
v -3.31280 2.84000 0.85000
v -3.31280 2.84000 -0.85000
v -1.77880 0.86000 -1.44000
v -1.85600 1.92000 -1.44000
v -1.37720 1.92000 -1.44000
v -1.77880 2.98000 -1.44000
v -1.77880 0.86000 1.44000
v -1.37720 1.92000 1.44000
v -1.85600 1.92000 1.44000
v -1.77880 2.98000 1.44000
v -2.33350 1.08000 1.42000
v -2.01460 1.92000 1.50000
v -2.39480 1.92000 1.42000
v -2.33350 2.76000 1.42000
v -2.33350 1.08000 -1.42000
v -2.39480 1.92000 -1.42000
v -2.01460 1.92000 -1.50000
v -2.33350 2.76000 -1.42000
v -4.00700 1.51000 -0.63000
v -4.00700 1.51000 0.67000
v -4.07350 1.32000 0.38000
v -4.07350 1.32000 -0.38000
v -4.07130 1.27000 0.14000
v -4.07130 1.27000 -0.14000
v -3.49280 2.70000 1.03000
v -3.49280 2.80000 0.00000
v -3.31050 2.93000 0.00000
v -3.49280 2.70000 -1.03000
v -0.86360 1.92000 0.83000
v -1.10500 2.56000 0.83000
v -0.86360 1.92000 -0.83000
v -1.10500 2.56000 -0.83000
v -1.10500 1.28000 0.83000
v -1.10500 1.28000 -0.83000
v -2.90210 2.47000 1.25000
v -2.59560 2.72000 1.30000
v -2.90210 2.72000 1.25000
v -2.59560 2.47000 1.30000
v -2.90210 2.47000 -1.25000
v -2.90210 2.72000 -1.25000
v -2.59560 2.72000 -1.30000
v -2.59560 2.47000 -1.30000
v -3.86810 2.13000 0.76000
v -3.82840 1.84000 0.67000
v -3.85030 1.84000 0.75000
v -3.83850 2.13000 0.65000
v -3.82840 1.84000 -0.67000
v -3.86810 2.13000 -0.76000
v -3.85030 1.84000 -0.75000
v -3.83850 2.13000 -0.65000
v -2.79140 2.36000 1.25000
v -3.10910 2.77000 1.21000
v -3.10910 2.36000 1.21000
v -2.79140 2.82000 1.25000
v -3.10910 2.77000 -1.21000
v -2.79140 2.36000 -1.25000
v -3.10910 2.36000 -1.21000
v -2.79140 2.82000 -1.25000
v -2.47360 2.36000 1.29000
v -2.36510 2.72000 1.34000
v -2.47360 2.36000 -1.29000
v -2.36510 2.72000 -1.34000
v -2.45060 0.47000 0.00000
v -2.45060 0.62000 1.18000
v -2.45060 0.62000 -1.18000
v -1.81170 0.54000 0.00000
v -1.81170 0.69000 -1.36000
v -0.05450 1.06000 -0.93000
v -0.05450 0.96000 0.00000
v -1.81170 0.69000 1.36000
v -0.05450 1.06000 0.93000
v 1.39660 1.46000 0.58000
v 1.39660 1.41000 0.00000
v 1.39660 1.46000 -0.58000
v 2.23940 1.70000 -0.37000
v 2.23940 1.68000 0.00000
v 2.23940 1.70000 0.37000
v -3.99800 1.74000 0.72000
v -3.96620 2.03000 0.74000
v -3.84420 0.89000 0.72000
v -3.83110 1.18000 0.72000
v -3.80710 1.18000 0.63000
v -3.81170 0.89000 0.60000
v -3.80710 1.18000 -0.63000
v -3.84420 0.89000 -0.72000
v -3.81170 0.89000 -0.60000
v -3.83110 1.18000 -0.72000
v -3.99800 1.74000 -0.68000
v -3.96620 2.03000 -0.71000
v -3.71740 1.62000 0.74000
v -3.71740 1.62000 -0.74000
v -3.96740 2.57000 0.83000
v -3.96740 2.66000 0.00000
v -3.96740 2.57000 -0.83000
v -3.70350 1.84000 0.79000
v -3.66920 2.13000 0.82000
v -3.70350 1.84000 -0.79000
v -3.66920 2.13000 -0.82000
v -3.59970 2.20000 0.83000
v -3.43520 1.91000 0.86000
v -3.40080 2.20000 0.89000
v -3.58190 1.91000 0.82000
v -3.07860 2.20000 0.98000
v -3.06080 1.91000 0.96000
v -2.91410 1.91000 1.00000
v -2.87970 2.20000 1.03000
v -3.59970 2.20000 -0.83000
v -3.43520 1.91000 -0.86000
v -3.58190 1.91000 -0.82000
v -3.40080 2.20000 -0.89000
v -3.07860 2.20000 -0.98000
v -2.91410 1.91000 -1.00000
v -3.06080 1.91000 -0.96000
v -2.87970 2.20000 -1.03000
v -3.33660 2.30000 0.91000
v -3.31880 2.01000 0.89000
v -3.17210 2.01000 0.93000
v -3.13770 2.30000 0.96000
v -3.43810 1.09000 -0.84000
v -3.59680 0.80000 -0.80000
v -3.58380 1.09000 -0.80000
v -3.39940 0.80000 -0.86000
v -3.33660 2.30000 -0.91000
v -3.17210 2.01000 -0.93000
v -3.31880 2.01000 -0.89000
v -3.13770 2.30000 -0.96000
v -3.59680 0.80000 0.80000
v -3.43810 1.09000 0.84000
v -3.58380 1.09000 0.80000
v -3.39940 0.80000 0.86000
v -3.17510 1.12000 0.92000
v -3.33390 0.83000 0.88000
v -3.13640 0.83000 0.94000
v -3.32080 1.12000 0.88000
v -3.33390 0.83000 -0.88000
v -3.17510 1.12000 -0.92000
v -3.13640 0.83000 -0.94000
v -3.32080 1.12000 -0.88000
v -3.68540 1.18000 0.76000
v -3.64670 0.89000 0.78000
v -3.44910 1.68000 0.81000
v -2.92790 1.68000 0.95000
v -3.68540 1.18000 -0.76000
v -3.64670 0.89000 -0.78000
v -3.44910 1.68000 -0.81000
v -2.92790 1.68000 -0.95000
v -3.96270 1.27000 0.66000
v -3.92400 0.98000 0.68000
v -3.97930 1.50000 0.62000
v -3.96270 1.27000 -0.66000
v -3.92400 0.98000 -0.68000
v -3.97930 1.50000 -0.62000
v -3.76160 1.98000 0.83000
v -3.26930 2.11000 1.03000
v -2.62770 1.98000 1.21000
v -1.86300 1.71000 1.40000
v -0.02220 1.76000 0.95000
v 1.45150 1.91000 0.59000
v 2.32270 2.00000 0.38000
v -3.76160 1.98000 -0.83000
v -3.26930 2.11000 -1.03000
v -2.62770 1.98000 -1.21000
v -1.86300 1.71000 -1.40000
v -0.02220 1.76000 -0.95000
v 1.45150 1.91000 -0.59000
v 2.32270 2.00000 -0.38000
v -3.18590 1.78000 0.89000
v -3.18590 1.78000 -0.89000
v -3.21940 1.00000 1.00000
v -2.59430 1.96000 1.18000
v -1.84920 1.70000 1.36000
v -0.05580 1.75000 0.93000
v 1.37990 1.89000 0.58000
v 2.22870 1.98000 0.37000
v -3.21940 1.00000 -1.00000
v -2.59430 1.96000 -1.18000
v -1.84920 1.70000 -1.36000
v -0.05580 1.75000 -0.93000
v 1.37990 1.89000 -0.58000
v 2.22870 1.98000 -0.37000
v -3.36690 0.80000 0.75000
v -3.56440 0.80000 0.69000
v -0.87490 1.45000 0.73000
v -0.47780 0.66000 1.44000
v -0.46090 0.55000 1.31000
v -0.85810 1.33000 0.60000
v -3.36690 0.80000 -0.75000
v -3.56440 0.80000 -0.69000
v -0.47780 0.66000 -1.44000
v -0.87490 1.45000 -0.73000
v -0.46090 0.55000 -1.31000
v -0.85810 1.33000 -0.60000
v -3.56010 1.91000 0.74000
v -3.57020 2.20000 0.72000
v -3.56010 1.91000 -0.74000
v -3.57020 2.20000 -0.72000
v -3.10390 0.84000 0.82000
v -3.30140 0.84000 0.76000
v -3.10390 0.84000 -0.82000
v -3.30140 0.84000 -0.76000
v -3.70200 1.41000 0.72000
v -3.70200 1.41000 -0.72000
v -3.45460 1.32000 0.80000
v -4.02900 0.88000 0.17000
v -4.03040 0.89000 0.08000
v -3.19170 1.35000 0.88000
v -4.02900 0.88000 -0.17000
v -4.03040 0.89000 -0.08000
v -3.45460 1.32000 -0.80000
v -3.19170 1.35000 -0.88000
v -3.55980 1.09000 0.72000
v -3.55980 1.09000 -0.72000
v -3.61430 0.90000 0.66000
v -3.61430 0.90000 -0.66000
v -2.77080 2.82000 1.10000
v -3.08860 2.77000 1.06000
v -3.08860 2.77000 -1.06000
v -2.77080 2.82000 -1.10000
v 3.61900 3.11000 0.19000
v 3.61900 3.11000 -0.19000
v -4.02920 0.94000 0.33000
v -4.03630 0.94000 0.42000
v -4.02920 0.94000 -0.33000
v -4.03630 0.94000 -0.42000
v -3.89160 0.99000 0.57000
v -3.89160 0.99000 -0.57000
v -1.77880 2.98000 0.67000
v -1.37720 1.92000 0.67000
v -1.37720 1.92000 -0.67000
v -1.77880 2.98000 -0.67000
v -1.77880 0.86000 0.67000
v -1.77880 0.86000 -0.67000
v -2.34460 2.72000 1.19000
v -2.34460 2.72000 -1.19000
v -3.98830 0.62000 0.00000
v -3.91990 0.77000 0.58000
v -3.98830 0.76000 0.60000
v -3.91990 0.64000 0.00000
v -2.17610 2.18000 1.24000
v -2.96810 0.77000 1.01000
v -2.92590 0.79000 0.98000
v -2.15430 2.15000 1.21000
v -2.89220 2.72000 1.18000
v -2.58570 2.72000 1.22000
v -3.91990 0.77000 -0.58000
v -3.98830 0.76000 -0.60000
v -2.17610 2.18000 -1.24000
v -2.92590 0.79000 -0.98000
v -2.96810 0.77000 -1.01000
v -2.15430 2.15000 -1.21000
v -2.89220 2.72000 -1.18000
v -2.58570 2.72000 -1.22000
v -3.29700 2.01000 0.81000
v -3.30700 2.30000 0.79000
v -3.29700 2.01000 -0.81000
v -3.30700 2.30000 -0.79000
v -3.29680 1.12000 0.79000
v -3.29680 1.12000 -0.79000
v 0.07280 4.12000 -0.13000
v 0.07280 4.12000 0.13000
v -3.08860 2.36000 1.06000
v -3.08860 2.36000 -1.06000
v -4.05990 1.15000 0.41000
v -4.05990 1.15000 -0.41000
v -3.03900 1.91000 0.88000
v -3.04900 2.20000 0.86000
v -3.03900 1.91000 -0.88000
v -3.04900 2.20000 -0.86000
v -4.05890 1.81000 0.08000
v -4.05890 1.81000 -0.08000
v -2.89220 2.47000 1.18000
v -2.89220 2.47000 -1.18000
v -4.03020 2.03000 0.07000
v -4.03020 2.03000 -0.07000
v -3.10810 2.30000 0.84000
v -3.10810 2.30000 -0.84000
v -3.37130 2.20000 0.77000
v -2.85010 2.20000 0.91000
v -3.37130 2.20000 -0.77000
v -2.85010 2.20000 -0.91000
v -2.01460 1.92000 1.01000
v -2.33350 2.76000 1.01000
v -2.01460 1.92000 -1.01000
v -2.33350 2.76000 -1.01000
v -2.33350 1.08000 1.01000
v -2.33350 1.08000 -1.01000
v -3.63960 2.13000 0.70000
v -3.63960 2.13000 -0.70000
v -4.05890 1.81000 0.32000
v -4.05890 1.81000 -0.32000
v -4.03020 2.02000 0.31000
v 3.24910 1.09000 0.19000
v 2.51500 1.95000 0.19000
v 2.54920 2.25000 0.19000
v -4.03020 2.02000 -0.31000
v 3.24910 1.09000 -0.19000
v 2.51500 1.95000 -0.19000
v 2.54920 2.25000 -0.19000
v -1.78540 0.97000 1.06000
v -1.78540 0.97000 -1.06000
v -3.92570 2.03000 0.64000
v -1.66070 3.20000 0.13000
v -3.92570 2.03000 -0.60000
v -1.66070 3.20000 -0.13000
v -2.55440 1.97000 0.96000
v -3.16690 1.01000 0.78000
v -2.55440 1.97000 -0.96000
v -3.16690 1.01000 -0.78000
v -1.76860 0.86000 0.93000
v -1.76860 0.86000 -0.93000
v -4.05430 1.10000 0.16000
v -2.39480 1.92000 1.01000
v -4.00610 2.02000 0.39000
v -4.05430 1.10000 -0.16000
v -2.39480 1.92000 -1.01000
v -4.00610 2.02000 -0.40000
v -4.00610 2.02000 0.15000
v -4.00610 2.02000 -0.15000
v -2.17610 2.18000 -1.23000
v -2.96810 0.77000 1.02000
v -2.17610 2.18000 1.26000
v -2.96810 0.77000 -1.00000
v -2.58680 1.99000 0.99000
v -2.58680 1.99000 -0.99000
v -4.04120 1.81000 0.38000
v -4.04120 1.81000 -0.38000
v -3.19820 2.11000 0.81000
v -3.19820 2.11000 -0.81000
v -4.05540 1.10000 0.10000
v -4.05540 1.10000 -0.10000
v -2.58570 2.47000 1.22000
v -2.58570 2.47000 -1.22000
v -2.45310 2.36000 1.14000
v -2.45310 2.36000 -1.14000
v -2.94640 2.36000 1.03000
v -2.94640 2.36000 -1.01000
v -4.04120 1.81000 0.14000
v -4.04120 1.81000 -0.14000
v -2.89230 1.91000 0.92000
v -2.89230 1.91000 -0.92000
v -3.68160 2.00000 0.62000
v -3.68160 2.00000 -0.62000
v -1.85600 1.92000 0.67000
v -1.85600 1.92000 -0.67000
v -2.77080 2.36000 1.10000
v -2.77080 2.36000 -1.10000
v -4.03330 1.90000 0.47000
v -4.03330 1.91000 0.00000
v -4.03330 1.90000 -0.47000
v -3.55540 2.19000 0.79000
v -3.55540 2.19000 -0.76000
v -3.15020 2.01000 0.85000
v -3.15020 2.01000 -0.85000
v -4.05470 1.15000 0.35000
v -3.99850 2.05000 0.61000
v -3.99850 2.05000 -0.58000
v -4.05470 1.15000 -0.35000
v -3.15120 1.13000 0.83000
v -3.15120 1.13000 -0.83000
v -2.94640 2.36000 1.02000
v -3.55540 2.19000 0.78000
v -3.99850 2.05000 0.60000
v -3.99850 2.05000 -0.60000
v -3.55540 2.19000 -0.78000
v -2.94640 2.36000 -1.02000
v -3.95580 1.00000 0.46000
v -3.95580 0.90000 0.00000
v -3.95580 1.00000 -0.46000
v -3.41340 1.91000 0.78000
v -3.41340 1.91000 -0.78000
v -3.41420 1.09000 -0.76000
v -3.41410 1.09000 0.76000
v -3.68170 1.84000 0.71000
v -3.68170 1.84000 -0.71000
v -3.93880 1.28000 0.58000
v -3.93880 1.28000 -0.58000
v -3.66150 1.18000 0.67000
v -3.66150 1.18000 -0.67000
v -3.96810 1.74000 -0.60000
v -3.98830 0.76000 -0.59000
v -3.98830 0.76000 0.61000
v -3.96810 1.74000 0.64000
v -1.15140 1.92000 0.83000
v -1.15140 1.92000 -0.83000
v -3.99850 2.08000 0.00000
vt 0.76528 0.86125
vt 0.73216 0.92186
vt 0.73216 0.86126
vt 0.76529 0.92186
vt 0.36142 0.03957
vt 0.39313 0.06628
vt 0.35967 0.06628
vt 0.39911 0.03957
vt 0.39314 0.01286
vt 0.35968 0.01286
vt 0.43312 0.05594
vt 0.45331 0.08196
vt 0.43388 0.08196
vt 0.45501 0.05594
vt 0.45331 0.02991
vt 0.43387 0.02992
vt 0.73217 0.99358
vt 0.76530 0.99357
vt 0.85971 0.03012
vt 0.82658 0.07458
vt 0.82659 0.03012
vt 0.85970 0.07459
vt 0.76527 0.81320
vt 0.73215 0.81320
vt 0.63794 0.03502
vt 0.65346 0.06499
vt 0.63247 0.06709
vt 0.65857 0.03502
vt 0.65346 0.00505
vt 0.63247 0.00295
vt 0.51181 0.10368
vt 0.53391 0.13252
vt 0.51181 0.13252
vt 0.53391 0.10368
vt 0.53391 0.04407
vt 0.51181 0.04407
vt 0.90114 0.09816
vt 0.90114 0.15923
vt 0.87904 0.15923
vt 0.87904 0.09816
vt 0.54717 0.64665
vt 0.45935 0.74309
vt 0.53546 0.63768
vt 0.47106 0.75205
vt 1.53546 0.63768
vt 1.45935 0.74309
vt 1.54717 0.64665
vt 1.47107 0.75205
vt 0.05045 0.01097
vt 0.08362 0.06456
vt 0.05533 0.06468
vt 0.07638 0.00294
vt 0.05092 0.11843
vt 0.07691 0.12624
vt 0.11654 0.05547
vt 0.10287 0.00295
vt 0.12497 0.00303
vt 0.09211 0.05547
vt 0.10288 0.10798
vt 0.12498 0.10790
vt 0.20104 0.39041
vt 0.14741 0.51313
vt 0.12295 0.37328
vt 0.09631 0.50454
vt 0.04596 0.49124
vt 0.04396 0.35948
vt 1.73233 0.71155
vt 1.71543 0.76013
vt 1.71799 0.71155
vt 1.73488 0.76013
vt 0.10420 0.60798
vt 0.07858 0.59795
vt 0.05131 0.59637
vt 0.87904 0.01813
vt 0.90114 0.01813
vt 0.00293 0.06491
vt 0.00295 0.01118
vt 0.00342 0.11864
vt 0.13116 0.33121
vt 0.25644 0.36359
vt 0.22274 0.38192
vt 0.12688 0.35309
vt 0.02711 0.34363
vt 0.00293 0.31391
vt 0.18745 0.53050
vt 0.16491 0.52044
vt 0.03423 0.60784
vt 0.06905 0.63723
vt 0.01281 0.63063
vt 0.07082 0.61351
vt 0.00293 0.49394
vt 0.02756 0.49327
vt 1.72516 0.66779
vt 0.11476 0.62406
vt 0.12502 0.65344
vt 0.13771 0.29776
vt 0.22672 0.27172
vt 0.22685 0.31892
vt 0.14670 0.25190
vt 0.02047 0.70981
vt 0.05384 0.71466
vt 0.02150 0.73586
vt 0.04885 0.73980
vt 0.06513 0.24005
vt 0.04719 0.28371
vt 0.08656 0.72295
vt 0.07563 0.74662
vt 0.52846 0.22849
vt 0.50900 0.31051
vt 0.47623 0.21445
vt 0.42512 0.29045
vt 0.10578 0.85403
vt 0.04495 0.78922
vt 0.10166 0.77729
vt 0.04926 0.85404
vt 0.04496 0.91886
vt 0.10167 0.93078
vt 0.58142 0.23940
vt 0.59295 0.33026
vt 1.95249 0.22810
vt 1.99318 0.14026
vt 1.99318 0.23106
vt 1.98006 0.32091
vt 0.73488 0.76013
vt 0.71799 0.71155
vt 0.73233 0.71155
vt 0.71543 0.76013
vt 0.25619 0.28748
vt 0.23681 0.33866
vt 0.23717 0.28700
vt 0.13465 0.31340
vt 0.03051 0.29823
vt 0.03188 0.24352
vt 0.04968 0.25025
vt 0.21576 0.02072
vt 0.27608 0.00819
vt 0.28024 0.02657
vt 0.21839 0.00295
vt 0.17347 0.00818
vt 0.16556 0.02657
vt 0.60685 0.06742
vt 0.60099 0.00294
vt 0.61938 0.00711
vt 0.62462 0.06480
vt 0.61939 0.10971
vt 0.60101 0.11762
vt 0.98006 0.32091
vt 0.95249 0.22810
vt 0.99318 0.23106
vt 0.99318 0.14026
vt 0.72516 0.66779
vt 0.99707 0.46541
vt 0.97348 0.33262
vt 0.99355 0.32262
vt 0.97677 0.46608
vt 0.97347 0.56839
vt 0.99354 0.57488
vt 0.57931 0.96715
vt 0.47633 0.99076
vt 0.46984 0.97069
vt 0.57864 0.98745
vt 0.71211 0.99073
vt 0.72210 0.97066
vt 0.08700 0.74942
vt 0.02798 0.78109
vt 0.00818 0.76610
vt 0.09132 0.76769
vt 0.01399 0.85404
vt 0.03279 0.85404
vt 0.02799 0.92699
vt 0.00819 0.94199
vt 0.08702 0.95865
vt 0.09133 0.94038
vt 1.29147 0.34424
vt 1.35706 0.34424
vt 1.29147 0.44105
vt 1.35705 0.44106
vt 1.29148 0.24743
vt 1.35706 0.24743
vt 0.28988 0.96106
vt 0.26268 0.99551
vt 0.26268 0.96106
vt 0.28988 0.99551
vt 1.28988 0.96106
vt 1.26268 0.96106
vt 1.26268 0.99551
vt 1.28988 0.99551
vt 0.15642 0.90460
vt 0.10930 0.86823
vt 0.15642 0.86823
vt 0.10930 0.90460
vt 1.10931 0.86823
vt 1.15642 0.90460
vt 1.15642 0.86823
vt 1.10931 0.90460
vt 0.15642 0.94748
vt 0.10930 0.94748
vt 1.15642 0.94748
vt 1.10931 0.94748
vt 0.49656 0.36297
vt 0.39763 0.34055
vt 0.59501 0.38737
vt 0.48401 0.41586
vt 0.59698 0.44458
vt 0.52545 0.58558
vt 0.44859 0.56518
vt 0.37017 0.39078
vt 0.37075 0.54888
vt 0.37016 0.68086
vt 0.41871 0.69111
vt 0.46669 0.70376
vt 0.43217 0.77230
vt 0.40131 0.76448
vt 0.42087 0.79478
vt 0.39560 0.78854
vt 0.37022 0.78276
vt 0.37022 0.75760
vt 0.44472 0.83784
vt 0.47014 0.83784
vt 0.44900 0.87683
vt 0.47256 0.78926
vt 0.43810 0.78925
vt 1.44472 0.83784
vt 1.44900 0.87683
vt 1.47014 0.83784
vt 1.47256 0.78926
vt 1.43810 0.78925
vt 0.95924 0.96026
vt 0.91576 0.88896
vt 0.95802 0.88896
vt 0.91722 0.97678
vt 0.95924 0.81766
vt 0.91722 0.80114
vt 1.73926 0.75532
vt 1.75615 0.70635
vt 1.75871 0.75532
vt 1.74181 0.70635
vt 1.51876 0.88332
vt 1.54659 0.93190
vt 1.54418 0.88332
vt 1.51213 0.93191
vt 0.66190 0.09308
vt 0.72530 0.06919
vt 0.71126 0.11370
vt 0.61661 0.15971
vt 0.67521 0.04994
vt 0.71970 0.17110
vt 0.73934 0.02467
vt 0.69711 0.00295
vt 0.67461 0.01813
vt 0.59050 0.22718
vt 0.73938 0.23910
vt 0.62667 0.39556
vt 0.72815 0.40021
vt 0.64664 0.52359
vt 0.70995 0.52876
vt 0.65841 0.60144
vt 0.69916 0.60477
vt 0.66226 0.62697
vt 0.69562 0.62969
vt 0.74789 0.02466
vt 0.81202 0.04992
vt 0.76194 0.06918
vt 0.79011 0.00293
vt 0.81262 0.01811
vt 0.82534 0.09306
vt 0.77598 0.11369
vt 0.87064 0.15968
vt 0.76755 0.17108
vt 0.89676 0.22715
vt 0.74789 0.23909
vt 0.86062 0.39552
vt 0.75914 0.40020
vt 0.84067 0.52356
vt 0.77736 0.52874
vt 0.82892 0.60142
vt 0.78817 0.60475
vt 0.82507 0.62694
vt 0.79171 0.62968
vt 0.95384 0.35048
vt 0.93412 0.43003
vt 0.93348 0.34188
vt 0.96724 0.44024
vt 0.96724 0.49684
vt 0.85281 0.48668
vt 0.87587 0.55168
vt 0.96259 0.55350
vt 0.93318 0.70826
vt 0.87418 0.70902
vt 0.90072 0.83592
vt 0.86384 0.83508
vt 0.88143 0.91017
vt 0.85769 0.90963
vt 0.87511 0.93451
vt 0.85568 0.93407
vt 0.28323 0.36395
vt 0.28261 0.45210
vt 0.26288 0.37255
vt 0.24950 0.46232
vt 0.24951 0.51892
vt 0.36393 0.50873
vt 0.34089 0.57374
vt 0.25416 0.57558
vt 0.28361 0.73032
vt 0.34260 0.73108
vt 0.31608 0.85798
vt 0.35297 0.85714
vt 0.33538 0.93223
vt 0.35913 0.93168
vt 0.34172 0.95657
vt 0.36115 0.95613
vt 1.69402 0.88156
vt 1.67457 0.84711
vt 1.69402 0.84711
vt 1.67457 0.88156
vt 0.60141 0.56553
vt 0.60099 0.46921
vt 0.61574 0.46900
vt 0.61616 0.56532
vt 1.60099 0.46921
vt 1.60141 0.56553
vt 1.61575 0.46900
vt 1.61616 0.56532
vt 1.52304 0.84433
vt 0.16121 0.90426
vt 0.17831 0.86823
vt 0.17831 0.90426
vt 0.16121 0.86823
vt 1.17831 0.90426
vt 1.16121 0.86823
vt 1.16121 0.90426
vt 1.17831 0.86823
vt 0.99087 0.72733
vt 0.99088 0.80210
vt 0.95776 0.80210
vt 0.95775 0.72733
vt 0.35705 0.44106
vt 0.29147 0.34424
vt 0.35706 0.34424
vt 0.29147 0.44105
vt 0.29148 0.24743
vt 0.35706 0.24743
vt 0.16121 0.95386
vt 0.17831 0.95386
vt 1.16121 0.95386
vt 1.17831 0.95386
vt 0.98239 0.09208
vt 0.97358 0.04104
vt 0.97952 0.03969
vt 0.97638 0.09208
vt 0.30721 0.19444
vt 0.44591 0.19444
vt 0.44352 0.19809
vt 0.30839 0.19810
vt 0.30223 0.99551
vt 0.29398 0.96106
vt 0.30223 0.96106
vt 0.29398 0.99551
vt 0.97360 0.14312
vt 0.97953 0.14447
vt 0.87220 0.14165
vt 0.86855 0.00534
vt 0.87221 0.00295
vt 0.86855 0.14047
vt 1.29398 0.96106
vt 1.30223 0.99551
vt 1.30223 0.96106
vt 1.29398 0.99551
vt 0.01166 0.18201
vt 0.00876 0.20943
vt 0.00293 0.18327
vt 0.01735 0.20744
vt 0.02341 0.23279
vt 0.01502 0.23550
vt 0.24685 0.23764
vt 0.11700 0.23657
vt 0.12276 0.23379
vt 0.24929 0.23485
vt 0.04793 0.23306
vt 0.04020 0.23582
vt 0.89325 0.00295
vt 0.88953 0.00524
vt 0.89328 0.18124
vt 0.88956 0.17894
vt 0.21364 0.08092
vt 0.35254 0.00295
vt 0.35215 0.00635
vt 0.21024 0.07947
vt 0.10045 0.13746
vt 0.09406 0.13750
vt 0.03356 0.17100
vt 0.02541 0.17191
vt 0.75425 0.10378
vt 0.73216 0.17850
vt 0.73215 0.10378
vt 0.75426 0.17850
vt 0.40808 0.24564
vt 0.40624 0.24275
vt 0.36644 0.99411
vt 0.38355 0.94752
vt 0.38355 0.99411
vt 0.36644 0.94752
vt 1.38355 0.99411
vt 1.38355 0.94752
vt 1.36644 0.94752
vt 1.36644 0.99411
vt 0.98936 0.95055
vt 0.98867 0.88896
vt 0.98936 0.82737
vt 0.31347 0.98826
vt 0.30522 0.96106
vt 0.31347 0.96106
vt 0.30522 0.98826
vt 1.31347 0.98826
vt 1.31347 0.96106
vt 1.30522 0.96106
vt 1.30522 0.98826
vt 0.42230 0.00663
vt 0.41982 0.00987
vt 0.46550 0.20768
vt 0.46920 0.20945
vt 0.71641 0.80912
vt 0.75659 0.78275
vt 0.77641 0.80927
vt 0.85500 0.75358
vt 0.85847 0.72794
vt 0.78377 0.72859
vt 0.76147 0.66043
vt 0.78800 0.63461
vt 0.73525 0.65331
vt 0.71641 0.61303
vt 0.50330 0.03727
vt 0.50344 0.09726
vt 0.47693 0.07744
vt 0.44775 0.17585
vt 0.42212 0.17932
vt 0.42276 0.10463
vt 0.35460 0.08232
vt 0.32879 0.10885
vt 0.34748 0.05611
vt 0.30721 0.03726
vt 0.30770 0.91794
vt 0.20228 0.99404
vt 0.22091 0.90479
vt 0.29432 0.81114
vt 0.20229 0.81028
vt 1.22091 0.90479
vt 1.29432 0.81114
vt 1.20229 0.81028
vt 1.30770 0.91794
vt 1.20228 0.99404
vt 0.69402 0.88156
vt 0.67457 0.84711
vt 0.69402 0.84711
vt 0.67457 0.88156
vt 0.30501 0.07228
vt 0.27787 0.22344
vt 0.19147 0.10108
vt 0.22295 0.20025
vt 0.20738 0.17597
vt 0.14509 0.16630
vt 0.19345 0.19695
vt 0.12359 0.22346
vt 0.26428 0.66550
vt 0.23548 0.77904
vt 0.11312 0.69264
vt 0.13631 0.74756
vt 0.16059 0.76314
vt 0.17026 0.82543
vt 0.13960 0.77706
vt 0.11310 0.84692
vt 0.52755 0.79763
vt 0.62321 0.77605
vt 0.62795 0.79469
vt 0.53126 0.81641
vt 0.52755 0.61740
vt 0.62795 0.62034
vt 0.62321 0.63899
vt 0.53126 0.59861
vt 0.40452 0.17575
vt 0.29672 0.19048
vt 0.29689 0.17573
vt 0.40435 0.19050
vt 1.29672 0.19048
vt 1.40452 0.17575
vt 1.29689 0.17573
vt 1.40435 0.19050
vt 1.84496 0.90400
vt 1.77936 0.81320
vt 1.84495 0.81320
vt 1.77937 0.90400
vt 1.77938 0.99480
vt 1.84497 0.99480
vt 0.91052 0.14867
vt 0.93264 0.03154
vt 0.93262 0.14867
vt 0.91054 0.03154
vt 0.60145 0.37804
vt 0.61620 0.37783
vt 1.60145 0.37804
vt 1.61620 0.37783
vt 0.17474 0.60732
vt 0.24453 0.55744
vt 0.25169 0.60732
vt 0.18191 0.55744
vt 0.56032 0.73343
vt 0.65397 0.66003
vt 0.65482 0.75207
vt 1.56032 0.73343
vt 1.65397 0.66003
vt 1.65482 0.75207
vt 0.42391 0.02629
vt 0.42142 0.02935
vt 0.46206 0.19153
vt 0.45843 0.18974
vt 0.48061 0.00296
vt 0.47895 0.02198
vt 0.52292 0.18730
vt 0.51306 0.17093
vt 0.43639 0.96521
vt 0.44464 0.99241
vt 0.43639 0.99241
vt 0.44464 0.96521
vt 1.43639 0.96521
vt 1.44464 0.99241
vt 1.44464 0.96521
vt 1.43639 0.99241
vt 0.42965 0.98165
vt 0.38665 0.98165
vt 0.42965 0.96459
vt 0.38665 0.96459
vt 1.42965 0.96459
vt 1.38665 0.98165
vt 1.42965 0.98165
vt 1.38665 0.96459
vt 0.24478 0.63183
vt 0.18164 0.63182
vt 1.74898 0.66779
vt 0.52636 0.01743
vt 0.52178 0.03677
vt 0.55801 0.15470
vt 0.54553 0.13927
vt 0.84496 0.90400
vt 0.77938 0.99480
vt 0.77937 0.90400
vt 0.84497 0.99480
vt 0.84495 0.81320
vt 0.77936 0.81320
vt 0.18483 0.95672
vt 0.14910 0.97383
vt 0.14910 0.95672
vt 0.18483 0.97383
vt 0.11338 0.97383
vt 0.11338 0.95672
vt 1.18483 0.97383
vt 1.14910 0.95672
vt 1.14910 0.97383
vt 1.18483 0.95672
vt 1.11338 0.95672
vt 1.11338 0.97383
vt 0.55501 0.04196
vt 0.57127 0.02486
vt 0.58289 0.07664
vt 0.56376 0.08107
vt 0.57309 0.12006
vt 0.59520 0.12830
vt 0.48024 0.96578
vt 0.46464 0.92472
vt 0.46814 0.92316
vt 0.47642 0.96625
vt 0.54900 0.82948
vt 0.59162 0.84157
vt 0.59006 0.84508
vt 0.54853 0.83329
vt 0.91052 0.27636
vt 0.94364 0.33635
vt 0.91052 0.33635
vt 0.94364 0.27636
vt 0.42110 0.99575
vt 0.38665 0.98750
vt 0.42110 0.98750
vt 0.38665 0.99575
vt 1.42110 0.99575
vt 1.38665 0.98750
vt 1.38665 0.99575
vt 1.42110 0.98750
vt 0.23723 0.65139
vt 0.18919 0.65138
vt 0.23170 0.66575
vt 0.19473 0.66575
vt 0.85972 0.00296
vt 0.82659 0.00295
vt 0.48734 0.87128
vt 0.50607 0.90065
vt 0.50098 0.84316
vt 0.48440 0.82588
vt 0.49619 0.80106
vt 0.48146 0.79266
vt 0.68890 0.82530
vt 0.71372 0.81351
vt 0.72212 0.82824
vt 0.67161 0.80872
vt 0.64350 0.82237
vt 0.61413 0.80364
vt 0.69011 0.74807
vt 0.70926 0.76063
vt 0.70903 0.70752
vt 0.69005 0.70752
vt 0.69011 0.66696
vt 0.70926 0.65440
vt 0.38672 0.86517
vt 0.36711 0.79858
vt 0.38857 0.79268
vt 0.36492 0.88991
vt 0.71621 0.94259
vt 0.64962 0.92298
vt 0.72211 0.92113
vt 0.62488 0.94479
vt 0.19466 0.52584
vt 0.23179 0.52584
vt 0.54418 0.88332
vt 0.51876 0.88332
vt 0.52304 0.84433
vt 0.54659 0.93190
vt 0.51213 0.93191
vt 0.75425 0.07860
vt 0.73215 0.07860
vt 0.75871 0.75532
vt 0.74181 0.70635
vt 0.75615 0.70635
vt 0.73926 0.75532
vt 0.74898 0.66779
vt 0.94200 0.13168
vt 0.94240 0.09129
vt 0.95732 0.09129
vt 0.95531 0.14217
vt 0.94200 0.05091
vt 0.95531 0.04042
vt 0.12884 0.05274
vt 0.16006 0.09227
vt 0.14031 0.10255
vt 0.15103 0.05274
vt 0.16006 0.01320
vt 0.14031 0.00293
vt 0.99086 0.61038
vt 0.95773 0.61038
vt 0.94365 0.18004
vt 0.91052 0.18004
vn 0.9764 0.2126 0.0000
vn 1.0000 0.0394 0.0000
vn 1.0000 0.0394 0.0079
vn 1.0000 0.0394 -0.0079
vn 0.8425 -0.5354 0.0000
vn 0.7717 -0.6299 0.0000
vn 0.7402 0.6772 0.0000
vn 0.9921 0.1102 0.0000
vn 0.9921 0.1102 0.0236
vn 0.9921 0.1102 -0.0236
vn 0.7244 0.6850 0.0000
vn 0.9843 0.1575 0.0000
vn -0.2598 0.9685 0.0000
vn -0.1181 0.9921 0.0000
vn -0.0709 -0.7559 0.6457
vn -0.0709 -0.7559 -0.6457
vn -0.8425 0.5276 0.0630
vn -0.8504 0.5276 0.0000
vn -0.8425 0.5276 -0.0630
vn -0.9134 -0.4016 0.0000
vn -0.9134 -0.4016 0.0787
vn -0.9134 -0.4016 -0.0787
vn 0.2913 0.9449 0.1417
vn 0.2677 0.9528 0.1417
vn 0.2913 0.9606 0.0000
vn 0.2598 0.9685 0.0000
vn 0.2677 0.9528 -0.1417
vn 0.2913 0.9449 -0.1417
vn -0.9606 -0.0394 0.2756
vn -0.9606 -0.0394 -0.2756
vn 0.2283 0.9606 0.1496
vn 0.2362 0.9685 0.0000
vn 0.2283 0.9606 -0.1496
vn -0.3701 0.9291 0.0000
vn -0.9606 0.0394 -0.2756
vn -0.9606 0.0394 0.2756
vn -0.9134 -0.4094 -0.0157
vn -0.9134 -0.4094 0.0000
vn -0.9134 -0.4094 0.0157
vn 0.2835 0.9606 0.0000
vn 0.2835 0.9449 0.1339
vn 0.2835 0.9449 -0.1339
vn 0.2598 0.9528 0.1417
vn 0.2283 0.9606 -0.1575
vn 0.2283 0.9764 0.0000
vn 0.2283 0.9606 -0.1654
vn 0.2598 0.9528 -0.1417
vn -0.8504 -0.4803 0.2205
vn -0.8504 -0.4803 -0.2205
vn 0.2283 0.9606 0.1575
vn 0.2283 0.9606 0.1654
vn -0.3622 0.9370 0.0000
vn -0.4488 0.8819 0.1181
vn -0.3543 0.9213 0.1339
vn -0.4646 0.8898 0.0000
vn 0.2283 0.9528 -0.1890
vn 0.2283 0.9528 -0.2047
vn -0.4488 0.8819 -0.1181
vn -0.3543 0.9213 -0.1339
vn 0.2283 0.9528 0.1890
vn 0.2283 0.9528 0.2047
vn -0.2047 -0.9764 0.0000
vn -0.1024 -0.9921 0.0000
vn -0.1968 -0.9606 0.1732
vn -0.0866 -0.9843 0.1575
vn -0.5669 0.8189 0.1024
vn -0.5669 0.8268 0.0000
vn -0.5669 0.8189 -0.1024
vn -0.1968 -0.9606 -0.1732
vn -0.0866 -0.9843 -0.1575
vn 0.2520 0.0945 0.9606
vn 0.2520 -0.0945 -0.9606
vn 0.2520 0.0945 -0.9606
vn 0.2520 -0.0945 0.9606
vn -0.9843 -0.0472 0.1575
vn -0.9370 -0.0472 -0.3465
vn -0.3543 0.9291 0.1339
vn -0.3543 0.9291 -0.1339
vn -0.3701 0.3622 0.8583
vn -0.4094 0.3307 0.8504
vn -0.3780 0.3543 0.8583
vn -0.3307 0.3858 0.8583
vn -0.3701 0.3622 -0.8583
vn -0.4094 0.3307 -0.8504
vn -0.3780 0.3543 -0.8583
vn -0.3307 0.3858 -0.8583
vn 0.0000 0.0000 -1.0000
vn 0.0000 0.0000 1.0000
vn -0.1968 -0.0157 0.9843
vn -0.1968 0.0157 0.9843
vn -0.1968 -0.0157 -0.9843
vn -0.1968 0.0157 -0.9843
vn -0.8661 -0.4803 0.1417
vn -0.8189 -0.4803 -0.3071
vn -0.8504 0.4724 -0.2283
vn 0.6378 0.7638 0.0000
vn 0.6378 0.7638 0.1102
vn -0.8504 0.4724 0.2283
vn 0.6378 0.7638 -0.1102
vn 0.2598 0.1260 0.9606
vn 0.2598 0.1260 -0.9606
vn -0.5591 0.8268 0.0945
vn -0.4488 0.8898 0.0945
vn -0.4409 0.8976 0.0000
vn -0.5748 0.8189 0.0000
vn -0.5591 0.8268 -0.0945
vn -0.4488 0.8898 -0.0945
vn 0.9370 0.3543 0.0000
vn 0.9370 -0.3543 0.0000
vn -0.1339 0.0000 0.9921
vn -0.1339 0.0000 -0.9921
vn -0.9685 -0.0472 -0.2520
vn -0.9685 -0.0472 0.2520
vn -0.1732 -0.0315 0.9843
vn -0.1732 -0.0315 -0.9843
vn 0.0394 -1.0000 0.0000
vn 0.0472 -0.9921 0.1260
vn 0.0472 -0.9921 -0.1260
vn 0.1575 -0.9843 0.0000
vn 0.1654 -0.9843 -0.1102
vn 0.2598 -0.9606 -0.1024
vn 0.2598 -0.9685 0.0000
vn 0.1654 -0.9843 0.1102
vn 0.2598 -0.9606 0.1024
vn 0.2913 -0.9528 0.0787
vn 0.2992 -0.9528 0.0000
vn 0.2913 -0.9528 -0.0787
vn 0.2913 -0.9528 -0.0551
vn 0.2913 -0.9528 -0.0394
vn 0.2913 -0.9528 0.0000
vn 0.2913 -0.9528 0.0394
vn 0.2913 -0.9528 0.0551
vn -0.3465 -0.1811 0.9213
vn -0.3465 -0.0551 0.9370
vn -0.1575 -0.1811 -0.9685
vn -0.1575 -0.0551 -0.9843
vn -0.1575 0.9843 0.1102
vn -0.1575 0.9843 -0.1102
vn -0.2598 -0.0551 0.9606
vn -0.2598 -0.0551 -0.9606
vn -0.2520 -0.1890 0.9449
vn -0.2835 0.0236 -0.9606
vn -0.2520 -0.1890 -0.9449
vn -0.2835 0.0236 0.9606
vn -0.2913 -0.0787 0.9528
vn -0.3307 -0.1260 0.9370
vn -0.2835 -0.0787 0.9528
vn -0.2362 -0.0236 0.9685
vn -0.3150 -0.1339 0.9370
vn 0.0315 0.0000 1.0000
vn 0.2362 0.0079 0.9685
vn -0.3150 -0.1339 -0.9370
vn -0.3307 -0.1260 -0.9370
vn -0.2913 -0.0787 -0.9528
vn -0.2835 -0.0787 -0.9528
vn -0.2362 -0.0236 -0.9685
vn 0.0315 0.0000 -1.0000
vn 0.2362 0.0079 -0.9685
vn -0.3780 -0.1417 0.9134
vn -0.3071 -0.0866 0.9449
vn -0.2992 -0.0787 0.9528
vn -0.2520 -0.0315 0.9685
vn -0.2520 -0.0236 0.9685
vn -0.0394 -0.0079 1.0000
vn -0.0315 -0.0079 1.0000
vn -0.3780 -0.1417 -0.9134
vn -0.3071 -0.0866 -0.9449
vn -0.2992 -0.0787 -0.9528
vn -0.2520 -0.0315 -0.9685
vn -0.2520 -0.0236 -0.9685
vn -0.0394 -0.0079 -1.0000
vn -0.0315 -0.0079 -1.0000
vn 0.0157 -1.0000 -0.0315
vn 0.9291 0.3228 -0.1654
vn 0.8425 0.4488 -0.2835
vn 0.0157 -1.0000 0.0315
vn 0.8425 0.4488 0.2835
vn 0.9291 0.3228 0.1654
vn -0.2835 0.1575 -0.9449
vn -0.2835 0.1575 0.9449
vn -0.1339 0.9921 -0.0157
vn -0.1339 0.9921 0.0157
vn -0.0472 1.0000 0.0000
vn -0.9921 -0.1181 0.0000
vn -0.9921 -0.1181 -0.0157
vn -0.9921 -0.1181 0.0157
vn 0.2126 0.9764 0.0315
vn 0.2126 0.9764 -0.0315
vn 0.2362 -0.9449 0.2205
vn 0.5669 -0.4331 0.7008
vn 0.0000 1.0000 0.0000
vn 0.2362 -0.9449 -0.2205
vn 0.5669 -0.4331 -0.7008
vn 0.1732 -0.9764 0.1417
vn 0.1890 -0.9843 0.0000
vn 0.1890 -0.9843 -0.0079
vn 0.1732 -0.9764 -0.1417
vn 0.1890 -0.9843 0.0079
vn 0.1417 -0.9449 -0.2835
vn 0.1575 -0.9528 -0.2598
vn 0.1181 -0.9449 -0.3150
vn 0.1260 -0.9528 -0.2756
vn 0.1260 -0.9528 0.2756
vn 0.1181 -0.9449 0.3150
vn -0.1968 -0.9528 0.2205
vn -0.0787 -0.9606 0.2677
vn 0.1417 -0.9449 0.2835
vn 0.1575 -0.9528 0.2598
vn 0.8268 -0.5669 0.0000
vn -0.1968 -0.9528 -0.2205
vn -0.0787 -0.9606 -0.2677
vn -0.9921 0.0000 -0.1339
vn -0.9921 0.0000 0.1339
vn 0.0551 0.9921 0.1181
vn 0.0551 1.0000 0.0000
vn 0.0551 0.9921 -0.1181
vn -0.7717 0.6299 0.0000
vn -0.7717 0.6299 0.0945
vn -0.7717 0.6299 -0.0945
vn -0.2835 -0.1496 -0.9449
vn -0.2835 -0.1496 0.9449
vn -0.2835 -0.0157 -0.9606
vn -0.2835 -0.0157 0.9606
vn -0.3307 -0.9449 -0.0236
vn -0.4724 -0.8819 0.0000
vn -0.3307 -0.9449 0.0236
vn -0.0709 0.6535 0.7559
vn -0.0709 0.6535 -0.7559
vn -0.8189 0.5512 -0.1417
vn -0.8189 0.5512 0.1417
vn -0.9055 -0.3701 0.2047
vn -0.9055 -0.3701 -0.2047
vn -1.0000 -0.0709 0.0000
vn 0.0157 1.0000 0.0315
vn -1.0000 0.0709 0.0000
vn 0.0157 1.0000 -0.0315
vn -0.8819 0.4724 0.0000
vn 0.7244 0.5669 -0.4016
vn 0.7244 0.5669 0.4016
vn -0.8740 0.4882 0.0000
vn 0.0709 -0.6535 -0.7559
vn 0.0709 -0.6535 0.7559
vn -0.4094 -0.9055 -0.1102
vn -0.5669 -0.8189 -0.1339
vn -0.4094 -0.9055 0.1102
vn -0.5669 -0.8189 0.1339
vn 0.2756 -0.2205 0.9370
vn 0.2756 -0.2205 -0.9370
vn 0.0315 -1.0000 -0.0236
vn 0.0315 -1.0000 0.0236
vn 0.2835 0.0866 -0.9528
vn 0.2835 0.0866 0.9528
vn 0.2835 -0.0866 -0.9528
vn 0.2835 -0.0866 0.9528
vn 0.9921 0.0000 0.1339
vn 0.9921 0.0000 -0.1339
vn 0.9449 -0.2992 0.1260
vn 0.9449 -0.2992 -0.1260
vn 0.2756 0.2205 -0.9370
vn 0.2756 0.2205 0.9370
vn -0.2283 -0.9764 0.0000
vn 0.9606 -0.1102 0.2520
vn 0.9606 -0.1339 0.2441
vn 0.9606 -0.1102 -0.2520
vn 0.9606 -0.1339 -0.2441
vn 0.2520 -0.9685 0.0157
vn 0.2520 -0.9685 -0.0157
vn 0.0000 -1.0000 0.0000
vn 0.2756 -0.9606 0.0000
vn -0.0079 0.8110 -0.5906
vn -0.0079 0.8110 0.5906
vn -0.2441 -0.9685 0.0000
vn 0.2677 -0.9606 0.0000
vn 0.9528 0.1181 0.2756
vn 0.9528 0.1181 -0.2756
vn 0.9528 0.1417 0.2756
vn 0.9528 0.1417 -0.2756
vn 0.0157 -1.0000 0.0000
vn 0.3386 0.4016 -0.8504
vn 0.2283 0.5039 -0.8346
vn 0.3071 0.4252 -0.8504
vn 0.1811 0.5433 -0.8189
vn 0.1575 0.5748 -0.8032
vn 0.1496 0.5827 -0.7953
vn 0.1575 0.5748 0.8032
vn 0.1496 0.5827 0.7953
vn 0.1811 0.5433 0.8189
vn 0.2283 0.5039 0.8346
vn 0.3071 0.4252 0.8504
vn 0.3386 0.4016 0.8504
vn -0.0157 1.0000 0.0236
vn -0.0394 0.9921 -0.0866
vn -0.0630 1.0000 0.0000
vn -0.0394 0.9921 0.0866
vn -0.0157 1.0000 -0.0236
vn 0.4409 -0.3150 -0.8425
vn 0.3465 -0.3937 -0.8504
vn 0.4961 -0.2598 -0.8268
vn 0.5591 -0.1890 -0.8110
vn 0.3465 -0.3937 0.8504
vn 0.4409 -0.3150 0.8425
vn 0.4961 -0.2598 0.8268
vn 0.5591 -0.1890 0.8110
vn 0.2520 -0.1890 -0.9449
vn 0.2520 -0.1890 0.9449
vn 0.2598 -0.0551 -0.9606
vn 0.2598 -0.0551 0.9606
vn 0.1575 -0.1811 0.9685
vn -0.0157 1.0000 0.0000
vn 0.3465 -0.1811 -0.9213
vn 0.1575 -0.0551 0.9843
vn 0.3465 -0.0551 -0.9370
vn 0.3386 -0.9449 0.0000
vn 0.9291 -0.1339 0.3465
vn 0.9291 -0.1102 0.3465
vn 0.9764 -0.1339 -0.1575
vn 0.9843 -0.1102 -0.1575
vn 0.9528 -0.1417 -0.2756
vn 0.9528 -0.1417 0.2756
vn 0.9528 -0.1181 -0.2756
vn 0.9528 -0.1181 0.2756
vn 0.9764 -0.2047 -0.0079
vn 0.9764 -0.2047 0.0000
vn 0.9764 -0.2047 0.0079
vn 0.9921 0.1417 0.0000
vn 0.9921 0.1417 -0.0315
vn 0.9921 0.1417 0.0315
vn -0.6299 0.7795 0.0000
vn -0.7638 -0.6457 0.0000

o animal_shark
usemtl tex_animal_shark_i043p001x
f 1/1/1 2/2/1 3/3/1
f 2/2/1 1/1/1 4/4/1
f 5/5/2 6/6/3 7/7/3
f 6/6/3 5/5/2 8/8/2
f 5/5/2 9/9/4 8/8/2
f 10/10/4 9/9/4 5/5/2
f 11/11/2 12/12/2 13/13/2
f 12/12/2 11/11/2 14/14/2
f 11/11/2 15/15/2 14/14/2
f 15/15/2 11/11/2 16/16/2
f 4/4/5 17/17/5 2/2/5
f 17/17/5 4/4/5 18/18/5
f 19/19/6 20/20/6 21/21/6
f 20/20/6 19/19/6 22/22/6
f 23/23/7 3/3/7 24/24/7
f 3/3/7 23/23/7 1/1/7
f 25/25/8 26/26/9 27/27/9
f 26/26/9 25/25/8 28/28/8
f 25/25/8 29/29/10 28/28/8
f 25/25/8 30/30/10 29/29/10
f 31/31/11 32/32/11 33/33/11
f 32/32/11 31/31/11 34/34/11
f 35/35/12 31/31/12 36/36/12
f 31/31/12 35/35/12 34/34/12
f 37/37/13 38/38/14 39/39/14
f 39/39/14 40/40/13 37/37/13
f 41/41/15 42/42/15 43/43/15
f 42/42/15 41/41/15 44/44/15
f 45/45/16 46/46/16 47/47/16
f 47/47/16 46/46/16 48/48/16
f 49/49/17 50/50/18 51/51/18
f 50/50/18 49/49/17 52/52/17
f 50/50/18 53/53/19 51/51/18
f 53/53/19 50/50/18 54/54/19
f 55/55/20 56/56/21 57/57/21
f 56/56/21 55/55/20 58/58/20
f 55/55/20 59/59/22 58/58/20
f 55/55/20 60/60/22 59/59/22
f 61/61/23 62/62/24 63/63/25
f 63/63/25 62/62/24 64/64/26
f 65/65/27 63/63/25 64/64/26
f 63/63/25 65/65/27 66/66/28
f 67/67/29 68/68/29 69/69/29
f 68/68/29 67/67/29 70/70/29
f 71/68/30 72/67/30 73/69/30
f 74/70/30 72/67/30 71/68/30
f 64/64/26 26/71/31 28/72/32
f 62/62/24 26/71/31 64/64/26
f 29/73/33 64/64/26 28/72/32
f 64/64/26 29/73/33 65/65/27
f 37/37/13 75/74/34 76/75/34
f 75/74/34 37/37/13 40/40/13
f 77/67/29 78/68/29 79/69/29
f 78/68/29 77/67/29 80/70/29
f 81/68/30 82/67/30 83/69/30
f 84/70/30 82/67/30 81/68/30
f 85/67/35 86/70/35 87/68/35
f 87/68/35 88/69/35 85/67/35
f 89/67/36 90/68/36 91/70/36
f 90/68/36 89/67/36 92/69/36
f 49/49/37 93/76/38 94/77/37
f 51/51/38 93/76/38 49/49/37
f 53/53/39 93/76/38 51/51/38
f 93/76/38 53/53/39 95/78/39
f 96/67/35 97/70/35 98/68/35
f 98/68/35 99/69/35 96/67/35
f 100/67/36 101/68/36 102/70/36
f 101/68/36 100/67/36 103/69/36
f 104/79/40 105/80/41 106/81/41
f 104/79/40 106/81/41 107/82/40
f 108/83/42 104/79/40 107/82/40
f 104/79/40 108/83/42 109/84/42
f 106/81/41 110/85/43 111/86/43
f 110/85/43 106/81/41 105/80/41
f 30/87/44 112/88/45 113/89/46
f 25/90/45 112/88/45 30/87/44
f 114/91/47 30/87/44 113/89/46
f 30/87/44 114/91/47 115/92/47
f 108/83/42 115/92/47 114/91/47
f 114/91/47 109/84/42 108/83/42
f 67/67/48 69/69/48 116/93/48
f 72/67/49 117/93/49 73/69/49
f 110/85/43 27/94/50 111/86/43
f 110/85/43 118/95/51 27/94/50
f 119/96/52 120/97/53 121/98/54
f 120/97/53 119/96/52 122/99/55
f 112/88/45 123/100/56 113/89/46
f 123/100/56 112/88/45 124/101/45
f 9/102/57 124/101/45 8/103/32
f 124/101/45 9/102/57 123/100/56
f 125/104/58 122/99/55 119/96/52
f 125/104/58 119/96/52 126/105/59
f 77/67/48 79/69/48 127/93/48
f 118/95/51 128/106/60 112/88/45
f 112/88/45 128/106/60 124/101/45
f 112/88/45 27/94/50 118/95/51
f 27/94/50 112/88/45 25/90/45
f 124/101/45 6/107/61 8/103/32
f 128/106/60 6/107/61 124/101/45
f 82/67/49 129/93/49 83/69/49
f 58/108/62 130/109/63 56/110/64
f 56/110/64 130/109/63 131/111/65
f 122/112/55 132/113/66 120/114/53
f 132/113/66 122/112/55 133/115/67
f 133/115/67 122/112/55 134/116/68
f 134/116/68 122/112/55 125/117/58
f 59/118/69 130/109/63 58/108/62
f 130/109/63 59/118/69 135/119/70
f 136/67/35 137/70/35 138/68/35
f 138/68/35 139/69/35 136/67/35
f 140/67/36 141/68/36 142/70/36
f 141/68/36 140/67/36 143/69/36
f 144/120/71 145/121/71 146/122/71
f 147/123/72 148/122/72 149/120/72
f 149/120/73 148/122/73 150/121/73
f 151/123/74 144/120/74 146/122/74
f 152/69/75 153/70/75 154/67/75
f 153/70/75 152/69/75 155/68/75
f 156/124/76 157/125/76 158/126/76
f 157/125/76 156/124/76 159/127/76
f 160/128/53 105/80/77 161/129/77
f 160/128/53 161/129/77 162/130/53
f 104/79/52 161/129/77 105/80/77
f 161/129/77 104/79/52 163/131/52
f 164/132/78 163/131/52 104/79/52
f 164/132/78 104/79/52 109/84/78
f 164/132/78 165/133/58 166/134/58
f 165/133/58 164/132/78 109/84/78
f 162/135/79 132/136/80 167/137/80
f 132/136/80 162/135/79 120/138/81
f 162/135/79 121/139/82 120/138/81
f 162/135/79 161/140/82 121/139/82
f 166/141/83 168/142/84 134/143/84
f 166/141/83 134/143/84 125/144/85
f 126/145/86 166/141/83 125/144/85
f 166/141/83 126/145/86 164/146/86
f 169/123/87 170/122/87 171/120/87
f 171/120/87 170/122/87 172/121/87
f 173/147/88 174/148/88 175/149/88
f 174/148/88 176/150/88 175/149/88
f 177/123/89 178/120/89 179/122/89
f 178/120/90 180/121/90 179/122/90
f 181/123/91 182/122/91 183/120/91
f 183/120/92 182/122/92 184/121/92
f 154/67/93 185/93/93 152/69/93
f 158/126/94 157/125/94 186/151/94
f 96/67/95 99/69/95 187/93/95
f 163/131/96 121/98/97 161/129/97
f 121/98/97 163/131/96 119/96/96
f 100/67/98 188/93/98 103/69/98
f 126/105/99 119/96/96 163/131/96
f 163/131/96 164/132/99 126/105/99
f 85/67/95 88/69/95 189/93/95
f 89/67/98 190/93/98 92/69/98
f 111/152/100 61/153/100 106/154/100
f 61/153/100 111/152/100 62/155/100
f 26/156/100 62/155/100 111/152/100
f 111/152/100 27/157/100 26/156/100
f 115/158/101 29/159/101 30/160/101
f 29/159/101 115/158/101 65/161/101
f 115/158/101 66/162/101 65/161/101
f 66/162/101 115/158/101 108/163/101
f 160/164/53 167/165/102 191/166/103
f 167/165/102 160/164/53 162/167/53
f 192/168/104 191/166/103 167/165/102
f 192/168/104 167/165/102 193/169/105
f 168/170/106 192/168/104 193/169/105
f 192/168/104 168/170/106 194/171/107
f 165/172/58 194/171/107 168/170/106
f 168/170/106 166/173/58 165/172/58
f 144/174/108 195/175/108 145/176/108
f 195/175/108 196/177/108 145/176/108
f 149/174/108 150/176/108 197/175/108
f 197/175/108 150/176/108 198/177/108
f 151/178/109 199/179/109 144/174/109
f 199/179/109 195/175/109 144/174/109
f 147/178/109 197/175/109 200/179/109
f 197/175/109 147/178/109 149/174/109
f 201/180/110 202/181/110 203/182/110
f 202/181/110 201/180/110 204/183/110
f 205/184/111 206/185/111 207/186/111
f 205/184/111 207/186/111 208/187/111
f 209/70/112 210/69/112 211/67/112
f 210/69/112 209/70/112 212/68/112
f 213/69/113 214/70/113 215/67/113
f 214/70/113 213/69/113 216/68/113
f 217/188/110 218/189/110 219/190/110
f 218/189/110 217/188/110 220/191/110
f 221/192/111 222/193/111 223/194/111
f 222/193/111 221/192/111 224/195/111
f 225/196/114 220/191/114 217/188/114
f 220/191/114 225/196/114 226/197/114
f 224/195/115 227/198/115 222/193/115
f 227/198/115 224/195/115 228/199/115
f 131/111/65 229/200/116 230/201/117
f 130/109/63 229/200/116 131/111/65
f 231/202/118 232/203/119 229/200/116
f 232/203/119 231/202/118 233/204/120
f 234/205/121 232/203/119 233/204/120
f 232/203/119 234/205/121 235/206/122
f 230/201/117 232/203/119 236/207/123
f 230/201/117 229/200/116 232/203/119
f 232/203/119 237/208/124 236/207/123
f 237/208/124 232/203/119 235/206/122
f 229/200/116 135/119/70 231/202/118
f 135/119/70 229/200/116 130/109/63
f 235/206/122 238/209/125 237/208/124
f 238/209/125 235/206/122 239/210/126
f 234/205/121 240/211/127 235/206/122
f 235/206/122 240/211/127 239/210/126
f 241/212/128 239/210/126 240/211/127
f 239/210/126 241/212/128 242/213/126
f 16/214/129 242/213/126 241/212/128
f 242/213/126 16/214/129 11/215/130
f 13/216/131 242/213/126 11/215/130
f 242/213/126 13/216/131 243/217/132
f 243/217/132 239/210/126 242/213/126
f 239/210/126 243/217/132 238/209/125
f 244/218/133 158/219/133 186/220/133
f 156/221/134 158/219/134 244/218/134
f 156/221/134 244/218/134 245/222/134
f 246/68/35 247/69/35 248/67/35
f 248/67/35 249/70/35 246/68/35
f 250/67/36 251/68/36 252/70/36
f 251/68/36 250/67/36 253/69/36
f 254/223/135 185/224/135 154/225/135
f 153/226/136 254/223/136 154/225/136
f 254/223/136 153/226/136 255/227/136
f 211/67/49 210/69/49 256/93/49
f 215/67/48 257/93/48 213/69/48
f 258/228/137 192/229/104 259/230/14
f 192/229/104 258/228/137 191/231/103
f 260/232/138 259/230/14 192/229/104
f 260/232/138 192/229/104 194/233/107
f 209/234/139 261/235/139 262/236/139
f 209/234/139 211/237/139 261/235/139
f 214/234/140 263/235/140 215/237/140
f 263/235/140 214/234/140 264/236/140
f 265/226/139 266/223/139 267/227/139
f 265/226/139 268/225/139 266/223/139
f 269/226/139 270/225/139 271/223/139
f 269/226/139 271/223/139 272/227/139
f 273/226/140 274/223/140 275/225/140
f 274/223/140 273/226/140 276/227/140
f 277/226/140 278/223/140 279/225/140
f 278/223/140 277/226/140 280/227/140
f 261/223/141 211/225/141 256/224/141
f 281/234/139 282/237/139 283/235/139
f 281/234/139 283/235/139 284/236/139
f 285/238/142 286/239/142 287/240/142
f 286/239/142 285/238/142 288/241/142
f 263/223/143 257/224/143 215/225/143
f 289/234/140 290/235/140 291/237/140
f 290/235/140 289/234/140 292/236/140
f 293/239/144 294/238/144 295/240/144
f 294/238/144 293/239/144 296/241/144
f 297/238/144 298/239/144 299/241/144
f 298/239/144 297/238/144 300/240/144
f 301/239/142 302/238/142 303/241/142
f 302/238/142 301/239/142 304/240/142
f 246/239/144 305/238/144 247/240/144
f 305/238/144 246/239/144 306/241/144
f 266/223/141 268/225/141 307/224/141
f 271/223/141 270/225/141 308/224/141
f 309/238/142 251/239/142 253/240/142
f 251/239/142 309/238/142 310/241/142
f 274/223/143 311/224/143 275/225/143
f 278/223/143 312/224/143 279/225/143
f 313/238/144 138/239/144 314/241/144
f 138/239/144 313/238/144 139/240/144
f 136/67/95 139/69/95 315/93/95
f 141/239/142 316/238/142 317/241/142
f 316/238/142 141/239/142 143/240/142
f 140/67/98 318/93/98 143/69/98
f 191/242/145 319/243/146 320/244/147
f 320/244/147 160/245/148 191/242/145
f 319/243/146 191/242/145 258/246/146
f 160/245/148 320/244/147 321/247/148
f 258/246/146 94/248/149 319/243/146
f 94/248/149 258/246/146 49/249/149
f 49/249/149 258/246/146 52/250/149
f 321/247/148 105/251/88 160/245/148
f 105/251/88 321/247/148 322/252/150
f 322/252/150 110/253/151 105/251/88
f 110/253/151 322/252/150 323/254/151
f 323/254/151 118/255/151 110/253/151
f 118/255/151 323/254/151 324/256/151
f 324/256/151 128/257/151 118/255/151
f 128/257/151 324/256/151 325/258/151
f 325/258/151 6/259/151 128/257/151
f 6/259/151 325/258/151 7/260/151
f 95/261/152 260/262/153 326/263/153
f 53/264/152 260/262/153 95/261/152
f 260/262/153 53/264/152 54/265/152
f 326/263/153 260/262/153 194/266/154
f 326/263/153 194/266/154 327/267/155
f 327/267/155 194/266/154 165/268/156
f 327/267/155 165/268/156 328/269/156
f 328/269/156 165/268/156 109/270/87
f 328/269/156 109/270/87 329/271/157
f 109/270/87 114/272/158 329/271/157
f 329/271/157 114/272/158 330/273/158
f 114/272/158 113/274/158 330/273/158
f 330/273/158 113/274/158 331/275/158
f 113/274/158 123/276/158 331/275/158
f 331/275/158 123/276/158 332/277/158
f 123/276/158 9/278/158 332/277/158
f 332/277/158 9/278/158 10/279/158
f 283/223/141 282/225/141 333/224/141
f 290/223/143 334/224/143 291/225/143
f 56/280/159 335/281/160 57/282/159
f 335/281/160 56/280/159 131/283/161
f 230/284/162 335/281/160 131/283/161
f 230/284/162 336/285/163 335/281/160
f 230/284/162 337/286/164 336/285/163
f 337/286/164 230/284/162 236/287/165
f 237/288/151 337/286/164 236/287/165
f 337/286/164 237/288/151 338/289/151
f 237/288/151 238/290/151 338/289/151
f 338/289/151 238/290/151 339/291/151
f 243/292/151 339/291/151 238/290/151
f 339/291/151 243/292/151 340/293/151
f 13/294/151 340/293/151 243/292/151
f 340/293/151 13/294/151 12/295/151
f 60/296/166 341/297/167 59/298/166
f 59/298/166 341/297/167 135/299/168
f 341/297/167 231/300/169 135/299/168
f 231/300/169 341/297/167 342/301/170
f 342/301/170 343/302/171 231/300/169
f 231/300/169 343/302/171 233/303/172
f 343/302/171 234/304/158 233/303/172
f 234/304/158 343/302/171 344/305/158
f 344/305/158 240/306/158 234/304/158
f 240/306/158 344/305/158 345/307/158
f 345/307/158 241/308/158 240/306/158
f 241/308/158 345/307/158 346/309/158
f 346/309/158 16/310/158 241/308/158
f 16/310/158 346/309/158 15/311/158
f 347/312/173 293/313/173 348/314/173
f 293/313/173 347/312/173 296/315/173
f 349/316/174 350/317/175 351/318/175
f 351/318/175 352/319/174 349/316/174
f 286/313/176 353/312/176 354/314/176
f 353/312/176 286/313/176 288/315/176
f 355/320/177 356/321/178 357/322/177
f 358/323/178 357/322/177 356/321/178
f 265/70/112 359/69/112 268/67/112
f 359/69/112 265/70/112 360/68/112
f 273/70/113 361/69/113 362/68/113
f 361/69/113 273/70/113 275/67/113
f 298/313/173 363/312/173 299/315/173
f 363/312/173 298/313/173 364/314/173
f 301/313/176 365/312/176 366/314/176
f 365/312/176 301/313/176 303/315/176
f 143/240/179 318/324/179 316/238/179
f 139/240/180 313/238/180 315/324/180
f 247/240/180 305/238/180 367/324/180
f 253/240/179 368/324/179 309/238/179
f 295/240/180 294/238/180 369/324/180
f 87/313/173 86/314/173 370/315/173
f 86/314/173 371/312/173 370/315/173
f 300/240/180 297/238/180 372/324/180
f 373/315/176 91/314/176 90/313/176
f 91/314/176 373/315/176 374/312/176
f 287/240/179 375/324/179 285/238/179
f 304/240/179 376/324/179 302/238/179
f 377/67/35 348/70/35 293/68/35
f 293/68/35 295/69/35 377/67/35
f 378/67/36 286/68/36 354/70/36
f 286/68/36 378/67/36 287/69/36
f 379/312/173 246/313/173 249/314/173
f 246/313/173 379/312/173 306/315/173
f 251/313/176 380/312/176 252/314/176
f 380/312/176 251/313/176 310/315/176
f 381/325/181 218/326/181 220/327/181
f 218/326/181 381/325/181 382/328/181
f 224/329/182 383/330/182 384/331/182
f 383/330/182 224/329/182 221/332/182
f 385/333/183 20/334/183 22/335/183
f 22/335/183 386/336/183 385/333/183
f 387/312/173 98/313/173 97/314/173
f 98/313/173 387/312/173 388/315/173
f 101/313/176 389/312/176 102/314/176
f 389/312/176 101/313/176 390/315/176
f 268/67/49 359/69/49 307/93/49
f 275/67/48 311/93/48 361/69/48
f 193/169/184 167/165/185 132/113/185
f 132/113/185 133/115/184 193/169/184
f 134/116/186 193/169/184 133/115/184
f 193/169/184 134/116/186 168/170/186
f 391/312/173 138/313/173 137/314/173
f 138/313/173 391/312/173 314/315/173
f 141/313/176 392/312/176 142/314/176
f 392/312/176 141/313/176 317/315/176
f 393/337/108 174/338/108 394/339/108
f 174/338/108 393/337/108 176/340/108
f 171/174/108 172/176/108 395/175/108
f 395/175/108 172/176/108 396/177/108
f 173/341/109 397/342/109 174/338/109
f 397/342/109 394/339/109 174/338/109
f 169/178/109 171/174/109 398/179/109
f 398/179/109 171/174/109 395/175/109
f 399/343/187 220/327/187 226/344/187
f 220/327/187 399/343/187 381/325/187
f 384/331/188 400/345/188 224/329/188
f 400/345/188 228/346/188 224/329/188
f 401/347/189 402/348/189 403/349/189
f 402/348/189 401/347/189 404/350/189
f 405/351/190 406/352/190 407/353/190
f 407/353/190 408/354/190 405/351/190
f 202/355/191 409/356/191 203/357/191
f 409/356/191 202/355/191 410/358/191
f 401/347/192 411/359/192 404/350/192
f 401/347/192 412/360/192 411/359/192
f 413/361/193 414/362/193 415/363/193
f 414/362/193 413/361/193 416/364/193
f 417/365/191 207/366/191 206/367/191
f 207/366/191 417/365/191 418/368/191
f 12/369/194 5/370/195 7/371/196
f 12/369/194 14/372/195 5/370/195
f 15/373/197 5/370/195 14/372/195
f 5/370/195 15/373/197 10/374/198
f 248/67/95 247/69/95 367/93/95
f 250/67/98 368/93/98 253/69/98
f 281/70/112 419/69/112 282/67/112
f 419/69/112 281/70/112 420/68/112
f 421/69/113 289/70/113 291/67/113
f 289/70/113 421/69/113 422/68/113
f 330/375/199 331/376/200 345/377/200
f 345/377/200 344/378/201 330/375/199
f 346/379/200 345/377/200 331/376/200
f 331/376/200 332/380/200 346/379/200
f 15/373/197 346/379/200 332/380/200
f 332/380/200 10/374/198 15/373/197
f 298/68/35 300/69/35 423/67/35
f 423/67/35 364/70/35 298/68/35
f 424/67/36 301/68/36 366/70/36
f 301/68/36 424/67/36 304/69/36
f 406/381/202 403/349/202 402/348/202
f 402/348/202 407/382/202 406/381/202
f 415/383/203 411/359/203 412/360/203
f 411/359/203 415/383/203 414/384/203
f 338/385/204 322/386/205 337/387/206
f 322/386/205 338/385/204 323/388/207
f 339/389/208 323/388/207 338/385/204
f 323/388/207 339/389/208 324/390/208
f 340/391/208 324/390/208 339/389/208
f 325/392/208 324/390/208 340/391/208
f 340/391/208 12/369/194 325/392/208
f 7/371/196 325/392/208 12/369/194
f 425/393/209 38/394/209 426/395/209
f 38/394/209 425/393/209 39/396/209
f 329/397/210 330/375/199 344/378/201
f 344/378/201 343/398/211 329/397/210
f 382/399/212 219/400/212 218/401/212
f 219/400/212 382/399/212 427/402/212
f 221/403/213 223/404/213 428/405/213
f 428/405/213 383/406/213 221/403/213
f 429/238/144 98/239/144 388/241/144
f 98/239/144 429/238/144 99/240/144
f 101/239/142 430/238/142 390/241/142
f 430/238/142 101/239/142 103/240/142
f 282/67/49 419/69/49 333/93/49
f 259/230/14 52/407/214 258/228/137
f 52/407/214 259/230/14 50/408/215
f 54/409/216 50/408/215 259/230/14
f 54/409/216 259/230/14 260/232/138
f 291/67/48 334/93/48 421/69/48
f 107/82/217 106/81/218 61/61/218
f 61/61/218 63/63/217 107/82/217
f 66/66/219 107/82/217 63/63/217
f 107/82/217 66/66/219 108/83/219
f 103/240/179 188/324/179 430/238/179
f 99/240/180 429/238/180 187/324/180
f 377/67/95 295/69/95 369/93/95
f 378/67/98 375/93/98 287/69/98
f 269/70/112 431/69/112 270/67/112
f 431/69/112 269/70/112 432/68/112
f 433/69/113 277/70/113 279/67/113
f 277/70/113 433/69/113 434/68/113
f 79/240/220 435/238/220 127/324/220
f 83/240/221 129/324/221 436/238/221
f 270/67/49 431/69/49 308/93/49
f 203/410/212 437/411/212 201/412/212
f 437/411/212 203/410/212 409/413/212
f 279/67/48 312/93/48 433/69/48
f 206/414/213 205/415/213 438/416/213
f 438/416/213 417/417/213 206/414/213
f 78/239/222 435/238/222 79/240/222
f 435/238/222 78/239/222 439/241/222
f 436/238/223 81/239/223 83/240/223
f 81/239/223 436/238/223 440/241/223
f 281/314/191 284/312/191 441/315/191
f 441/315/191 420/313/191 281/314/191
f 442/315/191 289/314/191 422/313/191
f 289/314/191 442/315/191 292/312/191
f 423/67/95 300/69/95 372/93/95
f 424/67/98 376/93/98 304/69/98
f 443/315/191 360/313/191 265/314/191
f 265/314/191 267/312/191 443/315/191
f 269/314/191 272/312/191 444/315/191
f 444/315/191 432/313/191 269/314/191
f 445/315/191 273/314/191 362/313/191
f 273/314/191 445/315/191 276/312/191
f 277/314/191 446/315/191 280/312/191
f 446/315/191 277/314/191 434/313/191
f 447/175/108 448/177/108 180/176/108
f 180/176/108 178/174/108 447/175/108
f 449/175/108 184/176/108 450/177/108
f 184/176/108 449/175/108 183/174/108
f 447/175/109 177/178/109 451/179/109
f 177/178/109 447/175/109 178/174/109
f 181/178/109 449/175/109 452/179/109
f 449/175/109 181/178/109 183/174/109
f 209/314/191 262/312/191 453/315/191
f 453/315/191 212/313/191 209/314/191
f 454/315/191 214/314/191 216/313/191
f 214/314/191 454/315/191 264/312/191
f 322/386/205 321/418/224 336/419/225
f 336/419/225 337/387/206 322/386/205
f 329/397/210 342/420/225 328/421/226
f 342/420/225 329/397/210 343/398/211
f 69/240/220 455/238/220 116/324/220
f 73/240/221 117/324/221 456/238/221
f 68/239/222 455/238/222 69/240/222
f 455/238/222 68/239/222 457/241/222
f 24/422/88 3/423/88 458/424/88
f 458/424/88 3/423/88 459/425/88
f 460/426/88 459/425/88 2/427/88
f 459/425/88 3/423/88 2/427/88
f 17/428/88 460/426/88 2/427/88
f 385/429/88 460/426/88 17/428/88
f 21/430/88 385/429/88 17/428/88
f 20/431/88 385/429/88 21/430/88
f 456/238/223 71/239/223 73/240/223
f 71/239/223 456/238/223 461/241/223
f 23/432/87 462/433/87 1/434/87
f 462/433/87 463/435/87 1/434/87
f 464/436/87 4/437/87 463/435/87
f 4/437/87 1/434/87 463/435/87
f 18/438/87 4/437/87 464/436/87
f 386/439/87 18/438/87 464/436/87
f 19/440/87 18/438/87 386/439/87
f 22/441/87 19/440/87 386/439/87
f 43/442/227 42/443/227 350/444/227
f 350/444/227 465/445/227 43/442/227
f 465/445/227 350/444/227 349/446/227
f 355/447/228 466/448/228 356/449/228
f 466/448/228 355/447/228 45/450/228
f 45/450/228 355/447/228 46/451/228
f 245/452/191 159/453/191 156/454/191
f 159/453/191 245/452/191 467/455/191
f 468/456/88 36/457/88 76/458/88
f 36/457/88 31/459/88 76/458/88
f 31/459/88 33/460/88 76/458/88
f 33/460/88 37/461/88 76/458/88
f 426/462/88 37/461/88 33/460/88
f 38/463/88 37/461/88 426/462/88
f 155/313/191 255/312/191 153/314/191
f 255/312/191 155/313/191 469/315/191
f 470/464/87 75/465/87 35/466/87
f 35/466/87 75/465/87 34/467/87
f 34/467/87 75/465/87 32/468/87
f 75/465/87 40/469/87 32/468/87
f 425/470/87 32/468/87 40/469/87
f 39/471/87 425/470/87 40/469/87
f 471/472/229 472/473/229 335/474/229
f 335/474/229 336/475/229 471/472/229
f 473/476/230 341/477/230 474/478/230
f 341/477/230 473/476/230 342/479/230
f 41/480/231 465/481/231 475/482/231
f 465/481/231 41/480/231 43/483/231
f 466/484/232 47/485/232 476/486/232
f 47/485/232 466/484/232 45/487/232
f 87/239/144 477/238/144 88/240/144
f 477/238/144 87/239/144 370/241/144
f 179/488/233 451/489/233 177/490/233
f 451/489/233 179/488/233 478/491/233
f 479/312/234 68/313/234 70/314/234
f 68/313/234 479/312/234 457/315/234
f 448/492/235 179/488/235 180/493/235
f 179/488/235 448/492/235 478/491/235
f 480/238/142 90/239/142 92/240/142
f 90/239/142 480/238/142 373/241/142
f 452/489/233 182/488/233 181/490/233
f 182/488/233 452/489/233 481/491/233
f 482/312/236 71/313/236 461/315/236
f 71/313/236 482/312/236 74/314/236
f 450/492/235 182/488/235 481/491/235
f 184/493/235 182/488/235 450/492/235
f 483/312/234 78/313/234 80/314/234
f 78/313/234 483/312/234 439/315/234
f 81/313/236 484/312/236 84/314/236
f 484/312/236 81/313/236 440/315/236
f 75/494/237 468/495/237 76/496/237
f 468/495/237 75/494/237 470/497/237
f 350/317/175 42/498/238 44/499/238
f 44/499/238 351/318/175 350/317/175
f 46/500/239 355/320/177 48/501/239
f 357/322/177 48/501/239 355/320/177
f 485/502/240 486/503/240 487/504/240
f 486/503/240 485/502/240 488/505/240
f 41/41/241 351/506/241 44/44/241
f 475/507/241 351/506/241 41/41/241
f 351/506/241 475/507/241 352/508/241
f 357/509/242 476/510/242 47/47/242
f 476/510/242 357/509/242 358/511/242
f 47/47/242 48/48/242 357/509/242
f 88/240/180 477/238/180 189/324/180
f 92/240/179 190/324/179 480/238/179
f 489/512/243 336/419/225 321/418/224
f 336/419/225 489/512/243 471/513/244
f 490/514/245 328/421/226 342/420/225
f 342/420/225 473/515/246 490/514/245
f 491/223/247 67/225/247 116/224/247
f 492/223/248 117/224/248 72/225/248
f 320/516/249 489/512/243 321/418/224
f 489/512/243 320/516/249 493/517/249
f 327/518/250 490/514/245 494/519/250
f 490/514/245 327/518/250 328/421/226
f 86/226/251 495/223/251 371/227/251
f 86/226/251 85/225/251 495/223/251
f 91/226/252 496/223/252 89/225/252
f 496/223/252 91/226/252 374/227/252
f 74/226/253 492/223/253 72/225/253
f 492/223/253 74/226/253 482/227/253
f 70/226/254 67/225/254 491/223/254
f 70/226/254 491/223/254 479/227/254
f 204/520/255 410/521/255 202/522/255
f 497/523/255 410/521/255 204/520/255
f 208/524/256 418/525/256 498/526/256
f 418/525/256 208/524/256 207/527/256
f 499/528/257 399/529/257 225/530/257
f 399/529/257 226/531/257 225/530/257
f 227/532/258 400/533/258 500/534/258
f 400/533/258 227/532/258 228/535/258
f 495/223/259 85/225/259 189/224/259
f 496/223/260 190/224/260 89/225/260
f 485/502/261 487/504/261 501/536/261
f 485/502/261 501/536/261 502/537/261
f 503/223/247 77/225/247 127/224/247
f 504/223/248 129/224/248 82/225/248
f 505/235/262 271/237/262 308/538/262
f 444/236/263 271/237/263 505/235/263
f 271/237/263 444/236/263 272/234/263
f 506/235/264 312/538/264 278/237/264
f 278/237/265 446/236/265 506/235/265
f 446/236/265 278/237/265 280/234/265
f 80/226/254 77/225/254 503/223/254
f 80/226/254 503/223/254 483/227/254
f 84/226/253 504/223/253 82/225/253
f 504/223/253 84/226/253 484/227/253
f 319/539/266 493/517/249 320/516/249
f 493/517/249 319/539/266 507/540/266
f 326/541/267 494/519/250 508/542/267
f 494/519/250 326/541/267 327/518/250
f 175/543/235 393/544/235 509/545/235
f 393/544/235 175/543/235 176/546/235
f 396/492/235 170/488/235 510/491/235
f 396/492/235 172/493/235 170/488/235
f 173/547/233 509/545/233 397/548/233
f 509/545/233 173/547/233 175/543/233
f 398/489/233 170/488/233 169/490/233
f 170/488/233 398/489/233 510/491/233
f 219/549/268 511/550/268 217/551/268
f 511/550/268 219/549/268 427/552/268
f 217/551/268 499/553/268 225/554/268
f 499/553/268 217/551/268 511/550/268
f 428/555/268 222/556/268 512/557/268
f 222/556/268 428/555/268 223/558/268
f 512/557/268 227/559/268 500/560/268
f 227/559/268 512/557/268 222/556/268
f 513/561/269 319/539/266 94/562/269
f 513/561/269 507/540/266 319/539/266
f 93/563/269 513/561/269 94/562/269
f 513/561/269 93/563/269 514/564/269
f 93/563/269 515/565/269 514/564/269
f 93/563/269 95/566/269 515/565/269
f 326/541/267 515/565/269 95/566/269
f 515/565/269 326/541/267 508/542/267
f 405/567/270 471/568/270 489/569/270
f 471/568/270 405/567/270 408/570/270
f 413/571/271 490/572/271 473/573/271
f 473/573/271 416/574/271 413/571/271
f 458/575/272 23/576/272 24/577/272
f 23/576/272 458/575/272 462/578/272
f 437/579/268 204/580/268 201/581/268
f 204/580/268 437/579/268 497/582/268
f 438/583/268 208/584/268 498/585/268
f 205/586/268 208/584/268 438/583/268
f 502/537/273 501/536/273 516/587/273
f 502/537/273 516/587/273 517/588/273
f 518/235/262 283/237/262 333/538/262
f 441/227/263 283/225/263 518/223/263
f 283/225/263 441/227/263 284/226/263
f 519/235/264 334/538/264 290/237/264
f 290/225/265 442/227/265 519/223/265
f 442/227/265 290/225/265 292/226/265
f 97/226/251 520/223/251 387/227/251
f 97/226/251 96/225/251 520/223/251
f 521/589/126 517/588/126 516/587/126
f 521/589/126 522/590/126 517/588/126
f 523/223/252 102/226/252 389/227/252
f 102/226/252 523/223/252 100/225/252
f 297/235/274 524/237/274 372/538/274
f 302/235/275 376/538/275 525/237/275
f 363/226/276 297/223/276 299/227/276
f 297/223/276 363/226/276 524/225/276
f 365/226/277 302/223/277 525/225/277
f 303/227/277 302/223/277 365/226/277
f 520/223/259 96/225/259 187/224/259
f 18/591/278 21/21/278 17/592/278
f 21/21/278 18/591/278 19/19/278
f 523/223/260 188/224/260 100/225/260
f 489/569/279 493/593/280 526/594/281
f 526/594/281 405/567/279 489/569/279
f 527/595/282 526/594/281 493/593/280
f 527/595/282 493/593/280 507/596/283
f 528/597/284 527/595/282 507/596/283
f 528/597/284 507/596/283 513/598/284
f 508/599/285 529/600/286 515/601/286
f 529/600/286 508/599/285 530/602/287
f 494/603/288 530/602/287 508/599/285
f 530/602/287 494/603/288 531/604/289
f 490/572/290 531/604/289 494/603/288
f 531/604/289 490/572/290 413/571/290
f 335/474/291 532/605/292 57/606/292
f 532/605/292 335/474/291 472/473/291
f 55/607/293 57/606/292 532/605/292
f 55/607/293 532/605/292 533/608/293
f 534/609/294 55/607/293 533/608/293
f 55/607/293 534/609/294 60/610/294
f 534/609/294 341/477/295 60/610/294
f 534/609/294 474/478/295 341/477/295
f 266/237/263 443/236/263 267/234/263
f 443/236/263 266/237/263 535/235/263
f 536/235/264 311/538/264 274/237/264
f 274/237/265 445/236/265 536/235/265
f 445/236/265 274/237/265 276/234/265
f 535/235/262 266/237/262 307/538/262
f 472/611/296 402/612/297 532/613/297
f 402/612/297 472/611/296 407/614/298
f 471/568/299 407/614/298 472/611/296
f 407/614/298 471/568/299 408/570/299
f 411/615/300 474/616/301 534/617/300
f 411/615/300 414/618/302 474/616/301
f 473/573/303 474/616/301 414/618/302
f 414/618/302 416/574/303 473/573/303
f 285/235/275 375/538/275 537/237/275
f 294/235/274 538/237/274 369/538/274
f 347/234/276 294/235/276 296/236/276
f 294/235/276 347/234/276 538/237/276
f 353/234/277 285/235/277 537/237/277
f 288/236/277 285/235/277 353/234/277
f 210/240/304 539/238/304 256/324/304
f 213/240/305 257/324/305 540/238/305
f 431/240/304 505/238/304 308/324/304
f 359/240/304 535/238/304 307/324/304
f 361/240/305 311/324/305 536/238/305
f 433/240/305 312/324/305 506/238/305
f 432/239/306 505/238/306 431/240/306
f 505/238/306 432/239/306 444/241/306
f 212/239/306 539/238/306 210/240/306
f 539/238/306 212/239/306 453/241/306
f 360/239/306 535/238/306 359/240/306
f 535/238/306 360/239/306 443/241/306
f 540/238/307 216/239/307 213/240/307
f 216/239/307 540/238/307 454/241/307
f 536/238/307 362/239/307 361/240/307
f 362/239/307 536/238/307 445/241/307
f 506/238/307 434/239/307 433/240/307
f 434/239/307 506/238/307 446/241/307
f 419/240/304 518/238/304 333/324/304
f 420/239/306 518/238/306 419/240/306
f 518/238/306 420/239/306 441/241/306
f 421/240/305 334/324/305 519/238/305
f 519/238/307 422/239/307 421/240/307
f 422/239/307 519/238/307 442/241/307
f 137/226/251 541/223/251 391/227/251
f 137/226/251 136/225/251 541/223/251
f 542/223/252 142/226/252 392/227/252
f 142/226/252 542/223/252 140/225/252
f 249/234/251 248/237/251 543/235/251
f 249/234/251 543/235/251 379/236/251
f 252/234/252 544/235/252 250/237/252
f 544/235/252 252/234/252 380/236/252
f 152/240/308 185/324/308 545/238/308
f 364/234/251 423/237/251 524/235/251
f 364/234/251 524/235/251 363/236/251
f 525/235/252 366/234/252 365/236/252
f 366/234/252 525/235/252 424/237/252
f 348/226/251 377/225/251 538/223/251
f 348/226/251 538/223/251 347/227/251
f 486/503/309 546/619/309 547/620/309
f 486/503/309 488/505/309 546/619/309
f 354/226/252 537/223/252 378/225/252
f 537/223/252 354/226/252 353/227/252
f 157/621/310 548/622/310 186/623/310
f 545/238/311 155/239/311 152/240/311
f 155/239/311 545/238/311 469/241/311
f 541/223/259 136/225/259 315/224/259
f 145/493/235 549/491/235 146/488/235
f 549/491/235 145/493/235 196/492/235
f 542/223/260 318/224/260 140/225/260
f 150/493/235 550/491/235 198/492/235
f 550/491/235 150/493/235 148/488/235
f 549/491/233 151/490/233 146/488/233
f 151/490/233 549/491/233 199/489/233
f 550/491/233 147/490/233 200/489/233
f 550/491/233 148/488/233 147/490/233
f 261/225/263 453/227/263 262/226/263
f 453/227/263 261/225/263 539/223/263
f 263/225/265 454/227/265 540/223/265
f 454/227/265 263/225/265 264/226/265
f 539/235/262 261/237/262 256/538/262
f 540/235/264 257/538/264 263/237/264
f 543/223/259 248/225/259 367/224/259
f 159/624/312 548/622/312 157/621/312
f 548/622/312 159/624/312 467/625/312
f 544/223/260 368/224/260 250/225/260
f 524/223/259 423/225/259 372/224/259
f 525/223/260 376/224/260 424/225/260
f 538/223/259 377/225/259 369/224/259
f 537/223/260 375/224/260 378/225/260
f 305/235/274 543/237/274 367/538/274
f 309/235/275 368/538/275 544/237/275
f 379/226/276 305/223/276 306/227/276
f 305/223/276 379/226/276 543/225/276
f 380/226/277 309/223/277 544/225/277
f 310/227/277 309/223/277 380/226/277
f 32/626/313 426/395/313 33/627/313
f 426/395/313 32/626/313 425/393/313
f 467/628/314 244/629/314 548/630/314
f 244/629/314 467/628/314 245/631/314
f 548/630/315 244/629/315 186/632/315
f 254/237/316 469/236/316 545/235/316
f 469/236/316 254/237/316 255/234/316
f 545/235/317 185/538/317 254/237/317
f 313/235/274 541/237/274 315/538/274
f 316/235/275 318/538/275 542/237/275
f 391/234/276 313/235/276 314/236/276
f 313/235/276 391/234/276 541/237/276
f 317/236/277 316/235/277 392/234/277
f 392/234/277 316/235/277 542/237/277
f 483/234/318 503/237/318 435/235/318
f 435/235/318 439/236/318 483/234/318
f 504/237/319 484/234/319 436/235/319
f 436/235/319 484/234/319 440/236/319
f 435/235/320 503/237/320 127/538/320
f 436/235/321 129/538/321 504/237/321
f 513/633/322 514/634/323 551/635/323
f 513/633/322 551/635/323 528/636/322
f 515/637/324 551/635/323 514/634/323
f 551/635/323 515/637/324 529/638/324
f 479/234/318 491/237/318 455/235/318
f 455/235/318 457/236/318 479/234/318
f 492/237/319 482/234/319 456/235/319
f 456/235/319 482/234/319 461/236/319
f 455/235/320 491/237/320 116/538/320
f 456/235/321 117/538/321 492/237/321
f 404/639/325 532/640/326 402/641/326
f 532/640/326 404/639/325 533/642/325
f 404/639/325 534/643/327 533/642/325
f 404/639/325 411/644/327 534/643/327
f 429/235/274 520/237/274 187/538/274
f 430/235/275 188/538/275 523/237/275
f 387/234/276 429/235/276 388/236/276
f 429/235/276 387/234/276 520/237/276
f 390/236/277 430/235/277 389/234/277
f 389/234/277 430/235/277 523/237/277
f 477/235/274 495/237/274 189/538/274
f 480/235/275 190/538/275 496/237/275
f 370/236/276 495/237/276 477/235/276
f 495/237/276 370/236/276 371/234/276
f 496/237/277 373/236/277 480/235/277
f 373/236/277 496/237/277 374/234/277
f 460/645/328 385/333/328 386/336/328
f 386/336/328 464/646/328 460/645/328
f 463/647/329 458/575/329 459/648/329
f 458/575/329 463/647/329 462/578/329
