# Roblox asset pack: egg_little_monster (props), from the Studio model "Eggs/LittleMonsterEgg". Exported with Export Selection, split by tools/build_creatures.py: one object per rigid body. Units: studs. +Y up, front faces -Z, pivot (bottom centre) at the origin.
mtllib egg_little_monster.mtl

v 0.30430 1.70000 -1.71000
v -0.70090 2.07000 -1.71000
v 0.30430 1.70000 -2.56000
v -0.70090 2.07000 -2.56000
v -0.25340 3.30000 -1.71000
v 0.75180 2.93000 -1.71000
v -0.25340 3.30000 -2.56000
v 0.75180 2.93000 -2.56000
v 0.04910 2.00000 1.49000
v 0.04910 2.65000 1.49000
v 0.04910 2.00000 2.55000
v 0.04910 2.65000 2.55000
v -1.66240 2.65000 1.49000
v -1.66240 2.00000 1.49000
v -1.66240 2.65000 2.55000
v -1.66240 2.00000 2.55000
v -2.36250 2.81000 2.07000
v -2.36250 1.84000 2.07000
v -1.40480 2.81000 2.07000
v -1.40480 1.84000 2.07000
v -2.49930 2.65000 2.07000
v -2.49930 2.00000 2.07000
v -1.40480 2.65000 2.07000
v -1.40480 2.00000 2.07000
v -2.29410 2.65000 1.97000
v -2.29410 2.00000 1.97000
v -1.40480 2.65000 1.97000
v -1.40480 2.00000 1.97000
v -2.49930 2.65000 1.30000
v -2.49930 2.00000 1.30000
v -2.29410 2.65000 1.30000
v -2.29410 2.00000 1.30000
v -1.40480 1.84000 1.30000
v -1.40480 2.81000 1.30000
v -1.40480 2.00000 1.11000
v -1.40480 2.65000 1.11000
v -1.40480 2.00000 1.30000
v -1.40480 2.65000 1.30000
v -2.29410 2.00000 1.11000
v -2.29410 2.65000 1.11000
v -2.36250 2.81000 1.30000
v -2.36250 1.84000 1.30000
v 0.46260 1.64000 -1.71000
v -0.85900 2.12000 -1.71000
v 0.46260 1.64000 -2.40000
v -0.85890 2.12000 -2.40000
v -0.31560 3.62000 -1.71000
v 1.00590 3.14000 -1.71000
v -0.31560 3.62000 -2.40000
v 1.00600 3.14000 -2.40000
v -1.87620 1.79000 -1.73000
v -1.87620 2.86000 -1.73000
v -1.87620 1.79000 -2.43000
v -1.87620 2.86000 -2.43000
v 0.04930 2.86000 -1.73000
v 0.04930 1.79000 -1.73000
v 0.04930 2.86000 -2.43000
v 0.04930 1.79000 -2.43000
v 1.00610 3.14000 1.65000
v -0.31550 3.62000 1.65000
v 1.00610 3.14000 2.34000
v -0.31540 3.62000 2.34000
v -0.85880 2.12000 1.65000
v 0.46270 1.64000 1.65000
v -0.85880 2.12000 2.34000
v 0.46280 1.64000 2.34000
v 0.75190 2.93000 1.65000
v -0.25330 3.30000 1.65000
v 0.75190 2.93000 2.51000
v -0.25330 3.30000 2.51000
v -0.70080 2.07000 1.65000
v 0.30440 1.70000 1.65000
v -0.70080 2.07000 2.51000
v 0.30440 1.70000 2.51000
v -1.66250 2.00000 -1.55000
v -1.66250 2.65000 -1.55000
v -1.66250 2.00000 -2.61000
v -1.66250 2.65000 -2.61000
v 0.04910 2.65000 -1.55000
v 0.04910 2.00000 -1.55000
v 0.04910 2.65000 -2.61000
v 0.04910 2.00000 -2.61000
v -1.47120 2.81000 -1.23000
v -1.47120 1.84000 -1.23000
v -1.47120 2.81000 -2.19000
v -1.47120 1.84000 -2.19000
v -1.47120 2.65000 -1.10000
v -1.47120 2.00000 -1.10000
v -1.47120 2.65000 -2.19000
v -1.47120 2.00000 -2.19000
v -1.56750 2.65000 -1.30000
v -1.56750 2.00000 -1.30000
v -1.56750 2.65000 -2.19000
v -1.56750 2.00000 -2.19000
v -2.24020 2.65000 -1.10000
v -2.24020 2.00000 -1.10000
v -2.24020 2.65000 -1.30000
v -2.24020 2.00000 -1.30000
v -2.24020 1.84000 -2.19000
v -2.24020 2.81000 -2.19000
v -2.43270 2.00000 -2.19000
v -2.43270 2.65000 -2.19000
v -2.24020 2.00000 -2.19000
v -2.24020 2.65000 -2.19000
v -2.43270 2.00000 -1.30000
v -2.43270 2.65000 -1.30000
v -2.24020 2.81000 -1.23000
v -2.24020 1.84000 -1.23000
v 0.04930 1.79000 1.67000
v 0.04930 2.86000 1.67000
v 0.04930 1.79000 2.38000
v 0.04930 2.86000 2.38000
v -1.87620 2.86000 1.67000
v -1.87620 1.79000 1.67000
v -1.87620 2.86000 2.38000
v -1.87620 1.79000 2.38000
v -0.68940 3.85000 -2.87000
v -0.68940 3.64000 -3.23000
v -0.68940 3.72000 -2.79000
v -0.68940 3.51000 -3.16000
v -0.68940 3.75000 -2.75000
v -0.68940 3.48000 -3.20000
v -0.68940 3.62000 -2.67000
v -0.68940 3.35000 -3.13000
v -0.65140 3.93000 -2.73000
v -0.65150 3.56000 -3.37000
v -0.65140 3.76000 -2.63000
v -0.65150 3.39000 -3.27000
v -0.65140 3.61000 -2.79000
v -0.65140 3.45000 -3.06000
v -0.65140 3.48000 -2.72000
v -0.65140 3.32000 -2.99000
v -0.61350 3.99000 -2.82000
v -0.61350 3.85000 -3.05000
v -0.61350 3.90000 -2.78000
v -0.61350 3.77000 -3.00000
v -0.61350 3.80000 -3.14000
v -0.61350 3.67000 -3.37000
v -0.61350 3.71000 -3.10000
v -0.61350 3.58000 -3.32000
v -0.57550 4.00000 -2.90000
v -0.57550 3.92000 -3.03000
v -0.57550 3.96000 -2.87000
v -0.57550 3.88000 -3.01000
v -0.57560 3.82000 -3.21000
v -0.57560 3.74000 -3.35000
v -0.57560 3.77000 -3.19000
v -0.57560 3.69000 -3.33000
v -0.57550 3.45000 -2.76000
v -0.57560 3.35000 -2.94000
v -0.57550 3.39000 -2.72000
v -0.57550 3.28000 -2.91000
v -0.42380 4.00000 -2.90000
v -0.42380 3.92000 -3.03000
v -0.42380 3.82000 -3.21000
v -0.42380 3.74000 -3.35000
v -0.38580 3.99000 -2.82000
v -0.38580 3.85000 -3.05000
v -0.38580 3.80000 -3.14000
v -0.38580 3.67000 -3.37000
v -0.34790 3.93000 -2.73000
v -0.34790 3.56000 -3.37000
v -0.30990 3.85000 -2.87000
v -0.30990 3.64000 -3.23000
v -0.30990 3.75000 -2.75000
v -0.30990 3.48000 -3.20000
v -0.34790 3.61000 -2.79000
v -0.34790 3.45000 -3.06000
v -0.42380 3.45000 -2.76000
v -0.42380 3.35000 -2.94000
v -0.34790 3.39000 -3.27000
v -0.38580 3.58000 -3.32000
v -0.42380 3.69000 -3.33000
v -0.30990 3.35000 -3.13000
v -0.30990 3.51000 -3.16000
v -0.34790 3.32000 -2.99000
v -0.42380 3.28000 -2.91000
v -0.38580 3.77000 -3.00000
v -0.42380 3.88000 -3.01000
v -0.30990 3.72000 -2.79000
v -0.30990 3.62000 -2.67000
v -0.34790 3.76000 -2.63000
v -0.34790 3.48000 -2.72000
v -0.38580 3.90000 -2.78000
v -0.38580 3.71000 -3.10000
v -0.42380 3.96000 -2.87000
v -0.42380 3.77000 -3.19000
v -0.42380 3.39000 -2.72000
v -0.68930 4.82000 3.25000
v -0.68930 4.93000 2.84000
v -0.68930 4.68000 3.21000
v -0.68930 4.79000 2.81000
v -0.68930 4.66000 3.27000
v -0.68930 4.80000 2.76000
v -0.68930 4.52000 3.23000
v -0.68930 4.66000 2.72000
v -0.65130 4.78000 3.41000
v -0.65140 4.97000 2.69000
v -0.65130 4.59000 3.35000
v -0.65140 4.78000 2.64000
v -0.65130 4.59000 3.14000
v -0.65140 4.68000 2.83000
v -0.65130 4.45000 3.10000
v -0.65140 4.53000 2.79000
v -0.61340 4.89000 3.38000
v -0.61340 4.95000 3.12000
v -0.61340 4.79000 3.35000
v -0.61340 4.86000 3.10000
v -0.61340 4.98000 3.02000
v -0.61340 5.05000 2.77000
v -0.61340 4.89000 3.00000
v -0.61340 4.96000 2.74000
v -0.57550 4.95000 3.34000
v -0.57550 4.99000 3.19000
v -0.57550 4.90000 3.33000
v -0.57550 4.94000 3.18000
v -0.57550 5.04000 2.98000
v -0.57550 5.08000 2.83000
v -0.57550 5.00000 2.97000
v -0.57550 5.04000 2.82000
v -0.57550 4.47000 3.05000
v -0.57550 4.52000 2.84000
v -0.57550 4.39000 3.03000
v -0.57550 4.45000 2.83000
v -0.42370 4.95000 3.34000
v -0.42370 4.99000 3.19000
v -0.42370 5.04000 2.98000
v -0.42370 5.08000 2.83000
v -0.38570 4.89000 3.38000
v -0.38570 4.95000 3.12000
v -0.38570 4.98000 3.02000
v -0.38570 5.05000 2.77000
v -0.34780 4.78000 3.41000
v -0.34780 4.97000 2.69000
v -0.30980 4.82000 3.25000
v -0.30980 4.93000 2.84000
v -0.30980 4.66000 3.27000
v -0.30980 4.80000 2.76000
v -0.34780 4.59000 3.14000
v -0.34780 4.68000 2.83000
v -0.42370 4.47000 3.05000
v -0.42370 4.52000 2.84000
v -0.34780 4.78000 2.64000
v -0.38570 4.96000 2.74000
v -0.42370 5.04000 2.82000
v -0.30980 4.66000 2.72000
v -0.30980 4.79000 2.81000
v -0.34780 4.53000 2.79000
v -0.42370 4.45000 2.83000
v -0.38570 4.86000 3.10000
v -0.42370 4.94000 3.18000
v -0.30980 4.68000 3.21000
v -0.30980 4.52000 3.23000
v -0.34780 4.59000 3.35000
v -0.34780 4.45000 3.10000
v -0.38570 4.79000 3.35000
v -0.38570 4.89000 3.00000
v -0.42370 4.90000 3.33000
v -0.42370 5.00000 2.97000
v -0.42370 4.39000 3.03000
v -1.91390 3.21000 -1.28000
v -1.87670 3.19000 -1.29000
v -2.04610 3.00000 -1.29000
v -2.00890 2.98000 -1.30000
v -1.99760 2.86000 -0.83000
v -1.81050 2.69000 -0.60000
v -2.01510 2.65000 -0.73000
v -1.79300 2.91000 -0.70000
v -1.82560 2.51000 -0.52000
v -1.84300 2.29000 -0.42000
v -2.03010 2.46000 -0.65000
v -2.04750 2.25000 -0.55000
v -1.85830 3.16000 -1.05000
v -1.89550 3.19000 -1.05000
v -2.02230 2.88000 -0.80000
v -1.81770 2.92000 -0.67000
v -1.85030 2.52000 -0.48000
v -2.05480 2.48000 -0.62000
v -1.83510 2.71000 -0.57000
v -1.86770 2.31000 -0.38000
v -1.99040 2.95000 -1.06000
v -2.07220 2.26000 -0.52000
v -2.03970 2.66000 -0.70000
v -2.02750 2.98000 -1.06000
v -2.05470 2.48000 0.56000
v -1.86760 2.31000 0.32000
v -2.07210 2.26000 0.46000
v -1.85020 2.52000 0.42000
v -1.81770 2.92000 0.61000
v -1.83510 2.71000 0.51000
v -2.02220 2.88000 0.74000
v -2.03960 2.66000 0.64000
v -1.89530 3.19000 0.99000
v -1.85820 3.16000 0.99000
v -2.02750 2.98000 1.00000
v -1.99030 2.95000 1.01000
v -1.87670 3.19000 1.23000
v -1.91380 3.21000 1.22000
v -1.79310 2.91000 0.64000
v -1.99760 2.86000 0.77000
v -2.03010 2.46000 0.59000
v -1.82550 2.51000 0.46000
v -1.84290 2.29000 0.36000
v -1.81050 2.69000 0.54000
v -2.00870 2.98000 1.24000
v -2.04590 3.00000 1.24000
v -2.01500 2.65000 0.67000
v -2.04750 2.25000 0.49000
v 1.77480 4.66000 -2.02000
v 1.92250 3.98000 -2.50000
v 1.44320 4.61000 -2.05000
v 1.59090 3.93000 -2.53000
v 2.01370 3.63000 -1.99000
v 2.23380 2.95000 -2.47000
v 1.68850 3.56000 -2.04000
v 1.90860 2.88000 -2.52000
v 1.56770 2.64000 -2.15000
v 1.75180 1.90000 -2.66000
v 1.42010 1.95000 -2.63000
v 1.89940 2.59000 -2.18000
v 0.71180 2.19000 -2.19000
v 1.04860 1.50000 -2.67000
v 0.71190 1.50000 -2.67000
v 1.04860 2.19000 -2.19000
v 1.04860 1.14000 2.10000
v 0.71180 1.14000 2.10000
v 0.71180 1.84000 1.61000
v 1.04850 1.84000 1.61000
v 1.56760 2.28000 1.58000
v 1.75170 1.54000 2.09000
v 1.42010 1.59000 2.06000
v 1.89930 2.23000 1.61000
v 1.68850 3.20000 1.47000
v 2.23380 2.60000 1.90000
v 1.90860 2.52000 1.95000
v 2.01370 3.27000 1.42000
v 1.44330 4.26000 1.48000
v 1.92260 3.62000 1.93000
v 1.59090 3.57000 1.96000
v 1.77480 4.30000 1.44000
v 1.77500 4.66000 1.96000
v 1.44330 4.61000 1.99000
v 1.77470 4.30000 -1.50000
v 1.44320 4.26000 -1.54000
v 1.68850 3.56000 1.99000
v 2.01380 3.63000 1.94000
v 2.01370 3.27000 -1.48000
v 1.68850 3.20000 -1.53000
v 1.89940 2.59000 2.12000
v 1.56780 2.64000 2.09000
v 1.89930 2.23000 -1.67000
v 1.56760 2.28000 -1.63000
v 1.04860 2.19000 2.13000
v 0.71190 2.19000 2.13000
v 1.04850 1.84000 -1.67000
v 0.71180 1.84000 -1.67000
v 1.75180 1.90000 2.60000
v 1.75170 1.54000 -2.15000
v 2.23390 2.95000 2.41000
v 2.23380 2.60000 -1.95000
v 1.92260 3.98000 2.44000
v 1.92250 3.62000 -1.98000
v 1.04870 1.50000 2.61000
v 1.04850 1.14000 -2.16000
v 1.59100 3.93000 2.47000
v 1.90870 2.88000 2.46000
v 1.42020 1.95000 2.57000
v 0.71190 1.50000 2.61000
v 0.71180 1.14000 -2.16000
v 1.42000 1.59000 -2.11000
v 1.90860 2.52000 -2.00000
v 1.59080 3.57000 -2.02000
v -1.84660 2.22000 0.33000
v -2.24470 2.14000 0.59000
v -2.21700 2.48000 0.74000
v -1.81890 2.56000 0.49000
v -2.18060 2.90000 0.94000
v -1.81630 2.60000 0.51000
v -2.21150 2.52000 0.76000
v -1.78540 2.99000 0.68000
v -2.20940 2.47000 0.75000
v -2.23710 2.13000 0.60000
v -2.17690 2.94000 0.97000
v -2.24240 2.13000 0.60000
v -1.80870 2.94000 0.90000
v -1.81230 2.90000 0.88000
v -1.90810 2.94000 0.92000
v -2.00860 2.90000 0.92000
v -1.98360 2.94000 0.94000
v -2.17320 2.90000 0.95000
v -2.20410 2.51000 0.77000
v -1.84330 2.51000 0.71000
v -1.84650 2.47000 0.69000
v -1.79670 2.56000 0.97000
v -1.73040 2.65000 0.97000
v -1.79140 2.55000 0.97000
v -1.79660 2.55000 0.97000
v -1.84850 3.15000 0.90000
v -1.80400 2.93000 0.93000
v -1.60450 2.85000 0.96000
v -1.80290 2.87000 0.94000
v -1.53620 2.95000 0.95000
v -1.56890 3.00000 1.37000
v -1.88130 3.20000 1.32000
v -2.08640 2.70000 1.48000
v -2.07770 2.76000 1.35000
v -2.11600 2.78000 1.31000
v -1.71840 2.70000 1.42000
v -1.74990 2.71000 1.38000
v -1.73170 2.73000 1.34000
v -2.12320 2.80000 1.27000
v -1.57810 2.84000 0.96000
v -1.61370 2.84000 0.98000
v -1.61010 2.42000 0.76000
v -1.81110 2.38000 0.89000
v -1.63780 2.08000 0.60000
v -1.60910 2.46000 0.78000
v -1.79300 2.55000 0.99000
v -1.82420 2.60000 1.39000
v -1.82390 2.60000 1.39000
v -1.81810 2.61000 1.39000
v -1.80800 2.42000 0.91000
v -1.83880 2.04000 0.73000
v -1.78390 1.89000 1.04000
v -2.13670 2.79000 1.35000
v -1.83070 2.60000 1.39000
v -2.15210 1.89000 1.11000
v -1.87440 2.13000 0.53000
v -2.12850 2.78000 1.24000
v -1.56900 3.00000 -1.43000
v -2.13670 2.79000 -1.41000
v -1.88140 3.20000 -1.38000
v -2.07770 2.76000 -1.41000
v -1.75000 2.71000 -1.44000
v -1.83080 2.60000 -1.45000
v -1.81820 2.61000 -1.45000
v -1.82420 2.60000 -1.45000
v -1.71840 2.70000 -1.48000
v -1.82400 2.60000 -1.45000
v -1.78400 1.89000 -1.10000
v -2.15210 1.89000 -1.17000
v -2.08650 2.70000 -1.54000
v -1.83880 2.04000 -0.79000
v -1.61010 2.42000 -0.82000
v -1.63790 2.08000 -0.66000
v -1.81110 2.38000 -0.95000
v -1.73010 2.65000 -1.03000
v -1.61380 2.84000 -1.04000
v -1.57820 2.84000 -1.01000
v -1.60900 2.46000 -0.84000
v -1.79680 2.56000 -1.03000
v -1.80810 2.42000 -0.97000
v -1.53620 2.95000 -1.01000
v -1.84860 3.15000 -0.96000
v -1.98370 2.94000 -0.99000
v -2.12330 2.80000 -1.33000
v -2.17690 2.94000 -1.03000
v -1.80880 2.94000 -0.96000
v -1.80410 2.93000 -0.99000
v -1.90820 2.94000 -0.98000
v -1.73180 2.73000 -1.40000
v -2.11610 2.78000 -1.37000
v -1.60460 2.85000 -1.01000
v -1.81240 2.90000 -0.94000
v -2.18060 2.90000 -1.00000
v -2.00860 2.90000 -0.98000
v -2.17320 2.90000 -1.01000
v -1.80290 2.87000 -1.00000
v -1.78540 2.99000 -0.74000
v -1.81900 2.56000 -0.54000
v -1.84660 2.47000 -0.75000
v -2.21710 2.48000 -0.80000
v -2.20930 2.47000 -0.81000
v -1.84670 2.22000 -0.39000
v -1.81640 2.60000 -0.57000
v -1.79310 2.55000 -1.05000
v -1.79150 2.55000 -1.03000
v -1.79660 2.55000 -1.03000
v -1.84330 2.51000 -0.77000
v -2.24480 2.14000 -0.65000
v -2.21160 2.52000 -0.82000
v -2.20420 2.51000 -0.83000
v -2.24240 2.13000 -0.66000
v -2.23720 2.13000 -0.66000
v -1.87440 2.13000 -0.59000
v -2.12850 2.78000 -1.30000
v 2.49930 4.27000 2.10000
v -1.75900 1.34000 2.10000
v -1.75900 4.27000 2.10000
v 2.49930 1.34000 2.10000
v 2.49930 1.34000 -2.15000
v -1.75900 1.34000 -2.15000
v -1.75900 4.27000 -2.15000
v 2.49930 4.27000 -2.15000
v -1.64340 4.12000 -2.04000
v 2.38370 4.12000 -2.04000
v -1.64340 1.43000 -2.04000
v 2.38370 1.43000 -2.04000
v 2.38370 4.12000 1.99000
v -1.64340 4.12000 1.99000
v 2.38370 1.43000 1.99000
v -1.64340 1.43000 1.99000
v 0.20020 5.00000 1.32000
v -0.37550 4.77000 1.32000
v -0.37550 5.00000 1.32000
v 0.20020 4.77000 1.32000
v -0.37560 4.20000 1.46000
v 0.20020 4.77000 1.46000
v 0.20020 4.20000 1.46000
v -0.37550 4.77000 1.46000
v 0.10540 5.56000 1.94000
v -0.28070 5.02000 1.94000
v -0.28070 5.56000 1.94000
v 0.10540 5.02000 1.94000
v -0.28070 5.02000 2.18000
v 0.10540 5.02000 2.18000
v 0.10540 4.86000 2.18000
v -0.28070 4.86000 2.18000
v 0.10540 5.56000 2.43000
v -0.28070 5.56000 2.43000
v 0.10540 5.33000 2.43000
v -0.28070 5.33000 2.67000
v 0.10540 5.33000 2.67000
v -0.28070 5.33000 2.43000
v -0.37550 5.00000 1.90000
v 0.20020 5.00000 1.90000
v 0.20020 4.77000 2.37000
v 0.20020 4.77000 1.90000
v -0.37550 4.77000 1.90000
v -0.37560 4.77000 2.37000
v 0.20020 4.20000 2.37000
v 0.10540 5.02000 2.43000
v 0.10540 4.86000 2.67000
v -0.28070 4.86000 2.67000
v -0.37560 4.20000 2.37000
v -0.28070 5.33000 2.18000
v 0.10530 4.86000 -2.73000
v -0.28080 4.86000 -2.73000
v 0.10530 5.33000 -2.73000
v -0.28080 5.33000 -2.73000
v -0.28070 5.33000 -2.49000
v 0.10530 5.56000 -2.49000
v 0.10530 5.33000 -2.49000
v -0.28080 5.56000 -2.49000
v 0.20020 4.20000 -2.43000
v -0.37560 4.20000 -2.43000
v 0.20020 4.77000 -2.43000
v -0.37560 4.77000 -2.43000
v 0.20020 5.00000 -1.96000
v -0.37560 4.77000 -1.96000
v -0.37560 5.00000 -1.96000
v -0.25800 4.77000 -1.96000
v 0.20020 4.77000 -1.96000
v 0.10530 5.56000 -2.00000
v -0.28080 5.56000 -2.00000
v -0.37560 5.00000 -1.38000
v 0.20020 5.00000 -1.38000
v 0.20020 4.77000 -1.52000
v -0.26200 4.77000 -1.70000
v -0.26500 4.77000 -1.52000
v -0.25980 4.77000 -1.84000
v 0.20020 4.77000 -1.38000
v 0.20020 4.20000 -1.52000
v 0.10530 5.02000 -2.24000
v 0.10530 5.02000 -2.00000
v 0.10530 5.02000 -2.49000
v 0.10530 4.86000 -2.24000
v -0.37560 4.77000 -1.38000
v -0.37560 4.77000 -1.52000
v -0.37560 4.20000 -1.52000
v -0.28070 5.02000 -2.00000
v -0.28070 5.02000 -2.24000
v -0.28080 4.86000 -2.24000
v -0.28070 5.33000 -2.24000
v -0.23210 5.56000 1.94000
v 0.05520 6.03000 1.94000
v 0.05520 5.56000 1.94000
v -0.23230 6.03000 1.94000
v 0.05800 5.56000 2.31000
v 0.05520 5.56000 2.31000
v 0.05520 5.84000 2.31000
v 0.05800 5.84000 2.31000
v -0.23310 5.56000 2.31000
v -0.23210 5.84000 2.31000
v -0.23210 5.56000 2.31000
v -0.23310 5.84000 2.31000
v -0.23310 5.28000 2.43000
v -0.23310 5.56000 2.43000
v 0.05800 5.28000 2.43000
v 0.05800 5.56000 2.43000
v -0.23210 6.03000 2.33000
v 0.05520 6.03000 2.33000
v 0.05520 5.84000 2.33000
v -0.23210 5.84000 2.33000
v 0.05800 5.84000 2.55000
v -0.23310 5.84000 2.55000
v -0.23310 5.70000 2.67000
v 0.05800 5.70000 2.67000
v 0.05800 5.70000 2.55000
v -0.23310 5.70000 2.55000
v 0.05800 5.56000 2.55000
v 0.05800 5.28000 2.67000
v -0.23310 5.28000 2.67000
v 0.05520 5.56000 2.33000
v -0.23310 5.70000 2.43000
v 0.05780 5.70000 -2.73000
v -0.23320 5.28000 -2.73000
v -0.23320 5.70000 -2.73000
v 0.05780 5.28000 -2.73000
v 0.05780 5.84000 -2.61000
v 0.05780 5.70000 -2.61000
v -0.23320 5.84000 -2.61000
v -0.23320 5.70000 -2.61000
v -0.23230 5.84000 -2.39000
v -0.23230 6.03000 -2.39000
v 0.05510 6.03000 -2.39000
v 0.05520 5.84000 -2.39000
v -0.23230 6.03000 -2.00000
v 0.05510 6.03000 -2.00000
v 0.05780 5.84000 -2.37000
v 0.05520 5.84000 -2.37000
v -0.23320 5.84000 -2.37000
v -0.23230 5.84000 -2.37000
v 0.05780 5.56000 -2.49000
v 0.05780 5.56000 -2.61000
v 0.05780 5.56000 -2.37000
v 0.05780 5.28000 -2.49000
v 0.05520 5.56000 -2.00000
v 0.05520 5.56000 -2.37000
v -0.23230 5.56000 -2.00000
v -0.23230 5.56000 -2.37000
v -0.23320 5.56000 -2.37000
v -0.23320 5.56000 -2.49000
v -0.23320 5.28000 -2.49000
v -0.23320 5.70000 -2.49000
v -0.32810 4.39000 1.90000
v 0.15280 4.58000 1.90000
v 0.15280 4.39000 1.90000
v 0.15280 4.96000 1.90000
v -0.32810 4.96000 1.90000
v -0.32810 5.14000 1.90000
v 0.15280 5.14000 1.90000
v 0.15280 5.14000 2.43000
v -0.32810 5.14000 2.43000
v 0.15280 4.96000 2.43000
v -0.32810 4.96000 2.43000
v 0.15280 4.96000 2.71000
v -0.32810 4.96000 2.71000
v 0.15280 4.58000 2.43000
v 0.15280 4.39000 2.71000
v -0.32810 4.39000 2.71000
v -0.32820 4.39000 -2.77000
v 0.15270 4.96000 -2.77000
v 0.15270 4.39000 -2.77000
v -0.32820 4.96000 -2.77000
v -0.32820 4.96000 -2.49000
v 0.15270 5.14000 -2.49000
v 0.15270 4.96000 -2.49000
v -0.32820 5.14000 -2.49000
v 0.15270 5.14000 -1.96000
v -0.32820 5.14000 -1.96000
v 0.15270 4.58000 -1.96000
v 0.15270 4.39000 -1.96000
v -0.32820 4.58000 -1.96000
v -0.32820 4.95000 -1.96000
v -0.32820 4.39000 -1.96000
v -1.30780 4.79000 -1.70000
v 2.04810 4.79000 -1.70000
v -1.30780 4.12000 -1.70000
v 2.04810 4.12000 -1.70000
v 2.04810 4.79000 1.65000
v -1.30780 4.79000 1.65000
v 2.04810 4.12000 1.65000
v -1.30780 4.12000 1.65000
v 2.16050 4.90000 1.72000
v -1.42020 4.05000 1.72000
v -1.42020 4.90000 1.72000
v 2.16050 4.05000 1.72000
v 2.16050 4.05000 -1.77000
v -1.42020 4.05000 -1.77000
v -1.42020 4.90000 -1.77000
v 2.16050 4.90000 -1.77000
v -0.76140 5.93000 -0.62000
v -0.45700 5.93000 -0.62000
v -0.76140 5.08000 -0.62000
v -0.45690 5.08000 -0.62000
v -0.76140 5.08000 -0.17000
v -0.45700 6.08000 -0.17000
v -0.45690 5.08000 -0.17000
v -0.76140 6.08000 -0.17000
v -0.76140 5.93000 0.27000
v -0.45700 5.93000 0.27000
v -0.76140 5.08000 0.27000
v -0.45690 5.08000 0.27000
v -0.76140 6.08000 0.11000
v -0.45700 6.08000 0.11000
v -0.76140 5.93000 0.55000
v -0.45700 5.93000 0.55000
v -0.45700 5.93000 -0.33000
v -0.76140 5.93000 -0.33000
v -0.45690 5.08000 0.55000
v -0.45690 5.08000 0.11000
v -0.45690 5.08000 -0.33000
v -0.76140 5.08000 0.55000
v -0.76140 5.08000 0.11000
v -0.76140 5.08000 -0.33000
v -0.97220 5.46000 -1.37000
v 1.71250 5.46000 -1.37000
v -0.97220 4.79000 -1.37000
v 1.71250 4.79000 -1.37000
v 1.71250 5.46000 1.32000
v -0.97220 5.46000 1.32000
v 1.71250 4.79000 1.32000
v -0.97220 4.79000 1.32000
v 1.79250 5.55000 1.40000
v -1.05220 4.69000 1.40000
v -1.05220 5.55000 1.40000
v 1.79250 4.69000 1.40000
v 1.79250 4.69000 -1.45000
v -1.05220 4.69000 -1.45000
v -1.05220 5.55000 -1.45000
v 1.79250 5.55000 -1.45000
v 2.16050 1.52000 1.72000
v -1.42020 0.67000 1.72000
v -1.42020 1.52000 1.72000
v 2.16050 0.67000 1.72000
v 2.16050 0.67000 -1.77000
v -1.42020 0.67000 -1.77000
v -1.42020 1.52000 -1.77000
v 2.16050 1.52000 -1.77000
v -1.30780 1.43000 -1.70000
v 2.04810 1.43000 -1.70000
v -1.30780 0.76000 -1.70000
v 2.04810 0.76000 -1.70000
v 2.04810 1.43000 1.65000
v -1.30780 1.43000 1.65000
v 2.04810 0.76000 1.65000
v -1.30780 0.76000 1.65000
v 1.68350 0.85000 1.43000
v -0.94320 0.00000 1.43000
v -0.94320 0.85000 1.43000
v 1.68350 0.00000 1.43000
v 1.68350 0.00000 -1.48000
v -0.94320 0.00000 -1.48000
v -0.94320 0.85000 -1.48000
v 1.68350 0.85000 -1.48000
v -0.97220 0.76000 -1.37000
v 1.71250 0.76000 -1.37000
v -0.97220 0.09000 -1.37000
v 1.71250 0.09000 -1.37000
v 1.71250 0.76000 1.32000
v -0.97220 0.76000 1.32000
v 1.71250 0.09000 1.32000
v -0.97220 0.09000 1.32000
vt 1.06972 1.00000
vt 0.00000 1.00000
vt 1.06972 0.14423
vt 0.00000 0.14423
vt 1.30836 1.00000
vt 1.30836 -0.06972
vt 0.00000 -0.06972
vt 1.30836 0.14423
vt 0.64183 1.00000
vt 0.64183 -0.05926
vt 0.00000 -0.05926
vt 1.71155 1.00000
vt 1.71155 0.35817
vt 0.00000 0.35817
vt 1.71155 -0.05926
vt -0.48437 0.58959
vt 0.48438 0.58959
vt -0.48437 1.54722
vt 0.48438 1.54722
vt -0.32088 0.45279
vt 0.32098 0.45279
vt -0.32088 1.54722
vt 0.32098 1.54722
vt -0.32088 0.65800
vt 0.32098 0.65800
vt -0.32098 0.45278
vt 0.32077 0.45278
vt -0.32098 0.65799
vt 0.32077 0.65799
vt -0.48077 0.51562
vt 0.28828 0.51562
vt -0.48077 1.48437
vt 0.28828 1.48437
vt -0.38448 0.67902
vt 0.48077 0.67902
vt -0.38448 1.32088
vt 0.48077 1.32088
vt -0.48077 0.67902
vt 0.28828 0.67902
vt -0.48077 1.32088
vt 0.28828 1.32088
vt 0.48077 0.67922
vt 0.48074 1.32098
vt 0.28828 0.67922
vt 0.28828 1.32098
vt -0.28828 0.58959
vt 0.48077 0.58959
vt -0.28828 1.54722
vt 0.48077 1.54722
vt -0.48077 0.65800
vt 0.38448 0.65800
vt -0.48077 1.54722
vt 0.38448 1.54722
vt -0.28828 0.45279
vt 0.48077 0.45279
vt -0.48074 0.65799
vt -0.28828 0.45278
vt -0.28828 0.65799
vt -0.32077 0.45278
vt 0.32098 0.45278
vt -0.32077 0.65799
vt 0.32098 0.65799
vt -0.32098 0.65800
vt 0.32088 0.65800
vt -0.32098 1.54722
vt 0.32088 1.54722
vt -0.48438 0.58959
vt 0.48437 0.58959
vt -0.48438 1.54722
vt 0.48437 1.54722
vt -0.32098 0.45279
vt 0.32088 0.45279
vt -0.28828 1.32088
vt -0.28828 0.67902
vt 0.48077 1.48437
vt -0.28828 1.48437
vt 0.48077 0.51562
vt -0.28828 0.51562
vt 0.38448 1.32088
vt 0.38448 0.67902
vt -0.48077 0.58959
vt 0.28828 0.58959
vt 0.28828 1.54722
vt -0.38448 0.65800
vt 0.48077 0.65800
vt -0.38448 1.54722
vt -0.48077 0.45279
vt 0.28828 0.45279
vt 0.28828 0.65799
vt 0.28828 0.45278
vt 0.48077 0.65799
vt 1.40633 1.00000
vt 1.40633 0.31253
vt 0.00000 0.31253
vt 1.58888 1.00000
vt 1.58888 -0.40633
vt 0.00000 -0.40633
vt 1.58888 0.31253
vt 1.06972 0.29383
vt 0.00000 0.29383
vt 1.92549 1.00000
vt 1.92549 -0.06972
vt 1.92549 0.29383
vt 0.21128 1.15994
vt -0.21128 1.15994
vt 0.21128 1.01230
vt -0.21128 1.01230
vt 0.26409 1.01230
vt -0.26409 1.01230
vt 0.26409 0.86466
vt -0.26409 0.86466
vt 0.36973 1.15994
vt -0.36973 1.15994
vt 0.36973 0.96309
vt -0.36973 0.96309
vt 0.15846 0.91388
vt -0.15846 0.91388
vt 0.15846 0.76624
vt -0.15846 0.76624
vt 0.31691 1.25837
vt 0.05282 1.25837
vt 0.31691 1.15994
vt 0.05282 1.15994
vt -0.05282 1.25837
vt -0.31691 1.25837
vt -0.05282 1.15994
vt -0.31691 1.15994
vt 0.26409 1.30758
vt 0.10564 1.30758
vt 0.26409 1.25837
vt 0.10564 1.25837
vt -0.10564 1.30758
vt -0.26409 1.30758
vt -0.10564 1.25837
vt -0.26409 1.25837
vt 0.10564 0.76624
vt -0.10564 0.76624
vt 0.10564 0.69242
vt -0.10564 0.69242
vt -0.07589 0.73591
vt 0.07589 0.73591
vt -0.07589 0.89436
vt 0.07589 0.89436
vt -0.07589 1.10564
vt 0.07589 1.10564
vt -0.07589 1.26409
vt 0.07589 1.26409
vt -0.11384 0.68309
vt 0.11384 0.68309
vt -0.11384 0.94718
vt 0.11384 0.94718
vt -0.11384 1.05282
vt 0.11384 1.05282
vt -0.11384 1.31691
vt 0.11384 1.31691
vt -0.15179 0.63027
vt 0.15179 0.63027
vt -0.15179 1.36973
vt 0.15179 1.36973
vt -0.18973 0.78872
vt 0.18973 0.78872
vt -0.18973 1.21127
vt 0.18973 1.21127
vt -0.18973 0.73591
vt 0.18973 0.73591
vt -0.18973 1.26409
vt 0.18973 1.26409
vt -0.15179 0.84154
vt 0.15179 0.84154
vt -0.15179 1.15846
vt 0.15179 1.15846
vt 0.15179 1.15994
vt -0.15179 1.15994
vt 0.15179 0.96309
vt -0.15179 0.96309
vt 0.11384 1.25837
vt -0.11384 1.25837
vt 0.11384 1.15994
vt -0.11384 1.15994
vt 0.07589 1.30758
vt -0.07589 1.30758
vt 0.07589 1.25837
vt -0.07589 1.25837
vt 0.18973 1.01230
vt -0.18973 1.01230
vt 0.18973 0.86466
vt -0.18973 0.86466
vt 0.18973 1.15994
vt -0.18973 1.15994
vt 0.15179 0.91388
vt -0.15179 0.91388
vt 0.15179 0.76624
vt -0.15179 0.76624
vt 0.07589 0.76624
vt -0.07589 0.76624
vt 0.07589 0.69242
vt -0.07589 0.69242
vt 35.99770 -16.93960
vt 35.99300 -16.94250
vt 36.01420 -16.96580
vt 36.00950 -16.96870
vt 36.00810 -16.98360
vt 35.98470 -17.00490
vt 36.01030 -17.01050
vt 35.98260 -16.97800
vt 35.98660 -17.02790
vt 35.98880 -17.05480
vt 36.01220 -17.03350
vt 36.01440 -17.06040
vt 35.97370 -16.99070
vt 35.94490 -16.99770
vt 35.97440 -16.99540
vt 35.94440 -16.99300
vt 36.00540 -17.01120
vt 36.01800 -16.98260
vt 36.00150 -17.00810
vt 36.02190 -16.98560
vt 36.04500 -16.98970
vt 36.04090 -16.98660
vt 36.02840 -17.01530
vt 36.02430 -17.01220
vt 35.96960 -17.00490
vt 35.97810 -16.97590
vt 35.96570 -17.00280
vt 35.98200 -16.97800
vt 35.95910 -17.02790
vt 35.95500 -17.02580
vt 35.94680 -17.05480
vt 35.94270 -17.05270
vt 36.05560 -16.94250
vt 36.02630 -16.94580
vt 36.05730 -16.96870
vt 36.02780 -16.97190
vt 36.00810 -17.05270
vt 36.01030 -17.02580
vt 35.98260 -17.05830
vt 35.98470 -17.03140
vt 35.98660 -17.00840
vt 36.01440 -16.97590
vt 35.98880 -16.98150
vt 36.01220 -17.00280
vt 35.99280 -16.97190
vt 36.00460 -16.94290
vt 35.98810 -16.96900
vt 36.00930 -16.94580
vt 35.94680 -16.98880
vt 35.94270 -16.99190
vt 35.96330 -17.01440
vt 35.95930 -17.01740
vt 35.96960 -16.98470
vt 35.96570 -16.98780
vt 35.98620 -17.01030
vt 35.98230 -17.01340
vt 36.05730 -17.00950
vt 36.02710 -17.01190
vt 36.05660 -17.01420
vt 36.02780 -17.00720
vt 35.97440 -16.94290
vt 35.94490 -16.93960
vt 35.97290 -16.96900
vt 35.94340 -16.96580
vt 36.02430 -17.03350
vt 36.04070 -17.05830
vt 36.02840 -17.03140
vt 36.03670 -17.06040
vt 36.00150 -16.98360
vt 36.01770 -17.00840
vt 36.00540 -16.98150
vt 36.01380 -17.01050
vt 50.01530 -37.03130
vt 49.99190 -37.05270
vt 50.01740 -37.05830
vt 49.98970 -37.02580
vt 49.98560 -36.97590
vt 49.98780 -37.00280
vt 50.01120 -36.98140
vt 50.01340 -37.00840
vt 49.99530 -36.94290
vt 49.99070 -36.94580
vt 50.01190 -36.96900
vt 50.00720 -36.97190
vt 50.02560 -36.99530
vt 50.05580 -36.99300
vt 50.02630 -36.99070
vt 50.05510 -36.99770
vt 49.98210 -36.98260
vt 49.97810 -36.98560
vt 49.99870 -37.00810
vt 49.99460 -37.01120
vt 49.97570 -37.01220
vt 49.95500 -36.98970
vt 49.97160 -37.01530
vt 49.95910 -36.98660
vt 50.05730 -37.05270
vt 50.04090 -37.02790
vt 50.05320 -37.05480
vt 50.04500 -37.02580
vt 50.03430 -37.00280
vt 50.01790 -36.97800
vt 50.03020 -37.00490
vt 50.02190 -36.97590
vt 49.97370 -36.94580
vt 49.94420 -36.94250
vt 49.97200 -36.97190
vt 49.94270 -36.96870
vt 49.99050 -36.96870
vt 50.00230 -36.93960
vt 49.98580 -36.96580
vt 50.00700 -36.94250
vt 50.01530 -37.00490
vt 50.01740 -36.97800
vt 49.98970 -37.01050
vt 49.99190 -36.98360
vt 49.98560 -37.06040
vt 50.01340 -37.02790
vt 49.98780 -37.03350
vt 50.01120 -37.05480
vt 50.04070 -37.01740
vt 50.05320 -36.98880
vt 50.03670 -37.01440
vt 50.05730 -36.99190
vt 50.01770 -37.01340
vt 50.03020 -36.98470
vt 50.01370 -37.01030
vt 50.03430 -36.98780
vt 49.97270 -37.01190
vt 49.97200 -37.00720
vt 49.94340 -37.01420
vt 49.94270 -37.00950
vt 50.05660 -36.96580
vt 50.02560 -36.94290
vt 50.02730 -36.96900
vt 50.05510 -36.93960
vt 49.98230 -37.00840
vt 49.98630 -37.01050
vt 49.99460 -36.98140
vt 49.99870 -36.98360
vt 49.95930 -37.05830
vt 49.96330 -37.06040
vt 49.97160 -37.03130
vt 49.97570 -37.03350
vt -0.30197 2.76130
vt -0.44960 2.07534
vt 0.02969 2.71341
vt -0.11804 2.02747
vt -0.54084 1.72651
vt -0.76094 1.05373
vt -0.21562 1.65513
vt -0.43572 0.98233
vt -0.09485 0.73588
vt -0.27888 0.00203
vt 0.05278 0.04993
vt -0.42651 0.68796
vt 0.76106 0.29349
vt 0.42429 -0.40305
vt 0.76094 -0.40303
vt 0.42429 0.29348
vt 0.42429 -0.76129
vt 0.76106 -0.76130
vt 0.76106 -0.06476
vt 0.42440 -0.06475
vt -0.09474 0.37765
vt -0.27878 -0.35623
vt 0.05278 -0.30832
vt -0.42640 0.32973
vt -0.21562 1.29687
vt -0.76094 0.69547
vt -0.43572 0.62407
vt -0.54084 1.36826
vt 0.02958 2.35515
vt -0.44971 1.71707
vt -0.11804 1.66920
vt -0.30197 2.40302
vt 1.98576 1.30208
vt 1.50848 0.97042
vt 2.02018 0.97042
vt 1.47406 1.30197
vt -1.47406 1.30186
vt -1.98576 1.30197
vt -2.01906 0.97031
vt -1.50736 0.97031
vt 2.01574 1.21562
vt 1.96578 1.54095
vt 1.50404 1.21562
vt 1.45408 1.54084
vt -2.01462 1.21562
vt -1.45296 1.54084
vt -1.96466 1.54084
vt -1.50292 1.21562
vt 1.63943 1.42640
vt 1.60505 1.09474
vt 2.15113 1.42651
vt 2.11675 1.09496
vt -1.63835 1.42640
vt -2.15005 1.42651
vt -2.11675 1.09485
vt -1.60502 1.09474
vt 2.15557 0.57571
vt 1.64387 0.57560
vt 1.64387 0.23894
vt 2.15557 0.23906
vt -2.15557 0.23894
vt -1.64387 0.57560
vt -2.15557 0.57571
vt -1.64387 0.23894
vt -2.11895 -0.35623
vt -1.63943 0.32973
vt -2.63065 0.00201
vt -2.15113 0.68798
vt 1.63835 0.32973
vt 2.11895 -0.35624
vt 2.15005 0.68796
vt 2.63065 0.00203
vt -1.96578 1.72650
vt -2.43642 1.05370
vt -1.45408 1.36826
vt -1.92472 0.69547
vt 1.45296 1.36826
vt 1.92472 0.69548
vt 1.96466 1.72651
vt 2.43642 1.05373
vt -2.46640 2.07533
vt -1.47406 2.40302
vt -1.98576 2.76128
vt -1.95467 1.71707
vt 1.95467 1.71712
vt 2.46637 2.07534
vt 1.98576 2.76130
vt 1.47406 2.40306
vt -2.64397 -0.40305
vt -1.64387 -0.06475
vt -2.15557 0.29348
vt -2.13227 -0.76129
vt 2.13227 -0.76130
vt 2.15557 0.29348
vt 1.64387 -0.06477
vt 2.64288 -0.40305
vt 0.11816 2.02745
vt 0.44971 2.07533
vt 0.30208 2.76128
vt -0.02958 2.71338
vt 0.21562 1.65512
vt 0.43583 0.98233
vt 0.54095 1.72650
vt 0.76106 1.05370
vt -0.05267 0.04992
vt 0.27888 0.00201
vt 0.42651 0.68798
vt 0.09496 0.73588
vt -0.76094 0.29350
vt -0.76094 -0.40304
vt -0.42429 0.29348
vt -0.42418 -0.40305
vt -0.76106 -0.76128
vt -0.42440 -0.76130
vt -0.42440 -0.06477
vt -0.76106 -0.06477
vt 0.09474 0.37764
vt -0.05289 -0.30830
vt 0.42640 0.32973
vt 0.27878 -0.35624
vt 0.21562 1.29687
vt 0.43572 0.62408
vt 0.54084 1.36826
vt 0.76094 0.69548
vt -0.02969 2.35516
vt 0.11793 1.66923
vt 0.30186 2.40306
vt 0.44960 1.71712
vt -2.13227 0.57571
vt -2.64397 0.57582
vt -2.64397 0.23906
vt -2.13227 0.23894
vt 2.64288 0.57571
vt 2.13227 0.23894
vt 2.64397 0.23906
vt 2.13227 0.57560
vt -2.08566 0.94722
vt -2.11895 1.27877
vt -2.59736 0.94733
vt -2.63065 1.27888
vt 2.63065 1.27888
vt 2.08566 0.94711
vt 2.59736 0.94722
vt 2.11895 1.27877
vt -1.92472 1.76095
vt -2.48635 1.43583
vt -1.97465 1.43572
vt -2.43642 1.76106
vt 1.92472 1.76095
vt 1.97465 1.43572
vt 2.43642 1.76095
vt 2.48635 1.43572
vt -2.49970 1.11816
vt -1.95467 1.44971
vt -2.46640 1.44971
vt -1.98800 1.11804
vt 2.46637 1.44960
vt 1.98796 1.11793
vt 2.49970 1.11804
vt 1.95467 1.44960
vt 1.64387 -0.06476
vt 2.15557 0.29350
vt 2.64397 -0.40304
vt -2.13227 -0.76128
vt -1.64387 -0.06477
vt -2.64397 -0.40303
vt -2.15557 0.29349
vt 2.02018 2.71338
vt 1.98800 1.66920
vt 2.49970 2.02745
vt 1.50848 2.35515
vt -2.49970 2.02747
vt -1.98796 1.66923
vt -1.50736 2.35516
vt -2.01906 2.71341
vt 1.97465 0.62407
vt 2.48635 0.98233
vt 2.01574 1.65512
vt 1.50404 1.29687
vt -2.48635 0.98233
vt -1.97465 0.62408
vt -1.50292 1.29687
vt -2.01462 1.65513
vt 1.60505 0.37765
vt 2.08566 -0.30832
vt 2.11675 0.73588
vt 2.59736 0.04992
vt -1.60502 0.37764
vt -2.11675 0.73588
vt -2.59736 0.04993
vt -2.08566 -0.30830
vt 15.99450 -51.04000
vt 16.04430 -51.05080
vt 16.04080 -51.00790
vt 15.99110 -50.99720
vt 16.03630 -50.95500
vt 15.99070 -50.99210
vt 16.04010 -51.00280
vt 15.98690 -50.94440
vt 16.03990 -51.00860
vt 16.04330 -51.05140
vt 16.03580 -50.95020
vt 16.04400 -51.05140
vt 15.98980 -50.95020
vt 15.99020 -50.95570
vt 16.00220 -50.95020
vt 16.01480 -50.95570
vt 16.01160 -50.95020
vt 16.03530 -50.95570
vt 16.03920 -51.00340
vt 15.99410 -51.00340
vt 15.99450 -51.00860
vt 15.98830 -50.99780
vt 15.98000 -50.98680
vt 15.98760 -50.99890
vt 15.98830 -50.99850
vt 15.99480 -50.92400
vt 15.98920 -50.95180
vt 15.96430 -50.96190
vt 15.98910 -50.95880
vt 15.95570 -50.94840
vt 16.05780 -50.95980
vt 16.00560 -50.95570
vt 15.99970 -50.99480
vt 16.05200 -50.99890
vt 16.07210 -51.02450
vt 16.05620 -51.02340
vt 16.05110 -51.02820
vt 16.06400 -50.97850
vt 16.06000 -50.98240
vt 16.00340 -50.98920
vt 15.99990 -50.98980
vt 16.00210 -51.00220
vt 16.05440 -50.98020
vt 16.04600 -51.02910
vt 16.00380 -51.01170
vt 16.00800 -51.03580
vt 16.00410 -51.03630
vt 16.00530 -51.03530
vt 16.00170 -51.01480
vt 15.99730 -50.99020
vt 15.97220 -50.98690
vt 16.00630 -50.96430
vt 16.00410 -50.98910
vt 16.00630 -50.96100
vt 16.00910 -50.96540
vt 15.98110 -51.03990
vt 15.94770 -50.99110
vt 15.97980 -51.04080
vt 15.98200 -50.96500
vt 15.97310 -50.99450
vt 15.99830 -50.99010
vt 16.01800 -51.01510
vt 16.07210 -51.04000
vt 16.05230 -50.99720
vt 16.03770 -51.05790
vt 16.04980 -50.99210
vt 15.99370 -50.96210
vt 16.01570 -51.00990
vt 16.02780 -50.94440
vt 15.99130 -50.99890
vt 15.94220 -50.94260
vt 15.94560 -50.97600
vt 15.98890 -50.99860
vt 15.94000 -50.97840
vt 15.99210 -50.98680
vt 15.99090 -50.96310
vt 15.99370 -50.96190
vt 15.99440 -50.94840
vt 15.93910 -50.99310
vt 15.93970 -50.99310
vt 15.93930 -50.99190
vt 16.00170 -51.02050
vt 16.02690 -51.00860
vt 15.99960 -51.01530
vt 16.02450 -51.00340
vt 16.02150 -51.06330
vt 15.98250 -51.08170
vt 15.93600 -50.98050
vt 15.99140 -50.99850
vt 15.99160 -50.99780
vt 15.99590 -50.95880
vt 16.00270 -50.95570
vt 16.00010 -50.95020
vt 15.99660 -50.95180
vt 15.97660 -50.97330
vt 16.01760 -50.97840
vt 16.00110 -50.91830
vt 16.04020 -50.94260
vt 15.96920 -50.96870
vt 16.00750 -50.99260
vt 16.00830 -50.99310
vt 16.00900 -50.99190
vt 16.01330 -51.08170
vt 16.02150 -50.98050
vt 15.97550 -50.98050
vt 15.96730 -51.08170
vt 16.03500 -51.01510
vt 16.00990 -51.02050
vt 16.03160 -51.05790
vt 16.00650 -51.06330
vt 16.02000 -50.98680
vt 16.03520 -51.00990
vt 16.03900 -50.96210
vt 16.01170 -50.99780
vt 16.01030 -51.01530
vt 16.03460 -50.96310
vt 16.03860 -51.04330
vt 15.97430 -51.03270
vt 16.03840 -51.04400
vt 16.04660 -50.99800
vt 15.98250 -50.98670
vt 16.03980 -51.04430
vt 16.07210 -50.99450
vt 16.03770 -50.96840
vt 16.02150 -50.99350
vt 15.99960 -50.98970
vt 16.02450 -50.99410
vt 16.01570 -50.96480
vt 16.04980 -50.99070
vt 16.01660 -51.03920
vt 16.01780 -51.04010
vt 15.94490 -51.03080
vt 15.94890 -51.02820
vt 15.94380 -51.02340
vt 15.95780 -51.02980
vt 15.98890 -50.98780
vt 15.99140 -50.98830
vt 15.99130 -50.98760
vt 15.93910 -50.99170
vt 15.93930 -50.99250
vt 15.93970 -50.99170
vt 16.01750 -51.08170
vt 15.95340 -51.05140
vt 15.97850 -51.06330
vt 15.96160 -51.05140
vt 16.02570 -51.08170
vt 16.07210 -50.98050
vt 16.05110 -50.97060
vt 16.04220 -50.97020
vt 16.00800 -50.95020
vt 16.04600 -50.96820
vt 16.05510 -50.96870
vt 15.99970 -50.92400
vt 16.05200 -50.91830
vt 16.00380 -50.95020
vt 16.00170 -50.95570
vt 15.98220 -51.00280
vt 15.98340 -51.00340
vt 16.00530 -50.95570
vt 16.00410 -50.95500
vt 15.97980 -51.00790
vt 15.96140 -51.05140
vt 15.98110 -51.00860
vt 15.96020 -51.05080
vt 57.95980 -24.94260
vt 58.03080 -24.96870
vt 57.99890 -24.91830
vt 58.02340 -24.97330
vt 57.98240 -24.97840
vt 57.99250 -24.99260
vt 57.99100 -24.99190
vt 57.99170 -24.99310
vt 57.97850 -24.98050
vt 57.98670 -25.08170
vt 58.03270 -25.08170
vt 58.02450 -24.98050
vt 57.99350 -25.06330
vt 57.96490 -25.01510
vt 57.96840 -25.05790
vt 57.99010 -25.02050
vt 57.97990 -24.98670
vt 57.96540 -24.96310
vt 57.96100 -24.96210
vt 57.96480 -25.00990
vt 57.98830 -24.99780
vt 57.98970 -25.01530
vt 57.99450 -24.95570
vt 57.94800 -24.99890
vt 58.00030 -24.99480
vt 57.94220 -24.95980
vt 57.99620 -25.01160
vt 57.95400 -25.02910
vt 57.99200 -25.03580
vt 58.00010 -24.98980
vt 57.99680 -24.98920
vt 57.99790 -25.00220
vt 57.94010 -24.98240
vt 57.94560 -24.98020
vt 57.93600 -24.97850
vt 57.94390 -25.02340
vt 57.92790 -25.02450
vt 57.94890 -25.02820
vt 57.99380 -24.96100
vt 57.99370 -24.96430
vt 58.00270 -24.99020
vt 57.99090 -24.96540
vt 57.99590 -25.03630
vt 57.99830 -25.01480
vt 57.99470 -25.03530
vt 57.99590 -24.98910
vt 58.02790 -24.98690
vt 58.05250 -24.99110
vt 58.01810 -24.96490
vt 58.02690 -24.99450
vt 58.00180 -24.99010
vt 58.02020 -25.04080
vt 58.01890 -25.03990
vt 57.96230 -25.05790
vt 57.98190 -25.01510
vt 57.94750 -24.99720
vt 57.92790 -25.04000
vt 57.98430 -25.00990
vt 58.00620 -24.96210
vt 57.97210 -24.94440
vt 57.95020 -24.99210
vt 58.05990 -24.97840
vt 58.05780 -24.94260
vt 58.05440 -24.97600
vt 58.00550 -24.94840
vt 58.00910 -24.96310
vt 58.00630 -24.96190
vt 58.00790 -24.98670
vt 58.01110 -24.99860
vt 58.00860 -24.99890
vt 58.06070 -24.99190
vt 58.06030 -24.99310
vt 58.06090 -24.99310
vt 58.00860 -24.99850
vt 58.00840 -24.99780
vt 58.00040 -25.01530
vt 57.99820 -25.02050
vt 58.06400 -24.98050
vt 57.97850 -25.06330
vt 58.01740 -25.08170
vt 57.97550 -25.00350
vt 57.97310 -25.00860
vt 57.99730 -24.95570
vt 58.00410 -24.95880
vt 58.00320 -24.95180
vt 57.99990 -24.95020
vt 57.95570 -25.05080
vt 58.00550 -25.04000
vt 58.00890 -24.99720
vt 57.95920 -25.00790
vt 57.95990 -25.00280
vt 58.01310 -24.94440
vt 57.96370 -24.95500
vt 58.00930 -24.99210
vt 57.96080 -25.00350
vt 57.96420 -24.95020
vt 57.96010 -25.00860
vt 57.98520 -24.95570
vt 58.00980 -24.95570
vt 57.99780 -24.95020
vt 58.01020 -24.95020
vt 57.98830 -24.95020
vt 57.96470 -24.95570
vt 58.00590 -25.00350
vt 58.00550 -25.00860
vt 57.95600 -25.05140
vt 57.95670 -25.05140
vt 58.04430 -24.94840
vt 58.01090 -24.95880
vt 58.03570 -24.96190
vt 58.01080 -24.95180
vt 58.00520 -24.92400
vt 58.01170 -24.99780
vt 58.01170 -24.99850
vt 58.01240 -24.99890
vt 58.02010 -24.98670
vt 58.02550 -25.03270
vt 58.01740 -24.98670
vt 57.96140 -25.04400
vt 57.97850 -24.99350
vt 57.95340 -24.99800
vt 57.96140 -25.04330
vt 57.92790 -24.99450
vt 57.96230 -24.96840
vt 57.96020 -25.04430
vt 57.98330 -25.03920
vt 57.97550 -24.99410
vt 57.98220 -25.04010
vt 58.00040 -24.98970
vt 57.98430 -24.96480
vt 57.95020 -24.99070
vt 58.00860 -24.98830
vt 58.01110 -24.98780
vt 58.00860 -24.98760
vt 58.06030 -24.99170
vt 58.06070 -24.99250
vt 58.06090 -24.99170
vt 58.05510 -25.03080
vt 58.05610 -25.02340
vt 58.05110 -25.02820
vt 58.04220 -25.02980
vt 57.94890 -24.97060
vt 57.97450 -25.08170
vt 57.95780 -24.97020
vt 57.92790 -24.98050
vt 57.99200 -24.95020
vt 58.03860 -25.05140
vt 57.95400 -24.96820
vt 57.94490 -24.96870
vt 57.99620 -24.95020
vt 57.94800 -24.91830
vt 58.00030 -24.92400
vt 57.99830 -24.95570
vt 57.99470 -24.95570
vt 58.01670 -25.00350
vt 57.99590 -24.95500
vt 58.03980 -25.05080
vt 58.02020 -25.00790
vt 58.01890 -25.00860
vt 58.01780 -25.00280
vt 4.49189 2.00653
vt 5.02416 1.64116
vt 5.02416 2.00653
vt 4.49189 1.64116
vt 5.02416 2.08998
vt 4.49189 2.08998
vt 4.49189 1.55771
vt 5.02416 1.55771
vt 2.75338 -2.50000
vt 2.25000 -2.50000
vt 2.75338 -2.83559
vt 2.25000 -2.83559
vt 2.75338 -3.00338
vt 2.25000 -3.00338
vt -0.28792 1.11864
vt 0.28778 0.88136
vt 0.28778 1.11862
vt -0.28792 0.88138
vt 0.28791 0.32009
vt -0.28792 0.32009
vt -0.19308 1.67991
vt 0.19296 1.13413
vt 0.19296 1.67991
vt -0.19308 1.13414
vt -0.19308 0.97628
vt 0.19296 0.97627
vt 0.43645 1.19308
vt -0.04732 1.19308
vt 0.43645 0.80704
vt -0.04732 0.80704
vt 0.67353 0.80704
vt 0.67353 1.19308
vt -0.09519 0.71222
vt -0.67353 1.28792
vt -0.67353 0.71222
vt -0.09519 1.28792
vt 0.37897 1.28792
vt 0.37897 0.71209
vt 0.53226 0.32009
vt 0.53226 0.88138
vt 0.09519 0.88139
vt -0.37897 0.88139
vt -0.37897 0.32009
vt 0.09519 1.11864
vt 0.67353 0.88138
vt 0.67353 1.11864
vt -0.18980 1.13414
vt 0.04732 1.13414
vt -0.43645 1.67991
vt 0.04732 1.67991
vt -0.43645 1.44311
vt -0.43645 1.13414
vt -0.67353 1.44311
vt -0.67353 0.97628
vt -0.18980 0.97628
vt -0.19296 1.44311
vt 0.19308 0.97628
vt 0.19308 1.44311
vt -0.19296 0.97627
vt 0.19308 1.67991
vt -0.19296 1.67991
vt 0.28792 0.88139
vt -0.28791 0.88139
vt 0.28792 0.32009
vt -0.28791 0.32009
vt 0.28792 1.11864
vt -0.28778 1.11862
vt -0.28778 0.88139
vt 0.53226 0.71209
vt 0.53226 1.28792
vt -0.37897 1.28792
vt -0.37897 0.71209
vt 0.53226 0.71222
vt 0.67353 0.71222
vt 0.67353 1.28792
vt -0.18980 0.80704
vt -0.67353 1.19308
vt -0.67353 0.80704
vt -0.18980 1.19308
vt 0.04732 1.19308
vt 0.04732 0.80704
vt -0.53226 0.88136
vt -0.53226 0.32009
vt 0.37897 0.32009
vt -0.09519 0.88139
vt 0.37897 0.88139
vt -0.67353 1.11862
vt -0.09519 1.11862
vt -0.67353 0.88136
vt 0.18980 1.44311
vt 0.43645 1.44311
vt 0.43645 1.67991
vt -0.04732 1.67991
vt -0.04732 1.13413
vt 0.18980 1.13413
vt 0.67353 0.97627
vt 0.67353 1.44311
vt 0.18980 0.97627
vt -0.19296 0.97628
vt 0.19307 0.97628
vt 0.19307 1.44311
vt 0.19296 1.44311
vt 0.19307 1.67991
vt 0.28791 0.88138
vt 0.28791 1.11864
vt 0.17033 0.88138
vt -0.28792 0.88139
vt 0.04787 1.19296
vt -0.43707 1.19296
vt 0.04787 0.80693
vt -0.43707 0.80693
vt -0.67415 1.19296
vt -0.43707 0.80704
vt -0.67415 0.80693
vt 0.67411 0.71209
vt 0.09457 1.28792
vt 0.09457 0.71209
vt 0.67411 1.28792
vt 0.53164 1.28792
vt -0.37959 1.28792
vt 0.35200 0.82573
vt 0.53164 0.82273
vt 0.21073 0.82788
vt 0.09457 0.82967
vt -0.37959 0.71209
vt -0.09457 1.11864
vt -0.67411 1.11864
vt -0.09457 0.88139
vt -0.67411 0.88139
vt 0.37959 0.88138
vt -0.53164 0.88138
vt 0.37959 0.32009
vt -0.53164 0.32009
vt 0.43707 1.67991
vt -0.04787 1.67991
vt 0.43707 1.44311
vt 0.19038 1.13414
vt -0.04787 1.13414
vt 0.43707 1.13414
vt 0.19038 0.97628
vt 0.67415 0.97628
vt 0.67415 1.44311
vt -0.28791 1.11864
vt -0.28791 0.88138
vt -0.17727 0.88138
vt 0.28792 0.88138
vt -0.19307 1.67991
vt 0.19296 1.13414
vt -0.19296 1.13413
vt -0.19307 0.97628
vt 0.19296 0.97628
vt 0.37959 0.71209
vt 0.37959 1.28792
vt -0.53164 1.28792
vt -0.53164 0.71209
vt -0.67411 1.28792
vt -0.67411 0.71209
vt -0.53164 0.82273
vt -0.35200 0.82573
vt -0.21073 0.82788
vt -0.09457 1.28792
vt -0.09457 0.82967
vt 0.67415 0.80693
vt 0.67415 1.19296
vt 0.19038 1.19296
vt 0.19038 0.80693
vt -0.04787 0.80704
vt 0.19038 0.80704
vt -0.04787 1.19296
vt 0.53164 0.88138
vt 0.67411 0.88138
vt 0.09457 1.11864
vt 0.67411 1.11864
vt 0.09457 0.88138
vt 0.53164 0.32009
vt -0.37959 0.88138
vt -0.37959 0.32009
vt 0.04787 1.67991
vt -0.43707 1.67991
vt -0.19038 1.44310
vt 0.04787 1.13413
vt -0.43707 1.44311
vt -0.19038 1.13413
vt -0.19038 0.97628
vt -0.67415 1.44311
vt -0.67415 0.97628
vt 0.14458 0.90714
vt -0.14278 1.37759
vt -0.14278 0.90715
vt 0.14470 1.37758
vt -0.14553 0.90715
vt -0.14278 1.18778
vt -0.14553 1.18778
vt 0.14554 0.90714
vt 0.14458 1.18777
vt 0.14554 1.18777
vt 0.14554 0.62241
vt -0.14553 0.62242
vt 0.02635 0.85542
vt -0.36282 1.14278
vt -0.36282 0.85530
vt 0.02635 1.14278
vt 0.24187 1.14553
vt 0.00000 1.14553
vt 0.00000 1.14278
vt 0.24187 0.85446
vt 0.00000 0.85446
vt 0.00000 0.85542
vt 0.36282 0.85446
vt 0.36282 1.14553
vt -0.12095 0.90715
vt 0.00000 0.90715
vt -0.24187 1.18778
vt 0.00000 1.18778
vt -0.24187 1.04541
vt -0.24187 0.90715
vt -0.12095 0.62242
vt -0.36282 1.04541
vt -0.36282 0.62242
vt -0.02635 1.37759
vt -0.02635 1.18778
vt 0.36282 0.90715
vt 0.36282 1.37759
vt 0.14553 1.04541
vt -0.14554 1.04540
vt 0.14553 0.62242
vt -0.14554 0.62241
vt 0.14553 1.18778
vt -0.14554 1.18777
vt -0.14458 1.18777
vt 0.14278 1.18778
vt 0.14278 1.37759
vt -0.14458 1.37758
vt -0.12095 0.85446
vt -0.36282 1.14553
vt -0.36282 0.85446
vt -0.12095 1.14553
vt -0.02635 1.14278
vt 0.36282 0.85542
vt 0.36282 1.14278
vt 0.12095 0.90714
vt 0.12095 1.04540
vt 0.00000 0.90714
vt 0.00000 1.18777
vt 0.36282 0.62241
vt 0.12095 0.62241
vt 0.24187 1.04540
vt 0.24187 1.18777
vt 0.36282 1.04540
vt -0.36282 1.37758
vt -0.36282 0.90714
vt 0.02635 1.37758
vt 0.02635 1.18777
vt -0.14554 1.04542
vt -0.14554 0.62244
vt 0.14553 1.18776
vt 0.14458 1.18776
vt 0.14458 1.37756
vt -0.14279 1.37758
vt -0.14291 1.18777
vt 0.36340 0.85542
vt -0.02572 1.14279
vt -0.02572 0.85542
vt 0.36340 1.14279
vt -0.02572 1.14291
vt -0.00058 1.14554
vt -0.24245 1.14554
vt -0.00058 1.14291
vt -0.24245 0.85447
vt -0.00058 0.85447
vt -0.00058 0.85542
vt -0.36340 0.85447
vt -0.36340 1.14554
vt 0.12033 0.90714
vt 0.24245 0.90714
vt 0.00058 1.18777
vt 0.00058 0.90714
vt 0.24245 1.04542
vt 0.24245 1.18777
vt 0.36340 1.04542
vt 0.36340 0.62244
vt 0.12033 0.62244
vt -0.36340 1.37758
vt -0.36340 0.90714
vt 0.02572 1.37758
vt 0.02572 1.18777
vt -0.14458 0.90712
vt 0.14291 0.90714
vt -0.14458 1.37756
vt 0.14279 1.37758
vt 0.14291 1.18777
vt -0.14553 1.18776
vt -0.14553 0.90712
vt -0.14458 1.18776
vt 0.14554 0.62244
vt 0.36340 0.85447
vt 0.12033 1.14554
vt 0.12033 0.85447
vt 0.36340 1.14554
vt -0.36340 0.85542
vt 0.00058 0.85542
vt 0.00058 1.14291
vt -0.36340 1.14291
vt 0.00058 0.85447
vt 0.00058 1.14554
vt -0.12033 1.04541
vt -0.12033 0.90712
vt -0.00058 0.90712
vt -0.24245 1.18776
vt -0.00058 1.18776
vt -0.24245 1.04541
vt -0.36340 1.04541
vt -0.12033 0.62242
vt -0.36340 0.62242
vt 0.36340 1.37756
vt -0.02572 1.37756
vt 0.36340 0.90712
vt -0.02572 1.18776
vt 0.24043 0.62447
vt -0.24043 0.81425
vt -0.24043 0.62447
vt -0.24043 1.18576
vt 0.24043 1.18575
vt 0.24043 1.37553
vt -0.24043 1.37553
vt 0.12333 1.24043
vt -0.40831 1.24043
vt 0.12333 0.75957
vt -0.40831 0.75957
vt 0.40831 1.24043
vt 0.40831 0.75957
vt 0.40831 0.81425
vt -0.12333 0.81427
vt 0.40831 0.62447
vt -0.40831 0.62447
vt -0.40831 1.18576
vt -0.12333 1.18576
vt -0.12333 1.37553
vt 0.40831 1.18576
vt 0.40831 1.37553
vt -0.24043 1.18575
vt 0.24043 1.18576
vt -0.40831 1.18575
vt 0.12333 1.18575
vt 0.40831 1.18575
vt 0.12333 1.37553
vt -0.40831 1.37553
vt 0.24043 0.62445
vt -0.24043 1.18574
vt -0.24043 0.62446
vt 0.24043 1.18574
vt -0.24043 1.37555
vt 0.24043 1.37554
vt 0.40773 1.24043
vt -0.12391 1.24043
vt 0.40773 0.75957
vt -0.12391 0.75957
vt -0.40769 1.24043
vt -0.40769 0.75957
vt 0.12391 1.37555
vt -0.40773 1.37555
vt 0.12391 1.18574
vt -0.40773 0.81426
vt -0.40773 0.62446
vt 0.40769 0.62446
vt 0.40769 1.18574
vt -0.24043 0.81426
vt 0.24043 0.81426
vt -0.24043 1.18572
vt -0.24043 1.37554
vt 0.24043 1.37555
vt -0.24043 0.62445
vt 0.24043 0.62446
vt 0.40769 0.75957
vt 0.40769 1.24043
vt -0.40773 1.24043
vt -0.40773 0.75957
vt 0.40773 1.18572
vt -0.12391 1.37554
vt -0.12391 1.18574
vt 0.40773 1.37554
vt 0.40773 0.81426
vt 0.40773 0.62445
vt -0.40769 1.18574
vt -0.40769 0.62445
vt 8.16948 -3.25000
vt 7.75000 -3.25000
vt 8.16948 -3.33390
vt 7.75000 -3.33390
vt 8.16948 -3.66948
vt 7.75000 -3.66948
vt 3.71575 3.22931
vt 4.16332 3.12288
vt 4.16332 3.22931
vt 3.71575 3.12288
vt 4.15787 3.39988
vt 3.72120 3.39988
vt 3.72120 2.95231
vt 4.15787 2.95231
vt 3.72120 3.22931
vt 4.15787 3.12288
vt 4.15787 3.22931
vt 3.72120 3.12288
vt 0.15227 1.35089
vt -0.15214 1.35090
vt 0.15227 0.49716
vt -0.15226 0.49718
vt -0.15214 1.50284
vt 0.15227 1.50282
vt 0.14271 0.84773
vt -0.14267 1.15214
vt -0.14267 0.84773
vt 0.14271 1.15214
vt 0.58660 0.84773
vt 0.30126 1.15214
vt 0.30126 0.84773
vt 0.58660 1.15214
vt -0.30122 1.15214
vt -0.58660 1.15214
vt -0.30122 0.84773
vt -0.58660 0.84773
vt -0.30126 1.35090
vt -0.58660 1.35090
vt -0.30126 0.49718
vt -0.58660 0.49718
vt 0.14267 1.50284
vt -0.14271 1.50284
vt 0.14267 0.49718
vt -0.14271 0.49718
vt 0.58660 1.35090
vt 0.30122 1.35090
vt 0.58660 0.49718
vt 0.30122 0.49718
vt 0.15214 1.35090
vt -0.15227 1.35089
vt 0.15226 0.49718
vt -0.15227 0.49716
vt -0.15227 1.50282
vt 0.15214 1.50284
vt -0.58660 1.15226
vt -0.30126 0.84773
vt -0.30126 1.15226
vt -0.14271 1.15226
vt 0.14267 0.84773
vt 0.14267 1.15226
vt -0.14271 0.84773
vt 0.30122 0.84773
vt 0.30122 1.15226
vt 0.58660 1.15226
vt 0.58660 1.35089
vt 0.30126 1.35089
vt 0.58660 0.49716
vt 0.30126 0.49716
vt 0.14271 0.49716
vt -0.14267 1.50282
vt -0.14267 0.49716
vt 0.14271 1.50282
vt -0.30122 0.49716
vt -0.58660 1.35089
vt -0.58660 0.49716
vt -0.30122 1.35089
vt 4.08559 0.75000
vt 3.75000 0.75000
vt 4.08559 0.66610
vt 3.75000 0.66610
vt 4.08559 0.41441
vt 3.75000 0.41441
vt -2.13421 3.61879
vt -1.77862 3.51237
vt -1.77862 3.61879
vt -2.13421 3.51237
vt -1.77800 3.74338
vt -2.13482 3.74338
vt -2.13482 3.38778
vt -1.77800 3.38778
vt -2.13482 3.61879
vt -1.77800 3.51237
vt -1.77800 3.61879
vt -2.13482 3.51237
vt 3.32554 2.44496
vt 3.77312 2.33853
vt 3.77312 2.44496
vt 3.32554 2.33853
vt 3.76766 2.61554
vt 3.33100 2.61554
vt 3.33100 2.16796
vt 3.76766 2.16796
vt 3.33100 2.44496
vt 3.76766 2.33853
vt 3.76766 2.44496
vt 3.33100 2.33853
vt 4.16948 0.50000
vt 3.75000 0.50000
vt 4.16948 0.41610
vt 3.75000 0.41610
vt 4.16948 0.08052
vt 3.75000 0.08052
vt -2.66690 2.17538
vt -2.33855 2.06895
vt -2.33855 2.17538
vt -2.66690 2.06895
vt -2.32072 2.28634
vt -2.68472 2.28634
vt -2.68472 1.95799
vt -2.32072 1.95799
vt -2.68472 2.17538
vt -2.32072 2.06895
vt -2.32072 2.17538
vt -2.68472 2.06895
vt 5.33559 -2.75000
vt 5.00000 -2.75000
vt 5.33559 -2.83390
vt 5.00000 -2.83390
vt 5.33559 -3.08559
vt 5.00000 -3.08559
vn -0.3386 -0.9370 0.0000
vn 0.0000 0.0000 1.0000
vn -0.9370 0.3386 0.0000
vn 0.3386 0.9370 0.0000
vn 0.0000 0.0000 -1.0000
vn 0.9370 -0.3386 0.0000
vn 1.0000 0.0000 0.0000
vn 0.0000 1.0000 0.0000
vn -1.0000 0.0000 0.0000
vn 0.0000 -1.0000 0.0000
vn -0.6850 0.0000 -0.7323
vn -0.7323 0.0000 0.6850
vn 0.0000 0.8661 -0.5039
vn 0.0000 -0.4961 -0.8661
vn 0.0000 -0.8661 0.4961
vn 0.0000 0.5039 0.8661
vn 0.0000 0.9685 0.2598
vn 0.0000 0.2598 -0.9685
vn 0.0000 -0.9685 -0.2598
vn 0.0000 -0.2598 0.9685
vn -0.0787 0.1102 -0.9921
vn 0.5591 -0.3858 -0.7323
vn 0.5354 0.8425 0.0551
vn 0.0709 0.9055 -0.4173
vn 0.8268 0.1811 0.5354
vn 0.8425 -0.5276 -0.1260
vn -0.5591 0.3858 0.7323
vn 0.0787 -0.1102 0.9921
vn -0.0709 -0.9055 0.4173
vn -0.5354 -0.8425 -0.0551
vn -0.8425 0.5276 0.1260
vn -0.8268 -0.1811 -0.5354
vn -0.5591 0.3858 -0.7323
vn 0.0787 -0.1102 -0.9921
vn 0.5354 0.8425 -0.0551
vn 0.0709 0.9055 0.4173
vn 0.8268 0.1811 -0.5354
vn 0.8425 -0.5276 0.1260
vn -0.0787 0.1102 0.9921
vn 0.5591 -0.3858 0.7323
vn -0.0709 -0.9055 -0.4173
vn -0.5354 -0.8425 0.0551
vn -0.8425 0.5276 -0.1260
vn -0.8268 -0.1811 0.5354
vn 0.0000 0.5748 -0.8189
vn 0.0000 -0.5748 -0.8189
vn -0.1732 0.8032 -0.5669
vn -0.1732 0.8032 0.5669
vn -0.2598 0.7874 -0.5512
vn -0.2598 0.7874 0.5512
vn 0.1732 0.8032 -0.5669
vn 0.1732 0.8032 0.5669
vn 0.0000 0.8189 -0.5748
vn 0.0000 0.8189 0.5748
vn 0.9843 -0.1417 0.1024
vn 0.9843 -0.1417 -0.1024
vn 0.9685 0.2126 -0.1496
vn 0.9685 0.2126 0.1496
vn 0.9843 0.1417 -0.1024
vn 0.9843 0.1417 0.1024
vn 0.0000 0.5748 0.8189
vn 0.0000 -0.5748 0.8189
vn 0.0000 -0.8189 0.5748
vn 0.0000 -0.8189 -0.5748
vn -0.1732 -0.8032 0.5669
vn -0.1732 -0.8032 -0.5669
vn 0.2598 -0.7874 0.5512
vn 0.2598 -0.7874 -0.5512
vn 0.1732 -0.8032 0.5669
vn 0.1732 -0.8032 -0.5669
vn -0.9843 -0.1417 0.1024
vn -0.9843 -0.1417 -0.1024
vn -0.9685 -0.2126 0.1496
vn -0.9685 -0.2126 -0.1496
vn -0.9843 0.1417 -0.1024
vn -0.9843 0.1417 0.1024
vn -0.1575 0.4252 -0.8898
vn 0.9843 0.0000 -0.1732
vn 0.1575 -0.4252 0.8898
vn -0.9843 0.0000 0.1732
vn 0.1575 -0.4252 -0.8898
vn 0.9843 0.0000 0.1732
vn -0.1575 0.4252 0.8898
vn -0.9843 0.0000 -0.1732

o E3
usemtl c_733380
f 1/1/1 2/2/1 3/3/1
f 3/3/1 2/2/1 4/4/1
f 5/5/2 2/2/2 6/6/2
f 6/6/2 2/2/2 1/7/2
f 2/5/3 5/2/3 4/8/3
f 4/8/3 5/2/3 7/4/3
f 5/1/4 6/2/4 7/3/4
f 7/3/4 6/2/4 8/4/4
f 8/5/5 3/2/5 7/6/5
f 7/6/5 3/2/5 4/7/5
f 6/5/6 1/2/6 8/8/6
f 8/8/6 1/2/6 3/4/6
f 9/9/7 10/2/7 11/10/7
f 11/10/7 10/2/7 12/11/7
f 13/12/5 10/2/5 14/13/5
f 14/13/5 10/2/5 9/14/5
f 10/12/8 13/2/8 12/15/8
f 12/15/8 13/2/8 15/11/8
f 13/9/9 14/2/9 15/10/9
f 15/10/9 14/2/9 16/11/9
f 16/12/2 11/2/2 15/13/2
f 15/13/2 11/2/2 12/14/2
f 14/12/10 9/2/10 16/15/10
f 16/15/10 9/2/10 11/11/10
f 17/16/2 18/17/2 19/18/2
f 19/18/2 18/17/2 20/19/2
f 21/20/2 22/21/2 23/22/2
f 23/22/2 22/21/2 24/23/2
f 25/24/2 26/25/2 27/22/2
f 27/22/2 26/25/2 28/23/2
f 29/26/2 30/27/2 31/28/2
f 31/28/2 30/27/2 32/29/2
f 20/30/7 33/31/7 19/32/7
f 19/32/7 33/31/7 34/33/7
f 28/34/7 35/35/7 27/36/7
f 27/36/7 35/35/7 36/37/7
f 24/38/7 37/39/7 23/40/7
f 23/40/7 37/39/7 38/41/7
f 39/42/7 40/43/7 32/44/7
f 32/44/7 40/43/7 31/45/7
f 41/46/8 17/47/8 34/48/8
f 34/48/8 17/47/8 19/49/8
f 40/50/8 25/51/8 36/52/8
f 36/52/8 25/51/8 27/53/8
f 29/54/8 21/55/8 38/48/8
f 38/48/8 21/55/8 23/49/8
f 40/56/8 29/57/8 31/58/8
f 30/59/11 29/60/11 39/61/11
f 39/61/11 29/60/11 40/62/11
f 39/63/5 40/64/5 35/65/5
f 35/65/5 40/64/5 36/66/5
f 42/67/5 41/68/5 33/69/5
f 33/69/5 41/68/5 34/70/5
f 30/71/5 29/72/5 37/65/5
f 37/65/5 29/72/5 38/66/5
f 21/37/9 29/73/9 22/35/9
f 22/35/9 29/73/9 30/74/9
f 17/75/9 41/76/9 18/77/9
f 18/77/9 41/76/9 42/78/9
f 25/79/9 40/40/9 26/80/9
f 26/80/9 40/40/9 39/38/9
f 18/81/10 42/82/10 20/52/10
f 20/52/10 42/82/10 33/83/10
f 26/84/10 39/85/10 28/86/10
f 28/86/10 39/85/10 35/49/10
f 22/87/10 30/88/10 24/52/10
f 24/52/10 30/88/10 37/83/10
f 32/89/10 30/90/10 39/91/10
f 43/92/1 44/2/1 45/93/1
f 45/93/1 44/2/1 46/94/1
f 47/95/2 44/2/2 48/96/2
f 48/96/2 44/2/2 43/97/2
f 44/95/3 47/2/3 46/98/3
f 46/98/3 47/2/3 49/94/3
f 47/92/4 48/2/4 49/93/4
f 49/93/4 48/2/4 50/94/4
f 50/95/5 45/2/5 49/96/5
f 49/96/5 45/2/5 46/97/5
f 48/95/6 43/2/6 50/98/6
f 50/98/6 43/2/6 45/94/6
f 51/1/9 52/2/9 53/99/9
f 53/99/9 52/2/9 54/100/9
f 55/101/2 52/2/2 56/102/2
f 56/102/2 52/2/2 51/7/2
f 52/101/8 55/2/8 54/103/8
f 54/103/8 55/2/8 57/100/8
f 55/1/7 56/2/7 57/99/7
f 57/99/7 56/2/7 58/100/7
f 58/101/5 53/2/5 57/102/5
f 57/102/5 53/2/5 54/7/5
f 56/101/10 51/2/10 58/103/10
f 58/103/10 51/2/10 53/100/10
f 59/92/4 60/2/4 61/93/4
f 61/93/4 60/2/4 62/94/4
f 63/95/5 60/2/5 64/96/5
f 64/96/5 60/2/5 59/97/5
f 60/95/3 63/2/3 62/98/3
f 62/98/3 63/2/3 65/94/3
f 63/92/1 64/2/1 65/93/1
f 65/93/1 64/2/1 66/94/1
f 66/95/2 61/2/2 65/96/2
f 65/96/2 61/2/2 62/97/2
f 64/95/6 59/2/6 66/98/6
f 66/98/6 59/2/6 61/94/6
f 67/1/4 68/2/4 69/3/4
f 69/3/4 68/2/4 70/4/4
f 71/5/5 68/2/5 72/6/5
f 72/6/5 68/2/5 67/7/5
f 68/5/3 71/2/3 70/8/3
f 70/8/3 71/2/3 73/4/3
f 71/1/1 72/2/1 73/3/1
f 73/3/1 72/2/1 74/4/1
f 74/5/2 69/2/2 73/6/2
f 73/6/2 69/2/2 70/7/2
f 72/5/6 67/2/6 74/8/6
f 74/8/6 67/2/6 69/4/6
f 75/9/9 76/2/9 77/10/9
f 77/10/9 76/2/9 78/11/9
f 79/12/2 76/2/2 80/13/2
f 80/13/2 76/2/2 75/14/2
f 76/12/8 79/2/8 78/15/8
f 78/15/8 79/2/8 81/11/8
f 79/9/7 80/2/7 81/10/7
f 81/10/7 80/2/7 82/11/7
f 82/12/5 77/2/5 81/13/5
f 81/13/5 77/2/5 78/14/5
f 80/12/10 75/2/10 82/15/10
f 82/15/10 75/2/10 77/11/10
f 83/16/7 84/17/7 85/18/7
f 85/18/7 84/17/7 86/19/7
f 87/20/7 88/21/7 89/22/7
f 89/22/7 88/21/7 90/23/7
f 91/24/7 92/25/7 93/22/7
f 93/22/7 92/25/7 94/23/7
f 95/26/7 96/27/7 97/28/7
f 97/28/7 96/27/7 98/29/7
f 86/30/5 99/31/5 85/32/5
f 85/32/5 99/31/5 100/33/5
f 94/34/5 101/35/5 93/36/5
f 93/36/5 101/35/5 102/37/5
f 90/38/5 103/39/5 89/40/5
f 89/40/5 103/39/5 104/41/5
f 105/42/5 106/43/5 98/44/5
f 98/44/5 106/43/5 97/45/5
f 107/46/8 83/47/8 100/48/8
f 100/48/8 83/47/8 85/49/8
f 106/50/8 91/51/8 102/52/8
f 102/52/8 91/51/8 93/53/8
f 95/54/8 87/55/8 104/48/8
f 104/48/8 87/55/8 89/49/8
f 106/56/8 95/57/8 97/58/8
f 96/59/12 95/60/12 105/61/12
f 105/61/12 95/60/12 106/62/12
f 105/63/9 106/64/9 101/65/9
f 101/65/9 106/64/9 102/66/9
f 108/67/9 107/68/9 99/69/9
f 99/69/9 107/68/9 100/70/9
f 96/71/9 95/72/9 103/65/9
f 103/65/9 95/72/9 104/66/9
f 87/37/2 95/73/2 88/35/2
f 88/35/2 95/73/2 96/74/2
f 83/75/2 107/76/2 84/77/2
f 84/77/2 107/76/2 108/78/2
f 91/79/2 106/40/2 92/80/2
f 92/80/2 106/40/2 105/38/2
f 84/81/10 108/82/10 86/52/10
f 86/52/10 108/82/10 99/83/10
f 92/84/10 105/85/10 94/86/10
f 94/86/10 105/85/10 101/49/10
f 88/87/10 96/88/10 90/52/10
f 90/52/10 96/88/10 103/83/10
f 98/89/10 96/90/10 105/91/10
f 109/1/7 110/2/7 111/99/7
f 111/99/7 110/2/7 112/100/7
f 113/101/5 110/2/5 114/102/5
f 114/102/5 110/2/5 109/7/5
f 110/101/8 113/2/8 112/103/8
f 112/103/8 113/2/8 115/100/8
f 113/1/9 114/2/9 115/99/9
f 115/99/9 114/2/9 116/100/9
f 116/101/2 111/2/2 115/102/2
f 115/102/2 111/2/2 112/7/2
f 114/101/10 109/2/10 116/103/10
f 116/103/10 109/2/10 111/100/10
usemtl c_ff6e25
f 117/104/9 118/105/9 119/106/9
f 119/106/9 118/105/9 120/107/9
f 121/108/9 122/109/9 123/110/9
f 123/110/9 122/109/9 124/111/9
f 125/112/9 126/113/9 127/114/9
f 127/114/9 126/113/9 128/115/9
f 129/116/9 130/117/9 131/118/9
f 131/118/9 130/117/9 132/119/9
f 133/120/9 134/121/9 135/122/9
f 135/122/9 134/121/9 136/123/9
f 137/124/9 138/125/9 139/126/9
f 139/126/9 138/125/9 140/127/9
f 141/128/9 142/129/9 143/130/9
f 143/130/9 142/129/9 144/131/9
f 145/132/9 146/133/9 147/134/9
f 147/134/9 146/133/9 148/135/9
f 149/136/9 150/137/9 151/138/9
f 151/138/9 150/137/9 152/139/9
f 141/140/13 153/141/13 142/142/13
f 142/142/13 153/141/13 154/143/13
f 145/144/13 155/145/13 146/146/13
f 146/146/13 155/145/13 156/147/13
f 133/148/13 157/149/13 134/150/13
f 134/150/13 157/149/13 158/151/13
f 137/152/13 159/153/13 138/154/13
f 138/154/13 159/153/13 160/155/13
f 125/156/13 161/157/13 126/158/13
f 126/158/13 161/157/13 162/159/13
f 117/160/13 163/161/13 118/162/13
f 118/162/13 163/161/13 164/163/13
f 121/164/13 165/165/13 122/166/13
f 122/166/13 165/165/13 166/167/13
f 129/168/13 167/169/13 130/170/13
f 130/170/13 167/169/13 168/171/13
f 149/142/13 169/143/13 150/144/13
f 150/144/13 169/143/13 170/145/13
f 126/172/14 162/173/14 128/174/14
f 128/174/14 162/173/14 171/175/14
f 138/176/14 160/177/14 140/178/14
f 140/178/14 160/177/14 172/179/14
f 146/180/14 156/181/14 148/182/14
f 148/182/14 156/181/14 173/183/14
f 122/184/14 166/185/14 124/186/14
f 124/186/14 166/185/14 174/187/14
f 118/188/14 164/189/14 120/184/14
f 120/184/14 164/189/14 175/185/14
f 130/190/14 168/191/14 132/192/14
f 132/192/14 168/191/14 176/193/14
f 150/194/14 170/195/14 152/196/14
f 152/196/14 170/195/14 177/197/14
f 134/176/14 158/177/14 136/178/14
f 136/178/14 158/177/14 178/179/14
f 142/180/14 154/181/14 144/182/14
f 144/182/14 154/181/14 179/183/14
f 164/104/7 163/105/7 175/106/7
f 175/106/7 163/105/7 180/107/7
f 166/108/7 165/109/7 174/110/7
f 174/110/7 165/109/7 181/111/7
f 162/112/7 161/113/7 171/114/7
f 171/114/7 161/113/7 182/115/7
f 168/116/7 167/117/7 176/118/7
f 176/118/7 167/117/7 183/119/7
f 158/124/7 157/125/7 178/126/7
f 178/126/7 157/125/7 184/127/7
f 160/120/7 159/121/7 172/122/7
f 172/122/7 159/121/7 185/123/7
f 154/132/7 153/133/7 179/134/7
f 179/134/7 153/133/7 186/135/7
f 156/128/7 155/129/7 173/130/7
f 173/130/7 155/129/7 187/131/7
f 170/136/7 169/137/7 177/138/7
f 177/138/7 169/137/7 188/139/7
f 152/145/15 177/144/15 151/143/15
f 151/143/15 177/144/15 188/142/15
f 132/171/15 176/170/15 131/169/15
f 131/169/15 176/170/15 183/168/15
f 124/167/15 174/166/15 123/165/15
f 123/165/15 174/166/15 181/164/15
f 128/159/15 171/158/15 127/157/15
f 127/157/15 171/158/15 182/156/15
f 120/163/15 175/162/15 119/161/15
f 119/161/15 175/162/15 180/160/15
f 136/151/15 178/150/15 135/149/15
f 135/149/15 178/150/15 184/148/15
f 140/155/15 172/154/15 139/153/15
f 139/153/15 172/154/15 185/152/15
f 144/143/15 179/142/15 143/141/15
f 143/141/15 179/142/15 186/140/15
f 148/147/15 173/146/15 147/145/15
f 147/145/15 173/146/15 187/144/15
f 161/172/16 125/173/16 182/174/16
f 182/174/16 125/173/16 127/175/16
f 157/176/16 133/177/16 184/178/16
f 184/178/16 133/177/16 135/179/16
f 153/180/16 141/181/16 186/182/16
f 186/182/16 141/181/16 143/183/16
f 165/184/16 121/185/16 181/186/16
f 181/186/16 121/185/16 123/187/16
f 163/188/16 117/189/16 180/184/16
f 180/184/16 117/189/16 119/185/16
f 167/190/16 129/191/16 183/192/16
f 183/192/16 129/191/16 131/193/16
f 169/194/16 149/195/16 188/196/16
f 188/196/16 149/195/16 151/197/16
f 159/176/16 137/177/16 185/178/16
f 185/178/16 137/177/16 139/179/16
f 155/180/16 145/181/16 187/182/16
f 187/182/16 145/181/16 147/183/16
f 189/104/9 190/105/9 191/106/9
f 191/106/9 190/105/9 192/107/9
f 193/108/9 194/109/9 195/110/9
f 195/110/9 194/109/9 196/111/9
f 197/112/9 198/113/9 199/114/9
f 199/114/9 198/113/9 200/115/9
f 201/116/9 202/117/9 203/118/9
f 203/118/9 202/117/9 204/119/9
f 205/120/9 206/121/9 207/122/9
f 207/122/9 206/121/9 208/123/9
f 209/124/9 210/125/9 211/126/9
f 211/126/9 210/125/9 212/127/9
f 213/128/9 214/129/9 215/130/9
f 215/130/9 214/129/9 216/131/9
f 217/132/9 218/133/9 219/134/9
f 219/134/9 218/133/9 220/135/9
f 221/136/9 222/137/9 223/138/9
f 223/138/9 222/137/9 224/139/9
f 213/140/17 225/141/17 214/142/17
f 214/142/17 225/141/17 226/143/17
f 217/144/17 227/145/17 218/146/17
f 218/146/17 227/145/17 228/147/17
f 205/148/17 229/149/17 206/150/17
f 206/150/17 229/149/17 230/151/17
f 209/152/17 231/153/17 210/154/17
f 210/154/17 231/153/17 232/155/17
f 197/156/17 233/157/17 198/158/17
f 198/158/17 233/157/17 234/159/17
f 189/160/17 235/161/17 190/162/17
f 190/162/17 235/161/17 236/163/17
f 193/164/17 237/165/17 194/166/17
f 194/166/17 237/165/17 238/167/17
f 201/168/17 239/169/17 202/170/17
f 202/170/17 239/169/17 240/171/17
f 221/142/17 241/143/17 222/144/17
f 222/144/17 241/143/17 242/145/17
f 198/172/18 234/173/18 200/174/18
f 200/174/18 234/173/18 243/175/18
f 210/176/18 232/177/18 212/178/18
f 212/178/18 232/177/18 244/179/18
f 218/180/18 228/181/18 220/182/18
f 220/182/18 228/181/18 245/183/18
f 194/184/18 238/185/18 196/186/18
f 196/186/18 238/185/18 246/187/18
f 190/188/18 236/189/18 192/184/18
f 192/184/18 236/189/18 247/185/18
f 202/190/18 240/191/18 204/192/18
f 204/192/18 240/191/18 248/193/18
f 222/194/18 242/195/18 224/196/18
f 224/196/18 242/195/18 249/197/18
f 206/176/18 230/177/18 208/178/18
f 208/178/18 230/177/18 250/179/18
f 214/180/18 226/181/18 216/182/18
f 216/182/18 226/181/18 251/183/18
f 236/104/7 235/105/7 247/106/7
f 247/106/7 235/105/7 252/107/7
f 238/108/7 237/109/7 246/110/7
f 246/110/7 237/109/7 253/111/7
f 234/112/7 233/113/7 243/114/7
f 243/114/7 233/113/7 254/115/7
f 240/116/7 239/117/7 248/118/7
f 248/118/7 239/117/7 255/119/7
f 230/124/7 229/125/7 250/126/7
f 250/126/7 229/125/7 256/127/7
f 232/120/7 231/121/7 244/122/7
f 244/122/7 231/121/7 257/123/7
f 226/132/7 225/133/7 251/134/7
f 251/134/7 225/133/7 258/135/7
f 228/128/7 227/129/7 245/130/7
f 245/130/7 227/129/7 259/131/7
f 242/136/7 241/137/7 249/138/7
f 249/138/7 241/137/7 260/139/7
f 224/145/19 249/144/19 223/143/19
f 223/143/19 249/144/19 260/142/19
f 204/171/19 248/170/19 203/169/19
f 203/169/19 248/170/19 255/168/19
f 196/167/19 246/166/19 195/165/19
f 195/165/19 246/166/19 253/164/19
f 200/159/19 243/158/19 199/157/19
f 199/157/19 243/158/19 254/156/19
f 192/163/19 247/162/19 191/161/19
f 191/161/19 247/162/19 252/160/19
f 208/151/19 250/150/19 207/149/19
f 207/149/19 250/150/19 256/148/19
f 212/155/19 244/154/19 211/153/19
f 211/153/19 244/154/19 257/152/19
f 216/143/19 251/142/19 215/141/19
f 215/141/19 251/142/19 258/140/19
f 220/147/19 245/146/19 219/145/19
f 219/145/19 245/146/19 259/144/19
f 233/172/20 197/173/20 254/174/20
f 254/174/20 197/173/20 199/175/20
f 229/176/20 205/177/20 256/178/20
f 256/178/20 205/177/20 207/179/20
f 225/180/20 213/181/20 258/182/20
f 258/182/20 213/181/20 215/183/20
f 237/184/20 193/185/20 253/186/20
f 253/186/20 193/185/20 195/187/20
f 235/188/20 189/189/20 252/184/20
f 252/184/20 189/189/20 191/185/20
f 239/190/20 201/191/20 255/192/20
f 255/192/20 201/191/20 203/193/20
f 241/194/20 221/195/20 260/196/20
f 260/196/20 221/195/20 223/197/20
f 231/176/20 209/177/20 257/178/20
f 257/178/20 209/177/20 211/179/20
f 227/180/20 217/181/20 259/182/20
f 259/182/20 217/181/20 219/183/20
usemtl c_000000
f 261/198/21 262/199/21 263/200/21
f 263/200/21 262/199/21 264/201/21
f 265/202/22 266/203/22 267/204/22
f 268/205/22 266/203/22 265/202/22
f 269/206/22 270/207/22 271/208/22
f 271/208/22 270/207/22 272/209/22
f 273/210/23 261/211/23 274/212/23
f 262/213/23 261/211/23 273/210/23
f 275/214/24 268/215/24 265/216/24
f 276/217/24 268/215/24 275/214/24
f 277/218/24 269/219/24 278/220/24
f 278/220/24 269/219/24 271/221/24
f 266/222/25 276/223/25 279/224/25
f 268/225/25 276/223/25 266/222/25
f 269/226/25 277/227/25 270/228/25
f 270/228/25 277/227/25 280/229/25
f 262/230/26 273/231/26 264/232/26
f 264/232/26 273/231/26 281/233/26
f 280/234/27 277/235/27 282/236/27
f 282/236/27 277/235/27 278/237/27
f 283/238/27 276/239/27 275/240/27
f 279/241/27 276/239/27 283/238/27
f 281/242/28 274/243/28 284/244/28
f 273/245/28 274/243/28 281/242/28
f 270/246/29 280/247/29 272/248/29
f 272/248/29 280/247/29 282/249/29
f 266/250/29 279/251/29 267/252/29
f 267/252/29 279/251/29 283/253/29
f 264/254/30 284/255/30 263/256/30
f 281/257/30 284/255/30 264/254/30
f 274/258/31 261/259/31 284/260/31
f 284/260/31 261/259/31 263/261/31
f 271/262/32 282/263/32 278/264/32
f 272/265/32 282/263/32 271/262/32
f 265/266/32 283/267/32 275/268/32
f 267/269/32 283/267/32 265/266/32
f 285/270/33 286/271/33 287/272/33
f 288/273/33 286/271/33 285/270/33
f 289/274/33 290/275/33 291/276/33
f 291/276/33 290/275/33 292/277/33
f 293/278/34 294/279/34 295/280/34
f 295/280/34 294/279/34 296/281/34
f 293/282/35 297/283/35 294/284/35
f 298/285/35 297/283/35 293/282/35
f 299/286/36 289/287/36 300/288/36
f 300/288/36 289/287/36 291/289/36
f 301/290/36 288/291/36 285/292/36
f 302/293/36 288/291/36 301/290/36
f 286/294/37 302/295/37 303/296/37
f 288/297/37 302/295/37 286/294/37
f 290/298/37 299/299/37 304/300/37
f 289/301/37 299/299/37 290/298/37
f 294/302/38 297/303/38 296/304/38
f 296/304/38 297/303/38 305/305/38
f 305/306/39 298/307/39 306/308/39
f 297/309/39 298/307/39 305/306/39
f 304/310/40 299/311/40 307/312/40
f 307/312/40 299/311/40 300/313/40
f 308/314/40 302/315/40 301/316/40
f 303/317/40 302/315/40 308/314/40
f 287/318/41 303/319/41 308/320/41
f 286/321/41 303/319/41 287/318/41
f 292/322/41 304/323/41 307/324/41
f 290/325/41 304/323/41 292/322/41
f 295/326/42 296/327/42 306/328/42
f 306/328/42 296/327/42 305/329/42
f 306/330/43 293/331/43 295/332/43
f 298/333/43 293/331/43 306/330/43
f 292/334/44 307/335/44 291/336/44
f 291/336/44 307/335/44 300/337/44
f 287/338/44 308/339/44 285/340/44
f 285/340/44 308/339/44 301/341/44
usemtl c_3d1b44
f 309/342/45 310/343/45 311/344/45
f 310/343/45 312/345/45 311/344/45
f 313/346/45 314/347/45 315/348/45
f 315/348/45 314/347/45 316/349/45
f 317/350/45 318/351/45 319/352/45
f 320/353/45 318/351/45 317/350/45
f 321/354/45 322/355/45 323/356/45
f 324/357/45 322/355/45 321/354/45
f 325/358/46 326/359/46 327/360/46
f 325/358/46 327/360/46 328/361/46
f 329/362/46 330/363/46 331/364/46
f 330/363/46 329/362/46 332/365/46
f 333/366/46 334/367/46 335/368/46
f 336/369/46 334/367/46 333/366/46
f 337/370/46 338/371/46 339/372/46
f 340/373/46 338/371/46 337/370/46
f 341/374/47 337/375/47 342/376/47
f 341/374/47 340/377/47 337/375/47
f 343/378/48 309/379/48 311/380/48
f 344/381/48 343/378/48 311/380/48
f 345/382/49 346/383/49 333/384/49
f 346/383/49 336/385/49 333/384/49
f 315/386/50 347/387/50 313/388/50
f 348/389/50 347/387/50 315/386/50
f 332/390/51 329/391/51 349/392/51
f 349/392/51 329/391/51 350/393/51
f 351/394/52 320/395/52 317/396/52
f 352/397/52 351/394/52 317/396/52
f 353/398/53 328/399/53 327/400/53
f 353/398/53 327/400/53 354/401/53
f 321/402/54 355/403/54 324/404/54
f 321/402/54 356/405/54 355/403/54
f 330/406/55 332/407/55 357/408/55
f 357/408/55 332/407/55 349/409/55
f 351/410/56 358/411/56 320/412/56
f 358/411/56 318/413/56 320/412/56
f 346/414/57 359/415/57 336/416/57
f 359/415/57 334/417/57 336/416/57
f 347/418/58 360/419/58 313/420/58
f 360/419/58 314/421/58 313/420/58
f 361/422/59 340/423/59 341/424/59
f 338/425/59 340/423/59 361/422/59
f 362/426/60 310/427/60 309/428/60
f 362/426/60 309/428/60 343/429/60
f 363/430/7 328/431/7 353/432/7
f 328/431/7 363/430/7 325/433/7
f 364/434/7 324/435/7 355/436/7
f 322/437/7 324/435/7 364/434/7
f 365/438/61 361/439/61 341/440/61
f 365/438/61 341/440/61 342/441/61
f 345/442/61 366/443/61 346/444/61
f 366/443/61 359/445/61 346/444/61
f 367/446/61 357/447/61 349/448/61
f 367/446/61 349/448/61 350/449/61
f 354/450/61 368/451/61 353/452/61
f 368/451/61 363/453/61 353/452/61
f 369/454/62 364/455/62 355/456/62
f 356/457/62 369/454/62 355/456/62
f 352/458/62 370/459/62 351/460/62
f 370/459/62 358/461/62 351/460/62
f 348/462/62 371/463/62 347/464/62
f 371/463/62 360/465/62 347/464/62
f 344/466/62 372/467/62 343/468/62
f 372/467/62 362/469/62 343/468/62
f 325/470/63 363/471/63 368/472/63
f 326/473/63 325/470/63 368/472/63
f 322/474/64 369/475/64 323/476/64
f 364/477/64 369/475/64 322/474/64
f 331/478/65 330/479/65 367/480/65
f 330/479/65 357/481/65 367/480/65
f 318/482/66 370/483/66 319/484/66
f 318/482/66 358/485/66 370/483/66
f 334/486/67 366/487/67 335/488/67
f 366/487/67 334/486/67 359/489/67
f 360/490/68 371/491/68 314/492/68
f 314/492/68 371/491/68 316/493/68
f 365/494/69 338/495/69 361/496/69
f 338/495/69 365/494/69 339/497/69
f 310/498/70 372/499/70 312/500/70
f 362/501/70 372/499/70 310/498/70
f 327/502/9 326/434/9 354/503/9
f 354/503/9 326/434/9 368/504/9
f 369/505/9 356/506/9 323/507/9
f 321/508/9 323/507/9 356/506/9
f 342/509/71 339/510/71 365/511/71
f 337/512/71 339/510/71 342/509/71
f 312/513/72 372/514/72 344/515/72
f 311/516/72 312/513/72 344/515/72
f 335/517/73 366/518/73 345/519/73
f 333/520/73 335/517/73 345/519/73
f 316/521/74 371/522/74 348/523/74
f 315/524/74 316/521/74 348/523/74
f 329/525/75 331/526/75 350/527/75
f 350/527/75 331/526/75 367/528/75
f 352/529/76 317/530/76 319/531/76
f 370/532/76 352/529/76 319/531/76
usemtl c_c58c65
f 373/533/33 374/534/33 375/535/33
f 376/536/33 373/533/33 375/535/33
f 377/537/33 378/538/33 379/539/33
f 380/540/33 378/538/33 377/537/33
f 381/541/77 382/542/77 383/543/77
f 382/542/77 384/544/77 383/543/77
f 385/545/77 386/546/77 387/547/77
f 387/547/77 386/546/77 388/548/77
f 389/549/77 388/548/77 390/550/77
f 390/550/77 383/543/77 389/549/77
f 390/550/77 391/551/77 383/543/77
f 392/552/77 393/553/77 381/541/77
f 391/551/77 392/552/77 381/541/77
f 381/541/77 383/543/77 391/551/77
f 394/554/34 395/555/34 396/556/34
f 396/556/34 397/557/34 394/554/34
f 398/558/34 399/559/34 387/547/34
f 387/547/34 388/548/34 398/558/34
f 398/558/34 400/560/34 399/559/34
f 399/559/34 400/560/34 401/561/34
f 400/560/34 398/558/34 402/562/34
f 403/563/35 402/564/35 398/565/35
f 403/563/35 398/565/35 404/566/35
f 405/567/36 406/568/36 407/569/36
f 408/570/36 409/571/36 405/567/36
f 399/572/36 385/573/36 387/574/36
f 405/567/36 409/571/36 406/568/36
f 408/570/36 410/575/36 409/571/36
f 411/576/36 389/577/36 383/578/36
f 377/579/36 390/580/36 388/581/36
f 386/582/36 380/583/36 388/581/36
f 400/584/36 386/582/36 401/585/36
f 400/584/36 380/583/36 386/582/36
f 388/581/36 380/583/36 377/579/36
f 412/586/36 400/584/36 413/587/36
f 412/586/36 380/583/36 400/584/36
f 381/588/36 376/589/36 375/590/36
f 414/591/36 376/589/36 393/592/36
f 376/589/36 381/588/36 393/592/36
f 393/592/36 415/593/36 414/591/36
f 414/594/37 373/595/37 376/596/37
f 373/595/37 414/594/37 416/597/37
f 378/598/37 412/599/37 417/600/37
f 412/599/37 378/598/37 380/601/37
f 396/602/38 403/603/38 410/604/38
f 418/605/38 396/602/38 410/604/38
f 410/604/38 403/603/38 409/606/38
f 396/602/38 395/607/38 403/603/38
f 395/607/38 413/608/38 403/603/38
f 413/608/38 400/609/38 403/603/38
f 400/609/38 402/610/38 403/603/38
f 419/611/38 420/612/38 421/613/38
f 415/614/78 393/615/78 422/616/78
f 392/617/78 422/616/78 393/615/78
f 423/618/78 415/614/78 424/619/78
f 415/614/78 422/616/78 424/619/78
f 424/619/78 422/616/78 408/620/78
f 408/620/78 422/616/78 410/604/78
f 422/616/78 418/605/78 410/604/78
f 422/616/78 397/621/78 418/605/78
f 422/616/78 394/622/78 397/621/78
f 401/623/78 386/624/78 385/625/78
f 401/623/78 385/625/78 399/626/78
f 406/627/39 409/628/39 404/629/39
f 409/628/39 403/630/39 404/629/39
f 425/631/39 406/627/39 404/629/39
f 426/632/39 419/633/39 421/634/39
f 424/635/79 421/634/79 420/633/79
f 421/634/79 424/635/79 408/636/79
f 421/634/79 408/636/79 405/637/79
f 427/638/79 424/635/79 405/637/79
f 426/632/79 421/634/79 405/637/79
f 405/637/79 424/635/79 420/633/79
f 405/637/79 420/633/79 426/632/79
f 414/639/40 415/640/40 416/641/40
f 423/642/40 416/641/40 415/640/40
f 395/643/40 417/644/40 412/645/40
f 394/646/40 417/644/40 395/643/40
f 422/647/40 417/644/40 394/646/40
f 395/643/40 412/645/40 413/648/40
f 382/649/41 427/650/41 384/651/41
f 427/650/41 428/652/41 424/653/41
f 428/652/41 427/650/41 382/649/41
f 374/654/41 428/652/41 382/649/41
f 374/654/41 373/655/41 428/652/41
f 428/652/41 416/656/41 423/657/41
f 373/655/41 416/656/41 428/652/41
f 422/658/41 392/659/41 417/660/41
f 392/659/41 378/661/41 417/660/41
f 378/661/41 392/659/41 391/662/41
f 378/661/41 391/662/41 379/663/41
f 425/664/42 407/665/42 406/666/42
f 425/664/42 429/667/42 407/665/42
f 418/668/42 397/669/42 396/670/42
f 419/671/42 426/672/42 420/673/42
f 424/674/78 428/675/78 423/676/78
f 384/677/80 427/678/80 405/679/80
f 384/677/80 405/679/80 407/680/80
f 429/681/80 384/677/80 407/680/80
f 383/682/80 384/677/80 429/681/80
f 429/681/80 411/683/80 383/682/80
f 411/683/43 429/681/43 425/684/43
f 398/685/43 411/683/43 425/684/43
f 404/686/43 398/685/43 425/684/43
f 389/687/43 411/683/43 398/685/43
f 398/685/43 388/688/43 389/687/43
f 379/689/44 391/690/44 390/691/44
f 377/692/44 379/689/44 390/691/44
f 375/693/44 382/694/44 381/695/44
f 382/694/44 375/693/44 374/696/44
f 430/697/21 431/698/21 432/699/21
f 431/698/21 430/697/21 433/700/21
f 430/697/21 434/701/21 433/700/21
f 435/702/21 436/703/21 437/704/21
f 438/705/81 439/704/81 436/703/81
f 440/706/81 441/707/81 438/705/81
f 438/705/81 441/707/81 439/704/81
f 435/702/81 439/704/81 441/707/81
f 442/708/81 438/705/81 435/702/81
f 435/702/81 441/707/81 442/708/81
f 436/703/81 435/702/81 438/705/81
f 443/709/22 444/710/22 445/711/22
f 443/709/22 446/712/22 444/710/22
f 447/713/22 448/714/22 449/715/22
f 450/716/22 447/713/22 449/715/22
f 450/716/22 451/717/22 447/713/22
f 450/716/22 452/718/22 451/717/22
f 453/719/23 432/720/23 454/721/23
f 453/719/23 430/722/23 432/720/23
f 455/723/24 456/724/24 457/725/24
f 458/726/24 459/727/24 460/728/24
f 434/729/24 461/730/24 438/731/24
f 433/732/24 434/729/24 442/733/24
f 433/732/24 442/733/24 462/734/24
f 438/731/24 442/733/24 434/729/24
f 449/735/24 463/736/24 464/737/24
f 449/735/24 448/738/24 463/736/24
f 465/739/24 466/740/24 467/741/24
f 464/737/24 463/736/24 468/742/24
f 469/743/24 449/735/24 464/737/24
f 469/743/24 464/737/24 466/740/24
f 465/739/24 469/743/24 466/740/24
f 470/744/24 444/745/24 471/746/24
f 444/745/24 446/747/24 471/746/24
f 472/748/24 470/744/24 471/746/24
f 473/749/24 472/748/24 471/746/24
f 445/750/25 444/751/25 470/752/25
f 474/753/25 445/750/25 470/752/25
f 450/754/25 449/755/25 469/756/25
f 475/757/25 450/754/25 469/756/25
f 434/758/26 430/759/26 461/760/26
f 453/761/26 461/760/26 430/759/26
f 448/762/26 461/760/26 453/761/26
f 463/763/26 448/762/26 453/761/26
f 448/762/26 447/764/26 461/760/26
f 476/765/26 461/760/26 447/764/26
f 477/766/26 476/765/26 447/764/26
f 436/767/26 439/768/26 437/769/26
f 478/770/82 451/771/82 452/772/82
f 446/773/82 438/774/82 452/772/82
f 446/773/82 443/775/82 438/774/82
f 443/775/82 440/776/82 438/774/82
f 438/774/82 461/760/82 452/772/82
f 452/772/82 461/760/82 476/765/82
f 476/765/82 478/770/82 452/772/82
f 446/773/82 452/772/82 479/777/82
f 479/777/82 471/778/82 446/773/82
f 464/779/82 468/780/82 459/781/82
f 464/779/82 459/781/82 458/782/82
f 480/783/27 474/784/27 470/785/27
f 470/785/27 472/786/27 480/783/27
f 481/787/27 469/788/27 465/789/27
f 469/788/27 481/787/27 475/790/27
f 482/791/83 457/792/83 473/793/83
f 466/794/83 464/795/83 460/796/83
f 464/795/83 458/797/83 460/796/83
f 466/794/83 455/798/83 467/799/83
f 467/799/83 455/798/83 457/792/83
f 479/800/83 482/791/83 471/801/83
f 473/793/83 471/801/83 482/791/83
f 457/792/83 482/791/83 467/799/83
f 457/792/83 483/802/83 473/793/83
f 484/803/83 473/793/83 483/802/83
f 453/804/28 468/805/28 463/806/28
f 468/805/28 453/804/28 459/807/28
f 459/807/28 453/804/28 454/808/28
f 460/796/28 459/807/28 454/808/28
f 460/796/28 454/808/28 466/794/28
f 451/809/28 478/810/28 477/811/28
f 447/812/28 451/809/28 477/811/28
f 441/813/29 440/814/29 483/815/29
f 443/816/29 483/815/29 440/814/29
f 443/816/29 485/817/29 484/818/29
f 474/819/29 484/818/29 485/817/29
f 445/820/29 474/819/29 485/817/29
f 443/816/29 445/820/29 485/817/29
f 484/818/29 474/819/29 480/821/29
f 483/815/29 443/816/29 484/818/29
f 482/822/29 479/823/29 481/824/29
f 452/825/29 450/826/29 479/823/29
f 479/823/29 450/826/29 475/827/29
f 481/824/29 479/823/29 475/827/29
f 478/828/30 476/829/30 477/830/30
f 439/831/30 435/832/30 437/833/30
f 431/834/30 433/835/30 462/836/30
f 431/834/30 462/836/30 486/837/30
f 462/838/84 441/839/84 486/840/84
f 442/841/84 441/839/84 462/838/84
f 486/840/84 441/839/84 457/842/84
f 457/842/84 441/839/84 483/843/84
f 456/844/84 486/840/84 457/842/84
f 431/845/31 486/840/31 456/844/31
f 456/844/31 455/846/31 431/845/31
f 432/847/31 431/845/31 455/846/31
f 454/848/31 432/847/31 455/846/31
f 466/849/31 454/848/31 455/846/31
f 467/850/32 482/851/32 465/852/32
f 480/853/32 472/854/32 473/855/32
f 484/843/32 480/853/32 473/855/32
f 465/852/32 482/851/32 481/856/32
usemtl c_b88fff_neon
f 487/857/5 488/858/5 489/859/5
f 488/858/5 487/857/5 490/860/5
f 490/861/8 491/862/8 492/863/8
f 490/861/8 492/863/8 488/864/8
f 489/857/7 492/858/7 493/859/7
f 492/858/7 489/857/7 488/860/7
f 493/857/2 491/858/2 494/859/2
f 491/858/2 493/857/2 492/860/2
f 489/863/10 493/864/10 487/862/10
f 493/864/10 494/861/10 487/862/10
f 494/857/9 490/858/9 487/859/9
f 490/858/9 494/857/9 491/860/9
usemtl c_8b57b8
f 495/865/5 496/866/5 497/867/5
f 497/867/5 496/866/5 498/868/5
f 499/865/8 496/866/8 500/869/8
f 500/869/8 496/866/8 495/870/8
f 496/865/7 499/866/7 498/867/7
f 498/867/7 499/866/7 501/868/7
f 499/865/2 500/866/2 501/867/2
f 501/867/2 500/866/2 502/868/2
f 502/865/10 497/866/10 501/869/10
f 501/869/10 497/866/10 498/870/10
f 500/865/9 495/866/9 502/867/9
f 502/867/9 495/866/9 497/868/9
o E2U
usemtl c_ff6e25
f 503/871/5 504/872/5 505/873/5
f 506/874/5 504/872/5 503/871/5
f 507/875/5 508/874/5 509/876/5
f 508/874/5 507/875/5 510/872/5
f 511/877/5 512/878/5 513/879/5
f 514/880/5 512/878/5 511/877/5
f 515/878/5 516/880/5 517/881/5
f 515/878/5 517/881/5 518/882/5
f 519/883/8 511/884/8 520/885/8
f 520/885/8 511/884/8 513/886/8
f 521/883/8 522/887/8 523/888/8
f 521/883/8 524/885/8 522/887/8
f 525/889/8 503/890/8 505/891/8
f 526/892/8 503/890/8 525/889/8
f 527/893/8 528/892/8 529/889/8
f 529/889/8 530/894/8 527/893/8
f 509/895/7 508/896/7 528/897/7
f 527/898/7 509/895/7 528/897/7
f 531/899/7 509/895/7 527/898/7
f 526/900/7 528/897/7 508/896/7
f 508/896/7 506/901/7 526/900/7
f 503/902/7 526/900/7 506/901/7
f 516/903/7 514/904/7 519/905/7
f 511/906/7 519/905/7 514/904/7
f 521/907/7 516/903/7 519/905/7
f 521/907/7 532/908/7 516/903/7
f 521/907/7 523/909/7 532/908/7
f 532/908/7 523/909/7 533/910/7
f 532/908/7 533/910/7 516/903/7
f 533/910/7 517/911/7 516/903/7
f 522/912/2 533/913/2 523/914/2
f 534/915/2 533/913/2 522/912/2
f 521/914/2 519/916/2 520/917/2
f 521/914/2 520/917/2 524/912/2
f 527/918/2 530/919/2 531/920/2
f 535/921/2 531/920/2 530/919/2
f 526/922/2 525/923/2 528/918/2
f 528/918/2 525/923/2 529/924/2
f 507/925/10 509/926/10 531/927/10
f 535/928/10 507/925/10 531/927/10
f 510/929/10 504/930/10 508/926/10
f 504/930/10 506/931/10 508/926/10
f 518/932/10 533/933/10 534/934/10
f 518/932/10 517/935/10 533/933/10
f 514/936/10 516/935/10 515/932/10
f 512/937/10 514/936/10 515/932/10
f 510/938/9 507/939/9 535/940/9
f 529/941/9 510/938/9 535/940/9
f 529/941/9 535/940/9 530/942/9
f 510/938/9 529/941/9 505/943/9
f 505/943/9 529/941/9 525/944/9
f 510/938/9 505/943/9 504/945/9
f 536/946/9 524/947/9 520/948/9
f 536/946/9 520/948/9 513/949/9
f 536/946/9 513/949/9 512/950/9
f 512/950/9 515/951/9 536/946/9
f 536/946/9 534/952/9 524/947/9
f 534/952/9 536/946/9 515/951/9
f 524/947/9 534/952/9 522/953/9
f 534/952/9 515/951/9 518/954/9
f 537/955/5 538/956/5 539/912/5
f 539/912/5 538/956/5 540/957/5
f 541/958/5 542/917/5 543/912/5
f 541/958/5 544/959/5 542/917/5
f 545/876/5 546/875/5 547/874/5
f 547/874/5 546/875/5 548/960/5
f 549/871/5 550/960/5 551/961/5
f 550/960/5 549/871/5 552/962/5
f 553/963/5 552/962/5 549/871/5
f 554/964/8 542/965/8 555/966/8
f 555/966/8 542/965/8 544/967/8
f 543/965/8 539/968/8 541/969/8
f 539/968/8 540/970/8 541/969/8
f 556/971/8 549/972/8 551/973/8
f 557/974/8 549/972/8 556/971/8
f 558/975/8 547/976/8 559/977/8
f 560/978/8 558/975/8 559/977/8
f 561/979/8 559/977/8 547/976/8
f 561/979/8 547/976/8 552/980/8
f 547/976/8 548/981/8 552/980/8
f 548/981/8 550/973/8 552/980/8
f 549/982/7 557/983/7 553/984/7
f 562/985/7 553/984/7 557/983/7
f 547/986/7 558/987/7 545/988/7
f 563/989/7 545/988/7 558/987/7
f 542/990/7 554/991/7 543/992/7
f 564/993/7 554/991/7 565/994/7
f 564/993/7 566/995/7 554/991/7
f 554/991/7 566/995/7 543/992/7
f 566/995/7 564/993/7 567/996/7
f 566/995/7 567/996/7 537/997/7
f 537/997/7 543/992/7 566/995/7
f 543/992/7 537/997/7 539/998/7
f 557/922/2 556/999/2 562/918/2
f 568/1000/2 562/918/2 556/999/2
f 560/1001/2 563/920/2 558/1002/2
f 560/1001/2 569/1000/2 563/920/2
f 570/921/2 563/920/2 569/1000/2
f 554/879/2 555/1003/2 565/1004/2
f 571/1005/2 565/1004/2 555/1003/2
f 564/1004/2 572/1005/2 573/1006/2
f 564/1004/2 573/1006/2 567/1007/2
f 546/1008/10 545/1009/10 563/1010/10
f 570/1011/10 546/1008/10 563/1010/10
f 562/1012/10 568/1013/10 560/1014/10
f 568/1013/10 569/1011/10 560/1014/10
f 562/1012/10 560/1014/10 559/1015/10
f 561/1016/10 562/1012/10 559/1015/10
f 562/1012/10 561/1016/10 553/1017/10
f 552/1018/10 553/1017/10 561/1016/10
f 538/1019/10 537/1020/10 567/1021/10
f 538/1019/10 567/1021/10 573/1022/10
f 571/1023/10 572/1024/10 564/1021/10
f 564/1021/10 565/1025/10 571/1023/10
f 569/1026/9 568/1027/9 551/1028/9
f 556/1029/9 551/1028/9 568/1027/9
f 550/1030/9 569/1026/9 551/1028/9
f 570/1031/9 569/1026/9 550/1030/9
f 550/1030/9 548/1032/9 570/1031/9
f 548/1032/9 546/1033/9 570/1031/9
f 555/1034/9 544/1035/9 574/1036/9
f 571/1037/9 555/1034/9 574/1036/9
f 574/1036/9 544/1035/9 541/1038/9
f 572/1039/9 571/1037/9 574/1036/9
f 572/1039/9 574/1036/9 541/1038/9
f 572/1039/9 541/1038/9 573/1040/9
f 541/1038/9 540/1041/9 573/1040/9
f 538/1042/9 573/1040/9 540/1041/9
usemtl c_000000
f 575/1043/5 576/1044/5 577/1045/5
f 576/1044/5 575/1043/5 578/1046/5
f 579/1047/5 580/1045/5 581/1048/5
f 582/1049/5 579/1047/5 581/1048/5
f 583/1050/5 584/1051/5 585/1043/5
f 583/1050/5 586/1052/5 584/1051/5
f 587/1053/5 588/1050/5 589/1054/5
f 590/1047/5 589/1054/5 588/1050/5
f 591/1055/8 576/1056/8 578/1057/8
f 592/1058/8 576/1056/8 591/1055/8
f 593/1058/8 594/1055/8 595/1059/8
f 593/1058/8 595/1059/8 582/1060/8
f 593/1058/8 582/1060/8 581/1061/8
f 594/1055/8 596/1062/8 595/1059/8
f 594/1055/8 586/1063/8 596/1062/8
f 594/1055/8 584/1064/8 586/1063/8
f 597/1065/8 598/1066/8 599/1059/8
f 597/1065/8 599/1059/8 600/1062/8
f 590/1067/7 579/1068/7 595/1069/7
f 582/1070/7 595/1069/7 579/1068/7
f 599/1071/7 590/1067/7 595/1069/7
f 599/1071/7 601/1072/7 590/1067/7
f 589/1073/7 590/1067/7 601/1072/7
f 601/1072/7 599/1071/7 598/1074/7
f 598/1074/7 589/1073/7 601/1072/7
f 589/1073/7 598/1074/7 602/1075/7
f 592/1076/7 593/1077/7 581/1070/7
f 577/1078/7 592/1076/7 581/1070/7
f 576/1079/7 592/1076/7 577/1078/7
f 581/1070/7 580/1068/7 577/1078/7
f 598/1080/2 597/1081/2 602/1082/2
f 603/1083/2 602/1082/2 597/1081/2
f 599/1080/2 595/1084/2 596/1085/2
f 596/1085/2 600/1081/2 599/1080/2
f 594/1086/2 593/1087/2 592/1088/2
f 594/1086/2 592/1088/2 591/1089/2
f 587/1090/10 602/1091/10 603/1092/10
f 587/1090/10 589/1093/10 602/1091/10
f 585/1064/10 588/1090/10 583/1063/10
f 585/1064/10 604/1094/10 588/1090/10
f 604/1094/10 590/1093/10 588/1090/10
f 604/1094/10 579/1060/10 590/1093/10
f 575/1095/10 604/1094/10 585/1064/10
f 604/1094/10 580/1061/10 579/1060/10
f 580/1061/10 604/1094/10 575/1095/10
f 580/1061/10 575/1095/10 577/1096/10
f 588/1097/9 605/1098/9 583/1099/9
f 605/1098/9 586/1100/9 583/1099/9
f 603/1101/9 605/1098/9 588/1097/9
f 588/1097/9 587/1102/9 603/1101/9
f 605/1098/9 600/1103/9 586/1100/9
f 605/1098/9 603/1101/9 600/1103/9
f 586/1100/9 600/1103/9 596/1104/9
f 600/1103/9 603/1101/9 597/1105/9
f 578/1106/9 585/1099/9 584/1100/9
f 585/1099/9 578/1106/9 575/1107/9
f 578/1106/9 584/1100/9 591/1108/9
f 584/1100/9 594/1109/9 591/1108/9
f 606/1110/5 607/1082/5 608/1080/5
f 607/1082/5 606/1110/5 609/1111/5
f 610/1085/5 611/1110/5 612/1112/5
f 613/1080/5 612/1112/5 611/1110/5
f 614/1113/5 615/1114/5 616/1115/5
f 614/1113/5 616/1115/5 617/1116/5
f 618/1117/8 616/1118/8 615/1119/8
f 619/1120/8 616/1118/8 618/1117/8
f 617/1121/8 620/1122/8 610/1123/8
f 617/1121/8 621/1124/8 620/1122/8
f 614/1119/8 617/1121/8 610/1123/8
f 614/1119/8 610/1123/8 612/1125/8
f 614/1119/8 612/1125/8 622/1126/8
f 623/1127/8 614/1119/8 622/1126/8
f 608/1128/8 613/1125/8 611/1123/8
f 606/1129/8 608/1128/8 611/1123/8
f 624/1130/7 625/1131/7 620/1132/7
f 624/1130/7 620/1132/7 626/1133/7
f 620/1132/7 625/1131/7 611/1134/7
f 610/1135/7 620/1132/7 611/1134/7
f 606/1136/7 611/1134/7 625/1131/7
f 609/1137/7 606/1136/7 625/1131/7
f 625/1131/7 624/1130/7 609/1137/7
f 609/1137/7 624/1130/7 627/1138/7
f 621/1132/7 619/1139/7 628/1140/7
f 628/1140/7 629/1133/7 621/1132/7
f 616/1141/7 619/1139/7 621/1132/7
f 617/1142/7 616/1141/7 621/1132/7
f 630/1143/2 628/1144/2 618/1145/2
f 619/1146/2 618/1145/2 628/1144/2
f 626/1050/2 621/1147/2 629/1144/2
f 626/1050/2 620/1052/2 621/1147/2
f 631/1143/2 622/1148/2 632/1149/2
f 623/1150/2 622/1148/2 631/1143/2
f 633/1149/2 627/1151/2 624/1050/2
f 627/1151/2 633/1149/2 634/1054/2
f 607/1152/10 627/1153/10 634/1154/10
f 627/1153/10 607/1152/10 609/1155/10
f 630/1156/10 631/1157/10 629/1158/10
f 629/1158/10 628/1159/10 630/1156/10
f 633/1154/10 629/1158/10 631/1157/10
f 633/1154/10 631/1157/10 632/1160/10
f 626/1161/10 633/1154/10 624/1153/10
f 633/1154/10 626/1161/10 629/1158/10
f 635/1162/9 633/1163/9 632/1164/9
f 632/1164/9 612/1165/9 635/1162/9
f 622/1166/9 612/1165/9 632/1164/9
f 612/1165/9 613/1167/9 635/1162/9
f 633/1163/9 635/1162/9 613/1167/9
f 608/1168/9 633/1163/9 613/1167/9
f 633/1163/9 608/1168/9 634/1169/9
f 634/1169/9 608/1168/9 607/1170/9
f 618/1171/9 615/1172/9 630/1173/9
f 630/1173/9 615/1172/9 623/1166/9
f 615/1172/9 614/1174/9 623/1166/9
f 631/1164/9 630/1173/9 623/1166/9
usemtl c_ffaf54
f 636/1175/5 637/1176/5 638/1177/5
f 636/1175/5 639/1178/5 637/1176/5
f 639/1178/5 636/1175/5 640/1179/5
f 640/1179/5 641/1180/5 639/1178/5
f 642/1181/5 639/1178/5 641/1180/5
f 643/1182/8 642/1183/8 644/1184/8
f 642/1183/8 641/1185/8 644/1184/8
f 645/1182/8 646/1184/8 647/1186/8
f 646/1184/8 648/1187/8 647/1186/8
f 637/1188/7 649/1189/7 638/1190/7
f 650/1191/7 638/1190/7 649/1189/7
f 649/1189/7 647/1192/7 650/1191/7
f 649/1189/7 645/1193/7 647/1192/7
f 649/1189/7 637/1188/7 645/1193/7
f 645/1193/7 637/1188/7 643/1194/7
f 643/1194/7 637/1188/7 639/1195/7
f 642/1196/7 643/1194/7 639/1195/7
f 648/1197/2 650/1175/2 647/1198/2
f 651/1177/2 650/1175/2 648/1197/2
f 646/1197/2 645/1198/2 643/1180/2
f 643/1180/2 644/1181/2 646/1197/2
f 636/1187/10 638/1186/10 650/1183/10
f 651/1185/10 636/1187/10 650/1183/10
f 636/1191/9 651/1190/9 640/1199/9
f 646/1200/9 640/1199/9 651/1190/9
f 646/1200/9 651/1190/9 648/1201/9
f 646/1200/9 644/1202/9 640/1199/9
f 641/1203/9 640/1199/9 644/1202/9
f 652/1204/5 653/1205/5 654/1206/5
f 653/1205/5 652/1204/5 655/1207/5
f 656/1207/5 657/1208/5 658/1205/5
f 659/1209/5 657/1208/5 656/1207/5
f 660/1210/8 657/1211/8 661/1212/8
f 657/1211/8 659/1213/8 661/1212/8
f 658/1211/8 653/1214/8 656/1213/8
f 653/1214/8 655/1215/8 656/1213/8
f 657/1216/7 660/1217/7 658/1218/7
f 662/1219/7 658/1218/7 660/1217/7
f 658/1218/7 662/1219/7 663/1220/7
f 658/1218/7 663/1220/7 654/1221/7
f 658/1218/7 654/1221/7 653/1222/7
f 664/1223/2 662/1224/2 665/1225/2
f 665/1225/2 662/1224/2 661/1226/2
f 661/1226/2 662/1224/2 660/1227/2
f 662/1224/2 664/1223/2 666/1228/2
f 662/1224/2 666/1228/2 663/1229/2
f 652/1230/10 654/1231/10 663/1232/10
f 666/1233/10 652/1230/10 663/1232/10
f 665/1234/9 659/1235/9 656/1236/9
f 661/1237/9 659/1235/9 665/1234/9
f 664/1238/9 665/1234/9 656/1236/9
f 664/1238/9 656/1236/9 666/1239/9
f 656/1236/9 655/1240/9 666/1239/9
f 652/1241/9 666/1239/9 655/1240/9
usemtl c_ab66ce_shiny
f 667/1242/5 668/1243/5 669/1244/5
f 669/1244/5 668/1243/5 670/1245/5
f 671/1242/8 668/1243/8 672/1246/8
f 672/1246/8 668/1243/8 667/1247/8
f 668/1242/7 671/1243/7 670/1244/7
f 670/1244/7 671/1243/7 673/1245/7
f 671/1242/2 672/1243/2 673/1244/2
f 673/1244/2 672/1243/2 674/1245/2
f 674/1242/10 669/1243/10 673/1246/10
f 673/1246/10 669/1243/10 670/1247/10
f 672/1242/9 667/1243/9 674/1244/9
f 674/1244/9 667/1243/9 669/1245/9
usemtl c_947bdd_neon
f 675/1248/5 676/1249/5 677/1250/5
f 676/1249/5 675/1248/5 678/1251/5
f 678/1252/8 679/1253/8 680/1254/8
f 678/1252/8 680/1254/8 676/1255/8
f 677/1256/7 680/1257/7 681/1258/7
f 680/1257/7 677/1256/7 676/1259/7
f 681/1248/2 679/1249/2 682/1250/2
f 679/1249/2 681/1248/2 680/1251/2
f 677/1254/10 681/1255/10 675/1253/10
f 681/1255/10 682/1252/10 675/1253/10
f 682/1256/9 678/1257/9 675/1258/9
f 678/1257/9 682/1256/9 679/1259/9
o E1U
usemtl c_733380
f 683/1260/5 684/1261/5 685/1262/5
f 685/1262/5 684/1261/5 686/1263/5
f 687/1262/5 688/1264/5 689/1263/5
f 690/1265/5 688/1264/5 687/1262/5
f 691/1260/5 692/1261/5 693/1262/5
f 693/1262/5 692/1261/5 694/1263/5
f 695/1266/8 688/1267/8 690/1268/8
f 696/1269/8 688/1267/8 695/1266/8
f 697/1270/8 692/1271/8 691/1272/8
f 698/1273/8 692/1271/8 697/1270/8
f 699/1274/8 684/1275/8 700/1276/8
f 700/1276/8 684/1275/8 683/1277/8
f 692/1278/7 698/1279/7 694/1280/7
f 694/1280/7 698/1279/7 701/1281/7
f 688/1282/7 696/1283/7 689/1284/7
f 689/1284/7 696/1283/7 702/1285/7
f 684/1286/7 699/1287/7 686/1288/7
f 686/1288/7 699/1287/7 703/1289/7
f 698/1290/2 697/1291/2 701/1292/2
f 701/1292/2 697/1291/2 704/1293/2
f 702/1292/2 695/1294/2 705/1293/2
f 696/1295/2 695/1294/2 702/1292/2
f 699/1290/2 700/1291/2 703/1292/2
f 703/1292/2 700/1291/2 706/1293/2
f 701/1296/10 693/1297/10 694/1298/10
f 704/1277/10 693/1297/10 701/1296/10
f 702/1299/10 687/1300/10 689/1301/10
f 705/1302/10 687/1300/10 702/1299/10
f 706/1303/10 685/1270/10 703/1304/10
f 703/1304/10 685/1270/10 686/1305/10
f 697/1306/9 691/1307/9 704/1308/9
f 704/1308/9 691/1307/9 693/1309/9
f 705/1310/9 690/1311/9 687/1312/9
f 695/1313/9 690/1311/9 705/1310/9
f 706/1314/9 683/1315/9 685/1316/9
f 700/1317/9 683/1315/9 706/1314/9
usemtl c_bf75cc_shiny
f 707/1318/5 708/1319/5 709/1320/5
f 709/1320/5 708/1319/5 710/1321/5
f 711/1318/8 708/1319/8 712/1322/8
f 712/1322/8 708/1319/8 707/1323/8
f 708/1318/7 711/1319/7 710/1320/7
f 710/1320/7 711/1319/7 713/1321/7
f 711/1318/2 712/1319/2 713/1320/2
f 713/1320/2 712/1319/2 714/1321/2
f 714/1318/10 709/1319/10 713/1322/10
f 713/1322/10 709/1319/10 710/1323/10
f 712/1318/9 707/1319/9 714/1320/9
f 714/1320/9 707/1319/9 709/1321/9
usemtl c_bf75cc_neon
f 715/1324/5 716/1325/5 717/1326/5
f 716/1325/5 715/1324/5 718/1327/5
f 718/1328/8 719/1329/8 720/1330/8
f 718/1328/8 720/1330/8 716/1331/8
f 717/1332/7 720/1333/7 721/1334/7
f 720/1333/7 717/1332/7 716/1335/7
f 721/1324/2 719/1325/2 722/1326/2
f 719/1325/2 721/1324/2 720/1327/2
f 717/1330/10 721/1331/10 715/1329/10
f 721/1331/10 722/1328/10 715/1329/10
f 722/1332/9 718/1333/9 715/1334/9
f 718/1333/9 722/1332/9 719/1335/9
o E2D
usemtl c_947bdd_neon
f 723/1336/5 724/1337/5 725/1338/5
f 724/1337/5 723/1336/5 726/1339/5
f 726/1340/8 727/1341/8 728/1342/8
f 726/1340/8 728/1342/8 724/1343/8
f 725/1344/7 728/1345/7 729/1346/7
f 728/1345/7 725/1344/7 724/1347/7
f 729/1336/2 727/1337/2 730/1338/2
f 727/1337/2 729/1336/2 728/1339/2
f 725/1342/10 729/1343/10 723/1341/10
f 729/1343/10 730/1340/10 723/1341/10
f 730/1344/9 726/1345/9 723/1346/9
f 726/1345/9 730/1344/9 727/1347/9
usemtl c_ab66ce
f 731/1348/5 732/1349/5 733/1350/5
f 733/1350/5 732/1349/5 734/1351/5
f 735/1348/8 732/1349/8 736/1352/8
f 736/1352/8 732/1349/8 731/1353/8
f 732/1348/7 735/1349/7 734/1350/7
f 734/1350/7 735/1349/7 737/1351/7
f 735/1348/2 736/1349/2 737/1350/2
f 737/1350/2 736/1349/2 738/1351/2
f 738/1348/10 733/1349/10 737/1352/10
f 737/1352/10 733/1349/10 734/1353/10
f 736/1348/9 731/1349/9 738/1350/9
f 738/1350/9 731/1349/9 733/1351/9
o E1D
usemtl c_bf75cc_neon
f 739/1354/5 740/1355/5 741/1356/5
f 740/1355/5 739/1354/5 742/1357/5
f 742/1358/8 743/1359/8 744/1360/8
f 742/1358/8 744/1360/8 740/1361/8
f 741/1362/7 744/1363/7 745/1364/7
f 744/1363/7 741/1362/7 740/1365/7
f 745/1354/2 743/1355/2 746/1356/2
f 743/1355/2 745/1354/2 744/1357/2
f 741/1360/10 745/1361/10 739/1359/10
f 745/1361/10 746/1358/10 739/1359/10
f 746/1362/9 742/1363/9 739/1364/9
f 742/1363/9 746/1362/9 743/1365/9
usemtl c_bf75cc_shiny
f 747/1366/5 748/1367/5 749/1368/5
f 749/1368/5 748/1367/5 750/1369/5
f 751/1366/8 748/1367/8 752/1370/8
f 752/1370/8 748/1367/8 747/1371/8
f 748/1366/7 751/1367/7 750/1368/7
f 750/1368/7 751/1367/7 753/1369/7
f 751/1366/2 752/1367/2 753/1368/2
f 753/1368/2 752/1367/2 754/1369/2
f 754/1366/10 749/1367/10 753/1370/10
f 753/1370/10 749/1367/10 750/1371/10
f 752/1366/9 747/1367/9 754/1368/9
f 754/1368/9 747/1367/9 749/1369/9
