# Roblox asset pack: bomb (props). Exported from Roblox Studio with Export Selection, then split/renamed/re-centred by tools/process_export.py. Units: studs (1 stud = 1 unit). +Y up. Pivot (bottom_centre) at the origin.
mtllib bomb.mtl

v 0.57740 1.57735 -0.57730
v 0.63960 1.63960 -0.42640
v 0.63960 1.42640 -0.63960
v 0.72760 1.48507 -0.48510
v 0.68820 1.68825 -0.22940
v 0.80180 1.53452 -0.26730
v 0.70710 1.70711 0.00000
v 0.83210 1.55470 0.00000
v 0.68820 1.68825 0.22940
v 0.80180 1.53452 0.26730
v 0.63960 1.63960 0.42640
v 0.72760 1.48507 0.48510
v 0.57740 1.57735 0.57730
v 0.63960 1.42640 0.63960
v 0.68820 1.22942 -0.68820
v 0.80180 1.26726 -0.53450
v 0.90450 1.30151 -0.30150
v 0.94870 1.31623 0.00000
v 0.90450 1.30151 0.30150
v 0.80180 1.26726 0.53450
v 0.68820 1.22942 0.68820
v 0.70710 1.00000 -0.70710
v 0.83210 1.00000 -0.55470
v 0.94870 1.00000 -0.31620
v 1.00000 1.00000 0.00000
v 0.94870 1.00000 0.31620
v 0.83210 1.00000 0.55470
v 0.70710 1.00000 0.70710
v 0.68820 0.77058 -0.68820
v 0.80180 0.73274 -0.53450
v 0.90450 0.69849 -0.30150
v 0.94870 0.68377 0.00000
v 0.90450 0.69849 0.30150
v 0.80180 0.73274 0.53450
v 0.68820 0.77058 0.68820
v 0.63960 0.57360 -0.63960
v 0.72760 0.51493 -0.48510
v 0.80180 0.46548 -0.26730
v 0.83210 0.44530 0.00000
v 0.80180 0.46548 0.26730
v 0.72760 0.51493 0.48510
v 0.63960 0.57360 0.63960
v 0.57740 0.42265 -0.57730
v 0.63960 0.36040 -0.42640
v 0.68820 0.31175 -0.22940
v 0.70710 0.29289 0.00000
v 0.68820 0.31175 0.22940
v 0.63960 0.36040 0.42640
v 0.57740 0.42265 0.57730
v -0.57740 1.57735 0.57730
v -0.42640 1.63960 0.63960
v -0.63960 1.63960 0.42640
v -0.48510 1.72761 0.48510
v -0.22940 1.68825 0.68820
v -0.26730 1.80178 0.53450
v 0.00000 1.70711 0.70710
v 0.00000 1.83205 0.55470
v 0.22940 1.68825 0.68820
v 0.26730 1.80178 0.53450
v 0.42640 1.63960 0.63960
v 0.48510 1.72761 0.48510
v -0.68820 1.68825 0.22940
v -0.53450 1.80178 0.26730
v -0.30150 1.90453 0.30150
v 0.00000 1.94868 0.31620
v 0.30150 1.90453 0.30150
v 0.53450 1.80178 0.26730
v -0.70710 1.70711 0.00000
v -0.55470 1.83205 0.00000
v -0.31620 1.94868 0.00000
v 0.00000 2.00000 0.00000
v 0.31620 1.94868 0.00000
v 0.55470 1.83205 0.00000
v -0.68820 1.68825 -0.22940
v -0.53450 1.80178 -0.26730
v -0.30150 1.90453 -0.30150
v 0.00000 1.94868 -0.31620
v 0.30150 1.90453 -0.30150
v 0.53450 1.80178 -0.26730
v -0.63960 1.63960 -0.42640
v -0.48510 1.72761 -0.48510
v -0.26730 1.80178 -0.53450
v 0.00000 1.83205 -0.55470
v 0.26730 1.80178 -0.53450
v 0.48510 1.72761 -0.48510
v -0.57740 1.57735 -0.57730
v -0.42640 1.63960 -0.63960
v -0.22940 1.68825 -0.68820
v 0.00000 1.70711 -0.70710
v 0.22940 1.68825 -0.68820
v 0.42640 1.63960 -0.63960
v 0.48510 1.48507 0.72760
v 0.26730 1.53452 0.80180
v 0.00000 1.55470 0.83200
v -0.26730 1.53452 0.80180
v -0.48510 1.48507 0.72760
v -0.63960 1.42640 0.63960
v 0.53450 1.26726 0.80180
v 0.30150 1.30151 0.90450
v 0.00000 1.31623 0.94870
v -0.30150 1.30151 0.90450
v -0.53450 1.26726 0.80180
v -0.68820 1.22942 0.68820
v 0.55470 1.00000 0.83200
v 0.31620 1.00000 0.94870
v 0.00000 1.00000 1.00000
v -0.31620 1.00000 0.94870
v -0.55470 1.00000 0.83200
v -0.70710 1.00000 0.70710
v 0.53450 0.73274 0.80180
v 0.30150 0.69849 0.90450
v 0.00000 0.68377 0.94870
v -0.30150 0.69849 0.90450
v -0.53450 0.73274 0.80180
v -0.68820 0.77058 0.68820
v 0.48510 0.51493 0.72760
v 0.26730 0.46548 0.80180
v 0.00000 0.44530 0.83200
v -0.26730 0.46548 0.80180
v -0.48510 0.51493 0.72760
v -0.63960 0.57360 0.63960
v 0.42640 0.36040 0.63960
v 0.22940 0.31175 0.68820
v 0.00000 0.29289 0.70710
v -0.22940 0.31175 0.68820
v -0.42640 0.36040 0.63960
v -0.57740 0.42265 0.57730
v -0.72760 1.48507 0.48510
v -0.80180 1.53452 0.26730
v -0.83210 1.55470 0.00000
v -0.80180 1.53452 -0.26730
v -0.72760 1.48507 -0.48510
v -0.63960 1.42640 -0.63960
v -0.80180 1.26726 0.53450
v -0.90450 1.30151 0.30150
v -0.94870 1.31623 0.00000
v -0.90450 1.30151 -0.30150
v -0.80180 1.26726 -0.53450
v -0.68820 1.22942 -0.68820
v -0.83210 1.00000 0.55470
v -0.94870 1.00000 0.31620
v -1.00000 1.00000 0.00000
v -0.94870 1.00000 -0.31620
v -0.83210 1.00000 -0.55470
v -0.70710 1.00000 -0.70710
v -0.80180 0.73274 0.53450
v -0.90450 0.69849 0.30150
v -0.94870 0.68377 0.00000
v -0.90450 0.69849 -0.30150
v -0.80180 0.73274 -0.53450
v -0.68820 0.77058 -0.68820
v -0.72760 0.51493 0.48510
v -0.80180 0.46548 0.26730
v -0.83210 0.44530 0.00000
v -0.80180 0.46548 -0.26730
v -0.72760 0.51493 -0.48510
v -0.63960 0.57360 -0.63960
v -0.63960 0.36040 0.42640
v -0.68820 0.31175 0.22940
v -0.70710 0.29289 0.00000
v -0.68820 0.31175 -0.22940
v -0.63960 0.36040 -0.42640
v -0.57740 0.42265 -0.57730
v -0.42640 0.36040 -0.63960
v -0.48510 0.27239 -0.48510
v -0.22940 0.31175 -0.68820
v -0.26730 0.19822 -0.53450
v 0.00000 0.29289 -0.70710
v 0.00000 0.16795 -0.55470
v 0.22940 0.31175 -0.68820
v 0.26730 0.19822 -0.53450
v 0.42640 0.36040 -0.63960
v 0.48510 0.27239 -0.48510
v -0.53450 0.19822 -0.26730
v -0.30150 0.09547 -0.30150
v 0.00000 0.05132 -0.31620
v 0.30150 0.09547 -0.30150
v 0.53450 0.19822 -0.26730
v -0.55470 0.16795 0.00000
v -0.31620 0.05132 0.00000
v 0.00000 0.00000 0.00000
v 0.31620 0.05132 0.00000
v 0.55470 0.16795 0.00000
v -0.53450 0.19822 0.26730
v -0.30150 0.09547 0.30150
v 0.00000 0.05132 0.31620
v 0.30150 0.09547 0.30150
v 0.53450 0.19822 0.26730
v -0.48510 0.27239 0.48510
v -0.26730 0.19822 0.53450
v 0.00000 0.16795 0.55470
v 0.26730 0.19822 0.53450
v 0.48510 0.27239 0.48510
v -0.48510 1.48507 -0.72760
v -0.26730 1.53452 -0.80180
v 0.00000 1.55470 -0.83200
v 0.26730 1.53452 -0.80180
v 0.48510 1.48507 -0.72760
v -0.53450 1.26726 -0.80180
v -0.30150 1.30151 -0.90450
v 0.00000 1.31623 -0.94870
v 0.30150 1.30151 -0.90450
v 0.53450 1.26726 -0.80180
v -0.55470 1.00000 -0.83200
v -0.31620 1.00000 -0.94870
v 0.00000 1.00000 -1.00000
v 0.31620 1.00000 -0.94870
v 0.55470 1.00000 -0.83200
v -0.53450 0.73274 -0.80180
v -0.30150 0.69849 -0.90450
v 0.00000 0.68377 -0.94870
v 0.30150 0.69849 -0.90450
v 0.53450 0.73274 -0.80180
v -0.48510 0.51493 -0.72760
v -0.26730 0.46548 -0.80180
v 0.00000 0.44530 -0.83200
v 0.26730 0.46548 -0.80180
v 0.48510 0.51493 -0.72760
v 0.33410 2.11644 0.00000
v 0.17050 2.16957 -0.25790
v 0.12560 2.18417 -0.21920
v 0.24080 2.14673 -0.29410
v 0.33410 2.11644 -0.31000
v 0.42730 2.08614 -0.29410
v 0.49760 2.06330 -0.25790
v 0.54260 2.04870 -0.21920
v 0.57940 2.03673 -0.17200
v 0.61380 2.02556 -0.09800
v 0.62890 2.02064 0.00000
v 0.61380 2.02556 0.09800
v 0.57940 2.03673 0.17200
v 0.54260 2.04870 0.21920
v 0.49760 2.06330 0.25790
v 0.42730 2.08614 0.29410
v 0.33410 2.11644 0.31000
v 0.24080 2.14673 0.29410
v 0.17050 2.16957 0.25790
v 0.12560 2.18417 0.21920
v 0.08880 2.19614 0.17200
v 0.05440 2.20731 0.09800
v 0.03930 2.21223 0.00000
v 0.05440 2.20731 -0.09800
v 0.08880 2.19614 -0.17200
v 0.01740 1.85130 0.21920
v -0.01940 1.86327 0.17200
v -0.05380 1.87444 0.09800
v -0.06890 1.87936 0.00000
v -0.05380 1.87444 -0.09800
v -0.01940 1.86327 -0.17200
v 0.01740 1.85130 -0.21920
v 0.06240 1.83670 0.25790
v 0.13270 1.81386 0.29410
v 0.22590 1.78357 0.31000
v 0.31920 1.75327 0.29410
v 0.38950 1.73043 0.25790
v 0.43440 1.71583 0.21920
v 0.22590 1.78357 0.00000
v 0.47120 1.70386 0.17200
v 0.50560 1.69269 0.09800
v 0.52080 1.68777 0.00000
v 0.50560 1.69269 -0.09800
v 0.47120 1.70386 -0.17200
v 0.43440 1.71583 -0.21920
v 0.38950 1.73043 -0.25790
v 0.31920 1.75327 -0.29410
v 0.22590 1.78357 -0.31000
v 0.13270 1.81386 -0.29410
v 0.06240 1.83670 -0.25790
v 0.50940 2.41765 0.00000
v 0.48490 2.43070 -0.04160
v 0.47820 2.43428 -0.03540
v 0.49550 2.42509 -0.04740
v 0.50940 2.41765 -0.05000
v 0.52340 2.41021 -0.04740
v 0.53390 2.40460 -0.04160
v 0.54060 2.40101 -0.03540
v 0.54610 2.39807 -0.02770
v 0.55130 2.39533 -0.01580
v 0.55350 2.39412 0.00000
v 0.55130 2.39533 0.01580
v 0.54610 2.39807 0.02770
v 0.54060 2.40101 0.03540
v 0.53390 2.40460 0.04160
v 0.52340 2.41021 0.04740
v 0.50940 2.41765 0.05000
v 0.49550 2.42509 0.04740
v 0.48490 2.43070 0.04160
v 0.47820 2.43428 0.03540
v 0.47270 2.43722 0.02770
v 0.46760 2.43997 0.01580
v 0.46530 2.44118 0.00000
v 0.46760 2.43997 -0.01580
v 0.47270 2.43722 -0.02770
v 0.29940 2.09899 0.03540
v 0.29390 2.10193 0.02770
v 0.28870 2.10467 0.01580
v 0.28650 2.10588 0.00000
v 0.28870 2.10467 -0.01580
v 0.29390 2.10193 -0.02770
v 0.29940 2.09899 -0.03540
v 0.30610 2.09540 0.04160
v 0.31660 2.08979 0.04740
v 0.33060 2.08235 0.05000
v 0.34450 2.07491 0.04740
v 0.35510 2.06930 0.04160
v 0.36180 2.06572 0.03540
v 0.33060 2.08235 0.00000
v 0.36730 2.06278 0.02770
v 0.37240 2.06003 0.01580
v 0.37470 2.05882 0.00000
v 0.37240 2.06003 -0.01580
v 0.36730 2.06278 -0.02770
v 0.36180 2.06572 -0.03540
v 0.35510 2.06930 -0.04160
v 0.34450 2.07491 -0.04740
v 0.33060 2.08235 -0.05000
v 0.31660 2.08979 -0.04740
v 0.30610 2.09540 -0.04160
v 0.79630 2.61162 0.00000
v 0.78020 2.63419 -0.04160
v 0.77570 2.64039 -0.03540
v 0.78710 2.62449 -0.04740
v 0.79630 2.61162 -0.05000
v 0.80550 2.59876 -0.04740
v 0.81240 2.58906 -0.04160
v 0.81680 2.58285 -0.03540
v 0.82050 2.57777 -0.02770
v 0.82380 2.57303 -0.01580
v 0.82530 2.57094 0.00000
v 0.82380 2.57303 0.01580
v 0.82050 2.57777 0.02770
v 0.81680 2.58285 0.03540
v 0.81240 2.58906 0.04160
v 0.80550 2.59876 0.04740
v 0.79630 2.61162 0.05000
v 0.78710 2.62449 0.04740
v 0.78020 2.63419 0.04160
v 0.77570 2.64039 0.03540
v 0.77210 2.64548 0.02770
v 0.76870 2.65022 0.01580
v 0.76720 2.65231 0.00000
v 0.76870 2.65022 -0.01580
v 0.77210 2.64548 -0.02770
v 0.46320 2.41715 0.03540
v 0.45950 2.42223 0.02770
v 0.45620 2.42697 0.01580
v 0.45470 2.42906 0.00000
v 0.45620 2.42697 -0.01580
v 0.45950 2.42223 -0.02770
v 0.46320 2.41715 -0.03540
v 0.46760 2.41094 0.04160
v 0.47450 2.40124 0.04740
v 0.48370 2.38838 0.05000
v 0.49290 2.37551 0.04740
v 0.49980 2.36581 0.04160
v 0.50430 2.35961 0.03540
v 0.48370 2.38838 0.00000
v 0.50790 2.35452 0.02770
v 0.51130 2.34978 0.01580
v 0.51280 2.34769 0.00000
v 0.51130 2.34978 -0.01580
v 0.50790 2.35452 -0.02770
v 0.50430 2.35961 -0.03540
v 0.49980 2.36581 -0.04160
v 0.49290 2.37551 -0.04740
v 0.48370 2.38838 -0.05000
v 0.47450 2.40124 -0.04740
v 0.46760 2.41094 -0.04160
v 1.06950 2.66434 0.00000
v 1.06350 2.69141 -0.04160
v 1.06190 2.69885 -0.03540
v 1.06610 2.67977 -0.04740
v 1.06950 2.66434 -0.05000
v 1.07300 2.64890 -0.04740
v 1.07550 2.63726 -0.04160
v 1.07720 2.62983 -0.03540
v 1.07860 2.62373 -0.02770
v 1.07980 2.61803 -0.01580
v 1.08040 2.61553 0.00000
v 1.07980 2.61803 0.01580
v 1.07860 2.62373 0.02770
v 1.07720 2.62983 0.03540
v 1.07550 2.63726 0.04160
v 1.07300 2.64890 0.04740
v 1.06950 2.66434 0.05000
v 1.06610 2.67977 0.04740
v 1.06350 2.69141 0.04160
v 1.06190 2.69885 0.03540
v 1.06050 2.70495 0.02770
v 1.05920 2.71064 0.01580
v 1.05870 2.71315 0.00000
v 1.05920 2.71064 -0.01580
v 1.06050 2.70495 -0.02770
v 0.75280 2.63017 0.03540
v 0.75150 2.63627 0.02770
v 0.75020 2.64197 0.01580
v 0.74960 2.64447 0.00000
v 0.75020 2.64197 -0.01580
v 0.75150 2.63627 -0.02770
v 0.75280 2.63017 -0.03540
v 0.75450 2.62274 0.04160
v 0.75700 2.61110 0.04740
v 0.76050 2.59566 0.05000
v 0.76390 2.58023 0.04740
v 0.76650 2.56859 0.04160
v 0.76810 2.56115 0.03540
v 0.76050 2.59566 0.00000
v 0.76950 2.55505 0.02770
v 0.77080 2.54936 0.01580
v 0.77130 2.54685 0.00000
v 0.77080 2.54936 -0.01580
v 0.76950 2.55505 -0.02770
v 0.76810 2.56115 -0.03540
v 0.76650 2.56859 -0.04160
v 0.76390 2.58023 -0.04740
v 0.76050 2.59566 -0.05000
v 0.75700 2.61110 -0.04740
v 0.75450 2.62274 -0.04160
v 1.19820 2.77815 -0.09820
v 1.20870 2.78873 -0.07250
v 1.20870 2.75249 -0.10870
v 1.22370 2.76246 -0.08250
v 1.21700 2.79700 -0.03900
v 1.23630 2.77087 -0.04540
v 1.22020 2.80021 0.00000
v 1.24140 2.77430 0.00000
v 1.21700 2.79700 0.03900
v 1.23630 2.77087 0.04540
v 1.20870 2.78873 0.07250
v 1.22370 2.76246 0.08250
v 1.19820 2.77815 0.09820
v 1.20870 2.75249 0.10870
v 1.21700 2.71900 -0.11700
v 1.23630 2.72543 -0.09090
v 1.25380 2.73126 -0.05130
v 1.26130 2.73376 0.00000
v 1.25380 2.73126 0.05130
v 1.23630 2.72543 0.09090
v 1.21700 2.71900 0.11700
v 1.22020 2.68000 -0.12020
v 1.24140 2.68000 -0.09430
v 1.26130 2.68000 -0.05380
v 1.27000 2.68000 0.00000
v 1.26130 2.68000 0.05380
v 1.24140 2.68000 0.09430
v 1.22020 2.68000 0.12020
v 1.21700 2.64100 -0.11700
v 1.23630 2.63457 -0.09090
v 1.25380 2.62874 -0.05130
v 1.26130 2.62624 0.00000
v 1.25380 2.62874 0.05130
v 1.23630 2.63457 0.09090
v 1.21700 2.64100 0.11700
v 1.20870 2.60751 -0.10870
v 1.22370 2.59754 -0.08250
v 1.23630 2.58913 -0.04540
v 1.24140 2.58570 0.00000
v 1.23630 2.58913 0.04540
v 1.22370 2.59754 0.08250
v 1.20870 2.60751 0.10870
v 1.19820 2.58185 -0.09820
v 1.20870 2.57127 -0.07250
v 1.21700 2.56300 -0.03900
v 1.22020 2.55979 0.00000
v 1.21700 2.56300 0.03900
v 1.20870 2.57127 0.07250
v 1.19820 2.58185 0.09820
v 1.00190 2.77815 0.09820
v 1.02750 2.78873 0.10870
v 0.99130 2.78873 0.07250
v 1.01750 2.80369 0.08250
v 1.06100 2.79700 0.11700
v 1.05460 2.81630 0.09090
v 1.10000 2.80021 0.12020
v 1.10000 2.82145 0.09430
v 1.13900 2.79700 0.11700
v 1.14540 2.81630 0.09090
v 1.17250 2.78873 0.10870
v 1.18250 2.80369 0.08250
v 0.98300 2.79700 0.03900
v 1.00910 2.81630 0.04540
v 1.04870 2.83377 0.05130
v 1.10000 2.84128 0.05380
v 1.15130 2.83377 0.05130
v 1.19090 2.81630 0.04540
v 0.97980 2.80021 0.00000
v 1.00570 2.82145 0.00000
v 1.04620 2.84128 0.00000
v 1.10000 2.85000 0.00000
v 1.15380 2.84128 0.00000
v 1.19430 2.82145 0.00000
v 0.98300 2.79700 -0.03900
v 1.00910 2.81630 -0.04540
v 1.04870 2.83377 -0.05130
v 1.10000 2.84128 -0.05380
v 1.15130 2.83377 -0.05130
v 1.19090 2.81630 -0.04540
v 0.99130 2.78873 -0.07250
v 1.01750 2.80369 -0.08250
v 1.05460 2.81630 -0.09090
v 1.10000 2.82145 -0.09430
v 1.14540 2.81630 -0.09090
v 1.18250 2.80369 -0.08250
v 1.00190 2.77815 -0.09820
v 1.02750 2.78873 -0.10870
v 1.06100 2.79700 -0.11700
v 1.10000 2.80021 -0.12020
v 1.13900 2.79700 -0.11700
v 1.17250 2.78873 -0.10870
v 1.18250 2.76246 0.12370
v 1.14540 2.77087 0.13630
v 1.10000 2.77430 0.14140
v 1.05460 2.77087 0.13630
v 1.01750 2.76246 0.12370
v 0.99130 2.75249 0.10870
v 1.19090 2.72543 0.13630
v 1.15130 2.73126 0.15380
v 1.10000 2.73376 0.16130
v 1.04870 2.73126 0.15380
v 1.00910 2.72543 0.13630
v 0.98300 2.71900 0.11700
v 1.19430 2.68000 0.14140
v 1.15380 2.68000 0.16130
v 1.10000 2.68000 0.17000
v 1.04620 2.68000 0.16130
v 1.00570 2.68000 0.14140
v 0.97980 2.68000 0.12020
v 1.19090 2.63457 0.13630
v 1.15130 2.62874 0.15380
v 1.10000 2.62624 0.16130
v 1.04870 2.62874 0.15380
v 1.00910 2.63457 0.13630
v 0.98300 2.64100 0.11700
v 1.18250 2.59754 0.12370
v 1.14540 2.58913 0.13630
v 1.10000 2.58570 0.14140
v 1.05460 2.58913 0.13630
v 1.01750 2.59754 0.12370
v 0.99130 2.60751 0.10870
v 1.17250 2.57127 0.10870
v 1.13900 2.56300 0.11700
v 1.10000 2.55979 0.12020
v 1.06100 2.56300 0.11700
v 1.02750 2.57127 0.10870
v 1.00190 2.58185 0.09820
v 0.97630 2.76246 0.08250
v 0.96370 2.77087 0.04540
v 0.95860 2.77430 0.00000
v 0.96370 2.77087 -0.04540
v 0.97630 2.76246 -0.08250
v 0.99130 2.75249 -0.10870
v 0.96370 2.72543 0.09090
v 0.94620 2.73126 0.05130
v 0.93870 2.73376 0.00000
v 0.94620 2.73126 -0.05130
v 0.96370 2.72543 -0.09090
v 0.98300 2.71900 -0.11700
v 0.95860 2.68000 0.09430
v 0.93870 2.68000 0.05380
v 0.93000 2.68000 0.00000
v 0.93870 2.68000 -0.05380
v 0.95860 2.68000 -0.09430
v 0.97980 2.68000 -0.12020
v 0.96370 2.63457 0.09090
v 0.94620 2.62874 0.05130
v 0.93870 2.62624 0.00000
v 0.94620 2.62874 -0.05130
v 0.96370 2.63457 -0.09090
v 0.98300 2.64100 -0.11700
v 0.97630 2.59754 0.08250
v 0.96370 2.58913 0.04540
v 0.95860 2.58570 0.00000
v 0.96370 2.58913 -0.04540
v 0.97630 2.59754 -0.08250
v 0.99130 2.60751 -0.10870
v 0.99130 2.57127 0.07250
v 0.98300 2.56300 0.03900
v 0.97980 2.55979 0.00000
v 0.98300 2.56300 -0.03900
v 0.99130 2.57127 -0.07250
v 1.00190 2.58185 -0.09820
v 1.02750 2.57127 -0.10870
v 1.01750 2.55631 -0.08250
v 1.06100 2.56300 -0.11700
v 1.05460 2.54370 -0.09090
v 1.10000 2.55979 -0.12020
v 1.10000 2.53855 -0.09430
v 1.13900 2.56300 -0.11700
v 1.14540 2.54370 -0.09090
v 1.17250 2.57127 -0.10870
v 1.18250 2.55631 -0.08250
v 1.00910 2.54370 -0.04540
v 1.04870 2.52623 -0.05130
v 1.10000 2.51872 -0.05380
v 1.15130 2.52623 -0.05130
v 1.19090 2.54370 -0.04540
v 1.00570 2.53855 0.00000
v 1.04620 2.51872 0.00000
v 1.10000 2.51000 0.00000
v 1.15380 2.51872 0.00000
v 1.19430 2.53855 0.00000
v 1.00910 2.54370 0.04540
v 1.04870 2.52623 0.05130
v 1.10000 2.51872 0.05380
v 1.15130 2.52623 0.05130
v 1.19090 2.54370 0.04540
v 1.01750 2.55631 0.08250
v 1.05460 2.54370 0.09090
v 1.10000 2.53855 0.09430
v 1.14540 2.54370 0.09090
v 1.18250 2.55631 0.08250
v 1.01750 2.76246 -0.12370
v 1.05460 2.77087 -0.13630
v 1.10000 2.77430 -0.14140
v 1.14540 2.77087 -0.13630
v 1.18250 2.76246 -0.12370
v 1.00910 2.72543 -0.13630
v 1.04870 2.73126 -0.15380
v 1.10000 2.73376 -0.16130
v 1.15130 2.73126 -0.15380
v 1.19090 2.72543 -0.13630
v 1.00570 2.68000 -0.14140
v 1.04620 2.68000 -0.16130
v 1.10000 2.68000 -0.17000
v 1.15380 2.68000 -0.16130
v 1.19430 2.68000 -0.14140
v 1.00910 2.63457 -0.13630
v 1.04870 2.62874 -0.15380
v 1.10000 2.62624 -0.16130
v 1.15130 2.62874 -0.15380
v 1.19090 2.63457 -0.13630
v 1.01750 2.59754 -0.12370
v 1.05460 2.58913 -0.13630
v 1.10000 2.58570 -0.14140
v 1.14540 2.58913 -0.13630
v 1.18250 2.59754 -0.12370
v 1.29090 2.91335 -0.03000
v 1.29090 2.91335 0.03000
v 1.33330 2.87092 -0.03000
v 1.33330 2.87092 0.03000
v 0.86670 2.48908 0.03000
v 0.86670 2.48908 -0.03000
v 0.90910 2.44665 0.03000
v 0.90910 2.44665 -0.03000
v 1.33330 2.48908 -0.03000
v 1.33330 2.48908 0.03000
v 1.29090 2.44665 -0.03000
v 1.29090 2.44665 0.03000
v 0.90910 2.91335 0.03000
v 0.90910 2.91335 -0.03000
v 0.86670 2.87092 0.03000
v 0.86670 2.87092 -0.03000
v -0.34610 1.65392 -0.78390
v -0.33490 1.66513 -0.75680
v -0.33490 1.62675 -0.79510
v -0.31900 1.63731 -0.76730
v -0.32610 1.67388 -0.72130
v -0.30570 1.64621 -0.72810
v -0.32270 1.67728 -0.68000
v -0.30020 1.64985 -0.68000
v -0.32610 1.67388 -0.63870
v -0.30570 1.64621 -0.63190
v -0.33490 1.66513 -0.60320
v -0.31900 1.63731 -0.59270
v -0.34610 1.65392 -0.57610
v -0.33490 1.62675 -0.56490
v -0.32610 1.59129 -0.80390
v -0.30570 1.59811 -0.77620
v -0.28720 1.60427 -0.73430
v -0.27920 1.60692 -0.68000
v -0.28720 1.60427 -0.62570
v -0.30570 1.59811 -0.58380
v -0.32610 1.59129 -0.55610
v -0.32270 1.55000 -0.80730
v -0.30020 1.55000 -0.77980
v -0.27920 1.55000 -0.73690
v -0.27000 1.55000 -0.68000
v -0.27920 1.55000 -0.62310
v -0.30020 1.55000 -0.58020
v -0.32270 1.55000 -0.55270
v -0.32610 1.50871 -0.80390
v -0.30570 1.50189 -0.77620
v -0.28720 1.49573 -0.73430
v -0.27920 1.49308 -0.68000
v -0.28720 1.49573 -0.62570
v -0.30570 1.50189 -0.58380
v -0.32610 1.50871 -0.55610
v -0.33490 1.47325 -0.79510
v -0.31900 1.46269 -0.76730
v -0.30570 1.45379 -0.72810
v -0.30020 1.45015 -0.68000
v -0.30570 1.45379 -0.63190
v -0.31900 1.46269 -0.59270
v -0.33490 1.47325 -0.56490
v -0.34610 1.44608 -0.78390
v -0.33490 1.43487 -0.75680
v -0.32610 1.42612 -0.72130
v -0.32270 1.42272 -0.68000
v -0.32610 1.42612 -0.63870
v -0.33490 1.43487 -0.60320
v -0.34610 1.44608 -0.57610
v -0.55390 1.65392 -0.57610
v -0.52680 1.66513 -0.56490
v -0.56510 1.66513 -0.60320
v -0.53730 1.68097 -0.59270
v -0.49130 1.67388 -0.55610
v -0.49810 1.69432 -0.58380
v -0.45000 1.67728 -0.55270
v -0.45000 1.69977 -0.58020
v -0.40870 1.67388 -0.55610
v -0.40190 1.69432 -0.58380
v -0.37320 1.66513 -0.56490
v -0.36270 1.68097 -0.59270
v -0.57390 1.67388 -0.63870
v -0.54620 1.69432 -0.63190
v -0.50430 1.71282 -0.62570
v -0.45000 1.72076 -0.62310
v -0.39570 1.71282 -0.62570
v -0.35380 1.69432 -0.63190
v -0.57730 1.67728 -0.68000
v -0.54980 1.69977 -0.68000
v -0.50690 1.72076 -0.68000
v -0.45000 1.73000 -0.68000
v -0.39310 1.72076 -0.68000
v -0.35020 1.69977 -0.68000
v -0.57390 1.67388 -0.72130
v -0.54620 1.69432 -0.72810
v -0.50430 1.71282 -0.73430
v -0.45000 1.72076 -0.73690
v -0.39570 1.71282 -0.73430
v -0.35380 1.69432 -0.72810
v -0.56510 1.66513 -0.75680
v -0.53730 1.68097 -0.76730
v -0.49810 1.69432 -0.77620
v -0.45000 1.69977 -0.77980
v -0.40190 1.69432 -0.77620
v -0.36270 1.68097 -0.76730
v -0.55390 1.65392 -0.78390
v -0.52680 1.66513 -0.79510
v -0.49130 1.67388 -0.80390
v -0.45000 1.67728 -0.80730
v -0.40870 1.67388 -0.80390
v -0.37320 1.66513 -0.79510
v -0.36270 1.63731 -0.54900
v -0.40190 1.64621 -0.53570
v -0.45000 1.64985 -0.53020
v -0.49810 1.64621 -0.53570
v -0.53730 1.63731 -0.54900
v -0.56510 1.62675 -0.56490
v -0.35380 1.59811 -0.53570
v -0.39570 1.60427 -0.51720
v -0.45000 1.60692 -0.50920
v -0.50430 1.60427 -0.51720
v -0.54620 1.59811 -0.53570
v -0.57390 1.59129 -0.55610
v -0.35020 1.55000 -0.53020
v -0.39310 1.55000 -0.50920
v -0.45000 1.55000 -0.50000
v -0.50690 1.55000 -0.50920
v -0.54980 1.55000 -0.53020
v -0.57730 1.55000 -0.55270
v -0.35380 1.50189 -0.53570
v -0.39570 1.49573 -0.51720
v -0.45000 1.49308 -0.50920
v -0.50430 1.49573 -0.51720
v -0.54620 1.50189 -0.53570
v -0.57390 1.50871 -0.55610
v -0.36270 1.46269 -0.54900
v -0.40190 1.45379 -0.53570
v -0.45000 1.45015 -0.53020
v -0.49810 1.45379 -0.53570
v -0.53730 1.46269 -0.54900
v -0.56510 1.47325 -0.56490
v -0.37320 1.43487 -0.56490
v -0.40870 1.42612 -0.55610
v -0.45000 1.42272 -0.55270
v -0.49130 1.42612 -0.55610
v -0.52680 1.43487 -0.56490
v -0.55390 1.44608 -0.57610
v -0.58100 1.63731 -0.59270
v -0.59430 1.64621 -0.63190
v -0.59980 1.64985 -0.68000
v -0.59430 1.64621 -0.72810
v -0.58100 1.63731 -0.76730
v -0.56510 1.62675 -0.79510
v -0.59430 1.59811 -0.58380
v -0.61280 1.60427 -0.62570
v -0.62080 1.60692 -0.68000
v -0.61280 1.60427 -0.73430
v -0.59430 1.59811 -0.77620
v -0.57390 1.59129 -0.80390
v -0.59980 1.55000 -0.58020
v -0.62080 1.55000 -0.62310
v -0.63000 1.55000 -0.68000
v -0.62080 1.55000 -0.73690
v -0.59980 1.55000 -0.77980
v -0.57730 1.55000 -0.80730
v -0.59430 1.50189 -0.58380
v -0.61280 1.49573 -0.62570
v -0.62080 1.49308 -0.68000
v -0.61280 1.49573 -0.73430
v -0.59430 1.50189 -0.77620
v -0.57390 1.50871 -0.80390
v -0.58100 1.46269 -0.59270
v -0.59430 1.45379 -0.63190
v -0.59980 1.45015 -0.68000
v -0.59430 1.45379 -0.72810
v -0.58100 1.46269 -0.76730
v -0.56510 1.47325 -0.79510
v -0.56510 1.43487 -0.60320
v -0.57390 1.42612 -0.63870
v -0.57730 1.42272 -0.68000
v -0.57390 1.42612 -0.72130
v -0.56510 1.43487 -0.75680
v -0.55390 1.44608 -0.78390
v -0.52680 1.43487 -0.79510
v -0.53730 1.41903 -0.76730
v -0.49130 1.42612 -0.80390
v -0.49810 1.40568 -0.77620
v -0.45000 1.42272 -0.80730
v -0.45000 1.40023 -0.77980
v -0.40870 1.42612 -0.80390
v -0.40190 1.40568 -0.77620
v -0.37320 1.43487 -0.79510
v -0.36270 1.41903 -0.76730
v -0.54620 1.40568 -0.72810
v -0.50430 1.38718 -0.73430
v -0.45000 1.37924 -0.73690
v -0.39570 1.38718 -0.73430
v -0.35380 1.40568 -0.72810
v -0.54980 1.40023 -0.68000
v -0.50690 1.37924 -0.68000
v -0.45000 1.37000 -0.68000
v -0.39310 1.37924 -0.68000
v -0.35020 1.40023 -0.68000
v -0.54620 1.40568 -0.63190
v -0.50430 1.38718 -0.62570
v -0.45000 1.37924 -0.62310
v -0.39570 1.38718 -0.62570
v -0.35380 1.40568 -0.63190
v -0.53730 1.41903 -0.59270
v -0.49810 1.40568 -0.58380
v -0.45000 1.40023 -0.58020
v -0.40190 1.40568 -0.58380
v -0.36270 1.41903 -0.59270
v -0.53730 1.63731 -0.81100
v -0.49810 1.64621 -0.82430
v -0.45000 1.64985 -0.82980
v -0.40190 1.64621 -0.82430
v -0.36270 1.63731 -0.81100
v -0.54620 1.59811 -0.82430
v -0.50430 1.60427 -0.84280
v -0.45000 1.60692 -0.85080
v -0.39570 1.60427 -0.84280
v -0.35380 1.59811 -0.82430
v -0.54980 1.55000 -0.82980
v -0.50690 1.55000 -0.85080
v -0.45000 1.55000 -0.86000
v -0.39310 1.55000 -0.85080
v -0.35020 1.55000 -0.82980
v -0.54620 1.50189 -0.82430
v -0.50430 1.49573 -0.84280
v -0.45000 1.49308 -0.85080
v -0.39570 1.49573 -0.84280
v -0.35380 1.50189 -0.82430
v -0.53730 1.46269 -0.81100
v -0.49810 1.45379 -0.82430
v -0.45000 1.45015 -0.82980
v -0.40190 1.45379 -0.82430
v -0.36270 1.46269 -0.81100
vt 22.25000 -9.00000
vt 22.20830 -9.00000
vt 22.25000 -9.04167
vt 22.20830 -9.04167
vt 22.16670 -9.00000
vt 22.16670 -9.04167
vt 22.12500 -9.00000
vt 22.12500 -9.04167
vt 22.08330 -9.00000
vt 22.08330 -9.04167
vt 22.04170 -9.00000
vt 22.04170 -9.04167
vt 22.00000 -9.00000
vt 22.00000 -9.04167
vt 22.25000 -9.08333
vt 22.20830 -9.08333
vt 22.16670 -9.08333
vt 22.12500 -9.08333
vt 22.08330 -9.08333
vt 22.04170 -9.08333
vt 22.00000 -9.08333
vt 22.25000 -9.12500
vt 22.20830 -9.12500
vt 22.16670 -9.12500
vt 22.12500 -9.12500
vt 22.08330 -9.12500
vt 22.04170 -9.12500
vt 22.00000 -9.12500
vt 22.25000 -9.16667
vt 22.20830 -9.16667
vt 22.16670 -9.16667
vt 22.12500 -9.16667
vt 22.08330 -9.16667
vt 22.04170 -9.16667
vt 22.00000 -9.16667
vt 22.25000 -9.20833
vt 22.20830 -9.20833
vt 22.16670 -9.20833
vt 22.12500 -9.20833
vt 22.08330 -9.20833
vt 22.04170 -9.20833
vt 22.00000 -9.20833
vt 22.25000 -9.25000
vt 22.20830 -9.25000
vt 22.16670 -9.25000
vt 22.12500 -9.25000
vt 22.08330 -9.25000
vt 22.04170 -9.25000
vt 22.00000 -9.25000
vt 5.53875 -4.03875
vt 5.57099 -4.01726
vt 5.56615 -4.01135
vt 5.57551 -4.02650
vt 5.57750 -4.03875
vt 5.57551 -4.05100
vt 5.57099 -4.06024
vt 5.56615 -4.06615
vt 5.56024 -4.07099
vt 5.55100 -4.07551
vt 5.53875 -4.07750
vt 5.52650 -4.07551
vt 5.51726 -4.07099
vt 5.51135 -4.06615
vt 5.50651 -4.06024
vt 5.50199 -4.05100
vt 5.50000 -4.03875
vt 5.50199 -4.02650
vt 5.50651 -4.01726
vt 5.51135 -4.01135
vt 5.51726 -4.00651
vt 5.52650 -4.00199
vt 5.53875 -4.00000
vt 5.55100 -4.00199
vt 5.56024 -4.00651
vt 5.54375 -4.00000
vt 5.50000 -4.00000
vt 5.54375 -4.01292
vt 5.50000 -4.01292
vt 5.54375 -4.02583
vt 5.50000 -4.02583
vt 5.54375 -4.03875
vt 5.54375 -4.05167
vt 5.50000 -4.05167
vt 5.54375 -4.06458
vt 5.50000 -4.06458
vt 5.54375 -4.07750
vt 5.50000 -4.07750
vt 2.75625 -2.25625
vt 2.76145 -2.25278
vt 2.76067 -2.25183
vt 2.76218 -2.25427
vt 2.76250 -2.25625
vt 2.76218 -2.25823
vt 2.76145 -2.25972
vt 2.76067 -2.26067
vt 2.75972 -2.26145
vt 2.75823 -2.26218
vt 2.75625 -2.26250
vt 2.75427 -2.26218
vt 2.75278 -2.26145
vt 2.75183 -2.26067
vt 2.75105 -2.25972
vt 2.75032 -2.25823
vt 2.75000 -2.25625
vt 2.75032 -2.25427
vt 2.75105 -2.25278
vt 2.75183 -2.25183
vt 2.75278 -2.25105
vt 2.75427 -2.25032
vt 2.75625 -2.25000
vt 2.75823 -2.25032
vt 2.75972 -2.25105
vt 2.79750 -2.25000
vt 2.75000 -2.25000
vt 2.79750 -2.25208
vt 2.75000 -2.25208
vt 2.79750 -2.25417
vt 2.75000 -2.25417
vt 2.79750 -2.25625
vt 2.79750 -2.25833
vt 2.75000 -2.25833
vt 2.79750 -2.26042
vt 2.75000 -2.26042
vt 2.79750 -2.26250
vt 2.75000 -2.26250
vt 5.25625 -2.50625
vt 5.26145 -2.50278
vt 5.26067 -2.50183
vt 5.26218 -2.50427
vt 5.26250 -2.50625
vt 5.26218 -2.50823
vt 5.26145 -2.50972
vt 5.26067 -2.51067
vt 5.25972 -2.51145
vt 5.25823 -2.51218
vt 5.25625 -2.51250
vt 5.25427 -2.51218
vt 5.25278 -2.51145
vt 5.25183 -2.51067
vt 5.25105 -2.50972
vt 5.25032 -2.50823
vt 5.25000 -2.50625
vt 5.25032 -2.50427
vt 5.25105 -2.50278
vt 5.25183 -2.50183
vt 5.25278 -2.50105
vt 5.25427 -2.50032
vt 5.25625 -2.50000
vt 5.25823 -2.50032
vt 5.25972 -2.50105
vt 5.29801 -2.50000
vt 5.25000 -2.50000
vt 5.29801 -2.50208
vt 5.25000 -2.50208
vt 5.29801 -2.50417
vt 5.25000 -2.50417
vt 5.29801 -2.50625
vt 5.29801 -2.50833
vt 5.25000 -2.50833
vt 5.29801 -2.51042
vt 5.25000 -2.51042
vt 5.29801 -2.51250
vt 5.25000 -2.51250
vt 2.25625 -4.75625
vt 2.26145 -4.75278
vt 2.26067 -4.75183
vt 2.26218 -4.75427
vt 2.26250 -4.75625
vt 2.26218 -4.75823
vt 2.26145 -4.75972
vt 2.26067 -4.76067
vt 2.25972 -4.76145
vt 2.25823 -4.76218
vt 2.25625 -4.76250
vt 2.25427 -4.76218
vt 2.25278 -4.76145
vt 2.25183 -4.76067
vt 2.25105 -4.75972
vt 2.25032 -4.75823
vt 2.25000 -4.75625
vt 2.25032 -4.75427
vt 2.25105 -4.75278
vt 2.25183 -4.75183
vt 2.25278 -4.75105
vt 2.25427 -4.75032
vt 2.25625 -4.75000
vt 2.25823 -4.75032
vt 2.25972 -4.75105
vt 2.28957 -4.75000
vt 2.25000 -4.75000
vt 2.28957 -4.75208
vt 2.25000 -4.75208
vt 2.28957 -4.75417
vt 2.25000 -4.75417
vt 2.28957 -4.75625
vt 2.28957 -4.75833
vt 2.25000 -4.75833
vt 2.28957 -4.76042
vt 2.25000 -4.76042
vt 2.28957 -4.76250
vt 2.25000 -4.76250
vt 0.53427 0.78875
vt 0.52719 0.78875
vt 0.53427 0.78167
vt 0.52719 0.78167
vt 0.52011 0.78875
vt 0.52011 0.78167
vt 0.51302 0.78875
vt 0.51302 0.78167
vt 0.50594 0.78875
vt 0.50594 0.78167
vt 0.49886 0.78875
vt 0.49886 0.78167
vt 0.49177 0.78875
vt 0.49177 0.78167
vt 0.53427 0.77458
vt 0.52719 0.77458
vt 0.52011 0.77458
vt 0.51302 0.77458
vt 0.50594 0.77458
vt 0.49886 0.77458
vt 0.49177 0.77458
vt 0.53427 0.76750
vt 0.52719 0.76750
vt 0.52011 0.76750
vt 0.51302 0.76750
vt 0.50594 0.76750
vt 0.49886 0.76750
vt 0.49177 0.76750
vt 0.53427 0.76042
vt 0.52719 0.76042
vt 0.52011 0.76042
vt 0.51302 0.76042
vt 0.50594 0.76042
vt 0.49886 0.76042
vt 0.49177 0.76042
vt 0.53427 0.75333
vt 0.52719 0.75333
vt 0.52011 0.75333
vt 0.51302 0.75333
vt 0.50594 0.75333
vt 0.49886 0.75333
vt 0.49177 0.75333
vt 0.53427 0.74625
vt 0.52719 0.74625
vt 0.52011 0.74625
vt 0.51302 0.74625
vt 0.50594 0.74625
vt 0.49886 0.74625
vt 0.49177 0.74625
vt -0.01222 1.01125
vt -0.01972 1.01125
vt -0.01222 1.00375
vt -0.01972 1.00375
vt 0.05528 1.01125
vt 0.05528 1.00375
vt 0.01914 0.99762
vt 0.01164 0.99762
vt 0.01914 0.99012
vt 0.01164 0.99012
vt 0.08664 0.99762
vt 0.08664 0.99012
vt 12.04500 -7.00000
vt 12.03750 -7.00000
vt 12.04500 -7.00750
vt 12.03750 -7.00750
vt 12.03000 -7.00000
vt 12.03000 -7.00750
vt 12.02250 -7.00000
vt 12.02250 -7.00750
vt 12.01500 -7.00000
vt 12.01500 -7.00750
vt 12.00750 -7.00000
vt 12.00750 -7.00750
vt 12.00000 -7.00000
vt 12.00000 -7.00750
vt 12.04500 -7.01500
vt 12.03750 -7.01500
vt 12.03000 -7.01500
vt 12.02250 -7.01500
vt 12.01500 -7.01500
vt 12.00750 -7.01500
vt 12.00000 -7.01500
vt 12.04500 -7.02250
vt 12.03750 -7.02250
vt 12.03000 -7.02250
vt 12.02250 -7.02250
vt 12.01500 -7.02250
vt 12.00750 -7.02250
vt 12.00000 -7.02250
vt 12.04500 -7.03000
vt 12.03750 -7.03000
vt 12.03000 -7.03000
vt 12.02250 -7.03000
vt 12.01500 -7.03000
vt 12.00750 -7.03000
vt 12.00000 -7.03000
vt 12.04500 -7.03750
vt 12.03750 -7.03750
vt 12.03000 -7.03750
vt 12.02250 -7.03750
vt 12.01500 -7.03750
vt 12.00750 -7.03750
vt 12.00000 -7.03750
vt 12.04500 -7.04500
vt 12.03750 -7.04500
vt 12.03000 -7.04500
vt 12.02250 -7.04500
vt 12.01500 -7.04500
vt 12.00750 -7.04500
vt 12.00000 -7.04500
vn 0.5748 0.5748 -0.5748
vn 0.6378 0.6378 -0.4252
vn 0.6378 0.4252 -0.6378
vn 0.7244 0.4882 -0.4882
vn 0.6850 0.6850 -0.2283
vn 0.8032 0.5354 -0.2677
vn 0.7087 0.7087 0.0000
vn 0.8346 0.5512 0.0000
vn 0.6850 0.6850 0.2283
vn 0.8032 0.5354 0.2677
vn 0.6378 0.6378 0.4252
vn 0.7244 0.4882 0.4882
vn 0.5748 0.5748 0.5748
vn 0.6378 0.4252 0.6378
vn 0.6850 0.2283 -0.6850
vn 0.8032 0.2677 -0.5354
vn 0.9055 0.2992 -0.2992
vn 0.9449 0.3150 0.0000
vn 0.9055 0.2992 0.2992
vn 0.8032 0.2677 0.5354
vn 0.6850 0.2283 0.6850
vn 0.7087 0.0000 -0.7087
vn 0.8346 0.0000 -0.5512
vn 0.9449 0.0000 -0.3150
vn 1.0000 0.0000 0.0000
vn 0.9449 0.0000 0.3150
vn 0.8346 0.0000 0.5512
vn 0.7087 0.0000 0.7087
vn 0.6850 -0.2283 -0.6850
vn 0.8032 -0.2677 -0.5354
vn 0.9055 -0.2992 -0.2992
vn 0.9449 -0.3150 0.0000
vn 0.9055 -0.2992 0.2992
vn 0.8032 -0.2677 0.5354
vn 0.6850 -0.2283 0.6850
vn 0.6378 -0.4252 -0.6378
vn 0.7244 -0.4882 -0.4882
vn 0.8032 -0.5354 -0.2677
vn 0.8346 -0.5512 0.0000
vn 0.8032 -0.5354 0.2677
vn 0.7244 -0.4882 0.4882
vn 0.6378 -0.4252 0.6378
vn 0.5748 -0.5748 -0.5748
vn 0.6378 -0.6378 -0.4252
vn 0.6850 -0.6850 -0.2283
vn 0.7087 -0.7087 0.0000
vn 0.6850 -0.6850 0.2283
vn 0.6378 -0.6378 0.4252
vn 0.5748 -0.5748 0.5748
vn -0.5748 0.5748 0.5748
vn -0.4252 0.6378 0.6378
vn -0.6378 0.6378 0.4252
vn -0.4882 0.7244 0.4882
vn -0.2283 0.6850 0.6850
vn -0.2677 0.8032 0.5354
vn 0.0000 0.7087 0.7087
vn 0.0000 0.8346 0.5512
vn 0.2283 0.6850 0.6850
vn 0.2677 0.8032 0.5354
vn 0.4252 0.6378 0.6378
vn 0.4882 0.7244 0.4882
vn -0.6850 0.6850 0.2283
vn -0.5354 0.8032 0.2677
vn -0.2992 0.9055 0.2992
vn 0.0000 0.9449 0.3150
vn 0.2992 0.9055 0.2992
vn 0.5354 0.8032 0.2677
vn -0.7087 0.7087 0.0000
vn -0.5512 0.8346 0.0000
vn -0.3150 0.9449 0.0000
vn 0.0000 1.0000 0.0000
vn 0.3150 0.9449 0.0000
vn 0.5512 0.8346 0.0000
vn -0.6850 0.6850 -0.2283
vn -0.5354 0.8032 -0.2677
vn -0.2992 0.9055 -0.2992
vn 0.0000 0.9449 -0.3150
vn 0.2992 0.9055 -0.2992
vn 0.5354 0.8032 -0.2677
vn -0.6378 0.6378 -0.4252
vn -0.4882 0.7244 -0.4882
vn -0.2677 0.8032 -0.5354
vn 0.0000 0.8346 -0.5512
vn 0.2677 0.8032 -0.5354
vn 0.4882 0.7244 -0.4882
vn -0.5748 0.5748 -0.5748
vn -0.4252 0.6378 -0.6378
vn -0.2283 0.6850 -0.6850
vn 0.0000 0.7087 -0.7087
vn 0.2283 0.6850 -0.6850
vn 0.4252 0.6378 -0.6378
vn 0.4882 0.4882 0.7244
vn 0.2677 0.5354 0.8032
vn 0.0000 0.5512 0.8346
vn -0.2677 0.5354 0.8032
vn -0.4882 0.4882 0.7244
vn -0.6378 0.4252 0.6378
vn 0.5354 0.2677 0.8032
vn 0.2992 0.2992 0.9055
vn 0.0000 0.3150 0.9449
vn -0.2992 0.2992 0.9055
vn -0.5354 0.2677 0.8032
vn -0.6850 0.2283 0.6850
vn 0.5512 0.0000 0.8346
vn 0.3150 0.0000 0.9449
vn 0.0000 0.0000 1.0000
vn -0.3150 0.0000 0.9449
vn -0.5512 0.0000 0.8346
vn -0.7087 0.0000 0.7087
vn 0.5354 -0.2677 0.8032
vn 0.2992 -0.2992 0.9055
vn 0.0000 -0.3150 0.9449
vn -0.2992 -0.2992 0.9055
vn -0.5354 -0.2677 0.8032
vn -0.6850 -0.2283 0.6850
vn 0.4882 -0.4882 0.7244
vn 0.2677 -0.5354 0.8032
vn 0.0000 -0.5512 0.8346
vn -0.2677 -0.5354 0.8032
vn -0.4882 -0.4882 0.7244
vn -0.6378 -0.4252 0.6378
vn 0.4252 -0.6378 0.6378
vn 0.2283 -0.6850 0.6850
vn 0.0000 -0.7087 0.7087
vn -0.2283 -0.6850 0.6850
vn -0.4252 -0.6378 0.6378
vn -0.5748 -0.5748 0.5748
vn -0.7244 0.4882 0.4882
vn -0.8032 0.5354 0.2677
vn -0.8346 0.5512 0.0000
vn -0.8032 0.5354 -0.2677
vn -0.7244 0.4882 -0.4882
vn -0.6378 0.4252 -0.6378
vn -0.8032 0.2677 0.5354
vn -0.9055 0.2992 0.2992
vn -0.9449 0.3150 0.0000
vn -0.9055 0.2992 -0.2992
vn -0.8032 0.2677 -0.5354
vn -0.6850 0.2283 -0.6850
vn -0.8346 0.0000 0.5512
vn -0.9449 0.0000 0.3150
vn -1.0000 0.0000 0.0000
vn -0.9449 0.0000 -0.3150
vn -0.8346 0.0000 -0.5512
vn -0.7087 0.0000 -0.7087
vn -0.8032 -0.2677 0.5354
vn -0.9055 -0.2992 0.2992
vn -0.9449 -0.3150 0.0000
vn -0.9055 -0.2992 -0.2992
vn -0.8032 -0.2677 -0.5354
vn -0.6850 -0.2283 -0.6850
vn -0.7244 -0.4882 0.4882
vn -0.8032 -0.5354 0.2677
vn -0.8346 -0.5512 0.0000
vn -0.8032 -0.5354 -0.2677
vn -0.7244 -0.4882 -0.4882
vn -0.6378 -0.4252 -0.6378
vn -0.6378 -0.6378 0.4252
vn -0.6850 -0.6850 0.2283
vn -0.7087 -0.7087 0.0000
vn -0.6850 -0.6850 -0.2283
vn -0.6378 -0.6378 -0.4252
vn -0.5748 -0.5748 -0.5748
vn -0.4252 -0.6378 -0.6378
vn -0.4882 -0.7244 -0.4882
vn -0.2283 -0.6850 -0.6850
vn -0.2677 -0.8032 -0.5354
vn 0.0000 -0.7087 -0.7087
vn 0.0000 -0.8346 -0.5512
vn 0.2283 -0.6850 -0.6850
vn 0.2677 -0.8032 -0.5354
vn 0.4252 -0.6378 -0.6378
vn 0.4882 -0.7244 -0.4882
vn -0.5354 -0.8032 -0.2677
vn -0.2992 -0.9055 -0.2992
vn 0.0000 -0.9449 -0.3150
vn 0.2992 -0.9055 -0.2992
vn 0.5354 -0.8032 -0.2677
vn -0.5512 -0.8346 0.0000
vn -0.3150 -0.9449 0.0000
vn 0.0000 -1.0000 0.0000
vn 0.3150 -0.9449 0.0000
vn 0.5512 -0.8346 0.0000
vn -0.5354 -0.8032 0.2677
vn -0.2992 -0.9055 0.2992
vn 0.0000 -0.9449 0.3150
vn 0.2992 -0.9055 0.2992
vn 0.5354 -0.8032 0.2677
vn -0.4882 -0.7244 0.4882
vn -0.2677 -0.8032 0.5354
vn 0.0000 -0.8346 0.5512
vn 0.2677 -0.8032 0.5354
vn 0.4882 -0.7244 0.4882
vn -0.4882 0.4882 -0.7244
vn -0.2677 0.5354 -0.8032
vn 0.0000 0.5512 -0.8346
vn 0.2677 0.5354 -0.8032
vn 0.4882 0.4882 -0.7244
vn -0.5354 0.2677 -0.8032
vn -0.2992 0.2992 -0.9055
vn 0.0000 0.3150 -0.9449
vn 0.2992 0.2992 -0.9055
vn 0.5354 0.2677 -0.8032
vn -0.5512 0.0000 -0.8346
vn -0.3150 0.0000 -0.9449
vn 0.0000 0.0000 -1.0000
vn 0.3150 0.0000 -0.9449
vn 0.5512 0.0000 -0.8346
vn -0.5354 -0.2677 -0.8032
vn -0.2992 -0.2992 -0.9055
vn 0.0000 -0.3150 -0.9449
vn 0.2992 -0.2992 -0.9055
vn 0.5354 -0.2677 -0.8032
vn -0.4882 -0.4882 -0.7244
vn -0.2677 -0.5354 -0.8032
vn 0.0000 -0.5512 -0.8346
vn 0.2677 -0.5354 -0.8032
vn 0.4882 -0.4882 -0.7244
vn 0.3071 0.9528 0.0000
vn -0.6693 0.2205 0.7087
vn -0.7874 0.2598 0.5512
vn -0.9055 0.2913 0.3150
vn -0.9528 0.3071 0.0000
vn -0.9055 0.2913 -0.3150
vn -0.7874 0.2598 -0.5512
vn -0.6693 0.2205 -0.7087
vn -0.5276 0.1732 0.8346
vn -0.2992 0.0945 0.9449
vn 0.2992 -0.0945 0.9449
vn 0.5276 -0.1732 0.8346
vn 0.6693 -0.2205 0.7087
vn -0.3071 -0.9528 0.0000
vn 0.6693 -0.2205 -0.7087
vn 0.7874 -0.2598 -0.5512
vn 0.9055 -0.2913 -0.3150
vn 0.9528 -0.3071 0.0000
vn 0.9055 -0.2913 0.3150
vn 0.7874 -0.2598 0.5512
vn -0.5276 0.1732 -0.8346
vn -0.2992 0.0945 -0.9449
vn 0.2992 -0.0945 -0.9449
vn 0.5276 -0.1732 -0.8346
vn 0.4724 0.8819 0.0000
vn -0.6220 0.3307 0.7087
vn -0.7323 0.3937 0.5512
vn -0.8346 0.4488 0.3150
vn -0.8819 0.4724 0.0000
vn -0.8346 0.4488 -0.3150
vn -0.7323 0.3937 -0.5512
vn -0.6220 0.3307 -0.7087
vn -0.4882 0.2598 0.8346
vn -0.2756 0.1496 0.9449
vn 0.2756 -0.1496 0.9449
vn 0.4882 -0.2598 0.8346
vn 0.6220 -0.3307 0.7087
vn -0.4724 -0.8819 0.0000
vn 0.6220 -0.3307 -0.7087
vn 0.7323 -0.3937 -0.5512
vn 0.8346 -0.4488 -0.3150
vn 0.8819 -0.4724 0.0000
vn 0.8346 -0.4488 0.3150
vn 0.7323 -0.3937 0.5512
vn -0.4882 0.2598 -0.8346
vn -0.2756 0.1496 -0.9449
vn 0.2756 -0.1496 -0.9449
vn 0.4882 -0.2598 -0.8346
vn 0.8110 0.5827 0.0000
vn -0.4094 0.5748 0.7087
vn -0.4803 0.6772 0.5512
vn -0.5512 0.7717 0.3150
vn -0.5827 0.8110 0.0000
vn -0.5512 0.7717 -0.3150
vn -0.4803 0.6772 -0.5512
vn -0.4094 0.5748 -0.7087
vn -0.3228 0.4488 0.8346
vn -0.1811 0.2598 0.9449
vn 0.1811 -0.2598 0.9449
vn 0.3228 -0.4488 0.8346
vn 0.4094 -0.5748 0.7087
vn -0.8110 -0.5827 0.0000
vn 0.4094 -0.5748 -0.7087
vn 0.4803 -0.6772 -0.5512
vn 0.5512 -0.7717 -0.3150
vn 0.5827 -0.8110 0.0000
vn 0.5512 -0.7717 0.3150
vn 0.4803 -0.6772 0.5512
vn -0.3228 0.4488 -0.8346
vn -0.1811 0.2598 -0.9449
vn 0.1811 -0.2598 -0.9449
vn 0.3228 -0.4488 -0.8346
vn 0.9764 0.2205 0.0000
vn -0.1496 0.6929 0.7087
vn -0.1811 0.8110 0.5512
vn -0.2047 0.9291 0.3150
vn -0.2205 0.9764 0.0000
vn -0.2047 0.9291 -0.3150
vn -0.1811 0.8110 -0.5512
vn -0.1496 0.6929 -0.7087
vn -0.1181 0.5433 0.8346
vn -0.0709 0.3071 0.9449
vn 0.0709 -0.3071 0.9449
vn 0.1181 -0.5433 0.8346
vn 0.1496 -0.6929 0.7087
vn -0.9764 -0.2205 0.0000
vn 0.1496 -0.6929 -0.7087
vn 0.1811 -0.8110 -0.5512
vn 0.2047 -0.9291 -0.3150
vn 0.2205 -0.9764 0.0000
vn 0.2047 -0.9291 0.3150
vn 0.1811 -0.8110 0.5512
vn -0.1181 0.5433 -0.8346
vn -0.0709 0.3071 -0.9449
vn 0.0709 -0.3071 -0.9449
vn 0.1181 -0.5433 -0.8346

o Body
usemtl body
f 1/1/1 2/2/2 3/3/3
f 3/3/3 2/2/2 4/4/4
f 2/2/2 5/5/5 4/4/4
f 4/4/4 5/5/5 6/6/6
f 5/5/5 7/7/7 6/6/6
f 6/6/6 7/7/7 8/8/8
f 7/7/7 9/9/9 8/8/8
f 8/8/8 9/9/9 10/10/10
f 9/9/9 11/11/11 10/10/10
f 10/10/10 11/11/11 12/12/12
f 11/11/11 13/13/13 12/12/12
f 12/12/12 13/13/13 14/14/14
f 3/3/3 4/4/4 15/15/15
f 15/15/15 4/4/4 16/16/16
f 4/4/4 6/6/6 16/16/16
f 16/16/16 6/6/6 17/17/17
f 6/6/6 8/8/8 17/17/17
f 17/17/17 8/8/8 18/18/18
f 8/8/8 10/10/10 18/18/18
f 18/18/18 10/10/10 19/19/19
f 10/10/10 12/12/12 19/19/19
f 19/19/19 12/12/12 20/20/20
f 12/12/12 14/14/14 20/20/20
f 20/20/20 14/14/14 21/21/21
f 15/15/15 16/16/16 22/22/22
f 22/22/22 16/16/16 23/23/23
f 16/16/16 17/17/17 23/23/23
f 23/23/23 17/17/17 24/24/24
f 17/17/17 18/18/18 24/24/24
f 24/24/24 18/18/18 25/25/25
f 18/18/18 19/19/19 25/25/25
f 25/25/25 19/19/19 26/26/26
f 19/19/19 20/20/20 26/26/26
f 26/26/26 20/20/20 27/27/27
f 20/20/20 21/21/21 27/27/27
f 27/27/27 21/21/21 28/28/28
f 22/22/22 23/23/23 29/29/29
f 29/29/29 23/23/23 30/30/30
f 23/23/23 24/24/24 30/30/30
f 30/30/30 24/24/24 31/31/31
f 24/24/24 25/25/25 31/31/31
f 31/31/31 25/25/25 32/32/32
f 25/25/25 26/26/26 32/32/32
f 32/32/32 26/26/26 33/33/33
f 26/26/26 27/27/27 33/33/33
f 33/33/33 27/27/27 34/34/34
f 27/27/27 28/28/28 34/34/34
f 34/34/34 28/28/28 35/35/35
f 29/29/29 30/30/30 36/36/36
f 36/36/36 30/30/30 37/37/37
f 30/30/30 31/31/31 37/37/37
f 37/37/37 31/31/31 38/38/38
f 31/31/31 32/32/32 38/38/38
f 38/38/38 32/32/32 39/39/39
f 32/32/32 33/33/33 39/39/39
f 39/39/39 33/33/33 40/40/40
f 33/33/33 34/34/34 40/40/40
f 40/40/40 34/34/34 41/41/41
f 34/34/34 35/35/35 41/41/41
f 41/41/41 35/35/35 42/42/42
f 36/36/36 37/37/37 43/43/43
f 43/43/43 37/37/37 44/44/44
f 37/37/37 38/38/38 44/44/44
f 44/44/44 38/38/38 45/45/45
f 38/38/38 39/39/39 45/45/45
f 45/45/45 39/39/39 46/46/46
f 39/39/39 40/40/40 46/46/46
f 46/46/46 40/40/40 47/47/47
f 40/40/40 41/41/41 47/47/47
f 47/47/47 41/41/41 48/48/48
f 41/41/41 42/42/42 48/48/48
f 48/48/48 42/42/42 49/49/49
f 50/1/50 51/2/51 52/3/52
f 52/3/52 51/2/51 53/4/53
f 51/2/51 54/5/54 53/4/53
f 53/4/53 54/5/54 55/6/55
f 54/5/54 56/7/56 55/6/55
f 55/6/55 56/7/56 57/8/57
f 56/7/56 58/9/58 57/8/57
f 57/8/57 58/9/58 59/10/59
f 58/9/58 60/11/60 59/10/59
f 59/10/59 60/11/60 61/12/61
f 60/11/60 13/13/13 61/12/61
f 61/12/61 13/13/13 11/14/11
f 52/3/52 53/4/53 62/15/62
f 62/15/62 53/4/53 63/16/63
f 53/4/53 55/6/55 63/16/63
f 63/16/63 55/6/55 64/17/64
f 55/6/55 57/8/57 64/17/64
f 64/17/64 57/8/57 65/18/65
f 57/8/57 59/10/59 65/18/65
f 65/18/65 59/10/59 66/19/66
f 59/10/59 61/12/61 66/19/66
f 66/19/66 61/12/61 67/20/67
f 61/12/61 11/14/11 67/20/67
f 67/20/67 11/14/11 9/21/9
f 62/15/62 63/16/63 68/22/68
f 68/22/68 63/16/63 69/23/69
f 63/16/63 64/17/64 69/23/69
f 69/23/69 64/17/64 70/24/70
f 64/17/64 65/18/65 70/24/70
f 70/24/70 65/18/65 71/25/71
f 65/18/65 66/19/66 71/25/71
f 71/25/71 66/19/66 72/26/72
f 66/19/66 67/20/67 72/26/72
f 72/26/72 67/20/67 73/27/73
f 67/20/67 9/21/9 73/27/73
f 73/27/73 9/21/9 7/28/7
f 68/22/68 69/23/69 74/29/74
f 74/29/74 69/23/69 75/30/75
f 69/23/69 70/24/70 75/30/75
f 75/30/75 70/24/70 76/31/76
f 70/24/70 71/25/71 76/31/76
f 76/31/76 71/25/71 77/32/77
f 71/25/71 72/26/72 77/32/77
f 77/32/77 72/26/72 78/33/78
f 72/26/72 73/27/73 78/33/78
f 78/33/78 73/27/73 79/34/79
f 73/27/73 7/28/7 79/34/79
f 79/34/79 7/28/7 5/35/5
f 74/29/74 75/30/75 80/36/80
f 80/36/80 75/30/75 81/37/81
f 75/30/75 76/31/76 81/37/81
f 81/37/81 76/31/76 82/38/82
f 76/31/76 77/32/77 82/38/82
f 82/38/82 77/32/77 83/39/83
f 77/32/77 78/33/78 83/39/83
f 83/39/83 78/33/78 84/40/84
f 78/33/78 79/34/79 84/40/84
f 84/40/84 79/34/79 85/41/85
f 79/34/79 5/35/5 85/41/85
f 85/41/85 5/35/5 2/42/2
f 80/36/80 81/37/81 86/43/86
f 86/43/86 81/37/81 87/44/87
f 81/37/81 82/38/82 87/44/87
f 87/44/87 82/38/82 88/45/88
f 82/38/82 83/39/83 88/45/88
f 88/45/88 83/39/83 89/46/89
f 83/39/83 84/40/84 89/46/89
f 89/46/89 84/40/84 90/47/90
f 84/40/84 85/41/85 90/47/90
f 90/47/90 85/41/85 91/48/91
f 85/41/85 2/42/2 91/48/91
f 91/48/91 2/42/2 1/49/1
f 13/1/13 60/2/60 14/3/14
f 14/3/14 60/2/60 92/4/92
f 60/2/60 58/5/58 92/4/92
f 92/4/92 58/5/58 93/6/93
f 58/5/58 56/7/56 93/6/93
f 93/6/93 56/7/56 94/8/94
f 56/7/56 54/9/54 94/8/94
f 94/8/94 54/9/54 95/10/95
f 54/9/54 51/11/51 95/10/95
f 95/10/95 51/11/51 96/12/96
f 51/11/51 50/13/50 96/12/96
f 96/12/96 50/13/50 97/14/97
f 14/3/14 92/4/92 21/15/21
f 21/15/21 92/4/92 98/16/98
f 92/4/92 93/6/93 98/16/98
f 98/16/98 93/6/93 99/17/99
f 93/6/93 94/8/94 99/17/99
f 99/17/99 94/8/94 100/18/100
f 94/8/94 95/10/95 100/18/100
f 100/18/100 95/10/95 101/19/101
f 95/10/95 96/12/96 101/19/101
f 101/19/101 96/12/96 102/20/102
f 96/12/96 97/14/97 102/20/102
f 102/20/102 97/14/97 103/21/103
f 21/15/21 98/16/98 28/22/28
f 28/22/28 98/16/98 104/23/104
f 98/16/98 99/17/99 104/23/104
f 104/23/104 99/17/99 105/24/105
f 99/17/99 100/18/100 105/24/105
f 105/24/105 100/18/100 106/25/106
f 100/18/100 101/19/101 106/25/106
f 106/25/106 101/19/101 107/26/107
f 101/19/101 102/20/102 107/26/107
f 107/26/107 102/20/102 108/27/108
f 102/20/102 103/21/103 108/27/108
f 108/27/108 103/21/103 109/28/109
f 28/22/28 104/23/104 35/29/35
f 35/29/35 104/23/104 110/30/110
f 104/23/104 105/24/105 110/30/110
f 110/30/110 105/24/105 111/31/111
f 105/24/105 106/25/106 111/31/111
f 111/31/111 106/25/106 112/32/112
f 106/25/106 107/26/107 112/32/112
f 112/32/112 107/26/107 113/33/113
f 107/26/107 108/27/108 113/33/113
f 113/33/113 108/27/108 114/34/114
f 108/27/108 109/28/109 114/34/114
f 114/34/114 109/28/109 115/35/115
f 35/29/35 110/30/110 42/36/42
f 42/36/42 110/30/110 116/37/116
f 110/30/110 111/31/111 116/37/116
f 116/37/116 111/31/111 117/38/117
f 111/31/111 112/32/112 117/38/117
f 117/38/117 112/32/112 118/39/118
f 112/32/112 113/33/113 118/39/118
f 118/39/118 113/33/113 119/40/119
f 113/33/113 114/34/114 119/40/119
f 119/40/119 114/34/114 120/41/120
f 114/34/114 115/35/115 120/41/120
f 120/41/120 115/35/115 121/42/121
f 42/36/42 116/37/116 49/43/49
f 49/43/49 116/37/116 122/44/122
f 116/37/116 117/38/117 122/44/122
f 122/44/122 117/38/117 123/45/123
f 117/38/117 118/39/118 123/45/123
f 123/45/123 118/39/118 124/46/124
f 118/39/118 119/40/119 124/46/124
f 124/46/124 119/40/119 125/47/125
f 119/40/119 120/41/120 125/47/125
f 125/47/125 120/41/120 126/48/126
f 120/41/120 121/42/121 126/48/126
f 126/48/126 121/42/121 127/49/127
f 50/1/50 52/2/52 97/3/97
f 97/3/97 52/2/52 128/4/128
f 52/2/52 62/5/62 128/4/128
f 128/4/128 62/5/62 129/6/129
f 62/5/62 68/7/68 129/6/129
f 129/6/129 68/7/68 130/8/130
f 68/7/68 74/9/74 130/8/130
f 130/8/130 74/9/74 131/10/131
f 74/9/74 80/11/80 131/10/131
f 131/10/131 80/11/80 132/12/132
f 80/11/80 86/13/86 132/12/132
f 132/12/132 86/13/86 133/14/133
f 97/3/97 128/4/128 103/15/103
f 103/15/103 128/4/128 134/16/134
f 128/4/128 129/6/129 134/16/134
f 134/16/134 129/6/129 135/17/135
f 129/6/129 130/8/130 135/17/135
f 135/17/135 130/8/130 136/18/136
f 130/8/130 131/10/131 136/18/136
f 136/18/136 131/10/131 137/19/137
f 131/10/131 132/12/132 137/19/137
f 137/19/137 132/12/132 138/20/138
f 132/12/132 133/14/133 138/20/138
f 138/20/138 133/14/133 139/21/139
f 103/15/103 134/16/134 109/22/109
f 109/22/109 134/16/134 140/23/140
f 134/16/134 135/17/135 140/23/140
f 140/23/140 135/17/135 141/24/141
f 135/17/135 136/18/136 141/24/141
f 141/24/141 136/18/136 142/25/142
f 136/18/136 137/19/137 142/25/142
f 142/25/142 137/19/137 143/26/143
f 137/19/137 138/20/138 143/26/143
f 143/26/143 138/20/138 144/27/144
f 138/20/138 139/21/139 144/27/144
f 144/27/144 139/21/139 145/28/145
f 109/22/109 140/23/140 115/29/115
f 115/29/115 140/23/140 146/30/146
f 140/23/140 141/24/141 146/30/146
f 146/30/146 141/24/141 147/31/147
f 141/24/141 142/25/142 147/31/147
f 147/31/147 142/25/142 148/32/148
f 142/25/142 143/26/143 148/32/148
f 148/32/148 143/26/143 149/33/149
f 143/26/143 144/27/144 149/33/149
f 149/33/149 144/27/144 150/34/150
f 144/27/144 145/28/145 150/34/150
f 150/34/150 145/28/145 151/35/151
f 115/29/115 146/30/146 121/36/121
f 121/36/121 146/30/146 152/37/152
f 146/30/146 147/31/147 152/37/152
f 152/37/152 147/31/147 153/38/153
f 147/31/147 148/32/148 153/38/153
f 153/38/153 148/32/148 154/39/154
f 148/32/148 149/33/149 154/39/154
f 154/39/154 149/33/149 155/40/155
f 149/33/149 150/34/150 155/40/155
f 155/40/155 150/34/150 156/41/156
f 150/34/150 151/35/151 156/41/156
f 156/41/156 151/35/151 157/42/157
f 121/36/121 152/37/152 127/43/127
f 127/43/127 152/37/152 158/44/158
f 152/37/152 153/38/153 158/44/158
f 158/44/158 153/38/153 159/45/159
f 153/38/153 154/39/154 159/45/159
f 159/45/159 154/39/154 160/46/160
f 154/39/154 155/40/155 160/46/160
f 160/46/160 155/40/155 161/47/161
f 155/40/155 156/41/156 161/47/161
f 161/47/161 156/41/156 162/48/162
f 156/41/156 157/42/157 162/48/162
f 162/48/162 157/42/157 163/49/163
f 163/1/163 164/2/164 162/3/162
f 162/3/162 164/2/164 165/4/165
f 164/2/164 166/5/166 165/4/165
f 165/4/165 166/5/166 167/6/167
f 166/5/166 168/7/168 167/6/167
f 167/6/167 168/7/168 169/8/169
f 168/7/168 170/9/170 169/8/169
f 169/8/169 170/9/170 171/10/171
f 170/9/170 172/11/172 171/10/171
f 171/10/171 172/11/172 173/12/173
f 172/11/172 43/13/43 173/12/173
f 173/12/173 43/13/43 44/14/44
f 162/3/162 165/4/165 161/15/161
f 161/15/161 165/4/165 174/16/174
f 165/4/165 167/6/167 174/16/174
f 174/16/174 167/6/167 175/17/175
f 167/6/167 169/8/169 175/17/175
f 175/17/175 169/8/169 176/18/176
f 169/8/169 171/10/171 176/18/176
f 176/18/176 171/10/171 177/19/177
f 171/10/171 173/12/173 177/19/177
f 177/19/177 173/12/173 178/20/178
f 173/12/173 44/14/44 178/20/178
f 178/20/178 44/14/44 45/21/45
f 161/15/161 174/16/174 160/22/160
f 160/22/160 174/16/174 179/23/179
f 174/16/174 175/17/175 179/23/179
f 179/23/179 175/17/175 180/24/180
f 175/17/175 176/18/176 180/24/180
f 180/24/180 176/18/176 181/25/181
f 176/18/176 177/19/177 181/25/181
f 181/25/181 177/19/177 182/26/182
f 177/19/177 178/20/178 182/26/182
f 182/26/182 178/20/178 183/27/183
f 178/20/178 45/21/45 183/27/183
f 183/27/183 45/21/45 46/28/46
f 160/22/160 179/23/179 159/29/159
f 159/29/159 179/23/179 184/30/184
f 179/23/179 180/24/180 184/30/184
f 184/30/184 180/24/180 185/31/185
f 180/24/180 181/25/181 185/31/185
f 185/31/185 181/25/181 186/32/186
f 181/25/181 182/26/182 186/32/186
f 186/32/186 182/26/182 187/33/187
f 182/26/182 183/27/183 187/33/187
f 187/33/187 183/27/183 188/34/188
f 183/27/183 46/28/46 188/34/188
f 188/34/188 46/28/46 47/35/47
f 159/29/159 184/30/184 158/36/158
f 158/36/158 184/30/184 189/37/189
f 184/30/184 185/31/185 189/37/189
f 189/37/189 185/31/185 190/38/190
f 185/31/185 186/32/186 190/38/190
f 190/38/190 186/32/186 191/39/191
f 186/32/186 187/33/187 191/39/191
f 191/39/191 187/33/187 192/40/192
f 187/33/187 188/34/188 192/40/192
f 192/40/192 188/34/188 193/41/193
f 188/34/188 47/35/47 193/41/193
f 193/41/193 47/35/47 48/42/48
f 158/36/158 189/37/189 127/43/127
f 127/43/127 189/37/189 126/44/126
f 189/37/189 190/38/190 126/44/126
f 126/44/126 190/38/190 125/45/125
f 190/38/190 191/39/191 125/45/125
f 125/45/125 191/39/191 124/46/124
f 191/39/191 192/40/192 124/46/124
f 124/46/124 192/40/192 123/47/123
f 192/40/192 193/41/193 123/47/123
f 123/47/123 193/41/193 122/48/122
f 193/41/193 48/42/48 122/48/122
f 122/48/122 48/42/48 49/49/49
f 86/1/86 87/2/87 133/3/133
f 133/3/133 87/2/87 194/4/194
f 87/2/87 88/5/88 194/4/194
f 194/4/194 88/5/88 195/6/195
f 88/5/88 89/7/89 195/6/195
f 195/6/195 89/7/89 196/8/196
f 89/7/89 90/9/90 196/8/196
f 196/8/196 90/9/90 197/10/197
f 90/9/90 91/11/91 197/10/197
f 197/10/197 91/11/91 198/12/198
f 91/11/91 1/13/1 198/12/198
f 198/12/198 1/13/1 3/14/3
f 133/3/133 194/4/194 139/15/139
f 139/15/139 194/4/194 199/16/199
f 194/4/194 195/6/195 199/16/199
f 199/16/199 195/6/195 200/17/200
f 195/6/195 196/8/196 200/17/200
f 200/17/200 196/8/196 201/18/201
f 196/8/196 197/10/197 201/18/201
f 201/18/201 197/10/197 202/19/202
f 197/10/197 198/12/198 202/19/202
f 202/19/202 198/12/198 203/20/203
f 198/12/198 3/14/3 203/20/203
f 203/20/203 3/14/3 15/21/15
f 139/15/139 199/16/199 145/22/145
f 145/22/145 199/16/199 204/23/204
f 199/16/199 200/17/200 204/23/204
f 204/23/204 200/17/200 205/24/205
f 200/17/200 201/18/201 205/24/205
f 205/24/205 201/18/201 206/25/206
f 201/18/201 202/19/202 206/25/206
f 206/25/206 202/19/202 207/26/207
f 202/19/202 203/20/203 207/26/207
f 207/26/207 203/20/203 208/27/208
f 203/20/203 15/21/15 208/27/208
f 208/27/208 15/21/15 22/28/22
f 145/22/145 204/23/204 151/29/151
f 151/29/151 204/23/204 209/30/209
f 204/23/204 205/24/205 209/30/209
f 209/30/209 205/24/205 210/31/210
f 205/24/205 206/25/206 210/31/210
f 210/31/210 206/25/206 211/32/211
f 206/25/206 207/26/207 211/32/211
f 211/32/211 207/26/207 212/33/212
f 207/26/207 208/27/208 212/33/212
f 212/33/212 208/27/208 213/34/213
f 208/27/208 22/28/22 213/34/213
f 213/34/213 22/28/22 29/35/29
f 151/29/151 209/30/209 157/36/157
f 157/36/157 209/30/209 214/37/214
f 209/30/209 210/31/210 214/37/214
f 214/37/214 210/31/210 215/38/215
f 210/31/210 211/32/211 215/38/215
f 215/38/215 211/32/211 216/39/216
f 211/32/211 212/33/212 216/39/216
f 216/39/216 212/33/212 217/40/217
f 212/33/212 213/34/213 217/40/217
f 217/40/217 213/34/213 218/41/218
f 213/34/213 29/35/29 218/41/218
f 218/41/218 29/35/29 36/42/36
f 157/36/157 214/37/214 163/43/163
f 163/43/163 214/37/214 164/44/164
f 214/37/214 215/38/215 164/44/164
f 164/44/164 215/38/215 166/45/166
f 215/38/215 216/39/216 166/45/166
f 166/45/166 216/39/216 168/46/168
f 216/39/216 217/40/217 168/46/168
f 168/46/168 217/40/217 170/47/170
f 217/40/217 218/41/218 170/47/170
f 170/47/170 218/41/218 172/48/172
f 218/41/218 36/42/36 172/48/172
f 172/48/172 36/42/36 43/49/43
o Cap
usemtl cap
f 219/50/219 220/51/219 221/52/219
f 219/50/219 222/53/219 220/51/219
f 219/50/219 223/54/219 222/53/219
f 219/50/219 224/55/219 223/54/219
f 219/50/219 225/56/219 224/55/219
f 219/50/219 226/57/219 225/56/219
f 219/50/219 227/58/219 226/57/219
f 219/50/219 228/59/219 227/58/219
f 219/50/219 229/60/219 228/59/219
f 219/50/219 230/61/219 229/60/219
f 219/50/219 231/62/219 230/61/219
f 219/50/219 232/63/219 231/62/219
f 219/50/219 233/64/219 232/63/219
f 219/50/219 234/65/219 233/64/219
f 219/50/219 235/66/219 234/65/219
f 219/50/219 236/67/219 235/66/219
f 219/50/219 237/68/219 236/67/219
f 219/50/219 238/69/219 237/68/219
f 219/50/219 239/70/219 238/69/219
f 219/50/219 240/71/219 239/70/219
f 219/50/219 241/72/219 240/71/219
f 219/50/219 242/73/219 241/72/219
f 219/50/219 243/74/219 242/73/219
f 219/50/219 221/52/219 243/74/219
f 244/75/220 238/76/220 245/77/221
f 245/77/221 238/76/220 239/78/221
f 245/77/221 239/78/221 246/79/222
f 246/79/222 239/78/221 240/80/222
f 246/79/222 240/80/222 247/81/223
f 247/81/223 240/80/222 241/66/223
f 247/81/223 241/66/223 248/82/224
f 248/82/224 241/66/223 242/83/224
f 248/82/224 242/83/224 249/84/225
f 249/84/225 242/83/224 243/85/225
f 249/84/225 243/85/225 250/86/226
f 250/86/226 243/85/225 221/87/226
f 238/75/220 244/76/220 237/77/227
f 237/77/227 244/76/220 251/78/227
f 237/77/227 251/78/227 236/79/228
f 236/79/228 251/78/227 252/80/228
f 236/79/228 252/80/228 235/81/106
f 235/81/106 252/80/228 253/66/106
f 235/81/106 253/66/106 234/82/229
f 234/82/229 253/66/106 254/83/229
f 234/82/229 254/83/229 233/84/230
f 233/84/230 254/83/229 255/85/230
f 233/84/230 255/85/230 232/86/231
f 232/86/231 255/85/230 256/87/231
f 257/50/232 251/51/232 244/52/232
f 257/50/232 252/53/232 251/51/232
f 257/50/232 253/54/232 252/53/232
f 257/50/232 254/55/232 253/54/232
f 257/50/232 255/56/232 254/55/232
f 257/50/232 256/57/232 255/56/232
f 257/50/232 258/58/232 256/57/232
f 257/50/232 259/59/232 258/58/232
f 257/50/232 260/60/232 259/59/232
f 257/50/232 261/61/232 260/60/232
f 257/50/232 262/62/232 261/61/232
f 257/50/232 263/63/232 262/62/232
f 257/50/232 264/64/232 263/63/232
f 257/50/232 265/65/232 264/64/232
f 257/50/232 266/66/232 265/65/232
f 257/50/232 267/67/232 266/66/232
f 257/50/232 268/68/232 267/67/232
f 257/50/232 250/69/232 268/68/232
f 257/50/232 249/70/232 250/69/232
f 257/50/232 248/71/232 249/70/232
f 257/50/232 247/72/232 248/71/232
f 257/50/232 246/73/232 247/72/232
f 257/50/232 245/74/232 246/73/232
f 257/50/232 244/52/232 245/74/232
f 263/75/233 226/76/233 262/77/234
f 262/77/234 226/76/233 227/78/234
f 262/77/234 227/78/234 261/79/235
f 261/79/235 227/78/234 228/80/235
f 261/79/235 228/80/235 260/81/236
f 260/81/236 228/80/235 229/66/236
f 260/81/236 229/66/236 259/82/237
f 259/82/237 229/66/236 230/83/237
f 259/82/237 230/83/237 258/84/238
f 258/84/238 230/83/237 231/85/238
f 258/84/238 231/85/238 256/86/231
f 256/86/231 231/85/238 232/87/231
f 250/75/226 221/76/226 268/77/239
f 268/77/239 221/76/226 220/78/239
f 268/77/239 220/78/239 267/79/240
f 267/79/240 220/78/239 222/80/240
f 267/79/240 222/80/240 266/81/206
f 266/81/206 222/80/240 223/66/206
f 266/81/206 223/66/206 265/82/241
f 265/82/241 223/66/206 224/83/241
f 265/82/241 224/83/241 264/84/242
f 264/84/242 224/83/241 225/85/242
f 264/84/242 225/85/242 263/86/233
f 263/86/233 225/85/242 226/87/233
o Fuse1
usemtl fuse1
f 269/88/243 270/89/243 271/90/243
f 269/88/243 272/91/243 270/89/243
f 269/88/243 273/92/243 272/91/243
f 269/88/243 274/93/243 273/92/243
f 269/88/243 275/94/243 274/93/243
f 269/88/243 276/95/243 275/94/243
f 269/88/243 277/96/243 276/95/243
f 269/88/243 278/97/243 277/96/243
f 269/88/243 279/98/243 278/97/243
f 269/88/243 280/99/243 279/98/243
f 269/88/243 281/100/243 280/99/243
f 269/88/243 282/101/243 281/100/243
f 269/88/243 283/102/243 282/101/243
f 269/88/243 284/103/243 283/102/243
f 269/88/243 285/104/243 284/103/243
f 269/88/243 286/105/243 285/104/243
f 269/88/243 287/106/243 286/105/243
f 269/88/243 288/107/243 287/106/243
f 269/88/243 289/108/243 288/107/243
f 269/88/243 290/109/243 289/108/243
f 269/88/243 291/110/243 290/109/243
f 269/88/243 292/111/243 291/110/243
f 269/88/243 293/112/243 292/111/243
f 269/88/243 271/90/243 293/112/243
f 294/113/244 288/114/244 295/115/245
f 295/115/245 288/114/244 289/116/245
f 295/115/245 289/116/245 296/117/246
f 296/117/246 289/116/245 290/118/246
f 296/117/246 290/118/246 297/119/247
f 297/119/247 290/118/246 291/104/247
f 297/119/247 291/104/247 298/120/248
f 298/120/248 291/104/247 292/121/248
f 298/120/248 292/121/248 299/122/249
f 299/122/249 292/121/248 293/123/249
f 299/122/249 293/123/249 300/124/250
f 300/124/250 293/123/249 271/125/250
f 288/113/244 294/114/244 287/115/251
f 287/115/251 294/114/244 301/116/251
f 287/115/251 301/116/251 286/117/252
f 286/117/252 301/116/251 302/118/252
f 286/117/252 302/118/252 285/119/106
f 285/119/106 302/118/252 303/104/106
f 285/119/106 303/104/106 284/120/253
f 284/120/253 303/104/106 304/121/253
f 284/120/253 304/121/253 283/122/254
f 283/122/254 304/121/253 305/123/254
f 283/122/254 305/123/254 282/124/255
f 282/124/255 305/123/254 306/125/255
f 307/88/256 301/89/256 294/90/256
f 307/88/256 302/91/256 301/89/256
f 307/88/256 303/92/256 302/91/256
f 307/88/256 304/93/256 303/92/256
f 307/88/256 305/94/256 304/93/256
f 307/88/256 306/95/256 305/94/256
f 307/88/256 308/96/256 306/95/256
f 307/88/256 309/97/256 308/96/256
f 307/88/256 310/98/256 309/97/256
f 307/88/256 311/99/256 310/98/256
f 307/88/256 312/100/256 311/99/256
f 307/88/256 313/101/256 312/100/256
f 307/88/256 314/102/256 313/101/256
f 307/88/256 315/103/256 314/102/256
f 307/88/256 316/104/256 315/103/256
f 307/88/256 317/105/256 316/104/256
f 307/88/256 318/106/256 317/105/256
f 307/88/256 300/107/256 318/106/256
f 307/88/256 299/108/256 300/107/256
f 307/88/256 298/109/256 299/108/256
f 307/88/256 297/110/256 298/109/256
f 307/88/256 296/111/256 297/110/256
f 307/88/256 295/112/256 296/111/256
f 307/88/256 294/90/256 295/112/256
f 313/113/257 276/114/257 312/115/258
f 312/115/258 276/114/257 277/116/258
f 312/115/258 277/116/258 311/117/259
f 311/117/259 277/116/258 278/118/259
f 311/117/259 278/118/259 310/119/260
f 310/119/260 278/118/259 279/104/260
f 310/119/260 279/104/260 309/120/261
f 309/120/261 279/104/260 280/121/261
f 309/120/261 280/121/261 308/122/262
f 308/122/262 280/121/261 281/123/262
f 308/122/262 281/123/262 306/124/255
f 306/124/255 281/123/262 282/125/255
f 300/113/250 271/114/250 318/115/263
f 318/115/263 271/114/250 270/116/263
f 318/115/263 270/116/263 317/117/264
f 317/117/264 270/116/263 272/118/264
f 317/117/264 272/118/264 316/119/206
f 316/119/206 272/118/264 273/104/206
f 316/119/206 273/104/206 315/120/265
f 315/120/265 273/104/206 274/121/265
f 315/120/265 274/121/265 314/122/266
f 314/122/266 274/121/265 275/123/266
f 314/122/266 275/123/266 313/124/257
f 313/124/257 275/123/266 276/125/257
o Fuse2
usemtl fuse2
f 319/126/267 320/127/267 321/128/267
f 319/126/267 322/129/267 320/127/267
f 319/126/267 323/130/267 322/129/267
f 319/126/267 324/131/267 323/130/267
f 319/126/267 325/132/267 324/131/267
f 319/126/267 326/133/267 325/132/267
f 319/126/267 327/134/267 326/133/267
f 319/126/267 328/135/267 327/134/267
f 319/126/267 329/136/267 328/135/267
f 319/126/267 330/137/267 329/136/267
f 319/126/267 331/138/267 330/137/267
f 319/126/267 332/139/267 331/138/267
f 319/126/267 333/140/267 332/139/267
f 319/126/267 334/141/267 333/140/267
f 319/126/267 335/142/267 334/141/267
f 319/126/267 336/143/267 335/142/267
f 319/126/267 337/144/267 336/143/267
f 319/126/267 338/145/267 337/144/267
f 319/126/267 339/146/267 338/145/267
f 319/126/267 340/147/267 339/146/267
f 319/126/267 341/148/267 340/147/267
f 319/126/267 342/149/267 341/148/267
f 319/126/267 343/150/267 342/149/267
f 319/126/267 321/128/267 343/150/267
f 344/151/268 338/152/268 345/153/269
f 345/153/269 338/152/268 339/154/269
f 345/153/269 339/154/269 346/155/270
f 346/155/270 339/154/269 340/156/270
f 346/155/270 340/156/270 347/157/271
f 347/157/271 340/156/270 341/142/271
f 347/157/271 341/142/271 348/158/272
f 348/158/272 341/142/271 342/159/272
f 348/158/272 342/159/272 349/160/273
f 349/160/273 342/159/272 343/161/273
f 349/160/273 343/161/273 350/162/274
f 350/162/274 343/161/273 321/163/274
f 338/151/268 344/152/268 337/153/275
f 337/153/275 344/152/268 351/154/275
f 337/153/275 351/154/275 336/155/276
f 336/155/276 351/154/275 352/156/276
f 336/155/276 352/156/276 335/157/106
f 335/157/106 352/156/276 353/142/106
f 335/157/106 353/142/106 334/158/277
f 334/158/277 353/142/106 354/159/277
f 334/158/277 354/159/277 333/160/278
f 333/160/278 354/159/277 355/161/278
f 333/160/278 355/161/278 332/162/279
f 332/162/279 355/161/278 356/163/279
f 357/126/280 351/127/280 344/128/280
f 357/126/280 352/129/280 351/127/280
f 357/126/280 353/130/280 352/129/280
f 357/126/280 354/131/280 353/130/280
f 357/126/280 355/132/280 354/131/280
f 357/126/280 356/133/280 355/132/280
f 357/126/280 358/134/280 356/133/280
f 357/126/280 359/135/280 358/134/280
f 357/126/280 360/136/280 359/135/280
f 357/126/280 361/137/280 360/136/280
f 357/126/280 362/138/280 361/137/280
f 357/126/280 363/139/280 362/138/280
f 357/126/280 364/140/280 363/139/280
f 357/126/280 365/141/280 364/140/280
f 357/126/280 366/142/280 365/141/280
f 357/126/280 367/143/280 366/142/280
f 357/126/280 368/144/280 367/143/280
f 357/126/280 350/145/280 368/144/280
f 357/126/280 349/146/280 350/145/280
f 357/126/280 348/147/280 349/146/280
f 357/126/280 347/148/280 348/147/280
f 357/126/280 346/149/280 347/148/280
f 357/126/280 345/150/280 346/149/280
f 357/126/280 344/128/280 345/150/280
f 363/151/281 326/152/281 362/153/282
f 362/153/282 326/152/281 327/154/282
f 362/153/282 327/154/282 361/155/283
f 361/155/283 327/154/282 328/156/283
f 361/155/283 328/156/283 360/157/284
f 360/157/284 328/156/283 329/142/284
f 360/157/284 329/142/284 359/158/285
f 359/158/285 329/142/284 330/159/285
f 359/158/285 330/159/285 358/160/286
f 358/160/286 330/159/285 331/161/286
f 358/160/286 331/161/286 356/162/279
f 356/162/279 331/161/286 332/163/279
f 350/151/274 321/152/274 368/153/287
f 368/153/287 321/152/274 320/154/287
f 368/153/287 320/154/287 367/155/288
f 367/155/288 320/154/287 322/156/288
f 367/155/288 322/156/288 366/157/206
f 366/157/206 322/156/288 323/142/206
f 366/157/206 323/142/206 365/158/289
f 365/158/289 323/142/206 324/159/289
f 365/158/289 324/159/289 364/160/290
f 364/160/290 324/159/289 325/161/290
f 364/160/290 325/161/290 363/162/281
f 363/162/281 325/161/290 326/163/281
o Fuse3
usemtl fuse3
f 369/164/291 370/165/291 371/166/291
f 369/164/291 372/167/291 370/165/291
f 369/164/291 373/168/291 372/167/291
f 369/164/291 374/169/291 373/168/291
f 369/164/291 375/170/291 374/169/291
f 369/164/291 376/171/291 375/170/291
f 369/164/291 377/172/291 376/171/291
f 369/164/291 378/173/291 377/172/291
f 369/164/291 379/174/291 378/173/291
f 369/164/291 380/175/291 379/174/291
f 369/164/291 381/176/291 380/175/291
f 369/164/291 382/177/291 381/176/291
f 369/164/291 383/178/291 382/177/291
f 369/164/291 384/179/291 383/178/291
f 369/164/291 385/180/291 384/179/291
f 369/164/291 386/181/291 385/180/291
f 369/164/291 387/182/291 386/181/291
f 369/164/291 388/183/291 387/182/291
f 369/164/291 389/184/291 388/183/291
f 369/164/291 390/185/291 389/184/291
f 369/164/291 391/186/291 390/185/291
f 369/164/291 392/187/291 391/186/291
f 369/164/291 393/188/291 392/187/291
f 369/164/291 371/166/291 393/188/291
f 394/189/292 388/190/292 395/191/293
f 395/191/293 388/190/292 389/192/293
f 395/191/293 389/192/293 396/193/294
f 396/193/294 389/192/293 390/194/294
f 396/193/294 390/194/294 397/195/295
f 397/195/295 390/194/294 391/180/295
f 397/195/295 391/180/295 398/196/296
f 398/196/296 391/180/295 392/197/296
f 398/196/296 392/197/296 399/198/297
f 399/198/297 392/197/296 393/199/297
f 399/198/297 393/199/297 400/200/298
f 400/200/298 393/199/297 371/201/298
f 388/189/292 394/190/292 387/191/299
f 387/191/299 394/190/292 401/192/299
f 387/191/299 401/192/299 386/193/300
f 386/193/300 401/192/299 402/194/300
f 386/193/300 402/194/300 385/195/106
f 385/195/106 402/194/300 403/180/106
f 385/195/106 403/180/106 384/196/301
f 384/196/301 403/180/106 404/197/301
f 384/196/301 404/197/301 383/198/302
f 383/198/302 404/197/301 405/199/302
f 383/198/302 405/199/302 382/200/303
f 382/200/303 405/199/302 406/201/303
f 407/164/304 401/165/304 394/166/304
f 407/164/304 402/167/304 401/165/304
f 407/164/304 403/168/304 402/167/304
f 407/164/304 404/169/304 403/168/304
f 407/164/304 405/170/304 404/169/304
f 407/164/304 406/171/304 405/170/304
f 407/164/304 408/172/304 406/171/304
f 407/164/304 409/173/304 408/172/304
f 407/164/304 410/174/304 409/173/304
f 407/164/304 411/175/304 410/174/304
f 407/164/304 412/176/304 411/175/304
f 407/164/304 413/177/304 412/176/304
f 407/164/304 414/178/304 413/177/304
f 407/164/304 415/179/304 414/178/304
f 407/164/304 416/180/304 415/179/304
f 407/164/304 417/181/304 416/180/304
f 407/164/304 418/182/304 417/181/304
f 407/164/304 400/183/304 418/182/304
f 407/164/304 399/184/304 400/183/304
f 407/164/304 398/185/304 399/184/304
f 407/164/304 397/186/304 398/185/304
f 407/164/304 396/187/304 397/186/304
f 407/164/304 395/188/304 396/187/304
f 407/164/304 394/166/304 395/188/304
f 413/189/305 376/190/305 412/191/306
f 412/191/306 376/190/305 377/192/306
f 412/191/306 377/192/306 411/193/307
f 411/193/307 377/192/306 378/194/307
f 411/193/307 378/194/307 410/195/308
f 410/195/308 378/194/307 379/180/308
f 410/195/308 379/180/308 409/196/309
f 409/196/309 379/180/308 380/197/309
f 409/196/309 380/197/309 408/198/310
f 408/198/310 380/197/309 381/199/310
f 408/198/310 381/199/310 406/200/303
f 406/200/303 381/199/310 382/201/303
f 400/189/298 371/190/298 418/191/311
f 418/191/311 371/190/298 370/192/311
f 418/191/311 370/192/311 417/193/312
f 417/193/312 370/192/311 372/194/312
f 417/193/312 372/194/312 416/195/206
f 416/195/206 372/194/312 373/180/206
f 416/195/206 373/180/206 415/196/313
f 415/196/313 373/180/206 374/197/313
f 415/196/313 374/197/313 414/198/314
f 414/198/314 374/197/313 375/199/314
f 414/198/314 375/199/314 413/200/305
f 413/200/305 375/199/314 376/201/305
o Spark
usemtl spark
f 419/202/1 420/203/2 421/204/3
f 421/204/3 420/203/2 422/205/4
f 420/203/2 423/206/5 422/205/4
f 422/205/4 423/206/5 424/207/6
f 423/206/5 425/208/7 424/207/6
f 424/207/6 425/208/7 426/209/8
f 425/208/7 427/210/9 426/209/8
f 426/209/8 427/210/9 428/211/10
f 427/210/9 429/212/11 428/211/10
f 428/211/10 429/212/11 430/213/12
f 429/212/11 431/214/13 430/213/12
f 430/213/12 431/214/13 432/215/14
f 421/204/3 422/205/4 433/216/15
f 433/216/15 422/205/4 434/217/16
f 422/205/4 424/207/6 434/217/16
f 434/217/16 424/207/6 435/218/17
f 424/207/6 426/209/8 435/218/17
f 435/218/17 426/209/8 436/219/18
f 426/209/8 428/211/10 436/219/18
f 436/219/18 428/211/10 437/220/19
f 428/211/10 430/213/12 437/220/19
f 437/220/19 430/213/12 438/221/20
f 430/213/12 432/215/14 438/221/20
f 438/221/20 432/215/14 439/222/21
f 433/216/15 434/217/16 440/223/22
f 440/223/22 434/217/16 441/224/23
f 434/217/16 435/218/17 441/224/23
f 441/224/23 435/218/17 442/225/24
f 435/218/17 436/219/18 442/225/24
f 442/225/24 436/219/18 443/226/25
f 436/219/18 437/220/19 443/226/25
f 443/226/25 437/220/19 444/227/26
f 437/220/19 438/221/20 444/227/26
f 444/227/26 438/221/20 445/228/27
f 438/221/20 439/222/21 445/228/27
f 445/228/27 439/222/21 446/229/28
f 440/223/22 441/224/23 447/230/29
f 447/230/29 441/224/23 448/231/30
f 441/224/23 442/225/24 448/231/30
f 448/231/30 442/225/24 449/232/31
f 442/225/24 443/226/25 449/232/31
f 449/232/31 443/226/25 450/233/32
f 443/226/25 444/227/26 450/233/32
f 450/233/32 444/227/26 451/234/33
f 444/227/26 445/228/27 451/234/33
f 451/234/33 445/228/27 452/235/34
f 445/228/27 446/229/28 452/235/34
f 452/235/34 446/229/28 453/236/35
f 447/230/29 448/231/30 454/237/36
f 454/237/36 448/231/30 455/238/37
f 448/231/30 449/232/31 455/238/37
f 455/238/37 449/232/31 456/239/38
f 449/232/31 450/233/32 456/239/38
f 456/239/38 450/233/32 457/240/39
f 450/233/32 451/234/33 457/240/39
f 457/240/39 451/234/33 458/241/40
f 451/234/33 452/235/34 458/241/40
f 458/241/40 452/235/34 459/242/41
f 452/235/34 453/236/35 459/242/41
f 459/242/41 453/236/35 460/243/42
f 454/237/36 455/238/37 461/244/43
f 461/244/43 455/238/37 462/245/44
f 455/238/37 456/239/38 462/245/44
f 462/245/44 456/239/38 463/246/45
f 456/239/38 457/240/39 463/246/45
f 463/246/45 457/240/39 464/247/46
f 457/240/39 458/241/40 464/247/46
f 464/247/46 458/241/40 465/248/47
f 458/241/40 459/242/41 465/248/47
f 465/248/47 459/242/41 466/249/48
f 459/242/41 460/243/42 466/249/48
f 466/249/48 460/243/42 467/250/49
f 468/202/50 469/203/51 470/204/52
f 470/204/52 469/203/51 471/205/53
f 469/203/51 472/206/54 471/205/53
f 471/205/53 472/206/54 473/207/55
f 472/206/54 474/208/56 473/207/55
f 473/207/55 474/208/56 475/209/57
f 474/208/56 476/210/58 475/209/57
f 475/209/57 476/210/58 477/211/59
f 476/210/58 478/212/60 477/211/59
f 477/211/59 478/212/60 479/213/61
f 478/212/60 431/214/13 479/213/61
f 479/213/61 431/214/13 429/215/11
f 470/204/52 471/205/53 480/216/62
f 480/216/62 471/205/53 481/217/63
f 471/205/53 473/207/55 481/217/63
f 481/217/63 473/207/55 482/218/64
f 473/207/55 475/209/57 482/218/64
f 482/218/64 475/209/57 483/219/65
f 475/209/57 477/211/59 483/219/65
f 483/219/65 477/211/59 484/220/66
f 477/211/59 479/213/61 484/220/66
f 484/220/66 479/213/61 485/221/67
f 479/213/61 429/215/11 485/221/67
f 485/221/67 429/215/11 427/222/9
f 480/216/62 481/217/63 486/223/68
f 486/223/68 481/217/63 487/224/69
f 481/217/63 482/218/64 487/224/69
f 487/224/69 482/218/64 488/225/70
f 482/218/64 483/219/65 488/225/70
f 488/225/70 483/219/65 489/226/71
f 483/219/65 484/220/66 489/226/71
f 489/226/71 484/220/66 490/227/72
f 484/220/66 485/221/67 490/227/72
f 490/227/72 485/221/67 491/228/73
f 485/221/67 427/222/9 491/228/73
f 491/228/73 427/222/9 425/229/7
f 486/223/68 487/224/69 492/230/74
f 492/230/74 487/224/69 493/231/75
f 487/224/69 488/225/70 493/231/75
f 493/231/75 488/225/70 494/232/76
f 488/225/70 489/226/71 494/232/76
f 494/232/76 489/226/71 495/233/77
f 489/226/71 490/227/72 495/233/77
f 495/233/77 490/227/72 496/234/78
f 490/227/72 491/228/73 496/234/78
f 496/234/78 491/228/73 497/235/79
f 491/228/73 425/229/7 497/235/79
f 497/235/79 425/229/7 423/236/5
f 492/230/74 493/231/75 498/237/80
f 498/237/80 493/231/75 499/238/81
f 493/231/75 494/232/76 499/238/81
f 499/238/81 494/232/76 500/239/82
f 494/232/76 495/233/77 500/239/82
f 500/239/82 495/233/77 501/240/83
f 495/233/77 496/234/78 501/240/83
f 501/240/83 496/234/78 502/241/84
f 496/234/78 497/235/79 502/241/84
f 502/241/84 497/235/79 503/242/85
f 497/235/79 423/236/5 503/242/85
f 503/242/85 423/236/5 420/243/2
f 498/237/80 499/238/81 504/244/86
f 504/244/86 499/238/81 505/245/87
f 499/238/81 500/239/82 505/245/87
f 505/245/87 500/239/82 506/246/88
f 500/239/82 501/240/83 506/246/88
f 506/246/88 501/240/83 507/247/89
f 501/240/83 502/241/84 507/247/89
f 507/247/89 502/241/84 508/248/90
f 502/241/84 503/242/85 508/248/90
f 508/248/90 503/242/85 509/249/91
f 503/242/85 420/243/2 509/249/91
f 509/249/91 420/243/2 419/250/1
f 431/202/13 478/203/60 432/204/14
f 432/204/14 478/203/60 510/205/92
f 478/203/60 476/206/58 510/205/92
f 510/205/92 476/206/58 511/207/93
f 476/206/58 474/208/56 511/207/93
f 511/207/93 474/208/56 512/209/94
f 474/208/56 472/210/54 512/209/94
f 512/209/94 472/210/54 513/211/95
f 472/210/54 469/212/51 513/211/95
f 513/211/95 469/212/51 514/213/96
f 469/212/51 468/214/50 514/213/96
f 514/213/96 468/214/50 515/215/97
f 432/204/14 510/205/92 439/216/21
f 439/216/21 510/205/92 516/217/98
f 510/205/92 511/207/93 516/217/98
f 516/217/98 511/207/93 517/218/99
f 511/207/93 512/209/94 517/218/99
f 517/218/99 512/209/94 518/219/100
f 512/209/94 513/211/95 518/219/100
f 518/219/100 513/211/95 519/220/101
f 513/211/95 514/213/96 519/220/101
f 519/220/101 514/213/96 520/221/102
f 514/213/96 515/215/97 520/221/102
f 520/221/102 515/215/97 521/222/103
f 439/216/21 516/217/98 446/223/28
f 446/223/28 516/217/98 522/224/104
f 516/217/98 517/218/99 522/224/104
f 522/224/104 517/218/99 523/225/105
f 517/218/99 518/219/100 523/225/105
f 523/225/105 518/219/100 524/226/106
f 518/219/100 519/220/101 524/226/106
f 524/226/106 519/220/101 525/227/107
f 519/220/101 520/221/102 525/227/107
f 525/227/107 520/221/102 526/228/108
f 520/221/102 521/222/103 526/228/108
f 526/228/108 521/222/103 527/229/109
f 446/223/28 522/224/104 453/230/35
f 453/230/35 522/224/104 528/231/110
f 522/224/104 523/225/105 528/231/110
f 528/231/110 523/225/105 529/232/111
f 523/225/105 524/226/106 529/232/111
f 529/232/111 524/226/106 530/233/112
f 524/226/106 525/227/107 530/233/112
f 530/233/112 525/227/107 531/234/113
f 525/227/107 526/228/108 531/234/113
f 531/234/113 526/228/108 532/235/114
f 526/228/108 527/229/109 532/235/114
f 532/235/114 527/229/109 533/236/115
f 453/230/35 528/231/110 460/237/42
f 460/237/42 528/231/110 534/238/116
f 528/231/110 529/232/111 534/238/116
f 534/238/116 529/232/111 535/239/117
f 529/232/111 530/233/112 535/239/117
f 535/239/117 530/233/112 536/240/118
f 530/233/112 531/234/113 536/240/118
f 536/240/118 531/234/113 537/241/119
f 531/234/113 532/235/114 537/241/119
f 537/241/119 532/235/114 538/242/120
f 532/235/114 533/236/115 538/242/120
f 538/242/120 533/236/115 539/243/121
f 460/237/42 534/238/116 467/244/49
f 467/244/49 534/238/116 540/245/122
f 534/238/116 535/239/117 540/245/122
f 540/245/122 535/239/117 541/246/123
f 535/239/117 536/240/118 541/246/123
f 541/246/123 536/240/118 542/247/124
f 536/240/118 537/241/119 542/247/124
f 542/247/124 537/241/119 543/248/125
f 537/241/119 538/242/120 543/248/125
f 543/248/125 538/242/120 544/249/126
f 538/242/120 539/243/121 544/249/126
f 544/249/126 539/243/121 545/250/127
f 468/202/50 470/203/52 515/204/97
f 515/204/97 470/203/52 546/205/128
f 470/203/52 480/206/62 546/205/128
f 546/205/128 480/206/62 547/207/129
f 480/206/62 486/208/68 547/207/129
f 547/207/129 486/208/68 548/209/130
f 486/208/68 492/210/74 548/209/130
f 548/209/130 492/210/74 549/211/131
f 492/210/74 498/212/80 549/211/131
f 549/211/131 498/212/80 550/213/132
f 498/212/80 504/214/86 550/213/132
f 550/213/132 504/214/86 551/215/133
f 515/204/97 546/205/128 521/216/103
f 521/216/103 546/205/128 552/217/134
f 546/205/128 547/207/129 552/217/134
f 552/217/134 547/207/129 553/218/135
f 547/207/129 548/209/130 553/218/135
f 553/218/135 548/209/130 554/219/136
f 548/209/130 549/211/131 554/219/136
f 554/219/136 549/211/131 555/220/137
f 549/211/131 550/213/132 555/220/137
f 555/220/137 550/213/132 556/221/138
f 550/213/132 551/215/133 556/221/138
f 556/221/138 551/215/133 557/222/139
f 521/216/103 552/217/134 527/223/109
f 527/223/109 552/217/134 558/224/140
f 552/217/134 553/218/135 558/224/140
f 558/224/140 553/218/135 559/225/141
f 553/218/135 554/219/136 559/225/141
f 559/225/141 554/219/136 560/226/142
f 554/219/136 555/220/137 560/226/142
f 560/226/142 555/220/137 561/227/143
f 555/220/137 556/221/138 561/227/143
f 561/227/143 556/221/138 562/228/144
f 556/221/138 557/222/139 562/228/144
f 562/228/144 557/222/139 563/229/145
f 527/223/109 558/224/140 533/230/115
f 533/230/115 558/224/140 564/231/146
f 558/224/140 559/225/141 564/231/146
f 564/231/146 559/225/141 565/232/147
f 559/225/141 560/226/142 565/232/147
f 565/232/147 560/226/142 566/233/148
f 560/226/142 561/227/143 566/233/148
f 566/233/148 561/227/143 567/234/149
f 561/227/143 562/228/144 567/234/149
f 567/234/149 562/228/144 568/235/150
f 562/228/144 563/229/145 568/235/150
f 568/235/150 563/229/145 569/236/151
f 533/230/115 564/231/146 539/237/121
f 539/237/121 564/231/146 570/238/152
f 564/231/146 565/232/147 570/238/152
f 570/238/152 565/232/147 571/239/153
f 565/232/147 566/233/148 571/239/153
f 571/239/153 566/233/148 572/240/154
f 566/233/148 567/234/149 572/240/154
f 572/240/154 567/234/149 573/241/155
f 567/234/149 568/235/150 573/241/155
f 573/241/155 568/235/150 574/242/156
f 568/235/150 569/236/151 574/242/156
f 574/242/156 569/236/151 575/243/157
f 539/237/121 570/238/152 545/244/127
f 545/244/127 570/238/152 576/245/158
f 570/238/152 571/239/153 576/245/158
f 576/245/158 571/239/153 577/246/159
f 571/239/153 572/240/154 577/246/159
f 577/246/159 572/240/154 578/247/160
f 572/240/154 573/241/155 578/247/160
f 578/247/160 573/241/155 579/248/161
f 573/241/155 574/242/156 579/248/161
f 579/248/161 574/242/156 580/249/162
f 574/242/156 575/243/157 580/249/162
f 580/249/162 575/243/157 581/250/163
f 581/202/163 582/203/164 580/204/162
f 580/204/162 582/203/164 583/205/165
f 582/203/164 584/206/166 583/205/165
f 583/205/165 584/206/166 585/207/167
f 584/206/166 586/208/168 585/207/167
f 585/207/167 586/208/168 587/209/169
f 586/208/168 588/210/170 587/209/169
f 587/209/169 588/210/170 589/211/171
f 588/210/170 590/212/172 589/211/171
f 589/211/171 590/212/172 591/213/173
f 590/212/172 461/214/43 591/213/173
f 591/213/173 461/214/43 462/215/44
f 580/204/162 583/205/165 579/216/161
f 579/216/161 583/205/165 592/217/174
f 583/205/165 585/207/167 592/217/174
f 592/217/174 585/207/167 593/218/175
f 585/207/167 587/209/169 593/218/175
f 593/218/175 587/209/169 594/219/176
f 587/209/169 589/211/171 594/219/176
f 594/219/176 589/211/171 595/220/177
f 589/211/171 591/213/173 595/220/177
f 595/220/177 591/213/173 596/221/178
f 591/213/173 462/215/44 596/221/178
f 596/221/178 462/215/44 463/222/45
f 579/216/161 592/217/174 578/223/160
f 578/223/160 592/217/174 597/224/179
f 592/217/174 593/218/175 597/224/179
f 597/224/179 593/218/175 598/225/180
f 593/218/175 594/219/176 598/225/180
f 598/225/180 594/219/176 599/226/181
f 594/219/176 595/220/177 599/226/181
f 599/226/181 595/220/177 600/227/182
f 595/220/177 596/221/178 600/227/182
f 600/227/182 596/221/178 601/228/183
f 596/221/178 463/222/45 601/228/183
f 601/228/183 463/222/45 464/229/46
f 578/223/160 597/224/179 577/230/159
f 577/230/159 597/224/179 602/231/184
f 597/224/179 598/225/180 602/231/184
f 602/231/184 598/225/180 603/232/185
f 598/225/180 599/226/181 603/232/185
f 603/232/185 599/226/181 604/233/186
f 599/226/181 600/227/182 604/233/186
f 604/233/186 600/227/182 605/234/187
f 600/227/182 601/228/183 605/234/187
f 605/234/187 601/228/183 606/235/188
f 601/228/183 464/229/46 606/235/188
f 606/235/188 464/229/46 465/236/47
f 577/230/159 602/231/184 576/237/158
f 576/237/158 602/231/184 607/238/189
f 602/231/184 603/232/185 607/238/189
f 607/238/189 603/232/185 608/239/190
f 603/232/185 604/233/186 608/239/190
f 608/239/190 604/233/186 609/240/191
f 604/233/186 605/234/187 609/240/191
f 609/240/191 605/234/187 610/241/192
f 605/234/187 606/235/188 610/241/192
f 610/241/192 606/235/188 611/242/193
f 606/235/188 465/236/47 611/242/193
f 611/242/193 465/236/47 466/243/48
f 576/237/158 607/238/189 545/244/127
f 545/244/127 607/238/189 544/245/126
f 607/238/189 608/239/190 544/245/126
f 544/245/126 608/239/190 543/246/125
f 608/239/190 609/240/191 543/246/125
f 543/246/125 609/240/191 542/247/124
f 609/240/191 610/241/192 542/247/124
f 542/247/124 610/241/192 541/248/123
f 610/241/192 611/242/193 541/248/123
f 541/248/123 611/242/193 540/249/122
f 611/242/193 466/243/48 540/249/122
f 540/249/122 466/243/48 467/250/49
f 504/202/86 505/203/87 551/204/133
f 551/204/133 505/203/87 612/205/194
f 505/203/87 506/206/88 612/205/194
f 612/205/194 506/206/88 613/207/195
f 506/206/88 507/208/89 613/207/195
f 613/207/195 507/208/89 614/209/196
f 507/208/89 508/210/90 614/209/196
f 614/209/196 508/210/90 615/211/197
f 508/210/90 509/212/91 615/211/197
f 615/211/197 509/212/91 616/213/198
f 509/212/91 419/214/1 616/213/198
f 616/213/198 419/214/1 421/215/3
f 551/204/133 612/205/194 557/216/139
f 557/216/139 612/205/194 617/217/199
f 612/205/194 613/207/195 617/217/199
f 617/217/199 613/207/195 618/218/200
f 613/207/195 614/209/196 618/218/200
f 618/218/200 614/209/196 619/219/201
f 614/209/196 615/211/197 619/219/201
f 619/219/201 615/211/197 620/220/202
f 615/211/197 616/213/198 620/220/202
f 620/220/202 616/213/198 621/221/203
f 616/213/198 421/215/3 621/221/203
f 621/221/203 421/215/3 433/222/15
f 557/216/139 617/217/199 563/223/145
f 563/223/145 617/217/199 622/224/204
f 617/217/199 618/218/200 622/224/204
f 622/224/204 618/218/200 623/225/205
f 618/218/200 619/219/201 623/225/205
f 623/225/205 619/219/201 624/226/206
f 619/219/201 620/220/202 624/226/206
f 624/226/206 620/220/202 625/227/207
f 620/220/202 621/221/203 625/227/207
f 625/227/207 621/221/203 626/228/208
f 621/221/203 433/222/15 626/228/208
f 626/228/208 433/222/15 440/229/22
f 563/223/145 622/224/204 569/230/151
f 569/230/151 622/224/204 627/231/209
f 622/224/204 623/225/205 627/231/209
f 627/231/209 623/225/205 628/232/210
f 623/225/205 624/226/206 628/232/210
f 628/232/210 624/226/206 629/233/211
f 624/226/206 625/227/207 629/233/211
f 629/233/211 625/227/207 630/234/212
f 625/227/207 626/228/208 630/234/212
f 630/234/212 626/228/208 631/235/213
f 626/228/208 440/229/22 631/235/213
f 631/235/213 440/229/22 447/236/29
f 569/230/151 627/231/209 575/237/157
f 575/237/157 627/231/209 632/238/214
f 627/231/209 628/232/210 632/238/214
f 632/238/214 628/232/210 633/239/215
f 628/232/210 629/233/211 633/239/215
f 633/239/215 629/233/211 634/240/216
f 629/233/211 630/234/212 634/240/216
f 634/240/216 630/234/212 635/241/217
f 630/234/212 631/235/213 635/241/217
f 635/241/217 631/235/213 636/242/218
f 631/235/213 447/236/29 636/242/218
f 636/242/218 447/236/29 454/243/36
f 575/237/157 632/238/214 581/244/163
f 581/244/163 632/238/214 582/245/164
f 632/238/214 633/239/215 582/245/164
f 582/245/164 633/239/215 584/246/166
f 633/239/215 634/240/216 584/246/166
f 584/246/166 634/240/216 586/247/168
f 634/240/216 635/241/217 586/247/168
f 586/247/168 635/241/217 588/248/170
f 635/241/217 636/242/218 588/248/170
f 588/248/170 636/242/218 590/249/172
f 636/242/218 454/243/36 590/249/172
f 590/249/172 454/243/36 461/250/43
o SparkX
usemtl sparkx
f 637/251/7 638/252/7 639/253/7
f 639/253/7 638/252/7 640/254/7
f 641/255/68 638/252/68 642/256/68
f 642/256/68 638/252/68 637/254/68
f 638/255/106 641/252/106 640/256/106
f 640/256/106 641/252/106 643/254/106
f 641/251/160 642/252/160 643/253/160
f 643/253/160 642/252/160 644/254/160
f 644/255/46 639/252/46 643/256/46
f 643/256/46 639/252/46 640/254/46
f 642/255/206 637/252/206 644/256/206
f 644/256/206 637/252/206 639/254/206
o SparkY
usemtl sparky
f 645/257/46 646/258/46 647/259/46
f 647/259/46 646/258/46 648/260/46
f 649/261/7 646/258/7 650/262/7
f 650/262/7 646/258/7 645/260/7
f 646/261/106 649/258/106 648/262/106
f 648/262/106 649/258/106 651/260/106
f 649/257/68 650/258/68 651/259/68
f 651/259/68 650/258/68 652/260/68
f 652/261/160 647/258/160 651/262/160
f 651/262/160 647/258/160 648/260/160
f 650/261/206 645/258/206 652/262/206
f 652/262/206 645/258/206 647/260/206
o Shine
usemtl shine
f 653/263/1 654/264/2 655/265/3
f 655/265/3 654/264/2 656/266/4
f 654/264/2 657/267/5 656/266/4
f 656/266/4 657/267/5 658/268/6
f 657/267/5 659/269/7 658/268/6
f 658/268/6 659/269/7 660/270/8
f 659/269/7 661/271/9 660/270/8
f 660/270/8 661/271/9 662/272/10
f 661/271/9 663/273/11 662/272/10
f 662/272/10 663/273/11 664/274/12
f 663/273/11 665/275/13 664/274/12
f 664/274/12 665/275/13 666/276/14
f 655/265/3 656/266/4 667/277/15
f 667/277/15 656/266/4 668/278/16
f 656/266/4 658/268/6 668/278/16
f 668/278/16 658/268/6 669/279/17
f 658/268/6 660/270/8 669/279/17
f 669/279/17 660/270/8 670/280/18
f 660/270/8 662/272/10 670/280/18
f 670/280/18 662/272/10 671/281/19
f 662/272/10 664/274/12 671/281/19
f 671/281/19 664/274/12 672/282/20
f 664/274/12 666/276/14 672/282/20
f 672/282/20 666/276/14 673/283/21
f 667/277/15 668/278/16 674/284/22
f 674/284/22 668/278/16 675/285/23
f 668/278/16 669/279/17 675/285/23
f 675/285/23 669/279/17 676/286/24
f 669/279/17 670/280/18 676/286/24
f 676/286/24 670/280/18 677/287/25
f 670/280/18 671/281/19 677/287/25
f 677/287/25 671/281/19 678/288/26
f 671/281/19 672/282/20 678/288/26
f 678/288/26 672/282/20 679/289/27
f 672/282/20 673/283/21 679/289/27
f 679/289/27 673/283/21 680/290/28
f 674/284/22 675/285/23 681/291/29
f 681/291/29 675/285/23 682/292/30
f 675/285/23 676/286/24 682/292/30
f 682/292/30 676/286/24 683/293/31
f 676/286/24 677/287/25 683/293/31
f 683/293/31 677/287/25 684/294/32
f 677/287/25 678/288/26 684/294/32
f 684/294/32 678/288/26 685/295/33
f 678/288/26 679/289/27 685/295/33
f 685/295/33 679/289/27 686/296/34
f 679/289/27 680/290/28 686/296/34
f 686/296/34 680/290/28 687/297/35
f 681/291/29 682/292/30 688/298/36
f 688/298/36 682/292/30 689/299/37
f 682/292/30 683/293/31 689/299/37
f 689/299/37 683/293/31 690/300/38
f 683/293/31 684/294/32 690/300/38
f 690/300/38 684/294/32 691/301/39
f 684/294/32 685/295/33 691/301/39
f 691/301/39 685/295/33 692/302/40
f 685/295/33 686/296/34 692/302/40
f 692/302/40 686/296/34 693/303/41
f 686/296/34 687/297/35 693/303/41
f 693/303/41 687/297/35 694/304/42
f 688/298/36 689/299/37 695/305/43
f 695/305/43 689/299/37 696/306/44
f 689/299/37 690/300/38 696/306/44
f 696/306/44 690/300/38 697/307/45
f 690/300/38 691/301/39 697/307/45
f 697/307/45 691/301/39 698/308/46
f 691/301/39 692/302/40 698/308/46
f 698/308/46 692/302/40 699/309/47
f 692/302/40 693/303/41 699/309/47
f 699/309/47 693/303/41 700/310/48
f 693/303/41 694/304/42 700/310/48
f 700/310/48 694/304/42 701/311/49
f 702/263/50 703/264/51 704/265/52
f 704/265/52 703/264/51 705/266/53
f 703/264/51 706/267/54 705/266/53
f 705/266/53 706/267/54 707/268/55
f 706/267/54 708/269/56 707/268/55
f 707/268/55 708/269/56 709/270/57
f 708/269/56 710/271/58 709/270/57
f 709/270/57 710/271/58 711/272/59
f 710/271/58 712/273/60 711/272/59
f 711/272/59 712/273/60 713/274/61
f 712/273/60 665/275/13 713/274/61
f 713/274/61 665/275/13 663/276/11
f 704/265/52 705/266/53 714/277/62
f 714/277/62 705/266/53 715/278/63
f 705/266/53 707/268/55 715/278/63
f 715/278/63 707/268/55 716/279/64
f 707/268/55 709/270/57 716/279/64
f 716/279/64 709/270/57 717/280/65
f 709/270/57 711/272/59 717/280/65
f 717/280/65 711/272/59 718/281/66
f 711/272/59 713/274/61 718/281/66
f 718/281/66 713/274/61 719/282/67
f 713/274/61 663/276/11 719/282/67
f 719/282/67 663/276/11 661/283/9
f 714/277/62 715/278/63 720/284/68
f 720/284/68 715/278/63 721/285/69
f 715/278/63 716/279/64 721/285/69
f 721/285/69 716/279/64 722/286/70
f 716/279/64 717/280/65 722/286/70
f 722/286/70 717/280/65 723/287/71
f 717/280/65 718/281/66 723/287/71
f 723/287/71 718/281/66 724/288/72
f 718/281/66 719/282/67 724/288/72
f 724/288/72 719/282/67 725/289/73
f 719/282/67 661/283/9 725/289/73
f 725/289/73 661/283/9 659/290/7
f 720/284/68 721/285/69 726/291/74
f 726/291/74 721/285/69 727/292/75
f 721/285/69 722/286/70 727/292/75
f 727/292/75 722/286/70 728/293/76
f 722/286/70 723/287/71 728/293/76
f 728/293/76 723/287/71 729/294/77
f 723/287/71 724/288/72 729/294/77
f 729/294/77 724/288/72 730/295/78
f 724/288/72 725/289/73 730/295/78
f 730/295/78 725/289/73 731/296/79
f 725/289/73 659/290/7 731/296/79
f 731/296/79 659/290/7 657/297/5
f 726/291/74 727/292/75 732/298/80
f 732/298/80 727/292/75 733/299/81
f 727/292/75 728/293/76 733/299/81
f 733/299/81 728/293/76 734/300/82
f 728/293/76 729/294/77 734/300/82
f 734/300/82 729/294/77 735/301/83
f 729/294/77 730/295/78 735/301/83
f 735/301/83 730/295/78 736/302/84
f 730/295/78 731/296/79 736/302/84
f 736/302/84 731/296/79 737/303/85
f 731/296/79 657/297/5 737/303/85
f 737/303/85 657/297/5 654/304/2
f 732/298/80 733/299/81 738/305/86
f 738/305/86 733/299/81 739/306/87
f 733/299/81 734/300/82 739/306/87
f 739/306/87 734/300/82 740/307/88
f 734/300/82 735/301/83 740/307/88
f 740/307/88 735/301/83 741/308/89
f 735/301/83 736/302/84 741/308/89
f 741/308/89 736/302/84 742/309/90
f 736/302/84 737/303/85 742/309/90
f 742/309/90 737/303/85 743/310/91
f 737/303/85 654/304/2 743/310/91
f 743/310/91 654/304/2 653/311/1
f 665/263/13 712/264/60 666/265/14
f 666/265/14 712/264/60 744/266/92
f 712/264/60 710/267/58 744/266/92
f 744/266/92 710/267/58 745/268/93
f 710/267/58 708/269/56 745/268/93
f 745/268/93 708/269/56 746/270/94
f 708/269/56 706/271/54 746/270/94
f 746/270/94 706/271/54 747/272/95
f 706/271/54 703/273/51 747/272/95
f 747/272/95 703/273/51 748/274/96
f 703/273/51 702/275/50 748/274/96
f 748/274/96 702/275/50 749/276/97
f 666/265/14 744/266/92 673/277/21
f 673/277/21 744/266/92 750/278/98
f 744/266/92 745/268/93 750/278/98
f 750/278/98 745/268/93 751/279/99
f 745/268/93 746/270/94 751/279/99
f 751/279/99 746/270/94 752/280/100
f 746/270/94 747/272/95 752/280/100
f 752/280/100 747/272/95 753/281/101
f 747/272/95 748/274/96 753/281/101
f 753/281/101 748/274/96 754/282/102
f 748/274/96 749/276/97 754/282/102
f 754/282/102 749/276/97 755/283/103
f 673/277/21 750/278/98 680/284/28
f 680/284/28 750/278/98 756/285/104
f 750/278/98 751/279/99 756/285/104
f 756/285/104 751/279/99 757/286/105
f 751/279/99 752/280/100 757/286/105
f 757/286/105 752/280/100 758/287/106
f 752/280/100 753/281/101 758/287/106
f 758/287/106 753/281/101 759/288/107
f 753/281/101 754/282/102 759/288/107
f 759/288/107 754/282/102 760/289/108
f 754/282/102 755/283/103 760/289/108
f 760/289/108 755/283/103 761/290/109
f 680/284/28 756/285/104 687/291/35
f 687/291/35 756/285/104 762/292/110
f 756/285/104 757/286/105 762/292/110
f 762/292/110 757/286/105 763/293/111
f 757/286/105 758/287/106 763/293/111
f 763/293/111 758/287/106 764/294/112
f 758/287/106 759/288/107 764/294/112
f 764/294/112 759/288/107 765/295/113
f 759/288/107 760/289/108 765/295/113
f 765/295/113 760/289/108 766/296/114
f 760/289/108 761/290/109 766/296/114
f 766/296/114 761/290/109 767/297/115
f 687/291/35 762/292/110 694/298/42
f 694/298/42 762/292/110 768/299/116
f 762/292/110 763/293/111 768/299/116
f 768/299/116 763/293/111 769/300/117
f 763/293/111 764/294/112 769/300/117
f 769/300/117 764/294/112 770/301/118
f 764/294/112 765/295/113 770/301/118
f 770/301/118 765/295/113 771/302/119
f 765/295/113 766/296/114 771/302/119
f 771/302/119 766/296/114 772/303/120
f 766/296/114 767/297/115 772/303/120
f 772/303/120 767/297/115 773/304/121
f 694/298/42 768/299/116 701/305/49
f 701/305/49 768/299/116 774/306/122
f 768/299/116 769/300/117 774/306/122
f 774/306/122 769/300/117 775/307/123
f 769/300/117 770/301/118 775/307/123
f 775/307/123 770/301/118 776/308/124
f 770/301/118 771/302/119 776/308/124
f 776/308/124 771/302/119 777/309/125
f 771/302/119 772/303/120 777/309/125
f 777/309/125 772/303/120 778/310/126
f 772/303/120 773/304/121 778/310/126
f 778/310/126 773/304/121 779/311/127
f 702/263/50 704/264/52 749/265/97
f 749/265/97 704/264/52 780/266/128
f 704/264/52 714/267/62 780/266/128
f 780/266/128 714/267/62 781/268/129
f 714/267/62 720/269/68 781/268/129
f 781/268/129 720/269/68 782/270/130
f 720/269/68 726/271/74 782/270/130
f 782/270/130 726/271/74 783/272/131
f 726/271/74 732/273/80 783/272/131
f 783/272/131 732/273/80 784/274/132
f 732/273/80 738/275/86 784/274/132
f 784/274/132 738/275/86 785/276/133
f 749/265/97 780/266/128 755/277/103
f 755/277/103 780/266/128 786/278/134
f 780/266/128 781/268/129 786/278/134
f 786/278/134 781/268/129 787/279/135
f 781/268/129 782/270/130 787/279/135
f 787/279/135 782/270/130 788/280/136
f 782/270/130 783/272/131 788/280/136
f 788/280/136 783/272/131 789/281/137
f 783/272/131 784/274/132 789/281/137
f 789/281/137 784/274/132 790/282/138
f 784/274/132 785/276/133 790/282/138
f 790/282/138 785/276/133 791/283/139
f 755/277/103 786/278/134 761/284/109
f 761/284/109 786/278/134 792/285/140
f 786/278/134 787/279/135 792/285/140
f 792/285/140 787/279/135 793/286/141
f 787/279/135 788/280/136 793/286/141
f 793/286/141 788/280/136 794/287/142
f 788/280/136 789/281/137 794/287/142
f 794/287/142 789/281/137 795/288/143
f 789/281/137 790/282/138 795/288/143
f 795/288/143 790/282/138 796/289/144
f 790/282/138 791/283/139 796/289/144
f 796/289/144 791/283/139 797/290/145
f 761/284/109 792/285/140 767/291/115
f 767/291/115 792/285/140 798/292/146
f 792/285/140 793/286/141 798/292/146
f 798/292/146 793/286/141 799/293/147
f 793/286/141 794/287/142 799/293/147
f 799/293/147 794/287/142 800/294/148
f 794/287/142 795/288/143 800/294/148
f 800/294/148 795/288/143 801/295/149
f 795/288/143 796/289/144 801/295/149
f 801/295/149 796/289/144 802/296/150
f 796/289/144 797/290/145 802/296/150
f 802/296/150 797/290/145 803/297/151
f 767/291/115 798/292/146 773/298/121
f 773/298/121 798/292/146 804/299/152
f 798/292/146 799/293/147 804/299/152
f 804/299/152 799/293/147 805/300/153
f 799/293/147 800/294/148 805/300/153
f 805/300/153 800/294/148 806/301/154
f 800/294/148 801/295/149 806/301/154
f 806/301/154 801/295/149 807/302/155
f 801/295/149 802/296/150 807/302/155
f 807/302/155 802/296/150 808/303/156
f 802/296/150 803/297/151 808/303/156
f 808/303/156 803/297/151 809/304/157
f 773/298/121 804/299/152 779/305/127
f 779/305/127 804/299/152 810/306/158
f 804/299/152 805/300/153 810/306/158
f 810/306/158 805/300/153 811/307/159
f 805/300/153 806/301/154 811/307/159
f 811/307/159 806/301/154 812/308/160
f 806/301/154 807/302/155 812/308/160
f 812/308/160 807/302/155 813/309/161
f 807/302/155 808/303/156 813/309/161
f 813/309/161 808/303/156 814/310/162
f 808/303/156 809/304/157 814/310/162
f 814/310/162 809/304/157 815/311/163
f 815/263/163 816/264/164 814/265/162
f 814/265/162 816/264/164 817/266/165
f 816/264/164 818/267/166 817/266/165
f 817/266/165 818/267/166 819/268/167
f 818/267/166 820/269/168 819/268/167
f 819/268/167 820/269/168 821/270/169
f 820/269/168 822/271/170 821/270/169
f 821/270/169 822/271/170 823/272/171
f 822/271/170 824/273/172 823/272/171
f 823/272/171 824/273/172 825/274/173
f 824/273/172 695/275/43 825/274/173
f 825/274/173 695/275/43 696/276/44
f 814/265/162 817/266/165 813/277/161
f 813/277/161 817/266/165 826/278/174
f 817/266/165 819/268/167 826/278/174
f 826/278/174 819/268/167 827/279/175
f 819/268/167 821/270/169 827/279/175
f 827/279/175 821/270/169 828/280/176
f 821/270/169 823/272/171 828/280/176
f 828/280/176 823/272/171 829/281/177
f 823/272/171 825/274/173 829/281/177
f 829/281/177 825/274/173 830/282/178
f 825/274/173 696/276/44 830/282/178
f 830/282/178 696/276/44 697/283/45
f 813/277/161 826/278/174 812/284/160
f 812/284/160 826/278/174 831/285/179
f 826/278/174 827/279/175 831/285/179
f 831/285/179 827/279/175 832/286/180
f 827/279/175 828/280/176 832/286/180
f 832/286/180 828/280/176 833/287/181
f 828/280/176 829/281/177 833/287/181
f 833/287/181 829/281/177 834/288/182
f 829/281/177 830/282/178 834/288/182
f 834/288/182 830/282/178 835/289/183
f 830/282/178 697/283/45 835/289/183
f 835/289/183 697/283/45 698/290/46
f 812/284/160 831/285/179 811/291/159
f 811/291/159 831/285/179 836/292/184
f 831/285/179 832/286/180 836/292/184
f 836/292/184 832/286/180 837/293/185
f 832/286/180 833/287/181 837/293/185
f 837/293/185 833/287/181 838/294/186
f 833/287/181 834/288/182 838/294/186
f 838/294/186 834/288/182 839/295/187
f 834/288/182 835/289/183 839/295/187
f 839/295/187 835/289/183 840/296/188
f 835/289/183 698/290/46 840/296/188
f 840/296/188 698/290/46 699/297/47
f 811/291/159 836/292/184 810/298/158
f 810/298/158 836/292/184 841/299/189
f 836/292/184 837/293/185 841/299/189
f 841/299/189 837/293/185 842/300/190
f 837/293/185 838/294/186 842/300/190
f 842/300/190 838/294/186 843/301/191
f 838/294/186 839/295/187 843/301/191
f 843/301/191 839/295/187 844/302/192
f 839/295/187 840/296/188 844/302/192
f 844/302/192 840/296/188 845/303/193
f 840/296/188 699/297/47 845/303/193
f 845/303/193 699/297/47 700/304/48
f 810/298/158 841/299/189 779/305/127
f 779/305/127 841/299/189 778/306/126
f 841/299/189 842/300/190 778/306/126
f 778/306/126 842/300/190 777/307/125
f 842/300/190 843/301/191 777/307/125
f 777/307/125 843/301/191 776/308/124
f 843/301/191 844/302/192 776/308/124
f 776/308/124 844/302/192 775/309/123
f 844/302/192 845/303/193 775/309/123
f 775/309/123 845/303/193 774/310/122
f 845/303/193 700/304/48 774/310/122
f 774/310/122 700/304/48 701/311/49
f 738/263/86 739/264/87 785/265/133
f 785/265/133 739/264/87 846/266/194
f 739/264/87 740/267/88 846/266/194
f 846/266/194 740/267/88 847/268/195
f 740/267/88 741/269/89 847/268/195
f 847/268/195 741/269/89 848/270/196
f 741/269/89 742/271/90 848/270/196
f 848/270/196 742/271/90 849/272/197
f 742/271/90 743/273/91 849/272/197
f 849/272/197 743/273/91 850/274/198
f 743/273/91 653/275/1 850/274/198
f 850/274/198 653/275/1 655/276/3
f 785/265/133 846/266/194 791/277/139
f 791/277/139 846/266/194 851/278/199
f 846/266/194 847/268/195 851/278/199
f 851/278/199 847/268/195 852/279/200
f 847/268/195 848/270/196 852/279/200
f 852/279/200 848/270/196 853/280/201
f 848/270/196 849/272/197 853/280/201
f 853/280/201 849/272/197 854/281/202
f 849/272/197 850/274/198 854/281/202
f 854/281/202 850/274/198 855/282/203
f 850/274/198 655/276/3 855/282/203
f 855/282/203 655/276/3 667/283/15
f 791/277/139 851/278/199 797/284/145
f 797/284/145 851/278/199 856/285/204
f 851/278/199 852/279/200 856/285/204
f 856/285/204 852/279/200 857/286/205
f 852/279/200 853/280/201 857/286/205
f 857/286/205 853/280/201 858/287/206
f 853/280/201 854/281/202 858/287/206
f 858/287/206 854/281/202 859/288/207
f 854/281/202 855/282/203 859/288/207
f 859/288/207 855/282/203 860/289/208
f 855/282/203 667/283/15 860/289/208
f 860/289/208 667/283/15 674/290/22
f 797/284/145 856/285/204 803/291/151
f 803/291/151 856/285/204 861/292/209
f 856/285/204 857/286/205 861/292/209
f 861/292/209 857/286/205 862/293/210
f 857/286/205 858/287/206 862/293/210
f 862/293/210 858/287/206 863/294/211
f 858/287/206 859/288/207 863/294/211
f 863/294/211 859/288/207 864/295/212
f 859/288/207 860/289/208 864/295/212
f 864/295/212 860/289/208 865/296/213
f 860/289/208 674/290/22 865/296/213
f 865/296/213 674/290/22 681/297/29
f 803/291/151 861/292/209 809/298/157
f 809/298/157 861/292/209 866/299/214
f 861/292/209 862/293/210 866/299/214
f 866/299/214 862/293/210 867/300/215
f 862/293/210 863/294/211 867/300/215
f 867/300/215 863/294/211 868/301/216
f 863/294/211 864/295/212 868/301/216
f 868/301/216 864/295/212 869/302/217
f 864/295/212 865/296/213 869/302/217
f 869/302/217 865/296/213 870/303/218
f 865/296/213 681/297/29 870/303/218
f 870/303/218 681/297/29 688/304/36
f 809/298/157 866/299/214 815/305/163
f 815/305/163 866/299/214 816/306/164
f 866/299/214 867/300/215 816/306/164
f 816/306/164 867/300/215 818/307/166
f 867/300/215 868/301/216 818/307/166
f 818/307/166 868/301/216 820/308/168
f 868/301/216 869/302/217 820/308/168
f 820/308/168 869/302/217 822/309/170
f 869/302/217 870/303/218 822/309/170
f 822/309/170 870/303/218 824/310/172
f 870/303/218 688/304/36 824/310/172
f 824/310/172 688/304/36 695/311/43
