# Roblox asset pack: egg_spinosaurus (props), from the Studio model "Spinosaurus". Exported with Export Selection, split by tools/build_creatures.py: one object per rigid body. Units: studs. +Y up, front faces -Z, pivot (bottom centre) at the origin.
mtllib egg_spinosaurus.mtl

v -3.19710 5.81000 0.00000
v 3.19710 5.81000 0.00000
v -3.19710 3.49000 0.00000
v 3.19710 3.49000 0.00000
v 3.19710 5.81000 2.33000
v -3.19710 5.81000 2.33000
v 3.19710 3.49000 2.33000
v -3.19710 3.49000 2.33000
v -3.19710 5.81000 -2.33000
v 3.19710 5.81000 -2.33000
v -3.19710 3.49000 -2.33000
v 3.19710 3.49000 -2.33000
v 0.00010 5.81000 -3.20000
v 2.32520 5.81000 -3.20000
v 0.00010 3.49000 -3.20000
v 2.32520 3.49000 -3.20000
v 2.32520 5.81000 3.20000
v 0.00010 5.81000 3.20000
v 2.32520 3.49000 3.20000
v 0.00010 3.49000 3.20000
v -2.32510 3.49000 -3.20000
v 2.32510 3.49000 -3.20000
v -2.32510 1.16000 -3.20000
v 2.32510 1.16000 -3.20000
v 2.32510 3.49000 3.20000
v -2.32510 3.49000 3.20000
v 2.32510 1.16000 3.20000
v -2.32510 1.16000 3.20000
v -3.19710 1.16000 0.00000
v 3.19710 1.16000 0.00000
v 3.19710 1.16000 2.33000
v -3.19710 1.16000 2.33000
v -1.74380 9.88000 -1.74000
v 1.74390 9.88000 -1.74000
v -1.74380 8.14000 -1.74000
v 1.74390 8.14000 -1.74000
v 1.74390 9.88000 1.74000
v -1.74380 9.88000 1.74000
v 1.74390 8.14000 1.74000
v -1.74380 8.14000 1.74000
v -2.32510 8.14000 -2.33000
v 2.32510 8.14000 -2.33000
v -2.32510 0.00000 -2.33000
v 2.32510 0.00000 -2.33000
v 2.32510 8.14000 2.33000
v -2.32510 8.14000 2.33000
v 2.32510 0.00000 2.33000
v -2.32510 0.00000 2.33000
v -3.19710 1.16000 -2.33000
v 3.19710 1.16000 -2.33000
v -2.32500 5.81000 -3.20000
v -2.32500 3.49000 -3.20000
v -2.32500 5.81000 3.20000
v -2.32500 3.49000 3.20000
vt 5.29926 -3.50000
vt 4.50000 -3.50000
vt 5.29926 -3.79064
vt 4.50000 -3.79064
vt 4.79064 -3.50000
vt 4.79064 -4.29926
vt 4.50000 -4.29926
vt 4.79064 -3.79064
vt 8.04926 -0.75000
vt 7.25000 -0.75000
vt 8.04926 -1.04064
vt 7.25000 -1.04064
vt 7.54064 -0.75000
vt 7.54064 -1.54926
vt 7.25000 -1.54926
vt 7.54064 -1.04064
vt 3.29064 -0.50000
vt 3.00000 -0.50000
vt 3.29064 -0.79064
vt 3.00000 -0.79064
vt 3.79926 -0.50000
vt 3.79926 -0.79064
vt 0.58128 -6.25000
vt 0.00000 -6.25000
vt 0.58128 -6.54064
vt 0.00000 -6.54064
vt 0.79926 -6.25000
vt 0.79926 -6.83128
vt 0.00000 -6.83128
vt 0.79926 -6.54064
vt 2.29926 -0.50000
vt 1.50000 -0.50000
vt 2.29926 -0.79064
vt 1.50000 -0.79064
vt 1.79064 -0.50000
vt 1.79064 -1.29926
vt 1.50000 -1.29926
vt 1.79064 -0.79064
vt 5.18596 -5.00000
vt 4.75000 -5.00000
vt 5.18596 -5.21798
vt 4.75000 -5.21798
vt 5.18596 -5.43596
vt 4.75000 -5.43596
vt 4.58128 -2.75000
vt 4.00000 -2.75000
vt 4.58128 -3.76724
vt 4.00000 -3.76724
vt 4.58128 -3.33128
vt 4.00000 -3.33128
vt 2.79926 0.50000
vt 2.00000 0.50000
vt 2.79926 0.20936
vt 2.00000 0.20936
vt 2.29064 0.50000
vt 2.29064 -0.29926
vt 2.00000 -0.29926
vt 2.29064 0.20936
vt 6.04064 -1.25000
vt 5.75000 -1.25000
vt 6.04064 -1.54064
vt 5.75000 -1.54064
vt 6.54926 -1.25000
vt 6.54926 -1.54064
vn 0.0000 0.0000 -1.0000
vn 0.0000 1.0000 0.0000
vn 1.0000 0.0000 0.0000
vn 0.0000 0.0000 1.0000
vn 0.0000 -1.0000 0.0000
vn -1.0000 0.0000 0.0000

o egg_spinosaurus
usemtl c_be6862
f 1/1/1 2/2/1 3/3/1
f 3/3/1 2/2/1 4/4/1
f 5/5/2 2/2/2 6/6/2
f 6/6/2 2/2/2 1/7/2
f 2/5/3 5/2/3 4/8/3
f 4/8/3 5/2/3 7/4/3
f 5/1/4 6/2/4 7/3/4
f 7/3/4 6/2/4 8/4/4
f 8/5/5 3/2/5 7/6/5
f 7/6/5 3/2/5 4/7/5
f 6/5/6 1/2/6 8/8/6
f 8/8/6 1/2/6 3/4/6
f 9/9/1 10/10/1 11/11/1
f 11/11/1 10/10/1 12/12/1
f 2/13/2 10/10/2 1/14/2
f 1/14/2 10/10/2 9/15/2
f 10/13/3 2/10/3 12/16/3
f 12/16/3 2/10/3 4/12/3
f 2/9/4 1/10/4 4/11/4
f 4/11/4 1/10/4 3/12/4
f 3/13/5 11/10/5 4/14/5
f 4/14/5 11/10/5 12/15/5
f 1/13/6 9/10/6 3/16/6
f 3/16/6 9/10/6 11/12/6
f 13/17/1 14/18/1 15/19/1
f 15/19/1 14/18/1 16/20/1
f 17/21/2 14/18/2 18/22/2
f 18/22/2 14/18/2 13/20/2
f 14/21/3 17/18/3 16/22/3
f 16/22/3 17/18/3 19/20/3
f 17/17/4 18/18/4 19/19/4
f 19/19/4 18/18/4 20/20/4
f 20/21/5 15/18/5 19/22/5
f 19/22/5 15/18/5 16/20/5
f 18/21/6 13/18/6 20/22/6
f 20/22/6 13/18/6 15/20/6
usemtl c_a34b4b
f 21/23/1 22/24/1 23/25/1
f 23/25/1 22/24/1 24/26/1
f 25/27/2 22/24/2 26/28/2
f 26/28/2 22/24/2 21/29/2
f 22/27/3 25/24/3 24/30/3
f 24/30/3 25/24/3 27/26/3
f 25/23/4 26/24/4 27/25/4
f 27/25/4 26/24/4 28/26/4
f 28/27/5 23/24/5 27/28/5
f 27/28/5 23/24/5 24/29/5
f 26/27/6 21/24/6 28/30/6
f 28/30/6 21/24/6 23/26/6
f 3/31/1 4/32/1 29/33/1
f 29/33/1 4/32/1 30/34/1
f 7/35/2 4/32/2 8/36/2
f 8/36/2 4/32/2 3/37/2
f 4/35/3 7/32/3 30/38/3
f 30/38/3 7/32/3 31/34/3
f 7/31/4 8/32/4 31/33/4
f 31/33/4 8/32/4 32/34/4
f 32/35/5 29/32/5 31/36/5
f 31/36/5 29/32/5 30/37/5
f 8/35/6 3/32/6 32/38/6
f 32/38/6 3/32/6 29/34/6
usemtl c_ff9494
f 33/39/1 34/40/1 35/41/1
f 35/41/1 34/40/1 36/42/1
f 37/39/2 34/40/2 38/43/2
f 38/43/2 34/40/2 33/44/2
f 34/39/3 37/40/3 36/41/3
f 36/41/3 37/40/3 39/42/3
f 37/39/4 38/40/4 39/41/4
f 39/41/4 38/40/4 40/42/4
f 40/39/5 35/40/5 39/43/5
f 39/43/5 35/40/5 36/44/5
f 38/39/6 33/40/6 40/41/6
f 40/41/6 33/40/6 35/42/6
f 41/45/1 42/46/1 43/47/1
f 43/47/1 42/46/1 44/48/1
f 45/45/2 42/46/2 46/49/2
f 46/49/2 42/46/2 41/50/2
f 42/45/3 45/46/3 44/47/3
f 44/47/3 45/46/3 47/48/3
f 45/45/4 46/46/4 47/47/4
f 47/47/4 46/46/4 48/48/4
f 48/45/5 43/46/5 47/49/5
f 47/49/5 43/46/5 44/50/5
f 46/45/6 41/46/6 48/47/6
f 48/47/6 41/46/6 43/48/6
usemtl c_1b2a35
f 11/51/1 12/52/1 49/53/1
f 49/53/1 12/52/1 50/54/1
f 4/55/2 12/52/2 3/56/2
f 3/56/2 12/52/2 11/57/2
f 12/55/3 4/52/3 50/58/3
f 50/58/3 4/52/3 30/54/3
f 4/51/4 3/52/4 30/53/4
f 30/53/4 3/52/4 29/54/4
f 29/55/5 49/52/5 30/56/5
f 30/56/5 49/52/5 50/57/5
f 3/55/6 11/52/6 29/58/6
f 29/58/6 11/52/6 49/54/6
f 51/59/1 13/60/1 52/61/1
f 52/61/1 13/60/1 15/62/1
f 18/63/2 13/60/2 53/64/2
f 53/64/2 13/60/2 51/62/2
f 13/63/3 18/60/3 15/64/3
f 15/64/3 18/60/3 20/62/3
f 18/59/4 53/60/4 20/61/4
f 20/61/4 53/60/4 54/62/4
f 54/63/5 52/60/5 20/64/5
f 20/64/5 52/60/5 15/62/5
f 53/63/6 51/60/6 54/64/6
f 54/64/6 51/60/6 52/62/6
