# Roblox asset pack: mutadon (creatures), from the Studio model "Mutadon". Exported with Export Selection, split by tools/build_creatures.py: one object per rigid body. Units: studs. +Y up, front faces -Z, pivot (bottom centre) at the origin.
mtllib mutadon.mtl

v 1.50000 7.99990 -3.29000
v 1.50000 7.99990 -1.79000
v 1.50000 5.24990 -3.29000
v 1.50000 5.24990 -1.79000
v -1.50000 7.99990 -1.79000
v -1.50000 7.99990 -3.29000
v -1.50000 5.24990 -1.79000
v -1.50000 5.24990 -3.29000
v 2.00000 8.49990 -2.29000
v 2.00000 8.49990 0.71000
v 2.00000 4.99990 -2.29000
v 2.00000 4.99990 0.71000
v -2.00000 8.49990 0.71000
v -2.00000 8.49990 -2.29000
v -2.00000 4.99990 0.71000
v -2.00000 4.99990 -2.29000
v 1.25000 5.24990 -3.29000
v 1.25000 5.24990 -0.79000
v 1.25000 3.49990 -3.29000
v 1.25000 3.49990 -0.79000
v -1.25000 5.24990 -0.79000
v -1.25000 5.24990 -3.29000
v -1.25000 3.49990 -0.79000
v -1.25000 3.49990 -3.29000
v 2.00000 3.74990 -2.29000
v 2.00000 3.74990 0.71000
v -2.00000 3.74990 0.71000
v -2.00000 3.74990 -2.29000
v 0.50000 8.11990 0.40000
v 0.50000 7.83990 3.64000
v 0.50000 7.12990 0.31000
v 0.50000 6.83990 3.55000
v -0.50000 7.83990 3.64000
v -0.50000 8.11990 0.40000
v -0.50000 6.83990 3.55000
v -0.50000 7.12990 0.31000
v 1.75000 4.88990 0.11000
v 1.75000 4.61990 3.10000
v 1.75000 3.88990 0.03000
v 1.75000 3.62990 3.02000
v -1.75000 4.61990 3.10000
v -1.75000 4.88990 0.11000
v -1.75000 3.62990 3.02000
v -1.75000 3.88990 0.03000
v 1.50000 4.70990 2.64000
v 1.50000 4.35990 4.61000
v 1.50000 3.71990 2.46000
v 1.50000 3.36990 4.43000
v -1.50000 4.35990 4.61000
v -1.50000 4.70990 2.64000
v -1.50000 3.36990 4.43000
v -1.50000 3.71990 2.46000
v 0.50000 7.40990 3.12000
v 0.50000 7.01990 5.33000
v 0.50000 6.42990 2.94000
v 0.50000 6.03990 5.16000
v -0.50000 7.01990 5.33000
v -0.50000 7.40990 3.12000
v -0.50000 6.03990 5.16000
v -0.50000 6.42990 2.94000
v 1.50000 5.68990 2.81000
v 1.50000 5.33990 4.78000
v 1.50000 5.19990 2.72000
v 1.50000 4.84990 4.69000
v -1.50000 5.33990 4.78000
v -1.50000 5.68990 2.81000
v -1.50000 4.84990 4.69000
v -1.50000 5.19990 2.72000
v 1.75000 7.86990 0.38000
v 1.75000 7.60990 3.37000
v -1.75000 7.60990 3.37000
v -1.75000 7.86990 0.38000
v 1.50000 7.16990 3.07000
v 1.50000 6.81990 5.04000
v -1.50000 6.81990 5.04000
v -1.50000 7.16990 3.07000
v -2.00000 1.99990 3.71000
v -2.00000 1.99990 4.71000
v -2.00000 1.49990 3.71000
v -2.00000 1.49990 4.71000
v -3.00000 1.99990 4.71000
v -3.00000 1.99990 3.71000
v -3.00000 1.49990 4.71000
v -3.00000 1.49990 3.71000
v -1.50000 5.24990 1.71000
v -1.50000 5.24990 3.71000
v -1.50000 4.74990 1.71000
v -1.50000 4.74990 3.71000
v -3.50000 5.24990 3.71000
v -3.50000 5.24990 1.71000
v -3.50000 4.74990 3.71000
v -3.50000 4.74990 1.71000
v -1.50000 4.24990 1.71000
v -1.50000 4.24990 3.71000
v -1.50000 3.74990 1.71000
v -1.50000 3.74990 3.71000
v -3.50000 4.24990 3.71000
v -3.50000 4.24990 1.71000
v -3.50000 3.74990 3.71000
v -3.50000 3.74990 1.71000
v -2.00000 2.99990 3.71000
v -2.00000 2.99990 4.71000
v -2.00000 2.49990 3.71000
v -2.00000 2.49990 4.71000
v -3.00000 2.99990 4.71000
v -3.00000 2.99990 3.71000
v -3.00000 2.49990 4.71000
v -3.00000 2.49990 3.71000
v -1.50000 5.99990 0.71000
v -1.50000 5.99990 1.71000
v -1.50000 2.99990 0.71000
v -1.50000 2.99990 1.71000
v -3.50000 5.99990 1.71000
v -3.50000 5.99990 0.71000
v -3.50000 2.99990 1.71000
v -3.50000 2.99990 0.71000
v -1.50000 5.99990 3.71000
v -3.50000 5.99990 3.71000
v -2.00000 3.99990 3.71000
v -2.00000 3.99990 4.71000
v -3.00000 3.99990 4.71000
v -3.00000 3.99990 3.71000
v -1.50000 2.99990 3.71000
v -3.50000 2.99990 3.71000
v -2.00000 0.99990 3.71000
v -2.00000 0.99990 4.71000
v -3.00000 0.99990 4.71000
v -3.00000 0.99990 3.71000
v -1.50000 0.99990 2.71000
v -1.50000 0.99990 4.71000
v -1.50000 -0.00010 2.71000
v -1.50000 -0.00010 4.71000
v -3.50000 0.99990 4.71000
v -3.50000 0.99990 2.71000
v -3.50000 -0.00010 4.71000
v -3.50000 -0.00010 2.71000
v -2.00000 1.99990 1.71000
v -2.00000 1.99990 2.71000
v -2.00000 0.99990 1.71000
v -2.00000 0.99990 2.71000
v -3.00000 1.99990 2.71000
v -3.00000 1.99990 1.71000
v -3.00000 0.99990 2.71000
v -3.00000 0.99990 1.71000
v -2.00000 1.99990 0.71000
v -2.00000 0.99990 0.71000
v -3.00000 1.99990 0.71000
v -3.00000 0.99990 0.71000
v -1.50000 0.99990 1.71000
v -1.50000 -0.00010 1.71000
v -3.50000 0.99990 1.71000
v -3.50000 -0.00010 1.71000
v 6.81990 7.49990 -2.82000
v 7.44490 7.49990 -1.74000
v 6.81990 6.49990 -2.82000
v 7.44490 6.49990 -1.74000
v 5.92940 7.49990 -0.87000
v 5.30440 7.49990 -1.95000
v 5.92940 6.49990 -0.87000
v 5.30440 6.49990 -1.95000
v 7.68580 7.49990 -3.32000
v 8.31090 7.49990 -2.24000
v 7.68580 6.49990 -3.32000
v 8.31090 6.49990 -2.24000
v 7.87790 7.49990 -1.99000
v 7.25280 7.49990 -3.07000
v 7.87790 6.49990 -1.99000
v 7.25280 6.49990 -3.07000
v 6.05850 7.74990 -2.09000
v 6.05850 7.74990 -0.84000
v 6.05850 6.24990 -2.09000
v 6.05850 6.24990 -0.84000
v 1.80800 7.74990 -0.84000
v 1.80800 7.74990 -2.09000
v 1.80800 6.24990 -0.84000
v 1.80800 6.24990 -2.09000
v 8.55190 7.49990 -3.82000
v 9.17700 7.49990 -2.74000
v 8.55190 6.49990 -3.82000
v 9.17700 6.49990 -2.74000
v 8.74400 7.49990 -2.49000
v 8.11890 7.49990 -3.57000
v 8.74400 6.49990 -2.49000
v 8.11890 6.49990 -3.57000
v 15.67150 7.49990 -4.47000
v 15.75870 7.49990 -3.48000
v 15.67150 6.49990 -4.47000
v 15.75870 6.49990 -3.48000
v 8.78530 7.49990 -2.87000
v 8.69810 7.49990 -3.86000
v 8.78530 6.49990 -2.87000
v 8.69810 6.49990 -3.86000
v 10.21640 7.24990 -3.67000
v 10.91090 7.24990 0.27000
v 10.21640 6.74990 -3.67000
v 10.91090 6.74990 0.27000
v 8.94130 7.24990 0.62000
v 8.24680 7.24990 -3.32000
v 8.94130 6.74990 0.62000
v 8.24680 6.74990 -3.32000
v 15.22730 7.24990 -4.05000
v 15.66140 7.24990 -1.58000
v 15.22730 6.74990 -4.05000
v 15.66140 6.74990 -1.58000
v 10.73730 7.24990 -0.72000
v 10.30320 7.24990 -3.18000
v 10.73730 6.74990 -0.72000
v 10.30320 6.74990 -3.18000
v 7.14550 7.24990 1.95000
v 7.49280 7.24990 3.92000
v 7.14550 6.74990 1.95000
v 7.49280 6.74990 3.92000
v 4.04600 7.24990 4.53000
v 3.69900 7.24990 2.56000
v 4.04600 6.74990 4.53000
v 3.69900 6.74990 2.56000
v 6.45100 7.24990 -1.99000
v 7.14540 7.24990 1.95000
v 6.45100 6.74990 -1.99000
v 7.14540 6.74990 1.95000
v 1.72900 7.24990 2.90000
v 1.03400 7.24990 -1.04000
v 1.72900 6.74990 2.90000
v 1.03400 6.74990 -1.04000
v 8.33360 7.24990 -2.83000
v 9.28860 7.24990 2.59000
v 8.33360 6.74990 -2.83000
v 9.28860 6.74990 2.59000
v 7.31890 7.24990 2.93000
v 6.36400 7.24990 -2.48000
v 7.31890 6.74990 2.93000
v 6.36400 6.74990 -2.48000
v 8.11880 7.49990 -3.57000
v 8.74390 7.49990 -2.49000
v 8.11880 6.49990 -3.57000
v 8.74390 6.49990 -2.49000
v 7.25290 7.49990 -3.07000
v 7.25290 6.49990 -3.07000
v 8.93120 7.67990 -4.07000
v 8.98770 7.30990 -3.42000
v 8.88760 6.81990 -4.57000
v 8.94410 6.43990 -3.92000
v 8.48960 7.30990 -3.38000
v 8.43310 7.67990 -4.02000
v 8.44600 6.43990 -3.88000
v 8.38950 6.81990 -4.52000
v 0.50000 4.81990 7.74000
v 0.50000 4.20990 11.18000
v 0.50000 4.32990 7.65000
v 0.50000 3.71990 11.10000
v -0.50000 4.20990 11.18000
v -0.50000 4.81990 7.74000
v -0.50000 3.71990 11.10000
v -0.50000 4.32990 7.65000
v 1.00000 4.35990 4.61000
v 1.00000 3.83990 7.56000
v 1.00000 3.86990 4.52000
v 1.00000 3.34990 7.48000
v -1.00000 3.83990 7.56000
v -1.00000 4.35990 4.61000
v -1.00000 3.34990 7.48000
v -1.00000 3.86990 4.52000
v 1.00000 5.33990 4.78000
v 1.00000 4.81990 7.74000
v 1.00000 4.84990 4.69000
v 1.00000 4.32990 7.65000
v -1.00000 4.81990 7.74000
v -1.00000 5.33990 4.78000
v -1.00000 4.32990 7.65000
v -1.00000 4.84990 4.69000
v 0.25000 6.56990 5.00000
v 0.25000 6.04990 7.95000
v 0.25000 5.83990 4.87000
v 0.25000 5.31990 7.82000
v -0.25000 6.04990 7.95000
v -0.25000 6.56990 5.00000
v -0.25000 5.31990 7.82000
v -0.25000 5.83990 4.87000
v 0.50000 3.80990 10.60000
v 0.50000 3.83990 7.56000
v 0.50000 3.31990 10.52000
v -0.50000 3.80990 10.60000
v -0.50000 3.31990 10.52000
v -0.50000 3.83990 7.56000
v 0.50000 5.30990 7.82000
v 0.50000 4.70990 11.27000
v -0.50000 4.70990 11.27000
v -0.50000 5.30990 7.82000
v 1.00000 6.32990 4.96000
v 1.00000 5.80990 7.91000
v -1.00000 5.80990 7.91000
v -1.00000 6.32990 4.96000
v 1.25000 8.25990 -5.68000
v 1.25000 8.01990 -2.94000
v 1.25000 5.76990 -5.90000
v 1.25000 5.52990 -3.16000
v -1.25000 8.01990 -2.94000
v -1.25000 8.25990 -5.68000
v -1.25000 5.52990 -3.16000
v -1.25000 5.76990 -5.90000
v 1.00000 8.49990 -10.04000
v 1.00000 8.49990 -8.54000
v 1.00000 7.49990 -10.04000
v 1.00000 7.49990 -8.54000
v -1.00000 8.49990 -8.54000
v -1.00000 8.49990 -10.04000
v -1.00000 7.49990 -8.54000
v -1.00000 7.49990 -10.04000
v 1.25000 8.74990 -8.54000
v 1.25000 8.74990 -5.29000
v 1.25000 7.24990 -8.54000
v 1.25000 7.24990 -5.29000
v -1.25000 8.74990 -5.29000
v -1.25000 8.74990 -8.54000
v -1.25000 7.24990 -5.29000
v -1.25000 7.24990 -8.54000
v 0.50000 6.63990 -8.85000
v 0.50000 6.80990 -6.86000
v 0.50000 5.88990 -8.79000
v 0.50000 6.06990 -6.80000
v -0.50000 6.80990 -6.86000
v -0.50000 6.63990 -8.85000
v -0.50000 6.06990 -6.80000
v -0.50000 5.88990 -8.79000
v 0.50000 6.09990 -9.31000
v 0.50000 6.13990 -8.81000
v 0.50000 5.84990 -9.29000
v -0.50000 6.13990 -8.81000
v -0.50000 6.09990 -9.31000
v -0.50000 5.84990 -9.29000
v 1.50000 8.24990 -8.04000
v 1.50000 8.24990 -7.29000
v 1.50000 7.49990 -8.04000
v 1.50000 7.49990 -7.29000
v -1.50000 8.24990 -7.29000
v -1.50000 8.24990 -8.04000
v -1.50000 7.49990 -7.29000
v -1.50000 7.49990 -8.04000
v 0.75000 5.77990 -10.03000
v 0.75000 5.90990 -8.54000
v 0.75000 4.53990 -9.92000
v 0.75000 4.66990 -8.43000
v -0.75000 5.90990 -8.54000
v -0.75000 5.77990 -10.03000
v -0.75000 4.66990 -8.43000
v -0.75000 4.53990 -9.92000
v 1.25000 6.40990 -8.58000
v 1.25000 6.53990 -7.09000
v 1.25000 4.66990 -8.43000
v 1.25000 4.79990 -6.94000
v -1.25000 6.53990 -7.09000
v -1.25000 6.40990 -8.58000
v -1.25000 4.79990 -6.94000
v -1.25000 4.66990 -8.43000
v 1.00000 6.47990 -6.63000
v 1.00000 5.44990 -2.77000
v 1.00000 4.54990 -7.15000
v 1.00000 3.50990 -3.29000
v -1.00000 5.44990 -2.77000
v -1.00000 6.47990 -6.63000
v -1.00000 3.50990 -3.29000
v -1.00000 4.54990 -7.15000
v 0.50000 5.70990 -10.72000
v 0.50000 5.70990 -9.47000
v 0.50000 4.70990 -10.72000
v 0.50000 4.70990 -9.47000
v -0.50000 5.70990 -9.47000
v -0.50000 5.70990 -10.72000
v -0.50000 4.70990 -9.47000
v -0.50000 4.70990 -10.72000
v 1.50000 7.28990 -7.15000
v 1.50000 7.47990 -4.91000
v 1.50000 4.79990 -6.94000
v 1.50000 4.98990 -4.69000
v -1.50000 7.47990 -4.91000
v -1.50000 7.28990 -7.15000
v -1.50000 4.98990 -4.69000
v -1.50000 4.79990 -6.94000
v 0.75000 7.52990 -11.27000
v 0.75000 8.12990 -9.62000
v 0.75000 6.35990 -10.84000
v 0.75000 6.95990 -9.20000
v -0.75000 8.12990 -9.62000
v -0.75000 7.52990 -11.27000
v -0.75000 6.95990 -9.20000
v -0.75000 6.35990 -10.84000
v 1.25000 6.74990 -8.54000
v 1.25000 6.74990 -5.29000
v -1.25000 6.74990 -5.29000
v -1.25000 6.74990 -8.54000
v 1.00000 6.49990 -10.04000
v 1.00000 6.49990 -8.54000
v -1.00000 6.49990 -8.54000
v -1.00000 6.49990 -10.04000
v 1.50500 8.24990 -8.04000
v 1.50500 8.24990 -7.29000
v 1.50500 7.49990 -8.04000
v 1.50500 7.49990 -7.29000
v -1.50500 8.24990 -7.29000
v -1.50500 8.24990 -8.04000
v -1.50500 7.49990 -7.29000
v -1.50500 7.49990 -8.04000
v 3.00000 1.99990 0.71000
v 3.00000 1.99990 1.71000
v 3.00000 0.99990 0.71000
v 3.00000 0.99990 1.71000
v 2.00000 1.99990 1.71000
v 2.00000 1.99990 0.71000
v 2.00000 0.99990 1.71000
v 2.00000 0.99990 0.71000
v 3.50000 0.99990 1.71000
v 3.50000 0.99990 2.71000
v 3.50000 -0.00010 1.71000
v 3.50000 -0.00010 2.71000
v 1.50000 0.99990 2.71000
v 1.50000 0.99990 1.71000
v 1.50000 -0.00010 2.71000
v 1.50000 -0.00010 1.71000
v 3.50000 3.74990 1.71000
v 3.50000 3.74990 3.71000
v 3.50000 2.99990 1.71000
v 3.50000 2.99990 3.71000
v 1.50000 3.74990 3.71000
v 1.50000 3.74990 1.71000
v 1.50000 2.99990 3.71000
v 1.50000 2.99990 1.71000
v 3.00000 3.99990 3.71000
v 3.00000 3.99990 4.71000
v 3.00000 2.99990 3.71000
v 3.00000 2.99990 4.71000
v 2.00000 3.99990 4.71000
v 2.00000 3.99990 3.71000
v 2.00000 2.99990 4.71000
v 2.00000 2.99990 3.71000
v 3.50000 5.99990 1.71000
v 3.50000 5.99990 3.71000
v 3.50000 5.24990 1.71000
v 3.50000 5.24990 3.71000
v 1.50000 5.99990 3.71000
v 1.50000 5.99990 1.71000
v 1.50000 5.24990 3.71000
v 1.50000 5.24990 1.71000
v 3.50000 5.99990 0.71000
v 3.50000 2.99990 0.71000
v 1.50000 5.99990 0.71000
v 1.50000 2.99990 0.71000
v 3.50000 4.74990 1.71000
v 3.50000 4.74990 3.71000
v 3.50000 4.24990 1.71000
v 3.50000 4.24990 3.71000
v 1.50000 4.74990 3.71000
v 1.50000 4.74990 1.71000
v 1.50000 4.24990 3.71000
v 1.50000 4.24990 1.71000
v 3.00000 2.49990 3.71000
v 3.00000 2.49990 4.71000
v 3.00000 1.99990 3.71000
v 3.00000 1.99990 4.71000
v 2.00000 2.49990 4.71000
v 2.00000 2.49990 3.71000
v 2.00000 1.99990 4.71000
v 2.00000 1.99990 3.71000
v 3.00000 1.49990 3.71000
v 3.00000 1.49990 4.71000
v 3.00000 0.99990 3.71000
v 3.00000 0.99990 4.71000
v 2.00000 1.49990 4.71000
v 2.00000 1.49990 3.71000
v 2.00000 0.99990 4.71000
v 2.00000 0.99990 3.71000
v 3.00000 1.99990 2.71000
v 3.00000 0.99990 2.71000
v 2.00000 1.99990 2.71000
v 2.00000 0.99990 2.71000
v 3.50000 0.99990 4.71000
v 3.50000 -0.00010 4.71000
v 1.50000 0.99990 4.71000
v 1.50000 -0.00010 4.71000
v -1.03400 7.24990 -1.04000
v -1.72900 7.24990 2.90000
v -1.03400 6.74990 -1.04000
v -1.72900 6.74990 2.90000
v -7.14500 7.24990 1.95000
v -6.45100 7.24990 -1.99000
v -7.14500 6.74990 1.95000
v -6.45100 6.74990 -1.99000
v -8.24700 7.24990 -3.32000
v -8.94100 7.24990 0.62000
v -8.24700 6.74990 -3.32000
v -8.94100 6.74990 0.62000
v -10.91100 7.24990 0.27000
v -10.21700 7.24990 -3.67000
v -10.91100 6.74990 0.27000
v -10.21700 6.74990 -3.67000
v -6.36400 7.24990 -2.48000
v -7.31900 7.24990 2.93000
v -6.36400 6.74990 -2.48000
v -7.31900 6.74990 2.93000
v -9.28900 7.24990 2.59000
v -8.33400 7.24990 -2.83000
v -9.28900 6.74990 2.59000
v -8.33400 6.74990 -2.83000
v -3.69900 7.24990 2.56000
v -4.04600 7.24990 4.53000
v -3.69900 6.74990 2.56000
v -4.04600 6.74990 4.53000
v -7.49300 7.24990 3.92000
v -7.14600 7.24990 1.95000
v -7.49300 6.74990 3.92000
v -7.14600 6.74990 1.95000
v -10.30300 7.24990 -3.18000
v -10.73700 7.24990 -0.72000
v -10.30300 6.74990 -3.18000
v -10.73700 6.74990 -0.72000
v -15.66100 7.24990 -1.58000
v -15.22700 7.24990 -4.05000
v -15.66100 6.74990 -1.58000
v -15.22700 6.74990 -4.05000
v -1.80800 7.74990 -2.09000
v -1.80800 7.74990 -0.84000
v -1.80800 6.24990 -2.09000
v -1.80800 6.24990 -0.84000
v -6.05800 7.74990 -0.84000
v -6.05800 7.74990 -2.09000
v -6.05800 6.24990 -0.84000
v -6.05800 6.24990 -2.09000
v -8.11900 7.49990 -3.57000
v -8.74400 7.49990 -2.49000
v -8.11900 6.49990 -3.57000
v -8.74400 6.49990 -2.49000
v -9.17700 7.49990 -2.74000
v -8.55200 7.49990 -3.82000
v -9.17700 6.49990 -2.74000
v -8.55200 6.49990 -3.82000
v -8.69800 7.49990 -3.86000
v -8.78500 7.49990 -2.87000
v -8.69800 6.49990 -3.86000
v -8.78500 6.49990 -2.87000
v -15.75900 7.49990 -3.48000
v -15.67100 7.49990 -4.47000
v -15.75900 6.49990 -3.48000
v -15.67100 6.49990 -4.47000
v -7.25300 7.49990 -3.07000
v -7.87800 7.49990 -1.99000
v -7.25300 6.49990 -3.07000
v -7.87800 6.49990 -1.99000
v -8.31100 7.49990 -2.24000
v -7.68600 7.49990 -3.32000
v -8.31100 6.49990 -2.24000
v -7.68600 6.49990 -3.32000
v -5.30400 7.49990 -1.95000
v -5.92900 7.49990 -0.87000
v -5.30400 6.49990 -1.95000
v -5.92900 6.49990 -0.87000
v -7.44500 7.49990 -1.74000
v -6.82000 7.49990 -2.82000
v -7.44500 6.49990 -1.74000
v -6.82000 6.49990 -2.82000
v -8.43300 7.67990 -4.02000
v -8.49000 7.30990 -3.38000
v -8.38900 6.81990 -4.52000
v -8.44600 6.43990 -3.88000
v -8.98800 7.30990 -3.42000
v -8.93100 7.67990 -4.07000
v -8.94400 6.43990 -3.92000
v -8.88800 6.81990 -4.57000
vt 5.93750 -5.50000
vt 5.75000 -5.50000
vt 5.93750 -5.84375
vt 5.75000 -5.84375
vt 6.12500 -5.50000
vt 6.12500 -5.68750
vt 5.75000 -5.68750
vt 6.12500 -5.84375
vt 1.87500 -1.00000
vt 1.50000 -1.00000
vt 1.87500 -1.43750
vt 1.50000 -1.43750
vt 2.00000 -1.00000
vt 2.00000 -1.37500
vt 1.50000 -1.37500
vt 2.00000 -1.43750
vt 3.31250 -1.50000
vt 3.00000 -1.50000
vt 3.31250 -1.71875
vt 3.00000 -1.71875
vt 3.31250 -1.81250
vt 3.00000 -1.81250
vt 0.37500 -2.75000
vt 0.00000 -2.75000
vt 0.37500 -2.90625
vt 0.00000 -2.90625
vt 0.50000 -2.75000
vt 0.50000 -3.12500
vt 0.00000 -3.12500
vt 0.50000 -2.90625
vt 5.65625 -1.00000
vt 5.25000 -1.00000
vt 5.65625 -1.12500
vt 5.25000 -1.12500
vt 5.37500 -1.00000
vt 5.37500 -1.40625
vt 5.25000 -1.40625
vt 5.37500 -1.12500
vt 4.87500 -0.50000
vt 4.50000 -0.50000
vt 4.87500 -0.62500
vt 4.50000 -0.62500
vt 4.93750 -0.50000
vt 4.93750 -0.87500
vt 4.50000 -0.87500
vt 4.93750 -0.62500
vt 1.00000 -0.25000
vt 0.75000 -0.25000
vt 1.00000 -0.37500
vt 0.75000 -0.37500
vt 1.12500 -0.25000
vt 1.12500 -0.50000
vt 0.75000 -0.50000
vt 1.12500 -0.37500
vt 1.78125 -2.25000
vt 1.50000 -2.25000
vt 1.78125 -2.37500
vt 1.50000 -2.37500
vt 1.62500 -2.25000
vt 1.62500 -2.53125
vt 1.50000 -2.53125
vt 1.62500 -2.37500
vt 4.25000 -5.00000
vt 4.00000 -5.00000
vt 4.25000 -5.06250
vt 4.00000 -5.06250
vt 4.37500 -5.00000
vt 4.37500 -5.25000
vt 4.00000 -5.25000
vt 4.37500 -5.06250
vt 5.50000 -2.75000
vt 5.25000 -2.75000
vt 5.50000 -2.81250
vt 5.25000 -2.81250
vt 5.62500 -2.75000
vt 5.62500 -3.00000
vt 5.25000 -3.00000
vt 5.62500 -2.81250
vt 3.37500 -6.25000
vt 3.00000 -6.25000
vt 3.37500 -6.62500
vt 3.00000 -6.62500
vt 3.43750 -6.25000
vt 3.43750 -6.62500
vt 4.75000 -3.75000
vt 4.50000 -3.75000
vt 4.75000 -3.93750
vt 4.50000 -3.93750
vt 4.87500 -3.75000
vt 4.87500 -4.00000
vt 4.50000 -4.00000
vt 4.87500 -3.93750
vt 3.62500 0.50000
vt 3.50000 0.50000
vt 3.62500 0.43750
vt 3.50000 0.43750
vt 3.62500 0.37500
vt 3.50000 0.37500
vt 3.00000 -2.50000
vt 2.75000 -2.50000
vt 3.00000 -2.56250
vt 2.75000 -2.56250
vt 3.00000 -2.75000
vt 2.75000 -2.75000
vt 0.50000 0.00000
vt 0.25000 0.00000
vt 0.50000 -0.06250
vt 0.25000 -0.06250
vt 0.50000 -0.25000
vt 0.25000 -0.25000
vt 2.12500 -1.50000
vt 2.00000 -1.50000
vt 2.12500 -1.56250
vt 2.00000 -1.56250
vt 2.12500 -1.62500
vt 2.00000 -1.62500
vt 4.75000 -5.25000
vt 4.50000 -5.25000
vt 4.75000 -5.31250
vt 4.50000 -5.31250
vt 4.75000 -5.50000
vt 4.50000 -5.50000
vt 3.62500 -1.00000
vt 3.50000 -1.00000
vt 3.62500 -1.37500
vt 3.50000 -1.37500
vt 3.75000 -1.00000
vt 3.75000 -1.12500
vt 3.50000 -1.12500
vt 3.75000 -1.37500
vt 6.25000 -1.75000
vt 6.00000 -1.75000
vt 6.25000 -1.84375
vt 6.00000 -1.84375
vt 6.25000 -2.00000
vt 6.00000 -2.00000
vt 3.87500 -6.25000
vt 3.75000 -6.25000
vt 3.87500 -6.37500
vt 3.75000 -6.37500
vt 0.25000 -4.00000
vt 0.00000 -4.00000
vt 0.25000 -4.09375
vt 0.00000 -4.09375
vt 0.25000 -4.25000
vt 0.00000 -4.25000
vt 1.12500 -5.50000
vt 1.00000 -5.50000
vt 1.12500 -5.56250
vt 1.00000 -5.56250
vt 1.12500 -5.62500
vt 1.00000 -5.62500
vt 2.25000 -2.75000
vt 2.00000 -2.75000
vt 2.25000 -2.87500
vt 2.00000 -2.87500
vt 2.25000 -3.00000
vt 2.00000 -3.00000
vt 0.37500 -3.75000
vt 0.25000 -3.75000
vt 0.37500 -3.87500
vt 0.25000 -3.87500
vt 6.37500 -6.75000
vt 6.25000 -6.75000
vt 6.37500 -6.81250
vt 6.25000 -6.81250
vt 6.37500 -6.87500
vt 6.25000 -6.87500
vt 3.12500 -1.25000
vt 3.00000 -1.25000
vt 3.12500 -1.37500
vt 3.00000 -1.37500
vt 6.12500 -6.50000
vt 6.00000 -6.50000
vt 6.12500 -6.62500
vt 6.00000 -6.62500
vt 6.25000 -6.50000
vt 6.25000 -6.62500
vt 1.90625 -0.50000
vt 1.75000 -0.50000
vt 1.90625 -0.62500
vt 1.75000 -0.62500
vt 1.96875 -0.50000
vt 1.96875 -0.65625
vt 1.75000 -0.65625
vt 1.96875 -0.62500
vt 3.90625 -1.25000
vt 3.75000 -1.25000
vt 3.90625 -1.37500
vt 3.81250 -1.25000
vt 3.81250 -1.40625
vt 3.75000 -1.40625
vt 3.81250 -1.37500
vt 5.90625 -2.00000
vt 5.75000 -2.00000
vt 5.90625 -2.18750
vt 5.75000 -2.18750
vt 6.28125 -2.00000
vt 6.28125 -2.15625
vt 5.75000 -2.15625
vt 6.28125 -2.18750
vt 4.15625 -2.75000
vt 4.00000 -2.75000
vt 4.15625 -2.87500
vt 4.00000 -2.87500
vt 4.06250 -2.75000
vt 4.06250 -2.90625
vt 4.00000 -2.90625
vt 4.06250 -2.87500
vt 3.37500 -1.75000
vt 3.25000 -1.75000
vt 3.37500 -1.87500
vt 3.25000 -1.87500
vt 4.12500 -1.75000
vt 4.12500 -1.87500
vt 0.50000 -6.75000
vt 0.00000 -6.75000
vt 0.50000 -6.81250
vt 0.00000 -6.81250
vt 0.25000 -6.75000
vt 0.25000 -7.25000
vt 0.00000 -7.25000
vt 0.25000 -6.81250
vt 6.56250 -1.00000
vt 6.25000 -1.00000
vt 6.56250 -1.06250
vt 6.25000 -1.06250
vt 6.87500 -1.00000
vt 6.87500 -1.31250
vt 6.25000 -1.31250
vt 6.87500 -1.06250
vt 0.25000 -1.25000
vt 0.00000 -1.25000
vt 0.25000 -1.31250
vt 0.00000 -1.31250
vt 0.43750 -1.25000
vt 0.43750 -1.50000
vt 0.00000 -1.50000
vt 0.43750 -1.31250
vt 8.00000 -3.50000
vt 7.50000 -3.50000
vt 8.00000 -3.56250
vt 7.50000 -3.56250
vt 8.18750 -3.50000
vt 8.18750 -4.00000
vt 7.50000 -4.00000
vt 8.18750 -3.56250
vt 6.18750 -3.25000
vt 5.50000 -3.25000
vt 6.18750 -3.31250
vt 5.50000 -3.31250
vt 5.75000 -3.25000
vt 5.75000 -3.93750
vt 5.50000 -3.93750
vt 5.75000 -3.31250
vt 2.40625 -2.00000
vt 2.25000 -2.00000
vt 2.40625 -2.12500
vt 2.25000 -2.12500
vt 2.31250 -2.00000
vt 2.31250 -2.15625
vt 2.25000 -2.15625
vt 2.31250 -2.12500
vt 4.40625 0.25000
vt 4.25000 0.25000
vt 4.40625 0.12500
vt 4.25000 0.12500
vt 4.31250 0.25000
vt 4.31250 0.09375
vt 4.25000 0.09375
vt 4.31250 0.12500
vt 4.59375 -4.50000
vt 4.50000 -4.50000
vt 4.59375 -4.62500
vt 4.50000 -4.62500
vt 4.56250 -4.50000
vt 4.56250 -4.59375
vt 4.50000 -4.59375
vt 4.56250 -4.62500
vt 2.93750 0.00000
vt 2.50000 0.00000
vt 2.93750 -0.06250
vt 2.50000 -0.06250
vt 2.62500 0.00000
vt 2.62500 -0.43750
vt 2.50000 -0.43750
vt 2.62500 -0.06250
vt 0.37500 0.50000
vt 0.00000 0.50000
vt 0.37500 0.43750
vt 0.00000 0.43750
vt 0.25000 0.50000
vt 0.25000 0.12500
vt 0.00000 0.12500
vt 0.25000 0.43750
vt 6.37500 -5.50000
vt 6.00000 -5.50000
vt 6.37500 -5.56250
vt 6.00000 -5.56250
vt 6.25000 -5.50000
vt 6.25000 -5.87500
vt 6.00000 -5.87500
vt 6.25000 -5.56250
vt 2.87500 -0.75000
vt 2.50000 -0.75000
vt 2.87500 -0.84375
vt 2.50000 -0.84375
vt 2.56250 -0.75000
vt 2.56250 -1.12500
vt 2.50000 -1.12500
vt 2.56250 -0.84375
vt 0.87500 -4.75000
vt 0.50000 -4.75000
vt 0.87500 -4.81250
vt 0.50000 -4.81250
vt 0.62500 -4.75000
vt 0.62500 -5.12500
vt 0.50000 -5.12500
vt 0.62500 -4.81250
vt 7.68750 -4.50000
vt 7.25000 -4.50000
vt 7.68750 -4.56250
vt 7.25000 -4.56250
vt 7.37500 -4.50000
vt 7.37500 -4.93750
vt 7.25000 -4.93750
vt 7.37500 -4.56250
vt 5.87500 -4.50000
vt 5.50000 -4.50000
vt 5.87500 -4.62500
vt 5.50000 -4.62500
vt 5.75000 -4.50000
vt 5.75000 -4.87500
vt 5.50000 -4.87500
vt 5.75000 -4.62500
vt 2.37500 -2.75000
vt 2.37500 -2.81250
vt 2.00000 -2.81250
vt 2.25000 -3.12500
vt 2.00000 -3.12500
vt 2.25000 -2.81250
vt 1.84375 -1.00000
vt 1.84375 -1.31250
vt 1.50000 -1.31250
vt 1.81250 -1.00000
vt 1.81250 -1.34375
vt 1.50000 -1.34375
vt 1.81250 -1.31250
vt 1.43750 -2.00000
vt 1.25000 -2.00000
vt 1.43750 -2.12500
vt 1.25000 -2.12500
vt 1.50000 -2.00000
vt 1.50000 -2.18750
vt 1.25000 -2.18750
vt 1.50000 -2.12500
vt 5.40625 -4.00000
vt 5.00000 -4.00000
vt 5.40625 -4.18750
vt 5.00000 -4.18750
vt 5.31250 -4.00000
vt 5.31250 -4.40625
vt 5.00000 -4.40625
vt 5.31250 -4.18750
vt 4.25000 -0.50000
vt 4.00000 -0.50000
vt 4.25000 -0.59375
vt 4.00000 -0.59375
vt 4.12500 -0.50000
vt 4.12500 -0.75000
vt 4.00000 -0.75000
vt 4.12500 -0.59375
vt 6.31250 -3.00000
vt 6.25000 -3.00000
vt 6.31250 -3.03125
vt 6.25000 -3.03125
vt 6.37500 -3.00000
vt 6.37500 -3.06250
vt 6.25000 -3.06250
vt 6.37500 -3.03125
vt 2.34375 -3.00000
vt 2.34375 -3.09375
vt 2.25000 -3.09375
vt 2.62500 -3.00000
vt 2.62500 -3.09375
vt 6.93750 -6.50000
vt 6.75000 -6.50000
vt 6.93750 -6.65625
vt 6.75000 -6.65625
vt 6.93750 -6.68750
vt 6.75000 -6.68750
vt 6.68750 0.75000
vt 6.50000 0.75000
vt 6.68750 0.53125
vt 6.50000 0.53125
vt 6.81250 0.75000
vt 6.81250 0.56250
vt 6.50000 0.56250
vt 6.81250 0.53125
vt 4.75000 -6.00000
vt 4.25000 -6.00000
vt 4.75000 -6.25000
vt 4.25000 -6.25000
vt 4.50000 -6.00000
vt 4.50000 -6.50000
vt 4.25000 -6.50000
vt 4.50000 -6.25000
vt 0.40625 -4.75000
vt 0.25000 -4.75000
vt 0.40625 -4.87500
vt 0.25000 -4.87500
vt 0.37500 -4.75000
vt 0.37500 -4.90625
vt 0.25000 -4.90625
vt 0.37500 -4.87500
vt 3.28125 0.50000
vt 3.00000 0.50000
vt 3.28125 0.18750
vt 3.00000 0.18750
vt 3.37500 0.50000
vt 3.37500 0.21875
vt 3.00000 0.21875
vt 3.37500 0.18750
vt 7.96875 -4.50000
vt 7.75000 -4.50000
vt 7.96875 -4.65625
vt 7.75000 -4.65625
vt 7.93750 -4.50000
vt 7.93750 -4.71875
vt 7.75000 -4.71875
vt 7.93750 -4.65625
vt 4.65625 -1.25000
vt 4.25000 -1.25000
vt 4.65625 -1.31250
vt 4.25000 -1.31250
vt 4.56250 -1.25000
vt 4.56250 -1.65625
vt 4.25000 -1.65625
vt 4.56250 -1.31250
vt 1.43750 -6.75000
vt 1.25000 -6.75000
vt 1.43750 -6.87500
vt 1.25000 -6.87500
vt 1.50000 -6.75000
vt 1.50000 -6.93750
vt 1.25000 -6.93750
vt 1.50000 -6.87500
vt 1.00000 1.00000
vt 0.00000 1.00000
vt 1.00000 0.00000
vt 0.00000 0.00000
vt 1.62500 -0.75000
vt 1.50000 -0.75000
vt 1.62500 -0.87500
vt 1.50000 -0.87500
vt 0.50000 -3.75000
vt 0.50000 -3.87500
vt 0.50000 -6.84375
vt 0.25000 -6.84375
vt 0.50000 -7.00000
vt 0.25000 -7.00000
vt 3.37500 -4.75000
vt 3.25000 -4.75000
vt 3.37500 -4.87500
vt 3.25000 -4.87500
vt 1.75000 -1.50000
vt 1.50000 -1.50000
vt 1.75000 -1.59375
vt 1.50000 -1.59375
vt 1.75000 -1.75000
vt 1.50000 -1.75000
vt 6.37500 1.00000
vt 6.25000 1.00000
vt 6.37500 0.62500
vt 6.25000 0.62500
vt 6.50000 1.00000
vt 6.50000 0.87500
vt 6.25000 0.87500
vt 6.50000 0.62500
vt 5.50000 0.50000
vt 5.25000 0.50000
vt 5.50000 0.43750
vt 5.25000 0.43750
vt 5.50000 0.25000
vt 5.25000 0.25000
vt 3.12500 -6.25000
vt 3.12500 -6.31250
vt 3.00000 -6.31250
vt 3.12500 -6.37500
vt 3.00000 -6.37500
vt 4.62500 -1.50000
vt 4.50000 -1.50000
vt 4.62500 -1.56250
vt 4.50000 -1.56250
vt 4.62500 -1.62500
vt 4.50000 -1.62500
vt 3.87500 -0.50000
vt 3.75000 -0.50000
vt 3.87500 -0.62500
vt 3.75000 -0.62500
vt 1.25000 -5.50000
vt 1.25000 -5.62500
vt 1.25000 -5.75000
vt 1.00000 -5.75000
vt 0.25000 -5.75000
vt 0.00000 -5.75000
vt 0.25000 -5.81250
vt 0.00000 -5.81250
vt 0.25000 -6.00000
vt 0.00000 -6.00000
vt 4.37500 -5.75000
vt 4.25000 -5.75000
vt 4.37500 -5.81250
vt 4.25000 -5.81250
vt 4.37500 -5.87500
vt 4.25000 -5.87500
vt 6.25000 0.75000
vt 6.00000 0.75000
vt 6.25000 0.68750
vt 6.00000 0.68750
vt 6.25000 0.50000
vt 6.00000 0.50000
vt 1.37500 -0.50000
vt 1.25000 -0.50000
vt 1.37500 -0.56250
vt 1.25000 -0.56250
vt 1.37500 -0.62500
vt 1.25000 -0.62500
vt 2.00000 0.75000
vt 1.50000 0.75000
vt 2.00000 0.68750
vt 1.50000 0.68750
vt 2.18750 0.75000
vt 2.18750 0.25000
vt 1.50000 0.25000
vt 2.18750 0.68750
vt 4.75000 -2.50000
vt 4.25000 -2.50000
vt 4.75000 -2.56250
vt 4.25000 -2.56250
vt 4.50000 -2.50000
vt 4.50000 -3.00000
vt 4.25000 -3.00000
vt 4.50000 -2.56250
vt 1.93750 -4.00000
vt 1.25000 -4.00000
vt 1.93750 -4.06250
vt 1.25000 -4.06250
vt 1.50000 -4.00000
vt 1.50000 -4.68750
vt 1.25000 -4.68750
vt 1.50000 -4.06250
vt 2.00000 1.00000
vt 1.75000 1.00000
vt 2.00000 0.93750
vt 1.75000 0.93750
vt 2.18750 1.00000
vt 1.75000 0.75000
vt 2.18750 0.93750
vt 3.06250 -5.75000
vt 2.75000 -5.75000
vt 3.06250 -5.81250
vt 2.75000 -5.81250
vt 3.37500 -5.75000
vt 3.37500 -6.06250
vt 2.75000 -6.06250
vt 3.37500 -5.81250
vt 6.40625 -1.25000
vt 6.25000 -1.25000
vt 6.40625 -1.43750
vt 6.25000 -1.43750
vt 6.78125 -1.25000
vt 6.78125 -1.40625
vt 6.25000 -1.40625
vt 6.78125 -1.43750
vt 0.65625 -5.25000
vt 0.50000 -5.25000
vt 0.65625 -5.37500
vt 0.50000 -5.37500
vt 0.56250 -5.25000
vt 0.56250 -5.40625
vt 0.50000 -5.40625
vt 0.56250 -5.37500
vt 4.37500 -3.00000
vt 4.37500 -3.12500
vt 4.25000 -3.12500
vt 5.12500 -3.00000
vt 5.12500 -3.12500
vt 3.90625 -6.50000
vt 3.75000 -6.50000
vt 3.90625 -6.62500
vt 3.75000 -6.62500
vt 3.81250 -6.50000
vt 3.81250 -6.65625
vt 3.75000 -6.65625
vt 3.81250 -6.62500
vt 0.15625 -0.50000
vt 0.00000 -0.50000
vt 0.15625 -0.62500
vt 0.00000 -0.62500
vt 0.21875 -0.50000
vt 0.21875 -0.65625
vt 0.00000 -0.65625
vt 0.21875 -0.62500
vt 6.09375 -1.75000
vt 6.09375 -1.87500
vt 6.00000 -1.87500
vt 6.06250 -1.75000
vt 6.06250 -1.84375
vt 6.06250 -1.87500
vt 4.15625 -4.50000
vt 4.00000 -4.50000
vt 4.15625 -4.62500
vt 4.00000 -4.62500
vt 4.06250 -4.50000
vt 4.06250 -4.65625
vt 4.00000 -4.65625
vt 4.06250 -4.62500
vn 1.0000 0.0000 0.0000
vn 0.0000 1.0000 0.0000
vn 0.0000 0.0000 1.0000
vn -1.0000 0.0000 0.0000
vn 0.0000 -1.0000 0.0000
vn 0.0000 0.0000 -1.0000
vn 0.0000 1.0000 0.0866
vn 0.0000 -0.0866 1.0000
vn 0.0000 -1.0000 -0.0866
vn 0.0000 0.0866 -1.0000
vn 0.0000 0.9843 0.1732
vn 0.0000 -0.1732 0.9843
vn 0.0000 -0.9843 -0.1732
vn 0.0000 0.1732 -0.9843
vn 0.8661 0.0000 -0.5039
vn 0.5039 0.0000 0.8661
vn -0.8661 0.0000 0.5039
vn -0.5039 0.0000 -0.8661
vn 1.0000 0.0000 -0.0866
vn 0.0866 0.0000 1.0000
vn -1.0000 0.0000 0.0866
vn -0.0866 0.0000 -1.0000
vn 0.9843 0.0000 -0.1732
vn 0.1732 0.0000 0.9843
vn -0.9843 0.0000 0.1732
vn -0.1732 0.0000 -0.9843
vn 0.0472 0.8661 0.4961
vn 0.0787 -0.5039 0.8661
vn -0.0472 -0.8661 -0.4961
vn -0.0787 0.5039 -0.8661
vn 0.0000 1.0000 -0.0866
vn 0.0000 0.0866 1.0000
vn 0.0000 -1.0000 0.0866
vn 0.0000 -0.0866 -1.0000
vn 0.0000 0.9685 0.2598
vn 0.0000 -0.2598 0.9685
vn 0.0000 -0.9685 -0.2598
vn 0.0000 0.2598 -0.9685
vn 0.0000 0.9370 -0.3386
vn 0.0000 0.3386 0.9370
vn 0.0000 -0.9370 0.3386
vn 0.0000 -0.3386 -0.9370
vn 0.9843 0.0000 0.1732
vn -0.1732 0.0000 0.9843
vn -0.9843 0.0000 -0.1732
vn 0.1732 0.0000 -0.9843
vn 0.8661 0.0000 0.5039
vn -0.5039 0.0000 0.8661
vn -0.8661 0.0000 -0.5039
vn 0.5039 0.0000 -0.8661
vn 1.0000 0.0000 0.0866
vn -0.0866 0.0000 1.0000
vn -1.0000 0.0000 -0.0866
vn 0.0866 0.0000 -1.0000
vn -0.0472 0.8661 0.4961
vn -0.0787 -0.5039 0.8661
vn 0.0472 -0.8661 -0.4961
vn 0.0787 0.5039 -0.8661

o UpperTorso
usemtl c_506d54
f 1/1/1 2/2/1 3/3/1
f 3/3/1 2/2/1 4/4/1
f 5/5/2 2/2/2 6/6/2
f 6/6/2 2/2/2 1/7/2
f 2/5/3 5/2/3 4/8/3
f 4/8/3 5/2/3 7/4/3
f 5/1/4 6/2/4 7/3/4
f 7/3/4 6/2/4 8/4/4
f 8/5/5 3/2/5 7/6/5
f 7/6/5 3/2/5 4/7/5
f 6/5/6 1/2/6 8/8/6
f 8/8/6 1/2/6 3/4/6
f 9/9/1 10/10/1 11/11/1
f 11/11/1 10/10/1 12/12/1
f 13/13/2 10/10/2 14/14/2
f 14/14/2 10/10/2 9/15/2
f 10/13/3 13/10/3 12/16/3
f 12/16/3 13/10/3 15/12/3
f 13/9/4 14/10/4 15/11/4
f 15/11/4 14/10/4 16/12/4
f 16/13/5 11/10/5 15/14/5
f 15/14/5 11/10/5 12/15/5
f 14/13/6 9/10/6 16/16/6
f 16/16/6 9/10/6 11/12/6
usemtl c_a8bd99
f 17/17/1 18/18/1 19/19/1
f 19/19/1 18/18/1 20/20/1
f 21/17/2 18/18/2 22/21/2
f 22/21/2 18/18/2 17/22/2
f 18/17/3 21/18/3 20/19/3
f 20/19/3 21/18/3 23/20/3
f 21/17/4 22/18/4 23/19/4
f 23/19/4 22/18/4 24/20/4
f 24/17/5 19/18/5 23/21/5
f 23/21/5 19/18/5 20/22/5
f 22/17/6 17/18/6 24/19/6
f 24/19/6 17/18/6 19/20/6
f 11/23/1 12/24/1 25/25/1
f 25/25/1 12/24/1 26/26/1
f 15/27/2 12/24/2 16/28/2
f 16/28/2 12/24/2 11/29/2
f 12/27/3 15/24/3 26/30/3
f 26/30/3 15/24/3 27/26/3
f 15/23/4 16/24/4 27/25/4
f 27/25/4 16/24/4 28/26/4
f 28/27/5 25/24/5 27/28/5
f 27/28/5 25/24/5 26/29/5
f 16/27/6 11/24/6 28/30/6
f 28/30/6 11/24/6 25/26/6
o LowerTorso
usemtl c_a8bd99
f 29/31/1 30/32/1 31/33/1
f 31/33/1 30/32/1 32/34/1
f 33/35/7 30/32/7 34/36/7
f 34/36/7 30/32/7 29/37/7
f 30/35/8 33/32/8 32/38/8
f 32/38/8 33/32/8 35/34/8
f 33/31/4 34/32/4 35/33/4
f 35/33/4 34/32/4 36/34/4
f 36/35/9 31/32/9 35/36/9
f 35/36/9 31/32/9 32/37/9
f 34/35/10 29/32/10 36/38/10
f 36/38/10 29/32/10 31/34/10
f 37/39/1 38/40/1 39/41/1
f 39/41/1 38/40/1 40/42/1
f 41/43/7 38/40/7 42/44/7
f 42/44/7 38/40/7 37/45/7
f 38/43/8 41/40/8 40/46/8
f 40/46/8 41/40/8 43/42/8
f 41/39/4 42/40/4 43/41/4
f 43/41/4 42/40/4 44/42/4
f 44/43/9 39/40/9 43/44/9
f 43/44/9 39/40/9 40/45/9
f 42/43/10 37/40/10 44/46/10
f 44/46/10 37/40/10 39/42/10
f 45/47/1 46/48/1 47/49/1
f 47/49/1 46/48/1 48/50/1
f 49/51/11 46/48/11 50/52/11
f 50/52/11 46/48/11 45/53/11
f 46/51/12 49/48/12 48/54/12
f 48/54/12 49/48/12 51/50/12
f 49/47/4 50/48/4 51/49/4
f 51/49/4 50/48/4 52/50/4
f 52/51/13 47/48/13 51/52/13
f 51/52/13 47/48/13 48/53/13
f 50/51/14 45/48/14 52/54/14
f 52/54/14 45/48/14 47/50/14
f 53/55/1 54/56/1 55/57/1
f 55/57/1 54/56/1 56/58/1
f 57/59/11 54/56/11 58/60/11
f 58/60/11 54/56/11 53/61/11
f 54/59/12 57/56/12 56/62/12
f 56/62/12 57/56/12 59/58/12
f 57/55/4 58/56/4 59/57/4
f 59/57/4 58/56/4 60/58/4
f 60/59/13 55/56/13 59/60/13
f 59/60/13 55/56/13 56/61/13
f 58/59/14 53/56/14 60/62/14
f 60/62/14 53/56/14 55/58/14
f 61/63/1 62/64/1 63/65/1
f 63/65/1 62/64/1 64/66/1
f 65/67/11 62/64/11 66/68/11
f 66/68/11 62/64/11 61/69/11
f 62/67/12 65/64/12 64/70/12
f 64/70/12 65/64/12 67/66/12
f 65/63/4 66/64/4 67/65/4
f 67/65/4 66/64/4 68/66/4
f 68/67/13 63/64/13 67/68/13
f 67/68/13 63/64/13 64/69/13
f 66/67/14 61/64/14 68/70/14
f 68/70/14 61/64/14 63/66/14
usemtl c_506d54
f 63/71/1 64/72/1 45/73/1
f 45/73/1 64/72/1 46/74/1
f 67/75/11 64/72/11 68/76/11
f 68/76/11 64/72/11 63/77/11
f 64/75/12 67/72/12 46/78/12
f 46/78/12 67/72/12 49/74/12
f 67/71/4 68/72/4 49/73/4
f 49/73/4 68/72/4 50/74/4
f 50/75/13 45/72/13 49/76/13
f 49/76/13 45/72/13 46/77/13
f 68/75/14 63/72/14 50/78/14
f 50/78/14 63/72/14 45/74/14
f 69/79/1 70/80/1 37/81/1
f 37/81/1 70/80/1 38/82/1
f 71/83/7 70/80/7 72/84/7
f 72/84/7 70/80/7 69/82/7
f 70/83/8 71/80/8 38/84/8
f 38/84/8 71/80/8 41/82/8
f 71/79/4 72/80/4 41/81/4
f 41/81/4 72/80/4 42/82/4
f 42/83/9 37/80/9 41/84/9
f 41/84/9 37/80/9 38/82/9
f 72/83/10 69/80/10 42/84/10
f 42/84/10 69/80/10 37/82/10
f 73/85/1 74/86/1 61/87/1
f 61/87/1 74/86/1 62/88/1
f 75/89/11 74/86/11 76/90/11
f 76/90/11 74/86/11 73/91/11
f 74/89/12 75/86/12 62/92/12
f 62/92/12 75/86/12 65/88/12
f 75/85/4 76/86/4 65/87/4
f 65/87/4 76/86/4 66/88/4
f 66/89/13 61/86/13 65/90/13
f 65/90/13 61/86/13 62/91/13
f 76/89/14 73/86/14 66/92/14
f 66/92/14 73/86/14 61/88/14
o LeftUpperLeg
usemtl c_a8bd99
f 77/93/1 78/94/1 79/95/1
f 79/95/1 78/94/1 80/96/1
f 81/93/2 78/94/2 82/97/2
f 82/97/2 78/94/2 77/98/2
f 78/93/3 81/94/3 80/95/3
f 80/95/3 81/94/3 83/96/3
f 81/93/4 82/94/4 83/95/4
f 83/95/4 82/94/4 84/96/4
f 84/93/5 79/94/5 83/97/5
f 83/97/5 79/94/5 80/98/5
f 82/93/6 77/94/6 84/95/6
f 84/95/6 77/94/6 79/96/6
f 85/99/1 86/100/1 87/101/1
f 87/101/1 86/100/1 88/102/1
f 89/99/2 86/100/2 90/103/2
f 90/103/2 86/100/2 85/104/2
f 86/99/3 89/100/3 88/101/3
f 88/101/3 89/100/3 91/102/3
f 89/99/4 90/100/4 91/101/4
f 91/101/4 90/100/4 92/102/4
f 92/99/5 87/100/5 91/103/5
f 91/103/5 87/100/5 88/104/5
f 90/99/6 85/100/6 92/101/6
f 92/101/6 85/100/6 87/102/6
f 93/105/1 94/106/1 95/107/1
f 95/107/1 94/106/1 96/108/1
f 97/105/2 94/106/2 98/109/2
f 98/109/2 94/106/2 93/110/2
f 94/105/3 97/106/3 96/107/3
f 96/107/3 97/106/3 99/108/3
f 97/105/4 98/106/4 99/107/4
f 99/107/4 98/106/4 100/108/4
f 100/105/5 95/106/5 99/109/5
f 99/109/5 95/106/5 96/110/5
f 98/105/6 93/106/6 100/107/6
f 100/107/6 93/106/6 95/108/6
f 101/111/1 102/112/1 103/113/1
f 103/113/1 102/112/1 104/114/1
f 105/111/2 102/112/2 106/115/2
f 106/115/2 102/112/2 101/116/2
f 102/111/3 105/112/3 104/113/3
f 104/113/3 105/112/3 107/114/3
f 105/111/4 106/112/4 107/113/4
f 107/113/4 106/112/4 108/114/4
f 108/111/5 103/112/5 107/115/5
f 107/115/5 103/112/5 104/116/5
f 106/111/6 101/112/6 108/113/6
f 108/113/6 101/112/6 103/114/6
usemtl c_506d54
f 87/117/1 88/118/1 93/119/1
f 93/119/1 88/118/1 94/120/1
f 91/117/2 88/118/2 92/121/2
f 92/121/2 88/118/2 87/122/2
f 88/117/3 91/118/3 94/119/3
f 94/119/3 91/118/3 97/120/3
f 91/117/4 92/118/4 97/119/4
f 97/119/4 92/118/4 98/120/4
f 98/117/5 93/118/5 97/121/5
f 97/121/5 93/118/5 94/122/5
f 92/117/6 87/118/6 98/119/6
f 98/119/6 87/118/6 93/120/6
f 109/123/1 110/124/1 111/125/1
f 111/125/1 110/124/1 112/126/1
f 113/127/2 110/124/2 114/128/2
f 114/128/2 110/124/2 109/129/2
f 110/127/3 113/124/3 112/130/3
f 112/130/3 113/124/3 115/126/3
f 113/123/4 114/124/4 115/125/4
f 115/125/4 114/124/4 116/126/4
f 116/127/5 111/124/5 115/128/5
f 115/128/5 111/124/5 112/129/5
f 114/127/6 109/124/6 116/130/6
f 116/130/6 109/124/6 111/126/6
f 110/131/1 117/132/1 85/133/1
f 85/133/1 117/132/1 86/134/1
f 118/131/2 117/132/2 113/135/2
f 113/135/2 117/132/2 110/136/2
f 117/131/3 118/132/3 86/133/3
f 86/133/3 118/132/3 89/134/3
f 118/131/4 113/132/4 89/133/4
f 89/133/4 113/132/4 90/134/4
f 90/131/5 85/132/5 89/135/5
f 89/135/5 85/132/5 86/136/5
f 113/131/6 110/132/6 90/133/6
f 90/133/6 110/132/6 85/134/6
f 119/137/1 120/138/1 101/139/1
f 101/139/1 120/138/1 102/140/1
f 121/137/2 120/138/2 122/139/2
f 122/139/2 120/138/2 119/140/2
f 120/137/3 121/138/3 102/139/3
f 102/139/3 121/138/3 105/140/3
f 121/137/4 122/138/4 105/139/4
f 105/139/4 122/138/4 106/140/4
f 106/137/5 101/138/5 105/139/5
f 105/139/5 101/138/5 102/140/5
f 122/137/6 119/138/6 106/139/6
f 106/139/6 119/138/6 101/140/6
f 95/141/1 96/142/1 112/143/1
f 112/143/1 96/142/1 123/144/1
f 99/141/2 96/142/2 100/145/2
f 100/145/2 96/142/2 95/146/2
f 96/141/3 99/142/3 123/143/3
f 123/143/3 99/142/3 124/144/3
f 99/141/4 100/142/4 124/143/4
f 124/143/4 100/142/4 115/144/4
f 115/141/5 112/142/5 124/145/5
f 124/145/5 112/142/5 123/146/5
f 100/141/6 95/142/6 115/143/6
f 115/143/6 95/142/6 112/144/6
f 79/147/1 80/148/1 125/149/1
f 125/149/1 80/148/1 126/150/1
f 83/147/2 80/148/2 84/151/2
f 84/151/2 80/148/2 79/152/2
f 80/147/3 83/148/3 126/149/3
f 126/149/3 83/148/3 127/150/3
f 83/147/4 84/148/4 127/149/4
f 127/149/4 84/148/4 128/150/4
f 128/147/5 125/148/5 127/151/5
f 127/151/5 125/148/5 126/152/5
f 84/147/6 79/148/6 128/149/6
f 128/149/6 79/148/6 125/150/6
f 129/153/1 130/154/1 131/155/1
f 131/155/1 130/154/1 132/156/1
f 133/153/2 130/154/2 134/157/2
f 134/157/2 130/154/2 129/158/2
f 130/153/3 133/154/3 132/155/3
f 132/155/3 133/154/3 135/156/3
f 133/153/4 134/154/4 135/155/4
f 135/155/4 134/154/4 136/156/4
f 136/153/5 131/154/5 135/157/5
f 135/157/5 131/154/5 132/158/5
f 134/153/6 129/154/6 136/155/6
f 136/155/6 129/154/6 131/156/6
f 137/159/1 138/160/1 139/161/1
f 139/161/1 138/160/1 140/162/1
f 141/159/2 138/160/2 142/161/2
f 142/161/2 138/160/2 137/162/2
f 138/159/3 141/160/3 140/161/3
f 140/161/3 141/160/3 143/162/3
f 141/159/4 142/160/4 143/161/4
f 143/161/4 142/160/4 144/162/4
f 144/159/5 139/160/5 143/161/5
f 143/161/5 139/160/5 140/162/5
f 142/159/6 137/160/6 144/161/6
f 144/161/6 137/160/6 139/162/6
f 103/163/1 104/164/1 77/165/1
f 77/165/1 104/164/1 78/166/1
f 107/163/2 104/164/2 108/167/2
f 108/167/2 104/164/2 103/168/2
f 104/163/3 107/164/3 78/165/3
f 78/165/3 107/164/3 81/166/3
f 107/163/4 108/164/4 81/165/4
f 81/165/4 108/164/4 82/166/4
f 82/163/5 77/164/5 81/167/5
f 81/167/5 77/164/5 78/168/5
f 108/163/6 103/164/6 82/165/6
f 82/165/6 103/164/6 77/166/6
usemtl c_1b2a35
f 145/169/1 137/170/1 146/171/1
f 146/171/1 137/170/1 139/172/1
f 142/169/2 137/170/2 147/171/2
f 147/171/2 137/170/2 145/172/2
f 137/169/3 142/170/3 139/171/3
f 139/171/3 142/170/3 144/172/3
f 142/169/4 147/170/4 144/171/4
f 144/171/4 147/170/4 148/172/4
f 148/169/5 146/170/5 144/171/5
f 144/171/5 146/170/5 139/172/5
f 147/169/6 145/170/6 148/171/6
f 148/171/6 145/170/6 146/172/6
f 149/173/1 129/174/1 150/175/1
f 150/175/1 129/174/1 131/176/1
f 134/177/2 129/174/2 151/178/2
f 151/178/2 129/174/2 149/176/2
f 129/177/3 134/174/3 131/178/3
f 131/178/3 134/174/3 136/176/3
f 134/173/4 151/174/4 136/175/4
f 136/175/4 151/174/4 152/176/4
f 152/177/5 150/174/5 136/178/5
f 136/178/5 150/174/5 131/176/5
f 151/177/6 149/174/6 152/178/6
f 152/178/6 149/174/6 150/176/6
o RightUpperArm
usemtl c_506d54
f 153/179/15 154/180/15 155/181/15
f 155/181/15 154/180/15 156/182/15
f 157/183/2 154/180/2 158/184/2
f 158/184/2 154/180/2 153/185/2
f 154/183/16 157/180/16 156/186/16
f 156/186/16 157/180/16 159/182/16
f 157/179/17 158/180/17 159/181/17
f 159/181/17 158/180/17 160/182/17
f 160/183/5 155/180/5 159/184/5
f 159/184/5 155/180/5 156/185/5
f 158/183/18 153/180/18 160/186/18
f 160/186/18 153/180/18 155/182/18
f 161/187/15 162/188/15 163/189/15
f 163/189/15 162/188/15 164/130/15
f 165/190/2 162/188/2 166/191/2
f 166/191/2 162/188/2 161/192/2
f 162/190/16 165/188/16 164/193/16
f 164/193/16 165/188/16 167/130/16
f 165/187/17 166/188/17 167/189/17
f 167/189/17 166/188/17 168/130/17
f 168/190/5 163/188/5 167/191/5
f 167/191/5 163/188/5 164/192/5
f 166/190/18 161/188/18 168/193/18
f 168/193/18 161/188/18 163/130/18
f 169/194/1 170/195/1 171/196/1
f 171/196/1 170/195/1 172/197/1
f 173/198/2 170/195/2 174/199/2
f 174/199/2 170/195/2 169/200/2
f 170/198/3 173/195/3 172/201/3
f 172/201/3 173/195/3 175/197/3
f 173/194/4 174/195/4 175/196/4
f 175/196/4 174/195/4 176/197/4
f 176/198/5 171/195/5 175/199/5
f 175/199/5 171/195/5 172/200/5
f 174/198/6 169/195/6 176/201/6
f 176/201/6 169/195/6 171/197/6
f 177/202/15 178/203/15 179/204/15
f 179/204/15 178/203/15 180/205/15
f 181/206/2 178/203/2 182/207/2
f 182/207/2 178/203/2 177/208/2
f 178/206/16 181/203/16 180/209/16
f 180/209/16 181/203/16 183/205/16
f 181/202/17 182/203/17 183/204/17
f 183/204/17 182/203/17 184/205/17
f 184/206/5 179/203/5 183/207/5
f 183/207/5 179/203/5 180/208/5
f 182/206/18 177/203/18 184/209/18
f 184/209/18 177/203/18 179/205/18
f 185/210/19 186/211/19 187/212/19
f 187/212/19 186/211/19 188/213/19
f 189/214/2 186/211/2 190/215/2
f 190/215/2 186/211/2 185/213/2
f 186/214/20 189/211/20 188/215/20
f 188/215/20 189/211/20 191/213/20
f 189/210/21 190/211/21 191/212/21
f 191/212/21 190/211/21 192/213/21
f 192/214/5 187/211/5 191/215/5
f 191/215/5 187/211/5 188/213/5
f 190/214/22 185/211/22 192/215/22
f 192/215/22 185/211/22 187/213/22
usemtl c_27462d
f 193/216/23 194/217/23 195/218/23
f 195/218/23 194/217/23 196/219/23
f 197/220/2 194/217/2 198/221/2
f 198/221/2 194/217/2 193/222/2
f 194/220/24 197/217/24 196/223/24
f 196/223/24 197/217/24 199/219/24
f 197/216/25 198/217/25 199/218/25
f 199/218/25 198/217/25 200/219/25
f 200/220/5 195/217/5 199/221/5
f 199/221/5 195/217/5 196/222/5
f 198/220/26 193/217/26 200/223/26
f 200/223/26 193/217/26 195/219/26
f 201/224/23 202/225/23 203/226/23
f 203/226/23 202/225/23 204/227/23
f 205/228/2 202/225/2 206/229/2
f 206/229/2 202/225/2 201/230/2
f 202/228/24 205/225/24 204/231/24
f 204/231/24 205/225/24 207/227/24
f 205/224/25 206/225/25 207/226/25
f 207/226/25 206/225/25 208/227/25
f 208/228/5 203/225/5 207/229/5
f 207/229/5 203/225/5 204/230/5
f 206/228/26 201/225/26 208/231/26
f 208/231/26 201/225/26 203/227/26
f 209/232/23 210/233/23 211/234/23
f 211/234/23 210/233/23 212/235/23
f 213/236/2 210/233/2 214/237/2
f 214/237/2 210/233/2 209/238/2
f 210/236/24 213/233/24 212/239/24
f 212/239/24 213/233/24 215/235/24
f 213/232/25 214/233/25 215/234/25
f 215/234/25 214/233/25 216/235/25
f 216/236/5 211/233/5 215/237/5
f 215/237/5 211/233/5 212/238/5
f 214/236/26 209/233/26 216/239/26
f 216/239/26 209/233/26 211/235/26
f 217/240/23 218/241/23 219/242/23
f 219/242/23 218/241/23 220/243/23
f 221/244/2 218/241/2 222/245/2
f 222/245/2 218/241/2 217/246/2
f 218/244/24 221/241/24 220/247/24
f 220/247/24 221/241/24 223/243/24
f 221/240/25 222/241/25 223/242/25
f 223/242/25 222/241/25 224/243/25
f 224/244/5 219/241/5 223/245/5
f 223/245/5 219/241/5 220/246/5
f 222/244/26 217/241/26 224/247/26
f 224/247/26 217/241/26 219/243/26
f 225/248/23 226/249/23 227/250/23
f 227/250/23 226/249/23 228/251/23
f 229/252/2 226/249/2 230/253/2
f 230/253/2 226/249/2 225/254/2
f 226/252/24 229/249/24 228/255/24
f 228/255/24 229/249/24 231/251/24
f 229/248/25 230/249/25 231/250/25
f 231/250/25 230/249/25 232/251/25
f 232/252/5 227/249/5 231/253/5
f 231/253/5 227/249/5 228/254/5
f 230/252/26 225/249/26 232/255/26
f 232/255/26 225/249/26 227/251/26
usemtl c_a8bd99
f 233/256/15 234/257/15 235/258/15
f 235/258/15 234/257/15 236/259/15
f 162/260/2 234/257/2 161/261/2
f 161/261/2 234/257/2 233/262/2
f 234/260/16 162/257/16 236/263/16
f 236/263/16 162/257/16 164/259/16
f 162/256/17 161/257/17 164/258/17
f 164/258/17 161/257/17 163/259/17
f 163/260/5 235/257/5 164/261/5
f 164/261/5 235/257/5 236/262/5
f 161/260/18 233/257/18 163/263/18
f 163/263/18 233/257/18 235/259/18
f 237/264/15 165/265/15 238/266/15
f 238/266/15 165/265/15 167/267/15
f 154/268/2 165/265/2 153/269/2
f 153/269/2 165/265/2 237/270/2
f 165/268/16 154/265/16 167/271/16
f 167/271/16 154/265/16 156/267/16
f 154/264/17 153/265/17 156/266/17
f 156/266/17 153/265/17 155/267/17
f 155/268/5 238/265/5 156/269/5
f 156/269/5 238/265/5 167/270/5
f 153/268/18 237/265/18 155/271/18
f 155/271/18 237/265/18 238/267/18
usemtl c_1b2a35
f 239/272/19 240/273/19 241/274/19
f 241/274/19 240/273/19 242/275/19
f 243/276/27 240/273/27 244/277/27
f 244/277/27 240/273/27 239/278/27
f 240/276/28 243/273/28 242/279/28
f 242/279/28 243/273/28 245/275/28
f 243/272/21 244/273/21 245/274/21
f 245/274/21 244/273/21 246/275/21
f 246/276/29 241/273/29 245/277/29
f 245/277/29 241/273/29 242/278/29
f 244/276/30 239/273/30 246/279/30
f 246/279/30 239/273/30 241/275/30
o Tail
usemtl c_a8bd99
f 247/280/1 248/281/1 249/282/1
f 249/282/1 248/281/1 250/283/1
f 251/284/11 248/281/11 252/285/11
f 252/285/11 248/281/11 247/286/11
f 248/284/12 251/281/12 250/287/12
f 250/287/12 251/281/12 253/283/12
f 251/280/4 252/281/4 253/282/4
f 253/282/4 252/281/4 254/283/4
f 254/284/13 249/281/13 253/285/13
f 253/285/13 249/281/13 250/286/13
f 252/284/14 247/281/14 254/287/14
f 254/287/14 247/281/14 249/283/14
f 255/288/1 256/289/1 257/290/1
f 257/290/1 256/289/1 258/291/1
f 259/292/11 256/289/11 260/293/11
f 260/293/11 256/289/11 255/294/11
f 256/292/12 259/289/12 258/295/12
f 258/295/12 259/289/12 261/291/12
f 259/288/4 260/289/4 261/290/4
f 261/290/4 260/289/4 262/291/4
f 262/292/13 257/289/13 261/293/13
f 261/293/13 257/289/13 258/294/13
f 260/292/14 255/289/14 262/295/14
f 262/295/14 255/289/14 257/291/14
f 263/296/1 264/297/1 265/298/1
f 265/298/1 264/297/1 266/299/1
f 267/300/11 264/297/11 268/301/11
f 268/301/11 264/297/11 263/302/11
f 264/300/12 267/297/12 266/303/12
f 266/303/12 267/297/12 269/299/12
f 267/296/4 268/297/4 269/298/4
f 269/298/4 268/297/4 270/299/4
f 270/300/13 265/297/13 269/301/13
f 269/301/13 265/297/13 266/302/13
f 268/300/14 263/297/14 270/303/14
f 270/303/14 263/297/14 265/299/14
f 271/304/1 272/305/1 273/306/1
f 273/306/1 272/305/1 274/307/1
f 275/308/11 272/305/11 276/309/11
f 276/309/11 272/305/11 271/310/11
f 272/308/12 275/305/12 274/311/12
f 274/311/12 275/305/12 277/307/12
f 275/304/4 276/305/4 277/306/4
f 277/306/4 276/305/4 278/307/4
f 278/308/13 273/305/13 277/309/13
f 277/309/13 273/305/13 274/310/13
f 276/308/14 271/305/14 278/311/14
f 278/311/14 271/305/14 273/307/14
usemtl c_506d54
f 249/312/1 279/313/1 280/314/1
f 280/314/1 279/313/1 281/315/1
f 282/316/11 279/313/11 254/317/11
f 254/317/11 279/313/11 249/318/11
f 279/316/12 282/313/12 281/319/12
f 281/319/12 282/313/12 283/315/12
f 282/312/4 254/313/4 283/314/4
f 283/314/4 254/313/4 284/315/4
f 284/316/13 280/313/13 283/317/13
f 283/317/13 280/313/13 281/318/13
f 254/316/14 249/313/14 284/319/14
f 284/319/14 249/313/14 280/315/14
f 285/320/1 286/321/1 247/322/1
f 247/322/1 286/321/1 248/323/1
f 287/324/11 286/321/11 288/325/11
f 288/325/11 286/321/11 285/326/11
f 286/324/12 287/321/12 248/327/12
f 248/327/12 287/321/12 251/323/12
f 287/320/4 288/321/4 251/322/4
f 251/322/4 288/321/4 252/323/4
f 252/324/13 247/321/13 251/325/13
f 251/325/13 247/321/13 248/326/13
f 288/324/14 285/321/14 252/327/14
f 252/327/14 285/321/14 247/323/14
f 289/328/1 290/329/1 263/330/1
f 263/330/1 290/329/1 264/331/1
f 291/332/11 290/329/11 292/333/11
f 292/333/11 290/329/11 289/334/11
f 290/332/12 291/329/12 264/335/12
f 264/335/12 291/329/12 267/331/12
f 291/328/4 292/329/4 267/330/4
f 267/330/4 292/329/4 268/331/4
f 268/332/13 263/329/13 267/333/13
f 267/333/13 263/329/13 264/334/13
f 292/332/14 289/329/14 268/335/14
f 268/335/14 289/329/14 263/331/14
f 265/336/1 266/154/1 255/337/1
f 255/337/1 266/154/1 256/338/1
f 269/153/11 266/154/11 270/339/11
f 270/339/11 266/154/11 265/340/11
f 266/153/12 269/154/12 256/341/12
f 256/341/12 269/154/12 259/338/12
f 269/336/4 270/154/4 259/337/4
f 259/337/4 270/154/4 260/338/4
f 260/153/13 255/154/13 259/339/13
f 259/339/13 255/154/13 256/340/13
f 270/153/14 265/154/14 260/341/14
f 260/341/14 265/154/14 255/338/14
o Head
usemtl c_506d54
f 293/342/1 294/10/1 295/343/1
f 295/343/1 294/10/1 296/344/1
f 297/345/7 294/10/7 298/346/7
f 298/346/7 294/10/7 293/347/7
f 294/345/8 297/10/8 296/348/8
f 296/348/8 297/10/8 299/344/8
f 297/342/4 298/10/4 299/343/4
f 299/343/4 298/10/4 300/344/4
f 300/345/9 295/10/9 299/346/9
f 299/346/9 295/10/9 296/347/9
f 298/345/10 293/10/10 300/348/10
f 300/348/10 293/10/10 295/344/10
f 301/349/1 302/350/1 303/351/1
f 303/351/1 302/350/1 304/352/1
f 305/353/2 302/350/2 306/354/2
f 306/354/2 302/350/2 301/355/2
f 302/353/3 305/350/3 304/356/3
f 304/356/3 305/350/3 307/352/3
f 305/349/4 306/350/4 307/351/4
f 307/351/4 306/350/4 308/352/4
f 308/353/5 303/350/5 307/354/5
f 307/354/5 303/350/5 304/355/5
f 306/353/6 301/350/6 308/356/6
f 308/356/6 301/350/6 303/352/6
f 309/357/1 310/358/1 311/359/1
f 311/359/1 310/358/1 312/360/1
f 313/361/2 310/358/2 314/362/2
f 314/362/2 310/358/2 309/363/2
f 310/361/3 313/358/3 312/364/3
f 312/364/3 313/358/3 315/360/3
f 313/357/4 314/358/4 315/359/4
f 315/359/4 314/358/4 316/360/4
f 316/361/5 311/358/5 315/362/5
f 315/362/5 311/358/5 312/363/5
f 314/361/6 309/358/6 316/364/6
f 316/364/6 309/358/6 311/360/6
usemtl c_c4281c
f 317/365/1 318/366/1 319/367/1
f 319/367/1 318/366/1 320/368/1
f 321/369/31 318/366/31 322/370/31
f 322/370/31 318/366/31 317/371/31
f 318/369/32 321/366/32 320/372/32
f 320/372/32 321/366/32 323/368/32
f 321/365/4 322/366/4 323/367/4
f 323/367/4 322/366/4 324/368/4
f 324/369/33 319/366/33 323/370/33
f 323/370/33 319/366/33 320/371/33
f 322/369/34 317/366/34 324/372/34
f 324/372/34 317/366/34 319/368/34
f 325/373/1 326/374/1 327/375/1
f 327/375/1 326/374/1 319/376/1
f 328/377/31 326/374/31 329/378/31
f 329/378/31 326/374/31 325/379/31
f 326/377/32 328/374/32 319/380/32
f 319/380/32 328/374/32 324/376/32
f 328/373/4 329/374/4 324/375/4
f 324/375/4 329/374/4 330/376/4
f 330/377/33 327/374/33 324/378/33
f 324/378/33 327/374/33 319/379/33
f 329/377/34 325/374/34 330/380/34
f 330/380/34 325/374/34 327/376/34
usemtl c_ffb000
f 331/381/1 332/157/1 333/382/1
f 333/382/1 332/157/1 334/383/1
f 335/384/2 332/157/2 336/385/2
f 336/385/2 332/157/2 331/383/2
f 332/384/3 335/157/3 334/385/3
f 334/385/3 335/157/3 337/383/3
f 335/381/4 336/157/4 337/382/4
f 337/382/4 336/157/4 338/383/4
f 338/384/5 333/157/5 337/385/5
f 337/385/5 333/157/5 334/383/5
f 336/384/6 331/157/6 338/385/6
f 338/385/6 331/157/6 333/383/6
usemtl c_a8bd99
f 339/386/1 340/387/1 341/388/1
f 341/388/1 340/387/1 342/389/1
f 343/386/31 340/387/31 344/390/31
f 344/390/31 340/387/31 339/391/31
f 340/386/32 343/387/32 342/388/32
f 342/388/32 343/387/32 345/389/32
f 343/386/4 344/387/4 345/388/4
f 345/388/4 344/387/4 346/389/4
f 346/386/33 341/387/33 345/390/33
f 345/390/33 341/387/33 342/391/33
f 344/386/34 339/387/34 346/388/34
f 346/388/34 339/387/34 341/389/34
f 347/392/1 348/393/1 349/394/1
f 349/394/1 348/393/1 350/395/1
f 351/396/31 348/393/31 352/397/31
f 352/397/31 348/393/31 347/398/31
f 348/396/32 351/393/32 350/399/32
f 350/399/32 351/393/32 353/395/32
f 351/392/4 352/393/4 353/394/4
f 353/394/4 352/393/4 354/395/4
f 354/396/33 349/393/33 353/397/33
f 353/397/33 349/393/33 350/398/33
f 352/396/34 347/393/34 354/399/34
f 354/399/34 347/393/34 349/395/34
f 355/400/1 356/401/1 357/402/1
f 357/402/1 356/401/1 358/403/1
f 359/404/35 356/401/35 360/405/35
f 360/405/35 356/401/35 355/406/35
f 356/404/36 359/401/36 358/407/36
f 358/407/36 359/401/36 361/403/36
f 359/400/4 360/401/4 361/402/4
f 361/402/4 360/401/4 362/403/4
f 362/404/37 357/401/37 361/405/37
f 361/405/37 357/401/37 358/406/37
f 360/404/38 355/401/38 362/407/38
f 362/407/38 355/401/38 357/403/38
f 363/408/1 364/409/1 365/410/1
f 365/410/1 364/409/1 366/411/1
f 367/412/2 364/409/2 368/413/2
f 368/413/2 364/409/2 363/414/2
f 364/412/3 367/409/3 366/415/3
f 366/415/3 367/409/3 369/411/3
f 367/408/4 368/409/4 369/410/4
f 369/410/4 368/409/4 370/411/4
f 370/412/5 365/409/5 369/413/5
f 369/413/5 365/409/5 366/414/5
f 368/412/6 363/409/6 370/415/6
f 370/415/6 363/409/6 365/411/6
f 371/416/1 372/417/1 373/418/1
f 373/418/1 372/417/1 374/419/1
f 375/420/31 372/417/31 376/421/31
f 376/421/31 372/417/31 371/422/31
f 372/420/32 375/417/32 374/423/32
f 374/423/32 375/417/32 377/419/32
f 375/416/4 376/417/4 377/418/4
f 377/418/4 376/417/4 378/419/4
f 378/420/33 373/417/33 377/421/33
f 377/421/33 373/417/33 374/422/33
f 376/420/34 371/417/34 378/423/34
f 378/423/34 371/417/34 373/419/34
f 379/424/1 380/425/1 381/426/1
f 381/426/1 380/425/1 382/427/1
f 383/428/39 380/425/39 384/429/39
f 384/429/39 380/425/39 379/430/39
f 380/428/40 383/425/40 382/431/40
f 382/431/40 383/425/40 385/427/40
f 383/424/4 384/425/4 385/426/4
f 385/426/4 384/425/4 386/427/4
f 386/428/41 381/425/41 385/429/41
f 385/429/41 381/425/41 382/430/41
f 384/428/42 379/425/42 386/431/42
f 386/431/42 379/425/42 381/427/42
f 311/432/1 312/433/1 387/434/1
f 387/434/1 312/433/1 388/435/1
f 315/436/2 312/433/2 316/437/2
f 316/437/2 312/433/2 311/438/2
f 312/436/3 315/433/3 388/439/3
f 388/439/3 315/433/3 389/435/3
f 315/432/4 316/433/4 389/434/4
f 389/434/4 316/433/4 390/435/4
f 390/436/5 387/433/5 389/437/5
f 389/437/5 387/433/5 388/438/5
f 316/436/6 311/433/6 390/439/6
f 390/439/6 311/433/6 387/435/6
f 303/440/1 304/441/1 391/442/1
f 391/442/1 304/441/1 392/443/1
f 307/444/2 304/441/2 308/445/2
f 308/445/2 304/441/2 303/446/2
f 304/444/3 307/441/3 392/447/3
f 392/447/3 307/441/3 393/443/3
f 307/440/4 308/441/4 393/442/4
f 393/442/4 308/441/4 394/443/4
f 394/444/5 391/441/5 393/445/5
f 393/445/5 391/441/5 392/446/5
f 308/444/6 303/441/6 394/447/6
f 394/447/6 303/441/6 391/443/6
o Head_decal1
usemtl head_decal1
f 395/448/1 396/449/1 397/450/1
f 397/450/1 396/449/1 398/451/1
o Head_decal2
usemtl head_decal2
f 399/448/4 400/449/4 401/450/4
f 401/450/4 400/449/4 402/451/4
o RightUpperLeg
usemtl c_1b2a35
f 403/452/1 404/453/1 405/454/1
f 405/454/1 404/453/1 406/455/1
f 407/452/2 404/453/2 408/454/2
f 408/454/2 404/453/2 403/455/2
f 404/452/3 407/453/3 406/454/3
f 406/454/3 407/453/3 409/455/3
f 407/452/4 408/453/4 409/454/4
f 409/454/4 408/453/4 410/455/4
f 410/452/5 405/453/5 409/454/5
f 409/454/5 405/453/5 406/455/5
f 408/452/6 403/453/6 410/454/6
f 410/454/6 403/453/6 405/455/6
f 411/159/1 412/160/1 413/161/1
f 413/161/1 412/160/1 414/162/1
f 415/456/2 412/160/2 416/457/2
f 416/457/2 412/160/2 411/162/2
f 412/456/3 415/160/3 414/457/3
f 414/457/3 415/160/3 417/162/3
f 415/159/4 416/160/4 417/161/4
f 417/161/4 416/160/4 418/162/4
f 418/456/5 413/160/5 417/457/5
f 417/457/5 413/160/5 414/162/5
f 416/456/6 411/160/6 418/457/6
f 418/457/6 411/160/6 413/162/6
usemtl c_506d54
f 419/216/1 420/220/1 421/458/1
f 421/458/1 420/220/1 422/459/1
f 423/216/2 420/220/2 424/460/2
f 424/460/2 420/220/2 419/461/2
f 420/216/3 423/220/3 422/458/3
f 422/458/3 423/220/3 425/459/3
f 423/216/4 424/220/4 425/458/4
f 425/458/4 424/220/4 426/459/4
f 426/216/5 421/220/5 425/460/5
f 425/460/5 421/220/5 422/461/5
f 424/216/6 419/220/6 426/458/6
f 426/458/6 419/220/6 421/459/6
f 427/462/1 428/463/1 429/464/1
f 429/464/1 428/463/1 430/465/1
f 431/462/2 428/463/2 432/464/2
f 432/464/2 428/463/2 427/465/2
f 428/462/3 431/463/3 430/464/3
f 430/464/3 431/463/3 433/465/3
f 431/462/4 432/463/4 433/464/4
f 433/464/4 432/463/4 434/465/4
f 434/462/5 429/463/5 433/464/5
f 433/464/5 429/463/5 430/465/5
f 432/462/6 427/463/6 434/464/6
f 434/464/6 427/463/6 429/465/6
f 435/466/1 436/467/1 437/468/1
f 437/468/1 436/467/1 438/469/1
f 439/466/2 436/467/2 440/470/2
f 440/470/2 436/467/2 435/471/2
f 436/466/3 439/467/3 438/468/3
f 438/468/3 439/467/3 441/469/3
f 439/466/4 440/467/4 441/468/4
f 441/468/4 440/467/4 442/469/4
f 442/466/5 437/467/5 441/470/5
f 441/470/5 437/467/5 438/471/5
f 440/466/6 435/467/6 442/468/6
f 442/468/6 435/467/6 437/469/6
f 443/472/1 435/473/1 444/474/1
f 444/474/1 435/473/1 421/475/1
f 440/476/2 435/473/2 445/477/2
f 445/477/2 435/473/2 443/478/2
f 435/476/3 440/473/3 421/479/3
f 421/479/3 440/473/3 426/475/3
f 440/472/4 445/473/4 426/474/4
f 426/474/4 445/473/4 446/475/4
f 446/476/5 444/473/5 426/477/5
f 426/477/5 444/473/5 421/478/5
f 445/476/6 443/473/6 446/479/6
f 446/479/6 443/473/6 444/475/6
f 447/480/1 448/481/1 449/482/1
f 449/482/1 448/481/1 450/483/1
f 451/480/2 448/481/2 452/484/2
f 452/484/2 448/481/2 447/485/2
f 448/480/3 451/481/3 450/482/3
f 450/482/3 451/481/3 453/483/3
f 451/480/4 452/481/4 453/482/4
f 453/482/4 452/481/4 454/483/4
f 454/480/5 449/481/5 453/484/5
f 453/484/5 449/481/5 450/485/5
f 452/480/6 447/481/6 454/482/6
f 454/482/6 447/481/6 449/483/6
f 455/486/1 456/80/1 457/487/1
f 457/487/1 456/80/1 458/488/1
f 459/486/2 456/80/2 460/489/2
f 460/489/2 456/80/2 455/490/2
f 456/486/3 459/80/3 458/487/3
f 458/487/3 459/80/3 461/488/3
f 459/486/4 460/80/4 461/487/4
f 461/487/4 460/80/4 462/488/4
f 462/486/5 457/80/5 461/489/5
f 461/489/5 457/80/5 458/490/5
f 460/486/6 455/80/6 462/487/6
f 462/487/6 455/80/6 457/488/6
f 463/491/1 464/492/1 465/493/1
f 465/493/1 464/492/1 466/494/1
f 467/491/2 464/492/2 468/495/2
f 468/495/2 464/492/2 463/496/2
f 464/491/3 467/492/3 466/493/3
f 466/493/3 467/492/3 469/494/3
f 467/491/4 468/492/4 469/493/4
f 469/493/4 468/492/4 470/494/4
f 470/491/5 465/492/5 469/495/5
f 469/495/5 465/492/5 466/496/5
f 468/491/6 463/492/6 470/493/6
f 470/493/6 463/492/6 465/494/6
f 404/497/1 471/498/1 406/499/1
f 406/499/1 471/498/1 472/500/1
f 473/497/2 471/498/2 407/499/2
f 407/499/2 471/498/2 404/500/2
f 471/497/3 473/498/3 472/499/3
f 472/499/3 473/498/3 474/500/3
f 473/497/4 407/498/4 474/499/4
f 474/499/4 407/498/4 409/500/4
f 409/497/5 406/498/5 474/499/5
f 474/499/5 406/498/5 472/500/5
f 407/497/6 404/498/6 409/499/6
f 409/499/6 404/498/6 406/500/6
f 412/501/1 475/148/1 414/502/1
f 414/502/1 475/148/1 476/152/1
f 477/501/2 475/148/2 415/503/2
f 415/503/2 475/148/2 412/504/2
f 475/501/3 477/148/3 476/502/3
f 476/502/3 477/148/3 478/152/3
f 477/501/4 415/148/4 478/502/4
f 478/502/4 415/148/4 417/152/4
f 417/501/5 414/148/5 478/503/5
f 478/503/5 414/148/5 476/504/5
f 415/501/6 412/148/6 417/502/6
f 417/502/6 412/148/6 414/152/6
usemtl c_a8bd99
f 437/505/1 438/506/1 447/507/1
f 447/507/1 438/506/1 448/508/1
f 441/505/2 438/506/2 442/509/2
f 442/509/2 438/506/2 437/510/2
f 438/505/3 441/506/3 448/507/3
f 448/507/3 441/506/3 451/508/3
f 441/505/4 442/506/4 451/507/4
f 451/507/4 442/506/4 452/508/4
f 452/505/5 447/506/5 451/509/5
f 451/509/5 447/506/5 448/510/5
f 442/505/6 437/506/6 452/507/6
f 452/507/6 437/506/6 447/508/6
f 457/511/1 458/512/1 463/513/1
f 463/513/1 458/512/1 464/514/1
f 461/511/2 458/512/2 462/515/2
f 462/515/2 458/512/2 457/516/2
f 458/511/3 461/512/3 464/513/3
f 464/513/3 461/512/3 467/514/3
f 461/511/4 462/512/4 467/513/4
f 467/513/4 462/512/4 468/514/4
f 468/511/5 463/512/5 467/515/5
f 467/515/5 463/512/5 464/516/5
f 462/511/6 457/512/6 468/513/6
f 468/513/6 457/512/6 463/514/6
f 449/517/1 450/518/1 419/519/1
f 419/519/1 450/518/1 420/520/1
f 453/517/2 450/518/2 454/521/2
f 454/521/2 450/518/2 449/522/2
f 450/517/3 453/518/3 420/519/3
f 420/519/3 453/518/3 423/520/3
f 453/517/4 454/518/4 423/519/4
f 423/519/4 454/518/4 424/520/4
f 424/517/5 419/518/5 423/521/5
f 423/521/5 419/518/5 420/522/5
f 454/517/6 449/518/6 424/519/6
f 424/519/6 449/518/6 419/520/6
f 429/523/1 430/524/1 455/525/1
f 455/525/1 430/524/1 456/526/1
f 433/523/2 430/524/2 434/527/2
f 434/527/2 430/524/2 429/528/2
f 430/523/3 433/524/3 456/525/3
f 456/525/3 433/524/3 459/526/3
f 433/523/4 434/524/4 459/525/4
f 459/525/4 434/524/4 460/526/4
f 460/523/5 455/524/5 459/527/5
f 459/527/5 455/524/5 456/528/5
f 434/523/6 429/524/6 460/525/6
f 460/525/6 429/524/6 455/526/6
o LeftUpperArm
usemtl c_27462d
f 479/529/43 480/530/43 481/531/43
f 481/531/43 480/530/43 482/532/43
f 483/533/2 480/530/2 484/534/2
f 484/534/2 480/530/2 479/535/2
f 480/533/44 483/530/44 482/536/44
f 482/536/44 483/530/44 485/532/44
f 483/529/45 484/530/45 485/531/45
f 485/531/45 484/530/45 486/532/45
f 486/533/5 481/530/5 485/534/5
f 485/534/5 481/530/5 482/535/5
f 484/533/46 479/530/46 486/536/46
f 486/536/46 479/530/46 481/532/46
f 487/537/43 488/538/43 489/539/43
f 489/539/43 488/538/43 490/540/43
f 491/541/2 488/538/2 492/542/2
f 492/542/2 488/538/2 487/543/2
f 488/541/44 491/538/44 490/544/44
f 490/544/44 491/538/44 493/540/44
f 491/537/45 492/538/45 493/539/45
f 493/539/45 492/538/45 494/540/45
f 494/541/5 489/538/5 493/542/5
f 493/542/5 489/538/5 490/543/5
f 492/541/46 487/538/46 494/544/46
f 494/544/46 487/538/46 489/540/46
f 495/545/43 496/546/43 497/547/43
f 497/547/43 496/546/43 498/548/43
f 499/549/2 496/546/2 500/550/2
f 500/550/2 496/546/2 495/551/2
f 496/549/44 499/546/44 498/552/44
f 498/552/44 499/546/44 501/548/44
f 499/545/45 500/546/45 501/547/45
f 501/547/45 500/546/45 502/548/45
f 502/549/5 497/546/5 501/550/5
f 501/550/5 497/546/5 498/551/5
f 500/549/46 495/546/46 502/552/46
f 502/552/46 495/546/46 497/548/46
f 503/553/43 504/554/43 505/555/43
f 505/555/43 504/554/43 506/556/43
f 507/557/2 504/554/2 508/533/2
f 508/533/2 504/554/2 503/558/2
f 504/557/44 507/554/44 506/559/44
f 506/559/44 507/554/44 509/556/44
f 507/553/45 508/554/45 509/555/45
f 509/555/45 508/554/45 510/556/45
f 510/557/5 505/554/5 509/533/5
f 509/533/5 505/554/5 506/558/5
f 508/557/46 503/554/46 510/559/46
f 510/559/46 503/554/46 505/556/46
f 511/560/43 512/561/43 513/562/43
f 513/562/43 512/561/43 514/563/43
f 515/564/2 512/561/2 516/565/2
f 516/565/2 512/561/2 511/566/2
f 512/564/44 515/561/44 514/567/44
f 514/567/44 515/561/44 517/563/44
f 515/560/45 516/561/45 517/562/45
f 517/562/45 516/561/45 518/563/45
f 518/564/5 513/561/5 517/565/5
f 517/565/5 513/561/5 514/566/5
f 516/564/46 511/561/46 518/567/46
f 518/567/46 511/561/46 513/563/46
usemtl c_506d54
f 519/568/1 520/569/1 521/570/1
f 521/570/1 520/569/1 522/571/1
f 523/572/2 520/569/2 524/573/2
f 524/573/2 520/569/2 519/574/2
f 520/572/3 523/569/3 522/575/3
f 522/575/3 523/569/3 525/571/3
f 523/568/4 524/569/4 525/570/4
f 525/570/4 524/569/4 526/571/4
f 526/572/5 521/569/5 525/573/5
f 525/573/5 521/569/5 522/574/5
f 524/572/6 519/569/6 526/575/6
f 526/575/6 519/569/6 521/571/6
f 527/576/47 528/577/47 529/578/47
f 529/578/47 528/577/47 530/579/47
f 531/580/2 528/577/2 532/581/2
f 532/581/2 528/577/2 527/582/2
f 528/580/48 531/577/48 530/583/48
f 530/583/48 531/577/48 533/579/48
f 531/576/49 532/577/49 533/578/49
f 533/578/49 532/577/49 534/579/49
f 534/580/5 529/577/5 533/581/5
f 533/581/5 529/577/5 530/582/5
f 532/580/50 527/577/50 534/583/50
f 534/583/50 527/577/50 529/579/50
f 535/584/51 536/543/51 537/585/51
f 537/585/51 536/543/51 538/586/51
f 539/587/2 536/543/2 540/588/2
f 540/588/2 536/543/2 535/586/2
f 536/587/52 539/543/52 538/588/52
f 538/588/52 539/543/52 541/586/52
f 539/584/53 540/543/53 541/585/53
f 541/585/53 540/543/53 542/586/53
f 542/587/5 537/543/5 541/588/5
f 541/588/5 537/543/5 538/586/5
f 540/587/54 535/543/54 542/588/54
f 542/588/54 535/543/54 537/586/54
f 543/589/47 544/590/47 545/591/47
f 545/591/47 544/590/47 546/592/47
f 547/593/2 544/590/2 548/594/2
f 548/594/2 544/590/2 543/595/2
f 544/593/48 547/590/48 546/596/48
f 546/596/48 547/590/48 549/592/48
f 547/589/49 548/590/49 549/591/49
f 549/591/49 548/590/49 550/592/49
f 550/593/5 545/590/5 549/594/5
f 549/594/5 545/590/5 546/595/5
f 548/593/50 543/590/50 550/596/50
f 550/596/50 543/590/50 545/592/50
f 551/597/47 552/598/47 553/599/47
f 553/599/47 552/598/47 554/600/47
f 555/601/2 552/598/2 556/602/2
f 556/602/2 552/598/2 551/603/2
f 552/601/48 555/598/48 554/604/48
f 554/604/48 555/598/48 557/600/48
f 555/597/49 556/598/49 557/599/49
f 557/599/49 556/598/49 558/600/49
f 558/601/5 553/598/5 557/602/5
f 557/602/5 553/598/5 554/603/5
f 556/601/50 551/598/50 558/604/50
f 558/604/50 551/598/50 553/600/50
usemtl c_1b2a35
f 559/605/51 560/132/51 561/606/51
f 561/606/51 560/132/51 562/607/51
f 563/608/55 560/132/55 564/609/55
f 564/609/55 560/132/55 559/134/55
f 560/608/56 563/132/56 562/610/56
f 562/610/56 563/132/56 565/607/56
f 563/605/53 564/132/53 565/606/53
f 565/606/53 564/132/53 566/607/53
f 566/608/57 561/132/57 565/609/57
f 565/609/57 561/132/57 562/134/57
f 564/608/58 559/132/58 566/610/58
f 566/610/58 559/132/58 561/607/58
usemtl c_a8bd99
f 556/264/47 555/265/47 558/266/47
f 558/266/47 555/265/47 557/267/47
f 544/268/2 555/265/2 543/269/2
f 543/269/2 555/265/2 556/270/2
f 555/268/48 544/265/48 557/271/48
f 557/271/48 544/265/48 546/267/48
f 544/264/49 543/265/49 546/266/49
f 546/266/49 543/265/49 545/267/49
f 545/268/5 558/265/5 546/269/5
f 546/269/5 558/265/5 557/270/5
f 543/268/50 556/265/50 545/271/50
f 545/271/50 556/265/50 558/267/50
f 548/611/47 547/612/47 550/613/47
f 550/613/47 547/612/47 549/614/47
f 528/615/2 547/612/2 527/616/2
f 527/616/2 547/612/2 548/617/2
f 547/615/48 528/612/48 549/618/48
f 549/618/48 528/612/48 530/614/48
f 528/611/49 527/612/49 530/613/49
f 530/613/49 527/612/49 529/614/49
f 529/615/5 550/612/5 530/616/5
f 530/616/5 550/612/5 549/617/5
f 527/615/50 548/612/50 529/618/50
f 529/618/50 548/612/50 550/614/50
