# Roblox asset pack: azhdarcho (creatures), from the Studio model "Azhdarcho". Exported with Export Selection, split by tools/build_creatures.py: one object per rigid body. Units: studs. +Y up, front faces -Z, pivot (bottom centre) at the origin.
mtllib azhdarcho.mtl

v 0.42500 4.25010 8.92000
v 0.42500 4.25010 10.20000
v 0.42500 3.40010 8.92000
v 0.42500 3.40010 10.20000
v -0.42500 4.25010 10.20000
v -0.42500 4.25010 8.92000
v -0.42500 3.40010 10.20000
v -0.42500 3.40010 8.92000
v 6.00030 4.25010 3.42000
v 6.35960 4.25010 4.19000
v 6.00030 3.40010 3.42000
v 6.35960 3.40010 4.19000
v 4.04850 4.25010 5.26000
v 3.68930 4.25010 4.49000
v 4.04850 3.40010 5.26000
v 3.68930 3.40010 4.49000
v 4.36130 4.25010 4.53000
v 4.21370 4.25010 5.37000
v 4.36130 3.40010 4.53000
v 4.21370 3.40010 5.37000
v 0.86530 4.25010 4.78000
v 1.01290 4.25010 3.94000
v 0.86530 3.40010 4.78000
v 1.01290 3.40010 3.94000
v 12.75990 4.25010 3.96000
v 12.68580 4.25010 4.80000
v 12.75990 3.40010 3.96000
v 12.68580 3.40010 4.80000
v 5.91170 4.25010 4.21000
v 5.98580 4.25010 3.36000
v 5.91170 3.40010 4.21000
v 5.98580 3.40010 3.36000
v 4.67490 4.04010 4.67000
v 4.67490 4.04010 8.07000
v 4.67490 3.61010 4.67000
v 4.67490 3.61010 8.07000
v 0.85000 4.04010 8.07000
v 0.85000 4.04010 4.67000
v 0.85000 3.61010 8.07000
v 0.85000 3.61010 4.67000
v 4.67500 4.04010 8.07000
v 4.67500 4.04010 9.77000
v 4.67500 3.61010 8.07000
v 4.67500 3.61010 9.77000
v 1.70000 4.04010 9.77000
v 1.70000 4.04010 8.07000
v 1.70000 3.61010 9.77000
v 1.70000 3.61010 8.07000
v 4.67500 4.04010 3.83000
v 4.67500 4.04010 4.68000
v 4.67500 3.61010 3.83000
v 4.67500 3.61010 4.68000
v 1.27500 4.04010 4.68000
v 1.27500 4.04010 3.83000
v 1.27500 3.61010 4.68000
v 1.27500 3.61010 3.83000
v 12.32490 4.04010 4.25000
v 12.32490 4.04010 6.38000
v 12.32490 3.61010 4.25000
v 12.32490 3.61010 6.38000
v 8.07500 4.04010 6.38000
v 8.07500 4.04010 4.25000
v 8.07500 3.61010 6.38000
v 8.07500 3.61010 4.25000
v 6.37500 4.04010 3.83000
v 6.37500 4.04010 8.93000
v 6.37500 3.61010 3.83000
v 6.37500 3.61010 8.93000
v 4.67500 4.04010 8.93000
v 4.67500 3.61010 8.93000
v 8.07500 4.04010 3.82000
v 8.07500 4.04010 7.22000
v 8.07500 3.61010 3.82000
v 8.07500 3.61010 7.22000
v 6.37500 4.04010 7.22000
v 6.37500 4.04010 3.82000
v 6.37500 3.61010 7.22000
v 6.37500 3.61010 3.82000
v 6.86960 4.25010 3.02000
v 6.83260 4.25010 3.44000
v 6.86960 3.40010 3.02000
v 6.83260 3.40010 3.44000
v 6.02290 4.25010 2.94000
v 6.02290 3.40010 2.94000
v -8.07500 4.04010 4.25000
v -8.07500 4.04010 6.38000
v -8.07500 3.61010 4.25000
v -8.07500 3.61010 6.38000
v -12.32490 4.04010 6.38000
v -12.32490 4.04010 4.25000
v -12.32490 3.61010 6.38000
v -12.32490 3.61010 4.25000
v -1.27500 4.04010 3.83000
v -1.27500 4.04010 4.68000
v -1.27500 3.61010 3.83000
v -1.27500 3.61010 4.68000
v -4.67500 4.04010 4.68000
v -4.67500 4.04010 3.83000
v -4.67500 3.61010 4.68000
v -4.67500 3.61010 3.83000
v -0.85000 4.04010 4.67000
v -0.85000 4.04010 8.07000
v -0.85000 3.61010 4.67000
v -0.85000 3.61010 8.07000
v -4.67490 4.04010 8.07000
v -4.67490 4.04010 4.67000
v -4.67490 3.61010 8.07000
v -4.67490 3.61010 4.67000
v -4.67500 4.04010 8.93000
v -4.67500 3.61010 8.93000
v -6.37500 4.04010 8.93000
v -6.37500 4.04010 3.83000
v -6.37500 3.61010 8.93000
v -6.37500 3.61010 3.83000
v -1.70000 4.04010 8.07000
v -1.70000 4.04010 9.77000
v -1.70000 3.61010 8.07000
v -1.70000 3.61010 9.77000
v -4.67500 4.04010 9.77000
v -4.67500 4.04010 8.07000
v -4.67500 3.61010 9.77000
v -4.67500 3.61010 8.07000
v -6.37500 4.04010 3.82000
v -6.37500 4.04010 7.22000
v -6.37500 3.61010 3.82000
v -6.37500 3.61010 7.22000
v -8.07500 4.04010 7.22000
v -8.07500 4.04010 3.82000
v -8.07500 3.61010 7.22000
v -8.07500 3.61010 3.82000
v -3.68930 4.25010 4.49000
v -4.04850 4.25010 5.26000
v -3.68930 3.40010 4.49000
v -4.04850 3.40010 5.26000
v -6.35960 4.25010 4.19000
v -6.00030 4.25010 3.42000
v -6.35960 3.40010 4.19000
v -6.00030 3.40010 3.42000
v -1.01290 4.25010 3.94000
v -0.86530 4.25010 4.78000
v -1.01290 3.40010 3.94000
v -0.86530 3.40010 4.78000
v -4.21370 4.25010 5.37000
v -4.36120 4.25010 4.53000
v -4.21370 3.40010 5.37000
v -4.36120 3.40010 4.53000
v -5.98580 4.25010 3.36000
v -5.91170 4.25010 4.21000
v -5.98580 3.40010 3.36000
v -5.91170 3.40010 4.21000
v -12.68580 4.25010 4.80000
v -12.75990 4.25010 3.96000
v -12.68580 3.40010 4.80000
v -12.75990 3.40010 3.96000
v -6.02290 4.25010 2.94000
v -6.02290 3.40010 2.94000
v -6.83260 4.25010 3.44000
v -6.86960 4.25010 3.02000
v -6.83260 3.40010 3.44000
v -6.86960 3.40010 3.02000
v 1.27500 4.68010 3.83000
v 1.27500 4.68010 6.38000
v 1.27500 2.12010 3.83000
v 1.27500 2.12010 6.38000
v -1.27500 4.68010 6.38000
v -1.27500 4.68010 3.83000
v -1.27500 2.12010 6.38000
v -1.27500 2.12010 3.83000
v 0.85000 2.55010 3.40000
v 0.85000 2.55010 6.80000
v 0.85000 1.70010 3.40000
v 0.85000 1.70010 6.80000
v -0.85000 2.55010 6.80000
v -0.85000 2.55010 3.40000
v -0.85000 1.70010 6.80000
v -0.85000 1.70010 3.40000
v 1.27500 5.95010 -4.67000
v 1.27500 5.95010 -3.61000
v 1.27500 4.68010 -4.67000
v 1.27500 4.68010 -3.61000
v -1.27500 5.95010 -3.61000
v -1.27500 5.95010 -4.67000
v -1.27500 4.68010 -3.61000
v -1.27500 4.68010 -4.67000
v 1.27510 4.17010 -6.41000
v 1.27510 4.48010 -2.81000
v 1.27510 3.53010 -6.35000
v 1.27510 3.84010 -2.75000
v -1.27490 4.48010 -2.81000
v -1.27490 4.17010 -6.41000
v -1.27490 3.84010 -2.75000
v -1.27490 3.53010 -6.35000
v 1.06250 5.52010 -6.38000
v 1.06250 5.52010 -3.83000
v 1.06250 4.67010 -6.38000
v 1.06250 4.67010 -3.83000
v -1.06250 5.52010 -3.83000
v -1.06250 5.52010 -6.38000
v -1.06250 4.67010 -3.83000
v -1.06250 4.67010 -6.38000
v 1.27500 5.31010 -3.61000
v 1.27500 5.31010 -1.28000
v 1.27500 4.04010 -3.61000
v 1.27500 4.04010 -1.28000
v -1.27500 5.31010 -1.28000
v -1.27500 5.31010 -3.61000
v -1.27500 4.04010 -1.28000
v -1.27500 4.04010 -3.61000
v 1.06250 6.59010 -3.61000
v 1.06250 6.59010 -1.91000
v 1.06250 5.31010 -3.61000
v 1.06250 5.31010 -1.91000
v -1.06250 6.59010 -1.91000
v -1.06250 6.59010 -3.61000
v -1.06250 5.31010 -1.91000
v -1.06250 5.31010 -3.61000
v 0.83960 3.87010 -9.80000
v 0.83960 4.17010 -6.41000
v 0.83960 3.23010 -9.74000
v 0.83960 3.53010 -6.35000
v -0.86040 4.17010 -6.41000
v -0.86040 3.87010 -9.80000
v -0.86040 3.53010 -6.35000
v -0.86040 3.23010 -9.74000
v 0.63750 5.52010 -10.20000
v 0.63750 5.52010 -6.38000
v 0.63750 4.67010 -10.20000
v 0.63750 4.67010 -6.38000
v -0.63750 5.52010 -6.38000
v -0.63750 5.52010 -10.20000
v -0.63750 4.67010 -6.38000
v -0.63750 4.67010 -10.20000
v 0.63760 4.09010 -7.67000
v 0.63760 4.90010 -3.07000
v 0.63760 3.67010 -7.60000
v 0.63760 4.48010 -3.00000
v -0.63740 4.90010 -3.07000
v -0.63740 4.09010 -7.67000
v -0.63740 4.48010 -3.00000
v -0.63740 3.67010 -7.60000
v 0.42500 6.48010 -2.77000
v 0.42500 7.33010 -1.55000
v 0.42500 6.13010 -2.53000
v 0.42500 6.98010 -1.31000
v -0.42500 7.33010 -1.55000
v -0.42500 6.48010 -2.77000
v -0.42500 6.98010 -1.31000
v -0.42500 6.13010 -2.53000
v 0.42500 9.15010 -4.32000
v 0.42500 9.11010 -3.90000
v 0.42500 5.97010 -4.60000
v 0.42500 5.94010 -4.18000
v -0.42500 9.11010 -3.90000
v -0.42500 9.15010 -4.32000
v -0.42500 5.94010 -4.18000
v -0.42500 5.97010 -4.60000
v 0.42500 8.65010 -6.01000
v 0.42500 8.73010 -5.59000
v 0.42500 5.30010 -5.42000
v 0.42500 5.38010 -5.00000
v -0.42500 8.73010 -5.59000
v -0.42500 8.65010 -6.01000
v -0.42500 5.38010 -5.00000
v -0.42500 5.30010 -5.42000
v 0.42500 6.56010 -8.43000
v 0.42500 6.84010 -8.11000
v 0.42500 5.26010 -7.34000
v 0.42500 5.54010 -7.02000
v -0.42500 6.84010 -8.11000
v -0.42500 6.56010 -8.43000
v -0.42500 5.54010 -7.02000
v -0.42500 5.26010 -7.34000
v 0.42500 7.74010 -7.25000
v 0.42500 7.89010 -6.85000
v 0.42500 5.35010 -6.38000
v 0.42500 5.49010 -5.98000
v -0.42500 7.89010 -6.85000
v -0.42500 7.74010 -7.25000
v -0.42500 5.49010 -5.98000
v -0.42500 5.35010 -6.38000
v 0.42500 8.62010 -2.77000
v 0.42500 8.47010 -2.37000
v 0.42500 6.02010 -3.71000
v 0.42500 5.88010 -3.31000
v -0.42500 8.47010 -2.37000
v -0.42500 8.62010 -2.77000
v -0.42500 5.88010 -3.31000
v -0.42500 6.02010 -3.71000
v 0.21250 9.35010 -5.74000
v 0.21250 9.35010 -2.76000
v 0.21250 5.53010 -5.74000
v 0.21250 5.53010 -2.76000
v -0.21250 9.35010 -2.76000
v -0.21250 9.35010 -5.74000
v -0.21250 5.53010 -2.76000
v -0.21250 5.53010 -5.74000
v 0.21250 5.53010 -10.20000
v -0.21250 5.53010 -10.20000
v -0.21250 6.59010 -0.21000
v -0.21250 6.59010 -2.76000
v 0.21250 6.59010 -2.76000
v 0.21250 6.59010 -0.21000
v 0.21250 5.31010 -0.85000
v 0.21250 6.59010 -0.85000
v -0.21250 5.31010 -0.85000
v -0.21250 6.59010 -0.85000
v 0.85000 4.22010 0.82000
v 0.85000 4.22010 4.01000
v 0.85000 2.95010 0.82000
v 0.85000 2.95010 4.01000
v -0.85000 4.22010 4.01000
v -0.85000 4.22010 0.82000
v -0.85000 2.95010 4.01000
v -0.85000 2.95010 0.82000
v 0.63750 5.14010 -2.48000
v 0.63750 4.15010 1.22000
v 0.63750 3.91010 -2.81000
v 0.63750 2.92010 0.89000
v -0.63750 4.15010 1.22000
v -0.63750 5.14010 -2.48000
v -0.63750 2.92010 0.89000
v -0.63750 3.91010 -2.81000
v 1.06250 6.59010 -0.85000
v 1.06250 4.67010 -1.91000
v 1.06250 4.67010 -0.85000
v -1.06250 6.59010 -0.85000
v -1.06250 4.67010 -0.85000
v -1.06250 4.67010 -1.91000
v 1.16870 6.37010 -3.19000
v 1.16870 6.37010 -2.34000
v 1.16870 5.52010 -3.19000
v 1.16870 5.52010 -2.34000
v -1.16880 6.37010 -2.34000
v -1.16880 6.37010 -3.19000
v -1.16880 5.52010 -2.34000
v -1.16880 5.52010 -3.19000
v 0.42500 4.50010 -4.14000
v 0.42500 3.98010 -1.21000
v 0.42500 3.66010 -4.28000
v 0.42500 3.15010 -1.35000
v -0.42500 3.98010 -1.21000
v -0.42500 4.50010 -4.14000
v -0.42500 3.15010 -1.35000
v -0.42500 3.66010 -4.28000
v 0.63750 3.74010 -2.19000
v 0.63750 3.33010 -2.30000
v 0.63750 2.51010 0.78000
v -0.63750 3.74010 -2.19000
v -0.63750 2.51010 0.78000
v -0.63750 3.33010 -2.30000
v 0.85000 2.52010 0.82000
v 0.85000 2.52010 4.01000
v -0.85000 2.52010 4.01000
v -0.85000 2.52010 0.82000
v 1.17370 6.37010 -3.19000
v 1.17370 6.37010 -2.34000
v 1.17370 5.52010 -3.19000
v 1.17370 5.52010 -2.34000
v -1.17380 6.37010 -2.34000
v -1.17380 6.37010 -3.19000
v -1.17380 5.52010 -2.34000
v -1.17380 5.52010 -3.19000
v 0.85000 4.25010 6.38000
v 0.85000 4.25010 8.92000
v 0.85000 2.55010 6.38000
v 0.85000 2.55010 8.92000
v -0.85000 4.25010 8.92000
v -0.85000 4.25010 6.38000
v -0.85000 2.55010 8.92000
v -0.85000 2.55010 6.38000
v 0.85000 2.12010 6.38000
v 0.85000 2.12010 8.92000
v -0.85000 2.12010 8.92000
v -0.85000 2.12010 6.38000
v 1.70000 2.55010 8.93000
v 1.70000 0.85010 8.93000
v 1.70000 2.55010 8.08000
v 1.70000 0.85010 8.08000
v 0.85000 0.85010 8.93000
v 0.85000 2.55010 8.93000
v 0.85000 0.85010 8.08000
v 0.85000 2.55010 8.08000
v 1.70000 4.25010 8.93000
v 1.70000 4.25010 7.23000
v 1.70000 2.55010 7.23000
v 0.85000 4.25010 8.93000
v 0.85000 2.55010 7.23000
v 0.85000 4.25010 7.23000
v 1.70000 0.85010 8.50000
v 1.70000 0.00010 8.50000
v 1.70000 0.85010 7.65000
v 1.70000 0.00010 7.65000
v 0.85000 0.00010 8.50000
v 0.85000 0.85010 8.50000
v 0.85000 0.00010 7.65000
v 0.85000 0.85010 7.65000
v -0.85000 4.25010 8.93000
v -0.85000 2.55010 8.93000
v -0.85000 4.25010 7.23000
v -0.85000 2.55010 7.23000
v -1.70000 2.55010 8.93000
v -1.70000 4.25010 8.93000
v -1.70000 2.55010 7.23000
v -1.70000 4.25010 7.23000
v -0.85000 0.85010 8.93000
v -0.85000 2.55010 8.08000
v -0.85000 0.85010 8.08000
v -1.70000 0.85010 8.93000
v -1.70000 0.85010 8.08000
v -1.70000 2.55010 8.08000
v -0.85000 0.85010 8.50000
v -0.85000 0.00010 8.50000
v -0.85000 0.85010 7.65000
v -0.85000 0.00010 7.65000
v -1.70000 0.00010 8.50000
v -1.70000 0.85010 8.50000
v -1.70000 0.00010 7.65000
v -1.70000 0.85010 7.65000
vt 3.90937 -3.75000
vt 3.75000 -3.75000
vt 3.90937 -3.85625
vt 3.75000 -3.85625
vt 3.85625 -3.75000
vt 3.85625 -3.90937
vt 3.75000 -3.90937
vt 3.85625 -3.85625
vt 3.60625 -2.50000
vt 3.50000 -2.50000
vt 3.60625 -2.60625
vt 3.50000 -2.60625
vt 3.81875 -2.50000
vt 3.81875 -2.60625
vt 5.85625 0.75000
vt 5.75000 0.75000
vt 5.85625 0.64375
vt 5.75000 0.64375
vt 6.17500 0.75000
vt 6.17500 0.64375
vt 4.85625 -6.50000
vt 4.75000 -6.50000
vt 4.85625 -6.60625
vt 4.75000 -6.60625
vt 5.60000 -6.50000
vt 5.60000 -6.60625
vt 7.17500 -6.25000
vt 6.75000 -6.25000
vt 7.17500 -6.30312
vt 6.75000 -6.30312
vt 7.22812 -6.25000
vt 7.22812 -6.67500
vt 6.75000 -6.67500
vt 7.22812 -6.30312
vt 6.46250 -4.50000
vt 6.25000 -4.50000
vt 6.46250 -4.55312
vt 6.25000 -4.55312
vt 6.62187 -4.50000
vt 6.62187 -4.71250
vt 6.25000 -4.71250
vt 6.62187 -4.55312
vt 5.35625 -0.25000
vt 5.25000 -0.25000
vt 5.35625 -0.30312
vt 5.25000 -0.30312
vt 5.67500 -0.25000
vt 5.67500 -0.35625
vt 5.25000 -0.35625
vt 5.67500 -0.30312
vt 8.01562 -3.00000
vt 7.75000 -3.00000
vt 8.01562 -3.05312
vt 7.75000 -3.05312
vt 8.28125 -3.00000
vt 8.28125 -3.26562
vt 7.75000 -3.26562
vt 8.28125 -3.05312
vt 0.63750 -6.00000
vt 0.00000 -6.00000
vt 0.63750 -6.05312
vt 0.00000 -6.05312
vt 0.21250 -6.00000
vt 0.21250 -6.63750
vt 0.00000 -6.63750
vt 0.21250 -6.05312
vt 2.17500 -1.00000
vt 1.75000 -1.00000
vt 2.17500 -1.05312
vt 1.75000 -1.05312
vt 1.96250 -1.00000
vt 1.96250 -1.42500
vt 1.75000 -1.42500
vt 1.96250 -1.05312
vt 1.80313 -3.25000
vt 1.75000 -3.25000
vt 1.80313 -3.35625
vt 1.75000 -3.35625
vt 1.85625 -3.25000
vt 1.85625 -3.30312
vt 1.75000 -3.30312
vt 1.85625 -3.35625
vt 4.01562 -0.50000
vt 3.75000 -0.50000
vt 4.01562 -0.55312
vt 3.75000 -0.55312
vt 4.28125 -0.50000
vt 4.28125 -0.76562
vt 3.75000 -0.76562
vt 4.28125 -0.55312
vt 6.85625 -4.25000
vt 6.75000 -4.25000
vt 6.85625 -4.30312
vt 6.75000 -4.30312
vt 7.17500 -4.25000
vt 7.17500 -4.35625
vt 6.75000 -4.35625
vt 7.17500 -4.30312
vt 3.42500 -5.00000
vt 3.00000 -5.00000
vt 3.42500 -5.05312
vt 3.00000 -5.05312
vt 3.47812 -5.00000
vt 3.47812 -5.42500
vt 3.00000 -5.42500
vt 3.47812 -5.05312
vt 2.13750 0.75000
vt 1.50000 0.75000
vt 2.13750 0.69688
vt 1.50000 0.69688
vt 1.71250 0.75000
vt 1.71250 0.11250
vt 1.50000 0.11250
vt 1.71250 0.69688
vt 4.96250 -1.25000
vt 4.75000 -1.25000
vt 4.96250 -1.30312
vt 4.75000 -1.30312
vt 5.12187 -1.25000
vt 5.12187 -1.46250
vt 4.75000 -1.46250
vt 5.12187 -1.30312
vt 3.67500 -6.25000
vt 3.25000 -6.25000
vt 3.67500 -6.30312
vt 3.25000 -6.30312
vt 3.46250 -6.25000
vt 3.46250 -6.67500
vt 3.25000 -6.67500
vt 3.46250 -6.30312
vt 6.60625 0.75000
vt 6.50000 0.75000
vt 6.60625 0.64375
vt 6.50000 0.64375
vt 6.81875 0.75000
vt 6.81875 0.64375
vt 5.10625 -3.75000
vt 5.00000 -3.75000
vt 5.10625 -3.85625
vt 5.00000 -3.85625
vt 5.42500 -3.75000
vt 5.42500 -3.85625
vt 3.10625 0.00000
vt 3.00000 0.00000
vt 3.10625 -0.10625
vt 3.00000 -0.10625
vt 3.85000 0.00000
vt 3.85000 -0.10625
vt 2.80312 -1.75000
vt 2.75000 -1.75000
vt 2.80312 -1.85625
vt 2.75000 -1.85625
vt 2.85625 -1.75000
vt 2.85625 -1.80312
vt 2.75000 -1.80312
vt 2.85625 -1.85625
vt 7.81875 -2.50000
vt 7.50000 -2.50000
vt 7.81875 -2.81875
vt 7.50000 -2.81875
vt 8.17500 -5.25000
vt 7.75000 -5.25000
vt 8.17500 -5.35625
vt 7.75000 -5.35625
vt 7.96250 -5.25000
vt 7.96250 -5.67500
vt 7.75000 -5.67500
vt 7.96250 -5.35625
vt 3.38281 -1.50000
vt 3.25000 -1.50000
vt 3.38281 -1.65937
vt 3.25000 -1.65937
vt 3.56875 -1.50000
vt 3.56875 -1.63281
vt 3.25000 -1.63281
vt 3.56875 -1.65937
vt 7.45156 -6.75000
vt 7.00000 -6.75000
vt 7.45156 -6.82969
vt 7.00000 -6.82969
vt 7.31875 -6.75000
vt 7.31875 -7.20156
vt 7.00000 -7.20156
vt 7.31875 -6.82969
vt 8.06875 -6.25000
vt 7.75000 -6.25000
vt 8.06875 -6.35625
vt 7.75000 -6.35625
vt 8.01562 -6.25000
vt 8.01562 -6.56875
vt 7.75000 -6.56875
vt 8.01562 -6.35625
vt 8.04219 -2.25000
vt 7.75000 -2.25000
vt 8.04219 -2.40937
vt 7.75000 -2.40937
vt 8.06875 -2.25000
vt 8.06875 -2.54219
vt 7.75000 -2.54219
vt 8.06875 -2.40937
vt 5.21250 -5.25000
vt 5.00000 -5.25000
vt 5.21250 -5.40937
vt 5.00000 -5.40937
vt 5.26562 -5.25000
vt 5.26562 -5.46250
vt 5.00000 -5.46250
vt 5.26562 -5.40937
vt 1.17500 0.25000
vt 0.75000 0.25000
vt 1.17500 0.17031
vt 0.75000 0.17031
vt 0.96250 0.25000
vt 0.96250 -0.17500
vt 0.75000 -0.17500
vt 0.96250 0.17031
vt 4.97812 -4.50000
vt 4.50000 -4.50000
vt 4.97812 -4.60625
vt 4.50000 -4.60625
vt 4.65937 -4.50000
vt 4.65937 -4.97812
vt 4.50000 -4.97812
vt 4.65937 -4.60625
vt 6.33437 -5.25000
vt 5.75000 -5.25000
vt 6.33437 -5.30312
vt 5.75000 -5.30312
vt 5.90937 -5.25000
vt 5.90937 -5.83437
vt 5.75000 -5.83437
vt 5.90937 -5.30312
vt 4.68594 -5.00000
vt 4.50000 -5.00000
vt 4.68594 -5.05312
vt 4.50000 -5.05312
vt 4.60625 -5.00000
vt 4.60625 -5.18594
vt 4.50000 -5.18594
vt 4.60625 -5.05312
vt 2.05312 -3.75000
vt 2.00000 -3.75000
vt 2.05312 -4.14844
vt 2.00000 -4.14844
vt 2.10625 -3.75000
vt 2.10625 -3.80312
vt 2.00000 -3.80312
vt 2.10625 -4.14844
vt 3.05312 -1.25000
vt 3.00000 -1.25000
vt 3.05312 -1.67500
vt 3.00000 -1.67500
vt 3.10625 -1.25000
vt 3.10625 -1.30312
vt 3.00000 -1.30312
vt 3.10625 -1.67500
vt 4.80312 -6.25000
vt 4.75000 -6.25000
vt 4.80312 -6.46250
vt 4.75000 -6.46250
vt 4.85625 -6.25000
vt 4.85625 -6.30312
vt 4.75000 -6.30312
vt 4.85625 -6.46250
vt 5.55312 -4.75000
vt 5.50000 -4.75000
vt 5.55312 -5.06875
vt 5.50000 -5.06875
vt 5.60625 -4.75000
vt 5.60625 -4.80312
vt 5.50000 -4.80312
vt 5.60625 -5.06875
vt 6.80312 -3.75000
vt 6.75000 -3.75000
vt 6.80312 -4.09531
vt 6.75000 -4.09531
vt 6.85625 -3.75000
vt 6.85625 -3.80312
vt 6.75000 -3.80312
vt 6.85625 -4.09531
vt 5.37187 -1.75000
vt 5.00000 -1.75000
vt 5.37187 -2.22812
vt 5.00000 -2.22812
vt 5.05312 -1.75000
vt 5.05312 -2.12187
vt 5.00000 -2.12187
vt 5.05312 -2.22812
vt 4.25000 -6.75000
vt 4.80781 -7.22812
vt 4.25000 -7.22812
vt 4.30312 -6.75000
vt 4.30312 -7.22812
vt 4.80781 -6.75000
vt 4.30312 -7.30781
vt 4.25000 -7.30781
vt 4.30312 -7.48468
vt 4.25000 -7.48468
vt 3.25000 -3.25000
vt 3.56875 -3.59531
vt 3.25000 -3.59531
vt 3.30312 -3.25000
vt 3.30312 -3.59531
vt 3.56875 -3.25000
vt 3.30312 -3.56875
vt 3.25000 -3.56875
vt 3.30312 -3.71994
vt 3.25000 -3.71994
vt 6.00000 -6.25000
vt 6.07969 -6.40937
vt 6.00000 -6.40937
vt 6.05312 -6.25000
vt 6.05312 -6.40937
vt 6.07969 -6.25000
vt 6.05312 -6.32969
vt 6.00000 -6.32969
vt 6.05312 -6.42819
vt 6.00000 -6.42819
vt 2.89844 -5.25000
vt 2.50000 -5.25000
vt 2.89844 -5.40937
vt 2.50000 -5.40937
vt 2.71250 -5.25000
vt 2.71250 -5.64844
vt 2.50000 -5.64844
vt 2.71250 -5.40937
vt 1.72812 -4.00000
vt 1.25000 -4.00000
vt 1.72812 -4.15937
vt 1.25000 -4.15937
vt 1.40937 -4.00000
vt 1.40937 -4.47812
vt 1.25000 -4.47812
vt 1.40937 -4.15937
vt 6.88281 0.75000
vt 6.75000 0.75000
vt 6.88281 0.51094
vt 6.75000 0.51094
vt 7.01562 0.75000
vt 7.01562 0.61719
vt 6.75000 0.61719
vt 7.01562 0.51094
vt 0.60625 -0.50000
vt 0.50000 -0.50000
vt 0.60625 -0.60625
vt 0.50000 -0.60625
vt 0.79219 -0.50000
vt 0.79219 -0.60625
vt 1.37187 -0.25000
vt 1.00000 -0.25000
vt 1.37187 -0.35625
vt 1.00000 -0.35625
vt 1.10625 -0.25000
vt 1.10625 -0.62187
vt 1.00000 -0.62187
vt 1.10625 -0.35625
vt 1.39844 -1.00000
vt 1.00000 -1.00000
vt 1.39844 -1.05312
vt 1.00000 -1.05312
vt 1.15937 -1.00000
vt 1.15937 -1.39844
vt 1.00000 -1.39844
vt 1.15937 -1.05312
vt 2.14844 -1.25000
vt 1.75000 -1.25000
vt 2.14844 -1.30312
vt 1.75000 -1.30312
vt 1.96250 -1.25000
vt 1.96250 -1.64844
vt 1.75000 -1.64844
vt 1.96250 -1.30312
vt 1.00000 1.00000
vt 0.00000 1.00000
vt 1.00000 0.00000
vt 0.00000 0.00000
vt 5.31875 0.75000
vt 5.00000 0.75000
vt 5.31875 0.53750
vt 5.00000 0.53750
vt 5.21250 0.75000
vt 5.21250 0.43125
vt 5.00000 0.43125
vt 5.21250 0.53750
vt 6.81875 -3.75000
vt 6.50000 -3.75000
vt 6.81875 -3.80312
vt 6.50000 -3.80312
vt 6.71250 -3.75000
vt 6.71250 -4.06875
vt 6.50000 -4.06875
vt 6.71250 -3.80312
vt 3.21250 -2.75000
vt 3.00000 -2.75000
vt 3.21250 -2.85625
vt 3.00000 -2.85625
vt 3.10625 -2.75000
vt 3.10625 -2.96250
vt 3.00000 -2.96250
vt 3.10625 -2.85625
vt 5.21250 0.00000
vt 5.00000 0.00000
vt 5.21250 -0.21250
vt 5.00000 -0.21250
vt 5.10625 0.00000
vt 5.10625 -0.21250
vt 2.10625 -2.25000
vt 2.00000 -2.25000
vt 2.10625 -2.35625
vt 2.00000 -2.35625
vt 1.21250 -1.25000
vt 1.00000 -1.25000
vt 1.21250 -1.46250
vt 1.00000 -1.46250
vt 1.10625 -1.25000
vt 1.10625 -1.46250
vt 1.21250 0.00000
vt 1.21250 -0.10625
vt 1.00000 -0.10625
vt 1.10625 0.00000
vt 1.10625 -0.21250
vt 1.00000 -0.21250
vt 1.10625 -0.10625
vt 6.85625 0.75000
vt 6.85625 0.64375
vt 6.75000 0.64375
vn 1.0000 0.0000 0.0000
vn 0.0000 1.0000 0.0000
vn 0.0000 0.0000 1.0000
vn -1.0000 0.0000 0.0000
vn 0.0000 -1.0000 0.0000
vn 0.0000 0.0000 -1.0000
vn 0.9055 0.0000 -0.4252
vn 0.4252 0.0000 0.9055
vn -0.9055 0.0000 0.4252
vn -0.4252 0.0000 -0.9055
vn 0.9843 0.0000 0.1732
vn -0.1732 0.0000 0.9843
vn -0.9843 0.0000 -0.1732
vn 0.1732 0.0000 -0.9843
vn 1.0000 0.0000 0.0866
vn -0.0866 0.0000 1.0000
vn -1.0000 0.0000 -0.0866
vn 0.0866 0.0000 -1.0000
vn 0.9055 0.0000 0.4252
vn -0.4252 0.0000 0.9055
vn -0.9055 0.0000 -0.4252
vn 0.4252 0.0000 -0.9055
vn 0.9843 0.0000 -0.1732
vn 0.1732 0.0000 0.9843
vn -0.9843 0.0000 0.1732
vn -0.1732 0.0000 -0.9843
vn 1.0000 0.0000 -0.0866
vn 0.0866 0.0000 1.0000
vn -1.0000 0.0000 0.0866
vn -0.0866 0.0000 -1.0000
vn 0.0000 1.0000 -0.0866
vn 0.0000 0.0866 1.0000
vn 0.0000 -1.0000 0.0866
vn 0.0000 -0.0866 -1.0000
vn 0.0000 0.9843 -0.1732
vn 0.0000 0.1732 0.9843
vn 0.0000 -0.9843 0.1732
vn 0.0000 -0.1732 -0.9843
vn 0.0000 0.8189 -0.5748
vn 0.0000 0.5748 0.8189
vn 0.0000 -0.8189 0.5748
vn 0.0000 -0.5748 -0.8189
vn 0.0000 1.0000 0.0866
vn 0.0000 -0.0866 1.0000
vn 0.0000 -1.0000 -0.0866
vn 0.0000 0.0866 -1.0000
vn 0.0000 0.7638 -0.6457
vn 0.0000 0.6457 0.7638
vn 0.0000 -0.7638 0.6457
vn 0.0000 -0.6457 -0.7638
vn 0.0000 0.9370 -0.3386
vn 0.0000 0.3386 0.9370
vn 0.0000 -0.9370 0.3386
vn 0.0000 -0.3386 -0.9370
vn 0.0000 0.9370 0.3386
vn 0.0000 -0.3386 0.9370
vn 0.0000 -0.9370 -0.3386
vn 0.0000 0.3386 -0.9370
vn 0.0000 0.7559 -0.6535
vn 0.0000 0.6772 0.7323
vn 0.0000 -0.4488 0.8976
vn 0.0000 0.9685 0.2598
vn 0.0000 -0.2598 0.9685
vn 0.0000 -0.9685 -0.2598
vn 0.0000 0.2598 -0.9685
vn 0.0000 0.9843 0.1732
vn 0.0000 -0.1732 0.9843
vn 0.0000 -0.9843 -0.1732
vn 0.0000 0.1732 -0.9843

o Tail
usemtl c_958988
f 1/1/1 2/2/1 3/3/1
f 3/3/1 2/2/1 4/4/1
f 5/5/2 2/2/2 6/6/2
f 6/6/2 2/2/2 1/7/2
f 2/5/3 5/2/3 4/8/3
f 4/8/3 5/2/3 7/4/3
f 5/1/4 6/2/4 7/3/4
f 7/3/4 6/2/4 8/4/4
f 8/5/5 3/2/5 7/6/5
f 7/6/5 3/2/5 4/7/5
f 6/5/6 1/2/6 8/8/6
f 8/8/6 1/2/6 3/4/6
o RightUpperArm
usemtl c_958988
f 9/9/7 10/10/7 11/11/7
f 11/11/7 10/10/7 12/12/7
f 13/13/2 10/10/2 14/14/2
f 14/14/2 10/10/2 9/12/2
f 10/13/8 13/10/8 12/14/8
f 12/14/8 13/10/8 15/12/8
f 13/9/9 14/10/9 15/11/9
f 15/11/9 14/10/9 16/12/9
f 16/13/5 11/10/5 15/14/5
f 15/14/5 11/10/5 12/12/5
f 14/13/10 9/10/10 16/14/10
f 16/14/10 9/10/10 11/12/10
f 17/15/11 18/16/11 19/17/11
f 19/17/11 18/16/11 20/18/11
f 21/19/2 18/16/2 22/20/2
f 22/20/2 18/16/2 17/18/2
f 18/19/12 21/16/12 20/20/12
f 20/20/12 21/16/12 23/18/12
f 21/15/13 22/16/13 23/17/13
f 23/17/13 22/16/13 24/18/13
f 24/19/5 19/16/5 23/20/5
f 23/20/5 19/16/5 20/18/5
f 22/19/14 17/16/14 24/20/14
f 24/20/14 17/16/14 19/18/14
f 25/21/15 26/22/15 27/23/15
f 27/23/15 26/22/15 28/24/15
f 29/25/2 26/22/2 30/26/2
f 30/26/2 26/22/2 25/24/2
f 26/25/16 29/22/16 28/26/16
f 28/26/16 29/22/16 31/24/16
f 29/21/17 30/22/17 31/23/17
f 31/23/17 30/22/17 32/24/17
f 32/25/5 27/22/5 31/26/5
f 31/26/5 27/22/5 28/24/5
f 30/25/18 25/22/18 32/26/18
f 32/26/18 25/22/18 27/24/18
usemtl c_cdcdcd
f 33/27/1 34/28/1 35/29/1
f 35/29/1 34/28/1 36/30/1
f 37/31/2 34/28/2 38/32/2
f 38/32/2 34/28/2 33/33/2
f 34/31/3 37/28/3 36/34/3
f 36/34/3 37/28/3 39/30/3
f 37/27/4 38/28/4 39/29/4
f 39/29/4 38/28/4 40/30/4
f 40/31/5 35/28/5 39/32/5
f 39/32/5 35/28/5 36/33/5
f 38/31/6 33/28/6 40/34/6
f 40/34/6 33/28/6 35/30/6
f 41/35/1 42/36/1 43/37/1
f 43/37/1 42/36/1 44/38/1
f 45/39/2 42/36/2 46/40/2
f 46/40/2 42/36/2 41/41/2
f 42/39/3 45/36/3 44/42/3
f 44/42/3 45/36/3 47/38/3
f 45/35/4 46/36/4 47/37/4
f 47/37/4 46/36/4 48/38/4
f 48/39/5 43/36/5 47/40/5
f 47/40/5 43/36/5 44/41/5
f 46/39/6 41/36/6 48/42/6
f 48/42/6 41/36/6 43/38/6
f 49/43/1 50/44/1 51/45/1
f 51/45/1 50/44/1 52/46/1
f 53/47/2 50/44/2 54/48/2
f 54/48/2 50/44/2 49/49/2
f 50/47/3 53/44/3 52/50/3
f 52/50/3 53/44/3 55/46/3
f 53/43/4 54/44/4 55/45/4
f 55/45/4 54/44/4 56/46/4
f 56/47/5 51/44/5 55/48/5
f 55/48/5 51/44/5 52/49/5
f 54/47/6 49/44/6 56/50/6
f 56/50/6 49/44/6 51/46/6
f 57/51/1 58/52/1 59/53/1
f 59/53/1 58/52/1 60/54/1
f 61/55/2 58/52/2 62/56/2
f 62/56/2 58/52/2 57/57/2
f 58/55/3 61/52/3 60/58/3
f 60/58/3 61/52/3 63/54/3
f 61/51/4 62/52/4 63/53/4
f 63/53/4 62/52/4 64/54/4
f 64/55/5 59/52/5 63/56/5
f 63/56/5 59/52/5 60/57/5
f 62/55/6 57/52/6 64/58/6
f 64/58/6 57/52/6 59/54/6
f 65/59/1 66/60/1 67/61/1
f 67/61/1 66/60/1 68/62/1
f 69/63/2 66/60/2 49/64/2
f 49/64/2 66/60/2 65/65/2
f 66/63/3 69/60/3 68/66/3
f 68/66/3 69/60/3 70/62/3
f 69/59/4 49/60/4 70/61/4
f 70/61/4 49/60/4 51/62/4
f 51/63/5 67/60/5 70/64/5
f 70/64/5 67/60/5 68/65/5
f 49/63/6 65/60/6 51/66/6
f 51/66/6 65/60/6 67/62/6
f 71/67/1 72/68/1 73/69/1
f 73/69/1 72/68/1 74/70/1
f 75/71/2 72/68/2 76/72/2
f 76/72/2 72/68/2 71/73/2
f 72/71/3 75/68/3 74/74/3
f 74/74/3 75/68/3 77/70/3
f 75/67/4 76/68/4 77/69/4
f 77/69/4 76/68/4 78/70/4
f 78/71/5 73/68/5 77/72/5
f 77/72/5 73/68/5 74/73/5
f 76/71/6 71/68/6 78/74/6
f 78/74/6 71/68/6 73/70/6
usemtl c_635f62
f 79/75/15 80/76/15 81/77/15
f 81/77/15 80/76/15 82/78/15
f 30/79/2 80/76/2 83/80/2
f 83/80/2 80/76/2 79/81/2
f 80/79/16 30/76/16 82/82/16
f 82/82/16 30/76/16 32/78/16
f 30/75/17 83/76/17 32/77/17
f 32/77/17 83/76/17 84/78/17
f 84/79/5 81/76/5 32/80/5
f 32/80/5 81/76/5 82/81/5
f 83/79/18 79/76/18 84/82/18
f 84/82/18 79/76/18 81/78/18
o LeftUpperArm
usemtl c_cdcdcd
f 85/83/1 86/84/1 87/85/1
f 87/85/1 86/84/1 88/86/1
f 89/87/2 86/84/2 90/88/2
f 90/88/2 86/84/2 85/89/2
f 86/87/3 89/84/3 88/90/3
f 88/90/3 89/84/3 91/86/3
f 89/83/4 90/84/4 91/85/4
f 91/85/4 90/84/4 92/86/4
f 92/87/5 87/84/5 91/88/5
f 91/88/5 87/84/5 88/89/5
f 90/87/6 85/84/6 92/90/6
f 92/90/6 85/84/6 87/86/6
f 93/91/1 94/92/1 95/93/1
f 95/93/1 94/92/1 96/94/1
f 97/95/2 94/92/2 98/96/2
f 98/96/2 94/92/2 93/97/2
f 94/95/3 97/92/3 96/98/3
f 96/98/3 97/92/3 99/94/3
f 97/91/4 98/92/4 99/93/4
f 99/93/4 98/92/4 100/94/4
f 100/95/5 95/92/5 99/96/5
f 99/96/5 95/92/5 96/97/5
f 98/95/6 93/92/6 100/98/6
f 100/98/6 93/92/6 95/94/6
f 101/99/1 102/100/1 103/101/1
f 103/101/1 102/100/1 104/102/1
f 105/103/2 102/100/2 106/104/2
f 106/104/2 102/100/2 101/105/2
f 102/103/3 105/100/3 104/106/3
f 104/106/3 105/100/3 107/102/3
f 105/99/4 106/100/4 107/101/4
f 107/101/4 106/100/4 108/102/4
f 108/103/5 103/100/5 107/104/5
f 107/104/5 103/100/5 104/105/5
f 106/103/6 101/100/6 108/106/6
f 108/106/6 101/100/6 103/102/6
f 98/107/1 109/108/1 100/109/1
f 100/109/1 109/108/1 110/110/1
f 111/111/2 109/108/2 112/112/2
f 112/112/2 109/108/2 98/113/2
f 109/111/3 111/108/3 110/114/3
f 110/114/3 111/108/3 113/110/3
f 111/107/4 112/108/4 113/109/4
f 113/109/4 112/108/4 114/110/4
f 114/111/5 100/108/5 113/112/5
f 113/112/5 100/108/5 110/113/5
f 112/111/6 98/108/6 114/114/6
f 114/114/6 98/108/6 100/110/6
f 115/115/1 116/116/1 117/117/1
f 117/117/1 116/116/1 118/118/1
f 119/119/2 116/116/2 120/120/2
f 120/120/2 116/116/2 115/121/2
f 116/119/3 119/116/3 118/122/3
f 118/122/3 119/116/3 121/118/3
f 119/115/4 120/116/4 121/117/4
f 121/117/4 120/116/4 122/118/4
f 122/119/5 117/116/5 121/120/5
f 121/120/5 117/116/5 118/121/5
f 120/119/6 115/116/6 122/122/6
f 122/122/6 115/116/6 117/118/6
f 123/123/1 124/124/1 125/125/1
f 125/125/1 124/124/1 126/126/1
f 127/127/2 124/124/2 128/128/2
f 128/128/2 124/124/2 123/129/2
f 124/127/3 127/124/3 126/130/3
f 126/130/3 127/124/3 129/126/3
f 127/123/4 128/124/4 129/125/4
f 129/125/4 128/124/4 130/126/4
f 130/127/5 125/124/5 129/128/5
f 129/128/5 125/124/5 126/129/5
f 128/127/6 123/124/6 130/130/6
f 130/130/6 123/124/6 125/126/6
usemtl c_958988
f 131/131/19 132/132/19 133/133/19
f 133/133/19 132/132/19 134/134/19
f 135/135/2 132/132/2 136/136/2
f 136/136/2 132/132/2 131/134/2
f 132/135/20 135/132/20 134/136/20
f 134/136/20 135/132/20 137/134/20
f 135/131/21 136/132/21 137/133/21
f 137/133/21 136/132/21 138/134/21
f 138/135/5 133/132/5 137/136/5
f 137/136/5 133/132/5 134/134/5
f 136/135/22 131/132/22 138/136/22
f 138/136/22 131/132/22 133/134/22
f 139/137/23 140/138/23 141/139/23
f 141/139/23 140/138/23 142/140/23
f 143/141/2 140/138/2 144/142/2
f 144/142/2 140/138/2 139/140/2
f 140/141/24 143/138/24 142/142/24
f 142/142/24 143/138/24 145/140/24
f 143/137/25 144/138/25 145/139/25
f 145/139/25 144/138/25 146/140/25
f 146/141/5 141/138/5 145/142/5
f 145/142/5 141/138/5 142/140/5
f 144/141/26 139/138/26 146/142/26
f 146/142/26 139/138/26 141/140/26
f 147/143/27 148/144/27 149/145/27
f 149/145/27 148/144/27 150/146/27
f 151/147/2 148/144/2 152/148/2
f 152/148/2 148/144/2 147/146/2
f 148/147/28 151/144/28 150/148/28
f 150/148/28 151/144/28 153/146/28
f 151/143/29 152/144/29 153/145/29
f 153/145/29 152/144/29 154/146/29
f 154/147/5 149/144/5 153/148/5
f 153/148/5 149/144/5 150/146/5
f 152/147/30 147/144/30 154/148/30
f 154/148/30 147/144/30 149/146/30
usemtl c_635f62
f 155/149/27 147/150/27 156/151/27
f 156/151/27 147/150/27 149/152/27
f 157/153/2 147/150/2 158/154/2
f 158/154/2 147/150/2 155/155/2
f 147/153/28 157/150/28 149/156/28
f 149/156/28 157/150/28 159/152/28
f 157/149/29 158/150/29 159/151/29
f 159/151/29 158/150/29 160/152/29
f 160/153/5 156/150/5 159/154/5
f 159/154/5 156/150/5 149/155/5
f 158/153/30 155/150/30 160/156/30
f 160/156/30 155/150/30 156/152/30
o UpperTorso
usemtl c_958988
f 161/157/1 162/158/1 163/159/1
f 163/159/1 162/158/1 164/160/1
f 165/157/2 162/158/2 166/159/2
f 166/159/2 162/158/2 161/160/2
f 162/157/3 165/158/3 164/159/3
f 164/159/3 165/158/3 167/160/3
f 165/157/4 166/158/4 167/159/4
f 167/159/4 166/158/4 168/160/4
f 168/157/5 163/158/5 167/159/5
f 167/159/5 163/158/5 164/160/5
f 166/157/6 161/158/6 168/159/6
f 168/159/6 161/158/6 163/160/6
usemtl c_bbb3b2
f 169/161/1 170/162/1 171/163/1
f 171/163/1 170/162/1 172/164/1
f 173/165/2 170/162/2 174/166/2
f 174/166/2 170/162/2 169/167/2
f 170/165/3 173/162/3 172/168/3
f 172/168/3 173/162/3 175/164/3
f 173/161/4 174/162/4 175/163/4
f 175/163/4 174/162/4 176/164/4
f 176/165/5 171/162/5 175/166/5
f 175/166/5 171/162/5 172/167/5
f 174/165/6 169/162/6 176/168/6
f 176/168/6 169/162/6 171/164/6
o Head
usemtl c_d5733d
f 177/169/1 178/170/1 179/171/1
f 179/171/1 178/170/1 180/172/1
f 181/173/2 178/170/2 182/174/2
f 182/174/2 178/170/2 177/175/2
f 178/173/3 181/170/3 180/176/3
f 180/176/3 181/170/3 183/172/3
f 181/169/4 182/170/4 183/171/4
f 183/171/4 182/170/4 184/172/4
f 184/173/5 179/170/5 183/174/5
f 183/174/5 179/170/5 180/175/5
f 182/173/6 177/170/6 184/176/6
f 184/176/6 177/170/6 179/172/6
f 185/177/1 186/178/1 187/179/1
f 187/179/1 186/178/1 188/180/1
f 189/181/31 186/178/31 190/182/31
f 190/182/31 186/178/31 185/183/31
f 186/181/32 189/178/32 188/184/32
f 188/184/32 189/178/32 191/180/32
f 189/177/4 190/178/4 191/179/4
f 191/179/4 190/178/4 192/180/4
f 192/181/33 187/178/33 191/182/33
f 191/182/33 187/178/33 188/183/33
f 190/181/34 185/178/34 192/184/34
f 192/184/34 185/178/34 187/180/34
f 193/185/1 194/186/1 195/187/1
f 195/187/1 194/186/1 196/188/1
f 197/189/2 194/186/2 198/190/2
f 198/190/2 194/186/2 193/191/2
f 194/189/3 197/186/3 196/192/3
f 196/192/3 197/186/3 199/188/3
f 197/185/4 198/186/4 199/187/4
f 199/187/4 198/186/4 200/188/4
f 200/189/5 195/186/5 199/190/5
f 199/190/5 195/186/5 196/191/5
f 198/189/6 193/186/6 200/192/6
f 200/192/6 193/186/6 195/188/6
f 201/193/1 202/194/1 203/195/1
f 203/195/1 202/194/1 204/196/1
f 205/197/2 202/194/2 206/198/2
f 206/198/2 202/194/2 201/199/2
f 202/197/3 205/194/3 204/200/3
f 204/200/3 205/194/3 207/196/3
f 205/193/4 206/194/4 207/195/4
f 207/195/4 206/194/4 208/196/4
f 208/197/5 203/194/5 207/198/5
f 207/198/5 203/194/5 204/199/5
f 206/197/6 201/194/6 208/200/6
f 208/200/6 201/194/6 203/196/6
f 209/201/1 210/202/1 211/203/1
f 211/203/1 210/202/1 212/204/1
f 213/205/2 210/202/2 214/206/2
f 214/206/2 210/202/2 209/207/2
f 210/205/3 213/202/3 212/208/3
f 212/208/3 213/202/3 215/204/3
f 213/201/4 214/202/4 215/203/4
f 215/203/4 214/202/4 216/204/4
f 216/205/5 211/202/5 215/206/5
f 215/206/5 211/202/5 212/207/5
f 214/205/6 209/202/6 216/208/6
f 216/208/6 209/202/6 211/204/6
f 217/209/1 218/210/1 219/211/1
f 219/211/1 218/210/1 220/212/1
f 221/213/31 218/210/31 222/214/31
f 222/214/31 218/210/31 217/215/31
f 218/213/32 221/210/32 220/216/32
f 220/216/32 221/210/32 223/212/32
f 221/209/4 222/210/4 223/211/4
f 223/211/4 222/210/4 224/212/4
f 224/213/33 219/210/33 223/214/33
f 223/214/33 219/210/33 220/215/33
f 222/213/34 217/210/34 224/216/34
f 224/216/34 217/210/34 219/212/34
f 225/217/1 226/218/1 227/219/1
f 227/219/1 226/218/1 228/220/1
f 229/221/2 226/218/2 230/222/2
f 230/222/2 226/218/2 225/223/2
f 226/221/3 229/218/3 228/224/3
f 228/224/3 229/218/3 231/220/3
f 229/217/4 230/218/4 231/219/4
f 231/219/4 230/218/4 232/220/4
f 232/221/5 227/218/5 231/222/5
f 231/222/5 227/218/5 228/223/5
f 230/221/6 225/218/6 232/224/6
f 232/224/6 225/218/6 227/220/6
usemtl c_c4281c
f 233/225/1 234/226/1 235/227/1
f 235/227/1 234/226/1 236/228/1
f 237/229/35 234/226/35 238/230/35
f 238/230/35 234/226/35 233/231/35
f 234/229/36 237/226/36 236/232/36
f 236/232/36 237/226/36 239/228/36
f 237/225/4 238/226/4 239/227/4
f 239/227/4 238/226/4 240/228/4
f 240/229/37 235/226/37 239/230/37
f 239/230/37 235/226/37 236/231/37
f 238/229/38 233/226/38 240/232/38
f 240/232/38 233/226/38 235/228/38
usemtl c_ff5959
f 241/233/1 242/234/1 243/235/1
f 243/235/1 242/234/1 244/236/1
f 245/237/39 242/234/39 246/238/39
f 246/238/39 242/234/39 241/239/39
f 242/237/40 245/234/40 244/240/40
f 244/240/40 245/234/40 247/236/40
f 245/233/4 246/234/4 247/235/4
f 247/235/4 246/234/4 248/236/4
f 248/237/41 243/234/41 247/238/41
f 247/238/41 243/234/41 244/239/41
f 246/237/42 241/234/42 248/240/42
f 248/240/42 241/234/42 243/236/42
f 249/241/1 250/242/1 251/243/1
f 251/243/1 250/242/1 252/244/1
f 253/245/43 250/242/43 254/246/43
f 254/246/43 250/242/43 249/247/43
f 250/245/44 253/242/44 252/248/44
f 252/248/44 253/242/44 255/244/44
f 253/241/4 254/242/4 255/243/4
f 255/243/4 254/242/4 256/244/4
f 256/245/45 251/242/45 255/246/45
f 255/246/45 251/242/45 252/247/45
f 254/245/46 249/242/46 256/248/46
f 256/248/46 249/242/46 251/244/46
f 257/249/1 258/250/1 259/251/1
f 259/251/1 258/250/1 260/252/1
f 261/253/35 258/250/35 262/254/35
f 262/254/35 258/250/35 257/255/35
f 258/253/36 261/250/36 260/256/36
f 260/256/36 261/250/36 263/252/36
f 261/249/4 262/250/4 263/251/4
f 263/251/4 262/250/4 264/252/4
f 264/253/37 259/250/37 263/254/37
f 263/254/37 259/250/37 260/255/37
f 262/253/38 257/250/38 264/256/38
f 264/256/38 257/250/38 259/252/38
f 265/257/1 266/258/1 267/259/1
f 267/259/1 266/258/1 268/260/1
f 269/261/47 266/258/47 270/262/47
f 270/262/47 266/258/47 265/263/47
f 266/261/48 269/258/48 268/264/48
f 268/264/48 269/258/48 271/260/48
f 269/257/4 270/258/4 271/259/4
f 271/259/4 270/258/4 272/260/4
f 272/261/49 267/258/49 271/262/49
f 271/262/49 267/258/49 268/263/49
f 270/261/50 265/258/50 272/264/50
f 272/264/50 265/258/50 267/260/50
f 273/265/1 274/266/1 275/267/1
f 275/267/1 274/266/1 276/268/1
f 277/269/51 274/266/51 278/270/51
f 278/270/51 274/266/51 273/271/51
f 274/269/52 277/266/52 276/272/52
f 276/272/52 277/266/52 279/268/52
f 277/265/4 278/266/4 279/267/4
f 279/267/4 278/266/4 280/268/4
f 280/269/53 275/266/53 279/270/53
f 279/270/53 275/266/53 276/271/53
f 278/269/54 273/266/54 280/272/54
f 280/272/54 273/266/54 275/268/54
f 281/273/1 282/274/1 283/275/1
f 283/275/1 282/274/1 284/276/1
f 285/277/55 282/274/55 286/278/55
f 286/278/55 282/274/55 281/279/55
f 282/277/56 285/274/56 284/280/56
f 284/280/56 285/274/56 287/276/56
f 285/273/4 286/274/4 287/275/4
f 287/275/4 286/274/4 288/276/4
f 288/277/57 283/274/57 287/278/57
f 287/278/57 283/274/57 284/279/57
f 286/277/58 281/274/58 288/280/58
f 288/280/58 281/274/58 283/276/58
usemtl c_883e3e
f 289/281/1 290/282/1 291/283/1
f 291/283/1 290/282/1 292/284/1
f 293/285/2 290/282/2 294/286/2
f 294/286/2 290/282/2 289/287/2
f 290/285/3 293/282/3 292/288/3
f 292/288/3 293/282/3 295/284/3
f 293/281/4 294/282/4 295/283/4
f 295/283/4 294/282/4 296/284/4
f 296/285/5 291/282/5 295/286/5
f 295/286/5 291/282/5 292/287/5
f 294/285/6 289/282/6 296/288/6
f 296/288/6 289/282/6 291/284/6
f 289/289/1 289/289/1 297/290/1
f 297/290/1 289/289/1 291/291/1
f 289/292/3 294/289/3 291/293/3
f 291/293/3 294/289/3 296/291/3
f 294/294/4 294/294/4 296/290/4
f 296/290/4 294/294/4 298/291/4
f 298/292/5 297/289/5 296/295/5
f 296/295/5 297/289/5 291/296/5
f 294/292/59 289/289/59 298/297/59
f 298/297/59 289/289/59 297/298/59
f 293/299/4 293/299/4 299/300/4
f 299/300/4 293/299/4 300/301/4
f 293/302/6 290/299/6 300/303/6
f 300/303/6 290/299/6 301/301/6
f 290/304/1 290/304/1 301/300/1
f 301/300/1 290/304/1 302/301/1
f 302/302/5 299/299/5 301/305/5
f 301/305/5 299/299/5 300/306/5
f 290/302/60 293/299/60 302/307/60
f 302/307/60 293/299/60 299/308/60
f 303/309/1 303/309/1 302/310/1
f 302/310/1 303/309/1 304/311/1
f 303/312/6 305/309/6 304/313/6
f 304/313/6 305/309/6 306/311/6
f 305/314/4 305/314/4 306/310/4
f 306/310/4 305/314/4 299/311/4
f 299/312/2 302/309/2 306/315/2
f 306/315/2 302/309/2 304/316/2
f 305/312/61 303/309/61 299/317/61
f 299/317/61 303/309/61 302/318/61
usemtl c_958988
f 307/319/1 308/320/1 309/321/1
f 309/321/1 308/320/1 310/322/1
f 311/323/2 308/320/2 312/324/2
f 312/324/2 308/320/2 307/325/2
f 308/323/3 311/320/3 310/326/3
f 310/326/3 311/320/3 313/322/3
f 311/319/4 312/320/4 313/321/4
f 313/321/4 312/320/4 314/322/4
f 314/323/5 309/320/5 313/324/5
f 313/324/5 309/320/5 310/325/5
f 312/323/6 307/320/6 314/326/6
f 314/326/6 307/320/6 309/322/6
f 315/327/1 316/328/1 317/329/1
f 317/329/1 316/328/1 318/330/1
f 319/331/62 316/328/62 320/332/62
f 320/332/62 316/328/62 315/333/62
f 316/331/63 319/328/63 318/334/63
f 318/334/63 319/328/63 321/330/63
f 319/327/4 320/328/4 321/329/4
f 321/329/4 320/328/4 322/330/4
f 322/331/64 317/328/64 321/332/64
f 321/332/64 317/328/64 318/333/64
f 320/331/65 315/328/65 322/334/65
f 322/334/65 315/328/65 317/330/65
f 210/335/1 323/336/1 324/337/1
f 324/337/1 323/336/1 325/338/1
f 326/339/2 323/336/2 213/340/2
f 213/340/2 323/336/2 210/341/2
f 323/339/3 326/336/3 325/342/3
f 325/342/3 326/336/3 327/338/3
f 326/335/4 213/336/4 327/337/4
f 327/337/4 213/336/4 328/338/4
f 328/339/5 324/336/5 327/340/5
f 327/340/5 324/336/5 325/341/5
f 213/339/6 210/336/6 328/342/6
f 328/342/6 210/336/6 324/338/6
usemtl c_ccffcc
f 329/343/1 330/344/1 331/345/1
f 331/345/1 330/344/1 332/346/1
f 333/347/2 330/344/2 334/348/2
f 334/348/2 330/344/2 329/346/2
f 330/347/3 333/344/3 332/348/3
f 332/348/3 333/344/3 335/346/3
f 333/343/4 334/344/4 335/345/4
f 335/345/4 334/344/4 336/346/4
f 336/347/5 331/344/5 335/348/5
f 335/348/5 331/344/5 332/346/5
f 334/347/6 329/344/6 336/348/6
f 336/348/6 329/344/6 331/346/6
usemtl c_bbb3b2
f 337/349/1 338/350/1 339/351/1
f 339/351/1 338/350/1 340/352/1
f 341/353/66 338/350/66 342/354/66
f 342/354/66 338/350/66 337/355/66
f 338/353/67 341/350/67 340/356/67
f 340/356/67 341/350/67 343/352/67
f 341/349/4 342/350/4 343/351/4
f 343/351/4 342/350/4 344/352/4
f 344/353/68 339/350/68 343/354/68
f 343/354/68 339/350/68 340/355/68
f 342/353/69 337/350/69 344/356/69
f 344/356/69 337/350/69 339/352/69
f 345/357/1 318/358/1 346/359/1
f 346/359/1 318/358/1 347/360/1
f 321/361/62 318/358/62 348/362/62
f 348/362/62 318/358/62 345/363/62
f 318/361/63 321/358/63 347/364/63
f 347/364/63 321/358/63 349/360/63
f 321/357/4 348/358/4 349/359/4
f 349/359/4 348/358/4 350/360/4
f 350/361/64 346/358/64 349/362/64
f 349/362/64 346/358/64 347/363/64
f 348/361/65 345/358/65 350/364/65
f 350/364/65 345/358/65 346/360/65
f 309/365/1 310/366/1 351/367/1
f 351/367/1 310/366/1 352/368/1
f 313/369/2 310/366/2 314/370/2
f 314/370/2 310/366/2 309/371/2
f 310/369/3 313/366/3 352/372/3
f 352/372/3 313/366/3 353/368/3
f 313/365/4 314/366/4 353/367/4
f 353/367/4 314/366/4 354/368/4
f 354/369/5 351/366/5 353/370/5
f 353/370/5 351/366/5 352/371/5
f 314/369/6 309/366/6 354/372/6
f 354/372/6 309/366/6 351/368/6
o Head_decal1
usemtl head_decal1
f 355/373/1 356/374/1 357/375/1
f 357/375/1 356/374/1 358/376/1
o Head_decal2
usemtl head_decal2
f 359/373/4 360/374/4 361/375/4
f 361/375/4 360/374/4 362/376/4
o LowerTorso
usemtl c_958988
f 363/377/1 364/378/1 365/379/1
f 365/379/1 364/378/1 366/380/1
f 367/381/2 364/378/2 368/382/2
f 368/382/2 364/378/2 363/383/2
f 364/381/3 367/378/3 366/384/3
f 366/384/3 367/378/3 369/380/3
f 367/377/4 368/378/4 369/379/4
f 369/379/4 368/378/4 370/380/4
f 370/381/5 365/378/5 369/382/5
f 369/382/5 365/378/5 366/383/5
f 368/381/6 363/378/6 370/384/6
f 370/384/6 363/378/6 365/380/6
usemtl c_bbb3b2
f 365/385/1 366/386/1 371/387/1
f 371/387/1 366/386/1 372/388/1
f 369/389/2 366/386/2 370/390/2
f 370/390/2 366/386/2 365/391/2
f 366/389/3 369/386/3 372/392/3
f 372/392/3 369/386/3 373/388/3
f 369/385/4 370/386/4 373/387/4
f 373/387/4 370/386/4 374/388/4
f 374/389/5 371/386/5 373/390/5
f 373/390/5 371/386/5 372/391/5
f 370/389/6 365/386/6 374/392/6
f 374/392/6 365/386/6 371/388/6
o RightUpperLeg
usemtl c_958988
f 375/393/1 376/394/1 377/395/1
f 377/395/1 376/394/1 378/396/1
f 379/397/3 376/394/3 380/398/3
f 380/398/3 376/394/3 375/399/3
f 376/397/5 379/394/5 378/400/5
f 378/400/5 379/394/5 381/396/5
f 379/393/4 380/394/4 381/395/4
f 381/395/4 380/394/4 382/396/4
f 382/397/6 377/394/6 381/398/6
f 381/398/6 377/394/6 378/399/6
f 380/397/2 375/394/2 382/400/2
f 382/400/2 375/394/2 377/396/2
f 383/401/1 375/402/1 384/403/1
f 384/403/1 375/402/1 385/404/1
f 380/405/3 375/402/3 386/406/3
f 386/406/3 375/402/3 383/404/3
f 375/405/5 380/402/5 385/406/5
f 385/406/5 380/402/5 387/404/5
f 380/401/4 386/402/4 387/403/4
f 387/403/4 386/402/4 388/404/4
f 388/405/6 384/402/6 387/406/6
f 387/406/6 384/402/6 385/404/6
f 386/405/2 383/402/2 388/406/2
f 388/406/2 383/402/2 384/404/2
usemtl c_635f62
f 389/407/1 390/408/1 391/409/1
f 391/409/1 390/408/1 392/410/1
f 393/407/3 390/408/3 394/409/3
f 394/409/3 390/408/3 389/410/3
f 390/407/5 393/408/5 392/409/5
f 392/409/5 393/408/5 395/410/5
f 393/407/4 394/408/4 395/409/4
f 395/409/4 394/408/4 396/410/4
f 396/407/6 391/408/6 395/409/6
f 395/409/6 391/408/6 392/410/6
f 394/407/2 389/408/2 396/409/2
f 396/409/2 389/408/2 391/410/2
o LeftUpperLeg
usemtl c_958988
f 397/411/1 398/412/1 399/413/1
f 399/413/1 398/412/1 400/414/1
f 401/415/3 398/412/3 402/416/3
f 402/416/3 398/412/3 397/414/3
f 398/415/5 401/412/5 400/416/5
f 400/416/5 401/412/5 403/414/5
f 401/411/4 402/412/4 403/413/4
f 403/413/4 402/412/4 404/414/4
f 404/415/6 399/412/6 403/416/6
f 403/416/6 399/412/6 400/414/6
f 402/415/2 397/412/2 404/416/2
f 404/416/2 397/412/2 399/414/2
f 398/417/1 405/375/1 406/418/1
f 406/418/1 405/375/1 407/419/1
f 408/420/3 405/375/3 401/421/3
f 401/421/3 405/375/3 398/422/3
f 405/420/5 408/375/5 407/423/5
f 407/423/5 408/375/5 409/419/5
f 408/417/4 401/375/4 409/418/4
f 409/418/4 401/375/4 410/419/4
f 410/420/6 406/375/6 409/421/6
f 409/421/6 406/375/6 407/422/6
f 401/420/2 398/375/2 410/423/2
f 410/423/2 398/375/2 406/419/2
usemtl c_635f62
f 411/424/1 412/336/1 413/425/1
f 413/425/1 412/336/1 414/426/1
f 415/424/3 412/336/3 416/425/3
f 416/425/3 412/336/3 411/426/3
f 412/424/5 415/336/5 414/425/5
f 414/425/5 415/336/5 417/426/5
f 415/424/4 416/336/4 417/425/4
f 417/425/4 416/336/4 418/426/4
f 418/424/6 413/336/6 417/425/6
f 417/425/6 413/336/6 414/426/6
f 416/424/2 411/336/2 418/425/2
f 418/425/2 411/336/2 413/426/2
