# Roblox asset pack: egg_irex (props), from the Studio model "IRex". Exported with Export Selection, split by tools/build_creatures.py: one object per rigid body. Units: studs. +Y up, front faces -Z, pivot (bottom centre) at the origin.
mtllib egg_irex.mtl

v -2.36820 4.31000 0.00000
v 2.36820 4.31000 0.00000
v -2.36820 2.58000 0.00000
v 2.36820 2.58000 0.00000
v 2.36820 4.31000 1.72000
v -2.36820 4.31000 1.72000
v 2.36820 2.58000 1.72000
v -2.36820 2.58000 1.72000
v 0.00000 2.58000 -2.37000
v 1.72230 2.58000 -2.37000
v 0.00000 0.86000 -2.37000
v 1.72230 0.86000 -2.37000
v 1.72230 2.58000 2.37000
v 0.00000 2.58000 2.37000
v 1.72230 0.86000 2.37000
v 0.00000 0.86000 2.37000
v -1.72230 4.31000 -2.37000
v 0.00000 4.31000 -2.37000
v -1.72230 2.58000 -2.37000
v 0.00000 4.31000 2.37000
v -1.72230 4.31000 2.37000
v -1.72230 2.58000 2.37000
v -2.36820 2.58000 -1.72000
v 2.36820 2.58000 -1.72000
v -2.36820 0.86000 -1.72000
v 2.36820 0.86000 -1.72000
v 2.36820 0.86000 0.00000
v -2.36820 0.86000 0.00000
v -1.72230 0.86000 -2.37000
v -1.72230 0.86000 2.37000
v 1.72230 4.31000 -2.37000
v 1.72230 4.31000 2.37000
v -2.36820 4.31000 -1.72000
v 2.36820 4.31000 -1.72000
v 2.36820 0.86000 1.72000
v -2.36820 0.86000 1.72000
v -1.29170 7.75000 -1.29000
v 1.29170 7.75000 -1.29000
v -1.29170 6.03000 -1.29000
v 1.29170 6.03000 -1.29000
v 1.29170 7.75000 1.29000
v -1.29170 7.75000 1.29000
v 1.29170 6.03000 1.29000
v -1.29170 6.03000 1.29000
v -1.72230 6.03000 -1.72000
v 1.72230 6.03000 -1.72000
v -1.72230 0.00000 -1.72000
v 1.72230 0.00000 -1.72000
v 1.72230 6.03000 1.72000
v -1.72230 6.03000 1.72000
v 1.72230 0.00000 1.72000
v -1.72230 0.00000 1.72000
vt 7.34205 -3.00000
vt 6.75000 -3.00000
vt 7.34205 -3.21529
vt 6.75000 -3.21529
vt 6.96529 -3.00000
vt 6.96529 -3.59205
vt 6.75000 -3.59205
vt 6.96529 -3.21529
vt 0.21529 -4.75000
vt 0.00000 -4.75000
vt 0.21529 -4.96529
vt 0.00000 -4.96529
vt 0.59205 -4.75000
vt 0.59205 -4.96529
vt 0.46529 -5.50000
vt 0.25000 -5.50000
vt 0.46529 -5.71529
vt 0.25000 -5.71529
vt 0.84205 -5.50000
vt 0.84205 -5.71529
vt 0.84205 -0.25000
vt 0.25000 -0.25000
vt 0.84205 -0.46529
vt 0.25000 -0.46529
vt 0.46529 -0.25000
vt 0.46529 -0.84205
vt 0.25000 -0.84205
vt 0.46529 -0.46529
vt 6.71529 -2.25000
vt 6.50000 -2.25000
vt 6.71529 -2.46529
vt 6.50000 -2.46529
vt 7.09205 -2.25000
vt 7.09205 -2.46529
vt 0.71529 -5.25000
vt 0.50000 -5.25000
vt 0.71529 -5.46529
vt 0.50000 -5.46529
vt 1.09205 -5.25000
vt 1.09205 -5.46529
vt 3.09205 -6.50000
vt 2.50000 -6.50000
vt 3.09205 -6.71529
vt 2.50000 -6.71529
vt 2.71529 -6.50000
vt 2.71529 -7.09205
vt 2.50000 -7.09205
vt 2.71529 -6.71529
vt 5.59205 -1.25000
vt 5.00000 -1.25000
vt 5.59205 -1.46529
vt 5.00000 -1.46529
vt 5.21529 -1.25000
vt 5.21529 -1.84205
vt 5.00000 -1.84205
vt 5.21529 -1.46529
vt 7.57294 -4.00000
vt 7.25000 -4.00000
vt 7.57294 -4.21529
vt 7.25000 -4.21529
vt 7.57294 -4.32294
vt 7.25000 -4.32294
vt 7.93058 -4.00000
vt 7.50000 -4.00000
vt 7.93058 -4.75351
vt 7.50000 -4.75351
vt 7.93058 -4.43058
vt 7.50000 -4.43058
vn 0.0000 0.0000 -1.0000
vn 0.0000 1.0000 0.0000
vn 1.0000 0.0000 0.0000
vn 0.0000 0.0000 1.0000
vn 0.0000 -1.0000 0.0000
vn -1.0000 0.0000 0.0000

o egg_irex
usemtl c_7c777b
f 1/1/1 2/2/1 3/3/1
f 3/3/1 2/2/1 4/4/1
f 5/5/2 2/2/2 6/6/2
f 6/6/2 2/2/2 1/7/2
f 2/5/3 5/2/3 4/8/3
f 4/8/3 5/2/3 7/4/3
f 5/1/4 6/2/4 7/3/4
f 7/3/4 6/2/4 8/4/4
f 8/5/5 3/2/5 7/6/5
f 7/6/5 3/2/5 4/7/5
f 6/5/6 1/2/6 8/8/6
f 8/8/6 1/2/6 3/4/6
f 9/9/1 10/10/1 11/11/1
f 11/11/1 10/10/1 12/12/1
f 13/13/2 10/10/2 14/14/2
f 14/14/2 10/10/2 9/12/2
f 10/13/3 13/10/3 12/14/3
f 12/14/3 13/10/3 15/12/3
f 13/9/4 14/10/4 15/11/4
f 15/11/4 14/10/4 16/12/4
f 16/13/5 11/10/5 15/14/5
f 15/14/5 11/10/5 12/12/5
f 14/13/6 9/10/6 16/14/6
f 16/14/6 9/10/6 11/12/6
usemtl c_ff5959
f 17/15/1 18/16/1 19/17/1
f 19/17/1 18/16/1 9/18/1
f 20/19/2 18/16/2 21/20/2
f 21/20/2 18/16/2 17/18/2
f 18/19/3 20/16/3 9/20/3
f 9/20/3 20/16/3 14/18/3
f 20/15/4 21/16/4 14/17/4
f 14/17/4 21/16/4 22/18/4
f 22/19/5 19/16/5 14/20/5
f 14/20/5 19/16/5 9/18/5
f 21/19/6 17/16/6 22/20/6
f 22/20/6 17/16/6 19/18/6
f 23/21/1 24/22/1 25/23/1
f 25/23/1 24/22/1 26/24/1
f 4/25/2 24/22/2 3/26/2
f 3/26/2 24/22/2 23/27/2
f 24/25/3 4/22/3 26/28/3
f 26/28/3 4/22/3 27/24/3
f 4/21/4 3/22/4 27/23/4
f 27/23/4 3/22/4 28/24/4
f 28/25/5 25/22/5 27/26/5
f 27/26/5 25/22/5 26/27/5
f 3/25/6 23/22/6 28/28/6
f 28/28/6 23/22/6 25/24/6
usemtl c_bbb3b2
f 19/29/1 9/30/1 29/31/1
f 29/31/1 9/30/1 11/32/1
f 14/33/2 9/30/2 22/34/2
f 22/34/2 9/30/2 19/32/2
f 9/33/3 14/30/3 11/34/3
f 11/34/3 14/30/3 16/32/3
f 14/29/4 22/30/4 16/31/4
f 16/31/4 22/30/4 30/32/4
f 30/33/5 29/30/5 16/34/5
f 16/34/5 29/30/5 11/32/5
f 22/33/6 19/30/6 30/34/6
f 30/34/6 19/30/6 29/32/6
f 18/35/1 31/36/1 9/37/1
f 9/37/1 31/36/1 10/38/1
f 32/39/2 31/36/2 20/40/2
f 20/40/2 31/36/2 18/38/2
f 31/39/3 32/36/3 10/40/3
f 10/40/3 32/36/3 13/38/3
f 32/35/4 20/36/4 13/37/4
f 13/37/4 20/36/4 14/38/4
f 14/39/5 9/36/5 13/40/5
f 13/40/5 9/36/5 10/38/5
f 20/39/6 18/36/6 14/40/6
f 14/40/6 18/36/6 9/38/6
f 33/41/1 34/42/1 23/43/1
f 23/43/1 34/42/1 24/44/1
f 2/45/2 34/42/2 1/46/2
f 1/46/2 34/42/2 33/47/2
f 34/45/3 2/42/3 24/48/3
f 24/48/3 2/42/3 4/44/3
f 2/41/4 1/42/4 4/43/4
f 4/43/4 1/42/4 3/44/4
f 3/45/5 23/42/5 4/46/5
f 4/46/5 23/42/5 24/47/5
f 1/45/6 33/42/6 3/48/6
f 3/48/6 33/42/6 23/44/6
f 3/49/1 4/50/1 28/51/1
f 28/51/1 4/50/1 27/52/1
f 7/53/2 4/50/2 8/54/2
f 8/54/2 4/50/2 3/55/2
f 4/53/3 7/50/3 27/56/3
f 27/56/3 7/50/3 35/52/3
f 7/49/4 8/50/4 35/51/4
f 35/51/4 8/50/4 36/52/4
f 36/53/5 28/50/5 35/54/5
f 35/54/5 28/50/5 27/55/5
f 8/53/6 3/50/6 36/56/6
f 36/56/6 3/50/6 28/52/6
usemtl c_f8f8f8
f 37/57/1 38/58/1 39/59/1
f 39/59/1 38/58/1 40/60/1
f 41/57/2 38/58/2 42/61/2
f 42/61/2 38/58/2 37/62/2
f 38/57/3 41/58/3 40/59/3
f 40/59/3 41/58/3 43/60/3
f 41/57/4 42/58/4 43/59/4
f 43/59/4 42/58/4 44/60/4
f 44/57/5 39/58/5 43/61/5
f 43/61/5 39/58/5 40/62/5
f 42/57/6 37/58/6 44/59/6
f 44/59/6 37/58/6 39/60/6
usemtl c_cdcdcd
f 45/63/1 46/64/1 47/65/1
f 47/65/1 46/64/1 48/66/1
f 49/63/2 46/64/2 50/67/2
f 50/67/2 46/64/2 45/68/2
f 46/63/3 49/64/3 48/65/3
f 48/65/3 49/64/3 51/66/3
f 49/63/4 50/64/4 51/65/4
f 51/65/4 50/64/4 52/66/4
f 52/63/5 47/64/5 51/67/5
f 51/67/5 47/64/5 48/68/5
f 50/63/6 45/64/6 52/65/6
f 52/65/6 45/64/6 47/66/6
