# Roblox asset pack: digital_saurus (creatures), from the Studio model "DigitalSaurus". Exported with Export Selection, split by tools/build_creatures.py: one object per rigid body. Units: studs. +Y up, front faces -Z, pivot (bottom centre) at the origin.
mtllib digital_saurus.mtl

v 1.50000 9.00000 -4.12000
v 1.50000 9.00000 -1.88000
v 1.50000 6.00000 -4.12000
v 1.50000 6.00000 -1.88000
v -1.50000 9.00000 -1.88000
v -1.50000 9.00000 -4.12000
v -1.50000 6.00000 -1.88000
v -1.50000 6.00000 -4.12000
v 1.50000 9.75000 -1.12000
v 1.50000 9.75000 -0.38000
v 1.50000 6.00000 -1.12000
v 1.50000 6.00000 -0.38000
v -1.50000 9.75000 -0.38000
v -1.50000 9.75000 -1.12000
v -1.50000 6.00000 -0.38000
v -1.50000 6.00000 -1.12000
v 0.75000 9.00000 -0.38000
v 0.75000 9.00000 1.12000
v 0.75000 7.50000 -0.38000
v 0.75000 7.50000 1.12000
v -0.75000 9.00000 1.12000
v -0.75000 9.00000 -0.38000
v -0.75000 7.50000 1.12000
v -0.75000 7.50000 -0.38000
v 1.50000 6.75000 -0.38000
v 1.50000 6.75000 0.38000
v 1.50000 6.00000 0.38000
v -1.50000 6.75000 0.38000
v -1.50000 6.75000 -0.38000
v -1.50000 6.00000 0.38000
v 1.50000 9.00000 -1.12000
v -1.50000 9.00000 -1.12000
v 1.50000 9.75000 -4.12000
v -1.50000 9.75000 -4.12000
v 0.75000 9.00000 -4.88000
v 0.75000 9.00000 -4.12000
v 0.75000 6.75000 -4.88000
v 0.75000 6.75000 -4.12000
v -0.75000 9.00000 -4.12000
v -0.75000 9.00000 -4.88000
v -0.75000 6.75000 -4.12000
v -0.75000 6.75000 -4.88000
v 1.50000 10.50000 -7.88000
v 1.50000 10.50000 -4.12000
v 1.50000 9.75000 -7.88000
v -1.50000 10.50000 -4.12000
v -1.50000 10.50000 -7.88000
v -1.50000 9.75000 -7.88000
v 2.25000 6.75000 1.12000
v 2.25000 6.75000 1.88000
v 2.25000 6.00000 1.12000
v 2.25000 6.00000 1.88000
v -2.25000 6.75000 1.88000
v -2.25000 6.75000 1.12000
v -2.25000 6.00000 1.88000
v -2.25000 6.00000 1.12000
v 2.25000 7.50000 -1.12000
v 2.25000 7.50000 0.38000
v 2.25000 3.00000 -1.12000
v 2.25000 3.00000 0.38000
v -2.25000 7.50000 0.38000
v -2.25000 7.50000 -1.12000
v -2.25000 3.00000 0.38000
v -2.25000 3.00000 -1.12000
v 2.25000 6.75000 0.38000
v 2.25000 6.00000 0.38000
v -2.25000 6.75000 0.38000
v -2.25000 6.00000 0.38000
v 2.25000 3.00000 1.88000
v -2.25000 3.00000 1.88000
v 2.25000 7.50000 1.88000
v -2.25000 7.50000 1.88000
v 2.25000 6.75000 -3.38000
v 2.25000 6.75000 -2.62000
v 2.25000 3.75000 -3.38000
v 2.25000 3.75000 -2.62000
v -2.25000 6.75000 -2.62000
v -2.25000 6.75000 -3.38000
v -2.25000 3.75000 -2.62000
v -2.25000 3.75000 -3.38000
v 2.25000 7.50000 -2.62000
v 2.25000 3.00000 -2.62000
v -2.25000 7.50000 -2.62000
v -2.25000 3.00000 -2.62000
v 0.75000 3.00000 -2.62000
v 0.75000 3.00000 -1.12000
v 0.75000 2.25000 -2.62000
v 0.75000 2.25000 -1.12000
v -0.75000 3.00000 -1.12000
v -0.75000 3.00000 -2.62000
v -0.75000 2.25000 -1.12000
v -0.75000 2.25000 -2.62000
v 1.50000 3.00000 -1.12000
v 1.50000 3.00000 1.12000
v 1.50000 2.25000 -1.12000
v 1.50000 2.25000 1.12000
v -1.50000 3.00000 1.12000
v -1.50000 3.00000 -1.12000
v -1.50000 2.25000 1.12000
v -1.50000 2.25000 -1.12000
v -3.00000 6.75000 -1.88000
v -3.00000 6.75000 -1.12000
v -3.00000 4.50000 -1.88000
v -3.00000 4.50000 -1.12000
v -5.25000 6.75000 -1.12000
v -5.25000 6.75000 -1.88000
v -5.25000 4.50000 -1.12000
v -5.25000 4.50000 -1.88000
v -3.00000 7.50000 0.75000
v -3.00000 7.50000 3.00000
v -3.00000 6.75000 0.75000
v -3.00000 6.75000 3.00000
v -5.25000 7.50000 3.00000
v -5.25000 7.50000 0.75000
v -5.25000 6.75000 3.00000
v -5.25000 6.75000 0.75000
v -3.00000 6.75000 3.75000
v -3.00000 4.50000 3.00000
v -3.00000 4.50000 3.75000
v -5.25000 6.75000 3.75000
v -5.25000 4.50000 3.75000
v -5.25000 4.50000 3.00000
v -2.25000 6.75000 0.75000
v -2.25000 6.75000 3.00000
v -2.25000 4.50000 0.75000
v -2.25000 4.50000 3.00000
v -6.00000 6.75000 3.00000
v -6.00000 6.75000 0.75000
v -6.00000 4.50000 3.00000
v -6.00000 4.50000 0.75000
v -3.00000 6.75000 0.38000
v -3.00000 6.00000 -1.12000
v -3.00000 6.00000 0.38000
v -5.25000 6.75000 0.38000
v -5.25000 6.00000 0.38000
v -5.25000 6.00000 -1.12000
v -3.37500 6.00000 -1.12000
v -3.37500 6.00000 2.62000
v -3.37500 4.50000 -1.12000
v -3.37500 4.50000 2.62000
v -4.87500 6.00000 2.62000
v -4.87500 6.00000 -1.12000
v -4.87500 4.50000 2.62000
v -4.87500 4.50000 -1.12000
v 5.25000 3.75000 0.38000
v 5.25000 3.75000 1.88000
v 5.25000 2.25000 0.38000
v 5.25000 2.25000 1.88000
v 3.00000 3.75000 1.88000
v 3.00000 3.75000 0.38000
v 3.00000 2.25000 1.88000
v 3.00000 2.25000 0.38000
v 5.62500 3.75000 -0.38000
v 5.62500 3.75000 0.38000
v 5.62500 2.25000 -0.38000
v 5.62500 2.25000 0.38000
v 2.62500 3.75000 0.38000
v 2.62500 3.75000 -0.38000
v 2.62500 2.25000 0.38000
v 2.62500 2.25000 -0.38000
v 5.62500 3.75000 1.88000
v 5.62500 3.75000 2.62000
v 5.62500 2.25000 1.88000
v 5.62500 2.25000 2.62000
v 2.62500 3.75000 2.62000
v 2.62500 3.75000 1.88000
v 2.62500 2.25000 2.62000
v 2.62500 2.25000 1.88000
v 5.62500 4.50000 -0.38000
v 5.62500 4.50000 2.62000
v 2.62500 4.50000 2.62000
v 2.62500 4.50000 -0.38000
v 5.62500 1.50000 -0.38000
v 5.62500 1.50000 2.62000
v 2.62500 1.50000 2.62000
v 2.62500 1.50000 -0.38000
v -2.62500 3.75000 1.88000
v -2.62500 3.75000 2.62000
v -2.62500 2.25000 1.88000
v -2.62500 2.25000 2.62000
v -5.62500 3.75000 2.62000
v -5.62500 3.75000 1.88000
v -5.62500 2.25000 2.62000
v -5.62500 2.25000 1.88000
v -2.62500 4.50000 -0.38000
v -2.62500 4.50000 2.62000
v -2.62500 3.75000 -0.38000
v -5.62500 4.50000 2.62000
v -5.62500 4.50000 -0.38000
v -5.62500 3.75000 -0.38000
v -2.62500 2.25000 -0.38000
v -2.62500 1.50000 -0.38000
v -2.62500 1.50000 2.62000
v -5.62500 2.25000 -0.38000
v -5.62500 1.50000 2.62000
v -5.62500 1.50000 -0.38000
v -2.62500 3.75000 0.38000
v -2.62500 2.25000 0.38000
v -5.62500 3.75000 0.38000
v -5.62500 2.25000 0.38000
v -3.00000 3.75000 0.38000
v -3.00000 3.75000 1.88000
v -3.00000 2.25000 0.38000
v -3.00000 2.25000 1.88000
v -5.25000 3.75000 1.88000
v -5.25000 3.75000 0.38000
v -5.25000 2.25000 1.88000
v -5.25000 2.25000 0.38000
v 2.62500 12.00000 -3.38000
v 2.62500 12.00000 -2.62000
v 2.62500 10.50000 -3.38000
v 2.62500 10.50000 -2.62000
v -2.62500 12.00000 -2.62000
v -2.62500 12.00000 -3.38000
v -2.62500 10.50000 -2.62000
v -2.62500 10.50000 -3.38000
v -1.87500 12.75000 -2.62000
v -1.87500 12.75000 -1.12000
v -1.87500 11.25000 -2.62000
v -1.87500 11.25000 -1.12000
v -2.62500 12.75000 -1.12000
v -2.62500 12.75000 -2.62000
v -2.62500 11.25000 -1.12000
v -2.62500 11.25000 -2.62000
v 1.87500 12.00000 -2.62000
v 1.87500 12.00000 -1.88000
v 1.87500 11.25000 -2.62000
v 1.87500 11.25000 -1.88000
v -1.87500 12.00000 -1.88000
v -1.87500 12.00000 -2.62000
v -1.87500 11.25000 -1.88000
v 2.62500 12.75000 -2.62000
v 2.62500 12.75000 -1.12000
v 2.62500 11.25000 -2.62000
v 2.62500 11.25000 -1.12000
v 1.87500 12.75000 -1.12000
v 1.87500 12.75000 -2.62000
v 1.87500 11.25000 -1.12000
v 1.87500 12.00000 -1.12000
v 1.87500 9.75000 -1.88000
v 1.87500 9.75000 -1.12000
v -1.87500 12.00000 -1.12000
v -1.87500 9.75000 -1.12000
v -1.87500 9.75000 -1.88000
v 0.75000 14.25000 -4.88000
v 0.75000 14.25000 -1.88000
v 0.75000 12.00000 -4.88000
v 0.75000 12.00000 -1.88000
v -0.75000 14.25000 -1.88000
v -0.75000 14.25000 -4.88000
v -0.75000 12.00000 -1.88000
v -0.75000 12.00000 -4.88000
v 1.12500 12.75000 -1.88000
v 1.12500 12.75000 -0.38000
v 1.12500 10.50000 -1.88000
v 1.12500 10.50000 -0.38000
v -1.12500 12.75000 -0.38000
v -1.12500 12.75000 -1.88000
v -1.12500 10.50000 -0.38000
v -1.12500 10.50000 -1.88000
v 1.87500 13.50000 -7.88000
v 1.87500 13.50000 -2.62000
v 1.87500 10.50000 -7.88000
v 1.87500 10.50000 -2.62000
v -1.87500 13.50000 -2.62000
v -1.87500 13.50000 -7.88000
v -1.87500 10.50000 -2.62000
v -1.87500 10.50000 -7.88000
v 1.12500 13.50000 -8.62000
v 1.12500 13.50000 -7.88000
v 1.12500 12.75000 -8.62000
v 1.12500 12.75000 -7.88000
v -1.12500 13.50000 -7.88000
v -1.12500 13.50000 -8.62000
v -1.12500 12.75000 -7.88000
v -1.12500 12.75000 -8.62000
v 1.87500 12.75000 -8.62000
v 1.87500 12.75000 -7.88000
v 1.87500 10.50000 -8.62000
v -1.87500 12.75000 -7.88000
v -1.87500 12.75000 -8.62000
v -1.87500 10.50000 -8.62000
v 1.87500 9.75000 -2.62000
v -1.87500 9.75000 -2.62000
v 1.87500 10.50000 -4.12000
v 1.87500 9.75000 -4.12000
v -1.87500 10.50000 -4.12000
v -1.87500 9.75000 -4.12000
v -1.87500 13.50000 -8.62000
v 1.87500 13.50000 -8.62000
v 2.25000 12.75000 -5.62000
v 2.25000 12.75000 -4.12000
v 2.25000 11.25000 -5.62000
v 2.25000 11.25000 -4.12000
v -2.25000 12.75000 -4.12000
v -2.25000 12.75000 -5.62000
v -2.25000 11.25000 -4.12000
v -2.25000 11.25000 -5.62000
v -2.25500 12.75000 -4.12000
v -2.25500 12.75000 -5.62000
v -2.25500 11.25000 -4.12000
v -2.25500 11.25000 -5.62000
v 2.25500 12.75000 -5.62000
v 2.25500 12.75000 -4.12000
v 2.25500 11.25000 -5.62000
v 2.25500 11.25000 -4.12000
v 2.62500 6.75000 -6.38000
v 2.62500 6.75000 -5.62000
v 2.62500 6.00000 -6.38000
v 2.62500 6.00000 -5.62000
v 1.87500 6.75000 -5.62000
v 1.87500 6.75000 -6.38000
v 1.87500 6.00000 -5.62000
v 1.87500 6.00000 -6.38000
v 3.37500 6.00000 -6.38000
v 3.37500 6.00000 -5.62000
v 3.37500 5.25000 -6.38000
v 3.37500 5.25000 -5.62000
v 1.12500 6.00000 -5.62000
v 1.12500 6.00000 -6.38000
v 1.12500 5.25000 -5.62000
v 1.12500 5.25000 -6.38000
v 3.37500 7.50000 -3.38000
v 3.37500 7.50000 -2.62000
v 3.37500 6.75000 -3.38000
v 3.37500 6.75000 -2.62000
v 1.12500 7.50000 -2.62000
v 1.12500 7.50000 -3.38000
v 1.12500 6.75000 -2.62000
v 1.12500 6.75000 -3.38000
v 3.00000 8.25000 -4.12000
v 3.00000 8.25000 -1.88000
v 3.00000 6.00000 -4.12000
v 3.00000 6.00000 -1.88000
v 1.50000 8.25000 -1.88000
v 1.50000 8.25000 -4.12000
v 3.37500 5.62000 -7.12000
v 3.37500 5.62000 -6.38000
v 3.37500 4.88000 -7.12000
v 3.37500 4.88000 -6.38000
v 2.62500 5.62000 -6.38000
v 2.62500 5.62000 -7.12000
v 2.62500 4.88000 -6.38000
v 2.62500 4.88000 -7.12000
v 1.87500 5.62000 -7.12000
v 1.87500 5.62000 -6.38000
v 1.87500 4.88000 -7.12000
v 1.87500 4.88000 -6.38000
v 1.12500 5.62000 -6.38000
v 1.12500 5.62000 -7.12000
v 1.12500 4.88000 -6.38000
v 1.12500 4.88000 -7.12000
v 2.62500 6.75000 -4.88000
v 2.62500 6.00000 -4.88000
v 1.87500 6.75000 -4.88000
v 1.87500 6.00000 -4.88000
v 2.62500 7.50000 -4.88000
v 2.62500 7.50000 -4.12000
v 2.62500 6.00000 -4.12000
v 1.87500 7.50000 -4.12000
v 1.87500 7.50000 -4.88000
v 1.87500 6.00000 -4.12000
v -1.87500 6.75000 -6.38000
v -1.87500 6.75000 -5.62000
v -1.87500 6.00000 -6.38000
v -1.87500 6.00000 -5.62000
v -2.62500 6.75000 -5.62000
v -2.62500 6.75000 -6.38000
v -2.62500 6.00000 -5.62000
v -2.62500 6.00000 -6.38000
v -1.12500 6.00000 -6.38000
v -1.12500 6.00000 -5.62000
v -1.12500 5.25000 -6.38000
v -1.12500 5.25000 -5.62000
v -3.37500 6.00000 -5.62000
v -3.37500 6.00000 -6.38000
v -3.37500 5.25000 -5.62000
v -3.37500 5.25000 -6.38000
v -2.62500 5.62000 -7.12000
v -2.62500 5.62000 -6.38000
v -2.62500 4.88000 -7.12000
v -2.62500 4.88000 -6.38000
v -3.37500 5.62000 -6.38000
v -3.37500 5.62000 -7.12000
v -3.37500 4.88000 -6.38000
v -3.37500 4.88000 -7.12000
v -1.12500 5.62000 -7.12000
v -1.12500 5.62000 -6.38000
v -1.12500 4.88000 -7.12000
v -1.12500 4.88000 -6.38000
v -1.87500 5.62000 -6.38000
v -1.87500 5.62000 -7.12000
v -1.87500 4.88000 -6.38000
v -1.87500 4.88000 -7.12000
v -1.87500 6.75000 -4.88000
v -1.87500 6.00000 -4.88000
v -2.62500 6.75000 -4.88000
v -2.62500 6.00000 -4.88000
v -1.87500 7.50000 -4.88000
v -1.87500 7.50000 -4.12000
v -1.87500 6.00000 -4.12000
v -2.62500 7.50000 -4.12000
v -2.62500 7.50000 -4.88000
v -2.62500 6.00000 -4.12000
v -1.50000 8.25000 -4.12000
v -1.50000 8.25000 -1.88000
v -3.00000 8.25000 -1.88000
v -3.00000 8.25000 -4.12000
v -3.00000 6.00000 -1.88000
v -3.00000 6.00000 -4.12000
v -1.12500 7.50000 -3.38000
v -1.12500 7.50000 -2.62000
v -1.12500 6.75000 -3.38000
v -1.12500 6.75000 -2.62000
v -3.37500 7.50000 -2.62000
v -3.37500 7.50000 -3.38000
v -3.37500 6.75000 -2.62000
v -3.37500 6.75000 -3.38000
v 4.87500 1.50000 -1.12000
v 4.87500 1.50000 1.88000
v 4.87500 0.75000 -1.12000
v 4.87500 0.75000 1.88000
v 3.37500 1.50000 1.88000
v 3.37500 1.50000 -1.12000
v 3.37500 0.75000 1.88000
v 3.37500 0.75000 -1.12000
v 3.37500 1.50000 -2.62000
v 3.37500 1.50000 -1.88000
v 3.37500 0.00000 -2.62000
v 3.37500 0.00000 -1.88000
v 2.62500 1.50000 -1.88000
v 2.62500 1.50000 -2.62000
v 2.62500 0.00000 -1.88000
v 2.62500 0.00000 -2.62000
v 5.62500 1.50000 -2.62000
v 5.62500 1.50000 -1.88000
v 5.62500 0.00000 -2.62000
v 5.62500 0.00000 -1.88000
v 4.87500 1.50000 -1.88000
v 4.87500 1.50000 -2.62000
v 4.87500 0.00000 -1.88000
v 4.87500 0.00000 -2.62000
v 5.62500 0.75000 -3.38000
v 5.62500 0.75000 -2.62000
v 5.62500 0.00000 -3.38000
v 4.87500 0.75000 -2.62000
v 4.87500 0.75000 -3.38000
v 4.87500 0.00000 -3.38000
v 3.37500 0.75000 -3.38000
v 3.37500 0.75000 -2.62000
v 3.37500 0.00000 -3.38000
v 2.62500 0.75000 -2.62000
v 2.62500 0.75000 -3.38000
v 2.62500 0.00000 -3.38000
v 5.62500 0.75000 -1.12000
v 5.62500 0.75000 1.88000
v 5.62500 0.00000 -1.12000
v 5.62500 0.00000 1.88000
v 2.62500 0.75000 1.88000
v 2.62500 0.75000 -1.12000
v 2.62500 0.00000 1.88000
v 2.62500 0.00000 -1.12000
v 5.62500 1.50000 -1.12000
v 2.62500 1.50000 -1.12000
v 5.25000 1.50000 1.88000
v 5.25000 1.50000 2.62000
v 5.25000 0.00000 1.88000
v 5.25000 0.00000 2.62000
v 3.00000 1.50000 2.62000
v 3.00000 1.50000 1.88000
v 3.00000 0.00000 2.62000
v 3.00000 0.00000 1.88000
v -2.62500 1.50000 -1.88000
v -2.62500 1.50000 -1.12000
v -2.62500 0.00000 -1.88000
v -2.62500 0.00000 -1.12000
v -5.62500 1.50000 -1.12000
v -5.62500 1.50000 -1.88000
v -5.62500 0.00000 -1.12000
v -5.62500 0.00000 -1.88000
v -3.00000 1.50000 1.88000
v -3.00000 1.50000 2.62000
v -3.00000 0.00000 1.88000
v -3.00000 0.00000 2.62000
v -5.25000 1.50000 2.62000
v -5.25000 1.50000 1.88000
v -5.25000 0.00000 2.62000
v -5.25000 0.00000 1.88000
v -2.62500 0.75000 -1.12000
v -2.62500 0.75000 1.88000
v -2.62500 0.00000 1.88000
v -5.62500 0.75000 1.88000
v -5.62500 0.75000 -1.12000
v -5.62500 0.00000 1.88000
v -2.62500 0.75000 -3.38000
v -2.62500 0.75000 -2.62000
v -2.62500 0.00000 -3.38000
v -2.62500 0.00000 -2.62000
v -3.37500 0.75000 -2.62000
v -3.37500 0.75000 -3.38000
v -3.37500 0.00000 -2.62000
v -3.37500 0.00000 -3.38000
v -4.87500 1.50000 -2.62000
v -4.87500 1.50000 -1.88000
v -4.87500 0.00000 -2.62000
v -4.87500 0.00000 -1.88000
v -5.62500 1.50000 -2.62000
v -5.62500 0.00000 -2.62000
v -4.87500 0.75000 -3.38000
v -4.87500 0.75000 -2.62000
v -4.87500 0.00000 -3.38000
v -5.62500 0.75000 -2.62000
v -5.62500 0.75000 -3.38000
v -5.62500 0.00000 -3.38000
v -2.62500 1.50000 -2.62000
v -3.37500 1.50000 -1.88000
v -3.37500 1.50000 -2.62000
v -3.37500 0.00000 -1.88000
v -3.37500 1.50000 -1.12000
v -3.37500 1.50000 1.88000
v -3.37500 0.75000 -1.12000
v -3.37500 0.75000 1.88000
v -4.87500 1.50000 1.88000
v -4.87500 1.50000 -1.12000
v -4.87500 0.75000 1.88000
v -4.87500 0.75000 -1.12000
v 1.50000 7.50000 1.88000
v 1.50000 7.50000 4.12000
v 1.50000 6.75000 1.88000
v 1.50000 6.75000 4.12000
v 0.75000 7.50000 4.12000
v 0.75000 7.50000 1.88000
v 0.75000 6.75000 4.12000
v 0.75000 6.75000 1.88000
v 1.50000 8.25000 2.62000
v 1.50000 8.25000 3.38000
v 1.50000 7.50000 2.62000
v 1.50000 7.50000 3.38000
v 0.75000 8.25000 3.38000
v 0.75000 8.25000 2.62000
v 0.75000 7.50000 3.38000
v 0.75000 7.50000 2.62000
v -0.75000 7.50000 1.88000
v -0.75000 7.50000 4.12000
v -0.75000 6.75000 1.88000
v -0.75000 6.75000 4.12000
v -1.50000 7.50000 4.12000
v -1.50000 7.50000 1.88000
v -1.50000 6.75000 4.12000
v -1.50000 6.75000 1.88000
v 1.50000 6.00000 4.88000
v 1.50000 6.00000 7.12000
v 1.50000 5.25000 4.88000
v 1.50000 5.25000 7.12000
v -1.50000 6.00000 7.12000
v -1.50000 6.00000 4.88000
v -1.50000 5.25000 7.12000
v -1.50000 5.25000 4.88000
v -0.75000 8.25000 2.62000
v -0.75000 8.25000 3.38000
v -0.75000 7.50000 2.62000
v -0.75000 7.50000 3.38000
v -1.50000 8.25000 3.38000
v -1.50000 8.25000 2.62000
v -1.50000 7.50000 3.38000
v -1.50000 7.50000 2.62000
v 0.75000 7.50000 5.62000
v 0.75000 7.50000 7.12000
v 0.75000 6.00000 5.62000
v 0.75000 6.00000 7.12000
v -0.75000 7.50000 7.12000
v -0.75000 7.50000 5.62000
v -0.75000 6.00000 7.12000
v -0.75000 6.00000 5.62000
v 2.25000 6.75000 4.88000
v 2.25000 6.00000 4.88000
v -2.25000 6.75000 4.88000
v -2.25000 6.00000 4.88000
v 0.37500 6.75000 7.88000
v 0.37500 6.75000 8.62000
v 0.37500 6.00000 7.88000
v 0.37500 6.00000 8.62000
v -0.37500 6.75000 8.62000
v -0.37500 6.75000 7.88000
v -0.37500 6.00000 8.62000
v -0.37500 6.00000 7.88000
v 0.75000 6.00000 8.62000
v 0.75000 5.25000 7.12000
v 0.75000 5.25000 8.62000
v -0.75000 6.00000 8.62000
v -0.75000 5.25000 8.62000
v -0.75000 5.25000 7.12000
v 2.25000 6.00000 4.12000
v 2.25000 3.75000 1.88000
v 2.25000 3.75000 4.12000
v -2.25000 6.00000 4.12000
v -2.25000 3.75000 4.12000
v -2.25000 3.75000 1.88000
v 1.50000 5.25000 6.38000
v 1.50000 3.75000 4.88000
v 1.50000 3.75000 6.38000
v -1.50000 5.25000 6.38000
v -1.50000 3.75000 6.38000
v -1.50000 3.75000 4.88000
v 1.50000 4.50000 6.38000
v 1.50000 4.50000 7.12000
v 1.50000 3.75000 7.12000
v -1.50000 4.50000 7.12000
v -1.50000 4.50000 6.38000
v -1.50000 3.75000 7.12000
v 2.25000 5.25000 4.12000
v 2.25000 5.25000 4.88000
v 2.25000 3.75000 4.88000
v -2.25000 5.25000 4.88000
v -2.25000 5.25000 4.12000
v -2.25000 3.75000 4.88000
v 0.75000 4.50000 7.88000
v 0.75000 4.50000 8.62000
v 0.75000 3.75000 7.88000
v 0.75000 3.75000 8.62000
v -0.75000 4.50000 8.62000
v -0.75000 4.50000 7.88000
v -0.75000 3.75000 8.62000
v -0.75000 3.75000 7.88000
v 0.75000 5.25000 7.88000
v 0.75000 3.75000 7.12000
v -0.75000 5.25000 7.88000
v -0.75000 3.75000 7.12000
v 6.00000 6.75000 0.75000
v 6.00000 6.75000 3.00000
v 6.00000 4.50000 0.75000
v 6.00000 4.50000 3.00000
v 2.25000 6.75000 3.00000
v 2.25000 6.75000 0.75000
v 2.25000 4.50000 3.00000
v 2.25000 4.50000 0.75000
v 5.25000 7.50000 0.75000
v 5.25000 7.50000 3.00000
v 5.25000 6.75000 0.75000
v 5.25000 6.75000 3.00000
v 3.00000 7.50000 3.00000
v 3.00000 7.50000 0.75000
v 3.00000 6.75000 3.00000
v 3.00000 6.75000 0.75000
v 5.25000 6.75000 3.75000
v 5.25000 4.50000 3.00000
v 5.25000 4.50000 3.75000
v 3.00000 6.75000 3.75000
v 3.00000 4.50000 3.75000
v 3.00000 4.50000 3.00000
v 4.87500 6.00000 -1.12000
v 4.87500 6.00000 2.62000
v 4.87500 4.50000 -1.12000
v 4.87500 4.50000 2.62000
v 3.37500 6.00000 2.62000
v 3.37500 6.00000 -1.12000
v 3.37500 4.50000 2.62000
v 3.37500 4.50000 -1.12000
v 5.25000 6.75000 -1.12000
v 5.25000 6.75000 0.38000
v 5.25000 6.00000 -1.12000
v 5.25000 6.00000 0.38000
v 3.00000 6.75000 0.38000
v 3.00000 6.75000 -1.12000
v 3.00000 6.00000 0.38000
v 3.00000 6.00000 -1.12000
v 5.25000 6.75000 -1.88000
v 5.25000 4.50000 -1.88000
v 5.25000 4.50000 -1.12000
v 3.00000 6.75000 -1.88000
v 3.00000 4.50000 -1.12000
v 3.00000 4.50000 -1.88000
vt 5.53125 -2.25000
vt 5.25000 -2.25000
vt 5.53125 -2.62500
vt 5.25000 -2.62500
vt 5.62500 -2.25000
vt 5.62500 -2.53125
vt 5.25000 -2.53125
vt 5.62500 -2.62500
vt 6.84375 -5.50000
vt 6.75000 -5.50000
vt 6.84375 -5.96875
vt 6.75000 -5.96875
vt 7.12500 -5.50000
vt 7.12500 -5.59375
vt 6.75000 -5.59375
vt 7.12500 -5.96875
vt 0.68750 -6.50000
vt 0.50000 -6.50000
vt 0.68750 -6.68750
vt 0.50000 -6.68750
vt 6.09375 -5.50000
vt 6.00000 -5.50000
vt 6.09375 -5.59375
vt 6.00000 -5.59375
vt 6.37500 -5.50000
vt 6.37500 -5.59375
vt 4.34375 -5.25000
vt 4.25000 -5.25000
vt 4.34375 -5.62500
vt 4.25000 -5.62500
vt 4.62500 -5.25000
vt 4.62500 -5.34375
vt 4.25000 -5.34375
vt 4.62500 -5.62500
vt 1.62500 -1.50000
vt 1.25000 -1.50000
vt 1.62500 -1.59375
vt 1.25000 -1.59375
vt 1.62500 -1.87500
vt 1.25000 -1.87500
vt 3.09375 -0.75000
vt 3.00000 -0.75000
vt 3.09375 -1.03125
vt 3.00000 -1.03125
vt 3.18750 -0.75000
vt 3.18750 -0.84375
vt 3.00000 -0.84375
vt 3.18750 -1.03125
vt 2.96875 -5.75000
vt 2.50000 -5.75000
vt 2.96875 -5.84375
vt 2.50000 -5.84375
vt 2.87500 -5.75000
vt 2.87500 -6.21875
vt 2.50000 -6.21875
vt 2.87500 -5.84375
vt 4.84375 0.75000
vt 4.75000 0.75000
vt 4.84375 0.65625
vt 4.75000 0.65625
vt 5.31250 0.75000
vt 5.31250 0.65625
vt 3.93750 -6.75000
vt 3.75000 -6.75000
vt 3.93750 -7.31250
vt 3.75000 -7.31250
vt 4.31250 -6.75000
vt 4.31250 -6.93750
vt 3.75000 -6.93750
vt 4.31250 -7.31250
vt 3.59375 -2.00000
vt 3.50000 -2.00000
vt 3.59375 -2.09375
vt 3.50000 -2.09375
vt 4.06250 -2.00000
vt 4.06250 -2.09375
vt 5.93750 -2.50000
vt 5.75000 -2.50000
vt 5.93750 -2.87500
vt 5.75000 -2.87500
vt 6.31250 -2.50000
vt 6.31250 -2.68750
vt 5.75000 -2.68750
vt 6.31250 -2.87500
vt 6.68750 -1.75000
vt 6.50000 -1.75000
vt 6.68750 -1.84375
vt 6.50000 -1.84375
vt 7.06250 -1.75000
vt 7.06250 -1.93750
vt 6.50000 -1.93750
vt 7.06250 -1.84375
vt 7.09375 -5.50000
vt 7.00000 -5.50000
vt 7.09375 -5.87500
vt 7.00000 -5.87500
vt 7.56250 -5.50000
vt 7.56250 -5.59375
vt 7.00000 -5.59375
vt 7.56250 -5.87500
vt 3.43750 -1.75000
vt 3.25000 -1.75000
vt 3.43750 -2.31250
vt 3.25000 -2.31250
vt 3.81250 -1.75000
vt 3.81250 -1.93750
vt 3.25000 -1.93750
vt 3.81250 -2.31250
vt 5.93750 -4.25000
vt 5.75000 -4.25000
vt 5.93750 -4.34375
vt 5.75000 -4.34375
vt 5.93750 -4.43750
vt 5.75000 -4.43750
vt 8.03125 -3.00000
vt 7.75000 -3.00000
vt 8.03125 -3.09375
vt 7.75000 -3.09375
vt 8.12500 -3.00000
vt 8.12500 -3.28125
vt 7.75000 -3.28125
vt 8.12500 -3.09375
vt 1.34375 -4.75000
vt 1.25000 -4.75000
vt 1.34375 -5.03125
vt 1.25000 -5.03125
vt 1.53125 -4.75000
vt 1.53125 -4.84375
vt 1.25000 -4.84375
vt 1.53125 -5.03125
vt 6.03125 -3.25000
vt 5.75000 -3.25000
vt 6.03125 -3.34375
vt 5.75000 -3.34375
vt 6.03125 -3.53125
vt 5.75000 -3.53125
vt 3.84375 1.00000
vt 3.75000 1.00000
vt 3.84375 0.71875
vt 3.75000 0.71875
vt 4.03125 1.00000
vt 4.03125 0.90625
vt 3.75000 0.90625
vt 4.03125 0.71875
vt 4.28125 -4.25000
vt 4.00000 -4.25000
vt 4.28125 -4.53125
vt 4.00000 -4.53125
vt 4.46875 -4.25000
vt 4.46875 -4.53125
vt 2.18750 -2.00000
vt 2.00000 -2.00000
vt 2.18750 -2.09375
vt 2.00000 -2.09375
vt 2.28125 -2.00000
vt 2.28125 -2.18750
vt 2.00000 -2.18750
vt 2.28125 -2.09375
vt 4.96875 -1.00000
vt 4.50000 -1.00000
vt 4.96875 -1.18750
vt 4.50000 -1.18750
vt 4.68750 -1.00000
vt 4.68750 -1.46875
vt 4.50000 -1.46875
vt 4.68750 -1.18750
vt 2.93750 -2.75000
vt 2.75000 -2.75000
vt 2.93750 -2.93750
vt 2.75000 -2.93750
vt 3.03125 -2.75000
vt 3.03125 -2.93750
vt 5.09375 -2.25000
vt 5.00000 -2.25000
vt 5.09375 -2.43750
vt 5.00000 -2.43750
vt 5.37500 -2.25000
vt 5.37500 -2.34375
vt 5.00000 -2.34375
vt 5.37500 -2.43750
vt 0.34375 -1.00000
vt 0.25000 -1.00000
vt 0.34375 -1.18750
vt 0.25000 -1.18750
vt 0.62500 -1.00000
vt 0.62500 -1.09375
vt 0.25000 -1.09375
vt 0.62500 -1.18750
vt 3.62500 1.00000
vt 3.25000 1.00000
vt 3.62500 0.90625
vt 3.25000 0.90625
vt 3.62500 0.62500
vt 3.25000 0.62500
vt 4.62500 -5.00000
vt 4.25000 -5.00000
vt 4.62500 -5.09375
vt 4.25000 -5.09375
vt 4.62500 -5.37500
vt 4.25000 -5.37500
vt 5.09375 -4.50000
vt 5.00000 -4.50000
vt 5.09375 -4.68750
vt 5.00000 -4.68750
vt 5.37500 -4.50000
vt 5.37500 -4.59375
vt 5.00000 -4.59375
vt 5.37500 -4.68750
vt 2.12500 -1.50000
vt 1.75000 -1.50000
vt 2.12500 -1.59375
vt 1.75000 -1.59375
vt 2.12500 -1.87500
vt 1.75000 -1.87500
vt 2.62500 0.25000
vt 2.25000 0.25000
vt 2.62500 0.15625
vt 2.25000 0.15625
vt 2.62500 -0.12500
vt 2.25000 -0.12500
vt 3.84375 -5.50000
vt 3.75000 -5.50000
vt 3.84375 -5.68750
vt 3.75000 -5.68750
vt 4.12500 -5.50000
vt 4.12500 -5.59375
vt 3.75000 -5.59375
vt 4.12500 -5.68750
vt 4.43750 0.75000
vt 4.25000 0.75000
vt 4.43750 0.56250
vt 4.25000 0.56250
vt 4.53125 0.75000
vt 4.53125 0.56250
vt 5.59375 0.75000
vt 5.50000 0.75000
vt 5.59375 0.56250
vt 5.50000 0.56250
vt 6.15625 0.75000
vt 6.15625 0.65625
vt 5.50000 0.65625
vt 6.15625 0.56250
vt 5.18750 -2.50000
vt 5.00000 -2.50000
vt 5.18750 -2.68750
vt 5.00000 -2.68750
vt 5.09375 -2.50000
vt 5.09375 -2.68750
vt 1.09375 -6.50000
vt 1.00000 -6.50000
vt 1.09375 -6.59375
vt 1.00000 -6.59375
vt 1.46875 -6.50000
vt 1.46875 -6.59375
vt 6.68750 -6.25000
vt 6.50000 -6.25000
vt 6.68750 -6.43750
vt 6.50000 -6.43750
vt 6.59375 -6.25000
vt 6.59375 -6.43750
vt 5.09375 -2.78125
vt 5.00000 -2.78125
vt 5.46875 -2.50000
vt 5.46875 -2.59375
vt 5.00000 -2.59375
vt 5.46875 -2.78125
vt 4.12500 -3.50000
vt 3.75000 -3.50000
vt 4.12500 -3.78125
vt 3.75000 -3.78125
vt 3.93750 -3.50000
vt 3.93750 -3.87500
vt 3.75000 -3.87500
vt 3.93750 -3.78125
vt 7.43750 -3.00000
vt 7.25000 -3.00000
vt 7.43750 -3.28125
vt 7.25000 -3.28125
vt 7.53125 -3.00000
vt 7.53125 -3.18750
vt 7.25000 -3.18750
vt 7.53125 -3.28125
vt 1.65625 -6.50000
vt 1.65625 -6.87500
vt 1.00000 -6.87500
vt 1.46875 -7.15625
vt 1.00000 -7.15625
vt 1.46875 -6.87500
vt 3.09375 -1.75000
vt 3.00000 -1.75000
vt 3.09375 -1.84375
vt 3.00000 -1.84375
vt 3.28125 -1.75000
vt 3.28125 -1.84375
vt 4.84375 -5.00000
vt 4.75000 -5.00000
vt 4.84375 -5.28125
vt 4.75000 -5.28125
vt 5.21875 -5.00000
vt 5.21875 -5.09375
vt 4.75000 -5.09375
vt 5.21875 -5.28125
vt 0.59375 -4.00000
vt 0.50000 -4.00000
vt 0.59375 -4.18750
vt 0.50000 -4.18750
vt 0.96875 -4.00000
vt 0.96875 -4.09375
vt 0.50000 -4.09375
vt 0.96875 -4.18750
vt 2.68750 -6.00000
vt 2.50000 -6.00000
vt 2.68750 -6.09375
vt 2.50000 -6.09375
vt 2.96875 -6.00000
vt 2.96875 -6.18750
vt 2.50000 -6.18750
vt 2.96875 -6.09375
vt 0.09375 -5.25000
vt 0.00000 -5.25000
vt 0.09375 -5.34375
vt 0.00000 -5.34375
vt 6.34375 -3.75000
vt 6.25000 -3.75000
vt 6.34375 -3.84375
vt 6.25000 -3.84375
vt 1.93750 0.50000
vt 1.75000 0.50000
vt 1.93750 0.31250
vt 1.75000 0.31250
vt 2.31250 0.50000
vt 2.31250 0.31250
vt 1.00000 1.00000
vt 0.00000 1.00000
vt 1.00000 0.00000
vt 0.00000 0.00000
vt 3.84375 -3.75000
vt 3.75000 -3.75000
vt 3.84375 -3.84375
vt 3.75000 -3.84375
vt 7.59375 -6.00000
vt 7.50000 -6.00000
vt 7.59375 -6.09375
vt 7.50000 -6.09375
vt 7.78125 -6.00000
vt 7.78125 -6.09375
vt 3.09375 -1.00000
vt 3.00000 -1.00000
vt 3.09375 -1.09375
vt 3.00000 -1.09375
vt 3.28125 -1.00000
vt 3.28125 -1.09375
vt 3.93750 1.00000
vt 3.93750 0.71875
vt 2.84375 -1.75000
vt 2.75000 -1.75000
vt 2.84375 -1.84375
vt 2.75000 -1.84375
vt 7.59375 -4.75000
vt 7.50000 -4.75000
vt 7.59375 -4.84375
vt 7.50000 -4.84375
vt 7.84375 -4.50000
vt 7.75000 -4.50000
vt 7.84375 -4.59375
vt 7.75000 -4.59375
vt 7.34375 -6.00000
vt 7.25000 -6.00000
vt 7.34375 -6.18750
vt 7.25000 -6.18750
vt 7.34375 -6.09375
vt 7.25000 -6.09375
vt 4.59375 -2.75000
vt 4.50000 -2.75000
vt 4.59375 -2.84375
vt 4.50000 -2.84375
vt 7.34375 -1.25000
vt 7.25000 -1.25000
vt 7.34375 -1.34375
vt 7.25000 -1.34375
vt 7.53125 -1.25000
vt 7.53125 -1.34375
vt 6.59375 -3.00000
vt 6.50000 -3.00000
vt 6.59375 -3.09375
vt 6.50000 -3.09375
vt 1.59375 -1.75000
vt 1.50000 -1.75000
vt 1.59375 -1.84375
vt 1.50000 -1.84375
vt 0.34375 -2.75000
vt 0.25000 -2.75000
vt 0.34375 -2.84375
vt 0.25000 -2.84375
vt 7.34375 -5.75000
vt 7.25000 -5.75000
vt 7.34375 -5.93750
vt 7.25000 -5.93750
vt 7.34375 -5.84375
vt 7.25000 -5.84375
vt 6.53125 -1.25000
vt 6.25000 -1.25000
vt 6.53125 -1.53125
vt 6.25000 -1.53125
vt 6.43750 -1.25000
vt 6.43750 -1.53125
vt 3.59375 -5.25000
vt 3.50000 -5.25000
vt 3.59375 -5.34375
vt 3.50000 -5.34375
vt 3.78125 -5.25000
vt 3.78125 -5.34375
vt 7.87500 -6.50000
vt 7.50000 -6.50000
vt 7.87500 -6.59375
vt 7.50000 -6.59375
vt 7.68750 -6.50000
vt 7.68750 -6.87500
vt 7.50000 -6.87500
vt 7.68750 -6.59375
vt 0.84375 -5.00000
vt 0.75000 -5.00000
vt 0.84375 -5.18750
vt 0.75000 -5.18750
vt 0.84375 -5.09375
vt 0.75000 -5.09375
vt 5.84375 -3.50000
vt 5.75000 -3.50000
vt 5.84375 -3.68750
vt 5.75000 -3.68750
vt 5.84375 -3.59375
vt 5.75000 -3.59375
vt 4.34375 0.75000
vt 4.34375 0.65625
vt 4.25000 0.65625
vt 2.59375 0.25000
vt 2.50000 0.25000
vt 2.59375 0.15625
vt 2.50000 0.15625
vt 8.12500 -3.37500
vt 7.75000 -3.37500
vt 1.34375 -1.75000
vt 1.25000 -1.75000
vt 1.34375 -1.93750
vt 1.25000 -1.93750
vt 1.62500 -1.75000
vt 1.62500 -1.84375
vt 1.25000 -1.84375
vt 1.62500 -1.93750
vt 4.34375 -6.75000
vt 4.25000 -6.75000
vt 4.34375 -6.93750
vt 4.25000 -6.93750
vt 4.53125 -6.75000
vt 4.53125 -6.84375
vt 4.25000 -6.84375
vt 4.53125 -6.93750
vt 1.59375 -5.25000
vt 1.50000 -5.25000
vt 1.59375 -5.43750
vt 1.50000 -5.43750
vt 1.87500 -5.25000
vt 1.87500 -5.34375
vt 1.50000 -5.34375
vt 1.87500 -5.43750
vt 4.84375 -1.50000
vt 4.75000 -1.50000
vt 4.84375 -1.68750
vt 4.75000 -1.68750
vt 5.03125 -1.50000
vt 5.03125 -1.59375
vt 4.75000 -1.59375
vt 5.03125 -1.68750
vt 0.84375 -5.75000
vt 0.75000 -5.75000
vt 0.84375 -5.84375
vt 0.75000 -5.84375
vt 1.84375 -3.75000
vt 1.75000 -3.75000
vt 1.84375 -3.93750
vt 1.75000 -3.93750
vt 1.84375 -3.84375
vt 1.75000 -3.84375
vt 3.09375 -3.75000
vt 3.00000 -3.75000
vt 3.09375 -3.84375
vt 3.00000 -3.84375
vt 7.09375 0.25000
vt 7.00000 0.25000
vt 7.09375 0.06250
vt 7.00000 0.06250
vt 7.09375 0.15625
vt 7.00000 0.15625
vt 0.87500 1.00000
vt 0.50000 1.00000
vt 0.87500 0.90625
vt 0.50000 0.90625
vt 0.68750 1.00000
vt 0.68750 0.62500
vt 0.50000 0.62500
vt 0.68750 0.90625
vt 5.78125 -4.25000
vt 5.50000 -4.25000
vt 5.78125 -4.34375
vt 5.50000 -4.34375
vt 5.59375 -4.25000
vt 5.59375 -4.53125
vt 5.50000 -4.53125
vt 5.59375 -4.34375
vt 6.84375 -5.75000
vt 6.75000 -5.75000
vt 6.84375 -5.84375
vt 6.75000 -5.84375
vt 4.03125 -6.25000
vt 3.75000 -6.25000
vt 4.03125 -6.34375
vt 3.75000 -6.34375
vt 3.84375 -6.25000
vt 3.84375 -6.53125
vt 3.75000 -6.53125
vt 3.84375 -6.34375
vt 2.03125 -6.00000
vt 1.75000 -6.00000
vt 2.03125 -6.09375
vt 1.75000 -6.09375
vt 2.12500 -6.00000
vt 2.12500 -6.28125
vt 1.75000 -6.28125
vt 2.12500 -6.09375
vt 6.84375 -0.50000
vt 6.75000 -0.50000
vt 6.84375 -0.59375
vt 6.75000 -0.59375
vt 1.37500 -4.50000
vt 1.00000 -4.50000
vt 1.37500 -4.59375
vt 1.00000 -4.59375
vt 1.56250 -4.50000
vt 1.56250 -4.87500
vt 1.00000 -4.87500
vt 1.56250 -4.59375
vt 2.59375 -6.00000
vt 2.59375 -6.09375
vt 6.68750 0.00000
vt 6.50000 0.00000
vt 6.68750 -0.09375
vt 6.50000 -0.09375
vt 6.68750 -0.18750
vt 6.50000 -0.18750
vt 4.78125 -1.00000
vt 4.78125 -1.28125
vt 4.50000 -1.28125
vt 5.06250 -1.00000
vt 5.06250 -1.28125
vt 5.43750 -2.50000
vt 5.25000 -2.50000
vt 5.43750 -2.68750
vt 5.25000 -2.68750
vt 5.62500 -2.50000
vt 5.62500 -2.68750
vt 2.84375 -3.50000
vt 2.75000 -3.50000
vt 2.84375 -3.59375
vt 2.75000 -3.59375
vt 3.12500 -3.50000
vt 3.12500 -3.59375
vt 5.59375 -5.75000
vt 5.50000 -5.75000
vt 5.59375 -5.93750
vt 5.50000 -5.93750
vt 6.06250 -5.75000
vt 6.06250 -5.84375
vt 5.50000 -5.84375
vt 6.06250 -5.93750
vt 6.59375 -2.00000
vt 6.50000 -2.00000
vt 6.59375 -2.09375
vt 6.50000 -2.09375
vt 6.68750 -2.00000
vt 6.68750 -2.09375
vt 0.84375 -0.50000
vt 0.75000 -0.50000
vt 0.84375 -0.68750
vt 0.75000 -0.68750
vt 0.93750 -0.50000
vt 0.93750 -0.59375
vt 0.75000 -0.59375
vt 0.93750 -0.68750
vt 7.34375 0.25000
vt 7.25000 0.25000
vt 7.34375 0.15625
vt 7.25000 0.15625
vt 7.81250 0.25000
vt 7.81250 0.15625
vt 2.59375 -6.25000
vt 2.50000 -6.25000
vt 2.59375 -6.34375
vt 2.50000 -6.34375
vt 2.87500 -6.25000
vt 2.87500 -6.34375
vt 6.93750 -0.50000
vt 6.93750 -0.59375
vt 5.03125 -1.75000
vt 4.75000 -1.75000
vt 5.03125 -2.03125
vt 4.75000 -2.03125
vt 5.21875 -1.75000
vt 5.21875 -2.03125
vt 5.28125 -0.50000
vt 5.00000 -0.50000
vt 5.28125 -0.59375
vt 5.00000 -0.59375
vt 5.28125 -0.78125
vt 5.00000 -0.78125
vt 2.84375 0.00000
vt 2.75000 0.00000
vt 2.84375 -0.28125
vt 2.75000 -0.28125
vt 3.03125 0.00000
vt 3.03125 -0.09375
vt 2.75000 -0.09375
vt 3.03125 -0.28125
vt 0.71875 -5.50000
vt 0.25000 -5.50000
vt 0.71875 -5.68750
vt 0.25000 -5.68750
vt 0.43750 -5.50000
vt 0.43750 -5.96875
vt 0.25000 -5.96875
vt 0.43750 -5.68750
vt 6.43750 -3.75000
vt 6.43750 -3.84375
vt 6.53125 -3.75000
vt 6.53125 -3.93750
vt 6.25000 -3.93750
vt 6.53125 -3.84375
vt 7.84375 -1.25000
vt 7.75000 -1.25000
vt 7.84375 -1.53125
vt 7.75000 -1.53125
vt 8.03125 -1.25000
vt 8.03125 -1.34375
vt 7.75000 -1.34375
vt 8.03125 -1.53125
vn 1.0000 0.0000 0.0000
vn 0.0000 1.0000 0.0000
vn 0.0000 0.0000 1.0000
vn -1.0000 0.0000 0.0000
vn 0.0000 -1.0000 0.0000
vn 0.0000 0.0000 -1.0000

o UpperTorso
usemtl c_5b5d69
f 1/1/1 2/2/1 3/3/1
f 3/3/1 2/2/1 4/4/1
f 5/5/2 2/2/2 6/6/2
f 6/6/2 2/2/2 1/7/2
f 2/5/3 5/2/3 4/8/3
f 4/8/3 5/2/3 7/4/3
f 5/1/4 6/2/4 7/3/4
f 7/3/4 6/2/4 8/4/4
f 8/5/5 3/2/5 7/6/5
f 7/6/5 3/2/5 4/7/5
f 6/5/6 1/2/6 8/8/6
f 8/8/6 1/2/6 3/4/6
usemtl c_ffb000
f 9/9/1 10/10/1 11/11/1
f 11/11/1 10/10/1 12/12/1
f 13/13/2 10/10/2 14/14/2
f 14/14/2 10/10/2 9/15/2
f 10/13/3 13/10/3 12/16/3
f 12/16/3 13/10/3 15/12/3
f 13/9/4 14/10/4 15/11/4
f 15/11/4 14/10/4 16/12/4
f 16/13/5 11/10/5 15/14/5
f 15/14/5 11/10/5 12/15/5
f 14/13/6 9/10/6 16/16/6
f 16/16/6 9/10/6 11/12/6
f 17/17/1 18/18/1 19/19/1
f 19/19/1 18/18/1 20/20/1
f 21/17/2 18/18/2 22/19/2
f 22/19/2 18/18/2 17/20/2
f 18/17/3 21/18/3 20/19/3
f 20/19/3 21/18/3 23/20/3
f 21/17/4 22/18/4 23/19/4
f 23/19/4 22/18/4 24/20/4
f 24/17/5 19/18/5 23/19/5
f 23/19/5 19/18/5 20/20/5
f 22/17/6 17/18/6 24/19/6
f 24/19/6 17/18/6 19/20/6
f 25/21/1 26/22/1 12/23/1
f 12/23/1 26/22/1 27/24/1
f 28/25/2 26/22/2 29/26/2
f 29/26/2 26/22/2 25/24/2
f 26/25/3 28/22/3 27/26/3
f 27/26/3 28/22/3 30/24/3
f 28/21/4 29/22/4 30/23/4
f 30/23/4 29/22/4 15/24/4
f 15/25/5 12/22/5 30/26/5
f 30/26/5 12/22/5 27/24/5
f 29/25/6 25/22/6 15/26/6
f 15/26/6 25/22/6 12/24/6
usemtl c_d5733d
f 2/27/1 31/28/1 4/29/1
f 4/29/1 31/28/1 11/30/1
f 32/31/2 31/28/2 5/32/2
f 5/32/2 31/28/2 2/33/2
f 31/31/3 32/28/3 11/34/3
f 11/34/3 32/28/3 16/30/3
f 32/27/4 5/28/4 16/29/4
f 16/29/4 5/28/4 7/30/4
f 7/31/5 4/28/5 16/32/5
f 16/32/5 4/28/5 11/33/5
f 5/31/6 2/28/6 7/34/6
f 7/34/6 2/28/6 4/30/6
f 33/35/1 9/36/1 1/37/1
f 1/37/1 9/36/1 31/38/1
f 14/35/2 9/36/2 34/39/2
f 34/39/2 9/36/2 33/40/2
f 9/35/3 14/36/3 31/37/3
f 31/37/3 14/36/3 32/38/3
f 14/35/4 34/36/4 32/37/4
f 32/37/4 34/36/4 6/38/4
f 6/35/5 1/36/5 32/39/5
f 32/39/5 1/36/5 31/40/5
f 34/35/6 33/36/6 6/37/6
f 6/37/6 33/36/6 1/38/6
usemtl c_8c5b9f
f 35/41/1 36/42/1 37/43/1
f 37/43/1 36/42/1 38/44/1
f 39/45/2 36/42/2 40/46/2
f 40/46/2 36/42/2 35/47/2
f 36/45/3 39/42/3 38/48/3
f 38/48/3 39/42/3 41/44/3
f 39/41/4 40/42/4 41/43/4
f 41/43/4 40/42/4 42/44/4
f 42/45/5 37/42/5 41/46/5
f 41/46/5 37/42/5 38/47/5
f 40/45/6 35/42/6 42/48/6
f 42/48/6 35/42/6 37/44/6
o Mouth
usemtl c_eab892
f 43/49/1 44/50/1 45/51/1
f 45/51/1 44/50/1 33/52/1
f 46/53/2 44/50/2 47/54/2
f 47/54/2 44/50/2 43/55/2
f 44/53/3 46/50/3 33/56/3
f 33/56/3 46/50/3 34/52/3
f 46/49/4 47/50/4 34/51/4
f 34/51/4 47/50/4 48/52/4
f 48/53/5 45/50/5 34/54/5
f 34/54/5 45/50/5 33/55/5
f 47/53/6 43/50/6 48/56/6
f 48/56/6 43/50/6 45/52/6
o LowerTorso
usemtl c_8c5b9f
f 49/57/1 50/58/1 51/59/1
f 51/59/1 50/58/1 52/60/1
f 53/61/2 50/58/2 54/62/2
f 54/62/2 50/58/2 49/60/2
f 50/61/3 53/58/3 52/62/3
f 52/62/3 53/58/3 55/60/3
f 53/57/4 54/58/4 55/59/4
f 55/59/4 54/58/4 56/60/4
f 56/61/5 51/58/5 55/62/5
f 55/62/5 51/58/5 52/60/5
f 54/61/6 49/58/6 56/62/6
f 56/62/6 49/58/6 51/60/6
f 57/63/1 58/64/1 59/65/1
f 59/65/1 58/64/1 60/66/1
f 61/67/2 58/64/2 62/68/2
f 62/68/2 58/64/2 57/69/2
f 58/67/3 61/64/3 60/70/3
f 60/70/3 61/64/3 63/66/3
f 61/63/4 62/64/4 63/65/4
f 63/65/4 62/64/4 64/66/4
f 64/67/5 59/64/5 63/68/5
f 63/68/5 59/64/5 60/69/5
f 62/67/6 57/64/6 64/70/6
f 64/70/6 57/64/6 59/66/6
usemtl c_eab892
f 65/71/1 49/72/1 66/73/1
f 66/73/1 49/72/1 51/74/1
f 54/75/2 49/72/2 67/76/2
f 67/76/2 49/72/2 65/74/2
f 49/75/3 54/72/3 51/76/3
f 51/76/3 54/72/3 56/74/3
f 54/71/4 67/72/4 56/73/4
f 56/73/4 67/72/4 68/74/4
f 68/75/5 66/72/5 56/76/5
f 56/76/5 66/72/5 51/74/5
f 67/75/6 65/72/6 68/76/6
f 68/76/6 65/72/6 66/74/6
f 66/77/1 52/78/1 60/79/1
f 60/79/1 52/78/1 69/80/1
f 55/81/2 52/78/2 68/82/2
f 68/82/2 52/78/2 66/83/2
f 52/81/3 55/78/3 69/84/3
f 69/84/3 55/78/3 70/80/3
f 55/77/4 68/78/4 70/79/4
f 70/79/4 68/78/4 63/80/4
f 63/81/5 60/78/5 70/82/5
f 70/82/5 60/78/5 69/83/5
f 68/81/6 66/78/6 63/84/6
f 63/84/6 66/78/6 60/80/6
usemtl c_ffb000
f 58/85/1 71/86/1 65/87/1
f 65/87/1 71/86/1 50/88/1
f 72/89/2 71/86/2 61/90/2
f 61/90/2 71/86/2 58/91/2
f 71/89/3 72/86/3 50/92/3
f 50/92/3 72/86/3 53/88/3
f 72/85/4 61/86/4 53/87/4
f 53/87/4 61/86/4 67/88/4
f 67/89/5 65/86/5 53/90/5
f 53/90/5 65/86/5 50/91/5
f 61/89/6 58/86/6 67/92/6
f 67/92/6 58/86/6 65/88/6
usemtl c_d5733d
f 73/93/1 74/94/1 75/95/1
f 75/95/1 74/94/1 76/96/1
f 77/97/2 74/94/2 78/98/2
f 78/98/2 74/94/2 73/99/2
f 74/97/3 77/94/3 76/100/3
f 76/100/3 77/94/3 79/96/3
f 77/93/4 78/94/4 79/95/4
f 79/95/4 78/94/4 80/96/4
f 80/97/5 75/94/5 79/98/5
f 79/98/5 75/94/5 76/99/5
f 78/97/6 73/94/6 80/100/6
f 80/100/6 73/94/6 75/96/6
f 81/101/1 57/102/1 82/103/1
f 82/103/1 57/102/1 59/104/1
f 62/105/2 57/102/2 83/106/2
f 83/106/2 57/102/2 81/107/2
f 57/105/3 62/102/3 59/108/3
f 59/108/3 62/102/3 64/104/3
f 62/101/4 83/102/4 64/103/4
f 64/103/4 83/102/4 84/104/4
f 84/105/5 82/102/5 64/106/5
f 64/106/5 82/102/5 59/107/5
f 83/105/6 81/102/6 84/108/6
f 84/108/6 81/102/6 82/104/6
f 85/109/1 86/110/1 87/111/1
f 87/111/1 86/110/1 88/112/1
f 89/109/2 86/110/2 90/113/2
f 90/113/2 86/110/2 85/114/2
f 86/109/3 89/110/3 88/111/3
f 88/111/3 89/110/3 91/112/3
f 89/109/4 90/110/4 91/111/4
f 91/111/4 90/110/4 92/112/4
f 92/109/5 87/110/5 91/113/5
f 91/113/5 87/110/5 88/114/5
f 90/109/6 85/110/6 92/111/6
f 92/111/6 85/110/6 87/112/6
usemtl c_5b5d69
f 93/115/1 94/116/1 95/117/1
f 95/117/1 94/116/1 96/118/1
f 97/119/2 94/116/2 98/120/2
f 98/120/2 94/116/2 93/121/2
f 94/119/3 97/116/3 96/122/3
f 96/122/3 97/116/3 99/118/3
f 97/115/4 98/116/4 99/117/4
f 99/117/4 98/116/4 100/118/4
f 100/119/5 95/116/5 99/120/5
f 99/120/5 95/116/5 96/121/5
f 98/119/6 93/116/6 100/122/6
f 100/122/6 93/116/6 95/118/6
o LeftUpperLeg
usemtl c_eab892
f 101/123/1 102/124/1 103/125/1
f 103/125/1 102/124/1 104/126/1
f 105/127/2 102/124/2 106/128/2
f 106/128/2 102/124/2 101/129/2
f 102/127/3 105/124/3 104/130/3
f 104/130/3 105/124/3 107/126/3
f 105/123/4 106/124/4 107/125/4
f 107/125/4 106/124/4 108/126/4
f 108/127/5 103/124/5 107/128/5
f 107/128/5 103/124/5 104/129/5
f 106/127/6 101/124/6 108/130/6
f 108/130/6 101/124/6 103/126/6
usemtl c_d5733d
f 109/131/1 110/132/1 111/133/1
f 111/133/1 110/132/1 112/134/1
f 113/131/2 110/132/2 114/135/2
f 114/135/2 110/132/2 109/136/2
f 110/131/3 113/132/3 112/133/3
f 112/133/3 113/132/3 115/134/3
f 113/131/4 114/132/4 115/133/4
f 115/133/4 114/132/4 116/134/4
f 116/131/5 111/132/5 115/135/5
f 115/135/5 111/132/5 112/136/5
f 114/131/6 109/132/6 116/133/6
f 116/133/6 109/132/6 111/134/6
f 112/137/1 117/138/1 118/139/1
f 118/139/1 117/138/1 119/140/1
f 120/141/2 117/138/2 115/142/2
f 115/142/2 117/138/2 112/143/2
f 117/141/3 120/138/3 119/144/3
f 119/144/3 120/138/3 121/140/3
f 120/137/4 115/138/4 121/139/4
f 121/139/4 115/138/4 122/140/4
f 122/141/5 118/138/5 121/142/5
f 121/142/5 118/138/5 119/143/5
f 115/141/6 112/138/6 122/144/6
f 122/144/6 112/138/6 118/140/6
f 123/145/1 124/146/1 125/147/1
f 125/147/1 124/146/1 126/148/1
f 127/149/2 124/146/2 128/150/2
f 128/150/2 124/146/2 123/148/2
f 124/149/3 127/146/3 126/150/3
f 126/150/3 127/146/3 129/148/3
f 127/145/4 128/146/4 129/147/4
f 129/147/4 128/146/4 130/148/4
f 130/149/5 125/146/5 129/150/5
f 129/150/5 125/146/5 126/148/5
f 128/149/6 123/146/6 130/150/6
f 130/150/6 123/146/6 125/148/6
usemtl c_ffb000
f 102/151/1 131/152/1 132/153/1
f 132/153/1 131/152/1 133/154/1
f 134/155/2 131/152/2 105/156/2
f 105/156/2 131/152/2 102/157/2
f 131/155/3 134/152/3 133/158/3
f 133/158/3 134/152/3 135/154/3
f 134/151/4 105/152/4 135/153/4
f 135/153/4 105/152/4 136/154/4
f 136/155/5 132/152/5 135/156/5
f 135/156/5 132/152/5 133/157/5
f 105/155/6 102/152/6 136/158/6
f 136/158/6 102/152/6 132/154/6
usemtl c_5b5d69
f 137/159/1 138/160/1 139/161/1
f 139/161/1 138/160/1 140/162/1
f 141/163/2 138/160/2 142/164/2
f 142/164/2 138/160/2 137/165/2
f 138/163/3 141/160/3 140/166/3
f 140/166/3 141/160/3 143/162/3
f 141/159/4 142/160/4 143/161/4
f 143/161/4 142/160/4 144/162/4
f 144/163/5 139/160/5 143/164/5
f 143/164/5 139/160/5 140/165/5
f 142/163/6 137/160/6 144/166/6
f 144/166/6 137/160/6 139/162/6
o RightLowerLeg
usemtl c_5b5d69
f 145/167/1 146/168/1 147/169/1
f 147/169/1 146/168/1 148/170/1
f 149/171/2 146/168/2 150/172/2
f 150/172/2 146/168/2 145/170/2
f 146/171/3 149/168/3 148/172/3
f 148/172/3 149/168/3 151/170/3
f 149/167/4 150/168/4 151/169/4
f 151/169/4 150/168/4 152/170/4
f 152/171/5 147/168/5 151/172/5
f 151/172/5 147/168/5 148/170/5
f 150/171/6 145/168/6 152/172/6
f 152/172/6 145/168/6 147/170/6
usemtl c_d5733d
f 153/173/1 154/174/1 155/175/1
f 155/175/1 154/174/1 156/176/1
f 157/177/2 154/174/2 158/178/2
f 158/178/2 154/174/2 153/179/2
f 154/177/3 157/174/3 156/180/3
f 156/180/3 157/174/3 159/176/3
f 157/173/4 158/174/4 159/175/4
f 159/175/4 158/174/4 160/176/4
f 160/177/5 155/174/5 159/178/5
f 159/178/5 155/174/5 156/179/5
f 158/177/6 153/174/6 160/180/6
f 160/180/6 153/174/6 155/176/6
f 161/181/1 162/182/1 163/183/1
f 163/183/1 162/182/1 164/184/1
f 165/185/2 162/182/2 166/186/2
f 166/186/2 162/182/2 161/187/2
f 162/185/3 165/182/3 164/188/3
f 164/188/3 165/182/3 167/184/3
f 165/181/4 166/182/4 167/183/4
f 167/183/4 166/182/4 168/184/4
f 168/185/5 163/182/5 167/186/5
f 167/186/5 163/182/5 164/187/5
f 166/185/6 161/182/6 168/188/6
f 168/188/6 161/182/6 163/184/6
f 169/189/1 170/190/1 153/191/1
f 153/191/1 170/190/1 162/192/1
f 171/189/2 170/190/2 172/193/2
f 172/193/2 170/190/2 169/194/2
f 170/189/3 171/190/3 162/191/3
f 162/191/3 171/190/3 165/192/3
f 171/189/4 172/190/4 165/191/4
f 165/191/4 172/190/4 158/192/4
f 158/189/5 153/190/5 165/193/5
f 165/193/5 153/190/5 162/194/5
f 172/189/6 169/190/6 158/191/6
f 158/191/6 169/190/6 153/192/6
f 155/195/1 164/196/1 173/197/1
f 173/197/1 164/196/1 174/198/1
f 167/195/2 164/196/2 160/199/2
f 160/199/2 164/196/2 155/200/2
f 164/195/3 167/196/3 174/197/3
f 174/197/3 167/196/3 175/198/3
f 167/195/4 160/196/4 175/197/4
f 175/197/4 160/196/4 176/198/4
f 176/195/5 173/196/5 175/199/5
f 175/199/5 173/196/5 174/200/5
f 160/195/6 155/196/6 176/197/6
f 176/197/6 155/196/6 173/198/6
o LeftLowerLeg
usemtl c_d5733d
f 177/201/1 178/202/1 179/203/1
f 179/203/1 178/202/1 180/204/1
f 181/205/2 178/202/2 182/206/2
f 182/206/2 178/202/2 177/207/2
f 178/205/3 181/202/3 180/208/3
f 180/208/3 181/202/3 183/204/3
f 181/201/4 182/202/4 183/203/4
f 183/203/4 182/202/4 184/204/4
f 184/205/5 179/202/5 183/206/5
f 183/206/5 179/202/5 180/207/5
f 182/205/6 177/202/6 184/208/6
f 184/208/6 177/202/6 179/204/6
f 185/209/1 186/210/1 187/211/1
f 187/211/1 186/210/1 178/212/1
f 188/209/2 186/210/2 189/213/2
f 189/213/2 186/210/2 185/214/2
f 186/209/3 188/210/3 178/211/3
f 178/211/3 188/210/3 181/212/3
f 188/209/4 189/210/4 181/211/4
f 181/211/4 189/210/4 190/212/4
f 190/209/5 187/210/5 181/213/5
f 181/213/5 187/210/5 178/214/5
f 189/209/6 185/210/6 190/211/6
f 190/211/6 185/210/6 187/212/6
f 191/215/1 180/216/1 192/217/1
f 192/217/1 180/216/1 193/218/1
f 183/215/2 180/216/2 194/219/2
f 194/219/2 180/216/2 191/220/2
f 180/215/3 183/216/3 193/217/3
f 193/217/3 183/216/3 195/218/3
f 183/215/4 194/216/4 195/217/4
f 195/217/4 194/216/4 196/218/4
f 196/215/5 192/216/5 195/219/5
f 195/219/5 192/216/5 193/220/5
f 194/215/6 191/216/6 196/217/6
f 196/217/6 191/216/6 192/218/6
f 187/221/1 197/222/1 191/223/1
f 191/223/1 197/222/1 198/224/1
f 199/225/2 197/222/2 190/226/2
f 190/226/2 197/222/2 187/227/2
f 197/225/3 199/222/3 198/228/3
f 198/228/3 199/222/3 200/224/3
f 199/221/4 190/222/4 200/223/4
f 200/223/4 190/222/4 194/224/4
f 194/225/5 191/222/5 200/226/5
f 200/226/5 191/222/5 198/227/5
f 190/225/6 187/222/6 194/228/6
f 194/228/6 187/222/6 191/224/6
usemtl c_5b5d69
f 201/229/1 202/230/1 203/231/1
f 203/231/1 202/230/1 204/232/1
f 205/233/2 202/230/2 206/234/2
f 206/234/2 202/230/2 201/232/2
f 202/233/3 205/230/3 204/234/3
f 204/234/3 205/230/3 207/232/3
f 205/229/4 206/230/4 207/231/4
f 207/231/4 206/230/4 208/232/4
f 208/233/5 203/230/5 207/234/5
f 207/234/5 203/230/5 204/232/5
f 206/233/6 201/230/6 208/234/6
f 208/234/6 201/230/6 203/232/6
o Head
usemtl c_eab892
f 209/235/1 210/236/1 211/237/1
f 211/237/1 210/236/1 212/238/1
f 213/239/2 210/236/2 214/240/2
f 214/240/2 210/236/2 209/241/2
f 210/239/3 213/236/3 212/242/3
f 212/242/3 213/236/3 215/238/3
f 213/235/4 214/236/4 215/237/4
f 215/237/4 214/236/4 216/238/4
f 216/239/5 211/236/5 215/240/5
f 215/240/5 211/236/5 212/241/5
f 214/239/6 209/236/6 216/242/6
f 216/242/6 209/236/6 211/238/6
f 217/243/1 218/244/1 219/245/1
f 219/245/1 218/244/1 220/246/1
f 221/247/2 218/244/2 222/248/2
f 222/248/2 218/244/2 217/246/2
f 218/247/3 221/244/3 220/248/3
f 220/248/3 221/244/3 223/246/3
f 221/243/4 222/244/4 223/245/4
f 223/245/4 222/244/4 224/246/4
f 224/247/5 219/244/5 223/248/5
f 223/248/5 219/244/5 220/246/5
f 222/247/6 217/244/6 224/248/6
f 224/248/6 217/244/6 219/246/6
f 225/249/1 226/250/1 227/251/1
f 227/251/1 226/250/1 228/252/1
f 229/253/2 226/250/2 230/254/2
f 230/254/2 226/250/2 225/252/2
f 226/253/3 229/250/3 228/254/3
f 228/254/3 229/250/3 231/252/3
f 229/249/4 230/250/4 231/251/4
f 231/251/4 230/250/4 219/252/4
f 219/253/5 227/250/5 231/254/5
f 231/254/5 227/250/5 228/252/5
f 230/253/6 225/250/6 219/254/6
f 219/254/6 225/250/6 227/252/6
f 232/255/1 233/256/1 234/257/1
f 234/257/1 233/256/1 235/258/1
f 236/259/2 233/256/2 237/260/2
f 237/260/2 233/256/2 232/258/2
f 233/259/3 236/256/3 235/260/3
f 235/260/3 236/256/3 238/258/3
f 236/255/4 237/256/4 238/257/4
f 238/257/4 237/256/4 227/258/4
f 227/259/5 234/256/5 238/260/5
f 238/260/5 234/256/5 235/258/5
f 237/259/6 232/256/6 227/260/6
f 227/260/6 232/256/6 234/258/6
usemtl c_ffb000
f 226/247/1 239/244/1 240/261/1
f 240/261/1 239/244/1 241/262/1
f 242/263/2 239/244/2 229/264/2
f 229/264/2 239/244/2 226/265/2
f 239/263/3 242/244/3 241/266/3
f 241/266/3 242/244/3 243/262/3
f 242/247/4 229/244/4 243/261/4
f 243/261/4 229/244/4 244/262/4
f 244/263/5 240/244/5 243/264/5
f 243/264/5 240/244/5 241/265/5
f 229/263/6 226/244/6 244/266/6
f 244/266/6 226/244/6 240/262/6
f 245/267/1 246/268/1 247/269/1
f 247/269/1 246/268/1 248/270/1
f 249/271/2 246/268/2 250/272/2
f 250/272/2 246/268/2 245/273/2
f 246/271/3 249/268/3 248/274/3
f 248/274/3 249/268/3 251/270/3
f 249/267/4 250/268/4 251/269/4
f 251/269/4 250/268/4 252/270/4
f 252/271/5 247/268/5 251/272/5
f 251/272/5 247/268/5 248/273/5
f 250/271/6 245/268/6 252/274/6
f 252/274/6 245/268/6 247/270/6
f 253/275/1 254/276/1 255/277/1
f 255/277/1 254/276/1 256/278/1
f 257/279/2 254/276/2 258/280/2
f 258/280/2 254/276/2 253/281/2
f 254/279/3 257/276/3 256/282/3
f 256/282/3 257/276/3 259/278/3
f 257/275/4 258/276/4 259/277/4
f 259/277/4 258/276/4 260/278/4
f 260/279/5 255/276/5 259/280/5
f 259/280/5 255/276/5 256/281/5
f 258/279/6 253/276/6 260/282/6
f 260/282/6 253/276/6 255/278/6
usemtl c_d5733d
f 261/283/1 262/250/1 263/284/1
f 263/284/1 262/250/1 264/285/1
f 265/253/2 262/250/2 266/286/2
f 266/286/2 262/250/2 261/287/2
f 262/253/3 265/250/3 264/288/3
f 264/288/3 265/250/3 267/285/3
f 265/283/4 266/250/4 267/284/4
f 267/284/4 266/250/4 268/285/4
f 268/253/5 263/250/5 267/286/5
f 267/286/5 263/250/5 264/287/5
f 266/253/6 261/250/6 268/288/6
f 268/288/6 261/250/6 263/285/6
f 269/289/1 270/290/1 271/291/1
f 271/291/1 270/290/1 272/292/1
f 273/293/2 270/290/2 274/294/2
f 274/294/2 270/290/2 269/292/2
f 270/293/3 273/290/3 272/294/3
f 272/294/3 273/290/3 275/292/3
f 273/289/4 274/290/4 275/291/4
f 275/291/4 274/290/4 276/292/4
f 276/293/5 271/290/5 275/294/5
f 275/294/5 271/290/5 272/292/5
f 274/293/6 269/290/6 276/294/6
f 276/294/6 269/290/6 271/292/6
f 277/295/1 278/296/1 279/297/1
f 279/297/1 278/296/1 263/298/1
f 280/299/2 278/296/2 281/300/2
f 281/300/2 278/296/2 277/301/2
f 278/299/3 280/296/3 263/302/3
f 263/302/3 280/296/3 268/298/3
f 280/295/4 281/296/4 268/297/4
f 268/297/4 281/296/4 282/298/4
f 282/299/5 279/296/5 268/300/5
f 268/300/5 279/296/5 263/301/5
f 281/299/6 277/296/6 282/302/6
f 282/302/6 277/296/6 279/298/6
usemtl c_8c5b9f
f 227/303/1 228/304/1 283/305/1
f 283/305/1 228/304/1 240/306/1
f 231/307/2 228/304/2 219/308/2
f 219/308/2 228/304/2 227/309/2
f 228/307/3 231/304/3 240/310/3
f 240/310/3 231/304/3 244/306/3
f 231/303/4 219/304/4 244/305/4
f 244/305/4 219/304/4 284/306/4
f 284/307/5 283/304/5 244/308/5
f 244/308/5 283/304/5 240/309/5
f 219/307/6 227/304/6 284/310/6
f 284/310/6 227/304/6 283/306/6
f 285/311/1 264/312/1 286/313/1
f 286/313/1 264/312/1 283/314/1
f 267/315/2 264/312/2 287/316/2
f 287/316/2 264/312/2 285/317/2
f 264/315/3 267/312/3 283/318/3
f 283/318/3 267/312/3 284/314/3
f 267/311/4 287/312/4 284/313/4
f 284/313/4 287/312/4 288/314/4
f 288/315/5 286/312/5 284/316/5
f 284/316/5 286/312/5 283/317/5
f 287/315/6 285/312/6 288/318/6
f 288/318/6 285/312/6 286/314/6
usemtl c_aa5500
f 274/319/1 273/320/1 276/321/1
f 276/321/1 273/320/1 275/322/1
f 266/319/2 273/320/2 289/321/2
f 289/321/2 273/320/2 274/322/2
f 273/319/3 266/320/3 275/321/3
f 275/321/3 266/320/3 280/322/3
f 266/319/4 289/320/4 280/321/4
f 280/321/4 289/320/4 281/322/4
f 281/319/5 276/320/5 280/321/5
f 280/321/5 276/320/5 275/322/5
f 289/319/6 274/320/6 281/321/6
f 281/321/6 274/320/6 276/322/6
f 290/323/1 261/324/1 277/325/1
f 277/325/1 261/324/1 278/326/1
f 270/323/2 261/324/2 269/325/2
f 269/325/2 261/324/2 290/326/2
f 261/323/3 270/324/3 278/325/3
f 278/325/3 270/324/3 272/326/3
f 270/323/4 269/324/4 272/325/4
f 272/325/4 269/324/4 271/326/4
f 271/323/5 277/324/5 272/325/5
f 272/325/5 277/324/5 278/326/5
f 269/323/6 290/324/6 271/325/6
f 271/325/6 290/324/6 277/326/6
usemtl c_1b2a35
f 291/327/1 292/328/1 293/329/1
f 293/329/1 292/328/1 294/330/1
f 295/331/2 292/328/2 296/332/2
f 296/332/2 292/328/2 291/330/2
f 292/331/3 295/328/3 294/332/3
f 294/332/3 295/328/3 297/330/3
f 295/327/4 296/328/4 297/329/4
f 297/329/4 296/328/4 298/330/4
f 298/331/5 293/328/5 297/332/5
f 297/332/5 293/328/5 294/330/5
f 296/331/6 291/328/6 298/332/6
f 298/332/6 291/328/6 293/330/6
o Head_decal1
usemtl head_decal1
f 299/333/4 300/334/4 301/335/4
f 301/335/4 300/334/4 302/336/4
o Head_decal2
usemtl head_decal2
f 303/333/1 304/334/1 305/335/1
f 305/335/1 304/334/1 306/336/1
o RightUpperArm
usemtl c_d5733d
f 307/337/1 308/338/1 309/339/1
f 309/339/1 308/338/1 310/340/1
f 311/337/2 308/338/2 312/339/2
f 312/339/2 308/338/2 307/340/2
f 308/337/3 311/338/3 310/339/3
f 310/339/3 311/338/3 313/340/3
f 311/337/4 312/338/4 313/339/4
f 313/339/4 312/338/4 314/340/4
f 314/337/5 309/338/5 313/339/5
f 313/339/5 309/338/5 310/340/5
f 312/337/6 307/338/6 314/339/6
f 314/339/6 307/338/6 309/340/6
f 315/341/1 316/342/1 317/343/1
f 317/343/1 316/342/1 318/344/1
f 319/345/2 316/342/2 320/346/2
f 320/346/2 316/342/2 315/344/2
f 316/345/3 319/342/3 318/346/3
f 318/346/3 319/342/3 321/344/3
f 319/341/4 320/342/4 321/343/4
f 321/343/4 320/342/4 322/344/4
f 322/345/5 317/342/5 321/346/5
f 321/346/5 317/342/5 318/344/5
f 320/345/6 315/342/6 322/346/6
f 322/346/6 315/342/6 317/344/6
usemtl c_008f9c
f 323/347/1 324/348/1 325/349/1
f 325/349/1 324/348/1 326/350/1
f 327/351/2 324/348/2 328/352/2
f 328/352/2 324/348/2 323/350/2
f 324/351/3 327/348/3 326/352/3
f 326/352/3 327/348/3 329/350/3
f 327/347/4 328/348/4 329/349/4
f 329/349/4 328/348/4 330/350/4
f 330/351/5 325/348/5 329/352/5
f 329/352/5 325/348/5 326/350/5
f 328/351/6 323/348/6 330/352/6
f 330/352/6 323/348/6 325/350/6
usemtl c_ffb000
f 331/141/1 332/138/1 333/144/1
f 333/144/1 332/138/1 334/140/1
f 335/353/2 332/138/2 336/354/2
f 336/354/2 332/138/2 331/140/2
f 332/353/3 335/138/3 334/354/3
f 334/354/3 335/138/3 4/140/3
f 335/141/4 336/138/4 4/144/4
f 4/144/4 336/138/4 3/140/4
f 3/353/5 333/138/5 4/354/5
f 4/354/5 333/138/5 334/140/5
f 336/353/6 331/138/6 3/354/6
f 3/354/6 331/138/6 333/140/6
usemtl c_eab892
f 337/355/1 338/356/1 339/357/1
f 339/357/1 338/356/1 340/358/1
f 341/355/2 338/356/2 342/357/2
f 342/357/2 338/356/2 337/358/2
f 338/355/3 341/356/3 340/357/3
f 340/357/3 341/356/3 343/358/3
f 341/355/4 342/356/4 343/357/4
f 343/357/4 342/356/4 344/358/4
f 344/355/5 339/356/5 343/357/5
f 343/357/5 339/356/5 340/358/5
f 342/355/6 337/356/6 344/357/6
f 344/357/6 337/356/6 339/358/6
f 345/359/1 346/360/1 347/361/1
f 347/361/1 346/360/1 348/362/1
f 349/359/2 346/360/2 350/361/2
f 350/361/2 346/360/2 345/362/2
f 346/359/3 349/360/3 348/361/3
f 348/361/3 349/360/3 351/362/3
f 349/359/4 350/360/4 351/361/4
f 351/361/4 350/360/4 352/362/4
f 352/359/5 347/360/5 351/361/5
f 351/361/5 347/360/5 348/362/5
f 350/359/6 345/360/6 352/361/6
f 352/361/6 345/360/6 347/362/6
f 308/363/1 353/364/1 310/365/1
f 310/365/1 353/364/1 354/366/1
f 355/363/2 353/364/2 311/365/2
f 311/365/2 353/364/2 308/366/2
f 353/363/3 355/364/3 354/365/3
f 354/365/3 355/364/3 356/366/3
f 355/363/4 311/364/4 356/365/4
f 356/365/4 311/364/4 313/366/4
f 313/363/5 310/364/5 356/365/5
f 356/365/5 310/364/5 354/366/5
f 311/363/6 308/364/6 313/365/6
f 313/365/6 308/364/6 310/366/6
usemtl c_5b5d69
f 357/367/1 358/368/1 354/369/1
f 354/369/1 358/368/1 359/370/1
f 360/367/2 358/368/2 361/371/2
f 361/371/2 358/368/2 357/372/2
f 358/367/3 360/368/3 359/369/3
f 359/369/3 360/368/3 362/370/3
f 360/367/4 361/368/4 362/369/4
f 362/369/4 361/368/4 356/370/4
f 356/367/5 354/368/5 362/371/5
f 362/371/5 354/368/5 359/372/5
f 361/367/6 357/368/6 356/369/6
f 356/369/6 357/368/6 354/370/6
o LeftUpperArm
usemtl c_d5733d
f 363/373/1 364/374/1 365/375/1
f 365/375/1 364/374/1 366/376/1
f 367/373/2 364/374/2 368/375/2
f 368/375/2 364/374/2 363/376/2
f 364/373/3 367/374/3 366/375/3
f 366/375/3 367/374/3 369/376/3
f 367/373/4 368/374/4 369/375/4
f 369/375/4 368/374/4 370/376/4
f 370/373/5 365/374/5 369/375/5
f 369/375/5 365/374/5 366/376/5
f 368/373/6 363/374/6 370/375/6
f 370/375/6 363/374/6 365/376/6
f 371/377/1 372/378/1 373/379/1
f 373/379/1 372/378/1 374/380/1
f 375/381/2 372/378/2 376/382/2
f 376/382/2 372/378/2 371/380/2
f 372/381/3 375/378/3 374/382/3
f 374/382/3 375/378/3 377/380/3
f 375/377/4 376/378/4 377/379/4
f 377/379/4 376/378/4 378/380/4
f 378/381/5 373/378/5 377/382/5
f 377/382/5 373/378/5 374/380/5
f 376/381/6 371/378/6 378/382/6
f 378/382/6 371/378/6 373/380/6
usemtl c_eab892
f 379/383/1 380/384/1 381/385/1
f 381/385/1 380/384/1 382/386/1
f 383/383/2 380/384/2 384/385/2
f 384/385/2 380/384/2 379/386/2
f 380/383/3 383/384/3 382/385/3
f 382/385/3 383/384/3 385/386/3
f 383/383/4 384/384/4 385/385/4
f 385/385/4 384/384/4 386/386/4
f 386/383/5 381/384/5 385/385/5
f 385/385/5 381/384/5 382/386/5
f 384/383/6 379/384/6 386/385/6
f 386/385/6 379/384/6 381/386/6
f 387/387/1 388/388/1 389/389/1
f 389/389/1 388/388/1 390/390/1
f 391/387/2 388/388/2 392/389/2
f 392/389/2 388/388/2 387/390/2
f 388/387/3 391/388/3 390/389/3
f 390/389/3 391/388/3 393/390/3
f 391/387/4 392/388/4 393/389/4
f 393/389/4 392/388/4 394/390/4
f 394/387/5 389/388/5 393/389/5
f 393/389/5 389/388/5 390/390/5
f 392/387/6 387/388/6 394/389/6
f 394/389/6 387/388/6 389/390/6
f 364/391/1 395/392/1 366/393/1
f 366/393/1 395/392/1 396/394/1
f 397/391/2 395/392/2 367/393/2
f 367/393/2 395/392/2 364/394/2
f 395/391/3 397/392/3 396/393/3
f 396/393/3 397/392/3 398/394/3
f 397/391/4 367/392/4 398/393/4
f 398/393/4 367/392/4 369/394/4
f 369/391/5 366/392/5 398/393/5
f 398/393/5 366/392/5 396/394/5
f 367/391/6 364/392/6 369/393/6
f 369/393/6 364/392/6 366/394/6
usemtl c_5b5d69
f 399/395/1 400/396/1 396/397/1
f 396/397/1 400/396/1 401/398/1
f 402/395/2 400/396/2 403/399/2
f 403/399/2 400/396/2 399/400/2
f 400/395/3 402/396/3 401/397/3
f 401/397/3 402/396/3 404/398/3
f 402/395/4 403/396/4 404/397/4
f 404/397/4 403/396/4 398/398/4
f 398/395/5 396/396/5 404/399/5
f 404/399/5 396/396/5 401/400/5
f 403/395/6 399/396/6 398/397/6
f 398/397/6 399/396/6 396/398/6
usemtl c_ffb000
f 405/401/1 406/402/1 8/403/1
f 8/403/1 406/402/1 7/404/1
f 407/405/2 406/402/2 408/406/2
f 408/406/2 406/402/2 405/404/2
f 406/405/3 407/402/3 7/406/3
f 7/406/3 407/402/3 409/404/3
f 407/401/4 408/402/4 409/403/4
f 409/403/4 408/402/4 410/404/4
f 410/405/5 8/402/5 409/406/5
f 409/406/5 8/402/5 7/404/5
f 408/405/6 405/402/6 410/406/6
f 410/406/6 405/402/6 8/404/6
usemtl c_008f9c
f 411/407/1 412/408/1 413/409/1
f 413/409/1 412/408/1 414/410/1
f 415/411/2 412/408/2 416/412/2
f 416/412/2 412/408/2 411/410/2
f 412/411/3 415/408/3 414/412/3
f 414/412/3 415/408/3 417/410/3
f 415/407/4 416/408/4 417/409/4
f 417/409/4 416/408/4 418/410/4
f 418/411/5 413/408/5 417/412/5
f 417/412/5 413/408/5 414/410/5
f 416/411/6 411/408/6 418/412/6
f 418/412/6 411/408/6 413/410/6
o RightFoot
usemtl c_8c5b9f
f 419/413/1 420/414/1 421/415/1
f 421/415/1 420/414/1 422/416/1
f 423/417/2 420/414/2 424/418/2
f 424/418/2 420/414/2 419/419/2
f 420/417/3 423/414/3 422/420/3
f 422/420/3 423/414/3 425/416/3
f 423/413/4 424/414/4 425/415/4
f 425/415/4 424/414/4 426/416/4
f 426/417/5 421/414/5 425/418/5
f 425/418/5 421/414/5 422/419/5
f 424/417/6 419/414/6 426/420/6
f 426/420/6 419/414/6 421/416/6
usemtl c_eab892
f 427/421/1 428/422/1 429/423/1
f 429/423/1 428/422/1 430/424/1
f 431/421/2 428/422/2 432/425/2
f 432/425/2 428/422/2 427/426/2
f 428/421/3 431/422/3 430/423/3
f 430/423/3 431/422/3 433/424/3
f 431/421/4 432/422/4 433/423/4
f 433/423/4 432/422/4 434/424/4
f 434/421/5 429/422/5 433/425/5
f 433/425/5 429/422/5 430/426/5
f 432/421/6 427/422/6 434/423/6
f 434/423/6 427/422/6 429/424/6
f 435/427/1 436/428/1 437/429/1
f 437/429/1 436/428/1 438/430/1
f 439/427/2 436/428/2 440/431/2
f 440/431/2 436/428/2 435/432/2
f 436/427/3 439/428/3 438/429/3
f 438/429/3 439/428/3 441/430/3
f 439/427/4 440/428/4 441/429/4
f 441/429/4 440/428/4 442/430/4
f 442/427/5 437/428/5 441/431/5
f 441/431/5 437/428/5 438/432/5
f 440/427/6 435/428/6 442/429/6
f 442/429/6 435/428/6 437/430/6
f 443/433/1 444/230/1 445/434/1
f 445/434/1 444/230/1 437/435/1
f 446/433/2 444/230/2 447/434/2
f 447/434/2 444/230/2 443/435/2
f 444/433/3 446/230/3 437/434/3
f 437/434/3 446/230/3 442/435/3
f 446/433/4 447/230/4 442/434/4
f 442/434/4 447/230/4 448/435/4
f 448/433/5 445/230/5 442/434/5
f 442/434/5 445/230/5 437/435/5
f 447/433/6 443/230/6 448/434/6
f 448/434/6 443/230/6 445/435/6
f 449/436/1 450/437/1 451/438/1
f 451/438/1 450/437/1 429/439/1
f 452/436/2 450/437/2 453/438/2
f 453/438/2 450/437/2 449/439/2
f 450/436/3 452/437/3 429/438/3
f 429/438/3 452/437/3 434/439/3
f 452/436/4 453/437/4 434/438/4
f 434/438/4 453/437/4 454/439/4
f 454/436/5 451/437/5 434/438/5
f 434/438/5 451/437/5 429/439/5
f 453/436/6 449/437/6 454/438/6
f 454/438/6 449/437/6 451/439/6
usemtl c_d5733d
f 455/119/1 456/116/1 457/122/1
f 457/122/1 456/116/1 458/118/1
f 459/119/2 456/116/2 460/440/2
f 460/440/2 456/116/2 455/441/2
f 456/119/3 459/116/3 458/122/3
f 458/122/3 459/116/3 461/118/3
f 459/119/4 460/116/4 461/122/4
f 461/122/4 460/116/4 462/118/4
f 462/119/5 457/116/5 461/440/5
f 461/440/5 457/116/5 458/441/5
f 460/119/6 455/116/6 462/122/6
f 462/122/6 455/116/6 457/118/6
f 436/442/1 463/443/1 438/444/1
f 438/444/1 463/443/1 457/445/1
f 464/446/2 463/443/2 431/447/2
f 431/447/2 463/443/2 436/448/2
f 463/446/3 464/443/3 457/449/3
f 457/449/3 464/443/3 462/445/3
f 464/442/4 431/443/4 462/444/4
f 462/444/4 431/443/4 433/445/4
f 433/446/5 438/443/5 462/447/5
f 462/447/5 438/443/5 457/448/5
f 431/446/6 436/443/6 433/449/6
f 433/449/6 436/443/6 438/445/6
f 465/450/1 466/451/1 467/452/1
f 467/452/1 466/451/1 468/453/1
f 469/454/2 466/451/2 470/455/2
f 470/455/2 466/451/2 465/456/2
f 466/454/3 469/451/3 468/457/3
f 468/457/3 469/451/3 471/453/3
f 469/450/4 470/451/4 471/452/4
f 471/452/4 470/451/4 472/453/4
f 472/454/5 467/451/5 471/455/5
f 471/455/5 467/451/5 468/456/5
f 470/454/6 465/451/6 472/457/6
f 472/457/6 465/451/6 467/453/6
o LeftFoot
usemtl c_d5733d
f 473/458/1 474/459/1 475/460/1
f 475/460/1 474/459/1 476/461/1
f 477/462/2 474/459/2 478/463/2
f 478/463/2 474/459/2 473/464/2
f 474/462/3 477/459/3 476/465/3
f 476/465/3 477/459/3 479/461/3
f 477/458/4 478/459/4 479/460/4
f 479/460/4 478/459/4 480/461/4
f 480/462/5 475/459/5 479/463/5
f 479/463/5 475/459/5 476/464/5
f 478/462/6 473/459/6 480/465/6
f 480/465/6 473/459/6 475/461/6
f 481/466/1 482/467/1 483/468/1
f 483/468/1 482/467/1 484/469/1
f 485/470/2 482/467/2 486/471/2
f 486/471/2 482/467/2 481/472/2
f 482/470/3 485/467/3 484/473/3
f 484/473/3 485/467/3 487/469/3
f 485/466/4 486/467/4 487/468/4
f 487/468/4 486/467/4 488/469/4
f 488/470/5 483/467/5 487/471/5
f 487/471/5 483/467/5 484/472/5
f 486/470/6 481/467/6 488/473/6
f 488/473/6 481/467/6 483/469/6
f 489/215/1 490/216/1 476/217/1
f 476/217/1 490/216/1 491/218/1
f 492/215/2 490/216/2 493/219/2
f 493/219/2 490/216/2 489/220/2
f 490/215/3 492/216/3 491/217/3
f 491/217/3 492/216/3 494/218/3
f 492/215/4 493/216/4 494/217/4
f 494/217/4 493/216/4 479/218/4
f 479/215/5 476/216/5 494/219/5
f 494/219/5 476/216/5 491/220/5
f 493/215/6 489/216/6 479/217/6
f 479/217/6 489/216/6 476/218/6
usemtl c_eab892
f 495/474/1 496/475/1 497/476/1
f 497/476/1 496/475/1 498/477/1
f 499/474/2 496/475/2 500/476/2
f 500/476/2 496/475/2 495/477/2
f 496/474/3 499/475/3 498/476/3
f 498/476/3 499/475/3 501/477/3
f 499/474/4 500/475/4 501/476/4
f 501/476/4 500/475/4 502/477/4
f 502/474/5 497/475/5 501/476/5
f 501/476/5 497/475/5 498/477/5
f 500/474/6 495/475/6 502/476/6
f 502/476/6 495/475/6 497/477/6
f 503/478/1 504/479/1 505/480/1
f 505/480/1 504/479/1 506/481/1
f 478/478/2 504/479/2 507/482/2
f 507/482/2 504/479/2 503/483/2
f 504/478/3 478/479/3 506/480/3
f 506/480/3 478/479/3 480/481/3
f 478/478/4 507/479/4 480/480/4
f 480/480/4 507/479/4 508/481/4
f 508/478/5 505/479/5 480/482/5
f 480/482/5 505/479/5 506/483/5
f 507/478/6 503/479/6 508/480/6
f 508/480/6 503/479/6 505/481/6
f 509/484/1 510/485/1 511/486/1
f 511/486/1 510/485/1 505/487/1
f 512/484/2 510/485/2 513/486/2
f 513/486/2 510/485/2 509/487/2
f 510/484/3 512/485/3 505/486/3
f 505/486/3 512/485/3 508/487/3
f 512/484/4 513/485/4 508/486/4
f 508/486/4 513/485/4 514/487/4
f 514/484/5 511/485/5 508/486/5
f 508/486/5 511/485/5 505/487/5
f 513/484/6 509/485/6 514/486/6
f 514/486/6 509/485/6 511/487/6
f 515/488/1 473/489/1 498/490/1
f 498/490/1 473/489/1 475/491/1
f 516/488/2 473/489/2 517/492/2
f 517/492/2 473/489/2 515/493/2
f 473/488/3 516/489/3 475/490/3
f 475/490/3 516/489/3 518/491/3
f 516/488/4 517/489/4 518/490/4
f 518/490/4 517/489/4 501/491/4
f 501/488/5 498/489/5 518/492/5
f 518/492/5 498/489/5 475/493/5
f 517/488/6 515/489/6 501/490/6
f 501/490/6 515/489/6 498/491/6
usemtl c_8c5b9f
f 519/494/1 520/495/1 521/496/1
f 521/496/1 520/495/1 522/497/1
f 523/498/2 520/495/2 524/499/2
f 524/499/2 520/495/2 519/500/2
f 520/498/3 523/495/3 522/501/3
f 522/501/3 523/495/3 525/497/3
f 523/494/4 524/495/4 525/496/4
f 525/496/4 524/495/4 526/497/4
f 526/498/5 521/495/5 525/499/5
f 525/499/5 521/495/5 522/500/5
f 524/498/6 519/495/6 526/501/6
f 526/501/6 519/495/6 521/497/6
o Tail
usemtl c_ffb000
f 527/502/1 528/503/1 529/504/1
f 529/504/1 528/503/1 530/505/1
f 531/506/2 528/503/2 532/507/2
f 532/507/2 528/503/2 527/508/2
f 528/506/3 531/503/3 530/509/3
f 530/509/3 531/503/3 533/505/3
f 531/502/4 532/503/4 533/504/4
f 533/504/4 532/503/4 534/505/4
f 534/506/5 529/503/5 533/507/5
f 533/507/5 529/503/5 530/508/5
f 532/506/6 527/503/6 534/509/6
f 534/509/6 527/503/6 529/505/6
f 535/510/1 536/511/1 537/512/1
f 537/512/1 536/511/1 538/513/1
f 539/510/2 536/511/2 540/512/2
f 540/512/2 536/511/2 535/513/2
f 536/510/3 539/511/3 538/512/3
f 538/512/3 539/511/3 541/513/3
f 539/510/4 540/511/4 541/512/4
f 541/512/4 540/511/4 542/513/4
f 542/510/5 537/511/5 541/512/5
f 541/512/5 537/511/5 538/513/5
f 540/510/6 535/511/6 542/512/6
f 542/512/6 535/511/6 537/513/6
f 543/514/1 544/515/1 545/516/1
f 545/516/1 544/515/1 546/517/1
f 547/518/2 544/515/2 548/519/2
f 548/519/2 544/515/2 543/520/2
f 544/518/3 547/515/3 546/521/3
f 546/521/3 547/515/3 549/517/3
f 547/514/4 548/515/4 549/516/4
f 549/516/4 548/515/4 550/517/4
f 550/518/5 545/515/5 549/519/5
f 549/519/5 545/515/5 546/520/5
f 548/518/6 543/515/6 550/521/6
f 550/521/6 543/515/6 545/517/6
f 551/522/1 552/523/1 553/524/1
f 553/524/1 552/523/1 554/525/1
f 555/526/2 552/523/2 556/527/2
f 556/527/2 552/523/2 551/528/2
f 552/526/3 555/523/3 554/529/3
f 554/529/3 555/523/3 557/525/3
f 555/522/4 556/523/4 557/524/4
f 557/524/4 556/523/4 558/525/4
f 558/526/5 553/523/5 557/527/5
f 557/527/5 553/523/5 554/528/5
f 556/526/6 551/523/6 558/529/6
f 558/529/6 551/523/6 553/525/6
f 559/530/1 560/531/1 561/532/1
f 561/532/1 560/531/1 562/533/1
f 563/530/2 560/531/2 564/532/2
f 564/532/2 560/531/2 559/533/2
f 560/530/3 563/531/3 562/532/3
f 562/532/3 563/531/3 565/533/3
f 563/530/4 564/531/4 565/532/4
f 565/532/4 564/531/4 566/533/4
f 566/530/5 561/531/5 565/532/5
f 565/532/5 561/531/5 562/533/5
f 564/530/6 559/531/6 566/532/6
f 566/532/6 559/531/6 561/533/6
f 567/255/1 568/256/1 569/257/1
f 569/257/1 568/256/1 570/258/1
f 571/255/2 568/256/2 572/257/2
f 572/257/2 568/256/2 567/258/2
f 568/255/3 571/256/3 570/257/3
f 570/257/3 571/256/3 573/258/3
f 571/255/4 572/256/4 573/257/4
f 573/257/4 572/256/4 574/258/4
f 574/255/5 569/256/5 573/257/5
f 573/257/5 569/256/5 570/258/5
f 572/255/6 567/256/6 574/257/6
f 574/257/6 567/256/6 569/258/6
f 50/534/1 575/535/1 52/536/1
f 52/536/1 575/535/1 576/537/1
f 577/538/2 575/535/2 53/539/2
f 53/539/2 575/535/2 50/540/2
f 575/538/3 577/535/3 576/541/3
f 576/541/3 577/535/3 578/537/3
f 577/534/4 53/535/4 578/536/4
f 578/536/4 53/535/4 55/537/4
f 55/538/5 52/535/5 578/539/5
f 578/539/5 52/535/5 576/540/5
f 53/538/6 50/535/6 55/541/6
f 55/541/6 50/535/6 52/537/6
f 579/542/1 580/312/1 581/543/1
f 581/543/1 580/312/1 582/314/1
f 583/542/2 580/312/2 584/543/2
f 584/543/2 580/312/2 579/314/2
f 580/542/3 583/312/3 582/543/3
f 582/543/3 583/312/3 585/314/3
f 583/542/4 584/312/4 585/543/4
f 585/543/4 584/312/4 586/314/4
f 586/542/5 581/312/5 585/543/5
f 585/543/5 581/312/5 582/314/5
f 584/542/6 579/312/6 586/543/6
f 586/543/6 579/312/6 581/314/6
f 570/544/1 587/545/1 588/546/1
f 588/546/1 587/545/1 589/547/1
f 590/544/2 587/545/2 573/548/2
f 573/548/2 587/545/2 570/549/2
f 587/544/3 590/545/3 589/546/3
f 589/546/3 590/545/3 591/547/3
f 590/544/4 573/545/4 591/546/4
f 591/546/4 573/545/4 592/547/4
f 592/544/5 588/545/5 591/548/5
f 591/548/5 588/545/5 589/549/5
f 573/544/6 570/545/6 592/546/6
f 592/546/6 570/545/6 588/547/6
usemtl c_eab892
f 52/550/1 593/160/1 594/551/1
f 594/551/1 593/160/1 595/552/1
f 596/553/2 593/160/2 55/554/2
f 55/554/2 593/160/2 52/552/2
f 593/553/3 596/160/3 595/554/3
f 595/554/3 596/160/3 597/552/3
f 596/550/4 55/160/4 597/551/4
f 597/551/4 55/160/4 598/552/4
f 598/553/5 594/160/5 597/554/5
f 597/554/5 594/160/5 595/552/5
f 55/553/6 52/160/6 598/554/6
f 598/554/6 52/160/6 594/552/6
f 553/555/1 599/556/1 600/557/1
f 600/557/1 599/556/1 601/558/1
f 602/559/2 599/556/2 558/560/2
f 558/560/2 599/556/2 553/558/2
f 599/559/3 602/556/3 601/560/3
f 601/560/3 602/556/3 603/558/3
f 602/555/4 558/556/4 603/557/4
f 603/557/4 558/556/4 604/558/4
f 604/559/5 600/556/5 603/560/5
f 603/560/5 600/556/5 601/558/5
f 558/559/6 553/556/6 604/560/6
f 604/560/6 553/556/6 600/558/6
f 605/561/1 606/562/1 601/563/1
f 601/563/1 606/562/1 607/564/1
f 608/565/2 606/562/2 609/566/2
f 609/566/2 606/562/2 605/564/2
f 606/565/3 608/562/3 607/566/3
f 607/566/3 608/562/3 610/564/3
f 608/561/4 609/562/4 610/563/4
f 610/563/4 609/562/4 603/564/4
f 603/565/5 601/562/5 610/566/5
f 610/566/5 601/562/5 607/564/5
f 609/565/6 605/562/6 603/566/6
f 603/566/6 605/562/6 601/564/6
f 611/567/1 612/568/1 595/569/1
f 595/569/1 612/568/1 613/570/1
f 614/571/2 612/568/2 615/572/2
f 615/572/2 612/568/2 611/573/2
f 612/571/3 614/568/3 613/574/3
f 613/574/3 614/568/3 616/570/3
f 614/567/4 615/568/4 616/569/4
f 616/569/4 615/568/4 597/570/4
f 597/571/5 595/568/5 616/572/5
f 616/572/5 595/568/5 613/573/5
f 615/571/6 611/568/6 597/574/6
f 597/574/6 611/568/6 595/570/6
f 617/575/1 618/576/1 619/577/1
f 619/577/1 618/576/1 620/578/1
f 621/579/2 618/576/2 622/580/2
f 622/580/2 618/576/2 617/578/2
f 618/579/3 621/576/3 620/580/3
f 620/580/3 621/576/3 623/578/3
f 621/575/4 622/576/4 623/577/4
f 623/577/4 622/576/4 624/578/4
f 624/579/5 619/576/5 623/580/5
f 623/580/5 619/576/5 620/578/5
f 622/579/6 617/576/6 624/580/6
f 624/580/6 617/576/6 619/578/6
f 588/581/1 625/582/1 626/583/1
f 626/583/1 625/582/1 619/584/1
f 627/585/2 625/582/2 592/586/2
f 592/586/2 625/582/2 588/587/2
f 625/585/3 627/582/3 619/588/3
f 619/588/3 627/582/3 624/584/3
f 627/581/4 592/582/4 624/583/4
f 624/583/4 592/582/4 628/584/4
f 628/585/5 626/582/5 624/586/5
f 624/586/5 626/582/5 619/587/5
f 592/585/6 588/582/6 628/588/6
f 628/588/6 588/582/6 626/584/6
usemtl c_8c5b9f
f 593/589/1 576/590/1 611/591/1
f 611/591/1 576/590/1 612/592/1
f 578/593/2 576/590/2 596/594/2
f 596/594/2 576/590/2 593/592/2
f 576/593/3 578/590/3 612/594/3
f 612/594/3 578/590/3 614/592/3
f 578/589/4 596/590/4 614/591/4
f 614/591/4 596/590/4 615/592/4
f 615/593/5 611/590/5 614/594/5
f 614/594/5 611/590/5 612/592/5
f 596/593/6 593/590/6 615/594/6
f 615/594/6 593/590/6 611/592/6
f 599/595/1 554/596/1 605/597/1
f 605/597/1 554/596/1 606/598/1
f 557/599/2 554/596/2 602/600/2
f 602/600/2 554/596/2 599/598/2
f 554/599/3 557/596/3 606/600/3
f 606/600/3 557/596/3 608/598/3
f 557/595/4 602/596/4 608/597/4
f 608/597/4 602/596/4 609/598/4
f 609/599/5 605/596/5 608/600/5
f 608/600/5 605/596/5 606/598/5
f 602/599/6 599/596/6 609/600/6
f 609/600/6 599/596/6 605/598/6
f 625/530/1 589/531/1 617/532/1
f 617/532/1 589/531/1 618/533/1
f 591/601/2 589/531/2 627/602/2
f 627/602/2 589/531/2 625/533/2
f 589/601/3 591/531/3 618/602/3
f 618/602/3 591/531/3 621/533/3
f 591/530/4 627/531/4 621/532/4
f 621/532/4 627/531/4 622/533/4
f 622/601/5 617/531/5 621/602/5
f 621/602/5 617/531/5 618/533/5
f 627/601/6 625/531/6 622/602/6
f 622/602/6 625/531/6 617/533/6
o RightUpperLeg
usemtl c_d5733d
f 629/603/1 630/604/1 631/605/1
f 631/605/1 630/604/1 632/606/1
f 633/607/2 630/604/2 634/608/2
f 634/608/2 630/604/2 629/606/2
f 630/607/3 633/604/3 632/608/3
f 632/608/3 633/604/3 635/606/3
f 633/603/4 634/604/4 635/605/4
f 635/605/4 634/604/4 636/606/4
f 636/607/5 631/604/5 635/608/5
f 635/608/5 631/604/5 632/606/5
f 634/607/6 629/604/6 636/608/6
f 636/608/6 629/604/6 631/606/6
f 637/609/1 638/610/1 639/611/1
f 639/611/1 638/610/1 640/612/1
f 641/609/2 638/610/2 642/613/2
f 642/613/2 638/610/2 637/614/2
f 638/609/3 641/610/3 640/611/3
f 640/611/3 641/610/3 643/612/3
f 641/609/4 642/610/4 643/611/4
f 643/611/4 642/610/4 644/612/4
f 644/609/5 639/610/5 643/613/5
f 643/613/5 639/610/5 640/614/5
f 642/609/6 637/610/6 644/611/6
f 644/611/6 637/610/6 639/612/6
f 640/615/1 645/616/1 646/617/1
f 646/617/1 645/616/1 647/618/1
f 648/619/2 645/616/2 643/620/2
f 643/620/2 645/616/2 640/621/2
f 645/619/3 648/616/3 647/622/3
f 647/622/3 648/616/3 649/618/3
f 648/615/4 643/616/4 649/617/4
f 649/617/4 643/616/4 650/618/4
f 650/619/5 646/616/5 649/620/5
f 649/620/5 646/616/5 647/621/5
f 643/619/6 640/616/6 650/622/6
f 650/622/6 640/616/6 646/618/6
usemtl c_5b5d69
f 651/623/1 652/624/1 653/625/1
f 653/625/1 652/624/1 654/626/1
f 655/627/2 652/624/2 656/628/2
f 656/628/2 652/624/2 651/629/2
f 652/627/3 655/624/3 654/630/3
f 654/630/3 655/624/3 657/626/3
f 655/623/4 656/624/4 657/625/4
f 657/625/4 656/624/4 658/626/4
f 658/627/5 653/624/5 657/628/5
f 657/628/5 653/624/5 654/629/5
f 656/627/6 651/624/6 658/630/6
f 658/630/6 651/624/6 653/626/6
usemtl c_ffb000
f 659/631/1 660/324/1 661/632/1
f 661/632/1 660/324/1 662/326/1
f 663/633/2 660/324/2 664/634/2
f 664/634/2 660/324/2 659/635/2
f 660/633/3 663/324/3 662/636/3
f 662/636/3 663/324/3 665/326/3
f 663/631/4 664/324/4 665/632/4
f 665/632/4 664/324/4 666/326/4
f 666/633/5 661/324/5 665/634/5
f 665/634/5 661/324/5 662/635/5
f 664/633/6 659/324/6 666/636/6
f 666/636/6 659/324/6 661/326/6
usemtl c_eab892
f 667/637/1 659/638/1 668/639/1
f 668/639/1 659/638/1 669/640/1
f 664/641/2 659/638/2 670/642/2
f 670/642/2 659/638/2 667/643/2
f 659/641/3 664/638/3 669/644/3
f 669/644/3 664/638/3 671/640/3
f 664/637/4 670/638/4 671/639/4
f 671/639/4 670/638/4 672/640/4
f 672/641/5 668/638/5 671/642/5
f 671/642/5 668/638/5 669/643/5
f 670/641/6 667/638/6 672/644/6
f 672/644/6 667/638/6 668/640/6
