# Roblox asset pack: egg_ultra (props), from the Studio model "Eggs/UltraEgg". Exported with Export Selection, split by tools/build_creatures.py: one object per rigid body. Units: studs. +Y up, front faces -Z, pivot (bottom centre) at the origin.
mtllib egg_ultra.mtl

v -3.36740 6.52990 -3.14000
v 0.13552 7.51990 -4.84000
v -2.06997 5.12990 -3.49000
v -1.16189 8.90990 -4.49000
v -2.81532 6.72990 1.85000
v 0.68758 7.71990 3.54000
v -1.51791 5.32990 2.20000
v -0.60982 9.10990 3.20000
v 0.68760 7.71990 -3.58000
v -0.60981 9.10990 -3.23000
v 0.13551 7.51990 4.80000
v -1.16190 8.90990 4.46000
v -2.81531 6.72990 -1.88000
v -3.36740 6.52990 3.11000
v -2.06999 5.12990 3.46000
v -1.51790 5.32990 -2.23000
v 2.67155 3.64990 -3.72000
v 2.63900 5.50990 -3.72000
v 2.65527 5.49990 -3.72000
v 2.65503 5.50990 -3.72000
v 3.56971 6.43990 -3.72000
v 3.57003 5.50990 -3.72000
v 3.60226 3.66990 -3.72000
v 3.58599 5.50990 -3.72000
v 2.63908 6.42990 -3.72000
v 2.62280 9.22990 -3.72000
v 3.55352 9.23990 -3.72000
v 2.63900 8.29990 -3.72000
v 3.56971 8.30990 -3.72000
v 2.62280 8.28990 -2.79000
v 3.55352 8.29990 -2.79000
v 2.65527 6.42990 -2.79000
v 3.58599 6.43990 -2.79000
v 3.48858 8.29990 0.93000
v 2.55787 8.30990 0.93000
v 3.50478 9.22990 0.93000
v 2.57406 9.23990 0.93000
v 2.57414 8.29990 0.93000
v 3.50486 8.28990 0.93000
v 2.54160 6.43990 0.93000
v 3.47231 6.42990 0.93000
v 3.47231 5.49990 0.93000
v 2.54160 5.50990 0.93000
v 3.48858 6.42990 0.93000
v 2.55787 6.43990 0.93000
v 2.52540 3.66990 1.86000
v 2.55755 5.50990 1.86000
v 3.47231 5.49990 1.86000
v 3.45604 3.64990 1.86000
v 3.48858 5.50990 1.86000
v 3.47263 5.50990 1.86000
v 2.57406 9.23990 3.72000
v 3.50478 9.22990 3.72000
v 2.62280 9.22990 -0.93000
v 3.55352 9.23990 -0.93000
v 2.57414 8.29990 2.79000
v 3.50486 8.28990 2.79000
v 2.62280 8.28990 -0.93000
v 3.55352 8.29990 -0.93000
v 2.55787 6.43990 3.72000
v 3.48858 6.42990 3.72000
v 2.63908 6.42990 -0.93000
v 3.56971 6.43990 -0.93000
v 3.47263 5.50990 3.72000
v 3.48858 5.50990 3.72000
v 2.63900 5.50990 -1.86000
v 2.65503 5.50990 -1.86000
v 3.56971 8.30990 -0.93000
v 3.58599 6.43990 -0.93000
v 3.58599 5.50990 -0.93000
v 3.57003 5.50990 -1.86000
v 3.60226 3.66990 -1.86000
v 3.45604 3.64990 3.72000
v 3.47231 6.42990 2.79000
v 3.48858 8.29990 3.72000
v 2.55787 8.30990 3.72000
v 3.47231 5.49990 3.72000
v 2.55755 5.50990 3.72000
v 2.54160 5.50990 3.72000
v 2.52540 3.66990 3.72000
v 2.54160 6.43990 2.79000
v 2.65527 5.49990 -0.93000
v 2.65527 6.42990 -0.93000
v 2.63900 8.29990 -0.93000
v 2.67155 3.64990 -1.86000
v 2.65527 5.49990 -1.86000
v -0.44401 9.39990 -4.47000
v 0.68454 10.78990 -5.19000
v 0.63269 9.28990 -4.93000
v -0.39217 10.90990 -4.74000
v -0.18740 9.49990 3.86000
v 0.94115 10.88990 4.57000
v 0.88930 9.37990 4.31000
v -0.13556 10.99990 4.12000
v -0.39217 10.90990 4.70000
v 0.68452 10.78990 5.16000
v -0.13555 10.99990 -4.15000
v 0.94115 10.88990 -4.60000
v 0.63269 9.28990 4.90000
v 0.88932 9.37990 -4.34000
v -0.44401 9.39990 4.44000
v -0.18739 9.49990 -3.89000
v 3.50478 12.03990 -8.38000
v 2.58220 11.54990 -8.38000
v 2.57406 12.01990 -8.38000
v 2.59034 11.08990 -8.38000
v 3.51291 11.56990 -8.38000
v 3.52105 11.09990 -8.38000
v 2.60653 10.15990 -8.38000
v 3.53725 10.16990 -8.38000
v 2.63908 8.29990 -8.38000
v 3.56979 8.30990 -8.38000
v 3.55352 7.38990 -7.45000
v 2.62280 7.36990 -7.45000
v 3.53740 8.30990 -7.45000
v 2.63908 8.29990 -7.45000
v 2.60653 8.29990 -7.45000
v 2.63892 8.29990 -7.45000
v 3.56979 4.58990 -7.45000
v 2.63908 4.56990 -7.45000
v 3.53725 6.44990 -7.45000
v 2.60653 6.42990 -7.45000
v 2.62280 7.36990 -6.52000
v 3.55344 7.38990 -6.52000
v 3.56979 6.45990 -6.52000
v 2.63908 6.43990 -6.52000
v 3.55352 3.64990 -6.52000
v 2.62280 3.62990 -6.52000
v 3.53725 4.57990 -6.52000
v 2.60653 4.55990 -6.52000
v 3.55352 2.70990 -4.65000
v 2.62280 2.69990 -4.65000
v 3.53725 3.63990 -4.65000
v 2.60653 3.62990 -4.65000
v 2.60653 2.68990 -3.72000
v 3.53725 2.69990 -3.72000
v 2.62280 1.75990 -3.72000
v 3.55352 1.76990 -3.72000
v 3.50478 1.75990 1.86000
v 2.57406 1.76990 1.86000
v 3.52105 2.68990 1.86000
v 2.59034 2.69990 1.86000
v 2.59034 3.63990 1.86000
v 3.52105 3.62990 1.86000
v 2.57406 2.70990 1.86000
v 3.50478 2.69990 1.86000
v 2.59034 4.57990 4.65000
v 3.52105 4.55990 4.65000
v 2.57406 3.64990 4.65000
v 3.50478 3.62990 4.65000
v 3.53733 11.08990 4.65000
v 2.59034 10.16990 4.65000
v 2.60661 11.09990 4.65000
v 3.52105 10.15990 4.65000
v 3.48858 6.43990 5.58000
v 2.55787 6.45990 5.58000
v 3.52105 8.29990 5.58000
v 2.59034 8.31990 5.58000
v 3.48858 4.56990 6.52000
v 2.55787 4.58990 6.52000
v 3.52105 6.42990 6.52000
v 2.59034 6.44990 6.52000
v 3.55352 12.01990 6.52000
v 2.60661 11.09990 6.52000
v 2.62289 12.03990 6.52000
v 3.53733 11.08990 6.52000
v 2.59034 8.31990 7.45000
v 3.52105 10.15990 7.45000
v 3.48867 8.29990 7.45000
v 2.55787 8.30990 7.45000
v 2.59034 10.16990 7.45000
v 2.59018 8.30990 7.45000
v 3.38839 12.02990 -8.15000
v 3.38839 12.02990 -6.52000
v 3.50478 12.03990 -6.52000
v 2.98122 12.02990 -7.33000
v 2.57406 12.01990 -6.52000
v 2.57406 12.01990 -8.15000
v 2.62289 12.03990 8.38000
v 3.55360 12.01990 8.38000
v 3.52097 11.09990 -6.52000
v 2.59034 11.08990 -4.65000
v 3.52105 11.09990 -4.65000
v 2.59034 11.08990 -6.52000
v 2.60653 10.15990 -7.45000
v 3.53725 10.16990 -7.45000
v 2.59034 10.16990 8.38000
v 3.52105 10.15990 8.38000
v 3.53725 8.31990 -7.45000
v 2.60653 8.29990 -6.52000
v 3.53725 8.31990 -6.52000
v 2.60653 8.29990 -5.59000
v 3.53725 8.31990 -5.59000
v 2.59034 8.31990 6.52000
v 3.52105 8.29990 6.52000
v 3.52105 8.29990 7.45000
v 2.60653 6.42990 -6.52000
v 3.53725 6.44990 -6.52000
v 2.59034 6.44990 7.45000
v 3.52105 6.42990 7.45000
v 2.60653 4.55990 -4.65000
v 3.53725 4.57990 -4.65000
v 2.59034 4.57990 6.52000
v 3.52105 4.55990 6.52000
v 2.60653 3.62990 -1.86000
v 3.53725 3.63990 -1.86000
v 2.59034 3.63990 4.65000
v 3.52105 3.62990 4.65000
v 2.60653 2.68990 -1.86000
v 3.53725 2.69990 -1.86000
v 2.59034 2.69990 3.72000
v 3.52105 2.68990 3.72000
v 3.50478 1.75990 3.72000
v 3.51291 11.56990 -6.52000
v 3.53725 10.16990 -4.65000
v 3.56979 8.30990 -7.45000
v 3.50478 2.69990 4.65000
v 3.50478 3.62990 6.52000
v 3.56979 6.45990 -5.59000
v 3.48858 4.56990 7.45000
v 3.56979 4.58990 -6.52000
v 3.50478 7.36990 6.52000
v 3.48858 6.43990 6.52000
v 3.50478 7.36990 7.45000
v 3.55352 3.64990 -4.65000
v 3.55352 2.70990 -1.86000
v 3.48851 8.29990 7.45000
v 3.48851 8.29990 8.38000
v 3.53733 11.08990 8.38000
v 3.55352 1.76990 -1.86000
v 2.55787 8.30990 8.38000
v 2.60661 11.09990 8.38000
v 2.55787 4.58990 7.45000
v 2.57406 7.38990 7.45000
v 2.57406 3.64990 6.52000
v 2.57406 7.38990 6.52000
v 2.55787 6.45990 6.52000
v 2.57406 2.70990 4.65000
v 2.57406 1.76990 3.72000
v 2.62280 2.69990 -1.86000
v 2.62280 1.75990 -1.86000
v 2.60653 10.15990 -4.65000
v 2.62280 3.62990 -4.65000
v 2.63908 6.43990 -5.59000
v 2.58220 11.54990 -6.52000
v 2.63908 4.56990 -6.52000
v -1.68101 8.24990 -3.88000
v 0.81270 8.74990 -5.05000
v -0.17561 7.12990 -4.36000
v -0.69269 9.86990 -4.57000
v -1.32707 8.37990 3.04000
v 1.16665 8.87990 4.22000
v 0.17833 7.25990 3.52000
v -0.33875 9.99990 3.73000
v 1.16663 8.87990 -4.25000
v -0.33876 9.99990 -3.77000
v 0.81272 8.74990 5.02000
v -0.69268 9.86990 4.54000
v 0.17831 7.25990 -3.55000
v -0.17559 7.12990 4.33000
v -1.68099 8.24990 3.85000
v -1.32708 8.37990 -3.07000
v -0.78677 10.99990 -4.47000
v -0.49451 11.48990 -4.68000
v -0.05236 10.45990 -4.71000
v 0.23989 10.93990 -4.91000
v -0.60414 11.06990 4.03000
v -0.31188 11.54990 4.23000
v 0.13027 10.52990 4.26000
v 0.42253 11.00990 4.47000
v -0.31189 11.54990 -4.26000
v 0.42251 11.00990 -4.50000
v -0.49450 11.48990 4.65000
v 0.23991 10.93990 4.88000
v 0.13026 10.52990 -4.29000
v -0.05235 10.45990 4.68000
v -0.78675 10.99990 4.44000
v -0.60415 11.06990 -4.06000
v -2.41080 8.00990 -4.35000
v -0.94626 6.42990 -4.74000
v -2.89483 7.47990 -4.05000
v -1.43029 5.90990 -4.44000
v -0.75929 10.15990 -4.87000
v 1.01029 9.01990 -5.46000
v -1.09305 9.50990 -4.62000
v 0.67654 8.36990 -5.21000
v -1.94646 7.82990 1.86000
v 0.00211 6.77990 2.54000
v -0.48192 6.24990 2.25000
v -1.46243 8.34990 2.15000
v -0.20723 10.35990 3.57000
v 1.56238 9.21990 4.17000
v -0.54100 9.70990 3.33000
v 1.22859 8.56990 3.92000
v -0.20721 10.35990 -3.60000
v 1.56238 9.21990 -4.20000
v 1.01027 9.01990 5.43000
v -0.75931 10.15990 4.83000
v 0.00210 6.77990 -2.58000
v -1.46243 8.34990 -2.19000
v -2.41080 8.00990 4.32000
v -0.94626 6.42990 4.71000
v -1.94646 7.82990 -1.89000
v -2.89483 7.47990 4.02000
v 1.22861 8.56990 -3.95000
v 0.67652 8.36990 5.18000
v -1.43029 5.90990 4.41000
v -1.09307 9.50990 4.58000
v -0.48193 6.24990 -2.28000
v -0.54097 9.70990 -3.36000
v 3.55352 9.23990 -7.45000
v 2.62280 9.22990 -7.45000
v 2.63900 8.29990 -7.45000
v 3.56971 8.30990 -7.45000
v 3.61845 5.51990 -6.52000
v 2.68774 5.49990 -6.52000
v 3.60226 6.44990 -6.52000
v 2.67154 6.43990 -6.52000
v 2.70401 4.56990 -6.52000
v 3.63473 4.58990 -6.52000
v 3.56971 8.30990 -5.59000
v 2.67154 6.43990 -5.59000
v 2.63900 8.29990 -5.59000
v 3.60226 6.44990 -5.59000
v 2.70401 4.56990 -4.65000
v 3.63473 4.58990 -4.65000
v 2.72029 3.63990 -4.65000
v 3.65100 3.65990 -4.65000
v 3.48858 8.29990 2.79000
v 2.52540 6.44990 2.79000
v 2.55787 8.30990 2.79000
v 3.45604 6.43990 2.79000
v 2.59034 10.16990 2.79000
v 3.52105 10.15990 2.79000
v 2.57406 9.23990 2.79000
v 3.50478 9.22990 2.79000
v 2.49285 4.58990 3.72000
v 3.42357 4.56990 3.72000
v 2.47666 3.65990 3.72000
v 3.40730 3.63990 3.72000
v 3.43984 5.49990 3.72000
v 2.50913 5.51990 3.72000
v 3.45604 6.43990 3.72000
v 2.52540 6.44990 3.72000
v 2.60653 10.15990 -2.79000
v 3.53725 10.16990 -2.79000
v 2.63900 8.29990 -2.79000
v 3.56971 8.30990 -2.79000
v 2.55787 8.30990 5.58000
v 3.48858 8.29990 5.58000
v 3.45612 6.43990 6.52000
v 3.45604 6.43990 5.58000
v 2.52540 6.44990 5.58000
v 2.52540 6.44990 6.52000
v 2.68774 5.49990 -3.72000
v 3.61845 5.51990 -3.72000
v 2.50913 5.51990 6.52000
v 3.43984 5.49990 6.52000
v 2.70401 4.56990 -3.72000
v 3.63473 4.58990 -3.72000
v 2.49285 4.58990 4.65000
v 3.42357 4.56990 4.65000
v 3.55352 9.23990 -2.79000
v 3.60226 6.44990 -3.72000
v 3.60226 6.44990 -2.79000
v 3.65100 3.65990 -3.72000
v 3.40730 3.63990 4.65000
v 3.42357 4.56990 6.52000
v 3.50478 9.22990 7.45000
v 3.48858 8.29990 7.45000
v 2.57406 9.23990 7.45000
v 2.49285 4.58990 6.52000
v 2.47666 3.65990 4.65000
v 2.62280 9.22990 -2.79000
v 2.67155 6.43990 -2.79000
v 2.67155 6.43990 -3.72000
v 2.72029 3.63990 -3.72000
v -2.69372 7.65990 -1.91000
v 1.13540 7.65990 -1.91000
v -2.69372 6.69990 -1.91000
v 1.13540 6.69990 -1.91000
v 1.13540 7.65990 1.91000
v -2.69372 7.65990 1.91000
v 1.13540 6.69990 1.91000
v -2.69372 6.69990 1.91000
v 2.55287 8.30990 3.72000
v 2.56906 9.23990 0.93000
v 2.55287 8.30990 0.93000
v 2.56906 9.23990 3.72000
v 2.53660 6.43990 0.93000
v 2.53660 6.43990 2.79000
v 2.56914 8.29990 0.93000
v 2.56914 8.29990 2.79000
v 2.55287 6.43990 3.72000
v 2.55287 6.43990 0.93000
v 2.53660 5.50990 3.72000
v 2.53660 5.50990 0.93000
v 2.52040 3.66990 3.72000
v 2.55255 5.50990 1.86000
v 2.52040 3.66990 1.86000
v 2.55255 5.50990 3.72000
v 2.63400 5.50990 -3.72000
v 2.66655 3.64990 -1.86000
v 2.63400 5.50990 -1.86000
v 2.66655 3.64990 -3.72000
v 2.65003 5.50990 -1.86000
v 2.65027 5.49990 -1.86000
v 2.65027 5.49990 -0.93000
v 2.63408 6.42990 -3.72000
v 2.63408 6.42990 -0.93000
v 2.65003 5.50990 -3.72000
v 2.61780 8.28990 -0.93000
v 2.61780 8.28990 -2.79000
v 2.65027 6.42990 -0.93000
v 2.65027 6.42990 -2.79000
v 2.61780 9.22990 -0.93000
v 2.61780 9.22990 -3.72000
v 2.63400 8.29990 -0.93000
v 2.63400 8.29990 -3.72000
v -2.69372 0.95990 -1.91000
v 1.13540 0.95990 -1.91000
v -2.69372 -0.00010 -1.91000
v 1.13540 -0.00010 -1.91000
v 1.13540 0.95990 1.91000
v -2.69372 0.95990 1.91000
v 1.13540 -0.00010 1.91000
v -2.69372 -0.00010 1.91000
v -3.17240 1.90990 -2.39000
v 1.61404 1.90990 -2.39000
v -3.17240 0.95990 -2.39000
v 1.61404 0.95990 -2.39000
v 1.61404 1.90990 2.39000
v -3.17240 1.90990 2.39000
v 1.61404 0.95990 2.39000
v -3.17240 0.95990 2.39000
v -3.65100 5.73990 -2.87000
v 2.09268 5.73990 -2.87000
v -3.65100 1.90990 -2.87000
v 2.09268 1.90990 -2.87000
v 2.09268 5.73990 2.87000
v -3.65100 5.73990 2.87000
v 2.09268 1.90990 2.87000
v -3.65100 1.90990 2.87000
v -3.17240 6.69990 -2.39000
v 1.61404 6.69990 -2.39000
v -3.17240 5.73990 -2.39000
v 1.61404 5.73990 -2.39000
v 1.61404 6.69990 2.39000
v -3.17240 6.69990 2.39000
v 1.61404 5.73990 2.39000
v -3.17240 5.73990 2.39000
vt 34.25340 -33.07430
vt 33.81560 -32.95080
vt 34.09130 -33.24880
vt 33.97770 -32.77630
vt 34.18440 -33.04920
vt 33.74660 -32.92570
vt 34.02230 -33.22370
vt 33.90870 -32.75120
vt 33.55500 -32.74660
vt 33.39750 -32.81560
vt 33.59820 -32.90870
vt 33.44070 -32.97770
vt 34.60250 -32.81560
vt 34.44510 -32.74660
vt 34.55940 -32.97770
vt 34.40180 -32.90870
vt 33.76650 -33.18440
vt 33.60910 -33.25340
vt 34.39100 -33.25340
vt 34.23350 -33.18440
vt 33.90870 -33.24880
vt 34.02230 -32.77630
vt 33.74660 -33.07430
vt 34.18440 -32.95080
vt 33.97770 -33.22370
vt 34.09130 -32.75120
vt 33.81560 -33.04920
vt 34.25340 -32.92570
vt 34.43420 -33.09130
vt 34.44500 -32.74660
vt 34.27670 -33.02230
vt 33.72320 -33.02230
vt 33.56580 -33.09130
vt 33.55490 -32.74660
vt 34.39090 -33.25340
vt 33.60900 -33.25340
vt 30.04900 -21.34960
vt 30.05310 -21.11690
vt 30.05110 -21.11890
vt 30.05110 -21.11690
vt 29.93680 -21.00050
vt 29.93670 -21.11690
vt 29.93270 -21.34760
vt 29.93470 -21.11680
vt 30.05310 -21.00250
vt 30.05510 -20.65240
vt 29.93880 -20.65040
vt 30.05310 -20.76880
vt 29.93680 -20.76680
vt 30.05510 -20.76980
vt 29.93880 -20.76780
vt 30.05110 -21.00250
vt 29.93470 -21.00040
vt 29.94690 -20.76880
vt 30.06320 -20.76680
vt 29.94490 -20.65240
vt 30.06120 -20.65040
vt 30.06120 -20.76780
vt 29.94490 -20.76980
vt 30.06530 -21.00040
vt 29.94890 -21.00250
vt 29.94890 -21.11890
vt 30.06530 -21.11680
vt 29.94690 -21.00250
vt 30.06320 -21.00050
vt 30.06730 -21.34760
vt 30.06330 -21.11690
vt 29.95100 -21.34960
vt 29.94690 -21.11690
vt 29.94890 -21.11690
vt 30.11640 -21.06120
vt 30.46540 -21.06120
vt 30.11640 -20.94490
vt 30.46540 -20.94490
vt 29.53470 -20.93880
vt 29.88360 -21.05510
vt 29.88360 -20.93880
vt 29.53470 -21.05510
vt 30.34900 -21.06120
vt 30.34900 -20.94490
vt 29.65100 -21.05510
vt 29.65100 -20.93880
vt 30.11640 -20.94690
vt 30.46540 -21.06320
vt 30.46540 -20.94690
vt 30.11640 -21.06320
vt 29.53460 -21.05310
vt 29.88360 -21.05310
vt 29.53460 -20.93680
vt 29.88360 -20.93680
vt 30.46540 -20.94890
vt 30.23270 -20.94690
vt 30.23270 -20.94890
vt 29.53460 -21.05110
vt 29.76740 -21.05310
vt 29.76740 -21.05110
vt 30.11640 -20.65040
vt 30.11640 -20.76680
vt 30.46530 -20.76680
vt 30.46530 -20.65040
vt 30.11640 -21.00040
vt 30.34900 -21.00040
vt 30.11640 -20.76780
vt 30.34900 -20.76780
vt 30.11640 -21.00050
vt 30.46540 -21.11680
vt 30.46540 -21.00050
vt 30.11640 -21.11680
vt 30.46540 -21.34760
vt 30.23260 -21.11690
vt 30.23260 -21.34760
vt 30.46540 -21.11690
vt 29.53460 -21.34960
vt 29.76730 -21.34960
vt 29.53460 -21.11690
vt 29.76730 -21.11690
vt 29.88360 -21.00250
vt 29.53460 -21.00250
vt 29.88360 -21.11890
vt 29.76730 -21.11890
vt 29.65100 -21.00250
vt 29.65100 -20.76980
vt 29.88360 -20.76980
vt 29.53460 -20.65240
vt 29.53460 -20.76880
vt 29.88360 -20.76880
vt 29.88360 -20.65240
vt 29.53460 -20.95100
vt 29.76730 -21.06730
vt 29.76730 -20.95100
vt 29.53460 -21.06730
vt 30.23260 -20.93270
vt 30.23260 -21.04900
vt 30.46540 -21.04900
vt 30.46540 -20.93270
vt 29.53460 -21.06530
vt 29.88360 -21.06530
vt 29.76730 -21.06330
vt 29.53460 -21.06330
vt 29.76730 -20.94890
vt 29.88360 -20.94890
vt 30.11640 -20.93470
vt 30.23260 -21.05110
vt 30.23260 -20.93670
vt 30.11640 -21.05110
vt 30.46540 -20.93470
vt 30.46540 -20.93670
vt 29.65100 -20.94890
vt 29.65100 -21.06530
vt 30.34900 -21.05110
vt 30.34900 -20.93470
vt 29.53460 -20.94690
vt 29.53460 -21.06320
vt 29.88360 -21.06320
vt 29.88360 -20.94690
vt 30.11640 -21.05310
vt 30.46530 -21.05310
vt 30.11640 -20.93680
vt 30.46530 -20.93680
vt 30.46540 -20.76680
vt 30.46540 -20.65040
vt 30.23270 -21.11690
vt 30.23270 -21.34760
vt 29.76740 -21.34960
vt 29.76740 -21.11690
vt 29.76740 -21.11890
vt 29.53470 -20.65240
vt 29.53470 -20.76880
vt 42.08660 -43.09250
vt 41.94550 -42.91910
vt 41.95200 -43.10710
vt 42.08010 -42.90460
vt 42.05450 -43.08090
vt 41.91340 -42.90740
vt 41.91990 -43.09540
vt 42.04800 -42.89290
vt 42.59000 -43.08010
vt 42.57340 -42.91340
vt 42.51680 -43.04800
vt 42.64660 -42.94550
vt 41.48320 -43.04800
vt 41.35340 -42.94550
vt 41.41000 -43.08010
vt 41.42660 -42.91340
vt 41.45940 -43.09540
vt 41.35340 -42.91910
vt 41.38620 -43.10710
vt 41.42660 -42.90740
vt 42.61380 -43.10710
vt 42.57340 -42.90740
vt 42.54060 -43.09540
vt 42.64660 -42.91910
vt 42.04800 -43.10710
vt 41.91990 -42.90460
vt 41.91340 -43.09250
vt 42.05450 -42.91910
vt 42.08010 -43.09540
vt 41.95200 -42.89290
vt 41.94550 -43.08090
vt 42.08660 -42.90740
vt 41.44280 -43.08660
vt 41.51600 -43.05450
vt 41.38620 -42.95200
vt 41.45940 -42.91990
vt 42.48400 -43.05450
vt 42.55720 -43.08660
vt 42.54060 -42.91990
vt 42.61380 -42.95200
vt 42.55720 -43.09250
vt 42.51680 -42.89290
vt 42.48400 -43.08090
vt 42.59000 -42.90460
vt 41.51600 -43.08090
vt 41.41000 -42.90460
vt 41.44280 -43.09250
vt 41.48320 -42.89290
vt 27.94490 -60.35750
vt 28.06020 -60.41770
vt 28.06120 -60.35960
vt 28.05920 -60.47590
vt 27.94390 -60.41570
vt 27.94280 -60.47390
vt 28.05720 -60.59220
vt 27.94080 -60.59020
vt 28.05310 -60.82490
vt 27.93680 -60.82290
vt 27.93880 -60.93820
vt 28.05510 -60.94030
vt 27.94080 -60.82300
vt 28.05720 -60.82390
vt 28.05310 -60.82390
vt 27.93680 -61.28830
vt 28.05310 -61.29030
vt 27.94080 -61.05560
vt 28.05720 -61.05770
vt 27.93680 -61.05460
vt 28.05310 -61.05660
vt 27.93880 -61.40570
vt 28.05510 -61.40770
vt 27.94080 -61.28940
vt 28.05720 -61.29140
vt 27.93880 -61.52310
vt 28.05510 -61.52510
vt 27.94080 -61.40670
vt 28.05720 -61.40880
vt 28.05720 -61.52610
vt 27.94080 -61.52410
vt 28.05510 -61.64250
vt 27.93880 -61.64040
vt 27.94490 -61.64250
vt 28.06120 -61.64040
vt 27.94280 -61.52610
vt 28.05920 -61.52410
vt 28.05920 -61.40670
vt 27.94280 -61.40880
vt 28.06120 -61.52310
vt 27.94490 -61.52510
vt 28.05920 -61.28940
vt 27.94280 -61.29140
vt 28.06120 -61.40570
vt 27.94490 -61.40770
vt 27.94080 -60.47590
vt 28.05920 -60.59020
vt 28.05720 -60.47390
vt 27.94280 -60.59220
vt 27.94690 -61.05660
vt 28.06320 -61.05460
vt 27.94280 -60.82390
vt 28.05920 -60.82190
vt 27.94690 -61.29030
vt 28.06320 -61.28830
vt 27.94280 -61.05770
vt 28.05920 -61.05560
vt 27.93880 -60.35960
vt 28.05510 -60.35750
vt 27.94690 -60.82390
vt 28.06320 -60.82290
vt 28.05920 -60.82290
vt 26.98180 -60.95940
vt 27.18550 -60.95940
vt 27.18550 -60.94490
vt 26.95280 -60.94490
vt 27.08370 -61.01030
vt 27.18550 -61.06120
vt 26.98180 -61.06120
vt 26.95280 -61.06120
vt 28.81440 -61.05510
vt 29.04720 -61.05510
vt 28.81440 -60.93880
vt 29.04720 -60.93880
vt 27.18550 -60.94290
vt 27.41820 -61.05920
vt 27.41820 -60.94280
vt 27.18550 -61.05920
vt 28.81440 -61.05720
vt 28.58170 -60.94080
vt 28.58170 -61.05720
vt 28.81440 -60.94080
vt 26.95280 -60.94080
vt 27.06920 -61.05720
vt 27.06920 -60.94080
vt 26.95280 -61.05720
vt 28.93080 -60.94280
vt 29.04720 -61.05920
vt 29.04720 -60.94280
vt 28.93080 -61.05920
vt 27.18550 -61.05720
vt 27.18550 -60.94080
vt 27.06920 -61.05310
vt 27.30180 -61.05720
vt 27.30180 -60.94080
vt 28.69810 -60.94280
vt 28.81440 -61.05920
vt 28.81440 -60.94280
vt 28.69810 -61.05920
vt 28.93080 -60.94690
vt 27.41820 -61.05720
vt 27.41820 -60.94080
vt 28.58170 -60.94280
vt 28.58170 -61.05920
vt 27.76730 -61.05720
vt 27.76730 -60.94080
vt 28.23270 -61.05920
vt 28.23270 -60.94280
vt 27.53460 -60.94080
vt 27.53460 -61.05720
vt 28.46530 -61.05920
vt 28.46530 -60.94280
vt 27.53470 -61.52610
vt 27.53470 -61.64250
vt 27.76730 -61.64250
vt 27.76730 -61.52610
vt 29.04720 -60.47390
vt 29.04720 -60.41570
vt 28.81450 -60.41570
vt 28.81450 -60.35750
vt 29.04720 -60.35750
vt 28.81450 -60.47390
vt 29.04720 -60.59020
vt 28.58180 -60.47390
vt 28.58180 -60.59020
vt 28.93080 -60.59020
vt 29.04720 -60.82290
vt 28.93080 -60.82290
vt 27.76730 -61.40880
vt 27.41830 -61.40880
vt 27.76730 -61.52510
vt 27.41830 -61.52510
vt 27.18560 -61.29140
vt 27.18560 -61.40770
vt 27.41830 -61.40770
vt 27.41830 -61.29140
vt 28.81450 -60.82190
vt 28.93080 -60.93820
vt 28.93080 -60.82300
vt 28.93080 -60.82190
vt 28.81450 -60.93820
vt 28.69820 -60.82190
vt 28.81450 -61.05460
vt 28.69820 -61.05460
vt 27.06920 -61.05770
vt 27.06920 -61.29030
vt 27.18560 -61.29030
vt 27.18560 -61.05770
vt 28.93080 -61.05560
vt 28.81450 -61.05560
vt 28.93080 -61.28830
vt 28.81450 -61.28830
vt 27.18560 -60.94030
vt 27.30190 -61.05660
vt 27.18560 -60.82390
vt 27.30190 -60.82390
vt 27.18560 -61.05660
vt 27.06920 -60.82390
vt 27.06920 -60.94030
vt 28.58180 -61.28940
vt 28.81450 -61.40570
vt 28.81450 -61.28940
vt 28.58180 -61.40570
vt 28.58180 -61.40670
vt 28.23270 -61.40670
vt 28.58180 -61.52310
vt 28.23270 -61.52310
vt 27.06920 -60.82490
vt 26.95280 -60.59220
vt 26.95280 -60.82490
vt 27.06920 -60.59220
vt 27.18560 -60.47590
vt 26.95280 -60.47590
vt 26.95280 -60.35960
vt 27.18560 -60.35960
vt 27.41830 -60.59220
vt 27.41830 -60.47590
vt 28.23270 -61.52410
vt 28.23270 -61.64040
vt 28.46540 -61.64040
vt 28.46540 -61.52410
vt 27.94080 -60.82290
vt 28.05710 -60.47390
vt 28.04060 -60.35780
vt 27.93980 -60.41770
vt 28.05610 -60.41570
vt 28.05920 -60.82300
vt 28.23270 -60.93880
vt 28.46540 -61.05510
vt 28.46540 -60.93880
vt 28.23270 -61.05510
vt 27.53470 -60.94490
vt 27.76730 -61.06120
vt 27.76730 -60.94490
vt 27.53470 -61.06120
vt 28.58180 -61.05510
vt 28.58180 -60.93880
vt 27.41830 -60.94490
vt 27.41830 -61.06120
vt 28.81450 -61.05510
vt 28.81450 -60.93880
vt 27.18560 -60.94490
vt 27.18560 -61.06120
vt 28.81450 -60.93680
vt 28.93080 -61.05310
vt 28.93080 -60.93680
vt 28.81450 -61.05310
vt 27.06920 -60.94690
vt 27.18560 -61.06320
vt 27.18560 -60.94690
vt 27.06920 -61.06320
vt 28.69820 -60.93680
vt 28.69820 -61.05310
vt 27.30190 -61.06320
vt 27.30190 -60.94690
vt 28.93080 -61.05510
vt 28.93080 -60.93880
vt 27.06920 -60.94490
vt 27.06920 -61.06120
vt 29.04720 -61.05310
vt 29.04720 -60.93680
vt 28.93080 -60.94080
vt 26.95280 -60.94690
vt 27.06920 -61.05920
vt 26.95280 -61.06320
vt 28.58180 -61.05720
vt 29.04720 -61.05720
vt 28.58180 -60.94080
vt 29.04720 -60.94080
vt 26.95280 -60.94280
vt 27.41830 -61.05920
vt 27.41830 -60.94280
vt 26.95280 -61.05920
vt 27.53460 -61.52610
vt 27.53460 -61.64250
vt 27.41820 -61.40880
vt 27.41820 -61.52510
vt 28.81440 -60.47390
vt 28.81440 -60.35750
vt 28.58170 -60.47390
vt 28.58170 -60.59020
vt 27.41820 -61.29140
vt 27.18550 -61.29140
vt 27.41820 -61.40770
vt 27.18550 -61.40770
vt 28.69810 -60.82190
vt 28.81440 -61.05460
vt 28.81440 -60.93820
vt 28.69810 -61.05460
vt 28.81440 -60.82190
vt 27.18550 -61.29030
vt 27.18550 -61.05770
vt 28.81440 -61.05560
vt 28.81440 -61.28830
vt 27.18550 -60.94030
vt 27.18550 -60.82390
vt 27.30180 -61.05660
vt 27.30180 -60.82390
vt 27.18550 -61.05660
vt 28.81440 -61.28940
vt 28.58170 -61.28940
vt 28.81440 -61.40570
vt 28.58170 -61.40570
vt 26.98180 -60.35960
vt 26.95280 -60.41770
vt 27.18550 -60.35960
vt 27.18550 -60.41770
vt 27.18550 -60.47590
vt 27.41820 -60.59220
vt 27.41820 -60.47590
vt 28.58170 -61.52310
vt 28.58170 -61.40670
vt 28.46530 -61.64040
vt 28.46530 -61.52410
vt 40.17800 -47.03970
vt 39.86630 -46.97640
vt 39.98980 -47.17970
vt 40.05440 -46.83640
vt 40.13370 -47.02360
vt 39.82200 -46.96030
vt 39.94560 -47.16360
vt 40.01020 -46.82030
vt 39.47100 -46.82200
vt 39.37010 -46.86630
vt 39.53110 -47.01020
vt 39.43020 -47.05440
vt 40.62990 -46.86630
vt 40.52890 -46.82200
vt 40.56980 -47.05440
vt 40.46880 -47.01020
vt 40.54340 -47.17970
vt 40.52900 -46.96030
vt 40.44240 -47.16360
vt 40.62990 -46.97640
vt 39.55770 -47.16360
vt 39.37010 -46.97640
vt 39.45660 -47.17970
vt 39.47110 -46.96030
vt 40.01020 -47.17970
vt 39.94560 -46.83640
vt 39.82200 -47.03970
vt 40.13370 -46.97640
vt 40.05440 -47.16360
vt 39.98980 -46.82030
vt 39.86630 -47.02360
vt 40.17800 -46.96030
vt 39.45660 -46.98980
vt 39.61780 -47.13370
vt 39.55770 -46.94560
vt 39.51680 -47.17800
vt 40.44240 -46.94560
vt 40.48320 -47.17800
vt 40.54340 -46.98980
vt 40.38230 -47.13370
vt 40.48320 -47.03970
vt 40.46880 -46.82030
vt 40.38220 -47.02360
vt 40.56980 -46.83640
vt 39.61770 -47.02360
vt 39.43020 -46.83640
vt 39.51680 -47.03970
vt 39.53110 -46.82030
vt 16.07560 -23.00010
vt 16.03900 -22.94000
vt 15.98380 -23.06830
vt 15.94720 -23.00820
vt 16.05280 -22.99180
vt 16.01620 -22.93160
vt 15.96100 -23.06000
vt 15.92440 -22.99990
vt 15.41700 -23.03900
vt 15.46900 -23.01620
vt 15.38760 -22.94720
vt 15.43970 -22.92440
vt 16.56020 -22.92440
vt 16.58290 -23.03900
vt 16.61240 -22.94720
vt 16.53090 -23.01620
vt 16.53470 -23.06000
vt 16.58680 -23.06830
vt 16.56030 -22.99990
vt 16.61240 -23.00820
vt 15.41330 -23.06830
vt 15.46530 -23.06000
vt 15.38760 -23.00820
vt 15.43980 -22.99990
vt 16.05280 -23.00820
vt 15.92440 -23.00010
vt 16.01620 -23.06830
vt 15.96100 -22.94000
vt 16.07560 -22.99990
vt 15.94720 -22.99180
vt 16.03900 -23.06000
vt 15.98380 -22.93160
vt 16.53470 -22.96100
vt 16.55740 -23.07560
vt 16.58680 -22.98380
vt 16.50540 -23.05280
vt 15.44260 -23.07560
vt 15.49470 -23.05280
vt 15.41330 -22.98380
vt 15.46530 -22.96100
vt 15.49460 -22.99180
vt 15.41700 -22.94000
vt 15.44260 -23.00010
vt 15.46900 -22.93160
vt 16.55740 -23.00010
vt 16.53090 -22.93160
vt 16.50530 -22.99180
vt 16.58290 -22.94000
vt 34.21810 -47.01590
vt 34.03500 -47.21280
vt 34.27860 -47.08130
vt 34.09550 -47.27820
vt 34.01160 -46.74690
vt 33.79040 -46.88920
vt 34.05340 -46.82810
vt 33.83220 -46.97030
vt 34.16000 -47.03810
vt 33.91650 -47.16970
vt 33.97700 -47.23510
vt 34.09950 -46.97270
vt 33.94260 -46.72180
vt 33.72140 -46.86410
vt 33.98430 -46.80290
vt 33.76310 -46.94520
vt 33.55130 -46.94260
vt 33.31950 -46.79040
vt 33.39370 -47.01160
vt 33.47700 -46.72140
vt 34.68050 -46.79040
vt 34.52290 -46.72140
vt 34.60620 -47.01160
vt 34.44870 -46.94260
vt 33.68000 -46.91650
vt 33.40950 -47.03500
vt 33.72880 -47.09950
vt 33.45820 -47.21810
vt 34.54170 -47.21810
vt 34.32000 -46.91650
vt 34.27110 -47.09950
vt 34.59050 -47.03500
vt 33.76580 -47.16000
vt 33.49520 -47.27860
vt 34.50480 -47.27860
vt 34.23420 -47.16000
vt 34.68050 -46.88920
vt 34.52300 -46.86410
vt 34.64930 -46.97030
vt 34.49180 -46.94520
vt 33.47710 -46.86410
vt 33.31950 -46.88920
vt 33.50830 -46.94520
vt 33.35070 -46.97030
vt 33.96500 -47.21280
vt 33.78190 -47.01590
vt 33.90450 -47.27820
vt 33.72140 -47.08130
vt 34.16780 -46.97030
vt 33.98840 -46.74690
vt 33.94660 -46.82810
vt 34.20960 -46.88920
vt 34.08350 -47.16970
vt 33.90050 -46.97270
vt 34.02300 -47.23510
vt 33.84000 -47.03810
vt 34.27860 -46.86410
vt 34.05740 -46.72180
vt 34.23690 -46.94520
vt 34.01570 -46.80290
vt 33.71700 -46.97700
vt 33.44650 -47.09550
vt 34.55360 -47.09550
vt 34.28310 -46.97700
vt 34.41750 -46.98430
vt 34.57510 -47.05340
vt 34.49180 -46.76310
vt 34.64930 -46.83220
vt 33.35070 -46.83220
vt 33.58250 -46.98430
vt 33.50830 -46.76310
vt 33.42500 -47.05340
vt 33.55130 -46.72180
vt 33.39370 -46.74690
vt 33.58250 -46.80290
vt 33.42490 -46.82810
vt 34.57500 -46.82810
vt 34.44870 -46.72180
vt 34.41750 -46.80290
vt 34.60620 -46.74690
vt 23.93880 -12.70810
vt 24.05510 -12.71020
vt 23.94080 -12.59180
vt 24.05720 -12.59380
vt 24.05310 -12.82650
vt 23.93680 -12.82450
vt 23.93070 -13.17350
vt 24.04700 -13.17550
vt 23.93270 -13.05710
vt 24.04900 -13.05920
vt 24.04500 -13.29190
vt 23.92860 -13.28980
vt 24.04290 -13.40820
vt 23.92660 -13.40620
vt 23.94690 -12.82650
vt 24.06730 -13.05710
vt 24.06320 -12.82450
vt 23.95100 -13.05920
vt 24.05920 -12.59180
vt 23.94280 -12.59380
vt 24.06120 -12.70810
vt 23.94490 -12.71020
vt 24.07140 -13.28980
vt 23.95500 -13.29190
vt 24.07340 -13.40620
vt 23.95710 -13.40820
vt 23.95300 -13.17550
vt 24.06930 -13.17350
vt 23.06920 -13.05720
vt 23.65090 -13.05720
vt 23.06920 -12.94080
vt 23.65090 -12.94080
vt 24.34910 -12.94280
vt 24.93080 -13.05920
vt 24.93080 -12.94280
vt 24.34910 -13.05920
vt 23.30180 -12.93680
vt 23.65090 -13.05310
vt 23.65090 -12.93680
vt 23.30180 -13.05310
vt 24.34910 -12.94690
vt 24.69810 -13.06320
vt 24.69810 -12.94690
vt 24.34910 -13.06320
vt 23.18550 -13.04900
vt 23.30180 -13.04900
vt 23.30180 -12.93270
vt 23.18550 -12.93270
vt 24.81440 -12.95100
vt 24.69810 -12.95100
vt 24.69810 -13.06730
vt 24.81440 -13.06730
vt 23.18550 -12.93070
vt 23.53460 -13.04700
vt 23.53460 -12.93070
vt 23.18550 -13.04700
vt 24.46540 -13.06930
vt 24.81440 -13.06930
vt 24.46540 -12.95300
vt 24.81440 -12.95300
vt 23.41820 -13.04500
vt 23.53460 -13.04500
vt 23.41820 -12.92860
vt 23.53460 -12.92860
vt 24.46540 -13.07140
vt 24.58170 -13.07140
vt 24.46540 -12.95500
vt 24.58170 -12.95500
vt 24.34910 -12.59180
vt 24.46540 -12.70810
vt 24.93080 -12.70810
vt 24.93080 -12.59180
vt 24.34910 -12.70810
vt 24.93080 -12.82450
vt 24.46540 -12.82450
vt 24.46540 -13.05710
vt 24.34910 -12.82450
vt 24.34910 -13.05710
vt 24.69820 -13.05710
vt 24.69820 -12.82450
vt 24.81450 -13.17350
vt 24.81450 -13.05710
vt 24.46540 -13.17350
vt 24.81450 -13.28980
vt 24.46540 -13.28980
vt 24.58180 -13.28980
vt 24.58180 -13.40620
vt 24.46540 -13.40620
vt 23.41830 -13.29190
vt 23.41830 -13.40820
vt 23.53460 -13.40820
vt 23.53460 -13.29190
vt 23.53460 -13.17550
vt 23.18560 -13.17550
vt 23.18560 -13.29190
vt 23.18560 -13.05920
vt 23.30190 -13.05920
vt 23.53460 -13.05920
vt 23.30190 -12.82650
vt 23.65090 -13.05920
vt 23.65090 -12.82650
vt 23.06920 -12.71020
vt 23.53470 -12.82650
vt 23.53470 -12.71020
vt 23.06920 -12.82650
vt 23.06920 -12.59380
vt 23.65090 -12.71020
vt 23.65090 -12.59380
vt 24.46540 -12.92660
vt 24.46540 -13.04290
vt 24.58180 -13.04290
vt 24.58180 -12.92660
vt 23.53460 -13.07340
vt 23.41830 -12.95710
vt 23.41830 -13.07340
vt 23.53460 -12.95710
vt 24.46540 -12.92860
vt 24.81450 -13.04500
vt 24.81450 -12.92860
vt 24.46540 -13.04500
vt 23.18560 -12.95500
vt 23.18560 -13.07140
vt 23.53460 -13.07140
vt 23.53460 -12.95500
vt 24.46540 -12.93070
vt 24.46540 -13.04700
vt 24.81450 -13.04700
vt 24.81450 -12.93070
vt 23.18560 -12.95300
vt 23.53460 -13.06930
vt 23.53460 -12.95300
vt 23.18560 -13.06930
vt 24.34910 -13.04900
vt 24.46540 -13.04900
vt 24.34910 -12.93270
vt 24.46540 -12.93270
vt 23.65090 -12.95100
vt 23.53460 -12.95100
vt 23.65090 -13.06730
vt 23.53460 -13.06730
vt 24.46540 -12.93680
vt 24.46540 -13.05310
vt 24.93080 -13.05310
vt 24.93080 -12.93680
vt 23.06920 -12.94690
vt 23.53470 -13.06320
vt 23.53470 -12.94690
vt 23.06920 -13.06320
vt 24.46540 -12.93880
vt 24.34910 -12.93880
vt 24.46540 -13.05510
vt 24.34910 -13.05510
vt 23.53470 -13.06120
vt 23.65090 -13.06120
vt 23.53470 -12.94490
vt 23.65090 -12.94490
vt 24.58170 -13.40620
vt 24.58170 -13.28980
vt 24.81440 -13.28980
vt 24.81440 -13.17350
vt 24.69810 -13.05710
vt 24.81440 -13.05710
vt 24.69810 -12.82450
vt 24.46530 -12.70810
vt 24.46530 -12.82450
vt 23.53460 -12.71020
vt 23.53460 -12.82650
vt 23.30180 -12.82650
vt 23.30180 -13.05920
vt 23.18550 -13.05920
vt 23.18550 -13.17550
vt 23.18550 -13.29190
vt 23.41820 -13.29190
vt 23.41820 -13.40820
vt 1.97864 -2.00000
vt 1.50000 -2.00000
vt 1.97864 -2.11966
vt 1.50000 -2.11966
vt 1.97864 -2.47864
vt 1.50000 -2.47864
vt 1.00000 0.83360
vt 0.62503 1.00000
vt 0.62503 0.83360
vt 1.00000 1.00000
vt 0.62503 0.49936
vt 0.87497 0.49936
vt 0.62503 0.83215
vt 0.87497 0.83215
vt 1.00000 0.49930
vt 0.62503 0.49930
vt 1.00000 0.33290
vt 0.62503 0.33290
vt 1.00000 0.00291
vt 0.75006 0.33286
vt 0.75005 0.00291
vt 1.00000 0.33286
vt 0.00000 0.33279
vt 0.25005 -0.00000
vt 0.25005 0.33279
vt 0.00000 -0.00000
vt 0.25005 0.33285
vt 0.25006 0.33001
vt 0.37497 0.33001
vt 0.00000 0.49639
vt 0.37497 0.49639
vt 0.00000 0.33285
vt 0.37497 0.82924
vt 0.12503 0.82924
vt 0.37497 0.49645
vt 0.12503 0.49645
vt 0.37497 0.99710
vt 0.00011 0.99710
vt 0.37497 0.83071
vt 0.00011 0.83071
vt 3.72864 -4.25000
vt 3.25000 -4.25000
vt 3.72864 -4.36966
vt 3.25000 -4.36966
vt 3.72864 -4.72864
vt 3.25000 -4.72864
vt 5.34830 -4.50000
vt 4.75000 -4.50000
vt 5.34830 -4.61966
vt 4.75000 -4.61966
vt 5.34830 -5.09830
vt 4.75000 -5.09830
vt 6.71796 -4.00000
vt 6.00000 -4.00000
vt 6.71796 -4.47864
vt 6.00000 -4.47864
vt 6.71796 -4.71796
vt 6.00000 -4.71796
vt 2.59830 0.00000
vt 2.00000 0.00000
vt 2.59830 -0.11966
vt 2.00000 -0.11966
vt 2.59830 -0.59830
vt 2.00000 -0.59830
vn -0.3937 -0.1417 -0.9055
vn 0.3937 0.1417 -0.9055
vn 0.6299 0.6772 -0.3858
vn 0.6299 0.6772 0.3858
vn -0.6693 0.7244 0.1811
vn -0.6693 0.7244 -0.1811
vn -0.3937 -0.1417 0.9055
vn 0.3937 0.1417 0.9055
vn 0.6693 -0.7244 -0.1811
vn 0.6693 -0.7244 0.1811
vn -0.6299 -0.6772 0.3858
vn -0.6299 -0.6772 -0.3858
vn 0.0000 0.0000 -1.0000
vn 0.0157 1.0000 0.0000
vn -0.0157 1.0000 0.0000
vn 1.0000 0.0157 0.0000
vn 1.0000 -0.0157 0.0000
vn 0.0000 0.0000 1.0000
vn -0.0157 -1.0000 0.0000
vn 0.0157 -1.0000 0.0000
vn -1.0000 0.0157 0.0000
vn -1.0000 -0.0157 0.0000
vn 0.0315 0.9843 0.1732
vn 0.0315 0.9843 -0.1732
vn 0.9134 -0.1024 0.3858
vn 0.9134 -0.1024 -0.3858
vn -0.0315 -0.9843 -0.1732
vn -0.0315 -0.9843 0.1732
vn -0.9134 0.1024 -0.3858
vn -0.9134 0.1024 0.3858
vn 0.4882 0.8032 -0.3386
vn 0.4882 0.8032 0.3386
vn 0.7795 -0.5748 -0.2520
vn 0.7795 -0.5748 0.2520
vn -0.4882 -0.8032 -0.3386
vn -0.4882 -0.8032 0.3386
vn -0.7795 0.5748 -0.2520
vn -0.7795 0.5748 0.2520
vn 0.4331 0.8425 -0.3228
vn 0.4331 0.8425 0.3228
vn 0.8110 -0.5197 -0.2756
vn 0.8110 -0.5197 0.2756
vn -0.4331 -0.8425 0.3228
vn -0.4331 -0.8425 -0.3228
vn -0.8110 0.5197 0.2756
vn -0.8110 0.5197 -0.2756
vn 0.0000 1.0000 0.0000
vn 1.0000 0.0000 0.0000
vn 0.0000 -1.0000 0.0000
vn -1.0000 0.0000 0.0000

o E1U
usemtl c_7a3f0b
f 1/1/1 2/2/1 3/3/1
f 4/4/1 2/2/1 1/1/1
f 5/5/2 6/6/2 7/7/2
f 8/8/2 6/6/2 5/5/2
f 9/9/3 2/10/3 10/11/3
f 10/11/3 2/10/3 4/12/3
f 11/13/4 6/14/4 12/15/4
f 12/15/4 6/14/4 8/16/4
f 13/17/5 4/12/5 1/18/5
f 10/11/5 4/12/5 13/17/5
f 14/19/6 8/16/6 5/20/6
f 12/15/6 8/16/6 14/19/6
f 15/21/7 12/22/7 14/23/7
f 11/24/7 12/22/7 15/21/7
f 16/25/8 10/26/8 13/27/8
f 9/28/8 10/26/8 16/25/8
f 3/29/9 9/30/9 16/31/9
f 2/13/9 9/30/9 3/29/9
f 7/32/10 11/10/10 15/33/10
f 6/34/10 11/10/10 7/32/10
f 13/20/11 1/35/11 16/31/11
f 16/31/11 1/35/11 3/29/11
f 15/33/12 5/17/12 7/32/12
f 14/36/12 5/17/12 15/33/12
f 17/37/13 18/38/13 19/39/13
f 18/38/13 20/40/13 19/39/13
f 21/41/13 19/39/13 20/40/13
f 22/42/13 19/39/13 21/41/13
f 19/39/13 22/42/13 17/37/13
f 17/37/13 22/42/13 23/43/13
f 22/42/13 21/41/13 24/44/13
f 25/45/13 21/41/13 20/40/13
f 26/46/13 27/47/13 28/48/13
f 29/49/13 28/48/13 27/47/13
f 30/50/13 31/51/13 32/52/13
f 33/53/13 32/52/13 31/51/13
f 34/54/13 35/55/13 36/56/13
f 37/57/13 36/56/13 35/55/13
f 38/58/13 39/59/13 40/60/13
f 41/61/13 40/60/13 39/59/13
f 42/62/13 43/63/13 44/64/13
f 45/65/13 44/64/13 43/63/13
f 46/66/13 47/67/13 48/62/13
f 49/68/13 46/66/13 50/69/13
f 50/69/13 46/66/13 48/62/13
f 48/62/13 51/70/13 50/69/13
f 37/71/14 52/72/14 36/73/14
f 36/73/14 52/72/14 53/74/14
f 27/75/15 54/76/15 55/77/15
f 26/78/15 54/76/15 27/75/15
f 38/71/14 56/79/14 39/73/14
f 39/73/14 56/79/14 57/80/14
f 30/81/15 58/76/15 31/82/15
f 31/82/15 58/76/15 59/77/15
f 44/83/14 60/84/14 61/85/14
f 45/86/14 60/84/14 44/83/14
f 25/87/15 62/88/15 21/89/15
f 21/89/15 62/88/15 63/90/15
f 64/91/14 50/92/14 51/93/14
f 50/92/14 64/91/14 65/85/14
f 20/94/15 66/95/15 67/96/15
f 66/95/15 20/94/15 18/87/15
f 55/97/16 68/98/16 29/99/16
f 27/100/16 55/97/16 29/99/16
f 69/101/16 33/102/16 59/103/16
f 31/104/16 59/103/16 33/102/16
f 63/105/16 24/106/16 21/107/16
f 63/105/16 70/108/16 24/106/16
f 23/109/16 71/110/16 72/111/16
f 71/110/16 23/109/16 22/112/16
f 73/113/17 49/114/17 65/115/17
f 50/116/17 65/115/17 49/114/17
f 44/117/17 61/118/17 42/119/17
f 51/116/17 42/119/17 61/118/17
f 51/116/17 48/120/17 42/119/17
f 51/116/17 61/118/17 64/115/17
f 74/121/17 41/117/17 57/122/17
f 39/123/17 57/122/17 41/117/17
f 53/124/17 75/125/17 34/126/17
f 36/127/17 53/124/17 34/126/17
f 52/47/18 76/49/18 75/48/18
f 52/47/18 75/48/18 53/46/18
f 60/41/18 77/39/18 64/40/18
f 60/41/18 64/40/18 61/45/18
f 60/41/18 78/42/18 77/39/18
f 78/42/18 60/41/18 79/44/18
f 77/39/18 78/42/18 73/37/18
f 73/37/18 78/42/18 80/43/18
f 73/37/18 65/38/18 77/39/18
f 65/38/18 64/40/18 77/39/18
f 56/51/18 74/52/18 57/50/18
f 81/53/18 74/52/18 56/51/18
f 62/64/18 70/63/18 63/65/18
f 82/62/18 70/63/18 62/64/18
f 83/61/18 69/60/18 58/59/18
f 58/59/18 69/60/18 59/58/18
f 54/56/18 68/55/18 55/57/18
f 54/56/18 84/54/18 68/55/18
f 85/68/18 72/66/18 66/69/18
f 66/69/18 72/66/18 86/62/18
f 72/66/18 71/67/18 86/62/18
f 86/62/18 67/70/18 66/69/18
f 73/128/19 46/129/19 49/130/19
f 46/129/19 73/128/19 80/131/19
f 72/132/20 85/133/20 17/134/20
f 72/132/20 17/134/20 23/135/20
f 79/136/19 43/137/19 47/138/19
f 47/138/19 78/139/19 79/136/19
f 43/137/19 48/140/19 47/138/19
f 42/141/19 48/140/19 43/137/19
f 70/142/20 86/143/20 71/144/20
f 86/143/20 70/142/20 82/145/20
f 24/146/20 70/142/20 71/144/20
f 71/144/20 22/147/20 24/146/20
f 74/148/19 40/137/19 41/141/19
f 40/137/19 74/148/19 81/149/19
f 83/145/20 32/150/20 69/142/20
f 69/142/20 32/150/20 33/151/20
f 75/152/19 76/153/19 35/154/19
f 75/152/19 35/154/19 34/155/19
f 84/156/20 28/157/20 68/158/20
f 68/158/20 28/157/20 29/159/20
f 76/160/21 37/97/21 35/98/21
f 37/97/21 76/160/21 52/161/21
f 40/101/21 81/102/21 38/103/21
f 56/104/21 38/103/21 81/102/21
f 60/107/21 45/105/21 79/106/21
f 79/106/21 45/105/21 43/108/21
f 80/109/21 47/162/21 46/163/21
f 47/162/21 80/109/21 78/112/21
f 18/115/22 85/164/22 66/165/22
f 85/164/22 18/115/22 17/113/22
f 67/165/22 86/166/22 82/119/22
f 67/165/22 82/119/22 25/118/22
f 62/117/22 25/118/22 82/119/22
f 67/165/22 25/118/22 20/115/22
f 58/123/22 30/122/22 83/117/22
f 32/121/22 83/117/22 30/122/22
f 54/127/22 26/167/22 84/126/22
f 28/168/22 84/126/22 26/167/22
usemtl c_ff6300
f 87/169/1 88/170/1 89/171/1
f 90/172/1 88/170/1 87/169/1
f 91/173/2 92/174/2 93/175/2
f 94/176/2 92/174/2 91/173/2
f 95/177/23 92/178/23 94/179/23
f 96/180/23 92/178/23 95/177/23
f 97/181/24 88/182/24 90/183/24
f 98/184/24 88/182/24 97/181/24
f 93/185/25 96/186/25 99/187/25
f 92/188/25 96/186/25 93/185/25
f 89/189/26 98/190/26 100/191/26
f 88/192/26 98/190/26 89/189/26
f 99/193/7 95/194/7 101/195/7
f 96/196/7 95/194/7 99/193/7
f 100/197/8 97/198/8 102/199/8
f 98/200/8 97/198/8 100/197/8
f 101/201/27 91/202/27 99/203/27
f 99/203/27 91/202/27 93/204/27
f 102/205/28 87/206/28 100/207/28
f 100/207/28 87/206/28 89/208/28
f 101/209/29 94/210/29 91/211/29
f 95/212/29 94/210/29 101/209/29
f 102/213/30 90/214/30 87/215/30
f 97/216/30 90/214/30 102/213/30
f 103/217/13 104/218/13 105/219/13
f 106/220/13 104/218/13 103/217/13
f 107/221/13 106/220/13 103/217/13
f 108/222/13 106/220/13 107/221/13
f 108/222/13 109/223/13 106/220/13
f 109/223/13 108/222/13 110/224/13
f 109/223/13 110/224/13 111/225/13
f 112/226/13 111/225/13 110/224/13
f 113/227/13 114/228/13 115/229/13
f 114/228/13 116/225/13 115/229/13
f 114/228/13 117/230/13 118/231/13
f 114/228/13 118/231/13 116/225/13
f 119/232/13 120/233/13 121/234/13
f 122/235/13 121/234/13 120/233/13
f 123/228/13 124/227/13 125/236/13
f 126/237/13 123/228/13 125/236/13
f 127/238/13 128/239/13 129/240/13
f 130/241/13 129/240/13 128/239/13
f 131/242/13 132/243/13 133/244/13
f 134/245/13 133/244/13 132/243/13
f 135/246/13 136/247/13 137/248/13
f 138/249/13 137/248/13 136/247/13
f 139/250/13 140/251/13 141/252/13
f 142/253/13 141/252/13 140/251/13
f 143/254/13 144/255/13 145/256/13
f 146/257/13 145/256/13 144/255/13
f 147/258/13 148/259/13 149/260/13
f 150/261/13 149/260/13 148/259/13
f 151/262/13 152/263/13 153/264/13
f 154/265/13 152/263/13 151/262/13
f 155/266/13 156/267/13 157/268/13
f 158/269/13 157/268/13 156/267/13
f 159/270/13 160/271/13 161/272/13
f 162/273/13 161/272/13 160/271/13
f 163/274/13 164/264/13 165/275/13
f 163/274/13 166/262/13 164/264/13
f 167/269/13 168/265/13 169/276/13
f 167/269/13 170/277/13 168/265/13
f 168/265/13 170/277/13 171/263/13
f 170/277/13 167/269/13 172/278/13
f 173/279/15 174/280/15 175/281/15
f 103/282/15 173/279/15 175/281/15
f 173/279/15 176/283/15 174/280/15
f 176/283/15 177/284/15 174/280/15
f 103/282/15 178/285/15 173/279/15
f 178/285/15 177/284/15 176/283/15
f 178/285/15 176/283/15 173/279/15
f 105/286/15 178/285/15 103/282/15
f 165/287/14 179/288/14 163/289/14
f 163/289/14 179/288/14 180/290/14
f 181/291/15 182/292/15 183/293/15
f 184/294/15 182/292/15 181/291/15
f 164/295/14 151/296/14 153/297/14
f 166/298/14 151/296/14 164/295/14
f 110/299/15 185/300/15 186/301/15
f 109/302/15 185/300/15 110/299/15
f 168/303/14 187/304/14 188/305/14
f 171/306/14 187/304/14 168/303/14
f 189/301/15 190/307/15 191/308/15
f 118/309/15 190/307/15 189/301/15
f 117/300/15 190/307/15 118/309/15
f 190/307/15 192/310/15 191/308/15
f 191/308/15 192/310/15 193/311/15
f 157/312/14 194/313/14 195/314/14
f 158/315/14 194/313/14 157/312/14
f 194/313/14 167/306/14 195/314/14
f 195/314/14 167/306/14 169/316/14
f 195/314/14 169/316/14 196/303/14
f 121/301/15 197/307/15 198/308/15
f 122/300/15 197/307/15 121/301/15
f 161/314/14 199/306/14 200/303/14
f 162/313/14 199/306/14 161/314/14
f 129/308/15 201/317/15 202/318/15
f 130/307/15 201/317/15 129/308/15
f 148/319/14 203/313/14 204/314/14
f 147/320/14 203/313/14 148/319/14
f 133/318/15 205/321/15 206/322/15
f 134/317/15 205/321/15 133/318/15
f 143/323/14 207/320/14 144/324/14
f 144/324/14 207/320/14 208/319/14
f 136/325/15 209/321/15 210/322/15
f 135/326/15 209/321/15 136/325/15
f 142/323/14 211/327/14 141/324/14
f 141/324/14 211/327/14 212/328/14
f 212/329/17 213/330/17 139/331/17
f 141/332/17 212/329/17 139/331/17
f 108/333/16 107/334/16 214/335/16
f 214/335/16 107/334/16 175/336/16
f 107/334/16 103/337/16 175/336/16
f 214/335/16 181/338/16 108/333/16
f 110/339/16 108/333/16 181/338/16
f 183/340/16 110/339/16 181/338/16
f 110/339/16 183/340/16 215/341/16
f 186/342/16 112/343/16 110/339/16
f 216/344/16 112/343/16 186/342/16
f 144/345/17 208/346/17 146/347/17
f 208/346/17 217/348/17 146/347/17
f 204/349/17 218/350/17 150/351/17
f 204/349/17 150/351/17 148/352/17
f 191/353/16 113/354/16 115/355/16
f 189/356/16 191/353/16 115/355/16
f 191/353/16 124/357/16 113/354/16
f 191/353/16 193/358/16 124/357/16
f 193/358/16 125/359/16 124/357/16
f 193/358/16 219/360/16 125/359/16
f 200/361/17 220/362/17 159/363/17
f 161/364/17 200/361/17 159/363/17
f 121/365/16 198/366/16 119/367/16
f 198/366/16 221/368/16 119/367/16
f 222/369/17 155/370/17 195/371/17
f 157/372/17 195/371/17 155/370/17
f 223/373/17 155/370/17 222/369/17
f 196/374/17 222/369/17 195/371/17
f 196/374/17 224/375/17 222/369/17
f 202/376/16 127/377/16 129/378/16
f 202/376/16 225/379/16 127/377/16
f 133/380/16 206/381/16 131/382/16
f 206/381/16 226/383/16 131/382/16
f 227/384/17 188/385/17 228/386/17
f 188/385/17 227/384/17 169/374/17
f 188/385/17 169/374/17 168/387/17
f 166/388/17 229/389/17 188/385/17
f 180/390/17 229/389/17 166/388/17
f 163/391/17 180/390/17 166/388/17
f 154/392/17 166/388/17 188/385/17
f 151/393/17 166/388/17 154/392/17
f 210/394/16 230/395/16 138/396/16
f 136/397/16 210/394/16 138/396/16
f 187/224/18 228/225/18 188/223/18
f 231/226/18 228/225/18 187/224/18
f 188/223/18 232/222/18 187/224/18
f 232/222/18 188/223/18 229/220/18
f 179/217/18 232/222/18 229/220/18
f 179/217/18 229/220/18 180/219/18
f 199/234/18 220/233/18 200/235/18
f 199/234/18 233/232/18 220/233/18
f 172/398/18 234/227/18 227/225/18
f 227/225/18 234/227/18 224/228/18
f 227/225/18 224/228/18 169/231/18
f 169/231/18 224/228/18 196/230/18
f 203/240/18 218/239/18 204/241/18
f 203/240/18 235/238/18 218/239/18
f 236/227/18 223/237/18 222/228/18
f 223/237/18 236/227/18 237/236/18
f 238/242/18 217/243/18 207/244/18
f 207/244/18 217/243/18 208/245/18
f 211/247/18 239/249/18 213/248/18
f 211/247/18 213/248/18 212/246/18
f 205/255/18 226/256/18 206/254/18
f 205/255/18 240/257/18 226/256/18
f 209/252/18 230/251/18 210/253/18
f 209/252/18 241/250/18 230/251/18
f 182/262/18 215/263/18 183/264/18
f 215/263/18 182/262/18 242/265/18
f 201/259/18 225/260/18 202/258/18
f 201/259/18 243/261/18 225/260/18
f 192/268/18 244/266/18 219/267/18
f 192/268/18 219/267/18 193/269/18
f 177/274/18 181/399/18 174/400/18
f 181/399/18 177/274/18 245/401/18
f 181/399/18 245/401/18 184/262/18
f 174/400/18 181/399/18 214/402/18
f 175/275/18 174/400/18 214/402/18
f 197/272/18 221/271/18 198/273/18
f 197/272/18 246/270/18 221/271/18
f 185/265/18 189/269/18 216/277/18
f 216/277/18 189/269/18 115/403/18
f 185/265/18 216/277/18 186/263/18
f 118/276/18 189/269/18 185/265/18
f 230/404/20 137/405/20 138/406/20
f 230/404/20 241/407/20 137/405/20
f 213/408/19 140/409/19 139/410/19
f 213/408/19 239/411/19 140/409/19
f 226/404/20 240/407/20 132/412/20
f 226/404/20 132/412/20 131/413/20
f 217/414/19 238/415/19 145/409/19
f 217/414/19 145/409/19 146/410/19
f 225/413/20 128/416/20 127/417/20
f 225/413/20 243/412/20 128/416/20
f 218/418/19 235/419/19 149/415/19
f 218/418/19 149/415/19 150/414/19
f 221/420/20 120/421/20 119/422/20
f 246/423/20 120/421/20 221/420/20
f 220/424/19 160/425/19 159/426/19
f 220/424/19 233/427/19 160/425/19
f 219/428/20 126/423/20 125/420/20
f 244/429/20 126/423/20 219/428/20
f 223/426/19 156/430/19 155/431/19
f 223/426/19 237/425/19 156/430/19
f 114/432/20 124/417/20 123/416/20
f 124/417/20 114/432/20 113/433/20
f 236/419/19 224/434/19 234/435/19
f 224/434/19 236/419/19 222/418/19
f 216/422/20 111/436/20 112/437/20
f 115/438/20 111/436/20 216/422/20
f 115/438/20 116/421/20 111/436/20
f 228/439/19 170/427/19 172/440/19
f 170/427/19 228/439/19 231/441/19
f 228/439/19 172/440/19 227/424/19
f 242/442/20 109/443/20 215/444/20
f 215/444/20 109/443/20 110/445/20
f 188/446/19 152/447/19 154/448/19
f 152/447/19 188/446/19 187/449/19
f 209/332/22 135/450/22 241/331/22
f 241/331/22 135/450/22 137/451/22
f 240/347/22 134/452/22 132/453/22
f 134/452/22 240/347/22 205/345/22
f 231/343/21 171/342/21 170/344/21
f 171/342/21 231/343/21 187/339/21
f 187/339/21 232/333/21 164/454/21
f 164/454/21 232/333/21 165/455/21
f 165/455/21 232/333/21 179/337/21
f 153/456/21 187/339/21 164/454/21
f 152/457/21 187/339/21 153/456/21
f 201/458/22 130/459/22 243/460/22
f 243/460/22 130/459/22 128/461/22
f 158/462/21 237/463/21 236/464/21
f 156/465/21 237/463/21 158/462/21
f 158/462/21 236/464/21 194/466/21
f 234/354/21 194/466/21 236/464/21
f 194/466/21 234/354/21 172/344/21
f 194/466/21 172/344/21 167/356/21
f 122/361/22 246/467/22 197/468/22
f 246/467/22 122/361/22 120/362/22
f 162/469/21 233/367/21 199/365/21
f 233/367/21 162/469/21 160/470/21
f 117/374/22 123/471/22 190/472/22
f 123/471/22 117/374/22 114/375/22
f 123/471/22 244/473/22 190/472/22
f 190/472/22 244/473/22 192/474/22
f 244/473/22 123/471/22 126/475/22
f 203/476/21 147/477/21 235/478/21
f 235/478/21 147/477/21 149/479/21
f 178/480/22 105/390/22 104/481/22
f 104/481/22 177/482/22 178/480/22
f 104/481/22 245/483/22 177/482/22
f 245/483/22 104/481/22 184/484/22
f 184/484/22 104/481/22 106/389/22
f 184/484/22 106/389/22 109/385/22
f 242/485/22 184/484/22 109/385/22
f 242/485/22 182/486/22 184/484/22
f 109/385/22 118/374/22 185/387/22
f 116/384/22 118/374/22 109/385/22
f 116/384/22 109/385/22 111/386/22
f 238/487/21 143/381/21 145/383/21
f 143/381/21 238/487/21 207/488/21
f 239/489/21 142/394/21 140/395/21
f 211/490/21 142/394/21 239/489/21
usemtl c_cb4706
f 247/491/1 248/492/1 249/493/1
f 250/494/1 248/492/1 247/491/1
f 251/495/2 252/496/2 253/497/2
f 254/498/2 252/496/2 251/495/2
f 255/499/31 248/500/31 256/501/31
f 256/501/31 248/500/31 250/502/31
f 257/503/32 252/504/32 258/505/32
f 258/505/32 252/504/32 254/506/32
f 249/507/33 255/508/33 259/509/33
f 248/510/33 255/508/33 249/507/33
f 253/511/34 257/512/34 260/513/34
f 252/514/34 257/512/34 253/511/34
f 260/515/7 258/516/7 261/517/7
f 257/518/7 258/516/7 260/515/7
f 259/519/8 256/520/8 262/521/8
f 255/522/8 256/520/8 259/519/8
f 260/523/35 251/524/35 253/525/35
f 261/526/35 251/524/35 260/523/35
f 259/527/36 247/528/36 249/529/36
f 262/530/36 247/528/36 259/527/36
f 261/531/37 254/532/37 251/533/37
f 258/534/37 254/532/37 261/531/37
f 262/535/38 250/536/38 247/537/38
f 256/538/38 250/536/38 262/535/38
usemtl c_ff7b1c
f 263/539/1 264/540/1 265/541/1
f 265/541/1 264/540/1 266/542/1
f 267/543/2 268/544/2 269/545/2
f 269/545/2 268/544/2 270/546/2
f 264/547/31 271/548/31 266/549/31
f 266/549/31 271/548/31 272/550/31
f 270/551/32 273/552/32 274/553/32
f 268/554/32 273/552/32 270/551/32
f 275/555/33 265/556/33 272/557/33
f 272/557/33 265/556/33 266/558/33
f 276/559/34 269/560/34 274/561/34
f 274/561/34 269/560/34 270/562/34
f 274/563/7 277/564/7 276/565/7
f 273/566/7 277/564/7 274/563/7
f 272/567/8 278/568/8 275/569/8
f 271/570/8 278/568/8 272/567/8
f 275/571/36 263/572/36 265/573/36
f 278/574/36 263/572/36 275/571/36
f 277/575/35 267/576/35 276/577/35
f 276/577/35 267/576/35 269/578/35
f 278/579/38 264/580/38 263/581/38
f 271/582/38 264/580/38 278/579/38
f 277/583/37 268/584/37 267/585/37
f 273/586/37 268/584/37 277/583/37
usemtl c_ffda0a
f 279/587/1 280/588/1 281/589/1
f 281/589/1 280/588/1 282/590/1
f 283/591/1 284/592/1 285/593/1
f 285/593/1 284/592/1 286/594/1
f 287/595/2 288/596/2 289/597/2
f 290/598/2 288/596/2 287/595/2
f 291/599/2 292/600/2 293/601/2
f 293/601/2 292/600/2 294/602/2
f 295/603/39 284/604/39 283/605/39
f 296/606/39 284/604/39 295/603/39
f 297/607/40 292/608/40 298/609/40
f 298/609/40 292/608/40 291/610/40
f 299/611/3 280/612/3 300/613/3
f 300/613/3 280/612/3 279/614/3
f 301/615/4 288/616/4 290/617/4
f 302/618/4 288/616/4 301/615/4
f 303/619/5 279/614/5 281/620/5
f 300/613/5 279/614/5 303/619/5
f 301/615/6 290/617/6 304/621/6
f 304/621/6 290/617/6 287/622/6
f 284/623/41 296/624/41 286/625/41
f 286/625/41 296/624/41 305/626/41
f 292/627/42 297/628/42 294/629/42
f 294/629/42 297/628/42 306/630/42
f 302/631/7 301/632/7 307/633/7
f 307/633/7 301/632/7 304/634/7
f 306/635/7 298/636/7 308/637/7
f 297/638/7 298/636/7 306/635/7
f 299/639/8 300/640/8 309/641/8
f 309/641/8 300/640/8 303/642/8
f 296/643/8 295/644/8 305/645/8
f 305/645/8 295/644/8 310/646/8
f 289/647/10 302/612/10 307/648/10
f 288/611/10 302/612/10 289/647/10
f 280/618/9 299/616/9 282/649/9
f 282/649/9 299/616/9 309/650/9
f 309/650/11 281/621/11 282/649/11
f 303/622/11 281/621/11 309/650/11
f 307/648/12 287/619/12 289/647/12
f 304/620/12 287/619/12 307/648/12
f 310/651/43 285/652/43 305/653/43
f 305/653/43 285/652/43 286/654/43
f 306/655/44 293/656/44 294/657/44
f 308/658/44 293/656/44 306/655/44
f 295/659/45 283/660/45 310/661/45
f 310/661/45 283/660/45 285/662/45
f 308/663/46 291/664/46 293/665/46
f 298/666/46 291/664/46 308/663/46
usemtl c_ffed27
f 311/667/13 312/668/13 186/669/13
f 185/670/13 186/669/13 312/668/13
f 311/667/13 313/671/13 312/668/13
f 313/671/13 311/667/13 314/672/13
f 315/673/13 316/674/13 317/675/13
f 318/676/13 317/675/13 316/674/13
f 316/674/13 315/673/13 319/677/13
f 320/678/13 319/677/13 315/673/13
f 321/672/13 322/676/13 323/671/13
f 322/676/13 321/672/13 324/675/13
f 325/677/13 326/678/13 327/679/13
f 328/680/13 327/679/13 326/678/13
f 329/681/13 330/682/13 331/683/13
f 332/684/13 330/682/13 329/681/13
f 333/685/13 334/686/13 335/687/13
f 336/688/13 335/687/13 334/686/13
f 337/689/13 338/690/13 339/691/13
f 340/692/13 339/691/13 338/690/13
f 338/690/13 337/689/13 341/693/13
f 342/694/13 341/693/13 337/689/13
f 341/693/13 342/694/13 343/684/13
f 342/694/13 344/682/13 343/684/13
f 76/683/13 53/688/13 75/681/13
f 53/688/13 76/683/13 52/687/13
f 185/695/15 345/696/15 186/697/15
f 186/697/15 345/696/15 346/698/15
f 334/699/14 171/700/14 168/701/14
f 333/702/14 171/700/14 334/699/14
f 321/703/15 347/704/15 348/705/15
f 323/706/15 347/704/15 321/703/15
f 329/707/14 349/708/14 350/709/14
f 331/710/14 349/708/14 329/707/14
f 318/711/15 322/712/15 324/713/15
f 318/711/15 324/713/15 317/714/15
f 351/715/14 352/716/14 353/717/14
f 351/715/14 353/717/14 354/718/14
f 315/719/15 355/720/15 356/721/15
f 316/722/15 355/720/15 315/719/15
f 342/723/14 357/724/14 341/725/14
f 341/725/14 357/724/14 358/726/14
f 325/727/15 359/728/15 326/729/15
f 326/729/15 359/728/15 360/730/15
f 337/731/14 361/732/14 338/733/14
f 338/733/14 361/732/14 362/734/14
f 346/735/16 27/736/16 311/737/16
f 186/738/16 346/735/16 311/737/16
f 27/736/16 346/735/16 363/739/16
f 27/736/16 314/740/16 311/737/16
f 314/740/16 27/736/16 29/741/16
f 364/742/16 348/743/16 365/744/16
f 324/745/16 348/743/16 364/742/16
f 348/743/16 324/745/16 321/746/16
f 324/745/16 364/742/16 315/747/16
f 317/748/16 324/745/16 315/747/16
f 315/747/16 364/742/16 356/749/16
f 315/747/16 356/749/16 320/750/16
f 356/749/16 360/751/16 320/750/16
f 326/752/16 360/751/16 328/753/16
f 360/751/16 366/754/16 328/753/16
f 362/755/17 367/756/17 340/757/17
f 338/758/17 362/755/17 340/757/17
f 341/759/17 358/760/17 338/758/17
f 358/760/17 368/761/17 338/758/17
f 351/762/17 358/760/17 341/759/17
f 352/763/17 351/762/17 341/759/17
f 341/759/17 343/764/17 352/763/17
f 350/765/17 352/763/17 343/764/17
f 332/766/17 350/765/17 343/764/17
f 350/765/17 332/766/17 329/767/17
f 369/768/17 75/769/17 53/770/17
f 75/769/17 369/768/17 370/771/17
f 168/772/17 369/768/17 53/770/17
f 168/772/17 53/770/17 336/773/17
f 334/774/17 168/772/17 336/773/17
f 371/667/18 370/671/18 369/668/18
f 370/671/18 371/667/18 170/672/18
f 171/669/18 371/667/18 369/668/18
f 171/669/18 369/668/18 168/670/18
f 357/673/18 372/678/18 368/677/18
f 357/673/18 368/677/18 358/674/18
f 354/675/18 357/673/18 358/674/18
f 354/675/18 358/674/18 351/676/18
f 353/675/18 352/676/18 349/672/18
f 349/672/18 352/676/18 350/671/18
f 361/678/18 373/680/18 367/679/18
f 361/678/18 367/679/18 362/677/18
f 345/686/18 363/687/18 346/685/18
f 374/688/18 363/687/18 345/686/18
f 347/681/18 365/682/18 348/683/18
f 365/682/18 347/681/18 375/684/18
f 26/688/18 29/683/18 27/687/18
f 28/681/18 29/683/18 26/688/18
f 355/693/18 356/694/18 376/684/18
f 356/694/18 364/682/18 376/684/18
f 355/693/18 360/689/18 356/694/18
f 355/693/18 359/690/18 360/689/18
f 359/690/18 366/691/18 360/689/18
f 377/692/18 366/691/18 359/690/18
f 366/775/20 377/776/20 327/777/20
f 366/775/20 327/777/20 328/778/20
f 339/779/19 367/780/19 373/781/19
f 367/780/19 339/779/19 340/782/19
f 360/783/20 319/784/20 320/785/20
f 360/783/20 359/786/20 319/784/20
f 368/787/19 372/788/19 337/789/19
f 368/787/19 337/789/19 338/790/19
f 356/791/20 355/792/20 316/793/20
f 356/791/20 316/793/20 315/794/20
f 358/795/19 342/796/19 341/797/19
f 358/795/19 357/798/19 342/796/19
f 375/799/20 376/800/20 365/801/20
f 364/802/20 365/801/20 376/800/20
f 332/803/19 343/804/19 330/805/19
f 344/806/19 330/805/19 343/804/19
f 29/807/20 28/808/20 313/809/20
f 29/807/20 313/809/20 314/810/20
f 370/811/19 76/812/19 75/813/19
f 76/812/19 370/811/19 170/814/19
f 27/815/20 363/816/20 26/817/20
f 374/818/20 26/817/20 363/816/20
f 52/819/19 335/820/19 53/821/19
f 336/822/19 53/821/19 335/820/19
f 373/823/21 337/751/21 339/754/21
f 337/751/21 373/823/21 361/824/21
f 372/825/21 342/749/21 337/751/21
f 342/749/21 372/825/21 357/826/21
f 357/826/21 344/742/21 342/749/21
f 353/827/21 344/742/21 357/826/21
f 354/828/21 353/827/21 357/826/21
f 344/742/21 353/827/21 331/743/21
f 331/743/21 353/827/21 349/829/21
f 344/742/21 331/743/21 330/744/21
f 170/740/21 52/830/21 76/831/21
f 371/737/21 52/830/21 170/740/21
f 371/737/21 171/738/21 52/830/21
f 171/738/21 333/735/21 52/830/21
f 335/739/21 52/830/21 333/735/21
f 26/832/22 185/772/22 312/768/22
f 374/773/22 185/772/22 26/832/22
f 345/774/22 185/772/22 374/773/22
f 26/832/22 312/768/22 28/833/22
f 28/833/22 312/768/22 313/771/22
f 323/834/22 322/835/22 376/764/22
f 375/766/22 323/834/22 376/764/22
f 323/834/22 375/766/22 347/767/22
f 355/759/22 376/764/22 322/835/22
f 322/835/22 318/836/22 355/759/22
f 355/759/22 318/836/22 316/837/22
f 355/759/22 316/837/22 359/758/22
f 359/758/22 316/837/22 319/838/22
f 325/839/22 377/757/22 359/758/22
f 377/757/22 325/839/22 327/840/22
usemtl c_ff9e49
f 378/841/13 379/842/13 380/843/13
f 380/843/13 379/842/13 381/844/13
f 382/841/47 379/842/47 383/845/47
f 383/845/47 379/842/47 378/846/47
f 379/841/48 382/842/48 381/843/48
f 381/843/48 382/842/48 384/844/48
f 382/841/18 383/842/18 384/843/18
f 384/843/18 383/842/18 385/844/18
f 385/841/49 380/842/49 384/845/49
f 384/845/49 380/842/49 381/846/49
f 383/841/50 378/842/50 385/843/50
f 385/843/50 378/842/50 380/844/50
o E1U_decal1
usemtl e1u_decal1
f 386/847/21 387/848/21 388/849/21
f 387/848/21 386/847/21 389/850/21
f 390/851/21 391/852/21 392/853/21
f 393/854/21 392/853/21 391/852/21
f 394/855/21 395/856/21 396/857/21
f 396/857/21 395/856/21 397/858/21
f 398/859/21 399/860/21 400/861/21
f 399/860/21 398/859/21 401/862/21
f 402/863/22 403/864/22 404/865/22
f 403/864/22 402/863/22 405/866/22
f 406/867/22 407/868/22 408/869/22
f 406/867/22 408/869/22 409/870/22
f 410/871/22 409/870/22 408/869/22
f 406/867/22 409/870/22 411/872/22
f 412/873/22 413/874/22 414/875/22
f 415/876/22 414/875/22 413/874/22
f 416/877/22 417/878/22 418/879/22
f 419/880/22 418/879/22 417/878/22
o E1D
usemtl c_b54500
f 420/881/13 421/882/13 422/883/13
f 422/883/13 421/882/13 423/884/13
f 424/881/47 421/882/47 425/885/47
f 425/885/47 421/882/47 420/886/47
f 421/881/48 424/882/48 423/883/48
f 423/883/48 424/882/48 426/884/48
f 424/881/18 425/882/18 426/883/18
f 426/883/18 425/882/18 427/884/18
f 427/881/49 422/882/49 426/885/49
f 426/885/49 422/882/49 423/886/49
f 425/881/50 420/882/50 427/883/50
f 427/883/50 420/882/50 422/884/50
o E2D
usemtl c_ff6300
f 428/887/13 429/888/13 430/889/13
f 430/889/13 429/888/13 431/890/13
f 432/887/47 429/888/47 433/891/47
f 433/891/47 429/888/47 428/892/47
f 429/887/48 432/888/48 431/889/48
f 431/889/48 432/888/48 434/890/48
f 432/887/18 433/888/18 434/889/18
f 434/889/18 433/888/18 435/890/18
f 435/887/49 430/888/49 434/891/49
f 434/891/49 430/888/49 431/892/49
f 433/887/50 428/888/50 435/889/50
f 435/889/50 428/888/50 430/890/50
o E3
usemtl c_df7314
f 436/893/13 437/894/13 438/895/13
f 438/895/13 437/894/13 439/896/13
f 440/893/47 437/894/47 441/897/47
f 441/897/47 437/894/47 436/898/47
f 437/893/48 440/894/48 439/895/48
f 439/895/48 440/894/48 442/896/48
f 440/893/18 441/894/18 442/895/18
f 442/895/18 441/894/18 443/896/18
f 443/893/49 438/894/49 442/897/49
f 442/897/49 438/894/49 439/898/49
f 441/893/50 436/894/50 443/895/50
f 443/895/50 436/894/50 438/896/50
o E2U
usemtl c_f48236
f 444/899/13 445/900/13 446/901/13
f 446/901/13 445/900/13 447/902/13
f 448/899/47 445/900/47 449/903/47
f 449/903/47 445/900/47 444/904/47
f 445/899/48 448/900/48 447/901/48
f 447/901/48 448/900/48 450/902/48
f 448/899/18 449/900/18 450/901/18
f 450/901/18 449/900/18 451/902/18
f 451/899/49 446/900/49 450/903/49
f 450/903/49 446/900/49 447/904/49
f 449/899/50 444/900/50 451/901/50
f 451/901/50 444/900/50 446/902/50
