# Roblox asset pack: egg_brutal_dinosaur (props), from the Studio model "BrutalDinosaur". Exported with Export Selection, split by tools/build_creatures.py: one object per rigid body. Units: studs. +Y up, front faces -Z, pivot (bottom centre) at the origin.
mtllib egg_brutal_dinosaur.mtl

v -3.55230 6.46000 -2.58000
v 3.55230 6.46000 -2.58000
v -3.55230 3.88000 -2.58000
v 3.55230 3.88000 -2.58000
v 3.55230 6.46000 0.00000
v -3.55230 6.46000 0.00000
v 3.55230 3.88000 0.00000
v -3.55230 3.88000 0.00000
v -2.58350 3.88000 -3.55000
v 2.58350 3.88000 -3.55000
v -2.58350 1.29000 -3.55000
v 2.58350 1.29000 -3.55000
v 2.58350 3.88000 3.55000
v -2.58350 3.88000 3.55000
v 2.58350 1.29000 3.55000
v -2.58350 1.29000 3.55000
v 3.55230 6.46000 2.58000
v -3.55230 6.46000 2.58000
v 3.55230 3.88000 2.58000
v -3.55230 3.88000 2.58000
v -3.55230 1.29000 0.00000
v 3.55230 1.29000 0.00000
v 3.55230 1.29000 2.58000
v -3.55230 1.29000 2.58000
v 0.00000 6.46000 -3.55000
v 2.58350 6.46000 -3.55000
v 0.00000 3.88000 -3.55000
v 2.58350 6.46000 3.55000
v 0.00000 6.46000 3.55000
v 0.00000 3.88000 3.55000
v -1.93760 10.98000 -1.94000
v 1.93760 10.98000 -1.94000
v -1.93760 9.04000 -1.94000
v 1.93760 9.04000 -1.94000
v 1.93760 10.98000 1.94000
v -1.93760 10.98000 1.94000
v 1.93760 9.04000 1.94000
v -1.93760 9.04000 1.94000
v -2.58350 6.46000 -3.55000
v -2.58350 6.46000 3.55000
v -3.55230 1.29000 -2.58000
v 3.55230 1.29000 -2.58000
v -2.58350 9.04000 -2.58000
v 2.58350 9.04000 -2.58000
v -2.58350 0.00000 -2.58000
v 2.58350 0.00000 -2.58000
v 2.58350 9.04000 2.58000
v -2.58350 9.04000 2.58000
v 2.58350 0.00000 2.58000
v -2.58350 0.00000 2.58000
vt 8.13807 -3.75000
vt 7.25000 -3.75000
vt 8.13807 -4.07294
vt 7.25000 -4.07294
vt 7.57294 -3.75000
vt 7.57294 -4.63807
vt 7.25000 -4.63807
vt 7.57294 -4.07294
vt 5.64587 -3.50000
vt 5.00000 -3.50000
vt 5.64587 -3.82294
vt 5.00000 -3.82294
vt 5.88807 -3.50000
vt 5.88807 -4.14587
vt 5.00000 -4.14587
vt 5.88807 -3.82294
vt 3.63807 -1.00000
vt 2.75000 -1.00000
vt 3.63807 -1.32293
vt 2.75000 -1.32293
vt 3.07293 -1.00000
vt 3.07293 -1.88807
vt 2.75000 -1.88807
vt 3.07293 -1.32293
vt 2.63807 -0.75000
vt 1.75000 -0.75000
vt 2.63807 -1.07293
vt 1.75000 -1.07293
vt 2.07293 -0.75000
vt 2.07293 -1.63807
vt 1.75000 -1.63807
vt 2.07293 -1.07293
vt 2.32293 0.00000
vt 2.00000 0.00000
vt 2.32293 -0.32294
vt 2.00000 -0.32294
vt 2.88807 0.00000
vt 2.88807 -0.32294
vt 2.73440 -2.75000
vt 2.25000 -2.75000
vt 2.73440 -2.99220
vt 2.25000 -2.99220
vt 2.73440 -3.23440
vt 2.25000 -3.23440
vt 0.32294 -4.50000
vt 0.00000 -4.50000
vt 0.32294 -4.82294
vt 0.00000 -4.82294
vt 0.88807 -4.50000
vt 0.88807 -4.82294
vt 7.13807 -6.75000
vt 6.25000 -6.75000
vt 7.13807 -7.07294
vt 6.25000 -7.07294
vt 6.57294 -6.75000
vt 6.57294 -7.63807
vt 6.25000 -7.63807
vt 6.57294 -7.07294
vt 1.14587 -4.25000
vt 0.50000 -4.25000
vt 1.14587 -5.38027
vt 0.50000 -5.38027
vt 1.14587 -4.89587
vt 0.50000 -4.89587
vn 0.0000 0.0000 -1.0000
vn 0.0000 1.0000 0.0000
vn 1.0000 0.0000 0.0000
vn 0.0000 0.0000 1.0000
vn 0.0000 -1.0000 0.0000
vn -1.0000 0.0000 0.0000

o egg_brutal_dinosaur
usemtl c_6225d1
f 1/1/1 2/2/1 3/3/1
f 3/3/1 2/2/1 4/4/1
f 5/5/2 2/2/2 6/6/2
f 6/6/2 2/2/2 1/7/2
f 2/5/3 5/2/3 4/8/3
f 4/8/3 5/2/3 7/4/3
f 5/1/4 6/2/4 7/3/4
f 7/3/4 6/2/4 8/4/4
f 8/5/5 3/2/5 7/6/5
f 7/6/5 3/2/5 4/7/5
f 6/5/6 1/2/6 8/8/6
f 8/8/6 1/2/6 3/4/6
f 9/9/1 10/10/1 11/11/1
f 11/11/1 10/10/1 12/12/1
f 13/13/2 10/10/2 14/14/2
f 14/14/2 10/10/2 9/15/2
f 10/13/3 13/10/3 12/16/3
f 12/16/3 13/10/3 15/12/3
f 13/9/4 14/10/4 15/11/4
f 15/11/4 14/10/4 16/12/4
f 16/13/5 11/10/5 15/14/5
f 15/14/5 11/10/5 12/15/5
f 14/13/6 9/10/6 16/16/6
f 16/16/6 9/10/6 11/12/6
f 6/17/1 5/18/1 8/19/1
f 8/19/1 5/18/1 7/20/1
f 17/21/2 5/18/2 18/22/2
f 18/22/2 5/18/2 6/23/2
f 5/21/3 17/18/3 7/24/3
f 7/24/3 17/18/3 19/20/3
f 17/17/4 18/18/4 19/19/4
f 19/19/4 18/18/4 20/20/4
f 20/21/5 8/18/5 19/22/5
f 19/22/5 8/18/5 7/23/5
f 18/21/6 6/18/6 20/24/6
f 20/24/6 6/18/6 8/20/6
f 8/25/1 7/26/1 21/27/1
f 21/27/1 7/26/1 22/28/1
f 19/29/2 7/26/2 20/30/2
f 20/30/2 7/26/2 8/31/2
f 7/29/3 19/26/3 22/32/3
f 22/32/3 19/26/3 23/28/3
f 19/25/4 20/26/4 23/27/4
f 23/27/4 20/26/4 24/28/4
f 24/29/5 21/26/5 23/30/5
f 23/30/5 21/26/5 22/31/5
f 20/29/6 8/26/6 24/32/6
f 24/32/6 8/26/6 21/28/6
f 25/33/1 26/34/1 27/35/1
f 27/35/1 26/34/1 10/36/1
f 28/37/2 26/34/2 29/38/2
f 29/38/2 26/34/2 25/36/2
f 26/37/3 28/34/3 10/38/3
f 10/38/3 28/34/3 13/36/3
f 28/33/4 29/34/4 13/35/4
f 13/35/4 29/34/4 30/36/4
f 30/37/5 27/34/5 13/38/5
f 13/38/5 27/34/5 10/36/5
f 29/37/6 25/34/6 30/38/6
f 30/38/6 25/34/6 27/36/6
usemtl c_f8f8f8
f 31/39/1 32/40/1 33/41/1
f 33/41/1 32/40/1 34/42/1
f 35/39/2 32/40/2 36/43/2
f 36/43/2 32/40/2 31/44/2
f 32/39/3 35/40/3 34/41/3
f 34/41/3 35/40/3 37/42/3
f 35/39/4 36/40/4 37/41/4
f 37/41/4 36/40/4 38/42/4
f 38/39/5 33/40/5 37/43/5
f 37/43/5 33/40/5 34/44/5
f 36/39/6 31/40/6 38/41/6
f 38/41/6 31/40/6 33/42/6
usemtl c_3d1585
f 39/45/1 25/46/1 9/47/1
f 9/47/1 25/46/1 27/48/1
f 29/49/2 25/46/2 40/50/2
f 40/50/2 25/46/2 39/48/2
f 25/49/3 29/46/3 27/50/3
f 27/50/3 29/46/3 30/48/3
f 29/45/4 40/46/4 30/47/4
f 30/47/4 40/46/4 14/48/4
f 14/49/5 9/46/5 30/50/5
f 30/50/5 9/46/5 27/48/5
f 40/49/6 39/46/6 14/50/6
f 14/50/6 39/46/6 9/48/6
f 3/51/1 4/52/1 41/53/1
f 41/53/1 4/52/1 42/54/1
f 7/55/2 4/52/2 8/56/2
f 8/56/2 4/52/2 3/57/2
f 4/55/3 7/52/3 42/58/3
f 42/58/3 7/52/3 22/54/3
f 7/51/4 8/52/4 22/53/4
f 22/53/4 8/52/4 21/54/4
f 21/55/5 41/52/5 22/56/5
f 22/56/5 41/52/5 42/57/5
f 8/55/6 3/52/6 21/58/6
f 21/58/6 3/52/6 41/54/6
usemtl c_b480ff
f 43/59/1 44/60/1 45/61/1
f 45/61/1 44/60/1 46/62/1
f 47/59/2 44/60/2 48/63/2
f 48/63/2 44/60/2 43/64/2
f 44/59/3 47/60/3 46/61/3
f 46/61/3 47/60/3 49/62/3
f 47/59/4 48/60/4 49/61/4
f 49/61/4 48/60/4 50/62/4
f 50/59/5 45/60/5 49/63/5
f 49/63/5 45/60/5 46/64/5
f 48/59/6 43/60/6 50/61/6
f 50/61/6 43/60/6 45/62/6
