# Roblox asset pack: egg_anshun_saurus (props), from the Studio model "AnshunSaurus". Exported with Export Selection, split by tools/build_creatures.py: one object per rigid body. Units: studs. +Y up, front faces -Z, pivot (bottom centre) at the origin.
mtllib egg_anshun_saurus.mtl

v -1.72232 10.32990 -1.72000
v -5.16696 6.88990 -1.72000
v -1.72232 6.88990 -1.72000
v -1.72232 10.32990 1.72000
v -1.72232 6.88990 1.72000
v -5.16696 6.88990 1.72000
v 1.72232 10.32990 -1.72000
v 1.72232 6.88990 -1.72000
v 1.72232 10.32990 1.72000
v 1.72232 6.88990 1.72000
v -1.72232 6.88990 5.17000
v 1.72232 6.88990 5.17000
v 1.72232 -0.00010 -1.72000
v 5.16700 3.43990 -1.72000
v 1.72232 3.43990 -1.72000
v 1.72232 -0.00010 1.72000
v 1.72232 3.43990 1.72000
v 5.16700 3.43990 1.72000
v -1.72232 -0.00010 -1.72000
v -1.72232 3.43990 -5.17000
v -1.72232 3.43990 -1.72000
v 1.72232 3.43990 -5.17000
v 1.72232 6.88990 -5.17000
v -1.72232 6.88990 -5.17000
v 5.16700 6.88990 1.72000
v 5.16700 6.88990 -1.72000
v -1.72232 -0.00010 1.72000
v -5.16696 3.43990 1.72000
v -1.72232 3.43990 1.72000
v -5.16696 3.43990 -1.72000
v 1.72232 3.43990 5.17000
v -1.72232 3.43990 5.17000
vt 1.75000 -2.00000
vt 2.18058 -2.43058
vt 1.75000 -2.43058
vt 2.18058 -2.00000
vt 2.18058 -2.60893
vt 1.75000 -2.60893
vt 0.93058 -3.75000
vt 0.50000 -3.75000
vt 0.93058 -4.18058
vt 0.50000 -4.18058
vt 7.75000 -5.50000
vt 8.18058 -5.93058
vt 7.75000 -5.93058
vt 8.18058 -5.50000
vt 8.18058 -6.10893
vt 7.75000 -6.10893
vt 0.50000 -2.50000
vt 0.93058 -2.93058
vt 0.50000 -2.93058
vt 0.93058 -2.50000
vt 0.93058 -3.10893
vt 0.50000 -3.10893
vt 3.75000 1.00000
vt 4.18058 0.56942
vt 3.75000 0.56942
vt 4.18058 1.00000
vt 4.18058 0.39107
vt 3.75000 0.39107
vt 7.50000 -1.25000
vt 7.93058 -1.68058
vt 7.50000 -1.68058
vt 7.93058 -1.25000
vt 7.93058 -1.85893
vt 7.50000 -1.85893
vt 3.75000 -5.75000
vt 4.18058 -6.18058
vt 3.75000 -6.18058
vt 4.18058 -5.75000
vt 4.18058 -6.35893
vt 3.75000 -6.35893
vt 1.75000 -4.75000
vt 2.18058 -5.18058
vt 1.75000 -5.18058
vt 2.18058 -4.75000
vt 2.18058 -5.35893
vt 1.75000 -5.35893
vt 3.50000 -1.00000
vt 3.93058 -1.43058
vt 3.50000 -1.43058
vt 3.93058 -1.00000
vt 3.93058 -1.60893
vt 3.50000 -1.60893
vt 8.29174 -2.25000
vt 7.00000 -2.25000
vt 8.29174 -2.68058
vt 7.00000 -2.68058
vt 7.43058 -2.25000
vt 7.43058 -3.54174
vt 7.00000 -3.54174
vt 7.43058 -2.68058
vt 6.29174 0.75000
vt 5.00000 0.75000
vt 6.29174 0.31942
vt 5.00000 0.31942
vt 5.43058 0.75000
vt 5.43058 -0.54174
vt 5.00000 -0.54174
vt 5.43058 0.31942
vn 0.0000 0.0000 -1.0000
vn 1.0000 0.0000 0.0000
vn 0.0000 0.0000 1.0000
vn 0.0000 -1.0000 0.0000
vn -0.7087 0.7087 0.0000
vn 0.0000 1.0000 0.0000
vn -1.0000 0.0000 0.0000
vn 0.0000 0.7087 0.7087
vn 0.7087 -0.7087 0.0000
vn 0.0000 -0.7087 -0.7087
vn 0.0000 0.7087 -0.7087
vn 0.7087 0.7087 0.0000
vn -0.7087 -0.7087 0.0000
vn 0.0000 -0.7087 0.7087

o egg_anshun_saurus
usemtl c_883e3e
f 1/1/1 1/1/1 2/2/1
f 2/2/1 1/1/1 3/3/1
f 1/4/2 4/1/2 3/2/2
f 3/2/2 4/1/2 5/3/2
f 4/4/3 4/4/3 5/2/3
f 5/2/3 4/4/3 6/3/3
f 6/4/4 2/1/4 5/2/4
f 5/2/4 2/1/4 3/3/4
f 4/4/5 1/1/5 6/5/5
f 6/5/5 1/1/5 2/6/5
f 1/7/1 7/8/1 3/9/1
f 3/9/1 7/8/1 8/10/1
f 9/7/6 7/8/6 4/9/6
f 4/9/6 7/8/6 1/10/6
f 7/7/2 9/8/2 8/9/2
f 8/9/2 9/8/2 10/10/2
f 9/7/3 4/8/3 10/9/3
f 10/9/3 4/8/3 5/10/3
f 5/7/4 3/8/4 10/9/4
f 10/9/4 3/8/4 8/10/4
f 4/7/7 1/8/7 5/9/7
f 5/9/7 1/8/7 3/10/7
f 4/11/7 4/11/7 11/12/7
f 11/12/7 4/11/7 5/13/7
f 4/14/1 9/11/1 5/12/1
f 5/12/1 9/11/1 10/13/1
f 9/14/2 9/14/2 10/12/2
f 10/12/2 9/14/2 12/13/2
f 12/14/4 11/11/4 10/12/4
f 10/12/4 11/11/4 5/13/4
f 9/14/8 4/11/8 12/15/8
f 12/15/8 4/11/8 11/16/8
f 13/17/1 13/17/1 14/18/1
f 14/18/1 13/17/1 15/19/1
f 13/20/7 16/17/7 15/18/7
f 15/18/7 16/17/7 17/19/7
f 16/20/3 16/20/3 17/18/3
f 17/18/3 16/20/3 18/19/3
f 18/20/6 14/17/6 17/18/6
f 17/18/6 14/17/6 15/19/6
f 16/20/9 13/17/9 18/21/9
f 18/21/9 13/17/9 14/22/9
f 19/23/7 19/23/7 20/24/7
f 20/24/7 19/23/7 21/25/7
f 19/26/3 13/23/3 21/24/3
f 21/24/3 13/23/3 15/25/3
f 13/26/2 13/26/2 15/24/2
f 15/24/2 13/26/2 22/25/2
f 22/26/6 20/23/6 15/24/6
f 15/24/6 20/23/6 21/25/6
f 13/26/10 19/23/10 22/27/10
f 22/27/10 19/23/10 20/28/10
f 7/29/2 7/29/2 23/30/2
f 23/30/2 7/29/2 8/31/2
f 7/32/3 1/29/3 8/30/3
f 8/30/3 1/29/3 3/31/3
f 1/32/7 1/32/7 3/30/7
f 3/30/7 1/32/7 24/31/7
f 24/32/4 23/29/4 3/30/4
f 3/30/4 23/29/4 8/31/4
f 1/32/11 7/29/11 24/33/11
f 24/33/11 7/29/11 23/34/11
f 9/35/3 9/35/3 25/36/3
f 25/36/3 9/35/3 10/37/3
f 9/38/7 7/35/7 10/36/7
f 10/36/7 7/35/7 8/37/7
f 7/38/1 7/38/1 8/36/1
f 8/36/1 7/38/1 26/37/1
f 26/38/4 25/35/4 8/36/4
f 8/36/4 25/35/4 10/37/4
f 7/38/12 9/35/12 26/39/12
f 26/39/12 9/35/12 25/40/12
f 27/41/3 27/41/3 28/42/3
f 28/42/3 27/41/3 29/43/3
f 27/44/2 19/41/2 29/42/2
f 29/42/2 19/41/2 21/43/2
f 19/44/1 19/44/1 21/42/1
f 21/42/1 19/44/1 30/43/1
f 30/44/6 28/41/6 21/42/6
f 21/42/6 28/41/6 29/43/6
f 19/44/13 27/41/13 30/45/13
f 30/45/13 27/41/13 28/46/13
f 16/47/2 16/47/2 31/48/2
f 31/48/2 16/47/2 17/49/2
f 16/50/1 27/47/1 17/48/1
f 17/48/1 27/47/1 29/49/1
f 27/50/7 27/50/7 29/48/7
f 29/48/7 27/50/7 32/49/7
f 32/50/6 31/47/6 29/48/6
f 29/48/6 31/47/6 17/49/6
f 27/50/14 16/47/14 32/51/14
f 32/51/14 16/47/14 31/52/14
usemtl c_80bbdb
f 2/53/1 26/54/1 30/55/1
f 30/55/1 26/54/1 14/56/1
f 25/57/6 26/54/6 6/58/6
f 6/58/6 26/54/6 2/59/6
f 26/57/2 25/54/2 14/60/2
f 14/60/2 25/54/2 18/56/2
f 25/53/3 6/54/3 18/55/3
f 18/55/3 6/54/3 28/56/3
f 28/57/4 30/54/4 18/58/4
f 18/58/4 30/54/4 14/59/4
f 6/57/7 2/54/7 28/60/7
f 28/60/7 2/54/7 30/56/7
f 11/61/7 24/62/7 32/63/7
f 32/63/7 24/62/7 20/64/7
f 23/65/6 24/62/6 12/66/6
f 12/66/6 24/62/6 11/67/6
f 24/65/1 23/62/1 20/68/1
f 20/68/1 23/62/1 22/64/1
f 23/61/2 12/62/2 22/63/2
f 22/63/2 12/62/2 31/64/2
f 31/65/4 32/62/4 22/66/4
f 22/66/4 32/62/4 20/67/4
f 12/65/3 11/62/3 31/68/3
f 31/68/3 11/62/3 32/64/3
