# Roblox asset pack: pachycephalosaurus (creatures), from the Studio model "Pachycephalosaurus". Exported with Export Selection, split by tools/build_creatures.py: one object per rigid body. Units: studs. +Y up, front faces -Z, pivot (bottom centre) at the origin.
mtllib pachycephalosaurus.mtl

v 3.15000 5.40000 0.10950
v 3.15000 5.40000 2.80950
v 3.15000 2.25000 0.10950
v 3.15000 2.25000 2.80950
v 1.35000 5.40000 2.80950
v 1.35000 5.40000 0.10950
v 1.35000 2.25000 2.80950
v 1.35000 2.25000 0.10950
v -1.35000 5.40000 0.10950
v -1.35000 5.40000 2.80950
v -1.35000 2.25000 0.10950
v -1.35000 2.25000 2.80950
v -3.15000 5.40000 2.80950
v -3.15000 5.40000 0.10950
v -3.15000 2.25000 2.80950
v -3.15000 2.25000 0.10950
v 0.90000 6.30000 5.05950
v 0.90000 6.30000 8.65950
v 0.90000 4.50000 5.05950
v 0.90000 4.50000 8.65950
v -0.90000 6.30000 8.65950
v -0.90000 6.30000 5.05950
v -0.90000 4.50000 8.65950
v -0.90000 4.50000 5.05950
v 1.35000 6.30000 3.25950
v 1.35000 6.30000 5.05950
v 1.35000 4.05000 3.25950
v 1.35000 4.05000 5.05950
v -1.35000 6.30000 5.05950
v -1.35000 6.30000 3.25950
v -1.35000 4.05000 5.05950
v -1.35000 4.05000 3.25950
v 1.35000 3.15000 3.25950
v 1.35000 3.15000 5.05950
v -1.35000 3.15000 5.05950
v -1.35000 3.15000 3.25950
v 2.25000 5.40000 -3.04050
v 2.25000 5.40000 -1.69050
v 2.25000 2.70000 -3.04050
v 2.25000 2.70000 -1.69050
v 1.35000 5.40000 -1.69050
v 1.35000 5.40000 -3.04050
v 1.35000 2.70000 -1.69050
v 1.35000 2.70000 -3.04050
v 2.25000 3.60000 -3.94050
v 2.25000 3.60000 -3.04050
v 2.25000 2.25000 -3.94050
v 2.25000 2.25000 -3.04050
v 1.35000 3.60000 -3.04050
v 1.35000 3.60000 -3.94050
v 1.35000 2.25000 -3.04050
v 1.35000 2.25000 -3.94050
v 1.35000 4.50000 -3.49050
v 1.35000 4.50000 -0.79050
v 1.35000 3.60000 -3.49050
v 1.35000 3.60000 -0.79050
v -1.35000 4.50000 -0.79050
v -1.35000 4.50000 -3.49050
v -1.35000 3.60000 -0.79050
v -1.35000 3.60000 -3.49050
v 1.35000 7.20000 -3.49050
v 1.35000 7.20000 -0.79050
v -1.35000 7.20000 -0.79050
v -1.35000 7.20000 -3.49050
v 2.25000 10.80000 -5.06050
v 2.25000 10.80000 -4.16050
v 2.25000 9.90000 -5.06050
v 2.25000 9.90000 -4.16050
v 1.35000 10.80000 -4.16050
v 1.35000 10.80000 -5.06050
v 1.35000 9.90000 -4.16050
v 1.35000 9.90000 -5.06050
v 1.35000 10.80000 -7.76050
v 1.35000 10.80000 -3.26050
v 1.35000 9.90000 -7.76050
v 1.35000 9.90000 -3.26050
v -1.35000 10.80000 -3.26050
v -1.35000 10.80000 -7.76050
v -1.35000 9.90000 -3.26050
v -1.35000 9.90000 -7.76050
v 1.35000 10.80000 -2.36050
v 1.35000 9.90000 -2.36050
v 0.45000 10.80000 -2.36050
v 0.45000 10.80000 -3.26050
v 0.45000 9.90000 -2.36050
v 0.45000 9.90000 -3.26050
v -0.45000 10.80000 -3.26050
v -0.45000 10.80000 -2.36050
v -0.45000 9.90000 -3.26050
v -0.45000 9.90000 -2.36050
v -1.35000 10.80000 -2.36050
v -1.35000 9.90000 -2.36050
v -1.35000 10.80000 -5.06050
v -1.35000 10.80000 -4.16050
v -1.35000 9.90000 -5.06050
v -1.35000 9.90000 -4.16050
v -2.25000 10.80000 -4.16050
v -2.25000 10.80000 -5.06050
v -2.25000 9.90000 -4.16050
v -2.25000 9.90000 -5.06050
v 2.25000 10.80000 -6.86050
v 2.25000 10.80000 -5.96050
v 2.25000 9.90000 -6.86050
v 2.25000 9.90000 -5.96050
v 1.35000 10.80000 -5.96050
v 1.35000 10.80000 -6.86050
v 1.35000 9.90000 -5.96050
v 1.35000 9.90000 -6.86050
v -1.35000 10.80000 -6.86050
v -1.35000 10.80000 -5.96050
v -1.35000 9.90000 -6.86050
v -1.35000 9.90000 -5.96050
v -2.25000 10.80000 -5.96050
v -2.25000 10.80000 -6.86050
v -2.25000 9.90000 -5.96050
v -2.25000 9.90000 -6.86050
v 1.35000 8.10000 -8.66050
v 1.35000 8.10000 -7.31050
v 1.35000 7.20000 -8.66050
v 1.35000 7.20000 -7.31050
v -1.35000 8.10000 -7.31050
v -1.35000 8.10000 -8.66050
v -1.35000 7.20000 -7.31050
v -1.35000 7.20000 -8.66050
v 1.35000 12.60000 -7.31050
v 1.35000 12.60000 -3.71050
v 1.35000 10.80000 -7.31050
v 1.35000 10.80000 -3.71050
v -1.35000 12.60000 -3.71050
v -1.35000 12.60000 -7.31050
v -1.35000 10.80000 -3.71050
v -1.35000 10.80000 -7.31050
v 1.35000 9.90000 -8.66050
v 1.35000 9.90000 -7.31050
v 1.35000 8.55000 -8.66050
v 1.35000 8.55000 -7.31050
v -1.35000 9.90000 -7.31050
v -1.35000 9.90000 -8.66050
v -1.35000 8.55000 -7.31050
v -1.35000 8.55000 -8.66050
v 0.90000 7.95000 -5.92050
v 0.90000 9.50000 -3.71050
v 0.90000 4.26000 -3.34050
v 0.90000 5.81000 -1.13050
v -0.90000 9.50000 -3.71050
v -0.90000 7.95000 -5.92050
v -0.90000 5.81000 -1.13050
v -0.90000 4.26000 -3.34050
v 1.35000 9.90000 -3.71050
v 1.35000 7.20000 -3.71050
v -1.35000 9.90000 -3.71050
v -1.35000 7.20000 -3.71050
v 0.90000 8.55000 -8.21050
v 0.90000 8.55000 -7.31050
v 0.90000 8.10000 -8.21050
v 0.90000 8.10000 -7.31050
v -0.90000 8.55000 -7.31050
v -0.90000 8.55000 -8.21050
v -0.90000 8.10000 -7.31050
v -0.90000 8.10000 -8.21050
v 1.80000 9.90000 -5.96050
v 1.80000 9.90000 -4.61050
v 1.80000 8.55000 -5.96050
v 1.80000 8.55000 -4.61050
v -1.80000 9.90000 -4.61050
v -1.80000 9.90000 -5.96050
v -1.80000 8.55000 -4.61050
v -1.80000 8.55000 -5.96050
v 1.80500 9.90000 -5.96050
v 1.80500 9.90000 -4.61050
v 1.80500 8.55000 -5.96050
v 1.80500 8.55000 -4.61050
v -1.80500 9.90000 -4.61050
v -1.80500 9.90000 -5.96050
v -1.80500 8.55000 -4.61050
v -1.80500 8.55000 -5.96050
v -1.35000 2.25000 1.00950
v -1.35000 0.00000 1.00950
v -1.35000 0.00000 2.80950
v -3.15000 2.25000 1.00950
v -3.15000 0.00000 2.80950
v -3.15000 0.00000 1.00950
v -1.35000 0.90000 0.10950
v -1.35000 0.90000 1.00950
v -1.35000 0.00000 0.10950
v -3.15000 0.90000 1.00950
v -3.15000 0.90000 0.10950
v -3.15000 0.00000 0.10950
v 3.15000 0.90000 0.10950
v 3.15000 0.90000 1.00950
v 3.15000 0.00000 0.10950
v 3.15000 0.00000 1.00950
v 1.35000 0.90000 1.00950
v 1.35000 0.90000 0.10950
v 1.35000 0.00000 1.00950
v 1.35000 0.00000 0.10950
v 3.15000 2.25000 1.00950
v 3.15000 0.00000 2.80950
v 1.35000 2.25000 1.00950
v 1.35000 0.00000 2.80950
v 2.25000 7.20000 -0.79050
v 2.25000 7.20000 3.25950
v 2.25000 3.60000 -0.79050
v 2.25000 3.60000 3.25950
v -2.25000 7.20000 3.25950
v -2.25000 7.20000 -0.79050
v -2.25000 3.60000 3.25950
v -2.25000 3.60000 -0.79050
v 2.25000 2.70000 -0.79050
v 2.25000 2.70000 3.25950
v -2.25000 2.70000 3.25950
v -2.25000 2.70000 -0.79050
v -1.35000 3.60000 -3.94050
v -1.35000 3.60000 -3.04050
v -1.35000 2.25000 -3.94050
v -1.35000 2.25000 -3.04050
v -2.25000 3.60000 -3.04050
v -2.25000 3.60000 -3.94050
v -2.25000 2.25000 -3.04050
v -2.25000 2.25000 -3.94050
v -1.35000 5.40000 -3.04050
v -1.35000 5.40000 -1.69050
v -1.35000 2.70000 -3.04050
v -1.35000 2.70000 -1.69050
v -2.25000 5.40000 -1.69050
v -2.25000 5.40000 -3.04050
v -2.25000 2.70000 -1.69050
v -2.25000 2.70000 -3.04050
vt 7.83750 -5.00000
vt 7.50000 -5.00000
vt 7.83750 -5.39375
vt 7.50000 -5.39375
vt 7.72500 -5.00000
vt 7.72500 -5.33750
vt 7.50000 -5.33750
vt 7.72500 -5.39375
vt 2.33750 -6.50000
vt 2.00000 -6.50000
vt 2.33750 -6.89375
vt 2.00000 -6.89375
vt 2.22500 -6.50000
vt 2.22500 -6.83750
vt 2.00000 -6.83750
vt 2.22500 -6.89375
vt 4.70000 -4.75000
vt 4.25000 -4.75000
vt 4.70000 -4.97500
vt 4.25000 -4.97500
vt 4.47500 -4.75000
vt 4.47500 -5.20000
vt 4.25000 -5.20000
vt 4.47500 -4.97500
vt 4.47500 -4.50000
vt 4.25000 -4.50000
vt 4.47500 -4.78125
vt 4.25000 -4.78125
vt 4.58750 -4.50000
vt 4.58750 -4.72500
vt 4.25000 -4.72500
vt 4.58750 -4.78125
vt 5.47500 -0.50000
vt 5.25000 -0.50000
vt 5.47500 -0.61250
vt 5.25000 -0.61250
vt 5.58750 -0.50000
vt 5.58750 -0.72500
vt 5.25000 -0.72500
vt 5.58750 -0.61250
vt 6.41875 -1.00000
vt 6.25000 -1.00000
vt 6.41875 -1.33750
vt 6.25000 -1.33750
vt 6.36250 -1.00000
vt 6.36250 -1.16875
vt 6.25000 -1.16875
vt 6.36250 -1.33750
vt 7.36250 -5.75000
vt 7.25000 -5.75000
vt 7.36250 -5.91875
vt 7.25000 -5.91875
vt 7.36250 -5.86250
vt 7.25000 -5.86250
vt 4.08750 -0.75000
vt 3.75000 -0.75000
vt 4.08750 -0.86250
vt 3.75000 -0.86250
vt 4.08750 -1.08750
vt 3.75000 -1.08750
vt 6.33750 -3.00000
vt 6.00000 -3.00000
vt 6.33750 -3.33750
vt 6.00000 -3.33750
vt 2.86250 -3.50000
vt 2.75000 -3.50000
vt 2.86250 -3.61250
vt 2.75000 -3.61250
vt 4.56250 -4.75000
vt 4.00000 -4.75000
vt 4.56250 -4.86250
vt 4.00000 -4.86250
vt 4.33750 -4.75000
vt 4.33750 -5.31250
vt 4.00000 -5.31250
vt 4.33750 -4.86250
vt 3.11250 -3.25000
vt 3.00000 -3.25000
vt 3.11250 -3.36250
vt 3.00000 -3.36250
vt 5.36250 -5.50000
vt 5.25000 -5.50000
vt 5.36250 -5.61250
vt 5.25000 -5.61250
vt 4.86250 -5.75000
vt 4.75000 -5.75000
vt 4.86250 -5.86250
vt 4.75000 -5.86250
vt 3.36250 -1.75000
vt 3.25000 -1.75000
vt 3.36250 -1.86250
vt 3.25000 -1.86250
vt 6.36250 -1.25000
vt 6.25000 -1.25000
vt 6.36250 -1.36250
vt 6.25000 -1.36250
vt 1.66875 -1.75000
vt 1.50000 -1.75000
vt 1.66875 -1.86250
vt 1.50000 -1.86250
vt 1.83750 -1.75000
vt 1.83750 -1.91875
vt 1.50000 -1.91875
vt 1.83750 -1.86250
vt 0.45000 1.00000
vt 0.00000 1.00000
vt 0.45000 0.77500
vt 0.00000 0.77500
vt 0.33750 1.00000
vt 0.33750 0.55000
vt 0.00000 0.55000
vt 0.33750 0.77500
vt 4.91875 -1.25000
vt 4.75000 -1.25000
vt 4.91875 -1.41875
vt 4.75000 -1.41875
vt 5.08750 -1.25000
vt 5.08750 -1.41875
vt 7.08750 -3.00000
vt 6.75000 -3.00000
vt 7.08750 -3.56250
vt 6.75000 -3.56250
vt 6.97500 -3.00000
vt 6.97500 -3.33750
vt 6.75000 -3.33750
vt 6.97500 -3.56250
vt 5.45000 -2.25000
vt 5.00000 -2.25000
vt 5.45000 -2.58750
vt 5.00000 -2.58750
vt 5.33750 -2.25000
vt 5.33750 -2.70000
vt 5.00000 -2.70000
vt 5.33750 -2.58750
vt 0.36250 -1.00000
vt 0.25000 -1.00000
vt 0.36250 -1.05625
vt 0.25000 -1.05625
vt 0.47500 -1.00000
vt 0.47500 -1.11250
vt 0.25000 -1.11250
vt 0.47500 -1.05625
vt 0.91875 -1.75000
vt 0.75000 -1.75000
vt 0.91875 -1.91875
vt 0.75000 -1.91875
vt 1.20000 -1.75000
vt 1.20000 -1.91875
vt 1.00000 1.00000
vt 1.00000 0.00000
vt 0.00000 0.00000
vt 7.47500 -3.00000
vt 7.25000 -3.00000
vt 7.47500 -3.28125
vt 7.25000 -3.28125
vt 7.47500 -3.22500
vt 7.25000 -3.22500
vt 3.11250 -1.00000
vt 3.00000 -1.00000
vt 3.11250 -1.11250
vt 3.00000 -1.11250
vt 3.22500 -1.00000
vt 3.22500 -1.11250
vt 5.36250 -2.75000
vt 5.25000 -2.75000
vt 5.36250 -2.86250
vt 5.25000 -2.86250
vt 5.47500 -2.75000
vt 5.47500 -2.86250
vt 5.22500 -0.25000
vt 5.00000 -0.25000
vt 5.22500 -0.53125
vt 5.00000 -0.53125
vt 5.22500 -0.47500
vt 5.00000 -0.47500
vt 1.75625 -1.50000
vt 1.25000 -1.50000
vt 1.75625 -1.95000
vt 1.25000 -1.95000
vt 1.81250 -1.50000
vt 1.81250 -2.00625
vt 1.25000 -2.00625
vt 1.81250 -1.95000
vt 6.25625 -4.75000
vt 5.75000 -4.75000
vt 6.25625 -4.86250
vt 5.75000 -4.86250
vt 6.31250 -4.75000
vt 6.31250 -5.25625
vt 5.75000 -5.25625
vt 6.31250 -4.86250
vt 5.61250 -3.25000
vt 5.50000 -3.25000
vt 5.61250 -3.41875
vt 5.50000 -3.41875
vt 5.61250 -3.36250
vt 5.50000 -3.36250
vt 1.16875 -4.50000
vt 1.00000 -4.50000
vt 1.16875 -4.83750
vt 1.00000 -4.83750
vt 1.11250 -4.50000
vt 1.11250 -4.66875
vt 1.00000 -4.66875
vt 1.11250 -4.83750
vn 1.0000 0.0000 0.0000
vn 0.0000 1.0000 0.0000
vn 0.0000 0.0000 1.0000
vn -1.0000 0.0000 0.0000
vn 0.0000 -1.0000 0.0000
vn 0.0000 0.0000 -1.0000
vn 0.0000 0.8189 -0.5748
vn 0.0000 0.5748 0.8189
vn 0.0000 -0.8189 0.5748
vn 0.0000 -0.5748 -0.8189

o RightUpperLeg
usemtl c_cc8e69
f 1/1/1 2/2/1 3/3/1
f 3/3/1 2/2/1 4/4/1
f 5/5/2 2/2/2 6/6/2
f 6/6/2 2/2/2 1/7/2
f 2/5/3 5/2/3 4/8/3
f 4/8/3 5/2/3 7/4/3
f 5/1/4 6/2/4 7/3/4
f 7/3/4 6/2/4 8/4/4
f 8/5/5 3/2/5 7/6/5
f 7/6/5 3/2/5 4/7/5
f 6/5/6 1/2/6 8/8/6
f 8/8/6 1/2/6 3/4/6
o LeftUpperLeg
usemtl c_cc8e69
f 9/9/1 10/10/1 11/11/1
f 11/11/1 10/10/1 12/12/1
f 13/13/2 10/10/2 14/14/2
f 14/14/2 10/10/2 9/15/2
f 10/13/3 13/10/3 12/16/3
f 12/16/3 13/10/3 15/12/3
f 13/9/4 14/10/4 15/11/4
f 15/11/4 14/10/4 16/12/4
f 16/13/5 11/10/5 15/14/5
f 15/14/5 11/10/5 12/15/5
f 14/13/6 9/10/6 16/16/6
f 16/16/6 9/10/6 11/12/6
o Tail
usemtl c_cc8e69
f 17/17/1 18/18/1 19/19/1
f 19/19/1 18/18/1 20/20/1
f 21/21/2 18/18/2 22/22/2
f 22/22/2 18/18/2 17/23/2
f 18/21/3 21/18/3 20/24/3
f 20/24/3 21/18/3 23/20/3
f 21/17/4 22/18/4 23/19/4
f 23/19/4 22/18/4 24/20/4
f 24/21/5 19/18/5 23/22/5
f 23/22/5 19/18/5 20/23/5
f 22/21/6 17/18/6 24/24/6
f 24/24/6 17/18/6 19/20/6
f 25/25/1 26/26/1 27/27/1
f 27/27/1 26/26/1 28/28/1
f 29/29/2 26/26/2 30/30/2
f 30/30/2 26/26/2 25/31/2
f 26/29/3 29/26/3 28/32/3
f 28/32/3 29/26/3 31/28/3
f 29/25/4 30/26/4 31/27/4
f 31/27/4 30/26/4 32/28/4
f 32/29/5 27/26/5 31/30/5
f 31/30/5 27/26/5 28/31/5
f 30/29/6 25/26/6 32/32/6
f 32/32/6 25/26/6 27/28/6
usemtl c_eab892
f 27/33/1 28/34/1 33/35/1
f 33/35/1 28/34/1 34/36/1
f 31/37/2 28/34/2 32/38/2
f 32/38/2 28/34/2 27/39/2
f 28/37/3 31/34/3 34/40/3
f 34/40/3 31/34/3 35/36/3
f 31/33/4 32/34/4 35/35/4
f 35/35/4 32/34/4 36/36/4
f 36/37/5 33/34/5 35/38/5
f 35/38/5 33/34/5 34/39/5
f 32/37/6 27/34/6 36/40/6
f 36/40/6 27/34/6 33/36/6
o RightUpperArm
usemtl c_cc8e69
f 37/41/1 38/42/1 39/43/1
f 39/43/1 38/42/1 40/44/1
f 41/45/2 38/42/2 42/46/2
f 42/46/2 38/42/2 37/47/2
f 38/45/3 41/42/3 40/48/3
f 40/48/3 41/42/3 43/44/3
f 41/41/4 42/42/4 43/43/4
f 43/43/4 42/42/4 44/44/4
f 44/45/5 39/42/5 43/46/5
f 43/46/5 39/42/5 40/47/5
f 42/45/6 37/42/6 44/48/6
f 44/48/6 37/42/6 39/44/6
f 45/49/1 46/50/1 47/51/1
f 47/51/1 46/50/1 48/52/1
f 49/49/2 46/50/2 50/53/2
f 50/53/2 46/50/2 45/54/2
f 46/49/3 49/50/3 48/51/3
f 48/51/3 49/50/3 51/52/3
f 49/49/4 50/50/4 51/51/4
f 51/51/4 50/50/4 52/52/4
f 52/49/5 47/50/5 51/53/5
f 51/53/5 47/50/5 48/54/5
f 50/49/6 45/50/6 52/51/6
f 52/51/6 45/50/6 47/52/6
o UpperTorso
usemtl c_eab892
f 53/55/1 54/56/1 55/57/1
f 55/57/1 54/56/1 56/58/1
f 57/55/2 54/56/2 58/59/2
f 58/59/2 54/56/2 53/60/2
f 54/55/3 57/56/3 56/57/3
f 56/57/3 57/56/3 59/58/3
f 57/55/4 58/56/4 59/57/4
f 59/57/4 58/56/4 60/58/4
f 60/55/5 55/56/5 59/59/5
f 59/59/5 55/56/5 56/60/5
f 58/55/6 53/56/6 60/57/6
f 60/57/6 53/56/6 55/58/6
usemtl c_cc8e69
f 61/61/1 62/62/1 53/63/1
f 53/63/1 62/62/1 54/64/1
f 63/61/2 62/62/2 64/63/2
f 64/63/2 62/62/2 61/64/2
f 62/61/3 63/62/3 54/63/3
f 54/63/3 63/62/3 57/64/3
f 63/61/4 64/62/4 57/63/4
f 57/63/4 64/62/4 58/64/4
f 58/61/5 53/62/5 57/63/5
f 57/63/5 53/62/5 54/64/5
f 64/61/6 61/62/6 58/63/6
f 58/63/6 61/62/6 53/64/6
o Head
usemtl c_5a4c42
f 65/65/1 66/66/1 67/67/1
f 67/67/1 66/66/1 68/68/1
f 69/65/2 66/66/2 70/67/2
f 70/67/2 66/66/2 65/68/2
f 66/65/3 69/66/3 68/67/3
f 68/67/3 69/66/3 71/68/3
f 69/65/4 70/66/4 71/67/4
f 71/67/4 70/66/4 72/68/4
f 72/65/5 67/66/5 71/67/5
f 71/67/5 67/66/5 68/68/5
f 70/65/6 65/66/6 72/67/6
f 72/67/6 65/66/6 67/68/6
f 73/69/1 74/70/1 75/71/1
f 75/71/1 74/70/1 76/72/1
f 77/73/2 74/70/2 78/74/2
f 78/74/2 74/70/2 73/75/2
f 74/73/3 77/70/3 76/76/3
f 76/76/3 77/70/3 79/72/3
f 77/69/4 78/70/4 79/71/4
f 79/71/4 78/70/4 80/72/4
f 80/73/5 75/70/5 79/74/5
f 79/74/5 75/70/5 76/75/5
f 78/73/6 73/70/6 80/76/6
f 80/76/6 73/70/6 75/72/6
f 74/77/1 81/78/1 76/79/1
f 76/79/1 81/78/1 82/80/1
f 83/77/2 81/78/2 84/79/2
f 84/79/2 81/78/2 74/80/2
f 81/77/3 83/78/3 82/79/3
f 82/79/3 83/78/3 85/80/3
f 83/77/4 84/78/4 85/79/4
f 85/79/4 84/78/4 86/80/4
f 86/77/5 76/78/5 85/79/5
f 85/79/5 76/78/5 82/80/5
f 84/77/6 74/78/6 86/79/6
f 86/79/6 74/78/6 76/80/6
f 87/81/1 88/82/1 89/83/1
f 89/83/1 88/82/1 90/84/1
f 91/81/2 88/82/2 77/83/2
f 77/83/2 88/82/2 87/84/2
f 88/81/3 91/82/3 90/83/3
f 90/83/3 91/82/3 92/84/3
f 91/81/4 77/82/4 92/83/4
f 92/83/4 77/82/4 79/84/4
f 79/81/5 89/82/5 92/83/5
f 92/83/5 89/82/5 90/84/5
f 77/81/6 87/82/6 79/83/6
f 79/83/6 87/82/6 89/84/6
f 93/85/1 94/86/1 95/87/1
f 95/87/1 94/86/1 96/88/1
f 97/85/2 94/86/2 98/87/2
f 98/87/2 94/86/2 93/88/2
f 94/85/3 97/86/3 96/87/3
f 96/87/3 97/86/3 99/88/3
f 97/85/4 98/86/4 99/87/4
f 99/87/4 98/86/4 100/88/4
f 100/85/5 95/86/5 99/87/5
f 99/87/5 95/86/5 96/88/5
f 98/85/6 93/86/6 100/87/6
f 100/87/6 93/86/6 95/88/6
f 101/89/1 102/90/1 103/91/1
f 103/91/1 102/90/1 104/92/1
f 105/89/2 102/90/2 106/91/2
f 106/91/2 102/90/2 101/92/2
f 102/89/3 105/90/3 104/91/3
f 104/91/3 105/90/3 107/92/3
f 105/89/4 106/90/4 107/91/4
f 107/91/4 106/90/4 108/92/4
f 108/89/5 103/90/5 107/91/5
f 107/91/5 103/90/5 104/92/5
f 106/89/6 101/90/6 108/91/6
f 108/91/6 101/90/6 103/92/6
f 109/93/1 110/94/1 111/95/1
f 111/95/1 110/94/1 112/96/1
f 113/93/2 110/94/2 114/95/2
f 114/95/2 110/94/2 109/96/2
f 110/93/3 113/94/3 112/95/3
f 112/95/3 113/94/3 115/96/3
f 113/93/4 114/94/4 115/95/4
f 115/95/4 114/94/4 116/96/4
f 116/93/5 111/94/5 115/95/5
f 115/95/5 111/94/5 112/96/5
f 114/93/6 109/94/6 116/95/6
f 116/95/6 109/94/6 111/96/6
usemtl c_7c5c46
f 117/97/1 118/98/1 119/99/1
f 119/99/1 118/98/1 120/100/1
f 121/101/2 118/98/2 122/102/2
f 122/102/2 118/98/2 117/103/2
f 118/101/3 121/98/3 120/104/3
f 120/104/3 121/98/3 123/100/3
f 121/97/4 122/98/4 123/99/4
f 123/99/4 122/98/4 124/100/4
f 124/101/5 119/98/5 123/102/5
f 123/102/5 119/98/5 120/103/5
f 122/101/6 117/98/6 124/104/6
f 124/104/6 117/98/6 119/100/6
f 125/105/1 126/106/1 127/107/1
f 127/107/1 126/106/1 128/108/1
f 129/109/2 126/106/2 130/110/2
f 130/110/2 126/106/2 125/111/2
f 126/109/3 129/106/3 128/112/3
f 128/112/3 129/106/3 131/108/3
f 129/105/4 130/106/4 131/107/4
f 131/107/4 130/106/4 132/108/4
f 132/109/5 127/106/5 131/110/5
f 131/110/5 127/106/5 128/111/5
f 130/109/6 125/106/6 132/112/6
f 132/112/6 125/106/6 127/108/6
f 133/113/1 134/114/1 135/115/1
f 135/115/1 134/114/1 136/116/1
f 137/117/2 134/114/2 138/118/2
f 138/118/2 134/114/2 133/116/2
f 134/117/3 137/114/3 136/118/3
f 136/118/3 137/114/3 139/116/3
f 137/113/4 138/114/4 139/115/4
f 139/115/4 138/114/4 140/116/4
f 140/117/5 135/114/5 139/118/5
f 139/118/5 135/114/5 136/116/5
f 138/117/6 133/114/6 140/118/6
f 140/118/6 133/114/6 135/116/6
usemtl c_cc8e69
f 141/119/1 142/120/1 143/121/1
f 143/121/1 142/120/1 144/122/1
f 145/123/7 142/120/7 146/124/7
f 146/124/7 142/120/7 141/125/7
f 142/123/8 145/120/8 144/126/8
f 144/126/8 145/120/8 147/122/8
f 145/119/4 146/120/4 147/121/4
f 147/121/4 146/120/4 148/122/4
f 148/123/9 143/120/9 147/124/9
f 147/124/9 143/120/9 144/125/9
f 146/123/10 141/120/10 148/126/10
f 148/126/10 141/120/10 143/122/10
f 134/127/1 149/128/1 120/129/1
f 120/129/1 149/128/1 150/130/1
f 151/131/2 149/128/2 137/132/2
f 137/132/2 149/128/2 134/133/2
f 149/131/3 151/128/3 150/134/3
f 150/134/3 151/128/3 152/130/3
f 151/127/4 137/128/4 152/129/4
f 152/129/4 137/128/4 123/130/4
f 123/131/5 120/128/5 152/132/5
f 152/132/5 120/128/5 150/133/5
f 137/131/6 134/128/6 123/134/6
f 123/134/6 134/128/6 120/130/6
usemtl c_c4281c
f 153/135/1 154/136/1 155/137/1
f 155/137/1 154/136/1 156/138/1
f 157/139/2 154/136/2 158/140/2
f 158/140/2 154/136/2 153/141/2
f 154/139/3 157/136/3 156/142/3
f 156/142/3 157/136/3 159/138/3
f 157/135/4 158/136/4 159/137/4
f 159/137/4 158/136/4 160/138/4
f 160/139/5 155/136/5 159/140/5
f 159/140/5 155/136/5 156/141/5
f 158/139/6 153/136/6 160/142/6
f 160/142/6 153/136/6 155/138/6
usemtl c_f8f8f8
f 161/143/1 162/144/1 163/145/1
f 163/145/1 162/144/1 164/146/1
f 165/147/2 162/144/2 166/148/2
f 166/148/2 162/144/2 161/146/2
f 162/147/3 165/144/3 164/148/3
f 164/148/3 165/144/3 167/146/3
f 165/143/4 166/144/4 167/145/4
f 167/145/4 166/144/4 168/146/4
f 168/147/5 163/144/5 167/148/5
f 167/148/5 163/144/5 164/146/5
f 166/147/6 161/144/6 168/148/6
f 168/148/6 161/144/6 163/146/6
o Head_decal1
usemtl head_decal1
f 169/149/1 170/106/1 171/150/1
f 171/150/1 170/106/1 172/151/1
o Head_decal2
usemtl head_decal2
f 173/149/4 174/106/4 175/150/4
f 175/150/4 174/106/4 176/151/4
o LeftLowerLeg
usemtl c_cc8e69
f 177/152/1 12/153/1 178/154/1
f 178/154/1 12/153/1 179/155/1
f 15/152/2 12/153/2 180/156/2
f 180/156/2 12/153/2 177/157/2
f 12/152/3 15/153/3 179/154/3
f 179/154/3 15/153/3 181/155/3
f 15/152/4 180/153/4 181/154/4
f 181/154/4 180/153/4 182/155/4
f 182/152/5 178/153/5 181/156/5
f 181/156/5 178/153/5 179/157/5
f 180/152/6 177/153/6 182/154/6
f 182/154/6 177/153/6 178/155/6
usemtl c_1b2a35
f 183/158/1 184/159/1 185/160/1
f 185/160/1 184/159/1 178/161/1
f 186/162/2 184/159/2 187/163/2
f 187/163/2 184/159/2 183/161/2
f 184/162/3 186/159/3 178/163/3
f 178/163/3 186/159/3 182/161/3
f 186/158/4 187/159/4 182/160/4
f 182/160/4 187/159/4 188/161/4
f 188/162/5 185/159/5 182/163/5
f 182/163/5 185/159/5 178/161/5
f 187/162/6 183/159/6 188/163/6
f 188/163/6 183/159/6 185/161/6
o RightLowerLeg
usemtl c_1b2a35
f 189/164/1 190/165/1 191/166/1
f 191/166/1 190/165/1 192/167/1
f 193/168/2 190/165/2 194/169/2
f 194/169/2 190/165/2 189/167/2
f 190/168/3 193/165/3 192/169/3
f 192/169/3 193/165/3 195/167/3
f 193/164/4 194/165/4 195/166/4
f 195/166/4 194/165/4 196/167/4
f 196/168/5 191/165/5 195/169/5
f 195/169/5 191/165/5 192/167/5
f 194/168/6 189/165/6 196/169/6
f 196/169/6 189/165/6 191/167/6
usemtl c_cc8e69
f 197/170/1 4/171/1 192/172/1
f 192/172/1 4/171/1 198/173/1
f 7/170/2 4/171/2 199/174/2
f 199/174/2 4/171/2 197/175/2
f 4/170/3 7/171/3 198/172/3
f 198/172/3 7/171/3 200/173/3
f 7/170/4 199/171/4 200/172/4
f 200/172/4 199/171/4 195/173/4
f 195/170/5 192/171/5 200/174/5
f 200/174/5 192/171/5 198/175/5
f 199/170/6 197/171/6 195/172/6
f 195/172/6 197/171/6 192/173/6
o LowerTorso
usemtl c_cc8e69
f 201/176/1 202/177/1 203/178/1
f 203/178/1 202/177/1 204/179/1
f 205/180/2 202/177/2 206/181/2
f 206/181/2 202/177/2 201/182/2
f 202/180/3 205/177/3 204/183/3
f 204/183/3 205/177/3 207/179/3
f 205/176/4 206/177/4 207/178/4
f 207/178/4 206/177/4 208/179/4
f 208/180/5 203/177/5 207/181/5
f 207/181/5 203/177/5 204/182/5
f 206/180/6 201/177/6 208/183/6
f 208/183/6 201/177/6 203/179/6
usemtl c_eab892
f 203/184/1 204/185/1 209/186/1
f 209/186/1 204/185/1 210/187/1
f 207/188/2 204/185/2 208/189/2
f 208/189/2 204/185/2 203/190/2
f 204/188/3 207/185/3 210/191/3
f 210/191/3 207/185/3 211/187/3
f 207/184/4 208/185/4 211/186/4
f 211/186/4 208/185/4 212/187/4
f 212/188/5 209/185/5 211/189/5
f 211/189/5 209/185/5 210/190/5
f 208/188/6 203/185/6 212/191/6
f 212/191/6 203/185/6 209/187/6
o LeftUpperArm
usemtl c_cc8e69
f 213/192/1 214/193/1 215/194/1
f 215/194/1 214/193/1 216/195/1
f 217/192/2 214/193/2 218/196/2
f 218/196/2 214/193/2 213/197/2
f 214/192/3 217/193/3 216/194/3
f 216/194/3 217/193/3 219/195/3
f 217/192/4 218/193/4 219/194/4
f 219/194/4 218/193/4 220/195/4
f 220/192/5 215/193/5 219/196/5
f 219/196/5 215/193/5 216/197/5
f 218/192/6 213/193/6 220/194/6
f 220/194/6 213/193/6 215/195/6
f 221/198/1 222/199/1 223/200/1
f 223/200/1 222/199/1 224/201/1
f 225/202/2 222/199/2 226/203/2
f 226/203/2 222/199/2 221/204/2
f 222/202/3 225/199/3 224/205/3
f 224/205/3 225/199/3 227/201/3
f 225/198/4 226/199/4 227/200/4
f 227/200/4 226/199/4 228/201/4
f 228/202/5 223/199/5 227/203/5
f 227/203/5 223/199/5 224/204/5
f 226/202/6 221/199/6 228/205/6
f 228/205/6 221/199/6 223/201/6
