# Roblox asset pack: headphones (accessories). Exported from Roblox Studio with Export Selection, then split/renamed/re-centred by tools/process_export.py. Units: studs (1 stud = 1 unit). +Y up. Pivot (HatAttachment) at the origin.
mtllib headphones.mtl

v 0.76840 0.08614 -0.11000
v 0.67400 0.27931 -0.11000
v 0.76840 0.08614 0.11000
v 0.67400 0.27931 0.11000
v 0.57280 0.40276 -0.11000
v 0.57280 0.40276 0.11000
v 0.44930 0.50396 -0.11000
v 0.44930 0.50396 0.11000
v 0.25610 0.59843 -0.11000
v 0.25610 0.59843 0.11000
v 0.00000 0.64000 -0.11000
v 0.00000 0.64000 0.11000
v -0.25610 0.59843 -0.11000
v -0.25610 0.59843 0.11000
v -0.44930 0.50396 -0.11000
v -0.44930 0.50396 0.11000
v -0.57280 0.40276 -0.11000
v -0.57280 0.40276 0.11000
v -0.67400 0.27931 0.11000
v -0.67400 0.27931 -0.11000
v -0.76840 0.08614 0.11000
v -0.76840 0.08614 -0.11000
v -0.71190 -0.12000 0.11000
v -0.80190 -0.12000 0.11000
v -0.68310 0.05768 0.11000
v -0.22770 0.51305 -0.11000
v -0.39940 0.42908 -0.11000
v -0.80190 -0.12000 0.01570
v -0.59910 0.22938 0.11000
v 0.68310 0.05768 0.11000
v 0.71190 -0.12000 0.11000
v 0.80190 -0.12000 0.11000
v 0.80190 -0.12000 0.06710
v 0.59910 0.22938 0.11000
v 0.22770 0.51305 -0.11000
v 0.00000 0.55000 -0.11000
v -0.50910 0.33912 0.11000
v -0.39940 0.42908 0.11000
v -0.22770 0.51305 0.11000
v 0.00000 0.55000 0.11000
v 0.59910 0.22938 -0.11000
v 0.50910 0.33912 -0.11000
v 0.39940 0.42908 -0.11000
v 0.50910 0.33912 0.11000
v 0.39940 0.42908 0.11000
v 0.22770 0.51305 0.11000
v -0.80190 -0.12000 -0.11000
v -0.68310 0.05768 -0.11000
v -0.71190 -0.12000 -0.11000
v -0.59910 0.22938 -0.11000
v 0.80190 -0.12000 -0.11000
v 0.71190 -0.12000 -0.11000
v 0.68310 0.05768 -0.11000
v -0.50910 0.33912 -0.11000
v -0.58000 -0.60000 0.00000
v -0.58000 -0.42804 -0.25790
v -0.58000 -0.38080 -0.21920
v -0.58000 -0.50197 -0.29410
v -0.58000 -0.60000 -0.31000
v -0.58000 -0.69803 -0.29410
v -0.58000 -0.77196 -0.25790
v -0.58000 -0.81920 -0.21920
v -0.58000 -0.85794 -0.17200
v -0.58000 -0.89409 -0.09800
v -0.58000 -0.91000 0.00000
v -0.58000 -0.89409 0.09800
v -0.58000 -0.85794 0.17200
v -0.58000 -0.81920 0.21920
v -0.58000 -0.77196 0.25790
v -0.58000 -0.69803 0.29410
v -0.58000 -0.60000 0.31000
v -0.58000 -0.50197 0.29410
v -0.58000 -0.42804 0.25790
v -0.58000 -0.38080 0.21920
v -0.58000 -0.34206 0.17200
v -0.58000 -0.30591 0.09800
v -0.58000 -0.29000 0.00000
v -0.58000 -0.30591 -0.09800
v -0.58000 -0.34206 -0.17200
v -0.86000 -0.38080 0.21920
v -0.86000 -0.34206 0.17200
v -0.86000 -0.30591 0.09800
v -0.86000 -0.29000 0.00000
v -0.86000 -0.30591 -0.09800
v -0.86000 -0.34206 -0.17200
v -0.86000 -0.38080 -0.21920
v -0.86000 -0.42804 0.25790
v -0.86000 -0.50197 0.29410
v -0.86000 -0.60000 0.31000
v -0.86000 -0.69803 0.29410
v -0.86000 -0.77196 0.25790
v -0.86000 -0.81920 0.21920
v -0.86000 -0.60000 0.00000
v -0.86000 -0.85794 0.17200
v -0.86000 -0.89409 0.09800
v -0.86000 -0.91000 0.00000
v -0.86000 -0.89409 -0.09800
v -0.86000 -0.85794 -0.17200
v -0.86000 -0.81920 -0.21920
v -0.86000 -0.77196 -0.25790
v -0.86000 -0.69803 -0.29410
v -0.86000 -0.60000 -0.31000
v -0.86000 -0.50197 -0.29410
v -0.86000 -0.42804 -0.25790
v -0.55000 -0.60000 0.00000
v -0.55000 -0.45578 -0.21630
v -0.55000 -0.41615 -0.18380
v -0.55000 -0.51778 -0.24670
v -0.55000 -0.60000 -0.26000
v -0.55000 -0.68222 -0.24670
v -0.55000 -0.74422 -0.21630
v -0.55000 -0.78385 -0.18380
v -0.55000 -0.81633 -0.14420
v -0.55000 -0.84666 -0.08220
v -0.55000 -0.86000 0.00000
v -0.55000 -0.84666 0.08220
v -0.55000 -0.81633 0.14420
v -0.55000 -0.78385 0.18380
v -0.55000 -0.74422 0.21630
v -0.55000 -0.68222 0.24670
v -0.55000 -0.60000 0.26000
v -0.55000 -0.51778 0.24670
v -0.55000 -0.45578 0.21630
v -0.55000 -0.41615 0.18380
v -0.55000 -0.38367 0.14420
v -0.55000 -0.35334 0.08220
v -0.55000 -0.34000 0.00000
v -0.55000 -0.35334 -0.08220
v -0.55000 -0.38367 -0.14420
v -0.65000 -0.41615 0.18380
v -0.65000 -0.38367 0.14420
v -0.65000 -0.35334 0.08220
v -0.65000 -0.34000 0.00000
v -0.65000 -0.35334 -0.08220
v -0.65000 -0.38367 -0.14420
v -0.65000 -0.41615 -0.18380
v -0.65000 -0.45578 0.21630
v -0.65000 -0.51778 0.24670
v -0.65000 -0.60000 0.26000
v -0.65000 -0.68222 0.24670
v -0.65000 -0.74422 0.21630
v -0.65000 -0.78385 0.18380
v -0.65000 -0.60000 0.00000
v -0.65000 -0.81633 0.14420
v -0.65000 -0.84666 0.08220
v -0.65000 -0.86000 0.00000
v -0.65000 -0.84666 -0.08220
v -0.65000 -0.81633 -0.14420
v -0.65000 -0.78385 -0.18380
v -0.65000 -0.74422 -0.21630
v -0.65000 -0.68222 -0.24670
v -0.65000 -0.60000 -0.26000
v -0.65000 -0.51778 -0.24670
v -0.65000 -0.45578 -0.21630
v 0.86000 -0.60000 0.00000
v 0.86000 -0.42804 -0.25790
v 0.86000 -0.38080 -0.21920
v 0.86000 -0.50197 -0.29410
v 0.86000 -0.60000 -0.31000
v 0.86000 -0.69803 -0.29410
v 0.86000 -0.77196 -0.25790
v 0.86000 -0.81920 -0.21920
v 0.86000 -0.85794 -0.17200
v 0.86000 -0.89409 -0.09800
v 0.86000 -0.91000 0.00000
v 0.86000 -0.89409 0.09800
v 0.86000 -0.85794 0.17200
v 0.86000 -0.81920 0.21920
v 0.86000 -0.77196 0.25790
v 0.86000 -0.69803 0.29410
v 0.86000 -0.60000 0.31000
v 0.86000 -0.50197 0.29410
v 0.86000 -0.42804 0.25790
v 0.86000 -0.38080 0.21920
v 0.86000 -0.34206 0.17200
v 0.86000 -0.30591 0.09800
v 0.86000 -0.29000 0.00000
v 0.86000 -0.30591 -0.09800
v 0.86000 -0.34206 -0.17200
v 0.58000 -0.38080 0.21920
v 0.58000 -0.34206 0.17200
v 0.58000 -0.30591 0.09800
v 0.58000 -0.29000 0.00000
v 0.58000 -0.30591 -0.09800
v 0.58000 -0.34206 -0.17200
v 0.58000 -0.38080 -0.21920
v 0.58000 -0.42804 0.25790
v 0.58000 -0.50197 0.29410
v 0.58000 -0.60000 0.31000
v 0.58000 -0.69803 0.29410
v 0.58000 -0.77196 0.25790
v 0.58000 -0.81920 0.21920
v 0.58000 -0.60000 0.00000
v 0.58000 -0.85794 0.17200
v 0.58000 -0.89409 0.09800
v 0.58000 -0.91000 0.00000
v 0.58000 -0.89409 -0.09800
v 0.58000 -0.85794 -0.17200
v 0.58000 -0.81920 -0.21920
v 0.58000 -0.77196 -0.25790
v 0.58000 -0.69803 -0.29410
v 0.58000 -0.60000 -0.31000
v 0.58000 -0.50197 -0.29410
v 0.58000 -0.42804 -0.25790
v 0.65000 -0.60000 0.00000
v 0.65000 -0.45578 -0.21630
v 0.65000 -0.41615 -0.18380
v 0.65000 -0.51778 -0.24670
v 0.65000 -0.60000 -0.26000
v 0.65000 -0.68222 -0.24670
v 0.65000 -0.74422 -0.21630
v 0.65000 -0.78385 -0.18380
v 0.65000 -0.81633 -0.14420
v 0.65000 -0.84666 -0.08220
v 0.65000 -0.86000 0.00000
v 0.65000 -0.84666 0.08220
v 0.65000 -0.81633 0.14420
v 0.65000 -0.78385 0.18380
v 0.65000 -0.74422 0.21630
v 0.65000 -0.68222 0.24670
v 0.65000 -0.60000 0.26000
v 0.65000 -0.51778 0.24670
v 0.65000 -0.45578 0.21630
v 0.65000 -0.41615 0.18380
v 0.65000 -0.38367 0.14420
v 0.65000 -0.35334 0.08220
v 0.65000 -0.34000 0.00000
v 0.65000 -0.35334 -0.08220
v 0.65000 -0.38367 -0.14420
v 0.55000 -0.41615 0.18380
v 0.55000 -0.38367 0.14420
v 0.55000 -0.35334 0.08220
v 0.55000 -0.34000 0.00000
v 0.55000 -0.35334 -0.08220
v 0.55000 -0.38367 -0.14420
v 0.55000 -0.41615 -0.18380
v 0.55000 -0.45578 0.21630
v 0.55000 -0.51778 0.24670
v 0.55000 -0.60000 0.26000
v 0.55000 -0.68222 0.24670
v 0.55000 -0.74422 0.21630
v 0.55000 -0.78385 0.18380
v 0.55000 -0.60000 0.00000
v 0.55000 -0.81633 0.14420
v 0.55000 -0.84666 0.08220
v 0.55000 -0.86000 0.00000
v 0.55000 -0.84666 -0.08220
v 0.55000 -0.81633 -0.14420
v 0.55000 -0.78385 -0.18380
v 0.55000 -0.74422 -0.21630
v 0.55000 -0.68222 -0.24670
v 0.55000 -0.60000 -0.26000
v 0.55000 -0.51778 -0.24670
v 0.55000 -0.45578 -0.21630
vt 16.01380 -15.02170
vt 16.01380 -14.99760
vt 15.98620 -15.02170
vt 15.98620 -14.99760
vt 16.01380 -14.98220
vt 15.98620 -14.98220
vt 15.98620 -14.92840
vt 15.98620 -14.94380
vt 16.01380 -14.92840
vt 16.01380 -14.94380
vt 15.98620 -14.96800
vt 16.01380 -14.96800
vt 15.98620 -15.00000
vt 16.01380 -15.00000
vt 15.98620 -15.03200
vt 16.01380 -15.03200
vt 15.98620 -15.05620
vt 16.01380 -15.05620
vt 15.98620 -15.07160
vt 16.01380 -15.07160
vt 16.03200 -14.95770
vt 16.00000 -14.95250
vt 16.05620 -14.96950
vt 15.96800 -14.95770
vt 16.09610 -15.02170
vt 16.08420 -14.99760
vt 16.07160 -14.98220
vt 15.91100 -15.04750
vt 15.90390 -15.02170
vt 15.89980 -15.04750
vt 15.91460 -15.02530
vt 16.02850 -14.96840
vt 16.04990 -14.97890
vt 16.01380 -15.04750
vt 16.00200 -15.04750
vt 15.92510 -15.00380
vt 15.91580 -14.99760
vt 16.08540 -15.02530
vt 16.08900 -15.04750
vt 16.10020 -15.04750
vt 15.98620 -15.04750
vt 15.99160 -15.04750
vt 16.07490 -15.00380
vt 15.97150 -14.96840
vt 16.00000 -14.96370
vt 15.93640 -14.99010
vt 15.92840 -14.98220
vt 15.95010 -14.97890
vt 15.94380 -14.96950
vt 16.06360 -14.99010
vt 15.98620 -15.02530
vt 15.98620 -15.00380
vt 16.01380 -15.02530
vt 16.01380 -15.00380
vt 15.98620 -14.99010
vt 15.98620 -15.06360
vt 16.01380 -15.06360
vt 15.98620 -15.04990
vt 16.01380 -15.04990
vt 15.98620 -15.02850
vt 16.01380 -15.02850
vt 16.01380 -14.99010
vt 16.01380 -14.95010
vt 15.98620 -14.93640
vt 15.98620 -14.95010
vt 15.98620 -14.97150
vt 16.01380 -14.97150
vt 16.01380 -14.93640
vt 15.99800 -15.10020
vt 15.98620 -15.08900
vt 15.98620 -15.10020
vt 16.01380 -15.08900
vt 15.98620 -14.89980
vt 15.98620 -14.91100
vt 16.01380 -14.91100
vt 15.99160 -14.89980
vt 16.01380 -14.89980
vt 16.01380 -15.10020
vt 2.03875 -2.78875
vt 2.07099 -2.76726
vt 2.06615 -2.76135
vt 2.07551 -2.77650
vt 2.07750 -2.78875
vt 2.07551 -2.80100
vt 2.07099 -2.81024
vt 2.06615 -2.81615
vt 2.06024 -2.82099
vt 2.05100 -2.82551
vt 2.03875 -2.82750
vt 2.02650 -2.82551
vt 2.01726 -2.82099
vt 2.01135 -2.81615
vt 2.00651 -2.81024
vt 2.00199 -2.80100
vt 2.00000 -2.78875
vt 2.00199 -2.77650
vt 2.00651 -2.76726
vt 2.01135 -2.76135
vt 2.01726 -2.75651
vt 2.02650 -2.75199
vt 2.03875 -2.75000
vt 2.05100 -2.75199
vt 2.06024 -2.75651
vt 2.03500 -2.75000
vt 2.00000 -2.75000
vt 2.03500 -2.76292
vt 2.00000 -2.76292
vt 2.03500 -2.77583
vt 2.00000 -2.77583
vt 2.03500 -2.78875
vt 2.03500 -2.80167
vt 2.00000 -2.80167
vt 2.03500 -2.81458
vt 2.00000 -2.81458
vt 2.03500 -2.82750
vt 2.00000 -2.82750
vt 7.28250 -4.53250
vt 7.30954 -4.51447
vt 7.30548 -4.50952
vt 7.31333 -4.52222
vt 7.31500 -4.53250
vt 7.31333 -4.54278
vt 7.30954 -4.55053
vt 7.30548 -4.55548
vt 7.30053 -4.55954
vt 7.29278 -4.56333
vt 7.28250 -4.56500
vt 7.27222 -4.56333
vt 7.26447 -4.55954
vt 7.25952 -4.55548
vt 7.25546 -4.55053
vt 7.25167 -4.54278
vt 7.25000 -4.53250
vt 7.25167 -4.52222
vt 7.25546 -4.51447
vt 7.25952 -4.50952
vt 7.26447 -4.50546
vt 7.27222 -4.50167
vt 7.28250 -4.50000
vt 7.29278 -4.50167
vt 7.30053 -4.50546
vt 7.26250 -4.50000
vt 7.25000 -4.50000
vt 7.26250 -4.51083
vt 7.25000 -4.51083
vt 7.26250 -4.52167
vt 7.25000 -4.52167
vt 7.26250 -4.53250
vt 7.26250 -4.54333
vt 7.25000 -4.54333
vt 7.26250 -4.55417
vt 7.25000 -4.55417
vt 7.26250 -4.56500
vt 7.25000 -4.56500
vt 6.03875 -4.78875
vt 6.07099 -4.76726
vt 6.06615 -4.76135
vt 6.07551 -4.77650
vt 6.07750 -4.78875
vt 6.07551 -4.80100
vt 6.07099 -4.81024
vt 6.06615 -4.81615
vt 6.06024 -4.82099
vt 6.05100 -4.82551
vt 6.03875 -4.82750
vt 6.02650 -4.82551
vt 6.01726 -4.82099
vt 6.01135 -4.81615
vt 6.00651 -4.81024
vt 6.00199 -4.80100
vt 6.00000 -4.78875
vt 6.00199 -4.77650
vt 6.00651 -4.76726
vt 6.01135 -4.76135
vt 6.01726 -4.75651
vt 6.02650 -4.75199
vt 6.03875 -4.75000
vt 6.05100 -4.75199
vt 6.06024 -4.75651
vt 6.03500 -4.75000
vt 6.00000 -4.75000
vt 6.03500 -4.76292
vt 6.00000 -4.76292
vt 6.03500 -4.77583
vt 6.00000 -4.77583
vt 6.03500 -4.78875
vt 6.03500 -4.80167
vt 6.00000 -4.80167
vt 6.03500 -4.81458
vt 6.00000 -4.81458
vt 6.03500 -4.82750
vt 6.00000 -4.82750
vt 7.78250 -5.78250
vt 7.80954 -5.76447
vt 7.80548 -5.75952
vt 7.81333 -5.77222
vt 7.81500 -5.78250
vt 7.81333 -5.79278
vt 7.80954 -5.80053
vt 7.80548 -5.80548
vt 7.80053 -5.80954
vt 7.79278 -5.81333
vt 7.78250 -5.81500
vt 7.77222 -5.81333
vt 7.76447 -5.80954
vt 7.75952 -5.80548
vt 7.75546 -5.80053
vt 7.75167 -5.79278
vt 7.75000 -5.78250
vt 7.75167 -5.77222
vt 7.75546 -5.76447
vt 7.75952 -5.75952
vt 7.76447 -5.75546
vt 7.77222 -5.75167
vt 7.78250 -5.75000
vt 7.79278 -5.75167
vt 7.80053 -5.75546
vt 7.76250 -5.75000
vt 7.75000 -5.75000
vt 7.76250 -5.76083
vt 7.75000 -5.76083
vt 7.76250 -5.77167
vt 7.75000 -5.77167
vt 7.76250 -5.78250
vt 7.76250 -5.79333
vt 7.75000 -5.79333
vt 7.76250 -5.80417
vt 7.75000 -5.80417
vt 7.76250 -5.81500
vt 7.75000 -5.81500
vn 0.9449 0.3150 0.0000
vn 0.8346 0.5512 0.0000
vn 0.7087 0.7087 0.0000
vn 0.5512 0.8346 0.0000
vn 0.3150 0.9449 0.0000
vn 0.0000 1.0000 0.0000
vn -0.3150 0.9449 0.0000
vn -0.5512 0.8346 0.0000
vn -0.7087 0.7087 0.0000
vn -0.8346 0.5512 0.0000
vn -0.9449 0.3150 0.0000
vn 0.0000 0.0000 -1.0000
vn 0.0000 0.0000 1.0000
vn -1.0000 0.0630 0.0000
vn 1.0000 0.0630 0.0000
vn 1.0000 -0.0709 0.0000
vn 0.9449 -0.3150 0.0000
vn 0.8346 -0.5512 0.0000
vn -0.9449 -0.3150 0.0000
vn -1.0000 -0.0709 0.0000
vn -0.8346 -0.5512 0.0000
vn 0.7087 -0.7087 0.0000
vn 0.5512 -0.8346 0.0000
vn 0.3150 -0.9449 0.0000
vn 0.0000 -1.0000 0.0000
vn -0.7087 -0.7087 0.0000
vn -0.5512 -0.8346 0.0000
vn -0.3150 -0.9449 0.0000
vn 1.0000 0.0000 0.0000
vn 0.0000 0.7087 0.7087
vn 0.0000 0.8346 0.5512
vn 0.0000 0.9449 0.3150
vn 0.0000 0.9449 -0.3150
vn 0.0000 0.8346 -0.5512
vn 0.0000 0.7087 -0.7087
vn 0.0000 0.5512 0.8346
vn 0.0000 0.3150 0.9449
vn 0.0000 -0.3150 0.9449
vn 0.0000 -0.5512 0.8346
vn 0.0000 -0.7087 0.7087
vn -1.0000 0.0000 0.0000
vn 0.0000 -0.7087 -0.7087
vn 0.0000 -0.8346 -0.5512
vn 0.0000 -0.9449 -0.3150
vn 0.0000 -0.9449 0.3150
vn 0.0000 -0.8346 0.5512
vn 0.0000 0.5512 -0.8346
vn 0.0000 0.3150 -0.9449
vn 0.0000 -0.3150 -0.9449
vn 0.0000 -0.5512 -0.8346

o Headband
usemtl headband
f 1/1/1 2/2/2 3/3/1
f 2/2/2 4/4/2 3/3/1
f 2/2/2 5/5/3 4/4/2
f 5/5/3 6/6/3 4/4/2
f 5/7/3 7/8/4 6/9/3
f 7/8/4 8/10/4 6/9/3
f 7/8/4 9/11/5 8/10/4
f 9/11/5 10/12/5 8/10/4
f 9/11/5 11/13/6 10/12/5
f 11/13/6 12/14/6 10/12/5
f 11/13/6 13/15/7 12/14/6
f 13/15/7 14/16/7 12/14/6
f 13/15/7 15/17/8 14/16/7
f 15/17/8 16/18/8 14/16/7
f 15/17/8 17/19/9 16/18/8
f 17/19/9 18/20/9 16/18/8
f 19/2/10 18/5/9 20/4/10
f 18/5/9 17/6/9 20/4/10
f 21/1/11 19/2/10 22/3/11
f 19/2/10 20/4/10 22/3/11
f 13/21/12 11/22/12 15/23/12
f 11/22/12 9/24/12 15/23/12
f 22/25/12 20/26/12 15/23/12
f 20/26/12 17/27/12 15/23/12
f 23/28/13 21/29/13 24/30/13
f 23/28/13 25/31/13 21/29/13
f 26/32/12 27/33/12 15/23/12
f 24/34/14 21/1/11 28/35/14
f 25/31/13 29/36/13 21/29/13
f 19/37/13 21/29/13 29/36/13
f 26/32/12 15/23/12 9/24/12
f 28/35/14 21/1/11 22/3/11
f 30/38/13 31/39/13 32/40/13
f 3/3/1 32/41/15 33/42/15
f 30/38/13 32/40/13 34/43/13
f 4/26/13 32/40/13 3/25/13
f 32/40/13 6/27/13 34/43/13
f 6/27/13 32/40/13 4/26/13
f 9/24/12 35/44/12 36/45/12
f 33/42/15 1/1/1 3/3/1
f 29/36/13 37/46/13 19/37/13
f 18/47/13 19/37/13 37/46/13
f 37/46/13 38/48/13 18/47/13
f 16/49/13 18/47/13 38/48/13
f 38/48/13 39/44/13 16/49/13
f 14/24/13 16/49/13 39/44/13
f 39/44/13 40/45/13 14/24/13
f 40/45/13 12/22/13 14/24/13
f 41/36/12 42/46/12 2/37/12
f 5/47/12 2/37/12 42/46/12
f 5/47/12 42/46/12 43/48/12
f 34/43/13 8/23/13 44/50/13
f 6/27/13 8/23/13 34/43/13
f 8/23/13 45/33/13 44/50/13
f 46/32/13 45/33/13 10/21/13
f 8/23/13 10/21/13 45/33/13
f 40/45/13 46/32/13 12/22/13
f 46/32/13 10/21/13 12/22/13
f 7/49/12 5/47/12 43/48/12
f 7/49/12 43/48/12 35/44/12
f 9/24/12 7/49/12 35/44/12
f 26/32/12 9/24/12 36/45/12
f 22/3/11 47/41/14 28/35/14
f 48/38/12 49/39/12 47/40/12
f 48/38/12 47/40/12 22/25/12
f 48/38/12 22/25/12 50/43/12
f 1/1/1 33/42/15 51/34/15
f 1/29/12 51/30/12 52/28/12
f 53/31/12 1/29/12 52/28/12
f 53/31/12 41/36/12 1/29/12
f 41/36/12 2/37/12 1/29/12
f 22/25/12 15/23/12 50/43/12
f 50/43/12 15/23/12 54/50/12
f 54/50/12 15/23/12 27/33/12
f 23/41/16 49/34/16 25/51/17
f 29/52/18 25/51/17 48/53/17
f 30/53/19 53/51/19 31/34/20
f 34/54/21 41/52/21 30/53/19
f 29/52/18 50/54/18 37/55/22
f 37/56/22 54/57/22 38/58/23
f 27/59/23 39/60/24 38/58/23
f 39/60/24 26/61/24 40/13/25
f 42/55/26 34/54/21 44/62/26
f 43/63/27 44/64/26 45/65/27
f 40/13/25 36/14/25 46/66/28
f 35/67/28 45/65/27 46/66/28
f 48/53/17 25/51/17 49/34/16
f 46/66/28 36/14/25 35/67/28
f 45/65/27 35/67/28 43/63/27
f 37/55/22 50/54/18 54/62/22
f 53/51/19 30/53/19 41/52/21
f 54/57/22 27/59/23 38/58/23
f 27/59/23 26/61/24 39/60/24
f 40/13/25 26/61/24 36/14/25
f 50/54/18 29/52/18 48/53/17
f 34/54/21 42/55/26 41/52/21
f 53/51/19 52/41/20 31/34/20
f 44/64/26 43/63/27 42/68/26
f 28/69/25 23/70/25 24/71/25
f 28/69/25 49/72/25 23/70/25
f 32/73/25 31/74/25 52/75/25
f 33/76/25 32/73/25 52/75/25
f 51/77/25 33/76/25 52/75/25
f 28/69/25 47/78/25 49/72/25
o CupL
usemtl cupl
f 55/79/29 56/80/29 57/81/29
f 55/79/29 58/82/29 56/80/29
f 55/79/29 59/83/29 58/82/29
f 55/79/29 60/84/29 59/83/29
f 55/79/29 61/85/29 60/84/29
f 55/79/29 62/86/29 61/85/29
f 55/79/29 63/87/29 62/86/29
f 55/79/29 64/88/29 63/87/29
f 55/79/29 65/89/29 64/88/29
f 55/79/29 66/90/29 65/89/29
f 55/79/29 67/91/29 66/90/29
f 55/79/29 68/92/29 67/91/29
f 55/79/29 69/93/29 68/92/29
f 55/79/29 70/94/29 69/93/29
f 55/79/29 71/95/29 70/94/29
f 55/79/29 72/96/29 71/95/29
f 55/79/29 73/97/29 72/96/29
f 55/79/29 74/98/29 73/97/29
f 55/79/29 75/99/29 74/98/29
f 55/79/29 76/100/29 75/99/29
f 55/79/29 77/101/29 76/100/29
f 55/79/29 78/102/29 77/101/29
f 55/79/29 79/103/29 78/102/29
f 55/79/29 57/81/29 79/103/29
f 80/104/30 74/105/30 81/106/31
f 81/106/31 74/105/30 75/107/31
f 81/106/31 75/107/31 82/108/32
f 82/108/32 75/107/31 76/109/32
f 82/108/32 76/109/32 83/110/6
f 83/110/6 76/109/32 77/95/6
f 83/110/6 77/95/6 84/111/33
f 84/111/33 77/95/6 78/112/33
f 84/111/33 78/112/33 85/113/34
f 85/113/34 78/112/33 79/114/34
f 85/113/34 79/114/34 86/115/35
f 86/115/35 79/114/34 57/116/35
f 74/104/30 80/105/30 73/106/36
f 73/106/36 80/105/30 87/107/36
f 73/106/36 87/107/36 72/108/37
f 72/108/37 87/107/36 88/109/37
f 72/108/37 88/109/37 71/110/13
f 71/110/13 88/109/37 89/95/13
f 71/110/13 89/95/13 70/111/38
f 70/111/38 89/95/13 90/112/38
f 70/111/38 90/112/38 69/113/39
f 69/113/39 90/112/38 91/114/39
f 69/113/39 91/114/39 68/115/40
f 68/115/40 91/114/39 92/116/40
f 93/79/41 87/80/41 80/81/41
f 93/79/41 88/82/41 87/80/41
f 93/79/41 89/83/41 88/82/41
f 93/79/41 90/84/41 89/83/41
f 93/79/41 91/85/41 90/84/41
f 93/79/41 92/86/41 91/85/41
f 93/79/41 94/87/41 92/86/41
f 93/79/41 95/88/41 94/87/41
f 93/79/41 96/89/41 95/88/41
f 93/79/41 97/90/41 96/89/41
f 93/79/41 98/91/41 97/90/41
f 93/79/41 99/92/41 98/91/41
f 93/79/41 100/93/41 99/92/41
f 93/79/41 101/94/41 100/93/41
f 93/79/41 102/95/41 101/94/41
f 93/79/41 103/96/41 102/95/41
f 93/79/41 104/97/41 103/96/41
f 93/79/41 86/98/41 104/97/41
f 93/79/41 85/99/41 86/98/41
f 93/79/41 84/100/41 85/99/41
f 93/79/41 83/101/41 84/100/41
f 93/79/41 82/102/41 83/101/41
f 93/79/41 81/103/41 82/102/41
f 93/79/41 80/81/41 81/103/41
f 99/104/42 62/105/42 98/106/43
f 98/106/43 62/105/42 63/107/43
f 98/106/43 63/107/43 97/108/44
f 97/108/44 63/107/43 64/109/44
f 97/108/44 64/109/44 96/110/25
f 96/110/25 64/109/44 65/95/25
f 96/110/25 65/95/25 95/111/45
f 95/111/45 65/95/25 66/112/45
f 95/111/45 66/112/45 94/113/46
f 94/113/46 66/112/45 67/114/46
f 94/113/46 67/114/46 92/115/40
f 92/115/40 67/114/46 68/116/40
f 86/104/35 57/105/35 104/106/47
f 104/106/47 57/105/35 56/107/47
f 104/106/47 56/107/47 103/108/48
f 103/108/48 56/107/47 58/109/48
f 103/108/48 58/109/48 102/110/12
f 102/110/12 58/109/48 59/95/12
f 102/110/12 59/95/12 101/111/49
f 101/111/49 59/95/12 60/112/49
f 101/111/49 60/112/49 100/113/50
f 100/113/50 60/112/49 61/114/50
f 100/113/50 61/114/50 99/115/42
f 99/115/42 61/114/50 62/116/42
o PadL
usemtl padl
f 105/117/29 106/118/29 107/119/29
f 105/117/29 108/120/29 106/118/29
f 105/117/29 109/121/29 108/120/29
f 105/117/29 110/122/29 109/121/29
f 105/117/29 111/123/29 110/122/29
f 105/117/29 112/124/29 111/123/29
f 105/117/29 113/125/29 112/124/29
f 105/117/29 114/126/29 113/125/29
f 105/117/29 115/127/29 114/126/29
f 105/117/29 116/128/29 115/127/29
f 105/117/29 117/129/29 116/128/29
f 105/117/29 118/130/29 117/129/29
f 105/117/29 119/131/29 118/130/29
f 105/117/29 120/132/29 119/131/29
f 105/117/29 121/133/29 120/132/29
f 105/117/29 122/134/29 121/133/29
f 105/117/29 123/135/29 122/134/29
f 105/117/29 124/136/29 123/135/29
f 105/117/29 125/137/29 124/136/29
f 105/117/29 126/138/29 125/137/29
f 105/117/29 127/139/29 126/138/29
f 105/117/29 128/140/29 127/139/29
f 105/117/29 129/141/29 128/140/29
f 105/117/29 107/119/29 129/141/29
f 130/142/30 124/143/30 131/144/31
f 131/144/31 124/143/30 125/145/31
f 131/144/31 125/145/31 132/146/32
f 132/146/32 125/145/31 126/147/32
f 132/146/32 126/147/32 133/148/6
f 133/148/6 126/147/32 127/133/6
f 133/148/6 127/133/6 134/149/33
f 134/149/33 127/133/6 128/150/33
f 134/149/33 128/150/33 135/151/34
f 135/151/34 128/150/33 129/152/34
f 135/151/34 129/152/34 136/153/35
f 136/153/35 129/152/34 107/154/35
f 124/142/30 130/143/30 123/144/36
f 123/144/36 130/143/30 137/145/36
f 123/144/36 137/145/36 122/146/37
f 122/146/37 137/145/36 138/147/37
f 122/146/37 138/147/37 121/148/13
f 121/148/13 138/147/37 139/133/13
f 121/148/13 139/133/13 120/149/38
f 120/149/38 139/133/13 140/150/38
f 120/149/38 140/150/38 119/151/39
f 119/151/39 140/150/38 141/152/39
f 119/151/39 141/152/39 118/153/40
f 118/153/40 141/152/39 142/154/40
f 143/117/41 137/118/41 130/119/41
f 143/117/41 138/120/41 137/118/41
f 143/117/41 139/121/41 138/120/41
f 143/117/41 140/122/41 139/121/41
f 143/117/41 141/123/41 140/122/41
f 143/117/41 142/124/41 141/123/41
f 143/117/41 144/125/41 142/124/41
f 143/117/41 145/126/41 144/125/41
f 143/117/41 146/127/41 145/126/41
f 143/117/41 147/128/41 146/127/41
f 143/117/41 148/129/41 147/128/41
f 143/117/41 149/130/41 148/129/41
f 143/117/41 150/131/41 149/130/41
f 143/117/41 151/132/41 150/131/41
f 143/117/41 152/133/41 151/132/41
f 143/117/41 153/134/41 152/133/41
f 143/117/41 154/135/41 153/134/41
f 143/117/41 136/136/41 154/135/41
f 143/117/41 135/137/41 136/136/41
f 143/117/41 134/138/41 135/137/41
f 143/117/41 133/139/41 134/138/41
f 143/117/41 132/140/41 133/139/41
f 143/117/41 131/141/41 132/140/41
f 143/117/41 130/119/41 131/141/41
f 149/142/42 112/143/42 148/144/43
f 148/144/43 112/143/42 113/145/43
f 148/144/43 113/145/43 147/146/44
f 147/146/44 113/145/43 114/147/44
f 147/146/44 114/147/44 146/148/25
f 146/148/25 114/147/44 115/133/25
f 146/148/25 115/133/25 145/149/45
f 145/149/45 115/133/25 116/150/45
f 145/149/45 116/150/45 144/151/46
f 144/151/46 116/150/45 117/152/46
f 144/151/46 117/152/46 142/153/40
f 142/153/40 117/152/46 118/154/40
f 136/142/35 107/143/35 154/144/47
f 154/144/47 107/143/35 106/145/47
f 154/144/47 106/145/47 153/146/48
f 153/146/48 106/145/47 108/147/48
f 153/146/48 108/147/48 152/148/12
f 152/148/12 108/147/48 109/133/12
f 152/148/12 109/133/12 151/149/49
f 151/149/49 109/133/12 110/150/49
f 151/149/49 110/150/49 150/151/50
f 150/151/50 110/150/49 111/152/50
f 150/151/50 111/152/50 149/153/42
f 149/153/42 111/152/50 112/154/42
o CupR
usemtl cupr
f 155/155/29 156/156/29 157/157/29
f 155/155/29 158/158/29 156/156/29
f 155/155/29 159/159/29 158/158/29
f 155/155/29 160/160/29 159/159/29
f 155/155/29 161/161/29 160/160/29
f 155/155/29 162/162/29 161/161/29
f 155/155/29 163/163/29 162/162/29
f 155/155/29 164/164/29 163/163/29
f 155/155/29 165/165/29 164/164/29
f 155/155/29 166/166/29 165/165/29
f 155/155/29 167/167/29 166/166/29
f 155/155/29 168/168/29 167/167/29
f 155/155/29 169/169/29 168/168/29
f 155/155/29 170/170/29 169/169/29
f 155/155/29 171/171/29 170/170/29
f 155/155/29 172/172/29 171/171/29
f 155/155/29 173/173/29 172/172/29
f 155/155/29 174/174/29 173/173/29
f 155/155/29 175/175/29 174/174/29
f 155/155/29 176/176/29 175/175/29
f 155/155/29 177/177/29 176/176/29
f 155/155/29 178/178/29 177/177/29
f 155/155/29 179/179/29 178/178/29
f 155/155/29 157/157/29 179/179/29
f 180/180/30 174/181/30 181/182/31
f 181/182/31 174/181/30 175/183/31
f 181/182/31 175/183/31 182/184/32
f 182/184/32 175/183/31 176/185/32
f 182/184/32 176/185/32 183/186/6
f 183/186/6 176/185/32 177/171/6
f 183/186/6 177/171/6 184/187/33
f 184/187/33 177/171/6 178/188/33
f 184/187/33 178/188/33 185/189/34
f 185/189/34 178/188/33 179/190/34
f 185/189/34 179/190/34 186/191/35
f 186/191/35 179/190/34 157/192/35
f 174/180/30 180/181/30 173/182/36
f 173/182/36 180/181/30 187/183/36
f 173/182/36 187/183/36 172/184/37
f 172/184/37 187/183/36 188/185/37
f 172/184/37 188/185/37 171/186/13
f 171/186/13 188/185/37 189/171/13
f 171/186/13 189/171/13 170/187/38
f 170/187/38 189/171/13 190/188/38
f 170/187/38 190/188/38 169/189/39
f 169/189/39 190/188/38 191/190/39
f 169/189/39 191/190/39 168/191/40
f 168/191/40 191/190/39 192/192/40
f 193/155/41 187/156/41 180/157/41
f 193/155/41 188/158/41 187/156/41
f 193/155/41 189/159/41 188/158/41
f 193/155/41 190/160/41 189/159/41
f 193/155/41 191/161/41 190/160/41
f 193/155/41 192/162/41 191/161/41
f 193/155/41 194/163/41 192/162/41
f 193/155/41 195/164/41 194/163/41
f 193/155/41 196/165/41 195/164/41
f 193/155/41 197/166/41 196/165/41
f 193/155/41 198/167/41 197/166/41
f 193/155/41 199/168/41 198/167/41
f 193/155/41 200/169/41 199/168/41
f 193/155/41 201/170/41 200/169/41
f 193/155/41 202/171/41 201/170/41
f 193/155/41 203/172/41 202/171/41
f 193/155/41 204/173/41 203/172/41
f 193/155/41 186/174/41 204/173/41
f 193/155/41 185/175/41 186/174/41
f 193/155/41 184/176/41 185/175/41
f 193/155/41 183/177/41 184/176/41
f 193/155/41 182/178/41 183/177/41
f 193/155/41 181/179/41 182/178/41
f 193/155/41 180/157/41 181/179/41
f 199/180/42 162/181/42 198/182/43
f 198/182/43 162/181/42 163/183/43
f 198/182/43 163/183/43 197/184/44
f 197/184/44 163/183/43 164/185/44
f 197/184/44 164/185/44 196/186/25
f 196/186/25 164/185/44 165/171/25
f 196/186/25 165/171/25 195/187/45
f 195/187/45 165/171/25 166/188/45
f 195/187/45 166/188/45 194/189/46
f 194/189/46 166/188/45 167/190/46
f 194/189/46 167/190/46 192/191/40
f 192/191/40 167/190/46 168/192/40
f 186/180/35 157/181/35 204/182/47
f 204/182/47 157/181/35 156/183/47
f 204/182/47 156/183/47 203/184/48
f 203/184/48 156/183/47 158/185/48
f 203/184/48 158/185/48 202/186/12
f 202/186/12 158/185/48 159/171/12
f 202/186/12 159/171/12 201/187/49
f 201/187/49 159/171/12 160/188/49
f 201/187/49 160/188/49 200/189/50
f 200/189/50 160/188/49 161/190/50
f 200/189/50 161/190/50 199/191/42
f 199/191/42 161/190/50 162/192/42
o PadR
usemtl padr
f 205/193/29 206/194/29 207/195/29
f 205/193/29 208/196/29 206/194/29
f 205/193/29 209/197/29 208/196/29
f 205/193/29 210/198/29 209/197/29
f 205/193/29 211/199/29 210/198/29
f 205/193/29 212/200/29 211/199/29
f 205/193/29 213/201/29 212/200/29
f 205/193/29 214/202/29 213/201/29
f 205/193/29 215/203/29 214/202/29
f 205/193/29 216/204/29 215/203/29
f 205/193/29 217/205/29 216/204/29
f 205/193/29 218/206/29 217/205/29
f 205/193/29 219/207/29 218/206/29
f 205/193/29 220/208/29 219/207/29
f 205/193/29 221/209/29 220/208/29
f 205/193/29 222/210/29 221/209/29
f 205/193/29 223/211/29 222/210/29
f 205/193/29 224/212/29 223/211/29
f 205/193/29 225/213/29 224/212/29
f 205/193/29 226/214/29 225/213/29
f 205/193/29 227/215/29 226/214/29
f 205/193/29 228/216/29 227/215/29
f 205/193/29 229/217/29 228/216/29
f 205/193/29 207/195/29 229/217/29
f 230/218/30 224/219/30 231/220/31
f 231/220/31 224/219/30 225/221/31
f 231/220/31 225/221/31 232/222/32
f 232/222/32 225/221/31 226/223/32
f 232/222/32 226/223/32 233/224/6
f 233/224/6 226/223/32 227/209/6
f 233/224/6 227/209/6 234/225/33
f 234/225/33 227/209/6 228/226/33
f 234/225/33 228/226/33 235/227/34
f 235/227/34 228/226/33 229/228/34
f 235/227/34 229/228/34 236/229/35
f 236/229/35 229/228/34 207/230/35
f 224/218/30 230/219/30 223/220/36
f 223/220/36 230/219/30 237/221/36
f 223/220/36 237/221/36 222/222/37
f 222/222/37 237/221/36 238/223/37
f 222/222/37 238/223/37 221/224/13
f 221/224/13 238/223/37 239/209/13
f 221/224/13 239/209/13 220/225/38
f 220/225/38 239/209/13 240/226/38
f 220/225/38 240/226/38 219/227/39
f 219/227/39 240/226/38 241/228/39
f 219/227/39 241/228/39 218/229/40
f 218/229/40 241/228/39 242/230/40
f 243/193/41 237/194/41 230/195/41
f 243/193/41 238/196/41 237/194/41
f 243/193/41 239/197/41 238/196/41
f 243/193/41 240/198/41 239/197/41
f 243/193/41 241/199/41 240/198/41
f 243/193/41 242/200/41 241/199/41
f 243/193/41 244/201/41 242/200/41
f 243/193/41 245/202/41 244/201/41
f 243/193/41 246/203/41 245/202/41
f 243/193/41 247/204/41 246/203/41
f 243/193/41 248/205/41 247/204/41
f 243/193/41 249/206/41 248/205/41
f 243/193/41 250/207/41 249/206/41
f 243/193/41 251/208/41 250/207/41
f 243/193/41 252/209/41 251/208/41
f 243/193/41 253/210/41 252/209/41
f 243/193/41 254/211/41 253/210/41
f 243/193/41 236/212/41 254/211/41
f 243/193/41 235/213/41 236/212/41
f 243/193/41 234/214/41 235/213/41
f 243/193/41 233/215/41 234/214/41
f 243/193/41 232/216/41 233/215/41
f 243/193/41 231/217/41 232/216/41
f 243/193/41 230/195/41 231/217/41
f 249/218/42 212/219/42 248/220/43
f 248/220/43 212/219/42 213/221/43
f 248/220/43 213/221/43 247/222/44
f 247/222/44 213/221/43 214/223/44
f 247/222/44 214/223/44 246/224/25
f 246/224/25 214/223/44 215/209/25
f 246/224/25 215/209/25 245/225/45
f 245/225/45 215/209/25 216/226/45
f 245/225/45 216/226/45 244/227/46
f 244/227/46 216/226/45 217/228/46
f 244/227/46 217/228/46 242/229/40
f 242/229/40 217/228/46 218/230/40
f 236/218/35 207/219/35 254/220/47
f 254/220/47 207/219/35 206/221/47
f 254/220/47 206/221/47 253/222/48
f 253/222/48 206/221/47 208/223/48
f 253/222/48 208/223/48 252/224/12
f 252/224/12 208/223/48 209/209/12
f 252/224/12 209/209/12 251/225/49
f 251/225/49 209/209/12 210/226/49
f 251/225/49 210/226/49 250/227/50
f 250/227/50 210/226/49 211/228/50
f 250/227/50 211/228/50 249/229/42
f 249/229/42 211/228/50 212/230/42
