# Roblox asset pack: egg_maiasaura (props), from the Studio model "Maiasaura". Exported with Export Selection, split by tools/build_creatures.py: one object per rigid body. Units: studs. +Y up, front faces -Z, pivot (bottom centre) at the origin.
mtllib egg_maiasaura.mtl

v -2.22989 2.73000 0.25000
v -0.24777 2.73000 0.25000
v -2.22989 0.74000 0.25000
v -0.24777 0.74000 0.25000
v -0.24777 2.73000 2.23000
v -2.22989 2.73000 2.23000
v -0.24777 0.74000 2.23000
v -2.22989 0.74000 2.23000
v -2.22989 5.20000 -2.23000
v -0.24777 5.20000 -2.23000
v -2.22989 3.22000 -2.23000
v -0.24777 3.22000 -2.23000
v -0.24777 5.20000 -0.25000
v -2.22989 5.20000 -0.25000
v -0.24777 3.22000 -0.25000
v -2.22989 3.22000 -0.25000
v -1.73435 6.19000 -1.73000
v 1.73435 6.19000 -1.73000
v -1.73435 0.00000 -1.73000
v 1.73435 0.00000 -1.73000
v 1.73435 6.19000 1.73000
v -1.73435 6.19000 1.73000
v 1.73435 0.00000 1.73000
v -1.73435 0.00000 1.73000
v 0.24777 3.72000 -2.23000
v 2.22989 3.72000 -2.23000
v 0.24777 1.73000 -2.23000
v 2.22989 1.73000 -2.23000
v 2.22989 3.72000 -0.25000
v 0.24777 3.72000 -0.25000
v 2.22989 1.73000 -0.25000
v 0.24777 1.73000 -0.25000
v -1.98211 5.45000 -1.98000
v 1.98211 5.45000 -1.98000
v -1.98211 0.50000 -1.98000
v 1.98211 0.50000 -1.98000
v 1.98211 5.45000 1.98000
v -1.98211 5.45000 1.98000
v 1.98211 0.50000 1.98000
v -1.98211 0.50000 1.98000
vt 7.49776 -1.25000
vt 7.25000 -1.25000
vt 7.49776 -1.49776
vt 7.25000 -1.49776
vt 1.49776 0.25000
vt 1.25000 0.25000
vt 1.49776 0.00224
vt 1.25000 0.00224
vt 4.18359 -5.50000
vt 3.75000 -5.50000
vt 4.18359 -6.27426
vt 3.75000 -6.27426
vt 4.18359 -5.93359
vt 3.75000 -5.93359
vt 3.49776 -3.50000
vt 3.25000 -3.50000
vt 3.49776 -3.74776
vt 3.25000 -3.74776
vt 0.99553 -2.75000
vt 0.50000 -2.75000
vt 0.99553 -3.36941
vt 0.50000 -3.36941
vt 0.99553 -3.24553
vt 0.50000 -3.24553
vn 0.0000 0.0000 -1.0000
vn 0.0000 1.0000 0.0000
vn 1.0000 0.0000 0.0000
vn 0.0000 0.0000 1.0000
vn 0.0000 -1.0000 0.0000
vn -1.0000 0.0000 0.0000

o egg_maiasaura
usemtl c_27462d
f 1/1/1 2/2/1 3/3/1
f 3/3/1 2/2/1 4/4/1
f 5/1/2 2/2/2 6/3/2
f 6/3/2 2/2/2 1/4/2
f 2/1/3 5/2/3 4/3/3
f 4/3/3 5/2/3 7/4/3
f 5/1/4 6/2/4 7/3/4
f 7/3/4 6/2/4 8/4/4
f 8/1/5 3/2/5 7/3/5
f 7/3/5 3/2/5 4/4/5
f 6/1/6 1/2/6 8/3/6
f 8/3/6 1/2/6 3/4/6
f 9/5/1 10/6/1 11/7/1
f 11/7/1 10/6/1 12/8/1
f 13/5/2 10/6/2 14/7/2
f 14/7/2 10/6/2 9/8/2
f 10/5/3 13/6/3 12/7/3
f 12/7/3 13/6/3 15/8/3
f 13/5/4 14/6/4 15/7/4
f 15/7/4 14/6/4 16/8/4
f 16/5/5 11/6/5 15/7/5
f 15/7/5 11/6/5 12/8/5
f 14/5/6 9/6/6 16/7/6
f 16/7/6 9/6/6 11/8/6
usemtl c_fdea8d
f 17/9/1 18/10/1 19/11/1
f 19/11/1 18/10/1 20/12/1
f 21/9/2 18/10/2 22/13/2
f 22/13/2 18/10/2 17/14/2
f 18/9/3 21/10/3 20/11/3
f 20/11/3 21/10/3 23/12/3
f 21/9/4 22/10/4 23/11/4
f 23/11/4 22/10/4 24/12/4
f 24/9/5 19/10/5 23/13/5
f 23/13/5 19/10/5 20/14/5
f 22/9/6 17/10/6 24/11/6
f 24/11/6 17/10/6 19/12/6
usemtl c_4b974b
f 25/15/1 26/16/1 27/17/1
f 27/17/1 26/16/1 28/18/1
f 29/15/2 26/16/2 30/17/2
f 30/17/2 26/16/2 25/18/2
f 26/15/3 29/16/3 28/17/3
f 28/17/3 29/16/3 31/18/3
f 29/15/4 30/16/4 31/17/4
f 31/17/4 30/16/4 32/18/4
f 32/15/5 27/16/5 31/17/5
f 31/17/5 27/16/5 28/18/5
f 30/15/6 25/16/6 32/17/6
f 32/17/6 25/16/6 27/18/6
usemtl c_1f801d
f 33/19/1 34/20/1 35/21/1
f 35/21/1 34/20/1 36/22/1
f 37/19/2 34/20/2 38/23/2
f 38/23/2 34/20/2 33/24/2
f 34/19/3 37/20/3 36/21/3
f 36/21/3 37/20/3 39/22/3
f 37/19/4 38/20/4 39/21/4
f 39/21/4 38/20/4 40/22/4
f 40/19/5 35/20/5 39/23/5
f 39/23/5 35/20/5 36/24/5
f 38/19/6 33/20/6 40/21/6
f 40/21/6 33/20/6 35/22/6
