# Roblox asset pack: animal_koala (creatures), from the Studio model "Koala". Exported with Export Selection, split by tools/build_creatures.py: one object per rigid body. Units: studs. +Y up, front faces -Z, pivot (bottom centre) at the origin.
mtllib animal_koala.mtl

v -0.26700 2.97000 0.90000
v -0.26700 3.13000 0.40000
v -0.51900 2.97000 0.90000
v -0.51900 3.13000 0.40000
v -0.51900 2.97000 -0.90000
v -0.51900 3.13000 -0.40000
v -0.26700 3.13000 -0.40000
v -0.26700 2.97000 -0.90000
v -1.01000 2.72000 0.61000
v 0.18360 2.72000 0.61000
v 0.18360 2.72000 -0.61000
v -1.01000 2.72000 -0.61000
v -0.51900 2.58000 0.29000
v -0.51900 2.46000 0.66000
v -0.47900 2.46000 0.66000
v -0.47900 2.58000 0.29000
v -0.47900 2.58000 -0.29000
v -0.47900 2.46000 -0.66000
v -0.51900 2.58000 -0.29000
v -0.51900 2.46000 -0.66000
v -0.94700 2.59000 0.55000
v -0.94700 2.59000 0.24000
v -1.04300 2.59000 0.55000
v -1.04300 2.59000 0.24000
v -1.04300 2.59000 -0.55000
v -1.04300 2.59000 -0.24000
v -0.94700 2.59000 -0.24000
v -0.94700 2.59000 -0.55000
v -0.99800 2.49000 0.49000
v -0.99800 2.49000 0.28000
v -1.06300 2.49000 0.49000
v -1.06300 2.49000 0.28000
v -1.06300 2.49000 -0.49000
v -1.06300 2.49000 -0.28000
v -0.99800 2.49000 -0.28000
v -0.99800 2.49000 -0.49000
v 1.16570 0.62000 0.19000
v 1.16570 0.62000 -0.19000
v 1.16570 0.99000 0.19000
v 1.16570 0.99000 -0.19000
v 0.82230 0.25000 0.52000
v 0.96720 0.50000 0.84000
v 0.82230 0.25000 0.80000
v 0.96720 0.50000 0.48000
v 0.82230 0.25000 -0.52000
v 0.96720 0.50000 -0.84000
v 0.96720 0.50000 -0.48000
v 0.82230 0.25000 -0.80000
v -1.16600 2.34000 0.15000
v -0.94800 2.34000 0.15000
v -0.94800 2.34000 -0.15000
v -1.16600 2.34000 -0.15000
v 0.99480 0.45000 0.58000
v 0.99480 0.45000 -0.58000
v 1.02890 0.85000 0.58000
v 1.02890 0.85000 -0.58000
v 0.52570 0.15000 0.58000
v 0.52570 0.15000 -0.58000
v 0.98870 0.77000 0.87000
v 0.98870 0.77000 0.45000
v 0.98870 0.77000 -0.87000
v 0.98870 0.77000 -0.45000
v -0.70700 0.00000 0.89000
v -0.76900 0.00000 0.64000
v -0.53800 0.00000 0.92000
v -0.53800 0.00000 0.35000
v -0.70700 0.00000 0.38000
v -0.22000 0.00000 0.87000
v -0.22000 0.00000 0.41000
v -0.08700 0.00000 0.87000
v -0.08700 0.00000 0.41000
v 0.23400 0.00000 0.85000
v 0.17150 0.00000 0.67000
v 0.40270 0.00000 0.87000
v 0.40270 0.00000 0.46000
v 0.23400 0.00000 0.48000
v 0.72080 0.00000 0.50000
v 0.72080 0.00000 0.83000
v 0.85350 0.00000 0.83000
v 0.85350 0.00000 0.50000
v -0.76900 0.00000 -0.64000
v -0.53800 0.00000 -0.35000
v -0.70700 0.00000 -0.38000
v -0.53800 0.00000 -0.92000
v -0.70700 0.00000 -0.89000
v -0.22000 0.00000 -0.87000
v -0.22000 0.00000 -0.41000
v -0.08700 0.00000 -0.87000
v -0.08700 0.00000 -0.41000
v 0.17150 0.00000 -0.67000
v 0.40270 0.00000 -0.46000
v 0.23400 0.00000 -0.48000
v 0.40270 0.00000 -0.87000
v 0.23400 0.00000 -0.85000
v 0.72080 0.00000 -0.50000
v 0.72080 0.00000 -0.83000
v 0.85350 0.00000 -0.50000
v 0.85350 0.00000 -0.83000
v 0.80650 0.15000 0.52000
v 0.80650 0.15000 0.80000
v 0.80650 0.15000 -0.52000
v 0.80650 0.15000 -0.80000
v -1.16600 1.88000 -0.15000
v -1.16600 1.88000 0.15000
v -1.02600 2.08000 0.31000
v -1.02600 2.03000 0.56000
v -0.96400 2.03000 0.56000
v -0.96400 2.08000 0.31000
v -0.96400 2.08000 -0.31000
v -1.02600 2.03000 -0.56000
v -1.02600 2.08000 -0.31000
v -0.96400 2.03000 -0.56000
v 0.85350 0.17000 0.50000
v 0.85350 0.17000 0.83000
v 0.85350 0.17000 -0.50000
v 0.85350 0.17000 -0.83000
v -0.70700 0.17000 0.89000
v -0.53800 0.17000 0.92000
v -0.70700 0.17000 -0.89000
v -0.53800 0.17000 -0.92000
v 0.41060 0.15000 0.52000
v 0.41060 0.15000 0.80000
v 0.41060 0.15000 -0.52000
v 0.41060 0.15000 -0.80000
v -0.46200 0.15000 0.85000
v -0.17100 0.15000 0.45000
v -0.17100 0.15000 0.85000
v -0.46200 0.15000 0.45000
v -0.46200 0.15000 -0.45000
v -0.17100 0.15000 -0.85000
v -0.17100 0.15000 -0.45000
v -0.46200 0.15000 -0.85000
v 0.40270 0.17000 -0.87000
v 0.72080 0.17000 -0.83000
v 0.72080 0.17000 0.83000
v 0.40270 0.17000 0.87000
v -1.06300 2.22000 0.49000
v -1.06300 2.22000 0.28000
v -1.06300 2.22000 -0.49000
v -1.06300 2.22000 -0.28000
v 0.46580 0.50000 0.84000
v 0.38340 0.27000 0.80000
v 0.46580 0.50000 -0.84000
v 0.38340 0.27000 -0.80000
v 0.31880 0.77000 0.87000
v -1.04300 2.18000 0.55000
v -1.04300 2.18000 0.24000
v 0.31880 0.77000 -0.87000
v -1.04300 2.18000 -0.55000
v -1.04300 2.18000 -0.24000
v -1.02600 1.83000 0.53000
v -1.02600 1.88000 0.27000
v -1.02600 1.83000 -0.53000
v -1.02600 1.88000 -0.27000
v -0.43400 0.54000 0.86000
v -0.08200 0.54000 0.86000
v -0.53900 0.92000 0.88000
v 0.05880 0.92000 0.88000
v -0.43400 0.54000 -0.86000
v -0.08200 0.54000 -0.86000
v -0.53900 0.92000 -0.88000
v 0.05880 0.92000 -0.88000
v -0.45400 1.49000 0.88000
v -0.61100 1.31000 0.88000
v 0.04350 1.37000 0.88000
v -0.07700 1.49000 0.88000
v 0.83300 1.09000 0.87000
v 0.37660 1.07000 0.87000
v -0.45400 1.49000 -0.88000
v -0.61100 1.31000 -0.88000
v 0.04350 1.37000 -0.88000
v -0.07700 1.49000 -0.88000
v 0.83300 1.09000 -0.87000
v 0.37660 1.07000 -0.87000
v -1.01000 1.74000 0.70000
v -1.01000 1.53000 -0.46000
v -1.01000 1.53000 0.46000
v -1.01000 1.74000 -0.70000
v 0.83300 1.09000 0.45000
v 0.83300 1.09000 -0.45000
v -0.08700 0.17000 -0.87000
v -0.22000 0.17000 -0.87000
v -0.08700 0.17000 0.87000
v -0.22000 0.17000 0.87000
v 0.23400 0.17000 -0.85000
v 0.23400 0.17000 0.85000
v -0.76900 0.17000 0.64000
v -0.76900 0.17000 -0.64000
v 0.18360 1.74000 0.70000
v 0.18360 1.74000 -0.70000
v -0.44700 2.23000 -0.58000
v -0.75200 1.43000 0.58000
v -0.44700 2.23000 0.58000
v -0.75200 1.43000 -0.58000
v -0.56600 0.77000 0.58000
v -0.56600 0.77000 -0.58000
v -0.94700 2.18000 0.55000
v -0.94700 2.18000 -0.55000
v -0.61100 1.31000 0.43000
v -0.45400 1.49000 0.43000
v -0.45400 1.49000 -0.43000
v -0.61100 1.31000 -0.43000
v -0.99800 2.22000 0.49000
v -0.99800 2.22000 -0.49000
v 0.79040 0.62000 -0.19000
v 0.79040 0.62000 0.19000
v -0.70700 0.17000 0.38000
v -0.70700 0.17000 -0.38000
v -0.53900 0.92000 0.43000
v -0.43400 0.54000 0.44000
v -0.53900 0.92000 -0.43000
v -0.43400 0.54000 -0.44000
v -0.07700 1.49000 0.43000
v -0.07700 1.49000 -0.43000
v -0.51900 2.37000 0.71000
v -0.51900 2.92000 0.81000
v -0.51900 2.53000 0.20000
v -0.51900 3.04000 0.44000
v -0.51900 2.53000 -0.20000
v -0.51900 2.37000 -0.71000
v -0.51900 3.04000 -0.44000
v -0.51900 2.92000 -0.81000
v -0.96400 1.83000 0.53000
v -0.96400 1.83000 -0.53000
v -0.47900 3.04000 0.44000
v -0.47900 2.92000 0.81000
v -0.47900 3.04000 -0.44000
v -0.47900 2.92000 -0.81000
v 0.04350 1.37000 0.43000
v 0.04350 1.37000 -0.43000
v 0.18360 1.53000 -0.46000
v 0.18360 1.53000 0.46000
v -0.26700 2.37000 0.71000
v -0.26700 2.37000 -0.71000
v 0.05880 0.92000 0.43000
v -0.08200 0.54000 0.44000
v -0.26700 2.53000 0.20000
v 0.05880 0.92000 -0.43000
v -0.08200 0.54000 -0.44000
v -0.26700 2.53000 -0.20000
v 0.79040 0.99000 0.19000
v 0.79040 0.99000 -0.19000
v -0.94800 1.88000 0.15000
v -0.94800 1.88000 -0.15000
v -0.08700 0.17000 0.41000
v -0.08700 0.17000 -0.41000
v 0.37660 1.07000 0.45000
v 0.37660 1.07000 -0.45000
v 0.17150 0.17000 0.67000
v 0.17150 0.17000 -0.67000
v -0.96400 1.88000 0.27000
v -0.96400 1.88000 -0.27000
v -0.94700 2.18000 0.24000
v -0.94700 2.18000 -0.24000
v 0.46580 0.50000 0.48000
v 0.31880 0.77000 0.45000
v 0.46580 0.50000 -0.48000
v 0.31880 0.77000 -0.45000
v -0.99800 2.22000 0.28000
v -0.99800 2.22000 -0.28000
v -0.53800 0.17000 0.35000
v -0.53800 0.17000 -0.35000
v 0.38340 0.27000 0.52000
v 0.38340 0.27000 -0.52000
v 0.72080 0.17000 0.50000
v 0.40270 0.17000 0.46000
v 0.72080 0.17000 -0.50000
v 0.40270 0.17000 -0.46000
v -0.22000 0.17000 0.41000
v -0.22000 0.17000 -0.41000
v 0.23400 0.17000 0.48000
v 0.23400 0.17000 -0.48000
vt 0.75683 0.67317
vt 0.75685 0.58644
vt 0.79818 0.67317
vt 0.79819 0.58645
vt 1.79818 0.67317
vt 1.79819 0.58645
vt 1.75685 0.58644
vt 1.75683 0.67317
vt 0.79158 0.20345
vt 0.59600 0.20345
vt 0.59600 0.00294
vt 0.79158 0.00294
vt 0.99453 0.32014
vt 0.99452 0.38351
vt 0.98803 0.38351
vt 0.98804 0.32014
vt 1.98804 0.32014
vt 1.98803 0.38351
vt 1.99453 0.32014
vt 1.99452 0.38351
vt 0.88751 0.67314
vt 0.88751 0.62112
vt 0.90329 0.67314
vt 0.90329 0.62112
vt 1.90329 0.67314
vt 1.90329 0.62112
vt 1.88751 0.62112
vt 1.88751 0.67314
vt 0.89254 0.36778
vt 0.89254 0.33262
vt 0.90320 0.36778
vt 0.90320 0.33262
vt 1.90320 0.36778
vt 1.90320 0.33262
vt 1.89254 0.33262
vt 1.89254 0.36778
vt 0.00293 0.81627
vt 0.06444 0.81627
vt 0.00293 0.87778
vt 0.06444 0.87778
vt 0.33211 0.75999
vt 0.27960 0.80688
vt 0.28577 0.75999
vt 0.33829 0.80688
vt 1.33211 0.75999
vt 1.27960 0.80688
vt 1.33829 0.80688
vt 1.28577 0.75999
vt 0.69202 0.44752
vt 0.65631 0.44752
vt 0.65631 0.39966
vt 0.69202 0.39966
vt 0.00298 0.09401
vt 0.19164 0.09403
vt 0.00297 0.15985
vt 0.19163 0.15988
vt 0.00299 0.00294
vt 0.19165 0.00296
vt 0.27434 0.85138
vt 0.34357 0.85137
vt 1.27433 0.85138
vt 1.34357 0.85137
vt 0.89208 0.22734
vt 0.93406 0.21710
vt 0.88751 0.25497
vt 0.98061 0.25497
vt 0.97604 0.22734
vt 0.89634 0.30710
vt 0.97178 0.30710
vt 0.89634 0.32885
vt 0.97178 0.32885
vt 0.91597 0.01317
vt 0.94659 0.00293
vt 0.91264 0.04081
vt 0.98053 0.04081
vt 0.97720 0.01317
vt 0.97409 0.09294
vt 0.91908 0.09294
vt 0.91908 0.11468
vt 0.97409 0.11468
vt 1.93406 0.21710
vt 1.98061 0.25497
vt 1.97604 0.22734
vt 1.88751 0.25497
vt 1.89208 0.22734
vt 1.89634 0.30710
vt 1.97178 0.30710
vt 1.89634 0.32885
vt 1.97178 0.32885
vt 1.94659 0.00293
vt 1.98053 0.04081
vt 1.97720 0.01317
vt 1.91264 0.04081
vt 1.91597 0.01317
vt 1.97409 0.09294
vt 1.91908 0.09294
vt 1.97409 0.11468
vt 1.91908 0.11468
vt 0.33211 0.74258
vt 0.28577 0.74259
vt 1.33211 0.74258
vt 1.28577 0.74259
vt 0.79464 0.58267
vt 0.74678 0.50770
vt 0.79464 0.50770
vt 0.74678 0.58267
vt 0.81723 0.29312
vt 0.81723 0.33543
vt 0.80710 0.33543
vt 0.80709 0.29312
vt 1.80709 0.29312
vt 1.81723 0.33543
vt 1.81723 0.29312
vt 1.80710 0.33543
vt 0.11853 0.96566
vt 0.14661 0.91065
vt 0.14661 0.96566
vt 0.11853 0.91065
vt 1.11853 0.96566
vt 1.14661 0.91065
vt 1.11853 0.91065
vt 1.14661 0.96566
vt 0.86742 0.87661
vt 0.89551 0.87662
vt 0.89550 0.90462
vt 0.86742 0.90462
vt 1.86742 0.87661
vt 1.89550 0.90462
vt 1.89551 0.87662
vt 1.86742 0.90462
vt 0.74286 0.88136
vt 0.69652 0.94625
vt 0.69652 0.88136
vt 0.74286 0.94625
vt 1.74286 0.88136
vt 1.69652 0.94625
vt 1.74286 0.94625
vt 1.69652 0.88136
vt 0.79952 0.88135
vt 0.75181 0.94775
vt 0.75181 0.88135
vt 0.79952 0.94775
vt 1.79952 0.94775
vt 1.75181 0.88135
vt 1.75181 0.94775
vt 1.79952 0.88135
vt 1.04817 0.90939
vt 1.04818 0.96191
vt 1.07625 0.90938
vt 1.07626 0.96191
vt 0.04818 0.96191
vt 0.07625 0.90938
vt 0.07626 0.96191
vt 0.04817 0.90939
vt 0.61610 0.44420
vt 0.65126 0.39966
vt 0.65126 0.44420
vt 0.61610 0.39966
vt 1.61610 0.44420
vt 1.65126 0.39966
vt 1.61610 0.39966
vt 1.65126 0.44420
vt 0.38183 0.84936
vt 0.43782 0.80520
vt 0.45352 0.84323
vt 0.35578 0.80988
vt 1.43782 0.80520
vt 1.38183 0.84936
vt 1.45352 0.84323
vt 1.35578 0.80988
vt 0.34972 0.76548
vt 0.45934 0.75924
vt 0.80709 0.94252
vt 0.85912 0.87661
vt 0.85912 0.94252
vt 0.80709 0.87661
vt 1.34973 0.76548
vt 1.45934 0.75924
vt 1.80709 0.94252
vt 1.85912 0.87661
vt 1.80709 0.87661
vt 1.85912 0.94252
vt 0.53894 0.18988
vt 0.50553 0.14758
vt 0.53893 0.14757
vt 0.50554 0.18989
vt 1.53894 0.18988
vt 1.50553 0.14758
vt 1.50554 0.18989
vt 1.53893 0.14757
vt 0.88059 0.15961
vt 0.88764 0.22222
vt 0.83996 0.22407
vt 0.82292 0.16184
vt 0.89529 0.09616
vt 0.79742 0.09995
vt 1.88059 0.15961
vt 1.83995 0.22407
vt 1.88763 0.22222
vt 1.82292 0.16184
vt 1.89529 0.09616
vt 1.79742 0.09995
vt 0.87771 0.00293
vt 0.90460 0.03114
vt 0.79704 0.02541
vt 0.81608 0.00532
vt 0.37221 0.71135
vt 0.44713 0.71139
vt 1.87771 0.00293
vt 1.90460 0.03114
vt 1.79704 0.02541
vt 1.81609 0.00532
vt 1.37221 0.71135
vt 1.44713 0.71139
vt 0.58035 0.45412
vt 0.54574 0.64408
vt 0.54574 0.49272
vt 0.58035 0.68268
vt 0.74132 0.46814
vt 0.74132 0.66866
vt 0.27434 0.90999
vt 0.34358 0.90998
vt 1.27434 0.90999
vt 1.34358 0.90998
vt 1.89549 0.95750
vt 1.86741 0.97924
vt 1.89549 0.97924
vt 1.86741 0.95749
vt 0.86741 0.97924
vt 0.89549 0.95750
vt 0.89549 0.97924
vt 0.86741 0.95749
vt 0.04818 0.98366
vt 0.07626 0.98366
vt 1.04818 0.98366
vt 1.07626 0.98366
vt 0.45016 0.86272
vt 0.38538 0.86639
vt 1.04816 0.88155
vt 1.07625 0.88155
vt 1.45016 0.86272
vt 1.38538 0.86639
vt 0.04816 0.88155
vt 0.07625 0.88155
vt 0.11143 0.91065
vt 0.08335 0.95386
vt 0.08335 0.91065
vt 0.11143 0.95386
vt 1.11143 0.91065
vt 1.08335 0.91065
vt 1.08335 0.95386
vt 1.11143 0.95386
vt 0.63621 0.68202
vt 0.79779 0.68200
vt 0.79782 0.87757
vt 0.63624 0.87760
vt 0.62691 0.71130
vt 0.62694 0.90688
vt 0.46532 0.71133
vt 0.46536 0.90691
vt 0.34978 0.70758
vt 0.53841 0.56583
vt 0.53844 0.70754
vt 0.34975 0.56587
vt 0.19159 0.49144
vt 0.00293 0.49142
vt 0.19894 0.05476
vt 0.42138 0.19153
vt 0.22166 0.14295
vt 0.51705 0.13386
vt 0.23972 0.00306
vt 0.57128 0.00294
vt 0.38749 0.37855
vt 0.25063 0.15616
vt 0.33883 0.17884
vt 0.32985 0.47424
vt 0.19894 0.19696
vt 0.19895 0.52852
vt 0.99376 0.11845
vt 0.99376 0.18436
vt 0.97798 0.18436
vt 0.97798 0.11845
vt 1.99376 0.11845
vt 1.97798 0.18436
vt 1.99376 0.18436
vt 1.97798 0.11845
vt 0.53838 0.45412
vt 0.34972 0.45416
vt 0.88076 0.75732
vt 0.80710 0.71835
vt 0.88076 0.71836
vt 0.80709 0.75732
vt 1.80709 0.75732
vt 1.88076 0.75732
vt 1.80710 0.71835
vt 1.88076 0.71836
vt 0.80155 0.20722
vt 0.59601 0.39590
vt 0.59600 0.20724
vt 0.80156 0.39588
vt 0.38552 0.25734
vt 0.38552 0.30188
vt 0.37486 0.30188
vt 0.37486 0.25734
vt 1.38552 0.25734
vt 1.37486 0.30188
vt 1.38552 0.30188
vt 1.37486 0.25734
vt 0.96913 0.78203
vt 0.90761 0.84355
vt 0.90761 0.78203
vt 0.96913 0.84355
vt 0.08335 0.99707
vt 0.11143 0.99707
vt 1.08335 0.99707
vt 1.11143 0.99707
vt 0.87896 0.58756
vt 0.80710 0.65266
vt 0.80892 0.58756
vt 0.88077 0.65267
vt 1.80710 0.65266
vt 1.87896 0.58756
vt 1.80893 0.58756
vt 1.88077 0.65267
vt 0.96426 0.77826
vt 0.90259 0.77826
vt 0.90259 0.70460
vt 0.96426 0.70460
vt 1.90259 0.77826
vt 1.96426 0.70460
vt 1.90259 0.70460
vt 1.96426 0.77826
vt 0.97927 0.61734
vt 0.96759 0.52594
vt 0.97926 0.51427
vt 0.96760 0.60566
vt 0.90421 0.52595
vt 0.89255 0.61735
vt 0.89254 0.51428
vt 0.90422 0.60567
vt 1.89254 0.51428
vt 1.89255 0.61735
vt 1.90421 0.52595
vt 1.97926 0.51427
vt 1.90422 0.60567
vt 1.96759 0.52594
vt 1.96760 0.60566
vt 1.97927 0.61734
vt 0.59600 0.43307
vt 0.59601 0.39967
vt 0.60613 0.43307
vt 0.60614 0.39967
vt 1.60613 0.43307
vt 1.59601 0.39967
vt 1.59600 0.43307
vt 1.60614 0.39967
vt 0.91265 0.70083
vt 0.97601 0.62111
vt 0.97602 0.70082
vt 0.91264 0.62111
vt 1.97601 0.62111
vt 1.91264 0.62111
vt 1.91265 0.70083
vt 1.97602 0.70082
vt 0.34297 0.73881
vt 0.26931 0.73881
vt 0.26931 0.71113
vt 0.34298 0.71113
vt 1.34298 0.71113
vt 1.26931 0.71113
vt 1.34297 0.73881
vt 1.26931 0.73881
vt 0.00293 0.55725
vt 0.03754 0.74722
vt 0.00293 0.70862
vt 0.03754 0.51865
vt 0.19851 0.73319
vt 0.19851 0.53268
vt 0.58710 0.08041
vt 0.58708 0.18348
vt 0.54574 0.18347
vt 0.54575 0.08040
vt 1.58709 0.08041
vt 1.54574 0.18347
vt 1.58708 0.18348
vt 1.54575 0.08040
vt 0.81075 0.52458
vt 0.87715 0.52459
vt 1.81075 0.52458
vt 1.87715 0.52459
vt 0.34298 0.63659
vt 0.27113 0.56967
vt 0.34116 0.56967
vt 0.26931 0.63658
vt 0.74678 0.50272
vt 0.78814 0.39966
vt 0.78812 0.50273
vt 0.74679 0.39966
vt 1.27113 0.56967
vt 1.34298 0.63659
vt 1.34116 0.56967
vt 1.26931 0.63658
vt 1.78813 0.50273
vt 1.78814 0.39966
vt 1.74678 0.50272
vt 1.74679 0.39966
vt 0.81715 0.22784
vt 0.87866 0.22784
vt 0.87866 0.28935
vt 0.81715 0.28935
vt 0.91264 0.44814
vt 0.97415 0.50965
vt 0.91264 0.50965
vt 0.97415 0.44814
vt 0.27295 0.50518
vt 0.33935 0.50518
vt 1.33935 0.50518
vt 1.27295 0.50518
vt 0.23968 0.89660
vt 0.23968 0.97158
vt 0.20397 0.97158
vt 0.20397 0.89660
vt 0.19445 0.89660
vt 0.15874 0.97157
vt 0.15874 0.89660
vt 0.19445 0.97157
vt 0.62616 0.91065
vt 0.65424 0.98608
vt 0.62616 0.98608
vt 0.65424 0.91065
vt 1.62616 0.91065
vt 1.65424 0.98608
vt 1.65424 0.91065
vt 1.62616 0.98608
vt 0.39496 0.19530
vt 0.59054 0.19530
vt 0.59054 0.24714
vt 0.39496 0.24714
vt 0.39496 0.45035
vt 0.59054 0.39850
vt 0.59054 0.45035
vt 0.39496 0.39850
vt 0.96680 0.19337
vt 0.89756 0.11846
vt 0.96680 0.11845
vt 0.89756 0.19338
vt 1.89756 0.19338
vt 1.96680 0.11845
vt 1.89756 0.11846
vt 1.96680 0.19337
vt 0.95580 0.52972
vt 0.92772 0.56200
vt 0.92772 0.52972
vt 0.95581 0.56200
vt 1.95580 0.52972
vt 1.92772 0.52972
vt 1.92772 0.56200
vt 1.95581 0.56200
vt 0.06444 0.75098
vt 0.06444 0.81250
vt 0.00293 0.81250
vt 0.00293 0.75098
vt 0.38499 0.44498
vt 0.37486 0.41157
vt 0.38499 0.41157
vt 0.37486 0.44498
vt 1.38499 0.44498
vt 1.38499 0.41157
vt 1.37486 0.41157
vt 1.37486 0.44498
vt 0.45280 0.87017
vt 0.34972 0.95688
vt 0.34974 0.87016
vt 0.45280 0.95689
vt 1.45280 0.87017
vt 1.34973 0.95688
vt 1.45279 0.95689
vt 1.34973 0.87016
vt 0.99452 0.18813
vt 0.99453 0.26785
vt 0.98804 0.26785
vt 0.98803 0.18813
vt 1.99453 0.26785
vt 1.99452 0.18813
vt 1.98804 0.26785
vt 1.98803 0.18813
vt 0.98803 0.00294
vt 0.99453 0.08265
vt 0.98804 0.08265
vt 0.99452 0.00294
vt 1.98803 0.00294
vt 1.98804 0.08265
vt 1.99452 0.00294
vt 1.99453 0.08265
vt 0.38058 0.18766
vt 0.36480 0.25357
vt 0.36480 0.18766
vt 0.38058 0.25357
vt 1.38059 0.25357
vt 1.38059 0.18766
vt 1.36480 0.25357
vt 1.36480 0.18766
vt 0.15259 0.85750
vt 0.08864 0.80701
vt 0.14732 0.80702
vt 0.08335 0.85749
vt 1.15259 0.85750
vt 1.08864 0.80701
vt 1.08335 0.85749
vt 1.14732 0.80702
vt 0.80771 0.15169
vt 0.80771 0.19623
vt 0.79704 0.19623
vt 0.79704 0.15169
vt 1.79704 0.15169
vt 1.79704 0.19623
vt 1.80771 0.15169
vt 1.80771 0.19623
vt 0.66135 0.88137
vt 0.68944 0.90938
vt 0.66135 0.90938
vt 0.68944 0.88137
vt 1.68943 0.90938
vt 1.66135 0.88137
vt 1.66135 0.90938
vt 1.68944 0.88137
vt 0.14116 0.76634
vt 0.09482 0.74656
vt 0.14116 0.74656
vt 0.09481 0.76634
vt 1.09481 0.76634
vt 1.14116 0.76634
vt 1.09482 0.74656
vt 1.14116 0.74656
vt 0.26258 0.76099
vt 0.24686 0.79901
vt 0.19089 0.75483
vt 0.16482 0.79429
vt 1.26258 0.76099
vt 1.19089 0.75483
vt 1.24686 0.79901
vt 1.16482 0.79429
vt 0.00294 0.90938
vt 0.03102 0.96191
vt 0.00293 0.96191
vt 0.03102 0.90938
vt 1.00294 0.90938
vt 1.03102 0.96191
vt 1.03102 0.90938
vt 1.00293 0.96191
vt 0.66134 0.96225
vt 0.68943 0.96225
vt 0.66134 0.98400
vt 0.68942 0.98400
vt 1.66134 0.96225
vt 1.66134 0.98400
vt 1.68943 0.96225
vt 1.68942 0.98400
vt 0.26835 0.84499
vt 0.15874 0.83868
vt 1.15874 0.83868
vt 1.26835 0.84499
vt 0.88013 0.36413
vt 0.83928 0.29982
vt 0.88696 0.30150
vt 0.82246 0.36209
vt 0.89504 0.42753
vt 0.79717 0.42407
vt 1.83928 0.29982
vt 1.88013 0.36413
vt 1.88696 0.30150
vt 1.82246 0.36209
vt 1.89504 0.42753
vt 1.79717 0.42407
vt 0.87778 0.52082
vt 0.90458 0.49252
vt 0.79704 0.49862
vt 0.81615 0.51864
vt 1.87778 0.52082
vt 1.90458 0.49252
vt 1.79704 0.49862
vt 1.81615 0.51864
vt 0.18119 0.89283
vt 0.25611 0.89284
vt 1.25611 0.89284
vt 1.18119 0.89283
vt 0.00293 0.98366
vt 0.03101 0.98366
vt 1.00293 0.98366
vt 1.03101 0.98366
vt 0.92773 0.59428
vt 0.95581 0.59428
vt 1.95581 0.59428
vt 1.92773 0.59428
vt 0.15258 0.90688
vt 0.08335 0.90687
vt 1.15258 0.90688
vt 1.08335 0.90687
vt 0.03102 0.88155
vt 0.00294 0.88155
vt 0.25923 0.74150
vt 0.19445 0.73779
vt 1.03102 0.88155
vt 1.00294 0.88155
vt 1.25923 0.74150
vt 1.19445 0.73779
vt 0.73726 0.44752
vt 0.70155 0.39966
vt 0.73726 0.39966
vt 0.70155 0.44752
vt 0.21402 0.52811
vt 0.26189 0.52811
vt 0.21402 0.60308
vt 0.26189 0.60308
vt 0.99314 0.27406
vt 0.98301 0.31637
vt 0.98300 0.27406
vt 0.99314 0.31637
vt 1.99314 0.27406
vt 1.98301 0.31637
vt 1.99314 0.31637
vt 1.98300 0.27406
vt 0.90020 0.79896
vt 0.85364 0.76108
vt 0.89562 0.77133
vt 0.80709 0.79896
vt 0.81166 0.77133
vt 0.89136 0.85109
vt 0.81593 0.85109
vt 0.89136 0.87284
vt 0.81593 0.87284
vt 0.98053 0.37049
vt 0.94659 0.33261
vt 0.97720 0.34286
vt 0.91264 0.37049
vt 0.91597 0.34286
vt 0.91908 0.42262
vt 0.97409 0.42262
vt 0.97409 0.44437
vt 0.91908 0.44437
vt 0.96410 0.90883
vt 0.90259 0.84732
vt 0.96410 0.84732
vt 0.90259 0.90883
vt 1.85364 0.76108
vt 1.81167 0.77133
vt 1.80709 0.79896
vt 1.90020 0.79896
vt 1.89562 0.77133
vt 1.89136 0.85109
vt 1.81593 0.85109
vt 1.89136 0.87284
vt 1.81593 0.87284
vt 1.94659 0.33261
vt 1.91597 0.34286
vt 1.91264 0.37049
vt 1.98053 0.37049
vt 1.97720 0.34286
vt 1.91908 0.42262
vt 1.97409 0.42262
vt 1.91908 0.44437
vt 1.97409 0.44437
vt 0.58665 0.01974
vt 0.57087 0.07177
vt 0.57087 0.01974
vt 0.58665 0.07177
vt 1.58665 0.01974
vt 1.57087 0.07177
vt 1.58665 0.07177
vt 1.57087 0.01974
vt 0.99367 0.42976
vt 0.98300 0.39461
vt 0.99367 0.39461
vt 0.98300 0.42976
vt 1.99367 0.42976
vt 1.98300 0.39461
vt 1.98300 0.42976
vt 1.99367 0.39461
vt 0.24532 0.69359
vt 0.20399 0.60685
vt 0.24533 0.60686
vt 0.20397 0.69358
vt 1.24531 0.69359
vt 1.24533 0.60686
vt 1.20399 0.60685
vt 1.20397 0.69358
vt 0.20544 0.11723
vt 0.19894 0.18060
vt 0.19895 0.11723
vt 0.20544 0.18060
vt 1.20544 0.18060
vt 1.20544 0.11723
vt 1.19894 0.18060
vt 1.19895 0.11723
vn 0.0000 0.9528 0.3071
vn 0.0000 0.9528 -0.3071
vn 0.0000 1.0000 0.0000
vn 1.0000 0.0000 0.0000
vn 0.8583 -0.5039 0.0000
vn 1.0000 -0.0866 0.0000
vn 0.5354 -0.8425 0.0000
vn 1.0000 -0.0787 0.0000
vn 0.0000 -1.0000 0.0000
vn 0.9921 -0.1496 0.0000
vn -1.0000 0.0000 0.0000
vn 0.0000 0.9843 0.1890
vn 0.0000 0.9843 -0.1890
vn -0.1654 0.0000 0.9843
vn -0.1654 0.0000 -0.9843
vn 0.1260 0.0000 -0.9921
vn 0.1260 0.0000 0.9921
vn 0.0000 -0.1575 0.9843
vn 0.0000 -0.1575 -0.9843
vn 0.0000 -0.1181 0.9921
vn 0.0000 -0.1181 -0.9921
vn 0.0000 -0.0315 1.0000
vn 0.0000 -0.0315 -1.0000
vn 0.0000 0.0000 1.0000
vn 0.0000 0.0000 -1.0000
vn 0.8976 0.4331 0.0000
vn 0.1654 0.0000 0.9843
vn 0.1654 0.0000 -0.9843
vn -0.1181 0.0000 -0.9921
vn -0.1181 0.0000 0.9921
vn -0.9685 0.0000 0.2362
vn -0.9685 0.0000 -0.2362
vn 0.0000 0.0866 1.0000
vn 0.0000 0.0866 -1.0000
vn -0.9370 0.3543 0.0000
vn 0.6850 0.7323 0.0000
vn -0.9606 -0.2756 0.0000
vn -0.7480 0.6614 0.0000
vn -0.4882 -0.8740 0.0000
vn -0.9685 -0.2598 0.0000
vn -0.9843 -0.1811 0.0000
vn 0.0000 -0.1890 0.9843
vn 0.0000 -0.1890 -0.9843
vn 0.7008 0.7165 0.0000
vn 0.0000 -0.3071 0.9528
vn 0.0000 -0.3071 -0.9528
vn -1.0000 0.0709 0.0000
vn 0.9370 -0.3465 0.0000
vn 0.0000 0.3071 -0.9528
vn 0.0000 0.3071 0.9528
vn 1.0000 0.0315 0.0000
vn 0.9764 -0.2283 0.0000
vn 0.0000 -0.7480 0.6693
vn 0.0000 -0.7480 -0.6693
vn -0.0551 1.0000 0.0000
vn -0.9449 0.0000 0.3150
vn -0.9449 0.0000 -0.3150
vn 0.0000 0.1890 -0.9843
vn 0.0000 0.1890 0.9843
vn -0.8819 -0.4803 0.0000
vn -0.9764 -0.2283 0.0000
vn -0.9843 0.1890 0.0000
vn -0.9449 0.3307 0.0000
vn 0.0000 -0.9843 -0.1890
vn 0.0000 -0.9843 0.1890
vn 0.0000 -0.9528 -0.3071
vn 0.0000 -0.9528 0.3071

o animal_koala
usemtl tex_animal_koala_i002p001x
f 1/1/1 2/2/1 3/3/1
f 4/4/1 3/3/1 2/2/1
f 5/5/2 6/6/2 7/7/2
f 5/5/2 7/7/2 8/8/2
f 9/9/3 10/10/3 11/11/3
f 12/12/3 9/9/3 11/11/3
f 13/13/1 14/14/1 15/15/1
f 13/13/1 15/15/1 16/16/1
f 17/17/2 18/18/2 19/19/2
f 20/20/2 19/19/2 18/18/2
f 21/21/3 22/22/3 23/23/3
f 24/24/3 23/23/3 22/22/3
f 25/25/3 26/26/3 27/27/3
f 25/25/3 27/27/3 28/28/3
f 29/29/3 30/30/3 31/31/3
f 32/32/3 31/31/3 30/30/3
f 33/33/3 34/34/3 35/35/3
f 33/33/3 35/35/3 36/36/3
f 37/37/4 38/38/4 39/39/4
f 38/38/4 40/40/4 39/39/4
f 41/41/5 42/42/5 43/43/5
f 42/42/5 41/41/5 44/44/5
f 45/45/5 46/46/5 47/47/5
f 46/46/5 45/45/5 48/48/5
f 49/49/3 50/50/3 51/51/3
f 52/52/3 49/49/3 51/51/3
f 53/53/6 54/54/6 55/55/6
f 56/56/6 55/55/6 54/54/6
f 57/57/7 54/54/7 53/53/7
f 54/54/7 57/57/7 58/58/7
f 42/42/8 44/44/8 59/59/8
f 44/44/8 60/60/8 59/59/8
f 47/47/8 61/61/8 62/62/8
f 46/46/8 61/61/8 47/47/8
f 63/63/9 64/64/9 65/65/9
f 66/66/9 65/65/9 64/64/9
f 66/66/9 64/64/9 67/67/9
f 65/65/9 66/66/9 68/68/9
f 68/68/9 66/66/9 69/69/9
f 69/69/9 70/70/9 68/68/9
f 70/70/9 69/69/9 71/71/9
f 72/72/9 73/73/9 74/74/9
f 73/73/9 75/75/9 74/74/9
f 75/75/9 73/73/9 76/76/9
f 77/77/9 74/74/9 75/75/9
f 74/74/9 77/77/9 78/78/9
f 77/77/9 79/79/9 78/78/9
f 79/79/9 77/77/9 80/80/9
f 81/81/9 82/82/9 83/83/9
f 84/84/9 82/82/9 81/81/9
f 84/84/9 81/81/9 85/85/9
f 86/86/9 82/82/9 84/84/9
f 82/82/9 86/86/9 87/87/9
f 88/88/9 87/87/9 86/86/9
f 87/87/9 88/88/9 89/89/9
f 90/90/9 91/91/9 92/92/9
f 90/90/9 93/93/9 91/91/9
f 93/93/9 90/90/9 94/94/9
f 91/91/9 93/93/9 95/95/9
f 96/96/9 95/95/9 93/93/9
f 95/95/9 96/96/9 97/97/9
f 97/97/9 96/96/9 98/98/9
f 99/99/10 43/43/10 100/100/10
f 43/43/10 99/99/10 41/41/10
f 48/48/10 101/101/10 102/102/10
f 101/101/10 48/48/10 45/45/10
f 49/103/11 103/104/11 104/105/11
f 103/104/11 49/103/11 52/106/11
f 105/107/12 106/108/12 107/109/12
f 105/107/12 107/109/12 108/110/12
f 109/111/13 110/112/13 111/113/13
f 110/112/13 109/111/13 112/114/13
f 79/115/4 113/116/4 114/117/4
f 79/115/4 80/118/4 113/116/4
f 98/119/4 115/120/4 97/121/4
f 115/120/4 98/119/4 116/122/4
f 117/123/14 63/124/14 65/125/14
f 117/123/14 65/125/14 118/126/14
f 119/127/15 84/128/15 85/129/15
f 84/128/15 119/127/15 120/130/15
f 121/131/9 100/132/9 122/133/9
f 100/132/9 121/131/9 99/134/9
f 123/135/9 102/136/9 101/137/9
f 123/135/9 124/138/9 102/136/9
f 125/139/9 126/140/9 127/141/9
f 126/140/9 125/139/9 128/142/9
f 129/143/9 130/144/9 131/145/9
f 129/143/9 132/146/9 130/144/9
f 133/147/16 134/148/16 93/149/16
f 93/149/16 134/148/16 96/150/16
f 135/151/17 74/152/17 78/153/17
f 74/152/17 135/151/17 136/154/17
f 32/155/11 137/156/11 31/157/11
f 137/156/11 32/155/11 138/158/11
f 34/159/11 139/160/11 140/161/11
f 34/159/11 33/162/11 139/160/11
f 43/163/18 141/164/18 142/165/18
f 141/164/18 43/163/18 42/166/18
f 143/167/19 48/168/19 144/169/19
f 48/168/19 143/167/19 46/170/19
f 141/164/20 59/171/20 145/172/20
f 59/171/20 141/164/20 42/166/20
f 24/173/11 146/174/11 23/175/11
f 146/174/11 24/173/11 147/176/11
f 61/177/21 143/167/21 148/178/21
f 143/167/21 61/177/21 46/170/21
f 26/179/11 149/180/11 150/181/11
f 26/179/11 25/182/11 149/180/11
f 105/183/11 151/184/11 106/185/11
f 151/184/11 105/183/11 152/186/11
f 111/187/11 153/188/11 154/189/11
f 153/188/11 111/187/11 110/190/11
f 155/191/22 125/192/22 127/193/22
f 155/191/22 127/193/22 156/194/22
f 157/195/22 155/191/22 156/194/22
f 157/195/22 156/194/22 158/196/22
f 159/197/23 130/198/23 132/199/23
f 130/198/23 159/197/23 160/200/23
f 161/201/23 160/200/23 159/197/23
f 160/200/23 161/201/23 162/202/23
f 157/195/24 163/203/24 164/204/24
f 165/205/24 163/203/24 157/195/24
f 163/203/24 165/205/24 166/206/24
f 157/195/24 158/196/24 165/205/24
f 167/207/24 145/172/24 59/171/24
f 145/172/24 167/207/24 168/208/24
f 169/209/25 161/201/25 170/210/25
f 161/201/25 169/209/25 171/211/25
f 171/211/25 169/209/25 172/212/25
f 161/201/25 171/211/25 162/202/25
f 148/178/25 173/213/25 61/177/25
f 173/213/25 148/178/25 174/214/25
f 175/215/11 176/216/11 177/217/11
f 176/216/11 175/215/11 178/218/11
f 9/219/11 178/218/11 175/215/11
f 9/219/11 12/220/11 178/218/11
f 59/59/26 60/60/26 167/221/26
f 60/60/26 179/222/26 167/221/26
f 62/62/26 173/223/26 180/224/26
f 61/61/26 173/223/26 62/62/26
f 86/225/25 181/226/25 88/227/25
f 86/225/25 182/228/25 181/226/25
f 183/229/24 68/230/24 70/231/24
f 68/230/24 183/229/24 184/232/24
f 65/125/27 184/232/27 118/126/27
f 184/232/27 65/125/27 68/230/27
f 84/128/28 182/228/28 86/225/28
f 120/130/28 182/228/28 84/128/28
f 114/233/24 78/153/24 79/234/24
f 78/153/24 114/233/24 135/151/24
f 96/150/25 116/235/25 98/236/25
f 96/150/25 134/148/25 116/235/25
f 43/163/24 122/237/24 100/238/24
f 122/237/24 43/163/24 142/165/24
f 185/239/29 93/149/29 94/240/29
f 93/149/29 185/239/29 133/147/29
f 144/169/25 48/168/25 124/241/25
f 124/241/25 48/168/25 102/242/25
f 186/243/30 72/244/30 74/152/30
f 186/243/30 74/152/30 136/154/30
f 117/245/31 64/246/31 63/247/31
f 187/248/31 64/246/31 117/245/31
f 119/249/32 85/250/32 81/251/32
f 188/252/32 119/249/32 81/251/32
f 9/253/33 175/254/33 189/255/33
f 9/253/33 189/255/33 10/256/33
f 12/257/34 11/258/34 178/259/34
f 178/259/34 11/258/34 190/260/34
f 191/261/35 192/262/35 193/263/35
f 192/262/35 191/261/35 194/264/35
f 55/55/36 191/265/36 193/266/36
f 191/265/36 55/55/36 56/56/36
f 53/267/24 195/268/24 57/269/24
f 195/268/24 53/267/24 192/270/24
f 55/271/24 192/270/24 53/267/24
f 192/270/24 55/271/24 193/272/24
f 196/273/25 54/274/25 58/275/25
f 194/276/25 54/274/25 196/273/25
f 194/276/25 56/277/25 54/274/25
f 56/277/25 194/276/25 191/278/25
f 23/279/24 146/280/24 197/281/24
f 23/279/24 197/281/24 21/282/24
f 25/283/25 198/284/25 149/285/25
f 198/284/25 25/283/25 28/286/25
f 194/264/37 195/287/37 192/262/37
f 195/287/37 194/264/37 196/288/37
f 163/289/38 199/290/38 164/291/38
f 199/290/38 163/289/38 200/292/38
f 201/293/38 169/294/38 202/295/38
f 170/296/38 202/295/38 169/294/38
f 195/297/39 58/298/39 57/299/39
f 58/298/39 195/297/39 196/300/39
f 31/301/24 137/302/24 203/303/24
f 31/301/24 203/303/24 29/304/24
f 33/305/25 204/306/25 139/307/25
f 204/306/25 33/305/25 36/308/25
f 205/309/9 37/310/9 206/311/9
f 37/310/9 205/309/9 38/312/9
f 187/248/32 67/313/32 64/246/32
f 207/314/32 67/313/32 187/248/32
f 188/252/31 81/251/31 83/315/31
f 208/316/31 188/252/31 83/315/31
f 155/317/40 209/318/40 210/319/40
f 209/318/40 155/317/40 157/320/40
f 211/321/40 159/322/40 212/323/40
f 211/321/40 161/324/40 159/322/40
f 164/291/41 209/318/41 157/320/41
f 209/318/41 164/291/41 199/290/41
f 170/296/41 211/321/41 202/295/41
f 211/321/41 170/296/41 161/324/41
f 163/325/3 166/326/3 213/327/3
f 200/328/3 163/325/3 213/327/3
f 172/329/3 201/330/3 214/331/3
f 201/330/3 172/329/3 169/332/3
f 3/333/11 14/334/11 215/335/11
f 14/334/11 3/333/11 216/336/11
f 13/337/11 215/335/11 14/334/11
f 4/338/11 216/336/11 3/333/11
f 215/335/11 13/337/11 217/339/11
f 4/338/11 217/339/11 13/337/11
f 216/336/11 4/338/11 218/340/11
f 4/338/11 13/337/11 218/340/11
f 219/341/11 6/342/11 19/343/11
f 19/343/11 220/344/11 219/341/11
f 19/343/11 6/342/11 221/345/11
f 220/344/11 19/343/11 20/346/11
f 6/342/11 222/347/11 221/345/11
f 20/346/11 5/348/11 220/344/11
f 222/347/11 6/342/11 5/348/11
f 5/348/11 20/346/11 222/347/11
f 223/349/42 107/350/42 151/351/42
f 106/352/42 151/351/42 107/350/42
f 153/353/43 112/354/43 224/355/43
f 153/353/43 110/356/43 112/354/43
f 225/357/11 15/358/11 226/359/11
f 15/358/11 225/357/11 16/360/11
f 18/361/11 17/362/11 227/363/11
f 228/364/11 18/361/11 227/363/11
f 213/365/44 166/366/44 165/367/44
f 213/365/44 165/367/44 229/368/44
f 230/369/44 171/370/44 214/371/44
f 172/372/44 214/371/44 171/370/44
f 231/373/4 189/374/4 232/375/4
f 190/376/4 189/374/4 231/373/4
f 190/376/4 10/377/4 189/374/4
f 10/377/4 190/376/4 11/378/4
f 3/379/45 215/380/45 233/381/45
f 3/379/45 233/381/45 1/382/45
f 5/383/46 234/384/46 220/385/46
f 234/384/46 5/383/46 8/386/46
f 155/317/47 128/387/47 125/388/47
f 128/387/47 155/317/47 210/319/47
f 159/322/47 129/389/47 212/323/47
f 129/389/47 159/322/47 132/390/47
f 235/391/48 156/392/48 236/393/48
f 156/392/48 235/391/48 158/394/48
f 2/395/49 217/396/49 4/397/49
f 217/396/49 2/395/49 237/398/49
f 160/399/48 238/400/48 239/401/48
f 238/400/48 160/399/48 162/402/48
f 6/403/50 219/404/50 7/405/50
f 240/406/50 7/405/50 219/404/50
f 158/394/51 235/391/51 165/367/51
f 235/391/51 229/368/51 165/367/51
f 238/400/51 171/370/51 230/369/51
f 162/402/51 171/370/51 238/400/51
f 241/407/24 206/408/24 37/409/24
f 241/407/24 37/409/24 39/410/24
f 205/411/25 40/412/25 38/413/25
f 242/414/25 40/412/25 205/411/25
f 127/415/52 126/416/52 156/392/52
f 126/416/52 236/393/52 156/392/52
f 131/417/52 160/399/52 239/401/52
f 130/418/52 160/399/52 131/417/52
f 49/419/24 104/420/24 243/421/24
f 49/419/24 243/421/24 50/422/24
f 103/423/25 51/424/25 244/425/25
f 103/423/25 52/426/25 51/424/25
f 71/427/4 183/428/4 70/429/4
f 183/428/4 71/427/4 245/430/4
f 89/431/4 181/432/4 246/433/4
f 181/432/4 89/431/4 88/434/4
f 189/435/53 175/436/53 177/437/53
f 177/437/53 232/438/53 189/435/53
f 190/439/54 176/440/54 178/441/54
f 176/440/54 190/439/54 231/442/54
f 167/443/55 247/444/55 168/445/55
f 247/444/55 167/443/55 179/446/55
f 180/447/55 174/448/55 248/449/55
f 174/448/55 180/447/55 173/450/55
f 186/451/56 73/452/56 72/453/56
f 73/452/56 186/451/56 249/454/56
f 185/455/57 94/456/57 90/457/57
f 250/458/57 185/455/57 90/457/57
f 241/459/3 39/460/3 40/461/3
f 242/462/3 241/459/3 40/461/3
f 105/463/58 251/464/58 152/465/58
f 251/464/58 105/463/58 108/466/58
f 111/467/59 154/468/59 252/469/59
f 111/467/59 252/469/59 109/470/59
f 233/471/4 2/472/4 1/473/4
f 2/472/4 233/471/4 237/474/4
f 234/475/4 7/476/4 240/477/4
f 7/476/4 234/475/4 8/478/4
f 218/479/45 13/480/45 16/481/45
f 218/479/45 16/481/45 225/482/45
f 19/483/46 221/484/46 17/485/46
f 227/486/46 17/485/46 221/484/46
f 15/487/49 216/488/49 226/489/49
f 216/488/49 15/487/49 14/490/49
f 18/491/50 228/492/50 20/493/50
f 222/494/50 20/493/50 228/492/50
f 147/495/25 22/496/25 253/497/25
f 147/495/25 24/498/25 22/496/25
f 26/499/24 150/500/24 27/501/24
f 254/502/24 27/501/24 150/500/24
f 145/503/60 255/504/60 141/505/60
f 255/504/60 145/503/60 256/506/60
f 148/507/60 257/508/60 258/509/60
f 257/508/60 148/507/60 143/510/60
f 138/511/25 32/512/25 30/513/25
f 138/511/25 30/513/25 259/514/25
f 260/515/24 35/516/24 140/517/24
f 34/518/24 140/517/24 35/516/24
f 67/519/15 261/520/15 66/521/15
f 67/519/15 207/522/15 261/520/15
f 262/523/14 83/524/14 82/525/14
f 83/524/14 262/523/14 208/526/14
f 142/527/61 121/528/61 122/529/61
f 142/527/61 263/530/61 121/528/61
f 264/531/61 144/532/61 123/533/61
f 124/534/61 123/533/61 144/532/61
f 263/535/19 255/536/19 41/537/19
f 255/536/19 44/538/19 41/537/19
f 264/539/18 45/540/18 257/541/18
f 47/542/18 257/541/18 45/540/18
f 75/543/16 265/544/16 77/545/16
f 265/544/16 75/543/16 266/546/16
f 91/547/17 267/548/17 268/549/17
f 267/548/17 91/547/17 95/550/17
f 69/551/25 269/552/25 71/553/25
f 269/552/25 245/554/25 71/553/25
f 87/555/24 89/556/24 270/557/24
f 270/557/24 89/556/24 246/558/24
f 256/559/21 60/560/21 255/536/21
f 255/536/21 60/560/21 44/538/21
f 62/561/20 258/562/20 257/541/20
f 257/541/20 47/542/20 62/561/20
f 69/551/28 66/521/28 261/520/28
f 261/520/28 269/552/28 69/551/28
f 82/525/27 87/555/27 262/523/27
f 262/523/27 87/555/27 270/557/27
f 210/563/23 126/564/23 128/565/23
f 126/564/23 210/563/23 236/566/23
f 209/567/23 236/566/23 210/563/23
f 236/566/23 209/567/23 235/568/23
f 131/569/22 212/570/22 129/571/22
f 212/570/22 131/569/22 239/572/22
f 239/572/22 211/573/22 212/570/22
f 211/573/22 239/572/22 238/574/22
f 200/575/25 209/567/25 199/576/25
f 200/575/25 229/577/25 209/567/25
f 209/567/25 229/577/25 235/568/25
f 229/577/25 200/575/25 213/578/25
f 211/573/24 201/579/24 202/580/24
f 201/579/24 211/573/24 230/581/24
f 230/581/24 211/573/24 238/574/24
f 201/579/24 230/581/24 214/582/24
f 176/440/9 232/438/9 177/437/9
f 232/438/9 176/440/9 231/442/9
f 60/560/25 256/559/25 179/583/25
f 179/583/25 256/559/25 247/584/25
f 248/585/24 258/562/24 180/586/24
f 258/562/24 62/561/24 180/586/24
f 77/545/25 265/544/25 80/587/25
f 265/544/25 113/588/25 80/587/25
f 95/550/24 97/589/24 267/548/24
f 267/548/24 97/589/24 115/590/24
f 249/454/57 76/591/57 73/452/57
f 76/591/57 249/454/57 271/592/57
f 272/593/56 250/458/56 92/594/56
f 250/458/56 90/457/56 92/594/56
f 168/595/62 256/506/62 145/503/62
f 256/506/62 168/595/62 247/596/62
f 174/597/62 258/509/62 248/598/62
f 258/509/62 174/597/62 148/507/62
f 271/599/29 75/543/29 76/600/29
f 75/543/29 271/599/29 266/546/29
f 121/601/25 41/537/25 99/602/25
f 41/537/25 121/601/25 263/535/25
f 91/547/30 272/603/30 92/604/30
f 272/603/30 91/547/30 268/549/30
f 45/540/24 123/605/24 101/606/24
f 123/605/24 45/540/24 264/539/24
f 141/505/63 263/530/63 142/527/63
f 255/504/63 263/530/63 141/505/63
f 257/508/63 143/510/63 264/531/63
f 143/510/63 144/532/63 264/531/63
f 103/607/9 243/608/9 104/609/9
f 243/608/9 103/607/9 244/610/9
f 243/611/4 244/612/4 50/613/4
f 244/612/4 51/614/4 50/613/4
f 151/615/64 251/616/64 223/617/64
f 151/615/64 152/618/64 251/616/64
f 153/619/65 252/620/65 154/621/65
f 252/620/65 153/619/65 224/622/65
f 118/623/3 187/624/3 117/625/3
f 118/623/3 261/626/3 187/624/3
f 187/624/3 261/626/3 207/627/3
f 261/626/3 118/623/3 184/628/3
f 261/626/3 184/628/3 269/629/3
f 183/630/3 269/629/3 184/628/3
f 269/629/3 183/630/3 245/631/3
f 136/632/3 249/633/3 186/634/3
f 249/633/3 136/632/3 266/635/3
f 249/633/3 266/635/3 271/636/3
f 136/632/3 265/637/3 266/635/3
f 265/637/3 136/632/3 135/638/3
f 114/639/3 265/637/3 135/638/3
f 265/637/3 114/639/3 113/640/3
f 241/641/11 205/642/11 206/643/11
f 205/642/11 241/641/11 242/644/11
f 188/645/3 208/646/3 262/647/3
f 120/648/3 188/645/3 262/647/3
f 188/645/3 120/648/3 119/649/3
f 262/647/3 182/650/3 120/648/3
f 182/650/3 262/647/3 270/651/3
f 270/651/3 181/652/3 182/650/3
f 181/652/3 270/651/3 246/653/3
f 250/654/3 272/655/3 268/656/3
f 133/657/3 250/654/3 268/656/3
f 250/654/3 133/657/3 185/658/3
f 268/656/3 267/659/3 133/657/3
f 133/657/3 267/659/3 134/660/3
f 115/661/3 134/660/3 267/659/3
f 134/660/3 115/661/3 116/662/3
f 146/663/9 253/664/9 197/665/9
f 253/664/9 146/663/9 147/666/9
f 149/667/9 254/668/9 150/669/9
f 254/668/9 149/667/9 198/670/9
f 138/671/9 203/672/9 137/673/9
f 203/672/9 138/671/9 259/674/9
f 140/675/9 204/676/9 260/677/9
f 140/675/9 139/678/9 204/676/9
f 217/679/66 233/680/66 215/681/66
f 233/680/66 217/679/66 237/682/66
f 219/683/67 220/684/67 234/685/67
f 219/683/67 234/685/67 240/686/67
f 216/687/66 225/688/66 226/689/66
f 216/687/66 218/690/66 225/688/66
f 221/691/67 222/692/67 227/693/67
f 228/694/67 227/693/67 222/692/67
