# Roblox asset pack: egg_mecha_dinosaur (props), from the Studio model "MechaDinosaur". Exported with Export Selection, split by tools/build_creatures.py: one object per rigid body. Units: studs. +Y up, front faces -Z, pivot (bottom centre) at the origin.
mtllib egg_mecha_dinosaur.mtl

v 0.74333 7.43000 0.74000
v 3.71650 7.43000 0.74000
v 0.74333 4.46000 0.74000
v 3.71650 4.46000 0.74000
v 3.71650 7.43000 3.72000
v 0.74333 7.43000 3.72000
v 3.71650 4.46000 3.72000
v 0.74333 4.46000 3.72000
v 0.74333 2.97000 -3.72000
v 3.71650 2.97000 -3.72000
v 0.74333 0.00000 -3.72000
v 3.71650 0.00000 -3.72000
v 3.71650 2.97000 -0.74000
v 0.74333 2.97000 -0.74000
v 3.71650 0.00000 -0.74000
v 0.74333 0.00000 -0.74000
v 0.74333 2.97000 0.74000
v 3.71650 2.97000 0.74000
v 0.74333 0.00000 0.74000
v 3.71650 0.00000 0.74000
v 3.71650 2.97000 3.72000
v 0.74333 2.97000 3.72000
v 3.71650 0.00000 3.72000
v 0.74333 0.00000 3.72000
v 0.74333 7.43000 -3.72000
v 3.71650 7.43000 -3.72000
v 0.74333 4.46000 -3.72000
v 3.71650 4.46000 -3.72000
v 3.71650 7.43000 -0.74000
v 0.74333 7.43000 -0.74000
v 3.71650 4.46000 -0.74000
v 0.74333 4.46000 -0.74000
v -3.71650 7.43000 0.74000
v -0.74333 7.43000 0.74000
v -3.71650 4.46000 0.74000
v -0.74333 4.46000 0.74000
v -0.74333 7.43000 3.72000
v -3.71650 7.43000 3.72000
v -0.74333 4.46000 3.72000
v -3.71650 4.46000 3.72000
v -3.71650 2.97000 -3.72000
v -0.74333 2.97000 -3.72000
v -3.71650 0.00000 -3.72000
v -0.74333 0.00000 -3.72000
v -0.74333 2.97000 -0.74000
v -3.71650 2.97000 -0.74000
v -0.74333 0.00000 -0.74000
v -3.71650 0.00000 -0.74000
v -3.71650 7.43000 -3.72000
v -0.74333 7.43000 -3.72000
v -3.71650 4.46000 -3.72000
v -0.74333 4.46000 -3.72000
v -0.74333 7.43000 -0.74000
v -3.71650 7.43000 -0.74000
v -0.74333 4.46000 -0.74000
v -3.71650 4.46000 -0.74000
v -3.71650 2.97000 0.74000
v -0.74333 2.97000 0.74000
v -3.71650 0.00000 0.74000
v -0.74333 0.00000 0.74000
v -0.74333 2.97000 3.72000
v -3.71650 2.97000 3.72000
v -0.74333 0.00000 3.72000
v -3.71650 0.00000 3.72000
v -2.97317 6.69000 -2.97000
v 2.97317 6.69000 -2.97000
v -2.97317 0.74000 -2.97000
v 2.97317 0.74000 -2.97000
v 2.97317 6.69000 2.97000
v -2.97317 6.69000 2.97000
v 2.97317 0.74000 2.97000
v -2.97317 0.74000 2.97000
v -1.48658 5.20000 -1.49000
v 1.48658 5.20000 -1.49000
v -1.48658 2.23000 -1.49000
v 1.48658 2.23000 -1.49000
v 1.48658 5.20000 1.49000
v -1.48658 5.20000 1.49000
v 1.48658 2.23000 1.49000
v -1.48658 2.23000 1.49000
vt 6.12165 1.00000
vt 5.75000 1.00000
vt 6.12165 0.62835
vt 5.75000 0.62835
vt 4.37165 -4.25000
vt 4.00000 -4.25000
vt 4.37165 -4.62165
vt 4.00000 -4.62165
vt 1.62165 -1.00000
vt 1.25000 -1.00000
vt 1.62165 -1.37165
vt 1.25000 -1.37165
vt 0.62165 -5.50000
vt 0.25000 -5.50000
vt 0.62165 -5.87165
vt 0.25000 -5.87165
vt 2.37165 -6.00000
vt 2.00000 -6.00000
vt 2.37165 -6.37165
vt 2.00000 -6.37165
vt 6.12165 -3.50000
vt 5.75000 -3.50000
vt 6.12165 -3.87165
vt 5.75000 -3.87165
vt 2.12165 -3.25000
vt 1.75000 -3.25000
vt 2.12165 -3.62165
vt 1.75000 -3.62165
vt 0.87165 -1.00000
vt 0.50000 -1.00000
vt 0.87165 -1.37165
vt 0.50000 -1.37165
vt 1.53471 0.88623
vt 0.79142 0.88623
vt 1.53471 0.14294
vt 0.79142 0.14294
vt 0.03866 0.53626
vt -0.33298 0.53626
vt 0.03866 0.16462
vt -0.33298 0.16462
vn 0.0000 0.0000 -1.0000
vn 0.0000 1.0000 0.0000
vn 1.0000 0.0000 0.0000
vn 0.0000 0.0000 1.0000
vn 0.0000 -1.0000 0.0000
vn -1.0000 0.0000 0.0000

o egg_mecha_dinosaur
usemtl c_9fa1ac
f 1/1/1 2/2/1 3/3/1
f 3/3/1 2/2/1 4/4/1
f 5/1/2 2/2/2 6/3/2
f 6/3/2 2/2/2 1/4/2
f 2/1/3 5/2/3 4/3/3
f 4/3/3 5/2/3 7/4/3
f 5/1/4 6/2/4 7/3/4
f 7/3/4 6/2/4 8/4/4
f 8/1/5 3/2/5 7/3/5
f 7/3/5 3/2/5 4/4/5
f 6/1/6 1/2/6 8/3/6
f 8/3/6 1/2/6 3/4/6
f 9/5/1 10/6/1 11/7/1
f 11/7/1 10/6/1 12/8/1
f 13/5/2 10/6/2 14/7/2
f 14/7/2 10/6/2 9/8/2
f 10/5/3 13/6/3 12/7/3
f 12/7/3 13/6/3 15/8/3
f 13/5/4 14/6/4 15/7/4
f 15/7/4 14/6/4 16/8/4
f 16/5/5 11/6/5 15/7/5
f 15/7/5 11/6/5 12/8/5
f 14/5/6 9/6/6 16/7/6
f 16/7/6 9/6/6 11/8/6
f 17/9/1 18/10/1 19/11/1
f 19/11/1 18/10/1 20/12/1
f 21/9/2 18/10/2 22/11/2
f 22/11/2 18/10/2 17/12/2
f 18/9/3 21/10/3 20/11/3
f 20/11/3 21/10/3 23/12/3
f 21/9/4 22/10/4 23/11/4
f 23/11/4 22/10/4 24/12/4
f 24/9/5 19/10/5 23/11/5
f 23/11/5 19/10/5 20/12/5
f 22/9/6 17/10/6 24/11/6
f 24/11/6 17/10/6 19/12/6
f 25/13/1 26/14/1 27/15/1
f 27/15/1 26/14/1 28/16/1
f 29/13/2 26/14/2 30/15/2
f 30/15/2 26/14/2 25/16/2
f 26/13/3 29/14/3 28/15/3
f 28/15/3 29/14/3 31/16/3
f 29/13/4 30/14/4 31/15/4
f 31/15/4 30/14/4 32/16/4
f 32/13/5 27/14/5 31/15/5
f 31/15/5 27/14/5 28/16/5
f 30/13/6 25/14/6 32/15/6
f 32/15/6 25/14/6 27/16/6
f 33/17/1 34/18/1 35/19/1
f 35/19/1 34/18/1 36/20/1
f 37/17/2 34/18/2 38/19/2
f 38/19/2 34/18/2 33/20/2
f 34/17/3 37/18/3 36/19/3
f 36/19/3 37/18/3 39/20/3
f 37/17/4 38/18/4 39/19/4
f 39/19/4 38/18/4 40/20/4
f 40/17/5 35/18/5 39/19/5
f 39/19/5 35/18/5 36/20/5
f 38/17/6 33/18/6 40/19/6
f 40/19/6 33/18/6 35/20/6
f 41/21/1 42/22/1 43/23/1
f 43/23/1 42/22/1 44/24/1
f 45/21/2 42/22/2 46/23/2
f 46/23/2 42/22/2 41/24/2
f 42/21/3 45/22/3 44/23/3
f 44/23/3 45/22/3 47/24/3
f 45/21/4 46/22/4 47/23/4
f 47/23/4 46/22/4 48/24/4
f 48/21/5 43/22/5 47/23/5
f 47/23/5 43/22/5 44/24/5
f 46/21/6 41/22/6 48/23/6
f 48/23/6 41/22/6 43/24/6
f 49/25/1 50/26/1 51/27/1
f 51/27/1 50/26/1 52/28/1
f 53/25/2 50/26/2 54/27/2
f 54/27/2 50/26/2 49/28/2
f 50/25/3 53/26/3 52/27/3
f 52/27/3 53/26/3 55/28/3
f 53/25/4 54/26/4 55/27/4
f 55/27/4 54/26/4 56/28/4
f 56/25/5 51/26/5 55/27/5
f 55/27/5 51/26/5 52/28/5
f 54/25/6 49/26/6 56/27/6
f 56/27/6 49/26/6 51/28/6
f 57/29/1 58/30/1 59/31/1
f 59/31/1 58/30/1 60/32/1
f 61/29/2 58/30/2 62/31/2
f 62/31/2 58/30/2 57/32/2
f 58/29/3 61/30/3 60/31/3
f 60/31/3 61/30/3 63/32/3
f 61/29/4 62/30/4 63/31/4
f 63/31/4 62/30/4 64/32/4
f 64/29/5 59/30/5 63/31/5
f 63/31/5 59/30/5 60/32/5
f 62/29/6 57/30/6 64/31/6
f 64/31/6 57/30/6 59/32/6
usemtl c_ff0000_neon_a50
f 65/33/1 66/34/1 67/35/1
f 67/35/1 66/34/1 68/36/1
f 69/33/2 66/34/2 70/35/2
f 70/35/2 66/34/2 65/36/2
f 66/33/3 69/34/3 68/35/3
f 68/35/3 69/34/3 71/36/3
f 69/33/4 70/34/4 71/35/4
f 71/35/4 70/34/4 72/36/4
f 72/33/5 67/34/5 71/35/5
f 71/35/5 67/34/5 68/36/5
f 70/33/6 65/34/6 72/35/6
f 72/35/6 65/34/6 67/36/6
usemtl c_f8f8f8_neon
f 73/37/1 74/38/1 75/39/1
f 75/39/1 74/38/1 76/40/1
f 77/37/2 74/38/2 78/39/2
f 78/39/2 74/38/2 73/40/2
f 74/37/3 77/38/3 76/39/3
f 76/39/3 77/38/3 79/40/3
f 77/37/4 78/38/4 79/39/4
f 79/39/4 78/38/4 80/40/4
f 80/37/5 75/38/5 79/39/5
f 79/39/5 75/38/5 76/40/5
f 78/37/6 73/38/6 80/39/6
f 80/39/6 73/38/6 75/40/6
