# Roblox asset pack: bronto (creatures), from the Studio model "Bronto". Exported with Export Selection, split by tools/build_creatures.py: one object per rigid body. Units: studs. +Y up, front faces -Z, pivot (bottom centre) at the origin.
mtllib bronto.mtl

v -2.54700 8.75000 -1.15000
v -3.87300 4.75000 -1.15000
v -3.87300 8.75000 -1.15000
v -2.54700 4.75000 -1.15000
v -2.54700 3.18000 -0.79000
v -3.87300 3.18000 -0.79000
v -2.54700 0.65000 0.16000
v -3.87300 2.56000 0.16000
v -2.54700 2.56000 0.16000
v -3.87300 0.65000 0.16000
v -2.54700 8.75000 0.97000
v -3.87300 8.75000 0.97000
v -2.54700 8.40000 1.84000
v -3.87300 8.40000 1.84000
v -2.54700 4.75000 1.84000
v -2.54700 3.50000 1.84000
v -2.54700 2.56000 2.19000
v -2.54700 0.65000 2.19000
v -3.87300 2.56000 2.19000
v -3.87300 0.65000 2.19000
v -3.87300 4.75000 1.84000
v -3.87300 3.50000 1.84000
v -2.54700 5.15000 -8.71000
v 2.12800 4.22000 -8.10000
v -2.12800 4.22000 -8.10000
v 2.54700 5.15000 -8.71000
v -2.54700 8.13000 -8.70000
v 2.54700 8.13000 -8.70000
v 2.54700 10.48000 -6.67000
v -2.54700 10.48000 -6.67000
v 2.54700 11.10000 -5.54000
v -2.54700 10.44000 -6.12000
v -2.54700 11.10000 -5.54000
v 2.54700 10.44000 -6.12000
v 2.11400 11.10000 2.11000
v -2.11400 5.85000 2.10000
v -2.11400 11.10000 2.11000
v 2.11400 5.85000 2.10000
v -2.11400 10.22000 3.46000
v 2.11400 10.22000 3.46000
v -2.54700 11.10000 2.11000
v 2.54700 11.10000 2.11000
v 2.54700 5.15000 2.10000
v 2.11600 4.22000 -7.56000
v 2.54700 5.15000 -8.27000
v 1.91600 4.22000 1.49000
v 2.54700 7.97000 -8.28000
v 2.11400 5.81000 3.51000
v -2.11400 5.81000 3.51000
v -2.54700 5.15000 2.10000
v -1.91600 4.22000 1.49000
v -2.11600 4.22000 -7.56000
v -2.54700 5.15000 -8.27000
v -2.54700 7.97000 -8.28000
v -1.16200 10.30000 1.29000
v -1.57700 7.12000 1.29000
v -1.57800 10.30000 1.29000
v -1.16200 7.12000 1.29000
v 1.15100 10.30000 1.29000
v 1.56600 7.12000 1.29000
v 1.15100 7.12000 1.29000
v 1.56800 10.30000 1.29000
v -1.57800 10.20000 3.46000
v -1.16100 10.20000 3.46000
v 1.56800 10.20000 3.46000
v 1.15000 10.20000 3.46000
v 0.75600 6.95000 12.59000
v 1.01400 6.72000 10.26000
v 0.67000 6.72000 10.26000
v 0.81600 7.03000 7.82000
v 0.45200 6.95000 12.59000
v 0.35000 7.12000 14.69000
v 0.21500 7.12000 14.69000
v 1.13600 7.03000 7.82000
v 0.82700 8.49000 5.50000
v 1.23600 8.49000 5.50000
v -0.46300 6.95000 12.59000
v -0.36100 7.12000 14.69000
v -0.22600 7.12000 14.69000
v -0.76700 6.95000 12.59000
v -0.68100 6.72000 10.26000
v -1.02400 6.72000 10.26000
v -0.82700 7.03000 7.82000
v -1.14700 7.03000 7.82000
v -0.83700 8.49000 5.50000
v -1.24700 8.49000 5.50000
v 0.84400 5.49000 12.92000
v 0.35600 6.53000 15.00000
v 1.04300 5.00000 10.03000
v 1.16900 5.26000 7.11000
v 1.25200 5.82000 5.28000
v 1.56600 6.68000 3.46000
v 0.21500 6.53000 15.00000
v -0.22600 6.53000 15.00000
v -0.36700 6.53000 15.00000
v -1.16100 6.68000 3.46000
v 1.15000 6.68000 3.46000
v -0.93500 5.82000 5.28000
v 0.92400 5.82000 5.28000
v -0.82700 5.26000 7.11000
v 0.81600 5.26000 7.11000
v 0.67000 5.00000 10.03000
v -0.68100 5.00000 10.03000
v -0.46300 5.49000 12.92000
v 0.45200 5.49000 12.92000
v -0.85500 5.49000 12.92000
v -1.05400 5.00000 10.03000
v -1.18000 5.26000 7.11000
v -1.26300 5.82000 5.28000
v -1.57700 6.68000 3.46000
v 0.58600 24.49000 -11.67000
v -0.58600 22.58000 -11.67000
v -0.58600 24.49000 -11.67000
v -0.88600 24.49000 -11.67000
v -0.88600 22.58000 -11.67000
v 0.58600 22.58000 -11.67000
v 0.88600 22.58000 -11.67000
v 0.88600 24.49000 -11.67000
v -0.58000 22.58000 -9.96000
v 0.57800 20.75000 -9.74000
v -0.57800 20.75000 -9.74000
v 0.58000 22.58000 -9.96000
v -0.89200 13.60000 -10.03000
v 0.89200 13.60000 -10.03000
v -0.94200 12.67000 -10.03000
v 0.94200 12.67000 -10.03000
v 0.95900 11.57000 -10.03000
v -0.95900 11.57000 -10.03000
v -0.96700 10.48000 -10.03000
v 0.96700 10.48000 -10.03000
v 0.96300 5.15000 -9.06000
v -0.96300 5.15000 -9.06000
v -1.38100 5.15000 -9.06000
v -1.38100 10.48000 -10.03000
v -1.38100 11.57000 -10.03000
v -1.34100 12.67000 -10.03000
v -1.27500 13.60000 -10.03000
v -0.91900 20.75000 -9.74000
v -0.88600 22.58000 -9.96000
v 1.38100 5.15000 -9.06000
v 1.38100 10.48000 -10.03000
v 1.38100 11.57000 -10.03000
v 1.34100 12.67000 -10.03000
v 1.27500 13.60000 -10.03000
v 0.91900 20.75000 -9.74000
v 0.88600 22.58000 -9.96000
v 0.58300 24.49000 -10.68000
v 0.88600 24.49000 -10.68000
v 0.88600 24.49000 -9.96000
v 0.58000 24.49000 -9.96000
v -0.58300 24.49000 -10.68000
v -0.58000 24.49000 -9.96000
v -0.88600 24.49000 -9.96000
v -0.88600 24.49000 -10.68000
v -0.57800 24.49000 -9.28000
v 0.57800 24.49000 -9.28000
v 0.88600 24.49000 -9.28000
v -0.88600 24.49000 -9.28000
v 0.57600 23.57000 -8.22000
v 0.88600 23.57000 -8.22000
v -0.57600 23.57000 -8.22000
v -0.88600 23.57000 -8.22000
v 1.38100 11.57000 -7.04000
v 1.38100 10.48000 -6.67000
v 1.38100 5.15000 -6.30000
v 1.34100 12.67000 -7.28000
v 1.27500 13.60000 -7.39000
v 0.91900 20.75000 -7.78000
v 0.88600 22.58000 -8.10000
v 0.88600 22.58000 -10.68000
v 0.57500 22.58000 -8.10000
v 0.57400 20.75000 -7.78000
v -0.57500 22.58000 -8.10000
v -0.88600 22.58000 -8.10000
v -0.57400 20.75000 -7.78000
v -0.91900 20.75000 -7.78000
v 0.57300 13.60000 -7.39000
v -0.57300 13.60000 -7.39000
v -1.27500 13.60000 -7.39000
v 0.57200 12.67000 -7.28000
v -0.57200 12.67000 -7.28000
v -1.34100 12.67000 -7.28000
v 0.57200 11.57000 -7.04000
v -0.57200 11.57000 -7.04000
v -1.38100 11.57000 -7.04000
v -1.38100 10.48000 -6.67000
v 0.57200 10.48000 -6.67000
v 0.96300 5.15000 -6.30000
v -0.57200 10.48000 -6.67000
v -0.96300 5.15000 -6.30000
v -1.38100 5.15000 -6.30000
v -0.58300 22.58000 -10.68000
v -0.88600 22.58000 -10.68000
v 0.58300 22.58000 -10.68000
v -3.87300 0.59000 -0.62000
v -2.54700 0.59000 -0.62000
v -2.54700 0.00000 -0.62000
v -3.87300 0.00000 -0.62000
v -2.54700 0.00000 2.19000
v -2.54700 0.00000 0.16000
v -3.87300 0.00000 2.19000
v -3.87300 0.00000 0.16000
v 3.87300 8.75000 -1.15000
v 2.54700 4.75000 -1.15000
v 2.54700 8.75000 -1.15000
v 3.87300 4.75000 -1.15000
v 3.87300 3.18000 -0.79000
v 2.54700 3.18000 -0.79000
v 3.87300 0.65000 0.16000
v 2.54700 2.56000 0.16000
v 3.87300 2.56000 0.16000
v 2.54700 0.65000 0.16000
v 3.87300 8.75000 0.97000
v 2.54700 8.75000 0.97000
v 3.87300 8.40000 1.84000
v 2.54700 8.40000 1.84000
v 3.87300 4.75000 1.84000
v 3.87300 3.50000 1.84000
v 3.87300 2.56000 2.19000
v 3.87300 0.65000 2.19000
v 2.54700 2.56000 2.19000
v 2.54700 0.65000 2.19000
v 2.54700 4.75000 1.84000
v 2.54700 3.50000 1.84000
v -2.54700 0.00000 -8.39000
v -3.87300 0.59000 -8.39000
v -2.54700 0.59000 -8.39000
v -3.87300 0.00000 -8.39000
v -3.87300 0.65000 -7.61000
v -2.54700 0.65000 -7.61000
v -3.87300 0.65000 -6.10000
v -2.54700 0.65000 -6.10000
v -2.54700 0.00000 -6.10000
v -2.54700 0.00000 -7.61000
v -3.87300 0.00000 -6.10000
v -3.87300 0.00000 -7.61000
v 2.54700 8.62000 -7.70000
v 3.87300 8.62000 -7.70000
v 3.87300 7.80000 -8.39000
v 2.54700 7.80000 -8.39000
v 3.87300 5.36000 -8.39000
v 2.54700 5.36000 -8.39000
v 3.87300 0.65000 -7.61000
v 2.54700 4.94000 -7.61000
v 3.87300 4.94000 -7.61000
v 2.54700 0.65000 -7.61000
v 3.87300 8.62000 -6.43000
v 2.54700 8.29000 -5.76000
v 3.87300 8.29000 -5.76000
v 2.54700 8.62000 -6.43000
v 2.54700 8.62000 -7.61000
v 3.87300 8.62000 -7.61000
v 3.87300 4.94000 -5.76000
v 3.87300 0.65000 -6.10000
v 3.87300 7.80000 -7.61000
v 3.87300 7.80000 -5.76000
v 2.54700 0.65000 -6.10000
v 2.54700 4.94000 -5.76000
v 2.54700 7.80000 -5.76000
v 2.54700 7.80000 -7.61000
v 2.54700 0.59000 -0.62000
v 3.87300 0.59000 -0.62000
v 3.87300 0.00000 -0.62000
v 2.54700 0.00000 -0.62000
v 3.87300 0.00000 2.19000
v 3.87300 0.00000 0.16000
v 2.54700 0.00000 2.19000
v 2.54700 0.00000 0.16000
v -3.87300 8.62000 -7.70000
v -2.54700 8.62000 -7.70000
v -2.54700 7.80000 -8.39000
v -3.87300 7.80000 -8.39000
v -2.54700 5.36000 -8.39000
v -3.87300 5.36000 -8.39000
v -3.87300 4.94000 -7.61000
v -2.54700 4.94000 -7.61000
v -2.54700 8.62000 -6.43000
v -3.87300 8.29000 -5.76000
v -2.54700 8.29000 -5.76000
v -3.87300 8.62000 -6.43000
v -3.87300 8.62000 -7.61000
v -2.54700 8.62000 -7.61000
v -2.54700 4.94000 -5.76000
v -2.54700 7.80000 -7.61000
v -2.54700 7.80000 -5.76000
v -3.87300 4.94000 -5.76000
v -3.87300 7.80000 -5.76000
v -3.87300 7.80000 -7.61000
v 0.60000 23.61000 -15.00000
v 0.32700 23.34000 -15.00000
v 0.32700 23.61000 -15.00000
v 0.60000 23.34000 -15.00000
v -0.37300 23.61000 -15.00000
v -0.64600 23.34000 -15.00000
v -0.64600 23.61000 -15.00000
v -0.37300 23.34000 -15.00000
v -0.02300 23.84000 -15.00000
v 0.91100 23.84000 -15.00000
v 0.91100 22.58000 -15.00000
v -0.02300 22.58000 -15.00000
v -0.95700 22.58000 -15.00000
v -0.95700 23.84000 -15.00000
v 0.84300 22.45000 -14.83000
v -0.02300 22.24000 -14.77000
v -0.02300 22.45000 -14.85000
v 0.84300 22.24000 -14.77000
v -0.88900 22.45000 -14.83000
v -0.88900 22.24000 -14.77000
v 0.84300 22.58000 -14.87000
v -0.02300 22.58000 -14.87000
v -0.88900 22.58000 -14.87000
v -0.02300 25.21000 -13.15000
v 1.07900 25.21000 -13.15000
v 1.07900 24.06000 -13.15000
v -0.02300 24.06000 -13.15000
v -1.12500 24.06000 -13.15000
v -1.12500 25.21000 -13.15000
v -0.02300 25.21000 -10.68000
v 1.07900 25.21000 -10.68000
v -1.12500 25.21000 -10.68000
v -0.02300 22.58000 -13.15000
v 1.07900 22.58000 -13.15000
v -1.12500 22.58000 -13.15000
v -0.02300 22.58000 -10.68000
v 1.07900 22.58000 -10.68000
v -1.12500 22.58000 -10.68000
v 1.07900 22.45000 -13.15000
v 1.06300 22.79000 -13.33000
v 1.07900 22.79000 -13.15000
v 1.06300 22.58000 -13.33000
v 1.07900 24.00000 -10.68000
v 1.07900 22.24000 -10.68000
v 1.07900 22.24000 -13.15000
v -0.02300 22.24000 -10.68000
v -1.12500 22.24000 -10.68000
v -0.02300 24.00000 -10.68000
v -1.12500 24.00000 -10.68000
v -0.02300 22.24000 -13.15000
v -1.12500 22.24000 -13.15000
v -1.10900 22.58000 -13.33000
v -1.12500 22.45000 -13.15000
v -1.10900 22.79000 -13.33000
v -1.12500 22.79000 -13.15000
v -1.12700 24.55000 -12.65000
v -1.12700 24.55000 -12.78000
v -1.12700 24.31000 -12.78000
v -1.12700 24.30000 -12.65000
v -1.12700 24.55000 -12.52000
v -1.12700 24.30000 -12.52000
v -1.12700 24.54000 -12.27000
v -1.12700 24.30000 -12.26000
v -1.12700 24.79000 -12.27000
v -1.12700 24.79000 -12.53000
v -1.12700 25.03000 -12.28000
v -1.12700 25.03000 -12.54000
v -1.12700 24.06000 -12.51000
v -1.12700 24.06000 -12.26000
v -1.12700 24.06000 -12.64000
v -1.12700 24.06000 -12.77000
v -1.12700 25.03000 -12.66000
v -1.12700 25.03000 -12.79000
v -1.12700 24.79000 -12.79000
v -1.12700 24.79000 -12.66000
v -1.12700 25.03000 -12.15000
v -1.12700 24.79000 -12.14000
v -1.12700 24.54000 -12.14000
v -1.12700 24.06000 -12.13000
v -1.12700 24.00000 -12.26000
v -1.12700 24.00000 -12.12000
v -1.12700 24.00000 -12.51000
v -1.12700 24.00000 -12.64000
v -1.12700 24.01000 -12.77000
v -1.12700 24.54000 -12.11000
v -1.12700 24.79000 -12.11000
v -1.12700 24.06000 -12.10000
v -1.12700 25.03000 -12.12000
v -1.12700 24.00000 -12.10000
v -1.12700 23.96000 -12.12000
v -1.12700 23.96000 -12.09000
v -1.12700 23.97000 -12.26000
v -1.12700 23.97000 -12.51000
v -1.12700 23.97000 -12.64000
v -1.12700 23.97000 -12.77000
v 1.08300 25.03000 -12.66000
v 1.08300 24.79000 -12.79000
v 1.08300 25.03000 -12.79000
v 1.08300 24.79000 -12.66000
v 1.08300 25.03000 -12.54000
v 1.08300 24.55000 -12.78000
v 1.08300 24.79000 -12.53000
v 1.08300 24.55000 -12.65000
v 1.08300 24.55000 -12.52000
v 1.08300 25.03000 -12.15000
v 1.08300 24.79000 -12.27000
v 1.08300 25.03000 -12.28000
v 1.08300 24.79000 -12.14000
v 1.08300 24.54000 -12.27000
v 1.08300 24.54000 -12.14000
v 1.08300 24.06000 -12.26000
v 1.08300 24.06000 -12.13000
v 1.08300 24.00000 -12.26000
v 1.08300 24.00000 -12.12000
v 1.08300 24.00000 -12.51000
v 1.08300 24.06000 -12.51000
v 1.08300 24.00000 -12.64000
v 1.08300 24.06000 -12.64000
v 1.08300 24.01000 -12.77000
v 1.08300 24.06000 -12.77000
v 1.08300 24.31000 -12.78000
v 1.08300 24.30000 -12.65000
v 1.08300 24.30000 -12.52000
v 1.08300 24.30000 -12.26000
v 1.08300 24.54000 -12.11000
v 1.08300 24.06000 -12.10000
v 1.08300 24.79000 -12.11000
v 1.08300 25.03000 -12.12000
v 1.08300 24.00000 -12.10000
v 1.08300 23.96000 -12.12000
v 1.08300 23.96000 -12.09000
v 1.08300 23.97000 -12.26000
v 1.08300 23.97000 -12.51000
v 1.08300 23.97000 -12.64000
v 1.08300 23.97000 -12.77000
v 3.87300 0.00000 -8.39000
v 2.54700 0.59000 -8.39000
v 3.87300 0.59000 -8.39000
v 2.54700 0.00000 -8.39000
v 3.87300 0.00000 -6.10000
v 3.87300 0.00000 -7.61000
v 2.54700 0.00000 -6.10000
v 2.54700 0.00000 -7.61000
vt -0.08285 -46.49410
vt 0.08285 -46.99360
vt 0.08285 -46.49410
vt -0.08285 -46.99360
vt -0.08285 -47.19040
vt 0.08285 -47.19040
vt -0.08285 -47.50590
vt 0.08285 -47.26760
vt -0.08285 -47.26760
vt 0.08285 -47.50590
vt -0.20854 -46.91710
vt -0.20854 -47.08290
vt 0.05658 -46.91710
vt 0.05658 -47.08290
vt 0.16558 -46.91710
vt 0.16558 -47.08290
vt -0.05658 -46.49410
vt 0.20854 -46.99360
vt 0.20854 -46.49410
vt -0.16558 -46.99360
vt -0.16558 -46.53770
vt 0.16309 -47.19040
vt -0.16558 -47.15080
vt 0.04463 -47.26760
vt -0.20854 -47.26760
vt -0.20854 -47.50590
vt 0.04463 -47.50590
vt -0.08285 -47.15080
vt 0.08285 -47.15080
vt -0.08285 -46.53770
vt 0.08285 -46.53770
vt 0.04463 -47.08290
vt 0.04463 -46.91710
vt 0.16309 -47.08290
vt 0.16309 -46.91710
vt 0.05658 -46.49410
vt 0.16558 -46.99360
vt 0.16558 -46.53770
vt -0.20854 -46.99360
vt -0.20854 -46.49410
vt -0.16309 -47.19040
vt 0.16558 -47.15080
vt -0.04463 -47.26760
vt 0.20854 -47.26760
vt -0.04463 -47.50590
vt 0.20854 -47.50590
vt 14.31840 -1.31425
vt 13.73410 -1.42950
vt 14.26590 -1.42950
vt 13.68160 -1.31425
vt 14.31840 -0.94149
vt 13.68160 -0.94149
vt 13.68160 -0.64681
vt 14.31840 -0.64681
vt 13.68160 -0.57050
vt 14.31840 -0.65234
vt 14.31840 -0.57050
vt 13.68160 -0.65234
vt 13.73570 -0.57050
vt 14.26430 -1.22678
vt 14.26430 -0.57050
vt 13.73570 -1.22678
vt 14.75670 -1.26426
vt 14.75670 -0.73574
vt 14.58810 -0.73574
vt 14.58810 -1.26426
vt 13.63190 -0.68161
vt 14.58810 -1.31839
vt 14.58810 -0.68161
vt 13.63190 -1.31839
vt 13.56040 -1.31839
vt 13.56040 -0.68161
vt 13.49040 -0.68161
vt 13.49040 -1.31839
vt 13.41290 -1.31425
vt 14.62080 -1.42950
vt 14.70920 -1.31425
vt 13.48870 -1.42950
vt 14.68740 -1.42950
vt 14.76380 -1.31425
vt 14.43960 -0.65234
vt 14.70970 -0.96129
vt 14.50960 -0.64681
vt 14.36810 -0.57050
vt 13.41190 -0.57050
vt 14.76240 -0.94149
vt 13.24330 -0.68045
vt 13.41290 -1.22678
vt 13.23630 -1.23082
vt 13.73570 -0.68045
vt 14.26430 -1.23082
vt 14.26430 -0.68045
vt 13.73570 -1.23094
vt 14.23950 -1.42950
vt 13.76050 -1.42950
vt 14.62080 -0.73548
vt 13.48870 -0.76047
vt 14.62080 -1.26452
vt 13.48870 -1.23953
vt 14.68740 -1.26594
vt 14.68740 -0.73406
vt 13.23630 -0.73574
vt 13.23620 -1.26426
vt 13.41290 -1.26426
vt 13.41290 -0.73574
vt 13.37920 -1.42950
vt 14.58710 -1.31425
vt 13.29080 -1.31425
vt 14.51130 -1.42950
vt 13.31260 -1.42950
vt 13.23620 -1.31425
vt 13.56040 -0.65234
vt 13.63190 -0.57050
vt 14.58810 -0.57050
vt 13.29030 -0.96129
vt 13.49040 -0.64681
vt 13.23760 -0.94149
vt 14.75670 -0.68045
vt 14.58710 -1.22678
vt 14.76380 -1.23094
vt 30.14450 -20.66860
vt 30.19640 -21.06650
vt 30.19660 -20.66860
vt 30.14450 -21.06650
vt 29.85550 -20.66860
vt 29.80360 -21.06650
vt 29.85550 -21.06650
vt 29.80340 -20.66860
vt 29.14290 -21.14450
vt 29.41400 -21.19660
vt 29.41400 -21.14440
vt 29.14290 -21.19660
vt 29.41400 -20.80340
vt 29.14290 -20.85550
vt 29.41400 -20.85560
vt 29.14290 -20.80340
vt 30.55550 -20.90480
vt 30.26460 -20.87260
vt 30.26460 -20.91550
vt 29.96010 -20.89730
vt 30.55550 -20.94280
vt 30.81840 -20.95550
vt 30.81840 -20.97240
vt 29.96010 -20.85730
vt 29.66920 -20.89600
vt 29.66920 -20.84480
vt 30.55550 -21.05720
vt 30.81840 -21.04450
vt 30.81840 -21.02760
vt 30.55550 -21.09520
vt 30.26460 -21.08450
vt 30.26460 -21.12740
vt 29.96010 -21.10270
vt 29.96010 -21.14270
vt 29.66920 -21.10400
vt 29.66920 -21.15520
vt 29.18160 -21.06640
vt 29.40330 -21.27030
vt 29.44450 -21.08700
vt 29.14290 -21.14060
vt 29.73540 -21.11670
vt 29.76420 -21.33140
vt 30.03990 -21.07710
vt 30.12920 -21.29830
vt 30.35760 -21.22920
vt 30.33080 -20.89540
vt 30.58600 -21.12140
vt 30.58600 -20.68080
vt 30.85710 -21.06650
vt 30.85710 -20.66860
vt 30.02760 -21.06640
vt 30.02760 -21.14060
vt 30.04450 -21.06640
vt 30.04520 -21.14060
vt 29.95550 -21.06640
vt 29.97240 -21.14060
vt 29.97240 -21.06640
vt 29.95480 -21.14060
vt 30.85710 -21.14450
vt 30.85710 -20.85550
vt 30.58600 -21.14440
vt 30.58600 -20.85560
vt 30.35760 -21.11620
vt 30.35760 -20.88380
vt 30.12920 -21.10270
vt 30.12920 -20.89730
vt 29.76420 -20.91550
vt 29.76420 -21.08450
vt 29.40330 -21.05720
vt 29.40330 -20.94280
vt 29.14290 -20.97240
vt 29.14290 -21.02760
vt 29.40330 -20.89380
vt 29.14290 -20.95480
vt 29.76420 -20.86890
vt 30.12920 -20.85320
vt 30.35760 -20.84280
vt 30.58600 -20.80360
vt 30.85710 -20.80360
vt 29.40330 -21.10620
vt 29.14290 -21.04520
vt 29.76420 -21.13110
vt 30.12920 -21.14680
vt 30.35760 -21.15720
vt 30.58600 -21.19640
vt 30.85710 -21.19640
vt 30.81840 -21.06640
vt 30.55550 -21.08700
vt 30.59670 -21.27030
vt 30.85710 -21.14060
vt 30.26460 -21.11670
vt 30.23580 -21.33140
vt 29.96010 -21.07710
vt 29.87080 -21.29830
vt 29.64240 -21.22920
vt 29.66920 -20.89540
vt 29.41400 -21.12140
vt 29.41400 -20.68080
vt 29.14290 -21.06650
vt 29.14290 -20.66860
vt 9.92681 0.20921
vt 10.07320 -0.02959
vt 10.07320 0.20921
vt 10.11080 0.20921
vt 10.11080 -0.02959
vt 9.92681 -0.02959
vt 9.88919 -0.02959
vt 9.88919 0.20921
vt 10.07250 -0.02959
vt 9.92778 -0.25842
vt 10.07220 -0.25842
vt 9.92748 -0.02959
vt 10.11140 -1.15265
vt 9.88856 -1.15265
vt 10.11780 -1.26924
vt 9.88221 -1.26924
vt 9.88015 -1.40551
vt 10.11980 -1.40551
vt 10.12090 -1.54177
vt 9.87914 -1.54177
vt 9.87959 -2.20921
vt 10.12040 -2.20921
vt 10.17270 -2.20921
vt 10.17270 -1.54177
vt 10.17270 -1.40551
vt 10.16760 -1.26924
vt 10.15940 -1.15265
vt 10.11490 -0.25842
vt 9.82732 -2.20921
vt 9.82732 -1.54177
vt 9.82732 -1.40551
vt 9.83239 -1.26924
vt 9.84063 -1.15265
vt 9.88509 -0.25842
vt 9.66434 -0.92681
vt 9.66434 -1.07319
vt 9.78796 -0.92707
vt 9.78796 -0.88919
vt 9.66434 -0.88919
vt 9.87805 -0.88919
vt 9.87805 -0.92748
vt 9.78796 -1.07293
vt 9.87805 -1.07252
vt 9.87805 -1.11081
vt 9.78796 -1.11081
vt 9.66434 -1.11081
vt 9.96241 -1.07222
vt 9.96241 -0.92778
vt 9.96241 -0.88919
vt 9.96241 -1.11081
vt 10.09510 -0.92801
vt 10.09510 -0.88919
vt 10.09510 -1.07199
vt 10.09510 -1.11081
vt 10.13050 -1.54177
vt 9.75704 -1.40551
vt 9.71147 -1.54177
vt 10.00970 -2.20921
vt 9.66434 -2.20921
vt 10.13050 -1.40551
vt 9.78743 -1.26924
vt 10.13050 -1.26924
vt 9.80078 -1.15265
vt 10.13050 -1.15265
vt 9.84948 -0.25842
vt 10.09450 -0.25842
vt 9.88948 -0.02959
vt 10.12200 -0.02959
vt 9.90492 0.09397
vt 10.03760 0.20921
vt 10.12200 0.20921
vt 10.21200 -0.02959
vt 10.21200 0.20921
vt 10.33570 -0.02959
vt 10.33570 0.20921
vt 9.92801 0.09397
vt 10.07180 -0.02959
vt 10.07200 0.09397
vt 10.11080 0.09397
vt 10.07170 -0.25842
vt 9.92818 -0.02959
vt 9.88919 0.09397
vt 9.92830 -0.25842
vt 10.07160 -1.15265
vt 9.92839 -1.15265
vt 10.07160 -1.26924
vt 9.92845 -1.26924
vt 10.07150 -1.40551
vt 9.92848 -1.40551
vt 10.07150 -1.54177
vt 9.92849 -1.54177
vt 9.66434 -0.87960
vt 10.00970 -0.87960
vt 10.00970 -0.82732
vt 9.66434 -0.82732
vt 9.66434 -1.17268
vt 10.00970 -1.17268
vt 10.00970 -1.12040
vt 9.66434 -1.12040
vt 10.33570 -1.07319
vt 10.33570 -0.92681
vt 10.21200 -1.07293
vt 10.21200 -1.11081
vt 10.33570 -1.11081
vt 10.12200 -1.11081
vt 10.12200 -1.07252
vt 10.21200 -0.92707
vt 10.12200 -0.92748
vt 10.12200 -0.88919
vt 10.21200 -0.88919
vt 10.33570 -0.88919
vt 10.28850 -1.54177
vt 9.99030 -2.20921
vt 10.33570 -2.20921
vt 9.86954 -1.54177
vt 10.24300 -1.40551
vt 9.86954 -1.40551
vt 10.21260 -1.26924
vt 9.86954 -1.26924
vt 10.19920 -1.15265
vt 10.15050 -0.25842
vt 9.86954 -1.15265
vt 9.90549 -0.25842
vt 10.11050 -0.02959
vt 9.87805 -0.02959
vt 10.09510 0.09397
vt 9.96241 0.20921
vt 9.87805 0.20921
vt 9.78796 0.20921
vt 9.78796 -0.02959
vt 9.66434 0.20921
vt 9.66434 -0.02959
vt 26.08290 -2.96689
vt 25.91710 -2.96689
vt 25.91710 -3.04089
vt 26.08290 -3.04089
vt 25.82490 -2.91715
vt 25.92190 -3.08285
vt 25.92190 -2.91715
vt 25.82490 -3.08285
vt 26.17510 -3.08285
vt 26.17510 -2.91715
vt 26.07810 -2.95911
vt 25.82490 -2.95911
vt 25.82490 -3.04089
vt 26.07810 -3.04089
vt 26.17510 -2.96689
vt 26.17510 -3.04089
vt 26.08290 -2.95911
vt 25.91710 -2.95911
vt 26.07810 -3.08285
vt 26.07810 -2.91715
vt 25.82490 -2.96689
vt 25.92190 -3.04089
vt 25.92190 -2.95911
vt 26.17510 -2.95911
vt 19.91710 -36.49410
vt 20.08290 -36.99360
vt 20.08290 -36.49410
vt 19.91710 -36.99360
vt 19.91710 -37.19040
vt 20.08290 -37.19040
vt 19.91710 -37.50590
vt 20.08290 -37.26760
vt 19.91710 -37.26760
vt 20.08290 -37.50590
vt 19.79150 -36.91710
vt 19.79150 -37.08290
vt 20.05660 -36.91710
vt 20.05660 -37.08290
vt 20.16560 -36.91710
vt 20.16560 -37.08290
vt 19.94340 -36.49410
vt 20.20850 -36.99360
vt 20.20850 -36.49410
vt 19.83440 -36.99360
vt 19.83440 -36.53770
vt 20.16310 -37.19040
vt 19.83440 -37.15080
vt 20.04460 -37.26760
vt 19.79150 -37.26760
vt 19.79150 -37.50590
vt 20.04460 -37.50590
vt 19.91710 -37.15080
vt 20.08290 -37.15080
vt 19.91710 -36.53770
vt 20.08290 -36.53770
vt 20.04460 -37.08290
vt 20.04460 -36.91710
vt 20.16310 -37.08290
vt 20.16310 -36.91710
vt 20.05660 -36.49410
vt 20.16560 -36.99360
vt 20.16560 -36.53770
vt 19.79150 -36.99360
vt 19.79150 -36.49410
vt 19.83690 -37.19040
vt 20.16560 -37.15080
vt 19.95540 -37.26760
vt 20.20850 -37.26760
vt 19.95540 -37.50590
vt 20.20850 -37.50590
vt 33.91710 -31.04090
vt 34.08290 -30.96690
vt 33.91710 -30.96690
vt 34.08290 -31.04090
vt 33.85700 -30.91710
vt 33.95400 -31.08290
vt 33.95400 -30.91710
vt 33.85700 -31.08290
vt 34.14300 -31.08290
vt 34.14300 -30.91710
vt 34.04600 -30.95910
vt 33.85700 -30.95910
vt 33.85700 -31.04090
vt 34.04600 -31.04090
vt 34.14300 -30.96690
vt 34.14300 -31.04090
vt 34.08290 -30.95910
vt 33.91710 -30.95910
vt 34.04600 -31.08290
vt 34.04600 -30.91710
vt 33.85700 -30.96690
vt 33.95400 -31.04090
vt 33.95400 -30.95910
vt 34.14300 -30.95910
vt 24.08290 -60.50230
vt 23.91710 -60.50230
vt 23.91710 -60.60450
vt 24.08290 -60.60450
vt 23.91710 -60.90990
vt 24.08290 -60.90990
vt 23.91710 -61.49770
vt 24.08290 -60.96240
vt 23.91710 -60.96240
vt 24.08290 -61.49770
vt 24.08130 -60.91710
vt 24.16440 -61.08290
vt 24.16440 -60.91710
vt 24.08130 -61.08290
vt 23.92210 -60.91710
vt 23.93280 -61.08290
vt 23.93280 -60.91710
vt 23.92210 -61.08290
vt 23.83560 -60.96240
vt 23.87820 -61.49770
vt 24.06720 -60.96240
vt 24.06720 -61.49770
vt 24.06720 -60.60450
vt 23.83560 -60.60450
vt 24.16440 -60.90990
vt 23.91870 -60.50230
vt 23.83560 -60.54290
vt 24.16440 -60.60450
vt 24.06720 -60.50230
vt 24.07790 -60.50230
vt 24.08290 -60.54290
vt 23.91710 -60.54290
vt 24.06720 -61.08290
vt 24.06720 -60.91710
vt 23.87820 -61.08290
vt 23.87820 -60.91710
vt 23.93280 -60.96240
vt 24.12180 -61.49770
vt 24.16440 -60.96240
vt 23.93280 -61.49770
vt 23.93280 -60.60450
vt 23.83560 -60.90990
vt 23.92210 -60.50230
vt 23.93280 -60.50230
vt 24.08130 -60.50230
vt 24.16440 -60.54290
vt 38.08290 -12.96690
vt 37.91710 -12.96690
vt 37.91710 -13.04090
vt 38.08290 -13.04090
vt 37.82490 -12.91710
vt 37.92190 -13.08290
vt 37.92190 -12.91710
vt 37.82490 -13.08290
vt 38.17510 -13.08290
vt 38.17510 -12.91710
vt 38.07810 -12.95910
vt 37.82490 -12.95910
vt 37.82490 -13.04090
vt 38.07810 -13.04090
vt 38.17510 -12.96690
vt 38.17510 -13.04090
vt 38.08290 -12.95910
vt 37.91710 -12.95910
vt 38.07810 -13.08290
vt 38.07810 -12.91710
vt 37.82490 -12.96690
vt 37.92190 -13.04090
vt 37.92190 -12.95910
vt 38.17510 -12.95910
vt 0.08285 -14.50230
vt -0.08285 -14.50230
vt -0.08285 -14.60450
vt 0.08285 -14.60450
vt -0.08285 -14.90990
vt 0.08285 -14.90990
vt -0.08285 -15.49770
vt 0.08285 -14.96240
vt -0.08285 -14.96240
vt 0.08285 -15.49770
vt 0.08126 -14.91710
vt 0.16437 -15.08290
vt 0.16437 -14.91710
vt 0.08126 -15.08290
vt -0.07789 -14.91710
vt -0.06725 -15.08290
vt -0.06725 -14.91710
vt -0.07789 -15.08290
vt -0.16437 -14.96240
vt -0.12183 -15.49770
vt 0.06725 -14.96240
vt 0.06725 -15.49770
vt 0.06725 -14.60450
vt -0.16437 -14.60450
vt 0.16437 -14.90990
vt -0.08126 -14.50230
vt -0.16437 -14.54290
vt 0.16437 -14.60450
vt 0.06725 -14.50230
vt 0.07789 -14.50230
vt 0.08285 -14.54290
vt -0.08285 -14.54290
vt 0.06725 -15.08290
vt 0.06725 -14.91710
vt -0.12183 -15.08290
vt -0.12183 -14.91710
vt -0.06725 -14.96240
vt 0.12183 -15.49770
vt 0.16437 -14.96240
vt -0.06725 -15.49770
vt -0.06725 -14.60450
vt -0.16437 -14.90990
vt -0.07789 -14.50230
vt -0.06725 -14.50230
vt 0.08126 -14.50230
vt 0.16437 -14.54290
vt 41.92220 -37.01400
vt 41.95630 -37.04810
vt 41.95630 -37.01400
vt 41.92220 -37.04810
vt 42.04380 -37.01400
vt 42.07790 -37.04810
vt 42.07790 -37.01400
vt 42.04380 -37.04810
vt 42.00000 -36.98500
vt 41.88320 -36.98500
vt 41.88320 -37.14280
vt 42.00000 -37.14280
vt 42.11680 -37.14280
vt 42.11680 -36.98500
vt 41.89180 -37.15910
vt 42.00000 -37.18560
vt 42.00000 -37.15910
vt 41.89180 -37.18560
vt 42.10820 -37.15910
vt 42.10820 -37.18560
vt 41.89180 -37.14280
vt 42.10820 -37.14280
vt 42.00000 -36.81440
vt 41.86220 -36.81440
vt 41.86220 -36.95780
vt 42.00000 -36.95780
vt 42.13780 -36.95780
vt 42.13780 -36.81440
vt 41.96110 -36.86220
vt 42.27000 -37.00000
vt 42.27000 -36.86220
vt 41.96110 -37.00000
vt 41.96110 -37.13780
vt 42.27000 -37.13780
vt 41.73020 -36.88320
vt 41.73020 -37.00000
vt 41.73020 -37.11680
vt 41.74600 -36.89180
vt 41.74600 -37.00000
vt 41.74600 -37.10820
vt 42.03890 -37.14280
vt 42.24920 -37.15910
vt 42.25400 -37.14280
vt 42.03890 -37.15910
vt 42.03890 -36.95780
vt 42.06130 -37.11730
vt 42.26980 -36.98500
vt 42.03890 -37.11710
vt 42.26980 -37.14280
vt 42.06130 -37.14280
vt 41.73000 -37.14280
vt 41.73000 -36.96590
vt 41.73000 -36.81440
vt 42.03890 -36.81440
vt 41.73000 -37.18560
vt 42.03890 -37.18560
vt 42.24160 -37.18560
vt 42.13780 -37.18560
vt 42.13780 -37.14280
vt 41.86220 -37.18560
vt 41.86220 -37.14280
vt 42.00000 -36.96590
vt 42.13780 -36.96590
vt 41.86220 -36.96590
vt 42.03890 -37.00000
vt 42.24160 -36.89180
vt 42.03890 -36.86220
vt 42.24160 -37.00000
vt 42.24160 -37.10820
vt 42.03890 -37.13780
vt 41.73000 -37.00000
vt 41.73000 -36.86220
vt 41.73000 -37.13780
vt 42.06130 -36.86430
vt 42.26980 -37.00000
vt 42.26980 -36.88320
vt 42.06130 -37.13570
vt 42.26980 -37.11680
vt 41.75080 -37.15910
vt 41.96110 -37.14280
vt 41.74600 -37.14280
vt 41.96110 -37.15910
vt 41.93870 -37.11730
vt 41.96110 -37.11710
vt 41.93870 -37.14280
vt 42.27000 -37.14280
vt 42.27000 -36.96590
vt 41.96110 -36.95780
vt 42.27000 -36.81440
vt 41.96110 -36.81440
vt 41.73020 -36.98500
vt 41.73020 -37.14280
vt 42.27000 -37.18560
vt 41.96110 -37.18560
vt 41.75840 -37.18560
vt 17.97370 -10.99390
vt 17.95770 -10.99380
vt 17.95830 -11.02400
vt 17.97440 -11.02410
vt 17.98980 -10.99400
vt 17.99040 -11.02420
vt 18.02190 -10.99410
vt 18.02250 -11.02430
vt 18.02120 -10.96390
vt 17.98910 -10.96380
vt 18.02060 -10.93370
vt 17.98850 -10.93360
vt 17.99110 -11.05430
vt 18.02320 -11.05450
vt 17.97500 -11.05430
vt 17.95900 -11.05420
vt 17.97250 -10.93350
vt 17.95640 -10.93340
vt 17.95700 -10.96360
vt 17.97310 -10.96370
vt 18.03710 -10.93380
vt 18.03780 -10.96400
vt 18.03840 -10.99420
vt 18.03970 -11.05460
vt 18.02330 -11.06180
vt 18.03990 -11.06190
vt 17.99120 -11.06170
vt 17.97520 -11.06160
vt 17.95910 -11.06150
vt 18.04200 -10.99420
vt 18.04140 -10.96400
vt 18.04330 -11.05460
vt 18.04070 -10.93380
vt 18.04350 -11.06190
vt 18.04000 -11.06660
vt 18.04360 -11.06660
vt 18.02340 -11.06650
vt 17.99130 -11.06630
vt 17.97530 -11.06630
vt 17.95920 -11.06620
vt 44.02750 -22.93350
vt 44.04300 -22.96360
vt 44.04360 -22.93340
vt 44.02690 -22.96370
vt 44.01150 -22.93360
vt 44.04230 -22.99380
vt 44.01090 -22.96380
vt 44.02630 -22.99390
vt 44.01020 -22.99400
vt 43.96290 -22.93380
vt 43.97880 -22.96390
vt 43.97940 -22.93370
vt 43.96220 -22.96400
vt 43.97810 -22.99410
vt 43.96160 -22.99420
vt 43.97680 -23.05450
vt 43.96030 -23.05460
vt 43.97670 -23.06180
vt 43.96010 -23.06190
vt 44.00880 -23.06170
vt 44.00890 -23.05430
vt 44.02480 -23.06160
vt 44.02500 -23.05430
vt 44.04090 -23.06150
vt 44.04100 -23.05420
vt 44.04170 -23.02400
vt 44.02560 -23.02410
vt 44.00960 -23.02420
vt 43.97750 -23.02430
vt 43.95800 -22.99420
vt 43.95670 -23.05460
vt 43.95860 -22.96400
vt 43.95930 -22.93380
vt 43.95650 -23.06190
vt 43.96000 -23.06660
vt 43.95640 -23.06660
vt 43.97660 -23.06650
vt 44.00870 -23.06630
vt 44.02470 -23.06630
vt 44.04080 -23.06620
vt 55.91710 -9.04089
vt 56.08290 -8.96689
vt 55.91710 -8.96689
vt 56.08290 -9.04089
vt 55.85700 -8.91715
vt 55.95400 -9.08285
vt 55.95400 -8.91715
vt 55.85700 -9.08285
vt 56.14300 -9.08285
vt 56.14300 -8.91715
vt 56.04600 -8.95911
vt 55.85700 -8.95911
vt 55.85700 -9.04089
vt 56.04600 -9.04089
vt 56.14300 -8.96689
vt 56.14300 -9.04089
vt 56.08290 -8.95911
vt 55.91710 -8.95911
vt 56.04600 -9.08285
vt 56.04600 -8.91715
vt 55.85700 -8.96689
vt 55.95400 -9.04089
vt 55.95400 -8.95911
vt 56.14300 -8.95911
vn 0.0000 0.0000 -1.0000
vn 0.0000 -0.2283 -0.9764
vn 0.0000 1.0000 0.0000
vn 0.0000 0.9291 0.3701
vn 1.0000 0.0000 0.0000
vn 0.0000 0.0000 1.0000
vn 0.0000 0.3465 0.9370
vn 0.0000 -1.0000 0.0000
vn 0.0000 -0.8346 -0.5433
vn -1.0000 0.0000 0.0000
vn 0.0000 -0.5512 -0.8346
vn 0.0000 0.6535 -0.7559
vn 0.0000 0.6614 -0.7559
vn 0.0000 0.8346 0.5433
vn 0.0000 1.0000 0.0787
vn 0.8661 -0.4961 0.0079
vn 0.8819 -0.4724 0.0079
vn 0.8976 -0.4409 0.0079
vn 0.9134 -0.4094 0.0079
vn 0.0000 0.0157 1.0000
vn 0.0000 -0.5512 0.8346
vn 0.0000 -1.0000 -0.0236
vn -0.8819 -0.4724 0.0079
vn -0.8661 -0.4961 0.0079
vn -0.8976 -0.4409 0.0079
vn -0.9134 -0.4094 0.0079
vn 0.0000 1.0000 0.0472
vn 0.0000 0.9921 -0.0945
vn 0.0000 1.0000 0.0157
vn 0.0000 1.0000 0.0079
vn 0.0000 0.9449 0.3307
vn 0.0000 0.9921 -0.0866
vn 0.0000 1.0000 -0.0787
vn 0.0000 0.9370 0.3465
vn 0.0000 0.8110 0.5827
vn 0.0000 0.8032 0.5906
vn 0.0000 0.7638 0.6457
vn 0.0000 0.8110 0.5906
vn 0.0000 0.9370 0.3386
vn 0.9764 0.1024 0.1811
vn 0.9921 0.0709 0.1260
vn 1.0000 0.0236 0.0630
vn 1.0000 0.0157 0.0630
vn 1.0000 0.0000 0.0472
vn 0.9921 0.0000 0.0945
vn 0.9921 0.0000 0.1260
vn 1.0000 0.0000 0.0551
vn 0.0000 0.4646 0.8898
vn 0.0000 -0.9764 -0.1968
vn 0.0000 -0.9528 -0.3071
vn 0.0000 -0.9291 -0.3622
vn 0.0000 -0.9843 -0.1968
vn 0.0000 -1.0000 0.0315
vn 0.0000 -0.9528 0.2992
vn 0.0000 -0.8976 0.4488
vn 0.0000 -1.0000 0.0472
vn 0.0000 -0.9449 0.3150
vn 0.0000 -0.9843 -0.1890
vn 0.0000 -0.9370 -0.3543
vn 0.0000 -0.9449 -0.3150
vn -0.9764 0.1024 0.1811
vn -0.9921 0.0709 0.1260
vn -1.0000 0.0236 0.0630
vn -1.0000 0.0157 0.0630
vn -1.0000 0.0000 0.0472
vn -0.9921 0.0000 0.0945
vn -0.9921 0.0000 0.1260
vn -1.0000 0.0000 0.0551
vn 0.0000 -0.1181 -0.9921
vn 0.0000 -0.0394 -1.0000
vn 0.0000 0.0157 -1.0000
vn 0.0000 -0.0866 -0.9921
vn 0.0000 -0.1811 -0.9843
vn 0.0000 0.0236 -1.0000
vn 0.0000 0.7559 0.6535
vn 1.0000 0.0157 0.0000
vn 1.0000 0.0551 0.0000
vn 1.0000 0.0630 0.0000
vn 1.0000 0.0315 0.0000
vn 1.0000 0.0079 0.0000
vn 0.0000 0.1260 0.9921
vn 0.0000 0.1496 0.9921
vn 0.0000 0.1102 0.9921
vn 0.0000 0.0866 1.0000
vn 0.0000 0.1654 0.9843
vn 0.0000 0.2677 0.9606
vn 0.0000 0.1968 0.9843
vn 0.0000 0.0709 1.0000
vn -1.0000 0.0157 0.0000
vn -1.0000 0.0551 0.0000
vn -1.0000 0.0630 0.0000
vn -1.0000 0.0315 0.0000
vn -1.0000 0.0079 0.0000
vn 0.0000 1.0000 -0.0394
vn 0.0000 0.6457 -0.7638
vn 0.0000 0.8976 0.4409
vn 0.0000 -0.0787 1.0000
vn 0.0000 -0.0394 1.0000
vn 0.0000 -0.8819 -0.4724
vn 0.0079 -0.2992 -0.9528
vn 0.0000 -0.2992 -0.9528
vn -0.0079 -0.2992 -0.9528
vn 0.0079 -0.2362 -0.9685
vn -0.0079 -0.2362 -0.9685
vn 0.0000 0.9921 -0.1181
vn 0.9921 -0.0236 -0.1339
vn 1.0000 0.0000 -0.0315
vn 0.9921 0.0000 -0.0866
vn 1.0000 -0.0079 -0.0472
vn 1.0000 -0.0079 -0.0709
vn 0.9921 -0.0236 -0.1417
vn -0.9921 -0.0236 -0.1339
vn -0.9921 0.0000 -0.0866
vn -1.0000 0.0000 -0.0315
vn -1.0000 -0.0079 -0.0472
vn -1.0000 -0.0079 -0.0709
vn -0.9921 -0.0236 -0.1417

o LeftLeg
usemtl c_696b79
f 1/1/1 2/2/1 3/3/1
f 2/2/1 1/1/1 4/4/1
f 4/4/2 5/5/2 2/2/2
f 2/2/2 5/5/2 6/6/2
f 7/7/1 8/8/1 9/9/1
f 8/8/1 7/7/1 10/10/1
f 1/11/3 3/12/3 11/13/3
f 11/13/3 3/12/3 12/14/3
f 13/15/4 11/13/4 14/16/4
f 11/13/4 12/14/4 14/16/4
f 11/17/5 4/18/5 1/19/5
f 11/17/5 15/20/5 4/18/5
f 15/20/5 11/17/5 13/21/5
f 15/20/5 5/22/5 4/18/5
f 5/22/5 15/20/5 16/23/5
f 16/23/5 9/24/5 5/22/5
f 9/24/5 16/23/5 17/25/5
f 18/26/5 9/24/5 17/25/5
f 9/24/5 18/26/5 7/27/5
f 19/9/6 20/7/6 17/8/6
f 17/8/6 20/7/6 18/10/6
f 21/4/6 22/28/6 15/2/6
f 15/2/6 22/28/6 16/29/6
f 15/2/6 14/30/6 21/4/6
f 14/30/6 15/2/6 13/31/6
f 19/9/7 16/29/7 22/28/7
f 16/29/7 19/9/7 17/8/7
f 10/32/8 7/33/8 20/12/8
f 20/12/8 7/33/8 18/11/8
f 6/34/9 9/33/9 8/32/9
f 9/33/9 6/34/9 5/35/9
f 12/36/10 21/37/10 14/38/10
f 12/36/10 2/39/10 21/37/10
f 2/39/10 12/36/10 3/40/10
f 6/41/10 21/37/10 2/39/10
f 21/37/10 6/41/10 22/42/10
f 8/43/10 22/42/10 6/41/10
f 22/42/10 8/43/10 19/44/10
f 10/45/10 19/44/10 8/43/10
f 19/44/10 10/45/10 20/46/10
o Torso
usemtl c_696b79
f 23/47/11 24/48/11 25/49/11
f 24/48/11 23/47/11 26/50/11
f 27/51/1 28/52/1 26/50/1
f 27/51/1 26/50/1 23/47/1
f 29/53/12 27/51/12 30/54/12
f 27/51/12 29/53/12 28/52/12
f 31/55/13 32/56/13 33/57/13
f 32/56/13 31/55/13 34/58/13
f 35/59/1 36/60/1 37/61/1
f 36/60/1 35/59/1 38/62/1
f 39/63/14 40/64/14 35/65/14
f 35/65/14 37/66/14 39/63/14
f 31/67/3 41/68/3 42/69/3
f 41/68/3 31/67/3 33/70/3
f 32/71/15 34/72/15 29/73/15
f 29/73/15 30/74/15 32/71/15
f 43/75/16 44/76/17 45/77/18
f 44/76/17 43/75/16 46/78/16
f 45/77/18 44/76/17 24/79/19
f 24/79/19 26/80/19 45/77/18
f 34/81/5 45/77/5 47/82/5
f 47/82/5 45/77/5 26/80/5
f 47/82/5 29/83/5 34/81/5
f 45/77/5 34/81/5 43/75/5
f 43/75/5 34/81/5 31/84/5
f 31/84/5 42/85/5 43/75/5
f 29/83/5 47/82/5 28/86/5
f 26/80/5 28/86/5 47/82/5
f 40/87/5 38/88/5 35/85/5
f 38/88/5 40/87/5 48/89/5
f 39/90/20 48/91/20 40/92/20
f 48/91/20 39/90/20 49/93/20
f 50/50/21 46/94/21 43/47/21
f 46/94/21 50/50/21 51/95/21
f 42/57/6 41/55/6 50/50/6
f 42/57/6 50/50/6 43/47/6
f 44/96/8 46/97/8 52/98/8
f 51/99/8 52/98/8 46/97/8
f 25/100/8 44/96/8 52/98/8
f 44/96/8 25/100/8 24/101/8
f 48/102/22 49/103/22 36/104/22
f 36/104/22 38/105/22 48/102/22
f 52/106/23 50/107/24 53/108/25
f 50/107/24 52/106/23 51/109/24
f 53/108/25 25/110/26 52/106/23
f 23/111/26 25/110/26 53/108/25
f 32/112/10 50/107/10 33/113/10
f 33/113/10 50/107/10 41/114/10
f 50/107/10 32/112/10 53/108/10
f 54/115/10 53/108/10 32/112/10
f 30/116/10 54/115/10 32/112/10
f 54/115/10 30/116/10 27/117/10
f 27/117/10 23/111/10 54/115/10
f 54/115/10 23/111/10 53/108/10
f 39/118/10 36/119/10 49/120/10
f 36/119/10 39/118/10 37/114/10
o Tail
usemtl c_696b79
f 55/121/1 56/122/1 57/123/1
f 56/122/1 55/121/1 58/124/1
f 59/125/1 60/126/1 61/127/1
f 60/126/1 59/125/1 62/128/1
f 55/121/1 59/125/1 58/124/1
f 59/125/1 61/127/1 58/124/1
f 55/129/27 63/130/27 64/131/27
f 63/130/27 55/129/27 57/132/27
f 65/133/27 59/134/27 66/135/27
f 59/134/27 65/133/27 62/136/27
f 59/134/27 55/129/27 66/135/27
f 66/135/27 55/129/27 64/131/27
f 67/137/28 68/138/29 69/139/30
f 68/138/29 70/140/31 69/139/30
f 67/137/28 69/139/30 71/141/32
f 72/142/33 67/137/28 71/141/32
f 71/141/32 73/143/33 72/142/33
f 68/138/29 74/144/34 70/140/31
f 74/144/34 75/145/35 70/140/31
f 74/144/34 76/146/36 75/145/35
f 76/146/36 66/135/37 75/145/35
f 76/146/36 65/133/37 66/135/37
f 77/147/32 78/148/33 79/149/33
f 78/148/33 77/147/32 80/150/28
f 81/151/30 80/150/28 77/147/32
f 80/150/28 81/151/30 82/152/29
f 83/153/31 82/152/29 81/151/30
f 82/152/29 83/153/31 84/154/34
f 85/155/35 84/154/34 83/153/31
f 84/154/34 85/155/35 86/156/36
f 64/131/37 86/156/36 85/155/35
f 86/156/36 64/131/37 63/130/37
f 75/145/38 83/153/39 70/140/39
f 83/153/39 75/145/38 85/155/38
f 66/135/37 85/155/38 75/145/38
f 85/155/38 66/135/37 64/131/37
f 81/151/29 70/140/39 83/153/39
f 70/140/39 81/151/29 69/139/29
f 71/141/32 69/139/29 81/151/29
f 71/141/32 81/151/29 77/147/32
f 73/143/33 71/141/32 77/147/32
f 73/143/33 77/147/32 79/149/33
f 72/157/40 87/158/41 67/159/41
f 87/158/41 72/157/40 88/160/40
f 87/158/41 68/161/42 67/159/41
f 68/161/42 87/158/41 89/162/43
f 74/163/44 68/161/42 89/162/43
f 89/162/43 90/164/44 74/163/44
f 91/165/45 74/163/44 90/164/44
f 74/163/44 91/165/45 76/166/46
f 92/167/45 76/166/46 91/165/45
f 76/166/46 92/167/45 65/168/47
f 65/168/47 92/167/45 60/169/5
f 62/170/5 65/168/47 60/169/5
f 73/171/48 93/172/48 72/173/48
f 72/173/48 93/172/48 88/174/48
f 78/175/48 94/176/48 79/177/48
f 94/176/48 78/175/48 95/178/48
f 79/177/48 93/172/48 73/171/48
f 93/172/48 79/177/48 94/176/48
f 58/179/49 61/180/49 96/181/50
f 96/181/50 61/180/49 97/182/50
f 96/181/50 97/182/50 98/183/51
f 98/183/51 97/182/50 99/184/51
f 98/183/51 99/184/51 100/185/52
f 100/185/52 99/184/51 101/186/52
f 102/187/53 100/185/52 101/186/52
f 100/185/52 102/187/53 103/188/53
f 104/189/54 103/188/53 102/187/53
f 104/189/54 102/187/53 105/190/54
f 93/191/55 104/189/54 105/190/54
f 104/189/54 93/191/55 94/192/55
f 102/187/56 87/193/54 105/190/57
f 87/193/54 88/194/55 105/190/57
f 105/190/57 88/194/55 93/191/55
f 87/193/54 102/187/56 89/195/53
f 101/186/58 89/195/53 102/187/56
f 89/195/53 101/186/58 90/196/52
f 99/184/59 90/196/52 101/186/58
f 90/196/52 99/184/59 91/197/51
f 97/182/60 91/197/51 99/184/59
f 91/197/51 97/182/60 92/198/50
f 61/180/49 92/198/50 97/182/60
f 92/198/50 61/180/49 60/199/49
f 106/200/54 103/188/56 104/189/57
f 104/189/57 95/201/55 106/200/54
f 95/201/55 104/189/57 94/192/55
f 103/188/56 106/200/54 107/202/53
f 107/202/53 100/185/58 103/188/56
f 100/185/58 107/202/53 108/203/52
f 108/203/52 98/183/59 100/185/58
f 98/183/59 108/203/52 109/204/51
f 109/204/51 96/181/60 98/183/59
f 96/181/60 109/204/51 110/205/50
f 110/205/50 58/179/49 96/181/60
f 58/179/49 110/205/50 56/206/49
f 78/207/61 80/208/62 106/209/62
f 106/209/62 95/210/61 78/207/61
f 82/211/63 106/209/62 80/208/62
f 106/209/62 82/211/63 107/212/64
f 84/213/65 107/212/64 82/211/63
f 107/212/64 84/213/65 108/214/65
f 84/213/65 109/215/66 108/214/65
f 84/213/65 86/216/67 109/215/66
f 86/216/67 110/217/66 109/215/66
f 86/216/67 63/218/68 110/217/66
f 63/218/68 56/219/10 110/217/66
f 56/219/10 63/218/68 57/220/10
o Neck
usemtl c_696b79
f 111/221/1 112/222/1 113/223/1
f 113/223/1 112/222/1 114/224/1
f 114/224/1 112/222/1 115/225/1
f 112/222/1 111/221/1 116/226/1
f 111/221/1 117/227/1 116/226/1
f 118/228/1 117/227/1 111/221/1
f 119/229/69 120/230/70 121/231/70
f 120/230/70 119/229/69 122/232/69
f 120/230/70 123/233/71 121/231/70
f 123/233/71 120/230/70 124/234/71
f 124/234/71 125/235/1 123/233/71
f 125/235/1 124/234/71 126/236/1
f 127/237/1 125/235/1 126/236/1
f 125/235/1 127/237/1 128/238/1
f 127/237/1 129/239/72 128/238/1
f 129/239/72 127/237/1 130/240/72
f 131/241/73 129/239/72 130/240/72
f 129/239/72 131/241/73 132/242/73
f 129/239/72 133/243/73 134/244/72
f 133/243/73 129/239/72 132/242/73
f 135/245/1 129/239/72 134/244/72
f 128/238/1 129/239/72 135/245/1
f 136/246/1 128/238/1 135/245/1
f 125/235/1 128/238/1 136/246/1
f 137/247/71 125/235/1 136/246/1
f 123/233/74 125/235/1 137/247/71
f 123/233/74 137/247/71 138/248/70
f 121/231/70 123/233/74 138/248/70
f 139/225/69 121/231/70 138/248/70
f 119/229/69 121/231/70 139/225/69
f 130/240/72 140/249/73 131/241/73
f 140/249/73 130/240/72 141/250/72
f 130/240/72 142/251/1 141/250/72
f 142/251/1 130/240/72 127/237/1
f 127/237/1 143/252/1 142/251/1
f 143/252/1 127/237/1 126/236/1
f 126/236/1 144/253/71 143/252/1
f 144/253/71 126/236/1 124/234/74
f 124/234/74 145/254/70 144/253/71
f 145/254/70 124/234/74 120/230/70
f 120/230/70 146/227/69 145/254/70
f 146/227/69 120/230/70 122/232/69
f 111/255/3 113/256/3 147/257/3
f 111/255/3 148/258/3 118/259/3
f 148/258/3 111/255/3 147/257/3
f 147/257/3 149/260/3 148/258/3
f 149/260/3 147/257/3 150/261/3
f 147/257/3 151/262/3 150/261/3
f 147/257/3 113/256/3 151/262/3
f 150/261/3 151/262/3 152/263/3
f 151/262/3 153/264/3 152/263/3
f 153/264/3 151/262/3 154/265/3
f 113/256/3 154/265/3 151/262/3
f 154/265/3 113/256/3 114/266/3
f 150/261/3 155/267/3 156/268/3
f 157/269/3 150/261/3 156/268/3
f 157/269/3 149/260/3 150/261/3
f 155/267/3 150/261/3 152/263/3
f 152/263/3 158/270/3 155/267/3
f 158/270/3 152/263/3 153/264/3
f 159/271/75 156/268/75 155/267/75
f 160/272/75 156/268/75 159/271/75
f 156/268/75 160/272/75 157/269/75
f 159/271/75 155/267/75 161/273/75
f 161/273/75 155/267/75 162/274/75
f 158/270/75 162/274/75 155/267/75
f 141/275/5 163/276/76 164/277/5
f 164/277/5 140/278/5 141/275/5
f 140/278/5 164/277/5 165/279/5
f 163/276/76 141/275/5 142/280/76
f 142/280/76 166/281/77 163/276/76
f 166/281/77 142/280/76 143/282/77
f 143/282/77 167/283/78 166/281/77
f 167/283/78 143/282/77 144/284/78
f 144/284/78 168/285/79 167/283/78
f 168/285/79 144/284/78 145/286/79
f 145/286/79 169/287/80 168/285/79
f 169/287/80 145/286/79 146/288/80
f 146/288/80 160/289/5 169/287/80
f 160/289/5 146/288/80 157/290/5
f 157/290/5 146/288/80 149/291/5
f 149/291/5 146/288/80 170/292/5
f 170/292/5 148/293/5 149/291/5
f 148/293/5 170/292/5 117/294/5
f 117/294/5 118/295/5 148/293/5
f 161/296/81 171/297/82 159/298/81
f 169/225/82 159/298/81 171/297/82
f 159/298/81 169/225/82 160/299/81
f 171/297/82 172/300/83 169/225/82
f 169/225/82 172/300/83 168/248/83
f 171/297/82 161/296/81 173/301/82
f 173/301/82 172/300/83 171/297/82
f 161/296/81 174/227/82 173/301/82
f 162/302/81 174/227/82 161/296/81
f 174/227/82 175/303/83 173/301/82
f 172/300/83 173/301/82 175/303/83
f 175/303/83 174/227/82 176/254/83
f 172/300/83 177/304/84 168/248/83
f 175/303/83 177/304/84 172/300/83
f 177/304/84 167/247/84 168/248/83
f 176/254/83 178/305/84 175/303/83
f 177/304/84 175/303/83 178/305/84
f 178/305/84 176/254/83 179/253/84
f 167/247/84 177/304/84 180/306/85
f 178/305/84 180/306/85 177/304/84
f 167/247/84 180/306/85 166/246/85
f 179/253/84 181/307/85 178/305/84
f 180/306/85 178/305/84 181/307/85
f 181/307/85 179/253/84 182/252/85
f 166/246/85 180/306/85 183/308/86
f 181/307/85 183/308/86 180/306/85
f 166/246/85 183/308/86 163/245/86
f 182/252/85 184/309/86 181/307/85
f 183/308/86 181/307/85 184/309/86
f 184/309/86 182/252/85 185/251/86
f 183/308/86 164/244/87 163/245/86
f 184/309/86 185/251/86 186/250/87
f 164/244/87 183/308/86 187/310/87
f 184/309/86 187/310/87 183/308/86
f 188/242/88 164/244/87 187/310/87
f 164/244/87 188/242/88 165/243/88
f 187/310/87 184/309/86 189/311/87
f 188/242/88 187/310/87 189/311/87
f 184/309/86 186/250/87 189/311/87
f 189/311/87 190/241/88 188/242/88
f 186/250/87 190/241/88 189/311/87
f 190/241/88 186/250/87 191/249/88
f 188/312/8 131/313/8 140/314/8
f 188/312/8 140/314/8 165/315/8
f 191/316/8 133/317/8 132/318/8
f 191/316/8 132/318/8 190/319/8
f 132/318/8 131/313/8 190/319/8
f 190/319/8 131/313/8 188/312/8
f 112/320/8 116/321/8 192/322/8
f 112/320/8 193/323/8 115/324/8
f 193/323/8 112/320/8 192/322/8
f 192/322/8 139/325/8 193/323/8
f 139/325/8 192/322/8 119/326/8
f 192/322/8 194/327/8 119/326/8
f 192/322/8 116/321/8 194/327/8
f 119/326/8 194/327/8 122/328/8
f 194/327/8 146/329/8 122/328/8
f 146/329/8 194/327/8 170/330/8
f 116/321/8 170/330/8 194/327/8
f 170/330/8 116/321/8 117/331/8
f 186/332/10 133/333/10 191/334/10
f 133/333/10 186/332/10 134/335/10
f 134/335/10 186/332/10 185/336/89
f 185/336/89 135/337/89 134/335/10
f 135/337/89 185/336/89 182/338/90
f 182/338/90 136/339/90 135/337/89
f 179/340/91 136/339/90 182/338/90
f 176/341/92 137/342/91 179/340/91
f 138/343/92 137/342/91 176/341/92
f 138/343/92 176/341/92 174/344/93
f 174/344/93 139/345/93 138/343/92
f 162/346/10 139/345/93 174/344/93
f 139/345/93 162/346/10 158/347/10
f 153/348/10 139/345/93 158/347/10
f 154/349/10 139/345/93 153/348/10
f 139/345/93 154/349/10 193/350/10
f 114/351/10 193/350/10 154/349/10
f 193/350/10 114/351/10 115/352/10
f 179/340/91 137/342/91 136/339/90
o LeftFoot
usemtl c_5c5e6a
f 195/353/1 196/354/1 197/355/1
f 195/353/1 197/355/1 198/356/1
f 196/357/33 10/358/94 7/359/94
f 10/358/94 196/357/33 195/360/33
f 7/359/94 20/361/3 18/362/3
f 20/361/3 7/359/94 10/358/94
f 7/363/5 18/364/5 199/365/5
f 7/363/5 199/365/5 200/366/5
f 200/366/5 196/367/5 7/363/5
f 196/367/5 200/366/5 197/368/5
f 18/369/6 20/370/6 201/355/6
f 18/369/6 201/355/6 199/356/6
f 201/360/8 202/371/8 200/372/8
f 201/360/8 200/372/8 199/357/8
f 198/361/8 200/372/8 202/371/8
f 200/372/8 198/361/8 197/362/8
f 195/373/10 202/374/10 10/375/10
f 202/374/10 195/373/10 198/365/10
f 202/374/10 20/376/10 10/375/10
f 20/376/10 202/374/10 201/368/10
o RightLeg
usemtl c_696b79
f 203/377/1 204/378/1 205/379/1
f 204/378/1 203/377/1 206/380/1
f 206/380/2 207/381/2 204/378/2
f 204/378/2 207/381/2 208/382/2
f 209/383/1 210/384/1 211/385/1
f 210/384/1 209/383/1 212/386/1
f 203/387/3 205/388/3 213/389/3
f 213/389/3 205/388/3 214/390/3
f 215/391/4 213/389/4 216/392/4
f 213/389/4 214/390/4 216/392/4
f 213/393/5 206/394/5 203/395/5
f 213/393/5 217/396/5 206/394/5
f 217/396/5 213/393/5 215/397/5
f 217/396/5 207/398/5 206/394/5
f 207/398/5 217/396/5 218/399/5
f 218/399/5 211/400/5 207/398/5
f 211/400/5 218/399/5 219/401/5
f 220/402/5 211/400/5 219/401/5
f 211/400/5 220/402/5 209/403/5
f 221/385/6 222/383/6 219/384/6
f 219/384/6 222/383/6 220/386/6
f 223/380/6 224/404/6 217/378/6
f 217/378/6 224/404/6 218/405/6
f 217/378/6 216/406/6 223/380/6
f 216/406/6 217/378/6 215/407/6
f 221/385/7 218/405/7 224/404/7
f 218/405/7 221/385/7 219/384/7
f 212/408/8 209/409/8 222/388/8
f 222/388/8 209/409/8 220/387/8
f 208/410/9 211/409/9 210/408/9
f 211/409/9 208/410/9 207/411/9
f 214/412/10 223/413/10 216/414/10
f 214/412/10 204/415/10 223/413/10
f 204/415/10 214/412/10 205/416/10
f 208/417/10 223/413/10 204/415/10
f 223/413/10 208/417/10 224/418/10
f 210/419/10 224/418/10 208/417/10
f 224/418/10 210/419/10 221/420/10
f 212/421/10 221/420/10 210/419/10
f 221/420/10 212/421/10 222/422/10
o LeftHand
usemtl c_5c5e6a
f 225/423/1 226/424/1 227/425/1
f 226/424/1 225/423/1 228/426/1
f 227/427/33 229/428/94 230/429/94
f 229/428/94 227/427/33 226/430/33
f 230/429/94 231/431/3 232/432/3
f 231/431/3 230/429/94 229/428/94
f 230/433/5 232/434/5 233/435/5
f 230/433/5 233/435/5 234/436/5
f 234/436/5 227/437/5 230/433/5
f 227/437/5 234/436/5 225/438/5
f 232/439/6 231/440/6 235/423/6
f 232/439/6 235/423/6 233/426/6
f 235/430/8 236/441/8 234/442/8
f 235/430/8 234/442/8 233/427/8
f 228/431/8 234/442/8 236/441/8
f 234/442/8 228/431/8 225/432/8
f 226/443/10 236/444/10 229/445/10
f 236/444/10 226/443/10 228/435/10
f 231/446/10 229/445/10 236/444/10
f 231/446/10 236/444/10 235/438/10
o RightArm
usemtl c_696b79
f 237/447/95 238/448/95 239/449/95
f 237/447/95 239/449/95 240/450/95
f 239/449/1 241/451/1 240/450/1
f 240/450/1 241/451/1 242/452/1
f 243/453/1 244/454/1 245/455/1
f 244/454/1 243/453/1 246/456/1
f 247/457/96 248/458/96 249/459/96
f 248/458/96 247/457/96 250/460/96
f 238/461/3 251/462/3 252/463/3
f 251/462/3 238/461/3 237/464/3
f 252/463/3 250/460/3 247/457/3
f 250/460/3 252/463/3 251/462/3
f 253/465/5 254/466/5 245/467/5
f 245/467/5 254/466/5 243/468/5
f 255/469/5 253/465/5 245/467/5
f 256/470/5 253/465/5 255/469/5
f 255/469/5 245/467/5 241/471/5
f 247/472/5 249/473/5 256/470/5
f 241/471/5 239/474/5 255/469/5
f 247/472/5 255/469/5 252/475/5
f 239/474/5 238/476/5 255/469/5
f 252/475/5 255/469/5 238/476/5
f 255/469/5 247/472/5 256/470/5
f 257/453/97 253/454/98 258/455/98
f 253/454/98 257/453/97 254/456/97
f 256/450/6 258/455/98 253/454/98
f 259/449/6 258/455/98 256/450/6
f 249/477/6 259/449/6 256/450/6
f 249/477/6 248/478/6 259/449/6
f 246/479/8 243/480/8 257/481/8
f 257/481/8 243/480/8 254/482/8
f 242/458/99 245/480/99 244/479/99
f 245/480/99 242/458/99 241/459/99
f 244/483/10 257/484/10 258/485/10
f 257/484/10 244/483/10 246/486/10
f 259/474/10 244/483/10 258/485/10
f 260/487/10 244/483/10 259/474/10
f 260/487/10 242/488/10 244/483/10
f 242/488/10 260/487/10 240/470/10
f 260/487/10 237/489/10 240/470/10
f 237/489/10 260/487/10 251/490/10
f 250/491/10 251/490/10 260/487/10
f 259/474/10 250/491/10 260/487/10
f 250/491/10 259/474/10 248/492/10
o RightFoot
usemtl c_5c5e6a
f 261/493/1 262/494/1 263/495/1
f 261/493/1 263/495/1 264/496/1
f 262/497/33 212/498/94 209/499/94
f 212/498/94 262/497/33 261/500/33
f 209/499/94 222/501/3 220/502/3
f 222/501/3 209/499/94 212/498/94
f 209/503/5 220/504/5 265/505/5
f 209/503/5 265/505/5 266/506/5
f 266/506/5 262/507/5 209/503/5
f 262/507/5 266/506/5 263/508/5
f 220/509/6 222/510/6 267/495/6
f 220/509/6 267/495/6 265/496/6
f 267/500/8 268/511/8 266/512/8
f 267/500/8 266/512/8 265/497/8
f 264/501/8 266/512/8 268/511/8
f 266/512/8 264/501/8 263/502/8
f 261/513/10 268/514/10 212/515/10
f 268/514/10 261/513/10 264/505/10
f 268/514/10 222/516/10 212/515/10
f 222/516/10 268/514/10 267/508/10
o LeftArm
usemtl c_696b79
f 269/517/95 270/518/95 271/519/95
f 269/517/95 271/519/95 272/520/95
f 271/519/1 273/521/1 272/520/1
f 272/520/1 273/521/1 274/522/1
f 230/523/1 275/524/1 276/525/1
f 275/524/1 230/523/1 229/526/1
f 277/527/96 278/528/96 279/529/96
f 278/528/96 277/527/96 280/530/96
f 270/531/3 281/532/3 282/533/3
f 281/532/3 270/531/3 269/534/3
f 282/533/3 280/530/3 277/527/3
f 280/530/3 282/533/3 281/532/3
f 283/535/5 232/536/5 276/537/5
f 276/537/5 232/536/5 230/538/5
f 284/539/5 283/535/5 276/537/5
f 285/540/5 283/535/5 284/539/5
f 284/539/5 276/537/5 273/541/5
f 277/542/5 279/543/5 285/540/5
f 273/541/5 271/544/5 284/539/5
f 277/542/5 284/539/5 282/545/5
f 271/544/5 270/546/5 284/539/5
f 282/545/5 284/539/5 270/546/5
f 284/539/5 277/542/5 285/540/5
f 231/523/97 283/524/98 286/525/98
f 283/524/98 231/523/97 232/526/97
f 285/520/6 286/525/98 283/524/98
f 287/519/6 286/525/98 285/520/6
f 279/547/6 287/519/6 285/520/6
f 279/547/6 278/548/6 287/519/6
f 229/549/8 230/550/8 231/551/8
f 231/551/8 230/550/8 232/552/8
f 274/528/99 276/550/99 275/549/99
f 276/550/99 274/528/99 273/529/99
f 275/553/10 231/554/10 286/555/10
f 231/554/10 275/553/10 229/556/10
f 287/544/10 275/553/10 286/555/10
f 288/557/10 275/553/10 287/544/10
f 288/557/10 274/558/10 275/553/10
f 274/558/10 288/557/10 272/540/10
f 288/557/10 269/559/10 272/540/10
f 269/559/10 288/557/10 281/560/10
f 280/561/10 281/560/10 288/557/10
f 287/544/10 280/561/10 288/557/10
f 280/561/10 287/544/10 278/562/10
o Head
usemtl c_696b79
f 289/563/1 290/564/1 291/565/1
f 290/564/1 289/563/1 292/566/1
f 293/567/1 294/568/1 295/569/1
f 294/568/1 293/567/1 296/570/1
f 297/571/1 298/572/1 299/573/1
f 297/571/1 299/573/1 300/574/1
f 301/575/1 297/571/1 300/574/1
f 297/571/1 301/575/1 302/576/1
f 303/577/100 304/578/101 305/579/101
f 304/578/101 303/577/100 306/580/100
f 304/578/101 307/581/102 305/579/101
f 307/581/102 304/578/101 308/582/102
f 309/583/103 305/579/103 310/574/103
f 305/579/103 309/583/103 303/577/103
f 305/579/104 311/584/104 310/574/104
f 311/584/104 305/579/104 307/581/104
f 312/585/1 313/586/1 314/587/1
f 312/585/1 314/587/1 315/588/1
f 316/589/1 312/585/1 315/588/1
f 312/585/1 316/589/1 317/590/1
f 313/591/3 318/592/3 319/593/3
f 318/592/3 313/591/3 312/594/3
f 318/592/3 312/594/3 317/595/3
f 318/592/3 317/595/3 320/596/3
f 298/597/105 315/594/105 314/591/105
f 315/594/105 298/597/105 297/598/105
f 302/599/105 315/594/105 297/598/105
f 315/594/105 302/599/105 316/595/105
f 309/600/3 321/594/3 322/591/3
f 321/594/3 309/600/3 310/601/3
f 311/602/3 321/594/3 310/601/3
f 321/594/3 311/602/3 323/595/3
f 324/592/3 322/591/3 321/594/3
f 323/595/3 324/592/3 321/594/3
f 322/591/3 324/592/3 325/593/3
f 324/592/3 323/595/3 326/596/3
f 322/603/106 303/604/106 309/605/106
f 303/604/106 322/603/106 327/606/106
f 314/607/107 328/608/108 298/609/108
f 328/608/108 314/607/107 329/610/107
f 299/611/108 328/608/108 330/612/108
f 328/608/108 299/611/108 298/609/108
f 328/608/108 322/603/108 330/612/108
f 322/603/108 328/608/108 329/610/108
f 329/610/107 325/613/5 322/603/5
f 325/613/5 329/610/107 331/614/5
f 314/607/107 331/614/5 329/610/107
f 331/614/5 314/607/107 319/615/5
f 313/616/5 319/615/5 314/607/107
f 325/613/5 327/606/109 322/603/5
f 327/606/109 325/613/5 332/617/5
f 327/606/109 332/617/5 333/618/110
f 306/619/111 327/606/109 333/618/110
f 327/606/109 306/619/111 303/604/111
f 324/574/6 332/620/6 325/621/6
f 332/620/6 324/574/6 334/578/6
f 324/574/6 335/622/6 334/578/6
f 335/622/6 324/574/6 326/623/6
f 336/624/6 325/621/6 331/625/6
f 325/621/6 336/624/6 324/574/6
f 336/624/6 326/623/6 324/574/6
f 336/624/6 337/626/6 326/623/6
f 331/625/6 318/585/6 336/624/6
f 318/585/6 337/626/6 336/624/6
f 318/585/6 331/625/6 319/590/6
f 318/585/6 320/586/6 337/626/6
f 338/627/8 306/628/8 333/629/8
f 306/628/8 338/627/8 304/630/8
f 338/627/8 308/631/8 304/630/8
f 308/631/8 338/627/8 339/632/8
f 333/629/8 334/633/8 338/627/8
f 334/633/8 339/632/8 338/627/8
f 334/633/8 333/629/8 332/634/8
f 339/632/8 334/633/8 335/635/8
f 321/627/8 330/636/8 322/629/8
f 300/637/8 330/636/8 321/627/8
f 330/636/8 300/637/8 299/638/8
f 300/637/8 340/639/8 301/640/8
f 321/627/8 340/639/8 300/637/8
f 340/639/8 321/627/8 323/632/8
f 307/641/112 323/642/112 311/643/112
f 323/642/112 307/641/112 341/644/112
f 342/645/113 323/642/113 343/646/113
f 323/642/113 342/645/113 340/647/113
f 343/646/114 326/648/10 337/649/10
f 326/648/10 343/646/114 323/642/10
f 337/649/10 316/650/114 343/646/114
f 320/651/10 316/650/114 337/649/10
f 320/651/10 317/652/10 316/650/114
f 316/650/114 342/645/113 343/646/114
f 342/645/113 316/650/114 302/653/113
f 301/654/113 342/645/113 302/653/113
f 342/645/113 301/654/113 340/647/113
f 341/644/115 326/648/10 323/642/10
f 326/648/10 341/644/115 335/655/10
f 339/656/116 335/655/10 341/644/115
f 341/644/115 308/657/117 339/656/116
f 308/657/117 341/644/115 307/641/117
f 344/658/10 345/659/10 346/660/10
f 346/660/10 347/661/10 344/658/10
f 348/662/10 344/658/10 347/661/10
f 347/661/10 349/663/10 348/662/10
f 350/664/10 348/662/10 349/663/10
f 349/663/10 351/665/10 350/664/10
f 348/662/10 350/664/10 352/666/10
f 352/666/10 353/667/10 348/662/10
f 353/667/10 352/666/10 354/668/10
f 354/668/10 355/669/10 353/667/10
f 351/665/10 349/663/10 356/670/10
f 356/670/10 357/671/10 351/665/10
f 358/672/10 356/670/10 349/663/10
f 349/663/10 347/661/10 358/672/10
f 359/673/10 358/672/10 347/661/10
f 347/661/10 346/660/10 359/673/10
f 360/674/10 361/675/10 362/676/10
f 362/676/10 363/677/10 360/674/10
f 355/669/10 360/674/10 363/677/10
f 363/677/10 362/676/10 345/659/10
f 363/677/10 353/667/10 355/669/10
f 345/659/10 344/658/10 363/677/10
f 353/667/10 363/677/10 344/658/10
f 344/658/10 348/662/10 353/667/10
f 364/678/10 354/668/10 352/666/10
f 352/666/10 365/679/10 364/678/10
f 365/679/10 352/666/10 350/664/10
f 350/664/10 366/680/10 365/679/10
f 366/680/10 350/664/10 357/671/10
f 357/671/10 367/681/10 366/680/10
f 367/681/10 357/671/10 368/682/10
f 368/682/10 369/683/10 367/681/10
f 370/684/10 368/682/10 357/671/10
f 357/671/10 356/670/10 370/684/10
f 371/685/10 370/684/10 356/670/10
f 356/670/10 358/672/10 371/685/10
f 372/686/10 371/685/10 358/672/10
f 358/672/10 359/673/10 372/686/10
f 373/687/10 366/680/10 367/681/10
f 366/680/10 373/687/10 374/688/10
f 367/681/10 375/689/10 373/687/10
f 374/688/10 365/679/10 366/680/10
f 365/679/10 374/688/10 376/690/10
f 376/690/10 364/678/10 365/679/10
f 375/689/10 367/681/10 369/683/10
f 369/683/10 377/691/10 375/689/10
f 369/683/10 378/692/10 377/691/10
f 377/691/10 378/692/10 379/693/10
f 378/692/10 369/683/10 380/694/10
f 368/682/10 380/694/10 369/683/10
f 380/694/10 368/682/10 381/695/10
f 370/684/10 381/695/10 368/682/10
f 381/695/10 370/684/10 382/696/10
f 371/685/10 382/696/10 370/684/10
f 382/696/10 371/685/10 383/697/10
f 372/686/10 383/697/10 371/685/10
usemtl c_e7e7ec
f 384/698/5 385/699/5 386/700/5
f 385/699/5 384/698/5 387/701/5
f 388/702/5 387/701/5 384/698/5
f 387/701/5 389/703/5 385/699/5
f 387/701/5 388/702/5 390/704/5
f 389/703/5 387/701/5 391/705/5
f 390/704/5 391/705/5 387/701/5
f 391/705/5 390/704/5 392/706/5
f 393/707/5 394/708/5 395/709/5
f 394/708/5 393/707/5 396/710/5
f 396/710/5 397/711/5 394/708/5
f 397/711/5 396/710/5 398/712/5
f 398/712/5 399/713/5 397/711/5
f 399/713/5 398/712/5 400/714/5
f 400/714/5 401/715/5 399/713/5
f 401/715/5 400/714/5 402/716/5
f 403/717/5 399/713/5 401/715/5
f 399/713/5 403/717/5 404/718/5
f 405/719/5 404/718/5 403/717/5
f 404/718/5 405/719/5 406/720/5
f 407/721/5 406/720/5 405/719/5
f 406/720/5 407/721/5 408/722/5
f 391/705/5 409/723/5 389/703/5
f 409/723/5 391/705/5 410/724/5
f 392/706/5 410/724/5 391/705/5
f 410/724/5 392/706/5 411/725/5
f 397/711/5 411/725/5 392/706/5
f 411/725/5 397/711/5 412/726/5
f 392/706/5 394/708/5 397/711/5
f 394/708/5 392/706/5 390/704/5
f 390/704/5 395/709/5 394/708/5
f 395/709/5 390/704/5 388/702/5
f 412/726/5 404/718/5 411/725/5
f 404/718/5 412/726/5 399/713/5
f 406/720/5 411/725/5 404/718/5
f 411/725/5 406/720/5 410/724/5
f 408/722/5 410/724/5 406/720/5
f 410/724/5 408/722/5 409/723/5
f 413/727/5 400/714/5 398/712/5
f 400/714/5 413/727/5 414/728/5
f 398/712/5 415/729/5 413/727/5
f 415/729/5 398/712/5 396/710/5
f 396/710/5 416/730/5 415/729/5
f 416/730/5 396/710/5 393/707/5
f 414/728/5 402/716/5 400/714/5
f 402/716/5 414/728/5 417/731/5
f 402/716/5 417/731/5 418/732/5
f 417/731/5 419/733/5 418/732/5
f 418/732/5 420/734/5 402/716/5
f 401/715/5 402/716/5 420/734/5
f 420/734/5 421/735/5 401/715/5
f 403/717/5 401/715/5 421/735/5
f 421/735/5 422/736/5 403/717/5
f 405/719/5 403/717/5 422/736/5
f 422/736/5 423/737/5 405/719/5
f 407/721/5 405/719/5 423/737/5
o RightHand
usemtl c_5c5e6a
f 424/738/1 425/739/1 426/740/1
f 425/739/1 424/738/1 427/741/1
f 426/742/33 246/743/94 243/744/94
f 246/743/94 426/742/33 425/745/33
f 243/744/94 257/746/3 254/747/3
f 257/746/3 243/744/94 246/743/94
f 243/748/5 254/749/5 428/750/5
f 243/748/5 428/750/5 429/751/5
f 429/751/5 426/752/5 243/748/5
f 426/752/5 429/751/5 424/753/5
f 254/754/6 257/755/6 430/738/6
f 254/754/6 430/738/6 428/741/6
f 430/745/8 431/756/8 429/757/8
f 430/745/8 429/757/8 428/742/8
f 427/746/8 429/757/8 431/756/8
f 429/757/8 427/746/8 424/747/8
f 425/758/10 431/759/10 246/760/10
f 431/759/10 425/758/10 427/750/10
f 257/761/10 246/760/10 431/759/10
f 257/761/10 431/759/10 430/753/10
