# Roblox asset pack: barbaridactylus (creatures), from the Studio model "Barbaridactylus". Exported with Export Selection, split by tools/build_creatures.py: one object per rigid body. Units: studs. +Y up, front faces -Z, pivot (bottom centre) at the origin.
mtllib barbaridactylus.mtl

v 0.60000 1.80010 4.14950
v 0.60000 1.80010 5.94950
v 0.60000 1.50010 4.14950
v 0.60000 1.50010 5.94950
v -0.60000 1.80010 5.94950
v -0.60000 1.80010 4.14950
v -0.60000 1.50010 5.94950
v -0.60000 1.50010 4.14950
v 0.60000 3.00010 4.14950
v 0.60000 3.00010 5.94950
v -0.60000 3.00010 5.94950
v -0.60000 3.00010 4.14950
v 0.30000 2.40010 5.94950
v 0.30000 2.40010 6.54950
v 0.30000 2.10010 5.94950
v 0.30000 2.10010 6.54950
v -0.30000 2.40010 6.54950
v -0.30000 2.40010 5.94950
v -0.30000 2.10010 6.54950
v -0.30000 2.10010 5.94950
v 0.30000 3.00010 5.94950
v 0.30000 3.00010 6.84950
v 0.30000 2.40010 6.84950
v -0.30000 3.00010 6.84950
v -0.30000 3.00010 5.94950
v -0.30000 2.40010 6.84950
v -0.60000 3.00010 4.74950
v -0.60000 1.80010 4.74950
v -1.20000 1.80010 5.94950
v -1.20000 3.00010 5.94950
v -1.20000 1.80010 4.74950
v -1.20000 3.00010 4.74950
v -0.60000 0.60010 5.94950
v -0.60000 1.80010 5.34950
v -0.60000 0.60010 5.34950
v -1.20000 0.60010 5.94950
v -1.20000 0.60010 5.34950
v -1.20000 1.80010 5.34950
v -0.60000 0.60010 5.64950
v -0.60000 0.00010 5.64950
v -0.60000 0.60010 5.04950
v -0.60000 0.00010 5.04950
v -1.20000 0.00010 5.64950
v -1.20000 0.60010 5.64950
v -1.20000 0.00010 5.04950
v -1.20000 0.60010 5.04950
v 0.90000 2.46010 -4.25050
v 0.90000 3.08010 -0.70050
v 0.90000 1.72010 -4.12050
v 0.90000 2.34010 -0.57050
v -0.90000 3.08010 -0.70050
v -0.90000 2.46010 -4.25050
v -0.90000 2.34010 -0.57050
v -0.90000 1.72010 -4.12050
v 0.60000 3.72010 -4.32050
v 0.60000 3.85010 -2.83050
v 0.60000 2.82010 -4.24050
v 0.60000 2.95010 -2.75050
v -0.60000 3.85010 -2.83050
v -0.60000 3.72010 -4.32050
v -0.60000 2.95010 -2.75050
v -0.60000 2.82010 -4.24050
v 0.45000 1.92010 -5.49050
v 0.45000 1.92010 -3.99050
v 0.45000 1.47010 -5.49050
v 0.45000 1.47010 -3.99050
v -0.45000 1.92010 -3.99050
v -0.45000 1.92010 -5.49050
v -0.45000 1.47010 -3.99050
v -0.45000 1.47010 -5.49050
v 0.60000 1.87010 -4.14050
v 0.60000 2.28010 -1.78050
v 0.60000 1.42010 -4.06050
v 0.60000 1.84010 -1.70050
v -0.60000 2.28010 -1.78050
v -0.60000 1.87010 -4.14050
v -0.60000 1.84010 -1.70050
v -0.60000 1.42010 -4.06050
v 0.60000 2.22010 -6.75050
v 0.60000 2.45010 -4.06050
v 0.60000 1.62010 -6.70050
v 0.60000 1.86010 -4.01050
v -0.60000 2.45010 -4.06050
v -0.60000 2.22010 -6.75050
v -0.60000 1.86010 -4.01050
v -0.60000 1.62010 -6.70050
v 0.30000 3.34010 -6.85050
v 0.30000 3.57010 -4.31050
v 0.30000 2.60010 -6.78050
v 0.30000 2.82010 -4.24050
v -0.30000 3.57010 -4.31050
v -0.30000 3.34010 -6.85050
v -0.30000 2.82010 -4.24050
v -0.30000 2.60010 -6.78050
v 0.30000 6.76010 1.10950
v 0.30000 7.08010 2.87950
v 0.30000 6.17010 1.21950
v 0.30000 6.49010 2.98950
v -0.30000 7.08010 2.87950
v -0.30000 6.76010 1.10950
v -0.30000 6.49010 2.98950
v -0.30000 6.17010 1.21950
v 0.90000 4.14010 -2.85050
v 0.90000 4.20010 -2.25050
v 0.90000 2.95010 -2.75050
v 0.90000 3.00010 -2.15050
v -0.90000 4.20010 -2.25050
v -0.90000 4.14010 -2.85050
v -0.90000 3.00010 -2.15050
v -0.90000 2.95010 -2.75050
v 0.30000 5.12010 -1.26050
v 0.30000 8.86010 -0.93050
v 0.30000 5.05010 -0.51050
v 0.30000 8.79010 -0.18050
v -0.30000 8.86010 -0.93050
v -0.30000 5.12010 -1.26050
v -0.30000 8.79010 -0.18050
v -0.30000 5.05010 -0.51050
v 0.30000 6.45010 -0.66050
v 0.30000 6.66010 0.51950
v 0.30000 5.86010 -0.56050
v 0.30000 6.07010 0.61950
v -0.30000 6.66010 0.51950
v -0.30000 6.45010 -0.66050
v -0.30000 6.07010 0.61950
v -0.30000 5.86010 -0.56050
v 0.30000 10.87010 0.70950
v 0.30000 11.79010 1.47950
v 0.30000 10.48010 1.16950
v 0.30000 11.40010 1.93950
v -0.30000 11.79010 1.47950
v -0.30000 10.87010 0.70950
v -0.30000 11.40010 1.93950
v -0.30000 10.48010 1.16950
v 0.45000 3.87010 -1.70050
v 0.45000 5.32010 -1.31050
v 0.45000 3.60010 -0.69050
v 0.45000 5.05010 -0.30050
v -0.45000 5.32010 -1.31050
v -0.45000 3.87010 -1.70050
v -0.45000 5.05010 -0.30050
v -0.45000 3.60010 -0.69050
v 0.30000 8.91010 -0.93050
v 0.30000 9.83010 -0.16050
v 0.30000 8.53010 -0.47050
v 0.30000 9.45010 0.29950
v -0.30000 9.83010 -0.16050
v -0.30000 8.91010 -0.93050
v -0.30000 9.45010 0.29950
v -0.30000 8.53010 -0.47050
v 0.30000 12.25010 1.86950
v 0.30000 12.94010 2.44950
v 0.30000 11.86010 2.32950
v 0.30000 12.55010 2.89950
v -0.30000 12.94010 2.44950
v -0.30000 12.25010 1.86950
v -0.30000 12.55010 2.89950
v -0.30000 11.86010 2.32950
v 0.60000 2.54010 -0.30050
v 0.60000 2.10010 -0.22050
v -0.60000 2.54010 -0.30050
v -0.60000 2.10010 -0.22050
v 0.60000 2.31010 0.51950
v 0.60000 2.13010 2.61950
v 0.60000 2.02010 0.49950
v 0.60000 1.83010 2.58950
v -0.60000 2.13010 2.61950
v -0.60000 2.31010 0.51950
v -0.60000 1.83010 2.58950
v -0.60000 2.02010 0.49950
v 0.45000 2.81010 -1.13050
v 0.45000 2.34010 0.60950
v 0.45000 2.52010 -1.21050
v 0.45000 2.05010 0.52950
v -0.45000 2.34010 0.60950
v -0.45000 2.81010 -1.13050
v -0.45000 2.05010 0.52950
v -0.45000 2.52010 -1.21050
v 0.67500 3.63010 -1.90050
v 0.67500 3.68010 -1.30050
v 0.67500 3.03010 -1.85050
v 0.67500 3.08010 -1.25050
v -0.67500 3.68010 -1.30050
v -0.67500 3.63010 -1.90050
v -0.67500 3.08010 -1.25050
v -0.67500 3.03010 -1.85050
v 0.45000 3.68010 -0.90050
v 0.45000 3.21010 0.83950
v -0.45000 3.21010 0.83950
v -0.45000 3.68010 -0.90050
v 0.60000 3.87010 -2.53050
v 0.60000 4.03010 -0.73050
v 0.60000 2.68010 -2.42050
v 0.60000 2.83010 -0.63050
v -0.60000 4.03010 -0.73050
v -0.60000 3.87010 -2.53050
v -0.60000 2.83010 -0.63050
v -0.60000 2.68010 -2.42050
v 0.60000 3.21010 0.59950
v 0.60000 3.03010 2.68950
v -0.60000 3.03010 2.68950
v -0.60000 3.21010 0.59950
v 0.45000 2.32010 -5.14050
v 0.45000 3.06010 -2.39050
v 0.45000 2.03010 -5.07050
v 0.45000 2.77010 -2.31050
v -0.45000 3.06010 -2.39050
v -0.45000 2.32010 -5.14050
v -0.45000 2.77010 -2.31050
v -0.45000 2.03010 -5.07050
v 0.45000 1.92010 -6.09050
v 0.45000 1.47010 -6.09050
v -0.45000 1.92010 -6.09050
v -0.45000 1.47010 -6.09050
v -0.68000 3.68010 -1.30050
v -0.68000 3.63010 -1.90050
v -0.68000 3.08010 -1.25050
v -0.68000 3.03010 -1.85050
v 0.68000 3.63010 -1.90050
v 0.68000 3.68010 -1.30050
v 0.68000 3.03010 -1.85050
v 0.68000 3.08010 -1.25050
v -0.60000 2.85010 2.94950
v -0.60000 2.85010 5.34950
v -0.60000 2.55010 2.94950
v -0.60000 2.55010 5.34950
v -3.30000 2.85010 5.34950
v -3.30000 2.85010 2.94950
v -3.30000 2.55010 5.34950
v -3.30000 2.55010 2.94950
v -1.20000 2.85010 5.34950
v -1.20000 2.85010 6.54950
v -1.20000 2.55010 5.34950
v -1.20000 2.55010 6.54950
v -3.30000 2.85010 6.54950
v -3.30000 2.55010 6.54950
v -3.30000 2.85010 5.94950
v -3.30000 2.55010 5.94950
v -4.50000 2.85010 5.94950
v -4.50000 2.85010 2.94950
v -4.50000 2.55010 5.94950
v -4.50000 2.55010 2.94950
v -4.50000 2.85010 4.74950
v -4.50000 2.55010 4.74950
v -5.70000 2.85010 4.74950
v -5.70000 2.85010 2.94950
v -5.70000 2.55010 4.74950
v -5.70000 2.55010 2.94950
v -5.70000 2.85010 4.14950
v -5.70000 2.55010 4.14950
v -8.10000 2.85010 4.14950
v -8.10000 2.85010 2.94950
v -8.10000 2.55010 4.14950
v -8.10000 2.55010 2.94950
v -3.11000 3.00010 2.64950
v -3.21500 3.00010 3.23950
v -3.11000 2.40010 2.64950
v -3.21500 2.40010 3.23950
v -5.13500 3.00010 2.89950
v -5.03080 3.00010 2.30950
v -5.13500 2.40010 2.89950
v -5.03080 2.40010 2.30950
v -0.82500 3.00010 2.23950
v -0.72100 3.00010 2.82950
v -0.82500 2.40010 2.23950
v -0.72100 2.40010 2.82950
v -3.23200 3.00010 3.26950
v -3.33600 3.00010 2.67950
v -3.23200 2.40010 3.26950
v -3.33600 2.40010 2.67950
v -4.95000 3.00010 2.34950
v -4.95000 3.00010 2.94950
v -4.95000 2.40010 2.34950
v -4.95000 2.40010 2.94950
v -8.55000 3.00010 2.94950
v -8.55000 3.00010 2.34950
v -8.55000 2.40010 2.94950
v -8.55000 2.40010 2.34950
v 0.30000 3.60010 2.04950
v 0.30000 3.60010 3.54950
v 0.30000 3.00010 2.04950
v 0.30000 3.00010 3.54950
v -0.30000 3.60010 3.54950
v -0.30000 3.60010 2.04950
v -0.30000 3.00010 3.54950
v -0.30000 3.00010 2.04950
v 0.90000 3.30010 2.34950
v 0.90000 3.30010 4.14950
v 0.90000 1.50010 2.34950
v 0.90000 1.50010 4.14950
v -0.90000 3.30010 4.14950
v -0.90000 3.30010 2.34950
v -0.90000 1.50010 4.14950
v -0.90000 1.50010 2.34950
v 0.60000 1.80010 2.04950
v 0.60000 1.80010 4.44950
v 0.60000 1.20010 2.04950
v 0.60000 1.20010 4.44950
v -0.60000 1.80010 4.44950
v -0.60000 1.80010 2.04950
v -0.60000 1.20010 4.44950
v -0.60000 1.20010 2.04950
v 1.20000 0.60010 5.64950
v 1.20000 0.00010 5.64950
v 1.20000 0.60010 5.04950
v 1.20000 0.00010 5.04950
v 0.60000 0.00010 5.64950
v 0.60000 0.60010 5.64950
v 0.60000 0.00010 5.04950
v 0.60000 0.60010 5.04950
v 1.20000 1.80010 5.94950
v 1.20000 0.60010 5.94950
v 1.20000 1.80010 5.34950
v 1.20000 0.60010 5.34950
v 0.60000 0.60010 5.94950
v 0.60000 0.60010 5.34950
v 0.60000 1.80010 5.34950
v 1.20000 3.00010 5.94950
v 1.20000 3.00010 4.74950
v 1.20000 1.80010 4.74950
v 0.60000 1.80010 4.74950
v 0.60000 3.00010 4.74950
v 3.30000 2.85010 2.94950
v 3.30000 2.85010 5.34950
v 3.30000 2.55010 2.94950
v 3.30000 2.55010 5.34950
v 0.60000 2.85010 5.34950
v 0.60000 2.85010 2.94950
v 0.60000 2.55010 5.34950
v 0.60000 2.55010 2.94950
v 8.10000 2.85010 2.94950
v 8.10000 2.85010 4.14950
v 8.10000 2.55010 2.94950
v 8.10000 2.55010 4.14950
v 5.70000 2.85010 4.14950
v 5.70000 2.85010 2.94950
v 5.70000 2.55010 4.14950
v 5.70000 2.55010 2.94950
v 5.70000 2.85010 4.74950
v 5.70000 2.55010 4.74950
v 4.50000 2.85010 4.74950
v 4.50000 2.85010 2.94950
v 4.50000 2.55010 4.74950
v 4.50000 2.55010 2.94950
v 4.50000 2.85010 5.94950
v 4.50000 2.55010 5.94950
v 3.30000 2.85010 5.94950
v 3.30000 2.55010 5.94950
v 3.30000 2.85010 6.54950
v 3.30000 2.55010 6.54950
v 1.20000 2.85010 6.54950
v 1.20000 2.85010 5.34950
v 1.20000 2.55010 6.54950
v 1.20000 2.55010 5.34950
v 3.33600 3.00010 2.67950
v 3.23200 3.00010 3.27950
v 3.33600 2.40010 2.67950
v 3.23200 2.40010 3.27950
v 0.72100 3.00010 2.82950
v 0.82500 3.00010 2.23950
v 0.72100 2.40010 2.82950
v 0.82500 2.40010 2.23950
v 8.55000 3.00010 2.34950
v 8.55000 3.00010 2.94950
v 8.55000 2.40010 2.34950
v 8.55000 2.40010 2.94950
v 4.95000 3.00010 2.94950
v 4.95000 3.00010 2.34950
v 4.95000 2.40010 2.94950
v 4.95000 2.40010 2.34950
v 5.03100 3.00010 2.30950
v 5.13500 3.00010 2.89950
v 5.03100 2.40010 2.30950
v 5.13500 2.40010 2.89950
v 3.21500 3.00010 3.23950
v 3.11000 3.00010 2.64950
v 3.21500 2.40010 3.23950
v 3.11000 2.40010 2.64950
vt 5.97500 -4.75000
vt 5.75000 -4.75000
vt 5.97500 -4.78750
vt 5.75000 -4.78750
vt 5.90000 -4.75000
vt 5.90000 -4.97500
vt 5.75000 -4.97500
vt 5.90000 -4.78750
vt 2.97500 -4.75000
vt 2.75000 -4.75000
vt 2.97500 -4.90000
vt 2.75000 -4.90000
vt 2.90000 -4.75000
vt 2.90000 -4.97500
vt 2.75000 -4.97500
vt 2.90000 -4.90000
vt 6.82500 -4.25000
vt 6.75000 -4.25000
vt 6.82500 -4.28750
vt 6.75000 -4.28750
vt 6.82500 -4.32500
vt 6.75000 -4.32500
vt 0.11250 -0.25000
vt 0.00000 -0.25000
vt 0.11250 -0.32500
vt 0.00000 -0.32500
vt 0.07500 -0.25000
vt 0.07500 -0.36250
vt 0.00000 -0.36250
vt 0.07500 -0.32500
vt 4.90000 -6.00000
vt 4.75000 -6.00000
vt 4.90000 -6.15000
vt 4.75000 -6.15000
vt 4.82500 -6.00000
vt 4.82500 -6.15000
vt 6.90000 -3.75000
vt 6.75000 -3.75000
vt 6.90000 -3.82500
vt 6.75000 -3.82500
vt 6.82500 -3.75000
vt 6.82500 -3.90000
vt 6.75000 -3.90000
vt 6.82500 -3.82500
vt 4.82500 0.00000
vt 4.75000 0.00000
vt 4.82500 -0.07500
vt 4.75000 -0.07500
vt 3.95000 -6.00000
vt 3.50000 -6.00000
vt 3.95000 -6.09375
vt 3.50000 -6.09375
vt 3.72500 -6.00000
vt 3.72500 -6.45000
vt 3.50000 -6.45000
vt 3.72500 -6.09375
vt 7.93750 -6.25000
vt 7.75000 -6.25000
vt 7.93750 -6.36250
vt 7.75000 -6.36250
vt 7.90000 -6.25000
vt 7.90000 -6.43750
vt 7.75000 -6.43750
vt 7.90000 -6.36250
vt 6.93750 -4.00000
vt 6.75000 -4.00000
vt 6.93750 -4.05625
vt 6.75000 -4.05625
vt 6.86250 -4.00000
vt 6.86250 -4.18750
vt 6.75000 -4.18750
vt 6.86250 -4.05625
vt 6.80000 -3.00000
vt 6.50000 -3.00000
vt 6.80000 -3.05625
vt 6.50000 -3.05625
vt 6.65000 -3.00000
vt 6.65000 -3.30000
vt 6.50000 -3.30000
vt 6.65000 -3.05625
vt 7.33750 -6.75000
vt 7.00000 -6.75000
vt 7.33750 -6.82500
vt 7.00000 -6.82500
vt 7.15000 -6.75000
vt 7.15000 -7.08750
vt 7.00000 -7.08750
vt 7.15000 -6.82500
vt 2.06875 -1.00000
vt 1.75000 -1.00000
vt 2.06875 -1.09375
vt 1.75000 -1.09375
vt 1.82500 -1.00000
vt 1.82500 -1.31875
vt 1.75000 -1.31875
vt 1.82500 -1.09375
vt 7.97500 -3.50000
vt 7.75000 -3.50000
vt 7.97500 -3.57500
vt 7.75000 -3.57500
vt 7.82500 -3.50000
vt 7.82500 -3.72500
vt 7.75000 -3.72500
vt 7.82500 -3.57500
vt 5.07500 -4.00000
vt 5.00000 -4.00000
vt 5.07500 -4.15000
vt 5.00000 -4.15000
vt 5.22500 -4.00000
vt 5.22500 -4.07500
vt 5.00000 -4.07500
vt 5.22500 -4.15000
vt 1.21906 -5.75000
vt 0.75000 -5.75000
vt 1.21906 -5.84381
vt 0.75000 -5.84381
vt 0.82505 -5.75000
vt 0.82505 -6.21906
vt 0.75000 -6.21906
vt 0.82505 -5.84381
vt 7.65000 -2.25000
vt 7.50000 -2.25000
vt 7.65000 -2.32500
vt 7.50000 -2.32500
vt 7.57500 -2.25000
vt 7.57500 -2.40000
vt 7.50000 -2.40000
vt 7.57500 -2.32500
vt 7.90000 -3.25000
vt 7.75000 -3.25000
vt 7.90000 -3.32500
vt 7.75000 -3.32500
vt 7.82500 -3.25000
vt 7.82500 -3.40000
vt 7.75000 -3.40000
vt 7.82500 -3.32500
vt 5.93762 -1.75000
vt 5.75000 -1.75000
vt 5.93762 -1.88134
vt 5.75000 -1.88134
vt 5.86257 -1.75000
vt 5.86257 -1.93762
vt 5.75000 -1.93762
vt 5.86257 -1.88134
vt 0.90000 1.00000
vt 0.75000 1.00000
vt 0.90000 0.92500
vt 0.75000 0.92500
vt 0.82500 1.00000
vt 0.82500 0.85000
vt 0.75000 0.85000
vt 0.82500 0.92500
vt 5.11250 -2.75000
vt 5.00000 -2.75000
vt 5.11250 -2.82500
vt 5.00000 -2.82500
vt 5.07500 -2.75000
vt 5.07500 -2.86250
vt 5.00000 -2.86250
vt 5.07500 -2.82500
vt 0.68750 0.75000
vt 0.50000 0.75000
vt 0.68750 0.69375
vt 0.50000 0.69375
vt 0.65000 0.75000
vt 0.65000 0.56250
vt 0.50000 0.56250
vt 0.65000 0.69375
vt 5.01250 -3.00000
vt 4.75000 -3.00000
vt 5.01250 -3.03750
vt 4.75000 -3.03750
vt 4.90000 -3.00000
vt 4.90000 -3.26250
vt 4.75000 -3.26250
vt 4.90000 -3.03750
vt 7.72500 -2.00000
vt 7.50000 -2.00000
vt 7.72500 -2.03750
vt 7.50000 -2.03750
vt 7.61250 -2.00000
vt 7.61250 -2.22500
vt 7.50000 -2.22500
vt 7.61250 -2.03750
vt 0.07500 -2.50000
vt 0.00000 -2.50000
vt 0.07500 -2.57500
vt 0.00000 -2.57500
vt 0.16875 -2.50000
vt 0.16875 -2.57500
vt 2.82500 -3.25000
vt 2.75000 -3.25000
vt 2.82500 -3.32500
vt 2.75000 -3.32500
vt 3.07500 -5.00000
vt 3.00000 -5.00000
vt 3.07500 -5.07500
vt 3.00000 -5.07500
vt 4.66875 -6.25000
vt 4.50000 -6.25000
vt 4.66875 -6.32500
vt 4.50000 -6.32500
vt 4.57500 -6.25000
vt 4.57500 -6.41875
vt 4.50000 -6.41875
vt 4.57500 -6.32500
vt 2.22500 -2.25000
vt 2.00000 -2.25000
vt 2.22500 -2.36250
vt 2.00000 -2.36250
vt 2.11250 -2.25000
vt 2.11250 -2.47500
vt 2.00000 -2.47500
vt 2.11250 -2.36250
vt 5.72500 -5.50000
vt 5.50000 -5.50000
vt 5.72500 -5.65000
vt 5.50000 -5.65000
vt 5.65000 -5.50000
vt 5.65000 -5.72500
vt 5.50000 -5.72500
vt 5.65000 -5.65000
vt 1.76250 -2.25000
vt 1.50000 -2.25000
vt 1.76250 -2.36250
vt 1.50000 -2.36250
vt 1.65000 -2.25000
vt 1.65000 -2.51250
vt 1.50000 -2.51250
vt 1.65000 -2.36250
vt 2.35625 -0.50000
vt 2.00000 -0.50000
vt 2.35625 -0.53750
vt 2.00000 -0.53750
vt 2.11250 -0.50000
vt 2.11250 -0.85625
vt 2.00000 -0.85625
vt 2.11250 -0.53750
vt 3.07500 -1.25000
vt 3.00000 -1.25000
vt 3.07500 -1.30625
vt 3.00000 -1.30625
vt 3.11250 -1.25000
vt 3.11250 -1.32500
vt 3.00000 -1.32500
vt 3.11250 -1.30625
vt 1.00000 1.00000
vt 0.00000 1.00000
vt 1.00000 0.00000
vt 0.00000 0.00000
vt 3.55000 -2.75000
vt 3.25000 -2.75000
vt 3.55000 -2.78750
vt 3.25000 -2.78750
vt 3.58750 -2.75000
vt 3.58750 -3.05000
vt 3.25000 -3.05000
vt 3.58750 -2.78750
vt 6.90000 0.75000
vt 6.75000 0.75000
vt 6.90000 0.71250
vt 6.75000 0.71250
vt 7.01250 0.75000
vt 7.01250 0.60000
vt 6.75000 0.60000
vt 7.01250 0.71250
vt 1.62500 -2.50000
vt 1.25000 -2.50000
vt 1.62500 -2.53750
vt 1.25000 -2.53750
vt 1.40000 -2.50000
vt 1.40000 -2.87500
vt 1.25000 -2.87500
vt 1.40000 -2.53750
vt 4.22500 -0.25000
vt 4.00000 -0.25000
vt 4.22500 -0.28750
vt 4.00000 -0.28750
vt 4.15000 -0.25000
vt 4.15000 -0.47500
vt 4.00000 -0.47500
vt 4.15000 -0.28750
vt 6.90000 -4.25000
vt 6.90000 -4.28750
vt 7.05000 -4.25000
vt 7.05000 -4.40000
vt 6.75000 -4.40000
vt 7.05000 -4.28750
vt 2.82500 0.75000
vt 2.75000 0.75000
vt 2.82500 0.67500
vt 2.75000 0.67500
vt 2.99375 0.75000
vt 2.99375 0.67500
vt 0.82500 -4.00000
vt 0.75000 -4.00000
vt 0.82500 -4.07500
vt 0.75000 -4.07500
vt 1.06875 -4.00000
vt 1.06875 -4.07500
vt 6.82500 -4.00000
vt 6.82500 -4.07500
vt 6.75000 -4.07500
vt 7.20000 -4.00000
vt 7.20000 -4.07500
vt 0.18750 -4.25000
vt 0.00000 -4.25000
vt 0.18750 -4.32500
vt 0.00000 -4.32500
vt 0.07500 -4.25000
vt 0.07500 -4.43750
vt 0.00000 -4.43750
vt 0.07500 -4.32500
vt 4.97500 -2.25000
vt 4.75000 -2.25000
vt 4.97500 -2.47500
vt 4.75000 -2.47500
vt 0.80000 -4.25000
vt 0.50000 -4.25000
vt 0.80000 -4.32500
vt 0.50000 -4.32500
vt 0.65000 -4.25000
vt 0.65000 -4.55000
vt 0.50000 -4.55000
vt 0.65000 -4.32500
vt 2.57500 -2.75000
vt 2.50000 -2.75000
vt 2.57500 -2.82500
vt 2.50000 -2.82500
vt 2.90000 0.75000
vt 2.90000 0.67500
vt 2.82500 0.60000
vt 2.75000 0.60000
vt 5.90000 -3.50000
vt 5.75000 -3.50000
vt 5.90000 -3.65000
vt 5.75000 -3.65000
vt 5.82500 -3.50000
vt 5.82500 -3.65000
vt 5.30000 -5.75000
vt 5.00000 -5.75000
vt 5.30000 -5.78750
vt 5.00000 -5.78750
vt 5.33750 -5.75000
vt 5.33750 -6.05000
vt 5.00000 -6.05000
vt 5.33750 -5.78750
vt 3.65000 -6.25000
vt 3.50000 -6.25000
vt 3.65000 -6.28750
vt 3.50000 -6.28750
vt 3.80000 -6.25000
vt 3.80000 -6.40000
vt 3.50000 -6.40000
vt 3.80000 -6.28750
vt 6.72500 -1.75000
vt 6.50000 -1.75000
vt 6.72500 -1.78750
vt 6.50000 -1.78750
vt 6.65000 -1.75000
vt 6.65000 -1.97500
vt 6.50000 -1.97500
vt 6.65000 -1.78750
vt 4.37500 -6.00000
vt 4.00000 -6.00000
vt 4.37500 -6.03750
vt 4.00000 -6.03750
vt 4.15000 -6.00000
vt 4.15000 -6.37500
vt 4.00000 -6.37500
vt 4.15000 -6.03750
vt 5.65000 -6.25000
vt 5.50000 -6.25000
vt 5.65000 -6.28750
vt 5.50000 -6.28750
vt 5.76250 -6.25000
vt 5.76250 -6.40000
vt 5.50000 -6.40000
vt 5.76250 -6.28750
vt 2.82500 -5.00000
vt 2.75000 -5.00000
vt 2.82500 -5.07500
vt 2.75000 -5.07500
vt 3.06875 -5.00000
vt 3.06875 -5.07500
vt 3.32500 0.75000
vt 3.25000 0.75000
vt 3.32500 0.67500
vt 3.25000 0.67500
vt 3.70000 0.75000
vt 3.70000 0.67500
vt 5.82500 -5.00000
vt 5.75000 -5.00000
vt 5.82500 -5.07500
vt 5.75000 -5.07500
vt 5.99375 -5.00000
vt 5.99375 -5.07500
vn 1.0000 0.0000 0.0000
vn 0.0000 1.0000 0.0000
vn 0.0000 0.0000 1.0000
vn -1.0000 0.0000 0.0000
vn 0.0000 -1.0000 0.0000
vn 0.0000 0.0000 -1.0000
vn 0.0000 0.9843 -0.1732
vn 0.0000 0.1732 0.9843
vn 0.0000 -0.9843 0.1732
vn 0.0000 -0.1732 -0.9843
vn 0.0000 1.0000 -0.0866
vn 0.0000 0.0866 1.0000
vn 0.0000 -1.0000 0.0866
vn 0.0000 -0.0866 -1.0000
vn 0.0000 0.0866 -1.0000
vn 0.0000 1.0000 0.0866
vn 0.0000 -0.0866 1.0000
vn 0.0000 -1.0000 -0.0866
vn 0.0000 0.6457 -0.7638
vn 0.0000 0.7638 0.6457
vn 0.0000 -0.6457 0.7638
vn 0.0000 -0.7638 -0.6457
vn 0.0000 0.2598 -0.9685
vn 0.0000 0.9685 0.2598
vn 0.0000 -0.2598 0.9685
vn 0.0000 -0.9685 -0.2598
vn 0.0000 0.9685 -0.2598
vn 0.0000 0.2598 0.9685
vn 0.0000 -0.9685 0.2598
vn 0.0000 -0.2598 -0.9685
vn 0.9843 0.0000 0.1732
vn -0.1732 0.0000 0.9843
vn -0.9843 0.0000 -0.1732
vn 0.1732 0.0000 -0.9843
vn 0.9843 0.0000 -0.1732
vn 0.1732 0.0000 0.9843
vn -0.9843 0.0000 0.1732
vn -0.1732 0.0000 -0.9843

o LowerTorso
usemtl c_afddff
f 1/1/1 2/2/1 3/3/1
f 3/3/1 2/2/1 4/4/1
f 5/5/2 2/2/2 6/6/2
f 6/6/2 2/2/2 1/7/2
f 2/5/3 5/2/3 4/8/3
f 4/8/3 5/2/3 7/4/3
f 5/1/4 6/2/4 7/3/4
f 7/3/4 6/2/4 8/4/4
f 8/5/5 3/2/5 7/6/5
f 7/6/5 3/2/5 4/7/5
f 6/5/6 1/2/6 8/8/6
f 8/8/6 1/2/6 3/4/6
usemtl c_348e40
f 9/9/1 10/10/1 1/11/1
f 1/11/1 10/10/1 2/12/1
f 11/13/2 10/10/2 12/14/2
f 12/14/2 10/10/2 9/15/2
f 10/13/3 11/10/3 2/16/3
f 2/16/3 11/10/3 5/12/3
f 11/9/4 12/10/4 5/11/4
f 5/11/4 12/10/4 6/12/4
f 6/13/5 1/10/5 5/14/5
f 5/14/5 1/10/5 2/15/5
f 12/13/6 9/10/6 6/16/6
f 6/16/6 9/10/6 1/12/6
o Tail
usemtl c_afddff
f 13/17/1 14/18/1 15/19/1
f 15/19/1 14/18/1 16/20/1
f 17/17/2 14/18/2 18/21/2
f 18/21/2 14/18/2 13/22/2
f 14/17/3 17/18/3 16/19/3
f 16/19/3 17/18/3 19/20/3
f 17/17/4 18/18/4 19/19/4
f 19/19/4 18/18/4 20/20/4
f 20/17/5 15/18/5 19/21/5
f 19/21/5 15/18/5 16/22/5
f 18/17/6 13/18/6 20/19/6
f 20/19/6 13/18/6 15/20/6
usemtl c_348e40
f 21/23/1 22/24/1 13/25/1
f 13/25/1 22/24/1 23/26/1
f 24/27/2 22/24/2 25/28/2
f 25/28/2 22/24/2 21/29/2
f 22/27/3 24/24/3 23/30/3
f 23/30/3 24/24/3 26/26/3
f 24/23/4 25/24/4 26/25/4
f 26/25/4 25/24/4 18/26/4
f 18/27/5 13/24/5 26/28/5
f 26/28/5 13/24/5 23/29/5
f 25/27/6 21/24/6 18/30/6
f 18/30/6 21/24/6 13/26/6
o LeftUpperLeg
usemtl c_348e40
f 11/31/1 5/32/1 27/33/1
f 27/33/1 5/32/1 28/34/1
f 29/35/3 5/32/3 30/36/3
f 30/36/3 5/32/3 11/34/3
f 5/35/5 29/32/5 28/36/5
f 28/36/5 29/32/5 31/34/5
f 29/31/4 30/32/4 31/33/4
f 31/33/4 30/32/4 32/34/4
f 32/35/6 27/32/6 31/36/6
f 31/36/6 27/32/6 28/34/6
f 30/35/2 11/32/2 32/36/2
f 32/36/2 11/32/2 27/34/2
f 5/37/1 33/38/1 34/39/1
f 34/39/1 33/38/1 35/40/1
f 36/41/3 33/38/3 29/42/3
f 29/42/3 33/38/3 5/43/3
f 33/41/5 36/38/5 35/44/5
f 35/44/5 36/38/5 37/40/5
f 36/37/4 29/38/4 37/39/4
f 37/39/4 29/38/4 38/40/4
f 38/41/6 34/38/6 37/42/6
f 37/42/6 34/38/6 35/43/6
f 29/41/2 5/38/2 38/44/2
f 38/44/2 5/38/2 34/40/2
f 39/45/1 40/46/1 41/47/1
f 41/47/1 40/46/1 42/48/1
f 43/45/3 40/46/3 44/47/3
f 44/47/3 40/46/3 39/48/3
f 40/45/5 43/46/5 42/47/5
f 42/47/5 43/46/5 45/48/5
f 43/45/4 44/46/4 45/47/4
f 45/47/4 44/46/4 46/48/4
f 46/45/6 41/46/6 45/47/6
f 45/47/6 41/46/6 42/48/6
f 44/45/2 39/46/2 46/47/2
f 46/47/2 39/46/2 41/48/2
o Head
usemtl c_ff5959
f 47/49/1 48/50/1 49/51/1
f 49/51/1 48/50/1 50/52/1
f 51/53/7 48/50/7 52/54/7
f 52/54/7 48/50/7 47/55/7
f 48/53/8 51/50/8 50/56/8
f 50/56/8 51/50/8 53/52/8
f 51/49/4 52/50/4 53/51/4
f 53/51/4 52/50/4 54/52/4
f 54/53/9 49/50/9 53/54/9
f 53/54/9 49/50/9 50/55/9
f 52/53/10 47/50/10 54/56/10
f 54/56/10 47/50/10 49/52/10
f 55/57/1 56/58/1 57/59/1
f 57/59/1 56/58/1 58/60/1
f 59/61/11 56/58/11 60/62/11
f 60/62/11 56/58/11 55/63/11
f 56/61/12 59/58/12 58/64/12
f 58/64/12 59/58/12 61/60/12
f 59/57/4 60/58/4 61/59/4
f 61/59/4 60/58/4 62/60/4
f 62/61/13 57/58/13 61/62/13
f 61/62/13 57/58/13 58/63/13
f 60/61/14 55/58/14 62/64/14
f 62/64/14 55/58/14 57/60/14
f 63/65/1 64/66/1 65/67/1
f 65/67/1 64/66/1 66/68/1
f 67/69/2 64/66/2 68/70/2
f 68/70/2 64/66/2 63/71/2
f 64/69/3 67/66/3 66/72/3
f 66/72/3 67/66/3 69/68/3
f 67/65/4 68/66/4 69/67/4
f 69/67/4 68/66/4 70/68/4
f 70/69/5 65/66/5 69/70/5
f 69/70/5 65/66/5 66/71/5
f 68/69/6 63/66/6 70/72/6
f 70/72/6 63/66/6 65/68/6
f 71/73/1 72/74/1 73/75/1
f 73/75/1 72/74/1 74/76/1
f 75/77/7 72/74/7 76/78/7
f 76/78/7 72/74/7 71/79/7
f 72/77/8 75/74/8 74/80/8
f 74/80/8 75/74/8 77/76/8
f 75/73/4 76/74/4 77/75/4
f 77/75/4 76/74/4 78/76/4
f 78/77/9 73/74/9 77/78/9
f 77/78/9 73/74/9 74/79/9
f 76/77/10 71/74/10 78/80/10
f 78/80/10 71/74/10 73/76/10
f 79/81/1 80/82/1 81/83/1
f 81/83/1 80/82/1 82/84/1
f 83/85/11 80/82/11 84/86/11
f 84/86/11 80/82/11 79/87/11
f 80/85/12 83/82/12 82/88/12
f 82/88/12 83/82/12 85/84/12
f 83/81/4 84/82/4 85/83/4
f 85/83/4 84/82/4 86/84/4
f 86/85/13 81/82/13 85/86/13
f 85/86/13 81/82/13 82/87/13
f 84/85/14 79/82/14 86/88/14
f 86/88/14 79/82/14 81/84/14
f 87/89/1 88/90/1 89/91/1
f 89/91/1 88/90/1 90/92/1
f 91/93/11 88/90/11 92/94/11
f 92/94/11 88/90/11 87/95/11
f 88/93/12 91/90/12 90/96/12
f 90/96/12 91/90/12 93/92/12
f 91/89/4 92/90/4 93/91/4
f 93/91/4 92/90/4 94/92/4
f 94/93/13 89/90/13 93/94/13
f 93/94/13 89/90/13 90/95/13
f 92/93/14 87/90/14 94/96/14
f 94/96/14 87/90/14 89/92/14
usemtl c_348e40
f 95/97/1 96/98/1 97/99/1
f 97/99/1 96/98/1 98/100/1
f 99/101/7 96/98/7 100/102/7
f 100/102/7 96/98/7 95/103/7
f 96/101/8 99/98/8 98/104/8
f 98/104/8 99/98/8 101/100/8
f 99/97/4 100/98/4 101/99/4
f 101/99/4 100/98/4 102/100/4
f 102/101/9 97/98/9 101/102/9
f 101/102/9 97/98/9 98/103/9
f 100/101/10 95/98/10 102/104/10
f 102/104/10 95/98/10 97/100/10
f 103/105/1 104/106/1 105/107/1
f 105/107/1 104/106/1 106/108/1
f 107/109/11 104/106/11 108/110/11
f 108/110/11 104/106/11 103/111/11
f 104/109/12 107/106/12 106/112/12
f 106/112/12 107/106/12 109/108/12
f 107/105/4 108/106/4 109/107/4
f 109/107/4 108/106/4 110/108/4
f 110/109/13 105/106/13 109/110/13
f 109/110/13 105/106/13 106/111/13
f 108/109/14 103/106/14 110/112/14
f 110/112/14 103/106/14 105/108/14
f 111/113/1 112/114/1 113/115/1
f 113/115/1 112/114/1 114/116/1
f 115/117/15 112/114/15 116/118/15
f 116/118/15 112/114/15 111/119/15
f 112/117/16 115/114/16 114/120/16
f 114/120/16 115/114/16 117/116/16
f 115/113/4 116/114/4 117/115/4
f 117/115/4 116/114/4 118/116/4
f 118/117/17 113/114/17 117/118/17
f 117/118/17 113/114/17 114/119/17
f 116/117/18 111/114/18 118/120/18
f 118/120/18 111/114/18 113/116/18
f 119/121/1 120/122/1 121/123/1
f 121/123/1 120/122/1 122/124/1
f 123/125/7 120/122/7 124/126/7
f 124/126/7 120/122/7 119/127/7
f 120/125/8 123/122/8 122/128/8
f 122/128/8 123/122/8 125/124/8
f 123/121/4 124/122/4 125/123/4
f 125/123/4 124/122/4 126/124/4
f 126/125/9 121/122/9 125/126/9
f 125/126/9 121/122/9 122/127/9
f 124/125/10 119/122/10 126/128/10
f 126/128/10 119/122/10 121/124/10
f 127/129/1 128/130/1 129/131/1
f 129/131/1 128/130/1 130/132/1
f 131/133/19 128/130/19 132/134/19
f 132/134/19 128/130/19 127/135/19
f 128/133/20 131/130/20 130/136/20
f 130/136/20 131/130/20 133/132/20
f 131/129/4 132/130/4 133/131/4
f 133/131/4 132/130/4 134/132/4
f 134/133/21 129/130/21 133/134/21
f 133/134/21 129/130/21 130/135/21
f 132/133/22 127/130/22 134/136/22
f 134/136/22 127/130/22 129/132/22
f 135/137/1 136/138/1 137/139/1
f 137/139/1 136/138/1 138/140/1
f 139/141/23 136/138/23 140/142/23
f 140/142/23 136/138/23 135/143/23
f 136/141/24 139/138/24 138/144/24
f 138/144/24 139/138/24 141/140/24
f 139/137/4 140/138/4 141/139/4
f 141/139/4 140/138/4 142/140/4
f 142/141/25 137/138/25 141/142/25
f 141/142/25 137/138/25 138/143/25
f 140/141/26 135/138/26 142/144/26
f 142/144/26 135/138/26 137/140/26
f 143/145/1 144/146/1 145/147/1
f 145/147/1 144/146/1 146/148/1
f 147/149/19 144/146/19 148/150/19
f 148/150/19 144/146/19 143/151/19
f 144/149/20 147/146/20 146/152/20
f 146/152/20 147/146/20 149/148/20
f 147/145/4 148/146/4 149/147/4
f 149/147/4 148/146/4 150/148/4
f 150/149/21 145/146/21 149/150/21
f 149/150/21 145/146/21 146/151/21
f 148/149/22 143/146/22 150/152/22
f 150/152/22 143/146/22 145/148/22
f 151/153/1 152/154/1 153/155/1
f 153/155/1 152/154/1 154/156/1
f 155/157/19 152/154/19 156/158/19
f 156/158/19 152/154/19 151/159/19
f 152/157/20 155/154/20 154/160/20
f 154/160/20 155/154/20 157/156/20
f 155/153/4 156/154/4 157/155/4
f 157/155/4 156/154/4 158/156/4
f 158/157/21 153/154/21 157/158/21
f 157/158/21 153/154/21 154/159/21
f 156/157/22 151/154/22 158/160/22
f 158/160/22 151/154/22 153/156/22
usemtl c_afddff
f 72/161/1 159/162/1 74/163/1
f 74/163/1 159/162/1 160/164/1
f 161/165/7 159/162/7 75/166/7
f 75/166/7 159/162/7 72/167/7
f 159/165/8 161/162/8 160/168/8
f 160/168/8 161/162/8 162/164/8
f 161/161/4 75/162/4 162/163/4
f 162/163/4 75/162/4 77/164/4
f 77/165/9 74/162/9 162/166/9
f 162/166/9 74/162/9 160/167/9
f 75/165/10 72/162/10 77/168/10
f 77/168/10 72/162/10 74/164/10
f 163/169/1 164/170/1 165/171/1
f 165/171/1 164/170/1 166/172/1
f 167/173/16 164/170/16 168/174/16
f 168/174/16 164/170/16 163/175/16
f 164/173/17 167/170/17 166/176/17
f 166/176/17 167/170/17 169/172/17
f 167/169/4 168/170/4 169/171/4
f 169/171/4 168/170/4 170/172/4
f 170/173/18 165/170/18 169/174/18
f 169/174/18 165/170/18 166/175/18
f 168/173/15 163/170/15 170/176/15
f 170/176/15 163/170/15 165/172/15
f 171/177/1 172/178/1 173/179/1
f 173/179/1 172/178/1 174/180/1
f 175/181/24 172/178/24 176/182/24
f 176/182/24 172/178/24 171/183/24
f 172/181/25 175/178/25 174/184/25
f 174/184/25 175/178/25 177/180/25
f 175/177/4 176/178/4 177/179/4
f 177/179/4 176/178/4 178/180/4
f 178/181/26 173/178/26 177/182/26
f 177/182/26 173/178/26 174/183/26
f 176/181/23 171/178/23 178/184/23
f 178/184/23 171/178/23 173/180/23
usemtl c_a4bd47
f 179/185/1 180/186/1 181/187/1
f 181/187/1 180/186/1 182/188/1
f 183/189/11 180/186/11 184/190/11
f 184/190/11 180/186/11 179/188/11
f 180/189/12 183/186/12 182/190/12
f 182/190/12 183/186/12 185/188/12
f 183/185/4 184/186/4 185/187/4
f 185/187/4 184/186/4 186/188/4
f 186/189/13 181/186/13 185/190/13
f 185/190/13 181/186/13 182/188/13
f 184/189/14 179/186/14 186/190/14
f 186/190/14 179/186/14 181/188/14
usemtl c_27462d
f 128/191/1 151/192/1 130/193/1
f 130/193/1 151/192/1 153/194/1
f 156/191/19 151/192/19 131/193/19
f 131/193/19 151/192/19 128/194/19
f 151/191/20 156/192/20 153/193/20
f 153/193/20 156/192/20 158/194/20
f 156/191/4 131/192/4 158/193/4
f 158/193/4 131/192/4 133/194/4
f 133/191/21 130/192/21 158/193/21
f 158/193/21 130/192/21 153/194/21
f 131/191/22 128/192/22 133/193/22
f 133/193/22 128/192/22 130/194/22
f 120/195/1 95/196/1 122/197/1
f 122/197/1 95/196/1 97/198/1
f 100/195/7 95/196/7 123/197/7
f 123/197/7 95/196/7 120/198/7
f 95/195/8 100/196/8 97/197/8
f 97/197/8 100/196/8 102/198/8
f 100/195/4 123/196/4 102/197/4
f 102/197/4 123/196/4 125/198/4
f 125/195/9 122/196/9 102/197/9
f 102/197/9 122/196/9 97/198/9
f 123/195/10 120/196/10 125/197/10
f 125/197/10 120/196/10 122/198/10
f 144/199/1 127/200/1 146/201/1
f 146/201/1 127/200/1 129/202/1
f 132/203/19 127/200/19 147/204/19
f 147/204/19 127/200/19 144/205/19
f 127/203/20 132/200/20 129/206/20
f 129/206/20 132/200/20 134/202/20
f 132/199/4 147/200/4 134/201/4
f 134/201/4 147/200/4 149/202/4
f 149/203/21 146/200/21 134/204/21
f 134/204/21 146/200/21 129/205/21
f 147/203/22 144/200/22 149/206/22
f 149/206/22 144/200/22 146/202/22
usemtl c_ff9494
f 187/207/1 188/208/1 171/209/1
f 171/209/1 188/208/1 172/210/1
f 189/211/24 188/208/24 190/212/24
f 190/212/24 188/208/24 187/213/24
f 188/211/25 189/208/25 172/214/25
f 172/214/25 189/208/25 175/210/25
f 189/207/4 190/208/4 175/209/4
f 175/209/4 190/208/4 176/210/4
f 176/211/26 171/208/26 175/212/26
f 175/212/26 171/208/26 172/213/26
f 190/211/23 187/208/23 176/214/23
f 176/214/23 187/208/23 171/210/23
f 191/215/1 192/216/1 193/217/1
f 193/217/1 192/216/1 194/218/1
f 195/219/11 192/216/11 196/220/11
f 196/220/11 192/216/11 191/221/11
f 192/219/12 195/216/12 194/222/12
f 194/222/12 195/216/12 197/218/12
f 195/215/4 196/216/4 197/217/4
f 197/217/4 196/216/4 198/218/4
f 198/219/13 193/216/13 197/220/13
f 197/220/13 193/216/13 194/221/13
f 196/219/14 191/216/14 198/222/14
f 198/222/14 191/216/14 193/218/14
f 199/223/1 200/224/1 163/225/1
f 163/225/1 200/224/1 164/226/1
f 201/227/16 200/224/16 202/228/16
f 202/228/16 200/224/16 199/229/16
f 200/227/17 201/224/17 164/230/17
f 164/230/17 201/224/17 167/226/17
f 201/223/4 202/224/4 167/225/4
f 167/225/4 202/224/4 168/226/4
f 168/227/18 163/224/18 167/228/18
f 167/228/18 163/224/18 164/229/18
f 202/227/15 199/224/15 168/230/15
f 168/230/15 199/224/15 163/226/15
usemtl c_970000
f 203/231/1 204/232/1 205/233/1
f 205/233/1 204/232/1 206/234/1
f 207/235/27 204/232/27 208/236/27
f 208/236/27 204/232/27 203/237/27
f 204/235/28 207/232/28 206/238/28
f 206/238/28 207/232/28 209/234/28
f 207/231/4 208/232/4 209/233/4
f 209/233/4 208/232/4 210/234/4
f 210/235/29 205/232/29 209/236/29
f 209/236/29 205/232/29 206/237/29
f 208/235/30 203/232/30 210/238/30
f 210/238/30 203/232/30 205/234/30
usemtl c_1b2a35
f 211/239/1 63/240/1 212/241/1
f 212/241/1 63/240/1 65/242/1
f 68/243/2 63/240/2 213/244/2
f 213/244/2 63/240/2 211/245/2
f 63/243/3 68/240/3 65/246/3
f 65/246/3 68/240/3 70/242/3
f 68/239/4 213/240/4 70/241/4
f 70/241/4 213/240/4 214/242/4
f 214/243/5 212/240/5 70/244/5
f 70/244/5 212/240/5 65/245/5
f 213/243/6 211/240/6 214/246/6
f 214/246/6 211/240/6 212/242/6
o Head_decal1
usemtl head_decal1
f 215/247/4 216/248/4 217/249/4
f 217/249/4 216/248/4 218/250/4
o Head_decal2
usemtl head_decal2
f 219/247/1 220/248/1 221/249/1
f 221/249/1 220/248/1 222/250/1
o LeftUpperArm
usemtl c_27462d
f 223/251/1 224/252/1 225/253/1
f 225/253/1 224/252/1 226/254/1
f 227/255/2 224/252/2 228/256/2
f 228/256/2 224/252/2 223/257/2
f 224/255/3 227/252/3 226/258/3
f 226/258/3 227/252/3 229/254/3
f 227/251/4 228/252/4 229/253/4
f 229/253/4 228/252/4 230/254/4
f 230/255/5 225/252/5 229/256/5
f 229/256/5 225/252/5 226/257/5
f 228/255/6 223/252/6 230/258/6
f 230/258/6 223/252/6 225/254/6
f 231/259/1 232/260/1 233/261/1
f 233/261/1 232/260/1 234/262/1
f 235/263/2 232/260/2 227/264/2
f 227/264/2 232/260/2 231/265/2
f 232/263/3 235/260/3 234/266/3
f 234/266/3 235/260/3 236/262/3
f 235/259/4 227/260/4 236/261/4
f 236/261/4 227/260/4 229/262/4
f 229/263/5 233/260/5 236/264/5
f 236/264/5 233/260/5 234/265/5
f 227/263/6 231/260/6 229/266/6
f 229/266/6 231/260/6 233/262/6
f 228/267/1 237/268/1 230/269/1
f 230/269/1 237/268/1 238/270/1
f 239/271/2 237/268/2 240/272/2
f 240/272/2 237/268/2 228/273/2
f 237/271/3 239/268/3 238/274/3
f 238/274/3 239/268/3 241/270/3
f 239/267/4 240/268/4 241/269/4
f 241/269/4 240/268/4 242/270/4
f 242/271/5 230/268/5 241/272/5
f 241/272/5 230/268/5 238/273/5
f 240/271/6 228/268/6 242/274/6
f 242/274/6 228/268/6 230/270/6
f 240/275/1 243/276/1 242/277/1
f 242/277/1 243/276/1 244/278/1
f 245/279/2 243/276/2 246/280/2
f 246/280/2 243/276/2 240/281/2
f 243/279/3 245/276/3 244/282/3
f 244/282/3 245/276/3 247/278/3
f 245/275/4 246/276/4 247/277/4
f 247/277/4 246/276/4 248/278/4
f 248/279/5 242/276/5 247/280/5
f 247/280/5 242/276/5 244/281/5
f 246/279/6 240/276/6 248/282/6
f 248/282/6 240/276/6 242/278/6
f 246/283/1 249/18/1 248/284/1
f 248/284/1 249/18/1 250/20/1
f 251/285/2 249/18/2 252/286/2
f 252/286/2 249/18/2 246/287/2
f 249/285/3 251/18/3 250/288/3
f 250/288/3 251/18/3 253/20/3
f 251/283/4 252/18/4 253/284/4
f 253/284/4 252/18/4 254/20/4
f 254/285/5 248/18/5 253/286/5
f 253/286/5 248/18/5 250/287/5
f 252/285/6 246/18/6 254/288/6
f 254/288/6 246/18/6 248/20/6
usemtl c_348e40
f 255/289/31 256/290/31 257/291/31
f 257/291/31 256/290/31 258/292/31
f 259/293/2 256/290/2 260/294/2
f 260/294/2 256/290/2 255/292/2
f 256/293/32 259/290/32 258/294/32
f 258/294/32 259/290/32 261/292/32
f 259/289/33 260/290/33 261/291/33
f 261/291/33 260/290/33 262/292/33
f 262/293/5 257/290/5 261/294/5
f 261/294/5 257/290/5 258/292/5
f 260/293/34 255/290/34 262/294/34
f 262/294/34 255/290/34 257/292/34
f 263/295/35 264/296/35 265/297/35
f 265/297/35 264/296/35 266/298/35
f 267/299/2 264/296/2 268/300/2
f 268/300/2 264/296/2 263/298/2
f 264/299/36 267/296/36 266/300/36
f 266/300/36 267/296/36 269/298/36
f 267/295/37 268/296/37 269/297/37
f 269/297/37 268/296/37 270/298/37
f 270/299/5 265/296/5 269/300/5
f 269/300/5 265/296/5 266/298/5
f 268/299/38 263/296/38 270/300/38
f 270/300/38 263/296/38 265/298/38
f 271/301/1 272/66/1 273/302/1
f 273/302/1 272/66/1 274/303/1
f 275/304/2 272/66/2 276/305/2
f 276/305/2 272/66/2 271/303/2
f 272/304/3 275/66/3 274/305/3
f 274/305/3 275/66/3 277/303/3
f 275/301/4 276/66/4 277/302/4
f 277/302/4 276/66/4 278/303/4
f 278/304/5 273/66/5 277/305/5
f 277/305/5 273/66/5 274/303/5
f 276/304/6 271/66/6 278/305/6
f 278/305/6 271/66/6 273/303/6
o UpperTorso
usemtl c_ff9494
f 279/306/1 280/307/1 281/308/1
f 281/308/1 280/307/1 282/309/1
f 283/310/2 280/307/2 284/311/2
f 284/311/2 280/307/2 279/312/2
f 280/310/3 283/307/3 282/313/3
f 282/313/3 283/307/3 285/309/3
f 283/306/4 284/307/4 285/308/4
f 285/308/4 284/307/4 286/309/4
f 286/310/5 281/307/5 285/311/5
f 285/311/5 281/307/5 282/312/5
f 284/310/6 279/307/6 286/313/6
f 286/313/6 279/307/6 281/309/6
usemtl c_348e40
f 287/314/1 288/315/1 289/316/1
f 289/316/1 288/315/1 290/317/1
f 291/314/2 288/315/2 292/316/2
f 292/316/2 288/315/2 287/317/2
f 288/314/3 291/315/3 290/316/3
f 290/316/3 291/315/3 293/317/3
f 291/314/4 292/315/4 293/316/4
f 293/316/4 292/315/4 294/317/4
f 294/314/5 289/315/5 293/316/5
f 293/316/5 289/315/5 290/317/5
f 292/314/6 287/315/6 294/316/6
f 294/316/6 287/315/6 289/317/6
usemtl c_afddff
f 295/318/1 296/319/1 297/320/1
f 297/320/1 296/319/1 298/321/1
f 299/322/2 296/319/2 300/323/2
f 300/323/2 296/319/2 295/324/2
f 296/322/3 299/319/3 298/325/3
f 298/325/3 299/319/3 301/321/3
f 299/318/4 300/319/4 301/320/4
f 301/320/4 300/319/4 302/321/4
f 302/322/5 297/319/5 301/323/5
f 301/323/5 297/319/5 298/324/5
f 300/322/6 295/319/6 302/325/6
f 302/325/6 295/319/6 297/321/6
o RightUpperLeg
usemtl c_348e40
f 303/326/1 304/327/1 305/328/1
f 305/328/1 304/327/1 306/329/1
f 307/326/3 304/327/3 308/328/3
f 308/328/3 304/327/3 303/329/3
f 304/326/5 307/327/5 306/328/5
f 306/328/5 307/327/5 309/329/5
f 307/326/4 308/327/4 309/328/4
f 309/328/4 308/327/4 310/329/4
f 310/326/6 305/327/6 309/328/6
f 309/328/6 305/327/6 306/329/6
f 308/326/2 303/327/2 310/328/2
f 310/328/2 303/327/2 305/329/2
f 311/330/1 312/290/1 313/331/1
f 313/331/1 312/290/1 314/292/1
f 315/289/3 312/290/3 2/332/3
f 2/332/3 312/290/3 311/333/3
f 312/289/5 315/290/5 314/291/5
f 314/291/5 315/290/5 316/292/5
f 315/330/4 2/290/4 316/331/4
f 316/331/4 2/290/4 317/292/4
f 317/289/6 313/290/6 316/332/6
f 316/332/6 313/290/6 314/333/6
f 2/289/2 311/290/2 317/291/2
f 317/291/2 311/290/2 313/292/2
f 318/334/1 311/335/1 319/336/1
f 319/336/1 311/335/1 320/337/1
f 2/338/3 311/335/3 10/339/3
f 10/339/3 311/335/3 318/337/3
f 311/338/5 2/335/5 320/339/5
f 320/339/5 2/335/5 321/337/5
f 2/334/4 10/335/4 321/336/4
f 321/336/4 10/335/4 322/337/4
f 322/338/6 319/335/6 321/339/6
f 321/339/6 319/335/6 320/337/6
f 10/338/2 318/335/2 322/339/2
f 322/339/2 318/335/2 319/337/2
o RightUpperArm
usemtl c_27462d
f 323/340/1 324/341/1 325/342/1
f 325/342/1 324/341/1 326/343/1
f 327/344/2 324/341/2 328/345/2
f 328/345/2 324/341/2 323/346/2
f 324/344/3 327/341/3 326/347/3
f 326/347/3 327/341/3 329/343/3
f 327/340/4 328/341/4 329/342/4
f 329/342/4 328/341/4 330/343/4
f 330/344/5 325/341/5 329/345/5
f 329/345/5 325/341/5 326/346/5
f 328/344/6 323/341/6 330/347/6
f 330/347/6 323/341/6 325/343/6
f 331/348/1 332/349/1 333/350/1
f 333/350/1 332/349/1 334/351/1
f 335/352/2 332/349/2 336/353/2
f 336/353/2 332/349/2 331/354/2
f 332/352/3 335/349/3 334/355/3
f 334/355/3 335/349/3 337/351/3
f 335/348/4 336/349/4 337/350/4
f 337/350/4 336/349/4 338/351/4
f 338/352/5 333/349/5 337/353/5
f 337/353/5 333/349/5 334/354/5
f 336/352/6 331/349/6 338/355/6
f 338/355/6 331/349/6 333/351/6
f 336/356/1 339/357/1 338/358/1
f 338/358/1 339/357/1 340/359/1
f 341/360/2 339/357/2 342/361/2
f 342/361/2 339/357/2 336/362/2
f 339/360/3 341/357/3 340/363/3
f 340/363/3 341/357/3 343/359/3
f 341/356/4 342/357/4 343/358/4
f 343/358/4 342/357/4 344/359/4
f 344/360/5 338/357/5 343/361/5
f 343/361/5 338/357/5 340/362/5
f 342/360/6 336/357/6 344/363/6
f 344/363/6 336/357/6 338/359/6
f 342/364/1 345/365/1 344/366/1
f 344/366/1 345/365/1 346/367/1
f 347/368/2 345/365/2 323/369/2
f 323/369/2 345/365/2 342/370/2
f 345/368/3 347/365/3 346/371/3
f 346/371/3 347/365/3 348/367/3
f 347/364/4 323/365/4 348/366/4
f 348/366/4 323/365/4 325/367/4
f 325/368/5 344/365/5 348/369/5
f 348/369/5 344/365/5 346/370/5
f 323/368/6 342/365/6 325/371/6
f 325/371/6 342/365/6 344/367/6
f 324/372/1 349/373/1 326/374/1
f 326/374/1 349/373/1 350/375/1
f 351/376/2 349/373/2 352/377/2
f 352/377/2 349/373/2 324/378/2
f 349/376/3 351/373/3 350/379/3
f 350/379/3 351/373/3 353/375/3
f 351/372/4 352/373/4 353/374/4
f 353/374/4 352/373/4 354/375/4
f 354/376/5 326/373/5 353/377/5
f 353/377/5 326/373/5 350/378/5
f 352/376/6 324/373/6 354/379/6
f 354/379/6 324/373/6 326/375/6
usemtl c_348e40
f 355/380/31 356/381/31 357/382/31
f 357/382/31 356/381/31 358/383/31
f 359/384/2 356/381/2 360/385/2
f 360/385/2 356/381/2 355/383/2
f 356/384/32 359/381/32 358/385/32
f 358/385/32 359/381/32 361/383/32
f 359/380/33 360/381/33 361/382/33
f 361/382/33 360/381/33 362/383/33
f 362/384/5 357/381/5 361/385/5
f 361/385/5 357/381/5 358/383/5
f 360/384/34 355/381/34 362/385/34
f 362/385/34 355/381/34 357/383/34
f 363/386/1 364/387/1 365/388/1
f 365/388/1 364/387/1 366/389/1
f 367/390/2 364/387/2 368/391/2
f 368/391/2 364/387/2 363/389/2
f 364/390/3 367/387/3 366/391/3
f 366/391/3 367/387/3 369/389/3
f 367/386/4 368/387/4 369/388/4
f 369/388/4 368/387/4 370/389/4
f 370/390/5 365/387/5 369/391/5
f 369/391/5 365/387/5 366/389/5
f 368/390/6 363/387/6 370/391/6
f 370/391/6 363/387/6 365/389/6
f 371/392/35 372/393/35 373/394/35
f 373/394/35 372/393/35 374/395/35
f 375/396/2 372/393/2 376/397/2
f 376/397/2 372/393/2 371/395/2
f 372/396/36 375/393/36 374/397/36
f 374/397/36 375/393/36 377/395/36
f 375/392/37 376/393/37 377/394/37
f 377/394/37 376/393/37 378/395/37
f 378/396/5 373/393/5 377/397/5
f 377/397/5 373/393/5 374/395/5
f 376/396/38 371/393/38 378/397/38
f 378/397/38 371/393/38 373/395/38
