# Roblox asset pack: dodo_bird (creatures), from the Studio model "Dodo Bird". Exported with Export Selection, split by tools/build_creatures.py: one object per rigid body. Units: studs. +Y up, front faces -Z, pivot (bottom centre) at the origin.
mtllib dodo_bird.mtl

v -0.09000 1.68000 0.31000
v -0.22600 1.68000 -0.22000
v -0.26900 1.97000 -0.12000
v -0.17400 1.97000 0.25000
v -0.19000 1.20000 0.12000
v -0.10800 1.20000 0.44000
v -0.56100 1.97000 -0.05000
v -0.46600 1.97000 0.32000
v -0.50900 1.68000 0.42000
v -0.43000 1.20000 0.53000
v -0.64500 1.68000 -0.12000
v -0.51200 1.20000 0.20000
v 0.85800 1.95000 -0.23000
v 0.83700 1.96000 0.12000
v 0.84000 1.84000 -0.06000
v 0.83200 1.84000 0.13000
v 0.83300 1.88000 0.18000
v 0.85800 2.18000 -0.29000
v 0.83600 1.98000 0.25000
v 0.83400 1.91000 0.22000
v 0.84300 2.06000 0.22000
v 0.84900 2.23000 0.16000
v 0.84400 2.11000 0.25000
v 0.84400 2.31000 0.16000
v 0.82000 2.52000 -0.02000
v 0.83700 2.37000 -0.54000
v 0.85900 2.17000 -0.39000
v 0.78200 2.62000 -0.51000
v 0.75700 2.75000 -0.23000
v 0.80700 2.61000 0.00000
v 0.62300 2.60000 -0.51000
v 0.59800 2.73000 -0.23000
v 0.64800 2.59000 0.00000
v 0.67800 1.96000 0.25000
v 0.67500 1.90000 0.22000
v 0.68500 2.09000 0.25000
v 0.68400 2.04000 0.22000
v 0.68500 2.29000 0.16000
v 0.66100 2.51000 -0.02000
v 0.69000 2.21000 0.16000
v 0.67900 1.94000 0.12000
v 0.67400 1.86000 0.18000
v 0.68100 1.82000 -0.06000
v 0.69900 1.93000 -0.23000
v 0.67300 1.82000 0.14000
v 0.69900 2.16000 -0.29000
v 0.67800 2.36000 -0.54000
v 0.70000 2.15000 -0.39000
v 0.60300 2.27000 -0.05000
v 0.43900 1.43000 0.70000
v 0.60300 1.55000 -0.43000
v 0.47400 3.01000 -0.63000
v 0.60300 2.98000 0.33000
v 0.47400 2.76000 -1.00000
v 0.47400 2.51000 -1.36000
v 0.43900 1.95000 0.97000
v 0.43900 2.47000 1.25000
v 0.16600 1.72000 1.51000
v 0.16600 2.17000 1.56000
v 0.16600 1.95000 1.53000
v -0.60300 2.98000 0.33000
v -0.47400 3.01000 -0.63000
v -0.43900 2.47000 1.25000
v -0.16600 2.17000 1.56000
v -0.16600 1.95000 1.53000
v -0.16600 1.72000 1.51000
v -0.43900 1.95000 0.97000
v -0.60300 2.27000 -0.05000
v -0.43900 1.43000 0.70000
v -0.60300 1.55000 -0.43000
v -0.47400 2.76000 -1.00000
v -0.47400 2.51000 -1.36000
v 0.68700 2.17000 0.41000
v 0.68700 2.81000 -0.47000
v 0.68700 2.77000 0.33000
v 0.68700 2.38000 -0.74000
v 0.68700 1.85000 -0.57000
v 0.68700 1.65000 0.24000
v 0.63100 2.16000 0.19000
v 0.50500 2.25000 0.82000
v 0.46900 2.02000 1.04000
v 0.63100 2.56000 0.27000
v 0.50500 1.79000 0.82000
v 0.63100 1.76000 0.10000
v -0.68700 2.77000 0.33000
v -0.68700 2.81000 -0.47000
v -0.50500 2.25000 0.82000
v -0.63100 2.56000 0.27000
v -0.46900 2.02000 1.04000
v -0.50500 1.79000 0.82000
v -0.68700 2.17000 0.41000
v -0.68700 1.65000 0.24000
v -0.68700 2.38000 -0.74000
v -0.68700 1.85000 -0.57000
v -0.63100 2.16000 0.19000
v -0.63100 1.76000 0.10000
v 0.10100 3.00000 -0.61000
v 0.07500 3.04000 -0.28000
v 0.10100 2.84000 -0.50000
v 0.07500 3.18000 -0.31000
v 0.01400 3.07000 -0.03000
v 0.01400 3.05000 -0.03000
v -0.07100 3.18000 -0.31000
v -0.09600 3.00000 -0.61000
v -0.01000 3.07000 -0.03000
v -0.01000 3.05000 -0.03000
v -0.07100 3.04000 -0.28000
v -0.09600 2.84000 -0.50000
v 0.68600 0.03000 -0.07000
v 0.69500 0.03000 -0.04000
v 0.67600 0.00000 -0.07000
v 0.68500 0.00000 -0.04000
v 0.31900 0.04000 -0.09000
v 0.20700 0.04000 -0.20000
v 0.30600 0.10000 -0.10000
v 0.21600 0.00000 -0.19000
v 0.34300 0.03000 0.24000
v 0.39900 0.06000 0.10000
v 0.39200 0.11000 0.13000
v 0.34600 0.01000 0.23000
v 0.44600 0.06000 -0.03000
v 0.44400 0.13000 -0.06000
v 0.47100 0.12000 -0.03000
v 0.42700 0.22000 0.04000
v 0.50400 0.03000 -0.38000
v 0.45100 0.05000 -0.10000
v 0.50300 0.01000 -0.38000
v 0.40800 0.18000 0.12000
v 0.38300 0.95000 0.37000
v 0.34300 0.95000 0.52000
v 0.41300 1.05000 0.31000
v 0.39900 1.30000 0.43000
v 0.45100 1.21000 0.23000
v 0.49000 0.12000 0.04000
v 0.23100 1.21000 0.17000
v 0.17900 1.30000 0.38000
v 0.34100 0.22000 0.02000
v 0.37600 0.13000 -0.08000
v 0.33300 0.11000 0.11000
v 0.32000 0.03000 0.24000
v 0.17600 0.04000 -0.17000
v 0.29400 0.12000 -0.02000
v 0.34600 0.12000 -0.06000
v 0.52500 0.10000 -0.04000
v 0.47700 0.03000 -0.39000
v 0.18600 0.95000 0.48000
v 0.32300 0.01000 0.23000
v 0.47100 0.06000 0.04000
v 0.32100 0.18000 0.10000
v 0.34000 0.06000 0.08000
v 0.30900 0.06000 0.00000
v 0.22800 1.05000 0.26000
v 0.22600 0.95000 0.33000
v 0.47600 0.01000 -0.38000
v 0.36700 0.06000 -0.05000
v 0.18500 0.00000 -0.16000
v 0.50800 0.05000 -0.03000
v 0.27000 3.63000 -0.89000
v 0.34400 3.23000 -1.03000
v 0.27000 3.59000 -1.12000
v 0.34400 3.32000 -1.28000
v 0.34400 3.15000 -0.78000
v 0.27000 3.68000 -0.67000
v -0.34400 3.15000 -0.78000
v -0.27000 3.68000 -0.67000
v -0.27000 3.63000 -0.89000
v -0.36300 3.82000 -0.91000
v -0.36300 3.96000 -0.67000
v -0.36300 3.69000 -1.15000
v -0.27000 3.59000 -1.12000
v -0.34400 3.23000 -1.03000
v -0.34400 3.32000 -1.28000
v 0.10100 2.99000 -0.76000
v 0.07500 3.25000 -0.54000
v 0.10100 2.95000 -0.57000
v 0.07500 3.33000 -0.66000
v 0.01400 3.44000 -0.38000
v 0.01400 3.42000 -0.36000
v -0.07100 3.33000 -0.66000
v -0.09600 2.99000 -0.76000
v -0.01000 3.44000 -0.38000
v -0.01000 3.42000 -0.36000
v -0.07100 3.25000 -0.54000
v -0.09600 2.95000 -0.57000
v -0.27000 3.58000 -1.12000
v 0.27000 3.58000 -1.12000
v 0.34100 1.55000 1.87000
v 0.33100 1.56000 1.78000
v 0.36300 1.63000 1.84000
v 0.34800 1.58000 1.89000
v 0.32700 1.85000 1.64000
v 0.41900 1.82000 1.83000
v 0.36000 2.00000 1.69000
v 0.46100 2.00000 1.90000
v 0.34900 2.08000 1.67000
v 0.40700 2.27000 1.79000
v 0.26000 2.28000 1.54000
v 0.28300 2.10000 1.58000
v 0.16800 2.14000 1.40000
v 0.20300 2.03000 1.48000
v 0.11700 2.06000 1.34000
v 0.14500 1.98000 1.39000
v 0.02300 1.47000 2.06000
v 0.07000 1.59000 2.03000
v 0.02300 1.52000 2.08000
v 0.07000 1.49000 1.93000
v 0.14700 1.90000 1.76000
v 0.14700 1.86000 2.05000
v 0.15900 2.10000 1.84000
v 0.15900 2.10000 2.16000
v 0.15800 2.22000 1.81000
v 0.15800 2.47000 1.99000
v 0.12900 2.49000 1.59000
v 0.12900 2.24000 1.66000
v 0.09500 2.30000 1.36000
v 0.09500 2.14000 1.47000
v 0.07400 2.07000 1.33000
v 0.07400 2.19000 1.25000
v -0.13700 1.85000 1.74000
v -0.27200 1.63000 1.89000
v -0.24100 1.56000 1.82000
v -0.22900 1.82000 1.92000
v -0.15500 2.00000 1.79000
v -0.25600 2.00000 2.00000
v -0.14400 2.08000 1.77000
v -0.20300 2.27000 1.89000
v -0.09400 2.28000 1.62000
v -0.11600 2.10000 1.66000
v -0.04500 2.14000 1.46000
v -0.08000 2.03000 1.54000
v -0.02200 2.06000 1.38000
v -0.04900 1.98000 1.44000
v -0.15800 2.47000 1.99000
v -0.12900 2.49000 1.59000
v -0.09500 2.30000 1.36000
v -0.07400 2.19000 1.25000
v -0.26000 2.28000 1.54000
v -0.40700 2.27000 1.79000
v -0.16800 2.14000 1.40000
v -0.11700 2.06000 1.34000
v 0.09400 2.28000 1.62000
v 0.20300 2.27000 1.89000
v 0.04500 2.14000 1.46000
v 0.02200 2.06000 1.38000
v -0.02300 1.47000 2.06000
v -0.02300 1.52000 2.08000
v -0.34800 1.58000 1.89000
v -0.34100 1.55000 1.87000
v -0.31800 1.58000 1.90000
v -0.31100 1.55000 1.89000
v 0.31800 1.58000 1.90000
v 0.31100 1.55000 1.89000
v -0.07000 1.59000 2.03000
v -0.14700 1.86000 2.05000
v -0.15900 2.10000 2.16000
v -0.36300 1.63000 1.84000
v -0.41900 1.82000 1.83000
v -0.46100 2.00000 1.90000
v 0.27200 1.63000 1.89000
v 0.22900 1.82000 1.92000
v 0.25600 2.00000 2.00000
v 0.24100 1.56000 1.82000
v -0.33100 1.56000 1.78000
v -0.32700 1.85000 1.64000
v -0.36000 2.00000 1.69000
v -0.34900 2.08000 1.67000
v -0.28300 2.10000 1.58000
v -0.20300 2.03000 1.48000
v -0.14500 1.98000 1.39000
v -0.07000 1.49000 1.93000
v -0.14700 1.90000 1.76000
v -0.15900 2.10000 1.84000
v -0.15800 2.22000 1.81000
v -0.12900 2.24000 1.66000
v -0.09500 2.14000 1.47000
v -0.07400 2.07000 1.33000
v 0.13700 1.85000 1.74000
v 0.15500 2.00000 1.79000
v 0.14400 2.08000 1.77000
v 0.11600 2.10000 1.66000
v 0.08000 2.03000 1.54000
v 0.04900 1.98000 1.44000
v -0.69900 1.93000 -0.23000
v -0.67900 1.94000 0.12000
v -0.68100 1.82000 -0.06000
v -0.67300 1.82000 0.14000
v -0.67400 1.86000 0.18000
v -0.69900 2.16000 -0.29000
v -0.67800 1.96000 0.25000
v -0.67500 1.90000 0.22000
v -0.68400 2.04000 0.22000
v -0.69000 2.21000 0.16000
v -0.68500 2.09000 0.25000
v -0.68500 2.29000 0.16000
v -0.66100 2.51000 -0.02000
v -0.67800 2.36000 -0.54000
v -0.70000 2.15000 -0.39000
v -0.62300 2.60000 -0.51000
v -0.59800 2.73000 -0.23000
v -0.64800 2.59000 0.00000
v -0.75700 2.75000 -0.23000
v -0.78200 2.62000 -0.51000
v -0.80700 2.61000 0.00000
v -0.83400 1.91000 0.22000
v -0.83600 1.98000 0.25000
v -0.84300 2.06000 0.22000
v -0.84400 2.11000 0.25000
v -0.84900 2.23000 0.16000
v -0.84400 2.31000 0.16000
v -0.82000 2.52000 -0.02000
v -0.83300 1.88000 0.18000
v -0.83700 1.96000 0.12000
v -0.84000 1.84000 -0.06000
v -0.85800 1.95000 -0.23000
v -0.83200 1.84000 0.13000
v -0.85800 2.18000 -0.29000
v -0.83700 2.37000 -0.54000
v -0.85900 2.17000 -0.39000
v -0.34000 0.06000 0.08000
v -0.30900 0.06000 0.00000
v -0.33300 0.11000 0.11000
v -0.29400 0.12000 -0.02000
v -0.32100 0.18000 0.10000
v -0.32300 0.01000 0.23000
v -0.32000 0.03000 0.24000
v -0.17900 1.30000 0.38000
v -0.22800 1.05000 0.26000
v -0.23100 1.21000 0.17000
v -0.18600 0.95000 0.48000
v -0.22600 0.95000 0.33000
v -0.34100 0.22000 0.02000
v -0.36700 0.06000 -0.05000
v -0.47600 0.01000 -0.38000
v -0.37600 0.13000 -0.08000
v -0.47700 0.03000 -0.39000
v -0.17600 0.04000 -0.17000
v -0.18500 0.00000 -0.16000
v -0.39900 1.30000 0.43000
v -0.45100 1.21000 0.23000
v -0.44400 0.13000 -0.06000
v -0.42700 0.22000 0.04000
v -0.34300 0.03000 0.24000
v -0.39200 0.11000 0.13000
v -0.34600 0.12000 -0.06000
v -0.30600 0.10000 -0.10000
v -0.20700 0.04000 -0.20000
v -0.52500 0.10000 -0.04000
v -0.69500 0.03000 -0.04000
v -0.49000 0.12000 0.04000
v -0.68600 0.03000 -0.07000
v -0.47100 0.12000 -0.03000
v -0.50400 0.03000 -0.38000
v -0.34300 0.95000 0.52000
v -0.34600 0.01000 0.23000
v -0.47100 0.06000 0.04000
v -0.39900 0.06000 0.10000
v -0.40800 0.18000 0.12000
v -0.68500 0.00000 -0.04000
v -0.67600 0.00000 -0.07000
v -0.21600 0.00000 -0.19000
v -0.31900 0.04000 -0.09000
v -0.44600 0.06000 -0.03000
v -0.50300 0.01000 -0.38000
v -0.45100 0.05000 -0.10000
v -0.41300 1.05000 0.31000
v -0.38300 0.95000 0.37000
v -0.50800 0.05000 -0.03000
v 0.64500 1.68000 -0.12000
v 0.46600 1.97000 0.32000
v 0.50900 1.68000 0.42000
v 0.56100 1.97000 -0.05000
v 0.51200 1.20000 0.20000
v 0.43000 1.20000 0.53000
v 0.17400 1.97000 0.25000
v 0.26900 1.97000 -0.12000
v 0.09000 1.68000 0.31000
v 0.10800 1.20000 0.44000
v 0.22600 1.68000 -0.22000
v 0.19000 1.20000 0.12000
v 0.36300 3.69000 -1.15000
v 0.36300 3.82000 -0.91000
v 0.36300 3.96000 -0.67000
v 0.34600 4.32000 -1.00000
v 0.34600 4.01000 -1.14000
v 0.34600 3.69000 -1.29000
v 0.29800 4.30000 -1.29000
v -0.34600 4.32000 -1.00000
v -0.29800 4.30000 -1.29000
v -0.34600 4.01000 -1.14000
v -0.34600 3.69000 -1.29000
v 0.12100 3.50000 -2.00000
v 0.05000 3.53000 -2.14000
v 0.12100 3.56000 -2.02000
v 0.05000 3.54000 -2.14000
v 0.16000 3.61000 -1.89000
v 0.16000 3.53000 -1.82000
v 0.12100 3.79000 -2.07000
v 0.16000 3.62000 -1.89000
v 0.12100 3.58000 -2.02000
v 0.16000 3.91000 -1.91000
v 0.05000 3.63000 -2.16000
v 0.05000 3.56000 -2.14000
v -0.16000 3.91000 -1.91000
v -0.12100 3.79000 -2.07000
v -0.12100 3.56000 -2.02000
v -0.05000 3.54000 -2.14000
v -0.16000 3.61000 -1.89000
v -0.16000 3.62000 -1.89000
v -0.12100 3.50000 -2.00000
v -0.16000 3.53000 -1.82000
v -0.05000 3.53000 -2.14000
v -0.12100 3.58000 -2.02000
v -0.05000 3.63000 -2.16000
v -0.05000 3.56000 -2.14000
v 0.29000 3.93000 -1.24000
v 0.28600 4.03000 -1.27000
v 0.29000 4.13000 -1.24000
v 0.28600 4.06000 -1.27000
v 0.28600 4.09000 -1.27000
v 0.28600 4.13000 -1.27000
v 0.28600 4.00000 -1.27000
v 0.28600 3.96000 -1.27000
v 0.28100 3.96000 -1.31000
v 0.27300 3.93000 -1.37000
v 0.27700 3.96000 -1.34000
v 0.27300 3.96000 -1.37000
v -0.29000 4.13000 -1.24000
v -0.28600 4.03000 -1.27000
v -0.29000 3.93000 -1.24000
v -0.28600 4.06000 -1.27000
v -0.28600 4.09000 -1.27000
v -0.28600 4.13000 -1.27000
v -0.28600 4.00000 -1.27000
v -0.28600 3.96000 -1.27000
v -0.28100 3.96000 -1.31000
v -0.27300 3.93000 -1.37000
v -0.27700 3.96000 -1.34000
v -0.27300 3.96000 -1.37000
v 0.28100 4.13000 -1.31000
v 0.27300 4.00000 -1.37000
v 0.27300 4.13000 -1.37000
v 0.28100 4.00000 -1.31000
v -0.28100 4.00000 -1.31000
v -0.28100 4.13000 -1.31000
v -0.27300 4.13000 -1.37000
v -0.27300 4.00000 -1.37000
v 0.10100 4.16000 -0.91000
v 0.07500 4.01000 -0.61000
v 0.10100 3.96000 -0.90000
v 0.07500 4.15000 -0.56000
v 0.01400 3.91000 -0.38000
v 0.01400 3.89000 -0.39000
v -0.07100 4.15000 -0.56000
v -0.09600 4.16000 -0.91000
v -0.01000 3.91000 -0.38000
v -0.01000 3.89000 -0.39000
v -0.07100 4.01000 -0.61000
v -0.09600 3.96000 -0.90000
v 0.10100 4.24000 -1.03000
v 0.07500 4.33000 -0.71000
v 0.10100 4.10000 -0.89000
v 0.07500 4.46000 -0.76000
v 0.01400 4.40000 -0.47000
v 0.01400 4.38000 -0.47000
v -0.07100 4.46000 -0.76000
v -0.09600 4.24000 -1.03000
v -0.01000 4.40000 -0.47000
v -0.01000 4.38000 -0.47000
v -0.07100 4.33000 -0.71000
v -0.09600 4.10000 -0.89000
v 0.16700 3.59000 -1.76000
v 0.16700 3.66000 -1.78000
v 0.18500 3.73000 -1.51000
v 0.18500 3.65000 -1.49000
v 0.22500 3.80000 -1.24000
v 0.22500 3.69000 -1.21000
v 0.18500 4.01000 -1.57000
v 0.22500 3.81000 -1.24000
v 0.18500 3.75000 -1.51000
v 0.22500 4.13000 -1.32000
v 0.16700 3.91000 -1.83000
v 0.16700 3.68000 -1.78000
v -0.18500 4.01000 -1.57000
v -0.22500 4.13000 -1.32000
v -0.16700 3.91000 -1.83000
v -0.16700 3.66000 -1.78000
v -0.22500 3.80000 -1.24000
v -0.18500 3.73000 -1.51000
v -0.22500 3.81000 -1.24000
v -0.22500 3.69000 -1.21000
v -0.18500 3.65000 -1.49000
v -0.16700 3.59000 -1.76000
v -0.18500 3.75000 -1.51000
v -0.16700 3.68000 -1.78000
v 0.31600 4.13000 -1.24000
v 0.28200 4.13000 -1.37000
v 0.31900 4.02000 -1.24000
v 0.25700 4.05000 -1.47000
v 0.28500 4.04000 -1.37000
v 0.31200 3.93000 -1.24000
v 0.27600 3.93000 -1.37000
v 0.25700 3.71000 -1.37000
v -0.27600 3.93000 -1.37000
v -0.31200 3.93000 -1.24000
v -0.28500 4.04000 -1.37000
v -0.28200 4.13000 -1.37000
v -0.25700 3.71000 -1.37000
v -0.25700 4.05000 -1.47000
v -0.31600 4.13000 -1.24000
v -0.31900 4.02000 -1.24000
v 0.28100 4.06000 -1.31000
v 0.28100 4.09000 -1.31000
v 0.28100 4.03000 -1.31000
v 0.27700 4.00000 -1.34000
v -0.28100 4.03000 -1.31000
v -0.28100 4.06000 -1.31000
v -0.28100 4.09000 -1.31000
v -0.27700 4.00000 -1.34000
vt 51.97980 -60.98800
vt 52.04680 -60.98800
vt 52.03460 -60.95150
vt 51.98800 -60.95150
vt 52.00360 -61.04850
vt 51.96350 -61.04850
vt 51.97580 -60.98800
vt 52.02420 -61.02530
vt 52.01230 -60.97870
vt 51.98770 -61.03460
vt 51.98240 -60.98800
vt 52.02420 -60.95150
vt 51.98770 -60.95150
vt 52.03470 -60.98800
vt 51.99220 -61.04850
vt 52.03240 -61.04850
vt 51.96660 -60.98800
vt 52.03350 -60.98800
vt 52.02130 -60.95150
vt 51.97470 -60.95150
vt 52.00660 -61.04850
vt 52.04680 -61.04850
vt 52.03240 -60.96350
vt 51.98200 -60.99340
vt 52.02210 -61.00360
vt 51.99220 -60.95320
vt 52.01800 -61.04850
vt 51.97790 -61.04850
vt 16.01160 -11.04200
vt 15.96720 -11.04020
vt 15.98930 -11.05590
vt 15.96540 -11.05570
vt 15.96020 -11.05080
vt 16.01870 -11.01310
vt 15.95070 -11.03840
vt 15.95520 -11.04620
vt 15.95450 -11.02800
vt 15.96240 -11.00710
vt 15.95070 -11.02170
vt 15.96220 -10.99720
vt 15.98510 -10.97010
vt 16.04940 -10.98870
vt 16.03100 -11.01410
vt 16.04620 -10.95800
vt 16.01160 -10.94210
vt 15.98260 -10.95960
vt 15.99650 -11.01160
vt 16.01320 -11.04610
vt 16.01630 -11.01160
vt 15.99330 -11.04620
vt 15.99020 -10.98260
vt 16.01010 -10.98250
vt 15.99370 -11.04040
vt 16.01320 -11.04620
vt 16.01350 -11.03840
vt 15.99340 -11.04830
vt 15.99460 -11.02370
vt 16.01430 -11.02800
vt 16.01440 -11.02170
vt 15.99450 -11.03000
vt 15.99460 -10.99920
vt 16.01510 -11.00710
vt 16.01450 -10.99720
vt 16.01150 -10.97010
vt 15.99160 -10.97210
vt 15.99530 -11.00910
vt 15.99380 -11.04220
vt 16.01310 -11.05080
vt 16.01360 -11.04020
vt 15.99330 -11.05290
vt 16.00980 -10.95960
vt 15.98990 -10.96160
vt 16.01070 -11.05790
vt 16.03280 -11.04220
vt 15.98840 -11.04400
vt 16.03460 -11.05770
vt 16.03990 -11.05290
vt 15.98130 -11.01510
vt 16.04490 -11.04830
vt 16.04940 -11.04040
vt 16.04550 -11.03000
vt 16.03770 -11.00910
vt 16.04940 -11.02370
vt 16.03790 -10.99920
vt 16.01490 -10.97210
vt 15.95070 -10.99070
vt 15.96910 -11.01610
vt 15.95390 -10.96000
vt 15.98840 -10.94410
vt 16.01750 -10.96160
vt 15.99410 -10.98930
vt 16.01390 -10.98930
vt 16.01300 -10.96540
vt 15.99640 -11.01160
vt 15.99310 -10.96540
vt 15.99330 -10.96010
vt 16.01310 -10.96020
vt 16.01620 -11.01160
vt 15.99380 -10.96720
vt 16.01360 -10.96720
vt 16.01320 -10.95520
vt 15.99340 -10.95510
vt 15.99650 -11.03090
vt 16.01630 -11.03100
vt 16.01620 -11.01870
vt 15.99640 -11.01870
vt 15.99330 -10.95800
vt 16.00630 -10.99070
vt 16.01320 -10.96000
vt 15.98650 -10.98870
vt 16.00350 -11.01610
vt 15.98370 -11.01410
vt 16.00360 -11.01510
vt 15.98380 -11.04200
vt 16.00360 -11.04400
vt 15.98380 -11.01310
vt 28.01890 -50.99350
vt 27.92500 -51.09870
vt 28.06630 -51.08290
vt 28.09110 -50.90130
vt 27.97160 -50.90410
vt 28.13680 -50.93230
vt 28.18240 -50.96340
vt 27.89050 -51.03360
vt 27.85610 -50.96850
vt 27.82320 -51.06160
vt 27.81760 -51.00620
vt 27.82040 -51.03390
vt 27.92460 -50.97160
vt 27.94070 -51.09110
vt 28.07540 -50.97160
vt 28.05930 -51.09110
vt 28.05490 -50.85610
vt 27.94510 -50.85610
vt 28.02080 -50.81760
vt 27.97920 -50.81760
vt 27.97920 -51.00620
vt 28.02080 -51.03390
vt 28.02080 -51.00620
vt 27.97920 -51.03390
vt 28.02080 -51.06160
vt 27.97920 -51.06160
vt 28.10950 -51.03360
vt 27.98110 -50.99350
vt 28.07500 -51.09870
vt 28.17680 -51.06160
vt 28.17960 -51.03390
vt 28.18240 -51.00620
vt 28.14390 -50.96850
vt 28.02840 -50.90410
vt 27.90890 -50.90130
vt 27.93370 -51.08290
vt 27.86320 -50.93230
vt 27.81760 -50.96340
vt 7.96780 -43.00760
vt 8.07730 -42.92740
vt 7.97740 -42.93290
vt 8.11092 -42.98130
vt 8.08956 -43.04850
vt 7.98901 -43.07260
vt 7.99545 -43.00890
vt 7.91673 -42.99780
vt 7.88909 -43.02650
vt 7.98440 -42.95890
vt 7.91673 -43.05520
vt 8.00650 -43.05890
vt 7.91409 -42.97740
vt 7.91409 -43.07730
vt 8.08591 -42.97740
vt 8.08591 -43.07730
vt 8.06310 -42.91670
vt 7.93690 -42.91670
vt 7.92119 -42.98440
vt 8.07881 -42.98440
vt 7.94143 -43.02650
vt 8.06310 -43.05520
vt 8.05857 -43.02650
vt 7.93690 -43.05520
vt 7.93690 -42.99780
vt 8.06310 -42.99780
vt 7.91409 -42.93290
vt 8.08591 -43.00760
vt 8.08591 -42.93290
vt 7.91409 -43.00760
vt 8.08591 -43.07260
vt 7.91409 -43.07260
vt 7.92270 -42.92740
vt 8.03220 -43.00760
vt 8.02260 -42.93290
vt 7.88909 -42.98130
vt 7.91044 -43.04850
vt 8.01099 -43.07260
vt 8.00455 -43.00890
vt 8.11092 -43.02650
vt 8.08327 -42.99780
vt 8.01560 -42.95890
vt 8.08327 -43.05520
vt 7.99350 -43.05890
vt 7.91409 -43.08960
vt 8.08591 -43.08960
vt 8.08591 -42.98900
vt 7.91409 -42.98900
vt 7.92119 -43.00650
vt 8.07881 -43.00650
vt 7.91409 -42.92740
vt 8.08591 -42.98130
vt 8.08591 -42.92740
vt 7.91409 -42.98130
vt 8.08591 -43.04850
vt 7.91409 -43.04850
vt 8.07881 -42.95890
vt 7.92119 -43.00890
vt 8.07881 -43.00890
vt 7.92119 -42.95890
vt 7.92119 -43.05890
vt 8.07881 -43.05890
vt 6.03521 -23.00550
vt 5.99473 -22.99400
vt 6.01766 -23.02290
vt 6.00168 -22.97710
vt 5.96479 -22.98450
vt 5.96482 -22.98750
vt 5.99086 -23.00170
vt 5.98767 -23.03520
vt 6.00914 -23.00170
vt 6.01233 -23.03520
vt 5.99850 -22.96480
vt 6.00150 -22.96480
vt 5.99850 -22.98450
vt 5.99850 -22.98750
vt 6.00150 -22.98450
vt 6.00150 -22.98750
vt 5.99086 -22.99400
vt 5.98767 -23.02290
vt 6.00914 -22.99400
vt 6.01233 -23.02290
vt 5.98234 -23.02290
vt 6.00527 -22.99400
vt 5.96479 -23.00550
vt 5.99832 -22.97710
vt 6.03521 -22.98450
vt 6.03518 -22.98750
vt 6.01233 -23.01770
vt 5.98767 -23.01770
vt 6.00914 -22.99470
vt 5.99086 -22.99470
vt 6.05487 -28.92220
vt 5.92461 -29.06350
vt 6.07539 -29.06350
vt 5.94513 -28.92220
vt 6.02076 -28.82040
vt 5.97924 -28.82040
vt 6.05931 -28.93230
vt 5.94069 -28.93230
vt 5.92461 -29.05190
vt 6.07539 -29.05190
vt 60.01720 -1.07687
vt 60.01350 -1.07687
vt 60.01690 -1.08060
vt 60.01310 -1.08060
vt 60.01900 -1.07600
vt 60.03310 -1.07633
vt 60.02090 -1.06880
vt 60.03180 -1.08115
vt 59.97810 -1.07742
vt 59.99580 -1.07393
vt 59.99250 -1.06710
vt 59.97940 -1.08005
vt 60.01230 -1.07340
vt 60.01580 -1.06469
vt 60.01160 -1.06569
vt 60.00280 -1.05367
vt 60.05610 -1.07703
vt 60.02110 -1.07442
vt 60.05530 -1.08044
vt 59.99300 -1.05854
vt 59.96260 -0.96222
vt 59.94310 -0.96294
vt 59.96980 -0.94981
vt 59.95400 -0.91885
vt 59.97950 -0.92941
vt 60.00350 -1.06569
vt 60.00450 -0.95397
vt 60.02550 -0.98653
vt 60.03200 -0.96098
vt 59.99800 -0.97952
vt 60.00100 -1.00277
vt 59.99900 -1.01577
vt 60.01180 -1.00553
vt 60.00740 -1.01791
vt 60.01280 -0.99442
vt 60.01440 -0.97884
vt 60.01150 -0.97812
vt 60.00540 -0.99253
vt 60.03240 -1.02972
vt 60.01620 -1.02090
vt 60.02860 -1.03309
vt 60.01770 -1.01019
vt 60.01120 -1.01591
vt 59.96760 -1.01346
vt 59.98880 -1.01299
vt 59.99310 -1.00353
vt 59.99550 -1.01157
vt 59.96870 -1.01723
vt 59.99140 -1.05609
vt 59.99470 -1.05695
vt 59.96800 -0.91885
vt 59.98850 -0.96294
vt 59.99550 -0.91885
vt 59.96890 -0.96294
vt 59.98850 -1.07742
vt 59.98600 -1.08005
vt 59.98880 -1.08005
vt 59.98560 -1.07742
vt 60.00440 -1.07367
vt 59.99460 -1.06710
vt 59.99540 -1.07393
vt 59.98570 -1.05854
vt 59.99650 -1.05854
vt 60.00690 -1.06569
vt 59.98720 -1.06710
vt 60.03120 -1.08060
vt 60.03240 -1.07687
vt 60.00230 -1.07393
vt 60.00560 -1.06710
vt 59.99200 -1.07389
vt 59.98980 -1.06571
vt 60.00420 -1.05854
vt 60.01990 -1.08005
vt 60.02120 -1.07742
vt 60.05200 -0.96294
vt 60.02430 -0.94981
vt 60.03240 -0.96222
vt 60.03900 -0.91885
vt 60.01350 -0.92941
vt 59.99450 -1.05367
vt 59.94380 -1.08044
vt 59.98210 -1.06469
vt 59.94310 -1.07703
vt 59.98520 -1.07351
vt 59.97030 -1.07633
vt 59.97160 -1.08115
vt 59.99150 -1.01484
vt 59.98800 -0.99771
vt 59.98420 -1.00798
vt 59.99540 -0.99583
vt 60.00130 -1.01233
vt 60.00440 -1.00279
vt 60.00190 -1.02112
vt 60.00510 -1.05617
vt 60.00840 -1.05531
vt 59.98880 -0.97938
vt 59.98600 -0.98011
vt 60.03120 -1.01312
vt 60.00910 -1.01235
vt 60.03010 -1.01688
vt 59.96870 -1.02843
vt 59.98550 -1.01897
vt 59.97260 -1.03180
vt 59.99470 -1.07703
vt 59.99160 -1.08044
vt 59.99490 -1.08044
vt 59.99140 -1.07703
vt 60.03130 -1.08115
vt 60.03240 -1.07633
vt 60.02860 -1.07633
vt 60.02740 -1.08115
vt 60.00740 -1.06469
vt 60.00850 -1.07351
vt 60.01120 -1.06571
vt 59.98880 -1.06849
vt 59.99090 -1.07541
vt 59.99550 -1.06569
vt 59.99870 -1.07340
vt 60.01620 -1.06880
vt 60.01450 -1.07600
vt 59.96870 -1.07687
vt 59.96990 -1.08060
vt 60.01180 -1.05367
vt 60.01770 -1.06571
vt 60.02610 -0.96222
vt 60.00650 -0.96222
vt 60.00100 -1.05367
vt 60.02550 -0.92941
vt 60.00280 -0.94981
vt 60.02600 -0.94981
vt 59.99800 -0.92941
vt 39.98730 -40.95020
vt 40.00440 -41.00030
vt 40.01540 -40.95620
vt 40.03600 -40.98990
vt 39.97280 -41.01080
vt 39.95930 -40.94420
vt 40.00000 -41.05960
vt 40.04560 -41.09060
vt 39.95440 -41.02860
vt 40.05930 -40.95440
vt 39.94070 -40.95440
vt 39.95700 -40.97280
vt 40.04300 -40.97280
vt 40.03380 -40.94420
vt 39.96620 -40.94420
vt 39.95700 -41.01080
vt 40.04300 -41.01080
vt 40.01270 -40.95020
vt 40.02720 -41.01080
vt 40.04070 -40.94420
vt 40.01120 -40.92640
vt 40.04130 -40.90940
vt 39.98110 -40.94340
vt 39.98460 -40.95620
vt 39.99560 -41.00030
vt 39.96400 -40.98990
vt 39.95440 -41.09060
vt 40.04560 -41.02860
vt 14.03520 -55.00550
vt 13.99470 -54.99400
vt 14.01770 -55.02290
vt 14.00170 -54.97710
vt 13.96480 -54.98450
vt 13.96480 -54.98750
vt 13.99090 -55.00170
vt 13.98770 -55.03520
vt 14.00910 -55.00170
vt 14.01230 -55.03520
vt 13.99850 -54.96480
vt 14.00150 -54.96480
vt 13.99850 -54.98450
vt 13.99850 -54.98750
vt 14.00150 -54.98450
vt 14.00150 -54.98750
vt 13.99090 -54.99400
vt 13.98770 -55.02290
vt 14.00910 -54.99400
vt 14.01230 -55.02290
vt 13.98230 -55.02290
vt 14.00530 -54.99400
vt 13.96480 -55.00550
vt 13.99830 -54.97710
vt 14.03520 -54.98450
vt 14.03520 -54.98750
vt 14.01230 -55.01770
vt 13.98770 -55.01770
vt 14.00910 -54.99470
vt 13.99090 -54.99470
vt 17.95700 -20.96650
vt 18.04300 -20.96650
vt 18.03380 -20.93280
vt 17.96620 -20.93280
vt 17.94070 -21.06720
vt 18.05930 -21.06720
vt 9.97868 -11.05430
vt 9.99061 -11.05250
vt 9.98266 -11.04410
vt 9.97691 -11.05050
vt 10.00750 -11.01590
vt 9.98401 -11.01980
vt 10.00140 -10.99770
vt 9.97578 -10.99780
vt 10.00420 -10.98750
vt 9.98928 -10.96440
vt 10.02070 -10.96290
vt 10.01510 -10.98530
vt 10.03740 -10.98020
vt 10.02850 -10.99410
vt 10.04590 -10.98990
vt 10.03890 -11.00080
vt 9.95592 -11.06340
vt 9.95923 -11.04930
vt 9.95319 -11.05830
vt 9.97155 -11.06100
vt 9.99300 -11.01010
vt 9.95658 -11.01550
vt 9.98286 -10.98490
vt 9.94311 -10.98500
vt 9.98721 -10.97070
vt 9.96405 -10.93860
vt 10.01460 -10.93660
vt 10.00580 -10.96760
vt 10.04250 -10.96050
vt 10.02860 -10.97990
vt 10.04610 -10.98910
vt 10.05690 -10.97410
vt 9.99585 -11.01590
vt 9.97711 -11.04410
vt 9.98506 -11.05250
vt 9.97233 -11.01980
vt 9.98884 -10.99770
vt 9.96317 -10.99780
vt 9.99167 -10.98750
vt 9.97672 -10.96440
vt 10.01050 -10.96290
vt 10.00490 -10.98530
vt 10.02990 -10.98020
vt 10.02090 -10.99410
vt 10.04000 -10.98990
vt 10.03310 -11.00080
vt 9.98020 -10.96410
vt 9.98385 -11.01460
vt 10.01980 -10.96410
vt 10.01610 -11.01460
vt 9.98808 -11.04250
vt 10.01190 -11.04250
vt 9.99074 -11.05690
vt 10.00930 -11.05690
vt 10.03250 -11.02070
vt 10.05090 -10.98930
vt 10.01170 -11.01050
vt 10.02540 -10.97670
vt 10.02100 -11.03740
vt 10.00560 -11.02990
vt 10.00270 -11.04000
vt 10.01470 -11.04590
vt 9.98831 -11.01050
vt 9.94906 -10.98930
vt 9.96745 -11.02070
vt 9.97464 -10.97670
vt 9.97904 -11.03740
vt 9.99443 -11.02990
vt 9.99728 -11.04000
vt 9.98533 -11.04590
vt 9.99707 -11.06340
vt 10.00290 -11.05830
vt 9.99707 -11.05830
vt 10.00290 -11.06340
vt 9.95651 -11.05050
vt 9.95738 -11.05430
vt 9.96030 -11.05050
vt 9.96117 -11.05430
vt 10.04350 -11.05050
vt 10.03970 -11.05050
vt 10.04260 -11.05430
vt 10.03880 -11.05430
vt 10.00870 -11.04930
vt 9.99125 -11.04930
vt 10.01840 -11.01550
vt 9.98159 -11.01550
vt 10.01990 -10.98500
vt 9.98013 -10.98500
vt 10.01980 -10.93860
vt 9.98020 -10.93860
vt 9.95468 -11.04410
vt 9.96597 -11.04410
vt 9.97137 -11.01980
vt 9.94759 -11.01980
vt 9.96805 -10.99780
vt 9.94238 -10.99780
vt 9.94906 -10.96440
vt 9.97464 -10.96440
vt 10.04530 -11.04410
vt 10.03400 -11.04410
vt 10.02860 -11.01980
vt 10.05240 -11.01980
vt 10.03200 -10.99780
vt 10.05760 -10.99780
vt 10.05090 -10.96440
vt 10.02540 -10.96440
vt 9.96988 -11.05250
vt 10.03010 -11.05250
vt 10.01730 -11.04410
vt 10.02130 -11.05430
vt 10.02310 -11.05050
vt 10.00940 -11.05250
vt 9.99247 -11.01590
vt 10.01600 -11.01980
vt 9.99855 -10.99770
vt 10.02420 -10.99780
vt 9.99576 -10.98750
vt 10.01070 -10.96440
vt 9.97926 -10.96290
vt 9.98490 -10.98530
vt 9.96257 -10.98020
vt 9.97152 -10.99410
vt 9.95411 -10.98990
vt 9.96106 -11.00080
vt 10.04080 -11.04930
vt 10.04410 -11.06340
vt 10.04680 -11.05830
vt 10.02850 -11.06100
vt 10.00700 -11.01010
vt 10.04340 -11.01550
vt 10.01710 -10.98490
vt 10.05690 -10.98500
vt 10.01280 -10.97070
vt 10.03590 -10.93860
vt 9.98544 -10.93660
vt 9.99416 -10.96760
vt 9.95752 -10.96050
vt 9.97138 -10.97990
vt 9.95387 -10.98910
vt 9.94311 -10.97410
vt 10.00410 -11.01590
vt 10.01490 -11.05250
vt 10.02290 -11.04410
vt 10.02770 -11.01980
vt 10.01120 -10.99770
vt 10.03680 -10.99780
vt 10.00830 -10.98750
vt 10.02330 -10.96440
vt 9.98950 -10.96290
vt 9.99514 -10.98530
vt 9.97013 -10.98020
vt 9.97908 -10.99410
vt 9.95998 -10.98990
vt 9.96693 -11.00080
vt 9.99125 -10.97150
vt 10.00870 -10.97150
vt 10.00290 -10.95590
vt 9.99707 -10.95590
vt 9.96988 -10.98510
vt 9.95738 -10.97870
vt 9.95858 -10.99060
vt 9.96117 -10.97680
vt 10.03010 -10.98510
vt 10.04260 -10.97870
vt 10.03880 -10.97680
vt 10.04140 -10.99060
vt 9.98554 -11.00490
vt 9.95641 -11.00420
vt 9.96468 -11.01510
vt 9.98199 -10.99170
vt 9.99004 -11.02090
vt 9.97464 -11.02850
vt 9.98192 -11.03890
vt 9.99387 -11.03310
vt 10.01450 -11.00490
vt 10.04360 -11.00420
vt 10.01800 -10.99170
vt 10.03530 -11.01510
vt 10.01000 -11.02090
vt 10.02540 -11.02850
vt 10.01810 -11.03890
vt 10.00610 -11.03310
vt 9.98385 -11.00580
vt 10.01610 -11.00580
vt 10.01980 -10.98720
vt 9.98020 -10.98720
vt 9.98808 -11.02860
vt 10.01190 -11.02860
vt 9.99074 -11.04610
vt 10.00930 -11.04610
vt 10.00930 -10.97410
vt 9.99074 -10.97410
vt 9.99074 -10.98910
vt 10.00930 -10.98910
vt 10.01470 -10.98990
vt 10.00270 -10.98990
vt 10.00610 -11.00080
vt 10.01810 -11.00080
vt 9.98533 -10.98990
vt 9.99387 -11.00080
vt 9.99728 -10.98990
vt 9.98192 -11.00080
vt 9.98159 -11.01010
vt 9.99125 -11.06100
vt 10.01840 -11.01010
vt 10.00870 -11.06100
vt 10.01990 -10.98490
vt 9.98013 -10.98490
vt 10.01980 -10.97070
vt 9.98020 -10.97070
vt 10.01710 -11.01590
vt 10.04090 -11.01590
vt 10.04140 -11.05250
vt 10.01930 -10.99770
vt 10.04500 -10.99770
vt 10.04360 -10.98750
vt 10.01800 -10.98750
vt 9.95915 -11.01590
vt 9.98293 -11.01590
vt 9.95858 -11.05250
vt 9.98065 -10.99770
vt 9.95499 -10.99770
vt 9.95641 -10.98750
vt 9.98199 -10.98750
vt 26.01160 -31.04400
vt 25.96720 -31.04220
vt 25.98930 -31.05790
vt 25.96540 -31.05770
vt 25.96010 -31.05290
vt 26.01870 -31.01510
vt 25.95060 -31.04040
vt 25.95510 -31.04830
vt 25.95450 -31.03000
vt 25.96230 -31.00910
vt 25.95060 -31.02370
vt 25.96210 -30.99920
vt 25.98510 -30.97210
vt 26.04930 -30.99070
vt 26.03090 -31.01610
vt 26.04610 -30.96000
vt 26.01160 -30.94410
vt 25.98250 -30.96160
vt 26.00350 -31.01160
vt 25.98680 -31.04610
vt 26.00670 -31.04620
vt 25.98370 -31.01160
vt 25.98990 -30.98250
vt 26.00980 -30.98260
vt 25.98680 -31.04620
vt 26.00630 -31.04040
vt 25.98650 -31.03840
vt 26.00660 -31.04830
vt 25.98570 -31.02800
vt 26.00540 -31.02370
vt 25.98560 -31.02170
vt 26.00550 -31.03000
vt 26.00540 -30.99920
vt 25.98490 -31.00710
vt 26.00470 -31.00910
vt 25.98550 -30.99720
vt 25.98850 -30.97010
vt 26.00840 -30.97210
vt 26.00620 -31.04220
vt 25.98690 -31.05080
vt 26.00670 -31.05290
vt 25.98640 -31.04020
vt 26.01010 -30.96160
vt 25.99020 -30.95960
vt 26.01070 -31.05590
vt 26.03280 -31.04020
vt 25.98840 -31.04200
vt 26.03460 -31.05570
vt 26.03980 -31.05080
vt 25.98130 -31.01310
vt 26.04480 -31.04620
vt 26.04930 -31.03840
vt 26.04550 -31.02800
vt 26.03760 -31.00710
vt 26.04930 -31.02170
vt 26.03780 -30.99720
vt 26.01490 -30.97010
vt 25.95060 -30.98870
vt 25.96900 -31.01410
vt 25.95380 -30.95800
vt 25.98840 -30.94210
vt 26.01740 -30.95960
vt 26.00590 -30.98930
vt 25.98700 -30.96540
vt 25.98610 -30.98930
vt 26.00690 -30.96540
vt 26.00670 -30.96010
vt 25.98690 -30.96020
vt 26.00360 -31.01160
vt 25.98380 -31.01160
vt 26.00620 -30.96720
vt 25.98680 -30.95520
vt 25.98640 -30.96720
vt 26.00660 -30.95510
vt 26.00350 -31.03090
vt 25.98380 -31.01870
vt 25.98370 -31.03100
vt 26.00360 -31.01870
vt 25.99370 -30.99070
vt 26.00670 -30.95800
vt 25.98680 -30.96000
vt 26.01350 -30.98870
vt 25.99650 -31.01610
vt 26.01630 -31.01410
vt 26.01620 -31.04200
vt 25.99640 -31.01510
vt 25.99640 -31.04400
vt 26.01620 -31.01310
vt 51.99770 -35.07390
vt 52.00800 -35.07390
vt 51.99440 -35.06710
vt 52.01020 -35.06570
vt 51.99580 -35.05850
vt 51.98010 -35.08010
vt 51.97880 -35.07740
vt 51.96100 -34.91890
vt 51.97570 -34.94980
vt 51.98650 -34.92940
vt 51.94800 -34.96290
vt 51.96760 -34.96220
vt 52.00550 -35.05370
vt 52.01480 -35.07350
vt 52.05620 -35.08040
vt 52.01790 -35.06470
vt 52.05690 -35.07700
vt 52.02970 -35.07630
vt 52.02840 -35.08110
vt 51.99550 -34.95400
vt 51.96800 -34.96100
vt 51.97450 -34.98650
vt 52.00200 -34.97950
vt 51.98820 -35.00550
vt 51.99260 -35.01790
vt 52.00100 -35.01580
vt 51.99900 -35.00280
vt 51.98720 -34.99440
vt 51.98850 -34.97810
vt 51.98560 -34.97880
vt 51.99460 -34.99250
vt 51.98880 -35.01590
vt 51.98230 -35.01020
vt 51.98380 -35.02090
vt 51.96760 -35.02970
vt 51.97140 -35.03310
vt 52.01120 -35.01300
vt 52.03240 -35.01350
vt 52.00690 -35.00350
vt 52.03130 -35.01720
vt 52.00450 -35.01160
vt 52.00860 -35.05610
vt 52.00530 -35.05690
vt 52.00450 -34.91890
vt 52.01150 -34.96290
vt 52.03200 -34.91890
vt 52.03110 -34.96290
vt 52.01150 -35.07740
vt 52.01400 -35.08010
vt 52.01440 -35.07740
vt 52.01120 -35.08010
vt 51.99560 -35.07370
vt 52.00460 -35.07390
vt 52.00540 -35.06710
vt 52.01430 -35.05850
vt 52.00350 -35.05850
vt 51.99310 -35.06570
vt 52.01280 -35.06710
vt 51.96880 -35.08060
vt 51.96760 -35.07690
vt 51.98280 -35.07690
vt 51.98310 -35.08060
vt 51.98650 -35.07690
vt 51.98690 -35.08060
vt 51.96820 -35.08110
vt 51.98100 -35.07600
vt 51.96690 -35.07630
vt 51.97910 -35.06880
vt 52.02190 -35.07740
vt 52.00420 -35.07390
vt 52.02060 -35.08010
vt 52.00750 -35.06710
vt 51.98770 -35.07340
vt 51.98840 -35.06570
vt 51.98420 -35.06470
vt 51.99720 -35.05370
vt 51.94470 -35.08040
vt 51.97890 -35.07440
vt 51.94390 -35.07700
vt 52.03020 -34.94980
vt 52.04600 -34.91890
vt 52.02050 -34.92940
vt 52.05690 -34.96290
vt 52.03740 -34.96220
vt 52.00700 -35.05850
vt 51.99650 -35.06570
vt 51.99870 -35.01230
vt 52.00460 -34.99580
vt 51.99560 -35.00280
vt 52.00850 -35.01480
vt 52.01200 -34.99770
vt 52.01580 -35.00800
vt 51.99490 -35.05620
vt 51.99810 -35.02110
vt 51.99160 -35.05530
vt 52.01120 -34.97940
vt 52.01400 -34.98010
vt 51.99090 -35.01230
vt 51.96880 -35.01310
vt 51.96990 -35.01690
vt 52.01450 -35.01900
vt 52.03130 -35.02840
vt 52.02740 -35.03180
vt 52.00530 -35.07700
vt 52.00840 -35.08040
vt 52.00860 -35.07700
vt 52.00510 -35.08040
vt 51.96760 -35.07630
vt 51.96870 -35.08110
vt 51.97140 -35.07630
vt 51.97260 -35.08110
vt 51.99260 -35.06470
vt 51.98880 -35.06570
vt 51.99150 -35.07350
vt 52.00450 -35.06570
vt 52.00910 -35.07540
vt 52.01120 -35.06850
vt 52.00130 -35.07340
vt 51.98380 -35.06880
vt 51.98550 -35.07600
vt 52.03130 -35.07690
vt 52.03010 -35.08060
vt 51.98820 -35.05370
vt 51.98230 -35.06570
vt 51.97390 -34.96220
vt 51.99350 -34.96220
vt 51.99900 -35.05370
vt 51.97450 -34.92940
vt 51.99720 -34.94980
vt 52.00200 -34.92940
vt 51.97400 -34.94980
vt 28.03340 -34.98800
vt 27.97870 -34.95150
vt 27.96650 -34.98800
vt 28.02530 -34.95150
vt 27.99340 -35.04850
vt 27.95320 -35.04850
vt 28.02410 -34.98800
vt 27.97590 -35.02530
vt 28.01230 -35.03460
vt 27.98770 -34.97870
vt 28.01760 -34.98800
vt 27.96530 -34.98800
vt 28.00780 -35.04850
vt 27.96760 -35.04850
vt 27.97590 -34.95150
vt 28.01230 -34.95150
vt 28.02020 -34.98800
vt 27.96540 -34.95150
vt 27.95320 -34.98800
vt 28.01200 -34.95150
vt 27.99640 -35.04850
vt 28.03650 -35.04850
vt 27.96760 -34.96350
vt 28.01800 -34.99340
vt 28.00780 -34.95320
vt 27.97790 -35.00360
vt 27.98200 -35.04850
vt 28.02210 -35.04850
vt 38.02090 -11.03330
vt 37.99090 -11.01630
vt 37.98940 -11.04020
vt 38.01740 -11.04620
vt 37.96140 -11.03420
vt 37.96080 -10.99930
vt 38.00250 -10.95380
vt 38.02060 -10.99350
vt 38.03870 -11.03330
vt 38.03920 -10.95660
vt 38.04330 -11.00250
vt 37.95670 -11.00250
vt 37.96280 -11.03920
vt 38.03720 -11.03920
vt 38.04530 -10.99930
vt 37.95470 -10.99930
vt 37.96620 -11.03420
vt 38.03380 -11.03420
vt 38.04330 -10.95380
vt 37.95670 -10.95380
vt 38.00910 -11.01630
vt 37.99750 -10.95380
vt 37.97940 -10.99350
vt 37.97910 -11.03330
vt 38.03920 -10.99930
vt 37.96080 -10.95660
vt 37.96130 -11.03330
vt 30.00100 -41.02580
vt 30.01820 -41.02170
vt 30.00330 -41.01780
vt 30.01900 -41.02040
vt 29.98720 -41.01250
vt 29.97890 -41.02190
vt 30.00960 -40.98910
vt 29.98720 -41.01050
vt 30.00330 -41.01590
vt 29.99010 -40.97420
vt 30.02110 -41.00970
vt 30.01900 -41.01850
vt 30.02000 -40.99010
vt 29.98480 -41.00960
vt 30.01520 -41.00960
vt 29.98000 -40.99010
vt 30.01520 -41.00330
vt 29.99380 -41.01900
vt 30.00620 -41.01900
vt 30.02000 -40.98720
vt 29.98480 -41.00330
vt 29.98000 -40.98720
vt 30.00990 -40.97420
vt 29.99040 -40.98910
vt 30.01280 -41.01050
vt 29.99900 -41.02580
vt 30.01280 -41.01250
vt 29.99670 -41.01780
vt 30.02110 -41.02190
vt 29.98180 -41.02170
vt 29.98100 -41.02040
vt 29.99670 -41.01590
vt 29.97890 -41.00970
vt 29.98100 -41.01850
vt 30.01520 -41.00100
vt 29.98480 -41.00100
vt 29.99380 -41.01820
vt 30.00620 -41.01820
vt 30.02000 -40.97890
vt 29.98000 -40.97890
vt 29.98480 -40.98910
vt 29.99380 -41.00970
vt 30.01520 -40.98910
vt 30.00620 -41.00970
vt 30.00620 -41.01850
vt 29.99380 -41.01850
vt 30.00620 -41.02170
vt 29.99380 -41.02040
vt 29.99380 -41.02170
vt 30.00620 -41.02040
vt -0.14519 0.72249
vt -0.14128 0.73465
vt -0.14519 0.74681
vt -0.14128 0.73870
vt -0.14128 0.74276
vt -0.14128 0.74681
vt -0.14128 0.73060
vt -0.14128 0.72654
vt -0.13736 0.72654
vt -0.12954 0.72249
vt -0.13345 0.72654
vt -0.12954 0.72654
vt -0.12954 0.74681
vt -0.13345 0.73465
vt -0.13345 0.73870
vt -0.13345 0.74276
vt -0.13345 0.74681
vt -0.13345 0.73060
vt -0.14127 0.72654
vt -0.14519 0.72654
vt 0.02413 0.70473
vt 0.03195 0.68852
vt 0.03195 0.70473
vt 0.02413 0.68852
vt 0.02412 0.70473
vt 0.02412 0.68852
vt 2.03521 -37.00550
vt 1.99473 -36.99400
vt 2.01766 -37.02290
vt 2.00168 -36.97710
vt 1.96479 -36.98450
vt 1.96482 -36.98750
vt 1.99086 -37.00170
vt 1.98767 -37.03520
vt 2.00914 -37.00170
vt 2.01233 -37.03520
vt 1.99850 -36.96480
vt 2.00150 -36.96480
vt 1.99850 -36.98450
vt 1.99850 -36.98750
vt 2.00150 -36.98450
vt 2.00150 -36.98750
vt 1.99086 -36.99400
vt 1.98767 -37.02290
vt 2.00914 -36.99400
vt 2.01233 -37.02290
vt 1.98234 -37.02290
vt 2.00527 -36.99400
vt 1.96479 -37.00550
vt 1.99832 -36.97710
vt 2.03521 -36.98450
vt 2.03518 -36.98750
vt 2.01233 -37.01770
vt 1.98767 -37.01770
vt 2.00914 -36.99470
vt 1.99086 -36.99470
vt 0.03521 -27.00550
vt -0.00527 -26.99400
vt 0.01766 -27.02290
vt 0.00168 -26.97710
vt -0.03521 -26.98450
vt -0.03518 -26.98750
vt -0.00914 -27.00170
vt -0.01233 -27.03520
vt 0.00914 -27.00170
vt 0.01233 -27.03520
vt -0.00150 -26.96480
vt 0.00150 -26.96480
vt -0.00150 -26.98450
vt -0.00150 -26.98750
vt 0.00150 -26.98450
vt 0.00150 -26.98750
vt -0.00914 -26.99400
vt -0.01233 -27.02290
vt 0.00914 -26.99400
vt 0.01233 -27.02290
vt -0.01766 -27.02290
vt 0.00527 -26.99400
vt -0.03521 -27.00550
vt -0.00168 -26.97710
vt 0.03521 -26.98450
vt 0.03518 -26.98750
vt 0.01233 -27.01770
vt -0.01233 -27.01770
vt 0.00914 -26.99470
vt -0.00914 -26.99470
vt 31.95670 -51.01060
vt 32.04330 -51.01060
vt 32.04530 -50.99290
vt 31.95470 -50.99290
vt 32.04530 -50.99360
vt 31.95470 -50.99360
vt 31.96620 -51.00650
vt 32.03380 -51.00650
vt 62.04070 -25.02810
vt 62.02440 -25.03040
vt 62.03240 -25.03750
vt 62.02700 -25.02140
vt 61.99360 -25.01230
vt 61.99080 -25.02250
vt 61.95990 -25.00450
vt 61.95640 -25.01730
vt 62.00130 -24.97750
vt 61.95990 -25.00250
vt 61.99360 -25.01040
vt 61.96930 -24.96250
vt 62.03400 -24.98980
vt 62.02700 -25.01950
vt 62.04360 -24.98980
vt 62.04070 -25.02610
vt 61.97910 -25.03400
vt 62.02310 -25.00130
vt 61.97690 -25.00130
vt 62.02810 -24.96930
vt 61.97190 -24.96930
vt 62.02090 -25.03400
vt 61.98000 -25.04360
vt 62.02000 -25.04360
vt 62.02090 -25.02700
vt 61.98000 -25.04070
vt 62.02000 -25.04070
vt 62.02810 -24.95990
vt 61.97190 -24.95990
vt 61.97690 -24.99360
vt 62.02310 -24.99360
vt 61.97910 -25.02700
vt 61.97190 -24.96250
vt 62.02810 -25.00250
vt 62.02810 -24.96250
vt 61.97190 -25.00250
vt 61.97190 -25.00450
vt 62.02810 -25.01730
vt 62.02810 -25.00450
vt 61.97190 -25.01730
vt 62.00920 -25.02250
vt 62.04010 -25.00450
vt 62.00640 -25.01230
vt 62.04360 -25.01730
vt 61.97560 -25.03040
vt 61.97300 -25.02140
vt 61.95930 -25.02810
vt 61.96760 -25.03750
vt 62.00640 -25.01040
vt 61.96600 -24.98980
vt 61.97300 -25.01950
vt 61.95640 -24.98980
vt 61.95930 -25.02610
vt 61.99870 -24.97750
vt 62.04010 -25.00250
vt 62.03070 -24.96250
vt 61.97910 -25.02440
vt 62.02090 -25.02440
vt 62.02310 -24.99080
vt 61.98000 -25.03240
vt 62.02000 -25.03240
vt 61.97690 -24.99080
vt 62.02810 -24.95640
vt 61.97190 -24.95640
vt -0.00168 -54.96170
vt -0.02029 -54.99860
vt -0.00783 -54.98370
vt 0.00781 -54.98370
vt -0.00783 -54.99690
vt 0.02029 -54.99310
vt -0.00783 -54.99720
vt 0.00781 -54.99480
vt -0.00783 -55.00800
vt 0.00781 -55.00800
vt -0.00218 -55.03830
vt 0.00826 -55.03560
vt 0.03452 -55.00780
vt 0.03899 -54.99220
vt 0.03624 -54.99220
vt 0.03413 -55.00780
vt -0.03413 -55.00780
vt -0.03624 -54.99220
vt -0.03452 -55.00780
vt -0.03899 -54.99220
vt -0.03559 -54.99480
vt -0.03413 -54.98370
vt -0.03527 -54.98370
vt -0.03413 -55.00800
vt -0.03452 -55.00800
vt 0.03413 -54.98370
vt 0.03559 -54.99480
vt 0.03527 -54.98370
vt 0.03413 -55.00800
vt 0.03452 -55.00800
vt -0.00826 -55.03560
vt 0.00783 -55.00800
vt -0.00781 -55.00800
vt -0.02029 -54.99310
vt -0.00781 -54.99480
vt -0.00781 -54.98370
vt 0.00168 -54.96170
vt 0.00783 -54.98370
vt 0.02029 -54.99860
vt 0.00783 -54.99690
vt 0.00783 -54.99720
vt 0.00218 -55.03830
vt 0.04330 -54.99780
vt -0.04330 -54.99780
vt -0.03217 -55.00830
vt 0.03217 -55.00830
vt -0.03527 -55.00780
vt -0.03950 -54.99220
vt 0.03527 -55.00780
vt 0.03950 -54.99220
vt -0.03217 -54.99310
vt 0.03719 -54.96170
vt -0.03720 -54.96170
vt 0.03217 -54.99310
vt 0.03217 -55.03560
vt -0.03217 -55.03560
vt 0.03624 -54.98370
vt 0.03986 -54.99720
vt 0.03988 -54.99690
vt 0.03950 -54.98370
vt 0.03624 -55.00800
vt 0.03899 -55.00800
vt -0.03950 -54.98370
vt -0.03989 -54.99690
vt -0.03624 -54.98370
vt -0.03986 -54.99720
vt -0.03624 -55.00800
vt -0.03899 -55.00800
vt -0.15353 0.70189
vt -0.14961 0.71405
vt -0.15353 0.72216
vt -0.14961 0.71810
vt -0.14961 0.72216
vt -0.14961 0.71000
vt -0.14961 0.70594
vt -0.14570 0.70594
vt -0.14179 0.70189
vt -0.14179 0.70594
vt -0.14179 0.72216
vt -0.14570 0.71000
vt -0.14570 0.71405
vt -0.14570 0.71810
vt -0.14570 0.72216
vt -0.15353 0.70594
vn 0.9449 0.2205 -0.2441
vn 0.9606 -0.1024 -0.2441
vn 0.0000 1.0000 0.0000
vn 0.2362 0.2598 0.9370
vn -0.9449 0.2205 0.2441
vn -0.9606 -0.1024 0.2441
vn 0.0000 -1.0000 0.0000
vn -0.2362 0.2756 -0.9291
vn -0.2047 -0.5748 -0.7874
vn 1.0000 -0.0236 0.0315
vn 1.0000 0.0630 0.0079
vn 1.0000 0.0394 0.0157
vn 0.9843 0.1732 -0.0157
vn 0.9843 0.1654 -0.0157
vn 0.9921 0.1102 0.0000
vn 0.9764 0.2283 -0.0394
vn -0.0945 0.8976 -0.4252
vn -0.0866 0.8425 0.5276
vn 0.0551 -0.4961 0.8661
vn 0.0551 -0.5197 0.8504
vn -0.0315 0.3307 0.9449
vn -0.0315 0.3071 0.9528
vn -0.0315 0.3386 0.9449
vn -0.0630 0.6378 0.7638
vn -0.0315 0.3386 0.9370
vn -0.0630 0.6299 0.7795
vn -0.0315 0.3465 0.9370
vn -0.0551 0.5512 0.8346
vn 0.0236 -0.2362 0.9685
vn -1.0000 0.0236 -0.0315
vn -1.0000 -0.0630 -0.0079
vn -1.0000 -0.0394 -0.0157
vn -0.9843 -0.1732 0.0157
vn -0.9843 -0.1654 0.0157
vn -0.9921 -0.1102 0.0000
vn -0.9764 -0.2283 0.0394
vn 0.0945 -0.9606 -0.2441
vn 0.0945 -0.9528 -0.2835
vn 0.0945 -0.9213 0.3701
vn 0.0630 -0.6142 -0.7874
vn 0.0945 -0.9291 0.3622
vn 0.0787 -0.7323 0.6772
vn 0.0551 -0.5591 -0.8268
vn 0.0866 -0.8898 -0.4409
vn 0.1024 -0.9921 0.0787
vn -0.0157 0.1024 -0.9921
vn 0.0236 -0.2441 -0.9685
vn 0.0236 -0.2756 -0.9606
vn 0.0551 -0.5827 -0.8110
vn 0.0236 -0.2362 -0.9685
vn 1.0000 0.0000 0.0157
vn 0.9764 -0.0945 0.2126
vn 1.0000 0.0000 0.0236
vn 0.9921 0.0866 -0.1102
vn 1.0000 -0.0079 0.0315
vn 0.9921 0.0709 -0.0945
vn 0.9921 0.0630 -0.0866
vn 0.9528 -0.1181 0.2835
vn 0.9449 -0.1260 0.2913
vn 0.9055 -0.1575 0.3937
vn 0.8583 -0.1890 0.4724
vn 0.8819 -0.1732 0.4331
vn 0.0000 0.9685 0.2598
vn 0.0000 1.0000 0.0236
vn 0.0000 0.8189 0.5669
vn 0.0000 0.7165 0.7008
vn 0.0000 -0.1024 0.9921
vn -0.9528 -0.1181 0.2835
vn -1.0000 0.0000 0.0157
vn -0.9764 -0.0945 0.2126
vn -0.9055 -0.1575 0.3937
vn -0.8819 -0.1732 0.4331
vn -0.8583 -0.1890 0.4724
vn -0.9449 -0.1260 0.2913
vn -1.0000 -0.0079 0.0315
vn -0.9921 0.0866 -0.1102
vn -1.0000 0.0000 0.0236
vn -0.9921 0.0709 -0.0945
vn -0.9921 0.0630 -0.0866
vn 1.0000 0.0000 0.0000
vn 0.9764 -0.0157 0.1968
vn 0.9843 -0.0315 0.1811
vn 0.0000 1.0000 0.0551
vn 0.0000 0.8661 0.4961
vn 0.0000 -0.6929 0.7244
vn 0.0000 0.6929 0.7165
vn 0.0000 0.1260 0.9921
vn 0.0000 -0.3071 0.9528
vn -1.0000 0.0000 0.0000
vn -0.9764 -0.0157 0.1968
vn -0.9843 -0.0315 0.1811
vn 0.0000 -0.9764 -0.2362
vn 0.0000 -1.0000 0.0394
vn 0.0000 0.5276 -0.8504
vn 0.0000 -0.2992 -0.9528
vn 0.0000 0.2126 -0.9764
vn 1.0000 0.0394 0.0709
vn 0.9921 0.0394 0.1496
vn 0.9921 0.0394 0.1417
vn 0.9685 0.0394 0.2283
vn 0.0000 0.8583 -0.5197
vn 0.0000 0.9370 0.3465
vn 0.0000 -0.1654 0.9843
vn 0.0000 -0.9055 0.4252
vn 0.0000 -0.7402 0.6772
vn -1.0000 0.0394 0.0709
vn -0.9921 0.0394 0.1496
vn -0.9921 0.0394 0.1417
vn -0.9685 0.0394 0.2283
vn 0.0000 -0.5906 -0.8032
vn 0.0000 -1.0000 0.0551
vn 0.0000 -1.0000 0.0866
vn 0.0000 -0.8976 -0.4488
vn 0.0000 -0.9370 0.3386
vn 0.0000 -0.6929 -0.7165
vn 0.9134 -0.3071 -0.2756
vn 0.7087 -0.0236 -0.7008
vn 0.9370 -0.0551 0.3543
vn 0.7638 0.3543 -0.5433
vn 0.9843 -0.0079 0.1732
vn 0.9685 -0.0630 0.2520
vn 0.8346 0.5354 0.1496
vn 0.0945 0.9291 -0.3622
vn 0.1575 0.7638 -0.6220
vn -0.1339 0.8346 0.5354
vn -0.2598 0.9134 -0.2992
vn 0.3622 0.9291 -0.1102
vn 0.0709 0.9606 -0.2835
vn -0.2362 0.2677 0.9370
vn -0.2205 -0.4488 0.8661
vn 0.5906 -0.2913 0.7559
vn -0.2205 -0.4646 0.8583
vn 0.6693 -0.1260 0.7323
vn -0.2441 0.1102 0.9606
vn 0.3543 -0.0236 0.9370
vn -0.9055 -0.2677 0.3307
vn -0.9528 -0.1339 0.2835
vn -0.9921 -0.0551 -0.1339
vn -0.9685 -0.0630 -0.2441
vn -0.9528 0.0079 -0.3150
vn -0.7953 -0.0236 0.6063
vn -0.8032 0.5118 -0.3071
vn 0.0157 -1.0000 -0.0236
vn 0.0000 -0.9843 0.1575
vn 0.0787 -0.9449 -0.3150
vn -0.2283 -0.9685 0.0630
vn 0.1968 -0.9606 0.2047
vn 0.2441 -0.2283 -0.9449
vn -0.6220 -0.3386 -0.7087
vn -0.4016 -0.2520 -0.8819
vn -0.0866 0.0394 -0.9921
vn 0.6299 0.0236 -0.7795
vn -0.2126 -0.0236 -0.9764
vn -0.5039 0.5512 -0.6693
vn 0.2283 0.4016 -0.8898
vn 0.2126 -0.4882 -0.8425
vn 0.9843 0.1732 0.0157
vn 0.9764 0.2205 -0.0315
vn 0.9764 0.2047 0.0157
vn 0.9764 0.2047 -0.0157
vn 0.9528 0.2835 -0.0551
vn 0.9843 0.1496 0.0079
vn 0.9606 0.2598 -0.0709
vn 0.9764 0.2047 -0.0551
vn 0.9291 0.3622 -0.0945
vn 0.0000 0.7165 0.6929
vn 0.0000 -0.1968 0.9764
vn -0.9843 -0.1417 0.1024
vn -0.9528 0.2835 -0.0551
vn -0.9843 -0.1654 0.0945
vn -0.8976 -0.4173 0.1654
vn -0.9213 -0.3622 0.1417
vn -0.8425 -0.5039 0.1968
vn -0.9921 -0.0945 0.0945
vn -0.9764 0.2205 -0.0315
vn -0.9764 0.2047 -0.0157
vn -0.9606 0.2598 -0.0709
vn -0.9764 0.2047 -0.0551
vn -0.9291 0.3622 -0.0945
vn 1.0000 0.0709 0.0315
vn 0.9921 0.1260 0.0787
vn 0.9685 0.1890 0.1417
vn 0.0000 0.2913 -0.9606
vn 0.0000 0.9291 -0.3701
vn 0.0000 0.5354 0.8425
vn 0.0000 -0.3858 0.9213
vn 0.0000 -0.0945 0.9921
vn -1.0000 0.0709 0.0315
vn -0.9921 0.1260 0.0787
vn -0.9685 0.1890 0.1417
vn 0.0000 -0.9764 -0.2047
vn 0.0000 -0.7008 0.7087
vn 0.0000 0.5197 -0.8504
vn 0.0000 0.0945 -0.9921
vn 0.9528 -0.2913 -0.1024
vn 0.9291 -0.2520 -0.2756
vn 0.9213 -0.2441 -0.2913
vn 0.8976 -0.1260 -0.4252
vn 0.8976 -0.0236 -0.4409
vn 0.8740 0.0157 -0.4882
vn 0.8425 -0.0157 -0.5433
vn 0.8346 -0.0630 -0.5433
vn 0.8425 -0.0787 -0.5354
vn 0.8976 -0.2913 0.3307
vn 0.9606 -0.2441 0.1417
vn 0.9528 -0.2520 0.1654
vn 0.9921 -0.1260 0.0079
vn 1.0000 -0.0236 0.0000
vn 1.0000 0.0157 -0.0472
vn 0.9921 -0.0157 -0.1102
vn 0.9921 -0.0630 -0.1181
vn 0.9921 -0.0787 -0.1102
vn 0.8898 -0.1260 0.4488
vn 0.7953 -0.2441 0.5512
vn 0.7874 -0.2520 0.5669
vn 0.8819 -0.1260 0.4488
vn 0.8976 -0.0236 0.4409
vn 0.9213 0.0157 0.3937
vn 0.9449 -0.0157 0.3386
vn 0.9449 -0.0630 0.3307
vn 0.9370 -0.0787 0.3386
vn 0.0000 1.0000 0.0394
vn 0.0000 0.9528 -0.3071
vn 0.0000 0.7480 -0.6693
vn 0.0000 0.7323 -0.6850
vn 0.1339 0.9528 -0.2756
vn -0.0157 1.0000 0.0394
vn 0.2913 0.7480 -0.5984
vn 0.2992 0.7323 -0.6142
vn -0.1339 0.9528 -0.2756
vn 0.0157 1.0000 0.0394
vn -0.2913 0.7480 -0.5984
vn -0.2992 0.7323 -0.6142
vn 0.0000 -0.4646 0.8819
vn -0.3937 -0.4646 0.7953
vn 0.3937 -0.4646 0.7953
vn 0.0000 0.1654 0.9843
vn 0.0000 0.5591 0.8268
vn 0.0000 -0.2598 0.9685
vn 0.0000 0.0079 1.0000
vn 0.0000 0.4094 0.9134
vn -0.4331 0.1654 0.8819
vn -0.3622 0.5591 0.7480
vn -0.4252 -0.2598 0.8661
vn -0.4409 0.0079 0.8976
vn -0.4016 0.4094 0.8189
vn 0.4331 0.1654 0.8819
vn 0.3622 0.5591 0.7480
vn 0.4252 -0.2598 0.8661
vn 0.4409 0.0079 0.8976
vn 0.4016 0.4094 0.8189
vn 0.6614 -0.2913 0.6929
vn -0.6614 -0.2913 0.6929
vn -0.7953 -0.2441 0.5512
vn -0.7874 -0.2520 0.5669
vn -0.9213 -0.2441 -0.2913
vn -0.9528 -0.2913 -0.1024
vn -0.9291 -0.2520 -0.2756
vn -0.8976 -0.1260 -0.4252
vn -0.8976 -0.0236 -0.4409
vn -0.8740 0.0157 -0.4882
vn -0.8425 -0.0157 -0.5433
vn -0.8346 -0.0630 -0.5433
vn -0.8425 -0.0787 -0.5354
vn -0.9606 -0.2441 0.1417
vn -0.8976 -0.2913 0.3307
vn -0.9528 -0.2520 0.1654
vn -0.9921 -0.1260 0.0079
vn -1.0000 -0.0236 0.0000
vn -1.0000 0.0157 -0.0472
vn -0.9921 -0.0157 -0.1102
vn -0.9921 -0.0630 -0.1181
vn -0.9921 -0.0787 -0.1102
vn -0.8898 -0.1260 0.4488
vn -0.8819 -0.1260 0.4488
vn -0.8976 -0.0236 0.4409
vn -0.9213 0.0157 0.3937
vn -0.9449 -0.0157 0.3386
vn -0.9449 -0.0630 0.3307
vn -0.9370 -0.0787 0.3386
vn 0.0000 -0.9921 -0.1496
vn 0.0709 -0.9921 -0.1339
vn -0.0709 -0.9921 -0.1339
vn -0.0551 -0.9921 0.1102
vn 0.0709 -0.9843 -0.1417
vn -0.2047 -0.8819 0.4252
vn -0.2047 -0.8819 0.4173
vn 0.0551 -0.9921 0.1102
vn -0.0709 -0.9843 -0.1417
vn 0.2047 -0.8819 0.4252
vn 0.2047 -0.8819 0.4173
vn 0.0000 -0.9921 0.1260
vn 0.0000 -0.9843 -0.1654
vn 0.0000 -0.8819 0.4724
vn 0.0000 -0.8819 0.4646
vn 0.0000 -0.5827 -0.8110
vn 0.3622 -0.5827 -0.7323
vn -0.3622 -0.5827 -0.7323
vn 0.0000 0.0236 -1.0000
vn 0.0000 -0.3858 -0.9213
vn 0.0000 0.0394 -1.0000
vn 0.0000 -0.2913 -0.9528
vn 0.4409 0.0236 -0.8976
vn 0.4094 -0.3858 -0.8268
vn 0.4409 0.0394 -0.8976
vn 0.4252 -0.2913 -0.8583
vn -0.4409 0.0236 -0.8976
vn -0.4094 -0.3858 -0.8268
vn -0.4409 0.0394 -0.8976
vn -0.4252 -0.2913 -0.8583
vn 1.0000 0.0236 -0.0315
vn 1.0000 -0.0630 -0.0079
vn 1.0000 -0.0394 -0.0157
vn 0.9843 -0.1732 0.0157
vn 0.9843 -0.1654 0.0157
vn 0.9921 -0.1102 0.0000
vn 0.9764 -0.2283 0.0394
vn 0.0945 0.8976 -0.4252
vn 0.0866 0.8425 0.5276
vn -0.0551 -0.4961 0.8661
vn -0.0551 -0.5197 0.8504
vn 0.0315 0.3307 0.9449
vn 0.0315 0.3071 0.9528
vn 0.0315 0.3386 0.9370
vn 0.0630 0.6299 0.7795
vn 0.0315 0.3386 0.9449
vn 0.0630 0.6378 0.7638
vn 0.0315 0.3465 0.9370
vn 0.0551 0.5512 0.8346
vn -0.0236 -0.2362 0.9685
vn -1.0000 -0.0236 0.0315
vn -1.0000 0.0630 0.0079
vn -1.0000 0.0394 0.0157
vn -0.9843 0.1732 -0.0157
vn -0.9843 0.1654 -0.0157
vn -0.9921 0.1102 0.0000
vn -0.9764 0.2283 -0.0394
vn -0.0945 -0.9606 -0.2441
vn -0.0945 -0.9213 0.3701
vn -0.0945 -0.9528 -0.2835
vn -0.0945 -0.9291 0.3622
vn -0.0787 -0.7323 0.6772
vn -0.0630 -0.6142 -0.7874
vn -0.0551 -0.5591 -0.8268
vn -0.0866 -0.8898 -0.4409
vn -0.1024 -0.9921 0.0787
vn -0.0236 -0.2441 -0.9685
vn 0.0157 0.1024 -0.9921
vn -0.0236 -0.2756 -0.9606
vn -0.0551 -0.5827 -0.8110
vn -0.0236 -0.2362 -0.9685
vn 0.9055 -0.2677 0.3307
vn 0.9528 -0.1339 0.2835
vn 0.9921 -0.0551 -0.1339
vn 0.9685 -0.0630 -0.2441
vn 0.9528 0.0079 -0.3150
vn 0.7953 -0.0236 0.6063
vn 0.8032 0.5118 -0.3071
vn -0.0945 0.9291 -0.3622
vn -0.1575 0.7638 -0.6220
vn 0.1339 0.8346 0.5354
vn 0.2598 0.9134 -0.2992
vn -0.3622 0.9291 -0.1102
vn -0.0709 0.9606 -0.2835
vn 0.2362 0.2677 0.9370
vn 0.2205 -0.4488 0.8661
vn -0.5906 -0.2913 0.7559
vn 0.2205 -0.4646 0.8583
vn -0.6693 -0.1260 0.7323
vn 0.2441 0.1102 0.9606
vn -0.3543 -0.0236 0.9370
vn -0.9134 -0.3071 -0.2756
vn -0.7087 -0.0236 -0.7008
vn -0.9370 -0.0551 0.3543
vn -0.7638 0.3543 -0.5433
vn -0.9843 -0.0079 0.1732
vn -0.9685 -0.0630 0.2520
vn -0.8346 0.5354 0.1496
vn -0.0157 -1.0000 -0.0236
vn -0.0787 -0.9449 -0.3150
vn 0.2283 -0.9685 0.0630
vn -0.1968 -0.9606 0.2047
vn -0.2441 -0.2283 -0.9449
vn 0.6220 -0.3386 -0.7087
vn 0.4016 -0.2520 -0.8819
vn 0.0866 0.0394 -0.9921
vn -0.6299 0.0236 -0.7795
vn 0.2126 -0.0236 -0.9764
vn 0.5039 0.5512 -0.6693
vn -0.2283 0.4016 -0.8898
vn -0.2126 -0.4882 -0.8425
vn 0.9449 0.2205 0.2441
vn 0.9606 -0.1024 0.2441
vn -0.2362 0.2598 0.9370
vn -0.9449 0.2205 -0.2441
vn -0.9606 -0.1024 -0.2441
vn 0.2362 0.2756 -0.9291
vn 0.2047 -0.5748 -0.7874
vn 0.9843 -0.1811 0.0472
vn 0.9764 -0.1968 0.0630
vn 0.8819 -0.4409 0.1732
vn 0.8425 -0.5039 0.1968
vn 0.9213 -0.3622 0.1417
vn 0.9843 -0.1496 0.0472
vn 0.9921 0.0551 -0.0945
vn 1.0000 0.0472 -0.0709
vn 1.0000 0.0551 -0.0630
vn 0.9843 0.0787 -0.1732
vn 0.0000 1.0000 -0.0787
vn 0.0000 0.3937 0.9213
vn 0.0000 -0.0157 1.0000
vn 0.0000 0.6772 0.7402
vn -1.0000 0.0394 -0.0394
vn -0.9921 0.0551 -0.0945
vn -1.0000 0.0472 -0.0709
vn -1.0000 0.0551 -0.0630
vn -0.9843 0.0787 -0.1654
vn 0.9370 -0.1417 -0.3228
vn 0.8661 -0.1575 -0.4803
vn 0.9213 -0.1496 -0.3543
vn 0.9685 -0.1339 -0.2126
vn 0.9449 -0.0551 -0.3150
vn 0.9685 -0.0315 -0.2441
vn 0.9291 -0.0787 -0.3622
vn 0.8740 -0.1102 -0.4803
vn 0.0000 0.7953 -0.6063
vn 0.0000 0.6850 -0.7323
vn 0.0000 0.9685 -0.2598
vn 0.0000 0.9843 -0.1654
vn 0.0000 0.9449 -0.3150
vn -0.9685 -0.0315 -0.2441
vn -0.9449 -0.0551 -0.3150
vn -0.9370 -0.1417 -0.3228
vn -0.9685 -0.1339 -0.2126
vn -0.9213 -0.1496 -0.3543
vn -0.8661 -0.1575 -0.4803
vn -0.9291 -0.0787 -0.3622
vn -0.8740 -0.1102 -0.4803
vn 0.0000 -1.0000 0.0236
vn 0.0000 -0.8346 -0.5512
vn 0.0000 -0.9843 0.1732
vn 0.0000 -0.9449 0.3150
vn 0.0000 -0.9685 0.2598
vn 0.0000 -0.9843 0.1654
vn 0.0000 0.1811 -0.9843
vn 0.0000 -0.2283 -0.9764
vn 0.0000 -0.5118 -0.8583
vn 0.9921 0.0000 -0.1339
vn -0.9921 0.0000 -0.1339
vn 1.0000 -0.0079 0.0787
vn 0.9921 -0.0472 0.1417
vn 0.9685 -0.0945 0.2205
vn 0.0000 1.0000 0.0315
vn 0.0000 0.5984 0.8032
vn 0.0000 -0.6772 0.7323
vn 0.0000 -0.9921 -0.1339
vn -1.0000 -0.0079 0.0787
vn -0.9921 -0.0472 0.1417
vn -0.9685 -0.0945 0.2205
vn 0.0000 -0.0551 -1.0000
vn 0.0000 -0.8661 -0.4961
vn 1.0000 0.0472 0.0630
vn 0.9921 0.0630 0.1417
vn 0.9921 0.0630 0.1339
vn 0.9685 0.0787 0.2205
vn 0.0000 0.7638 -0.6457
vn 0.0000 0.9843 0.1968
vn 0.0000 -0.0079 1.0000
vn 0.0000 -0.8268 0.5591
vn 0.0000 -0.6220 0.7795
vn -1.0000 0.0472 0.0630
vn -0.9921 0.0630 0.1417
vn -0.9921 0.0630 0.1339
vn -0.9685 0.0787 0.2205
vn 0.0000 -0.7087 -0.7008
vn 0.0000 -0.9764 0.2126
vn 0.0000 -0.2598 -0.9685
vn 1.0000 -0.0315 -0.0551
vn 1.0000 -0.0236 -0.0630
vn 0.9921 -0.0236 -0.1024
vn 0.9921 -0.0315 -0.1024
vn 0.9921 -0.0394 -0.1417
vn 0.9921 -0.0315 -0.1417
vn 1.0000 -0.0157 -0.0630
vn 1.0000 -0.0157 -0.0709
vn 1.0000 -0.0079 -0.0709
vn 0.0000 0.9843 -0.1890
vn 0.0000 0.9213 -0.3937
vn 0.0000 0.9055 -0.4252
vn 0.0000 0.9370 -0.3465
vn 0.0000 0.8976 -0.4409
vn 0.0000 0.9764 -0.2283
vn 0.0000 0.9685 -0.2441
vn 0.0000 0.2283 0.9764
vn 0.0000 0.2598 0.9685
vn -0.9921 -0.0315 -0.1024
vn -0.9921 -0.0394 -0.1417
vn -0.9921 -0.0236 -0.1024
vn -1.0000 -0.0236 -0.0630
vn -1.0000 -0.0315 -0.0551
vn -1.0000 -0.0157 -0.0630
vn -1.0000 -0.0157 -0.0709
vn -1.0000 -0.0079 -0.0709
vn -0.9921 -0.0315 -0.1417
vn 0.0000 -0.8898 0.4488
vn 0.0000 -0.9843 0.1890
vn 0.0000 -0.7480 0.6614
vn 0.0000 -0.9921 0.1496
vn 0.0000 -0.8976 0.4409
vn 0.0000 -0.9370 0.3465
vn 0.0000 -0.9685 0.2441
vn 0.0000 -0.9764 0.2283
vn 0.9685 0.0315 -0.2598
vn 0.9370 0.0394 -0.3543
vn 0.9370 0.0394 -0.3465
vn 0.9370 0.0394 -0.3386
vn 0.9055 0.0551 -0.4173
vn 0.0000 0.0000 1.0000
vn -0.9055 0.0551 -0.4173
vn -0.9370 0.0394 -0.3465
vn -0.9685 0.0315 -0.2598
vn -0.9370 0.0394 -0.3543
vn -0.9370 0.0394 -0.3386
vn 0.0000 -0.9685 -0.2520
vn 0.0000 0.5748 -0.8189
vn 0.0000 -0.2756 -0.9606
vn 0.0000 0.0000 -1.0000

o LeftLeg
usemtl c_2e2a31
f 1/1/1 2/2/1 3/3/1
f 1/1/1 3/3/1 4/4/1
f 2/2/2 1/1/2 5/5/2
f 5/5/2 1/1/2 6/6/2
f 4/7/3 7/8/3 8/9/3
f 7/8/3 4/7/3 3/10/3
f 9/11/4 4/12/4 8/13/4
f 4/12/4 9/11/4 1/14/4
f 10/15/4 1/14/4 9/11/4
f 1/14/4 10/15/4 6/16/4
f 11/17/5 9/18/5 8/19/5
f 11/17/5 8/19/5 7/20/5
f 12/21/6 9/18/6 11/17/6
f 9/18/6 12/21/6 10/22/6
f 6/23/7 12/24/7 5/25/7
f 12/24/7 6/23/7 10/26/7
f 7/12/8 3/13/8 2/11/8
f 2/11/8 11/14/8 7/12/8
f 2/11/9 12/27/9 11/14/9
f 12/27/9 2/11/9 5/28/9
o RightWing
usemtl c_1c1a1e
f 13/29/10 14/30/10 15/31/10
f 14/30/10 16/32/10 15/31/10
f 16/32/10 14/30/10 17/33/10
f 18/34/11 14/30/10 13/29/10
f 14/30/10 19/35/10 20/36/10
f 19/35/10 14/30/10 21/37/10
f 22/38/10 21/37/10 14/30/10
f 21/37/10 22/38/10 23/39/10
f 18/34/11 22/38/10 14/30/10
f 22/38/10 18/34/11 24/40/12
f 18/34/11 25/41/13 24/40/12
f 25/41/13 18/34/11 26/42/14
f 26/42/14 18/34/11 27/43/15
f 28/44/16 25/41/13 26/42/14
f 25/41/13 28/44/16 29/45/16
f 29/45/16 30/46/16 25/41/13
f 29/47/17 31/48/17 32/49/17
f 31/48/17 29/47/17 28/50/17
f 30/51/18 29/47/18 33/52/18
f 29/47/18 32/49/18 33/52/18
f 34/53/19 20/54/19 19/55/19
f 20/54/19 34/53/19 35/56/19
f 36/57/20 21/58/20 23/59/20
f 21/58/20 36/57/20 37/60/20
f 38/61/21 22/62/22 24/63/23
f 25/64/24 38/61/21 24/63/23
f 38/61/21 25/64/24 39/65/24
f 22/62/22 38/61/21 40/66/25
f 40/66/25 23/59/26 22/62/22
f 23/59/26 40/66/25 36/57/26
f 37/60/27 19/55/27 21/58/27
f 19/55/27 37/60/27 34/53/27
f 41/67/28 17/68/28 14/69/28
f 17/68/28 41/67/28 42/70/28
f 39/65/29 30/71/29 33/72/29
f 30/71/29 39/65/29 25/64/29
f 43/73/30 41/74/30 44/75/30
f 45/76/30 41/74/30 43/73/30
f 42/77/30 41/74/30 45/76/30
f 41/74/30 46/78/31 44/75/30
f 41/74/30 35/79/30 34/80/30
f 37/81/30 41/74/30 34/80/30
f 40/82/30 41/74/30 37/81/30
f 40/82/30 37/81/30 36/83/30
f 41/74/30 40/82/30 46/78/31
f 38/84/32 46/78/31 40/82/30
f 39/85/33 46/78/31 38/84/32
f 47/86/34 46/78/31 39/85/33
f 46/78/31 47/86/34 48/87/35
f 39/85/33 31/88/36 47/86/34
f 31/88/36 39/85/33 32/89/36
f 32/89/36 39/85/33 33/90/36
f 43/91/37 15/92/38 16/93/39
f 44/94/40 15/92/38 43/91/37
f 43/91/37 16/93/39 45/95/41
f 16/93/39 42/96/42 45/95/41
f 42/96/42 16/93/39 17/97/42
f 44/94/40 13/98/43 15/92/38
f 41/99/44 14/100/44 20/101/44
f 41/99/44 20/101/44 35/102/44
f 48/103/45 27/104/45 18/105/45
f 48/103/45 18/105/45 46/106/45
f 28/107/46 47/108/47 31/109/46
f 47/108/47 28/107/46 26/110/48
f 26/110/48 48/111/49 47/108/47
f 48/111/49 26/110/48 27/112/49
f 46/113/50 13/114/43 44/115/40
f 46/113/50 18/116/50 13/114/43
o Torso
usemtl c_2e2a31
f 49/117/51 50/118/52 51/119/53
f 49/117/51 52/120/54 53/121/55
f 52/120/54 49/117/51 54/122/56
f 51/119/53 54/122/56 49/117/51
f 54/122/56 51/119/53 55/123/57
f 53/121/55 56/124/58 49/117/51
f 50/118/52 49/117/51 56/124/58
f 56/124/58 53/121/55 57/125/59
f 56/124/58 58/126/60 50/118/52
f 56/124/58 57/125/59 59/127/61
f 58/126/60 56/124/58 60/128/62
f 56/124/58 59/127/61 60/128/62
f 53/129/63 52/130/64 61/131/63
f 61/131/63 52/130/64 62/132/64
f 53/129/63 61/131/63 63/133/65
f 53/129/63 63/133/65 57/134/65
f 57/134/65 63/133/65 64/135/66
f 57/134/65 64/135/66 59/136/66
f 64/137/67 60/138/67 59/139/67
f 60/138/67 64/137/67 65/140/67
f 65/140/67 58/141/67 60/138/67
f 58/141/67 65/140/67 66/142/67
f 67/143/68 68/144/69 69/145/70
f 69/145/70 66/146/71 67/143/68
f 65/147/72 67/143/68 66/146/71
f 64/148/73 67/143/68 65/147/72
f 67/143/68 64/148/73 63/149/74
f 63/149/74 61/150/75 67/143/68
f 61/150/75 68/144/69 67/143/68
f 61/150/75 62/151/76 68/144/69
f 68/144/69 70/152/77 69/145/70
f 71/153/78 68/144/69 62/151/76
f 71/153/78 70/152/77 68/144/69
f 72/154/79 70/152/77 71/153/78
usemtl c_242126
f 73/155/80 74/156/80 75/157/80
f 74/156/80 73/155/80 76/158/80
f 73/155/80 77/159/80 76/158/80
f 77/159/80 73/155/80 78/160/80
f 79/161/81 80/162/81 81/163/81
f 80/162/81 79/161/81 82/164/81
f 83/165/82 79/161/82 81/163/82
f 79/161/82 83/165/82 84/166/82
f 75/167/83 74/168/83 85/169/83
f 85/169/83 74/168/83 86/170/83
f 87/171/84 80/172/84 82/173/84
f 87/171/84 82/173/84 88/174/84
f 89/175/85 83/176/85 81/177/85
f 83/176/85 89/175/85 90/178/85
f 87/179/86 81/177/86 80/180/86
f 81/177/86 87/179/86 89/175/86
f 85/181/87 73/182/87 75/183/87
f 73/182/87 85/181/87 91/184/87
f 91/184/88 78/185/88 73/182/88
f 78/185/88 91/184/88 92/186/88
f 86/187/89 91/188/89 85/189/89
f 91/188/89 86/187/89 93/190/89
f 94/191/89 91/188/89 93/190/89
f 91/188/89 94/191/89 92/192/89
f 95/193/90 89/194/90 87/195/90
f 87/195/90 88/196/90 95/193/90
f 89/194/91 95/193/91 90/197/91
f 90/197/91 95/193/91 96/198/91
f 94/199/92 77/200/92 78/201/92
f 94/199/92 78/201/92 92/202/92
f 96/203/93 84/204/93 83/171/93
f 96/203/93 83/171/93 90/172/93
f 74/205/94 93/206/94 86/207/94
f 93/206/94 74/205/94 76/208/94
f 76/208/95 94/209/95 93/206/95
f 94/209/95 76/208/95 77/210/95
f 88/211/96 79/212/96 95/213/96
f 79/212/96 88/211/96 82/214/96
f 95/213/96 84/215/96 96/216/96
f 84/215/96 95/213/96 79/212/96
usemtl c_750000
f 97/217/97 98/218/98 99/219/97
f 98/218/98 97/217/97 100/220/99
f 100/220/99 101/221/100 98/218/98
f 102/222/100 98/218/98 101/221/100
f 100/223/101 97/224/101 103/225/101
f 103/225/101 97/224/101 104/226/101
f 101/227/102 100/223/102 105/228/102
f 100/223/102 103/225/102 105/228/102
f 105/229/103 106/230/103 101/231/103
f 101/231/103 106/230/103 102/232/103
f 107/233/104 108/234/105 98/235/104
f 98/235/104 108/234/105 99/236/105
f 108/237/106 107/238/107 104/239/106
f 107/238/107 103/240/108 104/239/106
f 107/238/107 105/241/109 103/240/108
f 105/241/109 107/238/107 106/242/109
f 104/224/110 97/226/110 99/243/110
f 104/224/110 99/243/110 108/244/110
f 98/245/104 102/228/111 107/246/104
f 107/246/104 102/228/111 106/227/111
usemtl c_4f4854
f 50/247/112 70/248/113 51/249/113
f 70/248/113 50/247/112 69/250/112
f 50/247/112 58/251/114 69/250/112
f 69/250/112 58/251/114 66/252/114
f 72/253/115 55/254/115 51/255/113
f 72/253/115 51/255/113 70/256/113
o RightFoot
usemtl c_4f4854
f 109/257/116 110/258/116 111/259/116
f 110/258/116 112/260/116 111/259/116
f 113/261/117 114/262/117 115/263/117
f 114/262/117 113/261/117 116/264/117
f 117/265/118 118/266/118 119/267/118
f 118/266/118 117/265/118 120/268/118
f 121/269/119 122/270/119 123/271/119
f 122/270/119 124/272/119 123/271/119
f 125/273/120 122/270/120 126/274/120
f 126/274/120 122/270/120 121/269/120
f 125/273/120 126/274/120 127/275/120
f 128/276/121 129/277/121 130/278/121
f 129/277/121 128/276/121 124/272/121
f 131/279/121 130/278/121 129/277/121
f 131/279/121 132/280/121 130/278/121
f 132/280/121 131/279/121 133/281/121
f 134/282/122 124/272/122 128/276/122
f 124/272/122 134/282/122 123/271/122
f 132/283/123 135/284/123 136/285/123
f 135/284/123 132/283/123 133/286/123
f 124/287/124 122/288/124 137/289/124
f 137/289/124 122/288/124 138/290/124
f 139/291/125 140/292/125 117/293/125
f 117/293/125 119/294/125 139/291/125
f 141/295/126 115/296/126 114/297/126
f 115/296/126 141/295/126 142/298/126
f 115/296/126 142/298/126 143/299/126
f 110/300/127 144/301/127 134/302/127
f 134/302/127 144/301/127 123/303/127
f 144/301/127 110/300/127 109/304/127
f 138/290/128 125/305/128 145/306/128
f 125/305/128 138/290/128 122/288/128
f 136/307/129 130/308/129 132/309/129
f 130/308/129 136/307/129 146/310/129
f 117/311/130 147/312/130 120/313/130
f 147/312/130 117/311/130 140/314/130
f 148/315/131 119/316/131 118/317/131
f 130/308/132 149/318/132 128/319/132
f 149/318/132 130/308/132 146/310/132
f 148/315/133 134/320/133 119/316/133
f 134/320/133 128/319/133 119/316/133
f 149/318/134 119/316/134 128/319/134
f 119/316/134 149/318/134 139/321/134
f 148/315/135 112/322/135 110/323/135
f 110/323/135 134/320/135 148/315/135
f 150/324/136 139/325/136 151/326/136
f 151/326/137 139/325/137 142/327/137
f 149/328/137 142/327/137 139/325/137
f 150/324/138 147/329/138 140/330/138
f 140/330/138 139/325/138 150/324/138
f 146/331/139 152/332/139 153/333/139
f 152/332/139 146/331/139 136/334/139
f 152/332/139 136/334/139 135/335/139
f 149/328/139 146/331/139 153/333/139
f 149/328/139 153/333/139 137/336/139
f 154/337/140 138/338/140 145/339/140
f 138/338/140 154/337/140 155/340/140
f 141/341/141 151/326/141 142/327/141
f 151/326/141 141/341/141 156/342/141
f 137/336/142 142/327/142 149/328/142
f 155/343/143 150/344/143 151/345/143
f 150/344/143 155/343/143 118/346/143
f 121/347/143 118/346/143 155/343/143
f 118/346/143 121/347/143 148/348/143
f 126/349/144 154/350/144 127/351/144
f 154/350/144 126/349/144 155/343/144
f 155/343/144 126/349/144 121/347/144
f 120/352/145 150/344/145 118/346/145
f 150/344/145 120/352/145 147/353/145
f 112/354/146 148/348/146 157/355/146
f 148/348/146 121/347/146 157/355/146
f 157/355/146 111/356/146 112/354/146
f 156/357/147 113/358/147 151/345/147
f 151/345/147 113/358/147 155/343/147
f 113/358/147 156/357/147 116/359/147
f 145/360/148 127/361/148 154/362/148
f 127/361/148 145/360/148 125/363/148
f 156/364/149 141/365/149 114/366/149
f 114/366/149 116/367/149 156/364/149
f 138/368/150 155/369/150 143/370/150
f 144/371/151 157/372/151 123/373/151
f 157/372/151 121/374/151 123/373/151
f 143/370/152 155/369/152 115/375/152
f 113/376/152 115/375/152 155/369/152
f 109/377/153 157/372/153 144/371/153
f 157/372/153 109/377/153 111/378/153
f 143/370/154 137/379/154 138/368/154
f 142/380/142 137/379/142 143/370/142
f 137/379/155 153/381/155 129/382/155
f 129/382/155 124/383/155 137/379/155
f 135/384/156 131/385/156 152/386/156
f 131/385/156 135/384/156 133/387/156
f 152/386/156 131/385/156 129/382/156
f 152/386/156 129/382/156 153/381/156
o Neck
usemtl c_2e2a31
f 158/388/157 159/389/158 160/390/159
f 159/389/158 161/391/160 160/390/159
f 162/392/161 159/389/158 158/388/157
f 163/393/162 162/392/161 158/388/157
f 161/391/160 159/389/158 54/394/163
f 162/392/161 54/394/163 159/389/158
f 54/394/163 55/395/164 161/391/160
f 54/394/163 162/392/161 52/396/165
f 62/397/166 52/398/166 162/399/166
f 62/397/166 162/399/166 164/400/166
f 163/401/167 165/402/167 164/403/167
f 163/401/167 164/403/167 162/404/167
f 166/405/168 164/406/169 165/407/170
f 165/407/170 167/408/171 166/405/168
f 167/408/171 165/407/170 168/409/172
f 169/410/173 166/405/168 167/408/171
f 166/405/168 169/410/173 170/411/174
f 164/406/169 166/405/168 171/412/175
f 171/412/175 170/411/174 172/413/176
f 171/412/175 71/394/177 164/406/169
f 71/394/177 172/413/176 72/414/178
f 71/394/177 62/415/179 164/406/169
f 170/411/174 171/412/175 166/405/168
f 172/413/176 71/394/177 171/412/175
usemtl c_750000
f 173/416/180 174/417/181 175/418/180
f 174/417/181 173/416/180 176/419/181
f 176/419/181 177/420/182 174/417/181
f 178/421/182 174/417/181 177/420/182
f 176/422/183 173/423/183 179/424/183
f 179/424/183 173/423/183 180/425/183
f 177/426/184 176/422/184 181/427/184
f 176/422/184 179/424/184 181/427/184
f 181/428/185 182/429/185 177/430/185
f 177/430/185 182/429/185 178/431/185
f 183/432/186 184/433/187 174/434/186
f 174/434/186 184/433/187 175/435/187
f 184/436/188 183/437/189 180/438/188
f 183/437/189 179/439/189 180/438/188
f 183/437/189 181/440/190 179/439/189
f 181/440/190 183/437/189 182/441/190
f 180/423/191 173/425/191 175/442/191
f 180/423/191 175/442/191 184/443/191
f 174/444/186 178/427/192 183/445/186
f 183/445/186 178/427/192 182/426/192
usemtl c_4f4854
f 161/446/183 172/447/183 185/448/193
f 161/446/183 185/448/193 186/449/193
f 172/447/183 161/446/183 55/450/194
f 172/447/183 55/450/194 72/451/194
o Tail
usemtl c_750000
f 187/452/195 188/453/196 189/454/197
f 187/452/195 189/454/197 190/455/195
f 191/456/198 189/454/197 188/453/196
f 189/454/197 191/456/198 192/457/198
f 193/458/199 192/457/198 191/456/198
f 192/457/198 193/458/199 194/459/199
f 195/460/200 194/459/199 193/458/199
f 194/459/199 195/460/200 196/461/200
f 197/462/201 196/461/200 195/460/200
f 197/462/201 195/460/200 198/463/201
f 198/463/201 199/464/202 197/462/201
f 199/464/202 198/463/201 200/465/202
f 200/465/202 201/466/203 199/464/202
f 201/466/203 200/465/202 202/467/203
f 203/468/204 204/469/205 205/470/204
f 204/469/205 203/468/204 206/471/206
f 207/472/207 204/469/205 206/471/206
f 207/472/207 208/473/207 204/469/205
f 208/473/207 207/472/207 209/474/208
f 209/474/208 210/475/208 208/473/207
f 211/476/209 210/475/208 209/474/208
f 210/475/208 211/476/209 212/477/209
f 211/476/209 213/478/210 212/477/209
f 213/478/210 211/476/209 214/479/210
f 214/479/210 215/480/211 213/478/210
f 215/480/211 214/479/210 216/481/211
f 217/482/212 215/480/211 216/481/211
f 215/480/211 217/482/212 218/483/212
f 219/484/213 220/485/214 221/486/215
f 219/484/213 222/487/216 220/485/214
f 222/487/216 219/484/213 223/488/217
f 223/488/217 224/489/217 222/487/216
f 225/490/218 224/489/217 223/488/217
f 224/489/217 225/490/218 226/491/218
f 225/490/218 227/492/219 226/491/218
f 227/492/219 225/490/218 228/493/219
f 228/493/219 229/494/220 227/492/219
f 229/494/220 228/493/219 230/495/220
f 230/495/220 231/496/221 229/494/220
f 231/496/221 230/495/220 232/497/221
f 212/498/222 213/499/223 233/500/222
f 233/500/222 213/499/223 234/501/223
f 215/502/224 234/501/223 213/499/223
f 234/501/223 215/502/224 235/503/224
f 215/502/224 218/504/225 235/503/224
f 235/503/224 218/504/225 236/505/225
f 237/506/226 238/507/227 227/508/226
f 238/507/227 226/509/227 227/508/226
f 227/508/226 239/510/228 237/506/226
f 239/510/228 227/508/226 229/511/228
f 239/510/228 229/511/228 231/512/229
f 240/513/229 239/510/228 231/512/229
f 241/514/230 196/515/231 197/516/230
f 196/515/231 241/514/230 242/517/231
f 199/518/232 241/514/230 197/516/230
f 241/514/230 199/518/232 243/519/232
f 199/518/232 244/520/233 243/519/232
f 244/520/233 199/518/232 201/521/233
f 245/522/234 205/523/234 246/524/234
f 205/523/234 245/522/234 203/525/234
f 247/526/235 248/527/235 249/528/235
f 249/528/235 248/527/235 250/529/235
f 190/530/236 251/531/236 187/532/236
f 251/531/236 252/533/236 187/532/236
f 204/534/237 253/535/237 246/524/238
f 204/534/237 246/524/238 205/523/238
f 208/536/239 253/535/237 204/534/237
f 208/536/239 254/537/239 253/535/237
f 210/538/240 254/537/239 208/536/239
f 210/538/240 255/539/240 254/537/239
f 212/540/241 255/539/240 210/538/240
f 212/540/241 233/541/241 255/539/240
f 256/542/242 249/528/243 220/543/242
f 249/528/243 256/542/242 247/526/243
f 222/544/244 256/542/242 220/543/242
f 222/544/244 257/545/244 256/542/242
f 224/546/245 257/545/244 222/544/244
f 224/546/245 258/547/245 257/545/244
f 224/546/245 238/548/246 258/547/245
f 238/548/246 224/546/245 226/549/246
f 189/550/247 251/531/248 190/530/248
f 251/531/248 189/550/247 259/551/247
f 189/550/247 260/552/249 259/551/247
f 260/552/249 189/550/247 192/553/249
f 192/553/249 261/554/250 260/552/249
f 261/554/250 192/553/249 194/555/250
f 196/556/251 261/554/250 194/555/250
f 261/554/250 196/556/251 242/557/251
f 250/529/252 221/558/215 249/528/252
f 249/528/252 221/558/215 220/543/214
f 251/531/253 259/551/254 262/559/255
f 251/531/253 262/559/255 252/533/253
f 256/560/256 248/561/257 247/562/257
f 248/561/257 256/560/256 263/563/258
f 256/560/256 264/564/259 263/563/258
f 264/564/259 256/560/256 257/565/259
f 257/565/259 265/566/260 264/564/259
f 265/566/260 257/565/259 258/567/260
f 258/567/260 266/568/261 265/566/260
f 266/568/261 258/567/260 238/569/261
f 238/569/261 237/570/262 266/568/261
f 266/568/261 237/570/262 267/571/262
f 267/571/262 237/570/262 239/572/263
f 239/572/263 268/573/263 267/571/262
f 268/573/263 239/572/263 240/574/264
f 240/574/264 269/575/264 268/573/263
f 253/576/265 245/577/266 246/578/266
f 245/577/266 253/576/265 270/579/267
f 253/576/265 271/580/268 270/579/267
f 271/580/268 253/576/265 254/581/268
f 254/581/268 272/582/269 271/580/268
f 272/582/269 254/581/268 255/583/269
f 255/583/269 273/584/270 272/582/269
f 273/584/270 255/583/269 233/585/270
f 233/585/270 234/586/271 273/584/270
f 273/584/270 234/586/271 274/587/271
f 274/587/271 234/586/271 235/588/272
f 235/588/272 275/589/272 274/587/271
f 235/588/272 276/590/273 275/589/272
f 276/590/273 235/588/272 236/591/273
f 277/592/274 262/593/255 259/594/254
f 277/592/274 259/594/254 260/595/275
f 260/595/275 278/596/276 277/592/274
f 278/596/276 260/595/275 261/597/276
f 261/597/276 279/598/277 278/596/276
f 261/597/276 242/599/277 279/598/277
f 241/600/278 279/598/277 242/599/277
f 279/598/277 241/600/278 280/601/278
f 243/602/279 280/601/278 241/600/278
f 280/601/278 243/602/279 281/603/279
f 244/604/280 281/603/279 243/602/279
f 281/603/279 244/604/280 282/605/280
f 270/606/281 206/607/281 203/608/281
f 270/606/281 203/608/281 245/609/281
f 221/610/282 248/611/282 263/612/282
f 248/611/282 221/610/282 250/613/282
f 262/614/283 187/615/283 252/616/283
f 187/615/283 262/614/283 188/617/283
f 228/618/284 266/619/285 267/620/284
f 266/619/285 228/618/284 225/621/285
f 267/620/284 230/622/286 228/618/284
f 230/622/286 267/620/284 268/623/286
f 230/622/286 268/623/286 269/624/287
f 232/625/287 230/622/286 269/624/287
f 280/626/288 195/627/289 279/628/289
f 195/627/289 280/626/288 198/629/288
f 281/630/290 198/629/288 280/626/288
f 198/629/288 281/630/290 200/631/290
f 281/630/290 202/632/291 200/631/290
f 202/632/291 281/630/290 282/633/291
f 274/634/292 214/635/292 211/636/293
f 274/634/292 211/636/293 273/637/293
f 214/635/292 274/634/292 275/638/294
f 214/635/292 275/638/294 216/639/294
f 276/640/295 216/639/294 275/638/294
f 276/640/295 217/641/295 216/639/294
f 236/642/296 218/643/296 217/644/296
f 236/642/296 217/644/296 276/645/296
f 240/646/297 231/647/297 232/648/297
f 232/648/297 269/649/297 240/646/297
f 201/650/298 282/651/298 244/652/298
f 282/651/298 201/650/298 202/653/298
f 207/654/299 206/655/300 271/656/299
f 271/656/299 206/655/300 270/657/300
f 272/658/301 207/654/299 271/656/299
f 272/658/301 209/659/301 207/654/299
f 273/660/302 209/659/301 272/658/301
f 273/660/302 211/661/302 209/659/301
f 219/662/303 221/559/304 264/663/303
f 264/663/303 221/559/304 263/664/304
f 264/663/303 223/665/305 219/662/303
f 223/665/305 264/663/303 265/666/305
f 266/667/306 223/665/305 265/666/305
f 266/667/306 225/668/306 223/665/305
f 191/669/307 262/558/308 277/670/307
f 262/558/308 191/669/307 188/671/308
f 278/672/309 191/669/307 277/670/307
f 191/669/307 278/672/309 193/673/309
f 278/672/309 195/674/310 193/673/309
f 195/674/310 278/672/309 279/675/310
o LeftWing
usemtl c_1c1a1e
f 283/676/311 284/677/311 285/678/311
f 284/677/311 286/679/311 285/678/311
f 286/679/311 284/677/311 287/680/311
f 288/681/312 284/677/311 283/676/311
f 284/677/311 289/682/311 290/683/311
f 289/682/311 284/677/311 291/684/311
f 292/685/311 291/684/311 284/677/311
f 291/684/311 292/685/311 293/686/311
f 288/681/312 292/685/311 284/677/311
f 292/685/311 288/681/312 294/687/313
f 288/681/312 295/688/314 294/687/313
f 295/688/314 288/681/312 296/689/315
f 296/689/315 288/681/312 297/690/316
f 298/691/317 295/688/314 296/689/315
f 295/688/314 298/691/317 299/692/317
f 299/692/317 300/693/317 295/688/314
f 301/694/318 298/695/318 302/696/318
f 298/695/318 301/694/318 299/697/318
f 300/698/319 301/694/319 303/699/319
f 301/694/319 300/698/319 299/697/319
f 304/700/320 289/701/320 305/702/320
f 289/701/320 304/700/320 290/703/320
f 306/704/321 293/705/321 307/706/321
f 293/705/321 306/704/321 291/707/321
f 294/708/322 308/709/323 292/710/324
f 307/706/325 292/710/324 308/709/323
f 292/710/324 307/706/325 293/705/325
f 308/709/323 294/708/322 309/711/326
f 310/712/327 309/711/326 294/708/322
f 295/713/327 310/712/327 294/708/322
f 291/707/328 305/702/328 289/701/328
f 305/702/328 291/707/328 306/704/328
f 284/714/329 311/715/329 287/716/329
f 311/715/329 284/714/329 312/717/329
f 300/718/330 303/719/330 295/713/330
f 303/719/330 310/712/330 295/713/330
f 313/720/331 312/721/331 314/722/331
f 315/723/331 312/721/331 313/720/331
f 311/724/331 312/721/331 315/723/331
f 312/721/331 316/725/332 314/722/331
f 312/721/331 304/726/331 305/727/331
f 306/728/331 312/721/331 305/727/331
f 308/729/331 312/721/331 306/728/331
f 308/729/331 306/728/331 307/730/331
f 312/721/331 308/729/331 316/725/332
f 309/731/333 316/725/332 308/729/331
f 310/732/334 316/725/332 309/731/333
f 317/733/335 316/725/332 310/732/334
f 316/725/332 317/733/335 318/734/336
f 310/732/334 302/735/337 317/733/335
f 302/735/337 310/732/334 301/736/337
f 301/736/337 310/732/334 303/737/337
f 285/738/338 315/739/339 313/740/340
f 315/739/339 285/738/338 286/741/341
f 287/742/342 315/739/339 286/741/341
f 315/739/339 287/742/342 311/743/342
f 313/740/340 283/744/343 285/738/338
f 283/744/343 313/740/340 314/745/344
f 284/746/345 304/747/345 312/748/345
f 304/747/345 284/746/345 290/749/345
f 297/750/346 316/751/346 318/752/346
f 316/751/346 297/750/346 288/753/346
f 296/754/347 302/755/348 298/756/348
f 302/755/348 296/754/347 317/757/349
f 297/758/350 317/757/349 296/754/347
f 317/757/349 297/758/350 318/759/350
f 314/760/344 288/761/351 283/762/343
f 288/761/351 314/760/344 316/763/351
o LeftFoot
usemtl c_4f4854
f 319/764/352 320/765/352 321/766/352
f 320/765/353 322/767/353 321/766/353
f 322/767/353 323/768/353 321/766/353
f 324/769/354 319/764/354 325/770/354
f 325/770/354 319/764/354 321/766/354
f 326/771/355 327/772/355 328/773/355
f 329/774/355 327/772/355 326/771/355
f 327/772/355 329/774/355 330/775/355
f 329/774/355 323/768/355 330/775/355
f 331/776/355 330/775/355 323/768/355
f 332/777/356 333/778/356 334/779/356
f 335/780/356 334/779/356 333/778/356
f 336/781/357 320/765/357 337/782/357
f 320/765/357 336/781/357 322/767/357
f 322/767/358 331/776/358 323/768/358
f 338/783/359 326/784/359 328/785/359
f 328/785/359 339/786/359 338/783/359
f 331/787/360 334/788/360 340/789/360
f 331/787/360 340/789/360 341/790/360
f 321/791/361 342/792/361 325/793/361
f 342/792/361 321/791/361 343/794/361
f 344/795/362 322/796/362 345/797/362
f 322/796/362 336/798/362 345/797/362
f 346/799/362 345/797/362 336/798/362
f 347/800/363 348/801/363 349/802/363
f 348/801/363 347/800/363 350/803/363
f 349/802/363 351/804/363 347/800/363
f 334/788/364 352/805/364 340/789/364
f 352/805/364 334/788/364 335/806/364
f 338/807/365 353/808/365 326/809/365
f 326/809/365 353/808/365 329/810/365
f 342/811/366 324/812/366 325/813/366
f 324/812/366 342/811/366 354/814/366
f 355/815/367 356/816/367 343/817/367
f 353/808/368 323/818/368 329/810/368
f 323/818/368 353/808/368 357/819/368
f 355/815/369 343/817/369 349/820/369
f 349/820/369 343/817/369 357/819/369
f 323/818/370 343/817/370 321/821/370
f 343/817/370 323/818/370 357/819/370
f 358/822/371 355/815/371 348/823/371
f 348/823/371 355/815/371 349/820/371
f 350/824/372 359/825/372 348/826/372
f 348/826/372 359/825/372 358/827/372
f 360/828/373 361/829/373 346/830/373
f 346/830/373 361/829/373 345/831/373
f 342/832/374 356/833/374 354/834/374
f 356/833/374 342/832/374 343/835/374
f 362/836/375 351/837/375 340/838/375
f 341/839/375 340/838/375 351/837/375
f 363/840/376 364/841/376 352/842/376
f 340/838/376 352/842/376 364/841/376
f 364/841/376 362/836/376 340/838/376
f 365/843/377 338/844/377 339/845/377
f 338/844/377 365/843/377 353/846/377
f 353/846/377 365/843/377 366/847/377
f 366/847/377 357/848/377 353/846/377
f 357/848/377 366/847/377 341/839/377
f 349/849/378 357/848/378 341/839/378
f 341/839/378 351/837/378 349/849/378
f 362/850/379 356/851/379 355/852/379
f 332/853/379 356/851/379 362/850/379
f 356/851/379 332/853/379 319/854/379
f 319/854/379 332/853/379 320/855/379
f 333/856/144 364/857/144 363/858/144
f 364/857/144 333/856/144 332/853/144
f 364/857/144 332/853/144 362/850/144
f 319/854/380 354/859/380 356/851/380
f 354/859/380 319/854/380 324/860/380
f 362/850/381 355/852/381 367/861/381
f 355/852/381 358/862/381 367/861/381
f 367/861/381 358/862/381 359/863/381
f 361/864/382 337/865/382 320/855/382
f 337/865/382 361/864/382 360/866/382
f 320/855/382 332/853/382 361/864/382
f 335/867/383 363/868/383 352/869/383
f 363/868/383 335/867/383 333/870/383
f 336/871/384 337/872/384 346/873/384
f 346/873/384 337/872/384 360/874/384
f 334/875/385 344/876/385 332/877/385
f 351/878/386 367/879/386 347/880/386
f 367/879/386 351/878/386 362/881/386
f 345/882/387 361/883/387 332/877/387
f 345/882/387 332/877/387 344/876/387
f 350/884/388 367/879/388 359/885/388
f 367/879/388 350/884/388 347/880/388
f 344/876/389 334/875/389 331/886/389
f 331/886/358 322/887/358 344/876/358
f 330/888/390 331/886/390 366/889/390
f 366/889/390 331/886/390 341/890/390
f 328/891/391 365/892/391 339/893/391
f 365/892/391 328/891/391 327/894/391
f 365/892/391 327/894/391 366/889/391
f 327/894/391 330/888/391 366/889/391
o RightLeg
usemtl c_2e2a31
f 368/895/392 369/896/392 370/897/392
f 369/896/392 368/895/392 371/898/392
f 370/897/393 372/899/393 368/895/393
f 372/899/393 370/897/393 373/900/393
f 374/901/3 371/902/3 375/903/3
f 371/902/3 374/901/3 369/904/3
f 370/905/394 376/906/394 373/907/394
f 376/906/394 377/908/394 373/907/394
f 376/906/394 370/905/394 374/909/394
f 374/909/394 370/905/394 369/910/394
f 376/911/395 375/912/395 378/913/395
f 375/912/395 376/911/395 374/914/395
f 378/913/396 379/915/396 376/911/396
f 379/915/396 377/916/396 376/911/396
f 377/917/7 372/918/7 373/919/7
f 372/918/7 377/917/7 379/920/7
f 371/909/397 378/905/397 375/910/397
f 378/905/397 371/909/397 368/906/397
f 378/905/398 368/906/398 372/921/398
f 378/905/398 372/921/398 379/922/398
o Head
usemtl c_2e2a31
f 380/923/399 381/924/400 158/925/401
f 380/923/399 158/925/401 160/926/402
f 381/924/400 163/927/403 158/925/401
f 381/924/400 382/928/404 163/927/403
f 381/924/400 383/929/405 382/928/404
f 380/923/399 384/930/406 381/924/400
f 383/929/405 381/924/400 384/930/406
f 384/930/406 380/923/399 385/931/407
f 383/929/405 384/930/406 386/932/408
f 387/933/409 383/934/409 386/935/409
f 387/933/409 386/935/409 388/936/409
f 382/937/410 168/938/410 165/939/411
f 382/937/410 165/939/411 163/940/411
f 383/941/412 168/938/410 382/937/410
f 383/941/412 387/942/412 168/938/410
f 167/943/413 387/944/414 389/945/415
f 167/943/413 389/945/415 169/946/416
f 168/947/30 387/944/414 167/943/413
f 388/948/417 389/945/415 387/944/414
f 169/946/416 389/945/415 390/949/416
usemtl c_ffb000
f 391/950/418 392/951/419 393/952/420
f 394/953/419 393/952/420 392/951/419
f 395/954/421 391/950/418 393/952/420
f 391/950/418 395/954/421 396/955/421
f 397/956/422 398/957/423 399/958/424
f 398/957/423 397/956/422 400/959/423
f 399/958/424 401/960/425 397/956/422
f 401/960/425 399/958/424 402/961/425
f 403/962/426 397/963/427 404/964/427
f 403/962/426 400/965/426 397/963/427
f 405/966/428 394/967/429 406/968/429
f 407/969/430 393/970/428 405/966/428
f 407/969/430 395/971/430 393/970/428
f 405/966/428 393/970/428 394/967/429
f 403/972/431 404/973/432 408/974/431
f 409/975/433 407/976/434 405/977/435
f 407/976/434 409/975/433 410/978/434
f 405/977/435 411/979/436 409/975/433
f 411/979/436 405/977/435 406/980/436
f 412/981/437 404/973/432 413/982/438
f 404/973/432 412/981/437 408/974/431
f 412/981/437 413/982/438 414/983/438
f 391/984/439 409/985/439 411/986/440
f 391/984/439 411/986/440 392/987/440
f 396/988/441 409/985/439 391/984/439
f 396/988/441 410/989/441 409/985/439
f 398/969/442 408/971/442 412/970/443
f 398/969/442 412/970/443 399/966/443
f 402/968/444 399/966/443 412/970/443
f 402/968/444 412/970/443 414/967/444
f 397/990/427 401/991/445 404/992/427
f 404/992/427 401/991/445 413/993/445
f 401/991/445 414/994/446 413/993/445
f 414/994/446 401/991/445 402/995/446
f 411/996/440 394/997/447 392/998/440
f 394/997/447 411/996/440 406/999/447
usemtl c_a0a0a0_neon
f 415/1000/448 416/1001/448 417/1002/448
f 417/1002/448 416/1001/448 418/1003/448
f 417/1002/448 418/1003/448 419/1004/448
f 417/1002/448 419/1004/448 420/1005/448
f 416/1001/448 415/1000/448 421/1006/448
f 421/1006/448 415/1000/448 422/1007/448
f 415/1000/448 423/1008/448 422/1007/448
f 423/1008/448 415/1000/448 424/1009/448
f 423/1008/448 424/1009/448 425/1010/448
f 424/1009/448 426/1011/448 425/1010/448
f 427/1012/449 428/1013/449 429/1009/449
f 428/1013/449 427/1012/449 430/1014/449
f 430/1014/449 427/1012/449 431/1015/449
f 431/1015/449 427/1012/449 432/1016/449
f 429/1009/449 428/1013/449 433/1017/449
f 434/1010/449 429/1009/449 433/1017/449
f 435/1008/449 429/1009/449 434/1010/449
f 435/1008/449 436/1000/449 429/1009/449
f 436/1000/449 435/1008/449 437/1018/449
f 436/1000/449 437/1018/449 438/1019/449
usemtl c_111111_neon
f 439/1020/448 440/1021/448 441/1022/448
f 440/1021/448 439/1020/448 442/1023/448
f 443/1021/449 444/1022/449 445/1024/449
f 445/1024/449 446/1025/449 443/1021/449
usemtl c_750000
f 447/1026/450 448/1027/451 449/1028/450
f 448/1027/451 447/1026/450 450/1029/451
f 450/1029/451 451/1030/452 448/1027/451
f 452/1031/452 448/1027/451 451/1030/452
f 450/1032/453 447/1033/453 453/1034/453
f 453/1034/453 447/1033/453 454/1035/453
f 451/1036/454 450/1032/454 455/1037/454
f 450/1032/454 453/1034/454 455/1037/454
f 455/1038/455 456/1039/455 451/1040/455
f 451/1040/455 456/1039/455 452/1041/455
f 457/1042/456 458/1043/444 448/1044/456
f 448/1044/456 458/1043/444 449/1045/444
f 458/1046/457 457/1047/458 454/1048/457
f 457/1047/458 453/1049/458 454/1048/457
f 457/1047/458 455/1050/459 453/1049/458
f 455/1050/459 457/1047/458 456/1051/459
f 454/1033/460 447/1035/460 449/1052/460
f 454/1033/460 449/1052/460 458/1053/460
f 448/1054/456 452/1037/461 457/1055/456
f 457/1055/456 452/1037/461 456/1036/461
f 459/1056/462 460/1057/463 461/1058/462
f 460/1057/463 459/1056/462 462/1059/464
f 462/1059/464 463/1060/465 460/1057/463
f 464/1061/465 460/1057/463 463/1060/465
f 462/1062/466 459/1063/466 465/1064/466
f 465/1064/466 459/1063/466 466/1065/466
f 463/1066/467 462/1062/467 467/1067/467
f 462/1062/467 465/1064/467 467/1067/467
f 467/1068/468 468/1069/468 463/1070/468
f 463/1070/468 468/1069/468 464/1071/468
f 469/1072/469 470/1073/470 460/1074/469
f 460/1074/469 470/1073/470 461/1075/470
f 470/1076/471 469/1077/472 466/1078/471
f 469/1077/472 465/1079/473 466/1078/471
f 469/1077/472 467/1080/474 465/1079/473
f 467/1080/474 469/1077/472 468/1081/474
f 466/1063/475 459/1065/475 461/1082/475
f 466/1063/475 461/1082/475 470/1083/475
f 460/1084/469 464/1067/476 469/1085/469
f 469/1085/469 464/1067/476 468/1066/476
usemtl c_4f4854
f 390/1086/7 385/1087/7 380/1088/7
f 390/1086/7 380/1088/7 169/1089/7
f 169/1090/477 380/1091/477 160/1092/477
f 169/1090/477 160/1092/477 170/1093/477
usemtl c_1c1a1e
f 395/1094/478 471/1095/479 396/1096/478
f 471/1095/479 395/1094/478 472/1097/479
f 473/1098/480 471/1095/479 472/1097/479
f 471/1095/479 473/1098/480 474/1099/481
f 475/1100/482 474/1099/481 473/1098/480
f 474/1099/481 475/1100/482 476/1101/482
f 477/1102/480 478/1103/483 479/1104/480
f 478/1103/483 477/1102/480 480/1105/483
f 479/1104/480 481/1106/484 477/1102/480
f 481/1106/484 479/1104/480 482/1107/485
f 482/1107/485 400/1108/486 481/1106/484
f 400/1108/486 482/1107/485 398/1109/486
f 481/1110/487 483/1111/488 477/1112/488
f 484/1113/489 477/1112/488 483/1111/488
f 480/1114/489 477/1112/488 484/1113/489
f 483/1111/488 481/1110/487 485/1115/487
f 485/1115/487 481/1110/487 400/1116/3
f 485/1115/487 400/1116/3 403/1117/3
f 486/1118/490 395/1119/491 407/1120/491
f 487/1121/492 475/1122/492 473/1123/493
f 487/1121/492 473/1123/493 488/1124/493
f 486/1118/490 472/1125/490 395/1119/491
f 488/1124/493 472/1125/490 486/1118/490
f 488/1124/493 473/1123/493 472/1125/490
f 484/1126/494 478/1127/494 480/1128/494
f 478/1127/494 484/1126/494 489/1129/494
f 487/1130/495 476/1131/495 475/1132/495
f 476/1131/495 487/1130/495 490/1133/495
f 491/1134/496 487/1135/497 488/1136/498
f 487/1135/497 491/1134/496 490/1137/497
f 488/1136/498 492/1138/499 491/1134/496
f 492/1138/499 488/1136/498 486/1139/499
f 407/1140/500 492/1138/499 486/1139/499
f 407/1140/500 410/1141/500 492/1138/499
f 493/1142/498 485/1143/501 494/1144/502
f 403/1145/503 494/1144/502 485/1143/501
f 403/1145/503 408/1146/503 494/1144/502
f 485/1143/501 493/1142/498 483/1147/498
f 489/1148/504 483/1147/498 493/1142/498
f 483/1147/498 489/1148/504 484/1149/504
f 492/1150/505 471/1151/505 474/1152/506
f 410/1153/507 471/1151/505 492/1150/505
f 410/1153/507 396/1154/507 471/1151/505
f 492/1150/505 474/1152/506 491/1155/506
f 491/1155/506 474/1152/506 476/1156/508
f 491/1155/506 476/1156/508 490/1157/508
f 408/1119/509 398/1120/509 482/1118/510
f 408/1119/509 482/1118/510 494/1125/510
f 494/1125/510 482/1118/510 493/1123/511
f 482/1118/510 479/1124/511 493/1123/511
f 479/1124/511 489/1122/512 493/1123/511
f 489/1122/512 479/1124/511 478/1121/512
f 386/1158/513 384/1159/514 495/1160/513
f 386/1158/513 495/1160/513 496/1161/513
f 384/1159/514 497/1162/513 495/1160/513
f 498/1163/515 386/1158/513 496/1161/513
f 497/1162/513 384/1159/514 497/1164/516
f 498/1163/515 496/1161/513 499/1165/515
f 384/1159/514 500/1166/517 497/1164/516
f 499/1165/515 501/1167/517 498/1163/515
f 384/1159/514 385/1168/517 500/1166/517
f 502/1169/517 498/1163/515 501/1167/517
f 502/1169/517 500/1166/517 385/1168/517
f 500/1166/517 502/1169/517 501/1167/517
f 503/1170/3 504/1171/3 429/1172/3
f 429/1172/3 436/1173/3 503/1170/3
f 424/1174/3 415/1175/3 501/1176/3
f 500/1177/3 501/1176/3 415/1175/3
f 505/1178/518 445/1179/518 506/1180/518
f 436/1181/518 445/1179/518 505/1178/518
f 436/1181/518 505/1178/518 503/1182/518
f 441/1183/518 499/1184/518 496/1185/518
f 441/1183/518 424/1186/518 499/1184/518
f 499/1184/518 424/1186/518 501/1187/518
f 507/1188/519 504/1189/519 503/1190/519
f 508/1191/520 507/1188/519 503/1190/519
f 508/1191/520 503/1190/519 505/1192/520
f 508/1191/520 505/1192/520 506/1193/521
f 388/1194/521 508/1191/520 506/1193/521
f 506/1193/521 509/1195/521 388/1194/521
f 389/1196/522 388/1194/521 509/1195/521
f 510/1197/521 389/1196/522 509/1195/521
f 510/1198/523 389/1196/522 510/1197/521
f 389/1196/522 510/1198/523 504/1189/519
f 504/1189/519 507/1188/519 390/1199/519
f 390/1199/519 389/1196/522 504/1189/519
f 385/1200/524 390/1201/524 507/1202/524
f 385/1200/524 507/1202/524 502/1203/524
f 506/1204/7 427/1175/7 509/1205/7
f 427/1175/7 506/1204/7 445/1174/7
f 496/1206/7 417/1172/7 441/1173/7
f 417/1172/7 496/1206/7 495/1207/7
f 498/1208/525 388/1209/525 386/1210/525
f 388/1209/525 498/1208/525 508/1211/525
f 498/1208/526 507/1212/526 508/1211/526
f 507/1212/526 498/1208/526 502/1213/526
f 427/1214/527 510/1215/527 510/1216/527
f 427/1214/527 510/1216/527 509/1217/527
f 510/1215/527 427/1214/527 429/1218/527
f 510/1215/527 429/1218/527 504/1219/527
f 495/1220/527 497/1221/527 417/1222/527
f 497/1223/527 417/1222/527 497/1221/527
f 417/1222/527 497/1223/527 415/1224/527
f 497/1223/527 500/1225/527 415/1224/527
usemtl c_37383e_neon
f 422/1226/448 511/1227/448 420/1228/448
f 420/1228/448 511/1227/448 512/1229/448
f 420/1228/448 512/1229/448 439/1230/448
f 511/1227/448 422/1226/448 513/1231/448
f 513/1231/448 422/1226/448 442/1232/448
f 422/1226/448 514/1233/448 442/1232/448
f 514/1233/448 422/1226/448 426/1234/448
f 426/1234/448 440/1235/448 514/1233/448
f 432/1236/449 515/1237/449 434/1234/449
f 434/1234/449 515/1237/449 443/1233/449
f 515/1237/449 432/1236/449 516/1238/449
f 432/1236/449 517/1239/449 516/1238/449
f 517/1239/449 432/1236/449 444/1240/449
f 518/1232/449 434/1234/449 443/1233/449
f 434/1234/449 518/1232/449 438/1226/449
f 518/1232/449 446/1241/449 438/1226/449
