# Roblox asset pack: gift_chest (props), from the Studio model "GiftChest". Exported with Export Selection, split by tools/build_creatures.py: one object per rigid body. Units: studs. +Y up, front faces -Z, pivot (bottom centre) at the origin.
mtllib gift_chest.mtl

v -2.58172 4.25000 1.73744
v -2.58108 4.25000 -1.64190
v -2.58172 2.84000 1.73744
v -2.58108 2.84000 -1.64190
v 2.58172 4.25000 -1.64099
v 2.58108 4.25000 1.73835
v 2.58172 2.84000 -1.64099
v 2.58108 2.84000 1.73835
v -2.55343 2.84000 1.70914
v -2.54926 2.84000 -1.61008
v -2.55343 0.04000 1.70914
v -2.54926 0.04000 -1.61008
v 2.55343 2.84000 -1.61269
v 2.54926 2.84000 1.70654
v 2.55343 0.04000 -1.61269
v 2.54926 0.04000 1.70654
v -0.00311 4.03000 -1.51052
v -0.00332 4.03000 -1.76530
v -0.41557 3.61000 -1.51286
v -0.41578 3.61000 -1.76762
v 0.41613 3.61000 -1.77011
v 0.41634 3.61000 -1.51532
v -0.00332 3.20000 -1.76530
v -0.00311 3.20000 -1.51052
v -1.40085 4.28000 1.78693
v -1.40170 4.28000 -1.69288
v -1.40085 2.81000 1.78693
v -1.40170 2.81000 -1.69288
v -1.01958 4.28000 -1.69260
v -1.01866 4.28000 1.78729
v -1.01958 2.81000 -1.69260
v -1.01866 2.81000 1.78729
v 1.01958 4.28000 1.78906
v 1.01866 4.28000 -1.69083
v 1.01958 2.81000 1.78906
v 1.01866 2.81000 -1.69083
v 1.40085 4.28000 -1.69047
v 1.40170 4.28000 1.78933
v 1.40085 2.81000 -1.69047
v 1.40170 2.81000 1.78933
v -1.40262 2.88000 1.75687
v -1.39993 2.88000 -1.66283
v -1.40262 0.00000 1.75687
v -1.39993 0.00000 -1.66283
v -1.01774 2.88000 -1.66248
v -1.02043 2.88000 1.75724
v -1.01774 0.00000 -1.66248
v -1.02043 0.00000 1.75724
v 1.01774 2.88000 1.75893
v 1.02043 2.88000 -1.66078
v 1.01774 0.00000 1.75893
v 1.02043 0.00000 -1.66078
v 1.40262 2.88000 -1.66043
v 1.39993 2.88000 1.75929
v 1.40262 0.00000 -1.66043
v 1.39993 0.00000 1.75929
v -0.38346 3.23000 -1.48075
v -0.38092 3.23000 -1.78933
v -0.38346 2.33000 -1.48075
v -0.38092 2.33000 -1.78933
v 0.38339 3.23000 -1.78870
v 0.38085 3.23000 -1.48012
v 0.38339 2.33000 -1.78870
v 0.38085 2.33000 -1.48012
v 2.15745 2.87000 -1.21671
v 2.15279 2.87000 -1.64565
v 2.15745 0.01000 -1.21671
v 2.15279 0.01000 -1.64565
v 2.58879 2.87000 -1.64805
v 2.58631 2.87000 -1.21212
v 2.58879 0.01000 -1.64805
v 2.58631 0.01000 -1.21212
v -2.58879 2.87000 1.74451
v -2.58631 2.87000 1.30858
v -2.58879 0.01000 1.74451
v -2.58631 0.01000 1.30858
v -2.15745 2.87000 1.31317
v -2.15286 2.87000 1.74202
v -2.15745 0.01000 1.31317
v -2.15286 0.01000 1.74202
v -2.58992 2.87000 -1.21233
v -2.58745 2.87000 -1.64826
v -2.58992 0.01000 -1.21233
v -2.58745 0.01000 -1.64826
v -2.15151 2.87000 -1.65075
v -2.15399 2.87000 -1.21481
v -2.15151 0.01000 -1.65075
v -2.15399 0.01000 -1.21481
v 2.15151 2.87000 1.74720
v 2.15399 2.87000 1.31126
v 2.15151 0.01000 1.74720
v 2.15399 0.01000 1.31126
v 2.58992 2.87000 1.30878
v 2.58745 2.87000 1.74472
v 2.58992 0.01000 1.30878
v 2.58745 0.01000 1.74472
vt 7.17234 0.50000
vt 6.75000 0.50000
vt 7.17234 0.32469
vt 6.75000 0.32469
vt 7.39547 0.50000
vt 7.39547 0.07766
vt 6.75000 0.07766
vt 7.39547 0.32469
vt 2.16438 -1.00000
vt 1.75000 -1.00000
vt 2.16438 -1.35063
vt 1.75000 -1.35063
vt 2.38750 -1.00000
vt 2.38750 -1.41438
vt 1.75000 -1.41438
vt 2.38750 -1.35063
vt -0.02144 0.94169
vt -0.05331 0.94169
vt -0.02144 0.86838
vt -0.05331 0.86838
vt 0.02000 0.94169
vt 0.02000 0.90982
vt -0.05331 0.90982
vt 0.02000 0.86838
vt 2.43509 -5.00000
vt 2.00000 -5.00000
vt 2.43509 -5.18488
vt 2.00000 -5.18488
vt 2.04781 -5.00000
vt 2.04781 -5.43509
vt 2.00000 -5.43509
vt 2.04781 -5.18488
vt 0.68509 -1.75000
vt 0.25000 -1.75000
vt 0.68509 -1.93488
vt 0.25000 -1.93488
vt 0.29781 -1.75000
vt 0.29781 -2.18509
vt 0.25000 -2.18509
vt 0.29781 -1.93488
vt 1.42712 0.25000
vt 1.00000 0.25000
vt 1.42712 -0.11019
vt 1.00000 -0.11019
vt 1.04781 0.25000
vt 1.04781 -0.17712
vt 1.00000 -0.17712
vt 1.04781 -0.11019
vt 5.17712 -3.50000
vt 4.75000 -3.50000
vt 5.17712 -3.86019
vt 4.75000 -3.86019
vt 4.79781 -3.50000
vt 4.79781 -3.92712
vt 4.75000 -3.92712
vt 4.79781 -3.86019
vt 1.53825 -4.75000
vt 1.50000 -4.75000
vt 1.53825 -4.86156
vt 1.50000 -4.86156
vt 1.59563 -4.75000
vt 1.59563 -4.78825
vt 1.50000 -4.78825
vt 1.59563 -4.86156
vt 3.30419 -3.25000
vt 3.25000 -3.25000
vt 3.30419 -3.60700
vt 3.25000 -3.60700
vt 3.30419 -3.30419
vt 3.25000 -3.30419
vt 1.30419 -5.00000
vt 1.25000 -5.00000
vt 1.30419 -5.35700
vt 1.25000 -5.35700
vt 1.30419 -5.05419
vt 1.25000 -5.05419
vt 1.05419 -3.75000
vt 1.00000 -3.75000
vt 1.05419 -4.10700
vt 1.00000 -4.10700
vt 1.05419 -3.80419
vt 1.00000 -3.80419
vt 4.80419 -6.75000
vt 4.75000 -6.75000
vt 4.80419 -7.10700
vt 4.75000 -7.10700
vt 4.80419 -6.80419
vt 4.75000 -6.80419
vn -1.00225 0.00000 -0.00000
vn -0.00000 1.00000 0.00000
vn -0.00000 0.00000 -1.00225
vn 1.00225 0.00000 -0.00000
vn -0.00000 -1.00000 0.00000
vn -0.00000 0.00000 1.00225
vn -0.70159 0.70870 -0.00000
vn 0.71262 0.70870 0.00000
vn 0.70159 -0.70870 0.00000
vn -0.71262 -0.70870 -0.00000

o gift_chest
usemtl c_d69e2e
f 1/1/1 2/2/1 3/3/1
f 3/3/1 2/2/1 4/4/1
f 5/5/2 2/2/2 6/6/2
f 6/6/2 2/2/2 1/7/2
f 2/5/3 5/2/3 4/8/3
f 4/8/3 5/2/3 7/4/3
f 5/1/4 6/2/4 7/3/4
f 7/3/4 6/2/4 8/4/4
f 8/5/5 3/2/5 7/6/5
f 7/6/5 3/2/5 4/7/5
f 6/5/6 1/2/6 8/8/6
f 8/8/6 1/2/6 3/4/6
f 9/9/1 10/10/1 11/11/1
f 11/11/1 10/10/1 12/12/1
f 13/13/2 10/10/2 14/14/2
f 14/14/2 10/10/2 9/15/2
f 10/13/3 13/10/3 12/16/3
f 12/16/3 13/10/3 15/12/3
f 13/9/4 14/10/4 15/11/4
f 15/11/4 14/10/4 16/12/4
f 16/13/5 11/10/5 15/14/5
f 15/14/5 11/10/5 12/15/5
f 14/13/6 9/10/6 16/16/6
f 16/16/6 9/10/6 11/12/6
usemtl c_60d6ff_neon
f 17/17/7 18/18/7 19/19/7
f 19/19/7 18/18/7 20/20/7
f 21/21/8 18/18/8 22/22/8
f 22/22/8 18/18/8 17/23/8
f 18/21/3 21/18/3 20/24/3
f 20/24/3 21/18/3 23/20/3
f 21/17/9 22/18/9 23/19/9
f 23/19/9 22/18/9 24/20/9
f 24/21/10 19/18/10 23/22/10
f 23/22/10 19/18/10 20/23/10
f 22/21/6 17/18/6 24/24/6
f 24/24/6 17/18/6 19/20/6
usemtl c_ffd65c
f 25/25/1 26/26/1 27/27/1
f 27/27/1 26/26/1 28/28/1
f 29/29/2 26/26/2 30/30/2
f 30/30/2 26/26/2 25/31/2
f 26/29/3 29/26/3 28/32/3
f 28/32/3 29/26/3 31/28/3
f 29/25/4 30/26/4 31/27/4
f 31/27/4 30/26/4 32/28/4
f 32/29/5 27/26/5 31/30/5
f 31/30/5 27/26/5 28/31/5
f 30/29/6 25/26/6 32/32/6
f 32/32/6 25/26/6 27/28/6
f 33/33/1 34/34/1 35/35/1
f 35/35/1 34/34/1 36/36/1
f 37/37/2 34/34/2 38/38/2
f 38/38/2 34/34/2 33/39/2
f 34/37/3 37/34/3 36/40/3
f 36/40/3 37/34/3 39/36/3
f 37/33/4 38/34/4 39/35/4
f 39/35/4 38/34/4 40/36/4
f 40/37/5 35/34/5 39/38/5
f 39/38/5 35/34/5 36/39/5
f 38/37/6 33/34/6 40/40/6
f 40/40/6 33/34/6 35/36/6
f 41/41/1 42/42/1 43/43/1
f 43/43/1 42/42/1 44/44/1
f 45/45/2 42/42/2 46/46/2
f 46/46/2 42/42/2 41/47/2
f 42/45/3 45/42/3 44/48/3
f 44/48/3 45/42/3 47/44/3
f 45/41/4 46/42/4 47/43/4
f 47/43/4 46/42/4 48/44/4
f 48/45/5 43/42/5 47/46/5
f 47/46/5 43/42/5 44/47/5
f 46/45/6 41/42/6 48/48/6
f 48/48/6 41/42/6 43/44/6
f 49/49/1 50/50/1 51/51/1
f 51/51/1 50/50/1 52/52/1
f 53/53/2 50/50/2 54/54/2
f 54/54/2 50/50/2 49/55/2
f 50/53/3 53/50/3 52/56/3
f 52/56/3 53/50/3 55/52/3
f 53/49/4 54/50/4 55/51/4
f 55/51/4 54/50/4 56/52/4
f 56/53/5 51/50/5 55/54/5
f 55/54/5 51/50/5 52/55/5
f 54/53/6 49/50/6 56/56/6
f 56/56/6 49/50/6 51/52/6
f 57/57/1 58/58/1 59/59/1
f 59/59/1 58/58/1 60/60/1
f 61/61/2 58/58/2 62/62/2
f 62/62/2 58/58/2 57/63/2
f 58/61/3 61/58/3 60/64/3
f 60/64/3 61/58/3 63/60/3
f 61/57/4 62/58/4 63/59/4
f 63/59/4 62/58/4 64/60/4
f 64/61/5 59/58/5 63/62/5
f 63/62/5 59/58/5 60/63/5
f 62/61/6 57/58/6 64/64/6
f 64/64/6 57/58/6 59/60/6
usemtl c_a0701c
f 65/65/1 66/66/1 67/67/1
f 67/67/1 66/66/1 68/68/1
f 69/65/2 66/66/2 70/69/2
f 70/69/2 66/66/2 65/70/2
f 66/65/3 69/66/3 68/67/3
f 68/67/3 69/66/3 71/68/3
f 69/65/4 70/66/4 71/67/4
f 71/67/4 70/66/4 72/68/4
f 72/65/5 67/66/5 71/69/5
f 71/69/5 67/66/5 68/70/5
f 70/65/6 65/66/6 72/67/6
f 72/67/6 65/66/6 67/68/6
f 73/71/1 74/72/1 75/73/1
f 75/73/1 74/72/1 76/74/1
f 77/71/2 74/72/2 78/75/2
f 78/75/2 74/72/2 73/76/2
f 74/71/3 77/72/3 76/73/3
f 76/73/3 77/72/3 79/74/3
f 77/71/4 78/72/4 79/73/4
f 79/73/4 78/72/4 80/74/4
f 80/71/5 75/72/5 79/75/5
f 79/75/5 75/72/5 76/76/5
f 78/71/6 73/72/6 80/73/6
f 80/73/6 73/72/6 75/74/6
f 81/77/1 82/78/1 83/79/1
f 83/79/1 82/78/1 84/80/1
f 85/77/2 82/78/2 86/81/2
f 86/81/2 82/78/2 81/82/2
f 82/77/3 85/78/3 84/79/3
f 84/79/3 85/78/3 87/80/3
f 85/77/4 86/78/4 87/79/4
f 87/79/4 86/78/4 88/80/4
f 88/77/5 83/78/5 87/81/5
f 87/81/5 83/78/5 84/82/5
f 86/77/6 81/78/6 88/79/6
f 88/79/6 81/78/6 83/80/6
f 89/83/1 90/84/1 91/85/1
f 91/85/1 90/84/1 92/86/1
f 93/83/2 90/84/2 94/87/2
f 94/87/2 90/84/2 89/88/2
f 90/83/3 93/84/3 92/85/3
f 92/85/3 93/84/3 95/86/3
f 93/83/4 94/84/4 95/85/4
f 95/85/4 94/84/4 96/86/4
f 96/83/5 91/84/5 95/87/5
f 95/87/5 91/84/5 92/88/5
f 94/83/6 89/84/6 96/85/6
f 96/85/6 89/84/6 91/86/6
