# Roblox asset pack: baseplate_tile_grid (map). Exported from Roblox Studio with Export Selection, then split/renamed/re-centred by tools/process_export.py. Units: studs (1 stud = 1 unit). +Y up. Pivot (bottom_centre) at the origin.
mtllib baseplate_tile_grid.mtl

v 8.00000 1.00000 -8.00000
v 8.00000 1.00000 8.00000
v 8.00000 0.00000 -8.00000
v 8.00000 0.00000 8.00000
v -8.00000 1.00000 8.00000
v -8.00000 1.00000 -8.00000
v -8.00000 0.00000 8.00000
v -8.00000 0.00000 -8.00000
v 8.00000 1.00500 8.00000
v 8.00000 1.00500 -8.00000
v -8.00000 1.00500 -8.00000
v -8.00000 1.00500 8.00000
vt 7.25000 -1.75000
vt 5.25000 -1.75000
vt 7.25000 -1.87500
vt 5.25000 -1.87500
vt 7.25000 -3.75000
vt 5.25000 -3.75000
vt 0.00000 2.00000
vt 0.00000 0.00000
vt 2.00000 0.00000
vt 2.00000 2.00000
vn 1.0000 0.0000 0.0000
vn 0.0000 1.0000 0.0000
vn 0.0000 0.0000 1.0000
vn -1.0000 0.0000 0.0000
vn 0.0000 -1.0000 0.0000
vn 0.0000 0.0000 -1.0000

o Tile
usemtl tile
f 1/1/1 2/2/1 3/3/1
f 3/3/1 2/2/1 4/4/1
f 5/1/2 2/2/2 6/5/2
f 6/5/2 2/2/2 1/6/2
f 2/1/3 5/2/3 4/3/3
f 4/3/3 5/2/3 7/4/3
f 5/1/4 6/2/4 7/3/4
f 7/3/4 6/2/4 8/4/4
f 8/1/5 3/2/5 7/5/5
f 7/5/5 3/2/5 4/6/5
f 6/1/6 1/2/6 8/3/6
f 8/3/6 1/2/6 3/4/6
o Tile_Grid
usemtl tile_grid
f 9/7/2 10/8/2 11/9/2
f 12/10/2 9/7/2 11/9/2
