# Roblox asset pack: tablet (props). Exported from Roblox Studio with Export Selection, then split/renamed/re-centred by tools/process_export.py. Units: studs (1 stud = 1 unit). +Y up. Pivot (grip) at the origin.
mtllib tablet.mtl

v 0.95000 1.22500 -0.05000
v 0.95000 1.22500 0.05000
v 0.95000 -0.12500 -0.05000
v 0.95000 -0.12500 0.05000
v -0.95000 1.22500 0.05000
v -0.95000 1.22500 -0.05000
v -0.95000 -0.12500 0.05000
v -0.95000 -0.12500 -0.05000
v 0.85000 1.12500 0.04500
v 0.85000 1.12500 0.06500
v 0.85000 -0.02500 0.04500
v 0.85000 -0.02500 0.06500
v -0.85000 1.12500 0.06500
v -0.85000 1.12500 0.04500
v -0.85000 -0.02500 0.06500
v -0.85000 -0.02500 0.04500
v 0.80000 1.07500 0.06100
v 0.80000 1.07500 0.07100
v 0.80000 0.02500 0.06100
v 0.80000 0.02500 0.07100
v -0.80000 1.07500 0.07100
v -0.80000 1.07500 0.06100
v -0.80000 0.02500 0.07100
v -0.80000 0.02500 0.06100
vt 6.76250 -5.50000
vt 6.75000 -5.50000
vt 6.76250 -5.66875
vt 6.75000 -5.66875
vt 6.98750 -5.50000
vt 6.98750 -5.51250
vt 6.75000 -5.51250
vt 6.98750 -5.66875
vt 4.00250 1.00000
vt 4.00000 1.00000
vt 4.00250 0.85625
vt 4.00000 0.85625
vt 4.21250 1.00000
vt 4.21250 0.99750
vt 4.00000 0.99750
vt 4.21250 0.85625
vt -0.04952 0.89179
vt -0.05077 0.89179
vt -0.04952 0.76054
vt -0.05077 0.76054
vt 0.14923 0.89179
vt 0.14923 0.89054
vt -0.05077 0.89054
vt 0.14923 0.76054
vn 1.0000 0.0000 0.0000
vn 0.0000 1.0000 0.0000
vn 0.0000 0.0000 1.0000
vn -1.0000 0.0000 0.0000
vn 0.0000 -1.0000 0.0000
vn 0.0000 0.0000 -1.0000

o Body
usemtl body
f 1/1/1 2/2/1 3/3/1
f 3/3/1 2/2/1 4/4/1
f 5/5/2 2/2/2 6/6/2
f 6/6/2 2/2/2 1/7/2
f 2/5/3 5/2/3 4/8/3
f 4/8/3 5/2/3 7/4/3
f 5/1/4 6/2/4 7/3/4
f 7/3/4 6/2/4 8/4/4
f 8/5/5 3/2/5 7/6/5
f 7/6/5 3/2/5 4/7/5
f 6/5/6 1/2/6 8/8/6
f 8/8/6 1/2/6 3/4/6
o Screen
usemtl screen
f 9/9/1 10/10/1 11/11/1
f 11/11/1 10/10/1 12/12/1
f 13/13/2 10/10/2 14/14/2
f 14/14/2 10/10/2 9/15/2
f 10/13/3 13/10/3 12/16/3
f 12/16/3 13/10/3 15/12/3
f 13/9/4 14/10/4 15/11/4
f 15/11/4 14/10/4 16/12/4
f 16/13/5 11/10/5 15/14/5
f 15/14/5 11/10/5 12/15/5
f 14/13/6 9/10/6 16/16/6
f 16/16/6 9/10/6 11/12/6
o ScreenGlow
usemtl screenglow
f 17/17/1 18/18/1 19/19/1
f 19/19/1 18/18/1 20/20/1
f 21/21/2 18/18/2 22/22/2
f 22/22/2 18/18/2 17/23/2
f 18/21/3 21/18/3 20/24/3
f 20/24/3 21/18/3 23/20/3
f 21/17/4 22/18/4 23/19/4
f 23/19/4 22/18/4 24/20/4
f 24/21/5 19/18/5 23/22/5
f 23/22/5 19/18/5 20/23/5
f 22/21/6 17/18/6 24/24/6
f 24/24/6 17/18/6 19/20/6
