# Roblox asset pack: animal_bunny (creatures), from the Studio model "Bunny". Exported with Export Selection, split by tools/build_creatures.py: one object per rigid body. Units: studs. +Y up, front faces -Z, pivot (bottom centre) at the origin.
mtllib animal_bunny.mtl

v -0.98100 3.80000 0.49000
v -0.81600 3.88000 0.49000
v -0.81600 3.88000 0.29000
v -0.98100 3.80000 0.29000
v -0.98100 3.80000 -0.29000
v -0.81600 3.88000 -0.29000
v -0.98100 3.80000 -0.49000
v -0.81600 3.88000 -0.49000
v 1.47300 0.69000 0.36000
v 1.47300 0.69000 -0.36000
v 1.57500 1.09000 0.00000
v 1.26500 1.38000 0.36000
v 1.26500 1.38000 -0.36000
v 0.45200 0.21000 0.58000
v 0.45200 0.21000 -0.58000
v 0.84100 0.60000 0.58000
v 0.84100 0.60000 -0.58000
v 0.57500 0.25000 0.52000
v 0.72000 0.50000 0.84000
v 0.57500 0.25000 0.80000
v 0.72000 0.50000 0.48000
v 0.72000 0.50000 -0.84000
v 0.57500 0.25000 -0.52000
v 0.57500 0.25000 -0.80000
v 0.72000 0.50000 -0.48000
v -0.83600 3.58000 -0.64000
v -0.57800 3.58000 -0.64000
v -0.83600 3.58000 0.64000
v -0.57800 3.58000 0.64000
v -0.95400 0.00000 0.83000
v -1.01700 0.00000 0.64000
v -0.78500 0.00000 0.85000
v -0.78500 0.00000 0.43000
v -0.95400 0.00000 0.45000
v -0.46700 0.00000 0.81000
v -0.46700 0.00000 0.47000
v -0.33500 0.00000 0.47000
v -0.33500 0.00000 0.81000
v -0.03200 0.00000 0.83000
v -0.09500 0.00000 0.64000
v 0.13600 0.00000 0.85000
v 0.13600 0.00000 0.43000
v -0.03200 0.00000 0.45000
v 0.45500 0.00000 0.81000
v 0.45500 0.00000 0.47000
v 0.58700 0.00000 0.47000
v 0.58700 0.00000 0.81000
v -1.01700 0.00000 -0.64000
v -0.78500 0.00000 -0.43000
v -0.95400 0.00000 -0.45000
v -0.78500 0.00000 -0.85000
v -0.95400 0.00000 -0.83000
v -0.46700 0.00000 -0.81000
v -0.46700 0.00000 -0.47000
v -0.33500 0.00000 -0.81000
v -0.33500 0.00000 -0.47000
v -0.09500 0.00000 -0.64000
v 0.13600 0.00000 -0.43000
v -0.03200 0.00000 -0.45000
v 0.13600 0.00000 -0.85000
v -0.03200 0.00000 -0.83000
v 0.45500 0.00000 -0.81000
v 0.45500 0.00000 -0.47000
v 0.58700 0.00000 -0.47000
v 0.58700 0.00000 -0.81000
v 0.74200 0.77000 0.45000
v 0.74200 0.77000 0.87000
v 0.74200 0.77000 -0.45000
v 0.74200 0.77000 -0.87000
v 0.16300 0.15000 0.52000
v 0.55900 0.15000 0.80000
v 0.16300 0.15000 0.80000
v 0.55900 0.15000 0.52000
v 0.16300 0.15000 -0.52000
v 0.16300 0.15000 -0.80000
v 0.55900 0.15000 -0.80000
v 0.55900 0.15000 -0.52000
v -0.71000 0.15000 0.50000
v -0.41800 0.15000 0.80000
v -0.71000 0.15000 0.80000
v -0.41800 0.15000 0.50000
v -0.71000 0.15000 -0.50000
v -0.71000 0.15000 -0.80000
v -0.41800 0.15000 -0.80000
v -0.41800 0.15000 -0.50000
v -0.57800 3.58000 0.14000
v -0.57800 3.58000 -0.14000
v -0.06400 2.72000 0.61000
v -1.25700 2.72000 -0.61000
v -1.25700 2.72000 0.61000
v -0.06400 2.72000 -0.61000
v 0.78200 1.00000 0.58000
v 0.78200 1.00000 -0.58000
v -0.84400 2.62000 0.17000
v -0.84400 2.62000 0.49000
v -0.78600 2.63000 0.49000
v -0.78600 2.63000 0.17000
v -0.84400 2.62000 -0.49000
v -0.84400 2.62000 -0.17000
v -0.78600 2.63000 -0.49000
v -0.78600 2.63000 -0.17000
v -1.18500 2.62000 0.46000
v -1.18500 2.62000 0.09000
v -1.29400 2.62000 0.46000
v -1.29400 2.62000 0.09000
v -1.29400 2.62000 -0.46000
v -1.29400 2.62000 -0.09000
v -1.18500 2.62000 -0.09000
v -1.18500 2.62000 -0.46000
v 0.58700 0.17000 0.81000
v 0.58700 0.17000 0.47000
v 0.58700 0.17000 -0.81000
v 0.58700 0.17000 -0.47000
v 0.99200 0.60000 0.30000
v 0.99200 0.60000 -0.30000
v -0.76500 3.28000 -0.70000
v -0.48300 3.28000 -0.70000
v -1.31700 2.51000 0.14000
v -1.31700 2.51000 0.39000
v -1.24300 2.51000 0.14000
v -1.24300 2.51000 0.39000
v -0.76500 3.28000 0.70000
v -0.48300 3.28000 0.70000
v -1.24300 2.51000 -0.14000
v -1.31700 2.51000 -0.39000
v -1.31700 2.51000 -0.14000
v -1.24300 2.51000 -0.39000
v -1.57500 2.13000 -0.10000
v -1.57500 1.93000 0.10000
v -1.57500 2.13000 0.10000
v -1.57500 1.93000 -0.10000
v 0.21900 0.50000 0.84000
v 0.13600 0.27000 0.80000
v 0.21900 0.50000 -0.84000
v 0.13600 0.27000 -0.80000
v -1.51100 1.74000 0.03000
v -1.51100 1.70000 0.12000
v -1.51100 1.74000 0.12000
v -1.51100 1.74000 -0.03000
v -1.51100 1.92000 0.03000
v -1.51100 1.92000 -0.03000
v -1.51100 1.70000 -0.12000
v -1.51100 1.74000 -0.12000
v 0.07200 0.77000 0.87000
v -1.48600 2.09000 0.02000
v -1.48600 1.71000 0.35000
v -1.48600 2.06000 0.38000
v -1.48600 1.74000 0.00000
v 0.07200 0.77000 -0.87000
v -1.48600 2.09000 -0.02000
v -1.48600 1.71000 -0.35000
v -1.48600 2.06000 -0.38000
v -0.75200 0.56000 0.58000
v -0.75200 0.56000 -0.58000
v 0.45500 0.17000 0.81000
v 0.13600 0.17000 0.85000
v 0.13600 0.17000 -0.85000
v 0.45500 0.17000 -0.81000
v -1.44800 1.62000 0.00000
v -1.44800 1.60000 0.24000
v -1.44800 1.65000 0.24000
v -1.44800 1.56000 0.00000
v -1.44800 1.60000 -0.24000
v -1.44800 1.65000 -0.24000
v -1.44800 1.99000 0.24000
v -1.44800 1.67000 -0.24000
v -1.44800 1.67000 0.24000
v -1.44800 1.99000 -0.24000
v -1.43000 1.87000 0.21000
v -1.43000 1.60000 -0.21000
v -1.43000 1.60000 0.21000
v -1.43000 1.87000 -0.21000
v 0.58600 1.09000 0.87000
v 0.12900 1.07000 0.87000
v 0.58600 1.09000 -0.87000
v 0.12900 1.07000 -0.87000
v -0.95400 0.17000 0.83000
v -0.78500 0.17000 0.85000
v -0.95400 0.17000 -0.83000
v -0.78500 0.17000 -0.85000
v 0.58600 1.09000 0.45000
v 0.58600 1.09000 -0.45000
v -0.68100 0.54000 0.80000
v -0.32900 0.54000 0.80000
v -0.78600 0.92000 0.81000
v -0.18800 0.92000 0.81000
v -0.68100 0.54000 -0.80000
v -0.32900 0.54000 -0.80000
v -0.78600 0.92000 -0.81000
v -0.18800 0.92000 -0.81000
v -0.83600 3.58000 0.15000
v -0.70100 1.49000 0.81000
v -0.85800 1.31000 0.81000
v -0.20400 1.37000 0.81000
v -0.32500 1.49000 0.81000
v -0.70100 1.49000 -0.81000
v -0.85800 1.31000 -0.81000
v -0.20400 1.37000 -0.81000
v -0.32500 1.49000 -0.81000
v -0.83600 3.58000 -0.15000
v -0.46700 0.17000 0.81000
v -0.46700 0.17000 -0.81000
v -0.33500 0.17000 0.81000
v -0.33500 0.17000 -0.81000
v -1.31700 2.20000 0.39000
v -1.31700 2.20000 0.14000
v -1.31700 2.20000 -0.39000
v -1.31700 2.20000 -0.14000
v -0.03200 0.17000 -0.83000
v -0.03200 0.17000 0.83000
v -1.29400 2.16000 0.09000
v -1.29400 2.16000 0.46000
v -1.29400 2.16000 -0.09000
v -1.29400 2.16000 -0.46000
v -1.25700 1.53000 0.46000
v -1.25700 1.74000 0.70000
v -1.25700 1.53000 -0.46000
v -1.25700 1.74000 -0.70000
v -0.06400 1.74000 -0.70000
v -0.06400 1.74000 0.70000
v -1.37500 2.13000 0.10000
v -1.37500 2.13000 -0.10000
v -1.01700 0.17000 0.64000
v -1.01700 0.17000 -0.64000
v -1.08300 1.15000 0.58000
v -1.08300 1.15000 -0.58000
v -1.12900 2.06000 0.38000
v -1.12900 2.09000 0.02000
v -1.12900 2.09000 -0.02000
v -1.12900 2.06000 -0.38000
v -0.48300 3.28000 0.06000
v -0.48300 3.28000 -0.06000
v -0.97200 2.01000 0.58000
v -0.97200 2.01000 -0.58000
v -1.20200 1.99000 0.24000
v -1.20200 1.99000 -0.24000
v -0.32900 0.54000 0.49000
v -0.18800 0.92000 0.48000
v -0.32900 0.54000 -0.49000
v -0.18800 0.92000 -0.48000
v -0.06400 1.53000 0.46000
v -0.06400 1.53000 -0.46000
v -1.45500 1.92000 0.03000
v -1.45500 1.92000 -0.03000
v -1.18500 2.16000 -0.46000
v -1.18500 2.16000 0.46000
v -0.76500 3.28000 0.06000
v -0.85400 2.54000 0.09000
v -0.76200 3.27000 0.14000
v -0.76500 3.28000 -0.06000
v -0.85400 2.54000 -0.09000
v -0.76200 3.27000 -0.14000
v -0.85400 2.54000 0.56000
v -0.85400 2.54000 -0.56000
v -0.76200 3.28000 0.62000
v -0.76200 3.28000 -0.62000
v -1.21700 1.87000 0.21000
v -1.21700 1.87000 -0.21000
v -1.24300 2.20000 -0.39000
v -0.68100 0.54000 0.49000
v -0.78600 0.92000 0.48000
v -1.24300 2.20000 0.39000
v -0.68100 0.54000 -0.49000
v -0.78600 0.92000 -0.48000
v -0.85800 1.31000 0.48000
v -0.85800 1.31000 -0.48000
v -0.57200 2.54000 0.56000
v -0.57200 2.54000 -0.56000
v -1.12900 1.71000 0.35000
v -1.12900 1.71000 -0.35000
v -0.20400 1.37000 0.48000
v -0.20400 1.37000 -0.48000
v -1.45500 1.74000 0.03000
v -1.45500 1.74000 0.12000
v -1.45500 1.74000 -0.03000
v -1.45500 1.74000 -0.12000
v -0.95400 0.17000 0.45000
v -0.95400 0.17000 -0.45000
v -1.20200 1.60000 0.24000
v -1.20200 1.65000 0.24000
v -1.20200 1.67000 0.24000
v -1.20200 1.65000 -0.24000
v -1.20200 1.60000 -0.24000
v -1.20200 1.67000 -0.24000
v -0.70400 3.28000 0.14000
v -0.70400 3.28000 -0.14000
v -1.21700 1.60000 0.21000
v -1.21700 1.60000 -0.21000
v -0.33500 0.17000 0.47000
v -0.33500 0.17000 -0.47000
v -0.32500 1.49000 0.48000
v -0.32500 1.49000 -0.48000
v 0.81800 1.19000 0.30000
v -1.20200 1.62000 0.00000
v 0.81800 1.19000 -0.30000
v -0.70100 1.49000 0.48000
v -0.70100 1.49000 -0.48000
v -0.70400 3.29000 0.62000
v -0.76500 3.56000 0.23000
v -0.76600 3.57000 0.56000
v -0.87800 3.75000 0.34000
v -0.87800 3.75000 0.44000
v -0.70400 3.29000 -0.62000
v -0.76500 3.56000 -0.23000
v -0.76600 3.57000 -0.56000
v -0.87800 3.75000 -0.34000
v -0.87800 3.75000 -0.44000
v -1.45500 1.70000 0.12000
v -1.45500 1.70000 -0.12000
v -1.37500 1.93000 -0.10000
v -1.37500 1.93000 0.10000
v 0.83700 0.69000 -0.18000
v 0.83700 0.69000 0.18000
v -1.12900 1.74000 0.00000
v -1.18500 2.16000 0.09000
v -1.18500 2.16000 -0.09000
v -1.20200 1.56000 0.00000
v -1.24300 2.20000 0.14000
v -0.57200 2.54000 0.09000
v -1.24300 2.20000 -0.14000
v -0.57200 2.54000 -0.09000
v -0.82300 3.55000 0.23000
v -0.82300 3.55000 -0.23000
v 0.07200 0.77000 0.45000
v 0.21900 0.50000 0.48000
v 0.07200 0.77000 -0.45000
v 0.21900 0.50000 -0.48000
v -0.09500 0.17000 0.64000
v -0.09500 0.17000 -0.64000
v -0.82400 3.55000 0.56000
v -0.82400 3.55000 -0.56000
v 0.13600 0.27000 0.52000
v 0.13600 0.27000 -0.52000
v 0.13600 0.17000 0.43000
v 0.45500 0.17000 0.47000
v 0.13600 0.17000 -0.43000
v 0.45500 0.17000 -0.47000
v -0.78500 0.17000 0.43000
v -0.78500 0.17000 -0.43000
v 0.12900 1.07000 0.45000
v 0.12900 1.07000 -0.45000
v -0.46700 0.17000 0.47000
v -0.46700 0.17000 -0.47000
v -0.03200 0.17000 0.45000
v -0.03200 0.17000 -0.45000
v 0.73400 1.03000 0.18000
v 0.73400 1.03000 -0.18000
v -0.93700 3.73000 -0.34000
v -0.93700 3.73000 0.34000
v -0.93700 3.73000 0.44000
v -0.93700 3.73000 -0.44000
vt 0.15741 0.79403
vt 0.12980 0.79403
vt 0.12980 0.76358
vt 0.15742 0.76358
vt 1.15742 0.76358
vt 1.12980 0.76358
vt 1.15741 0.79403
vt 1.12980 0.79403
vt 0.00293 0.83587
vt 0.00294 0.71614
vt 0.06280 0.77601
vt 0.12266 0.83588
vt 0.12267 0.71615
vt 0.59161 0.79948
vt 0.59162 0.62311
vt 0.67675 0.79948
vt 0.67676 0.62311
vt 0.95012 0.51816
vt 0.90103 0.56200
vt 0.90679 0.51816
vt 0.95589 0.56199
vt 1.90103 0.56200
vt 1.95012 0.51816
vt 1.90679 0.51816
vt 1.95589 0.56199
vt 1.56429 0.82736
vt 1.60679 0.84614
vt 1.61440 0.81959
vt 1.56036 0.78792
vt 0.56429 0.82736
vt 0.61440 0.81959
vt 0.60679 0.84614
vt 0.56036 0.78792
vt 0.42726 0.84993
vt 0.45588 0.84035
vt 0.42414 0.87576
vt 0.48761 0.87576
vt 0.48450 0.84993
vt 0.43016 0.92449
vt 0.48159 0.92449
vt 0.48159 0.94482
vt 0.43016 0.94482
vt 1.42726 0.84993
vt 1.45588 0.84035
vt 1.42414 0.87576
vt 1.48761 0.87576
vt 1.48449 0.84993
vt 1.43017 0.92449
vt 1.48159 0.92449
vt 1.48159 0.94482
vt 1.43017 0.94482
vt 0.96083 0.60359
vt 0.89610 0.60360
vt 1.96083 0.60359
vt 1.89610 0.60360
vt 0.99018 0.72365
vt 0.94685 0.78431
vt 0.94685 0.72365
vt 0.99018 0.78431
vt 1.99017 0.72365
vt 1.94685 0.72365
vt 1.94685 0.78431
vt 1.99017 0.78431
vt 0.11858 0.88495
vt 0.07398 0.83969
vt 0.11858 0.83969
vt 0.07398 0.88495
vt 1.11859 0.88495
vt 1.11859 0.83969
vt 1.07398 0.83969
vt 1.07398 0.88495
vt 0.73259 0.58943
vt 0.78603 0.64769
vt 0.75558 0.64769
vt 0.80902 0.58943
vt 1.80902 0.58943
vt 1.73259 0.58943
vt 1.78603 0.64769
vt 1.75557 0.64769
vt 0.95011 0.50189
vt 0.90679 0.50189
vt 1.95011 0.50189
vt 1.90679 0.50189
vt 0.55609 0.43264
vt 0.73892 0.24519
vt 0.73892 0.43264
vt 0.55609 0.24519
vt 0.73831 0.79949
vt 0.73832 0.62312
vt 0.36730 0.35479
vt 0.36729 0.40347
vt 0.35817 0.40346
vt 0.35818 0.35478
vt 1.36729 0.40347
vt 1.36730 0.35479
vt 1.35817 0.40346
vt 1.35818 0.35478
vt 0.26682 0.77224
vt 0.26682 0.71693
vt 0.28360 0.77224
vt 0.28360 0.71693
vt 1.28360 0.77224
vt 1.28360 0.71693
vt 1.26682 0.71693
vt 1.26682 0.77224
vt 1.12980 0.70835
vt 1.15606 0.75977
vt 1.12980 0.75977
vt 1.15606 0.70835
vt 0.56992 0.83956
vt 0.49519 0.94166
vt 0.49520 0.83066
vt 0.56991 0.93277
vt 1.51592 0.82115
vt 1.51163 0.77810
vt 0.84147 0.41776
vt 0.84147 0.45514
vt 0.83013 0.41776
vt 0.83013 0.45514
vt 0.51592 0.82115
vt 0.51163 0.77810
vt 1.83013 0.41776
vt 1.84147 0.45514
vt 1.84147 0.41776
vt 1.83013 0.45514
vt 0.81002 0.80021
vt 0.77938 0.76957
vt 0.81002 0.76957
vt 0.77938 0.80021
vt 0.32221 0.81966
vt 0.37455 0.77838
vt 0.38923 0.81393
vt 0.29786 0.78275
vt 1.37455 0.77838
vt 1.32221 0.81966
vt 1.38923 0.81393
vt 1.29786 0.78275
vt 0.65810 0.21337
vt 0.65251 0.19892
vt 0.65810 0.19892
vt 0.65810 0.22190
vt 0.68612 0.21337
vt 0.68612 0.22190
vt 0.65251 0.23635
vt 0.65810 0.23635
vt 0.29220 0.74125
vt 0.39467 0.73541
vt 0.93163 0.95503
vt 0.98626 0.90040
vt 0.98626 0.95503
vt 0.93163 0.90039
vt 1.29220 0.74125
vt 1.39467 0.73541
vt 0.64625 0.98053
vt 0.59161 0.92589
vt 0.64625 0.92589
vt 0.59161 0.98053
vt 0.56116 0.00297
vt 0.73756 0.19510
vt 0.56119 0.19513
vt 0.73753 0.00294
vt 1.96209 0.53420
vt 1.98834 0.48510
vt 1.98834 0.53420
vt 1.96208 0.48510
vt 0.20455 0.53872
vt 0.20083 0.50166
vt 0.20960 0.50166
vt 0.19577 0.53872
vt 0.20083 0.57578
vt 0.20960 0.57578
vt 0.25883 0.83870
vt 0.21100 0.91282
vt 0.21100 0.83870
vt 0.25883 0.91282
vt 0.81066 0.70158
vt 0.76923 0.76576
vt 0.76923 0.70158
vt 0.81066 0.76576
vt 0.31322 0.69064
vt 0.38325 0.69068
vt 1.31322 0.69064
vt 1.38325 0.69068
vt 0.96208 0.45908
vt 0.98833 0.45908
vt 0.98834 0.48510
vt 0.96208 0.48510
vt 1.96208 0.45908
vt 1.98833 0.45908
vt 0.89611 0.65839
vt 0.96083 0.65838
vt 1.89611 0.65839
vt 1.96083 0.65838
vt 0.82197 0.14940
vt 0.82855 0.20792
vt 0.78398 0.20965
vt 0.76806 0.15149
vt 0.83570 0.09010
vt 0.74421 0.09364
vt 1.82197 0.14940
vt 1.78398 0.20965
vt 1.82855 0.20792
vt 1.76805 0.15149
vt 1.83570 0.09010
vt 1.74421 0.09364
vt 0.86887 0.67969
vt 0.87552 0.62942
vt 0.89524 0.67149
vt 0.83599 0.62638
vt 0.81927 0.00294
vt 0.84441 0.02931
vt 0.74386 0.02395
vt 0.76166 0.00517
vt 1.81927 0.00294
vt 1.84441 0.02931
vt 1.74386 0.02395
vt 1.76166 0.00517
vt 1.87552 0.62942
vt 1.86887 0.67969
vt 1.89524 0.67149
vt 1.83599 0.62638
vt 0.96209 0.53420
vt 0.98834 0.53420
vt 0.96209 0.55454
vt 0.98835 0.55453
vt 1.96209 0.55454
vt 1.98835 0.55453
vt 0.38609 0.83216
vt 0.32553 0.83558
vt 1.38609 0.83216
vt 1.32553 0.83558
vt 0.29220 0.36407
vt 0.32957 0.31672
vt 0.32957 0.36407
vt 0.29220 0.31672
vt 1.29220 0.36407
vt 1.32957 0.31672
vt 1.29220 0.31672
vt 1.32957 0.36407
vt 0.40333 0.91999
vt 0.34802 0.84992
vt 0.40333 0.84992
vt 0.34802 0.91999
vt 1.40333 0.91999
vt 1.34802 0.84992
vt 1.34802 0.91999
vt 1.40333 0.84992
vt 0.55623 0.49902
vt 0.37339 0.52200
vt 0.40575 0.48591
vt 0.37339 0.66350
vt 0.55623 0.68648
vt 0.40575 0.69959
vt 0.71222 0.43645
vt 0.71225 0.61928
vt 0.56116 0.43647
vt 0.56119 0.61931
vt 0.21607 0.50402
vt 0.36713 0.50399
vt 0.36716 0.68683
vt 0.21610 0.68685
vt 0.60195 0.22957
vt 0.57131 0.22957
vt 0.57131 0.19893
vt 0.60195 0.19893
vt 0.99341 0.00294
vt 0.96716 0.03313
vt 0.96715 0.00295
vt 0.99341 0.03312
vt 1.99341 0.03312
vt 1.99341 0.00294
vt 1.96715 0.03313
vt 1.96715 0.00295
vt 0.54977 0.34962
vt 0.37339 0.24519
vt 0.54976 0.24519
vt 0.37340 0.34963
vt 0.92536 0.90039
vt 0.92537 0.95503
vt 0.87073 0.95503
vt 0.87073 0.90040
vt 0.86447 0.91471
vt 0.86447 0.96935
vt 0.80983 0.91471
vt 0.80983 0.96934
vt 0.72356 0.54055
vt 0.82182 0.54055
vt 1.72356 0.54055
vt 1.82182 0.54055
vt 0.12748 0.04808
vt 0.01699 0.31258
vt 0.00293 0.00293
vt 0.06699 0.34848
vt 0.18537 0.13500
vt 0.14840 0.32356
vt 0.04022 0.49480
vt 0.30152 0.37695
vt 0.35014 0.50019
vt 0.00293 0.44582
vt 0.21302 0.32152
vt 0.02556 0.36375
vt 0.85043 0.45148
vt 0.85043 0.37736
vt 0.88816 0.45148
vt 0.88816 0.37736
vt 0.89229 0.73846
vt 0.94003 0.73846
vt 0.89104 0.80102
vt 0.94126 0.80102
vt 1.94003 0.73846
vt 1.89104 0.80102
vt 1.94126 0.80102
vt 1.89229 0.73846
vt 0.54978 0.48210
vt 0.37340 0.48211
vt 0.00293 0.67625
vt 0.18577 0.69923
vt 0.03528 0.71234
vt 0.00293 0.53475
vt 0.18577 0.51178
vt 0.03528 0.49866
vt 0.05206 0.01147
vt 0.04353 0.01147
vt 0.04353 0.00294
vt 0.05206 0.00294
vt 1.98900 0.14098
vt 1.97223 0.21105
vt 1.98900 0.21105
vt 1.97223 0.14098
vt 0.98900 0.14098
vt 0.98900 0.21105
vt 0.97223 0.21105
vt 0.97223 0.14098
vt 0.74386 0.76548
vt 0.75234 0.65171
vt 0.76412 0.66444
vt 0.75650 0.76379
vt 1.74386 0.76548
vt 1.76412 0.66444
vt 1.75234 0.65171
vt 1.75650 0.76379
vt 0.82310 0.65136
vt 0.81289 0.66400
vt 1.82310 0.65136
vt 1.81289 0.66400
vt 0.84689 0.76397
vt 0.83408 0.76434
vt 1.84689 0.76397
vt 1.83407 0.76434
vt 0.86820 0.58028
vt 0.82506 0.57705
vt 1.86820 0.58028
vt 1.82506 0.57705
vt 0.89354 0.67817
vt 0.93880 0.67818
vt 1.89354 0.67817
vt 1.93880 0.67818
vt 0.94685 0.85230
vt 0.94685 0.78812
vt 0.97953 0.85230
vt 0.97953 0.78812
vt 1.01427 0.32089
vt 1.00293 0.36824
vt 1.01427 0.36824
vt 1.00293 0.32089
vt 0.94632 0.40024
vt 0.89734 0.33938
vt 0.94508 0.33938
vt 0.89610 0.40025
vt 0.01427 0.32089
vt 0.01427 0.36824
vt 0.00293 0.36824
vt 0.00293 0.32089
vt 1.94632 0.40024
vt 1.89734 0.33938
vt 1.89610 0.40025
vt 1.94508 0.33938
vt 0.89611 0.46166
vt 0.94633 0.46165
vt 1.89611 0.46166
vt 1.94633 0.46165
vt 0.40305 0.84613
vt 0.39877 0.80307
vt 1.39877 0.80307
vt 1.40305 0.84613
vt 0.06891 0.89937
vt 0.12354 0.89937
vt 0.12354 0.95401
vt 0.06890 0.95401
vt 0.80357 0.85633
vt 0.74894 0.91097
vt 0.74893 0.85634
vt 0.80357 0.91097
vt 0.89103 0.87070
vt 0.94125 0.87071
vt 1.89103 0.87070
vt 1.94125 0.87071
vt 0.16025 0.07094
vt 0.16878 0.08539
vt 0.16025 0.08539
vt 0.16878 0.07094
vt 0.08758 0.01740
vt 0.07905 0.01740
vt 0.07905 0.00294
vt 0.08758 0.00294
vt 0.37339 0.00294
vt 0.55623 0.00294
vt 0.55623 0.05141
vt 0.37339 0.05141
vt 0.36707 0.31292
vt 0.19071 0.00294
vt 0.36708 0.00295
vt 0.19070 0.31291
vt 0.37339 0.24138
vt 0.55623 0.19291
vt 0.55623 0.24138
vt 0.37339 0.19291
vt 0.96716 0.06330
vt 0.99341 0.06330
vt 1.96716 0.06330
vt 1.99341 0.06330
vt 0.18425 0.07094
vt 0.18425 0.10867
vt 0.17548 0.07094
vt 0.17548 0.10867
vt 0.36037 0.94211
vt 0.36037 0.98994
vt 0.32264 0.98994
vt 0.32264 0.94211
vt 0.75264 0.24414
vt 0.75264 0.28187
vt 0.74386 0.24414
vt 0.74386 0.28187
vt 0.16025 0.99259
vt 0.19798 0.94476
vt 0.19798 0.99259
vt 0.16025 0.94476
vt 0.34692 0.39815
vt 0.36813 0.49542
vt 0.35908 0.49426
vt 0.33787 0.39699
vt 1.36813 0.49542
vt 1.34692 0.39815
vt 1.35908 0.49426
vt 1.33787 0.39699
vt 0.76638 0.19891
vt 0.76638 0.24033
vt 0.73371 0.24033
vt 0.73371 0.19891
vt 0.72578 0.24034
vt 0.69311 0.24034
vt 0.72578 0.19891
vt 0.69311 0.19891
vt 0.12980 0.70835
vt 0.15606 0.75977
vt 0.12980 0.75977
vt 0.15606 0.70835
vt 0.89103 0.89658
vt 0.94125 0.89659
vt 1.94125 0.89659
vt 1.89103 0.89658
vt 0.57698 0.77255
vt 0.48377 0.77253
vt 0.47489 0.69781
vt 0.58589 0.69783
vt 0.98966 0.30936
vt 0.95193 0.30936
vt 0.95193 0.27195
vt 0.98966 0.27195
vt 0.20536 0.93456
vt 0.12980 0.83308
vt 0.20459 0.84135
vt 0.13072 0.94407
vt 0.95193 0.23455
vt 0.98966 0.23455
vt 0.94633 0.49808
vt 0.89611 0.49808
vt 1.89611 0.49808
vt 1.94633 0.49808
vt 0.90797 0.21865
vt 0.83520 0.21726
vt 0.88827 0.11779
vt 0.83958 0.11779
vt 0.84807 0.26190
vt 0.89881 0.26234
vt 0.86582 0.29494
vt 0.88123 0.29495
vt 1.83521 0.21726
vt 1.88827 0.11779
vt 1.83958 0.11779
vt 1.90797 0.21865
vt 1.84807 0.26190
vt 1.89881 0.26234
vt 1.86582 0.29494
vt 1.88123 0.29495
vt 0.14046 0.03739
vt 0.13488 0.04592
vt 0.13488 0.03739
vt 0.14046 0.04592
vt 0.67788 0.19892
vt 0.68347 0.19892
vt 0.67788 0.20744
vt 0.68347 0.20744
vt 0.13507 0.00294
vt 0.13507 0.03358
vt 0.10443 0.00294
vt 0.10443 0.03358
vt 0.84536 0.07785
vt 0.87599 0.07785
vt 0.87599 0.10849
vt 0.84536 0.10849
vt 0.94384 0.28051
vt 0.89857 0.28051
vt 1.94384 0.28051
vt 1.89857 0.28051
vt 0.59682 0.91375
vt 0.59683 0.85859
vt 0.83866 0.25643
vt 0.83866 0.28445
vt 0.83013 0.28445
vt 0.83013 0.25643
vt 0.94685 0.66219
vt 0.99707 0.66219
vt 0.94685 0.71984
vt 0.99707 0.71984
vt 0.89448 0.07785
vt 0.88595 0.10587
vt 0.88595 0.07785
vt 0.89448 0.10587
vt 1.99707 0.71984
vt 1.94685 0.66219
vt 1.94685 0.71984
vt 1.99707 0.66219
vt 0.80983 0.85626
vt 0.86447 0.91090
vt 0.80983 0.91090
vt 0.86447 0.85627
vt 0.42296 0.92380
vt 0.42296 0.97843
vt 0.36832 0.97844
vt 0.36832 0.92380
vt 0.99408 0.06711
vt 0.97730 0.13718
vt 0.97730 0.06711
vt 0.99408 0.13718
vt 1.97730 0.06711
vt 1.97730 0.13718
vt 1.99408 0.06711
vt 1.99408 0.13718
vt 0.88816 0.33616
vt 0.85043 0.29876
vt 0.88816 0.29876
vt 0.85043 0.33616
vt 0.88816 0.37356
vt 0.85043 0.37356
vt 0.18278 0.06713
vt 0.15010 0.00294
vt 0.18278 0.00294
vt 0.15010 0.06713
vt 0.74386 0.19328
vt 0.75520 0.14594
vt 0.75520 0.19328
vt 0.74386 0.14594
vt 0.84712 0.46566
vt 0.89027 0.46889
vt 1.75520 0.19328
vt 1.75520 0.14594
vt 1.74386 0.19328
vt 1.74386 0.14594
vt 1.84712 0.46566
vt 1.89027 0.46889
vt 0.74572 0.42710
vt 0.81683 0.42710
vt 1.74572 0.42710
vt 1.81683 0.42710
vt 0.76240 0.81253
vt 0.77395 0.80718
vt 1.77395 0.80718
vt 1.76240 0.81253
vt 0.90119 0.10665
vt 0.96099 0.05947
vt 0.96591 0.10666
vt 0.90612 0.05946
vt 1.90119 0.10665
vt 1.96099 0.05947
vt 1.90612 0.05946
vt 1.96591 0.10666
vt 0.98966 0.38728
vt 0.95193 0.31316
vt 0.98966 0.31316
vt 0.95193 0.38728
vt 0.86455 0.78299
vt 0.87623 0.68353
vt 0.88527 0.68234
vt 0.85550 0.78418
vt 1.87623 0.68353
vt 1.86455 0.78299
vt 1.88527 0.68234
vt 1.85550 0.78418
vt 0.28550 0.31672
vt 0.27697 0.35415
vt 0.27697 0.31672
vt 0.28550 0.35415
vt 0.83985 0.81246
vt 0.82784 0.80829
vt 1.83985 0.81246
vt 1.82784 0.80829
vt 0.70715 0.92260
vt 0.65251 0.97724
vt 0.65251 0.92260
vt 0.70715 0.97724
vt 0.71341 0.91478
vt 0.76804 0.96942
vt 0.71341 0.96941
vt 0.76805 0.91478
vt 0.26240 0.71164
vt 0.24770 0.74718
vt 0.19538 0.70588
vt 0.17101 0.74277
vt 1.26240 0.71164
vt 1.19538 0.70588
vt 1.24770 0.74718
vt 1.17101 0.74277
vt 1.96715 0.63346
vt 1.96716 0.58436
vt 1.99341 0.58436
vt 1.99341 0.63347
vt 0.35265 0.35204
vt 0.34360 0.35088
vt 1.35265 0.35204
vt 1.34360 0.35088
vt 0.26780 0.79017
vt 0.16532 0.78427
vt 1.16532 0.78427
vt 1.26780 0.79017
vt 0.95522 0.02144
vt 0.91190 0.00294
vt 0.95522 0.00295
vt 0.91190 0.02143
vt 1.95522 0.00295
vt 1.91190 0.00294
vt 1.95522 0.02144
vt 1.91190 0.02143
vt 0.96716 0.55834
vt 0.99341 0.58436
vt 0.96716 0.58436
vt 0.99341 0.55834
vt 1.96716 0.55834
vt 1.99341 0.55834
vt 0.40384 0.70339
vt 0.46857 0.70339
vt 0.40384 0.77343
vt 0.46857 0.77343
vt 1.46857 0.77343
vt 1.40384 0.70339
vt 1.40384 0.77343
vt 1.46857 0.70339
vt 0.18632 0.83489
vt 0.25635 0.83489
vt 1.18632 0.83489
vt 1.25635 0.83489
vt 0.96715 0.63346
vt 0.99341 0.63347
vt 0.94197 0.26519
vt 0.91133 0.23455
vt 0.94197 0.23455
vt 0.91133 0.26519
vt 0.96715 0.65380
vt 0.99341 0.65380
vt 1.96715 0.65380
vt 1.99341 0.65380
vt 0.82154 0.27356
vt 0.78334 0.21345
vt 0.82792 0.21502
vt 0.76762 0.27166
vt 0.83548 0.33282
vt 0.74398 0.32959
vt 1.76762 0.27166
vt 1.83548 0.33282
vt 1.82154 0.27356
vt 1.74398 0.32959
vt 1.78334 0.21345
vt 1.82792 0.21502
vt 0.81934 0.42003
vt 0.84439 0.39358
vt 0.74386 0.39928
vt 0.76172 0.41800
vt 1.81934 0.42003
vt 1.84439 0.39358
vt 1.74386 0.39928
vt 1.76172 0.41800
vt 0.25927 0.69342
vt 0.19871 0.68995
vt 1.25927 0.69342
vt 1.19871 0.68995
vt 0.58535 0.99647
vt 0.53071 0.94184
vt 0.58535 0.94184
vt 0.53072 0.99647
vt 0.20592 0.99357
vt 0.26056 0.93894
vt 0.26056 0.99358
vt 0.20593 0.93894
vt 0.62212 0.80328
vt 0.71674 0.81131
vt 0.69256 0.83499
vt 0.63837 0.83206
vt 0.69376 0.88761
vt 0.62206 0.92209
vt 0.63804 0.89191
vt 0.72052 0.90934
vt 0.17545 0.31495
vt 0.17918 0.27789
vt 0.18423 0.31495
vt 0.17040 0.27789
vt 0.17545 0.24083
vt 0.18423 0.24083
vt 0.91640 0.23075
vt 0.91640 0.15663
vt 0.96424 0.23075
vt 0.96424 0.15663
vt 0.95193 0.45527
vt 0.95193 0.39108
vt 0.99335 0.45527
vt 0.99335 0.39108
vt 0.57794 0.67842
vt 0.56116 0.62311
vt 0.57794 0.62311
vt 0.56116 0.67842
vt 1.57794 0.67842
vt 1.57794 0.62311
vt 1.56116 0.62311
vt 1.56116 0.67842
vt 0.96590 0.15283
vt 0.90118 0.15282
vt 1.96590 0.15283
vt 1.90118 0.15282
vt 0.20711 0.61696
vt 0.19577 0.57958
vt 0.20711 0.57958
vt 0.19577 0.61696
vt 1.20711 0.61696
vt 1.20711 0.57958
vt 1.19577 0.57958
vt 1.19577 0.61696
vt 0.26683 0.94435
vt 0.34154 0.84224
vt 0.34155 0.93545
vt 0.26682 0.83335
vt 0.72356 0.85012
vt 0.72356 0.81948
vt 0.75420 0.85012
vt 0.75420 0.81948
vt 1.35907 0.31672
vt 1.36812 0.31788
vt 0.35907 0.31672
vt 0.36812 0.31788
vt 0.80806 0.83966
vt 0.81521 0.85242
vt 1.80806 0.83966
vt 1.81521 0.85242
vt 0.79258 0.83987
vt 0.78528 0.85253
vt 1.79258 0.83987
vt 1.78528 0.85253
vt 0.61191 0.23636
vt 0.61750 0.22191
vt 0.61750 0.23636
vt 0.61750 0.21338
vt 0.61191 0.19893
vt 0.61750 0.19893
vt 0.64552 0.21338
vt 0.64552 0.22191
vt 0.86145 0.82843
vt 0.87049 0.82724
vt 1.86145 0.82843
vt 1.87049 0.82724
vt 0.85043 0.07405
vt 0.89370 0.00294
vt 0.89370 0.07405
vt 0.85043 0.00294
vt 1.89370 0.07405
vt 1.89370 0.00294
vt 1.85043 0.00294
vt 1.85043 0.07405
vt 1.06640 0.87508
vt 1.03466 0.83967
vt 1.06328 0.84925
vt 1.00293 0.87508
vt 1.00605 0.84925
vt 1.06038 0.92382
vt 1.00895 0.92382
vt 1.00895 0.94415
vt 1.06038 0.94415
vt 0.03466 0.83967
vt 0.06640 0.87508
vt 0.00293 0.87508
vt 0.06328 0.84925
vt 0.00605 0.84925
vt 0.06038 0.92382
vt 0.00895 0.92382
vt 0.00895 0.94415
vt 0.06038 0.94415
vt 0.87694 0.86208
vt 0.88598 0.86089
vt 1.87694 0.86208
vt 1.88598 0.86089
vt 0.07295 0.01835
vt 0.06383 0.00295
vt 0.07295 0.00294
vt 0.06383 0.01836
vt 1.07295 0.01835
vt 1.06383 0.00295
vt 1.06383 0.01836
vt 1.07295 0.00294
vn -0.4016 0.9134 0.0000
vn 0.9685 -0.2441 0.0000
vn 0.8268 0.2441 0.5118
vn 0.8268 0.2441 -0.5118
vn 0.7165 -0.7008 0.0000
vn 0.8583 -0.5039 0.0000
vn -0.0866 0.4409 -0.8976
vn -0.0866 0.4409 0.8976
vn 0.0000 -1.0000 0.0000
vn 1.0000 -0.0787 0.0000
vn 0.7795 0.6299 0.0000
vn 0.9921 -0.1496 0.0000
vn 0.0000 1.0000 0.0000
vn 0.9921 0.1417 0.0000
vn -0.2126 0.9764 0.0000
vn 0.6772 0.7323 0.0000
vn 1.0000 0.0000 0.0000
vn 0.1732 -0.9843 0.0000
vn -0.0157 0.1968 -0.9843
vn -0.0157 0.1968 0.9843
vn -1.0000 0.0000 0.0000
vn 0.0000 -0.1575 0.9843
vn 0.0000 -0.1575 -0.9843
vn 0.0000 -0.1181 0.9921
vn 0.0000 -0.1181 -0.9921
vn -0.2756 -0.9606 0.0000
vn 0.1260 0.0000 0.9921
vn 0.1260 0.0000 -0.9921
vn 0.0000 0.0000 1.0000
vn 0.0000 0.0000 -1.0000
vn -0.1181 0.0000 0.9921
vn -0.1181 0.0000 -0.9921
vn 0.8976 0.4331 0.0000
vn 0.0000 -0.0236 1.0000
vn 0.0000 -0.0236 -1.0000
vn 0.0000 0.0866 -1.0000
vn 0.0000 0.0866 1.0000
vn -0.9449 0.0000 0.3150
vn -0.9449 0.0000 -0.3150
vn -0.8740 -0.4882 0.0000
vn 0.0000 1.0000 0.0787
vn 0.0000 1.0000 -0.0787
vn 0.9528 0.2992 0.0000
vn 0.9370 -0.3465 0.0000
vn -0.9921 0.1260 0.0000
vn -0.9921 0.1260 0.0236
vn -0.9921 0.1260 -0.0236
vn -0.9921 0.1181 0.0000
vn -0.9921 0.1260 -0.0157
vn -0.9921 0.1260 0.0157
vn -0.0157 0.2677 -0.9606
vn -0.0157 0.2677 0.9606
vn 0.9764 -0.2283 0.0000
vn -0.9685 -0.2598 0.0000
vn -0.9843 -0.1811 0.0000
vn 0.0000 -0.1968 0.9843
vn 0.0000 -0.1968 -0.9843
vn 0.0000 -0.0787 1.0000
vn 0.0000 -0.0787 -1.0000
vn 1.0000 0.0315 0.0000
vn 0.0000 -0.7480 0.6693
vn 0.4961 0.8661 0.0000
vn 0.0000 -0.7480 -0.6693
vn -0.0079 0.0472 1.0000
vn -0.0079 0.0472 -1.0000
vn 0.7008 0.7165 0.0000
vn -0.1102 -0.0315 0.9921
vn 0.0000 0.9921 -0.1339
vn -0.1102 -0.0315 -0.9921
vn 0.0000 0.9921 0.1339
vn -0.7480 0.6614 0.0000
vn -1.0000 -0.0394 0.0000
vn -1.0000 0.0709 0.0000
vn -0.4724 -0.8819 0.0000
vn 0.0000 0.0787 -1.0000
vn 0.0000 0.0787 1.0000
vn 0.0000 -0.9921 0.1339
vn 0.0000 -0.9921 -0.1339
vn 0.0000 -0.0472 -1.0000
vn 0.0000 -0.0472 1.0000
vn 0.9921 -0.1181 0.0000
vn -0.9685 -0.2283 0.0472
vn -0.9685 -0.2283 -0.0472
vn -0.8819 -0.4803 0.0000
vn -0.0472 0.1968 -0.9764
vn -0.0472 0.1968 0.9764
vn -0.9685 -0.2362 -0.0551
vn -0.9685 -0.2362 0.0551
vn 0.0000 -1.0000 -0.0787
vn 0.0000 -1.0000 0.0787
vn 0.0630 -0.2677 0.9606
vn 0.0630 -0.2677 -0.9606
vn -0.9764 -0.2283 0.0000
vn -0.0551 1.0000 0.0000
vn -0.6772 -0.2047 0.7087
vn -0.6772 -0.2047 -0.7087
vn -0.9843 0.1890 0.0000
vn 0.1102 -0.4803 -0.8661
vn 0.1102 -0.4803 0.8661
vn -0.8504 -0.5276 0.0157
vn -0.8504 -0.5276 -0.0157
vn -0.8425 -0.5433 0.0000
vn 0.0394 -0.2047 -0.9764
vn 0.0394 -0.2047 0.9764
vn -0.9449 0.3307 0.0000
vn -0.9606 -0.2835 0.0000
vn -0.8819 0.4724 0.0000
vn 0.1024 -0.4882 -0.8661
vn 0.1024 -0.4882 0.8661
vn 0.2126 -0.9764 0.0000

o animal_bunny
usemtl tex_animal_bunny_i009p001x
f 1/1/1 2/2/1 3/3/1
f 4/4/1 1/1/1 3/3/1
f 5/5/1 6/6/1 7/7/1
f 7/7/1 6/6/1 8/8/1
f 9/9/2 10/10/2 11/11/2
f 12/12/3 9/9/3 11/11/3
f 10/10/4 13/13/4 11/11/4
f 14/14/5 15/15/5 16/16/5
f 17/17/5 16/16/5 15/15/5
f 18/18/6 19/19/6 20/20/6
f 19/19/6 18/18/6 21/21/6
f 22/22/6 23/23/6 24/24/6
f 23/23/6 22/22/6 25/25/6
f 26/26/7 7/27/7 8/28/7
f 27/29/7 26/26/7 8/28/7
f 28/30/8 2/31/8 1/32/8
f 29/33/8 2/31/8 28/30/8
f 30/34/9 31/35/9 32/36/9
f 31/35/9 33/37/9 32/36/9
f 33/37/9 31/35/9 34/38/9
f 32/36/9 33/37/9 35/39/9
f 35/39/9 33/37/9 36/40/9
f 37/41/9 35/39/9 36/40/9
f 35/39/9 37/41/9 38/42/9
f 39/43/9 40/44/9 41/45/9
f 40/44/9 42/46/9 41/45/9
f 42/46/9 40/44/9 43/47/9
f 41/45/9 42/46/9 44/48/9
f 44/48/9 42/46/9 45/49/9
f 46/50/9 44/48/9 45/49/9
f 44/48/9 46/50/9 47/51/9
f 48/44/9 49/46/9 50/47/9
f 48/44/9 51/45/9 49/46/9
f 51/45/9 48/44/9 52/43/9
f 53/48/9 49/46/9 51/45/9
f 49/46/9 53/48/9 54/49/9
f 55/51/9 54/49/9 53/48/9
f 54/49/9 55/51/9 56/50/9
f 57/44/9 58/46/9 59/47/9
f 57/44/9 60/45/9 58/46/9
f 60/45/9 57/44/9 61/43/9
f 62/48/9 58/46/9 60/45/9
f 58/46/9 62/48/9 63/49/9
f 63/49/9 62/48/9 64/50/9
f 64/50/9 62/48/9 65/51/9
f 19/19/10 66/52/10 67/53/10
f 66/52/10 19/19/10 21/21/10
f 22/22/10 68/54/10 25/25/10
f 68/54/10 22/22/10 69/55/10
f 70/56/9 71/57/9 72/58/9
f 71/57/9 70/56/9 73/59/9
f 74/60/9 75/61/9 76/62/9
f 74/60/9 76/62/9 77/63/9
f 78/64/9 79/65/9 80/66/9
f 79/65/9 78/64/9 81/67/9
f 82/68/9 83/69/9 84/70/9
f 82/68/9 84/70/9 85/71/9
f 29/72/11 3/73/11 2/74/11
f 3/73/11 29/72/11 86/75/11
f 87/76/11 27/77/11 6/78/11
f 6/78/11 27/77/11 8/79/11
f 73/80/12 20/20/12 71/81/12
f 20/20/12 73/80/12 18/18/12
f 77/82/12 24/24/12 23/23/12
f 24/24/12 77/82/12 76/83/12
f 88/84/13 89/85/13 90/86/13
f 89/85/13 88/84/13 91/87/13
f 16/16/14 17/17/14 92/88/14
f 93/89/14 92/88/14 17/17/14
f 94/90/15 95/91/15 96/92/15
f 94/90/15 96/92/15 97/93/15
f 98/94/15 99/95/15 100/96/15
f 101/97/15 100/96/15 99/95/15
f 13/13/16 12/12/16 11/11/16
f 102/98/13 103/99/13 104/100/13
f 105/101/13 104/100/13 103/99/13
f 106/102/13 107/103/13 108/104/13
f 106/102/13 108/104/13 109/105/13
f 46/106/17 110/107/17 47/108/17
f 110/107/17 46/106/17 111/109/17
f 64/106/17 112/107/17 113/109/17
f 112/107/17 64/106/17 65/108/17
f 114/110/18 10/111/18 9/112/18
f 10/111/18 114/110/18 115/113/18
f 116/114/19 27/29/19 117/115/19
f 116/114/19 26/26/19 27/29/19
f 118/116/13 119/117/13 120/118/13
f 121/119/13 120/118/13 119/117/13
f 29/33/20 122/120/20 123/121/20
f 122/120/20 29/33/20 28/30/20
f 124/122/13 125/123/13 126/124/13
f 125/123/13 124/122/13 127/125/13
f 128/126/21 129/127/21 130/128/21
f 129/127/21 128/126/21 131/129/21
f 20/130/22 132/131/22 133/132/22
f 132/131/22 20/130/22 19/133/22
f 134/134/23 24/135/23 135/136/23
f 24/135/23 134/134/23 22/137/23
f 136/138/21 137/139/21 138/140/21
f 137/139/21 136/138/21 139/141/21
f 140/142/21 139/141/21 136/138/21
f 141/143/21 139/141/21 140/142/21
f 139/141/21 142/144/21 137/139/21
f 142/144/21 139/141/21 143/145/21
f 132/131/24 67/146/24 144/147/24
f 67/146/24 132/131/24 19/133/24
f 145/148/21 146/149/21 147/150/21
f 146/149/21 145/148/21 148/151/21
f 134/134/25 69/152/25 22/137/25
f 69/152/25 134/134/25 149/153/25
f 150/154/21 151/155/21 148/156/21
f 150/154/21 152/157/21 151/155/21
f 153/158/26 15/159/26 14/160/26
f 15/159/26 153/158/26 154/161/26
f 155/162/27 41/163/27 44/164/27
f 41/163/27 155/162/27 156/165/27
f 157/165/28 158/162/28 60/163/28
f 60/163/28 158/162/28 62/164/28
f 159/166/21 160/167/21 161/168/21
f 160/167/21 159/166/21 162/169/21
f 159/166/21 163/170/21 162/169/21
f 163/170/21 159/166/21 164/171/21
f 165/172/21 166/173/21 167/174/21
f 166/173/21 165/172/21 168/175/21
f 169/176/21 170/177/21 171/178/21
f 170/177/21 169/176/21 172/179/21
f 144/147/29 173/180/29 174/181/29
f 173/180/29 144/147/29 67/146/29
f 175/182/30 149/153/30 176/183/30
f 149/153/30 175/182/30 69/152/30
f 177/184/31 30/185/31 32/186/31
f 177/184/31 32/186/31 178/187/31
f 179/188/32 51/163/32 52/189/32
f 51/163/32 179/188/32 180/165/32
f 67/53/33 66/52/33 173/190/33
f 66/52/33 181/191/33 173/190/33
f 68/54/33 175/192/33 182/193/33
f 69/55/33 175/192/33 68/54/33
f 183/194/34 80/195/34 79/196/34
f 183/194/34 79/196/34 184/197/34
f 185/198/34 183/194/34 184/197/34
f 185/198/34 184/197/34 186/199/34
f 187/200/35 84/201/35 83/202/35
f 84/201/35 187/200/35 188/203/35
f 189/204/35 188/203/35 187/200/35
f 188/203/35 189/204/35 190/205/35
f 3/206/7 191/207/7 4/208/7
f 191/207/7 3/206/7 86/209/7
f 185/198/29 192/210/29 193/211/29
f 194/212/29 192/210/29 185/198/29
f 192/210/29 194/212/29 195/213/29
f 185/198/29 186/199/29 194/212/29
f 196/214/30 189/204/30 197/215/30
f 189/204/30 196/214/30 198/216/30
f 198/216/30 196/214/30 199/217/30
f 189/204/30 198/216/30 190/205/30
f 200/218/8 6/219/8 5/220/8
f 6/219/8 200/218/8 87/221/8
f 201/222/27 32/186/27 35/223/27
f 32/186/27 201/222/27 178/187/27
f 180/165/28 202/162/28 51/163/28
f 51/163/28 202/162/28 53/164/28
f 35/223/29 203/224/29 201/222/29
f 203/224/29 35/223/29 38/225/29
f 44/164/29 110/226/29 155/162/29
f 110/226/29 44/164/29 47/227/29
f 53/164/30 204/226/30 55/227/30
f 53/164/30 202/162/30 204/226/30
f 62/164/30 112/226/30 65/227/30
f 62/164/30 158/162/30 112/226/30
f 20/130/29 72/228/29 71/229/29
f 72/228/29 20/130/29 133/132/29
f 75/230/30 24/135/30 76/231/30
f 135/136/30 24/135/30 75/230/30
f 118/232/21 205/233/21 119/234/21
f 205/233/21 118/232/21 206/235/21
f 126/236/21 207/237/21 208/238/21
f 126/236/21 125/239/21 207/237/21
f 209/188/32 60/163/32 61/189/32
f 60/163/32 209/188/32 157/165/32
f 210/188/31 39/189/31 41/163/31
f 210/188/31 41/163/31 156/165/31
f 104/240/21 211/241/21 212/242/21
f 211/241/21 104/240/21 105/243/21
f 106/244/21 213/245/21 107/246/21
f 213/245/21 106/244/21 214/247/21
f 90/248/21 215/249/21 216/250/21
f 215/249/21 90/248/21 217/251/21
f 90/248/21 89/252/21 217/251/21
f 217/251/21 89/252/21 218/253/21
f 89/254/36 91/255/36 218/256/36
f 218/256/36 91/255/36 219/257/36
f 90/258/37 216/259/37 220/260/37
f 90/258/37 220/260/37 88/261/37
f 130/262/13 221/263/13 222/264/13
f 128/265/13 130/262/13 222/264/13
f 177/266/38 31/267/38 30/268/38
f 31/267/38 177/266/38 223/269/38
f 224/270/39 179/271/39 48/272/39
f 179/271/39 52/273/39 48/272/39
f 225/274/40 154/275/40 153/276/40
f 154/275/40 225/274/40 226/277/40
f 147/278/41 227/279/41 228/280/41
f 145/281/41 147/278/41 228/280/41
f 150/282/42 229/283/42 152/284/42
f 152/284/42 229/283/42 230/285/42
f 123/286/43 86/75/43 29/72/43
f 123/286/43 231/287/43 86/75/43
f 117/288/43 87/76/43 232/289/43
f 87/76/43 117/288/43 27/77/43
f 225/290/29 92/291/29 233/292/29
f 92/291/29 225/290/29 16/293/29
f 153/294/29 16/293/29 225/290/29
f 16/293/29 153/294/29 14/295/29
f 93/296/30 226/297/30 234/298/30
f 226/297/30 93/296/30 17/299/30
f 226/297/30 17/299/30 154/300/30
f 154/300/30 17/299/30 15/301/30
f 235/302/13 236/303/13 165/304/13
f 168/305/13 165/304/13 236/303/13
f 184/306/44 237/307/44 186/308/44
f 237/307/44 238/309/44 186/308/44
f 239/310/44 190/311/44 240/312/44
f 188/313/44 190/311/44 239/310/44
f 233/314/45 226/277/45 225/274/45
f 226/277/45 233/314/45 234/315/45
f 241/316/17 88/317/17 220/318/17
f 242/319/17 88/317/17 241/316/17
f 88/317/17 242/319/17 91/320/17
f 91/320/17 242/319/17 219/321/17
f 140/322/13 243/323/13 244/324/13
f 141/325/13 140/322/13 244/324/13
f 106/326/30 245/327/30 214/328/30
f 245/327/30 106/326/30 109/329/30
f 104/330/29 212/331/29 246/332/29
f 104/330/29 246/332/29 102/333/29
f 247/334/46 248/335/46 94/336/46
f 247/334/46 94/336/46 249/337/46
f 250/338/47 99/339/47 251/340/47
f 252/341/47 99/339/47 250/338/47
f 94/336/48 253/342/48 95/343/48
f 253/342/48 94/336/48 248/335/48
f 99/339/48 254/344/48 251/340/48
f 254/344/48 99/339/48 98/345/48
f 95/343/49 122/346/49 255/347/49
f 122/346/49 95/343/49 253/342/49
f 98/345/50 116/348/50 254/344/50
f 116/348/50 98/345/50 256/349/50
f 247/350/51 86/209/51 231/351/51
f 86/209/51 247/350/51 191/207/51
f 87/221/52 250/352/52 232/353/52
f 250/352/52 87/221/52 200/218/52
f 79/354/53 237/307/53 184/306/53
f 237/307/53 79/354/53 81/355/53
f 84/356/53 239/310/53 85/357/53
f 239/310/53 84/356/53 188/313/53
f 257/358/13 258/359/13 169/360/13
f 172/361/13 169/360/13 258/359/13
f 125/362/30 259/363/30 207/364/30
f 259/363/30 125/362/30 127/365/30
f 185/366/54 260/367/54 183/368/54
f 260/367/54 185/366/54 261/369/54
f 119/370/29 205/371/29 262/372/29
f 119/370/29 262/372/29 121/373/29
f 189/374/54 263/375/54 264/376/54
f 263/375/54 189/374/54 187/377/54
f 265/378/55 185/366/55 193/379/55
f 185/366/55 265/378/55 261/369/55
f 266/380/55 189/374/55 264/376/55
f 266/380/55 197/381/55 189/374/55
f 122/120/56 253/382/56 267/383/56
f 122/120/56 267/383/56 123/121/56
f 116/114/57 268/384/57 254/385/57
f 268/384/57 116/114/57 117/115/57
f 147/386/58 146/387/58 269/388/58
f 147/386/58 269/388/58 227/389/58
f 152/390/59 270/391/59 151/392/59
f 270/391/59 152/390/59 230/393/59
f 186/308/60 238/309/60 194/394/60
f 238/309/60 271/395/60 194/394/60
f 240/312/60 198/396/60 272/397/60
f 190/311/60 198/396/60 240/312/60
f 273/398/13 138/399/13 274/400/13
f 138/399/13 273/398/13 136/401/13
f 139/402/13 275/403/13 276/404/13
f 143/405/13 139/402/13 276/404/13
f 220/406/61 216/407/61 215/408/61
f 215/408/61 241/409/61 220/406/61
f 92/410/62 234/411/62 233/412/62
f 234/411/62 92/410/62 93/413/62
f 219/414/63 217/415/63 218/416/63
f 217/415/63 219/414/63 242/417/63
f 223/269/39 34/418/39 31/267/39
f 277/419/39 34/418/39 223/269/39
f 224/270/38 48/272/38 50/420/38
f 278/421/38 224/270/38 50/420/38
f 160/422/29 279/423/29 161/424/29
f 161/424/29 279/423/29 280/425/29
f 165/426/29 167/427/29 281/428/29
f 165/426/29 281/428/29 235/429/29
f 164/430/30 282/431/30 163/432/30
f 163/432/30 282/431/30 283/433/30
f 236/434/30 166/435/30 168/436/30
f 166/435/30 236/434/30 284/437/30
f 249/438/64 94/439/64 97/440/64
f 97/440/64 285/441/64 249/438/64
f 99/442/65 252/443/65 101/444/65
f 286/445/65 101/444/65 252/443/65
f 169/446/29 171/447/29 287/448/29
f 169/446/29 287/448/29 257/449/29
f 172/450/30 258/451/30 170/452/30
f 170/452/30 258/451/30 288/453/30
f 37/454/17 203/455/17 38/456/17
f 203/455/17 37/454/17 289/457/17
f 56/106/17 204/107/17 290/109/17
f 204/107/17 56/106/17 55/108/17
f 271/395/66 195/458/66 194/394/66
f 195/458/66 271/395/66 291/459/66
f 272/397/66 198/396/66 292/460/66
f 199/461/66 292/460/66 198/396/66
f 293/462/67 114/463/67 9/464/67
f 9/464/67 12/465/67 293/462/67
f 161/466/68 280/467/68 294/468/68
f 159/469/68 161/466/68 294/468/68
f 295/470/69 10/471/69 115/472/69
f 10/471/69 295/470/69 13/473/69
f 159/469/70 294/468/70 282/474/70
f 164/475/70 159/469/70 282/474/70
f 192/476/71 265/378/71 193/379/71
f 265/378/71 192/476/71 296/477/71
f 297/478/71 196/479/71 266/380/71
f 197/381/71 266/380/71 196/479/71
f 298/480/72 285/481/72 96/482/72
f 96/482/72 285/481/72 97/483/72
f 298/480/72 299/484/72 285/481/72
f 299/484/72 298/480/72 300/485/72
f 299/484/72 300/485/72 301/486/72
f 301/486/72 300/485/72 302/487/72
f 286/488/72 100/489/72 101/490/72
f 100/489/72 286/488/72 303/491/72
f 303/491/72 286/488/72 304/492/72
f 305/493/72 303/491/72 304/492/72
f 305/493/72 304/492/72 306/494/72
f 305/493/72 306/494/72 307/495/72
f 137/496/29 274/497/29 138/498/29
f 274/497/29 137/496/29 308/499/29
f 142/500/30 143/501/30 309/502/30
f 143/501/30 276/503/30 309/502/30
f 128/504/30 222/505/30 131/506/30
f 131/506/30 222/505/30 310/507/30
f 130/508/29 129/509/29 311/510/29
f 130/508/29 311/510/29 221/511/29
f 260/367/73 80/512/73 183/368/73
f 80/512/73 260/367/73 78/513/73
f 263/375/73 83/514/73 82/515/73
f 263/375/73 187/377/73 83/514/73
f 312/516/74 114/110/74 313/517/74
f 114/110/74 312/516/74 115/113/74
f 140/518/29 136/519/29 273/520/29
f 140/518/29 273/520/29 243/521/29
f 296/522/13 192/523/13 291/524/13
f 192/523/13 195/525/13 291/524/13
f 139/526/30 244/527/30 275/528/30
f 139/526/30 141/529/30 244/527/30
f 199/530/13 297/531/13 292/532/13
f 297/531/13 199/530/13 196/533/13
f 148/534/75 228/535/75 314/536/75
f 228/535/75 148/534/75 145/537/75
f 148/538/76 314/539/76 229/540/76
f 150/541/76 148/538/76 229/540/76
f 217/415/9 241/409/9 215/408/9
f 241/409/9 217/415/9 242/417/9
f 211/542/30 103/543/30 315/544/30
f 211/542/30 105/545/30 103/543/30
f 316/546/29 108/547/29 213/548/29
f 107/549/29 213/548/29 108/547/29
f 162/550/77 279/551/77 160/552/77
f 279/551/77 162/550/77 317/553/77
f 163/554/78 317/553/78 162/550/78
f 317/553/78 163/554/78 283/555/78
f 170/556/9 287/557/9 171/558/9
f 287/557/9 170/556/9 288/559/9
f 120/560/30 206/561/30 118/562/30
f 206/561/30 120/560/30 318/563/30
f 247/350/79 319/564/79 248/565/79
f 319/564/79 247/350/79 231/351/79
f 126/566/29 208/567/29 124/568/29
f 320/569/29 124/568/29 208/567/29
f 321/570/80 250/352/80 251/571/80
f 250/352/80 321/570/80 232/353/80
f 267/572/81 231/287/81 123/286/81
f 231/287/81 267/572/81 319/573/81
f 268/574/81 232/289/81 321/575/81
f 232/289/81 268/574/81 117/288/81
f 249/337/82 191/576/82 247/334/82
f 191/576/82 249/337/82 322/577/82
f 323/578/83 252/341/83 200/579/83
f 250/338/83 200/579/83 252/341/83
f 324/580/84 132/581/84 144/582/84
f 132/581/84 324/580/84 325/583/84
f 326/584/84 134/585/84 327/586/84
f 326/584/84 149/587/84 134/585/84
f 166/588/9 281/589/9 167/590/9
f 281/589/9 166/588/9 284/591/9
f 210/271/38 40/272/38 39/273/38
f 40/272/38 210/271/38 328/270/38
f 329/270/39 209/271/39 57/272/39
f 209/271/39 61/273/39 57/272/39
f 255/592/85 96/593/85 95/594/85
f 96/593/85 255/592/85 298/595/85
f 100/596/86 256/597/86 98/598/86
f 256/597/86 100/596/86 303/599/86
f 137/600/9 309/601/9 308/602/9
f 137/600/9 142/603/9 309/601/9
f 255/347/87 28/604/87 330/605/87
f 28/604/87 255/347/87 122/346/87
f 256/349/88 26/606/88 116/348/88
f 26/606/88 256/349/88 331/607/88
f 148/608/89 269/609/89 146/610/89
f 269/609/89 148/608/89 314/611/89
f 148/612/90 270/613/90 314/614/90
f 148/612/90 151/615/90 270/613/90
f 332/616/23 325/617/23 18/618/23
f 325/617/23 21/619/23 18/618/23
f 333/620/22 23/621/22 327/622/22
f 25/623/22 327/622/22 23/621/22
f 45/624/28 42/625/28 334/626/28
f 334/626/28 335/627/28 45/624/28
f 58/625/27 63/624/27 336/626/27
f 336/626/27 63/624/27 337/627/27
f 285/441/91 322/628/91 249/438/91
f 322/628/91 285/441/91 299/629/91
f 252/443/92 323/630/92 286/445/92
f 304/631/92 286/445/92 323/630/92
f 324/632/25 66/633/25 325/617/25
f 325/617/25 66/633/25 21/619/25
f 327/622/24 25/623/24 68/634/24
f 68/634/24 326/635/24 327/622/24
f 133/636/93 70/637/93 72/638/93
f 133/636/93 332/639/93 70/637/93
f 75/640/93 74/641/93 135/642/93
f 333/643/93 135/642/93 74/641/93
f 34/644/32 338/645/32 33/646/32
f 34/644/32 277/647/32 338/645/32
f 339/626/31 50/648/31 49/625/31
f 50/648/31 339/626/31 278/649/31
f 340/650/94 174/651/94 181/652/94
f 174/651/94 173/653/94 181/652/94
f 175/654/94 341/655/94 182/656/94
f 341/655/94 175/654/94 176/657/94
f 66/633/30 324/632/30 181/658/30
f 181/658/30 324/632/30 340/659/30
f 326/635/29 68/634/29 182/660/29
f 341/661/29 326/635/29 182/660/29
f 36/662/28 33/646/28 338/645/28
f 338/645/28 342/663/28 36/662/28
f 54/624/27 339/626/27 49/625/27
f 339/626/27 54/624/27 343/627/27
f 131/664/9 311/665/9 129/666/9
f 311/665/9 131/664/9 310/667/9
f 36/662/30 342/663/30 37/668/30
f 342/663/30 289/669/30 37/668/30
f 45/624/30 335/627/30 46/670/30
f 335/627/30 111/671/30 46/670/30
f 54/624/29 56/670/29 343/627/29
f 343/627/29 56/670/29 290/671/29
f 63/624/29 64/670/29 337/627/29
f 337/627/29 64/670/29 113/671/29
f 260/672/35 81/673/35 78/674/35
f 81/673/35 260/672/35 237/675/35
f 261/676/35 237/675/35 260/672/35
f 237/675/35 261/676/35 238/677/35
f 239/678/34 264/679/34 263/680/34
f 264/679/34 239/678/34 240/681/34
f 85/682/34 263/680/34 82/683/34
f 263/680/34 85/682/34 239/678/34
f 296/684/30 261/676/30 265/685/30
f 296/684/30 271/686/30 261/676/30
f 261/676/30 271/686/30 238/677/30
f 271/686/30 296/684/30 291/687/30
f 264/679/29 297/688/29 266/689/29
f 297/688/29 264/679/29 272/690/29
f 272/690/29 264/679/29 240/681/29
f 297/688/29 272/690/29 292/691/29
f 43/648/32 344/649/32 334/626/32
f 43/648/32 334/626/32 42/625/32
f 336/626/31 59/648/31 58/625/31
f 59/648/31 336/626/31 345/649/31
f 18/618/30 70/692/30 332/616/30
f 70/692/30 18/618/30 73/693/30
f 74/694/29 23/621/29 333/620/29
f 23/621/29 74/694/29 77/695/29
f 228/696/17 269/697/17 314/698/17
f 269/697/17 228/696/17 227/699/17
f 229/700/17 270/701/17 230/702/17
f 270/701/17 229/700/17 314/703/17
f 328/270/39 43/420/39 40/272/39
f 43/420/39 328/270/39 344/421/39
f 345/421/38 329/270/38 59/420/38
f 329/270/38 57/272/38 59/420/38
f 114/704/95 293/705/95 346/706/95
f 114/704/95 346/706/95 313/707/95
f 347/708/96 115/709/96 312/710/96
f 115/709/96 347/708/96 295/711/96
f 279/712/17 294/713/17 280/714/17
f 294/713/17 279/712/17 317/715/17
f 317/715/17 283/716/17 294/713/17
f 282/717/17 294/713/17 283/716/17
f 281/718/17 284/719/17 235/720/17
f 284/719/17 236/721/17 235/720/17
f 287/722/17 288/723/17 257/724/17
f 288/723/17 258/725/17 257/724/17
f 211/726/9 246/727/9 212/728/9
f 246/727/9 211/726/9 315/729/9
f 213/730/9 214/731/9 245/732/9
f 213/730/9 245/732/9 316/733/9
f 174/734/97 324/580/97 144/582/97
f 324/580/97 174/734/97 340/735/97
f 176/736/97 326/584/97 341/737/97
f 326/584/97 176/736/97 149/587/97
f 206/738/9 262/739/9 205/740/9
f 262/739/9 206/738/9 318/741/9
f 208/742/9 207/743/9 259/744/9
f 208/742/9 259/744/9 320/745/9
f 12/746/1 295/747/1 293/748/1
f 295/747/1 12/746/1 13/749/1
f 311/750/17 310/751/17 221/752/17
f 310/751/17 222/753/17 221/752/17
f 323/630/98 306/754/98 304/631/98
f 306/754/98 323/630/98 348/755/98
f 322/628/99 301/756/99 349/757/99
f 301/756/99 322/628/99 299/629/99
f 28/604/100 350/758/100 330/605/100
f 350/758/100 28/604/100 1/759/100
f 351/760/101 26/606/101 331/607/101
f 7/761/101 26/606/101 351/760/101
f 349/762/101 191/576/101 322/577/101
f 191/576/101 349/762/101 4/763/101
f 200/579/100 348/764/100 323/578/100
f 348/764/100 200/579/100 5/765/100
f 1/759/102 349/762/102 350/758/102
f 1/759/102 4/763/102 349/762/102
f 5/765/102 7/761/102 348/764/102
f 348/764/102 7/761/102 351/760/102
f 308/766/17 273/767/17 274/768/17
f 308/766/17 275/769/17 273/767/17
f 308/766/17 309/770/17 275/769/17
f 275/769/17 309/770/17 276/771/17
f 275/769/17 244/772/17 273/767/17
f 243/773/17 273/767/17 244/772/17
f 300/774/103 298/595/103 255/592/103
f 255/592/103 330/775/103 300/774/103
f 303/599/104 305/776/104 256/597/104
f 331/777/104 256/597/104 305/776/104
f 132/581/105 332/639/105 133/636/105
f 325/583/105 332/639/105 132/581/105
f 327/586/105 134/585/105 333/643/105
f 134/585/105 135/642/105 333/643/105
f 319/778/9 253/779/9 248/780/9
f 253/779/9 319/778/9 267/781/9
f 251/782/9 254/783/9 268/784/9
f 251/782/9 268/784/9 321/785/9
f 347/708/106 313/707/106 346/706/106
f 313/707/106 347/708/106 312/710/106
f 156/786/13 328/787/13 210/788/13
f 328/787/13 156/786/13 334/789/13
f 328/787/13 334/789/13 344/790/13
f 334/789/13 156/786/13 155/791/13
f 334/789/13 155/791/13 335/792/13
f 155/791/13 111/793/13 335/792/13
f 111/793/13 155/791/13 110/794/13
f 223/795/13 178/796/13 338/797/13
f 178/796/13 223/795/13 177/798/13
f 223/795/13 338/797/13 277/799/13
f 338/797/13 178/796/13 201/800/13
f 338/797/13 201/800/13 342/801/13
f 201/800/13 289/802/13 342/801/13
f 289/802/13 201/800/13 203/803/13
f 224/787/13 278/790/13 339/789/13
f 180/786/13 224/787/13 339/789/13
f 224/787/13 180/786/13 179/788/13
f 339/789/13 202/791/13 180/786/13
f 202/791/13 339/789/13 343/792/13
f 343/792/13 204/794/13 202/791/13
f 204/794/13 343/792/13 290/793/13
f 329/787/13 345/790/13 336/789/13
f 157/786/13 329/787/13 336/789/13
f 329/787/13 157/786/13 209/788/13
f 336/789/13 158/791/13 157/786/13
f 158/791/13 336/789/13 337/792/13
f 337/792/13 112/794/13 158/791/13
f 112/794/13 337/792/13 113/793/13
f 295/711/107 346/706/107 293/705/107
f 346/706/107 295/711/107 347/708/107
f 302/804/108 300/774/108 330/775/108
f 330/775/108 350/805/108 302/804/108
f 331/777/109 307/806/109 351/807/109
f 305/776/109 307/806/109 331/777/109
f 349/808/110 302/809/110 350/810/110
f 302/809/110 349/808/110 301/811/110
f 348/812/110 307/813/110 306/814/110
f 307/813/110 348/812/110 351/815/110
