# Roblox asset pack: tupandactylus (creatures), from the Studio model "Tupandactylus". Exported with Export Selection, split by tools/build_creatures.py: one object per rigid body. Units: studs. +Y up, front faces -Z, pivot (bottom centre) at the origin.
mtllib tupandactylus.mtl

v 0.50000 1.70000 -4.22000
v 0.50000 2.22000 -1.27000
v 0.50000 1.20000 -4.14000
v 0.50000 1.72000 -1.18000
v -0.50000 2.22000 -1.27000
v -0.50000 1.70000 -4.22000
v -0.50000 1.72000 -1.18000
v -0.50000 1.20000 -4.14000
v 0.50000 3.25000 -4.25000
v 0.50000 3.25000 -1.75000
v 0.50000 2.50000 -4.25000
v 0.50000 2.50000 -1.75000
v -0.50000 3.25000 -1.75000
v -0.50000 3.25000 -4.25000
v -0.50000 2.50000 -1.75000
v -0.50000 2.50000 -4.25000
v 0.12500 1.25000 -3.89000
v 0.12500 1.42000 -2.91000
v 0.12500 0.75000 -3.80000
v 0.12500 0.93000 -2.82000
v -0.12500 1.42000 -2.91000
v -0.12500 1.25000 -3.89000
v -0.12500 0.93000 -2.82000
v -0.12500 0.75000 -3.80000
v 0.75000 3.25000 -1.75000
v 0.75000 3.25000 -0.25000
v 0.75000 3.00000 -1.75000
v 0.75000 3.00000 -0.25000
v -0.75000 3.25000 -0.25000
v -0.75000 3.25000 -1.75000
v -0.75000 3.00000 -0.25000
v -0.75000 3.00000 -1.75000
v 0.25000 3.07000 -0.83000
v 0.25000 4.09000 1.99000
v 0.25000 2.60000 -0.66000
v 0.25000 3.62000 2.16000
v -0.25000 4.09000 1.99000
v -0.25000 3.07000 -0.83000
v -0.25000 3.62000 2.16000
v -0.25000 2.60000 -0.66000
v 0.25000 3.03000 -3.53000
v 0.25000 3.00000 -1.93000
v 0.25000 3.80000 -2.89000
v -0.25000 3.03000 -3.53000
v -0.25000 3.80000 -2.89000
v -0.25000 3.00000 -1.93000
v 0.25000 3.22000 -4.03000
v 0.25000 7.81000 -0.17000
v 0.25000 2.89000 -3.65000
v 0.25000 7.49000 0.21000
v -0.25000 7.81000 -0.17000
v -0.25000 3.22000 -4.03000
v -0.25000 7.49000 0.21000
v -0.25000 2.89000 -3.65000
v 0.25000 2.68000 -1.55000
v 0.25000 4.95000 -1.92000
v -0.25000 2.68000 -1.55000
v -0.25000 4.95000 -1.92000
v 0.25000 1.65000 -4.47000
v 0.25000 1.70000 -4.22000
v 0.25000 1.16000 -4.38000
v 0.25000 1.20000 -4.14000
v -0.25000 1.70000 -4.22000
v -0.25000 1.65000 -4.47000
v -0.25000 1.20000 -4.14000
v -0.25000 1.16000 -4.38000
v 0.25000 3.00000 -4.50000
v 0.25000 3.00000 -4.25000
v 0.25000 2.50000 -4.50000
v 0.25000 2.50000 -4.25000
v -0.25000 3.00000 -4.25000
v -0.25000 3.00000 -4.50000
v -0.25000 2.50000 -4.25000
v -0.25000 2.50000 -4.50000
v 0.12500 7.29000 -0.03000
v 0.12500 4.95000 -1.92000
v 0.12500 5.32000 0.30000
v -0.12500 7.29000 -0.03000
v -0.12500 5.32000 0.30000
v -0.12500 4.95000 -1.92000
v -0.12500 5.40000 0.79000
v -0.12500 3.79000 1.82000
v -0.12500 3.67000 1.08000
v 0.12500 5.40000 0.79000
v 0.12500 3.67000 1.08000
v 0.12500 3.79000 1.82000
v 0.12500 2.98000 -1.60000
v 0.12500 3.43000 1.12000
v -0.12500 3.43000 1.12000
v -0.12500 2.98000 -1.60000
v 0.81200 3.00000 -1.25000
v 0.81200 3.00000 -0.75000
v 0.81200 2.50000 -1.25000
v 0.81200 2.50000 -0.75000
v -0.81200 3.00000 -0.75000
v -0.81200 3.00000 -1.25000
v -0.81200 2.50000 -0.75000
v -0.81200 2.50000 -1.25000
v 0.25000 2.50000 -2.25000
v 0.25000 2.50000 -1.25000
v 0.25000 2.00000 -2.25000
v 0.25000 2.00000 -1.25000
v -0.25000 2.50000 -1.25000
v -0.25000 2.50000 -2.25000
v -0.25000 2.00000 -1.25000
v -0.25000 2.00000 -2.25000
v 0.75000 1.75000 -1.75000
v 0.75000 1.75000 -0.25000
v -0.75000 1.75000 -0.25000
v -0.75000 1.75000 -1.75000
v 0.50000 2.68000 -0.60000
v 0.50000 2.22000 1.10000
v 0.50000 1.71000 -0.85000
v 0.50000 1.26000 0.84000
v -0.50000 2.22000 1.10000
v -0.50000 2.68000 -0.60000
v -0.50000 1.26000 0.84000
v -0.50000 1.71000 -0.85000
v 0.81800 3.00000 -1.25000
v 0.81800 3.00000 -0.75000
v 0.81800 2.50000 -1.25000
v 0.81800 2.50000 -0.75000
v -0.81800 3.00000 -0.75000
v -0.81800 3.00000 -1.25000
v -0.81800 2.50000 -0.75000
v -0.81800 2.50000 -1.25000
v -0.50000 2.38000 1.25000
v -0.50000 2.38000 3.25000
v -0.50000 2.12000 1.25000
v -0.50000 2.12000 3.25000
v -2.75000 2.38000 3.25000
v -2.75000 2.38000 1.25000
v -2.75000 2.12000 3.25000
v -2.75000 2.12000 1.25000
v -4.75000 2.38000 1.25000
v -4.75000 2.38000 2.25000
v -4.75000 2.12000 1.25000
v -4.75000 2.12000 2.25000
v -6.25000 2.38000 2.25000
v -6.25000 2.38000 1.25000
v -6.25000 2.12000 2.25000
v -6.25000 2.12000 1.25000
v -3.75000 2.38000 1.25000
v -3.75000 2.38000 2.75000
v -3.75000 2.12000 1.25000
v -3.75000 2.12000 2.75000
v -4.75000 2.38000 2.75000
v -4.75000 2.12000 2.75000
v -2.75000 2.38000 3.75000
v -2.75000 2.12000 3.75000
v -3.75000 2.38000 3.75000
v -3.75000 2.12000 3.75000
v -1.00000 2.38000 3.25000
v -1.00000 2.38000 4.25000
v -1.00000 2.12000 3.25000
v -1.00000 2.12000 4.25000
v -2.75000 2.38000 4.25000
v -2.75000 2.12000 4.25000
v -0.75000 2.50000 0.75000
v -0.75000 2.50000 1.25000
v -0.75000 2.00000 0.75000
v -0.75000 2.00000 1.25000
v -6.75000 2.50000 1.25000
v -6.75000 2.50000 0.75000
v -6.75000 2.00000 1.25000
v -6.75000 2.00000 0.75000
v -0.50000 2.50000 3.75000
v -0.50000 1.50000 3.75000
v -0.50000 2.50000 2.75000
v -0.50000 1.50000 2.75000
v -1.00000 1.50000 3.75000
v -1.00000 2.50000 3.75000
v -1.00000 1.50000 2.75000
v -1.00000 2.50000 2.75000
v -0.50000 0.50000 3.50000
v -0.50000 0.00000 3.50000
v -0.50000 0.50000 3.00000
v -0.50000 0.00000 3.00000
v -1.00000 0.00000 3.50000
v -1.00000 0.50000 3.50000
v -1.00000 0.00000 3.00000
v -1.00000 0.50000 3.00000
v -0.50000 0.50000 3.75000
v -0.50000 1.50000 3.25000
v -0.50000 0.50000 3.25000
v -1.00000 0.50000 3.75000
v -1.00000 0.50000 3.25000
v -1.00000 1.50000 3.25000
v 1.00000 0.50000 3.50000
v 1.00000 0.00000 3.50000
v 1.00000 0.50000 3.00000
v 1.00000 0.00000 3.00000
v 0.50000 0.00000 3.50000
v 0.50000 0.50000 3.50000
v 0.50000 0.00000 3.00000
v 0.50000 0.50000 3.00000
v 1.00000 1.50000 3.75000
v 1.00000 0.50000 3.75000
v 1.00000 1.50000 3.25000
v 1.00000 0.50000 3.25000
v 0.50000 0.50000 3.75000
v 0.50000 1.50000 3.75000
v 0.50000 0.50000 3.25000
v 0.50000 1.50000 3.25000
v 1.00000 2.50000 3.75000
v 1.00000 2.50000 2.75000
v 1.00000 1.50000 2.75000
v 0.50000 2.50000 3.75000
v 0.50000 1.50000 2.75000
v 0.50000 2.50000 2.75000
v 0.75000 2.75000 0.75000
v 0.75000 2.75000 2.25000
v 0.75000 1.00000 0.75000
v 0.75000 1.00000 2.25000
v -0.75000 2.75000 2.25000
v -0.75000 2.75000 0.75000
v -0.75000 1.00000 2.25000
v -0.75000 1.00000 0.75000
v 6.25000 2.38000 1.25000
v 6.25000 2.38000 2.25000
v 6.25000 2.12000 1.25000
v 6.25000 2.12000 2.25000
v 4.75000 2.38000 2.25000
v 4.75000 2.38000 1.25000
v 4.75000 2.12000 2.25000
v 4.75000 2.12000 1.25000
v 2.75000 2.38000 3.25000
v 2.75000 2.38000 4.25000
v 2.75000 2.12000 3.25000
v 2.75000 2.12000 4.25000
v 1.00000 2.38000 4.25000
v 1.00000 2.38000 3.25000
v 1.00000 2.12000 4.25000
v 1.00000 2.12000 3.25000
v 2.75000 2.38000 1.25000
v 2.75000 2.12000 1.25000
v 0.75000 2.38000 3.25000
v 0.75000 2.38000 1.25000
v 0.75000 2.12000 3.25000
v 0.75000 2.12000 1.25000
v 3.75000 2.38000 1.25000
v 3.75000 2.38000 3.75000
v 3.75000 2.12000 1.25000
v 3.75000 2.12000 3.75000
v 2.75000 2.38000 3.75000
v 2.75000 2.12000 3.75000
v 4.75000 2.38000 2.75000
v 4.75000 2.12000 2.75000
v 3.75000 2.38000 2.75000
v 3.75000 2.12000 2.75000
v 6.75000 2.50000 0.75000
v 6.75000 2.50000 1.25000
v 6.75000 2.00000 0.75000
v 6.75000 2.00000 1.25000
v 0.75000 2.50000 1.25000
v 0.75000 2.50000 0.75000
v 0.75000 2.00000 1.25000
v 0.75000 2.00000 0.75000
v 0.50000 2.50000 2.25000
v 0.50000 1.25000 2.25000
v 0.50000 1.25000 3.75000
v -0.50000 2.50000 2.25000
v -0.50000 1.25000 3.75000
v -0.50000 1.25000 2.25000
v 0.25000 2.50000 3.75000
v 0.25000 2.50000 4.50000
v 0.25000 2.00000 3.75000
v 0.25000 2.00000 4.50000
v -0.25000 2.50000 4.50000
v -0.25000 2.50000 3.75000
v -0.25000 2.00000 4.50000
v -0.25000 2.00000 3.75000
vt 4.87500 -1.50000
vt 4.50000 -1.50000
vt 4.87500 -1.56250
vt 4.50000 -1.56250
vt 4.62500 -1.50000
vt 4.62500 -1.87500
vt 4.50000 -1.87500
vt 4.62500 -1.56250
vt 5.31250 -2.25000
vt 5.00000 -2.25000
vt 5.31250 -2.34375
vt 5.00000 -2.34375
vt 5.12500 -2.25000
vt 5.12500 -2.56250
vt 5.00000 -2.56250
vt 5.12500 -2.34375
vt 3.87500 -4.50000
vt 3.75000 -4.50000
vt 3.87500 -4.56250
vt 3.75000 -4.56250
vt 3.78125 -4.50000
vt 3.78125 -4.62500
vt 3.75000 -4.62500
vt 3.78125 -4.56250
vt 6.18750 -2.00000
vt 6.00000 -2.00000
vt 6.18750 -2.03125
vt 6.00000 -2.03125
vt 6.18750 -2.18750
vt 6.00000 -2.18750
vt 3.12500 -1.00000
vt 2.75000 -1.00000
vt 3.12500 -1.06250
vt 2.75000 -1.06250
vt 2.81250 -1.00000
vt 2.81250 -1.37500
vt 2.75000 -1.37500
vt 2.81250 -1.06250
vt 7.00000 0.25000
vt 7.15625 0.12500
vt 7.00000 0.12500
vt 7.06250 0.25000
vt 7.06250 0.12500
vt 7.15625 0.25000
vt 7.06250 0.09375
vt 7.00000 0.09375
vt 7.06250 0.04990
vt 7.00000 0.04990
vt 6.75000 -2.25000
vt 6.00000 -2.25000
vt 6.75000 -2.31250
vt 6.00000 -2.31250
vt 6.06250 -2.25000
vt 6.06250 -3.00000
vt 6.00000 -3.00000
vt 6.06250 -2.31250
vt 3.25000 -6.50000
vt 3.43750 -6.71875
vt 3.25000 -6.71875
vt 3.31250 -6.50000
vt 3.31250 -6.71875
vt 3.43750 -6.50000
vt 3.31250 -6.68750
vt 3.25000 -6.68750
vt 3.31250 -6.78811
vt 3.25000 -6.78811
vt 0.03125 0.50000
vt 0.00000 0.50000
vt 0.03125 0.43750
vt 0.00000 0.43750
vt 0.06250 0.50000
vt 0.06250 0.46875
vt 0.00000 0.46875
vt 0.06250 0.43750
vt 5.03125 -0.25000
vt 5.00000 -0.25000
vt 5.03125 -0.31250
vt 5.00000 -0.31250
vt 5.06250 -0.25000
vt 5.06250 -0.28125
vt 5.00000 -0.28125
vt 5.06250 -0.31250
vt 0.00000 -3.00000
vt 0.28125 -3.25000
vt 0.00000 -3.25000
vt 0.03125 -3.00000
vt 0.03125 -3.25000
vt 0.28125 -3.00000
vt 0.03125 -3.28125
vt 0.00000 -3.28125
vt 0.03125 -3.37630
vt 0.00000 -3.37630
vt 4.00000 1.00000
vt 4.09375 0.78125
vt 4.00000 0.78125
vt 4.03125 1.00000
vt 4.03125 0.78125
vt 4.09375 1.00000
vt 4.03125 0.90625
vt 4.00000 0.90625
vt 4.03125 0.76201
vt 4.00000 0.76201
vt 2.50000 -5.75000
vt 2.56250 -6.00000
vt 2.50000 -6.00000
vt 2.53125 -5.75000
vt 2.53125 -6.00000
vt 2.56250 -5.75000
vt 2.53125 -5.81250
vt 2.50000 -5.81250
vt 2.53125 -6.00769
vt 2.50000 -6.00769
vt 2.84375 -2.75000
vt 2.50000 -2.75000
vt 2.84375 -3.00000
vt 2.50000 -3.00000
vt 2.53125 -2.75000
vt 2.53125 -3.09375
vt 2.50000 -3.09375
vt 2.53125 -3.00000
vt 4.56250 -4.50000
vt 4.50000 -4.50000
vt 4.56250 -4.56250
vt 4.50000 -4.56250
vt 4.70312 -4.50000
vt 4.70312 -4.56250
vt 2.62500 0.50000
vt 2.50000 0.50000
vt 2.62500 0.43750
vt 2.50000 0.43750
vt 2.56250 0.50000
vt 2.56250 0.37500
vt 2.50000 0.37500
vt 2.56250 0.43750
vt 2.43750 0.75000
vt 2.25000 0.75000
vt 2.43750 0.59375
vt 2.25000 0.59375
vt 2.43750 0.56250
vt 2.25000 0.56250
vt 5.46875 -2.00000
vt 5.25000 -2.00000
vt 5.46875 -2.12500
vt 5.25000 -2.12500
vt 5.37500 -2.00000
vt 5.37500 -2.21875
vt 5.25000 -2.21875
vt 5.37500 -2.12500
vt 1.00000 1.00000
vt 0.00000 1.00000
vt 1.00000 0.00000
vt 0.00000 0.00000
vt 1.25000 -6.25000
vt 1.00000 -6.25000
vt 1.25000 -6.28125
vt 1.00000 -6.28125
vt 1.28125 -6.25000
vt 1.28125 -6.50000
vt 1.00000 -6.50000
vt 1.28125 -6.28125
vt 0.62500 -3.50000
vt 0.50000 -3.50000
vt 0.62500 -3.53125
vt 0.50000 -3.53125
vt 0.68750 -3.50000
vt 0.68750 -3.62500
vt 0.50000 -3.62500
vt 0.68750 -3.53125
vt 7.93750 1.00000
vt 7.75000 1.00000
vt 7.93750 0.96875
vt 7.75000 0.96875
vt 7.87500 1.00000
vt 7.87500 0.81250
vt 7.75000 0.81250
vt 7.87500 0.96875
vt 4.06250 -6.25000
vt 3.75000 -6.25000
vt 4.06250 -6.28125
vt 3.75000 -6.28125
vt 3.87500 -6.25000
vt 3.87500 -6.56250
vt 3.75000 -6.56250
vt 3.87500 -6.28125
vt 1.87500 0.75000
vt 1.75000 0.75000
vt 1.87500 0.71875
vt 1.75000 0.71875
vt 1.96875 0.75000
vt 1.96875 0.62500
vt 1.75000 0.62500
vt 1.96875 0.71875
vt 5.06250 -4.00000
vt 5.00000 -4.00000
vt 5.06250 -4.06250
vt 5.00000 -4.06250
vt 5.75000 -4.00000
vt 5.75000 -4.06250
vt 5.87500 -4.50000
vt 5.75000 -4.50000
vt 5.87500 -4.62500
vt 5.75000 -4.62500
vt 5.81250 -4.50000
vt 5.81250 -4.62500
vt 4.56250 -3.25000
vt 4.50000 -3.25000
vt 4.56250 -3.31250
vt 4.50000 -3.31250
vt 5.87500 -2.00000
vt 5.75000 -2.00000
vt 5.87500 -2.06250
vt 5.75000 -2.06250
vt 5.81250 -2.00000
vt 5.81250 -2.12500
vt 5.75000 -2.12500
vt 5.81250 -2.06250
vt 4.81250 -2.75000
vt 4.75000 -2.75000
vt 4.81250 -2.81250
vt 4.75000 -2.81250
vt 6.37500 -0.25000
vt 6.25000 -0.25000
vt 6.37500 -0.31250
vt 6.25000 -0.31250
vt 6.31250 -0.25000
vt 6.31250 -0.37500
vt 6.25000 -0.37500
vt 6.31250 -0.31250
vt 4.37500 -5.50000
vt 4.25000 -5.50000
vt 4.37500 -5.62500
vt 4.25000 -5.62500
vt 4.31250 -5.50000
vt 4.31250 -5.62500
vt 0.18750 0.75000
vt 0.00000 0.75000
vt 0.18750 0.53125
vt 0.00000 0.53125
vt 0.18750 0.56250
vt 0.00000 0.56250
vt 0.37500 -5.25000
vt 0.25000 -5.25000
vt 0.37500 -5.28125
vt 0.25000 -5.28125
vt 0.43750 -5.25000
vt 0.43750 -5.37500
vt 0.25000 -5.37500
vt 0.43750 -5.28125
vt 2.62500 -1.25000
vt 2.50000 -1.25000
vt 2.62500 -1.28125
vt 2.50000 -1.28125
vt 2.71875 -1.25000
vt 2.71875 -1.37500
vt 2.50000 -1.37500
vt 2.71875 -1.28125
vt 8.00000 -5.50000
vt 7.75000 -5.50000
vt 8.00000 -5.53125
vt 7.75000 -5.53125
vt 8.00000 -5.75000
vt 7.75000 -5.75000
vt 6.81250 -3.50000
vt 6.50000 -3.50000
vt 6.81250 -3.53125
vt 6.50000 -3.53125
vt 6.62500 -3.50000
vt 6.62500 -3.81250
vt 6.50000 -3.81250
vt 6.62500 -3.53125
vt 7.93750 0.25000
vt 7.75000 0.25000
vt 7.93750 0.21875
vt 7.75000 0.21875
vt 7.87500 0.25000
vt 7.87500 0.06250
vt 7.75000 0.06250
vt 7.87500 0.21875
vt 6.06250 -6.00000
vt 6.00000 -6.00000
vt 6.06250 -6.06250
vt 6.00000 -6.06250
vt 6.75000 -6.00000
vt 6.75000 -6.06250
vt 5.18750 -2.25000
vt 5.18750 -2.40625
vt 5.00000 -2.40625
vt 5.12500 -2.43750
vt 5.00000 -2.43750
vt 5.12500 -2.40625
vt 5.84375 -1.25000
vt 5.75000 -1.25000
vt 5.84375 -1.31250
vt 5.75000 -1.31250
vt 5.81250 -1.25000
vt 5.81250 -1.34375
vt 5.75000 -1.34375
vt 5.81250 -1.31250
vn 1.0000 0.0000 0.0000
vn 0.0000 0.9843 -0.1732
vn 0.0000 0.1732 0.9843
vn -1.0000 0.0000 0.0000
vn 0.0000 -0.9843 0.1732
vn 0.0000 -0.1732 -0.9843
vn 0.0000 1.0000 0.0000
vn 0.0000 0.0000 1.0000
vn 0.0000 -1.0000 0.0000
vn 0.0000 0.0000 -1.0000
vn 0.0000 0.9370 -0.3386
vn 0.0000 0.3386 0.9370
vn 0.0000 -0.9370 0.3386
vn 0.0000 -0.3386 -0.9370
vn 0.0000 0.6457 -0.7638
vn 0.0000 0.7638 0.6457
vn 0.0000 -1.0000 -0.0236
vn 0.0000 -0.6457 0.7638
vn 0.0000 -0.7638 -0.6457
vn 0.0000 0.1654 0.9843
vn 0.0000 -0.9843 0.1654
vn 0.0000 0.6299 -0.7795
vn 0.0000 -0.1654 -0.9843
vn 0.0000 0.5354 0.8425
vn 0.0000 0.4016 0.9213
vn 0.0000 0.9843 -0.1654
vn 0.0000 0.9685 0.2598
vn 0.0000 -0.2598 0.9685
vn 0.0000 -0.9685 -0.2598
vn 0.0000 0.2598 -0.9685

o Head
usemtl c_da8541
f 1/1/1 2/2/1 3/3/1
f 3/3/1 2/2/1 4/4/1
f 5/5/2 2/2/2 6/6/2
f 6/6/2 2/2/2 1/7/2
f 2/5/3 5/2/3 4/8/3
f 4/8/3 5/2/3 7/4/3
f 5/1/4 6/2/4 7/3/4
f 7/3/4 6/2/4 8/4/4
f 8/5/5 3/2/5 7/6/5
f 7/6/5 3/2/5 4/7/5
f 6/5/6 1/2/6 8/8/6
f 8/8/6 1/2/6 3/4/6
f 9/9/1 10/10/1 11/11/1
f 11/11/1 10/10/1 12/12/1
f 13/13/7 10/10/7 14/14/7
f 14/14/7 10/10/7 9/15/7
f 10/13/8 13/10/8 12/16/8
f 12/16/8 13/10/8 15/12/8
f 13/9/4 14/10/4 15/11/4
f 15/11/4 14/10/4 16/12/4
f 16/13/9 11/10/9 15/14/9
f 15/14/9 11/10/9 12/15/9
f 14/13/10 9/10/10 16/16/10
f 16/16/10 9/10/10 11/12/10
f 17/17/1 18/18/1 19/19/1
f 19/19/1 18/18/1 20/20/1
f 21/21/2 18/18/2 22/22/2
f 22/22/2 18/18/2 17/23/2
f 18/21/3 21/18/3 20/24/3
f 20/24/3 21/18/3 23/20/3
f 21/17/4 22/18/4 23/19/4
f 23/19/4 22/18/4 24/20/4
f 24/21/5 19/18/5 23/22/5
f 23/22/5 19/18/5 20/23/5
f 22/21/6 17/18/6 24/24/6
f 24/24/6 17/18/6 19/20/6
f 25/25/1 26/26/1 27/27/1
f 27/27/1 26/26/1 28/28/1
f 29/25/7 26/26/7 30/29/7
f 30/29/7 26/26/7 25/30/7
f 26/25/8 29/26/8 28/27/8
f 28/27/8 29/26/8 31/28/8
f 29/25/4 30/26/4 31/27/4
f 31/27/4 30/26/4 32/28/4
f 32/25/9 27/26/9 31/29/9
f 31/29/9 27/26/9 28/30/9
f 30/25/10 25/26/10 32/27/10
f 32/27/10 25/26/10 27/28/10
f 33/31/1 34/32/1 35/33/1
f 35/33/1 34/32/1 36/34/1
f 37/35/11 34/32/11 38/36/11
f 38/36/11 34/32/11 33/37/11
f 34/35/12 37/32/12 36/38/12
f 36/38/12 37/32/12 39/34/12
f 37/31/4 38/32/4 39/33/4
f 39/33/4 38/32/4 40/34/4
f 40/35/13 35/32/13 39/36/13
f 39/36/13 35/32/13 36/37/13
f 38/35/14 33/32/14 40/38/14
f 40/38/14 33/32/14 35/34/14
f 41/39/1 41/39/1 42/40/1
f 42/40/1 41/39/1 43/41/1
f 41/42/15 44/39/15 43/43/15
f 43/43/15 44/39/15 45/41/15
f 44/44/4 44/44/4 45/40/4
f 45/40/4 44/44/4 46/41/4
f 46/42/16 42/39/16 45/45/16
f 45/45/16 42/39/16 43/46/16
f 44/42/17 41/39/17 46/47/17
f 46/47/17 41/39/17 42/48/17
f 47/49/1 48/50/1 49/51/1
f 49/51/1 48/50/1 50/52/1
f 51/53/15 48/50/15 52/54/15
f 52/54/15 48/50/15 47/55/15
f 48/53/16 51/50/16 50/56/16
f 50/56/16 51/50/16 53/52/16
f 51/49/4 52/50/4 53/51/4
f 53/51/4 52/50/4 54/52/4
f 54/53/18 49/50/18 53/54/18
f 53/54/18 49/50/18 50/55/18
f 52/53/19 47/50/19 54/56/19
f 54/56/19 47/50/19 49/52/19
f 55/57/1 55/57/1 56/58/1
f 56/58/1 55/57/1 43/59/1
f 55/60/19 57/57/19 43/61/19
f 43/61/19 57/57/19 45/59/19
f 57/62/4 57/62/4 45/58/4
f 45/58/4 57/62/4 58/59/4
f 58/60/15 56/57/15 45/63/15
f 45/63/15 56/57/15 43/64/15
f 57/60/20 55/57/20 58/65/20
f 58/65/20 55/57/20 56/66/20
usemtl c_1b2a35
f 59/67/1 60/68/1 61/69/1
f 61/69/1 60/68/1 62/70/1
f 63/71/2 60/68/2 64/72/2
f 64/72/2 60/68/2 59/73/2
f 60/71/3 63/68/3 62/74/3
f 62/74/3 63/68/3 65/70/3
f 63/67/4 64/68/4 65/69/4
f 65/69/4 64/68/4 66/70/4
f 66/71/5 61/68/5 65/72/5
f 65/72/5 61/68/5 62/73/5
f 64/71/6 59/68/6 66/74/6
f 66/74/6 59/68/6 61/70/6
f 67/75/1 68/76/1 69/77/1
f 69/77/1 68/76/1 70/78/1
f 71/79/7 68/76/7 72/80/7
f 72/80/7 68/76/7 67/81/7
f 68/79/8 71/76/8 70/82/8
f 70/82/8 71/76/8 73/78/8
f 71/75/4 72/76/4 73/77/4
f 73/77/4 72/76/4 74/78/4
f 74/79/9 69/76/9 73/80/9
f 73/80/9 69/76/9 70/81/9
f 72/79/10 67/76/10 74/82/10
f 74/82/10 67/76/10 69/78/10
usemtl c_ff5959
f 75/83/1 75/83/1 76/84/1
f 76/84/1 75/83/1 77/85/1
f 75/86/20 78/83/20 77/87/20
f 77/87/20 78/83/20 79/85/20
f 78/88/4 78/88/4 79/84/4
f 79/84/4 78/88/4 80/85/4
f 80/86/21 76/83/21 79/89/21
f 79/89/21 76/83/21 77/90/21
f 78/86/22 75/83/22 80/91/22
f 80/91/22 75/83/22 76/92/22
f 81/93/4 81/93/4 82/94/4
f 82/94/4 81/93/4 83/95/4
f 81/96/23 84/93/23 83/97/23
f 83/97/23 84/93/23 85/95/23
f 84/98/1 84/98/1 85/94/1
f 85/94/1 84/98/1 86/95/1
f 86/96/21 82/93/21 85/99/21
f 85/99/21 82/93/21 83/100/21
f 84/96/24 81/93/24 86/101/24
f 86/101/24 81/93/24 82/102/24
f 78/103/4 78/103/4 81/104/4
f 81/104/4 78/103/4 79/105/4
f 78/106/23 75/103/23 79/107/23
f 79/107/23 75/103/23 77/105/23
f 75/108/1 75/108/1 77/104/1
f 77/104/1 75/108/1 84/105/1
f 84/106/21 81/103/21 77/109/21
f 77/109/21 81/103/21 79/110/21
f 75/106/25 78/103/25 84/111/25
f 84/111/25 78/103/25 81/112/25
f 76/113/1 84/114/1 87/115/1
f 87/115/1 84/114/1 88/116/1
f 81/117/26 84/114/26 80/118/26
f 80/118/26 84/114/26 76/119/26
f 84/117/20 81/114/20 88/120/20
f 88/120/20 81/114/20 89/116/20
f 81/113/4 80/114/4 89/115/4
f 89/115/4 80/114/4 90/116/4
f 90/117/21 87/114/21 89/118/21
f 89/118/21 87/114/21 88/119/21
f 80/117/23 76/114/23 90/120/23
f 90/120/23 76/114/23 87/116/23
usemtl c_f5cd30
f 91/121/1 92/122/1 93/123/1
f 93/123/1 92/122/1 94/124/1
f 95/125/7 92/122/7 96/126/7
f 96/126/7 92/122/7 91/124/7
f 92/125/8 95/122/8 94/126/8
f 94/126/8 95/122/8 97/124/8
f 95/121/4 96/122/4 97/123/4
f 97/123/4 96/122/4 98/124/4
f 98/125/9 93/122/9 97/126/9
f 97/126/9 93/122/9 94/124/9
f 96/125/10 91/122/10 98/126/10
f 98/126/10 91/122/10 93/124/10
usemtl c_c4281c
f 99/127/1 100/128/1 101/129/1
f 101/129/1 100/128/1 102/130/1
f 103/131/7 100/128/7 104/132/7
f 104/132/7 100/128/7 99/133/7
f 100/131/8 103/128/8 102/134/8
f 102/134/8 103/128/8 105/130/8
f 103/127/4 104/128/4 105/129/4
f 105/129/4 104/128/4 106/130/4
f 106/131/9 101/128/9 105/132/9
f 105/132/9 101/128/9 102/133/9
f 104/131/10 99/128/10 106/134/10
f 106/134/10 99/128/10 101/130/10
usemtl c_69665c
f 27/135/1 28/136/1 107/137/1
f 107/137/1 28/136/1 108/138/1
f 31/135/7 28/136/7 32/139/7
f 32/139/7 28/136/7 27/140/7
f 28/135/8 31/136/8 108/137/8
f 108/137/8 31/136/8 109/138/8
f 31/135/4 32/136/4 109/137/4
f 109/137/4 32/136/4 110/138/4
f 110/135/9 107/136/9 109/139/9
f 109/139/9 107/136/9 108/140/9
f 32/135/10 27/136/10 110/137/10
f 110/137/10 27/136/10 107/138/10
f 111/141/1 112/142/1 113/143/1
f 113/143/1 112/142/1 114/144/1
f 115/145/27 112/142/27 116/146/27
f 116/146/27 112/142/27 111/147/27
f 112/145/28 115/142/28 114/148/28
f 114/148/28 115/142/28 117/144/28
f 115/141/4 116/142/4 117/143/4
f 117/143/4 116/142/4 118/144/4
f 118/145/29 113/142/29 117/146/29
f 117/146/29 113/142/29 114/147/29
f 116/145/30 111/142/30 118/148/30
f 118/148/30 111/142/30 113/144/30
o Head_decal1
usemtl head_decal1
f 119/149/1 120/150/1 121/151/1
f 121/151/1 120/150/1 122/152/1
o Head_decal2
usemtl head_decal2
f 123/149/4 124/150/4 125/151/4
f 125/151/4 124/150/4 126/152/4
o LeftUpperArm
usemtl c_da8541
f 127/153/1 128/154/1 129/155/1
f 129/155/1 128/154/1 130/156/1
f 131/157/7 128/154/7 132/158/7
f 132/158/7 128/154/7 127/159/7
f 128/157/8 131/154/8 130/160/8
f 130/160/8 131/154/8 133/156/8
f 131/153/4 132/154/4 133/155/4
f 133/155/4 132/154/4 134/156/4
f 134/157/9 129/154/9 133/158/9
f 133/158/9 129/154/9 130/159/9
f 132/157/10 127/154/10 134/160/10
f 134/160/10 127/154/10 129/156/10
f 135/161/1 136/162/1 137/163/1
f 137/163/1 136/162/1 138/164/1
f 139/165/7 136/162/7 140/166/7
f 140/166/7 136/162/7 135/167/7
f 136/165/8 139/162/8 138/168/8
f 138/168/8 139/162/8 141/164/8
f 139/161/4 140/162/4 141/163/4
f 141/163/4 140/162/4 142/164/4
f 142/165/9 137/162/9 141/166/9
f 141/166/9 137/162/9 138/167/9
f 140/165/10 135/162/10 142/168/10
f 142/168/10 135/162/10 137/164/10
f 143/169/1 144/170/1 145/171/1
f 145/171/1 144/170/1 146/172/1
f 147/173/7 144/170/7 135/174/7
f 135/174/7 144/170/7 143/175/7
f 144/173/8 147/170/8 146/176/8
f 146/176/8 147/170/8 148/172/8
f 147/169/4 135/170/4 148/171/4
f 148/171/4 135/170/4 137/172/4
f 137/173/9 145/170/9 148/174/9
f 148/174/9 145/170/9 146/175/9
f 135/173/10 143/170/10 137/176/10
f 137/176/10 143/170/10 145/172/10
f 132/177/1 149/178/1 134/179/1
f 134/179/1 149/178/1 150/180/1
f 151/181/7 149/178/7 143/182/7
f 143/182/7 149/178/7 132/183/7
f 149/181/8 151/178/8 150/184/8
f 150/184/8 151/178/8 152/180/8
f 151/177/4 143/178/4 152/179/4
f 152/179/4 143/178/4 145/180/4
f 145/181/9 134/178/9 152/182/9
f 152/182/9 134/178/9 150/183/9
f 143/181/10 132/178/10 145/184/10
f 145/184/10 132/178/10 134/180/10
f 153/185/1 154/186/1 155/187/1
f 155/187/1 154/186/1 156/188/1
f 157/189/7 154/186/7 131/190/7
f 131/190/7 154/186/7 153/191/7
f 154/189/8 157/186/8 156/192/8
f 156/192/8 157/186/8 158/188/8
f 157/185/4 131/186/4 158/187/4
f 158/187/4 131/186/4 133/188/4
f 133/189/9 155/186/9 158/190/9
f 158/190/9 155/186/9 156/191/9
f 131/189/10 153/186/10 133/192/10
f 133/192/10 153/186/10 155/188/10
usemtl c_69665c
f 159/193/1 160/194/1 161/195/1
f 161/195/1 160/194/1 162/196/1
f 163/197/7 160/194/7 164/198/7
f 164/198/7 160/194/7 159/196/7
f 160/197/8 163/194/8 162/198/8
f 162/198/8 163/194/8 165/196/8
f 163/193/4 164/194/4 165/195/4
f 165/195/4 164/194/4 166/196/4
f 166/197/9 161/194/9 165/198/9
f 165/198/9 161/194/9 162/196/9
f 164/197/10 159/194/10 166/198/10
f 166/198/10 159/194/10 161/196/10
o LeftUpperLeg
usemtl c_69665c
f 167/199/1 168/200/1 169/201/1
f 169/201/1 168/200/1 170/202/1
f 171/203/8 168/200/8 172/204/8
f 172/204/8 168/200/8 167/202/8
f 168/203/9 171/200/9 170/204/9
f 170/204/9 171/200/9 173/202/9
f 171/199/4 172/200/4 173/201/4
f 173/201/4 172/200/4 174/202/4
f 174/203/10 169/200/10 173/204/10
f 173/204/10 169/200/10 170/202/10
f 172/203/7 167/200/7 174/204/7
f 174/204/7 167/200/7 169/202/7
f 175/205/1 176/206/1 177/207/1
f 177/207/1 176/206/1 178/208/1
f 179/205/8 176/206/8 180/207/8
f 180/207/8 176/206/8 175/208/8
f 176/205/9 179/206/9 178/207/9
f 178/207/9 179/206/9 181/208/9
f 179/205/4 180/206/4 181/207/4
f 181/207/4 180/206/4 182/208/4
f 182/205/10 177/206/10 181/207/10
f 181/207/10 177/206/10 178/208/10
f 180/205/7 175/206/7 182/207/7
f 182/207/7 175/206/7 177/208/7
f 168/209/1 183/210/1 184/211/1
f 184/211/1 183/210/1 185/212/1
f 186/213/8 183/210/8 171/214/8
f 171/214/8 183/210/8 168/215/8
f 183/213/9 186/210/9 185/216/9
f 185/216/9 186/210/9 187/212/9
f 186/209/4 171/210/4 187/211/4
f 187/211/4 171/210/4 188/212/4
f 188/213/10 184/210/10 187/214/10
f 187/214/10 184/210/10 185/215/10
f 171/213/7 168/210/7 188/216/7
f 188/216/7 168/210/7 184/212/7
o RightUpperLeg
usemtl c_69665c
f 189/217/1 190/218/1 191/219/1
f 191/219/1 190/218/1 192/220/1
f 193/217/8 190/218/8 194/219/8
f 194/219/8 190/218/8 189/220/8
f 190/217/9 193/218/9 192/219/9
f 192/219/9 193/218/9 195/220/9
f 193/217/4 194/218/4 195/219/4
f 195/219/4 194/218/4 196/220/4
f 196/217/10 191/218/10 195/219/10
f 195/219/10 191/218/10 192/220/10
f 194/217/7 189/218/7 196/219/7
f 196/219/7 189/218/7 191/220/7
f 197/221/1 198/222/1 199/223/1
f 199/223/1 198/222/1 200/224/1
f 201/225/8 198/222/8 202/226/8
f 202/226/8 198/222/8 197/227/8
f 198/225/9 201/222/9 200/228/9
f 200/228/9 201/222/9 203/224/9
f 201/221/4 202/222/4 203/223/4
f 203/223/4 202/222/4 204/224/4
f 204/225/10 199/222/10 203/226/10
f 203/226/10 199/222/10 200/227/10
f 202/225/7 197/222/7 204/228/7
f 204/228/7 197/222/7 199/224/7
f 205/229/1 197/230/1 206/231/1
f 206/231/1 197/230/1 207/232/1
f 202/233/8 197/230/8 208/234/8
f 208/234/8 197/230/8 205/232/8
f 197/233/9 202/230/9 207/234/9
f 207/234/9 202/230/9 209/232/9
f 202/229/4 208/230/4 209/231/4
f 209/231/4 208/230/4 210/232/4
f 210/233/10 206/230/10 209/234/10
f 209/234/10 206/230/10 207/232/10
f 208/233/7 205/230/7 210/234/7
f 210/234/7 205/230/7 206/232/7
o UpperTorso
usemtl c_69665c
f 211/235/1 212/236/1 213/237/1
f 213/237/1 212/236/1 214/238/1
f 215/235/7 212/236/7 216/239/7
f 216/239/7 212/236/7 211/240/7
f 212/235/8 215/236/8 214/237/8
f 214/237/8 215/236/8 217/238/8
f 215/235/4 216/236/4 217/237/4
f 217/237/4 216/236/4 218/238/4
f 218/235/9 213/236/9 217/239/9
f 217/239/9 213/236/9 214/240/9
f 216/235/10 211/236/10 218/237/10
f 218/237/10 211/236/10 213/238/10
o RightUpperArm
usemtl c_da8541
f 219/241/1 220/242/1 221/243/1
f 221/243/1 220/242/1 222/244/1
f 223/245/7 220/242/7 224/246/7
f 224/246/7 220/242/7 219/247/7
f 220/245/8 223/242/8 222/248/8
f 222/248/8 223/242/8 225/244/8
f 223/241/4 224/242/4 225/243/4
f 225/243/4 224/242/4 226/244/4
f 226/245/9 221/242/9 225/246/9
f 225/246/9 221/242/9 222/247/9
f 224/245/10 219/242/10 226/248/10
f 226/248/10 219/242/10 221/244/10
f 227/249/1 228/250/1 229/251/1
f 229/251/1 228/250/1 230/252/1
f 231/253/7 228/250/7 232/254/7
f 232/254/7 228/250/7 227/255/7
f 228/253/8 231/250/8 230/256/8
f 230/256/8 231/250/8 233/252/8
f 231/249/4 232/250/4 233/251/4
f 233/251/4 232/250/4 234/252/4
f 234/253/9 229/250/9 233/254/9
f 233/254/9 229/250/9 230/255/9
f 232/253/10 227/250/10 234/256/10
f 234/256/10 227/250/10 229/252/10
f 235/257/1 227/258/1 236/259/1
f 236/259/1 227/258/1 229/260/1
f 237/257/7 227/258/7 238/261/7
f 238/261/7 227/258/7 235/262/7
f 227/257/8 237/258/8 229/259/8
f 229/259/8 237/258/8 239/260/8
f 237/257/4 238/258/4 239/259/4
f 239/259/4 238/258/4 240/260/4
f 240/257/9 236/258/9 239/261/9
f 239/261/9 236/258/9 229/262/9
f 238/257/10 235/258/10 240/259/10
f 240/259/10 235/258/10 236/260/10
f 241/263/1 242/264/1 243/265/1
f 243/265/1 242/264/1 244/266/1
f 245/267/7 242/264/7 235/268/7
f 235/268/7 242/264/7 241/269/7
f 242/267/8 245/264/8 244/270/8
f 244/270/8 245/264/8 246/266/8
f 245/263/4 235/264/4 246/265/4
f 246/265/4 235/264/4 236/266/4
f 236/267/9 243/264/9 246/268/9
f 246/268/9 243/264/9 244/269/9
f 235/267/10 241/264/10 236/270/10
f 236/270/10 241/264/10 243/266/10
f 224/271/1 247/272/1 226/273/1
f 226/273/1 247/272/1 248/274/1
f 249/275/7 247/272/7 241/276/7
f 241/276/7 247/272/7 224/277/7
f 247/275/8 249/272/8 248/278/8
f 248/278/8 249/272/8 250/274/8
f 249/271/4 241/272/4 250/273/4
f 250/273/4 241/272/4 243/274/4
f 243/275/9 226/272/9 250/276/9
f 250/276/9 226/272/9 248/277/9
f 241/275/10 224/272/10 243/278/10
f 243/278/10 224/272/10 226/274/10
usemtl c_69665c
f 251/279/1 252/280/1 253/281/1
f 253/281/1 252/280/1 254/282/1
f 255/283/7 252/280/7 256/284/7
f 256/284/7 252/280/7 251/282/7
f 252/283/8 255/280/8 254/284/8
f 254/284/8 255/280/8 257/282/8
f 255/279/4 256/280/4 257/281/4
f 257/281/4 256/280/4 258/282/4
f 258/283/9 253/280/9 257/284/9
f 257/284/9 253/280/9 254/282/9
f 256/283/10 251/280/10 258/284/10
f 258/284/10 251/280/10 253/282/10
o LowerTorso
usemtl c_69665c
f 259/285/1 208/10/1 260/286/1
f 260/286/1 208/10/1 261/287/1
f 167/13/7 208/10/7 262/288/7
f 262/288/7 208/10/7 259/289/7
f 208/13/8 167/10/8 261/290/8
f 261/290/8 167/10/8 263/287/8
f 167/285/4 262/10/4 263/286/4
f 263/286/4 262/10/4 264/287/4
f 264/13/9 260/10/9 263/288/9
f 263/288/9 260/10/9 261/289/9
f 262/13/10 259/10/10 264/290/10
f 264/290/10 259/10/10 260/287/10
o Color1
usemtl c_69665c
f 265/291/1 266/292/1 267/293/1
f 267/293/1 266/292/1 268/294/1
f 269/295/7 266/292/7 270/296/7
f 270/296/7 266/292/7 265/297/7
f 266/295/8 269/292/8 268/298/8
f 268/298/8 269/292/8 271/294/8
f 269/291/4 270/292/4 271/293/4
f 271/293/4 270/292/4 272/294/4
f 272/295/9 267/292/9 271/296/9
f 271/296/9 267/292/9 268/297/9
f 270/295/10 265/292/10 272/298/10
f 272/298/10 265/292/10 267/294/10
