# Roblox asset pack: anomalocaris (creatures), from the Studio model "Anomalocaris". Exported with Export Selection, split by tools/build_creatures.py: one object per rigid body. Units: studs. +Y up, front faces -Z, pivot (bottom centre) at the origin.
mtllib anomalocaris.mtl

v 1.42200 3.51000 -7.73000
v 0.91600 4.52000 -6.74000
v 1.37700 2.98000 -7.20000
v 0.87200 3.99000 -6.21000
v 0.21200 4.38000 -6.95000
v 0.71700 3.37000 -7.94000
v 0.16700 3.84000 -6.42000
v 0.67200 2.83000 -7.41000
v -1.34300 0.64000 -7.68000
v -1.21000 2.03000 -8.21000
v -1.17800 0.79000 -7.23000
v -1.04500 2.19000 -7.77000
v -1.68000 2.13000 -8.07000
v -1.81300 0.74000 -7.54000
v -1.51500 2.29000 -7.63000
v -1.64800 0.89000 -7.09000
v 1.25000 5.08000 -7.09000
v 1.25000 5.60000 -5.16000
v 1.25000 4.60000 -6.96000
v 1.25000 5.12000 -5.03000
v -1.25000 5.60000 -5.16000
v -1.25000 5.08000 -7.09000
v -1.25000 5.12000 -5.03000
v -1.25000 4.60000 -6.96000
v -0.71700 3.37000 -7.94000
v -0.21200 4.38000 -6.95000
v -0.67200 2.83000 -7.41000
v -0.16700 3.84000 -6.42000
v -0.91600 4.52000 -6.74000
v -1.42200 3.51000 -7.73000
v -0.87200 3.99000 -6.21000
v -1.37700 2.98000 -7.20000
v -1.40400 5.97000 -6.81000
v -1.40400 6.10000 -6.32000
v -0.83000 5.18000 -6.59000
v -0.83000 5.31000 -6.11000
v -1.81300 5.82000 -6.25000
v -1.81300 5.69000 -6.73000
v -1.24000 5.03000 -6.04000
v -1.24000 4.90000 -6.52000
v 1.68200 2.12000 -8.07000
v 1.28900 3.53000 -7.74000
v 1.51800 1.91000 -7.37000
v 1.12500 3.32000 -7.04000
v 0.82000 3.43000 -7.88000
v 1.21300 2.02000 -8.21000
v 0.65500 3.22000 -7.18000
v 1.04800 1.81000 -7.51000
v -1.21300 2.02000 -8.21000
v -0.82000 3.43000 -7.88000
v -1.04800 1.81000 -7.51000
v -0.65500 3.22000 -7.18000
v -1.28900 3.53000 -7.74000
v -1.68200 2.12000 -8.07000
v -1.12500 3.32000 -7.04000
v -1.51800 1.91000 -7.37000
v 1.75000 6.60000 -7.23000
v 1.75000 6.86000 -6.27000
v 1.75000 5.63000 -6.98000
v 1.75000 5.89000 -6.01000
v 1.25000 6.86000 -6.27000
v 1.25000 6.60000 -7.23000
v 1.25000 5.89000 -6.01000
v 1.25000 5.63000 -6.98000
v 1.81300 5.69000 -6.73000
v 1.81300 5.82000 -6.25000
v 1.24000 4.90000 -6.52000
v 1.24000 5.03000 -6.04000
v 1.40400 6.10000 -6.32000
v 1.40400 5.97000 -6.81000
v 0.83000 5.31000 -6.11000
v 0.83000 5.18000 -6.59000
v -1.25000 6.60000 -7.23000
v -1.25000 6.86000 -6.27000
v -1.25000 5.63000 -6.98000
v -1.25000 5.89000 -6.01000
v -1.75000 6.86000 -6.27000
v -1.75000 6.60000 -7.23000
v -1.75000 5.89000 -6.01000
v -1.75000 5.63000 -6.98000
v 0.75000 4.60000 -6.96000
v 0.75000 4.99000 -5.51000
v 0.75000 3.88000 -6.76000
v 0.75000 4.27000 -5.32000
v -0.75000 4.99000 -5.51000
v -0.75000 4.60000 -6.96000
v -0.75000 4.27000 -5.32000
v -0.75000 3.88000 -6.76000
v 1.81300 0.74000 -7.54000
v 1.68000 2.13000 -8.07000
v 1.64800 0.89000 -7.09000
v 1.51500 2.29000 -7.63000
v 1.21000 2.03000 -8.21000
v 1.34300 0.64000 -7.68000
v 1.04500 2.19000 -7.77000
v 1.17800 0.79000 -7.23000
v 0.25000 5.26000 -7.39000
v 0.25000 5.91000 -4.98000
v 0.25000 4.54000 -7.20000
v 0.25000 5.18000 -4.79000
v -0.25000 5.91000 -4.98000
v -0.25000 5.26000 -7.39000
v -0.25000 5.18000 -4.79000
v -0.25000 4.54000 -7.20000
v -1.34500 0.00000 -6.79000
v -1.44400 0.73000 -7.64000
v -1.22100 0.27000 -6.57000
v -1.32000 1.01000 -7.42000
v -1.67900 0.78000 -7.57000
v -1.58000 0.05000 -6.72000
v -1.55500 1.06000 -7.35000
v -1.45600 0.32000 -6.50000
v 1.58000 0.05000 -6.72000
v 1.67900 0.78000 -7.57000
v 1.45600 0.32000 -6.50000
v 1.55500 1.06000 -7.35000
v 1.44400 0.73000 -7.64000
v 1.34500 0.00000 -6.79000
v 1.32000 1.01000 -7.42000
v 1.22100 0.27000 -6.57000
v 0.50000 4.71000 -7.51000
v 0.50000 5.00000 -6.42000
v 0.50000 3.63000 -7.22000
v 0.50000 3.92000 -6.13000
v -0.50000 5.00000 -6.42000
v -0.50000 4.71000 -7.51000
v -0.50000 3.92000 -6.13000
v -0.50000 3.63000 -7.22000
v 0.50000 5.03000 -6.48000
v 0.50000 5.24000 -3.99000
v 0.50000 4.03000 -6.40000
v 0.50000 4.25000 -3.91000
v -0.50000 5.24000 -3.99000
v -0.50000 5.03000 -6.48000
v -0.50000 4.25000 -3.91000
v -0.50000 4.03000 -6.40000
v 2.50000 6.60000 -7.23000
v 2.50000 6.86000 -6.27000
v 2.50000 5.63000 -6.98000
v 2.50000 5.89000 -6.01000
v -2.50000 6.86000 -6.27000
v -2.50000 6.60000 -7.23000
v -2.50000 5.89000 -6.01000
v -2.50000 5.63000 -6.98000
v 2.50500 6.60000 -7.23000
v 2.50500 6.86000 -6.27000
v 2.50500 5.63000 -6.98000
v 2.50500 5.89000 -6.01000
v -2.50500 6.86000 -6.27000
v -2.50500 6.60000 -7.23000
v -2.50500 5.89000 -6.01000
v -2.50500 5.63000 -6.98000
v -0.77800 5.51000 2.21000
v -0.52300 5.64000 3.16000
v -0.69100 5.02000 2.25000
v -0.43600 5.15000 3.21000
v -1.95000 5.42000 3.57000
v -2.20500 5.29000 2.61000
v -1.86300 4.93000 3.62000
v -2.11800 4.80000 2.66000
v -0.72500 5.42000 1.09000
v -0.55400 5.54000 2.07000
v -0.63900 4.93000 1.14000
v -0.46800 5.05000 2.12000
v -2.61500 5.21000 2.47000
v -2.78600 5.09000 1.49000
v -2.52900 4.72000 2.52000
v -2.70000 4.60000 1.54000
v -0.72900 5.31000 -0.19000
v -0.55800 5.42000 0.79000
v -0.64200 4.82000 -0.15000
v -0.47100 4.93000 0.83000
v -3.22500 5.00000 1.30000
v -3.39600 4.88000 0.32000
v -3.13800 4.51000 1.34000
v -3.30900 4.39000 0.37000
v 3.95100 4.73000 -1.03000
v 3.85000 4.75000 -0.03000
v 3.86500 4.24000 -1.03000
v 3.76400 4.25000 -0.03000
v 1.15600 5.22000 -0.31000
v 1.25700 5.20000 -1.31000
v 1.06900 4.73000 -0.31000
v 1.17000 4.71000 -1.31000
v 4.47600 4.64000 -2.50000
v 4.34900 4.66000 -1.25000
v 4.38900 4.15000 -2.50000
v 4.26300 4.17000 -1.25000
v 1.16500 5.22000 -1.58000
v 1.29100 5.20000 -2.83000
v 1.07900 4.73000 -1.58000
v 1.20500 4.71000 -2.83000
v 3.86300 4.75000 -3.66000
v 3.77500 4.76000 -2.79000
v 3.77600 4.26000 -3.66000
v 3.68800 4.27000 -2.79000
v 1.20300 5.22000 -3.06000
v 1.29100 5.20000 -3.93000
v 1.11600 4.72000 -3.06000
v 1.20500 4.71000 -3.93000
v 2.89000 4.92000 -4.71000
v 2.81400 4.93000 -3.96000
v 2.80300 4.43000 -4.71000
v 2.72700 4.44000 -3.96000
v 0.97700 5.26000 -4.15000
v 1.05300 5.24000 -4.90000
v 0.89000 4.76000 -4.15000
v 0.96600 4.75000 -4.90000
v -1.25700 5.20000 -1.31000
v -1.15600 5.22000 -0.31000
v -1.17000 4.71000 -1.31000
v -1.06900 4.73000 -0.31000
v -3.85000 4.75000 -0.03000
v -3.95100 4.73000 -1.03000
v -3.76400 4.25000 -0.03000
v -3.86500 4.24000 -1.03000
v -1.05300 5.24000 -4.90000
v -0.97700 5.26000 -4.15000
v -0.96600 4.75000 -4.90000
v -0.89000 4.76000 -4.15000
v -2.81400 4.93000 -3.96000
v -2.89000 4.92000 -4.71000
v -2.72700 4.44000 -3.96000
v -2.80300 4.43000 -4.71000
v -1.29100 5.20000 -3.93000
v -1.20300 5.22000 -3.06000
v -1.20500 4.71000 -3.93000
v -1.11600 4.72000 -3.06000
v -3.77500 4.76000 -2.79000
v -3.86300 4.75000 -3.66000
v -3.68800 4.27000 -2.79000
v -3.77600 4.26000 -3.66000
v -1.29200 5.20000 -2.83000
v -1.16500 5.22000 -1.58000
v -1.20500 4.71000 -2.83000
v -1.07900 4.73000 -1.59000
v -4.34900 4.66000 -1.25000
v -4.47600 4.64000 -2.50000
v -4.26300 4.17000 -1.25000
v -4.38900 4.15000 -2.50000
v -0.09400 5.79000 -4.72000
v -0.02600 5.80000 -0.22000
v -0.00800 5.30000 -4.72000
v 0.06000 5.31000 -0.22000
v -1.50300 5.54000 -0.20000
v -1.57200 5.53000 -4.70000
v -1.41700 5.05000 -0.20000
v -1.48500 5.04000 -4.70000
v 1.57200 5.53000 -4.70000
v 1.50300 5.54000 -0.20000
v 1.48500 5.04000 -4.70000
v 1.41700 5.05000 -0.20000
v 0.02600 5.80000 -0.22000
v 0.09400 5.79000 -4.72000
v -0.06000 5.31000 -0.22000
v 0.00800 5.30000 -4.72000
v 1.25000 5.15000 -4.21000
v 1.25000 5.15000 -0.21000
v 1.25000 4.40000 -4.21000
v 1.25000 4.40000 -0.21000
v -1.25000 5.15000 -0.21000
v -1.25000 5.15000 -4.21000
v -1.25000 4.40000 -0.21000
v -1.25000 4.40000 -4.21000
v 0.75000 4.40000 -4.21000
v 0.75000 4.40000 -0.21000
v 0.75000 3.90000 -4.21000
v 0.75000 3.90000 -0.21000
v -0.75000 4.40000 -0.21000
v -0.75000 4.40000 -4.21000
v -0.75000 3.90000 -0.21000
v -0.75000 3.90000 -4.21000
v 0.37500 6.02000 -4.46000
v 0.37500 6.02000 -0.46000
v 0.37500 5.15000 -4.46000
v 0.37500 5.15000 -0.46000
v -0.37500 6.02000 -0.46000
v -0.37500 6.02000 -4.46000
v -0.37500 5.15000 -0.46000
v -0.37500 5.15000 -4.46000
v 2.78600 5.09000 1.49000
v 2.61500 5.21000 2.47000
v 2.70000 4.60000 1.54000
v 2.52900 4.72000 2.52000
v 0.55400 5.54000 2.07000
v 0.72500 5.42000 1.09000
v 0.46800 5.05000 2.12000
v 0.63900 4.93000 1.14000
v 2.20400 5.29000 2.61000
v 1.95000 5.42000 3.57000
v 2.11800 4.80000 2.66000
v 1.86300 4.93000 3.62000
v 0.52300 5.64000 3.16000
v 0.77800 5.51000 2.21000
v 0.43600 5.15000 3.21000
v 0.69100 5.02000 2.25000
v 3.39600 4.88000 0.32000
v 3.22500 5.00000 1.30000
v 3.30900 4.39000 0.37000
v 3.13800 4.51000 1.34000
v 0.55800 5.42000 0.79000
v 0.72900 5.31000 -0.19000
v 0.47100 4.93000 0.83000
v 0.64200 4.82000 -0.15000
v -0.05300 5.68000 -0.27000
v -0.05300 5.98000 3.22000
v 0.03400 5.19000 -0.22000
v 0.03400 5.49000 3.26000
v -1.28400 5.76000 3.24000
v -1.28400 5.46000 -0.25000
v -1.19700 5.27000 3.28000
v -1.19700 4.97000 -0.20000
v 1.28400 5.46000 -0.25000
v 1.28400 5.76000 3.24000
v 1.19700 4.97000 -0.20000
v 1.19700 5.27000 3.28000
v 0.05300 5.98000 3.22000
v 0.05300 5.68000 -0.27000
v -0.03400 5.49000 3.26000
v -0.03400 5.19000 -0.22000
v 0.25000 5.96000 -0.17000
v 0.25000 6.24000 3.07000
v 0.25000 5.08000 -0.09000
v 0.25000 5.37000 3.15000
v -0.25000 6.24000 3.07000
v -0.25000 5.96000 -0.17000
v -0.25000 5.37000 3.15000
v -0.25000 5.08000 -0.09000
v 0.75000 5.07000 -0.21000
v 0.75000 5.38000 3.27000
v 0.75000 4.33000 -0.15000
v 0.75000 4.63000 3.34000
v -0.75000 5.38000 3.27000
v -0.75000 5.07000 -0.21000
v -0.75000 4.63000 3.34000
v -0.75000 4.33000 -0.15000
v 0.50000 4.33000 -0.15000
v 0.50000 4.63000 3.34000
v 0.50000 4.08000 -0.13000
v 0.50000 4.38000 3.36000
v -0.50000 4.63000 3.34000
v -0.50000 4.33000 -0.15000
v -0.50000 4.38000 3.36000
v -0.50000 4.08000 -0.13000
v -0.30700 6.20000 6.04000
v -0.69700 6.95000 8.13000
v -0.30700 5.96000 6.13000
v -0.69700 6.72000 8.21000
v -0.94300 6.94000 8.09000
v -0.55300 6.18000 6.00000
v -0.94300 6.70000 8.17000
v -0.55300 5.95000 6.09000
v 0.50000 5.27000 3.28000
v 0.50000 5.70000 5.74000
v 0.50000 4.78000 3.36000
v 0.50000 5.21000 5.83000
v -0.50000 5.70000 5.74000
v -0.50000 5.27000 3.28000
v -0.50000 5.21000 5.83000
v -0.50000 4.78000 3.36000
v 0.55300 6.18000 6.00000
v 0.94300 6.94000 8.09000
v 0.55300 5.95000 6.09000
v 0.94300 6.70000 8.17000
v 0.69700 6.95000 8.13000
v 0.30700 6.20000 6.04000
v 0.69700 6.72000 8.21000
v 0.30700 5.96000 6.13000
v 0.46000 5.31000 3.69000
v 2.95000 5.80000 5.04000
v 0.46000 4.96000 3.82000
v 2.95000 5.45000 5.17000
v 2.45000 6.10000 5.85000
v -0.04000 5.61000 4.50000
v 2.45000 5.75000 5.98000
v -0.04000 5.26000 4.63000
v 0.80800 5.53000 4.66000
v 2.57600 6.13000 6.32000
v 0.80800 5.18000 4.78000
v 2.57600 5.78000 6.44000
v 1.95700 6.35000 6.90000
v 0.18900 5.74000 5.24000
v 1.95700 5.99000 7.03000
v 0.18900 5.39000 5.37000
v 0.73800 5.80000 5.41000
v 1.86300 6.47000 7.24000
v 0.73800 5.57000 5.49000
v 1.86300 6.23000 7.32000
v 1.21400 6.60000 7.59000
v 0.08900 5.93000 5.76000
v 1.21400 6.36000 7.67000
v 0.08900 5.70000 5.84000
v -0.08900 5.93000 5.76000
v -1.21400 6.60000 7.59000
v -0.08900 5.70000 5.84000
v -1.21400 6.36000 7.67000
v -1.86300 6.47000 7.24000
v -0.73800 5.80000 5.41000
v -1.86300 6.23000 7.32000
v -0.73800 5.57000 5.49000
v 0.04000 5.61000 4.50000
v -2.45000 6.10000 5.85000
v 0.04000 5.26000 4.63000
v -2.45000 5.75000 5.98000
v -2.95000 5.80000 5.04000
v -0.46000 5.31000 3.69000
v -2.95000 5.45000 5.17000
v -0.46000 4.96000 3.82000
v -0.18900 5.74000 5.24000
v -1.95700 6.35000 6.90000
v -0.18900 5.39000 5.37000
v -1.95700 5.99000 7.03000
v -2.57600 6.13000 6.32000
v -0.80800 5.53000 4.66000
v -2.57600 5.78000 6.44000
v -0.80800 5.18000 4.78000
v 0.25000 4.78000 3.36000
v 0.25000 5.12000 5.33000
v 0.25000 4.53000 3.41000
v 0.25000 4.88000 5.38000
v -0.25000 5.12000 5.33000
v -0.25000 4.78000 3.36000
v -0.25000 4.88000 5.38000
v -0.25000 4.53000 3.41000
v 0.75000 5.76000 3.19000
v 0.75000 6.28000 6.14000
v 0.75000 5.27000 3.28000
v 0.75000 5.79000 6.23000
v -0.75000 6.28000 6.14000
v -0.75000 5.76000 3.19000
v -0.75000 5.79000 6.23000
v -0.75000 5.27000 3.28000
v 0.25000 6.00000 3.32000
v 0.25000 6.52000 6.28000
v 0.25000 5.51000 3.41000
v 0.25000 6.03000 6.36000
v -0.25000 6.52000 6.28000
v -0.25000 6.00000 3.32000
v -0.25000 6.03000 6.36000
v -0.25000 5.51000 3.41000
vt 2.68750 -6.50000
vt 2.50000 -6.50000
vt 2.68750 -6.59375
vt 2.50000 -6.59375
vt 2.59375 -6.50000
vt 2.59375 -6.68750
vt 2.50000 -6.68750
vt 2.59375 -6.59375
vt 2.68750 -4.25000
vt 2.50000 -4.25000
vt 2.68750 -4.31250
vt 2.50000 -4.31250
vt 2.56250 -4.25000
vt 2.56250 -4.43750
vt 2.50000 -4.43750
vt 2.56250 -4.31250
vt 6.00000 -4.75000
vt 5.75000 -4.75000
vt 6.00000 -4.81250
vt 5.75000 -4.81250
vt 6.06250 -4.75000
vt 6.06250 -5.00000
vt 5.75000 -5.00000
vt 6.06250 -4.81250
vt 7.68750 1.00000
vt 7.50000 1.00000
vt 7.68750 0.90625
vt 7.50000 0.90625
vt 7.59375 1.00000
vt 7.59375 0.81250
vt 7.50000 0.81250
vt 7.59375 0.90625
vt 7.81250 0.75000
vt 7.75000 0.75000
vt 7.81250 0.62500
vt 7.75000 0.62500
vt 7.81250 0.68750
vt 7.75000 0.68750
vt 7.68750 -2.25000
vt 7.50000 -2.25000
vt 7.68750 -2.34375
vt 7.50000 -2.34375
vt 7.56250 -2.25000
vt 7.56250 -2.43750
vt 7.50000 -2.43750
vt 7.56250 -2.34375
vt 4.18750 -1.50000
vt 4.00000 -1.50000
vt 4.18750 -1.59375
vt 4.00000 -1.59375
vt 4.06250 -1.50000
vt 4.06250 -1.68750
vt 4.00000 -1.68750
vt 4.06250 -1.59375
vt 5.12500 -2.25000
vt 5.00000 -2.25000
vt 5.12500 -2.37500
vt 5.00000 -2.37500
vt 5.06250 -2.25000
vt 5.06250 -2.37500
vt 4.56250 -6.50000
vt 4.50000 -6.50000
vt 4.56250 -6.62500
vt 4.50000 -6.62500
vt 4.56250 -6.56250
vt 4.50000 -6.56250
vt 4.12500 1.00000
vt 4.00000 1.00000
vt 4.12500 0.87500
vt 4.00000 0.87500
vt 4.06250 1.00000
vt 4.06250 0.87500
vt 5.18750 -2.00000
vt 5.00000 -2.00000
vt 5.18750 -2.09375
vt 5.00000 -2.09375
vt 5.18750 -2.18750
vt 5.00000 -2.18750
vt 0.93750 -2.75000
vt 0.75000 -2.75000
vt 0.93750 -2.81250
vt 0.75000 -2.81250
vt 0.81250 -2.75000
vt 0.81250 -2.93750
vt 0.75000 -2.93750
vt 0.81250 -2.81250
vt 6.56250 -4.75000
vt 6.25000 -4.75000
vt 6.56250 -4.84375
vt 6.25000 -4.84375
vt 6.31250 -4.75000
vt 6.31250 -5.06250
vt 6.25000 -5.06250
vt 6.31250 -4.84375
vt 2.64062 0.25000
vt 2.50000 0.25000
vt 2.64062 0.20312
vt 2.50000 0.20312
vt 2.53125 0.25000
vt 2.53125 0.10938
vt 2.50000 0.10938
vt 2.53125 0.20312
vt 5.64062 -5.00000
vt 5.50000 -5.00000
vt 5.64062 -5.04688
vt 5.50000 -5.04688
vt 5.53125 -5.00000
vt 5.53125 -5.14062
vt 5.50000 -5.14062
vt 5.53125 -5.04688
vt 1.64062 -4.25000
vt 1.50000 -4.25000
vt 1.64062 -4.39062
vt 1.50000 -4.39062
vt 1.62500 -4.25000
vt 1.62500 -4.39062
vt 7.81250 -2.75000
vt 7.50000 -2.75000
vt 7.81250 -2.87500
vt 7.50000 -2.87500
vt 7.62500 -2.75000
vt 7.62500 -3.06250
vt 7.50000 -3.06250
vt 7.62500 -2.87500
vt 2.12500 -3.50000
vt 2.00000 -3.50000
vt 2.12500 -3.62500
vt 2.00000 -3.62500
vt 2.09375 -3.50000
vt 2.09375 -3.62500
vt 4.62500 -0.75000
vt 4.50000 -0.75000
vt 4.62500 -0.87500
vt 4.50000 -0.87500
vt 4.59375 -0.75000
vt 4.59375 -0.87500
vt 1.00000 1.00000
vt 0.00000 1.00000
vt 1.00000 0.00000
vt 0.00000 0.00000
vt 6.62500 -5.25000
vt 6.50000 -5.25000
vt 6.62500 -5.31250
vt 6.50000 -5.31250
vt 6.68750 -5.25000
vt 6.68750 -5.37500
vt 6.50000 -5.37500
vt 6.68750 -5.31250
vt 6.87500 0.00000
vt 6.75000 0.00000
vt 6.87500 -0.06250
vt 6.75000 -0.06250
vt 7.01562 0.00000
vt 7.01562 -0.12500
vt 6.75000 -0.12500
vt 7.01562 -0.06250
vt 1.12500 -1.75000
vt 1.00000 -1.75000
vt 1.12500 -1.81250
vt 1.00000 -1.81250
vt 1.34375 -1.75000
vt 1.34375 -1.87500
vt 1.00000 -1.87500
vt 1.34375 -1.81250
vt 3.62500 -5.50000
vt 3.50000 -5.50000
vt 3.62500 -5.56250
vt 3.50000 -5.56250
vt 3.84375 -5.50000
vt 3.84375 -5.62500
vt 3.50000 -5.62500
vt 3.84375 -5.56250
vt 0.90625 -5.25000
vt 0.75000 -5.25000
vt 0.90625 -5.31250
vt 0.75000 -5.31250
vt 1.15625 -5.25000
vt 1.15625 -5.40625
vt 0.75000 -5.40625
vt 1.15625 -5.31250
vt 2.60938 -3.50000
vt 2.50000 -3.50000
vt 2.60938 -3.56250
vt 2.50000 -3.56250
vt 2.82812 -3.50000
vt 2.82812 -3.60938
vt 2.50000 -3.60938
vt 2.82812 -3.56250
vt 2.84375 -2.25000
vt 2.75000 -2.25000
vt 2.84375 -2.31250
vt 2.75000 -2.31250
vt 2.98438 -2.25000
vt 2.98438 -2.34375
vt 2.75000 -2.34375
vt 2.98438 -2.31250
vt 1.12500 -3.00000
vt 1.00000 -3.00000
vt 1.12500 -3.06250
vt 1.00000 -3.06250
vt 1.34375 -3.00000
vt 1.34375 -3.12500
vt 1.00000 -3.12500
vt 1.34375 -3.06250
vt 1.84375 -6.50000
vt 1.75000 -6.50000
vt 1.84375 -6.56250
vt 1.75000 -6.56250
vt 1.98437 -6.50000
vt 1.98437 -6.59375
vt 1.75000 -6.59375
vt 1.98437 -6.56250
vt 6.60938 -2.00000
vt 6.50000 -2.00000
vt 6.60938 -2.06250
vt 6.50000 -2.06250
vt 6.82812 -2.00000
vt 6.82812 -2.10938
vt 6.50000 -2.10938
vt 6.82812 -2.06250
vt 0.15625 0.00000
vt 0.15625 -0.06250
vt 0.00000 -0.06250
vt 0.40625 0.00000
vt 0.40625 -0.15625
vt 0.00000 -0.15625
vt 0.40625 -0.06250
vt 7.56250 -4.75000
vt 7.00000 -4.75000
vt 7.56250 -4.81250
vt 7.00000 -4.81250
vt 7.18750 -4.75000
vt 7.18750 -5.31250
vt 7.00000 -5.31250
vt 7.18750 -4.81250
vt 4.56250 -4.25000
vt 4.00000 -4.25000
vt 4.56250 -4.31250
vt 4.00000 -4.31250
vt 4.18750 -4.25000
vt 4.18750 -4.81250
vt 4.00000 -4.81250
vt 4.18750 -4.31250
vt 4.75000 -6.75000
vt 4.25000 -6.75000
vt 4.75000 -6.84375
vt 4.25000 -6.84375
vt 4.56250 -6.75000
vt 4.56250 -7.25000
vt 4.25000 -7.25000
vt 4.56250 -6.84375
vt 7.25000 -5.00000
vt 6.75000 -5.00000
vt 7.25000 -5.06250
vt 6.75000 -5.06250
vt 6.93750 -5.00000
vt 6.93750 -5.50000
vt 6.75000 -5.50000
vt 6.93750 -5.06250
vt 4.00000 -6.25000
vt 3.50000 -6.25000
vt 4.00000 -6.35938
vt 3.50000 -6.35938
vt 3.59375 -6.25000
vt 3.59375 -6.75000
vt 3.50000 -6.75000
vt 3.59375 -6.35938
vt 3.12500 -4.25000
vt 3.00000 -4.25000
vt 3.12500 -4.31250
vt 3.00000 -4.31250
vt 3.26562 -4.25000
vt 3.26562 -4.37500
vt 3.00000 -4.37500
vt 3.26562 -4.31250
vt 4.87500 -1.25000
vt 4.75000 -1.25000
vt 4.87500 -1.31250
vt 4.75000 -1.31250
vt 4.93750 -1.25000
vt 4.93750 -1.37500
vt 4.75000 -1.37500
vt 4.93750 -1.31250
vt 2.87500 -1.25000
vt 2.75000 -1.25000
vt 2.87500 -1.31250
vt 2.75000 -1.31250
vt 3.09375 -1.25000
vt 3.09375 -1.37500
vt 2.75000 -1.37500
vt 3.09375 -1.31250
vt 2.43750 -1.50000
vt 2.00000 -1.50000
vt 2.43750 -1.56250
vt 2.00000 -1.56250
vt 2.15625 -1.50000
vt 2.15625 -1.93750
vt 2.00000 -1.93750
vt 2.15625 -1.56250
vt 5.18750 -6.75000
vt 5.18750 -6.81250
vt 4.75000 -6.81250
vt 4.90625 -6.75000
vt 4.90625 -7.18750
vt 4.75000 -7.18750
vt 4.90625 -6.81250
vt 7.90625 -0.75000
vt 7.50000 -0.75000
vt 7.90625 -0.85938
vt 7.50000 -0.85938
vt 7.56250 -0.75000
vt 7.56250 -1.15625
vt 7.50000 -1.15625
vt 7.56250 -0.85938
vt 4.18750 0.75000
vt 3.75000 0.75000
vt 4.18750 0.65625
vt 3.75000 0.65625
vt 3.93750 0.75000
vt 3.93750 0.31250
vt 3.75000 0.31250
vt 3.93750 0.65625
vt 6.43750 -6.00000
vt 6.00000 -6.00000
vt 6.43750 -6.03125
vt 6.00000 -6.03125
vt 6.12500 -6.00000
vt 6.12500 -6.43750
vt 6.00000 -6.43750
vt 6.12500 -6.03125
vt 7.03125 -6.75000
vt 6.75000 -6.75000
vt 7.03125 -6.78125
vt 6.75000 -6.78125
vt 6.78125 -6.75000
vt 6.78125 -7.03125
vt 6.75000 -7.03125
vt 6.78125 -6.78125
vt 3.81250 1.00000
vt 3.50000 1.00000
vt 3.81250 0.93750
vt 3.50000 0.93750
vt 3.62500 1.00000
vt 3.62500 0.68750
vt 3.50000 0.68750
vt 3.62500 0.93750
vt 2.28125 -4.50000
vt 2.00000 -4.50000
vt 2.28125 -4.53125
vt 2.00000 -4.53125
vt 2.03125 -4.50000
vt 2.03125 -4.78125
vt 2.00000 -4.78125
vt 2.03125 -4.53125
vt 0.85938 -5.75000
vt 0.50000 -5.75000
vt 0.85938 -5.79688
vt 0.50000 -5.79688
vt 0.62500 -5.75000
vt 0.62500 -6.10938
vt 0.50000 -6.10938
vt 0.62500 -5.79688
vt 5.56250 -6.50000
vt 5.25000 -6.50000
vt 5.56250 -6.54688
vt 5.25000 -6.54688
vt 5.35938 -6.50000
vt 5.35938 -6.81250
vt 5.25000 -6.81250
vt 5.35938 -6.54688
vt 4.03125 -1.25000
vt 3.75000 -1.25000
vt 4.03125 -1.28125
vt 3.75000 -1.28125
vt 3.84375 -1.25000
vt 3.84375 -1.53125
vt 3.75000 -1.53125
vt 3.84375 -1.28125
vt 6.03125 -1.75000
vt 5.75000 -1.75000
vt 6.03125 -1.78125
vt 5.75000 -1.78125
vt 5.84375 -1.75000
vt 5.84375 -2.03125
vt 5.75000 -2.03125
vt 5.84375 -1.78125
vt 5.10938 -4.75000
vt 4.75000 -4.75000
vt 5.10938 -4.79688
vt 4.75000 -4.79688
vt 4.87500 -4.75000
vt 4.87500 -5.10938
vt 4.75000 -5.10938
vt 4.87500 -4.79688
vt 1.31250 0.75000
vt 1.00000 0.75000
vt 1.31250 0.70312
vt 1.00000 0.70312
vt 1.10938 0.75000
vt 1.10938 0.43750
vt 1.00000 0.43750
vt 1.10938 0.70312
vt 4.00000 -3.50000
vt 3.75000 -3.50000
vt 4.00000 -3.53125
vt 3.75000 -3.53125
vt 3.81250 -3.50000
vt 3.81250 -3.75000
vt 3.75000 -3.75000
vt 3.81250 -3.53125
vt 5.62500 -4.50000
vt 5.25000 -4.50000
vt 5.62500 -4.56250
vt 5.25000 -4.56250
vt 5.43750 -4.50000
vt 5.43750 -4.87500
vt 5.25000 -4.87500
vt 5.43750 -4.56250
vt 3.37500 -2.75000
vt 3.00000 -2.75000
vt 3.37500 -2.81250
vt 3.00000 -2.81250
vt 3.06250 -2.75000
vt 3.06250 -3.12500
vt 3.00000 -3.12500
vt 3.06250 -2.81250
vn 0.9370 0.1968 0.2835
vn 0.0630 0.7165 -0.7008
vn -0.3386 0.6693 0.6614
vn -0.9370 -0.1968 -0.2835
vn -0.0630 -0.7165 0.7008
vn 0.3386 -0.6693 -0.6614
vn 0.9370 -0.1968 -0.2835
vn -0.3307 -0.3071 -0.8898
vn 0.0866 0.9291 -0.3543
vn -0.9370 0.1968 0.2835
vn 0.3307 0.3071 0.8898
vn -0.0866 -0.9291 0.3543
vn 1.0000 0.0000 0.0000
vn 0.0000 0.9685 -0.2598
vn 0.0000 0.2598 0.9685
vn -1.0000 0.0000 0.0000
vn 0.0000 -0.9685 0.2598
vn 0.0000 -0.2598 -0.9685
vn -0.0630 0.7165 -0.7008
vn 0.3386 0.6693 0.6614
vn 0.0630 -0.7165 0.7008
vn -0.3386 -0.6693 -0.6614
vn 0.8189 0.5512 -0.1496
vn -0.5748 0.7874 -0.2126
vn -0.8189 -0.5512 0.1496
vn 0.5748 -0.7874 0.2126
vn 0.2205 0.2835 -0.9370
vn -0.2598 0.9370 0.2205
vn -0.2205 -0.2835 0.9370
vn 0.2598 -0.9370 -0.2205
vn -0.2205 0.2835 -0.9370
vn 0.2598 0.9370 0.2205
vn 0.2205 -0.2835 0.9370
vn -0.2598 -0.9370 -0.2205
vn 0.8189 -0.5512 0.1496
vn 0.5748 0.7874 -0.2126
vn -0.8189 0.5512 -0.1496
vn -0.5748 -0.7874 0.2126
vn 0.3307 -0.3071 -0.8898
vn -0.0866 0.9291 -0.3543
vn -0.3307 0.3071 0.8898
vn 0.0866 -0.9291 0.3543
vn -0.3307 -0.7323 -0.5984
vn -0.0866 0.6535 -0.7559
vn 0.3307 0.7323 0.5984
vn 0.0866 -0.6535 0.7559
vn 0.3307 -0.7323 -0.5984
vn 0.0866 0.6535 -0.7559
vn -0.3307 0.7323 0.5984
vn -0.0866 -0.6535 0.7559
vn 0.0000 1.0000 -0.0866
vn 0.0000 0.0866 1.0000
vn 0.0000 -1.0000 0.0866
vn 0.0000 -0.0866 -1.0000
vn 0.9528 0.1417 -0.2756
vn -0.1732 0.9843 -0.0866
vn 0.2520 0.1260 0.9606
vn -0.9528 -0.1417 0.2756
vn 0.1732 -0.9843 0.0866
vn -0.2520 -0.1260 -0.9606
vn 0.9685 0.1575 -0.1890
vn 0.1732 0.1181 0.9764
vn -0.9685 -0.1575 0.1890
vn -0.1732 -0.1181 -0.9764
vn 0.9764 -0.1732 0.1024
vn 0.1732 0.9843 0.0000
vn -0.1024 0.0157 0.9921
vn -0.9764 0.1732 -0.1024
vn -0.1732 -0.9843 0.0000
vn 0.1024 -0.0157 -0.9921
vn 0.9764 0.1732 -0.1024
vn -0.1732 0.9843 0.0000
vn 0.1024 0.0157 0.9921
vn -0.9764 -0.1732 0.1024
vn 0.1732 -0.9843 0.0000
vn -0.1024 -0.0157 -0.9921
vn 0.9843 0.1732 -0.0157
vn 0.0157 0.0000 1.0000
vn -0.9843 -0.1732 0.0157
vn -0.0157 0.0000 -1.0000
vn 0.9843 -0.1732 0.0157
vn -0.0157 0.0000 1.0000
vn -0.9843 0.1732 -0.0157
vn 0.0157 0.0000 -1.0000
vn 0.0000 1.0000 0.0000
vn 0.0000 0.0000 1.0000
vn 0.0000 -1.0000 0.0000
vn 0.0000 0.0000 -1.0000
vn 0.9685 -0.1575 0.1890
vn 0.1732 0.9843 -0.0866
vn -0.1732 0.1181 0.9764
vn -0.9685 0.1575 -0.1890
vn -0.1732 -0.9843 0.0866
vn 0.1732 -0.1181 -0.9764
vn 0.9528 -0.1417 0.2756
vn -0.2520 0.1260 0.9606
vn -0.9528 0.1417 -0.2756
vn 0.2520 -0.1260 -0.9606
vn 0.9843 0.0630 0.1654
vn 0.0000 0.9370 -0.3386
vn -0.1732 0.3386 0.9291
vn -0.9843 -0.0630 -0.1654
vn 0.0000 -0.9370 0.3386
vn 0.1732 -0.3386 -0.9291
vn 0.0000 0.9843 -0.1732
vn 0.0000 0.1732 0.9843
vn 0.0000 -0.9843 0.1732
vn 0.0000 -0.1732 -0.9843
vn 0.9843 -0.0630 -0.1654
vn 0.1732 0.3386 0.9291
vn -0.9843 0.0630 0.1654
vn -0.1732 -0.3386 -0.9291
vn 0.4961 -0.2992 -0.8110
vn 0.8661 0.1732 0.4724
vn -0.4961 0.2992 0.8110
vn -0.8661 -0.1732 -0.4724
vn 0.7087 -0.2441 -0.6614
vn 0.7087 0.2441 0.6614
vn -0.7087 0.2441 0.6614
vn -0.7087 -0.2441 -0.6614
vn 0.8661 -0.1732 -0.4724
vn 0.4961 0.2992 0.8110
vn -0.8661 0.1732 0.4724
vn -0.4961 -0.2992 -0.8110

o Head
usemtl c_883e3e
f 1/1/1 2/2/1 3/3/1
f 3/3/1 2/2/1 4/4/1
f 5/5/2 2/2/2 6/6/2
f 6/6/2 2/2/2 1/7/2
f 2/5/3 5/2/3 4/8/3
f 4/8/3 5/2/3 7/4/3
f 5/1/4 6/2/4 7/3/4
f 7/3/4 6/2/4 8/4/4
f 8/5/5 3/2/5 7/6/5
f 7/6/5 3/2/5 4/7/5
f 6/5/6 1/2/6 8/8/6
f 8/8/6 1/2/6 3/4/6
f 9/9/7 10/10/7 11/11/7
f 11/11/7 10/10/7 12/12/7
f 13/13/8 10/10/8 14/14/8
f 14/14/8 10/10/8 9/15/8
f 10/13/9 13/10/9 12/16/9
f 12/16/9 13/10/9 15/12/9
f 13/9/10 14/10/10 15/11/10
f 15/11/10 14/10/10 16/12/10
f 16/13/11 11/10/11 15/14/11
f 15/14/11 11/10/11 12/15/11
f 14/13/12 9/10/12 16/16/12
f 16/16/12 9/10/12 11/12/12
f 17/17/13 18/18/13 19/19/13
f 19/19/13 18/18/13 20/20/13
f 21/21/14 18/18/14 22/22/14
f 22/22/14 18/18/14 17/23/14
f 18/21/15 21/18/15 20/24/15
f 20/24/15 21/18/15 23/20/15
f 21/17/16 22/18/16 23/19/16
f 23/19/16 22/18/16 24/20/16
f 24/21/17 19/18/17 23/22/17
f 23/22/17 19/18/17 20/23/17
f 22/21/18 17/18/18 24/24/18
f 24/24/18 17/18/18 19/20/18
f 25/25/7 26/26/7 27/27/7
f 27/27/7 26/26/7 28/28/7
f 29/29/19 26/26/19 30/30/19
f 30/30/19 26/26/19 25/31/19
f 26/29/20 29/26/20 28/32/20
f 28/32/20 29/26/20 31/28/20
f 29/25/10 30/26/10 31/27/10
f 31/27/10 30/26/10 32/28/10
f 32/29/21 27/26/21 31/30/21
f 31/30/21 27/26/21 28/31/21
f 30/29/22 25/26/22 32/32/22
f 32/32/22 25/26/22 27/28/22
f 33/33/23 34/34/23 35/35/23
f 35/35/23 34/34/23 36/36/23
f 37/33/24 34/34/24 38/37/24
f 38/37/24 34/34/24 33/38/24
f 34/33/15 37/34/15 36/35/15
f 36/35/15 37/34/15 39/36/15
f 37/33/25 38/34/25 39/35/25
f 39/35/25 38/34/25 40/36/25
f 40/33/26 35/34/26 39/37/26
f 39/37/26 35/34/26 36/38/26
f 38/33/18 33/34/18 40/35/18
f 40/35/18 33/34/18 35/36/18
f 41/39/1 42/40/1 43/41/1
f 43/41/1 42/40/1 44/42/1
f 45/43/27 42/40/27 46/44/27
f 46/44/27 42/40/27 41/45/27
f 42/43/28 45/40/28 44/46/28
f 44/46/28 45/40/28 47/42/28
f 45/39/4 46/40/4 47/41/4
f 47/41/4 46/40/4 48/42/4
f 48/43/29 43/40/29 47/44/29
f 47/44/29 43/40/29 44/45/29
f 46/43/30 41/40/30 48/46/30
f 48/46/30 41/40/30 43/42/30
f 49/47/7 50/48/7 51/49/7
f 51/49/7 50/48/7 52/50/7
f 53/51/31 50/48/31 54/52/31
f 54/52/31 50/48/31 49/53/31
f 50/51/32 53/48/32 52/54/32
f 52/54/32 53/48/32 55/50/32
f 53/47/10 54/48/10 55/49/10
f 55/49/10 54/48/10 56/50/10
f 56/51/33 51/48/33 55/52/33
f 55/52/33 51/48/33 52/53/33
f 54/51/34 49/48/34 56/54/34
f 56/54/34 49/48/34 51/50/34
f 57/55/13 58/56/13 59/57/13
f 59/57/13 58/56/13 60/58/13
f 61/59/14 58/56/14 62/60/14
f 62/60/14 58/56/14 57/58/14
f 58/59/15 61/56/15 60/60/15
f 60/60/15 61/56/15 63/58/15
f 61/55/16 62/56/16 63/57/16
f 63/57/16 62/56/16 64/58/16
f 64/59/17 59/56/17 63/60/17
f 63/60/17 59/56/17 60/58/17
f 62/59/18 57/56/18 64/60/18
f 64/60/18 57/56/18 59/58/18
f 65/61/35 66/62/35 67/63/35
f 67/63/35 66/62/35 68/64/35
f 69/61/36 66/62/36 70/65/36
f 70/65/36 66/62/36 65/66/36
f 66/61/15 69/62/15 68/63/15
f 68/63/15 69/62/15 71/64/15
f 69/61/37 70/62/37 71/63/37
f 71/63/37 70/62/37 72/64/37
f 72/61/38 67/62/38 71/65/38
f 71/65/38 67/62/38 68/66/38
f 70/61/18 65/62/18 72/63/18
f 72/63/18 65/62/18 67/64/18
f 73/67/13 74/68/13 75/69/13
f 75/69/13 74/68/13 76/70/13
f 77/71/14 74/68/14 78/72/14
f 78/72/14 74/68/14 73/70/14
f 74/71/15 77/68/15 76/72/15
f 76/72/15 77/68/15 79/70/15
f 77/67/16 78/68/16 79/69/16
f 79/69/16 78/68/16 80/70/16
f 80/71/17 75/68/17 79/72/17
f 79/72/17 75/68/17 76/70/17
f 78/71/18 73/68/18 80/72/18
f 80/72/18 73/68/18 75/70/18
f 81/73/13 82/74/13 83/75/13
f 83/75/13 82/74/13 84/76/13
f 85/73/14 82/74/14 86/77/14
f 86/77/14 82/74/14 81/78/14
f 82/73/15 85/74/15 84/75/15
f 84/75/15 85/74/15 87/76/15
f 85/73/16 86/74/16 87/75/16
f 87/75/16 86/74/16 88/76/16
f 88/73/17 83/74/17 87/77/17
f 87/77/17 83/74/17 84/78/17
f 86/73/18 81/74/18 88/75/18
f 88/75/18 81/74/18 83/76/18
f 89/79/1 90/80/1 91/81/1
f 91/81/1 90/80/1 92/82/1
f 93/83/39 90/80/39 94/84/39
f 94/84/39 90/80/39 89/85/39
f 90/83/40 93/80/40 92/86/40
f 92/86/40 93/80/40 95/82/40
f 93/79/4 94/80/4 95/81/4
f 95/81/4 94/80/4 96/82/4
f 96/83/41 91/80/41 95/84/41
f 95/84/41 91/80/41 92/85/41
f 94/83/42 89/80/42 96/86/42
f 96/86/42 89/80/42 91/82/42
usemtl c_562424
f 97/87/13 98/88/13 99/89/13
f 99/89/13 98/88/13 100/90/13
f 101/91/14 98/88/14 102/92/14
f 102/92/14 98/88/14 97/93/14
f 98/91/15 101/88/15 100/94/15
f 100/94/15 101/88/15 103/90/15
f 101/87/16 102/88/16 103/89/16
f 103/89/16 102/88/16 104/90/16
f 104/91/17 99/88/17 103/92/17
f 103/92/17 99/88/17 100/93/17
f 102/91/18 97/88/18 104/94/18
f 104/94/18 97/88/18 99/90/18
usemtl c_1b2a35
f 105/95/7 106/96/7 107/97/7
f 107/97/7 106/96/7 108/98/7
f 109/99/43 106/96/43 110/100/43
f 110/100/43 106/96/43 105/101/43
f 106/99/44 109/96/44 108/102/44
f 108/102/44 109/96/44 111/98/44
f 109/95/10 110/96/10 111/97/10
f 111/97/10 110/96/10 112/98/10
f 112/99/45 107/96/45 111/100/45
f 111/100/45 107/96/45 108/101/45
f 110/99/46 105/96/46 112/102/46
f 112/102/46 105/96/46 107/98/46
f 113/103/1 114/104/1 115/105/1
f 115/105/1 114/104/1 116/106/1
f 117/107/47 114/104/47 118/108/47
f 118/108/47 114/104/47 113/109/47
f 114/107/48 117/104/48 116/110/48
f 116/110/48 117/104/48 119/106/48
f 117/103/4 118/104/4 119/105/4
f 119/105/4 118/104/4 120/106/4
f 120/107/49 115/104/49 119/108/49
f 119/108/49 115/104/49 116/109/49
f 118/107/50 113/104/50 120/110/50
f 120/110/50 113/104/50 115/106/50
f 121/111/13 122/112/13 123/113/13
f 123/113/13 122/112/13 124/114/13
f 125/115/14 122/112/14 126/116/14
f 126/116/14 122/112/14 121/114/14
f 122/115/15 125/112/15 124/116/15
f 124/116/15 125/112/15 127/114/15
f 125/111/16 126/112/16 127/113/16
f 127/113/16 126/112/16 128/114/16
f 128/115/17 123/112/17 127/116/17
f 127/116/17 123/112/17 124/114/17
f 126/115/18 121/112/18 128/116/18
f 128/116/18 121/112/18 123/114/18
f 129/117/13 130/118/13 131/119/13
f 131/119/13 130/118/13 132/120/13
f 133/121/51 130/118/51 134/122/51
f 134/122/51 130/118/51 129/123/51
f 130/121/52 133/118/52 132/124/52
f 132/124/52 133/118/52 135/120/52
f 133/117/16 134/118/16 135/119/16
f 135/119/16 134/118/16 136/120/16
f 136/121/53 131/118/53 135/122/53
f 135/122/53 131/118/53 132/123/53
f 134/121/54 129/118/54 136/124/54
f 136/124/54 129/118/54 131/120/54
usemtl c_ffffcc
f 137/125/13 138/126/13 139/127/13
f 139/127/13 138/126/13 140/128/13
f 58/129/14 138/126/14 57/130/14
f 57/130/14 138/126/14 137/128/14
f 138/129/15 58/126/15 140/130/15
f 140/130/15 58/126/15 60/128/15
f 58/125/16 57/126/16 60/127/16
f 60/127/16 57/126/16 59/128/16
f 59/129/17 139/126/17 60/130/17
f 60/130/17 139/126/17 140/128/17
f 57/129/18 137/126/18 59/130/18
f 59/130/18 137/126/18 139/128/18
f 78/131/13 77/132/13 80/133/13
f 80/133/13 77/132/13 79/134/13
f 141/135/14 77/132/14 142/136/14
f 142/136/14 77/132/14 78/134/14
f 77/135/15 141/132/15 79/136/15
f 79/136/15 141/132/15 143/134/15
f 141/131/16 142/132/16 143/133/16
f 143/133/16 142/132/16 144/134/16
f 144/135/17 80/132/17 143/136/17
f 143/136/17 80/132/17 79/134/17
f 142/135/18 78/132/18 144/136/18
f 144/136/18 78/132/18 80/134/18
o Head_decal1
usemtl head_decal1
f 145/137/13 146/138/13 147/139/13
f 147/139/13 146/138/13 148/140/13
o Head_decal2
usemtl head_decal2
f 149/137/16 150/138/16 151/139/16
f 151/139/16 150/138/16 152/140/16
o LeftUpperLeg
usemtl c_be6862
f 153/141/55 154/142/55 155/143/55
f 155/143/55 154/142/55 156/144/55
f 157/145/56 154/142/56 158/146/56
f 158/146/56 154/142/56 153/147/56
f 154/145/57 157/142/57 156/148/57
f 156/148/57 157/142/57 159/144/57
f 157/141/58 158/142/58 159/143/58
f 159/143/58 158/142/58 160/144/58
f 160/145/59 155/142/59 159/146/59
f 159/146/59 155/142/59 156/147/59
f 158/145/60 153/142/60 160/148/60
f 160/148/60 153/142/60 155/144/60
f 161/149/61 162/150/61 163/151/61
f 163/151/61 162/150/61 164/152/61
f 165/153/56 162/150/56 166/154/56
f 166/154/56 162/150/56 161/155/56
f 162/153/62 165/150/62 164/156/62
f 164/156/62 165/150/62 167/152/62
f 165/149/63 166/150/63 167/151/63
f 167/151/63 166/150/63 168/152/63
f 168/153/59 163/150/59 167/154/59
f 167/154/59 163/150/59 164/155/59
f 166/153/64 161/150/64 168/156/64
f 168/156/64 161/150/64 163/152/64
f 169/157/61 170/158/61 171/159/61
f 171/159/61 170/158/61 172/160/61
f 173/161/56 170/158/56 174/162/56
f 174/162/56 170/158/56 169/163/56
f 170/161/62 173/158/62 172/164/62
f 172/164/62 173/158/62 175/160/62
f 173/157/63 174/158/63 175/159/63
f 175/159/63 174/158/63 176/160/63
f 176/161/59 171/158/59 175/162/59
f 175/162/59 171/158/59 172/163/59
f 174/161/64 169/158/64 176/164/64
f 176/164/64 169/158/64 171/160/64
o RightUpperArm
usemtl c_be6862
f 177/165/65 178/166/65 179/167/65
f 179/167/65 178/166/65 180/168/65
f 181/169/66 178/166/66 182/170/66
f 182/170/66 178/166/66 177/171/66
f 178/169/67 181/166/67 180/172/67
f 180/172/67 181/166/67 183/168/67
f 181/165/68 182/166/68 183/167/68
f 183/167/68 182/166/68 184/168/68
f 184/169/69 179/166/69 183/170/69
f 183/170/69 179/166/69 180/171/69
f 182/169/70 177/166/70 184/172/70
f 184/172/70 177/166/70 179/168/70
f 185/173/65 186/174/65 187/175/65
f 187/175/65 186/174/65 188/176/65
f 189/177/66 186/174/66 190/178/66
f 190/178/66 186/174/66 185/179/66
f 186/177/67 189/174/67 188/180/67
f 188/180/67 189/174/67 191/176/67
f 189/173/68 190/174/68 191/175/68
f 191/175/68 190/174/68 192/176/68
f 192/177/69 187/174/69 191/178/69
f 191/178/69 187/174/69 188/179/69
f 190/177/70 185/174/70 192/180/70
f 192/180/70 185/174/70 187/176/70
f 193/181/65 194/182/65 195/183/65
f 195/183/65 194/182/65 196/184/65
f 197/185/66 194/182/66 198/186/66
f 198/186/66 194/182/66 193/187/66
f 194/185/67 197/182/67 196/188/67
f 196/188/67 197/182/67 199/184/67
f 197/181/68 198/182/68 199/183/68
f 199/183/68 198/182/68 200/184/68
f 200/185/69 195/182/69 199/186/69
f 199/186/69 195/182/69 196/187/69
f 198/185/70 193/182/70 200/188/70
f 200/188/70 193/182/70 195/184/70
f 201/189/65 202/190/65 203/191/65
f 203/191/65 202/190/65 204/192/65
f 205/193/66 202/190/66 206/194/66
f 206/194/66 202/190/66 201/195/66
f 202/193/67 205/190/67 204/196/67
f 204/196/67 205/190/67 207/192/67
f 205/189/68 206/190/68 207/191/68
f 207/191/68 206/190/68 208/192/68
f 208/193/69 203/190/69 207/194/69
f 207/194/69 203/190/69 204/195/69
f 206/193/70 201/190/70 208/196/70
f 208/196/70 201/190/70 203/192/70
o LeftUpperArm
usemtl c_be6862
f 209/197/71 210/198/71 211/199/71
f 211/199/71 210/198/71 212/200/71
f 213/201/72 210/198/72 214/202/72
f 214/202/72 210/198/72 209/203/72
f 210/201/73 213/198/73 212/204/73
f 212/204/73 213/198/73 215/200/73
f 213/197/74 214/198/74 215/199/74
f 215/199/74 214/198/74 216/200/74
f 216/201/75 211/198/75 215/202/75
f 215/202/75 211/198/75 212/203/75
f 214/201/76 209/198/76 216/204/76
f 216/204/76 209/198/76 211/200/76
f 217/205/71 218/206/71 219/207/71
f 219/207/71 218/206/71 220/208/71
f 221/209/72 218/206/72 222/210/72
f 222/210/72 218/206/72 217/211/72
f 218/209/73 221/206/73 220/212/73
f 220/212/73 221/206/73 223/208/73
f 221/205/74 222/206/74 223/207/74
f 223/207/74 222/206/74 224/208/74
f 224/209/75 219/206/75 223/210/75
f 223/210/75 219/206/75 220/211/75
f 222/209/76 217/206/76 224/212/76
f 224/212/76 217/206/76 219/208/76
f 225/213/71 226/214/71 227/215/71
f 227/215/71 226/214/71 228/216/71
f 229/217/72 226/214/72 230/218/72
f 230/218/72 226/214/72 225/219/72
f 226/217/73 229/214/73 228/220/73
f 228/220/73 229/214/73 231/216/73
f 229/213/74 230/214/74 231/215/74
f 231/215/74 230/214/74 232/216/74
f 232/217/75 227/214/75 231/218/75
f 231/218/75 227/214/75 228/219/75
f 230/217/76 225/214/76 232/220/76
f 232/220/76 225/214/76 227/216/76
f 233/221/71 234/140/71 235/222/71
f 235/222/71 234/140/71 236/223/71
f 237/224/72 234/140/72 238/225/72
f 238/225/72 234/140/72 233/226/72
f 234/224/73 237/140/73 236/227/73
f 236/227/73 237/140/73 239/223/73
f 237/221/74 238/140/74 239/222/74
f 239/222/74 238/140/74 240/223/74
f 240/224/75 235/140/75 239/225/75
f 239/225/75 235/140/75 236/226/75
f 238/224/76 233/140/76 240/227/76
f 240/227/76 233/140/76 235/223/76
o UpperTorso
usemtl c_883e3e
f 241/228/77 242/229/77 243/230/77
f 243/230/77 242/229/77 244/231/77
f 245/232/72 242/229/72 246/233/72
f 246/233/72 242/229/72 241/234/72
f 242/232/78 245/229/78 244/235/78
f 244/235/78 245/229/78 247/231/78
f 245/228/79 246/229/79 247/230/79
f 247/230/79 246/229/79 248/231/79
f 248/232/75 243/229/75 247/233/75
f 247/233/75 243/229/75 244/234/75
f 246/232/80 241/229/80 248/235/80
f 248/235/80 241/229/80 243/231/80
f 249/236/81 250/237/81 251/238/81
f 251/238/81 250/237/81 252/239/81
f 253/240/66 250/237/66 254/241/66
f 254/241/66 250/237/66 249/242/66
f 250/240/82 253/237/82 252/243/82
f 252/243/82 253/237/82 255/239/82
f 253/236/83 254/237/83 255/238/83
f 255/238/83 254/237/83 256/239/83
f 256/240/69 251/237/69 255/241/69
f 255/241/69 251/237/69 252/242/69
f 254/240/84 249/237/84 256/243/84
f 256/243/84 249/237/84 251/239/84
usemtl c_1b2a35
f 257/244/13 258/245/13 259/246/13
f 259/246/13 258/245/13 260/247/13
f 261/248/85 258/245/85 262/249/85
f 262/249/85 258/245/85 257/250/85
f 258/248/86 261/245/86 260/251/86
f 260/251/86 261/245/86 263/247/86
f 261/244/16 262/245/16 263/246/16
f 263/246/16 262/245/16 264/247/16
f 264/248/87 259/245/87 263/249/87
f 263/249/87 259/245/87 260/250/87
f 262/248/88 257/245/88 264/251/88
f 264/251/88 257/245/88 259/247/88
usemtl c_ffc9c9
f 265/252/13 266/253/13 267/254/13
f 267/254/13 266/253/13 268/255/13
f 269/256/85 266/253/85 270/257/85
f 270/257/85 266/253/85 265/258/85
f 266/256/86 269/253/86 268/259/86
f 268/259/86 269/253/86 271/255/86
f 269/252/16 270/253/16 271/254/16
f 271/254/16 270/253/16 272/255/16
f 272/256/87 267/253/87 271/257/87
f 271/257/87 267/253/87 268/258/87
f 270/256/88 265/253/88 272/259/88
f 272/259/88 265/253/88 267/255/88
usemtl c_562424
f 273/260/13 274/261/13 275/262/13
f 275/262/13 274/261/13 276/263/13
f 277/264/85 274/261/85 278/265/85
f 278/265/85 274/261/85 273/266/85
f 274/264/86 277/261/86 276/267/86
f 276/267/86 277/261/86 279/263/86
f 277/260/16 278/261/16 279/262/16
f 279/262/16 278/261/16 280/263/16
f 280/264/87 275/261/87 279/265/87
f 279/265/87 275/261/87 276/266/87
f 278/264/88 273/261/88 280/267/88
f 280/267/88 273/261/88 275/263/88
o RightUpperLeg
usemtl c_be6862
f 281/268/89 282/269/89 283/270/89
f 283/270/89 282/269/89 284/271/89
f 285/272/90 282/269/90 286/273/90
f 286/273/90 282/269/90 281/274/90
f 282/272/91 285/269/91 284/275/91
f 284/275/91 285/269/91 287/271/91
f 285/268/92 286/269/92 287/270/92
f 287/270/92 286/269/92 288/271/92
f 288/272/93 283/269/93 287/273/93
f 287/273/93 283/269/93 284/274/93
f 286/272/94 281/269/94 288/275/94
f 288/275/94 281/269/94 283/271/94
f 289/276/95 290/277/95 291/278/95
f 291/278/95 290/277/95 292/279/95
f 293/280/90 290/277/90 294/281/90
f 294/281/90 290/277/90 289/282/90
f 290/280/96 293/277/96 292/283/96
f 292/283/96 293/277/96 295/279/96
f 293/276/97 294/277/97 295/278/97
f 295/278/97 294/277/97 296/279/97
f 296/280/93 291/277/93 295/281/93
f 295/281/93 291/277/93 292/282/93
f 294/280/98 289/277/98 296/283/98
f 296/283/98 289/277/98 291/279/98
f 297/284/89 298/285/89 299/286/89
f 299/286/89 298/285/89 300/287/89
f 301/288/90 298/285/90 302/289/90
f 302/289/90 298/285/90 297/290/90
f 298/288/91 301/285/91 300/291/91
f 300/291/91 301/285/91 303/287/91
f 301/284/92 302/285/92 303/286/92
f 303/286/92 302/285/92 304/287/92
f 304/288/93 299/285/93 303/289/93
f 303/289/93 299/285/93 300/290/93
f 302/288/94 297/285/94 304/291/94
f 304/291/94 297/285/94 299/287/94
o LowerTorso
usemtl c_883e3e
f 305/292/77 306/293/77 307/294/77
f 307/294/77 306/293/77 308/295/77
f 309/296/56 306/293/56 310/297/56
f 310/297/56 306/293/56 305/298/56
f 306/296/52 309/293/52 308/299/52
f 308/299/52 309/293/52 311/295/52
f 309/292/79 310/293/79 311/294/79
f 311/294/79 310/293/79 312/295/79
f 312/296/59 307/293/59 311/297/59
f 311/297/59 307/293/59 308/298/59
f 310/296/54 305/293/54 312/299/54
f 312/299/54 305/293/54 307/295/54
f 313/300/81 314/244/81 315/301/81
f 315/301/81 314/244/81 316/302/81
f 317/303/90 314/244/90 318/304/90
f 318/304/90 314/244/90 313/305/90
f 314/303/52 317/244/52 316/306/52
f 316/306/52 317/244/52 319/302/52
f 317/300/83 318/244/83 319/301/83
f 319/301/83 318/244/83 320/302/83
f 320/303/93 315/244/93 319/304/93
f 319/304/93 315/244/93 316/305/93
f 318/303/54 313/244/54 320/306/54
f 320/306/54 313/244/54 315/302/54
usemtl c_562424
f 321/307/13 322/308/13 323/309/13
f 323/309/13 322/308/13 324/310/13
f 325/311/51 322/308/51 326/312/51
f 326/312/51 322/308/51 321/313/51
f 322/311/52 325/308/52 324/314/52
f 324/314/52 325/308/52 327/310/52
f 325/307/16 326/308/16 327/309/16
f 327/309/16 326/308/16 328/310/16
f 328/311/53 323/308/53 327/312/53
f 327/312/53 323/308/53 324/313/53
f 326/311/54 321/308/54 328/314/54
f 328/314/54 321/308/54 323/310/54
usemtl c_1b2a35
f 329/315/13 330/316/13 331/317/13
f 331/317/13 330/316/13 332/318/13
f 333/319/51 330/316/51 334/320/51
f 334/320/51 330/316/51 329/321/51
f 330/319/52 333/316/52 332/322/52
f 332/322/52 333/316/52 335/318/52
f 333/315/16 334/316/16 335/317/16
f 335/317/16 334/316/16 336/318/16
f 336/319/53 331/316/53 335/320/53
f 335/320/53 331/316/53 332/321/53
f 334/319/54 329/316/54 336/322/54
f 336/322/54 329/316/54 331/318/54
usemtl c_ffc9c9
f 337/323/13 338/324/13 339/325/13
f 339/325/13 338/324/13 340/326/13
f 341/327/51 338/324/51 342/328/51
f 342/328/51 338/324/51 337/329/51
f 338/327/52 341/324/52 340/330/52
f 340/330/52 341/324/52 343/326/52
f 341/323/16 342/324/16 343/325/16
f 343/325/16 342/324/16 344/326/16
f 344/327/53 339/324/53 343/328/53
f 343/328/53 339/324/53 340/329/53
f 342/327/54 337/324/54 344/330/54
f 344/330/54 337/324/54 339/326/54
o Tail
usemtl c_1b2a35
f 345/331/99 346/332/99 347/333/99
f 347/333/99 346/332/99 348/334/99
f 349/335/100 346/332/100 350/336/100
f 350/336/100 346/332/100 345/337/100
f 346/335/101 349/332/101 348/338/101
f 348/338/101 349/332/101 351/334/101
f 349/331/102 350/332/102 351/333/102
f 351/333/102 350/332/102 352/334/102
f 352/335/103 347/332/103 351/336/103
f 351/336/103 347/332/103 348/337/103
f 350/335/104 345/332/104 352/338/104
f 352/338/104 345/332/104 347/334/104
f 353/339/13 354/340/13 355/341/13
f 355/341/13 354/340/13 356/342/13
f 357/343/105 354/340/105 358/344/105
f 358/344/105 354/340/105 353/345/105
f 354/343/106 357/340/106 356/346/106
f 356/346/106 357/340/106 359/342/106
f 357/339/16 358/340/16 359/341/16
f 359/341/16 358/340/16 360/342/16
f 360/343/107 355/340/107 359/344/107
f 359/344/107 355/340/107 356/345/107
f 358/343/108 353/340/108 360/346/108
f 360/346/108 353/340/108 355/342/108
f 361/347/109 362/348/109 363/349/109
f 363/349/109 362/348/109 364/350/109
f 365/351/100 362/348/100 366/352/100
f 366/352/100 362/348/100 361/353/100
f 362/351/110 365/348/110 364/354/110
f 364/354/110 365/348/110 367/350/110
f 365/347/111 366/348/111 367/349/111
f 367/349/111 366/348/111 368/350/111
f 368/351/103 363/348/103 367/352/103
f 367/352/103 363/348/103 364/353/103
f 366/351/112 361/348/112 368/354/112
f 368/354/112 361/348/112 363/350/112
usemtl c_be6862
f 369/355/113 370/356/113 371/357/113
f 371/357/113 370/356/113 372/358/113
f 373/359/100 370/356/100 374/360/100
f 374/360/100 370/356/100 369/361/100
f 370/359/114 373/356/114 372/362/114
f 372/362/114 373/356/114 375/358/114
f 373/355/115 374/356/115 375/357/115
f 375/357/115 374/356/115 376/358/115
f 376/359/103 371/356/103 375/360/103
f 375/360/103 371/356/103 372/361/103
f 374/359/116 369/356/116 376/362/116
f 376/362/116 369/356/116 371/358/116
f 377/363/117 378/364/117 379/365/117
f 379/365/117 378/364/117 380/366/117
f 381/367/100 378/364/100 382/368/100
f 382/368/100 378/364/100 377/369/100
f 378/367/118 381/364/118 380/370/118
f 380/370/118 381/364/118 383/366/118
f 381/363/119 382/364/119 383/365/119
f 383/365/119 382/364/119 384/366/119
f 384/367/103 379/364/103 383/368/103
f 383/368/103 379/364/103 380/369/103
f 382/367/120 377/364/120 384/370/120
f 384/370/120 377/364/120 379/366/120
f 385/371/121 386/372/121 387/373/121
f 387/373/121 386/372/121 388/374/121
f 389/375/100 386/372/100 390/376/100
f 390/376/100 386/372/100 385/377/100
f 386/375/122 389/372/122 388/378/122
f 388/378/122 389/372/122 391/374/122
f 389/371/123 390/372/123 391/373/123
f 391/373/123 390/372/123 392/374/123
f 392/375/103 387/372/103 391/376/103
f 391/376/103 387/372/103 388/377/103
f 390/375/124 385/372/124 392/378/124
f 392/378/124 385/372/124 387/374/124
f 393/379/114 394/380/114 395/381/114
f 395/381/114 394/380/114 396/382/114
f 397/383/100 394/380/100 398/384/100
f 398/384/100 394/380/100 393/385/100
f 394/383/115 397/380/115 396/386/115
f 396/386/115 397/380/115 399/382/115
f 397/379/116 398/380/116 399/381/116
f 399/381/116 398/380/116 400/382/116
f 400/383/103 395/380/103 399/384/103
f 399/384/103 395/380/103 396/385/103
f 398/383/113 393/380/113 400/386/113
f 400/386/113 393/380/113 395/382/113
f 401/387/122 402/388/122 403/389/122
f 403/389/122 402/388/122 404/390/122
f 405/391/100 402/388/100 406/392/100
f 406/392/100 402/388/100 401/393/100
f 402/391/123 405/388/123 404/394/123
f 404/394/123 405/388/123 407/390/123
f 405/387/124 406/388/124 407/389/124
f 407/389/124 406/388/124 408/390/124
f 408/391/103 403/388/103 407/392/103
f 407/392/103 403/388/103 404/393/103
f 406/391/121 401/388/121 408/394/121
f 408/394/121 401/388/121 403/390/121
f 409/395/118 410/396/118 411/397/118
f 411/397/118 410/396/118 412/398/118
f 413/399/100 410/396/100 414/400/100
f 414/400/100 410/396/100 409/401/100
f 410/399/119 413/396/119 412/402/119
f 412/402/119 413/396/119 415/398/119
f 413/395/120 414/396/120 415/397/120
f 415/397/120 414/396/120 416/398/120
f 416/399/103 411/396/103 415/400/103
f 415/400/103 411/396/103 412/401/103
f 414/399/117 409/396/117 416/402/117
f 416/402/117 409/396/117 411/398/117
usemtl c_ffc9c9
f 417/403/13 418/404/13 419/405/13
f 419/405/13 418/404/13 420/406/13
f 421/407/105 418/404/105 422/408/105
f 422/408/105 418/404/105 417/409/105
f 418/407/106 421/404/106 420/410/106
f 420/410/106 421/404/106 423/406/106
f 421/403/16 422/404/16 423/405/16
f 423/405/16 422/404/16 424/406/16
f 424/407/107 419/404/107 423/408/107
f 423/408/107 419/404/107 420/409/107
f 422/407/108 417/404/108 424/410/108
f 424/410/108 417/404/108 419/406/108
usemtl c_883e3e
f 425/411/13 426/412/13 427/413/13
f 427/413/13 426/412/13 428/414/13
f 429/415/105 426/412/105 430/416/105
f 430/416/105 426/412/105 425/417/105
f 426/415/106 429/412/106 428/418/106
f 428/418/106 429/412/106 431/414/106
f 429/411/16 430/412/16 431/413/16
f 431/413/16 430/412/16 432/414/16
f 432/415/107 427/412/107 431/416/107
f 431/416/107 427/412/107 428/417/107
f 430/415/108 425/412/108 432/418/108
f 432/418/108 425/412/108 427/414/108
usemtl c_562424
f 433/419/13 434/420/13 435/421/13
f 435/421/13 434/420/13 436/422/13
f 437/423/105 434/420/105 438/424/105
f 438/424/105 434/420/105 433/425/105
f 434/423/106 437/420/106 436/426/106
f 436/426/106 437/420/106 439/422/106
f 437/419/16 438/420/16 439/421/16
f 439/421/16 438/420/16 440/422/16
f 440/423/107 435/420/107 439/424/107
f 439/424/107 435/420/107 436/425/107
f 438/423/108 433/420/108 440/426/108
f 440/426/108 433/420/108 435/422/108
