# Roblox asset pack: egg_fennec_fox (props), from the Studio model "Eggs/FennecFoxEgg". Exported with Export Selection, split by tools/build_creatures.py: one object per rigid body. Units: studs. +Y up, front faces -Z, pivot (bottom centre) at the origin.
mtllib egg_fennec_fox.mtl

v -1.47367 6.64000 2.25000
v -1.52433 5.08000 2.21000
v -1.52433 6.64000 2.25000
v -1.47367 5.08000 2.21000
v -1.52433 7.80000 3.65000
v -1.47367 7.80000 3.65000
v -1.52433 7.80000 3.88000
v -1.47367 7.80000 3.88000
v -1.47367 5.83000 3.88000
v -1.47367 5.08000 2.97000
v -1.52433 5.83000 3.88000
v -1.52433 5.08000 2.97000
v -1.52432 5.83000 -3.88000
v -1.52432 7.80000 -3.88000
v -1.47365 7.80000 -3.88000
v -1.47365 5.83000 -3.88000
v -1.47365 6.64000 -2.25000
v -1.52432 7.80000 -3.65000
v -1.52432 6.64000 -2.25000
v -1.47365 7.80000 -3.65000
v -1.47365 5.08000 -2.97000
v -1.47365 5.08000 -2.21000
v -1.52432 5.08000 -2.21000
v -1.52432 5.08000 -2.97000
v -1.88658 4.16000 1.45000
v -1.88658 6.91000 1.45000
v -1.22942 6.91000 1.45000
v -1.22942 4.16000 1.45000
v -1.22942 4.26000 3.06000
v -1.71770 4.26000 3.06000
v -1.71770 4.29000 3.04000
v -1.22942 4.29000 3.04000
v -1.22942 6.64000 2.25000
v -1.22942 5.08000 2.21000
v -1.28008 6.64000 2.25000
v -1.28008 5.08000 2.21000
v -1.22942 8.37000 3.32000
v -1.88658 8.37000 3.32000
v -1.88659 8.39000 3.32000
v -1.22942 8.39000 3.32000
v -1.71770 5.83000 3.88000
v -1.71770 7.80000 3.88000
v -1.22942 7.80000 3.88000
v -1.22942 5.83000 3.88000
v -1.22942 8.39000 4.47000
v -1.88659 8.39000 4.47000
v -1.22942 8.38000 3.31000
v -1.88658 6.91000 1.55000
v -1.88658 8.38000 3.31000
v -1.22942 6.91000 1.55000
v -1.28008 7.80000 3.65000
v -1.22942 7.80000 3.65000
v -1.28008 7.80000 3.88000
v -1.22942 5.08000 2.97000
v -1.71770 5.08000 2.97000
v -1.22942 5.08000 2.25000
v -1.71770 5.08000 2.25000
v -1.22942 7.87000 3.73000
v -1.22942 8.01000 3.88000
v -1.22942 8.01000 4.47000
v -1.22942 6.91000 2.25000
v -1.22942 5.47000 4.47000
v -1.22942 5.98000 4.05000
v -1.22942 5.44000 4.49000
v -1.22942 4.79000 2.62000
v -1.22942 4.29000 2.25000
v -1.22942 4.29000 2.21000
v -1.22942 4.16000 2.25000
v -1.88659 7.80000 4.47000
v -1.71770 7.80000 4.47000
v -1.71770 5.47000 4.47000
v -1.71770 8.01000 4.47000
v -1.28008 5.83000 3.88000
v -1.71770 5.44000 4.49000
v -1.88658 6.64000 2.25000
v -1.88658 4.16000 2.25000
v -1.71770 4.29000 2.25000
v -1.28008 5.08000 2.97000
v -1.88658 7.80000 3.65000
v -1.88658 7.80000 3.32000
v -1.88658 6.91000 2.25000
v -1.71770 5.98000 4.05000
v -1.71770 4.79000 2.62000
v -1.22937 8.37000 -3.32000
v -1.88653 8.38000 -3.31000
v -1.22937 8.38000 -3.31000
v -1.88653 8.37000 -3.32000
v -1.71765 7.80000 -4.47000
v -1.88654 7.80000 -4.47000
v -1.88654 8.39000 -4.47000
v -1.22937 5.47000 -4.47000
v -1.71765 5.47000 -4.47000
v -1.22937 8.39000 -4.47000
v -1.71765 8.01000 -4.47000
v -1.22937 8.01000 -4.47000
v -1.28003 5.83000 -3.88000
v -1.28003 7.80000 -3.88000
v -1.22937 7.80000 -3.88000
v -1.22937 5.83000 -3.88000
v -1.71765 5.44000 -4.49000
v -1.22937 5.44000 -4.49000
v -1.71765 5.08000 -2.25000
v -1.22937 6.64000 -2.25000
v -1.22937 5.08000 -2.25000
v -1.88653 6.64000 -2.25000
v -1.88653 4.16000 -2.25000
v -1.71765 4.29000 -2.25000
v -1.22937 4.16000 -2.25000
v -1.22937 4.29000 -2.25000
v -1.88654 8.39000 -3.32000
v -1.22937 8.39000 -3.32000
v -1.88653 6.91000 -1.55000
v -1.22937 6.91000 -1.55000
v -1.22937 7.80000 -3.65000
v -1.28003 7.80000 -3.65000
v -1.28003 6.64000 -2.25000
v -1.22937 6.91000 -1.45000
v -1.88653 6.91000 -1.45000
v -1.22937 5.08000 -2.97000
v -1.71765 5.83000 -3.88000
v -1.71765 5.08000 -2.97000
v -1.22937 7.87000 -3.73000
v -1.22937 8.01000 -3.88000
v -1.22937 6.91000 -2.25000
v -1.22937 4.16000 -1.45000
v -1.22937 5.08000 -2.21000
v -1.22937 4.29000 -2.21000
v -1.22937 4.29000 -3.04000
v -1.22937 4.79000 -2.62000
v -1.22937 5.98000 -4.05000
v -1.22937 4.26000 -3.06000
v -1.88653 4.16000 -1.45000
v -1.71765 4.26000 -3.06000
v -1.71765 4.29000 -3.04000
v -1.28003 5.08000 -2.21000
v -1.71765 7.80000 -3.88000
v -1.28003 5.08000 -2.97000
v -1.88653 7.80000 -3.65000
v -1.88653 7.80000 -3.32000
v -1.88653 6.91000 -2.25000
v -1.71765 5.98000 -4.05000
v -1.71765 4.79000 -2.62000
v 1.14724 6.01000 2.03000
v -3.24360 4.97000 2.03000
v -3.24360 6.01000 2.03000
v 1.14724 4.97000 2.03000
v 1.14724 4.97000 -2.26000
v -3.24360 4.97000 -2.26000
v -3.24360 6.01000 -2.26000
v 1.14724 6.01000 -2.26000
v -3.10580 5.87000 -2.17000
v 1.00944 5.87000 -2.17000
v -3.10580 5.05000 -2.17000
v 1.00944 5.05000 -2.17000
v 1.00944 5.87000 1.94000
v -3.10580 5.87000 1.94000
v 1.00944 5.05000 1.94000
v -3.10580 5.05000 1.94000
v 3.89714 3.11000 1.15000
v 2.12791 2.61000 1.15000
v 2.76195 1.97000 1.15000
v 3.26309 3.74000 1.15000
v 2.76195 1.97000 1.02000
v 3.36653 1.37000 1.02000
v 4.50171 2.51000 1.02000
v 3.89714 3.11000 1.02000
v 3.26309 3.74000 0.88000
v 2.08137 2.93000 0.88000
v 2.26738 2.75000 0.88000
v 3.07708 3.93000 0.88000
v 3.16185 1.57000 0.82000
v 1.54154 2.32000 0.82000
v 2.11506 1.09000 0.82000
v 2.76195 1.97000 0.82000
v 2.14068 2.60000 0.82000
v 2.08137 2.93000 0.69000
v 3.40257 4.26000 0.69000
v 2.03490 2.98000 0.69000
v 3.35610 4.30000 0.69000
v 0.90024 0.99000 0.69000
v 2.06210 1.20000 0.69000
v 1.58340 2.23000 0.69000
v 0.71023 2.07000 0.69000
v 3.89714 3.11000 -1.15000
v 3.89714 3.11000 -1.02000
v 4.50171 2.51000 -1.02000
v 3.07708 3.93000 -0.89000
v 2.08137 2.93000 -0.89000
v 3.26309 3.74000 -1.15000
v 2.26738 2.75000 -0.89000
v 3.26309 3.74000 -0.89000
v 1.54154 2.32000 -0.82000
v 2.14068 2.60000 -0.82000
v 1.58340 2.23000 -0.69000
v 0.71023 2.07000 -0.69000
v 0.90024 0.99000 -0.69000
v 2.11506 1.09000 -0.82000
v 2.06210 1.20000 -0.69000
v 3.35610 4.30000 0.03000
v 2.03490 2.98000 0.03000
v 2.12791 2.61000 -1.15000
v 2.76195 1.97000 -1.02000
v 2.76195 1.97000 -1.15000
v 3.16185 1.57000 -0.82000
v 2.76195 1.97000 -0.82000
v 2.08137 2.93000 0.03000
v 3.36653 1.37000 -1.02000
v 3.40257 4.26000 0.03000
v -5.00800 3.74000 -0.63000
v -3.14800 3.74000 -0.63000
v -5.00800 3.36000 -0.63000
v -3.14800 3.36000 -0.63000
v -3.14800 3.74000 0.64000
v -5.00800 3.74000 0.64000
v -3.14800 3.36000 0.64000
v -5.00800 3.36000 0.64000
v -3.51740 5.05000 -2.58000
v 1.42096 5.05000 -2.58000
v -3.51740 1.76000 -2.58000
v 1.42096 1.76000 -2.58000
v 1.42096 5.05000 2.35000
v -3.51740 5.05000 2.35000
v 1.42096 1.76000 2.35000
v -3.51740 1.76000 2.35000
v 3.26310 3.74000 1.15000
v 5.03234 4.24000 1.15000
v 4.39829 4.88000 1.15000
v 3.89715 3.11000 1.15000
v 4.50172 2.50000 1.02000
v 5.33878 3.34000 1.02000
v 3.89715 3.11000 1.02000
v 4.73420 3.95000 1.02000
v 3.07709 3.93000 0.88000
v 4.25875 4.74000 0.88000
v 4.07273 4.93000 0.88000
v 3.26310 3.74000 0.88000
v 5.35789 4.66000 0.23000
v 4.44483 4.83000 0.23000
v 4.98587 4.29000 0.23000
v 4.81686 5.20000 0.23000
v 4.25875 4.74000 -0.89000
v 4.39829 4.88000 -1.15000
v 4.07273 4.93000 -0.89000
v 5.33878 3.34000 -1.02000
v 4.73420 3.95000 -1.02000
v 3.89715 3.11000 -1.15000
v 3.26310 3.74000 -1.15000
v 3.26310 3.74000 -0.89000
v 3.07709 3.93000 -0.89000
v 4.81686 5.20000 -0.69000
v 4.44483 4.83000 -0.69000
v 3.89715 3.11000 -1.02000
v 4.98587 4.29000 -0.69000
v 5.03234 4.24000 -1.15000
v 4.50172 2.50000 -1.02000
v 5.35789 4.66000 -0.69000
v -3.79620 3.37000 2.91000
v -2.63155 2.51000 2.91000
v -2.63155 3.37000 2.91000
v -3.79620 2.51000 2.91000
v -2.63155 3.37000 2.51000
v -2.63155 2.51000 2.51000
v -1.78136 3.53000 2.51000
v -1.78136 2.17000 2.51000
v -3.95380 3.53000 2.51000
v -3.95380 2.17000 2.51000
v -3.79620 3.37000 2.51000
v -3.79620 2.51000 2.51000
v -3.79620 3.53000 2.04000
v -2.78916 3.53000 2.04000
v -3.79620 4.33000 2.04000
v -2.78916 4.33000 2.04000
v -3.87500 4.36000 1.77000
v -2.78916 4.36000 1.77000
v -3.87500 4.82000 1.69000
v -2.78916 4.82000 1.69000
v 0.44089 1.69000 1.57000
v -1.78136 2.62000 1.57000
v -1.78136 2.17000 1.57000
v 0.44089 2.62000 1.57000
v -3.63880 1.69000 1.57000
v -3.63880 2.17000 1.57000
v -5.00790 2.64000 0.64000
v -3.95380 3.37000 0.64000
v -5.00790 3.37000 0.64000
v -3.95380 2.64000 0.64000
v -4.82150 2.28000 0.54000
v -3.95380 2.28000 0.54000
v -3.95380 2.64000 0.54000
v -4.82150 2.64000 0.54000
v -3.87500 4.60000 -0.38000
v -2.78916 4.14000 -0.46000
v -2.78916 4.60000 -0.38000
v -3.87500 4.14000 -0.46000
v -3.79620 4.30000 -1.35000
v -2.78916 3.53000 -1.35000
v -2.78916 4.30000 -1.35000
v -3.79620 3.53000 -1.35000
v -2.78916 4.82000 -1.66000
v -3.87500 4.82000 -1.66000
v -3.87500 4.60000 0.42000
v -2.78916 4.60000 0.42000
v -3.79620 4.33000 1.55000
v -2.78916 4.33000 1.55000
v -3.79620 4.33000 -2.09000
v -3.79620 4.33000 -1.52000
v -2.78916 4.33000 -1.52000
v -2.78916 4.33000 -2.09000
v -1.78136 3.53000 -2.52000
v -3.95380 3.53000 -2.52000
v -2.63155 3.37000 -2.87000
v -3.79620 3.37000 -2.52000
v -2.63155 3.37000 -2.52000
v -3.79620 3.37000 -2.87000
v -3.95380 3.37000 -0.63000
v -5.00790 3.37000 -0.63000
v -4.82150 2.64000 -0.53000
v -3.95380 2.64000 -0.53000
v -1.78136 2.62000 -1.63000
v 0.44089 2.62000 -1.63000
v -5.00790 2.64000 -0.63000
v -4.82150 2.28000 -0.53000
v -3.95380 2.17000 -2.52000
v -3.95380 2.64000 -0.63000
v -3.95380 2.28000 -0.53000
v -3.87500 4.14000 0.50000
v -3.87500 4.36000 -1.74000
v -3.79620 3.53000 1.30000
v -3.79620 4.28000 1.30000
v -3.79620 3.53000 -2.09000
v -3.79620 2.51000 -2.87000
v -3.79620 2.51000 -2.52000
v -3.63880 1.69000 -1.63000
v -3.63880 2.17000 -1.63000
v -2.63155 2.51000 -2.87000
v -2.63155 2.51000 -2.52000
v -1.78136 2.17000 -2.52000
v -2.78916 3.53000 -2.09000
v -2.78916 4.36000 -1.74000
v -1.78136 2.17000 -1.63000
v 0.44089 1.69000 -1.63000
v -2.78916 4.14000 0.50000
v -2.78916 4.28000 1.30000
v -2.78916 3.53000 1.30000
v -2.78916 4.33000 1.30000
v -2.78916 4.33000 -1.35000
v -3.61850 3.49000 1.34000
v -3.71360 4.34000 1.34000
v -3.71360 3.49000 1.34000
v -3.61850 4.34000 1.34000
v -4.79340 3.68000 0.42000
v -5.35790 3.68000 0.42000
v -4.79340 3.09000 0.42000
v -5.35790 3.09000 0.42000
v -3.62580 3.49000 -0.53000
v -3.71020 4.33000 -0.53000
v -3.71020 3.49000 -0.53000
v -3.62580 4.33000 -0.53000
v -3.71360 4.34000 0.54000
v -3.61850 4.34000 0.54000
v -3.71020 4.33000 -1.33000
v -3.62580 4.33000 -1.33000
v -4.79340 3.68000 -0.39000
v -5.35790 3.68000 -0.39000
v -5.35790 3.09000 -0.39000
v -3.71360 3.49000 0.54000
v -3.71020 3.49000 -1.33000
v -3.62580 3.49000 -1.33000
v -4.79340 3.09000 -0.39000
v -3.61850 3.49000 0.54000
v -3.66500 4.07000 1.30000
v -3.76000 4.30000 1.30000
v -3.76000 4.07000 1.30000
v -3.66500 4.30000 1.30000
v -3.67640 4.05000 -0.57000
v -3.75920 4.29000 -0.57000
v -3.75920 4.05000 -0.57000
v -3.67640 4.29000 -0.57000
v -3.66500 4.30000 1.07000
v -3.76000 4.30000 1.07000
v -3.67640 4.29000 -0.80000
v -3.75920 4.29000 -0.80000
v -3.76000 4.07000 1.07000
v -3.75920 4.05000 -0.80000
v -3.67640 4.05000 -0.80000
v -3.66500 4.07000 1.07000
v 1.56272 5.23000 2.50000
v -3.65910 1.65000 2.50000
v -3.65910 5.23000 2.50000
v 1.56272 1.65000 2.50000
v 1.56272 1.65000 -2.73000
v -3.65910 1.65000 -2.73000
v -3.65910 5.23000 -2.73000
v 1.56272 5.23000 -2.73000
v -3.10580 1.76000 -2.17000
v 1.00944 1.76000 -2.17000
v -3.10580 0.93000 -2.17000
v 1.00944 0.93000 -2.17000
v 1.00944 1.76000 1.94000
v -3.10580 1.76000 1.94000
v 1.00944 0.93000 1.94000
v -3.10580 0.93000 1.94000
v 1.14724 1.87000 2.03000
v -3.24360 0.82000 2.03000
v -3.24360 1.87000 2.03000
v 1.14724 0.82000 2.03000
v 1.14724 0.82000 -2.26000
v -3.24360 0.82000 -2.26000
v -3.24360 1.87000 -2.26000
v 1.14724 1.87000 -2.26000
v -2.69431 0.93000 -1.76000
v 0.59791 0.93000 -1.76000
v -2.69431 0.11000 -1.76000
v 0.59791 0.11000 -1.76000
v 0.59791 0.93000 1.53000
v -2.69431 0.93000 1.53000
v 0.59791 0.11000 1.53000
v -2.69431 0.11000 1.53000
v 0.56241 1.04000 1.67000
v -2.65881 0.00000 1.67000
v -2.65881 1.04000 1.67000
v 0.56241 0.00000 1.67000
v 0.56241 0.00000 -1.90000
v -2.65881 0.00000 -1.90000
v -2.65881 1.04000 -1.90000
v 0.56241 1.04000 -1.90000
v 0.69604 6.80000 1.64000
v -2.79245 5.76000 1.64000
v -2.79245 6.80000 1.64000
v 0.69604 5.76000 1.64000
v 0.69604 5.76000 -1.87000
v -2.79245 5.76000 -1.87000
v -2.79245 6.80000 -1.87000
v 0.69604 6.80000 -1.87000
v -2.69431 6.70000 -1.76000
v 0.59791 6.70000 -1.76000
v -2.69431 5.87000 -1.76000
v 0.59791 5.87000 -1.76000
v 0.59791 6.70000 1.53000
v -2.69431 6.70000 1.53000
v 0.59791 5.87000 1.53000
v -2.69431 5.87000 1.53000
vt 43.99680 -54.97520
vt 44.00320 -55.17020
vt 44.00320 -54.97520
vt 43.99680 -55.17020
vt 43.90090 -54.99680
vt 44.07570 -55.00320
vt 44.07570 -54.99680
vt 43.90090 -55.00320
vt 44.10430 -55.00320
vt 44.10430 -54.99680
vt 43.89570 -55.07610
vt 43.92430 -54.82980
vt 43.89570 -54.82980
vt 44.09910 -54.97520
vt 44.00890 -55.17020
vt 44.10430 -55.17020
vt 43.99680 -54.82980
vt 44.00320 -55.07610
vt 44.00320 -54.82980
vt 43.99680 -55.07610
vt 44.00890 -54.99680
vt 44.00890 -55.00320
vt 43.89570 -55.00320
vt 43.89570 -54.99680
vt 43.99110 -55.17020
vt 43.90090 -54.97520
vt 43.89570 -55.17020
vt 44.10430 -55.07610
vt 44.07570 -54.82980
vt 44.10430 -54.82980
vt 56.00320 -25.07610
vt 56.00320 -24.82980
vt 55.99680 -24.82980
vt 55.99680 -25.07610
vt 56.09910 -24.99680
vt 55.92430 -25.00320
vt 56.09910 -25.00320
vt 55.92430 -24.99680
vt 55.89570 -25.00320
vt 55.89570 -24.99680
vt 56.10430 -25.07610
vt 55.90090 -24.97520
vt 55.99110 -25.17020
vt 55.89570 -25.17020
vt 56.07570 -24.82980
vt 56.10430 -24.82980
vt 55.99680 -24.97520
vt 55.99680 -25.17020
vt 56.00320 -25.17020
vt 56.00320 -24.97520
vt 55.99110 -25.00320
vt 55.99110 -24.99680
vt 56.10430 -24.99680
vt 56.10430 -25.00320
vt 55.89570 -25.07610
vt 55.92430 -24.82980
vt 55.89570 -24.82980
vt 56.09910 -24.97520
vt 56.00890 -25.17020
vt 56.10430 -25.17020
vt 0.32857 -1.11917
vt 0.32857 1.63210
vt -0.32859 1.63210
vt -0.32859 -1.11917
vt -0.32859 -1.01996
vt 0.15970 -1.01996
vt 0.15970 -0.98719
vt -0.32859 -0.98719
vt -0.32859 1.36519
vt -0.32859 -0.19554
vt -0.27792 1.36519
vt -0.27792 -0.19554
vt -0.32859 3.09331
vt 0.32857 3.09331
vt 0.32859 3.11917
vt -0.32859 3.11917
vt 0.15970 0.55799
vt 0.15970 2.52841
vt -0.32859 2.52841
vt -0.32859 0.55799
vt 0.35092 0.67141
vt 1.50095 1.32859
vt 0.35092 1.32859
vt 1.50095 0.67141
vt 0.34315 1.32859
vt -1.42446 0.67143
vt 0.34315 0.67143
vt -1.42446 1.32859
vt -0.72177 1.27792
vt 0.67634 1.27792
vt -0.72177 1.32859
vt 0.67634 1.32859
vt 0.90516 1.27792
vt 0.90516 1.32859
vt -1.52021 1.32859
vt -1.52021 0.67143
vt 0.90516 0.84030
vt -0.00068 1.32859
vt -0.00068 0.84030
vt -0.72177 0.84030
vt -0.90516 2.52841
vt -0.76179 2.59947
vt -0.90516 2.73699
vt -0.67634 2.52841
vt -1.50095 2.73699
vt -0.35092 3.11917
vt -1.50095 3.11917
vt -0.35092 3.09331
vt 1.42446 1.63210
vt 0.72177 1.63210
vt 0.72177 1.36519
vt -1.50095 0.19058
vt -1.07657 0.70064
vt -0.90516 0.55799
vt -0.34315 3.10270
vt -0.09305 -1.01996
vt -0.06569 -0.98719
vt -1.52020 0.16742
vt 0.35058 -0.48674
vt 0.76348 -0.19554
vt 0.00068 -0.19554
vt 0.72177 -0.19554
vt 0.72177 -0.98719
vt 0.76348 -0.98719
vt 1.52021 -1.11917
vt 0.72177 -1.11917
vt 1.52021 1.63210
vt -0.32857 3.10270
vt 0.32859 3.09331
vt 0.32859 3.10270
vt -0.32857 3.09331
vt -0.15970 2.52841
vt 0.32859 0.19058
vt -0.15970 0.19058
vt -0.15970 2.73699
vt 0.32859 2.73699
vt 0.27792 2.52841
vt 0.32859 0.55799
vt 0.32859 2.52841
vt 0.27792 0.55799
vt -0.15970 0.16742
vt 0.32859 0.16742
vt 0.32859 1.36519
vt -0.15970 -0.19554
vt 0.32859 -0.19554
vt -0.32857 1.36519
vt -0.32857 -1.11917
vt -0.15970 -0.98719
vt 0.32859 -1.11917
vt 0.32859 -0.98719
vt 0.72177 0.67143
vt 1.52021 0.67143
vt 0.72177 1.32859
vt 1.52021 1.32859
vt -0.06569 0.84030
vt -0.06569 1.32859
vt 0.72177 0.84030
vt -0.09305 0.84030
vt -0.09305 1.32859
vt -1.52020 0.84030
vt -1.52020 1.32859
vt 0.76348 1.27792
vt 0.00068 1.32859
vt 0.00068 1.27792
vt 0.76348 1.32859
vt -0.90516 1.32859
vt -0.90516 1.27792
vt -0.67634 1.32859
vt -0.67634 0.67143
vt -0.90516 0.84030
vt -1.50095 0.84030
vt -1.50095 0.67141
vt 1.50095 3.11917
vt 0.67634 2.52841
vt 1.50095 2.52841
vt 0.35092 2.52841
vt 0.35092 3.09331
vt 0.35092 3.11917
vt 0.34315 3.10270
vt -0.72177 1.36519
vt -0.72177 1.63210
vt -1.42446 1.63210
vt -1.52021 1.63210
vt -0.72177 -1.11917
vt -1.52021 -1.11917
vt 0.90516 0.55799
vt 1.07657 0.70064
vt 0.90516 2.52841
vt 1.50095 0.19058
vt 0.09305 -1.01996
vt 1.52020 0.16742
vt 0.06569 -0.98719
vt -0.35058 -0.48674
vt -0.00068 -0.19554
vt -0.72177 -0.19554
vt -0.72177 -0.98719
vt -0.76348 -0.19554
vt 0.32857 3.10270
vt -0.32859 3.10270
vt -0.32859 0.19059
vt 0.15970 0.19059
vt 0.15970 2.73699
vt -0.32859 2.73699
vt -0.27792 0.55799
vt -0.27792 2.52841
vt 0.15970 0.16742
vt -0.32859 0.16742
vt 0.15970 -0.19554
vt 0.32857 1.36519
vt -1.50095 1.32859
vt -0.35092 0.67141
vt -0.35092 1.32859
vt 1.42445 0.67143
vt -0.34315 1.32859
vt -0.34315 0.67143
vt 1.42445 1.32859
vt -0.67634 1.27792
vt 0.72177 1.27792
vt -0.90517 1.27792
vt -0.90517 1.32859
vt 1.52020 1.32859
vt 1.52020 0.67143
vt 0.00067 1.32859
vt -0.90517 0.84030
vt 0.00067 0.84030
vt 0.76179 2.59947
vt 0.90517 2.52841
vt 0.90517 2.73699
vt -1.42445 1.63210
vt -1.52020 -1.11917
vt -1.52020 1.63210
vt -0.76348 -0.98719
vt -0.35058 -0.48673
vt 1.52021 0.16742
vt -0.00067 -0.19554
vt 0.90517 0.55799
vt 1.50095 0.19059
vt 1.50095 2.73699
vt 0.09305 -1.01995
vt -0.32857 1.63210
vt 0.32859 1.63210
vt -0.15970 -1.01995
vt 0.32859 -1.01995
vt 0.27792 1.36519
vt 0.27792 -0.19554
vt -0.15970 0.55799
vt -1.52020 0.67143
vt -0.72177 0.67143
vt 0.06569 0.84030
vt 0.06569 1.32859
vt 0.09305 1.32859
vt 0.09305 0.84030
vt 1.52021 0.84030
vt -0.76348 1.27792
vt -0.00067 1.27792
vt -0.00067 1.32859
vt -0.76348 1.32859
vt 0.90517 1.32859
vt 0.90517 1.27792
vt 0.67634 0.67143
vt 1.50095 0.84030
vt 0.90517 0.84030
vt -1.50095 2.52841
vt -0.35092 2.52841
vt 1.42445 1.63210
vt 1.52020 1.63210
vt 1.52020 -1.11917
vt -0.90517 0.55799
vt -0.90517 2.52841
vt -1.50095 0.19059
vt -0.09305 -1.01995
vt -1.52021 0.16742
vt 0.35058 -0.48673
vt 0.00067 -0.19554
vt -1.01376 -0.38236
vt -0.46490 -0.51287
vt -0.46490 -0.38236
vt -1.01376 -0.51287
vt -0.47159 -0.17319
vt -1.00707 -0.17319
vt -1.00707 -0.72205
vt -0.47159 -0.72205
vt -1.00707 -0.38236
vt -0.47159 -0.51287
vt -0.47159 -0.38236
vt -1.00707 -0.51287
vt 1.26441 -2.00000
vt 0.75000 -2.00000
vt 1.26441 -2.10288
vt 0.75000 -2.10288
vt 1.26441 -2.51441
vt 0.75000 -2.51441
vt 6.16140 -54.94230
vt 5.94024 -55.00500
vt 6.01950 -55.08420
vt 6.08214 -54.86310
vt 6.09507 -55.15980
vt 6.23697 -55.01790
vt 5.93442 -54.96430
vt 5.95768 -54.98750
vt 6.05889 -54.83980
vt 6.06949 -55.13420
vt 5.86695 -55.04150
vt 5.93864 -55.19530
vt 5.94184 -55.00660
vt 6.09957 -54.79910
vt 5.92862 -54.95850
vt 6.09377 -54.79330
vt 5.78678 -55.20670
vt 5.93202 -55.18110
vt 5.87218 -55.05270
vt 5.76303 -55.07200
vt 5.88908 -55.08210
vt 5.85621 -55.08210
vt 6.14379 -55.16140
vt 6.12735 -55.16140
vt 5.87264 -55.16140
vt 6.12735 -55.23700
vt 5.87264 -55.23700
vt 5.88908 -55.05890
vt 6.11092 -55.05890
vt 5.88908 -54.93440
vt 6.11092 -54.93440
vt 6.14379 -55.08210
vt 6.11092 -54.95770
vt 6.11092 -55.08210
vt 5.88908 -54.95770
vt 5.89730 -54.86690
vt 5.89730 -54.94180
vt 6.10270 -54.86690
vt 6.10270 -54.94180
vt 5.91373 -54.76300
vt 6.08627 -54.87220
vt 6.08627 -54.76300
vt 5.91373 -54.87220
vt 5.91373 -55.20670
vt 6.08627 -55.20670
vt 5.91373 -55.07200
vt 6.08627 -55.07200
vt 6.08627 -55.18110
vt 6.10270 -55.19530
vt 6.10270 -55.04150
vt 5.89730 -55.19530
vt 6.08627 -55.05270
vt 5.91373 -55.18110
vt 5.91373 -55.05270
vt 5.89730 -55.04150
vt 6.00420 -54.79330
vt 6.08627 -54.95850
vt 6.08627 -54.79330
vt 6.00420 -54.95850
vt 5.85621 -55.00500
vt 6.11092 -54.98750
vt 5.88908 -54.98750
vt 5.85621 -54.86310
vt 6.14379 -55.00500
vt 6.14379 -54.86310
vt 6.12736 -55.08420
vt 6.14379 -55.08420
vt 6.10270 -55.08420
vt 6.10270 -55.13420
vt 6.10270 -55.00660
vt 5.89730 -55.00660
vt 5.87265 -55.08420
vt 5.85621 -55.08420
vt 5.89730 -55.13420
vt 5.89730 -55.08420
vt 6.00420 -54.96430
vt 6.08627 -54.96430
vt 5.83860 -54.94230
vt 5.98050 -55.08420
vt 5.91786 -54.86310
vt 6.05976 -55.00500
vt 5.90493 -55.15980
vt 5.76303 -55.01790
vt 5.94111 -54.83980
vt 6.04232 -54.98750
vt 6.06558 -54.96430
vt 6.06136 -55.19530
vt 6.05816 -55.00660
vt 6.13305 -55.04150
vt 5.93051 -55.13420
vt 6.23697 -55.07200
vt 6.12782 -55.05270
vt 6.06798 -55.18110
vt 6.21322 -55.20670
vt 5.90043 -54.79910
vt 5.90623 -54.79330
vt 6.07138 -54.95850
vt 6.08627 -54.78680
vt 5.91373 -54.78680
vt 6.08627 -54.93200
vt 5.91373 -54.93200
vt 6.10270 -55.06950
vt 6.10270 -54.93860
vt 5.89730 -55.06950
vt 5.89730 -54.93860
vt 6.10270 -55.01950
vt 6.14379 -54.94020
vt 6.12736 -55.09510
vt 6.12736 -55.01950
vt 5.87265 -55.09510
vt 5.87265 -55.01950
vt 5.89730 -55.01950
vt 5.99580 -54.79330
vt 5.91373 -54.79330
vt 5.99580 -54.79910
vt 5.91373 -54.79910
vt 5.87264 -55.01790
vt 5.87264 -55.15980
vt 6.12735 -55.15980
vt 6.12735 -55.01790
vt 5.88908 -54.83980
vt 5.88908 -54.86310
vt 6.11092 -54.86310
vt 6.11092 -54.83980
vt 6.14379 -54.94230
vt 6.12735 -54.94230
vt 5.87264 -54.94230
vt 5.85621 -54.94230
vt 6.12735 -55.08420
vt 5.87264 -55.08420
vt 5.99580 -54.96430
vt 5.91373 -54.96430
vt 7.98250 -3.25000
vt 7.75000 -3.25000
vt 7.98250 -3.29746
vt 7.75000 -3.29746
vt 7.90773 -3.25000
vt 7.90773 -3.48250
vt 7.75000 -3.48250
vt 7.90773 -3.29746
vt 5.36729 -5.00000
vt 4.75000 -5.00000
vt 5.36729 -5.41153
vt 4.75000 -5.41153
vt 5.36729 -5.61729
vt 4.75000 -5.61729
vt 35.88070 -7.01388
vt 36.10190 -6.95124
vt 36.02260 -6.87198
vt 35.96000 -7.09314
vt 36.03550 -7.16871
vt 36.14020 -7.06407
vt 36.06460 -6.98850
vt 35.85740 -6.99063
vt 36.00520 -6.88943
vt 35.98190 -6.86617
vt 36.14260 -6.89892
vt 36.02840 -6.87779
vt 36.09600 -6.94543
vt 36.07490 -6.83129
vt 36.11090 -7.00516
vt 35.88910 -7.00516
vt 36.14380 -7.02260
vt 35.88910 -6.98190
vt 36.11090 -6.98190
vt 35.87260 -7.06459
vt 35.87260 -7.14016
vt 36.12740 -7.14016
vt 36.12740 -7.06459
vt 35.85620 -7.09314
vt 36.14380 -7.09314
vt 35.85620 -7.01388
vt 35.88910 -7.01388
vt 36.11090 -7.01388
vt 36.14380 -7.01388
vt 35.88910 -6.99063
vt 36.11090 -6.99063
vt 35.88910 -6.86617
vt 36.11090 -6.86617
vt 36.14380 -6.87198
vt 35.85620 -6.87198
vt 36.11090 -6.88943
vt 35.88910 -6.88942
vt 36.02880 -6.83129
vt 35.91370 -6.83129
vt 36.02880 -6.87779
vt 35.91370 -6.87779
vt 36.12740 -6.98850
vt 35.87260 -6.98850
vt 36.12740 -7.09314
vt 35.87260 -7.09314
vt 36.02880 -6.94543
vt 35.91370 -6.94543
vt 36.11930 -7.01388
vt 35.97740 -6.87198
vt 36.04000 -7.09314
vt 35.89810 -6.95124
vt 35.93540 -6.98850
vt 35.96450 -7.16871
vt 35.85980 -7.06407
vt 36.14260 -6.99063
vt 36.01810 -6.86617
vt 35.99480 -6.88942
vt 35.92510 -6.83129
vt 35.90400 -6.94543
vt 35.97160 -6.87779
vt 35.85740 -6.89892
vt 36.12740 -6.95996
vt 35.87260 -6.95996
vt 36.12740 -7.03553
vt 35.87260 -7.03553
vt 35.88910 -6.88070
vt 36.11090 -6.88070
vt 35.88910 -6.85745
vt 36.11090 -6.85745
vt 35.87260 -7.06407
vt 35.87260 -7.16871
vt 36.12740 -7.16871
vt 36.12740 -7.06407
vt 35.97120 -6.83129
vt 35.97120 -6.89892
vt 36.08630 -6.89892
vt 36.08630 -6.83129
vt 35.85620 -6.95124
vt 36.14380 -6.95124
vt 35.88910 -6.88943
vt 36.11090 -6.88942
vt 36.08630 -6.94543
vt 35.97120 -6.94543
vt 37.81090 -32.98530
vt 37.95650 -33.09310
vt 37.95650 -32.98530
vt 37.81090 -33.09310
vt 38.06280 -32.96560
vt 38.06280 -33.13580
vt 37.79120 -32.96560
vt 37.79120 -33.13580
vt 37.81090 -32.96560
vt 37.93680 -32.96560
vt 37.81090 -32.86600
vt 37.93680 -32.86600
vt 37.80110 -32.86120
vt 37.93680 -32.86120
vt 37.80110 -32.80420
vt 37.93680 -32.80420
vt 38.34050 -33.19580
vt 38.06280 -33.07890
vt 38.34050 -33.07890
vt 37.83060 -33.19580
vt 37.83060 -33.13580
vt 37.65950 -33.07660
vt 37.79120 -32.98610
vt 37.65950 -32.98610
vt 37.79120 -33.07660
vt 37.68280 -33.12190
vt 37.79120 -33.12190
vt 37.68280 -33.07660
vt 37.80110 -32.83220
vt 37.93680 -32.88930
vt 37.93680 -32.83220
vt 37.80110 -32.88930
vt 37.81090 -32.86980
vt 37.93680 -32.86980
vt 38.20910 -32.93680
vt 38.05020 -32.80110
vt 38.05020 -32.93680
vt 38.20910 -32.80110
vt 37.94990 -32.80110
vt 37.79100 -32.80110
vt 37.94990 -32.93680
vt 37.79100 -32.93680
vt 37.74690 -32.81090
vt 37.74690 -32.93680
vt 37.80790 -32.81090
vt 37.80790 -32.93680
vt 38.26300 -32.81090
vt 38.19220 -32.81090
vt 38.19220 -32.93680
vt 38.26300 -32.93680
vt 37.68790 -33.06280
vt 38.31690 -33.06280
vt 37.68790 -32.79120
vt 38.31690 -32.79120
vt 37.68790 -32.81090
vt 37.63860 -32.81090
vt 37.68790 -32.95650
vt 37.63860 -32.95650
vt 38.36140 -32.95650
vt 38.31690 -32.81090
vt 38.31690 -32.95650
vt 38.36140 -32.81090
vt 37.92270 -32.65950
vt 37.92270 -32.79120
vt 38.08040 -32.79120
vt 38.08040 -32.65950
vt 38.06870 -32.68280
vt 37.93430 -32.68280
vt 38.06870 -32.79120
vt 37.93430 -32.79120
vt 37.80590 -33.06280
vt 37.80590 -33.34050
vt 38.20560 -33.06280
vt 38.20560 -33.34050
vt 37.91960 -33.07660
vt 38.07730 -33.07660
vt 37.91960 -32.98610
vt 38.07730 -32.98610
vt 37.93130 -33.12190
vt 38.06570 -33.12190
vt 37.93130 -33.07660
vt 38.06570 -33.07660
vt 38.31210 -33.13580
vt 38.31210 -32.96560
vt 37.68310 -32.96560
vt 37.68310 -33.13580
vt 38.06010 -32.88930
vt 38.21920 -32.86120
vt 38.05010 -32.83220
vt 38.20900 -32.80420
vt 37.78080 -32.86120
vt 37.93980 -32.88930
vt 37.79090 -32.80420
vt 37.94980 -32.83220
vt 38.16050 -32.96560
vt 38.25310 -32.96560
vt 38.16050 -32.87160
vt 38.25310 -32.86600
vt 38.19210 -32.86600
vt 37.73700 -32.86600
vt 37.82960 -32.86980
vt 37.80780 -32.86600
vt 37.82960 -32.96560
vt 37.73700 -32.96560
vt 38.31210 -32.98530
vt 38.36140 -33.09310
vt 38.36140 -32.98530
vt 38.31210 -33.09310
vt 37.63860 -33.09310
vt 37.68310 -33.09310
vt 37.63860 -32.98530
vt 37.68310 -32.98530
vt 38.19410 -33.19580
vt 38.19410 -33.13580
vt 37.79440 -33.19580
vt 37.79440 -33.13580
vt 38.18910 -33.09310
vt 38.18910 -32.98530
vt 38.04350 -32.98530
vt 38.04350 -33.09310
vt 38.20880 -33.13580
vt 37.93720 -33.13580
vt 38.20880 -32.96560
vt 37.93720 -32.96560
vt 38.06320 -32.96560
vt 38.18910 -32.96560
vt 38.06320 -32.86600
vt 38.18910 -32.86600
vt 38.06320 -32.80420
vt 38.06320 -32.86120
vt 38.19890 -32.86120
vt 38.19890 -32.80420
vt 38.16940 -33.13580
vt 38.16940 -33.19580
vt 37.65950 -33.07890
vt 37.65950 -33.19580
vt 37.93720 -33.07890
vt 38.34050 -33.07660
vt 38.34050 -32.98610
vt 38.20880 -32.98610
vt 38.20880 -33.07660
vt 38.20880 -33.12190
vt 38.31720 -33.07660
vt 38.31720 -33.12190
vt 38.06320 -32.88930
vt 38.19890 -32.88930
vt 38.06320 -32.83220
vt 38.19890 -32.83220
vt 38.18910 -32.87160
vt 38.06320 -32.87160
vt 38.19410 -33.34050
vt 38.19410 -32.83060
vt 37.79440 -32.83060
vt 37.79440 -33.34050
vt 38.31210 -32.79120
vt 38.31210 -33.06280
vt 38.19410 -33.06280
vt 37.68310 -32.79120
vt 37.68310 -33.06280
vt 37.79440 -33.06280
vt 38.06570 -32.79120
vt 37.93130 -32.68280
vt 37.93130 -32.79120
vt 38.06570 -32.68280
vt 38.31210 -32.81090
vt 38.31210 -32.95650
vt 37.68310 -32.95650
vt 37.68310 -32.81090
vt 38.07730 -32.79120
vt 37.91960 -32.65950
vt 37.91960 -32.79120
vt 38.07730 -32.65950
vt 38.25310 -32.93680
vt 38.25310 -32.81090
vt 38.16050 -32.81090
vt 38.16050 -32.93680
vt 37.82960 -32.93680
vt 37.73700 -32.81090
vt 37.73700 -32.93680
vt 37.82960 -32.81090
vt 38.06010 -32.80110
vt 38.06010 -32.93680
vt 38.19210 -32.81090
vt 38.21920 -32.80110
vt 38.21920 -32.93680
vt 38.19210 -32.93680
vt 37.80780 -32.81090
vt 37.93980 -32.80110
vt 37.78080 -32.80110
vt 37.80780 -32.93680
vt 37.78080 -32.93680
vt 37.93980 -32.93680
vt 37.80590 -33.19580
vt 38.20560 -33.19580
vt 37.80590 -33.07890
vt 38.20560 -33.07890
vt 37.68790 -33.13580
vt 37.80590 -33.13580
vt 37.68790 -32.96560
vt 38.31690 -32.96560
vt 38.31690 -33.13580
vt 38.20560 -33.13580
vt 38.31690 -33.09310
vt 38.31690 -32.98530
vt 37.68790 -33.09310
vt 37.68790 -32.98530
vt 37.83950 -32.86600
vt 37.80790 -32.86600
vt 37.83950 -32.87160
vt 37.74690 -32.86600
vt 37.83950 -32.96560
vt 37.74690 -32.96560
vt 37.93990 -32.88930
vt 37.79100 -32.80420
vt 37.94990 -32.83220
vt 38.17040 -32.86980
vt 38.17040 -32.96560
vt 38.26300 -32.96560
vt 38.17040 -32.86600
vt 38.19220 -32.86600
vt 38.26300 -32.86600
vt 38.05020 -32.83220
vt 38.06020 -32.88930
vt 38.20910 -32.80420
vt 40.10870 -17.02800
vt 40.09680 -16.92170
vt 40.09680 -17.02800
vt 40.10870 -16.92170
vt 39.96180 -17.00360
vt 39.89130 -17.00360
vt 39.96180 -17.07830
vt 39.89130 -17.07830
vt 40.10780 -17.02830
vt 40.09730 -16.92310
vt 40.09730 -17.02830
vt 40.10780 -16.92310
vt 39.93330 -17.09680
vt 39.83320 -17.09680
vt 39.93330 -17.10870
vt 39.83320 -17.10870
vt 40.16680 -17.09730
vt 40.06660 -17.09730
vt 40.16680 -17.10780
vt 40.06660 -17.10780
vt 39.94850 -16.89130
vt 40.04910 -16.96180
vt 40.04910 -16.89130
vt 39.94850 -16.96180
vt 40.05150 -17.07830
vt 39.95090 -17.00360
vt 39.95090 -17.07830
vt 40.05150 -17.00360
vt 40.16680 -16.92170
vt 40.06670 -16.92170
vt 40.16680 -17.02800
vt 40.06670 -17.02800
vt 39.93340 -17.02830
vt 39.83320 -16.92310
vt 39.83320 -17.02830
vt 39.93340 -16.92310
vt 39.90270 -17.02830
vt 39.89220 -16.92310
vt 39.89220 -17.02830
vt 39.90270 -16.92310
vt 40.10870 -17.07830
vt 40.03820 -17.00360
vt 40.03820 -17.07830
vt 40.10870 -17.00360
vt 39.90320 -17.02800
vt 39.89130 -16.92170
vt 39.89130 -17.02800
vt 39.90320 -16.92170
vt 40.05150 -16.96180
vt 39.95090 -16.89130
vt 39.95090 -16.96180
vt 40.05150 -16.89130
vt 39.83320 -17.09730
vt 39.93340 -17.10780
vt 39.93340 -17.09730
vt 39.83320 -17.10780
vt 40.06670 -17.10870
vt 40.16680 -17.10870
vt 40.06670 -17.09680
vt 40.16680 -17.09680
vt 39.93330 -17.02800
vt 39.83320 -16.92170
vt 39.83320 -17.02800
vt 39.93330 -16.92170
vt 40.16680 -17.02830
vt 40.06660 -16.92310
vt 40.06660 -17.02830
vt 40.16680 -16.92310
vt 40.04910 -17.00360
vt 39.94850 -17.00360
vt 40.04910 -17.07830
vt 39.94850 -17.07830
vt 62.00590 -35.01330
vt 61.99410 -34.98470
vt 61.99410 -35.01330
vt 62.00590 -34.98470
vt 62.00450 -35.01530
vt 61.99420 -34.98600
vt 61.99420 -35.01530
vt 62.00450 -34.98600
vt 61.89760 -35.00590
vt 61.86900 -34.99410
vt 61.86900 -35.00590
vt 61.89760 -34.99410
vt 62.13100 -35.00450
vt 62.10240 -34.99420
vt 62.10240 -35.00450
vt 62.13100 -34.99420
vt 62.13100 -35.01330
vt 62.10240 -34.98470
vt 62.10240 -35.01330
vt 62.13100 -34.98470
vt 61.89760 -35.01530
vt 61.86900 -34.98600
vt 61.86900 -35.01530
vt 61.89760 -34.98600
vt 62.00580 -35.01530
vt 61.99550 -34.98600
vt 61.99550 -35.01530
vt 62.00580 -34.98600
vt 61.86900 -35.00450
vt 61.89760 -35.00450
vt 61.86900 -34.99420
vt 61.89760 -34.99420
vt 62.10240 -35.00590
vt 62.13100 -35.00590
vt 62.10240 -34.99410
vt 62.13100 -34.99410
vt 61.89760 -35.01330
vt 61.86900 -34.98470
vt 61.86900 -35.01330
vt 61.89760 -34.98470
vt 62.13100 -35.01530
vt 62.10240 -34.98600
vt 62.10240 -35.01530
vt 62.13100 -34.98600
vt 2.57898 3.11457
vt 3.23171 2.66652
vt 3.23171 3.11457
vt 2.57898 2.66652
vt 3.23171 3.21691
vt 2.57898 3.21691
vt 2.57898 2.56418
vt 3.23171 2.56418
vt 5.26441 -2.75000
vt 4.75000 -2.75000
vt 5.26441 -2.85288
vt 4.75000 -2.85288
vt 5.26441 -3.26441
vt 4.75000 -3.26441
vt -2.45458 5.24944
vt -1.90571 5.11893
vt -1.90571 5.24944
vt -2.45458 5.11893
vt -1.91240 5.45862
vt -2.44789 5.45862
vt -2.44789 4.90975
vt -1.91240 4.90975
vt -2.44789 5.24944
vt -1.91240 5.11893
vt -1.91240 5.24944
vt -2.44789 5.11893
vt 4.91153 -2.75000
vt 4.50000 -2.75000
vt 4.91153 -2.85288
vt 4.50000 -2.85288
vt 4.91153 -3.16153
vt 4.50000 -3.16153
vt 2.36366 -1.32539
vt 2.76632 -1.45590
vt 2.76632 -1.32539
vt 2.36366 -1.45590
vt 2.78818 -1.18932
vt 2.34180 -1.18932
vt 2.34180 -1.59198
vt 2.78818 -1.59198
vt 2.34180 -1.32539
vt 2.78818 -1.45590
vt 2.78818 -1.32539
vt 2.34180 -1.45590
vt -0.57978 0.50927
vt -0.14372 0.37876
vt -0.14372 0.50927
vt -0.57978 0.37876
vt -0.14297 0.66204
vt -0.58054 0.66204
vt -0.58054 0.22598
vt -0.14297 0.22598
vt -0.58054 0.50927
vt -0.14297 0.37876
vt -0.14297 0.50927
vt -0.58054 0.37876
vt 6.16153 -0.25000
vt 5.75000 -0.25000
vt 6.16153 -0.35288
vt 5.75000 -0.35288
vt 6.16153 -0.66153
vt 5.75000 -0.66153
vn 0.0000 0.0236 -1.0000
vn 0.0000 0.7717 -0.6378
vn 0.0000 0.9370 -0.3386
vn 0.0000 1.0000 0.0000
vn 1.0000 0.0000 0.0000
vn 0.0000 0.0000 1.0000
vn 0.0000 -1.0000 0.0000
vn 0.0000 -0.9370 0.3386
vn 0.0000 -0.7717 0.6378
vn -1.0000 0.0000 0.0000
vn 0.0000 0.0000 -1.0000
vn 0.0000 0.7717 0.6378
vn 0.0000 0.9370 0.3386
vn 0.0000 0.0236 1.0000
vn 0.0000 -0.9370 -0.3386
vn 0.0000 -0.7717 -0.6378
vn 0.0000 -0.6378 -0.7638
vn 0.0000 0.6378 0.7717
vn 0.0000 0.6378 -0.7717
vn 0.0000 -0.6378 0.7717
vn 0.7087 0.7087 0.0000
vn -0.7087 0.7087 0.0000
vn -0.4252 0.9055 0.0000
vn -0.1732 0.9843 0.0000
vn -0.9843 -0.1732 0.0000
vn -0.9055 -0.4252 0.0000
vn -0.7087 -0.7087 0.0000
vn 0.1732 -0.9843 0.0000
vn 0.4252 -0.9055 0.0000
vn 0.7087 -0.7087 0.0000
vn 0.0000 0.1732 0.9843
vn 0.0000 -0.1732 0.9843
vn 0.0000 0.9843 0.1732
vn 0.0000 0.9843 -0.1732
vn 0.0000 0.1732 -0.9843
vn 0.0000 -0.1732 -0.9843
vn 0.0000 -0.9843 0.1732
vn 0.0000 -0.9843 -0.1732

o E2U
usemtl c_ffc98b
f 1/1/1 2/2/1 3/3/1
f 2/2/1 1/1/1 4/4/1
f 1/5/2 5/6/3 6/7/3
f 5/6/3 1/5/2 3/8/2
f 7/9/4 6/7/3 5/6/3
f 6/7/3 7/9/4 8/10/4
f 9/11/5 6/12/5 8/13/5
f 6/12/5 9/11/5 1/14/5
f 10/15/5 1/14/5 9/11/5
f 1/14/5 10/15/5 4/16/5
f 7/17/6 9/18/6 8/19/6
f 9/18/6 7/17/6 11/20/6
f 4/10/7 10/21/8 2/9/7
f 12/22/8 2/9/7 10/21/8
f 10/21/8 11/23/9 12/22/8
f 11/23/9 10/21/8 9/24/9
f 12/25/10 3/26/10 2/27/10
f 11/28/10 3/26/10 12/25/10
f 3/26/10 11/28/10 5/29/10
f 11/28/10 7/30/10 5/29/10
f 13/31/11 14/32/11 15/33/11
f 13/31/11 15/33/11 16/34/11
f 17/35/12 18/36/13 19/37/12
f 18/36/13 17/35/12 20/38/13
f 14/39/4 18/36/13 20/38/13
f 14/39/4 20/38/13 15/40/4
f 16/41/5 17/42/5 21/43/5
f 21/43/5 17/42/5 22/44/5
f 17/42/5 16/41/5 20/45/5
f 20/45/5 16/41/5 15/46/5
f 19/47/14 23/48/14 22/49/14
f 19/47/14 22/49/14 17/50/14
f 23/39/7 24/51/15 21/52/15
f 23/39/7 21/52/15 22/40/7
f 24/51/15 16/53/16 21/52/15
f 16/53/16 24/51/15 13/54/16
f 13/55/10 18/56/10 14/57/10
f 18/56/10 13/55/10 19/58/10
f 24/59/10 19/58/10 13/55/10
f 19/58/10 24/59/10 23/60/10
usemtl c_ff8102
f 25/61/11 26/62/11 27/63/11
f 25/61/11 27/63/11 28/64/11
f 29/65/17 30/66/17 31/67/17
f 29/65/17 31/67/17 32/68/17
f 33/69/1 34/70/1 35/71/1
f 35/71/1 34/70/1 36/72/1
f 37/73/11 38/74/11 39/75/11
f 39/75/11 40/76/11 37/73/11
f 41/77/11 42/78/11 43/79/11
f 41/77/11 43/79/11 44/80/11
f 39/81/4 45/82/4 40/83/4
f 39/81/4 46/84/4 45/82/4
f 47/85/2 48/86/2 49/87/2
f 48/86/2 47/85/2 50/88/2
f 35/89/2 51/90/3 33/91/2
f 52/92/3 33/91/2 51/90/3
f 51/90/3 53/93/4 52/92/3
f 43/94/4 52/92/3 53/93/4
f 27/95/4 48/86/4 50/88/4
f 27/95/4 26/96/4 48/86/4
f 41/97/2 54/98/2 55/99/2
f 41/97/2 44/94/2 54/98/2
f 54/98/4 56/91/4 57/100/4
f 57/100/4 55/99/4 54/98/4
f 43/101/5 58/102/5 59/103/5
f 52/104/5 58/102/5 43/101/5
f 59/103/5 60/105/5 43/101/5
f 60/105/5 59/103/5 40/106/5
f 60/105/5 40/106/5 45/107/5
f 58/102/5 37/108/5 59/103/5
f 58/102/5 50/109/5 37/108/5
f 61/110/5 50/109/5 58/102/5
f 61/110/5 52/104/5 33/111/5
f 59/103/5 37/108/5 40/106/5
f 60/105/5 62/112/5 63/113/5
f 44/114/5 60/105/5 63/113/5
f 60/105/5 44/114/5 43/101/5
f 37/108/5 50/109/5 47/115/5
f 58/102/5 52/104/5 61/110/5
f 29/116/5 32/117/5 64/118/5
f 65/119/5 32/117/5 34/120/5
f 65/119/5 64/118/5 32/117/5
f 65/119/5 54/121/5 64/118/5
f 64/118/5 54/121/5 44/114/5
f 65/119/5 56/122/5 54/121/5
f 34/120/5 56/122/5 65/119/5
f 63/113/5 62/112/5 44/114/5
f 34/120/5 32/117/5 66/123/5
f 67/124/5 34/120/5 66/123/5
f 67/124/5 28/125/5 34/120/5
f 66/123/5 68/126/5 67/124/5
f 68/126/5 28/125/5 67/124/5
f 44/114/5 62/112/5 64/118/5
f 33/111/5 34/120/5 61/110/5
f 34/120/5 33/111/5 56/122/5
f 28/125/5 61/110/5 34/120/5
f 61/110/5 28/125/5 50/109/5
f 28/125/5 27/127/5 50/109/5
f 44/114/5 52/104/5 43/101/5
f 52/104/5 44/114/5 33/111/5
f 54/121/5 33/111/5 44/114/5
f 33/111/5 54/121/5 34/120/5
f 49/128/18 37/129/18 47/130/18
f 38/131/18 37/129/18 49/128/18
f 69/79/6 70/132/6 46/76/6
f 62/133/6 70/132/6 71/134/6
f 45/75/6 46/76/6 72/135/6
f 72/135/6 62/133/6 60/136/6
f 72/135/6 60/136/6 45/75/6
f 46/76/6 70/132/6 72/135/6
f 72/135/6 70/132/6 62/133/6
f 53/137/6 44/138/6 43/139/6
f 44/138/6 53/137/6 73/140/6
f 74/141/18 62/133/18 71/134/18
f 74/141/18 64/142/18 62/133/18
f 33/143/6 57/144/6 56/145/6
f 33/143/6 75/146/6 57/144/6
f 75/146/6 76/147/6 57/144/6
f 57/144/6 76/147/6 77/148/6
f 68/149/6 77/148/6 76/147/6
f 66/150/6 77/148/6 68/149/6
f 76/151/7 25/152/7 68/153/7
f 68/153/7 25/152/7 28/154/7
f 31/155/7 66/153/7 32/156/7
f 31/155/7 77/157/7 66/153/7
f 30/158/9 29/159/9 74/160/9
f 74/160/9 29/159/9 64/161/9
f 36/162/7 54/163/8 78/164/8
f 54/163/8 36/162/7 34/165/7
f 44/166/9 78/164/8 54/163/8
f 78/164/8 44/166/9 73/167/9
f 33/153/9 52/168/9 79/169/9
f 79/169/9 75/151/9 33/153/9
f 42/170/7 70/171/7 69/172/7
f 79/169/7 42/170/7 69/172/7
f 43/166/7 79/169/7 52/168/7
f 43/166/7 42/170/7 79/169/7
f 46/173/10 79/174/10 69/175/10
f 80/176/10 79/174/10 46/173/10
f 80/176/10 46/173/10 38/177/10
f 46/173/10 39/178/10 38/177/10
f 80/176/10 38/177/10 49/179/10
f 79/174/10 80/176/10 75/180/10
f 75/180/10 80/176/10 49/179/10
f 75/180/10 49/179/10 81/181/10
f 49/179/10 48/182/10 81/181/10
f 81/181/10 48/182/10 75/180/10
f 75/180/10 48/182/10 26/183/10
f 26/183/10 76/184/10 75/180/10
f 26/183/10 25/185/10 76/184/10
f 41/186/10 82/187/10 42/188/10
f 70/175/10 42/188/10 71/189/10
f 71/189/10 42/188/10 82/187/10
f 71/189/10 30/190/10 74/191/10
f 82/187/10 30/190/10 71/189/10
f 82/187/10 31/192/10 30/190/10
f 83/193/10 31/192/10 55/194/10
f 31/192/10 41/186/10 55/194/10
f 55/194/10 57/195/10 83/193/10
f 77/196/10 31/192/10 83/193/10
f 57/195/10 77/196/10 83/193/10
f 41/186/10 31/192/10 82/187/10
f 78/194/10 35/180/10 36/197/10
f 73/186/10 35/180/10 78/194/10
f 35/180/10 73/186/10 51/174/10
f 73/186/10 53/188/10 51/174/10
f 84/73/19 85/198/19 86/199/19
f 84/73/19 87/74/19 85/198/19
f 88/78/11 89/139/11 90/75/11
f 88/78/11 91/200/11 92/201/11
f 90/75/11 93/76/11 94/202/11
f 91/200/11 94/202/11 95/203/11
f 95/203/11 94/202/11 93/76/11
f 88/78/11 90/75/11 94/202/11
f 88/78/11 94/202/11 91/200/11
f 96/204/11 97/205/11 98/79/11
f 98/79/11 99/80/11 96/204/11
f 91/200/19 100/206/19 92/201/19
f 101/207/19 100/206/19 91/200/19
f 102/208/11 103/69/11 104/70/11
f 105/209/11 103/69/11 102/208/11
f 106/61/11 105/209/11 102/208/11
f 106/61/11 102/208/11 107/67/11
f 107/67/11 108/64/11 106/61/11
f 107/67/11 109/68/11 108/64/11
f 93/210/4 110/211/4 111/212/4
f 90/172/4 110/211/4 93/210/4
f 112/213/12 86/214/12 85/215/12
f 86/214/12 112/213/12 113/216/12
f 103/153/12 114/168/13 115/217/13
f 103/153/12 115/217/13 116/218/12
f 114/168/13 97/219/4 115/217/13
f 114/168/13 98/220/4 97/219/4
f 112/213/4 117/221/4 113/216/4
f 118/222/4 117/221/4 112/213/4
f 119/223/12 120/224/12 121/225/12
f 99/220/12 120/224/12 119/223/12
f 104/153/4 119/223/4 102/157/4
f 121/225/4 102/157/4 119/223/4
f 122/226/5 98/227/5 123/228/5
f 122/226/5 114/174/5 98/227/5
f 84/177/5 122/226/5 123/228/5
f 113/229/5 122/226/5 84/177/5
f 113/229/5 124/181/5 122/226/5
f 114/174/5 124/181/5 103/180/5
f 125/230/5 124/181/5 113/229/5
f 117/231/5 125/230/5 113/229/5
f 124/181/5 125/230/5 126/197/5
f 103/180/5 126/197/5 104/195/5
f 125/230/5 127/232/5 126/197/5
f 125/230/5 108/184/5 127/232/5
f 108/184/5 109/196/5 127/232/5
f 126/197/5 127/232/5 109/196/5
f 128/192/5 126/197/5 109/196/5
f 104/195/5 126/197/5 129/233/5
f 101/234/5 129/233/5 128/192/5
f 104/195/5 129/233/5 119/235/5
f 119/235/5 129/233/5 101/234/5
f 119/235/5 101/234/5 99/236/5
f 91/237/5 130/187/5 99/236/5
f 91/237/5 95/238/5 130/187/5
f 99/236/5 95/238/5 98/227/5
f 95/238/5 123/228/5 98/227/5
f 123/228/5 95/238/5 111/178/5
f 111/178/5 95/238/5 93/173/5
f 84/177/5 123/228/5 111/178/5
f 95/238/5 99/236/5 130/187/5
f 91/237/5 99/236/5 101/234/5
f 113/229/5 84/177/5 86/179/5
f 114/174/5 122/226/5 124/181/5
f 128/192/5 131/239/5 101/234/5
f 128/192/5 129/233/5 126/197/5
f 126/197/5 103/180/5 124/181/5
f 119/235/5 103/180/5 126/197/5
f 99/236/5 103/180/5 119/235/5
f 103/180/5 99/236/5 114/174/5
f 99/236/5 98/227/5 114/174/5
f 118/240/6 132/147/6 117/241/6
f 117/241/6 132/147/6 125/149/6
f 133/242/20 131/243/20 134/148/20
f 134/148/20 131/243/20 128/150/20
f 116/244/14 126/145/14 103/143/14
f 126/145/14 116/244/14 135/245/14
f 87/131/6 84/129/6 110/76/6
f 111/75/6 110/76/6 84/129/6
f 136/132/6 120/246/6 98/139/6
f 98/139/6 120/246/6 99/138/6
f 132/247/7 106/248/7 108/91/7
f 132/247/7 108/91/7 125/161/7
f 109/91/7 134/249/7 128/250/7
f 107/100/7 134/249/7 109/91/7
f 131/251/16 133/252/16 100/253/16
f 131/251/16 100/253/16 101/154/16
f 135/254/7 137/255/15 119/256/15
f 135/254/7 119/256/15 126/257/7
f 137/255/15 99/258/16 119/256/15
f 137/255/15 96/259/16 99/258/16
f 114/92/16 103/91/16 138/260/16
f 105/248/16 138/260/16 103/91/16
f 88/261/7 136/262/7 89/84/7
f 136/262/7 138/260/7 89/84/7
f 136/262/7 98/258/7 138/260/7
f 138/260/7 98/258/7 114/92/7
f 138/104/10 90/107/10 89/263/10
f 138/104/10 139/264/10 90/107/10
f 90/107/10 139/264/10 87/108/10
f 110/106/10 90/107/10 87/108/10
f 139/264/10 138/104/10 105/111/10
f 139/264/10 105/111/10 85/115/10
f 85/115/10 105/111/10 140/110/10
f 112/265/10 85/115/10 140/110/10
f 112/265/10 140/110/10 105/111/10
f 112/265/10 105/111/10 118/266/10
f 106/126/10 118/266/10 105/111/10
f 132/267/10 118/266/10 106/126/10
f 87/108/10 139/264/10 85/115/10
f 141/113/10 120/268/10 136/269/10
f 134/117/10 120/268/10 141/113/10
f 136/269/10 88/263/10 92/270/10
f 136/269/10 92/270/10 141/113/10
f 133/271/10 141/113/10 92/270/10
f 134/117/10 141/113/10 133/271/10
f 133/271/10 92/270/10 100/272/10
f 134/117/10 142/273/10 121/274/10
f 120/268/10 134/117/10 121/274/10
f 134/117/10 107/123/10 142/273/10
f 102/122/10 121/274/10 142/273/10
f 107/123/10 102/122/10 142/273/10
f 96/268/10 115/104/10 97/269/10
f 115/104/10 96/268/10 116/111/10
f 137/274/10 116/111/10 96/268/10
f 116/111/10 137/274/10 135/120/10
usemtl c_ffa947_neon
f 143/275/11 144/276/11 145/277/11
f 144/276/11 143/275/11 146/278/11
f 146/279/4 147/280/4 148/281/4
f 146/279/4 148/281/4 144/282/4
f 145/283/5 148/284/5 149/285/5
f 148/284/5 145/283/5 144/286/5
f 149/275/6 147/276/6 150/277/6
f 147/276/6 149/275/6 148/278/6
f 145/281/7 149/282/7 143/280/7
f 149/282/7 150/279/7 143/280/7
f 150/283/10 146/284/10 143/285/10
f 146/284/10 150/283/10 147/286/10
usemtl c_ffa947_shiny
f 151/287/11 152/288/11 153/289/11
f 153/289/11 152/288/11 154/290/11
f 155/287/4 152/288/4 156/291/4
f 156/291/4 152/288/4 151/292/4
f 152/287/5 155/288/5 154/289/5
f 154/289/5 155/288/5 157/290/5
f 155/287/6 156/288/6 157/289/6
f 157/289/6 156/288/6 158/290/6
f 158/287/7 153/288/7 157/291/7
f 157/291/7 153/288/7 154/292/7
f 156/287/10 151/288/10 158/289/10
f 158/289/10 151/288/10 153/290/10
o E3
usemtl c_ff8102
f 159/293/6 160/294/6 161/295/6
f 160/294/6 159/293/6 162/296/6
f 163/295/6 164/297/6 165/298/6
f 165/298/6 166/293/6 163/295/6
f 167/296/6 168/299/6 169/300/6
f 168/299/6 167/296/6 170/301/6
f 171/302/6 172/303/6 173/304/6
f 172/303/6 171/302/6 174/295/6
f 174/295/6 175/305/6 172/303/6
f 176/299/6 177/306/6 178/307/6
f 178/307/6 177/306/6 179/308/6
f 180/309/6 181/310/6 182/311/6
f 182/311/6 183/312/6 180/309/6
f 167/313/21 162/314/21 184/315/21
f 185/316/21 166/317/21 186/318/21
f 166/317/21 165/319/21 186/318/21
f 170/320/22 187/321/22 168/322/22
f 188/323/22 168/322/22 187/321/22
f 189/324/22 190/325/22 191/326/22
f 169/327/22 162/314/22 167/313/22
f 172/328/23 175/329/23 192/330/23
f 193/331/23 192/330/23 175/329/23
f 183/332/24 194/333/24 195/334/24
f 183/332/24 182/335/24 194/333/24
f 196/336/25 180/337/25 195/338/25
f 183/339/25 195/338/25 180/337/25
f 181/340/26 173/341/26 172/342/26
f 197/343/26 173/341/26 181/340/26
f 182/344/26 181/340/26 172/342/26
f 197/343/26 181/340/26 198/345/26
f 194/346/26 182/344/26 172/342/26
f 198/345/26 192/347/26 197/343/26
f 194/346/26 172/342/26 192/347/26
f 192/347/26 198/345/26 194/346/26
f 199/348/22 178/349/22 179/350/22
f 200/351/22 178/349/22 199/348/22
f 201/352/22 169/353/22 190/354/22
f 189/355/22 201/352/22 190/354/22
f 201/352/22 160/356/22 169/353/22
f 160/356/22 162/357/22 169/353/22
f 163/358/27 161/359/27 160/356/27
f 163/358/27 160/356/27 174/360/27
f 163/358/27 174/360/27 171/361/27
f 175/362/27 160/356/27 201/352/27
f 193/363/27 175/362/27 201/352/27
f 193/363/27 201/352/27 202/364/27
f 202/364/27 201/352/27 203/365/27
f 204/366/27 205/367/27 202/364/27
f 206/368/27 176/369/27 200/351/27
f 178/349/27 200/351/27 176/369/27
f 184/370/11 203/371/11 189/372/11
f 189/372/11 203/371/11 201/373/11
f 207/374/11 202/371/11 185/370/11
f 186/375/11 207/374/11 185/370/11
f 187/376/11 191/372/11 190/377/11
f 190/377/11 188/378/11 187/376/11
f 197/379/11 193/380/11 205/371/11
f 193/380/11 197/379/11 192/381/11
f 205/371/11 204/382/11 197/379/11
f 195/383/11 194/384/11 198/385/11
f 195/383/11 198/385/11 196/386/11
f 208/387/11 206/378/11 199/388/11
f 200/389/11 199/388/11 206/378/11
f 180/390/28 196/391/28 181/392/28
f 181/392/28 196/391/28 198/393/28
f 171/394/29 173/395/29 204/396/29
f 197/397/29 204/396/29 173/395/29
f 175/331/27 174/398/27 160/399/27
f 164/400/27 163/401/27 171/394/27
f 164/400/27 171/394/27 204/396/27
f 207/402/27 164/400/27 204/396/27
f 204/396/27 202/403/27 207/402/27
f 202/403/27 205/404/27 193/329/27
f 190/327/27 169/325/27 188/322/27
f 169/325/27 168/323/27 188/322/27
f 199/405/21 179/406/21 208/407/21
f 179/406/21 177/408/21 208/407/21
f 165/409/30 164/410/30 207/411/30
f 186/412/30 165/409/30 207/411/30
f 170/413/21 167/414/21 191/415/21
f 187/416/21 170/413/21 191/415/21
f 191/415/21 167/414/21 184/417/21
f 191/415/21 184/417/21 189/357/21
f 184/417/21 162/355/21 185/418/21
f 162/355/21 166/419/21 185/418/21
f 159/420/21 166/419/21 162/355/21
f 185/418/30 202/421/30 203/359/30
f 184/417/30 185/418/30 203/359/30
f 163/422/30 159/420/30 161/365/30
f 159/420/30 163/422/30 166/419/30
f 208/407/30 177/408/30 206/423/30
f 177/408/30 176/424/30 206/423/30
f 209/425/11 210/426/11 211/427/11
f 211/427/11 210/426/11 212/428/11
f 213/429/4 210/426/4 214/430/4
f 214/430/4 210/426/4 209/431/4
f 210/429/5 213/426/5 212/432/5
f 212/432/5 213/426/5 215/428/5
f 213/425/6 214/426/6 215/427/6
f 215/427/6 214/426/6 216/428/6
f 216/429/7 211/426/7 215/430/7
f 215/430/7 211/426/7 212/431/7
f 214/429/10 209/426/10 216/432/10
f 216/432/10 209/426/10 211/428/10
f 217/433/11 218/434/11 219/435/11
f 219/435/11 218/434/11 220/436/11
f 221/433/4 218/434/4 222/437/4
f 222/437/4 218/434/4 217/438/4
f 218/433/5 221/434/5 220/435/5
f 220/435/5 221/434/5 223/436/5
f 221/433/6 222/434/6 223/435/6
f 223/435/6 222/434/6 224/436/6
f 224/433/7 219/434/7 223/437/7
f 223/437/7 219/434/7 220/438/7
f 222/433/10 217/434/10 224/435/10
f 224/435/10 217/434/10 219/436/10
usemtl c_ffc98b
f 225/439/6 226/440/6 227/441/6
f 226/440/6 225/439/6 228/442/6
f 229/443/6 230/444/6 231/442/6
f 231/442/6 230/444/6 232/445/6
f 233/446/6 234/447/6 235/448/6
f 234/447/6 233/446/6 236/439/6
f 237/449/6 238/450/6 239/451/6
f 238/450/6 237/449/6 240/452/6
f 241/453/22 234/454/22 242/455/22
f 235/456/21 241/453/21 243/457/21
f 232/458/21 230/459/21 244/460/21
f 245/461/21 232/458/21 244/460/21
f 246/462/27 228/463/27 247/464/27
f 247/464/27 228/463/27 248/465/27
f 228/463/27 236/466/27 248/465/27
f 228/463/27 225/467/27 236/466/27
f 249/468/22 233/469/22 243/470/22
f 235/471/22 243/470/22 233/469/22
f 227/472/22 242/473/22 234/474/22
f 225/467/22 227/472/22 234/474/22
f 225/467/22 234/474/22 236/466/22
f 241/475/22 242/473/22 247/464/22
f 248/465/22 241/475/22 247/464/22
f 240/476/22 250/477/22 238/478/22
f 251/479/22 238/478/22 250/477/22
f 232/480/22 245/481/22 231/482/22
f 252/483/22 231/482/22 245/481/22
f 251/479/27 239/484/27 238/478/27
f 253/485/27 239/484/27 251/479/27
f 247/486/11 242/487/11 246/488/11
f 254/489/11 246/488/11 242/487/11
f 245/490/11 255/491/11 252/488/11
f 244/492/11 255/491/11 245/490/11
f 249/493/11 243/494/11 248/486/11
f 241/495/11 248/486/11 243/494/11
f 250/496/11 253/497/11 251/498/11
f 256/499/11 253/497/11 250/496/11
f 231/500/27 252/501/27 229/502/27
f 255/503/27 229/502/27 252/501/27
f 248/504/27 236/505/27 249/506/27
f 233/507/27 249/506/27 236/505/27
f 230/508/30 229/509/30 255/510/30
f 244/511/30 230/508/30 255/510/30
f 240/512/21 237/513/21 256/514/21
f 250/515/21 240/512/21 256/514/21
f 227/473/21 226/516/21 254/517/21
f 242/472/21 227/473/21 254/517/21
f 234/518/21 241/519/21 235/470/21
f 254/517/30 226/516/30 246/463/30
f 228/462/30 246/463/30 226/516/30
f 256/514/30 237/513/30 253/520/30
f 237/513/30 239/521/30 253/520/30
f 257/522/6 258/523/6 259/524/6
f 260/525/6 258/523/6 257/522/6
f 261/524/6 262/523/6 263/526/6
f 262/523/6 264/527/6 263/526/6
f 265/528/6 261/524/6 263/526/6
f 262/523/6 266/529/6 264/527/6
f 265/528/6 267/522/6 261/524/6
f 266/529/6 262/523/6 268/525/6
f 265/528/6 268/525/6 267/522/6
f 266/529/6 268/525/6 265/528/6
f 269/530/6 270/531/6 271/532/6
f 272/533/6 271/532/6 270/531/6
f 273/534/31 274/535/31 275/536/31
f 275/536/31 274/535/31 276/537/31
f 277/538/6 278/539/6 279/527/6
f 278/539/6 277/538/6 280/540/6
f 279/527/6 281/541/6 277/538/6
f 279/527/6 282/542/6 281/541/6
f 283/543/6 284/544/6 285/545/6
f 284/544/6 283/543/6 286/546/6
f 287/547/6 288/548/6 289/546/6
f 290/549/6 287/547/6 289/546/6
f 291/550/32 292/551/32 293/552/32
f 294/553/32 292/551/32 291/550/32
f 295/554/6 296/531/6 297/555/6
f 298/530/6 296/531/6 295/554/6
f 299/556/33 291/557/33 293/558/33
f 300/559/33 291/557/33 299/556/33
f 301/560/34 275/561/34 302/562/34
f 302/562/34 275/561/34 276/563/34
f 271/564/4 272/565/4 303/566/4
f 272/565/4 304/567/4 303/566/4
f 305/568/4 306/569/4 307/570/4
f 308/571/4 305/568/4 307/570/4
f 263/572/4 309/573/4 265/574/4
f 310/575/4 265/574/4 309/573/4
f 267/576/4 257/577/4 261/578/4
f 261/578/4 257/577/4 259/579/4
f 311/580/4 312/581/4 313/582/4
f 314/583/4 312/581/4 311/580/4
f 285/584/4 284/585/4 315/586/4
f 316/587/4 285/584/4 315/586/4
f 317/588/4 290/589/4 318/590/4
f 290/589/4 289/591/4 318/590/4
f 278/592/4 280/593/4 319/594/4
f 320/595/4 319/594/4 280/593/4
f 321/596/10 283/597/10 316/598/10
f 285/599/10 316/598/10 283/597/10
f 322/600/10 287/601/10 317/602/10
f 290/603/10 317/602/10 287/601/10
f 266/604/10 265/605/10 284/599/10
f 284/599/10 265/605/10 310/606/10
f 315/598/10 284/599/10 310/606/10
f 286/597/10 266/604/10 284/599/10
f 323/607/10 315/598/10 310/606/10
f 323/607/10 324/596/10 315/598/10
f 318/602/10 286/597/10 324/596/10
f 318/602/10 289/603/10 286/597/10
f 289/603/10 266/604/10 286/597/10
f 325/600/10 318/602/10 324/596/10
f 323/607/10 325/600/10 324/596/10
f 289/603/10 288/601/10 266/604/10
f 323/607/10 288/601/10 325/600/10
f 266/604/10 288/601/10 323/607/10
f 326/608/10 273/609/10 301/610/10
f 301/610/10 273/609/10 275/611/10
f 327/612/10 294/613/10 300/614/10
f 300/614/10 294/613/10 291/615/10
f 328/616/10 269/617/10 329/618/10
f 329/618/10 269/617/10 271/619/10
f 329/618/10 271/619/10 303/620/10
f 305/621/10 295/622/10 306/623/10
f 305/621/10 298/624/10 295/622/10
f 330/625/10 298/624/10 305/621/10
f 267/626/10 260/627/10 257/628/10
f 268/629/10 260/627/10 267/626/10
f 331/630/10 332/631/10 314/632/10
f 314/632/10 332/631/10 312/633/10
f 281/634/10 282/635/10 333/636/10
f 334/637/10 333/636/10 282/635/10
f 331/638/11 314/639/11 311/640/11
f 335/641/11 331/638/11 311/640/11
f 332/638/11 336/641/11 323/642/11
f 337/643/11 323/642/11 336/641/11
f 332/638/11 323/642/11 310/644/11
f 337/643/11 336/641/11 313/640/11
f 332/638/11 310/644/11 312/639/11
f 312/639/11 310/644/11 313/640/11
f 309/645/11 337/643/11 313/640/11
f 310/644/11 309/645/11 313/640/11
f 338/646/11 330/647/11 308/648/11
f 330/647/11 305/649/11 308/648/11
f 299/650/35 339/651/35 327/652/35
f 300/653/35 299/650/35 327/652/35
f 334/654/11 340/643/11 333/655/11
f 340/643/11 320/656/11 333/655/11
f 341/657/11 333/655/11 320/656/11
f 340/643/11 319/658/11 320/656/11
f 321/659/11 316/660/11 315/661/11
f 324/662/11 321/659/11 315/661/11
f 325/663/11 317/664/11 318/662/11
f 325/663/11 322/665/11 317/664/11
f 342/666/36 326/667/36 302/668/36
f 301/669/36 302/668/36 326/667/36
f 328/647/11 329/670/11 343/671/11
f 344/646/11 328/647/11 343/671/11
f 277/672/7 281/673/7 333/674/7
f 341/675/7 277/672/7 333/674/7
f 266/676/7 334/674/7 282/673/7
f 282/673/7 264/677/7 266/676/7
f 282/673/7 279/678/7 264/677/7
f 266/676/7 323/679/7 334/674/7
f 334/674/7 323/679/7 337/680/7
f 340/681/7 334/674/7 337/680/7
f 288/682/7 322/683/7 325/684/7
f 288/682/7 287/685/7 322/683/7
f 260/583/7 268/686/7 258/580/7
f 258/580/7 268/686/7 262/687/7
f 336/688/7 332/689/7 331/577/7
f 336/688/7 331/577/7 335/579/7
f 286/690/7 321/691/7 324/692/7
f 283/693/7 321/691/7 286/690/7
f 270/694/7 269/695/7 328/696/7
f 270/694/7 328/696/7 344/697/7
f 296/698/7 330/699/7 338/700/7
f 296/698/7 298/701/7 330/699/7
f 343/697/37 326/702/37 342/703/37
f 343/697/37 329/696/37 326/702/37
f 329/696/37 303/704/37 326/702/37
f 303/704/37 273/705/37 326/702/37
f 303/704/37 274/706/37 273/705/37
f 274/706/37 303/704/37 304/707/37
f 306/708/38 294/709/38 327/710/38
f 306/708/38 327/710/38 307/711/38
f 307/711/38 327/710/38 339/712/38
f 294/709/38 306/708/38 295/701/38
f 292/713/38 294/709/38 295/701/38
f 292/713/38 295/701/38 297/698/38
f 277/714/5 341/715/5 280/716/5
f 320/717/5 280/716/5 341/715/5
f 264/718/5 279/719/5 278/716/5
f 263/720/5 264/718/5 278/716/5
f 263/720/5 278/716/5 319/717/5
f 319/717/5 309/721/5 263/720/5
f 319/717/5 337/722/5 309/721/5
f 319/717/5 340/723/5 337/722/5
f 336/724/5 335/627/5 313/725/5
f 313/725/5 335/627/5 311/628/5
f 262/726/5 259/632/5 258/630/5
f 259/632/5 262/726/5 261/727/5
f 345/728/5 304/729/5 343/730/5
f 304/729/5 272/731/5 343/730/5
f 272/731/5 344/732/5 343/730/5
f 270/733/5 344/732/5 272/731/5
f 343/730/5 342/734/5 345/728/5
f 276/735/5 304/729/5 345/728/5
f 276/735/5 345/728/5 342/734/5
f 276/735/5 274/612/5 304/729/5
f 302/736/5 276/735/5 342/734/5
f 297/737/5 296/738/5 338/739/5
f 346/740/5 297/737/5 338/739/5
f 307/741/5 346/740/5 338/739/5
f 307/741/5 338/739/5 308/742/5
f 293/743/5 297/737/5 346/740/5
f 293/743/5 346/740/5 307/741/5
f 293/743/5 292/744/5 297/737/5
f 307/741/5 339/609/5 293/743/5
f 299/745/5 293/743/5 339/609/5
usemtl c_000000
f 347/746/6 348/747/6 349/748/6
f 350/749/6 348/747/6 347/746/6
f 351/750/6 352/751/6 353/752/6
f 353/752/6 352/751/6 354/753/6
f 355/754/6 356/755/6 357/756/6
f 358/757/6 356/755/6 355/754/6
f 359/758/4 348/759/4 360/760/4
f 360/760/4 348/759/4 350/761/4
f 361/762/4 356/763/4 362/764/4
f 362/764/4 356/763/4 358/765/4
f 352/766/4 363/767/4 364/768/4
f 351/769/4 363/767/4 352/766/4
f 354/770/10 364/771/10 365/772/10
f 352/773/10 364/771/10 354/770/10
f 348/774/10 359/775/10 349/776/10
f 349/776/10 359/775/10 366/777/10
f 357/778/10 361/779/10 367/780/10
f 356/781/10 361/779/10 357/778/10
f 367/782/11 362/783/11 368/784/11
f 361/785/11 362/783/11 367/782/11
f 365/786/11 363/787/11 369/788/11
f 364/789/11 363/787/11 365/786/11
f 366/790/11 360/791/11 370/792/11
f 359/793/11 360/791/11 366/790/11
f 353/794/7 365/795/7 369/796/7
f 354/797/7 365/795/7 353/794/7
f 367/798/7 355/799/7 357/800/7
f 368/801/7 355/799/7 367/798/7
f 370/802/7 347/803/7 366/804/7
f 366/804/7 347/803/7 349/805/7
f 370/806/5 350/807/5 347/808/5
f 360/809/5 350/807/5 370/806/5
f 368/810/5 358/811/5 355/812/5
f 362/813/5 358/811/5 368/810/5
f 363/814/5 351/815/5 369/816/5
f 369/816/5 351/815/5 353/817/5
usemtl c_ffffff
f 371/818/6 372/819/6 373/820/6
f 374/821/6 372/819/6 371/818/6
f 375/822/6 376/823/6 377/824/6
f 378/825/6 376/823/6 375/822/6
f 379/826/4 372/827/4 374/828/4
f 380/829/4 372/827/4 379/826/4
f 381/830/4 376/831/4 378/832/4
f 382/833/4 376/831/4 381/830/4
f 373/834/10 380/835/10 383/836/10
f 372/837/10 380/835/10 373/834/10
f 377/838/10 382/839/10 384/840/10
f 376/841/10 382/839/10 377/838/10
f 384/842/11 381/843/11 385/844/11
f 382/845/11 381/843/11 384/842/11
f 383/818/11 379/819/11 386/820/11
f 380/821/11 379/819/11 383/818/11
f 385/846/7 375/847/7 384/848/7
f 384/848/7 375/847/7 377/849/7
f 386/850/7 371/851/7 383/852/7
f 383/852/7 371/851/7 373/853/7
f 386/854/5 374/855/5 371/856/5
f 379/857/5 374/855/5 386/854/5
f 385/858/5 378/859/5 375/860/5
f 381/861/5 378/859/5 385/858/5
usemtl c_ff8102_neon
f 387/862/11 388/863/11 389/864/11
f 388/863/11 387/862/11 390/865/11
f 390/866/4 391/867/4 392/868/4
f 390/866/4 392/868/4 388/869/4
f 389/862/5 392/863/5 393/864/5
f 392/863/5 389/862/5 388/865/5
f 393/862/6 391/863/6 394/864/6
f 391/863/6 393/862/6 392/865/6
f 389/868/7 393/869/7 387/867/7
f 393/869/7 394/866/7 387/867/7
f 394/862/10 390/863/10 387/864/10
f 390/863/10 394/862/10 391/865/10
o E2D
usemtl c_ca6602
f 395/870/11 396/871/11 397/872/11
f 397/872/11 396/871/11 398/873/11
f 399/870/4 396/871/4 400/874/4
f 400/874/4 396/871/4 395/875/4
f 396/870/5 399/871/5 398/872/5
f 398/872/5 399/871/5 401/873/5
f 399/870/6 400/871/6 401/872/6
f 401/872/6 400/871/6 402/873/6
f 402/870/7 397/871/7 401/874/7
f 401/874/7 397/871/7 398/875/7
f 400/870/10 395/871/10 402/872/10
f 402/872/10 395/871/10 397/873/10
usemtl c_ca6602_neon
f 403/876/11 404/877/11 405/878/11
f 404/877/11 403/876/11 406/879/11
f 406/880/4 407/881/4 408/882/4
f 406/880/4 408/882/4 404/883/4
f 405/884/5 408/885/5 409/886/5
f 408/885/5 405/884/5 404/887/5
f 409/876/6 407/877/6 410/878/6
f 407/877/6 409/876/6 408/879/6
f 405/882/7 409/883/7 403/881/7
f 409/883/7 410/880/7 403/881/7
f 410/884/10 406/885/10 403/886/10
f 406/885/10 410/884/10 407/887/10
o E1D
usemtl c_8c4b00_shiny
f 411/888/11 412/889/11 413/890/11
f 413/890/11 412/889/11 414/891/11
f 415/888/4 412/889/4 416/892/4
f 416/892/4 412/889/4 411/893/4
f 412/888/5 415/889/5 414/890/5
f 414/890/5 415/889/5 417/891/5
f 415/888/6 416/889/6 417/890/6
f 417/890/6 416/889/6 418/891/6
f 418/888/7 413/889/7 417/892/7
f 417/892/7 413/889/7 414/893/7
f 416/888/10 411/889/10 418/890/10
f 418/890/10 411/889/10 413/891/10
usemtl c_ca6602_neon
f 419/894/11 420/895/11 421/896/11
f 420/895/11 419/894/11 422/897/11
f 422/898/4 423/899/4 424/900/4
f 422/898/4 424/900/4 420/901/4
f 421/902/5 424/903/5 425/904/5
f 424/903/5 421/902/5 420/905/5
f 425/894/6 423/895/6 426/896/6
f 423/895/6 425/894/6 424/897/6
f 421/900/7 425/901/7 419/899/7
f 425/901/7 426/898/7 419/899/7
f 426/902/10 422/903/10 419/904/10
f 422/903/10 426/902/10 423/905/10
o E1U
usemtl c_ffc98b_neon
f 427/906/11 428/907/11 429/908/11
f 428/907/11 427/906/11 430/909/11
f 430/910/4 431/911/4 432/912/4
f 430/910/4 432/912/4 428/913/4
f 429/914/5 432/915/5 433/916/5
f 432/915/5 429/914/5 428/917/5
f 433/906/6 431/907/6 434/908/6
f 431/907/6 433/906/6 432/909/6
f 429/912/7 433/913/7 427/911/7
f 433/913/7 434/910/7 427/911/7
f 434/914/10 430/915/10 427/916/10
f 430/915/10 434/914/10 431/917/10
usemtl c_ffc98b_shiny
f 435/918/11 436/919/11 437/920/11
f 437/920/11 436/919/11 438/921/11
f 439/918/4 436/919/4 440/922/4
f 440/922/4 436/919/4 435/923/4
f 436/918/5 439/919/5 438/920/5
f 438/920/5 439/919/5 441/921/5
f 439/918/6 440/919/6 441/920/6
f 441/920/6 440/919/6 442/921/6
f 442/918/7 437/919/7 441/922/7
f 441/922/7 437/919/7 438/923/7
f 440/918/10 435/919/10 442/920/10
f 442/920/10 435/919/10 437/921/10
