# Roblox asset pack: egg_pachycephalosaurus (props), from the Studio model "Pachycephalosaurus". Exported with Export Selection, split by tools/build_creatures.py: one object per rigid body. Units: studs. +Y up, front faces -Z, pivot (bottom centre) at the origin.
mtllib egg_pachycephalosaurus.mtl

v -1.83842 5.88000 -1.84000
v 1.83842 5.88000 -1.84000
v -1.83842 0.00000 -1.84000
v 1.83842 0.00000 -1.84000
v 1.83842 5.88000 1.84000
v -1.83842 5.88000 1.84000
v 1.83842 0.00000 1.84000
v -1.83842 0.00000 1.84000
v -2.20610 3.68000 -2.21000
v 2.20610 3.68000 -2.21000
v -2.20610 0.74000 -2.21000
v 2.20610 0.74000 -2.21000
v 2.20610 3.68000 2.21000
v -2.20610 3.68000 2.21000
v 2.20610 0.74000 2.21000
v -2.20610 0.74000 2.21000
vt 2.45960 -1.25000
vt 2.00000 -1.25000
vt 2.45960 -1.98537
vt 2.00000 -1.98537
vt 2.45960 -1.70960
vt 2.00000 -1.70960
vt 8.30153 -5.50000
vt 7.75000 -5.50000
vt 8.30153 -5.86768
vt 7.75000 -5.86768
vt 8.30153 -6.05153
vt 7.75000 -6.05153
vn 0.0000 0.0000 -1.0000
vn 0.0000 1.0000 0.0000
vn 1.0000 0.0000 0.0000
vn 0.0000 0.0000 1.0000
vn 0.0000 -1.0000 0.0000
vn -1.0000 0.0000 0.0000

o egg_pachycephalosaurus
usemtl c_d3be96
f 1/1/1 2/2/1 3/3/1
f 3/3/1 2/2/1 4/4/1
f 5/1/2 2/2/2 6/5/2
f 6/5/2 2/2/2 1/6/2
f 2/1/3 5/2/3 4/3/3
f 4/3/3 5/2/3 7/4/3
f 5/1/4 6/2/4 7/3/4
f 7/3/4 6/2/4 8/4/4
f 8/1/5 3/2/5 7/5/5
f 7/5/5 3/2/5 4/6/5
f 6/1/6 1/2/6 8/3/6
f 8/3/6 1/2/6 3/4/6
usemtl c_cc8e69
f 9/7/1 10/8/1 11/9/1
f 11/9/1 10/8/1 12/10/1
f 13/7/2 10/8/2 14/11/2
f 14/11/2 10/8/2 9/12/2
f 10/7/3 13/8/3 12/9/3
f 12/9/3 13/8/3 15/10/3
f 13/7/4 14/8/4 15/9/4
f 15/9/4 14/8/4 16/10/4
f 16/7/5 11/8/5 15/11/5
f 15/11/5 11/8/5 12/12/5
f 14/7/6 9/8/6 16/9/6
f 16/9/6 9/8/6 11/10/6
