# Roblox asset pack: egg_designer_9 (props), from the Studio model "Egg9". Exported with Export Selection, split by tools/build_creatures.py: one object per rigid body. Units: studs. +Y up, front faces -Z, pivot (bottom centre) at the origin.
mtllib egg_designer_9.mtl

v 0.88104 6.97000 -0.99000
v 1.21284 6.01000 -1.77000
v 0.36501 6.03000 -2.10000
v 0.10300 6.34000 -1.92000
v 0.27347 7.09000 -1.13000
v -1.91306 2.71000 -1.88000
v -1.24942 2.81000 -2.35000
v -1.99772 1.97000 -1.14000
v -0.64645 1.31000 -1.30000
v -0.29518 2.37000 -2.49000
v -0.95765 5.92000 -1.95000
v -1.11212 4.96000 -2.37000
v -1.89475 5.78000 -1.33000
v -1.88214 4.92000 -1.82000
v -1.53433 6.24000 -1.34000
v 0.48856 3.62000 -2.69000
v -0.92219 4.71000 -2.52000
v -0.12927 4.68000 -2.65000
v -2.23341 3.79000 -1.62000
v 1.86732 2.60000 -1.74000
v 1.50803 3.61000 -2.29000
v 1.69110 4.16000 -2.08000
v 1.26548 1.83000 -1.66000
v 0.02173 1.84000 -2.01000
v 1.57212 5.55000 -1.76000
v 1.13620 7.13000 -0.27000
v 0.17165 7.54000 -0.12000
v 0.97028 7.20000 0.41000
v 0.28492 7.50000 0.45000
v 1.02861 7.17000 -0.41000
v -0.21050 7.52000 -0.43000
v -0.71852 7.44000 -0.31000
v -0.70593 6.31000 1.95000
v -0.32723 7.38000 0.78000
v -1.65104 5.97000 1.12000
v -0.86498 7.36000 0.28000
v -1.85470 6.38000 0.36000
v 1.99087 5.64000 0.89000
v 1.94511 6.19000 -0.07000
v 1.48860 6.26000 0.94000
v 2.28723 5.32000 -0.70000
v 2.41880 2.37000 0.13000
v 1.54922 1.60000 0.91000
v 1.86615 1.65000 0.25000
v 2.48858 2.65000 0.41000
v 2.07556 2.65000 1.36000
v 1.78952 2.41000 1.62000
v 2.54236 3.82000 0.91000
v 2.66136 3.59000 0.51000
v 1.37533 1.36000 -0.38000
v 2.43481 2.92000 -0.98000
v 2.58698 3.72000 -0.82000
v 2.66136 4.04000 -0.58000
v 2.18884 4.86000 1.21000
v -1.22426 1.69000 1.54000
v -0.92907 2.77000 2.40000
v -1.19795 2.61000 2.25000
v -0.09723 1.60000 1.62000
v -0.00341 2.70000 2.47000
v 0.24716 2.34000 2.23000
v -0.40616 3.82000 2.69000
v 0.38905 3.51000 2.69000
v 0.12586 3.81000 2.73000
v -1.98058 3.58000 1.81000
v -0.88900 4.53000 2.43000
v -1.81694 4.49000 1.91000
v 0.32955 5.03000 2.37000
v 1.07324 5.10000 2.02000
v 0.74716 3.45000 2.55000
v 1.43938 2.57000 1.94000
v 1.35586 4.80000 1.96000
v -1.89588 1.79000 0.01000
v -0.64303 1.12000 -0.45000
v -2.19567 1.94000 -0.53000
v -0.50687 1.11000 -0.71000
v 0.70254 1.11000 -0.11000
v -0.51715 1.15000 0.34000
v 0.54234 1.14000 0.61000
v -2.05036 1.92000 0.52000
v -1.28376 1.65000 1.44000
v 0.68307 1.24000 0.92000
v -2.46225 5.21000 -0.30000
v -2.65333 3.18000 0.04000
v -2.47712 2.96000 0.65000
v -2.68650 4.03000 -0.42000
v 0.77459 7.12000 -0.88000
v 1.09156 6.23000 -1.61000
v 0.32723 6.26000 -1.89000
v 0.10641 6.52000 -1.73000
v 0.25745 7.22000 -0.99000
v -0.87645 6.13000 -1.77000
v -1.01030 5.25000 -2.17000
v -1.71284 6.02000 -1.22000
v -1.70712 5.23000 -1.66000
v -1.39246 6.42000 -1.22000
v -1.37074 2.45000 -2.35000
v -0.05033 4.24000 -2.69000
v 0.56064 3.23000 -2.72000
v -1.05035 4.26000 -2.52000
v -0.30205 1.98000 -2.44000
v 1.82496 2.19000 -1.72000
v 1.45767 3.22000 -2.37000
v 1.23913 1.51000 -1.64000
v 0.00571 1.52000 -1.99000
v -0.20366 4.90000 -2.51000
v 1.62129 4.39000 -1.92000
v 0.37758 3.86000 -2.59000
v 1.52176 3.85000 -2.15000
v 1.41992 5.81000 -1.60000
v -0.78720 4.95000 -2.39000
v -2.14191 4.07000 -1.44000
v -1.07553 3.12000 -2.27000
v -1.87187 3.00000 -1.71000
v -3.46685 3.48000 -0.59000
v -2.70827 2.81000 0.13000
v -3.46341 2.51000 0.02000
v -2.76775 3.64000 -0.35000
v 3.12250 4.30000 1.08000
v 2.03321 5.07000 1.21000
v 2.74486 5.39000 1.50000
v 2.39019 4.08000 0.99000
v 2.51259 4.27000 -0.52000
v 3.11790 4.09000 -1.12000
v 2.48859 3.95000 -0.73000
v -1.63960 4.73000 1.87000
v -2.51603 3.98000 2.11000
v -2.33298 4.98000 2.28000
v -1.80321 3.87000 1.86000
v 2.22884 2.61000 1.46000
v 0.83409 3.43000 2.72000
v 2.71511 3.83000 0.99000
v 1.46681 4.84000 2.11000
v 1.53550 2.50000 2.09000
v 1.91076 2.33000 1.74000
v 2.34783 4.91000 1.30000
v 2.14762 5.73000 0.97000
v 1.15905 5.18000 2.18000
v 1.60186 6.37000 1.06000
v 0.14417 3.83000 2.92000
v 0.43135 3.49000 2.88000
v 0.37072 5.10000 2.55000
v -0.74486 6.42000 2.10000
v 1.07209 7.35000 0.49000
v 0.32953 7.67000 0.52000
v -0.34897 7.54000 0.89000
v -0.95883 4.57000 2.60000
v -0.44738 3.83000 2.89000
v -0.98171 2.71000 2.58000
v -2.13159 3.57000 1.93000
v -1.28833 2.54000 2.41000
v -1.96111 4.52000 2.03000
v -1.79294 6.06000 1.22000
v 0.27574 2.23000 2.39000
v 0.00457 2.62000 2.65000
v -0.09267 1.45000 1.74000
v -1.30321 1.56000 1.67000
v 3.25400 3.30000 1.30000
v 1.79293 4.35000 2.58000
v 2.77692 4.42000 1.68000
v 1.07209 2.84000 3.29000
v 2.73802 1.97000 1.81000
v 1.85927 1.82000 2.59000
v 2.31580 1.62000 2.17000
v 1.74371 5.29000 2.47000
v 1.05723 3.84000 3.07000
v 0.21740 4.27000 3.36000
v 0.58583 3.92000 3.28000
v 0.47484 5.64000 2.97000
v 1.37070 5.74000 2.56000
v 1.88101 6.98000 1.32000
v 1.32610 8.02000 0.68000
v -0.83868 7.03000 2.48000
v 0.44164 8.40000 0.70000
v -0.40162 8.24000 1.15000
v 2.53665 6.28000 1.16000
v -1.12015 5.02000 3.01000
v -0.51372 4.26000 3.29000
v -2.14535 6.60000 1.46000
v -0.58810 3.29000 3.50000
v -1.17850 2.05000 3.16000
v -2.59385 2.98000 2.36000
v -1.59842 1.85000 2.92000
v -1.20139 4.10000 3.13000
v -2.31009 4.04000 2.50000
v 0.12930 3.25000 3.52000
v 0.01374 1.89000 3.22000
v 0.51830 2.86000 3.48000
v 0.36042 1.44000 2.90000
v -1.57555 0.74000 2.03000
v -0.09267 0.58000 2.12000
v 0.91077 7.30000 -0.35000
v 0.14189 7.62000 -0.10000
v 0.85356 7.33000 0.33000
v 0.23685 7.59000 0.37000
v 0.98970 7.27000 -0.25000
v -0.18995 7.61000 -0.36000
v -0.62244 7.54000 -0.26000
v -0.65217 6.51000 1.76000
v -0.29863 7.49000 0.67000
v -1.47828 6.21000 1.00000
v -0.74488 7.47000 0.25000
v -1.66591 6.58000 0.31000
v 1.32838 5.01000 1.80000
v 0.75860 3.69000 2.40000
v 0.28033 3.76000 2.59000
v 2.53894 3.81000 0.51000
v 3.26550 4.03000 0.60000
v 0.05035 4.06000 2.59000
v 3.29180 4.51000 -0.72000
v -0.46110 4.05000 2.57000
v -0.89130 4.74000 2.27000
v 2.09613 4.62000 -2.58000
v 0.64646 4.04000 -3.28000
v 1.79293 4.03000 -2.83000
v -2.33526 3.21000 0.60000
v -3.05266 3.32000 0.85000
v -3.25403 3.57000 0.15000
v -2.53091 3.46000 -0.09000
v -0.08010 5.19000 -3.28000
v -1.11785 5.17000 -3.13000
v -2.51491 4.28000 -0.46000
v -2.75174 4.18000 -2.00000
v -3.33527 4.46000 -0.43000
v -1.50917 3.13000 -2.89000
v -2.31122 3.02000 -2.32000
v 0.72426 1.08000 1.00000
v 1.64877 1.46000 0.99000
v -0.52977 0.93000 -0.75000
v 0.74144 0.93000 -0.12000
v 1.35127 1.70000 -1.77000
v 0.03204 1.71000 -2.15000
v -0.68650 1.15000 -1.39000
v 1.46681 1.19000 -0.43000
v 1.99889 1.51000 0.26000
v 0.56523 0.96000 0.66000
v -0.55721 0.97000 0.37000
v -1.38217 1.51000 1.52000
v -0.69908 0.94000 -0.45000
v -2.01832 1.64000 0.02000
v -2.19453 1.81000 0.57000
v -0.31008 2.29000 -2.66000
v -2.13046 1.86000 -1.22000
v -2.35016 1.83000 -0.55000
v 0.85471 0.18000 1.24000
v 1.97598 0.61000 1.22000
v 0.05608 0.88000 -2.61000
v 0.86384 0.00000 -0.18000
v 1.62817 0.88000 -2.16000
v -0.62015 0.00000 -0.89000
v -0.82723 0.26000 -1.68000
v 1.76318 0.31000 -0.55000
v 2.42107 0.67000 0.29000
v 0.63960 0.03000 0.77000
v -0.68650 0.05000 0.46000
v -1.70712 0.66000 1.78000
v -1.58696 2.07000 -3.06000
v -0.37187 1.59000 -3.26000
v -2.58470 1.07000 -1.49000
v -0.87414 0.02000 -0.50000
v -2.43139 0.78000 0.03000
v -2.67623 1.01000 0.72000
v -2.87303 1.05000 -0.66000
v 1.34898 1.09000 -0.37000
v 2.37989 2.48000 -0.97000
v 2.36501 1.99000 0.13000
v 1.82612 1.35000 0.25000
v 2.42795 2.23000 0.38000
v 1.52404 1.31000 0.86000
v 2.01947 2.22000 1.31000
v 1.75172 2.01000 1.57000
v 2.61445 3.39000 0.79000
v 2.67852 3.22000 0.51000
v 1.74717 6.40000 -0.07000
v 2.07211 5.60000 -0.65000
v 2.57438 3.32000 -0.85000
v 2.69684 3.66000 -0.65000
v 1.64533 3.75000 -2.17000
v 1.34898 6.45000 0.83000
v 1.79977 5.89000 0.79000
v 0.67164 3.06000 2.59000
v 1.28034 4.34000 2.02000
v -2.08697 3.16000 1.73000
v -1.93937 4.04000 1.85000
v -1.17850 4.21000 -3.27000
v -2.87876 4.05000 -0.43000
v -2.64533 5.27000 -0.31000
v -2.65335 2.92000 0.70000
v -2.84441 3.15000 0.05000
v -2.00917 6.49000 0.40000
v -2.39361 3.79000 -1.72000
v -2.04465 2.65000 -2.01000
v -2.02176 4.96000 -1.95000
v -2.04121 5.87000 -1.41000
v -1.64762 6.36000 -1.44000
v -0.80094 7.61000 -0.36000
v -3.09385 5.78000 -0.31000
v -2.39248 7.09000 0.48000
v -2.36617 5.42000 -2.26000
v -2.40276 6.43000 -1.63000
v -2.93595 3.23000 -2.00000
v -2.48628 1.95000 -2.41000
v -3.22086 2.25000 0.90000
v -1.92451 6.99000 -1.68000
v -1.00915 8.32000 -0.49000
v -1.21513 1.38000 1.50000
v -0.92792 2.33000 2.34000
v -1.17277 2.20000 2.20000
v -0.11329 1.31000 1.58000
v -0.01601 2.29000 2.41000
v 0.22312 1.97000 2.18000
v -0.33867 3.42000 2.72000
v 0.44851 3.14000 2.72000
v 0.19566 3.43000 2.77000
v 1.40962 2.15000 1.87000
v 0.28491 5.31000 2.16000
v 0.96910 5.37000 1.84000
v -0.82838 4.10000 2.47000
v 2.26548 4.40000 1.12000
v 3.37070 3.18000 -1.08000
v 1.95997 2.99000 -2.99000
v 2.25518 3.72000 -2.61000
v -1.91536 2.38000 -1.99000
v -2.23228 3.39000 -1.76000
v 0.52402 3.61000 -2.89000
v 1.99658 2.53000 -1.87000
v 1.61214 3.60000 -2.47000
v -0.12357 4.72000 -2.84000
v 1.69682 5.62000 -1.88000
v 0.39701 6.12000 -2.27000
v 1.31353 6.10000 -1.90000
v 1.81581 4.19000 -2.23000
v -1.32610 2.76000 -2.51000
v -0.98286 4.74000 -2.69000
v -1.19224 5.01000 -2.55000
v -1.02176 6.02000 -2.10000
v 0.09955 6.46000 -2.07000
v 0.28603 7.24000 -1.24000
v 0.97256 7.11000 -1.08000
v 2.00688 6.14000 -2.20000
v 0.47827 6.67000 -2.68000
v 1.56294 6.68000 -2.24000
v -1.39132 5.51000 -2.95000
v -1.17394 6.61000 -2.47000
v 0.08581 7.09000 -2.43000
v 0.61558 3.00000 -3.52000
v -0.17848 4.20000 -3.44000
v 2.42907 1.82000 -2.28000
v 1.20483 7.77000 -1.32000
v 0.31466 7.94000 -1.53000
v -2.16021 1.59000 -0.53000
v -0.63044 0.88000 -0.47000
v -1.87874 1.49000 -0.01000
v -1.97369 1.63000 -1.13000
v -0.64760 1.05000 -1.29000
v -0.51601 0.88000 -0.72000
v 0.69566 0.88000 -0.10000
v -0.51144 0.91000 0.31000
v 0.54232 0.91000 0.60000
v -2.01949 1.59000 0.49000
v -1.25858 1.35000 1.42000
v 0.67164 0.99000 0.89000
v 3.46690 3.02000 0.65000
v 3.43830 3.52000 -0.69000
v -2.54807 2.63000 0.64000
v -0.96912 7.51000 0.31000
v -0.22656 7.70000 -0.50000
v 0.20022 7.73000 -0.13000
v 1.12817 7.33000 -0.46000
v 1.26433 7.27000 -0.28000
v -1.23000 8.21000 0.40000
v -0.26433 8.46000 -0.65000
v 0.27459 8.50000 -0.18000
v 1.38102 8.02000 -0.59000
v 1.58927 7.93000 -0.31000
v -2.23458 5.49000 -0.30000
v 2.46111 5.39000 -0.75000
v 2.84899 4.07000 -0.61000
v 2.76777 3.71000 -0.89000
v 2.85129 3.59000 0.54000
v 2.66707 2.59000 0.44000
v 2.60643 2.87000 -1.05000
v 2.58814 2.28000 0.13000
v 2.10872 6.29000 -0.09000
v 2.89248 5.91000 -0.86000
v 2.51605 6.88000 -0.10000
v 3.18080 2.20000 -1.29000
v 3.26200 1.92000 0.57000
v 3.15220 1.54000 0.12000
v 0.09032 6.97000 -2.28000
v 1.11321 7.63000 -1.23000
v 0.44615 6.58000 -2.51000
v 1.46331 6.58000 -2.10000
v 0.30313 7.79000 -1.41000
v -1.11108 6.51000 -2.32000
v -1.31015 5.45000 -2.79000
v -2.25526 6.35000 -1.55000
v -2.22665 5.38000 -2.13000
v -1.81132 6.87000 -1.58000
v 0.55027 2.96000 -3.33000
v 1.54570 1.02000 -2.04000
v 0.04570 1.02000 -2.48000
v -0.35708 1.67000 -3.08000
v 2.30201 1.90000 -2.17000
v 1.88782 2.95000 -2.82000
v -0.23120 4.07000 -3.30000
v -1.46920 2.08000 -2.91000
v -1.06302 4.10000 -3.16000
v -0.05270 5.22000 -3.09000
v -1.09848 5.19000 -2.95000
v -2.57905 4.23000 -1.93000
v -1.52870 3.24000 -2.73000
v -2.18087 3.15000 -2.27000
v 1.88209 6.07000 -2.08000
v 1.95530 4.65000 -2.45000
v 0.66698 4.14000 -3.12000
v 1.66814 4.13000 -2.73000
v -3.09393 3.66000 0.20000
v -2.63740 4.42000 -0.41000
v -2.60536 3.59000 0.04000
v -3.15229 4.51000 -0.39000
v 2.66243 3.28000 0.94000
v 2.64296 4.28000 1.64000
v 3.07550 3.24000 1.26000
v 3.20820 3.11000 -1.00000
v 2.70934 3.18000 -0.86000
v 2.78714 3.49000 -0.61000
v 2.19103 3.58000 -2.50000
v 1.76767 3.60000 -2.19000
v 1.57658 3.08000 -2.42000
v -2.35022 3.25000 -1.70000
v -2.01384 2.22000 -1.97000
v -2.83535 3.14000 -1.86000
v -2.37080 1.96000 -2.26000
v 1.41755 4.21000 2.05000
v 2.29056 4.28000 1.25000
v 0.77682 2.92000 2.67000
v 2.17158 2.17000 1.41000
v 1.50451 2.08000 2.03000
v 1.87178 1.93000 1.70000
v 1.33289 5.15000 1.93000
v 0.73334 3.85000 2.50000
v 0.12463 4.20000 2.68000
v 0.38207 3.91000 2.65000
v 0.32486 5.38000 2.33000
v 1.05483 5.45000 1.99000
v 1.95530 5.97000 0.88000
v 2.14982 5.22000 1.18000
v 1.46218 6.56000 0.93000
v -0.87194 4.89000 2.39000
v -0.39711 4.21000 2.65000
v -0.69230 6.62000 1.92000
v -1.78384 4.86000 1.87000
v -1.62025 6.29000 1.09000
v -0.43257 3.28000 2.82000
v -0.98063 2.27000 2.51000
v -2.08476 3.05000 1.89000
v -1.26326 2.13000 2.35000
v -0.93945 3.96000 2.53000
v -1.91314 3.92000 2.00000
v 0.95414 7.48000 0.41000
v 0.28024 7.76000 0.44000
v -0.32045 7.65000 0.77000
v 0.12578 3.27000 2.87000
v -0.00923 2.20000 2.58000
v 0.40152 2.99000 2.82000
v 0.25279 1.86000 2.34000
v -0.10878 1.15000 1.70000
v -1.29185 1.24000 1.62000
v 1.46104 7.79000 -0.30000
v 0.24707 8.32000 -0.17000
v 1.22648 7.87000 0.60000
v 0.39922 8.23000 0.64000
v 1.28139 7.87000 -0.54000
v -0.24836 8.28000 -0.59000
v -0.92686 8.16000 -0.44000
v -0.79871 6.92000 2.33000
v -0.37880 8.08000 1.05000
v -2.00581 6.52000 1.37000
v -1.12823 8.06000 0.36000
v -2.23923 6.98000 0.44000
v 1.76996 4.22000 2.44000
v 1.01937 2.80000 3.12000
v 3.28940 2.95000 0.62000
v 0.44959 2.82000 3.31000
v 2.78714 3.06000 0.53000
v 0.08002 3.15000 3.37000
v 3.29970 3.40000 -0.66000
v -0.58362 3.22000 3.32000
v -1.19574 3.96000 2.99000
v -2.16944 3.92000 2.45000
v 0.50678 3.09000 -2.83000
v -3.04016 2.22000 0.84000
v -2.41889 2.95000 2.28000
v -2.60653 2.45000 0.67000
v -2.79187 2.67000 0.03000
v -0.97377 4.13000 -2.65000
v -0.14195 4.11000 -2.80000
v -3.27929 2.49000 -0.04000
v -2.82620 3.49000 -0.44000
v -3.31132 3.37000 -0.60000
v -1.31705 2.31000 -2.47000
v 0.71045 0.82000 0.96000
v 1.62007 1.16000 0.94000
v 0.73106 0.69000 -0.12000
v 1.95303 1.20000 0.26000
v 1.43698 0.92000 -0.42000
v 1.32144 1.38000 -1.74000
v -0.53785 0.69000 -0.75000
v 0.01595 1.39000 -2.12000
v -0.68546 0.88000 -1.38000
v 0.56286 0.72000 0.64000
v -0.54815 0.73000 0.35000
v -1.35364 1.21000 1.49000
v -0.68202 0.70000 -0.49000
v -1.99668 1.34000 0.01000
v -2.15913 1.46000 0.53000
v -0.31701 1.90000 -2.61000
v -2.10309 1.51000 -1.21000
v -2.31130 1.48000 -0.57000
v 3.08580 1.99000 0.52000
v 1.87981 0.76000 1.15000
v 2.98620 1.64000 0.13000
v 2.29512 0.81000 0.28000
v 2.58575 2.03000 1.70000
v 2.19672 1.71000 2.04000
v 1.67498 0.48000 -0.52000
v 3.01140 2.26000 -1.22000
v 2.37981 6.19000 1.08000
v 2.35235 6.78000 -0.10000
v 1.76882 6.87000 1.22000
v 2.97592 4.21000 -1.08000
v 2.71963 5.85000 -0.82000
v 3.10520 4.55000 -0.69000
v 3.11090 4.14000 0.57000
v 2.99423 4.36000 0.96000
v 2.59720 5.40000 1.38000
v 1.59949 5.32000 2.35000
v 0.94044 3.95000 2.97000
v 1.66128 4.53000 -2.04000
v 1.48163 4.00000 -2.26000
v -0.90397 5.07000 -2.48000
v -1.22549 3.23000 -2.31000
v -1.94403 3.98000 1.78000
v -2.41772 5.55000 -0.30000
v -2.43146 3.37000 0.64000
v -1.82047 6.68000 0.35000
v -1.84680 5.27000 -1.79000
v -1.85938 6.11000 -1.31000
v -2.19234 4.18000 -1.58000
v -1.50581 6.54000 -1.32000
v -0.70376 7.71000 -0.30000
v -1.50812 1.93000 2.76000
v -1.50008 0.87000 1.92000
v -1.12596 2.11000 2.99000
v -0.09619 0.74000 2.01000
v 0.00793 1.97000 3.05000
v 0.33059 1.55000 2.75000
v 1.76423 1.89000 2.44000
v 0.43469 5.57000 2.80000
v 1.28598 5.66000 2.40000
v -1.02068 5.06000 2.85000
v -2.21291 4.99000 2.13000
v -0.43372 4.36000 3.15000
v 0.22875 4.33000 3.18000
v 0.58917 4.02000 3.12000
v 2.49765 4.21000 0.89000
v 2.61437 4.42000 -0.57000
v 2.54114 4.11000 -0.81000
v -2.43374 4.05000 1.95000
v -1.87766 3.14000 -1.85000
v -0.12594 5.04000 -2.60000
v 1.54456 5.88000 -1.72000
v 0.35920 6.35000 -2.06000
v 1.19214 6.33000 -1.73000
v 0.48047 4.01000 -2.65000
v -1.09162 5.31000 -2.33000
v -0.93945 6.23000 -1.92000
v 0.10174 6.64000 -1.88000
v 1.95303 2.11000 -1.84000
v 0.26995 7.37000 -1.10000
v 0.86490 7.26000 -0.97000
v -0.82045 0.20000 -0.49000
v -2.31476 0.93000 0.03000
v -2.45663 1.19000 -1.41000
v -2.72207 1.17000 -0.63000
v -0.78841 0.43000 -1.60000
v -0.59734 0.19000 -0.85000
v 0.82717 0.19000 -0.17000
v -0.64998 0.23000 0.43000
v 0.61892 0.22000 0.74000
v -2.53558 1.13000 0.67000
v -1.61336 0.81000 1.70000
v 0.81571 0.35000 1.16000
v 2.61437 3.99000 0.50000
v -2.92116 3.45000 0.80000
v -0.84791 7.63000 0.28000
v -0.20602 7.79000 -0.43000
v 0.16927 7.81000 -0.12000
v 1.01022 7.45000 -0.39000
v 1.11663 7.41000 -0.26000
v -2.91201 5.72000 -0.31000
v 2.24707 5.66000 -0.69000
v 1.91067 6.50000 -0.07000
v 2.54914 2.42000 -1.04000
v 2.60522 2.16000 0.42000
v 2.53198 1.90000 0.13000
vt 3.42871 4.61369
vt 3.38723 4.49313
vt 3.49321 4.49570
vt 3.52596 4.53403
vt 3.50465 4.62871
vt 3.77797 4.08080
vt 3.69501 4.09310
vt 3.78855 3.98855
vt 3.61964 3.90631
vt 3.57573 4.03860
vt 3.65854 4.48140
vt 3.67785 4.36140
vt 3.77568 4.46495
vt 3.77410 4.35640
vt 3.73063 4.52145
vt 3.47776 4.19450
vt 3.65411 4.33094
vt 3.55499 4.32751
vt 3.81801 4.21538
vt 3.30542 4.06692
vt 3.35033 4.19307
vt 3.32745 4.26143
vt 3.38065 3.97096
vt 3.53612 3.97210
vt 3.34232 4.43592
vt 3.50466 4.42648
vt 3.52325 4.30591
vt 3.58904 4.40574
vt 3.59476 4.32007
vt 3.48750 4.41303
vt 3.41454 4.39459
vt 3.39739 4.31864
vt 3.48463 4.25814
vt 3.37023 4.09267
vt 3.49893 4.19464
vt 3.29442 4.16475
vt 3.29872 4.29733
vt 3.78213 4.19622
vt 3.63625 4.24355
vt 3.67771 4.07808
vt 3.57331 4.17633
vt 3.58331 4.05262
vt 3.43172 4.44750
vt 3.55183 4.51630
vt 3.42454 4.52388
vt 3.49178 4.64216
vt 3.57615 4.63300
vt 3.59332 4.63873
vt 3.66628 4.61369
vt 3.76350 4.49313
vt 3.63052 4.40760
vt 3.76209 4.43592
vt 3.52612 4.03860
vt 3.42884 3.94249
vt 3.51180 3.94793
vt 3.49178 4.07350
vt 3.37306 4.07379
vt 3.34016 4.04290
vt 3.42884 4.21953
vt 3.47891 4.19092
vt 3.59045 3.91146
vt 3.66483 4.10740
vt 3.75064 3.97096
vt 3.76066 4.06692
vt 3.82931 4.19307
vt 3.64480 4.20680
vt 3.80212 4.26143
vt 3.61477 4.24727
vt 3.39165 4.34968
vt 3.38895 3.95293
vt 3.42584 4.08795
vt 3.39223 4.06878
vt 3.52982 3.94149
vt 3.54155 4.07894
vt 3.57287 4.03403
vt 3.49121 4.22010
vt 3.59061 4.18091
vt 3.55771 4.21881
vt 3.29441 4.18992
vt 3.43085 4.30820
vt 3.31486 4.30319
vt 3.33560 4.48855
vt 3.45374 4.53117
vt 3.57759 4.67906
vt 3.50107 4.66404
vt 3.66326 4.64216
vt 3.72805 4.52388
vt 3.58317 4.37056
vt 3.67613 4.37942
vt 3.63537 4.17290
vt 3.72190 4.06263
vt 3.71146 4.34138
vt 3.85977 4.21953
vt 3.81558 4.34968
vt 3.79084 4.44750
vt 3.80142 4.07379
vt 3.76567 4.04290
vt 3.54183 4.04747
vt 3.68485 4.03474
vt 3.59904 4.20408
vt 3.60905 4.01000
vt 3.70489 4.20365
vt 3.63193 4.22110
vt 3.55615 4.37227
vt 3.50035 4.21981
vt 3.46602 4.35225
vt 3.85361 4.24756
vt 3.79355 4.28717
vt 3.47746 4.02816
vt 3.36305 4.12399
vt 3.34016 4.27230
vt 3.35017 4.13142
vt 3.42740 4.36984
vt 3.75064 4.44264
vt 3.59045 4.45637
vt 3.30013 4.46438
vt 3.42884 4.47811
vt 3.34016 4.50815
vt 3.26437 4.31535
vt 3.51180 4.51772
vt 3.49893 4.67205
vt 3.37023 4.52145
vt 3.58331 4.53947
vt 3.50037 4.39273
vt 3.37166 4.46495
vt 3.54328 4.13958
vt 3.60335 3.98225
vt 3.61907 4.11154
vt 3.53898 3.96567
vt 3.47177 3.98411
vt 3.39596 3.98855
vt 3.30299 4.08080
vt 3.33590 4.21538
vt 3.48605 4.24627
vt 3.81930 4.06878
vt 3.73065 3.95293
vt 3.76497 4.18992
vt 3.71776 3.94850
vt 3.31013 4.35640
vt 3.84219 4.30820
vt 3.78213 4.53117
vt 3.67771 4.48855
vt 3.77641 4.30319
vt 7.72476 -9.81236
vt 7.68514 -9.92348
vt 7.78068 -9.91991
vt 7.80829 -9.88716
vt 7.78941 -9.79948
vt 7.93114 -9.93564
vt 7.94788 -10.04580
vt 8.03569 -9.94965
vt 8.03498 -10.04910
vt 7.99564 -9.89917
vt 7.99293 -10.39570
vt 7.82788 -10.17190
vt 7.75151 -10.29820
vt 7.95288 -10.16980
vt 7.85934 -10.45480
vt 7.59347 -10.42840
vt 7.63938 -10.29980
vt 7.66670 -10.51330
vt 7.82087 -10.51170
vt 7.84704 -10.09020
vt 7.61893 -10.15290
vt 7.77439 -10.21940
vt 7.63137 -10.22080
vt 7.64410 -9.97554
vt 7.91999 -10.08340
vt 8.08933 -10.19410
vt 7.95603 -10.31260
vt 8.05557 -10.32690
vt 8.25494 -10.26670
vt 8.16012 -10.35130
vt 8.25451 -10.38790
vt 8.16756 -10.24690
vt 7.43128 -10.16480
vt 7.56744 -10.06890
vt 7.47848 -10.02790
vt 7.52281 -10.19160
vt 7.50751 -10.16850
vt 7.43185 -10.19110
vt 7.51051 -10.20880
vt 8.02654 -10.11110
vt 8.13609 -10.20500
vt 8.11321 -10.08020
vt 8.04699 -10.21800
vt 7.54298 -10.37640
vt 7.71733 -10.27350
vt 7.48220 -10.22300
vt 7.63824 -10.09770
vt 7.62965 -10.38990
vt 7.58274 -10.41100
vt 7.52811 -10.08850
vt 7.55313 -9.98656
vt 7.67671 -10.05510
vt 7.62136 -9.90632
vt 7.80357 -10.22370
vt 7.76767 -10.26570
vt 7.77525 -10.06490
vt 7.91469 -9.89946
vt 7.68758 -9.78404
vt 7.78040 -9.74370
vt 7.86521 -9.76030
vt 7.94144 -10.13120
vt 7.87751 -10.22350
vt 7.94430 -10.36330
vt 8.08804 -10.25570
vt 7.98263 -10.38420
vt 8.06673 -10.13670
vt 8.04570 -9.94522
vt 7.78712 -10.42350
vt 7.82102 -10.37510
vt 7.83317 -10.52130
vt 7.98449 -10.50760
vt 7.41483 -10.29020
vt 7.59747 -10.15800
vt 7.47447 -10.14990
vt 7.68758 -10.34710
vt 7.47933 -10.45570
vt 7.58918 -10.47510
vt 7.53211 -10.49940
vt 7.60362 -10.04080
vt 7.68943 -10.22200
vt 7.79441 -10.16810
vt 7.74836 -10.21270
vt 7.76223 -9.99714
vt 7.65025 -9.98484
vt 7.58646 -9.82938
vt 7.65583 -9.70037
vt 7.92642 -9.82394
vt 7.76638 -9.65217
vt 7.87179 -9.67205
vt 7.50451 -9.91762
vt 7.96161 -10.07420
vt 7.88580 -10.16920
vt 8.08976 -9.87671
vt 7.89510 -10.29100
vt 7.96890 -10.44640
vt 8.14582 -10.32970
vt 8.02139 -10.47100
vt 7.97176 -10.19040
vt 8.11035 -10.19740
vt 7.80542 -10.29580
vt 7.81987 -10.46610
vt 7.75680 -10.34480
vt 7.77654 -10.52230
vt 8.01853 -10.61010
vt 7.83317 -10.62920
vt 7.77796 -10.05700
vt 7.80944 -10.15310
vt 7.86235 -10.06410
vt 7.86808 -10.14120
vt 7.79084 -10.04710
vt 7.71216 -10.07400
vt 7.69786 -10.13870
vt 7.77654 -10.19460
vt 7.66928 -10.34490
vt 7.78939 -10.24860
vt 7.60063 -10.28040
vt 7.60489 -10.15750
vt 8.04113 -10.25240
vt 7.90527 -10.20820
vt 7.94673 -10.35560
vt 7.85233 -10.26390
vt 7.86090 -10.37910
vt 8.12979 -9.95288
vt 7.97248 -9.91669
vt 8.04686 -10.00480
vt 8.00965 -9.82773
vt 8.12123 -10.07600
vt 8.23134 -10.09760
vt 8.20561 -10.03870
vt 8.14553 -10.13580
vt 7.95675 -9.78053
vt 7.88524 -9.85347
vt 7.94530 -9.87207
vt 7.89668 -9.76265
vt 8.14553 -10.16450
vt 8.24137 -10.14370
vt 7.75652 -9.85676
vt 8.23278 -10.23510
vt 7.73220 -9.75937
vt 8.14267 -10.22850
vt 7.68214 -9.78110
vt 7.58204 -9.96818
vt 7.73077 -9.85977
vt 8.05543 -10.37580
vt 8.19843 -10.31090
vt 8.10547 -10.28230
vt 7.49907 -9.90882
vt 8.10692 -10.46250
vt 7.41183 -10.09000
vt 7.55342 -9.98062
vt 7.46761 -9.94672
vt 7.89668 -10.46270
vt 8.08548 -10.48530
vt 8.05400 -10.39620
vt 7.49764 -10.12360
vt 7.92814 -10.55240
vt 7.84090 -10.57760
vt 7.81087 -10.48720
vt 7.50766 -10.19630
vt 7.41181 -10.18090
vt 7.43042 -10.31060
vt 7.52339 -10.26920
vt 7.76368 -10.48520
vt 7.57201 -10.51480
vt 7.76795 -10.58770
vt 7.64209 -10.43860
vt 7.46045 -10.35950
vt 7.60777 -10.40480
vt 7.53769 -10.30530
vt 7.53196 -10.45970
vt 8.11980 -10.13640
vt 7.94673 -10.08030
vt 8.03968 -10.18240
vt 8.08261 -9.97890
vt 7.94528 -9.96474
vt 8.03968 -9.93200
vt 7.72792 -10.23710
vt 7.80657 -10.07820
vt 7.60063 -10.00190
vt 7.55342 -10.16680
vt 7.64782 -10.25670
vt 7.76795 -9.98749
vt 7.85376 -9.92098
vt 7.90384 -10.10020
vt 7.86808 -10.24050
vt 8.01110 -10.34360
vt 8.02970 -10.33370
vt 7.76509 -10.25820
vt 7.82373 -10.42310
vt 7.89238 -10.44520
vt 7.48905 -10.20960
vt 7.66928 -10.43710
vt 7.75222 -10.46460
vt 8.18415 -10.12580
vt 7.97678 -10.06400
vt 8.08689 -10.18240
vt 8.14553 -9.93843
vt 7.97390 -9.92384
vt 8.09262 -9.88136
vt 7.49478 -10.16380
vt 7.79943 -10.06290
vt 7.55197 -9.96732
vt 7.71074 -10.24840
vt 7.61206 -10.27420
vt 7.75222 -9.95044
vt 7.85806 -9.86821
vt 7.91812 -10.09090
vt 7.87950 -10.25670
vt 8.04399 -10.38420
vt 8.07544 -10.36780
vt 7.43901 -10.36920
vt 7.41468 -10.21730
vt 7.63494 -10.49390
vt 7.75936 -10.28010
vt 7.82515 -10.47480
vt 7.91098 -10.50540
vt 7.73934 -10.53000
vt 7.86808 -10.56620
vt 7.94245 -10.39200
vt 7.80516 -10.45340
vt 7.79084 -10.53400
vt 8.02683 -10.51330
vt 8.03684 -10.42840
vt 7.77366 -10.42360
vt 7.71360 -10.53860
vt 7.65782 -10.42510
vt 7.62493 -10.45080
vt 7.72219 -10.27900
vt 7.75795 -10.30010
vt 7.85233 -9.79405
vt 7.83087 -9.90189
vt 7.86522 -9.79004
vt 7.93102 -9.81236
vt 8.02252 -9.92348
vt 7.90239 -10.00270
vt 8.02111 -9.97554
vt 7.92814 -10.28730
vt 7.90239 -10.24500
vt 8.11837 -10.29980
vt 8.09262 -10.23380
vt 7.91241 -10.20880
vt 8.06114 -10.15290
vt 7.88666 -10.16850
vt 7.78082 -9.78547
vt 7.71790 -9.89602
vt 7.72219 -9.96596
vt 7.67069 -10.06890
vt 7.69787 -10.19160
vt 7.75793 -10.22550
vt 7.49764 -10.31920
vt 7.56915 -10.15980
vt 7.49907 -10.15800
vt 7.41040 -10.34710
vt 7.50908 -10.19740
vt 7.60491 -10.30720
vt 7.59061 -10.19740
vt 7.52626 -10.32970
vt 8.13694 -10.16980
vt 8.11551 -10.39570
vt 8.22991 -10.17550
vt 8.20416 -10.44380
vt 7.49764 -10.19540
vt 7.41183 -10.21270
vt 7.49764 -10.23240
vt 7.50050 -10.19550
vt 7.44474 -10.07420
vt 7.41040 -10.16920
vt 7.53771 -10.10930
vt 8.23134 -10.19710
vt 8.13551 -10.09020
vt 8.14553 -10.21940
vt 8.23136 -10.05320
vt 8.03540 -10.32690
vt 8.07116 -10.18040
vt 8.00108 -10.19410
vt 8.11121 -10.32510
vt 7.58059 -10.25570
vt 7.87522 -10.19650
vt 7.56772 -10.13670
vt 7.86092 -10.04390
vt 7.73365 -10.33780
vt 7.81515 -10.30790
vt 7.66928 -9.94522
vt 7.77223 -9.89130
vt 7.63207 -10.51370
vt 7.75079 -10.47650
vt 7.61348 -10.50760
vt 7.52053 -10.38420
vt 8.03684 -10.22880
vt 8.07259 -10.37100
vt 7.97390 -10.47000
vt 7.89095 -10.47380
vt 7.81944 -10.49690
vt 8.06543 -10.08270
vt 7.99822 -9.96839
vt 8.00108 -9.90775
vt 7.86663 -9.75157
vt 7.53626 -10.08020
vt 7.87522 -10.14440
vt 7.86092 -9.97983
vt 7.55770 -10.20500
vt 7.80228 -10.25640
vt 7.71504 -10.28760
vt 7.63925 -9.87671
vt 7.76223 -9.81622
vt 8.10407 -10.02430
vt 8.02538 -9.89817
vt 7.81944 -10.38790
vt 8.07116 -10.29910
vt 7.89525 -10.26670
vt 8.00824 -10.56850
vt 8.12265 -10.45880
vt 7.90384 -10.57050
vt 7.70931 -10.42150
vt 7.56774 -10.61010
vt 7.59918 -10.61970
vt 7.73220 -10.57580
vt 7.45616 -10.47100
vt 8.03111 -9.82809
vt 7.88236 -9.66204
vt 7.81803 -10.60500
vt 7.66970 -10.53020
vt 7.70560 -10.41050
vt 7.67499 -10.42690
vt 7.80743 -10.53890
vt 7.81959 -10.41620
vt 7.84948 -10.45540
vt 7.77925 -10.27520
vt 7.87765 -10.30960
vt 7.84604 -10.27320
vt 7.90554 -10.31920
vt 7.99779 -10.43350
vt 7.74007 -9.88844
vt 7.85119 -9.75314
vt 7.78426 -9.76630
vt 7.92828 -9.78547
vt 7.99021 -9.89602
vt 7.85720 -10.03890
vt 7.94272 -10.03130
vt 7.56072 -10.30720
vt 7.71804 -10.19040
vt 7.57917 -10.19740
vt 7.63680 -9.92649
vt 7.61664 -10.11110
vt 7.71017 -10.10930
vt 7.82788 -10.19540
vt 7.76395 -10.19550
vt 7.98764 -10.07620
vt 8.04656 -9.96596
vt 8.07574 -10.06890
vt 7.91641 -10.24100
vt 7.85663 -10.23240
vt 8.07402 -10.42510
vt 8.04055 -10.45080
vt 8.14839 -10.27900
vt 7.98163 -10.15980
vt 8.10477 -10.15170
vt 8.22834 -10.29020
vt 8.16870 -10.14990
vt 8.15869 -10.24500
vt 8.14338 -10.28730
vt 8.24293 -10.30480
vt 8.06658 -10.32790
vt 8.10349 -10.23730
vt 8.02725 -10.23380
vt 8.00380 -10.29980
vt 7.45459 -10.29910
vt 7.58217 -10.40450
vt 7.54255 -10.27900
vt 7.51080 -10.45880
vt 7.50722 -10.16750
vt 7.41483 -10.25640
vt 7.50522 -10.26950
vt 7.40468 -10.14440
vt 7.88709 -10.25140
vt 8.07116 -10.38640
vt 8.02310 -10.25270
vt 7.99050 -10.48940
vt 7.78283 -10.41550
vt 7.82559 -10.48860
vt 7.80614 -10.11200
vt 8.03369 -9.99985
vt 7.87121 -9.93764
vt 7.98578 -9.93936
vt 8.04856 -10.17910
vt 7.65583 -10.35780
vt 7.69873 -10.10960
vt 7.52239 -10.22880
vt 7.56601 -10.37100
vt 7.56887 -10.08270
vt 7.67256 -10.07610
vt 7.69387 -9.95023
vt 7.83403 -9.89516
vt 7.73577 -10.55850
vt 7.55528 -10.47000
vt 7.56644 -9.96839
vt 7.61563 -9.90775
vt 7.85734 -9.79662
vt 7.94316 -9.81336
vt 8.07245 -9.93493
vt 7.88137 -9.86828
vt 7.81157 -10.05320
vt 8.08360 -10.12490
vt 7.90239 -10.19710
vt 8.04570 -10.19870
vt 8.01695 -9.86713
vt 7.63294 -10.31060
vt 7.68186 -10.05580
vt 7.47762 -10.18040
vt 7.53268 -10.32510
vt 7.52582 -10.02430
vt 7.64767 -10.01390
vt 7.67484 -9.87571
vt 7.83231 -9.81579
vt 7.77510 -10.50400
vt 7.89853 -10.32750
vt 7.62322 -10.44380
vt 7.79928 -10.17760
vt 7.67427 -10.17550
vt 7.82860 -10.59230
vt 8.02511 -10.59200
vt 8.12522 -10.47440
vt 7.52124 -9.89817
vt 7.58102 -9.82809
vt 7.97219 -9.73069
vt 7.86092 -9.70995
vt 7.49850 -10.56850
vt 7.88809 -10.44090
vt 7.88093 -10.24960
vt 7.82230 -10.40570
vt 7.96246 -10.41760
vt 7.98249 -10.25180
vt 7.91098 -10.23530
vt 8.06973 -10.41030
vt 8.11551 -10.34220
vt 8.12696 -10.20860
vt 8.06973 -10.17010
vt 7.83374 -10.08390
vt 7.78227 -10.23480
vt 7.74651 -10.10300
vt 7.76081 -10.42330
vt 7.64353 -10.32820
vt 7.62352 -10.18500
vt 7.63352 -10.32270
vt 7.71076 -10.08690
vt 7.79084 -9.94257
vt 7.71360 -9.98033
vt 7.86808 -10.00220
vt 8.02683 -10.01590
vt 7.54914 -10.14290
vt 7.58776 -9.99464
vt 7.62493 -9.95187
vt 7.56915 -10.01080
vt 7.61205 -9.82372
vt 7.49907 -9.94672
vt 7.68214 -9.88765
vt 7.41040 -10.03680
vt 7.48191 -10.11480
vt 7.49764 -10.08690
vt 7.72219 -9.84403
vt 7.74079 -9.73748
vt 7.65927 -9.76409
vt 7.38608 -10.10610
vt 7.75795 -9.83602
vt 7.90811 -9.74106
vt 7.90239 -9.83373
vt 7.38178 -10.15470
vt 7.48191 -10.21320
vt 7.47475 -10.14640
vt 7.95674 -9.74950
vt 7.38465 -10.24440
vt 8.14838 -9.88894
vt 7.92814 -9.84904
vt 8.09262 -9.96517
vt 7.43042 -10.32100
vt 7.59061 -10.41330
vt 7.51337 -10.27440
vt 7.50908 -10.45960
vt 8.26139 -10.09390
vt 8.19561 -9.92584
vt 8.11837 -9.98863
vt 8.16126 -10.10080
vt 7.52626 -10.49510
vt 7.70931 -10.57340
vt 7.60491 -10.43170
vt 7.74220 -10.48930
vt 7.80516 -10.50940
vt 8.13694 -10.30210
vt 8.25137 -10.19310
vt 8.15840 -10.17710
vt 7.81944 -10.60380
vt 8.22991 -10.31820
vt 8.07116 -10.53780
vt 7.86520 -10.51680
vt 7.89525 -10.60420
vt 8.20416 -10.36920
vt 8.04111 -10.44990
vt 8.12265 -10.48160
vt 7.78227 -10.29200
vt 7.66928 -10.39500
vt 7.77223 -10.42200
vt 7.71076 -10.21450
vt 7.55913 -10.26390
vt 7.86663 -10.27100
vt 7.88381 -10.19920
vt 8.08403 -10.29860
vt 7.97676 -10.13510
vt 8.07975 -10.15840
vt 8.00108 -10.37680
vt 7.83805 -10.14580
vt 7.95674 -10.04930
vt 7.87950 -10.02980
vt 7.75650 -10.12960
vt 7.76081 -10.03680
vt 7.85663 -10.01280
vt 7.88236 -10.29700
vt 7.77223 -10.32460
vt 7.76223 -10.46990
vt 7.63925 -10.43900
vt 7.67785 -10.22100
vt 7.51194 -10.27570
vt 7.90239 -10.20390
vt 8.12979 -10.31760
vt 8.01252 -10.13150
vt 8.12551 -10.16010
vt 8.03111 -10.41140
vt 7.84374 -10.13650
vt 7.98676 -10.02020
vt 7.89526 -9.99821
vt 7.73365 -10.11560
vt 7.73648 -10.00510
vt 7.86092 -9.97218
vt 7.78939 -9.75915
vt 7.66928 -9.89917
vt 7.86090 -9.88029
vt 7.78368 -10.01630
vt 7.66928 -9.94965
vt 7.83802 -10.35130
vt 7.88236 -10.50390
vt 7.90097 -10.37330
vt 7.82087 -10.51620
vt 7.75509 -10.50300
vt 7.68071 -10.49830
vt 7.60206 -10.27900
vt 7.57345 -10.40450
vt 7.77798 -10.24690
vt 8.09689 -10.42690
vt 8.00965 -10.53020
vt 8.03827 -10.30720
vt 7.99965 -10.53300
vt 7.61350 -10.04910
vt 7.76368 -10.16750
vt 7.64209 -10.19410
vt 8.10547 -10.10930
vt 8.04113 -9.88844
vt 7.94673 -9.92649
vt 8.05543 -10.11110
vt 7.89668 -10.30110
vt 7.81087 -10.26950
vt 8.05400 -10.21800
vt 7.96103 -10.15170
vt 7.92098 -10.27900
vt 8.03113 -10.14990
vt 8.26139 -10.29580
vt 8.16126 -10.30960
vt 8.25710 -10.34480
vt 8.16842 -10.27320
vt 8.21275 -10.19040
vt 8.16126 -10.27520
vt 8.25853 -10.29100
vt 8.12980 -10.19040
vt 7.48191 -10.29820
vt 7.39180 -10.17760
vt 7.38178 -10.32750
vt 7.48477 -10.17190
vt 8.04686 -10.07620
vt 8.12123 -10.24100
vt 8.12979 -10.04080
vt 8.20561 -10.22200
vt 7.55342 -10.22080
vt 7.58204 -10.15290
vt 7.49907 -10.12490
vt 7.46761 -10.19870
vt 7.43042 -10.05580
vt 7.46045 -10.31060
vt 7.52339 -10.08340
vt 7.53769 -10.31260
vt 7.58631 -9.99985
vt 7.54342 -10.17910
vt 7.72792 -10.02830
vt 7.74507 -10.19410
vt 7.71074 -10.23800
vt 7.88952 -10.25370
vt 7.87663 -10.37830
vt 7.69073 -10.34370
vt 7.83802 -10.41680
vt 7.94528 -10.22300
vt 7.98390 -10.08850
vt 7.94245 -9.98656
vt 7.81085 -9.91547
vt 7.95387 -9.90632
vt 7.88236 -9.78404
vt 7.78655 -9.79362
vt 7.51339 -10.25270
vt 7.58773 -10.38640
vt 8.00393 -10.37640
vt 7.76795 -10.55310
vt 7.85376 -10.51360
vt 7.60063 -10.48940
vt 7.94528 -10.51960
vt 8.03968 -10.41100
vt 7.68644 -9.81336
vt 7.58347 -9.93936
vt 7.76368 -9.78632
vt 8.00965 -10.02790
vt 7.71360 -9.96296
vt 7.73220 -10.13860
vt 7.96676 -9.91762
vt 7.80944 -9.84225
vt 7.95675 -10.16480
vt 7.89668 -10.19890
vt 7.54199 -9.86713
vt 7.54628 -9.93493
vt 7.65641 -9.73069
vt 7.74791 -9.69936
vt 7.78225 -9.71052
vt 7.68214 -10.19110
vt 7.44757 -10.32790
vt 7.68644 -10.30480
vt 7.49479 -10.23730
vt 7.66069 -10.42730
vt 7.53626 -10.47440
vt 7.90239 -10.32450
vt 7.73506 -10.26220
vt 7.89238 -10.46240
vt 7.83660 -10.50920
vt 8.04829 -10.45570
vt 7.98390 -10.29020
vt 7.98676 -9.82938
vt 7.90670 -9.70037
vt 7.75222 -10.66330
vt 7.85806 -10.61840
vt 7.55197 -10.59200
vt 7.97390 -10.62560
vt 8.09262 -10.49940
vt -3.77816 -0.14439
vt -3.90602 -0.06143
vt -3.82264 -0.19273
vt -3.94978 -0.19273
vt -3.80476 -0.04241
vt -3.62798 -0.20202
vt -3.60310 -0.33403
vt -3.48496 -0.22248
vt -3.48854 -0.34304
vt -3.54045 -0.15669
vt -3.83565 -0.64596
vt -3.96008 -0.88868
vt -3.77258 -0.88853
vt -3.72223 -0.80686
vt -4.05462 -0.77798
vt -4.00285 -0.64640
vt -3.73797 -0.50652
vt -3.58322 -0.75524
vt -3.63399 -0.50309
vt -3.76028 -0.36364
vt -3.62956 -0.36650
vt -3.44449 -0.48692
vt -3.57578 -0.61021
vt -3.49426 -0.62208
vt -4.00213 -0.25709
vt -4.01128 -0.43400
vt -3.85024 -0.49822
vt -3.97539 -0.49951
vt -3.38013 -0.55786
vt -3.43719 -0.46375
vt -3.44120 -0.56702
vt -3.37283 -0.45217
vt -4.09967 -0.60563
vt -4.09724 -0.48006
vt -4.15130 -0.61121
vt -4.16789 -0.62666
vt -4.10554 -0.61764
vt -4.11526 -0.57918
vt -4.04075 -0.56788
vt -3.98783 -0.56544
vt -3.96394 -0.63080
vt -3.47309 -0.60964
vt -3.51514 -0.73836
vt -3.41245 -0.62351
vt -3.47052 -0.77025
vt -3.94406 -0.48907
vt -4.05319 -0.48120
vt -3.86397 -0.65026
vt -4.03832 -0.74494
vt -3.95493 -0.75566
vt -4.00084 -0.77454
vt -3.93348 -0.37179
vt -3.85854 -0.53469
vt -3.78245 -0.49036
vt -3.81463 -0.52697
vt -3.80748 -0.34347
vt -3.89872 -0.33504
vt -4.01128 -0.26910
vt -4.03560 -0.36378
vt -3.94964 -0.19530
vt -3.65788 -0.40383
vt -3.71723 -0.48907
vt -3.68033 -0.18815
vt -3.54389 -0.40869
vt -3.56434 -0.22934
vt -3.71280 -0.60506
vt -3.64429 -0.73149
vt -3.50627 -0.63381
vt -3.60896 -0.74966
vt -3.64944 -0.52068
vt -3.52773 -0.52568
vt -3.88614 -0.08088
vt -3.80190 -0.04513
vt -3.72681 -0.05972
vt -3.78259 -0.60635
vt -3.76571 -0.74007
vt -3.81706 -0.64253
vt -3.79847 -0.78298
vt -3.75327 -0.87151
vt -3.60539 -0.86064
vt -3.80622 -0.30100
vt -3.78904 -0.45274
vt -3.69323 -0.33032
vt -3.68891 -0.43372
vt -3.83625 -0.32345
vt -3.92206 -0.34448
vt -3.94493 -0.44574
vt -3.84198 -0.51467
vt -3.96640 -0.71004
vt -3.82338 -0.59948
vt -4.05792 -0.62251
vt -4.05363 -0.47234
vt -3.47724 -0.58346
vt -3.63743 -0.53098
vt -3.59740 -0.73435
vt -3.72326 -0.62465
vt -3.71325 -0.76353
vt -3.46295 -0.26238
vt -3.56305 -0.15326
vt -3.51157 -0.30643
vt -3.61168 -0.19731
vt -3.43433 -0.38652
vt -3.41576 -0.43344
vt -3.37857 -0.35620
vt -3.65030 -0.15082
vt -3.61026 -0.09919
vt -3.69035 -0.07245
vt -3.35425 -0.42743
vt -3.70180 -0.13523
vt -3.34709 -0.47362
vt -3.85053 -0.07116
vt -3.84480 -0.13523
vt -3.41003 -0.46790
vt -3.41576 -0.53770
vt -3.89344 -0.08260
vt -3.35283 -0.55658
vt -3.39430 -0.63309
vt -4.08079 -0.20975
vt -3.87628 -0.14496
vt -4.04217 -0.26267
vt -3.51873 -0.72277
vt -3.45149 -0.60106
vt -3.46151 -0.75481
vt -4.18520 -0.41484
vt -4.07081 -0.28655
vt -4.12084 -0.24765
vt -4.12229 -0.42028
vt -3.66320 -0.86365
vt -3.48297 -0.78599
vt -3.53161 -0.74422
vt -3.68462 -0.80944
vt -3.76474 -0.83261
vt -4.18092 -0.51253
vt -4.09939 -0.60535
vt -4.11798 -0.50137
vt -3.77331 -0.89354
vt -4.16376 -0.61650
vt -3.82336 -0.83690
vt -4.00071 -0.83804
vt -3.84339 -0.89754
vt -4.13228 -0.66728
vt -4.05078 -0.77998
vt -4.07650 -0.64826
vt -3.98069 -0.77740
vt -4.01503 -0.73536
vt -3.47581 -0.45203
vt -3.64886 -0.39482
vt -3.55593 -0.49722
vt -3.51445 -0.29556
vt -3.65030 -0.28112
vt -3.55593 -0.24965
vt -3.78331 -0.39224
vt -3.73612 -0.23950
vt -3.82052 -0.30400
vt -3.98641 -0.31845
vt -3.86197 -0.55086
vt -4.03360 -0.48163
vt -3.94063 -0.56931
vt -3.68891 -0.41327
vt -3.72467 -0.55214
vt -3.58165 -0.65283
vt -3.56592 -0.64511
vt -3.82907 -0.56888
vt -3.76758 -0.73321
vt -3.70180 -0.75352
vt -4.09511 -0.52325
vt -3.91920 -0.74651
vt -3.83909 -0.77254
vt -3.82907 -0.76754
vt -3.90773 -0.92057
vt -3.78042 -0.81073
vt -3.79903 -0.91399
vt -3.97636 -0.76253
vt -4.01929 -0.80229
vt -3.69892 -0.95618
vt -3.61168 -0.73321
vt -3.50869 -0.88868
vt -3.49296 -0.77798
vt -3.89914 -0.24136
vt -3.75184 -0.16827
vt -3.91630 -0.15697
vt -3.83906 -0.03183
vt -3.72607 -0.04170
vt -3.92202 -0.61121
vt -3.84194 -0.64654
vt -3.68176 -0.59119
vt -3.63884 -0.62666
vt -3.41144 -0.64640
vt -3.45149 -0.56788
vt -3.62884 -0.48936
vt -3.66173 -0.28497
vt -3.67746 -0.44659
vt -3.45720 -0.43400
vt -3.50441 -0.25709
vt -3.69604 -0.03197
vt -3.61023 -0.06143
vt -3.50155 -0.19273
vt -3.83478 -0.49865
vt -3.88342 -0.47105
vt -3.93634 -0.34033
vt -4.05791 -0.35062
vt -4.07650 -0.53469
vt -4.00499 -0.37179
vt -4.13514 -0.52139
vt -3.50869 -0.44902
vt -3.48152 -0.51510
vt -3.42288 -0.49951
vt -3.42288 -0.61021
vt -3.39570 -0.36650
vt -3.45436 -0.38180
vt -3.47580 -0.61193
vt -3.96923 -0.48006
vt -3.88199 -0.60563
vt -3.92061 -0.48120
vt -4.18520 -0.62180
vt -4.11653 -0.64253
vt -4.12226 -0.60635
vt -4.13799 -0.52082
vt -4.11653 -0.60506
vt -4.08079 -0.52068
vt -3.35137 -0.50652
vt -3.40999 -0.62952
vt -3.34709 -0.64596
vt -3.41431 -0.50237
vt -3.98640 -0.51825
vt -3.71322 -0.46375
vt -3.99783 -0.40869
vt -3.72608 -0.32202
vt -3.84337 -0.59405
vt -3.76900 -0.56702
vt -3.90058 -0.22934
vt -3.80762 -0.18014
vt -4.00356 -0.18815
vt -4.06220 -0.40383
vt -3.54017 -0.35720
vt -3.60022 -0.25222
vt -3.56588 -0.49364
vt -3.84767 -0.70889
vt -3.96637 -0.86064
vt -3.95064 -0.86493
vt -3.83049 -0.83261
vt -4.05791 -0.74966
vt -4.00068 -0.63381
vt -3.76755 -0.68215
vt -3.55160 -0.60964
vt -3.70892 -0.58003
vt -3.61309 -0.82660
vt -3.51726 -0.73836
vt -3.69319 -0.83075
vt -3.76470 -0.84848
vt -3.59881 -0.19759
vt -3.72607 -0.05199
vt -3.95393 -0.77497
vt -3.95293 -0.90669
vt -3.90616 -0.75194
vt -3.77744 -0.92357
vt -3.76443 -0.76882
vt -3.72410 -0.82145
vt -3.83837 -0.61336
vt -3.75542 -0.62180
vt -3.70922 -0.66370
vt -3.63800 -0.66613
vt -3.54489 -0.77969
vt -3.86526 -0.15111
vt -3.71552 0.01294
vt -3.81277 -0.00551
vt -3.61211 -0.03183
vt -3.54432 -0.15697
vt -3.71108 -0.31973
vt -3.60467 -0.30829
vt -4.06778 -0.64640
vt -3.91489 -0.52082
vt -4.03660 -0.52568
vt -4.01615 -0.20088
vt -3.89300 -0.38323
vt -4.04203 -0.39210
vt -3.81963 -0.47091
vt -3.73682 -0.47448
vt -3.56548 -0.35062
vt -3.44077 -0.34033
vt -3.46794 -0.24136
vt -3.64786 -0.52139
vt -3.69177 -0.51367
vt -3.38099 -0.61121
vt -3.44220 -0.76253
vt -3.49083 -0.80229
vt -3.54417 -0.48793
vt -3.43505 -0.48006
vt -3.45321 -0.48964
vt -3.49669 -0.36378
vt -3.39114 -0.47105
vt -3.37727 -0.44659
vt -3.43862 -0.46276
vt -3.44778 -0.50180
vt -4.06964 -0.50909
vt -3.98840 -0.40869
vt -4.00842 -0.51825
vt -4.00013 -0.62380
vt -4.03946 -0.49364
vt -4.08780 -0.48692
vt -4.17933 -0.59391
vt -4.17533 -0.70403
vt -4.11440 -0.68215
vt -4.11869 -0.58003
vt -3.78116 -0.38523
vt -3.57235 -0.28040
vt -3.72052 -0.22248
vt -3.61640 -0.22505
vt -3.55776 -0.44902
vt -3.70536 -0.51381
vt -3.58022 -0.51510
vt -3.87842 -0.38180
vt -3.91861 -0.61193
vt -3.99627 -0.35720
vt -3.90187 -0.35234
vt -3.80504 -0.77869
vt -3.70207 -0.62952
vt -3.93005 -0.72663
vt -3.78316 -0.50237
vt -3.88714 -0.49894
vt -3.88285 -0.23635
vt -3.75270 -0.18543
vt -3.76343 -0.84219
vt -3.60024 -0.84333
vt -3.52129 -0.75152
vt -3.56835 -0.63080
vt -3.99784 -0.25222
vt -3.95364 -0.19759
vt -3.73167 -0.09390
vt -3.65731 -0.10849
vt -3.70321 -0.58618
vt -3.76755 -0.77297
vt -3.58736 -0.79070
vt -3.68460 -0.82388
vt -3.56447 -0.58218
vt -3.65744 -0.55829
vt -3.74325 -0.38023
vt -3.81762 -0.56487
vt -3.85624 -0.40626
vt -3.37855 -0.52826
vt -3.45436 -0.47791
vt -3.40001 -0.66728
vt -3.48150 -0.77998
vt -3.84767 -0.80057
vt -3.97636 -0.68530
vt -4.01499 -0.49565
vt -4.00354 -0.67114
vt -3.90916 -0.38166
vt -3.79903 -0.19674
vt -3.90773 -0.24865
vt -3.69892 -0.27425
vt -3.50869 -0.29041
vt -4.10794 -0.44230
vt -4.06932 -0.26310
vt -4.01929 -0.20904
vt -3.93634 -0.15898
vt -4.05791 -0.28369
vt -3.91202 -0.21490
vt -4.00499 -0.31701
vt -3.82621 -0.15683
vt -3.88342 -0.10935
vt -3.87483 -0.17142
vt -4.13514 -0.36607
vt -4.15372 -0.40998
vt -4.07650 -0.39196
vt -3.83478 -0.09476
vt -4.09509 -0.43587
vt -3.69319 -0.15683
vt -4.16086 -0.45503
vt -3.67746 -0.09548
vt -4.15801 -0.53784
vt -4.09939 -0.46805
vt -3.66316 -0.16598
vt -3.62884 -0.11164
vt -4.09509 -0.53326
vt -3.50869 -0.27597
vt -3.45720 -0.23921
vt -3.99783 -0.70661
vt -4.06220 -0.59262
vt -4.12083 -0.61121
vt -4.03072 -0.76024
vt -3.37426 -0.40025
vt -3.42288 -0.27511
vt -3.48152 -0.29842
vt -3.43290 -0.42357
vt -4.00785 -0.78784
vt -3.84337 -0.78756
vt -3.98640 -0.72663
vt -3.86340 -0.84877
vt -3.39570 -0.62094
vt -3.37712 -0.49021
vt -3.43861 -0.49937
vt -3.78902 -0.87037
vt -3.45436 -0.59662
vt -3.76900 -0.80930
vt -3.47580 -0.63681
vt -3.53301 -0.71833
vt -3.42288 -0.67471
vt -3.71463 -0.87766
vt -3.52299 -0.80601
vt -3.71322 -0.81330
vt -3.48009 -0.75624
vt -3.56588 -0.75767
vt -3.72607 -0.57160
vt -3.79903 -0.58962
vt -3.80762 -0.71118
vt -3.90058 -0.68616
vt -3.86052 -0.52368
vt -4.00356 -0.57016
vt -3.71035 -0.50938
vt -3.52444 -0.60106
vt -3.62598 -0.44988
vt -3.52871 -0.47091
vt -3.59881 -0.67185
vt -3.74897 -0.46247
vt -3.64312 -0.37551
vt -3.71463 -0.35735
vt -3.73179 -0.34405
vt -3.81476 -0.36436
vt -3.81904 -0.44860
vt -3.77331 -0.70403
vt -3.76474 -0.89954
vt -3.68462 -0.87409
vt -3.84768 -0.86965
vt -3.66320 -0.73807
vt -3.82338 0.00393
vt -3.96640 -0.15669
vt -3.71325 -0.14339
vt -3.80763 -0.30114
vt -3.96209 -0.22248
vt -4.00071 -0.62351
vt -3.94493 -0.86693
vt -4.05078 -0.77025
vt -3.84339 -0.59391
vt -3.42290 -0.77497
vt -3.52875 -0.90669
vt -3.48297 -0.64640
vt -3.55593 -0.91470
vt -4.00930 -0.48692
vt -3.81766 -0.45217
vt -4.03505 -0.34304
vt -3.50156 -0.39210
vt -3.59740 -0.20088
vt -3.52444 -0.50909
vt -3.74326 -0.55786
vt -3.66889 -0.58504
vt -3.37143 -0.47448
vt -3.43290 -0.49036
vt -3.43719 -0.52697
vt -3.41146 -0.38323
vt -3.43719 -0.48907
vt -3.37427 -0.47091
vt -3.47009 -0.40383
vt -4.09368 -0.38523
vt -4.15803 -0.49822
vt -4.09939 -0.51381
vt -4.15517 -0.36364
vt -4.05220 -0.62208
vt -3.99928 -0.62380
vt -3.51157 -0.48907
vt -3.43433 -0.65026
vt -3.46295 -0.48793
vt -3.37857 -0.66613
vt -3.46151 -0.52568
vt -3.51873 -0.52568
vt -3.53161 -0.63381
vt -4.16376 -0.50309
vt -4.07650 -0.72663
vt -4.09939 -0.49894
vt -4.13228 -0.75524
vt -3.62027 -0.36378
vt -3.85483 -0.30772
vt -3.83909 -0.46276
vt -3.65889 -0.26910
vt -3.77759 -0.20260
vt -3.65745 -0.48964
vt -3.70608 -0.51725
vt -3.98355 -0.28040
vt -4.02360 -0.44902
vt -3.86912 -0.50180
vt -4.07081 -0.63080
vt -3.87628 -0.61764
vt -4.04217 -0.56544
vt -3.89772 -0.71290
vt -3.99785 -0.75152
vt -3.70180 -0.63295
vt -3.84480 -0.57918
vt -3.71611 -0.74522
vt -3.75187 -0.77854
vt -3.59169 -0.74494
vt -3.65030 -0.60563
vt -3.88917 -0.10849
vt -3.98500 -0.22505
vt -3.81766 -0.08432
vt -3.80049 -0.08975
vt -3.65174 -0.19530
vt -3.71753 -0.08088
vt -3.65030 -0.87051
vt -3.73612 -0.86536
vt -3.55593 -0.77454
vt -3.82052 -0.90026
vt -3.98641 -0.84333
vn 0.2835 0.6614 -0.6929
vn -0.3543 -0.6378 -0.6772
vn -0.5433 0.4094 -0.7323
vn -0.1732 -0.0630 -0.9843
vn -0.1417 0.4173 -0.8976
vn -0.5827 0.0236 -0.8110
vn 0.3228 -0.3858 -0.8661
vn 0.3543 0.2441 -0.9055
vn 0.3937 0.9213 -0.0079
vn 0.2598 0.8898 -0.3701
vn -0.2677 0.7244 -0.6378
vn -0.5827 0.6535 0.4803
vn -0.7638 0.6220 -0.1732
vn -0.1339 0.9843 0.1024
vn 0.7559 0.6142 0.2441
vn 0.7323 0.5591 -0.3780
vn 0.7717 -0.5354 0.3386
vn 0.2913 -0.6850 0.6693
vn 0.8976 -0.2047 0.3937
vn 0.7402 -0.6063 -0.2913
vn 0.8110 -0.0315 -0.5906
vn 0.8268 0.1968 -0.5197
vn 0.9843 -0.1732 -0.0709
vn 0.9528 0.2913 0.1181
vn -0.1024 -0.5984 0.7953
vn -0.0866 -0.2205 0.9685
vn -0.4882 0.0000 0.8740
vn -0.5906 0.3465 0.7244
vn 0.3307 0.5906 0.7323
vn -0.0709 0.2835 0.9528
vn 0.2913 -0.3858 0.8740
vn 0.3937 0.2047 0.8976
vn 0.5906 0.4252 0.6850
vn 0.6772 0.0157 0.7402
vn -0.4567 -0.8819 -0.1417
vn -0.0157 -1.0000 0.0394
vn -0.4409 -0.8898 0.1024
vn -0.1024 -0.9291 0.3543
vn 0.1732 -0.9055 -0.3937
vn 0.3858 -0.9134 0.1260
vn -0.8819 -0.4488 0.1181
vn -0.9291 -0.1968 -0.3071
vn -0.7638 -0.3780 0.5276
vn -0.8976 0.2047 -0.3858
vn -0.8898 0.2756 0.3622
vn -0.9370 0.1417 0.3228
vn 0.2835 0.6693 -0.6929
vn -0.5354 0.4173 -0.7323
vn -0.1575 -0.0866 -0.9843
vn 0.3150 -0.4331 -0.8425
vn 0.3622 0.2677 -0.8898
vn -0.1575 0.4488 -0.8819
vn -0.5906 0.0551 -0.8032
vn 0.2992 -0.8819 -0.3543
vn 0.3701 -0.7008 -0.6142
vn 0.3701 -0.6929 -0.6220
vn -0.0236 0.6220 -0.7795
vn -0.1260 0.7559 -0.6457
vn -0.0866 0.7008 -0.7087
vn -0.3937 0.9055 -0.1339
vn -0.2598 0.9528 -0.1811
vn -0.2598 0.9449 -0.1890
vn -0.1102 0.7165 -0.6929
vn -0.2362 0.5984 -0.7717
vn -0.1732 0.6299 -0.7638
vn -0.6772 -0.0157 -0.7402
vn -0.5984 -0.4252 -0.6850
vn -0.3937 -0.2047 -0.8976
vn -0.3228 -0.5984 -0.7323
vn 0.0709 -0.2835 -0.9528
vn 0.4961 0.0079 -0.8661
vn 0.5906 -0.3465 -0.7323
vn -0.2913 0.3780 -0.8819
vn 0.0866 0.2205 -0.9685
vn 0.1102 0.5984 -0.7953
vn -0.6693 -0.0236 -0.7402
vn -0.4016 -0.1811 -0.8976
vn -0.3071 -0.6142 -0.7244
vn -0.6142 -0.4094 -0.6772
vn 0.0787 -0.2756 -0.9606
vn 0.5748 -0.3543 -0.7402
vn 0.4961 -0.0079 -0.8661
vn 0.0787 0.2126 -0.9764
vn -0.2835 0.3937 -0.8740
vn 0.1181 0.6299 -0.7638
vn 0.3858 0.9213 -0.0236
vn -0.2598 0.7244 -0.6378
vn -0.5906 0.6535 0.4724
vn -0.1260 0.9843 0.1024
vn 0.3386 0.5906 0.7323
vn -0.6142 0.7874 0.0157
vn -0.6220 0.7795 0.0315
vn -0.4646 0.8819 0.0236
vn 0.3780 0.8661 -0.3307
vn 0.3858 0.8583 -0.3307
vn -0.2362 0.9685 -0.0866
vn 0.3386 0.8740 -0.3465
vn 0.3701 0.8583 -0.3543
vn 0.4646 0.8661 -0.1732
vn -0.4016 0.8976 -0.1654
vn 0.4724 0.8661 -0.1732
vn -0.4567 0.8898 0.0472
vn 0.5354 0.8268 -0.1890
vn 0.5197 0.8346 -0.1890
vn -0.5512 0.8346 -0.0315
vn 0.4252 0.8346 0.3465
vn -0.5512 0.8346 -0.0709
vn -0.5433 0.8346 -0.0630
vn 0.1102 0.9921 -0.1024
vn 0.2520 0.7638 0.5984
vn 0.4724 0.7953 0.3780
vn 0.4961 0.7795 0.3780
vn -0.4646 0.7244 0.5039
vn -0.4803 0.7087 0.5118
vn 0.2835 0.8740 0.3937
vn 0.5433 0.7402 -0.4016
vn 0.2835 0.8346 0.4724
vn 0.5118 0.7717 -0.3701
vn -0.5748 0.7402 0.3622
vn 0.3937 0.8583 -0.3228
vn 0.3937 0.8661 -0.3150
vn -0.2992 0.6850 -0.6693
vn -0.1732 0.9055 0.3937
vn -0.3858 0.9134 -0.1260
vn 0.1024 0.9291 -0.3543
vn 0.4409 0.8898 -0.1102
vn 0.0157 1.0000 -0.0394
vn 0.3543 0.6378 0.6772
vn 0.4567 0.8740 0.1496
vn -0.2992 0.7087 -0.6378
vn -0.1575 0.9134 0.3701
vn -0.3622 0.9213 -0.1181
vn 0.1024 0.9370 -0.3386
vn 0.3465 0.6693 0.6614
vn 0.4173 0.9055 -0.1102
vn 0.0157 1.0000 -0.0315
vn 0.4331 0.8898 0.1575
vn 0.7087 -0.6457 -0.2756
vn 0.7559 -0.5669 0.3307
vn 0.8819 -0.2756 0.3780
vn 0.7323 0.5669 -0.3780
vn 0.9685 -0.2283 -0.0866
vn 0.8110 -0.0866 -0.5827
vn 0.8268 0.2362 -0.5118
vn 0.7480 0.6142 0.2441
vn 0.9449 0.3150 0.1181
vn 0.2677 -0.8425 -0.4724
vn 0.3780 -0.8740 -0.3150
vn 0.3780 -0.8661 -0.3150
vn 0.1968 -0.8740 -0.4409
vn 0.5276 -0.7795 0.3386
vn 0.7165 -0.5906 0.3701
vn 0.7244 -0.5748 0.3780
vn 0.6220 -0.7795 -0.0709
vn 0.7953 -0.5906 0.0945
vn 0.7480 -0.6457 0.1417
vn 0.9370 -0.1417 -0.3228
vn 0.8898 -0.2756 -0.3543
vn 0.7559 0.3858 -0.5276
vn 0.9291 0.2047 0.3150
vn 0.8819 0.4567 -0.1181
vn 0.8976 -0.2126 0.3780
vn 0.7638 -0.6220 0.1732
vn 0.9370 -0.1339 -0.3228
vn 0.8976 -0.2756 -0.3465
vn 0.9055 -0.1968 0.3780
vn 0.9213 0.2205 0.3150
vn 0.7480 0.4173 -0.5197
vn 0.7559 -0.6299 0.1654
vn 0.8740 0.4803 -0.1102
vn -0.0945 -0.6378 0.7638
vn -0.0945 -0.2835 0.9528
vn 0.2835 -0.4409 0.8504
vn -0.4882 -0.0315 0.8740
vn -0.5984 0.3780 0.7087
vn -0.0551 0.3150 0.9449
vn 0.5591 0.4646 0.6850
vn 0.3701 0.2520 0.8898
vn 0.6772 -0.0079 0.7323
vn -0.4882 -0.7165 0.4961
vn -0.5039 -0.7008 0.5118
vn -0.3386 -0.8661 0.3701
vn -0.0945 -0.9606 0.2598
vn -0.1181 -0.9528 0.2677
vn -0.0945 -0.9291 0.3622
vn 0.2205 -0.8268 0.5197
vn 0.2047 -0.9291 0.3071
vn 0.2283 -0.8189 0.5197
vn -0.0866 -0.7638 0.6457
vn 0.0394 -0.6929 0.7244
vn 0.0551 -0.7087 0.7087
vn -0.3228 0.3858 0.8661
vn -0.3543 -0.2441 0.9055
vn 0.1654 0.0630 0.9843
vn 0.5827 -0.0236 0.8110
vn 0.1339 -0.4173 0.8976
vn 0.5433 -0.4173 0.7323
vn -0.2835 -0.6614 0.6929
vn -0.3543 -0.2362 0.9055
vn -0.7323 -0.5669 0.3780
vn 0.5748 -0.0079 0.8189
vn 0.1339 -0.4094 0.8976
vn 0.1732 0.0551 0.9843
vn -0.3150 0.4173 0.8504
vn 0.5512 -0.4252 0.7244
vn -0.2835 -0.6693 0.6929
vn -0.4173 -0.9055 -0.1181
vn -0.3307 -0.6850 -0.6457
vn -0.4016 -0.9134 0.0866
vn -0.0866 -0.9449 0.3228
vn 0.3465 -0.9291 0.1102
vn 0.1575 -0.9213 -0.3622
vn 0.2756 -0.7165 0.6378
vn -0.4882 -0.8425 -0.2362
vn -0.2677 -0.9606 0.0000
vn -0.2677 -0.9606 -0.0236
vn -0.0945 -0.9685 0.2441
vn -0.4016 -0.8898 -0.2126
vn -0.3701 -0.8819 -0.2992
vn -0.3937 -0.8898 -0.2126
vn -0.3622 -0.8819 -0.2992
vn -0.3543 -0.9134 -0.1811
vn -0.5118 -0.8268 0.2205
vn -0.5197 -0.8268 0.2205
vn 0.4724 -0.8740 -0.1024
vn -0.4803 -0.8740 0.1102
vn -0.4724 -0.8740 0.1102
vn 0.5748 -0.6614 -0.4803
vn 0.2677 -0.7244 0.6299
vn -0.2598 -0.8898 0.3701
vn -0.4016 -0.9134 -0.0079
vn 0.1417 -0.9843 -0.1102
vn 0.5591 -0.6693 -0.4882
vn 0.2677 -0.7402 0.6142
vn -0.2520 -0.8976 0.3701
vn -0.4016 -0.9134 -0.0236
vn -0.8504 -0.5197 0.1102
vn -0.9213 -0.2441 -0.2992
vn -0.7402 -0.4331 0.5197
vn -0.8898 0.2441 -0.3937
vn -0.8898 0.2913 0.3543
vn -0.9370 0.1654 0.3150
vn -0.8346 -0.1968 0.5197
vn -0.9843 0.1732 0.0709
vn -0.9528 -0.2913 -0.1181
vn -0.7480 -0.6142 -0.2441
vn -0.8110 0.0394 0.5906
vn -0.7402 0.6063 0.2913
vn -0.7717 0.5354 -0.3386
vn -0.7323 -0.5591 0.3780
vn -0.9528 -0.2835 -0.1181
vn -0.8346 -0.1811 0.5197
vn -0.8032 0.0315 0.5906
vn -0.7402 -0.6220 -0.2441
vn -0.7087 0.6457 0.2835
vn -0.7480 0.5748 -0.3307
vn -0.5512 0.4173 -0.7244
vn 0.3150 -0.4252 -0.8504
vn -0.1732 -0.0866 -0.9843
vn -0.1339 0.4252 -0.8976
vn -0.5827 0.0394 -0.8110
vn 0.3622 0.2598 -0.8976
vn -0.2520 -0.7795 -0.5748
vn -0.2520 -0.8898 -0.3780
vn -0.2598 -0.8504 -0.4567
vn 0.4724 0.7244 -0.5039
vn 0.3307 0.8740 -0.3622
vn 0.4882 0.7008 -0.5197
vn 0.0866 0.9370 -0.3386
vn 0.1102 0.9606 -0.2520
vn 0.0945 0.9685 -0.2126
vn -0.2047 0.9370 -0.2913
vn -0.2362 0.8346 -0.4882
vn -0.2126 0.9291 -0.2913
vn -0.2362 0.8346 -0.4961
vn 0.0866 0.7717 -0.6378
vn -0.0236 0.7087 -0.7008
vn 0.0866 0.7717 -0.6299
vn -0.0472 0.7244 -0.6850
vn -0.3937 -0.2126 -0.8976
vn -0.5906 -0.4331 -0.6850
vn 0.5906 -0.3465 -0.7244
vn 0.4882 0.0000 -0.8740
vn -0.3307 -0.5984 -0.7323
vn 0.0866 0.2441 -0.9685
vn -0.2835 0.4173 -0.8661
vn 0.1024 0.6378 -0.7638
vn 0.3937 0.9213 0.0157
vn 0.2520 0.8976 -0.3701
vn -0.2677 0.7402 -0.6220
vn -0.5669 0.6693 0.4803
vn -0.7559 0.6299 -0.1654
vn -0.1417 0.9843 0.1102
vn -0.3701 0.8740 0.3071
vn -0.3780 0.8740 0.3071
vn -0.2835 0.8504 0.4488
vn 0.4567 0.8583 0.2362
vn -0.2205 0.8740 0.4252
vn 0.2520 0.9685 0.0000
vn 0.2520 0.9685 0.0079
vn 0.3937 0.8898 0.2126
vn 0.3780 0.8819 0.2835
vn 0.3465 0.9213 0.1732
vn -0.5197 0.7874 -0.3386
vn -0.5118 0.7874 -0.3386
vn 0.5039 0.8425 -0.1968
vn -0.4488 0.8898 0.0945
vn -0.7087 0.5827 -0.4016
vn -0.7008 0.5984 -0.3858
vn -0.3543 0.7087 0.6142
vn 0.4646 0.8740 -0.1102
vn -0.6063 0.7874 0.0787
vn 0.4724 0.8740 -0.1102
vn -0.3543 0.7008 0.6220
vn -0.6063 0.7953 0.0709
vn -0.2913 0.8898 0.3465
vn -0.7402 0.6614 -0.1102
vn -0.7874 0.6142 -0.0709
vn -0.2835 0.7165 -0.6378
vn -0.1575 0.9213 0.3622
vn -0.3543 0.9291 -0.1181
vn 0.0945 0.9449 -0.3228
vn 0.4016 0.9134 -0.0945
vn 0.3465 0.6772 0.6535
vn 0.4252 0.8976 0.1260
vn 0.7480 -0.5669 0.3307
vn 0.7087 -0.6457 -0.2835
vn 0.7480 0.6220 0.2441
vn 0.8898 -0.2205 0.3937
vn 0.9764 -0.2047 -0.0709
vn 0.8110 -0.0551 -0.5827
vn 0.8268 0.2047 -0.5276
vn 0.9449 0.2992 0.1102
vn 0.5984 -0.7953 -0.0315
vn 0.4488 -0.8898 -0.0157
vn 0.6063 -0.7953 -0.0394
vn 0.4488 -0.8976 -0.0157
vn 0.4409 -0.8976 -0.0394
vn 0.5118 -0.8583 0.0394
vn 0.5276 -0.8504 0.0315
vn 0.5591 -0.7480 -0.3622
vn 0.4803 -0.7323 -0.4882
vn 0.4882 -0.7244 -0.4882
vn 0.8898 -0.2835 -0.3622
vn 0.8976 -0.2126 0.3858
vn 0.7480 0.4094 -0.5197
vn 0.9291 0.2205 0.3071
vn 0.8661 0.4882 -0.1181
vn -0.1181 -0.6299 0.7638
vn -0.0866 -0.2520 0.9606
vn 0.2835 -0.4173 0.8661
vn 0.3150 0.6063 0.7323
vn -0.4882 -0.0236 0.8740
vn -0.5827 0.3543 0.7323
vn -0.0630 0.2992 0.9528
vn 0.6063 0.4252 0.6693
vn 0.3858 0.2205 0.8976
vn 0.6693 0.0000 0.7402
vn 0.0315 -0.6378 0.7717
vn 0.0787 -0.7244 0.6850
vn 0.1102 -0.7717 0.6299
vn 0.3780 -0.9134 0.1575
vn 0.3780 -0.9134 0.1339
vn 0.2441 -0.9528 0.1654
vn 0.2205 -0.6220 0.7559
vn 0.1260 -0.7323 0.6693
vn 0.1811 -0.6457 0.7402
vn 0.2205 -0.6142 0.7559
vn -0.3858 -0.8740 0.3071
vn -0.4882 -0.7874 0.3780
vn -0.5197 -0.7480 0.4094
vn 0.1732 0.0630 0.9843
vn 0.1339 -0.4252 0.8976
vn -0.4331 -0.8898 -0.1496
vn -0.0157 -1.0000 0.0315
vn -0.3386 -0.6772 -0.6535
vn -0.4173 -0.9055 0.1024
vn -0.1024 -0.9370 0.3386
vn 0.3622 -0.9291 0.1181
vn 0.1575 -0.9134 -0.3701
vn 0.2913 -0.7165 0.6378
vn 0.2283 -0.9685 0.1102
vn -0.3543 -0.8740 0.3228
vn -0.3622 -0.8740 0.3228
vn -0.3622 -0.8661 0.3386
vn -0.4646 -0.8661 0.1732
vn -0.3386 -0.8819 0.3307
vn 0.2441 -0.9606 0.1575
vn -0.4724 -0.8661 0.1654
vn -0.4961 -0.8504 0.1811
vn -0.5118 -0.8425 0.1732
vn -0.4094 -0.8504 -0.3386
vn -0.4094 -0.8425 -0.3386
vn -0.1102 -0.9921 0.1024
vn -0.4803 -0.7953 -0.3622
vn -0.4567 -0.8110 -0.3622
vn -0.3780 -0.8740 0.3071
vn 0.5827 -0.6614 -0.4724
vn 0.2677 -0.7323 0.6299
vn -0.3858 -0.9213 0.0079
vn 0.1339 -0.9843 -0.1024
vn -0.8661 -0.4882 0.1102
vn -0.9134 -0.2441 -0.3150
vn -0.7402 -0.4252 0.5276
vn -0.9055 0.2047 -0.3780
vn -0.8898 0.2835 0.3465
vn -0.9370 0.1575 0.3150
vn -0.8268 -0.1968 0.5197
vn -0.9764 0.1890 0.0709
vn -0.8898 0.2283 -0.3858
vn -0.7559 0.5669 -0.3307

o egg_designer_9
usemtl c_b76fd4_neon
f 1/1/1 2/2/1 3/3/1
f 1/1/1 3/3/1 4/4/1
f 1/1/1 4/4/1 5/5/1
f 6/6/2 7/7/2 8/8/2
f 7/7/2 9/9/2 8/8/2
f 9/9/2 7/7/2 10/10/2
f 11/11/3 12/12/3 13/13/3
f 13/13/3 12/12/3 14/14/3
f 11/11/3 13/13/3 15/15/3
f 16/16/4 7/7/4 17/17/4
f 7/7/4 16/16/4 10/10/4
f 16/16/4 17/17/4 18/18/4
f 3/3/5 11/11/5 4/4/5
f 11/11/5 3/3/5 18/18/5
f 11/11/5 18/18/5 12/12/5
f 12/12/5 18/18/5 17/17/5
f 17/17/5 14/14/6 12/12/5
f 17/17/6 19/19/6 14/14/6
f 17/17/6 7/7/6 19/19/6
f 19/19/6 7/7/6 6/6/6
f 20/20/7 16/16/7 21/21/7
f 16/16/7 22/22/8 21/21/7
f 23/23/7 16/16/7 20/20/7
f 23/23/7 10/10/7 16/16/7
f 10/10/7 23/23/7 24/24/7
f 18/18/8 22/22/8 16/16/8
f 18/18/8 25/25/8 22/22/8
f 3/3/8 25/25/8 18/18/8
f 25/25/8 3/3/8 2/2/8
f 26/26/9 27/27/9 28/28/9
f 28/28/9 27/27/9 29/29/9
f 27/27/9 26/26/9 30/30/9
f 27/27/10 1/31/10 5/32/10
f 1/31/10 27/27/10 30/30/10
f 5/32/10 31/33/10 27/27/10
f 15/34/11 32/35/11 11/36/11
f 11/36/11 32/35/11 31/33/11
f 11/36/11 31/33/11 5/32/11
f 5/32/11 4/37/11 11/36/11
f 33/38/12 34/39/12 35/40/12
f 35/40/12 34/39/12 36/41/12
f 35/40/12 36/41/12 37/42/12
f 36/41/13 32/35/13 37/42/13
f 27/27/14 34/39/14 29/29/14
f 36/41/14 34/39/14 27/27/14
f 36/41/14 27/27/14 31/33/14
f 36/41/14 31/33/14 32/35/14
f 38/43/15 39/44/15 40/45/15
f 39/44/15 28/46/15 40/45/15
f 28/46/15 39/44/15 26/47/15
f 26/47/16 39/44/16 30/48/16
f 39/44/16 1/49/16 30/48/16
f 1/49/16 39/44/16 2/50/16
f 2/50/16 39/44/16 41/51/16
f 2/50/16 41/51/16 25/52/16
f 42/53/17 43/54/17 44/55/17
f 45/56/17 43/54/17 42/53/17
f 46/57/17 43/54/17 45/56/17
f 47/58/18 43/54/18 46/57/17
f 48/59/19 46/57/19 49/60/19
f 49/60/19 46/57/19 45/56/19
f 50/61/20 42/53/20 44/55/20
f 42/53/20 50/61/20 51/62/20
f 50/61/20 23/63/20 51/62/20
f 20/64/20 51/62/20 23/63/20
f 21/65/21 51/62/20 20/64/20
f 52/66/21 21/65/21 22/67/21
f 52/66/21 51/62/21 21/65/21
f 22/67/22 53/68/22 52/66/22
f 22/67/22 41/51/22 53/68/22
f 41/51/22 22/67/22 25/52/22
f 51/62/23 45/56/23 42/53/23
f 52/66/23 45/56/23 51/62/23
f 45/56/23 52/66/23 49/60/23
f 49/60/24 52/66/23 53/68/24
f 53/68/24 48/59/24 49/60/24
f 53/68/24 54/69/24 48/59/24
f 54/69/24 53/68/24 41/51/24
f 41/51/24 38/43/24 54/69/24
f 38/43/24 41/51/24 39/44/24
f 55/70/25 56/71/25 57/72/25
f 56/71/25 55/70/25 58/73/25
f 56/71/25 58/73/25 59/74/25
f 59/74/25 58/73/25 60/75/25
f 61/76/26 59/74/26 62/77/26
f 61/76/26 56/71/26 59/74/26
f 61/76/26 62/77/26 63/78/26
f 56/71/27 61/76/27 64/79/27
f 56/71/27 64/79/27 57/72/27
f 61/76/27 65/80/27 64/79/27
f 64/79/27 65/80/27 66/81/27
f 35/82/28 66/81/28 65/80/28
f 33/83/29 29/84/14 34/85/14
f 33/83/29 28/86/29 29/84/29
f 33/83/29 40/87/29 28/86/29
f 40/87/29 33/83/29 67/88/29
f 40/87/29 67/88/29 68/89/29
f 67/88/30 65/80/30 61/76/30
f 65/80/30 67/88/30 33/83/30
f 67/88/30 61/76/30 63/78/30
f 62/77/31 59/74/31 69/90/31
f 60/75/31 69/90/31 59/74/31
f 60/75/31 70/91/31 69/90/31
f 69/90/31 63/78/32 62/77/31
f 71/92/32 63/78/32 69/90/32
f 63/78/32 71/92/32 67/88/32
f 67/88/32 71/92/32 68/89/32
f 71/92/33 48/93/34 54/94/33
f 71/92/33 54/94/33 38/95/33
f 71/92/33 38/95/33 68/89/33
f 40/87/33 68/89/33 38/95/33
f 69/90/34 48/93/34 71/92/34
f 48/93/34 69/90/34 46/96/34
f 46/96/34 69/90/34 70/91/34
f 46/96/34 70/91/34 47/97/34
f 72/98/35 8/99/35 73/100/35
f 8/99/35 72/98/35 74/101/35
f 9/102/35 73/100/35 8/99/35
f 73/100/35 9/102/35 75/103/35
f 73/100/36 76/104/36 77/105/36
f 76/104/36 78/106/36 77/105/36
f 76/104/36 73/100/36 75/103/36
f 9/102/2 10/107/2 24/108/2
f 77/105/37 79/109/37 72/98/37
f 79/109/37 77/105/37 80/110/37
f 72/98/37 73/100/37 77/105/37
f 80/110/38 58/111/38 55/112/38
f 58/111/38 80/110/38 77/105/38
f 58/111/38 77/105/38 78/106/38
f 58/111/38 78/106/38 81/113/38
f 24/108/39 75/103/39 9/102/39
f 24/108/39 76/104/39 75/103/39
f 76/104/39 24/108/39 23/114/39
f 76/104/39 23/114/39 50/115/39
f 70/116/18 43/117/18 47/118/18
f 81/113/18 43/117/18 70/116/18
f 60/119/18 81/113/18 70/116/18
f 81/113/18 60/119/18 58/111/18
f 76/104/40 44/120/40 43/117/40
f 76/104/40 43/117/40 78/106/40
f 78/106/40 43/117/40 81/113/40
f 50/115/20 44/120/20 76/104/40
f 32/121/13 15/122/13 37/123/13
f 37/123/13 15/122/13 82/124/13
f 82/124/13 15/122/13 13/125/13
f 83/126/41 79/127/41 84/128/41
f 79/127/41 83/126/41 72/129/41
f 83/126/41 74/130/41 72/129/41
f 83/126/41 8/131/42 74/130/41
f 8/131/42 83/126/42 6/132/42
f 83/126/42 19/133/42 6/132/42
f 19/133/42 83/126/42 85/134/42
f 57/135/43 84/128/43 55/136/43
f 84/128/43 57/135/43 64/137/43
f 55/136/43 84/128/43 80/138/43
f 84/128/43 79/127/43 80/138/43
f 82/124/44 14/139/44 85/134/44
f 14/139/44 19/133/44 85/134/44
f 14/139/44 82/124/44 13/125/44
f 65/140/28 33/141/28 35/142/28
f 82/124/45 66/143/45 35/142/45
f 82/124/45 35/142/45 37/123/45
f 84/128/46 85/134/46 83/126/46
f 64/137/46 85/134/46 84/128/46
f 66/143/46 85/134/46 64/137/46
f 66/143/46 82/124/46 85/134/46
usemtl c_5e32f0_neon
f 86/144/47 87/145/47 88/146/47
f 86/144/47 88/146/47 89/147/47
f 86/144/47 89/147/47 90/148/47
f 91/149/48 92/150/48 93/151/48
f 93/151/48 92/150/48 94/152/48
f 91/149/48 93/151/48 95/153/48
f 96/154/49 97/155/49 98/156/49
f 97/155/49 96/154/49 99/157/49
f 96/154/49 98/156/49 100/158/49
f 101/159/50 98/156/50 102/160/50
f 103/161/50 98/156/50 101/159/50
f 103/161/50 100/158/50 98/156/50
f 100/158/50 103/161/50 104/162/50
f 105/163/51 106/164/51 107/165/51
f 107/165/51 106/164/51 108/166/51
f 105/163/51 109/167/51 106/164/51
f 105/163/51 88/146/51 109/167/51
f 109/167/51 88/146/51 87/145/51
f 88/146/52 91/149/52 89/147/52
f 88/146/52 105/163/52 91/149/52
f 91/149/52 105/163/52 92/150/52
f 92/150/52 105/163/52 110/168/52
f 110/168/52 94/152/53 92/150/52
f 110/168/53 111/169/53 94/152/53
f 110/168/53 112/170/53 111/169/53
f 111/169/53 112/170/53 113/171/53
f 114/172/54 115/173/55 116/174/56
f 117/175/54 115/173/55 114/172/54
f 118/176/57 119/177/58 120/178/59
f 119/177/58 118/176/57 121/179/57
f 122/180/60 123/181/61 124/182/62
f 125/183/63 126/184/64 127/185/65
f 125/183/63 128/186/64 126/184/64
f 129/187/66 130/188/66 131/189/66
f 131/189/66 130/188/66 132/190/66
f 130/188/66 129/187/66 133/191/66
f 133/191/66 129/187/66 134/192/66
f 135/193/67 131/189/66 132/190/67
f 132/190/67 136/194/67 135/193/67
f 136/194/67 132/190/67 137/195/67
f 137/195/67 138/196/67 136/194/67
f 132/190/68 130/188/68 139/197/68
f 139/197/68 130/188/68 140/198/68
f 132/190/68 139/197/68 141/199/68
f 141/199/68 137/195/68 132/190/68
f 142/200/69 138/196/69 141/199/69
f 138/196/69 137/195/69 141/199/69
f 138/196/69 142/200/69 143/201/69
f 143/201/69 142/200/69 144/202/69
f 144/202/69 142/200/69 145/203/69
f 146/204/70 141/199/70 147/205/70
f 147/205/70 141/199/70 139/197/70
f 141/199/70 146/204/70 142/200/70
f 147/205/71 148/206/71 149/207/71
f 149/207/71 148/206/71 150/208/71
f 149/207/71 146/204/71 147/205/71
f 146/204/71 149/207/71 151/209/71
f 142/200/72 146/204/72 152/210/72
f 152/210/72 146/204/72 151/209/72
f 130/188/73 153/211/73 154/212/73
f 153/211/73 130/188/73 133/191/73
f 130/188/73 154/212/73 140/198/73
f 140/198/74 147/205/74 139/197/74
f 154/212/74 147/205/74 140/198/74
f 147/205/74 154/212/74 148/206/74
f 155/213/75 148/206/75 154/212/75
f 155/213/75 154/212/75 153/211/75
f 156/214/75 148/206/75 155/213/75
f 148/206/75 156/214/75 150/208/75
f 157/215/76 158/216/76 159/217/76
f 157/215/76 160/218/76 158/216/76
f 161/219/76 160/218/76 157/215/76
f 160/218/76 161/219/76 162/220/76
f 162/220/76 161/219/76 163/221/76
f 164/222/77 165/223/77 166/224/77
f 166/224/77 165/223/77 167/225/77
f 164/222/77 166/224/77 168/226/77
f 168/226/77 169/227/77 164/222/77
f 168/226/77 170/228/78 169/227/77
f 168/226/78 171/229/78 170/228/78
f 172/230/78 171/229/78 168/226/78
f 171/229/78 172/230/78 173/231/78
f 173/231/78 172/230/78 174/232/78
f 175/233/79 164/222/79 169/227/79
f 164/222/79 175/233/79 120/178/79
f 169/227/79 170/228/79 175/233/79
f 176/234/80 168/226/80 177/235/80
f 177/235/80 168/226/80 166/224/80
f 168/226/80 176/234/80 172/230/80
f 172/230/81 176/234/81 178/236/81
f 178/236/81 176/234/81 127/185/81
f 179/237/82 180/238/82 181/239/82
f 181/239/82 180/238/82 182/240/82
f 181/239/82 183/241/82 179/237/82
f 183/241/82 181/239/82 184/242/82
f 185/243/83 186/244/83 179/237/83
f 186/244/83 180/238/83 179/237/83
f 186/244/83 185/243/83 187/245/83
f 188/246/84 187/245/84 160/218/84
f 187/245/84 188/246/84 186/244/84
f 188/246/84 160/218/84 162/220/84
f 180/238/85 189/247/85 182/240/85
f 189/247/85 180/238/85 190/248/85
f 190/248/85 180/238/85 186/244/85
f 190/248/85 186/244/85 188/246/85
f 191/249/86 192/250/86 193/251/86
f 193/251/86 192/250/86 194/252/86
f 191/249/86 193/251/86 195/253/86
f 192/250/10 86/254/10 90/255/10
f 86/254/10 192/250/10 191/249/10
f 90/255/10 196/256/10 192/250/10
f 95/257/87 197/258/87 91/259/87
f 91/259/87 197/258/87 196/256/87
f 91/259/87 196/256/87 90/255/87
f 90/255/87 89/260/87 91/259/87
f 198/261/88 199/262/88 200/263/88
f 200/263/88 199/262/88 201/264/88
f 200/263/88 201/264/88 202/265/88
f 202/265/13 201/264/13 197/258/13
f 201/264/89 199/262/89 192/250/89
f 201/264/89 192/250/89 196/256/89
f 201/264/89 196/256/89 197/258/89
f 199/262/90 194/252/90 192/250/89
f 164/266/91 119/267/58 203/268/92
f 119/267/58 164/266/91 120/269/59
f 204/270/93 167/271/94 165/272/93
f 205/273/95 167/271/94 204/270/93
f 118/274/57 206/275/96 121/276/57
f 207/277/96 206/275/96 118/274/57
f 208/278/97 166/279/98 167/271/94
f 207/277/96 122/280/60 206/275/96
f 166/279/98 208/278/97 177/281/99
f 209/282/100 122/280/60 207/277/96
f 208/278/97 210/283/101 177/281/99
f 122/280/60 209/282/100 123/284/61
f 123/284/61 106/285/102 124/286/62
f 125/287/63 176/288/103 211/289/104
f 106/285/102 123/284/61 212/290/105
f 127/291/65 176/288/103 125/287/63
f 213/292/106 108/293/107 214/294/108
f 215/295/109 126/296/64 128/297/64
f 108/293/107 213/292/106 107/298/106
f 216/299/109 126/296/64 215/295/109
f 215/295/109 217/300/110 216/299/109
f 217/300/110 215/295/109 218/301/110
f 105/302/111 219/303/112 220/304/113
f 220/304/113 110/305/114 105/302/111
f 221/306/115 222/307/116 223/308/117
f 221/306/115 111/309/118 222/307/116
f 224/310/119 113/311/120 112/312/119
f 113/311/120 224/310/119 225/313/121
f 153/314/122 226/315/122 155/316/122
f 133/317/122 226/315/122 153/314/122
f 227/318/122 226/315/122 133/317/122
f 227/318/122 133/317/122 134/319/122
f 228/320/123 229/321/123 230/322/123
f 230/322/123 231/323/123 228/320/123
f 228/320/123 231/323/123 232/324/123
f 230/322/123 229/321/124 233/325/124
f 229/321/124 234/326/124 233/325/124
f 234/326/124 229/321/124 227/318/124
f 227/318/124 229/321/124 235/327/124
f 227/318/124 235/327/124 226/315/124
f 155/316/125 235/327/125 236/328/125
f 235/327/125 155/316/125 226/315/125
f 236/328/125 237/329/125 155/316/125
f 155/316/125 237/329/125 156/330/125
f 238/331/126 239/332/126 236/328/126
f 240/333/126 236/328/126 239/332/126
f 237/329/126 236/328/126 240/333/126
f 238/331/127 229/321/127 228/320/127
f 236/328/127 229/321/127 238/331/127
f 229/321/127 236/328/127 235/327/127
f 241/334/128 232/324/128 231/323/128
f 242/335/129 238/331/129 232/324/129
f 232/324/129 238/331/129 228/320/129
f 242/335/129 239/332/129 238/331/129
f 239/332/129 242/335/129 243/336/129
f 188/337/130 244/338/130 190/339/130
f 162/340/130 244/338/130 188/337/130
f 245/341/130 244/338/130 162/340/130
f 245/341/130 162/340/130 163/342/130
f 246/343/131 247/344/131 248/345/131
f 247/344/131 246/343/131 249/346/131
f 249/346/131 246/343/131 250/347/131
f 248/345/131 247/344/132 251/348/132
f 247/344/132 252/349/132 251/348/132
f 252/349/132 247/344/132 245/341/132
f 245/341/132 247/344/132 253/350/132
f 245/341/132 253/350/132 244/338/132
f 190/339/133 253/350/133 254/351/133
f 253/350/133 190/339/133 244/338/133
f 254/351/133 255/352/133 190/339/133
f 190/339/133 255/352/133 189/353/133
f 256/354/134 250/347/134 257/355/134
f 257/355/134 250/347/134 246/343/134
f 256/354/134 258/356/134 250/347/134
f 259/357/135 260/358/135 254/351/135
f 261/359/135 254/351/135 260/358/135
f 255/352/135 254/351/135 261/359/135
f 259/357/136 247/344/136 249/346/136
f 254/351/136 247/344/136 259/357/136
f 247/344/136 254/351/136 253/350/136
f 258/356/137 259/357/137 250/347/137
f 250/347/137 259/357/137 249/346/137
f 258/356/137 260/358/137 259/357/137
f 260/358/137 258/356/137 262/360/137
f 263/361/138 264/362/138 265/363/138
f 263/361/138 265/363/138 266/364/138
f 103/365/138 264/362/138 263/361/138
f 264/362/138 103/365/138 101/366/138
f 267/367/139 268/368/139 265/363/139
f 265/363/139 268/368/139 266/364/139
f 267/367/139 269/369/139 268/368/139
f 270/370/139 268/368/139 269/369/139
f 271/371/140 269/369/140 272/372/140
f 272/372/140 269/369/140 267/367/140
f 195/373/141 273/374/141 191/375/141
f 273/374/141 86/376/141 191/375/141
f 86/376/141 273/374/141 87/377/141
f 87/377/141 273/374/141 274/378/141
f 87/377/141 274/378/141 109/379/141
f 264/362/142 267/367/142 265/363/142
f 275/380/142 267/367/142 264/362/142
f 267/367/142 275/380/142 272/372/142
f 272/372/142 275/380/142 276/381/142
f 101/366/50 102/382/50 264/362/143
f 275/380/143 264/362/143 102/382/143
f 275/380/143 102/382/143 277/383/143
f 124/384/144 106/385/144 122/386/144
f 106/385/144 274/378/144 122/386/144
f 274/378/144 106/385/144 109/379/144
f 193/387/145 273/374/145 195/373/145
f 273/374/145 193/387/145 278/388/145
f 273/374/146 278/388/145 279/389/146
f 279/389/146 274/378/146 273/374/146
f 274/378/146 279/389/146 119/390/146
f 274/378/146 119/390/146 122/386/146
f 122/386/146 119/390/146 121/391/146
f 206/392/146 122/386/146 121/391/146
f 280/393/147 281/394/148 158/395/149
f 158/395/149 160/396/150 280/393/147
f 184/397/151 282/398/152 283/399/151
f 184/397/151 181/400/153 282/398/152
f 99/401/154 96/402/155 284/403/154
f 284/403/154 96/402/155 256/404/156
f 208/405/97 167/406/94 205/407/95
f 210/408/101 176/409/103 177/410/99
f 176/409/103 210/408/101 211/411/104
f 213/412/106 105/413/111 107/414/106
f 105/413/111 213/412/106 219/415/112
f 113/416/120 222/417/116 111/418/118
f 222/417/116 113/416/120 225/419/121
f 149/420/157 285/421/157 151/422/157
f 286/423/157 151/422/157 285/421/157
f 285/421/157 149/420/157 287/424/157
f 285/421/157 287/424/157 288/425/157
f 286/423/158 152/426/158 151/422/158
f 152/426/158 286/423/158 289/427/158
f 287/424/159 237/428/159 240/429/159
f 237/428/159 287/424/159 156/430/159
f 156/430/159 287/424/159 150/431/159
f 287/424/159 149/420/159 150/431/159
f 288/425/160 290/432/160 285/421/160
f 288/425/160 291/433/160 290/432/160
f 291/433/160 288/425/160 242/434/160
f 288/425/161 243/435/161 242/434/160
f 288/425/161 239/436/161 243/435/161
f 288/425/161 240/429/161 239/436/161
f 287/424/161 240/429/161 288/425/161
f 292/437/162 286/423/162 285/421/162
f 286/423/162 292/437/162 293/438/162
f 292/437/162 285/421/162 290/432/162
f 289/427/163 294/439/163 295/440/163
f 294/439/163 289/427/163 286/423/163
f 294/439/163 286/423/163 293/438/163
f 127/441/164 223/442/164 296/443/164
f 223/442/164 127/441/164 126/444/164
f 223/442/164 126/444/164 217/445/164
f 217/445/164 126/444/164 216/446/164
f 296/443/165 178/447/165 127/441/165
f 178/447/165 296/443/165 297/448/165
f 298/449/166 296/443/166 223/442/166
f 296/443/166 298/449/166 299/450/166
f 298/449/166 223/442/166 222/417/166
f 116/451/167 300/452/167 114/453/167
f 258/454/167 300/452/167 116/451/167
f 300/452/167 258/454/167 301/455/167
f 258/454/167 116/451/167 262/456/167
f 302/457/168 189/458/168 255/459/168
f 302/457/168 255/459/168 261/460/168
f 189/458/168 302/457/168 182/461/168
f 302/457/168 181/400/168 182/461/168
f 297/448/169 303/462/169 304/463/169
f 303/462/169 297/448/169 296/443/169
f 303/462/169 296/443/169 299/450/169
f 261/460/170 116/451/170 302/457/170
f 116/451/170 261/460/170 260/464/170
f 116/451/170 260/464/170 262/456/170
f 305/465/171 306/466/171 307/467/171
f 306/466/171 305/465/171 308/468/171
f 306/466/171 308/468/171 309/469/171
f 309/469/171 308/468/171 310/470/171
f 311/471/172 309/469/172 312/472/172
f 311/471/172 306/466/172 309/469/172
f 311/471/172 312/472/172 313/473/172
f 309/469/173 280/474/173 312/472/173
f 310/470/173 280/474/173 309/469/173
f 310/470/173 314/475/173 280/474/173
f 198/476/90 194/477/90 199/478/90
f 198/476/90 193/479/90 194/477/90
f 198/476/90 278/480/90 193/479/90
f 278/480/90 198/476/90 315/481/90
f 278/480/90 315/481/90 316/482/90
f 306/466/174 311/471/174 282/483/174
f 306/466/174 282/483/174 307/467/174
f 311/471/174 317/484/174 282/483/174
f 282/483/174 317/484/174 283/485/174
f 200/486/175 125/487/175 211/488/175
f 211/488/176 208/489/176 315/481/176
f 208/489/176 211/488/176 210/490/176
f 211/488/176 315/481/176 198/476/176
f 203/491/177 279/492/177 316/482/177
f 316/482/177 279/492/177 278/480/177
f 279/492/177 203/491/177 119/493/177
f 203/491/178 208/489/178 204/494/178
f 204/494/178 208/489/178 205/495/178
f 208/489/178 203/491/178 315/481/178
f 315/481/178 203/491/178 316/482/178
f 269/496/179 280/474/179 314/475/179
f 269/496/179 314/475/179 270/497/179
f 271/498/179 280/474/179 269/496/179
f 280/474/179 271/498/179 281/499/179
f 281/499/179 271/498/179 318/500/179
f 271/498/180 157/501/181 159/502/182
f 276/503/183 275/504/184 319/505/185
f 320/506/186 321/507/187 277/508/187
f 320/506/186 277/508/187 102/509/188
f 300/510/189 322/511/190 323/512/189
f 300/510/189 301/513/191 322/511/190
f 221/514/115 217/515/110 218/516/110
f 223/517/117 217/515/110 221/514/115
f 324/518/192 325/519/192 326/520/192
f 325/519/192 324/518/192 230/521/192
f 230/521/192 324/518/192 241/522/192
f 230/521/192 241/522/192 231/523/192
f 327/524/193 328/525/193 329/526/193
f 329/526/193 328/525/193 330/527/193
f 328/525/193 327/524/193 331/528/193
f 331/528/193 327/524/193 324/518/193
f 331/528/193 324/518/193 326/520/193
f 324/518/194 332/529/194 241/522/194
f 333/530/194 332/529/194 324/518/194
f 333/530/194 324/518/194 327/524/194
f 333/530/195 290/531/195 332/529/195
f 290/531/195 291/532/195 332/529/195
f 292/533/195 290/531/195 333/530/195
f 292/533/195 333/530/195 334/534/195
f 327/524/196 334/534/196 333/530/196
f 327/524/196 335/535/196 334/534/196
f 335/535/196 327/524/196 329/526/196
f 335/535/196 329/526/196 336/536/196
f 332/529/128 232/537/128 241/522/128
f 232/537/128 332/529/128 242/538/128
f 242/538/128 332/529/128 291/532/128
f 335/535/197 293/539/197 334/534/197
f 293/539/197 292/533/197 334/534/197
f 293/539/197 335/535/197 294/540/197
f 337/541/198 336/536/198 338/542/198
f 329/526/198 338/542/198 336/536/198
f 329/526/198 330/527/198 338/542/198
f 339/543/199 340/544/199 219/545/199
f 339/543/199 219/545/199 212/546/199
f 212/546/199 219/545/199 213/547/199
f 212/546/199 213/547/199 214/548/199
f 340/544/199 339/543/200 341/549/200
f 224/550/201 220/551/201 222/552/201
f 224/550/201 222/552/201 225/553/201
f 220/551/201 298/554/201 222/552/201
f 298/554/201 220/551/201 342/555/201
f 219/545/202 342/555/201 220/551/201
f 219/545/202 343/556/202 342/555/202
f 343/556/202 219/545/202 340/544/202
f 343/556/202 340/544/202 344/557/202
f 257/558/203 345/559/203 256/560/203
f 345/559/203 346/561/203 256/560/203
f 256/560/203 346/561/203 284/562/203
f 246/563/204 248/564/204 345/559/204
f 246/563/204 345/559/204 257/558/204
f 248/564/204 347/565/204 345/559/204
f 345/559/204 347/565/204 320/506/204
f 343/556/205 299/566/205 342/555/205
f 299/566/205 298/554/205 342/555/205
f 299/566/205 343/556/205 303/567/205
f 348/568/206 344/557/206 340/544/206
f 348/568/206 349/569/206 344/557/206
f 340/544/206 341/549/206 348/568/206
f 258/570/134 256/560/134 301/513/134
f 350/571/207 351/572/207 352/573/207
f 353/574/207 351/572/207 350/571/207
f 354/575/207 351/572/207 353/574/207
f 351/572/207 354/575/207 355/576/207
f 322/577/208 354/575/208 353/574/208
f 354/575/208 322/577/208 96/578/208
f 354/575/208 96/578/208 100/579/208
f 354/575/208 100/579/208 104/580/208
f 351/572/36 356/581/36 357/582/36
f 356/581/36 358/583/36 357/582/36
f 356/581/36 351/572/36 355/576/36
f 357/582/209 359/584/209 352/573/209
f 359/584/209 357/582/209 360/585/209
f 352/573/209 351/572/209 357/582/209
f 360/585/210 308/586/210 305/587/210
f 308/586/210 360/585/210 357/582/210
f 308/586/210 357/582/210 358/583/210
f 308/586/210 358/583/210 361/588/210
f 356/581/211 266/589/211 268/590/211
f 266/589/211 356/581/211 263/591/211
f 356/581/211 268/590/211 358/583/211
f 358/583/211 268/590/211 361/588/211
f 356/581/211 103/592/212 263/591/211
f 103/592/212 356/581/212 355/576/212
f 104/580/212 103/592/212 355/576/212
f 104/580/212 355/576/212 354/575/212
f 310/593/213 361/588/213 314/594/213
f 361/588/213 310/593/213 308/586/213
f 314/594/213 361/588/213 268/590/213
f 314/594/213 268/590/213 270/595/213
f 281/596/148 159/597/182 158/598/149
f 159/597/182 281/596/148 318/599/182
f 160/600/150 312/601/214 280/602/147
f 271/603/180 362/604/215 157/605/181
f 312/601/214 160/600/150 187/606/214
f 362/604/215 271/603/180 272/607/216
f 272/607/216 363/608/217 362/604/215
f 276/609/183 363/608/217 272/607/216
f 185/610/218 311/611/219 313/612/220
f 363/608/217 276/609/183 319/613/185
f 311/611/219 185/610/218 179/614/221
f 321/615/187 319/613/185 275/616/184
f 275/616/184 277/617/187 321/615/187
f 183/618/222 283/619/151 317/620/222
f 283/619/151 183/618/222 184/621/151
f 345/622/223 320/623/186 102/624/188
f 345/622/223 102/624/188 98/625/224
f 181/626/153 302/627/225 282/628/152
f 302/627/225 364/629/225 282/628/152
f 302/627/225 115/630/55 364/629/225
f 99/631/154 346/632/226 97/633/227
f 116/634/56 115/630/55 302/627/225
f 346/632/226 99/631/154 284/635/154
f 300/636/189 117/637/54 114/638/54
f 322/577/190 256/639/156 96/578/155
f 323/640/189 117/637/54 300/636/189
f 322/577/190 301/641/191 256/639/156
f 365/642/228 152/643/228 289/644/228
f 145/645/228 152/643/228 365/642/228
f 152/643/228 145/645/228 142/646/228
f 295/647/163 365/642/163 289/644/163
f 366/648/229 335/649/229 337/650/229
f 337/650/229 335/649/229 336/651/229
f 295/647/229 335/649/229 366/648/229
f 335/649/229 295/647/229 294/652/229
f 367/653/230 337/650/230 338/654/230
f 337/650/230 367/653/230 366/648/230
f 367/653/230 338/654/230 368/655/230
f 144/656/231 367/653/231 143/657/231
f 367/653/231 369/658/231 143/657/231
f 369/658/231 367/653/231 368/655/231
f 367/653/232 145/645/232 365/642/232
f 145/645/232 367/653/232 144/656/232
f 367/653/232 365/642/232 366/648/232
f 366/648/232 365/642/232 295/647/232
f 304/659/169 370/660/169 297/661/169
f 370/660/233 178/662/233 297/661/233
f 174/663/233 178/662/233 370/660/233
f 178/662/233 174/663/233 172/664/233
f 371/665/234 343/666/234 349/667/234
f 349/667/234 343/666/234 344/668/234
f 304/659/234 343/666/234 371/665/234
f 343/666/234 304/659/234 303/669/234
f 372/670/235 349/667/235 348/671/235
f 349/667/235 372/670/235 371/665/235
f 372/670/235 348/671/235 373/672/235
f 173/673/236 372/670/236 171/674/236
f 372/670/236 374/675/236 171/674/236
f 374/675/236 372/670/236 373/672/236
f 372/670/232 174/663/232 370/660/232
f 174/663/232 372/670/232 173/673/232
f 372/670/232 370/660/232 371/665/232
f 371/665/232 370/660/232 304/659/232
f 197/676/13 95/677/13 202/678/13
f 202/678/13 95/677/13 375/679/13
f 375/679/13 95/677/13 93/680/13
f 115/681/237 359/682/237 364/683/237
f 359/682/237 115/681/237 352/684/237
f 115/681/237 350/685/237 352/684/237
f 115/681/237 353/686/238 350/685/237
f 353/686/238 323/687/238 322/688/238
f 115/681/238 323/687/238 353/686/238
f 323/687/238 115/681/238 117/689/238
f 307/690/239 364/683/239 305/691/239
f 364/683/239 307/690/239 282/692/239
f 305/691/239 364/683/239 360/693/239
f 364/683/239 359/682/239 360/693/239
f 375/679/240 94/694/240 221/695/240
f 94/694/240 111/696/240 221/695/240
f 94/694/240 375/679/240 93/680/240
f 211/697/175 198/698/175 200/699/175
f 375/679/241 125/700/241 200/699/241
f 375/679/241 200/699/241 202/678/241
f 125/700/242 221/695/242 215/701/242
f 215/701/242 221/695/242 218/702/242
f 221/695/242 125/700/242 375/679/242
f 125/700/242 215/701/242 128/703/242
f 318/704/182 271/705/180 159/706/182
f 185/707/218 312/708/214 187/709/214
f 185/707/218 313/710/220 312/708/214
f 183/711/222 311/712/219 179/713/221
f 317/714/222 311/712/219 183/711/222
f 98/715/224 346/716/226 345/717/223
f 346/716/226 98/715/224 97/718/227
f 203/719/92 204/720/93 164/721/91
f 204/720/93 165/722/93 164/721/91
f 108/723/107 106/724/102 212/725/105
f 212/725/105 214/726/108 108/723/107
f 220/727/113 224/728/119 110/729/114
f 110/729/114 224/728/119 112/730/119
f 328/731/243 331/732/243 376/733/243
f 376/733/243 331/732/243 377/734/243
f 377/734/243 331/732/243 378/735/243
f 378/735/243 379/736/244 377/734/243
f 379/736/244 378/735/244 380/737/244
f 378/735/244 381/738/244 380/737/244
f 381/738/244 382/739/244 380/737/244
f 131/740/245 377/734/245 379/736/245
f 135/741/245 377/734/245 131/740/245
f 135/741/245 376/733/245 377/734/245
f 376/733/245 135/741/245 136/742/245
f 136/742/245 383/743/245 376/733/245
f 383/743/245 136/742/245 138/744/246
f 143/745/246 383/743/246 138/744/246
f 383/743/246 143/745/246 369/746/246
f 378/735/247 326/747/247 381/738/247
f 326/747/247 378/735/247 331/732/247
f 381/738/247 326/747/192 325/748/192
f 379/736/44 380/737/44 129/749/44
f 379/736/44 129/749/44 131/740/44
f 381/738/248 233/750/248 382/739/248
f 233/750/248 234/751/248 382/739/248
f 381/738/248 230/752/248 233/750/248
f 230/752/248 381/738/248 325/748/248
f 227/753/249 380/737/249 382/739/249
f 227/753/249 382/739/249 234/751/249
f 380/737/249 227/753/249 129/749/249
f 227/753/249 134/754/249 129/749/249
f 383/743/250 338/755/250 376/733/250
f 376/733/250 338/755/250 330/756/250
f 376/733/250 330/756/250 328/731/250
f 338/755/250 383/743/250 368/757/250
f 368/757/250 383/743/250 369/746/250
f 120/758/251 384/759/251 209/760/251
f 175/761/251 384/759/251 120/758/251
f 175/761/251 385/762/251 384/759/251
f 120/758/251 209/760/251 118/763/251
f 118/763/251 209/760/251 207/764/251
f 384/759/200 341/765/200 339/766/200
f 384/759/200 348/767/200 341/765/200
f 385/762/200 348/767/200 384/759/200
f 348/767/200 385/762/200 373/768/200
f 373/768/200 385/762/200 374/769/200
f 339/766/252 212/725/252 384/759/252
f 384/759/252 212/725/252 209/760/252
f 212/725/252 123/770/252 209/760/252
f 320/771/253 319/772/253 321/773/253
f 319/772/253 320/771/253 386/774/253
f 386/774/253 320/771/253 347/775/253
f 319/772/244 362/776/244 363/777/244
f 362/776/244 319/772/244 387/778/244
f 319/772/244 386/774/244 387/778/244
f 386/774/244 388/779/244 387/778/244
f 362/776/44 387/778/44 161/780/44
f 362/776/44 161/780/44 157/781/44
f 175/761/254 170/782/254 385/762/254
f 171/783/254 385/762/254 170/782/254
f 374/769/254 385/762/254 171/783/254
f 386/774/255 251/784/255 388/779/255
f 388/779/255 251/784/255 252/785/255
f 386/774/255 248/786/255 251/784/255
f 248/786/255 386/774/255 347/775/255
f 387/778/256 252/785/256 245/787/256
f 252/785/256 387/778/256 388/779/256
f 387/778/256 245/787/256 161/780/256
f 245/787/256 163/788/256 161/780/256
usemtl c_29292a
f 389/789/47 390/790/47 391/791/47
f 390/790/47 392/792/47 391/791/47
f 390/790/47 389/789/47 393/793/47
f 394/794/257 395/795/257 396/796/257
f 396/796/257 395/795/257 397/797/257
f 394/794/257 396/796/257 398/798/257
f 399/799/258 400/800/258 401/801/258
f 399/799/258 401/801/258 402/802/258
f 400/800/258 399/799/258 403/803/258
f 403/803/258 399/799/258 404/804/258
f 405/805/259 406/806/259 407/807/259
f 406/806/259 405/805/259 399/799/259
f 399/799/259 402/802/259 406/806/259
f 391/791/260 394/794/260 389/789/260
f 394/794/260 391/791/260 408/808/260
f 408/808/260 395/795/260 394/794/260
f 395/795/261 408/808/260 409/809/261
f 409/809/261 397/797/261 395/795/261
f 409/809/261 410/810/261 397/797/261
f 409/809/261 411/811/261 410/810/261
f 410/810/261 411/811/261 412/812/261
f 413/813/262 391/791/262 392/792/262
f 413/813/262 408/808/262 391/791/262
f 408/808/262 413/813/262 414/814/262
f 408/808/262 414/814/262 415/815/262
f 415/815/262 414/814/262 416/816/262
f 417/817/263 418/818/264 419/819/263
f 418/818/264 417/817/263 420/820/265
f 421/821/266 422/822/267 423/823/268
f 424/824/269 425/825/270 426/826/271
f 427/827/272 404/804/273 428/828/274
f 404/804/273 429/829/275 428/828/274
f 430/830/276 431/831/277 432/832/278
f 433/833/279 432/832/278 431/831/277
f 421/821/66 434/834/66 435/835/66
f 421/821/66 436/836/66 434/834/66
f 437/837/66 436/836/66 421/821/66
f 436/836/66 437/837/66 438/838/66
f 438/838/66 437/837/66 439/839/66
f 440/840/280 441/841/280 442/842/280
f 442/842/280 441/841/280 443/843/280
f 440/840/280 442/842/280 444/844/280
f 444/844/280 445/845/280 440/840/280
f 446/846/281 440/840/281 445/845/281
f 440/840/281 446/846/281 447/847/281
f 445/845/281 448/848/281 446/846/281
f 449/849/70 444/844/70 450/850/70
f 450/850/70 444/844/70 442/842/70
f 444/844/70 449/849/70 451/851/70
f 449/849/282 452/852/282 453/853/282
f 454/854/283 455/855/283 456/856/283
f 456/856/283 455/855/283 457/857/283
f 456/856/283 458/858/283 454/854/283
f 458/858/283 456/856/283 459/859/283
f 451/851/284 448/848/284 444/844/284
f 448/848/284 445/845/284 444/844/284
f 448/848/284 451/851/284 460/860/284
f 460/860/284 451/851/284 461/861/284
f 461/861/284 451/851/284 462/862/284
f 463/863/285 464/864/285 454/854/285
f 454/854/285 464/864/285 455/855/285
f 464/864/285 463/863/285 465/865/285
f 436/836/286 466/866/286 464/864/286
f 466/866/286 436/836/286 438/838/286
f 436/836/286 464/864/286 465/865/286
f 467/867/287 455/855/287 464/864/287
f 467/867/287 464/864/287 466/866/287
f 468/868/287 455/855/287 467/867/287
f 455/855/287 468/868/287 457/857/287
f 469/869/288 470/870/288 471/871/288
f 471/871/288 470/870/288 472/872/288
f 470/870/288 469/869/288 473/873/288
f 470/870/289 390/874/289 393/875/289
f 390/874/289 470/870/289 473/873/289
f 393/875/289 474/876/289 470/870/289
f 398/877/290 475/878/290 394/879/290
f 394/879/290 475/878/290 474/876/290
f 394/879/290 474/876/290 393/875/290
f 393/875/290 389/880/290 394/879/290
f 476/881/291 477/882/291 478/883/291
f 478/883/291 477/882/291 479/884/291
f 478/883/291 479/884/291 480/885/291
f 479/884/292 475/878/292 480/885/292
f 470/870/293 477/882/293 472/872/293
f 479/884/293 477/882/293 470/870/293
f 479/884/293 470/870/293 474/876/293
f 479/884/293 474/876/293 475/878/293
f 481/886/294 422/887/267 434/888/295
f 434/888/295 422/887/267 435/889/267
f 436/890/296 465/891/297 482/892/298
f 421/893/266 423/894/268 483/895/299
f 465/891/297 484/896/297 482/892/298
f 483/895/299 485/897/300 421/893/266
f 465/891/297 486/898/301 484/896/297
f 483/895/299 487/899/271 485/897/300
f 426/900/271 485/897/300 487/899/271
f 486/898/301 463/901/301 454/902/302
f 487/899/271 424/903/269 426/900/271
f 486/898/301 454/902/302 488/904/302
f 454/902/302 489/905/303 488/904/302
f 427/906/272 425/907/270 424/903/269
f 425/907/270 427/906/272 428/908/274
f 459/909/304 489/905/303 458/910/303
f 489/905/303 459/909/304 490/911/305
f 399/912/306 429/913/275 404/914/273
f 429/913/275 399/912/306 491/915/306
f 492/916/307 493/917/308 456/918/309
f 456/918/309 494/919/307 492/916/307
f 495/920/310 492/916/307 494/919/307
f 405/921/311 496/922/312 497/923/313
f 498/924/314 492/916/307 495/920/310
f 496/922/312 405/921/311 407/925/315
f 499/926/316 432/927/278 500/928/316
f 406/929/317 433/930/279 501/931/318
f 499/926/316 430/932/276 432/927/278
f 431/933/277 501/931/318 433/930/279
f 466/934/319 502/935/319 467/936/319
f 438/937/319 502/935/319 466/934/319
f 503/938/319 502/935/319 438/937/319
f 503/938/319 438/937/319 439/939/319
f 504/940/320 505/941/321 506/942/320
f 507/943/320 504/940/320 506/942/320
f 508/944/320 504/940/320 507/943/320
f 507/943/320 509/945/320 508/944/320
f 508/944/320 509/945/320 510/946/320
f 505/941/321 504/940/321 503/938/321
f 503/938/321 504/940/321 511/947/321
f 503/938/321 511/947/321 502/935/321
f 467/936/322 511/947/322 512/948/322
f 511/947/322 467/936/322 502/935/322
f 512/948/322 513/949/322 467/936/322
f 467/936/322 513/949/322 468/950/322
f 514/951/323 515/952/323 512/948/323
f 516/953/323 512/948/323 515/952/323
f 513/949/323 512/948/323 516/953/323
f 514/951/136 504/940/136 508/944/136
f 512/948/136 504/940/136 514/951/136
f 504/940/136 512/948/136 511/947/136
f 501/931/324 510/946/324 517/954/324
f 517/954/324 510/946/324 509/945/324
f 431/933/324 510/946/324 501/931/324
f 510/946/324 431/933/324 518/955/324
f 518/955/325 514/951/325 510/946/325
f 510/946/325 514/951/325 508/944/325
f 519/956/325 514/951/325 518/955/325
f 519/956/325 515/952/325 514/951/325
f 520/957/326 521/958/326 522/959/326
f 522/959/326 521/958/326 523/960/326
f 520/957/326 524/961/326 521/958/326
f 521/958/326 524/961/326 525/962/326
f 526/963/327 527/964/327 522/959/327
f 526/963/327 522/959/327 523/960/327
f 400/965/327 527/964/327 526/963/327
f 527/964/327 400/965/327 403/966/327
f 528/967/328 529/968/328 530/969/328
f 529/968/328 471/970/328 530/969/328
f 471/970/328 529/968/328 469/971/328
f 423/972/329 524/961/329 483/973/329
f 483/973/329 524/961/329 520/957/329
f 487/974/330 520/957/330 424/975/330
f 520/957/330 487/974/330 483/973/330
f 522/959/330 424/975/330 520/957/330
f 424/975/330 522/959/330 527/964/330
f 404/976/331 527/964/331 403/966/331
f 427/977/331 527/964/331 404/976/331
f 527/964/331 427/977/331 424/975/331
f 531/978/332 532/979/332 533/980/332
f 532/979/332 531/978/332 414/981/332
f 532/979/332 414/981/332 413/982/332
f 469/971/141 529/968/141 473/983/141
f 529/968/141 390/984/141 473/983/141
f 532/979/141 390/984/141 529/968/141
f 532/979/141 392/985/141 390/984/141
f 392/985/262 532/979/141 413/982/262
f 534/986/333 533/980/333 535/987/333
f 533/980/333 536/988/333 535/987/333
f 536/988/333 533/980/333 532/979/333
f 532/979/333 528/967/333 536/988/333
f 528/967/333 532/979/333 529/968/333
f 537/989/334 441/990/335 440/991/336
f 441/990/335 537/989/334 538/992/337
f 539/993/338 540/994/339 414/981/340
f 540/994/339 416/995/339 414/981/340
f 411/996/341 409/997/342 541/998/343
f 541/998/343 542/999/341 411/996/341
f 422/1000/267 421/1001/266 435/1002/267
f 486/1003/301 465/1004/297 463/1005/301
f 489/1006/303 454/1007/302 458/1008/303
f 405/1009/311 491/1010/306 399/1011/306
f 497/1012/313 491/1010/306 405/1009/311
f 543/1013/157 418/1014/157 452/1015/157
f 544/1016/157 452/1015/157 418/1014/157
f 418/1014/157 543/1013/157 545/1017/157
f 418/1014/157 545/1017/157 419/1018/157
f 544/1016/344 453/1019/344 452/1015/344
f 453/1019/344 544/1016/344 546/1020/344
f 451/1021/282 449/1022/282 453/1019/282
f 547/1023/345 544/1016/345 418/1014/345
f 544/1016/345 547/1023/345 548/1024/345
f 547/1023/345 418/1014/345 549/1025/345
f 494/1026/346 468/1027/346 513/1028/346
f 494/1026/346 513/1028/346 516/1029/346
f 468/1027/346 494/1026/346 457/1030/346
f 494/1026/346 456/1031/346 457/1030/346
f 495/1032/347 430/1033/347 499/1034/347
f 518/1035/347 430/1033/347 495/1032/347
f 430/1033/347 518/1035/347 431/1036/347
f 518/1035/347 495/1032/347 519/1037/347
f 495/1032/347 515/1038/348 519/1037/347
f 495/1032/348 516/1029/348 515/1038/348
f 494/1026/348 516/1029/348 495/1032/348
f 546/1020/163 550/1039/163 551/1040/163
f 550/1039/163 546/1020/163 544/1016/163
f 550/1039/163 544/1016/163 548/1024/163
f 552/1041/349 553/1042/349 554/1043/349
f 553/1042/349 555/1044/349 554/1043/349
f 554/1043/349 555/1044/349 556/1045/349
f 556/1045/349 555/1044/349 557/1046/349
f 488/1047/350 556/1045/350 486/1048/350
f 486/1048/350 556/1045/350 484/1049/350
f 556/1045/350 488/1047/350 554/1043/350
f 557/1046/351 482/1050/351 484/1049/351
f 482/1050/351 557/1046/351 558/1051/351
f 557/1046/351 484/1049/351 556/1045/351
f 476/1052/352 472/1053/293 477/1054/293
f 476/1052/352 471/1055/352 472/1053/352
f 476/1052/352 530/1056/352 471/1055/352
f 530/1056/352 476/1052/352 559/1057/352
f 530/1056/352 559/1057/352 560/1058/352
f 554/1043/353 488/1047/353 493/1059/353
f 554/1043/353 493/1059/353 552/1041/353
f 488/1047/353 489/1060/353 493/1059/353
f 493/1059/353 489/1060/353 490/1061/353
f 476/1052/354 478/1062/354 561/1063/354
f 478/1062/354 562/1064/354 561/1063/354
f 559/1057/355 561/1063/355 563/1065/355
f 561/1063/355 559/1057/355 476/1052/355
f 559/1057/355 563/1065/355 564/1066/355
f 537/1067/356 536/1068/356 528/1069/356
f 537/1067/356 528/1069/356 560/1058/356
f 528/1069/356 530/1056/356 560/1058/356
f 537/1067/357 564/1066/357 538/1070/357
f 538/1070/357 564/1066/357 565/1071/357
f 564/1066/357 537/1067/357 559/1057/357
f 559/1057/357 537/1067/357 560/1058/357
f 423/1072/358 482/1050/358 524/1073/358
f 524/1073/358 482/1050/358 558/1051/358
f 524/1073/358 558/1051/358 525/1074/358
f 482/1050/358 423/1072/358 481/1075/358
f 481/1075/358 423/1072/358 422/1076/358
f 566/1077/359 536/1068/360 447/1078/361
f 536/1068/360 566/1077/359 535/1079/359
f 533/1080/362 567/1081/363 568/1082/364
f 569/1083/365 452/1084/366 562/1064/367
f 452/1084/366 569/1083/365 543/1085/368
f 570/1086/369 549/1087/370 410/1088/371
f 500/1089/316 498/1090/314 495/1091/310
f 499/1092/316 500/1089/316 495/1091/310
f 571/1093/193 572/1094/193 573/1095/193
f 573/1095/193 572/1094/193 574/1096/193
f 572/1094/193 571/1093/193 539/1097/193
f 539/1097/193 571/1093/193 575/1098/193
f 539/1097/193 575/1098/193 540/1099/193
f 541/1100/195 549/1087/195 542/1101/195
f 549/1087/195 570/1086/195 542/1101/195
f 547/1102/195 549/1087/195 541/1100/195
f 547/1102/195 541/1100/195 576/1103/195
f 517/1104/372 491/1105/372 501/1106/372
f 491/1105/372 497/1107/372 501/1106/372
f 501/1106/372 497/1107/372 496/1108/372
f 571/1093/373 576/1103/373 541/1100/373
f 571/1093/373 577/1109/373 576/1103/373
f 577/1109/373 571/1093/373 573/1095/373
f 577/1109/373 573/1095/373 578/1110/373
f 509/1111/204 507/1112/204 491/1105/204
f 509/1111/204 491/1105/204 517/1104/204
f 491/1105/204 507/1112/204 579/1113/204
f 491/1105/204 579/1113/204 429/1114/204
f 577/1109/197 548/1115/197 576/1103/197
f 548/1115/197 547/1102/197 576/1103/197
f 548/1115/197 577/1109/197 550/1116/197
f 580/1117/206 578/1110/206 581/1118/206
f 573/1095/206 581/1118/206 578/1110/206
f 573/1095/206 574/1096/206 581/1118/206
f 582/1119/374 583/1120/374 584/1121/374
f 584/1121/374 583/1120/374 585/1122/374
f 586/1123/374 582/1119/374 584/1121/374
f 582/1119/374 586/1123/374 587/1124/374
f 582/1119/375 588/1125/375 589/1126/375
f 588/1125/375 590/1127/375 589/1126/375
f 588/1125/375 582/1119/375 587/1124/375
f 586/1123/376 402/1128/376 401/1129/376
f 586/1123/376 406/1130/376 402/1128/376
f 586/1123/376 433/1131/376 406/1130/376
f 433/1131/376 586/1123/376 584/1121/376
f 589/1126/377 591/1132/377 583/1120/377
f 591/1132/377 589/1126/377 592/1133/377
f 589/1126/377 583/1120/377 582/1119/377
f 592/1133/378 555/1134/378 553/1135/378
f 555/1134/378 592/1133/378 589/1126/378
f 555/1134/378 589/1126/378 590/1127/378
f 555/1134/378 590/1127/378 593/1136/378
f 588/1125/379 523/1137/379 521/1138/379
f 588/1125/379 521/1138/379 590/1127/379
f 590/1127/379 521/1138/379 593/1136/379
f 523/1137/379 588/1125/380 526/1139/380
f 588/1125/380 400/1140/380 526/1139/380
f 400/1140/380 588/1125/380 401/1129/380
f 401/1129/380 588/1125/380 587/1124/380
f 401/1129/380 587/1124/380 586/1123/380
f 557/1141/381 593/1136/381 558/1142/381
f 593/1136/381 557/1141/381 555/1134/381
f 593/1136/381 521/1138/381 558/1142/381
f 558/1142/381 521/1138/381 525/1143/381
f 536/1144/360 537/1145/334 447/1146/361
f 537/1145/334 440/1147/336 447/1146/361
f 594/1148/382 535/1149/359 566/1150/359
f 538/1151/337 565/1152/383 441/1153/335
f 594/1148/382 534/1154/382 535/1149/359
f 565/1152/383 443/1155/384 441/1153/335
f 594/1148/382 567/1156/363 534/1154/382
f 564/1157/385 443/1155/384 565/1152/383
f 533/1158/362 534/1154/382 567/1156/363
f 563/1159/386 442/1160/387 564/1157/385
f 568/1161/364 531/1162/388 533/1158/362
f 442/1160/387 563/1159/386 450/1163/389
f 568/1161/364 539/1164/338 531/1162/388
f 531/1162/388 539/1164/338 414/1165/340
f 452/1166/366 449/1167/390 561/1168/391
f 452/1166/366 561/1168/391 562/1169/367
f 415/1170/392 416/1171/339 540/1172/339
f 415/1170/392 540/1172/339 575/1173/393
f 569/1174/365 545/1175/394 543/1176/368
f 569/1174/365 595/1177/394 545/1175/394
f 409/1178/342 408/1179/395 571/1180/396
f 595/1177/394 417/1181/263 545/1175/394
f 571/1180/396 541/1182/343 409/1178/342
f 417/1181/263 419/1183/263 545/1175/394
f 542/1184/341 570/1185/369 411/1186/341
f 420/1187/265 410/1188/371 418/1189/264
f 570/1185/369 412/1190/397 411/1186/341
f 418/1189/264 410/1188/371 549/1191/370
f 551/1192/163 596/1193/163 546/1194/163
f 596/1193/398 453/1195/398 546/1194/398
f 462/1196/398 453/1195/398 596/1193/398
f 453/1195/398 462/1196/398 451/1197/398
f 597/1198/399 577/1199/399 580/1200/399
f 580/1200/399 577/1199/399 578/1201/399
f 551/1192/399 577/1199/399 597/1198/399
f 577/1199/399 551/1192/399 550/1202/399
f 598/1203/235 580/1200/235 581/1204/235
f 580/1200/235 598/1203/235 597/1198/235
f 598/1203/235 581/1204/235 599/1205/235
f 598/1203/400 600/1206/400 460/1207/400
f 600/1206/400 598/1203/400 599/1205/400
f 461/1208/401 598/1203/401 460/1207/400
f 462/1196/401 598/1203/401 461/1208/401
f 598/1203/401 462/1196/401 596/1193/401
f 598/1203/401 596/1193/401 597/1198/401
f 597/1198/401 596/1193/401 551/1192/401
f 498/1209/402 583/1210/402 591/1211/402
f 583/1210/402 498/1209/402 585/1212/402
f 591/1211/402 492/1213/402 498/1209/402
f 475/1214/292 398/1215/292 480/1216/292
f 480/1216/292 398/1215/292 601/1217/292
f 601/1217/292 398/1215/292 396/1218/292
f 432/1219/403 584/1220/403 498/1209/403
f 498/1209/403 584/1220/403 585/1212/403
f 584/1220/403 432/1219/403 433/1221/403
f 432/1219/403 498/1209/403 500/1222/403
f 552/1223/404 492/1213/404 553/1224/404
f 492/1213/404 552/1223/404 493/1225/404
f 553/1224/404 492/1213/404 592/1226/404
f 492/1213/404 591/1211/404 592/1226/404
f 410/1227/405 420/1228/405 397/1229/405
f 601/1217/405 397/1229/405 420/1228/405
f 397/1229/405 601/1217/405 396/1218/405
f 601/1217/406 562/1230/406 478/1231/406
f 601/1217/406 478/1231/406 480/1216/406
f 569/1232/407 420/1228/407 417/1233/407
f 569/1232/407 417/1233/407 595/1234/407
f 562/1230/407 420/1228/407 569/1232/407
f 562/1230/407 601/1217/407 420/1228/407
f 564/1235/385 442/1236/387 443/1237/384
f 561/1238/391 450/1239/389 563/1240/386
f 450/1239/389 561/1238/391 449/1241/390
f 571/1242/396 415/1243/392 575/1244/393
f 408/1245/395 415/1243/392 571/1242/396
f 410/1227/371 412/1246/397 570/1247/369
f 434/1248/295 436/1249/296 481/1250/294
f 482/1251/298 481/1250/294 436/1249/296
f 493/1225/308 490/1252/305 459/1253/304
f 459/1253/304 456/1254/309 493/1225/308
f 407/1255/315 501/1256/318 496/1257/312
f 407/1255/315 406/1258/317 501/1256/318
f 447/1259/245 602/1260/245 567/1261/245
f 446/1262/245 602/1260/245 447/1259/245
f 446/1262/245 603/1263/245 602/1260/245
f 447/1259/245 567/1261/245 566/1264/245
f 566/1264/245 567/1261/245 594/1265/245
f 572/1266/408 539/1267/408 602/1260/408
f 602/1260/408 539/1267/408 567/1261/408
f 539/1267/408 568/1268/408 567/1261/408
f 429/1269/247 425/1270/247 428/1271/247
f 425/1270/247 429/1269/247 604/1272/247
f 604/1272/247 429/1269/247 579/1273/247
f 425/1270/409 485/1274/409 426/1275/409
f 485/1274/409 425/1270/409 605/1276/409
f 425/1270/409 604/1272/409 605/1276/409
f 604/1272/409 606/1277/409 605/1276/409
f 485/1274/410 605/1276/410 437/1278/410
f 485/1274/410 437/1278/410 421/1279/410
f 603/1263/200 581/1280/200 602/1260/200
f 602/1260/200 581/1280/200 574/1281/200
f 602/1260/200 574/1281/200 572/1266/200
f 581/1280/200 603/1263/200 599/1282/200
f 599/1282/200 603/1263/200 600/1283/200
f 446/1262/246 448/1284/246 603/1263/246
f 460/1285/246 603/1263/246 448/1284/246
f 603/1263/246 460/1285/246 600/1283/246
f 503/1286/411 605/1276/411 606/1277/411
f 503/1286/411 606/1277/411 505/1287/411
f 605/1276/411 503/1286/411 437/1278/411
f 503/1286/411 439/1288/411 437/1278/411
f 604/1272/255 506/1289/255 606/1277/255
f 506/1289/255 505/1287/255 606/1277/255
f 604/1272/255 507/1290/255 506/1289/255
f 507/1290/255 604/1272/255 579/1273/255
