# Roblox asset pack: mecha_dinosaur (creatures), from the Studio model "MechaDinosaur". Exported with Export Selection, split by tools/build_creatures.py: one object per rigid body. Units: studs. +Y up, front faces -Z, pivot (bottom centre) at the origin.
mtllib mecha_dinosaur.mtl

v 6.00000 12.50000 -8.27000
v 6.00000 12.50000 -7.27000
v 6.00000 9.50000 -8.27000
v 6.00000 9.50000 -7.27000
v 4.00000 12.50000 -7.27000
v 4.00000 12.50000 -8.27000
v 4.00000 9.50000 -7.27000
v 4.00000 9.50000 -8.27000
v 6.00000 12.50000 -5.27000
v 6.00000 10.50000 -7.27000
v 6.00000 10.50000 -5.27000
v 4.00000 12.50000 -5.27000
v 4.00000 10.50000 -5.27000
v 4.00000 10.50000 -7.27000
v 6.00000 10.50000 -6.27000
v 6.00000 9.50000 -6.27000
v 4.00000 10.50000 -6.27000
v 4.00000 9.50000 -6.27000
v 9.00000 1.00000 -4.27000
v 9.00000 1.00000 -3.27000
v 9.00000 0.00000 -4.27000
v 9.00000 0.00000 -3.27000
v 8.00000 1.00000 -3.27000
v 8.00000 1.00000 -4.27000
v 8.00000 0.00000 -3.27000
v 8.00000 0.00000 -4.27000
v 6.50000 2.00000 -3.27000
v 6.50000 2.00000 -1.27000
v 6.50000 0.00000 -3.27000
v 6.50000 0.00000 -1.27000
v 4.50000 2.00000 -1.27000
v 4.50000 2.00000 -3.27000
v 4.50000 0.00000 -1.27000
v 4.50000 0.00000 -3.27000
v 6.00000 1.00000 -4.27000
v 6.00000 1.00000 -3.27000
v 6.00000 0.00000 -4.27000
v 6.00000 0.00000 -3.27000
v 5.00000 1.00000 -3.27000
v 5.00000 1.00000 -4.27000
v 5.00000 0.00000 -3.27000
v 5.00000 0.00000 -4.27000
v 8.00000 2.00000 6.73000
v 8.00000 2.00000 8.73000
v 8.00000 0.00000 6.73000
v 8.00000 0.00000 8.73000
v 6.00000 2.00000 8.73000
v 6.00000 2.00000 6.73000
v 6.00000 0.00000 8.73000
v 6.00000 0.00000 6.73000
v 9.50000 2.00000 -3.27000
v 9.50000 2.00000 -1.27000
v 9.50000 0.00000 -3.27000
v 9.50000 0.00000 -1.27000
v 7.50000 2.00000 -1.27000
v 7.50000 2.00000 -3.27000
v 7.50000 0.00000 -1.27000
v 7.50000 0.00000 -3.27000
v 7.50000 1.00000 8.73000
v 7.50000 1.00000 9.73000
v 7.50000 0.00000 8.73000
v 7.50000 0.00000 9.73000
v 6.50000 1.00000 9.73000
v 6.50000 1.00000 8.73000
v 6.50000 0.00000 9.73000
v 6.50000 0.00000 8.73000
v 9.50000 2.00000 0.73000
v 9.50000 2.00000 6.73000
v 9.50000 0.00000 0.73000
v 9.50000 0.00000 6.73000
v 4.50000 2.00000 6.73000
v 4.50000 2.00000 0.73000
v 4.50000 0.00000 6.73000
v 4.50000 0.00000 0.73000
v 9.50000 1.00000 -1.27000
v 9.50000 1.00000 0.73000
v 4.50000 1.00000 0.73000
v 4.50000 1.00000 -1.27000
v 9.50000 11.89000 1.97000
v 9.50000 13.30000 3.38000
v 9.50000 7.65000 6.21000
v 9.50000 9.06000 7.62000
v 4.50000 13.30000 3.38000
v 4.50000 11.89000 1.97000
v 4.50000 9.06000 7.62000
v 4.50000 7.65000 6.21000
v 9.50000 9.06000 -0.86000
v 9.50000 10.47000 0.55000
v 9.50000 4.82000 3.38000
v 9.50000 6.23000 4.79000
v 4.50000 10.47000 0.55000
v 4.50000 9.06000 -0.86000
v 4.50000 6.23000 4.79000
v 4.50000 4.82000 3.38000
v 9.00000 10.12000 0.91000
v 9.00000 11.54000 2.32000
v 9.00000 6.59000 4.44000
v 9.00000 8.00000 5.86000
v 5.00000 11.54000 2.32000
v 5.00000 10.12000 0.91000
v 5.00000 8.00000 5.86000
v 5.00000 6.59000 4.44000
v 8.50000 12.60000 4.09000
v 8.50000 13.30000 4.80000
v 8.50000 9.77000 6.92000
v 8.50000 10.47000 7.62000
v 5.50000 13.30000 4.80000
v 5.50000 12.60000 4.09000
v 5.50000 10.47000 7.62000
v 5.50000 9.77000 6.92000
v -4.50000 2.00000 -3.27000
v -4.50000 2.00000 -1.27000
v -4.50000 0.00000 -3.27000
v -4.50000 0.00000 -1.27000
v -6.50000 2.00000 -1.27000
v -6.50000 2.00000 -3.27000
v -6.50000 0.00000 -1.27000
v -6.50000 0.00000 -3.27000
v -7.50000 2.00000 -3.27000
v -7.50000 2.00000 -1.27000
v -7.50000 0.00000 -3.27000
v -7.50000 0.00000 -1.27000
v -9.50000 2.00000 -1.27000
v -9.50000 2.00000 -3.27000
v -9.50000 0.00000 -1.27000
v -9.50000 0.00000 -3.27000
v -6.50000 1.00000 8.73000
v -6.50000 1.00000 9.73000
v -6.50000 0.00000 8.73000
v -6.50000 0.00000 9.73000
v -7.50000 1.00000 9.73000
v -7.50000 1.00000 8.73000
v -7.50000 0.00000 9.73000
v -7.50000 0.00000 8.73000
v -6.00000 2.00000 6.73000
v -6.00000 2.00000 8.73000
v -6.00000 0.00000 6.73000
v -6.00000 0.00000 8.73000
v -8.00000 2.00000 8.73000
v -8.00000 2.00000 6.73000
v -8.00000 0.00000 8.73000
v -8.00000 0.00000 6.73000
v -5.00000 1.00000 -4.27000
v -5.00000 1.00000 -3.27000
v -5.00000 0.00000 -4.27000
v -5.00000 0.00000 -3.27000
v -6.00000 1.00000 -3.27000
v -6.00000 1.00000 -4.27000
v -6.00000 0.00000 -3.27000
v -6.00000 0.00000 -4.27000
v -8.00000 1.00000 -4.27000
v -8.00000 1.00000 -3.27000
v -8.00000 0.00000 -4.27000
v -8.00000 0.00000 -3.27000
v -9.00000 1.00000 -3.27000
v -9.00000 1.00000 -4.27000
v -9.00000 0.00000 -3.27000
v -9.00000 0.00000 -4.27000
v -4.50000 1.00000 -1.27000
v -4.50000 1.00000 0.73000
v -4.50000 0.00000 0.73000
v -9.50000 1.00000 0.73000
v -9.50000 1.00000 -1.27000
v -9.50000 0.00000 0.73000
v -4.50000 2.00000 0.73000
v -4.50000 2.00000 6.73000
v -4.50000 0.00000 6.73000
v -9.50000 2.00000 6.73000
v -9.50000 2.00000 0.73000
v -9.50000 0.00000 6.73000
v 3.50000 20.84000 5.09000
v 3.50000 20.34000 5.95000
v 3.50000 19.11000 4.09000
v 3.50000 18.61000 4.95000
v 1.50000 20.34000 5.95000
v 1.50000 20.84000 5.09000
v 1.50000 18.61000 4.95000
v 1.50000 19.11000 4.09000
v -1.50000 20.84000 5.09000
v -1.50000 20.34000 5.95000
v -1.50000 19.11000 4.09000
v -1.50000 18.61000 4.95000
v -3.50000 20.34000 5.95000
v -3.50000 20.84000 5.09000
v -3.50000 18.61000 4.95000
v -3.50000 19.11000 4.09000
v 0.50000 25.87000 3.37000
v 0.50000 25.37000 4.24000
v 0.50000 25.01000 2.87000
v 0.50000 24.51000 3.74000
v -0.50000 25.37000 4.24000
v -0.50000 25.87000 3.37000
v -0.50000 24.51000 3.74000
v -0.50000 25.01000 2.87000
v 4.00000 21.78000 4.47000
v 4.00000 21.28000 5.34000
v 4.00000 19.18000 2.97000
v 4.00000 18.68000 3.84000
v 1.00000 21.28000 5.34000
v 1.00000 21.78000 4.47000
v 1.00000 18.68000 3.84000
v 1.00000 19.18000 2.97000
v -0.50000 24.84000 -1.84000
v -0.50000 23.84000 -0.11000
v -0.50000 23.11000 -2.84000
v -0.50000 22.11000 -1.11000
v -1.50000 23.84000 -0.11000
v -1.50000 24.84000 -1.84000
v -1.50000 22.11000 -1.11000
v -1.50000 23.11000 -2.84000
v 4.00000 23.78000 1.01000
v 4.00000 22.28000 3.60000
v 4.00000 21.18000 -0.49000
v 4.00000 19.68000 2.10000
v 1.00000 22.28000 3.60000
v 1.00000 23.78000 1.01000
v 1.00000 19.68000 2.10000
v 1.00000 21.18000 -0.49000
v 4.50000 24.84000 -1.84000
v 4.50000 23.84000 -0.11000
v 4.50000 23.11000 -2.84000
v 4.50000 22.11000 -1.11000
v 3.50000 23.84000 -0.11000
v 3.50000 24.84000 -1.84000
v 3.50000 22.11000 -1.11000
v 3.50000 23.11000 -2.84000
v 3.00000 21.31000 -2.73000
v 3.00000 17.81000 3.34000
v 3.00000 19.58000 -3.73000
v 3.00000 16.08000 2.34000
v -3.00000 17.81000 3.34000
v -3.00000 21.31000 -2.73000
v -3.00000 16.08000 2.34000
v -3.00000 19.58000 -3.73000
v 3.50000 18.96000 -4.66000
v 3.50000 14.96000 2.27000
v 3.50000 13.77000 -7.66000
v 3.50000 9.77000 -0.73000
v -3.50000 14.96000 2.27000
v -3.50000 18.96000 -4.66000
v -3.50000 9.77000 -0.73000
v -3.50000 13.77000 -7.66000
v -1.50000 25.71000 -1.34000
v -1.50000 24.71000 0.39000
v -3.50000 24.71000 0.39000
v -3.50000 25.71000 -1.34000
v -3.50000 23.84000 -0.11000
v -3.50000 24.84000 -1.84000
v 3.50000 22.25000 -3.34000
v 3.50000 21.25000 -1.61000
v 1.50000 22.11000 -1.11000
v 1.50000 23.11000 -2.84000
v 1.50000 21.25000 -1.61000
v 1.50000 22.25000 -3.34000
v 1.50000 24.84000 -1.84000
v 1.50000 23.84000 -0.11000
v 0.50000 23.84000 -0.11000
v 0.50000 24.84000 -1.84000
v 0.50000 22.11000 -1.11000
v 0.50000 23.11000 -2.84000
v -1.50000 22.25000 -3.34000
v -1.50000 21.25000 -1.61000
v -3.50000 22.11000 -1.11000
v -3.50000 23.11000 -2.84000
v -3.50000 21.25000 -1.61000
v -3.50000 22.25000 -3.34000
v 3.50000 25.71000 -1.34000
v 3.50000 24.71000 0.39000
v 1.50000 24.71000 0.39000
v 1.50000 25.71000 -1.34000
v -1.00000 21.78000 4.47000
v -1.00000 21.28000 5.34000
v -1.00000 19.18000 2.97000
v -1.00000 18.68000 3.84000
v -4.00000 21.28000 5.34000
v -4.00000 21.78000 4.47000
v -4.00000 18.68000 3.84000
v -4.00000 19.18000 2.97000
v -4.50000 23.84000 -0.11000
v -4.50000 24.84000 -1.84000
v -4.50000 22.11000 -1.11000
v -4.50000 23.11000 -2.84000
v -1.00000 23.78000 1.01000
v -1.00000 22.28000 3.60000
v -1.00000 21.18000 -0.49000
v -1.00000 19.68000 2.10000
v -4.00000 22.28000 3.60000
v -4.00000 23.78000 1.01000
v -4.00000 19.68000 2.10000
v -4.00000 21.18000 -0.49000
v -1.50000 24.34000 -0.98000
v -1.50000 21.34000 4.22000
v -1.50000 22.61000 -1.98000
v -1.50000 19.61000 3.22000
v -3.50000 21.34000 4.22000
v -3.50000 24.34000 -0.98000
v -3.50000 19.61000 3.22000
v -3.50000 22.61000 -1.98000
v 0.50000 20.68000 0.37000
v 0.50000 20.18000 1.24000
v -0.50000 20.18000 1.24000
v -0.50000 20.68000 0.37000
v 3.50000 24.34000 -0.98000
v 3.50000 21.34000 4.22000
v 3.50000 22.61000 -1.98000
v 3.50000 19.61000 3.22000
v 1.50000 21.34000 4.22000
v 1.50000 24.34000 -0.98000
v 1.50000 19.61000 3.22000
v 1.50000 22.61000 -1.98000
v 2.50000 19.33000 -3.29000
v 2.50000 16.33000 1.90000
v 2.50000 18.46000 -3.79000
v 2.50000 15.46000 1.40000
v -2.50000 16.33000 1.90000
v -2.50000 19.33000 -3.29000
v -2.50000 15.46000 1.40000
v -2.50000 18.46000 -3.79000
v 2.50000 21.93000 -1.79000
v 2.50000 18.93000 3.40000
v 2.50000 21.06000 -2.29000
v 2.50000 18.06000 2.90000
v -2.50000 18.93000 3.40000
v -2.50000 21.93000 -1.79000
v -2.50000 18.06000 2.90000
v -2.50000 21.06000 -2.29000
v 3.50000 12.90000 -8.16000
v 3.50000 8.90000 -1.23000
v -3.50000 8.90000 -1.23000
v -3.50000 12.90000 -8.16000
v -5.50000 5.33000 -1.22000
v -5.50000 6.74000 0.20000
v -5.50000 0.38000 3.73000
v -5.50000 1.79000 5.15000
v -8.50000 6.74000 0.20000
v -8.50000 5.33000 -1.22000
v -8.50000 1.79000 5.15000
v -8.50000 0.38000 3.73000
v -6.00000 6.39000 -1.57000
v -6.00000 7.10000 -0.86000
v -6.00000 5.68000 -0.86000
v -6.00000 6.39000 -0.15000
v -8.00000 7.10000 -0.86000
v -8.00000 6.39000 -1.57000
v -8.00000 6.39000 -0.15000
v -8.00000 5.68000 -0.86000
v -5.50000 7.45000 0.91000
v -5.50000 2.50000 5.86000
v -8.50000 7.45000 0.91000
v -8.50000 2.50000 5.86000
v -4.00000 12.50000 -7.27000
v -4.00000 12.50000 -5.27000
v -4.00000 10.50000 -7.27000
v -4.00000 10.50000 -5.27000
v -6.00000 12.50000 -5.27000
v -6.00000 12.50000 -7.27000
v -6.00000 10.50000 -5.27000
v -6.00000 10.50000 -7.27000
v -4.00000 12.50000 -8.27000
v -4.00000 9.50000 -8.27000
v -4.00000 9.50000 -7.27000
v -6.00000 12.50000 -8.27000
v -6.00000 9.50000 -7.27000
v -6.00000 9.50000 -8.27000
v -4.00000 10.50000 -6.27000
v -4.00000 9.50000 -6.27000
v -6.00000 10.50000 -6.27000
v -6.00000 9.50000 -6.27000
v -3.89300 15.50000 -5.06000
v -3.89300 15.50000 -2.06000
v -3.89300 14.50000 -5.06000
v -3.89300 14.50000 -2.06000
v -5.89300 15.50000 -2.06000
v -5.89300 15.50000 -5.06000
v -5.89300 14.50000 -2.06000
v -5.89300 14.50000 -5.06000
v -3.50000 14.50000 -5.27000
v -3.50000 14.50000 -1.27000
v -3.50000 10.50000 -5.27000
v -3.50000 10.50000 -1.27000
v -6.50000 14.50000 -1.27000
v -6.50000 14.50000 -5.27000
v -6.50000 10.50000 -1.27000
v -6.50000 10.50000 -5.27000
v -6.50000 13.50000 -4.27000
v -6.50000 13.50000 -2.27000
v -6.50000 11.50000 -4.27000
v -6.50000 11.50000 -2.27000
v -7.50000 13.50000 -2.27000
v -7.50000 13.50000 -4.27000
v -7.50000 11.50000 -2.27000
v -7.50000 11.50000 -4.27000
v -4.50000 11.89000 1.97000
v -4.50000 13.30000 3.38000
v -4.50000 7.65000 6.21000
v -4.50000 9.06000 7.62000
v -9.50000 13.30000 3.38000
v -9.50000 11.89000 1.97000
v -9.50000 9.06000 7.62000
v -9.50000 7.65000 6.21000
v -4.50000 9.06000 -0.86000
v -4.50000 10.47000 0.55000
v -4.50000 4.82000 3.38000
v -4.50000 6.23000 4.79000
v -9.50000 10.47000 0.55000
v -9.50000 9.06000 -0.86000
v -9.50000 6.23000 4.79000
v -9.50000 4.82000 3.38000
v -5.50000 12.60000 4.09000
v -5.50000 13.30000 4.80000
v -5.50000 9.77000 6.92000
v -5.50000 10.47000 7.62000
v -8.50000 13.30000 4.80000
v -8.50000 12.60000 4.09000
v -8.50000 10.47000 7.62000
v -8.50000 9.77000 6.92000
v -5.00000 10.12000 0.91000
v -5.00000 11.54000 2.32000
v -5.00000 6.59000 4.44000
v -5.00000 8.00000 5.86000
v -9.00000 11.54000 2.32000
v -9.00000 10.12000 0.91000
v -9.00000 8.00000 5.86000
v -9.00000 6.59000 4.44000
v -1.00000 17.31000 4.20000
v -1.00000 15.81000 6.80000
v -1.00000 15.58000 3.20000
v -1.00000 14.08000 5.80000
v -4.00000 15.81000 6.80000
v -4.00000 17.31000 4.20000
v -4.00000 14.08000 5.80000
v -4.00000 15.58000 3.20000
v -1.00000 15.31000 7.67000
v -1.00000 13.81000 10.27000
v -1.00000 13.58000 6.67000
v -1.00000 12.08000 9.27000
v -4.00000 13.81000 10.27000
v -4.00000 15.31000 7.67000
v -4.00000 12.08000 9.27000
v -4.00000 13.58000 6.67000
v 4.00000 17.31000 4.20000
v 4.00000 15.81000 6.80000
v 4.00000 15.58000 3.20000
v 4.00000 14.08000 5.80000
v 1.00000 15.81000 6.80000
v 1.00000 17.31000 4.20000
v 1.00000 14.08000 5.80000
v 1.00000 15.58000 3.20000
v 4.00000 15.31000 7.67000
v 4.00000 13.81000 10.27000
v 4.00000 13.58000 6.67000
v 4.00000 12.08000 9.27000
v 1.00000 13.81000 10.27000
v 1.00000 15.31000 7.67000
v 1.00000 12.08000 9.27000
v 1.00000 13.58000 6.67000
v -1.00000 12.71000 6.17000
v -1.00000 11.21000 8.77000
v -4.00000 11.21000 8.77000
v -4.00000 12.71000 6.17000
v 4.00000 14.71000 2.70000
v 4.00000 13.21000 5.30000
v 1.00000 13.21000 5.30000
v 1.00000 14.71000 2.70000
v 4.00000 12.71000 6.17000
v 4.00000 11.21000 8.77000
v 1.00000 11.21000 8.77000
v 1.00000 12.71000 6.17000
v 4.50000 8.90000 -1.23000
v 4.50000 4.90000 5.70000
v 4.50000 8.04000 -1.73000
v 4.50000 4.04000 5.20000
v -4.50000 4.90000 5.70000
v -4.50000 8.90000 -1.23000
v -4.50000 4.04000 5.20000
v -4.50000 8.04000 -1.73000
v -1.00000 14.71000 2.70000
v -1.00000 13.21000 5.30000
v -4.00000 13.21000 5.30000
v -4.00000 14.71000 2.70000
v 4.50000 14.96000 2.27000
v 4.50000 10.96000 9.20000
v -4.50000 10.96000 9.20000
v -4.50000 14.96000 2.27000
v 3.50000 17.93000 5.14000
v 3.50000 16.93000 6.87000
v 3.50000 17.06000 4.64000
v 3.50000 16.06000 6.37000
v 1.50000 16.93000 6.87000
v 1.50000 17.93000 5.14000
v 1.50000 16.06000 6.37000
v 1.50000 17.06000 4.64000
v -1.50000 15.93000 8.60000
v -1.50000 14.93000 10.33000
v -1.50000 15.06000 8.10000
v -1.50000 14.06000 9.83000
v -3.50000 14.93000 10.33000
v -3.50000 15.93000 8.60000
v -3.50000 14.06000 9.83000
v -3.50000 15.06000 8.10000
v -1.50000 17.93000 5.14000
v -1.50000 16.93000 6.87000
v -1.50000 17.06000 4.64000
v -1.50000 16.06000 6.37000
v -3.50000 16.93000 6.87000
v -3.50000 17.93000 5.14000
v -3.50000 16.06000 6.37000
v -3.50000 17.06000 4.64000
v 3.50000 15.93000 8.60000
v 3.50000 14.93000 10.33000
v 3.50000 15.06000 8.10000
v 3.50000 14.06000 9.83000
v 1.50000 14.93000 10.33000
v 1.50000 15.93000 8.60000
v 1.50000 14.06000 9.83000
v 1.50000 15.06000 8.10000
v 8.00000 6.39000 -1.57000
v 8.00000 7.10000 -0.86000
v 8.00000 5.68000 -0.86000
v 8.00000 6.39000 -0.15000
v 6.00000 7.10000 -0.86000
v 6.00000 6.39000 -1.57000
v 6.00000 6.39000 -0.15000
v 6.00000 5.68000 -0.86000
v 8.50000 6.74000 0.20000
v 8.50000 7.45000 0.91000
v 8.50000 1.79000 5.15000
v 8.50000 2.50000 5.86000
v 5.50000 7.45000 0.91000
v 5.50000 6.74000 0.20000
v 5.50000 2.50000 5.86000
v 5.50000 1.79000 5.15000
v 8.50000 5.33000 -1.22000
v 8.50000 0.38000 3.73000
v 5.50000 5.33000 -1.22000
v 5.50000 0.38000 3.73000
v 6.00000 22.50000 -19.16000
v 6.00000 22.50000 -17.16000
v 6.00000 21.50000 -19.16000
v 6.00000 21.50000 -17.16000
v 4.00000 22.50000 -17.16000
v 4.00000 22.50000 -19.16000
v 4.00000 21.50000 -17.16000
v 4.00000 21.50000 -19.16000
v -3.00000 24.50000 -19.16000
v -3.00000 24.50000 -17.16000
v -3.00000 21.50000 -19.16000
v -3.00000 21.50000 -17.16000
v -4.00000 24.50000 -17.16000
v -4.00000 24.50000 -19.16000
v -4.00000 21.50000 -17.16000
v -4.00000 21.50000 -19.16000
v 6.00000 24.50000 -17.16000
v 6.00000 24.50000 -16.16000
v 6.00000 21.50000 -16.16000
v 3.00000 24.50000 -16.16000
v 3.00000 24.50000 -17.16000
v 3.00000 21.50000 -16.16000
v 3.00000 21.50000 -17.16000
v -4.00000 22.50000 -19.16000
v -4.00000 22.50000 -17.16000
v -6.00000 22.50000 -17.16000
v -6.00000 22.50000 -19.16000
v -6.00000 21.50000 -17.16000
v -6.00000 21.50000 -19.16000
v -3.00000 24.50000 -16.16000
v -3.00000 21.50000 -16.16000
v -6.00000 24.50000 -16.16000
v -6.00000 24.50000 -17.16000
v -6.00000 21.50000 -16.16000
v 4.00000 24.50000 -19.16000
v 4.00000 24.50000 -17.16000
v 3.00000 24.50000 -19.16000
v 3.00000 21.50000 -19.16000
v 7.00000 19.50000 -10.16000
v 7.00000 19.50000 -5.16000
v 7.00000 14.50000 -10.16000
v 7.00000 14.50000 -5.16000
v -7.00000 19.50000 -5.16000
v -7.00000 19.50000 -10.16000
v -7.00000 14.50000 -5.16000
v -7.00000 14.50000 -10.16000
v 3.00000 26.50000 -10.16000
v 3.00000 26.50000 -5.16000
v 3.00000 24.50000 -10.16000
v 3.00000 24.50000 -5.16000
v -3.00000 26.50000 -5.16000
v -3.00000 26.50000 -10.16000
v -3.00000 24.50000 -5.16000
v -3.00000 24.50000 -10.16000
v 6.00000 24.50000 -10.16000
v 6.00000 24.50000 -5.16000
v 6.00000 19.50000 -10.16000
v 6.00000 19.50000 -5.16000
v -6.00000 24.50000 -5.16000
v -6.00000 24.50000 -10.16000
v -6.00000 19.50000 -5.16000
v -6.00000 19.50000 -10.16000
v 6.00000 24.50000 -13.16000
v 6.00000 21.50000 -13.16000
v -6.00000 24.50000 -13.16000
v -6.00000 21.50000 -13.16000
v 6.00000 26.50000 -13.16000
v 6.00000 26.50000 -10.16000
v -6.00000 26.50000 -10.16000
v -6.00000 26.50000 -13.16000
v 6.00000 21.50000 -10.16000
v 6.00000 19.50000 -19.16000
v -6.00000 21.50000 -10.16000
v -6.00000 19.50000 -19.16000
v 6.00000 27.50000 -10.16000
v 6.00000 27.50000 -5.16000
v 3.00000 27.50000 -5.16000
v 3.00000 27.50000 -10.16000
v -3.00000 27.50000 -10.16000
v -3.00000 27.50000 -5.16000
v -6.00000 27.50000 -5.16000
v -6.00000 27.50000 -10.16000
v -6.00000 24.50000 -19.16000
v 6.00000 24.50000 -19.16000
v 6.00500 24.50000 -13.16000
v 6.00500 24.50000 -10.16000
v 6.00500 21.50000 -13.16000
v 6.00500 21.50000 -10.16000
v -6.00500 24.50000 -10.16000
v -6.00500 24.50000 -13.16000
v -6.00500 21.50000 -10.16000
v -6.00500 21.50000 -13.16000
v 7.50000 13.50000 -4.27000
v 7.50000 13.50000 -2.27000
v 7.50000 11.50000 -4.27000
v 7.50000 11.50000 -2.27000
v 6.50000 13.50000 -2.27000
v 6.50000 13.50000 -4.27000
v 6.50000 11.50000 -2.27000
v 6.50000 11.50000 -4.27000
v 6.50000 14.50000 -5.27000
v 6.50000 14.50000 -1.27000
v 6.50000 10.50000 -5.27000
v 6.50000 10.50000 -1.27000
v 3.50000 14.50000 -1.27000
v 3.50000 14.50000 -5.27000
v 3.50000 10.50000 -1.27000
v 3.50000 10.50000 -5.27000
v 5.89280 15.50000 -5.06000
v 5.89280 15.50000 -2.06000
v 5.89280 14.50000 -5.06000
v 5.89280 14.50000 -2.06000
v 3.89300 15.50000 -2.06000
v 3.89300 15.50000 -5.06000
v 3.89300 14.50000 -2.06000
v 3.89300 14.50000 -5.06000
v 4.00000 19.50000 -11.16000
v 4.00000 19.50000 -10.16000
v 4.00000 17.50000 -11.16000
v 4.00000 17.50000 -10.16000
v -4.00000 19.50000 -10.16000
v -4.00000 19.50000 -11.16000
v -4.00000 17.50000 -10.16000
v -4.00000 17.50000 -11.16000
v 4.00000 17.50000 -17.16000
v 4.00000 16.50000 -17.16000
v 4.00000 16.50000 -10.16000
v -4.00000 17.50000 -17.16000
v -4.00000 16.50000 -10.16000
v -4.00000 16.50000 -17.16000
v 5.00000 16.50000 -18.16000
v 5.00000 16.50000 -10.16000
v 5.00000 14.50000 -18.16000
v 5.00000 14.50000 -10.16000
v -5.00000 16.50000 -10.16000
v -5.00000 16.50000 -18.16000
v -5.00000 14.50000 -10.16000
v -5.00000 14.50000 -18.16000
v 2.00000 9.10000 10.43000
v 2.00000 7.60000 13.03000
v 2.00000 6.50000 8.93000
v 2.00000 5.00000 11.53000
v -2.00000 7.60000 13.03000
v -2.00000 9.10000 10.43000
v -2.00000 5.00000 11.53000
v -2.00000 6.50000 8.93000
v 1.50000 6.60000 14.76000
v 1.50000 6.10000 15.63000
v 1.50000 4.00000 13.26000
v 1.50000 3.50000 14.13000
v -1.50000 6.10000 15.63000
v -1.50000 6.60000 14.76000
v -1.50000 3.50000 14.13000
v -1.50000 4.00000 13.26000
v 1.50000 5.60000 16.49000
v 1.50000 4.10000 19.09000
v 1.50000 3.00000 14.99000
v 1.50000 1.50000 17.59000
v -1.50000 4.10000 19.09000
v -1.50000 5.60000 16.49000
v -1.50000 1.50000 17.59000
v -1.50000 3.00000 14.99000
v 2.00000 6.53000 15.88000
v 2.00000 6.03000 16.74000
v 2.00000 3.07000 13.88000
v 2.00000 2.57000 14.74000
v -2.00000 6.03000 16.74000
v -2.00000 6.53000 15.88000
v -2.00000 2.57000 14.74000
v -2.00000 3.07000 13.88000
v 2.50000 8.46000 13.53000
v 2.50000 7.46000 15.26000
v 2.50000 4.13000 11.03000
v 2.50000 3.13000 12.76000
v -2.50000 7.46000 15.26000
v -2.50000 8.46000 13.53000
v -2.50000 3.13000 12.76000
v -2.50000 4.13000 11.03000
v 3.00000 9.46000 11.80000
v 3.00000 8.96000 12.66000
v 3.00000 5.13000 9.30000
v 3.00000 4.63000 10.16000
v -3.00000 8.96000 12.66000
v -3.00000 9.46000 11.80000
v -3.00000 4.63000 10.16000
v -3.00000 5.13000 9.30000
v 3.00000 10.96000 9.20000
v 3.00000 9.96000 10.93000
v 3.00000 6.63000 6.70000
v 3.00000 5.63000 8.43000
v -3.00000 9.96000 10.93000
v -3.00000 10.96000 9.20000
v -3.00000 5.63000 8.43000
v -3.00000 6.63000 6.70000
v 0.50000 6.21000 17.43000
v 0.50000 5.21000 19.16000
v 0.50000 5.35000 16.93000
v 0.50000 4.35000 18.66000
v -0.50000 5.21000 19.16000
v -0.50000 6.21000 17.43000
v -0.50000 4.35000 18.66000
v -0.50000 5.35000 16.93000
vt 0.62500 -6.25000
vt 0.50000 -6.25000
vt 0.62500 -6.62500
vt 0.50000 -6.62500
vt 0.75000 -6.25000
vt 0.75000 -6.37500
vt 0.50000 -6.37500
vt 0.75000 -6.62500
vt 5.50000 0.50000
vt 5.25000 0.50000
vt 5.50000 0.25000
vt 5.25000 0.25000
vt 4.62500 -0.50000
vt 4.50000 -0.50000
vt 4.62500 -0.62500
vt 4.50000 -0.62500
vt 4.75000 -0.50000
vt 4.75000 -0.62500
vt 4.62500 -3.50000
vt 4.50000 -3.50000
vt 4.62500 -3.62500
vt 4.50000 -3.62500
vt 4.50000 0.25000
vt 4.25000 0.25000
vt 4.50000 0.00000
vt 4.25000 0.00000
vt 1.62500 -1.50000
vt 1.50000 -1.50000
vt 1.62500 -1.62500
vt 1.50000 -1.62500
vt 3.50000 -0.75000
vt 3.25000 -0.75000
vt 3.50000 -1.00000
vt 3.25000 -1.00000
vt 5.50000 -5.25000
vt 5.25000 -5.25000
vt 5.50000 -5.50000
vt 5.25000 -5.50000
vt 2.62500 -6.25000
vt 2.50000 -6.25000
vt 2.62500 -6.37500
vt 2.50000 -6.37500
vt 2.75000 -3.75000
vt 2.00000 -3.75000
vt 2.75000 -4.00000
vt 2.00000 -4.00000
vt 2.62500 -3.75000
vt 2.62500 -4.50000
vt 2.00000 -4.50000
vt 2.62500 -4.00000
vt 8.00000 0.00000
vt 7.75000 0.00000
vt 8.00000 -0.12500
vt 7.75000 -0.12500
vt 8.37500 0.00000
vt 8.37500 -0.25000
vt 7.75000 -0.25000
vt 8.37500 -0.12500
vt 0.50000 -5.75000
vt 0.25000 -5.75000
vt 0.50000 -5.87500
vt 0.25000 -5.87500
vt 0.87500 -5.75000
vt 0.87500 -6.00000
vt 0.25000 -6.00000
vt 0.87500 -5.87500
vt 7.75000 -4.00000
vt 7.50000 -4.00000
vt 7.75000 -4.75000
vt 7.50000 -4.75000
vt 8.12500 -4.00000
vt 8.12500 -4.25000
vt 7.50000 -4.25000
vt 8.12500 -4.75000
vt 6.25000 0.50000
vt 6.00000 0.50000
vt 6.25000 -0.25000
vt 6.00000 -0.25000
vt 6.62500 0.50000
vt 6.62500 0.25000
vt 6.00000 0.25000
vt 6.62500 -0.25000
vt 5.25000 -1.25000
vt 5.00000 -1.25000
vt 5.25000 -1.87500
vt 5.00000 -1.87500
vt 5.50000 -1.25000
vt 5.50000 -1.50000
vt 5.00000 -1.50000
vt 5.50000 -1.87500
vt 4.87500 -6.50000
vt 4.75000 -6.50000
vt 4.87500 -7.00000
vt 4.75000 -7.00000
vt 5.12500 -6.50000
vt 5.12500 -6.62500
vt 4.75000 -6.62500
vt 5.12500 -7.00000
vt 3.25000 -6.25000
vt 3.00000 -6.25000
vt 3.25000 -6.50000
vt 3.00000 -6.50000
vt 6.50000 -2.50000
vt 6.25000 -2.50000
vt 6.50000 -2.75000
vt 6.25000 -2.75000
vt 3.12500 -3.50000
vt 3.00000 -3.50000
vt 3.12500 -3.62500
vt 3.00000 -3.62500
vt 1.75000 -5.25000
vt 1.50000 -5.25000
vt 1.75000 -5.50000
vt 1.50000 -5.50000
vt 2.87500 0.25000
vt 2.75000 0.25000
vt 2.87500 0.12500
vt 2.75000 0.12500
vt 7.37500 -1.75000
vt 7.25000 -1.75000
vt 7.37500 -1.87500
vt 7.25000 -1.87500
vt 0.25000 -3.75000
vt 0.00000 -3.75000
vt 0.25000 -3.87500
vt 0.00000 -3.87500
vt 0.62500 -3.75000
vt 0.62500 -4.00000
vt 0.00000 -4.00000
vt 0.62500 -3.87500
vt 8.00000 1.00000
vt 7.25000 1.00000
vt 8.00000 0.75000
vt 7.25000 0.75000
vt 7.87500 1.00000
vt 7.87500 0.25000
vt 7.25000 0.25000
vt 7.87500 0.75000
vt 3.25000 -6.00000
vt 3.00000 -6.00000
vt 3.25000 -6.12500
vt 3.00000 -6.12500
vt 3.62500 -6.00000
vt 3.62500 -6.25000
vt 3.62500 -6.12500
vt 4.12500 -3.75000
vt 4.00000 -3.75000
vt 4.12500 -4.00000
vt 4.00000 -4.00000
vt 4.25000 -3.75000
vt 4.25000 -3.87500
vt 4.00000 -3.87500
vt 4.25000 -4.00000
vt 0.12500 -3.25000
vt 0.00000 -3.25000
vt 0.12500 -3.50000
vt 0.00000 -3.50000
vt 0.25000 -3.25000
vt 0.25000 -3.37500
vt 0.00000 -3.37500
vt 0.25000 -3.50000
vt 6.62500 -0.50000
vt 6.50000 -0.50000
vt 6.62500 -0.62500
vt 6.50000 -0.62500
vt 0.87500 -2.75000
vt 0.75000 -2.75000
vt 0.87500 -3.12500
vt 0.75000 -3.12500
vt 1.12500 -2.75000
vt 1.12500 -2.87500
vt 0.75000 -2.87500
vt 1.12500 -3.12500
vt 1.25000 -0.50000
vt 1.00000 -0.50000
vt 1.25000 -0.75000
vt 1.00000 -0.75000
vt 1.12500 -0.50000
vt 1.12500 -0.75000
vt 8.12500 -1.25000
vt 7.75000 -1.25000
vt 8.12500 -1.62500
vt 7.75000 -1.62500
vt 0.75000 0.25000
vt 0.50000 0.25000
vt 0.75000 0.00000
vt 0.50000 0.00000
vt 0.62500 0.25000
vt 0.62500 0.00000
vt 7.87500 -4.00000
vt 7.00000 -4.00000
vt 7.87500 -4.25000
vt 7.00000 -4.25000
vt 7.75000 -4.87500
vt 7.00000 -4.87500
vt 7.75000 -4.25000
vt 6.25000 -4.50000
vt 5.25000 -4.50000
vt 6.25000 -5.25000
vt 6.12500 -4.50000
vt 6.12500 -5.50000
vt 6.12500 -5.25000
vt 5.75000 -6.25000
vt 5.50000 -6.25000
vt 5.75000 -6.37500
vt 5.50000 -6.37500
vt 5.75000 -6.50000
vt 5.50000 -6.50000
vt 5.00000 1.00000
vt 4.75000 1.00000
vt 5.00000 0.87500
vt 4.75000 0.87500
vt 5.00000 0.75000
vt 4.75000 0.75000
vt 7.25000 -2.00000
vt 7.00000 -2.00000
vt 7.25000 -2.25000
vt 7.00000 -2.25000
vt 7.12500 -2.00000
vt 7.12500 -2.25000
vt 2.50000 -5.00000
vt 2.25000 -5.00000
vt 2.50000 -5.12500
vt 2.25000 -5.12500
vt 2.50000 -5.25000
vt 2.25000 -5.25000
vt 2.00000 -5.00000
vt 1.75000 -5.00000
vt 2.00000 -5.12500
vt 1.75000 -5.12500
vt 2.00000 -5.25000
vt 7.37500 0.50000
vt 7.25000 0.50000
vt 7.37500 0.12500
vt 7.25000 0.12500
vt 7.62500 0.50000
vt 7.62500 0.37500
vt 7.25000 0.37500
vt 7.62500 0.12500
vt 4.00000 0.00000
vt 3.75000 0.00000
vt 4.00000 -0.25000
vt 3.75000 -0.25000
vt 3.87500 0.00000
vt 3.87500 -0.25000
vt 3.87500 -3.00000
vt 3.50000 -3.00000
vt 3.87500 -3.37500
vt 3.50000 -3.37500
vt 6.50000 -3.50000
vt 5.75000 -3.50000
vt 6.50000 -3.75000
vt 5.75000 -3.75000
vt 6.00000 -3.50000
vt 6.00000 -4.25000
vt 5.75000 -4.25000
vt 6.00000 -3.75000
vt 7.12500 -5.25000
vt 7.00000 -5.25000
vt 7.12500 -5.87500
vt 7.00000 -5.87500
vt 7.12500 -5.37500
vt 7.00000 -5.37500
vt 2.75000 -6.00000
vt 2.00000 -6.00000
vt 2.75000 -6.25000
vt 2.00000 -6.25000
vt 2.25000 -6.00000
vt 2.25000 -6.75000
vt 2.00000 -6.75000
vt 2.25000 -6.25000
vt 4.25000 -0.25000
vt 3.50000 -0.25000
vt 4.25000 -0.37500
vt 3.50000 -0.37500
vt 4.12500 -0.25000
vt 4.12500 -1.00000
vt 4.12500 -0.37500
vt 1.00000 -3.75000
vt 1.00000 -3.87500
vt 0.87500 -3.75000
vt 0.87500 -4.50000
vt 0.25000 -4.50000
vt 0.87500 -3.87500
vt 2.75000 -2.25000
vt 1.75000 -2.25000
vt 2.75000 -2.37500
vt 1.75000 -2.37500
vt 2.62500 -2.25000
vt 2.62500 -3.25000
vt 1.75000 -3.25000
vt 2.62500 -2.37500
vt 2.25000 -0.50000
vt 2.00000 -0.50000
vt 2.25000 -1.37500
vt 2.00000 -1.37500
vt 2.37500 -0.50000
vt 2.37500 -0.75000
vt 2.00000 -0.75000
vt 2.37500 -1.37500
vt 4.87500 -3.50000
vt 4.75000 -3.50000
vt 4.87500 -3.62500
vt 4.75000 -3.62500
vt 5.00000 -3.50000
vt 5.00000 -3.62500
vt 3.62500 -3.00000
vt 3.62500 -3.87500
vt 3.50000 -3.87500
vt 3.87500 -3.12500
vt 3.50000 -3.12500
vt 3.87500 -3.87500
vt 0.50000 -5.50000
vt 0.25000 -5.50000
vt 1.62500 -1.87500
vt 1.50000 -1.87500
vt 1.75000 -1.50000
vt 1.75000 -1.62500
vt 1.75000 -1.87500
vt 5.62500 -5.50000
vt 5.62500 -5.62500
vt 5.50000 -5.62500
vt 5.75000 -5.50000
vt 5.75000 -5.62500
vt 8.12500 -4.37500
vt 7.75000 -4.37500
vt 8.00000 -4.25000
vt 8.00000 -4.62500
vt 7.75000 -4.62500
vt 8.00000 -4.37500
vt 2.25000 0.25000
vt 1.75000 0.25000
vt 2.25000 -0.25000
vt 1.75000 -0.25000
vt 2.12500 0.25000
vt 2.12500 -0.25000
vt 0.75000 -1.50000
vt 0.50000 -1.50000
vt 0.75000 -1.75000
vt 0.50000 -1.75000
vt 0.62500 -1.50000
vt 0.62500 -1.75000
vt 8.00000 -0.25000
vt 8.00000 -1.00000
vt 7.75000 -1.00000
vt 8.37500 -0.50000
vt 7.75000 -0.50000
vt 8.37500 -1.00000
vt 4.25000 -3.50000
vt 4.50000 -4.25000
vt 4.25000 -4.25000
vt 4.87500 -3.75000
vt 4.87500 -4.25000
vt 4.87500 -6.75000
vt 4.75000 -6.75000
vt 4.87500 -7.25000
vt 4.75000 -7.25000
vt 5.12500 -6.75000
vt 5.12500 -6.87500
vt 4.75000 -6.87500
vt 5.12500 -7.25000
vt 3.75000 -4.50000
vt 3.50000 -4.50000
vt 3.75000 -5.12500
vt 3.50000 -5.12500
vt 4.00000 -4.50000
vt 4.00000 -4.75000
vt 3.50000 -4.75000
vt 4.00000 -5.12500
vt 7.37500 -3.75000
vt 7.00000 -3.75000
vt 7.37500 -4.00000
vt 7.37500 -4.12500
vt 7.00000 -4.12500
vt 1.87500 0.50000
vt 1.50000 0.50000
vt 1.87500 0.25000
vt 1.50000 0.25000
vt 1.87500 0.12500
vt 1.50000 0.12500
vt 3.12500 -1.00000
vt 2.75000 -1.00000
vt 3.12500 -1.25000
vt 2.75000 -1.25000
vt 3.12500 -1.37500
vt 2.75000 -1.37500
vt 4.62500 0.75000
vt 4.25000 0.75000
vt 4.62500 0.50000
vt 4.25000 0.50000
vt 4.62500 0.37500
vt 4.25000 0.37500
vt 7.12500 -5.50000
vt 6.75000 -5.50000
vt 7.12500 -5.62500
vt 6.75000 -5.62500
vt 6.75000 -5.87500
vt 4.37500 -2.75000
vt 4.00000 -2.75000
vt 4.37500 -2.87500
vt 4.00000 -2.87500
vt 4.37500 -3.12500
vt 4.00000 -3.12500
vt 1.37500 -2.25000
vt 1.00000 -2.25000
vt 1.37500 -2.37500
vt 1.00000 -2.37500
vt 1.37500 -2.62500
vt 1.00000 -2.62500
vt 4.25000 -3.00000
vt 3.25000 -3.00000
vt 4.25000 -3.12500
vt 3.25000 -3.12500
vt 4.37500 -3.00000
vt 4.37500 -4.00000
vt 3.25000 -4.00000
vt 3.62500 -1.00000
vt 3.62500 -1.12500
vt 3.25000 -1.12500
vt 3.62500 -1.37500
vt 3.25000 -1.37500
vt 4.00000 -1.25000
vt 3.00000 -1.25000
vt 4.00000 -2.12500
vt 3.00000 -2.12500
vt 4.12500 -1.25000
vt 4.12500 -2.25000
vt 3.00000 -2.25000
vt 4.12500 -2.12500
vt 4.00000 -1.50000
vt 3.75000 -1.50000
vt 4.00000 -1.62500
vt 3.75000 -1.62500
vt 4.00000 -1.75000
vt 3.75000 -1.75000
vt 3.75000 -2.00000
vt 3.50000 -2.00000
vt 3.75000 -2.12500
vt 3.50000 -2.12500
vt 3.75000 -2.25000
vt 3.50000 -2.25000
vt 1.25000 -5.50000
vt 1.50000 -5.62500
vt 1.25000 -5.62500
vt 1.50000 -5.75000
vt 1.25000 -5.75000
vt 7.25000 -5.75000
vt 7.00000 -5.75000
vt 7.25000 -5.87500
vt 7.25000 -6.00000
vt 7.00000 -6.00000
vt 2.87500 -1.25000
vt 2.87500 -1.37500
vt 3.00000 -1.37500
vt 6.12500 -1.50000
vt 6.00000 -1.50000
vt 6.12500 -2.37500
vt 6.00000 -2.37500
vt 6.37500 -1.50000
vt 6.37500 -1.62500
vt 6.00000 -1.62500
vt 6.37500 -2.37500
vt 7.50000 -6.75000
vt 7.25000 -6.75000
vt 7.50000 -7.62500
vt 7.25000 -7.62500
vt 7.62500 -6.75000
vt 7.62500 -7.00000
vt 7.25000 -7.00000
vt 7.62500 -7.62500
vt 7.00000 -1.75000
vt 6.75000 -1.75000
vt 7.00000 -1.87500
vt 6.75000 -1.87500
vt 6.75000 -2.00000
vt 2.00000 -3.25000
vt 2.00000 -3.62500
vt 1.75000 -3.62500
vt 1.87500 -3.25000
vt 1.87500 -3.50000
vt 1.75000 -3.50000
vt 1.87500 -3.62500
vt 4.75000 -3.75000
vt 4.87500 -4.12500
vt 4.75000 -4.12500
vt 5.12500 -3.75000
vt 5.12500 -3.87500
vt 4.75000 -3.87500
vt 5.12500 -4.12500
vt 7.25000 -4.25000
vt 7.50000 -4.37500
vt 7.25000 -4.37500
vt 7.50000 -4.50000
vt 7.25000 -4.50000
vt 6.62500 -5.25000
vt 6.50000 -5.25000
vt 6.62500 -5.62500
vt 6.50000 -5.62500
vt 6.87500 -5.25000
vt 6.87500 -5.37500
vt 6.50000 -5.37500
vt 6.87500 -5.62500
vt 2.00000 0.50000
vt 1.75000 0.50000
vt 2.00000 0.12500
vt 1.75000 0.12500
vt 5.62500 -3.25000
vt 5.25000 -3.25000
vt 5.62500 -3.62500
vt 5.25000 -3.62500
vt 6.00000 -3.25000
vt 6.00000 -3.62500
vt 2.87500 0.00000
vt 2.25000 0.00000
vt 2.87500 -0.62500
vt 2.25000 -0.62500
vt 4.00000 -0.62500
vt 4.87500 1.00000
vt 4.25000 1.00000
vt 4.87500 0.75000
vt 5.00000 0.37500
vt 6.37500 -3.50000
vt 6.37500 -4.12500
vt 5.75000 -4.12500
vt 7.25000 -3.50000
vt 7.25000 -4.12500
vt 0.37500 -6.50000
vt 0.00000 -6.50000
vt 0.37500 -6.87500
vt 0.00000 -6.87500
vt 1.50000 -6.50000
vt 1.50000 -6.87500
vt 5.12500 -2.50000
vt 4.75000 -2.50000
vt 5.12500 -2.75000
vt 4.75000 -2.75000
vt 6.25000 -2.87500
vt 4.75000 -2.87500
vt 8.87500 1.00000
vt 7.75000 1.00000
vt 8.87500 0.75000
vt 7.75000 0.75000
vt 9.25000 1.00000
vt 9.25000 -0.12500
vt 9.25000 0.75000
vt 4.12500 -2.00000
vt 4.12500 -2.37500
vt 3.50000 -2.37500
vt 3.87500 -2.00000
vt 3.87500 -2.62500
vt 3.50000 -2.62500
vt 3.87500 -2.37500
vt 1.87500 -5.50000
vt 1.87500 -5.87500
vt 1.25000 -5.87500
vt 1.62500 -5.50000
vt 1.62500 -6.12500
vt 1.25000 -6.12500
vt 1.62500 -5.87500
vt 0.25000 -6.25000
vt 0.50000 -6.50000
vt 0.25000 -6.50000
vt 4.75000 -1.25000
vt 4.50000 -1.25000
vt 4.75000 -1.50000
vt 4.50000 -1.50000
vt 4.37500 -5.50000
vt 4.00000 -5.50000
vt 4.37500 -5.87500
vt 4.00000 -5.87500
vt 5.50000 -5.87500
vt 1.00000 1.00000
vt 0.00000 1.00000
vt 1.00000 0.00000
vt 0.00000 0.00000
vt 5.75000 -1.50000
vt 6.00000 -1.75000
vt 5.75000 -1.75000
vt 5.87500 -1.50000
vt 5.87500 -1.75000
vt 2.25000 -2.75000
vt 1.75000 -2.75000
vt 2.25000 -3.25000
vt 2.12500 -2.75000
vt 2.12500 -3.25000
vt 1.37500 -5.75000
vt 1.00000 -5.75000
vt 1.37500 -5.87500
vt 1.00000 -5.87500
vt 1.00000 -6.12500
vt 5.12500 -5.00000
vt 5.00000 -5.00000
vt 5.12500 -5.25000
vt 5.00000 -5.25000
vt 6.00000 -5.00000
vt 6.00000 -5.12500
vt 5.00000 -5.12500
vt 6.00000 -5.25000
vt 6.37500 -1.75000
vt 5.50000 -1.75000
vt 6.37500 -1.87500
vt 6.50000 -1.75000
vt 6.50000 -2.62500
vt 5.50000 -2.62500
vt 6.50000 -1.87500
vt 3.00000 -4.50000
vt 3.00000 -4.75000
vt 4.25000 -4.50000
vt 4.25000 -5.50000
vt 3.00000 -5.50000
vt 4.25000 -4.75000
vt 4.12500 0.50000
vt 3.75000 0.50000
vt 4.12500 0.12500
vt 3.75000 0.12500
vt 4.25000 0.12500
vt 5.37500 -6.50000
vt 5.25000 -6.50000
vt 5.37500 -6.87500
vt 5.25000 -6.87500
vt 5.62500 -6.50000
vt 5.62500 -6.62500
vt 5.25000 -6.62500
vt 5.62500 -6.87500
vt 2.87500 -4.00000
vt 2.50000 -4.00000
vt 2.87500 -4.37500
vt 2.50000 -4.37500
vt 5.62500 -3.75000
vt 5.50000 -3.75000
vt 5.62500 -4.25000
vt 5.50000 -4.25000
vt 6.00000 -3.87500
vt 5.50000 -3.87500
vt 3.50000 -2.75000
vt 3.25000 -2.75000
vt 3.25000 -3.37500
vt 3.87500 -2.75000
vt 6.37500 -2.50000
vt 6.37500 -3.12500
vt 6.25000 -3.12500
vt 7.00000 -2.50000
vt 7.00000 -2.62500
vt 6.25000 -2.62500
vt 7.00000 -3.12500
vt 2.00000 -0.12500
vt 1.75000 -0.12500
vt 2.50000 0.50000
vt 2.50000 0.25000
vt 2.50000 -0.12500
vt 6.75000 0.25000
vt 6.50000 0.25000
vt 6.75000 0.12500
vt 6.50000 0.12500
vt 6.62500 0.00000
vt 6.50000 0.00000
vt 6.62500 0.12500
vn 1.0000 0.0000 0.0000
vn 0.0000 1.0000 0.0000
vn 0.0000 0.0000 1.0000
vn -1.0000 0.0000 0.0000
vn 0.0000 -1.0000 0.0000
vn 0.0000 0.0000 -1.0000
vn 0.0000 0.7087 -0.7087
vn 0.0000 0.7087 0.7087
vn 0.0000 -0.7087 0.7087
vn 0.0000 -0.7087 -0.7087
vn 0.0000 0.8661 0.5039
vn 0.0000 -0.5039 0.8661
vn 0.0000 -0.8661 -0.5039
vn 0.0000 0.5039 -0.8661

o RightLowerArm
usemtl c_1b2a35
f 1/1/1 2/2/1 3/3/1
f 3/3/1 2/2/1 4/4/1
f 5/5/2 2/2/2 6/6/2
f 6/6/2 2/2/2 1/7/2
f 2/5/3 5/2/3 4/8/3
f 4/8/3 5/2/3 7/4/3
f 5/1/4 6/2/4 7/3/4
f 7/3/4 6/2/4 8/4/4
f 8/5/5 3/2/5 7/6/5
f 7/6/5 3/2/5 4/7/5
f 6/5/6 1/2/6 8/8/6
f 8/8/6 1/2/6 3/4/6
usemtl c_9fa1ac
f 2/9/1 9/10/1 10/11/1
f 10/11/1 9/10/1 11/12/1
f 12/9/2 9/10/2 5/11/2
f 5/11/2 9/10/2 2/12/2
f 9/9/3 12/10/3 11/11/3
f 11/11/3 12/10/3 13/12/3
f 12/9/4 5/10/4 13/11/4
f 13/11/4 5/10/4 14/12/4
f 14/9/5 10/10/5 13/11/5
f 13/11/5 10/10/5 11/12/5
f 5/9/6 2/10/6 14/11/6
f 14/11/6 2/10/6 10/12/6
usemtl c_f8f8f8
f 10/13/1 15/14/1 4/15/1
f 4/15/1 15/14/1 16/16/1
f 17/17/2 15/14/2 14/18/2
f 14/18/2 15/14/2 10/16/2
f 15/17/3 17/14/3 16/18/3
f 16/18/3 17/14/3 18/16/3
f 17/13/4 14/14/4 18/15/4
f 18/15/4 14/14/4 7/16/4
f 7/17/5 4/14/5 18/18/5
f 18/18/5 4/14/5 16/16/5
f 14/17/6 10/14/6 7/18/6
f 7/18/6 10/14/6 4/16/6
o RightFoot
usemtl c_f8f8f8
f 19/19/1 20/20/1 21/21/1
f 21/21/1 20/20/1 22/22/1
f 23/19/2 20/20/2 24/21/2
f 24/21/2 20/20/2 19/22/2
f 20/19/3 23/20/3 22/21/3
f 22/21/3 23/20/3 25/22/3
f 23/19/4 24/20/4 25/21/4
f 25/21/4 24/20/4 26/22/4
f 26/19/5 21/20/5 25/21/5
f 25/21/5 21/20/5 22/22/5
f 24/19/6 19/20/6 26/21/6
f 26/21/6 19/20/6 21/22/6
f 27/23/1 28/24/1 29/25/1
f 29/25/1 28/24/1 30/26/1
f 31/23/2 28/24/2 32/25/2
f 32/25/2 28/24/2 27/26/2
f 28/23/3 31/24/3 30/25/3
f 30/25/3 31/24/3 33/26/3
f 31/23/4 32/24/4 33/25/4
f 33/25/4 32/24/4 34/26/4
f 34/23/5 29/24/5 33/25/5
f 33/25/5 29/24/5 30/26/5
f 32/23/6 27/24/6 34/25/6
f 34/25/6 27/24/6 29/26/6
f 35/27/1 36/28/1 37/29/1
f 37/29/1 36/28/1 38/30/1
f 39/27/2 36/28/2 40/29/2
f 40/29/2 36/28/2 35/30/2
f 36/27/3 39/28/3 38/29/3
f 38/29/3 39/28/3 41/30/3
f 39/27/4 40/28/4 41/29/4
f 41/29/4 40/28/4 42/30/4
f 42/27/5 37/28/5 41/29/5
f 41/29/5 37/28/5 38/30/5
f 40/27/6 35/28/6 42/29/6
f 42/29/6 35/28/6 37/30/6
f 43/31/1 44/32/1 45/33/1
f 45/33/1 44/32/1 46/34/1
f 47/31/2 44/32/2 48/33/2
f 48/33/2 44/32/2 43/34/2
f 44/31/3 47/32/3 46/33/3
f 46/33/3 47/32/3 49/34/3
f 47/31/4 48/32/4 49/33/4
f 49/33/4 48/32/4 50/34/4
f 50/31/5 45/32/5 49/33/5
f 49/33/5 45/32/5 46/34/5
f 48/31/6 43/32/6 50/33/6
f 50/33/6 43/32/6 45/34/6
f 51/35/1 52/36/1 53/37/1
f 53/37/1 52/36/1 54/38/1
f 55/35/2 52/36/2 56/37/2
f 56/37/2 52/36/2 51/38/2
f 52/35/3 55/36/3 54/37/3
f 54/37/3 55/36/3 57/38/3
f 55/35/4 56/36/4 57/37/4
f 57/37/4 56/36/4 58/38/4
f 58/35/5 53/36/5 57/37/5
f 57/37/5 53/36/5 54/38/5
f 56/35/6 51/36/6 58/37/6
f 58/37/6 51/36/6 53/38/6
f 59/39/1 60/40/1 61/41/1
f 61/41/1 60/40/1 62/42/1
f 63/39/2 60/40/2 64/41/2
f 64/41/2 60/40/2 59/42/2
f 60/39/3 63/40/3 62/41/3
f 62/41/3 63/40/3 65/42/3
f 63/39/4 64/40/4 65/41/4
f 65/41/4 64/40/4 66/42/4
f 66/39/5 61/40/5 65/41/5
f 65/41/5 61/40/5 62/42/5
f 64/39/6 59/40/6 66/41/6
f 66/41/6 59/40/6 61/42/6
usemtl c_1b2a35
f 67/43/1 68/44/1 69/45/1
f 69/45/1 68/44/1 70/46/1
f 71/47/2 68/44/2 72/48/2
f 72/48/2 68/44/2 67/49/2
f 68/47/3 71/44/3 70/50/3
f 70/50/3 71/44/3 73/46/3
f 71/43/4 72/44/4 73/45/4
f 73/45/4 72/44/4 74/46/4
f 74/47/5 69/44/5 73/48/5
f 73/48/5 69/44/5 70/49/5
f 72/47/6 67/44/6 74/50/6
f 74/50/6 67/44/6 69/46/6
f 75/51/1 76/52/1 54/53/1
f 54/53/1 76/52/1 69/54/1
f 77/55/2 76/52/2 78/56/2
f 78/56/2 76/52/2 75/57/2
f 76/55/3 77/52/3 69/58/3
f 69/58/3 77/52/3 74/54/3
f 77/51/4 78/52/4 74/53/4
f 74/53/4 78/52/4 33/54/4
f 33/55/5 54/52/5 74/56/5
f 74/56/5 54/52/5 69/57/5
f 78/55/6 75/52/6 33/58/6
f 33/58/6 75/52/6 54/54/6
usemtl c_9fa1ac
f 52/59/1 67/60/1 75/61/1
f 75/61/1 67/60/1 76/62/1
f 72/63/2 67/60/2 31/64/2
f 31/64/2 67/60/2 52/65/2
f 67/63/3 72/60/3 76/66/3
f 76/66/3 72/60/3 77/62/3
f 72/59/4 31/60/4 77/61/4
f 77/61/4 31/60/4 78/62/4
f 78/63/5 75/60/5 77/64/5
f 77/64/5 75/60/5 76/65/5
f 31/63/6 52/60/6 78/66/6
f 78/66/6 52/60/6 75/62/6
o RightUpperLeg
usemtl c_9fa1ac
f 79/67/1 80/68/1 81/69/1
f 81/69/1 80/68/1 82/70/1
f 83/71/7 80/68/7 84/72/7
f 84/72/7 80/68/7 79/73/7
f 80/71/8 83/68/8 82/74/8
f 82/74/8 83/68/8 85/70/8
f 83/67/4 84/68/4 85/69/4
f 85/69/4 84/68/4 86/70/4
f 86/71/9 81/68/9 85/72/9
f 85/72/9 81/68/9 82/73/9
f 84/71/10 79/68/10 86/74/10
f 86/74/10 79/68/10 81/70/10
f 87/75/1 88/76/1 89/77/1
f 89/77/1 88/76/1 90/78/1
f 91/79/7 88/76/7 92/80/7
f 92/80/7 88/76/7 87/81/7
f 88/79/8 91/76/8 90/82/8
f 90/82/8 91/76/8 93/78/8
f 91/75/4 92/76/4 93/77/4
f 93/77/4 92/76/4 94/78/4
f 94/79/9 89/76/9 93/80/9
f 93/80/9 89/76/9 90/81/9
f 92/79/10 87/76/10 94/82/10
f 94/82/10 87/76/10 89/78/10
usemtl c_1b2a35
f 95/83/1 96/84/1 97/85/1
f 97/85/1 96/84/1 98/86/1
f 99/87/7 96/84/7 100/88/7
f 100/88/7 96/84/7 95/89/7
f 96/87/8 99/84/8 98/90/8
f 98/90/8 99/84/8 101/86/8
f 99/83/4 100/84/4 101/85/4
f 101/85/4 100/84/4 102/86/4
f 102/87/9 97/84/9 101/88/9
f 101/88/9 97/84/9 98/89/9
f 100/87/10 95/84/10 102/90/10
f 102/90/10 95/84/10 97/86/10
usemtl c_ff0000
f 103/91/1 104/92/1 105/93/1
f 105/93/1 104/92/1 106/94/1
f 107/95/7 104/92/7 108/96/7
f 108/96/7 104/92/7 103/97/7
f 104/95/8 107/92/8 106/98/8
f 106/98/8 107/92/8 109/94/8
f 107/91/4 108/92/4 109/93/4
f 109/93/4 108/92/4 110/94/4
f 110/95/9 105/92/9 109/96/9
f 109/96/9 105/92/9 106/97/9
f 108/95/10 103/92/10 110/98/10
f 110/98/10 103/92/10 105/94/10
o LeftFoot
usemtl c_f8f8f8
f 111/99/1 112/100/1 113/101/1
f 113/101/1 112/100/1 114/102/1
f 115/99/2 112/100/2 116/101/2
f 116/101/2 112/100/2 111/102/2
f 112/99/3 115/100/3 114/101/3
f 114/101/3 115/100/3 117/102/3
f 115/99/4 116/100/4 117/101/4
f 117/101/4 116/100/4 118/102/4
f 118/99/5 113/100/5 117/101/5
f 117/101/5 113/100/5 114/102/5
f 116/99/6 111/100/6 118/101/6
f 118/101/6 111/100/6 113/102/6
f 119/103/1 120/104/1 121/105/1
f 121/105/1 120/104/1 122/106/1
f 123/103/2 120/104/2 124/105/2
f 124/105/2 120/104/2 119/106/2
f 120/103/3 123/104/3 122/105/3
f 122/105/3 123/104/3 125/106/3
f 123/103/4 124/104/4 125/105/4
f 125/105/4 124/104/4 126/106/4
f 126/103/5 121/104/5 125/105/5
f 125/105/5 121/104/5 122/106/5
f 124/103/6 119/104/6 126/105/6
f 126/105/6 119/104/6 121/106/6
f 127/107/1 128/108/1 129/109/1
f 129/109/1 128/108/1 130/110/1
f 131/107/2 128/108/2 132/109/2
f 132/109/2 128/108/2 127/110/2
f 128/107/3 131/108/3 130/109/3
f 130/109/3 131/108/3 133/110/3
f 131/107/4 132/108/4 133/109/4
f 133/109/4 132/108/4 134/110/4
f 134/107/5 129/108/5 133/109/5
f 133/109/5 129/108/5 130/110/5
f 132/107/6 127/108/6 134/109/6
f 134/109/6 127/108/6 129/110/6
f 135/111/1 136/112/1 137/113/1
f 137/113/1 136/112/1 138/114/1
f 139/111/2 136/112/2 140/113/2
f 140/113/2 136/112/2 135/114/2
f 136/111/3 139/112/3 138/113/3
f 138/113/3 139/112/3 141/114/3
f 139/111/4 140/112/4 141/113/4
f 141/113/4 140/112/4 142/114/4
f 142/111/5 137/112/5 141/113/5
f 141/113/5 137/112/5 138/114/5
f 140/111/6 135/112/6 142/113/6
f 142/113/6 135/112/6 137/114/6
f 143/115/1 144/116/1 145/117/1
f 145/117/1 144/116/1 146/118/1
f 147/115/2 144/116/2 148/117/2
f 148/117/2 144/116/2 143/118/2
f 144/115/3 147/116/3 146/117/3
f 146/117/3 147/116/3 149/118/3
f 147/115/4 148/116/4 149/117/4
f 149/117/4 148/116/4 150/118/4
f 150/115/5 145/116/5 149/117/5
f 149/117/5 145/116/5 146/118/5
f 148/115/6 143/116/6 150/117/6
f 150/117/6 143/116/6 145/118/6
f 151/119/1 152/120/1 153/121/1
f 153/121/1 152/120/1 154/122/1
f 155/119/2 152/120/2 156/121/2
f 156/121/2 152/120/2 151/122/2
f 152/119/3 155/120/3 154/121/3
f 154/121/3 155/120/3 157/122/3
f 155/119/4 156/120/4 157/121/4
f 157/121/4 156/120/4 158/122/4
f 158/119/5 153/120/5 157/121/5
f 157/121/5 153/120/5 154/122/5
f 156/119/6 151/120/6 158/121/6
f 158/121/6 151/120/6 153/122/6
usemtl c_1b2a35
f 159/123/1 160/124/1 114/125/1
f 114/125/1 160/124/1 161/126/1
f 162/127/2 160/124/2 163/128/2
f 163/128/2 160/124/2 159/129/2
f 160/127/3 162/124/3 161/130/3
f 161/130/3 162/124/3 164/126/3
f 162/123/4 163/124/4 164/125/4
f 164/125/4 163/124/4 125/126/4
f 125/127/5 114/124/5 164/128/5
f 164/128/5 114/124/5 161/129/5
f 163/127/6 159/124/6 125/130/6
f 125/130/6 159/124/6 114/126/6
f 165/131/1 166/132/1 161/133/1
f 161/133/1 166/132/1 167/134/1
f 168/135/2 166/132/2 169/136/2
f 169/136/2 166/132/2 165/137/2
f 166/135/3 168/132/3 167/138/3
f 167/138/3 168/132/3 170/134/3
f 168/131/4 169/132/4 170/133/4
f 170/133/4 169/132/4 164/134/4
f 164/135/5 161/132/5 170/136/5
f 170/136/5 161/132/5 167/137/5
f 169/135/6 165/132/6 164/138/6
f 164/138/6 165/132/6 161/134/6
usemtl c_9fa1ac
f 112/139/1 165/140/1 159/141/1
f 159/141/1 165/140/1 160/142/1
f 169/143/2 165/140/2 123/144/2
f 123/144/2 165/140/2 112/100/2
f 165/143/3 169/140/3 160/145/3
f 160/145/3 169/140/3 162/142/3
f 169/139/4 123/140/4 162/141/4
f 162/141/4 123/140/4 163/142/4
f 163/143/5 159/140/5 162/144/5
f 162/144/5 159/140/5 160/100/5
f 123/143/6 112/140/6 163/145/6
f 163/145/6 112/140/6 159/142/6
o UpperTorso
usemtl c_ff0000
f 171/146/1 172/147/1 173/148/1
f 173/148/1 172/147/1 174/149/1
f 175/150/11 172/147/11 176/151/11
f 176/151/11 172/147/11 171/152/11
f 172/150/12 175/147/12 174/153/12
f 174/153/12 175/147/12 177/149/12
f 175/146/4 176/147/4 177/148/4
f 177/148/4 176/147/4 178/149/4
f 178/150/13 173/147/13 177/151/13
f 177/151/13 173/147/13 174/152/13
f 176/150/14 171/147/14 178/153/14
f 178/153/14 171/147/14 173/149/14
f 179/154/1 180/155/1 181/156/1
f 181/156/1 180/155/1 182/157/1
f 183/158/11 180/155/11 184/159/11
f 184/159/11 180/155/11 179/160/11
f 180/158/12 183/155/12 182/161/12
f 182/161/12 183/155/12 185/157/12
f 183/154/4 184/155/4 185/156/4
f 185/156/4 184/155/4 186/157/4
f 186/158/13 181/155/13 185/159/13
f 185/159/13 181/155/13 182/160/13
f 184/158/14 179/155/14 186/161/14
f 186/161/14 179/155/14 181/157/14
f 187/162/1 188/163/1 189/164/1
f 189/164/1 188/163/1 190/165/1
f 191/162/11 188/163/11 192/164/11
f 192/164/11 188/163/11 187/165/11
f 188/162/12 191/163/12 190/164/12
f 190/164/12 191/163/12 193/165/12
f 191/162/4 192/163/4 193/164/4
f 193/164/4 192/163/4 194/165/4
f 194/162/13 189/163/13 193/164/13
f 193/164/13 189/163/13 190/165/13
f 192/162/14 187/163/14 194/164/14
f 194/164/14 187/163/14 189/165/14
usemtl c_9fa1ac
f 195/166/1 196/167/1 197/168/1
f 197/168/1 196/167/1 198/169/1
f 199/170/11 196/167/11 200/171/11
f 200/171/11 196/167/11 195/172/11
f 196/170/12 199/167/12 198/173/12
f 198/173/12 199/167/12 201/169/12
f 199/166/4 200/167/4 201/168/4
f 201/168/4 200/167/4 202/169/4
f 202/170/13 197/167/13 201/171/13
f 201/171/13 197/167/13 198/172/13
f 200/170/14 195/167/14 202/173/14
f 202/173/14 195/167/14 197/169/14
f 203/174/1 204/175/1 205/176/1
f 205/176/1 204/175/1 206/177/1
f 207/178/11 204/175/11 208/179/11
f 208/179/11 204/175/11 203/177/11
f 204/178/12 207/175/12 206/179/12
f 206/179/12 207/175/12 209/177/12
f 207/174/4 208/175/4 209/176/4
f 209/176/4 208/175/4 210/177/4
f 210/178/13 205/175/13 209/179/13
f 209/179/13 205/175/13 206/177/13
f 208/178/14 203/175/14 210/179/14
f 210/179/14 203/175/14 205/177/14
f 211/180/1 212/181/1 213/182/1
f 213/182/1 212/181/1 214/183/1
f 215/180/11 212/181/11 216/182/11
f 216/182/11 212/181/11 211/183/11
f 212/180/12 215/181/12 214/182/12
f 214/182/12 215/181/12 217/183/12
f 215/180/4 216/181/4 217/182/4
f 217/182/4 216/181/4 218/183/4
f 218/180/13 213/181/13 217/182/13
f 217/182/13 213/181/13 214/183/13
f 216/180/14 211/181/14 218/182/14
f 218/182/14 211/181/14 213/183/14
f 219/184/1 220/185/1 221/186/1
f 221/186/1 220/185/1 222/187/1
f 223/188/11 220/185/11 224/189/11
f 224/189/11 220/185/11 219/187/11
f 220/188/12 223/185/12 222/189/12
f 222/189/12 223/185/12 225/187/12
f 223/184/4 224/185/4 225/186/4
f 225/186/4 224/185/4 226/187/4
f 226/188/13 221/185/13 225/189/13
f 225/189/13 221/185/13 222/187/13
f 224/188/14 219/185/14 226/189/14
f 226/189/14 219/185/14 221/187/14
f 227/190/1 228/191/1 229/192/1
f 229/192/1 228/191/1 230/193/1
f 231/67/11 228/191/11 232/194/11
f 232/194/11 228/191/11 227/195/11
f 228/67/12 231/191/12 230/196/12
f 230/196/12 231/191/12 233/193/12
f 231/190/4 232/191/4 233/192/4
f 233/192/4 232/191/4 234/193/4
f 234/67/13 229/191/13 233/194/13
f 233/194/13 229/191/13 230/195/13
f 232/67/14 227/191/14 234/196/14
f 234/196/14 227/191/14 229/193/14
f 235/197/1 236/198/1 237/199/1
f 237/199/1 236/198/1 238/36/1
f 239/200/11 236/198/11 240/201/11
f 240/201/11 236/198/11 235/38/11
f 236/200/12 239/198/12 238/202/12
f 238/202/12 239/198/12 241/36/12
f 239/197/4 240/198/4 241/199/4
f 241/199/4 240/198/4 242/36/4
f 242/200/13 237/198/13 241/201/13
f 241/201/13 237/198/13 238/38/13
f 240/200/14 235/198/14 242/202/14
f 242/202/14 235/198/14 237/36/14
f 243/203/1 244/204/1 208/205/1
f 208/205/1 244/204/1 207/206/1
f 245/203/11 244/204/11 246/207/11
f 246/207/11 244/204/11 243/208/11
f 244/203/12 245/204/12 207/205/12
f 207/205/12 245/204/12 247/206/12
f 245/203/4 246/204/4 247/205/4
f 247/205/4 246/204/4 248/206/4
f 248/203/13 208/204/13 247/207/13
f 247/207/13 208/204/13 207/208/13
f 246/203/14 243/204/14 248/205/14
f 248/205/14 243/204/14 208/206/14
f 226/209/1 225/210/1 249/211/1
f 249/211/1 225/210/1 250/212/1
f 251/209/11 225/210/11 252/213/11
f 252/213/11 225/210/11 226/214/11
f 225/209/12 251/210/12 250/211/12
f 250/211/12 251/210/12 253/212/12
f 251/209/4 252/210/4 253/211/4
f 253/211/4 252/210/4 254/212/4
f 254/209/13 249/210/13 253/213/13
f 253/213/13 249/210/13 250/214/13
f 252/209/14 226/210/14 254/211/14
f 254/211/14 226/210/14 249/212/14
f 255/215/1 256/216/1 252/217/1
f 252/217/1 256/216/1 251/218/1
f 257/219/11 256/216/11 258/220/11
f 258/220/11 256/216/11 255/218/11
f 256/219/12 257/216/12 251/220/12
f 251/220/12 257/216/12 259/218/12
f 257/215/4 258/216/4 259/217/4
f 259/217/4 258/216/4 260/218/4
f 260/219/13 252/216/13 259/220/13
f 259/220/13 252/216/13 251/218/13
f 258/219/14 255/216/14 260/220/14
f 260/220/14 255/216/14 252/218/14
f 210/221/1 209/222/1 261/223/1
f 261/223/1 209/222/1 262/224/1
f 263/221/11 209/222/11 264/225/11
f 264/225/11 209/222/11 210/226/11
f 209/221/12 263/222/12 262/223/12
f 262/223/12 263/222/12 265/224/12
f 263/221/4 264/222/4 265/223/4
f 265/223/4 264/222/4 266/224/4
f 266/221/13 261/222/13 265/225/13
f 265/225/13 261/222/13 262/226/13
f 264/221/14 210/222/14 266/223/14
f 266/223/14 210/222/14 261/224/14
f 267/227/1 268/228/1 224/229/1
f 224/229/1 268/228/1 223/230/1
f 269/227/11 268/228/11 270/231/11
f 270/231/11 268/228/11 267/111/11
f 268/227/12 269/228/12 223/229/12
f 223/229/12 269/228/12 256/230/12
f 269/227/4 270/228/4 256/229/4
f 256/229/4 270/228/4 255/230/4
f 255/227/13 224/228/13 256/231/13
f 256/231/13 224/228/13 223/111/13
f 270/227/14 267/228/14 255/229/14
f 255/229/14 267/228/14 224/230/14
f 271/232/1 272/233/1 273/234/1
f 273/234/1 272/233/1 274/235/1
f 275/236/11 272/233/11 276/237/11
f 276/237/11 272/233/11 271/238/11
f 272/236/12 275/233/12 274/239/12
f 274/239/12 275/233/12 277/235/12
f 275/232/4 276/233/4 277/234/4
f 277/234/4 276/233/4 278/235/4
f 278/236/13 273/233/13 277/237/13
f 277/237/13 273/233/13 274/238/13
f 276/236/14 271/233/14 278/239/14
f 278/239/14 271/233/14 273/235/14
f 248/240/1 247/241/1 264/242/1
f 264/242/1 247/241/1 263/243/1
f 279/244/11 247/241/11 280/245/11
f 280/245/11 247/241/11 248/243/11
f 247/244/12 279/241/12 263/245/12
f 263/245/12 279/241/12 281/243/12
f 279/240/4 280/241/4 281/242/4
f 281/242/4 280/241/4 282/243/4
f 282/244/13 264/241/13 281/245/13
f 281/245/13 264/241/13 263/243/13
f 280/244/14 248/241/14 282/245/14
f 282/245/14 248/241/14 264/243/14
f 283/246/1 284/247/1 285/248/1
f 285/248/1 284/247/1 286/249/1
f 287/246/11 284/247/11 288/248/11
f 288/248/11 284/247/11 283/249/11
f 284/246/12 287/247/12 286/248/12
f 286/248/12 287/247/12 289/249/12
f 287/246/4 288/247/4 289/248/4
f 289/248/4 288/247/4 290/249/4
f 290/246/13 285/247/13 289/248/13
f 289/248/13 285/247/13 286/249/13
f 288/246/14 283/247/14 290/248/14
f 290/248/14 283/247/14 285/249/14
usemtl c_1b2a35
f 291/250/1 292/251/1 293/252/1
f 293/252/1 292/251/1 294/253/1
f 295/254/11 292/251/11 296/255/11
f 296/255/11 292/251/11 291/256/11
f 292/254/12 295/251/12 294/257/12
f 294/257/12 295/251/12 297/253/12
f 295/250/4 296/251/4 297/252/4
f 297/252/4 296/251/4 298/253/4
f 298/254/13 293/251/13 297/255/13
f 297/255/13 293/251/13 294/256/13
f 296/254/14 291/251/14 298/257/14
f 298/257/14 291/251/14 293/253/14
f 189/258/1 190/259/1 299/260/1
f 299/260/1 190/259/1 300/261/1
f 193/258/11 190/259/11 194/262/11
f 194/262/11 190/259/11 189/263/11
f 190/258/12 193/259/12 300/260/12
f 300/260/12 193/259/12 301/261/12
f 193/258/4 194/259/4 301/260/4
f 301/260/4 194/259/4 302/261/4
f 302/258/13 299/259/13 301/262/13
f 301/262/13 299/259/13 300/263/13
f 194/258/14 189/259/14 302/260/14
f 302/260/14 189/259/14 299/261/14
f 303/264/1 304/265/1 305/266/1
f 305/266/1 304/265/1 306/267/1
f 307/268/11 304/265/11 308/269/11
f 308/269/11 304/265/11 303/270/11
f 304/268/12 307/265/12 306/271/12
f 306/271/12 307/265/12 309/267/12
f 307/264/4 308/265/4 309/266/4
f 309/266/4 308/265/4 310/267/4
f 310/268/13 305/265/13 309/269/13
f 309/269/13 305/265/13 306/270/13
f 308/268/14 303/265/14 310/271/14
f 310/271/14 303/265/14 305/267/14
f 311/272/1 312/273/1 313/274/1
f 313/274/1 312/273/1 314/275/1
f 315/276/11 312/273/11 316/277/11
f 316/277/11 312/273/11 311/33/11
f 312/276/12 315/273/12 314/278/12
f 314/278/12 315/273/12 317/275/12
f 315/272/4 316/273/4 317/274/4
f 317/274/4 316/273/4 318/275/4
f 318/276/13 313/273/13 317/277/13
f 317/277/13 313/273/13 314/33/13
f 316/276/14 311/273/14 318/278/14
f 318/278/14 311/273/14 313/275/14
f 319/279/1 320/123/1 321/280/1
f 321/280/1 320/123/1 322/125/1
f 323/281/11 320/123/11 324/282/11
f 324/282/11 320/123/11 319/283/11
f 320/281/12 323/123/12 322/284/12
f 322/284/12 323/123/12 325/125/12
f 323/279/4 324/123/4 325/280/4
f 325/280/4 324/123/4 326/125/4
f 326/281/13 321/123/13 325/282/13
f 325/282/13 321/123/13 322/283/13
f 324/281/14 319/123/14 326/284/14
f 326/284/14 319/123/14 321/125/14
usemtl c_5b5d69
f 237/285/1 238/286/1 327/287/1
f 327/287/1 238/286/1 328/288/1
f 241/289/11 238/286/11 242/290/11
f 242/290/11 238/286/11 237/291/11
f 238/289/12 241/286/12 328/292/12
f 328/292/12 241/286/12 329/288/12
f 241/285/4 242/286/4 329/287/4
f 329/287/4 242/286/4 330/288/4
f 330/289/13 327/286/13 329/290/13
f 329/290/13 327/286/13 328/291/13
f 242/289/14 237/286/14 330/292/14
f 330/292/14 237/286/14 327/288/14
o LeftLowerLeg
usemtl c_9fa1ac
f 331/293/1 332/294/1 333/295/1
f 333/295/1 332/294/1 334/296/1
f 335/297/7 332/294/7 336/298/7
f 336/298/7 332/294/7 331/299/7
f 332/297/8 335/294/8 334/300/8
f 334/300/8 335/294/8 337/296/8
f 335/293/4 336/294/4 337/295/4
f 337/295/4 336/294/4 338/296/4
f 338/297/9 333/294/9 337/298/9
f 337/298/9 333/294/9 334/299/9
f 336/297/10 331/294/10 338/300/10
f 338/300/10 331/294/10 333/296/10
usemtl c_ff0000
f 339/301/1 340/302/1 341/303/1
f 341/303/1 340/302/1 342/304/1
f 343/305/7 340/302/7 344/306/7
f 344/306/7 340/302/7 339/304/7
f 340/305/8 343/302/8 342/306/8
f 342/306/8 343/302/8 345/304/8
f 343/301/4 344/302/4 345/303/4
f 345/303/4 344/302/4 346/304/4
f 346/305/9 341/302/9 345/306/9
f 345/306/9 341/302/9 342/304/9
f 344/305/10 339/302/10 346/306/10
f 346/306/10 339/302/10 341/304/10
usemtl c_1b2a35
f 332/307/1 347/247/1 334/308/1
f 334/308/1 347/247/1 348/309/1
f 349/246/7 347/247/7 335/310/7
f 335/310/7 347/247/7 332/311/7
f 347/246/8 349/247/8 348/312/8
f 348/312/8 349/247/8 350/309/8
f 349/307/4 335/247/4 350/308/4
f 350/308/4 335/247/4 337/309/4
f 337/246/9 334/247/9 350/310/9
f 350/310/9 334/247/9 348/311/9
f 335/246/10 332/247/10 337/312/10
f 337/312/10 332/247/10 334/309/10
o LeftLowerArm
usemtl c_9fa1ac
f 351/313/1 352/314/1 353/59/1
f 353/59/1 352/314/1 354/60/1
f 355/313/2 352/314/2 356/59/2
f 356/59/2 352/314/2 351/60/2
f 352/313/3 355/314/3 354/59/3
f 354/59/3 355/314/3 357/60/3
f 355/313/4 356/314/4 357/59/4
f 357/59/4 356/314/4 358/60/4
f 358/313/5 353/314/5 357/59/5
f 357/59/5 353/314/5 354/60/5
f 356/313/6 351/314/6 358/59/6
f 358/59/6 351/314/6 353/60/6
usemtl c_1b2a35
f 359/27/1 351/28/1 360/315/1
f 360/315/1 351/28/1 361/316/1
f 356/317/2 351/28/2 362/318/2
f 362/318/2 351/28/2 359/30/2
f 351/317/3 356/28/3 361/319/3
f 361/319/3 356/28/3 363/316/3
f 356/27/4 362/28/4 363/315/4
f 363/315/4 362/28/4 364/316/4
f 364/317/5 360/28/5 363/318/5
f 363/318/5 360/28/5 361/30/5
f 362/317/6 359/28/6 364/319/6
f 364/319/6 359/28/6 360/316/6
usemtl c_f8f8f8
f 353/320/1 365/37/1 361/321/1
f 361/321/1 365/37/1 366/322/1
f 367/323/2 365/37/2 358/324/2
f 358/324/2 365/37/2 353/322/2
f 365/323/3 367/37/3 366/324/3
f 366/324/3 367/37/3 368/322/3
f 367/320/4 358/37/4 368/321/4
f 368/321/4 358/37/4 363/322/4
f 363/323/5 361/37/5 368/324/5
f 368/324/5 361/37/5 366/322/5
f 358/323/6 353/37/6 363/324/6
f 363/324/6 353/37/6 361/322/6
o LeftUpperArm
usemtl c_ff0000
f 369/72/1 370/196/1 371/325/1
f 371/325/1 370/196/1 372/326/1
f 373/327/2 370/196/2 374/328/2
f 374/328/2 370/196/2 369/329/2
f 370/327/3 373/196/3 372/330/3
f 372/330/3 373/196/3 375/326/3
f 373/72/4 374/196/4 375/325/4
f 375/325/4 374/196/4 376/326/4
f 376/327/5 371/196/5 375/328/5
f 375/328/5 371/196/5 372/329/5
f 374/327/6 369/196/6 376/330/6
f 376/330/6 369/196/6 371/326/6
usemtl c_9fa1ac
f 377/331/1 378/332/1 379/333/1
f 379/333/1 378/332/1 380/334/1
f 381/335/2 378/332/2 382/336/2
f 382/336/2 378/332/2 377/334/2
f 378/335/3 381/332/3 380/336/3
f 380/336/3 381/332/3 383/334/3
f 381/331/4 382/332/4 383/333/4
f 383/333/4 382/332/4 384/334/4
f 384/335/5 379/332/5 383/336/5
f 383/336/5 379/332/5 380/334/5
f 382/335/6 377/332/6 384/336/6
f 384/336/6 377/332/6 379/334/6
usemtl c_1b2a35
f 385/337/1 386/338/1 387/339/1
f 387/339/1 386/338/1 388/340/1
f 389/341/2 386/338/2 390/342/2
f 390/342/2 386/338/2 385/340/2
f 386/341/3 389/338/3 388/342/3
f 388/342/3 389/338/3 391/340/3
f 389/337/4 390/338/4 391/339/4
f 391/339/4 390/338/4 392/340/4
f 392/341/5 387/338/5 391/342/5
f 391/342/5 387/338/5 388/340/5
f 390/341/6 385/338/6 392/342/6
f 392/342/6 385/338/6 387/340/6
o LeftUpperLeg
usemtl c_9fa1ac
f 393/343/1 394/57/1 395/344/1
f 395/344/1 394/57/1 396/345/1
f 397/56/7 394/57/7 398/346/7
f 398/346/7 394/57/7 393/347/7
f 394/56/8 397/57/8 396/348/8
f 396/348/8 397/57/8 399/345/8
f 397/343/4 398/57/4 399/344/4
f 399/344/4 398/57/4 400/345/4
f 400/56/9 395/57/9 399/346/9
f 399/346/9 395/57/9 396/347/9
f 398/56/10 393/57/10 400/348/10
f 400/348/10 393/57/10 395/345/10
f 401/20/1 402/349/1 403/350/1
f 403/350/1 402/349/1 404/351/1
f 405/301/7 402/349/7 406/352/7
f 406/352/7 402/349/7 401/150/7
f 402/301/8 405/349/8 404/353/8
f 404/353/8 405/349/8 407/351/8
f 405/20/4 406/349/4 407/350/4
f 407/350/4 406/349/4 408/351/4
f 408/301/9 403/349/9 407/352/9
f 407/352/9 403/349/9 404/150/9
f 406/301/10 401/349/10 408/353/10
f 408/353/10 401/349/10 403/351/10
usemtl c_ff0000
f 409/354/1 410/355/1 411/356/1
f 411/356/1 410/355/1 412/357/1
f 413/358/7 410/355/7 414/359/7
f 414/359/7 410/355/7 409/360/7
f 410/358/8 413/355/8 412/361/8
f 412/361/8 413/355/8 415/357/8
f 413/354/4 414/355/4 415/356/4
f 415/356/4 414/355/4 416/357/4
f 416/358/9 411/355/9 415/359/9
f 415/359/9 411/355/9 412/360/9
f 414/358/10 409/355/10 416/361/10
f 416/361/10 409/355/10 411/357/10
usemtl c_1b2a35
f 417/362/1 418/363/1 419/364/1
f 419/364/1 418/363/1 420/365/1
f 421/366/7 418/363/7 422/367/7
f 422/367/7 418/363/7 417/368/7
f 418/366/8 421/363/8 420/369/8
f 420/369/8 421/363/8 423/365/8
f 421/362/4 422/363/4 423/364/4
f 423/364/4 422/363/4 424/365/4
f 424/366/9 419/363/9 423/367/9
f 423/367/9 419/363/9 420/368/9
f 422/366/10 417/363/10 424/369/10
f 424/369/10 417/363/10 419/365/10
o LowerTorso
usemtl c_1b2a35
f 425/370/1 426/371/1 427/372/1
f 427/372/1 426/371/1 428/191/1
f 429/370/11 426/371/11 430/373/11
f 430/373/11 426/371/11 425/374/11
f 426/370/12 429/371/12 428/372/12
f 428/372/12 429/371/12 431/191/12
f 429/370/4 430/371/4 431/372/4
f 431/372/4 430/371/4 432/191/4
f 432/370/13 427/371/13 431/373/13
f 431/373/13 427/371/13 428/374/13
f 430/370/14 425/371/14 432/372/14
f 432/372/14 425/371/14 427/191/14
f 433/375/1 434/376/1 435/377/1
f 435/377/1 434/376/1 436/378/1
f 437/375/11 434/376/11 438/379/11
f 438/379/11 434/376/11 433/380/11
f 434/375/12 437/376/12 436/377/12
f 436/377/12 437/376/12 439/378/12
f 437/375/4 438/376/4 439/377/4
f 439/377/4 438/376/4 440/378/4
f 440/375/13 435/376/13 439/379/13
f 439/379/13 435/376/13 436/380/13
f 438/375/14 433/376/14 440/377/14
f 440/377/14 433/376/14 435/378/14
f 441/381/1 442/382/1 443/383/1
f 443/383/1 442/382/1 444/384/1
f 445/381/11 442/382/11 446/385/11
f 446/385/11 442/382/11 441/386/11
f 442/381/12 445/382/12 444/383/12
f 444/383/12 445/382/12 447/384/12
f 445/381/4 446/382/4 447/383/4
f 447/383/4 446/382/4 448/384/4
f 448/381/13 443/382/13 447/385/13
f 447/385/13 443/382/13 444/386/13
f 446/381/14 441/382/14 448/383/14
f 448/383/14 441/382/14 443/384/14
f 449/387/1 450/388/1 451/389/1
f 451/389/1 450/388/1 452/390/1
f 453/387/11 450/388/11 454/391/11
f 454/391/11 450/388/11 449/392/11
f 450/387/12 453/388/12 452/389/12
f 452/389/12 453/388/12 455/390/12
f 453/387/4 454/388/4 455/389/4
f 455/389/4 454/388/4 456/390/4
f 456/387/13 451/388/13 455/391/13
f 455/391/13 451/388/13 452/392/13
f 454/387/14 449/388/14 456/389/14
f 456/389/14 449/388/14 451/390/14
usemtl c_5b5d69
f 435/393/1 436/394/1 457/395/1
f 457/395/1 436/394/1 458/396/1
f 439/393/11 436/394/11 440/260/11
f 440/260/11 436/394/11 435/397/11
f 436/393/12 439/394/12 458/395/12
f 458/395/12 439/394/12 459/396/12
f 439/393/4 440/394/4 459/395/4
f 459/395/4 440/394/4 460/396/4
f 460/393/13 457/394/13 459/260/13
f 459/260/13 457/394/13 458/397/13
f 440/393/14 435/394/14 460/395/14
f 460/395/14 435/394/14 457/396/14
f 443/398/1 444/399/1 461/400/1
f 461/400/1 444/399/1 462/401/1
f 447/398/11 444/399/11 448/402/11
f 448/402/11 444/399/11 443/403/11
f 444/398/12 447/399/12 462/400/12
f 462/400/12 447/399/12 463/401/12
f 447/398/4 448/399/4 463/400/4
f 463/400/4 448/399/4 464/401/4
f 464/398/13 461/399/13 463/402/13
f 463/402/13 461/399/13 462/403/13
f 448/398/14 443/399/14 464/400/14
f 464/400/14 443/399/14 461/401/14
f 451/404/1 452/405/1 465/406/1
f 465/406/1 452/405/1 466/407/1
f 455/404/11 452/405/11 456/408/11
f 456/408/11 452/405/11 451/409/11
f 452/404/12 455/405/12 466/406/12
f 466/406/12 455/405/12 467/407/12
f 455/404/4 456/405/4 467/406/4
f 467/406/4 456/405/4 468/407/4
f 468/404/13 465/405/13 467/408/13
f 467/408/13 465/405/13 466/409/13
f 456/404/14 451/405/14 468/406/14
f 468/406/14 451/405/14 465/407/14
f 469/410/1 470/411/1 471/412/1
f 471/412/1 470/411/1 472/413/1
f 473/414/11 470/411/11 474/415/11
f 474/415/11 470/411/11 469/416/11
f 470/414/12 473/411/12 472/402/12
f 472/402/12 473/411/12 475/413/12
f 473/410/4 474/411/4 475/412/4
f 475/412/4 474/411/4 476/413/4
f 476/414/13 471/411/13 475/415/13
f 475/415/13 471/411/13 472/416/13
f 474/414/14 469/411/14 476/402/14
f 476/402/14 469/411/14 471/413/14
f 427/417/1 428/34/1 477/418/1
f 477/418/1 428/34/1 478/419/1
f 431/417/11 428/34/11 432/420/11
f 432/420/11 428/34/11 427/421/11
f 428/417/12 431/34/12 478/418/12
f 478/418/12 431/34/12 479/419/12
f 431/417/4 432/34/4 479/418/4
f 479/418/4 432/34/4 480/419/4
f 480/417/13 477/34/13 479/420/13
f 479/420/13 477/34/13 478/421/13
f 432/417/14 427/34/14 480/418/14
f 480/418/14 427/34/14 477/419/14
usemtl c_9fa1ac
f 481/422/1 482/423/1 469/424/1
f 469/424/1 482/423/1 470/425/1
f 483/426/11 482/423/11 484/427/11
f 484/427/11 482/423/11 481/428/11
f 482/426/12 483/423/12 470/429/12
f 470/429/12 483/423/12 473/425/12
f 483/422/4 484/423/4 473/424/4
f 473/424/4 484/423/4 474/425/4
f 474/426/13 469/423/13 473/427/13
f 473/427/13 469/423/13 470/428/13
f 484/426/14 481/423/14 474/429/14
f 474/429/14 481/423/14 469/425/14
usemtl c_ff0000
f 485/430/1 486/431/1 487/432/1
f 487/432/1 486/431/1 488/433/1
f 489/430/11 486/431/11 490/434/11
f 490/434/11 486/431/11 485/435/11
f 486/430/12 489/431/12 488/432/12
f 488/432/12 489/431/12 491/433/12
f 489/430/4 490/431/4 491/432/4
f 491/432/4 490/431/4 492/433/4
f 492/430/13 487/431/13 491/434/13
f 491/434/13 487/431/13 488/435/13
f 490/430/14 485/431/14 492/432/14
f 492/432/14 485/431/14 487/433/14
f 493/436/1 494/437/1 495/438/1
f 495/438/1 494/437/1 496/439/1
f 497/436/11 494/437/11 498/440/11
f 498/440/11 494/437/11 493/441/11
f 494/436/12 497/437/12 496/438/12
f 496/438/12 497/437/12 499/439/12
f 497/436/4 498/437/4 499/438/4
f 499/438/4 498/437/4 500/439/4
f 500/436/13 495/437/13 499/440/13
f 499/440/13 495/437/13 496/441/13
f 498/436/14 493/437/14 500/438/14
f 500/438/14 493/437/14 495/439/14
f 501/114/1 502/442/1 503/443/1
f 503/443/1 502/442/1 504/444/1
f 505/114/11 502/442/11 506/445/11
f 506/445/11 502/442/11 501/446/11
f 502/114/12 505/442/12 504/443/12
f 504/443/12 505/442/12 507/444/12
f 505/114/4 506/442/4 507/443/4
f 507/443/4 506/442/4 508/444/4
f 508/114/13 503/442/13 507/445/13
f 507/445/13 503/442/13 504/446/13
f 506/114/14 501/442/14 508/443/14
f 508/443/14 501/442/14 503/444/14
f 509/447/1 510/448/1 511/449/1
f 511/449/1 510/448/1 512/261/1
f 513/447/11 510/448/11 514/450/11
f 514/450/11 510/448/11 509/451/11
f 510/447/12 513/448/12 512/449/12
f 512/449/12 513/448/12 515/261/12
f 513/447/4 514/448/4 515/449/4
f 515/449/4 514/448/4 516/261/4
f 516/447/13 511/448/13 515/450/13
f 515/450/13 511/448/13 512/451/13
f 514/447/14 509/448/14 516/449/14
f 516/449/14 509/448/14 511/261/14
o RightLowerLeg
usemtl c_ff0000
f 517/452/1 518/384/1 519/453/1
f 519/453/1 518/384/1 520/386/1
f 521/423/7 518/384/7 522/454/7
f 522/454/7 518/384/7 517/386/7
f 518/423/8 521/384/8 520/454/8
f 520/454/8 521/384/8 523/386/8
f 521/452/4 522/384/4 523/453/4
f 523/453/4 522/384/4 524/386/4
f 524/423/9 519/384/9 523/454/9
f 523/454/9 519/384/9 520/386/9
f 522/423/10 517/384/10 524/454/10
f 524/454/10 517/384/10 519/386/10
usemtl c_1b2a35
f 525/455/1 526/456/1 527/457/1
f 527/457/1 526/456/1 528/458/1
f 529/459/7 526/456/7 530/460/7
f 530/460/7 526/456/7 525/461/7
f 526/459/8 529/456/8 528/462/8
f 528/462/8 529/456/8 531/458/8
f 529/455/4 530/456/4 531/457/4
f 531/457/4 530/456/4 532/458/4
f 532/459/9 527/456/9 531/460/9
f 531/460/9 527/456/9 528/461/9
f 530/459/10 525/456/10 532/462/10
f 532/462/10 525/456/10 527/458/10
usemtl c_9fa1ac
f 533/463/1 525/464/1 534/465/1
f 534/465/1 525/464/1 527/466/1
f 530/467/7 525/464/7 535/468/7
f 535/468/7 525/464/7 533/469/7
f 525/467/8 530/464/8 527/470/8
f 527/470/8 530/464/8 532/466/8
f 530/463/4 535/464/4 532/465/4
f 532/465/4 535/464/4 536/466/4
f 536/467/9 534/464/9 532/468/9
f 532/468/9 534/464/9 527/469/9
f 535/467/10 533/464/10 536/470/10
f 536/470/10 533/464/10 534/466/10
o Head
usemtl c_5b5d69
f 537/471/1 538/472/1 539/473/1
f 539/473/1 538/472/1 540/474/1
f 541/471/2 538/472/2 542/216/2
f 542/216/2 538/472/2 537/475/2
f 538/471/3 541/472/3 540/473/3
f 540/473/3 541/472/3 543/474/3
f 541/471/4 542/472/4 543/473/4
f 543/473/4 542/472/4 544/474/4
f 544/471/5 539/472/5 543/216/5
f 543/216/5 539/472/5 540/475/5
f 542/471/6 537/472/6 544/473/6
f 544/473/6 537/472/6 539/474/6
f 545/476/1 546/291/1 547/477/1
f 547/477/1 546/291/1 548/478/1
f 549/479/2 546/291/2 550/480/2
f 550/480/2 546/291/2 545/481/2
f 546/479/3 549/291/3 548/482/3
f 548/482/3 549/291/3 551/478/3
f 549/476/4 550/291/4 551/477/4
f 551/477/4 550/291/4 552/478/4
f 552/479/5 547/291/5 551/480/5
f 551/480/5 547/291/5 548/481/5
f 550/479/6 545/291/6 552/482/6
f 552/482/6 545/291/6 547/478/6
f 553/352/1 554/483/1 540/484/1
f 540/484/1 554/483/1 555/485/1
f 556/486/2 554/483/2 557/487/2
f 557/487/2 554/483/2 553/488/2
f 554/486/3 556/483/3 555/489/3
f 555/489/3 556/483/3 558/485/3
f 556/352/4 557/483/4 558/484/4
f 558/484/4 557/483/4 559/485/4
f 559/486/5 540/483/5 558/487/5
f 558/487/5 540/483/5 555/488/5
f 557/486/6 553/483/6 559/489/6
f 559/489/6 553/483/6 540/485/6
f 560/73/1 561/490/1 552/491/1
f 552/491/1 561/490/1 551/492/1
f 562/73/2 561/490/2 563/493/2
f 563/493/2 561/490/2 560/494/2
f 561/73/3 562/490/3 551/491/3
f 551/491/3 562/490/3 564/492/3
f 562/73/4 563/490/4 564/491/4
f 564/491/4 563/490/4 565/492/4
f 565/73/5 552/490/5 564/493/5
f 564/493/5 552/490/5 551/494/5
f 563/73/6 560/490/6 565/491/6
f 565/491/6 560/490/6 552/492/6
f 546/495/1 566/496/1 548/497/1
f 548/497/1 566/496/1 567/498/1
f 568/499/2 566/496/2 569/500/2
f 569/500/2 566/496/2 546/501/2
f 566/499/3 568/496/3 567/502/3
f 567/502/3 568/496/3 570/498/3
f 568/495/4 569/496/4 570/497/4
f 570/497/4 569/496/4 564/498/4
f 564/499/5 548/496/5 570/500/5
f 570/500/5 548/496/5 567/501/5
f 569/499/6 546/496/6 564/502/6
f 564/502/6 546/496/6 548/498/6
f 571/503/1 572/504/1 544/505/1
f 544/505/1 572/504/1 543/506/1
f 557/375/2 572/504/2 573/377/2
f 573/377/2 572/504/2 571/332/2
f 572/375/3 557/504/3 543/379/3
f 543/379/3 557/504/3 559/506/3
f 557/503/4 573/504/4 559/505/4
f 559/505/4 573/504/4 574/506/4
f 574/375/5 544/504/5 559/377/5
f 559/377/5 544/504/5 543/332/5
f 573/375/6 571/504/6 574/379/6
f 574/379/6 571/504/6 544/506/6
usemtl c_9fa1ac
f 573/507/1 556/508/1 574/509/1
f 574/509/1 556/508/1 558/510/1
f 566/511/2 556/508/2 545/512/2
f 545/512/2 556/508/2 573/510/2
f 556/511/3 566/508/3 558/512/3
f 558/512/3 566/508/3 567/510/3
f 566/507/4 545/508/4 567/509/4
f 567/509/4 545/508/4 547/510/4
f 547/511/5 574/508/5 567/512/5
f 567/512/5 574/508/5 558/510/5
f 545/511/6 573/508/6 547/512/6
f 547/512/6 573/508/6 574/510/6
f 575/513/1 576/514/1 577/515/1
f 577/515/1 576/514/1 578/516/1
f 579/240/2 576/514/2 580/517/2
f 580/517/2 576/514/2 575/516/2
f 576/240/3 579/514/3 578/517/3
f 578/517/3 579/514/3 581/516/3
f 579/513/4 580/514/4 581/515/4
f 581/515/4 580/514/4 582/516/4
f 582/240/5 577/514/5 581/517/5
f 581/517/5 577/514/5 578/516/5
f 580/240/6 575/514/6 582/517/6
f 582/517/6 575/514/6 577/516/6
f 583/518/1 584/519/1 585/520/1
f 585/520/1 584/519/1 586/388/1
f 587/209/2 584/519/2 588/521/2
f 588/521/2 584/519/2 583/392/2
f 584/209/3 587/519/3 586/213/3
f 586/213/3 587/519/3 589/388/3
f 587/518/4 588/519/4 589/520/4
f 589/520/4 588/519/4 590/388/4
f 590/209/5 585/519/5 589/521/5
f 589/521/5 585/519/5 586/392/5
f 588/209/6 583/519/6 590/213/6
f 590/213/6 583/519/6 585/388/6
f 591/522/1 592/251/1 593/523/1
f 593/523/1 592/251/1 594/524/1
f 595/525/2 592/251/2 596/526/2
f 596/526/2 592/251/2 591/524/2
f 592/525/3 595/251/3 594/526/3
f 594/526/3 595/251/3 597/524/3
f 595/522/4 596/251/4 597/523/4
f 597/523/4 596/251/4 598/524/4
f 598/525/5 593/251/5 597/526/5
f 597/526/5 593/251/5 594/524/5
f 596/525/6 591/251/6 598/526/6
f 598/526/6 591/251/6 593/524/6
f 554/527/1 599/528/1 555/529/1
f 555/529/1 599/528/1 600/530/1
f 601/531/2 599/528/2 568/532/2
f 568/532/2 599/528/2 554/530/2
f 599/531/3 601/528/3 600/532/3
f 600/532/3 601/528/3 602/530/3
f 601/527/4 568/528/4 602/529/4
f 602/529/4 568/528/4 570/530/4
f 570/531/5 555/528/5 602/532/5
f 602/532/5 555/528/5 600/530/5
f 568/531/6 554/528/6 570/532/6
f 570/532/6 554/528/6 555/530/6
f 603/533/1 604/534/1 599/535/1
f 599/535/1 604/534/1 591/536/1
f 605/104/2 604/534/2 606/537/2
f 606/537/2 604/534/2 603/538/2
f 604/104/3 605/534/3 591/106/3
f 591/106/3 605/534/3 596/536/3
f 605/533/4 606/534/4 596/535/4
f 596/535/4 606/534/4 601/536/4
f 601/104/5 599/534/5 596/537/5
f 596/537/5 599/534/5 591/538/5
f 606/104/6 603/534/6 601/106/6
f 601/106/6 603/534/6 599/536/6
f 539/539/1 607/540/1 608/541/1
f 608/541/1 607/540/1 593/542/1
f 609/543/2 607/540/2 565/544/2
f 565/544/2 607/540/2 539/54/2
f 607/543/3 609/540/3 593/545/3
f 593/545/3 609/540/3 598/542/3
f 609/539/4 565/540/4 598/541/4
f 598/541/4 565/540/4 610/542/4
f 610/543/5 608/540/5 598/544/5
f 598/544/5 608/540/5 593/54/5
f 565/543/6 539/540/6 610/545/6
f 610/545/6 539/540/6 608/542/6
usemtl c_1b2a35
f 611/546/1 612/437/1 591/547/1
f 591/547/1 612/437/1 592/548/1
f 613/549/2 612/437/2 614/550/2
f 614/550/2 612/437/2 611/551/2
f 612/549/3 613/437/3 592/552/3
f 592/552/3 613/437/3 586/548/3
f 613/546/4 614/437/4 586/547/4
f 586/547/4 614/437/4 585/548/4
f 585/549/5 591/437/5 586/550/5
f 586/550/5 591/437/5 592/551/5
f 614/549/6 611/437/6 585/552/6
f 585/552/6 611/437/6 591/548/6
f 615/553/1 616/442/1 590/554/1
f 590/554/1 616/442/1 589/555/1
f 617/556/2 616/442/2 618/557/2
f 618/557/2 616/442/2 615/558/2
f 616/556/3 617/442/3 589/559/3
f 589/559/3 617/442/3 595/555/3
f 617/553/4 618/442/4 595/554/4
f 595/554/4 618/442/4 596/555/4
f 596/556/5 590/442/5 595/557/5
f 595/557/5 590/442/5 589/558/5
f 618/556/6 615/442/6 596/559/6
f 596/559/6 615/442/6 590/555/6
f 550/2/1 549/560/1 560/561/1
f 560/561/1 549/560/1 561/562/1
f 569/2/2 549/560/2 619/561/2
f 619/561/2 549/560/2 550/562/2
f 549/2/3 569/560/3 561/561/3
f 561/561/3 569/560/3 562/562/3
f 569/2/4 619/560/4 562/561/4
f 562/561/4 619/560/4 563/562/4
f 563/2/5 560/560/5 562/561/5
f 562/561/5 560/560/5 561/562/5
f 619/2/6 550/560/6 563/561/6
f 563/561/6 550/560/6 560/562/6
f 620/563/1 553/564/1 537/565/1
f 537/565/1 553/564/1 538/566/1
f 572/563/2 553/564/2 571/565/2
f 571/565/2 553/564/2 620/566/2
f 553/563/3 572/564/3 538/565/3
f 538/565/3 572/564/3 541/566/3
f 572/563/4 571/564/4 541/565/4
f 541/565/4 571/564/4 542/566/4
f 542/563/5 537/564/5 541/565/5
f 541/565/5 537/564/5 538/566/5
f 571/563/6 620/564/6 542/565/6
f 542/565/6 620/564/6 537/566/6
f 599/567/1 591/568/1 600/569/1
f 600/569/1 591/568/1 607/570/1
f 596/37/2 591/568/2 601/571/2
f 601/571/2 591/568/2 599/570/2
f 591/37/3 596/568/3 607/571/3
f 607/571/3 596/568/3 609/570/3
f 596/567/4 601/568/4 609/569/4
f 609/569/4 601/568/4 602/570/4
f 602/37/5 600/568/5 609/571/5
f 609/571/5 600/568/5 607/570/5
f 601/37/6 599/568/6 602/571/6
f 602/571/6 599/568/6 600/570/6
o Head_decal1
usemtl head_decal1
f 621/572/1 622/573/1 623/574/1
f 623/574/1 622/573/1 624/575/1
o Head_decal2
usemtl head_decal2
f 625/572/4 626/573/4 627/574/4
f 627/574/4 626/573/4 628/575/4
o RightUpperArm
usemtl c_1b2a35
f 629/456/1 630/576/1 631/577/1
f 631/577/1 630/576/1 632/578/1
f 633/579/2 630/576/2 634/580/2
f 634/580/2 630/576/2 629/578/2
f 630/579/3 633/576/3 632/580/3
f 632/580/3 633/576/3 635/578/3
f 633/456/4 634/576/4 635/577/4
f 635/577/4 634/576/4 636/578/4
f 636/579/5 631/576/5 635/580/5
f 635/580/5 631/576/5 632/578/5
f 634/579/6 629/576/6 636/580/6
f 636/580/6 629/576/6 631/578/6
usemtl c_9fa1ac
f 637/581/1 638/582/1 639/583/1
f 639/583/1 638/582/1 640/291/1
f 641/584/2 638/582/2 642/585/2
f 642/585/2 638/582/2 637/291/2
f 638/584/3 641/582/3 640/585/3
f 640/585/3 641/582/3 643/291/3
f 641/581/4 642/582/4 643/583/4
f 643/583/4 642/582/4 644/291/4
f 644/584/5 639/582/5 643/585/5
f 643/585/5 639/582/5 640/291/5
f 642/584/6 637/582/6 644/585/6
f 644/585/6 637/582/6 639/291/6
usemtl c_ff0000
f 645/586/1 646/587/1 647/588/1
f 647/588/1 646/587/1 648/589/1
f 649/446/2 646/587/2 650/558/2
f 650/558/2 646/587/2 645/590/2
f 646/446/3 649/587/3 648/555/3
f 648/555/3 649/587/3 651/589/3
f 649/586/4 650/587/4 651/588/4
f 651/588/4 650/587/4 652/589/4
f 652/446/5 647/587/5 651/558/5
f 651/558/5 647/587/5 648/590/5
f 650/446/6 645/587/6 652/555/6
f 652/555/6 645/587/6 647/589/6
o Mouth
usemtl c_ff0000
f 653/591/1 654/592/1 655/593/1
f 655/593/1 654/592/1 656/594/1
f 657/595/2 654/592/2 658/596/2
f 658/596/2 654/592/2 653/597/2
f 654/595/3 657/592/3 656/598/3
f 656/598/3 657/592/3 659/594/3
f 657/591/4 658/592/4 659/593/4
f 659/593/4 658/592/4 660/594/4
f 660/595/5 655/592/5 659/596/5
f 659/596/5 655/592/5 656/597/5
f 658/595/6 653/592/6 660/598/6
f 660/598/6 653/592/6 655/594/6
f 661/599/1 656/600/1 662/601/1
f 662/601/1 656/600/1 663/90/1
f 659/602/2 656/600/2 664/603/2
f 664/603/2 656/600/2 661/604/2
f 656/602/3 659/600/3 663/605/3
f 663/605/3 659/600/3 665/90/3
f 659/599/4 664/600/4 665/601/4
f 665/601/4 664/600/4 666/90/4
f 666/602/5 662/600/5 665/603/5
f 665/603/5 662/600/5 663/604/5
f 664/602/6 661/600/6 666/605/6
f 666/605/6 661/600/6 662/90/6
usemtl c_1b2a35
f 667/366/1 668/606/1 669/367/1
f 669/367/1 668/606/1 670/607/1
f 671/608/2 668/606/2 672/609/2
f 672/609/2 668/606/2 667/610/2
f 668/608/3 671/606/3 670/611/3
f 670/611/3 671/606/3 673/607/3
f 671/366/4 672/606/4 673/367/4
f 673/367/4 672/606/4 674/607/4
f 674/608/5 669/606/5 673/609/5
f 673/609/5 669/606/5 670/610/5
f 672/608/6 667/606/6 674/611/6
f 674/611/6 667/606/6 669/607/6
o Tail
usemtl c_1b2a35
f 675/612/1 676/613/1 677/614/1
f 677/614/1 676/613/1 678/615/1
f 679/390/11 676/613/11 680/616/11
f 680/616/11 676/613/11 675/615/11
f 676/390/12 679/613/12 678/616/12
f 678/616/12 679/613/12 681/615/12
f 679/612/4 680/613/4 681/614/4
f 681/614/4 680/613/4 682/615/4
f 682/390/13 677/613/13 681/616/13
f 681/616/13 677/613/13 678/615/13
f 680/390/14 675/613/14 682/616/14
f 682/616/14 675/613/14 677/615/14
f 683/617/1 684/618/1 685/619/1
f 685/619/1 684/618/1 686/620/1
f 687/621/11 684/618/11 688/622/11
f 688/622/11 684/618/11 683/623/11
f 684/621/12 687/618/12 686/624/12
f 686/624/12 687/618/12 689/620/12
f 687/617/4 688/618/4 689/619/4
f 689/619/4 688/618/4 690/620/4
f 690/621/13 685/618/13 689/622/13
f 689/622/13 685/618/13 686/623/13
f 688/621/14 683/618/14 690/624/14
f 690/624/14 683/618/14 685/620/14
f 691/625/1 692/626/1 693/627/1
f 693/627/1 692/626/1 694/628/1
f 695/625/11 692/626/11 696/627/11
f 696/627/11 692/626/11 691/628/11
f 692/625/12 695/626/12 694/627/12
f 694/627/12 695/626/12 697/628/12
f 695/625/4 696/626/4 697/627/4
f 697/627/4 696/626/4 698/628/4
f 698/625/13 693/626/13 697/627/13
f 697/627/13 693/626/13 694/628/13
f 696/625/14 691/626/14 698/627/14
f 698/627/14 691/626/14 693/628/14
usemtl c_9fa1ac
f 699/629/1 700/630/1 701/631/1
f 701/631/1 700/630/1 702/632/1
f 703/257/11 700/630/11 704/633/11
f 704/633/11 700/630/11 699/634/11
f 700/257/12 703/630/12 702/255/12
f 702/255/12 703/630/12 705/632/12
f 703/629/4 704/630/4 705/631/4
f 705/631/4 704/630/4 706/632/4
f 706/257/13 701/630/13 705/633/13
f 705/633/13 701/630/13 702/634/13
f 704/257/14 699/630/14 706/255/14
f 706/255/14 699/630/14 701/632/14
f 707/635/1 708/636/1 709/249/1
f 709/249/1 708/636/1 710/637/1
f 711/638/11 708/636/11 712/246/11
f 712/246/11 708/636/11 707/411/11
f 708/638/12 711/636/12 710/248/12
f 710/248/12 711/636/12 713/637/12
f 711/635/4 712/636/4 713/249/4
f 713/249/4 712/636/4 714/637/4
f 714/638/13 709/636/13 713/246/13
f 713/246/13 709/636/13 710/411/13
f 712/638/14 707/636/14 714/248/14
f 714/248/14 707/636/14 709/637/14
f 715/639/1 716/104/1 717/640/1
f 717/640/1 716/104/1 718/641/1
f 719/642/11 716/104/11 720/643/11
f 720/643/11 716/104/11 715/644/11
f 716/642/12 719/104/12 718/645/12
f 718/645/12 719/104/12 721/641/12
f 719/639/4 720/104/4 721/640/4
f 721/640/4 720/104/4 722/641/4
f 722/642/13 717/104/13 721/643/13
f 721/643/13 717/104/13 718/644/13
f 720/642/14 715/104/14 722/645/14
f 722/645/14 715/104/14 717/641/14
f 723/503/1 724/504/1 725/646/1
f 725/646/1 724/504/1 726/647/1
f 727/648/11 724/504/11 728/649/11
f 728/649/11 724/504/11 723/332/11
f 724/648/12 727/504/12 726/650/12
f 726/650/12 727/504/12 729/647/12
f 727/503/4 728/504/4 729/646/4
f 729/646/4 728/504/4 730/647/4
f 730/648/13 725/504/13 729/649/13
f 729/649/13 725/504/13 726/332/13
f 728/648/14 723/504/14 730/650/14
f 730/650/14 723/504/14 725/647/14
usemtl c_ff0000
f 731/651/1 732/652/1 733/653/1
f 733/653/1 732/652/1 734/654/1
f 735/80/11 732/652/11 736/655/11
f 736/655/11 732/652/11 731/656/11
f 732/80/12 735/652/12 734/657/12
f 734/657/12 735/652/12 737/654/12
f 735/651/4 736/652/4 737/653/4
f 737/653/4 736/652/4 738/654/4
f 738/80/13 733/652/13 737/655/13
f 737/655/13 733/652/13 734/656/13
f 736/80/14 731/652/14 738/657/14
f 738/657/14 731/652/14 733/654/14
