# Roblox asset pack: obby_block_blue_studs (map). Exported from Roblox Studio with Export Selection, then split/renamed/re-centred by tools/process_export.py. Units: studs (1 stud = 1 unit). +Y up. Pivot (bottom_centre) at the origin.
mtllib obby_block_blue_studs.mtl

v 2.00000 1.00000 -2.00000
v 2.00000 1.00000 2.00000
v 2.00000 0.00000 -2.00000
v 2.00000 0.00000 2.00000
v -2.00000 1.00000 2.00000
v -2.00000 0.00000 2.00000
v -2.00000 1.00000 -2.00000
v -2.00000 0.00000 -2.00000
vt 4.25000 -5.25000
vt 3.75000 -5.25000
vt 4.25000 -5.37500
vt 3.75000 -5.37500
vt 0.00000 4.00000
vt 4.00000 4.00000
vt 0.00000 0.00000
vt 4.00000 0.00000
vn 1.0000 0.0000 0.0000
vn 0.0000 0.0000 1.0000
vn -1.0000 0.0000 0.0000
vn 0.0000 0.0000 -1.0000
vn 0.0000 1.0000 0.0000
vn 0.0000 -1.0000 0.0000

o Block
usemtl block
f 1/1/1 2/2/1 3/3/1
f 3/3/1 2/2/1 4/4/1
f 2/1/2 5/2/2 4/3/2
f 4/3/2 5/2/2 6/4/2
f 5/1/3 7/2/3 6/3/3
f 6/3/3 7/2/3 8/4/3
f 7/1/4 1/2/4 8/3/4
f 8/3/4 1/2/4 3/4/4
usemtl block_studs
f 5/5/5 2/6/5 7/7/5
f 7/7/5 2/6/5 1/8/5
usemtl block_inlet
f 8/7/6 3/8/6 6/5/6
f 6/5/6 3/8/6 4/6/6
