# Roblox asset pack: egg_tregina (props), from the Studio model "TRegina". Exported with Export Selection, split by tools/build_creatures.py: one object per rigid body. Units: studs. +Y up, front faces -Z, pivot (bottom centre) at the origin.
mtllib egg_tregina.mtl

v -2.36819 2.58000 0.00000
v 2.36819 2.58000 0.00000
v -2.36819 0.86000 0.00000
v 2.36819 0.86000 0.00000
v 2.36819 2.58000 1.72000
v -2.36819 2.58000 1.72000
v 2.36819 0.86000 1.72000
v -2.36819 0.86000 1.72000
v -1.72232 2.58000 -2.37000
v 1.72232 2.58000 -2.37000
v -1.72232 0.86000 -2.37000
v 1.72232 0.86000 -2.37000
v 1.72232 2.58000 2.37000
v -1.72232 2.58000 2.37000
v 1.72232 0.86000 2.37000
v -1.72232 0.86000 2.37000
v -2.36819 4.31000 -1.72000
v 2.36819 4.31000 -1.72000
v -2.36819 2.58000 -1.72000
v 2.36819 2.58000 -1.72000
v 2.36819 4.31000 0.00000
v -2.36819 4.31000 0.00000
v 2.36819 4.31000 1.72000
v -2.36819 4.31000 1.72000
v -0.00001 4.31000 -2.37000
v 1.72230 4.31000 -2.37000
v -0.00001 2.58000 -2.37000
v 1.72230 2.58000 -2.37000
v 1.72230 4.31000 2.37000
v -0.00001 4.31000 2.37000
v 1.72230 2.58000 2.37000
v -0.00001 2.58000 2.37000
v -1.72232 6.03000 -1.72000
v 1.72232 6.03000 -1.72000
v -1.72232 0.00000 -1.72000
v 1.72232 0.00000 -1.72000
v 1.72232 6.03000 1.72000
v -1.72232 6.03000 1.72000
v 1.72232 0.00000 1.72000
v -1.72232 0.00000 1.72000
v -2.36819 0.86000 -1.72000
v 2.36819 0.86000 -1.72000
v -1.72230 4.31000 -2.37000
v 0.00001 4.31000 -2.37000
v -1.72230 2.58000 -2.37000
v 0.00001 2.58000 -2.37000
v 0.00001 4.31000 2.37000
v -1.72230 4.31000 2.37000
v 0.00001 2.58000 2.37000
v -1.72230 2.58000 2.37000
v -1.29174 7.32000 -1.29000
v 1.29174 7.32000 -1.29000
v -1.29174 6.03000 -1.29000
v 1.29174 6.03000 -1.29000
v 1.29174 7.32000 1.29000
v -1.29174 7.32000 1.29000
v 1.29174 6.03000 1.29000
v -1.29174 6.03000 1.29000
vt 2.59205 -6.25000
vt 2.00000 -6.25000
vt 2.59205 -6.46529
vt 2.00000 -6.46529
vt 2.21529 -6.25000
vt 2.21529 -6.84205
vt 2.00000 -6.84205
vt 2.21529 -6.46529
vt 0.43058 -5.75000
vt 0.00000 -5.75000
vt 0.43058 -5.96529
vt 0.00000 -5.96529
vt 0.59205 -5.75000
vt 0.59205 -6.18058
vt 0.00000 -6.18058
vt 0.59205 -5.96529
vt 8.34205 -2.00000
vt 7.75000 -2.00000
vt 8.34205 -2.21529
vt 7.75000 -2.21529
vt 7.96529 -2.00000
vt 7.96529 -2.59205
vt 7.75000 -2.59205
vt 7.96529 -2.21529
vt 4.84205 -5.00000
vt 4.25000 -5.00000
vt 4.84205 -5.21529
vt 4.25000 -5.21529
vt 4.46529 -5.00000
vt 4.46529 -5.59205
vt 4.25000 -5.59205
vt 4.46529 -5.21529
vt 0.96529 0.50000
vt 0.75000 0.50000
vt 0.96529 0.28471
vt 0.75000 0.28471
vt 1.34205 0.50000
vt 1.34205 0.28471
vt 6.68058 -0.25000
vt 6.25000 -0.25000
vt 6.68058 -1.00351
vt 6.25000 -1.00351
vt 6.68058 -0.68058
vt 6.25000 -0.68058
vt 6.34205 0.50000
vt 5.75000 0.50000
vt 6.34205 0.28471
vt 5.75000 0.28471
vt 5.96529 0.50000
vt 5.96529 -0.09205
vt 5.75000 -0.09205
vt 5.96529 0.28471
vt 7.96529 -4.50000
vt 7.75000 -4.50000
vt 7.96529 -4.71529
vt 7.75000 -4.71529
vt 8.34205 -4.50000
vt 8.34205 -4.71529
vt 2.57293 -6.00000
vt 2.25000 -6.00000
vt 2.57293 -6.16147
vt 2.25000 -6.16147
vt 2.57293 -6.32294
vt 2.25000 -6.32294
vn 0.0000 0.0000 -1.0000
vn 0.0000 1.0000 0.0000
vn 1.0000 0.0000 0.0000
vn 0.0000 0.0000 1.0000
vn 0.0000 -1.0000 0.0000
vn -1.0000 0.0000 0.0000

o egg_tregina
usemtl c_a4bd47
f 1/1/1 2/2/1 3/3/1
f 3/3/1 2/2/1 4/4/1
f 5/5/2 2/2/2 6/6/2
f 6/6/2 2/2/2 1/7/2
f 2/5/3 5/2/3 4/8/3
f 4/8/3 5/2/3 7/4/3
f 5/1/4 6/2/4 7/3/4
f 7/3/4 6/2/4 8/4/4
f 8/5/5 3/2/5 7/6/5
f 7/6/5 3/2/5 4/7/5
f 6/5/6 1/2/6 8/8/6
f 8/8/6 1/2/6 3/4/6
f 9/9/1 10/10/1 11/11/1
f 11/11/1 10/10/1 12/12/1
f 13/13/2 10/10/2 14/14/2
f 14/14/2 10/10/2 9/15/2
f 10/13/3 13/10/3 12/16/3
f 12/16/3 13/10/3 15/12/3
f 13/9/4 14/10/4 15/11/4
f 15/11/4 14/10/4 16/12/4
f 16/13/5 11/10/5 15/14/5
f 15/14/5 11/10/5 12/15/5
f 14/13/6 9/10/6 16/16/6
f 16/16/6 9/10/6 11/12/6
f 17/17/1 18/18/1 19/19/1
f 19/19/1 18/18/1 20/20/1
f 21/21/2 18/18/2 22/22/2
f 22/22/2 18/18/2 17/23/2
f 18/21/3 21/18/3 20/24/3
f 20/24/3 21/18/3 2/20/3
f 21/17/4 22/18/4 2/19/4
f 2/19/4 22/18/4 1/20/4
f 1/21/5 19/18/5 2/22/5
f 2/22/5 19/18/5 20/23/5
f 22/21/6 17/18/6 1/24/6
f 1/24/6 17/18/6 19/20/6
f 22/25/1 21/26/1 1/27/1
f 1/27/1 21/26/1 2/28/1
f 23/29/2 21/26/2 24/30/2
f 24/30/2 21/26/2 22/31/2
f 21/29/3 23/26/3 2/32/3
f 2/32/3 23/26/3 5/28/3
f 23/25/4 24/26/4 5/27/4
f 5/27/4 24/26/4 6/28/4
f 6/29/5 1/26/5 5/30/5
f 5/30/5 1/26/5 2/31/5
f 24/29/6 22/26/6 6/32/6
f 6/32/6 22/26/6 1/28/6
f 25/33/1 26/34/1 27/35/1
f 27/35/1 26/34/1 28/36/1
f 29/37/2 26/34/2 30/38/2
f 30/38/2 26/34/2 25/36/2
f 26/37/3 29/34/3 28/38/3
f 28/38/3 29/34/3 31/36/3
f 29/33/4 30/34/4 31/35/4
f 31/35/4 30/34/4 32/36/4
f 32/37/5 27/34/5 31/38/5
f 31/38/5 27/34/5 28/36/5
f 30/37/6 25/34/6 32/38/6
f 32/38/6 25/34/6 27/36/6
usemtl c_fdea8d
f 33/39/1 34/40/1 35/41/1
f 35/41/1 34/40/1 36/42/1
f 37/39/2 34/40/2 38/43/2
f 38/43/2 34/40/2 33/44/2
f 34/39/3 37/40/3 36/41/3
f 36/41/3 37/40/3 39/42/3
f 37/39/4 38/40/4 39/41/4
f 39/41/4 38/40/4 40/42/4
f 40/39/5 35/40/5 39/43/5
f 39/43/5 35/40/5 36/44/5
f 38/39/6 33/40/6 40/41/6
f 40/41/6 33/40/6 35/42/6
usemtl c_ff5959
f 19/45/1 20/46/1 41/47/1
f 41/47/1 20/46/1 42/48/1
f 2/49/2 20/46/2 1/50/2
f 1/50/2 20/46/2 19/51/2
f 20/49/3 2/46/3 42/52/3
f 42/52/3 2/46/3 4/48/3
f 2/45/4 1/46/4 4/47/4
f 4/47/4 1/46/4 3/48/4
f 3/49/5 41/46/5 4/50/5
f 4/50/5 41/46/5 42/51/5
f 1/49/6 19/46/6 3/52/6
f 3/52/6 19/46/6 41/48/6
f 43/53/1 44/54/1 45/55/1
f 45/55/1 44/54/1 46/56/1
f 47/57/2 44/54/2 48/58/2
f 48/58/2 44/54/2 43/56/2
f 44/57/3 47/54/3 46/58/3
f 46/58/3 47/54/3 49/56/3
f 47/53/4 48/54/4 49/55/4
f 49/55/4 48/54/4 50/56/4
f 50/57/5 45/54/5 49/58/5
f 49/58/5 45/54/5 46/56/5
f 48/57/6 43/54/6 50/58/6
f 50/58/6 43/54/6 45/56/6
usemtl c_d7c59a
f 51/59/1 52/60/1 53/61/1
f 53/61/1 52/60/1 54/62/1
f 55/59/2 52/60/2 56/63/2
f 56/63/2 52/60/2 51/64/2
f 52/59/3 55/60/3 54/61/3
f 54/61/3 55/60/3 57/62/3
f 55/59/4 56/60/4 57/61/4
f 57/61/4 56/60/4 58/62/4
f 58/59/5 53/60/5 57/63/5
f 57/63/5 53/60/5 54/64/5
f 56/59/6 51/60/6 58/61/6
f 58/61/6 51/60/6 53/62/6
