# Roblox asset pack: egg_borealopelta (props), from the Studio model "Borealopelta". Exported with Export Selection, split by tools/build_creatures.py: one object per rigid body. Units: studs. +Y up, front faces -Z, pivot (bottom centre) at the origin.
mtllib egg_borealopelta.mtl

v -2.36820 2.58000 -1.72000
v 2.36820 2.58000 -1.72000
v -2.36820 0.86000 -1.72000
v 2.36820 0.86000 -1.72000
v 2.36820 2.58000 1.72000
v -2.36820 2.58000 1.72000
v 2.36820 0.86000 1.72000
v -2.36820 0.86000 1.72000
v -1.72230 2.58000 -2.37000
v 1.72230 2.58000 -2.37000
v -1.72230 0.86000 -2.37000
v 1.72230 0.86000 -2.37000
v 1.72230 2.58000 2.37000
v -1.72230 2.58000 2.37000
v 1.72230 0.86000 2.37000
v -1.72230 0.86000 2.37000
v -1.72230 5.17000 -1.72000
v 1.72230 5.17000 -1.72000
v -1.72230 0.00000 -1.72000
v 1.72230 0.00000 -1.72000
v 1.72230 5.17000 1.72000
v -1.72230 5.17000 1.72000
v 1.72230 0.00000 1.72000
v -1.72230 0.00000 1.72000
v -1.29170 6.24000 -1.29000
v 1.29170 6.24000 -1.29000
v -1.29170 5.17000 -1.29000
v 1.29170 5.17000 -1.29000
v 1.29170 6.24000 1.29000
v -1.29170 6.24000 1.29000
v 1.29170 5.17000 1.29000
v -1.29170 5.17000 1.29000
v -2.36820 4.31000 -1.72000
v 2.36820 4.31000 -1.72000
v 2.36820 4.31000 1.72000
v -2.36820 4.31000 1.72000
v -1.72230 4.31000 -2.37000
v 1.72230 4.31000 -2.37000
v 1.72230 4.31000 2.37000
v -1.72230 4.31000 2.37000
vt 4.09205 -2.75000
vt 3.50000 -2.75000
vt 4.09205 -2.96529
vt 3.50000 -2.96529
vt 3.93058 -2.75000
vt 3.93058 -3.34205
vt 3.50000 -3.34205
vt 3.93058 -2.96529
vt 2.43058 0.25000
vt 2.00000 0.25000
vt 2.43058 0.03471
vt 2.00000 0.03471
vt 2.59205 0.25000
vt 2.59205 -0.18058
vt 2.00000 -0.18058
vt 2.59205 0.03471
vt 7.93058 -6.75000
vt 7.50000 -6.75000
vt 7.93058 -7.39587
vt 7.50000 -7.39587
vt 7.93058 -7.18058
vt 7.50000 -7.18058
vt 8.07294 -6.25000
vt 7.75000 -6.25000
vt 8.07294 -6.38456
vt 7.75000 -6.38456
vt 8.07294 -6.57294
vt 7.75000 -6.57294
vt 4.84205 0.50000
vt 4.25000 0.50000
vt 4.84205 0.28471
vt 4.25000 0.28471
vt 4.68058 0.50000
vt 4.68058 -0.09205
vt 4.25000 -0.09205
vt 4.68058 0.28471
vt 1.68058 -3.00000
vt 1.25000 -3.00000
vt 1.68058 -3.21529
vt 1.25000 -3.21529
vt 1.84205 -3.00000
vt 1.84205 -3.43058
vt 1.25000 -3.43058
vt 1.84205 -3.21529
vn 0.0000 0.0000 -1.0000
vn 0.0000 1.0000 0.0000
vn 1.0000 0.0000 0.0000
vn 0.0000 0.0000 1.0000
vn 0.0000 -1.0000 0.0000
vn -1.0000 0.0000 0.0000

o egg_borealopelta
usemtl c_562424
f 1/1/1 2/2/1 3/3/1
f 3/3/1 2/2/1 4/4/1
f 5/5/2 2/2/2 6/6/2
f 6/6/2 2/2/2 1/7/2
f 2/5/3 5/2/3 4/8/3
f 4/8/3 5/2/3 7/4/3
f 5/1/4 6/2/4 7/3/4
f 7/3/4 6/2/4 8/4/4
f 8/5/5 3/2/5 7/6/5
f 7/6/5 3/2/5 4/7/5
f 6/5/6 1/2/6 8/8/6
f 8/8/6 1/2/6 3/4/6
f 9/9/1 10/10/1 11/11/1
f 11/11/1 10/10/1 12/12/1
f 13/13/2 10/10/2 14/14/2
f 14/14/2 10/10/2 9/15/2
f 10/13/3 13/10/3 12/16/3
f 12/16/3 13/10/3 15/12/3
f 13/9/4 14/10/4 15/11/4
f 15/11/4 14/10/4 16/12/4
f 16/13/5 11/10/5 15/14/5
f 15/14/5 11/10/5 12/15/5
f 14/13/6 9/10/6 16/16/6
f 16/16/6 9/10/6 11/12/6
usemtl c_a0844f
f 17/17/1 18/18/1 19/19/1
f 19/19/1 18/18/1 20/20/1
f 21/17/2 18/18/2 22/21/2
f 22/21/2 18/18/2 17/22/2
f 18/17/3 21/18/3 20/19/3
f 20/19/3 21/18/3 23/20/3
f 21/17/4 22/18/4 23/19/4
f 23/19/4 22/18/4 24/20/4
f 24/17/5 19/18/5 23/21/5
f 23/21/5 19/18/5 20/22/5
f 22/17/6 17/18/6 24/19/6
f 24/19/6 17/18/6 19/20/6
usemtl c_d3be96
f 25/23/1 26/24/1 27/25/1
f 27/25/1 26/24/1 28/26/1
f 29/23/2 26/24/2 30/27/2
f 30/27/2 26/24/2 25/28/2
f 26/23/3 29/24/3 28/25/3
f 28/25/3 29/24/3 31/26/3
f 29/23/4 30/24/4 31/25/4
f 31/25/4 30/24/4 32/26/4
f 32/23/5 27/24/5 31/27/5
f 31/27/5 27/24/5 28/28/5
f 30/23/6 25/24/6 32/25/6
f 32/25/6 25/24/6 27/26/6
usemtl c_ff9494
f 33/29/1 34/30/1 1/31/1
f 1/31/1 34/30/1 2/32/1
f 35/33/2 34/30/2 36/34/2
f 36/34/2 34/30/2 33/35/2
f 34/33/3 35/30/3 2/36/3
f 2/36/3 35/30/3 5/32/3
f 35/29/4 36/30/4 5/31/4
f 5/31/4 36/30/4 6/32/4
f 6/33/5 1/30/5 5/34/5
f 5/34/5 1/30/5 2/35/5
f 36/33/6 33/30/6 6/36/6
f 6/36/6 33/30/6 1/32/6
f 37/37/1 38/38/1 9/39/1
f 9/39/1 38/38/1 10/40/1
f 39/41/2 38/38/2 40/42/2
f 40/42/2 38/38/2 37/43/2
f 38/41/3 39/38/3 10/44/3
f 10/44/3 39/38/3 13/40/3
f 39/37/4 40/38/4 13/39/4
f 13/39/4 40/38/4 14/40/4
f 14/41/5 9/38/5 13/42/5
f 13/42/5 9/38/5 10/43/5
f 40/41/6 37/38/6 14/44/6
f 14/44/6 37/38/6 9/40/6
