# Roblox asset pack: animal_tiger (creatures), from the Studio model "Tiger". Exported with Export Selection, split by tools/build_creatures.py: one object per rigid body. Units: studs. +Y up, front faces -Z, pivot (bottom centre) at the origin.
mtllib animal_tiger.mtl

v 3.65900 3.54000 0.23000
v 3.40100 4.11000 -0.14000
v 3.40100 4.11000 0.14000
v 3.65900 3.54000 -0.23000
v 1.31500 0.41000 1.33000
v 1.12100 0.00000 1.33000
v 1.12100 0.00000 1.13000
v 1.31500 0.41000 1.13000
v 1.12100 0.00000 1.09000
v 1.31500 0.41000 1.09000
v 1.12100 0.00000 0.91000
v 1.31500 0.41000 0.91000
v 1.12100 0.00000 0.87000
v 1.31500 0.41000 0.87000
v 1.12100 0.00000 0.67000
v 1.31500 0.41000 0.67000
v 1.12100 0.00000 -0.87000
v 1.31500 0.41000 -0.87000
v 1.12100 0.00000 -0.67000
v 1.31500 0.41000 -0.67000
v 1.31500 0.41000 -0.91000
v 1.12100 0.00000 -0.91000
v 1.31500 0.41000 -1.09000
v 1.12100 0.00000 -1.09000
v 1.31500 0.41000 -1.13000
v 1.12100 0.00000 -1.13000
v 1.31500 0.41000 -1.33000
v 1.12100 0.00000 -1.33000
v 1.12800 0.21000 1.28000
v 1.58500 0.96000 0.68000
v 1.58500 0.96000 1.31000
v 1.12800 0.21000 0.71000
v 1.12800 0.21000 -1.28000
v 1.58500 0.96000 -0.68000
v 1.12800 0.21000 -0.71000
v 1.58500 0.96000 -1.31000
v 1.47300 2.22000 0.89000
v 1.47300 2.22000 -0.89000
v 1.38200 2.83000 0.89000
v 1.38200 2.83000 -0.89000
v 1.51600 1.95000 1.39000
v 1.51600 1.95000 0.60000
v 1.40200 2.58000 1.39000
v 1.40200 2.58000 0.60000
v 1.40200 2.58000 -1.39000
v 1.51600 1.95000 -0.60000
v 1.51600 1.95000 -1.39000
v 1.40200 2.58000 -0.60000
v 1.38200 1.60000 0.89000
v 1.38200 1.60000 -0.89000
v -2.37400 4.08000 0.95000
v -2.47200 4.12000 0.47000
v -2.62900 3.95000 0.87000
v -2.89400 3.96000 0.47000
v -2.47200 4.12000 -0.47000
v -2.62900 3.95000 -0.87000
v -2.89400 3.96000 -0.47000
v -2.37400 4.08000 -0.95000
v -1.98500 4.23000 0.95000
v -2.05100 4.28000 0.47000
v -2.57100 4.16000 0.00000
v -2.11700 4.32000 0.00000
v -2.05100 4.28000 -0.47000
v -1.98500 4.23000 -0.95000
v -3.02500 4.01000 0.00000
v 2.99200 2.78000 0.20000
v 2.99200 2.78000 -0.20000
v -2.16000 4.44000 1.18000
v -1.88900 4.40000 0.96000
v -2.16000 4.44000 0.95000
v -1.88900 4.40000 1.16000
v -1.88900 4.40000 -0.96000
v -2.16000 4.44000 -1.18000
v -2.16000 4.44000 -0.95000
v -1.88900 4.40000 -1.16000
v -1.20900 4.19000 0.00000
v -1.20900 4.15000 0.47000
v -1.20900 4.15000 -0.47000
v -1.20900 4.10000 0.95000
v -1.20900 4.10000 -0.95000
v -2.16000 4.12000 1.40000
v -1.88900 4.12000 1.36000
v -2.16000 4.12000 -1.40000
v -1.88900 4.12000 -1.36000
v -1.59800 3.78000 1.36000
v -1.59800 3.78000 -1.36000
v -3.65900 2.97000 0.00000
v -3.65900 3.17000 0.18000
v -3.65900 3.23000 0.00000
v -3.65900 3.17000 -0.18000
v -3.61000 3.22000 0.48000
v -3.61000 2.64000 0.07000
v -3.61000 2.72000 0.56000
v -3.61000 3.13000 -0.02000
v -3.61000 3.13000 0.02000
v -3.61000 2.72000 -0.56000
v -3.61000 2.64000 -0.07000
v -3.61000 3.22000 -0.48000
v -3.47000 2.41000 0.19000
v -3.47000 2.41000 0.41000
v -3.36000 2.70000 0.30000
v -3.47000 2.41000 -0.19000
v -3.36000 2.70000 -0.30000
v -3.47000 2.41000 -0.41000
v -3.51900 2.80000 0.30000
v -3.51900 2.58000 0.51000
v -3.51900 2.80000 0.51000
v -3.51900 2.58000 0.30000
v -3.51900 2.80000 -0.30000
v -3.51900 2.58000 -0.51000
v -3.51900 2.58000 -0.30000
v -3.51900 2.80000 -0.51000
v 1.21500 1.59000 1.39000
v 1.21500 1.59000 0.60000
v -3.48600 2.99000 -0.46000
v -3.48600 2.62000 0.46000
v -3.48600 2.99000 0.46000
v -3.48600 2.62000 -0.46000
v 1.21500 1.59000 -1.39000
v 1.21500 1.59000 -0.60000
v -2.62800 4.04000 0.68000
v -2.81800 3.90000 0.17000
v -2.86000 4.04000 0.68000
v -3.05100 3.90000 0.17000
v -2.86000 4.04000 -0.68000
v -3.05100 3.90000 -0.17000
v -2.81800 3.90000 -0.17000
v -2.62800 4.04000 -0.68000
v -2.73300 3.82000 0.60000
v -3.00300 3.75000 0.21000
v -2.86400 3.82000 0.64000
v -2.87100 3.75000 0.16000
v -2.73300 3.82000 -0.60000
v -3.00300 3.75000 -0.21000
v -2.87100 3.75000 -0.16000
v -2.86400 3.82000 -0.64000
v -3.24600 2.42000 0.22000
v -3.24600 2.42000 0.38000
v -3.16000 2.64000 0.30000
v -3.24600 2.42000 -0.22000
v -3.16000 2.64000 -0.30000
v -3.24600 2.42000 -0.38000
v -3.30300 2.64000 0.49000
v -3.30300 2.81000 0.32000
v -3.30300 2.64000 0.32000
v -3.30300 2.81000 0.49000
v -1.21100 3.42000 1.00000
v -1.98500 3.39000 1.00000
v -1.59900 3.02000 1.69000
v -3.30300 2.81000 -0.32000
v -3.30300 2.64000 -0.49000
v -3.30300 2.64000 -0.32000
v -3.30300 2.81000 -0.49000
v -1.98500 3.39000 -1.00000
v -1.21100 3.42000 -1.00000
v -1.59900 3.02000 -1.69000
v -2.83000 3.72000 0.53000
v -3.01200 3.65000 0.27000
v -2.91900 3.72000 0.56000
v -2.92300 3.65000 0.24000
v -2.83000 3.72000 -0.53000
v -3.01200 3.65000 -0.27000
v -2.92300 3.65000 -0.24000
v -2.91900 3.72000 -0.56000
v -0.07000 0.03000 1.19000
v 0.06800 0.06000 1.17000
v -0.07000 0.03000 1.24000
v 0.06800 0.06000 1.27000
v 0.06800 0.06000 0.95000
v 0.06800 0.06000 1.05000
v -0.07000 0.03000 1.02000
v -0.07000 0.03000 0.98000
v -0.07000 0.03000 0.75000
v 0.06800 0.06000 0.73000
v -0.07000 0.03000 0.80000
v 0.06800 0.06000 0.82000
v -0.07000 0.03000 -0.80000
v 0.06800 0.06000 -0.73000
v -0.07000 0.03000 -0.75000
v 0.06800 0.06000 -0.82000
v -0.07000 0.03000 -1.02000
v 0.06800 0.06000 -0.95000
v -0.07000 0.03000 -0.98000
v 0.06800 0.06000 -1.05000
v -0.07000 0.03000 -1.24000
v 0.06800 0.06000 -1.17000
v -0.07000 0.03000 -1.19000
v 0.06800 0.06000 -1.27000
v -3.10800 3.36000 0.52000
v -3.10800 3.25000 -0.08000
v -3.10800 3.36000 -0.52000
v -3.10800 3.25000 0.08000
v -2.37200 3.26000 1.00000
v -2.17900 2.91000 1.31000
v -2.37200 3.26000 -1.00000
v -2.17900 2.91000 -1.31000
v -3.05600 2.47000 0.22000
v -3.05600 2.47000 0.35000
v -2.98700 2.65000 0.28000
v -3.05600 2.47000 -0.22000
v -2.98700 2.65000 -0.28000
v -3.05600 2.47000 -0.35000
v 0.30700 0.04000 1.27000
v 0.30700 0.04000 1.17000
v 0.32300 0.19000 1.27000
v 0.32300 0.19000 1.17000
v 0.30700 0.04000 1.05000
v 0.30700 0.04000 0.95000
v 0.32300 0.19000 1.05000
v 0.32300 0.19000 0.95000
v 0.30700 0.04000 0.82000
v 0.30700 0.04000 0.73000
v 0.32300 0.19000 0.82000
v 0.32300 0.19000 0.73000
v 0.30700 0.04000 -0.82000
v 0.32300 0.19000 -0.82000
v 0.30700 0.04000 -0.73000
v 0.32300 0.19000 -0.73000
v 0.30700 0.04000 -0.95000
v 0.32300 0.19000 -1.05000
v 0.32300 0.19000 -0.95000
v 0.30700 0.04000 -1.05000
v 0.30700 0.04000 -1.27000
v 0.32300 0.19000 -1.27000
v 0.30700 0.04000 -1.17000
v 0.32300 0.19000 -1.17000
v -3.40600 2.21000 0.41000
v -3.40600 2.21000 0.19000
v -2.76400 3.44000 0.58000
v -2.76400 3.31000 -0.16000
v -3.40600 2.21000 -0.41000
v -3.40600 2.21000 -0.19000
v -2.76400 3.44000 -0.58000
v -2.76400 3.31000 0.16000
v -2.94300 3.22000 0.00000
v -2.89100 3.16000 0.50000
v -2.81500 3.18000 0.46000
v -3.02300 3.19000 0.00000
v -2.81500 3.18000 -0.45000
v -2.89100 3.16000 -0.50000
v -2.17500 0.06000 1.17000
v -1.93700 0.04000 1.27000
v -2.17500 0.06000 1.27000
v -1.93700 0.04000 1.17000
v -2.17500 0.06000 0.95000
v -1.93700 0.04000 1.05000
v -2.17500 0.06000 1.05000
v -1.93700 0.04000 0.95000
v -2.17500 0.06000 0.73000
v -1.93700 0.04000 0.82000
v -2.17500 0.06000 0.82000
v -1.93700 0.04000 0.73000
v -3.10700 2.65000 0.49000
v -3.10700 2.79000 0.35000
v -3.10700 2.65000 0.35000
v -3.10700 2.79000 0.49000
v -2.31200 3.28000 0.92000
v -2.17500 0.06000 -0.73000
v -1.93700 0.04000 -0.82000
v -1.93700 0.04000 -0.73000
v -2.17500 0.06000 -0.82000
v -2.17500 0.06000 -0.95000
v -1.93700 0.04000 -1.05000
v -1.93700 0.04000 -0.95000
v -2.17500 0.06000 -1.05000
v -2.17500 0.06000 -1.27000
v -1.93700 0.04000 -1.27000
v -2.17500 0.06000 -1.17000
v -1.93700 0.04000 -1.17000
v -3.10700 2.79000 -0.35000
v -3.10700 2.65000 -0.49000
v -3.10700 2.65000 -0.35000
v -3.10700 2.79000 -0.49000
v 0.87000 2.77000 1.39000
v 0.87000 2.77000 0.60000
v 0.87000 2.77000 -1.39000
v 0.87000 2.77000 -0.60000
v -1.99000 0.00000 1.33000
v -1.77300 0.00000 1.13000
v -1.77300 0.00000 1.33000
v -1.99000 0.00000 1.13000
v -1.12200 0.00000 1.33000
v -1.12200 0.00000 1.13000
v -1.77300 0.00000 1.09000
v -1.12200 0.00000 1.09000
v -1.77300 0.00000 0.91000
v -1.99000 0.00000 1.09000
v -1.99000 0.00000 0.91000
v -1.12200 0.00000 0.91000
v -1.77300 0.00000 0.87000
v -1.12200 0.00000 0.87000
v -1.77300 0.00000 0.67000
v -1.12200 0.00000 0.67000
v -1.99000 0.00000 0.87000
v -1.99000 0.00000 0.67000
v 0.25400 0.00000 1.33000
v 0.47000 0.00000 1.13000
v 0.47000 0.00000 1.33000
v 0.25400 0.00000 1.13000
v 0.47000 0.00000 1.09000
v 0.47000 0.00000 0.91000
v 0.25400 0.00000 1.09000
v 0.25400 0.00000 0.91000
v 0.47000 0.00000 0.87000
v 0.47000 0.00000 0.67000
v 0.25400 0.00000 0.87000
v 0.25400 0.00000 0.67000
v -1.99000 0.00000 -0.87000
v -1.77300 0.00000 -0.67000
v -1.99000 0.00000 -0.67000
v -1.77300 0.00000 -0.87000
v -1.12200 0.00000 -0.87000
v -1.12200 0.00000 -0.67000
v -1.12200 0.00000 -0.91000
v -1.77300 0.00000 -0.91000
v -1.12200 0.00000 -1.09000
v -1.77300 0.00000 -1.09000
v -1.12200 0.00000 -1.13000
v -1.99000 0.00000 -1.09000
v -1.99000 0.00000 -0.91000
v -1.77300 0.00000 -1.13000
v -1.12200 0.00000 -1.33000
v -1.77300 0.00000 -1.33000
v -1.99000 0.00000 -1.33000
v -1.99000 0.00000 -1.13000
v 0.25400 0.00000 -0.87000
v 0.47000 0.00000 -0.67000
v 0.25400 0.00000 -0.67000
v 0.47000 0.00000 -0.87000
v 0.47000 0.00000 -0.91000
v 0.47000 0.00000 -1.09000
v 0.25400 0.00000 -1.09000
v 0.25400 0.00000 -0.91000
v 0.47000 0.00000 -1.13000
v 0.47000 0.00000 -1.33000
v 0.25400 0.00000 -1.33000
v 0.25400 0.00000 -1.13000
v -3.47800 2.28000 0.42000
v -3.36700 2.05000 -0.42000
v -3.36700 2.05000 0.42000
v -3.47800 2.28000 -0.42000
v -2.91900 3.44000 0.56000
v -3.01200 3.44000 0.27000
v -2.91900 3.44000 -0.56000
v -3.01200 3.44000 -0.27000
v -2.86000 3.81000 0.68000
v -3.05100 3.67000 0.17000
v -2.86000 3.81000 -0.68000
v -3.05100 3.67000 -0.17000
v 1.48900 0.95000 -1.31000
v 1.08900 1.33000 -1.39000
v 1.08900 1.33000 1.39000
v 1.48900 0.95000 1.31000
v -2.86400 3.40000 0.64000
v -3.00300 3.40000 0.21000
v -2.86400 3.40000 -0.64000
v -3.00300 3.40000 -0.21000
v -2.76000 3.14000 1.00000
v -2.88900 2.36000 0.53000
v -2.75700 2.36000 1.06000
v -2.88900 2.36000 -0.53000
v -2.76000 3.14000 -1.00000
v -2.75700 2.36000 -1.06000
v -3.02100 2.36000 0.00000
v -3.19700 2.26000 0.38000
v -3.19700 2.26000 0.22000
v -3.19700 2.26000 -0.38000
v -3.19700 2.26000 -0.22000
v -1.63700 0.16000 0.78000
v -1.11300 0.16000 1.24000
v -1.63700 0.16000 1.24000
v -1.11300 0.16000 0.78000
v -2.16000 3.83000 0.88000
v -2.16000 3.99000 1.26000
v -2.07100 3.99000 1.26000
v -2.07100 3.83000 0.88000
v -1.63700 0.16000 -0.78000
v -1.11300 0.16000 -1.24000
v -1.11300 0.16000 -0.78000
v -1.63700 0.16000 -1.24000
v -2.07100 3.83000 -0.88000
v -2.07100 3.99000 -1.26000
v -2.16000 3.83000 -0.88000
v -2.16000 3.99000 -1.26000
v -2.16000 4.04000 0.80000
v -2.07100 4.04000 0.80000
v -2.16000 4.04000 -0.80000
v -2.07100 4.04000 -0.80000
v -1.56500 3.44000 0.56000
v -0.43400 3.07000 0.56000
v -0.43400 3.07000 -0.56000
v -1.56500 3.44000 -0.56000
v -2.55900 3.16000 0.84000
v -2.55900 3.16000 -0.83000
v 0.55400 0.21000 1.28000
v 0.55400 0.21000 0.71000
v 0.55400 0.21000 -0.71000
v 0.55400 0.21000 -1.28000
v -2.31300 0.03000 1.19000
v -2.31300 0.03000 1.24000
v -2.31300 0.03000 1.02000
v -2.31300 0.03000 0.98000
v -2.31300 0.03000 0.75000
v -2.31300 0.03000 0.80000
v -2.31300 0.03000 -0.80000
v -2.31300 0.03000 -0.75000
v -2.31300 0.03000 -1.02000
v -2.31300 0.03000 -0.98000
v -2.31300 0.03000 -1.24000
v -2.31300 0.03000 -1.19000
v -2.37100 2.45000 1.06000
v -2.37100 2.45000 -1.06000
v 0.45500 1.33000 1.39000
v 1.00400 0.96000 1.31000
v 1.00400 0.96000 -1.31000
v 0.45500 1.33000 -1.39000
v -3.50900 3.23000 0.00000
v -3.50900 3.17000 -0.18000
v -3.01600 2.34000 0.35000
v -3.01600 2.34000 0.22000
v -3.50900 3.17000 0.18000
v -3.01600 2.34000 -0.35000
v -3.01600 2.34000 -0.22000
v 0.33800 1.95000 -1.39000
v 0.33800 2.58000 -1.39000
v 0.33800 1.95000 1.39000
v 0.33800 2.58000 1.39000
v -2.30600 0.11000 1.24000
v -2.16000 0.22000 1.27000
v -2.30600 0.11000 -1.24000
v -2.16000 0.22000 -1.27000
v -1.99000 0.27000 1.33000
v -1.77300 0.41000 1.33000
v -0.92800 0.41000 1.33000
v 0.25400 0.27000 1.33000
v 0.47000 0.41000 1.33000
v -1.99000 0.27000 -1.33000
v -1.77300 0.41000 -1.33000
v -0.92800 0.41000 -1.33000
v 0.25400 0.27000 -1.33000
v 0.47000 0.41000 -1.33000
v -1.11400 1.34000 1.27000
v -0.40100 1.34000 1.27000
v -1.11400 1.34000 -1.27000
v -0.40100 1.34000 -1.27000
v -1.92100 0.19000 -1.27000
v -0.86000 2.33000 -1.27000
v -1.66100 2.23000 -1.27000
v -1.41700 2.51000 -1.27000
v -1.04700 2.51000 -1.27000
v 0.08400 0.22000 -1.27000
v -1.92100 0.19000 1.27000
v -0.86000 2.33000 1.27000
v -1.66100 2.23000 1.27000
v -1.41700 2.51000 1.27000
v -1.04700 2.51000 1.27000
v 0.08400 0.22000 1.27000
v -2.56400 2.99000 0.46000
v -2.56400 2.99000 -0.46000
v -2.06500 3.14000 0.99000
v -0.25400 2.79000 0.99000
v -0.25400 2.79000 -0.99000
v -2.06500 3.14000 -0.99000
v -2.68300 2.56000 0.42000
v -2.68300 2.56000 -0.42000
v -1.89100 3.03000 0.89000
v -0.25400 2.72000 0.89000
v -0.25400 2.72000 -0.89000
v -1.89100 3.03000 -0.89000
v -3.32900 2.35000 0.40000
v -3.32900 2.35000 -0.40000
v -2.30600 0.11000 1.02000
v -2.16000 0.22000 1.05000
v -2.30600 0.11000 -1.02000
v -2.16000 0.22000 -1.05000
v -3.10800 2.76000 0.63000
v -2.76400 2.70000 0.71000
v -3.10800 2.76000 -0.63000
v -2.76400 2.70000 -0.71000
v -1.98500 2.55000 1.06000
v -1.98500 2.55000 -1.06000
v -1.99000 0.27000 1.09000
v -1.77300 0.41000 1.09000
v 0.25400 0.27000 1.09000
v 0.47000 0.41000 1.09000
v -1.99000 0.27000 -1.09000
v -1.77300 0.41000 -1.09000
v 0.25400 0.27000 -1.09000
v 0.47000 0.41000 -1.09000
v -0.06600 1.13000 -0.99000
v -0.29900 1.98000 0.99000
v -0.06600 1.13000 0.99000
v -0.29900 1.98000 -0.99000
v -3.13700 2.81000 0.49000
v -3.13700 2.81000 0.32000
v -3.13700 2.81000 -0.32000
v -3.13700 2.81000 -0.49000
v -3.30700 2.80000 0.51000
v -3.30700 2.80000 0.30000
v -3.30700 2.80000 -0.30000
v -3.30700 2.80000 -0.51000
v -1.92100 0.19000 1.05000
v 0.08400 0.22000 1.05000
v -2.97300 2.79000 0.49000
v -2.97300 2.79000 0.35000
v -1.92100 0.19000 -1.05000
v 0.08400 0.22000 -1.05000
v -2.97300 2.79000 -0.35000
v -2.97300 2.79000 -0.49000
v -0.40100 1.34000 0.76000
v -0.40100 1.34000 -0.76000
v -1.68900 1.17000 0.99000
v -2.25600 2.19000 0.99000
v -2.25600 2.19000 -0.99000
v -1.68900 1.17000 -0.99000
v -3.15400 2.46000 0.40000
v -3.15400 2.46000 -0.40000
v -0.92800 0.41000 1.13000
v -0.92800 0.41000 1.09000
v -0.92800 0.41000 0.91000
v -0.92800 0.41000 0.87000
v -0.92800 0.41000 0.67000
v -0.92800 0.41000 -0.87000
v -0.92800 0.41000 -0.67000
v -0.92800 0.41000 -0.91000
v -0.92800 0.41000 -1.09000
v -0.92800 0.41000 -1.13000
v -0.06300 0.11000 -1.24000
v -0.06300 0.11000 1.24000
v -2.30600 0.11000 -0.80000
v -2.16000 0.22000 -0.82000
v -2.30600 0.11000 0.80000
v -2.16000 0.22000 0.82000
v -0.43400 2.31000 0.56000
v -0.43400 2.31000 -0.56000
v -2.06300 2.18000 -0.89000
v -0.29500 1.99000 -0.89000
v -1.55000 1.25000 -0.89000
v -0.08400 1.22000 -0.89000
v -1.55000 1.25000 0.89000
v -0.29500 1.99000 0.89000
v -2.06300 2.18000 0.89000
v -0.08400 1.22000 0.89000
v -3.26700 2.48000 0.41000
v -3.26700 2.48000 -0.41000
v -1.99000 0.27000 -0.87000
v -1.77300 0.41000 -0.87000
v 0.25400 0.27000 -0.87000
v 0.47000 0.41000 -0.87000
v -1.99000 0.27000 0.87000
v -1.77300 0.41000 0.87000
v 0.25400 0.27000 0.87000
v 0.47000 0.41000 0.87000
v -3.08800 2.47000 -0.38000
v -3.08800 2.47000 0.38000
v -1.92100 0.19000 -0.82000
v 0.08400 0.22000 -0.82000
v -1.92100 0.19000 0.82000
v 0.08400 0.22000 0.82000
v -2.92800 2.51000 0.35000
v -2.92800 2.51000 -0.35000
v -2.16000 3.92000 1.32000
v -2.16000 4.11000 1.30000
v -2.16000 3.71000 0.83000
v -2.16000 4.35000 1.13000
v -2.16000 4.05000 0.70000
v -2.16000 4.35000 1.00000
v -2.16000 3.71000 -0.83000
v -2.16000 4.05000 -0.70000
v -2.16000 3.92000 -1.32000
v -2.16000 4.35000 -1.00000
v -2.16000 4.11000 -1.30000
v -2.16000 4.35000 -1.13000
v -2.98700 2.50000 0.42000
v -2.98700 2.50000 -0.42000
v -2.30600 0.11000 1.19000
v -2.30600 0.11000 0.98000
v -2.30600 0.11000 0.75000
v -2.30600 0.11000 -0.75000
v -2.30600 0.11000 -0.98000
v -2.30600 0.11000 -1.19000
v -1.41700 2.51000 0.76000
v -1.04700 2.51000 0.76000
v -1.41700 2.51000 -0.76000
v -1.04700 2.51000 -0.76000
v -0.86000 2.33000 0.76000
v -0.86000 2.33000 -0.76000
v -0.06300 0.11000 -1.02000
v -0.06300 0.11000 1.02000
v -2.07100 4.35000 1.00000
v -2.07100 4.11000 1.30000
v -2.07100 4.35000 1.13000
v 3.12800 4.02000 -0.14000
v 3.12800 4.02000 0.14000
v -2.07100 4.35000 -1.00000
v -2.07100 4.11000 -1.30000
v -2.07100 4.35000 -1.13000
v -1.21300 2.73000 1.06000
v -1.21300 2.73000 -1.06000
v -2.62800 3.81000 -0.68000
v -2.62800 3.81000 0.68000
v -1.99000 0.27000 1.13000
v -1.99000 0.27000 0.91000
v -1.99000 0.27000 0.67000
v -1.99000 0.27000 -0.67000
v -1.99000 0.27000 -0.91000
v -1.99000 0.27000 -1.13000
v -1.56500 2.31000 -0.56000
v -1.56500 2.31000 0.56000
v 3.20000 3.62000 -0.23000
v -1.66100 2.23000 0.76000
v 3.20000 3.62000 0.23000
v -1.66100 2.23000 -0.76000
v -1.88900 4.06000 0.75000
v -1.88900 4.06000 -0.75000
v -3.30700 2.58000 -0.51000
v -0.06300 0.11000 0.80000
v -3.30700 2.58000 0.51000
v -0.06300 0.11000 -0.80000
v -3.13700 2.64000 -0.49000
v -2.97300 2.65000 -0.49000
v -3.13700 2.64000 0.49000
v -2.97300 2.65000 0.49000
v -2.56400 2.62000 -0.46000
v -2.56400 2.62000 0.46000
v -2.57200 2.33000 -0.42000
v -1.77300 0.41000 1.13000
v -1.77300 0.41000 0.91000
v -2.57200 2.33000 0.42000
v -1.77300 0.41000 -0.91000
v -1.77300 0.41000 -1.13000
v -3.20400 2.27000 -0.41000
v -3.20400 2.27000 0.41000
v -3.03800 2.31000 0.38000
v -3.03800 2.31000 -0.38000
v -1.88900 3.95000 -1.29000
v -1.88900 3.95000 1.29000
v -2.88800 2.38000 0.35000
v -2.88800 2.38000 -0.35000
v -3.26700 2.48000 0.19000
v -3.26700 2.48000 -0.19000
v -2.87100 3.40000 0.16000
v -2.87100 3.40000 -0.16000
v -3.08800 2.47000 0.22000
v -2.92800 2.51000 0.22000
v -3.08800 2.47000 -0.22000
v -2.92800 2.51000 -0.22000
v -2.92300 3.44000 0.24000
v -2.92300 3.44000 -0.24000
v 0.33800 2.58000 0.60000
v 0.33800 2.58000 -0.60000
v -3.10800 2.65000 0.02000
v -2.76400 2.57000 -0.03000
v -3.10800 2.65000 -0.02000
v -2.76400 2.57000 0.03000
v 1.30100 2.34000 0.20000
v 1.20300 2.71000 0.20000
v 2.88200 3.25000 0.20000
v 1.20300 2.71000 -0.20000
v 2.88200 3.25000 -0.20000
v 1.30100 2.34000 -0.20000
v -2.73300 3.40000 0.60000
v -2.73300 3.40000 -0.60000
v -1.21300 2.73000 0.53000
v -1.21100 3.44000 0.50000
v -1.21300 2.73000 0.00000
v -1.21100 3.46000 0.00000
v -1.21100 3.44000 -0.50000
v -1.21300 2.73000 -0.53000
v -2.83000 3.44000 0.53000
v -2.83000 3.44000 -0.53000
v -1.11400 1.34000 0.76000
v -1.11400 1.34000 -0.76000
v -2.81800 3.67000 0.17000
v -2.81800 3.67000 -0.17000
v -3.20400 2.27000 0.19000
v -3.20400 2.27000 -0.19000
v -3.03800 2.31000 0.22000
v -2.88800 2.38000 0.22000
v -2.88800 2.38000 -0.22000
v -3.03800 2.31000 -0.22000
v -3.30700 2.58000 0.30000
v -3.30700 2.58000 -0.30000
v -3.13700 2.64000 0.32000
v 1.48900 0.95000 0.68000
v 1.08900 1.33000 0.60000
v -3.13700 2.64000 -0.32000
v 1.48900 0.95000 -0.68000
v 1.08900 1.33000 -0.60000
v -2.97300 2.65000 0.35000
v -2.97300 2.65000 -0.35000
v -1.92100 0.19000 1.17000
v -1.92100 0.19000 0.95000
v -1.92100 0.19000 0.73000
v -1.92100 0.19000 -0.73000
v -1.92100 0.19000 -0.95000
v -1.92100 0.19000 -1.17000
v 1.00400 0.96000 0.68000
v 0.45500 1.33000 0.60000
v 1.00400 0.96000 -0.68000
v 0.45500 1.33000 -0.60000
v -1.88900 3.76000 0.86000
v -1.88900 3.76000 -0.86000
v -2.16000 0.22000 0.73000
v -2.16000 0.22000 -0.73000
v 0.33800 1.95000 0.60000
v 0.33800 1.95000 -0.60000
v -1.77300 0.41000 0.67000
v 0.25400 0.27000 0.67000
v 0.47000 0.41000 0.67000
v -1.77300 0.41000 -0.67000
v 0.25400 0.27000 -0.67000
v 0.47000 0.41000 -0.67000
v 0.08400 0.22000 0.73000
v 0.08400 0.22000 -0.73000
v -2.16000 0.22000 1.17000
v -2.16000 0.22000 0.95000
v -2.16000 0.22000 -0.95000
v -2.16000 0.22000 -1.17000
v -3.50900 2.97000 0.00000
v 0.25400 0.27000 0.91000
v 0.47000 0.41000 0.91000
v 0.25400 0.27000 -0.91000
v 0.47000 0.41000 -0.91000
v -2.05100 2.55000 0.53000
v -2.11700 2.55000 0.00000
v -2.05100 2.55000 -0.53000
v -2.47000 2.45000 0.53000
v -2.56900 2.45000 0.00000
v -2.47000 2.45000 -0.53000
v 0.08400 0.22000 0.95000
v 0.08400 0.22000 -0.95000
v -0.06300 0.11000 0.75000
v -0.06300 0.11000 -0.75000
v 0.25400 0.27000 1.13000
v 0.47000 0.41000 1.13000
v 0.25400 0.27000 -1.13000
v 0.47000 0.41000 -1.13000
v 0.08400 0.22000 1.17000
v 0.08400 0.22000 -1.17000
v -0.06300 0.11000 0.98000
v -0.06300 0.11000 -0.98000
v -0.06300 0.11000 1.19000
v -0.06300 0.11000 -1.19000
vt 0.79195 0.08473
vt 0.82264 0.13610
vt 0.79923 0.13610
vt 0.82991 0.08473
vt 1.99594 0.14592
vt 1.95894 0.14598
vt 1.95891 0.13001
vt 1.99591 0.12996
vt 1.95891 0.12667
vt 1.99591 0.12661
vt 1.95888 0.11238
vt 1.99589 0.11232
vt 1.95888 0.10904
vt 1.99588 0.10898
vt 1.95885 0.09308
vt 1.99586 0.09302
vt 0.75034 0.71450
vt 0.79936 0.78600
vt 0.74776 0.78599
vt 0.79680 0.71450
vt 1.75034 0.71450
vt 1.79936 0.78600
vt 1.79680 0.71450
vt 1.74776 0.78599
vt 0.05352 0.87149
vt 0.05353 0.72654
vt 0.10412 0.87150
vt 0.10412 0.72654
vt 0.74137 0.88354
vt 0.80573 0.88355
vt 0.74137 0.93495
vt 0.80572 0.93496
vt 1.74137 0.93495
vt 1.80573 0.88355
vt 1.74137 0.88354
vt 1.80572 0.93496
vt 0.00293 0.87149
vt 0.00294 0.72653
vt 0.36936 0.44750
vt 0.37682 0.40859
vt 0.39303 0.44201
vt 0.41335 0.40891
vt 0.37681 0.33037
vt 0.39303 0.29696
vt 0.41335 0.33005
vt 0.36936 0.29147
vt 0.33508 0.44642
vt 0.34022 0.40783
vt 0.38369 0.36948
vt 0.34523 0.36948
vt 0.34022 0.33114
vt 0.33507 0.29254
vt 0.42256 0.36948
vt 0.79502 0.00302
vt 0.82682 0.00302
vt 0.02957 0.35360
vt 0.00749 0.33596
vt 0.02973 0.33503
vt 0.00736 0.35215
vt 1.00749 0.33596
vt 1.02957 0.35360
vt 1.02973 0.33503
vt 1.00736 0.35215
vt 0.27114 0.36948
vt 0.27102 0.40836
vt 0.27102 0.33061
vt 0.27100 0.44709
vt 0.27099 0.29188
vt 0.02449 0.38487
vt 0.00293 0.37942
vt 1.02449 0.38487
vt 1.00293 0.37942
vt 0.29856 0.49226
vt 0.29855 0.24671
vt 0.68573 0.18558
vt 0.70740 0.18869
vt 0.70000 0.20204
vt 0.68574 0.20747
vt 0.99460 0.72114
vt 0.95380 0.68035
vt 0.99459 0.68035
vt 0.95380 0.72115
vt 0.98448 0.72495
vt 0.94368 0.76574
vt 0.94368 0.72494
vt 0.98448 0.76575
vt 0.66550 0.02026
vt 0.68275 0.02026
vt 0.67413 0.04502
vt 1.66550 0.02026
vt 1.67413 0.04502
vt 1.68275 0.02026
vt 0.29628 0.22865
vt 0.31353 0.21140
vt 0.31353 0.22865
vt 0.29628 0.21140
vt 1.29628 0.22865
vt 1.31353 0.21140
vt 1.29628 0.21140
vt 1.31353 0.22865
vt 0.74138 0.84506
vt 0.80573 0.84507
vt 0.03289 0.54215
vt 0.00293 0.46730
vt 0.03289 0.46730
vt 0.00293 0.54215
vt 1.74138 0.84506
vt 1.80573 0.84507
vt 0.26593 0.00303
vt 0.31198 0.00302
vt 0.27227 0.02080
vt 0.31832 0.02079
vt 1.27227 0.02080
vt 1.31832 0.02079
vt 1.31198 0.00302
vt 1.26594 0.00303
vt 0.45308 0.26267
vt 0.49050 0.27387
vt 0.45307 0.27387
vt 0.49050 0.26267
vt 1.45308 0.26267
vt 1.49050 0.27387
vt 1.49050 0.26267
vt 1.45307 0.27387
vt 0.75148 0.22935
vt 0.76495 0.22935
vt 0.75822 0.24869
vt 1.75149 0.22935
vt 1.75822 0.24869
vt 1.76495 0.22935
vt 0.67391 0.50705
vt 0.66044 0.52052
vt 0.66044 0.50705
vt 0.67391 0.52052
vt 0.57952 0.50350
vt 0.60811 0.44742
vt 0.65144 0.50351
vt 1.66044 0.52052
vt 1.67391 0.50705
vt 1.66044 0.50705
vt 1.67391 0.52052
vt 0.81225 0.39391
vt 0.78535 0.45082
vt 0.74137 0.39392
vt 0.29122 0.23244
vt 0.31691 0.24001
vt 0.29122 0.24001
vt 0.31691 0.23244
vt 1.29122 0.23244
vt 1.31691 0.24001
vt 1.31691 0.23244
vt 1.29122 0.24001
vt 1.55505 0.07075
vt 1.55718 0.08216
vt 1.55130 0.07075
vt 1.54917 0.08216
vt 0.97352 0.90410
vt 0.92726 0.86199
vt 0.96806 0.86199
vt 0.92392 0.90410
vt 0.83288 0.27584
vt 0.87915 0.23373
vt 0.88249 0.27584
vt 0.83835 0.23373
vt 0.36331 0.76633
vt 0.37245 0.79806
vt 0.33169 0.80323
vt 0.65370 0.77138
vt 0.62773 0.74955
vt 0.67454 0.73557
vt 0.47836 0.88411
vt 0.48926 0.88411
vt 0.48381 0.89975
vt 1.47836 0.88411
vt 1.48381 0.89975
vt 1.48926 0.88411
vt 1.09397 0.00302
vt 1.10198 0.00302
vt 1.09397 0.01576
vt 1.10198 0.01576
vt 0.68274 0.00302
vt 0.66550 0.00302
vt 0.97905 0.93261
vt 0.91839 0.93261
vt 1.68275 0.00302
vt 1.66550 0.00302
vt 0.82735 0.30434
vt 0.88801 0.30435
vt 0.46355 0.82530
vt 0.42318 0.83087
vt 0.42472 0.82407
vt 0.46529 0.83216
vt 0.49923 0.80994
vt 0.50401 0.81554
vt 1.54917 0.10165
vt 1.55719 0.10165
vt 0.55719 0.08216
vt 0.54917 0.10165
vt 0.54917 0.08216
vt 0.55719 0.10165
vt 0.09475 0.89083
vt 0.08385 0.90172
vt 0.08385 0.89083
vt 0.09475 0.90172
vt 0.37722 0.79131
vt 1.08385 0.90172
vt 1.09475 0.89083
vt 1.08385 0.89083
vt 1.09475 0.90172
vt 0.93723 0.73989
vt 0.93722 0.78601
vt 0.87287 0.78600
vt 0.87288 0.73988
vt 1.87287 0.78600
vt 1.93723 0.73989
vt 1.87288 0.73988
vt 1.93722 0.78601
vt 0.93862 0.29587
vt 0.95458 0.31345
vt 0.93862 0.31345
vt 0.95458 0.29587
vt 0.93862 0.36635
vt 0.95458 0.36635
vt 0.95793 0.31345
vt 0.95793 0.36635
vt 0.97222 0.31345
vt 0.95793 0.29587
vt 0.97222 0.29587
vt 0.97222 0.36635
vt 0.97556 0.31345
vt 0.97556 0.36635
vt 0.99152 0.31345
vt 0.99152 0.36635
vt 0.97556 0.29587
vt 0.99152 0.29587
vt 1.93862 0.29587
vt 1.95458 0.31345
vt 1.93862 0.31345
vt 1.95458 0.29587
vt 1.93862 0.36635
vt 1.95458 0.36635
vt 1.95793 0.31345
vt 1.95793 0.36635
vt 1.97222 0.31345
vt 1.95793 0.29587
vt 1.97222 0.29587
vt 1.97222 0.36635
vt 1.97556 0.31345
vt 1.97556 0.36635
vt 1.99152 0.31345
vt 1.99152 0.36635
vt 1.97556 0.29587
vt 1.99152 0.29587
vt 0.73213 0.78996
vt 0.71103 0.85836
vt 0.71102 0.78997
vt 0.73213 0.85836
vt 0.73316 0.29446
vt 0.71608 0.26952
vt 0.73921 0.26950
vt 0.71611 0.29448
vt 1.73316 0.29446
vt 1.71608 0.26952
vt 1.71611 0.29448
vt 1.73921 0.26950
vt 0.60940 0.02132
vt 0.65086 0.00302
vt 0.65545 0.02132
vt 0.60481 0.00302
vt 1.60940 0.02132
vt 1.65086 0.00302
vt 1.60481 0.00302
vt 1.65545 0.02132
vt 1.71847 0.10195
vt 1.70217 0.15648
vt 1.73106 0.12149
vt 1.69430 0.15627
vt 0.71847 0.10195
vt 0.73106 0.12149
vt 0.70216 0.15648
vt 0.69430 0.15627
vt 0.46319 0.76830
vt 0.49140 0.80518
vt 0.46324 0.80522
vt 0.49742 0.76825
vt 1.49140 0.80518
vt 1.46319 0.76830
vt 1.46324 0.80522
vt 1.49742 0.76825
vt 0.25344 0.29698
vt 0.19012 0.33693
vt 0.19010 0.29271
vt 0.25525 0.33907
vt 0.19011 0.42538
vt 0.25341 0.46535
vt 0.19007 0.46960
vt 0.25523 0.42326
vt 0.19015 0.38116
vt 0.25706 0.38117
vt 0.76495 0.21588
vt 0.75148 0.21589
vt 1.76495 0.21588
vt 1.75148 0.21589
vt 0.49028 0.21632
vt 0.45307 0.25887
vt 0.45307 0.21632
vt 0.49028 0.25887
vt 0.16192 0.09485
vt 0.16192 0.12816
vt 0.15467 0.12816
vt 0.15466 0.09485
vt 1.49028 0.21632
vt 1.45307 0.25887
vt 1.49028 0.25887
vt 1.45307 0.21632
vt 1.15466 0.09485
vt 1.15467 0.12816
vt 1.16191 0.09485
vt 1.16192 0.12816
vt 0.13157 0.02211
vt 0.13159 0.04030
vt 0.12434 0.04030
vt 0.12432 0.02211
vt 1.13159 0.04030
vt 1.13157 0.02211
vt 1.12434 0.04030
vt 1.12432 0.02211
vt 0.36788 0.82477
vt 0.36789 0.92143
vt 0.27607 0.92144
vt 0.27605 0.82478
vt 0.38974 0.81105
vt 0.38105 0.82993
vt 0.52683 0.78481
vt 0.54275 0.79898
vt 0.79195 0.13989
vt 0.83841 0.18651
vt 0.79195 0.18651
vt 0.83841 0.13989
vt 1.83841 0.13989
vt 1.79195 0.13989
vt 1.83841 0.18651
vt 1.79195 0.18651
vt 0.55130 0.07075
vt 0.55505 0.07075
vt 0.74490 0.22528
vt 0.68068 0.24070
vt 0.70904 0.20524
vt 0.71665 0.74906
vt 0.78220 0.11571
vt 0.74128 0.15118
vt 1.74128 0.15118
vt 1.78220 0.11571
vt 0.53880 0.76620
vt 0.41467 0.79440
vt 0.40250 0.79440
vt 0.40250 0.77913
vt 0.41468 0.77913
vt 0.48926 0.87322
vt 0.47836 0.87322
vt 0.41467 0.80966
vt 0.40250 0.80966
vt 1.48926 0.87322
vt 1.47836 0.87322
vt 1.78589 0.06437
vt 1.69079 0.07522
vt 1.73538 0.00301
vt 1.78015 0.01413
vt 1.69427 0.02393
vt 0.78589 0.06437
vt 0.69079 0.07522
vt 0.73538 0.00301
vt 0.69427 0.02393
vt 0.78015 0.01413
vt 0.17722 0.80123
vt 0.11730 0.84073
vt 0.11275 0.80215
vt 0.18191 0.84109
vt 0.17726 0.88096
vt 0.11279 0.87931
vt 1.15925 0.05590
vt 1.15722 0.06733
vt 1.15333 0.05652
vt 1.14455 0.06866
vt 1.73786 0.21302
vt 1.78421 0.20800
vt 0.73786 0.21302
vt 0.78421 0.20800
vt 0.94037 0.21435
vt 0.91841 0.15831
vt 0.93890 0.14996
vt 0.91839 0.22437
vt 0.17349 0.76285
vt 0.10914 0.76500
vt 0.94988 0.44257
vt 0.97211 0.44257
vt 0.97211 0.46016
vt 0.93862 0.46016
vt 0.97211 0.51306
vt 0.93862 0.52879
vt 1.94988 0.44257
vt 1.97211 0.44257
vt 1.97211 0.46016
vt 1.93862 0.46016
vt 1.97211 0.51306
vt 1.93862 0.52879
vt 0.17350 0.91934
vt 0.10916 0.91646
vt 0.84479 0.48279
vt 0.88839 0.57882
vt 0.84585 0.57932
vt 0.78689 0.48348
vt 1.84479 0.48279
vt 1.84585 0.57932
vt 1.88839 0.57882
vt 1.78689 0.48348
vt 1.15925 0.08671
vt 1.14658 0.08804
vt 1.82322 0.40324
vt 1.88837 0.41006
vt 1.86830 0.38784
vt 1.83826 0.38820
vt 0.82322 0.40324
vt 0.88838 0.41006
vt 0.86830 0.38784
vt 0.83826 0.38820
vt 0.69483 0.88090
vt 0.69483 0.95575
vt 0.61998 0.95575
vt 0.61998 0.88090
vt 0.51691 0.69494
vt 0.36713 0.69498
vt 0.36709 0.53457
vt 0.51687 0.53453
vt 0.64251 0.79378
vt 0.64777 0.86221
vt 0.60128 0.83540
vt 0.57446 0.79436
vt 0.57446 0.73768
vt 0.42031 0.51968
vt 0.35192 0.51968
vt 0.35192 0.45129
vt 0.42031 0.45129
vt 0.18329 0.28993
vt 0.18329 0.42528
vt 0.03834 0.42528
vt 0.03834 0.28993
vt 0.30490 0.18665
vt 1.30490 0.18665
vt 0.15925 0.05590
vt 0.15722 0.06733
vt 0.15333 0.05652
vt 0.14455 0.06866
vt 0.67528 0.79721
vt 0.73444 0.77596
vt 0.60308 0.80996
vt 0.47378 0.96059
vt 0.52338 0.96060
vt 0.52891 0.98910
vt 0.46825 0.98910
vt 0.74255 0.25821
vt 0.68080 0.27294
vt 0.56476 0.96060
vt 0.61437 0.96051
vt 0.55929 0.98912
vt 0.61995 0.98900
vt 0.49859 0.26752
vt 0.53729 0.21084
vt 0.56907 0.27511
vt 0.67208 0.69673
vt 0.60213 0.68275
vt 0.12673 0.73778
vt 0.12673 0.76000
vt 0.10914 0.76000
vt 0.10914 0.72651
vt 1.12673 0.73778
vt 1.12673 0.76000
vt 1.10914 0.76000
vt 1.10914 0.72651
vt 0.18501 0.66058
vt 0.25680 0.82099
vt 0.18503 0.82100
vt 0.25678 0.66057
vt 0.67494 0.80392
vt 0.67565 0.86858
vt 0.06698 0.28122
vt 0.05351 0.28122
vt 0.05351 0.26776
vt 0.06698 0.26776
vt 1.06698 0.26776
vt 1.05351 0.26776
vt 1.06698 0.28122
vt 1.05351 0.28122
vt 0.69742 0.81274
vt 0.69741 0.87712
vt 0.99633 0.51597
vt 0.97908 0.51597
vt 0.97908 0.49872
vt 0.99633 0.49872
vt 1.99633 0.49872
vt 1.97908 0.49872
vt 1.99633 0.51597
vt 1.97908 0.51597
vt 0.15925 0.08671
vt 0.14658 0.08804
vt 0.50949 0.28439
vt 0.49859 0.28439
vt 0.49859 0.27350
vt 0.50949 0.27350
vt 1.49859 0.27350
vt 1.50949 0.28439
vt 1.50949 0.27350
vt 1.49859 0.28439
vt 0.32306 0.82098
vt 0.32304 0.66057
vt 0.89504 0.23376
vt 0.93438 0.34623
vt 0.89310 0.34626
vt 0.93224 0.23372
vt 0.48421 0.91943
vt 0.52501 0.91943
vt 1.89504 0.23376
vt 1.93438 0.34623
vt 1.93224 0.23372
vt 1.89310 0.34626
vt 0.60386 0.91936
vt 0.56306 0.91944
vt 0.34918 0.53017
vt 0.28048 0.64126
vt 0.26737 0.48191
vt 0.34917 0.66205
vt 0.21425 0.64318
vt 0.19007 0.49536
vt 0.60569 0.51911
vt 0.59259 0.67846
vt 0.52388 0.56738
vt 0.52389 0.69925
vt 0.65882 0.68038
vt 0.68300 0.53256
vt 0.17640 0.56234
vt 0.09791 0.72274
vt 0.09793 0.56233
vt 0.17638 0.72275
vt 0.66718 0.48772
vt 1.66718 0.48772
vt 0.99594 0.14592
vt 0.95894 0.14598
vt 0.95891 0.13001
vt 0.99592 0.12996
vt 0.95891 0.12667
vt 0.99591 0.12661
vt 0.95888 0.11238
vt 0.99589 0.11232
vt 0.95888 0.10904
vt 0.99588 0.10898
vt 0.95885 0.09308
vt 0.99586 0.09302
vt 0.20524 0.91661
vt 0.20524 0.82479
vt 0.26688 0.91661
vt 0.26688 0.82479
vt 0.18329 0.55853
vt 0.03833 0.55853
vt 0.67605 0.07188
vt 0.62020 0.06750
vt 0.65105 0.02531
vt 0.62023 0.23034
vt 0.67608 0.22595
vt 0.65110 0.27253
vt 0.37874 0.00302
vt 0.37198 0.14734
vt 0.30640 0.04921
vt 0.31061 0.16831
vt 0.34906 0.28529
vt 0.39948 0.28955
vt 0.43186 0.14697
vt 0.44898 0.01270
vt 0.44898 0.27911
vt 0.30239 0.04905
vt 0.23703 0.14733
vt 0.22994 0.00302
vt 0.29845 0.16815
vt 0.26027 0.28522
vt 0.20986 0.28960
vt 0.17715 0.14709
vt 0.15972 0.01286
vt 0.16034 0.27928
vt 0.06571 0.02026
vt 0.06569 0.00302
vt 0.08688 0.00480
vt 1.06571 0.02026
vt 1.08688 0.00480
vt 1.06569 0.00302
vt 1.56675 0.74903
vt 1.54917 0.77126
vt 1.56675 0.77126
vt 1.54917 0.73777
vt 0.56676 0.74903
vt 0.56676 0.77126
vt 0.54917 0.77126
vt 0.54917 0.73777
vt 1.34011 0.01648
vt 1.35664 0.00441
vt 1.34010 0.00302
vt 0.34011 0.01648
vt 0.34010 0.00302
vt 0.35664 0.00441
vt 0.57275 0.40759
vt 0.42781 0.53075
vt 0.42780 0.40761
vt 0.57276 0.53073
vt 0.31225 0.03548
vt 0.31223 0.02459
vt 0.32562 0.02571
vt 1.31225 0.03548
vt 1.32562 0.02571
vt 1.31223 0.02459
vt 0.14946 0.04690
vt 0.13467 0.05104
vt 0.14230 0.04382
vt 0.14230 0.01050
vt 0.13687 0.05881
vt 0.14945 0.00301
vt 0.11110 0.04611
vt 0.12026 0.00434
vt 0.10587 0.05233
vt 0.12413 0.01133
vt 0.09903 0.03506
vt 0.10709 0.03598
vt 1.14945 0.00301
vt 1.12026 0.00434
vt 1.14230 0.01050
vt 1.14946 0.04690
vt 1.12413 0.01133
vt 1.14230 0.04382
vt 1.10709 0.03598
vt 1.13467 0.05104
vt 1.09903 0.03506
vt 1.13687 0.05881
vt 1.11110 0.04611
vt 1.10587 0.05233
vt 0.08930 0.87519
vt 1.08930 0.87519
vt 1.16055 0.16550
vt 1.15680 0.17146
vt 1.15680 0.16550
vt 1.16055 0.17146
vt 0.16055 0.16550
vt 0.15680 0.17146
vt 0.15680 0.16550
vt 0.16054 0.17146
vt 0.73627 0.29872
vt 0.66535 0.44367
vt 0.66536 0.29871
vt 0.73626 0.44367
vt 0.17459 0.92312
vt 0.17459 0.96440
vt 0.14455 0.92312
vt 0.14455 0.96440
vt 1.17459 0.92312
vt 1.14455 0.92312
vt 1.17459 0.96440
vt 1.14455 0.96440
vt 0.93448 0.45558
vt 0.89318 0.43435
vt 0.93446 0.43431
vt 0.89320 0.45562
vt 1.93446 0.43431
vt 1.89318 0.43435
vt 1.93448 0.45558
vt 1.89320 0.45562
vt 0.52388 0.05191
vt 0.55146 0.06696
vt 0.52790 0.06204
vt 0.55909 0.05974
vt 0.54092 0.02726
vt 0.55909 0.02643
vt 0.71609 0.73793
vt 0.73949 0.71450
vt 0.73951 0.73792
vt 0.71608 0.71451
vt 1.54092 0.02726
vt 1.55909 0.05974
vt 1.55909 0.02643
vt 1.52388 0.05191
vt 1.55146 0.06696
vt 1.52790 0.06204
vt 0.56437 0.23474
vt 0.58857 0.29492
vt 0.56434 0.06312
vt 0.58852 0.00293
vt 1.54917 0.00302
vt 1.56805 0.02189
vt 1.56805 0.00302
vt 1.54917 0.02189
vt 0.54917 0.00302
vt 0.56804 0.00302
vt 0.56804 0.02189
vt 0.54917 0.02189
vt 0.83825 0.58312
vt 0.82229 0.60534
vt 0.82229 0.58312
vt 0.83825 0.60534
vt 0.18501 0.61439
vt 0.19930 0.59217
vt 0.19930 0.61439
vt 0.18501 0.59217
vt 0.95458 0.53257
vt 0.93862 0.55480
vt 0.93862 0.53257
vt 0.95458 0.55480
vt 1.93862 0.55480
vt 1.95458 0.53257
vt 1.93862 0.53257
vt 1.95458 0.55480
vt 1.18501 0.61439
vt 1.19930 0.59217
vt 1.18501 0.59217
vt 1.19930 0.61439
vt 1.82229 0.60534
vt 1.83825 0.58312
vt 1.82229 0.58312
vt 1.83825 0.60534
vt 0.81762 0.71070
vt 0.68573 0.55030
vt 0.81761 0.55029
vt 0.68575 0.71071
vt 0.00293 0.72274
vt 0.00294 0.56232
vt 0.59042 0.82381
vt 0.56023 0.91564
vt 0.49859 0.82381
vt 0.49859 0.91564
vt 0.75733 0.44747
vt 0.69569 0.53929
vt 0.66550 0.44747
vt 0.75733 0.53929
vt 0.87807 0.84620
vt 0.85405 0.80991
vt 0.88457 0.82371
vt 0.82708 0.83663
vt 0.93438 0.67958
vt 0.89311 0.64964
vt 0.93438 0.64963
vt 0.89311 0.67958
vt 0.33674 0.70507
vt 0.37302 0.72910
vt 0.34630 0.75606
vt 0.35924 0.69858
vt 1.89311 0.67958
vt 1.93438 0.67958
vt 1.89311 0.64964
vt 1.93438 0.64963
vt 0.02451 0.29806
vt 0.00294 0.30371
vt 1.02451 0.29806
vt 1.00294 0.30371
vt 1.34387 0.46712
vt 1.32663 0.48436
vt 1.34387 0.48436
vt 1.32663 0.46712
vt 0.34387 0.46712
vt 0.34387 0.48436
vt 0.32663 0.48436
vt 0.32663 0.46712
vt 0.57274 0.28842
vt 0.42778 0.28844
vt 1.57781 0.69232
vt 1.56435 0.70579
vt 1.57781 0.70579
vt 1.56435 0.69232
vt 1.34258 0.76128
vt 1.33169 0.77218
vt 1.34258 0.77217
vt 1.33169 0.76128
vt 0.57781 0.69232
vt 0.57781 0.70579
vt 0.56435 0.70579
vt 0.56434 0.69232
vt 0.34258 0.76128
vt 0.34258 0.77217
vt 0.33169 0.77218
vt 0.33169 0.76128
vt 0.93862 0.60171
vt 0.96859 0.67656
vt 0.93862 0.67656
vt 0.96859 0.60171
vt 0.99388 0.52306
vt 0.99388 0.59791
vt 0.96391 0.52306
vt 0.96391 0.59791
vt 0.99503 0.60170
vt 0.99502 0.67010
vt 0.97404 0.60392
vt 0.97403 0.67231
vt 0.44296 0.12993
vt 0.44630 0.16342
vt 0.44296 0.16342
vt 0.44630 0.12993
vt 0.55423 0.13893
vt 0.55423 0.10544
vt 0.55757 0.10544
vt 0.55757 0.13893
vt 0.45572 0.71975
vt 0.38954 0.69877
vt 0.45793 0.69876
vt 0.38732 0.71976
vt 1.55423 0.13893
vt 1.55757 0.10544
vt 1.55423 0.10544
vt 1.55757 0.13893
vt 1.44296 0.12993
vt 1.44630 0.16342
vt 1.44630 0.12993
vt 1.44296 0.16342
vt 0.57952 0.44366
vt 0.57953 0.29870
vt 1.04847 0.02028
vt 1.04845 0.00304
vt 0.04847 0.02028
vt 0.04845 0.00304
vt 0.09964 0.06275
vt 0.06740 0.06279
vt 0.07572 0.02415
vt 0.06742 0.23448
vt 0.09966 0.23450
vt 0.07575 0.27311
vt 0.32664 0.01650
vt 0.32663 0.00303
vt 1.32664 0.01650
vt 1.32663 0.00303
vt 1.52098 0.75393
vt 1.50365 0.75394
vt 1.52007 0.77614
vt 1.50495 0.77614
vt 0.52098 0.75393
vt 0.52007 0.77614
vt 0.50365 0.75394
vt 0.50496 0.77614
vt 0.30135 0.03550
vt 0.30134 0.02460
vt 1.30135 0.03550
vt 1.30134 0.02460
vt 0.45313 0.02032
vt 0.47038 0.02026
vt 0.45501 0.04150
vt 1.45313 0.02032
vt 1.45501 0.04150
vt 1.47038 0.02026
vt 0.98414 0.89014
vt 0.99535 0.86199
vt 0.99534 0.89014
vt 0.98415 0.86199
vt 1.98415 0.86199
vt 1.98414 0.89014
vt 1.99535 0.86199
vt 1.99534 0.89014
vt 0.82234 0.64353
vt 0.83581 0.64348
vt 0.82381 0.66007
vt 0.57956 0.45839
vt 0.59045 0.45835
vt 0.58074 0.47176
vt 1.82234 0.64353
vt 1.82381 0.66007
vt 1.83581 0.64348
vt 1.57956 0.45839
vt 1.58074 0.47176
vt 1.59045 0.45835
vt 0.44802 0.10040
vt 0.45559 0.08334
vt 0.45559 0.10040
vt 0.44802 0.08334
vt 1.44802 0.08334
vt 1.44802 0.10040
vt 1.45559 0.08334
vt 1.45559 0.10040
vt 0.37721 0.92778
vt 0.46903 0.83595
vt 0.46903 0.92778
vt 0.37721 0.83595
vt 0.93723 0.69376
vt 0.87288 0.69376
vt 1.87288 0.69376
vt 1.93723 0.69376
vt 0.18548 0.96134
vt 0.23508 0.96134
vt 0.24062 0.98984
vt 0.17995 0.98985
vt 0.08432 0.96277
vt 0.13393 0.96277
vt 0.07880 0.99128
vt 0.13946 0.99128
vt 0.55952 0.72855
vt 0.42559 0.77605
vt 0.54874 0.69863
vt 0.41161 0.73974
vt 0.95090 0.00302
vt 0.95163 0.14617
vt 0.91910 0.00302
vt 0.91839 0.14617
vt 0.88459 0.63421
vt 0.80712 0.75733
vt 0.85468 0.62342
vt 0.84343 0.77132
vt 0.19622 0.86134
vt 0.19621 0.89556
vt 0.18501 0.89556
vt 0.18502 0.86134
vt 1.19622 0.86134
vt 1.18501 0.89556
vt 1.19621 0.89556
vt 1.18502 0.86134
vt 0.56437 0.19184
vt 0.62201 0.18963
vt 0.56436 0.14893
vt 0.62379 0.14892
vt 0.67965 0.18743
vt 0.68323 0.14891
vt 0.62200 0.10821
vt 0.56435 0.10602
vt 0.67964 0.11040
vt 0.32844 0.50555
vt 1.32844 0.50555
vt 0.49860 0.21893
vt 0.94874 0.14996
vt 0.98057 0.29207
vt 0.94876 0.29208
vt 0.98054 0.14996
vt 0.56576 0.72234
vt 1.56576 0.72234
vt 1.33283 0.78556
vt 0.33283 0.78556
vt 0.16730 0.13380
vt 0.16729 0.15693
vt 0.15972 0.15692
vt 0.15972 0.13380
vt 1.16729 0.13380
vt 1.15972 0.15692
vt 1.16729 0.15693
vt 1.15972 0.13380
vt 0.93438 0.56485
vt 0.89310 0.56485
vt 1.93438 0.56485
vt 1.89310 0.56485
vt 0.09475 0.92184
vt 0.13554 0.92184
vt 0.22465 0.92040
vt 0.18385 0.92041
vt 0.70966 0.29442
vt 0.69079 0.29442
vt 0.70966 0.27555
vt 0.69079 0.27555
vt 1.70966 0.29442
vt 1.70966 0.27555
vt 1.69079 0.29442
vt 1.69079 0.27555
vt 0.47032 0.00302
vt 0.45307 0.00308
vt 1.47032 0.00302
vt 1.45307 0.00308
vt 0.83576 0.63002
vt 0.82229 0.63006
vt 0.59041 0.44745
vt 0.57952 0.44749
vt 1.59041 0.44745
vt 1.57952 0.44749
vt 1.83576 0.63002
vt 1.82229 0.63006
vt 0.00293 0.06283
vt 0.02789 0.00296
vt 0.00295 0.23445
vt 0.02792 0.29431
vt 0.63723 0.27126
vt 0.61998 0.28850
vt 0.61998 0.27126
vt 0.63723 0.28850
vt 1.63722 0.27126
vt 1.61998 0.27126
vt 1.61998 0.28850
vt 1.63722 0.28850
vt 0.69920 0.11388
vt 0.68573 0.11388
vt 0.69920 0.10041
vt 0.68573 0.10041
vt 0.46219 0.06053
vt 0.48000 0.11458
vt 0.45433 0.06096
vt 0.49204 0.09470
vt 1.69920 0.10041
vt 1.68573 0.10041
vt 1.68573 0.11388
vt 1.69920 0.11388
vt 1.48000 0.11458
vt 1.46219 0.06053
vt 1.45433 0.06096
vt 1.49204 0.09470
vt 0.75226 0.42535
vt 0.74137 0.43624
vt 0.74137 0.42535
vt 0.75226 0.43624
vt 1.75226 0.42535
vt 1.74137 0.42535
vt 1.74137 0.43624
vt 1.75226 0.43624
vt 0.93234 0.45941
vt 0.89513 0.45941
vt 1.93234 0.45941
vt 1.89513 0.45941
vt 0.69804 0.00302
vt 0.69079 0.01352
vt 0.69079 0.00302
vt 0.69804 0.01352
vt 1.69804 0.00302
vt 1.69079 0.00302
vt 1.69079 0.01352
vt 1.69804 0.01352
vt 0.09397 0.00302
vt 0.10198 0.00302
vt 0.09397 0.01576
vt 0.10198 0.01576
vt 0.58963 0.88635
vt 0.59929 0.69198
vt 0.50143 0.06474
vt 0.54333 0.09906
vt 1.50143 0.06474
vt 1.54333 0.09906
vt 0.25124 0.96606
vt 0.30637 0.99457
vt 0.24570 0.99457
vt 0.30084 0.96607
vt 0.11448 0.23833
vt 0.10974 0.27635
vt 0.10409 0.24931
vt 0.12480 0.28232
vt 0.15159 0.26380
vt 0.15275 0.23834
vt 0.32710 0.96606
vt 0.37670 0.96605
vt 0.32157 0.99456
vt 0.38223 0.99456
vt 1.11448 0.23833
vt 1.15159 0.26380
vt 1.15275 0.23834
vt 1.12480 0.28232
vt 1.10974 0.27635
vt 1.10409 0.24931
vt 1.84472 0.06795
vt 1.84472 0.03799
vt 1.83747 0.06796
vt 1.83747 0.03799
vt 0.84472 0.03799
vt 0.83747 0.06796
vt 0.83747 0.03799
vt 0.84472 0.06795
vt 0.90400 0.84999
vt 0.81218 0.94182
vt 0.81218 0.84999
vt 0.90400 0.94182
vt 1.77258 0.45020
vt 1.76869 0.46101
vt 1.76666 0.44958
vt 1.78136 0.46234
vt 0.54844 0.15028
vt 0.45307 0.14207
vt 0.49965 0.21302
vt 0.45798 0.19324
vt 0.54409 0.20066
vt 1.54844 0.15028
vt 1.45307 0.14207
vt 1.49965 0.21302
vt 1.54409 0.20066
vt 1.45798 0.19324
vt 0.62179 0.25007
vt 1.62179 0.25007
vt 0.49631 0.00301
vt 0.54278 0.00675
vt 1.49631 0.00301
vt 1.54278 0.00675
vt 0.68714 0.08387
vt 1.68714 0.08387
vt 0.98108 0.00302
vt 0.95885 0.02060
vt 0.95885 0.00302
vt 0.99234 0.02060
vt 0.95885 0.07350
vt 0.99234 0.08924
vt 0.91194 0.12793
vt 0.85397 0.07419
vt 0.90558 0.07420
vt 0.84759 0.12792
vt 1.98108 0.00302
vt 1.95885 0.02060
vt 1.95885 0.00302
vt 1.99234 0.02060
vt 1.95885 0.07350
vt 1.99234 0.08924
vt 1.84759 0.12792
vt 1.91194 0.12793
vt 1.85397 0.07419
vt 1.90558 0.07420
vt 0.74251 0.41196
vt 1.74251 0.41196
vt 1.76666 0.48039
vt 1.77933 0.48172
vt 1.15466 0.18628
vt 1.16268 0.18628
vt 0.15466 0.18628
vt 0.16268 0.18628
vt 0.79927 0.29521
vt 0.80018 0.19868
vt 0.84273 0.19912
vt 0.74137 0.29461
vt 1.80018 0.19868
vt 1.79927 0.29521
vt 1.84273 0.19912
vt 1.74137 0.29461
vt 0.84297 0.36787
vt 0.77782 0.37480
vt 0.82293 0.39012
vt 0.79289 0.38981
vt 1.77782 0.37480
vt 1.84297 0.36787
vt 1.82293 0.39012
vt 1.79289 0.38981
vt 0.90528 0.81169
vt 0.89310 0.83358
vt 0.89310 0.81169
vt 0.90528 0.83358
vt 0.77258 0.45020
vt 0.76869 0.46101
vt 0.76666 0.44958
vt 0.78136 0.46234
vt 0.90528 0.78980
vt 0.89310 0.78980
vt 0.71103 0.93055
vt 0.71102 0.86215
vt 0.73213 0.93054
vt 0.73213 0.86215
vt 0.07778 0.95014
vt 0.00293 0.87529
vt 0.07778 0.87529
vt 0.00293 0.95014
vt 0.83825 0.62622
vt 0.82229 0.62622
vt 0.19930 0.63528
vt 0.18501 0.63528
vt 0.95458 0.57568
vt 0.93862 0.57568
vt 1.95458 0.57568
vt 1.93862 0.57568
vt 1.19930 0.63528
vt 1.18501 0.63528
vt 1.83825 0.62622
vt 1.82229 0.62622
vt 0.15202 0.74877
vt 0.13443 0.72654
vt 0.15202 0.72654
vt 0.13443 0.76003
vt 1.15202 0.74877
vt 1.13443 0.72654
vt 1.15202 0.72654
vt 1.13443 0.76003
vt 0.07265 0.10571
vt 0.00298 0.14864
vt 0.00296 0.10574
vt 0.07791 0.14863
vt 0.07266 0.19156
vt 0.00297 0.19154
vt 0.10750 0.10569
vt 0.11537 0.14863
vt 0.10751 0.19157
vt 0.76666 0.48039
vt 0.77933 0.48172
vt 0.14235 0.10567
vt 0.15284 0.14862
vt 0.14236 0.19158
vt 0.98173 0.85820
vt 0.91333 0.78980
vt 0.98173 0.78980
vt 0.91334 0.85820
vt 0.25670 0.92523
vt 0.29750 0.92524
vt 0.37123 0.92522
vt 0.33044 0.92523
vt 0.13187 0.06271
vt 0.13189 0.23454
vt 0.62839 0.02512
vt 0.62839 0.03858
vt 0.61492 0.02512
vt 0.61493 0.03859
vt 1.62839 0.02512
vt 1.61492 0.02512
vt 1.62839 0.03858
vt 1.61493 0.03859
vt 0.67263 0.27628
vt 0.67265 0.29352
vt 0.65539 0.27630
vt 0.65541 0.29355
vt 1.67265 0.29352
vt 1.65539 0.27630
vt 1.65541 0.29355
vt 1.67263 0.27628
vt 0.09475 0.27192
vt 0.09475 0.28282
vt 0.08385 0.27192
vt 0.08386 0.28282
vt 1.09475 0.28282
vt 1.08385 0.27192
vt 1.08386 0.28282
vt 1.09475 0.27192
vt 0.56676 0.79728
vt 0.54917 0.77505
vt 0.56676 0.77505
vt 0.54917 0.80854
vt 1.56675 0.79728
vt 1.54917 0.77505
vt 1.56675 0.77505
vt 1.54917 0.80854
vt 0.69585 0.72540
vt 0.70674 0.72540
vt 0.70129 0.73768
vt 1.69585 0.72540
vt 1.70129 0.73768
vt 1.70674 0.72540
vt 0.00293 0.46351
vt 0.03289 0.38865
vt 0.03289 0.46351
vt 0.00293 0.38865
vt 0.70674 0.71451
vt 0.69585 0.71450
vt 1.70674 0.71451
vt 1.69585 0.71450
vt 0.15972 0.74001
vt 0.17319 0.74001
vt 0.16645 0.75519
vt 1.15972 0.74001
vt 1.16645 0.75519
vt 1.17319 0.74001
vt 0.97556 0.43878
vt 0.97556 0.37014
vt 0.99152 0.37014
vt 0.99152 0.43878
vt 0.97222 0.43878
vt 0.97222 0.37014
vt 0.95793 0.43878
vt 0.95793 0.37014
vt 0.95458 0.43878
vt 0.95458 0.37014
vt 0.93862 0.43878
vt 0.93862 0.37014
vt 1.97556 0.43878
vt 1.97556 0.37014
vt 1.99152 0.37014
vt 1.99152 0.43878
vt 1.97222 0.43878
vt 1.97222 0.37014
vt 1.95793 0.43878
vt 1.95793 0.37014
vt 1.95458 0.43878
vt 1.95458 0.37014
vt 1.93862 0.43878
vt 1.93862 0.37014
vt 1.00293 0.02251
vt 1.00293 0.00302
vt 1.01094 0.00302
vt 1.01094 0.02251
vt 0.44798 0.99224
vt 0.38733 0.93157
vt 0.44799 0.93158
vt 0.38732 0.99224
vt 0.99424 0.99706
vt 0.93356 0.93641
vt 0.99423 0.93640
vt 0.93357 0.99707
vt 0.17319 0.72655
vt 0.15972 0.72654
vt 0.78497 0.49634
vt 0.76666 0.53779
vt 0.76666 0.49174
vt 0.78496 0.54238
vt 1.17319 0.72655
vt 1.15972 0.72654
vt 1.76666 0.53779
vt 1.78497 0.49634
vt 1.76666 0.49174
vt 1.78496 0.54238
vt 0.76666 0.15457
vt 0.78390 0.15457
vt 0.77528 0.17401
vt 1.76666 0.15457
vt 1.77528 0.17401
vt 1.78390 0.15457
vt 0.42273 0.81676
vt 0.45088 0.77983
vt 0.45696 0.81676
vt 0.42273 0.77984
vt 1.42273 0.81676
vt 1.45088 0.77983
vt 1.42273 0.77984
vt 1.45696 0.81676
vt 0.64021 0.47852
vt 0.65727 0.45356
vt 0.66334 0.47852
vt 0.64021 0.45356
vt 1.64021 0.47852
vt 1.65727 0.45356
vt 1.64021 0.45356
vt 1.66334 0.47852
vt 0.35903 0.69478
vt 0.33674 0.66862
vt 0.35903 0.66555
vt 0.33675 0.69411
vt 1.33674 0.66862
vt 1.35903 0.69478
vt 1.35903 0.66555
vt 1.33675 0.69411
vt 0.88491 0.50754
vt 0.86276 0.46538
vt 0.88492 0.46366
vt 0.86276 0.50365
vt 1.88491 0.50754
vt 1.86276 0.46538
vt 1.86276 0.50365
vt 1.88492 0.46366
vt 0.01094 0.00302
vt 0.01094 0.02251
vt 0.00293 0.02251
vt 0.00293 0.00302
vt 0.78390 0.13733
vt 0.76666 0.13733
vt 1.78390 0.13733
vt 1.76666 0.13733
vt 0.79195 0.53243
vt 0.80284 0.53243
vt 0.79195 0.54332
vt 0.80284 0.54332
vt 1.79195 0.53243
vt 1.79195 0.54332
vt 1.80284 0.53243
vt 1.80284 0.54332
vt 0.48956 0.86943
vt 0.47837 0.83250
vt 0.48957 0.83250
vt 0.47836 0.86942
vt 1.47837 0.83250
vt 1.47836 0.86942
vt 1.48956 0.86943
vt 1.48957 0.83250
vt 0.84758 0.22993
vt 0.91194 0.17938
vt 0.91194 0.22994
vt 0.84759 0.17937
vt 1.84758 0.22993
vt 1.91194 0.17938
vt 1.84759 0.17937
vt 1.91193 0.22994
vt 0.79739 0.52015
vt 1.79739 0.52015
vt 0.83241 0.10634
vt 0.83998 0.13130
vt 0.83241 0.13130
vt 0.83998 0.10634
vt 1.83241 0.10634
vt 1.83241 0.13130
vt 1.83998 0.13130
vt 1.83998 0.10634
vt 0.14455 0.21847
vt 0.15802 0.21847
vt 0.14455 0.23194
vt 0.15802 0.23194
vt 1.14455 0.21847
vt 1.14455 0.23194
vt 1.15802 0.21847
vt 1.15802 0.23194
vt 0.99686 0.44890
vt 0.97909 0.48861
vt 0.97908 0.44256
vt 0.99686 0.49494
vt 1.99686 0.44890
vt 1.97909 0.48861
vt 1.99686 0.49494
vt 1.97908 0.44256
vt 0.15128 0.20329
vt 1.15128 0.20329
vt 0.74137 0.35897
vt 0.75861 0.35896
vt 0.74137 0.37621
vt 0.75861 0.37621
vt 1.75861 0.35896
vt 1.74137 0.37621
vt 1.75861 0.37621
vt 1.74137 0.35897
vt 0.74999 0.33953
vt 1.74999 0.33953
vt 0.44296 0.10447
vt 0.45942 0.11874
vt 0.44607 0.12614
vt 0.46485 0.10448
vt 0.88555 0.34810
vt 0.84995 0.30814
vt 0.88319 0.30814
vt 0.84758 0.34810
vt 0.90301 0.00302
vt 0.85655 0.00302
vt 1.90301 0.00302
vt 1.85655 0.00302
vt 0.84472 0.00302
vt 0.84472 0.02709
vt 0.83747 0.02710
vt 0.83747 0.00302
vt 1.84472 0.02709
vt 1.84472 0.00302
vt 1.83747 0.02710
vt 1.83747 0.00302
vt 0.88444 0.58310
vt 0.85264 0.61490
vt 0.85264 0.58309
vt 0.88444 0.61490
vt 0.87827 0.38078
vt 0.85485 0.38078
vn 0.9134 0.4094 0.0000
vn 0.9055 -0.4252 0.0000
vn 0.8504 -0.5197 0.0000
vn 0.9921 0.1417 0.0000
vn 0.9843 0.1811 0.0000
vn 0.9921 -0.1417 0.0000
vn -0.4016 0.8898 0.2283
vn -0.4016 0.8898 -0.2283
vn -0.3543 0.9213 0.1496
vn -0.3307 0.9291 0.1417
vn -0.3307 0.9291 -0.1417
vn -0.3543 0.9213 -0.1496
vn -0.3307 0.9291 0.1654
vn -0.3307 0.9291 -0.1654
vn 0.7480 -0.6614 0.0000
vn 0.1496 0.9843 -0.0236
vn 0.1496 0.9843 0.0236
vn 0.1417 0.9843 0.0787
vn 0.1417 0.9843 -0.0787
vn 0.1575 0.9843 0.0787
vn 0.1575 0.9843 -0.0787
vn 0.1339 0.5669 0.8110
vn 0.1339 0.5669 -0.8110
vn 0.1181 0.7323 0.6772
vn 0.1181 0.7323 -0.6772
vn -1.0000 0.0000 0.0000
vn -0.9291 0.3622 0.0000
vn 0.8583 0.5118 0.0000
vn 0.7717 -0.6378 0.0000
vn 0.0000 0.9685 -0.2598
vn 0.0000 0.9685 0.2598
vn -0.0472 0.9843 -0.1575
vn -0.0472 0.9843 0.1575
vn -0.0315 0.8740 0.4882
vn -0.0315 0.8740 -0.4882
vn -0.0709 0.9685 -0.2283
vn -0.0709 0.9685 0.2283
vn 0.1811 -0.9843 0.0000
vn -0.2441 0.9528 -0.1654
vn -0.2441 0.9528 0.1654
vn -0.1890 0.5827 0.7874
vn -0.1890 0.5827 -0.7874
vn 0.9921 -0.1024 0.0000
vn -0.9528 -0.2992 0.0000
vn -0.1968 0.9685 -0.1732
vn -0.1968 0.9685 0.1732
vn -0.2441 0.9606 0.1339
vn -0.2283 0.9606 -0.1260
vn -0.1024 -0.9921 0.0000
vn -0.3071 0.9528 -0.0157
vn 0.3465 0.9370 0.0000
vn 0.0000 -1.0000 0.0000
vn -0.9055 -0.4252 0.0000
vn -0.9528 0.0000 0.3071
vn -0.9528 0.0000 -0.3071
vn -0.9370 0.0000 0.3465
vn -0.9370 0.0000 -0.3465
vn 0.0945 -0.0787 -0.9921
vn 0.0945 -0.0787 0.9921
vn -0.9685 0.0079 0.2520
vn -0.9685 0.0079 -0.2520
vn -0.9685 0.0000 0.2441
vn -0.9685 0.0000 -0.2441
vn 0.0000 0.9213 -0.3937
vn 0.0000 0.9213 0.3937
vn 0.0000 0.3465 0.9370
vn 0.0000 0.3465 -0.9370
vn 0.3150 0.9528 0.0000
vn -0.0551 1.0000 0.0709
vn -0.0472 1.0000 -0.0709
vn -0.3307 0.9134 -0.2283
vn -0.8268 0.0394 0.5591
vn -0.8268 0.0394 -0.5591
vn 0.0000 -0.2047 0.9764
vn 0.0000 -0.2047 -0.9764
vn -0.2913 0.9213 0.2598
vn 0.0000 0.9370 -0.3465
vn 0.0000 0.9370 0.3465
vn 0.0000 0.0000 -1.0000
vn 0.0000 0.0000 1.0000
vn -0.9606 -0.1024 0.2598
vn -0.9606 -0.1024 -0.2598
vn -0.1890 0.0157 0.9843
vn -0.1890 0.0157 -0.9843
vn 0.0000 -0.0394 -1.0000
vn 0.0000 -0.0394 1.0000
vn -0.4882 -0.0079 -0.8740
vn -0.8268 -0.0866 0.5512
vn -0.8268 -0.0945 -0.5512
vn 0.0000 -0.0236 1.0000
vn 0.0000 -0.0236 -1.0000
vn 0.0000 1.0000 0.0000
vn 0.1890 0.9843 0.0000
vn -0.7008 0.0472 0.7087
vn -0.7008 0.0472 -0.7087
vn -0.3307 0.9449 0.0000
vn -0.7795 -0.6220 0.0000
vn -0.0157 0.0709 -1.0000
vn -0.0236 0.0630 -1.0000
vn -0.1968 0.1732 0.9685
vn -0.0157 0.0709 1.0000
vn -0.1968 0.1732 -0.9685
vn -0.8661 0.0315 0.5039
vn -0.8661 0.0315 -0.5039
vn 0.9606 0.2677 0.0000
vn -0.1181 0.0157 0.9921
vn -0.2756 -0.0551 0.9606
vn 1.0000 -0.0551 0.0000
vn 0.8583 -0.5118 0.0000
vn -0.1339 0.1732 0.9764
vn -0.1339 0.1732 -0.9764
vn -0.9764 0.1968 0.0000
vn 1.0000 0.0000 0.0000
vn -0.0630 1.0000 0.0000
vn 0.7087 0.0551 -0.7087
vn 0.7087 0.0551 0.7087
vn -0.1181 0.3858 0.9134
vn -0.1181 0.3858 -0.9134
vn 0.2520 -0.9685 0.0000
vn -0.9921 0.1024 0.0000
vn 0.7008 0.7165 0.0000
vn -0.3228 0.9449 0.0000
vn 0.9055 0.4252 0.0000
vn 0.8583 0.0394 0.5039
vn 0.8583 0.0394 -0.5039
vn -0.0236 -1.0000 0.0000
vn -0.8740 -0.4882 0.0000
vn 0.0000 0.1811 -0.9843
vn -0.7480 0.6614 0.0000
vn 0.0000 0.1811 0.9843
vn 0.1260 0.5276 -0.8346
vn 0.1260 0.5276 0.8346
vn 0.1260 -0.5197 0.8425
vn 0.1260 -0.5197 -0.8425
vn 0.1496 -0.3465 -0.9291
vn 0.1496 -0.3465 0.9291
vn -0.3071 0.0000 -0.9528
vn -0.3071 0.0000 0.9528
vn -0.3465 0.9370 0.0000
vn -0.1968 -0.1732 -0.9685
vn -0.1968 -0.1732 0.9685
vn -0.0079 -0.0157 1.0000
vn -0.2992 0.9528 0.0000
vn -0.0079 -0.0157 -1.0000
vn 0.3071 0.0000 0.9528
vn 0.3071 0.0000 -0.9528
vn 0.0000 -0.4094 0.9134
vn 0.0000 -0.4094 -0.9134
vn 0.8189 0.0394 0.5748
vn 0.8189 0.0394 -0.5748
vn -0.8504 -0.5276 0.0000
vn -0.0787 -0.1732 0.9843
vn -0.0787 -0.1732 -0.9843
vn 0.1968 -0.8425 0.5039
vn 0.1968 -0.8425 -0.5039
vn -0.9134 0.4016 0.0000
vn 0.0236 -0.6850 0.7323
vn 0.0236 -0.6850 -0.7323
vn -0.1968 -0.9685 0.1732
vn -0.1968 -0.9685 -0.1732
vn 0.0000 -0.5354 -0.8425
vn 0.0000 -0.5354 0.8425
vn -0.5591 -0.8268 0.0000
vn -0.5984 0.8032 0.0000
vn 0.0000 -0.6535 -0.7559
vn 0.0000 -0.6535 0.7559
vn -0.5433 0.8425 0.0000
vn 0.2047 -0.9764 -0.0157
vn 0.2047 -0.9764 0.0157
vn 0.2205 -0.9764 -0.0157
vn 0.2047 -0.9764 -0.0315
vn 0.2047 -0.9764 0.0315
vn 0.2205 -0.9764 0.0157
vn 0.2047 -0.9764 -0.0472
vn 0.2047 -0.9764 0.0472
vn 0.3307 -0.9449 0.0000
vn 0.0394 -0.9843 0.1732
vn 0.2205 -0.9764 -0.0315
vn 0.0394 -0.9843 -0.1732
vn 0.2205 -0.9764 0.0315
vn 0.2205 -0.9764 -0.0472
vn 0.2205 -0.9764 0.0472
vn 0.2992 -0.9528 0.0000
vn 0.9213 0.3858 0.0000
vn 0.9528 0.2992 0.0000
vn 0.1024 0.9921 0.0000
vn 0.9370 0.0000 -0.3465
vn 0.9370 0.0000 0.3465
vn 0.9528 0.0000 -0.3071
vn 0.9528 0.0000 0.3071
vn 0.1654 -0.3465 -0.9213
vn 0.1654 -0.3465 0.9213
vn 0.1339 -0.9134 0.3858
vn 0.1339 -0.9134 -0.3858
vn 0.9921 -0.0945 0.0000
vn -0.9843 -0.1811 0.0000
vn 0.0000 -0.9685 0.2598
vn 0.0000 -0.9685 -0.2598
vn -0.7638 0.6457 0.0000
vn -0.8583 0.5118 0.0000
vn 0.0000 -0.5748 -0.8189
vn 0.0000 -0.5748 0.8189
vn 0.0000 -1.0000 0.0236
vn 0.0000 -1.0000 -0.0236
vn -0.9685 -0.2520 0.0000

o animal_tiger
usemtl tex_animal_tiger_i032p001x
f 1/1/1 2/2/1 3/3/1
f 1/1/1 4/4/1 2/2/1
f 5/5/2 6/6/2 7/7/2
f 7/7/2 8/8/2 5/5/2
f 9/9/2 8/8/2 7/7/2
f 8/8/2 9/9/2 10/10/2
f 10/10/2 9/9/2 11/11/2
f 11/11/2 12/12/2 10/10/2
f 13/13/2 12/12/2 11/11/2
f 12/12/2 13/13/2 14/14/2
f 14/14/2 13/13/2 15/15/2
f 15/15/2 16/16/2 14/14/2
f 17/13/2 18/14/2 19/15/2
f 19/15/2 18/14/2 20/16/2
f 17/13/2 21/12/2 18/14/2
f 22/11/2 21/12/2 17/13/2
f 22/11/2 23/10/2 21/12/2
f 24/9/2 23/10/2 22/11/2
f 24/9/2 25/8/2 23/10/2
f 26/7/2 25/8/2 24/9/2
f 26/7/2 27/5/2 25/8/2
f 28/6/2 27/5/2 26/7/2
f 29/17/3 30/18/3 31/19/3
f 29/17/3 32/20/3 30/18/3
f 33/21/3 34/22/3 35/23/3
f 34/22/3 33/21/3 36/24/3
f 37/25/4 38/26/4 39/27/4
f 40/28/4 39/27/4 38/26/4
f 41/29/5 42/30/5 43/31/5
f 42/30/5 44/32/5 43/31/5
f 45/33/5 46/34/5 47/35/5
f 46/34/5 45/33/5 48/36/5
f 49/37/6 50/38/6 37/25/6
f 38/26/6 37/25/6 50/38/6
f 51/39/7 52/40/7 53/41/7
f 54/42/7 53/41/7 52/40/7
f 55/43/8 56/44/8 57/45/8
f 56/44/8 55/43/8 58/46/8
f 51/39/9 59/47/9 60/48/9
f 52/40/9 51/39/9 60/48/9
f 61/49/10 52/40/10 62/50/10
f 52/40/10 60/48/10 62/50/10
f 62/50/11 55/43/11 61/49/11
f 55/43/11 62/50/11 63/51/11
f 63/51/12 58/46/12 55/43/12
f 58/46/12 63/51/12 64/52/12
f 65/53/13 54/42/13 61/49/13
f 54/42/13 52/40/13 61/49/13
f 61/49/14 57/45/14 65/53/14
f 57/45/14 61/49/14 55/43/14
f 66/54/15 4/4/15 1/1/15
f 67/55/15 4/4/15 66/54/15
f 68/56/16 69/57/16 70/58/16
f 69/57/16 68/56/16 71/59/16
f 72/60/17 73/61/17 74/62/17
f 73/61/17 72/60/17 75/63/17
f 76/64/18 62/50/18 60/48/18
f 60/48/18 77/65/18 76/64/18
f 76/64/19 63/51/19 62/50/19
f 63/51/19 76/64/19 78/66/19
f 60/48/20 59/47/20 77/65/20
f 59/47/20 79/67/20 77/65/20
f 78/66/21 64/52/21 63/51/21
f 64/52/21 78/66/21 80/68/21
f 71/59/22 81/69/22 82/70/22
f 81/69/22 71/59/22 68/56/22
f 75/63/23 83/71/23 73/61/23
f 83/71/23 75/63/23 84/72/23
f 79/67/24 59/47/24 85/73/24
f 64/52/25 80/68/25 86/74/25
f 87/75/26 88/76/26 89/77/26
f 87/75/26 89/77/26 90/78/26
f 91/79/26 92/80/26 93/81/26
f 92/80/26 91/79/26 94/82/26
f 95/83/26 96/84/26 97/85/26
f 96/84/26 95/83/26 98/86/26
f 99/87/27 100/88/27 101/89/27
f 102/90/27 103/91/27 104/92/27
f 105/93/26 106/94/26 107/95/26
f 106/94/26 105/93/26 108/96/26
f 109/97/26 110/98/26 111/99/26
f 109/97/26 112/100/26 110/98/26
f 30/18/28 113/101/28 31/19/28
f 113/101/28 30/18/28 114/102/28
f 115/103/26 116/104/26 117/105/26
f 116/104/26 115/103/26 118/106/26
f 34/22/28 119/107/28 120/108/28
f 119/107/28 34/22/28 36/24/28
f 113/101/29 114/102/29 41/29/29
f 42/30/29 41/29/29 114/102/29
f 120/108/29 47/35/29 46/34/29
f 47/35/29 120/108/29 119/107/29
f 121/109/30 122/110/30 123/111/30
f 124/112/30 123/111/30 122/110/30
f 125/113/31 126/114/31 127/115/31
f 125/113/31 127/115/31 128/116/31
f 129/117/32 130/118/32 131/119/32
f 130/118/32 129/117/32 132/120/32
f 133/121/33 134/122/33 135/123/33
f 134/122/33 133/121/33 136/124/33
f 137/125/27 138/126/27 139/127/27
f 140/128/27 141/129/27 142/130/27
f 143/131/26 144/132/26 145/133/26
f 144/132/26 143/131/26 146/134/26
f 147/135/34 148/136/34 149/137/34
f 150/138/26 151/139/26 152/140/26
f 150/138/26 153/141/26 151/139/26
f 154/142/35 155/143/35 156/144/35
f 157/145/36 158/146/36 159/147/36
f 158/146/36 157/145/36 160/148/36
f 161/149/37 162/150/37 163/151/37
f 162/150/37 161/149/37 164/152/37
f 165/153/38 166/154/38 167/155/38
f 166/154/38 168/156/38 167/155/38
f 169/154/38 170/156/38 171/155/38
f 172/153/38 169/154/38 171/155/38
f 173/153/38 174/154/38 175/155/38
f 174/154/38 176/156/38 175/155/38
f 177/155/38 178/154/38 179/153/38
f 178/154/38 177/155/38 180/156/38
f 181/155/38 182/154/38 183/153/38
f 182/154/38 181/155/38 184/156/38
f 185/155/38 186/154/38 187/153/38
f 186/154/38 185/155/38 188/156/38
f 189/157/39 94/158/39 91/159/39
f 94/158/39 189/157/39 190/160/39
f 191/161/40 95/162/40 192/163/40
f 95/162/40 191/161/40 98/164/40
f 148/165/41 193/166/41 194/167/41
f 195/168/42 154/169/42 196/170/42
f 197/171/27 198/172/27 199/173/27
f 200/174/27 201/175/27 202/176/27
f 203/177/43 204/178/43 205/179/43
f 204/178/43 206/180/43 205/179/43
f 207/177/43 208/178/43 209/179/43
f 208/178/43 210/180/43 209/179/43
f 211/177/43 212/178/43 213/179/43
f 212/178/43 214/180/43 213/179/43
f 215/177/43 216/179/43 217/178/43
f 217/178/43 216/179/43 218/180/43
f 219/178/43 220/179/43 221/180/43
f 222/177/43 220/179/43 219/178/43
f 223/177/43 224/179/43 225/178/43
f 225/178/43 224/179/43 226/180/43
f 100/88/44 99/87/44 227/181/44
f 99/87/44 228/182/44 227/181/44
f 190/160/45 189/157/45 229/183/45
f 190/160/45 229/183/45 230/184/45
f 102/90/44 231/185/44 232/186/44
f 104/92/44 231/185/44 102/90/44
f 191/161/46 192/163/46 233/187/46
f 234/188/46 233/187/46 192/163/46
f 235/189/47 236/190/47 237/191/47
f 236/190/47 235/189/47 238/192/47
f 239/193/48 238/192/48 235/189/48
f 238/192/48 239/193/48 240/194/48
f 241/154/49 242/195/49 243/156/49
f 242/195/49 241/154/49 244/196/49
f 245/197/49 246/198/49 247/199/49
f 246/198/49 245/197/49 248/200/49
f 249/154/49 250/195/49 251/156/49
f 250/195/49 249/154/49 252/196/49
f 253/201/26 254/202/26 255/203/26
f 254/202/26 253/201/26 256/204/26
f 193/166/50 148/165/50 257/205/50
f 258/154/49 259/195/49 260/196/49
f 261/156/49 259/195/49 258/154/49
f 262/154/49 263/195/49 264/196/49
f 265/156/49 263/195/49 262/154/49
f 266/156/49 267/195/49 268/154/49
f 268/154/49 267/195/49 269/196/49
f 270/206/26 271/207/26 272/208/26
f 270/206/26 273/209/26 271/207/26
f 274/210/51 43/211/51 44/212/51
f 275/213/51 274/210/51 44/212/51
f 48/214/51 276/215/51 277/216/51
f 276/215/51 48/214/51 45/217/51
f 278/218/52 279/219/52 280/220/52
f 278/218/52 281/221/52 279/219/52
f 279/219/52 282/222/52 280/220/52
f 282/222/52 279/219/52 283/223/52
f 283/223/52 279/219/52 284/224/52
f 284/224/52 285/225/52 283/223/52
f 286/226/52 285/225/52 284/224/52
f 287/227/52 286/226/52 284/224/52
f 287/227/52 288/228/52 286/226/52
f 285/225/52 286/226/52 289/229/52
f 289/229/52 286/226/52 290/230/52
f 290/230/52 291/231/52 289/229/52
f 292/232/52 291/231/52 290/230/52
f 291/231/52 292/232/52 293/233/52
f 294/234/52 292/232/52 290/230/52
f 294/234/52 295/235/52 292/232/52
f 296/236/52 297/237/52 298/238/52
f 296/236/52 299/239/52 297/237/52
f 297/237/52 6/240/52 298/238/52
f 6/240/52 297/237/52 7/241/52
f 7/241/52 297/237/52 300/242/52
f 300/242/52 9/243/52 7/241/52
f 301/244/52 9/243/52 300/242/52
f 302/245/52 301/244/52 300/242/52
f 302/245/52 303/246/52 301/244/52
f 9/243/52 301/244/52 11/247/52
f 11/247/52 301/244/52 304/248/52
f 304/248/52 13/249/52 11/247/52
f 305/250/52 13/249/52 304/248/52
f 13/249/52 305/250/52 15/251/52
f 306/252/52 305/250/52 304/248/52
f 306/252/52 307/253/52 305/250/52
f 308/252/52 309/250/52 310/253/52
f 309/250/52 308/252/52 311/248/52
f 311/248/52 312/249/52 309/250/52
f 309/250/52 312/249/52 313/251/52
f 311/248/52 314/247/52 312/249/52
f 314/247/52 311/248/52 315/244/52
f 315/244/52 316/243/52 314/247/52
f 317/242/52 316/243/52 315/244/52
f 317/242/52 318/241/52 316/243/52
f 315/244/52 319/245/52 317/242/52
f 319/245/52 315/244/52 320/246/52
f 318/241/52 317/242/52 321/237/52
f 321/237/52 322/240/52 318/241/52
f 323/238/52 322/240/52 321/237/52
f 321/237/52 324/236/52 323/238/52
f 324/236/52 321/237/52 325/239/52
f 326/252/52 327/250/52 328/253/52
f 327/250/52 326/252/52 329/248/52
f 329/248/52 17/249/52 327/250/52
f 327/250/52 17/249/52 19/251/52
f 329/248/52 22/247/52 17/249/52
f 330/244/52 22/247/52 329/248/52
f 330/244/52 24/243/52 22/247/52
f 331/242/52 24/243/52 330/244/52
f 331/242/52 26/241/52 24/243/52
f 330/244/52 332/245/52 331/242/52
f 332/245/52 330/244/52 333/246/52
f 334/237/52 26/241/52 331/242/52
f 334/237/52 28/240/52 26/241/52
f 335/238/52 28/240/52 334/237/52
f 334/237/52 336/236/52 335/238/52
f 336/236/52 334/237/52 337/239/52
f 338/254/53 339/255/53 340/256/53
f 339/255/53 338/254/53 341/257/53
f 158/258/54 342/259/54 159/260/54
f 342/259/54 158/258/54 343/261/54
f 162/262/55 344/263/55 345/264/55
f 162/262/55 164/265/55 344/263/55
f 124/266/56 346/267/56 123/268/56
f 346/267/56 124/266/56 347/269/56
f 126/270/57 348/271/57 349/272/57
f 126/270/57 125/273/57 348/271/57
f 119/274/58 350/275/58 351/276/58
f 350/275/58 119/274/58 36/277/58
f 113/278/59 352/279/59 353/280/59
f 31/281/59 113/278/59 353/280/59
f 354/282/54 130/283/54 355/284/54
f 130/283/54 354/282/54 131/285/54
f 134/286/55 356/287/55 357/288/55
f 134/286/55 136/289/55 356/287/55
f 358/290/60 359/291/60 360/292/60
f 359/291/60 358/290/60 236/293/60
f 361/294/61 362/295/61 363/296/61
f 362/295/61 361/294/61 240/297/61
f 236/293/62 364/298/62 359/291/62
f 364/298/62 236/293/62 238/299/62
f 240/297/63 364/298/63 238/299/63
f 364/298/63 240/297/63 361/294/63
f 138/126/44 137/125/44 365/300/44
f 137/125/44 366/301/44 365/300/44
f 140/128/44 367/302/44 368/303/44
f 367/302/44 140/128/44 142/130/44
f 369/304/52 370/305/52 371/306/52
f 370/305/52 369/304/52 372/307/52
f 373/308/64 374/309/64 375/310/64
f 373/308/64 375/310/64 376/311/64
f 377/312/52 378/313/52 379/314/52
f 377/312/52 380/315/52 378/313/52
f 381/316/65 382/317/65 383/318/65
f 384/319/65 383/318/65 382/317/65
f 385/320/66 373/321/66 376/322/66
f 385/320/66 376/322/66 386/323/66
f 383/324/67 387/325/67 381/326/67
f 388/327/67 381/326/67 387/325/67
f 389/328/68 390/329/68 391/330/68
f 392/331/68 389/328/68 391/330/68
f 393/332/69 236/190/69 358/333/69
f 236/190/69 393/332/69 237/191/69
f 240/194/70 394/334/70 362/335/70
f 394/334/70 240/194/70 239/193/70
f 166/154/49 203/195/49 168/156/49
f 203/195/49 166/154/49 204/196/49
f 169/154/49 207/195/49 170/156/49
f 207/195/49 169/154/49 208/196/49
f 395/336/52 32/337/52 29/338/52
f 396/339/52 32/337/52 395/336/52
f 174/154/49 211/195/49 176/156/49
f 211/195/49 174/154/49 212/196/49
f 178/154/49 215/195/49 217/196/49
f 180/156/49 215/195/49 178/154/49
f 397/340/52 398/341/52 35/342/52
f 398/341/52 33/343/52 35/342/52
f 184/156/49 222/195/49 182/154/49
f 182/154/49 222/195/49 219/196/49
f 188/156/49 223/195/49 186/154/49
f 186/154/49 223/195/49 225/196/49
f 193/166/71 393/332/71 358/333/71
f 393/332/71 193/166/71 257/205/71
f 399/153/38 241/154/38 400/155/38
f 241/154/38 243/156/38 400/155/38
f 245/197/38 247/199/38 401/344/38
f 402/345/38 245/197/38 401/344/38
f 403/153/38 249/154/38 404/155/38
f 249/154/38 251/156/38 404/155/38
f 405/155/38 258/154/38 406/153/38
f 258/154/38 405/155/38 261/156/38
f 407/155/38 262/154/38 408/153/38
f 262/154/38 407/155/38 265/156/38
f 409/155/38 268/154/38 410/153/38
f 268/154/38 409/155/38 266/156/38
f 193/346/72 411/347/72 194/348/72
f 412/349/73 195/168/73 196/170/73
f 352/279/74 413/350/74 414/351/74
f 414/351/74 353/280/74 352/279/74
f 415/352/75 416/353/75 351/276/75
f 415/352/75 351/276/75 350/275/75
f 195/354/76 362/335/76 394/334/76
f 89/355/77 417/356/77 418/357/77
f 90/358/77 89/355/77 418/357/77
f 198/172/44 197/171/44 419/359/44
f 197/171/44 420/360/44 419/359/44
f 89/355/78 88/361/78 417/356/78
f 88/361/78 421/362/78 417/356/78
f 200/174/44 422/363/44 423/364/44
f 422/363/44 200/174/44 202/176/44
f 424/365/79 119/274/79 416/353/79
f 416/353/79 119/274/79 351/276/79
f 424/365/79 47/366/79 119/274/79
f 47/366/79 424/365/79 276/367/79
f 276/367/79 424/365/79 425/368/79
f 47/366/79 276/367/79 45/369/79
f 413/350/80 113/278/80 426/370/80
f 113/278/80 413/350/80 352/279/80
f 41/371/80 426/370/80 113/278/80
f 426/370/80 41/371/80 274/372/80
f 274/372/80 41/371/80 43/373/80
f 426/370/80 274/372/80 427/374/80
f 54/375/81 235/376/81 237/377/81
f 65/378/81 235/376/81 54/375/81
f 57/379/82 235/376/82 65/378/82
f 235/376/82 57/379/82 239/380/82
f 400/381/83 243/382/83 428/383/83
f 243/382/83 429/384/83 428/383/83
f 430/383/84 266/382/84 409/381/84
f 266/382/84 430/383/84 431/384/84
f 415/352/85 33/385/85 398/386/85
f 33/385/85 415/352/85 350/275/85
f 36/277/85 33/385/85 350/275/85
f 29/387/86 414/351/86 395/388/86
f 414/351/86 29/387/86 353/280/86
f 29/387/86 31/281/86 353/280/86
f 56/389/87 195/390/87 394/391/87
f 195/390/87 56/389/87 58/392/87
f 54/375/88 237/377/88 53/393/88
f 53/393/88 237/377/88 393/394/88
f 432/395/80 278/396/80 280/397/80
f 280/397/80 433/398/80 432/395/80
f 433/398/80 280/397/80 282/399/80
f 433/398/80 282/399/80 434/400/80
f 435/401/80 296/402/80 298/403/80
f 298/403/80 436/404/80 435/401/80
f 436/404/80 298/403/80 6/405/80
f 436/404/80 6/405/80 5/406/80
f 437/401/79 323/403/79 324/402/79
f 323/403/79 437/401/79 438/404/79
f 438/404/79 322/405/79 323/403/79
f 438/404/79 439/406/79 322/405/79
f 440/401/79 335/403/79 336/402/79
f 335/403/79 440/401/79 441/404/79
f 441/404/79 28/405/79 335/403/79
f 441/404/79 27/406/79 28/405/79
f 56/407/89 239/380/89 57/379/89
f 239/380/89 56/407/89 394/408/89
f 442/409/90 371/410/90 370/411/90
f 442/409/90 370/411/90 443/412/90
f 444/413/91 378/414/91 380/415/91
f 444/413/91 445/416/91 378/414/91
f 431/384/79 267/417/79 266/382/79
f 267/417/79 431/384/79 446/418/79
f 447/419/79 444/413/79 448/420/79
f 444/413/79 447/419/79 445/416/79
f 447/419/79 448/420/79 449/421/79
f 447/419/79 449/421/79 450/422/79
f 451/384/79 223/417/79 188/382/79
f 223/417/79 451/384/79 224/418/79
f 429/384/80 243/382/80 242/417/80
f 429/384/80 242/417/80 452/418/80
f 453/423/80 454/424/80 442/409/80
f 443/412/80 453/423/80 442/409/80
f 454/424/80 453/423/80 455/425/80
f 455/425/80 453/423/80 456/426/80
f 457/384/80 168/382/80 203/417/80
f 457/384/80 203/417/80 205/418/80
f 117/427/92 458/428/92 459/429/92
f 115/430/92 117/427/92 459/429/92
f 460/431/93 461/432/93 462/433/93
f 463/434/93 460/431/93 462/433/93
f 59/435/94 148/436/94 85/437/94
f 154/169/95 64/438/95 86/439/95
f 338/440/96 464/441/96 465/442/96
f 341/443/96 338/440/96 465/442/96
f 466/444/93 467/445/93 468/446/93
f 469/447/93 466/444/93 468/446/93
f 106/94/97 108/96/97 470/448/97
f 110/98/97 471/449/97 111/99/97
f 401/450/83 247/451/83 472/452/83
f 247/451/83 473/453/83 472/452/83
f 474/383/84 265/382/84 407/381/84
f 265/382/84 474/383/84 475/384/84
f 412/349/98 362/454/98 195/168/98
f 362/454/98 412/349/98 363/455/98
f 58/456/99 154/169/99 195/168/99
f 154/169/99 58/456/99 64/438/99
f 189/457/100 476/458/100 477/459/100
f 189/457/100 477/459/100 229/460/100
f 358/461/101 360/462/101 411/347/101
f 411/347/101 193/346/101 358/461/101
f 478/463/102 191/464/102 479/465/102
f 233/466/102 479/465/102 191/464/102
f 148/467/103 480/468/103 149/469/103
f 481/470/104 154/169/104 156/471/104
f 482/472/80 287/473/80 284/474/80
f 284/474/80 483/475/80 482/472/80
f 484/476/80 302/477/80 300/478/80
f 300/478/80 485/479/80 484/476/80
f 486/476/79 317/478/79 319/477/79
f 317/478/79 486/476/79 487/479/79
f 488/476/79 331/478/79 332/477/79
f 331/478/79 488/476/79 489/479/79
f 490/480/105 491/481/105 492/482/105
f 491/481/105 490/480/105 493/483/105
f 148/436/106 51/484/106 257/485/106
f 51/484/106 148/436/106 59/435/106
f 146/486/92 494/487/92 495/488/92
f 144/489/92 146/486/92 495/488/92
f 150/490/92 496/491/92 153/492/92
f 153/492/92 496/491/92 497/493/92
f 257/485/107 53/494/107 393/495/107
f 53/494/107 257/485/107 51/484/107
f 107/496/92 498/497/92 499/498/92
f 105/499/92 107/496/92 499/498/92
f 109/500/92 500/501/92 112/502/92
f 112/502/92 500/501/92 501/503/92
f 473/453/80 247/451/80 246/504/80
f 473/453/80 246/504/80 502/505/80
f 503/384/80 170/382/80 207/417/80
f 503/384/80 207/417/80 209/418/80
f 256/506/92 504/507/92 505/508/92
f 254/509/92 256/506/92 505/508/92
f 475/384/79 263/417/79 265/382/79
f 263/417/79 475/384/79 506/418/79
f 507/384/79 222/417/79 184/382/79
f 222/417/79 507/384/79 220/418/79
f 508/510/92 273/511/92 270/512/92
f 273/511/92 508/510/92 509/513/92
f 493/483/108 461/514/108 491/481/108
f 461/514/108 493/483/108 462/515/108
f 370/516/109 510/517/109 443/518/109
f 510/517/109 370/516/109 372/519/109
f 91/520/110 93/521/110 476/458/110
f 476/458/110 189/457/110 91/520/110
f 378/522/109 511/523/109 379/524/109
f 511/523/109 378/522/109 445/525/109
f 478/463/111 98/526/111 191/464/111
f 98/526/111 478/463/111 96/527/111
f 512/528/80 491/529/80 513/530/80
f 491/529/80 512/528/80 492/531/80
f 461/532/80 513/530/80 491/529/80
f 513/530/80 461/532/80 460/533/80
f 514/534/79 493/535/79 515/536/79
f 515/536/79 493/535/79 490/537/79
f 514/534/79 462/538/79 493/535/79
f 462/538/79 514/534/79 463/539/79
f 460/540/112 514/541/112 513/542/112
f 514/541/112 460/540/112 463/543/112
f 143/131/97 145/133/97 516/544/97
f 151/139/97 517/545/97 152/140/97
f 434/546/2 282/547/2 283/548/2
f 283/548/2 518/549/2 434/546/2
f 285/550/2 518/549/2 283/548/2
f 518/549/2 285/550/2 519/551/2
f 519/551/2 285/550/2 289/552/2
f 289/552/2 520/553/2 519/551/2
f 291/554/2 520/553/2 289/552/2
f 520/553/2 291/554/2 521/555/2
f 521/555/2 291/554/2 293/556/2
f 293/556/2 522/557/2 521/555/2
f 312/13/2 523/14/2 313/15/2
f 313/15/2 523/14/2 524/16/2
f 312/13/2 525/12/2 523/14/2
f 314/11/2 525/12/2 312/13/2
f 314/11/2 526/10/2 525/12/2
f 316/9/2 526/10/2 314/11/2
f 316/9/2 527/8/2 526/10/2
f 318/7/2 527/8/2 316/9/2
f 318/7/2 439/5/2 527/8/2
f 322/6/2 439/5/2 318/7/2
f 528/383/84 188/382/84 185/381/84
f 188/382/84 528/383/84 451/384/84
f 167/381/83 168/382/83 529/383/83
f 168/382/83 457/384/83 529/383/83
f 530/383/84 261/382/84 405/381/84
f 261/382/84 530/383/84 531/384/84
f 404/381/83 251/382/83 532/383/83
f 251/382/83 533/384/83 532/383/83
f 534/558/113 535/559/113 390/560/113
f 535/559/113 391/561/113 390/560/113
f 467/445/114 39/562/114 40/563/114
f 468/446/114 467/445/114 40/563/114
f 80/564/115 155/565/115 86/566/115
f 147/567/116 79/568/116 85/569/116
f 536/570/79 537/571/79 538/572/79
f 538/572/79 537/571/79 539/573/79
f 537/571/79 50/574/79 539/573/79
f 50/574/79 537/571/79 38/575/79
f 536/570/79 468/576/79 537/571/79
f 468/576/79 38/575/79 537/571/79
f 468/576/79 536/570/79 469/577/79
f 38/575/79 468/576/79 40/578/79
f 540/579/80 541/580/80 542/581/80
f 541/580/80 540/579/80 543/582/80
f 543/582/80 49/583/80 541/580/80
f 49/583/80 37/584/80 541/580/80
f 467/585/80 542/581/80 541/580/80
f 541/580/80 37/584/80 467/585/80
f 542/581/80 467/585/80 466/586/80
f 467/585/80 37/584/80 39/587/80
f 100/588/117 544/589/117 101/590/117
f 104/591/118 103/592/118 545/593/118
f 546/594/79 311/595/79 308/596/79
f 311/595/79 546/594/79 547/597/79
f 548/594/79 329/595/79 326/596/79
f 329/595/79 548/594/79 549/597/79
f 550/598/80 294/599/80 290/600/80
f 290/600/80 551/601/80 550/598/80
f 552/594/80 306/596/80 304/595/80
f 304/595/80 553/597/80 552/594/80
f 142/602/118 141/603/118 554/604/118
f 138/605/117 555/606/117 139/607/117
f 539/608/119 49/609/119 543/610/119
f 49/609/119 539/608/119 50/611/119
f 531/384/79 259/417/79 261/382/79
f 259/417/79 531/384/79 556/418/79
f 557/384/79 215/417/79 180/382/79
f 215/417/79 557/384/79 216/418/79
f 533/384/80 251/382/80 250/417/80
f 533/384/80 250/417/80 558/418/80
f 559/384/80 176/382/80 211/417/80
f 559/384/80 211/417/80 213/418/80
f 198/612/117 560/613/117 199/614/117
f 202/615/118 201/616/118 561/617/118
f 562/618/26 563/619/26 374/620/26
f 373/621/26 562/618/26 374/620/26
f 563/619/26 562/618/26 81/622/26
f 562/618/26 373/621/26 564/623/26
f 81/622/26 565/624/26 563/619/26
f 566/625/26 564/623/26 373/621/26
f 81/622/26 68/626/26 565/624/26
f 566/625/26 373/621/26 385/627/26
f 70/628/26 565/624/26 68/626/26
f 567/629/26 566/625/26 385/627/26
f 565/624/26 70/628/26 567/629/26
f 566/625/26 567/629/26 70/628/26
f 568/630/26 569/631/26 383/632/26
f 383/632/26 570/633/26 568/630/26
f 383/632/26 569/631/26 387/634/26
f 570/633/26 383/632/26 384/635/26
f 569/631/26 571/636/26 387/634/26
f 570/633/26 384/635/26 572/637/26
f 571/636/26 569/631/26 74/638/26
f 83/639/26 570/633/26 572/637/26
f 74/638/26 573/640/26 571/636/26
f 573/640/26 83/639/26 572/637/26
f 573/640/26 74/638/26 73/641/26
f 83/639/26 573/640/26 73/641/26
f 253/201/97 255/203/97 574/642/97
f 271/207/97 575/643/97 272/208/97
f 400/644/120 576/645/120 399/646/120
f 576/645/120 400/644/120 428/647/120
f 401/648/120 577/649/120 402/650/120
f 577/649/120 401/648/120 472/651/120
f 404/644/120 578/645/120 403/646/120
f 578/645/120 404/644/120 532/647/120
f 579/645/120 405/644/120 406/646/120
f 579/645/120 530/647/120 405/644/120
f 580/645/120 407/644/120 408/646/120
f 580/645/120 474/647/120 407/644/120
f 581/645/120 409/644/120 410/646/120
f 581/645/120 430/647/120 409/644/120
f 466/652/112 536/653/112 542/654/112
f 536/653/112 466/652/112 469/655/112
f 582/656/92 455/657/92 583/658/92
f 455/657/92 456/659/92 583/658/92
f 584/660/92 585/661/92 449/662/92
f 449/662/92 585/661/92 450/663/92
f 583/664/121 453/665/121 586/666/121
f 583/664/121 456/667/121 453/665/121
f 587/668/121 447/669/121 585/670/121
f 450/671/121 585/670/121 447/669/121
f 588/383/84 184/382/84 181/381/84
f 184/382/84 588/383/84 507/384/84
f 171/381/83 170/382/83 589/383/83
f 170/382/83 503/384/83 589/383/83
f 590/672/26 591/673/26 592/674/26
f 591/673/26 590/672/26 375/675/26
f 386/676/26 375/675/26 590/672/26
f 375/675/26 386/676/26 376/677/26
f 3/678/122 593/679/122 594/680/122
f 593/679/122 3/678/122 2/681/122
f 388/682/26 382/683/26 381/684/26
f 595/685/26 382/683/26 388/682/26
f 382/683/26 595/685/26 596/686/26
f 596/686/26 595/685/26 597/687/26
f 453/665/123 443/518/123 510/517/123
f 510/517/123 586/666/123 453/665/123
f 511/523/123 447/669/123 587/668/123
f 445/525/123 447/669/123 511/523/123
f 598/688/124 147/567/124 149/689/124
f 155/565/125 599/690/125 156/691/125
f 125/692/79 600/693/79 348/694/79
f 600/693/79 125/692/79 128/695/79
f 123/696/80 346/697/80 601/698/80
f 123/696/80 601/698/80 121/699/80
f 278/700/26 602/701/26 281/702/26
f 602/701/26 278/700/26 432/703/26
f 603/704/26 287/705/26 482/706/26
f 287/705/26 603/704/26 288/707/26
f 294/708/26 604/709/26 295/710/26
f 604/709/26 294/708/26 550/711/26
f 605/712/26 308/713/26 310/714/26
f 605/712/26 546/715/26 308/713/26
f 606/716/26 319/717/26 320/718/26
f 606/716/26 486/719/26 319/717/26
f 607/720/26 324/721/26 325/722/26
f 607/720/26 437/723/26 324/721/26
f 515/724/126 492/725/126 512/726/126
f 492/725/126 515/724/126 490/727/126
f 513/542/127 515/728/127 512/729/127
f 515/728/127 513/542/127 514/541/127
f 392/730/79 391/731/79 608/732/79
f 608/732/79 391/731/79 535/733/79
f 609/734/80 390/735/80 389/736/80
f 390/735/80 609/734/80 534/737/80
f 2/738/128 610/739/128 593/740/128
f 610/739/128 2/738/128 4/741/128
f 455/742/129 611/743/129 454/744/129
f 611/743/129 455/742/129 582/745/129
f 3/746/130 612/747/130 1/748/130
f 612/747/130 3/746/130 594/749/130
f 584/750/129 449/751/129 613/752/129
f 448/753/129 613/752/129 449/751/129
f 70/58/131 69/57/131 566/754/131
f 566/754/131 69/57/131 614/755/131
f 569/756/132 615/757/132 72/60/132
f 74/62/132 569/756/132 72/60/132
f 112/758/79 616/759/79 110/760/79
f 616/759/79 112/758/79 501/761/79
f 175/381/83 176/382/83 617/383/83
f 176/382/83 559/384/83 617/383/83
f 107/762/80 106/763/80 618/764/80
f 107/762/80 618/764/80 498/765/80
f 619/383/84 180/382/84 177/381/84
f 180/382/84 619/383/84 557/384/84
f 538/766/126 543/610/126 540/767/126
f 543/610/126 538/766/126 539/608/126
f 153/768/79 620/769/79 151/770/79
f 620/769/79 153/768/79 497/771/79
f 273/772/79 621/773/79 271/774/79
f 621/773/79 273/772/79 509/775/79
f 146/776/80 143/777/80 622/778/80
f 146/776/80 622/778/80 494/779/80
f 256/780/80 253/781/80 623/782/80
f 256/780/80 623/782/80 504/783/80
f 118/784/79 459/785/79 624/786/79
f 459/785/79 118/784/79 115/787/79
f 116/788/80 625/789/80 117/790/80
f 117/790/80 625/789/80 458/791/80
f 341/792/79 465/793/79 339/794/79
f 626/795/79 339/794/79 465/793/79
f 284/796/26 627/797/26 483/798/26
f 627/797/26 284/796/26 279/799/26
f 551/800/26 290/801/26 286/802/26
f 286/802/26 628/803/26 551/800/26
f 340/804/80 464/805/80 338/806/80
f 464/805/80 340/804/80 629/807/80
f 547/808/26 315/809/26 311/810/26
f 315/809/26 547/808/26 630/811/26
f 317/812/26 631/813/26 321/814/26
f 631/813/26 317/812/26 487/815/26
f 542/654/127 538/816/127 540/817/127
f 538/816/127 542/654/127 536/653/127
f 545/593/79 231/818/79 104/591/79
f 231/818/79 545/593/79 632/819/79
f 227/820/80 544/589/80 100/588/80
f 544/589/80 227/820/80 633/821/80
f 411/822/133 480/823/133 194/824/133
f 481/825/134 412/826/134 196/827/134
f 365/828/80 555/606/80 138/605/80
f 555/606/80 365/828/80 634/829/80
f 554/604/79 367/830/79 142/602/79
f 367/830/79 554/604/79 635/831/79
f 570/832/135 83/833/135 636/834/135
f 83/833/135 84/835/135 636/834/135
f 562/836/136 637/837/136 81/838/136
f 81/838/136 637/837/136 82/839/136
f 419/840/80 560/613/80 198/612/80
f 560/613/80 419/840/80 638/841/80
f 561/617/79 422/842/79 202/615/79
f 422/842/79 561/617/79 639/843/79
f 640/844/118 99/845/118 101/846/118
f 641/847/117 103/848/117 102/849/117
f 132/850/137 355/851/137 130/852/137
f 355/851/137 132/850/137 642/853/137
f 643/854/138 135/855/138 357/856/138
f 134/857/138 357/856/138 135/855/138
f 644/858/118 137/859/118 139/860/118
f 645/861/118 197/862/118 199/863/118
f 646/864/117 141/865/117 140/866/117
f 647/867/117 201/868/117 200/869/117
f 160/870/137 343/871/137 158/872/137
f 343/871/137 160/870/137 648/873/137
f 649/874/138 163/875/138 345/876/138
f 162/877/138 345/876/138 163/875/138
f 392/878/26 609/879/26 389/880/26
f 609/879/26 392/878/26 608/881/26
f 427/882/139 274/210/139 275/213/139
f 650/883/139 427/882/139 275/213/139
f 651/884/139 277/216/139 425/885/139
f 425/885/139 277/216/139 276/215/139
f 652/886/140 190/887/140 230/888/140
f 652/886/140 230/888/140 653/889/140
f 192/890/141 654/891/141 234/892/141
f 655/893/141 234/892/141 654/891/141
f 656/894/142 66/895/142 657/896/142
f 658/897/142 657/896/142 66/895/142
f 1/748/142 658/897/142 66/895/142
f 658/897/142 1/748/142 612/747/142
f 657/898/143 658/899/143 659/900/143
f 659/900/143 658/899/143 660/901/143
f 659/902/144 67/903/144 661/904/144
f 67/903/144 659/902/144 660/905/144
f 4/741/144 67/903/144 660/905/144
f 4/741/144 660/905/144 610/739/144
f 131/906/145 354/907/145 662/908/145
f 131/906/145 662/908/145 129/909/145
f 136/910/146 663/911/146 356/912/146
f 663/911/146 136/910/146 133/913/146
f 598/688/113 664/914/113 147/567/113
f 664/914/113 665/915/113 147/567/113
f 664/914/113 666/916/113 665/915/113
f 666/916/113 667/917/113 665/915/113
f 147/567/113 665/915/113 79/568/113
f 665/915/113 77/918/113 79/568/113
f 665/915/113 667/917/113 77/918/113
f 667/917/113 76/919/113 77/918/113
f 668/920/113 666/916/113 669/921/113
f 666/916/113 668/920/113 667/917/113
f 667/917/113 78/922/113 76/919/113
f 78/922/113 667/917/113 668/920/113
f 669/921/113 155/565/113 668/920/113
f 155/565/113 669/921/113 599/690/113
f 80/564/113 668/920/113 155/565/113
f 668/920/113 80/564/113 78/922/113
f 618/764/147 106/763/147 470/923/147
f 616/759/148 471/924/148 110/760/148
f 480/468/149 148/467/149 194/925/149
f 154/169/150 481/470/150 196/170/150
f 656/926/119 67/927/119 66/928/119
f 661/929/119 67/927/119 656/926/119
f 622/778/147 143/777/147 516/930/147
f 620/769/148 517/931/148 151/770/148
f 621/773/148 575/932/148 271/774/148
f 623/782/147 253/781/147 574/933/147
f 159/934/145 342/935/145 670/936/145
f 159/934/145 670/936/145 157/937/145
f 164/938/146 671/939/146 344/940/146
f 671/939/146 164/938/146 161/941/146
f 611/743/151 442/942/151 454/744/151
f 442/942/151 611/743/151 672/943/151
f 613/752/151 444/944/151 673/945/151
f 448/753/151 444/944/151 613/752/151
f 95/946/152 654/891/152 192/890/152
f 654/891/152 95/946/152 97/947/152
f 94/948/153 652/886/153 92/949/153
f 652/886/153 94/948/153 190/887/153
f 124/950/79 122/951/79 347/952/79
f 347/952/79 122/951/79 674/953/79
f 126/954/80 349/955/80 127/956/80
f 349/955/80 675/957/80 127/956/80
f 640/844/79 228/958/79 99/845/79
f 228/958/79 640/844/79 676/959/79
f 232/960/80 641/847/80 102/849/80
f 641/847/80 232/960/80 677/961/80
f 644/858/79 366/962/79 137/859/79
f 366/962/79 644/858/79 678/963/79
f 420/964/79 645/861/79 679/965/79
f 645/861/79 420/964/79 197/862/79
f 423/966/80 647/867/80 200/869/80
f 647/867/80 423/966/80 680/967/80
f 368/968/80 646/864/80 140/866/80
f 646/864/80 368/968/80 681/969/80
f 480/823/154 598/970/154 149/971/154
f 599/972/155 481/825/155 156/973/155
f 108/974/79 499/975/79 682/976/79
f 105/977/79 499/975/79 108/974/79
f 111/978/80 683/979/80 500/980/80
f 109/981/80 111/978/80 500/980/80
f 144/982/79 495/983/79 145/984/79
f 145/984/79 495/983/79 684/985/79
f 685/986/58 114/987/58 30/988/58
f 114/987/58 685/986/58 686/989/58
f 152/990/80 687/991/80 496/992/80
f 150/993/80 152/990/80 496/992/80
f 120/994/59 688/995/59 34/996/59
f 688/995/59 120/994/59 689/997/59
f 255/998/79 505/999/79 690/1000/79
f 254/1001/79 505/999/79 255/998/79
f 272/1002/80 691/1003/80 508/1004/80
f 270/1005/80 272/1002/80 508/1004/80
f 672/943/156 371/1006/156 442/942/156
f 371/1006/156 672/943/156 369/1007/156
f 673/945/156 380/1008/156 377/1009/156
f 444/944/156 380/1008/156 673/945/156
f 374/1010/67 591/1011/67 375/1012/67
f 591/1011/67 374/1010/67 563/1013/67
f 384/1014/66 382/1015/66 596/1016/66
f 572/1017/66 384/1014/66 596/1016/66
f 242/177/43 244/178/43 452/179/43
f 244/178/43 692/180/43 452/179/43
f 246/1018/43 248/1019/43 502/1020/43
f 248/1019/43 693/1021/43 502/1020/43
f 250/177/43 252/178/43 558/179/43
f 252/178/43 694/180/43 558/179/43
f 259/177/43 556/179/43 260/178/43
f 260/178/43 556/179/43 695/180/43
f 264/178/43 506/179/43 696/180/43
f 263/177/43 506/179/43 264/178/43
f 267/177/43 446/179/43 269/178/43
f 269/178/43 446/179/43 697/180/43
f 148/436/157 147/1022/157 85/437/157
f 155/1023/158 154/169/158 86/439/158
f 686/989/75 698/1024/75 699/1025/75
f 698/1024/75 686/989/75 685/986/75
f 700/1026/74 689/997/74 701/1027/74
f 689/997/74 700/1026/74 688/995/74
f 476/1028/159 653/1029/159 477/1030/159
f 476/1028/159 652/1031/159 653/1029/159
f 637/1032/113 71/1033/113 82/1034/113
f 71/1033/113 637/1032/113 69/1035/113
f 69/1035/113 637/1032/113 614/1036/113
f 614/1036/113 637/1032/113 702/1037/113
f 654/1038/160 478/1039/160 655/1040/160
f 479/1041/160 655/1040/160 478/1039/160
f 636/1042/113 615/1043/113 703/1044/113
f 615/1043/113 636/1042/113 72/1045/113
f 636/1042/113 75/1046/113 72/1045/113
f 75/1046/113 636/1042/113 84/1047/113
f 387/1048/161 571/1049/161 388/1050/161
f 595/1051/161 388/1050/161 571/1049/161
f 567/1052/162 386/1053/162 590/1054/162
f 386/1053/162 567/1052/162 385/1055/162
f 608/1056/52 534/1057/52 609/1058/52
f 534/1057/52 608/1056/52 535/1059/52
f 578/1060/84 249/1061/84 403/1062/84
f 249/1061/84 578/1060/84 704/1063/84
f 258/1061/83 579/1060/83 406/1062/83
f 579/1060/83 258/1061/83 705/1063/83
f 706/1064/79 114/987/79 699/1025/79
f 699/1025/79 114/987/79 686/989/79
f 706/1064/79 42/1065/79 114/987/79
f 706/1064/79 275/1066/79 42/1065/79
f 42/1065/79 275/1066/79 44/1067/79
f 275/1066/79 706/1064/79 650/1068/79
f 701/1027/80 120/994/80 707/1069/80
f 120/994/80 701/1027/80 689/997/80
f 46/1070/80 707/1069/80 120/994/80
f 277/1071/80 707/1069/80 46/1070/80
f 707/1069/80 277/1071/80 651/1072/80
f 277/1071/80 46/1070/80 48/1073/80
f 108/974/148 682/976/148 470/1074/148
f 111/978/147 471/1075/147 683/979/147
f 698/1024/85 32/1076/85 396/1077/85
f 32/1076/85 698/1024/85 685/986/85
f 30/988/85 32/1076/85 685/986/85
f 700/1026/86 35/1078/86 688/995/86
f 35/1078/86 34/996/86 688/995/86
f 35/1078/86 700/1026/86 397/1079/86
f 145/984/148 684/985/148 516/1080/148
f 152/990/147 517/1081/147 687/991/147
f 604/1082/79 292/1083/79 295/1084/79
f 292/1083/79 604/1082/79 708/1085/79
f 708/1085/79 293/1086/79 292/1083/79
f 293/1086/79 708/1085/79 522/1087/79
f 413/1088/163 698/1089/163 414/1090/163
f 699/1091/163 698/1089/163 413/1088/163
f 709/1092/79 305/1093/79 307/1094/79
f 305/1093/79 709/1092/79 710/1095/79
f 710/1095/79 15/1096/79 305/1093/79
f 15/1096/79 710/1095/79 16/1097/79
f 701/1098/163 416/1099/163 700/1100/163
f 416/1099/163 415/1101/163 700/1100/163
f 309/1093/80 605/1092/80 310/1094/80
f 605/1092/80 309/1093/80 711/1095/80
f 313/1096/80 711/1095/80 309/1093/80
f 711/1095/80 313/1096/80 524/1097/80
f 327/1093/80 712/1092/80 328/1094/80
f 712/1092/80 327/1093/80 713/1095/80
f 19/1096/80 713/1095/80 327/1093/80
f 713/1095/80 19/1096/80 20/1097/80
f 255/998/148 690/1000/148 574/1102/148
f 272/1002/147 575/1103/147 691/1003/147
f 704/1063/79 252/1104/79 249/1061/79
f 252/1104/79 704/1063/79 694/1105/79
f 714/1063/79 212/1104/79 174/1061/79
f 212/1104/79 714/1063/79 214/1105/79
f 260/1104/80 705/1063/80 258/1061/80
f 705/1063/80 260/1104/80 695/1105/80
f 217/1104/80 715/1063/80 178/1061/80
f 715/1063/80 217/1104/80 218/1105/80
f 716/1106/164 428/647/164 429/1107/164
f 428/647/164 716/1106/164 576/645/164
f 717/1108/164 472/651/164 473/1109/164
f 472/651/164 717/1108/164 577/649/164
f 532/647/164 704/1106/164 578/645/164
f 704/1106/164 532/647/164 533/1107/164
f 705/1106/164 530/647/164 579/645/164
f 530/647/164 705/1106/164 531/1107/164
f 718/1106/164 474/647/164 580/645/164
f 474/647/164 718/1106/164 475/1107/164
f 719/1106/164 430/647/164 581/645/164
f 430/647/164 719/1106/164 431/1107/164
f 672/1110/91 372/1111/91 369/1112/91
f 372/1111/91 672/1110/91 510/1113/91
f 379/1114/90 673/1115/90 377/1116/90
f 673/1115/90 379/1114/90 511/1117/90
f 611/1118/79 586/1119/79 672/1110/79
f 672/1110/79 586/1119/79 510/1113/79
f 582/1120/79 586/1119/79 611/1118/79
f 586/1119/79 582/1120/79 583/1121/79
f 673/1115/80 587/1122/80 613/1123/80
f 587/1122/80 673/1115/80 511/1117/80
f 587/1122/80 584/1124/80 613/1123/80
f 584/1124/80 587/1122/80 585/1125/80
f 87/1126/165 418/1127/165 720/1128/165
f 90/1129/165 418/1127/165 87/1126/165
f 577/1130/84 245/1131/84 402/1132/84
f 245/1131/84 577/1130/84 717/1133/84
f 88/1134/166 720/1128/166 421/1135/166
f 88/1134/166 87/1126/166 720/1128/166
f 262/1061/83 580/1060/83 408/1062/83
f 580/1060/83 262/1061/83 718/1063/83
f 629/1136/123 626/1137/123 464/1138/123
f 465/1139/123 464/1138/123 626/1137/123
f 118/1140/52 625/1141/52 116/1142/52
f 625/1141/52 118/1140/52 624/1143/52
f 602/701/167 432/703/167 433/1144/167
f 602/701/167 433/1144/167 627/1145/167
f 603/704/167 482/706/167 483/1146/167
f 603/704/167 483/1146/167 628/1147/167
f 604/709/167 550/711/167 551/1148/167
f 604/709/167 551/1148/167 708/1149/167
f 547/1150/167 605/712/167 711/1151/167
f 605/712/167 547/1150/167 546/715/167
f 487/1152/167 606/716/167 630/1153/167
f 606/716/167 487/1152/167 486/719/167
f 438/1154/167 607/720/167 631/1155/167
f 607/720/167 438/1154/167 437/723/167
f 603/1156/79 286/1157/79 288/1158/79
f 286/1157/79 603/1156/79 628/1159/79
f 721/1160/79 301/1161/79 303/1162/79
f 301/1161/79 721/1160/79 722/1163/79
f 315/1161/80 606/1160/80 320/1162/80
f 606/1160/80 315/1161/80 630/1163/80
f 330/1161/80 723/1160/80 333/1162/80
f 723/1160/80 330/1161/80 724/1163/80
f 725/1164/168 666/1165/168 664/1166/168
f 666/1165/168 725/1164/168 726/1167/168
f 727/1168/169 666/1165/169 726/1167/169
f 666/1165/169 727/1168/169 669/1169/169
f 480/823/170 664/1166/170 598/970/170
f 664/1166/170 480/823/170 725/1164/170
f 728/1170/171 726/1167/171 725/1164/171
f 726/1167/171 728/1170/171 729/1171/171
f 730/1172/172 726/1167/172 729/1171/172
f 726/1167/172 730/1172/172 727/1168/172
f 481/825/173 669/1169/173 727/1168/173
f 669/1169/173 481/825/173 599/972/173
f 717/1133/79 248/1173/79 245/1131/79
f 248/1173/79 717/1133/79 693/1174/79
f 731/1063/79 208/1104/79 169/1061/79
f 208/1104/79 731/1063/79 210/1105/79
f 729/1171/174 359/1175/174 364/1176/174
f 359/1175/174 729/1171/174 728/1170/174
f 264/1104/80 718/1063/80 262/1061/80
f 718/1063/80 264/1104/80 696/1105/80
f 219/1104/80 732/1063/80 182/1061/80
f 732/1063/80 219/1104/80 221/1105/80
f 361/1177/175 729/1171/175 364/1176/175
f 729/1171/175 361/1177/175 730/1172/175
f 339/1178/176 629/1179/176 340/1180/176
f 629/1179/176 339/1178/176 626/1181/176
f 93/1182/177 652/1031/177 476/1028/177
f 652/1031/177 93/1182/177 92/1183/177
f 411/822/178 725/1164/178 480/823/178
f 725/1164/178 411/822/178 728/1170/178
f 96/1184/179 654/1038/179 97/1185/179
f 654/1038/179 96/1184/179 478/1039/179
f 412/826/180 727/1168/180 730/1172/180
f 727/1168/180 412/826/180 481/825/180
f 360/1186/181 728/1170/181 411/822/181
f 728/1170/181 360/1186/181 359/1175/181
f 363/1187/182 730/1172/182 361/1177/182
f 730/1172/182 363/1187/182 412/826/182
f 733/1060/84 174/1061/84 173/1062/84
f 174/1061/84 733/1060/84 714/1063/84
f 178/1061/83 734/1060/83 179/1062/83
f 734/1060/83 178/1061/83 715/1063/83
f 576/1060/84 241/1061/84 399/1062/84
f 241/1061/84 576/1060/84 716/1063/84
f 581/1060/83 268/1061/83 719/1063/83
f 268/1061/83 581/1060/83 410/1062/83
f 365/1188/183 366/1189/183 634/1190/183
f 366/1189/183 678/1191/183 634/1190/183
f 367/1192/183 635/1193/183 368/1194/183
f 368/1194/183 635/1193/183 681/1195/183
f 227/1196/183 228/1197/183 633/1198/183
f 228/1197/183 676/1199/183 633/1198/183
f 232/1200/183 632/1201/183 677/1202/183
f 632/1201/183 232/1200/183 231/1203/183
f 419/1204/183 420/1205/183 638/1206/183
f 420/1205/183 679/1207/183 638/1206/183
f 423/1208/183 639/1209/183 680/1210/183
f 639/1209/183 423/1208/183 422/1211/183
f 602/1212/79 279/1213/79 281/1214/79
f 279/1213/79 602/1212/79 627/1215/79
f 735/1216/79 297/1217/79 299/1218/79
f 297/1217/79 735/1216/79 736/1219/79
f 321/1217/80 607/1216/80 325/1218/80
f 607/1216/80 321/1217/80 631/1219/80
f 334/1217/80 737/1216/80 337/1218/80
f 737/1216/80 334/1217/80 738/1219/80
f 560/1220/184 645/1221/184 199/1222/184
f 561/1223/184 201/1224/184 647/1225/184
f 716/1063/79 244/1104/79 241/1061/79
f 244/1104/79 716/1063/79 692/1105/79
f 739/1063/79 204/1104/79 166/1061/79
f 204/1104/79 739/1063/79 206/1105/79
f 269/1104/80 719/1063/80 268/1061/80
f 719/1063/80 269/1104/80 697/1105/80
f 225/1104/80 740/1063/80 186/1061/80
f 740/1063/80 225/1104/80 226/1105/80
f 625/1226/113 459/1227/113 458/1228/113
f 459/1227/113 625/1226/113 624/1229/113
f 741/1060/84 169/1061/84 172/1062/84
f 169/1061/84 741/1060/84 731/1063/84
f 182/1061/83 742/1060/83 183/1062/83
f 742/1060/83 182/1061/83 732/1063/83
f 679/1230/185 560/1220/185 638/1231/185
f 560/1220/185 679/1230/185 645/1221/185
f 680/1232/185 561/1223/185 647/1225/185
f 680/1232/185 639/1233/185 561/1223/185
f 555/1234/184 644/1235/184 139/1236/184
f 554/1237/184 141/1238/184 646/1239/184
f 518/1240/92 627/1241/92 433/1242/92
f 433/1242/92 434/1243/92 518/1240/92
f 519/1244/92 627/1241/92 518/1240/92
f 627/1241/92 519/1244/92 483/1245/92
f 483/1245/92 519/1244/92 520/1246/92
f 520/1246/92 628/1247/92 483/1245/92
f 521/1248/92 628/1247/92 520/1246/92
f 628/1247/92 521/1248/92 551/1249/92
f 551/1249/92 521/1248/92 522/1250/92
f 522/1250/92 708/1251/92 551/1249/92
f 8/1252/92 736/1253/92 436/1254/92
f 436/1254/92 5/1255/92 8/1252/92
f 10/1256/92 736/1253/92 8/1252/92
f 736/1253/92 10/1256/92 485/1257/92
f 485/1257/92 10/1256/92 12/1258/92
f 12/1258/92 722/1259/92 485/1257/92
f 14/1260/92 722/1259/92 12/1258/92
f 722/1259/92 14/1260/92 553/1261/92
f 553/1261/92 14/1260/92 16/1262/92
f 16/1262/92 710/1263/92 553/1261/92
f 711/1263/92 524/1262/92 547/1261/92
f 547/1261/92 524/1262/92 523/1260/92
f 547/1261/92 523/1260/92 630/1259/92
f 630/1259/92 523/1260/92 525/1258/92
f 630/1259/92 525/1258/92 487/1257/92
f 487/1257/92 525/1258/92 526/1256/92
f 487/1257/92 526/1256/92 631/1253/92
f 631/1253/92 526/1256/92 527/1252/92
f 631/1253/92 527/1252/92 438/1254/92
f 438/1254/92 527/1252/92 439/1255/92
f 713/1263/92 20/1262/92 549/1261/92
f 549/1261/92 20/1262/92 18/1260/92
f 549/1261/92 18/1260/92 724/1259/92
f 724/1259/92 18/1260/92 21/1258/92
f 724/1259/92 21/1258/92 489/1257/92
f 489/1257/92 21/1258/92 23/1256/92
f 489/1257/92 23/1256/92 738/1253/92
f 738/1253/92 23/1256/92 25/1252/92
f 738/1253/92 25/1252/92 441/1254/92
f 441/1254/92 25/1252/92 27/1255/92
f 206/1264/186 739/1265/186 457/1266/186
f 457/1266/186 205/1267/186 206/1264/186
f 503/1266/186 209/1267/186 210/1264/186
f 210/1264/186 731/1265/186 503/1266/186
f 559/1266/186 213/1267/186 214/1264/186
f 214/1264/186 714/1265/186 559/1266/186
f 218/1264/186 557/1266/186 715/1265/186
f 557/1266/186 218/1264/186 216/1267/186
f 732/1265/186 221/1264/186 507/1266/186
f 507/1266/186 221/1264/186 220/1267/186
f 740/1265/186 226/1264/186 451/1266/186
f 451/1266/186 226/1264/186 224/1267/186
f 230/1268/113 477/1269/113 653/1270/113
f 477/1269/113 230/1268/113 229/1271/113
f 479/1272/113 234/1273/113 655/1274/113
f 234/1273/113 479/1272/113 233/1275/113
f 678/1276/185 555/1234/185 634/1277/185
f 555/1234/185 678/1276/185 644/1235/185
f 122/1278/187 601/1279/187 674/1280/187
f 601/1279/187 122/1278/187 121/1281/187
f 681/1282/185 554/1237/185 646/1239/185
f 681/1282/185 635/1283/185 554/1237/185
f 600/1284/188 127/1285/188 675/1286/188
f 127/1285/188 600/1284/188 128/1287/188
f 743/1060/84 166/1061/84 165/1062/84
f 166/1061/84 743/1060/84 739/1063/84
f 167/644/120 743/645/120 165/646/120
f 743/645/120 167/644/120 529/647/120
f 171/644/120 741/645/120 172/646/120
f 741/645/120 171/644/120 589/647/120
f 175/644/120 733/645/120 173/646/120
f 733/645/120 175/644/120 617/647/120
f 734/645/120 177/644/120 179/646/120
f 734/645/120 619/647/120 177/644/120
f 742/645/120 181/644/120 183/646/120
f 742/645/120 588/647/120 181/644/120
f 744/645/120 185/644/120 187/646/120
f 744/645/120 528/647/120 185/644/120
f 744/1060/83 186/1061/83 740/1063/83
f 186/1061/83 744/1060/83 187/1062/83
f 544/1288/184 640/1289/184 101/1290/184
f 545/1291/184 103/1292/184 641/1293/184
f 662/1294/189 132/1295/189 129/1296/189
f 132/1295/189 662/1294/189 642/1297/189
f 663/1298/190 135/1299/190 643/1300/190
f 135/1299/190 663/1298/190 133/1301/190
f 670/1302/189 160/1303/189 157/1304/189
f 160/1303/189 670/1302/189 648/1305/189
f 671/1306/190 163/1307/190 649/1308/190
f 163/1307/190 671/1306/190 161/1309/190
f 566/1310/191 702/1311/191 564/1312/191
f 702/1311/191 566/1310/191 614/1313/191
f 703/1314/192 569/1315/192 568/1316/192
f 569/1315/192 703/1314/192 615/1317/192
f 564/1318/193 637/1319/193 562/1320/193
f 637/1319/193 564/1318/193 702/1321/193
f 568/1322/194 636/1323/194 703/1324/194
f 636/1323/194 568/1322/194 570/1325/194
f 429/1266/186 452/1267/186 692/1264/186
f 692/1264/186 716/1265/186 429/1266/186
f 473/1326/186 502/1327/186 693/1328/186
f 693/1328/186 717/1329/186 473/1326/186
f 533/1266/186 558/1267/186 694/1264/186
f 694/1264/186 704/1265/186 533/1266/186
f 695/1264/186 531/1266/186 705/1265/186
f 531/1266/186 695/1264/186 556/1267/186
f 718/1265/186 696/1264/186 475/1266/186
f 475/1266/186 696/1264/186 506/1267/186
f 719/1265/186 697/1264/186 431/1266/186
f 431/1266/186 697/1264/186 446/1267/186
f 296/721/26 735/720/26 299/722/26
f 735/720/26 296/721/26 435/723/26
f 721/716/26 302/717/26 484/719/26
f 302/717/26 721/716/26 303/718/26
f 306/713/26 709/712/26 307/714/26
f 709/712/26 306/713/26 552/715/26
f 676/1330/185 544/1288/185 633/1331/185
f 544/1288/185 676/1330/185 640/1289/185
f 712/712/26 326/713/26 328/714/26
f 712/712/26 548/715/26 326/713/26
f 723/716/26 332/717/26 333/718/26
f 723/716/26 488/719/26 332/717/26
f 737/720/26 336/721/26 337/722/26
f 737/720/26 440/723/26 336/721/26
f 677/1332/185 545/1291/185 641/1293/185
f 677/1332/185 632/1333/185 545/1291/185
f 623/1334/113 690/1335/113 504/1336/113
f 690/1335/113 505/1337/113 504/1336/113
f 621/1338/113 509/1339/113 691/1340/113
f 691/1340/113 509/1339/113 508/1341/113
f 355/1342/52 662/1343/52 354/1344/52
f 662/1343/52 355/1342/52 642/1345/52
f 663/1346/52 643/1347/52 357/1348/52
f 357/1348/52 356/1349/52 663/1346/52
f 650/1350/26 426/1351/26 427/1352/26
f 426/1351/26 650/1350/26 706/1353/26
f 651/1354/26 424/1355/26 707/1356/26
f 651/1354/26 425/1357/26 424/1355/26
f 690/1335/195 623/1334/195 574/1358/195
f 691/1340/195 575/1359/195 621/1338/195
f 706/1353/196 413/1088/196 426/1351/196
f 413/1088/196 706/1353/196 699/1091/196
f 670/1360/52 343/1361/52 648/1362/52
f 343/1361/52 670/1360/52 342/1363/52
f 707/1356/196 416/1099/196 701/1098/196
f 707/1356/196 424/1355/196 416/1099/196
f 671/1364/52 649/1365/52 345/1366/52
f 345/1366/52 344/1367/52 671/1364/52
f 622/1368/113 684/1369/113 494/1370/113
f 684/1369/113 495/1371/113 494/1370/113
f 620/1372/113 497/1373/113 687/1374/113
f 687/1374/113 497/1373/113 496/1375/113
f 736/813/26 300/812/26 297/814/26
f 300/812/26 736/813/26 485/815/26
f 553/808/26 304/810/26 301/809/26
f 301/809/26 722/811/26 553/808/26
f 346/1376/197 674/1377/197 601/1378/197
f 674/1377/197 346/1376/197 347/1379/197
f 549/808/26 330/809/26 329/810/26
f 330/809/26 549/808/26 724/811/26
f 331/812/26 738/813/26 334/814/26
f 738/813/26 331/812/26 489/815/26
f 348/1380/198 675/1381/198 349/1382/198
f 675/1381/198 348/1380/198 600/1383/198
f 684/1369/195 622/1368/195 516/1384/195
f 687/1374/195 517/1385/195 620/1372/195
f 618/1386/113 682/1387/113 498/1388/113
f 682/1387/113 499/1389/113 498/1388/113
f 683/1390/113 501/1391/113 500/1392/113
f 616/1393/113 501/1391/113 683/1390/113
f 682/1387/195 618/1386/195 470/1394/195
f 683/1390/195 471/1395/195 616/1393/195
f 529/647/164 739/1106/164 743/645/164
f 739/1106/164 529/647/164 457/1107/164
f 731/1106/164 589/647/164 503/1107/164
f 589/647/164 731/1106/164 741/645/164
f 617/647/164 714/1106/164 733/645/164
f 714/1106/164 617/647/164 559/1107/164
f 715/1106/164 619/647/164 734/645/164
f 619/647/164 715/1106/164 557/1107/164
f 732/1106/164 588/647/164 742/645/164
f 588/647/164 732/1106/164 507/1107/164
f 740/1106/164 528/647/164 744/645/164
f 528/647/164 740/1106/164 451/1107/164
f 735/720/167 435/723/167 436/1154/167
f 735/720/167 436/1154/167 736/1155/167
f 721/716/167 484/719/167 485/1152/167
f 721/716/167 485/1152/167 722/1153/167
f 709/712/167 552/715/167 553/1150/167
f 709/712/167 553/1150/167 710/1151/167
f 712/712/167 549/1150/167 548/715/167
f 549/1150/167 712/712/167 713/1151/167
f 489/1152/167 723/716/167 724/1153/167
f 723/716/167 489/1152/167 488/719/167
f 441/1154/167 737/720/167 738/1155/167
f 737/720/167 441/1154/167 440/723/167
f 720/1396/113 417/1397/113 421/1398/113
f 720/1396/113 418/1399/113 417/1397/113
f 612/1400/199 660/1401/199 658/1402/199
f 610/1403/199 660/1401/199 612/1400/199
f 698/1089/200 395/1404/200 414/1090/200
f 395/1404/200 698/1089/200 396/1405/200
f 700/1100/200 398/1406/200 397/1407/200
f 398/1406/200 700/1100/200 415/1101/200
f 563/1408/201 565/1409/201 592/1410/201
f 563/1408/201 592/1410/201 591/1411/201
f 573/1412/202 572/1413/202 597/1414/202
f 596/1415/202 597/1414/202 572/1413/202
f 567/1052/203 590/1054/203 565/1409/203
f 565/1409/203 590/1054/203 592/1410/203
f 571/1049/204 573/1412/204 595/1051/204
f 573/1412/204 597/1414/204 595/1051/204
f 657/1416/205 661/1417/205 656/1418/205
f 657/1416/205 659/1419/205 661/1417/205
f 594/1420/196 610/1403/196 612/1400/196
f 593/1421/196 610/1403/196 594/1420/196
