# Roblox asset pack: animal_parrot (creatures), from the Studio model "Parrot". Exported with Export Selection, split by tools/build_creatures.py: one object per rigid body. Units: studs. +Y up, front faces -Z, pivot (bottom centre) at the origin.
mtllib animal_parrot.mtl

v 2.17000 0.93000 0.02000
v 2.15730 0.98000 -0.02000
v 2.15730 0.98000 0.02000
v 2.17000 0.93000 -0.02000
v -1.90920 2.29000 0.17000
v -2.12580 2.00000 -0.11000
v -2.12580 2.00000 0.11000
v -1.90920 2.29000 -0.17000
v -2.17000 1.76000 0.07000
v -2.17000 1.76000 -0.07000
v -1.51510 2.78000 0.34000
v -0.70720 2.78000 0.34000
v -0.70720 2.78000 -0.34000
v -1.51510 2.78000 -0.34000
v -1.63630 2.64000 0.45000
v -0.58600 2.64000 0.45000
v -0.58600 2.64000 -0.45000
v -1.63630 2.64000 -0.45000
v -2.08980 1.58000 0.00000
v -1.71320 2.47000 0.09000
v -1.71320 2.19000 0.31000
v -1.71320 2.47000 0.31000
v -1.71320 2.19000 0.09000
v -1.71320 2.47000 -0.09000
v -1.71320 2.19000 -0.31000
v -1.71320 2.19000 -0.09000
v -1.71320 2.47000 -0.31000
v -1.69270 2.56000 0.05000
v -1.69270 2.15000 0.37000
v -1.69270 2.56000 0.37000
v -1.69270 2.15000 0.05000
v -1.69270 2.56000 -0.05000
v -1.69270 2.15000 -0.37000
v -1.69270 2.15000 -0.05000
v -1.69270 2.56000 -0.37000
v -1.59480 2.56000 0.37000
v -1.59480 2.56000 0.05000
v -1.59480 2.56000 -0.05000
v -1.59480 2.56000 -0.37000
v -1.63630 1.59000 -0.61000
v -1.63630 1.59000 0.61000
v -1.58420 1.62000 0.56000
v -1.60880 0.98000 0.00000
v -1.60880 0.98000 0.56000
v -1.58420 1.62000 0.00000
v -1.58420 1.62000 -0.56000
v -1.60880 0.98000 -0.56000
v -1.64700 2.47000 0.09000
v -1.64700 2.47000 0.31000
v -1.64700 2.47000 -0.09000
v -1.64700 2.47000 -0.31000
v -1.51510 1.98000 -0.47000
v -1.51510 1.98000 0.47000
v -1.32220 0.58000 0.00000
v -1.32220 0.58000 0.56000
v -1.32220 0.58000 -0.56000
v -1.03490 0.00000 0.46000
v -0.43690 0.02000 0.14000
v -0.43690 0.02000 0.43000
v -1.03490 0.00000 0.11000
v -1.03490 0.00000 -0.46000
v -0.43690 0.02000 -0.14000
v -1.03490 0.00000 -0.11000
v -0.43690 0.02000 -0.43000
v -1.26530 0.98000 0.64000
v -1.26530 1.01000 0.81000
v -1.24800 1.45000 0.72000
v -1.24800 1.42000 0.56000
v -1.26530 0.98000 -0.64000
v -1.24800 1.45000 -0.72000
v -1.26530 1.01000 -0.81000
v -1.24800 1.42000 -0.56000
v -0.72620 0.07000 0.18000
v -0.52480 0.07000 0.38000
v -0.72620 0.07000 0.38000
v -0.52480 0.07000 0.18000
v -0.72620 0.07000 -0.18000
v -0.52480 0.07000 -0.38000
v -0.52480 0.07000 -0.18000
v -0.72620 0.07000 -0.38000
v 0.85230 0.57000 0.00000
v 0.84410 0.79000 0.56000
v 0.85230 0.57000 0.56000
v 0.84410 0.79000 0.00000
v 0.85230 0.57000 -0.56000
v 0.84410 0.79000 -0.56000
v -1.06450 0.73000 0.86000
v -1.06450 0.70000 0.69000
v -1.06450 0.73000 -0.86000
v -1.06450 0.70000 -0.69000
v -1.51110 2.25000 0.17000
v -1.51110 2.25000 -0.17000
v 1.66540 0.74000 -0.06000
v 1.76570 0.78000 0.05000
v 1.66540 0.74000 0.06000
v 1.76570 0.78000 -0.05000
v 1.84910 0.81000 -0.05000
v 1.84910 0.81000 0.05000
v 1.92310 0.84000 -0.04000
v 1.92310 0.84000 0.04000
v 1.99080 0.87000 -0.04000
v 1.99080 0.87000 0.04000
v 2.05390 0.89000 -0.03000
v 2.05390 0.89000 0.03000
v 2.11340 0.91000 -0.03000
v 2.11340 0.91000 0.03000
v 1.48370 0.68000 0.07000
v 1.48370 0.68000 -0.07000
v -1.03490 0.17000 0.46000
v -1.03490 0.17000 0.11000
v -1.03490 0.17000 -0.46000
v -1.03490 0.17000 -0.11000
v 1.18940 0.60000 0.10000
v 1.34140 0.64000 -0.09000
v 1.34140 0.64000 0.09000
v 1.18940 0.60000 -0.10000
v 0.97330 0.55000 -0.12000
v 0.97330 0.55000 0.12000
v -0.65470 1.82000 0.56000
v -0.65470 1.82000 0.00000
v -0.65470 1.82000 -0.56000
v 0.45270 0.88000 0.83000
v -0.10940 0.63000 0.87000
v 0.45840 0.72000 0.86000
v -0.32450 1.29000 0.75000
v -0.59700 1.59000 0.70000
v -0.10940 0.63000 -0.87000
v 0.45270 0.88000 -0.83000
v 0.45840 0.72000 -0.86000
v -0.32450 1.29000 -0.75000
v -0.59700 1.59000 -0.70000
v -0.86080 0.35000 0.05000
v -0.39020 0.35000 0.52000
v -0.86080 0.35000 0.52000
v -0.39020 0.35000 0.05000
v -0.86080 0.35000 -0.05000
v -0.39020 0.35000 -0.52000
v -0.39020 0.35000 -0.05000
v -0.86080 0.35000 -0.52000
v 0.04150 0.43000 0.00000
v 0.04150 0.43000 0.56000
v 0.04150 0.43000 -0.56000
v -0.58600 1.59000 0.61000
v -0.58600 1.59000 -0.61000
v -0.86080 0.82000 0.52000
v -0.86080 0.82000 0.05000
v -0.86080 0.82000 -0.52000
v -0.86080 0.82000 -0.05000
v 0.45840 0.69000 0.69000
v 0.45270 0.85000 0.66000
v 0.45840 0.69000 -0.69000
v 0.45270 0.85000 -0.66000
v -0.10940 0.60000 0.71000
v -0.10940 0.60000 -0.71000
v -0.70720 1.98000 0.47000
v -0.70720 1.98000 -0.47000
v -0.26560 1.39000 0.56000
v -0.26560 1.39000 -0.56000
v 0.52580 0.56000 0.14000
v 0.75100 0.55000 -0.13000
v 0.75100 0.55000 0.13000
v 0.52580 0.56000 -0.14000
v -0.72620 0.39000 0.18000
v -0.72620 0.39000 0.38000
v -0.72620 0.39000 -0.18000
v -0.72620 0.39000 -0.38000
v -0.39020 0.82000 0.52000
v -0.39020 0.82000 -0.52000
v -0.59700 1.56000 0.53000
v -0.59700 1.56000 -0.53000
v -0.43690 0.16000 0.43000
v -0.43690 0.16000 -0.43000
v -0.52480 0.39000 0.38000
v -0.52480 0.39000 -0.38000
v -1.59480 2.15000 0.37000
v -1.59480 2.15000 -0.37000
v -1.90730 1.81000 0.11000
v -1.72630 1.82000 0.17000
v -1.90730 1.81000 -0.11000
v -1.72630 1.82000 -0.17000
v -1.64700 2.19000 0.31000
v -1.64700 2.19000 -0.31000
v 0.95990 0.80000 0.12000
v 1.16040 0.81000 0.10000
v 0.95990 0.80000 -0.12000
v 1.16040 0.81000 -0.10000
v 1.31670 0.82000 0.09000
v 1.31670 0.82000 -0.09000
v 1.45200 0.82000 0.07000
v 1.45200 0.82000 -0.07000
v -0.26560 1.39000 0.00000
v -2.00280 1.69000 0.07000
v -2.00280 1.69000 -0.07000
v 1.63070 0.86000 0.06000
v 1.63070 0.86000 -0.06000
v 1.73540 0.88000 0.05000
v 1.82250 0.90000 0.05000
v 1.89970 0.92000 0.04000
v 1.97030 0.93000 0.04000
v 2.03620 0.95000 0.03000
v 2.09830 0.96000 0.03000
v 1.73540 0.88000 -0.05000
v 1.82250 0.90000 -0.05000
v 1.89970 0.92000 -0.04000
v 1.97030 0.93000 -0.04000
v 2.03620 0.95000 -0.03000
v 2.09830 0.96000 -0.03000
v -1.52310 1.81000 0.17000
v -1.52310 1.81000 -0.17000
v 0.53470 0.83000 0.14000
v 0.75950 0.81000 0.13000
v 0.53470 0.83000 -0.14000
v 0.75950 0.81000 -0.13000
v -0.32450 1.26000 0.59000
v -0.32450 1.26000 -0.59000
v -1.59480 2.15000 -0.05000
v -1.59480 2.15000 0.05000
v -0.39020 0.82000 -0.05000
v -0.39020 0.82000 0.05000
v -1.64700 2.19000 0.09000
v -1.64700 2.19000 -0.09000
v -0.43690 0.16000 -0.14000
v -0.43690 0.16000 0.14000
v -0.52480 0.39000 -0.18000
v -0.52480 0.39000 0.18000
vt 0.02289 0.00971
vt 0.02967 0.00293
vt 0.02967 0.00970
vt 0.02289 0.00293
vt 0.40888 0.30153
vt 0.36611 0.24639
vt 0.40004 0.24638
vt 0.35728 0.30154
vt 0.39356 0.20946
vt 0.37257 0.20946
vt 0.86630 0.00293
vt 0.86630 0.12571
vt 0.76153 0.12571
vt 0.76153 0.00293
vt 0.75300 0.00293
vt 0.75300 0.16255
vt 0.61680 0.16255
vt 0.61680 0.00293
vt 0.38306 0.17940
vt 0.38223 0.04494
vt 0.41539 0.00293
vt 0.41539 0.04494
vt 0.38223 0.00293
vt 1.38223 0.04494
vt 1.41539 0.00293
vt 1.38223 0.00293
vt 1.41539 0.04494
vt 0.93621 0.55531
vt 0.98528 0.49315
vt 0.98528 0.55531
vt 0.93621 0.49315
vt 1.93621 0.55531
vt 1.98528 0.49315
vt 1.93621 0.49315
vt 1.98528 0.55531
vt 0.90128 0.30295
vt 0.90128 0.25388
vt 0.91616 0.30295
vt 0.91616 0.25388
vt 1.90128 0.25388
vt 1.91616 0.30295
vt 1.91616 0.25388
vt 1.90128 0.30295
vt 0.30729 0.43644
vt 0.14766 0.59732
vt 0.14766 0.41176
vt 0.30729 0.57264
vt 0.27711 0.90478
vt 0.19258 0.80702
vt 0.27709 0.80700
vt 0.19260 0.90480
vt 0.08746 0.88346
vt 0.00293 0.98122
vt 0.00295 0.88344
vt 0.08744 0.98124
vt 0.99618 0.09443
vt 0.99618 0.12759
vt 0.98612 0.09443
vt 0.98612 0.12759
vt 1.98612 0.09443
vt 1.99618 0.12759
vt 1.99618 0.09443
vt 1.98612 0.12759
vt 0.74956 0.41754
vt 0.62678 0.54130
vt 0.62678 0.39856
vt 0.74956 0.52231
vt 0.36693 0.97040
vt 0.28242 0.89494
vt 0.36693 0.89494
vt 0.28242 0.97040
vt 0.10275 0.96802
vt 0.18726 0.89256
vt 0.18726 0.96802
vt 0.10275 0.89256
vt 0.94120 0.39848
vt 0.98963 0.48940
vt 0.94639 0.48940
vt 0.99481 0.39848
vt 1.94120 0.39848
vt 1.98963 0.48940
vt 1.99481 0.39848
vt 1.94639 0.48940
vt 0.66033 0.17063
vt 0.66033 0.19648
vt 0.59185 0.19648
vt 0.59185 0.17064
vt 1.66033 0.17063
vt 1.59185 0.19648
vt 1.66033 0.19648
vt 1.59185 0.17064
vt 0.21322 0.00293
vt 0.18260 0.03355
vt 0.18260 0.00293
vt 0.21321 0.03355
vt 1.21321 0.00293
vt 1.18260 0.03355
vt 1.21321 0.03355
vt 1.18260 0.00293
vt 0.10774 0.49605
vt 0.14200 0.58056
vt 0.10775 0.58057
vt 0.14199 0.49605
vt 0.51699 0.30673
vt 0.55124 0.39125
vt 0.51698 0.39124
vt 0.55124 0.30673
vt 0.71318 0.19647
vt 0.71318 0.17063
vt 1.71318 0.19647
vt 1.71318 0.17063
vt 0.07951 0.28931
vt 0.07952 0.35012
vt 0.02791 0.28930
vt 0.02788 0.35011
vt 0.90134 0.18018
vt 0.88398 0.19647
vt 0.88281 0.18018
vt 0.90017 0.19647
vt 0.89920 0.21001
vt 0.88495 0.21001
vt 0.89834 0.22203
vt 0.88582 0.22203
vt 0.89755 0.23302
vt 0.88660 0.23302
vt 0.89682 0.24327
vt 0.88734 0.24327
vt 0.89612 0.25293
vt 0.88803 0.25293
vt 0.89546 0.26212
vt 0.88869 0.26212
vt 0.88076 0.15070
vt 0.90339 0.15070
vt 0.87770 0.23313
vt 0.85137 0.28674
vt 0.85137 0.23313
vt 0.87770 0.28674
vt 1.87770 0.23313
vt 1.85137 0.28674
vt 1.87770 0.28674
vt 1.85137 0.23313
vt 0.87632 0.10468
vt 0.90549 0.12846
vt 0.87866 0.12846
vt 0.90782 0.10468
vt 0.91097 0.07094
vt 0.87317 0.07094
vt 0.18726 0.74441
vt 0.18729 0.88880
vt 0.10275 0.74442
vt 0.10277 0.88882
vt 0.28244 0.74678
vt 0.36696 0.74680
vt 0.28242 0.89118
vt 0.36693 0.89120
vt 0.37952 0.57442
vt 0.42660 0.49347
vt 0.40327 0.57779
vt 0.32902 0.45033
vt 0.42662 0.34752
vt 0.28741 0.40431
vt 0.38690 0.31266
vt 0.31857 0.30810
vt 1.42660 0.49347
vt 1.37952 0.57442
vt 1.40327 0.57779
vt 1.32902 0.45033
vt 1.42662 0.34752
vt 1.28741 0.40431
vt 1.38690 0.31266
vt 1.31857 0.30810
vt 0.85802 0.97763
vt 0.78649 0.90610
vt 0.85802 0.90610
vt 0.78649 0.97763
vt 1.85802 0.97763
vt 1.78649 0.90610
vt 1.78649 0.97763
vt 1.85802 0.90610
vt 0.93089 0.31277
vt 0.84639 0.43770
vt 0.84638 0.31278
vt 0.93091 0.43770
vt 0.93089 0.44144
vt 0.84639 0.56637
vt 0.84638 0.44145
vt 0.93091 0.56636
vt 0.44206 0.58154
vt 0.44204 0.74306
vt 0.28242 0.74304
vt 0.28243 0.58152
vt 0.71653 0.72701
vt 0.55691 0.72700
vt 0.71655 0.56549
vt 0.55693 0.56548
vt 0.64341 0.90211
vt 0.57188 0.97364
vt 0.57188 0.90211
vt 0.64341 0.97364
vt 1.64341 0.90211
vt 1.57188 0.97364
vt 1.64341 0.97364
vt 1.57188 0.90211
vt 0.19258 0.59489
vt 0.27714 0.80326
vt 0.19262 0.80327
vt 0.27710 0.59487
vt 0.53167 0.57938
vt 0.44711 0.78775
vt 0.44715 0.57936
vt 0.53163 0.78777
vt 0.80146 0.12946
vt 0.82545 0.15530
vt 0.80146 0.15530
vt 0.82545 0.12946
vt 1.80146 0.12946
vt 1.82545 0.15530
vt 1.82545 0.12946
vt 1.80146 0.15530
vt 0.97703 0.14888
vt 0.95118 0.23637
vt 0.95119 0.14888
vt 0.97703 0.23637
vt 1.95118 0.23637
vt 1.97703 0.14888
vt 1.95119 0.14888
vt 1.97703 0.23637
vt 0.97704 0.00293
vt 0.95119 0.00293
vt 1.95119 0.00293
vt 1.97704 0.00293
vt 0.65974 0.73075
vt 0.65973 0.85499
vt 0.53695 0.85498
vt 0.53696 0.73074
vt 0.84439 0.82709
vt 0.72161 0.82708
vt 0.84440 0.70285
vt 0.72162 0.70283
vt 0.06236 0.20600
vt 0.20169 0.05919
vt 0.20170 0.26758
vt 0.14497 0.00943
vt 0.13448 0.38317
vt 0.16839 0.38798
vt 0.00293 0.14031
vt 0.04740 0.00293
vt 0.55151 0.20600
vt 0.41218 0.26758
vt 0.41218 0.05919
vt 0.46890 0.00943
vt 0.47939 0.38317
vt 0.44548 0.38798
vt 0.61094 0.14031
vt 0.56647 0.00293
vt 0.87133 0.00293
vt 0.91186 0.03715
vt 0.87228 0.03716
vt 0.91280 0.00293
vt 0.18759 0.39309
vt 0.21820 0.34364
vt 0.21820 0.39309
vt 0.18759 0.34364
vt 1.18759 0.39309
vt 1.21821 0.34364
vt 1.18759 0.34364
vt 1.21821 0.39309
vt 0.37225 0.92554
vt 0.44378 0.92554
vt 0.44378 0.99707
vt 0.37225 0.99707
vt 1.37225 0.92554
vt 1.44378 0.99707
vt 1.44378 0.92554
vt 1.37225 0.99707
vt 0.94712 0.00293
vt 0.94711 0.10407
vt 0.92128 0.00293
vt 0.92126 0.10406
vt 1.94711 0.10407
vt 1.94712 0.00293
vt 1.92128 0.00293
vt 1.92126 0.10406
vt 0.74794 0.31278
vt 0.74541 0.40381
vt 0.72161 0.31278
vt 0.72417 0.40382
vt 1.72161 0.31278
vt 1.74541 0.40381
vt 1.74794 0.31278
vt 1.72417 0.40382
vt 0.99677 0.55905
vt 0.99677 0.60851
vt 0.96616 0.60851
vt 0.96616 0.55905
vt 1.99677 0.55905
vt 1.96616 0.60851
vt 1.99677 0.60851
vt 1.96616 0.55905
vt 0.01781 0.00293
vt 0.01782 0.06509
vt 0.00293 0.06509
vt 0.00293 0.00293
vt 1.01781 0.00293
vt 1.00293 0.06509
vt 1.01781 0.06509
vt 1.00293 0.00293
vt 0.43291 0.82193
vt 0.43190 0.89622
vt 0.40318 0.89249
vt 0.46537 0.86738
vt 0.87109 0.82833
vt 0.90455 0.85718
vt 0.87208 0.90262
vt 0.84237 0.83205
vt 0.99618 0.00293
vt 0.99618 0.04494
vt 0.98612 0.04494
vt 0.98612 0.00293
vt 1.99618 0.00293
vt 1.98612 0.04494
vt 1.99618 0.04494
vt 1.98612 0.00293
vt 0.65271 0.86093
vt 0.65410 0.89870
vt 0.62055 0.89396
vt 0.62210 0.86250
vt 0.04070 0.69408
vt 0.00766 0.72623
vt 0.00293 0.69268
vt 0.03912 0.72469
vt 0.59691 0.89046
vt 0.59823 0.86366
vt 0.01116 0.74987
vt 0.03796 0.74855
vt 0.57758 0.86478
vt 0.57481 0.88724
vt 0.03684 0.76920
vt 0.01438 0.77198
vt 0.84106 0.31278
vt 0.84107 0.50406
vt 0.75654 0.31279
vt 0.75656 0.50407
vt 0.84106 0.69910
vt 0.75656 0.50781
vt 0.84107 0.50782
vt 0.75654 0.69909
vt 0.47219 0.90424
vt 0.44679 0.91435
vt 0.91139 0.82032
vt 0.88599 0.81021
vt 0.54629 0.87950
vt 0.54991 0.86133
vt 0.02213 0.80049
vt 0.04029 0.79687
vt 0.53054 0.87517
vt 0.53371 0.85929
vt 0.51745 0.87157
vt 0.52024 0.85760
vt 0.50828 0.85609
vt 0.50584 0.86837
vt 0.49734 0.85472
vt 0.49520 0.86545
vt 0.48530 0.86273
vt 0.48715 0.85343
vt 0.47596 0.86016
vt 0.47754 0.85222
vt 0.46840 0.85107
vt 0.46708 0.85772
vt 0.02645 0.81624
vt 0.04233 0.81308
vt 0.03005 0.82933
vt 0.04403 0.82655
vt 0.04553 0.83850
vt 0.03325 0.84095
vt 0.04691 0.84944
vt 0.03617 0.85158
vt 0.04819 0.85963
vt 0.04146 0.87082
vt 0.03889 0.86148
vt 0.04940 0.86924
vt 0.05055 0.87838
vt 0.04390 0.87971
vt 0.37227 0.82647
vt 0.37225 0.89370
vt 0.81144 0.89807
vt 0.81144 0.83083
vt 0.71673 0.85107
vt 0.72183 0.89223
vt 0.68775 0.89550
vt 0.68288 0.85622
vt 0.05056 0.63006
vt 0.00613 0.65903
vt 0.00940 0.62495
vt 0.04541 0.66390
vt 0.48205 0.97878
vt 0.56657 0.89020
vt 0.56656 0.97879
vt 0.48206 0.89020
vt 0.89628 0.96801
vt 0.98081 0.87943
vt 0.98080 0.96802
vt 0.89629 0.87942
vt 0.46093 0.93403
vt 0.90014 0.79054
vt 0.34689 0.20600
vt 0.20755 0.26758
vt 0.20756 0.05919
vt 0.26428 0.00943
vt 0.27477 0.38317
vt 0.24086 0.38798
vt 0.40632 0.14031
vt 0.36185 0.00293
vt 0.92124 0.30007
vt 0.94710 0.16611
vt 0.94708 0.30008
vt 0.92126 0.16611
vt 1.92124 0.30007
vt 1.94710 0.16611
vt 1.92126 0.16611
vt 1.94708 0.30008
vt 1.61172 0.06509
vt 1.61172 0.00293
vt 1.59684 0.06509
vt 1.59684 0.00293
vt 0.61172 0.00293
vt 0.59684 0.06509
vt 0.59684 0.00293
vt 0.61172 0.06509
vt 1.27409 0.90854
vt 1.20256 0.90854
vt 1.27409 0.98007
vt 1.20256 0.98007
vt 0.27409 0.90854
vt 0.27409 0.98007
vt 0.20256 0.90854
vt 0.20256 0.98007
vt 0.99618 0.04868
vt 0.99618 0.09069
vt 0.98612 0.09069
vt 0.98612 0.04868
vt 1.99618 0.09069
vt 1.99618 0.04868
vt 1.98612 0.09069
vt 1.98612 0.04868
vt 1.72417 0.62217
vt 1.74794 0.53114
vt 1.72161 0.53114
vt 1.74541 0.62217
vt 0.74794 0.53114
vt 0.72417 0.62217
vt 0.72161 0.53114
vt 0.74541 0.62217
vt 1.89196 0.61957
vt 1.89196 0.57012
vt 1.86135 0.61957
vt 1.86135 0.57012
vt 0.89196 0.61957
vt 0.86135 0.61957
vt 0.89196 0.57012
vt 0.86135 0.57012
vt 0.65174 0.97397
vt 0.65173 0.90244
vt 0.72326 0.97397
vt 0.72326 0.90244
vt 1.65174 0.90244
vt 1.72326 0.97397
vt 1.72326 0.90244
vt 1.65174 0.97397
vt 0.90312 0.63486
vt 0.94180 0.60433
vt 0.94092 0.63486
vt 0.90223 0.60434
vt 0.85137 0.20622
vt 0.85137 0.16299
vt 0.87261 0.20622
vt 0.87261 0.16299
vt 0.90128 0.57011
vt 0.94275 0.57011
vt 1.85137 0.16299
vt 1.87261 0.20622
vt 1.87261 0.16299
vt 1.85137 0.20622
vt 0.80312 0.90236
vt 0.73159 0.90236
vt 0.73159 0.83083
vt 0.80312 0.83083
vt 1.80312 0.83083
vt 1.73159 0.83083
vt 1.80312 0.90236
vt 1.73159 0.90236
vt 0.31236 0.51134
vt 0.34298 0.51134
vt 0.31236 0.56079
vt 0.34298 0.56079
vt 1.31236 0.56079
vt 1.34298 0.51134
vt 1.31236 0.51134
vt 1.34298 0.56079
vt 0.90861 0.68913
vt 0.93544 0.68913
vt 0.93335 0.70970
vt 0.91071 0.70970
vt 0.93777 0.66535
vt 0.90628 0.66535
vt 0.46208 0.57563
vt 0.46208 0.39006
vt 0.62171 0.55095
vt 0.62171 0.41475
vt 0.71653 0.39482
vt 0.55691 0.20925
vt 0.71653 0.20925
vt 0.55691 0.39482
vt 0.06282 0.74609
vt 0.06282 0.60335
vt 0.18560 0.72710
vt 0.18560 0.62234
vt 1.10052 0.49481
vt 1.00293 0.39200
vt 1.00294 0.53794
vt 1.05002 0.61890
vt 1.02627 0.62227
vt 1.14214 0.44880
vt 1.04265 0.35714
vt 1.11099 0.35258
vt 0.10052 0.49481
vt 0.00294 0.53794
vt 0.00293 0.39200
vt 0.05002 0.61890
vt 0.02627 0.62227
vt 0.14214 0.44880
vt 0.04265 0.35714
vt 0.11098 0.35258
vt 0.00295 0.25461
vt 0.05457 0.28555
vt 0.00293 0.28556
vt 0.05455 0.25460
vt 0.91277 0.73751
vt 0.93130 0.73751
vt 0.93013 0.75380
vt 0.91394 0.75380
vt 0.91491 0.76734
vt 0.92916 0.76734
vt 0.92830 0.77936
vt 0.91578 0.77936
vt 0.92751 0.79035
vt 0.91657 0.79036
vt 0.92678 0.80060
vt 0.91730 0.80060
vt 0.92609 0.81026
vt 0.91800 0.81026
vt 0.92543 0.81945
vt 0.91866 0.81945
vt 0.76153 0.12946
vt 0.79215 0.12946
vt 0.76153 0.16007
vt 0.79215 0.16007
vt 1.76153 0.12946
vt 1.76153 0.16007
vt 1.79215 0.12946
vt 1.79215 0.16007
vt 0.99266 0.24012
vt 0.95118 0.28159
vt 0.95119 0.24012
vt 0.99266 0.28159
vt 0.04571 0.22702
vt 0.01178 0.22703
vt 0.84439 0.30904
vt 0.72161 0.16630
vt 0.84439 0.16630
vt 0.72161 0.30904
vt 0.99481 0.30382
vt 0.98963 0.39474
vt 0.94640 0.39474
vt 0.94120 0.30382
vt 1.94640 0.39474
vt 1.99481 0.30382
vt 1.94120 0.30382
vt 1.98963 0.39474
vt 0.35220 0.29450
vt 0.33731 0.24543
vt 0.35220 0.24543
vt 0.33731 0.29450
vt 1.35220 0.29450
vt 1.33731 0.24543
vt 1.33731 0.29450
vt 1.35220 0.24543
vt 0.99618 0.16450
vt 0.98612 0.13134
vt 0.99618 0.13134
vt 0.98612 0.16450
vt 1.99618 0.16450
vt 1.98612 0.13134
vt 1.98612 0.16450
vt 1.99618 0.13134
vt 0.01824 0.20448
vt 0.03924 0.20448
vt 0.02874 0.18264
vn 0.9606 0.2835 0.0000
vn -0.8032 0.5984 0.0000
vn -0.9843 0.1811 0.0000
vn 0.0000 1.0000 0.0000
vn -0.9134 -0.4094 0.0000
vn -1.0000 0.0000 0.0000
vn -1.0000 0.0394 0.0000
vn -0.8189 -0.5748 0.0000
vn 0.0315 -1.0000 0.0000
vn -1.0000 0.0394 -0.0079
vn -1.0000 0.0394 0.0079
vn 0.0000 -1.0000 0.0000
vn 1.0000 0.0394 0.0000
vn -0.8189 -0.5669 0.1024
vn -0.8189 -0.5669 -0.1024
vn 0.1024 0.9921 0.0000
vn 0.3543 -0.9370 0.0000
vn 0.3465 -0.9370 0.0000
vn 0.2362 -0.9685 0.0000
vn 0.2283 -0.9764 0.0000
vn -0.2047 0.9764 0.0000
vn 0.0000 0.1811 0.9843
vn 0.0000 0.1811 -0.9843
vn 0.1654 -0.9843 0.0000
vn 0.0000 0.1496 0.9921
vn 0.0000 0.1496 -0.9921
vn -0.1024 -0.9921 0.0000
vn 1.0000 0.0394 -0.0079
vn 1.0000 0.0394 0.0079
vn 0.1654 -0.9685 0.1811
vn 0.1654 -0.9685 -0.1811
vn -0.1024 -0.9764 0.1811
vn -0.1024 -0.9764 -0.1811
vn 0.0000 0.0000 1.0000
vn 0.0000 0.0000 -1.0000
vn -0.0079 -1.0000 0.0000
vn -0.2047 0.9606 -0.1732
vn -0.2047 0.9606 0.1732
vn 0.0551 0.0000 1.0000
vn 0.0551 0.0000 -1.0000
vn -0.1968 -0.1181 0.9764
vn -0.1968 -0.1181 -0.9764
vn 0.0945 0.0079 0.9921
vn 0.0945 0.0079 -0.9921
vn 0.0945 0.0157 0.9921
vn 0.0945 0.0157 -0.9921
vn 0.4724 0.8819 0.0000
vn -0.1260 -0.1890 0.9764
vn -0.1260 -0.1890 -0.9764
vn 0.0709 0.0157 1.0000
vn 0.0709 0.0157 -1.0000
vn 0.0709 0.0236 1.0000
vn 0.0709 0.0236 -1.0000
vn 0.0315 0.0000 1.0000
vn 0.0315 0.0000 -1.0000
vn 0.7480 0.6693 0.0000
vn -0.1654 -0.4173 0.8976
vn -0.1654 -0.4173 -0.8976
vn 0.4724 0.8661 -0.1575
vn 0.4724 0.8661 0.1575
vn 0.7480 0.6535 -0.1181
vn 0.7480 0.6535 0.1181
vn 1.0000 0.0000 0.0000
vn 0.0630 1.0000 0.0000
vn -0.0394 1.0000 0.0000
vn 0.0000 -0.1811 0.9843
vn 0.0000 -0.1811 -0.9843
vn -0.0630 -1.0000 0.0000
vn -0.2126 0.9764 0.0000
vn -1.0000 0.0315 0.0000
vn 0.0709 -1.0000 0.0000
vn 0.0315 1.0000 0.0000
vn 0.7638 -0.6457 0.0000
vn 0.7953 -0.6063 0.0000

o animal_parrot
usemtl tex_animal_parrot_i004p001x
f 1/1/1 2/2/1 3/3/1
f 1/1/1 4/4/1 2/2/1
f 5/5/2 6/6/2 7/7/2
f 5/5/2 8/8/2 6/6/2
f 6/6/3 9/9/3 7/7/3
f 9/9/3 6/6/3 10/10/3
f 11/11/4 12/12/4 13/13/4
f 14/14/4 11/11/4 13/13/4
f 15/15/4 16/16/4 17/17/4
f 18/18/4 15/15/4 17/17/4
f 9/9/5 10/10/5 19/19/5
f 20/20/6 21/21/6 22/22/6
f 21/21/6 20/20/6 23/23/6
f 24/24/6 25/25/6 26/26/6
f 24/24/6 27/27/6 25/25/6
f 28/28/6 29/29/6 30/30/6
f 29/29/6 28/28/6 31/31/6
f 32/32/6 33/33/6 34/34/6
f 32/32/6 35/35/6 33/33/6
f 36/36/4 37/37/4 30/38/4
f 28/39/4 30/38/4 37/37/4
f 38/40/4 35/41/4 32/42/4
f 35/41/4 38/40/4 39/43/4
f 15/44/6 40/45/6 41/46/6
f 40/45/6 15/44/6 18/47/6
f 42/48/7 43/49/7 44/50/7
f 42/48/7 45/51/7 43/49/7
f 43/52/7 46/53/7 47/54/7
f 46/53/7 43/52/7 45/55/7
f 20/56/4 22/57/4 48/58/4
f 49/59/4 48/58/4 22/57/4
f 50/60/4 27/61/4 24/62/4
f 27/61/4 50/60/4 51/63/4
f 11/64/6 52/65/6 53/66/6
f 52/65/6 11/64/6 14/67/6
f 44/68/8 54/69/8 55/70/8
f 44/68/8 43/71/8 54/69/8
f 47/72/8 54/73/8 43/74/8
f 54/73/8 47/72/8 56/75/8
f 57/76/9 58/77/9 59/78/9
f 58/77/9 57/76/9 60/79/9
f 61/80/9 62/81/9 63/82/9
f 62/81/9 61/80/9 64/83/9
f 65/84/10 66/85/10 67/86/10
f 68/87/10 65/84/10 67/86/10
f 69/88/11 70/89/11 71/90/11
f 70/89/11 69/88/11 72/91/11
f 73/92/12 74/93/12 75/94/12
f 74/93/12 73/92/12 76/95/12
f 77/96/12 78/97/12 79/98/12
f 77/96/12 80/99/12 78/97/12
f 81/100/13 82/101/13 83/102/13
f 82/101/13 81/100/13 84/103/13
f 85/104/13 84/105/13 81/106/13
f 84/105/13 85/104/13 86/107/13
f 87/108/14 65/84/14 88/109/14
f 65/84/14 87/108/14 66/85/14
f 69/88/15 89/110/15 90/111/15
f 89/110/15 69/88/15 71/90/15
f 5/112/16 91/113/16 8/114/16
f 8/114/16 91/113/16 92/115/16
f 93/116/17 94/117/17 95/118/17
f 94/117/17 93/116/17 96/119/17
f 94/117/17 97/120/17 98/121/17
f 94/117/17 96/119/17 97/120/17
f 98/121/17 99/122/17 100/123/17
f 98/121/17 97/120/17 99/122/17
f 100/123/17 101/124/17 102/125/17
f 100/123/17 99/122/17 101/124/17
f 102/125/17 103/126/17 104/127/17
f 102/125/17 101/124/17 103/126/17
f 104/127/17 105/128/17 106/129/17
f 104/127/17 103/126/17 105/128/17
f 106/129/17 4/130/17 1/131/17
f 106/129/17 105/128/17 4/130/17
f 107/132/18 93/116/18 95/118/18
f 107/132/18 108/133/18 93/116/18
f 109/134/6 60/135/6 57/136/6
f 60/135/6 109/134/6 110/137/6
f 111/138/6 63/139/6 112/140/6
f 63/139/6 111/138/6 61/141/6
f 113/142/19 114/143/19 115/144/19
f 113/142/19 116/145/19 114/143/19
f 115/144/19 108/133/19 107/132/19
f 115/144/19 114/143/19 108/133/19
f 117/146/20 113/142/20 118/147/20
f 113/142/20 117/146/20 116/145/20
f 42/148/21 119/149/21 45/150/21
f 45/150/21 119/149/21 120/151/21
f 46/152/21 45/153/21 121/154/21
f 45/153/21 120/155/21 121/154/21
f 122/156/22 123/157/22 124/158/22
f 123/157/22 122/156/22 125/159/22
f 125/159/22 87/160/22 123/157/22
f 87/160/22 125/159/22 126/161/22
f 87/160/22 126/161/22 66/162/22
f 66/162/22 126/161/22 67/163/22
f 127/164/23 128/165/23 129/166/23
f 128/165/23 127/164/23 130/167/23
f 130/167/23 127/164/23 89/168/23
f 130/167/23 89/168/23 131/169/23
f 131/169/23 89/168/23 71/170/23
f 131/169/23 71/170/23 70/171/23
f 132/172/12 133/173/12 134/174/12
f 133/173/12 132/172/12 135/175/12
f 136/176/12 137/177/12 138/178/12
f 136/176/12 139/179/12 137/177/12
f 140/180/24 83/181/24 141/182/24
f 83/181/24 140/180/24 81/183/24
f 142/184/24 81/185/24 140/186/24
f 81/185/24 142/184/24 85/187/24
f 15/188/25 41/189/25 143/190/25
f 15/188/25 143/190/25 16/191/25
f 18/192/26 17/193/26 40/194/26
f 40/194/26 17/193/26 144/195/26
f 145/196/6 132/197/6 134/198/6
f 132/197/6 145/196/6 146/199/6
f 147/200/6 136/201/6 148/202/6
f 136/201/6 147/200/6 139/203/6
f 55/204/27 140/205/27 141/206/27
f 54/207/27 140/205/27 55/204/27
f 56/208/27 140/209/27 54/210/27
f 140/209/27 56/208/27 142/211/27
f 149/212/28 122/213/28 124/214/28
f 122/213/28 149/212/28 150/215/28
f 151/216/29 128/217/29 152/218/29
f 128/217/29 151/216/29 129/219/29
f 153/220/30 124/221/30 123/222/30
f 124/221/30 153/220/30 149/223/30
f 129/224/31 154/225/31 127/226/31
f 154/225/31 129/224/31 151/227/31
f 88/228/32 153/220/32 87/229/32
f 87/229/32 153/220/32 123/222/32
f 89/230/33 154/225/33 90/231/33
f 154/225/33 89/230/33 127/226/33
f 11/232/25 53/233/25 155/234/25
f 11/232/25 155/234/25 12/235/25
f 14/236/26 13/237/26 52/238/26
f 52/238/26 13/237/26 156/239/26
f 157/240/34 55/241/34 141/242/34
f 157/240/34 44/243/34 55/241/34
f 141/242/34 82/244/34 157/240/34
f 82/244/34 141/242/34 83/245/34
f 44/243/34 157/240/34 119/246/34
f 44/243/34 119/246/34 42/247/34
f 158/248/35 142/249/35 56/250/35
f 47/251/35 158/248/35 56/250/35
f 86/252/35 142/249/35 158/248/35
f 142/249/35 86/252/35 85/253/35
f 158/248/35 47/251/35 121/254/35
f 121/254/35 47/251/35 46/255/35
f 159/256/36 160/257/36 161/258/36
f 159/256/36 162/259/36 160/257/36
f 161/258/36 117/146/36 118/147/36
f 161/258/36 160/257/36 117/146/36
f 163/260/6 75/261/6 164/262/6
f 75/261/6 163/260/6 73/263/6
f 165/264/6 80/265/6 77/266/6
f 165/264/6 166/267/6 80/265/6
f 145/268/34 134/269/34 133/270/34
f 145/268/34 133/270/34 167/271/34
f 147/272/35 137/273/35 139/274/35
f 137/273/35 147/272/35 168/275/35
f 67/276/37 126/277/37 68/278/37
f 68/278/37 126/277/37 169/279/37
f 131/280/38 70/281/38 72/282/38
f 72/282/38 170/283/38 131/280/38
f 57/284/39 59/285/39 109/286/39
f 109/286/39 59/285/39 171/287/39
f 111/288/40 64/289/40 61/290/40
f 64/289/40 111/288/40 172/291/40
f 164/292/34 75/293/34 74/294/34
f 164/292/34 74/294/34 173/295/34
f 166/296/35 78/297/35 80/298/35
f 78/297/35 166/296/35 174/299/35
f 30/300/34 29/301/34 175/302/34
f 30/300/34 175/302/34 36/303/34
f 35/304/35 176/305/35 33/306/35
f 176/305/35 35/304/35 39/307/35
f 5/308/41 177/309/41 178/310/41
f 177/309/41 5/308/41 7/311/41
f 179/312/42 6/313/42 8/314/42
f 8/314/42 180/315/42 179/312/42
f 22/316/34 21/317/34 181/318/34
f 22/316/34 181/318/34 49/319/34
f 27/320/35 182/321/35 25/322/35
f 182/321/35 27/320/35 51/323/35
f 183/324/43 118/325/43 113/326/43
f 183/324/43 113/326/43 184/327/43
f 185/328/44 116/329/44 117/330/44
f 116/329/44 185/328/44 186/331/44
f 184/327/45 113/326/45 115/332/45
f 184/327/45 115/332/45 187/333/45
f 186/331/46 114/334/46 116/329/46
f 114/334/46 186/331/46 188/335/46
f 189/336/45 115/332/45 107/337/45
f 115/332/45 189/336/45 187/333/45
f 114/334/46 190/338/46 108/339/46
f 114/334/46 188/335/46 190/338/46
f 157/340/47 82/341/47 191/342/47
f 191/342/47 82/341/47 84/343/47
f 84/344/47 158/345/47 191/346/47
f 158/345/47 84/344/47 86/347/47
f 177/309/48 7/311/48 9/348/48
f 177/309/48 9/348/48 192/349/48
f 10/350/49 179/312/49 193/351/49
f 179/312/49 10/350/49 6/313/49
f 107/337/50 95/352/50 189/336/50
f 95/352/50 194/353/50 189/336/50
f 190/338/51 93/354/51 108/339/51
f 93/354/51 190/338/51 195/355/51
f 194/353/52 95/352/52 94/356/52
f 94/356/52 196/357/52 194/353/52
f 196/357/52 94/356/52 98/358/52
f 98/358/52 197/359/52 196/357/52
f 198/360/52 98/358/52 100/361/52
f 98/358/52 198/360/52 197/359/52
f 199/362/52 100/361/52 102/363/52
f 100/361/52 199/362/52 198/360/52
f 102/363/52 104/364/52 199/362/52
f 104/364/52 200/365/52 199/362/52
f 104/364/52 106/366/52 200/365/52
f 106/366/52 201/367/52 200/365/52
f 3/368/52 106/366/52 1/369/52
f 106/366/52 3/368/52 201/367/52
f 96/370/53 195/355/53 202/371/53
f 195/355/53 96/370/53 93/354/53
f 202/371/53 97/372/53 96/370/53
f 97/372/53 202/371/53 203/373/53
f 97/372/53 204/374/53 99/375/53
f 204/374/53 97/372/53 203/373/53
f 205/376/53 99/375/53 204/374/53
f 99/375/53 205/376/53 101/377/53
f 206/378/53 105/379/53 103/380/53
f 105/379/53 206/378/53 207/381/53
f 205/376/53 103/380/53 101/377/53
f 103/380/53 205/376/53 206/378/53
f 105/379/53 2/382/53 4/383/53
f 2/382/53 105/379/53 207/381/53
f 91/384/34 178/310/34 208/385/34
f 178/310/34 91/384/34 5/308/34
f 8/314/35 92/386/35 180/315/35
f 180/315/35 92/386/35 209/387/35
f 210/388/54 159/389/54 161/390/54
f 210/388/54 161/390/54 211/391/54
f 183/324/54 161/390/54 118/325/54
f 161/390/54 183/324/54 211/391/54
f 212/392/55 160/393/55 162/394/55
f 160/393/55 212/392/55 213/395/55
f 160/393/55 185/328/55 117/330/55
f 160/393/55 213/395/55 185/328/55
f 191/396/56 119/397/56 157/398/56
f 119/397/56 191/396/56 120/399/56
f 158/400/56 120/401/56 191/402/56
f 120/401/56 158/400/56 121/403/56
f 192/349/57 9/348/57 19/404/57
f 10/350/58 193/351/58 19/405/58
f 191/406/35 140/407/35 54/408/35
f 43/409/35 191/406/35 54/408/35
f 84/410/35 140/407/35 191/406/35
f 140/407/35 84/410/35 81/411/35
f 191/406/35 43/409/35 120/412/35
f 120/412/35 43/409/35 45/413/35
f 150/414/59 125/415/59 122/416/59
f 125/415/59 150/414/59 214/417/59
f 152/418/60 130/419/60 215/420/60
f 130/419/60 152/418/60 128/421/60
f 32/422/34 34/423/34 38/424/34
f 216/425/34 38/424/34 34/423/34
f 31/426/35 37/427/35 217/428/35
f 31/426/35 28/429/35 37/427/35
f 148/430/34 136/431/34 218/432/34
f 136/431/34 138/433/34 218/432/34
f 146/434/35 219/435/35 132/436/35
f 132/436/35 219/435/35 135/437/35
f 169/279/61 125/415/61 214/417/61
f 125/415/61 169/279/61 126/277/61
f 130/419/62 170/283/62 215/420/62
f 170/283/62 130/419/62 131/280/62
f 23/438/35 20/439/35 48/440/35
f 23/438/35 48/440/35 220/441/35
f 24/442/34 26/443/34 50/444/34
f 221/445/34 50/444/34 26/443/34
f 62/446/39 112/447/39 63/448/39
f 112/447/39 62/446/39 222/449/39
f 110/450/40 58/451/40 60/452/40
f 58/451/40 110/450/40 223/453/40
f 165/454/34 77/455/34 224/456/34
f 77/455/34 79/457/34 224/456/34
f 163/458/35 225/459/35 73/460/35
f 73/460/35 225/459/35 76/461/35
f 133/462/63 135/463/63 167/464/63
f 135/463/63 219/465/63 167/464/63
f 138/466/63 168/467/63 218/468/63
f 137/469/63 168/467/63 138/466/63
f 185/470/64 211/471/64 183/472/64
f 211/471/64 185/470/64 213/473/64
f 59/474/63 58/475/63 171/476/63
f 223/477/63 171/476/63 58/475/63
f 212/478/64 210/479/64 211/471/64
f 212/478/64 211/471/64 213/473/64
f 62/480/63 172/481/63 222/482/63
f 62/480/63 64/483/63 172/481/63
f 145/484/4 167/485/4 219/486/4
f 146/487/4 145/484/4 219/486/4
f 148/488/4 218/489/4 147/490/4
f 147/490/4 218/489/4 168/491/4
f 74/492/63 76/493/63 173/494/63
f 76/493/63 225/495/63 173/494/63
f 174/496/63 79/497/63 78/498/63
f 79/497/63 174/496/63 224/499/63
f 188/500/65 187/501/65 189/502/65
f 188/500/65 189/502/65 190/503/65
f 185/470/65 183/472/65 184/504/65
f 185/470/65 184/504/65 186/505/65
f 188/500/65 184/504/65 187/501/65
f 184/504/65 188/500/65 186/505/65
f 143/506/63 144/507/63 16/508/63
f 144/507/63 17/509/63 16/508/63
f 40/510/12 143/511/12 41/512/12
f 143/511/12 40/510/12 144/513/12
f 155/514/63 156/515/63 12/516/63
f 156/515/63 13/517/63 12/516/63
f 215/518/66 90/519/66 154/520/66
f 154/520/66 152/521/66 215/518/66
f 152/521/66 154/520/66 151/522/66
f 90/519/66 215/518/66 170/523/66
f 90/519/66 170/523/66 69/524/66
f 69/524/66 170/523/66 72/525/66
f 214/526/67 153/527/67 88/528/67
f 150/529/67 153/527/67 214/526/67
f 153/527/67 150/529/67 149/530/67
f 214/526/67 88/528/67 169/531/67
f 169/531/67 88/528/67 65/532/67
f 169/531/67 65/532/67 68/533/67
f 178/534/68 209/535/68 208/536/68
f 180/537/68 209/535/68 178/534/68
f 195/538/69 189/502/69 194/539/69
f 189/502/69 195/538/69 190/503/69
f 195/538/69 194/539/69 196/540/69
f 195/538/69 196/540/69 202/541/69
f 203/542/69 196/540/69 197/543/69
f 196/540/69 203/542/69 202/541/69
f 203/542/69 197/543/69 198/544/69
f 203/542/69 198/544/69 204/545/69
f 204/545/69 198/544/69 199/546/69
f 204/545/69 199/546/69 205/547/69
f 205/547/69 199/546/69 200/548/69
f 205/547/69 200/548/69 206/549/69
f 206/549/69 200/548/69 201/550/69
f 206/549/69 201/550/69 207/551/69
f 207/551/69 201/550/69 3/552/69
f 207/551/69 3/552/69 2/553/69
f 163/554/4 164/555/4 225/556/4
f 164/555/4 173/557/4 225/556/4
f 165/558/4 224/559/4 166/560/4
f 166/560/4 224/559/4 174/561/4
f 210/562/70 162/563/70 159/564/70
f 210/562/70 212/565/70 162/563/70
f 179/566/71 178/534/71 177/567/71
f 178/534/71 179/566/71 180/537/71
f 52/568/12 155/569/12 53/570/12
f 155/569/12 52/568/12 156/571/12
f 109/572/72 171/573/72 223/574/72
f 223/574/72 110/575/72 109/572/72
f 222/576/72 111/577/72 112/578/72
f 111/577/72 222/576/72 172/579/72
f 31/580/12 175/581/12 29/582/12
f 175/581/12 31/580/12 217/583/12
f 34/584/12 176/585/12 216/586/12
f 34/584/12 33/587/12 176/585/12
f 23/588/12 181/589/12 21/590/12
f 181/589/12 23/588/12 220/591/12
f 26/592/12 182/593/12 221/594/12
f 26/592/12 25/595/12 182/593/12
f 192/596/73 179/566/73 177/567/73
f 193/597/73 179/566/73 192/596/73
f 193/597/74 192/596/74 19/598/74
