# Roblox asset pack: admin_badge_halo (accessories). Exported from Roblox Studio with Export Selection, then split/renamed/re-centred by tools/process_export.py. Units: studs (1 stud = 1 unit). +Y up. Pivot (HatAttachment) at the origin.
mtllib admin_badge_halo.mtl

v 0.00000 0.55000 0.72500
v -0.22930 0.55000 0.68780
v 0.00000 0.45000 0.72500
v -0.22930 0.45000 0.68780
v -0.40220 0.55000 0.60320
v -0.40220 0.45000 0.60320
v -0.51270 0.55000 0.51270
v -0.51270 0.45000 0.51270
v -0.60320 0.55000 0.40220
v -0.60320 0.45000 0.40220
v -0.68780 0.55000 0.22930
v -0.68780 0.45000 0.22930
v -0.72500 0.55000 0.00000
v -0.72500 0.45000 0.00000
v -0.68780 0.55000 -0.22930
v -0.68780 0.45000 -0.22930
v -0.60320 0.55000 -0.40220
v -0.60320 0.45000 -0.40220
v -0.51270 0.55000 -0.51270
v -0.51270 0.45000 -0.51270
v -0.40220 0.45000 -0.60320
v -0.40220 0.55000 -0.60320
v -0.22930 0.45000 -0.68780
v -0.22930 0.55000 -0.68780
v 0.00000 0.45000 -0.72500
v 0.00000 0.55000 -0.72500
v 0.22930 0.45000 -0.68780
v 0.22930 0.55000 -0.68780
v 0.40220 0.45000 -0.60320
v 0.40220 0.55000 -0.60320
v 0.51270 0.45000 -0.51270
v 0.51270 0.55000 -0.51270
v 0.60320 0.55000 -0.40220
v 0.60320 0.45000 -0.40220
v 0.68780 0.55000 -0.22930
v 0.68780 0.45000 -0.22930
v 0.72500 0.55000 0.00000
v 0.72500 0.45000 0.00000
v 0.68780 0.55000 0.22930
v 0.68780 0.45000 0.22930
v 0.60320 0.55000 0.40220
v 0.60320 0.45000 0.40220
v 0.51270 0.55000 0.51270
v 0.51270 0.45000 0.51270
v 0.40220 0.55000 0.60320
v 0.40220 0.45000 0.60320
v 0.22930 0.55000 0.68780
v 0.22930 0.45000 0.68780
v 0.41370 0.45000 -0.41370
v 0.48670 0.45000 -0.32450
v 0.32450 0.45000 -0.48670
v 0.55500 0.45000 -0.18500
v 0.58500 0.45000 0.00000
v 0.18500 0.45000 -0.55500
v 0.00000 0.45000 -0.58500
v -0.41370 0.55000 -0.41370
v -0.48670 0.55000 -0.32450
v -0.55500 0.55000 -0.18500
v -0.58500 0.55000 0.00000
v 0.55500 0.45000 0.18500
v 0.48670 0.45000 0.32450
v 0.41370 0.45000 0.41370
v 0.32450 0.45000 0.48670
v 0.18500 0.45000 0.55500
v 0.00000 0.45000 0.58500
v -0.18500 0.45000 -0.55500
v -0.32450 0.45000 -0.48670
v -0.41370 0.45000 -0.41370
v -0.48670 0.45000 -0.32450
v -0.55500 0.45000 -0.18500
v -0.58500 0.45000 0.00000
v 0.00000 0.55000 0.58500
v -0.18500 0.55000 0.55500
v -0.32450 0.55000 0.48670
v -0.55500 0.55000 0.18500
v -0.48670 0.55000 0.32450
v -0.18500 0.45000 0.55500
v -0.32450 0.45000 0.48670
v -0.48670 0.45000 0.32450
v -0.41370 0.45000 0.41370
v -0.55500 0.45000 0.18500
v -0.41370 0.55000 0.41370
v 0.48670 0.55000 -0.32450
v 0.41370 0.55000 -0.41370
v 0.32450 0.55000 -0.48670
v 0.55500 0.55000 -0.18500
v 0.58500 0.55000 0.00000
v 0.18500 0.55000 -0.55500
v 0.00000 0.55000 -0.58500
v 0.55500 0.55000 0.18500
v 0.48670 0.55000 0.32450
v 0.41370 0.55000 0.41370
v 0.32450 0.55000 0.48670
v 0.18500 0.55000 0.55500
v -0.18500 0.55000 -0.55500
v -0.32450 0.55000 -0.48670
v 0.85000 1.52000 -0.04000
v 0.85000 1.52000 0.04000
v 0.85000 0.98000 -0.04000
v 0.85000 0.98000 0.04000
v -0.85000 1.52000 0.04000
v -0.85000 1.52000 -0.04000
v -0.85000 0.98000 0.04000
v -0.85000 0.98000 -0.04000
v 0.85000 1.52000 -0.04500
v 0.85000 0.98000 -0.04500
v -0.85000 0.98000 -0.04500
v -0.85000 1.52000 -0.04500
v -0.85000 0.98000 0.04500
v 0.85000 0.98000 0.04500
v 0.85000 1.52000 0.04500
v -0.85000 1.52000 0.04500
v 0.03000 0.98000 -0.03000
v 0.03000 0.98000 0.03000
v 0.03000 0.58000 -0.03000
v 0.03000 0.58000 0.03000
v -0.03000 0.98000 0.03000
v -0.03000 0.98000 -0.03000
v -0.03000 0.58000 0.03000
v -0.03000 0.58000 -0.03000
vt -0.52912 1.89597
vt -0.52912 1.92463
vt -0.54162 1.89597
vt -0.54162 1.92463
vt -0.52912 1.94624
vt -0.54162 1.94624
vt -0.52912 1.96005
vt -0.54162 1.96005
vt -0.54162 1.86731
vt -0.52912 1.86731
vt -0.54162 1.84570
vt -0.52912 1.84570
vt -0.54162 1.83189
vt -0.52912 1.83189
vt -0.44940 1.92463
vt -0.45997 1.94624
vt -0.44475 1.89597
vt -0.47129 1.96005
vt -0.48510 1.97138
vt -0.50672 1.98195
vt -0.50672 1.81000
vt -0.48510 1.82057
vt -0.47129 1.83189
vt -0.45997 1.84570
vt -0.44940 1.86731
vt -0.53537 1.98660
vt -0.56403 1.98195
vt -0.58564 1.97138
vt -0.58708 1.84426
vt -0.59946 1.83189
vt -0.58564 1.82057
vt -0.57594 1.83513
vt -0.59622 1.85541
vt -0.61078 1.84570
vt -0.56403 1.81000
vt -0.55850 1.82660
vt -0.53537 1.80535
vt -0.53537 1.82285
vt -0.62135 1.86731
vt -0.60475 1.87285
vt -0.60850 1.89597
vt -0.62600 1.89597
vt -0.48367 1.94768
vt -0.49481 1.95681
vt -0.51225 1.96534
vt -0.53537 1.96910
vt -0.51225 1.82660
vt -0.49481 1.83513
vt -0.48367 1.84426
vt -0.47453 1.85541
vt -0.46600 1.87285
vt -0.46225 1.89597
vt -0.60475 1.91910
vt -0.62135 1.92463
vt -0.59622 1.93653
vt -0.61078 1.94624
vt -0.58708 1.94768
vt -0.59946 1.96005
vt -0.57594 1.95681
vt -0.55850 1.96534
vt -0.46600 1.91910
vt -0.47453 1.93653
vt -0.54162 1.84426
vt -0.52912 1.84426
vt -0.54162 1.85541
vt -0.52912 1.87285
vt -0.52912 1.85541
vt -0.54162 1.87285
vt -0.52912 1.91910
vt -0.54162 1.91910
vt -0.52912 1.93653
vt -0.54162 1.93653
vt -0.54162 1.94768
vt -0.52912 1.94768
vt 0.51000 -0.25000
vt 0.50000 -0.25000
vt 0.51000 -0.31750
vt 0.50000 -0.31750
vt 0.71250 -0.25000
vt 0.71250 -0.26000
vt 0.50000 -0.26000
vt 0.71250 -0.31750
vt 0.00000 1.00000
vt 0.00000 0.00000
vt 1.00000 0.00000
vt 1.00000 1.00000
vt 3.50750 -0.25000
vt 3.50000 -0.25000
vt 3.50750 -0.30000
vt 3.50000 -0.30000
vt 3.50750 -0.25750
vt 3.50000 -0.25750
vn 0.0000 0.0000 1.0000
vn -0.3150 0.0000 0.9449
vn -0.5512 0.0000 0.8346
vn -0.7087 0.0000 0.7087
vn -0.8346 0.0000 0.5512
vn -0.9449 0.0000 0.3150
vn -1.0000 0.0000 0.0000
vn -0.9449 0.0000 -0.3150
vn -0.8346 0.0000 -0.5512
vn -0.7087 0.0000 -0.7087
vn -0.5512 0.0000 -0.8346
vn -0.3150 0.0000 -0.9449
vn 0.0000 0.0000 -1.0000
vn 0.3150 0.0000 -0.9449
vn 0.5512 0.0000 -0.8346
vn 0.7087 0.0000 -0.7087
vn 0.8346 0.0000 -0.5512
vn 0.9449 0.0000 -0.3150
vn 1.0000 0.0000 0.0000
vn 0.9449 0.0000 0.3150
vn 0.8346 0.0000 0.5512
vn 0.7087 0.0000 0.7087
vn 0.5512 0.0000 0.8346
vn 0.3150 0.0000 0.9449
vn 0.0000 -1.0000 0.0000
vn 0.0000 1.0000 0.0000

o Halo
usemtl halo
f 1/1/1 2/2/2 3/3/1
f 2/2/2 4/4/2 3/3/1
f 2/2/2 5/5/3 4/4/2
f 5/5/3 6/6/3 4/4/2
f 5/5/3 7/7/4 6/6/3
f 7/7/4 8/8/4 6/6/3
f 7/8/4 9/6/5 8/7/4
f 9/6/5 10/5/5 8/7/4
f 9/6/5 11/4/6 10/5/5
f 11/4/6 12/2/6 10/5/5
f 11/4/6 13/3/7 12/2/6
f 13/3/7 14/1/7 12/2/6
f 13/3/7 15/9/8 14/1/7
f 15/9/8 16/10/8 14/1/7
f 15/9/8 17/11/9 16/10/8
f 17/11/9 18/12/9 16/10/8
f 17/11/9 19/13/10 18/12/9
f 19/13/10 20/14/10 18/12/9
f 21/5/11 20/7/10 22/6/11
f 20/7/10 19/8/10 22/6/11
f 23/2/12 21/5/11 24/4/12
f 21/5/11 22/6/11 24/4/12
f 25/1/13 23/2/12 26/3/13
f 23/2/12 24/4/12 26/3/13
f 27/10/14 25/1/13 28/9/14
f 25/1/13 26/3/13 28/9/14
f 29/12/15 27/10/14 30/11/15
f 27/10/14 28/9/14 30/11/15
f 31/14/16 29/12/15 32/13/16
f 29/12/15 30/11/15 32/13/16
f 32/14/16 33/12/17 31/13/16
f 33/12/17 34/11/17 31/13/16
f 33/12/17 35/10/18 34/11/17
f 35/10/18 36/9/18 34/11/17
f 35/10/18 37/1/19 36/9/18
f 37/1/19 38/3/19 36/9/18
f 37/1/19 39/2/20 38/3/19
f 39/2/20 40/4/20 38/3/19
f 39/2/20 41/5/21 40/4/20
f 41/5/21 42/6/21 40/4/20
f 41/5/21 43/7/22 42/6/21
f 43/7/22 44/8/22 42/6/21
f 43/14/22 45/12/23 44/13/22
f 45/12/23 46/11/23 44/13/22
f 45/12/23 47/10/24 46/11/23
f 47/10/24 48/9/24 46/11/23
f 47/10/24 1/1/1 48/9/24
f 1/1/1 3/3/1 48/9/24
f 4/15/25 6/16/25 3/17/25
f 6/16/25 8/18/25 3/17/25
f 8/18/25 10/19/25 3/17/25
f 10/19/25 12/20/25 3/17/25
f 40/21/25 42/22/25 3/17/25
f 42/22/25 44/23/25 3/17/25
f 44/23/25 46/24/25 3/17/25
f 46/24/25 48/25/25 3/17/25
f 15/20/26 13/26/26 17/19/26
f 13/26/26 11/27/26 17/19/26
f 11/27/26 9/28/26 17/19/26
f 26/17/26 24/15/26 17/19/26
f 24/15/26 22/16/26 17/19/26
f 22/16/26 19/18/26 17/19/26
f 49/29/25 31/30/25 34/31/25
f 50/32/25 49/29/25 34/31/25
f 31/30/25 51/33/25 29/34/25
f 31/30/25 49/29/25 51/33/25
f 50/32/25 34/31/25 36/35/25
f 52/36/25 50/32/25 36/35/25
f 36/35/25 38/37/25 52/36/25
f 38/37/25 53/38/25 52/36/25
f 27/39/25 29/34/25 54/40/25
f 29/34/25 51/33/25 54/40/25
f 27/39/25 54/40/25 55/41/25
f 25/42/25 27/39/25 55/41/25
f 56/43/26 17/19/26 57/44/26
f 57/44/26 17/19/26 58/45/26
f 59/46/26 58/45/26 17/19/26
f 59/46/26 17/19/26 9/28/26
f 53/38/25 38/37/25 40/21/25
f 60/47/25 53/38/25 40/21/25
f 61/48/25 60/47/25 40/21/25
f 62/49/25 61/48/25 40/21/25
f 40/21/25 63/50/25 62/49/25
f 40/21/25 3/17/25 63/50/25
f 3/17/25 64/51/25 63/50/25
f 64/51/25 3/17/25 65/52/25
f 25/42/25 55/41/25 66/53/25
f 66/53/25 23/54/25 25/42/25
f 66/53/25 67/55/25 23/54/25
f 21/56/25 23/54/25 67/55/25
f 67/55/25 68/57/25 21/56/25
f 20/58/25 21/56/25 68/57/25
f 68/57/25 69/59/25 20/58/25
f 18/28/25 20/58/25 69/59/25
f 69/59/25 70/60/25 18/28/25
f 16/27/25 18/28/25 70/60/25
f 70/60/25 71/46/25 16/27/25
f 14/26/25 16/27/25 71/46/25
f 72/41/26 73/53/26 1/42/26
f 2/54/26 1/42/26 73/53/26
f 73/53/26 74/55/26 2/54/26
f 5/56/26 2/54/26 74/55/26
f 75/60/26 7/58/26 76/59/26
f 77/61/25 65/52/25 3/17/25
f 78/62/25 77/61/25 3/17/25
f 78/62/25 3/17/25 12/20/25
f 12/20/25 79/44/25 80/43/25
f 14/26/25 71/46/25 81/45/25
f 12/20/25 14/26/25 81/45/25
f 12/20/25 81/45/25 79/44/25
f 78/62/25 12/20/25 80/43/25
f 9/28/26 75/60/26 59/46/26
f 82/57/26 76/59/26 5/56/26
f 5/56/26 74/55/26 82/57/26
f 7/58/26 5/56/26 76/59/26
f 9/28/26 7/58/26 75/60/26
f 83/48/26 33/22/26 32/23/26
f 84/49/26 83/48/26 32/23/26
f 85/50/26 32/23/26 30/24/26
f 85/50/26 84/49/26 32/23/26
f 35/21/26 33/22/26 86/47/26
f 33/22/26 83/48/26 86/47/26
f 37/37/26 35/21/26 87/38/26
f 35/21/26 86/47/26 87/38/26
f 88/51/26 30/24/26 28/25/26
f 88/51/26 85/50/26 30/24/26
f 89/52/26 88/51/26 28/25/26
f 89/52/26 28/25/26 26/17/26
f 39/35/26 37/37/26 90/36/26
f 37/37/26 87/38/26 90/36/26
f 39/35/26 90/36/26 91/32/26
f 91/32/26 41/31/26 39/35/26
f 41/31/26 91/32/26 92/29/26
f 41/31/26 92/29/26 43/30/26
f 92/29/26 93/33/26 43/30/26
f 43/30/26 93/33/26 45/34/26
f 93/33/26 94/40/26 45/34/26
f 47/39/26 45/34/26 94/40/26
f 94/40/26 72/41/26 47/39/26
f 1/42/26 47/39/26 72/41/26
f 95/61/26 89/52/26 26/17/26
f 95/61/26 26/17/26 17/19/26
f 96/62/26 95/61/26 17/19/26
f 56/43/26 96/62/26 17/19/26
f 49/63/4 84/64/4 51/65/3
f 52/66/6 53/1/7 87/3/7
f 83/65/5 49/64/4 50/67/5
f 52/66/6 86/68/6 50/67/5
f 51/65/3 85/67/3 54/68/2
f 55/3/1 54/68/2 88/66/2
f 53/1/7 60/69/8 90/70/8
f 61/71/9 91/72/9 60/69/8
f 92/73/10 61/71/9 62/74/10
f 93/65/11 62/64/10 63/67/11
f 94/68/12 63/67/11 64/66/12
f 64/66/12 65/1/13 72/3/13
f 89/1/1 66/70/24 55/3/1
f 66/70/24 95/69/24 67/72/23
f 96/71/23 68/73/22 67/72/23
f 56/64/22 69/65/21 68/63/22
f 57/67/21 70/68/20 69/65/21
f 71/3/19 70/68/20 58/66/20
f 65/1/13 77/69/14 73/70/14
f 74/72/15 77/69/14 78/71/15
f 75/69/18 79/72/17 81/70/18
f 76/71/17 80/73/16 79/72/17
f 59/1/19 81/70/18 71/3/19
f 82/73/16 78/71/15 80/74/16
f 60/69/8 91/72/9 90/70/8
f 65/1/13 73/70/14 72/3/13
f 56/64/22 57/67/21 69/65/21
f 77/69/14 74/72/15 73/70/14
f 78/71/15 82/73/16 74/72/15
f 57/67/21 58/66/20 70/68/20
f 79/72/17 75/69/18 76/71/17
f 59/1/19 75/69/18 81/70/18
f 61/71/9 92/73/10 91/72/9
f 59/1/19 71/3/19 58/66/20
f 80/73/16 76/71/17 82/74/16
f 51/65/3 84/64/4 85/67/3
f 54/68/2 85/67/3 88/66/2
f 93/65/11 92/63/10 62/64/10
f 93/65/11 63/67/11 94/68/12
f 52/66/6 87/3/7 86/68/6
f 94/68/12 64/66/12 72/3/13
f 88/66/2 89/1/1 55/3/1
f 83/65/5 50/67/5 86/68/6
f 89/1/1 95/69/24 66/70/24
f 53/1/7 90/70/8 87/3/7
f 96/71/23 67/72/23 95/69/24
f 96/71/23 56/74/22 68/73/22
f 84/63/4 49/64/4 83/65/5
o Badge
usemtl badge
f 97/75/19 98/76/19 99/77/19
f 99/77/19 98/76/19 100/78/19
f 101/79/26 98/76/26 102/80/26
f 102/80/26 98/76/26 97/81/26
f 98/79/1 101/76/1 100/82/1
f 100/82/1 101/76/1 103/78/1
f 101/75/7 102/76/7 103/77/7
f 103/77/7 102/76/7 104/78/7
f 104/79/25 99/76/25 103/80/25
f 103/80/25 99/76/25 100/81/25
f 102/79/13 97/76/13 104/82/13
f 104/82/13 97/76/13 99/78/13
o Badge_AdminText
usemtl badge_admintext
f 105/83/13 106/84/13 107/85/13
f 108/86/13 105/83/13 107/85/13
o Badge_AdminText_2
usemtl badge_admintext
f 109/84/1 110/85/1 111/86/1
f 109/84/1 111/86/1 112/83/1
o BadgeStem
usemtl badgestem
f 113/87/19 114/88/19 115/89/19
f 115/89/19 114/88/19 116/90/19
f 117/87/26 114/88/26 118/91/26
f 118/91/26 114/88/26 113/92/26
f 114/87/1 117/88/1 116/89/1
f 116/89/1 117/88/1 119/90/1
f 117/87/7 118/88/7 119/89/7
f 119/89/7 118/88/7 120/90/7
f 120/87/25 115/88/25 119/91/25
f 119/91/25 115/88/25 116/92/25
f 118/87/13 113/88/13 120/89/13
f 120/89/13 113/88/13 115/90/13
