# Roblox asset pack: egg_velociraptor (props), from the Studio model "Velociraptor". Exported with Export Selection, split by tools/build_creatures.py: one object per rigid body. Units: studs. +Y up, front faces -Z, pivot (bottom centre) at the origin.
mtllib egg_velociraptor.mtl

v -1.45320 4.64990 -1.45000
v 1.45320 4.64990 -1.45000
v -1.45320 -0.00010 -1.45000
v 1.45320 -0.00010 -1.45000
v 1.45320 4.64990 1.45000
v -1.45320 4.64990 1.45000
v 1.45320 -0.00010 1.45000
v -1.45320 -0.00010 1.45000
v -1.74380 2.90990 -1.74000
v 1.74390 2.90990 -1.74000
v -1.74380 0.57990 -1.74000
v 1.74390 0.57990 -1.74000
v 1.74390 2.90990 1.74000
v -1.74380 2.90990 1.74000
v 1.74390 0.57990 1.74000
v -1.74380 0.57990 1.74000
vt 5.36330 -1.50000
vt 5.00000 -1.50000
vt 5.36330 -2.08128
vt 5.00000 -2.08128
vt 5.36330 -1.86330
vt 5.00000 -1.86330
vt 2.18596 -1.50000
vt 1.75000 -1.50000
vt 2.18596 -1.79064
vt 1.75000 -1.79064
vt 2.18596 -1.93596
vt 1.75000 -1.93596
vn 0.0000 0.0000 -1.0000
vn 0.0000 1.0000 0.0000
vn 1.0000 0.0000 0.0000
vn 0.0000 0.0000 1.0000
vn 0.0000 -1.0000 0.0000
vn -1.0000 0.0000 0.0000

o egg_velociraptor
usemtl c_e9dada
f 1/1/1 2/2/1 3/3/1
f 3/3/1 2/2/1 4/4/1
f 5/1/2 2/2/2 6/5/2
f 6/5/2 2/2/2 1/6/2
f 2/1/3 5/2/3 4/3/3
f 4/3/3 5/2/3 7/4/3
f 5/1/4 6/2/4 7/3/4
f 7/3/4 6/2/4 8/4/4
f 8/1/5 3/2/5 7/5/5
f 7/5/5 3/2/5 4/6/5
f 6/1/6 1/2/6 8/3/6
f 8/3/6 1/2/6 3/4/6
usemtl c_6e99ca
f 9/7/1 10/8/1 11/9/1
f 11/9/1 10/8/1 12/10/1
f 13/7/2 10/8/2 14/11/2
f 14/11/2 10/8/2 9/12/2
f 10/7/3 13/8/3 12/9/3
f 12/9/3 13/8/3 15/10/3
f 13/7/4 14/8/4 15/9/4
f 15/9/4 14/8/4 16/10/4
f 16/7/5 11/8/5 15/11/5
f 15/11/5 11/8/5 12/12/5
f 14/7/6 9/8/6 16/9/6
f 16/9/6 9/8/6 11/10/6
