# Roblox asset pack: cylinder (map). Exported from Roblox Studio with Export Selection, then split/renamed/re-centred by tools/process_export.py. Units: studs (1 stud = 1 unit). +Y up. Pivot (bottom_centre) at the origin.
mtllib cylinder.mtl

v -0.00000 2.00000 0.00000
v -1.10940 2.00000 -1.66400
v -1.41421 2.00000 -1.41400
v -0.63246 2.00000 -1.89700
v 0.00000 2.00000 -2.00000
v 0.63246 2.00000 -1.89700
v 1.10940 2.00000 -1.66400
v 1.41421 2.00000 -1.41400
v 1.66410 2.00000 -1.10900
v 1.89737 2.00000 -0.63200
v 2.00000 2.00000 0.00000
v 1.89737 2.00000 0.63200
v 1.66410 2.00000 1.10900
v 1.41421 2.00000 1.41400
v 1.10940 2.00000 1.66400
v 0.63246 2.00000 1.89700
v -0.00000 2.00000 2.00000
v -0.63246 2.00000 1.89700
v -1.10940 2.00000 1.66400
v -1.41421 2.00000 1.41400
v -1.66410 2.00000 1.10900
v -1.89737 2.00000 0.63200
v -2.00000 2.00000 0.00000
v -1.89737 2.00000 -0.63200
v -1.66410 2.00000 -1.10900
v -1.41421 -0.00000 1.41400
v -1.66410 -0.00000 1.10900
v -1.89737 -0.00000 0.63200
v -2.00000 -0.00000 0.00000
v -1.89737 -0.00000 -0.63200
v -1.66410 -0.00000 -1.10900
v -1.41421 -0.00000 -1.41400
v -1.10940 0.00000 1.66400
v -0.63246 0.00000 1.89700
v 0.00000 0.00000 2.00000
v 0.63246 0.00000 1.89700
v 1.10940 0.00000 1.66400
v 1.41421 0.00000 1.41400
v 0.00000 0.00000 0.00000
v 1.66410 0.00000 1.10900
v 1.89737 0.00000 0.63200
v 2.00000 0.00000 0.00000
v 1.89737 0.00000 -0.63200
v 1.66410 0.00000 -1.10900
v 1.41421 0.00000 -1.41400
v 1.10940 0.00000 -1.66400
v 0.63246 0.00000 -1.89700
v -0.00000 0.00000 -2.00000
v -0.63246 0.00000 -1.89700
v -1.10940 0.00000 -1.66400
vt 5.00000 -5.75000
vt 5.20801 -5.61132
vt 5.17678 -5.57322
vt 5.23717 -5.67094
vt 5.25000 -5.75000
vt 5.23717 -5.82906
vt 5.20801 -5.88868
vt 5.17678 -5.92678
vt 5.13868 -5.95801
vt 5.07906 -5.98717
vt 5.00000 -6.00000
vt 4.92094 -5.98717
vt 4.86132 -5.95801
vt 4.82322 -5.92678
vt 4.79199 -5.88868
vt 4.76283 -5.82906
vt 4.75000 -5.75000
vt 4.76283 -5.67094
vt 4.79199 -5.61132
vt 4.82322 -5.57322
vt 4.86132 -5.54199
vt 4.92094 -5.51283
vt 5.00000 -5.50000
vt 5.07906 -5.51283
vt 5.13868 -5.54199
vt 4.75000 -5.50000
vt 5.00000 -5.58333
vt 4.75000 -5.58333
vt 5.00000 -5.66667
vt 4.75000 -5.66667
vt 5.00000 -5.83333
vt 4.75000 -5.83333
vt 5.00000 -5.91667
vt 4.75000 -5.91667
vt 4.75000 -6.00000
vn 0.0000 1.0000 0.0000
vn -0.7087 0.0000 0.7087
vn -0.8346 0.0000 0.5512
vn -0.9449 0.0000 0.3150
vn -1.0000 0.0000 0.0000
vn -0.9449 0.0000 -0.3150
vn -0.8346 0.0000 -0.5512
vn -0.7087 0.0000 -0.7087
vn -0.5512 0.0000 0.8346
vn -0.3150 0.0000 0.9449
vn 0.0000 0.0000 1.0000
vn 0.3150 0.0000 0.9449
vn 0.5512 0.0000 0.8346
vn 0.7087 0.0000 0.7087
vn 0.0000 -1.0000 0.0000
vn 0.7087 0.0000 -0.7087
vn 0.8346 0.0000 -0.5512
vn 0.9449 0.0000 -0.3150
vn 1.0000 0.0000 0.0000
vn 0.9449 0.0000 0.3150
vn 0.8346 0.0000 0.5512
vn -0.5512 0.0000 -0.8346
vn -0.3150 0.0000 -0.9449
vn 0.0000 0.0000 -1.0000
vn 0.3150 0.0000 -0.9449
vn 0.5512 0.0000 -0.8346

o Cylinder
usemtl cylinder
f 1/1/1 2/2/1 3/3/1
f 1/1/1 4/4/1 2/2/1
f 1/1/1 5/5/1 4/4/1
f 1/1/1 6/6/1 5/5/1
f 1/1/1 7/7/1 6/6/1
f 1/1/1 8/8/1 7/7/1
f 1/1/1 9/9/1 8/8/1
f 1/1/1 10/10/1 9/9/1
f 1/1/1 11/11/1 10/10/1
f 1/1/1 12/12/1 11/11/1
f 1/1/1 13/13/1 12/12/1
f 1/1/1 14/14/1 13/13/1
f 1/1/1 15/15/1 14/14/1
f 1/1/1 16/16/1 15/15/1
f 1/1/1 17/17/1 16/16/1
f 1/1/1 18/18/1 17/17/1
f 1/1/1 19/19/1 18/18/1
f 1/1/1 20/20/1 19/19/1
f 1/1/1 21/21/1 20/20/1
f 1/1/1 22/22/1 21/21/1
f 1/1/1 23/23/1 22/22/1
f 1/1/1 24/24/1 23/23/1
f 1/1/1 25/25/1 24/24/1
f 1/1/1 3/3/1 25/25/1
f 26/23/2 20/26/2 27/27/3
f 27/27/3 20/26/2 21/28/3
f 27/27/3 21/28/3 28/29/4
f 28/29/4 21/28/3 22/30/4
f 28/29/4 22/30/4 29/1/5
f 29/1/5 22/30/4 23/17/5
f 29/1/5 23/17/5 30/31/6
f 30/31/6 23/17/5 24/32/6
f 30/31/6 24/32/6 31/33/7
f 31/33/7 24/32/6 25/34/7
f 31/33/7 25/34/7 32/11/8
f 32/11/8 25/34/7 3/35/8
f 20/23/2 26/26/2 19/27/9
f 19/27/9 26/26/2 33/28/9
f 19/27/9 33/28/9 18/29/10
f 18/29/10 33/28/9 34/30/10
f 18/29/10 34/30/10 17/1/11
f 17/1/11 34/30/10 35/17/11
f 17/1/11 35/17/11 16/31/12
f 16/31/12 35/17/11 36/32/12
f 16/31/12 36/32/12 15/33/13
f 15/33/13 36/32/12 37/34/13
f 15/33/13 37/34/13 14/11/14
f 14/11/14 37/34/13 38/35/14
f 39/1/15 33/2/15 26/3/15
f 39/1/15 34/4/15 33/2/15
f 39/1/15 35/5/15 34/4/15
f 39/1/15 36/6/15 35/5/15
f 39/1/15 37/7/15 36/6/15
f 39/1/15 38/8/15 37/7/15
f 39/1/15 40/9/15 38/8/15
f 39/1/15 41/10/15 40/9/15
f 39/1/15 42/11/15 41/10/15
f 39/1/15 43/12/15 42/11/15
f 39/1/15 44/13/15 43/12/15
f 39/1/15 45/14/15 44/13/15
f 39/1/15 46/15/15 45/14/15
f 39/1/15 47/16/15 46/15/15
f 39/1/15 48/17/15 47/16/15
f 39/1/15 49/18/15 48/17/15
f 39/1/15 50/19/15 49/18/15
f 39/1/15 32/20/15 50/19/15
f 39/1/15 31/21/15 32/20/15
f 39/1/15 30/22/15 31/21/15
f 39/1/15 29/23/15 30/22/15
f 39/1/15 28/24/15 29/23/15
f 39/1/15 27/25/15 28/24/15
f 39/1/15 26/3/15 27/25/15
f 45/23/16 8/26/16 44/27/17
f 44/27/17 8/26/16 9/28/17
f 44/27/17 9/28/17 43/29/18
f 43/29/18 9/28/17 10/30/18
f 43/29/18 10/30/18 42/1/19
f 42/1/19 10/30/18 11/17/19
f 42/1/19 11/17/19 41/31/20
f 41/31/20 11/17/19 12/32/20
f 41/31/20 12/32/20 40/33/21
f 40/33/21 12/32/20 13/34/21
f 40/33/21 13/34/21 38/11/14
f 38/11/14 13/34/21 14/35/14
f 32/23/8 3/26/8 50/27/22
f 50/27/22 3/26/8 2/28/22
f 50/27/22 2/28/22 49/29/23
f 49/29/23 2/28/22 4/30/23
f 49/29/23 4/30/23 48/1/24
f 48/1/24 4/30/23 5/17/24
f 48/1/24 5/17/24 47/31/25
f 47/31/25 5/17/24 6/32/25
f 47/31/25 6/32/25 46/33/26
f 46/33/26 6/32/25 7/34/26
f 46/33/26 7/34/26 45/11/16
f 45/11/16 7/34/26 8/35/16
