# Roblox asset pack: animal_horse (creatures), from the Studio model "Horse". Exported with Export Selection, split by tools/build_creatures.py: one object per rigid body. Units: studs. +Y up, front faces -Z, pivot (bottom centre) at the origin.
mtllib animal_horse.mtl

v 2.88100 1.08000 0.31000
v 3.24600 1.43000 -0.07000
v 3.24600 1.43000 0.07000
v 2.88100 1.08000 -0.31000
v 3.21000 1.56000 -0.07000
v 3.21000 1.56000 0.07000
v 1.45500 1.26000 0.34000
v 1.60700 1.57000 1.07000
v 1.45500 1.26000 1.07000
v 1.60700 1.57000 0.34000
v 1.60700 1.57000 -1.07000
v 1.45500 1.26000 -0.34000
v 1.45500 1.26000 -1.07000
v 1.60700 1.57000 -0.34000
v 1.82000 1.47000 0.85000
v 1.82000 1.47000 -0.85000
v 1.82000 2.49000 0.85000
v 1.82000 2.49000 -0.85000
v -1.18200 0.00000 0.34000
v -0.60500 0.00000 1.07000
v -1.18200 0.00000 1.07000
v -0.60500 0.00000 0.34000
v 0.85300 0.00000 0.34000
v 1.43000 0.00000 1.07000
v 0.85300 0.00000 1.07000
v 1.43000 0.00000 0.34000
v -1.18200 0.00000 -0.34000
v -0.60500 0.00000 -1.07000
v -0.60500 0.00000 -0.34000
v -1.18200 0.00000 -1.07000
v 0.85300 0.00000 -0.34000
v 0.85300 0.00000 -1.07000
v 1.43000 0.00000 -1.07000
v 1.43000 0.00000 -0.34000
v 1.60700 2.30000 1.07000
v 1.60700 2.30000 0.34000
v 1.60700 2.30000 -1.07000
v 1.60700 2.30000 -0.34000
v 1.36900 0.19000 1.02000
v 1.36900 0.19000 0.39000
v 1.36900 0.19000 -1.02000
v 1.36900 0.19000 -0.39000
v -1.12500 0.19000 0.39000
v -0.66200 0.19000 1.02000
v -1.12500 0.19000 1.02000
v -0.66200 0.19000 0.39000
v 0.90600 0.19000 0.39000
v 0.90600 0.19000 1.02000
v -1.12500 0.19000 -0.39000
v -1.12500 0.19000 -1.02000
v -0.66200 0.19000 -1.02000
v -0.66200 0.19000 -0.39000
v 0.90600 0.19000 -0.39000
v 0.90600 0.19000 -1.02000
v -1.83800 5.15000 0.86000
v -2.01800 5.22000 0.54000
v -2.10800 5.20000 0.66000
v -1.74800 5.17000 0.74000
v -2.01800 5.22000 -0.54000
v -1.83800 5.15000 -0.86000
v -2.10800 5.20000 -0.66000
v -1.74800 5.17000 -0.74000
v 2.86400 1.71000 -0.31000
v 2.86400 1.71000 0.31000
v 2.71600 1.75000 -0.34000
v 2.21200 2.39000 0.23000
v 2.71600 1.75000 0.34000
v 2.21200 2.39000 -0.23000
v -2.55700 5.04000 0.36000
v -1.72000 5.10000 0.00000
v -2.55700 5.04000 0.00000
v -1.72000 5.10000 0.36000
v -2.55700 5.04000 -0.36000
v -1.72000 5.10000 -0.36000
v -2.75200 4.58000 0.36000
v -2.75200 4.58000 0.00000
v -2.75200 4.58000 -0.36000
v 1.40200 0.23000 1.03000
v 1.40200 0.23000 0.38000
v 1.40200 0.23000 -1.03000
v 1.40200 0.23000 -0.38000
v -3.24600 3.78000 0.38000
v -3.24600 3.89000 0.27000
v -3.24600 3.78000 0.25000
v -3.24600 3.81000 0.17000
v -3.24600 3.78000 0.10000
v -3.24600 3.78000 -0.10000
v -3.24600 3.81000 -0.17000
v -3.24600 3.89000 -0.27000
v -3.24600 3.78000 -0.25000
v -3.24600 3.78000 -0.38000
v -3.19600 3.78000 0.25000
v -3.18700 3.55000 0.17000
v -3.19600 3.56000 0.25000
v -3.19600 3.78000 0.09000
v -3.19600 3.56000 0.10000
v -3.18700 3.81000 0.17000
v -3.19600 3.78000 -0.09000
v -3.18700 3.55000 -0.17000
v -3.19600 3.56000 -0.10000
v -3.19600 3.78000 -0.25000
v -3.19600 3.56000 -0.25000
v -3.18700 3.81000 -0.17000
v -3.21600 3.30000 0.35000
v -3.23300 3.56000 0.25000
v -3.23200 3.55000 0.17000
v -3.23300 3.56000 -0.10000
v -3.23300 3.56000 0.10000
v -3.23200 3.55000 -0.17000
v -3.24600 3.78000 0.09000
v -3.24600 3.78000 -0.09000
v -3.23300 3.56000 -0.25000
v -3.21600 3.30000 -0.33000
v -3.15300 3.25000 0.29000
v -3.15300 3.25000 -0.28000
v -3.15300 3.17000 0.21000
v -3.15300 3.17000 -0.20000
v 1.38900 2.92000 -0.85000
v 1.38900 2.92000 0.85000
v 0.28700 1.22000 0.85000
v 0.28700 1.22000 -0.85000
v 1.60400 2.88000 0.14000
v 1.60400 2.88000 -0.14000
v -2.71900 4.52000 0.50000
v -1.53300 4.52000 0.50000
v -1.53300 4.52000 -0.50000
v -2.71900 4.52000 -0.50000
v -2.81500 4.27000 0.20000
v -2.81500 3.99000 0.42000
v -2.81500 4.27000 0.42000
v -2.81500 3.99000 0.20000
v -2.81500 4.27000 -0.20000
v -2.81500 3.99000 -0.42000
v -2.81500 3.99000 -0.20000
v -2.81500 4.27000 -0.42000
v -2.79400 4.37000 0.15000
v -2.79400 3.95000 0.48000
v -2.79400 4.37000 0.48000
v -2.79400 3.95000 0.15000
v -2.79400 4.37000 -0.15000
v -2.79400 3.95000 -0.48000
v -2.79400 3.95000 -0.15000
v -2.79400 4.37000 -0.48000
v -2.71900 4.32000 0.70000
v -2.71900 3.12000 0.50000
v -2.71900 3.32000 0.70000
v -2.71900 3.12000 -0.50000
v -2.71900 3.32000 -0.70000
v -2.71900 4.32000 -0.70000
v -2.22000 4.92000 0.53000
v -2.06700 4.95000 0.34000
v -2.22000 4.92000 -0.53000
v -2.06700 4.95000 -0.34000
v -0.77700 1.22000 -0.85000
v -0.77700 1.22000 0.85000
v -2.69300 4.37000 0.48000
v -2.69300 4.37000 0.15000
v -1.53300 4.32000 0.70000
v -2.69300 4.37000 -0.15000
v -2.69300 4.37000 -0.48000
v -1.53300 4.32000 -0.70000
v -2.10100 4.27000 0.45000
v -1.89100 4.22000 0.65000
v -1.86800 4.23000 0.62000
v -2.12400 4.26000 0.48000
v -2.10100 4.27000 -0.45000
v -1.89100 4.22000 -0.65000
v -2.12400 4.26000 -0.48000
v -1.86800 4.23000 -0.62000
v -1.33200 4.82000 0.00000
v -1.33200 4.82000 0.36000
v -1.33200 4.82000 -0.36000
v -2.74700 4.27000 0.20000
v -2.74700 4.27000 0.42000
v -2.74700 4.27000 -0.20000
v -2.74700 4.27000 -0.42000
v -1.52100 1.60000 0.85000
v -1.52100 1.60000 -0.85000
v 0.30300 2.85000 0.36000
v 0.30300 2.85000 0.00000
v -0.04100 3.36000 0.36000
v -0.04100 3.36000 0.00000
v 0.30300 2.85000 -0.36000
v -0.04100 3.36000 -0.36000
v -1.15400 0.71000 -1.04000
v -1.18300 1.22000 -1.07000
v -0.63600 1.10000 -1.04000
v -0.55400 1.29000 -1.07000
v -1.15400 0.71000 1.04000
v -0.63600 1.10000 1.04000
v -1.18300 1.22000 1.07000
v -0.55400 1.29000 1.07000
v -1.19300 1.40000 -1.08000
v -0.59400 1.40000 -1.08000
v -0.59400 1.40000 1.08000
v -1.19300 1.40000 1.08000
v -0.56800 1.86000 -1.10000
v -1.21900 1.86000 -1.10000
v -0.56800 1.86000 1.10000
v -1.21900 1.86000 1.10000
v 0.74900 1.26000 -1.07000
v 0.74900 1.26000 1.07000
v -1.12800 2.39000 1.10000
v -0.65900 2.39000 1.10000
v -1.12800 2.39000 -1.10000
v -0.65900 2.39000 -1.10000
v -2.42900 3.89000 0.27000
v -2.42900 3.89000 -0.27000
v -0.63600 1.10000 0.36000
v -0.55400 1.29000 0.34000
v -0.63600 1.10000 -0.36000
v -0.55400 1.29000 -0.34000
v 0.70800 1.57000 1.07000
v 0.70800 1.97000 1.07000
v 0.91000 2.43000 1.07000
v 0.70800 1.57000 -1.07000
v 0.70800 1.97000 -1.07000
v 0.91000 2.43000 -1.07000
v -2.42900 3.78000 0.38000
v -2.42900 3.78000 -0.38000
v -2.51100 3.43000 0.52000
v -1.50100 3.64000 0.52000
v -1.50100 3.64000 -0.52000
v -2.51100 3.43000 -0.52000
v 2.31800 1.19000 0.34000
v 2.31800 1.19000 -0.34000
v -1.76200 4.84000 0.88000
v -1.89300 5.07000 0.80000
v -1.83700 4.84000 0.82000
v -2.06400 5.10000 0.68000
v -2.14700 4.89000 0.59000
v -1.83700 4.84000 -0.82000
v -1.89300 5.07000 -0.80000
v -1.76200 4.84000 -0.88000
v -2.06400 5.10000 -0.68000
v -2.14700 4.89000 -0.59000
v -2.12400 4.90000 -0.56000
v -1.87000 5.08000 -0.77000
v -1.81400 4.84000 -0.79000
v -2.04100 5.11000 -0.65000
v -2.12400 4.90000 0.56000
v -1.81400 4.84000 0.79000
v -1.87000 5.08000 0.77000
v -2.04100 5.11000 0.65000
v -1.52100 2.92000 0.85000
v -1.52100 2.92000 -0.85000
v -1.44000 1.94000 -0.52000
v -1.44000 1.94000 0.52000
v -2.19300 4.19000 0.41000
v -2.19300 4.19000 -0.41000
v -1.82600 4.12000 0.69000
v -1.82600 4.12000 -0.69000
v -0.43000 2.14000 0.52000
v -0.43000 2.14000 -0.52000
v -2.07100 4.21000 0.25000
v -2.07100 4.21000 -0.25000
v -0.60100 3.38000 0.36000
v -0.60100 3.38000 0.00000
v -0.60100 3.38000 -0.36000
v -1.53300 3.32000 -0.70000
v -1.53300 3.32000 0.70000
v -1.15500 0.23000 -1.03000
v -0.63200 0.23000 -1.03000
v 0.88000 0.23000 -1.03000
v -1.15500 0.23000 1.03000
v -0.63200 0.23000 1.03000
v 0.88000 0.23000 1.03000
v -0.59400 1.40000 0.33000
v -0.56800 1.86000 0.31000
v -0.59400 1.40000 -0.33000
v -0.56800 1.86000 -0.31000
v -2.69300 3.95000 0.48000
v -2.69300 3.95000 -0.48000
v -1.61000 4.87000 -0.68000
v -1.61000 4.87000 0.68000
v -2.74700 3.99000 -0.42000
v -2.74700 3.99000 0.42000
v -2.42900 3.24000 -0.38000
v -1.20500 2.62000 -0.36000
v -2.63200 4.49000 -0.36000
v -0.65900 2.39000 0.31000
v -1.20500 2.62000 0.36000
v -2.63200 4.49000 0.36000
v -0.65900 2.39000 -0.31000
v -2.47000 3.30000 0.35000
v -2.63200 4.49000 0.00000
v -1.20500 2.62000 0.00000
v -1.15400 0.71000 0.36000
v -1.18300 1.22000 0.34000
v -1.19300 1.40000 0.33000
v -1.21900 1.86000 0.31000
v -1.19300 1.40000 -0.33000
v -1.18300 1.22000 -0.34000
v -1.21900 1.86000 -0.31000
v -1.15400 0.71000 -0.36000
v -0.63200 0.23000 0.38000
v -0.63200 0.23000 -0.38000
v -1.53300 3.12000 0.50000
v -1.53300 3.12000 -0.50000
v -2.53100 3.25000 0.29000
v -2.53100 3.17000 0.21000
v -2.47000 3.20000 0.25000
v 0.91000 2.43000 0.34000
v 0.91000 2.43000 -0.34000
v -2.49700 3.20000 -0.32000
v -1.12800 2.39000 0.31000
v -1.12800 2.39000 -0.31000
v 1.85100 2.11000 -0.23000
v 1.41000 2.68000 -0.14000
v 1.85100 2.11000 0.23000
v 1.41000 2.68000 0.14000
v -2.69300 3.95000 0.15000
v -2.53100 3.17000 -0.20000
v -2.69300 3.95000 -0.15000
v -2.74700 3.99000 0.20000
v -2.74700 3.99000 -0.20000
v -1.15500 0.23000 0.38000
v -1.15500 0.23000 -0.38000
v 0.74900 1.26000 0.34000
v 0.74900 1.26000 -0.34000
v 0.70800 1.57000 0.34000
v 0.70800 1.97000 0.34000
v 0.70800 1.57000 -0.34000
v 0.70800 1.97000 -0.34000
v -1.70300 4.14000 -0.53000
v -1.70300 4.14000 0.53000
v 0.88000 0.23000 0.38000
v 0.88000 0.23000 -0.38000
v -2.47000 3.20000 -0.24000
vt 0.90357 0.08609
vt 0.94756 0.04756
vt 0.94663 0.05867
vt 0.90321 0.02037
vt 0.95836 0.04551
vt 0.95800 0.06104
vt 0.36952 0.81329
vt 0.30137 0.84483
vt 0.30137 0.81329
vt 0.36953 0.84482
vt 1.30137 0.84483
vt 1.36952 0.81329
vt 1.30137 0.81329
vt 1.36953 0.84482
vt 0.49535 0.16203
vt 0.49537 0.00295
vt 0.59099 0.16204
vt 0.59101 0.00296
vt 0.48943 0.96749
vt 0.43566 0.90008
vt 0.48943 0.90008
vt 0.43566 0.96749
vt 0.05670 0.96363
vt 0.00293 0.89622
vt 0.05670 0.89622
vt 0.00293 0.96363
vt 1.48943 0.96749
vt 1.43566 0.90008
vt 1.43566 0.96749
vt 1.48943 0.90008
vt 1.05670 0.96363
vt 1.05670 0.89622
vt 1.00293 0.89622
vt 1.00293 0.96363
vt 0.30137 0.91298
vt 0.36953 0.91298
vt 1.30137 0.91298
vt 1.36953 0.91298
vt 0.30614 0.71296
vt 0.36473 0.71295
vt 1.30614 0.71296
vt 1.36473 0.71295
vt 0.53848 0.97130
vt 0.49535 0.91272
vt 0.53848 0.91272
vt 0.49535 0.97130
vt 0.58822 0.97130
vt 0.54509 0.91272
vt 0.58822 0.91272
vt 0.54509 0.97130
vt 1.53848 0.97130
vt 1.53848 0.91272
vt 1.49535 0.91272
vt 1.49535 0.97130
vt 1.58821 0.97130
vt 1.58821 0.91272
vt 1.54509 0.91272
vt 1.54509 0.97130
vt 0.71806 0.20142
vt 0.70426 0.16971
vt 0.71806 0.16971
vt 0.70425 0.20142
vt 1.70426 0.16971
vt 1.71806 0.20142
vt 1.71806 0.16971
vt 1.70425 0.20142
vt 0.96464 0.00293
vt 0.96461 0.10314
vt 0.07754 0.86731
vt 0.14034 0.79896
vt 0.14106 0.87558
vt 0.09783 0.79343
vt 0.99158 0.26062
vt 0.95792 0.33876
vt 0.95793 0.26062
vt 0.99157 0.33876
vt 0.55386 0.66427
vt 0.55387 0.74240
vt 0.52022 0.66427
vt 0.52023 0.74241
vt 0.81251 0.51210
vt 0.77886 0.51210
vt 0.81251 0.46540
vt 0.77887 0.46540
vt 0.18082 0.58733
vt 0.14718 0.54062
vt 0.18082 0.54062
vt 0.14717 0.58732
vt 0.27152 0.77567
vt 0.27152 0.70826
vt 0.29355 0.77246
vt 0.29355 0.71148
vt 1.27152 0.70826
vt 1.29355 0.77246
vt 1.29355 0.71148
vt 1.27152 0.77567
vt 0.44081 0.53020
vt 0.45125 0.54041
vt 0.44096 0.54293
vt 0.44376 0.54962
vt 0.44098 0.55630
vt 0.44099 0.57532
vt 0.44376 0.58205
vt 0.45125 0.59120
vt 0.44099 0.58874
vt 0.44087 0.60147
vt 0.73926 0.29498
vt 0.73084 0.27371
vt 0.73765 0.27485
vt 0.72415 0.29558
vt 0.72415 0.27539
vt 0.73183 0.29843
vt 0.60994 0.27708
vt 0.60152 0.25580
vt 0.60833 0.25695
vt 0.59483 0.27768
vt 0.59483 0.25749
vt 0.60251 0.28052
vt 0.44060 0.54211
vt 0.39584 0.53364
vt 0.42039 0.54295
vt 0.41898 0.54966
vt 0.42040 0.57530
vt 0.42040 0.55635
vt 0.41898 0.58200
vt 0.44062 0.55712
vt 0.44063 0.57450
vt 0.42040 0.58870
vt 0.39581 0.59689
vt 0.44062 0.58956
vt 0.38861 0.53896
vt 0.38859 0.59175
vt 0.38097 0.54658
vt 0.38095 0.58411
vt 0.64777 0.00297
vt 0.64775 0.16205
vt 0.00293 0.17984
vt 0.16201 0.32453
vt 0.00293 0.32453
vt 0.16201 0.17984
vt 0.14104 0.72616
vt 0.11579 0.72287
vt 0.80976 0.80117
vt 0.69928 0.80117
vt 0.69928 0.70839
vt 0.80976 0.70839
vt 0.97285 0.10050
vt 0.99370 0.07408
vt 0.99370 0.10050
vt 0.97285 0.07408
vt 1.97285 0.10050
vt 1.99370 0.07408
vt 1.97285 0.07408
vt 1.99370 0.10050
vt 0.22178 0.89412
vt 0.25264 0.85503
vt 0.25264 0.89412
vt 0.22178 0.85503
vt 1.22178 0.89412
vt 1.25264 0.85503
vt 1.22178 0.85503
vt 1.25264 0.89412
vt 0.69052 0.77591
vt 0.67165 0.66427
vt 0.69052 0.68313
vt 0.67165 0.79477
vt 0.57887 0.66427
vt 0.57887 0.79477
vt 0.56001 0.68313
vt 0.56001 0.77591
vt 0.39582 0.90160
vt 0.39864 0.86891
vt 0.40999 0.89669
vt 0.37598 0.87198
vt 1.39582 0.90160
vt 1.39864 0.86891
vt 1.37597 0.87198
vt 1.40999 0.89669
vt 0.16201 0.08080
vt 0.00293 0.08080
vt 0.16707 0.03381
vt 0.16707 0.00295
vt 0.17643 0.03381
vt 0.17643 0.00295
vt 0.80976 0.82784
vt 0.69928 0.82784
vt 1.16707 0.00295
vt 1.17643 0.03381
vt 1.17643 0.00295
vt 1.16707 0.03381
vt 0.69928 0.68171
vt 0.80976 0.68171
vt 0.71420 0.09083
vt 0.71771 0.11817
vt 0.71420 0.11817
vt 0.71771 0.09083
vt 1.71420 0.09083
vt 1.71771 0.11817
vt 1.71771 0.09083
vt 1.71420 0.11817
vt 0.63953 0.94636
vt 0.59483 0.91272
vt 0.63953 0.91272
vt 0.59483 0.94636
vt 0.55387 0.79084
vt 0.52022 0.74614
vt 0.55386 0.74614
vt 0.52022 0.79084
vt 0.49670 0.20958
vt 0.49670 0.23043
vt 0.49038 0.20958
vt 0.49038 0.23043
vt 1.49670 0.23043
vt 1.49670 0.20958
vt 1.49038 0.20958
vt 1.49038 0.23043
vt 0.00293 0.00295
vt 0.16201 0.00295
vt 0.82860 0.25408
vt 0.82860 0.22043
vt 0.88586 0.25408
vt 0.88586 0.22043
vt 0.84850 0.62240
vt 0.88214 0.56514
vt 0.88214 0.62240
vt 0.84850 0.56514
vt 1.94552 0.64095
vt 1.94700 0.59285
vt 1.89635 0.60554
vt 1.88830 0.58796
vt 0.94552 0.64095
vt 0.89635 0.60554
vt 0.94700 0.59285
vt 0.88830 0.58796
vt 1.94753 0.57635
vt 1.89175 0.57769
vt 0.89175 0.57769
vt 0.94753 0.57635
vt 1.88829 0.53453
vt 1.94893 0.53308
vt 0.88829 0.53453
vt 0.94893 0.53308
vt 1.43630 0.52647
vt 1.45089 0.42634
vt 1.38516 0.42634
vt 1.39318 0.52647
vt 0.43630 0.52647
vt 0.38516 0.42634
vt 0.45089 0.42634
vt 0.39318 0.52647
vt 1.90094 0.69017
vt 1.94405 0.68906
vt 0.94405 0.68906
vt 0.90094 0.69017
vt 0.93926 0.48424
vt 0.89561 0.48528
vt 1.93926 0.48424
vt 1.89561 0.48528
vt 0.06808 0.59903
vt 0.06808 0.67514
vt 0.01748 0.67514
vt 0.01748 0.59903
vt 0.82399 0.35844
vt 0.88732 0.35845
vt 0.82162 0.37763
vt 0.88968 0.37764
vt 1.88732 0.35845
vt 1.82399 0.35844
vt 1.82162 0.37763
vt 1.88969 0.37764
vt 0.45472 0.39817
vt 0.37100 0.39816
vt 0.45472 0.36095
vt 0.37100 0.33000
vt 0.43596 0.31783
vt 1.45472 0.39817
vt 1.37100 0.39816
vt 1.45472 0.36095
vt 1.37100 0.33000
vt 1.43596 0.31783
vt 0.08262 0.59903
vt 0.08262 0.67514
vt 0.00293 0.67514
vt 0.00293 0.59903
vt 0.09895 0.32826
vt 0.09894 0.42426
vt 0.00294 0.42426
vt 0.00294 0.32826
vt 0.42946 0.90402
vt 0.37598 0.96523
vt 0.37598 0.90690
vt 0.42947 0.96808
vt 0.45217 0.86867
vt 0.43688 0.88747
vt 0.44323 0.86808
vt 0.44293 0.89615
vt 0.41578 0.88788
vt 0.40691 0.86719
vt 1.44323 0.86808
vt 1.43688 0.88747
vt 1.45217 0.86867
vt 1.44293 0.89615
vt 1.41578 0.88788
vt 1.40691 0.86719
vt 1.70425 0.96912
vt 1.73234 0.99027
vt 1.74065 0.96936
vt 1.71229 0.99013
vt 0.70425 0.96912
vt 0.74065 0.96936
vt 0.73234 0.99027
vt 0.71229 0.99013
vt 0.49029 0.07227
vt 0.33121 0.00295
vt 0.45485 0.00295
vt 0.49029 0.17131
vt 0.33121 0.27397
vt 0.37134 0.31411
vt 0.46699 0.31411
vt 0.32615 0.00295
vt 0.16707 0.07227
vt 0.20251 0.00295
vt 0.16707 0.17131
vt 0.32615 0.27397
vt 0.28601 0.31411
vt 0.19037 0.31411
vt 0.72416 0.00295
vt 0.82016 0.17399
vt 0.72416 0.17398
vt 0.82016 0.00295
vt 0.40034 0.79920
vt 0.40892 0.80783
vt 1.40034 0.79920
vt 1.40892 0.80783
vt 0.44582 0.79850
vt 0.43784 0.80737
vt 1.43784 0.80737
vt 1.44582 0.79850
vt 0.47471 0.00295
vt 0.47462 0.00980
vt 0.47134 0.00295
vt 0.47048 0.00980
vt 0.18286 0.01665
vt 0.18613 0.00980
vt 0.18622 0.01665
vt 0.18199 0.00980
vt 0.72415 0.26998
vt 0.82015 0.26999
vt 0.70919 0.90992
vt 0.73652 0.91011
vt 1.70919 0.90992
vt 1.73653 0.91011
vt 0.38049 0.79851
vt 1.38049 0.79851
vt 0.95792 0.73444
vt 0.95793 0.58441
vt 0.99158 0.58442
vt 0.99157 0.73444
vt 0.99158 0.10686
vt 0.99157 0.25689
vt 0.95793 0.10686
vt 0.95792 0.25689
vt 0.47471 0.01665
vt 0.47134 0.01665
vt 0.18622 0.00295
vt 0.18286 0.00295
vt 0.58813 0.90899
vt 0.49535 0.79850
vt 0.58813 0.79850
vt 0.49535 0.90899
vt 0.59483 0.79850
vt 0.68761 0.79850
vt 0.68761 0.90899
vt 0.59483 0.90899
vt 0.01262 0.74802
vt 0.03224 0.68643
vt 0.07152 0.72285
vt 0.00293 0.73686
vt 0.49535 0.19508
vt 0.55693 0.17544
vt 0.53178 0.23435
vt 0.54577 0.16576
vt 1.88830 0.83792
vt 1.91040 0.88912
vt 1.91041 0.83536
vt 1.88829 0.88655
vt 1.95793 0.88651
vt 1.98004 0.93772
vt 1.98005 0.88395
vt 1.95792 0.93515
vt 0.91041 0.83536
vt 0.91040 0.88912
vt 0.88830 0.83792
vt 0.88829 0.88655
vt 0.98005 0.88395
vt 0.98004 0.93772
vt 0.95793 0.88651
vt 0.95792 0.93515
vt 0.40582 0.65734
vt 0.43947 0.60519
vt 0.43946 0.65734
vt 0.40582 0.60519
vt 0.10738 0.53406
vt 0.14103 0.53405
vt 0.14103 0.58620
vt 0.10739 0.58620
vt 0.82080 0.38844
vt 0.89050 0.38845
vt 0.81866 0.43168
vt 0.89262 0.43169
vt 1.89050 0.38845
vt 1.81866 0.43168
vt 1.89262 0.43169
vt 1.82080 0.38844
vt 0.74003 0.90992
vt 0.74416 0.96917
vt 1.74003 0.90992
vt 1.74416 0.96917
vt 0.07851 0.88206
vt 0.13635 0.88958
vt 0.10914 0.92137
vt 0.09668 0.91975
vt 0.72415 0.31292
vt 0.81177 0.44472
vt 0.72415 0.48395
vt 0.81177 0.27369
vt 0.51469 0.57292
vt 0.68572 0.57292
vt 0.64649 0.66054
vt 0.47545 0.66054
vt 0.82638 0.27372
vt 0.88496 0.27373
vt 1.82638 0.27372
vt 1.88496 0.27373
vt 0.17643 0.26672
vt 0.17643 0.30582
vt 0.16707 0.30582
vt 0.16707 0.26672
vt 1.17643 0.26672
vt 1.16707 0.30582
vt 1.17643 0.30582
vt 1.16707 0.26672
vt 1.72792 0.85365
vt 1.69431 0.84382
vt 1.69836 0.85747
vt 1.72439 0.83157
vt 0.72792 0.85365
vt 0.69431 0.84382
vt 0.72439 0.83157
vt 0.69836 0.85747
vt 0.81795 0.51890
vt 0.69431 0.67798
vt 0.69431 0.51890
vt 0.81795 0.67798
vt 1.71555 0.13109
vt 1.70923 0.15751
vt 1.71555 0.15751
vt 1.70923 0.13109
vt 0.71555 0.13109
vt 0.71555 0.15751
vt 0.70923 0.15751
vt 0.70923 0.13109
vt 0.87422 0.48521
vt 0.87423 0.56132
vt 0.82897 0.48805
vt 0.82363 0.56147
vt 0.07256 0.71512
vt 0.14274 0.59163
vt 0.16323 0.67963
vt 0.12965 0.71953
vt 0.36138 0.59517
vt 0.31031 0.70923
vt 0.35338 0.69726
vt 0.39732 0.63265
vt 0.37494 0.59166
vt 0.81865 0.48147
vt 0.89261 0.48149
vt 0.59426 0.56922
vt 0.62975 0.47856
vt 0.71775 0.49905
vt 0.58985 0.51214
vt 0.71421 0.28042
vt 0.60015 0.33148
vt 0.61212 0.28841
vt 0.67673 0.24447
vt 0.71772 0.26685
vt 1.81865 0.48147
vt 1.89261 0.48149
vt 0.89824 0.38026
vt 0.94339 0.38309
vt 0.94340 0.45258
vt 0.89825 0.45637
vt 0.98663 0.36202
vt 0.98660 0.58068
vt 0.95295 0.58068
vt 0.95299 0.36202
vt 0.95178 0.91225
vt 0.91817 0.69358
vt 0.95181 0.69359
vt 0.91813 0.91224
vt 0.88967 0.72351
vt 0.82398 0.67544
vt 0.88730 0.67544
vt 0.82160 0.72351
vt 0.88494 0.62737
vt 0.82635 0.62737
vt 0.89262 0.78324
vt 0.82079 0.73999
vt 0.89048 0.73999
vt 0.81866 0.78323
vt 1.82079 0.73999
vt 1.88967 0.72351
vt 1.82160 0.72351
vt 1.89048 0.73999
vt 1.89261 0.78324
vt 1.81866 0.78323
vt 1.82398 0.67544
vt 1.88730 0.67544
vt 1.88494 0.62737
vt 1.82635 0.62737
vt 0.97285 0.07036
vt 0.97285 0.00294
vt 0.99488 0.06714
vt 0.99488 0.00616
vt 0.09893 0.59530
vt 0.00293 0.59529
vt 1.97285 0.00294
vt 1.99488 0.06714
vt 1.99488 0.00616
vt 1.97285 0.07036
vt 0.95792 0.88022
vt 0.95795 0.73817
vt 0.99160 0.73818
vt 0.99157 0.88022
vt 0.29524 0.99706
vt 0.26157 0.85503
vt 0.29522 0.85502
vt 0.26160 0.99707
vt 0.36594 0.31783
vt 0.36594 0.58886
vt 0.20686 0.58886
vt 0.20686 0.31784
vt 0.65788 0.09688
vt 0.65915 0.11707
vt 0.65451 0.11707
vt 0.65452 0.09688
vt 0.16707 0.23624
vt 0.17044 0.25643
vt 0.16707 0.25643
vt 0.17170 0.23624
vt 0.26263 0.73184
vt 0.15215 0.73184
vt 0.15215 0.70516
vt 0.26263 0.70516
vt 0.26263 0.85130
vt 0.15215 0.82462
vt 0.26263 0.82462
vt 0.15215 0.85130
vt 0.72496 0.90626
vt 0.69561 0.89038
vt 1.72496 0.90626
vt 1.69561 0.89038
vt 0.81098 0.90036
vt 0.82164 0.89995
vt 0.81752 0.90609
vt 0.80420 0.90626
vt 0.21326 0.92318
vt 0.14718 0.92319
vt 0.14717 0.85503
vt 0.21326 0.85503
vt 1.21326 0.85503
vt 1.14717 0.85503
vt 1.21326 0.92318
vt 1.14718 0.92319
vt 0.46493 0.57237
vt 0.50043 0.48170
vt 0.58843 0.50219
vt 0.46053 0.51528
vt 0.58489 0.28356
vt 0.47082 0.33462
vt 0.48280 0.29156
vt 0.54741 0.24762
vt 0.58840 0.27000
vt 0.87711 0.83672
vt 0.87045 0.90376
vt 0.87038 0.84248
vt 0.87711 0.91034
vt 0.89261 0.83303
vt 0.81865 0.83303
vt 1.89261 0.83303
vt 1.81865 0.83303
vt 0.06427 0.81890
vt 0.07145 0.88665
vt 0.04668 0.89250
vt 0.02172 0.82410
vt 0.62783 0.22707
vt 0.70142 0.20944
vt 0.69558 0.23422
vt 0.63301 0.18451
vt 0.81061 0.84205
vt 0.82152 0.84189
vt 0.71859 0.20515
vt 0.71859 0.24424
vt 0.70923 0.24424
vt 0.70923 0.20515
vt 0.85891 0.90011
vt 0.85951 0.84228
vt 1.71859 0.24424
vt 1.71859 0.20515
vt 1.70923 0.24424
vt 1.70923 0.20515
vt 0.80373 0.83629
vt 0.32759 0.28752
vt 0.32759 0.31394
vt 0.32126 0.31394
vt 0.32126 0.28752
vt 1.32759 0.31394
vt 1.32759 0.28752
vt 1.32126 0.31394
vt 1.32126 0.28752
vt 0.58825 0.23443
vt 0.58488 0.25462
vt 0.58488 0.23443
vt 0.58952 0.25462
vt 0.57493 0.23518
vt 0.57830 0.25537
vt 0.57493 0.25537
vt 0.57957 0.23518
vt 0.95197 0.26878
vt 0.90132 0.25609
vt 0.95048 0.22068
vt 0.89326 0.27367
vt 1.90132 0.25609
vt 1.95197 0.26878
vt 1.95048 0.22068
vt 1.89326 0.27367
vt 0.48256 0.80171
vt 0.46053 0.86591
vt 0.46053 0.79850
vt 0.48256 0.86269
vt 1.48256 0.80171
vt 1.46053 0.86591
vt 1.48256 0.86269
vt 1.46053 0.79850
vt 0.89672 0.28394
vt 0.95250 0.28527
vt 1.89672 0.28394
vt 1.95250 0.28527
vt 0.89326 0.32710
vt 0.95390 0.32854
vt 1.89326 0.32710
vt 1.95390 0.32854
vt 0.18264 0.32826
vt 0.13150 0.42839
vt 0.13951 0.32826
vt 0.19722 0.42839
vt 1.18264 0.32826
vt 1.13149 0.42839
vt 1.19722 0.42839
vt 1.13951 0.32826
vt 0.90590 0.17146
vt 0.94901 0.17257
vt 1.90590 0.17146
vt 1.94901 0.17257
vt 0.90059 0.37635
vt 0.94424 0.37739
vt 1.94424 0.37739
vt 1.90059 0.37635
vt 0.20105 0.45656
vt 0.11733 0.45656
vt 0.20105 0.49378
vt 0.11733 0.52472
vt 0.18228 0.53690
vt 1.20105 0.45656
vt 1.11733 0.45656
vt 1.20105 0.49378
vt 1.11733 0.52472
vt 1.18228 0.53690
vt 0.44184 0.87160
vt 0.43523 0.88434
vt 1.44185 0.87160
vt 1.43523 0.88434
vt 0.79765 0.90747
vt 0.79765 0.98143
vt 0.75399 0.98143
vt 0.75399 0.90747
vt 1.75399 0.98143
vt 1.79765 0.90747
vt 1.75399 0.90747
vt 1.79765 0.98143
vt 0.66329 0.17979
vt 0.62965 0.17979
vt 0.66329 0.16578
vt 0.62964 0.16578
vt 0.51905 0.24924
vt 0.48540 0.23523
vt 0.51905 0.23523
vt 0.48540 0.24924
vt 0.39484 0.66427
vt 0.37598 0.77591
vt 0.37598 0.68313
vt 0.39484 0.79477
vt 0.48762 0.66427
vt 0.48762 0.79477
vt 0.50648 0.77591
vt 0.50648 0.68313
vt 1.79594 0.83549
vt 1.79571 0.85514
vt 0.79594 0.83549
vt 0.79571 0.85514
vt 1.58220 0.56249
vt 1.52280 0.55810
vt 1.52281 0.56161
vt 1.58219 0.55898
vt 0.58220 0.56249
vt 0.52280 0.55810
vt 0.58220 0.55898
vt 0.52281 0.56161
vt 0.79593 0.89884
vt 1.79593 0.89884
vt 0.47767 0.48314
vt 0.45556 0.43193
vt 0.47768 0.43450
vt 0.45556 0.48570
vt 0.46772 0.65639
vt 0.44562 0.60519
vt 0.46773 0.60776
vt 0.44561 0.65896
vt 1.47767 0.48314
vt 1.47768 0.43450
vt 1.45556 0.43193
vt 1.45556 0.48570
vt 1.44562 0.60519
vt 1.44561 0.65896
vt 1.46772 0.65639
vt 1.46773 0.60776
vt 0.86266 0.90644
vt 0.50085 0.18205
vt 0.49621 0.18205
vt 0.50087 0.18115
vt 0.49535 0.17390
vt 0.50087 0.17390
vt 0.49092 0.25387
vt 0.48627 0.25297
vt 0.49090 0.25297
vt 0.48540 0.26112
vt 0.49092 0.26112
vt 0.50087 0.16666
vt 0.49621 0.16576
vt 0.50085 0.16576
vt 0.49092 0.26836
vt 0.48627 0.26926
vt 0.49090 0.26926
vt 0.48043 0.00295
vt 0.48979 0.03381
vt 0.48043 0.03381
vt 0.48979 0.00295
vt 1.48979 0.03381
vt 1.48043 0.00295
vt 1.48043 0.03381
vt 1.48979 0.00295
vt 0.66084 0.15710
vt 0.65451 0.13625
vt 0.66084 0.13625
vt 0.65451 0.15710
vt 1.66084 0.15710
vt 1.65451 0.13625
vt 1.65451 0.15710
vt 1.66084 0.13625
vt 0.64294 0.25208
vt 0.59980 0.23330
vt 0.64294 0.23330
vt 0.59980 0.25208
vt 1.59980 0.23330
vt 1.64294 0.25208
vt 1.64294 0.23330
vt 1.59980 0.25208
vt 0.50032 0.56250
vt 0.50032 0.55900
vt 1.50032 0.56250
vt 1.50032 0.55900
vt 0.82860 0.10403
vt 0.89196 0.00295
vt 0.89676 0.10402
vt 0.83338 0.00296
vt 1.82860 0.10403
vt 1.89196 0.00295
vt 1.83338 0.00296
vt 1.89676 0.10402
vt 0.89676 0.13245
vt 0.82861 0.13246
vt 1.82861 0.13246
vt 1.89676 0.13245
vt 0.89677 0.16967
vt 0.82861 0.16968
vt 1.89677 0.16967
vt 1.82861 0.16968
vt 0.69928 0.16626
vt 0.69928 0.19172
vt 0.67383 0.16626
vt 0.67383 0.19172
vt 0.66512 0.09870
vt 0.70798 0.09869
vt 0.89677 0.21669
vt 0.82862 0.21670
vt 1.82862 0.21670
vt 1.89677 0.21669
vt 0.29355 0.78261
vt 0.27152 0.84680
vt 0.27152 0.77939
vt 0.29355 0.84359
vt 1.27152 0.84680
vt 1.29355 0.78261
vt 1.27152 0.77939
vt 1.29355 0.84359
vt 0.65451 0.00295
vt 0.71857 0.00295
vt 0.91829 0.00646
vt 0.89824 0.00295
vt 0.91829 0.00295
vt 0.89824 0.00646
vt 1.89824 0.00295
vt 1.91829 0.00646
vt 1.91829 0.00295
vt 1.89824 0.00646
vt 0.85237 0.91013
vt 0.85237 0.97111
vt 0.80373 0.97111
vt 0.80373 0.91013
vt 0.95185 0.10502
vt 0.95185 0.16600
vt 0.90321 0.16600
vt 0.90321 0.10502
vt 1.85237 0.91013
vt 1.80373 0.97111
vt 1.85237 0.97111
vt 1.80373 0.91013
vt 1.95185 0.10502
vt 1.90321 0.16600
vt 1.95185 0.16600
vt 1.90321 0.10502
vn 0.6929 -0.7244 0.0000
vn 0.9606 0.2756 0.0000
vn 0.8898 -0.4488 0.0000
vn 1.0000 0.0000 0.0000
vn 0.0000 -1.0000 0.0000
vn 1.0000 -0.0787 0.0000
vn 0.0472 0.9843 0.1890
vn 0.0472 0.9843 -0.1890
vn 0.5591 0.0394 -0.8268
vn 0.5591 0.0394 0.8268
vn 0.7874 0.6142 0.0000
vn -0.0709 1.0000 0.0000
vn -0.9213 0.3937 0.0000
vn 0.9921 0.1181 0.0000
vn -1.0000 0.0000 0.0000
vn -1.0000 -0.0630 0.0000
vn 0.7087 0.7087 0.0000
vn 0.1575 -0.9843 0.0000
vn 0.6220 0.7795 0.0000
vn 0.0000 1.0000 0.0000
vn -0.7244 0.4961 -0.4803
vn -0.7244 0.4961 0.4803
vn 0.0000 0.7087 0.7087
vn 0.0000 0.7087 -0.7087
vn 0.0315 0.9764 0.1968
vn 0.0315 0.9764 -0.1968
vn 0.5906 0.8110 0.0000
vn -0.4567 -0.8898 0.0000
vn 0.8268 0.5591 0.0000
vn 0.0315 -0.0709 -1.0000
vn 0.0315 -0.0709 1.0000
vn 0.0000 -0.0630 -1.0000
vn 0.0000 -0.0630 1.0000
vn 0.0000 -0.0472 -1.0000
vn 0.0000 -0.0472 1.0000
vn 0.0157 -0.0394 -1.0000
vn 0.0157 -0.0394 1.0000
vn 0.0000 0.0000 1.0000
vn 0.0000 0.0000 -1.0000
vn 0.9134 -0.4016 0.0000
vn -0.1968 0.9764 0.0000
vn -0.1968 -0.9843 0.0000
vn -0.6063 -0.0945 0.7874
vn -0.6063 -0.0945 -0.7874
vn -0.5906 -0.8032 0.0000
vn -0.8110 -0.5827 0.0000
vn -0.6142 -0.1496 0.7795
vn -0.6142 -0.1496 -0.7795
vn -0.6063 -0.1496 0.7795
vn -0.6063 -0.1496 -0.7795
vn 0.0000 0.9764 0.2047
vn -0.6063 -0.1575 0.7795
vn 0.0000 0.9764 -0.2047
vn -0.6063 -0.1575 -0.7795
vn 0.1968 -0.9764 0.0000
vn -0.7953 0.0709 -0.6063
vn -0.7953 0.0709 0.6063
vn 0.8898 0.4567 0.0000
vn 0.0787 -0.0236 -1.0000
vn 0.0787 -0.0236 1.0000
vn 0.0000 0.1417 -0.9921
vn 0.0000 0.1417 0.9921
vn 0.0315 1.0000 0.0000
vn 1.0000 -0.0551 0.0000
vn -0.7874 0.2205 -0.5748
vn -0.7874 0.2205 0.5748
vn 0.3937 0.9213 0.0000
vn 1.0000 -0.0315 0.0000
vn 0.7559 0.2205 -0.6142
vn 0.7559 0.2205 0.6142
vn -0.0315 -0.0472 -1.0000
vn 0.9843 0.1732 0.0000
vn 0.0000 -0.0709 1.0000
vn -0.7953 -0.6063 0.0000
vn -1.0000 -0.0551 0.0000
vn 0.3071 0.9528 0.0000
vn 0.8110 0.5827 0.0000
vn 0.1496 -0.9921 0.0000
vn 0.0000 0.0394 -1.0000
vn 0.0000 0.0394 1.0000
vn 0.0000 -0.7087 0.7087
vn 0.0000 -0.7087 -0.7087
vn 0.5906 0.4094 -0.6929
vn 0.5906 0.4094 0.6929
vn -0.1339 -0.7008 0.7008
vn 0.1811 0.9843 0.0000
vn 0.9370 0.3386 0.0000
vn -0.0945 -0.8189 -0.5669
vn -0.9843 0.1732 0.0000
vn -0.0866 0.0866 -0.9921
vn -0.0866 0.0866 0.9921
vn -0.0472 -0.8661 -0.4961
vn 0.0000 -0.7795 0.6220
vn -0.9921 0.1181 0.0000
vn -0.7480 -0.2205 -0.6220
vn -0.7480 -0.2205 0.6220
vn -0.6063 -0.7953 0.0000
vn 0.7874 -0.2205 -0.5748
vn 0.7874 -0.2205 0.5748
vn 0.7953 -0.0709 -0.6063
vn 0.7953 -0.0709 0.6063
vn 0.6063 0.0866 -0.7874
vn 0.6063 0.0866 0.7874
vn 0.3543 -0.9213 -0.1417
vn 0.0000 -0.9213 0.3858
vn 0.0000 -0.9213 -0.3858
vn 0.4409 -0.8976 0.0000
vn -0.0472 -0.9843 -0.1890
vn -0.0472 -0.9843 0.1890
vn 0.7244 -0.4961 0.4803
vn 0.7244 -0.4961 -0.4803
vn -0.9921 -0.1417 0.0000
vn -0.9921 -0.1339 0.0000
vn -0.7008 0.7087 0.0000
vn -0.9134 0.4016 0.0000
vn -0.8898 -0.4567 0.0000
vn -0.0315 -0.9764 -0.1968
vn -0.0315 -0.9764 0.1968

o animal_horse
usemtl tex_animal_horse_i025p001x
f 1/1/1 2/2/1 3/3/1
f 1/1/1 4/4/1 2/2/1
f 3/3/2 5/5/2 6/6/2
f 3/3/2 2/2/2 5/5/2
f 7/7/3 8/8/3 9/9/3
f 8/8/3 7/7/3 10/10/3
f 11/11/3 12/12/3 13/13/3
f 12/12/3 11/11/3 14/14/3
f 15/15/4 16/16/4 17/17/4
f 16/16/4 18/18/4 17/17/4
f 19/19/5 20/20/5 21/21/5
f 20/20/5 19/19/5 22/22/5
f 23/23/5 24/24/5 25/25/5
f 24/24/5 23/23/5 26/26/5
f 27/27/5 28/28/5 29/29/5
f 27/27/5 30/30/5 28/28/5
f 31/31/5 32/32/5 33/33/5
f 31/31/5 33/33/5 34/34/5
f 8/8/4 10/10/4 35/35/4
f 10/10/4 36/36/4 35/35/4
f 11/11/4 37/37/4 14/14/4
f 14/14/4 37/37/4 38/38/4
f 39/39/6 7/7/6 9/9/6
f 39/39/6 40/40/6 7/7/6
f 41/41/6 12/12/6 42/42/6
f 12/12/6 41/41/6 13/13/6
f 43/43/5 44/44/5 45/45/5
f 44/44/5 43/43/5 46/46/5
f 47/47/5 39/48/5 48/49/5
f 39/48/5 47/47/5 40/50/5
f 49/51/5 50/52/5 51/53/5
f 49/51/5 51/53/5 52/54/5
f 53/55/5 54/56/5 41/57/5
f 53/55/5 41/57/5 42/58/5
f 55/59/7 56/60/7 57/61/7
f 56/60/7 55/59/7 58/62/7
f 59/63/8 60/64/8 61/65/8
f 60/64/8 59/63/8 62/66/8
f 2/2/9 63/67/9 5/5/9
f 63/67/9 2/2/9 4/4/9
f 64/68/10 1/1/10 3/3/10
f 64/68/10 3/3/10 6/6/10
f 65/69/11 66/70/11 67/71/11
f 66/70/11 65/69/11 68/72/11
f 69/73/12 70/74/12 71/75/12
f 70/74/12 69/73/12 72/76/12
f 71/77/12 70/78/12 73/79/12
f 73/79/12 70/78/12 74/80/12
f 69/81/13 71/82/13 75/83/13
f 71/82/13 76/84/13 75/83/13
f 71/85/13 77/86/13 76/87/13
f 77/86/13 71/85/13 73/88/13
f 24/89/14 26/90/14 78/91/14
f 79/92/14 78/91/14 26/90/14
f 34/93/14 80/94/14 81/95/14
f 80/94/14 34/93/14 33/96/14
f 82/97/15 83/98/15 84/99/15
f 83/98/15 85/100/15 84/99/15
f 86/101/15 85/100/15 83/98/15
f 87/102/15 86/101/15 83/98/15
f 88/103/15 87/102/15 83/98/15
f 89/104/15 88/103/15 83/98/15
f 90/105/15 88/103/15 89/104/15
f 91/106/15 90/105/15 89/104/15
f 92/107/15 93/108/15 94/109/15
f 92/107/15 95/110/15 93/108/15
f 93/108/15 95/110/15 96/111/15
f 95/110/15 92/107/15 97/112/15
f 98/113/15 99/114/15 100/115/15
f 98/113/15 101/116/15 99/114/15
f 99/114/15 101/116/15 102/117/15
f 101/116/15 98/113/15 103/118/15
f 82/97/16 84/119/16 104/120/16
f 84/119/16 105/121/16 104/120/16
f 104/120/16 105/121/16 106/122/16
f 84/99/16 84/119/16 82/97/16
f 107/123/16 104/120/16 108/124/16
f 108/124/16 104/120/16 106/122/16
f 109/125/16 104/120/16 107/123/16
f 110/126/16 111/127/16 108/124/16
f 86/101/16 87/102/16 110/126/16
f 112/128/16 104/120/16 109/125/16
f 113/129/16 104/120/16 112/128/16
f 111/127/16 107/123/16 108/124/16
f 87/102/16 111/127/16 110/126/16
f 90/130/16 113/129/16 112/128/16
f 90/105/16 91/106/16 90/130/16
f 91/106/16 113/129/16 90/130/16
f 114/131/15 115/132/15 116/133/15
f 116/133/15 115/132/15 117/134/15
f 118/135/17 119/136/17 17/17/17
f 118/135/17 17/17/17 18/18/17
f 120/137/18 16/138/18 15/139/18
f 121/140/18 16/138/18 120/137/18
f 122/141/19 66/70/19 123/142/19
f 123/142/19 66/70/19 68/72/19
f 124/143/20 125/144/20 126/145/20
f 127/146/20 124/143/20 126/145/20
f 128/147/15 129/148/15 130/149/15
f 129/148/15 128/147/15 131/150/15
f 132/151/15 133/152/15 134/153/15
f 132/151/15 135/154/15 133/152/15
f 136/155/15 137/156/15 138/157/15
f 137/156/15 136/155/15 139/158/15
f 140/159/15 141/160/15 142/161/15
f 140/159/15 143/162/15 141/160/15
f 144/163/15 145/164/15 146/165/15
f 124/166/15 145/164/15 144/163/15
f 124/166/15 147/167/15 145/164/15
f 147/167/15 124/166/15 127/168/15
f 147/167/15 127/168/15 148/169/15
f 148/169/15 127/168/15 149/170/15
f 56/171/21 150/172/21 57/173/21
f 150/172/21 56/171/21 151/174/21
f 59/175/22 152/176/22 153/177/22
f 152/176/22 59/175/22 61/178/22
f 154/179/5 120/137/5 155/180/5
f 120/137/5 154/179/5 121/140/5
f 156/181/20 157/182/20 138/183/20
f 136/184/20 138/183/20 157/182/20
f 125/144/23 144/185/23 158/186/23
f 144/185/23 125/144/23 124/143/23
f 159/187/20 143/188/20 140/189/20
f 143/188/20 159/187/20 160/190/20
f 161/191/24 149/192/24 127/146/24
f 127/146/24 126/145/24 161/191/24
f 162/193/25 163/194/25 164/195/25
f 163/194/25 162/193/25 165/196/25
f 166/197/26 167/198/26 168/199/26
f 167/198/26 166/197/26 169/200/26
f 170/201/27 72/202/27 171/203/27
f 72/202/27 170/201/27 70/204/27
f 74/205/27 170/206/27 172/207/27
f 74/205/27 70/208/27 170/206/27
f 128/209/20 130/210/20 173/211/20
f 174/212/20 173/211/20 130/210/20
f 135/213/20 132/214/20 175/215/20
f 135/213/20 175/215/20 176/216/20
f 177/217/28 154/179/28 155/180/28
f 177/217/28 178/218/28 154/179/28
f 179/219/29 180/220/29 181/221/29
f 180/220/29 182/222/29 181/221/29
f 183/223/29 182/224/29 180/225/29
f 182/224/29 183/223/29 184/226/29
f 185/227/30 186/228/30 187/229/30
f 187/229/30 186/228/30 188/230/30
f 189/231/31 190/232/31 191/233/31
f 191/233/31 190/232/31 192/234/31
f 193/235/32 194/236/32 186/228/32
f 186/228/32 194/236/32 188/230/32
f 191/233/33 195/237/33 196/238/33
f 191/233/33 192/234/33 195/237/33
f 197/239/34 193/235/34 198/240/34
f 193/235/34 197/239/34 194/236/34
f 196/238/35 199/241/35 200/242/35
f 199/241/35 196/238/35 195/237/35
f 54/243/34 201/244/34 13/245/34
f 54/243/34 13/245/34 41/246/34
f 48/247/35 9/248/35 202/249/35
f 9/248/35 48/247/35 39/250/35
f 185/227/36 51/251/36 50/252/36
f 51/251/36 185/227/36 187/229/36
f 189/231/37 45/253/37 44/254/37
f 44/254/37 190/232/37 189/231/37
f 203/255/38 200/242/38 199/241/38
f 203/255/38 199/241/38 204/256/38
f 205/257/39 197/239/39 198/240/39
f 197/239/39 205/257/39 206/258/39
f 83/259/20 207/260/20 208/261/20
f 89/262/20 83/259/20 208/261/20
f 190/263/40 209/264/40 192/265/40
f 210/266/40 192/265/40 209/264/40
f 211/267/40 187/268/40 188/269/40
f 211/267/40 188/269/40 212/270/40
f 9/248/38 213/271/38 202/249/38
f 213/271/38 9/248/38 8/272/38
f 213/271/38 8/272/38 214/273/38
f 35/274/38 214/273/38 8/272/38
f 214/273/38 35/274/38 215/275/38
f 216/276/39 13/245/39 201/244/39
f 13/245/39 216/276/39 11/277/39
f 217/278/39 11/277/39 216/276/39
f 217/278/39 37/279/39 11/277/39
f 37/279/39 217/278/39 218/280/39
f 207/260/23 82/281/23 219/282/23
f 82/281/23 207/260/23 83/259/23
f 220/283/24 91/284/24 89/262/24
f 89/262/24 208/261/24 220/283/24
f 221/285/41 222/286/41 223/287/41
f 224/288/41 221/285/41 223/287/41
f 225/289/42 4/290/42 1/291/42
f 225/289/42 226/292/42 4/290/42
f 227/293/43 228/294/43 229/295/43
f 227/293/43 55/296/43 228/294/43
f 150/172/43 230/297/43 57/173/43
f 230/297/43 150/172/43 231/298/43
f 232/299/44 233/300/44 234/301/44
f 60/302/44 234/301/44 233/300/44
f 152/176/44 235/303/44 236/304/44
f 235/303/44 152/176/44 61/178/44
f 61/178/44 60/302/44 235/303/44
f 235/303/44 60/302/44 233/300/44
f 55/296/43 57/173/43 230/297/43
f 55/296/43 230/297/43 228/294/43
f 237/305/44 238/306/44 239/307/44
f 238/306/44 237/305/44 240/308/44
f 241/309/43 242/310/43 243/311/43
f 244/312/43 241/309/43 243/311/43
f 155/313/38 245/314/38 177/315/38
f 245/314/38 155/313/38 120/316/38
f 245/314/38 120/316/38 119/317/38
f 119/317/38 120/316/38 17/318/38
f 120/316/38 15/319/38 17/318/38
f 246/320/39 154/321/39 178/322/39
f 246/320/39 121/323/39 154/321/39
f 121/323/39 246/320/39 118/324/39
f 18/325/39 121/323/39 118/324/39
f 121/323/39 18/325/39 16/326/39
f 113/129/45 114/131/45 104/120/45
f 114/131/45 113/129/45 115/132/45
f 221/327/46 247/328/46 248/329/46
f 247/328/46 221/327/46 224/330/46
f 150/172/47 249/331/47 165/332/47
f 150/172/47 165/332/47 231/298/47
f 250/333/48 152/176/48 168/334/48
f 168/334/48 152/176/48 236/304/48
f 249/331/49 251/335/49 163/336/49
f 249/331/49 163/336/49 165/332/49
f 167/337/50 250/333/50 168/334/50
f 167/337/50 252/338/50 250/333/50
f 108/339/51 106/340/51 96/341/51
f 93/342/51 96/341/51 106/340/51
f 163/336/52 227/293/52 229/295/52
f 227/293/52 163/336/52 251/335/52
f 100/343/53 109/344/53 107/345/53
f 109/344/53 100/343/53 99/346/53
f 167/337/54 234/301/54 252/338/54
f 234/301/54 167/337/54 232/299/54
f 247/328/55 253/347/55 248/329/55
f 253/347/55 247/328/55 254/348/55
f 242/310/52 162/349/52 164/350/52
f 162/349/52 242/310/52 241/309/52
f 239/307/54 166/351/54 237/305/54
f 166/351/54 239/307/54 169/352/54
f 150/172/56 255/353/56 249/331/56
f 255/353/56 150/172/56 151/174/56
f 256/354/57 152/176/57 250/333/57
f 152/176/57 256/354/57 153/177/57
f 171/355/58 257/356/58 258/357/58
f 258/357/58 170/358/58 171/355/58
f 259/359/58 172/360/58 258/361/58
f 258/361/58 172/360/58 170/362/58
f 106/340/53 105/363/53 94/364/53
f 106/340/53 94/364/53 93/342/53
f 112/365/51 109/344/51 102/366/51
f 99/346/51 102/366/51 109/344/51
f 161/367/39 148/368/39 149/369/39
f 148/368/39 161/367/39 260/370/39
f 144/371/38 146/372/38 261/373/38
f 144/371/38 261/373/38 158/374/38
f 65/375/59 4/376/59 226/377/59
f 4/376/59 65/375/59 63/378/59
f 1/379/60 67/380/60 225/381/60
f 67/380/60 1/379/60 64/382/60
f 262/383/61 28/384/61 30/385/61
f 28/384/61 262/383/61 263/386/61
f 264/387/61 33/388/61 32/389/61
f 33/388/61 264/387/61 80/390/61
f 21/391/62 20/392/62 265/393/62
f 265/393/62 20/392/62 266/394/62
f 25/395/62 24/396/62 267/397/62
f 267/397/62 24/396/62 78/398/62
f 182/399/63 257/400/63 181/401/63
f 257/400/63 182/399/63 258/402/63
f 259/403/63 258/404/63 182/405/63
f 259/403/63 182/405/63 184/406/63
f 195/407/64 268/408/64 199/409/64
f 268/408/64 269/410/64 199/409/64
f 270/411/64 197/412/64 271/413/64
f 194/414/64 197/412/64 270/411/64
f 163/415/65 242/310/65 164/350/65
f 242/310/65 163/415/65 229/416/65
f 169/352/66 239/307/66 167/417/66
f 232/418/66 167/417/66 239/307/66
f 63/419/67 64/420/67 6/421/67
f 63/419/67 6/421/67 5/422/67
f 222/423/38 248/424/38 253/425/38
f 248/424/38 222/423/38 221/426/38
f 247/427/39 224/428/39 223/429/39
f 223/429/39 254/430/39 247/427/39
f 44/431/68 209/264/68 190/263/68
f 209/264/68 44/431/68 46/432/68
f 51/433/68 211/267/68 52/434/68
f 211/267/68 51/433/68 187/268/68
f 138/435/38 137/436/38 272/437/38
f 138/435/38 272/437/38 156/438/38
f 143/439/39 273/440/39 141/441/39
f 273/440/39 143/439/39 160/442/39
f 274/443/69 60/444/69 62/445/69
f 60/444/69 274/443/69 234/446/69
f 275/447/70 55/448/70 227/449/70
f 55/448/70 275/447/70 58/450/70
f 245/451/15 178/452/15 177/453/15
f 178/452/15 245/451/15 246/454/15
f 135/455/39 276/456/39 133/457/39
f 276/456/39 135/455/39 176/458/39
f 130/459/38 129/460/38 277/461/38
f 130/459/38 277/461/38 174/462/38
f 91/463/71 220/464/71 113/465/71
f 113/465/71 220/464/71 278/466/71
f 183/467/39 279/468/39 259/469/39
f 183/467/39 259/469/39 184/470/39
f 279/468/39 280/471/39 259/469/39
f 280/471/39 172/472/39 259/469/39
f 172/472/39 280/471/39 74/473/39
f 74/473/39 280/471/39 73/474/39
f 73/474/39 280/471/39 77/475/39
f 199/409/72 269/410/72 204/476/72
f 269/410/72 281/477/72 204/476/72
f 179/478/38 257/479/38 282/480/38
f 257/479/38 179/478/38 181/481/38
f 257/479/38 283/482/38 282/480/38
f 283/482/38 257/479/38 171/483/38
f 283/482/38 171/483/38 72/484/38
f 69/485/38 283/482/38 72/484/38
f 283/482/38 69/485/38 75/486/38
f 271/413/72 206/487/72 284/488/72
f 197/412/72 206/487/72 271/413/72
f 82/489/73 104/490/73 285/491/73
f 82/489/73 285/491/73 219/492/73
f 282/493/74 283/494/74 286/495/74
f 286/495/74 287/496/74 282/493/74
f 286/497/74 279/498/74 287/499/74
f 280/500/74 279/498/74 286/497/74
f 191/501/75 288/502/75 189/503/75
f 288/502/75 191/501/75 289/504/75
f 288/502/75 45/505/75 189/503/75
f 45/505/75 288/502/75 43/506/75
f 200/507/75 290/508/75 196/509/75
f 290/508/75 200/507/75 291/510/75
f 290/508/75 191/501/75 196/509/75
f 191/501/75 290/508/75 289/504/75
f 292/511/75 186/512/75 293/513/75
f 186/512/75 292/511/75 193/514/75
f 198/515/75 292/511/75 294/516/75
f 292/511/75 198/515/75 193/514/75
f 186/512/75 295/517/75 293/513/75
f 295/517/75 186/512/75 185/518/75
f 295/517/75 50/519/75 49/520/75
f 295/517/75 185/518/75 50/519/75
f 65/69/76 67/71/76 64/420/76
f 65/69/76 64/420/76 63/419/76
f 20/521/14 22/522/14 266/523/14
f 296/524/14 266/523/14 22/522/14
f 253/525/77 254/526/77 222/286/77
f 254/526/77 223/287/77 222/286/77
f 29/527/14 263/528/14 297/529/14
f 263/528/14 29/527/14 28/530/14
f 179/531/78 282/532/78 287/533/78
f 287/533/78 180/534/78 179/531/78
f 183/535/78 287/536/78 279/537/78
f 287/536/78 183/535/78 180/538/78
f 245/539/20 119/540/20 118/541/20
f 246/542/20 245/539/20 118/541/20
f 107/543/79 111/544/79 98/545/79
f 107/543/79 98/545/79 100/546/79
f 95/547/80 108/548/80 96/549/80
f 108/548/80 95/547/80 110/550/80
f 145/551/81 298/552/81 261/553/81
f 261/553/81 146/554/81 145/551/81
f 148/555/82 299/556/82 147/557/82
f 299/556/82 148/555/82 260/558/82
f 151/559/83 58/450/83 275/447/83
f 58/450/83 151/559/83 56/560/83
f 153/561/84 62/445/84 59/562/84
f 62/445/84 153/561/84 274/443/84
f 300/563/85 301/564/85 302/565/85
f 302/565/85 285/566/85 300/563/85
f 215/567/86 35/568/86 36/569/86
f 303/570/86 215/567/86 36/569/86
f 304/571/86 38/572/86 218/573/86
f 218/573/86 38/572/86 37/574/86
f 180/575/38 258/576/38 287/577/38
f 258/576/38 180/575/38 182/578/38
f 258/576/38 286/579/38 287/577/38
f 286/579/38 258/576/38 170/580/38
f 286/579/38 170/580/38 70/581/38
f 71/582/38 286/579/38 70/581/38
f 286/579/38 71/582/38 76/583/38
f 192/265/87 268/408/87 195/407/87
f 192/265/87 210/266/87 268/408/87
f 188/269/87 270/411/87 212/270/87
f 270/411/87 188/269/87 194/414/87
f 113/584/88 305/585/88 115/586/88
f 113/584/88 278/587/88 305/585/88
f 203/588/89 291/510/89 200/507/89
f 291/510/89 203/588/89 306/589/89
f 205/590/89 294/516/89 307/591/89
f 294/516/89 205/590/89 198/515/89
f 308/592/90 309/593/90 123/594/90
f 123/594/90 68/595/90 308/592/90
f 65/375/90 308/592/90 68/595/90
f 65/375/90 226/377/90 308/592/90
f 310/596/91 122/597/91 311/598/91
f 122/597/91 310/596/91 66/599/91
f 310/596/91 67/380/91 66/599/91
f 67/380/91 310/596/91 225/381/91
f 300/563/81 114/600/81 116/601/81
f 116/601/81 301/564/81 300/563/81
f 139/602/39 136/603/39 157/604/39
f 139/602/39 157/604/39 312/605/39
f 115/586/92 313/606/92 117/607/92
f 313/606/92 115/586/92 305/585/92
f 140/608/38 142/609/38 159/610/38
f 314/611/38 159/610/38 142/609/38
f 285/566/93 104/612/93 114/600/93
f 285/566/93 114/600/93 300/563/93
f 131/613/39 128/614/39 173/615/39
f 131/613/39 173/615/39 315/616/39
f 132/617/38 134/618/38 175/619/38
f 316/620/38 175/619/38 134/618/38
f 105/621/79 92/622/79 94/623/79
f 92/622/79 105/621/79 84/624/79
f 101/625/80 112/626/80 102/627/80
f 112/626/80 101/625/80 90/628/80
f 289/629/30 209/630/30 288/631/30
f 209/630/30 289/629/30 210/632/30
f 211/633/31 293/634/31 295/635/31
f 293/634/31 211/633/31 212/636/31
f 265/637/94 19/638/94 21/639/94
f 19/638/94 265/637/94 317/640/94
f 262/641/94 27/642/94 318/643/94
f 27/642/94 262/641/94 30/644/94
f 268/645/32 289/629/32 290/646/32
f 289/629/32 268/645/32 210/632/32
f 293/634/33 270/647/33 292/648/33
f 270/647/33 293/634/33 212/636/33
f 290/646/34 269/649/34 268/645/34
f 291/650/34 269/649/34 290/646/34
f 292/648/35 270/647/35 271/651/35
f 294/652/35 292/648/35 271/651/35
f 47/653/34 7/654/34 40/655/34
f 7/654/34 47/653/34 319/656/34
f 53/657/35 12/658/35 320/659/35
f 12/658/35 53/657/35 42/660/35
f 288/631/36 46/661/36 43/662/36
f 46/661/36 288/631/36 209/630/36
f 52/663/37 295/635/37 49/664/37
f 295/635/37 52/663/37 211/633/37
f 281/665/39 291/650/39 306/666/39
f 291/650/39 281/665/39 269/649/39
f 307/667/38 294/652/38 284/668/38
f 294/652/38 271/651/38 284/668/38
f 147/557/5 298/552/5 145/551/5
f 298/552/5 147/557/5 299/556/5
f 7/654/39 319/656/39 321/669/39
f 321/669/39 10/670/39 7/654/39
f 322/671/39 10/670/39 321/669/39
f 10/670/39 322/671/39 36/672/39
f 36/672/39 322/671/39 303/673/39
f 12/658/38 323/674/38 320/659/38
f 14/675/38 323/674/38 12/658/38
f 14/675/38 324/676/38 323/674/38
f 38/677/38 324/676/38 14/675/38
f 324/676/38 38/677/38 304/678/38
f 117/607/5 301/564/5 116/601/5
f 301/564/5 117/607/5 313/606/5
f 228/294/95 242/679/95 229/295/95
f 242/679/95 228/294/95 243/680/95
f 239/681/96 233/300/96 232/299/96
f 233/300/96 239/681/96 238/682/96
f 306/683/20 203/684/20 204/685/20
f 306/683/20 204/685/20 281/686/20
f 206/687/20 307/688/20 284/689/20
f 307/688/20 206/687/20 205/690/20
f 75/691/97 76/692/97 283/693/97
f 286/694/97 283/693/97 76/692/97
f 76/695/97 280/696/97 286/697/97
f 280/696/97 76/695/97 77/698/97
f 298/699/4 158/700/4 261/701/4
f 158/700/4 298/699/4 125/702/4
f 125/702/4 298/699/4 299/703/4
f 125/702/4 299/703/4 126/704/4
f 126/704/4 299/703/4 161/705/4
f 161/705/4 299/703/4 260/706/4
f 252/707/98 274/443/98 325/708/98
f 274/443/98 252/707/98 234/446/98
f 251/709/99 275/447/99 227/449/99
f 275/447/99 251/709/99 326/710/99
f 166/711/100 236/712/100 237/713/100
f 168/714/100 236/712/100 166/711/100
f 162/715/101 231/716/101 165/717/101
f 231/716/101 162/715/101 241/718/101
f 151/559/102 275/447/102 255/719/102
f 255/719/102 275/447/102 326/710/102
f 256/720/103 325/708/103 274/443/103
f 153/561/103 256/720/103 274/443/103
f 296/721/61 19/722/61 317/723/61
f 19/722/61 296/721/61 22/724/61
f 79/725/61 23/726/61 327/727/61
f 23/726/61 79/725/61 26/728/61
f 297/729/62 318/730/62 27/731/62
f 27/731/62 29/732/62 297/729/62
f 31/733/62 34/734/62 81/735/62
f 81/735/62 328/736/62 31/733/62
f 305/585/104 329/737/104 313/606/104
f 329/737/104 305/585/104 278/587/104
f 110/738/105 95/739/105 86/740/105
f 97/741/105 86/740/105 95/739/105
f 86/740/105 97/741/105 85/742/105
f 87/743/106 98/744/106 111/745/106
f 87/743/106 103/746/106 98/744/106
f 103/746/106 87/743/106 88/747/106
f 329/737/107 302/565/107 301/564/107
f 329/737/107 301/564/107 313/606/107
f 84/748/106 92/749/106 84/750/106
f 92/749/106 84/748/106 97/741/106
f 84/748/106 85/742/106 97/741/106
f 103/746/105 90/751/105 101/752/105
f 90/753/105 101/752/105 90/751/105
f 90/751/105 103/746/105 88/747/105
f 272/754/5 139/755/5 312/756/5
f 139/755/5 272/754/5 137/757/5
f 142/758/5 273/759/5 314/760/5
f 142/758/5 141/761/5 273/759/5
f 131/762/5 277/763/5 129/764/5
f 277/763/5 131/762/5 315/765/5
f 134/766/5 276/767/5 316/768/5
f 134/766/5 133/769/5 276/767/5
f 255/770/108 251/771/108 249/772/108
f 255/770/108 326/773/108 251/771/108
f 252/774/109 256/775/109 250/776/109
f 256/775/109 252/774/109 325/777/109
f 231/716/110 244/778/110 230/779/110
f 244/778/110 231/716/110 241/718/110
f 236/712/111 240/780/111 237/713/111
f 240/780/111 236/712/111 235/781/111
f 319/782/112 48/783/112 202/784/112
f 48/783/112 319/782/112 47/785/112
f 320/786/112 54/787/112 53/788/112
f 54/787/112 320/786/112 201/789/112
f 213/790/113 319/782/113 202/784/113
f 213/790/113 321/791/113 319/782/113
f 323/792/113 216/793/113 320/786/113
f 201/789/113 320/786/113 216/793/113
f 214/794/15 321/791/15 213/790/15
f 321/791/15 214/794/15 322/795/15
f 217/796/15 323/792/15 324/797/15
f 323/792/15 217/796/15 216/793/15
f 311/798/114 122/799/114 309/800/114
f 309/800/114 122/799/114 123/801/114
f 311/798/74 308/802/74 310/803/74
f 309/800/74 308/802/74 311/798/74
f 215/804/115 322/795/115 214/794/115
f 322/795/115 215/804/115 303/805/115
f 304/806/115 218/807/115 324/797/115
f 218/807/115 217/796/115 324/797/115
f 267/808/94 23/809/94 25/810/94
f 23/809/94 267/808/94 327/811/94
f 31/812/94 264/813/94 32/814/94
f 264/813/94 31/812/94 328/815/94
f 310/803/116 226/816/116 225/817/116
f 310/803/116 308/802/116 226/816/116
f 244/818/117 228/819/117 230/820/117
f 244/818/117 243/821/117 228/819/117
f 233/822/118 240/823/118 235/824/118
f 240/823/118 233/822/118 238/825/118
f 317/826/20 265/827/20 266/828/20
f 317/826/20 266/828/20 296/829/20
f 327/830/20 267/831/20 78/832/20
f 327/830/20 78/832/20 79/833/20
f 318/834/20 263/835/20 262/836/20
f 263/835/20 318/834/20 297/837/20
f 328/838/20 80/839/20 264/840/20
f 80/839/20 328/838/20 81/841/20
