# Roblox asset pack: gold_coin (props). Exported from Roblox Studio with Export Selection, then split/renamed/re-centred by tools/process_export.py. Units: studs (1 stud = 1 unit). +Y up. Pivot (grip) at the origin.
mtllib gold_coin.mtl

v 0.70000 0.00000 -0.12000
v 0.66410 0.22136 -0.12000
v 0.70000 0.00000 0.12000
v 0.66410 0.22136 0.12000
v 0.58240 0.38829 -0.12000
v 0.58240 0.38829 0.12000
v 0.49500 0.49497 -0.12000
v 0.49500 0.49497 0.12000
v 0.38830 0.58244 -0.12000
v 0.38830 0.58244 0.12000
v 0.22140 0.66408 -0.12000
v 0.22140 0.66408 0.12000
v 0.00000 0.70000 -0.12000
v 0.00000 0.70000 0.12000
v -0.22140 0.66408 -0.12000
v -0.22140 0.66408 0.12000
v -0.38830 0.58244 -0.12000
v -0.38830 0.58244 0.12000
v -0.49500 0.49497 -0.12000
v -0.49500 0.49497 0.12000
v -0.58240 0.38829 0.12000
v -0.58240 0.38829 -0.12000
v -0.66410 0.22136 0.12000
v -0.66410 0.22136 -0.12000
v -0.70000 0.00000 0.12000
v -0.70000 0.00000 -0.12000
v -0.66410 -0.22136 0.12000
v -0.66410 -0.22136 -0.12000
v -0.58240 -0.38829 0.12000
v -0.58240 -0.38829 -0.12000
v -0.49500 -0.49497 0.12000
v -0.49500 -0.49497 -0.12000
v -0.38830 -0.58244 -0.12000
v -0.38830 -0.58244 0.12000
v -0.22140 -0.66408 -0.12000
v -0.22140 -0.66408 0.12000
v 0.00000 -0.70000 -0.12000
v 0.00000 -0.70000 0.12000
v 0.22140 -0.66408 -0.12000
v 0.22140 -0.66408 0.12000
v 0.38830 -0.58244 -0.12000
v 0.38830 -0.58244 0.12000
v 0.49500 -0.49497 -0.12000
v 0.49500 -0.49497 0.12000
v 0.58240 -0.38829 -0.12000
v 0.58240 -0.38829 0.12000
v 0.66410 -0.22136 -0.12000
v 0.66410 -0.22136 0.12000
v -0.38180 -0.38184 0.12000
v -0.29950 -0.44931 0.12000
v -0.44930 -0.29954 0.12000
v -0.17080 -0.51229 0.12000
v 0.00000 -0.54000 0.12000
v -0.51230 -0.17076 0.12000
v -0.54000 0.00000 0.12000
v -0.38180 0.38184 -0.12000
v -0.29950 0.44931 -0.12000
v -0.17080 0.51229 -0.12000
v 0.00000 0.54000 -0.12000
v 0.17080 -0.51229 0.12000
v 0.29950 -0.44931 0.12000
v 0.38180 -0.38184 0.12000
v 0.44930 -0.29954 0.12000
v 0.51230 -0.17076 0.12000
v 0.54000 0.00000 0.12000
v -0.51230 0.17076 0.12000
v -0.44930 0.29954 0.12000
v -0.38180 0.38184 0.12000
v -0.29950 0.44931 0.12000
v -0.17080 0.51229 0.12000
v 0.00000 0.54000 0.12000
v 0.54000 0.00000 -0.12000
v 0.51230 0.17076 -0.12000
v 0.44930 0.29954 -0.12000
v 0.17080 0.51229 -0.12000
v 0.29950 0.44931 -0.12000
v 0.51230 0.17076 0.12000
v 0.44930 0.29954 0.12000
v 0.29950 0.44931 0.12000
v 0.38180 0.38184 0.12000
v 0.17080 0.51229 0.12000
v 0.38180 0.38184 -0.12000
v -0.38180 -0.38184 -0.12000
v -0.29950 -0.44931 -0.12000
v -0.44930 -0.29954 -0.12000
v -0.17080 -0.51229 -0.12000
v 0.00000 -0.54000 -0.12000
v -0.51230 -0.17076 -0.12000
v -0.54000 0.00000 -0.12000
v -0.51230 0.17076 -0.12000
v 0.17080 -0.51229 -0.12000
v 0.29950 -0.44931 -0.12000
v 0.38180 -0.38184 -0.12000
v 0.44930 -0.29954 -0.12000
v 0.51230 -0.17076 -0.12000
v -0.44930 0.29954 -0.12000
v 0.00000 0.00000 -0.08000
v -0.46590 0.31063 -0.08000
v -0.39600 0.39598 -0.08000
v -0.53130 0.17709 -0.08000
v -0.56000 0.00000 -0.08000
v -0.53130 -0.17709 -0.08000
v -0.46590 -0.31063 -0.08000
v -0.39600 -0.39598 -0.08000
v -0.31060 -0.46595 -0.08000
v -0.17710 -0.53126 -0.08000
v 0.00000 -0.56000 -0.08000
v 0.17710 -0.53126 -0.08000
v 0.31060 -0.46595 -0.08000
v 0.39600 -0.39598 -0.08000
v 0.46590 -0.31063 -0.08000
v 0.53130 -0.17709 -0.08000
v 0.56000 0.00000 -0.08000
v 0.53130 0.17709 -0.08000
v 0.46590 0.31063 -0.08000
v 0.39600 0.39598 -0.08000
v 0.31060 0.46595 -0.08000
v 0.17710 0.53126 -0.08000
v 0.00000 0.56000 -0.08000
v -0.17710 0.53126 -0.08000
v -0.31060 0.46595 -0.08000
v 0.39600 0.39598 0.08000
v 0.31060 0.46595 0.08000
v 0.17710 0.53126 0.08000
v 0.00000 0.56000 0.08000
v -0.17710 0.53126 0.08000
v -0.31060 0.46595 0.08000
v -0.39600 0.39598 0.08000
v 0.46590 0.31063 0.08000
v 0.53130 0.17709 0.08000
v 0.56000 0.00000 0.08000
v 0.53130 -0.17709 0.08000
v 0.46590 -0.31063 0.08000
v 0.39600 -0.39598 0.08000
v 0.00000 0.00000 0.08000
v 0.31060 -0.46595 0.08000
v 0.17710 -0.53126 0.08000
v 0.00000 -0.56000 0.08000
v -0.17710 -0.53126 0.08000
v -0.31060 -0.46595 0.08000
v -0.39600 -0.39598 0.08000
v -0.46590 -0.31063 0.08000
v -0.53130 -0.17709 0.08000
v -0.56000 0.00000 0.08000
v -0.53130 0.17709 0.08000
v -0.46590 0.31063 0.08000
v 0.00000 0.00000 -0.10000
v -0.25790 0.17196 -0.10000
v -0.21920 0.21920 -0.10000
v -0.29410 0.09803 -0.10000
v -0.31000 0.00000 -0.10000
v -0.29410 -0.09803 -0.10000
v -0.25790 -0.17196 -0.10000
v -0.21920 -0.21920 -0.10000
v -0.17200 -0.25794 -0.10000
v -0.09800 -0.29409 -0.10000
v 0.00000 -0.31000 -0.10000
v 0.09800 -0.29409 -0.10000
v 0.17200 -0.25794 -0.10000
v 0.21920 -0.21920 -0.10000
v 0.25790 -0.17196 -0.10000
v 0.29410 -0.09803 -0.10000
v 0.31000 0.00000 -0.10000
v 0.29410 0.09803 -0.10000
v 0.25790 0.17196 -0.10000
v 0.21920 0.21920 -0.10000
v 0.17200 0.25794 -0.10000
v 0.09800 0.29409 -0.10000
v 0.00000 0.31000 -0.10000
v -0.09800 0.29409 -0.10000
v -0.17200 0.25794 -0.10000
v 0.21920 0.21920 0.10000
v 0.17200 0.25794 0.10000
v 0.09800 0.29409 0.10000
v 0.00000 0.31000 0.10000
v -0.09800 0.29409 0.10000
v -0.17200 0.25794 0.10000
v -0.21920 0.21920 0.10000
v 0.25790 0.17196 0.10000
v 0.29410 0.09803 0.10000
v 0.31000 0.00000 0.10000
v 0.29410 -0.09803 0.10000
v 0.25790 -0.17196 0.10000
v 0.21920 -0.21920 0.10000
v 0.00000 0.00000 0.10000
v 0.17200 -0.25794 0.10000
v 0.09800 -0.29409 0.10000
v 0.00000 -0.31000 0.10000
v -0.09800 -0.29409 0.10000
v -0.17200 -0.25794 0.10000
v -0.21920 -0.21920 0.10000
v -0.25790 -0.17196 0.10000
v -0.29410 -0.09803 0.10000
v -0.31000 0.00000 0.10000
v -0.29410 0.09803 0.10000
v -0.25790 0.17196 0.10000
vt 22.01500 -53.00000
vt 22.01500 -52.97230
vt 21.98500 -53.00000
vt 21.98500 -52.97230
vt 22.01500 -52.95150
vt 21.98500 -52.95150
vt 22.01500 -52.93810
vt 21.98500 -52.93810
vt 21.98500 -53.02770
vt 22.01500 -53.02770
vt 21.98500 -53.04850
vt 22.01500 -53.04850
vt 21.98500 -53.06190
vt 22.01500 -53.06190
vt 22.08300 -52.97230
vt 22.07280 -52.95150
vt 22.08750 -53.00000
vt 22.06190 -52.93810
vt 22.04850 -52.92720
vt 22.02770 -52.91700
vt 22.02770 -53.08300
vt 22.04850 -53.07280
vt 22.06190 -53.06190
vt 22.07280 -53.04850
vt 22.08300 -53.02770
vt 22.00000 -52.91250
vt 21.97230 -52.91700
vt 21.95150 -52.92720
vt 21.93810 -52.93810
vt 21.95230 -53.04770
vt 21.93810 -53.06190
vt 21.95150 -53.07280
vt 21.96260 -53.05620
vt 21.94380 -53.03740
vt 21.92720 -53.04850
vt 21.97230 -53.08300
vt 21.97870 -53.06400
vt 22.00000 -53.08750
vt 22.00000 -53.06750
vt 21.91700 -53.02770
vt 21.93600 -53.02130
vt 21.93250 -53.00000
vt 21.91250 -53.00000
vt 22.04770 -52.95230
vt 22.03740 -52.94380
vt 22.02130 -52.93600
vt 22.00000 -52.93250
vt 22.02130 -53.06400
vt 22.03740 -53.05620
vt 22.04770 -53.04770
vt 22.05620 -53.03740
vt 22.06400 -53.02130
vt 22.06750 -53.00000
vt 21.93600 -52.97870
vt 21.91700 -52.97230
vt 21.94380 -52.96260
vt 21.92720 -52.95150
vt 21.95230 -52.95230
vt 21.96260 -52.94380
vt 21.97870 -52.93600
vt 22.06400 -52.97870
vt 22.05620 -52.96260
vt 22.01500 -53.04770
vt 21.98500 -53.03740
vt 21.98500 -53.04770
vt 22.01500 -53.02130
vt 21.98500 -53.02130
vt 22.01500 -53.03740
vt 21.98500 -52.97870
vt 22.01500 -52.97870
vt 22.01500 -52.96260
vt 21.98500 -52.96260
vt 21.98500 -52.95230
vt 22.01500 -52.95230
vt 3.07000 -3.82000
vt 3.12824 -3.78117
vt 3.11950 -3.77050
vt 3.13641 -3.79786
vt 3.14000 -3.82000
vt 3.13641 -3.84214
vt 3.12824 -3.85883
vt 3.11950 -3.86950
vt 3.10883 -3.87824
vt 3.09214 -3.88641
vt 3.07000 -3.89000
vt 3.04786 -3.88641
vt 3.03117 -3.87824
vt 3.02050 -3.86950
vt 3.01176 -3.85883
vt 3.00359 -3.84214
vt 3.00000 -3.82000
vt 3.00359 -3.79786
vt 3.01176 -3.78117
vt 3.02050 -3.77050
vt 3.03117 -3.76176
vt 3.04786 -3.75359
vt 3.07000 -3.75000
vt 3.09214 -3.75359
vt 3.10883 -3.76176
vt 3.02000 -3.75000
vt 3.00000 -3.75000
vt 3.02000 -3.77333
vt 3.00000 -3.77333
vt 3.02000 -3.79667
vt 3.00000 -3.79667
vt 3.02000 -3.82000
vt 3.02000 -3.84333
vt 3.00000 -3.84333
vt 3.02000 -3.86667
vt 3.00000 -3.86667
vt 3.02000 -3.89000
vt 3.00000 -3.89000
vt 2.78875 -2.28875
vt 2.82099 -2.26726
vt 2.81615 -2.26135
vt 2.82551 -2.27650
vt 2.82750 -2.28875
vt 2.82551 -2.30100
vt 2.82099 -2.31024
vt 2.81615 -2.31615
vt 2.81024 -2.32099
vt 2.80100 -2.32551
vt 2.78875 -2.32750
vt 2.77650 -2.32551
vt 2.76726 -2.32099
vt 2.76135 -2.31615
vt 2.75651 -2.31024
vt 2.75199 -2.30100
vt 2.75000 -2.28875
vt 2.75199 -2.27650
vt 2.75651 -2.26726
vt 2.76135 -2.26135
vt 2.76726 -2.25651
vt 2.77650 -2.25199
vt 2.78875 -2.25000
vt 2.80100 -2.25199
vt 2.81024 -2.25651
vt 2.77500 -2.25000
vt 2.75000 -2.25000
vt 2.77500 -2.26292
vt 2.75000 -2.26292
vt 2.77500 -2.27583
vt 2.75000 -2.27583
vt 2.77500 -2.28875
vt 2.77500 -2.30167
vt 2.75000 -2.30167
vt 2.77500 -2.31458
vt 2.75000 -2.31458
vt 2.77500 -2.32750
vt 2.75000 -2.32750
vn 1.0000 0.0000 0.0000
vn 0.9449 0.3150 0.0000
vn 0.8346 0.5512 0.0000
vn 0.7087 0.7087 0.0000
vn 0.5512 0.8346 0.0000
vn 0.3150 0.9449 0.0000
vn 0.0000 1.0000 0.0000
vn -0.3150 0.9449 0.0000
vn -0.5512 0.8346 0.0000
vn -0.7087 0.7087 0.0000
vn -0.8346 0.5512 0.0000
vn -0.9449 0.3150 0.0000
vn -1.0000 0.0000 0.0000
vn -0.9449 -0.3150 0.0000
vn -0.8346 -0.5512 0.0000
vn -0.7087 -0.7087 0.0000
vn -0.5512 -0.8346 0.0000
vn -0.3150 -0.9449 0.0000
vn 0.0000 -1.0000 0.0000
vn 0.3150 -0.9449 0.0000
vn 0.5512 -0.8346 0.0000
vn 0.7087 -0.7087 0.0000
vn 0.8346 -0.5512 0.0000
vn 0.9449 -0.3150 0.0000
vn 0.0000 0.0000 1.0000
vn 0.0000 0.0000 -1.0000

o Rim
usemtl rim
f 1/1/1 2/2/2 3/3/1
f 2/2/2 4/4/2 3/3/1
f 2/2/2 5/5/3 4/4/2
f 5/5/3 6/6/3 4/4/2
f 5/5/3 7/7/4 6/6/3
f 7/7/4 8/8/4 6/6/3
f 7/8/4 9/6/5 8/7/4
f 9/6/5 10/5/5 8/7/4
f 9/6/5 11/4/6 10/5/5
f 11/4/6 12/2/6 10/5/5
f 11/4/6 13/3/7 12/2/6
f 13/3/7 14/1/7 12/2/6
f 13/3/7 15/9/8 14/1/7
f 15/9/8 16/10/8 14/1/7
f 15/9/8 17/11/9 16/10/8
f 17/11/9 18/12/9 16/10/8
f 17/11/9 19/13/10 18/12/9
f 19/13/10 20/14/10 18/12/9
f 21/5/11 20/7/10 22/6/11
f 20/7/10 19/8/10 22/6/11
f 23/2/12 21/5/11 24/4/12
f 21/5/11 22/6/11 24/4/12
f 25/1/13 23/2/12 26/3/13
f 23/2/12 24/4/12 26/3/13
f 27/10/14 25/1/13 28/9/14
f 25/1/13 26/3/13 28/9/14
f 29/12/15 27/10/14 30/11/15
f 27/10/14 28/9/14 30/11/15
f 31/14/16 29/12/15 32/13/16
f 29/12/15 30/11/15 32/13/16
f 32/14/16 33/12/17 31/13/16
f 33/12/17 34/11/17 31/13/16
f 33/12/17 35/10/18 34/11/17
f 35/10/18 36/9/18 34/11/17
f 35/10/18 37/1/19 36/9/18
f 37/1/19 38/3/19 36/9/18
f 37/1/19 39/2/20 38/3/19
f 39/2/20 40/4/20 38/3/19
f 39/2/20 41/5/21 40/4/20
f 41/5/21 42/6/21 40/4/20
f 41/5/21 43/7/22 42/6/21
f 43/7/22 44/8/22 42/6/21
f 43/14/22 45/12/23 44/13/22
f 45/12/23 46/11/23 44/13/22
f 45/12/23 47/10/24 46/11/23
f 47/10/24 48/9/24 46/11/23
f 47/10/24 1/1/1 48/9/24
f 1/1/1 3/3/1 48/9/24
f 4/15/25 6/16/25 3/17/25
f 6/16/25 8/18/25 3/17/25
f 8/18/25 10/19/25 3/17/25
f 10/19/25 12/20/25 3/17/25
f 40/21/25 42/22/25 3/17/25
f 42/22/25 44/23/25 3/17/25
f 44/23/25 46/24/25 3/17/25
f 46/24/25 48/25/25 3/17/25
f 15/20/26 13/26/26 17/19/26
f 13/26/26 11/27/26 17/19/26
f 11/27/26 9/28/26 17/19/26
f 9/28/26 7/29/26 17/19/26
f 28/25/26 26/17/26 17/19/26
f 26/17/26 24/15/26 17/19/26
f 24/15/26 22/16/26 17/19/26
f 22/16/26 19/18/26 17/19/26
f 49/30/25 31/31/25 34/32/25
f 50/33/25 49/30/25 34/32/25
f 31/31/25 51/34/25 29/35/25
f 31/31/25 49/30/25 51/34/25
f 36/36/25 50/33/25 34/32/25
f 36/36/25 52/37/25 50/33/25
f 52/37/25 36/36/25 38/38/25
f 53/39/25 52/37/25 38/38/25
f 27/40/25 29/35/25 54/41/25
f 29/35/25 51/34/25 54/41/25
f 27/40/25 54/41/25 55/42/25
f 25/43/25 27/40/25 55/42/25
f 56/44/26 17/19/26 57/45/26
f 57/45/26 17/19/26 58/46/26
f 59/47/26 58/46/26 17/19/26
f 60/48/25 38/38/25 40/21/25
f 60/48/25 53/39/25 38/38/25
f 61/49/25 60/48/25 40/21/25
f 62/50/25 61/49/25 40/21/25
f 62/50/25 40/21/25 3/17/25
f 63/51/25 62/50/25 3/17/25
f 64/52/25 63/51/25 3/17/25
f 64/52/25 3/17/25 65/53/25
f 25/43/25 55/42/25 66/54/25
f 23/55/25 25/43/25 66/54/25
f 66/54/25 67/56/25 23/55/25
f 21/57/25 23/55/25 67/56/25
f 67/56/25 68/58/25 21/57/25
f 20/29/25 21/57/25 68/58/25
f 68/58/25 69/59/25 20/29/25
f 18/28/25 20/29/25 69/59/25
f 69/59/25 70/60/25 18/28/25
f 16/27/25 18/28/25 70/60/25
f 70/60/25 71/47/25 16/27/25
f 14/26/25 16/27/25 71/47/25
f 72/42/26 73/54/26 1/43/26
f 2/55/26 1/43/26 73/54/26
f 73/54/26 74/56/26 2/55/26
f 5/57/26 2/55/26 74/56/26
f 59/47/26 7/29/26 75/60/26
f 7/29/26 76/59/26 75/60/26
f 65/53/25 3/17/25 77/61/25
f 78/62/25 77/61/25 3/17/25
f 78/62/25 3/17/25 12/20/25
f 12/20/25 79/45/25 80/44/25
f 14/26/25 71/47/25 81/46/25
f 81/46/25 79/45/25 14/26/25
f 12/20/25 14/26/25 79/45/25
f 78/62/25 12/20/25 80/44/25
f 59/47/26 17/19/26 7/29/26
f 76/59/26 5/57/26 82/58/26
f 5/57/26 74/56/26 82/58/26
f 7/29/26 5/57/26 76/59/26
f 83/50/26 33/22/26 32/23/26
f 83/50/26 84/49/26 33/22/26
f 85/51/26 32/23/26 30/24/26
f 85/51/26 83/50/26 32/23/26
f 86/48/26 35/21/26 33/22/26
f 37/38/26 35/21/26 87/39/26
f 35/21/26 86/48/26 87/39/26
f 84/49/26 86/48/26 33/22/26
f 88/52/26 30/24/26 28/25/26
f 88/52/26 85/51/26 30/24/26
f 89/53/26 88/52/26 28/25/26
f 90/61/26 89/53/26 28/25/26
f 39/36/26 37/38/26 91/37/26
f 37/38/26 87/39/26 91/37/26
f 39/36/26 91/37/26 92/33/26
f 41/32/26 39/36/26 92/33/26
f 41/32/26 93/30/26 43/31/26
f 41/32/26 92/33/26 93/30/26
f 43/31/26 94/34/26 45/35/26
f 93/30/26 94/34/26 43/31/26
f 94/34/26 95/41/26 45/35/26
f 95/41/26 47/40/26 45/35/26
f 95/41/26 72/42/26 47/40/26
f 72/42/26 1/43/26 47/40/26
f 90/61/26 28/25/26 17/19/26
f 90/61/26 17/19/26 96/62/26
f 56/44/26 96/62/26 17/19/26
f 83/63/4 51/64/3 49/65/4
f 53/1/7 87/3/7 52/66/6
f 52/66/6 86/67/6 50/68/5
f 50/68/5 84/64/5 49/63/4
f 85/68/3 54/67/2 51/64/3
f 88/66/2 55/3/1 54/67/2
f 91/69/8 53/1/7 60/70/8
f 61/71/9 92/72/9 60/70/8
f 93/73/10 61/71/9 62/74/10
f 94/64/11 62/63/10 63/68/11
f 64/66/12 95/67/12 63/68/11
f 64/66/12 65/1/13 72/3/13
f 89/1/1 66/69/24 55/3/1
f 67/72/23 66/69/24 90/70/24
f 96/71/23 68/73/22 67/72/23
f 56/63/22 69/64/21 68/65/22
f 57/68/21 70/67/20 69/64/21
f 70/67/20 58/66/20 71/3/19
f 65/1/13 77/70/14 73/69/14
f 74/72/15 77/70/14 78/71/15
f 76/71/17 80/73/16 79/72/17
f 81/69/18 75/70/18 79/72/17
f 59/1/19 81/69/18 71/3/19
f 82/73/16 78/71/15 80/74/16
f 65/1/13 73/69/14 72/3/13
f 60/70/8 92/72/9 91/69/8
f 77/70/14 74/72/15 73/69/14
f 78/71/15 82/73/16 74/72/15
f 56/63/22 57/68/21 69/64/21
f 81/69/18 59/1/19 75/70/18
f 79/72/17 75/70/18 76/71/17
f 57/68/21 58/66/20 70/67/20
f 61/71/9 93/73/10 92/72/9
f 80/73/16 76/71/17 82/74/16
f 59/1/19 71/3/19 58/66/20
f 51/64/3 83/63/4 85/68/3
f 54/67/2 85/68/3 88/66/2
f 94/64/11 93/65/10 62/63/10
f 94/64/11 63/68/11 95/67/12
f 84/64/5 50/68/5 86/67/6
f 95/67/12 64/66/12 72/3/13
f 89/1/1 55/3/1 88/66/2
f 86/67/6 52/66/6 87/3/7
f 66/69/24 89/1/1 90/70/24
f 53/1/7 91/69/8 87/3/7
f 67/72/23 90/70/24 96/71/23
f 96/71/23 56/74/22 68/73/22
f 49/63/4 84/64/5 83/65/4
o Face
usemtl face
f 97/75/26 98/76/26 99/77/26
f 97/75/26 100/78/26 98/76/26
f 97/75/26 101/79/26 100/78/26
f 97/75/26 102/80/26 101/79/26
f 97/75/26 103/81/26 102/80/26
f 97/75/26 104/82/26 103/81/26
f 97/75/26 105/83/26 104/82/26
f 97/75/26 106/84/26 105/83/26
f 97/75/26 107/85/26 106/84/26
f 97/75/26 108/86/26 107/85/26
f 97/75/26 109/87/26 108/86/26
f 97/75/26 110/88/26 109/87/26
f 97/75/26 111/89/26 110/88/26
f 97/75/26 112/90/26 111/89/26
f 97/75/26 113/91/26 112/90/26
f 97/75/26 114/92/26 113/91/26
f 97/75/26 115/93/26 114/92/26
f 97/75/26 116/94/26 115/93/26
f 97/75/26 117/95/26 116/94/26
f 97/75/26 118/96/26 117/95/26
f 97/75/26 119/97/26 118/96/26
f 97/75/26 120/98/26 119/97/26
f 97/75/26 121/99/26 120/98/26
f 97/75/26 99/77/26 121/99/26
f 122/100/4 116/101/4 123/102/5
f 123/102/5 116/101/4 117/103/5
f 123/102/5 117/103/5 124/104/6
f 124/104/6 117/103/5 118/105/6
f 124/104/6 118/105/6 125/106/7
f 125/106/7 118/105/6 119/91/7
f 125/106/7 119/91/7 126/107/8
f 126/107/8 119/91/7 120/108/8
f 126/107/8 120/108/8 127/109/9
f 127/109/9 120/108/8 121/110/9
f 127/109/9 121/110/9 128/111/10
f 128/111/10 121/110/9 99/112/10
f 116/100/4 122/101/4 115/102/3
f 115/102/3 122/101/4 129/103/3
f 115/102/3 129/103/3 114/104/2
f 114/104/2 129/103/3 130/105/2
f 114/104/2 130/105/2 113/106/1
f 113/106/1 130/105/2 131/91/1
f 113/106/1 131/91/1 112/107/24
f 112/107/24 131/91/1 132/108/24
f 112/107/24 132/108/24 111/109/23
f 111/109/23 132/108/24 133/110/23
f 111/109/23 133/110/23 110/111/22
f 110/111/22 133/110/23 134/112/22
f 135/75/25 129/76/25 122/77/25
f 135/75/25 130/78/25 129/76/25
f 135/75/25 131/79/25 130/78/25
f 135/75/25 132/80/25 131/79/25
f 135/75/25 133/81/25 132/80/25
f 135/75/25 134/82/25 133/81/25
f 135/75/25 136/83/25 134/82/25
f 135/75/25 137/84/25 136/83/25
f 135/75/25 138/85/25 137/84/25
f 135/75/25 139/86/25 138/85/25
f 135/75/25 140/87/25 139/86/25
f 135/75/25 141/88/25 140/87/25
f 135/75/25 142/89/25 141/88/25
f 135/75/25 143/90/25 142/89/25
f 135/75/25 144/91/25 143/90/25
f 135/75/25 145/92/25 144/91/25
f 135/75/25 146/93/25 145/92/25
f 135/75/25 128/94/25 146/93/25
f 135/75/25 127/95/25 128/94/25
f 135/75/25 126/96/25 127/95/25
f 135/75/25 125/97/25 126/96/25
f 135/75/25 124/98/25 125/97/25
f 135/75/25 123/99/25 124/98/25
f 135/75/25 122/77/25 123/99/25
f 141/100/16 104/101/16 140/102/17
f 140/102/17 104/101/16 105/103/17
f 140/102/17 105/103/17 139/104/18
f 139/104/18 105/103/17 106/105/18
f 139/104/18 106/105/18 138/106/19
f 138/106/19 106/105/18 107/91/19
f 138/106/19 107/91/19 137/107/20
f 137/107/20 107/91/19 108/108/20
f 137/107/20 108/108/20 136/109/21
f 136/109/21 108/108/20 109/110/21
f 136/109/21 109/110/21 134/111/22
f 134/111/22 109/110/21 110/112/22
f 128/100/10 99/101/10 146/102/11
f 146/102/11 99/101/10 98/103/11
f 146/102/11 98/103/11 145/104/12
f 145/104/12 98/103/11 100/105/12
f 145/104/12 100/105/12 144/106/13
f 144/106/13 100/105/12 101/91/13
f 144/106/13 101/91/13 143/107/14
f 143/107/14 101/91/13 102/108/14
f 143/107/14 102/108/14 142/109/15
f 142/109/15 102/108/14 103/110/15
f 142/109/15 103/110/15 141/111/16
f 141/111/16 103/110/15 104/112/16
o Emblem
usemtl emblem
f 147/113/26 148/114/26 149/115/26
f 147/113/26 150/116/26 148/114/26
f 147/113/26 151/117/26 150/116/26
f 147/113/26 152/118/26 151/117/26
f 147/113/26 153/119/26 152/118/26
f 147/113/26 154/120/26 153/119/26
f 147/113/26 155/121/26 154/120/26
f 147/113/26 156/122/26 155/121/26
f 147/113/26 157/123/26 156/122/26
f 147/113/26 158/124/26 157/123/26
f 147/113/26 159/125/26 158/124/26
f 147/113/26 160/126/26 159/125/26
f 147/113/26 161/127/26 160/126/26
f 147/113/26 162/128/26 161/127/26
f 147/113/26 163/129/26 162/128/26
f 147/113/26 164/130/26 163/129/26
f 147/113/26 165/131/26 164/130/26
f 147/113/26 166/132/26 165/131/26
f 147/113/26 167/133/26 166/132/26
f 147/113/26 168/134/26 167/133/26
f 147/113/26 169/135/26 168/134/26
f 147/113/26 170/136/26 169/135/26
f 147/113/26 171/137/26 170/136/26
f 147/113/26 149/115/26 171/137/26
f 172/138/4 166/139/4 173/140/5
f 173/140/5 166/139/4 167/141/5
f 173/140/5 167/141/5 174/142/6
f 174/142/6 167/141/5 168/143/6
f 174/142/6 168/143/6 175/144/7
f 175/144/7 168/143/6 169/129/7
f 175/144/7 169/129/7 176/145/8
f 176/145/8 169/129/7 170/146/8
f 176/145/8 170/146/8 177/147/9
f 177/147/9 170/146/8 171/148/9
f 177/147/9 171/148/9 178/149/10
f 178/149/10 171/148/9 149/150/10
f 166/138/4 172/139/4 165/140/3
f 165/140/3 172/139/4 179/141/3
f 165/140/3 179/141/3 164/142/2
f 164/142/2 179/141/3 180/143/2
f 164/142/2 180/143/2 163/144/1
f 163/144/1 180/143/2 181/129/1
f 163/144/1 181/129/1 162/145/24
f 162/145/24 181/129/1 182/146/24
f 162/145/24 182/146/24 161/147/23
f 161/147/23 182/146/24 183/148/23
f 161/147/23 183/148/23 160/149/22
f 160/149/22 183/148/23 184/150/22
f 185/113/25 179/114/25 172/115/25
f 185/113/25 180/116/25 179/114/25
f 185/113/25 181/117/25 180/116/25
f 185/113/25 182/118/25 181/117/25
f 185/113/25 183/119/25 182/118/25
f 185/113/25 184/120/25 183/119/25
f 185/113/25 186/121/25 184/120/25
f 185/113/25 187/122/25 186/121/25
f 185/113/25 188/123/25 187/122/25
f 185/113/25 189/124/25 188/123/25
f 185/113/25 190/125/25 189/124/25
f 185/113/25 191/126/25 190/125/25
f 185/113/25 192/127/25 191/126/25
f 185/113/25 193/128/25 192/127/25
f 185/113/25 194/129/25 193/128/25
f 185/113/25 195/130/25 194/129/25
f 185/113/25 196/131/25 195/130/25
f 185/113/25 178/132/25 196/131/25
f 185/113/25 177/133/25 178/132/25
f 185/113/25 176/134/25 177/133/25
f 185/113/25 175/135/25 176/134/25
f 185/113/25 174/136/25 175/135/25
f 185/113/25 173/137/25 174/136/25
f 185/113/25 172/115/25 173/137/25
f 191/138/16 154/139/16 190/140/17
f 190/140/17 154/139/16 155/141/17
f 190/140/17 155/141/17 189/142/18
f 189/142/18 155/141/17 156/143/18
f 189/142/18 156/143/18 188/144/19
f 188/144/19 156/143/18 157/129/19
f 188/144/19 157/129/19 187/145/20
f 187/145/20 157/129/19 158/146/20
f 187/145/20 158/146/20 186/147/21
f 186/147/21 158/146/20 159/148/21
f 186/147/21 159/148/21 184/149/22
f 184/149/22 159/148/21 160/150/22
f 178/138/10 149/139/10 196/140/11
f 196/140/11 149/139/10 148/141/11
f 196/140/11 148/141/11 195/142/12
f 195/142/12 148/141/11 150/143/12
f 195/142/12 150/143/12 194/144/13
f 194/144/13 150/143/12 151/129/13
f 194/144/13 151/129/13 193/145/14
f 193/145/14 151/129/13 152/146/14
f 193/145/14 152/146/14 192/147/15
f 192/147/15 152/146/14 153/148/15
f 192/147/15 153/148/15 191/149/16
f 191/149/16 153/148/15 154/150/16
