# Roblox asset pack: animal_triceratops (creatures), from the Studio model "Triceratops". Exported with Export Selection, split by tools/build_creatures.py: one object per rigid body. Units: studs. +Y up, front faces -Z, pivot (bottom centre) at the origin.
mtllib animal_triceratops.mtl

v 7.05360 3.82000 0.45000
v 7.05360 4.73000 -0.45000
v 7.05360 4.73000 0.45000
v 7.05360 3.82000 -0.45000
v 6.33550 4.69000 0.13000
v 6.33550 4.69000 -0.13000
v 6.31750 5.09000 0.00000
v 6.46050 4.33000 0.22000
v 6.46050 4.33000 -0.22000
v 5.13530 4.72000 0.15000
v 5.13530 4.72000 -0.15000
v 5.11390 5.20000 0.00000
v 5.28450 4.29000 0.26000
v 5.28450 4.29000 -0.26000
v 3.83290 4.91000 0.21000
v 3.83290 4.91000 -0.21000
v 3.80360 5.56000 0.00000
v 4.03680 4.32000 0.36000
v 4.03680 4.32000 -0.36000
v 2.54720 5.53000 1.70000
v 2.54720 2.13000 1.70000
v 2.63740 2.77000 1.07000
v 2.63740 4.90000 1.07000
v 2.54720 2.13000 -1.70000
v 2.63740 2.77000 -1.07000
v 2.63740 4.90000 -1.07000
v 2.54720 5.53000 -1.70000
v -6.72910 5.90000 -0.18000
v -6.72910 5.90000 0.18000
v -6.39700 6.46000 0.00000
v -7.05360 4.98000 1.06000
v -7.05360 4.10000 0.00000
v -7.05360 4.10000 1.06000
v -7.05360 5.22000 0.00000
v -7.05360 4.98000 -1.06000
v -7.05360 4.10000 -1.06000
v -6.83400 5.56000 -0.32000
v -7.00020 4.59000 0.49000
v -6.83400 5.56000 0.32000
v -7.00020 4.59000 -0.49000
v -6.78460 5.56000 0.26000
v -6.78460 5.56000 -0.26000
v 1.70640 0.51000 3.15000
v 1.70640 0.51000 1.92000
v 2.28930 2.48000 3.25000
v 2.28930 2.48000 1.83000
v 1.70640 0.51000 -3.15000
v 2.28930 2.48000 -1.83000
v 1.70640 0.51000 -1.92000
v 2.28930 2.48000 -3.25000
v 5.69870 3.03000 0.71000
v 5.69870 3.03000 -0.71000
v -5.21560 6.77000 1.78000
v -5.56200 6.74000 1.40000
v -5.20830 6.74000 1.84000
v -5.50790 6.77000 1.42000
v -5.25630 7.10000 1.22000
v -5.25760 7.14000 1.16000
v -4.96400 7.10000 1.58000
v -4.90390 7.14000 1.59000
v -5.56200 6.74000 -1.40000
v -5.25760 7.14000 -1.16000
v -5.25630 7.10000 -1.22000
v -5.50790 6.77000 -1.42000
v -4.96400 7.10000 -1.58000
v -4.90390 7.14000 -1.59000
v -5.20830 6.74000 -1.84000
v -5.21560 6.77000 -1.78000
v -6.65510 4.85000 0.96000
v -6.65510 3.24000 -0.96000
v -6.65510 3.24000 0.96000
v -6.65510 4.85000 -0.96000
v 1.97190 5.26000 0.26000
v 1.97190 5.26000 -0.26000
v 1.82270 5.69000 0.15000
v 1.82270 5.69000 -0.15000
v 2.21200 2.82000 3.25000
v 2.07930 4.50000 1.75000
v 2.07930 4.50000 3.33000
v 2.21200 2.82000 1.83000
v 2.21200 2.82000 -3.25000
v 2.07930 4.50000 -1.75000
v 2.21200 2.82000 -1.83000
v 2.07930 4.50000 -3.33000
v -2.96450 7.84000 1.06000
v -3.69890 7.79000 2.00000
v -2.98440 7.75000 2.09000
v -3.68000 7.87000 1.02000
v -3.56570 8.36000 0.18000
v -2.84450 8.36000 0.18000
v -2.96450 7.84000 -1.06000
v -3.56570 8.36000 -0.18000
v -2.84450 8.36000 -0.18000
v -3.68000 7.87000 -1.02000
v -3.69890 7.79000 -2.00000
v -2.98440 7.75000 -2.09000
v 1.80120 6.17000 0.00000
v 1.76230 0.00000 2.59000
v 1.76230 0.52000 3.20000
v 1.76230 0.00000 3.20000
v 1.76230 0.52000 2.59000
v 1.76230 0.00000 2.49000
v 1.76230 0.52000 2.49000
v 1.76230 0.52000 1.87000
v 1.76230 0.00000 1.87000
v 1.76230 0.00000 -2.49000
v 1.76230 0.52000 -1.87000
v 1.76230 0.00000 -1.87000
v 1.76230 0.52000 -2.49000
v 1.76230 0.52000 -2.59000
v 1.76230 0.00000 -2.59000
v 1.76230 0.00000 -3.20000
v 1.76230 0.52000 -3.20000
v -3.39830 5.96000 3.56000
v -3.95020 6.70000 2.67000
v -4.09510 6.08000 3.41000
v -3.24610 6.62000 2.78000
v -3.95020 6.70000 -2.67000
v -3.39830 5.96000 -3.56000
v -4.09510 6.08000 -3.41000
v -3.24610 6.62000 -2.78000
v -3.03880 0.00000 3.20000
v -3.22340 0.00000 2.59000
v -2.77940 0.00000 2.59000
v -2.77940 0.00000 3.20000
v -1.45580 0.00000 3.20000
v -1.45580 0.00000 2.59000
v -2.77940 0.00000 2.49000
v -1.45580 0.00000 2.49000
v -2.77940 0.00000 1.87000
v -1.45580 0.00000 1.87000
v -3.03880 0.00000 1.87000
v -3.22340 0.00000 2.49000
v 0.17940 0.00000 3.20000
v -0.00520 0.00000 2.59000
v 0.43870 0.00000 2.59000
v 0.43870 0.00000 3.20000
v 0.43870 0.00000 2.49000
v 0.43870 0.00000 1.87000
v 0.17940 0.00000 1.87000
v -0.00520 0.00000 2.49000
v -2.77940 0.00000 -2.49000
v -3.03880 0.00000 -1.87000
v -3.22340 0.00000 -2.49000
v -2.77940 0.00000 -1.87000
v -1.45580 0.00000 -2.49000
v -1.45580 0.00000 -1.87000
v -1.45580 0.00000 -2.59000
v -2.77940 0.00000 -2.59000
v -1.45580 0.00000 -3.20000
v -2.77940 0.00000 -3.20000
v -3.03880 0.00000 -3.20000
v -3.22340 0.00000 -2.59000
v 0.43870 0.00000 -2.49000
v 0.17940 0.00000 -1.87000
v -0.00520 0.00000 -2.49000
v 0.43870 0.00000 -1.87000
v 0.43870 0.00000 -2.59000
v 0.43870 0.00000 -3.20000
v 0.17940 0.00000 -3.20000
v -0.00520 0.00000 -2.59000
v -5.40700 6.25000 1.06000
v -5.66310 5.65000 0.48000
v -5.59610 5.65000 1.08000
v -5.47400 6.25000 0.46000
v -5.40700 6.25000 -1.06000
v -5.66310 5.65000 -0.48000
v -5.47400 6.25000 -0.46000
v -5.59610 5.65000 -1.08000
v -3.70170 4.65000 3.44000
v -4.60300 3.88000 3.52000
v -3.92800 3.67000 3.67000
v -4.38760 4.81000 3.30000
v -4.17210 5.74000 3.52000
v -3.47530 5.63000 3.67000
v -4.60300 3.88000 -3.52000
v -3.70170 4.65000 -3.44000
v -3.92800 3.67000 -3.67000
v -4.38760 4.81000 -3.30000
v -4.17210 5.74000 -3.52000
v -3.47530 5.63000 -3.67000
v -5.26870 6.44000 1.22000
v -5.64760 5.55000 0.36000
v -5.54850 5.55000 1.25000
v -5.36780 6.44000 0.33000
v -5.26870 6.44000 -1.22000
v -5.64760 5.55000 -0.36000
v -5.36780 6.44000 -0.33000
v -5.54850 5.55000 -1.25000
v -3.74650 7.58000 2.29000
v -3.03200 7.55000 2.38000
v -3.74650 7.58000 -2.29000
v -3.03200 7.55000 -2.38000
v -5.06300 6.49000 1.56000
v -5.52630 5.43000 0.00000
v -5.52630 5.19000 1.56000
v -5.06300 6.83000 0.00000
v -5.06300 6.49000 -1.56000
v -5.52630 5.19000 -1.56000
v -4.15730 2.68000 2.78000
v -5.02860 2.04000 2.29000
v -4.37130 1.76000 2.38000
v -4.82490 2.92000 2.67000
v -5.02860 2.04000 -2.29000
v -4.15730 2.68000 -2.78000
v -4.37130 1.76000 -2.38000
v -4.82490 2.92000 -2.67000
v -4.43880 1.46000 1.06000
v -5.07620 1.83000 2.00000
v -5.09510 1.75000 1.02000
v -4.41900 1.55000 2.09000
v -4.55880 0.95000 0.18000
v -5.20940 1.26000 0.18000
v -5.09510 1.75000 -1.02000
v -4.55880 0.95000 -0.18000
v -5.20940 1.26000 -0.18000
v -4.43880 1.46000 -1.06000
v -5.07620 1.83000 -2.00000
v -4.41900 1.55000 -2.09000
v 0.27670 4.13000 3.33000
v 0.37210 2.82000 3.25000
v 0.27670 4.13000 -3.33000
v 0.37210 2.82000 -3.25000
v -2.34560 2.48000 3.25000
v -2.74270 0.51000 3.15000
v -1.51170 0.51000 3.15000
v -0.92880 2.48000 3.25000
v -2.94140 4.13000 3.33000
v -2.84610 2.82000 3.25000
v -1.00620 2.82000 3.25000
v -1.13890 4.50000 3.33000
v 0.87250 2.48000 3.25000
v 0.47540 0.51000 3.15000
v -2.34560 2.48000 -3.25000
v -1.51170 0.51000 -3.15000
v -2.74270 0.51000 -3.15000
v -0.92880 2.48000 -3.25000
v -2.94140 4.13000 -3.33000
v -1.00620 2.82000 -3.25000
v -2.84610 2.82000 -3.25000
v -1.13890 4.50000 -3.33000
v 0.87250 2.48000 -3.25000
v 0.47540 0.51000 -3.15000
v -4.68000 3.55000 3.41000
v -4.00510 3.34000 3.56000
v -4.68000 3.55000 -3.41000
v -4.00510 3.34000 -3.56000
v 0.72420 5.16000 0.36000
v 0.72420 5.16000 -0.36000
v 0.52030 5.75000 0.21000
v 0.52030 5.75000 -0.21000
v -3.03880 0.52000 3.20000
v -2.77940 0.52000 3.20000
v -1.45580 0.52000 3.20000
v 0.17940 0.52000 3.20000
v 0.43870 0.52000 3.20000
v -3.03880 0.52000 -3.20000
v -2.77940 0.52000 -3.20000
v -1.45580 0.52000 -3.20000
v 0.17940 0.52000 -3.20000
v 0.43870 0.52000 -3.20000
v -3.41980 5.88000 3.86000
v -4.29080 6.02000 3.68000
v -3.41980 5.88000 -3.86000
v -4.29080 6.02000 -3.68000
v -2.96190 7.86000 2.39000
v -3.85500 7.90000 2.27000
v -2.96190 7.86000 -2.39000
v -3.85500 7.90000 -2.27000
v -3.29930 6.49000 1.56000
v -3.29930 6.83000 0.00000
v -3.29930 6.49000 -1.56000
v 0.49100 6.40000 0.00000
v -3.98570 3.43000 3.86000
v -4.82930 3.69000 3.68000
v -3.98570 3.43000 -3.86000
v -4.82930 3.69000 -3.68000
v -2.78710 8.61000 0.00000
v -3.68860 8.62000 0.00000
v 0.43420 1.66000 -1.91000
v 0.43420 1.66000 1.91000
v -5.52630 3.89000 1.56000
v -5.52630 3.89000 -1.56000
v -4.44350 1.45000 2.39000
v -5.26500 1.80000 2.27000
v -4.44350 1.45000 -2.39000
v -5.26500 1.80000 -2.27000
v -3.22340 0.52000 2.49000
v -2.77940 0.52000 2.49000
v -0.00520 0.52000 2.49000
v 0.43870 0.52000 2.49000
v -3.22340 0.52000 -2.49000
v -2.77940 0.52000 -2.49000
v -0.00520 0.52000 -2.49000
v 0.43870 0.52000 -2.49000
v 0.43420 5.47000 1.91000
v 0.43420 5.47000 -1.91000
v -1.67880 6.30000 2.11000
v -1.67880 6.30000 -2.11000
v -4.61830 0.69000 0.00000
v -5.43150 1.08000 0.00000
v 3.86730 4.58000 0.92000
v 3.86730 4.58000 -0.92000
v -5.66140 7.09000 1.64000
v -5.46430 7.09000 1.89000
v -5.78170 7.77000 1.94000
v -5.66140 7.09000 -1.64000
v -5.78170 7.77000 -1.94000
v -5.46430 7.09000 -1.89000
v -1.67880 1.72000 2.11000
v 5.70140 4.45000 0.71000
v -0.59060 5.73000 0.36000
v -0.59060 5.73000 -0.36000
v -0.79450 6.32000 0.21000
v -0.79450 6.32000 -0.21000
v -1.67880 1.72000 -2.11000
v 5.70140 4.45000 -0.71000
v 3.86730 2.73000 -0.92000
v 3.86730 2.73000 0.92000
v -5.49180 7.31000 1.51000
v -5.49180 7.31000 -1.51000
v -3.47140 5.40000 -1.57000
v -3.47140 5.40000 1.57000
v -3.47140 2.26000 1.57000
v -3.47140 2.26000 -1.57000
v -5.31900 4.82000 1.16000
v -3.38090 5.44000 1.36000
v -3.38090 5.44000 -1.36000
v -5.31900 4.82000 -1.16000
v -5.31900 2.88000 -1.16000
v -5.31900 2.88000 1.16000
v -3.22340 0.52000 2.59000
v -3.22340 0.52000 -2.59000
v -6.19300 5.56000 0.32000
v -6.25500 5.56000 0.26000
v -6.19300 5.56000 -0.32000
v -6.25500 5.56000 -0.26000
v -4.16370 2.70000 1.24000
v -4.13820 2.82000 0.61000
v -4.17480 2.65000 0.67000
v -4.24130 2.36000 0.18000
v -4.12450 2.88000 1.32000
v -4.22140 2.46000 0.00000
v -3.97620 3.52000 1.60000
v -4.11610 2.90000 1.53000
v -3.99750 3.41000 1.75000
v -3.91310 3.78000 2.18000
v -3.87070 3.98000 2.14000
v -3.71390 4.66000 1.98000
v -3.83610 4.11000 2.29000
v -3.71070 4.65000 2.17000
v -3.58520 5.20000 2.29000
v -3.55710 5.33000 2.14000
v -3.45170 5.79000 1.60000
v -3.50820 5.53000 2.18000
v -3.42380 5.89000 1.75000
v -3.30520 6.41000 1.53000
v -3.30340 6.43000 1.32000
v -3.28960 6.49000 0.61000
v -3.25760 6.61000 1.24000
v -3.24650 6.66000 0.67000
v -3.18000 6.95000 0.18000
v -3.20650 6.85000 0.00000
v -3.28960 6.49000 -0.61000
v -3.18000 6.95000 -0.18000
v -3.24650 6.66000 -0.67000
v -3.25760 6.61000 -1.24000
v -3.30340 6.43000 -1.32000
v -4.13820 2.82000 -0.61000
v -4.24130 2.36000 -0.18000
v -4.17480 2.65000 -0.67000
v -4.16370 2.70000 -1.24000
v -4.12450 2.88000 -1.32000
v -3.45170 5.79000 -1.60000
v -3.30520 6.41000 -1.53000
v -3.42380 5.89000 -1.75000
v -3.50820 5.53000 -2.18000
v -3.55710 5.33000 -2.14000
v -3.97620 3.52000 -1.60000
v -4.11610 2.90000 -1.53000
v -3.99750 3.41000 -1.75000
v -3.91310 3.78000 -2.18000
v -3.87070 3.98000 -2.14000
v -3.71390 4.66000 -1.98000
v -3.58520 5.20000 -2.29000
v -3.83610 4.11000 -2.29000
v -3.71070 4.65000 -2.17000
v -1.51170 0.51000 1.92000
v -0.92880 2.48000 1.83000
v -0.92880 2.48000 -1.83000
v -1.51170 0.51000 -1.92000
v -2.92060 3.89000 1.56000
v -2.92060 5.19000 1.56000
v -2.92060 5.19000 -1.56000
v -2.92060 3.89000 -1.56000
v -4.61200 6.43000 0.45000
v -5.07430 5.81000 0.82000
v -5.07430 5.81000 -0.82000
v -4.61200 6.43000 -0.45000
v -0.82380 6.97000 0.00000
v -5.00960 6.35000 1.19000
v -5.10870 6.35000 0.30000
v -5.00960 6.35000 -1.19000
v -5.10870 6.35000 -0.30000
v -3.38090 3.17000 1.36000
v -3.38090 3.17000 -1.36000
v -5.23200 6.19000 1.04000
v -5.29890 6.19000 0.44000
v -5.29890 6.19000 -0.44000
v -5.23200 6.19000 -1.04000
v -2.38230 6.31000 1.39000
v -2.52070 6.52000 1.29000
v -2.36780 6.37000 0.64000
v -2.50910 6.57000 0.69000
v -2.43920 6.87000 0.18000
v -2.28050 6.75000 0.00000
v -2.43920 6.87000 -0.18000
v -2.36780 6.37000 -0.64000
v -2.50910 6.57000 -0.69000
v -2.52070 6.52000 -1.29000
v -2.38230 6.31000 -1.39000
v -5.29460 7.31000 1.75000
v -5.29460 7.31000 -1.75000
v -2.84610 2.82000 1.83000
v -2.34560 2.48000 1.83000
v -2.84610 2.82000 -1.83000
v -2.34560 2.48000 -1.83000
v -2.64890 5.16000 2.25000
v -2.78160 5.39000 2.27000
v -2.53810 5.64000 1.68000
v -2.69300 5.77000 1.82000
v -2.56830 6.31000 1.58000
v -2.64890 5.16000 -2.25000
v -2.78160 5.39000 -2.27000
v -2.53810 5.64000 -1.68000
v -2.69300 5.77000 -1.82000
v -2.56830 6.31000 -1.58000
v -1.13890 4.50000 1.75000
v -1.00620 2.82000 1.83000
v -1.13890 4.50000 -1.75000
v -1.00620 2.82000 -1.83000
v -2.97840 3.73000 2.25000
v -3.12230 3.92000 2.38000
v -2.81370 4.45000 2.08000
v -2.99040 4.49000 2.25000
v -2.85860 5.06000 2.38000
v -2.81370 4.45000 -2.08000
v -2.97840 3.73000 -2.25000
v -3.12230 3.92000 -2.38000
v -2.99040 4.49000 -2.25000
v -2.85860 5.06000 -2.38000
v -1.21180 6.32000 0.21000
v -1.21180 6.32000 -0.21000
v -4.53710 5.81000 1.48000
v -4.53710 5.81000 -1.48000
v -5.28940 5.47000 -1.22000
v -5.28940 5.47000 1.22000
v -3.24500 2.58000 1.39000
v -3.41260 2.66000 1.58000
v -3.28790 3.20000 1.82000
v -3.08920 3.26000 1.68000
v -3.19930 3.58000 2.27000
v -3.41260 2.66000 -1.58000
v -3.24500 2.58000 -1.39000
v -3.28790 3.20000 -1.82000
v -3.08920 3.26000 -1.68000
v -3.19930 3.58000 -2.27000
v -1.30870 5.73000 0.36000
v -1.30870 5.73000 -0.36000
v -6.37190 5.90000 0.18000
v -6.37190 5.90000 -0.18000
v 0.10290 5.75000 0.21000
v 0.10290 5.75000 -0.21000
v -1.45580 0.52000 2.59000
v -1.45580 0.52000 2.49000
v -1.45580 0.52000 1.87000
v -1.45580 0.52000 -1.87000
v -1.45580 0.52000 -2.49000
v -1.45580 0.52000 -2.59000
v -4.07480 6.43000 1.11000
v -4.07480 6.43000 -1.11000
v -3.46020 2.46000 1.29000
v -3.25950 2.52000 0.64000
v -3.47180 2.41000 0.69000
v -3.54170 2.10000 0.18000
v -3.34690 2.14000 0.00000
v -3.54170 2.10000 -0.18000
v -3.25950 2.52000 -0.64000
v -3.47180 2.41000 -0.69000
v -3.46020 2.46000 -1.29000
v -2.94140 4.13000 1.75000
v -5.42100 5.59000 1.06000
v 1.51720 5.69000 0.15000
v -2.94140 4.13000 -1.75000
v -5.42100 5.59000 -1.06000
v 1.51720 5.69000 -0.15000
v 0.00610 5.16000 0.36000
v 0.00610 5.16000 -0.36000
v -6.02680 4.59000 0.49000
v 1.44630 5.26000 0.26000
v -6.02680 4.59000 -0.49000
v 1.44630 5.26000 -0.26000
v -2.77940 0.52000 2.59000
v -2.77940 0.52000 -2.59000
v 3.41560 4.91000 0.21000
v 3.41560 4.91000 -0.21000
v 3.31870 4.32000 0.36000
v 3.31870 4.32000 -0.36000
v -5.52630 3.89000 0.00000
v 4.82990 4.72000 0.15000
v 4.82990 4.72000 -0.15000
v 6.07980 4.69000 0.13000
v 6.07980 4.69000 -0.13000
v 4.75900 4.29000 0.26000
v 4.75900 4.29000 -0.26000
v 6.02040 4.33000 0.22000
v 6.02040 4.33000 -0.22000
v -3.03880 0.52000 1.87000
v -3.03880 0.52000 -1.87000
v -5.38850 5.47000 0.33000
v -5.38850 5.47000 -0.33000
v -2.92060 3.89000 0.00000
v -5.48800 5.59000 0.46000
v -5.48800 5.59000 -0.46000
v -2.74270 0.51000 1.92000
v -2.74270 0.51000 -1.92000
v 0.27670 4.13000 1.75000
v 0.27670 4.13000 -1.75000
v -2.92060 5.19000 0.00000
v 0.37210 2.82000 1.83000
v 0.87250 2.48000 1.83000
v 0.37210 2.82000 -1.83000
v 0.87250 2.48000 -1.83000
v -0.00520 0.52000 2.59000
v -0.00520 0.52000 -2.59000
v 0.47540 0.51000 1.92000
v 0.47540 0.51000 -1.92000
v -2.77940 0.52000 1.87000
v 0.17940 0.52000 1.87000
v 0.43870 0.52000 1.87000
v -2.77940 0.52000 -1.87000
v 0.43870 0.52000 -1.87000
v 0.17940 0.52000 -1.87000
v 0.43870 0.52000 2.59000
v 0.43870 0.52000 -2.59000
vt 0.92639 0.64417
vt 0.96107 0.67884
vt 0.92640 0.67884
vt 0.96106 0.64416
vt 1.77014 0.98672
vt 1.77014 0.96686
vt 1.80113 0.97679
vt 1.74057 0.99387
vt 1.74058 0.95969
vt 0.62368 0.29555
vt 0.62369 0.16526
vt 0.64800 0.18972
vt 0.64802 0.27137
vt 0.75396 0.16527
vt 0.72965 0.18976
vt 0.72963 0.27138
vt 0.75397 0.29553
vt 0.01119 0.31659
vt 0.02485 0.31659
vt 0.01802 0.34137
vt 0.94544 0.68256
vt 0.91171 0.72295
vt 0.91171 0.68256
vt 0.95468 0.72295
vt 0.94544 0.76333
vt 0.91171 0.76333
vt 0.00929 0.07711
vt 0.04014 0.03936
vt 0.03379 0.07711
vt 0.00293 0.03936
vt 0.02814 0.30355
vt 0.00790 0.30355
vt 0.61048 0.76154
vt 0.65755 0.76154
vt 0.60692 0.84006
vt 0.66109 0.84007
vt 0.89587 0.31627
vt 0.84527 0.39480
vt 0.84881 0.31628
vt 0.89944 0.39480
vt 0.91667 0.58427
vt 0.97077 0.58426
vt 0.38451 0.01235
vt 0.36717 0.00296
vt 0.38688 0.01157
vt 0.36822 0.00523
vt 0.05040 0.01041
vt 0.06984 0.00854
vt 0.06818 0.01041
vt 0.04832 0.00854
vt 0.05041 0.02819
vt 0.04833 0.03006
vt 0.06984 0.03005
vt 0.06818 0.02819
vt 1.06984 0.00854
vt 1.04832 0.00854
vt 1.05040 0.01041
vt 1.06818 0.01041
vt 1.05041 0.02819
vt 1.04833 0.03006
vt 1.06984 0.03005
vt 1.06818 0.02819
vt 1.38451 0.01235
vt 1.36717 0.00296
vt 1.36822 0.00523
vt 1.38688 0.01157
vt 0.34267 0.00298
vt 0.28103 0.07676
vt 0.28103 0.00298
vt 0.34267 0.07676
vt 0.60692 0.85335
vt 0.66418 0.91760
vt 0.60382 0.91759
vt 0.66109 0.85335
vt 0.89944 0.40808
vt 0.84218 0.47233
vt 0.84527 0.40809
vt 0.90255 0.47232
vt 0.91329 0.40475
vt 0.94161 0.44037
vt 0.91430 0.44416
vt 0.94065 0.40286
vt 0.93643 0.36557
vt 0.90886 0.36557
vt 0.91329 0.30263
vt 0.93643 0.34181
vt 0.90886 0.34181
vt 0.94065 0.30452
vt 0.94160 0.26701
vt 0.91429 0.26321
vt 0.97626 0.57363
vt 0.99617 0.59698
vt 0.97626 0.59698
vt 0.99617 0.57363
vt 0.97626 0.56972
vt 0.99617 0.56972
vt 0.99617 0.54637
vt 0.97626 0.54637
vt 0.12211 0.59860
vt 0.14202 0.62195
vt 0.12211 0.62195
vt 0.14202 0.59860
vt 0.14202 0.59470
vt 0.12211 0.59470
vt 0.12211 0.57135
vt 0.14202 0.57135
vt 0.58607 0.27398
vt 0.61786 0.23669
vt 0.61364 0.27398
vt 0.59050 0.23480
vt 0.25312 0.96798
vt 0.29041 0.93619
vt 0.29041 0.96376
vt 0.25123 0.94062
vt 0.94647 0.09719
vt 0.96982 0.09014
vt 0.96982 0.10711
vt 0.94647 0.10711
vt 0.94647 0.15771
vt 0.96982 0.15771
vt 0.97372 0.10711
vt 0.97372 0.15771
vt 0.99707 0.10711
vt 0.99707 0.15771
vt 0.99707 0.09719
vt 0.97372 0.09014
vt 0.54422 0.90206
vt 0.56757 0.89501
vt 0.56757 0.91198
vt 0.54422 0.91198
vt 0.54422 0.96258
vt 0.56757 0.96258
vt 0.57148 0.91198
vt 0.57148 0.96258
vt 0.59482 0.91198
vt 0.59482 0.96258
vt 0.59482 0.90206
vt 0.57148 0.89501
vt 0.96982 0.03582
vt 0.94647 0.02590
vt 0.96982 0.01885
vt 0.94647 0.03582
vt 0.96982 0.08642
vt 0.94647 0.08642
vt 0.97372 0.08642
vt 0.97372 0.03582
vt 0.99707 0.08642
vt 0.99707 0.03582
vt 0.99707 0.02590
vt 0.97372 0.01885
vt 0.93506 0.78402
vt 0.91171 0.77410
vt 0.93506 0.76704
vt 0.91171 0.78402
vt 0.93506 0.83462
vt 0.91171 0.83462
vt 0.93896 0.83462
vt 0.93896 0.78402
vt 0.96231 0.83462
vt 0.96231 0.78402
vt 0.96231 0.77410
vt 0.93896 0.76704
vt 0.41930 0.00298
vt 0.39524 0.02627
vt 0.39524 0.00298
vt 0.41930 0.02627
vt 1.41930 0.00298
vt 1.39524 0.02627
vt 1.41930 0.02627
vt 1.39524 0.00298
vt 0.62173 0.47753
vt 0.64752 0.51502
vt 0.62001 0.51692
vt 0.64915 0.47753
vt 0.64752 0.44004
vt 0.62001 0.43814
vt 0.31032 0.92972
vt 0.27282 0.90394
vt 0.31221 0.90222
vt 0.27283 0.93136
vt 0.23534 0.92974
vt 0.23343 0.90223
vt 0.94234 0.21175
vt 0.90674 0.24622
vt 0.90674 0.21175
vt 0.94234 0.24622
vt 1.94234 0.21175
vt 1.90674 0.24622
vt 1.94234 0.24622
vt 1.90674 0.21175
vt 0.96184 0.21262
vt 0.98583 0.17396
vt 0.98923 0.21133
vt 0.95826 0.17336
vt 0.58229 0.03208
vt 0.62036 0.00715
vt 0.61974 0.03457
vt 0.58102 0.00454
vt 0.06078 0.84947
vt 0.01668 0.90921
vt 0.00792 0.84953
vt 0.07282 0.90922
vt 0.06076 0.96897
vt 0.00790 0.96890
vt 0.31189 0.22522
vt 0.33543 0.26417
vt 0.30786 0.26444
vt 0.33927 0.22684
vt 0.75719 0.32694
vt 0.71803 0.30376
vt 0.75722 0.29936
vt 0.71990 0.33112
vt 0.91328 0.05445
vt 0.94159 0.01882
vt 0.94064 0.05633
vt 0.91428 0.01503
vt 0.90886 0.09363
vt 0.93643 0.09362
vt 0.94066 0.15467
vt 0.90886 0.11738
vt 0.93644 0.11738
vt 0.91330 0.15656
vt 0.94162 0.19218
vt 0.91431 0.19598
vt 0.83114 0.16742
vt 0.83024 0.21767
vt 0.76000 0.22152
vt 0.76156 0.15722
vt 0.83610 0.60642
vt 0.76497 0.55232
vt 0.83520 0.55617
vt 0.76652 0.61662
vt 0.80191 0.07740
vt 0.82120 0.15183
vt 0.77420 0.15441
vt 0.74783 0.08036
vt 0.82120 0.01317
vt 0.82031 0.06342
vt 0.75007 0.06727
vt 0.75163 0.00297
vt 0.81184 0.23165
vt 0.83113 0.30609
vt 0.78414 0.30866
vt 0.75776 0.23462
vt 0.81681 0.38939
vt 0.78911 0.31238
vt 0.83610 0.31496
vt 0.76273 0.38643
vt 0.83610 0.45362
vt 0.76497 0.39952
vt 0.83520 0.40337
vt 0.76652 0.46382
vt 0.81681 0.54219
vt 0.78911 0.46518
vt 0.83610 0.46776
vt 0.76273 0.53923
vt 0.98068 0.86486
vt 0.94150 0.84171
vt 0.98068 0.83729
vt 0.94339 0.86907
vt 0.98587 0.25510
vt 0.96202 0.21635
vt 0.98941 0.21774
vt 0.95830 0.25560
vt 0.42504 0.42381
vt 0.44494 0.42381
vt 0.44494 0.43372
vt 0.42504 0.43372
vt 0.42504 0.48432
vt 0.44494 0.48432
vt 0.97626 0.41789
vt 0.99617 0.41789
vt 0.99617 0.42781
vt 0.97626 0.42781
vt 0.97626 0.47841
vt 0.99617 0.47841
vt 0.99617 0.48213
vt 0.97626 0.49205
vt 0.97626 0.48213
vt 0.99617 0.49205
vt 0.99617 0.54265
vt 0.97626 0.54265
vt 0.02284 0.48555
vt 0.00293 0.49547
vt 0.00293 0.48555
vt 0.02284 0.49547
vt 0.02284 0.54607
vt 0.00293 0.54607
vt 0.58395 0.28586
vt 0.61842 0.28586
vt 0.30229 0.93407
vt 0.30229 0.96854
vt 0.91383 0.45622
vt 0.94797 0.45148
vt 0.91382 0.25116
vt 0.94796 0.25590
vt 0.53716 0.94873
vt 0.46973 0.94872
vt 0.46974 0.88777
vt 0.53717 0.88778
vt 0.46975 0.82682
vt 0.53718 0.82683
vt 0.61871 0.52892
vt 0.65310 0.52654
vt 0.32421 0.90092
vt 0.32184 0.93530
vt 0.90674 0.35369
vt 0.94121 0.35369
vt 0.45950 0.67859
vt 0.32170 0.76136
vt 0.31378 0.67859
vt 0.45158 0.76136
vt 0.75806 0.52557
vt 0.70825 0.52557
vt 0.71628 0.46409
vt 0.75002 0.46409
vt 0.70023 0.29927
vt 0.65845 0.36074
vt 0.66650 0.29927
vt 0.70826 0.36075
vt 0.30586 0.27634
vt 0.34032 0.27600
vt 0.76910 0.29725
vt 0.76907 0.33172
vt 0.10432 0.30605
vt 0.10432 0.32596
vt 0.08735 0.32596
vt 0.08735 0.30605
vt 0.73004 0.33484
vt 0.73004 0.35475
vt 0.71307 0.35475
vt 0.71307 0.33484
vt 0.95640 0.16144
vt 0.99086 0.16219
vt 0.60092 0.30949
vt 0.58395 0.28959
vt 0.60092 0.28959
vt 0.58395 0.30949
vt 0.96841 0.43780
vt 0.95144 0.41789
vt 0.96841 0.41789
vt 0.95144 0.43780
vt 0.56905 0.00297
vt 0.57065 0.03740
vt 0.60848 0.48055
vt 0.46276 0.48056
vt 0.61640 0.39379
vt 0.45484 0.39381
vt 0.90674 0.10550
vt 0.94121 0.10550
vt 0.26333 0.31986
vt 0.25777 0.36849
vt 0.18171 0.31986
vt 0.18726 0.36849
vt 0.61871 0.42614
vt 0.65310 0.42851
vt 0.22143 0.90094
vt 0.22382 0.93532
vt 0.22204 0.02602
vt 0.21412 0.01701
vt 0.23916 0.00297
vt 1.22204 0.02602
vt 1.23916 0.00297
vt 1.21412 0.01701
vt 0.03456 0.48644
vt 0.17812 0.40529
vt 0.18028 0.48646
vt 0.00293 0.40526
vt 0.16225 0.56762
vt 0.03238 0.56760
vt 0.54790 0.68487
vt 0.51637 0.73672
vt 0.49382 0.68348
vt 0.48171 0.73576
vt 0.74057 0.99387
vt 0.74058 0.95969
vt 0.77014 0.98672
vt 0.77014 0.96686
vt 0.41185 0.44130
vt 0.28416 0.52249
vt 0.26613 0.44133
vt 0.41404 0.52246
vt 0.26828 0.36016
vt 0.44347 0.36012
vt 0.63650 0.68231
vt 0.61396 0.73555
vt 0.58242 0.68370
vt 0.64862 0.73459
vt 0.46742 0.59778
vt 0.30586 0.59778
vt 0.91381 0.00297
vt 0.94795 0.00771
vt 0.77425 0.80856
vt 0.71196 0.87951
vt 0.70374 0.80858
vt 0.76606 0.87950
vt 0.91385 0.20804
vt 0.94799 0.20329
vt 0.99256 0.83517
vt 0.99256 0.86964
vt 0.97191 0.56164
vt 0.91171 0.52024
vt 0.97065 0.52024
vt 0.91287 0.58056
vt 0.95640 0.26752
vt 0.99086 0.26689
vt 0.97190 0.47883
vt 0.91286 0.45993
vt 0.35268 0.01941
vt 0.36459 0.02076
vt 0.35055 0.04580
vt 1.35268 0.01941
vt 1.35055 0.04580
vt 1.36459 0.02076
vt 0.47547 0.31718
vt 0.59574 0.31717
vt 0.32650 0.52621
vt 0.44677 0.52621
vt 0.40919 0.28855
vt 0.28892 0.28858
vt 0.03721 0.33369
vt 0.15748 0.33371
vt 0.75488 0.68000
vt 0.76244 0.75780
vt 0.65844 0.75782
vt 0.66598 0.68001
vt 0.35055 0.00324
vt 1.35055 0.00324
vt 0.12731 0.65230
vt 0.20864 0.70520
vt 0.11975 0.70519
vt 0.20109 0.65231
vt 0.07746 0.30253
vt 0.05757 0.32693
vt 0.05756 0.30254
vt 0.07747 0.32692
vt 0.64855 0.53229
vt 0.62865 0.55669
vt 0.62864 0.53230
vt 0.64856 0.55668
vt 0.27077 0.02748
vt 0.24626 0.02748
vt 0.24863 0.02535
vt 0.24626 0.00298
vt 0.26888 0.02535
vt 0.24863 0.00510
vt 0.27077 0.00298
vt 0.26888 0.00510
vt 0.51594 0.08215
vt 0.49233 0.08687
vt 0.49454 0.08006
vt 0.47600 0.06917
vt 0.51951 0.08920
vt 0.46897 0.07278
vt 0.53013 0.11433
vt 0.52733 0.09042
vt 0.53592 0.11012
vt 0.55201 0.12439
vt 0.55075 0.13220
vt 0.54457 0.15877
vt 0.55636 0.13777
vt 0.55173 0.15877
vt 0.55636 0.17976
vt 0.55076 0.18534
vt 0.53014 0.20321
vt 0.55201 0.19315
vt 0.53593 0.20742
vt 0.52733 0.22712
vt 0.51952 0.22834
vt 0.49234 0.23067
vt 0.51594 0.23539
vt 0.49455 0.23748
vt 0.47601 0.24837
vt 0.46897 0.24476
vt 0.44561 0.23068
vt 0.46194 0.24837
vt 0.44340 0.23748
vt 0.42200 0.23540
vt 0.41843 0.22834
vt 0.44561 0.08687
vt 0.46193 0.06917
vt 0.44339 0.08006
vt 0.42200 0.08215
vt 0.41842 0.08920
vt 0.40781 0.20321
vt 0.41062 0.22712
vt 0.40202 0.20742
vt 0.38593 0.19316
vt 0.38719 0.18535
vt 0.40781 0.11434
vt 0.41061 0.09042
vt 0.40201 0.11013
vt 0.38593 0.12440
vt 0.38719 0.13220
vt 0.39337 0.15878
vt 0.38158 0.17977
vt 0.38158 0.13778
vt 0.38621 0.15878
vt 0.85382 0.47606
vt 0.90088 0.47606
vt 0.85026 0.55458
vt 0.90442 0.55458
vt 0.49077 0.61277
vt 0.56125 0.56735
vt 0.56125 0.61471
vt 0.47966 0.56510
vt 0.89587 0.15650
vt 0.84527 0.23503
vt 0.84881 0.15650
vt 0.89944 0.23502
vt 0.63954 0.61160
vt 0.56906 0.61355
vt 0.56905 0.56619
vt 0.65064 0.56393
vt 0.53697 0.74964
vt 0.59696 0.80191
vt 0.54792 0.82310
vt 0.58787 0.74093
vt 0.24266 0.65231
vt 0.29490 0.71232
vt 0.22144 0.70135
vt 0.30363 0.66142
vt 0.75806 0.62518
vt 0.70825 0.62518
vt 0.65844 0.54328
vt 0.65844 0.61071
vt 0.70825 0.46037
vt 0.65844 0.46036
vt 0.75807 0.37847
vt 0.75806 0.44590
vt 0.00852 0.29983
vt 0.00293 0.25444
vt 0.03003 0.29983
vt 0.03560 0.25443
vt 1.03560 0.25443
vt 1.00293 0.25444
vt 1.03003 0.29983
vt 1.00852 0.29983
vt 0.60057 0.56136
vt 0.47069 0.56137
vt 0.80113 0.97679
vt 0.95640 0.00328
vt 0.99096 0.01343
vt 0.95649 0.01373
vt 0.99086 0.00297
vt 1.95640 0.00328
vt 1.99096 0.01343
vt 1.99087 0.00297
vt 1.95649 0.01373
vt 0.47261 0.82309
vt 0.45980 0.73715
vt 0.22143 0.77665
vt 0.30738 0.78949
vt 0.48463 0.00318
vt 0.50792 0.00297
vt 0.48469 0.01024
vt 0.50798 0.01004
vt 1.48469 0.01024
vt 1.50798 0.01004
vt 1.50792 0.00297
vt 1.48463 0.00318
vt 0.10638 0.09482
vt 0.06368 0.04983
vt 0.06530 0.03834
vt 0.09681 0.09491
vt 0.09549 0.11989
vt 0.08802 0.11447
vt 0.07216 0.12889
vt 0.07505 0.13802
vt 0.01902 0.11138
vt 0.00860 0.11647
vt 0.01405 0.12671
vt 0.06735 0.14372
vt 0.08095 0.16470
vt 0.07172 0.16470
vt 0.06735 0.18568
vt 0.07506 0.19138
vt 0.01407 0.20272
vt 0.00862 0.21297
vt 0.06646 0.01330
vt 0.06646 0.02529
vt 0.17674 0.64858
vt 0.29701 0.52831
vt 0.29701 0.64858
vt 0.17674 0.52831
vt 1.06646 0.02529
vt 1.06646 0.01330
vt 0.08549 0.88375
vt 0.13966 0.86066
vt 0.13966 0.88376
vt 0.08549 0.86065
vt 0.38794 0.86500
vt 0.33378 0.84190
vt 0.38794 0.84189
vt 0.33378 0.86500
vt 0.15714 0.07833
vt 0.14911 0.01682
vt 0.15718 0.00848
vt 0.14935 0.07276
vt 0.13358 0.09218
vt 0.13073 0.08340
vt 0.10942 0.08574
vt 0.07673 0.04034
vt 0.24954 0.43879
vt 0.19550 0.43879
vt 0.10641 0.23454
vt 0.06373 0.27956
vt 0.09684 0.23446
vt 0.06535 0.29105
vt 0.09551 0.20949
vt 0.08804 0.21491
vt 0.07217 0.20051
vt 0.01905 0.21806
vt 0.85026 0.56786
vt 0.90752 0.63211
vt 0.84715 0.63210
vt 0.90442 0.56787
vt 0.89944 0.24830
vt 0.84218 0.31256
vt 0.84527 0.24831
vt 0.90255 0.31254
vt 0.20788 0.09485
vt 0.23755 0.04037
vt 0.24897 0.03836
vt 0.20485 0.08577
vt 0.18068 0.09220
vt 0.18354 0.08343
vt 0.16494 0.07277
vt 0.16524 0.01683
vt 0.13361 0.23717
vt 0.15715 0.25103
vt 0.14936 0.25659
vt 0.14909 0.31254
vt 0.15715 0.32088
vt 0.13076 0.24595
vt 0.10945 0.24362
vt 0.07677 0.28904
vt 0.69817 0.76154
vt 0.77979 0.76152
vt 0.18209 0.94206
vt 0.18210 0.96192
vt 0.14959 0.96053
vt 0.50238 0.98586
vt 0.50239 0.96600
vt 0.53489 0.98446
vt 0.84771 0.71535
vt 0.87256 0.67481
vt 0.87411 0.71610
vt 0.84715 0.65942
vt 1.84771 0.71535
vt 1.87256 0.67481
vt 1.84715 0.65942
vt 1.87411 0.71610
vt 0.74731 0.62891
vt 0.67353 0.62892
vt 1.29645 0.28330
vt 1.28599 0.24770
vt 1.28599 0.28330
vt 1.29645 0.24770
vt 0.28600 0.24770
vt 0.29645 0.28330
vt 0.28599 0.28330
vt 0.29645 0.24770
vt 0.37558 0.02556
vt 1.37558 0.02556
vt 0.23924 0.13802
vt 0.29525 0.11136
vt 0.30568 0.11644
vt 0.24213 0.12889
vt 0.22626 0.11449
vt 0.21879 0.11991
vt 0.21746 0.09494
vt 0.25058 0.04985
vt 0.23753 0.28904
vt 0.20486 0.24362
vt 0.20789 0.23454
vt 0.24896 0.29105
vt 0.18355 0.24595
vt 0.18070 0.23717
vt 0.16495 0.25660
vt 0.16521 0.31254
vt 0.21092 0.93744
vt 0.21093 0.97162
vt 0.47356 0.96138
vt 0.47355 0.99556
vt 0.36370 0.26676
vt 0.35004 0.26677
vt 0.35098 0.24441
vt 0.75229 0.34871
vt 0.76595 0.34871
vt 0.75324 0.37106
vt 1.18209 0.94206
vt 1.18210 0.96192
vt 1.14959 0.96053
vt 1.50238 0.98586
vt 1.50239 0.96600
vt 1.53489 0.98446
vt 0.97626 0.62795
vt 0.99617 0.65130
vt 0.97626 0.65130
vt 0.99617 0.62795
vt 0.97626 0.62405
vt 0.99617 0.62405
vt 0.99617 0.60070
vt 0.97626 0.60070
vt 0.96633 0.68228
vt 0.98624 0.70563
vt 0.96633 0.70563
vt 0.98624 0.68228
vt 0.98624 0.67837
vt 0.96633 0.67837
vt 0.96633 0.65503
vt 0.98624 0.65503
vt 0.00293 0.03564
vt 0.00293 0.00297
vt 1.00293 0.03564
vt 1.00293 0.00297
vt 0.30023 0.12669
vt 0.24694 0.14372
vt 0.23334 0.16470
vt 0.24257 0.16470
vt 0.24695 0.18568
vt 0.23925 0.19138
vt 0.30024 0.20271
vt 0.30568 0.21295
vt 0.29526 0.21804
vt 0.24213 0.20051
vt 0.21879 0.20949
vt 0.22626 0.21492
vt 0.21747 0.23446
vt 0.25057 0.27956
vt 0.08239 0.93392
vt 0.14275 0.93392
vt 0.54919 0.00298
vt 0.55625 0.02703
vt 0.54919 0.02703
vt 0.55626 0.00298
vt 0.39105 0.91516
vt 0.33068 0.91517
vt 1.55625 0.02703
vt 1.54919 0.00298
vt 1.54919 0.02703
vt 1.55626 0.00298
vt 0.36583 0.28003
vt 0.34558 0.28004
vt 0.04651 0.08435
vt 1.21092 0.93744
vt 1.21093 0.97162
vt 0.76808 0.33544
vt 0.74783 0.33543
vt 1.47356 0.96138
vt 1.47355 0.99556
vt 0.02044 0.16472
vt 0.98726 0.27124
vt 0.99361 0.30899
vt 0.95640 0.30899
vt 0.96275 0.27124
vt 0.60985 0.07731
vt 0.57898 0.03957
vt 0.61620 0.03956
vt 0.58534 0.07732
vt 0.56057 0.03269
vt 0.56023 0.04552
vt 0.11488 0.03462
vt 0.37771 0.04552
vt 0.37736 0.03270
vt 0.04655 0.24506
vt 0.27003 0.03120
vt 0.27003 0.05111
vt 0.26613 0.05111
vt 0.26613 0.03120
vt 0.46896 0.00293
vt 0.47623 0.01351
vt 0.21278 0.00510
vt 0.46170 0.01351
vt 0.90568 0.04388
vt 0.90178 0.02397
vt 0.90568 0.02397
vt 0.90178 0.04388
vt 1.21278 0.00510
vt 0.61718 0.11061
vt 0.60937 0.12079
vt 0.32857 0.12080
vt 0.32075 0.11062
vt 0.11218 0.78012
vt 0.21618 0.78013
vt 0.19942 0.03466
vt 0.11490 0.29473
vt 0.54847 0.03698
vt 0.38946 0.03699
vt 0.51038 0.03130
vt 0.42755 0.03131
vt 0.68329 0.06192
vt 0.62368 0.06192
vt 0.64291 0.00298
vt 0.68329 0.00298
vt 0.72367 0.00298
vt 0.74291 0.06192
vt 0.61719 0.20692
vt 0.60488 0.21056
vt 0.33306 0.21057
vt 0.32076 0.20694
vt 0.90674 0.88653
vt 0.96711 0.88653
vt 0.90674 0.95685
vt 0.96711 0.95685
vt 0.73371 0.88324
vt 0.73371 0.95356
vt 0.67334 0.88324
vt 0.67334 0.95356
vt 0.10790 0.98670
vt 0.10790 0.96684
vt 0.14394 0.97678
vt 0.57740 0.07999
vt 0.60488 0.10697
vt 0.36054 0.08000
vt 0.33306 0.10698
vt 1.19660 0.00298
vt 1.19860 0.02064
vt 0.26776 0.08435
vt 0.19660 0.00298
vt 0.19860 0.02064
vt 0.19940 0.29473
vt 0.56058 0.28485
vt 0.54848 0.28056
vt 0.38947 0.28056
vt 0.37737 0.28486
vt 0.43998 0.48805
vt 0.42008 0.51245
vt 0.42007 0.48806
vt 0.43999 0.51244
vt 0.29386 0.16470
vt 0.26776 0.24506
vt 0.18668 0.51969
vt 0.20658 0.49530
vt 0.20659 0.51969
vt 0.18667 0.49530
vt 0.60300 0.15877
vt 0.60937 0.19675
vt 0.09224 0.01929
vt 0.33494 0.15878
vt 0.32857 0.19676
vt 1.09224 0.01929
vt 0.47624 0.30404
vt 0.46898 0.31461
vt 0.46171 0.30404
vt 0.56023 0.27202
vt 0.37772 0.27203
vt 0.90155 0.66165
vt 0.89749 0.71369
vt 1.90155 0.66165
vt 1.89749 0.71369
vt 0.57740 0.23755
vt 0.36054 0.23756
vt 0.12794 0.01343
vt 0.09232 0.00307
vt 0.12792 0.00298
vt 0.09234 0.01352
vt 1.12794 0.01343
vt 1.12792 0.00298
vt 1.09232 0.00307
vt 1.09234 0.01352
vt 0.51039 0.28624
vt 0.42756 0.28624
vt 0.62368 0.16153
vt 0.68329 0.16153
vt 0.74291 0.16153
vt 0.44911 0.01004
vt 0.42504 0.00304
vt 0.44910 0.00298
vt 0.42506 0.01010
vt 1.44911 0.01004
vt 1.44910 0.00298
vt 1.42504 0.00304
vt 1.42506 0.01010
vt 0.13611 0.78384
vt 0.08905 0.78384
vt 0.33731 0.76509
vt 0.38438 0.76508
vt 0.76273 0.88323
vt 0.82310 0.88322
vt 0.76273 0.95355
vt 0.82310 0.95355
vt 0.71384 0.19348
vt 0.71384 0.26380
vt 0.65348 0.19348
vt 0.65348 0.26380
vt 0.05273 0.69064
vt 0.05277 0.63101
vt 0.10459 0.69069
vt 0.11694 0.63101
vt 0.10459 0.57134
vt 0.05273 0.57139
vt 1.34706 0.94088
vt 1.31288 0.97506
vt 1.31288 0.94088
vt 1.34706 0.97506
vt 0.32128 0.14482
vt 0.31082 0.17929
vt 0.31082 0.14482
vt 0.32128 0.17929
vt 1.32128 0.17929
vt 1.31082 0.14482
vt 1.31082 0.17929
vt 1.32128 0.14482
vt 0.15501 0.88376
vt 0.20918 0.86066
vt 0.20918 0.88377
vt 0.15501 0.86066
vt 0.07960 0.95968
vt 0.07959 0.99386
vt 0.45747 0.86500
vt 0.40330 0.84190
vt 0.45746 0.84189
vt 0.40330 0.86500
vt 0.83435 0.22739
vt 0.82729 0.25068
vt 0.82728 0.22739
vt 0.83435 0.25068
vt 1.83435 0.22739
vt 1.82729 0.25068
vt 1.83435 0.25068
vt 1.82729 0.22739
vt 0.00293 0.69062
vt 0.00296 0.63101
vt 0.00293 0.57140
vt 0.98368 0.31272
vt 0.94647 0.34993
vt 0.94647 0.31272
vt 0.98368 0.34993
vt 0.20518 0.49157
vt 0.23985 0.49157
vt 1.10790 0.98670
vt 1.10790 0.96684
vt 1.14394 0.97678
vt 0.21647 0.89721
vt 0.21647 0.79321
vt 0.30336 0.89721
vt 0.30336 0.79321
vt 0.54923 0.28807
vt 0.52934 0.31247
vt 0.52933 0.28808
vt 0.54924 0.31246
vt 0.26617 0.48993
vt 0.24627 0.51433
vt 0.24626 0.48994
vt 0.26618 0.51432
vt 0.90562 0.88225
vt 0.83449 0.82814
vt 0.90473 0.83200
vt 0.83604 0.89244
vt 0.00517 0.75864
vt 0.07630 0.70453
vt 0.07541 0.75478
vt 0.00672 0.69434
vt 0.88137 0.07998
vt 0.85366 0.00297
vt 0.90066 0.00555
vt 0.82728 0.07702
vt 0.88634 0.81802
vt 0.85863 0.74101
vt 0.90562 0.74358
vt 0.83225 0.81505
vt 0.90066 0.14422
vt 0.82953 0.09011
vt 0.89976 0.09397
vt 0.83108 0.15441
vt 0.79407 0.77177
vt 0.82178 0.69476
vt 0.84106 0.76919
vt 0.76769 0.69772
vt 0.02931 0.84578
vt 0.05701 0.76876
vt 0.07630 0.84320
vt 0.00293 0.77173
vt 0.76994 0.68463
vt 0.84106 0.63053
vt 0.84017 0.68078
vt 0.77149 0.62033
vt 0.65844 0.46409
vt 0.67835 0.46409
vt 0.67835 0.47400
vt 0.65844 0.47400
vt 0.65844 0.52460
vt 0.67835 0.52460
vt 0.62368 0.34075
vt 0.64358 0.34075
vt 0.64358 0.35066
vt 0.62368 0.35066
vt 0.62368 0.40127
vt 0.64358 0.40127
vt 0.34706 0.94088
vt 0.31288 0.97506
vt 0.31288 0.94088
vt 0.34706 0.97506
vt 0.96638 0.35365
vt 0.94647 0.36357
vt 0.94647 0.35365
vt 0.96638 0.36357
vt 0.96638 0.41417
vt 0.94647 0.41417
vt 0.99617 0.35365
vt 0.97626 0.36357
vt 0.97626 0.35365
vt 0.99617 0.36357
vt 0.99617 0.41417
vt 0.97626 0.41417
vt 1.07960 0.95968
vt 1.07959 0.99386
vt 0.15191 0.93393
vt 0.21228 0.93393
vt 0.46058 0.91516
vt 0.40021 0.91517
vt 0.45194 0.30678
vt 0.45194 0.32669
vt 0.43497 0.32669
vt 0.43497 0.30678
vt 0.04970 0.30864
vt 0.04970 0.32855
vt 0.03273 0.32855
vt 0.03273 0.30864
vt 0.32283 0.10039
vt 0.30586 0.08049
vt 0.32283 0.08049
vt 0.30586 0.10039
vt 0.57609 0.30847
vt 0.55912 0.28857
vt 0.57609 0.28857
vt 0.55912 0.30847
vt 0.89681 0.06751
vt 0.89681 0.04760
vt 0.90071 0.04760
vt 0.90071 0.06751
vt 0.74180 0.02288
vt 0.73790 0.00298
vt 0.74180 0.00298
vt 0.73790 0.02288
vt 0.53930 0.00298
vt 0.51940 0.02737
vt 0.51939 0.00298
vt 0.53931 0.02737
vt 0.23637 0.49530
vt 0.21648 0.51969
vt 0.21647 0.49530
vt 0.23638 0.51969
vt 0.55415 0.69001
vt 0.57111 0.70362
vt 0.55745 0.70363
vt 0.57440 0.69001
vt 0.20563 0.78385
vt 0.15857 0.78385
vt 0.40684 0.76509
vt 0.45390 0.76508
vt 0.87561 0.63581
vt 1.87561 0.63581
vt 0.60382 0.92837
vt 0.62716 0.92131
vt 0.62716 0.93828
vt 0.60382 0.93828
vt 0.62716 0.98888
vt 0.60382 0.98888
vt 0.63107 0.93828
vt 0.63107 0.98888
vt 0.65442 0.98888
vt 0.65442 0.93828
vt 0.65442 0.92837
vt 0.63107 0.92131
vt 0.59483 0.84069
vt 0.59483 0.89129
vt 0.57148 0.84069
vt 0.57148 0.89129
vt 0.59483 0.83077
vt 0.57148 0.82372
vt 0.56757 0.89129
vt 0.56757 0.84069
vt 0.54422 0.84069
vt 0.54422 0.89129
vt 0.54422 0.83077
vt 0.56757 0.82372
vt 0.38880 0.93585
vt 0.36545 0.92593
vt 0.38880 0.91888
vt 0.36545 0.93585
vt 0.36545 0.98645
vt 0.38880 0.98645
vt 0.39270 0.98645
vt 0.39270 0.93585
vt 0.41605 0.93585
vt 0.41605 0.98645
vt 0.41605 0.92593
vt 0.39270 0.91888
vt 0.89775 0.89940
vt 0.87440 0.90931
vt 0.87440 0.89234
vt 0.89775 0.90931
vt 0.87440 0.95992
vt 0.89775 0.95992
vt 0.87050 0.90931
vt 0.87050 0.95992
vt 0.84715 0.95992
vt 0.84715 0.90931
vt 0.84715 0.89940
vt 0.87050 0.89234
vt 0.60878 0.29927
vt 0.63964 0.33702
vt 0.61513 0.33702
vt 0.64599 0.29928
vt 0.56428 0.72493
vn 1.0000 0.0000 0.0000
vn 1.0000 0.0472 0.0000
vn 0.9449 0.3307 0.0000
vn 0.9921 0.0000 0.1417
vn 0.9921 -0.1417 0.0000
vn 0.9921 0.1417 0.0000
vn 0.9921 0.0000 -0.1417
vn -0.8583 0.5118 0.0000
vn -1.0000 0.0000 0.0000
vn -0.9843 0.1654 0.0000
vn 0.9606 -0.2835 0.0000
vn 0.5039 -0.8661 0.0000
vn -0.5591 0.6929 0.4488
vn -0.5591 0.6929 -0.4488
vn 1.0000 0.0787 0.0000
vn 0.0236 0.9528 0.3071
vn 0.0394 0.9921 0.0866
vn 0.0079 0.8583 0.5039
vn 0.0236 0.9528 -0.3071
vn 0.0079 0.8583 -0.5039
vn 0.0394 0.9921 -0.0866
vn 0.9764 0.2205 0.0000
vn -0.0157 0.7638 0.6457
vn -0.0551 0.6063 0.7953
vn -0.0551 0.6063 -0.7953
vn -0.0157 0.7638 -0.6457
vn 0.0000 -1.0000 0.0000
vn -0.9449 0.2992 0.1024
vn -0.9449 0.2992 -0.1024
vn -0.1890 0.0472 0.9843
vn -0.1339 0.2598 0.9528
vn -0.2362 -0.1732 0.9606
vn -0.1339 0.2598 -0.9528
vn -0.1890 0.0472 -0.9843
vn -0.2362 -0.1732 -0.9606
vn -0.0945 0.4173 0.9055
vn -0.0945 0.4173 -0.9055
vn -0.9449 0.3228 0.0630
vn -0.9449 0.3228 -0.0630
vn -0.3150 -0.5197 0.7953
vn -0.2677 -0.3307 0.9055
vn -0.2677 -0.3307 -0.9055
vn -0.3150 -0.5197 -0.7953
vn -0.4016 -0.8661 0.3071
vn -0.4016 -0.9134 0.0866
vn -0.3701 -0.7795 0.5039
vn -0.4016 -0.8661 -0.3071
vn -0.3701 -0.7795 -0.5039
vn -0.4016 -0.9134 -0.0866
vn 0.0079 -0.0551 1.0000
vn 0.0079 -0.0551 -1.0000
vn 0.0000 -0.0472 1.0000
vn 0.0000 -0.0472 -1.0000
vn -0.3465 -0.6850 0.6457
vn -0.3465 -0.6850 -0.6457
vn 0.0000 0.0000 1.0000
vn 0.0000 0.0000 -1.0000
vn 0.0945 0.9528 0.2835
vn 0.0945 0.9528 -0.2835
vn 0.0866 0.9370 -0.3307
vn 0.0866 0.9370 0.3307
vn 0.0000 0.9764 0.2047
vn 0.0000 0.9764 -0.2047
vn 0.0157 0.6142 0.7874
vn 0.0157 0.6142 -0.7874
vn 0.0079 0.5827 0.8189
vn 0.0079 0.5827 -0.8189
vn 0.2205 -0.9764 0.0000
vn -0.3150 0.0000 0.9528
vn -0.3150 0.0000 -0.9528
vn -0.1181 0.0472 0.9921
vn -0.1181 0.0472 -0.9921
vn -0.1260 0.0079 0.9921
vn -0.1260 0.0079 -0.9921
vn 0.3622 0.9291 0.0000
vn -0.2520 -0.5197 0.8189
vn 0.2520 0.9685 0.0000
vn -0.2520 -0.5197 -0.8189
vn -0.2598 -0.5591 0.7874
vn -0.2598 -0.5591 -0.7874
vn -0.7165 -0.3858 0.5827
vn -0.7165 -0.3858 -0.5827
vn 0.0945 0.0000 0.9921
vn 0.1811 0.0000 0.9843
vn 0.0945 0.0000 -0.9921
vn 0.1811 0.0000 -0.9843
vn -0.0236 -1.0000 0.0000
vn -0.3307 -0.8819 -0.3307
vn 0.1575 -0.9843 0.0000
vn -0.3307 -0.8819 0.3307
vn -0.3386 -0.8976 0.2835
vn -0.1654 0.9685 0.1811
vn -0.3386 -0.8976 -0.2835
vn -0.1654 0.9685 -0.1811
vn -0.7402 0.1575 -0.6535
vn -0.7402 0.1575 0.6535
vn -0.4488 0.8976 0.0000
vn -0.2913 -0.9606 0.0000
vn -0.2913 0.0000 -0.9606
vn -0.2913 0.0000 0.9606
vn -0.3071 0.9528 0.0000
vn -0.7165 0.1260 -0.6850
vn -0.7165 0.1260 0.6850
vn -0.2598 -0.9685 0.0000
vn -0.9606 0.0000 0.2913
vn -0.9606 0.0000 -0.2913
vn 0.0000 1.0000 0.0000
vn -0.9764 0.2047 0.0000
vn -0.9764 0.2283 0.0000
vn -0.9764 0.2126 0.0079
vn -0.9764 0.2205 0.0157
vn -0.9764 0.2126 0.0157
vn -0.9764 0.2283 0.0157
vn -0.9685 0.2362 0.0157
vn -0.9685 0.2441 0.0000
vn -0.9685 0.2441 0.0079
vn -0.9685 0.2441 -0.0079
vn -0.9764 0.2126 -0.0079
vn -0.9764 0.2283 -0.0157
vn -0.9685 0.2362 -0.0157
vn -0.9764 0.2205 -0.0157
vn -0.9764 0.2126 -0.0157
vn 0.1181 0.0000 0.9921
vn 0.1181 0.0000 -0.9921
vn -0.1496 0.0000 0.9921
vn -0.1496 0.0000 -0.9921
vn -0.6929 0.0866 -0.7165
vn -0.6929 0.0866 0.7165
vn -0.0236 1.0000 0.0000
vn 0.2992 0.9528 -0.0315
vn 0.2992 0.9528 0.0315
vn -0.1024 0.0000 0.9921
vn -0.1024 0.0000 -0.9921
vn 0.8504 0.5118 -0.1260
vn 0.8583 0.4646 -0.2205
vn 0.8504 0.5039 -0.1417
vn 0.8189 0.5354 0.2283
vn 0.8032 0.2913 0.5197
vn 0.8032 0.3071 0.5039
vn 0.7953 0.2205 0.5591
vn 0.7953 0.2205 -0.5591
vn 0.8032 0.3071 -0.5039
vn 0.8032 0.2913 -0.5197
vn 0.8189 0.5354 -0.2283
vn 0.8504 0.5039 0.1417
vn 0.8504 0.5118 0.1260
vn 0.8583 0.4646 0.2205
vn 0.3858 0.8661 -0.3150
vn 0.3858 0.8661 0.3150
vn -0.5591 -0.8268 0.0000
vn 0.8346 0.4567 0.2992
vn 0.8583 0.4724 0.1968
vn 0.8425 0.4567 0.2835
vn 0.7559 0.2677 0.5984
vn 0.7165 -0.0866 0.6929
vn 0.7165 -0.0709 0.6929
vn 0.7087 -0.1732 0.6850
vn 0.0709 1.0000 0.0000
vn 0.8346 0.4567 -0.2992
vn 0.8583 0.4724 -0.1968
vn 0.8425 0.4567 -0.2835
vn 0.7559 0.2677 -0.5984
vn 0.7165 -0.0866 -0.6929
vn 0.7165 -0.0709 -0.6929
vn 0.7087 -0.1732 -0.6850
vn 0.7717 0.1654 0.6142
vn 0.8032 0.2362 0.5433
vn 0.7795 0.1732 0.6063
vn 0.6535 -0.1496 0.7402
vn 0.6220 -0.4961 0.6063
vn 0.6220 -0.4882 0.6142
vn 0.6142 -0.5669 0.5433
vn 0.6535 -0.1496 -0.7402
vn 0.7717 0.1654 -0.6142
vn 0.7795 0.1732 -0.6063
vn 0.8032 0.2362 -0.5433
vn 0.6220 -0.4961 -0.6063
vn 0.6220 -0.4882 -0.6142
vn 0.6142 -0.5669 -0.5433
vn -0.0315 -1.0000 0.0000
vn 0.0000 0.3071 0.9528
vn 0.0000 0.3071 -0.9528
vn -0.6063 -0.6299 0.4882
vn -0.6063 -0.6299 -0.4882
vn 0.0236 1.0000 0.0000
vn 0.1102 0.0000 -0.9921
vn 0.1102 0.0000 0.9921
vn 0.6772 -0.2520 0.6929
vn 0.7165 -0.1496 0.6850
vn 0.6850 -0.2362 0.6929
vn 0.5591 -0.5748 0.5984
vn 0.5512 -0.7717 0.2992
vn 0.5591 -0.7795 0.2835
vn 0.5591 -0.8032 0.1968
vn 0.7165 -0.1496 -0.6850
vn 0.6850 -0.2362 -0.6929
vn 0.6772 -0.2520 -0.6929
vn 0.5591 -0.5748 -0.5984
vn 0.5512 -0.7717 -0.2992
vn 0.5591 -0.7795 -0.2835
vn 0.5591 -0.8032 -0.1968
vn 0.0000 0.2520 0.9685
vn 0.0000 0.2520 -0.9685
vn 0.4646 0.7953 -0.3780
vn 0.4646 0.7953 0.3780
vn 0.5433 -0.8346 -0.1260
vn 0.5669 -0.7953 -0.2205
vn 0.5433 -0.8268 -0.1417
vn 0.4961 -0.8346 0.2283
vn 0.5906 -0.6142 0.5197
vn 0.5906 -0.6299 0.5039
vn 0.6220 -0.5433 0.5591
vn 0.5906 -0.6299 -0.5039
vn 0.6220 -0.5433 -0.5591
vn 0.5906 -0.6142 -0.5197
vn 0.4961 -0.8346 -0.2283
vn 0.5433 -0.8268 0.1417
vn 0.5433 -0.8346 0.1260
vn 0.5669 -0.7953 0.2205
vn -1.0000 -0.0709 0.0000
vn 0.9449 0.2913 0.1654
vn 0.9449 0.3228 0.0472
vn 0.9291 0.2520 0.2756
vn 0.9291 0.2520 -0.2756
vn 0.9449 0.2913 -0.1654
vn 0.9449 0.3228 -0.0472
vn 0.0000 0.1654 0.9843
vn 0.0000 0.1654 -0.9843
vn -0.7087 0.7087 -0.0472
vn 0.9134 0.1968 0.3465
vn 0.8976 0.1102 0.4252
vn 0.8740 0.0079 0.4882
vn -0.7087 0.7087 0.0472
vn 0.9134 0.1968 -0.3465
vn 0.8976 0.1102 -0.4252
vn 0.8740 0.0079 -0.4882
vn -0.7244 0.6378 0.2756
vn 0.4882 0.1575 0.8583
vn -0.7244 0.6378 -0.2756
vn 0.4882 0.1575 -0.8583
vn -0.7323 0.5827 -0.3465
vn -0.7323 0.5827 0.3465
vn 0.1496 -0.9921 0.0000
vn 0.8504 -0.0709 0.5197
vn 0.8346 -0.1890 0.5197
vn 0.7953 -0.3071 0.5197
vn 0.8346 -0.1890 -0.5197
vn 0.8504 -0.0709 -0.5197
vn 0.7953 -0.3071 -0.5197
vn -0.7795 0.3937 -0.4882
vn -0.7795 0.3937 0.4882
vn -0.7165 0.6772 -0.1654
vn -0.7165 0.6772 0.1654
vn -0.1339 -0.9921 0.0000
vn -0.7953 0.3071 -0.5197
vn -0.7953 0.3071 0.5197
vn -0.1968 0.9764 0.0000
vn -0.7638 0.4882 -0.4252
vn -0.7638 0.4882 0.4252
vn 0.5197 0.1260 -0.8504
vn 0.7638 -0.4882 0.4252
vn 0.7795 -0.3937 0.4882
vn 0.7323 -0.5827 0.3465
vn 0.5197 0.1260 0.8504
vn 0.7638 -0.4882 -0.4252
vn 0.7795 -0.3937 -0.4882
vn 0.7323 -0.5827 -0.3465
vn -0.8504 0.0709 -0.5197
vn -0.8504 0.0709 0.5197
vn -0.8740 -0.0079 -0.4882
vn -0.8740 -0.0079 0.4882
vn 0.7244 -0.6378 0.2756
vn 0.7165 -0.6772 0.1654
vn 0.7087 -0.7087 0.0472
vn 0.7165 -0.6772 -0.1654
vn 0.7244 -0.6378 -0.2756
vn 0.7087 -0.7087 -0.0472
vn -0.8346 0.1890 -0.5197
vn 0.5197 0.7402 -0.4252
vn -0.8346 0.1890 0.5197
vn 0.5197 0.7402 0.4252
vn -0.9134 -0.2047 -0.3465
vn -0.9134 -0.2047 0.3465
vn -0.9291 -0.2520 0.2756
vn -0.9291 -0.2520 -0.2756
vn -0.9449 -0.3228 -0.0472
vn -0.9449 -0.3228 0.0472
vn 0.5591 0.0866 0.8268
vn 0.5591 0.0866 -0.8268
vn -0.8976 -0.1102 -0.4252
vn -0.9134 -0.1968 -0.3465
vn -0.9134 -0.1968 0.3465
vn -0.8976 -0.1102 0.4252
vn -0.1102 0.0000 -0.9921
vn -0.1102 0.0000 0.9921
vn -0.9449 -0.2913 -0.1654
vn -0.9449 -0.2913 0.1654
vn -0.9764 0.1968 0.0000
vn 0.9685 0.2520 0.0236
vn 0.9685 0.2520 -0.0236
vn -0.2992 -0.9528 0.0315
vn -0.2992 -0.9528 -0.0315
vn 0.9764 -0.2283 0.0000
vn -0.2047 0.9764 0.0000
vn 0.5591 -0.6929 -0.4488
vn 0.5591 -0.6929 0.4488
vn 0.9843 0.1654 0.0000

o animal_triceratops
usemtl tex_animal_triceratops_i036p001x
f 1/1/1 2/2/1 3/3/1
f 2/2/1 1/1/1 4/4/1
f 5/5/2 6/6/2 7/7/2
f 8/8/3 6/6/3 5/5/3
f 6/6/3 8/8/3 9/9/3
f 10/5/2 11/6/2 12/7/2
f 13/8/3 14/9/3 10/5/3
f 14/9/3 11/6/3 10/5/3
f 15/5/2 16/6/2 17/7/2
f 18/8/3 19/9/3 15/5/3
f 19/9/3 16/6/3 15/5/3
f 20/10/4 21/11/4 22/12/4
f 20/10/4 22/12/4 23/13/4
f 24/14/5 22/12/5 21/11/5
f 22/12/5 24/14/5 25/15/5
f 26/16/6 20/10/6 23/13/6
f 20/10/6 26/16/6 27/17/6
f 27/17/7 25/15/7 24/14/7
f 25/15/7 27/17/7 26/16/7
f 28/18/8 29/19/8 30/20/8
f 31/21/9 32/22/9 33/23/9
f 32/22/9 31/21/9 34/24/9
f 35/25/9 32/22/9 34/24/9
f 32/22/9 35/25/9 36/26/9
f 37/27/10 38/28/10 39/29/10
f 38/28/10 37/27/10 40/30/10
f 28/18/10 41/31/10 29/19/10
f 41/31/10 28/18/10 42/32/10
f 43/33/11 44/34/11 45/35/11
f 44/34/11 46/36/11 45/35/11
f 47/37/11 48/38/11 49/39/11
f 48/38/11 47/37/11 50/40/11
f 51/41/12 4/4/12 1/1/12
f 52/42/12 4/4/12 51/41/12
f 53/43/13 54/44/13 55/45/13
f 54/44/13 53/43/13 56/46/13
f 57/47/13 54/48/13 56/49/13
f 58/50/13 54/48/13 57/47/13
f 59/51/13 58/50/13 57/47/13
f 60/52/13 58/50/13 59/51/13
f 59/51/13 55/53/13 60/52/13
f 55/53/13 59/51/13 53/54/13
f 61/55/14 62/56/14 63/57/14
f 61/55/14 63/57/14 64/58/14
f 62/56/14 65/59/14 63/57/14
f 62/56/14 66/60/14 65/59/14
f 66/60/14 67/61/14 65/59/14
f 65/59/14 67/61/14 68/62/14
f 68/63/14 61/64/14 64/65/14
f 61/64/14 68/63/14 67/66/14
f 69/67/9 70/68/9 71/69/9
f 70/68/9 69/67/9 72/70/9
f 73/8/3 74/9/3 75/5/3
f 74/9/3 76/6/3 75/5/3
f 77/71/15 78/72/15 79/73/15
f 78/72/15 77/71/15 80/74/15
f 81/75/15 82/76/15 83/77/15
f 82/76/15 81/75/15 84/78/15
f 85/79/16 86/80/17 87/81/17
f 86/80/17 85/79/16 88/82/16
f 85/79/16 89/83/18 88/82/16
f 89/83/18 85/79/16 90/84/18
f 91/85/19 92/86/20 93/87/20
f 92/86/20 91/85/19 94/88/19
f 91/85/19 95/89/21 94/88/19
f 95/89/21 91/85/19 96/90/21
f 75/5/2 76/6/2 97/7/2
f 45/35/22 46/36/22 77/71/22
f 80/74/22 77/71/22 46/36/22
f 50/40/22 83/77/22 48/38/22
f 83/77/22 50/40/22 81/75/22
f 98/91/1 99/92/1 100/93/1
f 99/92/1 98/91/1 101/94/1
f 102/95/1 101/94/1 98/91/1
f 101/94/1 102/95/1 103/96/1
f 102/95/1 104/97/1 103/96/1
f 102/95/1 105/98/1 104/97/1
f 106/99/1 107/100/1 108/101/1
f 107/100/1 106/99/1 109/102/1
f 106/99/1 110/103/1 109/102/1
f 111/104/1 110/103/1 106/99/1
f 112/105/1 110/103/1 111/104/1
f 110/103/1 112/105/1 113/106/1
f 114/107/23 115/108/24 116/109/23
f 115/108/24 114/107/23 117/110/24
f 118/111/25 119/112/26 120/113/26
f 119/112/26 118/111/25 121/114/25
f 122/115/27 123/116/27 124/117/27
f 122/115/27 124/117/27 125/118/27
f 124/117/27 126/119/27 125/118/27
f 126/119/27 124/117/27 127/120/27
f 127/120/27 124/117/27 128/121/27
f 128/121/27 129/122/27 127/120/27
f 130/123/27 129/122/27 128/121/27
f 129/122/27 130/123/27 131/124/27
f 128/121/27 132/125/27 130/123/27
f 132/125/27 128/121/27 133/126/27
f 134/127/27 135/128/27 136/129/27
f 134/127/27 136/129/27 137/130/27
f 136/129/27 100/131/27 137/130/27
f 100/131/27 136/129/27 98/132/27
f 98/132/27 136/129/27 138/133/27
f 138/133/27 102/134/27 98/132/27
f 139/135/27 102/134/27 138/133/27
f 102/134/27 139/135/27 105/136/27
f 138/133/27 140/137/27 139/135/27
f 140/137/27 138/133/27 141/138/27
f 142/139/27 143/140/27 144/141/27
f 143/140/27 142/139/27 145/142/27
f 142/139/27 146/143/27 145/142/27
f 145/142/27 146/143/27 147/144/27
f 142/139/27 148/145/27 146/143/27
f 149/146/27 148/145/27 142/139/27
f 149/146/27 150/147/27 148/145/27
f 151/148/27 150/147/27 149/146/27
f 149/146/27 152/149/27 151/148/27
f 152/149/27 149/146/27 153/150/27
f 154/151/27 155/152/27 156/153/27
f 155/152/27 154/151/27 157/154/27
f 154/151/27 106/155/27 157/154/27
f 157/154/27 106/155/27 108/156/27
f 154/151/27 111/157/27 106/155/27
f 158/158/27 111/157/27 154/151/27
f 158/158/27 112/159/27 111/157/27
f 159/160/27 112/159/27 158/158/27
f 158/158/27 160/161/27 159/160/27
f 160/161/27 158/158/27 161/162/27
f 162/163/28 163/164/28 164/165/28
f 163/164/28 162/163/28 165/166/28
f 166/167/29 167/168/29 168/169/29
f 167/168/29 166/167/29 169/170/29
f 170/171/30 171/172/31 172/173/31
f 171/172/31 170/171/30 173/174/30
f 170/171/30 174/175/32 173/174/30
f 174/175/32 170/171/30 175/176/32
f 176/177/33 177/178/34 178/179/33
f 177/178/34 176/177/33 179/180/34
f 180/181/35 177/178/34 179/180/34
f 177/178/34 180/181/35 181/182/35
f 182/183/28 183/184/28 184/185/28
f 183/184/28 182/183/28 185/186/28
f 186/187/29 187/188/29 188/189/29
f 187/188/29 186/187/29 189/190/29
f 117/191/24 190/192/36 115/193/24
f 190/192/36 117/191/24 191/194/36
f 192/195/37 121/196/25 118/197/25
f 121/196/25 192/195/37 193/198/37
f 194/199/38 195/200/38 196/201/38
f 195/200/38 194/199/38 197/202/38
f 195/200/39 198/203/39 199/204/39
f 198/203/39 195/200/39 197/202/39
f 200/205/40 201/206/41 202/207/41
f 201/206/41 200/205/40 203/208/40
f 204/209/42 205/210/43 206/211/42
f 205/210/43 204/209/42 207/212/43
f 208/213/44 209/214/45 210/215/44
f 209/214/45 208/213/44 211/216/45
f 210/215/44 212/217/46 208/213/44
f 212/217/46 210/215/44 213/218/46
f 214/219/47 215/220/48 216/221/48
f 215/220/48 214/219/47 217/222/47
f 218/223/49 217/222/47 214/219/47
f 217/222/47 218/223/49 219/224/49
f 220/225/50 221/226/50 77/227/50
f 77/227/50 79/228/50 220/225/50
f 222/229/51 81/230/51 223/231/51
f 81/230/51 222/229/51 84/232/51
f 224/233/52 225/234/52 226/235/52
f 224/233/52 226/235/52 227/236/52
f 228/237/50 229/238/50 230/239/50
f 230/239/50 231/240/50 228/237/50
f 232/241/52 233/242/52 43/243/52
f 232/241/52 43/243/52 45/244/52
f 234/245/53 235/246/53 236/247/53
f 235/246/53 234/245/53 237/248/53
f 238/249/51 239/250/51 240/251/51
f 239/250/51 238/249/51 241/252/51
f 242/253/53 47/254/53 243/255/53
f 47/254/53 242/253/53 50/256/53
f 244/257/54 200/258/40 245/259/54
f 200/258/40 244/257/54 203/260/40
f 246/261/55 205/262/43 207/263/43
f 205/262/43 246/261/55 247/264/55
f 230/239/56 224/233/56 227/236/56
f 224/233/56 230/239/56 229/238/56
f 77/227/56 232/241/56 45/244/56
f 232/241/56 77/227/56 221/226/56
f 234/245/57 239/250/57 237/248/57
f 239/250/57 234/245/57 240/251/57
f 242/253/57 81/230/57 50/256/57
f 81/230/57 242/253/57 223/231/57
f 248/8/3 249/9/3 250/5/3
f 249/9/3 251/6/3 250/5/3
f 252/265/56 122/266/56 125/267/56
f 252/265/56 125/267/56 253/268/56
f 125/267/56 254/269/56 253/268/56
f 254/269/56 125/267/56 126/270/56
f 255/271/56 134/272/56 137/273/56
f 255/271/56 137/273/56 256/274/56
f 137/273/56 99/275/56 256/274/56
f 99/275/56 137/273/56 100/276/56
f 257/277/57 151/278/57 152/279/57
f 151/278/57 257/277/57 258/280/57
f 258/280/57 259/281/57 151/278/57
f 151/278/57 259/281/57 150/282/57
f 260/283/57 159/284/57 160/285/57
f 159/284/57 260/283/57 261/286/57
f 261/286/57 113/287/57 159/284/57
f 159/284/57 113/287/57 112/288/57
f 262/289/58 116/109/58 263/290/58
f 116/109/58 262/289/58 114/107/58
f 120/113/59 264/291/59 265/292/59
f 264/291/59 120/113/59 119/112/59
f 266/293/60 86/80/60 267/294/60
f 86/80/60 266/293/60 87/81/60
f 95/89/61 268/295/61 269/296/61
f 268/295/61 95/89/61 96/90/61
f 194/297/62 270/298/62 271/299/62
f 197/300/62 194/297/62 271/299/62
f 197/300/63 271/299/63 272/301/63
f 198/302/63 197/300/63 272/301/63
f 250/5/2 251/6/2 273/7/2
f 171/172/64 274/303/64 172/173/64
f 274/303/64 171/172/64 275/304/64
f 276/305/65 176/177/65 178/179/65
f 276/305/65 277/306/65 176/177/65
f 89/83/66 278/307/66 279/308/66
f 278/307/66 89/83/66 90/84/66
f 278/307/67 92/86/67 279/308/67
f 92/86/67 278/307/67 93/87/67
f 280/309/68 21/310/68 281/311/68
f 21/310/68 280/309/68 24/312/68
f 282/313/69 196/314/69 31/315/69
f 282/313/69 31/315/69 33/316/69
f 35/317/70 283/318/70 36/319/70
f 283/318/70 35/317/70 199/320/70
f 201/206/71 284/321/71 202/207/71
f 284/321/71 201/206/71 285/322/71
f 286/323/72 287/324/72 204/209/72
f 286/323/72 204/209/72 206/211/72
f 288/325/56 133/326/56 128/327/56
f 288/325/56 128/327/56 289/328/56
f 290/329/56 141/330/56 138/331/56
f 290/329/56 138/331/56 291/332/56
f 190/192/73 266/333/73 267/334/73
f 266/333/73 190/192/73 191/194/73
f 292/335/57 142/336/57 144/337/57
f 142/336/57 292/335/57 293/338/57
f 294/339/57 154/340/57 156/341/57
f 154/340/57 294/339/57 295/342/57
f 268/343/74 192/195/74 269/344/74
f 192/195/74 268/343/74 193/198/74
f 296/345/75 297/346/75 298/347/75
f 299/348/75 298/347/75 297/346/75
f 300/349/76 213/218/76 301/350/76
f 213/218/76 300/349/76 212/217/76
f 23/351/77 302/352/77 26/353/77
f 26/353/77 302/352/77 303/354/77
f 300/349/78 301/350/78 216/221/78
f 300/349/78 216/221/78 215/220/78
f 174/175/79 262/355/79 263/356/79
f 262/355/79 174/175/79 175/176/79
f 264/357/80 180/181/80 265/358/80
f 180/181/80 264/357/80 181/182/80
f 304/359/81 305/360/81 306/361/81
f 307/362/82 308/363/82 309/364/82
f 296/365/83 310/366/83 281/367/83
f 310/366/83 296/365/83 298/368/83
f 296/365/83 281/367/83 21/369/83
f 296/365/83 21/369/83 20/370/83
f 51/371/84 1/372/84 311/373/84
f 311/373/84 1/372/84 3/374/84
f 312/375/3 313/376/3 314/377/3
f 313/376/3 315/378/3 314/377/3
f 297/379/85 24/380/85 280/381/85
f 24/380/85 297/379/85 27/382/85
f 316/383/85 297/379/85 280/381/85
f 299/384/85 297/379/85 316/383/85
f 317/385/86 4/386/86 52/387/86
f 4/386/86 317/385/86 2/388/86
f 316/389/87 281/311/87 310/390/87
f 281/311/87 316/389/87 280/309/87
f 284/391/88 209/214/88 211/216/88
f 209/214/88 284/391/88 285/392/88
f 318/393/89 51/394/89 319/395/89
f 51/394/89 318/393/89 52/396/89
f 218/223/90 286/397/90 219/224/90
f 286/397/90 218/223/90 287/398/90
f 244/257/91 274/399/91 275/400/91
f 274/399/91 244/257/91 245/259/91
f 31/401/92 195/402/92 34/403/92
f 195/402/92 31/401/92 196/404/92
f 276/405/93 246/261/93 277/406/93
f 246/261/93 276/405/93 247/264/93
f 35/407/94 34/403/94 195/402/94
f 195/402/94 199/408/94 35/407/94
f 320/409/95 304/410/95 306/411/95
f 321/412/96 308/413/96 307/414/96
f 298/347/97 322/415/97 323/416/97
f 298/347/97 299/348/97 322/415/97
f 316/389/98 310/390/98 324/417/98
f 316/389/98 324/417/98 325/418/98
f 322/419/99 316/383/99 325/420/99
f 316/383/99 322/419/99 299/384/99
f 310/366/100 323/421/100 324/422/100
f 310/366/100 298/368/100 323/421/100
f 326/423/101 327/424/101 328/425/101
f 329/426/101 326/423/101 328/425/101
f 304/410/102 57/427/102 56/46/102
f 57/427/102 304/410/102 320/409/102
f 63/428/103 307/414/103 64/65/103
f 307/414/103 63/428/103 321/412/103
f 71/429/104 330/430/104 331/431/104
f 330/430/104 71/429/104 70/432/104
f 252/433/105 123/434/105 122/435/105
f 332/436/105 123/434/105 252/433/105
f 333/437/106 152/438/106 153/439/106
f 152/438/106 333/437/106 257/440/106
f 39/441/107 334/442/107 335/443/107
f 336/444/107 335/443/107 334/442/107
f 39/441/107 335/443/107 41/445/107
f 335/443/107 336/444/107 337/446/107
f 41/445/107 37/447/107 39/441/107
f 37/447/107 337/446/107 336/444/107
f 37/447/107 41/445/107 42/448/107
f 337/446/107 37/447/107 42/448/107
f 338/449/108 339/450/109 340/451/110
f 339/450/109 341/452/110 340/451/110
f 339/450/109 338/449/108 342/453/109
f 341/452/110 339/450/109 343/454/109
f 344/455/109 339/450/109 342/453/109
f 344/455/109 342/453/109 345/456/111
f 345/456/111 346/457/112 344/455/109
f 347/458/112 344/455/109 346/457/112
f 344/455/109 347/458/112 348/459/109
f 344/455/109 348/459/109 349/460/109
f 349/460/109 348/459/109 350/461/113
f 349/460/109 350/461/113 351/462/113
f 352/463/111 349/460/109 351/462/113
f 349/460/109 352/463/111 353/464/109
f 349/460/109 354/465/109 344/455/109
f 354/465/109 349/460/109 353/464/109
f 339/450/109 344/455/109 354/465/109
f 355/466/114 354/465/109 353/464/109
f 354/465/109 355/466/114 356/467/114
f 357/468/113 354/465/109 356/467/114
f 354/465/109 357/468/113 358/469/109
f 359/470/109 354/465/109 358/469/109
f 359/470/109 339/450/109 354/465/109
f 359/470/109 358/469/109 360/471/115
f 359/470/109 360/471/115 361/472/116
f 362/473/116 359/470/109 361/472/116
f 359/470/109 362/473/116 363/474/109
f 364/475/109 359/470/109 363/474/109
f 339/450/109 359/470/109 364/475/109
f 364/475/109 363/474/109 365/476/117
f 365/476/117 366/477/117 364/475/109
f 367/478/115 364/475/109 366/477/117
f 364/475/109 367/478/115 368/479/109
f 364/475/109 369/480/109 339/450/109
f 343/454/109 339/450/109 369/480/109
f 369/480/109 370/481/118 343/454/109
f 370/481/118 369/480/109 371/482/118
f 369/480/109 372/483/108 371/482/118
f 369/480/109 373/484/109 372/483/108
f 374/485/109 364/475/109 368/479/109
f 374/485/109 369/480/109 364/475/109
f 375/486/119 374/485/109 368/479/109
f 374/485/109 375/486/119 376/487/120
f 377/488/120 374/485/109 376/487/120
f 374/485/109 377/488/120 378/489/109
f 369/480/109 379/490/109 373/484/109
f 369/480/109 374/485/109 379/490/109
f 379/490/109 380/491/121 373/484/109
f 380/491/121 379/490/109 381/492/122
f 382/493/122 381/492/122 379/490/109
f 379/490/109 383/494/109 382/493/122
f 374/485/109 378/489/109 384/495/109
f 379/490/109 374/485/109 384/495/109
f 379/490/109 384/495/109 383/494/109
f 384/495/109 378/489/109 385/496/121
f 384/495/109 386/497/119 383/494/109
f 384/495/109 385/496/121 387/498/119
f 386/497/119 384/495/109 387/498/119
f 226/499/11 388/500/11 227/501/11
f 388/500/11 389/502/11 227/501/11
f 302/503/123 22/504/123 319/505/123
f 22/504/123 302/503/123 23/506/123
f 319/505/123 51/371/123 302/503/123
f 302/503/123 51/371/123 311/373/123
f 235/507/11 390/508/11 391/509/11
f 390/508/11 235/507/11 237/510/11
f 52/387/124 303/511/124 317/385/124
f 303/511/124 52/387/124 318/512/124
f 25/513/124 303/511/124 318/512/124
f 26/514/124 303/511/124 25/513/124
f 326/515/125 71/516/125 331/517/125
f 71/516/125 326/515/125 69/518/125
f 70/519/126 329/520/126 330/521/126
f 72/522/126 329/520/126 70/519/126
f 282/313/56 392/523/56 196/314/56
f 196/314/56 392/523/56 393/524/56
f 196/314/56 393/524/56 194/525/56
f 194/525/56 393/524/56 270/526/56
f 394/527/57 283/318/57 199/320/57
f 283/318/57 394/527/57 395/528/57
f 198/529/57 394/527/57 199/320/57
f 394/527/57 198/529/57 272/530/57
f 58/531/127 396/532/127 54/533/127
f 397/534/127 54/533/127 396/532/127
f 398/535/128 399/536/128 61/537/128
f 399/536/128 62/538/128 61/537/128
f 296/345/129 20/539/129 27/540/129
f 297/346/129 296/345/129 27/540/129
f 314/377/2 315/378/2 400/541/2
f 401/542/130 185/543/130 182/544/130
f 185/543/130 401/542/130 402/545/130
f 403/546/131 188/547/131 404/548/131
f 188/547/131 403/546/131 186/549/131
f 326/515/132 331/517/132 405/550/132
f 405/550/132 327/551/132 326/515/132
f 329/520/133 406/552/133 330/521/133
f 406/552/133 329/520/133 328/553/133
f 407/554/130 408/555/130 162/556/130
f 165/557/130 162/556/130 408/555/130
f 166/558/131 168/559/131 409/560/131
f 166/558/131 409/560/131 410/561/131
f 411/562/134 87/563/135 266/564/135
f 87/563/135 411/562/134 412/565/136
f 413/566/137 412/565/136 411/562/134
f 412/565/136 413/566/137 414/567/137
f 413/566/137 415/568/138 414/567/137
f 415/568/138 413/566/137 416/569/139
f 90/570/140 415/568/138 416/569/139
f 416/569/139 278/571/140 90/570/140
f 93/572/141 416/569/142 417/573/143
f 416/569/142 93/572/141 278/571/141
f 418/574/144 417/573/143 416/569/142
f 417/573/143 418/574/144 419/575/144
f 418/574/144 420/576/145 419/575/144
f 418/574/144 421/577/146 420/576/145
f 421/577/146 96/578/147 420/576/145
f 421/577/146 268/579/147 96/578/147
f 57/47/148 320/580/148 422/581/148
f 422/581/148 59/51/148 57/47/148
f 322/582/9 324/583/9 323/584/9
f 324/583/9 322/582/9 325/585/9
f 63/57/149 423/586/149 321/587/149
f 423/586/149 63/57/149 65/59/149
f 424/588/150 224/589/150 229/590/150
f 224/589/150 424/588/150 425/591/150
f 426/592/150 234/593/150 427/594/150
f 426/592/150 240/595/150 234/593/150
f 428/596/151 114/597/152 262/598/152
f 114/597/152 428/596/151 429/599/153
f 430/600/154 429/599/153 428/596/151
f 429/599/153 430/600/154 431/601/154
f 430/600/154 432/602/155 431/601/154
f 430/600/154 411/562/156 432/602/155
f 411/562/156 191/603/157 432/602/155
f 191/603/157 411/562/156 266/564/157
f 302/352/158 311/604/158 303/354/158
f 303/354/158 311/604/158 317/605/158
f 433/606/159 119/607/160 434/608/161
f 433/606/159 264/609/160 119/607/160
f 435/610/162 433/606/159 434/608/161
f 434/608/161 436/611/162 435/610/162
f 437/612/163 435/610/162 436/611/162
f 435/610/162 437/612/163 421/577/164
f 193/613/165 421/577/164 437/612/163
f 421/577/164 193/613/165 268/579/165
f 230/614/15 438/615/15 231/616/15
f 438/615/15 230/614/15 439/617/15
f 239/618/15 440/619/15 441/620/15
f 440/619/15 239/618/15 241/621/15
f 442/622/166 172/623/167 274/624/167
f 172/623/167 442/622/166 443/625/168
f 444/626/169 443/625/168 442/622/166
f 443/625/168 444/626/169 445/627/169
f 444/626/169 446/628/170 445/627/169
f 444/626/169 428/596/171 446/628/170
f 428/596/171 175/629/172 446/628/170
f 428/596/171 262/598/172 175/629/172
f 447/630/173 448/631/174 449/632/175
f 178/633/176 449/632/175 448/631/174
f 448/631/174 276/634/176 178/633/176
f 449/632/175 450/635/173 447/630/173
f 451/636/177 447/630/173 450/635/173
f 447/630/173 451/636/177 433/606/178
f 181/637/179 433/606/178 451/636/177
f 433/606/178 181/637/179 264/609/179
f 227/501/22 389/502/22 230/614/22
f 439/617/22 230/614/22 389/502/22
f 22/638/180 318/393/180 319/395/180
f 25/639/180 318/393/180 22/638/180
f 237/510/22 441/620/22 390/508/22
f 441/620/22 237/510/22 239/618/22
f 452/640/181 314/641/181 400/642/181
f 315/643/182 453/644/182 400/645/182
f 54/646/183 454/647/183 55/648/183
f 454/647/183 54/646/183 397/649/183
f 61/650/184 455/651/184 398/652/184
f 455/651/184 61/650/184 67/653/184
f 69/654/185 326/423/185 329/426/185
f 72/655/185 69/654/185 329/426/185
f 189/656/186 403/657/186 456/658/186
f 403/657/186 189/656/186 186/659/186
f 401/660/187 184/661/187 457/662/187
f 184/661/187 401/660/187 182/663/187
f 305/664/183 56/46/183 53/43/183
f 56/46/183 305/664/183 304/410/183
f 309/665/184 64/65/184 307/414/184
f 64/65/184 309/665/184 68/63/184
f 458/666/188 202/667/189 284/668/189
f 202/667/189 458/666/188 459/669/190
f 458/666/188 460/670/191 459/669/190
f 458/666/188 461/671/191 460/670/191
f 442/622/192 460/670/191 461/671/191
f 460/670/191 442/622/192 462/672/193
f 245/673/194 462/672/193 442/622/192
f 442/622/192 274/624/194 245/673/194
f 206/674/195 463/675/196 464/676/197
f 464/676/197 286/677/195 206/674/195
f 465/678/198 464/676/197 463/675/196
f 464/676/197 465/678/198 466/679/198
f 448/631/199 466/679/198 465/678/198
f 465/678/198 467/680/200 448/631/199
f 247/681/201 448/631/199 467/680/200
f 448/631/199 247/681/201 276/634/201
f 468/682/202 314/641/202 452/640/202
f 314/641/202 468/682/202 312/683/202
f 315/643/203 469/684/203 453/644/203
f 469/684/203 315/643/203 313/685/203
f 29/686/181 470/687/181 30/688/181
f 471/689/182 28/690/182 30/691/182
f 472/692/181 250/693/181 273/694/181
f 251/695/182 473/696/182 273/697/182
f 127/698/1 254/699/1 126/700/1
f 254/699/1 127/698/1 474/701/1
f 129/702/1 474/701/1 127/698/1
f 474/701/1 129/702/1 475/703/1
f 129/702/1 476/704/1 475/703/1
f 129/702/1 131/705/1 476/704/1
f 146/706/1 477/707/1 147/708/1
f 477/707/1 146/706/1 478/709/1
f 146/706/1 479/710/1 478/709/1
f 148/711/1 479/710/1 146/706/1
f 150/712/1 479/710/1 148/711/1
f 479/710/1 150/712/1 259/713/1
f 480/714/204 58/50/204 60/52/204
f 58/50/204 480/714/204 396/715/204
f 481/716/205 62/56/205 399/717/205
f 481/716/205 66/60/205 62/56/205
f 458/666/206 284/668/207 211/718/207
f 458/666/206 211/718/207 482/719/208
f 483/720/209 458/666/206 482/719/208
f 483/720/209 482/719/208 484/721/209
f 485/722/210 483/720/209 484/721/209
f 483/720/209 485/722/210 486/723/211
f 212/724/212 486/723/211 485/722/210
f 486/723/211 212/724/212 300/725/212
f 486/723/213 300/725/214 215/726/214
f 486/723/213 215/726/214 487/727/215
f 488/728/216 486/723/213 487/727/215
f 487/727/215 489/729/216 488/728/216
f 490/730/217 488/728/216 489/729/216
f 488/728/216 490/730/217 464/676/218
f 219/731/219 464/676/218 490/730/217
f 464/676/218 219/731/219 286/677/219
f 491/732/220 229/590/220 228/733/220
f 229/590/220 491/732/220 424/588/220
f 407/734/187 164/735/187 492/736/187
f 164/735/187 407/734/187 162/737/187
f 493/692/181 75/693/181 97/694/181
f 494/738/220 240/595/220 426/592/220
f 494/738/220 238/739/220 240/595/220
f 169/740/186 410/741/186 495/742/186
f 410/741/186 169/740/186 166/743/186
f 76/695/182 496/696/182 97/697/182
f 470/687/202 41/744/202 335/745/202
f 41/744/202 470/687/202 29/686/202
f 414/567/221 85/746/221 412/565/222
f 85/746/221 87/563/222 412/565/222
f 415/568/223 85/746/221 414/567/221
f 85/746/221 415/568/223 90/570/223
f 250/693/202 497/747/202 248/748/202
f 497/747/202 250/693/202 472/692/202
f 471/689/203 42/749/203 28/690/203
f 42/749/203 471/689/203 337/750/203
f 498/751/203 251/695/203 249/752/203
f 251/695/203 498/751/203 473/696/203
f 417/573/224 91/753/225 93/572/224
f 91/753/225 417/573/224 419/575/225
f 420/576/226 91/753/225 419/575/225
f 91/753/225 420/576/226 96/578/226
f 39/754/227 38/755/227 499/756/227
f 39/754/227 499/756/227 334/757/227
f 500/747/202 75/693/202 493/692/202
f 75/693/202 500/747/202 73/748/202
f 37/758/228 501/759/228 40/760/228
f 501/759/228 37/758/228 336/761/228
f 502/751/203 76/695/203 74/752/203
f 76/695/203 502/751/203 496/696/203
f 342/453/229 285/762/229 201/763/229
f 342/453/229 201/763/229 345/456/229
f 114/597/230 429/599/230 117/764/231
f 117/764/231 429/599/230 431/601/231
f 432/602/232 117/764/231 431/601/231
f 117/764/231 432/602/232 191/603/232
f 373/484/233 204/765/233 287/766/233
f 204/765/233 373/484/233 380/491/233
f 434/608/234 121/767/235 436/611/235
f 121/767/235 434/608/234 119/607/234
f 121/767/235 437/612/236 436/611/235
f 193/613/236 437/612/236 121/767/235
f 124/768/9 503/769/9 289/770/9
f 289/770/9 128/771/9 124/768/9
f 343/454/237 301/772/237 213/773/237
f 213/773/237 341/452/237 343/454/237
f 305/360/238 422/774/238 306/361/238
f 343/454/239 216/775/239 301/772/239
f 216/775/239 343/454/239 370/481/239
f 293/776/9 149/777/9 142/778/9
f 504/779/9 149/777/9 293/776/9
f 309/364/240 308/363/240 423/780/240
f 348/459/241 275/781/241 171/782/241
f 348/459/241 171/782/241 350/461/241
f 176/783/242 383/494/242 386/497/242
f 383/494/242 176/783/242 277/784/242
f 505/692/181 15/693/181 17/694/181
f 16/695/182 506/696/182 17/697/182
f 330/430/243 405/785/243 331/431/243
f 405/785/243 330/430/243 406/786/243
f 443/625/244 170/787/245 172/623/244
f 170/787/245 443/625/244 445/627/245
f 446/628/246 170/787/245 445/627/245
f 170/787/245 446/628/246 175/629/246
f 15/693/202 507/747/202 18/748/202
f 507/747/202 15/693/202 505/692/202
f 177/788/247 449/632/248 178/633/248
f 449/632/248 177/788/247 450/635/247
f 450/635/247 177/788/247 451/636/249
f 181/637/249 451/636/249 177/788/247
f 508/751/203 16/695/203 19/752/203
f 16/695/203 508/751/203 506/696/203
f 342/453/250 209/789/250 285/762/250
f 209/789/250 342/453/250 338/449/250
f 373/484/251 287/766/251 218/790/251
f 373/484/251 218/790/251 372/483/251
f 338/449/229 210/791/252 209/789/229
f 210/791/252 338/449/229 340/451/252
f 341/452/239 210/791/252 340/451/252
f 341/452/239 213/773/239 210/791/252
f 370/481/237 214/792/253 216/775/237
f 214/792/253 370/481/237 371/482/253
f 214/792/253 371/482/253 372/483/233
f 372/483/233 218/790/233 214/792/253
f 509/793/254 282/794/254 33/795/254
f 33/795/254 32/796/254 509/793/254
f 36/797/254 509/793/254 32/796/254
f 509/793/254 36/797/254 283/798/254
f 353/464/255 263/799/255 116/800/255
f 353/464/255 116/800/255 355/466/255
f 378/489/256 120/801/256 265/802/256
f 120/801/256 378/489/256 377/488/256
f 491/803/257 228/804/257 438/805/257
f 228/804/257 231/806/257 438/805/257
f 510/692/181 10/693/181 12/694/181
f 11/695/182 511/696/182 12/697/182
f 494/807/257 440/808/257 238/809/257
f 238/809/257 440/808/257 241/810/257
f 453/811/8 452/812/8 400/813/8
f 512/692/181 5/693/181 7/694/181
f 6/695/182 513/696/182 7/697/182
f 514/747/202 10/693/202 510/692/202
f 10/693/202 514/747/202 13/748/202
f 515/751/203 11/695/203 14/752/203
f 11/695/203 515/751/203 511/696/203
f 201/763/250 203/814/258 345/456/250
f 203/814/258 346/457/258 345/456/250
f 203/814/258 347/458/241 346/457/258
f 347/458/241 203/814/258 244/815/241
f 207/816/259 380/491/251 381/492/259
f 380/491/251 207/816/259 204/765/251
f 207/816/259 381/492/259 382/493/242
f 382/493/242 246/817/242 207/816/259
f 423/780/260 65/818/260 309/364/260
f 68/819/260 309/364/260 65/818/260
f 200/820/261 202/667/262 459/669/262
f 459/669/262 460/670/261 200/820/261
f 462/672/263 200/820/261 460/670/261
f 200/820/261 462/672/263 245/673/263
f 59/821/264 422/774/264 305/360/264
f 59/821/264 305/360/264 53/822/264
f 5/693/202 516/747/202 8/748/202
f 516/747/202 5/693/202 512/692/202
f 205/823/265 463/675/266 206/674/266
f 463/675/266 205/823/265 465/678/265
f 467/680/267 465/678/265 205/823/265
f 205/823/265 247/681/267 467/680/267
f 517/751/203 6/695/203 9/752/203
f 6/695/203 517/751/203 513/696/203
f 348/459/268 244/815/268 275/781/268
f 244/815/268 348/459/268 347/458/268
f 246/817/269 383/494/269 277/784/269
f 383/494/269 246/817/269 382/493/269
f 358/469/270 267/824/270 86/825/270
f 358/469/270 86/825/270 360/471/270
f 368/479/271 95/826/271 269/827/271
f 95/826/271 368/479/271 367/478/271
f 288/828/106 132/829/106 133/830/106
f 518/831/106 132/829/106 288/828/106
f 212/724/272 485/722/272 208/832/273
f 484/721/273 208/832/273 485/722/272
f 482/719/274 208/832/273 484/721/273
f 208/832/273 482/719/274 211/718/274
f 217/833/275 487/727/276 215/726/276
f 487/727/276 217/833/275 489/729/275
f 217/833/275 490/730/277 489/729/275
f 219/731/277 490/730/277 217/833/275
f 144/834/105 519/835/105 292/836/105
f 519/835/105 144/834/105 143/837/105
f 173/838/278 350/461/268 171/782/268
f 350/461/268 173/838/278 351/462/278
f 173/838/278 352/463/255 351/462/278
f 352/463/255 173/838/278 174/839/255
f 422/581/279 320/580/279 306/840/279
f 179/841/280 386/497/269 387/498/280
f 386/497/269 179/841/280 176/783/269
f 179/841/280 387/498/280 385/496/256
f 385/496/256 180/842/256 179/841/280
f 423/586/281 308/843/281 321/587/281
f 353/464/282 174/839/282 263/799/282
f 174/839/282 353/464/282 352/463/282
f 378/489/283 265/802/283 180/842/283
f 180/842/283 385/496/283 378/489/283
f 363/474/284 89/844/284 279/845/284
f 89/844/284 363/474/284 362/473/284
f 363/474/285 279/845/285 92/846/285
f 363/474/285 92/846/285 365/476/285
f 358/469/286 190/847/286 267/824/286
f 190/847/286 358/469/286 357/468/286
f 368/479/287 269/827/287 192/848/287
f 368/479/287 192/848/287 375/486/287
f 480/849/288 55/648/288 454/647/288
f 55/648/288 480/849/288 60/850/288
f 67/653/289 481/851/289 455/651/289
f 481/851/289 67/653/289 66/852/289
f 115/853/290 355/466/291 116/800/291
f 355/466/291 115/853/290 356/467/290
f 115/853/290 357/468/270 356/467/290
f 357/468/270 115/853/290 190/847/270
f 377/488/292 118/854/293 120/801/292
f 118/854/293 377/488/292 376/487/293
f 375/486/271 118/854/293 376/487/293
f 118/854/293 375/486/271 192/848/271
f 183/855/294 402/856/294 520/857/294
f 402/856/294 183/855/294 185/858/294
f 187/859/295 521/860/295 404/861/295
f 188/862/295 187/859/295 404/861/295
f 360/471/286 86/825/286 88/863/296
f 88/863/296 361/472/296 360/471/286
f 88/863/296 362/473/285 361/472/296
f 362/473/285 88/863/296 89/844/285
f 92/846/284 94/864/297 365/476/284
f 94/864/297 366/477/297 365/476/284
f 94/864/297 367/478/287 366/477/297
f 367/478/287 94/864/297 95/826/287
f 509/793/27 392/865/27 282/794/27
f 392/865/27 509/793/27 522/866/27
f 283/798/27 522/866/27 509/793/27
f 522/866/27 283/798/27 395/867/27
f 163/868/294 408/869/294 523/870/294
f 408/869/294 163/868/294 165/871/294
f 167/872/295 524/873/295 409/874/295
f 168/875/295 167/872/295 409/874/295
f 425/591/298 225/876/298 224/589/298
f 225/876/298 425/591/298 525/877/298
f 427/594/298 236/878/298 526/879/298
f 427/594/298 234/593/298 236/878/298
f 527/880/257 220/881/257 78/882/257
f 220/881/257 79/883/257 78/882/257
f 528/884/257 82/885/257 222/886/257
f 222/886/257 82/885/257 84/887/257
f 393/888/299 529/889/299 270/890/299
f 529/889/299 271/891/299 270/890/299
f 529/889/300 272/892/300 271/891/300
f 272/892/300 529/889/300 394/893/300
f 515/894/27 13/895/27 514/896/27
f 13/895/27 515/894/27 14/897/27
f 508/894/27 18/895/27 507/896/27
f 18/895/27 508/894/27 19/897/27
f 517/894/27 8/895/27 516/896/27
f 8/895/27 517/894/27 9/897/27
f 184/898/301 520/899/301 457/900/301
f 520/899/301 184/898/301 183/901/301
f 187/902/302 456/903/302 521/904/302
f 187/902/302 189/905/302 456/903/302
f 530/906/150 232/907/150 221/908/150
f 232/907/150 530/906/150 531/909/150
f 453/811/10 468/910/10 452/812/10
f 468/910/10 453/811/10 469/911/10
f 532/912/150 242/913/150 533/914/150
f 532/912/150 223/915/150 242/913/150
f 164/916/301 523/917/301 492/918/301
f 523/917/301 164/916/301 163/919/301
f 169/920/302 524/921/302 167/922/302
f 524/921/302 169/920/302 495/923/302
f 392/924/1 522/925/1 393/888/1
f 522/925/1 529/889/1 393/888/1
f 522/925/1 395/926/1 529/889/1
f 395/926/1 394/893/1 529/889/1
f 461/671/303 444/626/303 442/622/303
f 461/671/303 430/600/303 444/626/303
f 428/596/303 444/626/303 430/600/303
f 483/720/303 430/600/303 461/671/303
f 483/720/303 461/671/303 458/666/303
f 430/600/303 483/720/303 413/566/303
f 430/600/303 413/566/303 411/562/303
f 413/566/303 483/720/303 418/574/303
f 413/566/303 418/574/303 416/569/303
f 488/728/303 418/574/303 483/720/303
f 488/728/303 483/720/303 486/723/303
f 466/679/303 418/574/303 488/728/303
f 488/728/303 464/676/303 466/679/303
f 466/679/303 435/610/303 418/574/303
f 418/574/303 435/610/303 421/577/303
f 435/610/303 466/679/303 447/630/303
f 447/630/303 466/679/303 448/631/303
f 435/610/303 447/630/303 433/606/303
f 40/927/27 499/928/27 38/929/27
f 499/928/27 40/927/27 501/930/27
f 2/931/304 311/604/304 3/932/304
f 311/604/304 2/931/304 317/605/304
f 473/933/8 472/934/8 273/935/8
f 405/936/1 406/937/1 327/938/1
f 406/937/1 328/939/1 327/938/1
f 498/894/27 248/895/27 497/896/27
f 248/895/27 498/894/27 249/897/27
f 255/940/105 135/941/105 134/942/105
f 534/943/105 135/941/105 255/940/105
f 535/944/106 160/945/106 161/946/106
f 160/945/106 535/944/106 260/947/106
f 502/894/27 73/895/27 500/896/27
f 73/895/27 502/894/27 74/897/27
f 527/948/51 80/949/51 530/950/51
f 80/949/51 527/948/51 78/951/51
f 83/952/50 528/953/50 532/954/50
f 528/953/50 83/952/50 82/955/50
f 425/956/53 388/957/53 525/958/53
f 388/957/53 425/956/53 389/959/53
f 531/960/53 44/961/53 536/962/53
f 44/961/53 531/960/53 46/963/53
f 491/964/51 439/965/51 424/966/51
f 439/965/51 491/964/51 438/967/51
f 391/968/52 427/969/52 526/970/52
f 427/969/52 391/968/52 390/971/52
f 49/972/52 533/973/52 537/974/52
f 533/973/52 49/972/52 48/975/52
f 441/976/50 494/977/50 426/978/50
f 494/977/50 441/976/50 440/979/50
f 424/966/57 439/965/57 425/956/57
f 425/956/57 439/965/57 389/959/57
f 530/950/57 80/949/57 531/960/57
f 531/960/57 80/949/57 46/963/57
f 441/976/56 426/978/56 427/969/56
f 427/969/56 390/971/56 441/976/56
f 83/952/56 532/954/56 533/973/56
f 533/973/56 48/975/56 83/952/56
f 132/980/57 518/981/57 538/982/57
f 132/980/57 538/982/57 130/983/57
f 131/984/57 130/983/57 538/982/57
f 538/982/57 476/985/57 131/984/57
f 140/986/57 539/987/57 540/988/57
f 140/986/57 540/988/57 139/989/57
f 105/990/57 139/989/57 540/988/57
f 540/988/57 104/991/57 105/990/57
f 469/992/27 312/993/27 468/994/27
f 312/993/27 469/992/27 313/995/27
f 143/996/56 541/997/56 519/998/56
f 541/997/56 143/996/56 145/999/56
f 145/999/56 147/1000/56 541/997/56
f 541/997/56 147/1000/56 477/1001/56
f 155/1002/56 542/1003/56 543/1004/56
f 542/1003/56 155/1002/56 157/1005/56
f 157/1005/56 108/1006/56 542/1003/56
f 542/1003/56 108/1006/56 107/1007/56
f 473/933/10 497/1008/10 472/934/10
f 497/1008/10 473/933/10 498/1009/10
f 496/933/8 493/934/8 97/935/8
f 527/1010/220 221/908/220 220/1011/220
f 221/908/220 527/1010/220 530/906/220
f 528/1012/220 223/915/220 532/912/220
f 528/1012/220 222/1013/220 223/915/220
f 123/1014/57 332/1015/57 503/1016/57
f 123/1014/57 503/1016/57 124/1017/57
f 135/1018/57 534/1019/57 544/1020/57
f 135/1018/57 544/1020/57 136/1021/57
f 153/1022/56 504/1023/56 333/1024/56
f 504/1023/56 153/1022/56 149/1025/56
f 161/1026/56 545/1027/56 535/1028/56
f 545/1027/56 161/1026/56 158/1029/56
f 291/1030/9 138/1031/9 136/1032/9
f 136/1032/9 544/1033/9 291/1030/9
f 295/1034/9 158/1035/9 154/1036/9
f 545/1037/9 158/1035/9 295/1034/9
f 290/1038/106 140/1039/106 141/1040/106
f 539/1041/106 140/1039/106 290/1038/106
f 543/1042/105 156/1043/105 155/1044/105
f 156/1043/105 543/1042/105 294/1045/105
f 335/1046/3 471/1047/3 470/1048/3
f 471/1047/3 335/1046/3 337/1049/3
f 531/909/298 233/1050/298 232/907/298
f 233/1050/298 531/909/298 536/1051/298
f 533/914/298 243/1052/298 537/1053/298
f 533/914/298 242/913/298 243/1052/298
f 396/1054/305 454/647/305 397/649/305
f 454/647/305 396/1054/305 480/849/305
f 399/1055/306 398/652/306 455/651/306
f 481/851/306 399/1055/306 455/651/306
f 518/1056/107 288/1057/107 289/1058/107
f 518/1056/107 289/1058/107 538/1059/107
f 289/1058/107 475/1060/107 538/1059/107
f 538/1059/107 475/1060/107 476/1061/107
f 503/1062/107 475/1060/107 289/1058/107
f 475/1060/107 503/1062/107 474/1063/107
f 503/1062/107 254/1064/107 474/1063/107
f 253/1065/107 254/1064/107 503/1062/107
f 503/1062/107 252/1066/107 253/1065/107
f 252/1066/107 503/1062/107 332/1067/107
f 256/1068/107 99/1069/107 544/1070/107
f 544/1070/107 99/1069/107 101/1071/107
f 544/1070/107 255/1072/107 256/1068/107
f 255/1072/107 544/1070/107 534/1073/107
f 103/1074/107 544/1070/107 101/1071/107
f 544/1070/107 103/1074/107 291/1075/107
f 291/1075/107 103/1074/107 540/1076/107
f 540/1076/107 103/1074/107 104/1077/107
f 539/1078/107 291/1075/107 540/1076/107
f 539/1078/107 290/1079/107 291/1075/107
f 504/1080/107 257/1081/107 333/1082/107
f 257/1081/107 504/1080/107 258/1083/107
f 504/1080/107 259/1084/107 258/1083/107
f 259/1084/107 504/1080/107 479/1085/107
f 504/1080/107 478/1086/107 479/1085/107
f 293/1087/107 478/1086/107 504/1080/107
f 541/1088/107 478/1086/107 293/1087/107
f 478/1086/107 541/1088/107 477/1089/107
f 293/1087/107 519/1090/107 541/1088/107
f 519/1090/107 293/1087/107 292/1091/107
f 543/1092/107 295/1093/107 294/1094/107
f 295/1093/107 543/1092/107 542/1095/107
f 542/1095/107 109/1096/107 295/1093/107
f 109/1096/107 542/1095/107 107/1097/107
f 295/1093/107 109/1096/107 545/1098/107
f 545/1098/107 109/1096/107 110/1099/107
f 113/1100/107 545/1098/107 110/1099/107
f 545/1098/107 113/1100/107 261/1101/107
f 260/1102/107 545/1098/107 261/1101/107
f 545/1098/107 260/1102/107 535/1103/107
f 496/933/10 500/1008/10 493/934/10
f 500/1008/10 496/933/10 502/1009/10
f 499/1104/307 336/1105/307 334/1106/307
f 336/1105/307 499/1104/307 501/1107/307
f 470/1048/2 471/1047/2 30/1108/2
f 506/933/8 505/934/8 17/935/8
f 506/933/10 507/1008/10 505/934/10
f 507/1008/10 506/933/10 508/1009/10
f 511/933/8 510/934/8 12/935/8
f 513/933/8 512/934/8 7/935/8
f 510/934/10 515/1009/10 514/1008/10
f 515/1009/10 510/934/10 511/933/10
f 513/933/10 516/1008/10 512/934/10
f 516/1008/10 513/933/10 517/1009/10
