# Roblox asset pack: animal_pigeon (creatures), from the Studio model "Pigeon". Exported with Export Selection, split by tools/build_creatures.py: one object per rigid body. Units: studs. +Y up, front faces -Z, pivot (bottom centre) at the origin.
mtllib animal_pigeon.mtl

v 1.88930 1.02000 -0.38000
v 1.79190 1.22000 0.38000
v 1.88930 1.02000 0.38000
v 1.79190 1.22000 -0.38000
v 1.74450 0.56000 0.31000
v 1.70910 0.77000 -0.31000
v 1.70910 0.77000 0.31000
v 1.74450 0.56000 -0.31000
v -1.66670 1.96000 0.15000
v -1.85150 1.71000 -0.10000
v -1.85150 1.71000 0.10000
v -1.66670 1.96000 -0.15000
v -0.43210 2.43000 -0.58000
v -1.43000 2.43000 0.58000
v -0.43210 2.43000 0.58000
v -1.43000 2.43000 -0.58000
v -1.88930 1.50000 -0.06000
v -1.88930 1.50000 0.06000
v 0.69040 0.48000 0.00000
v 0.68340 0.68000 0.47000
v 0.69040 0.48000 0.47000
v 0.68340 0.68000 0.00000
v 0.69040 0.48000 -0.47000
v 0.68340 0.68000 -0.47000
v -1.39830 2.19000 0.31000
v -1.39830 2.19000 0.04000
v -1.48190 2.19000 0.31000
v -1.48190 2.19000 0.04000
v -1.48190 2.19000 -0.31000
v -1.48190 2.19000 -0.04000
v -1.39830 2.19000 -0.04000
v -1.39830 2.19000 -0.31000
v -1.49940 2.11000 0.08000
v -1.49940 2.11000 0.26000
v -1.44290 2.11000 0.08000
v -1.44290 2.11000 0.26000
v -1.49940 2.11000 -0.26000
v -1.49940 2.11000 -0.08000
v -1.44290 2.11000 -0.08000
v -1.44290 2.11000 -0.26000
v -1.82080 1.35000 0.00000
v -0.92040 0.00000 0.09000
v -0.41000 0.01000 0.36000
v -0.92040 0.00000 0.39000
v -0.41000 0.01000 0.12000
v -0.92040 0.00000 -0.09000
v -0.41000 0.01000 -0.36000
v -0.41000 0.01000 -0.12000
v -0.92040 0.00000 -0.39000
v -1.49940 1.87000 0.26000
v -1.49940 1.87000 0.08000
v -1.49940 1.87000 -0.26000
v -1.49940 1.87000 -0.08000
v 1.02520 0.64000 -0.29000
v 1.02520 0.64000 0.29000
v -1.48190 1.84000 0.31000
v -1.48190 1.84000 0.04000
v -1.48190 1.84000 -0.31000
v -1.48190 1.84000 -0.04000
v -0.65700 0.06000 0.16000
v -0.48500 0.06000 0.33000
v -0.65700 0.06000 0.33000
v -0.48500 0.06000 0.16000
v -0.65700 0.06000 -0.16000
v -0.65700 0.06000 -0.33000
v -0.48500 0.06000 -0.33000
v -0.48500 0.06000 -0.16000
v 0.35420 0.62000 0.73000
v 0.34930 0.72000 0.56000
v 0.34930 0.75000 0.71000
v 0.35420 0.59000 0.59000
v 0.35420 0.62000 -0.73000
v 0.34930 0.72000 -0.56000
v 0.35420 0.59000 -0.59000
v 0.34930 0.75000 -0.71000
v -1.43000 1.43000 0.43000
v -1.43000 1.43000 -0.43000
v -1.32690 1.92000 0.15000
v -1.32690 1.92000 -0.15000
v -1.38930 1.39000 0.47000
v -1.41030 0.84000 0.00000
v -1.41030 0.84000 0.47000
v -1.38930 1.39000 0.00000
v -1.38930 1.39000 -0.47000
v -1.41030 0.84000 -0.47000
v -1.16560 0.49000 0.00000
v -1.16560 0.49000 0.47000
v -1.16560 0.49000 -0.47000
v 0.85580 0.44000 -0.24000
v 0.85580 0.44000 0.24000
v -0.00170 0.37000 0.47000
v -0.00170 0.37000 0.00000
v -0.00170 0.37000 -0.47000
v -0.77180 0.30000 0.04000
v -0.37010 0.30000 0.44000
v -0.77180 0.30000 0.44000
v -0.37010 0.30000 0.04000
v -0.77180 0.30000 -0.04000
v -0.37010 0.30000 -0.44000
v -0.37010 0.30000 -0.04000
v -0.77180 0.30000 -0.44000
v -0.13050 0.54000 0.75000
v -0.31410 1.10000 0.64000
v -0.94570 0.62000 0.73000
v -0.54660 1.36000 0.60000
v -1.11700 0.86000 0.69000
v -1.10230 1.24000 0.62000
v -0.31410 1.10000 -0.64000
v -0.13050 0.54000 -0.75000
v -0.94570 0.62000 -0.73000
v -0.54660 1.36000 -0.60000
v -1.11700 0.86000 -0.69000
v -1.10230 1.24000 -0.62000
v -0.13050 0.51000 0.60000
v -0.13050 0.51000 -0.60000
v -1.11700 0.84000 0.54000
v -0.94570 0.60000 0.59000
v -1.11700 0.84000 -0.54000
v -0.94570 0.60000 -0.59000
v -0.59590 1.55000 0.47000
v -0.59590 1.55000 0.00000
v -0.59590 1.55000 -0.47000
v -1.10230 1.21000 0.48000
v -1.10230 1.21000 -0.48000
v -0.26380 1.18000 0.47000
v -0.26380 1.18000 -0.47000
v 0.53390 0.60000 0.27000
v 0.53390 0.60000 -0.27000
v -0.77180 0.70000 0.44000
v -0.37010 0.70000 0.44000
v -0.77180 0.70000 -0.44000
v -0.37010 0.70000 -0.44000
v -0.92040 0.15000 0.39000
v -0.41000 0.13000 0.36000
v -0.92040 0.15000 -0.39000
v -0.41000 0.13000 -0.36000
v -0.92040 0.15000 0.09000
v -0.92040 0.15000 -0.09000
v -0.26380 1.18000 0.00000
v -0.43210 1.43000 0.43000
v -0.43210 1.43000 -0.43000
v -0.65700 0.34000 0.33000
v -0.48500 0.34000 0.33000
v -0.65700 0.34000 -0.33000
v -0.48500 0.34000 -0.33000
v -1.39830 1.84000 0.31000
v -1.39830 1.84000 -0.31000
v -1.44290 1.87000 0.26000
v -0.54660 1.33000 -0.45000
v -0.54660 1.33000 0.45000
v -1.44290 1.87000 -0.26000
v -1.66500 1.54000 0.10000
v -1.51060 1.55000 0.15000
v -1.51060 1.55000 -0.15000
v -1.66500 1.54000 -0.10000
v 0.39640 0.53000 0.22000
v 0.39640 0.53000 -0.22000
v -0.77180 0.70000 0.04000
v -0.77180 0.70000 -0.04000
v 0.97970 0.81000 0.29000
v 0.52010 0.77000 0.27000
v 0.97970 0.81000 -0.29000
v 0.52010 0.77000 -0.27000
v -0.37010 0.70000 0.04000
v -0.31410 1.07000 0.50000
v -0.37010 0.70000 -0.04000
v -0.31410 1.07000 -0.50000
v 0.85820 0.61000 0.24000
v 0.42620 0.69000 0.22000
v 0.85820 0.61000 -0.24000
v 0.42620 0.69000 -0.22000
v -0.41000 0.13000 0.12000
v -0.41000 0.13000 -0.12000
v -1.33710 1.54000 0.15000
v -1.33710 1.54000 -0.15000
v -1.74660 1.45000 0.06000
v -1.74660 1.45000 -0.06000
v -0.65700 0.34000 0.16000
v -0.65700 0.34000 -0.16000
v -0.48500 0.34000 0.16000
v -0.48500 0.34000 -0.16000
v -1.39830 1.84000 -0.04000
v -1.39830 1.84000 0.04000
v -1.44290 1.87000 0.08000
v -1.44290 1.87000 -0.08000
vt 0.89961 0.12260
vt 0.93836 0.25092
vt 0.89973 0.25096
vt 0.93824 0.12256
vt 0.95906 0.10788
vt 0.99584 0.00295
vt 0.99582 0.10789
vt 0.95908 0.00294
vt 0.95354 0.11885
vt 0.91296 0.06650
vt 0.94516 0.06651
vt 0.90457 0.11884
vt 0.41907 0.37212
vt 0.58771 0.56816
vt 0.41907 0.56816
vt 0.58771 0.37212
vt 0.91910 0.03146
vt 0.93903 0.03146
vt 0.08219 0.50848
vt 0.11471 0.58870
vt 0.08220 0.58870
vt 0.11470 0.50848
vt 0.70146 0.41046
vt 0.73396 0.49068
vt 0.70145 0.49068
vt 0.73397 0.41046
vt 0.89466 0.04952
vt 0.89466 0.00294
vt 0.90879 0.04952
vt 0.90879 0.00294
vt 1.90879 0.04952
vt 1.90879 0.00294
vt 1.89466 0.00294
vt 1.89466 0.04952
vt 0.85962 0.07156
vt 0.85962 0.10304
vt 0.85007 0.07156
vt 0.85007 0.10304
vt 1.85962 0.10304
vt 1.85962 0.07156
vt 1.85007 0.07156
vt 1.85007 0.10304
vt 0.92907 0.00293
vt 0.99508 0.43786
vt 0.94913 0.52416
vt 0.94420 0.43786
vt 0.99016 0.52415
vt 1.99508 0.43786
vt 1.94913 0.52416
vt 1.99016 0.52415
vt 1.94420 0.43786
vt 0.26724 0.37212
vt 0.23577 0.41199
vt 0.23577 0.37212
vt 0.26724 0.41199
vt 1.23577 0.41199
vt 1.26724 0.37212
vt 1.23577 0.37212
vt 1.26724 0.41199
vt 0.69591 0.51901
vt 0.58255 0.67832
vt 0.59744 0.51905
vt 0.71091 0.67827
vt 0.98582 0.52787
vt 0.93925 0.58687
vt 0.93925 0.52787
vt 0.98582 0.58687
vt 1.93925 0.58687
vt 1.98582 0.52787
vt 1.93925 0.52787
vt 1.98582 0.58687
vt 0.39363 0.03200
vt 0.36458 0.00294
vt 0.39363 0.00294
vt 0.36458 0.03200
vt 1.39363 0.03200
vt 1.39363 0.00294
vt 1.36458 0.00294
vt 1.36458 0.03200
vt 0.82530 0.16824
vt 0.84807 0.14371
vt 0.84807 0.16824
vt 0.82530 0.14371
vt 1.82530 0.16824
vt 1.84807 0.14371
vt 1.82530 0.14371
vt 1.84807 0.16824
vt 0.29046 0.41810
vt 0.29046 0.61414
vt 0.12183 0.44417
vt 0.12183 0.58806
vt 0.22037 0.36322
vt 0.22038 0.42093
vt 0.17140 0.36321
vt 0.17137 0.42093
vt 0.47949 0.93262
vt 0.39925 0.83982
vt 0.47947 0.83981
vt 0.39927 0.93263
vt 0.31008 0.92680
vt 0.39031 0.83401
vt 0.39030 0.92682
vt 0.31010 0.83400
vt 0.08315 0.95501
vt 0.00293 0.88339
vt 0.08315 0.88339
vt 0.00293 0.95501
vt 0.22091 0.97154
vt 0.30112 0.89992
vt 0.30112 0.97154
vt 0.22091 0.89992
vt 0.82887 0.42890
vt 0.73613 0.58044
vt 0.74836 0.42890
vt 0.84107 0.58045
vt 0.12183 0.81629
vt 0.20206 0.93485
vt 0.12184 0.93486
vt 0.20204 0.81628
vt 0.71631 0.78568
vt 0.79654 0.90424
vt 0.71633 0.90425
vt 0.79653 0.78567
vt 0.55632 0.99707
vt 0.48843 0.92918
vt 0.55632 0.92918
vt 0.48843 0.99707
vt 1.55632 0.99707
vt 1.48843 0.92918
vt 1.48843 0.99707
vt 1.55632 0.92918
vt 0.36621 0.54766
vt 0.40928 0.46990
vt 0.38882 0.55038
vt 0.31581 0.43092
vt 0.40637 0.33141
vt 0.27540 0.38809
vt 0.36798 0.29912
vt 0.30305 0.29617
vt 1.31581 0.43092
vt 1.40927 0.46990
vt 1.40637 0.33141
vt 1.36621 0.54766
vt 1.38882 0.55038
vt 1.27540 0.38809
vt 1.36798 0.29912
vt 1.30305 0.29617
vt 0.96873 0.26109
vt 0.94420 0.34413
vt 0.94420 0.26109
vt 0.96873 0.34413
vt 1.94420 0.34413
vt 1.96873 0.26109
vt 1.94420 0.26109
vt 1.96873 0.34413
vt 0.73735 0.40674
vt 0.68719 0.38222
vt 0.73735 0.38221
vt 0.68719 0.40675
vt 1.68719 0.38222
vt 1.73735 0.40674
vt 1.73735 0.38221
vt 1.68719 0.40675
vt 0.88570 0.76943
vt 0.88573 0.90648
vt 0.80549 0.76944
vt 0.80551 0.90650
vt 0.84112 0.00294
vt 0.84114 0.13999
vt 0.76093 0.14001
vt 0.76090 0.00296
vt 0.62219 0.40675
vt 0.62219 0.38222
vt 1.62219 0.40675
vt 1.62219 0.38222
vt 0.26149 0.61477
vt 0.26153 0.81255
vt 0.18128 0.61478
vt 0.18131 0.81257
vt 0.79653 0.58416
vt 0.71635 0.78196
vt 0.71631 0.58417
vt 0.79657 0.78194
vt 0.96874 0.12257
vt 0.94421 0.12257
vt 1.94421 0.12257
vt 1.96874 0.12257
vt 0.06062 0.19535
vt 0.18994 0.05330
vt 0.19405 0.25104
vt 0.13514 0.00719
vt 0.13254 0.36205
vt 0.16481 0.36595
vt 0.00293 0.13418
vt 0.04243 0.00294
vt 0.20109 0.25412
vt 0.26489 0.36383
vt 0.23270 0.36840
vt 0.33334 0.19568
vt 0.20110 0.05634
vt 0.25494 0.00911
vt 0.38975 0.13333
vt 0.34754 0.00294
vt 0.60059 0.43578
vt 0.69270 0.43575
vt 0.61081 0.68204
vt 0.61081 0.74992
vt 0.54292 0.74992
vt 0.54292 0.68204
vt 1.61081 0.68204
vt 1.54292 0.74992
vt 1.61081 0.74992
vt 1.54292 0.68204
vt 0.30040 0.61786
vt 0.29800 0.70426
vt 0.27540 0.61786
vt 0.27784 0.70426
vt 1.27540 0.61786
vt 1.29800 0.70426
vt 1.30040 0.61786
vt 1.27784 0.70426
vt 0.96424 0.68071
vt 0.93925 0.73159
vt 0.93925 0.68071
vt 0.96424 0.73159
vt 1.96424 0.68071
vt 1.93925 0.73159
vt 1.96424 0.73159
vt 1.93925 0.68071
vt 0.53797 0.92546
vt 0.61819 0.84139
vt 0.61818 0.92547
vt 0.53798 0.84138
vt 0.62714 0.95137
vt 0.70736 0.86729
vt 0.70736 0.95138
vt 0.62715 0.86729
vt 0.75614 0.17360
vt 0.58751 0.17358
vt 0.75616 0.00296
vt 0.58753 0.00294
vt 0.00295 0.60096
vt 0.17359 0.60098
vt 0.17357 0.76962
vt 0.00293 0.76960
vt 0.32923 0.47882
vt 0.32923 0.52576
vt 0.30017 0.52576
vt 0.30017 0.47882
vt 1.32923 0.47882
vt 1.30017 0.52576
vt 1.32923 0.52576
vt 1.30017 0.47882
vt 0.80550 0.76572
vt 0.88570 0.58416
vt 0.88572 0.76571
vt 0.80549 0.58417
vt 0.70737 0.68203
vt 0.70736 0.86358
vt 0.62714 0.86357
vt 0.62716 0.68202
vt 0.01706 0.00294
vt 0.01706 0.06194
vt 0.00293 0.06194
vt 0.00293 0.00294
vt 1.01706 0.00294
vt 1.00293 0.06194
vt 1.01706 0.06194
vt 1.00293 0.00294
vt 0.58219 0.15387
vt 0.58219 0.19374
vt 0.57265 0.19374
vt 0.57265 0.15387
vt 1.93408 0.60211
vt 1.93409 0.50613
vt 1.90956 0.50612
vt 1.90954 0.60211
vt 0.93409 0.50613
vt 0.93408 0.60211
vt 0.90956 0.50612
vt 0.90954 0.60211
vt 1.58219 0.15387
vt 1.57265 0.19374
vt 1.58219 0.19374
vt 1.57265 0.15387
vt 0.06050 0.77332
vt 0.05954 0.84383
vt 0.03228 0.84029
vt 0.09131 0.81646
vt 0.26855 0.89621
vt 0.24036 0.82923
vt 0.26762 0.82570
vt 0.29937 0.85308
vt 0.75097 0.34967
vt 0.82628 0.34968
vt 0.79907 0.97585
vt 0.73118 0.90796
vt 0.79907 0.90796
vt 0.73118 0.97585
vt 1.79907 0.97585
vt 1.73118 0.90796
vt 1.73118 0.97585
vt 1.79907 0.90796
vt 0.52671 0.80921
vt 0.60949 0.81660
vt 0.52916 0.83874
vt 0.60235 0.78981
vt 0.36953 0.82836
vt 0.37318 0.78990
vt 0.86970 0.38821
vt 0.86230 0.30543
vt 0.88909 0.31256
vt 0.84016 0.38576
vt 0.85056 0.54539
vt 0.88902 0.54174
vt 0.89466 0.86348
vt 0.96255 0.86348
vt 0.89466 0.93136
vt 0.96255 0.93136
vt 0.90954 0.66100
vt 0.93407 0.66100
vt 1.96255 0.86348
vt 1.89466 0.93136
vt 1.96255 0.93136
vt 1.89466 0.86348
vt 1.90954 0.66100
vt 1.93407 0.66100
vt 0.86852 0.08168
vt 0.88666 0.23108
vt 0.85007 0.22758
vt 0.89662 0.07937
vt 0.87558 0.00294
vt 0.85009 0.00972
vt 0.91076 0.27475
vt 0.91781 0.35349
vt 0.88970 0.35117
vt 0.93625 0.28153
vt 0.89963 0.50288
vt 0.93622 0.49940
vt 0.97392 0.15264
vt 0.97392 0.11160
vt 0.99408 0.15264
vt 0.99408 0.11160
vt 1.97392 0.11160
vt 1.99408 0.15264
vt 1.99408 0.11160
vt 1.97392 0.15264
vt 0.00295 0.77762
vt 0.00293 0.84144
vt 0.21100 0.89189
vt 0.21100 0.82807
vt 0.52806 0.35242
vt 0.69670 0.18245
vt 0.69670 0.37850
vt 0.52806 0.20853
vt 0.09778 0.85144
vt 0.07368 0.86103
vt 0.90952 0.78815
vt 0.93405 0.78815
vt 1.90952 0.78815
vt 1.93405 0.78815
vt 0.30586 0.81810
vt 0.28176 0.80850
vt 0.08648 0.31907
vt 0.05742 0.27213
vt 0.08648 0.27213
vt 0.05742 0.31907
vt 1.08648 0.31907
vt 1.05742 0.27213
vt 1.05742 0.31907
vt 1.08648 0.27213
vt 0.02275 0.27546
vt 0.05180 0.27546
vt 0.02275 0.32240
vt 0.05180 0.32240
vt 1.02275 0.27546
vt 1.02275 0.32240
vt 1.05180 0.27546
vt 1.05180 0.32240
vt 0.08710 0.87971
vt 0.29518 0.78983
vt 0.39430 0.25412
vt 0.45810 0.36383
vt 0.42591 0.36840
vt 0.52655 0.19568
vt 0.39430 0.05634
vt 0.44814 0.00911
vt 0.58296 0.13333
vt 0.54074 0.00294
vt 1.58182 0.06194
vt 1.58182 0.00294
vt 1.56769 0.06194
vt 1.56769 0.00294
vt 0.96255 0.85976
vt 0.89466 0.85976
vt 0.96255 0.79187
vt 0.89466 0.79187
vt 0.58182 0.00294
vt 0.58182 0.06194
vt 0.56769 0.06194
vt 0.56769 0.00294
vt 1.96255 0.85976
vt 1.96255 0.79187
vt 1.89466 0.85976
vt 1.89466 0.79187
vt 0.38898 0.03571
vt 0.38898 0.07559
vt 0.37944 0.07559
vt 0.37944 0.03571
vt 1.38899 0.07559
vt 1.38899 0.03571
vt 1.37944 0.07559
vt 1.37944 0.03571
vt 0.44614 0.64612
vt 0.52404 0.57188
vt 0.52665 0.64612
vt 0.44873 0.57188
vt 0.99156 0.67699
vt 0.96897 0.59059
vt 0.99397 0.59059
vt 0.97140 0.67699
vt 1.99156 0.67699
vt 1.99397 0.59059
vt 1.96897 0.59059
vt 1.97140 0.67699
vt 0.87913 0.23461
vt 0.85007 0.28155
vt 0.85007 0.23461
vt 0.87913 0.28155
vt 1.87913 0.28155
vt 1.87913 0.23461
vt 1.85007 0.28155
vt 1.85007 0.23461
vt 0.88824 0.91021
vt 0.88824 0.97810
vt 0.82035 0.97810
vt 0.82035 0.91021
vt 1.82035 0.91021
vt 1.82035 0.97810
vt 1.88824 0.91021
vt 1.88824 0.97810
vt 0.31484 0.63226
vt 0.41000 0.55407
vt 0.41332 0.63208
vt 0.31789 0.55423
vt 0.70145 0.17732
vt 0.84534 0.17732
vt 0.70145 0.34595
vt 0.84534 0.34595
vt 0.00294 0.50080
vt 0.04762 0.57763
vt 0.02508 0.58084
vt 0.09556 0.45986
vt 0.00293 0.36228
vt 0.13506 0.41619
vt 0.04063 0.32919
vt 0.10549 0.32487
vt 1.04762 0.57763
vt 1.00294 0.50080
vt 1.02508 0.58084
vt 1.09556 0.45986
vt 1.00293 0.36228
vt 1.13506 0.41619
vt 1.04063 0.32919
vt 1.10549 0.32487
vt 0.00295 0.24237
vt 0.05194 0.27174
vt 0.00293 0.27174
vt 0.05192 0.24236
vt 0.43393 0.79268
vt 0.53887 0.79267
vt 0.20538 0.03200
vt 0.17632 0.03200
vt 0.17632 0.00294
vt 0.20538 0.00294
vt 1.17632 0.00294
vt 1.20538 0.03200
vt 1.20538 0.00294
vt 1.17632 0.03200
vt 0.01133 0.21619
vt 0.04353 0.21619
vt 0.33981 0.19768
vt 0.38882 0.26151
vt 0.33980 0.26150
vt 0.38882 0.19769
vt 0.99016 0.43414
vt 0.94420 0.34785
vt 0.99508 0.34785
vt 0.94913 0.43415
vt 1.99016 0.43414
vt 1.94420 0.34785
vt 1.94913 0.43415
vt 1.99508 0.34785
vt 0.42853 0.78608
vt 0.30017 0.78631
vt 0.98805 0.20293
vt 0.97392 0.15635
vt 0.98805 0.15635
vt 0.97392 0.20293
vt 1.98805 0.20293
vt 1.97392 0.15635
vt 1.97392 0.20293
vt 1.98805 0.15635
vt 0.40880 0.03441
vt 0.39925 0.00294
vt 0.40880 0.00294
vt 0.39925 0.03441
vt 1.40880 0.03441
vt 1.39925 0.00294
vt 1.39925 0.03441
vt 1.40880 0.00294
vt 0.51976 0.29294
vt 0.49340 0.36825
vt 0.49338 0.29295
vt 0.51977 0.36825
vt 0.56570 0.57188
vt 0.53797 0.66399
vt 0.53798 0.57188
vt 0.56569 0.66399
vt 0.01747 0.19479
vt 0.03739 0.19479
vt 0.02743 0.17406
vn 0.9055 0.4252 0.0000
vn 0.9843 0.1654 0.0000
vn -0.8032 0.5984 0.0000
vn 0.0000 1.0000 0.0000
vn -0.9843 0.1811 0.0000
vn 1.0000 0.0394 0.0000
vn -0.9134 -0.4094 0.0000
vn 0.0315 -1.0000 0.0000
vn -1.0000 0.0000 0.0000
vn 0.4016 -0.9134 0.0000
vn 0.0000 -1.0000 0.0000
vn 1.0000 0.0394 -0.0079
vn 1.0000 0.0394 0.0079
vn 0.1024 0.9921 0.0000
vn -1.0000 0.0394 0.0000
vn -0.8189 -0.5748 0.0000
vn 0.1339 -0.9921 0.0000
vn 0.1654 -0.9843 0.0000
vn 0.0000 0.1811 0.9843
vn 0.0000 0.1811 -0.9843
vn 0.1654 -0.9685 0.1811
vn 0.1654 -0.9685 -0.1811
vn -0.8189 -0.5669 0.1024
vn -0.8189 -0.5669 -0.1024
vn -0.2047 0.9764 0.0000
vn -1.0000 0.0394 -0.0079
vn -1.0000 0.0394 0.0079
vn -0.1024 -0.9921 0.0000
vn -0.1024 -0.9764 0.1811
vn -0.1024 -0.9764 -0.1811
vn 0.0000 0.0000 1.0000
vn 0.0000 0.0000 -1.0000
vn 0.0787 -1.0000 0.0000
vn 0.0551 0.0000 1.0000
vn 0.0551 0.0000 -1.0000
vn 0.7480 0.6693 0.0000
vn 0.0000 -0.1496 0.9921
vn 0.0000 -0.1496 -0.9921
vn 0.4724 0.8819 0.0000
vn -0.2047 0.9606 0.1732
vn -0.2047 0.9606 -0.1732
vn -0.1968 -0.1181 0.9764
vn -0.1968 -0.1181 -0.9764
vn -0.1968 -0.9764 0.0000
vn -0.0709 -0.0236 1.0000
vn -0.0709 -0.0236 -1.0000
vn 1.0000 0.0000 0.0000
vn 0.7480 0.6535 -0.1181
vn 0.7480 0.6535 0.1181
vn -0.0630 -0.0079 1.0000
vn -0.0630 -0.0079 -1.0000
vn -0.1260 -0.1890 0.9764
vn 0.4724 0.8661 -0.1575
vn 0.4724 0.8661 0.1575
vn -0.1260 -0.1890 -0.9764
vn -0.1654 -0.4173 0.8976
vn -0.1654 -0.4173 -0.8976
vn 0.1811 0.9843 0.0000
vn -0.0945 0.9921 0.0000
vn 0.0000 -0.1811 -0.9843
vn 0.0000 -0.1811 0.9843
vn -0.0630 -1.0000 0.0000
vn -0.1968 0.9843 0.0000
vn 0.0709 -1.0000 0.0000
vn 1.0000 -0.0236 0.0000
vn 0.0315 1.0000 0.0000
vn -0.4567 0.8898 0.0000
vn -0.9843 0.1890 0.0000
vn -1.0000 -0.0866 0.0000
vn 0.7638 -0.6457 0.0000
vn 0.7953 -0.6063 0.0000

o animal_pigeon
usemtl tex_animal_pigeon_i005p001x
f 1/1/1 2/2/1 3/3/1
f 2/2/1 1/1/1 4/4/1
f 5/5/2 6/6/2 7/7/2
f 5/5/2 8/8/2 6/6/2
f 9/9/3 10/10/3 11/11/3
f 9/9/3 12/12/3 10/10/3
f 13/13/4 14/14/4 15/15/4
f 14/14/4 13/13/4 16/16/4
f 11/11/5 17/17/5 18/18/5
f 11/11/5 10/10/5 17/17/5
f 19/19/6 20/20/6 21/21/6
f 20/20/6 19/19/6 22/22/6
f 23/23/6 22/24/6 19/25/6
f 22/24/6 23/23/6 24/26/6
f 25/27/4 26/28/4 27/29/4
f 28/30/4 27/29/4 26/28/4
f 29/31/4 30/32/4 31/33/4
f 29/31/4 31/33/4 32/34/4
f 33/35/4 34/36/4 35/37/4
f 36/38/4 35/37/4 34/36/4
f 37/39/4 38/40/4 39/41/4
f 37/39/4 39/41/4 40/42/4
f 18/18/7 17/17/7 41/43/7
f 42/44/8 43/45/8 44/46/8
f 43/45/8 42/44/8 45/47/8
f 46/48/8 47/49/8 48/50/8
f 49/51/8 47/49/8 46/48/8
f 50/52/9 33/53/9 51/54/9
f 33/53/9 50/52/9 34/55/9
f 38/56/9 52/57/9 53/58/9
f 38/56/9 37/59/9 52/57/9
f 54/60/10 3/61/10 55/62/10
f 3/61/10 54/60/10 1/63/10
f 56/64/9 28/65/9 57/66/9
f 28/65/9 56/64/9 27/67/9
f 30/68/9 58/69/9 59/70/9
f 30/68/9 29/71/9 58/69/9
f 60/72/11 61/73/11 62/74/11
f 61/73/11 60/72/11 63/75/11
f 64/76/11 65/77/11 66/78/11
f 64/76/11 66/78/11 67/79/11
f 68/80/12 69/81/12 70/82/12
f 69/81/12 68/80/12 71/83/12
f 72/84/13 73/85/13 74/86/13
f 73/85/13 72/84/13 75/87/13
f 14/88/9 16/89/9 76/90/9
f 16/89/9 77/91/9 76/90/9
f 9/92/14 78/93/14 12/94/14
f 12/94/14 78/93/14 79/95/14
f 80/96/15 81/97/15 82/98/15
f 80/96/15 83/99/15 81/97/15
f 84/100/15 81/101/15 83/102/15
f 81/101/15 84/100/15 85/103/15
f 82/104/16 86/105/16 87/106/16
f 82/104/16 81/107/16 86/105/16
f 85/108/16 86/109/16 81/110/16
f 86/109/16 85/108/16 88/111/16
f 89/112/17 5/113/17 90/114/17
f 5/113/17 89/112/17 8/115/17
f 91/116/18 19/117/18 21/118/18
f 91/116/18 92/119/18 19/117/18
f 92/120/18 23/121/18 19/122/18
f 23/121/18 92/120/18 93/123/18
f 94/124/11 95/125/11 96/126/11
f 95/125/11 94/124/11 97/127/11
f 98/128/11 99/129/11 100/130/11
f 98/128/11 101/131/11 99/129/11
f 70/132/19 102/133/19 68/134/19
f 102/133/19 70/132/19 103/135/19
f 103/135/19 104/136/19 102/133/19
f 104/136/19 103/135/19 105/137/19
f 104/136/19 105/137/19 106/138/19
f 106/138/19 105/137/19 107/139/19
f 108/140/20 109/141/20 110/142/20
f 75/143/20 109/141/20 108/140/20
f 109/141/20 75/143/20 72/144/20
f 108/140/20 110/142/20 111/145/20
f 111/145/20 110/142/20 112/146/20
f 111/145/20 112/146/20 113/147/20
f 114/148/21 68/149/21 102/150/21
f 68/149/21 114/148/21 71/151/21
f 72/152/22 115/153/22 109/154/22
f 115/153/22 72/152/22 74/155/22
f 104/156/23 116/157/23 117/158/23
f 116/157/23 104/156/23 106/159/23
f 118/160/24 110/161/24 119/162/24
f 110/161/24 118/160/24 112/163/24
f 80/164/25 120/165/25 83/166/25
f 83/166/25 120/165/25 121/167/25
f 83/168/25 121/169/25 122/170/25
f 84/171/25 83/168/25 122/170/25
f 116/157/26 106/159/26 107/172/26
f 123/173/26 116/157/26 107/172/26
f 118/160/27 113/174/27 112/163/27
f 113/174/27 118/160/27 124/175/27
f 86/176/28 92/177/28 87/178/28
f 87/178/28 92/177/28 91/179/28
f 88/180/28 92/181/28 86/182/28
f 92/181/28 88/180/28 93/183/28
f 117/184/29 114/148/29 104/185/29
f 104/185/29 114/148/29 102/150/29
f 110/186/30 115/153/30 119/187/30
f 115/153/30 110/186/30 109/154/30
f 125/188/31 87/189/31 91/190/31
f 125/188/31 82/191/31 87/189/31
f 91/190/31 20/192/31 125/188/31
f 20/192/31 91/190/31 21/193/31
f 82/191/31 125/188/31 120/194/31
f 82/191/31 120/194/31 80/195/31
f 93/196/32 24/197/32 23/198/32
f 24/197/32 93/196/32 126/199/32
f 126/199/32 93/196/32 88/200/32
f 85/201/32 126/199/32 88/200/32
f 126/199/32 85/201/32 122/202/32
f 122/202/32 85/201/32 84/203/32
f 127/204/33 54/60/33 55/62/33
f 54/60/33 127/204/33 128/205/33
f 129/206/31 96/207/31 95/208/31
f 129/206/31 95/208/31 130/209/31
f 131/210/32 99/211/32 101/212/32
f 99/211/32 131/210/32 132/213/32
f 44/214/34 43/215/34 133/216/34
f 133/216/34 43/215/34 134/217/34
f 135/218/35 47/219/35 49/220/35
f 47/219/35 135/218/35 136/221/35
f 133/222/9 42/223/9 44/224/9
f 42/223/9 133/222/9 137/225/9
f 135/226/9 46/227/9 138/228/9
f 46/227/9 135/226/9 49/229/9
f 139/230/36 120/231/36 125/232/36
f 120/231/36 139/230/36 121/233/36
f 126/234/36 121/235/36 139/236/36
f 121/235/36 126/234/36 122/237/36
f 76/238/37 140/239/37 14/240/37
f 14/240/37 140/239/37 15/241/37
f 77/242/38 16/243/38 13/244/38
f 77/242/38 13/244/38 141/245/38
f 142/246/31 62/247/31 61/248/31
f 142/246/31 61/248/31 143/249/31
f 144/250/32 66/251/32 65/252/32
f 66/251/32 144/250/32 145/253/32
f 22/254/39 125/255/39 20/256/39
f 125/255/39 22/254/39 139/257/39
f 139/258/39 22/259/39 24/260/39
f 24/260/39 126/261/39 139/258/39
f 27/262/31 56/263/31 146/264/31
f 27/262/31 146/264/31 25/265/31
f 29/266/32 147/267/32 58/268/32
f 147/267/32 29/266/32 32/269/32
f 34/270/31 50/271/31 148/272/31
f 34/270/31 148/272/31 36/273/31
f 111/274/40 113/275/40 124/276/40
f 124/276/40 149/277/40 111/274/40
f 107/278/41 105/279/41 123/280/41
f 123/280/41 105/279/41 150/281/41
f 37/282/32 151/283/32 52/284/32
f 151/283/32 37/282/32 40/285/32
f 9/286/42 152/287/42 153/288/42
f 152/287/42 9/286/42 11/289/42
f 12/290/43 154/291/43 155/292/43
f 155/292/43 10/293/43 12/290/43
f 156/294/44 89/112/44 90/114/44
f 157/295/44 89/112/44 156/294/44
f 129/296/9 94/297/9 96/298/9
f 94/297/9 129/296/9 158/299/9
f 131/300/9 98/301/9 159/302/9
f 98/301/9 131/300/9 101/303/9
f 160/304/45 127/305/45 55/306/45
f 127/305/45 160/304/45 161/307/45
f 3/308/45 160/304/45 55/306/45
f 160/304/45 3/308/45 2/309/45
f 162/310/46 128/311/46 163/312/46
f 128/311/46 162/310/46 54/313/46
f 1/314/46 54/313/46 162/310/46
f 1/314/46 162/310/46 4/315/46
f 95/316/47 97/317/47 130/318/47
f 97/317/47 164/319/47 130/318/47
f 165/320/48 105/279/48 103/321/48
f 105/279/48 165/320/48 150/281/48
f 100/322/47 132/323/47 166/324/47
f 99/325/47 132/323/47 100/322/47
f 167/326/49 111/274/49 149/277/49
f 111/274/49 167/326/49 108/327/49
f 168/328/50 5/329/50 7/330/50
f 5/329/50 168/328/50 90/331/50
f 168/328/50 156/332/50 90/331/50
f 156/332/50 168/328/50 169/333/50
f 157/334/51 170/335/51 89/336/51
f 170/335/51 157/334/51 171/337/51
f 8/338/51 89/336/51 170/335/51
f 8/338/51 170/335/51 6/339/51
f 43/340/47 45/341/47 134/342/47
f 172/343/47 134/342/47 45/341/47
f 48/344/47 136/345/47 173/346/47
f 48/344/47 47/347/47 136/345/47
f 153/288/31 78/348/31 9/286/31
f 78/348/31 153/288/31 174/349/31
f 12/290/32 79/350/32 154/291/32
f 154/291/32 79/350/32 175/351/32
f 140/352/47 13/353/47 15/354/47
f 13/353/47 140/352/47 141/355/47
f 152/287/52 11/289/52 18/356/52
f 152/287/52 18/356/52 176/357/52
f 69/358/53 103/321/53 70/359/53
f 103/321/53 69/358/53 165/320/53
f 73/360/54 108/327/54 167/326/54
f 108/327/54 73/360/54 75/361/54
f 17/362/55 155/292/55 177/363/55
f 155/292/55 17/362/55 10/293/55
f 142/364/9 60/365/9 62/366/9
f 60/365/9 142/364/9 178/367/9
f 144/368/9 64/369/9 179/370/9
f 64/369/9 144/368/9 65/371/9
f 61/372/47 63/373/47 143/374/47
f 63/373/47 180/375/47 143/374/47
f 66/376/47 145/377/47 67/378/47
f 67/378/47 145/377/47 181/379/47
f 176/357/56 18/356/56 41/380/56
f 17/362/57 177/363/57 41/381/57
f 92/382/32 22/383/32 19/384/32
f 22/383/32 92/382/32 139/385/32
f 139/385/32 92/382/32 86/386/32
f 81/387/32 139/385/32 86/386/32
f 139/385/32 81/387/32 121/388/32
f 121/388/32 81/387/32 83/389/32
f 30/390/31 59/391/31 31/392/31
f 182/393/31 31/392/31 59/391/31
f 158/394/32 164/395/32 94/396/32
f 94/396/32 164/395/32 97/397/32
f 57/398/32 28/399/32 26/400/32
f 57/398/32 26/400/32 183/401/32
f 159/402/31 98/403/31 166/404/31
f 98/403/31 100/405/31 166/404/31
f 51/406/32 33/407/32 35/408/32
f 51/406/32 35/408/32 184/409/32
f 38/410/31 53/411/31 39/412/31
f 185/413/31 39/412/31 53/411/31
f 170/414/58 169/415/58 168/416/58
f 169/415/58 170/414/58 171/417/58
f 172/418/35 42/419/35 137/420/35
f 42/419/35 172/418/35 45/421/35
f 173/422/34 138/423/34 46/424/34
f 46/424/34 48/425/34 173/422/34
f 60/426/32 180/427/32 63/428/32
f 178/429/32 180/427/32 60/426/32
f 179/430/31 64/431/31 181/432/31
f 64/431/31 67/433/31 181/432/31
f 129/434/4 130/435/4 164/436/4
f 158/437/4 129/434/4 164/436/4
f 159/438/4 166/439/4 131/440/4
f 131/440/4 166/439/4 132/441/4
f 162/442/59 161/443/59 160/444/59
f 161/443/59 162/442/59 163/445/59
f 76/446/11 77/447/11 140/448/11
f 77/447/11 141/449/11 140/448/11
f 114/450/60 69/451/60 71/452/60
f 69/451/60 114/450/60 165/453/60
f 165/453/60 114/450/60 117/454/60
f 165/453/60 117/454/60 150/455/60
f 150/455/60 117/454/60 116/456/60
f 150/455/60 116/456/60 123/457/60
f 73/458/61 115/459/61 74/460/61
f 115/459/61 73/458/61 167/461/61
f 167/461/61 119/462/61 115/459/61
f 119/462/61 167/461/61 149/463/61
f 119/462/61 149/463/61 118/464/61
f 118/464/61 149/463/61 124/465/61
f 153/466/62 175/467/62 174/468/62
f 175/467/62 153/466/62 154/469/62
f 6/470/63 168/416/63 7/471/63
f 168/416/63 6/470/63 170/414/63
f 142/472/4 143/473/4 180/474/4
f 178/475/4 142/472/4 180/474/4
f 181/476/4 144/477/4 179/478/4
f 144/477/4 181/476/4 145/479/4
f 152/480/64 154/469/64 153/466/64
f 155/481/64 154/469/64 152/480/64
f 174/482/65 79/483/65 78/484/65
f 175/485/65 79/483/65 174/482/65
f 134/486/66 137/487/66 133/488/66
f 137/487/66 134/486/66 172/489/66
f 136/490/66 138/491/66 173/492/66
f 138/491/66 136/490/66 135/493/66
f 160/444/67 2/494/67 162/442/67
f 162/442/67 2/494/67 4/495/67
f 57/496/11 146/497/11 56/498/11
f 146/497/11 57/496/11 183/499/11
f 59/500/11 147/501/11 182/502/11
f 59/500/11 58/503/11 147/501/11
f 51/504/11 148/505/11 50/506/11
f 148/505/11 51/504/11 184/507/11
f 53/508/11 151/509/11 185/510/11
f 53/508/11 52/511/11 151/509/11
f 169/512/68 157/513/68 156/514/68
f 169/512/68 171/515/68 157/513/68
f 161/516/69 128/517/69 127/518/69
f 161/516/69 163/519/69 128/517/69
f 176/520/70 155/481/70 152/480/70
f 177/521/70 155/481/70 176/520/70
f 177/521/71 176/520/71 41/522/71
