# Roblox asset pack: triceratops_2 (creatures), from the Studio model "Triceratops". Exported with Export Selection, split by tools/build_creatures.py: one object per rigid body. Units: studs. +Y up, front faces -Z, pivot (bottom centre) at the origin.
mtllib triceratops_2.mtl

v 1.88700 6.35000 -6.09050
v 1.66300 5.46000 -4.77050
v 1.66400 5.02000 -5.06050
v 1.88700 5.91000 -6.38050
v 1.07600 4.05000 -2.73050
v 1.13400 3.44000 -3.25050
v 1.39600 4.88000 -3.66050
v 1.45300 4.26000 -4.19050
v 1.70100 5.51000 -4.71050
v 1.18600 4.86000 -3.75050
v 1.78200 4.97000 -5.04050
v 1.30500 4.36000 -4.15050
v -0.49400 4.98000 -3.88050
v -0.23300 3.54000 -3.48050
v -0.55200 4.37000 -4.41050
v -0.17500 4.16000 -2.95050
v -0.65300 4.39000 -4.36050
v -1.17200 5.04000 -5.33050
v -0.53400 4.88000 -3.96050
v -1.09200 5.59000 -5.00050
v -1.47200 6.38000 -6.14050
v -1.26500 5.56000 -4.92050
v -1.26600 5.13000 -5.22050
v -1.47200 5.95000 -6.43050
v 0.46400 4.98000 -3.88050
v 0.14500 4.16000 -2.95050
v -1.10500 4.05000 -2.73050
v -1.42500 4.88000 -3.66050
v 1.44100 6.38000 -6.14050
v 1.23600 5.56000 -4.93050
v -1.91600 6.35000 -6.09050
v -1.69300 5.46000 -4.77050
v 0.50400 4.88000 -3.96050
v 1.06100 5.59000 -5.00050
v -1.73100 5.51000 -4.71050
v -1.21600 4.86000 -3.75050
v 0.20300 3.54000 -3.48050
v -1.16400 3.44000 -3.25050
v -1.91600 5.91000 -6.38050
v -1.69300 5.02000 -5.06050
v -1.48300 4.26000 -4.19050
v -1.33500 4.36000 -4.15050
v -1.81200 4.97000 -5.04050
v 0.52300 4.37000 -4.41050
v 0.62400 4.39000 -4.36050
v 1.14200 5.04000 -5.33050
v 1.44100 5.95000 -6.43050
v 1.23600 5.13000 -5.22050
v 0.40600 3.09000 -5.58050
v 0.40600 1.95000 -5.62050
v 0.40600 2.62000 -6.16050
v 0.40600 2.42000 -5.04050
v 0.26700 2.65000 -6.12050
v 0.26700 3.35000 -6.46050
v 0.26700 3.07000 -5.61050
v 0.26700 3.63000 -5.88050
v 0.16000 3.94000 -5.89050
v 0.16000 3.44000 -6.27050
v 0.16000 3.94000 -6.27050
v 0.16000 3.62000 -5.89050
v -0.16100 3.94000 -5.89050
v -0.16100 3.94000 -6.27050
v -0.16100 3.62000 -5.89050
v -0.16100 3.44000 -6.27050
v -0.26800 3.35000 -6.46050
v -0.26800 3.63000 -5.88050
v -0.26800 2.65000 -6.12050
v -0.40800 2.62000 -6.16050
v -0.40800 3.09000 -5.58050
v -0.26800 3.07000 -5.61050
v -0.40800 2.42000 -5.04050
v -0.40800 1.95000 -5.62050
v 0.69500 1.42000 -6.11050
v 0.69500 1.70000 -5.72050
v 0.69500 0.64000 -5.54050
v 0.69500 0.92000 -5.15050
v -0.69600 1.70000 -5.72050
v -0.69600 1.42000 -6.11050
v -0.69600 0.92000 -5.15050
v -0.69600 0.64000 -5.54050
v 1.87300 4.25000 -1.93050
v 1.87300 3.73000 -2.07050
v 1.87300 3.92000 -2.79050
v 1.87300 4.44000 -2.66050
v 1.87300 6.06000 -1.45050
v 1.87300 5.54000 -1.59050
v 1.87300 5.73000 -2.31050
v 1.87300 6.25000 -2.17050
v 1.44500 5.54000 -1.59050
v 1.44500 4.44000 -2.66050
v 1.44500 5.73000 -2.31050
v 1.44500 4.25000 -1.93050
v -0.37500 4.25000 -1.93050
v -0.37500 4.44000 -2.66050
v -0.37500 4.61000 -1.84050
v -0.37500 4.80000 -2.56050
v -0.37500 5.18000 -1.68050
v -0.37500 5.37000 -2.41050
v -0.37500 5.54000 -1.59050
v -0.37500 5.73000 -2.31050
v -0.58800 3.73000 -2.07050
v -0.58800 3.92000 -2.79050
v -0.58800 4.25000 -1.93050
v -0.58800 4.44000 -2.66050
v -0.58800 5.54000 -1.59050
v -0.58800 5.73000 -2.31050
v -0.58800 6.06000 -1.45050
v -0.58800 6.25000 -2.17050
v 0.58900 6.06000 -1.45050
v 0.58900 6.25000 -2.17050
v -1.87300 6.06000 -1.45050
v -1.87300 6.25000 -2.17050
v 0.37500 5.54000 -1.59050
v 0.37500 5.73000 -2.31050
v -1.44500 5.54000 -1.59050
v -1.44500 5.73000 -2.31050
v 0.37500 5.18000 -1.68050
v 0.37500 5.37000 -2.41050
v -1.87300 4.44000 -2.66050
v -1.87300 4.25000 -1.93050
v 0.58900 4.25000 -1.93050
v 0.58900 4.44000 -2.66050
v -1.87300 3.73000 -2.07050
v 0.58900 3.73000 -2.07050
v 0.58900 5.54000 -1.59050
v 0.37500 4.25000 -1.93050
v 0.37500 4.61000 -1.84050
v -1.44500 4.25000 -1.93050
v -1.87300 5.54000 -1.59050
v -1.87300 3.92000 -2.79050
v -1.87300 5.73000 -2.31050
v -1.44500 4.44000 -2.66050
v 0.37500 4.80000 -2.56050
v 0.37500 4.44000 -2.66050
v 0.58900 3.92000 -2.79050
v 0.58900 5.73000 -2.31050
v 2.94400 3.73000 -2.18050
v 2.94400 3.87000 -2.70050
v 2.94400 6.11000 -1.54050
v 2.94400 6.25000 -2.06050
v 2.40800 3.73000 -2.18050
v 2.40800 3.27000 -2.31050
v 2.40800 3.41000 -2.82050
v 2.40800 3.87000 -2.70050
v 2.40800 6.25000 -2.06050
v 2.40800 6.71000 -1.94050
v 2.40800 6.58000 -1.42050
v 2.40800 6.11000 -1.54050
v 1.87300 6.58000 -1.42050
v 1.87300 6.71000 -1.94050
v 1.87300 7.36000 -1.76050
v 1.87300 7.22000 -1.25050
v 1.87300 3.41000 -2.82050
v 1.87300 3.27000 -2.31050
v 1.87300 2.62000 -2.48050
v 1.87300 2.76000 -3.00050
v -1.87300 7.36000 -1.76050
v -1.87300 7.22000 -1.25050
v -2.40800 6.71000 -1.94050
v -1.87300 6.58000 -1.42050
v -1.87300 6.71000 -1.94050
v -2.40800 6.58000 -1.42050
v -2.40800 6.11000 -1.54050
v -2.94400 6.25000 -2.06050
v -2.94400 6.11000 -1.54050
v -2.40800 6.25000 -2.06050
v -1.87300 3.27000 -2.31050
v -1.87300 2.62000 -2.48050
v -2.40800 3.73000 -2.18050
v -2.40800 3.27000 -2.31050
v -2.94400 3.73000 -2.18050
v -2.94400 3.87000 -2.70050
v -2.40800 3.87000 -2.70050
v -2.40800 3.41000 -2.82050
v -1.87300 2.76000 -3.00050
v -1.87300 3.41000 -2.82050
v 1.07000 2.41000 -5.87050
v 1.07000 2.65000 -4.50050
v 1.07000 1.14000 -5.65050
v 1.07000 1.38000 -4.28050
v -1.07100 2.65000 -4.50050
v -1.07100 2.41000 -5.87050
v -1.07100 1.38000 -4.28050
v -1.07100 1.14000 -5.65050
v 0.90900 2.70000 -5.71050
v 0.90900 2.91000 -4.55050
v 0.90900 2.39000 -5.66050
v 0.90900 2.59000 -4.50050
v -0.91000 2.91000 -4.55050
v -0.91000 2.70000 -5.71050
v -0.91000 2.59000 -4.50050
v -0.91000 2.39000 -5.66050
v 1.32500 3.75000 -4.78050
v 1.32500 4.12000 -2.67050
v 1.32500 1.49000 -4.38050
v 1.32500 1.86000 -2.27050
v -1.35200 4.12000 -2.67050
v -1.35200 3.75000 -4.78050
v -1.35200 1.86000 -2.27050
v -1.35200 1.49000 -4.38050
v 0.96300 1.46000 -5.89050
v 0.96300 1.98000 -4.60050
v 0.96300 0.72000 -5.59050
v 0.96300 1.24000 -4.30050
v -0.96400 1.98000 -4.60050
v -0.96400 1.46000 -5.89050
v -0.96400 1.24000 -4.30050
v -0.96400 0.72000 -5.59050
v 1.32400 1.48000 -4.38050
v 1.32400 1.86000 -2.27050
v 1.32400 1.12000 -4.32050
v 1.32400 1.49000 -2.21050
v -1.35200 1.48000 -4.38050
v -1.35200 1.49000 -2.21050
v -1.35200 1.12000 -4.32050
v 1.44900 3.05000 -3.64050
v 1.44900 3.75000 -3.38050
v 1.44900 3.12000 -3.27050
v 1.44900 3.68000 -3.75050
v 1.44900 2.96000 -4.16050
v 1.44900 3.27000 -3.95050
v 1.44900 3.01000 -3.90050
v 1.44900 3.22000 -4.21050
v -1.45800 3.75000 -3.38050
v -1.45800 3.68000 -3.75050
v -1.45800 3.27000 -3.95050
v -1.45800 3.22000 -4.21050
v -1.45800 3.12000 -3.27050
v -1.45800 3.01000 -3.90050
v -1.45800 3.05000 -3.64050
v -1.45800 2.96000 -4.16050
v 1.44900 3.53000 -3.72050
v 1.44900 3.32000 -3.68050
v 1.44900 3.43000 -4.25050
v -1.45800 3.53000 -3.72050
v -1.45800 3.43000 -4.25050
v -1.45800 3.32000 -3.68050
v -1.15000 0.37000 -2.22050
v -1.15000 0.37000 -1.95050
v -1.15000 0.00000 -2.22050
v -1.15000 0.00000 -1.95050
v -1.47600 0.00000 -2.22050
v -1.47600 0.37000 -1.95050
v -1.47600 0.00000 -1.95050
v -1.47600 0.37000 -2.22050
v -1.80300 0.37000 -2.22050
v -1.80300 0.37000 -1.95050
v -1.80300 0.00000 -2.22050
v -1.80300 0.00000 -1.95050
v -1.41800 0.37000 -1.95050
v -1.41800 0.37000 -2.22050
v -1.74400 0.37000 -1.95050
v -1.74400 0.37000 -2.22050
v -2.07100 0.37000 -2.22050
v -2.07100 0.37000 -1.95050
v -1.41800 0.00000 -1.95050
v -1.74400 0.00000 -1.95050
v -2.07100 0.00000 -1.95050
v -2.07100 0.00000 -2.22050
v -1.74400 0.00000 -2.22050
v -1.41800 0.00000 -2.22050
v -1.20200 0.23000 -2.09050
v -1.20200 0.23000 -1.12050
v -1.20200 0.04000 -2.09050
v -1.20200 0.04000 -1.12050
v -2.01900 0.23000 -1.12050
v -2.01900 0.23000 -2.09050
v -2.01900 0.04000 -1.12050
v -2.01900 0.04000 -2.09050
v -1.20200 0.66000 -2.09050
v -1.20200 0.66000 -1.12050
v -2.01900 0.66000 -1.12050
v -2.01900 0.66000 -2.09050
v -1.20200 0.23000 0.39950
v -1.20200 0.23000 1.35950
v -1.20200 0.04000 0.39950
v -1.20200 0.04000 1.35950
v -2.01900 0.23000 1.35950
v -2.01900 0.23000 0.39950
v -2.01900 0.04000 1.35950
v -2.01900 0.04000 0.39950
v -1.15000 0.00000 0.26950
v -1.15000 0.37000 0.53950
v -1.15000 0.00000 0.53950
v -1.15000 0.37000 0.26950
v -1.47600 0.00000 0.26950
v -1.47600 0.37000 0.53950
v -1.47600 0.00000 0.53950
v -1.47600 0.37000 0.26950
v -1.80300 0.37000 0.26950
v -1.80300 0.37000 0.53950
v -1.80300 0.00000 0.26950
v -1.80300 0.00000 0.53950
v -2.07100 0.37000 0.26950
v -2.07100 0.37000 0.53950
v -1.74400 0.37000 0.53950
v -1.74400 0.37000 0.26950
v -1.41800 0.37000 0.26950
v -1.41800 0.37000 0.53950
v -2.07100 0.00000 0.53950
v -1.74400 0.00000 0.53950
v -1.41800 0.00000 0.53950
v -2.07100 0.00000 0.26950
v -1.74400 0.00000 0.26950
v -1.41800 0.00000 0.26950
v -1.20200 0.66000 0.39950
v -1.20200 0.66000 1.35950
v -2.01900 0.66000 1.35950
v -2.01900 0.66000 0.39950
v 2.07500 0.23000 -2.09050
v 2.07500 0.23000 -1.12050
v 2.07500 0.04000 -2.09050
v 2.07500 0.04000 -1.12050
v 1.25700 0.23000 -1.12050
v 1.25700 0.23000 -2.09050
v 1.25700 0.04000 -1.12050
v 1.25700 0.04000 -2.09050
v 2.12600 0.37000 -2.22050
v 2.12600 0.37000 -1.95050
v 2.12600 0.00000 -2.22050
v 2.12600 0.00000 -1.95050
v 1.80000 0.00000 -2.22050
v 1.80000 0.37000 -1.95050
v 1.80000 0.00000 -1.95050
v 1.80000 0.37000 -2.22050
v 1.47300 0.37000 -2.22050
v 1.47300 0.37000 -1.95050
v 1.47300 0.00000 -2.22050
v 1.47300 0.00000 -1.95050
v 1.85900 0.37000 -1.95050
v 1.85900 0.37000 -2.22050
v 1.53200 0.37000 -1.95050
v 1.53200 0.37000 -2.22050
v 1.20500 0.37000 -2.22050
v 1.20500 0.37000 -1.95050
v 1.85900 0.00000 -1.95050
v 1.53200 0.00000 -1.95050
v 1.20500 0.00000 -1.95050
v 1.20500 0.00000 -2.22050
v 1.53200 0.00000 -2.22050
v 1.85900 0.00000 -2.22050
v 2.07500 0.66000 -2.09050
v 2.07500 0.66000 -1.12050
v 1.25700 0.66000 -1.12050
v 1.25700 0.66000 -2.09050
v 2.07500 0.23000 0.39950
v 2.07500 0.23000 1.35950
v 2.07500 0.04000 0.39950
v 2.07500 0.04000 1.35950
v 1.25700 0.23000 1.35950
v 1.25700 0.23000 0.39950
v 1.25700 0.04000 1.35950
v 1.25700 0.04000 0.39950
v 2.12600 0.37000 0.26950
v 2.12600 0.37000 0.53950
v 2.12600 0.00000 0.26950
v 2.12600 0.00000 0.53950
v 1.80000 0.00000 0.26950
v 1.80000 0.37000 0.53950
v 1.80000 0.00000 0.53950
v 1.80000 0.37000 0.26950
v 1.47300 0.37000 0.26950
v 1.47300 0.37000 0.53950
v 1.47300 0.00000 0.26950
v 1.47300 0.00000 0.53950
v 1.85900 0.37000 0.53950
v 1.85900 0.37000 0.26950
v 1.53200 0.37000 0.53950
v 1.53200 0.37000 0.26950
v 1.20500 0.37000 0.26950
v 1.20500 0.37000 0.53950
v 1.85900 0.00000 0.53950
v 1.53200 0.00000 0.53950
v 1.20500 0.00000 0.53950
v 1.20500 0.00000 0.26950
v 1.53200 0.00000 0.26950
v 1.85900 0.00000 0.26950
v 2.07500 0.66000 0.39950
v 2.07500 0.66000 1.35950
v 1.25700 0.66000 1.35950
v 1.25700 0.66000 0.39950
v -0.41500 3.26000 4.26950
v -0.41500 4.28000 5.43950
v 0.50600 3.26000 4.26950
v 0.50600 4.28000 5.43950
v -0.41500 3.95000 5.71950
v -0.41500 2.94000 4.54950
v 0.50600 3.95000 5.71950
v 0.50600 2.94000 4.54950
v -0.41500 3.62000 3.94950
v -0.41500 4.64000 5.11950
v 0.50600 3.62000 3.94950
v 0.50600 4.64000 5.11950
v -0.70400 2.31000 2.26950
v -0.70400 3.39000 4.47950
v 0.79500 2.31000 2.26950
v 0.79500 3.39000 4.47950
v -0.70400 2.91000 4.71950
v -0.70400 1.83000 2.49950
v 0.79500 2.91000 4.71950
v 0.79500 1.83000 2.49950
v -0.70500 3.08000 1.88950
v -0.70500 4.16000 4.10950
v 0.79400 3.08000 1.88950
v 0.79400 4.16000 4.10950
v -0.70500 3.39000 4.47950
v -0.70500 2.31000 2.26950
v 0.79400 3.39000 4.47950
v 0.79400 2.31000 2.26950
v -0.22200 4.20000 5.29950
v -0.22200 4.64000 6.33950
v 0.31300 4.20000 5.29950
v 0.31300 4.64000 6.33950
v -0.22200 4.34000 6.45950
v -0.22200 3.91000 5.42950
v 0.31300 4.34000 6.45950
v 0.31300 3.91000 5.42950
v -0.22200 4.50000 5.17950
v -0.22200 4.94000 6.20950
v 0.31300 4.50000 5.17950
v 0.31300 4.94000 6.20950
v 1.60900 2.26000 1.57950
v 1.60900 2.17000 2.63950
v 1.60900 1.52000 1.50950
v 1.60900 1.42000 2.57950
v -1.54900 2.17000 2.63950
v -1.54900 2.26000 1.57950
v -1.54900 1.42000 2.57950
v -1.54900 1.52000 1.50950
v 1.67200 1.98000 -2.55050
v 1.67200 2.11000 -0.67050
v 1.67200 1.23000 -2.50050
v 1.67200 1.36000 -0.62050
v -1.61300 2.11000 -0.67050
v -1.61300 1.98000 -2.55050
v -1.61300 1.36000 -0.62050
v -1.61300 1.23000 -2.50050
v 1.76900 2.31000 -1.36050
v 1.76900 2.31000 1.84950
v 1.76900 1.24000 -1.36050
v 1.76900 1.24000 1.84950
v -1.71000 2.31000 1.84950
v -1.71000 2.31000 -1.36050
v -1.71000 1.24000 1.84950
v -1.71000 1.24000 -1.36050
v 1.67200 4.11000 -2.70050
v 1.67200 4.24000 -0.82050
v -1.61300 4.24000 -0.82050
v -1.61300 4.11000 -2.70050
v 1.60900 4.18000 1.73950
v 1.60900 4.09000 2.80950
v -1.54900 4.09000 2.80950
v -1.54900 4.18000 1.73950
v 1.76900 4.34000 -1.36050
v 1.76900 4.34000 1.84950
v 1.76900 2.30000 -1.36050
v 1.76900 2.30000 1.84950
v -1.71000 4.34000 1.84950
v -1.71000 4.34000 -1.36050
v -1.71000 2.30000 1.84950
v -1.71000 2.30000 -1.36050
v 2.09400 2.94000 0.72950
v 2.09400 2.62000 1.74950
v 2.09400 1.40000 0.25950
v 2.09400 1.09000 1.27950
v 1.23800 2.62000 1.74950
v 1.23800 2.94000 0.72950
v 1.23800 1.09000 1.27950
v 1.23800 1.40000 0.25950
v -1.18200 2.51000 -2.33050
v -1.18200 2.97000 -1.36050
v -1.18200 1.06000 -1.65050
v -1.18200 1.51000 -0.68050
v -2.03800 2.97000 -1.36050
v -2.03800 2.51000 -2.33050
v -2.03800 1.51000 -0.68050
v -2.03800 1.06000 -1.65050
v 2.04000 1.68000 -1.84050
v 2.04000 1.56000 -0.99050
v 2.04000 0.41000 -2.02050
v 2.04000 0.29000 -1.17050
v 1.29100 1.56000 -0.99050
v 1.29100 1.68000 -1.84050
v 1.29100 0.29000 -1.17050
v 1.29100 0.41000 -2.02050
v -1.18200 2.94000 0.72950
v -1.18200 2.62000 1.74950
v -1.18200 1.40000 0.25950
v -1.18200 1.09000 1.27950
v -2.03800 2.62000 1.74950
v -2.03800 2.94000 0.72950
v -2.03800 1.09000 1.27950
v -2.03800 1.40000 0.25950
v -1.23600 1.68000 -1.84050
v -1.23600 1.56000 -0.99050
v -1.23600 0.41000 -2.02050
v -1.23600 0.29000 -1.17050
v -1.98500 1.56000 -0.99050
v -1.98500 1.68000 -1.84050
v -1.98500 0.29000 -1.17050
v -1.98500 0.41000 -2.02050
v -1.23600 1.58000 0.34950
v -1.23600 1.67000 1.19950
v -1.23600 0.30000 0.47950
v -1.23600 0.39000 1.33950
v -1.98500 1.67000 1.19950
v -1.98500 1.58000 0.34950
v -1.98500 0.39000 1.33950
v -1.98500 0.30000 0.47950
v 2.09400 2.51000 -2.33050
v 2.09400 2.97000 -1.36050
v 2.09400 1.06000 -1.65050
v 2.09400 1.51000 -0.68050
v 1.23800 2.97000 -1.36050
v 1.23800 2.51000 -2.33050
v 1.23800 1.51000 -0.68050
v 1.23800 1.06000 -1.65050
v 2.04000 1.58000 0.34950
v 2.04000 1.67000 1.19950
v 2.04000 0.30000 0.47950
v 2.04000 0.39000 1.33950
v 1.29100 1.67000 1.19950
v 1.29100 1.58000 0.34950
v 1.29100 0.39000 1.33950
v 1.29100 0.30000 0.47950
vt 46.18840 -18.82030
vt 46.02350 -18.93160
vt 46.06030 -18.98580
vt 46.22510 -18.87470
vt 45.76840 -19.10690
vt 45.83430 -19.18400
vt 45.88480 -19.00380
vt 45.95070 -19.08090
vt 46.01630 -18.92470
vt 45.89610 -19.00630
vt 46.05720 -18.99300
vt 45.94610 -19.06850
vt 45.91310 -18.99060
vt 45.86250 -19.17090
vt 45.97890 -19.06780
vt 45.79670 -19.09370
vt 45.97240 -19.06530
vt 46.09340 -18.98320
vt 45.92250 -19.00310
vt 46.05240 -18.91490
vt 46.19490 -18.81600
vt 46.04310 -18.91830
vt 46.07990 -18.97260
vt 46.23160 -18.87030
vt 45.86370 -18.76840
vt 45.94010 -18.91310
vt 45.98000 -18.79670
vt 45.82370 -18.88480
vt 46.13630 -18.76840
vt 46.02000 -18.79670
vt 46.17630 -18.88480
vt 46.05990 -18.91310
vt 45.79030 -19.02350
vt 45.81800 -19.19490
vt 45.84370 -19.04310
vt 45.76230 -19.18840
vt 46.15630 -19.04310
vt 46.23770 -19.18840
vt 46.20980 -19.02350
vt 46.18210 -19.19490
vt 45.84990 -18.89610
vt 45.78550 -19.01630
vt 45.93510 -18.92250
vt 45.86550 -19.05240
vt 46.21450 -19.01630
vt 46.15010 -18.89610
vt 46.13460 -19.05240
vt 46.06490 -18.92250
vt 46.14360 -19.18400
vt 46.13630 -19.10690
vt 46.02000 -19.09370
vt 46.02720 -19.17090
vt 45.98000 -19.09370
vt 45.86370 -19.10690
vt 45.97270 -19.17090
vt 45.85640 -19.18400
vt 45.97650 -18.93160
vt 45.77490 -18.87470
vt 45.93970 -18.98580
vt 45.81160 -18.82030
vt 46.11520 -19.00380
vt 46.04930 -19.08090
vt 46.23160 -19.10690
vt 46.16570 -19.18400
vt 46.10390 -19.00630
vt 45.98370 -18.92470
vt 46.05390 -19.06850
vt 45.94280 -18.99300
vt 46.08690 -18.99060
vt 46.02110 -19.06780
vt 46.20330 -19.09370
vt 46.13750 -19.17090
vt 46.07750 -19.00310
vt 45.94760 -18.91490
vt 46.02760 -19.06530
vt 45.90660 -18.98320
vt 45.95690 -18.91830
vt 45.76840 -18.87030
vt 45.92010 -18.97260
vt 45.80510 -18.81600
vt 45.83500 -18.94610
vt 45.77540 -19.05720
vt 45.92020 -18.97240
vt 45.85530 -19.09340
vt 46.22460 -19.05720
vt 46.16500 -18.94610
vt 46.14460 -19.09340
vt 46.07980 -18.97240
vt 46.14360 -18.83430
vt 46.02720 -18.86250
vt 46.18350 -18.95070
vt 46.06720 -18.97890
vt 45.93280 -18.97890
vt 45.97270 -18.86250
vt 45.85640 -18.83430
vt 45.81650 -18.95070
vt 46.15630 -19.07990
vt 46.18200 -19.23160
vt 46.23770 -19.22510
vt 46.20980 -19.06030
vt 45.81790 -19.23160
vt 45.79020 -19.06030
vt 45.76230 -19.22510
vt 45.84360 -19.07990
vt 45.81800 -18.81600
vt 45.76230 -18.82030
vt 45.81800 -18.87030
vt 45.76230 -18.87470
vt 46.23770 -18.87470
vt 46.18210 -18.81600
vt 46.18210 -18.87030
vt 46.23770 -18.82030
vt 46.21450 -18.92470
vt 46.15630 -18.91830
vt 46.20980 -18.93160
vt 46.13460 -18.91490
vt 46.15640 -18.97260
vt 46.22460 -18.99300
vt 46.20980 -18.98580
vt 46.14470 -18.98320
vt 45.79030 -18.93160
vt 45.78550 -18.92470
vt 45.77540 -18.99300
vt 45.84370 -18.91830
vt 45.79020 -18.98580
vt 45.86550 -18.91490
vt 45.84370 -18.97260
vt 45.85540 -18.98320
vt 45.94010 -18.99060
vt 45.82370 -19.00380
vt 45.84990 -19.00630
vt 45.93510 -19.00310
vt 45.83500 -19.06850
vt 45.81650 -19.08090
vt 45.92020 -19.06530
vt 45.93280 -19.06780
vt 46.06720 -19.06780
vt 46.18350 -19.08090
vt 46.16500 -19.06850
vt 46.17630 -19.00380
vt 46.07980 -19.06530
vt 46.15010 -19.00630
vt 46.06490 -19.00310
vt 46.05990 -18.99060
vt -0.02133 -58.98220
vt -0.01591 -59.12430
vt 0.05146 -59.04110
vt -0.08870 -59.06540
vt 0.04635 -59.03700
vt 0.08870 -58.95010
vt -0.01768 -58.98510
vt 0.01654 -58.91490
vt 0.01753 -58.87570
vt 0.06436 -58.93830
vt 0.06436 -58.87570
vt 0.01753 -58.91540
vt 0.02005 -59.01750
vt -0.02015 -59.01750
vt 0.02005 -59.06440
vt -0.02015 -59.06440
vt 0.03345 -59.08870
vt -0.03345 -59.08870
vt 0.03345 -59.01650
vt -0.03345 -59.01650
vt 0.03345 -59.04630
vt 0.05085 -59.05150
vt 0.05085 -58.97870
vt -0.05085 -59.05150
vt 0.03345 -58.98230
vt -0.03345 -59.04630
vt -0.03345 -58.98230
vt -0.05085 -58.97870
vt -0.03345 -58.91490
vt -0.03345 -58.98510
vt 0.03345 -58.91490
vt 0.03345 -58.98510
vt -0.05085 -58.98220
vt -0.05085 -59.06540
vt 0.05085 -59.06540
vt 0.05085 -58.98220
vt -0.02005 -58.87570
vt -0.02005 -58.91540
vt 0.02015 -58.91540
vt 0.02015 -58.87570
vt 0.01591 -59.12430
vt 0.08870 -59.06540
vt -0.05146 -59.04110
vt 0.02133 -58.98220
vt -0.08870 -58.95010
vt -0.04635 -59.03700
vt -0.01654 -58.91490
vt 0.01768 -58.98510
vt -0.01753 -58.91540
vt -0.06436 -58.87570
vt -0.06436 -58.93830
vt -0.01753 -58.87570
vt -0.05085 -58.91130
vt -0.05085 -58.98410
vt 0.05085 -58.98410
vt 0.05085 -58.91130
vt 0.05085 -59.04110
vt -0.05085 -59.04110
vt 0.05085 -59.12430
vt -0.05085 -59.12430
vt 0.03345 -59.03700
vt 0.03345 -58.95010
vt -0.03345 -59.03700
vt -0.03345 -58.95010
vt 0.02005 -58.87570
vt -0.02015 -58.87570
vt 0.02005 -58.93830
vt -0.02015 -58.93830
vt 6.56021 -0.25000
vt 6.50000 -0.25000
vt 6.56021 -0.37043
vt 6.50000 -0.37043
vt 6.67395 -0.25000
vt 6.67395 -0.31021
vt 6.50000 -0.31021
vt 6.67395 -0.37043
vt 49.97640 -37.09290
vt 49.99370 -37.15750
vt 50.08420 -37.13330
vt 50.06690 -37.06870
vt 49.91580 -36.86670
vt 49.93310 -36.93130
vt 50.02360 -36.90710
vt 50.00630 -36.84250
vt 49.96430 -37.04770
vt 50.05480 -37.02340
vt 49.94520 -36.97660
vt 50.03570 -36.95230
vt 49.92630 -36.91580
vt 49.76580 -36.91580
vt 49.92630 -37.00630
vt 49.76580 -37.00630
vt 50.23410 -36.91580
vt 50.07360 -36.91580
vt 50.23410 -37.00630
vt 50.07360 -37.00630
vt 49.95310 -36.93310
vt 49.81930 -36.93310
vt 49.95310 -37.02360
vt 49.81930 -37.02360
vt 50.18060 -36.93310
vt 50.04690 -36.93310
vt 50.18060 -37.02360
vt 50.04690 -37.02360
vt 49.95310 -36.94520
vt 49.95310 -37.03570
vt 50.04690 -37.03570
vt 50.04690 -36.94520
vt 50.23410 -37.06690
vt 50.07360 -36.97640
vt 50.07360 -37.06690
vt 50.23410 -36.97640
vt 49.92630 -36.97640
vt 49.76580 -36.97640
vt 49.92630 -37.06690
vt 49.76580 -37.06690
vt 49.92640 -37.15750
vt 49.76590 -37.09290
vt 49.76590 -37.15750
vt 49.92640 -37.09290
vt 50.23420 -37.15750
vt 50.23420 -37.09290
vt 50.07370 -37.09290
vt 50.07370 -37.15750
vt 50.23420 -36.93130
vt 50.07370 -36.86670
vt 50.07370 -36.93130
vt 50.23420 -36.86670
vt 50.04690 -37.09290
vt 50.18070 -37.09290
vt 50.04690 -37.04770
vt 50.04690 -36.93130
vt 50.18070 -36.93130
vt 50.04690 -36.97660
vt 49.95310 -36.97660
vt 49.95310 -37.04770
vt 49.81940 -36.93130
vt 49.95310 -36.93130
vt 49.95310 -37.09290
vt 49.81940 -37.09290
vt 49.92640 -36.93130
vt 49.92640 -36.86670
vt 49.76590 -36.86670
vt 49.76590 -36.93130
vt 50.00630 -37.15750
vt 50.02360 -37.09290
vt 49.93310 -37.06870
vt 49.91580 -37.13330
vt 50.06690 -36.93130
vt 50.08420 -36.86670
vt 49.99370 -36.84250
vt 49.97640 -36.90710
vt 50.03570 -37.04770
vt 49.94520 -37.02340
vt 50.05480 -36.97660
vt 49.96430 -36.95230
vt 49.92640 -37.08420
vt 49.92640 -36.99370
vt 49.76590 -36.99370
vt 49.76590 -37.08420
vt 50.23420 -37.08420
vt 50.23420 -36.99370
vt 50.07370 -36.99370
vt 50.07370 -37.08420
vt 50.04690 -36.97640
vt 50.18070 -37.06690
vt 50.18070 -36.97640
vt 50.04690 -37.06690
vt 49.95310 -37.06690
vt 49.81940 -36.97640
vt 49.81940 -37.06690
vt 49.95310 -36.97640
vt 49.95310 -36.96430
vt 49.95310 -37.05480
vt 50.04690 -37.05480
vt 50.04690 -36.96430
vt 50.23420 -37.02360
vt 50.07370 -36.93310
vt 50.07370 -37.02360
vt 50.23420 -36.93310
vt 49.92640 -37.02360
vt 49.92640 -36.93310
vt 49.76590 -36.93310
vt 49.76590 -37.02360
vt 50.07360 -37.06870
vt 50.07360 -37.13330
vt 50.23410 -37.13330
vt 50.23410 -37.06870
vt 49.76580 -37.06870
vt 49.76580 -37.13330
vt 49.92630 -37.13330
vt 49.92630 -37.06870
vt 49.76580 -36.84250
vt 49.76580 -36.90710
vt 49.92630 -36.90710
vt 49.92630 -36.84250
vt 49.81930 -36.90710
vt 49.95310 -36.95230
vt 49.95310 -36.90710
vt 49.81930 -37.06870
vt 49.95310 -37.06870
vt 49.95310 -37.02340
vt 50.04690 -37.02340
vt 50.04690 -36.95230
vt 50.18060 -37.06870
vt 50.04690 -37.06870
vt 50.04690 -36.90710
vt 50.18060 -36.90710
vt 50.23410 -36.84250
vt 50.07360 -36.84250
vt 50.23410 -36.90710
vt 50.07360 -36.90710
vt 30.00750 -47.15730
vt 30.07210 -47.14000
vt 29.92790 -46.86000
vt 29.99250 -46.84270
vt 30.02310 -47.21550
vt 30.08770 -47.19810
vt 29.97690 -46.78450
vt 29.91230 -46.80190
vt 29.95530 -46.70380
vt 29.89060 -46.72110
vt 30.04470 -47.29620
vt 30.10940 -47.27890
vt 29.76580 -46.89060
vt 29.76580 -46.95530
vt 30.23410 -46.95530
vt 30.23410 -46.89060
vt 29.76580 -46.97690
vt 29.69890 -46.91230
vt 29.69890 -46.97690
vt 29.76580 -46.91230
vt 30.30110 -46.97690
vt 30.23410 -46.91230
vt 30.23410 -46.97690
vt 30.30110 -46.91230
vt 29.69890 -46.92790
vt 29.63200 -46.92790
vt 29.69890 -46.99250
vt 29.63200 -46.99250
vt 30.30110 -46.92790
vt 30.36800 -46.99250
vt 30.36800 -46.92790
vt 30.30110 -46.99250
vt 30.30110 -46.86000
vt 30.36800 -47.15730
vt 30.36800 -46.86000
vt 30.30110 -47.15730
vt 30.23420 -46.80190
vt 30.30110 -46.80190
vt 30.30110 -47.21550
vt 30.23420 -47.21550
vt 29.76590 -46.72110
vt 30.23420 -46.72110
vt 30.23420 -47.29620
vt 29.76590 -46.80190
vt 29.76590 -47.21550
vt 29.76590 -47.29620
vt 29.69890 -46.80190
vt 29.69890 -46.86000
vt 29.69890 -47.15730
vt 29.69890 -47.21550
vt 29.63200 -46.86000
vt 29.63200 -47.15730
vt 29.92790 -47.14000
vt 29.99250 -47.15730
vt 30.00750 -46.84270
vt 30.07210 -46.86000
vt 29.97690 -47.21550
vt 29.91230 -47.19810
vt 30.08770 -46.80190
vt 30.02310 -46.78450
vt 29.95530 -47.29620
vt 29.89060 -47.27890
vt 30.10940 -46.72110
vt 30.04470 -46.70380
vt 30.23420 -47.10940
vt 30.23420 -47.04470
vt 29.76590 -47.04470
vt 29.76590 -47.10940
vt 30.23420 -47.02310
vt 30.30110 -47.08770
vt 30.30110 -47.02310
vt 30.23420 -47.08770
vt 29.76590 -47.02310
vt 29.69890 -47.02310
vt 29.76590 -47.08770
vt 29.69890 -47.08770
vt 30.30110 -47.00750
vt 30.36800 -47.07210
vt 30.36800 -47.00750
vt 30.30110 -47.07210
vt 29.63200 -47.00750
vt 29.69890 -47.07210
vt 29.69890 -47.00750
vt 29.63200 -47.07210
vt 29.69890 -47.14000
vt 29.63200 -46.84270
vt 29.63200 -47.14000
vt 29.69890 -46.84270
vt 29.76580 -47.19810
vt 29.69890 -47.19810
vt 29.69890 -46.78450
vt 29.76580 -46.78450
vt 30.23410 -47.27890
vt 29.76580 -47.27890
vt 29.76580 -46.70380
vt 30.23410 -47.19810
vt 30.23410 -46.78450
vt 30.23410 -46.70380
vt 30.30110 -47.19810
vt 30.30110 -47.14000
vt 30.30110 -46.84270
vt 30.30110 -46.78450
vt 30.36800 -47.14000
vt 30.36800 -46.84270
vt 4.67395 -6.75000
vt 4.50000 -6.75000
vt 4.67395 -6.91057
vt 4.50000 -6.91057
vt 4.76761 -6.75000
vt 4.76761 -6.92395
vt 4.50000 -6.92395
vt 4.76761 -6.91057
vt 5.89719 -5.50000
vt 5.75000 -5.50000
vt 5.89719 -5.54014
vt 5.75000 -5.54014
vt 5.97747 -5.50000
vt 5.97747 -5.64719
vt 5.75000 -5.64719
vt 5.97747 -5.54014
vt 0.26761 -3.50000
vt 0.00000 -3.50000
vt 0.26761 -3.78768
vt 0.00000 -3.78768
vt 0.33452 -3.50000
vt 0.33452 -3.76761
vt 0.00000 -3.76761
vt 0.33452 -3.78768
vt 0.67395 0.50000
vt 0.50000 0.50000
vt 0.67395 0.39964
vt 0.50000 0.39964
vt 0.74085 0.50000
vt 0.74085 0.32605
vt 0.50000 0.32605
vt 0.74085 0.39964
vt 5.01761 -3.00000
vt 4.75000 -3.00000
vt 5.01761 -3.04683
vt 4.75000 -3.04683
vt 5.08452 -3.00000
vt 5.08452 -3.26761
vt 4.75000 -3.26761
vt 5.08452 -3.04683
vt 27.98720 -11.03780
vt 27.95500 -10.95060
vt 27.94110 -11.02970
vt 28.00120 -10.95870
vt 28.05310 -11.04940
vt 28.02600 -11.01070
vt 28.02020 -11.04360
vt 28.05890 -11.01650
vt 28.18170 -10.95500
vt 27.81830 -11.00110
vt 28.18170 -11.00110
vt 27.81830 -10.95500
vt 28.18170 -11.02600
vt 27.81830 -11.05890
vt 28.18170 -11.05890
vt 27.81830 -11.02600
vt 28.18170 -11.02970
vt 27.81830 -10.95060
vt 27.81830 -11.02970
vt 28.18170 -10.95060
vt 28.18170 -11.04360
vt 27.81830 -11.01070
vt 27.81830 -11.04360
vt 28.18170 -11.01070
vt 28.05890 -11.02970
vt 27.99880 -10.95870
vt 28.01280 -11.03780
vt 28.04500 -10.95060
vt 27.97980 -11.04360
vt 27.94110 -11.01650
vt 27.94690 -11.04940
vt 27.97400 -11.01070
vt 27.81830 -10.94110
vt 27.81830 -10.98720
vt 28.18170 -10.94110
vt 28.18170 -10.98720
vt 27.81830 -11.02020
vt 27.81830 -11.05310
vt 28.18170 -11.02020
vt 28.18170 -11.05310
vt 28.18170 -11.01650
vt 27.81830 -11.01650
vt 28.18170 -11.04940
vt 27.81830 -11.04940
vt 28.18170 -11.03780
vt 27.81830 -10.95870
vt 27.81830 -11.03780
vt 28.18170 -10.95870
vt 7.97229 1.03255
vt 7.96764 1.00620
vt 8.00058 1.00039
vt 7.99477 0.96745
vt 7.96183 0.97326
vt 8.03353 0.99458
vt 8.03817 1.02093
vt 7.81830 1.02771
vt 7.81830 0.96183
vt 8.18170 1.02771
vt 8.18170 0.96183
vt 8.18170 1.00620
vt 7.81830 1.03255
vt 7.81830 1.00620
vt 8.18170 1.03255
vt 8.18170 0.97326
vt 7.81830 0.97326
vt 7.99943 1.00039
vt 8.03236 1.00620
vt 7.96183 1.02093
vt 8.02771 1.03255
vt 7.96647 0.99458
vt 8.03817 0.97326
vt 8.00523 0.96745
vt 8.18170 1.03817
vt 7.81830 1.03817
vt 7.81830 1.00523
vt 8.18170 1.00523
vt 7.81830 0.99943
vt 7.81830 0.96647
vt 8.18170 0.99942
vt 8.18170 0.96647
vt 7.81830 1.02093
vt 8.18170 0.99458
vt 8.18170 1.02093
vt 7.81830 0.99458
vt 7.81830 1.00039
vt 8.18170 0.96745
vt 8.18170 1.00039
vt 7.81830 0.96745
vt 40.01670 -34.97660
vt 39.98330 -34.97660
vt 40.01670 -35.02340
vt 39.98330 -35.02340
vt 39.97590 -34.98330
vt 39.94250 -34.98330
vt 39.97590 -35.01670
vt 39.94250 -35.01670
vt 40.01670 -34.98330
vt 39.98320 -34.98330
vt 40.01670 -35.01670
vt 39.98320 -35.01670
vt 40.05750 -35.01670
vt 40.02400 -34.98330
vt 40.02400 -35.01670
vt 40.05750 -34.98330
vt 40.05750 -34.97660
vt 40.02410 -34.97660
vt 40.05750 -35.02340
vt 40.02410 -35.02340
vt 40.01680 -35.02340
vt 40.01680 -34.97660
vt 39.97600 -35.02340
vt 39.94250 -34.97660
vt 39.94250 -35.02340
vt 39.97600 -34.97660
vt 40.02410 -34.98330
vt 40.02410 -35.01670
vt 39.98330 -35.01670
vt 40.01680 -35.01670
vt 39.98330 -34.98330
vt 40.01680 -34.98330
vt 39.97600 -35.01670
vt 39.97600 -34.98330
vt 39.98320 -34.97660
vt 39.98320 -35.02340
vt 40.02400 -34.97660
vt 40.02400 -35.02340
vt 39.97590 -35.02340
vt 39.97590 -34.97660
vt 7.87043 -0.75000
vt 7.75000 -0.75000
vt 7.87043 -0.77408
vt 7.75000 -0.77408
vt 7.85221 -0.75000
vt 7.85221 -0.87043
vt 7.75000 -0.87043
vt 7.85221 -0.77408
vt 3.62043 -3.00000
vt 3.50000 -3.00000
vt 3.62043 -3.05352
vt 3.50000 -3.05352
vt 3.60221 -3.00000
vt 3.60221 -3.12043
vt 3.50000 -3.12043
vt 3.60221 -3.05352
vt 5.87043 -5.75000
vt 5.75000 -5.75000
vt 5.87043 -5.77409
vt 5.75000 -5.77409
vt 5.85221 -5.75000
vt 5.85221 -5.87043
vt 5.75000 -5.87043
vt 5.85221 -5.77409
vt 58.01670 -7.02342
vt 57.98330 -6.97658
vt 57.98330 -7.02341
vt 58.01670 -6.97658
vt 57.98330 -7.02342
vt 58.05750 -7.01673
vt 58.02400 -6.98328
vt 58.02400 -7.01673
vt 58.05750 -6.98328
vt 58.01670 -6.98327
vt 57.98320 -6.98327
vt 58.01670 -7.01669
vt 57.98320 -7.01669
vt 57.97590 -7.01669
vt 57.94250 -6.98328
vt 57.94250 -7.01669
vt 57.97590 -6.98328
vt 57.97600 -7.02341
vt 57.94250 -6.97658
vt 57.94250 -7.02341
vt 57.97600 -6.97658
vt 58.01680 -7.02342
vt 58.01680 -6.97658
vt 58.05750 -7.02341
vt 58.02410 -6.97658
vt 58.02410 -7.02341
vt 58.05750 -6.97658
vt 58.01670 -7.02341
vt 57.94250 -7.01673
vt 57.97600 -7.01673
vt 57.94250 -6.98327
vt 57.97600 -6.98327
vt 57.98330 -7.01669
vt 58.01680 -7.01669
vt 57.98330 -6.98327
vt 58.01680 -6.98327
vt 58.02410 -6.98327
vt 58.05750 -7.01669
vt 58.05750 -6.98327
vt 58.02410 -7.01669
vt 58.05750 -7.02342
vt 58.02400 -6.97658
vt 58.02400 -7.02342
vt 57.98320 -6.97658
vt 57.98320 -7.02342
vt 57.97590 -7.02342
vt 57.94250 -7.02342
vt 57.97590 -6.97658
vt 4.62043 0.50000
vt 4.50000 0.50000
vt 4.62043 0.44648
vt 4.50000 0.44648
vt 4.60221 0.50000
vt 4.60221 0.37957
vt 4.50000 0.37957
vt 4.60221 0.44648
vt 4.12043 -6.50000
vt 4.00000 -6.50000
vt 4.12043 -6.52409
vt 4.00000 -6.52409
vt 4.10221 -6.50000
vt 4.10221 -6.62043
vt 4.00000 -6.62043
vt 4.10221 -6.52409
vt 18.01670 -8.97658
vt 17.98330 -8.97658
vt 18.01670 -9.02342
vt 17.98330 -9.02342
vt 18.01670 -8.97659
vt 17.97580 -8.98328
vt 17.94240 -8.98328
vt 17.97580 -9.01669
vt 17.94240 -9.01669
vt 18.01670 -8.98327
vt 17.98320 -8.98327
vt 18.01670 -9.01669
vt 17.98320 -9.01669
vt 18.05760 -9.01673
vt 18.02400 -8.98328
vt 18.02400 -9.01673
vt 18.05760 -8.98328
vt 18.05760 -8.97658
vt 18.02420 -8.97658
vt 18.05760 -9.02342
vt 18.02420 -9.02342
vt 18.01680 -9.02342
vt 18.01680 -8.97658
vt 17.97600 -9.02342
vt 17.94240 -8.97658
vt 17.94240 -9.02342
vt 17.97600 -8.97658
vt 17.98330 -8.97659
vt 18.02420 -8.98327
vt 18.05760 -9.01669
vt 18.05760 -8.98327
vt 18.02420 -9.01669
vt 17.98330 -9.01669
vt 18.01680 -9.01669
vt 17.98330 -8.98327
vt 18.01680 -8.98327
vt 17.94240 -8.98327
vt 17.97600 -9.01673
vt 17.97600 -8.98327
vt 17.94240 -9.01673
vt 18.02400 -8.97658
vt 18.02400 -9.02342
vt 17.97580 -9.02342
vt 17.97580 -8.97658
vt 17.98320 -8.97659
vt 17.98320 -9.02342
vt 1.87043 -5.50000
vt 1.75000 -5.50000
vt 1.87043 -5.55352
vt 1.75000 -5.55352
vt 1.85221 -5.50000
vt 1.85221 -5.62043
vt 1.75000 -5.62043
vt 1.85221 -5.55352
vt 2.37043 -5.00000
vt 2.25000 -5.00000
vt 2.37043 -5.02409
vt 2.25000 -5.02409
vt 2.35221 -5.00000
vt 2.35221 -5.12043
vt 2.25000 -5.12043
vt 2.35221 -5.02409
vt 50.01670 -58.97660
vt 49.98330 -58.97660
vt 50.01670 -59.02340
vt 49.98330 -59.02340
vt 49.97580 -58.98330
vt 49.94250 -58.98330
vt 49.97580 -59.01670
vt 49.94250 -59.01670
vt 50.01670 -58.98330
vt 49.98320 -58.98330
vt 50.01670 -59.01670
vt 49.98320 -59.01670
vt 50.05750 -59.01670
vt 50.02400 -58.98330
vt 50.02400 -59.01670
vt 50.05750 -58.98330
vt 50.05750 -58.97660
vt 50.02420 -58.97660
vt 50.05750 -59.02340
vt 50.02420 -59.02340
vt 50.01680 -59.02340
vt 50.01680 -58.97660
vt 49.97600 -59.02340
vt 49.94250 -58.97660
vt 49.94250 -59.02340
vt 49.97600 -58.97660
vt 50.02420 -58.98330
vt 50.02420 -59.01670
vt 49.98330 -59.01670
vt 50.01680 -59.01670
vt 49.98330 -58.98330
vt 50.01680 -58.98330
vt 49.97600 -59.01670
vt 49.97600 -58.98330
vt 50.02400 -58.97660
vt 50.02400 -59.02340
vt 49.97580 -59.02340
vt 49.97580 -58.97660
vt 49.98320 -58.97660
vt 49.98320 -59.02340
vt 5.12043 0.25000
vt 5.00000 0.25000
vt 5.12043 0.19648
vt 5.00000 0.19648
vt 5.10221 0.25000
vt 5.10221 0.12957
vt 5.00000 0.12957
vt 5.10221 0.19648
vt 0.94402 -1.75000
vt 0.75000 -1.75000
vt 0.94402 -1.86507
vt 0.75000 -1.86507
vt 0.80352 -1.75000
vt 0.80352 -1.94402
vt 0.75000 -1.94402
vt 0.80352 -1.86507
vt 1.69402 0.75000
vt 1.50000 0.75000
vt 1.69402 0.63493
vt 1.50000 0.63493
vt 1.56021 0.75000
vt 1.56021 0.55598
vt 1.50000 0.55598
vt 1.56021 0.63493
vt 0.55776 -4.25000
vt 0.25000 -4.25000
vt 0.55776 -4.43733
vt 0.25000 -4.43733
vt 0.31690 -4.25000
vt 0.31690 -4.55776
vt 0.25000 -4.55776
vt 0.31690 -4.43733
vt 8.05776 -2.00000
vt 7.75000 -2.00000
vt 8.05776 -2.18733
vt 7.75000 -2.18733
vt 7.85705 -2.00000
vt 7.85705 -2.30776
vt 7.75000 -2.30776
vt 7.85705 -2.18733
vt 5.39050 0.75000
vt 5.25000 0.75000
vt 5.39050 0.68310
vt 5.25000 0.68310
vt 5.29014 0.75000
vt 5.29014 0.60950
vt 5.25000 0.60950
vt 5.29014 0.68310
vt 3.39050 -6.75000
vt 3.25000 -6.75000
vt 3.39050 -6.81690
vt 3.25000 -6.81690
vt 3.29014 -6.75000
vt 3.29014 -6.89050
vt 3.25000 -6.89050
vt 3.29014 -6.81690
vt 4.63381 -5.25000
vt 4.50000 -5.25000
vt 4.63381 -5.34366
vt 4.50000 -5.34366
vt 4.89473 -5.25000
vt 4.89473 -5.38381
vt 4.50000 -5.38381
vt 4.89473 -5.34366
vt 2.48543 -6.50000
vt 2.25000 -6.50000
vt 2.48543 -6.59366
vt 2.25000 -6.59366
vt 2.66058 -6.50000
vt 2.66058 -6.73543
vt 2.25000 -6.73543
vt 2.66058 -6.59366
vt 0.65142 -6.25000
vt 0.25000 -6.25000
vt 0.65142 -6.38381
vt 0.25000 -6.38381
vt 0.68487 -6.25000
vt 0.68487 -6.65142
vt 0.25000 -6.65142
vt 0.68487 -6.38381
vt 1.48543 -1.25000
vt 1.25000 -1.25000
vt 1.48543 -1.51761
vt 1.25000 -1.51761
vt 1.66058 -1.25000
vt 1.66058 -1.48543
vt 1.25000 -1.48543
vt 1.66058 -1.51761
vt 6.38381 -3.00000
vt 6.25000 -3.00000
vt 6.38381 -3.24085
vt 6.25000 -3.24085
vt 6.64473 -3.00000
vt 6.64473 -3.13381
vt 6.25000 -3.13381
vt 6.64473 -3.24085
vt 3.15142 -6.00000
vt 2.75000 -6.00000
vt 3.15142 -6.25487
vt 2.75000 -6.25487
vt 3.18487 -6.00000
vt 3.18487 -6.40142
vt 2.75000 -6.40142
vt 3.18487 -6.25487
vt 1.63381 -4.00000
vt 1.50000 -4.00000
vt 1.63381 -4.20071
vt 1.50000 -4.20071
vt 1.60705 -4.00000
vt 1.60705 -4.13381
vt 1.50000 -4.13381
vt 1.60705 -4.20071
vt 6.13381 -1.75000
vt 6.00000 -1.75000
vt 6.13381 -1.95071
vt 6.00000 -1.95071
vt 6.10705 -1.75000
vt 6.10705 -1.88381
vt 6.00000 -1.88381
vt 6.10705 -1.95071
vt 6.35705 -2.25000
vt 6.25000 -2.25000
vt 6.35705 -2.41057
vt 6.25000 -2.41057
vt 6.34366 -2.25000
vt 6.34366 -2.35705
vt 6.25000 -2.35705
vt 6.34366 -2.41057
vt 4.88381 -1.50000
vt 4.75000 -1.50000
vt 4.88381 -1.70071
vt 4.75000 -1.70071
vt 4.85705 -1.50000
vt 4.85705 -1.63381
vt 4.75000 -1.63381
vt 4.85705 -1.70071
vt 7.85705 -2.50000
vt 7.75000 -2.50000
vt 7.85705 -2.66057
vt 7.75000 -2.66057
vt 7.84366 -2.50000
vt 7.84366 -2.60705
vt 7.75000 -2.60705
vt 7.84366 -2.66057
vt 6.60705 -5.00000
vt 6.50000 -5.00000
vt 6.60705 -5.16057
vt 6.50000 -5.16057
vt 6.59366 -5.00000
vt 6.59366 -5.10705
vt 6.50000 -5.10705
vt 6.59366 -5.16057
vt 4.63381 -4.00000
vt 4.50000 -4.00000
vt 4.63381 -4.20071
vt 4.50000 -4.20071
vt 4.60705 -4.00000
vt 4.60705 -4.13381
vt 4.50000 -4.13381
vt 4.60705 -4.20071
vt 1.60705 -3.25000
vt 1.50000 -3.25000
vt 1.60705 -3.41057
vt 1.50000 -3.41057
vt 1.59366 -3.25000
vt 1.59366 -3.35705
vt 1.50000 -3.35705
vt 1.59366 -3.41057
vn 0.9921 -0.0787 0.1181
vn 0.9685 -0.1102 0.2362
vn 0.9055 -0.1102 0.4094
vn 0.9685 0.1102 -0.2362
vn 0.9055 0.1102 -0.4094
vn 0.9921 0.0787 -0.1181
vn -0.0709 0.7559 0.6457
vn 0.0709 0.7559 0.6457
vn 0.0000 0.8268 0.5591
vn -0.1260 0.8504 0.5118
vn 0.1260 0.8504 0.5118
vn -0.2520 -0.6457 0.7244
vn 0.2520 -0.6457 0.7244
vn -0.9921 -0.0787 0.1181
vn -0.9685 -0.1102 0.2362
vn -0.9055 -0.1102 0.4094
vn -0.9685 0.1102 -0.2362
vn -0.9055 0.1102 -0.4094
vn -0.9921 0.0787 -0.1181
vn -0.1260 -0.8504 -0.5118
vn 0.1260 -0.8504 -0.5118
vn 0.0709 -0.7559 -0.6457
vn -0.0709 -0.7559 -0.6457
vn 0.0000 -0.8268 -0.5591
vn 0.1417 0.5512 -0.8189
vn -0.1417 0.5512 -0.8189
vn -0.4016 0.5118 -0.7559
vn 0.4016 0.5118 -0.7559
vn 0.2520 0.6457 -0.7244
vn -0.2520 0.6457 -0.7244
vn 1.0000 0.0000 0.0000
vn 0.0000 1.0000 0.0000
vn 0.0000 0.8976 -0.4409
vn 0.0000 0.7795 -0.6299
vn 0.0000 0.4409 0.8976
vn 0.0000 0.6299 0.7795
vn 0.0000 0.0000 1.0000
vn -1.0000 0.0000 0.0000
vn 0.0000 -0.7795 0.6299
vn 0.0000 -0.6299 -0.7795
vn 0.0000 -0.4409 -0.8976
vn 0.0000 0.0000 -1.0000
vn 0.0000 0.8110 -0.5906
vn 0.0000 0.5906 0.8110
vn 0.0000 -0.8110 0.5906
vn 0.0000 -0.5906 -0.8110
vn 0.0000 0.9685 0.2598
vn 0.0000 -0.2598 0.9685
vn 0.0000 -0.9685 -0.2598
vn 0.0000 0.2598 -0.9685
vn 0.0000 0.9843 -0.1732
vn 0.0000 0.1732 0.9843
vn 0.0000 -0.9843 0.1732
vn 0.0000 -0.1732 -0.9843
vn 0.0000 0.9291 -0.3780
vn 0.0000 0.3780 0.9291
vn 0.0000 -0.9291 0.3780
vn 0.0000 -0.3780 -0.9291
vn 0.0000 -1.0000 0.0000
vn 0.0000 0.7559 -0.6535
vn 0.0000 0.6535 0.7559
vn 0.0000 -0.7559 0.6535
vn 0.0000 -0.6535 -0.7559
vn 0.0000 -0.8976 0.4409
vn 0.0000 0.9213 -0.3937
vn 0.0000 0.3937 0.9213
vn 0.0000 -0.9213 0.3937
vn 0.0000 -0.3937 -0.9213
vn 0.0000 1.0000 0.0866
vn 0.0000 -0.0866 1.0000
vn 0.0000 -1.0000 -0.0866
vn 0.0000 0.0866 -1.0000
vn 0.0000 1.0000 -0.0709
vn 0.0000 0.0709 1.0000
vn 0.0000 -1.0000 0.0709
vn 0.0000 -0.0709 -1.0000
vn 0.0000 0.9528 0.2913
vn 0.0000 -0.2913 0.9528
vn 0.0000 -0.9528 -0.2913
vn 0.0000 0.2913 -0.9528
vn 0.0000 0.9055 -0.4252
vn 0.0000 0.4252 0.9055
vn 0.0000 -0.9055 0.4252
vn 0.0000 -0.4252 -0.9055
vn 0.0000 0.9921 0.1417
vn 0.0000 -0.1417 0.9921
vn 0.0000 -0.9921 -0.1417
vn 0.0000 0.1417 -0.9921
vn 0.0000 0.9921 -0.1024
vn 0.0000 0.1024 0.9921
vn 0.0000 -0.9921 0.1024
vn 0.0000 -0.1024 -0.9921

o head
usemtl c_756c62
f 1/1/1 2/2/1 3/3/1
f 1/1/1 3/3/1 4/4/1
f 5/5/2 6/6/2 7/7/2
f 7/7/2 6/6/2 8/8/2
f 9/9/3 10/10/3 11/11/3
f 12/12/3 11/11/3 10/10/3
f 13/13/4 14/14/4 15/15/4
f 14/14/4 13/13/4 16/16/4
f 17/17/5 18/18/5 19/19/5
f 20/20/5 19/19/5 18/18/5
f 21/21/6 22/22/6 23/23/6
f 21/21/6 23/23/6 24/24/6
f 5/25/7 25/26/7 26/27/7
f 25/26/7 5/25/7 7/28/7
f 27/29/8 16/30/8 28/31/8
f 28/31/8 16/30/8 13/32/8
f 2/33/9 29/34/9 30/35/9
f 1/36/9 29/34/9 2/33/9
f 22/37/9 31/38/9 32/39/9
f 31/38/9 22/37/9 21/40/9
f 10/41/10 9/42/10 33/43/10
f 34/44/10 33/43/10 9/42/10
f 35/45/11 36/46/11 20/47/11
f 19/48/11 20/47/11 36/46/11
f 6/49/12 5/50/12 26/51/12
f 6/49/12 26/51/12 37/52/12
f 16/53/13 27/54/13 14/55/13
f 14/55/13 27/54/13 38/56/13
f 32/57/14 39/58/14 40/59/14
f 39/58/14 32/57/14 31/60/14
f 28/61/15 41/62/15 27/63/15
f 38/64/15 27/63/15 41/62/15
f 36/65/16 35/66/16 42/67/16
f 43/68/16 42/67/16 35/66/16
f 25/69/17 44/70/17 26/71/17
f 37/72/17 26/71/17 44/70/17
f 33/73/18 34/74/18 45/75/18
f 46/76/18 45/75/18 34/74/18
f 30/77/19 47/78/19 48/79/19
f 47/78/19 30/77/19 29/80/19
f 42/81/20 43/82/20 17/83/20
f 18/84/20 17/83/20 43/82/20
f 11/85/21 12/86/21 46/87/21
f 45/88/21 46/87/21 12/86/21
f 6/89/22 37/90/22 8/91/22
f 44/92/22 8/91/22 37/90/22
f 15/93/23 14/94/23 38/95/23
f 15/93/23 38/95/23 41/96/23
f 48/97/24 47/98/24 4/99/24
f 4/99/24 3/100/24 48/97/24
f 24/101/24 40/102/24 39/103/24
f 24/101/24 23/104/24 40/102/24
f 29/105/25 1/106/25 47/107/25
f 47/107/25 1/106/25 4/108/25
f 39/109/26 21/110/26 24/111/26
f 31/112/26 21/110/26 39/109/26
f 35/113/27 22/114/27 32/115/27
f 35/113/27 20/116/27 22/114/27
f 20/116/27 23/117/27 22/114/27
f 43/118/27 35/113/27 32/115/27
f 43/118/27 32/115/27 40/119/27
f 18/120/27 40/119/27 23/117/27
f 18/120/27 43/118/27 40/119/27
f 20/116/27 18/120/27 23/117/27
f 2/121/28 9/122/28 11/123/28
f 2/121/28 30/124/28 9/122/28
f 3/125/28 2/121/28 11/123/28
f 30/124/28 34/126/28 9/122/28
f 11/123/28 48/127/28 3/125/28
f 30/124/28 48/127/28 34/126/28
f 11/123/28 46/128/28 48/127/28
f 48/127/28 46/128/28 34/126/28
f 25/129/29 7/130/29 10/131/29
f 25/129/29 10/131/29 33/132/29
f 10/131/29 7/130/29 12/133/29
f 7/130/29 8/134/29 12/133/29
f 8/134/29 45/135/29 12/133/29
f 44/136/29 33/132/29 45/135/29
f 8/134/29 44/136/29 45/135/29
f 44/136/29 25/129/29 33/132/29
f 15/137/30 41/138/30 42/139/30
f 42/139/30 41/138/30 28/140/30
f 15/137/30 42/139/30 17/141/30
f 36/142/30 42/139/30 28/140/30
f 17/141/30 19/143/30 15/137/30
f 36/142/30 28/140/30 13/144/30
f 19/143/30 13/144/30 15/137/30
f 19/143/30 36/142/30 13/144/30
f 49/145/31 50/146/31 51/147/31
f 52/148/31 50/146/31 49/145/31
f 53/149/31 54/150/31 55/151/31
f 56/152/31 55/151/31 54/150/31
f 57/153/31 58/154/31 59/155/31
f 58/154/31 57/153/31 60/156/31
f 61/157/32 57/158/32 62/159/32
f 59/160/32 62/159/32 57/158/32
f 63/157/33 64/159/33 65/161/33
f 54/162/33 65/161/33 64/159/33
f 63/157/33 65/161/33 66/163/33
f 54/162/33 64/159/33 58/160/33
f 63/157/33 66/163/33 56/164/33
f 56/164/33 54/162/33 58/160/33
f 60/158/33 63/157/33 56/164/33
f 56/164/33 58/160/33 60/158/33
f 67/165/34 68/166/34 69/167/34
f 51/168/34 68/166/34 67/165/34
f 70/169/34 67/165/34 69/167/34
f 51/168/34 67/165/34 53/170/34
f 69/167/34 55/171/34 70/169/34
f 53/170/34 55/171/34 51/168/34
f 69/167/34 49/172/34 55/171/34
f 55/171/34 49/172/34 51/168/34
f 66/173/35 70/174/35 56/175/35
f 55/176/35 56/175/35 70/174/35
f 69/177/36 71/178/36 52/179/36
f 49/180/36 69/177/36 52/179/36
f 61/181/37 63/182/37 60/183/37
f 61/181/37 60/183/37 57/184/37
f 72/185/38 71/186/38 68/187/38
f 68/187/38 71/186/38 69/188/38
f 65/189/38 67/190/38 66/191/38
f 70/192/38 66/191/38 67/190/38
f 63/193/38 62/194/38 64/195/38
f 62/194/38 63/193/38 61/196/38
f 71/197/39 72/198/39 50/199/39
f 52/200/39 71/197/39 50/199/39
f 68/201/40 51/202/40 72/203/40
f 50/204/40 72/203/40 51/202/40
f 67/205/41 65/206/41 53/207/41
f 54/208/41 53/207/41 65/206/41
f 62/209/42 59/210/42 64/211/42
f 64/211/42 59/210/42 58/212/42
f 73/213/31 74/214/31 75/215/31
f 75/215/31 74/214/31 76/216/31
f 77/217/43 74/214/43 78/218/43
f 78/218/43 74/214/43 73/219/43
f 74/217/44 77/214/44 76/220/44
f 76/220/44 77/214/44 79/216/44
f 77/213/38 78/214/38 79/215/38
f 79/215/38 78/214/38 80/216/38
f 80/217/45 75/214/45 79/218/45
f 79/218/45 75/214/45 76/219/45
f 78/217/46 73/214/46 80/220/46
f 80/220/46 73/214/46 75/216/46
usemtl c_f2f3f3
f 81/221/31 82/222/31 83/223/31
f 81/221/31 83/223/31 84/224/31
f 85/225/31 86/226/31 87/227/31
f 85/225/31 87/227/31 88/228/31
f 89/226/31 90/224/31 91/227/31
f 92/221/31 90/224/31 89/226/31
f 93/221/31 94/224/31 95/229/31
f 96/230/31 95/229/31 94/224/31
f 97/231/31 98/232/31 99/226/31
f 100/227/31 99/226/31 98/232/31
f 101/222/31 102/223/31 103/221/31
f 103/221/31 102/223/31 104/224/31
f 105/226/31 106/227/31 107/225/31
f 107/225/31 106/227/31 108/228/31
f 109/233/47 85/234/47 110/235/47
f 110/235/47 85/234/47 88/236/47
f 111/237/47 107/238/47 112/239/47
f 112/239/47 107/238/47 108/240/47
f 113/241/47 89/242/47 114/243/47
f 114/243/47 89/242/47 91/244/47
f 115/245/47 99/246/47 116/247/47
f 116/247/47 99/246/47 100/248/47
f 117/249/47 118/250/47 98/251/47
f 98/251/47 97/252/47 117/249/47
f 119/253/47 103/254/47 104/255/47
f 120/256/47 103/254/47 119/253/47
f 121/257/47 81/258/47 122/259/47
f 122/259/47 81/258/47 84/260/47
f 101/261/48 120/262/48 123/263/48
f 101/261/48 103/264/48 120/262/48
f 82/265/48 81/266/48 121/267/48
f 82/265/48 121/267/48 124/268/48
f 86/269/48 109/270/48 125/271/48
f 86/269/48 85/272/48 109/270/48
f 126/273/48 92/274/48 127/275/48
f 113/276/48 92/274/48 89/277/48
f 117/278/48 92/274/48 113/276/48
f 127/275/48 92/274/48 117/278/48
f 97/279/48 127/275/48 117/278/48
f 127/275/48 97/279/48 95/280/48
f 97/279/48 115/281/48 95/280/48
f 115/281/48 97/279/48 99/282/48
f 95/280/48 115/281/48 93/283/48
f 128/284/48 93/283/48 115/281/48
f 105/285/48 107/286/48 111/287/48
f 105/285/48 111/287/48 129/288/48
f 123/289/38 120/290/38 119/291/38
f 130/292/38 123/289/38 119/291/38
f 129/293/38 111/294/38 112/295/38
f 131/296/38 129/293/38 112/295/38
f 132/291/38 128/290/38 116/296/38
f 116/296/38 128/290/38 115/293/38
f 127/297/38 133/298/38 126/290/38
f 134/291/38 126/290/38 133/298/38
f 113/293/38 114/296/38 117/299/38
f 118/300/38 117/299/38 114/296/38
f 124/289/38 121/290/38 122/291/38
f 135/292/38 124/289/38 122/291/38
f 125/293/38 109/294/38 110/295/38
f 136/296/38 125/293/38 110/295/38
f 102/301/49 101/302/49 123/303/49
f 102/301/49 123/303/49 130/304/49
f 83/305/49 82/306/49 124/307/49
f 83/305/49 124/307/49 135/308/49
f 126/309/49 90/310/49 92/311/49
f 90/310/49 126/309/49 134/312/49
f 94/313/49 128/314/49 132/315/49
f 128/314/49 94/313/49 93/316/49
f 95/317/49 96/318/49 133/319/49
f 133/319/49 127/320/49 95/317/49
f 87/321/49 125/322/49 136/323/49
f 87/321/49 86/324/49 125/322/49
f 106/325/49 105/326/49 129/327/49
f 106/325/49 129/327/49 131/328/49
f 104/329/50 102/330/50 130/331/50
f 119/332/50 104/329/50 130/331/50
f 84/333/50 83/334/50 135/335/50
f 122/336/50 84/333/50 135/335/50
f 88/337/50 87/338/50 136/339/50
f 110/340/50 88/337/50 136/339/50
f 91/341/50 118/342/50 114/343/50
f 90/344/50 134/345/50 91/341/50
f 133/346/50 91/341/50 134/345/50
f 118/342/50 91/341/50 133/346/50
f 96/347/50 118/342/50 133/346/50
f 118/342/50 96/347/50 98/348/50
f 96/347/50 132/349/50 98/348/50
f 94/350/50 132/349/50 96/347/50
f 98/348/50 132/349/50 100/351/50
f 100/351/50 132/349/50 116/352/50
f 112/353/50 108/354/50 131/355/50
f 108/354/50 106/356/50 131/355/50
usemtl c_506d54
f 137/357/31 138/358/31 139/359/31
f 139/359/31 138/358/31 140/360/31
f 141/357/31 142/361/31 143/362/31
f 144/358/31 141/357/31 143/362/31
f 145/360/31 146/363/31 147/364/31
f 148/359/31 145/360/31 147/364/31
f 149/364/31 150/363/31 151/365/31
f 152/366/31 149/364/31 151/365/31
f 153/362/31 154/361/31 155/367/31
f 156/368/31 153/362/31 155/367/31
f 152/369/47 151/370/47 157/371/47
f 158/372/47 152/369/47 157/371/47
f 150/373/47 147/374/47 146/375/47
f 147/374/47 150/373/47 149/376/47
f 159/377/47 160/378/47 161/379/47
f 162/380/47 160/378/47 159/377/47
f 148/381/47 139/382/47 145/383/47
f 145/383/47 139/382/47 140/384/47
f 163/385/47 164/386/47 165/387/47
f 164/386/47 163/385/47 166/388/47
f 148/389/48 137/390/48 139/391/48
f 141/392/48 137/390/48 148/389/48
f 148/389/48 149/393/48 141/392/48
f 149/393/48 148/389/48 147/394/48
f 141/392/48 149/393/48 142/395/48
f 154/396/48 142/395/48 149/393/48
f 154/396/48 149/393/48 158/397/48
f 149/393/48 152/398/48 158/397/48
f 154/396/48 158/397/48 155/399/48
f 160/400/48 155/399/48 158/397/48
f 160/400/48 167/401/48 155/399/48
f 167/401/48 168/402/48 155/399/48
f 162/403/48 167/401/48 160/400/48
f 163/404/48 167/401/48 162/403/48
f 169/405/48 167/401/48 163/404/48
f 170/406/48 167/401/48 169/405/48
f 165/407/48 169/405/48 163/404/48
f 169/405/48 165/407/48 171/408/48
f 172/409/38 171/410/38 164/411/38
f 164/411/38 171/410/38 165/412/38
f 169/410/38 173/409/38 170/413/38
f 173/409/38 174/414/38 170/413/38
f 163/412/38 162/415/38 159/416/38
f 166/411/38 163/412/38 159/416/38
f 168/417/38 167/413/38 175/418/38
f 167/413/38 176/414/38 175/418/38
f 161/416/38 160/415/38 158/419/38
f 157/420/38 161/416/38 158/419/38
f 156/421/49 155/422/49 168/423/49
f 175/424/49 156/421/49 168/423/49
f 154/425/49 143/426/49 142/427/49
f 143/426/49 154/425/49 153/428/49
f 167/429/49 170/430/49 176/431/49
f 176/431/49 170/430/49 174/432/49
f 141/433/49 138/434/49 137/435/49
f 138/434/49 141/433/49 144/436/49
f 171/437/49 173/438/49 169/439/49
f 173/438/49 171/437/49 172/440/49
f 144/441/50 140/442/50 138/443/50
f 140/442/50 144/441/50 145/444/50
f 144/441/50 153/445/50 145/444/50
f 143/446/50 153/445/50 144/441/50
f 145/444/50 153/445/50 146/447/50
f 146/447/50 153/445/50 150/448/50
f 150/448/50 153/445/50 175/449/50
f 153/445/50 156/450/50 175/449/50
f 150/448/50 175/449/50 151/451/50
f 176/452/50 151/451/50 175/449/50
f 176/452/50 161/453/50 151/451/50
f 161/453/50 157/454/50 151/451/50
f 176/452/50 174/455/50 161/453/50
f 173/456/50 161/453/50 174/455/50
f 166/457/50 161/453/50 173/456/50
f 161/453/50 166/457/50 159/458/50
f 173/456/50 172/459/50 166/457/50
f 166/457/50 172/459/50 164/460/50
f 177/461/31 178/462/31 179/463/31
f 179/463/31 178/462/31 180/464/31
f 181/465/51 178/462/51 182/466/51
f 182/466/51 178/462/51 177/467/51
f 178/465/52 181/462/52 180/468/52
f 180/468/52 181/462/52 183/464/52
f 181/461/38 182/462/38 183/463/38
f 183/463/38 182/462/38 184/464/38
f 184/465/53 179/462/53 183/466/53
f 183/466/53 179/462/53 180/467/53
f 182/465/54 177/462/54 184/468/54
f 184/468/54 177/462/54 179/464/54
f 185/469/31 186/470/31 187/471/31
f 187/471/31 186/470/31 188/472/31
f 189/473/51 186/470/51 190/474/51
f 190/474/51 186/470/51 185/475/51
f 186/473/52 189/470/52 188/476/52
f 188/476/52 189/470/52 191/472/52
f 189/469/38 190/470/38 191/471/38
f 191/471/38 190/470/38 192/472/38
f 192/473/53 187/470/53 191/474/53
f 191/474/53 187/470/53 188/475/53
f 190/473/54 185/470/54 192/476/54
f 192/476/54 185/470/54 187/472/54
f 193/477/31 194/478/31 195/479/31
f 195/479/31 194/478/31 196/480/31
f 197/481/51 194/478/51 198/482/51
f 198/482/51 194/478/51 193/483/51
f 194/481/52 197/478/52 196/484/52
f 196/484/52 197/478/52 199/480/52
f 197/477/38 198/478/38 199/479/38
f 199/479/38 198/478/38 200/480/38
f 200/481/53 195/478/53 199/482/53
f 199/482/53 195/478/53 196/483/53
f 198/481/54 193/478/54 200/484/54
f 200/484/54 193/478/54 195/480/54
usemtl c_cacbd1
f 201/485/31 202/486/31 203/487/31
f 203/487/31 202/486/31 204/488/31
f 205/489/55 202/486/55 206/490/55
f 206/490/55 202/486/55 201/491/55
f 202/489/56 205/486/56 204/492/56
f 204/492/56 205/486/56 207/488/56
f 205/485/38 206/486/38 207/487/38
f 207/487/38 206/486/38 208/488/38
f 208/489/57 203/486/57 207/490/57
f 207/490/57 203/486/57 204/491/57
f 206/489/58 201/486/58 208/492/58
f 208/492/58 201/486/58 203/488/58
f 209/493/31 210/494/31 211/495/31
f 211/495/31 210/494/31 212/496/31
f 199/497/51 210/494/51 213/498/51
f 213/498/51 210/494/51 209/499/51
f 210/497/52 199/494/52 212/500/52
f 212/500/52 199/494/52 214/496/52
f 199/493/38 213/494/38 214/495/38
f 214/495/38 213/494/38 215/496/38
f 215/497/53 211/494/53 214/498/53
f 214/498/53 211/494/53 212/499/53
f 213/497/54 209/494/54 215/500/54
f 215/500/54 209/494/54 211/496/54
f 216/501/31 217/502/31 218/503/31
f 219/504/31 217/502/31 216/501/31
f 220/505/31 221/506/31 222/507/31
f 223/508/31 221/506/31 220/505/31
f 224/509/51 219/510/51 225/511/51
f 217/512/51 219/510/51 224/509/51
f 226/513/51 223/514/51 227/515/51
f 221/516/51 223/514/51 226/513/51
f 218/517/52 224/518/52 228/519/52
f 217/520/52 224/518/52 218/517/52
f 222/521/52 226/522/52 229/523/52
f 221/524/52 226/522/52 222/521/52
f 228/525/38 225/526/38 230/527/38
f 224/528/38 225/526/38 228/525/38
f 229/529/38 227/530/38 231/531/38
f 226/532/38 227/530/38 229/529/38
f 228/533/53 230/534/53 218/535/53
f 218/535/53 230/534/53 216/536/53
f 229/537/53 231/538/53 222/539/53
f 222/539/53 231/538/53 220/540/53
f 227/541/54 223/542/54 231/543/54
f 231/543/54 223/542/54 220/544/54
f 230/545/54 219/546/54 216/547/54
f 225/548/54 219/546/54 230/545/54
usemtl c_111111
f 232/549/31 233/550/31 221/551/31
f 233/550/31 222/552/31 221/551/31
f 216/553/31 222/552/31 233/550/31
f 221/551/31 223/554/31 232/549/31
f 234/555/31 232/549/31 223/554/31
f 232/556/51 234/557/51 235/558/51
f 236/559/51 235/558/51 234/557/51
f 233/560/52 235/561/52 237/562/52
f 235/561/52 233/560/52 232/563/52
f 237/562/52 216/564/52 233/560/52
f 216/564/52 237/562/52 230/565/52
f 226/566/38 237/567/38 236/568/38
f 235/569/38 236/568/38 237/567/38
f 226/566/38 236/568/38 227/570/38
f 226/566/38 230/571/38 237/567/38
f 230/571/38 226/566/38 229/572/38
f 216/573/53 230/574/53 229/575/53
f 222/576/53 216/573/53 229/575/53
f 226/577/53 227/578/53 221/579/53
f 221/579/53 227/578/53 223/580/53
f 234/581/54 227/582/54 236/583/54
f 223/584/54 227/582/54 234/581/54
f 221/585/54 229/586/54 226/587/54
f 229/586/54 221/585/54 222/588/54
o arm_L_Hand
usemtl c_69665c
f 238/589/31 239/590/31 240/591/31
f 240/591/31 239/590/31 241/592/31
f 242/591/31 243/590/31 244/592/31
f 245/589/31 243/590/31 242/591/31
f 246/589/31 247/590/31 248/591/31
f 248/591/31 247/590/31 249/592/31
f 250/593/32 239/594/32 251/595/32
f 251/595/32 239/594/32 238/596/32
f 252/597/32 243/598/32 253/599/32
f 253/599/32 243/598/32 245/600/32
f 254/601/32 247/602/32 246/603/32
f 255/604/32 247/602/32 254/601/32
f 239/605/37 250/606/37 241/607/37
f 241/607/37 250/606/37 256/608/37
f 244/609/37 252/590/37 257/592/37
f 243/610/37 252/590/37 244/609/37
f 249/611/37 255/612/37 258/613/37
f 247/614/37 255/612/37 249/611/37
f 255/589/38 254/590/38 258/591/38
f 258/591/38 254/590/38 259/592/38
f 257/591/38 253/590/38 260/592/38
f 252/589/38 253/590/38 257/591/38
f 250/589/38 251/590/38 256/591/38
f 256/591/38 251/590/38 261/592/38
f 256/615/59 240/601/59 241/604/59
f 261/616/59 240/601/59 256/615/59
f 260/617/59 242/618/59 257/619/59
f 257/619/59 242/618/59 244/620/59
f 258/594/59 248/621/59 249/622/59
f 259/596/59 248/621/59 258/594/59
f 253/589/42 245/623/42 260/591/42
f 260/591/42 245/623/42 242/624/42
f 254/605/42 246/625/42 259/607/42
f 259/607/42 246/625/42 248/626/42
f 261/627/42 238/612/42 240/613/42
f 251/628/42 238/612/42 261/627/42
usemtl c_f2f3f3
f 262/629/31 263/630/31 264/631/31
f 264/631/31 263/630/31 265/632/31
f 266/633/32 263/630/32 267/634/32
f 267/634/32 263/630/32 262/635/32
f 263/633/37 266/630/37 265/636/37
f 265/636/37 266/630/37 268/632/37
f 266/629/38 267/630/38 268/631/38
f 268/631/38 267/630/38 269/632/38
f 269/633/59 264/630/59 268/634/59
f 268/634/59 264/630/59 265/635/59
f 267/633/42 262/630/42 269/636/42
f 269/636/42 262/630/42 264/632/42
usemtl c_506d54
f 270/637/31 271/638/31 262/639/31
f 262/639/31 271/638/31 263/640/31
f 272/641/32 271/638/32 273/642/32
f 273/642/32 271/638/32 270/643/32
f 271/641/37 272/638/37 263/644/37
f 263/644/37 272/638/37 266/640/37
f 272/637/38 273/638/38 266/639/38
f 266/639/38 273/638/38 267/640/38
f 267/641/59 262/638/59 266/642/59
f 266/642/59 262/638/59 263/643/59
f 273/641/42 270/638/42 267/644/42
f 267/644/42 270/638/42 262/640/42
o leg_L_Hand
usemtl c_f2f3f3
f 274/645/31 275/646/31 276/647/31
f 276/647/31 275/646/31 277/648/31
f 278/649/32 275/646/32 279/650/32
f 279/650/32 275/646/32 274/651/32
f 275/649/37 278/646/37 277/652/37
f 277/652/37 278/646/37 280/648/37
f 278/645/38 279/646/38 280/647/38
f 280/647/38 279/646/38 281/648/38
f 281/649/59 276/646/59 280/650/59
f 280/650/59 276/646/59 277/651/59
f 279/649/42 274/646/42 281/652/42
f 281/652/42 274/646/42 276/648/42
usemtl c_69665c
f 282/653/31 283/654/31 284/655/31
f 285/656/31 283/654/31 282/653/31
f 286/653/31 287/654/31 288/657/31
f 289/656/31 287/654/31 286/653/31
f 290/656/31 291/654/31 292/653/31
f 292/653/31 291/654/31 293/655/31
f 294/658/32 291/659/32 290/660/32
f 295/661/32 291/659/32 294/658/32
f 296/662/32 287/663/32 297/664/32
f 297/664/32 287/663/32 289/665/32
f 298/666/32 283/667/32 285/668/32
f 299/669/32 283/667/32 298/666/32
f 293/670/37 295/671/37 300/672/37
f 291/673/37 295/671/37 293/670/37
f 288/674/37 296/654/37 301/657/37
f 287/675/37 296/654/37 288/674/37
f 284/676/37 299/677/37 302/678/37
f 283/679/37 299/677/37 284/676/37
f 300/680/38 294/654/38 303/657/38
f 295/656/38 294/654/38 300/680/38
f 301/653/38 297/654/38 304/657/38
f 296/656/38 297/654/38 301/653/38
f 302/680/38 298/654/38 305/657/38
f 299/656/38 298/654/38 302/680/38
f 303/681/59 292/682/59 300/683/59
f 300/683/59 292/682/59 293/684/59
f 304/685/59 286/686/59 301/687/59
f 301/687/59 286/686/59 288/688/59
f 302/689/59 282/690/59 284/691/59
f 305/692/59 282/690/59 302/689/59
f 303/693/42 290/694/42 292/695/42
f 294/679/42 290/694/42 303/693/42
f 297/656/42 289/696/42 304/653/42
f 304/653/42 289/696/42 286/697/42
f 305/698/42 285/671/42 282/699/42
f 298/700/42 285/671/42 305/698/42
usemtl c_506d54
f 306/701/31 307/702/31 274/703/31
f 274/703/31 307/702/31 275/704/31
f 308/705/32 307/702/32 309/706/32
f 309/706/32 307/702/32 306/707/32
f 307/705/37 308/702/37 275/708/37
f 275/708/37 308/702/37 278/704/37
f 308/701/38 309/702/38 278/703/38
f 278/703/38 309/702/38 279/704/38
f 279/705/59 274/702/59 278/706/59
f 278/706/59 274/702/59 275/707/59
f 309/705/42 306/702/42 279/708/42
f 279/708/42 306/702/42 274/704/42
o arm_R_Hand
usemtl c_f2f3f3
f 310/709/31 311/710/31 312/711/31
f 312/711/31 311/710/31 313/712/31
f 314/713/32 311/710/32 315/714/32
f 315/714/32 311/710/32 310/715/32
f 311/713/37 314/710/37 313/716/37
f 313/716/37 314/710/37 316/712/37
f 314/709/38 315/710/38 316/711/38
f 316/711/38 315/710/38 317/712/38
f 317/713/59 312/710/59 316/714/59
f 316/714/59 312/710/59 313/715/59
f 315/713/42 310/710/42 317/716/42
f 317/716/42 310/710/42 312/712/42
usemtl c_69665c
f 318/717/31 319/718/31 320/719/31
f 320/719/31 319/718/31 321/720/31
f 322/719/31 323/718/31 324/720/31
f 325/721/31 323/718/31 322/719/31
f 326/717/31 327/718/31 328/719/31
f 328/719/31 327/718/31 329/720/31
f 330/722/32 319/723/32 331/724/32
f 331/724/32 319/723/32 318/725/32
f 332/726/32 323/727/32 333/728/32
f 333/728/32 323/727/32 325/729/32
f 334/730/32 327/731/32 326/732/32
f 335/733/32 327/731/32 334/730/32
f 319/734/37 330/735/37 321/736/37
f 321/736/37 330/735/37 336/737/37
f 324/738/37 332/718/37 337/720/37
f 323/739/37 332/718/37 324/738/37
f 329/740/37 335/741/37 338/742/37
f 327/743/37 335/741/37 329/740/37
f 335/717/38 334/718/38 338/719/38
f 338/719/38 334/718/38 339/720/38
f 337/719/38 333/744/38 340/720/38
f 332/717/38 333/744/38 337/719/38
f 330/717/38 331/718/38 336/719/38
f 336/719/38 331/718/38 341/720/38
f 336/745/59 320/746/59 321/747/59
f 341/748/59 320/746/59 336/745/59
f 340/749/59 322/750/59 337/751/59
f 337/751/59 322/750/59 324/752/59
f 338/753/59 328/754/59 329/755/59
f 339/756/59 328/754/59 338/753/59
f 334/734/42 326/757/42 339/736/42
f 339/736/42 326/757/42 328/758/42
f 341/759/42 318/741/42 320/742/42
f 331/760/42 318/741/42 341/759/42
f 333/721/42 325/761/42 340/719/42
f 340/719/42 325/761/42 322/762/42
usemtl c_506d54
f 342/763/31 343/764/31 310/765/31
f 310/765/31 343/764/31 311/766/31
f 344/767/32 343/764/32 345/768/32
f 345/768/32 343/764/32 342/769/32
f 343/767/37 344/764/37 311/770/37
f 311/770/37 344/764/37 314/766/37
f 344/763/38 345/764/38 314/765/38
f 314/765/38 345/764/38 315/766/38
f 315/767/59 310/764/59 314/768/59
f 314/768/59 310/764/59 311/769/59
f 345/767/42 342/764/42 315/770/42
f 315/770/42 342/764/42 310/766/42
o leg_R_Hand
usemtl c_f2f3f3
f 346/771/31 347/772/31 348/773/31
f 348/773/31 347/772/31 349/774/31
f 350/775/32 347/772/32 351/776/32
f 351/776/32 347/772/32 346/777/32
f 347/775/37 350/772/37 349/778/37
f 349/778/37 350/772/37 352/774/37
f 350/771/38 351/772/38 352/773/38
f 352/773/38 351/772/38 353/774/38
f 353/775/59 348/772/59 352/776/59
f 352/776/59 348/772/59 349/777/59
f 351/775/42 346/772/42 353/778/42
f 353/778/42 346/772/42 348/774/42
usemtl c_69665c
f 354/779/31 355/780/31 356/781/31
f 356/781/31 355/780/31 357/782/31
f 358/781/31 359/780/31 360/782/31
f 361/779/31 359/780/31 358/781/31
f 362/779/31 363/780/31 364/781/31
f 364/781/31 363/780/31 365/782/31
f 366/783/32 355/784/32 367/785/32
f 367/785/32 355/784/32 354/786/32
f 368/787/32 359/788/32 369/789/32
f 369/789/32 359/788/32 361/790/32
f 370/791/32 363/792/32 362/793/32
f 371/794/32 363/792/32 370/791/32
f 355/795/37 366/796/37 357/797/37
f 357/797/37 366/796/37 372/798/37
f 360/799/37 368/780/37 373/782/37
f 359/800/37 368/780/37 360/799/37
f 365/801/37 371/802/37 374/803/37
f 363/804/37 371/802/37 365/801/37
f 371/779/38 370/780/38 374/781/38
f 374/781/38 370/780/38 375/782/38
f 373/781/38 369/780/38 376/782/38
f 368/779/38 369/780/38 373/781/38
f 366/779/38 367/780/38 372/781/38
f 372/781/38 367/780/38 377/782/38
f 372/805/59 356/791/59 357/794/59
f 377/806/59 356/791/59 372/805/59
f 376/807/59 358/808/59 373/809/59
f 373/809/59 358/808/59 360/810/59
f 374/784/59 364/811/59 365/812/59
f 375/786/59 364/811/59 374/784/59
f 370/795/42 362/813/42 375/797/42
f 375/797/42 362/813/42 364/814/42
f 377/815/42 354/802/42 356/803/42
f 367/816/42 354/802/42 377/815/42
f 369/779/42 361/817/42 376/781/42
f 376/781/42 361/817/42 358/818/42
usemtl c_506d54
f 378/819/31 379/820/31 346/821/31
f 346/821/31 379/820/31 347/822/31
f 380/823/32 379/820/32 381/824/32
f 381/824/32 379/820/32 378/825/32
f 379/823/37 380/820/37 347/826/37
f 347/826/37 380/820/37 350/822/37
f 380/819/38 381/820/38 350/821/38
f 350/821/38 381/820/38 351/822/38
f 351/823/59 346/820/59 350/824/59
f 350/824/59 346/820/59 347/825/59
f 381/823/42 378/820/42 351/826/42
f 351/826/42 378/820/42 346/822/42
o tail02
usemtl c_cacbd1
f 382/827/60 383/828/60 384/829/60
f 384/829/60 383/828/60 385/830/60
f 386/831/38 383/828/38 387/832/38
f 387/832/38 383/828/38 382/833/38
f 383/831/61 386/828/61 385/834/61
f 385/834/61 386/828/61 388/830/61
f 386/827/62 387/828/62 388/829/62
f 388/829/62 387/828/62 389/830/62
f 389/831/31 384/828/31 388/832/31
f 388/832/31 384/828/31 385/833/31
f 387/831/63 382/828/63 389/834/63
f 389/834/63 382/828/63 384/830/63
usemtl c_506d54
f 390/835/60 391/836/60 392/837/60
f 392/837/60 391/836/60 393/838/60
f 383/839/38 391/836/38 382/840/38
f 382/840/38 391/836/38 390/841/38
f 391/839/61 383/836/61 393/842/61
f 393/842/61 383/836/61 385/838/61
f 383/835/62 382/836/62 385/837/62
f 385/837/62 382/836/62 384/838/62
f 384/839/31 392/836/31 385/840/31
f 385/840/31 392/836/31 393/841/31
f 382/839/63 390/836/63 384/842/63
f 384/842/63 390/836/63 392/838/63
o tail01
usemtl c_cacbd1
f 394/843/33 395/844/33 396/845/33
f 396/845/33 395/844/33 397/846/33
f 398/847/38 395/844/38 399/848/38
f 399/848/38 395/844/38 394/849/38
f 395/847/35 398/844/35 397/850/35
f 397/850/35 398/844/35 400/846/35
f 398/843/64 399/844/64 400/845/64
f 400/845/64 399/844/64 401/846/64
f 401/847/31 396/844/31 400/848/31
f 400/848/31 396/844/31 397/849/31
f 399/847/41 394/844/41 401/850/41
f 401/850/41 394/844/41 396/846/41
usemtl c_506d54
f 402/851/33 403/852/33 404/853/33
f 404/853/33 403/852/33 405/854/33
f 406/855/38 403/852/38 407/856/38
f 407/856/38 403/852/38 402/857/38
f 403/855/35 406/852/35 405/858/35
f 405/858/35 406/852/35 408/854/35
f 406/851/64 407/852/64 408/853/64
f 408/853/64 407/852/64 409/854/64
f 409/855/31 404/852/31 408/856/31
f 408/856/31 404/852/31 405/857/31
f 407/855/41 402/852/41 409/858/41
f 409/858/41 402/852/41 404/854/41
o tail03
usemtl c_cacbd1
f 410/859/65 411/860/65 412/861/65
f 412/861/65 411/860/65 413/862/65
f 414/863/38 411/860/38 415/864/38
f 415/864/38 411/860/38 410/865/38
f 411/863/66 414/860/66 413/866/66
f 413/866/66 414/860/66 416/862/66
f 414/859/67 415/860/67 416/861/67
f 416/861/67 415/860/67 417/862/67
f 417/863/31 412/860/31 416/864/31
f 416/864/31 412/860/31 413/865/31
f 415/863/68 410/860/68 417/866/68
f 417/866/68 410/860/68 412/862/68
usemtl c_506d54
f 418/867/65 419/868/65 420/869/65
f 420/869/65 419/868/65 421/870/65
f 411/871/38 419/868/38 410/872/38
f 410/872/38 419/868/38 418/873/38
f 419/871/66 411/868/66 421/874/66
f 421/874/66 411/868/66 413/870/66
f 411/867/67 410/868/67 413/869/67
f 413/869/67 410/868/67 412/870/67
f 412/871/31 420/868/31 413/872/31
f 413/872/31 420/868/31 421/873/31
f 410/871/68 418/868/68 412/874/68
f 412/874/68 418/868/68 420/870/68
o torso
usemtl c_cacbd1
f 422/875/31 423/876/31 424/877/31
f 424/877/31 423/876/31 425/878/31
f 426/879/69 423/876/69 427/880/69
f 427/880/69 423/876/69 422/881/69
f 423/879/70 426/876/70 425/882/70
f 425/882/70 426/876/70 428/878/70
f 426/875/38 427/876/38 428/877/38
f 428/877/38 427/876/38 429/878/38
f 429/879/71 424/876/71 428/880/71
f 428/880/71 424/876/71 425/881/71
f 427/879/72 422/876/72 429/882/72
f 429/882/72 422/876/72 424/878/72
f 430/883/31 431/884/31 432/885/31
f 432/885/31 431/884/31 433/886/31
f 434/887/73 431/884/73 435/888/73
f 435/888/73 431/884/73 430/889/73
f 431/887/74 434/884/74 433/890/74
f 433/890/74 434/884/74 436/886/74
f 434/883/38 435/884/38 436/885/38
f 436/885/38 435/884/38 437/886/38
f 437/887/75 432/884/75 436/888/75
f 436/888/75 432/884/75 433/889/75
f 435/887/76 430/884/76 437/890/76
f 437/890/76 430/884/76 432/886/76
f 438/891/31 439/892/31 440/893/31
f 440/893/31 439/892/31 441/894/31
f 442/895/32 439/892/32 443/896/32
f 443/896/32 439/892/32 438/897/32
f 439/895/37 442/892/37 441/898/37
f 441/898/37 442/892/37 444/894/37
f 442/891/38 443/892/38 444/893/38
f 444/893/38 443/892/38 445/894/38
f 445/895/59 440/892/59 444/896/59
f 444/896/59 440/892/59 441/897/59
f 443/895/42 438/892/42 445/898/42
f 445/898/42 438/892/42 440/894/42
usemtl c_506d54
f 446/899/31 447/900/31 430/901/31
f 430/901/31 447/900/31 431/902/31
f 448/903/73 447/900/73 449/904/73
f 449/904/73 447/900/73 446/905/73
f 447/903/74 448/900/74 431/906/74
f 431/906/74 448/900/74 434/902/74
f 448/899/38 449/900/38 434/901/38
f 434/901/38 449/900/38 435/902/38
f 435/903/75 430/900/75 434/904/75
f 434/904/75 430/900/75 431/905/75
f 449/903/76 446/900/76 435/906/76
f 435/906/76 446/900/76 430/902/76
f 450/907/31 451/908/31 422/909/31
f 422/909/31 451/908/31 423/910/31
f 452/911/69 451/908/69 453/912/69
f 453/912/69 451/908/69 450/913/69
f 451/911/70 452/908/70 423/914/70
f 423/914/70 452/908/70 426/910/70
f 452/907/38 453/908/38 426/909/38
f 426/909/38 453/908/38 427/910/38
f 427/911/71 422/908/71 426/912/71
f 426/912/71 422/908/71 423/913/71
f 453/911/72 450/908/72 427/914/72
f 427/914/72 450/908/72 422/910/72
f 454/915/31 455/916/31 456/917/31
f 456/917/31 455/916/31 457/918/31
f 458/919/32 455/916/32 459/920/32
f 459/920/32 455/916/32 454/921/32
f 455/919/37 458/916/37 457/922/37
f 457/922/37 458/916/37 460/918/37
f 458/915/38 459/916/38 460/917/38
f 460/917/38 459/916/38 461/918/38
f 461/919/59 456/916/59 460/920/59
f 460/920/59 456/916/59 457/921/59
f 459/919/42 454/916/42 461/922/42
f 461/922/42 454/916/42 456/918/42
o leg_R
usemtl c_506d54
f 462/923/31 463/924/31 464/925/31
f 464/925/31 463/924/31 465/926/31
f 466/927/77 463/924/77 467/928/77
f 467/928/77 463/924/77 462/929/77
f 463/927/78 466/924/78 465/930/78
f 465/930/78 466/924/78 468/926/78
f 466/923/38 467/924/38 468/925/38
f 468/925/38 467/924/38 469/926/38
f 469/927/79 464/924/79 468/928/79
f 468/928/79 464/924/79 465/929/79
f 467/927/80 462/924/80 469/930/80
f 469/930/80 462/924/80 464/926/80
o arm_L
usemtl c_506d54
f 470/931/31 471/932/31 472/933/31
f 472/933/31 471/932/31 473/934/31
f 474/935/81 471/932/81 475/936/81
f 475/936/81 471/932/81 470/937/81
f 471/935/82 474/932/82 473/938/82
f 473/938/82 474/932/82 476/934/82
f 474/931/38 475/932/38 476/933/38
f 476/933/38 475/932/38 477/934/38
f 477/935/83 472/932/83 476/936/83
f 476/936/83 472/932/83 473/937/83
f 475/935/84 470/932/84 477/938/84
f 477/938/84 470/932/84 472/934/84
o arm_R_Lower
usemtl c_506d54
f 478/939/31 479/940/31 480/941/31
f 480/941/31 479/940/31 481/942/31
f 482/943/85 479/940/85 483/944/85
f 483/944/85 479/940/85 478/945/85
f 479/943/86 482/940/86 481/946/86
f 481/946/86 482/940/86 484/942/86
f 482/939/38 483/940/38 484/941/38
f 484/941/38 483/940/38 485/942/38
f 485/943/87 480/940/87 484/944/87
f 484/944/87 480/940/87 481/945/87
f 483/943/88 478/940/88 485/946/88
f 485/946/88 478/940/88 480/942/88
o leg_L
usemtl c_506d54
f 486/947/31 487/948/31 488/949/31
f 488/949/31 487/948/31 489/950/31
f 490/951/77 487/948/77 491/952/77
f 491/952/77 487/948/77 486/953/77
f 487/951/78 490/948/78 489/954/78
f 489/954/78 490/948/78 492/950/78
f 490/947/38 491/948/38 492/949/38
f 492/949/38 491/948/38 493/950/38
f 493/951/79 488/948/79 492/952/79
f 492/952/79 488/948/79 489/953/79
f 491/951/80 486/948/80 493/954/80
f 493/954/80 486/948/80 488/950/80
o arm_L_Lower
usemtl c_506d54
f 494/955/31 495/956/31 496/957/31
f 496/957/31 495/956/31 497/958/31
f 498/959/85 495/956/85 499/960/85
f 499/960/85 495/956/85 494/961/85
f 495/959/86 498/956/86 497/962/86
f 497/962/86 498/956/86 500/958/86
f 498/955/38 499/956/38 500/957/38
f 500/957/38 499/956/38 501/958/38
f 501/959/87 496/956/87 500/960/87
f 500/960/87 496/956/87 497/961/87
f 499/959/88 494/956/88 501/962/88
f 501/962/88 494/956/88 496/958/88
o leg_L_Lower
usemtl c_506d54
f 502/963/31 503/964/31 504/965/31
f 504/965/31 503/964/31 505/966/31
f 506/967/89 503/964/89 507/968/89
f 507/968/89 503/964/89 502/969/89
f 503/967/90 506/964/90 505/970/90
f 505/970/90 506/964/90 508/966/90
f 506/963/38 507/964/38 508/965/38
f 508/965/38 507/964/38 509/966/38
f 509/967/91 504/964/91 508/968/91
f 508/968/91 504/964/91 505/969/91
f 507/967/92 502/964/92 509/970/92
f 509/970/92 502/964/92 504/966/92
o arm_R
usemtl c_506d54
f 510/971/31 511/972/31 512/973/31
f 512/973/31 511/972/31 513/974/31
f 514/975/81 511/972/81 515/976/81
f 515/976/81 511/972/81 510/977/81
f 511/975/82 514/972/82 513/978/82
f 513/978/82 514/972/82 516/974/82
f 514/971/38 515/972/38 516/973/38
f 516/973/38 515/972/38 517/974/38
f 517/975/83 512/972/83 516/976/83
f 516/976/83 512/972/83 513/977/83
f 515/975/84 510/972/84 517/978/84
f 517/978/84 510/972/84 512/974/84
o leg_R_Lower
usemtl c_506d54
f 518/979/31 519/980/31 520/981/31
f 520/981/31 519/980/31 521/982/31
f 522/983/89 519/980/89 523/984/89
f 523/984/89 519/980/89 518/985/89
f 519/983/90 522/980/90 521/986/90
f 521/986/90 522/980/90 524/982/90
f 522/979/38 523/980/38 524/981/38
f 524/981/38 523/980/38 525/982/38
f 525/983/91 520/980/91 524/984/91
f 524/984/91 520/980/91 521/985/91
f 523/983/92 518/980/92 525/986/92
f 525/986/92 518/980/92 520/982/92
