# Roblox asset pack: animal_elephant (creatures), from the Studio model "Elephant". Exported with Export Selection, split by tools/build_creatures.py: one object per rigid body. Units: studs. +Y up, front faces -Z, pivot (bottom centre) at the origin.
mtllib animal_elephant.mtl

v 5.74900 5.32000 0.17000
v 5.70800 5.56000 -0.08000
v 5.70800 5.56000 0.08000
v 5.74900 5.32000 -0.17000
v 5.81700 4.83000 0.35000
v 5.81700 4.83000 -0.35000
v -5.81700 2.09000 -0.49000
v -5.81700 2.09000 0.49000
v -5.77880 2.29000 0.29000
v -5.77880 2.29000 -0.29000
v -5.66910 2.86000 0.29000
v -5.66910 2.86000 -0.29000
v -5.63080 3.06000 0.49000
v -5.63080 3.06000 -0.49000
v -5.42550 2.81000 0.29000
v -5.53520 2.24000 -0.29000
v -5.53520 2.24000 0.29000
v -5.42550 2.81000 -0.29000
v -1.82230 6.09000 4.05000
v -0.99240 6.09000 4.05000
v -0.99240 7.05000 2.76000
v -1.82230 7.05000 2.76000
v -1.82230 7.05000 -2.76000
v -0.99240 7.05000 -2.76000
v -1.82230 6.09000 -4.05000
v -0.99240 6.09000 -4.05000
v 4.29500 4.35000 0.17000
v 4.14900 4.51000 -0.19000
v 4.14900 4.51000 0.19000
v 4.29500 4.35000 -0.17000
v 3.91100 4.73000 -0.21000
v 3.91100 4.73000 0.21000
v -4.20290 3.16000 0.37000
v -4.33270 2.79000 -0.33000
v -4.33270 2.79000 0.33000
v -4.20290 3.16000 -0.37000
v -4.23210 3.88000 0.41000
v -4.23210 3.88000 -0.41000
v -3.85130 4.78000 0.45000
v -3.85130 4.78000 -0.45000
v 3.51300 5.04000 -0.23000
v 3.51300 5.04000 0.23000
v 5.55700 5.60000 0.08000
v 5.55700 5.60000 -0.08000
v -2.97000 6.70000 1.42000
v -0.53610 6.70000 1.42000
v -0.53610 6.70000 -1.42000
v -2.97000 6.70000 -1.42000
v 3.40200 2.03000 1.52000
v 3.40200 2.03000 -1.52000
v 3.40200 3.97000 1.52000
v 3.40200 3.97000 -1.52000
v -0.99240 3.46000 3.61000
v -1.82230 3.46000 3.61000
v -1.82230 3.46000 -3.61000
v -0.99240 3.46000 -3.61000
v -3.25720 5.13000 0.47000
v -3.25720 5.13000 -0.47000
v -2.75950 5.40000 0.49000
v -2.75950 5.40000 -0.49000
v -3.12950 6.32000 0.31000
v -3.12950 6.32000 1.11000
v -2.88690 6.32000 0.31000
v -2.88690 6.32000 1.11000
v -2.88690 6.32000 -0.31000
v -3.12950 6.32000 -1.11000
v -3.12950 6.32000 -0.31000
v -2.88690 6.32000 -1.11000
v -3.81210 3.96000 1.24000
v -3.87190 4.18000 1.01000
v -3.81210 3.96000 1.01000
v -3.87190 4.18000 1.24000
v -3.87190 4.18000 -1.01000
v -3.81210 3.96000 -1.24000
v -3.81210 3.96000 -1.01000
v -3.87190 4.18000 -1.24000
v 2.96300 2.13000 2.20000
v 2.94300 3.39000 1.07000
v 2.94300 3.39000 2.27000
v 2.96300 2.13000 1.13000
v 2.96300 2.13000 -2.20000
v 2.94300 3.39000 -1.07000
v 2.96300 2.13000 -1.13000
v 2.94300 3.39000 -2.27000
v -3.18010 6.09000 0.41000
v -3.18010 6.09000 0.95000
v -3.01620 6.09000 0.41000
v -3.01620 6.09000 0.95000
v -3.01620 6.09000 -0.41000
v -3.18010 6.09000 -0.95000
v -3.18010 6.09000 -0.41000
v -3.01620 6.09000 -0.95000
v 2.49400 4.75000 -1.52000
v 2.49400 4.75000 1.52000
v -2.94760 4.73000 1.35000
v -3.56100 4.31000 0.97000
v -3.56100 4.31000 1.28000
v -2.94760 4.73000 0.90000
v -2.94760 4.73000 -1.35000
v -3.56100 4.31000 -0.97000
v -2.94760 4.73000 -0.90000
v -3.56100 4.31000 -1.28000
v -0.99240 6.54000 1.24000
v -1.82230 6.54000 1.24000
v -1.82230 6.54000 -1.24000
v -0.99240 6.54000 -1.24000
v -1.82230 3.31000 3.13000
v -1.64570 3.38000 3.11000
v -1.82230 3.67000 2.91000
v -1.64570 3.72000 2.90000
v -3.18010 5.40000 0.95000
v -3.18010 5.40000 0.41000
v -3.18010 5.40000 -0.95000
v -3.18010 5.40000 -0.41000
v -1.82230 3.67000 -2.91000
v -1.64570 3.72000 -2.90000
v -1.64570 3.38000 -3.11000
v -1.82230 3.31000 -3.13000
v -1.76230 0.00000 2.17000
v -1.56650 0.00000 1.71000
v -1.56650 0.00000 2.17000
v -1.76230 0.00000 1.71000
v -0.56710 0.00000 2.17000
v -0.56710 0.00000 1.71000
v -1.56650 0.00000 1.63000
v -0.56710 0.00000 1.63000
v -1.56650 0.00000 1.17000
v -0.56710 0.00000 1.17000
v -1.76230 0.00000 1.63000
v -1.76230 0.00000 1.17000
v 1.50800 0.00000 2.17000
v 1.70400 0.00000 1.71000
v 1.70400 0.00000 2.17000
v 1.50800 0.00000 1.71000
v 2.70300 0.00000 2.17000
v 2.70300 0.00000 1.71000
v 1.70400 0.00000 1.63000
v 2.70300 0.00000 1.63000
v 1.70400 0.00000 1.17000
v 2.70300 0.00000 1.17000
v 1.50800 0.00000 1.63000
v 1.50800 0.00000 1.17000
v 2.66100 0.39000 2.13000
v 2.66100 0.39000 1.20000
v 2.69100 1.11000 2.17000
v 2.69100 1.11000 1.17000
v 2.72300 1.87000 2.20000
v 2.72300 1.87000 1.13000
v -1.76230 0.00000 -1.63000
v -1.56650 0.00000 -1.17000
v -1.76230 0.00000 -1.17000
v -1.56650 0.00000 -1.63000
v -0.56710 0.00000 -1.63000
v -0.56710 0.00000 -1.17000
v -0.56710 0.00000 -1.71000
v -1.56650 0.00000 -1.71000
v -0.56710 0.00000 -2.17000
v -1.56650 0.00000 -2.17000
v -1.76230 0.00000 -2.17000
v -1.76230 0.00000 -1.71000
v 1.50800 0.00000 -1.63000
v 1.70400 0.00000 -1.17000
v 1.50800 0.00000 -1.17000
v 1.70400 0.00000 -1.63000
v 2.70300 0.00000 -1.63000
v 2.70300 0.00000 -1.17000
v 2.70300 0.00000 -1.71000
v 1.70400 0.00000 -1.71000
v 2.70300 0.00000 -2.17000
v 1.70400 0.00000 -2.17000
v 1.50800 0.00000 -2.17000
v 1.50800 0.00000 -1.71000
v 2.66100 0.39000 -1.20000
v 2.69100 1.11000 -2.17000
v 2.69100 1.11000 -1.17000
v 2.66100 0.39000 -2.13000
v 2.72300 1.87000 -2.20000
v 2.72300 1.87000 -1.13000
v -3.12950 5.31000 0.31000
v -3.12950 5.31000 1.11000
v -3.12950 5.31000 -0.31000
v -3.12950 5.31000 -1.11000
v 2.70300 0.39000 1.71000
v 2.70300 0.39000 2.17000
v 2.70300 0.39000 1.63000
v 2.70300 0.39000 1.17000
v 2.70300 0.39000 -1.17000
v 2.70300 0.39000 -1.63000
v 2.70300 0.39000 -1.71000
v 2.70300 0.39000 -2.17000
v 5.35700 4.62000 0.09000
v 5.48300 4.75000 -0.09000
v 5.48300 4.75000 0.09000
v 5.35700 4.62000 -0.09000
v 5.23700 4.50000 0.10000
v 5.23700 4.50000 -0.10000
v -2.97000 3.95000 -1.81000
v -2.97000 3.95000 1.81000
v -1.82230 2.71000 3.12000
v -0.99240 2.71000 3.12000
v -1.82230 2.71000 -3.12000
v -0.99240 2.71000 -3.12000
v 5.08400 4.35000 0.10000
v 5.08400 4.35000 -0.10000
v -1.64570 4.77000 1.49000
v -1.82230 4.76000 1.44000
v -1.64570 4.77000 -1.49000
v -1.82230 4.76000 -1.44000
v 2.17300 1.76000 1.90000
v 1.08600 4.90000 1.90000
v 2.17300 1.76000 -1.90000
v 1.08600 4.90000 -1.90000
v -1.61680 1.87000 2.20000
v -1.57660 1.11000 2.17000
v -0.54700 1.87000 2.20000
v -0.57900 1.11000 2.17000
v -1.53880 0.39000 2.13000
v -0.60930 0.39000 2.13000
v 1.45000 1.87000 2.20000
v 1.59500 1.11000 2.17000
v 1.73100 0.39000 2.13000
v -0.57900 1.11000 -2.17000
v -1.53880 0.39000 -2.13000
v -1.57660 1.11000 -2.17000
v -0.60930 0.39000 -2.13000
v -0.54700 1.87000 -2.20000
v -1.61680 1.87000 -2.20000
v 1.59500 1.11000 -2.17000
v 1.45000 1.87000 -2.20000
v 1.73100 0.39000 -2.13000
v -1.68880 3.12000 2.27000
v -1.61680 2.13000 2.20000
v -0.30740 2.13000 2.20000
v -0.32770 3.39000 2.27000
v -1.68880 3.12000 -2.27000
v -0.30740 2.13000 -2.20000
v -1.61680 2.13000 -2.20000
v -0.32770 3.39000 -2.27000
v 1.45000 2.13000 2.20000
v 1.58100 3.74000 2.27000
v 1.45000 2.13000 -2.20000
v 1.58100 3.74000 -2.27000
v -1.76230 0.39000 2.17000
v -1.56650 0.39000 2.17000
v -0.56710 0.39000 2.17000
v 1.50800 0.39000 2.17000
v 1.70400 0.39000 2.17000
v -1.76230 0.39000 -2.17000
v -1.56650 0.39000 -2.17000
v -0.56710 0.39000 -2.17000
v 1.50800 0.39000 -2.17000
v 1.70400 0.39000 -2.17000
v -0.80850 4.90000 1.90000
v -0.80850 4.90000 -1.90000
v -2.10710 4.75000 1.52000
v -2.10710 4.75000 -1.52000
v -0.53610 3.95000 1.81000
v -0.53610 3.95000 -1.81000
v -2.10710 2.46000 -1.52000
v -2.10710 2.46000 1.52000
v -5.42890 2.01000 -0.49000
v -5.42890 2.01000 0.49000
v 0.34100 1.58000 1.90000
v 0.34100 1.58000 -1.90000
v -0.98370 1.59000 1.52000
v -0.98370 1.59000 -1.52000
v 5.15300 5.07000 0.35000
v 5.41400 5.40000 0.17000
v 5.15300 5.07000 -0.35000
v 5.41400 5.40000 -0.17000
v -1.64570 6.25000 1.59000
v -1.82230 6.30000 1.55000
v -1.64570 6.25000 -1.59000
v -1.82230 6.30000 -1.55000
v -1.82230 3.45000 2.66000
v -1.82230 3.58000 3.30000
v -1.82230 5.95000 3.70000
v -1.82230 4.61000 1.11000
v -1.82230 6.69000 2.70000
v -1.82230 3.45000 -2.66000
v -1.82230 3.58000 -3.30000
v -1.82230 5.95000 -3.70000
v -1.82230 4.61000 -1.11000
v -1.82230 6.69000 -2.70000
v -1.76230 0.39000 1.63000
v -1.56650 0.39000 1.63000
v 1.50800 0.39000 1.63000
v 1.70400 0.39000 1.63000
v -1.76230 0.39000 -1.63000
v -1.56650 0.39000 -1.63000
v 1.50800 0.39000 -1.63000
v 1.70400 0.39000 -1.63000
v -3.48030 4.01000 1.28000
v -3.48030 4.01000 -1.28000
v -1.76230 0.39000 1.71000
v -1.76230 0.39000 1.17000
v -1.76230 0.39000 -1.17000
v -1.76230 0.39000 -1.71000
v -2.83150 4.29000 1.35000
v -2.83150 4.29000 -1.35000
v -1.57660 1.11000 1.17000
v -1.61680 1.87000 1.13000
v -1.53880 0.39000 1.20000
v -1.68880 3.12000 1.07000
v -1.61680 2.13000 1.13000
v -1.68880 3.12000 -1.07000
v -1.61680 2.13000 -1.13000
v -1.53880 0.39000 -1.20000
v -1.57660 1.11000 -1.17000
v -1.61680 1.87000 -1.13000
v -1.64570 3.63000 3.28000
v -1.64570 5.91000 3.65000
v -1.64570 6.62000 2.70000
v -1.64570 3.63000 -3.28000
v -1.64570 5.91000 -3.65000
v -1.64570 6.62000 -2.70000
v -1.56650 0.39000 1.71000
v -1.56650 0.39000 -1.71000
v 1.58100 3.74000 1.07000
v 1.58100 3.74000 -1.07000
v -2.88690 5.31000 1.11000
v 3.07300 4.92000 -0.25000
v 3.07300 4.92000 0.25000
v -2.88690 5.31000 -1.11000
v -3.01620 5.40000 0.95000
v -3.01620 5.40000 -0.95000
v 2.73100 4.82000 -0.28000
v 2.32700 4.69000 0.30000
v 2.73100 4.82000 0.28000
v 2.32700 4.69000 -0.30000
v 4.85500 4.25000 0.12000
v 4.85500 4.25000 -0.12000
v 4.62400 4.15000 0.14000
v 4.62400 4.15000 -0.14000
v 3.25200 4.45000 0.25000
v 3.44200 4.58000 -0.23000
v 3.44200 4.58000 0.23000
v 3.25200 4.45000 -0.25000
v 4.23700 4.02000 0.17000
v 4.53400 4.42000 0.14000
v 4.23700 4.02000 -0.17000
v 4.53400 4.42000 -0.14000
v 4.77700 4.48000 0.12000
v 4.77700 4.48000 -0.12000
v 4.97500 4.53000 0.10000
v 4.97500 4.53000 -0.10000
v -5.24270 2.98000 0.49000
v -5.24270 2.98000 -0.49000
v 2.54000 4.13000 0.30000
v 2.92600 4.30000 0.28000
v 2.54000 4.13000 -0.30000
v 2.92600 4.30000 -0.28000
v -0.54700 1.87000 1.13000
v -0.30740 2.13000 1.13000
v -0.54700 1.87000 -1.13000
v -0.30740 2.13000 -1.13000
v -4.70820 2.68000 0.31000
v -5.16810 2.14000 0.31000
v -4.67730 2.05000 0.31000
v -5.05040 2.75000 0.31000
v -3.90740 2.28000 0.33000
v -3.48570 2.97000 0.37000
v -3.43520 3.70000 0.41000
v -3.20090 4.15000 0.45000
v -2.83480 4.29000 0.47000
v -2.32010 4.53000 0.49000
v -5.16810 2.14000 -0.31000
v -4.70820 2.68000 -0.31000
v -4.67730 2.05000 -0.31000
v -5.05040 2.75000 -0.31000
v -3.90740 2.28000 -0.33000
v -3.48570 2.97000 -0.37000
v -3.43520 3.70000 -0.41000
v -3.20090 4.15000 -0.45000
v -2.83480 4.29000 -0.47000
v -2.32010 4.53000 -0.49000
v -0.32770 3.39000 1.07000
v -0.32770 3.39000 -1.07000
v 3.65400 4.40000 0.21000
v 3.65400 4.40000 -0.21000
v 3.91700 4.22000 0.19000
v 3.91700 4.22000 -0.19000
v 5.10000 4.64000 0.10000
v 5.10000 4.64000 -0.10000
v 5.22700 4.76000 0.09000
v 5.22700 4.76000 -0.09000
v 5.34000 4.86000 0.09000
v 5.34000 4.86000 -0.09000
v -2.88690 5.31000 0.31000
v -2.88690 5.31000 -0.31000
v -0.60930 0.39000 1.20000
v -0.57900 1.11000 1.17000
v -0.60930 0.39000 -1.20000
v -0.57900 1.11000 -1.17000
v -0.56710 0.39000 1.71000
v -0.56710 0.39000 1.63000
v -0.56710 0.39000 1.17000
v -0.56710 0.39000 -1.17000
v -0.56710 0.39000 -1.63000
v -0.56710 0.39000 -1.71000
v -3.01620 5.40000 0.41000
v -3.01620 5.40000 -0.41000
v -3.48030 4.01000 0.97000
v -3.48030 4.01000 -0.97000
v -2.83150 4.29000 0.90000
v -2.83150 4.29000 -0.90000
v -0.99240 3.45000 2.66000
v -0.99240 4.61000 1.11000
v -0.99240 3.45000 -2.66000
v -0.99240 4.61000 -1.11000
v 1.45000 1.87000 -1.13000
v 1.59500 1.11000 -1.17000
v 1.73100 0.39000 -1.20000
v 1.73100 0.39000 1.20000
v 1.59500 1.11000 1.17000
v 1.45000 1.87000 1.13000
v 1.45000 2.13000 1.13000
v 1.45000 2.13000 -1.13000
v -1.56650 0.39000 1.17000
v 1.70400 0.39000 1.17000
v 1.50800 0.39000 1.17000
v -1.56650 0.39000 -1.17000
v 1.70400 0.39000 -1.17000
v 1.50800 0.39000 -1.17000
v 1.50800 0.39000 1.71000
v 1.50800 0.39000 -1.71000
v 1.70400 0.39000 1.71000
v 1.70400 0.39000 -1.71000
vt 0.18538 0.03133
vt 0.19969 0.04514
vt 0.19083 0.04514
vt 0.20513 0.03133
vt 0.17503 0.00294
vt 0.21548 0.00293
vt 0.03836 0.58410
vt 0.03836 0.52761
vt 0.04997 0.53922
vt 0.04997 0.57250
vt 0.08325 0.53922
vt 0.08325 0.57250
vt 0.09485 0.52761
vt 0.09486 0.58410
vt 0.95242 0.94386
vt 0.91913 0.97715
vt 0.91913 0.94386
vt 0.95242 0.97715
vt 0.71866 0.98770
vt 0.67112 0.98771
vt 0.67111 0.89581
vt 0.71865 0.89580
vt 1.71865 0.89580
vt 1.67111 0.89581
vt 1.71866 0.98770
vt 1.67112 0.98771
vt 0.97646 0.34135
vt 0.95607 0.32872
vt 0.97754 0.32872
vt 0.95715 0.34134
vt 0.95492 0.31041
vt 0.97869 0.31041
vt 0.59256 0.02501
vt 0.55224 0.00293
vt 0.59052 0.00294
vt 0.55019 0.02501
vt 0.59477 0.06628
vt 0.54799 0.06628
vt 0.59718 0.12234
vt 0.54557 0.12233
vt 0.95350 0.28153
vt 0.98010 0.28153
vt 0.48761 0.44827
vt 0.47875 0.44827
vt 0.48761 0.43941
vt 0.47875 0.43941
vt 0.81052 0.80055
vt 0.67110 0.80055
vt 0.67110 0.63810
vt 0.81052 0.63810
vt 0.00293 0.76556
vt 0.00293 0.59118
vt 0.11362 0.76556
vt 0.11362 0.59118
vt 0.94951 0.15580
vt 0.94953 0.00293
vt 0.99705 0.15580
vt 0.99707 0.00294
vt 1.99705 0.15580
vt 1.94953 0.00293
vt 1.94951 0.15580
vt 1.99707 0.00294
vt 0.59820 0.16180
vt 0.54455 0.16180
vt 0.42520 0.51089
vt 0.42521 0.56454
vt 0.39270 0.56562
vt 0.39269 0.50981
vt 0.79636 0.35637
vt 0.79636 0.40219
vt 0.78246 0.35637
vt 0.78246 0.40219
vt 1.78246 0.35637
vt 1.79636 0.40219
vt 1.79636 0.35637
vt 1.78246 0.40219
vt 0.74196 0.21946
vt 0.75499 0.23248
vt 0.74197 0.23248
vt 0.75498 0.21946
vt 1.75499 0.23248
vt 1.74196 0.21946
vt 1.74197 0.23248
vt 1.75499 0.21946
vt 0.08237 0.87470
vt 0.14716 0.94717
vt 0.07886 0.94717
vt 0.14366 0.87470
vt 1.08237 0.87470
vt 1.14716 0.94717
vt 1.14366 0.87470
vt 1.07886 0.94717
vt 0.88803 0.26798
vt 0.88803 0.29895
vt 0.87864 0.26798
vt 0.87864 0.29895
vt 1.87863 0.26798
vt 1.88803 0.29895
vt 1.88803 0.26798
vt 1.87863 0.29895
vt 0.18248 0.59118
vt 0.18248 0.76556
vt 0.17564 0.83129
vt 0.15391 0.78858
vt 0.17146 0.78858
vt 0.14972 0.83129
vt 1.17564 0.83129
vt 1.15391 0.78858
vt 1.14972 0.83129
vt 1.17146 0.78858
vt 0.67110 0.80435
vt 0.71864 0.80435
vt 1.71864 0.80435
vt 1.67110 0.80435
vt 0.97976 0.83166
vt 0.96979 0.82751
vt 0.98101 0.80765
vt 0.97099 0.80447
vt 0.21047 0.97016
vt 0.24143 0.93094
vt 0.24143 0.97016
vt 0.21047 0.93094
vt 1.21047 0.97016
vt 1.24143 0.93094
vt 1.21047 0.93094
vt 1.24143 0.97016
vt 1.98101 0.80765
vt 1.97099 0.80447
vt 1.96979 0.82751
vt 1.97976 0.83166
vt 0.59011 0.89306
vt 0.61652 0.90428
vt 0.59011 0.90428
vt 0.61652 0.89306
vt 0.59011 0.96153
vt 0.61652 0.96153
vt 0.62094 0.90428
vt 0.62094 0.96153
vt 0.64736 0.90428
vt 0.64736 0.96153
vt 0.62094 0.89306
vt 0.64736 0.89306
vt 0.38257 0.89448
vt 0.40899 0.90570
vt 0.38257 0.90570
vt 0.40899 0.89448
vt 0.38257 0.96295
vt 0.40899 0.96295
vt 0.41340 0.90570
vt 0.41340 0.96295
vt 0.43982 0.90570
vt 0.43982 0.96295
vt 0.41340 0.89448
vt 0.43982 0.89448
vt 0.08640 0.76936
vt 0.13965 0.76936
vt 0.08445 0.81071
vt 0.14159 0.81072
vt 0.08238 0.85462
vt 0.14366 0.85463
vt 1.62094 0.89306
vt 1.64736 0.90428
vt 1.64736 0.89306
vt 1.62094 0.90428
vt 1.62094 0.96153
vt 1.64736 0.96153
vt 1.61652 0.96153
vt 1.61652 0.90428
vt 1.59011 0.96153
vt 1.59011 0.90428
vt 1.59011 0.89306
vt 1.61652 0.89306
vt 1.41340 0.89448
vt 1.43982 0.90570
vt 1.43982 0.89448
vt 1.41340 0.90570
vt 1.41340 0.96295
vt 1.43982 0.96295
vt 1.40899 0.96295
vt 1.40899 0.90570
vt 1.38257 0.96295
vt 1.38257 0.90570
vt 1.38257 0.89448
vt 1.40899 0.89448
vt 1.13965 0.76936
vt 1.08445 0.81071
vt 1.14159 0.81072
vt 1.08640 0.76936
vt 1.08238 0.85462
vt 1.14366 0.85463
vt 0.93964 0.33680
vt 0.89382 0.27876
vt 0.93964 0.27876
vt 0.89382 0.33680
vt 1.93964 0.33680
vt 1.89382 0.27876
vt 1.89382 0.33680
vt 1.93964 0.27876
vt 0.79258 0.17773
vt 0.81510 0.15132
vt 0.81510 0.17773
vt 0.79258 0.15132
vt 0.79258 0.14690
vt 0.81510 0.14690
vt 0.81510 0.12048
vt 0.79258 0.12048
vt 1.79258 0.14690
vt 1.81510 0.12048
vt 1.79258 0.12048
vt 1.81510 0.14690
vt 1.81510 0.15132
vt 1.79258 0.15132
vt 1.79258 0.17773
vt 1.81510 0.17773
vt 0.97158 0.60166
vt 0.98202 0.61201
vt 0.97188 0.61202
vt 0.98231 0.60166
vt 0.97128 0.59177
vt 0.98261 0.59177
vt 0.16079 0.34340
vt 0.00293 0.52810
vt 0.00293 0.32115
vt 0.16079 0.50585
vt 0.99705 0.20702
vt 0.94950 0.20702
vt 1.99705 0.20702
vt 1.94950 0.20702
vt 0.97094 0.57940
vt 0.98295 0.57940
vt 0.98167 0.70454
vt 0.99214 0.70356
vt 1.98167 0.70454
vt 1.99214 0.70356
vt 0.16920 0.76936
vt 0.15617 0.76936
vt 1.16920 0.76936
vt 1.15617 0.76936
vt 0.05698 0.32378
vt 0.18350 0.25040
vt 0.16767 0.32397
vt 0.01110 0.27242
vt 0.00334 0.18891
vt 0.21043 0.25039
vt 0.33696 0.32377
vt 0.22626 0.32396
vt 0.38283 0.27242
vt 0.39060 0.18891
vt 0.26545 0.84095
vt 0.26385 0.88491
vt 0.20417 0.84193
vt 0.20671 0.88582
vt 0.26234 0.92630
vt 0.20910 0.92715
vt 0.90309 0.70916
vt 0.89124 0.75226
vt 0.83038 0.70323
vt 0.82864 0.74716
vt 0.88008 0.79285
vt 0.82701 0.78853
vt 1.20671 0.88582
vt 1.26234 0.92630
vt 1.26385 0.88491
vt 1.20910 0.92715
vt 1.20417 0.84193
vt 1.26545 0.84095
vt 1.83038 0.70323
vt 1.89124 0.75226
vt 1.90309 0.70916
vt 1.82864 0.74716
vt 1.88008 0.79285
vt 1.82701 0.78853
vt 0.26843 0.76953
vt 0.26521 0.82630
vt 0.19022 0.82750
vt 0.19022 0.75494
vt 1.26843 0.76953
vt 1.19022 0.82750
vt 1.26521 0.82630
vt 1.19022 0.75494
vt 0.90428 0.69455
vt 0.82494 0.61530
vt 0.90426 0.60198
vt 0.81789 0.68751
vt 1.82494 0.61530
vt 1.90428 0.69455
vt 1.90425 0.60198
vt 1.81789 0.68751
vt 0.95962 0.90771
vt 0.98215 0.90771
vt 0.98215 0.91893
vt 0.95962 0.91893
vt 0.95962 0.97618
vt 0.98215 0.97618
vt 0.17503 0.90735
vt 0.19756 0.90735
vt 0.19756 0.91857
vt 0.17503 0.91857
vt 0.17503 0.97582
vt 0.19756 0.97582
vt 1.95963 0.90771
vt 1.98215 0.91893
vt 1.98215 0.90771
vt 1.95963 0.91893
vt 1.95963 0.97618
vt 1.98215 0.97618
vt 1.17503 0.90735
vt 1.19756 0.91857
vt 1.19756 0.90735
vt 1.17503 0.91857
vt 1.17503 0.97582
vt 1.19756 0.97582
vt 0.36593 0.59219
vt 0.19155 0.59222
vt 0.38748 0.51113
vt 0.16997 0.51116
vt 0.38741 0.40259
vt 0.17001 0.40262
vt 0.36589 0.32774
vt 0.19150 0.32776
vt 0.53718 0.00293
vt 0.53720 0.16235
vt 0.39778 0.16237
vt 0.39776 0.00295
vt 0.50683 0.89066
vt 0.36741 0.89068
vt 0.50681 0.73124
vt 0.36738 0.73126
vt 0.78474 0.21566
vt 0.61036 0.08422
vt 0.78474 0.08422
vt 0.61036 0.21566
vt 0.79259 0.00293
vt 0.84907 0.02559
vt 0.79258 0.02558
vt 0.84908 0.00294
vt 0.19360 0.14540
vt 0.00293 0.08037
vt 0.20034 0.14538
vt 0.39102 0.08037
vt 0.19338 0.06656
vt 0.14275 0.00296
vt 0.01131 0.00293
vt 0.25121 0.00295
vt 0.20058 0.06654
vt 0.38265 0.00293
vt 0.79568 0.32540
vt 0.82290 0.35258
vt 0.78246 0.35257
vt 0.81531 0.32750
vt 0.56783 0.65177
vt 0.59501 0.67900
vt 0.56993 0.67141
vt 0.59500 0.63855
vt 0.96975 0.62026
vt 0.97972 0.61579
vt 1.96975 0.62026
vt 1.97972 0.61579
vt 0.60999 0.34768
vt 0.41416 0.41985
vt 0.39269 0.34772
vt 0.58855 0.41982
vt 0.58538 0.42356
vt 0.58011 0.45756
vt 0.55262 0.46073
vt 0.60602 0.47044
vt 0.56422 0.47559
vt 0.58750 0.47434
vt 0.47120 0.52361
vt 0.58750 0.61197
vt 0.45371 0.51180
vt 0.60602 0.62330
vt 0.46291 0.61187
vt 0.52420 0.66515
vt 0.44331 0.62247
vt 0.52433 0.64428
vt 1.58538 0.42356
vt 1.55263 0.46073
vt 1.58011 0.45756
vt 1.60602 0.47044
vt 1.56422 0.47559
vt 1.58750 0.47434
vt 1.47120 0.52361
vt 1.58750 0.61197
vt 1.45371 0.51180
vt 1.60602 0.62330
vt 1.46291 0.61187
vt 1.52420 0.66515
vt 1.44331 0.62247
vt 1.52433 0.64428
vt 0.99615 0.31558
vt 0.99615 0.33810
vt 0.98493 0.33810
vt 0.98493 0.31558
vt 0.55071 0.42363
vt 0.55071 0.44615
vt 0.53949 0.44615
vt 0.53949 0.42363
vt 1.99615 0.31558
vt 1.98493 0.33810
vt 1.99615 0.33810
vt 1.98493 0.31558
vt 1.55071 0.42363
vt 1.53949 0.44615
vt 1.55071 0.44615
vt 1.53949 0.42363
vt 0.94606 0.73634
vt 0.96727 0.74872
vt 0.94857 0.75371
vt 0.96541 0.73583
vt 1.94606 0.73634
vt 1.96727 0.74872
vt 1.96541 0.73583
vt 1.94857 0.75371
vt 0.80256 0.31224
vt 0.81137 0.31319
vt 0.55468 0.65865
vt 0.55562 0.66746
vt 0.43546 0.56891
vt 0.41294 0.59533
vt 0.41294 0.56891
vt 0.43546 0.59533
vt 0.02545 0.53190
vt 0.00293 0.55831
vt 0.00293 0.53190
vt 0.02545 0.55831
vt 1.02545 0.55831
vt 1.02545 0.53190
vt 1.00293 0.55831
vt 1.00293 0.53190
vt 1.43546 0.59533
vt 1.43546 0.56891
vt 1.41294 0.59533
vt 1.41294 0.56891
vt 0.90783 0.75372
vt 0.90394 0.72810
vt 1.90783 0.75372
vt 1.90394 0.72810
vt 0.61036 0.00293
vt 0.78474 0.00293
vt 0.94848 0.86865
vt 0.88926 0.82472
vt 0.94640 0.82472
vt 0.88720 0.86866
vt 0.89120 0.78335
vt 0.94445 0.78335
vt 0.88370 0.94007
vt 0.94848 0.88331
vt 0.95200 0.94006
vt 0.88720 0.88331
vt 1.88370 0.94007
vt 1.94848 0.88331
vt 1.88720 0.88331
vt 1.95200 0.94006
vt 1.94640 0.82472
vt 1.89120 0.78335
vt 1.88926 0.82472
vt 1.94445 0.78335
vt 1.94848 0.86865
vt 1.88720 0.86866
vt 0.66416 0.72610
vt 0.64181 0.72731
vt 0.65707 0.71000
vt 0.66417 0.85825
vt 0.55251 0.77342
vt 0.60352 0.88926
vt 0.54455 0.85815
vt 1.66416 0.72610
vt 1.65707 0.71000
vt 1.64181 0.72731
vt 1.66417 0.85825
vt 1.55251 0.77342
vt 1.60352 0.88926
vt 1.54455 0.85815
vt 0.39271 0.24223
vt 0.60994 0.24220
vt 0.60023 0.02546
vt 0.60023 0.00293
vt 0.60465 0.00293
vt 0.60465 0.02546
vt 1.60023 0.02546
vt 1.60465 0.00293
vt 1.60023 0.00293
vt 1.60465 0.02546
vt 0.58850 0.16633
vt 0.41412 0.16636
vt 0.57742 0.51042
vt 0.57742 0.59085
vt 0.50912 0.59085
vt 0.50912 0.51043
vt 1.57742 0.51042
vt 1.50912 0.59085
vt 1.57742 0.59085
vt 1.50912 0.51043
vt 0.38666 0.29347
vt 0.37245 0.32675
vt 0.37245 0.29346
vt 0.38666 0.32675
vt 0.47240 0.42364
vt 0.47240 0.48168
vt 0.45850 0.48168
vt 0.45850 0.42364
vt 0.95230 0.25556
vt 0.98131 0.25556
vt 1.47240 0.42364
vt 1.45850 0.48168
vt 1.47240 0.48168
vt 1.45850 0.42364
vt 0.85766 0.03868
vt 0.85766 0.07790
vt 0.84826 0.07790
vt 0.84826 0.03868
vt 1.85766 0.03868
vt 1.84826 0.07790
vt 1.85766 0.07790
vt 1.84826 0.03868
vt 0.95102 0.23505
vt 0.98411 0.21082
vt 0.98260 0.23506
vt 0.94950 0.21082
vt 0.96992 0.56510
vt 0.98397 0.56510
vt 0.96878 0.55079
vt 0.98510 0.55079
vt 0.96243 0.45843
vt 0.99024 0.47147
vt 0.96364 0.47147
vt 0.99144 0.45843
vt 0.83902 0.90691
vt 0.85823 0.90485
vt 0.84902 0.92654
vt 0.83391 0.92039
vt 0.92821 0.66238
vt 0.91821 0.68200
vt 0.90901 0.66032
vt 0.93332 0.67586
vt 0.82956 0.93407
vt 0.84258 0.93937
vt 0.93767 0.68954
vt 0.92465 0.69484
vt 0.82626 0.94529
vt 0.83611 0.95216
vt 0.94097 0.70076
vt 0.93112 0.70763
vt 0.61703 0.65035
vt 0.66257 0.68377
vt 0.64918 0.70202
vt 0.60363 0.66860
vt 0.88526 0.19576
vt 0.83358 0.16362
vt 0.85182 0.15022
vt 0.86701 0.20916
vt 0.82671 0.79282
vt 0.85822 0.80714
vt 0.84681 0.82858
vt 0.81806 0.81551
vt 0.83716 0.84671
vt 0.81074 0.83471
vt 0.90902 0.56261
vt 0.94918 0.57098
vt 0.92043 0.58405
vt 0.94053 0.54829
vt 0.93008 0.60218
vt 0.95649 0.59018
vt 0.82921 0.85712
vt 0.80271 0.85944
vt 0.93803 0.61259
vt 0.96453 0.61491
vt 0.00645 0.85462
vt 0.06773 0.85463
vt 0.00645 0.87470
vt 0.06773 0.87470
vt 1.06773 0.85463
vt 1.00645 0.87470
vt 1.06773 0.87470
vt 1.00645 0.85462
vt 0.59087 0.70503
vt 0.63126 0.70982
vt 0.61409 0.73267
vt 0.60246 0.68869
vt 0.57068 0.71494
vt 0.57292 0.75316
vt 0.52798 0.74031
vt 0.55100 0.70473
vt 0.49762 0.71194
vt 0.52408 0.67337
vt 0.46991 0.70190
vt 0.47291 0.65038
vt 0.43436 0.65889
vt 0.44920 0.71045
vt 0.41826 0.72048
vt 0.40282 0.66685
vt 0.82578 0.18154
vt 0.83058 0.22192
vt 0.80294 0.19872
vt 0.84692 0.21034
vt 0.82068 0.24212
vt 0.78246 0.23989
vt 0.79533 0.28482
vt 0.83090 0.26180
vt 0.82370 0.31518
vt 0.86226 0.28870
vt 0.83375 0.34289
vt 0.88527 0.33987
vt 0.87677 0.37843
vt 0.82520 0.36360
vt 0.86882 0.40997
vt 0.81518 0.39454
vt 0.51418 0.88601
vt 0.58248 0.88601
vt 0.51418 0.96557
vt 0.58248 0.96557
vt 1.51418 0.96557
vt 1.58248 0.88601
vt 1.51418 0.88601
vt 1.58248 0.96557
vt 0.96728 0.52728
vt 0.98660 0.52727
vt 0.81881 0.88345
vt 0.83842 0.87000
vt 0.95977 0.36999
vt 0.97383 0.37000
vt 0.97280 0.38164
vt 0.96080 0.38164
vt 0.94842 0.63892
vt 0.92881 0.62547
vt 0.84783 0.88576
vt 0.83013 0.89790
vt 0.91940 0.64122
vt 0.93710 0.65337
vt 0.80296 0.04214
vt 0.83887 0.07071
vt 0.80278 0.07071
vt 0.83869 0.04214
vt 0.83996 0.11669
vt 0.80167 0.11668
vt 0.95864 0.35568
vt 0.97496 0.35568
vt 0.82683 0.96035
vt 0.81920 0.95197
vt 0.94040 0.71582
vt 0.94803 0.70744
vt 0.81931 0.96678
vt 0.81209 0.95886
vt 0.94792 0.72225
vt 0.95514 0.71432
vt 0.80594 0.96494
vt 0.81141 0.97348
vt 0.96128 0.72041
vt 0.95582 0.72895
vt 0.40289 0.48356
vt 0.43898 0.48356
vt 0.44008 0.50602
vt 0.40179 0.50602
vt 0.40308 0.46353
vt 0.43880 0.46353
vt 0.95962 0.41369
vt 0.99272 0.43793
vt 0.96114 0.43793
vt 0.99424 0.41369
vt 0.07123 0.94717
vt 0.00293 0.94717
vt 1.07123 0.94717
vt 1.00293 0.94717
vt 0.54455 0.50634
vt 0.57784 0.49214
vt 0.57784 0.50635
vt 0.54455 0.49213
vt 0.62962 0.58914
vt 0.62963 0.62242
vt 0.61542 0.62243
vt 0.61542 0.58914
vt 0.20412 0.25452
vt 0.19022 0.31256
vt 0.19022 0.25452
vt 0.20412 0.31256
vt 1.19022 0.25452
vt 1.19022 0.31256
vt 1.20412 0.25452
vt 1.20412 0.31256
vt 0.01047 0.76936
vt 0.06372 0.76936
vt 0.00852 0.81071
vt 0.06566 0.81072
vt 1.06372 0.76936
vt 1.00852 0.81071
vt 1.06566 0.81072
vt 1.01047 0.76936
vt 0.61542 0.42641
vt 0.61542 0.21945
vt 0.77327 0.40416
vt 0.77327 0.24170
vt 0.25096 0.98761
vt 0.27348 0.96119
vt 0.27348 0.98761
vt 0.25096 0.96119
vt 0.25096 0.95677
vt 0.27348 0.95677
vt 0.27348 0.93036
vt 0.25096 0.93036
vt 1.25096 0.95677
vt 1.27348 0.93036
vt 1.25096 0.93036
vt 1.27348 0.95677
vt 1.27348 0.96119
vt 1.25096 0.96119
vt 1.25096 0.98761
vt 1.27348 0.98761
vt 0.88803 0.11782
vt 0.87864 0.15704
vt 0.87864 0.11782
vt 0.88803 0.15704
vt 1.87863 0.11782
vt 1.87863 0.15704
vt 1.88803 0.11782
vt 1.88803 0.15704
vt 0.84340 0.26423
vt 0.84320 0.22033
vt 0.86185 0.23741
vt 0.86150 0.24698
vt 0.49613 0.55388
vt 0.48375 0.53267
vt 0.49664 0.53454
vt 0.47876 0.55137
vt 1.48375 0.53267
vt 1.49613 0.55388
vt 1.49663 0.53454
vt 1.47876 0.55137
vt 0.47875 0.59212
vt 0.50436 0.59600
vt 1.47875 0.59212
vt 1.50436 0.59600
vt 0.38999 0.59601
vt 0.43687 0.61665
vt 0.39970 0.64940
vt 0.23713 0.59600
vt 0.34863 0.74832
vt 0.19528 0.67783
vt 0.23796 0.75871
vt 1.38999 0.59601
vt 1.39970 0.64940
vt 1.43687 0.61665
vt 1.23713 0.59600
vt 1.34863 0.74832
vt 1.19528 0.67783
vt 1.23796 0.75871
vt 0.39270 0.42365
vt 0.44919 0.42365
vt 0.44919 0.44629
vt 0.39269 0.44629
vt 0.94138 0.16380
vt 0.94136 0.27496
vt 0.89384 0.16380
vt 0.89382 0.27495
vt 1.89384 0.16380
vt 1.94137 0.27496
vt 1.94138 0.16380
vt 1.89382 0.27495
vt 0.78015 0.63430
vt 0.64073 0.42734
vt 0.78015 0.42734
vt 0.64073 0.63430
vt 1.35496 0.79972
vt 1.29783 0.79881
vt 1.29529 0.84270
vt 1.35656 0.84367
vt 1.35346 0.75833
vt 1.30022 0.75748
vt 1.87272 0.49446
vt 1.86087 0.45136
vt 1.80001 0.50038
vt 1.79828 0.45646
vt 1.84971 0.41077
vt 1.79664 0.41509
vt 0.35496 0.79972
vt 0.29783 0.79881
vt 0.35346 0.75833
vt 0.30022 0.75748
vt 0.29529 0.84270
vt 0.35656 0.84367
vt 0.84972 0.41077
vt 0.79828 0.45646
vt 0.79664 0.41509
vt 0.86087 0.45136
vt 0.80001 0.50038
vt 0.87272 0.49446
vt 0.35955 0.91510
vt 0.28133 0.85713
vt 0.35633 0.85833
vt 0.28133 0.92968
vt 1.28133 0.85713
vt 1.35955 0.91510
vt 1.35633 0.85833
vt 1.28133 0.92968
vt 0.87391 0.50907
vt 0.79457 0.58831
vt 0.78752 0.51610
vt 0.87388 0.60164
vt 1.87391 0.50907
vt 1.78752 0.51610
vt 1.79457 0.58831
vt 1.87388 0.60164
vt 0.15479 0.83509
vt 0.17731 0.84630
vt 0.15479 0.84630
vt 0.17731 0.83509
vt 0.15479 0.90356
vt 0.17731 0.90356
vt 0.96975 0.83545
vt 0.99227 0.84667
vt 0.96975 0.84667
vt 0.99227 0.83545
vt 0.96975 0.90392
vt 0.99227 0.90392
vt 1.15479 0.83509
vt 1.17731 0.84630
vt 1.17731 0.83509
vt 1.15479 0.84630
vt 1.15479 0.90356
vt 1.17731 0.90356
vt 1.99227 0.84667
vt 1.96975 0.83545
vt 1.96975 0.84667
vt 1.99227 0.83545
vt 1.96975 0.90392
vt 1.99227 0.90392
vt 0.73690 0.98152
vt 0.79271 0.92571
vt 0.79271 0.98152
vt 0.73690 0.92571
vt 0.94851 0.43734
vt 0.88930 0.39267
vt 0.94645 0.39268
vt 0.88722 0.43733
vt 0.89126 0.35062
vt 0.94451 0.35063
vt 1.94645 0.39268
vt 1.89126 0.35062
vt 1.88930 0.39267
vt 1.94451 0.35063
vt 1.94851 0.43734
vt 1.88723 0.43733
vt 0.53359 0.80965
vt 0.51831 0.82887
vt 0.52057 0.80965
vt 0.53586 0.82886
vt 1.53359 0.80965
vt 1.51831 0.82887
vt 1.53586 0.82886
vt 1.52057 0.80965
vt 0.94851 0.45199
vt 0.88722 0.45198
vt 1.94851 0.45199
vt 1.88722 0.45198
vt 0.21274 0.59601
vt 0.19022 0.62243
vt 0.19022 0.59601
vt 0.21274 0.62243
vt 0.55189 0.59465
vt 0.52936 0.62106
vt 0.52936 0.59465
vt 0.55189 0.62106
vt 0.88370 0.54448
vt 0.95200 0.54449
vt 1.55189 0.62106
vt 1.55189 0.59465
vt 1.52937 0.62106
vt 1.52937 0.59465
vt 1.88370 0.54448
vt 1.95200 0.54449
vt 1.21274 0.62243
vt 1.21274 0.59601
vt 1.19022 0.62243
vt 1.19022 0.59601
vt 0.99615 0.28926
vt 0.98493 0.31178
vt 0.98493 0.28926
vt 0.99615 0.31178
vt 0.89791 0.54828
vt 0.89790 0.58157
vt 0.88370 0.58156
vt 0.88370 0.54828
vt 0.87467 0.41376
vt 0.86345 0.43628
vt 0.86345 0.41376
vt 0.87467 0.43628
vt 1.98493 0.31178
vt 1.99615 0.28926
vt 1.98493 0.28926
vt 1.99615 0.31178
vt 1.86345 0.43628
vt 1.87467 0.41376
vt 1.86345 0.41376
vt 1.87467 0.43628
vt 0.87864 0.02546
vt 0.87864 0.00293
vt 0.88305 0.00293
vt 0.88305 0.02546
vt 0.63232 0.44772
vt 0.62048 0.43281
vt 0.63074 0.42945
vt 0.62200 0.45035
vt 1.87863 0.02546
vt 1.88305 0.00293
vt 1.87863 0.00293
vt 1.88305 0.02546
vt 1.62048 0.43281
vt 1.63232 0.44772
vt 1.63074 0.42945
vt 1.62200 0.45035
vt 0.88085 0.07285
vt 0.86883 0.14125
vt 0.85840 0.13797
vt 0.86995 0.07230
vt 1.86883 0.14125
vt 1.88085 0.07285
vt 1.85840 0.13797
vt 1.86995 0.07230
vt 1.89386 0.05247
vt 1.94140 0.05248
vt 0.94140 0.05248
vt 0.89386 0.05247
vt 0.82296 0.14636
vt 0.82295 0.12052
vt 0.84886 0.14640
vt 0.84886 0.12048
vt 1.82295 0.12052
vt 1.84886 0.14640
vt 1.84886 0.12048
vt 1.82296 0.14636
vt 0.96144 0.40125
vt 0.97216 0.40125
vt 0.97187 0.40989
vt 0.96173 0.40989
vt 0.37672 0.92897
vt 0.35434 0.98160
vt 0.35434 0.92794
vt 0.37672 0.98057
vt 0.32183 0.98267
vt 0.32183 0.92686
vt 0.54002 0.86940
vt 0.51418 0.86941
vt 1.54002 0.86940
vt 1.51418 0.86941
vt 0.96114 0.39136
vt 0.97246 0.39136
vt 0.99377 0.40668
vt 0.97987 0.36086
vt 0.99377 0.36086
vt 0.97987 0.40668
vt 1.99377 0.40668
vt 1.99377 0.36086
vt 1.97987 0.36086
vt 1.97987 0.40668
vt 0.01232 0.31507
vt 0.00293 0.28411
vt 0.01232 0.28411
vt 0.00293 0.31507
vt 1.01232 0.31507
vt 1.00293 0.28411
vt 1.00293 0.31507
vt 1.01232 0.28411
vt 0.94141 0.00294
vt 0.89387 0.00293
vt 1.94141 0.00294
vt 1.89387 0.00293
vt 0.13500 0.51834
vt 0.16142 0.52956
vt 0.13500 0.52956
vt 0.16142 0.51834
vt 0.16142 0.58681
vt 0.13500 0.58681
vt 0.13058 0.58681
vt 0.13058 0.52956
vt 0.10417 0.52956
vt 0.10417 0.58681
vt 0.10417 0.51834
vt 0.13058 0.51834
vt 0.50563 0.90569
vt 0.50563 0.96294
vt 0.47921 0.90569
vt 0.47921 0.96294
vt 0.47921 0.89447
vt 0.50563 0.89447
vt 0.47479 0.96294
vt 0.47479 0.90569
vt 0.44838 0.90569
vt 0.44838 0.96294
vt 0.44838 0.89447
vt 0.47479 0.89447
vt 1.13058 0.52956
vt 1.10417 0.51834
vt 1.10417 0.52956
vt 1.13058 0.51834
vt 1.13058 0.58681
vt 1.10417 0.58681
vt 1.13500 0.52956
vt 1.13500 0.58681
vt 1.16142 0.58681
vt 1.16142 0.52956
vt 1.13500 0.51834
vt 1.16142 0.51834
vt 1.44838 0.89447
vt 1.47479 0.90569
vt 1.47479 0.89447
vt 1.44838 0.90569
vt 1.47479 0.96294
vt 1.44838 0.96294
vt 1.47921 0.90569
vt 1.47921 0.96294
vt 1.50563 0.96294
vt 1.50563 0.90569
vt 1.47921 0.89447
vt 1.50563 0.89447
vt 0.63098 0.58535
vt 0.62071 0.58248
vt 1.63098 0.58535
vt 1.62071 0.58248
vt 0.50143 0.45371
vt 0.52549 0.42361
vt 0.52550 0.46405
vt 0.50142 0.43396
vt 0.31594 0.93346
vt 0.28134 0.96808
vt 0.28133 0.93347
vt 0.31595 0.96808
vt 0.73344 0.80435
vt 0.77377 0.85105
vt 0.73140 0.85105
vt 0.77173 0.80435
vt 0.72919 0.89254
vt 0.77597 0.89254
vt 0.72678 0.92192
vt 0.77839 0.92192
vt 0.88722 0.22034
vt 0.87162 0.23708
vt 0.96621 0.50556
vt 0.98767 0.50556
vt 0.87141 0.24744
vt 0.88710 0.26417
vt 0.96505 0.48724
vt 0.98882 0.48724
vt 0.85839 0.00517
vt 0.86881 0.00293
vt 1.85839 0.00517
vt 1.86881 0.00293
vn 0.9843 0.1732 0.0000
vn 0.9921 0.1339 0.0000
vn -0.9843 0.1890 0.0000
vn 0.0000 0.8032 0.5906
vn 0.0000 0.8032 -0.5906
vn 0.7480 0.6614 0.0000
vn 0.6693 0.7402 0.0000
vn -1.0000 0.0787 0.0000
vn -0.9449 0.3386 0.0000
vn -0.9764 0.2283 0.0000
vn -0.9213 0.3858 0.0000
vn 0.6142 0.7874 0.0000
vn 0.2283 0.9764 0.0000
vn 0.0000 1.0000 0.0000
vn 1.0000 0.0000 0.0000
vn 0.0000 -0.1654 0.9843
vn 0.0000 -0.1654 -0.9843
vn -0.5039 0.8583 0.0000
vn -0.4961 0.8661 0.0000
vn -0.4803 0.8740 0.0000
vn -0.9685 -0.2598 0.0000
vn 1.0000 0.0157 0.0000
vn 0.6535 0.7559 0.0000
vn -0.5669 0.8189 0.0000
vn 0.0000 0.9449 -0.3150
vn 0.0000 0.9449 0.3150
vn -0.1024 0.5276 0.8425
vn -1.0000 0.0000 0.0000
vn -0.1024 0.5276 -0.8425
vn 0.0000 -1.0000 0.0000
vn 1.0000 -0.0394 0.0000
vn 0.7323 -0.6850 0.0000
vn 0.7165 -0.6929 0.0000
vn 0.7165 -0.7008 0.0000
vn 0.0000 -0.5433 0.8346
vn 0.0000 -0.5433 -0.8346
vn 0.7087 -0.7087 0.0000
vn -0.1890 0.7874 0.5906
vn -0.1890 0.7874 -0.5906
vn -0.3780 0.9291 0.0000
vn 0.2205 0.0787 0.9685
vn 0.2205 0.0787 -0.9685
vn 0.0000 -0.0472 1.0000
vn 0.0000 -0.0472 -1.0000
vn 0.0079 -0.0551 1.0000
vn 0.0079 -0.0551 -1.0000
vn -0.0079 -0.0394 1.0000
vn -0.0079 -0.0394 -1.0000
vn 0.0000 0.0000 1.0000
vn 0.0000 0.0000 -1.0000
vn 0.1024 0.9921 0.0000
vn -0.1102 0.9921 0.0000
vn 0.0000 0.1417 0.9921
vn 0.0000 0.1417 -0.9921
vn -0.1890 -0.9843 0.0000
vn -0.2126 -0.0709 0.9764
vn -0.2126 -0.0709 -0.9764
vn 0.1181 0.3780 0.9213
vn 0.1181 0.3780 -0.9213
vn -0.2677 -0.0709 0.9606
vn -0.2677 -0.0709 -0.9606
vn 0.2205 -0.9764 0.0000
vn -0.1102 -0.0315 0.9921
vn -0.1102 -0.0315 -0.9921
vn 0.0866 0.3858 0.9213
vn 0.0866 0.3858 -0.9213
vn -0.1024 -0.0315 0.9921
vn -0.1024 -0.0315 -0.9921
vn -0.6142 -0.7953 0.0000
vn -1.0000 -0.0551 0.0000
vn -1.0000 -0.0709 0.0000
vn 0.1024 -0.9921 0.0000
vn -0.0157 -1.0000 0.0000
vn 0.2441 0.9685 0.0000
vn -0.2441 0.9685 0.0000
vn -0.2913 0.9528 0.0000
vn 0.3937 -0.9213 0.0000
vn 0.5512 -0.8346 0.0000
vn 0.0787 0.0079 1.0000
vn 0.0787 0.0079 -1.0000
vn 0.0709 0.0236 1.0000
vn 0.0709 0.0236 -1.0000
vn 0.0709 0.0315 1.0000
vn 0.0709 0.0315 -1.0000
vn 0.0551 0.0236 1.0000
vn 0.0551 0.0236 -1.0000
vn 0.0630 0.0079 1.0000
vn 0.0630 0.0079 -1.0000
vn -0.0236 -0.0079 1.0000
vn -0.0079 0.0000 1.0000
vn -0.0315 -0.0315 1.0000
vn -0.0236 -0.0551 1.0000
vn -0.0236 -0.0394 1.0000
vn -0.0315 -0.0157 1.0000
vn -0.0079 0.0000 -1.0000
vn -0.0236 -0.0079 -1.0000
vn -0.0315 -0.0315 -1.0000
vn -0.0236 -0.0551 -1.0000
vn -0.0236 -0.0394 -1.0000
vn -0.0315 -0.0157 -1.0000
vn -0.1968 0.9764 0.0000
vn 0.3307 -0.9449 0.0000
vn 0.0630 -0.0236 1.0000
vn -0.2205 0.9764 0.0000
vn 0.0630 -0.0236 -1.0000
vn 0.0472 -0.0394 1.0000
vn 0.0472 -0.0394 -1.0000
vn -0.1811 -0.9843 0.0000
vn 0.1181 -0.9921 0.0000
vn 0.2835 -0.9606 0.0000
vn -0.2362 0.9685 0.0000
vn 0.0236 0.0157 1.0000
vn 0.0236 0.0157 -1.0000
vn 0.0236 0.0236 1.0000
vn 0.0236 0.0236 -1.0000
vn -0.0630 1.0000 0.0000
vn -0.2913 0.9606 0.0000
vn 0.2047 0.9764 0.0000
vn 0.4094 -0.9134 0.0000
vn 0.2283 -0.9764 0.0000
vn 0.1890 0.9843 0.0000
vn 0.0000 0.0709 -1.0000
vn 0.0000 0.0709 1.0000
vn 0.8898 0.4488 0.0000
vn 0.4331 -0.9055 0.0000
vn -0.9843 -0.1890 0.0000
vn 0.1496 -0.9921 0.0000
vn -0.2677 0.5276 -0.8032
vn -0.2677 0.5276 0.8032
vn -0.3543 -0.8898 0.2992
vn -0.3543 -0.8898 -0.2992
vn 0.0000 -0.8032 0.5984
vn 0.0000 -0.8032 -0.5984
vn 0.9685 0.2598 0.0000
vn -0.6614 0.7480 0.0000
vn 0.3465 -0.9370 0.0000
vn 0.4252 -0.9055 0.0000
vn 0.4016 -0.9134 0.0000
vn -0.6693 0.7402 0.0000
vn -0.6772 0.7323 0.0000
vn 0.0000 -0.5276 -0.8504
vn 0.0000 -0.5276 0.8504
vn 0.6063 -0.1181 0.7874
vn 0.6063 -0.1181 -0.7874
vn -0.1890 0.1575 -0.9685
vn -0.1890 0.1575 0.9685
vn -0.7874 0.6220 0.0000
vn -0.9370 -0.3543 0.0000
vn -0.8032 0.5906 0.0000
vn 0.8583 -0.5197 0.0000
vn 0.9528 -0.2992 0.0000
vn 0.9685 -0.2520 0.0000
vn 0.8898 -0.4567 0.0000
vn -0.3307 -0.7795 0.5276
vn -0.5354 -0.8425 0.0000
vn -0.3307 -0.7795 -0.5276
vn -0.5669 -0.8189 0.0000
vn -0.6378 -0.7717 0.0000
vn 0.7717 0.6378 0.0000
vn -0.3150 -0.7638 -0.5669
vn -0.3150 -0.7638 0.5669
vn -0.7559 -0.6535 0.0000

o animal_elephant
usemtl tex_animal_elephant_i015p001x
f 1/1/1 2/2/1 3/3/1
f 1/1/1 4/4/1 2/2/1
f 5/5/2 4/4/2 1/1/2
f 5/5/2 6/6/2 4/4/2
f 7/7/3 8/8/3 9/9/3
f 7/7/3 9/9/3 10/10/3
f 8/8/3 11/11/3 9/9/3
f 12/12/3 7/7/3 10/10/3
f 8/8/3 13/13/3 11/11/3
f 7/7/3 12/12/3 14/14/3
f 14/14/3 11/11/3 13/13/3
f 11/11/3 14/14/3 12/12/3
f 15/15/3 16/16/3 17/17/3
f 16/16/3 15/15/3 18/18/3
f 19/19/4 20/20/4 21/21/4
f 22/22/4 19/19/4 21/21/4
f 23/23/5 24/24/5 25/25/5
f 25/25/5 24/24/5 26/26/5
f 27/27/6 28/28/6 29/29/6
f 27/27/6 30/30/6 28/28/6
f 31/31/7 32/32/7 29/29/7
f 31/31/7 29/29/7 28/28/7
f 33/33/8 34/34/9 35/35/9
f 33/33/8 36/36/8 34/34/9
f 37/37/10 36/36/8 33/33/8
f 37/37/10 38/38/10 36/36/8
f 39/39/11 38/38/10 37/37/10
f 39/39/11 40/40/11 38/38/10
f 41/41/12 42/42/12 32/32/12
f 41/41/12 32/32/12 31/31/12
f 43/43/13 3/44/13 44/45/13
f 44/45/13 3/44/13 2/46/13
f 45/47/14 46/48/14 47/49/14
f 48/50/14 45/47/14 47/49/14
f 49/51/15 50/52/15 51/53/15
f 50/52/15 52/54/15 51/53/15
f 53/55/16 20/56/16 54/57/16
f 19/58/16 54/57/16 20/56/16
f 55/59/17 26/60/17 56/61/17
f 55/59/17 25/62/17 26/60/17
f 39/39/18 57/63/19 40/40/18
f 40/40/18 57/63/19 58/64/19
f 58/65/19 57/66/19 59/67/20
f 58/65/19 59/67/20 60/68/20
f 61/69/14 62/70/14 63/71/14
f 64/72/14 63/71/14 62/70/14
f 65/73/14 66/74/14 67/75/14
f 66/74/14 65/73/14 68/76/14
f 69/77/21 70/78/21 71/79/21
f 70/78/21 69/77/21 72/80/21
f 73/81/21 74/82/21 75/83/21
f 73/81/21 76/84/21 74/82/21
f 77/85/22 78/86/22 79/87/22
f 78/86/22 77/85/22 80/88/22
f 81/89/22 82/90/22 83/91/22
f 82/90/22 81/89/22 84/92/22
f 85/93/14 86/94/14 87/95/14
f 88/96/14 87/95/14 86/94/14
f 89/97/14 90/98/14 91/99/14
f 90/98/14 89/97/14 92/100/14
f 93/101/23 94/102/23 51/53/23
f 93/101/23 51/53/23 52/54/23
f 95/103/24 96/104/24 97/105/24
f 96/104/24 95/103/24 98/106/24
f 99/107/24 100/108/24 101/109/24
f 100/108/24 99/107/24 102/110/24
f 21/21/25 103/111/25 22/22/25
f 104/112/25 22/22/25 103/111/25
f 23/23/26 105/113/26 106/114/26
f 23/23/26 106/114/26 24/24/26
f 107/115/27 108/116/27 109/117/27
f 109/117/27 108/116/27 110/118/27
f 85/119/28 111/120/28 86/121/28
f 111/120/28 85/119/28 112/122/28
f 91/123/28 113/124/28 114/125/28
f 91/123/28 90/126/28 113/124/28
f 115/127/29 116/128/29 117/129/29
f 118/130/29 115/127/29 117/129/29
f 119/131/30 120/132/30 121/133/30
f 119/131/30 122/134/30 120/132/30
f 120/132/30 123/135/30 121/133/30
f 123/135/30 120/132/30 124/136/30
f 124/136/30 120/132/30 125/137/30
f 125/137/30 126/138/30 124/136/30
f 127/139/30 126/138/30 125/137/30
f 126/138/30 127/139/30 128/140/30
f 129/141/30 127/139/30 125/137/30
f 129/141/30 130/142/30 127/139/30
f 131/143/30 132/144/30 133/145/30
f 131/143/30 134/146/30 132/144/30
f 132/144/30 135/147/30 133/145/30
f 135/147/30 132/144/30 136/148/30
f 136/148/30 132/144/30 137/149/30
f 137/149/30 138/150/30 136/148/30
f 139/151/30 138/150/30 137/149/30
f 138/150/30 139/151/30 140/152/30
f 141/153/30 139/151/30 137/149/30
f 141/153/30 142/154/30 139/151/30
f 143/155/31 144/156/31 145/157/31
f 144/156/31 146/158/31 145/157/31
f 146/158/31 147/159/31 145/157/31
f 147/159/31 146/158/31 148/160/31
f 149/161/30 150/162/30 151/163/30
f 150/162/30 149/161/30 152/164/30
f 152/164/30 153/165/30 150/162/30
f 150/162/30 153/165/30 154/166/30
f 152/164/30 155/167/30 153/165/30
f 156/168/30 155/167/30 152/164/30
f 156/168/30 157/169/30 155/167/30
f 158/170/30 157/169/30 156/168/30
f 156/168/30 159/171/30 158/170/30
f 159/171/30 156/168/30 160/172/30
f 161/173/30 162/174/30 163/175/30
f 162/174/30 161/173/30 164/176/30
f 164/176/30 165/177/30 162/174/30
f 162/174/30 165/177/30 166/178/30
f 164/176/30 167/179/30 165/177/30
f 168/180/30 167/179/30 164/176/30
f 168/180/30 169/181/30 167/179/30
f 170/182/30 169/181/30 168/180/30
f 168/180/30 171/183/30 170/182/30
f 171/183/30 168/180/30 172/184/30
f 173/185/31 174/186/31 175/187/31
f 176/188/31 174/186/31 173/185/31
f 174/186/31 177/189/31 175/187/31
f 175/187/31 177/189/31 178/190/31
f 62/191/28 179/192/28 180/193/28
f 179/192/28 62/191/28 61/194/28
f 66/195/28 181/196/28 67/197/28
f 181/196/28 66/195/28 182/198/28
f 135/199/15 183/200/15 184/201/15
f 135/199/15 136/202/15 183/200/15
f 138/203/15 183/200/15 136/202/15
f 183/200/15 138/203/15 185/204/15
f 138/203/15 186/205/15 185/204/15
f 138/203/15 140/206/15 186/205/15
f 165/207/15 187/208/15 166/209/15
f 187/208/15 165/207/15 188/210/15
f 165/207/15 189/211/15 188/210/15
f 167/212/15 189/211/15 165/207/15
f 169/213/15 189/211/15 167/212/15
f 189/211/15 169/213/15 190/214/15
f 147/159/32 148/160/32 77/85/32
f 80/88/32 77/85/32 148/160/32
f 178/190/32 81/89/32 83/91/32
f 178/190/32 177/189/32 81/89/32
f 191/215/33 192/216/33 193/217/33
f 191/215/33 194/218/33 192/216/33
f 195/219/34 194/218/34 191/215/34
f 195/219/34 196/220/34 194/218/34
f 45/221/28 197/222/28 198/223/28
f 197/222/28 45/221/28 48/224/28
f 199/225/35 200/226/35 53/55/35
f 54/57/35 199/225/35 53/55/35
f 201/227/36 56/61/36 202/228/36
f 55/59/36 56/61/36 201/227/36
f 203/229/37 196/220/37 195/219/37
f 203/229/37 204/230/37 196/220/37
f 205/231/38 109/117/38 110/118/38
f 109/117/38 205/231/38 206/232/38
f 115/127/39 207/233/39 116/128/39
f 207/233/39 115/127/39 208/234/39
f 96/104/40 72/235/40 97/105/40
f 72/235/40 96/104/40 70/236/40
f 100/108/40 76/237/40 73/238/40
f 76/237/40 100/108/40 102/110/40
f 51/239/41 209/240/41 49/241/41
f 209/240/41 51/239/41 94/242/41
f 209/240/41 94/242/41 210/243/41
f 211/244/42 52/245/42 50/246/42
f 52/245/42 211/244/42 93/247/42
f 211/244/42 212/248/42 93/247/42
f 213/249/43 214/250/43 215/251/43
f 214/250/43 216/252/43 215/251/43
f 217/253/43 216/252/43 214/250/43
f 216/252/43 217/253/43 218/254/43
f 219/255/43 220/256/43 147/257/43
f 220/256/43 145/258/43 147/257/43
f 221/259/43 145/258/43 220/256/43
f 145/258/43 221/259/43 143/260/43
f 222/261/44 223/262/44 224/263/44
f 223/262/44 222/261/44 225/264/44
f 224/263/44 226/265/44 222/261/44
f 226/265/44 224/263/44 227/266/44
f 177/267/44 228/268/44 229/269/44
f 228/268/44 177/267/44 174/270/44
f 174/270/44 230/271/44 228/268/44
f 230/271/44 174/270/44 176/272/44
f 231/273/45 232/274/45 233/275/45
f 233/275/45 234/276/45 231/273/45
f 235/277/46 236/278/46 237/279/46
f 236/278/46 235/277/46 238/280/46
f 239/281/47 79/282/47 240/283/47
f 79/282/47 239/281/47 77/284/47
f 84/285/48 241/286/48 242/287/48
f 241/286/48 84/285/48 81/288/48
f 213/249/49 215/251/49 232/274/49
f 232/274/49 215/251/49 233/275/49
f 219/255/49 147/257/49 239/281/49
f 239/281/49 147/257/49 77/284/49
f 237/279/50 226/265/50 227/266/50
f 237/279/50 236/278/50 226/265/50
f 241/286/50 177/267/50 229/269/50
f 241/286/50 81/288/50 177/267/50
f 243/289/49 119/290/49 121/291/49
f 243/289/49 121/291/49 244/292/49
f 121/291/49 245/293/49 244/292/49
f 245/293/49 121/291/49 123/294/49
f 246/295/49 131/296/49 133/297/49
f 246/295/49 133/297/49 247/298/49
f 133/297/49 184/299/49 247/298/49
f 184/299/49 133/297/49 135/300/49
f 248/301/50 158/302/50 159/303/50
f 158/302/50 248/301/50 249/304/50
f 249/304/50 250/305/50 158/302/50
f 158/302/50 250/305/50 157/306/50
f 251/307/50 170/308/50 171/309/50
f 170/308/50 251/307/50 252/310/50
f 252/310/50 190/311/50 170/308/50
f 170/308/50 190/311/50 169/312/50
f 94/313/51 93/314/51 210/315/51
f 212/316/51 210/315/51 93/314/51
f 253/317/52 254/318/52 255/319/52
f 255/319/52 254/318/52 256/320/52
f 254/318/14 253/317/14 210/315/14
f 254/318/14 210/315/14 212/316/14
f 45/321/53 198/322/53 257/323/53
f 45/321/53 257/323/53 46/324/53
f 48/325/54 47/326/54 197/327/54
f 197/327/54 47/326/54 258/328/54
f 255/329/28 259/330/28 260/331/28
f 259/330/28 255/329/28 256/332/28
f 8/333/55 261/334/55 262/335/55
f 8/333/55 7/336/55 261/334/55
f 210/243/49 263/337/49 209/240/49
f 263/337/49 210/243/49 253/338/49
f 264/339/50 212/248/50 211/244/50
f 264/339/50 254/340/50 212/248/50
f 265/341/56 253/338/56 260/342/56
f 260/342/56 253/338/56 255/343/56
f 253/338/56 265/341/56 263/337/56
f 259/344/57 254/340/57 266/345/57
f 266/345/57 254/340/57 264/339/57
f 254/340/57 259/344/57 256/346/57
f 1/347/58 267/348/58 5/349/58
f 267/348/58 1/347/58 268/350/58
f 4/351/59 269/352/59 270/353/59
f 269/352/59 4/351/59 6/354/59
f 206/232/60 271/355/60 272/356/60
f 271/355/60 206/232/60 205/231/60
f 208/234/61 273/357/61 207/233/61
f 273/357/61 208/234/61 274/358/61
f 211/359/62 49/360/62 209/361/62
f 49/360/62 211/359/62 50/362/62
f 199/363/28 107/364/28 275/365/28
f 54/366/28 107/364/28 199/363/28
f 275/365/28 107/364/28 109/367/28
f 107/364/28 54/366/28 276/368/28
f 206/369/28 275/365/28 109/367/28
f 54/366/28 277/370/28 276/368/28
f 275/365/28 206/369/28 278/371/28
f 277/370/28 54/366/28 19/372/28
f 272/373/28 278/371/28 206/369/28
f 22/374/28 277/370/28 19/372/28
f 278/371/28 272/373/28 104/375/28
f 272/373/28 22/374/28 104/375/28
f 277/370/28 22/374/28 279/376/28
f 22/374/28 272/373/28 279/376/28
f 201/377/28 280/378/28 118/379/28
f 118/379/28 55/380/28 201/377/28
f 280/378/28 115/381/28 118/379/28
f 55/380/28 118/379/28 281/382/28
f 280/378/28 208/383/28 115/381/28
f 281/382/28 282/384/28 55/380/28
f 208/383/28 280/378/28 283/385/28
f 25/386/28 55/380/28 282/384/28
f 283/385/28 274/387/28 208/383/28
f 282/384/28 23/388/28 25/386/28
f 274/387/28 283/385/28 105/389/28
f 105/389/28 23/388/28 274/387/28
f 23/388/28 282/384/28 284/390/28
f 23/388/28 284/390/28 274/387/28
f 285/391/49 129/392/49 125/393/49
f 285/391/49 125/393/49 286/394/49
f 287/395/49 141/396/49 137/397/49
f 287/395/49 137/397/49 288/398/49
f 289/399/50 152/400/50 149/401/50
f 152/400/50 289/399/50 290/402/50
f 291/403/50 164/404/50 161/405/50
f 164/404/50 291/403/50 292/406/50
f 97/407/63 69/408/63 293/409/63
f 69/408/63 97/407/63 72/410/63
f 102/411/64 74/412/64 76/413/64
f 74/412/64 102/411/64 294/414/64
f 3/415/65 268/350/65 1/347/65
f 268/350/65 3/415/65 43/416/65
f 2/417/66 270/353/66 44/418/66
f 270/353/66 2/417/66 4/351/66
f 243/419/28 122/420/28 119/421/28
f 122/420/28 243/419/28 295/422/28
f 285/423/28 130/424/28 129/425/28
f 130/424/28 285/423/28 296/426/28
f 297/427/28 289/428/28 151/429/28
f 289/428/28 149/430/28 151/429/28
f 298/431/28 248/432/28 160/433/28
f 248/432/28 159/434/28 160/433/28
f 293/409/67 299/435/67 97/407/67
f 95/436/67 97/407/67 299/435/67
f 102/411/68 300/437/68 294/414/68
f 300/437/68 102/411/68 99/438/68
f 260/331/69 266/439/69 265/440/69
f 260/331/69 259/330/69 266/439/69
f 213/441/70 301/442/70 214/443/70
f 213/441/70 302/444/70 301/442/70
f 303/445/70 214/443/70 301/442/70
f 214/443/70 303/445/70 217/446/70
f 304/447/71 232/448/71 231/449/71
f 232/448/71 304/447/71 305/450/71
f 306/451/71 237/452/71 307/453/71
f 306/451/71 235/454/71 237/452/71
f 224/455/70 308/456/70 309/457/70
f 308/456/70 224/455/70 223/458/70
f 309/457/70 227/459/70 224/455/70
f 227/459/70 309/457/70 310/460/70
f 311/461/28 110/462/28 108/463/28
f 312/464/28 110/462/28 311/461/28
f 312/464/28 205/465/28 110/462/28
f 205/465/28 312/464/28 313/466/28
f 313/466/28 271/467/28 205/465/28
f 314/468/28 117/469/28 116/470/28
f 116/470/28 315/471/28 314/468/28
f 315/471/28 116/470/28 207/472/28
f 315/471/28 207/472/28 316/473/28
f 316/473/28 207/472/28 273/474/28
f 232/448/28 302/444/28 213/441/28
f 302/444/28 232/448/28 305/450/28
f 237/452/28 310/460/28 307/453/28
f 310/460/28 237/452/28 227/459/28
f 263/475/72 211/359/72 209/361/72
f 263/475/72 264/476/72 211/359/72
f 286/477/28 125/478/28 120/479/28
f 120/479/28 317/480/28 286/477/28
f 290/481/28 156/482/28 152/483/28
f 318/484/28 156/482/28 290/481/28
f 266/485/73 263/475/73 265/486/73
f 263/475/73 266/485/73 264/476/73
f 240/487/74 79/488/74 78/489/74
f 319/490/74 240/487/74 78/489/74
f 242/491/74 82/492/74 84/493/74
f 320/494/74 82/492/74 242/491/74
f 11/495/55 18/496/55 15/497/55
f 11/495/55 12/498/55 18/496/55
f 62/499/49 180/500/49 321/501/49
f 62/499/49 321/501/49 64/502/49
f 322/503/75 323/504/75 42/42/75
f 322/503/75 42/42/75 41/41/75
f 66/505/50 324/506/50 182/507/50
f 324/506/50 66/505/50 68/508/50
f 86/509/49 111/510/49 325/511/49
f 86/509/49 325/511/49 88/512/49
f 90/513/50 326/514/50 113/515/50
f 326/514/50 90/513/50 92/516/50
f 327/517/76 328/518/76 329/519/76
f 328/518/76 327/517/76 330/520/76
f 327/517/76 329/519/76 323/504/76
f 327/517/76 323/504/76 322/503/76
f 331/521/77 204/230/77 203/229/77
f 331/521/77 332/522/77 204/230/77
f 333/523/77 332/522/77 331/521/77
f 333/523/77 334/524/77 332/522/77
f 335/525/78 336/526/78 337/527/78
f 335/525/78 338/528/78 336/526/78
f 27/529/79 339/530/79 333/531/79
f 333/531/79 340/532/79 27/529/79
f 30/533/80 334/534/80 341/535/80
f 334/534/80 30/533/80 342/536/80
f 333/531/81 343/537/81 340/532/81
f 343/537/81 333/531/81 331/538/81
f 334/534/82 344/539/82 332/540/82
f 344/539/82 334/534/82 342/536/82
f 345/541/83 331/538/83 203/542/83
f 331/538/83 345/541/83 343/537/83
f 346/543/84 332/540/84 344/539/84
f 332/540/84 346/543/84 204/544/84
f 13/545/49 8/546/49 262/547/49
f 13/545/49 262/547/49 347/548/49
f 14/549/50 261/550/50 7/551/50
f 261/550/50 14/549/50 348/552/50
f 328/553/85 349/554/85 350/555/85
f 350/555/85 329/556/85 328/553/85
f 329/556/85 350/555/85 335/557/85
f 335/557/85 323/558/85 329/556/85
f 351/559/86 327/560/86 352/561/86
f 327/560/86 351/559/86 330/562/86
f 327/560/86 338/563/86 352/561/86
f 338/563/86 327/560/86 322/564/86
f 323/558/87 335/557/87 337/565/87
f 337/565/87 42/566/87 323/558/87
f 322/564/88 336/567/88 338/563/88
f 336/567/88 322/564/88 41/568/88
f 215/569/32 353/570/32 233/571/32
f 354/572/32 233/571/32 353/570/32
f 355/573/32 236/574/32 356/575/32
f 355/573/32 226/576/32 236/574/32
f 357/577/89 358/578/90 359/579/89
f 358/578/90 357/577/89 360/580/90
f 359/579/89 35/581/91 357/577/89
f 35/581/91 359/579/89 361/582/91
f 362/583/92 35/581/91 361/582/91
f 362/583/92 33/584/92 35/581/91
f 33/584/92 362/583/92 363/585/92
f 37/586/92 33/584/92 363/585/92
f 364/587/93 37/586/92 363/585/92
f 364/587/93 39/588/93 37/586/92
f 364/587/93 57/589/94 39/588/93
f 57/589/94 364/587/93 365/590/94
f 366/591/94 57/589/94 365/590/94
f 57/589/94 366/591/94 59/592/94
f 367/593/95 368/594/96 369/595/96
f 368/594/96 367/593/95 370/596/95
f 369/595/96 368/594/96 34/597/97
f 371/598/97 369/595/96 34/597/97
f 34/597/97 372/599/98 371/598/97
f 372/599/98 34/597/97 36/600/98
f 36/600/98 373/601/98 372/599/98
f 373/601/98 36/600/98 38/602/98
f 38/602/98 374/603/99 373/601/98
f 374/603/99 38/602/98 40/604/99
f 374/603/99 40/604/99 58/605/100
f 58/605/100 375/606/100 374/603/99
f 375/606/100 58/605/100 60/607/100
f 376/608/100 375/606/100 60/607/100
f 304/609/101 231/610/101 377/611/101
f 231/610/101 234/612/101 377/611/101
f 378/613/101 235/614/101 306/615/101
f 235/614/101 378/613/101 238/616/101
f 339/617/102 334/524/102 333/523/102
f 339/617/102 341/618/102 334/524/102
f 32/619/103 337/565/103 379/620/103
f 337/565/103 32/619/103 42/566/103
f 344/621/104 343/622/104 345/623/104
f 344/621/104 345/623/104 346/624/104
f 31/625/105 380/626/105 336/567/105
f 41/568/105 31/625/105 336/567/105
f 381/627/103 27/529/103 29/628/103
f 27/529/103 381/627/103 339/530/103
f 30/533/105 341/535/105 382/629/105
f 30/533/105 382/629/105 28/630/105
f 29/628/106 379/620/106 381/627/106
f 379/620/106 29/628/106 32/619/106
f 28/630/107 382/629/107 380/626/107
f 28/630/107 380/626/107 31/625/107
f 358/631/108 369/632/109 359/633/109
f 369/632/109 358/631/108 367/634/108
f 371/635/110 359/633/109 369/632/109
f 359/633/109 371/635/110 361/636/110
f 342/637/111 340/638/111 343/622/111
f 342/637/111 343/622/111 344/621/111
f 203/542/112 195/639/112 345/541/112
f 195/639/112 383/640/112 345/541/112
f 346/543/113 196/641/113 204/544/113
f 196/641/113 346/543/113 384/642/113
f 191/643/114 385/644/114 383/640/114
f 191/643/114 383/640/114 195/639/114
f 384/642/115 194/645/115 196/641/115
f 194/645/115 384/642/115 386/646/115
f 191/643/114 387/647/114 385/644/114
f 387/647/114 191/643/114 193/648/114
f 194/645/115 388/649/115 192/650/115
f 388/649/115 194/645/115 386/646/115
f 368/651/116 357/652/116 35/653/117
f 368/651/116 35/653/117 34/654/117
f 370/655/118 357/652/116 368/651/116
f 370/655/118 360/656/118 357/652/116
f 349/657/119 352/658/119 350/659/119
f 349/657/119 351/660/119 352/658/119
f 352/658/119 335/525/119 350/659/119
f 335/525/119 352/658/119 338/528/119
f 30/30/76 27/27/76 340/638/76
f 30/30/76 340/638/76 342/637/76
f 233/571/22 377/661/22 234/662/22
f 377/661/22 233/571/22 354/572/22
f 236/574/22 378/663/22 356/575/22
f 378/663/22 236/574/22 238/664/22
f 11/665/50 17/666/50 9/667/50
f 17/666/50 11/665/50 15/668/50
f 12/669/49 10/670/49 16/671/49
f 12/669/49 16/671/49 18/672/49
f 179/673/50 63/674/50 389/675/50
f 63/674/50 179/673/50 61/676/50
f 390/677/49 65/678/49 181/679/49
f 67/680/49 181/679/49 65/678/49
f 218/681/31 391/682/31 216/683/31
f 391/682/31 392/684/31 216/683/31
f 392/684/31 215/569/31 216/683/31
f 215/569/31 392/684/31 353/570/31
f 393/685/31 222/686/31 394/687/31
f 225/688/31 222/686/31 393/685/31
f 222/686/31 226/576/31 394/687/31
f 394/687/31 226/576/31 355/573/31
f 257/689/15 258/690/15 46/691/15
f 258/690/15 47/692/15 46/691/15
f 123/693/15 395/694/15 245/695/15
f 123/693/15 124/696/15 395/694/15
f 126/697/15 395/694/15 124/696/15
f 395/694/15 126/697/15 396/698/15
f 126/697/15 397/699/15 396/698/15
f 126/697/15 128/700/15 397/699/15
f 153/701/15 398/702/15 154/703/15
f 398/702/15 153/701/15 399/704/15
f 153/701/15 400/705/15 399/704/15
f 155/706/15 400/705/15 153/701/15
f 157/707/15 400/705/15 155/706/15
f 400/705/15 157/707/15 250/708/15
f 112/709/50 87/710/50 401/711/50
f 112/709/50 85/712/50 87/710/50
f 402/713/49 89/714/49 114/715/49
f 91/716/49 114/715/49 89/714/49
f 6/717/120 5/718/120 193/719/120
f 6/717/120 193/719/120 192/720/120
f 96/721/64 71/722/64 70/723/64
f 71/722/64 96/721/64 403/724/64
f 75/725/63 100/726/63 73/727/63
f 100/726/63 75/725/63 404/728/63
f 96/721/68 405/729/68 403/724/68
f 405/729/68 96/721/68 98/730/68
f 406/731/67 100/726/67 404/728/67
f 100/726/67 406/731/67 101/732/67
f 53/733/15 200/734/15 407/735/15
f 407/735/15 20/736/15 53/733/15
f 20/736/15 407/735/15 408/737/15
f 20/736/15 408/737/15 21/738/15
f 21/738/15 408/737/15 103/739/15
f 56/740/15 409/741/15 202/742/15
f 26/743/15 409/741/15 56/740/15
f 26/743/15 410/744/15 409/741/15
f 410/744/15 26/743/15 24/745/15
f 410/744/15 24/745/15 106/746/15
f 14/747/121 13/748/121 347/749/121
f 14/747/121 347/749/121 348/750/121
f 278/751/122 104/752/122 408/753/122
f 103/754/122 408/753/122 104/752/122
f 410/755/123 105/756/123 283/757/123
f 105/756/123 410/755/123 106/758/123
f 197/759/30 257/760/30 198/761/30
f 257/760/30 197/759/30 258/762/30
f 309/763/43 394/764/43 355/765/43
f 310/766/43 309/763/43 355/765/43
f 309/763/43 308/767/43 394/764/43
f 308/767/43 393/768/43 394/764/43
f 411/769/43 412/770/43 178/771/43
f 412/770/43 175/772/43 178/771/43
f 412/770/43 413/773/43 175/772/43
f 413/773/43 173/774/43 175/772/43
f 301/775/44 392/776/44 303/777/44
f 303/777/44 392/776/44 391/778/44
f 301/775/44 353/779/44 392/776/44
f 353/779/44 301/775/44 302/780/44
f 414/781/44 146/782/44 144/783/44
f 415/784/44 146/782/44 414/781/44
f 415/784/44 148/785/44 146/782/44
f 148/785/44 415/784/44 416/786/44
f 304/787/46 354/788/46 305/789/46
f 354/788/46 304/787/46 377/790/46
f 356/791/45 306/792/45 307/793/45
f 306/792/45 356/791/45 378/794/45
f 417/795/48 78/796/48 80/797/48
f 78/796/48 417/795/48 319/798/48
f 418/799/47 83/800/47 82/801/47
f 320/802/47 418/799/47 82/801/47
f 305/789/50 353/779/50 302/780/50
f 353/779/50 305/789/50 354/788/50
f 417/795/50 148/785/50 416/786/50
f 148/785/50 417/795/50 80/797/50
f 355/765/49 307/793/49 310/766/49
f 307/793/49 355/765/49 356/791/49
f 178/771/49 418/799/49 411/769/49
f 418/799/49 178/771/49 83/800/49
f 130/803/50 419/804/50 127/805/50
f 130/803/50 296/806/50 419/804/50
f 128/807/50 127/805/50 419/804/50
f 419/804/50 397/808/50 128/807/50
f 142/809/50 420/810/50 139/811/50
f 142/809/50 421/812/50 420/810/50
f 140/813/50 139/811/50 420/810/50
f 420/810/50 186/814/50 140/813/50
f 151/815/49 422/816/49 297/817/49
f 422/816/49 151/815/49 150/818/49
f 150/818/49 154/819/49 422/816/49
f 422/816/49 154/819/49 398/820/49
f 423/821/49 163/822/49 162/823/49
f 163/822/49 423/821/49 424/824/49
f 162/823/49 166/825/49 423/821/49
f 423/821/49 166/825/49 187/826/49
f 366/827/124 60/828/124 59/829/124
f 376/830/124 60/828/124 366/827/124
f 262/335/125 367/634/125 358/631/125
f 262/335/125 261/334/125 367/634/125
f 219/831/126 415/832/126 220/833/126
f 219/831/126 416/834/126 415/832/126
f 414/835/126 220/833/126 415/832/126
f 220/833/126 414/835/126 221/836/126
f 228/837/126 413/838/126 412/839/126
f 413/838/126 228/837/126 230/840/126
f 412/839/126 229/841/126 228/837/126
f 229/841/126 412/839/126 411/842/126
f 71/843/127 293/844/127 69/845/127
f 293/844/127 71/843/127 403/846/127
f 75/847/127 294/848/127 404/849/127
f 294/848/127 75/847/127 74/850/127
f 239/851/28 416/834/28 219/831/28
f 416/834/28 239/851/28 417/852/28
f 241/853/28 411/842/28 418/854/28
f 411/842/28 241/853/28 229/841/28
f 246/855/28 134/856/28 131/857/28
f 134/856/28 246/855/28 425/858/28
f 287/859/28 142/860/28 141/861/28
f 142/860/28 287/859/28 421/862/28
f 239/851/8 319/863/8 417/852/8
f 319/863/8 239/851/8 240/864/8
f 424/865/28 291/866/28 163/867/28
f 291/866/28 161/868/28 163/867/28
f 320/869/8 241/853/8 418/854/8
f 320/869/8 242/870/8 241/853/8
f 426/871/28 251/872/28 172/873/28
f 251/872/28 171/874/28 172/873/28
f 122/875/50 317/876/50 120/877/50
f 122/875/50 295/878/50 317/876/50
f 10/879/121 9/880/121 17/881/121
f 10/879/121 17/881/121 16/882/121
f 134/883/50 427/884/50 132/885/50
f 134/883/50 425/886/50 427/884/50
f 318/887/49 160/888/49 156/889/49
f 160/888/49 318/887/49 298/890/49
f 428/891/49 172/892/49 168/893/49
f 172/892/49 428/891/49 426/894/49
f 288/895/28 137/896/28 132/897/28
f 132/897/28 427/898/28 288/895/28
f 276/899/128 108/900/128 107/901/128
f 108/900/128 276/899/128 311/902/128
f 292/903/28 168/904/28 164/905/28
f 428/906/28 168/904/28 292/903/28
f 117/907/129 281/908/129 118/909/129
f 281/908/129 117/907/129 314/910/129
f 279/911/130 272/912/130 271/913/130
f 279/911/130 271/913/130 313/914/130
f 274/915/131 284/916/131 273/917/131
f 316/918/131 273/917/131 284/916/131
f 283/757/132 409/919/132 410/755/132
f 283/757/132 280/920/132 409/919/132
f 275/921/133 278/751/133 407/922/133
f 408/753/133 407/922/133 278/751/133
f 299/923/134 405/924/134 95/925/134
f 405/924/134 98/926/134 95/925/134
f 406/927/134 99/928/134 101/929/134
f 300/930/134 99/928/134 406/927/134
f 386/931/135 385/932/135 387/933/135
f 386/931/135 387/933/135 388/934/135
f 364/935/136 375/936/77 365/937/77
f 364/935/136 374/938/136 375/936/77
f 365/937/77 375/936/77 376/939/137
f 365/937/77 376/939/137 366/940/137
f 293/844/138 405/941/138 299/942/138
f 405/941/138 293/844/138 403/846/138
f 294/848/138 406/943/138 404/849/138
f 406/943/138 294/848/138 300/944/138
f 384/945/139 383/946/139 385/932/139
f 384/945/139 385/932/139 386/931/139
f 179/947/30 321/948/30 180/949/30
f 321/948/30 179/947/30 389/950/30
f 181/951/30 182/952/30 324/953/30
f 181/951/30 324/953/30 390/954/30
f 346/624/140 345/623/140 383/946/140
f 346/624/140 383/946/140 384/945/140
f 112/955/30 325/956/30 111/957/30
f 325/956/30 112/955/30 401/958/30
f 114/959/30 326/960/30 402/961/30
f 114/959/30 113/962/30 326/960/30
f 199/963/141 275/921/141 200/964/141
f 275/921/141 407/922/141 200/964/141
f 201/965/142 202/966/142 280/920/142
f 280/920/142 202/966/142 409/919/142
f 295/967/14 244/968/14 317/969/14
f 295/967/14 243/970/14 244/968/14
f 244/968/14 245/971/14 317/969/14
f 317/969/14 245/971/14 395/972/14
f 396/973/14 317/969/14 395/972/14
f 317/969/14 396/973/14 286/974/14
f 286/974/14 396/973/14 419/975/14
f 419/975/14 396/973/14 397/976/14
f 296/977/14 286/974/14 419/975/14
f 296/977/14 285/978/14 286/974/14
f 247/979/14 184/980/14 427/981/14
f 427/981/14 184/980/14 183/982/14
f 425/983/14 247/979/14 427/981/14
f 425/983/14 246/984/14 247/979/14
f 185/985/14 427/981/14 183/982/14
f 427/981/14 185/985/14 288/986/14
f 288/986/14 185/985/14 420/987/14
f 420/987/14 185/985/14 186/988/14
f 421/989/14 288/986/14 420/987/14
f 421/989/14 287/990/14 288/986/14
f 290/991/14 297/992/14 422/993/14
f 297/992/14 290/991/14 289/994/14
f 422/993/14 399/995/14 290/991/14
f 399/995/14 422/993/14 398/996/14
f 290/991/14 399/995/14 318/997/14
f 318/997/14 399/995/14 400/998/14
f 250/999/14 318/997/14 400/998/14
f 318/997/14 250/999/14 249/1000/14
f 249/1000/14 298/1001/14 318/997/14
f 298/1001/14 249/1000/14 248/1002/14
f 424/1003/14 292/1004/14 291/1005/14
f 292/1004/14 424/1003/14 423/1006/14
f 423/1006/14 188/1007/14 292/1004/14
f 188/1007/14 423/1006/14 187/1008/14
f 292/1004/14 188/1007/14 428/1009/14
f 428/1009/14 188/1007/14 189/1010/14
f 190/1011/14 428/1009/14 189/1010/14
f 428/1009/14 190/1011/14 252/1012/14
f 252/1012/14 426/1013/14 428/1009/14
f 426/1013/14 252/1012/14 251/1014/14
f 360/580/143 262/547/143 358/578/143
f 262/547/143 360/580/143 347/548/143
f 261/550/144 370/596/144 367/593/144
f 370/596/144 261/550/144 348/552/144
f 277/1015/145 311/902/145 276/899/145
f 311/902/145 277/1015/145 312/1016/145
f 314/910/146 282/1017/146 281/908/146
f 282/1017/146 314/910/146 315/1018/146
f 268/1019/147 269/1020/147 267/1021/147
f 270/1022/147 269/1020/147 268/1019/147
f 328/1023/148 351/1024/148 349/1025/148
f 328/1023/148 330/1026/148 351/1024/148
f 43/43/149 270/1022/149 268/1019/149
f 44/45/149 270/1022/149 43/43/149
f 361/1027/150 372/1028/151 362/1029/151
f 371/1030/150 372/1028/151 361/1027/150
f 372/1028/151 363/1031/152 362/1029/151
f 363/1031/152 372/1028/151 373/1032/152
f 373/1032/152 364/1033/153 363/1031/152
f 364/1033/153 373/1032/152 374/1034/153
f 267/1035/154 193/719/154 5/718/154
f 193/719/154 267/1035/154 387/1036/154
f 381/1037/155 341/618/155 339/617/155
f 381/1037/155 382/1038/155 341/618/155
f 388/1039/156 269/1040/156 192/720/156
f 269/1040/156 6/717/156 192/720/156
f 379/1041/157 382/1038/157 381/1037/157
f 379/1041/157 380/1042/157 382/1038/157
f 337/527/158 380/1042/158 379/1041/158
f 337/527/158 336/526/158 380/1042/158
f 348/750/159 347/749/159 360/656/159
f 348/750/159 360/656/159 370/655/159
f 279/911/160 312/1043/160 277/1044/160
f 312/1043/160 279/911/160 313/914/160
f 284/916/161 315/1045/161 316/918/161
f 315/1045/161 284/916/161 282/1046/161
f 267/1035/162 388/1039/162 387/1036/162
f 267/1035/162 269/1040/162 388/1039/162
