# Roblox asset pack: egg_cameroceras (props), from the Studio model "Cameroceras". Exported with Export Selection, split by tools/build_creatures.py: one object per rigid body. Units: studs. +Y up, front faces -Z, pivot (bottom centre) at the origin.
mtllib egg_cameroceras.mtl

v -1.07645 3.44000 -1.08000
v 1.07645 3.44000 -1.08000
v -1.07645 0.00000 -1.08000
v 1.07645 0.00000 -1.08000
v 1.07645 3.44000 1.08000
v -1.07645 3.44000 1.08000
v 1.07645 0.00000 1.08000
v -1.07645 0.00000 1.08000
v -1.29174 2.15000 -1.29000
v 1.29174 2.15000 -1.29000
v -1.29174 0.43000 -1.29000
v 1.29174 0.43000 -1.29000
v 1.29174 2.15000 1.29000
v -1.29174 2.15000 1.29000
v 1.29174 0.43000 1.29000
v -1.29174 0.43000 1.29000
vt 7.26911 -1.75000
vt 7.00000 -1.75000
vt 7.26911 -2.18058
vt 7.00000 -2.18058
vt 7.26911 -2.01911
vt 7.00000 -2.01911
vt 7.07294 -0.25000
vt 6.75000 -0.25000
vt 7.07294 -0.46529
vt 6.75000 -0.46529
vt 7.07294 -0.57294
vt 6.75000 -0.57294
vn 0.0000 0.0000 -1.0000
vn 0.0000 1.0000 0.0000
vn 1.0000 0.0000 0.0000
vn 0.0000 0.0000 1.0000
vn 0.0000 -1.0000 0.0000
vn -1.0000 0.0000 0.0000

o egg_cameroceras
usemtl c_6225d1
f 1/1/1 2/2/1 3/3/1
f 3/3/1 2/2/1 4/4/1
f 5/1/2 2/2/2 6/5/2
f 6/5/2 2/2/2 1/6/2
f 2/1/3 5/2/3 4/3/3
f 4/3/3 5/2/3 7/4/3
f 5/1/4 6/2/4 7/3/4
f 7/3/4 6/2/4 8/4/4
f 8/1/5 3/2/5 7/5/5
f 7/5/5 3/2/5 4/6/5
f 6/1/6 1/2/6 8/3/6
f 8/3/6 1/2/6 3/4/6
usemtl c_f2f3f3
f 9/7/1 10/8/1 11/9/1
f 11/9/1 10/8/1 12/10/1
f 13/7/2 10/8/2 14/11/2
f 14/11/2 10/8/2 9/12/2
f 10/7/3 13/8/3 12/9/3
f 12/9/3 13/8/3 15/10/3
f 13/7/4 14/8/4 15/9/4
f 15/9/4 14/8/4 16/10/4
f 16/7/5 11/8/5 15/11/5
f 15/11/5 11/8/5 12/12/5
f 14/7/6 9/8/6 16/9/6
f 16/9/6 9/8/6 11/10/6
