# Roblox asset pack: egg_diplodocus (props), from the Studio model "Diplodocus". Exported with Export Selection, split by tools/build_creatures.py: one object per rigid body. Units: studs. +Y up, front faces -Z, pivot (bottom centre) at the origin.
mtllib egg_diplodocus.mtl

v -1.74380 10.46000 -1.74000
v 1.74390 10.46000 -1.74000
v -1.74380 8.14000 -1.74000
v 1.74390 8.14000 -1.74000
v 1.74390 10.46000 1.74000
v -1.74380 10.46000 1.74000
v 1.74390 8.14000 1.74000
v -1.74380 8.14000 1.74000
v -2.32500 5.81000 -3.20000
v 0.00010 5.81000 -3.20000
v -2.32500 3.49000 -3.20000
v 0.00010 3.49000 -3.20000
v 0.00010 5.81000 3.20000
v -2.32500 5.81000 3.20000
v 0.00010 3.49000 3.20000
v -2.32500 3.49000 3.20000
v -3.19710 3.49000 -2.33000
v 3.19710 3.49000 -2.33000
v -3.19710 1.16000 -2.33000
v 3.19710 1.16000 -2.33000
v 3.19710 3.49000 0.00000
v -3.19710 3.49000 0.00000
v 3.19710 1.16000 0.00000
v -3.19710 1.16000 0.00000
v 2.32520 5.81000 -3.20000
v 2.32520 3.49000 -3.20000
v 2.32520 5.81000 3.20000
v 2.32520 3.49000 3.20000
v 3.19710 3.49000 2.33000
v -3.19710 3.49000 2.33000
v 3.19710 1.16000 2.33000
v -3.19710 1.16000 2.33000
v -2.32500 1.16000 -3.20000
v 0.00010 1.16000 -3.20000
v 0.00010 1.16000 3.20000
v -2.32500 1.16000 3.20000
v -3.19710 5.81000 -2.33000
v 3.19710 5.81000 -2.33000
v 3.19710 5.81000 0.00000
v -3.19710 5.81000 0.00000
v 3.19710 5.81000 2.33000
v -3.19710 5.81000 2.33000
v 2.32520 1.16000 -3.20000
v 2.32520 1.16000 3.20000
v -2.32510 8.14000 -2.33000
v 2.32510 8.14000 -2.33000
v -2.32510 0.00000 -2.33000
v 2.32510 0.00000 -2.33000
v 2.32510 8.14000 2.33000
v -2.32510 8.14000 2.33000
v 2.32510 0.00000 2.33000
v -2.32510 0.00000 2.33000
vt 2.43596 -5.75000
vt 2.00000 -5.75000
vt 2.43596 -6.04064
vt 2.00000 -6.04064
vt 2.43596 -6.18596
vt 2.00000 -6.18596
vt 0.54064 0.00000
vt 0.25000 0.00000
vt 0.54064 -0.29064
vt 0.25000 -0.29064
vt 1.04926 0.00000
vt 1.04926 -0.29064
vt 3.04926 -6.75000
vt 2.25000 -6.75000
vt 3.04926 -7.04064
vt 2.25000 -7.04064
vt 2.54064 -6.75000
vt 2.54064 -7.54926
vt 2.25000 -7.54926
vt 2.54064 -7.04064
vt 3.79064 -6.25000
vt 3.50000 -6.25000
vt 3.79064 -6.54064
vt 3.50000 -6.54064
vt 4.29926 -6.25000
vt 4.29926 -6.54064
vt 4.04926 -6.25000
vt 3.25000 -6.25000
vt 4.04926 -6.54064
vt 3.25000 -6.54064
vt 3.54064 -6.25000
vt 3.54064 -7.04926
vt 3.25000 -7.04926
vt 3.54064 -6.54064
vt 0.79064 -5.25000
vt 0.50000 -5.25000
vt 0.79064 -5.54064
vt 0.50000 -5.54064
vt 1.29926 -5.25000
vt 1.29926 -5.54064
vt 7.54926 -6.00000
vt 6.75000 -6.00000
vt 7.54926 -6.29064
vt 6.75000 -6.29064
vt 7.04064 -6.00000
vt 7.04064 -6.79926
vt 6.75000 -6.79926
vt 7.04064 -6.29064
vt 7.04926 -5.25000
vt 6.25000 -5.25000
vt 7.04926 -5.54064
vt 6.25000 -5.54064
vt 6.54064 -5.25000
vt 6.54064 -6.04926
vt 6.25000 -6.04926
vt 6.54064 -5.54064
vt 3.29064 -4.25000
vt 3.00000 -4.25000
vt 3.29064 -4.54064
vt 3.00000 -4.54064
vt 3.79926 -4.25000
vt 3.79926 -4.54064
vt 1.33128 -5.75000
vt 0.75000 -5.75000
vt 1.33128 -6.76724
vt 0.75000 -6.76724
vt 1.33128 -6.33128
vt 0.75000 -6.33128
vn 0.0000 0.0000 -1.0000
vn 0.0000 1.0000 0.0000
vn 1.0000 0.0000 0.0000
vn 0.0000 0.0000 1.0000
vn 0.0000 -1.0000 0.0000
vn -1.0000 0.0000 0.0000

o egg_diplodocus
usemtl c_ffffcc
f 1/1/1 2/2/1 3/3/1
f 3/3/1 2/2/1 4/4/1
f 5/1/2 2/2/2 6/5/2
f 6/5/2 2/2/2 1/6/2
f 2/1/3 5/2/3 4/3/3
f 4/3/3 5/2/3 7/4/3
f 5/1/4 6/2/4 7/3/4
f 7/3/4 6/2/4 8/4/4
f 8/1/5 3/2/5 7/5/5
f 7/5/5 3/2/5 4/6/5
f 6/1/6 1/2/6 8/3/6
f 8/3/6 1/2/6 3/4/6
usemtl c_506d54
f 9/7/1 10/8/1 11/9/1
f 11/9/1 10/8/1 12/10/1
f 13/11/2 10/8/2 14/12/2
f 14/12/2 10/8/2 9/10/2
f 10/11/3 13/8/3 12/12/3
f 12/12/3 13/8/3 15/10/3
f 13/7/4 14/8/4 15/9/4
f 15/9/4 14/8/4 16/10/4
f 16/11/5 11/8/5 15/12/5
f 15/12/5 11/8/5 12/10/5
f 14/11/6 9/8/6 16/12/6
f 16/12/6 9/8/6 11/10/6
f 17/13/1 18/14/1 19/15/1
f 19/15/1 18/14/1 20/16/1
f 21/17/2 18/14/2 22/18/2
f 22/18/2 18/14/2 17/19/2
f 18/17/3 21/14/3 20/20/3
f 20/20/3 21/14/3 23/16/3
f 21/13/4 22/14/4 23/15/4
f 23/15/4 22/14/4 24/16/4
f 24/17/5 19/14/5 23/18/5
f 23/18/5 19/14/5 20/19/5
f 22/17/6 17/14/6 24/20/6
f 24/20/6 17/14/6 19/16/6
usemtl c_7c9c6b
f 10/21/1 25/22/1 12/23/1
f 12/23/1 25/22/1 26/24/1
f 27/25/2 25/22/2 13/26/2
f 13/26/2 25/22/2 10/24/2
f 25/25/3 27/22/3 26/26/3
f 26/26/3 27/22/3 28/24/3
f 27/21/4 13/22/4 28/23/4
f 28/23/4 13/22/4 15/24/4
f 15/25/5 12/22/5 28/26/5
f 28/26/5 12/22/5 26/24/5
f 13/25/6 10/22/6 15/26/6
f 15/26/6 10/22/6 12/24/6
f 22/27/1 21/28/1 24/29/1
f 24/29/1 21/28/1 23/30/1
f 29/31/2 21/28/2 30/32/2
f 30/32/2 21/28/2 22/33/2
f 21/31/3 29/28/3 23/34/3
f 23/34/3 29/28/3 31/30/3
f 29/27/4 30/28/4 31/29/4
f 31/29/4 30/28/4 32/30/4
f 32/31/5 24/28/5 31/32/5
f 31/32/5 24/28/5 23/33/5
f 30/31/6 22/28/6 32/34/6
f 32/34/6 22/28/6 24/30/6
f 11/35/1 12/36/1 33/37/1
f 33/37/1 12/36/1 34/38/1
f 15/39/2 12/36/2 16/40/2
f 16/40/2 12/36/2 11/38/2
f 12/39/3 15/36/3 34/40/3
f 34/40/3 15/36/3 35/38/3
f 15/35/4 16/36/4 35/37/4
f 35/37/4 16/36/4 36/38/4
f 36/39/5 33/36/5 35/40/5
f 35/40/5 33/36/5 34/38/5
f 16/39/6 11/36/6 36/40/6
f 36/40/6 11/36/6 33/38/6
f 37/41/1 38/42/1 17/43/1
f 17/43/1 38/42/1 18/44/1
f 39/45/2 38/42/2 40/46/2
f 40/46/2 38/42/2 37/47/2
f 38/45/3 39/42/3 18/48/3
f 18/48/3 39/42/3 21/44/3
f 39/41/4 40/42/4 21/43/4
f 21/43/4 40/42/4 22/44/4
f 22/45/5 17/42/5 21/46/5
f 21/46/5 17/42/5 18/47/5
f 40/45/6 37/42/6 22/48/6
f 22/48/6 37/42/6 17/44/6
usemtl c_1b2a35
f 40/49/1 39/50/1 22/51/1
f 22/51/1 39/50/1 21/52/1
f 41/53/2 39/50/2 42/54/2
f 42/54/2 39/50/2 40/55/2
f 39/53/3 41/50/3 21/56/3
f 21/56/3 41/50/3 29/52/3
f 41/49/4 42/50/4 29/51/4
f 29/51/4 42/50/4 30/52/4
f 30/53/5 22/50/5 29/54/5
f 29/54/5 22/50/5 21/55/5
f 42/53/6 40/50/6 30/56/6
f 30/56/6 40/50/6 22/52/6
f 12/57/1 26/58/1 34/59/1
f 34/59/1 26/58/1 43/60/1
f 28/61/2 26/58/2 15/62/2
f 15/62/2 26/58/2 12/60/2
f 26/61/3 28/58/3 43/62/3
f 43/62/3 28/58/3 44/60/3
f 28/57/4 15/58/4 44/59/4
f 44/59/4 15/58/4 35/60/4
f 35/61/5 34/58/5 44/62/5
f 44/62/5 34/58/5 43/60/5
f 15/61/6 12/58/6 35/62/6
f 35/62/6 12/58/6 34/60/6
usemtl c_b1e5a6
f 45/63/1 46/64/1 47/65/1
f 47/65/1 46/64/1 48/66/1
f 49/63/2 46/64/2 50/67/2
f 50/67/2 46/64/2 45/68/2
f 46/63/3 49/64/3 48/65/3
f 48/65/3 49/64/3 51/66/3
f 49/63/4 50/64/4 51/65/4
f 51/65/4 50/64/4 52/66/4
f 52/63/5 47/64/5 51/67/5
f 51/67/5 47/64/5 48/68/5
f 50/63/6 45/64/6 52/65/6
f 52/65/6 45/64/6 47/66/6
