# Roblox asset pack: animal_zebra (creatures), from the Studio model "Zebra". Exported with Export Selection, split by tools/build_creatures.py: one object per rigid body. Units: studs. +Y up, front faces -Z, pivot (bottom centre) at the origin.
mtllib animal_zebra.mtl

v 3.64470 1.44000 0.06000
v 3.67480 1.55000 -0.06000
v 3.67480 1.55000 0.06000
v 3.64470 1.44000 -0.06000
v 3.37480 1.65000 -0.67000
v 3.42120 1.74000 -0.59000
v 3.39860 1.65000 -0.59000
v 3.39750 1.74000 -0.68000
v 3.42120 1.74000 0.59000
v 3.37480 1.65000 0.67000
v 3.39860 1.65000 0.59000
v 3.39750 1.74000 0.68000
v -1.42990 0.00000 0.47000
v -0.74210 0.00000 1.18000
v -1.42990 0.00000 1.18000
v -0.74210 0.00000 0.47000
v 0.99430 0.00000 0.47000
v 1.68210 0.00000 1.18000
v 0.99430 0.00000 1.18000
v 1.68210 0.00000 0.47000
v -1.42990 0.00000 -0.47000
v -0.74210 0.00000 -1.18000
v -0.74210 0.00000 -0.47000
v -1.42990 0.00000 -1.18000
v 0.99430 0.00000 -0.47000
v 0.99430 0.00000 -1.18000
v 1.68210 0.00000 -1.18000
v 1.68210 0.00000 -0.47000
v -2.83370 6.27000 0.18000
v -1.56890 6.53000 0.18000
v -1.56890 6.53000 -0.18000
v -2.83370 6.27000 -0.18000
v 3.40940 1.83000 -0.25000
v 3.26600 2.27000 0.27000
v 3.40940 1.83000 0.25000
v 3.26600 2.27000 -0.27000
v -3.67480 4.92000 0.45000
v -3.67480 5.05000 0.32000
v -3.67480 4.92000 0.29000
v -3.67480 4.96000 0.20000
v -3.67480 4.92000 0.12000
v -3.67480 4.92000 -0.12000
v -3.67480 4.96000 -0.20000
v -3.67480 5.05000 -0.32000
v -3.67480 4.92000 -0.29000
v -3.67480 4.92000 -0.45000
v 3.15750 1.96000 0.77000
v 3.26130 1.96000 0.39000
v 3.04550 2.30000 0.75000
v 3.15740 2.30000 0.35000
v 3.15750 1.96000 -0.77000
v 3.04550 2.30000 -0.75000
v 3.26130 1.96000 -0.39000
v 3.15740 2.30000 -0.35000
v -3.61630 4.92000 0.30000
v -3.60550 4.65000 0.20000
v -3.61630 4.66000 0.29000
v -3.61630 4.92000 0.11000
v -3.61630 4.66000 0.12000
v -3.60550 4.96000 0.20000
v -3.61630 4.92000 -0.11000
v -3.60550 4.65000 -0.20000
v -3.61630 4.66000 -0.12000
v -3.61630 4.92000 -0.30000
v -3.61630 4.66000 -0.29000
v -3.60550 4.96000 -0.20000
v 1.05770 0.26000 0.51000
v 1.60940 0.27000 1.14000
v 1.05770 0.26000 1.14000
v 1.60940 0.27000 0.51000
v 1.05770 0.26000 -0.51000
v 1.05770 0.26000 -1.14000
v 1.60940 0.27000 -1.14000
v 1.60940 0.27000 -0.51000
v -1.36180 0.27000 0.51000
v -0.81020 0.27000 1.14000
v -1.36180 0.27000 1.14000
v -0.81020 0.27000 0.51000
v -1.36180 0.27000 -0.51000
v -1.36180 0.27000 -1.14000
v -0.81020 0.27000 -1.14000
v -0.81020 0.27000 -0.51000
v -3.67450 4.92000 0.30000
v -3.63920 4.36000 0.40000
v -3.65860 4.66000 0.29000
v -3.65750 4.65000 0.20000
v -3.65860 4.66000 0.12000
v -3.65860 4.66000 -0.12000
v -3.65750 4.65000 -0.20000
v -3.67450 4.92000 0.11000
v -3.67450 4.92000 -0.11000
v -3.65860 4.66000 -0.29000
v -3.63920 4.36000 -0.39000
v -3.67450 4.92000 -0.30000
v -3.56600 4.30000 0.34000
v -3.56600 4.30000 -0.33000
v -3.56600 4.21000 0.24000
v -3.56600 4.21000 -0.23000
v 2.82260 3.31000 -0.38000
v 2.82260 3.31000 0.38000
v 2.68870 3.12000 0.74000
v 2.84610 3.12000 0.17000
v 2.68870 3.12000 -0.74000
v 2.84610 3.12000 -0.17000
v 1.71190 1.45000 0.46000
v 1.89310 1.86000 1.19000
v 1.71190 1.45000 1.19000
v 1.89310 1.86000 0.46000
v 1.89310 1.86000 -1.19000
v 1.71190 1.45000 -0.46000
v 1.71190 1.45000 -1.19000
v 1.89310 1.86000 -0.46000
v -2.23050 6.39000 0.69000
v -2.15130 6.30000 0.44000
v -2.25590 6.29000 0.45000
v -2.12600 6.40000 0.68000
v -2.15130 6.30000 -0.44000
v -2.23050 6.39000 -0.69000
v -2.25590 6.29000 -0.45000
v -2.12600 6.40000 -0.68000
v -3.16970 5.50000 0.23000
v -3.16970 5.16000 0.49000
v -3.16970 5.50000 0.49000
v -3.16970 5.16000 0.23000
v -3.16970 5.50000 -0.23000
v -3.16970 5.16000 -0.49000
v -3.16970 5.16000 -0.23000
v -3.16970 5.50000 -0.49000
v -3.14520 5.61000 0.18000
v -3.14520 5.12000 0.57000
v -3.14520 5.61000 0.57000
v -3.14520 5.12000 0.18000
v -3.14520 5.61000 -0.18000
v -3.14520 5.12000 -0.57000
v -3.14520 5.12000 -0.18000
v -3.14520 5.61000 -0.57000
v 2.10700 1.74000 1.00000
v 2.10700 1.74000 -1.00000
v 2.10700 2.94000 1.00000
v 2.10700 2.94000 -1.00000
v 3.47790 1.72000 0.20000
v 3.47790 1.72000 -0.20000
v 3.18710 1.36000 0.24000
v 3.18710 1.36000 -0.24000
v -3.05830 5.55000 0.82000
v -3.05830 4.15000 0.58000
v -3.05830 4.39000 0.82000
v -3.05830 5.79000 0.58000
v -3.05830 5.79000 -0.58000
v -3.05830 4.15000 -0.58000
v -3.05830 4.39000 -0.82000
v -3.05830 5.55000 -0.82000
v 3.30190 1.87000 0.45000
v 3.22010 1.87000 0.74000
v 3.30190 1.87000 -0.45000
v 3.22010 1.87000 -0.74000
v -2.14550 5.62000 0.36000
v -2.15020 5.59000 0.56000
v -2.12360 5.59000 0.56000
v -2.17200 5.62000 0.36000
v -2.14550 5.62000 -0.36000
v -2.15020 5.59000 -0.56000
v -2.17200 5.62000 -0.36000
v -2.12360 5.59000 -0.56000
v -1.67090 5.79000 0.58000
v -1.67090 5.79000 -0.58000
v 1.89310 2.73000 1.19000
v 1.89310 2.73000 0.46000
v 1.89310 2.73000 -1.19000
v 1.89310 2.73000 -0.46000
v 3.09140 1.59000 0.36000
v 3.09140 1.59000 -0.36000
v 2.99250 1.59000 0.71000
v 2.99250 1.59000 -0.71000
v -3.02760 5.61000 0.57000
v -3.02760 5.61000 0.18000
v -3.02760 5.61000 -0.18000
v -3.02760 5.61000 -0.57000
v -2.71910 5.21000 0.32000
v -2.71910 5.21000 -0.32000
v -3.09020 5.50000 0.23000
v -3.09020 5.50000 0.49000
v -3.09020 5.50000 -0.23000
v -3.09020 5.50000 -0.49000
v -1.67090 5.55000 0.82000
v -1.67090 5.55000 -0.82000
v -0.30810 1.44000 1.00000
v 0.00180 1.48000 -1.00000
v 0.00180 1.48000 1.00000
v -0.30810 1.44000 -1.00000
v 0.31160 1.52000 -1.00000
v 0.31160 1.52000 1.00000
v 0.62140 1.56000 -1.00000
v 0.62140 1.56000 1.00000
v 0.93130 1.59000 1.00000
v 0.93130 1.59000 -1.00000
v 1.24110 1.63000 -1.00000
v 1.24110 1.63000 1.00000
v 1.55100 1.67000 -1.00000
v 1.55100 1.67000 1.00000
v 1.64930 0.41000 0.50000
v 1.64930 0.41000 1.15000
v 1.64930 0.41000 -0.50000
v 1.64930 0.41000 -1.15000
v -2.71910 5.08000 0.45000
v -2.71910 5.08000 -0.45000
v -0.80550 1.59000 1.00000
v -0.55680 1.52000 -1.00000
v -0.55680 1.52000 1.00000
v -0.80550 1.59000 -1.00000
v -1.05430 1.67000 1.00000
v -1.05430 1.67000 -1.00000
v -1.80050 1.89000 1.00000
v -1.55170 1.81000 -1.00000
v -1.55170 1.81000 1.00000
v -1.80050 1.89000 -1.00000
v -1.30300 1.74000 -1.00000
v -1.30300 1.74000 1.00000
v -2.68130 4.34000 0.55000
v -2.02250 2.34000 -0.55000
v -2.02250 2.34000 0.55000
v -2.68130 4.34000 -0.55000
v -2.20370 6.02000 0.74000
v -2.22970 6.33000 0.64000
v -2.20990 6.02000 0.67000
v -2.20370 6.02000 -0.74000
v -2.22970 6.33000 -0.64000
v -2.20990 6.02000 -0.67000
v 1.60300 3.44000 1.00000
v 1.60300 3.44000 -1.00000
v -2.21920 6.22000 0.48000
v -2.18340 6.03000 0.67000
v -2.20320 6.34000 0.63000
v -2.21250 6.07000 0.40000
v -2.21250 6.07000 -0.40000
v -2.21920 6.22000 -0.48000
v -2.18340 6.03000 -0.67000
v -2.20320 6.34000 -0.63000
v 2.11520 2.74000 0.07000
v 1.81370 2.66000 0.35000
v 1.89580 2.66000 0.06000
v 2.01080 2.74000 0.45000
v 1.81370 2.66000 -0.35000
v 2.11520 2.74000 -0.07000
v 1.89580 2.66000 -0.06000
v 2.01080 2.74000 -0.45000
v 2.65520 1.88000 0.12000
v 2.65520 1.88000 -0.12000
v -2.24570 6.21000 0.48000
v -2.24660 6.08000 0.33000
v -2.23900 6.07000 0.40000
v -2.24660 6.08000 -0.33000
v -2.24570 6.21000 -0.48000
v -2.23900 6.07000 -0.40000
v 2.20470 2.83000 0.57000
v 2.34210 2.83000 0.07000
v 2.20470 2.83000 -0.57000
v 2.34210 2.83000 -0.07000
v -1.60560 4.56000 0.55000
v -1.60560 4.56000 -0.55000
v 1.61090 2.72000 -0.20000
v 1.88740 2.83000 0.25000
v 1.61090 2.72000 0.20000
v 1.88740 2.83000 -0.25000
v -1.45300 1.67000 -1.19000
v -0.76120 1.50000 -1.16000
v -1.41630 1.47000 -1.16000
v -0.65730 1.75000 -1.19000
v -1.41630 1.47000 1.16000
v -0.76120 1.50000 1.16000
v -1.45300 1.67000 1.19000
v -0.65730 1.75000 1.19000
v 2.16670 2.94000 -0.33000
v 2.16670 2.94000 0.33000
v -2.16930 5.56000 0.29000
v -2.13480 5.51000 0.61000
v -2.16930 5.56000 -0.29000
v -2.13480 5.51000 -0.61000
v 2.10460 3.63000 -0.33000
v 2.10460 3.63000 0.33000
v -2.06940 6.11000 0.32000
v -2.06940 6.11000 -0.32000
v -1.46560 1.88000 1.19000
v -0.70760 1.88000 1.19000
v -1.47400 2.21000 1.22000
v -0.69810 2.21000 1.22000
v -1.47400 2.21000 -1.22000
v -0.70760 1.88000 -1.19000
v -1.46560 1.88000 -1.19000
v -0.69810 2.21000 -1.22000
v -1.80050 3.44000 1.00000
v -1.80050 3.44000 -1.00000
v 0.87110 1.46000 1.19000
v 0.87110 1.46000 -1.19000
v -1.41630 1.47000 0.49000
v -1.45300 1.67000 0.46000
v -1.41630 1.47000 -0.49000
v -1.45300 1.67000 -0.46000
v -1.36520 2.84000 -1.22000
v -0.80680 2.84000 -1.22000
v -1.36520 2.84000 1.22000
v -0.80680 2.84000 1.22000
v 2.56790 1.73000 0.38000
v 0.82220 1.86000 -1.19000
v 0.82220 2.34000 -1.19000
v 1.06220 2.89000 -1.19000
v 2.56790 1.73000 -0.38000
v 0.82220 1.86000 1.19000
v 0.82220 2.34000 1.19000
v 1.06220 2.89000 1.19000
v 2.29630 3.36000 0.06000
v 2.15690 3.36000 0.56000
v 2.29630 3.36000 -0.06000
v 2.15690 3.36000 -0.56000
v -1.46560 1.88000 0.45000
v -1.46560 1.88000 -0.45000
v 2.58970 2.36000 0.13000
v 2.58970 2.36000 -0.13000
v -0.38370 3.44000 1.00000
v -0.05260 3.44000 1.00000
v -0.61980 3.44000 1.00000
v -1.56430 3.44000 1.00000
v -1.32820 3.44000 1.00000
v -1.09210 3.44000 1.00000
v -0.85590 3.44000 1.00000
v 0.27850 3.44000 1.00000
v 0.60970 3.44000 1.00000
v 0.94080 3.44000 1.00000
v 1.27190 3.44000 1.00000
v -0.38370 3.44000 -1.00000
v -0.05260 3.44000 -1.00000
v -0.61980 3.44000 -1.00000
v -1.56430 3.44000 -1.00000
v -1.32820 3.44000 -1.00000
v -1.09210 3.44000 -1.00000
v -0.85590 3.44000 -1.00000
v 0.27850 3.44000 -1.00000
v 0.60970 3.44000 -1.00000
v 0.94080 3.44000 -1.00000
v 1.27190 3.44000 -1.00000
v -1.47400 2.21000 0.43000
v -1.47400 2.21000 -0.43000
v 2.42680 2.72000 0.06000
v -2.02660 6.05000 0.72000
v 2.42680 2.72000 -0.06000
v -2.02660 6.05000 -0.72000
v -2.24940 4.97000 -0.18000
v -2.15200 4.75000 0.18000
v -2.24940 4.97000 0.18000
v -2.15200 4.75000 -0.18000
v -2.73640 6.06000 0.18000
v -2.73640 6.06000 -0.18000
v -2.44420 5.40000 -0.18000
v -2.34680 5.18000 0.18000
v -2.44420 5.40000 0.18000
v -2.34680 5.18000 -0.18000
v -2.54150 5.62000 -0.18000
v -2.54150 5.62000 0.18000
v -2.63900 5.84000 0.18000
v -2.63900 5.84000 -0.18000
v -1.56760 3.44000 -0.18000
v -1.47020 3.22000 0.18000
v -1.56760 3.44000 0.18000
v -1.47020 3.22000 -0.18000
v -1.37280 3.00000 0.18000
v -1.37280 3.00000 -0.18000
v -1.66500 3.66000 -0.18000
v -1.66500 3.66000 0.18000
v -1.85980 4.09000 -0.18000
v -1.76240 3.88000 0.18000
v -1.85980 4.09000 0.18000
v -1.76240 3.88000 -0.18000
v -1.95720 4.31000 -0.18000
v -1.95720 4.31000 0.18000
v -2.05460 4.53000 0.18000
v -2.05460 4.53000 -0.18000
v -0.77490 0.41000 -1.15000
v -1.39710 0.41000 -1.15000
v 1.02720 0.41000 -1.15000
v -0.77490 0.41000 1.15000
v -1.39710 0.41000 1.15000
v 1.02720 0.41000 1.15000
v -1.67090 4.39000 -0.82000
v -1.67090 4.39000 0.82000
v -1.36520 2.84000 0.43000
v -1.36520 2.84000 -0.43000
v -0.94680 2.55000 0.55000
v -0.94680 2.55000 -0.55000
v 2.49240 2.34000 -0.34000
v 2.49240 2.34000 0.34000
v 2.49590 1.88000 -0.69000
v 2.49590 1.88000 0.69000
v -1.39710 0.41000 0.50000
v -1.39710 0.41000 -0.50000
v 2.26650 2.80000 0.38000
v 2.26650 2.80000 -0.38000
v -3.02760 5.12000 0.57000
v -3.02760 5.12000 -0.57000
v -3.09020 5.16000 0.49000
v -3.09020 5.16000 -0.49000
v -0.76120 1.50000 0.49000
v -0.65730 1.75000 0.46000
v -0.76120 1.50000 -0.49000
v -0.65730 1.75000 -0.46000
v -2.71910 4.29000 -0.45000
v -0.49750 4.13000 0.18000
v -0.49750 4.13000 -0.18000
v -0.59490 4.35000 0.18000
v -0.59490 4.35000 -0.18000
v -0.10790 3.26000 0.18000
v -0.10790 3.26000 -0.18000
v -0.20530 3.48000 0.18000
v -0.20530 3.48000 -0.18000
v -0.30270 3.70000 0.18000
v -0.30270 3.70000 -0.18000
v -0.40010 3.92000 0.18000
v -0.40010 3.92000 -0.18000
v -1.47150 6.31000 0.18000
v -1.47150 6.31000 -0.18000
v -1.37410 6.10000 0.18000
v -1.37410 6.10000 -0.18000
v -1.27670 5.88000 0.18000
v -1.27670 5.88000 -0.18000
v -1.17930 5.66000 0.18000
v -1.17930 5.66000 -0.18000
v -1.08190 5.44000 0.18000
v -1.08190 5.44000 -0.18000
v -0.69230 4.57000 0.18000
v -0.69230 4.57000 -0.18000
v -0.78970 4.79000 0.18000
v -0.78970 4.79000 -0.18000
v -0.88710 5.01000 0.18000
v -0.88710 5.01000 -0.18000
v -0.98450 5.22000 0.18000
v -0.98450 5.22000 -0.18000
v -2.76650 4.36000 0.40000
v 1.73310 2.91000 0.01000
v 1.90620 3.07000 0.02000
v 1.73310 2.91000 -0.01000
v 1.90620 3.07000 -0.02000
v 2.44770 2.36000 0.65000
v 2.44770 2.36000 -0.65000
v 2.27030 2.72000 -0.62000
v 2.27030 2.72000 0.62000
v -2.02700 5.58000 0.28000
v -2.02700 5.58000 -0.28000
v 1.60980 3.26000 -0.25000
v 1.39490 3.05000 -0.20000
v 1.60980 3.26000 0.25000
v 1.39490 3.05000 0.20000
v -1.99250 5.53000 0.60000
v -1.99250 5.53000 -0.60000
v -2.76650 4.24000 0.29000
v -2.83780 4.30000 0.34000
v -2.83780 4.21000 0.24000
v -1.67090 4.15000 0.58000
v -1.67090 4.15000 -0.58000
v -0.70760 1.88000 0.45000
v -0.69810 2.21000 0.43000
v -0.70760 1.88000 -0.45000
v -0.69810 2.21000 -0.43000
v 1.06220 2.89000 0.46000
v 1.06220 2.89000 -0.46000
v -3.02760 5.12000 0.18000
v -3.02760 5.12000 -0.18000
v -3.09020 5.16000 0.23000
v -3.09020 5.16000 -0.23000
v -2.79820 4.24000 -0.37000
v -0.80680 2.84000 0.43000
v 0.87110 1.46000 0.46000
v 0.87110 1.46000 -0.46000
v -0.80680 2.84000 -0.43000
v 0.82220 1.86000 0.46000
v 0.82220 2.34000 0.46000
v 0.82220 1.86000 -0.46000
v 0.82220 2.34000 -0.46000
v -0.77490 0.41000 0.50000
v -0.77490 0.41000 -0.50000
v -2.83780 4.21000 -0.23000
v 1.65090 2.91000 -0.31000
v 1.80160 3.07000 -0.39000
v 1.65090 2.91000 0.31000
v 1.80160 3.07000 0.39000
v 1.02720 0.41000 0.50000
v 1.02720 0.41000 -0.50000
v -2.76650 4.24000 -0.28000
vt 0.31323 0.53998
vt 0.32234 0.54909
vt 0.31323 0.54909
vt 0.32234 0.53998
vt 1.52068 0.00294
vt 1.52584 0.01075
vt 1.52862 0.00430
vt 1.51878 0.01071
vt 0.52584 0.01075
vt 0.52068 0.00294
vt 0.52861 0.00430
vt 0.51878 0.01071
vt 0.69003 0.83332
vt 0.63499 0.77594
vt 0.69003 0.77594
vt 0.63499 0.83332
vt 0.51151 0.83189
vt 0.45647 0.77451
vt 0.51151 0.77451
vt 0.45647 0.83189
vt 1.69003 0.83332
vt 1.63499 0.77594
vt 1.63499 0.83332
vt 1.69003 0.77594
vt 1.51151 0.83189
vt 1.51151 0.77451
vt 1.45647 0.77451
vt 1.45647 0.83189
vt 0.92025 0.16722
vt 0.92025 0.27054
vt 0.89071 0.27054
vt 0.89070 0.16722
vt 0.33770 0.58053
vt 0.29634 0.61713
vt 0.29788 0.58054
vt 0.33926 0.61712
vt 0.69516 0.70069
vt 0.70564 0.71096
vt 0.69530 0.71349
vt 0.69811 0.72021
vt 0.69533 0.72693
vt 0.69533 0.74605
vt 0.69812 0.75281
vt 0.70565 0.76201
vt 0.69533 0.75954
vt 0.69521 0.77233
vt 0.50954 0.03661
vt 0.54048 0.03319
vt 0.51151 0.06520
vt 0.54487 0.06148
vt 1.50954 0.03661
vt 1.51151 0.06520
vt 1.54048 0.03319
vt 1.54487 0.06148
vt 0.27866 0.44374
vt 0.27021 0.42236
vt 0.27705 0.42351
vt 0.26347 0.44434
vt 0.26348 0.42404
vt 0.27119 0.44720
vt 0.20629 0.14403
vt 0.19785 0.12264
vt 0.20469 0.12380
vt 0.19110 0.14462
vt 0.19112 0.12433
vt 0.19882 0.14749
vt 0.74669 0.33100
vt 0.70253 0.28113
vt 0.74669 0.28113
vt 0.70253 0.33100
vt 1.74669 0.33100
vt 1.74669 0.28113
vt 1.70253 0.28113
vt 1.70253 0.33100
vt 0.67914 0.88681
vt 0.63499 0.83694
vt 0.67914 0.83694
vt 0.63499 0.88681
vt 1.67914 0.88681
vt 1.67914 0.83694
vt 1.63499 0.83694
vt 1.63499 0.88681
vt 0.69494 0.71266
vt 0.64996 0.70415
vt 0.67463 0.71351
vt 0.67321 0.72025
vt 0.67464 0.72698
vt 0.67464 0.74603
vt 0.67321 0.75276
vt 0.69497 0.72775
vt 0.69497 0.74522
vt 0.67463 0.75950
vt 0.64992 0.76773
vt 0.69496 0.76036
vt 0.64269 0.70950
vt 0.64266 0.76256
vt 0.63501 0.71716
vt 0.63499 0.75488
vt 0.34803 0.70788
vt 0.28760 0.70789
vt 0.51259 0.13651
vt 0.55956 0.13126
vt 1.51259 0.13651
vt 1.55956 0.13126
vt 0.75573 0.43809
vt 0.69771 0.47368
vt 0.69771 0.43808
vt 0.75572 0.47368
vt 1.69771 0.47368
vt 1.75573 0.43809
vt 1.69771 0.43808
vt 1.75572 0.47368
vt 0.19955 0.02396
vt 0.19110 0.00349
vt 0.19955 0.00294
vt 0.19110 0.02451
vt 1.19110 0.00349
vt 1.19955 0.02396
vt 1.19955 0.00294
vt 1.19110 0.02451
vt 0.23452 0.44579
vt 0.25548 0.41924
vt 0.25548 0.44579
vt 0.23452 0.41924
vt 1.23452 0.44579
vt 1.25548 0.41924
vt 1.23452 0.41924
vt 1.25548 0.44579
vt 0.57709 0.39610
vt 0.60811 0.35680
vt 0.60811 0.39610
vt 0.57709 0.35680
vt 1.57709 0.39610
vt 1.60811 0.35680
vt 1.57709 0.35680
vt 1.60811 0.39610
vt 0.00293 0.16284
vt 0.00293 0.00295
vt 0.09906 0.16284
vt 0.09906 0.00295
vt 0.30209 0.56986
vt 0.33348 0.56986
vt 0.29577 0.04222
vt 0.25865 0.06574
vt 0.25865 0.05663
vt 0.29577 0.08015
vt 0.45771 0.21649
vt 0.34550 0.23545
vt 0.36445 0.21649
vt 0.47667 0.23545
vt 0.47666 0.32870
vt 0.34549 0.32870
vt 0.36445 0.34766
vt 0.45771 0.34766
vt 0.53627 0.02527
vt 0.51189 0.02794
vt 1.53627 0.02527
vt 1.51189 0.02794
vt 0.31401 0.00295
vt 0.29726 0.00521
vt 0.29725 0.00306
vt 0.31402 0.00510
vt 1.31401 0.00295
vt 1.29726 0.00521
vt 1.31403 0.00510
vt 1.29725 0.00306
vt 0.50479 0.12301
vt 0.39374 0.12301
vt 0.39374 0.02976
vt 0.50479 0.02976
vt 0.69771 0.54346
vt 0.75572 0.54346
vt 1.69771 0.54346
vt 1.75572 0.54346
vt 0.75166 0.34280
vt 0.70179 0.34280
vt 1.75165 0.34280
vt 1.70179 0.34280
vt 0.55965 0.00855
vt 1.55965 0.00855
vt 0.38409 0.18088
vt 0.41311 0.16249
vt 0.41311 0.19214
vt 0.38409 0.17376
vt 1.41311 0.16249
vt 1.38409 0.18088
vt 1.41311 0.19214
vt 1.38409 0.17376
vt 0.74113 0.11151
vt 0.74113 0.08050
vt 0.75054 0.11151
vt 0.75054 0.08050
vt 1.75054 0.11151
vt 1.75054 0.08050
vt 1.74113 0.08050
vt 1.74113 0.11151
vt 0.76792 0.54874
vt 0.76792 0.62625
vt 0.71706 0.62625
vt 0.71706 0.54874
vt 0.12991 0.16645
vt 0.12991 0.18742
vt 0.12355 0.16645
vt 0.12355 0.18742
vt 1.12991 0.18742
vt 1.12991 0.16645
vt 1.12355 0.16645
vt 1.12355 0.18742
vt 0.50479 0.14982
vt 0.39374 0.14982
vt 0.39374 0.00295
vt 0.50479 0.00295
vt 0.00293 0.21424
vt 0.03078 0.21923
vt 0.00740 0.22218
vt 0.02710 0.18259
vt 0.24176 0.19825
vt 0.27840 0.20187
vt 0.24679 0.22609
vt 0.23884 0.22164
vt 0.38015 0.70596
vt 0.35514 0.86584
vt 0.35517 0.70596
vt 0.38012 0.86585
vt 0.06171 0.71676
vt 0.03670 0.87665
vt 0.03673 0.71676
vt 0.06168 0.87666
vt 0.02794 0.71677
vt 0.00293 0.87665
vt 0.00296 0.71676
vt 0.02791 0.87666
vt 0.31258 0.87140
vt 0.28762 0.71151
vt 0.31260 0.71151
vt 0.28760 0.87140
vt 0.85299 0.31799
vt 0.82798 0.47787
vt 0.82801 0.31798
vt 0.85296 0.47788
vt 0.34638 0.71151
vt 0.32137 0.87139
vt 0.32140 0.71150
vt 0.34635 0.87140
vt 0.74739 0.11762
vt 0.70253 0.27750
vt 0.70256 0.11761
vt 0.74736 0.27751
vt 0.96308 0.60237
vt 0.99596 0.54773
vt 0.99596 0.59963
vt 0.96308 0.54499
vt 1.99596 0.54773
vt 1.96308 0.60237
vt 1.99596 0.59963
vt 1.96308 0.54499
vt 0.78244 0.62458
vt 0.78244 0.54707
vt 0.70254 0.62458
vt 0.70253 0.54707
vt 0.87770 0.30086
vt 0.85693 0.46075
vt 0.85693 0.30086
vt 0.87771 0.46075
vt 0.90665 0.62788
vt 0.88588 0.78777
vt 0.88588 0.62788
vt 0.90666 0.78777
vt 0.21187 0.74889
vt 0.19110 0.90878
vt 0.19110 0.74889
vt 0.21188 0.90878
vt 0.90665 0.46437
vt 0.88588 0.62426
vt 0.88588 0.46437
vt 0.90666 0.62426
vt 0.18292 0.00295
vt 0.16215 0.16284
vt 0.16215 0.00295
vt 0.18293 0.16284
vt 0.90665 0.30086
vt 0.88588 0.46075
vt 0.88588 0.30086
vt 0.90666 0.46075
vt 0.57334 0.32238
vt 0.48542 0.15345
vt 0.57329 0.15342
vt 0.48546 0.32241
vt 1.34796 0.52564
vt 1.32619 0.52956
vt 1.34512 0.55427
vt 1.32968 0.52335
vt 0.32620 0.52956
vt 0.34796 0.52564
vt 0.34512 0.55427
vt 0.32968 0.52335
vt 0.11814 0.86797
vt 0.10948 0.89644
vt 0.10593 0.89119
vt 0.11284 0.86717
vt 1.10948 0.89644
vt 1.11814 0.86797
vt 1.10593 0.89119
vt 1.11284 0.86717
vt 0.15611 0.16284
vt 0.15611 0.00295
vt 0.97865 0.11276
vt 0.99499 0.09869
vt 0.99007 0.12318
vt 0.97272 0.10030
vt 1.97273 0.10030
vt 1.97865 0.11276
vt 1.99499 0.09869
vt 1.99007 0.12318
vt 0.32558 0.51406
vt 0.34428 0.48607
vt 0.34428 0.51071
vt 0.32558 0.48272
vt 1.34428 0.48607
vt 1.32558 0.51406
vt 1.34428 0.51071
vt 1.32558 0.48272
vt 0.51969 0.53894
vt 0.54831 0.53597
vt 0.51808 0.54776
vt 0.56108 0.57994
vt 1.54831 0.53597
vt 1.51808 0.54776
vt 1.56108 0.57994
vt 1.51969 0.53894
vt 0.09524 0.88001
vt 0.08495 0.86793
vt 0.09026 0.86715
vt 0.09167 0.88523
vt 1.08495 0.86793
vt 1.09524 0.88001
vt 1.09026 0.86715
vt 1.09167 0.88523
vt 0.30689 0.47778
vt 0.30690 0.51900
vt 1.30690 0.47778
vt 1.30690 0.51900
vt 0.27898 0.74526
vt 0.19111 0.74527
vt 0.19110 0.65740
vt 0.27897 0.65739
vt 0.50825 0.72305
vt 0.47244 0.74697
vt 0.47673 0.72305
vt 0.51253 0.74698
vt 1.63140 0.09574
vt 1.57697 0.11324
vt 1.62942 0.11203
vt 1.56744 0.09312
vt 0.62942 0.11203
vt 0.57697 0.11324
vt 0.63140 0.09574
vt 0.56744 0.09312
vt 0.51885 0.77089
vt 0.46612 0.77088
vt 0.09309 0.83086
vt 0.08825 0.82563
vt 0.10986 0.83086
vt 0.11469 0.82562
vt 1.09309 0.83086
vt 1.08825 0.82563
vt 1.10986 0.83086
vt 1.11469 0.82562
vt 0.96733 0.08785
vt 0.96724 0.09474
vt 0.96395 0.08785
vt 0.96308 0.09473
vt 0.00641 0.65033
vt 0.05988 0.65032
vt 0.06336 0.71314
vt 0.00293 0.71314
vt 0.26916 0.09063
vt 0.27246 0.08375
vt 0.27255 0.09063
vt 0.26830 0.08375
vt 0.97822 0.18775
vt 0.98706 0.16919
vt 0.98668 0.18775
vt 0.97272 0.16919
vt 1.98706 0.16919
vt 1.97822 0.18775
vt 1.98668 0.18775
vt 1.97273 0.16919
vt 0.63140 0.07885
vt 0.57084 0.08247
vt 0.63050 0.05257
vt 0.56851 0.05628
vt 1.63049 0.05257
vt 1.57083 0.08247
vt 1.63140 0.07885
vt 1.56851 0.05628
vt 0.12720 0.26300
vt 0.00293 0.42289
vt 0.00293 0.26300
vt 0.12720 0.42289
vt 0.98961 0.06267
vt 0.97288 0.06388
vt 1.98961 0.06267
vt 1.97288 0.06388
vt 0.36893 0.21287
vt 0.31657 0.11768
vt 0.38387 0.11733
vt 0.32478 0.21271
vt 1.36893 0.21287
vt 1.38387 0.11733
vt 1.31657 0.11768
vt 1.32478 0.21271
vt 0.69542 0.59869
vt 0.63950 0.58242
vt 0.69340 0.58241
vt 0.63749 0.59870
vt 1.69542 0.59869
vt 1.63950 0.58242
vt 1.63749 0.59870
vt 1.69340 0.58241
vt 0.96394 0.10162
vt 0.96733 0.10162
vt 0.27255 0.07686
vt 0.26917 0.07686
vt 1.61881 0.00294
vt 1.57419 0.00561
vt 0.61881 0.00294
vt 0.57419 0.00561
vt 1.58673 0.21127
vt 1.63081 0.20865
vt 0.58673 0.21127
vt 0.63081 0.20865
vt 0.23965 0.18697
vt 0.29446 0.14553
vt 1.38778 0.08519
vt 1.30207 0.08518
vt 1.38778 0.04708
vt 1.30207 0.01540
vt 1.36858 0.00294
vt 0.04206 0.22132
vt 0.08342 0.16645
vt 0.38778 0.08519
vt 0.30207 0.08518
vt 0.38778 0.04708
vt 0.30207 0.01540
vt 0.36858 0.00294
vt 0.68704 0.44920
vt 0.64254 0.40010
vt 0.68433 0.40010
vt 0.63981 0.44919
vt 1.68704 0.44920
vt 1.64254 0.40010
vt 1.63981 0.44919
vt 1.68433 0.40010
vt 0.69612 0.61557
vt 0.63680 0.61558
vt 1.63680 0.61558
vt 1.69612 0.61557
vt 0.53750 0.61072
vt 0.50578 0.57361
vt 1.53750 0.61072
vt 1.50578 0.57361
vt 0.75716 0.32449
vt 0.78209 0.16656
vt 0.78205 0.32656
vt 0.75561 0.16756
vt 0.16219 0.76133
vt 0.18182 0.91466
vt 0.16215 0.92134
vt 0.18108 0.76062
vt 0.82316 0.81317
vt 0.84302 0.93729
vt 0.82316 0.94338
vt 0.84206 0.81302
vt 0.79434 0.79228
vt 0.81403 0.92222
vt 0.79421 0.92843
vt 0.81324 0.79201
vt 0.62582 0.92266
vt 0.60623 0.78688
vt 0.62512 0.78651
vt 0.60604 0.92900
vt 0.72201 0.78616
vt 0.74158 0.92778
vt 0.72183 0.93424
vt 0.74090 0.78567
vt 0.93453 0.15102
vt 0.91491 0.00355
vt 0.93380 0.00295
vt 0.91483 0.15759
vt 0.81993 0.80709
vt 0.84482 0.65247
vt 0.84481 0.80941
vt 0.81833 0.65320
vt 0.82429 0.31170
vt 0.84965 0.16046
vt 0.84913 0.31437
vt 0.82316 0.16083
vt 0.38968 0.86514
vt 0.41542 0.71727
vt 0.41448 0.86814
vt 0.38892 0.71727
vt 0.85379 0.77527
vt 0.87860 0.63053
vt 0.87857 0.77841
vt 0.85210 0.63039
vt 0.85864 0.29382
vt 0.88343 0.15236
vt 0.88339 0.29725
vt 0.85693 0.15190
vt 0.58468 0.25201
vt 0.62624 0.35477
vt 0.58191 0.34810
vt 0.62616 0.21285
vt 0.78209 0.16295
vt 0.75673 0.00508
vt 0.78162 0.00294
vt 0.75561 0.16202
vt 0.89117 0.16294
vt 0.89070 0.00293
vt 0.91039 0.00956
vt 0.91006 0.16360
vt 0.78944 0.62389
vt 0.78938 0.49368
vt 0.80924 0.49976
vt 0.80834 0.62403
vt 0.87684 0.92604
vt 0.87623 0.78988
vt 0.89607 0.79602
vt 0.89573 0.92624
vt 0.77057 0.79199
vt 0.76992 0.92814
vt 0.75103 0.92777
vt 0.75078 0.78566
vt 0.51942 0.92985
vt 0.51919 0.78178
vt 0.53894 0.78823
vt 0.53831 0.93034
vt 0.24941 0.23321
vt 0.24873 0.38128
vt 0.22984 0.38068
vt 0.22970 0.22664
vt 0.84482 0.64885
vt 0.81993 0.49422
vt 0.84481 0.49191
vt 0.81833 0.64812
vt 0.84966 0.15685
vt 0.82377 0.00569
vt 0.84860 0.00295
vt 0.82316 0.15657
vt 0.44919 0.86814
vt 0.42345 0.72027
vt 0.44825 0.71727
vt 0.42269 0.86814
vt 0.87860 0.62663
vt 0.85379 0.48190
vt 0.87857 0.47876
vt 0.85210 0.62677
vt 0.88343 0.14783
vt 0.85864 0.00637
vt 0.88339 0.00294
vt 0.85693 0.14829
vt 0.39947 0.57031
vt 0.35794 0.67309
vt 0.35514 0.57700
vt 0.39944 0.71223
vt 0.69794 0.64181
vt 0.63499 0.64182
vt 1.69794 0.64181
vt 1.63499 0.64182
vt 0.64151 0.48581
vt 0.69137 0.48580
vt 1.64151 0.48581
vt 1.69137 0.48580
vt 0.48059 0.64027
vt 0.52775 0.64136
vt 0.07503 0.25183
vt 0.04537 0.25360
vt 0.07502 0.24336
vt 0.04536 0.23926
vt 1.48059 0.64027
vt 1.52775 0.64136
vt 1.04537 0.25360
vt 1.07503 0.25183
vt 1.07502 0.24336
vt 1.04536 0.23926
vt 0.13301 0.98351
vt 0.11390 0.95396
vt 0.13301 0.95396
vt 0.11390 0.98351
vt 0.15714 0.19600
vt 0.13803 0.16646
vt 0.15714 0.16645
vt 0.13803 0.19600
vt 0.90016 0.99707
vt 0.88105 0.96752
vt 0.90016 0.96752
vt 0.88105 0.99707
vt 0.54313 0.97265
vt 0.52401 0.94311
vt 0.54312 0.94311
vt 0.52401 0.97265
vt 0.22951 0.99433
vt 0.21040 0.96479
vt 0.22951 0.96479
vt 0.21040 0.99433
vt 0.29706 0.11328
vt 0.27795 0.08374
vt 0.29706 0.08374
vt 0.27795 0.11328
vt 0.20539 0.99433
vt 0.18627 0.96479
vt 0.20539 0.96479
vt 0.18628 0.99433
vt 0.87604 0.99706
vt 0.85693 0.96752
vt 0.87604 0.96752
vt 0.85693 0.99706
vt 0.53830 0.52814
vt 0.51919 0.49860
vt 0.53830 0.49860
vt 0.51919 0.52814
vt 0.56725 0.63625
vt 0.54814 0.60670
vt 0.56725 0.60670
vt 0.54814 0.63625
vt 0.07029 0.99638
vt 0.05118 0.96684
vt 0.07029 0.96684
vt 0.05118 0.99638
vt 0.77954 0.52323
vt 0.76043 0.49369
vt 0.77954 0.49369
vt 0.76043 0.52323
vt 0.59137 0.99370
vt 0.57226 0.96415
vt 0.59137 0.96415
vt 0.57226 0.99370
vt 0.25364 0.99434
vt 0.23452 0.96479
vt 0.25363 0.96479
vt 0.23452 0.99434
vt 0.56242 0.52814
vt 0.54331 0.49859
vt 0.56242 0.49859
vt 0.54331 0.52814
vt 1.96308 0.71755
vt 1.99597 0.66512
vt 1.96308 0.66776
vt 1.99598 0.72017
vt 1.96308 0.83117
vt 1.99597 0.77874
vt 1.96308 0.78138
vt 1.99598 0.83379
vt 0.99597 0.66512
vt 0.96308 0.71755
vt 0.96308 0.66776
vt 0.99598 0.72017
vt 0.99597 0.77874
vt 0.96308 0.83117
vt 0.96308 0.78138
vt 0.99598 0.83379
vt 0.73306 0.00295
vt 0.73306 0.11399
vt 0.63981 0.00295
vt 0.63981 0.11399
vt 0.19110 0.54272
vt 0.28435 0.54272
vt 0.28435 0.65377
vt 0.19110 0.65377
vt 0.69794 0.69279
vt 0.63499 0.69280
vt 1.69794 0.69279
vt 1.63499 0.69280
vt 0.62637 0.78289
vt 0.53849 0.69503
vt 0.62636 0.69502
vt 0.53850 0.78290
vt 0.07507 0.23718
vt 0.12270 0.19675
vt 0.26410 0.10630
vt 0.22374 0.15398
vt 1.35677 0.52399
vt 1.38915 0.56684
vt 0.35677 0.52399
vt 0.38915 0.56684
vt 0.98631 0.97139
vt 0.95343 0.91675
vt 0.98631 0.91949
vt 0.95343 0.97413
vt 1.98631 0.97139
vt 1.95343 0.91675
vt 1.95343 0.97413
vt 1.98631 0.91949
vt 0.19110 0.06884
vt 0.25143 0.06715
vt 0.16026 0.26970
vt 0.16186 0.20936
vt 0.56237 0.02037
vt 0.56237 0.05967
vt 0.55296 0.05967
vt 0.55296 0.02037
vt 1.56237 0.02037
vt 1.55296 0.05967
vt 1.56237 0.05967
vt 1.55296 0.02037
vt 0.29250 0.45181
vt 0.13293 0.53766
vt 0.12355 0.45029
vt 0.30188 0.53919
vt 0.22080 0.27870
vt 0.13946 0.44062
vt 0.13320 0.27177
vt 0.22706 0.44754
vt 0.30843 0.12143
vt 0.30843 0.14799
vt 0.30207 0.14799
vt 0.30207 0.12143
vt 1.30843 0.12143
vt 1.30207 0.14799
vt 1.30843 0.14799
vt 1.30207 0.12143
vt 0.63951 0.22863
vt 0.69342 0.22863
vt 0.63750 0.25080
vt 0.69543 0.25080
vt 1.69342 0.22863
vt 1.63750 0.25080
vt 1.69543 0.25080
vt 1.63951 0.22863
vt 0.76304 0.70556
vt 0.71218 0.78206
vt 0.71755 0.70825
vt 0.77555 0.78206
vt 0.52621 0.65236
vt 0.49902 0.68586
vt 1.52621 0.65236
vt 1.49902 0.68586
vt 0.83280 0.99706
vt 0.83280 0.96752
vt 0.85192 0.99706
vt 0.85192 0.96752
vt 0.97273 0.89942
vt 0.97272 0.86988
vt 0.99184 0.89942
vt 0.99184 0.86988
vt 0.92930 0.99707
vt 0.92930 0.96753
vt 0.94841 0.99707
vt 0.94841 0.96753
vt 0.67358 0.91997
vt 0.67358 0.89043
vt 0.69270 0.91997
vt 0.69270 0.89043
vt 0.07530 0.99639
vt 0.07530 0.96684
vt 0.09441 0.99639
vt 0.09441 0.96684
vt 0.61569 0.38793
vt 0.61569 0.35838
vt 0.63480 0.38793
vt 0.63480 0.35838
vt 0.29242 0.20264
vt 0.29242 0.17309
vt 0.31153 0.20264
vt 0.31153 0.17309
vt 0.32137 0.45942
vt 0.34048 0.42988
vt 0.34048 0.45942
vt 0.32137 0.42988
vt 0.02705 0.99638
vt 0.02705 0.96684
vt 0.04617 0.99638
vt 0.04617 0.96684
vt 0.96308 0.86626
vt 0.96308 0.83672
vt 0.98219 0.86626
vt 0.98219 0.83672
vt 0.16215 0.99433
vt 0.16215 0.96478
vt 0.18126 0.99433
vt 0.18126 0.96478
vt 0.90518 0.99707
vt 0.90518 0.96752
vt 0.92429 0.99707
vt 0.92429 0.96752
vt 0.51436 0.72420
vt 0.51436 0.69465
vt 0.53348 0.72420
vt 0.53348 0.69465
vt 0.54814 0.99370
vt 0.54814 0.96415
vt 0.56725 0.99370
vt 0.56725 0.96415
vt 0.00293 0.99638
vt 0.00293 0.96684
vt 0.02204 0.99638
vt 0.02204 0.96684
vt 0.57982 0.61232
vt 0.62521 0.61511
vt 0.62530 0.68496
vt 0.56744 0.68884
vt 0.55663 0.69140
vt 0.54394 0.66007
vt 0.56152 0.66726
vt 0.53773 0.69102
vt 1.56152 0.66726
vt 1.54394 0.66007
vt 1.55663 0.69140
vt 1.53773 0.69102
vt 0.98173 0.32482
vt 0.98174 0.42815
vt 0.96308 0.32897
vt 0.96308 0.43229
vt 0.94313 0.15652
vt 0.94314 0.25984
vt 0.92448 0.16067
vt 0.92449 0.26399
vt 0.96726 0.10987
vt 0.96726 0.21319
vt 0.94860 0.11402
vt 0.94861 0.21734
vt 0.95761 0.80782
vt 0.95762 0.91114
vt 0.93895 0.81197
vt 0.93896 0.91529
vt 0.95761 0.48056
vt 0.95762 0.58388
vt 0.93895 0.48471
vt 0.93896 0.58803
vt 0.56679 0.85307
vt 0.56680 0.95639
vt 0.54814 0.85722
vt 0.54815 0.96054
vt 0.93896 0.36986
vt 0.93895 0.26654
vt 0.95762 0.36571
vt 0.95761 0.26239
vt 0.95761 0.58965
vt 0.95762 0.69297
vt 0.93895 0.59380
vt 0.93896 0.69712
vt 0.98173 0.43391
vt 0.98174 0.53723
vt 0.96308 0.43806
vt 0.96308 0.54138
vt 0.15668 0.86755
vt 0.15669 0.97087
vt 0.13803 0.87170
vt 0.13803 0.97502
vt 0.95761 0.37147
vt 0.95762 0.47479
vt 0.93895 0.37562
vt 0.93896 0.47894
vt 0.98173 0.21574
vt 0.98174 0.31906
vt 0.96308 0.21989
vt 0.96308 0.32321
vt 0.59092 0.85307
vt 0.59093 0.95639
vt 0.57226 0.85722
vt 0.57227 0.96054
vt 0.95761 0.69873
vt 0.95762 0.80205
vt 0.93895 0.70288
vt 0.93896 0.80620
vt 0.95761 0.00293
vt 0.95762 0.10625
vt 0.93895 0.00708
vt 0.93896 0.11040
vt 0.10625 0.94095
vt 0.00708 0.92228
vt 0.11040 0.92229
vt 0.00293 0.94094
vt 0.50671 0.92307
vt 0.40754 0.90440
vt 0.51086 0.90441
vt 0.40339 0.92306
vt 0.10625 0.91867
vt 0.00708 0.90001
vt 0.11040 0.90002
vt 0.00293 0.91866
vt 0.26547 0.96117
vt 0.16630 0.94251
vt 0.26962 0.94252
vt 0.16215 0.96116
vt 0.28210 0.94894
vt 0.38127 0.96761
vt 0.27795 0.96760
vt 0.38542 0.94895
vt 0.69971 0.96784
vt 0.60054 0.94917
vt 0.70386 0.94918
vt 0.59639 0.96783
vt 0.40057 0.94533
vt 0.30139 0.92667
vt 0.40472 0.92668
vt 0.29725 0.94532
vt 0.32337 0.89435
vt 0.22420 0.87569
vt 0.32752 0.87570
vt 0.22005 0.89434
vt 0.49706 0.97464
vt 0.39789 0.95598
vt 0.50121 0.95599
vt 0.39374 0.97464
vt 0.28477 0.93890
vt 0.18560 0.92024
vt 0.28892 0.92024
vt 0.18145 0.93889
vt 0.94095 0.96391
vt 0.84178 0.94524
vt 0.94510 0.94525
vt 0.83763 0.96390
vt 0.82515 0.96564
vt 0.72598 0.94698
vt 0.82930 0.94699
vt 0.72183 0.96564
vt 0.51636 0.95237
vt 0.41719 0.93371
vt 0.52051 0.93371
vt 0.41304 0.95236
vt 0.32337 0.91663
vt 0.22420 0.89796
vt 0.32752 0.89797
vt 0.22005 0.91662
vt 0.10625 0.96322
vt 0.00708 0.94456
vt 0.11040 0.94457
vt 0.00293 0.96322
vt 0.38256 0.51156
vt 0.41982 0.54312
vt 1.38256 0.51156
vt 1.41982 0.54312
vt 0.56117 0.06329
vt 0.56245 0.08358
vt 0.55779 0.08358
vt 0.55779 0.06329
vt 0.63016 0.00295
vt 0.63354 0.02324
vt 0.63016 0.02324
vt 0.63482 0.00295
vt 0.15310 0.76063
vt 0.12356 0.86395
vt 0.12355 0.76063
vt 0.15310 0.86395
vt 0.98720 0.19609
vt 0.99084 0.23243
vt 0.98869 0.23248
vt 0.98935 0.19603
vt 1.99084 0.23243
vt 1.98720 0.19609
vt 1.98869 0.23248
vt 1.98935 0.19603
vt 1.44911 0.48607
vt 1.45041 0.53322
vt 0.44911 0.48607
vt 0.45042 0.53322
vt 0.69771 0.94556
vt 0.69771 0.78567
vt 0.71661 0.94556
vt 0.71661 0.78567
vt 0.91483 0.43404
vt 0.91483 0.27415
vt 0.93373 0.43404
vt 0.93373 0.27415
vt 0.91483 0.59755
vt 0.91483 0.43766
vt 0.93373 0.59755
vt 0.93373 0.43766
vt 0.85210 0.94162
vt 0.85210 0.78174
vt 0.87100 0.94162
vt 0.87100 0.78174
vt 0.91483 0.76106
vt 0.91483 0.60117
vt 0.93373 0.76106
vt 0.93373 0.60117
vt 0.91483 0.92457
vt 0.91483 0.76468
vt 0.93373 0.92457
vt 0.93373 0.76468
vt 0.79421 0.48985
vt 0.79421 0.32996
vt 0.82071 0.48985
vt 0.82071 0.32996
vt 0.78938 0.16284
vt 0.78938 0.00295
vt 0.81588 0.16284
vt 0.81588 0.00295
vt 0.07048 0.73690
vt 0.07048 0.57700
vt 0.09698 0.73690
vt 0.09698 0.57700
vt 0.76043 0.49007
vt 0.78693 0.33018
vt 0.78693 0.49007
vt 0.76043 0.33018
vt 0.78938 0.32634
vt 0.81588 0.16645
vt 0.81588 0.32634
vt 0.78938 0.16645
vt 0.78456 0.78840
vt 0.81106 0.62851
vt 0.81106 0.78840
vt 0.78456 0.62851
vt 0.24939 0.05309
vt 0.21439 0.01040
vt 0.17592 0.21138
vt 0.21867 0.24631
vt 1.99418 0.19242
vt 1.99345 0.15597
vt 1.99203 0.19236
vt 1.99561 0.15602
vt 0.99346 0.15597
vt 0.99418 0.19242
vt 0.99203 0.19236
vt 0.99560 0.15602
vt 0.97413 0.12676
vt 0.98565 0.12676
vt 1.97413 0.12676
vt 1.98565 0.12676
vt 0.22543 0.19680
vt 0.19514 0.16627
vt 0.22601 0.17263
vt 0.18587 0.18873
vt 0.26389 0.00356
vt 0.29448 0.03381
vt 0.27202 0.04312
vt 0.28807 0.00294
vt 0.00294 0.25222
vt 0.00293 0.24070
vt 1.00293 0.24070
vt 1.00294 0.25222
vt 0.71647 0.69942
vt 0.70309 0.69961
vt 0.70989 0.69368
vt 0.72061 0.69324
vt 0.46933 0.60939
vt 0.41982 0.55195
vt 0.45775 0.55195
vt 0.40822 0.60938
vt 0.00293 0.42651
vt 0.11398 0.42651
vt 0.11398 0.45332
vt 0.00293 0.45332
vt 0.11398 0.57339
vt 0.00293 0.54657
vt 0.11398 0.54657
vt 0.00293 0.57339
vt 0.63680 0.26195
vt 0.69612 0.26196
vt 0.63499 0.28819
vt 0.69794 0.28819
vt 1.69612 0.26196
vt 1.63499 0.28819
vt 1.69794 0.28819
vt 1.63680 0.26195
vt 0.27806 0.74888
vt 0.27807 0.81654
vt 0.22005 0.81654
vt 0.22005 0.74888
vt 1.27806 0.74888
vt 1.22005 0.81654
vt 1.27807 0.81654
vt 1.22005 0.74888
vt 0.64153 0.13013
vt 0.69140 0.13013
vt 0.74113 0.04224
vt 0.75054 0.00295
vt 0.75054 0.04224
vt 0.74113 0.00295
vt 1.64153 0.13013
vt 1.69140 0.13013
vt 1.75054 0.04224
vt 1.75054 0.00295
vt 1.74113 0.04224
vt 1.74113 0.00295
vt 0.16851 0.16645
vt 0.16215 0.19301
vt 0.16215 0.16645
vt 0.16851 0.19301
vt 0.38409 0.02324
vt 0.38748 0.00295
vt 0.38875 0.02324
vt 0.38410 0.00295
vt 1.16851 0.19301
vt 1.16851 0.16645
vt 1.16215 0.19301
vt 1.16215 0.16645
vt 0.96308 0.06394
vt 0.96646 0.08423
vt 0.96308 0.08423
vt 0.96773 0.06394
vt 0.63140 0.51766
vt 0.57697 0.50017
vt 0.62942 0.50137
vt 0.56744 0.52029
vt 0.45800 0.20119
vt 0.45799 0.15343
vt 1.57697 0.50017
vt 1.63140 0.51766
vt 1.62942 0.50137
vt 1.56744 0.52029
vt 1.45800 0.20119
vt 1.45799 0.15343
vt 0.77629 0.62963
vt 0.76967 0.69702
vt 0.76953 0.63543
vt 0.77638 0.70362
vt 0.63050 0.56084
vt 0.57084 0.53093
vt 0.63140 0.53455
vt 0.56851 0.55713
vt 1.57084 0.53093
vt 1.63050 0.56084
vt 1.63140 0.53455
vt 1.56851 0.55713
vt 0.63499 0.33918
vt 0.69794 0.33918
vt 0.26832 0.31152
vt 0.32069 0.21633
vt 0.33562 0.31187
vt 0.27653 0.21649
vt 1.32069 0.21633
vt 1.26832 0.31152
vt 1.33562 0.31187
vt 1.27653 0.21649
vt 1.63499 0.33918
vt 1.69794 0.33918
vt 0.57419 0.60779
vt 0.61881 0.61046
vt 0.46140 0.53163
vt 0.49478 0.50428
vt 0.72042 0.63489
vt 0.70946 0.63506
vt 1.61881 0.61046
vt 1.57419 0.60779
vt 1.46141 0.53163
vt 1.49478 0.50428
vt 0.58673 0.40213
vt 0.63081 0.40476
vt 1.58673 0.40213
vt 1.63081 0.40476
vt 0.33953 0.34402
vt 0.25382 0.34402
vt 0.33953 0.38212
vt 0.25382 0.41380
vt 0.32032 0.42627
vt 1.33953 0.34402
vt 1.25382 0.34402
vt 1.33953 0.38212
vt 1.25382 0.41380
vt 1.32032 0.42627
vt 0.96308 0.66336
vt 0.99596 0.60872
vt 0.99596 0.66062
vt 0.96308 0.60598
vt 1.96308 0.66336
vt 1.99596 0.60872
vt 1.96308 0.60598
vt 1.99596 0.66062
vt 0.75806 0.69336
vt 0.75860 0.63524
vt 0.59766 0.78652
vt 0.59766 0.84947
vt 0.55296 0.84947
vt 0.55296 0.78652
vt 1.55296 0.84947
vt 1.59766 0.78652
vt 1.55296 0.78652
vt 1.59766 0.84947
vt 0.70253 0.62928
vt 1.50059 0.56187
vt 1.46920 0.54932
vt 1.47647 0.56687
vt 1.50012 0.54297
vt 0.50059 0.56187
vt 0.46920 0.54932
vt 0.50012 0.54297
vt 0.47647 0.56687
vt 0.37434 0.86967
vt 0.35616 0.89583
vt 0.34549 0.87772
vt 0.37429 0.90260
vt 1.37429 0.90260
vt 1.37434 0.86967
vt 1.35616 0.89583
vt 1.34549 0.87772
vt 0.48546 0.49499
vt 0.48542 0.32603
vt 0.57329 0.32600
vt 0.57334 0.49496
vt 0.99598 0.77435
vt 0.96308 0.72194
vt 0.99597 0.72456
vt 0.96308 0.77698
vt 0.63499 0.89042
vt 0.66789 0.94284
vt 0.63499 0.94547
vt 0.66788 0.89305
vt 1.99597 0.72456
vt 1.96308 0.72194
vt 1.99598 0.77435
vt 1.96308 0.77698
vt 1.66788 0.89305
vt 1.63499 0.89042
vt 1.66789 0.94284
vt 1.63499 0.94547
vt 0.98936 0.25736
vt 0.98721 0.25742
vt 1.98936 0.25736
vt 1.98721 0.25742
vt 0.18157 0.63837
vt 0.12762 0.54177
vt 0.17748 0.54176
vt 0.12355 0.63838
vt 1.12762 0.54177
vt 1.12355 0.63838
vt 1.18157 0.63837
vt 1.17748 0.54176
vt 0.18157 0.67076
vt 0.12355 0.67076
vt 1.12355 0.67076
vt 1.18157 0.67076
vt 0.34550 0.46349
vt 0.47667 0.46349
vt 0.36445 0.48245
vt 0.45771 0.48245
vt 0.34549 0.37024
vt 0.47667 0.37024
vt 0.45771 0.35128
vt 0.36445 0.35128
vt 1.99539 0.14222
vt 1.99324 0.14217
vt 0.99539 0.14222
vt 0.99324 0.14217
vt 0.18157 0.70886
vt 0.12356 0.70887
vt 1.18157 0.70886
vt 1.12356 0.70887
vt 0.41666 0.87298
vt 0.41662 0.89944
vt 1.41667 0.87298
vt 1.41662 0.89944
vt 0.01307 0.60080
vt 0.05322 0.60080
vt 0.30760 0.16798
vt 0.30294 0.16798
vt 0.30762 0.16708
vt 0.30207 0.15979
vt 0.30762 0.15979
vt 0.47166 0.18442
vt 0.46698 0.18352
vt 0.47164 0.18352
vt 0.46612 0.19170
vt 0.47166 0.19170
vt 0.47673 0.69152
vt 0.50826 0.69153
vt 0.01738 0.57700
vt 0.04891 0.57700
vt 0.30762 0.15251
vt 0.30294 0.15161
vt 0.30760 0.15161
vt 0.47164 0.19989
vt 0.46698 0.19989
vt 0.47167 0.19898
vt 0.36892 0.48607
vt 0.36892 0.51071
vt 1.36892 0.48607
vt 1.36892 0.51071
vt 0.76184 0.69972
vt 0.67913 0.36140
vt 0.64775 0.36139
vt 1.67913 0.36140
vt 1.64775 0.36139
vt 0.18158 0.75700
vt 0.12356 0.75701
vt 1.12356 0.75701
vt 1.18158 0.75700
vt 0.99596 0.05758
vt 0.96308 0.00294
vt 0.99596 0.00568
vt 0.96308 0.06032
vt 0.75054 0.07688
vt 0.74113 0.04586
vt 0.75054 0.04586
vt 0.74113 0.07688
vt 1.99596 0.05758
vt 1.96308 0.00294
vt 1.96308 0.06032
vt 1.99596 0.00568
vt 1.75054 0.07688
vt 1.74113 0.04586
vt 1.74113 0.07688
vt 1.75054 0.04586
vt 0.00929 0.18742
vt 0.00293 0.16645
vt 0.00929 0.16645
vt 0.00293 0.18742
vt 1.00929 0.18742
vt 1.00929 0.16645
vt 1.00293 0.16645
vt 1.00293 0.18742
vt 0.65112 0.34279
vt 0.67576 0.34280
vt 1.65112 0.34279
vt 1.67576 0.34280
vt 0.41239 0.71365
vt 0.46880 0.69993
vt 0.46512 0.71366
vt 0.40872 0.69992
vt 0.11498 0.82200
vt 0.07089 0.81128
vt 0.11785 0.81128
vt 0.07376 0.82201
vt 1.11498 0.82200
vt 1.07089 0.81128
vt 1.07376 0.82201
vt 1.11785 0.81128
vt 0.99418 0.12681
vt 0.99202 0.12676
vt 1.99418 0.12681
vt 1.99202 0.12676
vt 0.41152 0.65888
vt 0.46601 0.65888
vt 0.07307 0.77920
vt 0.11566 0.77920
vt 1.07307 0.77920
vt 1.11566 0.77920
vt 0.47763 0.15344
vt 0.47763 0.17990
vt 0.46612 0.17990
vt 0.46612 0.15344
vt 1.47763 0.17990
vt 1.47763 0.15344
vt 1.46612 0.17990
vt 1.46612 0.15344
vt 0.07048 0.74052
vt 0.11824 0.74051
vt 1.07048 0.74052
vt 1.11824 0.74051
vt 0.27949 0.82016
vt 0.27949 0.87207
vt 0.22970 0.87207
vt 0.22970 0.82016
vt 0.45647 0.83551
vt 0.50626 0.88741
vt 0.45647 0.88741
vt 0.50626 0.83551
vt 1.22970 0.87207
vt 1.27949 0.82016
vt 1.22970 0.82016
vt 1.27949 0.87207
vt 1.45647 0.88741
vt 1.50626 0.83551
vt 1.45647 0.83551
vt 1.50626 0.88741
vn 0.9606 -0.2677 0.0000
vn 0.9291 -0.2677 -0.2598
vn 0.9291 -0.2677 0.2598
vn 0.0000 -1.0000 0.0000
vn -0.1968 0.9764 0.0000
vn 0.9528 0.3150 0.0000
vn -1.0000 0.0000 0.0000
vn 0.9134 0.3150 0.2520
vn 0.9134 0.3150 -0.2520
vn -1.0000 -0.0630 0.0000
vn 0.9213 0.3937 0.0000
vn 0.8898 0.3937 0.2441
vn 0.8898 0.3937 -0.2441
vn 0.9134 -0.4094 0.0000
vn -0.1417 0.9134 -0.3858
vn -0.1417 0.9134 0.3858
vn 1.0000 0.0000 0.0000
vn 0.8583 0.5118 0.0000
vn 0.1654 -0.9843 0.0000
vn 0.8268 0.5118 0.2283
vn 0.8268 0.5118 -0.2283
vn -0.1260 0.9764 0.1575
vn -0.1260 0.9764 -0.1575
vn 0.0000 1.0000 0.0000
vn 1.0000 -0.0866 0.0000
vn 0.6299 -0.2047 -0.7480
vn 0.6299 -0.2047 0.7480
vn 0.1575 -0.9843 0.0472
vn 0.1575 -0.9843 -0.0472
vn -0.1654 0.9843 0.0000
vn 0.0000 0.7087 0.7087
vn 0.0000 0.7087 -0.7087
vn 0.4094 -0.2047 -0.8898
vn 0.4094 -0.2047 0.8898
vn 0.1181 -0.9921 0.0000
vn 1.0000 0.0787 0.0000
vn -0.1181 0.7008 0.7008
vn -0.1181 0.7008 -0.7008
vn -0.2835 -0.9606 0.0000
vn -0.9528 -0.3150 0.0000
vn 0.1496 -0.2047 -0.9685
vn 0.1496 -0.2047 0.9685
vn -0.9921 -0.0630 0.0709
vn -0.9921 -0.0630 -0.0709
vn 0.7087 0.7087 0.0000
vn -0.9921 -0.0709 0.1181
vn -0.9921 -0.0709 -0.1181
vn 0.3622 -0.9213 0.1024
vn 0.3622 -0.9213 -0.1024
vn 0.4488 -0.1181 -0.8819
vn 0.4488 -0.1181 0.8819
vn -0.9921 -0.0945 0.0866
vn -0.9921 -0.0945 -0.0866
vn 0.3386 -0.9370 0.0945
vn 0.3386 -0.9370 -0.0945
vn -0.9764 -0.1102 0.1654
vn -0.9764 -0.1102 -0.1654
vn 0.3780 -0.9213 0.0000
vn 0.0079 -0.1102 -0.9921
vn 0.0079 -0.1102 0.9921
vn 0.6535 0.7559 0.0000
vn 0.6299 0.7559 0.1732
vn 0.6299 0.7559 -0.1732
vn 0.3543 -0.9370 0.0000
vn -0.9843 -0.1496 0.0787
vn -0.9843 -0.1575 0.0866
vn -0.9843 -0.1496 -0.0787
vn -0.9843 -0.1575 -0.0866
vn 0.0000 0.9764 0.2047
vn 0.4016 0.9134 0.0000
vn 0.0000 0.9764 -0.2047
vn -0.1339 0.4961 -0.8583
vn -0.1339 0.4961 0.8583
vn 0.0000 -0.0709 1.0000
vn 0.0000 -0.0709 -1.0000
vn -0.9843 -0.1575 0.0787
vn -0.9843 -0.1575 -0.0787
vn 0.0000 -0.0394 1.0000
vn 0.0000 -0.0472 -1.0000
vn 0.0000 -0.0394 -1.0000
vn 0.0000 -0.0472 1.0000
vn -0.9843 -0.1811 0.0000
vn 0.0000 0.0000 -1.0000
vn 0.0000 0.0000 1.0000
vn 0.0000 -0.0236 -1.0000
vn 0.0000 -0.0236 1.0000
vn 0.1968 -0.1181 0.9764
vn 0.1968 -0.1181 -0.9764
vn 0.3858 0.9134 0.1102
vn 0.3858 0.9134 -0.1102
vn -0.5906 -0.8032 0.0000
vn 0.3858 0.0472 -0.9213
vn 0.3858 0.0472 0.9213
vn -1.0000 -0.0236 0.0000
vn -1.0000 -0.0472 0.0000
vn 0.3386 -0.0630 -0.9370
vn 0.0709 0.1339 0.9843
vn 0.3386 -0.0630 0.9370
vn 0.0709 0.1339 -0.9843
vn -0.9134 -0.4094 0.0000
vn 0.0000 0.0866 -1.0000
vn 0.0000 0.0866 1.0000
vn -0.9843 0.1732 0.0000
vn 0.1968 -0.9764 0.0000
vn 0.1260 0.0472 -0.9921
vn 0.1260 0.0472 0.9921
vn -0.0709 -0.1181 -0.9921
vn -0.0709 -0.1181 0.9921
vn -1.0000 0.0787 0.0000
vn 0.0709 -0.0630 0.9921
vn 0.0709 -0.0630 -0.9921
vn 0.9291 -0.3780 0.0000
vn -0.0315 -0.0394 -1.0000
vn 0.1811 0.0315 -0.9843
vn 0.1811 0.0315 0.9843
vn 0.9134 0.4094 0.0000
vn 0.0079 -0.0630 1.0000
vn 0.1181 -0.1024 -0.9843
vn 0.1181 -0.1024 0.9843
vn 0.0945 -0.0551 -0.9921
vn 0.0945 -0.0551 0.9921
vn -0.1417 0.0472 0.9921
vn -0.1417 0.0472 -0.9921
vn 0.0000 0.0394 -1.0000
vn 0.0000 0.0394 1.0000
vn -0.1102 0.2205 -0.9685
vn -0.1102 0.2205 0.9685
vn -0.1968 -0.0630 -0.9764
vn -0.1968 -0.0630 0.9764
vn -0.0945 0.0315 0.9921
vn -0.0945 0.0315 -0.9921
vn 0.0945 -0.0709 -0.9921
vn 0.0945 -0.0709 0.9921
vn -0.0945 0.0709 -0.9921
vn -0.0945 0.0709 0.9921
vn -0.1496 -0.1024 -0.9843
vn -0.1496 -0.1024 0.9843
vn 0.1102 -0.2205 0.9685
vn 0.1102 -0.2205 -0.9685
vn -0.1732 -0.0551 -0.9843
vn -0.1732 -0.0551 0.9843
vn -0.1339 -0.7008 0.7008
vn -0.5039 -0.8661 0.0000
vn 0.0000 -0.7087 0.7087
vn 0.0000 -0.7087 -0.7087
vn 1.0000 -0.0315 0.0000
vn 0.1811 0.9843 0.0000
vn 1.0000 -0.0394 0.0000
vn -0.4882 -0.8661 -0.1339
vn -0.4882 -0.8661 0.1339
vn -0.0945 -0.8189 -0.5669
vn 0.9843 0.1732 0.0000
vn -0.3543 0.0315 0.9370
vn -0.3543 0.0315 -0.9370
vn -0.0472 -0.8661 -0.4961
vn 0.0000 -0.7795 0.6220
vn -0.4094 -0.1024 -0.9055
vn -0.4094 -0.1024 0.9055
vn 0.9370 0.3228 -0.1260
vn -0.4252 -0.0551 -0.9055
vn 0.9370 0.3228 0.1260
vn -0.4252 -0.0551 0.9055
vn 0.9291 0.3622 0.0000
vn -0.9843 -0.1575 0.0000
vn -0.9921 -0.1181 0.0000
vn 0.1417 -0.4961 -0.8583
vn 0.1417 -0.4961 0.8583
vn 0.9921 0.0866 -0.0945
vn 0.9921 0.0866 0.0945
vn -0.5984 0.8032 0.0000
vn 0.0000 -0.9213 0.3858
vn 0.0000 -0.9213 -0.3858
vn -0.8346 -0.5512 0.0000
vn -0.6929 0.7244 0.0000
vn -0.8032 -0.5512 -0.2205
vn -0.8032 -0.5512 0.2205
vn 0.3543 -0.9213 -0.1417
vn -0.5827 0.8032 -0.1575
vn -0.5827 0.8032 0.1575
vn -0.9134 0.4016 0.0000
vn 0.4409 -0.8976 0.0000
vn -0.6693 0.7244 -0.1811
vn -0.6693 0.7244 0.1811
vn -0.8110 -0.5827 0.0000
vn -0.7874 -0.5827 -0.2205
vn -0.7874 -0.5827 0.2205
vn 0.1654 -0.7795 0.5984
vn 0.1654 -0.7795 -0.5984
vn -0.8976 -0.4409 0.0000
vn -0.8661 -0.4409 -0.2362
vn -0.8661 -0.4409 0.2362
vn 0.1024 -0.9843 -0.1575
vn 0.1024 -0.9843 0.1575
vn -0.9528 -0.1181 -0.2677
vn -0.9528 -0.1181 0.2677

o animal_zebra
usemtl tex_animal_zebra_i022p001x
f 1/1/1 2/2/1 3/3/1
f 1/1/1 4/4/1 2/2/1
f 5/5/2 6/6/2 7/7/2
f 6/6/2 5/5/2 8/8/2
f 9/9/3 10/10/3 11/11/3
f 10/10/3 9/9/3 12/12/3
f 13/13/4 14/14/4 15/15/4
f 14/14/4 13/13/4 16/16/4
f 17/17/4 18/18/4 19/19/4
f 18/18/4 17/17/4 20/20/4
f 21/21/4 22/22/4 23/23/4
f 21/21/4 24/24/4 22/22/4
f 25/25/4 26/26/4 27/27/4
f 25/25/4 27/27/4 28/28/4
f 29/29/5 30/30/5 31/31/5
f 31/31/5 32/32/5 29/29/5
f 33/33/6 34/34/6 35/35/6
f 34/34/6 33/33/6 36/36/6
f 37/37/7 38/38/7 39/39/7
f 38/38/7 40/40/7 39/39/7
f 41/41/7 40/40/7 38/38/7
f 42/42/7 41/41/7 38/38/7
f 43/43/7 42/42/7 38/38/7
f 44/44/7 43/43/7 38/38/7
f 45/45/7 43/43/7 44/44/7
f 46/46/7 45/45/7 44/44/7
f 47/47/8 48/48/8 49/49/8
f 48/48/8 50/50/8 49/49/8
f 51/51/9 52/52/9 53/53/9
f 53/53/9 52/52/9 54/54/9
f 55/55/7 56/56/7 57/57/7
f 55/55/7 58/58/7 56/56/7
f 56/56/7 58/58/7 59/59/7
f 58/58/7 55/55/7 60/60/7
f 61/61/7 62/62/7 63/63/7
f 61/61/7 64/64/7 62/62/7
f 62/62/7 64/64/7 65/65/7
f 64/64/7 61/61/7 66/66/7
f 67/67/4 68/68/4 69/69/4
f 68/68/4 67/67/4 70/70/4
f 71/71/4 72/72/4 73/73/4
f 71/71/4 73/73/4 74/74/4
f 75/75/4 76/76/4 77/77/4
f 76/76/4 75/75/4 78/78/4
f 79/79/4 80/80/4 81/81/4
f 79/79/4 81/81/4 82/82/4
f 37/37/10 83/83/10 84/84/10
f 39/39/10 83/83/10 37/37/10
f 83/83/10 85/85/10 84/84/10
f 84/84/10 85/85/10 86/86/10
f 87/87/10 84/84/10 86/86/10
f 88/88/10 84/84/10 87/87/10
f 89/89/10 84/84/10 88/88/10
f 90/90/10 91/91/10 87/87/10
f 91/91/10 88/88/10 87/87/10
f 41/41/10 42/42/10 90/90/10
f 92/92/10 84/84/10 89/89/10
f 93/93/10 84/84/10 92/92/10
f 42/42/10 91/91/10 90/90/10
f 45/45/10 46/46/10 94/94/10
f 94/94/10 93/93/10 92/92/10
f 46/46/10 93/93/10 94/94/10
f 95/95/7 96/96/7 97/97/7
f 97/97/7 96/96/7 98/98/7
f 34/34/11 99/99/11 100/100/11
f 36/36/11 99/99/11 34/34/11
f 101/101/12 49/49/12 50/50/12
f 50/50/12 102/102/12 101/101/12
f 54/54/13 103/103/13 104/104/13
f 52/52/13 103/103/13 54/54/13
f 105/105/14 106/106/14 107/107/14
f 106/106/14 105/105/14 108/108/14
f 109/109/14 110/110/14 111/111/14
f 110/110/14 109/109/14 112/112/14
f 113/113/15 114/114/15 115/115/15
f 114/114/15 113/113/15 116/116/15
f 117/117/16 118/118/16 119/119/16
f 118/118/16 117/117/16 120/120/16
f 121/121/7 122/122/7 123/123/7
f 122/122/7 121/121/7 124/124/7
f 125/125/7 126/126/7 127/127/7
f 125/125/7 128/128/7 126/126/7
f 129/129/7 130/130/7 131/131/7
f 130/130/7 129/129/7 132/132/7
f 133/133/7 134/134/7 135/135/7
f 133/133/7 136/136/7 134/134/7
f 137/137/17 138/138/17 139/139/17
f 138/138/17 140/140/17 139/139/17
f 141/141/18 33/33/18 35/35/18
f 141/141/18 142/142/18 33/33/18
f 143/143/19 4/144/19 1/145/19
f 143/143/19 144/146/19 4/144/19
f 145/147/7 146/148/7 147/149/7
f 148/150/7 146/148/7 145/147/7
f 149/151/7 146/148/7 148/150/7
f 149/151/7 150/152/7 146/148/7
f 150/152/7 149/151/7 151/153/7
f 151/153/7 149/151/7 152/154/7
f 153/155/20 47/47/20 154/156/20
f 48/48/20 47/47/20 153/155/20
f 155/157/21 51/51/21 53/53/21
f 155/157/21 156/158/21 51/51/21
f 157/159/22 158/160/22 159/161/22
f 158/160/22 157/159/22 160/162/22
f 161/163/23 162/164/23 163/165/23
f 162/164/23 161/163/23 164/166/23
f 148/167/24 165/168/24 166/169/24
f 149/170/24 148/167/24 166/169/24
f 106/106/17 108/108/17 167/171/17
f 108/108/17 168/172/17 167/171/17
f 112/112/17 169/173/17 170/174/17
f 109/109/17 169/173/17 112/112/17
f 70/175/25 107/107/25 68/176/25
f 107/107/25 70/175/25 105/105/25
f 111/111/25 74/177/25 73/178/25
f 74/177/25 111/111/25 110/110/25
f 11/11/26 171/179/26 153/155/26
f 11/11/26 153/155/26 9/9/26
f 155/157/27 172/180/27 7/7/27
f 155/157/27 7/7/27 6/6/27
f 11/181/28 173/182/28 171/183/28
f 173/182/28 11/181/28 10/184/28
f 174/185/29 7/186/29 172/187/29
f 7/186/29 174/185/29 5/188/29
f 175/189/24 176/190/24 131/191/24
f 129/192/24 131/191/24 176/190/24
f 136/193/24 133/194/24 177/195/24
f 136/193/24 177/195/24 178/196/24
f 38/197/30 179/198/30 180/199/30
f 44/200/30 38/197/30 180/199/30
f 121/201/24 123/202/24 181/203/24
f 182/204/24 181/203/24 123/202/24
f 128/205/24 125/206/24 183/207/24
f 128/205/24 183/207/24 184/208/24
f 145/209/31 165/168/31 148/167/31
f 165/168/31 145/209/31 185/210/31
f 186/211/32 152/212/32 149/170/32
f 149/170/32 166/169/32 186/211/32
f 4/213/33 142/214/33 2/215/33
f 142/214/33 4/213/33 144/216/33
f 141/217/34 143/218/34 1/219/34
f 141/217/34 1/219/34 3/220/34
f 187/221/35 188/222/35 189/223/35
f 188/222/35 187/221/35 190/224/35
f 189/225/35 191/226/35 192/227/35
f 189/225/35 188/228/35 191/226/35
f 192/229/35 193/230/35 194/231/35
f 192/229/35 191/232/35 193/230/35
f 193/233/35 195/234/35 194/235/35
f 195/234/35 193/233/35 196/236/35
f 195/237/35 197/238/35 198/239/35
f 197/238/35 195/237/35 196/240/35
f 198/241/35 199/242/35 200/243/35
f 198/241/35 197/244/35 199/242/35
f 200/245/35 138/246/35 137/247/35
f 138/246/35 200/245/35 199/248/35
f 18/249/36 201/250/36 202/251/36
f 201/250/36 18/249/36 20/252/36
f 203/253/36 27/254/36 204/255/36
f 27/254/36 203/253/36 28/256/36
f 205/257/37 38/197/37 37/258/37
f 38/197/37 205/257/37 179/198/37
f 206/259/38 46/260/38 44/200/38
f 44/200/38 180/199/38 206/259/38
f 207/261/39 208/262/39 209/263/39
f 207/261/39 210/264/39 208/262/39
f 209/265/39 190/266/39 187/267/39
f 209/265/39 208/268/39 190/266/39
f 211/269/39 210/270/39 207/271/39
f 211/269/39 212/272/39 210/270/39
f 213/273/39 214/274/39 215/275/39
f 213/273/39 216/276/39 214/274/39
f 215/277/39 217/278/39 218/279/39
f 215/277/39 214/280/39 217/278/39
f 218/281/39 212/282/39 211/283/39
f 218/281/39 217/284/39 212/282/39
f 219/285/40 220/286/40 221/287/40
f 220/286/40 219/285/40 222/288/40
f 156/289/41 5/290/41 174/291/41
f 5/290/41 156/289/41 8/292/41
f 10/293/42 154/294/42 173/295/42
f 154/294/42 10/293/42 12/296/42
f 223/297/43 113/298/43 224/299/43
f 224/299/43 225/300/43 223/297/43
f 118/301/44 226/302/44 227/303/44
f 227/303/44 226/302/44 228/304/44
f 140/140/45 229/305/45 139/139/45
f 229/305/45 140/140/45 230/306/45
f 231/307/46 232/308/46 233/309/46
f 232/308/46 231/307/46 234/310/46
f 235/311/47 236/312/47 237/313/47
f 238/314/47 237/313/47 236/312/47
f 239/315/48 240/316/48 241/317/48
f 240/316/48 239/315/48 242/318/48
f 243/319/49 244/320/49 245/321/49
f 244/320/49 243/319/49 246/322/49
f 153/323/50 171/324/50 48/325/50
f 247/326/50 48/325/50 171/324/50
f 172/327/51 53/328/51 248/329/51
f 53/328/51 172/327/51 155/330/51
f 249/331/52 250/332/52 251/333/52
f 250/332/52 249/331/52 115/334/52
f 252/335/53 253/336/53 254/337/53
f 253/336/53 252/335/53 119/338/53
f 239/315/54 255/339/54 242/318/54
f 255/339/54 239/315/54 256/340/54
f 244/320/55 257/341/55 258/342/55
f 257/341/55 244/320/55 246/322/55
f 113/298/56 115/334/56 224/299/56
f 224/299/56 115/334/56 249/331/56
f 119/338/57 227/303/57 253/336/57
f 227/303/57 119/338/57 118/301/57
f 219/343/5 259/344/5 260/345/5
f 222/346/5 219/343/5 260/345/5
f 261/347/58 262/348/58 263/349/58
f 262/348/58 261/347/58 264/350/58
f 265/351/59 266/352/59 267/353/59
f 265/351/59 268/354/59 266/352/59
f 269/355/60 270/356/60 271/357/60
f 270/356/60 272/358/60 271/357/60
f 142/142/61 141/141/61 3/3/61
f 142/142/61 3/3/61 2/2/61
f 9/9/62 154/156/62 12/12/62
f 153/155/62 154/156/62 9/9/62
f 156/158/63 6/6/63 8/8/63
f 156/158/63 155/157/63 6/6/63
f 273/359/64 274/360/64 262/348/64
f 273/359/64 262/348/64 264/350/64
f 250/332/65 160/361/65 251/333/65
f 250/332/65 275/362/65 160/361/65
f 158/363/66 223/297/66 225/300/66
f 223/297/66 158/363/66 276/364/66
f 160/361/65 276/364/65 158/363/65
f 276/364/65 160/361/65 275/362/65
f 254/337/67 163/365/67 252/335/67
f 163/365/67 277/366/67 252/335/67
f 226/302/68 162/367/68 228/304/68
f 162/367/68 226/302/68 278/368/68
f 163/365/67 278/368/67 277/366/67
f 278/368/67 163/365/67 162/367/67
f 87/369/69 86/370/69 59/371/69
f 56/372/69 59/371/69 86/370/69
f 279/373/70 280/374/70 100/375/70
f 279/373/70 100/375/70 99/376/70
f 63/377/71 89/378/71 88/379/71
f 89/378/71 63/377/71 62/380/71
f 114/381/72 250/382/72 115/383/72
f 250/382/72 114/381/72 281/384/72
f 252/385/73 117/386/73 119/387/73
f 117/386/73 252/385/73 282/388/73
f 283/389/74 284/390/74 285/391/74
f 285/391/74 284/390/74 286/392/74
f 287/393/75 288/394/75 289/395/75
f 288/394/75 287/393/75 290/396/75
f 291/397/7 216/398/7 213/399/7
f 216/398/7 291/397/7 292/400/7
f 234/310/76 159/401/76 232/308/76
f 159/401/76 234/310/76 157/402/76
f 237/313/77 164/403/77 235/311/77
f 235/311/77 164/403/77 161/404/77
f 69/405/78 107/406/78 293/407/78
f 107/406/78 69/405/78 68/408/78
f 289/395/79 288/394/79 265/351/79
f 265/351/79 288/394/79 268/354/79
f 72/409/80 294/410/80 111/411/80
f 72/409/80 111/411/80 73/412/80
f 271/357/81 284/390/81 283/389/81
f 271/357/81 272/358/81 284/390/81
f 271/413/82 295/414/82 269/415/82
f 295/414/82 271/413/82 296/416/82
f 265/417/82 297/418/82 298/419/82
f 297/418/82 265/417/82 267/420/82
f 86/370/71 57/421/71 56/372/71
f 86/370/71 85/422/71 57/421/71
f 92/423/69 89/378/69 65/424/69
f 62/380/69 65/424/69 89/378/69
f 299/425/83 290/396/83 287/393/83
f 290/396/83 299/425/83 300/426/83
f 301/427/84 285/391/84 286/392/84
f 301/427/84 286/392/84 302/428/84
f 267/353/85 81/429/85 80/430/85
f 81/429/85 267/353/85 266/352/85
f 269/355/86 76/431/86 270/356/86
f 269/355/86 77/432/86 76/431/86
f 143/218/87 35/433/87 303/434/87
f 35/433/87 143/218/87 141/217/87
f 304/435/83 111/411/83 294/410/83
f 111/411/83 304/435/83 109/436/83
f 305/437/83 109/436/83 304/435/83
f 305/437/83 169/438/83 109/436/83
f 169/438/83 305/437/83 306/439/83
f 33/440/88 144/216/88 307/441/88
f 144/216/88 33/440/88 142/214/88
f 107/406/84 308/442/84 293/407/84
f 308/442/84 107/406/84 106/443/84
f 308/442/84 106/443/84 309/444/84
f 167/445/84 309/444/84 106/443/84
f 309/444/84 167/445/84 310/446/84
f 101/447/89 311/448/89 312/449/89
f 311/448/89 101/447/89 102/450/89
f 103/451/90 313/452/90 104/453/90
f 313/452/90 103/451/90 314/454/90
f 283/455/10 296/416/10 271/413/10
f 283/455/10 315/456/10 296/416/10
f 93/93/91 95/95/91 84/84/91
f 95/95/91 93/93/91 96/96/91
f 316/457/10 289/458/10 298/419/10
f 265/417/10 298/419/10 289/458/10
f 317/459/92 50/460/92 247/326/92
f 247/326/92 50/460/92 48/325/92
f 318/461/93 248/329/93 54/462/93
f 248/329/93 53/328/93 54/462/93
f 189/463/84 319/464/84 187/465/84
f 319/464/84 189/463/84 320/466/84
f 319/467/84 209/468/84 187/469/84
f 209/468/84 319/467/84 321/470/84
f 322/471/84 213/472/84 215/473/84
f 213/472/84 322/471/84 291/474/84
f 323/475/84 215/476/84 218/477/84
f 215/476/84 323/475/84 322/478/84
f 218/479/84 324/480/84 323/481/84
f 324/480/84 218/479/84 211/482/84
f 325/483/84 211/484/84 207/485/84
f 211/484/84 325/483/84 324/486/84
f 207/487/84 321/488/84 325/489/84
f 321/488/84 207/487/84 209/490/84
f 192/491/84 320/492/84 189/493/84
f 320/492/84 192/491/84 326/494/84
f 194/495/84 326/496/84 192/497/84
f 326/496/84 194/495/84 327/498/84
f 195/499/84 327/500/84 194/501/84
f 327/500/84 195/499/84 328/502/84
f 198/503/84 328/504/84 195/505/84
f 328/504/84 198/503/84 329/506/84
f 200/507/84 329/508/84 198/509/84
f 329/508/84 200/507/84 229/510/84
f 139/511/84 200/512/84 137/513/84
f 200/512/84 139/511/84 229/514/84
f 330/515/83 188/516/83 190/517/83
f 188/516/83 330/515/83 331/518/83
f 330/519/83 190/520/83 208/521/83
f 208/521/83 332/522/83 330/519/83
f 333/523/83 214/524/83 216/525/83
f 216/525/83 292/526/83 333/523/83
f 334/527/83 217/528/83 214/529/83
f 214/529/83 333/530/83 334/527/83
f 217/531/83 334/532/83 335/533/83
f 335/533/83 212/534/83 217/531/83
f 336/535/83 210/536/83 212/537/83
f 212/537/83 335/538/83 336/535/83
f 210/539/83 336/540/83 332/541/83
f 332/541/83 208/542/83 210/539/83
f 331/543/83 191/544/83 188/545/83
f 191/544/83 331/543/83 337/546/83
f 337/547/83 193/548/83 191/549/83
f 193/548/83 337/547/83 338/550/83
f 338/551/83 196/552/83 193/553/83
f 196/552/83 338/551/83 339/554/83
f 339/555/83 197/556/83 196/557/83
f 197/556/83 339/555/83 340/558/83
f 340/559/83 199/560/83 197/561/83
f 199/560/83 340/559/83 230/562/83
f 199/563/83 140/564/83 138/565/83
f 140/564/83 199/563/83 230/566/83
f 285/567/94 315/456/94 283/455/94
f 315/456/94 285/567/94 341/568/94
f 287/569/94 316/457/94 342/570/94
f 316/457/94 287/569/94 289/458/94
f 75/571/95 269/415/95 295/414/95
f 269/415/95 75/571/95 77/572/95
f 267/420/95 79/573/95 297/418/95
f 79/573/95 267/420/95 80/574/95
f 317/459/96 102/575/96 50/460/96
f 317/459/96 343/576/96 102/575/96
f 113/577/97 223/578/97 116/579/97
f 344/580/97 116/579/97 223/578/97
f 54/462/98 104/581/98 318/461/98
f 318/461/98 104/581/98 345/582/98
f 226/583/99 118/584/99 120/585/99
f 226/583/99 120/585/99 346/586/99
f 347/587/100 348/588/100 349/589/100
f 348/588/100 347/587/100 350/590/100
f 32/591/100 351/592/100 29/593/100
f 351/592/100 32/591/100 352/594/100
f 353/595/100 354/596/100 355/597/100
f 354/596/100 353/595/100 356/598/100
f 356/599/100 349/600/100 354/601/100
f 349/600/100 356/599/100 347/602/100
f 357/603/100 355/604/100 358/605/100
f 355/604/100 357/603/100 353/606/100
f 352/607/100 359/608/100 351/609/100
f 359/608/100 352/607/100 360/610/100
f 360/611/100 358/612/100 359/613/100
f 358/612/100 360/611/100 357/614/100
f 361/615/100 362/616/100 363/617/100
f 362/616/100 361/615/100 364/618/100
f 364/619/100 365/620/100 362/621/100
f 365/620/100 364/619/100 366/622/100
f 367/623/100 363/624/100 368/625/100
f 363/624/100 367/623/100 361/626/100
f 369/627/100 370/628/100 371/629/100
f 370/628/100 369/627/100 372/630/100
f 372/631/100 368/632/100 370/633/100
f 368/632/100 372/631/100 367/634/100
f 373/635/100 371/636/100 374/637/100
f 371/636/100 373/635/100 369/638/100
f 350/639/100 375/640/100 348/641/100
f 375/640/100 350/639/100 376/642/100
f 376/643/100 374/644/100 375/645/100
f 374/644/100 376/643/100 373/646/100
f 377/647/101 24/648/101 378/649/101
f 24/648/101 377/647/101 22/650/101
f 204/651/101 26/652/101 379/653/101
f 26/652/101 204/651/101 27/654/101
f 15/655/102 380/656/102 381/657/102
f 380/656/102 15/655/102 14/658/102
f 19/659/102 202/660/102 382/661/102
f 202/660/102 19/659/102 18/662/102
f 152/663/83 186/664/83 151/665/83
f 151/665/83 186/664/83 383/666/83
f 145/667/84 147/668/84 384/669/84
f 145/667/84 384/669/84 185/670/84
f 301/671/103 341/568/103 285/567/103
f 341/568/103 301/671/103 385/672/103
f 299/673/103 342/570/103 386/674/103
f 342/570/103 299/673/103 287/569/103
f 220/675/104 387/676/104 221/677/104
f 387/676/104 220/675/104 388/678/104
f 36/679/105 307/441/105 389/680/105
f 307/441/105 36/679/105 33/440/105
f 390/681/106 303/434/106 34/682/106
f 303/434/106 35/433/106 34/682/106
f 51/683/107 174/291/107 391/684/107
f 174/291/107 51/683/107 156/289/107
f 173/295/108 47/685/108 392/686/108
f 47/685/108 173/295/108 154/294/108
f 393/687/109 15/688/109 381/689/109
f 15/688/109 393/687/109 13/690/109
f 394/691/109 24/692/109 21/693/109
f 394/691/109 378/694/109 24/692/109
f 34/682/110 100/695/110 390/681/110
f 390/681/110 100/695/110 395/696/110
f 389/680/111 99/697/111 36/679/111
f 99/697/111 389/680/111 396/698/111
f 131/699/84 130/700/84 397/701/84
f 131/699/84 397/701/84 175/702/84
f 136/703/83 398/704/83 134/705/83
f 398/704/83 136/703/83 178/706/83
f 259/707/84 221/708/84 387/709/84
f 221/708/84 259/707/84 219/710/84
f 220/711/83 260/712/83 388/713/83
f 220/711/83 222/714/83 260/712/83
f 123/715/84 122/716/84 399/717/84
f 123/715/84 399/717/84 182/718/84
f 128/719/83 400/720/83 126/721/83
f 400/720/83 128/719/83 184/722/83
f 270/723/112 401/724/112 272/725/112
f 402/726/112 272/725/112 401/724/112
f 403/727/112 268/728/112 404/729/112
f 403/727/112 266/730/112 268/728/112
f 46/731/113 405/732/113 93/733/113
f 405/732/113 46/731/113 206/734/113
f 256/735/114 102/575/114 343/576/114
f 102/575/114 256/735/114 311/736/114
f 104/581/115 258/737/115 345/582/115
f 258/737/115 104/581/115 313/738/115
f 406/739/116 407/740/116 408/741/116
f 407/740/116 409/742/116 408/741/116
f 410/743/116 411/744/116 412/745/116
f 411/744/116 413/746/116 412/745/116
f 412/747/116 413/748/116 414/749/116
f 413/748/116 415/750/116 414/749/116
f 416/751/116 417/752/116 406/753/116
f 417/752/116 407/754/116 406/753/116
f 414/755/116 415/756/116 416/757/116
f 415/756/116 417/758/116 416/757/116
f 418/759/116 419/760/116 30/761/116
f 419/760/116 31/762/116 30/761/116
f 420/763/116 421/764/116 418/765/116
f 421/764/116 419/766/116 418/765/116
f 422/767/116 421/768/116 420/769/116
f 421/768/116 422/767/116 423/770/116
f 424/771/116 425/772/116 422/773/116
f 425/772/116 423/774/116 422/773/116
f 426/775/116 427/776/116 424/777/116
f 427/776/116 425/778/116 424/777/116
f 428/779/116 429/780/116 430/781/116
f 429/780/116 431/782/116 430/781/116
f 408/783/116 409/784/116 428/785/116
f 409/784/116 429/786/116 428/785/116
f 430/787/116 431/788/116 432/789/116
f 431/788/116 433/790/116 432/789/116
f 434/791/116 435/792/116 426/793/116
f 435/792/116 427/794/116 426/793/116
f 432/795/116 433/796/116 434/797/116
f 433/796/116 435/798/116 434/797/116
f 37/799/117 84/800/117 436/801/117
f 436/801/117 205/802/117 37/799/117
f 437/803/118 239/804/118 241/805/118
f 239/804/118 437/803/118 438/806/118
f 245/807/119 244/808/119 439/809/119
f 244/808/119 440/810/119 439/809/119
f 438/806/120 256/735/120 239/804/120
f 256/735/120 438/806/120 311/736/120
f 244/808/121 258/737/121 440/810/121
f 258/737/121 313/738/121 440/810/121
f 360/811/83 421/812/83 357/813/83
f 423/814/83 357/813/83 421/812/83
f 32/815/83 31/816/83 352/817/83
f 419/818/83 352/817/83 31/816/83
f 352/819/83 419/820/83 360/821/83
f 421/822/83 360/821/83 419/820/83
f 367/823/83 417/824/83 361/825/83
f 415/826/83 361/825/83 417/824/83
f 361/827/83 415/828/83 364/829/83
f 413/830/83 364/829/83 415/828/83
f 364/831/83 413/832/83 366/833/83
f 411/834/83 366/833/83 413/832/83
f 407/835/83 372/836/83 409/837/83
f 369/838/83 409/837/83 372/836/83
f 373/839/83 429/840/83 369/841/83
f 409/842/83 369/841/83 429/840/83
f 353/843/83 425/844/83 356/845/83
f 427/846/83 356/845/83 425/844/83
f 356/847/83 427/848/83 347/849/83
f 435/850/83 347/849/83 427/848/83
f 347/851/83 435/852/83 350/853/83
f 433/854/83 350/853/83 435/852/83
f 350/855/83 433/856/83 376/857/83
f 431/858/83 376/857/83 433/856/83
f 376/859/83 431/860/83 373/861/83
f 429/862/83 373/861/83 431/860/83
f 372/863/83 407/864/83 367/865/83
f 417/866/83 367/865/83 407/864/83
f 357/867/83 423/868/83 353/869/83
f 425/870/83 353/869/83 423/868/83
f 358/871/84 420/872/84 359/873/84
f 420/872/84 358/871/84 422/874/84
f 351/875/84 30/876/84 29/877/84
f 30/876/84 351/875/84 418/878/84
f 359/879/84 418/880/84 351/881/84
f 418/880/84 359/879/84 420/882/84
f 368/883/84 406/884/84 370/885/84
f 406/884/84 368/883/84 416/886/84
f 408/887/84 370/888/84 406/889/84
f 370/888/84 408/887/84 371/890/84
f 355/891/84 422/892/84 358/893/84
f 422/892/84 355/891/84 424/894/84
f 362/895/84 414/896/84 363/897/84
f 414/896/84 362/895/84 412/898/84
f 363/899/84 416/900/84 368/901/84
f 416/900/84 363/899/84 414/902/84
f 365/903/84 412/904/84 362/905/84
f 412/904/84 365/903/84 410/906/84
f 348/907/84 434/908/84 349/909/84
f 434/908/84 348/907/84 432/910/84
f 375/911/84 432/912/84 348/913/84
f 432/912/84 375/911/84 430/914/84
f 374/915/84 430/916/84 375/917/84
f 430/916/84 374/915/84 428/918/84
f 349/919/84 426/920/84 354/921/84
f 426/920/84 349/919/84 434/922/84
f 354/923/84 424/924/84 355/925/84
f 424/924/84 354/923/84 426/926/84
f 371/927/84 428/928/84 374/929/84
f 428/928/84 371/927/84 408/930/84
f 49/931/122 392/686/122 47/685/122
f 392/686/122 49/931/122 441/932/122
f 391/684/123 52/933/123 51/683/123
f 52/933/123 391/684/123 442/934/123
f 88/935/124 91/936/124 61/937/124
f 88/935/124 61/937/124 63/938/124
f 58/939/125 87/940/125 59/941/125
f 87/940/125 58/939/125 90/942/125
f 366/943/104 410/944/104 365/945/104
f 410/944/104 366/943/104 411/946/104
f 159/947/126 225/948/126 232/949/126
f 225/948/126 159/947/126 158/950/126
f 228/951/127 164/952/127 237/953/127
f 164/952/127 228/951/127 162/954/127
f 103/955/128 442/934/128 443/956/128
f 442/934/128 103/955/128 52/933/128
f 441/932/129 101/957/129 444/958/129
f 101/957/129 441/932/129 49/931/129
f 322/959/24 333/960/24 291/961/24
f 292/962/24 291/961/24 333/960/24
f 323/963/24 334/964/24 322/965/24
f 333/966/24 322/965/24 334/964/24
f 324/967/24 335/968/24 323/969/24
f 334/970/24 323/969/24 335/968/24
f 325/971/24 336/972/24 324/973/24
f 335/974/24 324/973/24 336/972/24
f 321/975/24 332/976/24 325/977/24
f 336/978/24 325/977/24 332/976/24
f 319/979/24 330/980/24 321/981/24
f 332/982/24 321/981/24 330/980/24
f 320/983/24 331/984/24 319/985/24
f 330/986/24 319/985/24 331/984/24
f 326/987/24 337/988/24 320/989/24
f 331/990/24 320/989/24 337/988/24
f 327/991/24 338/992/24 326/993/24
f 337/994/24 326/993/24 338/992/24
f 328/995/24 338/996/24 327/997/24
f 338/996/24 328/995/24 339/998/24
f 329/999/24 339/1000/24 328/1001/24
f 339/1000/24 329/999/24 340/1002/24
f 229/1003/24 340/1004/24 329/1005/24
f 340/1004/24 229/1003/24 230/1006/24
f 100/695/130 274/1007/130 395/696/130
f 274/1007/130 100/695/130 280/1008/130
f 99/697/131 396/698/131 273/1009/131
f 279/1010/131 99/697/131 273/1009/131
f 163/1011/132 235/1012/132 161/1013/132
f 235/1012/132 163/1011/132 254/1014/132
f 234/1015/133 160/1016/133 157/1017/133
f 160/1016/133 234/1015/133 251/1018/133
f 250/382/134 445/1019/134 275/1020/134
f 445/1019/134 250/382/134 281/384/134
f 446/1021/135 252/385/135 277/1022/135
f 252/385/135 446/1021/135 282/388/135
f 447/1023/136 261/1024/136 448/1025/136
f 261/1024/136 447/1023/136 264/1026/136
f 449/1027/137 263/1028/137 262/1029/137
f 263/1028/137 449/1027/137 450/1030/137
f 223/578/138 276/1031/138 451/1032/138
f 223/578/138 451/1032/138 344/580/138
f 226/583/139 452/1033/139 278/1034/139
f 452/1033/139 226/583/139 346/586/139
f 447/1023/140 273/1009/140 264/1026/140
f 273/1009/140 447/1023/140 279/1010/140
f 262/1029/141 274/1007/141 449/1027/141
f 274/1007/141 280/1008/141 449/1027/141
f 453/1035/142 436/1036/142 454/1037/142
f 454/1037/142 455/1038/142 453/1035/142
f 303/1039/143 144/1040/143 143/1041/143
f 303/1039/143 307/1042/143 144/1040/143
f 384/1043/144 147/1044/144 146/1045/144
f 146/1045/144 456/1046/144 384/1043/144
f 151/1047/145 457/1048/145 150/1049/145
f 457/1048/145 151/1047/145 383/1050/145
f 284/1051/146 458/1052/146 286/1053/146
f 459/1054/146 286/1053/146 458/1052/146
f 460/1055/146 290/1056/146 461/1057/146
f 460/1055/146 288/1058/146 290/1056/146
f 310/1059/147 167/1060/147 168/1061/147
f 462/1062/147 310/1059/147 168/1061/147
f 306/1063/147 170/1064/147 169/1065/147
f 463/1066/147 170/1064/147 306/1063/147
f 270/723/148 76/1067/148 78/1068/148
f 78/1068/148 401/724/148 270/723/148
f 176/1069/83 132/1070/83 129/1071/83
f 132/1070/83 176/1069/83 464/1072/83
f 81/1073/148 266/730/148 82/1074/148
f 82/1074/148 266/730/148 403/727/148
f 133/1075/84 135/1076/84 177/1077/84
f 465/1078/84 177/1077/84 135/1076/84
f 124/1079/83 181/1080/83 466/1081/83
f 124/1079/83 121/1082/83 181/1080/83
f 55/1083/124 85/1084/124 83/1085/124
f 85/1084/124 55/1083/124 57/1086/124
f 125/1087/84 127/1088/84 183/1089/84
f 467/1090/84 183/1089/84 127/1088/84
f 64/1091/125 92/1092/125 65/1093/125
f 92/1092/125 64/1091/125 94/1094/125
f 296/1095/59 401/1096/59 295/1097/59
f 401/1096/59 296/1095/59 402/1098/59
f 247/1099/149 173/182/149 392/1100/149
f 173/182/149 247/1099/149 171/183/149
f 403/1101/60 298/1102/60 297/1103/60
f 298/1102/60 403/1101/60 404/1104/60
f 248/1105/150 174/185/150 172/187/150
f 248/1105/150 391/1106/150 174/185/150
f 93/1107/151 468/1108/151 96/1109/151
f 93/1107/151 405/1110/151 468/1108/151
f 341/1111/75 458/1112/75 315/1113/75
f 458/1112/75 341/1111/75 459/1114/75
f 460/1115/74 342/1116/74 316/1117/74
f 342/1116/74 460/1115/74 461/1118/74
f 286/1053/152 459/1054/152 302/1119/152
f 459/1054/152 469/1120/152 302/1119/152
f 105/1121/80 67/1122/80 470/1123/80
f 67/1122/80 105/1121/80 70/1124/80
f 458/1112/79 296/1095/79 315/1113/79
f 296/1095/79 458/1112/79 402/1098/79
f 71/1125/78 110/1126/78 471/1127/78
f 110/1126/78 71/1125/78 74/1128/78
f 298/1102/81 460/1115/81 316/1117/81
f 460/1115/81 298/1102/81 404/1104/81
f 461/1057/152 300/1129/152 472/1130/152
f 300/1129/152 461/1057/152 290/1056/152
f 469/1131/83 341/1111/83 385/1132/83
f 341/1111/83 469/1131/83 459/1114/83
f 444/958/153 101/957/153 255/1133/153
f 255/1133/153 101/957/153 312/1134/153
f 97/1135/144 455/1038/144 454/1037/144
f 454/1037/144 95/1136/144 97/1135/144
f 386/1137/84 342/1116/84 472/1138/84
f 342/1116/84 461/1118/84 472/1138/84
f 103/955/154 443/956/154 257/1139/154
f 257/1139/154 314/1140/154 103/955/154
f 295/1097/85 78/1141/85 75/1142/85
f 78/1141/85 295/1097/85 401/1096/85
f 82/1143/86 297/1103/86 79/1144/86
f 297/1103/86 82/1143/86 403/1101/86
f 105/1121/83 470/1123/83 473/1145/83
f 473/1145/83 108/1146/83 105/1121/83
f 474/1147/83 108/1146/83 473/1145/83
f 108/1146/83 474/1147/83 168/1148/83
f 168/1148/83 474/1147/83 462/1149/83
f 110/1126/84 475/1150/84 471/1127/84
f 112/1151/84 475/1150/84 110/1126/84
f 112/1151/84 476/1152/84 475/1150/84
f 170/1153/84 476/1152/84 112/1151/84
f 476/1152/84 170/1153/84 463/1154/84
f 14/1155/36 477/1156/36 380/1157/36
f 477/1156/36 14/1155/36 16/1158/36
f 22/1159/36 478/1160/36 23/1161/36
f 478/1160/36 22/1159/36 377/1162/36
f 96/1109/155 479/1163/155 98/1164/155
f 479/1163/155 96/1109/155 468/1108/155
f 385/1165/24 301/1166/24 302/1167/24
f 385/1165/24 302/1167/24 469/1168/24
f 300/1169/24 386/1170/24 472/1171/24
f 386/1170/24 300/1169/24 299/1172/24
f 436/1036/156 84/1173/156 95/1136/156
f 436/1036/156 95/1136/156 454/1037/156
f 480/1174/157 246/1175/157 243/1176/157
f 246/1175/157 480/1174/157 481/1177/157
f 482/1178/158 242/1179/158 483/1180/158
f 242/1179/158 482/1178/158 240/1181/158
f 344/1182/159 114/1183/159 116/1184/159
f 114/1183/159 344/1182/159 281/1185/159
f 481/1177/160 257/1139/160 246/1175/160
f 257/1139/160 481/1177/160 314/1140/160
f 282/1186/161 346/1187/161 117/1188/161
f 346/1187/161 120/1189/161 117/1188/161
f 255/1133/162 483/1180/162 242/1179/162
f 483/1180/162 255/1133/162 312/1134/162
f 259/1190/6 387/1191/6 388/1192/6
f 388/1192/6 260/1193/6 259/1190/6
f 402/726/163 284/1051/163 272/725/163
f 284/1051/163 402/726/163 458/1052/163
f 404/729/163 288/1058/163 460/1055/163
f 288/1058/163 404/729/163 268/728/163
f 477/1194/101 13/1195/101 393/1196/101
f 13/1195/101 477/1194/101 16/1197/101
f 17/1198/101 201/1199/101 20/1200/101
f 201/1199/101 17/1198/101 484/1201/101
f 394/1202/102 21/1203/102 478/1204/102
f 21/1203/102 23/1205/102 478/1204/102
f 485/1206/102 25/1207/102 203/1208/102
f 25/1207/102 28/1209/102 203/1208/102
f 150/1049/4 456/1046/4 146/1045/4
f 456/1046/4 150/1049/4 457/1048/4
f 98/1164/4 455/1038/4 97/1135/4
f 455/1038/4 98/1164/4 479/1163/4
f 224/1210/107 232/949/107 225/948/107
f 232/949/107 224/1210/107 233/1211/107
f 237/953/108 227/1212/108 228/951/108
f 227/1212/108 237/953/108 238/1213/108
f 293/1214/164 67/1215/164 69/1216/164
f 470/1217/164 67/1215/164 293/1214/164
f 71/1218/164 471/1219/164 294/1220/164
f 294/1220/164 72/1221/164 71/1218/164
f 308/1222/165 470/1217/165 293/1214/165
f 308/1222/165 473/1223/165 470/1217/165
f 475/1224/165 304/1225/165 471/1219/165
f 294/1220/165 471/1219/165 304/1225/165
f 456/1226/17 165/1227/17 384/1228/17
f 384/1228/17 165/1227/17 185/1229/17
f 165/1227/17 456/1226/17 457/1230/17
f 165/1227/17 457/1230/17 166/1231/17
f 166/1231/17 457/1230/17 186/1232/17
f 186/1232/17 457/1230/17 383/1233/17
f 254/1014/166 253/1234/166 235/1012/166
f 236/1235/166 235/1012/166 253/1234/166
f 234/1015/167 249/1236/167 251/1018/167
f 249/1236/167 234/1015/167 231/1237/167
f 309/1238/7 473/1223/7 308/1222/7
f 473/1223/7 309/1238/7 474/1239/7
f 305/1240/7 475/1224/7 476/1241/7
f 475/1224/7 305/1240/7 304/1225/7
f 451/1242/168 281/1185/168 344/1182/168
f 281/1185/168 451/1242/168 445/1243/168
f 452/1244/169 282/1186/169 446/1245/169
f 282/1186/169 452/1244/169 346/1187/169
f 447/1246/170 449/1247/170 280/374/170
f 447/1246/170 280/374/170 279/373/170
f 90/1248/171 58/1249/171 41/1250/171
f 60/1251/171 41/1250/171 58/1249/171
f 41/1250/171 60/1251/171 40/1252/171
f 42/1253/172 61/1254/172 91/1255/172
f 42/1253/172 66/1256/172 61/1254/172
f 66/1256/172 42/1253/172 43/1257/172
f 450/1258/173 261/347/173 263/349/173
f 450/1258/173 448/1259/173 261/347/173
f 449/1247/174 448/1260/174 450/1261/174
f 449/1247/174 447/1246/174 448/1260/174
f 39/1262/172 55/1263/172 83/1264/172
f 55/1263/172 39/1262/172 60/1251/172
f 39/1262/172 40/1252/172 60/1251/172
f 94/1265/171 64/1266/171 45/1267/171
f 66/1256/171 45/1267/171 64/1266/171
f 45/1267/171 66/1256/171 43/1257/171
f 482/1268/175 241/317/175 240/316/175
f 241/317/175 482/1268/175 437/1269/175
f 480/1270/176 245/321/176 439/1271/176
f 245/321/176 480/1270/176 243/319/176
f 468/1108/177 486/1272/177 479/1163/177
f 486/1272/177 468/1108/177 405/1110/177
f 311/448/178 483/1273/178 312/449/178
f 483/1273/178 311/448/178 438/1274/178
f 481/1275/179 440/1276/179 313/452/179
f 313/452/179 314/454/179 481/1275/179
f 310/1277/180 474/1239/180 309/1238/180
f 474/1239/180 310/1277/180 462/1278/180
f 463/1279/180 306/1280/180 476/1241/180
f 306/1280/180 305/1240/180 476/1241/180
f 484/1281/109 19/1282/109 382/1283/109
f 19/1282/109 484/1281/109 17/1284/109
f 132/1285/4 397/1286/4 130/1287/4
f 397/1286/4 132/1285/4 464/1288/4
f 485/1289/109 26/1290/109 25/1291/109
f 485/1289/109 379/1292/109 26/1290/109
f 135/1293/4 398/1294/4 465/1295/4
f 135/1293/4 134/1296/4 398/1294/4
f 486/1272/181 453/1035/181 455/1038/181
f 486/1272/181 455/1038/181 479/1163/181
f 124/1297/4 399/1298/4 122/1299/4
f 399/1298/4 124/1297/4 466/1300/4
f 127/1301/4 126/1302/4 400/1303/4
f 127/1301/4 400/1303/4 467/1304/4
f 483/1273/182 437/1305/182 482/1306/182
f 437/1305/182 483/1273/182 438/1274/182
f 439/1307/183 481/1275/183 480/1308/183
f 481/1275/183 439/1307/183 440/1276/183
f 273/1309/184 395/1310/184 274/1311/184
f 395/1310/184 273/1309/184 396/1312/184
f 255/1313/185 343/1314/185 444/1315/185
f 343/1314/185 255/1313/185 256/1316/185
f 257/1317/186 345/1318/186 258/1319/186
f 345/1318/186 257/1317/186 443/1320/186
f 224/1321/187 249/1236/187 231/1237/187
f 224/1321/187 231/1237/187 233/1322/187
f 253/1234/188 227/1323/188 236/1235/188
f 238/1324/188 236/1235/188 227/1323/188
f 395/1310/189 389/1325/189 390/1326/189
f 395/1310/189 396/1312/189 389/1325/189
f 444/1315/190 317/1327/190 441/1328/190
f 317/1327/190 444/1315/190 343/1314/190
f 443/1320/191 318/1329/191 345/1318/191
f 318/1329/191 443/1320/191 442/1330/191
f 276/1331/192 275/1332/192 445/1333/192
f 276/1331/192 445/1333/192 451/1334/192
f 277/1335/193 278/1336/193 446/1337/193
f 452/1338/193 446/1337/193 278/1336/193
f 390/1326/165 307/1042/165 303/1039/165
f 390/1326/165 389/1325/165 307/1042/165
f 441/1328/194 247/1339/194 392/1340/194
f 247/1339/194 441/1328/194 317/1327/194
f 442/1330/195 248/1341/195 318/1329/195
f 248/1341/195 442/1330/195 391/1342/195
f 393/1343/24 381/1344/24 380/1345/24
f 393/1343/24 380/1345/24 477/1346/24
f 201/1347/24 382/1348/24 202/1349/24
f 382/1348/24 201/1347/24 484/1350/24
f 377/1351/24 394/1352/24 478/1353/24
f 394/1352/24 377/1351/24 378/1354/24
f 204/1355/24 485/1356/24 203/1357/24
f 485/1356/24 204/1355/24 379/1358/24
