# Roblox asset pack: microraptor (creatures), from the Studio model "Microraptor". Exported with Export Selection, split by tools/build_creatures.py: one object per rigid body. Units: studs. +Y up, front faces -Z, pivot (bottom centre) at the origin.
mtllib microraptor.mtl

v -2.41900 2.51990 -2.87000
v -1.51690 2.43990 -2.63000
v -2.45170 2.13990 -2.87000
v -1.54950 2.06990 -2.63000
v -2.04860 2.48990 -0.64000
v -2.95070 2.55990 -0.88000
v -2.08130 2.10990 -0.64000
v -2.98340 2.18990 -0.88000
v -6.04230 2.83990 -4.26000
v -5.57530 2.78990 -3.45000
v -6.07500 2.45990 -4.26000
v -5.60800 2.41990 -3.45000
v -7.19290 2.93990 -2.52000
v -7.65990 2.97990 -3.33000
v -7.22560 2.55990 -2.52000
v -7.69260 2.59990 -3.33000
v -4.22140 2.67990 -3.46000
v -3.45640 2.60990 -2.93000
v -4.25410 2.29990 -3.46000
v -3.48910 2.23990 -2.93000
v -4.74200 2.71990 -1.08000
v -5.50710 2.78990 -1.62000
v -4.77470 2.34990 -1.08000
v -5.53980 2.40990 -1.62000
v -3.32090 2.59990 -3.18000
v -2.47440 2.51990 -2.79000
v -3.35350 2.21990 -3.18000
v -2.50710 2.14990 -2.79000
v -3.42170 2.60990 -0.75000
v -4.26810 2.67990 -1.14000
v -3.45430 2.22990 -0.75000
v -4.30080 2.30990 -1.14000
v -5.25930 2.76990 -3.85000
v -4.59890 2.70990 -3.18000
v -5.29200 2.38990 -3.85000
v -4.63160 2.33990 -3.18000
v -6.18390 2.84990 -1.59000
v -6.84420 2.90990 -2.25000
v -6.21660 2.46990 -1.59000
v -6.87690 2.52990 -2.25000
v -5.35820 2.39990 -3.93000
v -4.79780 2.34990 -2.95000
v -5.39090 2.02990 -3.93000
v -4.83050 1.97990 -2.95000
v -9.65070 2.76990 -0.14000
v -10.21100 2.81990 -1.12000
v -9.68330 2.39990 -0.14000
v -10.24370 2.44990 -1.12000
v -3.84000 2.26990 -3.30000
v -3.03120 2.19990 -2.83000
v -3.87270 1.88990 -3.30000
v -3.06380 1.81990 -2.83000
v -5.08560 2.37990 0.74000
v -5.89450 2.44990 0.27000
v -5.11830 1.99990 0.74000
v -5.92710 2.06990 0.27000
v -2.94770 2.18990 -3.13000
v -2.07000 2.10990 -2.81000
v -2.98040 1.80990 -3.13000
v -2.10270 1.73990 -2.81000
v -3.34760 2.21990 0.71000
v -4.22520 2.29990 0.39000
v -3.38030 1.84990 0.71000
v -4.25790 1.92990 0.39000
v -4.63530 2.33990 -3.46000
v -3.97490 2.27990 -2.79000
v -4.66800 1.95990 -3.46000
v -4.00760 1.89990 -2.79000
v -7.40890 2.57990 0.65000
v -8.06930 2.63990 -0.01000
v -7.44160 2.19990 0.65000
v -8.10200 2.25990 -0.01000
v -6.81170 2.52990 -4.54000
v -6.33800 2.47990 -3.52000
v -6.84440 2.14990 -4.54000
v -6.37070 2.10990 -3.52000
v -11.07800 2.89990 -1.31000
v -11.55170 2.93990 -2.33000
v -11.11070 2.52990 -1.31000
v -11.58440 2.56990 -2.33000
v -2.09080 2.10990 -2.77000
v -1.18870 2.02990 -2.53000
v -2.12350 1.73990 -2.77000
v -1.22140 1.65990 -2.53000
v -1.96220 2.09990 0.37000
v -2.86430 2.17990 0.12000
v -1.99490 1.72990 0.37000
v -2.89700 1.80990 0.12000
v -7.00470 2.91990 -5.03000
v -6.85970 2.90990 -4.49000
v -7.07010 2.16990 -5.03000
v -6.92500 2.15990 -4.49000
v -7.22050 2.93990 -4.39000
v -7.36550 2.94990 -4.93000
v -7.28590 2.18990 -4.39000
v -7.43090 2.19990 -4.93000
v -6.36660 2.85990 -4.97000
v -6.51160 2.87990 -4.42000
v -6.43200 2.11990 -4.97000
v -6.57700 2.12990 -4.42000
v -6.87250 2.90990 -4.52000
v -6.72750 2.89990 -5.06000
v -6.93790 2.15990 -4.52000
v -6.79280 2.14990 -5.06000
v -5.82540 2.81990 -4.82000
v -5.97040 2.82990 -4.28000
v -5.89070 2.06990 -4.82000
v -6.03580 2.07990 -4.28000
v -6.33120 2.85990 -4.38000
v -6.18620 2.84990 -4.92000
v -6.39660 2.10990 -4.38000
v -6.25160 2.09990 -4.92000
v -1.08270 2.58990 -2.97000
v -1.27600 2.60990 -2.24000
v -1.18070 1.46990 -2.97000
v -1.37410 1.48990 -2.24000
v -7.23000 3.12990 -3.85000
v -7.03660 3.10990 -4.57000
v -7.32800 2.00990 -3.85000
v -7.13470 1.98990 -4.57000
v 1.12510 2.82990 0.07000
v 1.12510 2.82990 2.32000
v 1.12510 0.57990 0.07000
v 1.12510 0.57990 2.32000
v -1.12490 2.82990 2.32000
v -1.12490 2.82990 0.07000
v -1.12490 0.57990 2.32000
v -1.12490 0.57990 0.07000
v 0.20980 2.26990 5.62000
v -1.22660 2.26990 6.82000
v 0.20980 1.89990 5.62000
v -1.22660 1.89990 6.82000
v -1.70860 2.26990 6.25000
v -0.27230 2.26990 5.04000
v -1.70860 1.89990 6.25000
v -0.27230 1.89990 5.04000
v 0.27250 2.26990 5.04000
v 1.70880 2.26990 6.25000
v 0.27250 1.89990 5.04000
v 1.70880 1.89990 6.25000
v 1.22680 2.26990 6.82000
v -0.20960 2.26990 5.62000
v 1.22680 1.89990 6.82000
v -0.20960 1.89990 5.62000
v 0.35990 2.26990 7.56000
v 1.07810 2.26990 8.17000
v 0.35990 1.89990 7.56000
v 1.07810 1.89990 8.17000
v 0.59610 2.26990 8.74000
v -0.12210 2.26990 8.14000
v 0.59610 1.89990 8.74000
v -0.12210 1.89990 8.14000
v 0.12230 2.26990 8.14000
v -0.59590 2.26990 8.74000
v 0.12230 1.89990 8.14000
v -0.59590 1.89990 8.74000
v -1.07790 2.26990 8.17000
v -0.35970 2.26990 7.56000
v -1.07790 1.89990 8.17000
v -0.35970 1.89990 7.56000
v 0.38160 2.26990 6.70000
v -0.91110 2.26990 7.78000
v 0.38160 1.89990 6.70000
v -0.91110 1.89990 7.78000
v -1.39320 2.26990 7.21000
v -0.10040 2.26990 6.12000
v -1.39320 1.89990 7.21000
v -0.10040 1.89990 6.12000
v 0.10060 2.26990 6.12000
v 1.39340 2.26990 7.21000
v 0.10060 1.89990 6.12000
v 1.39340 1.89990 7.21000
v 0.91130 2.26990 7.78000
v -0.38140 2.26990 6.70000
v 0.91130 1.89990 7.78000
v -0.38140 1.89990 6.70000
v 0.37510 2.45990 3.45000
v 0.37510 2.45990 8.32000
v 0.37510 1.70990 3.45000
v 0.37510 1.70990 8.32000
v -0.37490 2.45990 8.32000
v -0.37490 2.45990 3.45000
v -0.37490 1.70990 8.32000
v -0.37490 1.70990 3.45000
v 0.75010 2.64990 2.32000
v 0.75010 2.64990 3.45000
v 0.75010 1.51990 2.32000
v 0.75010 1.51990 3.45000
v -0.74990 2.64990 3.45000
v -0.74990 2.64990 2.32000
v -0.74990 1.51990 3.45000
v -0.74990 1.51990 2.32000
v -2.87720 1.26990 2.81000
v -2.20800 1.38990 5.35000
v -2.81210 0.89990 2.81000
v -2.14290 1.01990 5.35000
v -3.09980 1.22990 5.59000
v -3.76900 1.10990 3.06000
v -3.03470 0.85990 5.59000
v -3.70390 0.74990 3.06000
v -3.73510 1.11990 3.16000
v -3.73510 1.11990 6.16000
v -3.67000 0.74990 3.16000
v -3.67000 0.74990 6.16000
v -4.65840 0.95990 6.16000
v -4.65840 0.95990 3.16000
v -4.59330 0.58990 6.16000
v -4.59330 0.58990 3.16000
v -2.23040 1.38990 2.09000
v -1.30720 1.54990 3.71000
v -2.16530 1.01990 2.09000
v -1.24200 1.17990 3.71000
v -2.10670 1.40990 4.18000
v -3.03000 1.24990 2.55000
v -2.04160 1.03990 4.18000
v -2.96490 0.87990 2.55000
v -4.65350 0.95990 3.47000
v -5.22710 0.85990 5.64000
v -4.58840 0.58990 3.47000
v -5.16200 0.48990 5.64000
v -6.11890 0.69990 5.40000
v -5.54530 0.79990 3.22000
v -6.05380 0.32990 5.40000
v -5.48020 0.42990 3.22000
v -1.04900 1.97990 0.75000
v -0.58070 2.05990 1.77000
v -0.85370 0.86990 0.75000
v -0.38540 0.94990 1.77000
v -5.26650 1.22990 3.99000
v -5.73480 1.14990 2.97000
v -5.07120 0.11990 3.99000
v -5.53940 0.03990 2.97000
v -5.29920 1.22990 2.15000
v -5.06510 1.26990 2.66000
v -5.10390 0.11990 2.15000
v -4.86980 0.15990 2.66000
v -5.73450 1.14990 2.97000
v -5.96860 1.10990 2.46000
v -5.53920 0.03990 2.97000
v -5.77330 -0.00010 2.46000
v 3.03020 1.24990 2.55000
v 2.10690 1.40990 4.18000
v 2.96510 0.87990 2.55000
v 2.04180 1.03990 4.18000
v 1.30740 1.54990 3.71000
v 2.23060 1.38990 2.09000
v 1.24220 1.17990 3.71000
v 2.16550 1.01990 2.09000
v 5.54550 0.79990 3.22000
v 6.11910 0.69990 5.40000
v 5.48040 0.42990 3.22000
v 6.05400 0.32990 5.40000
v 5.22730 0.85990 5.64000
v 4.65370 0.95990 3.47000
v 5.16220 0.48990 5.64000
v 4.58860 0.58990 3.47000
v 4.65860 0.95990 3.16000
v 4.65860 0.95990 6.16000
v 4.59350 0.58990 3.16000
v 4.59350 0.58990 6.16000
v 3.73530 1.11990 6.16000
v 3.73530 1.11990 3.16000
v 3.67020 0.74990 6.16000
v 3.67020 0.74990 3.16000
v 3.76940 1.10990 3.06000
v 3.10030 1.22990 5.59000
v 3.70430 0.74990 3.06000
v 3.03520 0.85990 5.59000
v 2.20850 1.38990 5.35000
v 2.87760 1.26990 2.81000
v 2.14340 1.01990 5.35000
v 2.81250 0.89990 2.81000
v 5.96880 1.10990 2.46000
v 5.73470 1.14990 2.97000
v 5.77350 -0.00010 2.46000
v 5.53940 0.03990 2.97000
v 5.06530 1.26990 2.66000
v 5.29940 1.22990 2.15000
v 4.87000 0.15990 2.66000
v 5.10410 0.11990 2.15000
v 5.73480 1.14990 2.97000
v 5.26660 1.22990 3.99000
v 5.53950 0.03990 2.97000
v 5.07130 0.11990 3.99000
v 0.58080 2.05990 1.77000
v 1.04910 1.97990 0.75000
v 0.38550 0.94990 1.77000
v 0.85370 0.86990 0.75000
v 0.37510 3.57990 -2.55000
v 0.37510 3.57990 -0.30000
v 0.37510 3.01990 -2.55000
v 0.37510 3.01990 -0.30000
v -0.37490 3.57990 -0.30000
v -0.37490 3.57990 -2.55000
v -0.37490 3.01990 -0.30000
v -0.37490 3.01990 -2.55000
v 1.50010 3.01990 -2.93000
v 1.50010 3.01990 0.07000
v 1.50010 1.14990 -2.93000
v 1.50010 1.14990 0.07000
v -1.49990 3.01990 0.07000
v -1.49990 3.01990 -2.93000
v -1.49990 1.14990 0.07000
v -1.49990 1.14990 -2.93000
v 1.50010 0.39990 -2.93000
v 1.50010 0.39990 0.07000
v -1.49990 0.39990 0.07000
v -1.49990 0.39990 -2.93000
v 0.18760 3.66990 -6.44000
v 0.18760 4.39990 -5.58000
v 0.18760 3.37990 -6.20000
v 0.18760 4.10990 -5.34000
v -0.18740 4.39990 -5.58000
v -0.18740 3.66990 -6.44000
v -0.18740 4.10990 -5.34000
v -0.18740 3.37990 -6.20000
v 0.18760 3.47990 -5.79000
v 0.18760 4.20990 -4.93000
v 0.18760 3.18990 -5.55000
v 0.18760 3.91990 -4.69000
v -0.18740 4.20990 -4.93000
v -0.18740 3.47990 -5.79000
v -0.18740 3.91990 -4.69000
v -0.18740 3.18990 -5.55000
v 0.18760 3.16990 -5.28000
v 0.18760 3.88990 -4.42000
v 0.18760 2.87990 -5.04000
v 0.18760 3.60990 -4.18000
v -0.18740 3.88990 -4.42000
v -0.18740 3.16990 -5.28000
v -0.18740 3.60990 -4.18000
v -0.18740 2.87990 -5.04000
v 0.18760 2.85990 -4.78000
v 0.18760 3.57990 -3.92000
v 0.18760 2.56990 -4.54000
v 0.18760 3.29990 -3.68000
v -0.18740 3.57990 -3.92000
v -0.18740 2.85990 -4.78000
v -0.18740 3.29990 -3.68000
v -0.18740 2.56990 -4.54000
v 0.18760 3.73990 -7.23000
v 0.18760 4.45990 -6.37000
v 0.18760 3.44990 -6.99000
v 0.18760 4.17990 -6.13000
v -0.18740 4.45990 -6.37000
v -0.18740 3.73990 -7.23000
v -0.18740 4.17990 -6.13000
v -0.18740 3.44990 -6.99000
v 0.75010 3.57990 -8.74000
v 0.75010 3.57990 -7.24000
v 0.75010 2.64990 -8.74000
v 0.75010 2.64990 -7.24000
v -0.74990 3.57990 -7.24000
v -0.74990 3.57990 -8.74000
v -0.74990 2.64990 -7.24000
v -0.74990 2.64990 -8.74000
v 0.75010 3.28990 -5.00000
v 0.75010 2.60990 -2.46000
v 0.75010 2.20990 -5.29000
v 0.75010 1.52990 -2.75000
v -0.74990 2.60990 -2.46000
v -0.74990 3.28990 -5.00000
v -0.74990 1.52990 -2.75000
v -0.74990 2.20990 -5.29000
v 0.37510 3.01990 -7.99000
v 0.37510 3.01990 -6.49000
v 0.37510 2.26990 -7.99000
v 0.37510 2.26990 -6.49000
v -0.37490 3.01990 -6.49000
v -0.37490 3.01990 -7.99000
v -0.37490 2.26990 -6.49000
v -0.37490 2.26990 -7.99000
v 1.12510 3.76990 -7.24000
v 1.12510 3.76990 -4.80000
v 1.12510 2.26990 -7.24000
v 1.12510 2.26990 -4.80000
v -1.12490 3.76990 -4.80000
v -1.12490 3.76990 -7.24000
v -1.12490 2.26990 -4.80000
v -1.12490 2.26990 -7.24000
v 0.75010 1.83990 -5.38000
v 0.75010 1.16990 -2.85000
v -0.74990 1.16990 -2.85000
v -0.74990 1.83990 -5.38000
v 1.31260 3.20990 -6.49000
v 1.31260 3.20990 -5.74000
v 1.31260 2.45990 -6.49000
v 1.31260 2.45990 -5.74000
v -1.31240 3.20990 -5.74000
v -1.31240 3.20990 -6.49000
v -1.31240 2.45990 -5.74000
v -1.31240 2.45990 -6.49000
v 1.12510 1.51990 -7.24000
v 1.12510 1.51990 -4.80000
v -1.12490 1.51990 -4.80000
v -1.12490 1.51990 -7.24000
v 0.75010 2.26990 -8.74000
v 0.75010 2.26990 -7.24000
v 0.75010 1.51990 -8.74000
v 0.75010 1.51990 -7.24000
v -0.74990 2.26990 -7.24000
v -0.74990 2.26990 -8.74000
v -0.74990 1.51990 -7.24000
v -0.74990 1.51990 -8.74000
v -1.31740 3.20990 -5.74000
v -1.31740 3.20990 -6.49000
v -1.31740 2.45990 -5.74000
v -1.31740 2.45990 -6.49000
v 1.31760 3.20990 -6.49000
v 1.31760 3.20990 -5.74000
v 1.31760 2.45990 -6.49000
v 1.31760 2.45990 -5.74000
v 7.36560 2.94990 -4.93000
v 7.22060 2.93990 -4.39000
v 7.43100 2.19990 -4.93000
v 7.28600 2.18990 -4.39000
v 6.85970 2.90990 -4.49000
v 7.00480 2.91990 -5.03000
v 6.92510 2.15990 -4.49000
v 7.07010 2.16990 -5.03000
v 6.18640 2.84990 -4.92000
v 6.33140 2.85990 -4.38000
v 6.25180 2.09990 -4.92000
v 6.39680 2.10990 -4.38000
v 5.97060 2.82990 -4.28000
v 5.82560 2.81990 -4.82000
v 6.03600 2.07990 -4.28000
v 5.89090 2.06990 -4.82000
v 6.72770 2.89990 -5.06000
v 6.87270 2.90990 -4.52000
v 6.79300 2.14990 -5.06000
v 6.93810 2.15990 -4.52000
v 6.51180 2.87990 -4.42000
v 6.36680 2.85990 -4.97000
v 6.57720 2.12990 -4.42000
v 6.43220 2.11990 -4.97000
v 4.22540 2.29990 0.39000
v 3.34780 2.21990 0.71000
v 4.25810 1.92990 0.39000
v 3.38050 1.84990 0.71000
v 2.07020 2.10990 -2.81000
v 2.94790 2.18990 -3.13000
v 2.10290 1.73990 -2.81000
v 2.98060 1.80990 -3.13000
v 10.21120 2.81990 -1.12000
v 9.65090 2.76990 -0.14000
v 10.24390 2.44990 -1.12000
v 9.68350 2.39990 -0.14000
v 4.79800 2.34990 -2.95000
v 5.35840 2.39990 -3.93000
v 4.83070 1.97990 -2.95000
v 5.39110 2.02990 -3.93000
v 2.86430 2.17990 0.12000
v 1.96220 2.09990 0.37000
v 2.89700 1.80990 0.12000
v 1.99490 1.72990 0.37000
v 1.18870 2.02990 -2.53000
v 2.09080 2.10990 -2.77000
v 1.22140 1.65990 -2.53000
v 2.12350 1.73990 -2.77000
v 8.06940 2.63990 -0.01000
v 7.40900 2.57990 0.65000
v 8.10210 2.25990 -0.01000
v 7.44170 2.19990 0.65000
v 3.97500 2.27990 -2.79000
v 4.63540 2.33990 -3.46000
v 4.00770 1.89990 -2.79000
v 4.66810 1.95990 -3.46000
v 11.55170 2.93990 -2.33000
v 11.07810 2.89990 -1.31000
v 11.58440 2.56990 -2.33000
v 11.11080 2.52990 -1.31000
v 6.33810 2.47990 -3.52000
v 6.81180 2.52990 -4.54000
v 6.37080 2.10990 -3.52000
v 6.84450 2.14990 -4.54000
v 5.89470 2.44990 0.27000
v 5.08580 2.36990 0.74000
v 5.92730 2.06990 0.27000
v 5.11850 1.99990 0.74000
v 3.03140 2.19990 -2.83000
v 3.84020 2.26990 -3.30000
v 3.06400 1.81990 -2.83000
v 3.87290 1.88990 -3.30000
v 6.84430 2.90990 -2.25000
v 6.18390 2.84990 -1.59000
v 6.87700 2.52990 -2.25000
v 6.21660 2.46990 -1.59000
v 4.59900 2.70990 -3.18000
v 5.25940 2.76990 -3.85000
v 4.63170 2.33990 -3.18000
v 5.29210 2.38990 -3.85000
v 5.50730 2.78990 -1.62000
v 4.74220 2.71990 -1.08000
v 5.54000 2.40990 -1.62000
v 4.77490 2.34990 -1.08000
v 3.45660 2.60990 -2.93000
v 4.22160 2.67990 -3.46000
v 3.48930 2.23990 -2.93000
v 4.25430 2.29990 -3.46000
v 4.26820 2.67990 -1.14000
v 3.42170 2.60990 -0.75000
v 4.30090 2.30990 -1.14000
v 3.45440 2.22990 -0.75000
v 2.47450 2.51990 -2.79000
v 3.32090 2.59990 -3.18000
v 2.50720 2.14990 -2.79000
v 3.35360 2.21990 -3.18000
v 2.95080 2.55990 -0.88000
v 2.04870 2.48990 -0.64000
v 2.98350 2.18990 -0.88000
v 2.08140 2.10990 -0.64000
v 1.51690 2.43990 -2.63000
v 2.41900 2.51990 -2.87000
v 1.54960 2.06990 -2.63000
v 2.45170 2.13990 -2.87000
v 7.66010 2.97990 -3.33000
v 7.19310 2.93990 -2.52000
v 7.69280 2.59990 -3.33000
v 7.22580 2.55990 -2.52000
v 5.57550 2.78990 -3.45000
v 6.04250 2.83990 -4.27000
v 5.60820 2.41990 -3.45000
v 6.07520 2.45990 -4.27000
v 7.03670 3.10990 -4.57000
v 7.23010 3.12990 -3.85000
v 7.13470 1.98990 -4.57000
v 7.32810 2.00990 -3.85000
v 1.27610 2.60990 -2.24000
v 1.08270 2.58990 -2.97000
v 1.37410 1.48990 -2.24000
v 1.18080 1.46990 -2.97000
vt 7.86719 -0.50000
vt 7.75000 -0.50000
vt 7.86719 -0.54688
vt 7.75000 -0.54688
vt 8.00781 -0.50000
vt 8.00781 -0.61719
vt 7.75000 -0.61719
vt 8.00781 -0.54688
vt 3.11719 -6.25000
vt 3.00000 -6.25000
vt 3.11719 -6.29688
vt 3.00000 -6.29688
vt 3.23437 -6.25000
vt 3.23437 -6.36719
vt 3.00000 -6.36719
vt 3.23437 -6.29688
vt 1.11719 -4.50000
vt 1.00000 -4.50000
vt 1.11719 -4.54688
vt 1.00000 -4.54688
vt 1.28125 -4.50000
vt 1.28125 -4.61719
vt 1.00000 -4.61719
vt 1.28125 -4.54688
vt 0.61719 0.50000
vt 0.50000 0.50000
vt 0.61719 0.45312
vt 0.50000 0.45312
vt 0.78125 0.50000
vt 0.78125 0.38281
vt 0.50000 0.38281
vt 0.78125 0.45312
vt 1.61719 -5.75000
vt 1.50000 -5.75000
vt 1.61719 -5.79688
vt 1.50000 -5.79688
vt 1.78125 -5.75000
vt 1.78125 -5.86719
vt 1.50000 -5.86719
vt 1.78125 -5.79688
vt 3.89062 -1.50000
vt 3.75000 -1.50000
vt 3.89062 -1.54688
vt 3.75000 -1.54688
vt 4.45312 -1.50000
vt 4.45312 -1.64062
vt 3.75000 -1.64062
vt 4.45312 -1.54688
vt 2.11719 -0.50000
vt 2.00000 -0.50000
vt 2.11719 -0.54688
vt 2.00000 -0.54688
vt 2.51562 -0.50000
vt 2.51562 -0.61719
vt 2.00000 -0.61719
vt 2.51562 -0.54688
vt 4.36719 0.00000
vt 4.25000 0.00000
vt 4.36719 -0.04688
vt 4.25000 -0.04688
vt 4.71875 0.00000
vt 4.71875 -0.11719
vt 4.25000 -0.11719
vt 4.71875 -0.04688
vt 0.86719 -4.75000
vt 0.75000 -4.75000
vt 0.86719 -4.79688
vt 0.75000 -4.79688
vt 1.35937 -4.75000
vt 1.35937 -4.86719
vt 0.75000 -4.86719
vt 1.35937 -4.79688
vt 3.39062 0.25000
vt 3.25000 0.25000
vt 3.39062 0.20312
vt 3.25000 0.20312
vt 3.90625 0.25000
vt 3.90625 0.10938
vt 3.25000 0.10938
vt 3.90625 0.20312
vt 0.11719 -3.25000
vt 0.00000 -3.25000
vt 0.11719 -3.29688
vt 0.00000 -3.29688
vt 0.37500 -3.25000
vt 0.37500 -3.36719
vt 0.00000 -3.36719
vt 0.37500 -3.29688
vt 6.07031 -5.50000
vt 6.00000 -5.50000
vt 6.07031 -5.59375
vt 6.00000 -5.59375
vt 6.04688 -5.50000
vt 6.04688 -5.57031
vt 6.00000 -5.57031
vt 6.04688 -5.59375
vt 1.57031 -6.00000
vt 1.50000 -6.00000
vt 1.57031 -6.09375
vt 1.50000 -6.09375
vt 1.54688 -6.00000
vt 1.54688 -6.07031
vt 1.50000 -6.07031
vt 1.54688 -6.09375
vt 2.82031 -6.50000
vt 2.75000 -6.50000
vt 2.82031 -6.59375
vt 2.75000 -6.59375
vt 2.79688 -6.50000
vt 2.79688 -6.57031
vt 2.75000 -6.57031
vt 2.79688 -6.59375
vt 2.34375 0.25000
vt 2.25000 0.25000
vt 2.34375 0.10938
vt 2.25000 0.10938
vt 3.02344 0.25000
vt 3.02344 0.15625
vt 2.25000 0.15625
vt 3.02344 0.10938
vt 8.03125 -5.75000
vt 7.75000 -5.75000
vt 8.03125 -6.03125
vt 7.75000 -6.03125
vt 6.98438 -2.25000
vt 6.75000 -2.25000
vt 6.98438 -2.29688
vt 6.75000 -2.29688
vt 6.84375 -2.25000
vt 6.84375 -2.48437
vt 6.75000 -2.48437
vt 6.84375 -2.29688
vt 4.98438 -2.50000
vt 4.75000 -2.50000
vt 4.98438 -2.54688
vt 4.75000 -2.54688
vt 4.84375 -2.50000
vt 4.84375 -2.73437
vt 4.75000 -2.73437
vt 4.84375 -2.54688
vt 7.11719 0.50000
vt 7.00000 0.50000
vt 7.11719 0.45312
vt 7.00000 0.45312
vt 7.09375 0.50000
vt 7.09375 0.38281
vt 7.00000 0.38281
vt 7.09375 0.45312
vt 0.86719 0.00000
vt 0.75000 0.00000
vt 0.86719 -0.04688
vt 0.75000 -0.04688
vt 0.84375 0.00000
vt 0.84375 -0.11719
vt 0.75000 -0.11719
vt 0.84375 -0.04688
vt 5.96094 -2.00000
vt 5.75000 -2.00000
vt 5.96094 -2.04688
vt 5.75000 -2.04688
vt 5.84375 -2.00000
vt 5.84375 -2.21094
vt 5.75000 -2.21094
vt 5.84375 -2.04688
vt 3.46094 -1.75000
vt 3.25000 -1.75000
vt 3.46094 -1.79688
vt 3.25000 -1.79688
vt 3.34375 -1.75000
vt 3.34375 -1.96094
vt 3.25000 -1.96094
vt 3.34375 -1.79688
vt 2.60937 -5.75000
vt 2.00000 -5.75000
vt 2.60937 -5.84375
vt 2.00000 -5.84375
vt 2.09375 -5.75000
vt 2.09375 -6.35937
vt 2.00000 -6.35937
vt 2.09375 -5.84375
vt 4.89062 -1.00000
vt 4.75000 -1.00000
vt 4.89062 -1.14062
vt 4.75000 -1.14062
vt 4.93750 -1.00000
vt 4.93750 -1.14062
vt 3.07812 -3.00000
vt 2.75000 -3.00000
vt 3.07812 -3.04688
vt 2.75000 -3.04688
vt 2.86719 -3.00000
vt 2.86719 -3.32812
vt 2.75000 -3.32812
vt 2.86719 -3.04688
vt 2.12500 -0.50000
vt 1.75000 -0.50000
vt 2.12500 -0.54688
vt 1.75000 -0.54688
vt 1.86719 -0.50000
vt 1.86719 -0.87500
vt 1.75000 -0.87500
vt 1.86719 -0.54688
vt 0.98438 -4.75000
vt 0.98438 -4.79688
vt 0.86719 -4.98438
vt 0.75000 -4.98438
vt 2.28125 -2.25000
vt 2.00000 -2.25000
vt 2.28125 -2.29688
vt 2.00000 -2.29688
vt 2.11719 -2.25000
vt 2.11719 -2.53125
vt 2.00000 -2.53125
vt 2.11719 -2.29688
vt 3.89062 -4.25000
vt 3.75000 -4.25000
vt 3.89062 -4.39062
vt 3.75000 -4.39062
vt 4.40625 -4.25000
vt 4.40625 -4.39062
vt 0.07031 0.25000
vt 0.00000 0.25000
vt 0.07031 0.10938
vt 0.00000 0.10938
vt 0.09375 0.25000
vt 0.09375 0.17969
vt 0.00000 0.17969
vt 0.09375 0.10938
vt 4.98438 -6.50000
vt 4.75000 -6.50000
vt 4.98438 -6.54688
vt 4.75000 -6.54688
vt 4.86719 -6.50000
vt 4.86719 -6.73438
vt 4.75000 -6.73438
vt 4.86719 -6.54688
vt 2.78125 -4.25000
vt 2.50000 -4.25000
vt 2.78125 -4.29688
vt 2.50000 -4.29688
vt 2.61719 -4.25000
vt 2.61719 -4.53125
vt 2.50000 -4.53125
vt 2.61719 -4.29688
vt 2.87500 -4.00000
vt 2.50000 -4.00000
vt 2.87500 -4.04688
vt 2.50000 -4.04688
vt 2.61719 -4.00000
vt 2.61719 -4.37500
vt 2.50000 -4.37500
vt 2.61719 -4.04688
vt 3.82812 1.00000
vt 3.50000 1.00000
vt 3.82812 0.95312
vt 3.50000 0.95312
vt 3.61719 1.00000
vt 3.61719 0.67188
vt 3.50000 0.67188
vt 3.61719 0.95312
vt 0.82031 0.00000
vt 0.82031 -0.14062
vt 0.75000 -0.14062
vt 0.84375 -0.07031
vt 0.75000 -0.07031
vt 0.84375 -0.14062
vt 5.89062 -2.25000
vt 5.75000 -2.25000
vt 5.89062 -2.39062
vt 5.75000 -2.39062
vt 6.40625 -2.25000
vt 6.40625 -2.39062
vt 7.28125 -3.25000
vt 7.00000 -3.25000
vt 7.28125 -3.32031
vt 7.00000 -3.32031
vt 7.09375 -3.25000
vt 7.09375 -3.53125
vt 7.00000 -3.53125
vt 7.09375 -3.32031
vt 6.37500 -3.25000
vt 6.00000 -3.25000
vt 6.37500 -3.48438
vt 6.00000 -3.48438
vt 6.37500 -3.62500
vt 6.00000 -3.62500
vt 5.12500 -2.75000
vt 4.75000 -2.75000
vt 5.12500 -2.84375
vt 4.75000 -2.84375
vt 5.12500 -3.12500
vt 4.75000 -3.12500
vt 7.89062 -6.25000
vt 7.75000 -6.25000
vt 7.89062 -6.29688
vt 7.75000 -6.29688
vt 7.79688 -6.25000
vt 7.79688 -6.39062
vt 7.75000 -6.39062
vt 7.79688 -6.29688
vt 1.14062 -6.50000
vt 1.00000 -6.50000
vt 1.14062 -6.54688
vt 1.00000 -6.54688
vt 1.04688 -6.50000
vt 1.04688 -6.64062
vt 1.00000 -6.64062
vt 1.04688 -6.54688
vt 3.89062 -0.50000
vt 3.75000 -0.50000
vt 3.89062 -0.54688
vt 3.75000 -0.54688
vt 3.79688 -0.50000
vt 3.79688 -0.64062
vt 3.75000 -0.64062
vt 3.79688 -0.54688
vt 7.39062 0.25000
vt 7.25000 0.25000
vt 7.39062 0.20312
vt 7.25000 0.20312
vt 7.29688 0.25000
vt 7.29688 0.10938
vt 7.25000 0.10938
vt 7.29688 0.20312
vt 0.39062 -5.00000
vt 0.25000 -5.00000
vt 0.39062 -5.04688
vt 0.25000 -5.04688
vt 0.29688 -5.00000
vt 0.29688 -5.14062
vt 0.25000 -5.14062
vt 0.29688 -5.04688
vt 7.18750 -3.75000
vt 7.00000 -3.75000
vt 7.18750 -3.86719
vt 7.00000 -3.86719
vt 7.18750 -3.93750
vt 7.00000 -3.93750
vt 3.07812 -0.50000
vt 2.75000 -0.50000
vt 3.07812 -0.64062
vt 2.75000 -0.64062
vt 2.93750 -0.50000
vt 2.93750 -0.82812
vt 2.75000 -0.82812
vt 2.93750 -0.64062
vt 1.43750 -2.75000
vt 1.25000 -2.75000
vt 1.43750 -2.84375
vt 1.25000 -2.84375
vt 1.34375 -2.75000
vt 1.34375 -2.93750
vt 1.25000 -2.93750
vt 1.34375 -2.84375
vt 8.05469 0.00000
vt 7.75000 0.00000
vt 8.05469 -0.18750
vt 7.75000 -0.18750
vt 8.03125 0.00000
vt 8.03125 -0.30469
vt 7.75000 -0.30469
vt 8.03125 -0.18750
vt 2.32812 -1.50000
vt 2.00000 -1.50000
vt 2.32812 -1.54688
vt 2.00000 -1.54688
vt 2.18750 -1.50000
vt 2.18750 -1.82812
vt 2.00000 -1.82812
vt 2.18750 -1.54688
vt 4.59375 -5.50000
vt 4.50000 -5.50000
vt 4.59375 -5.59375
vt 4.50000 -5.59375
vt 4.82812 -5.50000
vt 4.82812 -5.59375
vt 7.30469 -5.00000
vt 7.00000 -5.00000
vt 7.30469 -5.09375
vt 7.00000 -5.09375
vt 7.28125 -5.00000
vt 7.28125 -5.30469
vt 7.00000 -5.30469
vt 7.28125 -5.09375
vt 7.93750 -6.75000
vt 7.75000 -6.75000
vt 7.93750 -6.84375
vt 7.75000 -6.84375
vt 7.93750 -6.93750
vt 7.75000 -6.93750
vt 1.00000 1.00000
vt 0.00000 1.00000
vt 1.00000 0.00000
vt 0.00000 0.00000
vt 7.32031 -5.75000
vt 7.25000 -5.75000
vt 7.32031 -5.84375
vt 7.25000 -5.84375
vt 7.29688 -5.75000
vt 7.29688 -5.82031
vt 7.25000 -5.82031
vt 7.29688 -5.84375
vt 6.82031 0.75000
vt 6.75000 0.75000
vt 6.82031 0.65625
vt 6.75000 0.65625
vt 6.79688 0.75000
vt 6.79688 0.67969
vt 6.75000 0.67969
vt 6.79688 0.65625
vt 3.07031 -5.25000
vt 3.00000 -5.25000
vt 3.07031 -5.34375
vt 3.00000 -5.34375
vt 3.04688 -5.25000
vt 3.04688 -5.32031
vt 3.00000 -5.32031
vt 3.04688 -5.34375
vt 0.86719 -1.75000
vt 0.75000 -1.75000
vt 0.86719 -1.79688
vt 0.75000 -1.79688
vt 1.21875 -1.75000
vt 1.21875 -1.86719
vt 0.75000 -1.86719
vt 1.21875 -1.79688
vt 1.64062 -1.75000
vt 1.50000 -1.75000
vt 1.64062 -1.79688
vt 1.50000 -1.79688
vt 2.20312 -1.75000
vt 2.20312 -1.89062
vt 1.50000 -1.89062
vt 2.20312 -1.79688
vt 5.11719 -2.75000
vt 5.00000 -2.75000
vt 5.11719 -2.79688
vt 5.00000 -2.79688
vt 5.37500 -2.75000
vt 5.37500 -2.86719
vt 5.00000 -2.86719
vt 5.37500 -2.79688
vt 4.86719 -4.50000
vt 4.75000 -4.50000
vt 4.86719 -4.54688
vt 4.75000 -4.54688
vt 5.35937 -4.50000
vt 5.35937 -4.61719
vt 4.75000 -4.61719
vt 5.35937 -4.54688
vt 5.39062 -6.00000
vt 5.25000 -6.00000
vt 5.39062 -6.04688
vt 5.25000 -6.04688
vt 5.90625 -6.00000
vt 5.90625 -6.14062
vt 5.25000 -6.14062
vt 5.90625 -6.04688
vt 1.26562 -4.75000
vt 1.26562 -4.86719
vt 1.26562 -4.79688
vt 1.11719 -1.50000
vt 1.00000 -1.50000
vt 1.11719 -1.54688
vt 1.00000 -1.54688
vt 1.28125 -1.50000
vt 1.28125 -1.61719
vt 1.00000 -1.61719
vt 1.28125 -1.54688
vt 7.86719 -0.25000
vt 7.75000 -0.25000
vt 7.86719 -0.29688
vt 7.75000 -0.29688
vt 8.03125 -0.25000
vt 8.03125 -0.36719
vt 7.75000 -0.36719
vt 8.03125 -0.29688
vt 2.86719 -6.25000
vt 2.75000 -6.25000
vt 2.86719 -6.29688
vt 2.75000 -6.29688
vt 3.03125 -6.25000
vt 3.03125 -6.36719
vt 2.75000 -6.36719
vt 3.03125 -6.29688
vt 1.36719 -6.50000
vt 1.25000 -6.50000
vt 1.36719 -6.54688
vt 1.25000 -6.54688
vt 1.50781 -6.50000
vt 1.50781 -6.61719
vt 1.25000 -6.61719
vt 1.50781 -6.54688
vt 5.11719 -2.25000
vt 5.00000 -2.25000
vt 5.11719 -2.29688
vt 5.00000 -2.29688
vt 5.23438 -2.25000
vt 5.23438 -2.36719
vt 5.00000 -2.36719
vt 5.23438 -2.29688
vt 7.84375 -2.75000
vt 7.75000 -2.75000
vt 7.84375 -2.89062
vt 7.75000 -2.89062
vt 8.52344 -2.75000
vt 8.52344 -2.84375
vt 7.75000 -2.84375
vt 8.52344 -2.89062
vn 0.2598 -0.0236 -0.9685
vn 0.0866 1.0000 0.0000
vn 0.9606 -0.0866 0.2598
vn -0.2598 0.0236 0.9685
vn -0.0866 -1.0000 0.0000
vn -0.9606 0.0866 -0.2598
vn 0.8661 -0.0787 -0.5039
vn 0.4961 -0.0472 0.8661
vn -0.8661 0.0787 0.5039
vn -0.4961 0.0472 -0.8661
vn 0.5748 -0.0472 -0.8189
vn 0.8189 -0.0709 0.5748
vn -0.5748 0.0472 0.8189
vn -0.8189 0.0709 -0.5748
vn 0.4173 -0.0394 -0.9055
vn 0.9055 -0.0787 0.4252
vn -0.4173 0.0394 0.9055
vn -0.9055 0.0787 -0.4252
vn 0.7008 -0.0630 -0.7087
vn 0.7008 -0.0630 0.7087
vn -0.7008 0.0630 0.7087
vn -0.7008 0.0630 -0.7087
vn 0.4961 -0.0472 -0.8661
vn 0.8661 -0.0787 0.4961
vn -0.4961 0.0472 0.8661
vn -0.8661 0.0787 -0.4961
vn 0.3386 -0.0315 -0.9370
vn 0.9370 -0.0787 0.3386
vn -0.3386 0.0315 0.9370
vn -0.9370 0.0787 -0.3386
vn 0.9055 -0.0787 -0.4252
vn 0.4173 -0.0394 0.9055
vn -0.9055 0.0787 0.4252
vn -0.4173 0.0394 -0.9055
vn 0.9606 -0.0866 -0.2598
vn 0.2598 -0.0236 0.9685
vn -0.9606 0.0866 0.2598
vn -0.2598 0.0236 -0.9685
vn 1.0000 0.0000 0.0000
vn 0.0000 1.0000 0.0000
vn 0.0000 0.0000 1.0000
vn -1.0000 0.0000 0.0000
vn 0.0000 -1.0000 0.0000
vn 0.0000 0.0000 -1.0000
vn 0.6457 0.0000 0.7638
vn -0.7638 0.0000 0.6457
vn -0.6457 0.0000 -0.7638
vn 0.7638 0.0000 -0.6457
vn 0.6457 0.0000 -0.7638
vn 0.7638 0.0000 0.6457
vn -0.6457 0.0000 0.7638
vn -0.7638 0.0000 -0.6457
vn 0.9528 0.1654 -0.2598
vn -0.1732 0.9843 0.0000
vn 0.2520 0.0472 0.9685
vn -0.9528 -0.1654 0.2598
vn 0.1732 -0.9843 0.0000
vn -0.2520 -0.0472 -0.9685
vn 0.9843 0.1732 0.0000
vn -0.9843 -0.1732 0.0000
vn 0.8504 0.1496 -0.5039
vn 0.4961 0.0866 0.8661
vn -0.8504 -0.1496 0.5039
vn -0.4961 -0.0866 -0.8661
vn 0.9528 0.1654 0.2598
vn -0.2520 -0.0472 0.9685
vn -0.9528 -0.1654 -0.2598
vn 0.2520 0.0472 -0.9685
vn 0.8898 0.1575 -0.4252
vn 0.4173 0.0709 0.9055
vn -0.8898 -0.1575 0.4252
vn -0.4173 -0.0709 -0.9055
vn 0.8504 -0.1496 0.5039
vn 0.1732 0.9843 0.0000
vn -0.4961 0.0866 0.8661
vn -0.8504 0.1496 -0.5039
vn -0.1732 -0.9843 0.0000
vn 0.4961 -0.0866 -0.8661
vn 0.9528 -0.1654 -0.2598
vn 0.2520 -0.0472 0.9685
vn -0.9528 0.1654 0.2598
vn -0.2520 0.0472 -0.9685
vn 0.9843 -0.1732 0.0000
vn -0.9843 0.1732 0.0000
vn 0.9528 -0.1654 0.2598
vn -0.2520 0.0472 0.9685
vn -0.9528 0.1654 -0.2598
vn 0.2520 -0.0472 -0.9685
vn 0.8898 -0.1575 0.4252
vn -0.4173 0.0709 0.9055
vn -0.8898 0.1575 -0.4252
vn 0.4173 -0.0709 -0.9055
vn 0.0000 0.7638 -0.6457
vn 0.0000 0.6457 0.7638
vn 0.0000 -0.7638 0.6457
vn 0.0000 -0.6457 -0.7638
vn 0.0000 0.9685 0.2598
vn 0.0000 -0.2598 0.9685
vn 0.0000 -0.9685 -0.2598
vn 0.0000 0.2598 -0.9685
vn 0.9606 0.0866 0.2598
vn -0.0866 1.0000 0.0000
vn -0.2598 -0.0236 0.9685
vn -0.9606 -0.0866 -0.2598
vn 0.0866 -1.0000 0.0000
vn 0.2598 0.0236 -0.9685
vn 0.9606 0.0866 -0.2598
vn 0.2598 0.0236 0.9685
vn -0.9606 -0.0866 0.2598
vn -0.2598 -0.0236 -0.9685
vn 0.3386 0.0315 0.9370
vn -0.9370 -0.0787 0.3386
vn -0.3386 -0.0315 -0.9370
vn 0.9370 0.0787 -0.3386
vn 0.8661 0.0787 0.5039
vn -0.4961 -0.0472 0.8661
vn -0.8661 -0.0787 -0.5039
vn 0.4961 0.0472 -0.8661
vn 0.7008 0.0630 0.7087
vn -0.7008 -0.0630 0.7087
vn -0.7008 -0.0630 -0.7087
vn 0.7008 0.0630 -0.7087
vn 0.9055 0.0787 0.4252
vn -0.4173 -0.0394 0.9055
vn -0.9055 -0.0787 -0.4252
vn 0.4173 0.0394 -0.9055
vn 0.4961 0.0472 0.8661
vn -0.8661 -0.0787 0.4961
vn -0.4961 -0.0472 -0.8661
vn 0.8661 0.0787 -0.4961
vn 0.5748 0.0472 0.8189
vn -0.8189 -0.0709 0.5748
vn -0.5748 -0.0472 -0.8189
vn 0.8189 0.0709 -0.5748
vn 0.4173 0.0394 0.9055
vn -0.9055 -0.0787 0.4252
vn -0.4173 -0.0394 -0.9055
vn 0.9055 0.0787 -0.4252

o LeftUpperArm
usemtl c_d5733d
f 1/1/1 2/2/1 3/3/1
f 3/3/1 2/2/1 4/4/1
f 5/5/2 2/2/2 6/6/2
f 6/6/2 2/2/2 1/7/2
f 2/5/3 5/2/3 4/8/3
f 4/8/3 5/2/3 7/4/3
f 5/1/4 6/2/4 7/3/4
f 7/3/4 6/2/4 8/4/4
f 8/5/5 3/2/5 7/6/5
f 7/6/5 3/2/5 4/7/5
f 6/5/6 1/2/6 8/8/6
f 8/8/6 1/2/6 3/4/6
f 9/9/7 10/10/7 11/11/7
f 11/11/7 10/10/7 12/12/7
f 13/13/2 10/10/2 14/14/2
f 14/14/2 10/10/2 9/15/2
f 10/13/8 13/10/8 12/16/8
f 12/16/8 13/10/8 15/12/8
f 13/9/9 14/10/9 15/11/9
f 15/11/9 14/10/9 16/12/9
f 16/13/5 11/10/5 15/14/5
f 15/14/5 11/10/5 12/15/5
f 14/13/10 9/10/10 16/16/10
f 16/16/10 9/10/10 11/12/10
f 17/17/11 18/18/11 19/19/11
f 19/19/11 18/18/11 20/20/11
f 21/21/2 18/18/2 22/22/2
f 22/22/2 18/18/2 17/23/2
f 18/21/12 21/18/12 20/24/12
f 20/24/12 21/18/12 23/20/12
f 21/17/13 22/18/13 23/19/13
f 23/19/13 22/18/13 24/20/13
f 24/21/5 19/18/5 23/22/5
f 23/22/5 19/18/5 20/23/5
f 22/21/14 17/18/14 24/24/14
f 24/24/14 17/18/14 19/20/14
f 25/25/15 26/26/15 27/27/15
f 27/27/15 26/26/15 28/28/15
f 29/29/2 26/26/2 30/30/2
f 30/30/2 26/26/2 25/31/2
f 26/29/16 29/26/16 28/32/16
f 28/32/16 29/26/16 31/28/16
f 29/25/17 30/26/17 31/27/17
f 31/27/17 30/26/17 32/28/17
f 32/29/5 27/26/5 31/30/5
f 31/30/5 27/26/5 28/31/5
f 30/29/18 25/26/18 32/32/18
f 32/32/18 25/26/18 27/28/18
f 33/33/19 34/34/19 35/35/19
f 35/35/19 34/34/19 36/36/19
f 37/37/2 34/34/2 38/38/2
f 38/38/2 34/34/2 33/39/2
f 34/37/20 37/34/20 36/40/20
f 36/40/20 37/34/20 39/36/20
f 37/33/21 38/34/21 39/35/21
f 39/35/21 38/34/21 40/36/21
f 40/37/5 35/34/5 39/38/5
f 39/38/5 35/34/5 36/39/5
f 38/37/22 33/34/22 40/40/22
f 40/40/22 33/34/22 35/36/22
usemtl c_0d69ac
f 41/41/7 42/42/7 43/43/7
f 43/43/7 42/42/7 44/44/7
f 45/45/2 42/42/2 46/46/2
f 46/46/2 42/42/2 41/47/2
f 42/45/8 45/42/8 44/48/8
f 44/48/8 45/42/8 47/44/8
f 45/41/9 46/42/9 47/43/9
f 47/43/9 46/42/9 48/44/9
f 48/45/5 43/42/5 47/46/5
f 47/46/5 43/42/5 44/47/5
f 46/45/10 41/42/10 48/48/10
f 48/48/10 41/42/10 43/44/10
f 49/49/23 50/50/23 51/51/23
f 51/51/23 50/50/23 52/52/23
f 53/53/2 50/50/2 54/54/2
f 54/54/2 50/50/2 49/55/2
f 50/53/24 53/50/24 52/56/24
f 52/56/24 53/50/24 55/52/24
f 53/49/25 54/50/25 55/51/25
f 55/51/25 54/50/25 56/52/25
f 56/53/5 51/50/5 55/54/5
f 55/54/5 51/50/5 52/55/5
f 54/53/26 49/50/26 56/56/26
f 56/56/26 49/50/26 51/52/26
f 57/57/27 58/58/27 59/59/27
f 59/59/27 58/58/27 60/60/27
f 61/61/2 58/58/2 62/62/2
f 62/62/2 58/58/2 57/63/2
f 58/61/28 61/58/28 60/64/28
f 60/64/28 61/58/28 63/60/28
f 61/57/29 62/58/29 63/59/29
f 63/59/29 62/58/29 64/60/29
f 64/61/5 59/58/5 63/62/5
f 63/62/5 59/58/5 60/63/5
f 62/61/30 57/58/30 64/64/30
f 64/64/30 57/58/30 59/60/30
f 65/65/19 66/66/19 67/67/19
f 67/67/19 66/66/19 68/68/19
f 69/69/2 66/66/2 70/70/2
f 70/70/2 66/66/2 65/71/2
f 66/69/20 69/66/20 68/72/20
f 68/72/20 69/66/20 71/68/20
f 69/65/21 70/66/21 71/67/21
f 71/67/21 70/66/21 72/68/21
f 72/69/5 67/66/5 71/70/5
f 71/70/5 67/66/5 68/71/5
f 70/69/22 65/66/22 72/72/22
f 72/72/22 65/66/22 67/68/22
f 73/73/31 74/74/31 75/75/31
f 75/75/31 74/74/31 76/76/31
f 77/77/2 74/74/2 78/78/2
f 78/78/2 74/74/2 73/79/2
f 74/77/32 77/74/32 76/80/32
f 76/80/32 77/74/32 79/76/32
f 77/73/33 78/74/33 79/75/33
f 79/75/33 78/74/33 80/76/33
f 80/77/5 75/74/5 79/78/5
f 79/78/5 75/74/5 76/79/5
f 78/77/34 73/74/34 80/80/34
f 80/80/34 73/74/34 75/76/34
f 81/81/1 82/82/1 83/83/1
f 83/83/1 82/82/1 84/84/1
f 85/85/2 82/82/2 86/86/2
f 86/86/2 82/82/2 81/87/2
f 82/85/3 85/82/3 84/88/3
f 84/88/3 85/82/3 87/84/3
f 85/81/4 86/82/4 87/83/4
f 87/83/4 86/82/4 88/84/4
f 88/85/5 83/82/5 87/86/5
f 87/86/5 83/82/5 84/87/5
f 86/85/6 81/82/6 88/88/6
f 88/88/6 81/82/6 83/84/6
usemtl c_1b2a35
f 89/89/35 90/90/35 91/91/35
f 91/91/35 90/90/35 92/92/35
f 93/93/2 90/90/2 94/94/2
f 94/94/2 90/90/2 89/95/2
f 90/93/36 93/90/36 92/96/36
f 92/96/36 93/90/36 95/92/36
f 93/89/37 94/90/37 95/91/37
f 95/91/37 94/90/37 96/92/37
f 96/93/5 91/90/5 95/94/5
f 95/94/5 91/90/5 92/95/5
f 94/93/38 89/90/38 96/96/38
f 96/96/38 89/90/38 91/92/38
f 97/97/3 98/98/3 99/99/3
f 99/99/3 98/98/3 100/100/3
f 101/101/2 98/98/2 102/102/2
f 102/102/2 98/98/2 97/103/2
f 98/101/4 101/98/4 100/104/4
f 100/104/4 101/98/4 103/100/4
f 101/97/6 102/98/6 103/99/6
f 103/99/6 102/98/6 104/100/6
f 104/101/5 99/98/5 103/102/5
f 103/102/5 99/98/5 100/103/5
f 102/101/1 97/98/1 104/104/1
f 104/104/1 97/98/1 99/100/1
f 105/105/3 106/106/3 107/107/3
f 107/107/3 106/106/3 108/108/3
f 109/109/2 106/106/2 110/110/2
f 110/110/2 106/106/2 105/111/2
f 106/109/4 109/106/4 108/112/4
f 108/112/4 109/106/4 111/108/4
f 109/105/6 110/106/6 111/107/6
f 111/107/6 110/106/6 112/108/6
f 112/109/5 107/106/5 111/110/5
f 111/110/5 107/106/5 108/111/5
f 110/109/1 105/106/1 112/112/1
f 112/112/1 105/106/1 107/108/1
usemtl c_c4281c
f 113/113/3 114/114/3 115/115/3
f 115/115/3 114/114/3 116/116/3
f 117/117/2 114/114/2 118/118/2
f 118/118/2 114/114/2 113/119/2
f 114/117/4 117/114/4 116/120/4
f 116/120/4 117/114/4 119/116/4
f 117/113/6 118/114/6 119/115/6
f 119/115/6 118/114/6 120/116/6
f 120/117/5 115/114/5 119/118/5
f 119/118/5 115/114/5 116/119/5
f 118/117/1 113/114/1 120/120/1
f 120/120/1 113/114/1 115/116/1
o LowerTorso
usemtl c_335882
f 121/121/39 122/122/39 123/123/39
f 123/123/39 122/122/39 124/124/39
f 125/121/40 122/122/40 126/123/40
f 126/123/40 122/122/40 121/124/40
f 122/121/41 125/122/41 124/123/41
f 124/123/41 125/122/41 127/124/41
f 125/121/42 126/122/42 127/123/42
f 127/123/42 126/122/42 128/124/42
f 128/121/43 123/122/43 127/123/43
f 127/123/43 123/122/43 124/124/43
f 126/121/44 121/122/44 128/123/44
f 128/123/44 121/122/44 123/124/44
o Tail
usemtl c_b480ff
f 129/125/45 130/126/45 131/127/45
f 131/127/45 130/126/45 132/128/45
f 133/129/40 130/126/40 134/130/40
f 134/130/40 130/126/40 129/131/40
f 130/129/46 133/126/46 132/132/46
f 132/132/46 133/126/46 135/128/46
f 133/125/47 134/126/47 135/127/47
f 135/127/47 134/126/47 136/128/47
f 136/129/43 131/126/43 135/130/43
f 135/130/43 131/126/43 132/131/43
f 134/129/48 129/126/48 136/132/48
f 136/132/48 129/126/48 131/128/48
f 137/133/49 138/134/49 139/135/49
f 139/135/49 138/134/49 140/136/49
f 141/137/40 138/134/40 142/138/40
f 142/138/40 138/134/40 137/139/40
f 138/137/50 141/134/50 140/140/50
f 140/140/50 141/134/50 143/136/50
f 141/133/51 142/134/51 143/135/51
f 143/135/51 142/134/51 144/136/51
f 144/137/43 139/134/43 143/138/43
f 143/138/43 139/134/43 140/139/43
f 142/137/52 137/134/52 144/140/52
f 144/140/52 137/134/52 139/136/52
f 145/141/49 146/142/49 147/143/49
f 147/143/49 146/142/49 148/144/49
f 149/145/40 146/142/40 150/146/40
f 150/146/40 146/142/40 145/147/40
f 146/145/50 149/142/50 148/148/50
f 148/148/50 149/142/50 151/144/50
f 149/141/51 150/142/51 151/143/51
f 151/143/51 150/142/51 152/144/51
f 152/145/43 147/142/43 151/146/43
f 151/146/43 147/142/43 148/147/43
f 150/145/52 145/142/52 152/148/52
f 152/148/52 145/142/52 147/144/52
f 153/149/45 154/150/45 155/151/45
f 155/151/45 154/150/45 156/152/45
f 157/153/40 154/150/40 158/154/40
f 158/154/40 154/150/40 153/155/40
f 154/153/46 157/150/46 156/156/46
f 156/156/46 157/150/46 159/152/46
f 157/149/47 158/150/47 159/151/47
f 159/151/47 158/150/47 160/152/47
f 160/153/43 155/150/43 159/154/43
f 159/154/43 155/150/43 156/155/43
f 158/153/48 153/150/48 160/156/48
f 160/156/48 153/150/48 155/152/48
f 161/157/45 162/158/45 163/159/45
f 163/159/45 162/158/45 164/160/45
f 165/161/40 162/158/40 166/162/40
f 166/162/40 162/158/40 161/163/40
f 162/161/46 165/158/46 164/164/46
f 164/164/46 165/158/46 167/160/46
f 165/157/47 166/158/47 167/159/47
f 167/159/47 166/158/47 168/160/47
f 168/161/43 163/158/43 167/162/43
f 167/162/43 163/158/43 164/163/43
f 166/161/48 161/158/48 168/164/48
f 168/164/48 161/158/48 163/160/48
f 169/165/49 170/166/49 171/167/49
f 171/167/49 170/166/49 172/168/49
f 173/169/40 170/166/40 174/170/40
f 174/170/40 170/166/40 169/171/40
f 170/169/50 173/166/50 172/172/50
f 172/172/50 173/166/50 175/168/50
f 173/165/51 174/166/51 175/167/51
f 175/167/51 174/166/51 176/168/51
f 176/169/43 171/166/43 175/170/43
f 175/170/43 171/166/43 172/171/43
f 174/169/52 169/166/52 176/172/52
f 176/172/52 169/166/52 171/168/52
usemtl c_c4281c
f 177/173/39 178/174/39 179/175/39
f 179/175/39 178/174/39 180/176/39
f 181/177/40 178/174/40 182/178/40
f 182/178/40 178/174/40 177/179/40
f 178/177/41 181/174/41 180/180/41
f 180/180/41 181/174/41 183/176/41
f 181/173/42 182/174/42 183/175/42
f 183/175/42 182/174/42 184/176/42
f 184/177/43 179/174/43 183/178/43
f 183/178/43 179/174/43 180/179/43
f 182/177/44 177/174/44 184/180/44
f 184/180/44 177/174/44 179/176/44
usemtl c_335882
f 185/181/39 186/182/39 187/183/39
f 187/183/39 186/182/39 188/184/39
f 189/185/40 186/182/40 190/186/40
f 190/186/40 186/182/40 185/184/40
f 186/185/41 189/182/41 188/186/41
f 188/186/41 189/182/41 191/184/41
f 189/181/42 190/182/42 191/183/42
f 191/183/42 190/182/42 192/184/42
f 192/185/43 187/182/43 191/186/43
f 191/186/43 187/182/43 188/184/43
f 190/185/44 185/182/44 192/186/44
f 192/186/44 185/182/44 187/184/44
o LeftUpperLeg
usemtl c_008f9c
f 193/187/53 194/188/53 195/189/53
f 195/189/53 194/188/53 196/190/53
f 197/191/54 194/188/54 198/192/54
f 198/192/54 194/188/54 193/193/54
f 194/191/55 197/188/55 196/194/55
f 196/194/55 197/188/55 199/190/55
f 197/187/56 198/188/56 199/189/56
f 199/189/56 198/188/56 200/190/56
f 200/191/57 195/188/57 199/192/57
f 199/192/57 195/188/57 196/193/57
f 198/191/58 193/188/58 200/194/58
f 200/194/58 193/188/58 195/190/58
f 201/195/59 202/196/59 203/197/59
f 203/197/59 202/196/59 204/198/59
f 205/199/54 202/196/54 206/200/54
f 206/200/54 202/196/54 201/201/54
f 202/199/41 205/196/41 204/202/41
f 204/202/41 205/196/41 207/198/41
f 205/195/60 206/196/60 207/197/60
f 207/197/60 206/196/60 208/198/60
f 208/199/57 203/196/57 207/200/57
f 207/200/57 203/196/57 204/201/57
f 206/199/44 201/196/44 208/202/44
f 208/202/44 201/196/44 203/198/44
f 209/203/61 210/66/61 211/204/61
f 211/204/61 210/66/61 212/68/61
f 213/65/54 210/66/54 214/205/54
f 214/205/54 210/66/54 209/206/54
f 210/65/62 213/66/62 212/67/62
f 212/67/62 213/66/62 215/68/62
f 213/203/63 214/66/63 215/204/63
f 215/204/63 214/66/63 216/68/63
f 216/65/57 211/66/57 215/205/57
f 215/205/57 211/66/57 212/206/57
f 214/65/64 209/66/64 216/67/64
f 216/67/64 209/66/64 211/68/64
f 217/207/65 218/208/65 219/209/65
f 219/209/65 218/208/65 220/210/65
f 221/211/54 218/208/54 222/212/54
f 222/212/54 218/208/54 217/213/54
f 218/211/66 221/208/66 220/214/66
f 220/214/66 221/208/66 223/210/66
f 221/207/67 222/208/67 223/209/67
f 223/209/67 222/208/67 224/210/67
f 224/211/57 219/208/57 223/212/57
f 223/212/57 219/208/57 220/213/57
f 222/211/68 217/208/68 224/214/68
f 224/214/68 217/208/68 219/210/68
usemtl c_335882
f 225/215/69 226/216/69 227/217/69
f 227/217/69 226/216/69 228/218/69
f 229/219/54 226/216/54 230/220/54
f 230/220/54 226/216/54 225/218/54
f 226/219/70 229/216/70 228/220/70
f 228/220/70 229/216/70 231/218/70
f 229/215/71 230/216/71 231/217/71
f 231/217/71 230/216/71 232/218/71
f 232/219/57 227/216/57 231/220/57
f 231/220/57 227/216/57 228/218/57
f 230/219/72 225/216/72 232/220/72
f 232/220/72 225/216/72 227/218/72
usemtl c_1b2a35
f 233/221/69 234/222/69 235/223/69
f 235/223/69 234/222/69 236/224/69
f 237/225/54 234/222/54 238/226/54
f 238/226/54 234/222/54 233/227/54
f 234/225/70 237/222/70 236/228/70
f 236/228/70 237/222/70 239/224/70
f 237/221/71 238/222/71 239/223/71
f 239/223/71 238/222/71 240/224/71
f 240/225/57 235/222/57 239/226/57
f 239/226/57 235/222/57 236/227/57
f 238/225/72 233/222/72 240/228/72
f 240/228/72 233/222/72 235/224/72
o RightUpperLeg
usemtl c_008f9c
f 241/229/73 242/230/73 243/231/73
f 243/231/73 242/230/73 244/232/73
f 245/233/74 242/230/74 246/234/74
f 246/234/74 242/230/74 241/235/74
f 242/233/75 245/230/75 244/236/75
f 244/236/75 245/230/75 247/232/75
f 245/229/76 246/230/76 247/231/76
f 247/231/76 246/230/76 248/232/76
f 248/233/77 243/230/77 247/234/77
f 247/234/77 243/230/77 244/235/77
f 246/233/78 241/230/78 248/236/78
f 248/236/78 241/230/78 243/232/78
f 249/237/79 250/238/79 251/239/79
f 251/239/79 250/238/79 252/240/79
f 253/241/74 250/238/74 254/242/74
f 254/242/74 250/238/74 249/243/74
f 250/241/80 253/238/80 252/244/80
f 252/244/80 253/238/80 255/240/80
f 253/237/81 254/238/81 255/239/81
f 255/239/81 254/238/81 256/240/81
f 256/241/77 251/238/77 255/242/77
f 255/242/77 251/238/77 252/243/77
f 254/241/82 249/238/82 256/244/82
f 256/244/82 249/238/82 251/240/82
f 257/245/83 258/246/83 259/247/83
f 259/247/83 258/246/83 260/248/83
f 261/249/74 258/246/74 262/250/74
f 262/250/74 258/246/74 257/251/74
f 258/249/41 261/246/41 260/252/41
f 260/252/41 261/246/41 263/248/41
f 261/245/84 262/246/84 263/247/84
f 263/247/84 262/246/84 264/248/84
f 264/249/77 259/246/77 263/250/77
f 263/250/77 259/246/77 260/251/77
f 262/249/44 257/246/44 264/252/44
f 264/252/44 257/246/44 259/248/44
f 265/253/85 266/254/85 267/255/85
f 267/255/85 266/254/85 268/256/85
f 269/257/74 266/254/74 270/258/74
f 270/258/74 266/254/74 265/259/74
f 266/257/86 269/254/86 268/260/86
f 268/260/86 269/254/86 271/256/86
f 269/253/87 270/254/87 271/255/87
f 271/255/87 270/254/87 272/256/87
f 272/257/77 267/254/77 271/258/77
f 271/258/77 267/254/77 268/259/77
f 270/257/88 265/254/88 272/260/88
f 272/260/88 265/254/88 267/256/88
usemtl c_1b2a35
f 273/261/89 274/150/89 275/262/89
f 275/262/89 274/150/89 276/263/89
f 277/153/74 274/150/74 278/264/74
f 278/264/74 274/150/74 273/265/74
f 274/153/90 277/150/90 276/266/90
f 276/266/90 277/150/90 279/263/90
f 277/261/91 278/150/91 279/262/91
f 279/262/91 278/150/91 280/263/91
f 280/153/77 275/150/77 279/264/77
f 279/264/77 275/150/77 276/265/77
f 278/153/92 273/150/92 280/266/92
f 280/266/92 273/150/92 275/263/92
usemtl c_335882
f 281/267/89 282/268/89 283/269/89
f 283/269/89 282/268/89 284/270/89
f 285/271/74 282/268/74 286/272/74
f 286/272/74 282/268/74 281/270/74
f 282/271/90 285/268/90 284/272/90
f 284/272/90 285/268/90 287/270/90
f 285/267/91 286/268/91 287/269/91
f 287/269/91 286/268/91 288/270/91
f 288/271/77 283/268/77 287/272/77
f 287/272/77 283/268/77 284/270/77
f 286/271/92 281/268/92 288/272/92
f 288/272/92 281/268/92 283/270/92
o UpperTorso
usemtl c_b480ff
f 289/273/39 290/274/39 291/275/39
f 291/275/39 290/274/39 292/276/39
f 293/277/40 290/274/40 294/278/40
f 294/278/40 290/274/40 289/279/40
f 290/277/41 293/274/41 292/280/41
f 292/280/41 293/274/41 295/276/41
f 293/273/42 294/274/42 295/275/42
f 295/275/42 294/274/42 296/276/42
f 296/277/43 291/274/43 295/278/43
f 295/278/43 291/274/43 292/279/43
f 294/277/44 289/274/44 296/280/44
f 296/280/44 289/274/44 291/276/44
usemtl c_c4281c
f 297/281/39 298/282/39 299/283/39
f 299/283/39 298/282/39 300/284/39
f 301/281/40 298/282/40 302/285/40
f 302/285/40 298/282/40 297/286/40
f 298/281/41 301/282/41 300/283/41
f 300/283/41 301/282/41 303/284/41
f 301/281/42 302/282/42 303/283/42
f 303/283/42 302/282/42 304/284/42
f 304/281/43 299/282/43 303/285/43
f 303/285/43 299/282/43 300/286/43
f 302/281/44 297/282/44 304/283/44
f 304/283/44 297/282/44 299/284/44
usemtl c_f8f8f8
f 299/287/39 300/288/39 305/289/39
f 305/289/39 300/288/39 306/290/39
f 303/287/40 300/288/40 304/291/40
f 304/291/40 300/288/40 299/292/40
f 300/287/41 303/288/41 306/289/41
f 306/289/41 303/288/41 307/290/41
f 303/287/42 304/288/42 307/289/42
f 307/289/42 304/288/42 308/290/42
f 308/287/43 305/288/43 307/291/43
f 307/291/43 305/288/43 306/292/43
f 304/287/44 299/288/44 308/289/44
f 308/289/44 299/288/44 305/290/44
o Head
usemtl c_b480ff
f 309/293/39 310/294/39 311/295/39
f 311/295/39 310/294/39 312/296/39
f 313/297/93 310/294/93 314/298/93
f 314/298/93 310/294/93 309/299/93
f 310/297/94 313/294/94 312/300/94
f 312/300/94 313/294/94 315/296/94
f 313/293/42 314/294/42 315/295/42
f 315/295/42 314/294/42 316/296/42
f 316/297/95 311/294/95 315/298/95
f 315/298/95 311/294/95 312/299/95
f 314/297/96 309/294/96 316/300/96
f 316/300/96 309/294/96 311/296/96
f 317/301/39 318/302/39 319/303/39
f 319/303/39 318/302/39 320/304/39
f 321/305/93 318/302/93 322/306/93
f 322/306/93 318/302/93 317/307/93
f 318/305/94 321/302/94 320/308/94
f 320/308/94 321/302/94 323/304/94
f 321/301/42 322/302/42 323/303/42
f 323/303/42 322/302/42 324/304/42
f 324/305/95 319/302/95 323/306/95
f 323/306/95 319/302/95 320/307/95
f 322/305/96 317/302/96 324/308/96
f 324/308/96 317/302/96 319/304/96
f 325/309/39 326/310/39 327/311/39
f 327/311/39 326/310/39 328/312/39
f 329/313/93 326/310/93 330/314/93
f 330/314/93 326/310/93 325/315/93
f 326/313/94 329/310/94 328/316/94
f 328/316/94 329/310/94 331/312/94
f 329/309/42 330/310/42 331/311/42
f 331/311/42 330/310/42 332/312/42
f 332/313/95 327/310/95 331/314/95
f 331/314/95 327/310/95 328/315/95
f 330/313/96 325/310/96 332/316/96
f 332/316/96 325/310/96 327/312/96
f 333/317/39 334/318/39 335/319/39
f 335/319/39 334/318/39 336/320/39
f 337/321/93 334/318/93 338/322/93
f 338/322/93 334/318/93 333/323/93
f 334/321/94 337/318/94 336/324/94
f 336/324/94 337/318/94 339/320/94
f 337/317/42 338/318/42 339/319/42
f 339/319/42 338/318/42 340/320/42
f 340/321/95 335/318/95 339/322/95
f 339/322/95 335/318/95 336/323/95
f 338/321/96 333/318/96 340/324/96
f 340/324/96 333/318/96 335/320/96
f 341/325/39 342/326/39 343/327/39
f 343/327/39 342/326/39 344/328/39
f 345/329/93 342/326/93 346/330/93
f 346/330/93 342/326/93 341/331/93
f 342/329/94 345/326/94 344/332/94
f 344/332/94 345/326/94 347/328/94
f 345/325/42 346/326/42 347/327/42
f 347/327/42 346/326/42 348/328/42
f 348/329/95 343/326/95 347/330/95
f 347/330/95 343/326/95 344/331/95
f 346/329/96 341/326/96 348/332/96
f 348/332/96 341/326/96 343/328/96
usemtl c_c4281c
f 349/333/39 350/334/39 351/335/39
f 351/335/39 350/334/39 352/336/39
f 353/333/40 350/334/40 354/337/40
f 354/337/40 350/334/40 349/338/40
f 350/333/41 353/334/41 352/335/41
f 352/335/41 353/334/41 355/336/41
f 353/333/42 354/334/42 355/335/42
f 355/335/42 354/334/42 356/336/42
f 356/333/43 351/334/43 355/337/43
f 355/337/43 351/334/43 352/338/43
f 354/333/44 349/334/44 356/335/44
f 356/335/44 349/334/44 351/336/44
f 357/339/39 358/340/39 359/341/39
f 359/341/39 358/340/39 360/342/39
f 361/343/97 358/340/97 362/344/97
f 362/344/97 358/340/97 357/345/97
f 358/343/98 361/340/98 360/346/98
f 360/346/98 361/340/98 363/342/98
f 361/339/42 362/340/42 363/341/42
f 363/341/42 362/340/42 364/342/42
f 364/343/99 359/340/99 363/344/99
f 363/344/99 359/340/99 360/345/99
f 362/343/100 357/340/100 364/346/100
f 364/346/100 357/340/100 359/342/100
f 365/347/39 366/348/39 367/349/39
f 367/349/39 366/348/39 368/350/39
f 369/351/40 366/348/40 370/352/40
f 370/352/40 366/348/40 365/353/40
f 366/351/41 369/348/41 368/354/41
f 368/354/41 369/348/41 371/350/41
f 369/347/42 370/348/42 371/349/42
f 371/349/42 370/348/42 372/350/42
f 372/351/43 367/348/43 371/352/43
f 371/352/43 367/348/43 368/353/43
f 370/351/44 365/348/44 372/354/44
f 372/354/44 365/348/44 367/350/44
f 373/355/39 374/356/39 375/357/39
f 375/357/39 374/356/39 376/358/39
f 377/359/40 374/356/40 378/360/40
f 378/360/40 374/356/40 373/361/40
f 374/359/41 377/356/41 376/362/41
f 376/362/41 377/356/41 379/358/41
f 377/355/42 378/356/42 379/357/42
f 379/357/42 378/356/42 380/358/42
f 380/359/43 375/356/43 379/360/43
f 379/360/43 375/356/43 376/361/43
f 378/359/44 373/356/44 380/362/44
f 380/362/44 373/356/44 375/358/44
usemtl c_f8f8f8
f 359/363/39 360/364/39 381/365/39
f 381/365/39 360/364/39 382/366/39
f 363/367/97 360/364/97 364/368/97
f 364/368/97 360/364/97 359/369/97
f 360/367/98 363/364/98 382/370/98
f 382/370/98 363/364/98 383/366/98
f 363/363/42 364/364/42 383/365/42
f 383/365/42 364/364/42 384/366/42
f 384/367/99 381/364/99 383/368/99
f 383/368/99 381/364/99 382/369/99
f 364/367/100 359/364/100 384/370/100
f 384/370/100 359/364/100 381/366/100
f 385/371/39 386/372/39 387/373/39
f 387/373/39 386/372/39 388/374/39
f 389/375/40 386/372/40 390/376/40
f 390/376/40 386/372/40 385/374/40
f 386/375/41 389/372/41 388/376/41
f 388/376/41 389/372/41 391/374/41
f 389/371/42 390/372/42 391/373/42
f 391/373/42 390/372/42 392/374/42
f 392/375/43 387/372/43 391/376/43
f 391/376/43 387/372/43 388/374/43
f 390/375/44 385/372/44 392/376/44
f 392/376/44 385/372/44 387/374/44
f 375/377/39 376/378/39 393/379/39
f 393/379/39 376/378/39 394/380/39
f 379/381/40 376/378/40 380/382/40
f 380/382/40 376/378/40 375/383/40
f 376/381/41 379/378/41 394/384/41
f 394/384/41 379/378/41 395/380/41
f 379/377/42 380/378/42 395/379/42
f 395/379/42 380/378/42 396/380/42
f 396/381/43 393/378/43 395/382/43
f 395/382/43 393/378/43 394/383/43
f 380/381/44 375/378/44 396/384/44
f 396/384/44 375/378/44 393/380/44
f 397/385/39 398/386/39 399/387/39
f 399/387/39 398/386/39 400/388/39
f 401/385/40 398/386/40 402/389/40
f 402/389/40 398/386/40 397/390/40
f 398/385/41 401/386/41 400/387/41
f 400/387/41 401/386/41 403/388/41
f 401/385/42 402/386/42 403/387/42
f 403/387/42 402/386/42 404/388/42
f 404/385/43 399/386/43 403/389/43
f 403/389/43 399/386/43 400/390/43
f 402/385/44 397/386/44 404/387/44
f 404/387/44 397/386/44 399/388/44
o Head_decal1
usemtl head_decal1
f 405/391/42 406/392/42 407/393/42
f 407/393/42 406/392/42 408/394/42
o Head_decal2
usemtl head_decal2
f 409/391/39 410/392/39 411/393/39
f 411/393/39 410/392/39 412/394/39
o RightUpperArm
usemtl c_1b2a35
f 413/395/101 414/396/101 415/397/101
f 415/397/101 414/396/101 416/398/101
f 417/399/102 414/396/102 418/400/102
f 418/400/102 414/396/102 413/401/102
f 414/399/103 417/396/103 416/402/103
f 416/402/103 417/396/103 419/398/103
f 417/395/104 418/396/104 419/397/104
f 419/397/104 418/396/104 420/398/104
f 420/399/105 415/396/105 419/400/105
f 419/400/105 415/396/105 416/401/105
f 418/399/106 413/396/106 420/402/106
f 420/402/106 413/396/106 415/398/106
f 421/403/107 422/404/107 423/405/107
f 423/405/107 422/404/107 424/406/107
f 425/407/102 422/404/102 426/408/102
f 426/408/102 422/404/102 421/409/102
f 422/407/108 425/404/108 424/410/108
f 424/410/108 425/404/108 427/406/108
f 425/403/109 426/404/109 427/405/109
f 427/405/109 426/404/109 428/406/109
f 428/407/105 423/404/105 427/408/105
f 427/408/105 423/404/105 424/409/105
f 426/407/110 421/404/110 428/410/110
f 428/410/110 421/404/110 423/406/110
f 429/411/107 430/412/107 431/413/107
f 431/413/107 430/412/107 432/414/107
f 433/415/102 430/412/102 434/416/102
f 434/416/102 430/412/102 429/417/102
f 430/415/108 433/412/108 432/418/108
f 432/418/108 433/412/108 435/414/108
f 433/411/109 434/412/109 435/413/109
f 435/413/109 434/412/109 436/414/109
f 436/415/105 431/412/105 435/416/105
f 435/416/105 431/412/105 432/417/105
f 434/415/110 429/412/110 436/418/110
f 436/418/110 429/412/110 431/414/110
usemtl c_0d69ac
f 437/419/111 438/420/111 439/421/111
f 439/421/111 438/420/111 440/422/111
f 441/423/102 438/420/102 442/424/102
f 442/424/102 438/420/102 437/425/102
f 438/423/112 441/420/112 440/426/112
f 440/426/112 441/420/112 443/422/112
f 441/419/113 442/420/113 443/421/113
f 443/421/113 442/420/113 444/422/113
f 444/423/105 439/420/105 443/424/105
f 443/424/105 439/420/105 440/425/105
f 442/423/114 437/420/114 444/426/114
f 444/426/114 437/420/114 439/422/114
f 445/427/115 446/428/115 447/429/115
f 447/429/115 446/428/115 448/430/115
f 449/431/102 446/428/102 450/432/102
f 450/432/102 446/428/102 445/433/102
f 446/431/116 449/428/116 448/434/116
f 448/434/116 449/428/116 451/430/116
f 449/427/117 450/428/117 451/429/117
f 451/429/117 450/428/117 452/430/117
f 452/431/105 447/428/105 451/432/105
f 451/432/105 447/428/105 448/433/105
f 450/431/118 445/428/118 452/434/118
f 452/434/118 445/428/118 447/430/118
f 453/435/108 454/436/108 455/437/108
f 455/437/108 454/436/108 456/438/108
f 457/439/102 454/436/102 458/440/102
f 458/440/102 454/436/102 453/441/102
f 454/439/109 457/436/109 456/442/109
f 456/442/109 457/436/109 459/438/109
f 457/435/110 458/436/110 459/437/110
f 459/437/110 458/436/110 460/438/110
f 460/439/105 455/436/105 459/440/105
f 459/440/105 455/436/105 456/441/105
f 458/439/107 453/436/107 460/442/107
f 460/442/107 453/436/107 455/438/107
f 461/443/119 462/444/119 463/445/119
f 463/445/119 462/444/119 464/446/119
f 465/447/102 462/444/102 466/448/102
f 466/448/102 462/444/102 461/449/102
f 462/447/120 465/444/120 464/450/120
f 464/450/120 465/444/120 467/446/120
f 465/443/121 466/444/121 467/445/121
f 467/445/121 466/444/121 468/446/121
f 468/447/105 463/444/105 467/448/105
f 467/448/105 463/444/105 464/449/105
f 466/447/122 461/444/122 468/450/122
f 468/450/122 461/444/122 463/446/122
f 469/451/123 470/452/123 471/453/123
f 471/453/123 470/452/123 472/454/123
f 473/455/102 470/452/102 474/456/102
f 474/456/102 470/452/102 469/457/102
f 470/455/124 473/452/124 472/458/124
f 472/458/124 473/452/124 475/454/124
f 473/451/125 474/452/125 475/453/125
f 475/453/125 474/452/125 476/454/125
f 476/455/105 471/452/105 475/456/105
f 475/456/105 471/452/105 472/457/105
f 474/455/126 469/452/126 476/458/126
f 476/458/126 469/452/126 471/454/126
f 477/65/127 478/66/127 479/67/127
f 479/67/127 478/66/127 480/68/127
f 481/459/102 478/66/102 482/460/102
f 482/460/102 478/66/102 477/71/102
f 478/459/128 481/66/128 480/461/128
f 480/461/128 481/66/128 483/68/128
f 481/65/129 482/66/129 483/67/129
f 483/67/129 482/66/129 484/68/129
f 484/459/105 479/66/105 483/460/105
f 483/460/105 479/66/105 480/71/105
f 482/459/130 477/66/130 484/461/130
f 484/461/130 477/66/130 479/68/130
usemtl c_d5733d
f 485/462/119 486/463/119 487/464/119
f 487/464/119 486/463/119 488/465/119
f 489/466/102 486/463/102 490/467/102
f 490/467/102 486/463/102 485/468/102
f 486/466/120 489/463/120 488/469/120
f 488/469/120 489/463/120 491/465/120
f 489/462/121 490/463/121 491/464/121
f 491/464/121 490/463/121 492/465/121
f 492/466/105 487/463/105 491/467/105
f 491/467/105 487/463/105 488/468/105
f 490/466/122 485/463/122 492/469/122
f 492/469/122 485/463/122 487/465/122
f 493/470/131 494/471/131 495/472/131
f 495/472/131 494/471/131 496/473/131
f 497/474/102 494/471/102 498/475/102
f 498/475/102 494/471/102 493/476/102
f 494/474/132 497/471/132 496/477/132
f 496/477/132 497/471/132 499/473/132
f 497/470/133 498/471/133 499/472/133
f 499/472/133 498/471/133 500/473/133
f 500/474/105 495/471/105 499/475/105
f 499/475/105 495/471/105 496/476/105
f 498/474/134 493/471/134 500/477/134
f 500/477/134 493/471/134 495/473/134
f 501/478/135 502/479/135 503/480/135
f 503/480/135 502/479/135 504/481/135
f 505/482/102 502/479/102 506/483/102
f 506/483/102 502/479/102 501/484/102
f 502/482/136 505/479/136 504/485/136
f 504/485/136 505/479/136 507/481/136
f 505/478/137 506/479/137 507/480/137
f 507/480/137 506/479/137 508/481/137
f 508/482/105 503/479/105 507/483/105
f 507/483/105 503/479/105 504/484/105
f 506/482/138 501/479/138 508/485/138
f 508/485/138 501/479/138 503/481/138
f 509/486/108 510/487/108 511/488/108
f 511/488/108 510/487/108 512/489/108
f 513/490/102 510/487/102 514/491/102
f 514/491/102 510/487/102 509/492/102
f 510/490/109 513/487/109 512/493/109
f 512/493/109 513/487/109 515/489/109
f 513/486/110 514/487/110 515/488/110
f 515/488/110 514/487/110 516/489/110
f 516/490/105 511/487/105 515/491/105
f 515/491/105 511/487/105 512/492/105
f 514/490/107 509/487/107 516/493/107
f 516/493/107 509/487/107 511/489/107
f 517/494/115 518/495/115 519/496/115
f 519/496/115 518/495/115 520/497/115
f 521/498/102 518/495/102 522/499/102
f 522/499/102 518/495/102 517/500/102
f 518/498/116 521/495/116 520/501/116
f 520/501/116 521/495/116 523/497/116
f 521/494/117 522/495/117 523/496/117
f 523/496/117 522/495/117 524/497/117
f 524/498/105 519/495/105 523/499/105
f 523/499/105 519/495/105 520/500/105
f 522/498/118 517/495/118 524/501/118
f 524/501/118 517/495/118 519/497/118
usemtl c_c4281c
f 525/502/107 526/503/107 527/504/107
f 527/504/107 526/503/107 528/505/107
f 529/506/102 526/503/102 530/507/102
f 530/507/102 526/503/102 525/508/102
f 526/506/108 529/503/108 528/509/108
f 528/509/108 529/503/108 531/505/108
f 529/502/109 530/503/109 531/504/109
f 531/504/109 530/503/109 532/505/109
f 532/506/105 527/503/105 531/507/105
f 531/507/105 527/503/105 528/508/105
f 530/506/110 525/503/110 532/509/110
f 532/509/110 525/503/110 527/505/110
