# Roblox asset pack: postman_kepi (accessories). Original 19th-century French postman's kepi (navy, red band, black visor, brass horn badge). Built by tools/make_service_caps.py. Units: studs (1 stud = 1 unit). +Y up. Pivot (HatAttachment) at the origin. Front = -Z.
mtllib postman_kepi.mtl

v 0.66000 -0.04000 0.00000
v 0.65682 -0.04000 0.06728
v 0.64732 -0.04000 0.13391
v 0.63158 -0.04000 0.19925
v 0.60976 -0.04000 0.26267
v 0.58207 -0.04000 0.32357
v 0.54877 -0.04000 0.38134
v 0.51019 -0.04000 0.43545
v 0.46669 -0.04000 0.48536
v 0.41870 -0.04000 0.53059
v 0.36668 -0.04000 0.57072
v 0.31112 -0.04000 0.60535
v 0.25257 -0.04000 0.63415
v 0.19159 -0.04000 0.65684
v 0.12876 -0.04000 0.67321
v 0.06469 -0.04000 0.68309
v 0.00000 -0.04000 0.68640
v -0.06469 -0.04000 0.68309
v -0.12876 -0.04000 0.67321
v -0.19159 -0.04000 0.65684
v -0.25257 -0.04000 0.63415
v -0.31112 -0.04000 0.60535
v -0.36668 -0.04000 0.57072
v -0.41870 -0.04000 0.53059
v -0.46669 -0.04000 0.48536
v -0.51019 -0.04000 0.43545
v -0.54877 -0.04000 0.38134
v -0.58207 -0.04000 0.32357
v -0.60976 -0.04000 0.26267
v -0.63158 -0.04000 0.19925
v -0.64732 -0.04000 0.13391
v -0.65682 -0.04000 0.06728
v -0.66000 -0.04000 0.00000
v -0.65682 -0.03610 -0.06728
v -0.64732 -0.02906 -0.13391
v -0.63158 -0.02020 -0.19925
v -0.60976 -0.01014 -0.26267
v -0.58207 0.00064 -0.32357
v -0.54877 0.01173 -0.38134
v -0.51019 0.02277 -0.43545
v -0.46669 0.03344 -0.48536
v -0.41870 0.04346 -0.53059
v -0.36668 0.05260 -0.57072
v -0.31112 0.06065 -0.60535
v -0.25257 0.06745 -0.63415
v -0.19159 0.07287 -0.65684
v -0.12876 0.07681 -0.67321
v -0.06469 0.07920 -0.68309
v -0.00000 0.08000 -0.68640
v 0.06469 0.07920 -0.68309
v 0.12876 0.07681 -0.67321
v 0.19159 0.07287 -0.65684
v 0.25257 0.06745 -0.63415
v 0.31112 0.06065 -0.60535
v 0.36668 0.05260 -0.57072
v 0.41870 0.04346 -0.53059
v 0.46669 0.03344 -0.48536
v 0.51019 0.02277 -0.43545
v 0.54877 0.01173 -0.38134
v 0.58207 0.00064 -0.32357
v 0.60976 -0.01014 -0.26267
v 0.63158 -0.02020 -0.19925
v 0.64732 -0.02906 -0.13391
v 0.65682 -0.03610 -0.06728
v 0.65500 0.14000 0.00000
v 0.65185 0.14000 0.06677
v 0.64241 0.14000 0.13290
v 0.62680 0.14000 0.19774
v 0.60514 0.14000 0.26068
v 0.57766 0.14000 0.32112
v 0.54461 0.14000 0.37845
v 0.50632 0.14000 0.43215
v 0.46315 0.14000 0.48168
v 0.41553 0.14000 0.52657
v 0.36390 0.14000 0.56640
v 0.30876 0.14000 0.60076
v 0.25066 0.14000 0.62935
v 0.19014 0.14000 0.65187
v 0.12778 0.14000 0.66811
v 0.06420 0.14000 0.67792
v 0.00000 0.14000 0.68120
v -0.06420 0.14000 0.67792
v -0.12778 0.14000 0.66811
v -0.19014 0.14000 0.65187
v -0.25066 0.14000 0.62935
v -0.30876 0.14000 0.60076
v -0.36390 0.14000 0.56640
v -0.41553 0.14000 0.52657
v -0.46315 0.14000 0.48168
v -0.50632 0.14000 0.43215
v -0.54461 0.14000 0.37845
v -0.57766 0.14000 0.32112
v -0.60514 0.14000 0.26068
v -0.62680 0.14000 0.19774
v -0.64241 0.14000 0.13290
v -0.65185 0.14000 0.06677
v -0.65500 0.14000 0.00000
v -0.65185 0.14000 -0.06677
v -0.64241 0.14000 -0.13290
v -0.62680 0.14000 -0.19774
v -0.60514 0.14986 -0.26068
v -0.57766 0.16064 -0.32112
v -0.54461 0.17173 -0.37845
v -0.50632 0.18277 -0.43215
v -0.46315 0.19344 -0.48168
v -0.41553 0.20346 -0.52657
v -0.36390 0.21260 -0.56640
v -0.30876 0.22065 -0.60076
v -0.25066 0.22745 -0.62935
v -0.19014 0.23287 -0.65187
v -0.12778 0.23681 -0.66811
v -0.06420 0.23920 -0.67792
v -0.00000 0.24000 -0.68120
v 0.06420 0.23920 -0.67792
v 0.12778 0.23681 -0.66811
v 0.19014 0.23287 -0.65187
v 0.25066 0.22745 -0.62935
v 0.30876 0.22065 -0.60076
v 0.36390 0.21260 -0.56640
v 0.41553 0.20346 -0.52657
v 0.46315 0.19344 -0.48168
v 0.50632 0.18277 -0.43215
v 0.54461 0.17173 -0.37845
v 0.57766 0.16064 -0.32112
v 0.60514 0.14986 -0.26068
v 0.62680 0.14000 -0.19774
v 0.64241 0.14000 -0.13290
v 0.65185 0.14000 -0.06677
v 0.63000 0.40000 0.00000
v 0.62697 0.40000 0.06422
v 0.61789 0.40000 0.12782
v 0.60287 0.40000 0.19019
v 0.58204 0.40000 0.25073
v 0.55561 0.40000 0.30886
v 0.52383 0.40000 0.36401
v 0.48700 0.40000 0.41565
v 0.44548 0.40000 0.46330
v 0.39967 0.40000 0.50648
v 0.35001 0.40000 0.54478
v 0.29698 0.40000 0.57783
v 0.24109 0.40000 0.60533
v 0.18288 0.40000 0.62699
v 0.12291 0.40000 0.64261
v 0.06175 0.40000 0.65205
v 0.00000 0.40000 0.65520
v -0.06175 0.40000 0.65205
v -0.12291 0.40000 0.64261
v -0.18288 0.40000 0.62699
v -0.24109 0.40000 0.60533
v -0.29698 0.40000 0.57783
v -0.35001 0.40000 0.54478
v -0.39967 0.40000 0.50648
v -0.44548 0.40000 0.46330
v -0.48700 0.40000 0.41565
v -0.52383 0.40000 0.36401
v -0.55561 0.40000 0.30886
v -0.58204 0.40000 0.25073
v -0.60287 0.40000 0.19019
v -0.61789 0.40000 0.12782
v -0.62697 0.40000 0.06422
v -0.63000 0.40000 0.00000
v -0.62697 0.40000 -0.06422
v -0.61789 0.40000 -0.12782
v -0.60287 0.40000 -0.19019
v -0.58204 0.40000 -0.25073
v -0.55561 0.40000 -0.30886
v -0.52383 0.40000 -0.36401
v -0.48700 0.40000 -0.41565
v -0.44548 0.40000 -0.46330
v -0.39967 0.40000 -0.50648
v -0.35001 0.40000 -0.54478
v -0.29698 0.40000 -0.57783
v -0.24109 0.40000 -0.60533
v -0.18288 0.40000 -0.62699
v -0.12291 0.40000 -0.64261
v -0.06175 0.40000 -0.65205
v -0.00000 0.40000 -0.65520
v 0.06175 0.40000 -0.65205
v 0.12291 0.40000 -0.64261
v 0.18288 0.40000 -0.62699
v 0.24109 0.40000 -0.60533
v 0.29698 0.40000 -0.57783
v 0.35001 0.40000 -0.54478
v 0.39967 0.40000 -0.50648
v 0.44548 0.40000 -0.46330
v 0.48700 0.40000 -0.41565
v 0.52383 0.40000 -0.36401
v 0.55561 0.40000 -0.30886
v 0.58204 0.40000 -0.25073
v 0.60287 0.40000 -0.19019
v 0.61789 0.40000 -0.12782
v 0.62697 0.40000 -0.06422
v 0.61000 0.56000 0.00000
v 0.60706 0.56000 0.06218
v 0.59828 0.56000 0.12377
v 0.58373 0.56000 0.18416
v 0.56357 0.56000 0.24277
v 0.53797 0.56000 0.29905
v 0.50720 0.56000 0.35245
v 0.47154 0.56000 0.40246
v 0.43134 0.56000 0.44859
v 0.38698 0.56000 0.49040
v 0.33890 0.56000 0.52748
v 0.28755 0.56000 0.55949
v 0.23344 0.56000 0.58611
v 0.17707 0.56000 0.60708
v 0.11901 0.56000 0.62221
v 0.05979 0.56000 0.63135
v 0.00000 0.56000 0.63440
v -0.05979 0.56000 0.63135
v -0.11901 0.56000 0.62221
v -0.17707 0.56000 0.60708
v -0.23344 0.56000 0.58611
v -0.28755 0.56000 0.55949
v -0.33890 0.56000 0.52748
v -0.38698 0.56000 0.49040
v -0.43134 0.56000 0.44859
v -0.47154 0.56000 0.40246
v -0.50720 0.56000 0.35245
v -0.53797 0.56000 0.29905
v -0.56357 0.56000 0.24277
v -0.58373 0.56000 0.18416
v -0.59828 0.56000 0.12377
v -0.60706 0.56000 0.06218
v -0.61000 0.56000 0.00000
v -0.60706 0.56000 -0.06218
v -0.59828 0.56000 -0.12377
v -0.58373 0.56000 -0.18416
v -0.56357 0.56000 -0.24277
v -0.53797 0.56000 -0.29905
v -0.50720 0.56000 -0.35245
v -0.47154 0.56000 -0.40246
v -0.43134 0.56000 -0.44859
v -0.38698 0.56000 -0.49040
v -0.33890 0.56000 -0.52748
v -0.28755 0.56000 -0.55949
v -0.23344 0.56000 -0.58611
v -0.17707 0.56000 -0.60708
v -0.11901 0.56000 -0.62221
v -0.05979 0.56000 -0.63135
v -0.00000 0.56000 -0.63440
v 0.05979 0.56000 -0.63135
v 0.11901 0.56000 -0.62221
v 0.17707 0.56000 -0.60708
v 0.23344 0.56000 -0.58611
v 0.28755 0.56000 -0.55949
v 0.33890 0.56000 -0.52748
v 0.38698 0.56000 -0.49040
v 0.43134 0.56000 -0.44859
v 0.47154 0.56000 -0.40246
v 0.50720 0.56000 -0.35245
v 0.53797 0.56000 -0.29905
v 0.56357 0.56000 -0.24277
v 0.58373 0.56000 -0.18416
v 0.59828 0.56000 -0.12377
v 0.60706 0.56000 -0.06218
v 0.59000 0.60000 0.00000
v 0.58716 0.60000 0.06014
v 0.57866 0.60000 0.11971
v 0.56459 0.60000 0.17812
v 0.54509 0.60000 0.23481
v 0.52033 0.60000 0.28925
v 0.49057 0.60000 0.34090
v 0.45608 0.60000 0.38926
v 0.41719 0.60000 0.43388
v 0.37429 0.60000 0.47432
v 0.32779 0.60000 0.51019
v 0.27812 0.60000 0.54115
v 0.22578 0.60000 0.56689
v 0.17127 0.60000 0.58718
v 0.11510 0.60000 0.60181
v 0.05783 0.60000 0.61065
v 0.00000 0.60000 0.61360
v -0.05783 0.60000 0.61065
v -0.11510 0.60000 0.60181
v -0.17127 0.60000 0.58718
v -0.22578 0.60000 0.56689
v -0.27812 0.60000 0.54115
v -0.32779 0.60000 0.51019
v -0.37429 0.60000 0.47432
v -0.41719 0.60000 0.43388
v -0.45608 0.60000 0.38926
v -0.49057 0.60000 0.34090
v -0.52033 0.60000 0.28925
v -0.54509 0.60000 0.23481
v -0.56459 0.60000 0.17812
v -0.57866 0.60000 0.11971
v -0.58716 0.60000 0.06014
v -0.59000 0.60000 0.00000
v -0.58716 0.60000 -0.06014
v -0.57866 0.60000 -0.11971
v -0.56459 0.60000 -0.17812
v -0.54509 0.60000 -0.23481
v -0.52033 0.60000 -0.28925
v -0.49057 0.60000 -0.34090
v -0.45608 0.60000 -0.38926
v -0.41719 0.60000 -0.43388
v -0.37429 0.60000 -0.47432
v -0.32779 0.60000 -0.51019
v -0.27812 0.60000 -0.54115
v -0.22578 0.60000 -0.56689
v -0.17127 0.60000 -0.58718
v -0.11510 0.60000 -0.60181
v -0.05783 0.60000 -0.61065
v -0.00000 0.60000 -0.61360
v 0.05783 0.60000 -0.61065
v 0.11510 0.60000 -0.60181
v 0.17127 0.60000 -0.58718
v 0.22578 0.60000 -0.56689
v 0.27812 0.60000 -0.54115
v 0.32779 0.60000 -0.51019
v 0.37429 0.60000 -0.47432
v 0.41719 0.60000 -0.43388
v 0.45608 0.60000 -0.38926
v 0.49057 0.60000 -0.34090
v 0.52033 0.60000 -0.28925
v 0.54509 0.60000 -0.23481
v 0.56459 0.60000 -0.17812
v 0.57866 0.60000 -0.11971
v 0.58716 0.60000 -0.06014
v 0.00000 0.61000 0.00000
v 0.67320 -0.03000 0.00000
v 0.66996 -0.03000 0.06862
v 0.66026 -0.03000 0.13659
v 0.64421 -0.03000 0.20324
v 0.62196 -0.03000 0.26793
v 0.59371 -0.03000 0.33004
v 0.55975 -0.03000 0.38897
v 0.52039 -0.03000 0.44416
v 0.47602 -0.03000 0.49507
v 0.42707 -0.03000 0.54121
v 0.37401 -0.03000 0.58214
v 0.31734 -0.03000 0.61746
v 0.25762 -0.03000 0.64683
v 0.19542 -0.03000 0.66998
v 0.13133 -0.03000 0.68668
v 0.06599 -0.03000 0.69676
v 0.00000 -0.03000 0.70013
v -0.06599 -0.03000 0.69676
v -0.13133 -0.03000 0.68668
v -0.19542 -0.03000 0.66998
v -0.25762 -0.03000 0.64683
v -0.31734 -0.03000 0.61746
v -0.37401 -0.03000 0.58214
v -0.42707 -0.03000 0.54121
v -0.47602 -0.03000 0.49507
v -0.52039 -0.03000 0.44416
v -0.55975 -0.03000 0.38897
v -0.59371 -0.03000 0.33004
v -0.62196 -0.03000 0.26793
v -0.64421 -0.03000 0.20324
v -0.66026 -0.03000 0.13659
v -0.66996 -0.03000 0.06862
v -0.67320 -0.03000 0.00000
v -0.66996 -0.02610 -0.06862
v -0.66026 -0.01906 -0.13659
v -0.64421 -0.01020 -0.20324
v -0.62196 -0.00014 -0.26793
v -0.59371 0.01064 -0.33004
v -0.55975 0.02173 -0.38897
v -0.52039 0.03277 -0.44416
v -0.47602 0.04344 -0.49507
v -0.42707 0.05346 -0.54121
v -0.37401 0.06260 -0.58214
v -0.31734 0.07065 -0.61746
v -0.25762 0.07745 -0.64683
v -0.19542 0.08287 -0.66998
v -0.13133 0.08681 -0.68668
v -0.06599 0.08920 -0.69676
v -0.00000 0.09000 -0.70013
v 0.06599 0.08920 -0.69676
v 0.13133 0.08681 -0.68668
v 0.19542 0.08287 -0.66998
v 0.25762 0.07745 -0.64683
v 0.31734 0.07065 -0.61746
v 0.37401 0.06260 -0.58214
v 0.42707 0.05346 -0.54121
v 0.47602 0.04344 -0.49507
v 0.52039 0.03277 -0.44416
v 0.55975 0.02173 -0.38897
v 0.59371 0.01064 -0.33004
v 0.62196 -0.00014 -0.26793
v 0.64421 -0.01020 -0.20324
v 0.66026 -0.01906 -0.13659
v 0.66996 -0.02610 -0.06862
v 0.67320 0.16000 0.00000
v 0.66996 0.16000 0.06862
v 0.66026 0.16000 0.13659
v 0.64421 0.16000 0.20324
v 0.62196 0.16000 0.26793
v 0.59371 0.16000 0.33004
v 0.55975 0.16000 0.38897
v 0.52039 0.16000 0.44416
v 0.47602 0.16000 0.49507
v 0.42707 0.16000 0.54121
v 0.37401 0.16000 0.58214
v 0.31734 0.16000 0.61746
v 0.25762 0.16000 0.64683
v 0.19542 0.16000 0.66998
v 0.13133 0.16000 0.68668
v 0.06599 0.16000 0.69676
v 0.00000 0.16000 0.70013
v -0.06599 0.16000 0.69676
v -0.13133 0.16000 0.68668
v -0.19542 0.16000 0.66998
v -0.25762 0.16000 0.64683
v -0.31734 0.16000 0.61746
v -0.37401 0.16000 0.58214
v -0.42707 0.16000 0.54121
v -0.47602 0.16000 0.49507
v -0.52039 0.16000 0.44416
v -0.55975 0.16000 0.38897
v -0.59371 0.16000 0.33004
v -0.62196 0.16000 0.26793
v -0.64421 0.16000 0.20324
v -0.66026 0.16000 0.13659
v -0.66996 0.16000 0.06862
v -0.67320 0.16000 0.00000
v -0.66996 0.16000 -0.06862
v -0.66026 0.16000 -0.13659
v -0.64421 0.16000 -0.20324
v -0.62196 0.16000 -0.26793
v -0.59371 0.16000 -0.33004
v -0.55975 0.16000 -0.38897
v -0.52039 0.16000 -0.44416
v -0.47602 0.16000 -0.49507
v -0.42707 0.16000 -0.54121
v -0.37401 0.16000 -0.58214
v -0.31734 0.16000 -0.61746
v -0.25762 0.16000 -0.64683
v -0.19542 0.16000 -0.66998
v -0.13133 0.16000 -0.68668
v -0.06599 0.16000 -0.69676
v -0.00000 0.16000 -0.70013
v 0.06599 0.16000 -0.69676
v 0.13133 0.16000 -0.68668
v 0.19542 0.16000 -0.66998
v 0.25762 0.16000 -0.64683
v 0.31734 0.16000 -0.61746
v 0.37401 0.16000 -0.58214
v 0.42707 0.16000 -0.54121
v 0.47602 0.16000 -0.49507
v 0.52039 0.16000 -0.44416
v 0.55975 0.16000 -0.38897
v 0.59371 0.16000 -0.33004
v 0.62196 0.16000 -0.26793
v 0.64421 0.16000 -0.20324
v 0.66026 0.16000 -0.13659
v 0.66996 0.16000 -0.06862
v 0.66310 0.16000 0.00000
v 0.65991 0.16000 0.06760
v 0.65036 0.16000 0.13454
v 0.63455 0.16000 0.20019
v 0.61263 0.16000 0.26391
v 0.58480 0.16000 0.32509
v 0.55135 0.16000 0.38314
v 0.51258 0.16000 0.43749
v 0.46888 0.16000 0.48764
v 0.42067 0.16000 0.53309
v 0.36840 0.16000 0.57340
v 0.31258 0.16000 0.60820
v 0.25376 0.16000 0.63713
v 0.19249 0.16000 0.65993
v 0.12936 0.16000 0.67638
v 0.06500 0.16000 0.68631
v 0.00000 0.16000 0.68963
v -0.06500 0.16000 0.68631
v -0.12936 0.16000 0.67638
v -0.19249 0.16000 0.65993
v -0.25376 0.16000 0.63713
v -0.31258 0.16000 0.60820
v -0.36840 0.16000 0.57340
v -0.42067 0.16000 0.53309
v -0.46888 0.16000 0.48764
v -0.51258 0.16000 0.43749
v -0.55135 0.16000 0.38314
v -0.58480 0.16000 0.32509
v -0.61263 0.16000 0.26391
v -0.63455 0.16000 0.20019
v -0.65036 0.16000 0.13454
v -0.65991 0.16000 0.06760
v -0.66310 0.16000 0.00000
v -0.65991 0.16000 -0.06760
v -0.65036 0.16000 -0.13454
v -0.63455 0.16000 -0.20019
v -0.61263 0.16000 -0.26391
v -0.58480 0.16000 -0.32509
v -0.55135 0.16000 -0.38314
v -0.51258 0.16000 -0.43749
v -0.46888 0.16000 -0.48764
v -0.42067 0.16000 -0.53309
v -0.36840 0.16000 -0.57340
v -0.31258 0.16000 -0.60820
v -0.25376 0.16000 -0.63713
v -0.19249 0.16000 -0.65993
v -0.12936 0.16000 -0.67638
v -0.06500 0.16000 -0.68631
v -0.00000 0.16000 -0.68963
v 0.06500 0.16000 -0.68631
v 0.12936 0.16000 -0.67638
v 0.19249 0.16000 -0.65993
v 0.25376 0.16000 -0.63713
v 0.31258 0.16000 -0.60820
v 0.36840 0.16000 -0.57340
v 0.42067 0.16000 -0.53309
v 0.46888 0.16000 -0.48764
v 0.51258 0.16000 -0.43749
v 0.55135 0.16000 -0.38314
v 0.58480 0.16000 -0.32509
v 0.61263 0.16000 -0.26391
v 0.63455 0.16000 -0.20019
v 0.65036 0.16000 -0.13454
v 0.65991 0.16000 -0.06760
v 0.60900 0.57500 0.00000
v 0.60607 0.57500 0.06208
v 0.59730 0.57500 0.12356
v 0.58278 0.57500 0.18385
v 0.56264 0.57500 0.24238
v 0.53709 0.57500 0.29856
v 0.50636 0.57500 0.35188
v 0.47076 0.57500 0.40180
v 0.43063 0.57500 0.44785
v 0.38635 0.57500 0.48959
v 0.33834 0.57500 0.52662
v 0.28708 0.57500 0.55857
v 0.23305 0.57500 0.58515
v 0.17678 0.57500 0.60609
v 0.11881 0.57500 0.62119
v 0.05969 0.57500 0.63031
v 0.00000 0.57500 0.63336
v -0.05969 0.57500 0.63031
v -0.11881 0.57500 0.62119
v -0.17678 0.57500 0.60609
v -0.23305 0.57500 0.58515
v -0.28708 0.57500 0.55857
v -0.33834 0.57500 0.52662
v -0.38635 0.57500 0.48959
v -0.43063 0.57500 0.44785
v -0.47076 0.57500 0.40180
v -0.50636 0.57500 0.35188
v -0.53709 0.57500 0.29856
v -0.56264 0.57500 0.24238
v -0.58278 0.57500 0.18385
v -0.59730 0.57500 0.12356
v -0.60607 0.57500 0.06208
v -0.60900 0.57500 0.00000
v -0.60607 0.57500 -0.06208
v -0.59730 0.57500 -0.12356
v -0.58278 0.57500 -0.18385
v -0.56264 0.57500 -0.24238
v -0.53709 0.57500 -0.29856
v -0.50636 0.57500 -0.35188
v -0.47076 0.57500 -0.40180
v -0.43063 0.57500 -0.44785
v -0.38635 0.57500 -0.48959
v -0.33834 0.57500 -0.52662
v -0.28708 0.57500 -0.55857
v -0.23305 0.57500 -0.58515
v -0.17678 0.57500 -0.60609
v -0.11881 0.57500 -0.62119
v -0.05969 0.57500 -0.63031
v -0.00000 0.57500 -0.63336
v 0.05969 0.57500 -0.63031
v 0.11881 0.57500 -0.62119
v 0.17678 0.57500 -0.60609
v 0.23305 0.57500 -0.58515
v 0.28708 0.57500 -0.55857
v 0.33834 0.57500 -0.52662
v 0.38635 0.57500 -0.48959
v 0.43063 0.57500 -0.44785
v 0.47076 0.57500 -0.40180
v 0.50636 0.57500 -0.35188
v 0.53709 0.57500 -0.29856
v 0.56264 0.57500 -0.24238
v 0.58278 0.57500 -0.18385
v 0.59730 0.57500 -0.12356
v 0.60607 0.57500 -0.06208
v 0.60900 0.60500 0.00000
v 0.60607 0.60500 0.06208
v 0.59730 0.60500 0.12356
v 0.58278 0.60500 0.18385
v 0.56264 0.60500 0.24238
v 0.53709 0.60500 0.29856
v 0.50636 0.60500 0.35188
v 0.47076 0.60500 0.40180
v 0.43063 0.60500 0.44785
v 0.38635 0.60500 0.48959
v 0.33834 0.60500 0.52662
v 0.28708 0.60500 0.55857
v 0.23305 0.60500 0.58515
v 0.17678 0.60500 0.60609
v 0.11881 0.60500 0.62119
v 0.05969 0.60500 0.63031
v 0.00000 0.60500 0.63336
v -0.05969 0.60500 0.63031
v -0.11881 0.60500 0.62119
v -0.17678 0.60500 0.60609
v -0.23305 0.60500 0.58515
v -0.28708 0.60500 0.55857
v -0.33834 0.60500 0.52662
v -0.38635 0.60500 0.48959
v -0.43063 0.60500 0.44785
v -0.47076 0.60500 0.40180
v -0.50636 0.60500 0.35188
v -0.53709 0.60500 0.29856
v -0.56264 0.60500 0.24238
v -0.58278 0.60500 0.18385
v -0.59730 0.60500 0.12356
v -0.60607 0.60500 0.06208
v -0.60900 0.60500 0.00000
v -0.60607 0.60500 -0.06208
v -0.59730 0.60500 -0.12356
v -0.58278 0.60500 -0.18385
v -0.56264 0.60500 -0.24238
v -0.53709 0.60500 -0.29856
v -0.50636 0.60500 -0.35188
v -0.47076 0.60500 -0.40180
v -0.43063 0.60500 -0.44785
v -0.38635 0.60500 -0.48959
v -0.33834 0.60500 -0.52662
v -0.28708 0.60500 -0.55857
v -0.23305 0.60500 -0.58515
v -0.17678 0.60500 -0.60609
v -0.11881 0.60500 -0.62119
v -0.05969 0.60500 -0.63031
v -0.00000 0.60500 -0.63336
v 0.05969 0.60500 -0.63031
v 0.11881 0.60500 -0.62119
v 0.17678 0.60500 -0.60609
v 0.23305 0.60500 -0.58515
v 0.28708 0.60500 -0.55857
v 0.33834 0.60500 -0.52662
v 0.38635 0.60500 -0.48959
v 0.43063 0.60500 -0.44785
v 0.47076 0.60500 -0.40180
v 0.50636 0.60500 -0.35188
v 0.53709 0.60500 -0.29856
v 0.56264 0.60500 -0.24238
v 0.58278 0.60500 -0.18385
v 0.59730 0.60500 -0.12356
v 0.60607 0.60500 -0.06208
v -0.60751 0.14000 -0.28130
v -0.57879 0.14000 -0.34056
v -0.54474 0.14000 -0.39669
v -0.50567 0.14000 -0.44916
v -0.46195 0.14000 -0.49750
v -0.41397 0.14000 -0.54125
v -0.36218 0.14000 -0.58002
v -0.30706 0.14000 -0.61346
v -0.24911 0.14000 -0.64124
v -0.18887 0.14000 -0.66312
v -0.12689 0.14000 -0.67889
v -0.06374 0.14000 -0.68842
v 0.00000 0.14000 -0.69160
v 0.06374 0.14000 -0.68842
v 0.12689 0.14000 -0.67889
v 0.18887 0.14000 -0.66312
v 0.24911 0.14000 -0.64124
v 0.30706 0.14000 -0.61346
v 0.36218 0.14000 -0.58002
v 0.41397 0.14000 -0.54125
v 0.46195 0.14000 -0.49750
v 0.50567 0.14000 -0.44916
v 0.54474 0.14000 -0.39669
v 0.57879 0.14000 -0.34056
v 0.60751 0.14000 -0.28130
v -0.68516 0.09000 -0.31725
v -0.66458 0.09000 -0.39104
v -0.63564 0.09000 -0.46288
v -0.59858 0.09000 -0.53169
v -0.55380 0.09000 -0.59641
v -0.50179 0.09000 -0.65608
v -0.44320 0.09000 -0.70977
v -0.37875 0.09000 -0.75667
v -0.30926 0.09000 -0.79606
v -0.23564 0.09000 -0.82734
v -0.15887 0.09000 -0.85003
v -0.07997 0.09000 -0.86379
v 0.00000 0.09000 -0.86840
v 0.07997 0.09000 -0.86379
v 0.15887 0.09000 -0.85003
v 0.23564 0.09000 -0.82734
v 0.30926 0.09000 -0.79606
v 0.37875 0.09000 -0.75667
v 0.44320 0.09000 -0.70977
v 0.50179 0.09000 -0.65608
v 0.55380 0.09000 -0.59641
v 0.59858 0.09000 -0.53169
v 0.63564 0.09000 -0.46288
v 0.66458 0.09000 -0.39104
v 0.68516 0.09000 -0.31725
v -0.76281 0.04000 -0.35321
v -0.75038 0.04000 -0.44153
v -0.72654 0.04000 -0.52908
v -0.69149 0.04000 -0.61422
v -0.64565 0.04000 -0.69533
v -0.58962 0.04000 -0.77090
v -0.52422 0.04000 -0.83951
v -0.45043 0.04000 -0.89988
v -0.36940 0.04000 -0.95088
v -0.28242 0.04000 -0.99156
v -0.19086 0.04000 -1.02118
v -0.09621 0.04000 -1.03917
v 0.00000 0.04000 -1.04520
v 0.09621 0.04000 -1.03917
v 0.19086 0.04000 -1.02118
v 0.28242 0.04000 -0.99156
v 0.36940 0.04000 -0.95088
v 0.45043 0.04000 -0.89988
v 0.52422 0.04000 -0.83951
v 0.58962 0.04000 -0.77090
v 0.64565 0.04000 -0.69533
v 0.69149 0.04000 -0.61422
v 0.72654 0.04000 -0.52908
v 0.75038 0.04000 -0.44153
v 0.76281 0.04000 -0.35321
v -0.76281 0.01000 -0.35321
v -0.75038 0.01000 -0.44153
v -0.72654 0.01000 -0.52908
v -0.69149 0.01000 -0.61422
v -0.64565 0.01000 -0.69533
v -0.58962 0.01000 -0.77090
v -0.52422 0.01000 -0.83951
v -0.45043 0.01000 -0.89988
v -0.36940 0.01000 -0.95088
v -0.28242 0.01000 -0.99156
v -0.19086 0.01000 -1.02118
v -0.09621 0.01000 -1.03917
v 0.00000 0.01000 -1.04520
v 0.09621 0.01000 -1.03917
v 0.19086 0.01000 -1.02118
v 0.28242 0.01000 -0.99156
v 0.36940 0.01000 -0.95088
v 0.45043 0.01000 -0.89988
v 0.52422 0.01000 -0.83951
v 0.58962 0.01000 -0.77090
v 0.64565 0.01000 -0.69533
v 0.69149 0.01000 -0.61422
v 0.72654 0.01000 -0.52908
v 0.75038 0.01000 -0.44153
v 0.76281 0.01000 -0.35321
v -0.68516 0.06000 -0.31725
v -0.66458 0.06000 -0.39104
v -0.63564 0.06000 -0.46288
v -0.59858 0.06000 -0.53169
v -0.55380 0.06000 -0.59641
v -0.50179 0.06000 -0.65608
v -0.44320 0.06000 -0.70977
v -0.37875 0.06000 -0.75667
v -0.30926 0.06000 -0.79606
v -0.23564 0.06000 -0.82734
v -0.15887 0.06000 -0.85003
v -0.07997 0.06000 -0.86379
v 0.00000 0.06000 -0.86840
v 0.07997 0.06000 -0.86379
v 0.15887 0.06000 -0.85003
v 0.23564 0.06000 -0.82734
v 0.30926 0.06000 -0.79606
v 0.37875 0.06000 -0.75667
v 0.44320 0.06000 -0.70977
v 0.50179 0.06000 -0.65608
v 0.55380 0.06000 -0.59641
v 0.59858 0.06000 -0.53169
v 0.63564 0.06000 -0.46288
v 0.66458 0.06000 -0.39104
v 0.68516 0.06000 -0.31725
v -0.60751 0.11000 -0.28130
v -0.57879 0.11000 -0.34056
v -0.54474 0.11000 -0.39669
v -0.50567 0.11000 -0.44916
v -0.46195 0.11000 -0.49750
v -0.41397 0.11000 -0.54125
v -0.36218 0.11000 -0.58002
v -0.30706 0.11000 -0.61346
v -0.24911 0.11000 -0.64124
v -0.18887 0.11000 -0.66312
v -0.12689 0.11000 -0.67889
v -0.06374 0.11000 -0.68842
v 0.00000 0.11000 -0.69160
v 0.06374 0.11000 -0.68842
v 0.12689 0.11000 -0.67889
v 0.18887 0.11000 -0.66312
v 0.24911 0.11000 -0.64124
v 0.30706 0.11000 -0.61346
v 0.36218 0.11000 -0.58002
v 0.41397 0.11000 -0.54125
v 0.46195 0.11000 -0.49750
v 0.50567 0.11000 -0.44916
v 0.54474 0.11000 -0.39669
v 0.57879 0.11000 -0.34056
v 0.60751 0.11000 -0.28130
v -0.11000 0.33500 -0.72140
v -0.11000 0.33500 -0.69140
v -0.11000 0.38500 -0.72140
v -0.11000 0.38500 -0.69140
v 0.11000 0.33500 -0.72140
v 0.11000 0.33500 -0.69140
v 0.11000 0.38500 -0.72140
v 0.11000 0.38500 -0.69140
v -0.12500 0.26000 -0.72140
v -0.12500 0.26000 -0.69140
v -0.12500 0.38000 -0.72140
v -0.12500 0.38000 -0.69140
v -0.07500 0.26000 -0.72140
v -0.07500 0.26000 -0.69140
v -0.07500 0.38000 -0.72140
v -0.07500 0.38000 -0.69140
v 0.07500 0.26000 -0.72140
v 0.07500 0.26000 -0.69140
v 0.07500 0.38000 -0.72140
v 0.07500 0.38000 -0.69140
v 0.12500 0.26000 -0.72140
v 0.12500 0.26000 -0.69140
v 0.12500 0.38000 -0.72140
v 0.12500 0.38000 -0.69140
v -0.11000 0.25500 -0.72140
v -0.11000 0.25500 -0.69140
v -0.11000 0.30500 -0.72140
v -0.11000 0.30500 -0.69140
v 0.11000 0.25500 -0.72140
v 0.11000 0.25500 -0.69140
v 0.11000 0.30500 -0.72140
v 0.11000 0.30500 -0.69140
v 0.11000 0.31000 -0.72140
v 0.11000 0.31000 -0.69140
v 0.11000 0.41000 -0.72140
v 0.11000 0.41000 -0.69140
v 0.19000 0.31000 -0.72140
v 0.19000 0.31000 -0.69140
v 0.19000 0.41000 -0.72140
v 0.19000 0.41000 -0.69140
vn 0.99950 0.02796 -0.01489
vn 0.99652 0.02777 0.07864
vn 0.98465 0.02780 0.17234
vn 0.96392 0.02784 0.26475
vn 0.93440 0.02791 0.35512
vn 0.89622 0.02798 0.44272
vn 0.84954 0.02808 0.52677
vn 0.79460 0.02818 0.60648
vn 0.73172 0.02828 0.68102
vn 0.66131 0.02839 0.74957
vn 0.58390 0.02850 0.81133
vn 0.50013 0.02860 0.86548
vn 0.41078 0.02869 0.91128
vn 0.31673 0.02876 0.94808
vn 0.21899 0.02882 0.97530
vn 0.11867 0.02886 0.99251
vn 0.01693 0.02887 0.99944
vn -0.08501 0.02887 0.99596
vn -0.18593 0.02884 0.98214
vn -0.28465 0.02878 0.95820
vn -0.38004 0.02872 0.92452
vn -0.47105 0.02863 0.88164
vn -0.55677 0.02853 0.83018
vn -0.63637 0.02843 0.77086
vn -0.70916 0.02832 0.70448
vn -0.77460 0.02821 0.63183
vn -0.83221 0.02811 0.55374
vn -0.88166 0.02801 0.47105
vn -0.92269 0.02793 0.38454
vn -0.95509 0.02786 0.29500
vn -0.97874 0.02781 0.20319
vn -0.99356 0.02778 0.10983
vn -0.99948 0.02776 0.01620
vn -0.99664 0.02818 -0.07688
vn -0.98507 0.02919 -0.16964
vn -0.96475 0.03071 -0.26138
vn -0.93601 0.03138 -0.35058
vn -0.89839 0.03148 -0.43806
vn -0.85222 0.03158 -0.52224
vn -0.79768 0.03169 -0.60225
vn -0.73507 0.03181 -0.67725
vn -0.66478 0.03193 -0.74636
vn -0.58732 0.03206 -0.80872
vn -0.50333 0.03217 -0.86349
vn -0.41360 0.03227 -0.90989
vn -0.31902 0.03236 -0.94719
vn -0.22064 0.03242 -0.97482
vn -0.11959 0.03246 -0.99229
vn -0.01707 0.03248 -0.99933
vn 0.08566 0.03247 -0.99580
vn 0.18734 0.03244 -0.98176
vn 0.28674 0.03238 -0.95746
vn 0.38270 0.03230 -0.92331
vn 0.47415 0.03220 -0.87986
vn 0.56013 0.03209 -0.82778
vn 0.63984 0.03197 -0.76785
vn 0.71257 0.03185 -0.70088
vn 0.77778 0.03173 -0.62774
vn 0.83503 0.03161 -0.54930
vn 0.88401 0.03150 -0.46641
vn 0.92449 0.03141 -0.37992
vn 0.95631 0.03131 -0.29067
vn 0.97927 0.03013 -0.20029
vn 0.99375 0.02877 -0.10786
vn 0.99770 0.06777 -0.00247
vn 0.99349 0.06779 0.09160
vn 0.98039 0.06787 0.18499
vn 0.95847 0.06798 0.27698
vn 0.92779 0.06814 0.36683
vn 0.88847 0.06834 0.45381
vn 0.84071 0.06856 0.53713
vn 0.78473 0.06881 0.61600
vn 0.72089 0.06907 0.68960
vn 0.64960 0.06934 0.75711
vn 0.57140 0.06960 0.81771
vn 0.48697 0.06984 0.87062
vn 0.39708 0.07005 0.91511
vn 0.30265 0.07023 0.95051
vn 0.20468 0.07036 0.97630
vn 0.10430 0.07044 0.99205
vn 0.00267 0.07047 0.99751
vn -0.09899 0.07044 0.99259
vn -0.19947 0.07036 0.97737
vn -0.29759 0.07023 0.95211
vn -0.39224 0.07006 0.91719
vn -0.48239 0.06985 0.87317
vn -0.56713 0.06961 0.82068
vn -0.64566 0.06935 0.76047
vn -0.71733 0.06909 0.69330
vn -0.78158 0.06883 0.62000
vn -0.83797 0.06858 0.54139
vn -0.88618 0.06835 0.45828
vn -0.92594 0.06815 0.37147
vn -0.95708 0.06799 0.28175
vn -0.97946 0.06787 0.18985
vn -0.99302 0.06780 0.09652
vn -0.99768 0.06797 0.00284
vn -0.99350 0.06877 -0.09076
vn -0.98049 0.07009 -0.18364
vn -0.95964 0.07120 -0.27207
vn -0.93084 0.07251 -0.35816
vn -0.89242 0.07458 -0.44499
vn -0.84539 0.07690 -0.52859
vn -0.78994 0.07939 -0.60802
vn -0.72636 0.08199 -0.68241
vn -0.65501 0.08461 -0.75087
vn -0.57641 0.08718 -0.81250
vn -0.49122 0.08961 -0.86642
vn -0.40024 0.09180 -0.91180
vn -0.30444 0.09365 -0.94792
vn -0.20492 0.09509 -0.97415
vn -0.10287 0.09604 -0.99005
vn 0.00042 0.09647 -0.99534
vn 0.10361 0.09635 -0.98994
vn 0.20541 0.09569 -0.97399
vn 0.30455 0.09451 -0.94779
vn 0.39987 0.09289 -0.91185
vn 0.49032 0.09089 -0.86679
vn 0.57499 0.08859 -0.81335
vn 0.65313 0.08610 -0.75234
vn 0.72411 0.08351 -0.68462
vn 0.78745 0.08090 -0.61104
vn 0.84281 0.07835 -0.53248
vn 0.88991 0.07593 -0.44976
vn 0.92857 0.07371 -0.36377
vn 0.95796 0.07124 -0.27793
vn 0.97941 0.06923 -0.18963
vn 0.99301 0.06820 -0.09631
vn 0.99432 0.10637 0.00428
vn 0.98948 0.10642 0.09801
vn 0.97579 0.10653 0.19101
vn 0.95330 0.10672 0.28255
vn 0.92208 0.10697 0.37191
vn 0.88227 0.10728 0.45835
vn 0.83406 0.10764 0.54108
vn 0.77768 0.10803 0.61931
vn 0.71349 0.10843 0.69222
vn 0.64192 0.10885 0.75901
vn 0.56352 0.10924 0.81885
vn 0.47896 0.10962 0.87097
vn 0.38903 0.10994 0.91464
vn 0.29464 0.11021 0.94923
vn 0.19682 0.11042 0.97420
vn 0.09667 0.11054 0.98916
vn -0.00463 0.11058 0.99386
vn -0.10588 0.11053 0.98822
vn -0.20586 0.11040 0.97233
vn -0.30341 0.11019 0.94647
vn -0.39744 0.10992 0.91102
vn -0.48691 0.10958 0.86655
vn -0.57094 0.10921 0.81369
vn -0.64874 0.10881 0.75319
vn -0.71966 0.10840 0.68581
vn -0.78316 0.10799 0.61237
vn -0.83880 0.10760 0.53370
vn -0.88626 0.10725 0.45060
vn -0.92529 0.10695 0.36387
vn -0.95571 0.10670 0.27427
vn -0.97741 0.10652 0.18257
vn -0.99029 0.10641 0.08948
vn -0.99432 0.10637 -0.00428
vn -0.98948 0.10642 -0.09801
vn -0.97579 0.10653 -0.19101
vn -0.95417 0.10754 -0.27926
vn -0.92326 0.11048 -0.36795
vn -0.88378 0.11383 -0.45384
vn -0.83594 0.11748 -0.53611
vn -0.77996 0.12133 -0.61396
vn -0.71617 0.12527 -0.68659
vn -0.64498 0.12918 -0.75320
vn -0.56694 0.13294 -0.81296
vn -0.48267 0.13639 -0.86512
vn -0.39295 0.13940 -0.90893
vn -0.29868 0.14185 -0.94375
vn -0.20085 0.14361 -0.96904
vn -0.10057 0.14460 -0.98437
vn 0.00099 0.14478 -0.98946
vn 0.10262 0.14413 -0.98422
vn 0.20310 0.14269 -0.96871
vn 0.30122 0.14052 -0.94314
vn 0.39584 0.13773 -0.90793
vn 0.48593 0.13444 -0.86360
vn 0.57053 0.13078 -0.81080
vn 0.64883 0.12691 -0.75028
vn 0.72015 0.12295 -0.68284
vn 0.78394 0.11903 -0.60932
vn 0.83976 0.11527 -0.53058
vn 0.88729 0.11177 -0.44746
vn 0.92627 0.10864 -0.36086
vn 0.95571 0.10670 -0.27427
vn 0.97741 0.10652 -0.18257
vn 0.99029 0.10641 -0.08948
vn 0.98078 0.19488 0.00971
vn 0.97548 0.19496 0.10214
vn 0.96143 0.19518 0.19380
vn 0.93869 0.19552 0.28397
vn 0.90733 0.19597 0.37194
vn 0.86750 0.19653 0.45696
vn 0.81939 0.19717 0.53826
vn 0.76326 0.19786 0.61505
vn 0.69945 0.19859 0.68654
vn 0.62841 0.19932 0.75192
vn 0.55068 0.20003 0.81039
vn 0.46695 0.20069 0.86121
vn 0.37800 0.20127 0.90367
vn 0.28473 0.20174 0.93714
vn 0.18815 0.20209 0.96112
vn 0.08936 0.20230 0.97524
vn -0.01048 0.20236 0.97926
vn -0.11021 0.20227 0.97311
vn -0.20863 0.20203 0.95690
vn -0.30460 0.20165 0.93089
vn -0.39704 0.20115 0.89549
vn -0.48497 0.20056 0.85122
vn -0.56750 0.19989 0.79874
vn -0.64388 0.19917 0.73875
vn -0.71345 0.19844 0.67203
vn -0.77568 0.19771 0.59936
vn -0.83016 0.19703 0.52155
vn -0.87655 0.19641 0.43941
vn -0.91462 0.19587 0.35371
vn -0.94417 0.19544 0.26522
vn -0.96510 0.19512 0.17468
vn -0.97732 0.19493 0.08280
vn -0.98078 0.19488 -0.00971
vn -0.97548 0.19496 -0.10214
vn -0.96143 0.19518 -0.19380
vn -0.93869 0.19552 -0.28397
vn -0.90733 0.19597 -0.37194
vn -0.86750 0.19653 -0.45696
vn -0.81939 0.19717 -0.53826
vn -0.76326 0.19786 -0.61505
vn -0.69945 0.19859 -0.68654
vn -0.62841 0.19932 -0.75192
vn -0.55068 0.20003 -0.81039
vn -0.46695 0.20069 -0.86121
vn -0.37800 0.20127 -0.90367
vn -0.28473 0.20174 -0.93714
vn -0.18815 0.20209 -0.96112
vn -0.08936 0.20230 -0.97524
vn 0.01048 0.20236 -0.97926
vn 0.11021 0.20227 -0.97311
vn 0.20863 0.20203 -0.95690
vn 0.30460 0.20165 -0.93089
vn 0.39704 0.20115 -0.89549
vn 0.48497 0.20056 -0.85122
vn 0.56750 0.19989 -0.79874
vn 0.64388 0.19917 -0.73875
vn 0.71345 0.19844 -0.67203
vn 0.77568 0.19771 -0.59936
vn 0.83016 0.19703 -0.52155
vn 0.87655 0.19641 -0.43941
vn 0.91462 0.19587 -0.35371
vn 0.94417 0.19544 -0.26522
vn 0.96510 0.19512 -0.17468
vn 0.97732 0.19493 -0.08280
vn 0.11320 0.99357 0.00156
vn 0.11250 0.99358 0.01223
vn 0.11071 0.99359 0.02277
vn 0.10786 0.99362 0.03310
vn 0.10397 0.99365 0.04310
vn 0.09908 0.99368 0.05270
vn 0.09323 0.99373 0.06178
vn 0.08649 0.99377 0.07028
vn 0.07891 0.99382 0.07809
vn 0.07058 0.99386 0.08516
vn 0.06156 0.99391 0.09140
vn 0.05195 0.99395 0.09677
vn 0.04183 0.99399 0.10120
vn 0.03132 0.99401 0.10466
vn 0.02050 0.99404 0.10711
vn 0.00948 0.99405 0.10853
vn -0.00163 0.99405 0.10890
vn -0.01272 0.99405 0.10822
vn -0.02369 0.99403 0.10650
vn -0.03443 0.99401 0.10375
vn -0.04484 0.99398 0.10000
vn -0.05482 0.99394 0.09529
vn -0.06427 0.99390 0.08966
vn -0.07309 0.99385 0.08317
vn -0.08122 0.99380 0.07588
vn -0.08856 0.99376 0.06786
vn -0.09504 0.99371 0.05918
vn -0.10061 0.99367 0.04994
vn -0.10521 0.99364 0.04021
vn -0.10880 0.99361 0.03010
vn -0.11135 0.99359 0.01970
vn -0.11282 0.99357 0.00911
vn -0.11320 0.99357 -0.00156
vn -0.11250 0.99358 -0.01223
vn -0.11071 0.99359 -0.02277
vn -0.10786 0.99362 -0.03310
vn -0.10397 0.99365 -0.04310
vn -0.09908 0.99368 -0.05270
vn -0.09323 0.99373 -0.06178
vn -0.08649 0.99377 -0.07028
vn -0.07891 0.99382 -0.07809
vn -0.07058 0.99386 -0.08516
vn -0.06156 0.99391 -0.09140
vn -0.05195 0.99395 -0.09677
vn -0.04183 0.99399 -0.10120
vn -0.03132 0.99401 -0.10466
vn -0.02050 0.99404 -0.10711
vn -0.00948 0.99405 -0.10853
vn 0.00163 0.99405 -0.10890
vn 0.01272 0.99405 -0.10822
vn 0.02369 0.99403 -0.10650
vn 0.03443 0.99401 -0.10375
vn 0.04484 0.99398 -0.10000
vn 0.05482 0.99394 -0.09529
vn 0.06427 0.99390 -0.08966
vn 0.07309 0.99385 -0.08317
vn 0.08122 0.99380 -0.07588
vn 0.08856 0.99376 -0.06786
vn 0.09504 0.99371 -0.05918
vn 0.10061 0.99367 -0.04994
vn 0.10521 0.99364 -0.04021
vn 0.10880 0.99361 -0.03010
vn 0.11135 0.99359 -0.01970
vn 0.11282 0.99357 -0.00911
vn 0.00000 1.00000 0.00000
vn 0.99988 0.00000 -0.01553
vn 0.99691 0.00000 0.07859
vn 0.98504 0.00000 0.17233
vn 0.96431 0.00000 0.26477
vn 0.93480 0.00000 0.35518
vn 0.89661 0.00000 0.44282
vn 0.84992 0.00000 0.52691
vn 0.79497 0.00000 0.60665
vn 0.73207 0.00000 0.68123
vn 0.66164 0.00000 0.74982
vn 0.58420 0.00000 0.81161
vn 0.50041 0.00000 0.86579
vn 0.41102 0.00000 0.91162
vn 0.31694 0.00000 0.94844
vn 0.21917 0.00000 0.97569
vn 0.11881 0.00000 0.99292
vn 0.01703 0.00000 0.99986
vn -0.08495 0.00000 0.99638
vn -0.18592 0.00000 0.98256
vn -0.28469 0.00000 0.95862
vn -0.38012 0.00000 0.92494
vn -0.47117 0.00000 0.88204
vn -0.55692 0.00000 0.83056
vn -0.63656 0.00000 0.77123
vn -0.70939 0.00000 0.70482
vn -0.77485 0.00000 0.63214
vn -0.83250 0.00000 0.55403
vn -0.88197 0.00000 0.47130
vn -0.92302 0.00000 0.38476
vn -0.95544 0.00000 0.29519
vn -0.97911 0.00000 0.20335
vn -0.99394 0.00000 0.10996
vn -0.99988 0.00000 0.01574
vn -0.99692 0.00000 -0.07837
vn -0.98511 0.00000 -0.17193
vn -0.96445 0.00000 -0.26425
vn -0.93503 0.00000 -0.35457
vn -0.89694 0.00000 -0.44215
vn -0.85036 0.00000 -0.52620
vn -0.79552 0.00000 -0.60593
vn -0.73273 0.00000 -0.68052
vn -0.66239 0.00000 -0.74916
vn -0.58502 0.00000 -0.81102
vn -0.50125 0.00000 -0.86530
vn -0.41184 0.00000 -0.91125
vn -0.31768 0.00000 -0.94820
vn -0.21975 0.00000 -0.97556
vn -0.11918 0.00000 -0.99287
vn -0.01716 0.00000 -0.99985
vn 0.08508 0.00000 -0.99637
vn 0.18629 0.00000 -0.98249
vn 0.28525 0.00000 -0.95845
vn 0.38081 0.00000 -0.92465
vn 0.47194 0.00000 -0.88163
vn 0.55771 0.00000 -0.83004
vn 0.63731 0.00000 -0.77061
vn 0.71007 0.00000 -0.70413
vn 0.77544 0.00000 -0.63142
vn 0.83298 0.00000 -0.55330
vn 0.88235 0.00000 -0.47059
vn 0.92330 0.00000 -0.38409
vn 0.95563 0.00000 -0.29458
vn 0.97921 0.00000 -0.20283
vn 0.99398 0.00000 -0.10956
vn 0.99848 0.05280 0.01572
vn 0.99255 0.05283 0.10980
vn 0.97774 0.05289 0.20306
vn 0.95410 0.05299 0.29478
vn 0.92171 0.05312 0.38422
vn 0.88072 0.05328 0.47063
vn 0.83131 0.05346 0.55324
vn 0.77374 0.05365 0.63123
vn 0.70836 0.05386 0.70379
vn 0.63563 0.05406 0.77010
vn 0.55610 0.05426 0.82934
vn 0.47047 0.05445 0.88073
vn 0.37955 0.05461 0.92356
vn 0.28426 0.05474 0.95718
vn 0.18564 0.05484 0.98109
vn 0.08483 0.05489 0.99488
vn -0.01700 0.05491 0.99835
vn -0.11863 0.05488 0.99142
vn -0.21884 0.05481 0.97422
vn -0.31647 0.05470 0.94702
vn -0.41041 0.05456 0.91027
vn -0.49967 0.05439 0.86451
vn -0.58335 0.05420 0.81041
vn -0.66067 0.05399 0.74873
vn -0.73101 0.05379 0.68024
vn -0.79383 0.05359 0.60578
vn -0.84871 0.05339 0.52616
vn -0.89534 0.05322 0.44219
vn -0.93348 0.05307 0.35468
vn -0.96296 0.05295 0.26440
vn -0.98366 0.05286 0.17209
vn -0.99552 0.05281 0.07848
vn -0.99847 0.05316 -0.01550
vn -0.99250 0.05462 -0.10939
vn -0.97762 0.05705 -0.20250
vn -0.95389 0.06032 -0.29405
vn -0.92138 0.06443 -0.38329
vn -0.88023 0.06942 -0.46945
vn -0.83062 0.07536 -0.55172
vn -0.77281 0.08226 -0.62928
vn -0.70718 0.09014 -0.70126
vn -0.63418 0.09891 -0.76683
vn -0.55442 0.10837 -0.82515
vn -0.46864 0.11814 -0.87546
vn -0.37770 0.12764 -0.91709
vn -0.28259 0.13611 -0.94953
vn -0.18438 0.14266 -0.97245
vn -0.08417 0.14649 -0.98563
vn 0.01697 0.14707 -0.98898
vn 0.11794 0.14432 -0.98248
vn 0.21763 0.13863 -0.96614
vn 0.31495 0.13073 -0.94006
vn 0.40879 0.12149 -0.90450
vn 0.49811 0.11174 -0.85988
vn 0.58196 0.10213 -0.80678
vn 0.65951 0.09309 -0.74591
vn 0.73008 0.08489 -0.67806
vn 0.79312 0.07765 -0.60410
vn 0.84819 0.07138 -0.52485
vn 0.89498 0.06606 -0.44118
vn 0.93325 0.06164 -0.35390
vn 0.96283 0.05809 -0.26380
vn 0.98360 0.05536 -0.17166
vn 0.99549 0.05355 -0.07826
vn 0.00000 1.00000 0.00000
vn 0.00000 1.00000 0.00000
vn 0.00000 1.00000 0.00000
vn 0.00000 1.00000 0.00000
vn 0.00000 1.00000 0.00000
vn 0.00000 1.00000 0.00000
vn 0.00000 1.00000 0.00000
vn 0.00000 1.00000 0.00000
vn 0.00000 1.00000 0.00000
vn 0.00000 1.00000 0.00000
vn 0.00000 1.00000 0.00000
vn 0.00000 1.00000 0.00000
vn 0.00000 1.00000 0.00000
vn 0.00000 1.00000 0.00000
vn 0.00000 1.00000 0.00000
vn 0.00000 1.00000 0.00000
vn 0.00000 1.00000 0.00000
vn 0.00000 1.00000 0.00000
vn 0.00000 1.00000 0.00000
vn 0.00000 1.00000 0.00000
vn 0.00000 1.00000 0.00000
vn 0.00000 1.00000 0.00000
vn 0.00000 1.00000 0.00000
vn 0.00000 1.00000 0.00000
vn 0.00000 1.00000 0.00000
vn 0.00000 1.00000 0.00000
vn 0.00000 1.00000 0.00000
vn 0.00000 1.00000 0.00000
vn 0.00000 1.00000 0.00000
vn 0.00000 1.00000 0.00000
vn 0.00000 1.00000 0.00000
vn 0.00000 1.00000 0.00000
vn 0.00000 1.00000 0.00000
vn 0.00000 1.00000 0.00000
vn 0.00000 1.00000 0.00000
vn 0.00000 1.00000 0.00000
vn 0.00000 1.00000 0.00000
vn 0.00000 1.00000 0.00000
vn 0.00000 1.00000 0.00000
vn 0.00000 1.00000 0.00000
vn 0.00000 1.00000 0.00000
vn 0.00000 1.00000 0.00000
vn 0.00000 1.00000 0.00000
vn 0.00000 1.00000 0.00000
vn 0.00000 1.00000 0.00000
vn 0.00000 1.00000 0.00000
vn 0.00000 1.00000 0.00000
vn 0.00000 1.00000 0.00000
vn 0.00000 1.00000 0.00000
vn 0.00000 1.00000 0.00000
vn 0.00000 1.00000 0.00000
vn 0.00000 1.00000 0.00000
vn 0.00000 1.00000 0.00000
vn 0.00000 1.00000 0.00000
vn 0.00000 1.00000 0.00000
vn 0.00000 1.00000 0.00000
vn 0.00000 1.00000 0.00000
vn 0.00000 1.00000 0.00000
vn 0.00000 1.00000 0.00000
vn 0.00000 1.00000 0.00000
vn 0.00000 1.00000 0.00000
vn 0.00000 1.00000 0.00000
vn 0.00000 1.00000 0.00000
vn 0.00000 1.00000 0.00000
vn 0.99988 0.00000 -0.01574
vn 0.99691 0.00000 0.07859
vn 0.98504 0.00000 0.17233
vn 0.96431 0.00000 0.26477
vn 0.93480 0.00000 0.35518
vn 0.89661 0.00000 0.44282
vn 0.84992 0.00000 0.52691
vn 0.79497 0.00000 0.60665
vn 0.73207 0.00000 0.68123
vn 0.66164 0.00000 0.74982
vn 0.58420 0.00000 0.81161
vn 0.50041 0.00000 0.86579
vn 0.41102 0.00000 0.91162
vn 0.31694 0.00000 0.94844
vn 0.21917 0.00000 0.97569
vn 0.11881 0.00000 0.99292
vn 0.01703 0.00000 0.99986
vn -0.08495 0.00000 0.99638
vn -0.18592 0.00000 0.98256
vn -0.28469 0.00000 0.95862
vn -0.38012 0.00000 0.92494
vn -0.47117 0.00000 0.88204
vn -0.55692 0.00000 0.83056
vn -0.63656 0.00000 0.77123
vn -0.70939 0.00000 0.70482
vn -0.77485 0.00000 0.63214
vn -0.83250 0.00000 0.55403
vn -0.88197 0.00000 0.47130
vn -0.92302 0.00000 0.38476
vn -0.95544 0.00000 0.29519
vn -0.97911 0.00000 0.20335
vn -0.99394 0.00000 0.10996
vn -0.99988 0.00000 0.01574
vn -0.99691 0.00000 -0.07859
vn -0.98504 0.00000 -0.17233
vn -0.96431 0.00000 -0.26477
vn -0.93480 0.00000 -0.35518
vn -0.89661 0.00000 -0.44282
vn -0.84992 0.00000 -0.52691
vn -0.79497 0.00000 -0.60665
vn -0.73207 0.00000 -0.68123
vn -0.66164 0.00000 -0.74982
vn -0.58420 0.00000 -0.81161
vn -0.50041 0.00000 -0.86579
vn -0.41102 0.00000 -0.91162
vn -0.31694 0.00000 -0.94844
vn -0.21917 0.00000 -0.97569
vn -0.11881 0.00000 -0.99292
vn -0.01703 0.00000 -0.99986
vn 0.08495 0.00000 -0.99638
vn 0.18592 0.00000 -0.98256
vn 0.28469 0.00000 -0.95862
vn 0.38012 0.00000 -0.92494
vn 0.47117 0.00000 -0.88204
vn 0.55692 0.00000 -0.83056
vn 0.63656 0.00000 -0.77123
vn 0.70939 0.00000 -0.70482
vn 0.77485 0.00000 -0.63214
vn 0.83250 0.00000 -0.55403
vn 0.88197 0.00000 -0.47130
vn 0.92302 0.00000 -0.38476
vn 0.95544 0.00000 -0.29519
vn 0.97911 0.00000 -0.20335
vn 0.99394 0.00000 -0.10996
vn 0.99988 0.00000 0.01574
vn 0.99394 0.00000 0.10996
vn 0.97911 0.00000 0.20335
vn 0.95544 0.00000 0.29519
vn 0.92302 0.00000 0.38476
vn 0.88197 0.00000 0.47130
vn 0.83250 0.00000 0.55403
vn 0.77485 0.00000 0.63214
vn 0.70939 0.00000 0.70482
vn 0.63656 0.00000 0.77123
vn 0.55692 0.00000 0.83056
vn 0.47117 0.00000 0.88204
vn 0.38012 0.00000 0.92494
vn 0.28469 0.00000 0.95862
vn 0.18592 0.00000 0.98256
vn 0.08495 0.00000 0.99638
vn -0.01703 0.00000 0.99986
vn -0.11881 0.00000 0.99292
vn -0.21917 0.00000 0.97569
vn -0.31694 0.00000 0.94844
vn -0.41102 0.00000 0.91162
vn -0.50041 0.00000 0.86579
vn -0.58420 0.00000 0.81161
vn -0.66164 0.00000 0.74982
vn -0.73207 0.00000 0.68123
vn -0.79497 0.00000 0.60665
vn -0.84992 0.00000 0.52691
vn -0.89661 0.00000 0.44282
vn -0.93480 0.00000 0.35518
vn -0.96431 0.00000 0.26477
vn -0.98504 0.00000 0.17233
vn -0.99691 0.00000 0.07859
vn -0.99988 0.00000 -0.01574
vn -0.99394 0.00000 -0.10996
vn -0.97911 0.00000 -0.20335
vn -0.95544 0.00000 -0.29519
vn -0.92302 0.00000 -0.38476
vn -0.88197 0.00000 -0.47130
vn -0.83250 0.00000 -0.55403
vn -0.77485 0.00000 -0.63214
vn -0.70939 0.00000 -0.70482
vn -0.63656 0.00000 -0.77123
vn -0.55692 0.00000 -0.83056
vn -0.47117 0.00000 -0.88204
vn -0.38012 0.00000 -0.92494
vn -0.28469 0.00000 -0.95862
vn -0.18592 0.00000 -0.98256
vn -0.08495 0.00000 -0.99638
vn 0.01703 0.00000 -0.99986
vn 0.11881 0.00000 -0.99292
vn 0.21917 0.00000 -0.97569
vn 0.31694 0.00000 -0.94844
vn 0.41102 0.00000 -0.91162
vn 0.50041 0.00000 -0.86579
vn 0.58420 0.00000 -0.81161
vn 0.66164 0.00000 -0.74982
vn 0.73207 0.00000 -0.68123
vn 0.79497 0.00000 -0.60665
vn 0.84992 0.00000 -0.52691
vn 0.89661 0.00000 -0.44282
vn 0.93480 0.00000 -0.35518
vn 0.96431 0.00000 -0.26477
vn 0.98504 0.00000 -0.17233
vn 0.99691 0.00000 -0.07859
vn 0.45404 -0.86338 0.22005
vn 0.42792 -0.88393 0.18854
vn 0.36638 -0.90709 0.20723
vn 0.31428 -0.92299 0.22206
vn 0.26894 -0.93428 0.23406
vn 0.22849 -0.94251 0.24387
vn 0.19161 -0.94860 0.25189
vn 0.15736 -0.95314 0.25838
vn 0.12505 -0.95651 0.26353
vn 0.09414 -0.95897 0.26744
vn 0.06422 -0.96066 0.27019
vn 0.03496 -0.96171 0.27183
vn 0.00605 -0.96217 0.27240
vn -0.02276 -0.96206 0.27189
vn -0.05174 -0.96139 0.27030
vn -0.08115 -0.96011 0.26760
vn -0.11131 -0.95814 0.26376
vn -0.14257 -0.95538 0.25871
vn -0.17538 -0.95161 0.25233
vn -0.21031 -0.94657 0.24449
vn -0.24812 -0.93980 0.23495
vn -0.28986 -0.93063 0.22338
vn -0.33698 -0.91796 0.20928
vn -0.39157 -0.89994 0.19181
vn -0.44909 -0.87786 0.16640
vn 0.46326 -0.87230 0.15650
vn 0.43387 -0.88924 0.14491
vn 0.37520 -0.91055 0.17357
vn 0.32429 -0.92536 0.19630
vn 0.27903 -0.93599 0.21462
vn 0.23789 -0.94379 0.22950
vn 0.19981 -0.94959 0.24158
vn 0.16397 -0.95391 0.25131
vn 0.12979 -0.95712 0.25899
vn 0.09681 -0.95943 0.26482
vn 0.06465 -0.96099 0.26894
vn 0.03301 -0.96189 0.27144
vn 0.00162 -0.96219 0.27236
vn -0.02978 -0.96191 0.27174
vn -0.06144 -0.96102 0.26955
vn -0.09362 -0.95949 0.26574
vn -0.12665 -0.95720 0.26024
vn -0.16088 -0.95402 0.25290
vn -0.19678 -0.94972 0.24352
vn -0.23494 -0.94396 0.23182
vn -0.27618 -0.93620 0.21737
vn -0.32157 -0.92563 0.19953
vn -0.37263 -0.91088 0.17734
vn -0.43151 -0.88966 0.14933
vn -0.48420 -0.86802 0.10999
vn 0.48116 -0.87114 0.09797
vn 0.43586 -0.89267 0.11474
vn 0.37946 -0.91284 0.15076
vn 0.32943 -0.92701 0.17925
vn 0.28415 -0.93724 0.20211
vn 0.24242 -0.94477 0.22056
vn 0.20335 -0.95038 0.23544
vn 0.16625 -0.95456 0.24734
vn 0.13062 -0.95764 0.25665
vn 0.09603 -0.95983 0.26365
vn 0.06215 -0.96126 0.26853
vn 0.02869 -0.96204 0.27140
vn -0.00461 -0.96219 0.27233
vn -0.03800 -0.96173 0.27135
vn -0.07175 -0.96063 0.26841
vn -0.10613 -0.95882 0.26344
vn -0.14146 -0.95619 0.25631
vn -0.17814 -0.95256 0.24679
vn -0.21665 -0.94765 0.23457
vn -0.25763 -0.94105 0.21920
vn -0.30192 -0.93212 0.19999
vn -0.35064 -0.91983 0.17596
vn -0.40536 -0.90249 0.14560
vn -0.46816 -0.87719 0.10659
vn -0.51596 -0.85353 0.07262
vn -0.51596 0.85353 -0.07262
vn -0.46816 0.87719 -0.10659
vn -0.40536 0.90249 -0.14560
vn -0.35064 0.91983 -0.17596
vn -0.30192 0.93212 -0.19999
vn -0.25763 0.94105 -0.21920
vn -0.21665 0.94765 -0.23457
vn -0.17814 0.95256 -0.24679
vn -0.14146 0.95619 -0.25631
vn -0.10613 0.95882 -0.26344
vn -0.07175 0.96063 -0.26841
vn -0.03800 0.96173 -0.27135
vn -0.00461 0.96219 -0.27233
vn 0.02869 0.96204 -0.27140
vn 0.06215 0.96126 -0.26853
vn 0.09603 0.95983 -0.26365
vn 0.13062 0.95764 -0.25665
vn 0.16625 0.95456 -0.24734
vn 0.20335 0.95038 -0.23544
vn 0.24242 0.94477 -0.22056
vn 0.28415 0.93724 -0.20211
vn 0.32943 0.92701 -0.17925
vn 0.37946 0.91284 -0.15076
vn 0.43586 0.89267 -0.11474
vn 0.48116 0.87114 -0.09797
vn -0.48420 0.86802 -0.10999
vn -0.43151 0.88966 -0.14933
vn -0.37263 0.91088 -0.17734
vn -0.32157 0.92563 -0.19953
vn -0.27618 0.93620 -0.21737
vn -0.23494 0.94396 -0.23182
vn -0.19678 0.94972 -0.24352
vn -0.16088 0.95402 -0.25290
vn -0.12665 0.95720 -0.26024
vn -0.09362 0.95949 -0.26574
vn -0.06144 0.96102 -0.26955
vn -0.02978 0.96191 -0.27174
vn 0.00162 0.96219 -0.27236
vn 0.03301 0.96189 -0.27144
vn 0.06465 0.96099 -0.26894
vn 0.09681 0.95943 -0.26482
vn 0.12979 0.95712 -0.25899
vn 0.16397 0.95391 -0.25131
vn 0.19981 0.94959 -0.24158
vn 0.23789 0.94379 -0.22950
vn 0.27903 0.93599 -0.21462
vn 0.32429 0.92536 -0.19630
vn 0.37520 0.91055 -0.17357
vn 0.43387 0.88924 -0.14491
vn 0.46326 0.87230 -0.15650
vn -0.44909 0.87786 -0.16640
vn -0.39157 0.89994 -0.19181
vn -0.33698 0.91796 -0.20928
vn -0.28986 0.93063 -0.22338
vn -0.24812 0.93980 -0.23495
vn -0.21031 0.94657 -0.24449
vn -0.17538 0.95161 -0.25233
vn -0.14257 0.95538 -0.25871
vn -0.11131 0.95814 -0.26376
vn -0.08115 0.96011 -0.26760
vn -0.05174 0.96139 -0.27030
vn -0.02276 0.96206 -0.27189
vn 0.00605 0.96217 -0.27240
vn 0.03496 0.96171 -0.27183
vn 0.06422 0.96066 -0.27019
vn 0.09414 0.95897 -0.26744
vn 0.12505 0.95651 -0.26353
vn 0.15736 0.95314 -0.25838
vn 0.19161 0.94860 -0.25189
vn 0.22849 0.94251 -0.24387
vn 0.26894 0.93428 -0.23406
vn 0.31428 0.92299 -0.22206
vn 0.36638 0.90709 -0.20723
vn 0.42792 0.88393 -0.18854
vn 0.45404 0.86338 -0.22005
vn -0.11614 -0.51101 -0.85169
vn -0.06517 -0.28674 0.95579
vn -0.08697 0.76531 -0.63776
vn -0.22772 0.50098 0.83496
vn 0.22772 -0.50098 -0.83496
vn 0.08697 -0.76531 0.63776
vn 0.06517 0.28674 -0.95579
vn 0.11614 0.51101 0.85169
vn -0.50307 -0.20961 -0.83844
vn -0.28531 -0.11888 0.95103
vn -0.47287 0.39406 -0.78811
vn -0.75857 0.15803 0.63214
vn 0.75857 -0.15803 -0.63214
vn 0.47287 -0.39406 0.78811
vn 0.28531 0.11888 -0.95103
vn 0.50307 0.20961 0.83844
vn -0.50307 -0.20961 -0.83844
vn -0.28531 -0.11888 0.95103
vn -0.47287 0.39406 -0.78811
vn -0.75857 0.15803 0.63214
vn 0.75857 -0.15803 -0.63214
vn 0.47287 -0.39406 0.78811
vn 0.28531 0.11888 -0.95103
vn 0.50307 0.20961 0.83844
vn -0.11614 -0.51101 -0.85169
vn -0.06517 -0.28674 0.95579
vn -0.08697 0.76531 -0.63776
vn -0.22772 0.50098 0.83496
vn 0.22772 -0.50098 -0.83496
vn 0.08697 -0.76531 0.63776
vn 0.06517 0.28674 -0.95579
vn 0.11614 0.51101 0.85169
vn -0.33804 -0.27043 -0.90144
vn -0.18232 -0.14585 0.97236
vn -0.30612 0.48980 -0.81633
vn -0.58343 0.23337 0.77791
vn 0.58343 -0.23337 -0.77791
vn 0.30612 -0.48980 0.81633
vn 0.18232 0.14585 -0.97236
vn 0.33804 0.27043 0.90144
o Body
usemtl body
f 1//1 65//65 2//2
f 2//2 65//65 66//66
f 2//2 66//66 3//3
f 3//3 66//66 67//67
f 3//3 67//67 4//4
f 4//4 67//67 68//68
f 4//4 68//68 5//5
f 5//5 68//68 69//69
f 5//5 69//69 6//6
f 6//6 69//69 70//70
f 6//6 70//70 7//7
f 7//7 70//70 71//71
f 7//7 71//71 8//8
f 8//8 71//71 72//72
f 8//8 72//72 9//9
f 9//9 72//72 73//73
f 9//9 73//73 10//10
f 10//10 73//73 74//74
f 10//10 74//74 11//11
f 11//11 74//74 75//75
f 11//11 75//75 12//12
f 12//12 75//75 76//76
f 12//12 76//76 13//13
f 13//13 76//76 77//77
f 13//13 77//77 14//14
f 14//14 77//77 78//78
f 14//14 78//78 15//15
f 15//15 78//78 79//79
f 15//15 79//79 16//16
f 16//16 79//79 80//80
f 16//16 80//80 17//17
f 17//17 80//80 81//81
f 17//17 81//81 18//18
f 18//18 81//81 82//82
f 18//18 82//82 19//19
f 19//19 82//82 83//83
f 19//19 83//83 20//20
f 20//20 83//83 84//84
f 20//20 84//84 21//21
f 21//21 84//84 85//85
f 21//21 85//85 22//22
f 22//22 85//85 86//86
f 22//22 86//86 23//23
f 23//23 86//86 87//87
f 23//23 87//87 24//24
f 24//24 87//87 88//88
f 24//24 88//88 25//25
f 25//25 88//88 89//89
f 25//25 89//89 26//26
f 26//26 89//89 90//90
f 26//26 90//90 27//27
f 27//27 90//90 91//91
f 27//27 91//91 28//28
f 28//28 91//91 92//92
f 28//28 92//92 29//29
f 29//29 92//92 93//93
f 29//29 93//93 30//30
f 30//30 93//93 94//94
f 30//30 94//94 31//31
f 31//31 94//94 95//95
f 31//31 95//95 32//32
f 32//32 95//95 96//96
f 32//32 96//96 33//33
f 33//33 96//96 97//97
f 33//33 97//97 34//34
f 34//34 97//97 98//98
f 34//34 98//98 35//35
f 35//35 98//98 99//99
f 35//35 99//99 36//36
f 36//36 99//99 100//100
f 36//36 100//100 37//37
f 37//37 100//100 101//101
f 37//37 101//101 38//38
f 38//38 101//101 102//102
f 38//38 102//102 39//39
f 39//39 102//102 103//103
f 39//39 103//103 40//40
f 40//40 103//103 104//104
f 40//40 104//104 41//41
f 41//41 104//104 105//105
f 41//41 105//105 42//42
f 42//42 105//105 106//106
f 42//42 106//106 43//43
f 43//43 106//106 107//107
f 43//43 107//107 44//44
f 44//44 107//107 108//108
f 44//44 108//108 45//45
f 45//45 108//108 109//109
f 45//45 109//109 46//46
f 46//46 109//109 110//110
f 46//46 110//110 47//47
f 47//47 110//110 111//111
f 47//47 111//111 48//48
f 48//48 111//111 112//112
f 48//48 112//112 49//49
f 49//49 112//112 113//113
f 49//49 113//113 50//50
f 50//50 113//113 114//114
f 50//50 114//114 51//51
f 51//51 114//114 115//115
f 51//51 115//115 52//52
f 52//52 115//115 116//116
f 52//52 116//116 53//53
f 53//53 116//116 117//117
f 53//53 117//117 54//54
f 54//54 117//117 118//118
f 54//54 118//118 55//55
f 55//55 118//118 119//119
f 55//55 119//119 56//56
f 56//56 119//119 120//120
f 56//56 120//120 57//57
f 57//57 120//120 121//121
f 57//57 121//121 58//58
f 58//58 121//121 122//122
f 58//58 122//122 59//59
f 59//59 122//122 123//123
f 59//59 123//123 60//60
f 60//60 123//123 124//124
f 60//60 124//124 61//61
f 61//61 124//124 125//125
f 61//61 125//125 62//62
f 62//62 125//125 126//126
f 62//62 126//126 63//63
f 63//63 126//126 127//127
f 63//63 127//127 64//64
f 64//64 127//127 128//128
f 64//64 128//128 1//1
f 1//1 128//128 65//65
f 65//65 129//129 66//66
f 66//66 129//129 130//130
f 66//66 130//130 67//67
f 67//67 130//130 131//131
f 67//67 131//131 68//68
f 68//68 131//131 132//132
f 68//68 132//132 69//69
f 69//69 132//132 133//133
f 69//69 133//133 70//70
f 70//70 133//133 134//134
f 70//70 134//134 71//71
f 71//71 134//134 135//135
f 71//71 135//135 72//72
f 72//72 135//135 136//136
f 72//72 136//136 73//73
f 73//73 136//136 137//137
f 73//73 137//137 74//74
f 74//74 137//137 138//138
f 74//74 138//138 75//75
f 75//75 138//138 139//139
f 75//75 139//139 76//76
f 76//76 139//139 140//140
f 76//76 140//140 77//77
f 77//77 140//140 141//141
f 77//77 141//141 78//78
f 78//78 141//141 142//142
f 78//78 142//142 79//79
f 79//79 142//142 143//143
f 79//79 143//143 80//80
f 80//80 143//143 144//144
f 80//80 144//144 81//81
f 81//81 144//144 145//145
f 81//81 145//145 82//82
f 82//82 145//145 146//146
f 82//82 146//146 83//83
f 83//83 146//146 147//147
f 83//83 147//147 84//84
f 84//84 147//147 148//148
f 84//84 148//148 85//85
f 85//85 148//148 149//149
f 85//85 149//149 86//86
f 86//86 149//149 150//150
f 86//86 150//150 87//87
f 87//87 150//150 151//151
f 87//87 151//151 88//88
f 88//88 151//151 152//152
f 88//88 152//152 89//89
f 89//89 152//152 153//153
f 89//89 153//153 90//90
f 90//90 153//153 154//154
f 90//90 154//154 91//91
f 91//91 154//154 155//155
f 91//91 155//155 92//92
f 92//92 155//155 156//156
f 92//92 156//156 93//93
f 93//93 156//156 157//157
f 93//93 157//157 94//94
f 94//94 157//157 158//158
f 94//94 158//158 95//95
f 95//95 158//158 159//159
f 95//95 159//159 96//96
f 96//96 159//159 160//160
f 96//96 160//160 97//97
f 97//97 160//160 161//161
f 97//97 161//161 98//98
f 98//98 161//161 162//162
f 98//98 162//162 99//99
f 99//99 162//162 163//163
f 99//99 163//163 100//100
f 100//100 163//163 164//164
f 100//100 164//164 101//101
f 101//101 164//164 165//165
f 101//101 165//165 102//102
f 102//102 165//165 166//166
f 102//102 166//166 103//103
f 103//103 166//166 167//167
f 103//103 167//167 104//104
f 104//104 167//167 168//168
f 104//104 168//168 105//105
f 105//105 168//168 169//169
f 105//105 169//169 106//106
f 106//106 169//169 170//170
f 106//106 170//170 107//107
f 107//107 170//170 171//171
f 107//107 171//171 108//108
f 108//108 171//171 172//172
f 108//108 172//172 109//109
f 109//109 172//172 173//173
f 109//109 173//173 110//110
f 110//110 173//173 174//174
f 110//110 174//174 111//111
f 111//111 174//174 175//175
f 111//111 175//175 112//112
f 112//112 175//175 176//176
f 112//112 176//176 113//113
f 113//113 176//176 177//177
f 113//113 177//177 114//114
f 114//114 177//177 178//178
f 114//114 178//178 115//115
f 115//115 178//178 179//179
f 115//115 179//179 116//116
f 116//116 179//179 180//180
f 116//116 180//180 117//117
f 117//117 180//180 181//181
f 117//117 181//181 118//118
f 118//118 181//181 182//182
f 118//118 182//182 119//119
f 119//119 182//182 183//183
f 119//119 183//183 120//120
f 120//120 183//183 184//184
f 120//120 184//184 121//121
f 121//121 184//184 185//185
f 121//121 185//185 122//122
f 122//122 185//185 186//186
f 122//122 186//186 123//123
f 123//123 186//186 187//187
f 123//123 187//187 124//124
f 124//124 187//187 188//188
f 124//124 188//188 125//125
f 125//125 188//188 189//189
f 125//125 189//189 126//126
f 126//126 189//189 190//190
f 126//126 190//190 127//127
f 127//127 190//190 191//191
f 127//127 191//191 128//128
f 128//128 191//191 192//192
f 128//128 192//192 65//65
f 65//65 192//192 129//129
f 129//129 193//193 130//130
f 130//130 193//193 194//194
f 130//130 194//194 131//131
f 131//131 194//194 195//195
f 131//131 195//195 132//132
f 132//132 195//195 196//196
f 132//132 196//196 133//133
f 133//133 196//196 197//197
f 133//133 197//197 134//134
f 134//134 197//197 198//198
f 134//134 198//198 135//135
f 135//135 198//198 199//199
f 135//135 199//199 136//136
f 136//136 199//199 200//200
f 136//136 200//200 137//137
f 137//137 200//200 201//201
f 137//137 201//201 138//138
f 138//138 201//201 202//202
f 138//138 202//202 139//139
f 139//139 202//202 203//203
f 139//139 203//203 140//140
f 140//140 203//203 204//204
f 140//140 204//204 141//141
f 141//141 204//204 205//205
f 141//141 205//205 142//142
f 142//142 205//205 206//206
f 142//142 206//206 143//143
f 143//143 206//206 207//207
f 143//143 207//207 144//144
f 144//144 207//207 208//208
f 144//144 208//208 145//145
f 145//145 208//208 209//209
f 145//145 209//209 146//146
f 146//146 209//209 210//210
f 146//146 210//210 147//147
f 147//147 210//210 211//211
f 147//147 211//211 148//148
f 148//148 211//211 212//212
f 148//148 212//212 149//149
f 149//149 212//212 213//213
f 149//149 213//213 150//150
f 150//150 213//213 214//214
f 150//150 214//214 151//151
f 151//151 214//214 215//215
f 151//151 215//215 152//152
f 152//152 215//215 216//216
f 152//152 216//216 153//153
f 153//153 216//216 217//217
f 153//153 217//217 154//154
f 154//154 217//217 218//218
f 154//154 218//218 155//155
f 155//155 218//218 219//219
f 155//155 219//219 156//156
f 156//156 219//219 220//220
f 156//156 220//220 157//157
f 157//157 220//220 221//221
f 157//157 221//221 158//158
f 158//158 221//221 222//222
f 158//158 222//222 159//159
f 159//159 222//222 223//223
f 159//159 223//223 160//160
f 160//160 223//223 224//224
f 160//160 224//224 161//161
f 161//161 224//224 225//225
f 161//161 225//225 162//162
f 162//162 225//225 226//226
f 162//162 226//226 163//163
f 163//163 226//226 227//227
f 163//163 227//227 164//164
f 164//164 227//227 228//228
f 164//164 228//228 165//165
f 165//165 228//228 229//229
f 165//165 229//229 166//166
f 166//166 229//229 230//230
f 166//166 230//230 167//167
f 167//167 230//230 231//231
f 167//167 231//231 168//168
f 168//168 231//231 232//232
f 168//168 232//232 169//169
f 169//169 232//232 233//233
f 169//169 233//233 170//170
f 170//170 233//233 234//234
f 170//170 234//234 171//171
f 171//171 234//234 235//235
f 171//171 235//235 172//172
f 172//172 235//235 236//236
f 172//172 236//236 173//173
f 173//173 236//236 237//237
f 173//173 237//237 174//174
f 174//174 237//237 238//238
f 174//174 238//238 175//175
f 175//175 238//238 239//239
f 175//175 239//239 176//176
f 176//176 239//239 240//240
f 176//176 240//240 177//177
f 177//177 240//240 241//241
f 177//177 241//241 178//178
f 178//178 241//241 242//242
f 178//178 242//242 179//179
f 179//179 242//242 243//243
f 179//179 243//243 180//180
f 180//180 243//243 244//244
f 180//180 244//244 181//181
f 181//181 244//244 245//245
f 181//181 245//245 182//182
f 182//182 245//245 246//246
f 182//182 246//246 183//183
f 183//183 246//246 247//247
f 183//183 247//247 184//184
f 184//184 247//247 248//248
f 184//184 248//248 185//185
f 185//185 248//248 249//249
f 185//185 249//249 186//186
f 186//186 249//249 250//250
f 186//186 250//250 187//187
f 187//187 250//250 251//251
f 187//187 251//251 188//188
f 188//188 251//251 252//252
f 188//188 252//252 189//189
f 189//189 252//252 253//253
f 189//189 253//253 190//190
f 190//190 253//253 254//254
f 190//190 254//254 191//191
f 191//191 254//254 255//255
f 191//191 255//255 192//192
f 192//192 255//255 256//256
f 192//192 256//256 129//129
f 129//129 256//256 193//193
f 193//193 257//257 194//194
f 194//194 257//257 258//258
f 194//194 258//258 195//195
f 195//195 258//258 259//259
f 195//195 259//259 196//196
f 196//196 259//259 260//260
f 196//196 260//260 197//197
f 197//197 260//260 261//261
f 197//197 261//261 198//198
f 198//198 261//261 262//262
f 198//198 262//262 199//199
f 199//199 262//262 263//263
f 199//199 263//263 200//200
f 200//200 263//263 264//264
f 200//200 264//264 201//201
f 201//201 264//264 265//265
f 201//201 265//265 202//202
f 202//202 265//265 266//266
f 202//202 266//266 203//203
f 203//203 266//266 267//267
f 203//203 267//267 204//204
f 204//204 267//267 268//268
f 204//204 268//268 205//205
f 205//205 268//268 269//269
f 205//205 269//269 206//206
f 206//206 269//269 270//270
f 206//206 270//270 207//207
f 207//207 270//270 271//271
f 207//207 271//271 208//208
f 208//208 271//271 272//272
f 208//208 272//272 209//209
f 209//209 272//272 273//273
f 209//209 273//273 210//210
f 210//210 273//273 274//274
f 210//210 274//274 211//211
f 211//211 274//274 275//275
f 211//211 275//275 212//212
f 212//212 275//275 276//276
f 212//212 276//276 213//213
f 213//213 276//276 277//277
f 213//213 277//277 214//214
f 214//214 277//277 278//278
f 214//214 278//278 215//215
f 215//215 278//278 279//279
f 215//215 279//279 216//216
f 216//216 279//279 280//280
f 216//216 280//280 217//217
f 217//217 280//280 281//281
f 217//217 281//281 218//218
f 218//218 281//281 282//282
f 218//218 282//282 219//219
f 219//219 282//282 283//283
f 219//219 283//283 220//220
f 220//220 283//283 284//284
f 220//220 284//284 221//221
f 221//221 284//284 285//285
f 221//221 285//285 222//222
f 222//222 285//285 286//286
f 222//222 286//286 223//223
f 223//223 286//286 287//287
f 223//223 287//287 224//224
f 224//224 287//287 288//288
f 224//224 288//288 225//225
f 225//225 288//288 289//289
f 225//225 289//289 226//226
f 226//226 289//289 290//290
f 226//226 290//290 227//227
f 227//227 290//290 291//291
f 227//227 291//291 228//228
f 228//228 291//291 292//292
f 228//228 292//292 229//229
f 229//229 292//292 293//293
f 229//229 293//293 230//230
f 230//230 293//293 294//294
f 230//230 294//294 231//231
f 231//231 294//294 295//295
f 231//231 295//295 232//232
f 232//232 295//295 296//296
f 232//232 296//296 233//233
f 233//233 296//296 297//297
f 233//233 297//297 234//234
f 234//234 297//297 298//298
f 234//234 298//298 235//235
f 235//235 298//298 299//299
f 235//235 299//299 236//236
f 236//236 299//299 300//300
f 236//236 300//300 237//237
f 237//237 300//300 301//301
f 237//237 301//301 238//238
f 238//238 301//301 302//302
f 238//238 302//302 239//239
f 239//239 302//302 303//303
f 239//239 303//303 240//240
f 240//240 303//303 304//304
f 240//240 304//304 241//241
f 241//241 304//304 305//305
f 241//241 305//305 242//242
f 242//242 305//305 306//306
f 242//242 306//306 243//243
f 243//243 306//306 307//307
f 243//243 307//307 244//244
f 244//244 307//307 308//308
f 244//244 308//308 245//245
f 245//245 308//308 309//309
f 245//245 309//309 246//246
f 246//246 309//309 310//310
f 246//246 310//310 247//247
f 247//247 310//310 311//311
f 247//247 311//311 248//248
f 248//248 311//311 312//312
f 248//248 312//312 249//249
f 249//249 312//312 313//313
f 249//249 313//313 250//250
f 250//250 313//313 314//314
f 250//250 314//314 251//251
f 251//251 314//314 315//315
f 251//251 315//315 252//252
f 252//252 315//315 316//316
f 252//252 316//316 253//253
f 253//253 316//316 317//317
f 253//253 317//317 254//254
f 254//254 317//317 318//318
f 254//254 318//318 255//255
f 255//255 318//318 319//319
f 255//255 319//319 256//256
f 256//256 319//319 320//320
f 256//256 320//320 193//193
f 193//193 320//320 257//257
f 321//321 258//258 257//257
f 321//321 259//259 258//258
f 321//321 260//260 259//259
f 321//321 261//261 260//260
f 321//321 262//262 261//261
f 321//321 263//263 262//262
f 321//321 264//264 263//263
f 321//321 265//265 264//264
f 321//321 266//266 265//265
f 321//321 267//267 266//266
f 321//321 268//268 267//267
f 321//321 269//269 268//268
f 321//321 270//270 269//269
f 321//321 271//271 270//270
f 321//321 272//272 271//271
f 321//321 273//273 272//272
f 321//321 274//274 273//273
f 321//321 275//275 274//274
f 321//321 276//276 275//275
f 321//321 277//277 276//276
f 321//321 278//278 277//277
f 321//321 279//279 278//278
f 321//321 280//280 279//279
f 321//321 281//281 280//280
f 321//321 282//282 281//281
f 321//321 283//283 282//282
f 321//321 284//284 283//283
f 321//321 285//285 284//284
f 321//321 286//286 285//285
f 321//321 287//287 286//286
f 321//321 288//288 287//287
f 321//321 289//289 288//288
f 321//321 290//290 289//289
f 321//321 291//291 290//290
f 321//321 292//292 291//291
f 321//321 293//293 292//292
f 321//321 294//294 293//293
f 321//321 295//295 294//294
f 321//321 296//296 295//295
f 321//321 297//297 296//296
f 321//321 298//298 297//297
f 321//321 299//299 298//298
f 321//321 300//300 299//299
f 321//321 301//301 300//300
f 321//321 302//302 301//301
f 321//321 303//303 302//302
f 321//321 304//304 303//303
f 321//321 305//305 304//304
f 321//321 306//306 305//305
f 321//321 307//307 306//306
f 321//321 308//308 307//307
f 321//321 309//309 308//308
f 321//321 310//310 309//309
f 321//321 311//311 310//310
f 321//321 312//312 311//311
f 321//321 313//313 312//312
f 321//321 314//314 313//313
f 321//321 315//315 314//314
f 321//321 316//316 315//315
f 321//321 317//317 316//316
f 321//321 318//318 317//317
f 321//321 319//319 318//318
f 321//321 320//320 319//319
f 321//321 257//257 320//320
o Band
usemtl band
f 322//322 386//386 323//323
f 323//323 386//386 387//387
f 323//323 387//387 324//324
f 324//324 387//387 388//388
f 324//324 388//388 325//325
f 325//325 388//388 389//389
f 325//325 389//389 326//326
f 326//326 389//389 390//390
f 326//326 390//390 327//327
f 327//327 390//390 391//391
f 327//327 391//391 328//328
f 328//328 391//391 392//392
f 328//328 392//392 329//329
f 329//329 392//392 393//393
f 329//329 393//393 330//330
f 330//330 393//393 394//394
f 330//330 394//394 331//331
f 331//331 394//394 395//395
f 331//331 395//395 332//332
f 332//332 395//395 396//396
f 332//332 396//396 333//333
f 333//333 396//396 397//397
f 333//333 397//397 334//334
f 334//334 397//397 398//398
f 334//334 398//398 335//335
f 335//335 398//398 399//399
f 335//335 399//399 336//336
f 336//336 399//399 400//400
f 336//336 400//400 337//337
f 337//337 400//400 401//401
f 337//337 401//401 338//338
f 338//338 401//401 402//402
f 338//338 402//402 339//339
f 339//339 402//402 403//403
f 339//339 403//403 340//340
f 340//340 403//403 404//404
f 340//340 404//404 341//341
f 341//341 404//404 405//405
f 341//341 405//405 342//342
f 342//342 405//405 406//406
f 342//342 406//406 343//343
f 343//343 406//406 407//407
f 343//343 407//407 344//344
f 344//344 407//407 408//408
f 344//344 408//408 345//345
f 345//345 408//408 409//409
f 345//345 409//409 346//346
f 346//346 409//409 410//410
f 346//346 410//410 347//347
f 347//347 410//410 411//411
f 347//347 411//411 348//348
f 348//348 411//411 412//412
f 348//348 412//412 349//349
f 349//349 412//412 413//413
f 349//349 413//413 350//350
f 350//350 413//413 414//414
f 350//350 414//414 351//351
f 351//351 414//414 415//415
f 351//351 415//415 352//352
f 352//352 415//415 416//416
f 352//352 416//416 353//353
f 353//353 416//416 417//417
f 353//353 417//417 354//354
f 354//354 417//417 418//418
f 354//354 418//418 355//355
f 355//355 418//418 419//419
f 355//355 419//419 356//356
f 356//356 419//419 420//420
f 356//356 420//420 357//357
f 357//357 420//420 421//421
f 357//357 421//421 358//358
f 358//358 421//421 422//422
f 358//358 422//422 359//359
f 359//359 422//422 423//423
f 359//359 423//423 360//360
f 360//360 423//423 424//424
f 360//360 424//424 361//361
f 361//361 424//424 425//425
f 361//361 425//425 362//362
f 362//362 425//425 426//426
f 362//362 426//426 363//363
f 363//363 426//426 427//427
f 363//363 427//427 364//364
f 364//364 427//427 428//428
f 364//364 428//428 365//365
f 365//365 428//428 429//429
f 365//365 429//429 366//366
f 366//366 429//429 430//430
f 366//366 430//430 367//367
f 367//367 430//430 431//431
f 367//367 431//431 368//368
f 368//368 431//431 432//432
f 368//368 432//432 369//369
f 369//369 432//432 433//433
f 369//369 433//433 370//370
f 370//370 433//433 434//434
f 370//370 434//434 371//371
f 371//371 434//434 435//435
f 371//371 435//435 372//372
f 372//372 435//435 436//436
f 372//372 436//436 373//373
f 373//373 436//436 437//437
f 373//373 437//437 374//374
f 374//374 437//437 438//438
f 374//374 438//438 375//375
f 375//375 438//438 439//439
f 375//375 439//439 376//376
f 376//376 439//439 440//440
f 376//376 440//440 377//377
f 377//377 440//440 441//441
f 377//377 441//441 378//378
f 378//378 441//441 442//442
f 378//378 442//442 379//379
f 379//379 442//442 443//443
f 379//379 443//443 380//380
f 380//380 443//443 444//444
f 380//380 444//444 381//381
f 381//381 444//444 445//445
f 381//381 445//445 382//382
f 382//382 445//445 446//446
f 382//382 446//446 383//383
f 383//383 446//446 447//447
f 383//383 447//447 384//384
f 384//384 447//447 448//448
f 384//384 448//448 385//385
f 385//385 448//448 449//449
f 385//385 449//449 322//322
f 322//322 449//449 386//386
f 386//386 450//450 387//387
f 387//387 450//450 451//451
f 387//387 451//451 388//388
f 388//388 451//451 452//452
f 388//388 452//452 389//389
f 389//389 452//452 453//453
f 389//389 453//453 390//390
f 390//390 453//453 454//454
f 390//390 454//454 391//391
f 391//391 454//454 455//455
f 391//391 455//455 392//392
f 392//392 455//455 456//456
f 392//392 456//456 393//393
f 393//393 456//456 457//457
f 393//393 457//457 394//394
f 394//394 457//457 458//458
f 394//394 458//458 395//395
f 395//395 458//458 459//459
f 395//395 459//459 396//396
f 396//396 459//459 460//460
f 396//396 460//460 397//397
f 397//397 460//460 461//461
f 397//397 461//461 398//398
f 398//398 461//461 462//462
f 398//398 462//462 399//399
f 399//399 462//462 463//463
f 399//399 463//463 400//400
f 400//400 463//463 464//464
f 400//400 464//464 401//401
f 401//401 464//464 465//465
f 401//401 465//465 402//402
f 402//402 465//465 466//466
f 402//402 466//466 403//403
f 403//403 466//466 467//467
f 403//403 467//467 404//404
f 404//404 467//467 468//468
f 404//404 468//468 405//405
f 405//405 468//468 469//469
f 405//405 469//469 406//406
f 406//406 469//469 470//470
f 406//406 470//470 407//407
f 407//407 470//470 471//471
f 407//407 471//471 408//408
f 408//408 471//471 472//472
f 408//408 472//472 409//409
f 409//409 472//472 473//473
f 409//409 473//473 410//410
f 410//410 473//473 474//474
f 410//410 474//474 411//411
f 411//411 474//474 475//475
f 411//411 475//475 412//412
f 412//412 475//475 476//476
f 412//412 476//476 413//413
f 413//413 476//476 477//477
f 413//413 477//477 414//414
f 414//414 477//477 478//478
f 414//414 478//478 415//415
f 415//415 478//478 479//479
f 415//415 479//479 416//416
f 416//416 479//479 480//480
f 416//416 480//480 417//417
f 417//417 480//480 481//481
f 417//417 481//481 418//418
f 418//418 481//481 482//482
f 418//418 482//482 419//419
f 419//419 482//482 483//483
f 419//419 483//483 420//420
f 420//420 483//483 484//484
f 420//420 484//484 421//421
f 421//421 484//484 485//485
f 421//421 485//485 422//422
f 422//422 485//485 486//486
f 422//422 486//486 423//423
f 423//423 486//486 487//487
f 423//423 487//487 424//424
f 424//424 487//487 488//488
f 424//424 488//488 425//425
f 425//425 488//488 489//489
f 425//425 489//489 426//426
f 426//426 489//489 490//490
f 426//426 490//490 427//427
f 427//427 490//490 491//491
f 427//427 491//491 428//428
f 428//428 491//491 492//492
f 428//428 492//492 429//429
f 429//429 492//492 493//493
f 429//429 493//493 430//430
f 430//430 493//493 494//494
f 430//430 494//494 431//431
f 431//431 494//494 495//495
f 431//431 495//495 432//432
f 432//432 495//495 496//496
f 432//432 496//496 433//433
f 433//433 496//496 497//497
f 433//433 497//497 434//434
f 434//434 497//497 498//498
f 434//434 498//498 435//435
f 435//435 498//498 499//499
f 435//435 499//499 436//436
f 436//436 499//499 500//500
f 436//436 500//500 437//437
f 437//437 500//500 501//501
f 437//437 501//501 438//438
f 438//438 501//501 502//502
f 438//438 502//502 439//439
f 439//439 502//502 503//503
f 439//439 503//503 440//440
f 440//440 503//503 504//504
f 440//440 504//504 441//441
f 441//441 504//504 505//505
f 441//441 505//505 442//442
f 442//442 505//505 506//506
f 442//442 506//506 443//443
f 443//443 506//506 507//507
f 443//443 507//507 444//444
f 444//444 507//507 508//508
f 444//444 508//508 445//445
f 445//445 508//508 509//509
f 445//445 509//509 446//446
f 446//446 509//509 510//510
f 446//446 510//510 447//447
f 447//447 510//510 511//511
f 447//447 511//511 448//448
f 448//448 511//511 512//512
f 448//448 512//512 449//449
f 449//449 512//512 513//513
f 449//449 513//513 386//386
f 386//386 513//513 450//450
f 514//514 578//578 515//515
f 515//515 578//578 579//579
f 515//515 579//579 516//516
f 516//516 579//579 580//580
f 516//516 580//580 517//517
f 517//517 580//580 581//581
f 517//517 581//581 518//518
f 518//518 581//581 582//582
f 518//518 582//582 519//519
f 519//519 582//582 583//583
f 519//519 583//583 520//520
f 520//520 583//583 584//584
f 520//520 584//584 521//521
f 521//521 584//584 585//585
f 521//521 585//585 522//522
f 522//522 585//585 586//586
f 522//522 586//586 523//523
f 523//523 586//586 587//587
f 523//523 587//587 524//524
f 524//524 587//587 588//588
f 524//524 588//588 525//525
f 525//525 588//588 589//589
f 525//525 589//589 526//526
f 526//526 589//589 590//590
f 526//526 590//590 527//527
f 527//527 590//590 591//591
f 527//527 591//591 528//528
f 528//528 591//591 592//592
f 528//528 592//592 529//529
f 529//529 592//592 593//593
f 529//529 593//593 530//530
f 530//530 593//593 594//594
f 530//530 594//594 531//531
f 531//531 594//594 595//595
f 531//531 595//595 532//532
f 532//532 595//595 596//596
f 532//532 596//596 533//533
f 533//533 596//596 597//597
f 533//533 597//597 534//534
f 534//534 597//597 598//598
f 534//534 598//598 535//535
f 535//535 598//598 599//599
f 535//535 599//599 536//536
f 536//536 599//599 600//600
f 536//536 600//600 537//537
f 537//537 600//600 601//601
f 537//537 601//601 538//538
f 538//538 601//601 602//602
f 538//538 602//602 539//539
f 539//539 602//602 603//603
f 539//539 603//603 540//540
f 540//540 603//603 604//604
f 540//540 604//604 541//541
f 541//541 604//604 605//605
f 541//541 605//605 542//542
f 542//542 605//605 606//606
f 542//542 606//606 543//543
f 543//543 606//606 607//607
f 543//543 607//607 544//544
f 544//544 607//607 608//608
f 544//544 608//608 545//545
f 545//545 608//608 609//609
f 545//545 609//609 546//546
f 546//546 609//609 610//610
f 546//546 610//610 547//547
f 547//547 610//610 611//611
f 547//547 611//611 548//548
f 548//548 611//611 612//612
f 548//548 612//612 549//549
f 549//549 612//612 613//613
f 549//549 613//613 550//550
f 550//550 613//613 614//614
f 550//550 614//614 551//551
f 551//551 614//614 615//615
f 551//551 615//615 552//552
f 552//552 615//615 616//616
f 552//552 616//616 553//553
f 553//553 616//616 617//617
f 553//553 617//617 554//554
f 554//554 617//617 618//618
f 554//554 618//618 555//555
f 555//555 618//618 619//619
f 555//555 619//619 556//556
f 556//556 619//619 620//620
f 556//556 620//620 557//557
f 557//557 620//620 621//621
f 557//557 621//621 558//558
f 558//558 621//621 622//622
f 558//558 622//622 559//559
f 559//559 622//622 623//623
f 559//559 623//623 560//560
f 560//560 623//623 624//624
f 560//560 624//624 561//561
f 561//561 624//624 625//625
f 561//561 625//625 562//562
f 562//562 625//625 626//626
f 562//562 626//626 563//563
f 563//563 626//626 627//627
f 563//563 627//627 564//564
f 564//564 627//627 628//628
f 564//564 628//628 565//565
f 565//565 628//628 629//629
f 565//565 629//629 566//566
f 566//566 629//629 630//630
f 566//566 630//630 567//567
f 567//567 630//630 631//631
f 567//567 631//631 568//568
f 568//568 631//631 632//632
f 568//568 632//632 569//569
f 569//569 632//632 633//633
f 569//569 633//633 570//570
f 570//570 633//633 634//634
f 570//570 634//634 571//571
f 571//571 634//634 635//635
f 571//571 635//635 572//572
f 572//572 635//635 636//636
f 572//572 636//636 573//573
f 573//573 636//636 637//637
f 573//573 637//637 574//574
f 574//574 637//637 638//638
f 574//574 638//638 575//575
f 575//575 638//638 639//639
f 575//575 639//639 576//576
f 576//576 639//639 640//640
f 576//576 640//640 577//577
f 577//577 640//640 641//641
f 577//577 641//641 514//514
f 514//514 641//641 578//578
o Visor
usemtl visor
f 642//642 667//667 643//643
f 643//643 667//667 668//668
f 643//643 668//668 644//644
f 644//644 668//668 669//669
f 644//644 669//669 645//645
f 645//645 669//669 670//670
f 645//645 670//670 646//646
f 646//646 670//670 671//671
f 646//646 671//671 647//647
f 647//647 671//671 672//672
f 647//647 672//672 648//648
f 648//648 672//672 673//673
f 648//648 673//673 649//649
f 649//649 673//673 674//674
f 649//649 674//674 650//650
f 650//650 674//674 675//675
f 650//650 675//675 651//651
f 651//651 675//675 676//676
f 651//651 676//676 652//652
f 652//652 676//676 677//677
f 652//652 677//677 653//653
f 653//653 677//677 678//678
f 653//653 678//678 654//654
f 654//654 678//678 679//679
f 654//654 679//679 655//655
f 655//655 679//679 680//680
f 655//655 680//680 656//656
f 656//656 680//680 681//681
f 656//656 681//681 657//657
f 657//657 681//681 682//682
f 657//657 682//682 658//658
f 658//658 682//682 683//683
f 658//658 683//683 659//659
f 659//659 683//683 684//684
f 659//659 684//684 660//660
f 660//660 684//684 685//685
f 660//660 685//685 661//661
f 661//661 685//685 686//686
f 661//661 686//686 662//662
f 662//662 686//686 687//687
f 662//662 687//687 663//663
f 663//663 687//687 688//688
f 663//663 688//688 664//664
f 664//664 688//688 689//689
f 664//664 689//689 665//665
f 665//665 689//689 690//690
f 665//665 690//690 666//666
f 666//666 690//690 691//691
f 667//667 692//692 668//668
f 668//668 692//692 693//693
f 668//668 693//693 669//669
f 669//669 693//693 694//694
f 669//669 694//694 670//670
f 670//670 694//694 695//695
f 670//670 695//695 671//671
f 671//671 695//695 696//696
f 671//671 696//696 672//672
f 672//672 696//696 697//697
f 672//672 697//697 673//673
f 673//673 697//697 698//698
f 673//673 698//698 674//674
f 674//674 698//698 699//699
f 674//674 699//699 675//675
f 675//675 699//699 700//700
f 675//675 700//700 676//676
f 676//676 700//700 701//701
f 676//676 701//701 677//677
f 677//677 701//701 702//702
f 677//677 702//702 678//678
f 678//678 702//702 703//703
f 678//678 703//703 679//679
f 679//679 703//703 704//704
f 679//679 704//704 680//680
f 680//680 704//704 705//705
f 680//680 705//705 681//681
f 681//681 705//705 706//706
f 681//681 706//706 682//682
f 682//682 706//706 707//707
f 682//682 707//707 683//683
f 683//683 707//707 708//708
f 683//683 708//708 684//684
f 684//684 708//708 709//709
f 684//684 709//709 685//685
f 685//685 709//709 710//710
f 685//685 710//710 686//686
f 686//686 710//710 711//711
f 686//686 711//711 687//687
f 687//687 711//711 712//712
f 687//687 712//712 688//688
f 688//688 712//712 713//713
f 688//688 713//713 689//689
f 689//689 713//713 714//714
f 689//689 714//714 690//690
f 690//690 714//714 715//715
f 690//690 715//715 691//691
f 691//691 715//715 716//716
f 717//717 742//742 718//718
f 718//718 742//742 743//743
f 718//718 743//743 719//719
f 719//719 743//743 744//744
f 719//719 744//744 720//720
f 720//720 744//744 745//745
f 720//720 745//745 721//721
f 721//721 745//745 746//746
f 721//721 746//746 722//722
f 722//722 746//746 747//747
f 722//722 747//747 723//723
f 723//723 747//747 748//748
f 723//723 748//748 724//724
f 724//724 748//748 749//749
f 724//724 749//749 725//725
f 725//725 749//749 750//750
f 725//725 750//750 726//726
f 726//726 750//750 751//751
f 726//726 751//751 727//727
f 727//727 751//751 752//752
f 727//727 752//752 728//728
f 728//728 752//752 753//753
f 728//728 753//753 729//729
f 729//729 753//753 754//754
f 729//729 754//754 730//730
f 730//730 754//754 755//755
f 730//730 755//755 731//731
f 731//731 755//755 756//756
f 731//731 756//756 732//732
f 732//732 756//756 757//757
f 732//732 757//757 733//733
f 733//733 757//757 758//758
f 733//733 758//758 734//734
f 734//734 758//758 759//759
f 734//734 759//759 735//735
f 735//735 759//759 760//760
f 735//735 760//760 736//736
f 736//736 760//760 761//761
f 736//736 761//761 737//737
f 737//737 761//761 762//762
f 737//737 762//762 738//738
f 738//738 762//762 763//763
f 738//738 763//763 739//739
f 739//739 763//763 764//764
f 739//739 764//764 740//740
f 740//740 764//764 765//765
f 740//740 765//765 741//741
f 741//741 765//765 766//766
f 742//742 767//767 743//743
f 743//743 767//767 768//768
f 743//743 768//768 744//744
f 744//744 768//768 769//769
f 744//744 769//769 745//745
f 745//745 769//769 770//770
f 745//745 770//770 746//746
f 746//746 770//770 771//771
f 746//746 771//771 747//747
f 747//747 771//771 772//772
f 747//747 772//772 748//748
f 748//748 772//772 773//773
f 748//748 773//773 749//749
f 749//749 773//773 774//774
f 749//749 774//774 750//750
f 750//750 774//774 775//775
f 750//750 775//775 751//751
f 751//751 775//775 776//776
f 751//751 776//776 752//752
f 752//752 776//776 777//777
f 752//752 777//777 753//753
f 753//753 777//777 778//778
f 753//753 778//778 754//754
f 754//754 778//778 779//779
f 754//754 779//779 755//755
f 755//755 779//779 780//780
f 755//755 780//780 756//756
f 756//756 780//780 781//781
f 756//756 781//781 757//757
f 757//757 781//781 782//782
f 757//757 782//782 758//758
f 758//758 782//782 783//783
f 758//758 783//783 759//759
f 759//759 783//783 784//784
f 759//759 784//784 760//760
f 760//760 784//784 785//785
f 760//760 785//785 761//761
f 761//761 785//785 786//786
f 761//761 786//786 762//762
f 762//762 786//786 787//787
f 762//762 787//787 763//763
f 763//763 787//787 788//788
f 763//763 788//788 764//764
f 764//764 788//788 789//789
f 764//764 789//789 765//765
f 765//765 789//789 790//790
f 765//765 790//790 766//766
f 766//766 790//790 791//791
o Brass
usemtl brass
f 792//792 793//793 795//795
f 792//792 795//795 794//794
f 796//796 798//798 799//799
f 796//796 799//799 797//797
f 792//792 796//796 797//797
f 792//792 797//797 793//793
f 794//794 795//795 799//799
f 794//794 799//799 798//798
f 792//792 794//794 798//798
f 792//792 798//798 796//796
f 793//793 797//797 799//799
f 793//793 799//799 795//795
f 800//800 801//801 803//803
f 800//800 803//803 802//802
f 804//804 806//806 807//807
f 804//804 807//807 805//805
f 800//800 804//804 805//805
f 800//800 805//805 801//801
f 802//802 803//803 807//807
f 802//802 807//807 806//806
f 800//800 802//802 806//806
f 800//800 806//806 804//804
f 801//801 805//805 807//807
f 801//801 807//807 803//803
f 808//808 809//809 811//811
f 808//808 811//811 810//810
f 812//812 814//814 815//815
f 812//812 815//815 813//813
f 808//808 812//812 813//813
f 808//808 813//813 809//809
f 810//810 811//811 815//815
f 810//810 815//815 814//814
f 808//808 810//810 814//814
f 808//808 814//814 812//812
f 809//809 813//813 815//815
f 809//809 815//815 811//811
f 816//816 817//817 819//819
f 816//816 819//819 818//818
f 820//820 822//822 823//823
f 820//820 823//823 821//821
f 816//816 820//820 821//821
f 816//816 821//821 817//817
f 818//818 819//819 823//823
f 818//818 823//823 822//822
f 816//816 818//818 822//822
f 816//816 822//822 820//820
f 817//817 821//821 823//823
f 817//817 823//823 819//819
f 824//824 825//825 827//827
f 824//824 827//827 826//826
f 828//828 830//830 831//831
f 828//828 831//831 829//829
f 824//824 828//828 829//829
f 824//824 829//829 825//825
f 826//826 827//827 831//831
f 826//826 831//831 830//830
f 824//824 826//826 830//830
f 824//824 830//830 828//828
f 825//825 829//829 831//831
f 825//825 831//831 827//827
