# Roblox asset pack: animal_gorilla (creatures), from the Studio model "Gorilla". Exported with Export Selection, split by tools/build_creatures.py: one object per rigid body. Units: studs. +Y up, front faces -Z, pivot (bottom centre) at the origin.
mtllib animal_gorilla.mtl

v 3.39420 1.23990 1.24000
v 3.39420 1.23990 -1.24000
v 4.05380 3.28990 1.24000
v 4.05380 3.28990 -1.24000
v -2.30250 7.04990 1.09000
v -3.04170 5.92990 -1.09000
v -3.04170 5.92990 1.09000
v -2.30250 7.04990 -1.09000
v 3.41540 0.01990 2.59000
v 3.41160 0.09990 1.77000
v 3.41540 0.37990 2.59000
v 3.41160 0.60990 1.77000
v 3.41160 0.09990 -1.77000
v 3.41540 0.01990 -2.59000
v 3.41540 0.37990 -2.59000
v 3.41160 0.60990 -1.77000
v 2.67590 0.01990 2.66000
v 2.93710 0.09990 1.89000
v 2.67590 0.37990 2.66000
v 2.93710 0.60990 1.89000
v 2.93710 0.09990 -1.89000
v 2.67590 0.01990 -2.66000
v 2.67590 0.37990 -2.66000
v 2.93710 0.60990 -1.89000
v -1.48750 6.16990 1.81000
v -1.93670 6.17990 1.66000
v -1.88810 6.02990 1.81000
v -1.53620 6.30990 1.66000
v -1.93670 6.17990 -1.66000
v -1.48750 6.16990 -1.81000
v -1.88810 6.02990 -1.81000
v -1.53620 6.30990 -1.66000
v -1.20540 7.07990 1.09000
v -1.20540 7.07990 -1.09000
v 0.14580 6.45990 1.66000
v 0.14580 6.45990 -1.66000
v 3.56730 1.35990 1.75000
v 3.25270 1.35990 0.56000
v 3.75950 2.90990 1.87000
v 3.36470 3.11990 0.37000
v 3.25270 1.35990 -0.56000
v 3.75950 2.90990 -1.87000
v 3.36470 3.11990 -0.37000
v 3.56730 1.35990 -1.75000
v 3.30210 -0.00010 0.48000
v 3.65210 0.51990 1.80000
v 3.65210 -0.00010 1.80000
v 3.30210 0.51990 0.48000
v 3.30210 -0.00010 -0.48000
v 3.65210 0.51990 -1.80000
v 3.30210 0.51990 -0.48000
v 3.65210 -0.00010 -1.80000
v -1.89030 6.12990 0.94000
v -1.54580 6.24990 0.94000
v -1.89030 6.12990 -0.94000
v -1.54580 6.24990 -0.94000
v 3.17800 0.79990 0.69000
v 3.43910 1.35990 1.68000
v 3.43910 0.79990 1.68000
v 3.17800 1.35990 0.69000
v 3.17800 0.79990 -0.69000
v 3.43910 1.35990 -1.68000
v 3.17800 1.35990 -0.69000
v 3.43910 0.79990 -1.68000
v 1.52270 0.01990 1.05000
v 2.33810 0.09990 1.49000
v 1.52270 0.01990 1.41000
v 2.33810 0.09990 0.98000
v 1.52270 0.01990 -1.05000
v 2.33810 0.09990 -1.49000
v 2.33810 0.09990 -0.98000
v 1.52270 0.01990 -1.41000
v 1.64710 0.01990 1.78000
v 2.55960 0.09990 1.93000
v 1.76290 0.01990 2.12000
v 2.39350 0.09990 1.44000
v 2.55960 0.09990 -1.93000
v 2.39350 0.09990 -1.44000
v 1.64710 0.01990 -1.78000
v 1.76290 0.01990 -2.12000
v -3.71220 3.25990 0.00000
v -3.50630 2.64990 0.85000
v -3.71220 3.25990 1.03000
v -3.50630 2.64990 0.00000
v -3.91800 3.85990 0.85000
v -3.50630 2.64990 -0.85000
v -3.91800 3.85990 0.00000
v -3.71220 3.25990 -1.03000
v -3.91800 3.85990 -0.85000
v -4.02730 4.17990 0.77000
v -3.94450 3.93990 0.77000
v -4.05380 4.25990 0.85000
v -4.05380 4.25990 0.21000
v -4.02730 4.17990 0.26000
v -3.94450 3.93990 0.13000
v -3.94450 3.93990 -0.13000
v -3.94450 3.93990 -0.77000
v -4.05380 4.25990 -0.21000
v -4.02730 4.17990 -0.26000
v -4.02730 4.17990 -0.77000
v -4.05380 4.25990 -0.85000
v 2.32470 -0.00010 2.15000
v 1.97470 -0.00010 0.83000
v 2.32470 -0.00010 -2.15000
v 1.97470 -0.00010 -0.83000
v 3.05880 0.37990 2.63000
v 3.05880 0.01990 2.63000
v 3.05880 0.37990 -2.63000
v 3.05880 0.01990 -2.63000
v -1.57260 5.62990 1.08000
v -1.71900 5.52990 1.60000
v -1.58070 5.57990 1.61000
v -1.71080 5.57990 1.08000
v -1.71900 5.52990 -1.60000
v -1.57260 5.62990 -1.08000
v -1.58070 5.57990 -1.61000
v -1.71080 5.57990 -1.08000
v -2.00100 0.42990 0.67000
v -1.73560 0.15990 2.01000
v -2.00100 0.42990 2.01000
v -1.73560 0.15990 0.67000
v -2.00100 0.42990 -2.01000
v -1.73560 0.15990 -0.67000
v -2.00100 0.42990 -0.67000
v -1.73560 0.15990 -2.01000
v -3.87780 4.22990 0.26000
v -3.79490 3.98990 0.77000
v -3.87780 4.22990 0.77000
v -3.79490 3.98990 0.13000
v -3.79490 3.98990 -0.77000
v -3.79490 3.98990 -0.13000
v -3.87780 4.22990 -0.26000
v -3.87780 4.22990 -0.77000
v 2.26210 2.90990 2.26000
v 2.37410 1.35990 2.07000
v 2.26210 2.90990 -2.26000
v 2.37410 1.35990 -2.07000
v -2.97730 5.79990 0.97000
v -3.27150 5.68990 0.00000
v -3.27150 5.77990 0.97000
v -2.97730 5.70990 0.00000
v -2.97730 5.79990 -0.97000
v -3.27150 5.77990 -0.97000
v -0.65800 0.15990 0.67000
v -0.65800 0.15990 2.01000
v -0.65800 0.15990 -2.01000
v -0.65800 0.15990 -0.67000
v 2.07640 4.41990 -1.46000
v 2.07640 4.41990 1.46000
v 2.32470 0.51990 2.15000
v 2.32470 0.51990 -2.15000
v 2.43680 0.09990 1.77000
v 2.32700 0.01990 2.58000
v 2.43680 0.09990 -1.77000
v 2.32700 0.01990 -2.58000
v 2.33810 0.60990 1.49000
v 2.33810 0.60990 0.98000
v 2.33810 0.60990 -1.49000
v 2.33810 0.60990 -0.98000
v -2.96080 4.40990 1.35000
v -3.26970 4.14990 -0.98000
v -3.26970 4.14990 0.98000
v -2.96080 4.40990 -1.35000
v 2.90040 0.09990 1.82000
v 2.90040 0.09990 -1.82000
v -3.16730 5.10990 0.70000
v -3.14170 4.62990 0.20000
v -3.14170 4.62990 0.70000
v -3.16730 5.10990 0.20000
v -3.16730 5.10990 -0.70000
v -3.14170 4.62990 -0.20000
v -3.16730 5.10990 -0.20000
v -3.14170 4.62990 -0.70000
v 2.44880 0.79990 1.94000
v 2.44880 1.35990 1.94000
v 2.44880 1.35990 -1.94000
v 2.44880 0.79990 -1.94000
v -3.12990 5.26990 0.84000
v -3.09200 4.56990 0.11000
v -3.09200 4.56990 0.84000
v -3.12990 5.26990 0.11000
v -3.12990 5.26990 -0.84000
v -3.09200 4.56990 -0.11000
v -3.12990 5.26990 -0.11000
v -3.09200 4.56990 -0.84000
v 1.76290 0.37990 2.12000
v 2.55960 0.60990 1.93000
v 1.76290 0.37990 -2.12000
v 2.55960 0.60990 -1.93000
v -0.45870 0.86990 2.24000
v -1.90390 2.63990 2.49000
v -2.20020 0.86990 2.22000
v -0.16240 2.63990 2.52000
v -1.90390 2.63990 -2.49000
v -0.45870 0.86990 -2.24000
v -2.20020 0.86990 -2.22000
v -0.16240 2.63990 -2.52000
v -3.22110 5.34990 1.01000
v -3.22110 5.26990 0.04000
v -3.22110 5.34990 -1.01000
v -3.22110 5.26990 -0.04000
v -2.90860 5.27990 0.84000
v -2.90860 5.27990 0.11000
v -2.90860 5.27990 -0.11000
v -2.90860 5.27990 -0.84000
v 1.98770 4.25990 -1.25000
v 1.98770 4.25990 1.25000
v 2.69410 3.76990 1.25000
v 2.69410 3.76990 -1.25000
v -2.88780 2.89990 -1.21000
v -2.88780 2.89990 1.21000
v 2.77460 3.96990 1.49000
v 2.77460 3.96990 -1.49000
v -3.01770 5.11990 0.70000
v -3.01770 5.11990 0.20000
v -3.01770 5.11990 -0.20000
v -3.01770 5.11990 -0.70000
v -1.85180 4.68990 2.45000
v -0.32590 4.68990 2.45000
v -0.32590 5.05990 0.92000
v -1.85180 5.05990 0.92000
v -1.85180 5.05990 -0.92000
v -0.32590 5.05990 -0.92000
v -1.85180 4.68990 -2.45000
v -0.32590 4.68990 -2.45000
v -1.37160 3.16990 2.27000
v -0.21340 3.16990 2.27000
v -1.37160 3.16990 -2.27000
v -0.21340 3.16990 -2.27000
v 2.39350 0.60990 1.44000
v 2.39350 0.60990 -1.44000
v -2.00100 0.86990 2.03000
v -0.65800 0.86990 2.04000
v -2.00100 0.86990 0.69000
v -2.20020 0.86990 0.48000
v -0.45870 0.86990 0.50000
v -0.65800 0.86990 0.69000
v -0.45870 0.86990 -0.50000
v -2.20020 0.86990 -0.48000
v -0.65800 0.86990 -0.69000
v -2.00100 0.86990 -0.69000
v -0.65800 0.86990 -2.04000
v -2.00100 0.86990 -2.03000
v -1.65050 3.18990 1.66000
v -1.65050 3.18990 -1.66000
v -2.79320 4.52990 0.65000
v -2.79320 4.52990 0.16000
v -2.79320 4.52990 -0.16000
v -2.79320 4.52990 -0.65000
v 2.32700 0.37990 2.58000
v 2.32700 0.37990 -2.58000
v 1.72810 1.54990 1.49000
v 1.72810 1.54990 -1.49000
v -1.72190 5.53990 1.81000
v -1.32130 5.66990 1.81000
v -1.32130 5.66990 -1.81000
v -1.72190 5.53990 -1.81000
v 2.05950 1.35990 0.87000
v 2.18770 1.35990 0.95000
v 2.18770 1.35990 -0.95000
v 2.05950 1.35990 -0.87000
v 0.79610 2.14990 1.46000
v 0.79610 2.14990 -1.46000
v 0.89010 2.30990 1.25000
v 0.89010 2.30990 -1.25000
v -1.90390 2.63990 0.75000
v -1.90390 2.63990 -0.75000
v 1.81310 1.74990 1.25000
v 1.81310 1.74990 -1.25000
v 1.52270 0.37990 1.41000
v 1.52270 0.37990 -1.41000
v -2.92690 5.36990 1.01000
v -2.92690 5.36990 -1.01000
v -1.85260 5.99990 1.08000
v -1.71430 6.04990 1.08000
v -1.85260 5.99990 -1.08000
v -1.71430 6.04990 -1.08000
v -2.53110 3.75990 0.79000
v -2.68900 4.22990 0.65000
v -1.73620 5.59990 1.66000
v -1.59800 5.63990 1.67000
v -2.53110 3.75990 -0.79000
v -2.68900 4.22990 -0.65000
v -1.73620 5.59990 -1.66000
v -1.59800 5.63990 -1.67000
v -2.87070 4.58990 0.84000
v -2.87070 4.58990 -0.84000
v -2.68900 4.22990 0.00000
v -1.37160 3.16990 1.11000
v -1.37160 3.16990 -1.11000
v -2.99210 4.63990 0.70000
v -2.99210 4.63990 -0.70000
v -1.67320 5.38990 1.66000
v -1.67320 5.38990 -1.66000
v -1.66360 5.45990 0.94000
v -1.86430 5.97990 1.66000
v -1.66360 5.45990 -0.94000
v -1.86430 5.97990 -1.66000
v -1.88740 6.03990 1.60000
v -1.88740 6.03990 -1.60000
v 1.86730 3.11990 0.76000
v 1.86730 3.11990 -0.76000
v -0.16240 2.63990 0.77000
v -0.16240 2.63990 -0.77000
v -1.74910 6.07990 1.61000
v -1.72600 6.01990 1.67000
v -1.74910 6.07990 -1.61000
v -1.72600 6.01990 -1.67000
v -0.21340 3.16990 1.11000
v -0.21340 3.16990 -1.11000
v -2.37320 3.29990 0.65000
v -2.37320 3.29990 -0.65000
v -1.27270 5.52990 1.66000
v -1.31910 5.56990 0.94000
v -1.27270 5.52990 -1.66000
v -1.31910 5.56990 -0.94000
v -2.87070 4.58990 0.11000
v -2.87070 4.58990 -0.11000
v -2.99210 4.63990 0.20000
v -2.99210 4.63990 -0.20000
v -2.92690 5.28990 0.04000
v -2.92690 5.28990 -0.04000
v 2.43680 0.60990 1.77000
v 2.43680 0.60990 -1.77000
v 1.52270 0.37990 1.05000
v 1.52270 0.37990 -1.05000
v -2.37320 3.29990 0.00000
v 1.64710 0.37990 1.78000
v 1.64710 0.37990 -1.78000
v 1.97470 0.51990 0.83000
v 1.97470 0.51990 -0.83000
v 2.18770 0.79990 0.95000
v 2.18770 0.79990 -0.95000
v 2.90040 0.60990 1.82000
v 2.90040 0.60990 -1.82000
v -2.53110 3.75990 0.00000
vt 0.24816 0.87671
vt 0.24790 0.72896
vt 0.37644 0.87648
vt 0.37617 0.72874
vt 0.58703 0.35751
vt 0.45677 0.27757
vt 0.58705 0.27759
vt 0.45676 0.35749
vt 0.01314 0.38410
vt 0.06215 0.38351
vt 0.01553 0.40531
vt 0.06558 0.41391
vt 1.06215 0.38351
vt 1.01314 0.38410
vt 1.01553 0.40531
vt 1.06558 0.41391
vt 0.39079 0.26971
vt 0.43980 0.26884
vt 0.39330 0.29090
vt 0.44340 0.29922
vt 1.43980 0.26884
vt 1.39079 0.26971
vt 1.39330 0.29090
vt 1.44340 0.29922
vt 0.00293 0.64002
vt 0.02809 0.62715
vt 0.02809 0.64002
vt 0.00293 0.62715
vt 1.02809 0.62715
vt 1.00293 0.64002
vt 1.02809 0.64002
vt 1.00293 0.62715
vt 0.77443 0.22768
vt 0.77444 0.35795
vt 0.70908 0.35796
vt 0.70907 0.22768
vt 0.62047 0.39165
vt 0.62044 0.19401
vt 0.38572 0.81558
vt 0.45882 0.80821
vt 0.38569 0.90875
vt 0.47868 0.91169
vt 1.45882 0.80821
vt 1.38569 0.90875
vt 1.47868 0.91169
vt 1.38571 0.81558
vt 0.67668 0.90328
vt 0.59493 0.93416
vt 0.59493 0.90327
vt 0.67667 0.93417
vt 1.67667 0.90328
vt 1.59493 0.93416
vt 1.67667 0.93417
vt 1.59493 0.90327
vt 0.02633 0.58412
vt 0.00469 0.58412
vt 1.02633 0.58412
vt 1.00469 0.58412
vt 0.66629 0.95388
vt 0.60530 0.98746
vt 0.60531 0.95387
vt 0.66629 0.98746
vt 1.66629 0.95388
vt 1.60530 0.98746
vt 1.66629 0.98746
vt 1.60531 0.95387
vt 0.98834 0.74280
vt 0.96238 0.79160
vt 0.96700 0.74280
vt 0.99297 0.79160
vt 1.98834 0.74280
vt 1.96238 0.79160
vt 1.99297 0.79160
vt 1.96699 0.74280
vt 0.73312 0.67784
vt 0.70720 0.72666
vt 0.71178 0.67786
vt 0.73780 0.72663
vt 1.70720 0.72666
vt 1.73780 0.72663
vt 1.73312 0.67784
vt 1.71178 0.67786
vt 0.06658 0.08708
vt 0.02845 0.03661
vt 0.06658 0.02564
vt 0.02845 0.08708
vt 0.10472 0.03661
vt 0.02845 0.13755
vt 0.10472 0.08708
vt 0.06658 0.14852
vt 0.10472 0.13755
vt 0.12497 0.04151
vt 0.10962 0.04151
vt 0.12987 0.03661
vt 0.12987 0.07451
vt 0.12497 0.07148
vt 0.10962 0.07916
vt 0.10962 0.09501
vt 0.10962 0.13266
vt 0.12987 0.09966
vt 0.12497 0.10268
vt 0.12497 0.13266
vt 0.12987 0.13755
vt 0.46234 0.99706
vt 0.38058 0.91533
vt 0.46233 0.91532
vt 0.38059 0.99707
vt 1.38058 0.91533
vt 1.46233 0.99706
vt 1.46233 0.91532
vt 1.38059 0.99707
vt 0.29986 0.00294
vt 0.29986 0.02428
vt 0.27852 0.02428
vt 0.27852 0.00294
vt 1.29986 0.00294
vt 1.27852 0.02428
vt 1.29986 0.02428
vt 1.27852 0.00294
vt 0.39080 0.18440
vt 0.39979 0.21554
vt 0.39110 0.21554
vt 0.39949 0.18440
vt 1.39979 0.21554
vt 1.39080 0.18440
vt 1.39110 0.21554
vt 1.39949 0.18440
vt 0.96942 0.45522
vt 0.94708 0.37524
vt 0.96943 0.37524
vt 0.94706 0.45521
vt 1.96943 0.37524
vt 1.94707 0.45521
vt 1.96941 0.45522
vt 1.94708 0.37524
vt 0.42657 0.06759
vt 0.41120 0.03762
vt 0.42656 0.03761
vt 0.41121 0.07527
vt 0.88074 0.09091
vt 0.88072 0.05326
vt 0.89608 0.06093
vt 0.89610 0.09091
vt 0.94232 0.73323
vt 0.93294 0.82592
vt 0.85946 0.82592
vt 0.85010 0.73322
vt 1.94232 0.73323
vt 1.85946 0.82592
vt 1.93294 0.82592
vt 1.85010 0.73322
vt 0.97770 0.14178
vt 0.99523 0.08393
vt 0.99524 0.14177
vt 0.97769 0.08393
vt 1.97770 0.14178
vt 1.99523 0.08393
vt 1.97769 0.08393
vt 1.99524 0.14177
vt 0.98061 0.29054
vt 0.91644 0.37052
vt 0.91644 0.29054
vt 0.98061 0.37052
vt 1.98061 0.37052
vt 1.91644 0.29054
vt 1.91644 0.37052
vt 1.98061 0.29054
vt 0.19956 0.19607
vt 0.00293 0.38041
vt 0.00536 0.20266
vt 0.21648 0.37224
vt 0.14081 0.97314
vt 0.05907 0.94225
vt 0.14081 0.94225
vt 0.05907 0.97314
vt 1.14081 0.94225
vt 1.05907 0.94225
vt 1.14081 0.97314
vt 1.05907 0.97314
vt 0.94196 0.82457
vt 0.99076 0.79861
vt 0.99076 0.81995
vt 0.94196 0.79398
vt 1.94196 0.82457
vt 1.99076 0.79861
vt 1.94196 0.79398
vt 1.99076 0.81995
vt 0.68679 0.93415
vt 0.68679 0.90356
vt 0.71738 0.93415
vt 0.71738 0.90356
vt 1.68679 0.90356
vt 1.71738 0.93415
vt 1.71738 0.90356
vt 1.68679 0.93415
vt 0.60202 0.18738
vt 0.46336 0.16339
vt 0.58049 0.16341
vt 0.44182 0.18735
vt 0.99297 0.87574
vt 0.96700 0.82694
vt 0.98834 0.82694
vt 0.96238 0.87574
vt 1.99297 0.87574
vt 1.96700 0.82694
vt 1.96238 0.87574
vt 1.98834 0.82694
vt 0.48019 0.36132
vt 0.45203 0.39073
vt 0.45203 0.36132
vt 0.48019 0.39073
vt 1.48019 0.36132
vt 1.45203 0.39073
vt 1.48019 0.39073
vt 1.45203 0.36132
vt 0.13044 0.92254
vt 0.06945 0.88896
vt 0.13044 0.88896
vt 0.06945 0.92254
vt 1.13044 0.88896
vt 1.06945 0.88896
vt 1.13044 0.92254
vt 1.06945 0.92254
vt 0.53453 0.01302
vt 0.49286 0.05653
vt 0.49286 0.01302
vt 0.53453 0.05653
vt 1.53453 0.01302
vt 1.49286 0.05653
vt 1.53453 0.05653
vt 1.49286 0.01302
vt 0.26980 0.29907
vt 0.22079 0.29980
vt 0.26735 0.27787
vt 0.21727 0.26941
vt 1.26735 0.27787
vt 1.22079 0.29980
vt 1.26980 0.29907
vt 1.21727 0.26941
vt 0.39432 0.79816
vt 0.48901 0.69925
vt 0.49764 0.80697
vt 0.38569 0.69030
vt 1.48901 0.69925
vt 1.39432 0.79816
vt 1.49764 0.80697
vt 1.38569 0.69030
vt 0.99310 0.93741
vt 0.96748 0.87960
vt 0.99303 0.87957
vt 0.96755 0.93744
vt 1.99310 0.93741
vt 1.96748 0.87960
vt 1.96755 0.93744
vt 1.99303 0.87957
vt 0.21217 0.26278
vt 0.21218 0.21927
vt 0.22537 0.26278
vt 0.22538 0.21927
vt 1.22537 0.26278
vt 1.22538 0.21927
vt 1.21218 0.21927
vt 1.21217 0.26278
vt 0.18660 0.18454
vt 0.01888 0.19028
vt 0.04835 0.15391
vt 0.16068 0.15097
vt 0.44968 0.08527
vt 0.59419 0.08529
vt 0.63066 0.39442
vt 0.71683 0.55717
vt 0.63065 0.54217
vt 0.71684 0.37944
vt 0.98789 0.31603
vt 0.98790 0.28663
vt 0.99681 0.31603
vt 0.99682 0.28663
vt 1.99681 0.31603
vt 1.99682 0.28663
vt 1.98790 0.28663
vt 1.98789 0.31603
vt 0.24180 0.94640
vt 0.15094 0.94641
vt 0.15093 0.85292
vt 0.24179 0.85290
vt 1.24179 0.85290
vt 1.15093 0.85292
vt 1.24180 0.94640
vt 1.15094 0.94641
vt 0.40713 0.56528
vt 0.46062 0.66228
vt 0.39195 0.65587
vt 0.49760 0.57372
vt 1.46062 0.66228
vt 1.40713 0.56528
vt 1.39195 0.65587
vt 1.49760 0.57372
vt 0.84500 0.43182
vt 0.87559 0.43181
vt 0.84501 0.46241
vt 0.87560 0.46240
vt 1.87559 0.43181
vt 1.84501 0.46241
vt 1.87560 0.46240
vt 1.84500 0.43182
vt 0.77865 0.18388
vt 0.88235 0.18460
vt 0.87049 0.19607
vt 0.79052 0.19582
vt 0.87049 0.27604
vt 0.88235 0.28830
vt 0.77865 0.28758
vt 0.79052 0.27580
vt 1.77865 0.28758
vt 1.88235 0.28830
vt 1.79052 0.27580
vt 1.87049 0.27604
vt 1.79052 0.19582
vt 1.77865 0.18388
vt 1.88235 0.18460
vt 1.87049 0.19607
vt 0.84048 0.90638
vt 0.75569 0.93812
vt 0.74293 0.85897
vt 0.83500 0.93813
vt 0.95972 0.01661
vt 0.92700 0.10103
vt 0.88072 0.00293
vt 0.95881 0.09591
vt 0.95217 0.62282
vt 0.99418 0.55865
vt 0.99417 0.62282
vt 0.95217 0.54285
vt 0.97838 0.54284
vt 1.99418 0.55865
vt 1.95217 0.62282
vt 1.99417 0.62282
vt 1.95217 0.54285
vt 1.97838 0.54284
vt 0.60434 0.11380
vt 0.60433 0.15145
vt 0.59493 0.15145
vt 0.59493 0.11380
vt 0.23769 0.19661
vt 0.24709 0.15896
vt 0.24710 0.19661
vt 0.23769 0.15896
vt 0.58853 0.08014
vt 0.55920 0.00452
vt 0.59707 0.00294
vt 0.55948 0.08136
vt 0.40314 0.04002
vt 0.40309 0.11686
vt 0.37404 0.11574
vt 0.36527 0.03855
vt 0.23258 0.50554
vt 0.33782 0.70128
vt 0.23262 0.72769
vt 0.32724 0.51082
vt 0.38799 0.62482
vt 0.38292 0.54506
vt 0.62239 0.73738
vt 0.50838 0.67667
vt 0.69884 0.68719
vt 0.54263 0.73234
vt 0.50307 0.58201
vt 0.72522 0.58198
vt 0.26924 0.00294
vt 0.26924 0.02428
vt 0.24790 0.02428
vt 0.24790 0.00294
vt 1.26924 0.00294
vt 1.24789 0.02428
vt 1.26923 0.02428
vt 1.24790 0.00294
vt 0.35642 0.03876
vt 0.35791 0.19539
vt 0.25810 0.17404
vt 0.26927 0.04625
vt 0.59493 0.83104
vt 0.72974 0.73208
vt 0.75156 0.83178
vt 0.60200 0.74385
vt 0.16670 0.14523
vt 0.13562 0.14523
vt 0.13562 0.12007
vt 0.16670 0.12007
vt 1.16670 0.14523
vt 1.13562 0.12007
vt 1.13562 0.14523
vt 1.16670 0.12007
vt 0.48380 0.07018
vt 0.47755 0.00295
vt 0.48380 0.00919
vt 0.47756 0.07643
vt 0.55104 0.07642
vt 0.54479 0.07017
vt 0.55103 0.00294
vt 0.54478 0.00919
vt 1.54478 0.00919
vt 1.55104 0.07642
vt 1.55103 0.00294
vt 1.54479 0.07017
vt 1.48380 0.00919
vt 1.47755 0.00295
vt 1.48380 0.07018
vt 1.47756 0.07643
vt 0.99558 0.45395
vt 0.99560 0.37397
vt 1.99558 0.45395
vt 1.99560 0.37397
vt 0.61161 0.57818
vt 0.45203 0.40693
vt 0.61162 0.35603
vt 0.45373 0.56216
vt 0.22508 0.57951
vt 0.05328 0.42052
vt 0.20851 0.42168
vt 0.00293 0.58029
vt 0.01979 0.01666
vt 0.00588 0.00293
vt 0.19269 0.03301
vt 0.20737 0.02200
vt 0.12052 0.69167
vt 0.21842 0.59377
vt 0.22373 0.70171
vt 0.11520 0.58374
vt 1.12052 0.69167
vt 1.21842 0.59377
vt 1.11521 0.58374
vt 1.22373 0.70171
vt 0.85359 0.29701
vt 0.90915 0.42354
vt 0.84500 0.42799
vt 0.90436 0.29038
vt 0.73327 0.89982
vt 0.60523 0.84782
vt 0.73592 0.83557
vt 0.60003 0.89875
vt 0.12684 0.41148
vt 0.07782 0.41209
vt 0.12444 0.39027
vt 0.07438 0.38169
vt 1.12443 0.39027
vt 1.07782 0.41209
vt 1.12684 0.41148
vt 1.07438 0.38169
vt 0.61244 0.28926
vt 0.59506 0.26473
vt 0.61258 0.26371
vt 0.59493 0.29028
vt 1.59506 0.26473
vt 1.61244 0.28926
vt 1.61258 0.26371
vt 1.59493 0.29028
vt 0.44454 0.30409
vt 0.22238 0.50171
vt 0.22239 0.30407
vt 0.44453 0.50173
vt 0.14583 0.00294
vt 0.17234 0.01163
vt 0.14583 0.01163
vt 0.17234 0.00294
vt 1.14583 0.01163
vt 1.17234 0.01163
vt 1.14583 0.00294
vt 1.17234 0.00294
vt 0.87451 0.18067
vt 0.77356 0.01792
vt 0.87452 0.00293
vt 0.77355 0.16567
vt 0.52228 0.95141
vt 0.52810 0.87380
vt 0.56191 0.94946
vt 0.55850 0.87231
vt 0.39948 0.22087
vt 0.39079 0.22087
vt 0.86702 0.60869
vt 0.94267 0.64252
vt 0.86552 0.63910
vt 0.94463 0.60289
vt 1.39948 0.22087
vt 1.39079 0.22087
vt 0.37848 0.12002
vt 0.37847 0.16169
vt 0.36527 0.16169
vt 0.36528 0.12001
vt 1.37848 0.12002
vt 1.36527 0.16169
vt 1.37847 0.16169
vt 1.36528 0.12001
vt 0.96748 0.00396
vt 0.98913 0.07950
vt 0.96758 0.08029
vt 0.99558 0.00294
vt 0.20790 0.84087
vt 0.13759 0.73824
vt 0.20623 0.74492
vt 0.11521 0.85315
vt 0.21195 0.40466
vt 0.13562 0.40466
vt 0.13637 0.38310
vt 0.21293 0.37656
vt 1.20790 0.84087
vt 1.13759 0.73824
vt 1.11521 0.85315
vt 1.20623 0.74492
vt 0.99682 0.31986
vt 0.99681 0.34802
vt 0.98789 0.34802
vt 0.98790 0.31986
vt 1.99682 0.31986
vt 1.98789 0.34802
vt 1.99681 0.34802
vt 1.98790 0.31986
vt 0.80818 0.19983
vt 0.81175 0.20844
vt 0.79907 0.20893
vt 0.80796 0.21221
vt 1.81175 0.20844
vt 1.79907 0.20893
vt 1.80796 0.21221
vt 1.80818 0.19983
vt 0.57779 0.87220
vt 0.58706 0.94933
vt 0.86541 0.65839
vt 0.94253 0.66767
vt 0.81047 0.24325
vt 0.80253 0.25186
vt 0.83926 0.19982
vt 0.83570 0.20843
vt 0.83698 0.24325
vt 0.84492 0.25186
vt 1.80253 0.25186
vt 1.83698 0.24325
vt 1.81047 0.24325
vt 1.84492 0.25186
vt 1.83926 0.19982
vt 1.83570 0.20843
vt 0.84837 0.20893
vt 0.83947 0.21221
vt 1.84837 0.20893
vt 1.83947 0.21221
vt 0.82969 0.56252
vt 0.92272 0.47030
vt 0.92272 0.56252
vt 0.82969 0.47030
vt 1.92272 0.56252
vt 1.92272 0.47030
vt 1.82969 0.56252
vt 1.82969 0.47030
vt 0.76850 0.20058
vt 0.61024 0.01488
vt 0.76848 0.00293
vt 0.61025 0.18866
vt 0.74871 0.62966
vt 0.84610 0.72724
vt 0.74293 0.73771
vt 0.85188 0.61919
vt 1.74871 0.62966
vt 1.84610 0.72724
vt 1.85188 0.61919
vt 1.74293 0.73771
vt 0.25300 0.88432
vt 0.28450 0.88431
vt 0.25551 0.91536
vt 0.28202 0.91536
vt 0.25677 0.88054
vt 0.28072 0.88054
vt 1.28450 0.88431
vt 1.25551 0.91536
vt 1.28202 0.91536
vt 1.25300 0.88432
vt 1.25677 0.88054
vt 1.28072 0.88054
vt 0.76093 0.76771
vt 0.82956 0.76080
vt 0.75925 0.85955
vt 0.85188 0.87225
vt 1.82956 0.76080
vt 1.75925 0.85955
vt 1.85188 0.87225
vt 1.76093 0.76771
vt 0.48265 0.94932
vt 0.49770 0.87220
vt 0.86542 0.57829
vt 0.94254 0.56326
vt 0.78776 0.34379
vt 0.82794 0.33469
vt 0.81884 0.34380
vt 0.77865 0.33469
vt 0.82450 0.29176
vt 0.78210 0.29176
vt 1.77865 0.33469
vt 1.82450 0.29176
vt 1.78210 0.29176
vt 1.82794 0.33469
vt 1.78776 0.34379
vt 1.81884 0.34380
vt 0.29508 0.30027
vt 0.36660 0.21434
vt 0.42933 0.24920
vt 0.23381 0.22403
vt 0.44482 0.15398
vt 0.43162 0.11230
vt 0.44482 0.11230
vt 0.43162 0.15398
vt 1.43162 0.11230
vt 1.44482 0.15398
vt 1.44482 0.11230
vt 1.43162 0.15398
vt 0.61406 0.32197
vt 0.60514 0.29381
vt 0.61405 0.29381
vt 0.60514 0.32197
vt 1.60514 0.29381
vt 1.61406 0.32197
vt 1.61405 0.29381
vt 1.60514 0.32197
vt 0.99522 0.25727
vt 0.99606 0.28280
vt 0.97852 0.28226
vt 0.97769 0.25673
vt 1.99606 0.28280
vt 1.99522 0.25727
vt 1.97852 0.28226
vt 1.97769 0.25673
vt 0.13562 0.11476
vt 0.17759 0.03631
vt 0.17759 0.11628
vt 0.13562 0.03479
vt 1.13562 0.11476
vt 1.17759 0.03631
vt 1.13562 0.03479
vt 1.17759 0.11628
vt 0.03355 0.78167
vt 0.03357 0.58402
vt 0.10921 0.61060
vt 0.10920 0.75511
vt 1.02809 0.64385
vt 1.00293 0.64385
vt 1.02809 0.65673
vt 1.00293 0.65673
vt 0.02809 0.65673
vt 0.00293 0.64385
vt 0.02809 0.64385
vt 0.00293 0.65673
vt 0.40530 0.00294
vt 0.39590 0.01829
vt 0.39589 0.00294
vt 0.40530 0.01829
vt 0.37038 0.01234
vt 0.38573 0.00294
vt 0.38573 0.01235
vt 0.37038 0.00294
vt 0.92665 0.47485
vt 0.96866 0.53902
vt 0.92666 0.53902
vt 0.96865 0.45904
vt 0.94245 0.45904
vt 1.92665 0.47485
vt 1.96865 0.45904
vt 1.94245 0.45904
vt 1.96866 0.53902
vt 1.92666 0.53902
vt 0.18160 0.01244
vt 0.19872 0.00294
vt 0.19877 0.01234
vt 0.18155 0.00303
vt 0.36447 0.00294
vt 0.35507 0.02011
vt 0.35507 0.00294
vt 0.36447 0.02011
vt 0.83450 0.35704
vt 0.82584 0.46475
vt 0.73118 0.36582
vt 0.72251 0.47368
vt 1.83450 0.35704
vt 1.73117 0.36582
vt 1.82584 0.46475
vt 1.72251 0.47368
vt 0.79719 0.50524
vt 0.72843 0.51062
vt 1.79719 0.50524
vt 1.72843 0.51062
vt 0.99423 0.14560
vt 0.97258 0.18800
vt 0.97258 0.14560
vt 0.99422 0.18800
vt 1.97258 0.14560
vt 1.97258 0.18800
vt 1.99423 0.14560
vt 1.99423 0.18800
vt 0.24277 0.74659
vt 0.21217 0.77718
vt 0.21218 0.74658
vt 0.24276 0.77718
vt 1.24277 0.74659
vt 1.21217 0.74658
vt 1.21217 0.77718
vt 1.24276 0.77718
vt 0.83447 0.61621
vt 0.74388 0.62323
vt 1.83447 0.61621
vt 1.74388 0.62323
vt 0.42734 0.15950
vt 0.40610 0.20638
vt 0.40611 0.15736
vt 0.43654 0.20944
vt 1.40610 0.20638
vt 1.42734 0.15950
vt 1.40611 0.15736
vt 1.43654 0.20944
vt 0.94821 0.87928
vt 0.87051 0.84058
vt 0.94820 0.82881
vt 0.87052 0.87930
vt 0.87053 0.91801
vt 0.94822 0.92975
vt 0.59018 0.86838
vt 0.49796 0.86837
vt 0.58082 0.76343
vt 0.50734 0.76343
vt 1.59018 0.86838
vt 1.58082 0.76343
vt 1.49796 0.86837
vt 1.50734 0.76343
vt 0.23861 0.00294
vt 0.21728 0.02429
vt 0.21727 0.00295
vt 0.23862 0.02428
vt 1.21728 0.02429
vt 1.23861 0.00294
vt 1.21727 0.00295
vt 1.23862 0.02428
vt 0.90114 0.20253
vt 0.98288 0.20253
vt 0.98288 0.23342
vt 0.90113 0.23342
vt 1.98288 0.20253
vt 1.90114 0.20253
vt 1.98288 0.23342
vt 1.90113 0.23342
vt 0.91151 0.25313
vt 0.97250 0.25313
vt 0.97250 0.28672
vt 0.91151 0.28671
vt 1.91151 0.25313
vt 1.97250 0.28672
vt 1.97250 0.25313
vt 1.91151 0.28671
vt 0.88580 0.66529
vt 0.88117 0.71587
vt 0.85983 0.71587
vt 0.85520 0.66529
vt 0.34845 0.02689
vt 0.33976 0.00294
vt 0.34845 0.00294
vt 0.33976 0.02689
vt 1.88580 0.66529
vt 1.85983 0.71587
vt 1.88117 0.71587
vt 1.85520 0.66529
vt 1.33976 0.00294
vt 1.34845 0.02689
vt 1.34845 0.00294
vt 1.33976 0.02689
vt 0.22027 0.21544
vt 0.20708 0.17193
vt 0.22027 0.17193
vt 0.20707 0.21544
vt 1.22027 0.21544
vt 1.20707 0.17193
vt 1.20707 0.21544
vt 1.22027 0.17193
vt 0.92019 0.19871
vt 0.92019 0.15158
vt 0.94945 0.19030
vt 0.94944 0.15158
vt 0.94944 0.11286
vt 0.92018 0.10445
vt 0.96874 0.16122
vt 0.96874 0.19029
vt 0.96873 0.14193
vt 0.96873 0.11286
vt 0.89094 0.19030
vt 0.89093 0.15158
vt 0.89093 0.11287
vt 0.84371 0.32131
vt 0.83480 0.29191
vt 0.84371 0.29191
vt 0.83479 0.32131
vt 1.84371 0.32131
vt 1.83479 0.29191
vt 1.83479 0.32131
vt 1.84371 0.29191
vt 0.33048 0.02428
vt 0.30914 0.00294
vt 0.33048 0.00294
vt 0.30914 0.02428
vt 1.33048 0.02428
vt 1.33048 0.00294
vt 1.30914 0.00294
vt 1.30914 0.02428
vt 0.96699 0.67722
vt 0.99297 0.62665
vt 0.98833 0.67723
vt 0.96238 0.62665
vt 1.99297 0.62665
vt 1.96699 0.67722
vt 1.98833 0.67723
vt 1.96238 0.62665
vt 0.01973 0.78486
vt 0.09579 0.88320
vt 0.00293 0.88887
vt 0.09303 0.79008
vt 1.09579 0.88320
vt 1.01973 0.78486
vt 1.00293 0.88887
vt 1.09303 0.79008
vt 0.37557 0.91136
vt 0.29383 0.88047
vt 0.37557 0.88047
vt 0.29383 0.91136
vt 1.29383 0.91136
vt 1.37557 0.91136
vt 1.29383 0.88047
vt 1.37557 0.88047
vt 0.05904 0.89145
vt 0.02845 0.92204
vt 0.02845 0.89145
vt 0.05904 0.92204
vt 1.05904 0.89145
vt 1.02845 0.89145
vt 1.02845 0.92204
vt 1.05904 0.92204
vt 0.94737 0.73903
vt 0.97262 0.68105
vt 0.97292 0.73890
vt 0.94706 0.68119
vt 1.94737 0.73903
vt 1.97262 0.68105
vt 1.94707 0.68119
vt 1.97292 0.73890
vt 0.36519 0.96466
vt 0.30420 0.93107
vt 0.36519 0.93107
vt 0.30420 0.96465
vt 1.36519 0.93107
vt 1.30420 0.93107
vt 1.36519 0.96466
vt 1.30420 0.96465
vt 0.61454 0.20295
vt 0.60514 0.23292
vt 0.60514 0.20295
vt 0.61454 0.23292
vt 0.90033 0.24702
vt 0.89093 0.27699
vt 0.89093 0.24702
vt 0.90033 0.27699
vt 0.25013 0.15513
vt 0.23259 0.09729
vt 0.25013 0.09729
vt 0.23258 0.15513
vt 1.25013 0.15513
vt 1.23259 0.09729
vt 1.23258 0.15513
vt 1.25013 0.09729
vt 0.24872 0.04352
vt 0.22748 0.09039
vt 0.22749 0.04138
vt 0.25792 0.09346
vt 1.22748 0.09039
vt 1.24872 0.04352
vt 1.22749 0.04138
vt 1.25792 0.09346
vt 0.36341 0.20657
vt 0.23177 0.20459
vt 0.46089 0.03267
vt 0.47007 0.03164
vt 0.21379 0.03773
vt 0.21217 0.03162
vt 0.00469 0.69976
vt 0.02633 0.69976
vt 1.00469 0.69976
vt 1.02633 0.69976
vt 0.88072 0.46028
vt 0.93130 0.43432
vt 0.93130 0.45566
vt 0.88072 0.42969
vt 1.88072 0.46028
vt 1.93130 0.43432
vt 1.88073 0.42969
vt 1.93130 0.45566
vt 0.41202 0.50769
vt 0.39079 0.55457
vt 0.39079 0.50555
vt 0.42123 0.55764
vt 1.39079 0.55457
vt 1.41202 0.50769
vt 1.39079 0.50555
vt 1.42123 0.55764
vt 0.91690 0.66959
vt 0.92152 0.72017
vt 0.89093 0.72017
vt 0.89556 0.66959
vt 1.92152 0.72017
vt 1.89555 0.66959
vt 1.89093 0.72017
vt 1.91690 0.66959
vt 0.02416 0.41232
vt 0.00293 0.45920
vt 0.00293 0.41018
vt 0.03337 0.46227
vt 1.00293 0.45920
vt 1.02416 0.41232
vt 1.00293 0.41018
vt 1.03337 0.46227
vt 0.99659 0.22831
vt 0.98820 0.19716
vt 0.99689 0.19716
vt 0.98790 0.22830
vt 1.98820 0.19716
vt 1.99659 0.22831
vt 1.99689 0.19716
vt 1.98790 0.22830
vt 0.98789 0.19183
vt 0.99658 0.19183
vt 1.99658 0.19183
vt 1.98789 0.19183
vn 0.9528 -0.3071 0.0000
vn -0.8346 0.5512 0.0000
vn 1.0000 0.0000 -0.0079
vn 1.0000 0.0000 0.0079
vn 0.9449 0.0000 0.3150
vn 0.9449 0.0000 -0.3150
vn -0.2283 0.6693 0.7087
vn -0.2283 0.6693 -0.7087
vn -0.0315 1.0000 0.0000
vn 0.2205 0.9764 0.0000
vn 0.4173 0.9055 0.0000
vn 0.9606 -0.0945 -0.2598
vn 0.9606 -0.0945 0.2598
vn 0.9685 0.0000 -0.2520
vn 0.9685 0.0000 0.2520
vn -0.3150 0.9449 -0.0787
vn -0.3150 0.9449 0.0787
vn 0.1024 -0.9921 0.0000
vn 0.0945 -0.9921 -0.0315
vn 0.0945 -0.9921 0.0315
vn -0.9449 -0.3228 0.0000
vn 0.0000 -1.0000 0.0000
vn 0.1024 0.0000 0.9921
vn 0.1024 0.0000 -0.9921
vn -0.3228 0.9449 0.0787
vn -0.3228 0.9449 -0.0787
vn -0.7087 -0.7087 0.0000
vn 0.2520 -0.1024 0.9606
vn 0.2520 -0.1024 -0.9606
vn -0.0551 0.9921 -0.0866
vn -0.0551 0.9921 0.0866
vn 0.7244 0.6850 0.0000
vn 0.2520 0.0000 0.9685
vn 0.2520 0.0000 -0.9685
vn 0.0236 -0.9921 -0.0945
vn 0.0236 -0.9921 0.0945
vn 1.0000 0.0000 0.0000
vn -0.6378 0.7638 0.0000
vn -0.0079 -0.9921 -0.1024
vn -0.0079 -0.9921 0.1024
vn -1.0000 -0.0551 0.0000
vn 0.2283 0.0000 0.9764
vn 0.2283 0.0000 -0.9764
vn -0.0079 -0.1496 0.9921
vn -0.0079 -0.1496 -0.9921
vn -0.9921 -0.1181 0.0079
vn -0.9921 -0.1181 -0.0079
vn -0.0551 1.0000 0.0000
vn 0.5669 0.8189 0.0000
vn -0.9606 -0.2913 0.0000
vn 0.4646 0.8819 0.0000
vn 0.0000 0.9685 0.2362
vn 0.0000 0.9685 -0.2362
vn 0.0000 -0.1181 0.9921
vn 0.0000 -0.1181 -0.9921
vn 0.9449 0.0000 -0.3228
vn 0.9449 0.0000 0.3228
vn -0.0079 0.4094 0.9134
vn -0.0079 0.4094 -0.9134
vn -0.2913 0.0472 0.9606
vn -0.4331 -0.1024 0.8976
vn -0.2835 0.0472 0.9606
vn -0.4331 -0.1024 -0.8976
vn -0.2913 0.0472 -0.9606
vn -0.2835 0.0472 -0.9606
vn -0.0079 -0.0315 1.0000
vn -0.0079 -0.0315 -1.0000
vn -0.3228 0.9449 0.0000
vn -0.2126 0.9764 0.0000
vn -0.1732 0.1496 0.9764
vn -0.1732 0.1496 -0.9764
vn -0.2283 0.0000 0.9764
vn -0.2283 0.0000 -0.9764
vn 0.1496 -0.0551 0.9843
vn 0.1496 -0.0551 -0.9843
vn 0.0000 0.0000 1.0000
vn 0.0000 0.0000 -1.0000
vn 0.8189 0.5276 -0.2126
vn 0.8189 0.5276 0.2126
vn -1.0000 0.0000 0.0000
vn 0.0630 -0.0394 1.0000
vn 0.0630 -0.0394 -1.0000
vn 0.8661 -0.4961 0.0000
vn 0.8740 -0.4882 0.0000
vn -0.9843 0.1654 0.0000
vn -0.0945 0.0000 0.9921
vn -0.0945 0.0000 -0.9921
vn 0.0000 0.0866 1.0000
vn 0.0000 0.0866 -1.0000
vn -0.8740 0.4803 0.0000
vn -0.0315 -0.0079 1.0000
vn -0.0315 -0.0079 -1.0000
vn 0.2126 0.5276 0.8189
vn 0.2126 0.5276 -0.8189
vn -0.1890 -0.9843 0.0000
vn 0.0630 0.3071 0.9528
vn -0.2047 0.6772 -0.7087
vn 0.0630 0.3071 -0.9528
vn -0.2047 0.6772 0.7087
vn -0.1260 0.4331 -0.8976
vn -0.9606 -0.2677 -0.0394
vn -0.1260 0.4331 0.8976
vn -0.9606 -0.2677 0.0394
vn -0.7087 0.7087 0.0000
vn -0.9528 -0.2992 -0.0079
vn -0.9528 -0.2992 0.0079
vn 0.1417 0.0472 0.9921
vn 0.1417 0.0472 -0.9921
vn -0.9449 -0.3150 -0.0394
vn -0.9449 -0.3150 -0.0315
vn -0.9449 -0.3150 0.0315
vn -0.9449 -0.3150 0.0394
vn -0.9449 -0.3228 -0.0394
vn -0.9449 -0.3228 0.0394
vn -0.9370 -0.3386 -0.0079
vn -0.9370 -0.3386 0.0079
vn 0.0315 0.9921 0.1260
vn 0.0315 0.9921 -0.1260
vn -0.3937 -0.9213 0.0000
vn 0.9843 -0.1654 0.0000
vn 1.0000 0.0630 0.0079
vn 1.0000 0.0630 -0.0079
vn 0.9921 0.0945 0.0000
vn 0.2756 -0.1968 0.9449
vn 0.2756 -0.1968 -0.9449
vn 0.9449 0.3150 -0.0315
vn 0.9449 0.3150 0.0315
vn -0.5197 -0.8583 0.0000
vn 0.0000 -0.0866 -1.0000
vn 0.0000 -0.0866 1.0000
vn 0.2283 -0.9764 0.0000
vn 0.2283 -0.6693 -0.7087
vn 0.2283 -0.6693 0.7087
vn 0.0079 0.0315 -1.0000
vn 0.0079 0.0315 1.0000
vn 0.1417 -0.4252 0.8976
vn 0.1417 -0.4252 -0.8976
vn 0.0079 0.1496 -0.9921
vn 0.0079 0.1496 0.9921
vn 0.0079 0.5433 -0.8346
vn 0.0079 0.5433 0.8346
vn 0.0000 -0.0945 -0.9921
vn 0.0000 -0.0945 0.9921
vn 0.4961 -0.8661 0.0000
vn -0.2520 -0.0866 -0.9606
vn -0.2520 -0.0866 0.9606
vn -0.9449 0.0000 0.3228
vn -0.9449 0.0000 -0.3228
vn -0.2520 0.0000 -0.9685
vn -0.2520 0.0000 0.9685
vn 0.0315 0.9606 0.2756
vn 0.0315 0.0079 -1.0000
vn 0.0315 0.9606 -0.2756
vn 0.0315 0.0079 1.0000
vn 0.0551 -1.0000 0.0000
vn 0.9449 0.3228 0.0000
vn -0.0630 0.9606 0.2756
vn -0.0630 0.9606 -0.2756
vn -0.9606 -0.0945 0.2441
vn -0.9606 -0.0945 -0.2441
vn -0.9685 0.0000 0.2520
vn -0.9685 0.0000 -0.2520
vn -0.1024 0.0000 -0.9921
vn -0.1024 0.0000 0.9921
vn 0.9921 0.1181 -0.0079
vn 0.9921 0.1181 0.0079
vn 0.3228 -0.9449 0.0000
vn 0.0551 -0.9921 0.0866
vn 0.0551 -0.9921 -0.0866
vn -0.4094 0.0000 -0.9134
vn -0.4094 0.0000 0.9134
vn -0.2126 0.5276 -0.8189
vn -0.2126 0.5276 0.8189
vn -0.9134 0.4016 0.0079
vn -0.9134 0.4016 -0.0079
vn -0.9213 0.3937 -0.0079
vn -0.9213 0.3858 -0.0079
vn -0.9213 0.3937 0.0079
vn -0.9213 0.3858 0.0079
vn 0.3150 -0.9449 -0.0787
vn 0.3150 -0.9449 0.0787
vn -0.2677 0.9606 0.0866
vn -0.2677 0.9606 -0.0866
vn -0.9843 0.0000 0.1968
vn -0.9843 0.0000 -0.1968
vn -0.2835 0.9606 0.0000
vn -0.9921 0.0000 -0.1339
vn -0.9921 0.0000 0.1339
vn -0.8189 0.5276 0.2126
vn -0.8189 0.5276 -0.2126
vn 0.2441 -0.6614 -0.7087
vn 0.2441 -0.6614 0.7087

o animal_gorilla
usemtl tex_animal_gorilla_i021p001x
f 1/1/1 2/2/1 3/3/1
f 2/2/1 4/4/1 3/3/1
f 5/5/2 6/6/2 7/7/2
f 5/5/2 8/8/2 6/6/2
f 9/9/3 10/10/3 11/11/3
f 12/12/3 11/11/3 10/10/3
f 13/13/4 14/14/4 15/15/4
f 13/13/4 15/15/4 16/16/4
f 17/17/5 18/18/5 19/19/5
f 20/20/5 19/19/5 18/18/5
f 21/21/6 22/22/6 23/23/6
f 21/21/6 23/23/6 24/24/6
f 25/25/7 26/26/7 27/27/7
f 26/26/7 25/25/7 28/28/7
f 29/29/8 30/30/8 31/31/8
f 30/30/8 29/29/8 32/32/8
f 8/33/9 5/34/9 33/35/10
f 8/33/9 33/35/10 34/36/10
f 35/37/11 34/36/10 33/35/10
f 35/37/11 36/38/11 34/36/10
f 37/39/12 38/40/12 39/41/12
f 38/40/12 40/42/12 39/41/12
f 41/43/13 42/44/13 43/45/13
f 44/46/13 42/44/13 41/43/13
f 45/47/14 46/48/14 47/49/14
f 46/48/14 45/47/14 48/50/14
f 49/51/15 50/52/15 51/53/15
f 50/52/15 49/51/15 52/54/15
f 28/28/16 53/55/16 26/26/16
f 53/55/16 28/28/16 54/56/16
f 55/57/17 32/32/17 29/29/17
f 32/32/17 55/57/17 56/58/17
f 57/59/14 58/60/14 59/61/14
f 58/60/14 57/59/14 60/62/14
f 61/63/15 62/64/15 63/65/15
f 62/64/15 61/63/15 64/66/15
f 65/67/18 66/68/18 67/69/18
f 66/68/18 65/67/18 68/70/18
f 69/71/18 70/72/18 71/73/18
f 72/74/18 70/72/18 69/71/18
f 73/75/19 74/76/19 75/77/19
f 74/76/19 73/75/19 76/78/19
f 77/79/20 78/80/20 79/81/20
f 80/82/20 77/79/20 79/81/20
f 81/83/21 82/84/21 83/85/21
f 82/84/21 81/83/21 84/86/21
f 85/87/21 81/83/21 83/85/21
f 81/83/21 86/88/21 84/86/21
f 81/83/21 85/87/21 87/89/21
f 86/88/21 81/83/21 88/90/21
f 89/91/21 81/83/21 87/89/21
f 81/83/21 89/91/21 88/90/21
f 85/87/21 90/92/21 91/93/21
f 85/87/21 92/94/21 90/92/21
f 93/95/21 90/92/21 92/94/21
f 90/92/21 93/95/21 94/96/21
f 95/97/21 85/87/21 91/93/21
f 85/87/21 95/97/21 87/89/21
f 89/91/21 87/89/21 96/98/21
f 89/91/21 96/98/21 97/99/21
f 93/95/21 87/89/21 95/97/21
f 93/95/21 95/97/21 94/96/21
f 98/100/21 96/98/21 87/89/21
f 96/98/21 98/100/21 99/101/21
f 98/100/21 100/102/21 99/101/21
f 100/102/21 98/100/21 101/103/21
f 101/103/21 89/91/21 97/99/21
f 101/103/21 97/99/21 100/102/21
f 45/104/22 102/105/22 103/106/22
f 102/105/22 45/104/22 47/107/22
f 104/108/22 49/109/22 105/110/22
f 49/109/22 104/108/22 52/111/22
f 106/112/23 107/113/23 9/114/23
f 106/112/23 9/114/23 11/115/23
f 108/116/24 14/117/24 109/118/24
f 14/117/24 108/116/24 15/119/24
f 110/120/25 111/121/25 112/122/25
f 111/121/25 110/120/25 113/123/25
f 114/124/26 115/125/26 116/126/26
f 115/125/26 114/124/26 117/127/26
f 118/128/27 119/129/27 120/130/27
f 119/129/27 118/128/27 121/131/27
f 122/132/27 123/133/27 124/134/27
f 123/133/27 122/132/27 125/135/27
f 126/136/21 127/137/21 128/138/21
f 127/137/21 126/136/21 129/139/21
f 130/140/21 131/141/21 132/142/21
f 132/142/21 133/143/21 130/140/21
f 134/144/28 135/145/28 37/146/28
f 134/144/28 37/146/28 39/147/28
f 136/148/29 44/149/29 137/150/29
f 44/149/29 136/148/29 42/151/29
f 138/152/30 139/153/30 140/154/30
f 139/153/30 138/152/30 141/155/30
f 142/156/31 139/157/31 141/158/31
f 139/157/31 142/156/31 143/159/31
f 119/160/22 144/161/22 145/162/22
f 144/161/22 119/160/22 121/163/22
f 123/164/22 146/165/22 147/166/22
f 123/164/22 125/167/22 146/165/22
f 148/168/32 35/169/32 149/170/32
f 35/169/32 148/168/32 36/171/32
f 102/172/33 46/173/33 150/174/33
f 46/173/33 102/172/33 47/175/33
f 151/176/34 50/177/34 104/178/34
f 104/178/34 50/177/34 52/179/34
f 152/180/35 17/181/35 153/182/35
f 17/181/35 152/180/35 18/183/35
f 154/184/36 22/185/36 21/186/36
f 22/185/36 154/184/36 155/187/36
f 66/188/37 68/189/37 156/190/37
f 68/189/37 157/191/37 156/190/37
f 71/192/37 158/193/37 159/194/37
f 70/195/37 158/193/37 71/192/37
f 160/196/38 161/197/38 162/198/38
f 160/196/38 163/199/38 161/197/38
f 164/200/39 9/201/39 107/202/39
f 9/201/39 164/200/39 10/203/39
f 165/204/40 14/205/40 13/206/40
f 14/205/40 165/204/40 109/207/40
f 166/208/41 167/209/41 168/210/41
f 167/209/41 166/208/41 169/211/41
f 170/212/41 171/213/41 172/214/41
f 171/213/41 170/212/41 173/215/41
f 174/216/33 58/217/33 175/218/33
f 58/217/33 174/216/33 59/219/33
f 176/220/34 62/221/34 177/222/34
f 177/222/34 62/221/34 64/223/34
f 178/224/41 179/225/41 180/226/41
f 179/225/41 178/224/41 181/227/41
f 182/228/41 183/229/41 184/230/41
f 183/229/41 182/228/41 185/231/41
f 75/232/42 74/233/42 186/234/42
f 74/233/42 187/235/42 186/234/42
f 188/236/43 77/237/43 80/238/43
f 77/237/43 188/236/43 189/239/43
f 190/240/44 191/241/44 192/242/44
f 191/241/44 190/240/44 193/243/44
f 194/244/45 195/245/45 196/246/45
f 195/245/45 194/244/45 197/247/45
f 139/248/46 198/249/46 140/250/46
f 198/249/46 139/248/46 199/251/46
f 139/252/47 200/253/47 201/254/47
f 139/252/47 143/255/47 200/253/47
f 7/7/41 163/199/41 160/196/41
f 163/199/41 7/7/41 6/6/41
f 202/256/48 203/257/48 178/258/48
f 181/259/48 178/258/48 203/257/48
f 182/260/48 184/261/48 204/262/48
f 182/260/48 204/262/48 205/263/48
f 206/264/49 207/265/49 208/266/49
f 206/264/49 208/266/49 209/267/49
f 162/198/50 210/268/50 211/269/50
f 162/198/50 161/197/50 210/268/50
f 4/270/51 212/271/51 3/272/51
f 212/271/51 4/270/51 213/273/51
f 214/274/48 215/275/48 166/276/48
f 169/277/48 166/276/48 215/275/48
f 170/278/48 172/279/48 216/280/48
f 170/278/48 216/280/48 217/281/48
f 218/282/52 219/283/52 220/284/52
f 221/285/52 218/282/52 220/284/52
f 222/286/53 223/287/53 224/288/53
f 224/288/53 223/287/53 225/289/53
f 219/290/54 226/291/54 227/292/54
f 226/291/54 219/290/54 218/293/54
f 228/294/55 225/295/55 229/296/55
f 225/295/55 228/294/55 224/297/55
f 74/298/56 76/299/56 187/300/56
f 76/299/56 230/301/56 187/300/56
f 78/302/57 189/303/57 231/304/57
f 77/305/57 189/303/57 78/302/57
f 193/243/58 226/291/58 191/241/58
f 226/291/58 193/243/58 227/292/58
f 228/294/59 197/247/59 194/244/59
f 197/247/59 228/294/59 229/296/59
f 190/306/22 192/307/22 232/308/22
f 190/306/22 232/308/22 233/309/22
f 192/307/22 234/310/22 232/308/22
f 234/310/22 192/307/22 235/311/22
f 236/312/22 190/306/22 233/309/22
f 236/312/22 233/309/22 237/313/22
f 235/311/22 237/313/22 234/310/22
f 235/311/22 236/312/22 237/313/22
f 238/314/22 239/315/22 240/316/22
f 240/316/22 239/315/22 241/317/22
f 242/318/22 238/314/22 240/316/22
f 238/314/22 242/318/22 195/319/22
f 239/315/22 196/320/22 241/317/22
f 241/317/22 196/320/22 243/321/22
f 196/320/22 195/319/22 243/321/22
f 243/321/22 195/319/22 242/318/22
f 160/322/60 211/323/61 244/324/62
f 211/323/61 160/322/60 162/325/61
f 210/326/63 163/327/64 245/328/65
f 163/327/64 210/326/63 161/329/63
f 233/330/66 119/331/66 145/332/66
f 232/333/66 119/331/66 233/330/66
f 119/331/66 232/333/66 120/334/66
f 125/335/67 242/336/67 146/337/67
f 125/335/67 243/338/67 242/336/67
f 243/338/67 125/335/67 122/339/67
f 95/340/68 91/341/68 127/342/68
f 95/340/68 127/342/68 129/343/68
f 131/344/68 97/345/68 96/346/68
f 97/345/68 131/344/68 130/347/68
f 246/348/69 93/349/69 92/350/69
f 93/349/69 246/348/69 247/351/69
f 98/352/69 248/353/69 249/354/69
f 249/354/69 101/355/69 98/352/69
f 35/356/70 160/357/60 244/358/62
f 33/359/70 160/357/60 35/356/70
f 160/357/60 33/359/70 7/360/70
f 7/360/70 33/359/70 5/361/70
f 6/362/71 34/363/71 163/364/64
f 34/363/71 6/362/71 8/365/71
f 36/366/71 163/364/64 34/363/71
f 163/364/64 36/366/71 245/367/65
f 250/368/72 153/369/72 17/370/72
f 250/368/72 17/370/72 19/371/72
f 251/372/73 22/373/73 155/374/73
f 22/373/73 251/372/73 23/375/73
f 212/376/74 252/377/74 1/378/74
f 212/376/74 1/378/74 3/379/74
f 213/380/75 2/381/75 253/382/75
f 2/381/75 213/380/75 4/383/75
f 27/384/76 254/385/76 255/386/76
f 255/386/76 25/387/76 27/384/76
f 31/388/77 256/389/77 257/390/77
f 256/389/77 31/388/77 30/391/77
f 46/48/78 57/59/78 59/61/78
f 46/48/78 48/50/78 57/59/78
f 51/53/79 50/52/79 61/63/79
f 61/63/79 50/52/79 64/66/79
f 58/392/22 135/393/22 175/394/22
f 135/393/22 58/392/22 37/395/22
f 38/396/22 37/395/22 58/392/22
f 38/396/22 58/392/22 60/397/22
f 175/394/22 258/398/22 259/399/22
f 258/398/22 175/394/22 135/393/22
f 38/396/22 259/399/22 258/398/22
f 259/399/22 38/396/22 60/397/22
f 260/400/22 41/401/22 261/402/22
f 41/401/22 260/400/22 63/403/22
f 261/402/22 176/404/22 260/400/22
f 176/404/22 261/402/22 137/405/22
f 62/406/22 41/401/22 63/403/22
f 44/407/22 41/401/22 62/406/22
f 62/406/22 137/405/22 44/407/22
f 137/405/22 62/406/22 176/404/22
f 234/408/80 120/130/80 232/409/80
f 120/130/80 234/408/80 118/128/80
f 241/410/80 122/132/80 124/134/80
f 122/132/80 241/410/80 243/411/80
f 244/412/81 149/413/81 35/414/81
f 149/413/81 244/412/81 262/415/81
f 245/416/82 148/417/82 263/418/82
f 148/417/82 245/416/82 36/419/82
f 264/420/83 149/170/84 262/421/83
f 149/170/84 264/420/83 207/265/84
f 148/168/84 265/422/83 263/423/83
f 265/422/83 148/168/84 206/264/84
f 206/264/84 149/170/84 207/265/84
f 149/170/84 206/264/84 148/168/84
f 263/423/83 264/420/83 262/421/83
f 264/420/83 263/423/83 265/422/83
f 266/424/85 192/425/85 191/426/85
f 192/425/85 266/424/85 235/427/85
f 267/428/85 196/429/85 239/430/85
f 196/429/85 267/428/85 194/431/85
f 208/432/76 264/433/76 268/434/76
f 264/433/76 208/432/76 207/435/76
f 265/436/77 209/437/77 269/438/77
f 209/437/77 265/436/77 206/439/77
f 67/440/86 66/441/86 270/442/86
f 66/441/86 156/443/86 270/442/86
f 271/444/87 70/445/87 72/446/87
f 70/445/87 271/444/87 158/447/87
f 198/448/88 138/449/88 140/450/88
f 138/449/88 198/448/88 272/451/88
f 142/452/89 200/453/89 143/454/89
f 200/453/89 142/452/89 273/455/89
f 35/456/90 245/457/90 244/458/90
f 245/457/90 35/456/90 36/459/90
f 110/460/91 274/461/91 113/462/91
f 274/461/91 110/460/91 275/463/91
f 117/464/92 276/465/92 115/466/92
f 276/465/92 277/467/92 115/466/92
f 150/174/93 59/219/93 174/216/93
f 150/174/93 46/173/93 59/219/93
f 177/222/94 64/223/94 151/176/94
f 151/176/94 64/223/94 50/177/94
f 253/468/95 1/469/95 252/470/95
f 1/469/95 253/468/95 2/471/95
f 83/472/96 278/473/96 85/474/96
f 278/473/96 279/475/96 85/474/96
f 112/122/97 280/476/97 281/477/97
f 280/476/97 112/122/97 111/121/97
f 282/478/98 89/479/98 283/480/98
f 89/479/98 282/478/98 88/481/98
f 116/126/99 284/482/99 114/124/99
f 284/482/99 116/126/99 285/483/99
f 178/484/76 180/485/76 286/486/76
f 178/484/76 286/486/76 202/487/76
f 182/488/77 287/489/77 185/490/77
f 287/489/77 182/488/77 205/491/77
f 87/492/100 247/493/100 288/494/100
f 247/493/100 87/492/100 93/495/100
f 218/496/101 289/497/101 226/498/101
f 289/497/101 218/496/101 221/499/101
f 87/500/102 288/501/102 248/502/102
f 87/500/102 248/502/102 98/503/102
f 224/504/103 290/505/103 222/506/103
f 290/505/103 224/504/103 228/507/103
f 289/497/104 191/426/104 226/498/104
f 191/426/104 289/497/104 266/424/104
f 290/505/104 194/431/104 267/428/104
f 194/431/104 290/505/104 228/507/104
f 166/508/76 168/509/76 291/510/76
f 166/508/76 291/510/76 214/511/76
f 170/512/77 292/513/77 173/514/77
f 292/513/77 170/512/77 217/515/77
f 254/516/105 280/517/105 293/518/105
f 293/518/105 280/517/105 111/519/105
f 284/520/106 294/521/106 114/522/106
f 257/523/106 294/521/106 284/520/106
f 85/474/107 246/524/107 92/525/107
f 85/474/107 279/475/107 246/524/107
f 89/479/108 249/526/108 283/480/108
f 249/526/108 89/479/108 101/527/108
f 113/528/109 293/518/109 111/519/109
f 293/518/109 113/528/109 295/529/109
f 27/530/110 280/517/110 254/516/110
f 280/517/110 27/530/110 296/531/110
f 274/532/110 295/529/110 113/528/110
f 295/529/110 274/532/110 53/533/110
f 297/534/111 276/535/111 117/536/111
f 276/535/111 297/534/111 55/537/111
f 117/536/112 294/521/112 297/534/112
f 294/521/112 117/536/112 114/522/112
f 284/520/111 31/538/111 257/523/111
f 31/538/111 284/520/111 298/539/111
f 26/540/113 274/532/113 299/541/113
f 274/532/113 26/540/113 53/533/113
f 55/537/114 29/542/114 276/535/114
f 300/543/114 276/535/114 29/542/114
f 26/540/115 296/531/115 27/530/115
f 296/531/115 26/540/115 299/541/115
f 29/542/116 298/539/116 300/543/116
f 298/539/116 29/542/116 31/538/116
f 134/544/117 40/545/117 301/546/117
f 134/544/117 39/547/117 40/545/117
f 302/548/118 43/549/118 136/550/118
f 136/550/118 43/549/118 42/551/118
f 245/552/119 262/553/119 244/554/119
f 262/553/119 245/552/119 263/555/119
f 190/556/120 303/557/120 193/558/120
f 190/556/120 236/559/120 303/557/120
f 195/560/120 304/561/120 238/562/120
f 304/561/120 195/560/120 197/563/120
f 112/564/110 305/565/110 110/566/110
f 305/565/110 275/567/110 110/566/110
f 281/568/110 305/565/110 112/564/110
f 305/565/110 281/568/110 306/569/110
f 307/570/111 115/571/111 277/572/111
f 115/571/111 307/570/111 116/573/111
f 116/573/111 307/570/111 285/574/111
f 285/574/111 307/570/111 308/575/111
f 227/576/121 309/577/121 219/578/121
f 309/577/121 220/579/121 219/578/121
f 310/580/122 225/581/122 223/582/122
f 229/583/122 225/581/122 310/580/122
f 193/558/123 309/577/123 227/576/123
f 193/558/123 303/557/123 309/577/123
f 304/561/123 197/563/123 310/580/123
f 310/580/123 197/563/123 229/583/123
f 82/584/124 311/585/124 83/472/124
f 278/473/124 83/472/124 311/585/124
f 88/481/125 312/586/125 86/587/125
f 312/586/125 88/481/125 282/478/125
f 255/588/126 28/589/126 25/590/126
f 28/589/126 255/588/126 313/591/126
f 313/591/126 54/592/126 28/589/126
f 54/592/126 313/591/126 314/593/126
f 315/594/127 56/595/127 316/596/127
f 315/594/127 32/597/127 56/595/127
f 256/598/127 32/597/127 315/594/127
f 32/597/127 256/598/127 30/599/127
f 265/600/128 268/601/128 264/602/128
f 268/601/128 265/600/128 269/603/128
f 181/604/77 317/605/77 179/606/77
f 317/605/77 181/604/77 203/607/77
f 318/608/76 184/609/76 183/610/76
f 184/609/76 318/608/76 204/611/76
f 169/612/77 319/613/77 167/614/77
f 319/613/77 169/612/77 215/615/77
f 320/616/76 172/617/76 171/618/76
f 172/617/76 320/616/76 216/619/76
f 199/620/129 139/621/129 141/622/129
f 199/620/129 141/622/129 321/623/129
f 139/624/130 201/625/130 141/626/130
f 322/627/130 141/626/130 201/625/130
f 145/628/37 237/629/37 233/630/37
f 145/628/37 144/631/37 237/629/37
f 146/632/37 240/633/37 147/634/37
f 240/633/37 146/632/37 242/635/37
f 245/636/131 244/637/131 211/638/131
f 245/636/131 211/638/131 210/639/131
f 257/640/132 256/641/132 294/642/132
f 315/643/132 294/642/132 256/641/132
f 293/644/133 255/645/133 254/646/133
f 293/644/133 313/647/133 255/645/133
f 91/648/77 128/649/77 127/650/77
f 91/648/77 90/651/77 128/649/77
f 97/652/76 133/653/76 100/654/76
f 133/653/76 97/652/76 130/655/76
f 121/656/134 237/657/134 144/658/134
f 237/657/134 121/656/134 234/659/134
f 234/659/134 121/656/134 118/660/134
f 123/661/135 241/662/135 124/663/135
f 123/661/135 240/664/135 241/662/135
f 240/664/135 123/661/135 147/665/135
f 95/666/136 126/667/136 94/668/136
f 126/667/136 95/666/136 129/669/136
f 96/670/137 132/671/137 131/672/137
f 96/670/137 99/673/137 132/671/137
f 235/674/138 266/675/138 236/676/138
f 266/675/138 303/677/138 236/676/138
f 239/678/139 238/679/139 267/680/139
f 267/680/139 238/679/139 304/681/139
f 303/677/140 266/675/140 289/682/140
f 289/682/140 309/683/140 303/677/140
f 267/680/141 304/681/141 290/684/141
f 290/684/141 304/681/141 310/685/141
f 295/686/77 54/687/77 314/688/77
f 295/686/77 53/689/77 54/687/77
f 316/690/76 56/691/76 297/692/76
f 297/692/76 56/691/76 55/693/76
f 152/694/43 20/695/43 18/696/43
f 20/695/43 152/694/43 323/697/43
f 154/698/42 21/699/42 24/700/42
f 324/701/42 154/698/42 24/700/42
f 221/702/142 220/703/142 289/682/142
f 289/682/142 220/703/142 309/683/142
f 222/704/143 290/684/143 223/705/143
f 290/684/143 310/685/143 223/705/143
f 325/706/87 68/707/87 65/708/87
f 68/707/87 325/706/87 157/709/87
f 71/710/86 326/711/86 69/712/86
f 326/711/86 71/710/86 159/713/86
f 84/714/144 311/715/144 82/716/144
f 311/715/144 84/714/144 327/717/144
f 84/714/144 312/718/144 327/717/144
f 312/718/144 84/714/144 86/719/144
f 301/720/145 40/721/145 258/722/145
f 258/722/145 40/721/145 38/723/145
f 302/724/146 261/725/146 43/726/146
f 261/725/146 41/727/146 43/726/146
f 75/728/147 328/729/147 73/730/147
f 328/729/147 75/728/147 186/731/147
f 329/732/148 80/733/148 79/734/148
f 329/732/148 188/735/148 80/733/148
f 45/736/149 103/737/149 330/738/149
f 330/738/149 48/739/149 45/736/149
f 105/740/150 49/741/150 331/742/150
f 331/742/150 49/741/150 51/743/150
f 57/744/149 332/745/149 259/746/149
f 259/746/149 60/747/149 57/744/149
f 61/748/150 260/749/150 333/750/150
f 260/749/150 61/748/150 63/751/150
f 334/752/151 106/753/151 11/754/151
f 334/752/151 11/754/151 12/755/151
f 296/756/152 281/757/152 280/758/152
f 281/757/152 296/756/152 306/759/152
f 335/760/153 15/761/153 108/762/153
f 15/761/153 335/760/153 16/763/153
f 285/764/154 298/765/154 284/766/154
f 298/765/154 285/764/154 308/767/154
f 179/768/155 286/769/155 180/770/155
f 286/769/155 179/768/155 317/771/155
f 183/772/155 287/773/155 318/774/155
f 183/772/155 185/775/155 287/773/155
f 278/776/156 336/777/156 279/778/156
f 336/777/156 288/779/156 279/778/156
f 336/777/156 283/780/156 288/779/156
f 283/780/156 336/777/156 282/781/156
f 279/778/156 247/782/156 246/783/156
f 288/779/156 247/782/156 279/778/156
f 283/780/156 248/784/156 288/779/156
f 248/784/156 283/780/156 249/785/156
f 311/786/156 336/777/156 278/776/156
f 336/777/156 311/786/156 327/787/156
f 327/787/156 312/788/156 336/777/156
f 312/788/156 282/781/156 336/777/156
f 167/789/155 291/790/155 168/791/155
f 291/790/155 167/789/155 319/792/155
f 171/793/155 292/794/155 320/795/155
f 171/793/155 173/796/155 292/794/155
f 325/797/80 67/798/80 270/799/80
f 67/798/80 325/797/80 65/800/80
f 326/801/80 271/802/80 72/803/80
f 326/801/80 72/803/80 69/804/80
f 19/805/157 323/806/157 250/807/157
f 323/806/157 19/805/157 20/808/157
f 324/809/158 23/810/158 251/811/158
f 23/810/158 324/809/158 24/812/158
f 258/813/159 134/814/159 301/815/159
f 134/814/159 258/813/159 135/816/159
f 136/817/160 261/818/160 302/819/160
f 261/818/160 136/817/160 137/820/160
f 150/821/161 103/822/161 102/823/161
f 150/821/161 330/824/161 103/822/161
f 331/825/162 151/826/162 105/827/162
f 104/828/162 105/827/162 151/826/162
f 164/829/163 12/830/163 10/831/163
f 334/832/163 12/830/163 164/829/163
f 165/833/164 13/834/164 16/835/164
f 335/836/164 165/833/164 16/835/164
f 272/837/165 141/838/165 138/839/165
f 141/838/165 272/837/165 321/840/165
f 273/841/166 141/842/166 322/843/166
f 141/842/166 273/841/166 142/844/166
f 175/845/161 332/846/161 174/847/161
f 175/845/161 259/848/161 332/846/161
f 177/849/162 333/850/162 176/851/162
f 260/852/162 176/851/162 333/850/162
f 90/853/167 126/854/167 128/855/167
f 90/853/167 94/856/167 126/854/167
f 99/857/167 133/858/167 132/859/167
f 133/858/167 99/857/167 100/860/167
f 199/861/168 272/862/168 198/863/168
f 272/862/168 199/861/168 321/864/168
f 201/865/169 273/866/169 322/867/169
f 201/865/169 200/868/169 273/866/169
f 328/869/170 76/870/170 73/871/170
f 76/870/170 328/869/170 230/872/170
f 78/873/171 329/874/171 79/875/171
f 329/874/171 78/873/171 231/876/171
f 48/739/172 330/738/172 332/745/172
f 48/739/172 332/745/172 57/744/172
f 331/742/173 51/743/173 333/750/173
f 333/750/173 51/743/173 61/748/173
f 269/603/174 252/877/175 268/601/175
f 252/877/175 269/603/174 253/878/174
f 212/879/176 268/601/175 252/877/175
f 268/601/175 212/879/176 208/880/177
f 213/881/178 253/878/174 269/603/174
f 213/881/178 269/603/174 209/882/179
f 212/879/176 209/882/179 208/880/177
f 212/879/176 213/881/178 209/882/179
f 314/883/180 293/644/180 295/884/180
f 293/644/180 314/883/180 313/647/180
f 294/642/181 316/885/181 297/886/181
f 316/885/181 294/642/181 315/643/181
f 187/887/182 328/888/182 186/889/182
f 328/888/182 187/887/182 230/890/182
f 189/891/183 329/892/183 231/893/183
f 329/892/183 189/891/183 188/894/183
f 106/895/184 164/896/184 107/897/184
f 164/896/184 106/895/184 334/898/184
f 165/899/185 108/900/185 109/901/185
f 108/900/185 165/899/185 335/902/185
f 270/903/186 156/904/186 157/905/186
f 157/905/186 325/906/186 270/903/186
f 158/907/186 326/908/186 159/909/186
f 326/908/186 158/907/186 271/910/186
f 250/911/187 152/912/187 153/913/187
f 152/912/187 250/911/187 323/914/187
f 154/915/188 251/916/188 155/917/188
f 251/916/188 154/915/188 324/918/188
f 174/847/189 332/846/189 330/824/189
f 174/847/189 330/824/189 150/821/189
f 177/849/190 331/825/190 333/850/190
f 151/826/190 331/825/190 177/849/190
f 274/919/181 305/920/181 299/921/181
f 305/920/181 274/919/181 275/922/181
f 307/923/180 276/924/180 300/925/180
f 276/924/180 307/923/180 277/926/180
f 306/927/191 296/928/191 305/920/191
f 299/921/191 305/920/191 296/928/191
f 298/929/192 307/923/192 300/925/192
f 298/929/192 308/930/192 307/923/192
