# Roblox asset pack: tree_blocky (map). Exported from Roblox Studio with Export Selection, then split/renamed/re-centred by tools/process_export.py. Units: studs (1 stud = 1 unit). +Y up. Pivot (bottom_centre) at the origin.
mtllib tree_blocky.mtl

v 0.75000 6.00000 -0.75000
v 0.75000 6.00000 0.75000
v 0.75000 0.00000 -0.75000
v 0.75000 0.00000 0.75000
v -0.75000 6.00000 0.75000
v -0.75000 6.00000 -0.75000
v -0.75000 0.00000 0.75000
v -0.75000 0.00000 -0.75000
v 3.00000 8.50000 -3.00000
v 3.00000 8.50000 3.00000
v 3.00000 6.00000 -3.00000
v 3.00000 6.00000 3.00000
v -3.00000 8.50000 3.00000
v -3.00000 6.00000 3.00000
v -3.00000 8.50000 -3.00000
v -3.00000 6.00000 -3.00000
v 2.25000 10.50000 -2.25000
v 2.25000 10.50000 2.25000
v 2.25000 8.50000 -2.25000
v 2.25000 8.50000 2.25000
v -2.25000 10.50000 2.25000
v -2.25000 8.50000 2.25000
v -2.25000 10.50000 -2.25000
v -2.25000 8.50000 -2.25000
v 1.25000 12.00000 -1.25000
v 1.25000 12.00000 1.25000
v 1.25000 10.50000 -1.25000
v 1.25000 10.50000 1.25000
v -1.25000 12.00000 1.25000
v -1.25000 10.50000 1.25000
v -1.25000 12.00000 -1.25000
v -1.25000 10.50000 -1.25000
vt 2.93750 -6.25000
vt 2.75000 -6.25000
vt 2.93750 -7.00000
vt 2.75000 -7.00000
vt 2.93750 -6.43750
vt 2.75000 -6.43750
vt 7.00000 -4.00000
vt 6.25000 -4.00000
vt 7.00000 -4.31250
vt 6.25000 -4.31250
vt 7.00000 -4.75000
vt 6.25000 -4.75000
vt 0.00000 6.00000
vt 6.00000 6.00000
vt 0.00000 0.00000
vt 6.00000 0.00000
vt 1.56250 -6.50000
vt 1.00000 -6.50000
vt 1.56250 -6.75000
vt 1.00000 -6.75000
vt 1.56250 -7.06250
vt 1.00000 -7.06250
vt 0.00000 4.50000
vt 4.50000 4.50000
vt 4.50000 0.00000
vt 4.06250 -2.25000
vt 3.75000 -2.25000
vt 4.06250 -2.43750
vt 3.75000 -2.43750
vt 4.06250 -2.56250
vt 3.75000 -2.56250
vt 0.00000 2.50000
vt 2.50000 2.50000
vt 2.50000 0.00000
vn 1.0000 0.0000 0.0000
vn 0.0000 1.0000 0.0000
vn 0.0000 0.0000 1.0000
vn -1.0000 0.0000 0.0000
vn 0.0000 -1.0000 0.0000
vn 0.0000 0.0000 -1.0000

o Trunk
usemtl trunk
f 1/1/1 2/2/1 3/3/1
f 3/3/1 2/2/1 4/4/1
f 5/1/2 2/2/2 6/5/2
f 6/5/2 2/2/2 1/6/2
f 2/1/3 5/2/3 4/3/3
f 4/3/3 5/2/3 7/4/3
f 5/1/4 6/2/4 7/3/4
f 7/3/4 6/2/4 8/4/4
f 8/1/5 3/2/5 7/5/5
f 7/5/5 3/2/5 4/6/5
f 6/1/6 1/2/6 8/3/6
f 8/3/6 1/2/6 3/4/6
o Leaves1
usemtl leaves1
f 9/7/1 10/8/1 11/9/1
f 11/9/1 10/8/1 12/10/1
f 10/7/3 13/8/3 12/9/3
f 12/9/3 13/8/3 14/10/3
f 13/7/4 15/8/4 14/9/4
f 14/9/4 15/8/4 16/10/4
f 16/7/5 11/8/5 14/11/5
f 14/11/5 11/8/5 12/12/5
f 15/7/6 9/8/6 16/9/6
f 16/9/6 9/8/6 11/10/6
usemtl leaves1_studs
f 13/13/2 10/14/2 15/15/2
f 15/15/2 10/14/2 9/16/2
o Leaves2
usemtl leaves2
f 17/17/1 18/18/1 19/19/1
f 19/19/1 18/18/1 20/20/1
f 18/17/3 21/18/3 20/19/3
f 20/19/3 21/18/3 22/20/3
f 21/17/4 23/18/4 22/19/4
f 22/19/4 23/18/4 24/20/4
f 24/17/5 19/18/5 22/21/5
f 22/21/5 19/18/5 20/22/5
f 23/17/6 17/18/6 24/19/6
f 24/19/6 17/18/6 19/20/6
usemtl leaves2_studs
f 21/23/2 18/24/2 23/15/2
f 23/15/2 18/24/2 17/25/2
o Leaves3
usemtl leaves3
f 25/26/1 26/27/1 27/28/1
f 27/28/1 26/27/1 28/29/1
f 26/26/3 29/27/3 28/28/3
f 28/28/3 29/27/3 30/29/3
f 29/26/4 31/27/4 30/28/4
f 30/28/4 31/27/4 32/29/4
f 32/26/5 27/27/5 30/30/5
f 30/30/5 27/27/5 28/31/5
f 31/26/6 25/27/6 32/28/6
f 32/28/6 25/27/6 27/29/6
usemtl leaves3_studs
f 29/32/2 26/33/2 31/15/2
f 31/15/2 26/33/2 25/34/2
