# Roblox asset pack: triceratops (creatures), from the Studio model "Triceratops". Exported with Export Selection, split by tools/build_creatures.py: one object per rigid body. Units: studs. +Y up, front faces -Z, pivot (bottom centre) at the origin.
mtllib triceratops.mtl

v 4.50000 9.00000 3.25000
v 4.50000 9.00000 6.25000
v 4.50000 6.00000 3.25000
v 4.50000 6.00000 6.25000
v -4.50000 9.00000 6.25000
v -4.50000 9.00000 3.25000
v -4.50000 6.00000 6.25000
v -4.50000 6.00000 3.25000
v 3.00000 10.50000 3.25000
v 3.00000 10.50000 6.25000
v 3.00000 9.00000 3.25000
v 3.00000 9.00000 6.25000
v -3.00000 10.50000 6.25000
v -3.00000 10.50000 3.25000
v -3.00000 9.00000 6.25000
v -3.00000 9.00000 3.25000
v 1.50000 12.00000 3.25000
v 1.50000 12.00000 4.75000
v 1.50000 10.50000 3.25000
v 1.50000 10.50000 4.75000
v -1.50000 12.00000 4.75000
v -1.50000 12.00000 3.25000
v -1.50000 10.50000 4.75000
v -1.50000 10.50000 3.25000
v 3.00000 6.00000 3.25000
v 3.00000 6.00000 6.25000
v 3.00000 3.00000 3.25000
v 3.00000 3.00000 6.25000
v -3.00000 6.00000 6.25000
v -3.00000 6.00000 3.25000
v -3.00000 3.00000 6.25000
v -3.00000 3.00000 3.25000
v 6.00000 1.50000 4.75000
v 6.00000 1.50000 6.25000
v 6.00000 0.00000 4.75000
v 6.00000 0.00000 6.25000
v 3.00000 1.50000 6.25000
v 3.00000 1.50000 4.75000
v 3.00000 0.00000 6.25000
v 3.00000 0.00000 4.75000
v 6.00000 6.00000 3.25000
v 6.00000 6.00000 6.25000
v 6.00000 1.50000 3.25000
v 3.00000 1.50000 3.25000
v 6.00000 0.00000 3.25000
v 3.00000 0.00000 3.25000
v -3.00000 1.50000 4.75000
v -3.00000 1.50000 6.25000
v -3.00000 0.00000 4.75000
v -3.00000 0.00000 6.25000
v -6.00000 1.50000 6.25000
v -6.00000 1.50000 4.75000
v -6.00000 0.00000 6.25000
v -6.00000 0.00000 4.75000
v -3.00000 1.50000 3.25000
v -6.00000 6.00000 6.25000
v -6.00000 6.00000 3.25000
v -6.00000 1.50000 3.25000
v -3.00000 0.00000 3.25000
v -6.00000 0.00000 3.25000
v -3.00000 6.00000 -4.25000
v -3.00000 6.00000 -1.25000
v -3.00000 1.50000 -4.25000
v -3.00000 1.50000 -1.25000
v -6.00000 6.00000 -1.25000
v -6.00000 6.00000 -4.25000
v -6.00000 1.50000 -1.25000
v -6.00000 1.50000 -4.25000
v -3.00000 1.50000 -2.75000
v -3.00000 0.00000 -2.75000
v -3.00000 0.00000 -1.25000
v -6.00000 1.50000 -2.75000
v -6.00000 0.00000 -1.25000
v -6.00000 0.00000 -2.75000
v -3.00000 0.00000 -4.25000
v -6.00000 0.00000 -4.25000
v 3.00000 7.50000 6.25000
v 3.00000 7.50000 9.25000
v 3.00000 6.00000 9.25000
v -3.00000 7.50000 9.25000
v -3.00000 7.50000 6.25000
v -3.00000 6.00000 9.25000
v 1.50000 9.00000 6.25000
v 1.50000 9.00000 9.25000
v 1.50000 7.50000 6.25000
v 1.50000 7.50000 9.25000
v -1.50000 9.00000 9.25000
v -1.50000 9.00000 6.25000
v -1.50000 7.50000 9.25000
v -1.50000 7.50000 6.25000
v 1.50000 7.50000 12.25000
v 1.50000 6.00000 9.25000
v 1.50000 6.00000 12.25000
v -1.50000 7.50000 12.25000
v -1.50000 6.00000 12.25000
v -1.50000 6.00000 9.25000
v 0.75000 7.50000 12.25000
v 0.75000 7.50000 13.75000
v 0.75000 6.00000 12.25000
v 0.75000 6.00000 13.75000
v -0.75000 7.50000 13.75000
v -0.75000 7.50000 12.25000
v -0.75000 6.00000 13.75000
v -0.75000 6.00000 12.25000
v 1.50000 4.50000 9.25000
v 1.50000 4.50000 12.25000
v -1.50000 4.50000 12.25000
v -1.50000 4.50000 9.25000
v 3.00000 4.50000 6.25000
v 3.00000 4.50000 9.25000
v -3.00000 4.50000 9.25000
v -3.00000 4.50000 6.25000
v -3.00000 3.00000 -1.25000
v -4.50000 6.00000 -1.25000
v -4.50000 3.00000 3.25000
v -4.50000 3.00000 -1.25000
v 3.00000 6.00000 -4.25000
v 3.00000 3.00000 -4.25000
v -3.00000 3.00000 -4.25000
v 3.00000 6.00000 -6.75000
v 3.00000 4.50000 -6.75000
v 3.00000 4.50000 -4.25000
v -3.00000 6.00000 -6.75000
v -3.00000 4.50000 -4.25000
v -3.00000 4.50000 -6.75000
v 4.50000 6.00000 -1.25000
v 4.50000 3.00000 -1.25000
v 4.50000 3.00000 3.25000
v 3.00000 6.00000 -1.25000
v 3.00000 3.00000 -1.25000
v 4.50000 9.00000 -4.25000
v 4.50000 6.00000 -4.25000
v -4.50000 9.00000 -4.25000
v -4.50000 6.00000 -4.25000
v 3.00000 10.50000 -4.25000
v 3.00000 9.00000 -4.25000
v -3.00000 10.50000 -4.25000
v -3.00000 9.00000 -4.25000
v 1.50000 12.00000 -2.75000
v 1.50000 10.50000 -2.75000
v -1.50000 12.00000 -2.75000
v -1.50000 10.50000 -2.75000
v 3.00000 9.00000 -6.50000
v 3.00000 6.00000 -6.50000
v -3.00000 9.00000 -6.50000
v -3.00000 6.00000 -6.50000
v -0.50000 15.20000 -5.74000
v -0.50000 14.55000 -3.32000
v -0.50000 11.33000 -6.77000
v -0.50000 10.69000 -4.36000
v -3.50000 14.55000 -3.32000
v -3.50000 15.20000 -5.74000
v -3.50000 10.69000 -4.36000
v -3.50000 11.33000 -6.77000
v 3.50000 15.20000 -5.74000
v 3.50000 14.55000 -3.32000
v 3.50000 11.33000 -6.77000
v 3.50000 10.69000 -4.36000
v 0.50000 14.55000 -3.32000
v 0.50000 15.20000 -5.74000
v 0.50000 10.69000 -4.36000
v 0.50000 11.33000 -6.77000
v 6.00000 13.62000 -5.64000
v 6.00000 13.23000 -4.19000
v 6.00000 7.82000 -7.20000
v 6.00000 7.43000 -5.75000
v -6.00000 13.23000 -4.19000
v -6.00000 13.62000 -5.64000
v -6.00000 7.43000 -5.75000
v -6.00000 7.82000 -7.20000
v 4.50000 7.82000 -7.20000
v 4.50000 7.43000 -5.75000
v 4.50000 4.92000 -7.97000
v 4.50000 4.54000 -6.52000
v -4.50000 7.43000 -5.75000
v -4.50000 7.82000 -7.20000
v -4.50000 4.54000 -6.52000
v -4.50000 4.92000 -7.97000
v 4.50000 16.52000 -4.87000
v 4.50000 16.13000 -3.42000
v 4.50000 13.62000 -5.64000
v 4.50000 13.23000 -4.19000
v -4.50000 16.13000 -3.42000
v -4.50000 16.52000 -4.87000
v -4.50000 13.23000 -4.19000
v -4.50000 13.62000 -5.64000
v 3.00000 17.96000 -4.48000
v 3.00000 17.58000 -3.03000
v 3.00000 16.52000 -4.87000
v 3.00000 16.13000 -3.42000
v -3.00000 17.58000 -3.03000
v -3.00000 17.96000 -4.48000
v -3.00000 16.13000 -3.42000
v -3.00000 16.52000 -4.87000
v 3.00000 7.50000 -11.75000
v 3.00000 7.50000 -10.25000
v 3.00000 6.00000 -11.75000
v 3.00000 6.00000 -10.25000
v 1.50000 7.50000 -10.25000
v 1.50000 7.50000 -11.75000
v 1.50000 6.00000 -10.25000
v 1.50000 6.00000 -11.75000
v 3.00000 10.50000 -8.75000
v 3.00000 10.50000 -6.00000
v 3.00000 6.00000 -8.75000
v 3.00000 6.00000 -6.00000
v -3.00000 10.50000 -6.00000
v -3.00000 10.50000 -8.75000
v -3.00000 6.00000 -6.00000
v -3.00000 6.00000 -8.75000
v 3.00000 10.50000 -11.75000
v 3.00000 10.50000 -10.25000
v -3.00000 10.50000 -10.25000
v -3.00000 10.50000 -11.75000
v -3.00000 7.50000 -10.25000
v -3.00000 7.50000 -11.75000
v -1.50000 7.50000 -11.75000
v -1.50000 7.50000 -10.25000
v -1.50000 6.00000 -11.75000
v -1.50000 6.00000 -10.25000
v -3.00000 6.00000 -10.25000
v -3.00000 6.00000 -11.75000
v 3.00000 9.00000 -10.25000
v 3.00000 9.00000 -8.75000
v -3.00000 9.00000 -8.75000
v -3.00000 9.00000 -10.25000
v 3.00000 7.50000 -8.75000
v -3.00000 7.50000 -8.75000
v 1.50000 10.00000 -13.75000
v 1.50000 10.00000 -11.75000
v 1.50000 7.50000 -13.75000
v -1.50000 10.00000 -11.75000
v -1.50000 10.00000 -13.75000
v -1.50000 7.50000 -13.75000
v 1.50000 6.00000 -13.75000
v 1.50000 4.50000 -13.75000
v 1.50000 4.50000 -11.75000
v -1.50000 6.00000 -13.75000
v -1.50000 4.50000 -11.75000
v -1.50000 4.50000 -13.75000
v -1.25000 12.86000 -10.40000
v -1.25000 13.61000 -9.10000
v -1.25000 9.39000 -8.40000
v -1.25000 10.14000 -7.10000
v -2.75000 13.61000 -9.10000
v -2.75000 12.86000 -10.40000
v -2.75000 10.14000 -7.10000
v -2.75000 9.39000 -8.40000
v 2.75000 12.86000 -10.40000
v 2.75000 13.61000 -9.10000
v 2.75000 9.39000 -8.40000
v 2.75000 10.14000 -7.10000
v 1.25000 13.61000 -9.10000
v 1.25000 12.86000 -10.40000
v 1.25000 10.14000 -7.10000
v 1.25000 9.39000 -8.40000
v 0.75000 12.00000 -13.75000
v 0.75000 12.00000 -12.25000
v 0.75000 10.00000 -13.75000
v 0.75000 10.00000 -12.25000
v -0.75000 12.00000 -12.25000
v -0.75000 12.00000 -13.75000
v -0.75000 10.00000 -12.25000
v -0.75000 10.00000 -13.75000
v 3.00000 4.50000 -11.75000
v -3.00000 4.50000 -11.75000
v -3.00500 9.00000 -8.75000
v -3.00500 9.00000 -10.25000
v -3.00500 7.50000 -8.75000
v -3.00500 7.50000 -10.25000
v 3.00500 9.00000 -10.25000
v 3.00500 9.00000 -8.75000
v 3.00500 7.50000 -10.25000
v 3.00500 7.50000 -8.75000
v 6.00000 1.50000 -2.75000
v 6.00000 1.50000 -1.25000
v 6.00000 0.00000 -2.75000
v 6.00000 0.00000 -1.25000
v 3.00000 1.50000 -1.25000
v 3.00000 1.50000 -2.75000
v 3.00000 0.00000 -1.25000
v 3.00000 0.00000 -2.75000
v 6.00000 6.00000 -4.25000
v 6.00000 6.00000 -1.25000
v 6.00000 1.50000 -4.25000
v 3.00000 1.50000 -4.25000
v 6.00000 0.00000 -4.25000
v 3.00000 0.00000 -4.25000
vt 1.37500 -5.75000
vt 1.00000 -5.75000
vt 1.37500 -6.12500
vt 1.00000 -6.12500
vt 2.12500 -5.75000
vt 2.12500 -6.12500
vt 4.12500 -0.75000
vt 3.75000 -0.75000
vt 4.12500 -0.93750
vt 3.75000 -0.93750
vt 4.50000 -0.75000
vt 4.50000 -1.12500
vt 3.75000 -1.12500
vt 4.50000 -0.93750
vt 5.18750 -1.00000
vt 5.00000 -1.00000
vt 5.18750 -1.18750
vt 5.00000 -1.18750
vt 5.37500 -1.00000
vt 5.37500 -1.18750
vt 1.12500 -2.50000
vt 0.75000 -2.50000
vt 1.12500 -2.87500
vt 0.75000 -2.87500
vt 1.50000 -2.50000
vt 1.50000 -2.87500
vt 5.93750 0.00000
vt 5.75000 0.00000
vt 5.93750 -0.18750
vt 5.75000 -0.18750
vt 6.12500 0.00000
vt 6.12500 -0.18750
vt 1.12500 -1.00000
vt 0.75000 -1.00000
vt 1.12500 -1.56250
vt 0.75000 -1.56250
vt 1.12500 -1.37500
vt 0.75000 -1.37500
vt 4.18750 -4.25000
vt 4.00000 -4.25000
vt 4.18750 -4.43750
vt 4.00000 -4.43750
vt 4.37500 -4.25000
vt 4.37500 -4.43750
vt 5.18750 -4.00000
vt 5.00000 -4.00000
vt 5.18750 -4.18750
vt 5.00000 -4.18750
vt 5.37500 -4.00000
vt 5.37500 -4.18750
vt 7.12500 -1.25000
vt 6.75000 -1.25000
vt 7.12500 -1.81250
vt 6.75000 -1.81250
vt 7.12500 -1.62500
vt 6.75000 -1.62500
vt 5.68750 -5.25000
vt 5.50000 -5.25000
vt 5.68750 -5.43750
vt 5.50000 -5.43750
vt 5.87500 -5.25000
vt 5.87500 -5.43750
vt 3.12500 -1.50000
vt 2.75000 -1.50000
vt 3.12500 -2.06250
vt 2.75000 -2.06250
vt 3.12500 -1.87500
vt 2.75000 -1.87500
vt 1.43750 -4.75000
vt 1.25000 -4.75000
vt 1.43750 -4.93750
vt 1.25000 -4.93750
vt 1.62500 -4.75000
vt 1.62500 -4.93750
vt 7.68750 -5.50000
vt 7.50000 -5.50000
vt 7.68750 -5.68750
vt 7.50000 -5.68750
vt 7.87500 -5.50000
vt 7.87500 -5.68750
vt 5.37500 -0.50000
vt 5.00000 -0.50000
vt 5.37500 -0.68750
vt 5.00000 -0.68750
vt 5.75000 -0.50000
vt 5.75000 -0.87500
vt 5.00000 -0.87500
vt 5.75000 -0.68750
vt 2.37500 -5.25000
vt 2.00000 -5.25000
vt 2.37500 -5.43750
vt 2.00000 -5.43750
vt 2.37500 -5.62500
vt 2.00000 -5.62500
vt 7.12500 -3.75000
vt 6.75000 -3.75000
vt 7.12500 -3.93750
vt 6.75000 -3.93750
vt 7.12500 -4.12500
vt 6.75000 -4.12500
vt 0.43750 -5.50000
vt 0.25000 -5.50000
vt 0.43750 -5.68750
vt 0.25000 -5.68750
vt 4.12500 -4.50000
vt 3.75000 -4.50000
vt 4.12500 -4.68750
vt 3.75000 -4.68750
vt 4.12500 -4.87500
vt 3.75000 -4.87500
vt 5.12500 -5.00000
vt 4.75000 -5.00000
vt 5.12500 -5.18750
vt 4.75000 -5.18750
vt 5.50000 -5.00000
vt 5.50000 -5.37500
vt 4.75000 -5.37500
vt 5.50000 -5.18750
vt 4.56250 -3.75000
vt 4.00000 -3.75000
vt 4.56250 -4.12500
vt 4.00000 -4.12500
vt 4.18750 -3.75000
vt 4.18750 -4.31250
vt 4.00000 -4.31250
vt 4.18750 -4.12500
vt 5.18750 -5.75000
vt 4.25000 -5.75000
vt 5.18750 -6.12500
vt 4.25000 -6.12500
vt 5.00000 -5.75000
vt 5.00000 -6.68750
vt 4.25000 -6.68750
vt 5.00000 -6.12500
vt 1.06250 0.75000
vt 0.75000 0.75000
vt 1.06250 0.56250
vt 0.75000 0.56250
vt 1.50000 0.75000
vt 1.50000 0.43750
vt 0.75000 0.43750
vt 1.50000 0.56250
vt 4.56250 -6.75000
vt 4.00000 -6.75000
vt 4.56250 -7.12500
vt 4.00000 -7.12500
vt 4.18750 -6.75000
vt 4.18750 -7.31250
vt 4.00000 -7.31250
vt 4.18750 -7.12500
vt 4.18750 -5.00000
vt 3.25000 -5.00000
vt 4.18750 -5.37500
vt 3.25000 -5.37500
vt 4.37500 -5.00000
vt 4.37500 -5.93750
vt 3.25000 -5.93750
vt 4.37500 -5.37500
vt 2.43750 -4.50000
vt 1.50000 -4.50000
vt 2.43750 -4.68750
vt 1.50000 -4.68750
vt 2.25000 -4.50000
vt 2.25000 -5.43750
vt 1.50000 -5.43750
vt 2.25000 -4.68750
vt 8.50000 -4.75000
vt 7.75000 -4.75000
vt 8.50000 -4.93750
vt 7.75000 -4.93750
vt 8.12500 -4.75000
vt 8.12500 -5.50000
vt 7.75000 -5.50000
vt 8.12500 -4.93750
vt 0.53125 0.75000
vt 0.25000 0.75000
vt 0.53125 0.37500
vt 0.25000 0.37500
vt 1.00000 0.75000
vt 1.00000 0.46875
vt 0.25000 0.46875
vt 1.00000 0.37500
vt 8.06250 -6.25000
vt 7.75000 -6.25000
vt 8.06250 -6.75000
vt 7.75000 -6.75000
vt 8.12500 -6.25000
vt 8.12500 -6.56250
vt 7.75000 -6.56250
vt 8.12500 -6.75000
vt 0.31250 -5.00000
vt 0.00000 -5.00000
vt 0.31250 -5.50000
vt 0.00000 -5.50000
vt 0.37500 -5.00000
vt 0.37500 -5.31250
vt 0.00000 -5.31250
vt 0.37500 -5.50000
vt 7.18750 -2.25000
vt 7.00000 -2.25000
vt 7.18750 -3.00000
vt 7.00000 -3.00000
vt 8.50000 -2.25000
vt 8.50000 -2.43750
vt 7.00000 -2.43750
vt 8.50000 -3.00000
vt 7.18750 -1.75000
vt 7.00000 -1.75000
vt 7.18750 -2.12500
vt 7.00000 -2.12500
vt 8.12500 -1.75000
vt 8.12500 -1.93750
vt 7.00000 -1.93750
vt 8.12500 -2.12500
vt 0.68750 -2.00000
vt 0.50000 -2.00000
vt 0.68750 -2.37500
vt 0.50000 -2.37500
vt 1.62500 -2.00000
vt 1.62500 -2.18750
vt 0.50000 -2.18750
vt 1.62500 -2.37500
vt 7.93750 -5.50000
vt 7.93750 -5.68750
vt 7.75000 -5.68750
vt 8.50000 -5.50000
vt 8.50000 -5.68750
vt 5.93750 -4.50000
vt 5.75000 -4.50000
vt 5.93750 -4.68750
vt 5.75000 -4.68750
vt 4.09375 -5.75000
vt 3.75000 -5.75000
vt 4.09375 -6.31250
vt 3.75000 -6.31250
vt 4.50000 -5.75000
vt 4.50000 -6.09375
vt 3.75000 -6.09375
vt 4.50000 -6.31250
vt 0.93750 -1.25000
vt 0.75000 -1.25000
vt 0.93750 -1.62500
vt 0.75000 -1.62500
vt 1.50000 -1.25000
vt 1.50000 -1.43750
vt 0.75000 -1.43750
vt 1.50000 -1.62500
vt 0.43750 -5.25000
vt 0.25000 -5.25000
vt 0.43750 -5.43750
vt 0.25000 -5.43750
vt 0.18750 0.50000
vt 0.00000 0.50000
vt 0.18750 0.31250
vt 0.00000 0.31250
vt 0.75000 0.50000
vt 0.75000 0.31250
vt 6.93750 -0.50000
vt 6.75000 -0.50000
vt 6.93750 -0.68750
vt 6.75000 -0.68750
vt 7.50000 -0.50000
vt 7.50000 -0.68750
vt 3.75000 -4.25000
vt 3.50000 -4.25000
vt 3.75000 -4.56250
vt 3.50000 -4.56250
vt 3.87500 -4.25000
vt 3.87500 -4.50000
vt 3.50000 -4.50000
vt 3.87500 -4.56250
vt 0.50000 -1.50000
vt 0.25000 -1.50000
vt 0.50000 -1.68750
vt 0.25000 -1.68750
vt 0.62500 -1.50000
vt 0.62500 -1.75000
vt 0.25000 -1.75000
vt 0.62500 -1.68750
vt 2.93750 -0.50000
vt 2.75000 -0.50000
vt 2.93750 -1.00000
vt 2.75000 -1.00000
vt 2.93750 -0.68750
vt 2.75000 -0.68750
vt 2.18750 -3.25000
vt 2.00000 -3.25000
vt 2.18750 -3.75000
vt 2.00000 -3.75000
vt 2.18750 -3.43750
vt 2.00000 -3.43750
vt 5.93750 -0.25000
vt 5.75000 -0.25000
vt 5.93750 -0.50000
vt 5.93750 -0.43750
vt 5.75000 -0.43750
vt 3.18750 -0.50000
vt 3.00000 -0.50000
vt 3.18750 -0.68750
vt 3.00000 -0.68750
vt 3.37500 -0.50000
vt 3.37500 -0.68750
vt 0.62500 -5.25000
vt 0.00000 -5.25000
vt 0.62500 -5.43750
vt 0.00000 -5.43750
vt 0.75000 -5.25000
vt 0.75000 -5.87500
vt 0.00000 -5.87500
vt 0.75000 -5.43750
vt 2.18750 -0.25000
vt 2.00000 -0.25000
vt 2.18750 -0.43750
vt 2.00000 -0.43750
vt 2.75000 -0.25000
vt 2.75000 -0.43750
vt 1.00000 1.00000
vt 0.00000 1.00000
vt 1.00000 0.00000
vt 0.00000 0.00000
vt 4.18750 -3.25000
vt 4.00000 -3.25000
vt 4.18750 -3.43750
vt 4.00000 -3.43750
vt 4.37500 -3.25000
vt 4.37500 -3.43750
vt 4.87500 -4.75000
vt 4.50000 -4.75000
vt 4.87500 -5.31250
vt 4.50000 -5.31250
vt 4.87500 -5.12500
vt 4.50000 -5.12500
vt 4.43750 -6.00000
vt 4.25000 -6.00000
vt 4.43750 -6.18750
vt 4.25000 -6.18750
vt 4.62500 -6.00000
vt 4.62500 -6.18750
vn 1.0000 0.0000 0.0000
vn 0.0000 1.0000 0.0000
vn 0.0000 0.0000 1.0000
vn -1.0000 0.0000 0.0000
vn 0.0000 -1.0000 0.0000
vn 0.0000 0.0000 -1.0000
vn 0.0000 0.9685 0.2598
vn 0.0000 -0.2598 0.9685
vn 0.0000 -0.9685 -0.2598
vn 0.0000 0.2598 -0.9685
vn 0.0000 0.8661 -0.5039
vn 0.0000 0.5039 0.8661
vn 0.0000 -0.8661 0.5039
vn 0.0000 -0.5039 -0.8661

o LowerTorso
usemtl c_287f47
f 1/1/1 2/2/1 3/3/1
f 3/3/1 2/2/1 4/4/1
f 5/5/2 2/2/2 6/6/2
f 6/6/2 2/2/2 1/4/2
f 2/5/3 5/2/3 4/6/3
f 4/6/3 5/2/3 7/4/3
f 5/1/4 6/2/4 7/3/4
f 7/3/4 6/2/4 8/4/4
f 8/5/5 3/2/5 7/6/5
f 7/6/5 3/2/5 4/4/5
f 6/5/6 1/2/6 8/6/6
f 8/6/6 1/2/6 3/4/6
f 9/7/1 10/8/1 11/9/1
f 11/9/1 10/8/1 12/10/1
f 13/11/2 10/8/2 14/12/2
f 14/12/2 10/8/2 9/13/2
f 10/11/3 13/8/3 12/14/3
f 12/14/3 13/8/3 15/10/3
f 13/7/4 14/8/4 15/9/4
f 15/9/4 14/8/4 16/10/4
f 16/11/5 11/8/5 15/12/5
f 15/12/5 11/8/5 12/13/5
f 14/11/6 9/8/6 16/14/6
f 16/14/6 9/8/6 11/10/6
f 17/15/1 18/16/1 19/17/1
f 19/17/1 18/16/1 20/18/1
f 21/19/2 18/16/2 22/20/2
f 22/20/2 18/16/2 17/18/2
f 18/19/3 21/16/3 20/20/3
f 20/20/3 21/16/3 23/18/3
f 21/15/4 22/16/4 23/17/4
f 23/17/4 22/16/4 24/18/4
f 24/19/5 19/16/5 23/20/5
f 23/20/5 19/16/5 20/18/5
f 22/19/6 17/16/6 24/20/6
f 24/20/6 17/16/6 19/18/6
usemtl c_9fa1ac
f 25/21/1 26/22/1 27/23/1
f 27/23/1 26/22/1 28/24/1
f 29/25/2 26/22/2 30/26/2
f 30/26/2 26/22/2 25/24/2
f 26/25/3 29/22/3 28/26/3
f 28/26/3 29/22/3 31/24/3
f 29/21/4 30/22/4 31/23/4
f 31/23/4 30/22/4 32/24/4
f 32/25/5 27/22/5 31/26/5
f 31/26/5 27/22/5 28/24/5
f 30/25/6 25/22/6 32/26/6
f 32/26/6 25/22/6 27/24/6
o RightUpperLeg
usemtl c_287f47
f 33/27/1 34/28/1 35/29/1
f 35/29/1 34/28/1 36/30/1
f 37/31/2 34/28/2 38/32/2
f 38/32/2 34/28/2 33/30/2
f 34/31/3 37/28/3 36/32/3
f 36/32/3 37/28/3 39/30/3
f 37/27/4 38/28/4 39/29/4
f 39/29/4 38/28/4 40/30/4
f 40/31/5 35/28/5 39/32/5
f 39/32/5 35/28/5 36/30/5
f 38/31/6 33/28/6 40/32/6
f 40/32/6 33/28/6 35/30/6
f 41/33/1 42/34/1 43/35/1
f 43/35/1 42/34/1 34/36/1
f 26/33/2 42/34/2 25/37/2
f 25/37/2 42/34/2 41/38/2
f 42/33/3 26/34/3 34/35/3
f 34/35/3 26/34/3 37/36/3
f 26/33/4 25/34/4 37/35/4
f 37/35/4 25/34/4 44/36/4
f 44/33/5 43/34/5 37/37/5
f 37/37/5 43/34/5 34/38/5
f 25/33/6 41/34/6 44/35/6
f 44/35/6 41/34/6 43/36/6
usemtl c_1b2a35
f 43/39/1 33/40/1 45/41/1
f 45/41/1 33/40/1 35/42/1
f 38/43/2 33/40/2 44/44/2
f 44/44/2 33/40/2 43/42/2
f 33/43/3 38/40/3 35/44/3
f 35/44/3 38/40/3 40/42/3
f 38/39/4 44/40/4 40/41/4
f 40/41/4 44/40/4 46/42/4
f 46/43/5 45/40/5 40/44/5
f 40/44/5 45/40/5 35/42/5
f 44/43/6 43/40/6 46/44/6
f 46/44/6 43/40/6 45/42/6
o LeftUpperLeg
usemtl c_287f47
f 47/45/1 48/46/1 49/47/1
f 49/47/1 48/46/1 50/48/1
f 51/49/2 48/46/2 52/50/2
f 52/50/2 48/46/2 47/48/2
f 48/49/3 51/46/3 50/50/3
f 50/50/3 51/46/3 53/48/3
f 51/45/4 52/46/4 53/47/4
f 53/47/4 52/46/4 54/48/4
f 54/49/5 49/46/5 53/50/5
f 53/50/5 49/46/5 50/48/5
f 52/49/6 47/46/6 54/50/6
f 54/50/6 47/46/6 49/48/6
f 30/51/1 29/52/1 55/53/1
f 55/53/1 29/52/1 48/54/1
f 56/51/2 29/52/2 57/55/2
f 57/55/2 29/52/2 30/56/2
f 29/51/3 56/52/3 48/53/3
f 48/53/3 56/52/3 51/54/3
f 56/51/4 57/52/4 51/53/4
f 51/53/4 57/52/4 58/54/4
f 58/51/5 55/52/5 51/55/5
f 51/55/5 55/52/5 48/56/5
f 57/51/6 30/52/6 58/53/6
f 58/53/6 30/52/6 55/54/6
usemtl c_1b2a35
f 55/57/1 47/58/1 59/59/1
f 59/59/1 47/58/1 49/60/1
f 52/61/2 47/58/2 58/62/2
f 58/62/2 47/58/2 55/60/2
f 47/61/3 52/58/3 49/62/3
f 49/62/3 52/58/3 54/60/3
f 52/57/4 58/58/4 54/59/4
f 54/59/4 58/58/4 60/60/4
f 60/61/5 59/58/5 54/62/5
f 54/62/5 59/58/5 49/60/5
f 58/61/6 55/58/6 60/62/6
f 60/62/6 55/58/6 59/60/6
o LeftUpperArm
usemtl c_287f47
f 61/63/1 62/64/1 63/65/1
f 63/65/1 62/64/1 64/66/1
f 65/63/2 62/64/2 66/67/2
f 66/67/2 62/64/2 61/68/2
f 62/63/3 65/64/3 64/65/3
f 64/65/3 65/64/3 67/66/3
f 65/63/4 66/64/4 67/65/4
f 67/65/4 66/64/4 68/66/4
f 68/63/5 63/64/5 67/67/5
f 67/67/5 63/64/5 64/68/5
f 66/63/6 61/64/6 68/65/6
f 68/65/6 61/64/6 63/66/6
f 69/69/1 64/70/1 70/71/1
f 70/71/1 64/70/1 71/72/1
f 67/73/2 64/70/2 72/74/2
f 72/74/2 64/70/2 69/72/2
f 64/73/3 67/70/3 71/74/3
f 71/74/3 67/70/3 73/72/3
f 67/69/4 72/70/4 73/71/4
f 73/71/4 72/70/4 74/72/4
f 74/73/5 70/70/5 73/74/5
f 73/74/5 70/70/5 71/72/5
f 72/73/6 69/70/6 74/74/6
f 74/74/6 69/70/6 70/72/6
usemtl c_1b2a35
f 63/75/1 69/76/1 75/77/1
f 75/77/1 69/76/1 70/78/1
f 72/79/2 69/76/2 68/80/2
f 68/80/2 69/76/2 63/78/2
f 69/79/3 72/76/3 70/80/3
f 70/80/3 72/76/3 74/78/3
f 72/75/4 68/76/4 74/77/4
f 74/77/4 68/76/4 76/78/4
f 76/79/5 75/76/5 74/80/5
f 74/80/5 75/76/5 70/78/5
f 68/79/6 63/76/6 76/80/6
f 76/80/6 63/76/6 75/78/6
o Tail
usemtl c_287f47
f 77/81/1 78/82/1 26/83/1
f 26/83/1 78/82/1 79/84/1
f 80/85/2 78/82/2 81/86/2
f 81/86/2 78/82/2 77/87/2
f 78/85/3 80/82/3 79/88/3
f 79/88/3 80/82/3 82/84/3
f 80/81/4 81/82/4 82/83/4
f 82/83/4 81/82/4 29/84/4
f 29/85/5 26/82/5 82/86/5
f 82/86/5 26/82/5 79/87/5
f 81/85/6 77/82/6 29/88/6
f 29/88/6 77/82/6 26/84/6
f 83/89/1 84/90/1 85/91/1
f 85/91/1 84/90/1 86/92/1
f 87/89/2 84/90/2 88/93/2
f 88/93/2 84/90/2 83/94/2
f 84/89/3 87/90/3 86/91/3
f 86/91/3 87/90/3 89/92/3
f 87/89/4 88/90/4 89/91/4
f 89/91/4 88/90/4 90/92/4
f 90/89/5 85/90/5 89/93/5
f 89/93/5 85/90/5 86/94/5
f 88/89/6 83/90/6 90/91/6
f 90/91/6 83/90/6 85/92/6
f 86/95/1 91/96/1 92/97/1
f 92/97/1 91/96/1 93/98/1
f 94/95/2 91/96/2 89/99/2
f 89/99/2 91/96/2 86/100/2
f 91/95/3 94/96/3 93/97/3
f 93/97/3 94/96/3 95/98/3
f 94/95/4 89/96/4 95/97/4
f 95/97/4 89/96/4 96/98/4
f 96/95/5 92/96/5 95/99/5
f 95/99/5 92/96/5 93/100/5
f 89/95/6 86/96/6 96/97/6
f 96/97/6 86/96/6 92/98/6
f 97/101/1 98/102/1 99/103/1
f 99/103/1 98/102/1 100/104/1
f 101/101/2 98/102/2 102/103/2
f 102/103/2 98/102/2 97/104/2
f 98/101/3 101/102/3 100/103/3
f 100/103/3 101/102/3 103/104/3
f 101/101/4 102/102/4 103/103/4
f 103/103/4 102/102/4 104/104/4
f 104/101/5 99/102/5 103/103/5
f 103/103/5 99/102/5 100/104/5
f 102/101/6 97/102/6 104/103/6
f 104/103/6 97/102/6 99/104/6
usemtl c_9fa1ac
f 92/105/1 93/106/1 105/107/1
f 105/107/1 93/106/1 106/108/1
f 95/105/2 93/106/2 96/109/2
f 96/109/2 93/106/2 92/110/2
f 93/105/3 95/106/3 106/107/3
f 106/107/3 95/106/3 107/108/3
f 95/105/4 96/106/4 107/107/4
f 107/107/4 96/106/4 108/108/4
f 108/105/5 105/106/5 107/109/5
f 107/109/5 105/106/5 106/110/5
f 96/105/6 92/106/6 108/107/6
f 108/107/6 92/106/6 105/108/6
f 26/111/1 79/112/1 109/113/1
f 109/113/1 79/112/1 110/114/1
f 82/115/2 79/112/2 29/116/2
f 29/116/2 79/112/2 26/117/2
f 79/115/3 82/112/3 110/118/3
f 110/118/3 82/112/3 111/114/3
f 82/111/4 29/112/4 111/113/4
f 111/113/4 29/112/4 112/114/4
f 112/115/5 109/112/5 111/116/5
f 111/116/5 109/112/5 110/117/5
f 29/115/6 26/112/6 112/118/6
f 112/118/6 26/112/6 109/114/6
o UpperTorso
usemtl c_9fa1ac
f 62/119/1 30/120/1 113/121/1
f 113/121/1 30/120/1 32/122/1
f 8/123/2 30/120/2 114/124/2
f 114/124/2 30/120/2 62/125/2
f 30/123/3 8/120/3 32/126/3
f 32/126/3 8/120/3 115/122/3
f 8/119/4 114/120/4 115/121/4
f 115/121/4 114/120/4 116/122/4
f 116/123/5 113/120/5 115/124/5
f 115/124/5 113/120/5 32/125/5
f 114/123/6 62/120/6 116/126/6
f 116/126/6 62/120/6 113/122/6
f 117/127/1 25/128/1 118/129/1
f 118/129/1 25/128/1 27/130/1
f 30/131/2 25/128/2 61/132/2
f 61/132/2 25/128/2 117/133/2
f 25/131/3 30/128/3 27/134/3
f 27/134/3 30/128/3 32/130/3
f 30/127/4 61/128/4 32/129/4
f 32/129/4 61/128/4 119/130/4
f 119/131/5 118/128/5 32/132/5
f 32/132/5 118/128/5 27/133/5
f 61/131/6 117/128/6 119/134/6
f 119/134/6 117/128/6 118/130/6
f 120/135/1 117/136/1 121/137/1
f 121/137/1 117/136/1 122/138/1
f 61/139/2 117/136/2 123/140/2
f 123/140/2 117/136/2 120/141/2
f 117/139/3 61/136/3 122/142/3
f 122/142/3 61/136/3 124/138/3
f 61/135/4 123/136/4 124/137/4
f 124/137/4 123/136/4 125/138/4
f 125/139/5 121/136/5 124/140/5
f 124/140/5 121/136/5 122/141/5
f 123/139/6 120/136/6 125/142/6
f 125/142/6 120/136/6 121/138/6
f 126/143/1 3/144/1 127/145/1
f 127/145/1 3/144/1 128/146/1
f 25/147/2 3/144/2 129/148/2
f 129/148/2 3/144/2 126/149/2
f 3/147/3 25/144/3 128/150/3
f 128/150/3 25/144/3 27/146/3
f 25/143/4 129/144/4 27/145/4
f 27/145/4 129/144/4 130/146/4
f 130/147/5 127/144/5 27/148/5
f 27/148/5 127/144/5 128/149/5
f 129/147/6 126/144/6 130/150/6
f 130/150/6 126/144/6 127/146/6
usemtl c_287f47
f 131/151/1 1/152/1 132/153/1
f 132/153/1 1/152/1 3/154/1
f 6/155/2 1/152/2 133/156/2
f 133/156/2 1/152/2 131/157/2
f 1/155/3 6/152/3 3/158/3
f 3/158/3 6/152/3 8/154/3
f 6/151/4 133/152/4 8/153/4
f 8/153/4 133/152/4 134/154/4
f 134/155/5 132/152/5 8/156/5
f 8/156/5 132/152/5 3/157/5
f 133/155/6 131/152/6 134/158/6
f 134/158/6 131/152/6 132/154/6
f 135/159/1 9/160/1 136/161/1
f 136/161/1 9/160/1 11/162/1
f 14/163/2 9/160/2 137/164/2
f 137/164/2 9/160/2 135/165/2
f 9/163/3 14/160/3 11/166/3
f 11/166/3 14/160/3 16/162/3
f 14/159/4 137/160/4 16/161/4
f 16/161/4 137/160/4 138/162/4
f 138/163/5 136/160/5 16/164/5
f 16/164/5 136/160/5 11/165/5
f 137/163/6 135/160/6 138/166/6
f 138/166/6 135/160/6 136/162/6
f 139/167/1 17/168/1 140/169/1
f 140/169/1 17/168/1 19/170/1
f 22/171/2 17/168/2 141/172/2
f 141/172/2 17/168/2 139/173/2
f 17/171/3 22/168/3 19/174/3
f 19/174/3 22/168/3 24/170/3
f 22/167/4 141/168/4 24/169/4
f 24/169/4 141/168/4 142/170/4
f 142/171/5 140/168/5 24/172/5
f 24/172/5 140/168/5 19/173/5
f 141/171/6 139/168/6 142/174/6
f 142/174/6 139/168/6 140/170/6
f 143/175/1 136/176/1 144/177/1
f 144/177/1 136/176/1 117/178/1
f 138/179/2 136/176/2 145/180/2
f 145/180/2 136/176/2 143/181/2
f 136/179/3 138/176/3 117/182/3
f 117/182/3 138/176/3 61/178/3
f 138/175/4 145/176/4 61/177/4
f 61/177/4 145/176/4 146/178/4
f 146/179/5 144/176/5 61/180/5
f 61/180/5 144/176/5 117/181/5
f 145/179/6 143/176/6 146/182/6
f 146/182/6 143/176/6 144/178/6
o Head
usemtl c_5b5d69
f 147/183/1 148/184/1 149/185/1
f 149/185/1 148/184/1 150/186/1
f 151/187/7 148/184/7 152/188/7
f 152/188/7 148/184/7 147/189/7
f 148/187/8 151/184/8 150/190/8
f 150/190/8 151/184/8 153/186/8
f 151/183/4 152/184/4 153/185/4
f 153/185/4 152/184/4 154/186/4
f 154/187/9 149/184/9 153/188/9
f 153/188/9 149/184/9 150/189/9
f 152/187/10 147/184/10 154/190/10
f 154/190/10 147/184/10 149/186/10
f 155/191/1 156/192/1 157/193/1
f 157/193/1 156/192/1 158/194/1
f 159/195/7 156/192/7 160/196/7
f 160/196/7 156/192/7 155/197/7
f 156/195/8 159/192/8 158/198/8
f 158/198/8 159/192/8 161/194/8
f 159/191/4 160/192/4 161/193/4
f 161/193/4 160/192/4 162/194/4
f 162/195/9 157/192/9 161/196/9
f 161/196/9 157/192/9 158/197/9
f 160/195/10 155/192/10 162/198/10
f 162/198/10 155/192/10 157/194/10
usemtl c_206639
f 163/199/1 164/200/1 165/201/1
f 165/201/1 164/200/1 166/202/1
f 167/203/7 164/200/7 168/204/7
f 168/204/7 164/200/7 163/205/7
f 164/203/8 167/200/8 166/206/8
f 166/206/8 167/200/8 169/202/8
f 167/199/4 168/200/4 169/201/4
f 169/201/4 168/200/4 170/202/4
f 170/203/9 165/200/9 169/204/9
f 169/204/9 165/200/9 166/205/9
f 168/203/10 163/200/10 170/206/10
f 170/206/10 163/200/10 165/202/10
f 171/207/1 172/208/1 173/209/1
f 173/209/1 172/208/1 174/210/1
f 175/211/7 172/208/7 176/212/7
f 176/212/7 172/208/7 171/213/7
f 172/211/8 175/208/8 174/214/8
f 174/214/8 175/208/8 177/210/8
f 175/207/4 176/208/4 177/209/4
f 177/209/4 176/208/4 178/210/4
f 178/211/9 173/208/9 177/212/9
f 177/212/9 173/208/9 174/213/9
f 176/211/10 171/208/10 178/214/10
f 178/214/10 171/208/10 173/210/10
f 179/215/1 180/216/1 181/217/1
f 181/217/1 180/216/1 182/218/1
f 183/219/7 180/216/7 184/220/7
f 184/220/7 180/216/7 179/221/7
f 180/219/8 183/216/8 182/222/8
f 182/222/8 183/216/8 185/218/8
f 183/215/4 184/216/4 185/217/4
f 185/217/4 184/216/4 186/218/4
f 186/219/9 181/216/9 185/220/9
f 185/220/9 181/216/9 182/221/9
f 184/219/10 179/216/10 186/222/10
f 186/222/10 179/216/10 181/218/10
f 187/223/1 188/173/1 189/224/1
f 189/224/1 188/173/1 190/225/1
f 191/226/7 188/173/7 192/227/7
f 192/227/7 188/173/7 187/225/7
f 188/226/8 191/173/8 190/227/8
f 190/227/8 191/173/8 193/225/8
f 191/223/4 192/173/4 193/224/4
f 193/224/4 192/173/4 194/225/4
f 194/226/9 189/173/9 193/227/9
f 193/227/9 189/173/9 190/225/9
f 192/226/10 187/173/10 194/227/10
f 194/227/10 187/173/10 189/225/10
usemtl c_287f47
f 195/228/1 196/229/1 197/230/1
f 197/230/1 196/229/1 198/231/1
f 199/228/2 196/229/2 200/230/2
f 200/230/2 196/229/2 195/231/2
f 196/228/3 199/229/3 198/230/3
f 198/230/3 199/229/3 201/231/3
f 199/228/4 200/229/4 201/230/4
f 201/230/4 200/229/4 202/231/4
f 202/228/5 197/229/5 201/230/5
f 201/230/5 197/229/5 198/231/5
f 200/228/6 195/229/6 202/230/6
f 202/230/6 195/229/6 197/231/6
f 203/232/1 204/233/1 205/234/1
f 205/234/1 204/233/1 206/235/1
f 207/236/2 204/233/2 208/237/2
f 208/237/2 204/233/2 203/238/2
f 204/236/3 207/233/3 206/239/3
f 206/239/3 207/233/3 209/235/3
f 207/232/4 208/233/4 209/234/4
f 209/234/4 208/233/4 210/235/4
f 210/236/5 205/233/5 209/237/5
f 209/237/5 205/233/5 206/238/5
f 208/236/6 203/233/6 210/239/6
f 210/239/6 203/233/6 205/235/6
f 211/240/1 212/241/1 195/242/1
f 195/242/1 212/241/1 196/243/1
f 213/244/2 212/241/2 214/245/2
f 214/245/2 212/241/2 211/246/2
f 212/244/3 213/241/3 196/247/3
f 196/247/3 213/241/3 215/243/3
f 213/240/4 214/241/4 215/242/4
f 215/242/4 214/241/4 216/243/4
f 216/244/5 195/241/5 215/245/5
f 215/245/5 195/241/5 196/246/5
f 214/244/6 211/241/6 216/247/6
f 216/247/6 211/241/6 195/243/6
f 217/248/1 218/249/1 219/250/1
f 219/250/1 218/249/1 220/251/1
f 215/248/2 218/249/2 216/250/2
f 216/250/2 218/249/2 217/251/2
f 218/248/3 215/249/3 220/250/3
f 220/250/3 215/249/3 221/251/3
f 215/248/4 216/249/4 221/250/4
f 221/250/4 216/249/4 222/251/4
f 222/248/5 219/249/5 221/250/5
f 221/250/5 219/249/5 220/251/5
f 216/248/6 217/249/6 222/250/6
f 222/250/6 217/249/6 219/251/6
f 212/252/1 203/253/1 223/254/1
f 223/254/1 203/253/1 224/255/1
f 208/256/2 203/253/2 213/257/2
f 213/257/2 203/253/2 212/255/2
f 203/256/3 208/253/3 224/257/3
f 224/257/3 208/253/3 225/255/3
f 208/252/4 213/253/4 225/254/4
f 225/254/4 213/253/4 226/255/4
f 226/256/5 223/253/5 225/257/5
f 225/257/5 223/253/5 224/255/5
f 213/256/6 212/253/6 226/257/6
f 226/257/6 212/253/6 223/255/6
f 196/258/1 227/259/1 198/260/1
f 198/260/1 227/259/1 205/261/1
f 228/262/2 227/259/2 215/263/2
f 215/263/2 227/259/2 196/261/2
f 227/262/3 228/259/3 205/263/3
f 205/263/3 228/259/3 210/261/3
f 228/258/4 215/259/4 210/260/4
f 210/260/4 215/259/4 221/261/4
f 221/262/5 198/259/5 210/263/5
f 210/263/5 198/259/5 205/261/5
f 215/262/6 196/259/6 221/263/6
f 221/263/6 196/259/6 198/261/6
usemtl c_7c9c6b
f 229/264/1 230/265/1 231/266/1
f 231/266/1 230/265/1 200/267/1
f 232/268/2 230/265/2 233/269/2
f 233/269/2 230/265/2 229/270/2
f 230/268/3 232/265/3 200/271/3
f 200/271/3 232/265/3 217/267/3
f 232/264/4 233/265/4 217/266/4
f 217/266/4 233/265/4 234/267/4
f 234/268/5 231/265/5 217/269/5
f 217/269/5 231/265/5 200/270/5
f 233/268/6 229/265/6 234/271/6
f 234/271/6 229/265/6 231/267/6
f 235/272/1 202/273/1 236/274/1
f 236/274/1 202/273/1 237/275/1
f 219/276/2 202/273/2 238/277/2
f 238/277/2 202/273/2 235/278/2
f 202/276/3 219/273/3 237/279/3
f 237/279/3 219/273/3 239/275/3
f 219/272/4 238/273/4 239/274/4
f 239/274/4 238/273/4 240/275/4
f 240/276/5 236/273/5 239/277/5
f 239/277/5 236/273/5 237/278/5
f 238/276/6 235/273/6 240/279/6
f 240/279/6 235/273/6 236/275/6
usemtl c_fef3bb
f 241/280/1 242/281/1 243/282/1
f 243/282/1 242/281/1 244/283/1
f 245/280/11 242/281/11 246/284/11
f 246/284/11 242/281/11 241/285/11
f 242/280/12 245/281/12 244/282/12
f 244/282/12 245/281/12 247/283/12
f 245/280/4 246/281/4 247/282/4
f 247/282/4 246/281/4 248/283/4
f 248/280/13 243/281/13 247/284/13
f 247/284/13 243/281/13 244/285/13
f 246/280/14 241/281/14 248/282/14
f 248/282/14 241/281/14 243/283/14
f 249/286/1 250/287/1 251/288/1
f 251/288/1 250/287/1 252/289/1
f 253/286/11 250/287/11 254/290/11
f 254/290/11 250/287/11 249/291/11
f 250/286/12 253/287/12 252/288/12
f 252/288/12 253/287/12 255/289/12
f 253/286/4 254/287/4 255/288/4
f 255/288/4 254/287/4 256/289/4
f 256/286/13 251/287/13 255/290/13
f 255/290/13 251/287/13 252/291/13
f 254/286/14 249/287/14 256/288/14
f 256/288/14 249/287/14 251/289/14
f 257/292/1 258/293/1 259/294/1
f 259/294/1 258/293/1 260/85/1
f 261/292/2 258/293/2 262/295/2
f 262/295/2 258/293/2 257/296/2
f 258/292/3 261/293/3 260/294/3
f 260/294/3 261/293/3 263/85/3
f 261/292/4 262/293/4 263/294/4
f 263/294/4 262/293/4 264/85/4
f 264/292/5 259/293/5 263/295/5
f 263/295/5 259/293/5 260/296/5
f 262/292/6 257/293/6 264/294/6
f 264/294/6 257/293/6 259/85/6
usemtl c_c4281c
f 200/297/1 199/298/1 202/299/1
f 202/299/1 199/298/1 201/300/1
f 218/301/2 199/298/2 217/302/2
f 217/302/2 199/298/2 200/300/2
f 199/301/3 218/298/3 201/302/3
f 201/302/3 218/298/3 220/300/3
f 218/297/4 217/298/4 220/299/4
f 220/299/4 217/298/4 219/300/4
f 219/301/5 202/298/5 220/302/5
f 220/302/5 202/298/5 201/300/5
f 217/301/6 200/298/6 219/302/6
f 219/302/6 200/298/6 202/300/6
usemtl c_9fa1ac
f 197/303/1 120/304/1 265/305/1
f 265/305/1 120/304/1 121/306/1
f 123/307/2 120/304/2 222/308/2
f 222/308/2 120/304/2 197/309/2
f 120/307/3 123/304/3 121/310/3
f 121/310/3 123/304/3 125/306/3
f 123/303/4 222/304/4 125/305/4
f 125/305/4 222/304/4 266/306/4
f 266/307/5 265/304/5 125/308/5
f 125/308/5 265/304/5 121/309/5
f 222/307/6 197/304/6 266/310/6
f 266/310/6 197/304/6 265/306/6
usemtl c_f8f8f8
f 223/311/1 224/312/1 196/313/1
f 196/313/1 224/312/1 227/314/1
f 225/315/2 224/312/2 226/316/2
f 226/316/2 224/312/2 223/314/2
f 224/315/3 225/312/3 227/316/3
f 227/316/3 225/312/3 228/314/3
f 225/311/4 226/312/4 228/313/4
f 228/313/4 226/312/4 215/314/4
f 215/315/5 196/312/5 228/316/5
f 228/316/5 196/312/5 227/314/5
f 226/315/6 223/312/6 215/316/6
f 215/316/6 223/312/6 196/314/6
o Head_decal1
usemtl head_decal1
f 267/317/4 268/318/4 269/319/4
f 269/319/4 268/318/4 270/320/4
o Head_decal2
usemtl head_decal2
f 271/317/1 272/318/1 273/319/1
f 273/319/1 272/318/1 274/320/1
o RightUpperArm
usemtl c_287f47
f 275/321/1 276/322/1 277/323/1
f 277/323/1 276/322/1 278/324/1
f 279/325/2 276/322/2 280/326/2
f 280/326/2 276/322/2 275/324/2
f 276/325/3 279/322/3 278/326/3
f 278/326/3 279/322/3 281/324/3
f 279/321/4 280/322/4 281/323/4
f 281/323/4 280/322/4 282/324/4
f 282/325/5 277/322/5 281/326/5
f 281/326/5 277/322/5 278/324/5
f 280/325/6 275/322/6 282/326/6
f 282/326/6 275/322/6 277/324/6
f 283/327/1 284/328/1 285/329/1
f 285/329/1 284/328/1 276/330/1
f 129/327/2 284/328/2 117/331/2
f 117/331/2 284/328/2 283/332/2
f 284/327/3 129/328/3 276/329/3
f 276/329/3 129/328/3 279/330/3
f 129/327/4 117/328/4 279/329/4
f 279/329/4 117/328/4 286/330/4
f 286/327/5 285/328/5 279/331/5
f 279/331/5 285/328/5 276/332/5
f 117/327/6 283/328/6 286/329/6
f 286/329/6 283/328/6 285/330/6
usemtl c_1b2a35
f 285/333/1 275/334/1 287/335/1
f 287/335/1 275/334/1 277/336/1
f 280/337/2 275/334/2 286/338/2
f 286/338/2 275/334/2 285/336/2
f 275/337/3 280/334/3 277/338/3
f 277/338/3 280/334/3 282/336/3
f 280/333/4 286/334/4 282/335/4
f 282/335/4 286/334/4 288/336/4
f 288/337/5 287/334/5 282/338/5
f 282/338/5 287/334/5 277/336/5
f 286/337/6 285/334/6 288/338/6
f 288/338/6 285/334/6 287/336/6
