# Roblox asset pack: ladder (map). Exported from Roblox Studio with Export Selection, then split/renamed/re-centred by tools/process_export.py. Units: studs (1 stud = 1 unit). +Y up. Pivot (bottom_centre) at the origin.
mtllib ladder.mtl

v -0.80000 12.00000 -0.15000
v -0.80000 12.00000 0.15000
v -0.80000 0.00000 -0.15000
v -0.80000 0.00000 0.15000
v -1.10000 12.00000 0.15000
v -1.10000 12.00000 -0.15000
v -1.10000 0.00000 0.15000
v -1.10000 0.00000 -0.15000
v 1.10000 12.00000 -0.15000
v 1.10000 12.00000 0.15000
v 1.10000 0.00000 -0.15000
v 1.10000 0.00000 0.15000
v 0.80000 12.00000 0.15000
v 0.80000 12.00000 -0.15000
v 0.80000 0.00000 0.15000
v 0.80000 0.00000 -0.15000
v 0.80000 1.20000 -0.10000
v 0.80000 1.20000 0.10000
v 0.80000 1.00000 -0.10000
v 0.80000 1.00000 0.10000
v -0.80000 1.20000 0.10000
v -0.80000 1.20000 -0.10000
v -0.80000 1.00000 0.10000
v -0.80000 1.00000 -0.10000
v 0.80000 2.20000 -0.10000
v 0.80000 2.20000 0.10000
v 0.80000 2.00000 -0.10000
v 0.80000 2.00000 0.10000
v -0.80000 2.20000 0.10000
v -0.80000 2.20000 -0.10000
v -0.80000 2.00000 0.10000
v -0.80000 2.00000 -0.10000
v 0.80000 3.20000 -0.10000
v 0.80000 3.20000 0.10000
v 0.80000 3.00000 -0.10000
v 0.80000 3.00000 0.10000
v -0.80000 3.20000 0.10000
v -0.80000 3.20000 -0.10000
v -0.80000 3.00000 0.10000
v -0.80000 3.00000 -0.10000
v 0.80000 4.20000 -0.10000
v 0.80000 4.20000 0.10000
v 0.80000 4.00000 -0.10000
v 0.80000 4.00000 0.10000
v -0.80000 4.20000 0.10000
v -0.80000 4.20000 -0.10000
v -0.80000 4.00000 0.10000
v -0.80000 4.00000 -0.10000
v 0.80000 5.20000 -0.10000
v 0.80000 5.20000 0.10000
v 0.80000 5.00000 -0.10000
v 0.80000 5.00000 0.10000
v -0.80000 5.20000 0.10000
v -0.80000 5.20000 -0.10000
v -0.80000 5.00000 0.10000
v -0.80000 5.00000 -0.10000
v 0.80000 6.20000 -0.10000
v 0.80000 6.20000 0.10000
v 0.80000 6.00000 -0.10000
v 0.80000 6.00000 0.10000
v -0.80000 6.20000 0.10000
v -0.80000 6.20000 -0.10000
v -0.80000 6.00000 0.10000
v -0.80000 6.00000 -0.10000
v 0.80000 7.20000 -0.10000
v 0.80000 7.20000 0.10000
v 0.80000 7.00000 -0.10000
v 0.80000 7.00000 0.10000
v -0.80000 7.20000 0.10000
v -0.80000 7.20000 -0.10000
v -0.80000 7.00000 0.10000
v -0.80000 7.00000 -0.10000
v 0.80000 8.20000 -0.10000
v 0.80000 8.20000 0.10000
v 0.80000 8.00000 -0.10000
v 0.80000 8.00000 0.10000
v -0.80000 8.20000 0.10000
v -0.80000 8.20000 -0.10000
v -0.80000 8.00000 0.10000
v -0.80000 8.00000 -0.10000
v 0.80000 9.20000 -0.10000
v 0.80000 9.20000 0.10000
v 0.80000 9.00000 -0.10000
v 0.80000 9.00000 0.10000
v -0.80000 9.20000 0.10000
v -0.80000 9.20000 -0.10000
v -0.80000 9.00000 0.10000
v -0.80000 9.00000 -0.10000
v 0.80000 10.20000 -0.10000
v 0.80000 10.20000 0.10000
v 0.80000 10.00000 -0.10000
v 0.80000 10.00000 0.10000
v -0.80000 10.20000 0.10000
v -0.80000 10.20000 -0.10000
v -0.80000 10.00000 0.10000
v -0.80000 10.00000 -0.10000
v 0.80000 11.20000 -0.10000
v 0.80000 11.20000 0.10000
v 0.80000 11.00000 -0.10000
v 0.80000 11.00000 0.10000
v -0.80000 11.20000 0.10000
v -0.80000 11.20000 -0.10000
v -0.80000 11.00000 0.10000
v -0.80000 11.00000 -0.10000
vt -0.26309 0.62095
vt -0.30059 0.62095
vt -0.26309 -0.87905
vt -0.30059 -0.87905
vt -0.26309 0.58345
vt -0.30059 0.58345
vt 0.51799 0.91964
vt 0.48049 0.91964
vt 0.51799 -0.58036
vt 0.48049 -0.58036
vt 0.51799 0.88214
vt 0.48049 0.88214
vt -0.04662 0.94822
vt -0.07162 0.94822
vt -0.04662 0.92322
vt -0.07162 0.92322
vt 0.12838 0.94822
vt 0.12838 0.92322
vt -0.00624 0.91132
vt -0.03124 0.91132
vt -0.00624 0.88632
vt -0.03124 0.88632
vt 0.16876 0.91132
vt 0.16876 0.88632
vt -0.01890 0.96767
vt -0.04390 0.96767
vt -0.01890 0.94267
vt -0.04390 0.94267
vt 0.15610 0.96767
vt 0.15610 0.94267
vt 0.03162 1.04771
vt 0.00662 1.04771
vt 0.03162 1.02271
vt 0.00662 1.02271
vt 0.20662 1.04771
vt 0.20662 1.02271
vt 0.14690 0.88256
vt 0.12190 0.88256
vt 0.14690 0.85756
vt 0.12190 0.85756
vt 0.32190 0.88256
vt 0.32190 0.85756
vt 0.12542 0.96767
vt 0.10042 0.96767
vt 0.12542 0.94267
vt 0.10042 0.94267
vt 0.30042 0.96767
vt 0.30042 0.94267
vt -0.00869 1.01902
vt -0.03369 1.01902
vt -0.00869 0.99402
vt -0.03369 0.99402
vt 0.16631 1.01902
vt 0.16631 0.99402
vt 0.11373 0.92561
vt 0.08873 0.92561
vt 0.11373 0.90061
vt 0.08873 0.90061
vt 0.28873 0.92561
vt 0.28873 0.90061
vt 0.13696 1.07466
vt 0.11196 1.07466
vt 0.13696 1.04966
vt 0.11196 1.04966
vt 0.31196 1.07466
vt 0.31196 1.04966
vt 0.00598 0.91864
vt -0.01902 0.91864
vt 0.00598 0.89364
vt -0.01902 0.89364
vt 0.18098 0.91864
vt 0.18098 0.89364
vt 0.07007 1.07162
vt 0.04507 1.07162
vt 0.07007 1.04662
vt 0.04507 1.04662
vt 0.24507 1.07162
vt 0.24507 1.04662
vn 1.0000 0.0000 0.0000
vn 0.0000 1.0000 0.0000
vn 0.0000 0.0000 1.0000
vn -1.0000 0.0000 0.0000
vn 0.0000 -1.0000 0.0000
vn 0.0000 0.0000 -1.0000

o RailL
usemtl raill
f 1/1/1 2/2/1 3/3/1
f 3/3/1 2/2/1 4/4/1
f 5/1/2 2/2/2 6/5/2
f 6/5/2 2/2/2 1/6/2
f 2/1/3 5/2/3 4/3/3
f 4/3/3 5/2/3 7/4/3
f 5/1/4 6/2/4 7/3/4
f 7/3/4 6/2/4 8/4/4
f 8/1/5 3/2/5 7/5/5
f 7/5/5 3/2/5 4/6/5
f 6/1/6 1/2/6 8/3/6
f 8/3/6 1/2/6 3/4/6
o RailR
usemtl railr
f 9/7/1 10/8/1 11/9/1
f 11/9/1 10/8/1 12/10/1
f 13/7/2 10/8/2 14/11/2
f 14/11/2 10/8/2 9/12/2
f 10/7/3 13/8/3 12/9/3
f 12/9/3 13/8/3 15/10/3
f 13/7/4 14/8/4 15/9/4
f 15/9/4 14/8/4 16/10/4
f 16/7/5 11/8/5 15/11/5
f 15/11/5 11/8/5 12/12/5
f 14/7/6 9/8/6 16/9/6
f 16/9/6 9/8/6 11/10/6
o Rung1
usemtl rung1
f 17/13/1 18/14/1 19/15/1
f 19/15/1 18/14/1 20/16/1
f 21/17/2 18/14/2 22/18/2
f 22/18/2 18/14/2 17/16/2
f 18/17/3 21/14/3 20/18/3
f 20/18/3 21/14/3 23/16/3
f 21/13/4 22/14/4 23/15/4
f 23/15/4 22/14/4 24/16/4
f 24/17/5 19/14/5 23/18/5
f 23/18/5 19/14/5 20/16/5
f 22/17/6 17/14/6 24/18/6
f 24/18/6 17/14/6 19/16/6
o Rung2
usemtl rung2
f 25/19/1 26/20/1 27/21/1
f 27/21/1 26/20/1 28/22/1
f 29/23/2 26/20/2 30/24/2
f 30/24/2 26/20/2 25/22/2
f 26/23/3 29/20/3 28/24/3
f 28/24/3 29/20/3 31/22/3
f 29/19/4 30/20/4 31/21/4
f 31/21/4 30/20/4 32/22/4
f 32/23/5 27/20/5 31/24/5
f 31/24/5 27/20/5 28/22/5
f 30/23/6 25/20/6 32/24/6
f 32/24/6 25/20/6 27/22/6
o Rung3
usemtl rung3
f 33/25/1 34/26/1 35/27/1
f 35/27/1 34/26/1 36/28/1
f 37/29/2 34/26/2 38/30/2
f 38/30/2 34/26/2 33/28/2
f 34/29/3 37/26/3 36/30/3
f 36/30/3 37/26/3 39/28/3
f 37/25/4 38/26/4 39/27/4
f 39/27/4 38/26/4 40/28/4
f 40/29/5 35/26/5 39/30/5
f 39/30/5 35/26/5 36/28/5
f 38/29/6 33/26/6 40/30/6
f 40/30/6 33/26/6 35/28/6
o Rung4
usemtl rung4
f 41/31/1 42/32/1 43/33/1
f 43/33/1 42/32/1 44/34/1
f 45/35/2 42/32/2 46/36/2
f 46/36/2 42/32/2 41/34/2
f 42/35/3 45/32/3 44/36/3
f 44/36/3 45/32/3 47/34/3
f 45/31/4 46/32/4 47/33/4
f 47/33/4 46/32/4 48/34/4
f 48/35/5 43/32/5 47/36/5
f 47/36/5 43/32/5 44/34/5
f 46/35/6 41/32/6 48/36/6
f 48/36/6 41/32/6 43/34/6
o Rung5
usemtl rung5
f 49/37/1 50/38/1 51/39/1
f 51/39/1 50/38/1 52/40/1
f 53/41/2 50/38/2 54/42/2
f 54/42/2 50/38/2 49/40/2
f 50/41/3 53/38/3 52/42/3
f 52/42/3 53/38/3 55/40/3
f 53/37/4 54/38/4 55/39/4
f 55/39/4 54/38/4 56/40/4
f 56/41/5 51/38/5 55/42/5
f 55/42/5 51/38/5 52/40/5
f 54/41/6 49/38/6 56/42/6
f 56/42/6 49/38/6 51/40/6
o Rung6
usemtl rung6
f 57/43/1 58/44/1 59/45/1
f 59/45/1 58/44/1 60/46/1
f 61/47/2 58/44/2 62/48/2
f 62/48/2 58/44/2 57/46/2
f 58/47/3 61/44/3 60/48/3
f 60/48/3 61/44/3 63/46/3
f 61/43/4 62/44/4 63/45/4
f 63/45/4 62/44/4 64/46/4
f 64/47/5 59/44/5 63/48/5
f 63/48/5 59/44/5 60/46/5
f 62/47/6 57/44/6 64/48/6
f 64/48/6 57/44/6 59/46/6
o Rung7
usemtl rung7
f 65/49/1 66/50/1 67/51/1
f 67/51/1 66/50/1 68/52/1
f 69/53/2 66/50/2 70/54/2
f 70/54/2 66/50/2 65/52/2
f 66/53/3 69/50/3 68/54/3
f 68/54/3 69/50/3 71/52/3
f 69/49/4 70/50/4 71/51/4
f 71/51/4 70/50/4 72/52/4
f 72/53/5 67/50/5 71/54/5
f 71/54/5 67/50/5 68/52/5
f 70/53/6 65/50/6 72/54/6
f 72/54/6 65/50/6 67/52/6
o Rung8
usemtl rung8
f 73/55/1 74/56/1 75/57/1
f 75/57/1 74/56/1 76/58/1
f 77/59/2 74/56/2 78/60/2
f 78/60/2 74/56/2 73/58/2
f 74/59/3 77/56/3 76/60/3
f 76/60/3 77/56/3 79/58/3
f 77/55/4 78/56/4 79/57/4
f 79/57/4 78/56/4 80/58/4
f 80/59/5 75/56/5 79/60/5
f 79/60/5 75/56/5 76/58/5
f 78/59/6 73/56/6 80/60/6
f 80/60/6 73/56/6 75/58/6
o Rung9
usemtl rung9
f 81/61/1 82/62/1 83/63/1
f 83/63/1 82/62/1 84/64/1
f 85/65/2 82/62/2 86/66/2
f 86/66/2 82/62/2 81/64/2
f 82/65/3 85/62/3 84/66/3
f 84/66/3 85/62/3 87/64/3
f 85/61/4 86/62/4 87/63/4
f 87/63/4 86/62/4 88/64/4
f 88/65/5 83/62/5 87/66/5
f 87/66/5 83/62/5 84/64/5
f 86/65/6 81/62/6 88/66/6
f 88/66/6 81/62/6 83/64/6
o Rung10
usemtl rung10
f 89/67/1 90/68/1 91/69/1
f 91/69/1 90/68/1 92/70/1
f 93/71/2 90/68/2 94/72/2
f 94/72/2 90/68/2 89/70/2
f 90/71/3 93/68/3 92/72/3
f 92/72/3 93/68/3 95/70/3
f 93/67/4 94/68/4 95/69/4
f 95/69/4 94/68/4 96/70/4
f 96/71/5 91/68/5 95/72/5
f 95/72/5 91/68/5 92/70/5
f 94/71/6 89/68/6 96/72/6
f 96/72/6 89/68/6 91/70/6
o Rung11
usemtl rung11
f 97/73/1 98/74/1 99/75/1
f 99/75/1 98/74/1 100/76/1
f 101/77/2 98/74/2 102/78/2
f 102/78/2 98/74/2 97/76/2
f 98/77/3 101/74/3 100/78/3
f 100/78/3 101/74/3 103/76/3
f 101/73/4 102/74/4 103/75/4
f 103/75/4 102/74/4 104/76/4
f 104/77/5 99/74/5 103/78/5
f 103/78/5 99/74/5 100/76/5
f 102/77/6 97/74/6 104/78/6
f 104/78/6 97/74/6 99/76/6
