# Roblox asset pack: animal_goat (creatures), from the Studio model "Goat". Exported with Export Selection, split by tools/build_creatures.py: one object per rigid body. Units: studs. +Y up, front faces -Z, pivot (bottom centre) at the origin.
mtllib animal_goat.mtl

v 2.71900 1.97000 0.33000
v 2.71900 1.97000 -0.33000
v 2.51200 2.60000 0.33000
v 2.51200 2.60000 -0.33000
v 2.10300 1.10000 0.77000
v 2.10300 2.03000 -0.77000
v 2.10300 2.03000 0.77000
v 2.10300 1.10000 -0.77000
v -2.71850 3.00000 0.43000
v -2.71850 2.36000 -0.43000
v -2.71850 2.36000 0.43000
v -2.71850 3.00000 -0.43000
v -1.38680 3.99000 0.12000
v -1.38680 3.99000 0.48000
v -1.02550 4.02000 0.45000
v -1.02550 4.02000 0.15000
v -1.02550 4.02000 -0.45000
v -1.38680 3.99000 -0.12000
v -1.02550 4.02000 -0.15000
v -1.38680 3.99000 -0.48000
v -1.65190 3.73000 0.48000
v -1.65190 3.73000 0.12000
v -1.65190 3.73000 -0.12000
v -1.65190 3.73000 -0.48000
v 1.77500 0.78000 0.28000
v 1.86100 0.95000 0.83000
v 1.77500 0.78000 0.83000
v 1.86100 0.95000 0.28000
v 1.77500 0.78000 -0.28000
v 1.86100 0.95000 -0.83000
v 1.86100 0.95000 -0.28000
v 1.77500 0.78000 -0.83000
v -2.67110 2.27000 0.39000
v -2.67110 2.18000 -0.39000
v -2.67110 2.18000 0.39000
v -2.67110 2.27000 -0.39000
v -2.64670 2.21000 0.00000
v -2.64670 1.79000 0.21000
v -2.64670 2.21000 0.21000
v -2.64670 1.58000 0.00000
v -2.64670 1.79000 -0.21000
v -2.64670 2.21000 -0.21000
v -2.62870 2.36000 0.35000
v -2.62870 2.27000 -0.35000
v -2.62870 2.27000 0.35000
v -2.62870 2.36000 -0.35000
v 1.86100 1.50000 0.83000
v 1.86100 1.50000 0.28000
v 1.86100 1.50000 -0.83000
v 1.86100 1.50000 -0.28000
v 1.77500 0.16000 0.28000
v 1.77500 0.16000 0.83000
v 1.77500 0.16000 -0.28000
v 1.77500 0.16000 -0.83000
v 1.75700 0.00000 0.82000
v 1.75700 0.18000 0.60000
v 1.75700 0.18000 0.82000
v 1.75700 0.00000 0.60000
v 1.75700 0.00000 0.51000
v 1.75700 0.18000 0.51000
v 1.75700 0.18000 0.30000
v 1.75700 0.00000 0.30000
v 2.38800 1.60000 -0.33000
v 2.38800 1.60000 0.33000
v 1.75700 0.00000 -0.51000
v 1.75700 0.18000 -0.30000
v 1.75700 0.00000 -0.30000
v 1.75700 0.18000 -0.51000
v 1.75700 0.18000 -0.60000
v 1.75700 0.00000 -0.60000
v 1.75700 0.00000 -0.82000
v 1.75700 0.18000 -0.82000
v 1.71400 2.42000 -0.77000
v 1.71400 2.42000 0.77000
v -2.14630 3.28000 0.62000
v -2.14630 2.04000 -0.62000
v -2.14630 2.04000 0.62000
v -2.14630 3.28000 -0.62000
v 1.39800 0.89000 0.91000
v 1.39800 0.89000 -0.91000
v 1.39800 2.21000 0.91000
v 1.39800 2.21000 -0.91000
v -0.76970 0.00000 0.82000
v -0.63570 0.00000 0.60000
v -0.63570 0.00000 0.82000
v -0.76970 0.00000 0.60000
v -0.14620 0.00000 0.82000
v -0.14620 0.00000 0.60000
v -0.63570 0.00000 0.51000
v -0.14620 0.00000 0.51000
v -0.63570 0.00000 0.30000
v -0.14620 0.00000 0.30000
v -0.76970 0.00000 0.51000
v -0.76970 0.00000 0.30000
v 1.13400 0.00000 0.82000
v 1.26800 0.00000 0.60000
v 1.26800 0.00000 0.82000
v 1.13400 0.00000 0.60000
v 1.26800 0.00000 0.51000
v 1.26800 0.00000 0.30000
v 1.13400 0.00000 0.51000
v 1.13400 0.00000 0.30000
v -0.76970 0.00000 -0.51000
v -0.63570 0.00000 -0.30000
v -0.76970 0.00000 -0.30000
v -0.63570 0.00000 -0.51000
v -0.14620 0.00000 -0.30000
v -0.14620 0.00000 -0.51000
v -0.63570 0.00000 -0.60000
v -0.14620 0.00000 -0.60000
v -0.63570 0.00000 -0.82000
v -0.14620 0.00000 -0.82000
v -0.76970 0.00000 -0.82000
v -0.76970 0.00000 -0.60000
v 1.13400 0.00000 -0.30000
v 1.26800 0.00000 -0.51000
v 1.26800 0.00000 -0.30000
v 1.13400 0.00000 -0.51000
v 1.26800 0.00000 -0.60000
v 1.26800 0.00000 -0.82000
v 1.13400 0.00000 -0.82000
v 1.13400 0.00000 -0.60000
v -1.74160 3.41000 0.08000
v -1.74160 3.41000 0.52000
v -1.30910 3.41000 0.08000
v -1.30910 3.41000 0.52000
v -1.74160 3.41000 -0.08000
v -1.30910 3.41000 -0.08000
v -1.74160 3.41000 -0.52000
v -1.30910 3.41000 -0.52000
v -2.02200 2.62000 0.66000
v -2.02200 3.17000 0.53000
v -2.02200 2.62000 0.53000
v -2.02200 3.17000 0.66000
v -2.02200 3.17000 -0.53000
v -2.02200 2.62000 -0.66000
v -2.02200 2.62000 -0.53000
v -2.02200 3.17000 -0.66000
v -1.72880 3.15000 0.43000
v -1.72880 3.15000 -0.43000
v -1.96570 2.67000 0.69000
v -1.96570 3.05000 0.60000
v -1.96570 2.67000 0.60000
v -1.96570 3.05000 0.69000
v -1.96570 3.05000 -0.60000
v -1.96570 2.67000 -0.69000
v -1.96570 2.67000 -0.60000
v -1.96570 3.05000 -0.69000
v -1.68700 3.49000 0.48000
v -1.68700 3.49000 0.12000
v -1.68700 3.49000 -0.48000
v -1.68700 3.49000 -0.12000
v -0.90440 3.28000 0.62000
v -0.90440 3.28000 -0.62000
v -0.59190 0.16000 0.28000
v -0.12900 0.16000 0.83000
v -0.59190 0.16000 0.83000
v -0.12900 0.16000 0.28000
v 1.31200 0.16000 0.83000
v 1.31200 0.16000 0.28000
v -0.59190 0.16000 -0.83000
v -0.12900 0.16000 -0.28000
v -0.59190 0.16000 -0.28000
v -0.12900 0.16000 -0.83000
v 1.31200 0.16000 -0.28000
v 1.31200 0.16000 -0.83000
v -1.70560 3.31000 0.12000
v -1.70560 3.31000 0.48000
v -1.70560 3.31000 -0.48000
v -1.70560 3.31000 -0.12000
v -1.58930 3.17000 0.66000
v -1.58930 3.17000 0.53000
v -1.58930 3.17000 -0.66000
v -1.58930 3.17000 -0.53000
v -1.74160 2.98000 0.08000
v -1.74160 2.98000 0.52000
v -1.74160 2.98000 -0.08000
v -1.74160 2.98000 -0.52000
v -1.67330 3.05000 0.69000
v -1.67330 3.05000 0.60000
v -1.67330 3.05000 -0.69000
v -1.67330 3.05000 -0.60000
v -0.81370 3.79000 0.39000
v -0.81370 3.79000 0.21000
v -0.81370 3.79000 -0.39000
v -0.81370 3.79000 -0.21000
v -1.62330 2.14000 0.33000
v -1.41720 1.50000 -0.33000
v -1.41720 1.50000 0.33000
v -1.62330 2.14000 -0.33000
v -0.20390 0.72000 -0.91000
v -0.20390 0.72000 0.91000
v 0.72100 0.88000 -0.77000
v 0.72100 0.88000 0.77000
v 0.00500 2.21000 0.91000
v 0.00500 2.21000 -0.91000
v -0.61990 1.01000 0.83000
v -0.12900 0.78000 0.83000
v -0.33290 1.63000 0.83000
v -0.59190 1.50000 0.83000
v -0.04230 0.95000 0.83000
v -0.04230 1.50000 0.83000
v -0.23810 0.88000 -0.77000
v -0.23810 0.88000 0.77000
v 1.28400 1.01000 0.83000
v 1.57100 1.63000 0.83000
v 1.31200 1.50000 0.83000
v -0.61990 1.01000 -0.83000
v -0.12900 0.78000 -0.83000
v -0.33290 1.63000 -0.83000
v -0.59190 1.50000 -0.83000
v -0.04230 0.95000 -0.83000
v -0.04230 1.50000 -0.83000
v 1.28400 1.01000 -0.83000
v 1.57100 1.63000 -0.83000
v 1.31200 1.50000 -0.83000
v -0.63730 0.18000 0.82000
v -0.50330 0.18000 0.82000
v -0.14620 0.18000 0.82000
v 1.26600 0.18000 0.82000
v 1.40000 0.18000 0.82000
v -0.63730 0.18000 -0.82000
v -0.50330 0.18000 -0.82000
v -0.14620 0.18000 -0.82000
v 1.26600 0.18000 -0.82000
v 1.40000 0.18000 -0.82000
v -0.99030 2.34000 0.33000
v -0.99030 2.34000 -0.33000
v -0.90910 2.42000 0.77000
v -0.90910 1.22000 0.77000
v -0.90910 2.42000 -0.77000
v -0.90910 1.22000 -0.77000
v 1.57100 1.63000 0.28000
v 1.57100 1.63000 -0.28000
v -1.67330 2.67000 0.69000
v -1.67330 2.67000 -0.69000
v 0.46000 1.95000 -0.53000
v -1.08200 3.04000 0.53000
v 0.46000 1.95000 0.53000
v -1.08200 3.04000 -0.53000
v -1.58930 2.62000 0.66000
v -1.58930 2.62000 -0.66000
v -0.90440 2.04000 0.62000
v -0.90440 2.04000 -0.62000
v -0.12900 0.78000 0.28000
v -0.04230 0.95000 0.28000
v -0.12900 0.78000 -0.28000
v -0.04230 0.95000 -0.28000
v -1.77630 2.28000 0.39000
v -1.81870 2.28000 0.35000
v -1.77630 2.28000 -0.39000
v -1.81870 2.28000 -0.35000
v -0.44920 1.41000 -0.53000
v -1.99110 2.49000 -0.53000
v -0.44920 1.41000 0.53000
v -1.99110 2.49000 0.53000
v -1.30910 2.98000 0.52000
v -1.30910 2.98000 -0.52000
v -0.63730 0.18000 0.51000
v -0.50330 0.18000 0.51000
v 1.26600 0.18000 0.51000
v 1.40000 0.18000 0.51000
v -0.63730 0.18000 -0.51000
v -0.50330 0.18000 -0.51000
v 1.26600 0.18000 -0.51000
v 1.40000 0.18000 -0.51000
v -2.37670 2.21000 0.00000
v -2.37670 2.21000 0.21000
v -2.37670 2.21000 -0.21000
v -1.35570 3.27000 0.48000
v -1.33710 3.45000 0.48000
v -1.33490 3.58000 0.48000
v -1.22750 3.68000 0.48000
v -1.35570 3.27000 -0.48000
v -1.33710 3.45000 -0.48000
v -1.33490 3.58000 -0.48000
v -1.22750 3.68000 -0.48000
v -1.72880 2.39000 0.43000
v -1.72880 2.39000 -0.43000
v -1.09830 3.73000 0.45000
v -1.09830 3.73000 -0.45000
v -1.77630 2.17000 0.39000
v -1.77630 2.17000 -0.39000
v -1.81870 2.39000 0.35000
v -1.81870 2.39000 -0.35000
v -0.78420 1.71000 0.33000
v 1.98700 1.81000 0.33000
v 1.87900 2.14000 0.33000
v -0.78420 1.71000 -0.33000
v 1.98700 1.81000 -0.33000
v 1.87900 2.14000 -0.33000
v -0.04230 1.50000 0.28000
v -0.04230 1.50000 -0.28000
v -0.61990 1.01000 0.28000
v -0.61990 1.01000 -0.28000
v -0.59190 1.50000 0.28000
v -0.59190 1.50000 -0.28000
v -0.14620 0.18000 0.60000
v -0.14620 0.18000 0.51000
v -0.14620 0.18000 0.30000
v -2.37670 1.79000 0.21000
v -0.14620 0.18000 -0.30000
v -0.14620 0.18000 -0.51000
v -0.14620 0.18000 -0.60000
v -2.37670 1.79000 -0.21000
v -2.37670 1.58000 0.00000
v -0.96860 3.70000 0.39000
v -0.96860 3.70000 -0.39000
v -0.33290 1.63000 0.28000
v -0.33290 1.63000 -0.28000
v -1.30910 2.98000 0.08000
v -0.92950 3.60000 0.36000
v -0.81740 3.53000 0.34000
v -0.81140 3.62000 0.36000
v -0.89660 3.52000 0.34000
v -1.30910 2.98000 -0.08000
v -0.92950 3.60000 -0.36000
v -0.81740 3.53000 -0.34000
v -0.89660 3.52000 -0.34000
v -0.81140 3.62000 -0.36000
v -1.35570 3.27000 0.12000
v -1.33710 3.45000 0.12000
v -1.33490 3.58000 0.12000
v -1.22750 3.68000 0.12000
v -1.35570 3.27000 -0.12000
v -1.33710 3.45000 -0.12000
v -1.33490 3.58000 -0.12000
v -1.22750 3.68000 -0.12000
v -0.89660 3.52000 0.26000
v -0.92950 3.60000 0.24000
v -0.89660 3.52000 -0.26000
v -0.92950 3.60000 -0.24000
v -1.09830 3.73000 0.15000
v -1.09830 3.73000 -0.15000
v -0.96860 3.70000 0.21000
v -0.96860 3.70000 -0.21000
v 1.28400 1.01000 0.28000
v 1.31200 1.50000 0.28000
v 1.28400 1.01000 -0.28000
v 1.31200 1.50000 -0.28000
v -0.63730 0.18000 0.30000
v -0.50330 0.18000 0.30000
v 1.26600 0.18000 0.30000
v 1.40000 0.18000 0.30000
v -0.63730 0.18000 -0.30000
v -0.50330 0.18000 -0.30000
v 1.26600 0.18000 -0.30000
v 1.40000 0.18000 -0.30000
v -0.81140 3.62000 0.24000
v -0.81140 3.62000 -0.24000
v -0.81740 3.53000 0.26000
v -0.81740 3.53000 -0.26000
v -0.63730 0.18000 0.60000
v -0.50330 0.18000 0.60000
v 1.26600 0.18000 0.60000
v 1.40000 0.18000 0.60000
v -0.63730 0.18000 -0.60000
v -0.50330 0.18000 -0.60000
v 1.26600 0.18000 -0.60000
v 1.40000 0.18000 -0.60000
v -1.58930 2.62000 0.53000
v -1.58930 2.62000 -0.53000
v -1.67330 2.67000 0.60000
v -1.67330 2.67000 -0.60000
vt 0.57324 0.79753
vt 0.64578 0.79753
vt 0.57324 0.86650
vt 0.64578 0.86650
vt 0.47649 0.74071
vt 0.57576 0.57560
vt 0.57576 0.74071
vt 0.47649 0.57560
vt 0.32848 0.88194
vt 0.26374 0.96855
vt 0.26374 0.88194
vt 0.32848 0.96855
vt 0.73618 0.56780
vt 0.77184 0.56780
vt 0.76924 0.60442
vt 0.73878 0.60442
vt 1.76924 0.60442
vt 1.73618 0.56780
vt 1.73878 0.60442
vt 1.77184 0.56780
vt 0.93477 0.31602
vt 0.97321 0.28720
vt 0.97321 0.31602
vt 0.93477 0.28720
vt 1.97321 0.31602
vt 1.93477 0.28720
vt 1.93477 0.31602
vt 1.97321 0.28720
vt 0.79732 0.81985
vt 0.74128 0.83785
vt 0.74128 0.81985
vt 0.79732 0.83785
vt 1.79732 0.81985
vt 1.74128 0.83785
vt 1.79732 0.83785
vt 1.74128 0.81985
vt 0.15937 0.31668
vt 0.15060 0.39498
vt 0.15060 0.31668
vt 0.15937 0.39498
vt 0.95626 0.38348
vt 0.97774 0.34052
vt 0.97774 0.38348
vt 0.95626 0.31980
vt 0.93477 0.34052
vt 0.93477 0.38348
vt 0.73587 0.29213
vt 0.72600 0.36301
vt 0.72600 0.29213
vt 0.73587 0.36301
vt 0.74128 0.89389
vt 0.79732 0.89389
vt 1.74128 0.89389
vt 1.79732 0.89389
vt 0.79732 0.75734
vt 0.74128 0.75734
vt 1.79732 0.75734
vt 1.74128 0.75734
vt 0.38992 0.97420
vt 0.40809 0.95237
vt 0.40809 0.97420
vt 0.38992 0.95237
vt 0.38992 0.94318
vt 0.40809 0.94318
vt 0.40809 0.92135
vt 0.38992 0.92135
vt 0.64578 0.75734
vt 0.57324 0.75734
vt 1.38993 0.94318
vt 1.40809 0.92135
vt 1.38993 0.92135
vt 1.40809 0.94318
vt 1.40809 0.95237
vt 1.38993 0.95237
vt 1.38993 0.97420
vt 1.40809 0.97420
vt 0.61741 0.57560
vt 0.61741 0.74071
vt 0.12861 0.73201
vt 0.00293 0.85769
vt 0.00293 0.73201
vt 0.12861 0.85769
vt 0.00293 0.68798
vt 0.00293 0.50424
vt 0.13620 0.68798
vt 0.13620 0.50424
vt 0.81256 0.85266
vt 0.83439 0.86622
vt 0.81256 0.86622
vt 0.83439 0.85266
vt 0.81256 0.91576
vt 0.83439 0.91576
vt 0.84359 0.86622
vt 0.84359 0.91576
vt 0.86541 0.86622
vt 0.86541 0.91576
vt 0.84359 0.85266
vt 0.86541 0.85266
vt 0.91950 0.52676
vt 0.94132 0.54032
vt 0.91950 0.54032
vt 0.94132 0.52676
vt 0.91950 0.58985
vt 0.94132 0.58985
vt 0.95052 0.54032
vt 0.95052 0.58985
vt 0.97234 0.58985
vt 0.97234 0.54032
vt 0.95052 0.52676
vt 0.97234 0.52676
vt 1.84359 0.85266
vt 1.86541 0.86622
vt 1.86541 0.85266
vt 1.84359 0.86622
vt 1.86541 0.91576
vt 1.84359 0.91576
vt 1.83439 0.86622
vt 1.83439 0.91576
vt 1.81256 0.86622
vt 1.81256 0.91576
vt 1.81256 0.85266
vt 1.83439 0.85266
vt 1.97234 0.52676
vt 1.95052 0.54032
vt 1.97234 0.54032
vt 1.95052 0.52676
vt 1.97234 0.58985
vt 1.95052 0.58985
vt 1.94132 0.58985
vt 1.94132 0.54032
vt 1.91950 0.58985
vt 1.91950 0.54032
vt 1.91950 0.52676
vt 1.94132 0.52676
vt 0.29111 0.58095
vt 0.29111 0.62471
vt 0.24735 0.58095
vt 0.24735 0.62471
vt 1.29111 0.58095
vt 1.24735 0.58095
vt 1.29111 0.62471
vt 1.24735 0.62471
vt 0.99388 0.75145
vt 0.98060 0.80692
vt 0.98060 0.75145
vt 0.99388 0.80692
vt 1.98060 0.80692
vt 1.99388 0.75145
vt 1.98060 0.75145
vt 1.99388 0.80692
vt 0.86404 0.10374
vt 0.77692 0.00298
vt 0.86404 0.00298
vt 0.77692 0.10374
vt 0.17485 0.26559
vt 0.16588 0.30307
vt 0.16588 0.26559
vt 0.17485 0.30307
vt 1.16588 0.30307
vt 1.17485 0.26559
vt 1.16588 0.26559
vt 1.17485 0.30307
vt 0.97321 0.26099
vt 0.93477 0.26099
vt 1.97321 0.26099
vt 1.93477 0.26099
vt 0.34410 0.81740
vt 0.46977 0.69172
vt 0.46977 0.81740
vt 0.34410 0.69172
vt 0.38076 0.97698
vt 0.33391 0.92135
vt 0.38076 0.92135
vt 0.33391 0.97698
vt 0.41662 0.62942
vt 0.37480 0.67907
vt 0.37480 0.62942
vt 0.41662 0.67907
vt 1.38076 0.92135
vt 1.33391 0.97698
vt 1.38076 0.97698
vt 1.33391 0.92135
vt 1.41662 0.67907
vt 1.37480 0.62942
vt 1.37480 0.67907
vt 1.41662 0.62942
vt 0.93477 0.24114
vt 0.97321 0.24114
vt 1.97321 0.24114
vt 1.93477 0.24114
vt 0.93278 0.59367
vt 0.93278 0.63746
vt 0.91950 0.59367
vt 0.91950 0.63746
vt 1.93278 0.63746
vt 1.91950 0.59367
vt 1.91950 0.63746
vt 1.93278 0.59367
vt 0.18927 0.58095
vt 0.14551 0.62471
vt 0.14551 0.58095
vt 0.18927 0.62471
vt 1.18927 0.58095
vt 1.14551 0.62471
vt 1.18927 0.62471
vt 1.14551 0.58095
vt 0.65860 0.36333
vt 0.65860 0.39292
vt 0.64962 0.36333
vt 0.64962 0.39292
vt 1.65860 0.39292
vt 1.64962 0.36333
vt 1.64962 0.39292
vt 1.65860 0.36333
vt 0.43871 0.62274
vt 0.46561 0.64848
vt 0.43198 0.64848
vt 0.45888 0.62274
vt 1.43871 0.62274
vt 1.46561 0.64848
vt 1.45888 0.62274
vt 1.43198 0.64848
vt 0.97501 0.09735
vt 0.90931 0.16644
vt 0.90931 0.09735
vt 0.97501 0.16644
vt 0.64418 0.40587
vt 0.48158 0.22157
vt 0.64418 0.22157
vt 0.48158 0.40587
vt 0.16136 0.17065
vt 0.00293 0.31286
vt 0.00293 0.17065
vt 0.16136 0.31286
vt 0.60240 0.87210
vt 0.71893 0.87210
vt 0.71893 0.99754
vt 0.60240 0.99754
vt 0.63276 0.43086
vt 0.49949 0.57178
vt 0.48158 0.40968
vt 0.63276 0.57178
vt 0.86593 0.75454
vt 0.86310 0.84073
vt 0.81625 0.77869
vt 0.81625 0.84073
vt 0.83688 0.69216
vt 0.86310 0.70520
vt 0.80747 0.76082
vt 0.80747 0.70520
vt 0.16136 0.07201
vt 0.00293 0.07201
vt 0.84047 0.16993
vt 0.83764 0.25612
vt 0.79079 0.19408
vt 0.79079 0.25612
vt 0.81142 0.10755
vt 0.83764 0.12058
vt 0.78201 0.17621
vt 0.78201 0.12058
vt 1.86310 0.84073
vt 1.86593 0.75454
vt 1.81625 0.77869
vt 1.81625 0.84073
vt 1.83688 0.69216
vt 1.86310 0.70520
vt 1.80747 0.76082
vt 1.80747 0.70520
vt 1.83764 0.25612
vt 1.84047 0.16993
vt 1.79079 0.19408
vt 1.79079 0.25612
vt 1.81142 0.10755
vt 1.83764 0.12058
vt 1.78201 0.17621
vt 1.78201 0.12058
vt 0.96023 0.01632
vt 0.97840 0.00293
vt 0.97840 0.01649
vt 0.96023 0.02988
vt 0.97840 0.06603
vt 0.96023 0.06603
vt 0.96533 0.84044
vt 0.98349 0.82705
vt 0.98349 0.84061
vt 0.96533 0.85400
vt 0.98349 0.89015
vt 0.96533 0.89015
vt 1.97840 0.01649
vt 1.97840 0.00293
vt 1.96023 0.01632
vt 1.96023 0.02988
vt 1.97840 0.06603
vt 1.96023 0.06603
vt 1.98349 0.84061
vt 1.98349 0.82705
vt 1.96533 0.84044
vt 1.96533 0.85400
vt 1.98349 0.89015
vt 1.96533 0.89015
vt 0.20409 0.99177
vt 0.23792 0.95619
vt 0.23792 0.99177
vt 0.20409 0.95619
vt 0.48466 0.07088
vt 0.32882 0.00298
vt 0.44994 0.00298
vt 0.48466 0.16791
vt 0.32882 0.26848
vt 0.36814 0.30780
vt 0.46184 0.30780
vt 0.32172 0.00298
vt 0.16588 0.07088
vt 0.20059 0.00298
vt 0.16588 0.16791
vt 0.32172 0.26848
vt 0.28240 0.30780
vt 0.18870 0.30780
vt 0.48242 0.99703
vt 0.42884 0.99703
vt 0.48242 0.96870
vt 0.42884 0.96870
vt 1.48242 0.96870
vt 1.42884 0.96870
vt 1.42884 0.99703
vt 1.48242 0.99703
vt 0.32172 0.31162
vt 0.32172 0.57713
vt 0.16588 0.57713
vt 0.16588 0.31162
vt 0.87780 0.93900
vt 0.87780 0.97648
vt 0.84821 0.97648
vt 0.84821 0.93900
vt 1.87780 0.93900
vt 1.84821 0.97648
vt 1.87780 0.97648
vt 1.84821 0.93900
vt 0.16136 0.00298
vt 0.00293 0.00298
vt 0.34203 0.56773
vt 0.47020 0.33943
vt 0.47018 0.56774
vt 0.34204 0.33942
vt 0.97856 0.45475
vt 0.97856 0.51023
vt 0.93477 0.51023
vt 0.93477 0.45475
vt 1.97856 0.45475
vt 1.93477 0.51023
vt 1.97856 0.51023
vt 1.93477 0.45475
vt 0.74128 0.29213
vt 0.86695 0.29213
vt 0.86695 0.41781
vt 0.74128 0.41781
vt 0.26100 0.73202
vt 0.26100 0.85769
vt 0.13532 0.73202
vt 0.13532 0.85769
vt 0.90425 0.17006
vt 0.84821 0.18806
vt 0.84821 0.17006
vt 0.90425 0.18806
vt 1.90425 0.17006
vt 1.84821 0.18806
vt 1.90425 0.18806
vt 1.84821 0.17006
vt 0.49878 0.84854
vt 0.49878 0.93910
vt 0.49507 0.85283
vt 0.42048 0.84854
vt 0.49507 0.93481
vt 0.42419 0.85283
vt 0.42048 0.93910
vt 0.42419 0.93481
vt 0.77074 0.15882
vt 0.64962 0.00298
vt 0.77074 0.00298
vt 0.64962 0.15882
vt 0.17399 0.63046
vt 0.36476 0.63047
vt 0.32100 0.72820
vt 0.13023 0.72819
vt 0.73717 0.56127
vt 0.63944 0.41426
vt 0.73716 0.37050
vt 0.63944 0.60504
vt 0.09762 0.93940
vt 0.09762 0.98317
vt 0.05385 0.98317
vt 0.05385 0.93940
vt 1.09762 0.93940
vt 1.05385 0.98317
vt 1.09762 0.98317
vt 1.05385 0.93940
vt 0.49472 0.19143
vt 0.51729 0.19143
vt 0.50924 0.20234
vt 0.48667 0.20234
vt 0.53037 0.19143
vt 0.55293 0.19143
vt 0.54488 0.20234
vt 0.52232 0.20234
vt 1.50924 0.20234
vt 1.51729 0.19143
vt 1.49472 0.19143
vt 1.48667 0.20234
vt 1.54488 0.20234
vt 1.55293 0.19143
vt 1.53037 0.19143
vt 1.52232 0.20234
vt 0.79915 0.72499
vt 0.79915 0.74647
vt 0.77183 0.72499
vt 0.77183 0.74647
vt 0.77183 0.70351
vt 0.79915 0.70351
vt 0.00293 0.50042
vt 0.14385 0.31668
vt 0.14385 0.50042
vt 0.00293 0.31668
vt 0.92228 0.65341
vt 0.94706 0.68522
vt 0.92880 0.68860
vt 0.94055 0.65002
vt 0.91631 0.68983
vt 0.89825 0.65894
vt 0.87368 0.68799
vt 0.90679 0.70157
vt 1.92228 0.65341
vt 1.94706 0.68522
vt 1.94055 0.65002
vt 1.92880 0.68860
vt 1.89825 0.65894
vt 1.91631 0.68983
vt 1.87368 0.68799
vt 1.90679 0.70157
vt 0.85036 0.55186
vt 0.91508 0.54982
vt 0.91506 0.65004
vt 0.83802 0.65246
vt 0.71943 0.75938
vt 0.65472 0.85756
vt 0.65471 0.75734
vt 0.73176 0.85998
vt 0.90264 0.71510
vt 0.87367 0.72487
vt 1.90264 0.71510
vt 1.87367 0.72487
vt 0.99056 0.06984
vt 0.99104 0.16040
vt 0.98179 0.06984
vt 0.98060 0.16040
vt 0.98985 0.22692
vt 0.98060 0.31748
vt 0.98108 0.22692
vt 0.99104 0.31748
vt 0.99189 0.66549
vt 0.99198 0.74747
vt 0.98203 0.66563
vt 0.98060 0.74763
vt 0.99561 0.32143
vt 0.98569 0.40328
vt 0.98575 0.32130
vt 0.99707 0.40344
vt 0.64962 0.35951
vt 0.71699 0.29213
vt 0.71700 0.35951
vt 0.64962 0.29214
vt 0.14034 0.95223
vt 0.10982 0.88276
vt 0.17376 0.94112
vt 0.17375 0.86150
vt 0.09968 0.93187
vt 0.57442 0.87032
vt 0.57442 0.93770
vt 0.50704 0.93769
vt 0.50705 0.87032
vt 0.09367 0.90216
vt 0.02419 0.87165
vt 0.07330 0.86151
vt 0.08255 0.93559
vt 0.00293 0.93558
vt 0.84821 0.24410
vt 0.90425 0.24410
vt 1.84821 0.24410
vt 1.90425 0.24410
vt 0.76535 0.75352
vt 0.62416 0.60884
vt 0.76535 0.60884
vt 0.62416 0.75352
vt 0.92932 0.47357
vt 0.87367 0.38734
vt 0.92932 0.38734
vt 0.87367 0.47357
vt 1.87367 0.47357
vt 1.92932 0.47357
vt 1.87367 0.38734
vt 1.92932 0.38734
vt 0.90425 0.10756
vt 0.84821 0.10756
vt 1.90425 0.10756
vt 1.84821 0.10756
vt 0.92932 0.52294
vt 0.87367 0.52294
vt 1.92932 0.52294
vt 1.87367 0.52294
vt 0.97551 0.22311
vt 0.99367 0.20128
vt 0.99367 0.22311
vt 0.97551 0.20128
vt 0.97551 0.19208
vt 0.99367 0.19208
vt 0.99367 0.17026
vt 0.97551 0.17026
vt 0.97927 0.59367
vt 0.97927 0.63961
vt 0.95005 0.63961
vt 0.95005 0.59367
vt 1.97551 0.19208
vt 1.99367 0.17026
vt 1.97551 0.17026
vt 1.99367 0.19208
vt 1.99367 0.20128
vt 1.97551 0.20128
vt 1.97551 0.22311
vt 1.99367 0.22311
vt 0.97418 0.71250
vt 0.94496 0.75845
vt 0.94496 0.71250
vt 0.97418 0.75845
vt 0.97927 0.66176
vt 0.95005 0.66176
vt 0.94496 0.69036
vt 0.97418 0.69036
vt 0.90682 0.72800
vt 0.89874 0.74446
vt 1.90682 0.72800
vt 1.89874 0.74446
vt 0.94741 0.97627
vt 0.88894 0.97627
vt 0.94741 0.94537
vt 0.88894 0.94537
vt 1.94741 0.97627
vt 1.88895 0.94537
vt 1.88895 0.97627
vt 1.94741 0.94537
vt 0.94741 0.91781
vt 0.88894 0.91781
vt 0.04670 0.98317
vt 0.00293 0.98317
vt 0.04670 0.93940
vt 0.00293 0.93940
vt 0.91677 0.73118
vt 0.92480 0.74197
vt 0.91586 0.74331
vt 0.92541 0.73384
vt 1.94741 0.91781
vt 1.88895 0.91781
vt 1.04670 0.98317
vt 1.04670 0.93940
vt 1.00293 0.98317
vt 1.00293 0.93940
vt 1.91677 0.73118
vt 1.92480 0.74197
vt 1.92541 0.73384
vt 1.91586 0.74331
vt 0.88019 0.74665
vt 0.89845 0.75003
vt 0.87367 0.78184
vt 0.89193 0.78522
vt 0.90443 0.78646
vt 0.92249 0.75556
vt 0.94706 0.78462
vt 0.91394 0.79819
vt 1.88019 0.74665
vt 1.87367 0.78184
vt 1.89845 0.75003
vt 1.89193 0.78522
vt 1.90443 0.78646
vt 1.92249 0.75556
vt 1.94706 0.78462
vt 1.91394 0.79819
vt 0.95464 0.91399
vt 0.88894 0.84490
vt 0.95464 0.84490
vt 0.88894 0.91399
vt 0.47498 0.00614
vt 0.46631 0.01664
vt 0.46631 0.00822
vt 0.47498 0.01871
vt 1.47498 0.00614
vt 1.46631 0.01664
vt 1.47498 0.01871
vt 1.46631 0.00822
vt 0.91809 0.81172
vt 0.94706 0.82150
vt 1.91809 0.81172
vt 1.94706 0.82150
vt 0.48496 0.02191
vt 0.48496 0.00295
vt 1.48496 0.02191
vt 1.48496 0.00295
vt 0.78060 0.61316
vt 0.82745 0.55112
vt 0.83029 0.63731
vt 0.78060 0.55112
vt 0.80124 0.69969
vt 0.82745 0.68666
vt 0.77183 0.63103
vt 0.77183 0.68666
vt 0.27649 0.79406
vt 0.32334 0.73202
vt 0.32618 0.81820
vt 0.27649 0.73202
vt 0.29712 0.88058
vt 0.32334 0.86755
vt 0.26772 0.81192
vt 0.26772 0.86755
vt 1.82745 0.55112
vt 1.78060 0.61316
vt 1.83029 0.63731
vt 1.78060 0.55112
vt 1.80124 0.69969
vt 1.82745 0.68666
vt 1.77183 0.63103
vt 1.77183 0.68666
vt 1.32334 0.73202
vt 1.27649 0.79406
vt 1.32618 0.81820
vt 1.27649 0.73202
vt 1.29712 0.88058
vt 1.32334 0.86755
vt 1.26772 0.81192
vt 1.26772 0.86755
vt 0.64368 0.00298
vt 0.49177 0.18761
vt 0.49177 0.00298
vt 0.64368 0.18761
vt 0.97330 0.77563
vt 0.95514 0.77580
vt 0.95514 0.76224
vt 0.97330 0.78919
vt 0.95514 0.82533
vt 0.97330 0.82533
vt 0.97840 0.90733
vt 0.96023 0.90750
vt 0.96023 0.89394
vt 0.97840 0.92089
vt 0.96023 0.95703
vt 0.97840 0.95703
vt 1.95514 0.77580
vt 1.97330 0.77563
vt 1.95514 0.76224
vt 1.97330 0.78919
vt 1.95514 0.82533
vt 1.97330 0.82533
vt 1.96023 0.90750
vt 1.97840 0.90733
vt 1.96023 0.89394
vt 1.97840 0.92089
vt 1.96023 0.95703
vt 1.97840 0.95703
vt 0.77530 0.28831
vt 0.64962 0.16264
vt 0.77530 0.16264
vt 0.64962 0.28831
vt 0.72600 0.96982
vt 0.72600 0.90073
vt 0.79170 0.96982
vt 0.79170 0.90073
vt 0.44210 0.60388
vt 0.45548 0.60388
vt 1.44211 0.60388
vt 1.45548 0.60388
vt 0.95197 0.00298
vt 0.87367 0.09353
vt 0.87367 0.00298
vt 0.95197 0.09353
vt 0.74128 0.54731
vt 0.74128 0.42163
vt 0.86695 0.54731
vt 0.86695 0.42163
vt 0.45327 0.59396
vt 0.44431 0.59396
vt 1.45327 0.59396
vt 1.44431 0.59396
vt 0.67581 0.38586
vt 0.66490 0.37134
vt 0.67581 0.36329
vt 0.66490 0.39391
vt 0.17679 0.02550
vt 0.16588 0.01099
vt 0.17679 0.00294
vt 0.16588 0.03355
vt 1.66490 0.37134
vt 1.67581 0.38586
vt 1.67581 0.36329
vt 1.66490 0.39391
vt 1.16588 0.01099
vt 1.17679 0.02550
vt 1.17679 0.00294
vt 1.16588 0.03355
vt 0.91391 0.82462
vt 0.92199 0.84108
vt 1.91391 0.82462
vt 1.92199 0.84108
vt 0.89532 0.83046
vt 0.90488 0.83993
vt 0.89594 0.83859
vt 0.90396 0.82780
vt 1.89532 0.83046
vt 1.90488 0.83993
vt 1.90396 0.82780
vt 1.89594 0.83859
vt 0.52443 0.77154
vt 0.54740 0.75744
vt 0.54740 0.77154
vt 0.52443 0.75744
vt 0.86838 0.26343
vt 0.84312 0.24792
vt 0.86838 0.24792
vt 0.84312 0.26343
vt 1.84312 0.26343
vt 1.86838 0.26343
vt 1.84312 0.24792
vt 1.86838 0.24792
vt 1.52443 0.77154
vt 1.54741 0.77154
vt 1.52443 0.75744
vt 1.54741 0.75744
vt 0.47649 0.84472
vt 0.47649 0.74453
vt 0.48436 0.83562
vt 0.48436 0.75362
vt 0.55525 0.83562
vt 0.55525 0.75362
vt 0.56312 0.84472
vt 0.56312 0.74453
vt 0.52443 0.77172
vt 0.52443 0.78582
vt 0.51474 0.78582
vt 0.51474 0.77172
vt 1.51474 0.78582
vt 1.52443 0.77172
vt 1.51474 0.77172
vt 1.52443 0.78582
vt 0.29827 0.58095
vt 0.31155 0.62474
vt 0.29827 0.62474
vt 0.31155 0.58095
vt 1.29827 0.58095
vt 1.31155 0.62474
vt 1.31155 0.58095
vt 1.29827 0.62474
vt 0.48242 0.94345
vt 0.42884 0.94345
vt 1.48242 0.94345
vt 1.42884 0.94345
vt 0.19643 0.62471
vt 0.19643 0.58095
vt 0.24019 0.62471
vt 0.24019 0.58095
vt 1.19643 0.58095
vt 1.24019 0.62471
vt 1.24019 0.58095
vt 1.19643 0.62471
vt 0.15060 0.39880
vt 0.15958 0.42839
vt 0.15060 0.42839
vt 0.15958 0.39880
vt 1.15060 0.39880
vt 1.15957 0.42839
vt 1.15957 0.39880
vt 1.15060 0.42839
vt 0.41425 0.86116
vt 0.41425 0.91753
vt 0.33391 0.91753
vt 0.33391 0.86116
vt 0.50704 0.96092
vt 0.54463 0.97410
vt 0.50704 0.97410
vt 0.54463 0.96092
vt 1.50704 0.96092
vt 1.54463 0.97410
vt 1.54463 0.96092
vt 1.50704 0.97410
vt 0.50704 0.94151
vt 0.54463 0.94151
vt 0.47359 0.92801
vt 0.43066 0.85665
vt 0.47359 0.85665
vt 0.43066 0.92801
vt 1.50704 0.94151
vt 1.54463 0.94151
vt 0.98060 0.56952
vt 0.98060 0.51404
vt 0.99388 0.51404
vt 0.99388 0.56952
vt 1.98060 0.56952
vt 1.99388 0.51404
vt 1.98060 0.51404
vt 1.99388 0.56952
vt 0.84106 0.98276
vt 0.79729 0.93900
vt 0.84106 0.93900
vt 0.79729 0.98276
vt 1.84106 0.98276
vt 1.84106 0.93900
vt 1.79729 0.93900
vt 1.79729 0.98276
vt 0.98569 0.04046
vt 0.98569 0.00298
vt 0.99467 0.00298
vt 0.99467 0.04046
vt 1.98569 0.00298
vt 1.98569 0.04046
vt 1.99467 0.00298
vt 1.99467 0.04046
vt 0.18115 0.94812
vt 0.18115 0.86151
vt 0.25823 0.94812
vt 0.25823 0.86151
vt 0.98569 0.48555
vt 0.98569 0.40726
vt 0.99613 0.48555
vt 0.99613 0.40726
vt 0.03843 0.69180
vt 0.00293 0.72749
vt 0.00293 0.69180
vt 0.03843 0.72749
vt 1.03843 0.69180
vt 1.00293 0.72749
vt 1.03843 0.72749
vt 1.00293 0.69180
vt 0.14551 0.57512
vt 0.14551 0.50424
vt 0.15688 0.57512
vt 0.15688 0.50424
vt 0.54740 0.82388
vt 0.52443 0.82388
vt 0.54740 0.78582
vt 0.51474 0.82388
vt 0.49177 0.82388
vt 0.49177 0.78582
vt 0.84312 0.27913
vt 0.86838 0.27913
vt 0.94229 0.18450
vt 0.96548 0.19891
vt 0.94229 0.19891
vt 0.96548 0.18450
vt 0.96548 0.23733
vt 0.94229 0.23733
vt 0.93251 0.23733
vt 0.93251 0.19891
vt 0.90931 0.23733
vt 0.90931 0.19891
vt 0.90931 0.18450
vt 0.93251 0.18450
vt 1.49177 0.78582
vt 1.51474 0.82388
vt 1.49177 0.82388
vt 1.52443 0.82388
vt 1.54741 0.78582
vt 1.54741 0.82388
vt 1.84312 0.27913
vt 1.86838 0.27913
vt 1.90931 0.23733
vt 1.93251 0.19891
vt 1.90931 0.19891
vt 1.90931 0.18450
vt 1.93251 0.18450
vt 1.93251 0.23733
vt 1.94229 0.23733
vt 1.94229 0.19891
vt 1.96548 0.23733
vt 1.96548 0.19891
vt 1.94229 0.18450
vt 1.96548 0.18450
vt 0.92932 0.33415
vt 0.87367 0.24792
vt 0.92932 0.24792
vt 0.87367 0.33415
vt 1.87367 0.33415
vt 1.92932 0.33415
vt 1.87367 0.24792
vt 1.92932 0.24792
vt 0.92932 0.38352
vt 0.87367 0.38352
vt 1.92932 0.38352
vt 1.87367 0.38352
vt 0.85151 0.65829
vt 0.83802 0.68328
vt 0.83802 0.66454
vt 0.85151 0.68954
vt 1.85151 0.68954
vt 1.85151 0.65829
vt 1.83802 0.68328
vt 1.83802 0.66454
vt 0.48455 0.03386
vt 0.47649 0.02570
vt 0.48455 0.02570
vt 0.47649 0.03386
vt 1.48455 0.02570
vt 1.47649 0.03386
vt 1.48455 0.03386
vt 1.47649 0.02570
vt 0.93477 0.40797
vt 0.95626 0.45094
vt 0.93477 0.45094
vt 0.95626 0.38726
vt 0.97774 0.40797
vt 0.97774 0.45094
vt 0.54463 0.98506
vt 0.50704 0.98506
vt 1.50704 0.98506
vt 1.54463 0.98506
vt 0.86494 0.65563
vt 0.86494 0.69220
vt 1.86494 0.69220
vt 1.86494 0.65563
vt 0.94229 0.17026
vt 0.96548 0.17026
vt 0.90931 0.17026
vt 0.93251 0.17026
vt 1.90931 0.17026
vt 1.93251 0.17026
vt 1.96548 0.17026
vt 1.94229 0.17026
vt 0.33391 0.82122
vt 0.41425 0.82122
vt 0.99595 0.04428
vt 0.99595 0.06453
vt 0.98569 0.06453
vt 0.98569 0.04428
vt 1.98569 0.06453
vt 1.99595 0.04428
vt 1.98569 0.04428
vt 1.99595 0.06453
vn 0.9528 0.3071 0.0000
vn 1.0000 0.0000 0.0000
vn -1.0000 0.0000 0.0000
vn -0.0787 1.0000 0.0000
vn -0.7087 0.7087 0.0000
vn 0.8976 -0.4409 0.0000
vn 0.7480 -0.6693 0.0000
vn 0.7087 0.7087 0.0000
vn 0.0000 -1.0000 0.0000
vn 0.0000 1.0000 0.0000
vn -0.1496 0.9921 0.0000
vn -0.9921 0.1417 0.0000
vn -0.9921 0.1024 0.0000
vn 0.7323 0.6772 0.0000
vn -0.9528 -0.3071 0.0000
vn 0.1102 -0.9921 0.0000
vn 0.1575 -0.9843 0.0000
vn 0.0000 0.0000 1.0000
vn 0.0000 0.0000 -1.0000
vn -0.3071 0.9528 0.0000
vn 0.4016 0.9134 0.0000
vn -0.4567 -0.8898 0.0000
vn 0.5748 0.8189 0.0000
vn -0.0157 1.0000 0.0000
vn 0.1024 0.0157 0.9921
vn 0.1024 0.0157 -0.9921
vn -0.5748 -0.8189 0.0000
vn -1.0000 -0.0315 0.0000
vn -1.0000 0.0551 0.0000
vn 0.0000 -0.7165 0.6929
vn 0.0000 -0.7165 -0.6929
vn 0.2362 -0.1417 0.9606
vn 0.2362 -0.1417 -0.9606
vn -0.4488 0.8976 0.0000
vn 0.0315 -0.2205 0.9764
vn 0.0315 -0.2205 -0.9764
vn 0.0866 -0.2126 0.9764
vn 0.0866 -0.2126 -0.9764
vn 0.3071 -0.9528 0.0000
vn -0.9291 -0.3701 0.0000
vn -0.9213 -0.3780 0.0000
vn 1.0000 0.0157 0.0000
vn -0.0079 -1.0000 0.0000
vn 1.0000 -0.0709 0.0000
vn -0.8032 0.5906 0.0000
vn 0.0315 -1.0000 0.0000
vn -0.5906 0.8032 0.0000
vn 1.0000 -0.0157 0.0000
vn 0.9921 -0.1024 0.0000
vn -0.1024 -0.9921 0.0000
vn -0.2283 -0.9764 0.0000
vn 0.6929 -0.7244 0.0000
vn 0.3701 -0.9291 0.0000

o animal_goat
usemtl tex_animal_goat_i023p001x
f 1/1/1 2/2/1 3/3/1
f 2/2/1 4/4/1 3/3/1
f 5/5/2 6/6/2 7/7/2
f 6/6/2 5/5/2 8/8/2
f 9/9/3 10/10/3 11/11/3
f 10/10/3 9/9/3 12/12/3
f 13/13/4 14/14/4 15/15/4
f 13/13/4 15/15/4 16/16/4
f 17/17/4 18/18/4 19/19/4
f 18/18/4 17/17/4 20/20/4
f 13/21/5 21/22/5 14/23/5
f 21/22/5 13/21/5 22/24/5
f 20/25/5 23/26/5 18/27/5
f 23/26/5 20/25/5 24/28/5
f 25/29/6 26/30/6 27/31/6
f 26/30/6 25/29/6 28/32/6
f 29/33/6 30/34/6 31/35/6
f 29/33/6 32/36/6 30/34/6
f 33/37/3 34/38/3 35/39/3
f 34/38/3 33/37/3 36/40/3
f 37/41/3 38/42/3 39/43/3
f 37/41/3 40/44/3 38/42/3
f 37/41/3 41/45/3 40/44/3
f 41/45/3 37/41/3 42/46/3
f 43/47/3 44/48/3 45/49/3
f 44/48/3 43/47/3 46/50/3
f 26/30/2 28/32/2 47/51/2
f 28/32/2 48/52/2 47/51/2
f 31/35/2 49/53/2 50/54/2
f 30/34/2 49/53/2 31/35/2
f 51/55/2 27/31/2 52/56/2
f 27/31/2 51/55/2 25/29/2
f 53/57/2 32/36/2 29/33/2
f 32/36/2 53/57/2 54/58/2
f 55/59/2 56/60/2 57/61/2
f 55/59/2 58/62/2 56/60/2
f 59/63/2 56/60/2 58/62/2
f 56/60/2 59/63/2 60/64/2
f 59/63/2 61/65/2 60/64/2
f 59/63/2 62/66/2 61/65/2
f 63/67/7 1/1/7 64/68/7
f 1/1/7 63/67/7 2/2/7
f 65/69/2 66/70/2 67/71/2
f 66/70/2 65/69/2 68/72/2
f 65/69/2 69/73/2 68/72/2
f 70/74/2 69/73/2 65/69/2
f 71/75/2 69/73/2 70/74/2
f 69/73/2 71/75/2 72/76/2
f 7/7/8 73/77/8 74/78/8
f 73/77/8 7/7/8 6/6/8
f 75/79/3 76/80/3 77/81/3
f 76/80/3 75/79/3 78/82/3
f 79/83/2 80/84/2 81/85/2
f 80/84/2 82/86/2 81/85/2
f 83/87/9 84/88/9 85/89/9
f 83/87/9 86/90/9 84/88/9
f 84/88/9 87/91/9 85/89/9
f 87/91/9 84/88/9 88/92/9
f 88/92/9 84/88/9 89/93/9
f 89/93/9 90/94/9 88/92/9
f 91/95/9 90/94/9 89/93/9
f 90/94/9 91/95/9 92/96/9
f 93/97/9 91/95/9 89/93/9
f 93/97/9 94/98/9 91/95/9
f 95/99/9 96/100/9 97/101/9
f 95/99/9 98/102/9 96/100/9
f 96/100/9 55/103/9 97/101/9
f 55/103/9 96/100/9 58/104/9
f 58/104/9 96/100/9 99/105/9
f 99/105/9 59/106/9 58/104/9
f 99/105/9 62/107/9 59/106/9
f 62/107/9 99/105/9 100/108/9
f 101/109/9 100/108/9 99/105/9
f 101/109/9 102/110/9 100/108/9
f 103/111/9 104/112/9 105/113/9
f 104/112/9 103/111/9 106/114/9
f 106/114/9 107/115/9 104/112/9
f 107/115/9 106/114/9 108/116/9
f 109/117/9 108/116/9 106/114/9
f 108/116/9 109/117/9 110/118/9
f 111/119/9 110/118/9 109/117/9
f 110/118/9 111/119/9 112/120/9
f 109/117/9 113/121/9 111/119/9
f 113/121/9 109/117/9 114/122/9
f 115/123/9 116/124/9 117/125/9
f 116/124/9 115/123/9 118/126/9
f 116/124/9 67/127/9 117/125/9
f 67/127/9 116/124/9 65/128/9
f 116/124/9 70/129/9 65/128/9
f 119/130/9 70/129/9 116/124/9
f 119/130/9 71/131/9 70/129/9
f 120/132/9 71/131/9 119/130/9
f 119/130/9 121/133/9 120/132/9
f 121/133/9 119/130/9 122/134/9
f 123/135/10 124/136/10 125/137/10
f 124/136/10 126/138/10 125/137/10
f 127/139/10 128/140/10 129/141/10
f 129/141/10 128/140/10 130/142/10
f 131/143/3 132/144/3 133/145/3
f 132/144/3 131/143/3 134/146/3
f 135/147/3 136/148/3 137/149/3
f 138/150/3 136/148/3 135/147/3
f 139/151/11 12/152/11 9/153/11
f 12/152/11 139/151/11 140/154/11
f 141/155/3 142/156/3 143/157/3
f 142/156/3 141/155/3 144/158/3
f 145/159/3 146/160/3 147/161/3
f 148/162/3 146/160/3 145/159/3
f 22/24/12 149/163/12 21/22/12
f 149/163/12 22/24/12 150/164/12
f 23/26/12 151/165/12 152/166/12
f 151/165/12 23/26/12 24/28/12
f 153/167/10 78/168/10 75/169/10
f 78/168/10 153/167/10 154/170/10
f 155/171/9 156/172/9 157/173/9
f 156/172/9 155/171/9 158/174/9
f 159/175/9 51/176/9 52/177/9
f 51/176/9 159/175/9 160/178/9
f 161/179/9 162/180/9 163/181/9
f 162/180/9 161/179/9 164/182/9
f 165/183/9 54/184/9 53/185/9
f 165/183/9 166/186/9 54/184/9
f 149/163/13 167/187/13 168/188/13
f 149/163/13 150/164/13 167/187/13
f 169/189/13 170/190/13 151/165/13
f 152/166/13 151/165/13 170/190/13
f 134/191/10 171/192/10 132/193/10
f 132/193/10 171/192/10 172/194/10
f 173/195/10 135/196/10 174/197/10
f 135/196/10 173/195/10 138/198/10
f 124/199/3 175/200/3 176/201/3
f 175/200/3 124/199/3 123/202/3
f 129/203/3 177/204/3 127/205/3
f 177/204/3 129/203/3 178/206/3
f 144/207/10 179/208/10 142/209/10
f 142/209/10 179/208/10 180/210/10
f 181/211/10 145/212/10 182/213/10
f 145/212/10 181/211/10 148/214/10
f 183/215/14 16/216/14 15/217/14
f 184/218/14 16/216/14 183/215/14
f 185/219/14 19/220/14 186/221/14
f 185/219/14 17/222/14 19/220/14
f 187/223/15 188/224/15 189/225/15
f 188/224/15 187/223/15 190/226/15
f 191/227/16 79/228/16 192/229/16
f 79/228/16 191/227/16 80/230/16
f 193/231/17 5/232/17 194/233/17
f 5/232/17 193/231/17 8/234/17
f 195/235/18 192/236/18 79/237/18
f 195/235/18 79/237/18 81/238/18
f 196/239/19 80/240/19 191/241/19
f 80/240/19 196/239/19 82/242/19
f 197/243/18 157/244/18 198/245/18
f 198/245/18 157/244/18 156/246/18
f 199/247/18 197/243/18 198/245/18
f 197/243/18 199/247/18 200/248/18
f 199/247/18 198/245/18 201/249/18
f 199/247/18 201/249/18 202/250/18
f 203/251/9 194/233/9 204/252/9
f 194/233/9 203/251/9 193/231/9
f 205/253/18 159/254/18 27/255/18
f 27/255/18 159/254/18 52/256/18
f 206/257/18 205/253/18 27/255/18
f 205/253/18 206/257/18 207/258/18
f 206/257/18 27/255/18 26/259/18
f 206/257/18 26/259/18 47/260/18
f 161/261/19 208/262/19 209/263/19
f 161/261/19 209/263/19 164/264/19
f 208/262/19 210/265/19 209/263/19
f 210/265/19 208/262/19 211/266/19
f 209/263/19 210/265/19 212/267/19
f 212/267/19 210/265/19 213/268/19
f 166/269/19 214/270/19 32/271/19
f 166/269/19 32/271/19 54/272/19
f 214/270/19 215/273/19 32/271/19
f 215/273/19 214/270/19 216/274/19
f 32/271/19 215/273/19 30/275/19
f 30/275/19 215/273/19 49/276/19
f 217/277/18 83/278/18 85/279/18
f 217/277/18 85/279/18 218/280/18
f 87/281/18 218/280/18 85/279/18
f 218/280/18 87/281/18 219/282/18
f 220/283/18 95/284/18 97/285/18
f 220/283/18 97/285/18 221/286/18
f 55/287/18 221/286/18 97/285/18
f 221/286/18 55/287/18 57/288/18
f 111/289/19 113/290/19 222/291/19
f 222/291/19 223/292/19 111/289/19
f 223/292/19 112/293/19 111/289/19
f 112/293/19 223/292/19 224/294/19
f 120/295/19 121/296/19 225/297/19
f 225/297/19 226/298/19 120/295/19
f 226/298/19 71/299/19 120/295/19
f 71/299/19 226/298/19 72/300/19
f 227/301/20 190/302/20 187/303/20
f 190/302/20 227/301/20 228/304/20
f 204/305/18 229/306/18 230/307/18
f 229/306/18 204/305/18 194/308/18
f 229/306/18 194/308/18 74/309/18
f 74/309/18 194/308/18 7/310/18
f 194/308/18 5/311/18 7/310/18
f 231/312/19 203/313/19 232/314/19
f 231/312/19 193/315/19 203/313/19
f 193/315/19 231/312/19 73/316/19
f 6/317/19 193/315/19 73/316/19
f 193/315/19 6/317/19 8/318/19
f 47/319/21 48/320/21 206/321/21
f 233/322/21 206/321/21 48/320/21
f 215/323/21 234/324/21 50/325/21
f 215/323/21 50/325/21 49/326/21
f 229/327/10 74/328/10 73/329/10
f 231/330/10 229/327/10 73/329/10
f 144/331/18 141/332/18 235/333/18
f 144/331/18 235/333/18 179/334/18
f 148/335/19 236/336/19 146/337/19
f 236/336/19 148/335/19 181/338/19
f 232/339/22 204/252/22 230/340/22
f 204/252/22 232/339/22 203/251/22
f 237/341/23 238/342/23 239/343/23
f 238/342/23 237/341/23 240/344/23
f 134/345/18 131/346/18 241/347/18
f 134/345/18 241/347/18 171/348/18
f 138/349/19 242/350/19 136/351/19
f 242/350/19 138/349/19 173/352/19
f 75/353/18 77/354/18 243/355/18
f 75/353/18 243/355/18 153/356/18
f 78/357/19 154/358/19 76/359/19
f 76/359/19 154/358/19 244/360/19
f 245/361/6 201/362/6 198/363/6
f 201/362/6 245/361/6 246/364/6
f 247/365/6 212/366/6 248/367/6
f 247/365/6 209/368/6 212/366/6
f 33/369/24 249/370/24 45/371/24
f 36/372/24 33/369/24 45/371/24
f 45/371/24 249/370/24 250/373/24
f 36/372/24 45/371/24 44/374/24
f 251/375/24 250/373/24 249/370/24
f 252/376/24 36/372/24 44/374/24
f 250/373/24 251/375/24 252/376/24
f 251/375/24 36/372/24 252/376/24
f 231/377/3 230/378/3 229/379/3
f 230/378/3 231/377/3 232/380/3
f 253/381/19 254/382/19 240/383/19
f 240/383/19 237/384/19 253/381/19
f 255/385/18 238/386/18 256/387/18
f 238/386/18 255/385/18 239/388/18
f 124/389/18 176/390/18 257/391/18
f 124/389/18 257/391/18 126/392/18
f 129/393/19 258/394/19 178/395/19
f 258/394/19 129/393/19 130/396/19
f 259/397/18 93/398/18 89/399/18
f 259/397/18 89/399/18 260/400/18
f 261/401/18 101/402/18 99/403/18
f 261/401/18 99/403/18 262/404/18
f 106/405/19 103/406/19 263/407/19
f 263/407/19 264/408/19 106/405/19
f 116/409/19 118/410/19 265/411/19
f 265/411/19 266/412/19 116/409/19
f 37/413/10 39/414/10 267/415/10
f 39/414/10 268/416/10 267/415/10
f 37/413/10 267/415/10 269/417/10
f 42/418/10 37/413/10 269/417/10
f 81/419/10 196/420/10 195/421/10
f 196/420/10 81/419/10 82/422/10
f 149/423/18 270/424/18 271/425/18
f 270/424/18 149/423/18 168/426/18
f 149/423/18 272/427/18 21/428/18
f 272/427/18 149/423/18 271/425/18
f 272/427/18 14/429/18 21/428/18
f 14/429/18 272/427/18 273/430/18
f 151/431/19 274/432/19 169/433/19
f 274/432/19 151/431/19 275/434/19
f 24/435/19 276/436/19 151/431/19
f 151/431/19 276/436/19 275/434/19
f 20/437/19 276/436/19 24/435/19
f 276/436/19 20/437/19 277/438/19
f 9/439/18 11/440/18 278/441/18
f 278/441/18 139/442/18 9/439/18
f 12/443/19 279/444/19 10/445/19
f 279/444/19 12/443/19 140/446/19
f 14/429/25 273/430/25 280/447/25
f 14/429/25 280/447/25 15/448/25
f 20/437/26 281/449/26 277/438/26
f 281/449/26 20/437/26 17/450/26
f 35/451/18 282/452/18 33/453/18
f 33/453/18 282/452/18 249/454/18
f 36/455/19 283/456/19 34/457/19
f 283/456/19 36/455/19 251/458/19
f 45/459/18 250/460/18 43/461/18
f 250/460/18 284/462/18 43/461/18
f 46/463/19 252/464/19 44/465/19
f 252/464/19 46/463/19 285/466/19
f 189/467/18 227/468/18 187/469/18
f 227/468/18 189/467/18 286/470/18
f 287/471/18 1/472/18 288/473/18
f 1/472/18 3/474/18 288/473/18
f 1/472/18 287/471/18 64/475/18
f 188/476/19 190/477/19 228/478/19
f 188/476/19 228/478/19 289/479/19
f 290/480/19 2/481/19 63/482/19
f 291/483/19 2/481/19 290/480/19
f 2/481/19 291/483/19 4/484/19
f 201/362/2 246/364/2 202/485/2
f 246/364/2 292/486/2 202/485/2
f 248/367/2 213/487/2 293/488/2
f 212/366/2 213/487/2 248/367/2
f 256/489/27 253/490/27 255/491/27
f 253/490/27 256/489/27 254/492/27
f 197/493/28 155/494/28 157/495/28
f 294/496/28 155/494/28 197/493/28
f 295/497/28 208/498/28 163/499/28
f 208/498/28 161/500/28 163/499/28
f 158/501/2 198/363/2 156/502/2
f 198/363/2 158/501/2 245/361/2
f 162/503/2 209/368/2 247/365/2
f 209/368/2 162/503/2 164/504/2
f 200/505/29 294/496/29 197/493/29
f 294/496/29 200/505/29 296/506/29
f 211/507/29 295/497/29 297/508/29
f 295/497/29 211/507/29 208/498/29
f 87/509/2 298/510/2 219/511/2
f 87/509/2 88/512/2 298/510/2
f 90/513/2 298/510/2 88/512/2
f 298/510/2 90/513/2 299/514/2
f 90/513/2 300/515/2 299/514/2
f 90/513/2 92/516/2 300/515/2
f 39/517/18 38/518/18 301/519/18
f 39/517/18 301/519/18 268/520/18
f 108/521/2 302/522/2 107/523/2
f 302/522/2 108/521/2 303/524/2
f 108/521/2 304/525/2 303/524/2
f 110/526/2 304/525/2 108/521/2
f 112/527/2 304/525/2 110/526/2
f 304/525/2 112/527/2 224/528/2
f 41/529/19 269/530/19 305/531/19
f 42/532/19 269/530/19 41/529/19
f 301/519/30 40/533/30 306/534/30
f 40/533/30 301/519/30 38/518/30
f 41/529/31 306/535/31 40/536/31
f 306/535/31 41/529/31 305/531/31
f 307/537/32 15/448/32 280/447/32
f 15/448/32 307/537/32 183/538/32
f 17/450/33 308/539/33 281/449/33
f 17/450/33 185/540/33 308/539/33
f 202/541/21 292/542/21 199/543/21
f 309/544/21 199/543/21 292/542/21
f 213/545/21 310/546/21 293/547/21
f 310/546/21 213/545/21 210/548/21
f 199/543/34 309/544/34 200/549/34
f 296/550/34 200/549/34 309/544/34
f 123/551/19 125/552/19 175/553/19
f 175/553/19 125/552/19 311/554/19
f 312/555/35 313/556/35 314/557/35
f 313/556/35 312/555/35 315/558/35
f 211/559/34 297/560/34 310/546/34
f 211/559/34 310/546/34 210/548/34
f 127/561/18 177/562/18 128/563/18
f 177/562/18 316/564/18 128/563/18
f 317/565/36 318/566/36 319/567/36
f 318/566/36 317/565/36 320/568/36
f 314/557/37 307/537/37 312/555/37
f 307/537/37 314/557/37 183/538/37
f 308/539/38 320/568/38 317/565/38
f 320/568/38 308/539/38 185/540/38
f 167/569/19 150/570/19 321/571/19
f 150/570/19 322/572/19 321/571/19
f 150/570/19 323/573/19 322/572/19
f 323/573/19 150/570/19 22/574/19
f 13/575/19 323/573/19 22/574/19
f 323/573/19 13/575/19 324/576/19
f 170/577/18 325/578/18 152/579/18
f 152/579/18 325/578/18 326/580/18
f 327/581/18 152/579/18 326/580/18
f 152/579/18 327/581/18 23/582/18
f 18/583/18 23/582/18 327/581/18
f 328/584/18 18/583/18 327/581/18
f 188/585/39 286/586/39 189/587/39
f 286/586/39 188/585/39 289/588/39
f 312/589/40 329/590/40 315/591/40
f 312/589/40 330/592/40 329/590/40
f 317/593/40 331/594/40 332/595/40
f 331/594/40 317/593/40 319/596/40
f 13/575/26 333/597/26 324/576/26
f 333/597/26 13/575/26 16/598/26
f 334/599/25 18/583/25 328/584/25
f 18/583/25 334/599/25 19/600/25
f 335/601/41 312/589/41 307/602/41
f 312/589/41 335/601/41 330/592/41
f 336/603/41 317/593/41 332/595/41
f 317/593/41 336/603/41 308/604/41
f 245/605/19 155/606/19 294/607/19
f 155/606/19 245/605/19 158/608/19
f 294/607/19 309/609/19 245/605/19
f 309/609/19 294/607/19 296/610/19
f 309/609/19 246/611/19 245/605/19
f 246/611/19 309/609/19 292/612/19
f 25/613/19 160/614/19 337/615/19
f 160/614/19 25/613/19 51/616/19
f 337/615/19 233/617/19 25/613/19
f 233/617/19 337/615/19 338/618/19
f 233/617/19 28/619/19 25/613/19
f 28/619/19 233/617/19 48/620/19
f 163/621/18 247/622/18 295/623/18
f 247/622/18 163/621/18 162/624/18
f 247/622/18 310/625/18 295/623/18
f 295/623/18 310/625/18 297/626/18
f 248/627/18 310/625/18 247/622/18
f 310/625/18 248/627/18 293/628/18
f 165/629/18 29/630/18 339/631/18
f 29/630/18 165/629/18 53/632/18
f 29/630/18 234/633/18 339/631/18
f 339/631/18 234/633/18 340/634/18
f 31/635/18 234/633/18 29/630/18
f 234/633/18 31/635/18 50/636/18
f 195/637/12 191/638/12 192/639/12
f 191/638/12 195/637/12 196/640/12
f 341/641/19 91/642/19 94/643/19
f 91/642/19 341/641/19 342/644/19
f 92/645/19 91/642/19 342/644/19
f 342/644/19 300/646/19 92/645/19
f 343/647/19 100/648/19 102/649/19
f 100/648/19 343/647/19 344/650/19
f 62/651/19 100/648/19 344/650/19
f 344/650/19 61/652/19 62/651/19
f 104/653/18 345/654/18 105/655/18
f 345/654/18 104/653/18 346/656/18
f 104/653/18 107/657/18 346/656/18
f 346/656/18 107/657/18 302/658/18
f 117/659/18 347/660/18 115/661/18
f 347/660/18 117/659/18 348/662/18
f 117/659/18 67/663/18 348/662/18
f 348/662/18 67/663/18 66/664/18
f 76/665/9 243/666/9 77/667/9
f 243/666/9 76/665/9 244/668/9
f 286/669/1 289/670/1 227/671/1
f 289/670/1 228/672/1 227/671/1
f 314/673/42 184/218/42 183/215/42
f 349/674/42 184/218/42 314/673/42
f 320/675/42 186/221/42 350/676/42
f 320/675/42 185/219/42 186/221/42
f 34/677/43 282/678/43 35/679/43
f 282/678/43 34/677/43 283/680/43
f 243/681/2 244/682/2 153/683/2
f 244/682/2 154/684/2 153/683/2
f 351/685/44 314/673/44 313/686/44
f 314/673/44 351/685/44 349/674/44
f 352/687/44 320/675/44 350/676/44
f 320/675/44 352/687/44 318/688/44
f 353/689/19 84/690/19 86/691/19
f 84/690/19 353/689/19 354/692/19
f 355/693/19 96/694/19 98/695/19
f 96/694/19 355/693/19 356/696/19
f 109/697/18 357/698/18 114/699/18
f 357/698/18 109/697/18 358/700/18
f 119/701/18 359/702/18 122/703/18
f 359/702/18 119/701/18 360/704/18
f 16/598/33 335/705/33 333/597/33
f 335/705/33 16/598/33 184/706/33
f 336/707/32 19/600/32 334/599/32
f 19/600/32 336/707/32 186/708/32
f 329/709/36 349/710/36 351/711/36
f 349/710/36 329/709/36 330/712/36
f 331/713/35 350/714/35 332/715/35
f 350/714/35 331/713/35 352/716/35
f 335/705/38 349/710/38 330/712/38
f 349/710/38 335/705/38 184/706/38
f 332/715/37 350/714/37 336/707/37
f 350/714/37 186/708/37 336/707/37
f 353/717/45 83/718/45 217/719/45
f 83/718/45 353/717/45 86/720/45
f 259/721/45 94/722/45 93/723/45
f 341/724/45 94/722/45 259/721/45
f 345/725/45 263/726/45 105/727/45
f 263/726/45 103/728/45 105/727/45
f 357/729/45 222/730/45 114/731/45
f 222/730/45 113/732/45 114/731/45
f 278/733/46 11/734/46 284/735/46
f 284/735/46 11/734/46 43/736/46
f 285/737/46 278/733/46 284/735/46
f 11/734/46 46/738/46 43/736/46
f 278/733/46 285/737/46 279/739/46
f 46/738/46 279/739/46 285/737/46
f 11/734/46 10/740/46 46/738/46
f 10/740/46 279/739/46 46/738/46
f 84/741/45 354/742/45 260/743/45
f 260/743/45 89/744/45 84/741/45
f 264/745/45 109/746/45 106/747/45
f 358/748/45 109/746/45 264/745/45
f 131/749/9 361/750/9 241/751/9
f 133/752/9 361/750/9 131/749/9
f 136/753/9 362/754/9 137/755/9
f 362/754/9 136/753/9 242/756/9
f 206/321/34 233/322/34 207/757/34
f 338/758/34 207/757/34 233/322/34
f 216/759/34 340/760/34 234/324/34
f 216/759/34 234/324/34 215/323/34
f 257/761/2 311/762/2 126/763/2
f 311/762/2 125/764/2 126/763/2
f 316/765/2 130/766/2 128/767/2
f 258/768/2 130/766/2 316/765/2
f 141/769/9 363/770/9 235/771/9
f 143/772/9 363/770/9 141/769/9
f 146/773/9 364/774/9 147/775/9
f 364/774/9 146/773/9 236/776/9
f 288/777/47 3/778/47 4/779/47
f 291/780/47 288/777/47 4/779/47
f 271/781/48 323/782/48 272/783/48
f 271/781/48 322/784/48 323/782/48
f 275/785/48 327/786/48 326/787/48
f 327/786/48 275/785/48 276/788/48
f 270/789/49 322/784/49 271/781/49
f 270/789/49 321/790/49 322/784/49
f 290/791/22 64/792/22 287/793/22
f 64/792/22 290/791/22 63/794/22
f 274/795/49 326/787/49 325/796/49
f 326/787/49 274/795/49 275/785/49
f 171/797/2 241/798/2 361/799/2
f 361/799/2 172/800/2 171/797/2
f 173/801/2 362/802/2 242/803/2
f 362/802/2 173/801/2 174/804/2
f 175/805/9 257/806/9 176/807/9
f 257/806/9 175/805/9 311/808/9
f 177/809/9 178/810/9 258/811/9
f 177/809/9 258/811/9 316/812/9
f 179/813/2 235/814/2 363/815/2
f 363/815/2 180/816/2 179/813/2
f 236/817/2 181/818/2 364/819/2
f 364/819/2 181/818/2 182/820/2
f 278/821/2 279/822/2 139/823/2
f 279/822/2 140/824/2 139/823/2
f 282/825/2 283/826/2 249/827/2
f 251/828/2 249/827/2 283/826/2
f 168/829/50 321/830/50 270/831/50
f 168/829/50 167/832/50 321/830/50
f 169/833/50 325/834/50 170/835/50
f 325/834/50 169/833/50 274/836/50
f 250/837/2 252/838/2 284/839/2
f 285/840/2 284/839/2 252/838/2
f 354/742/10 219/841/10 298/842/10
f 354/742/10 218/843/10 219/841/10
f 299/844/10 354/742/10 298/842/10
f 353/717/10 218/843/10 354/742/10
f 353/717/10 217/719/10 218/843/10
f 354/742/10 299/844/10 260/743/10
f 300/845/10 260/743/10 299/844/10
f 260/743/10 300/845/10 342/846/10
f 342/847/10 259/721/10 260/848/10
f 259/721/10 342/847/10 341/724/10
f 355/849/10 221/850/10 356/851/10
f 355/849/10 220/852/10 221/850/10
f 356/851/10 221/850/10 57/853/10
f 356/851/10 57/853/10 56/854/10
f 60/855/10 356/851/10 56/854/10
f 356/851/10 60/855/10 262/856/10
f 61/857/10 262/856/10 60/855/10
f 262/856/10 61/857/10 344/858/10
f 343/859/10 262/856/10 344/858/10
f 343/859/10 261/860/10 262/856/10
f 346/861/10 303/862/10 264/745/10
f 303/862/10 346/861/10 302/863/10
f 264/745/10 303/862/10 358/748/10
f 358/748/10 303/862/10 304/864/10
f 304/864/10 223/865/10 358/748/10
f 223/865/10 304/864/10 224/866/10
f 223/865/10 357/729/10 358/748/10
f 357/729/10 223/865/10 222/730/10
f 346/867/10 263/726/10 345/725/10
f 263/726/10 346/867/10 264/868/10
f 66/869/10 266/870/10 348/871/10
f 266/870/10 347/872/10 348/871/10
f 347/872/10 266/870/10 265/873/10
f 266/870/10 66/869/10 68/874/10
f 69/875/10 266/870/10 68/874/10
f 266/870/10 69/875/10 360/876/10
f 72/877/10 360/876/10 69/875/10
f 360/876/10 72/877/10 226/878/10
f 226/878/10 359/879/10 360/876/10
f 359/879/10 226/878/10 225/880/10
f 205/881/28 160/882/28 159/883/28
f 337/884/28 160/882/28 205/881/28
f 339/885/28 214/886/28 165/887/28
f 214/886/28 166/888/28 165/887/28
f 207/889/29 337/884/29 205/881/29
f 337/884/29 207/889/29 338/890/29
f 216/891/29 339/885/29 340/892/29
f 339/885/29 216/891/29 214/886/29
f 280/893/51 335/894/51 307/895/51
f 280/893/51 333/896/51 335/894/51
f 334/897/51 281/898/51 336/899/51
f 336/899/51 281/898/51 308/900/51
f 329/901/17 313/902/17 315/903/17
f 313/902/17 329/901/17 351/904/17
f 319/905/17 352/906/17 331/907/17
f 352/906/17 319/905/17 318/908/17
f 301/909/2 267/910/2 268/911/2
f 267/910/2 301/909/2 306/912/2
f 267/910/2 306/912/2 305/913/2
f 305/913/2 269/914/2 267/910/2
f 272/783/52 324/915/52 273/916/52
f 272/783/52 323/782/52 324/915/52
f 327/786/52 277/917/52 328/918/52
f 277/917/52 327/786/52 276/788/52
f 273/919/53 333/896/53 280/893/53
f 273/919/53 324/920/53 333/896/53
f 328/921/53 281/898/53 334/897/53
f 281/898/53 328/921/53 277/922/53
f 220/852/45 98/923/45 95/924/45
f 355/849/45 98/923/45 220/852/45
f 261/860/45 102/925/45 101/926/45
f 343/859/45 102/925/45 261/860/45
f 347/872/45 265/873/45 115/927/45
f 265/873/45 118/928/45 115/927/45
f 359/879/45 121/929/45 122/930/45
f 121/929/45 359/879/45 225/880/45
f 288/777/15 290/931/15 287/932/15
f 290/931/15 288/777/15 291/780/15
f 96/933/45 356/934/45 262/935/45
f 262/935/45 99/936/45 96/933/45
f 266/937/45 119/938/45 116/939/45
f 360/940/45 119/938/45 266/937/45
