# Roblox asset pack: animal_whale (creatures), from the Studio model "Whale". Exported with Export Selection, split by tools/build_creatures.py: one object per rigid body. Units: studs. +Y up, front faces -Z, pivot (bottom centre) at the origin.
mtllib animal_whale.mtl

v 3.92530 0.19000 0.35000
v 4.32990 0.20000 1.97000
v 4.19550 0.00000 1.97000
v 4.05960 0.38000 0.35000
v 3.92530 0.19000 -0.35000
v 4.32990 0.20000 -1.97000
v 4.05960 0.38000 -0.35000
v 4.19550 0.00000 -1.97000
v -4.32990 1.42000 -0.47000
v -4.32990 1.08000 0.47000
v -4.32990 1.42000 0.47000
v -4.32990 1.08000 -0.47000
v -4.32990 2.02000 -0.47000
v -4.32990 1.55000 0.47000
v -4.32990 2.02000 0.47000
v -4.32990 1.55000 -0.47000
v 2.36410 2.01000 -0.63000
v 2.36410 2.01000 0.63000
v 2.34320 1.95000 0.59000
v 2.34320 1.95000 -0.59000
v 3.13790 0.78000 -0.21000
v 2.91660 1.19000 0.32000
v 3.13790 0.78000 0.21000
v 2.91660 1.19000 -0.32000
v -3.95050 1.71000 0.55000
v -3.91770 1.93000 0.48000
v -3.93690 1.71000 0.47000
v -3.93130 1.93000 0.55000
v -3.91770 1.93000 -0.48000
v -3.95050 1.71000 -0.55000
v -3.93690 1.71000 -0.47000
v -3.93130 1.93000 -0.55000
v -3.82070 1.90000 0.55000
v -3.83520 1.80000 0.58000
v -3.82670 1.90000 0.58000
v -3.82920 1.80000 0.54000
v -3.82070 1.90000 -0.55000
v -3.83520 1.80000 -0.58000
v -3.82920 1.80000 -0.54000
v -3.82670 1.90000 -0.58000
v 1.87610 1.22000 0.63000
v 1.89220 1.22000 0.59000
v 1.89220 1.22000 -0.59000
v 1.87610 1.22000 -0.63000
v -1.15740 1.03000 2.58000
v -0.47880 1.19000 2.79000
v -1.15740 1.23000 2.66000
v -0.47880 0.98000 2.72000
v -1.15740 1.23000 -2.66000
v -0.47880 1.19000 -2.79000
v -1.15740 1.03000 -2.58000
v -0.47880 0.98000 -2.72000
v -3.26200 1.06000 -0.65000
v -3.22940 0.99000 0.73000
v -3.26200 1.06000 0.65000
v -3.22940 0.99000 -0.73000
v -3.38550 2.51000 0.53000
v -3.38550 2.51000 -0.53000
v -3.38550 2.33000 0.53000
v -3.38550 2.33000 -0.53000
v -3.22940 1.72000 0.73000
v -3.26200 1.71000 0.65000
v -3.26200 2.36000 0.65000
v -3.22940 2.45000 0.73000
v -3.22940 1.72000 -0.73000
v -3.26200 1.71000 -0.65000
v -3.26200 2.36000 -0.65000
v -3.22940 2.45000 -0.73000
v 1.47720 2.63000 -0.92000
v 1.47720 2.63000 0.92000
v 1.46300 2.56000 0.86000
v 1.46300 2.56000 -0.86000
v 1.12540 1.34000 0.92000
v 1.13230 1.34000 0.86000
v 1.13230 1.34000 -0.86000
v 1.12540 1.34000 -0.92000
v -0.27570 4.81000 -0.14000
v -0.67850 4.56000 0.17000
v -0.27570 4.81000 0.14000
v -0.67860 4.56000 -0.17000
v -1.82650 1.54000 1.84000
v -1.82650 1.33000 1.76000
v -1.82650 1.54000 -1.84000
v -1.82650 1.33000 -1.76000
v 0.94810 1.29000 -1.10000
v 0.71340 2.83000 1.10000
v 0.94810 1.29000 1.10000
v 0.71340 2.83000 -1.10000
v -0.99360 4.23000 0.20000
v -0.99560 4.23000 -0.21000
v 0.45280 2.90000 -0.35000
v -0.34060 3.51000 0.28000
v 0.45280 2.90000 0.35000
v -0.34060 3.51000 -0.28000
v 3.34420 0.87000 1.13000
v 3.32600 0.88000 0.00000
v 2.70890 1.31000 0.00000
v 3.34420 0.87000 -1.13000
v 3.19170 0.69000 0.00000
v 0.40000 3.13000 0.87000
v -0.85550 3.41000 -0.87000
v -0.85550 3.41000 0.87000
v 0.40000 3.13000 -0.87000
v -2.00990 3.17000 0.87000
v -2.00990 3.17000 -0.87000
v 0.58470 1.91000 -0.87000
v 0.58470 1.91000 0.87000
v -1.27840 3.66000 -0.27000
v -1.83630 2.96000 0.34000
v -1.27840 3.66000 0.27000
v -1.83630 2.96000 -0.34000
v -2.34840 2.89000 1.10000
v -2.34840 2.89000 -1.10000
v -2.13140 0.92000 1.10000
v -2.13140 0.92000 -1.10000
v 2.65610 0.95000 0.32000
v 2.65610 0.95000 -0.32000
v -2.03380 1.89000 0.90000
v -2.03380 1.68000 0.83000
v -2.03380 1.89000 -0.90000
v -2.03380 1.68000 -0.83000
v -1.74980 3.01000 0.60000
v -1.74980 3.01000 -0.60000
v -3.64860 1.81000 0.62000
v -3.60990 1.95000 0.63000
v -3.64860 1.81000 -0.62000
v -3.60990 1.95000 -0.63000
v -0.88160 3.19000 -1.10000
v -0.88160 3.19000 1.10000
v 0.60390 2.83000 1.01000
v 0.60390 2.83000 -1.01000
v -2.03170 2.82000 0.93000
v -2.03170 2.82000 -0.93000
v -3.55820 1.76000 0.63000
v -3.47100 2.08000 0.65000
v -3.55820 1.76000 -0.63000
v -3.47100 2.08000 -0.65000
v 0.39210 1.37000 1.01000
v 0.39210 1.37000 -1.01000
v -2.03170 0.96000 0.93000
v -2.03170 1.89000 0.93000
v -2.03170 0.96000 -0.93000
v -2.03170 1.89000 -0.93000
v -0.40080 1.02000 1.10000
v -0.40080 1.02000 -1.10000
v -1.83920 1.62000 0.87000
v -1.83920 1.62000 -0.87000
v -3.45030 2.08000 0.53000
v -3.45030 2.08000 -0.53000
v -0.47700 1.70000 0.87000
v -0.47700 1.70000 -0.87000
v -0.46170 4.17000 -0.21000
v -0.46250 4.17000 0.21000
v -3.60080 1.95000 0.58000
v -3.60080 1.95000 -0.58000
v -1.74980 2.83000 0.60000
v -1.74980 2.83000 -0.60000
v -0.41190 4.54000 0.17000
v -0.42370 4.38000 -0.19000
v -0.55420 1.47000 2.03000
v -0.91230 1.69000 1.42000
v -1.41180 1.84000 1.02000
v -0.55420 1.47000 -2.03000
v -0.91230 1.69000 -1.42000
v -1.41180 1.84000 -1.02000
v -0.55420 1.26000 1.96000
v -0.55420 1.26000 -1.96000
v -0.91230 1.49000 -1.35000
v -1.41180 1.64000 -0.94000
v -0.91230 1.49000 1.35000
v -1.41180 1.64000 0.94000
v -3.63950 1.81000 0.57000
v -3.63950 1.81000 -0.57000
v -3.53750 1.76000 0.51000
v -3.53750 1.76000 -0.51000
v 3.20990 0.68000 1.13000
v 2.57460 1.11000 0.00000
v 3.20990 0.68000 -1.13000
vt 0.10529 0.09678
vt 0.00293 0.01573
vt 0.01645 0.00293
vt 0.09177 0.10958
vt 0.14436 0.12424
vt 0.25531 0.19306
vt 0.13691 0.14129
vt 0.26277 0.17601
vt 0.59921 0.21903
vt 0.57238 0.14485
vt 0.59921 0.14485
vt 0.57238 0.21903
vt 0.84716 0.86246
vt 0.81007 0.78827
vt 0.84716 0.78827
vt 0.81007 0.86246
vt 0.24861 0.52533
vt 0.14917 0.52535
vt 0.15295 0.52036
vt 0.24483 0.52035
vt 0.21524 0.40906
vt 0.17373 0.44604
vt 0.18250 0.40906
vt 0.22402 0.44603
vt 0.61822 0.02212
vt 0.61200 0.03997
vt 0.61200 0.02212
vt 0.61822 0.03997
vt 1.61200 0.03997
vt 1.61822 0.02212
vt 1.61200 0.02212
vt 1.61822 0.03997
vt 0.74075 0.01086
vt 0.74351 0.00294
vt 0.74351 0.01086
vt 0.74075 0.00294
vt 1.74075 0.01086
vt 1.74351 0.00294
vt 1.74075 0.00294
vt 1.74351 0.01086
vt 0.14692 0.45259
vt 0.15086 0.45312
vt 0.24689 0.45311
vt 0.25084 0.45257
vt 0.02000 0.20029
vt 0.00293 0.25466
vt 0.00293 0.20029
vt 0.02000 0.25466
vt 1.00293 0.20029
vt 1.00293 0.25466
vt 1.02000 0.20029
vt 1.02000 0.25466
vt 0.80248 0.78454
vt 0.91062 0.77858
vt 0.90420 0.78456
vt 0.79602 0.77858
vt 0.95309 0.19312
vt 0.95309 0.27581
vt 0.93882 0.19312
vt 0.93882 0.27581
vt 0.91176 0.83620
vt 0.90499 0.83550
vt 0.90473 0.88651
vt 0.91123 0.89381
vt 0.79522 0.83668
vt 0.80198 0.83593
vt 0.80274 0.88724
vt 0.79632 0.89466
vt 0.27071 0.61384
vt 0.12710 0.61386
vt 0.13139 0.60811
vt 0.26642 0.60809
vt 0.12672 0.50872
vt 0.13104 0.50926
vt 0.26674 0.50924
vt 0.27105 0.50870
vt 0.92441 0.79111
vt 0.94905 0.75392
vt 0.94696 0.79111
vt 0.92234 0.75390
vt 0.99551 0.67173
vt 0.97843 0.58525
vt 0.99550 0.58524
vt 0.97844 0.67174
vt 1.99551 0.67173
vt 1.97843 0.58525
vt 1.97844 0.67174
vt 1.99550 0.58524
vt 0.20100 0.67629
vt 0.32372 0.84900
vt 0.20100 0.84900
vt 0.32373 0.67629
vt 0.95175 0.71842
vt 0.91962 0.71808
vt 0.45612 0.06050
vt 0.59544 0.06119
vt 0.46042 0.06119
vt 0.59973 0.06051
vt 0.97318 0.28053
vt 0.92407 0.35903
vt 0.91901 0.28053
vt 0.96811 0.35904
vt 0.00294 0.13035
vt 0.07421 0.18255
vt 0.04045 0.23059
vt 0.14747 0.23190
vt 0.25129 0.00294
vt 0.17624 0.02155
vt 0.17624 0.00294
vt 0.25129 0.02156
vt 0.97348 0.07799
vt 0.99210 0.00294
vt 0.99210 0.07799
vt 0.97348 0.00294
vt 0.74301 0.23923
vt 0.60706 0.13834
vt 0.74300 0.13832
vt 0.60708 0.23925
vt 0.74299 0.04586
vt 0.60705 0.04588
vt 0.32975 0.78757
vt 0.42634 0.92351
vt 0.32975 0.92351
vt 0.42634 0.78757
vt 0.91490 0.66836
vt 0.96225 0.59835
vt 0.95649 0.66835
vt 0.90911 0.59836
vt 0.43540 0.49987
vt 0.43540 0.67258
vt 0.28024 0.49987
vt 0.28023 0.67258
vt 0.97787 0.16810
vt 0.92396 0.10258
vt 0.99123 0.10258
vt 0.95064 0.17499
vt 0.97291 0.81613
vt 0.91901 0.88166
vt 0.94569 0.80924
vt 0.98628 0.88166
vt 0.05270 0.96809
vt 0.11416 0.87529
vt 0.11415 0.97414
vt 0.03264 0.89811
vt 0.89425 0.98234
vt 0.96707 0.89793
vt 0.98939 0.95549
vt 0.89427 0.89769
vt 0.99552 0.75176
vt 0.97845 0.75176
vt 1.99552 0.75176
vt 1.97845 0.75176
vt 0.92847 0.14260
vt 0.93444 0.27681
vt 0.84578 0.14259
vt 0.83978 0.27680
vt 0.71670 0.02325
vt 0.70179 0.02572
vt 0.71416 0.01575
vt 0.69618 0.01574
vt 1.71416 0.01575
vt 1.70179 0.02572
vt 1.71670 0.02325
vt 1.69618 0.01574
vt 0.27034 0.12043
vt 0.44303 0.00294
vt 0.44305 0.12040
vt 0.27033 0.00296
vt 0.27036 0.24864
vt 0.44307 0.24862
vt 0.12177 0.90188
vt 0.12180 0.75827
vt 0.19208 0.90942
vt 0.19211 0.75074
vt 0.86894 0.76230
vt 0.77046 0.77803
vt 0.77048 0.63184
vt 0.86896 0.64760
vt 0.66220 0.01949
vt 0.63088 0.02462
vt 0.65550 0.00295
vt 0.61695 0.00294
vt 1.65550 0.00295
vt 1.63089 0.02462
vt 1.66220 0.01949
vt 1.61695 0.00294
vt 0.98948 0.46536
vt 0.98946 0.58154
vt 0.93170 0.57562
vt 0.91901 0.47125
vt 0.86187 0.96411
vt 0.74570 0.96413
vt 0.85596 0.90636
vt 0.75158 0.89366
vt 0.96720 0.09116
vt 0.87940 0.10520
vt 0.87940 0.00293
vt 0.96721 0.01697
vt 0.81997 0.45887
vt 0.81999 0.38577
vt 0.91524 0.39958
vt 0.91523 0.45693
vt 0.91525 0.34223
vt 0.82000 0.31267
vt 0.09820 0.81381
vt 0.00295 0.75449
vt 0.09821 0.75646
vt 0.00294 0.82759
vt 0.09819 0.87116
vt 0.00293 0.90068
vt 0.12898 0.23548
vt 0.24616 0.40146
vt 0.11042 0.40901
vt 0.24595 0.24629
vt 0.00776 0.27723
vt 0.00293 0.39986
vt 0.26287 0.25235
vt 0.42898 0.36934
vt 0.25547 0.38811
vt 0.41804 0.25238
vt 0.38737 0.49061
vt 0.26475 0.49558
vt 0.96912 0.20819
vt 0.96417 0.77604
vt 0.26030 0.05784
vt 0.26204 0.14277
vt 0.23348 0.05783
vt 0.21090 0.14277
vt 0.42290 0.72688
vt 0.33708 0.72689
vt 0.41758 0.69017
vt 0.32975 0.67629
vt 0.78910 0.34175
vt 0.76055 0.42669
vt 0.76228 0.34175
vt 0.81169 0.42668
vt 0.48530 0.15985
vt 0.44859 0.24036
vt 0.44859 0.15454
vt 0.49920 0.24768
vt 0.87279 0.00294
vt 0.87278 0.13888
vt 0.75065 0.00294
vt 0.75065 0.13887
vt 0.91395 0.59301
vt 0.81997 0.46257
vt 0.91394 0.47832
vt 0.81998 0.60877
vt 0.43869 0.38828
vt 0.61141 0.49615
vt 0.43870 0.49616
vt 0.61140 0.38828
vt 0.43869 0.25233
vt 0.61139 0.25232
vt 0.63637 0.95123
vt 0.55258 0.86300
vt 0.63636 0.87704
vt 0.55258 0.96527
vt 0.68086 0.04147
vt 0.67362 0.00294
vt 0.67984 0.00294
vt 0.67142 0.04147
vt 1.68087 0.04147
vt 1.67362 0.00294
vt 1.67142 0.04147
vt 1.67984 0.00294
vt 0.10215 0.61576
vt 0.19438 0.74640
vt 0.08753 0.75235
vt 0.19421 0.62427
vt 0.00673 0.64862
vt 0.00293 0.74514
vt 0.61695 0.34982
vt 0.72077 0.43050
vt 0.62425 0.43441
vt 0.75352 0.33505
vt 0.62277 0.24297
vt 0.74491 0.24299
vt 0.96268 0.41149
vt 0.92956 0.41181
vt 0.57764 0.12032
vt 0.48198 0.12158
vt 0.47821 0.12031
vt 0.57387 0.12158
vt 0.26362 0.00294
vt 0.26462 0.02088
vt 0.26042 0.02088
vt 0.26086 0.00294
vt 1.26042 0.02088
vt 1.26362 0.00294
vt 1.26086 0.00294
vt 1.26462 0.02088
vt 0.73644 0.96144
vt 0.60629 0.97516
vt 0.60210 0.96151
vt 0.74064 0.97509
vt 0.90295 0.60586
vt 0.88931 0.73602
vt 0.88930 0.60167
vt 0.90296 0.74020
vt 0.60727 0.00294
vt 0.44859 0.00294
vt 0.67150 0.45882
vt 0.62506 0.57491
vt 0.61540 0.50106
vt 0.67149 0.63843
vt 0.56974 0.52217
vt 0.57315 0.56394
vt 0.54346 0.54618
vt 0.54386 0.56711
vt 0.52287 0.57722
vt 0.54167 0.63546
vt 0.54509 0.59347
vt 0.57168 0.61763
vt 0.55830 0.63799
vt 0.49008 0.64635
vt 0.49976 0.57250
vt 0.59227 0.64868
vt 0.44366 0.53024
vt 0.44364 0.70985
vt 0.28777 0.94092
vt 0.20102 0.95498
vt 0.20100 0.85271
vt 0.28776 0.86673
vt 0.67638 0.54322
vt 0.81232 0.62812
vt 0.67638 0.62813
vt 0.81232 0.54322
vt 0.48785 0.78985
vt 0.56134 0.85930
vt 0.47485 0.85930
vt 0.43374 0.82373
vt 0.54544 0.78122
vt 0.59624 0.79172
vt 0.63348 0.82467
vt 1.48785 0.78985
vt 1.47485 0.85930
vt 1.56134 0.85930
vt 1.43374 0.82373
vt 1.54544 0.78122
vt 1.59624 0.79172
vt 1.63348 0.82467
vt 0.67637 0.43621
vt 0.81231 0.43621
vt 0.43321 0.98030
vt 0.36936 0.98030
vt 0.36936 0.96324
vt 0.43321 0.96323
vt 1.36936 0.96324
vt 1.43321 0.98030
vt 1.43321 0.96323
vt 1.36936 0.98030
vt 0.96091 0.42822
vt 0.93262 0.44111
vt 1.83367 0.27018
vt 1.75560 0.25428
vt 1.76610 0.30508
vt 1.79905 0.34232
vt 1.76423 0.19669
vt 1.83368 0.18369
vt 1.79811 0.14258
vt 0.75560 0.25428
vt 0.83368 0.27018
vt 0.76610 0.30508
vt 0.79905 0.34232
vt 0.76423 0.19669
vt 0.83368 0.18369
vt 0.79811 0.14258
vt 0.15665 0.00392
vt 0.14158 0.00713
vt 0.14158 0.00293
vt 0.15665 0.00668
vt 1.15665 0.00392
vt 1.14158 0.00713
vt 1.15665 0.00668
vt 1.14158 0.00293
vt 0.51840 0.94550
vt 0.43375 0.85726
vt 0.51841 0.87131
vt 0.43374 0.95953
vt 0.71799 0.01017
vt 0.68628 0.00293
vt 0.71799 0.00395
vt 0.68628 0.01238
vt 1.71799 0.01017
vt 1.68628 0.00293
vt 1.68628 0.01238
vt 1.71799 0.00395
vt 0.50278 0.18514
vt 0.54429 0.22523
vt 0.51156 0.22522
vt 0.55307 0.18514
vt 0.95790 0.46371
vt 0.93536 0.46425
vt 0.49144 0.96323
vt 0.49144 0.98030
vt 1.49144 0.98030
vt 1.49144 0.96323
vt 0.75560 0.78174
vt 0.76988 0.87640
vt 0.75560 0.87640
vt 0.76988 0.78174
vt 0.18615 0.08563
vt 0.20322 0.13536
vt 0.18615 0.13536
vt 0.20321 0.08563
vt 1.20322 0.13536
vt 1.18615 0.08563
vt 1.18615 0.13536
vt 1.20321 0.08563
vt 0.54331 0.96323
vt 0.54331 0.98030
vt 1.54331 0.96323
vt 1.54331 0.98030
vt 0.64772 0.79201
vt 0.73041 0.79202
vt 0.64171 0.92622
vt 0.73637 0.92624
vt 0.60210 0.64210
vt 0.74829 0.64210
vt 0.60210 0.71520
vt 0.74829 0.71520
vt 0.74829 0.78830
vt 0.60210 0.78830
vt 0.13090 0.00922
vt 0.17911 0.08324
vt 0.22893 0.05217
vt 0.49389 0.78385
vt 0.54609 0.71259
vt 0.59413 0.74635
vt 0.47312 0.69502
vt 0.37926 0.78386
vt 0.11910 0.41272
vt 0.00295 0.57142
vt 0.00293 0.41274
vt 0.11913 0.57140
vt 0.97846 0.41340
vt 0.97844 0.29878
vt 0.99706 0.29878
vt 0.99707 0.41340
vt 0.23640 0.97731
vt 0.12177 0.95868
vt 0.23640 0.95869
vt 0.12177 0.97730
vt 0.72589 0.00294
vt 0.73534 0.02871
vt 0.72589 0.02871
vt 0.73534 0.00294
vt 1.72589 0.00294
vt 1.73534 0.02871
vt 1.73533 0.00294
vt 1.72589 0.02871
vt 0.16634 0.00294
vt 0.17053 0.01438
vt 0.16634 0.01438
vt 0.17053 0.00294
vt 1.16634 0.00294
vt 1.17053 0.01438
vt 1.17053 0.00294
vt 1.16634 0.01438
vt 0.99705 0.19176
vt 0.97843 0.19176
vt 0.34342 0.97732
vt 0.34342 0.95870
vn 0.8110 -0.5512 -0.1968
vn 0.8110 -0.5512 0.1968
vn -1.0000 0.0000 0.0000
vn 0.9449 -0.3307 0.0000
vn 0.8819 0.4724 0.0000
vn -0.9843 0.0866 -0.1732
vn -0.9843 0.0866 0.1732
vn 0.8189 -0.5039 0.2756
vn 0.8189 -0.5039 -0.2756
vn -0.2047 -0.3386 0.9213
vn -0.2047 -0.3386 -0.9213
vn 0.7953 0.6063 0.0000
vn -0.9055 -0.4252 0.0000
vn -0.9213 0.0000 0.3780
vn -0.9213 0.0000 -0.3780
vn -0.9370 0.3465 0.0000
vn 0.9843 -0.1890 0.0000
vn 0.9606 -0.2598 0.0945
vn 0.9606 -0.2598 -0.0945
vn -0.5276 0.8504 0.0000
vn -0.7953 -0.2126 0.5669
vn -0.7953 -0.2126 -0.5669
vn 0.5197 0.8504 0.0000
vn 0.9921 0.1496 0.0000
vn -0.7165 0.6929 0.0000
vn 0.6142 -0.7874 0.0000
vn 0.6063 0.7953 0.0000
vn 0.5669 0.8268 0.0000
vn 0.3071 -0.2047 -0.9291
vn 0.3071 -0.2047 0.9291
vn 0.2205 0.9764 0.0000
vn -0.2047 0.9764 0.0000
vn -0.7795 0.6220 0.0000
vn -0.9921 -0.1102 0.0000
vn 0.2441 -0.1811 0.9528
vn 0.2441 -0.1811 -0.9528
vn 0.2283 -0.0945 0.9685
vn 0.2283 -0.0945 -0.9685
vn -0.9764 -0.0709 0.1890
vn -0.9764 -0.0709 -0.1890
vn -0.2913 0.9528 0.0000
vn -0.2362 0.0157 0.9685
vn -0.2362 0.0157 -0.9685
vn 0.2283 0.9764 0.0000
vn -0.2992 0.9528 0.0000
vn -0.2047 0.0079 0.9764
vn -0.2047 0.0079 -0.9764
vn 0.1181 -0.0236 0.9921
vn 0.1181 -0.0236 -0.9921
vn -0.8976 0.4488 0.0000
vn -0.1654 0.0000 0.9843
vn -0.1654 0.0000 -0.9843
vn 0.0000 0.0000 1.0000
vn 0.0000 0.0000 -1.0000
vn 0.1654 -0.1732 0.9685
vn 0.1654 -0.1732 -0.9685
vn -0.0236 -1.0000 0.0000
vn 0.1968 -0.9843 0.0000
vn 0.0551 -1.0000 0.0000
vn -0.2913 0.9528 -0.0472
vn -0.2913 0.9528 0.0472
vn 0.9843 0.1811 0.0000
vn -0.0079 -1.0000 0.0000
vn -0.2362 0.9685 -0.0394
vn -0.2362 0.9685 0.0394
vn -0.0472 0.0000 1.0000
vn -0.0472 0.0000 -1.0000
vn -0.0394 -1.0000 0.0000
vn 0.0000 0.1024 0.9921
vn 0.0000 0.1024 -0.9921
vn -0.2598 0.9685 0.0000
vn 0.0000 0.9370 0.3465
vn 0.0000 0.9370 -0.3465
vn -0.1654 -0.9843 0.0000
vn 0.9921 0.0315 -0.0866
vn 0.9921 0.0315 0.0866
vn 0.9921 -0.1496 0.0157
vn 0.0000 -0.9370 0.3465
vn 0.0000 -0.9370 -0.3465
vn 0.0787 -1.0000 0.0157
vn 0.0787 -1.0000 -0.0157
vn 0.1417 -0.9921 0.0000
vn 0.1339 -0.9921 0.0236
vn 0.1339 -0.9921 -0.0236
vn -0.3307 -0.9449 0.0000
vn 0.9213 -0.3780 0.0787
vn 0.8740 0.1654 -0.4567
vn 0.8740 0.1654 0.4567
vn 1.0000 0.0000 0.0000
vn 0.1968 0.3386 -0.9213
vn 0.1968 0.3386 0.9213
vn 0.6535 0.2598 -0.7087
vn 0.6535 0.2598 0.7087
vn 0.2913 -0.9528 0.0000
vn -0.5669 -0.8268 0.0000
vn -0.9921 0.1417 0.0000
vn -0.4724 0.3228 0.8189
vn -0.4724 0.3228 -0.8189
vn 0.9449 -0.2677 0.1654
vn 0.9449 -0.2677 -0.1654
vn -0.6772 0.4646 0.5669
vn -0.6772 0.4646 -0.5669

o animal_whale
usemtl tex_animal_whale_i045p001x
f 1/1/1 2/2/1 3/3/1
f 2/2/1 1/1/1 4/4/1
f 5/5/2 6/6/2 7/7/2
f 6/6/2 5/5/2 8/8/2
f 9/9/3 10/10/3 11/11/3
f 10/10/3 9/9/3 12/12/3
f 13/13/3 14/14/3 15/15/3
f 14/14/3 13/13/3 16/16/3
f 17/17/4 18/18/4 19/19/4
f 17/17/4 19/19/4 20/20/4
f 21/21/5 22/22/5 23/23/5
f 22/22/5 21/21/5 24/24/5
f 25/25/6 26/26/6 27/27/6
f 26/26/6 25/25/6 28/28/6
f 29/29/7 30/30/7 31/31/7
f 32/32/7 30/30/7 29/29/7
f 33/33/6 34/34/6 35/35/6
f 34/34/6 33/33/6 36/36/6
f 37/37/7 38/38/7 39/39/7
f 40/40/7 38/38/7 37/37/7
f 41/41/8 19/19/8 18/18/8
f 19/19/8 41/41/8 42/42/8
f 20/20/9 43/43/9 44/44/9
f 44/44/9 17/17/9 20/20/9
f 45/45/10 46/46/10 47/47/10
f 46/46/10 45/45/10 48/48/10
f 49/49/11 50/50/11 51/51/11
f 50/50/11 52/52/11 51/51/11
f 20/20/12 19/19/12 22/22/12
f 20/20/12 22/22/12 24/24/12
f 53/53/13 54/54/13 55/55/13
f 54/54/13 53/53/13 56/56/13
f 57/57/3 58/58/3 59/59/3
f 60/60/3 59/59/3 58/58/3
f 61/61/14 55/55/14 54/54/14
f 55/55/14 61/61/14 62/62/14
f 61/61/14 63/63/14 62/62/14
f 63/63/14 61/61/14 64/64/14
f 53/53/15 65/65/15 56/56/15
f 65/65/15 53/53/15 66/66/15
f 67/67/15 65/65/15 66/66/15
f 65/65/15 67/67/15 68/68/15
f 64/64/16 67/67/16 63/63/16
f 64/64/16 68/68/16 67/67/16
f 69/69/17 70/70/17 71/71/17
f 69/69/17 71/71/17 72/72/17
f 71/71/18 73/73/18 74/74/18
f 73/73/18 71/71/18 70/70/18
f 72/72/19 75/75/19 76/76/19
f 76/76/19 69/69/19 72/72/19
f 77/77/20 78/78/20 79/79/20
f 78/78/20 77/77/20 80/80/20
f 81/81/21 45/82/21 47/83/21
f 45/82/21 81/81/21 82/84/21
f 83/85/22 51/86/22 84/87/22
f 51/86/22 83/85/22 49/88/22
f 71/71/23 18/18/23 72/72/23
f 72/72/23 18/18/23 17/17/23
f 85/89/24 86/90/24 87/91/24
f 86/90/24 85/89/24 88/92/24
f 80/80/25 89/93/25 78/78/25
f 89/93/25 80/80/25 90/94/25
f 73/95/26 75/96/26 74/97/26
f 75/96/26 73/95/26 76/98/26
f 91/99/27 92/100/27 93/101/27
f 92/100/27 91/99/27 94/102/27
f 4/4/28 95/103/28 2/2/28
f 95/103/28 4/4/28 96/104/28
f 95/103/28 96/104/28 97/105/28
f 98/106/28 97/105/28 96/104/28
f 7/7/28 98/106/28 96/104/28
f 98/106/28 7/7/28 6/6/28
f 99/107/29 4/108/29 1/109/29
f 4/108/29 99/107/29 96/110/29
f 7/111/30 99/112/30 5/113/30
f 99/112/30 7/111/30 96/114/30
f 100/115/31 101/116/31 102/117/31
f 101/116/31 100/115/31 103/118/31
f 101/116/32 104/119/32 102/117/32
f 104/119/32 101/116/32 105/120/32
f 106/121/24 100/122/24 107/123/24
f 100/122/24 106/121/24 103/124/24
f 108/125/33 109/126/33 110/127/33
f 109/126/33 108/125/33 111/128/33
f 112/129/34 113/130/34 114/131/34
f 113/130/34 115/132/34 114/131/34
f 116/133/35 19/134/35 42/135/35
f 19/134/35 116/133/35 22/136/35
f 117/137/36 20/138/36 24/139/36
f 20/138/36 117/137/36 43/140/36
f 41/141/37 71/142/37 74/143/37
f 71/142/37 41/141/37 18/144/37
f 72/145/38 44/146/38 75/147/38
f 72/145/38 17/148/38 44/146/38
f 118/149/39 82/84/39 81/81/39
f 82/84/39 118/149/39 119/150/39
f 120/151/40 84/87/40 121/152/40
f 84/87/40 120/151/40 83/85/40
f 57/153/41 122/154/41 58/155/41
f 58/155/41 122/154/41 123/156/41
f 34/157/42 124/158/42 35/159/42
f 124/158/42 125/160/42 35/159/42
f 40/161/43 126/162/43 38/163/43
f 126/162/43 40/161/43 127/164/43
f 128/165/32 112/166/32 129/167/32
f 112/166/32 128/165/32 113/168/32
f 88/169/31 129/167/31 86/170/31
f 129/167/31 88/169/31 128/165/31
f 70/171/44 69/172/44 130/173/44
f 131/174/44 130/173/44 69/172/44
f 64/175/45 132/176/45 133/177/45
f 68/178/45 64/175/45 133/177/45
f 25/179/46 134/180/46 28/181/46
f 134/180/46 135/182/46 28/181/46
f 32/183/47 136/184/47 30/185/47
f 136/184/47 32/183/47 137/186/47
f 130/187/48 138/188/48 73/189/48
f 130/187/48 73/189/48 70/190/48
f 139/191/49 131/192/49 76/193/49
f 69/194/49 76/193/49 131/192/49
f 90/94/50 110/127/50 89/93/50
f 110/127/50 90/94/50 108/125/50
f 15/195/45 63/196/45 67/197/45
f 15/195/45 67/197/45 13/198/45
f 140/199/51 141/200/51 61/201/51
f 61/201/51 54/202/51 140/199/51
f 141/200/51 64/203/51 61/201/51
f 64/203/51 141/200/51 132/204/51
f 65/205/52 142/206/52 56/207/52
f 142/206/52 65/205/52 143/208/52
f 68/209/52 143/208/52 65/205/52
f 143/208/52 68/209/52 133/210/52
f 129/211/53 114/212/53 144/213/53
f 114/212/53 129/211/53 112/214/53
f 86/215/53 144/213/53 87/216/53
f 144/213/53 86/215/53 129/211/53
f 115/217/54 128/218/54 145/219/54
f 128/218/54 115/217/54 113/220/54
f 145/219/54 88/221/54 85/222/54
f 145/219/54 128/218/54 88/221/54
f 116/133/55 23/223/55 22/136/55
f 21/224/56 117/137/56 24/139/56
f 10/225/51 55/226/51 11/227/51
f 55/226/51 62/228/51 11/227/51
f 14/229/51 62/230/51 15/231/51
f 62/230/51 63/232/51 15/231/51
f 9/233/52 53/234/52 12/235/52
f 53/234/52 9/233/52 66/236/52
f 13/237/52 66/238/52 16/239/52
f 66/238/52 13/237/52 67/240/52
f 104/241/34 105/242/34 146/243/34
f 105/242/34 147/244/34 146/243/34
f 56/245/57 140/246/57 54/247/57
f 140/246/57 56/245/57 142/248/57
f 144/249/58 85/250/58 87/251/58
f 85/250/58 144/249/58 145/252/58
f 114/253/59 145/252/59 144/249/59
f 145/252/59 114/253/59 115/254/59
f 12/255/57 55/256/57 10/257/57
f 55/256/57 12/255/57 53/258/57
f 135/259/60 26/260/60 28/261/60
f 26/260/60 135/259/60 148/262/60
f 137/263/61 29/264/61 149/265/61
f 29/264/61 137/263/61 32/266/61
f 102/267/53 146/268/53 150/269/53
f 146/268/53 102/267/53 104/270/53
f 100/271/53 150/269/53 107/272/53
f 150/269/53 100/271/53 102/267/53
f 151/273/54 103/274/54 106/275/54
f 151/273/54 101/276/54 103/274/54
f 147/277/54 101/276/54 151/273/54
f 101/276/54 147/277/54 105/278/54
f 92/100/62 152/279/62 153/280/62
f 152/279/62 92/100/62 94/102/62
f 44/281/63 42/282/63 41/283/63
f 42/282/63 44/281/63 43/284/63
f 35/285/64 125/286/64 154/287/64
f 154/287/64 33/288/64 35/285/64
f 155/289/65 40/290/65 37/291/65
f 40/290/65 155/289/65 127/292/65
f 57/293/66 156/294/66 122/295/66
f 59/296/66 156/294/66 57/293/66
f 58/297/67 157/298/67 60/299/67
f 157/298/67 58/297/67 123/300/67
f 139/301/68 73/95/68 138/302/68
f 73/95/68 139/301/68 76/98/68
f 109/303/69 92/304/69 110/305/69
f 92/304/69 109/303/69 93/306/69
f 92/304/69 89/307/69 110/305/69
f 89/307/69 92/304/69 153/308/69
f 153/308/69 78/309/69 89/307/69
f 78/309/69 153/308/69 158/310/69
f 78/309/69 158/310/69 79/311/69
f 152/312/70 90/313/70 80/314/70
f 152/312/70 80/314/70 159/315/70
f 90/313/70 94/316/70 108/317/70
f 94/316/70 90/313/70 152/312/70
f 80/314/70 77/318/70 159/315/70
f 94/316/70 111/319/70 108/317/70
f 111/319/70 94/316/70 91/320/70
f 11/321/71 62/322/71 66/323/71
f 11/321/71 66/323/71 9/324/71
f 150/325/58 106/326/58 107/327/58
f 106/326/58 150/325/58 151/328/58
f 160/329/72 81/330/72 47/331/72
f 160/329/72 47/331/72 46/332/72
f 161/333/72 81/330/72 160/329/72
f 81/330/72 161/333/72 162/334/72
f 81/330/72 162/334/72 118/335/72
f 163/336/73 49/337/73 83/338/73
f 49/337/73 163/336/73 50/339/73
f 163/336/73 83/338/73 164/340/73
f 164/340/73 83/338/73 165/341/73
f 83/338/73 120/342/73 165/341/73
f 75/96/74 41/283/74 74/97/74
f 41/283/74 75/96/74 44/281/74
f 146/343/59 151/328/59 150/325/59
f 151/328/59 146/343/59 147/344/59
f 160/345/75 46/346/75 48/347/75
f 48/347/75 166/348/75 160/345/75
f 52/349/76 163/350/76 167/351/76
f 163/350/76 52/349/76 50/352/76
f 153/280/77 159/353/77 158/354/77
f 153/280/77 152/279/77 159/353/77
f 84/355/78 168/356/78 169/357/78
f 84/355/78 169/357/78 121/358/78
f 168/356/78 84/355/78 167/359/78
f 167/359/78 84/355/78 51/360/78
f 167/359/78 51/360/78 52/361/78
f 170/362/79 82/363/79 171/364/79
f 82/363/79 119/365/79 171/364/79
f 166/366/79 82/363/79 170/362/79
f 166/366/79 45/367/79 82/363/79
f 45/367/79 166/366/79 48/368/79
f 34/369/80 172/370/80 124/371/80
f 172/370/80 34/369/80 36/372/80
f 38/373/81 173/374/81 39/375/81
f 173/374/81 38/373/81 126/376/81
f 16/377/82 62/378/82 14/379/82
f 16/377/82 66/380/82 62/378/82
f 27/381/83 134/382/83 25/383/83
f 134/382/83 27/381/83 174/384/83
f 31/385/84 136/386/84 175/387/84
f 30/388/84 136/386/84 31/385/84
f 116/389/85 21/390/85 23/391/85
f 116/389/85 117/392/85 21/390/85
f 42/282/85 43/284/85 116/389/85
f 43/284/85 117/392/85 116/389/85
f 158/354/86 77/393/86 79/394/86
f 158/354/86 159/353/86 77/393/86
f 166/348/87 170/395/87 161/396/87
f 161/396/87 160/345/87 166/348/87
f 167/351/88 164/397/88 168/398/88
f 164/397/88 167/351/88 163/350/88
f 157/399/89 122/400/89 156/401/89
f 122/400/89 157/399/89 123/402/89
f 119/403/90 162/404/90 171/405/90
f 162/404/90 119/403/90 118/406/90
f 165/407/91 121/408/91 169/409/91
f 121/408/91 165/407/91 120/410/91
f 171/411/92 161/396/92 170/395/92
f 161/396/92 171/411/92 162/412/92
f 169/413/93 164/397/93 165/414/93
f 164/397/93 169/413/93 168/398/93
f 59/415/94 60/416/94 156/417/94
f 60/416/94 157/418/94 156/417/94
f 140/419/89 142/420/89 141/421/89
f 143/422/89 141/421/89 142/420/89
f 141/421/89 143/422/89 133/423/89
f 141/421/89 133/423/89 132/424/89
f 176/425/95 1/1/95 3/3/95
f 1/1/95 176/425/95 99/426/95
f 176/425/95 177/427/95 99/426/95
f 178/428/95 99/429/95 177/430/95
f 178/428/95 5/431/95 99/429/95
f 5/431/95 178/428/95 8/432/95
f 130/433/96 139/434/96 138/435/96
f 139/434/96 130/433/96 131/436/96
f 2/437/97 95/438/97 176/439/97
f 2/437/97 176/439/97 3/440/97
f 98/441/98 8/442/98 178/443/98
f 8/442/98 98/441/98 6/444/98
f 134/445/99 148/446/99 135/447/99
f 148/446/99 134/445/99 174/448/99
f 136/449/100 149/450/100 175/451/100
f 149/450/100 136/449/100 137/452/100
f 124/453/99 154/454/99 125/455/99
f 154/454/99 124/453/99 172/456/99
f 126/457/100 155/458/100 173/459/100
f 155/458/100 126/457/100 127/460/100
f 177/461/101 176/439/101 95/438/101
f 95/438/101 97/462/101 177/461/101
f 97/463/102 98/441/102 177/464/102
f 178/443/102 177/464/102 98/441/102
