# Roblox asset pack: egg_elasmosaurus (props), from the Studio model "Elasmosaurus". Exported with Export Selection, split by tools/build_creatures.py: one object per rigid body. Units: studs. +Y up, front faces -Z, pivot (bottom centre) at the origin.
mtllib egg_elasmosaurus.mtl

v -2.36820 4.31000 -1.72000
v 2.36820 4.31000 -1.72000
v -2.36820 2.58000 -1.72000
v 2.36820 2.58000 -1.72000
v 2.36820 4.31000 1.72000
v -2.36820 4.31000 1.72000
v 2.36820 2.58000 1.72000
v -2.36820 2.58000 1.72000
v -1.72230 4.31000 -2.37000
v 1.72230 4.31000 -2.37000
v -1.72230 2.58000 -2.37000
v 1.72230 2.58000 -2.37000
v 1.72230 4.31000 2.37000
v -1.72230 4.31000 2.37000
v 1.72230 2.58000 2.37000
v -1.72230 2.58000 2.37000
v -1.72230 0.86000 -2.37000
v 1.72230 0.86000 -2.37000
v 1.72230 0.86000 2.37000
v -1.72230 0.86000 2.37000
v -2.36820 0.86000 -1.72000
v 2.36820 0.86000 -1.72000
v 2.36820 0.86000 1.72000
v -2.36820 0.86000 1.72000
v -1.29170 6.24000 -1.29000
v 1.29170 6.24000 -1.29000
v -1.29170 5.17000 -1.29000
v 1.29170 5.17000 -1.29000
v 1.29170 6.24000 1.29000
v -1.29170 6.24000 1.29000
v 1.29170 5.17000 1.29000
v -1.29170 5.17000 1.29000
v -1.72230 5.17000 -1.72000
v 1.72230 5.17000 -1.72000
v -1.72230 0.00000 -1.72000
v 1.72230 0.00000 -1.72000
v 1.72230 5.17000 1.72000
v -1.72230 5.17000 1.72000
v 1.72230 0.00000 1.72000
v -1.72230 0.00000 1.72000
vt 4.59205 -0.75000
vt 4.00000 -0.75000
vt 4.59205 -0.96529
vt 4.00000 -0.96529
vt 4.43058 -0.75000
vt 4.43058 -1.34205
vt 4.00000 -1.34205
vt 4.43058 -0.96529
vt 0.43058 -4.75000
vt 0.00000 -4.75000
vt 0.43058 -4.96529
vt 0.00000 -4.96529
vt 0.59205 -4.75000
vt 0.59205 -5.18058
vt 0.00000 -5.18058
vt 0.59205 -4.96529
vt 6.18058 -3.25000
vt 5.75000 -3.25000
vt 6.18058 -3.46529
vt 5.75000 -3.46529
vt 6.34205 -3.25000
vt 6.34205 -3.68058
vt 5.75000 -3.68058
vt 6.34205 -3.46529
vt 1.34205 -2.25000
vt 0.75000 -2.25000
vt 1.34205 -2.46529
vt 0.75000 -2.46529
vt 1.18058 -2.25000
vt 1.18058 -2.84205
vt 0.75000 -2.84205
vt 1.18058 -2.46529
vt 2.57293 -1.00000
vt 2.25000 -1.00000
vt 2.57293 -1.13456
vt 2.25000 -1.13456
vt 2.57293 -1.32293
vt 2.25000 -1.32293
vt 7.18058 -6.25000
vt 6.75000 -6.25000
vt 7.18058 -6.89587
vt 6.75000 -6.89587
vt 7.18058 -6.68058
vt 6.75000 -6.68058
vn 0.0000 0.0000 -1.0000
vn 0.0000 1.0000 0.0000
vn 1.0000 0.0000 0.0000
vn 0.0000 0.0000 1.0000
vn 0.0000 -1.0000 0.0000
vn -1.0000 0.0000 0.0000

o egg_elasmosaurus
usemtl c_aa5500
f 1/1/1 2/2/1 3/3/1
f 3/3/1 2/2/1 4/4/1
f 5/5/2 2/2/2 6/6/2
f 6/6/2 2/2/2 1/7/2
f 2/5/3 5/2/3 4/8/3
f 4/8/3 5/2/3 7/4/3
f 5/1/4 6/2/4 7/3/4
f 7/3/4 6/2/4 8/4/4
f 8/5/5 3/2/5 7/6/5
f 7/6/5 3/2/5 4/7/5
f 6/5/6 1/2/6 8/8/6
f 8/8/6 1/2/6 3/4/6
f 9/9/1 10/10/1 11/11/1
f 11/11/1 10/10/1 12/12/1
f 13/13/2 10/10/2 14/14/2
f 14/14/2 10/10/2 9/15/2
f 10/13/3 13/10/3 12/16/3
f 12/16/3 13/10/3 15/12/3
f 13/9/4 14/10/4 15/11/4
f 15/11/4 14/10/4 16/12/4
f 16/13/5 11/10/5 15/14/5
f 15/14/5 11/10/5 12/15/5
f 14/13/6 9/10/6 16/16/6
f 16/16/6 9/10/6 11/12/6
usemtl c_564236
f 11/17/1 12/18/1 17/19/1
f 17/19/1 12/18/1 18/20/1
f 15/21/2 12/18/2 16/22/2
f 16/22/2 12/18/2 11/23/2
f 12/21/3 15/18/3 18/24/3
f 18/24/3 15/18/3 19/20/3
f 15/17/4 16/18/4 19/19/4
f 19/19/4 16/18/4 20/20/4
f 20/21/5 17/18/5 19/22/5
f 19/22/5 17/18/5 18/23/5
f 16/21/6 11/18/6 20/24/6
f 20/24/6 11/18/6 17/20/6
f 3/25/1 4/26/1 21/27/1
f 21/27/1 4/26/1 22/28/1
f 7/29/2 4/26/2 8/30/2
f 8/30/2 4/26/2 3/31/2
f 4/29/3 7/26/3 22/32/3
f 22/32/3 7/26/3 23/28/3
f 7/25/4 8/26/4 23/27/4
f 23/27/4 8/26/4 24/28/4
f 24/29/5 21/26/5 23/30/5
f 23/30/5 21/26/5 22/31/5
f 8/29/6 3/26/6 24/32/6
f 24/32/6 3/26/6 21/28/6
usemtl c_e29b40
f 25/33/1 26/34/1 27/35/1
f 27/35/1 26/34/1 28/36/1
f 29/33/2 26/34/2 30/37/2
f 30/37/2 26/34/2 25/38/2
f 26/33/3 29/34/3 28/35/3
f 28/35/3 29/34/3 31/36/3
f 29/33/4 30/34/4 31/35/4
f 31/35/4 30/34/4 32/36/4
f 32/33/5 27/34/5 31/37/5
f 31/37/5 27/34/5 28/38/5
f 30/33/6 25/34/6 32/35/6
f 32/35/6 25/34/6 27/36/6
usemtl c_da8541
f 33/39/1 34/40/1 35/41/1
f 35/41/1 34/40/1 36/42/1
f 37/39/2 34/40/2 38/43/2
f 38/43/2 34/40/2 33/44/2
f 34/39/3 37/40/3 36/41/3
f 36/41/3 37/40/3 39/42/3
f 37/39/4 38/40/4 39/41/4
f 39/41/4 38/40/4 40/42/4
f 40/39/5 35/40/5 39/43/5
f 39/43/5 35/40/5 36/44/5
f 38/39/6 33/40/6 40/41/6
f 40/41/6 33/40/6 35/42/6
